<?xml version="1.0" encoding="UTF-8" standalone="no"?>
<!DOCTYPE svg PUBLIC "-//W3C//DTD SVG 1.1//EN"
 "http://www.w3.org/Graphics/SVG/1.1/DTD/svg11.dtd">
<!-- Generated by graphviz version 2.43.0 (0)
 -->
<!-- Title: src/hash/bhopscotch_map.h Pages: 1 -->
<!--zoomable 202 -->
<svg id="main" version="1.1" xmlns="http://www.w3.org/2000/svg" xmlns:xlink="http://www.w3.org/1999/xlink" xml:space="preserve" onload="init(evt)">
<style type="text/css"><![CDATA[
.edge:hover path { stroke: red; }
.edge:hover polygon { stroke: red; fill: red; }
]]></style>
<script type="text/javascript"><![CDATA[
var edges = document.getElementsByTagName('g');
if (edges && edges.length) {
  for (var i=0;i<edges.length;i++) {
    if (edges[i].id.substr(0,4)=='edge') {
      edges[i].setAttribute('class','edge');
    }
  }
}
]]></script>
        <defs>
                <circle id="rim" cx="0" cy="0" r="7"/>
                <circle id="rim2" cx="0" cy="0" r="3.5"/>
                <g id="zoomPlus">
                        <use xlink:href="#rim" fill="#404040">
                                <set attributeName="fill" to="#808080" begin="zoomplus.mouseover" end="zoomplus.mouseout"/>
                        </use>
                        <path d="M-4,0h8M0,-4v8" fill="none" stroke="white" stroke-width="1.5" pointer-events="none"/>
                </g>
                <g id="zoomMin">
                        <use xlink:href="#rim" fill="#404040">
                                <set attributeName="fill" to="#808080" begin="zoomminus.mouseover" end="zoomminus.mouseout"/>
                        </use>
                        <path d="M-4,0h8" fill="none" stroke="white" stroke-width="1.5" pointer-events="none"/>
                </g>
                <g id="dirArrow">
                        <path fill="none" stroke="white" stroke-width="1.5" d="M0,-3.0v7 M-2.5,-0.5L0,-3.0L2.5,-0.5"/>
                </g>
               <g id="resetDef">
                       <use xlink:href="#rim2" fill="#404040">
                               <set attributeName="fill" to="#808080" begin="reset.mouseover" end="reset.mouseout"/>
                       </use>
               </g>
        </defs>

<script type="text/javascript">
var viewWidth = 1232;
var viewHeight = 202;
var sectionId = 'dynsection-0';
</script>
<script xlink:href="svgpan.js"/>
<svg id="graph" class="graph">
<g id="viewport">
<title>src/hash/bhopscotch_map.h</title>
<polygon fill="white" stroke="transparent" points="-4,4 -4,-198 1228.29,-198 1228.29,4 -4,4"/>
<!-- Node1 -->
<g id="node1" class="node">
<title>Node1</title>
<g id="a_node1"><a xlink:title=" ">
<polygon fill="#bfbfbf" stroke="black" points="916.7,-165.5 916.7,-193.5 1024.42,-193.5 1024.42,-165.5 916.7,-165.5"/>
<text text-anchor="start" x="924.7" y="-181.5" font-family="Helvetica,sans-Serif" font-size="10.00">src/hash/bhopscotch</text>
<text text-anchor="middle" x="970.56" y="-171.5" font-family="Helvetica,sans-Serif" font-size="10.00">_map.h</text>
</a>
</g>
</g>
<!-- Node2 -->
<g id="node2" class="node">
<title>Node2</title>
<g id="a_node2"><a xlink:href="hopscotch__hash_8h.html" target="_top" xlink:title=" ">
<polygon fill="white" stroke="black" points="583.98,-110.5 583.98,-128.5 681.15,-128.5 681.15,-110.5 583.98,-110.5"/>
<text text-anchor="middle" x="632.56" y="-116.5" font-family="Helvetica,sans-Serif" font-size="10.00">hopscotch_hash.h</text>
</a>
</g>
</g>
<!-- Node1&#45;&gt;Node2 -->
<g id="edge1" class="edge">
<title>Node1&#45;&gt;Node2</title>
<path fill="none" stroke="midnightblue" d="M916.63,-169.25C854.49,-158.58 752.81,-141.13 689.44,-130.26"/>
<polygon fill="midnightblue" stroke="midnightblue" points="689.68,-126.75 679.23,-128.51 688.49,-133.65 689.68,-126.75"/>
</g>
<!-- Node4 -->
<g id="node4" class="node">
<title>Node4</title>
<g id="a_node4"><a xlink:title=" ">
<polygon fill="white" stroke="#bfbfbf" points="0,-0.5 0,-18.5 57.13,-18.5 57.13,-0.5 0,-0.5"/>
<text text-anchor="middle" x="28.56" y="-6.5" font-family="Helvetica,sans-Serif" font-size="10.00">algorithm</text>
</a>
</g>
</g>
<!-- Node1&#45;&gt;Node4 -->
<g id="edge28" class="edge">
<title>Node1&#45;&gt;Node4</title>
<path fill="none" stroke="midnightblue" d="M916.68,-177.53C746.59,-173.65 223.73,-155.24 78.56,-74 59.86,-63.53 45.68,-42.95 37.28,-28.05"/>
<polygon fill="midnightblue" stroke="midnightblue" points="40.17,-26.04 32.4,-18.83 33.98,-29.31 40.17,-26.04"/>
</g>
<!-- Node8 -->
<g id="node8" class="node">
<title>Node8</title>
<g id="a_node8"><a xlink:title=" ">
<polygon fill="white" stroke="#bfbfbf" points="725.44,-0.5 725.44,-18.5 773.68,-18.5 773.68,-0.5 725.44,-0.5"/>
<text text-anchor="middle" x="749.56" y="-6.5" font-family="Helvetica,sans-Serif" font-size="10.00">cstddef</text>
</a>
</g>
</g>
<!-- Node1&#45;&gt;Node8 -->
<g id="edge29" class="edge">
<title>Node1&#45;&gt;Node8</title>
<path fill="none" stroke="midnightblue" d="M1017.9,-165.48C1082.52,-145.48 1185.59,-104.31 1141.56,-55 1117.9,-28.49 874.98,-15.72 783.85,-11.83"/>
<polygon fill="midnightblue" stroke="midnightblue" points="783.9,-8.33 773.76,-11.41 783.61,-15.32 783.9,-8.33"/>
</g>
<!-- Node16 -->
<g id="node16" class="node">
<title>Node16</title>
<g id="a_node16"><a xlink:title=" ">
<polygon fill="white" stroke="#bfbfbf" points="777.16,-55.5 777.16,-73.5 835.97,-73.5 835.97,-55.5 777.16,-55.5"/>
<text text-anchor="middle" x="806.56" y="-61.5" font-family="Helvetica,sans-Serif" font-size="10.00">functional</text>
</a>
</g>
</g>
<!-- Node1&#45;&gt;Node16 -->
<g id="edge30" class="edge">
<title>Node1&#45;&gt;Node16</title>
<path fill="none" stroke="midnightblue" d="M951.43,-165.32C920.21,-143.8 858.59,-101.35 826.72,-79.39"/>
<polygon fill="midnightblue" stroke="midnightblue" points="828.43,-76.32 818.21,-73.52 824.46,-82.08 828.43,-76.32"/>
</g>
<!-- Node17 -->
<g id="node17" class="node">
<title>Node17</title>
<g id="a_node17"><a xlink:title=" ">
<polygon fill="white" stroke="#bfbfbf" points="854.22,-55.5 854.22,-73.5 926.91,-73.5 926.91,-55.5 854.22,-55.5"/>
<text text-anchor="middle" x="890.56" y="-61.5" font-family="Helvetica,sans-Serif" font-size="10.00">initializer_list</text>
</a>
</g>
</g>
<!-- Node1&#45;&gt;Node17 -->
<g id="edge31" class="edge">
<title>Node1&#45;&gt;Node17</title>
<path fill="none" stroke="midnightblue" d="M961.07,-165.09C946.38,-144.34 918.15,-104.47 902.23,-81.98"/>
<polygon fill="midnightblue" stroke="midnightblue" points="905.06,-79.91 896.42,-73.77 899.34,-83.96 905.06,-79.91"/>
</g>
<!-- Node18 -->
<g id="node18" class="node">
<title>Node18</title>
<g id="a_node18"><a xlink:title=" ">
<polygon fill="white" stroke="#bfbfbf" points="944.51,-55.5 944.51,-73.5 996.62,-73.5 996.62,-55.5 944.51,-55.5"/>
<text text-anchor="middle" x="970.56" y="-61.5" font-family="Helvetica,sans-Serif" font-size="10.00">memory</text>
</a>
</g>
</g>
<!-- Node1&#45;&gt;Node18 -->
<g id="edge33" class="edge">
<title>Node1&#45;&gt;Node18</title>
<path fill="none" stroke="midnightblue" d="M970.56,-165.09C970.56,-144.89 970.56,-106.58 970.56,-83.82"/>
<polygon fill="midnightblue" stroke="midnightblue" points="974.06,-83.77 970.56,-73.77 967.06,-83.77 974.06,-83.77"/>
</g>
<!-- Node20 -->
<g id="node20" class="node">
<title>Node20</title>
<g id="a_node20"><a xlink:title=" ">
<polygon fill="white" stroke="#bfbfbf" points="1014.5,-55.5 1014.5,-73.5 1076.63,-73.5 1076.63,-55.5 1014.5,-55.5"/>
<text text-anchor="middle" x="1045.56" y="-61.5" font-family="Helvetica,sans-Serif" font-size="10.00">type_traits</text>
</a>
</g>
</g>
<!-- Node1&#45;&gt;Node20 -->
<g id="edge34" class="edge">
<title>Node1&#45;&gt;Node20</title>
<path fill="none" stroke="midnightblue" d="M979.46,-165.09C993.18,-144.43 1019.46,-104.82 1034.43,-82.28"/>
<polygon fill="midnightblue" stroke="midnightblue" points="1037.46,-84.04 1040.07,-73.77 1031.63,-80.17 1037.46,-84.04"/>
</g>
<!-- Node21 -->
<g id="node21" class="node">
<title>Node21</title>
<g id="a_node21"><a xlink:title=" ">
<polygon fill="white" stroke="#bfbfbf" points="1094.17,-55.5 1094.17,-73.5 1132.96,-73.5 1132.96,-55.5 1094.17,-55.5"/>
<text text-anchor="middle" x="1113.56" y="-61.5" font-family="Helvetica,sans-Serif" font-size="10.00">utility</text>
</a>
</g>
</g>
<!-- Node1&#45;&gt;Node21 -->
<g id="edge35" class="edge">
<title>Node1&#45;&gt;Node21</title>
<path fill="none" stroke="midnightblue" d="M987.25,-165.32C1014.24,-143.99 1067.28,-102.08 1095.27,-79.96"/>
<polygon fill="midnightblue" stroke="midnightblue" points="1097.73,-82.47 1103.41,-73.52 1093.39,-76.98 1097.73,-82.47"/>
</g>
<!-- Node23 -->
<g id="node23" class="node">
<title>Node23</title>
<g id="a_node23"><a xlink:title=" ">
<polygon fill="white" stroke="#bfbfbf" points="1188.84,-110.5 1188.84,-128.5 1224.29,-128.5 1224.29,-110.5 1188.84,-110.5"/>
<text text-anchor="middle" x="1206.56" y="-116.5" font-family="Helvetica,sans-Serif" font-size="10.00">map</text>
</a>
</g>
</g>
<!-- Node1&#45;&gt;Node23 -->
<g id="edge32" class="edge">
<title>Node1&#45;&gt;Node23</title>
<path fill="none" stroke="midnightblue" d="M1024.76,-165.69C1065.92,-155.87 1123.88,-141.88 1174.56,-129 1175.99,-128.64 1177.45,-128.26 1178.93,-127.88"/>
<polygon fill="midnightblue" stroke="midnightblue" points="1179.86,-131.26 1188.64,-125.33 1178.08,-124.48 1179.86,-131.26"/>
</g>
<!-- Node3 -->
<g id="node3" class="node">
<title>Node3</title>
<g id="a_node3"><a xlink:href="hopscotch__growth__policy_8h.html" target="_top" xlink:title=" ">
<polygon fill="white" stroke="black" points="148.62,-55.5 148.62,-73.5 284.51,-73.5 284.51,-55.5 148.62,-55.5"/>
<text text-anchor="middle" x="216.56" y="-61.5" font-family="Helvetica,sans-Serif" font-size="10.00">hopscotch_growth_policy.h</text>
</a>
</g>
</g>
<!-- Node2&#45;&gt;Node3 -->
<g id="edge2" class="edge">
<title>Node2&#45;&gt;Node3</title>
<path fill="none" stroke="midnightblue" d="M583.62,-112.26C510.97,-103.01 374.11,-85.57 289.59,-74.8"/>
<polygon fill="midnightblue" stroke="midnightblue" points="289.91,-71.32 279.55,-73.52 289.03,-78.26 289.91,-71.32"/>
</g>
<!-- Node2&#45;&gt;Node4 -->
<g id="edge12" class="edge">
<title>Node2&#45;&gt;Node4</title>
<path fill="none" stroke="midnightblue" d="M583.91,-117.6C472.41,-115 201.49,-105.53 116.56,-74 87.99,-63.39 60.38,-40.83 43.93,-25.66"/>
<polygon fill="midnightblue" stroke="midnightblue" points="46.06,-22.85 36.4,-18.5 41.24,-27.93 46.06,-22.85"/>
</g>
<!-- Node7 -->
<g id="node7" class="node">
<title>Node7</title>
<g id="a_node7"><a xlink:title=" ">
<polygon fill="white" stroke="#bfbfbf" points="554.95,-0.5 554.95,-18.5 598.18,-18.5 598.18,-0.5 554.95,-0.5"/>
<text text-anchor="middle" x="576.56" y="-6.5" font-family="Helvetica,sans-Serif" font-size="10.00">cmath</text>
</a>
</g>
</g>
<!-- Node2&#45;&gt;Node7 -->
<g id="edge14" class="edge">
<title>Node2&#45;&gt;Node7</title>
<path fill="none" stroke="midnightblue" d="M650.52,-110.41C673.27,-99.01 707.77,-77.12 692.56,-55 673.82,-27.73 635.89,-17.17 608.49,-13.07"/>
<polygon fill="midnightblue" stroke="midnightblue" points="608.94,-9.6 598.57,-11.8 608.05,-16.55 608.94,-9.6"/>
</g>
<!-- Node2&#45;&gt;Node8 -->
<g id="edge15" class="edge">
<title>Node2&#45;&gt;Node8</title>
<path fill="none" stroke="midnightblue" d="M651.69,-110.39C668.13,-102.75 691.78,-90.07 708.56,-74 722.46,-60.69 733.89,-41.8 741.12,-28.08"/>
<polygon fill="midnightblue" stroke="midnightblue" points="744.43,-29.29 745.8,-18.78 738.18,-26.14 744.43,-29.29"/>
</g>
<!-- Node9 -->
<g id="node9" class="node">
<title>Node9</title>
<g id="a_node9"><a xlink:title=" ">
<polygon fill="white" stroke="#bfbfbf" points="75,-0.5 75,-18.5 122.13,-18.5 122.13,-0.5 75,-0.5"/>
<text text-anchor="middle" x="98.56" y="-6.5" font-family="Helvetica,sans-Serif" font-size="10.00">iterator</text>
</a>
</g>
</g>
<!-- Node2&#45;&gt;Node9 -->
<g id="edge20" class="edge">
<title>Node2&#45;&gt;Node9</title>
<path fill="none" stroke="midnightblue" d="M583.59,-116.51C466.44,-111.4 176.98,-96.62 139.56,-74 122.58,-63.73 111.35,-43.42 105,-28.53"/>
<polygon fill="midnightblue" stroke="midnightblue" points="108.13,-26.91 101.24,-18.86 101.61,-29.45 108.13,-26.91"/>
</g>
<!-- Node10 -->
<g id="node10" class="node">
<title>Node10</title>
<g id="a_node10"><a xlink:title=" ">
<polygon fill="white" stroke="#bfbfbf" points="312.18,-0.5 312.18,-18.5 350.95,-18.5 350.95,-0.5 312.18,-0.5"/>
<text text-anchor="middle" x="331.56" y="-6.5" font-family="Helvetica,sans-Serif" font-size="10.00">limits</text>
</a>
</g>
</g>
<!-- Node2&#45;&gt;Node10 -->
<g id="edge21" class="edge">
<title>Node2&#45;&gt;Node10</title>
<path fill="none" stroke="midnightblue" d="M583.87,-115.87C515.55,-111.31 395.78,-99.8 361.56,-74 346.98,-63 339.19,-43.13 335.24,-28.54"/>
<polygon fill="midnightblue" stroke="midnightblue" points="338.61,-27.58 332.92,-18.64 331.79,-29.17 338.61,-27.58"/>
</g>
<!-- Node12 -->
<g id="node12" class="node">
<title>Node12</title>
<g id="a_node12"><a xlink:title=" ">
<polygon fill="white" stroke="#bfbfbf" points="369.16,-0.5 369.16,-18.5 427.97,-18.5 427.97,-0.5 369.16,-0.5"/>
<text text-anchor="middle" x="398.56" y="-6.5" font-family="Helvetica,sans-Serif" font-size="10.00">stdexcept</text>
</a>
</g>
</g>
<!-- Node2&#45;&gt;Node12 -->
<g id="edge23" class="edge">
<title>Node2&#45;&gt;Node12</title>
<path fill="none" stroke="midnightblue" d="M583.9,-117.48C515.56,-114.9 396.46,-105.83 369.56,-74 357.53,-59.76 370.43,-39.71 382.64,-25.97"/>
<polygon fill="midnightblue" stroke="midnightblue" points="385.2,-28.36 389.56,-18.7 380.13,-23.53 385.2,-28.36"/>
</g>
<!-- Node13 -->
<g id="node13" class="node">
<title>Node13</title>
<g id="a_node13"><a xlink:title=" ">
<polygon fill="white" stroke="#bfbfbf" points="378.45,-55.5 378.45,-73.5 426.68,-73.5 426.68,-55.5 378.45,-55.5"/>
<text text-anchor="middle" x="402.56" y="-61.5" font-family="Helvetica,sans-Serif" font-size="10.00">cassert</text>
</a>
</g>
</g>
<!-- Node2&#45;&gt;Node13 -->
<g id="edge13" class="edge">
<title>Node2&#45;&gt;Node13</title>
<path fill="none" stroke="midnightblue" d="M596.02,-110.45C556.62,-101.72 492.06,-87.24 436.56,-74 436.46,-73.98 436.36,-73.95 436.26,-73.93"/>
<polygon fill="midnightblue" stroke="midnightblue" points="437.24,-70.56 426.69,-71.6 435.58,-77.37 437.24,-70.56"/>
</g>
<!-- Node14 -->
<g id="node14" class="node">
<title>Node14</title>
<g id="a_node14"><a xlink:title=" ">
<polygon fill="white" stroke="#bfbfbf" points="445.11,-55.5 445.11,-73.5 490.01,-73.5 490.01,-55.5 445.11,-55.5"/>
<text text-anchor="middle" x="467.56" y="-61.5" font-family="Helvetica,sans-Serif" font-size="10.00">cstdint</text>
</a>
</g>
</g>
<!-- Node2&#45;&gt;Node14 -->
<g id="edge16" class="edge">
<title>Node2&#45;&gt;Node14</title>
<path fill="none" stroke="midnightblue" d="M607.5,-110.45C578.71,-101.2 531.37,-86 499.84,-75.87"/>
<polygon fill="midnightblue" stroke="midnightblue" points="500.79,-72.5 490.2,-72.77 498.65,-79.16 500.79,-72.5"/>
</g>
<!-- Node15 -->
<g id="node15" class="node">
<title>Node15</title>
<g id="a_node15"><a xlink:title=" ">
<polygon fill="white" stroke="#bfbfbf" points="508.16,-55.5 508.16,-73.5 566.97,-73.5 566.97,-55.5 508.16,-55.5"/>
<text text-anchor="middle" x="537.56" y="-61.5" font-family="Helvetica,sans-Serif" font-size="10.00">exception</text>
</a>
</g>
</g>
<!-- Node2&#45;&gt;Node15 -->
<g id="edge17" class="edge">
<title>Node2&#45;&gt;Node15</title>
<path fill="none" stroke="midnightblue" d="M618.14,-110.45C603.07,-102.05 579.19,-88.72 561.34,-78.76"/>
<polygon fill="midnightblue" stroke="midnightblue" points="562.57,-75.44 552.13,-73.63 559.16,-81.55 562.57,-75.44"/>
</g>
<!-- Node2&#45;&gt;Node16 -->
<g id="edge18" class="edge">
<title>Node2&#45;&gt;Node16</title>
<path fill="none" stroke="midnightblue" d="M658.99,-110.45C688.72,-101.4 737.17,-86.64 770.39,-76.52"/>
<polygon fill="midnightblue" stroke="midnightblue" points="771.63,-79.8 780.17,-73.54 769.59,-73.1 771.63,-79.8"/>
</g>
<!-- Node2&#45;&gt;Node17 -->
<g id="edge19" class="edge">
<title>Node2&#45;&gt;Node17</title>
<path fill="none" stroke="midnightblue" d="M671.75,-110.45C717.94,-100.96 794.64,-85.21 843.87,-75.09"/>
<polygon fill="midnightblue" stroke="midnightblue" points="844.85,-78.46 853.94,-73.02 843.44,-71.61 844.85,-78.46"/>
</g>
<!-- Node2&#45;&gt;Node18 -->
<g id="edge22" class="edge">
<title>Node2&#45;&gt;Node18</title>
<path fill="none" stroke="midnightblue" d="M681.34,-112.75C739.36,-105.59 839.32,-92.28 934.2,-74.11"/>
<polygon fill="midnightblue" stroke="midnightblue" points="935.1,-77.5 944.25,-72.17 933.76,-70.63 935.1,-77.5"/>
</g>
<!-- Node19 -->
<g id="node19" class="node">
<title>Node19</title>
<g id="a_node19"><a xlink:title=" ">
<polygon fill="white" stroke="#bfbfbf" points="584.72,-55.5 584.72,-73.5 622.41,-73.5 622.41,-55.5 584.72,-55.5"/>
<text text-anchor="middle" x="603.56" y="-61.5" font-family="Helvetica,sans-Serif" font-size="10.00">tuple</text>
</a>
</g>
</g>
<!-- Node2&#45;&gt;Node19 -->
<g id="edge24" class="edge">
<title>Node2&#45;&gt;Node19</title>
<path fill="none" stroke="midnightblue" d="M628.03,-110.22C623.97,-102.79 617.87,-91.65 612.78,-82.34"/>
<polygon fill="midnightblue" stroke="midnightblue" points="615.84,-80.64 607.97,-73.55 609.7,-84 615.84,-80.64"/>
</g>
<!-- Node2&#45;&gt;Node20 -->
<g id="edge25" class="edge">
<title>Node2&#45;&gt;Node20</title>
<path fill="none" stroke="midnightblue" d="M681.34,-114.1C750.82,-107.53 882.46,-93.92 1003.95,-74.13"/>
<polygon fill="midnightblue" stroke="midnightblue" points="1004.87,-77.53 1014.17,-72.45 1003.74,-70.62 1004.87,-77.53"/>
</g>
<!-- Node2&#45;&gt;Node21 -->
<g id="edge26" class="edge">
<title>Node2&#45;&gt;Node21</title>
<path fill="none" stroke="midnightblue" d="M681.29,-116.85C762.99,-113.41 932.74,-103.35 1084.16,-73.91"/>
<polygon fill="midnightblue" stroke="midnightblue" points="1084.98,-77.32 1094.11,-71.94 1083.62,-70.45 1084.98,-77.32"/>
</g>
<!-- Node22 -->
<g id="node22" class="node">
<title>Node22</title>
<g id="a_node22"><a xlink:title=" ">
<polygon fill="white" stroke="#bfbfbf" points="639.95,-55.5 639.95,-73.5 683.18,-73.5 683.18,-55.5 639.95,-55.5"/>
<text text-anchor="middle" x="661.56" y="-61.5" font-family="Helvetica,sans-Serif" font-size="10.00">vector</text>
</a>
</g>
</g>
<!-- Node2&#45;&gt;Node22 -->
<g id="edge27" class="edge">
<title>Node2&#45;&gt;Node22</title>
<path fill="none" stroke="midnightblue" d="M637.1,-110.22C641.16,-102.79 647.26,-91.65 652.35,-82.34"/>
<polygon fill="midnightblue" stroke="midnightblue" points="655.43,-84 657.16,-73.55 649.29,-80.64 655.43,-84"/>
</g>
<!-- Node3&#45;&gt;Node4 -->
<g id="edge3" class="edge">
<title>Node3&#45;&gt;Node4</title>
<path fill="none" stroke="midnightblue" d="M188.01,-55.45C155.62,-46.32 102.64,-31.38 66.72,-21.26"/>
<polygon fill="midnightblue" stroke="midnightblue" points="67.65,-17.88 57.08,-18.54 65.75,-24.62 67.65,-17.88"/>
</g>
<!-- Node5 -->
<g id="node5" class="node">
<title>Node5</title>
<g id="a_node5"><a xlink:title=" ">
<polygon fill="white" stroke="#bfbfbf" points="140.17,-0.5 140.17,-18.5 178.96,-18.5 178.96,-0.5 140.17,-0.5"/>
<text text-anchor="middle" x="159.56" y="-6.5" font-family="Helvetica,sans-Serif" font-size="10.00">array</text>
</a>
</g>
</g>
<!-- Node3&#45;&gt;Node5 -->
<g id="edge4" class="edge">
<title>Node3&#45;&gt;Node5</title>
<path fill="none" stroke="midnightblue" d="M207.66,-55.22C199.16,-47.32 186.15,-35.22 175.81,-25.61"/>
<polygon fill="midnightblue" stroke="midnightblue" points="177.93,-22.8 168.22,-18.55 173.16,-27.92 177.93,-22.8"/>
</g>
<!-- Node6 -->
<g id="node6" class="node">
<title>Node6</title>
<g id="a_node6"><a xlink:title=" ">
<polygon fill="white" stroke="#bfbfbf" points="196.68,-0.5 196.68,-18.5 240.45,-18.5 240.45,-0.5 196.68,-0.5"/>
<text text-anchor="middle" x="218.56" y="-6.5" font-family="Helvetica,sans-Serif" font-size="10.00">climits</text>
</a>
</g>
</g>
<!-- Node3&#45;&gt;Node6 -->
<g id="edge5" class="edge">
<title>Node3&#45;&gt;Node6</title>
<path fill="none" stroke="midnightblue" d="M216.88,-55.22C217.14,-48.18 217.53,-37.81 217.87,-28.83"/>
<polygon fill="midnightblue" stroke="midnightblue" points="221.38,-28.67 218.26,-18.55 214.39,-28.41 221.38,-28.67"/>
</g>
<!-- Node3&#45;&gt;Node7 -->
<g id="edge6" class="edge">
<title>Node3&#45;&gt;Node7</title>
<path fill="none" stroke="midnightblue" d="M271.24,-55.45C347.48,-44.23 483.25,-24.24 544.74,-15.19"/>
<polygon fill="midnightblue" stroke="midnightblue" points="545.26,-18.65 554.64,-13.73 544.24,-11.72 545.26,-18.65"/>
</g>
<!-- Node3&#45;&gt;Node8 -->
<g id="edge7" class="edge">
<title>Node3&#45;&gt;Node8</title>
<path fill="none" stroke="midnightblue" d="M284.61,-56.73C399.65,-45.29 628.5,-22.54 715.2,-13.92"/>
<polygon fill="midnightblue" stroke="midnightblue" points="715.68,-17.39 725.28,-12.91 714.99,-10.42 715.68,-17.39"/>
</g>
<!-- Node3&#45;&gt;Node9 -->
<g id="edge8" class="edge">
<title>Node3&#45;&gt;Node9</title>
<path fill="none" stroke="midnightblue" d="M198.64,-55.45C179.32,-46.77 148.34,-32.86 125.96,-22.8"/>
<polygon fill="midnightblue" stroke="midnightblue" points="127.21,-19.53 116.65,-18.63 124.34,-25.92 127.21,-19.53"/>
</g>
<!-- Node3&#45;&gt;Node10 -->
<g id="edge9" class="edge">
<title>Node3&#45;&gt;Node10</title>
<path fill="none" stroke="midnightblue" d="M234.03,-55.45C252.77,-46.81 282.79,-32.98 304.57,-22.94"/>
<polygon fill="midnightblue" stroke="midnightblue" points="306.32,-25.99 313.93,-18.63 303.39,-19.63 306.32,-25.99"/>
</g>
<!-- Node11 -->
<g id="node11" class="node">
<title>Node11</title>
<g id="a_node11"><a xlink:title=" ">
<polygon fill="white" stroke="#bfbfbf" points="258.84,-0.5 258.84,-18.5 294.29,-18.5 294.29,-0.5 258.84,-0.5"/>
<text text-anchor="middle" x="276.56" y="-6.5" font-family="Helvetica,sans-Serif" font-size="10.00">ratio</text>
</a>
</g>
</g>
<!-- Node3&#45;&gt;Node11 -->
<g id="edge10" class="edge">
<title>Node3&#45;&gt;Node11</title>
<path fill="none" stroke="midnightblue" d="M225.68,-55.45C234.66,-47.51 248.61,-35.19 259.64,-25.45"/>
<polygon fill="midnightblue" stroke="midnightblue" points="262.19,-27.87 267.37,-18.63 257.55,-22.62 262.19,-27.87"/>
</g>
<!-- Node3&#45;&gt;Node12 -->
<g id="edge11" class="edge">
<title>Node3&#45;&gt;Node12</title>
<path fill="none" stroke="midnightblue" d="M244.21,-55.45C275.43,-46.36 326.41,-31.51 361.18,-21.39"/>
<polygon fill="midnightblue" stroke="midnightblue" points="362.34,-24.69 370.96,-18.54 360.38,-17.97 362.34,-24.69"/>
</g>
</g>
</svg>
        <g id="navigator" transform="translate(0 0)" fill="#404254">
                <rect fill="#f2f5e9" fill-opacity="0.5" stroke="#606060" stroke-width=".5" x="0" y="0" width="60" height="60"/>
                <use id="zoomplus" xlink:href="#zoomPlus" x="17" y="9" onmousedown="handleZoom(evt,'in')"/>
                <use id="zoomminus" xlink:href="#zoomMin" x="42" y="9" onmousedown="handleZoom(evt,'out')"/>
                <use id="reset" xlink:href="#resetDef" x="30" y="36" onmousedown="handleReset()"/>
                <g id="arrowUp" xlink:href="#dirArrow" transform="translate(30 24)" onmousedown="handlePan(0,-1)">
                  <use xlink:href="#rim" fill="#404040">
                        <set attributeName="fill" to="#808080" begin="arrowUp.mouseover" end="arrowUp.mouseout"/>
                  </use>
                  <path fill="none" stroke="white" stroke-width="1.5" d="M0,-3.0v7 M-2.5,-0.5L0,-3.0L2.5,-0.5"/>
                </g>
                <g id="arrowRight" xlink:href="#dirArrow" transform="rotate(90) translate(36 -43)" onmousedown="handlePan(1,0)">
                  <use xlink:href="#rim" fill="#404040">
                        <set attributeName="fill" to="#808080" begin="arrowRight.mouseover" end="arrowRight.mouseout"/>
                  </use>
                  <path fill="none" stroke="white" stroke-width="1.5" d="M0,-3.0v7 M-2.5,-0.5L0,-3.0L2.5,-0.5"/>
                </g>
                <g id="arrowDown" xlink:href="#dirArrow" transform="rotate(180) translate(-30 -48)" onmousedown="handlePan(0,1)">
                  <use xlink:href="#rim" fill="#404040">
                        <set attributeName="fill" to="#808080" begin="arrowDown.mouseover" end="arrowDown.mouseout"/>
                  </use>
                  <path fill="none" stroke="white" stroke-width="1.5" d="M0,-3.0v7 M-2.5,-0.5L0,-3.0L2.5,-0.5"/>
                </g>
                <g id="arrowLeft" xlink:href="#dirArrow" transform="rotate(270) translate(-36 17)" onmousedown="handlePan(-1,0)">
                  <use xlink:href="#rim" fill="#404040">
                        <set attributeName="fill" to="#808080" begin="arrowLeft.mouseover" end="arrowLeft.mouseout"/>
                  </use>
                  <path fill="none" stroke="white" stroke-width="1.5" d="M0,-3.0v7 M-2.5,-0.5L0,-3.0L2.5,-0.5"/>
                </g>
        </g>
        <svg viewBox="0 0 15 15" width="100%" height="30px" preserveAspectRatio="xMaxYMin meet">
         <g id="arrow_out" transform="scale(0.3 0.3)">
          <a xlink:href="bhopscotch__map_8h__incl_org.svg" target="_base">
           <rect id="button" ry="5" rx="5" y="6" x="6" height="38" width="38"
                fill="#f2f5e9" fill-opacity="0.5" stroke="#606060" stroke-width="1.0"/>
           <path id="arrow"
             d="M 11.500037,31.436501 C 11.940474,20.09759 22.043105,11.32322 32.158766,21.979434 L 37.068811,17.246167 C 37.068811,17.246167 37.088388,32 37.088388,32 L 22.160133,31.978069 C 22.160133,31.978069 26.997745,27.140456 26.997745,27.140456 C 18.528582,18.264221 13.291696,25.230495 11.500037,31.436501 z"
             style="fill:#404040;"/>
          </a>
         </g>
        </svg>
</svg>
