<?xml version="1.0" encoding="UTF-8" standalone="no"?>
<!DOCTYPE svg PUBLIC "-//W3C//DTD SVG 1.1//EN"
 "http://www.w3.org/Graphics/SVG/1.1/DTD/svg11.dtd">
<!-- Generated by graphviz version 2.40.1 (20161225.0304)
 -->
<!-- Title: Ioss::DatabaseIO::get_dwname Pages: 1 -->
<svg width="298pt" height="121pt"
 viewBox="0.00 0.00 297.79 121.00" xmlns="http://www.w3.org/2000/svg" xmlns:xlink="http://www.w3.org/1999/xlink">
<g id="graph0" class="graph" transform="scale(1 1) rotate(0) translate(4 117)">
<title>Ioss::DatabaseIO::get_dwname</title>
<polygon fill="#ffffff" stroke="transparent" points="-4,4 -4,-117 293.7871,-117 293.7871,4 -4,4"/>
<!-- Node650 -->
<g id="node1" class="node">
<title>Node650</title>
<polygon fill="#bfbfbf" stroke="#000000" points="0,-42.5 0,-70.5 112.7188,-70.5 112.7188,-42.5 0,-42.5"/>
<text text-anchor="start" x="8" y="-58.5" font-family="Helvetica,sans-Serif" font-size="10.00" fill="#000000">Ioss::DatabaseIO::get</text>
<text text-anchor="middle" x="56.3594" y="-48.5" font-family="Helvetica,sans-Serif" font-size="10.00" fill="#000000">_dwname</text>
</g>
<!-- Node651 -->
<g id="node2" class="node">
<title>Node651</title>
<g id="a_node2"><a xlink:href="classIoss_1_1DatabaseIO.html#afaf8598b13b44b8f262b3eec8398cb06" target="_top" xlink:title="Determine whether the database is an input database. ">
<polygon fill="#ffffff" stroke="#000000" points="166.2334,-84.5 166.2334,-112.5 272.2725,-112.5 272.2725,-84.5 166.2334,-84.5"/>
<text text-anchor="start" x="174.2334" y="-100.5" font-family="Helvetica,sans-Serif" font-size="10.00" fill="#000000">Ioss::DatabaseIO::is</text>
<text text-anchor="middle" x="219.2529" y="-90.5" font-family="Helvetica,sans-Serif" font-size="10.00" fill="#000000">_input</text>
</a>
</g>
</g>
<!-- Node650&#45;&gt;Node651 -->
<g id="edge1" class="edge">
<title>Node650&#45;&gt;Node651</title>
<path fill="none" stroke="#191970" d="M111.0537,-70.6022C125.4722,-74.3199 141.1491,-78.3619 155.9789,-82.1856"/>
<polygon fill="#191970" stroke="#191970" points="155.5274,-85.6836 166.0846,-84.7912 157.2751,-78.9053 155.5274,-85.6836"/>
</g>
<!-- Node652 -->
<g id="node3" class="node">
<title>Node652</title>
<g id="a_node3"><a xlink:href="classIoss_1_1DatabaseIO.html#a7ebbdc09be146cd42dc26b135e494a95" target="_top" xlink:title="Ioss::DatabaseIO::using_dw">
<polygon fill="#ffffff" stroke="#000000" points="148.7188,-47.5 148.7188,-65.5 289.7871,-65.5 289.7871,-47.5 148.7188,-47.5"/>
<text text-anchor="middle" x="219.2529" y="-53.5" font-family="Helvetica,sans-Serif" font-size="10.00" fill="#000000">Ioss::DatabaseIO::using_dw</text>
</a>
</g>
</g>
<!-- Node650&#45;&gt;Node652 -->
<g id="edge2" class="edge">
<title>Node650&#45;&gt;Node652</title>
<path fill="none" stroke="#191970" d="M112.8745,-56.5C121.1302,-56.5 129.7641,-56.5 138.3894,-56.5"/>
<polygon fill="#191970" stroke="#191970" points="138.4875,-60.0001 148.4874,-56.5 138.4874,-53.0001 138.4875,-60.0001"/>
</g>
<!-- Node653 -->
<g id="node4" class="node">
<title>Node653</title>
<g id="a_node4"><a xlink:href="classIoss_1_1DatabaseIO.html#a1c9ad01905e9773cd69b452a8551cbba" target="_top" xlink:title="Get the file name associated with the database. ">
<polygon fill="#ffffff" stroke="#000000" points="162.8936,-.5 162.8936,-28.5 275.6123,-28.5 275.6123,-.5 162.8936,-.5"/>
<text text-anchor="start" x="170.8936" y="-16.5" font-family="Helvetica,sans-Serif" font-size="10.00" fill="#000000">Ioss::DatabaseIO::get</text>
<text text-anchor="middle" x="219.2529" y="-6.5" font-family="Helvetica,sans-Serif" font-size="10.00" fill="#000000">_filename</text>
</a>
</g>
</g>
<!-- Node650&#45;&gt;Node653 -->
<g id="edge3" class="edge">
<title>Node650&#45;&gt;Node653</title>
<path fill="none" stroke="#191970" d="M111.0537,-42.3978C125.0967,-38.777 140.3334,-34.8484 154.8187,-31.1135"/>
<polygon fill="#191970" stroke="#191970" points="155.8935,-34.451 164.7029,-28.565 154.1458,-27.6726 155.8935,-34.451"/>
</g>
</g>
</svg>
