<?xml version="1.0" encoding="UTF-8" standalone="no"?>
<!DOCTYPE svg PUBLIC "-//W3C//DTD SVG 1.1//EN"
 "http://www.w3.org/Graphics/SVG/1.1/DTD/svg11.dtd">
<!-- Generated by graphviz version 2.40.1 (20161225.0304)
 -->
<!-- Title: Ioss::FaceGenerator Pages: 1 -->
<!--zoomable 187 -->
<svg id="main" version="1.1" xmlns="http://www.w3.org/2000/svg" xmlns:xlink="http://www.w3.org/1999/xlink" xml:space="preserve" onload="init(evt)">
<style type="text/css"><![CDATA[
.edge:hover path { stroke: red; }
.edge:hover polygon { stroke: red; fill: red; }
]]></style>
<script type="text/javascript"><![CDATA[
var edges = document.getElementsByTagName('g');
if (edges && edges.length) {
  for (var i=0;i<edges.length;i++) {
    if (edges[i].id.substr(0,4)=='edge') {
      edges[i].setAttribute('class','edge');
    }
  }
}
]]></script>
        <defs>
                <circle id="rim" cx="0" cy="0" r="7"/>
                <circle id="rim2" cx="0" cy="0" r="3.5"/>
                <g id="zoomPlus">
                        <use xlink:href="#rim" fill="#404040">
                                <set attributeName="fill" to="#808080" begin="zoomplus.mouseover" end="zoomplus.mouseout"/>
                        </use>
                        <path d="M-4,0h8M0,-4v8" fill="none" stroke="white" stroke-width="1.5" pointer-events="none"/>
                </g>
                <g id="zoomMin">
                        <use xlink:href="#rim" fill="#404040">
                                <set attributeName="fill" to="#808080" begin="zoomminus.mouseover" end="zoomminus.mouseout"/>
                        </use>
                        <path d="M-4,0h8" fill="none" stroke="white" stroke-width="1.5" pointer-events="none"/>
                </g>
                <g id="dirArrow">
                        <path fill="none" stroke="white" stroke-width="1.5" d="M0,-3.0v7 M-2.5,-0.5L0,-3.0L2.5,-0.5"/>
                </g>
               <g id="resetDef">
                       <use xlink:href="#rim2" fill="#404040">
                               <set attributeName="fill" to="#808080" begin="reset.mouseover" end="reset.mouseout"/>
                       </use>
               </g>
        </defs>

<script type="text/javascript">
var viewWidth = 722;
var viewHeight = 187;
var sectionId = 'dynsection-0';
</script>
<script xlink:href="svgpan.js"/>
<svg id="graph" class="graph">
<g id="viewport">
<title>Ioss::FaceGenerator</title>
<polygon fill="#ffffff" stroke="transparent" points="-4,4 -4,-183 718.0957,-183 718.0957,4 -4,4"/>
<!-- Node1 -->
<g id="node1" class="node">
<title>Node1</title>
<g id="a_node1"><a xlink:title=" ">
<polygon fill="#bfbfbf" stroke="#000000" points="0,-65.5 0,-83.5 107.1523,-83.5 107.1523,-65.5 0,-65.5"/>
<text text-anchor="middle" x="53.5762" y="-71.5" font-family="Helvetica,sans-Serif" font-size="10.00" fill="#000000">Ioss::FaceGenerator</text>
</a>
</g>
</g>
<!-- Node2 -->
<g id="node2" class="node">
<title>Node2</title>
<g id="a_node2"><a xlink:href="classIoss_1_1Region.html" target="_top" xlink:title="A grouping entity that contains other grouping entities.">
<polygon fill="#ffffff" stroke="#000000" points="90.7832,-160.5 90.7832,-178.5 162.3691,-178.5 162.3691,-160.5 90.7832,-160.5"/>
<text text-anchor="middle" x="126.5762" y="-166.5" font-family="Helvetica,sans-Serif" font-size="10.00" fill="#000000">Ioss::Region</text>
</a>
</g>
</g>
<!-- Node2&#45;&gt;Node1 -->
<g id="edge1" class="edge">
<title>Node2&#45;&gt;Node1</title>
<path fill="none" stroke="#9a32cd" stroke-dasharray="5,2" d="M99.8486,-154.7206C94.6409,-151.0318 89.5341,-146.7527 85.4385,-142 70.0422,-124.1338 60.4333,-97.5545 56.1646,-83.6811"/>
<polygon fill="#9a32cd" stroke="#9a32cd" points="98.2506,-157.8555 108.5474,-160.351 102.0542,-151.979 98.2506,-157.8555"/>
<text text-anchor="middle" x="103.645" y="-119" font-family="Helvetica,sans-Serif" font-size="10.00" fill="#000000"> region_</text>
</g>
<!-- Node4 -->
<g id="node4" class="node">
<title>Node4</title>
<g id="a_node4"><a xlink:href="classIoss_1_1DatabaseIO.html" target="_top" xlink:title="An input or output Database.">
<polygon fill="#ffffff" stroke="#000000" points="281.9458,-65.5 281.9458,-83.5 375.2065,-83.5 375.2065,-65.5 281.9458,-65.5"/>
<text text-anchor="middle" x="328.5762" y="-71.5" font-family="Helvetica,sans-Serif" font-size="10.00" fill="#000000">Ioss::DatabaseIO</text>
</a>
</g>
</g>
<!-- Node2&#45;&gt;Node4 -->
<g id="edge4" class="edge">
<title>Node2&#45;&gt;Node4</title>
<path fill="none" stroke="#9a32cd" stroke-dasharray="5,2" d="M139.6355,-152.4025C153.5897,-134.5913 175.2128,-108.4006 186.4385,-102 202.4868,-92.8496 246.9713,-85.1404 281.9432,-80.2343"/>
<polygon fill="#9a32cd" stroke="#9a32cd" points="136.8366,-150.3004 133.4804,-160.3496 142.3708,-154.5867 136.8366,-150.3004"/>
<text text-anchor="middle" x="204.645" y="-119" font-family="Helvetica,sans-Serif" font-size="10.00" fill="#000000"> region_</text>
</g>
<!-- Node3 -->
<g id="node3" class="node">
<title>Node3</title>
<g id="a_node3"><a xlink:href="classIoss_1_1GroupingEntity.html" target="_top" xlink:title="Base class for all &#39;grouping&#39; entities. The following derived classes are typical:">
<polygon fill="#ffffff" stroke="#000000" points="468.5542,-.5 468.5542,-18.5 574.5981,-18.5 574.5981,-.5 468.5542,-.5"/>
<text text-anchor="middle" x="521.5762" y="-6.5" font-family="Helvetica,sans-Serif" font-size="10.00" fill="#000000">Ioss::GroupingEntity</text>
</a>
</g>
</g>
<!-- Node3&#45;&gt;Node2 -->
<g id="edge2" class="edge">
<title>Node3&#45;&gt;Node2</title>
<path fill="none" stroke="#191970" d="M458.5227,-17.4982C364.3624,-30.6759 193.3676,-59.7658 149.5762,-102 133.1795,-117.8136 128.4712,-145.7658 127.1198,-160.238"/>
<polygon fill="#191970" stroke="#191970" points="459.0721,-20.9556 468.4996,-16.1212 458.115,-14.0214 459.0721,-20.9556"/>
</g>
<!-- Node4&#45;&gt;Node3 -->
<g id="edge3" class="edge">
<title>Node4&#45;&gt;Node3</title>
<path fill="none" stroke="#9a32cd" stroke-dasharray="5,2" d="M365.0122,-62.2288C402.7604,-49.5157 460.8649,-29.9468 494.6579,-18.5658"/>
<polygon fill="#9a32cd" stroke="#9a32cd" points="363.7718,-58.9533 355.412,-65.462 366.0061,-65.5872 363.7718,-58.9533"/>
<text text-anchor="middle" x="461.3198" y="-39" font-family="Helvetica,sans-Serif" font-size="10.00" fill="#000000"> database_</text>
</g>
<!-- Node5 -->
<g id="node5" class="node">
<title>Node5</title>
<g id="a_node5"><a xlink:href="classIoss_1_1Map.html" target="_top" xlink:title=" ">
<polygon fill="#ffffff" stroke="#000000" points="179.9014,-160.5 179.9014,-178.5 239.251,-178.5 239.251,-160.5 179.9014,-160.5"/>
<text text-anchor="middle" x="209.5762" y="-166.5" font-family="Helvetica,sans-Serif" font-size="10.00" fill="#000000">Ioss::Map</text>
</a>
</g>
</g>
<!-- Node5&#45;&gt;Node4 -->
<g id="edge5" class="edge">
<title>Node5&#45;&gt;Node4</title>
<path fill="none" stroke="#9a32cd" stroke-dasharray="5,2" d="M219.267,-151.526C228.1548,-136.5128 242.5781,-115.46 260.0986,-102 270.5628,-93.961 283.6918,-87.9392 295.6473,-83.6127"/>
<polygon fill="#9a32cd" stroke="#9a32cd" points="216.1352,-149.9535 214.249,-160.3791 222.225,-153.4053 216.1352,-149.9535"/>
<text text-anchor="middle" x="282.8149" y="-134" font-family="Helvetica,sans-Serif" font-size="10.00" fill="#000000"> nodeMap</text>
<text text-anchor="middle" x="282.8149" y="-124" font-family="Helvetica,sans-Serif" font-size="10.00" fill="#000000">elemMap</text>
<text text-anchor="middle" x="282.8149" y="-114" font-family="Helvetica,sans-Serif" font-size="10.00" fill="#000000">faceMap</text>
<text text-anchor="middle" x="282.8149" y="-104" font-family="Helvetica,sans-Serif" font-size="10.00" fill="#000000">edgeMap</text>
</g>
<!-- Node6 -->
<g id="node6" class="node">
<title>Node6</title>
<g id="a_node6"><a xlink:href="classIoss_1_1ParallelUtils.html" target="_top" xlink:title=" ">
<polygon fill="#ffffff" stroke="#000000" points="257.2314,-160.5 257.2314,-178.5 349.9209,-178.5 349.9209,-160.5 257.2314,-160.5"/>
<text text-anchor="middle" x="303.5762" y="-166.5" font-family="Helvetica,sans-Serif" font-size="10.00" fill="#000000">Ioss::ParallelUtils</text>
</a>
</g>
</g>
<!-- Node6&#45;&gt;Node4 -->
<g id="edge6" class="edge">
<title>Node6&#45;&gt;Node4</title>
<path fill="none" stroke="#9a32cd" stroke-dasharray="5,2" d="M307.1176,-150.1393C309.7795,-136.549 313.7641,-118.0152 318.4531,-102 320.2829,-95.7504 322.8137,-88.8754 324.887,-83.5628"/>
<polygon fill="#9a32cd" stroke="#9a32cd" points="303.6288,-149.752 305.2063,-160.2287 310.5065,-151.0549 303.6288,-149.752"/>
<text text-anchor="middle" x="328.1377" y="-119" font-family="Helvetica,sans-Serif" font-size="10.00" fill="#000000"> util_</text>
</g>
<!-- Node7 -->
<g id="node7" class="node">
<title>Node7</title>
<g id="a_node7"><a xlink:href="classIoss_1_1PropertyManager.html" target="_top" xlink:title="A collection of Ioss::Property objects.">
<polygon fill="#ffffff" stroke="#000000" points="502.9976,-160.5 502.9976,-178.5 620.1548,-178.5 620.1548,-160.5 502.9976,-160.5"/>
<text text-anchor="middle" x="561.5762" y="-166.5" font-family="Helvetica,sans-Serif" font-size="10.00" fill="#000000">Ioss::PropertyManager</text>
</a>
</g>
</g>
<!-- Node7&#45;&gt;Node3 -->
<g id="edge10" class="edge">
<title>Node7&#45;&gt;Node3</title>
<path fill="none" stroke="#9a32cd" stroke-dasharray="5,2" d="M556.8762,-150.7001C548.2826,-116.3257 530.3299,-44.5148 523.9161,-18.8599"/>
<polygon fill="#9a32cd" stroke="#9a32cd" points="553.4901,-151.5867 559.311,-160.4393 560.2811,-149.8889 553.4901,-151.5867"/>
<text text-anchor="middle" x="563.1992" y="-71.5" font-family="Helvetica,sans-Serif" font-size="10.00" fill="#000000"> properties</text>
</g>
<!-- Node7&#45;&gt;Node4 -->
<g id="edge7" class="edge">
<title>Node7&#45;&gt;Node4</title>
<path fill="none" stroke="#9a32cd" stroke-dasharray="5,2" d="M511.5218,-156.8404C502.508,-153.0547 493.6604,-148.1993 486.3301,-142 470.7132,-128.7928 480.1354,-114.0046 463.5762,-102 449.6331,-91.892 408.6611,-84.4543 375.4795,-79.8811"/>
<polygon fill="#9a32cd" stroke="#9a32cd" points="510.3275,-160.1307 520.9187,-160.4097 512.8132,-153.5869 510.3275,-160.1307"/>
<text text-anchor="middle" x="509.1992" y="-119" font-family="Helvetica,sans-Serif" font-size="10.00" fill="#000000"> properties</text>
</g>
<!-- Node8 -->
<g id="node8" class="node">
<title>Node8</title>
<g id="a_node8"><a xlink:href="classIoss_1_1ElementTopology.html" target="_top" xlink:title="Represents an element topology.">
<polygon fill="#ffffff" stroke="#000000" points="368.271,-160.5 368.271,-178.5 484.8813,-178.5 484.8813,-160.5 368.271,-160.5"/>
<text text-anchor="middle" x="426.5762" y="-166.5" font-family="Helvetica,sans-Serif" font-size="10.00" fill="#000000">Ioss::ElementTopology</text>
</a>
</g>
</g>
<!-- Node8&#45;&gt;Node4 -->
<g id="edge8" class="edge">
<title>Node8&#45;&gt;Node4</title>
<path fill="none" stroke="#9a32cd" stroke-dasharray="5,2" d="M384.3442,-156.4415C376.4321,-152.6641 368.6868,-147.9134 362.4092,-142 353.2968,-133.4164 338.9485,-100.0669 332.2497,-83.6849"/>
<polygon fill="#9a32cd" stroke="#9a32cd" points="383.0619,-159.7001 393.6309,-160.4403 385.8304,-153.2707 383.0619,-159.7001"/>
<text text-anchor="middle" x="412.1597" y="-119" font-family="Helvetica,sans-Serif" font-size="10.00" fill="#000000"> commonSideTopology</text>
</g>
<!-- Node9 -->
<g id="node9" class="node">
<title>Node9</title>
<g id="a_node9"><a xlink:href="classIoss_1_1FieldManager.html" target="_top" xlink:title="A collection of Ioss::Field objects.">
<polygon fill="#ffffff" stroke="#000000" points="613.0566,-65.5 613.0566,-83.5 714.0957,-83.5 714.0957,-65.5 613.0566,-65.5"/>
<text text-anchor="middle" x="663.5762" y="-71.5" font-family="Helvetica,sans-Serif" font-size="10.00" fill="#000000">Ioss::FieldManager</text>
</a>
</g>
</g>
<!-- Node9&#45;&gt;Node3 -->
<g id="edge9" class="edge">
<title>Node9&#45;&gt;Node3</title>
<path fill="none" stroke="#9a32cd" stroke-dasharray="5,2" d="M634.64,-61.2545C606.9386,-48.5743 565.8773,-29.7787 541.6107,-18.6708"/>
<polygon fill="#9a32cd" stroke="#9a32cd" points="633.2822,-64.4823 643.8317,-65.462 636.1958,-58.1174 633.2822,-64.4823"/>
<text text-anchor="middle" x="613.6377" y="-39" font-family="Helvetica,sans-Serif" font-size="10.00" fill="#000000"> fields</text>
</g>
</g>
</svg>
        <g id="navigator" transform="translate(0 0)" fill="#404254">
                <rect fill="#f2f5e9" fill-opacity="0.5" stroke="#606060" stroke-width=".5" x="0" y="0" width="60" height="60"/>
                <use id="zoomplus" xlink:href="#zoomPlus" x="17" y="9" onmousedown="handleZoom(evt,'in')"/>
                <use id="zoomminus" xlink:href="#zoomMin" x="42" y="9" onmousedown="handleZoom(evt,'out')"/>
                <use id="reset" xlink:href="#resetDef" x="30" y="36" onmousedown="handleReset()"/>
                <g id="arrowUp" xlink:href="#dirArrow" transform="translate(30 24)" onmousedown="handlePan(0,-1)">
                  <use xlink:href="#rim" fill="#404040">
                        <set attributeName="fill" to="#808080" begin="arrowUp.mouseover" end="arrowUp.mouseout"/>
                  </use>
                  <path fill="none" stroke="white" stroke-width="1.5" d="M0,-3.0v7 M-2.5,-0.5L0,-3.0L2.5,-0.5"/>
                </g>
                <g id="arrowRight" xlink:href="#dirArrow" transform="rotate(90) translate(36 -43)" onmousedown="handlePan(1,0)">
                  <use xlink:href="#rim" fill="#404040">
                        <set attributeName="fill" to="#808080" begin="arrowRight.mouseover" end="arrowRight.mouseout"/>
                  </use>
                  <path fill="none" stroke="white" stroke-width="1.5" d="M0,-3.0v7 M-2.5,-0.5L0,-3.0L2.5,-0.5"/>
                </g>
                <g id="arrowDown" xlink:href="#dirArrow" transform="rotate(180) translate(-30 -48)" onmousedown="handlePan(0,1)">
                  <use xlink:href="#rim" fill="#404040">
                        <set attributeName="fill" to="#808080" begin="arrowDown.mouseover" end="arrowDown.mouseout"/>
                  </use>
                  <path fill="none" stroke="white" stroke-width="1.5" d="M0,-3.0v7 M-2.5,-0.5L0,-3.0L2.5,-0.5"/>
                </g>
                <g id="arrowLeft" xlink:href="#dirArrow" transform="rotate(270) translate(-36 17)" onmousedown="handlePan(-1,0)">
                  <use xlink:href="#rim" fill="#404040">
                        <set attributeName="fill" to="#808080" begin="arrowLeft.mouseover" end="arrowLeft.mouseout"/>
                  </use>
                  <path fill="none" stroke="white" stroke-width="1.5" d="M0,-3.0v7 M-2.5,-0.5L0,-3.0L2.5,-0.5"/>
                </g>
        </g>
        <svg viewBox="0 0 15 15" width="100%" height="30px" preserveAspectRatio="xMaxYMin meet">
         <g id="arrow_out" transform="scale(0.3 0.3)">
          <a xlink:href="classIoss_1_1FaceGenerator__coll__graph_org.svg" target="_base">
           <rect id="button" ry="5" rx="5" y="6" x="6" height="38" width="38"
                fill="#f2f5e9" fill-opacity="0.5" stroke="#606060" stroke-width="1.0"/>
           <path id="arrow"
             d="M 11.500037,31.436501 C 11.940474,20.09759 22.043105,11.32322 32.158766,21.979434 L 37.068811,17.246167 C 37.068811,17.246167 37.088388,32 37.088388,32 L 22.160133,31.978069 C 22.160133,31.978069 26.997745,27.140456 26.997745,27.140456 C 18.528582,18.264221 13.291696,25.230495 11.500037,31.436501 z"
             style="fill:#404040;"/>
          </a>
         </g>
        </svg>
</svg>
