<?xml version="1.0" encoding="UTF-8" standalone="no"?>
<!DOCTYPE svg PUBLIC "-//W3C//DTD SVG 1.1//EN"
 "http://www.w3.org/Graphics/SVG/1.1/DTD/svg11.dtd">
<!-- Generated by graphviz version 2.40.1 (20161225.0304)
 -->
<!-- Title: Ioss::DatabaseIO::get_pfsname Pages: 1 -->
<svg width="888pt" height="388pt"
 viewBox="0.00 0.00 888.46 388.00" xmlns="http://www.w3.org/2000/svg" xmlns:xlink="http://www.w3.org/1999/xlink">
<g id="graph0" class="graph" transform="scale(1 1) rotate(0) translate(4 384)">
<title>Ioss::DatabaseIO::get_pfsname</title>
<polygon fill="#ffffff" stroke="transparent" points="-4,4 -4,-384 884.4648,-384 884.4648,4 -4,4"/>
<!-- Node1116 -->
<g id="node1" class="node">
<title>Node1116</title>
<polygon fill="#bfbfbf" stroke="#000000" points="0,-142.5 0,-170.5 112.7188,-170.5 112.7188,-142.5 0,-142.5"/>
<text text-anchor="start" x="8" y="-158.5" font-family="Helvetica,sans-Serif" font-size="10.00" fill="#000000">Ioss::DatabaseIO::get</text>
<text text-anchor="middle" x="56.3594" y="-148.5" font-family="Helvetica,sans-Serif" font-size="10.00" fill="#000000">_pfsname</text>
</g>
<!-- Node1117 -->
<g id="node2" class="node">
<title>Node1117</title>
<g id="a_node2"><a xlink:href="classIoss_1_1DatabaseIO.html#ac744cfa124aea2aca48ddbb429cfb697" target="_top" xlink:title="Function which invokes stageout from BB to Disk, prior to completion of final close. ">
<polygon fill="#ffffff" stroke="#000000" points="148.7188,-147.5 148.7188,-165.5 287.541,-165.5 287.541,-147.5 148.7188,-147.5"/>
<text text-anchor="middle" x="218.1299" y="-153.5" font-family="Helvetica,sans-Serif" font-size="10.00" fill="#000000">Ioss::DatabaseIO::closeDW</text>
</a>
</g>
</g>
<!-- Node1116&#45;&gt;Node1117 -->
<g id="edge1" class="edge">
<title>Node1116&#45;&gt;Node1117</title>
<path fill="none" stroke="#191970" d="M123.0496,-156.5C131.4449,-156.5 140.0509,-156.5 148.4904,-156.5"/>
<polygon fill="#191970" stroke="#191970" points="122.9389,-153.0001 112.9388,-156.5 122.9388,-160.0001 122.9389,-153.0001"/>
</g>
<!-- Node1118 -->
<g id="node3" class="node">
<title>Node1118</title>
<g id="a_node3"><a xlink:href="classIocgns_1_1DatabaseIO.html#a471eeae9ef27a32dafadbe1a73203f05" target="_top" xlink:title="Iocgns::DatabaseIO\l::closeDatabase__">
<polygon fill="#ffffff" stroke="#000000" points="359.3955,-334.5 359.3955,-362.5 463.7793,-362.5 463.7793,-334.5 359.3955,-334.5"/>
<text text-anchor="start" x="367.3955" y="-350.5" font-family="Helvetica,sans-Serif" font-size="10.00" fill="#000000">Iocgns::DatabaseIO</text>
<text text-anchor="middle" x="411.5874" y="-340.5" font-family="Helvetica,sans-Serif" font-size="10.00" fill="#000000">::closeDatabase__</text>
</a>
</g>
</g>
<!-- Node1117&#45;&gt;Node1118 -->
<g id="edge2" class="edge">
<title>Node1117&#45;&gt;Node1118</title>
<path fill="none" stroke="#191970" d="M228.9897,-174.2161C246.4792,-201.7827 283.0489,-255.604 323.541,-292.5 341.886,-309.2158 365.812,-324.0784 384.0916,-334.2841"/>
<polygon fill="#191970" stroke="#191970" points="231.8922,-172.2561 223.6241,-165.6312 225.9562,-175.9662 231.8922,-172.2561"/>
</g>
<!-- Node1120 -->
<g id="node5" class="node">
<title>Node1120</title>
<g id="a_node5"><a xlink:href="classIocgns_1_1ParallelDatabaseIO.html#a461a816513692d456089de4f72040600" target="_top" xlink:title="Iocgns::ParallelDatabase\lIO::closeDatabase__">
<polygon fill="#ffffff" stroke="#000000" points="347.999,-254.5 347.999,-282.5 475.1758,-282.5 475.1758,-254.5 347.999,-254.5"/>
<text text-anchor="start" x="355.999" y="-270.5" font-family="Helvetica,sans-Serif" font-size="10.00" fill="#000000">Iocgns::ParallelDatabase</text>
<text text-anchor="middle" x="411.5874" y="-260.5" font-family="Helvetica,sans-Serif" font-size="10.00" fill="#000000">IO::closeDatabase__</text>
</a>
</g>
</g>
<!-- Node1117&#45;&gt;Node1120 -->
<g id="edge4" class="edge">
<title>Node1117&#45;&gt;Node1120</title>
<path fill="none" stroke="#191970" d="M242.6638,-170.7037C279.852,-192.2333 350.0781,-232.8899 387.187,-254.3736"/>
<polygon fill="#191970" stroke="#191970" points="244.3693,-167.6468 233.9613,-165.6654 240.862,-173.7048 244.3693,-167.6468"/>
</g>
<!-- Node1122 -->
<g id="node7" class="node">
<title>Node1122</title>
<g id="a_node7"><a xlink:href="classIoex_1_1DatabaseIO.html#a0fc48222b93be96fee8e01d5314d123e" target="_top" xlink:title="Ioex::DatabaseIO::free\l_file_pointer">
<polygon fill="#ffffff" stroke="#000000" points="353.2822,-142.5 353.2822,-170.5 469.8926,-170.5 469.8926,-142.5 353.2822,-142.5"/>
<text text-anchor="start" x="361.2822" y="-158.5" font-family="Helvetica,sans-Serif" font-size="10.00" fill="#000000">Ioex::DatabaseIO::free</text>
<text text-anchor="middle" x="411.5874" y="-148.5" font-family="Helvetica,sans-Serif" font-size="10.00" fill="#000000">_file_pointer</text>
</a>
</g>
</g>
<!-- Node1117&#45;&gt;Node1122 -->
<g id="edge6" class="edge">
<title>Node1117&#45;&gt;Node1122</title>
<path fill="none" stroke="#191970" d="M297.8771,-156.5C316.3884,-156.5 335.7562,-156.5 353.1532,-156.5"/>
<polygon fill="#191970" stroke="#191970" points="297.6992,-153.0001 287.6992,-156.5 297.6991,-160.0001 297.6992,-153.0001"/>
</g>
<!-- Node1130 -->
<g id="node15" class="node">
<title>Node1130</title>
<g id="a_node15"><a xlink:href="classIoex_1_1DatabaseIO.html#a17600f7a3af7e82f80ae5ab1b4bca779" target="_top" xlink:title="Ioex::DatabaseIO::closeDatabase__">
<polygon fill="#ffffff" stroke="#000000" points="535.6338,-42.5 535.6338,-60.5 712.2881,-60.5 712.2881,-42.5 535.6338,-42.5"/>
<text text-anchor="middle" x="623.9609" y="-48.5" font-family="Helvetica,sans-Serif" font-size="10.00" fill="#000000">Ioex::DatabaseIO::closeDatabase__</text>
</a>
</g>
</g>
<!-- Node1117&#45;&gt;Node1130 -->
<g id="edge15" class="edge">
<title>Node1117&#45;&gt;Node1130</title>
<path fill="none" stroke="#191970" d="M259.4456,-144.5621C319.8584,-127.2766 435.9578,-94.7021 535.6338,-70.5 549.9617,-67.0211 565.6764,-63.5353 579.8277,-60.5167"/>
<polygon fill="#191970" stroke="#191970" points="258.1818,-141.2834 249.5338,-147.404 260.1111,-148.0122 258.1818,-141.2834"/>
</g>
<!-- Node1131 -->
<g id="node16" class="node">
<title>Node1131</title>
<g id="a_node16"><a xlink:href="classIoss_1_1DatabaseIO.html#a1a76a51e956ab708923e6f5d93afa3ac" target="_top" xlink:title="Ioss::DatabaseIO::closeDatabase__">
<polygon fill="#ffffff" stroke="#000000" points="323.541,-33.5 323.541,-51.5 499.6338,-51.5 499.6338,-33.5 323.541,-33.5"/>
<text text-anchor="middle" x="411.5874" y="-39.5" font-family="Helvetica,sans-Serif" font-size="10.00" fill="#000000">Ioss::DatabaseIO::closeDatabase__</text>
</a>
</g>
</g>
<!-- Node1117&#45;&gt;Node1131 -->
<g id="edge16" class="edge">
<title>Node1117&#45;&gt;Node1131</title>
<path fill="none" stroke="#191970" d="M240.0547,-141.5195C261.1252,-127.3241 294.03,-105.6795 323.541,-88.5 347.0905,-74.7909 375.1097,-60.4817 393.1109,-51.5351"/>
<polygon fill="#191970" stroke="#191970" points="237.8454,-138.7885 231.5274,-147.2935 241.7701,-144.5848 237.8454,-138.7885"/>
</g>
<!-- Node1119 -->
<g id="node4" class="node">
<title>Node1119</title>
<g id="a_node4"><a xlink:href="classIocgns_1_1DatabaseIO.html#a1feccaa4d27f7685193c911740a93a93" target="_top" xlink:title="Iocgns::DatabaseIO\l::~DatabaseIO">
<polygon fill="#ffffff" stroke="#000000" points="571.769,-351.5 571.769,-379.5 676.1528,-379.5 676.1528,-351.5 571.769,-351.5"/>
<text text-anchor="start" x="579.769" y="-367.5" font-family="Helvetica,sans-Serif" font-size="10.00" fill="#000000">Iocgns::DatabaseIO</text>
<text text-anchor="middle" x="623.9609" y="-357.5" font-family="Helvetica,sans-Serif" font-size="10.00" fill="#000000">::~DatabaseIO</text>
</a>
</g>
</g>
<!-- Node1118&#45;&gt;Node1119 -->
<g id="edge3" class="edge">
<title>Node1118&#45;&gt;Node1119</title>
<path fill="none" stroke="#191970" d="M474.0729,-353.5018C505.0678,-355.9829 542.0802,-358.9456 571.57,-361.3062"/>
<polygon fill="#191970" stroke="#191970" points="474.0592,-349.9896 463.8118,-352.6804 473.5006,-356.9673 474.0592,-349.9896"/>
</g>
<!-- Node1121 -->
<g id="node6" class="node">
<title>Node1121</title>
<g id="a_node6"><a xlink:href="classIocgns_1_1ParallelDatabaseIO.html#ad13d641500c4a43bb7ac24bba3046586" target="_top" xlink:title="Iocgns::ParallelDatabase\lIO::~ParallelDatabaseIO">
<polygon fill="#ffffff" stroke="#000000" points="560.3726,-304.5 560.3726,-332.5 687.5493,-332.5 687.5493,-304.5 560.3726,-304.5"/>
<text text-anchor="start" x="568.3726" y="-320.5" font-family="Helvetica,sans-Serif" font-size="10.00" fill="#000000">Iocgns::ParallelDatabase</text>
<text text-anchor="middle" x="623.9609" y="-310.5" font-family="Helvetica,sans-Serif" font-size="10.00" fill="#000000">IO::~ParallelDatabaseIO</text>
</a>
</g>
</g>
<!-- Node1120&#45;&gt;Node1121 -->
<g id="edge5" class="edge">
<title>Node1120&#45;&gt;Node1121</title>
<path fill="none" stroke="#191970" d="M481.3979,-284.9358C508.2117,-291.2487 538.5455,-298.3903 564.3186,-304.4581"/>
<polygon fill="#191970" stroke="#191970" points="481.8464,-281.4458 471.3104,-282.5608 480.2422,-288.2595 481.8464,-281.4458"/>
</g>
<!-- Node1123 -->
<g id="node8" class="node">
<title>Node1123</title>
<g id="a_node8"><a xlink:href="classIopx_1_1DatabaseIO.html#a32a6c290cb2d3bb24eef497f7ca2a2b3" target="_top" xlink:title="Iopx::DatabaseIO::free\l_file_pointer">
<polygon fill="#ffffff" stroke="#000000" points="565.6558,-257.5 565.6558,-285.5 682.2661,-285.5 682.2661,-257.5 565.6558,-257.5"/>
<text text-anchor="start" x="573.6558" y="-273.5" font-family="Helvetica,sans-Serif" font-size="10.00" fill="#000000">Iopx::DatabaseIO::free</text>
<text text-anchor="middle" x="623.9609" y="-263.5" font-family="Helvetica,sans-Serif" font-size="10.00" fill="#000000">_file_pointer</text>
</a>
</g>
</g>
<!-- Node1122&#45;&gt;Node1123 -->
<g id="edge7" class="edge">
<title>Node1122&#45;&gt;Node1123</title>
<path fill="none" stroke="#191970" d="M434.0635,-177.399C457.6644,-198.2728 496.693,-229.8601 535.6338,-248.5 544.9242,-252.947 555.1911,-256.6186 565.3397,-259.6218"/>
<polygon fill="#191970" stroke="#191970" points="436.1627,-174.58 426.3844,-170.5013 431.485,-179.7876 436.1627,-174.58"/>
</g>
<!-- Node1125 -->
<g id="node10" class="node">
<title>Node1125</title>
<g id="a_node10"><a xlink:href="classIoex_1_1DatabaseIO.html#a9b7fd97683725365f1a086f72e2a49c8" target="_top" xlink:title="Ioex::DatabaseIO::\l~DatabaseIO">
<polygon fill="#ffffff" stroke="#000000" points="574.2715,-210.5 574.2715,-238.5 673.6504,-238.5 673.6504,-210.5 574.2715,-210.5"/>
<text text-anchor="start" x="582.2715" y="-226.5" font-family="Helvetica,sans-Serif" font-size="10.00" fill="#000000">Ioex::DatabaseIO::</text>
<text text-anchor="middle" x="623.9609" y="-216.5" font-family="Helvetica,sans-Serif" font-size="10.00" fill="#000000">~DatabaseIO</text>
</a>
</g>
</g>
<!-- Node1122&#45;&gt;Node1125 -->
<g id="edge9" class="edge">
<title>Node1122&#45;&gt;Node1125</title>
<path fill="none" stroke="#191970" d="M457.2635,-174.2249C480.545,-182.9638 509.4092,-193.3484 535.6338,-201.5 548.0418,-205.3569 561.5634,-209.1028 574.212,-212.413"/>
<polygon fill="#191970" stroke="#191970" points="458.2431,-170.8536 447.6515,-170.5918 455.7681,-177.4015 458.2431,-170.8536"/>
</g>
<!-- Node1126 -->
<g id="node11" class="node">
<title>Node1126</title>
<g id="a_node11"><a xlink:href="classIoex_1_1DatabaseIO.html#abca6a0778015aebea67c7f38fdac49a0" target="_top" xlink:title="Ioex::DatabaseIO::end__">
<polygon fill="#ffffff" stroke="#000000" points="560.3677,-173.5 560.3677,-191.5 687.5542,-191.5 687.5542,-173.5 560.3677,-173.5"/>
<text text-anchor="middle" x="623.9609" y="-179.5" font-family="Helvetica,sans-Serif" font-size="10.00" fill="#000000">Ioex::DatabaseIO::end__</text>
</a>
</g>
</g>
<!-- Node1122&#45;&gt;Node1126 -->
<g id="edge10" class="edge">
<title>Node1122&#45;&gt;Node1126</title>
<path fill="none" stroke="#191970" d="M479.9575,-164.8703C505.7078,-168.0228 534.8708,-171.5931 560.1857,-174.6923"/>
<polygon fill="#191970" stroke="#191970" points="480.2515,-161.3802 469.9003,-163.639 479.4009,-168.3283 480.2515,-161.3802"/>
</g>
<!-- Node1127 -->
<g id="node12" class="node">
<title>Node1127</title>
<g id="a_node12"><a xlink:href="classIoex_1_1DatabaseIO.html#afc1828b3a9b9277946252a1417140e97" target="_top" xlink:title="Ioex::DatabaseIO::open\l_state_file">
<polygon fill="#ffffff" stroke="#000000" points="563.1484,-126.5 563.1484,-154.5 684.7734,-154.5 684.7734,-126.5 563.1484,-126.5"/>
<text text-anchor="start" x="571.1484" y="-142.5" font-family="Helvetica,sans-Serif" font-size="10.00" fill="#000000">Ioex::DatabaseIO::open</text>
<text text-anchor="middle" x="623.9609" y="-132.5" font-family="Helvetica,sans-Serif" font-size="10.00" fill="#000000">_state_file</text>
</a>
</g>
</g>
<!-- Node1122&#45;&gt;Node1127 -->
<g id="edge11" class="edge">
<title>Node1122&#45;&gt;Node1127</title>
<path fill="none" stroke="#191970" d="M479.92,-151.3519C506.5749,-149.3437 536.8912,-147.0597 562.8125,-145.1069"/>
<polygon fill="#191970" stroke="#191970" points="479.6091,-147.8653 469.9003,-152.1068 480.135,-154.8455 479.6091,-147.8653"/>
</g>
<!-- Node1129 -->
<g id="node14" class="node">
<title>Node1129</title>
<g id="a_node14"><a xlink:href="classIoex_1_1DatabaseIO.html#a4acc62afb7f8af0922f159a5a84b9fb7" target="_top" xlink:title="Ioex::DatabaseIO::end\l_state__">
<polygon fill="#ffffff" stroke="#000000" points="565.9292,-79.5 565.9292,-107.5 681.9927,-107.5 681.9927,-79.5 565.9292,-79.5"/>
<text text-anchor="start" x="573.9292" y="-95.5" font-family="Helvetica,sans-Serif" font-size="10.00" fill="#000000">Ioex::DatabaseIO::end</text>
<text text-anchor="middle" x="623.9609" y="-85.5" font-family="Helvetica,sans-Serif" font-size="10.00" fill="#000000">_state__</text>
</a>
</g>
</g>
<!-- Node1122&#45;&gt;Node1129 -->
<g id="edge13" class="edge">
<title>Node1122&#45;&gt;Node1129</title>
<path fill="none" stroke="#191970" d="M464.5897,-139.3325C486.5191,-132.361 512.2435,-124.3518 535.6338,-117.5 547.0711,-114.1496 559.388,-110.7024 571.0875,-107.5027"/>
<polygon fill="#191970" stroke="#191970" points="463.2661,-136.0809 454.803,-142.4548 465.3938,-142.7498 463.2661,-136.0809"/>
</g>
<!-- Node1122&#45;&gt;Node1130 -->
<g id="edge14" class="edge">
<title>Node1122&#45;&gt;Node1130</title>
<path fill="none" stroke="#191970" d="M462.5489,-138.3371C475.3588,-132.4698 488.5909,-125.1876 499.6338,-116.5 520.0375,-100.4481 513.6287,-84.2751 535.6338,-70.5 542.2814,-66.3386 549.7017,-63.078 557.3392,-60.525"/>
<polygon fill="#191970" stroke="#191970" points="461.0983,-135.1513 453.3332,-142.3592 463.8984,-141.5669 461.0983,-135.1513"/>
</g>
<!-- Node1124 -->
<g id="node9" class="node">
<title>Node1124</title>
<g id="a_node9"><a xlink:href="classIopx_1_1DatabaseIO.html#a1270d894f27dee291276551f67589f26" target="_top" xlink:title="Iopx::DatabaseIO::release\l_memory__">
<polygon fill="#ffffff" stroke="#000000" points="748.2881,-257.5 748.2881,-285.5 880.4648,-285.5 880.4648,-257.5 748.2881,-257.5"/>
<text text-anchor="start" x="756.2881" y="-273.5" font-family="Helvetica,sans-Serif" font-size="10.00" fill="#000000">Iopx::DatabaseIO::release</text>
<text text-anchor="middle" x="814.3765" y="-263.5" font-family="Helvetica,sans-Serif" font-size="10.00" fill="#000000">_memory__</text>
</a>
</g>
</g>
<!-- Node1123&#45;&gt;Node1124 -->
<g id="edge8" class="edge">
<title>Node1123&#45;&gt;Node1124</title>
<path fill="none" stroke="#191970" d="M692.5582,-271.5C710.6397,-271.5 730.1135,-271.5 748.0718,-271.5"/>
<polygon fill="#191970" stroke="#191970" points="692.386,-268.0001 682.3859,-271.5 692.3859,-275.0001 692.386,-268.0001"/>
</g>
<!-- Node1128 -->
<g id="node13" class="node">
<title>Node1128</title>
<g id="a_node13"><a xlink:href="classIoex_1_1DatabaseIO.html#a517c92d4fe7f508c93ba205521505a87" target="_top" xlink:title="Ioex::DatabaseIO::begin\l_state__">
<polygon fill="#ffffff" stroke="#000000" points="752.4531,-126.5 752.4531,-154.5 876.2998,-154.5 876.2998,-126.5 752.4531,-126.5"/>
<text text-anchor="start" x="760.4531" y="-142.5" font-family="Helvetica,sans-Serif" font-size="10.00" fill="#000000">Ioex::DatabaseIO::begin</text>
<text text-anchor="middle" x="814.3765" y="-132.5" font-family="Helvetica,sans-Serif" font-size="10.00" fill="#000000">_state__</text>
</a>
</g>
</g>
<!-- Node1127&#45;&gt;Node1128 -->
<g id="edge12" class="edge">
<title>Node1127&#45;&gt;Node1128</title>
<path fill="none" stroke="#191970" d="M695.0077,-140.5C713.8556,-140.5 734.0562,-140.5 752.3803,-140.5"/>
<polygon fill="#191970" stroke="#191970" points="694.9953,-137.0001 684.9953,-140.5 694.9953,-144.0001 694.9953,-137.0001"/>
</g>
<!-- Node1132 -->
<g id="node17" class="node">
<title>Node1132</title>
<g id="a_node17"><a xlink:href="classIoss_1_1DatabaseIO.html#abd61efb4ff35bb829faac1e1ebbb26ea" target="_top" xlink:title="Ioss::DatabaseIO::closeDatabase">
<polygon fill="#ffffff" stroke="#000000" points="541.4761,-5.5 541.4761,-23.5 706.4458,-23.5 706.4458,-5.5 541.4761,-5.5"/>
<text text-anchor="middle" x="623.9609" y="-11.5" font-family="Helvetica,sans-Serif" font-size="10.00" fill="#000000">Ioss::DatabaseIO::closeDatabase</text>
</a>
</g>
</g>
<!-- Node1131&#45;&gt;Node1132 -->
<g id="edge17" class="edge">
<title>Node1131&#45;&gt;Node1132</title>
<path fill="none" stroke="#191970" d="M490.0027,-32.1615C511.4448,-29.3345 534.512,-26.2932 555.3599,-23.5446"/>
<polygon fill="#191970" stroke="#191970" points="489.4094,-28.7093 479.9527,-33.4865 490.3245,-35.6493 489.4094,-28.7093"/>
</g>
<!-- Node1133 -->
<g id="node18" class="node">
<title>Node1133</title>
<g id="a_node18"><a xlink:href="classIoss_1_1SerializeIO.html#aa8a0badf1bd84c8491fa906acfdc6a2c" target="_top" xlink:title="Ioss::SerializeIO::\l~SerializeIO">
<polygon fill="#ffffff" stroke="#000000" points="767.1968,-.5 767.1968,-28.5 861.5562,-28.5 861.5562,-.5 767.1968,-.5"/>
<text text-anchor="start" x="775.1968" y="-16.5" font-family="Helvetica,sans-Serif" font-size="10.00" fill="#000000">Ioss::SerializeIO::</text>
<text text-anchor="middle" x="814.3765" y="-6.5" font-family="Helvetica,sans-Serif" font-size="10.00" fill="#000000">~SerializeIO</text>
</a>
</g>
</g>
<!-- Node1132&#45;&gt;Node1133 -->
<g id="edge18" class="edge">
<title>Node1132&#45;&gt;Node1133</title>
<path fill="none" stroke="#191970" d="M716.8726,-14.5C734.2861,-14.5 751.8021,-14.5 767.0886,-14.5"/>
<polygon fill="#191970" stroke="#191970" points="716.6493,-11.0001 706.6492,-14.5 716.6492,-18.0001 716.6493,-11.0001"/>
</g>
</g>
</svg>
