<?xml version="1.0" encoding="UTF-8" standalone="no"?>
<!DOCTYPE svg PUBLIC "-//W3C//DTD SVG 1.1//EN"
 "http://www.w3.org/Graphics/SVG/1.1/DTD/svg11.dtd">
<!-- Generated by graphviz version 2.42.3 (20191010.1750)
 -->
<!-- Title: Ioss::StructuredBlock Pages: 1 -->
<!--zoomable 317 -->
<svg id="main" version="1.1" xmlns="http://www.w3.org/2000/svg" xmlns:xlink="http://www.w3.org/1999/xlink" xml:space="preserve" onload="init(evt)">
<style type="text/css"><![CDATA[
.edge:hover path { stroke: red; }
.edge:hover polygon { stroke: red; fill: red; }
]]></style>
<script type="text/javascript"><![CDATA[
var edges = document.getElementsByTagName('g');
if (edges && edges.length) {
  for (var i=0;i<edges.length;i++) {
    if (edges[i].id.substr(0,4)=='edge') {
      edges[i].setAttribute('class','edge');
    }
  }
}
]]></script>
        <defs>
                <circle id="rim" cx="0" cy="0" r="7"/>
                <circle id="rim2" cx="0" cy="0" r="3.5"/>
                <g id="zoomPlus">
                        <use xlink:href="#rim" fill="#404040">
                                <set attributeName="fill" to="#808080" begin="zoomplus.mouseover" end="zoomplus.mouseout"/>
                        </use>
                        <path d="M-4,0h8M0,-4v8" fill="none" stroke="white" stroke-width="1.5" pointer-events="none"/>
                </g>
                <g id="zoomMin">
                        <use xlink:href="#rim" fill="#404040">
                                <set attributeName="fill" to="#808080" begin="zoomminus.mouseover" end="zoomminus.mouseout"/>
                        </use>
                        <path d="M-4,0h8" fill="none" stroke="white" stroke-width="1.5" pointer-events="none"/>
                </g>
                <g id="dirArrow">
                        <path fill="none" stroke="white" stroke-width="1.5" d="M0,-3.0v7 M-2.5,-0.5L0,-3.0L2.5,-0.5"/>
                </g>
               <g id="resetDef">
                       <use xlink:href="#rim2" fill="#404040">
                               <set attributeName="fill" to="#808080" begin="reset.mouseover" end="reset.mouseout"/>
                       </use>
               </g>
        </defs>

<script type="text/javascript">
var viewWidth = 681;
var viewHeight = 317;
var sectionId = 'dynsection-1';
</script>
<script xlink:href="svgpan.js"/>
<svg id="graph" class="graph">
<g id="viewport">
<title>Ioss::StructuredBlock</title>
<polygon fill="white" stroke="transparent" points="-4,4 -4,-313 677.26,-313 677.26,4 -4,4"/>
<!-- Node1 -->
<g id="node1" class="node">
<title>Node1</title>
<g id="a_node1"><a xlink:title="A structured zone – i,j,k.">
<polygon fill="#bfbfbf" stroke="black" points="558.34,-0.5 558.34,-18.5 668.82,-18.5 668.82,-0.5 558.34,-0.5"/>
<text text-anchor="middle" x="613.58" y="-6.5" font-family="Helvetica,sans-Serif" font-size="10.00">Ioss::StructuredBlock</text>
</a>
</g>
</g>
<!-- Node2 -->
<g id="node2" class="node">
<title>Node2</title>
<g id="a_node2"><a xlink:href="classIoss_1_1EntityBlock.html" target="_top" xlink:title="Base class for all &#39;block&#39;&#45;type grouping entities, which means all members of the block are similar o...">
<polygon fill="white" stroke="black" points="583.9,-160.5 583.9,-178.5 673.26,-178.5 673.26,-160.5 583.9,-160.5"/>
<text text-anchor="middle" x="628.58" y="-166.5" font-family="Helvetica,sans-Serif" font-size="10.00">Ioss::EntityBlock</text>
</a>
</g>
</g>
<!-- Node2&#45;&gt;Node1 -->
<g id="edge1" class="edge">
<title>Node2&#45;&gt;Node1</title>
<path fill="none" stroke="midnightblue" d="M634.69,-150.85C642.64,-124.89 653.82,-75.35 638.58,-37 635.68,-29.71 629.73,-23.27 624.35,-18.56"/>
<polygon fill="midnightblue" stroke="midnightblue" points="631.34,-149.83 631.57,-160.43 637.99,-152 631.34,-149.83"/>
</g>
<!-- Node11 -->
<g id="node11" class="node">
<title>Node11</title>
<g id="a_node11"><a xlink:href="classIoss_1_1NodeBlock.html" target="_top" xlink:title="A collection of all nodes in the region.">
<polygon fill="white" stroke="black" points="533.45,-65.5 533.45,-83.5 621.71,-83.5 621.71,-65.5 533.45,-65.5"/>
<text text-anchor="middle" x="577.58" y="-71.5" font-family="Helvetica,sans-Serif" font-size="10.00">Ioss::NodeBlock</text>
</a>
</g>
</g>
<!-- Node2&#45;&gt;Node11 -->
<g id="edge14" class="edge">
<title>Node2&#45;&gt;Node11</title>
<path fill="none" stroke="midnightblue" d="M619.11,-151.23C608.06,-131.09 590.26,-98.62 582.02,-83.6"/>
<polygon fill="midnightblue" stroke="midnightblue" points="616.18,-153.16 624.05,-160.25 622.31,-149.8 616.18,-153.16"/>
</g>
<!-- Node3 -->
<g id="node3" class="node">
<title>Node3</title>
<g id="a_node3"><a xlink:href="classIoss_1_1GroupingEntity.html" target="_top" xlink:title="Base class for all &#39;grouping&#39; entities. The following derived classes are typical:">
<polygon fill="white" stroke="black" points="134.56,-225.5 134.56,-243.5 240.6,-243.5 240.6,-225.5 134.56,-225.5"/>
<text text-anchor="middle" x="187.58" y="-231.5" font-family="Helvetica,sans-Serif" font-size="10.00">Ioss::GroupingEntity</text>
</a>
</g>
</g>
<!-- Node3&#45;&gt;Node2 -->
<g id="edge2" class="edge">
<title>Node3&#45;&gt;Node2</title>
<path fill="none" stroke="midnightblue" d="M251.05,-224.47C326.85,-213.68 457.48,-195.07 569.58,-179 574.19,-178.34 579,-177.65 583.8,-176.96"/>
<polygon fill="midnightblue" stroke="midnightblue" points="250.13,-221.07 240.73,-225.94 251.12,-228 250.13,-221.07"/>
</g>
<!-- Node5 -->
<g id="node5" class="node">
<title>Node5</title>
<g id="a_node5"><a xlink:href="classIoss_1_1Region.html" target="_top" xlink:title="A grouping entity that contains other grouping entities.">
<polygon fill="white" stroke="black" points="83.79,-160.5 83.79,-178.5 155.37,-178.5 155.37,-160.5 83.79,-160.5"/>
<text text-anchor="middle" x="119.58" y="-166.5" font-family="Helvetica,sans-Serif" font-size="10.00">Ioss::Region</text>
</a>
</g>
</g>
<!-- Node3&#45;&gt;Node5 -->
<g id="edge5" class="edge">
<title>Node3&#45;&gt;Node5</title>
<path fill="none" stroke="midnightblue" d="M171.05,-218.19C157.55,-205.68 139.01,-188.5 128.26,-178.54"/>
<polygon fill="midnightblue" stroke="midnightblue" points="168.97,-221.04 178.69,-225.26 173.73,-215.9 168.97,-221.04"/>
</g>
<!-- Node4 -->
<g id="node4" class="node">
<title>Node4</title>
<g id="a_node4"><a xlink:href="classIoss_1_1DatabaseIO.html" target="_top" xlink:title="An input or output Database.">
<polygon fill="white" stroke="black" points="193.95,-65.5 193.95,-83.5 287.21,-83.5 287.21,-65.5 193.95,-65.5"/>
<text text-anchor="middle" x="240.58" y="-71.5" font-family="Helvetica,sans-Serif" font-size="10.00">Ioss::DatabaseIO</text>
</a>
</g>
</g>
<!-- Node4&#45;&gt;Node3 -->
<g id="edge3" class="edge">
<title>Node4&#45;&gt;Node3</title>
<path fill="none" stroke="#9a32cd" stroke-dasharray="5,2" d="M230.63,-92.61C221.36,-109.28 207.84,-135.61 200.09,-160 192.8,-182.94 189.5,-211.35 188.24,-225.17"/>
<polygon fill="#9a32cd" stroke="#9a32cd" points="233.86,-94 235.76,-83.58 227.78,-90.54 233.86,-94"/>
<text text-anchor="middle" x="224.32" y="-166.5" font-family="Helvetica,sans-Serif" font-size="10.00"> database_</text>
</g>
<!-- Node5&#45;&gt;Node4 -->
<g id="edge4" class="edge">
<title>Node5&#45;&gt;Node4</title>
<path fill="none" stroke="#9a32cd" stroke-dasharray="5,2" d="M120.91,-150.12C122.98,-135.15 128.21,-114.51 141.44,-102 155.49,-88.72 175.44,-81.94 193.76,-78.53"/>
<polygon fill="#9a32cd" stroke="#9a32cd" points="117.41,-149.93 119.87,-160.24 124.38,-150.65 117.41,-149.93"/>
<text text-anchor="middle" x="159.65" y="-119" font-family="Helvetica,sans-Serif" font-size="10.00"> region_</text>
</g>
<!-- Node6 -->
<g id="node6" class="node">
<title>Node6</title>
<g id="a_node6"><a xlink:href="classIoss_1_1Map.html" target="_top" xlink:title=" ">
<polygon fill="white" stroke="black" points="258.9,-160.5 258.9,-178.5 318.25,-178.5 318.25,-160.5 258.9,-160.5"/>
<text text-anchor="middle" x="288.58" y="-166.5" font-family="Helvetica,sans-Serif" font-size="10.00">Ioss::Map</text>
</a>
</g>
</g>
<!-- Node6&#45;&gt;Node4 -->
<g id="edge6" class="edge">
<title>Node6&#45;&gt;Node4</title>
<path fill="none" stroke="#9a32cd" stroke-dasharray="5,2" d="M279.67,-151.23C269.27,-131.09 252.51,-98.62 244.76,-83.6"/>
<polygon fill="#9a32cd" stroke="#9a32cd" points="276.62,-152.97 284.32,-160.25 282.84,-149.76 276.62,-152.97"/>
<text text-anchor="middle" x="295.82" y="-134" font-family="Helvetica,sans-Serif" font-size="10.00"> nodeMap</text>
<text text-anchor="middle" x="295.82" y="-124" font-family="Helvetica,sans-Serif" font-size="10.00">elemMap</text>
<text text-anchor="middle" x="295.82" y="-114" font-family="Helvetica,sans-Serif" font-size="10.00">faceMap</text>
<text text-anchor="middle" x="295.82" y="-104" font-family="Helvetica,sans-Serif" font-size="10.00">edgeMap</text>
</g>
<!-- Node7 -->
<g id="node7" class="node">
<title>Node7</title>
<g id="a_node7"><a xlink:href="classIoss_1_1ParallelUtils.html" target="_top" xlink:title=" ">
<polygon fill="white" stroke="black" points="336.23,-160.5 336.23,-178.5 428.92,-178.5 428.92,-160.5 336.23,-160.5"/>
<text text-anchor="middle" x="382.58" y="-166.5" font-family="Helvetica,sans-Serif" font-size="10.00">Ioss::ParallelUtils</text>
</a>
</g>
</g>
<!-- Node7&#45;&gt;Node4 -->
<g id="edge7" class="edge">
<title>Node7&#45;&gt;Node4</title>
<path fill="none" stroke="#9a32cd" stroke-dasharray="5,2" d="M371.27,-151.96C360.21,-136.95 342.08,-115.21 321.58,-102 308.52,-93.59 292.55,-87.62 278.25,-83.5"/>
<polygon fill="#9a32cd" stroke="#9a32cd" points="368.55,-154.17 377.19,-160.29 374.25,-150.12 368.55,-154.17"/>
<text text-anchor="middle" x="373.14" y="-119" font-family="Helvetica,sans-Serif" font-size="10.00"> util_</text>
</g>
<!-- Node8 -->
<g id="node8" class="node">
<title>Node8</title>
<g id="a_node8"><a xlink:href="classIoss_1_1PropertyManager.html" target="_top" xlink:title="A collection of Ioss::Property objects.">
<polygon fill="white" stroke="black" points="0,-290.5 0,-308.5 117.16,-308.5 117.16,-290.5 0,-290.5"/>
<text text-anchor="middle" x="58.58" y="-296.5" font-family="Helvetica,sans-Serif" font-size="10.00">Ioss::PropertyManager</text>
</a>
</g>
</g>
<!-- Node8&#45;&gt;Node3 -->
<g id="edge11" class="edge">
<title>Node8&#45;&gt;Node3</title>
<path fill="none" stroke="#9a32cd" stroke-dasharray="5,2" d="M84.37,-285.91C110.17,-273.3 149.11,-254.29 171.04,-243.58"/>
<polygon fill="#9a32cd" stroke="#9a32cd" points="82.63,-282.86 75.18,-290.39 85.7,-289.15 82.63,-282.86"/>
<text text-anchor="middle" x="155.2" y="-264" font-family="Helvetica,sans-Serif" font-size="10.00"> properties</text>
</g>
<!-- Node8&#45;&gt;Node4 -->
<g id="edge8" class="edge">
<title>Node8&#45;&gt;Node4</title>
<path fill="none" stroke="#9a32cd" stroke-dasharray="5,2" d="M57.32,-280.32C55.63,-239.37 58.24,-140.49 118.58,-102 140.96,-87.72 169.86,-81.04 193.91,-77.95"/>
<polygon fill="#9a32cd" stroke="#9a32cd" points="53.83,-280.65 57.88,-290.44 60.82,-280.26 53.83,-280.65"/>
<text text-anchor="middle" x="87.2" y="-199" font-family="Helvetica,sans-Serif" font-size="10.00"> properties</text>
</g>
<!-- Node9 -->
<g id="node9" class="node">
<title>Node9</title>
<g id="a_node9"><a xlink:href="classIoss_1_1ElementTopology.html" target="_top" xlink:title="Represents an element topology.">
<polygon fill="white" stroke="black" points="455.27,-225.5 455.27,-243.5 571.88,-243.5 571.88,-225.5 455.27,-225.5"/>
<text text-anchor="middle" x="513.58" y="-231.5" font-family="Helvetica,sans-Serif" font-size="10.00">Ioss::ElementTopology</text>
</a>
</g>
</g>
<!-- Node9&#45;&gt;Node2 -->
<g id="edge12" class="edge">
<title>Node9&#45;&gt;Node2</title>
<path fill="none" stroke="#9a32cd" stroke-dasharray="5,2" d="M537.43,-220.43C560.46,-207.81 594.61,-189.11 613.9,-178.54"/>
<polygon fill="#9a32cd" stroke="#9a32cd" points="535.7,-217.39 528.61,-225.26 539.06,-223.53 535.7,-217.39"/>
<text text-anchor="middle" x="600.65" y="-199" font-family="Helvetica,sans-Serif" font-size="10.00"> topology_</text>
</g>
<!-- Node9&#45;&gt;Node4 -->
<g id="edge9" class="edge">
<title>Node9&#45;&gt;Node4</title>
<path fill="none" stroke="#9a32cd" stroke-dasharray="5,2" d="M500.4,-217.44C474,-185.68 414.83,-116.62 387.58,-102 356.73,-85.45 317.54,-78.98 287.38,-76.57"/>
<polygon fill="#9a32cd" stroke="#9a32cd" points="497.86,-219.86 506.92,-225.33 503.25,-215.4 497.86,-219.86"/>
<text text-anchor="middle" x="517.16" y="-166.5" font-family="Helvetica,sans-Serif" font-size="10.00"> commonSideTopology</text>
</g>
<!-- Node10 -->
<g id="node10" class="node">
<title>Node10</title>
<g id="a_node10"><a xlink:href="classIoss_1_1FieldManager.html" target="_top" xlink:title="A collection of Ioss::Field objects.">
<polygon fill="white" stroke="black" points="137.06,-290.5 137.06,-308.5 238.1,-308.5 238.1,-290.5 137.06,-290.5"/>
<text text-anchor="middle" x="187.58" y="-296.5" font-family="Helvetica,sans-Serif" font-size="10.00">Ioss::FieldManager</text>
</a>
</g>
</g>
<!-- Node10&#45;&gt;Node3 -->
<g id="edge10" class="edge">
<title>Node10&#45;&gt;Node3</title>
<path fill="none" stroke="#9a32cd" stroke-dasharray="5,2" d="M187.58,-279.91C187.58,-267.81 187.58,-252.65 187.58,-243.54"/>
<polygon fill="#9a32cd" stroke="#9a32cd" points="184.08,-280.26 187.58,-290.26 191.08,-280.26 184.08,-280.26"/>
<text text-anchor="middle" x="200.64" y="-264" font-family="Helvetica,sans-Serif" font-size="10.00"> fields</text>
</g>
<!-- Node11&#45;&gt;Node1 -->
<g id="edge13" class="edge">
<title>Node11&#45;&gt;Node1</title>
<path fill="none" stroke="#9a32cd" stroke-dasharray="5,2" d="M572.7,-55.39C571.98,-49.25 572.3,-42.55 575.21,-37 579.42,-28.97 587.29,-22.89 594.81,-18.6"/>
<polygon fill="#9a32cd" stroke="#9a32cd" points="569.32,-56.36 574.75,-65.45 576.18,-54.96 569.32,-56.36"/>
<text text-anchor="middle" x="606.26" y="-39" font-family="Helvetica,sans-Serif" font-size="10.00"> m_nodeBlock</text>
</g>
</g>
</svg>
        <g id="navigator" transform="translate(0 0)" fill="#404254">
                <rect fill="#f2f5e9" fill-opacity="0.5" stroke="#606060" stroke-width=".5" x="0" y="0" width="60" height="60"/>
                <use id="zoomplus" xlink:href="#zoomPlus" x="17" y="9" onmousedown="handleZoom(evt,'in')"/>
                <use id="zoomminus" xlink:href="#zoomMin" x="42" y="9" onmousedown="handleZoom(evt,'out')"/>
                <use id="reset" xlink:href="#resetDef" x="30" y="36" onmousedown="handleReset()"/>
                <g id="arrowUp" xlink:href="#dirArrow" transform="translate(30 24)" onmousedown="handlePan(0,-1)">
                  <use xlink:href="#rim" fill="#404040">
                        <set attributeName="fill" to="#808080" begin="arrowUp.mouseover" end="arrowUp.mouseout"/>
                  </use>
                  <path fill="none" stroke="white" stroke-width="1.5" d="M0,-3.0v7 M-2.5,-0.5L0,-3.0L2.5,-0.5"/>
                </g>
                <g id="arrowRight" xlink:href="#dirArrow" transform="rotate(90) translate(36 -43)" onmousedown="handlePan(1,0)">
                  <use xlink:href="#rim" fill="#404040">
                        <set attributeName="fill" to="#808080" begin="arrowRight.mouseover" end="arrowRight.mouseout"/>
                  </use>
                  <path fill="none" stroke="white" stroke-width="1.5" d="M0,-3.0v7 M-2.5,-0.5L0,-3.0L2.5,-0.5"/>
                </g>
                <g id="arrowDown" xlink:href="#dirArrow" transform="rotate(180) translate(-30 -48)" onmousedown="handlePan(0,1)">
                  <use xlink:href="#rim" fill="#404040">
                        <set attributeName="fill" to="#808080" begin="arrowDown.mouseover" end="arrowDown.mouseout"/>
                  </use>
                  <path fill="none" stroke="white" stroke-width="1.5" d="M0,-3.0v7 M-2.5,-0.5L0,-3.0L2.5,-0.5"/>
                </g>
                <g id="arrowLeft" xlink:href="#dirArrow" transform="rotate(270) translate(-36 17)" onmousedown="handlePan(-1,0)">
                  <use xlink:href="#rim" fill="#404040">
                        <set attributeName="fill" to="#808080" begin="arrowLeft.mouseover" end="arrowLeft.mouseout"/>
                  </use>
                  <path fill="none" stroke="white" stroke-width="1.5" d="M0,-3.0v7 M-2.5,-0.5L0,-3.0L2.5,-0.5"/>
                </g>
        </g>
        <svg viewBox="0 0 15 15" width="100%" height="30px" preserveAspectRatio="xMaxYMin meet">
         <g id="arrow_out" transform="scale(0.3 0.3)">
          <a xlink:href="classIoss_1_1StructuredBlock__coll__graph_org.svg" target="_base">
           <rect id="button" ry="5" rx="5" y="6" x="6" height="38" width="38"
                fill="#f2f5e9" fill-opacity="0.5" stroke="#606060" stroke-width="1.0"/>
           <path id="arrow"
             d="M 11.500037,31.436501 C 11.940474,20.09759 22.043105,11.32322 32.158766,21.979434 L 37.068811,17.246167 C 37.068811,17.246167 37.088388,32 37.088388,32 L 22.160133,31.978069 C 22.160133,31.978069 26.997745,27.140456 26.997745,27.140456 C 18.528582,18.264221 13.291696,25.230495 11.500037,31.436501 z"
             style="fill:#404040;"/>
          </a>
         </g>
        </svg>
</svg>
