<?xml version="1.0" encoding="UTF-8" standalone="no"?>
<!DOCTYPE svg PUBLIC "-//W3C//DTD SVG 1.1//EN"
 "http://www.w3.org/Graphics/SVG/1.1/DTD/svg11.dtd">
<!-- Generated by graphviz version 2.40.1 (20161225.0304)
 -->
<!-- Title: Iopg::DatabaseIO::get_field_internal Pages: 1 -->
<svg width="766pt" height="606pt"
 viewBox="0.00 0.00 765.69 606.00" xmlns="http://www.w3.org/2000/svg" xmlns:xlink="http://www.w3.org/1999/xlink">
<g id="graph0" class="graph" transform="scale(1 1) rotate(0) translate(4 602)">
<title>Iopg::DatabaseIO::get_field_internal</title>
<polygon fill="#ffffff" stroke="transparent" points="-4,4 -4,-602 761.6865,-602 761.6865,4 -4,4"/>
<!-- Node298 -->
<g id="node1" class="node">
<title>Node298</title>
<polygon fill="#bfbfbf" stroke="#000000" points="0,-360.5 0,-388.5 113.8418,-388.5 113.8418,-360.5 0,-360.5"/>
<text text-anchor="start" x="8" y="-376.5" font-family="Helvetica,sans-Serif" font-size="10.00" fill="#000000">Iopg::DatabaseIO::get</text>
<text text-anchor="middle" x="56.9209" y="-366.5" font-family="Helvetica,sans-Serif" font-size="10.00" fill="#000000">_field_internal</text>
</g>
<!-- Node299 -->
<g id="node2" class="node">
<title>Node299</title>
<g id="a_node2"><a xlink:href="$classIoss_1_1Field.html#a5bf843c0a14301cbb7b1507a2ee0ccc6" xlink:title="Ioss::Field::verify">
<polygon fill="#ffffff" stroke="#000000" points="161.2529,-579.5 161.2529,-597.5 252.2725,-597.5 252.2725,-579.5 161.2529,-579.5"/>
<text text-anchor="middle" x="206.7627" y="-585.5" font-family="Helvetica,sans-Serif" font-size="10.00" fill="#000000">Ioss::Field::verify</text>
</a>
</g>
</g>
<!-- Node298&#45;&gt;Node299 -->
<g id="edge1" class="edge">
<title>Node298&#45;&gt;Node299</title>
<path fill="none" stroke="#191970" d="M60.1918,-388.7171C68.8566,-423.3804 95.5493,-513.1574 149.8418,-564.5 154.2346,-568.6542 159.4531,-572.1426 164.9205,-575.057"/>
<polygon fill="#191970" stroke="#191970" points="163.7152,-578.3575 174.255,-579.4361 166.6883,-572.0202 163.7152,-578.3575"/>
</g>
<!-- Node300 -->
<g id="node3" class="node">
<title>Node300</title>
<g id="a_node3"><a xlink:href="$classIoss_1_1GroupingEntity.html#a40669aca09db99457475f6852eae0c96" xlink:title="Ioss::GroupingEntity\l::entity_count">
<polygon fill="#ffffff" stroke="#000000" points="153.7407,-493.5 153.7407,-521.5 259.7847,-521.5 259.7847,-493.5 153.7407,-493.5"/>
<text text-anchor="start" x="161.7407" y="-509.5" font-family="Helvetica,sans-Serif" font-size="10.00" fill="#000000">Ioss::GroupingEntity</text>
<text text-anchor="middle" x="206.7627" y="-499.5" font-family="Helvetica,sans-Serif" font-size="10.00" fill="#000000">::entity_count</text>
</a>
</g>
</g>
<!-- Node298&#45;&gt;Node300 -->
<g id="edge2" class="edge">
<title>Node298&#45;&gt;Node300</title>
<path fill="none" stroke="#191970" d="M65.5162,-388.559C80.193,-411.5187 112.1795,-457.2305 149.8418,-484.5 151.8813,-485.9767 154.0292,-487.3768 156.2481,-488.7018"/>
<polygon fill="#191970" stroke="#191970" points="154.6129,-491.7964 165.079,-493.4432 157.9242,-485.6291 154.6129,-491.7964"/>
</g>
<!-- Node301 -->
<g id="node4" class="node">
<title>Node301</title>
<g id="a_node4"><a xlink:href="$classIoss_1_1GroupingEntity.html#a3e8284b8cafbbe1646625124f68a2652" xlink:title="Get the Property from the property manager associated with the entity. ">
<polygon fill="#ffffff" stroke="#000000" points="309.1416,-536.5 309.1416,-564.5 415.1855,-564.5 415.1855,-536.5 309.1416,-536.5"/>
<text text-anchor="start" x="317.1416" y="-552.5" font-family="Helvetica,sans-Serif" font-size="10.00" fill="#000000">Ioss::GroupingEntity</text>
<text text-anchor="middle" x="362.1636" y="-542.5" font-family="Helvetica,sans-Serif" font-size="10.00" fill="#000000">::get_property</text>
</a>
</g>
</g>
<!-- Node298&#45;&gt;Node301 -->
<g id="edge9" class="edge">
<title>Node298&#45;&gt;Node301</title>
<path fill="none" stroke="#191970" d="M60.6238,-388.8992C69.6882,-420.8874 96.2665,-497.7002 149.8418,-531.5 193.9801,-559.3461 253.9161,-562.2797 298.853,-559.2973"/>
<polygon fill="#191970" stroke="#191970" points="299.3685,-562.7678 309.0664,-558.5016 298.8248,-555.7889 299.3685,-562.7678"/>
</g>
<!-- Node306 -->
<g id="node9" class="node">
<title>Node306</title>
<g id="a_node9"><a xlink:href="$classIoss_1_1Field.html#aca1c35eb7fb1dcd0bf8c80b2b6926131" xlink:title="Ioss::Field::get_name">
<polygon fill="#ffffff" stroke="#000000" points="306.3608,-423.5 306.3608,-441.5 417.9663,-441.5 417.9663,-423.5 306.3608,-423.5"/>
<text text-anchor="middle" x="362.1636" y="-429.5" font-family="Helvetica,sans-Serif" font-size="10.00" fill="#000000">Ioss::Field::get_name</text>
</a>
</g>
</g>
<!-- Node298&#45;&gt;Node306 -->
<g id="edge8" class="edge">
<title>Node298&#45;&gt;Node306</title>
<path fill="none" stroke="#191970" d="M107.8402,-388.5711C121.4275,-392.0734 136.1414,-395.6403 149.8418,-398.5 198.4561,-408.6471 253.8805,-417.4296 295.9094,-423.5256"/>
<polygon fill="#191970" stroke="#191970" points="295.625,-427.0206 306.0211,-424.978 296.6203,-420.0917 295.625,-427.0206"/>
</g>
<!-- Node307 -->
<g id="node10" class="node">
<title>Node307</title>
<g id="a_node10"><a xlink:href="$classIoss_1_1Property.html#a3c4f1409008f9dcdd35170b702cd29e3" xlink:title="Get the property value if it is of type STRING. ">
<polygon fill="#ffffff" stroke="#000000" points="158.189,-446.5 158.189,-474.5 255.3364,-474.5 255.3364,-446.5 158.189,-446.5"/>
<text text-anchor="start" x="166.189" y="-462.5" font-family="Helvetica,sans-Serif" font-size="10.00" fill="#000000">Ioss::Property::get</text>
<text text-anchor="middle" x="206.7627" y="-452.5" font-family="Helvetica,sans-Serif" font-size="10.00" fill="#000000">_string</text>
</a>
</g>
</g>
<!-- Node298&#45;&gt;Node307 -->
<g id="edge10" class="edge">
<title>Node298&#45;&gt;Node307</title>
<path fill="none" stroke="#191970" d="M78.7832,-388.5876C97.4309,-400.4394 125.0761,-417.6238 149.8418,-431.5 155.9525,-434.9238 162.5125,-438.4233 168.9282,-441.7528"/>
<polygon fill="#191970" stroke="#191970" points="167.6597,-445.0355 178.1555,-446.4805 170.8517,-438.8056 167.6597,-445.0355"/>
</g>
<!-- Node308 -->
<g id="node11" class="node">
<title>Node308</title>
<g id="a_node11"><a xlink:href="$namespaceanonymous__namespace_02Iopg__DatabaseIO_8C_03.html#ad9a8b0faed61baa2d5c1c7d34af4fa0c" xlink:title="anonymous_namespace\l\{Iopg_DatabaseIO::C\}\l::get_file_pointer">
<polygon fill="#ffffff" stroke="#000000" points="299.6836,-215.5 299.6836,-253.5 424.6436,-253.5 424.6436,-215.5 299.6836,-215.5"/>
<text text-anchor="start" x="307.6836" y="-241.5" font-family="Helvetica,sans-Serif" font-size="10.00" fill="#000000">anonymous_namespace</text>
<text text-anchor="start" x="307.6836" y="-231.5" font-family="Helvetica,sans-Serif" font-size="10.00" fill="#000000">{Iopg_DatabaseIO::C}</text>
<text text-anchor="middle" x="362.1636" y="-221.5" font-family="Helvetica,sans-Serif" font-size="10.00" fill="#000000">::get_file_pointer</text>
</a>
</g>
</g>
<!-- Node298&#45;&gt;Node308 -->
<g id="edge12" class="edge">
<title>Node298&#45;&gt;Node308</title>
<path fill="none" stroke="#191970" d="M75.7343,-360.3265C93.9855,-347.0253 122.8099,-327.1823 149.8418,-313.5 194.931,-290.6779 248.2466,-270.8636 290.1717,-256.7872"/>
<polygon fill="#191970" stroke="#191970" points="291.3663,-260.0785 299.7523,-253.6035 289.1588,-253.4356 291.3663,-260.0785"/>
</g>
<!-- Node309 -->
<g id="node12" class="node">
<title>Node309</title>
<g id="a_node12"><a xlink:href="$namespaceanonymous__namespace_02Iopg__DatabaseIO_8C_03.html#a59ba7fc965d83ed44d626f1f8ff9b4cf" xlink:title="anonymous_namespace\l\{Iopg_DatabaseIO::C\}\l::pamgen_error">
<polygon fill="#ffffff" stroke="#000000" points="299.6836,-272.5 299.6836,-310.5 424.6436,-310.5 424.6436,-272.5 299.6836,-272.5"/>
<text text-anchor="start" x="307.6836" y="-298.5" font-family="Helvetica,sans-Serif" font-size="10.00" fill="#000000">anonymous_namespace</text>
<text text-anchor="start" x="307.6836" y="-288.5" font-family="Helvetica,sans-Serif" font-size="10.00" fill="#000000">{Iopg_DatabaseIO::C}</text>
<text text-anchor="middle" x="362.1636" y="-278.5" font-family="Helvetica,sans-Serif" font-size="10.00" fill="#000000">::pamgen_error</text>
</a>
</g>
</g>
<!-- Node298&#45;&gt;Node309 -->
<g id="edge13" class="edge">
<title>Node298&#45;&gt;Node309</title>
<path fill="none" stroke="#191970" d="M108.7012,-360.4202C158.4431,-346.8946 234.0521,-326.3354 289.751,-311.19"/>
<polygon fill="#191970" stroke="#191970" points="290.8273,-314.5246 299.5585,-308.5232 288.9905,-307.7698 290.8273,-314.5246"/>
</g>
<!-- Node311 -->
<g id="node14" class="node">
<title>Node311</title>
<g id="a_node14"><a xlink:href="$classIopg_1_1DatabaseIO.html#ab4852be1ceadbe30a3444f821ca77ec4" xlink:title="Iopg::DatabaseIO::get\l_node_map">
<polygon fill="#ffffff" stroke="#000000" points="149.8418,-176.5 149.8418,-204.5 263.6836,-204.5 263.6836,-176.5 149.8418,-176.5"/>
<text text-anchor="start" x="157.8418" y="-192.5" font-family="Helvetica,sans-Serif" font-size="10.00" fill="#000000">Iopg::DatabaseIO::get</text>
<text text-anchor="middle" x="206.7627" y="-182.5" font-family="Helvetica,sans-Serif" font-size="10.00" fill="#000000">_node_map</text>
</a>
</g>
</g>
<!-- Node298&#45;&gt;Node311 -->
<g id="edge15" class="edge">
<title>Node298&#45;&gt;Node311</title>
<path fill="none" stroke="#191970" d="M64.6412,-360.1937C79.1885,-333.9712 112.5675,-277.1699 149.8418,-236.5 158.3407,-227.2269 168.7788,-218.2466 178.3853,-210.7194"/>
<polygon fill="#191970" stroke="#191970" points="180.7074,-213.3504 186.5436,-204.5079 176.467,-207.781 180.7074,-213.3504"/>
</g>
<!-- Node312 -->
<g id="node15" class="node">
<title>Node312</title>
<g id="a_node15"><a xlink:href="$classIoss_1_1Map.html#af3499aa0dc4ab638c5ddca50bed41252" xlink:title="Ioss::Map::map">
<polygon fill="#ffffff" stroke="#000000" points="319.9839,-.5 319.9839,-18.5 404.3433,-18.5 404.3433,-.5 319.9839,-.5"/>
<text text-anchor="middle" x="362.1636" y="-6.5" font-family="Helvetica,sans-Serif" font-size="10.00" fill="#000000">Ioss::Map::map</text>
</a>
</g>
</g>
<!-- Node298&#45;&gt;Node312 -->
<g id="edge24" class="edge">
<title>Node298&#45;&gt;Node312</title>
<path fill="none" stroke="#191970" d="M58.7972,-360.2382C64.8824,-318.8529 87.4231,-196.8356 149.8418,-120.5 193.3188,-67.3294 269.0446,-36.5695 317.3288,-21.4312"/>
<polygon fill="#191970" stroke="#191970" points="318.348,-24.7796 326.8979,-18.5226 316.3123,-18.0821 318.348,-24.7796"/>
</g>
<!-- Node318 -->
<g id="node21" class="node">
<title>Node318</title>
<g id="a_node21"><a xlink:href="$classIopg_1_1DatabaseIO.html#afed5ce9c44b3a1b3b1e8b46901eb37c7" xlink:title="Iopg::DatabaseIO::get\l_element_map">
<polygon fill="#ffffff" stroke="#000000" points="149.8418,-129.5 149.8418,-157.5 263.6836,-157.5 263.6836,-129.5 149.8418,-129.5"/>
<text text-anchor="start" x="157.8418" y="-145.5" font-family="Helvetica,sans-Serif" font-size="10.00" fill="#000000">Iopg::DatabaseIO::get</text>
<text text-anchor="middle" x="206.7627" y="-135.5" font-family="Helvetica,sans-Serif" font-size="10.00" fill="#000000">_element_map</text>
</a>
</g>
</g>
<!-- Node298&#45;&gt;Node318 -->
<g id="edge25" class="edge">
<title>Node298&#45;&gt;Node318</title>
<path fill="none" stroke="#191970" d="M59.5288,-360.3863C67.004,-323.693 91.8079,-224.2192 149.8418,-167.5 151.462,-165.9165 153.2025,-164.4308 155.0323,-163.0378"/>
<polygon fill="#191970" stroke="#191970" points="157.0595,-165.8944 163.5312,-157.5059 153.2408,-160.0277 157.0595,-165.8944"/>
</g>
<!-- Node319 -->
<g id="node22" class="node">
<title>Node319</title>
<g id="a_node22"><a xlink:href="$classIoss_1_1Utils.html#a7f5bc8bdb2f155ff16302c656f9e836e" xlink:title="Ioss::Utils::field\l_warning">
<polygon fill="#ffffff" stroke="#000000" points="165.1421,-360.5 165.1421,-388.5 248.3833,-388.5 248.3833,-360.5 165.1421,-360.5"/>
<text text-anchor="start" x="173.1421" y="-376.5" font-family="Helvetica,sans-Serif" font-size="10.00" fill="#000000">Ioss::Utils::field</text>
<text text-anchor="middle" x="206.7627" y="-366.5" font-family="Helvetica,sans-Serif" font-size="10.00" fill="#000000">_warning</text>
</a>
</g>
</g>
<!-- Node298&#45;&gt;Node319 -->
<g id="edge33" class="edge">
<title>Node298&#45;&gt;Node319</title>
<path fill="none" stroke="#191970" d="M113.9971,-374.5C127.3101,-374.5 141.4213,-374.5 154.5129,-374.5"/>
<polygon fill="#191970" stroke="#191970" points="154.7588,-378.0001 164.7587,-374.5 154.7587,-371.0001 154.7588,-378.0001"/>
</g>
<!-- Node300&#45;&gt;Node301 -->
<g id="edge3" class="edge">
<title>Node300&#45;&gt;Node301</title>
<path fill="none" stroke="#191970" d="M257.6468,-521.5798C271.6714,-525.4605 287.0246,-529.7088 301.5411,-533.7255"/>
<polygon fill="#191970" stroke="#191970" points="300.8595,-537.1684 311.4307,-536.462 302.7263,-530.4219 300.8595,-537.1684"/>
</g>
<!-- Node302 -->
<g id="node5" class="node">
<title>Node302</title>
<g id="a_node5"><a xlink:href="$classIoss_1_1Property.html#a45bcbc7137a296f3eda52c92c04da39f" xlink:title="Get the property value if it is of type INTEGER. ">
<polygon fill="#ffffff" stroke="#000000" points="305.5283,-499.5 305.5283,-517.5 418.7988,-517.5 418.7988,-499.5 305.5283,-499.5"/>
<text text-anchor="middle" x="362.1636" y="-505.5" font-family="Helvetica,sans-Serif" font-size="10.00" fill="#000000">Ioss::Property::get_int</text>
</a>
</g>
</g>
<!-- Node300&#45;&gt;Node302 -->
<g id="edge4" class="edge">
<title>Node300&#45;&gt;Node302</title>
<path fill="none" stroke="#191970" d="M259.8082,-507.8413C271.1652,-507.9144 283.3061,-507.9926 295.1127,-508.0685"/>
<polygon fill="#191970" stroke="#191970" points="295.3516,-511.57 305.374,-508.1346 295.3967,-504.5702 295.3516,-511.57"/>
</g>
<!-- Node303 -->
<g id="node6" class="node">
<title>Node303</title>
<g id="a_node6"><a xlink:href="$namespaceanonymous__namespace_02Ioss__Property_8C_03.html#a7e9f404cf974920b115b502313608c02" xlink:title="anonymous_namespace\l\{Ioss_Property::C\}::\lerror_message">
<polygon fill="#ffffff" stroke="#000000" points="466.2051,-470.5 466.2051,-508.5 591.165,-508.5 591.165,-470.5 466.2051,-470.5"/>
<text text-anchor="start" x="474.2051" y="-496.5" font-family="Helvetica,sans-Serif" font-size="10.00" fill="#000000">anonymous_namespace</text>
<text text-anchor="start" x="474.2051" y="-486.5" font-family="Helvetica,sans-Serif" font-size="10.00" fill="#000000">{Ioss_Property::C}::</text>
<text text-anchor="middle" x="528.6851" y="-476.5" font-family="Helvetica,sans-Serif" font-size="10.00" fill="#000000">error_message</text>
</a>
</g>
</g>
<!-- Node302&#45;&gt;Node303 -->
<g id="edge5" class="edge">
<title>Node302&#45;&gt;Node303</title>
<path fill="none" stroke="#191970" d="M419.0051,-502.0144C430.856,-500.6622 443.5036,-499.2191 455.8412,-497.8114"/>
<polygon fill="#191970" stroke="#191970" points="456.5689,-501.2512 466.1076,-496.6401 455.7753,-494.2963 456.5689,-501.2512"/>
</g>
<!-- Node304 -->
<g id="node7" class="node">
<title>Node304</title>
<g id="a_node7"><a xlink:href="$namespaceanonymous__namespace_02Ioss__Property_8C_03.html#a33c896c06915d8a83ca1d8886b26d8ed" xlink:title="anonymous_namespace\l\{Ioss_Property::C\}::\ltype_string">
<polygon fill="#ffffff" stroke="#000000" points="632.7266,-493.5 632.7266,-531.5 757.6865,-531.5 757.6865,-493.5 632.7266,-493.5"/>
<text text-anchor="start" x="640.7266" y="-519.5" font-family="Helvetica,sans-Serif" font-size="10.00" fill="#000000">anonymous_namespace</text>
<text text-anchor="start" x="640.7266" y="-509.5" font-family="Helvetica,sans-Serif" font-size="10.00" fill="#000000">{Ioss_Property::C}::</text>
<text text-anchor="middle" x="695.2065" y="-499.5" font-family="Helvetica,sans-Serif" font-size="10.00" fill="#000000">type_string</text>
</a>
</g>
</g>
<!-- Node303&#45;&gt;Node304 -->
<g id="edge6" class="edge">
<title>Node303&#45;&gt;Node304</title>
<path fill="none" stroke="#191970" d="M591.1653,-498.1298C601.446,-499.5498 612.1782,-501.0321 622.6788,-502.4824"/>
<polygon fill="#191970" stroke="#191970" points="622.2683,-505.9589 632.6532,-503.8601 623.2261,-499.0247 622.2683,-505.9589"/>
</g>
<!-- Node305 -->
<g id="node8" class="node">
<title>Node305</title>
<g id="a_node8"><a xlink:href="$classIoss_1_1Property.html#a90c992cd11af736282e63e1c34b1c076" xlink:title="Get the property type. ">
<polygon fill="#ffffff" stroke="#000000" points="634.4014,-456.5 634.4014,-474.5 756.0117,-474.5 756.0117,-456.5 634.4014,-456.5"/>
<text text-anchor="middle" x="695.2065" y="-462.5" font-family="Helvetica,sans-Serif" font-size="10.00" fill="#000000">Ioss::Property::get_type</text>
</a>
</g>
</g>
<!-- Node303&#45;&gt;Node305 -->
<g id="edge7" class="edge">
<title>Node303&#45;&gt;Node305</title>
<path fill="none" stroke="#191970" d="M591.1653,-480.495C601.9759,-478.9369 613.2858,-477.3069 624.3007,-475.7193"/>
<polygon fill="#191970" stroke="#191970" points="624.9122,-479.1675 634.3107,-474.2767 623.9136,-472.239 624.9122,-479.1675"/>
</g>
<!-- Node307&#45;&gt;Node303 -->
<g id="edge11" class="edge">
<title>Node307&#45;&gt;Node303</title>
<path fill="none" stroke="#191970" d="M255.6558,-464.9045C308.9731,-469.7075 394.8585,-477.4444 456.0604,-482.9577"/>
<polygon fill="#191970" stroke="#191970" points="455.7686,-486.4455 466.0423,-483.8569 456.3967,-479.4737 455.7686,-486.4455"/>
</g>
<!-- Node310 -->
<g id="node13" class="node">
<title>Node310</title>
<g id="a_node13"><a xlink:href="$namespaceanonymous__namespace_02Iopg__DatabaseIO_8C_03.html#af521f70ed0499a8e009629eb297c67f1" xlink:title="anonymous_namespace\l\{Iopg_DatabaseIO::C\}\l::Version">
<polygon fill="#ffffff" stroke="#000000" points="466.2051,-272.5 466.2051,-310.5 591.165,-310.5 591.165,-272.5 466.2051,-272.5"/>
<text text-anchor="start" x="474.2051" y="-298.5" font-family="Helvetica,sans-Serif" font-size="10.00" fill="#000000">anonymous_namespace</text>
<text text-anchor="start" x="474.2051" y="-288.5" font-family="Helvetica,sans-Serif" font-size="10.00" fill="#000000">{Iopg_DatabaseIO::C}</text>
<text text-anchor="middle" x="528.6851" y="-278.5" font-family="Helvetica,sans-Serif" font-size="10.00" fill="#000000">::Version</text>
</a>
</g>
</g>
<!-- Node309&#45;&gt;Node310 -->
<g id="edge14" class="edge">
<title>Node309&#45;&gt;Node310</title>
<path fill="none" stroke="#191970" d="M424.6438,-291.5C434.8185,-291.5 445.4355,-291.5 455.8325,-291.5"/>
<polygon fill="#191970" stroke="#191970" points="456.1317,-295.0001 466.1317,-291.5 456.1316,-288.0001 456.1317,-295.0001"/>
</g>
<!-- Node311&#45;&gt;Node308 -->
<g id="edge19" class="edge">
<title>Node311&#45;&gt;Node308</title>
<path fill="none" stroke="#191970" d="M256.3598,-204.5428C267.0085,-207.5579 278.4712,-210.8034 289.7828,-214.0062"/>
<polygon fill="#191970" stroke="#191970" points="289.0849,-217.4461 299.6602,-216.8029 290.9919,-210.7109 289.0849,-217.4461"/>
</g>
<!-- Node311&#45;&gt;Node309 -->
<g id="edge20" class="edge">
<title>Node311&#45;&gt;Node309</title>
<path fill="none" stroke="#191970" d="M222.3346,-204.6925C240.1199,-220.4207 270.5378,-245.8859 299.6836,-263.5 302.1156,-264.9698 304.6383,-266.4092 307.2134,-267.8112"/>
<polygon fill="#191970" stroke="#191970" points="305.6265,-270.9308 316.1158,-272.423 308.8465,-264.7153 305.6265,-270.9308"/>
</g>
<!-- Node311&#45;&gt;Node312 -->
<g id="edge16" class="edge">
<title>Node311&#45;&gt;Node312</title>
<path fill="none" stroke="#191970" d="M253.1283,-176.384C257.0482,-173.8821 260.6612,-170.9453 263.6836,-167.5 305.768,-119.5271 255.5114,-74.5577 299.6836,-28.5 302.8595,-25.1886 306.5926,-22.4493 310.6274,-20.184"/>
<polygon fill="#191970" stroke="#191970" points="312.2215,-23.3034 319.8432,-15.944 309.2956,-16.9441 312.2215,-23.3034"/>
</g>
<!-- Node313 -->
<g id="node16" class="node">
<title>Node313</title>
<g id="a_node16"><a xlink:href="$classIoss_1_1Map.html#aeb06d5b955371e06cfaa5cb0f3e2ea7f" xlink:title="Ioss::Map::set_size">
<polygon fill="#ffffff" stroke="#000000" points="311.3682,-178.5 311.3682,-196.5 412.959,-196.5 412.959,-178.5 311.3682,-178.5"/>
<text text-anchor="middle" x="362.1636" y="-184.5" font-family="Helvetica,sans-Serif" font-size="10.00" fill="#000000">Ioss::Map::set_size</text>
</a>
</g>
</g>
<!-- Node311&#45;&gt;Node313 -->
<g id="edge17" class="edge">
<title>Node311&#45;&gt;Node313</title>
<path fill="none" stroke="#191970" d="M263.7458,-189.3999C275.9273,-189.1648 288.8416,-188.9155 301.1673,-188.6775"/>
<polygon fill="#191970" stroke="#191970" points="301.4229,-192.1733 311.3535,-188.4809 301.2877,-185.1746 301.4229,-192.1733"/>
</g>
<!-- Node314 -->
<g id="node17" class="node">
<title>Node314</title>
<g id="a_node17"><a xlink:href="$classIoss_1_1DatabaseIO.html#afaf8598b13b44b8f262b3eec8398cb06" xlink:title="Determine whether the database is an input database. ">
<polygon fill="#ffffff" stroke="#000000" points="309.144,-131.5 309.144,-159.5 415.1831,-159.5 415.1831,-131.5 309.144,-131.5"/>
<text text-anchor="start" x="317.144" y="-147.5" font-family="Helvetica,sans-Serif" font-size="10.00" fill="#000000">Ioss::DatabaseIO::is</text>
<text text-anchor="middle" x="362.1636" y="-137.5" font-family="Helvetica,sans-Serif" font-size="10.00" fill="#000000">_input</text>
</a>
</g>
</g>
<!-- Node311&#45;&gt;Node314 -->
<g id="edge18" class="edge">
<title>Node311&#45;&gt;Node314</title>
<path fill="none" stroke="#191970" d="M255.5061,-176.3852C270.8384,-171.9454 287.9261,-166.9972 303.8527,-162.3853"/>
<polygon fill="#191970" stroke="#191970" points="304.9612,-165.7082 313.5931,-159.5647 303.0142,-158.9844 304.9612,-165.7082"/>
</g>
<!-- Node315 -->
<g id="node18" class="node">
<title>Node315</title>
<g id="a_node18"><a xlink:href="$classIoss_1_1Map.html#a2e65d0ea8d6b141ed17a929e4c610b41" xlink:title="Ioss::Map::set_map">
<polygon fill="#ffffff" stroke="#000000" points="310.5332,-94.5 310.5332,-112.5 413.7939,-112.5 413.7939,-94.5 310.5332,-94.5"/>
<text text-anchor="middle" x="362.1636" y="-100.5" font-family="Helvetica,sans-Serif" font-size="10.00" fill="#000000">Ioss::Map::set_map</text>
</a>
</g>
</g>
<!-- Node311&#45;&gt;Node315 -->
<g id="edge21" class="edge">
<title>Node311&#45;&gt;Node315</title>
<path fill="none" stroke="#191970" d="M248.8276,-176.4133C254.0582,-173.8362 259.1527,-170.8737 263.6836,-167.5 284.2268,-152.2037 278.4817,-136.8695 299.6836,-122.5 303.0198,-120.2389 306.6341,-118.2394 310.385,-116.4725"/>
<polygon fill="#191970" stroke="#191970" points="312.0004,-119.5923 319.9096,-112.5428 309.3306,-113.1214 312.0004,-119.5923"/>
</g>
<!-- Node317 -->
<g id="node20" class="node">
<title>Node317</title>
<g id="a_node20"><a xlink:href="$namespaceanonymous__namespace_02Iopg__DatabaseIO_8C_03.html#a02e78e9993545491237c61f2764e46db" xlink:title="anonymous_namespace\l\{Iopg_DatabaseIO::C\}\l::unsupported">
<polygon fill="#ffffff" stroke="#000000" points="299.6836,-37.5 299.6836,-75.5 424.6436,-75.5 424.6436,-37.5 299.6836,-37.5"/>
<text text-anchor="start" x="307.6836" y="-63.5" font-family="Helvetica,sans-Serif" font-size="10.00" fill="#000000">anonymous_namespace</text>
<text text-anchor="start" x="307.6836" y="-53.5" font-family="Helvetica,sans-Serif" font-size="10.00" fill="#000000">{Iopg_DatabaseIO::C}</text>
<text text-anchor="middle" x="362.1636" y="-43.5" font-family="Helvetica,sans-Serif" font-size="10.00" fill="#000000">::unsupported</text>
</a>
</g>
</g>
<!-- Node311&#45;&gt;Node317 -->
<g id="edge23" class="edge">
<title>Node311&#45;&gt;Node317</title>
<path fill="none" stroke="#191970" d="M251.7288,-176.355C256.0742,-173.8454 260.1657,-170.915 263.6836,-167.5 292.2424,-139.7765 271.8345,-113.9364 299.6836,-85.5 300.9204,-84.2371 302.2227,-83.0234 303.5787,-81.8573"/>
<polygon fill="#191970" stroke="#191970" points="305.9262,-84.4729 311.8521,-75.6903 301.7427,-78.8606 305.9262,-84.4729"/>
</g>
<!-- Node316 -->
<g id="node19" class="node">
<title>Node316</title>
<g id="a_node19"><a xlink:href="$namespaceanonymous__namespace_02Ioss__Map_8C_03.html#aa1a8680ec9949ce1b6ad349b6f0e48ea" xlink:title="anonymous_namespace\l\{Ioss_Map::C\}::is_one2one">
<polygon fill="#ffffff" stroke="#000000" points="460.6436,-89.5 460.6436,-117.5 596.7266,-117.5 596.7266,-89.5 460.6436,-89.5"/>
<text text-anchor="start" x="468.6436" y="-105.5" font-family="Helvetica,sans-Serif" font-size="10.00" fill="#000000">anonymous_namespace</text>
<text text-anchor="middle" x="528.6851" y="-95.5" font-family="Helvetica,sans-Serif" font-size="10.00" fill="#000000">{Ioss_Map::C}::is_one2one</text>
</a>
</g>
</g>
<!-- Node315&#45;&gt;Node316 -->
<g id="edge22" class="edge">
<title>Node315&#45;&gt;Node316</title>
<path fill="none" stroke="#191970" d="M413.9392,-103.5C425.4259,-103.5 437.8503,-103.5 450.1373,-103.5"/>
<polygon fill="#191970" stroke="#191970" points="450.4026,-107.0001 460.4026,-103.5 450.4025,-100.0001 450.4026,-107.0001"/>
</g>
<!-- Node318&#45;&gt;Node308 -->
<g id="edge29" class="edge">
<title>Node318&#45;&gt;Node308</title>
<path fill="none" stroke="#191970" d="M246.209,-157.5175C252.2954,-160.41 258.3297,-163.7405 263.6836,-167.5 282.9886,-181.0559 280.5309,-192.7298 299.6836,-206.5 301.4872,-207.7967 303.3603,-209.0533 305.2834,-210.2687"/>
<polygon fill="#191970" stroke="#191970" points="303.5703,-213.3213 313.9728,-215.3308 307.0939,-207.2728 303.5703,-213.3213"/>
</g>
<!-- Node318&#45;&gt;Node309 -->
<g id="edge30" class="edge">
<title>Node318&#45;&gt;Node309</title>
<path fill="none" stroke="#191970" d="M250.8017,-157.5987C255.534,-160.3606 259.9689,-163.6327 263.6836,-167.5 295.2501,-200.3633 268.4853,-230.2869 299.6836,-263.5 300.4567,-264.3231 301.2585,-265.1236 302.0858,-265.9021"/>
<polygon fill="#191970" stroke="#191970" points="300.1349,-268.8233 310.1326,-272.3299 304.5037,-263.354 300.1349,-268.8233"/>
</g>
<!-- Node318&#45;&gt;Node312 -->
<g id="edge26" class="edge">
<title>Node318&#45;&gt;Node312</title>
<path fill="none" stroke="#191970" d="M217.6242,-129.1167C239.8264,-99.8579 289.2018,-35.5669 299.6836,-28.5 303.0252,-26.247 306.6435,-24.2534 310.3972,-22.4906"/>
<polygon fill="#191970" stroke="#191970" points="312.0117,-25.611 319.9263,-18.5676 309.3469,-19.138 312.0117,-25.611"/>
</g>
<!-- Node318&#45;&gt;Node313 -->
<g id="edge27" class="edge">
<title>Node318&#45;&gt;Node313</title>
<path fill="none" stroke="#191970" d="M256.3598,-157.5428C277.0286,-163.395 300.7636,-170.1153 320.5089,-175.7059"/>
<polygon fill="#191970" stroke="#191970" points="319.5658,-179.0764 330.1411,-178.4332 321.4728,-172.3412 319.5658,-179.0764"/>
</g>
<!-- Node318&#45;&gt;Node314 -->
<g id="edge28" class="edge">
<title>Node318&#45;&gt;Node314</title>
<path fill="none" stroke="#191970" d="M263.7458,-144.2334C275.2025,-144.3808 287.3074,-144.5366 298.9612,-144.6866"/>
<polygon fill="#191970" stroke="#191970" points="299.0144,-148.1875 309.0587,-144.8165 299.1046,-141.188 299.0144,-148.1875"/>
</g>
<!-- Node318&#45;&gt;Node315 -->
<g id="edge31" class="edge">
<title>Node318&#45;&gt;Node315</title>
<path fill="none" stroke="#191970" d="M261.5512,-129.3975C279.6671,-124.7345 299.6079,-119.6018 316.9256,-115.1442"/>
<polygon fill="#191970" stroke="#191970" points="317.9734,-118.4887 326.7853,-112.6063 316.2285,-111.7096 317.9734,-118.4887"/>
</g>
<!-- Node318&#45;&gt;Node317 -->
<g id="edge32" class="edge">
<title>Node318&#45;&gt;Node317</title>
<path fill="none" stroke="#191970" d="M227.7242,-129.3753C246.273,-117.1303 274.2653,-99.2637 299.6836,-85.5 302.9797,-83.7152 306.4053,-81.9327 309.8793,-80.1787"/>
<polygon fill="#191970" stroke="#191970" points="311.7084,-83.1793 319.1323,-75.6204 308.615,-76.8999 311.7084,-83.1793"/>
</g>
<!-- Node319&#45;&gt;Node306 -->
<g id="edge36" class="edge">
<title>Node319&#45;&gt;Node306</title>
<path fill="none" stroke="#191970" d="M236.9279,-388.6319C254.9225,-396.7724 278.3505,-406.8696 299.6836,-414.5 305.6126,-416.6207 311.9242,-418.6718 318.1702,-420.5829"/>
<polygon fill="#191970" stroke="#191970" points="317.2844,-423.9709 327.867,-423.4609 319.2762,-417.2602 317.2844,-423.9709"/>
</g>
<!-- Node320 -->
<g id="node23" class="node">
<title>Node320</title>
<g id="a_node23"><a xlink:href="$classIoss_1_1GroupingEntity.html#adf92c4256dc89b729f4492642bc4d745" xlink:title="Get the name of the particular type of entity. ">
<polygon fill="#ffffff" stroke="#000000" points="309.1416,-329.5 309.1416,-357.5 415.1855,-357.5 415.1855,-329.5 309.1416,-329.5"/>
<text text-anchor="start" x="317.1416" y="-345.5" font-family="Helvetica,sans-Serif" font-size="10.00" fill="#000000">Ioss::GroupingEntity</text>
<text text-anchor="middle" x="362.1636" y="-335.5" font-family="Helvetica,sans-Serif" font-size="10.00" fill="#000000">::type_string</text>
</a>
</g>
</g>
<!-- Node319&#45;&gt;Node320 -->
<g id="edge34" class="edge">
<title>Node319&#45;&gt;Node320</title>
<path fill="none" stroke="#191970" d="M248.4073,-366.1926C263.9644,-363.0892 281.9994,-359.4915 299.0604,-356.0881"/>
<polygon fill="#191970" stroke="#191970" points="299.845,-359.5006 308.967,-354.1119 298.4755,-352.6359 299.845,-359.5006"/>
</g>
<!-- Node321 -->
<g id="node24" class="node">
<title>Node321</title>
<g id="a_node24"><a xlink:href="$classIoss_1_1GroupingEntity.html#a50d4053f49c8c3205e05d939fdc9fbc5" xlink:title="Get name of entity. ">
<polygon fill="#ffffff" stroke="#000000" points="309.1416,-376.5 309.1416,-404.5 415.1855,-404.5 415.1855,-376.5 309.1416,-376.5"/>
<text text-anchor="start" x="317.1416" y="-392.5" font-family="Helvetica,sans-Serif" font-size="10.00" fill="#000000">Ioss::GroupingEntity</text>
<text text-anchor="middle" x="362.1636" y="-382.5" font-family="Helvetica,sans-Serif" font-size="10.00" fill="#000000">::name</text>
</a>
</g>
</g>
<!-- Node319&#45;&gt;Node321 -->
<g id="edge35" class="edge">
<title>Node319&#45;&gt;Node321</title>
<path fill="none" stroke="#191970" d="M248.4073,-378.7877C263.819,-380.3745 281.6625,-382.2117 298.5818,-383.9537"/>
<polygon fill="#191970" stroke="#191970" points="298.6611,-387.4802 308.967,-385.0229 299.3781,-380.517 298.6611,-387.4802"/>
</g>
</g>
</svg>
