<?xml version="1.0" encoding="UTF-8" standalone="no"?>
<!DOCTYPE svg PUBLIC "-//W3C//DTD SVG 1.1//EN"
 "http://www.w3.org/Graphics/SVG/1.1/DTD/svg11.dtd">
<!-- Generated by graphviz version 2.40.1 (20161225.0304)
 -->
<!-- Title: Iocgns::DatabaseIO::write_adjacency_data Pages: 1 -->
<svg width="267pt" height="37pt"
 viewBox="0.00 0.00 266.67 37.00" xmlns="http://www.w3.org/2000/svg" xmlns:xlink="http://www.w3.org/1999/xlink">
<g id="graph0" class="graph" transform="scale(1 1) rotate(0) translate(4 33)">
<title>Iocgns::DatabaseIO::write_adjacency_data</title>
<polygon fill="#ffffff" stroke="transparent" points="-4,4 -4,-33 262.6689,-33 262.6689,4 -4,4"/>
<!-- Node1323 -->
<g id="node1" class="node">
<title>Node1323</title>
<polygon fill="#bfbfbf" stroke="#000000" points="0,-.5 0,-28.5 118.2852,-28.5 118.2852,-.5 0,-.5"/>
<text text-anchor="start" x="8" y="-16.5" font-family="Helvetica,sans-Serif" font-size="10.00" fill="#000000">Iocgns::DatabaseIO</text>
<text text-anchor="middle" x="59.1426" y="-6.5" font-family="Helvetica,sans-Serif" font-size="10.00" fill="#000000">::write_adjacency_data</text>
</g>
<!-- Node1324 -->
<g id="node2" class="node">
<title>Node1324</title>
<g id="a_node2"><a xlink:href="classIocgns_1_1DatabaseIO.html#a2c5d72d71cbf54e42bfc2eb770d804b2" target="_top" xlink:title="Iocgns::DatabaseIO\l::end__">
<polygon fill="#ffffff" stroke="#000000" points="154.2852,-.5 154.2852,-28.5 258.6689,-28.5 258.6689,-.5 154.2852,-.5"/>
<text text-anchor="start" x="162.2852" y="-16.5" font-family="Helvetica,sans-Serif" font-size="10.00" fill="#000000">Iocgns::DatabaseIO</text>
<text text-anchor="middle" x="206.4771" y="-6.5" font-family="Helvetica,sans-Serif" font-size="10.00" fill="#000000">::end__</text>
</a>
</g>
</g>
<!-- Node1323&#45;&gt;Node1324 -->
<g id="edge1" class="edge">
<title>Node1323&#45;&gt;Node1324</title>
<path fill="none" stroke="#191970" d="M128.8497,-14.5C137.2687,-14.5 145.7568,-14.5 153.8726,-14.5"/>
<polygon fill="#191970" stroke="#191970" points="128.6445,-11.0001 118.6445,-14.5 128.6444,-18.0001 128.6445,-11.0001"/>
</g>
</g>
</svg>
