<?xml version="1.0" encoding="UTF-8" standalone="no"?>
<!DOCTYPE svg PUBLIC "-//W3C//DTD SVG 1.1//EN"
 "http://www.w3.org/Graphics/SVG/1.1/DTD/svg11.dtd">
<!-- Generated by graphviz version 2.40.1 (20161225.0304)
 -->
<!-- Title: Ioss::Decomposition::decompose_model Pages: 1 -->
<!--zoomable 218 -->
<svg id="main" version="1.1" xmlns="http://www.w3.org/2000/svg" xmlns:xlink="http://www.w3.org/1999/xlink" xml:space="preserve" onload="init(evt)">
<style type="text/css"><![CDATA[
.edge:hover path { stroke: red; }
.edge:hover polygon { stroke: red; fill: red; }
]]></style>
<script type="text/javascript"><![CDATA[
var edges = document.getElementsByTagName('g');
if (edges && edges.length) {
  for (var i=0;i<edges.length;i++) {
    if (edges[i].id.substr(0,4)=='edge') {
      edges[i].setAttribute('class','edge');
    }
  }
}
]]></script>
        <defs>
                <circle id="rim" cx="0" cy="0" r="7"/>
                <circle id="rim2" cx="0" cy="0" r="3.5"/>
                <g id="zoomPlus">
                        <use xlink:href="#rim" fill="#404040">
                                <set attributeName="fill" to="#808080" begin="zoomplus.mouseover" end="zoomplus.mouseout"/>
                        </use>
                        <path d="M-4,0h8M0,-4v8" fill="none" stroke="white" stroke-width="1.5" pointer-events="none"/>
                </g>
                <g id="zoomMin">
                        <use xlink:href="#rim" fill="#404040">
                                <set attributeName="fill" to="#808080" begin="zoomminus.mouseover" end="zoomminus.mouseout"/>
                        </use>
                        <path d="M-4,0h8" fill="none" stroke="white" stroke-width="1.5" pointer-events="none"/>
                </g>
                <g id="dirArrow">
                        <path fill="none" stroke="white" stroke-width="1.5" d="M0,-3.0v7 M-2.5,-0.5L0,-3.0L2.5,-0.5"/>
                </g>
               <g id="resetDef">
                       <use xlink:href="#rim2" fill="#404040">
                               <set attributeName="fill" to="#808080" begin="reset.mouseover" end="reset.mouseout"/>
                       </use>
               </g>
        </defs>

<script type="text/javascript">
var viewWidth = 898;
var viewHeight = 218;
var sectionId = 'dynsection-2';
</script>
<script xlink:href="svgpan.js"/>
<svg id="graph" class="graph">
<g id="viewport">
<title>Ioss::Decomposition::decompose_model</title>
<polygon fill="#ffffff" stroke="transparent" points="-4,4 -4,-214 894.2676,-214 894.2676,4 -4,4"/>
<!-- Node30 -->
<g id="node1" class="node">
<title>Node30</title>
<polygon fill="#bfbfbf" stroke="#000000" points="0,-37.5 0,-65.5 106.0537,-65.5 106.0537,-37.5 0,-37.5"/>
<text text-anchor="start" x="8" y="-53.5" font-family="Helvetica,sans-Serif" font-size="10.00" fill="#000000">Ioss::Decomposition</text>
<text text-anchor="middle" x="53.0269" y="-43.5" font-family="Helvetica,sans-Serif" font-size="10.00" fill="#000000">::decompose_model</text>
</g>
<!-- Node31 -->
<g id="node2" class="node">
<title>Node31</title>
<g id="a_node2"><a xlink:href="namespaceIoss.html#a4451dd64cac4d40bde7b92f15633f7c6" target="_top" xlink:title="Ioss::qsort">
<polygon fill="#ffffff" stroke="#000000" points="163.1768,-84.5 163.1768,-102.5 225.3047,-102.5 225.3047,-84.5 163.1768,-84.5"/>
<text text-anchor="middle" x="194.2407" y="-90.5" font-family="Helvetica,sans-Serif" font-size="10.00" fill="#000000">Ioss::qsort</text>
</a>
</g>
</g>
<!-- Node30&#45;&gt;Node31 -->
<g id="edge1" class="edge">
<title>Node30&#45;&gt;Node31</title>
<path fill="none" stroke="#191970" d="M100.4419,-65.6022C117.6938,-70.7333 137.0239,-76.4825 153.6332,-81.4225"/>
<polygon fill="#191970" stroke="#191970" points="152.9975,-84.8849 163.5804,-84.381 154.9931,-78.1753 152.9975,-84.8849"/>
</g>
<!-- Node37 -->
<g id="node8" class="node">
<title>Node37</title>
<g id="a_node8"><a xlink:href="classIoss_1_1Utils.html#ab28da0b4314af388924ebb706fc3c758" target="_top" xlink:title="Ioss::Utils::generate\l_index">
<polygon fill="#ffffff" stroke="#000000" points="142.0537,-37.5 142.0537,-65.5 246.4277,-65.5 246.4277,-37.5 142.0537,-37.5"/>
<text text-anchor="start" x="150.0537" y="-53.5" font-family="Helvetica,sans-Serif" font-size="10.00" fill="#000000">Ioss::Utils::generate</text>
<text text-anchor="middle" x="194.2407" y="-43.5" font-family="Helvetica,sans-Serif" font-size="10.00" fill="#000000">_index</text>
</a>
</g>
</g>
<!-- Node30&#45;&gt;Node37 -->
<g id="edge10" class="edge">
<title>Node30&#45;&gt;Node37</title>
<path fill="none" stroke="#191970" d="M106.4138,-51.5C114.6318,-51.5 123.1812,-51.5 131.5789,-51.5"/>
<polygon fill="#191970" stroke="#191970" points="131.7144,-55.0001 141.7143,-51.5 131.7143,-48.0001 131.7144,-55.0001"/>
</g>
<!-- Node38 -->
<g id="node9" class="node">
<title>Node38</title>
<g id="a_node9"><a xlink:href="classIoss_1_1Utils.html#a65686647761a8ee32e4a4d4e866d196f" target="_top" xlink:title="Ioss::Utils::clear">
<polygon fill="#ffffff" stroke="#000000" points="150.9551,-.5 150.9551,-18.5 237.5264,-18.5 237.5264,-.5 150.9551,-.5"/>
<text text-anchor="middle" x="194.2407" y="-6.5" font-family="Helvetica,sans-Serif" font-size="10.00" fill="#000000">Ioss::Utils::clear</text>
</a>
</g>
</g>
<!-- Node30&#45;&gt;Node38 -->
<g id="edge11" class="edge">
<title>Node30&#45;&gt;Node38</title>
<path fill="none" stroke="#191970" d="M100.4419,-37.3978C117.6938,-32.2667 137.0239,-26.5175 153.6332,-21.5775"/>
<polygon fill="#191970" stroke="#191970" points="154.9931,-24.8247 163.5804,-18.619 152.9975,-18.1151 154.9931,-24.8247"/>
</g>
<!-- Node32 -->
<g id="node3" class="node">
<title>Node32</title>
<g id="a_node3"><a xlink:href="namespaceanonymous__namespace_02Ioss__Sort_8h_03.html#aa3b461e0b551b096f4e75e5e0a58d203" target="_top" xlink:title="anonymous_namespace\l\{Ioss_Sort::h\}::qsort_int">
<polygon fill="#ffffff" stroke="#000000" points="282.4277,-100.5 282.4277,-128.5 407.3877,-128.5 407.3877,-100.5 282.4277,-100.5"/>
<text text-anchor="start" x="290.4277" y="-116.5" font-family="Helvetica,sans-Serif" font-size="10.00" fill="#000000">anonymous_namespace</text>
<text text-anchor="middle" x="344.9077" y="-106.5" font-family="Helvetica,sans-Serif" font-size="10.00" fill="#000000">{Ioss_Sort::h}::qsort_int</text>
</a>
</g>
</g>
<!-- Node31&#45;&gt;Node32 -->
<g id="edge2" class="edge">
<title>Node31&#45;&gt;Node32</title>
<path fill="none" stroke="#191970" d="M225.459,-97.8512C239.0925,-99.7514 255.7023,-102.0665 272.1483,-104.3588"/>
<polygon fill="#191970" stroke="#191970" points="271.9515,-107.8651 282.339,-105.7792 272.9179,-100.9321 271.9515,-107.8651"/>
</g>
<!-- Node36 -->
<g id="node7" class="node">
<title>Node36</title>
<g id="a_node7"><a xlink:href="namespaceanonymous__namespace_02Ioss__Sort_8h_03.html#a0a21a8688d9049b49aef875c2f462f12" target="_top" xlink:title="anonymous_namespace\l\{Ioss_Sort::h\}::isort_int">
<polygon fill="#ffffff" stroke="#000000" points="443.3877,-57.5 443.3877,-85.5 568.3477,-85.5 568.3477,-57.5 443.3877,-57.5"/>
<text text-anchor="start" x="451.3877" y="-73.5" font-family="Helvetica,sans-Serif" font-size="10.00" fill="#000000">anonymous_namespace</text>
<text text-anchor="middle" x="505.8677" y="-63.5" font-family="Helvetica,sans-Serif" font-size="10.00" fill="#000000">{Ioss_Sort::h}::isort_int</text>
</a>
</g>
</g>
<!-- Node31&#45;&gt;Node36 -->
<g id="edge8" class="edge">
<title>Node31&#45;&gt;Node36</title>
<path fill="none" stroke="#191970" d="M225.5475,-91.2898C273.6749,-87.8922 367.1535,-81.2928 432.893,-76.6518"/>
<polygon fill="#191970" stroke="#191970" points="433.4658,-80.1202 443.1944,-75.9246 432.9728,-73.1376 433.4658,-80.1202"/>
</g>
<!-- Node33 -->
<g id="node4" class="node">
<title>Node33</title>
<g id="a_node4"><a xlink:href="namespaceanonymous__namespace_02Ioss__Sort_8h_03.html#a2c0476317b6eaa0e6d843f73535aa797" target="_top" xlink:title="anonymous_namespace\l\{Ioss_Sort::h\}::median3">
<polygon fill="#ffffff" stroke="#000000" points="443.3877,-143.5 443.3877,-171.5 568.3477,-171.5 568.3477,-143.5 443.3877,-143.5"/>
<text text-anchor="start" x="451.3877" y="-159.5" font-family="Helvetica,sans-Serif" font-size="10.00" fill="#000000">anonymous_namespace</text>
<text text-anchor="middle" x="505.8677" y="-149.5" font-family="Helvetica,sans-Serif" font-size="10.00" fill="#000000">{Ioss_Sort::h}::median3</text>
</a>
</g>
</g>
<!-- Node32&#45;&gt;Node33 -->
<g id="edge3" class="edge">
<title>Node32&#45;&gt;Node33</title>
<path fill="none" stroke="#191970" d="M397.612,-128.5798C412.278,-132.4978 428.3467,-136.7905 443.5101,-140.8413"/>
<polygon fill="#191970" stroke="#191970" points="442.7554,-144.2624 453.32,-143.462 444.5622,-137.4996 442.7554,-144.2624"/>
</g>
<!-- Node35 -->
<g id="node6" class="node">
<title>Node35</title>
<g id="a_node6"><a xlink:href="namespaceanonymous__namespace_02Ioss__Sort_8h_03.html#a6794cfe69325b5f641920cbdb77abd74" target="_top" xlink:title="anonymous_namespace\l\{Ioss_Sort::h\}::SWAP">
<polygon fill="#ffffff" stroke="#000000" points="765.3076,-119.5 765.3076,-147.5 890.2676,-147.5 890.2676,-119.5 765.3076,-119.5"/>
<text text-anchor="start" x="773.3076" y="-135.5" font-family="Helvetica,sans-Serif" font-size="10.00" fill="#000000">anonymous_namespace</text>
<text text-anchor="middle" x="827.7876" y="-125.5" font-family="Helvetica,sans-Serif" font-size="10.00" fill="#000000">{Ioss_Sort::h}::SWAP</text>
</a>
</g>
</g>
<!-- Node32&#45;&gt;Node35 -->
<g id="edge7" class="edge">
<title>Node32&#45;&gt;Node35</title>
<path fill="none" stroke="#191970" d="M407.5408,-116.9644C496.9169,-120.4811 660.6649,-126.9242 755.2129,-130.6444"/>
<polygon fill="#191970" stroke="#191970" points="755.1356,-134.144 765.2655,-131.0399 755.4109,-127.1494 755.1356,-134.144"/>
</g>
<!-- Node34 -->
<g id="node5" class="node">
<title>Node34</title>
<g id="a_node5"><a xlink:href="namespaceanonymous__namespace_02Ioss__Sort_8h_03.html#a175d47c2fa7e5cfa0eaebb76416b60fb" target="_top" xlink:title="anonymous_namespace\l\{Ioss_Sort::h\}::order3">
<polygon fill="#ffffff" stroke="#000000" points="604.3477,-181.5 604.3477,-209.5 729.3076,-209.5 729.3076,-181.5 604.3477,-181.5"/>
<text text-anchor="start" x="612.3477" y="-197.5" font-family="Helvetica,sans-Serif" font-size="10.00" fill="#000000">anonymous_namespace</text>
<text text-anchor="middle" x="666.8276" y="-187.5" font-family="Helvetica,sans-Serif" font-size="10.00" fill="#000000">{Ioss_Sort::h}::order3</text>
</a>
</g>
</g>
<!-- Node33&#45;&gt;Node34 -->
<g id="edge4" class="edge">
<title>Node33&#45;&gt;Node34</title>
<path fill="none" stroke="#191970" d="M565.3459,-171.5418C575.8363,-174.0184 586.8385,-176.6159 597.5693,-179.1492"/>
<polygon fill="#191970" stroke="#191970" points="596.7886,-182.5611 607.3253,-181.4525 598.3971,-175.7484 596.7886,-182.5611"/>
</g>
<!-- Node33&#45;&gt;Node35 -->
<g id="edge6" class="edge">
<title>Node33&#45;&gt;Node35</title>
<path fill="none" stroke="#191970" d="M568.7013,-152.8156C622.1008,-148.8345 698.8005,-143.1163 754.8895,-138.9347"/>
<polygon fill="#191970" stroke="#191970" points="755.4004,-142.4065 765.1125,-138.1726 754.8799,-135.4258 755.4004,-142.4065"/>
</g>
<!-- Node34&#45;&gt;Node35 -->
<g id="edge5" class="edge">
<title>Node34&#45;&gt;Node35</title>
<path fill="none" stroke="#191970" d="M703.3519,-181.4312C726.6071,-172.4736 756.9254,-160.7953 781.8131,-151.2089"/>
<polygon fill="#191970" stroke="#191970" points="783.3342,-154.3737 791.4078,-147.5131 780.8181,-147.8415 783.3342,-154.3737"/>
</g>
<!-- Node36&#45;&gt;Node35 -->
<g id="edge9" class="edge">
<title>Node36&#45;&gt;Node35</title>
<path fill="none" stroke="#191970" d="M568.5675,-76.3556C613.6758,-80.6425 675.7483,-88.1739 729.3076,-100.5 746.6245,-104.4853 765.2025,-110.2924 781.5045,-115.9282"/>
<polygon fill="#191970" stroke="#191970" points="780.7343,-119.368 791.3291,-119.3974 783.0651,-112.7674 780.7343,-119.368"/>
</g>
</g>
</svg>
        <g id="navigator" transform="translate(0 0)" fill="#404254">
                <rect fill="#f2f5e9" fill-opacity="0.5" stroke="#606060" stroke-width=".5" x="0" y="0" width="60" height="60"/>
                <use id="zoomplus" xlink:href="#zoomPlus" x="17" y="9" onmousedown="handleZoom(evt,'in')"/>
                <use id="zoomminus" xlink:href="#zoomMin" x="42" y="9" onmousedown="handleZoom(evt,'out')"/>
                <use id="reset" xlink:href="#resetDef" x="30" y="36" onmousedown="handleReset()"/>
                <g id="arrowUp" xlink:href="#dirArrow" transform="translate(30 24)" onmousedown="handlePan(0,-1)">
                  <use xlink:href="#rim" fill="#404040">
                        <set attributeName="fill" to="#808080" begin="arrowUp.mouseover" end="arrowUp.mouseout"/>
                  </use>
                  <path fill="none" stroke="white" stroke-width="1.5" d="M0,-3.0v7 M-2.5,-0.5L0,-3.0L2.5,-0.5"/>
                </g>
                <g id="arrowRight" xlink:href="#dirArrow" transform="rotate(90) translate(36 -43)" onmousedown="handlePan(1,0)">
                  <use xlink:href="#rim" fill="#404040">
                        <set attributeName="fill" to="#808080" begin="arrowRight.mouseover" end="arrowRight.mouseout"/>
                  </use>
                  <path fill="none" stroke="white" stroke-width="1.5" d="M0,-3.0v7 M-2.5,-0.5L0,-3.0L2.5,-0.5"/>
                </g>
                <g id="arrowDown" xlink:href="#dirArrow" transform="rotate(180) translate(-30 -48)" onmousedown="handlePan(0,1)">
                  <use xlink:href="#rim" fill="#404040">
                        <set attributeName="fill" to="#808080" begin="arrowDown.mouseover" end="arrowDown.mouseout"/>
                  </use>
                  <path fill="none" stroke="white" stroke-width="1.5" d="M0,-3.0v7 M-2.5,-0.5L0,-3.0L2.5,-0.5"/>
                </g>
                <g id="arrowLeft" xlink:href="#dirArrow" transform="rotate(270) translate(-36 17)" onmousedown="handlePan(-1,0)">
                  <use xlink:href="#rim" fill="#404040">
                        <set attributeName="fill" to="#808080" begin="arrowLeft.mouseover" end="arrowLeft.mouseout"/>
                  </use>
                  <path fill="none" stroke="white" stroke-width="1.5" d="M0,-3.0v7 M-2.5,-0.5L0,-3.0L2.5,-0.5"/>
                </g>
        </g>
        <svg viewBox="0 0 15 15" width="100%" height="30px" preserveAspectRatio="xMaxYMin meet">
         <g id="arrow_out" transform="scale(0.3 0.3)">
          <a xlink:href="classIoss_1_1Decomposition_a7f5d07326e25987b083d27bfff129c6b_cgraph_org.svg" target="_base">
           <rect id="button" ry="5" rx="5" y="6" x="6" height="38" width="38"
                fill="#f2f5e9" fill-opacity="0.5" stroke="#606060" stroke-width="1.0"/>
           <path id="arrow"
             d="M 11.500037,31.436501 C 11.940474,20.09759 22.043105,11.32322 32.158766,21.979434 L 37.068811,17.246167 C 37.068811,17.246167 37.088388,32 37.088388,32 L 22.160133,31.978069 C 22.160133,31.978069 26.997745,27.140456 26.997745,27.140456 C 18.528582,18.264221 13.291696,25.230495 11.500037,31.436501 z"
             style="fill:#404040;"/>
          </a>
         </g>
        </svg>
</svg>
