<?xml version="1.0" encoding="UTF-8" standalone="no"?>
<!DOCTYPE svg PUBLIC "-//W3C//DTD SVG 1.1//EN"
 "http://www.w3.org/Graphics/SVG/1.1/DTD/svg11.dtd">
<!-- Generated by graphviz version 2.40.1 (20161225.0304)
 -->
<!-- Title: tsl::robin_map::get_allocator Pages: 1 -->
<svg width="276pt" height="37pt"
 viewBox="0.00 0.00 276.12 37.00" xmlns="http://www.w3.org/2000/svg" xmlns:xlink="http://www.w3.org/1999/xlink">
<g id="graph0" class="graph" transform="scale(1 1) rotate(0) translate(4 33)">
<title>tsl::robin_map::get_allocator</title>
<polygon fill="#ffffff" stroke="transparent" points="-4,4 -4,-33 272.1221,-33 272.1221,4 -4,4"/>
<!-- Node162 -->
<g id="node1" class="node">
<title>Node162</title>
<polygon fill="#bfbfbf" stroke="#000000" points="0,-.5 0,-28.5 98.2656,-28.5 98.2656,-.5 0,-.5"/>
<text text-anchor="start" x="8" y="-16.5" font-family="Helvetica,sans-Serif" font-size="10.00" fill="#000000">tsl::robin_map::get</text>
<text text-anchor="middle" x="49.1328" y="-6.5" font-family="Helvetica,sans-Serif" font-size="10.00" fill="#000000">_allocator</text>
</g>
<!-- Node163 -->
<g id="node2" class="node">
<title>Node163</title>
<g id="a_node2"><a xlink:href="classtsl_1_1detail__robin__hash_1_1robin__hash.html#a6d03c1998dbafb3bc2d7c63027f0b159" target="_top" xlink:title="tsl::detail_robin_hash\l::robin_hash::get_allocator">
<polygon fill="#ffffff" stroke="#000000" points="134.2656,-.5 134.2656,-28.5 268.1221,-28.5 268.1221,-.5 134.2656,-.5"/>
<text text-anchor="start" x="142.2656" y="-16.5" font-family="Helvetica,sans-Serif" font-size="10.00" fill="#000000">tsl::detail_robin_hash</text>
<text text-anchor="middle" x="201.1938" y="-6.5" font-family="Helvetica,sans-Serif" font-size="10.00" fill="#000000">::robin_hash::get_allocator</text>
</a>
</g>
</g>
<!-- Node162&#45;&gt;Node163 -->
<g id="edge1" class="edge">
<title>Node162&#45;&gt;Node163</title>
<path fill="none" stroke="#191970" d="M98.5027,-14.5C106.6679,-14.5 115.3029,-14.5 123.9587,-14.5"/>
<polygon fill="#191970" stroke="#191970" points="124.1026,-18.0001 134.1026,-14.5 124.1026,-11.0001 124.1026,-18.0001"/>
</g>
</g>
</svg>
