<?xml version="1.0" encoding="UTF-8" standalone="no"?>
<!DOCTYPE svg PUBLIC "-//W3C//DTD SVG 1.1//EN"
 "http://www.w3.org/Graphics/SVG/1.1/DTD/svg11.dtd">
<!-- Generated by graphviz version 2.40.1 (20161225.0304)
 -->
<!-- Title: Ioss::Region::get_commset Pages: 1 -->
<svg width="631pt" height="107pt"
 viewBox="0.00 0.00 630.81 107.00" xmlns="http://www.w3.org/2000/svg" xmlns:xlink="http://www.w3.org/1999/xlink">
<g id="graph0" class="graph" transform="scale(1 1) rotate(0) translate(4 103)">
<title>Ioss::Region::get_commset</title>
<polygon fill="#ffffff" stroke="transparent" points="-4,4 -4,-103 626.8105,-103 626.8105,4 -4,4"/>
<!-- Node1213 -->
<g id="node1" class="node">
<title>Node1213</title>
<polygon fill="#bfbfbf" stroke="#000000" points="0,-51.5 0,-69.5 137.167,-69.5 137.167,-51.5 0,-51.5"/>
<text text-anchor="middle" x="68.5835" y="-57.5" font-family="Helvetica,sans-Serif" font-size="10.00" fill="#000000">Ioss::Region::get_commset</text>
</g>
<!-- Node1214 -->
<g id="node2" class="node">
<title>Node1214</title>
<g id="a_node2"><a xlink:href="classIoss_1_1Region.html#a83e8885c1191dcd9200e1b0954ba0e10" target="_top" xlink:title="Ioss::Region::get_alias__">
<polygon fill="#ffffff" stroke="#000000" points="173.167,-72.5 173.167,-90.5 301.4619,-90.5 301.4619,-72.5 173.167,-72.5"/>
<text text-anchor="middle" x="237.3145" y="-78.5" font-family="Helvetica,sans-Serif" font-size="10.00" fill="#000000">Ioss::Region::get_alias__</text>
</a>
</g>
</g>
<!-- Node1213&#45;&gt;Node1214 -->
<g id="edge1" class="edge">
<title>Node1213&#45;&gt;Node1214</title>
<path fill="none" stroke="#191970" d="M137.2128,-69.0415C145.7379,-70.1025 154.4853,-71.1912 163.0898,-72.2621"/>
<polygon fill="#191970" stroke="#191970" points="162.7476,-75.7464 173.1034,-73.5084 163.6122,-68.8 162.7476,-75.7464"/>
</g>
<!-- Node1216 -->
<g id="node4" class="node">
<title>Node1216</title>
<g id="a_node4"><a xlink:href="classIoss_1_1Utils.html#a1ec73edea0e845665ac385f605f4aa99" target="_top" xlink:title="Ioss::Utils::hash">
<polygon fill="#ffffff" stroke="#000000" points="194.0239,-33.5 194.0239,-51.5 280.605,-51.5 280.605,-33.5 194.0239,-33.5"/>
<text text-anchor="middle" x="237.3145" y="-39.5" font-family="Helvetica,sans-Serif" font-size="10.00" fill="#000000">Ioss::Utils::hash</text>
</a>
</g>
</g>
<!-- Node1213&#45;&gt;Node1216 -->
<g id="edge3" class="edge">
<title>Node1213&#45;&gt;Node1216</title>
<path fill="none" stroke="#191970" d="M137.2128,-53.1787C152.7804,-51.518 169.0891,-49.7782 183.9161,-48.1965"/>
<polygon fill="#191970" stroke="#191970" points="184.3446,-51.6707 193.9168,-47.1296 183.602,-44.7102 184.3446,-51.6707"/>
</g>
<!-- Node1215 -->
<g id="node3" class="node">
<title>Node1215</title>
<g id="a_node3"><a xlink:href="namespaceanonymous__namespace_02Ioss__Region_8C_03.html#acd06ef87eff981abc4c9d7cfb0a4f11d" target="_top" xlink:title="anonymous_namespace\l\{Ioss_Region::C\}::uppercase">
<polygon fill="#ffffff" stroke="#000000" points="337.4619,-70.5 337.4619,-98.5 480.7666,-98.5 480.7666,-70.5 337.4619,-70.5"/>
<text text-anchor="start" x="345.4619" y="-86.5" font-family="Helvetica,sans-Serif" font-size="10.00" fill="#000000">anonymous_namespace</text>
<text text-anchor="middle" x="409.1143" y="-76.5" font-family="Helvetica,sans-Serif" font-size="10.00" fill="#000000">{Ioss_Region::C}::uppercase</text>
</a>
</g>
</g>
<!-- Node1214&#45;&gt;Node1215 -->
<g id="edge2" class="edge">
<title>Node1214&#45;&gt;Node1215</title>
<path fill="none" stroke="#191970" d="M301.7751,-82.6256C310.1241,-82.7714 318.7617,-82.9222 327.3443,-83.0721"/>
<polygon fill="#191970" stroke="#191970" points="327.3139,-86.572 337.3735,-83.2472 327.4361,-79.5731 327.3139,-86.572"/>
</g>
<!-- Node1217 -->
<g id="node5" class="node">
<title>Node1217</title>
<g id="a_node5"><a xlink:href="namespaceanonymous__namespace_02io__info_8C_03.html#ac76aa36231a3291b803cc8e620fce319" target="_top" xlink:title="anonymous_namespace\l\{io_info::C\}::name">
<polygon fill="#ffffff" stroke="#000000" points="346.6343,-23.5 346.6343,-51.5 471.5942,-51.5 471.5942,-23.5 346.6343,-23.5"/>
<text text-anchor="start" x="354.6343" y="-39.5" font-family="Helvetica,sans-Serif" font-size="10.00" fill="#000000">anonymous_namespace</text>
<text text-anchor="middle" x="409.1143" y="-29.5" font-family="Helvetica,sans-Serif" font-size="10.00" fill="#000000">{io_info::C}::name</text>
</a>
</g>
</g>
<!-- Node1216&#45;&gt;Node1217 -->
<g id="edge4" class="edge">
<title>Node1216&#45;&gt;Node1217</title>
<path fill="none" stroke="#191970" d="M280.6668,-41.2383C297.603,-40.7454 317.4912,-40.1666 336.4914,-39.6136"/>
<polygon fill="#191970" stroke="#191970" points="336.7335,-43.1081 346.6274,-39.3186 336.5298,-36.1111 336.7335,-43.1081"/>
</g>
<!-- Node1218 -->
<g id="node6" class="node">
<title>Node1218</title>
<g id="a_node6"><a xlink:href="classIoss_1_1GroupingEntity.html#adf92c4256dc89b729f4492642bc4d745" target="_top" xlink:title="Get the name of the particular type of entity. ">
<polygon fill="#ffffff" stroke="#000000" points="516.7666,-47.5 516.7666,-75.5 622.8105,-75.5 622.8105,-47.5 516.7666,-47.5"/>
<text text-anchor="start" x="524.7666" y="-63.5" font-family="Helvetica,sans-Serif" font-size="10.00" fill="#000000">Ioss::GroupingEntity</text>
<text text-anchor="middle" x="569.7886" y="-53.5" font-family="Helvetica,sans-Serif" font-size="10.00" fill="#000000">::type_string</text>
</a>
</g>
</g>
<!-- Node1217&#45;&gt;Node1218 -->
<g id="edge5" class="edge">
<title>Node1217&#45;&gt;Node1218</title>
<path fill="none" stroke="#191970" d="M471.6952,-46.8477C483.2128,-48.5681 495.2428,-50.3651 506.7731,-52.0873"/>
<polygon fill="#191970" stroke="#191970" points="506.3443,-55.562 516.7516,-53.5778 507.3785,-48.6389 506.3443,-55.562"/>
</g>
<!-- Node1219 -->
<g id="node7" class="node">
<title>Node1219</title>
<g id="a_node7"><a xlink:href="classIoss_1_1GroupingEntity.html#a50d4053f49c8c3205e05d939fdc9fbc5" target="_top" xlink:title="Get name of entity. ">
<polygon fill="#ffffff" stroke="#000000" points="516.7666,-.5 516.7666,-28.5 622.8105,-28.5 622.8105,-.5 516.7666,-.5"/>
<text text-anchor="start" x="524.7666" y="-16.5" font-family="Helvetica,sans-Serif" font-size="10.00" fill="#000000">Ioss::GroupingEntity</text>
<text text-anchor="middle" x="569.7886" y="-6.5" font-family="Helvetica,sans-Serif" font-size="10.00" fill="#000000">::name</text>
</a>
</g>
</g>
<!-- Node1217&#45;&gt;Node1219 -->
<g id="edge6" class="edge">
<title>Node1217&#45;&gt;Node1219</title>
<path fill="none" stroke="#191970" d="M471.6952,-28.5417C483.2128,-26.893 495.2428,-25.171 506.7731,-23.5205"/>
<polygon fill="#191970" stroke="#191970" points="507.3485,-26.9739 516.7516,-22.0921 506.3566,-20.0445 507.3485,-26.9739"/>
</g>
</g>
</svg>
