<?xml version="1.0" encoding="UTF-8" standalone="no"?>
<!DOCTYPE svg PUBLIC "-//W3C//DTD SVG 1.1//EN"
 "http://www.w3.org/Graphics/SVG/1.1/DTD/svg11.dtd">
<!-- Generated by graphviz version 2.42.3 (20191010.1750)
 -->
<!-- Title: Iocgns::DecompositionData&lt; INT &gt; Pages: 1 -->
<svg width="179pt" height="168pt"
 viewBox="0.00 0.00 178.59 168.00" xmlns="http://www.w3.org/2000/svg" xmlns:xlink="http://www.w3.org/1999/xlink">
<g id="graph0" class="graph" transform="scale(1 1) rotate(0) translate(4 164)">
<title>Iocgns::DecompositionData&lt; INT &gt;</title>
<polygon fill="white" stroke="transparent" points="-4,4 -4,-164 174.59,-164 174.59,4 -4,4"/>
<!-- Node1 -->
<g id="node1" class="node">
<title>Node1</title>
<g id="a_node1"><a xlink:title=" ">
<polygon fill="#bfbfbf" stroke="black" points="11.4,-0.5 11.4,-28.5 149.68,-28.5 149.68,-0.5 11.4,-0.5"/>
<text text-anchor="start" x="19.4" y="-16.5" font-family="Helvetica,sans-Serif" font-size="10.00">Iocgns::DecompositionData</text>
<text text-anchor="middle" x="80.54" y="-6.5" font-family="Helvetica,sans-Serif" font-size="10.00">&lt; INT &gt;</text>
</a>
</g>
</g>
<!-- Node2 -->
<g id="node2" class="node">
<title>Node2</title>
<g id="a_node2"><a xlink:href="classIocgns_1_1DecompositionDataBase.html" target="_top" xlink:title=" ">
<polygon fill="white" stroke="black" points="0,-66.5 0,-84.5 161.08,-84.5 161.08,-66.5 0,-66.5"/>
<text text-anchor="middle" x="80.54" y="-72.5" font-family="Helvetica,sans-Serif" font-size="10.00">Iocgns::DecompositionDataBase</text>
</a>
</g>
</g>
<!-- Node2&#45;&gt;Node1 -->
<g id="edge1" class="edge">
<title>Node2&#45;&gt;Node1</title>
<path fill="none" stroke="midnightblue" d="M80.54,-56.15C80.54,-47.24 80.54,-36.72 80.54,-28.62"/>
<polygon fill="midnightblue" stroke="midnightblue" points="77.04,-56.3 80.54,-66.3 84.04,-56.3 77.04,-56.3"/>
</g>
<!-- Node3 -->
<g id="node3" class="node">
<title>Node3</title>
<g id="a_node3"><a xlink:href="classtsl_1_1robin__map.html" target="_top" xlink:title=" ">
<polygon fill="white" stroke="black" points="22.65,-131.5 22.65,-159.5 138.42,-159.5 138.42,-131.5 22.65,-131.5"/>
<text text-anchor="start" x="30.65" y="-147.5" font-family="Helvetica,sans-Serif" font-size="10.00">tsl::robin_map&lt; cgsize</text>
<text text-anchor="middle" x="80.54" y="-137.5" font-family="Helvetica,sans-Serif" font-size="10.00">_t, cgsize_t &gt;</text>
</a>
</g>
</g>
<!-- Node3&#45;&gt;Node2 -->
<g id="edge2" class="edge">
<title>Node3&#45;&gt;Node2</title>
<path fill="none" stroke="#9a32cd" stroke-dasharray="5,2" d="M80.54,-121.1C80.54,-108.55 80.54,-93.85 80.54,-84.86"/>
<polygon fill="#9a32cd" stroke="#9a32cd" points="77.04,-121.39 80.54,-131.39 84.04,-121.39 77.04,-121.39"/>
<text text-anchor="middle" x="125.57" y="-105" font-family="Helvetica,sans-Serif" font-size="10.00"> m_zoneSharedMap</text>
</g>
</g>
</svg>
