<?xml version="1.0" encoding="UTF-8" standalone="no"?>
<!DOCTYPE svg PUBLIC "-//W3C//DTD SVG 1.1//EN"
 "http://www.w3.org/Graphics/SVG/1.1/DTD/svg11.dtd">
<!-- Generated by graphviz version 2.40.1 (20161225.0304)
 -->
<!-- Title: Ioex::DatabaseIO::put_qa Pages: 1 -->
<svg width="294pt" height="84pt"
 viewBox="0.00 0.00 294.46 84.00" xmlns="http://www.w3.org/2000/svg" xmlns:xlink="http://www.w3.org/1999/xlink">
<g id="graph0" class="graph" transform="scale(1 1) rotate(0) translate(4 80)">
<title>Ioex::DatabaseIO::put_qa</title>
<polygon fill="#ffffff" stroke="transparent" points="-4,4 -4,-80 290.457,-80 290.457,4 -4,4"/>
<!-- Node1438 -->
<g id="node1" class="node">
<title>Node1438</title>
<polygon fill="#bfbfbf" stroke="#000000" points="0,-28.5 0,-46.5 129.9648,-46.5 129.9648,-28.5 0,-28.5"/>
<text text-anchor="middle" x="64.9824" y="-34.5" font-family="Helvetica,sans-Serif" font-size="10.00" fill="#000000">Ioex::DatabaseIO::put_qa</text>
</g>
<!-- Node1439 -->
<g id="node2" class="node">
<title>Node1439</title>
<g id="a_node2"><a xlink:href="$classIofx_1_1DatabaseIO.html#a470d58e04b304ab812b02b76d4336dec" xlink:title="Iofx::DatabaseIO::write\l_meta_data">
<polygon fill="#ffffff" stroke="#000000" points="167.3564,-47.5 167.3564,-75.5 285.0654,-75.5 285.0654,-47.5 167.3564,-47.5"/>
<text text-anchor="start" x="175.3564" y="-63.5" font-family="Helvetica,sans-Serif" font-size="10.00" fill="#000000">Iofx::DatabaseIO::write</text>
<text text-anchor="middle" x="226.2109" y="-53.5" font-family="Helvetica,sans-Serif" font-size="10.00" fill="#000000">_meta_data</text>
</a>
</g>
</g>
<!-- Node1438&#45;&gt;Node1439 -->
<g id="edge1" class="edge">
<title>Node1438&#45;&gt;Node1439</title>
<path fill="none" stroke="#191970" d="M135.5304,-48.0016C146.1172,-49.5775 156.9392,-51.1884 167.2507,-52.7233"/>
<polygon fill="#191970" stroke="#191970" points="135.883,-44.5156 125.4767,-46.505 134.8523,-51.4393 135.883,-44.5156"/>
</g>
<!-- Node1440 -->
<g id="node3" class="node">
<title>Node1440</title>
<g id="a_node3"><a xlink:href="$classIopx_1_1DatabaseIO.html#af11d9908f7f47505b3c53e24895acf49" xlink:title="Iopx::DatabaseIO::write\l_meta_data">
<polygon fill="#ffffff" stroke="#000000" points="165.9648,-.5 165.9648,-28.5 286.457,-28.5 286.457,-.5 165.9648,-.5"/>
<text text-anchor="start" x="173.9648" y="-16.5" font-family="Helvetica,sans-Serif" font-size="10.00" fill="#000000">Iopx::DatabaseIO::write</text>
<text text-anchor="middle" x="226.2109" y="-6.5" font-family="Helvetica,sans-Serif" font-size="10.00" fill="#000000">_meta_data</text>
</a>
</g>
</g>
<!-- Node1438&#45;&gt;Node1440 -->
<g id="edge2" class="edge">
<title>Node1438&#45;&gt;Node1440</title>
<path fill="none" stroke="#191970" d="M138.1812,-27.0579C147.41,-25.7413 156.7695,-24.4061 165.7705,-23.1221"/>
<polygon fill="#191970" stroke="#191970" points="137.6469,-23.5985 128.2415,-28.4758 138.6355,-30.5284 137.6469,-23.5985"/>
</g>
</g>
</svg>
