<?xml version="1.0" encoding="UTF-8" standalone="no"?>
<!DOCTYPE svg PUBLIC "-//W3C//DTD SVG 1.1//EN"
 "http://www.w3.org/Graphics/SVG/1.1/DTD/svg11.dtd">
<!-- Generated by graphviz version 2.40.1 (20161225.0304)
 -->
<!-- Title: Ioex::DatabaseIO::internal_write_results_metadata Pages: 1 -->
<svg width="956pt" height="533pt"
 viewBox="0.00 0.00 955.52 533.26" xmlns="http://www.w3.org/2000/svg" xmlns:xlink="http://www.w3.org/1999/xlink">
<g id="graph0" class="graph" transform="scale(1 1) rotate(0) translate(4 529.2558)">
<title>Ioex::DatabaseIO::internal_write_results_metadata</title>
<polygon fill="#ffffff" stroke="transparent" points="-4,4 -4,-529.2558 951.5234,-529.2558 951.5234,4 -4,4"/>
<!-- Node1151 -->
<g id="node1" class="node">
<title>Node1151</title>
<polygon fill="#bfbfbf" stroke="#000000" points="0,-250.7558 0,-278.7558 132.1768,-278.7558 132.1768,-250.7558 0,-250.7558"/>
<text text-anchor="start" x="8" y="-266.7558" font-family="Helvetica,sans-Serif" font-size="10.00" fill="#000000">Ioex::DatabaseIO::internal</text>
<text text-anchor="middle" x="66.0884" y="-256.7558" font-family="Helvetica,sans-Serif" font-size="10.00" fill="#000000">_write_results_metadata</text>
</g>
<!-- Node1152 -->
<g id="node2" class="node">
<title>Node1152</title>
<g id="a_node2"><a xlink:href="classIoex_1_1DatabaseIO.html#ab811862f9cc9e2d6660532318749e946" target="_top" xlink:title="Ioex::DatabaseIO::gather\l_names">
<polygon fill="#ffffff" stroke="#000000" points="183.4697,-250.7558 183.4697,-278.7558 311.2031,-278.7558 311.2031,-250.7558 183.4697,-250.7558"/>
<text text-anchor="start" x="191.4697" y="-266.7558" font-family="Helvetica,sans-Serif" font-size="10.00" fill="#000000">Ioex::DatabaseIO::gather</text>
<text text-anchor="middle" x="247.3364" y="-256.7558" font-family="Helvetica,sans-Serif" font-size="10.00" fill="#000000">_names</text>
</a>
</g>
</g>
<!-- Node1151&#45;&gt;Node1152 -->
<g id="edge1" class="edge">
<title>Node1151&#45;&gt;Node1152</title>
<path fill="none" stroke="#191970" d="M132.2924,-264.7558C145.5888,-264.7558 159.643,-264.7558 173.189,-264.7558"/>
<polygon fill="#191970" stroke="#191970" points="173.4277,-268.2559 183.4277,-264.7558 173.4276,-261.2559 173.4277,-268.2559"/>
</g>
<!-- Node1165 -->
<g id="node15" class="node">
<title>Node1165</title>
<g id="a_node15"><a xlink:href="classIoss_1_1DatabaseIO.html#aac344d090f98ae0082547ea7d8e0db7e" target="_top" xlink:title="Ioss::DatabaseIO::get\l_field_separator">
<polygon fill="#ffffff" stroke="#000000" points="366.6685,-496.7558 366.6685,-524.7558 479.3872,-524.7558 479.3872,-496.7558 366.6685,-496.7558"/>
<text text-anchor="start" x="374.6685" y="-512.7558" font-family="Helvetica,sans-Serif" font-size="10.00" fill="#000000">Ioss::DatabaseIO::get</text>
<text text-anchor="middle" x="423.0278" y="-502.7558" font-family="Helvetica,sans-Serif" font-size="10.00" fill="#000000">_field_separator</text>
</a>
</g>
</g>
<!-- Node1151&#45;&gt;Node1165 -->
<g id="edge28" class="edge">
<title>Node1151&#45;&gt;Node1165</title>
<path fill="none" stroke="#191970" d="M83.0127,-278.8992C127.1294,-315.3686 250.0418,-414.4449 362.4961,-481.7558 368.4749,-485.3345 374.9632,-488.8236 381.3969,-492.0697"/>
<polygon fill="#191970" stroke="#191970" points="380.1978,-495.3796 390.7181,-496.634 383.2762,-489.0928 380.1978,-495.3796"/>
</g>
<!-- Node1167 -->
<g id="node17" class="node">
<title>Node1167</title>
<g id="a_node17"><a xlink:href="namespaceIoex_1_1anonymous__namespace_02Ioex__DatabaseIO_8C_03.html#a381373cd0a1749f01a75f96888ea059c" target="_top" xlink:title="Ioex::anonymous_namespace\l\{Ioex_DatabaseIO::C\}::generate\l_block_truth_table">
<polygon fill="#ffffff" stroke="#000000" points="168.1768,-68.7558 168.1768,-106.7558 326.4961,-106.7558 326.4961,-68.7558 168.1768,-68.7558"/>
<text text-anchor="start" x="176.1768" y="-94.7558" font-family="Helvetica,sans-Serif" font-size="10.00" fill="#000000">Ioex::anonymous_namespace</text>
<text text-anchor="start" x="176.1768" y="-84.7558" font-family="Helvetica,sans-Serif" font-size="10.00" fill="#000000">{Ioex_DatabaseIO::C}::generate</text>
<text text-anchor="middle" x="247.3364" y="-74.7558" font-family="Helvetica,sans-Serif" font-size="10.00" fill="#000000">_block_truth_table</text>
</a>
</g>
</g>
<!-- Node1151&#45;&gt;Node1167 -->
<g id="edge22" class="edge">
<title>Node1151&#45;&gt;Node1167</title>
<path fill="none" stroke="#191970" d="M80.6143,-250.5704C110.9341,-220.9612 181.3604,-152.1856 220.2787,-114.1794"/>
<polygon fill="#191970" stroke="#191970" points="222.912,-116.4999 227.621,-107.0091 218.0212,-111.4918 222.912,-116.4999"/>
</g>
<!-- Node1153 -->
<g id="node3" class="node">
<title>Node1153</title>
<g id="a_node3"><a xlink:href="classIoss_1_1GroupingEntity.html#a92f4d388db4e0d10b1be6ac7fa69af4a" target="_top" xlink:title="Get the names of all fields in the entity&#39;s field manager. ">
<polygon fill="#ffffff" stroke="#000000" points="370.0059,-340.7558 370.0059,-368.7558 476.0498,-368.7558 476.0498,-340.7558 370.0059,-340.7558"/>
<text text-anchor="start" x="378.0059" y="-356.7558" font-family="Helvetica,sans-Serif" font-size="10.00" fill="#000000">Ioss::GroupingEntity</text>
<text text-anchor="middle" x="423.0278" y="-346.7558" font-family="Helvetica,sans-Serif" font-size="10.00" fill="#000000">::field_describe</text>
</a>
</g>
</g>
<!-- Node1152&#45;&gt;Node1153 -->
<g id="edge2" class="edge">
<title>Node1152&#45;&gt;Node1153</title>
<path fill="none" stroke="#191970" d="M269.2558,-278.9648C292.0006,-293.3577 328.8831,-315.7247 362.4961,-331.7558 366.1031,-333.4761 369.8754,-335.1621 373.6977,-336.7902"/>
<polygon fill="#191970" stroke="#191970" points="372.6559,-340.1458 383.236,-340.7043 375.3134,-333.6699 372.6559,-340.1458"/>
</g>
<!-- Node1154 -->
<g id="node4" class="node">
<title>Node1154</title>
<g id="a_node4"><a xlink:href="namespaceIoex.html#afd98f843b2c93b81b9b61ee20cc7b90e" target="_top" xlink:title="Ioex::find_displacement\l_field">
<polygon fill="#ffffff" stroke="#000000" points="362.4961,-293.7558 362.4961,-321.7558 483.5596,-321.7558 483.5596,-293.7558 362.4961,-293.7558"/>
<text text-anchor="start" x="370.4961" y="-309.7558" font-family="Helvetica,sans-Serif" font-size="10.00" fill="#000000">Ioex::find_displacement</text>
<text text-anchor="middle" x="423.0278" y="-299.7558" font-family="Helvetica,sans-Serif" font-size="10.00" fill="#000000">_field</text>
</a>
</g>
</g>
<!-- Node1152&#45;&gt;Node1154 -->
<g id="edge3" class="edge">
<title>Node1152&#45;&gt;Node1154</title>
<path fill="none" stroke="#191970" d="M304.8644,-278.8356C321.1776,-282.8283 339.0807,-287.21 355.9078,-291.3284"/>
<polygon fill="#191970" stroke="#191970" points="355.1255,-294.7401 365.6709,-293.7179 356.7896,-287.9408 355.1255,-294.7401"/>
</g>
<!-- Node1155 -->
<g id="node5" class="node">
<title>Node1155</title>
<g id="a_node5"><a xlink:href="namespaceanonymous__namespace_02io__info_8C_03.html#ac76aa36231a3291b803cc8e620fce319" target="_top" xlink:title="anonymous_namespace\l\{io_info::C\}::name">
<polygon fill="#ffffff" stroke="#000000" points="680.5195,-302.7558 680.5195,-330.7558 805.4795,-330.7558 805.4795,-302.7558 680.5195,-302.7558"/>
<text text-anchor="start" x="688.5195" y="-318.7558" font-family="Helvetica,sans-Serif" font-size="10.00" fill="#000000">anonymous_namespace</text>
<text text-anchor="middle" x="742.9995" y="-308.7558" font-family="Helvetica,sans-Serif" font-size="10.00" fill="#000000">{io_info::C}::name</text>
</a>
</g>
</g>
<!-- Node1152&#45;&gt;Node1155 -->
<g id="edge13" class="edge">
<title>Node1152&#45;&gt;Node1155</title>
<path fill="none" stroke="#191970" d="M264.6073,-278.9884C281.7508,-293.7144 308.0647,-317.9922 326.4961,-342.7558 346.9135,-370.1878 335.4947,-389.7723 362.4961,-410.7558 419.2052,-454.8261 448.2449,-440.2516 519.5596,-448.7558 574.7066,-455.3321 594.8765,-473.6558 644.5195,-448.7558 689.7196,-426.0844 719.469,-371.737 733.5428,-340.3015"/>
<polygon fill="#191970" stroke="#191970" points="736.8209,-341.5383 737.5612,-330.9694 730.3916,-338.7699 736.8209,-341.5383"/>
</g>
<!-- Node1157 -->
<g id="node7" class="node">
<title>Node1157</title>
<g id="a_node7"><a xlink:href="classIoss_1_1GroupingEntity.html#a50d4053f49c8c3205e05d939fdc9fbc5" target="_top" xlink:title="Get name of entity. ">
<polygon fill="#ffffff" stroke="#000000" points="841.4795,-212.7558 841.4795,-240.7558 947.5234,-240.7558 947.5234,-212.7558 841.4795,-212.7558"/>
<text text-anchor="start" x="849.4795" y="-228.7558" font-family="Helvetica,sans-Serif" font-size="10.00" fill="#000000">Ioss::GroupingEntity</text>
<text text-anchor="middle" x="894.5015" y="-218.7558" font-family="Helvetica,sans-Serif" font-size="10.00" fill="#000000">::name</text>
</a>
</g>
</g>
<!-- Node1152&#45;&gt;Node1157 -->
<g id="edge21" class="edge">
<title>Node1152&#45;&gt;Node1157</title>
<path fill="none" stroke="#191970" d="M280.6846,-250.656C303.4581,-241.365 334.4682,-229.3694 362.4961,-220.7558 483.3363,-183.6193 518.5599,-173.0015 644.5195,-183.7558 708.5565,-189.2233 780.826,-202.4323 831.1284,-212.779"/>
<polygon fill="#191970" stroke="#191970" points="830.6992,-216.2645 841.2023,-214.8732 832.1241,-209.411 830.6992,-216.2645"/>
</g>
<!-- Node1160 -->
<g id="node10" class="node">
<title>Node1160</title>
<g id="a_node10"><a xlink:href="classIoss_1_1GroupingEntity.html#a508cc132f3c03c54d0dfd84f567fa1b6" target="_top" xlink:title="Get a field from the entity&#39;s field manager. ">
<polygon fill="#ffffff" stroke="#000000" points="529.0176,-410.7558 529.0176,-438.7558 635.0615,-438.7558 635.0615,-410.7558 529.0176,-410.7558"/>
<text text-anchor="start" x="537.0176" y="-426.7558" font-family="Helvetica,sans-Serif" font-size="10.00" fill="#000000">Ioss::GroupingEntity</text>
<text text-anchor="middle" x="582.0396" y="-416.7558" font-family="Helvetica,sans-Serif" font-size="10.00" fill="#000000">::get_field</text>
</a>
</g>
</g>
<!-- Node1152&#45;&gt;Node1160 -->
<g id="edge14" class="edge">
<title>Node1152&#45;&gt;Node1160</title>
<path fill="none" stroke="#191970" d="M257.2491,-278.9192C275.216,-303.4366 315.6686,-353.5714 362.4961,-378.7558 410.9625,-404.8217 472.8181,-416.1272 518.5131,-421.0255"/>
<polygon fill="#191970" stroke="#191970" points="518.2928,-424.5208 528.5908,-422.0305 518.9875,-417.5553 518.2928,-424.5208"/>
</g>
<!-- Node1161 -->
<g id="node11" class="node">
<title>Node1161</title>
<g id="a_node11"><a xlink:href="classIoss_1_1Field.html#a99c74998a49363e559dc5ca530cbcb4d" target="_top" xlink:title="Ioss::Field::transformed\l_storage">
<polygon fill="#ffffff" stroke="#000000" points="521.7983,-240.7558 521.7983,-268.7558 642.2808,-268.7558 642.2808,-240.7558 521.7983,-240.7558"/>
<text text-anchor="start" x="529.7983" y="-256.7558" font-family="Helvetica,sans-Serif" font-size="10.00" fill="#000000">Ioss::Field::transformed</text>
<text text-anchor="middle" x="582.0396" y="-246.7558" font-family="Helvetica,sans-Serif" font-size="10.00" fill="#000000">_storage</text>
</a>
</g>
</g>
<!-- Node1152&#45;&gt;Node1161 -->
<g id="edge15" class="edge">
<title>Node1152&#45;&gt;Node1161</title>
<path fill="none" stroke="#191970" d="M311.4745,-262.8396C368.8047,-261.1267 452.6479,-258.6217 511.7745,-256.8552"/>
<polygon fill="#191970" stroke="#191970" points="511.8871,-260.3535 521.7781,-256.5563 511.678,-253.3566 511.8871,-260.3535"/>
</g>
<!-- Node1162 -->
<g id="node12" class="node">
<title>Node1162</title>
<g id="a_node12"><a xlink:href="classIoss_1_1VariableType.html#ad1e37f24dd5bbe9ed6bee80a93665d6c" target="_top" xlink:title="Ioss::VariableType\l::component_count">
<polygon fill="#ffffff" stroke="#000000" points="531.5103,-193.7558 531.5103,-221.7558 632.5688,-221.7558 632.5688,-193.7558 531.5103,-193.7558"/>
<text text-anchor="start" x="539.5103" y="-209.7558" font-family="Helvetica,sans-Serif" font-size="10.00" fill="#000000">Ioss::VariableType</text>
<text text-anchor="middle" x="582.0396" y="-199.7558" font-family="Helvetica,sans-Serif" font-size="10.00" fill="#000000">::component_count</text>
</a>
</g>
</g>
<!-- Node1152&#45;&gt;Node1162 -->
<g id="edge19" class="edge">
<title>Node1152&#45;&gt;Node1162</title>
<path fill="none" stroke="#191970" d="M311.4745,-253.8331C372.0345,-243.5197 462.1792,-228.1681 521.5233,-218.0618"/>
<polygon fill="#191970" stroke="#191970" points="522.2313,-221.4917 531.5017,-216.3624 521.056,-214.591 522.2313,-221.4917"/>
</g>
<!-- Node1163 -->
<g id="node13" class="node">
<title>Node1163</title>
<g id="a_node13"><a xlink:href="classIoss_1_1Field.html#a8abb33dcfa0630f6422e7541b36694b4" target="_top" xlink:title="Get the basic data type of the data held in the field. ">
<polygon fill="#ffffff" stroke="#000000" points="370.2817,-57.7558 370.2817,-75.7558 475.7739,-75.7558 475.7739,-57.7558 370.2817,-57.7558"/>
<text text-anchor="middle" x="423.0278" y="-63.7558" font-family="Helvetica,sans-Serif" font-size="10.00" fill="#000000">Ioss::Field::get_type</text>
</a>
</g>
</g>
<!-- Node1152&#45;&gt;Node1163 -->
<g id="edge16" class="edge">
<title>Node1152&#45;&gt;Node1163</title>
<path fill="none" stroke="#191970" d="M252.3642,-250.6294C265.1719,-216.6953 302.3317,-130.0522 362.4961,-84.7558 364.7953,-83.0248 367.2594,-81.4595 369.8305,-80.0442"/>
<polygon fill="#191970" stroke="#191970" points="371.3348,-83.2046 378.8998,-75.7869 368.3602,-76.868 371.3348,-83.2046"/>
</g>
<!-- Node1164 -->
<g id="node14" class="node">
<title>Node1164</title>
<g id="a_node14"><a xlink:href="classIoss_1_1Field.html#aca1c35eb7fb1dcd0bf8c80b2b6926131" target="_top" xlink:title="Ioss::Field::get_name">
<polygon fill="#ffffff" stroke="#000000" points="367.2251,-141.7558 367.2251,-159.7558 478.8306,-159.7558 478.8306,-141.7558 367.2251,-141.7558"/>
<text text-anchor="middle" x="423.0278" y="-147.7558" font-family="Helvetica,sans-Serif" font-size="10.00" fill="#000000">Ioss::Field::get_name</text>
</a>
</g>
</g>
<!-- Node1152&#45;&gt;Node1164 -->
<g id="edge17" class="edge">
<title>Node1152&#45;&gt;Node1164</title>
<path fill="none" stroke="#191970" d="M262.3355,-250.7137C283.3951,-231.5631 323.5294,-197.0886 362.4961,-174.7558 369.8178,-170.5596 378.0164,-166.7699 385.958,-163.5065"/>
<polygon fill="#191970" stroke="#191970" points="387.4048,-166.6988 395.4413,-159.7948 384.8535,-160.1803 387.4048,-166.6988"/>
</g>
<!-- Node1152&#45;&gt;Node1165 -->
<g id="edge18" class="edge">
<title>Node1152&#45;&gt;Node1165</title>
<path fill="none" stroke="#191970" d="M258.5599,-278.8086C275.1408,-300.0812 306.3848,-342.1831 326.4961,-381.7558 347.8971,-423.8664 330.8272,-446.7074 362.4961,-481.7558 365.7431,-485.3494 369.5313,-488.5404 373.5994,-491.365"/>
<polygon fill="#191970" stroke="#191970" points="371.9017,-494.4293 382.2591,-496.6597 375.5532,-488.4572 371.9017,-494.4293"/>
</g>
<!-- Node1166 -->
<g id="node16" class="node">
<title>Node1166</title>
<g id="a_node16"><a xlink:href="classIoss_1_1VariableType.html#a40198c08c4f89a2f9559c1eca19bce6b" target="_top" xlink:title="Ioss::VariableType\l::label_name">
<polygon fill="#ffffff" stroke="#000000" points="374.2612,-94.7558 374.2612,-122.7558 471.7944,-122.7558 471.7944,-94.7558 374.2612,-94.7558"/>
<text text-anchor="start" x="382.2612" y="-110.7558" font-family="Helvetica,sans-Serif" font-size="10.00" fill="#000000">Ioss::VariableType</text>
<text text-anchor="middle" x="423.0278" y="-100.7558" font-family="Helvetica,sans-Serif" font-size="10.00" fill="#000000">::label_name</text>
</a>
</g>
</g>
<!-- Node1152&#45;&gt;Node1166 -->
<g id="edge20" class="edge">
<title>Node1152&#45;&gt;Node1166</title>
<path fill="none" stroke="#191970" d="M256.0491,-250.6927C273.2637,-223.9739 314.1841,-165.5322 362.4961,-131.7558 364.6325,-130.2622 366.8785,-128.8505 369.1967,-127.518"/>
<polygon fill="#191970" stroke="#191970" points="371.1313,-130.4585 378.417,-122.7664 367.9246,-124.2362 371.1313,-130.4585"/>
</g>
<!-- Node1154&#45;&gt;Node1155 -->
<g id="edge4" class="edge">
<title>Node1154&#45;&gt;Node1155</title>
<path fill="none" stroke="#191970" d="M483.5882,-309.4592C536.633,-310.9513 613.8375,-313.1228 670.2261,-314.7089"/>
<polygon fill="#191970" stroke="#191970" points="670.4078,-318.2153 680.5023,-314.9979 670.6047,-311.2181 670.4078,-318.2153"/>
</g>
<!-- Node1158 -->
<g id="node8" class="node">
<title>Node1158</title>
<g id="a_node8"><a xlink:href="classIoss_1_1Utils.html#a13e9c9d36876c699b9b67ded571fab40" target="_top" xlink:title="Convert a string to lower case, and convert spaces to &#39;_&#39;. ">
<polygon fill="#ffffff" stroke="#000000" points="523.7417,-326.7558 523.7417,-344.7558 640.3374,-344.7558 640.3374,-326.7558 523.7417,-326.7558"/>
<text text-anchor="middle" x="582.0396" y="-332.7558" font-family="Helvetica,sans-Serif" font-size="10.00" fill="#000000">Ioss::Utils::fixup_name</text>
</a>
</g>
</g>
<!-- Node1154&#45;&gt;Node1158 -->
<g id="edge7" class="edge">
<title>Node1154&#45;&gt;Node1158</title>
<path fill="none" stroke="#191970" d="M483.597,-318.4213C495.7335,-320.5584 508.4951,-322.8056 520.6588,-324.9474"/>
<polygon fill="#191970" stroke="#191970" points="520.2534,-328.4298 530.7089,-326.7171 521.4674,-321.5359 520.2534,-328.4298"/>
</g>
<!-- Node1159 -->
<g id="node9" class="node">
<title>Node1159</title>
<g id="a_node9"><a xlink:href="namespaceanonymous__namespace_02Ioex__Utils_8C_03.html#aab52be7a389c9d765d77412e1e056c62" target="_top" xlink:title="anonymous_namespace\l\{Ioex_Utils::C\}::match">
<polygon fill="#ffffff" stroke="#000000" points="519.5596,-363.7558 519.5596,-391.7558 644.5195,-391.7558 644.5195,-363.7558 519.5596,-363.7558"/>
<text text-anchor="start" x="527.5596" y="-379.7558" font-family="Helvetica,sans-Serif" font-size="10.00" fill="#000000">anonymous_namespace</text>
<text text-anchor="middle" x="582.0396" y="-369.7558" font-family="Helvetica,sans-Serif" font-size="10.00" fill="#000000">{Ioex_Utils::C}::match</text>
</a>
</g>
</g>
<!-- Node1154&#45;&gt;Node1159 -->
<g id="edge9" class="edge">
<title>Node1154&#45;&gt;Node1159</title>
<path fill="none" stroke="#191970" d="M461.6222,-321.7768C469.0175,-324.8208 476.6156,-328.2023 483.5596,-331.7558 500.4616,-340.4054 502.5518,-346.3161 519.5596,-354.7558 523.0703,-356.4979 526.747,-358.182 530.4843,-359.7929"/>
<polygon fill="#191970" stroke="#191970" points="529.2588,-363.0733 539.8386,-363.6378 531.92,-356.5988 529.2588,-363.0733"/>
</g>
<!-- Node1154&#45;&gt;Node1160 -->
<g id="edge10" class="edge">
<title>Node1154&#45;&gt;Node1160</title>
<path fill="none" stroke="#191970" d="M469.0938,-321.8267C474.3174,-324.6001 479.2889,-327.8826 483.5596,-331.7558 509.4737,-355.2581 493.3566,-378.576 519.5596,-401.7558 520.8988,-402.9405 522.3043,-404.066 523.7631,-405.1352"/>
<polygon fill="#191970" stroke="#191970" points="522.2766,-408.3332 532.6124,-410.6618 525.9846,-402.396 522.2766,-408.3332"/>
</g>
<!-- Node1154&#45;&gt;Node1161 -->
<g id="edge11" class="edge">
<title>Node1154&#45;&gt;Node1161</title>
<path fill="none" stroke="#191970" d="M465.2226,-293.692C485.1592,-287.0469 509.1437,-279.0527 530.1792,-272.0413"/>
<polygon fill="#191970" stroke="#191970" points="531.5436,-275.276 539.9238,-268.7934 529.3301,-268.6351 531.5436,-275.276"/>
</g>
<!-- Node1154&#45;&gt;Node1162 -->
<g id="edge12" class="edge">
<title>Node1154&#45;&gt;Node1162</title>
<path fill="none" stroke="#191970" d="M437.6403,-293.5809C455.6575,-276.7291 487.8073,-248.6428 519.5596,-230.7558 522.5714,-229.0592 525.7322,-227.4451 528.966,-225.9174"/>
<polygon fill="#191970" stroke="#191970" points="530.4706,-229.0792 538.2102,-221.8439 527.6479,-222.6735 530.4706,-229.0792"/>
</g>
<!-- Node1156 -->
<g id="node6" class="node">
<title>Node1156</title>
<g id="a_node6"><a xlink:href="classIoss_1_1GroupingEntity.html#adf92c4256dc89b729f4492642bc4d745" target="_top" xlink:title="Get the name of the particular type of entity. ">
<polygon fill="#ffffff" stroke="#000000" points="841.4795,-302.7558 841.4795,-330.7558 947.5234,-330.7558 947.5234,-302.7558 841.4795,-302.7558"/>
<text text-anchor="start" x="849.4795" y="-318.7558" font-family="Helvetica,sans-Serif" font-size="10.00" fill="#000000">Ioss::GroupingEntity</text>
<text text-anchor="middle" x="894.5015" y="-308.7558" font-family="Helvetica,sans-Serif" font-size="10.00" fill="#000000">::type_string</text>
</a>
</g>
</g>
<!-- Node1155&#45;&gt;Node1156 -->
<g id="edge5" class="edge">
<title>Node1155&#45;&gt;Node1156</title>
<path fill="none" stroke="#191970" d="M805.4958,-316.7558C813.9563,-316.7558 822.6444,-316.7558 831.1202,-316.7558"/>
<polygon fill="#191970" stroke="#191970" points="831.3239,-320.2559 841.3239,-316.7558 831.3238,-313.2559 831.3239,-320.2559"/>
</g>
<!-- Node1155&#45;&gt;Node1157 -->
<g id="edge6" class="edge">
<title>Node1155&#45;&gt;Node1157</title>
<path fill="none" stroke="#191970" d="M766.6717,-302.6933C792.2041,-287.5258 833.0358,-263.2696 861.6643,-246.2628"/>
<polygon fill="#191970" stroke="#191970" points="863.6857,-249.1331 870.4955,-241.0166 860.1105,-243.1149 863.6857,-249.1331"/>
</g>
<!-- Node1158&#45;&gt;Node1155 -->
<g id="edge8" class="edge">
<title>Node1158&#45;&gt;Node1155</title>
<path fill="none" stroke="#191970" d="M640.6051,-328.8427C650.2118,-327.7087 660.2695,-326.5214 670.1713,-325.3526"/>
<polygon fill="#191970" stroke="#191970" points="670.8874,-328.7925 680.4082,-324.1442 670.0668,-321.8407 670.8874,-328.7925"/>
</g>
<!-- Node1167&#45;&gt;Node1161 -->
<g id="edge23" class="edge">
<title>Node1167&#45;&gt;Node1161</title>
<path fill="none" stroke="#191970" d="M278.4535,-68.7301C327.7536,-41.3024 424.2883,.9915 483.5596,-47.7558 547.5806,-100.4096 466.2131,-167.3108 519.5596,-230.7558 520.6906,-232.101 521.9062,-233.371 523.1922,-234.5701"/>
<polygon fill="#191970" stroke="#191970" points="521.155,-237.4179 531.2319,-240.6902 525.395,-231.8481 521.155,-237.4179"/>
</g>
<!-- Node1167&#45;&gt;Node1162 -->
<g id="edge26" class="edge">
<title>Node1167&#45;&gt;Node1162</title>
<path fill="none" stroke="#191970" d="M270.7219,-68.5442C315.0333,-34.6243 413.0935,28.3976 483.5596,-14.7558 544.7761,-52.2448 569.4491,-141.0849 578.0441,-183.8886"/>
<polygon fill="#191970" stroke="#191970" points="574.6052,-184.5402 579.8953,-193.7198 581.4843,-183.2448 574.6052,-184.5402"/>
</g>
<!-- Node1167&#45;&gt;Node1163 -->
<g id="edge24" class="edge">
<title>Node1167&#45;&gt;Node1163</title>
<path fill="none" stroke="#191970" d="M326.701,-78.2696C337.8649,-76.9352 349.2132,-75.5787 360.0157,-74.2875"/>
<polygon fill="#191970" stroke="#191970" points="360.6677,-77.7346 370.1816,-73.0724 359.8368,-70.7841 360.6677,-77.7346"/>
</g>
<!-- Node1167&#45;&gt;Node1164 -->
<g id="edge25" class="edge">
<title>Node1167&#45;&gt;Node1164</title>
<path fill="none" stroke="#191970" d="M295.2832,-106.8229C315.8692,-114.8147 340.2585,-124.0256 362.4961,-131.7558 369.1367,-134.0642 376.2288,-136.4027 383.1345,-138.6127"/>
<polygon fill="#191970" stroke="#191970" points="382.4548,-142.0682 393.0445,-141.7402 384.5615,-135.3928 382.4548,-142.0682"/>
</g>
<!-- Node1167&#45;&gt;Node1166 -->
<g id="edge27" class="edge">
<title>Node1167&#45;&gt;Node1166</title>
<path fill="none" stroke="#191970" d="M326.701,-97.2421C339.2204,-98.7385 351.9718,-100.2627 363.9251,-101.6914"/>
<polygon fill="#191970" stroke="#191970" points="363.8536,-105.2077 374.1983,-102.9194 364.6844,-98.2572 363.8536,-105.2077"/>
</g>
</g>
</svg>
