<?xml version="1.0" encoding="UTF-8" standalone="no"?>
<!DOCTYPE svg PUBLIC "-//W3C//DTD SVG 1.1//EN"
 "http://www.w3.org/Graphics/SVG/1.1/DTD/svg11.dtd">
<!-- Generated by graphviz version 2.40.1 (20161225.0304)
 -->
<!-- Title: Ioss::Utils::generate_index Pages: 1 -->
<svg width="620pt" height="527pt"
 viewBox="0.00 0.00 619.71 527.00" xmlns="http://www.w3.org/2000/svg" xmlns:xlink="http://www.w3.org/1999/xlink">
<g id="graph0" class="graph" transform="scale(1 1) rotate(0) translate(4 523)">
<title>Ioss::Utils::generate_index</title>
<polygon fill="#ffffff" stroke="transparent" points="-4,4 -4,-523 615.707,-523 615.707,4 -4,4"/>
<!-- Node696 -->
<g id="node1" class="node">
<title>Node696</title>
<polygon fill="#bfbfbf" stroke="#000000" points="0,-235.5 0,-263.5 104.374,-263.5 104.374,-235.5 0,-235.5"/>
<text text-anchor="start" x="8" y="-251.5" font-family="Helvetica,sans-Serif" font-size="10.00" fill="#000000">Ioss::Utils::generate</text>
<text text-anchor="middle" x="52.187" y="-241.5" font-family="Helvetica,sans-Serif" font-size="10.00" fill="#000000">_index</text>
</g>
<!-- Node697 -->
<g id="node2" class="node">
<title>Node697</title>
<g id="a_node2"><a xlink:href="classIocgns_1_1DecompositionData.html#a6fb9168469ead60164725d0a58708426" target="_top" xlink:title="Iocgns::DecompositionData\l::generate_adjacency_list">
<polygon fill="#ffffff" stroke="#000000" points="142.8887,-490.5 142.8887,-518.5 281.1738,-518.5 281.1738,-490.5 142.8887,-490.5"/>
<text text-anchor="start" x="150.8887" y="-506.5" font-family="Helvetica,sans-Serif" font-size="10.00" fill="#000000">Iocgns::DecompositionData</text>
<text text-anchor="middle" x="212.0313" y="-496.5" font-family="Helvetica,sans-Serif" font-size="10.00" fill="#000000">::generate_adjacency_list</text>
</a>
</g>
</g>
<!-- Node696&#45;&gt;Node697 -->
<g id="edge1" class="edge">
<title>Node696&#45;&gt;Node697</title>
<path fill="none" stroke="#191970" d="M54.5323,-273.644C60.3646,-320.4518 79.7439,-423.9817 140.374,-481.5 144.0708,-485.007 148.3042,-487.9793 152.8251,-490.4983"/>
<polygon fill="#191970" stroke="#191970" points="57.9896,-273.0708 53.3765,-263.5331 51.0349,-273.8659 57.9896,-273.0708"/>
</g>
<!-- Node698 -->
<g id="node3" class="node">
<title>Node698</title>
<g id="a_node3"><a xlink:href="namespaceanonymous__namespace_02Iocgns__ParallelDatabaseIO_8C_03.html#aaf908b7001da19cea0d742fffe8f4a51" target="_top" xlink:title="anonymous_namespace\l\{Iocgns_ParallelDatabaseIO\l::C\}::gather_nodes_to_proc0">
<polygon fill="#ffffff" stroke="#000000" points="140.374,-433.5 140.374,-471.5 283.6885,-471.5 283.6885,-433.5 140.374,-433.5"/>
<text text-anchor="start" x="148.374" y="-459.5" font-family="Helvetica,sans-Serif" font-size="10.00" fill="#000000">anonymous_namespace</text>
<text text-anchor="start" x="148.374" y="-449.5" font-family="Helvetica,sans-Serif" font-size="10.00" fill="#000000">{Iocgns_ParallelDatabaseIO</text>
<text text-anchor="middle" x="212.0313" y="-439.5" font-family="Helvetica,sans-Serif" font-size="10.00" fill="#000000">::C}::gather_nodes_to_proc0</text>
</a>
</g>
</g>
<!-- Node696&#45;&gt;Node698 -->
<g id="edge2" class="edge">
<title>Node696&#45;&gt;Node698</title>
<path fill="none" stroke="#191970" d="M58.3867,-273.8889C69.0638,-311.224 94.3391,-382.6127 140.374,-424.5 144.0293,-427.8259 148.1248,-430.7753 152.4569,-433.3876"/>
<polygon fill="#191970" stroke="#191970" points="61.6648,-272.6081 55.6457,-263.8892 54.9139,-274.4587 61.6648,-272.6081"/>
</g>
<!-- Node701 -->
<g id="node6" class="node">
<title>Node701</title>
<g id="a_node6"><a xlink:href="classIopx_1_1DecompositionData.html#abcaefb5e432d40bbca271e064208398f" target="_top" xlink:title="Iopx::DecompositionData\l::handle_sset_df">
<polygon fill="#ffffff" stroke="#000000" points="148.1694,-386.5 148.1694,-414.5 275.8931,-414.5 275.8931,-386.5 148.1694,-386.5"/>
<text text-anchor="start" x="156.1694" y="-402.5" font-family="Helvetica,sans-Serif" font-size="10.00" fill="#000000">Iopx::DecompositionData</text>
<text text-anchor="middle" x="212.0313" y="-392.5" font-family="Helvetica,sans-Serif" font-size="10.00" fill="#000000">::handle_sset_df</text>
</a>
</g>
</g>
<!-- Node696&#45;&gt;Node701 -->
<g id="edge5" class="edge">
<title>Node696&#45;&gt;Node701</title>
<path fill="none" stroke="#191970" d="M62.4666,-272.9832C76.1943,-301.6915 103.1722,-349.8565 140.374,-377.5 144.9884,-380.9288 150.1335,-383.8584 155.4904,-386.3591"/>
<polygon fill="#191970" stroke="#191970" points="65.5479,-271.308 58.1685,-263.7057 59.1964,-274.2506 65.5479,-271.308"/>
</g>
<!-- Node702 -->
<g id="node7" class="node">
<title>Node702</title>
<g id="a_node7"><a xlink:href="classIopx_1_1DecompositionData.html#a123014d33bc939e512b6d612f0e7d4ef" target="_top" xlink:title="Iopx::DecompositionData\l::create_implicit_global_map">
<polygon fill="#ffffff" stroke="#000000" points="140.6646,-339.5 140.6646,-367.5 283.3979,-367.5 283.3979,-339.5 140.6646,-339.5"/>
<text text-anchor="start" x="148.6646" y="-355.5" font-family="Helvetica,sans-Serif" font-size="10.00" fill="#000000">Iopx::DecompositionData</text>
<text text-anchor="middle" x="212.0313" y="-345.5" font-family="Helvetica,sans-Serif" font-size="10.00" fill="#000000">::create_implicit_global_map</text>
</a>
</g>
</g>
<!-- Node696&#45;&gt;Node702 -->
<g id="edge6" class="edge">
<title>Node696&#45;&gt;Node702</title>
<path fill="none" stroke="#191970" d="M70.8653,-271.2764C87.4705,-289.41 113.2585,-314.7302 140.374,-330.5 146.2471,-333.9157 152.6908,-336.8927 159.231,-339.4684"/>
<polygon fill="#191970" stroke="#191970" points="73.189,-268.6247 63.9102,-263.5105 67.9745,-273.2948 73.189,-268.6247"/>
</g>
<!-- Node705 -->
<g id="node10" class="node">
<title>Node705</title>
<g id="a_node10"><a xlink:href="classIoss_1_1Decomposition.html#a659af6db6da7827733c3e2736b068c2c" target="_top" xlink:title="Ioss::Decomposition\l::get_element_block\l_communication">
<polygon fill="#ffffff" stroke="#000000" points="159.0117,-282.5 159.0117,-320.5 265.0508,-320.5 265.0508,-282.5 159.0117,-282.5"/>
<text text-anchor="start" x="167.0117" y="-308.5" font-family="Helvetica,sans-Serif" font-size="10.00" fill="#000000">Ioss::Decomposition</text>
<text text-anchor="start" x="167.0117" y="-298.5" font-family="Helvetica,sans-Serif" font-size="10.00" fill="#000000">::get_element_block</text>
<text text-anchor="middle" x="212.0313" y="-288.5" font-family="Helvetica,sans-Serif" font-size="10.00" fill="#000000">_communication</text>
</a>
</g>
</g>
<!-- Node696&#45;&gt;Node705 -->
<g id="edge9" class="edge">
<title>Node696&#45;&gt;Node705</title>
<path fill="none" stroke="#191970" d="M105.3174,-266.7842C122.5026,-272.3748 141.5566,-278.5734 158.7525,-284.1675"/>
<polygon fill="#191970" stroke="#191970" points="106.0354,-263.3373 95.4432,-263.5719 103.8698,-269.9939 106.0354,-263.3373"/>
</g>
<!-- Node706 -->
<g id="node11" class="node">
<title>Node706</title>
<g id="a_node11"><a xlink:href="classIoss_1_1Decomposition.html#a7f5d07326e25987b083d27bfff129c6b" target="_top" xlink:title="Ioss::Decomposition\l::decompose_model">
<polygon fill="#ffffff" stroke="#000000" points="159.0044,-235.5 159.0044,-263.5 265.0581,-263.5 265.0581,-235.5 159.0044,-235.5"/>
<text text-anchor="start" x="167.0044" y="-251.5" font-family="Helvetica,sans-Serif" font-size="10.00" fill="#000000">Ioss::Decomposition</text>
<text text-anchor="middle" x="212.0313" y="-241.5" font-family="Helvetica,sans-Serif" font-size="10.00" fill="#000000">::decompose_model</text>
</a>
</g>
</g>
<!-- Node696&#45;&gt;Node706 -->
<g id="edge10" class="edge">
<title>Node696&#45;&gt;Node706</title>
<path fill="none" stroke="#191970" d="M114.9139,-249.5C129.4123,-249.5 144.7031,-249.5 158.7534,-249.5"/>
<polygon fill="#191970" stroke="#191970" points="114.526,-246.0001 104.526,-249.5 114.526,-253.0001 114.526,-246.0001"/>
</g>
<!-- Node707 -->
<g id="node12" class="node">
<title>Node707</title>
<g id="a_node12"><a xlink:href="classIoss_1_1Decomposition.html#a07163869ec455fcb55d000c1a93ee20b" target="_top" xlink:title="Ioss::Decomposition\l::metis_decompose">
<polygon fill="#ffffff" stroke="#000000" points="159.0117,-188.5 159.0117,-216.5 265.0508,-216.5 265.0508,-188.5 159.0117,-188.5"/>
<text text-anchor="start" x="167.0117" y="-204.5" font-family="Helvetica,sans-Serif" font-size="10.00" fill="#000000">Ioss::Decomposition</text>
<text text-anchor="middle" x="212.0313" y="-194.5" font-family="Helvetica,sans-Serif" font-size="10.00" fill="#000000">::metis_decompose</text>
</a>
</g>
</g>
<!-- Node696&#45;&gt;Node707 -->
<g id="edge11" class="edge">
<title>Node696&#45;&gt;Node707</title>
<path fill="none" stroke="#191970" d="M109.8884,-232.5337C127.7697,-227.2759 147.2631,-221.5442 164.3822,-216.5106"/>
<polygon fill="#191970" stroke="#191970" points="108.7521,-229.2196 100.1456,-235.3985 110.7268,-235.9353 108.7521,-229.2196"/>
</g>
<!-- Node708 -->
<g id="node13" class="node">
<title>Node708</title>
<g id="a_node13"><a xlink:href="classIoss_1_1Decomposition.html#adc91e4a40501b40693f3f3494e53a79d" target="_top" xlink:title="Ioss::Decomposition\l::zoltan_decompose">
<polygon fill="#ffffff" stroke="#000000" points="159.0117,-141.5 159.0117,-169.5 265.0508,-169.5 265.0508,-141.5 159.0117,-141.5"/>
<text text-anchor="start" x="167.0117" y="-157.5" font-family="Helvetica,sans-Serif" font-size="10.00" fill="#000000">Ioss::Decomposition</text>
<text text-anchor="middle" x="212.0313" y="-147.5" font-family="Helvetica,sans-Serif" font-size="10.00" fill="#000000">::zoltan_decompose</text>
</a>
</g>
</g>
<!-- Node696&#45;&gt;Node708 -->
<g id="edge12" class="edge">
<title>Node696&#45;&gt;Node708</title>
<path fill="none" stroke="#191970" d="M74.326,-228.3047C91.2851,-213.0113 115.8631,-192.7969 140.374,-179.5 147.2933,-175.7464 154.9054,-172.4339 162.5055,-169.562"/>
<polygon fill="#191970" stroke="#191970" points="71.6392,-226.0205 66.6464,-235.3652 76.3769,-231.1736 71.6392,-226.0205"/>
</g>
<!-- Node709 -->
<g id="node14" class="node">
<title>Node709</title>
<g id="a_node14"><a xlink:href="classIoss_1_1Decomposition.html#aef7cc0f118528b150a7ec60b797efad4" target="_top" xlink:title="Ioss::Decomposition\l::get_local_node_list">
<polygon fill="#ffffff" stroke="#000000" points="158.4429,-94.5 158.4429,-122.5 265.6196,-122.5 265.6196,-94.5 158.4429,-94.5"/>
<text text-anchor="start" x="166.4429" y="-110.5" font-family="Helvetica,sans-Serif" font-size="10.00" fill="#000000">Ioss::Decomposition</text>
<text text-anchor="middle" x="212.0313" y="-100.5" font-family="Helvetica,sans-Serif" font-size="10.00" fill="#000000">::get_local_node_list</text>
</a>
</g>
</g>
<!-- Node696&#45;&gt;Node709 -->
<g id="edge13" class="edge">
<title>Node696&#45;&gt;Node709</title>
<path fill="none" stroke="#191970" d="M63.906,-226.5349C78.4475,-200.2209 105.6277,-157.5186 140.374,-132.5 145.804,-128.5903 151.9143,-125.2858 158.2185,-122.5006"/>
<polygon fill="#191970" stroke="#191970" points="60.7794,-224.9593 59.1299,-235.425 66.9458,-228.2723 60.7794,-224.9593"/>
</g>
<!-- Node710 -->
<g id="node15" class="node">
<title>Node710</title>
<g id="a_node15"><a xlink:href="classIoss_1_1Decomposition.html#af9f28eceb6ee50f6d2cb1bd3959c36fb" target="_top" xlink:title="Ioss::Decomposition\l::get_shared_node_list">
<polygon fill="#ffffff" stroke="#000000" points="153.438,-47.5 153.438,-75.5 270.6245,-75.5 270.6245,-47.5 153.438,-47.5"/>
<text text-anchor="start" x="161.438" y="-63.5" font-family="Helvetica,sans-Serif" font-size="10.00" fill="#000000">Ioss::Decomposition</text>
<text text-anchor="middle" x="212.0313" y="-53.5" font-family="Helvetica,sans-Serif" font-size="10.00" fill="#000000">::get_shared_node_list</text>
</a>
</g>
</g>
<!-- Node696&#45;&gt;Node710 -->
<g id="edge14" class="edge">
<title>Node696&#45;&gt;Node710</title>
<path fill="none" stroke="#191970" d="M58.8927,-225.3763C70.0036,-189.7608 95.5706,-123.2608 140.374,-85.5 144.9887,-81.6107 150.2586,-78.3442 155.7993,-75.6023"/>
<polygon fill="#191970" stroke="#191970" points="55.4155,-224.7883 55.9034,-235.3719 62.122,-226.794 55.4155,-224.7883"/>
</g>
<!-- Node711 -->
<g id="node16" class="node">
<title>Node711</title>
<g id="a_node16"><a xlink:href="classIoss_1_1ParallelUtils.html#a245a20b2ce39df7d0429e9d4ec6fce60" target="_top" xlink:title="Ioss::ParallelUtils\l::gather">
<polygon fill="#ffffff" stroke="#000000" points="165.6865,-.5 165.6865,-28.5 258.376,-28.5 258.376,-.5 165.6865,-.5"/>
<text text-anchor="start" x="173.6865" y="-16.5" font-family="Helvetica,sans-Serif" font-size="10.00" fill="#000000">Ioss::ParallelUtils</text>
<text text-anchor="middle" x="212.0313" y="-6.5" font-family="Helvetica,sans-Serif" font-size="10.00" fill="#000000">::gather</text>
</a>
</g>
</g>
<!-- Node696&#45;&gt;Node711 -->
<g id="edge15" class="edge">
<title>Node696&#45;&gt;Node711</title>
<path fill="none" stroke="#191970" d="M55.6353,-225.4688C63.1222,-182.0109 84.8894,-90.0909 140.374,-38.5 147.484,-31.889 156.471,-27.0946 165.6557,-23.619"/>
<polygon fill="#191970" stroke="#191970" points="52.1675,-224.989 54.0277,-235.4193 59.0779,-226.1055 52.1675,-224.989"/>
</g>
<!-- Node699 -->
<g id="node4" class="node">
<title>Node699</title>
<g id="a_node4"><a xlink:href="classIocgns_1_1ParallelDatabaseIO.html#a31f403c0aa7b587b3eff99a30161014b" target="_top" xlink:title="Iocgns::ParallelDatabase\lIO::write_adjacency_data">
<polygon fill="#ffffff" stroke="#000000" points="319.6885,-438.5 319.6885,-466.5 448.5303,-466.5 448.5303,-438.5 319.6885,-438.5"/>
<text text-anchor="start" x="327.6885" y="-454.5" font-family="Helvetica,sans-Serif" font-size="10.00" fill="#000000">Iocgns::ParallelDatabase</text>
<text text-anchor="middle" x="384.1094" y="-444.5" font-family="Helvetica,sans-Serif" font-size="10.00" fill="#000000">IO::write_adjacency_data</text>
</a>
</g>
</g>
<!-- Node698&#45;&gt;Node699 -->
<g id="edge3" class="edge">
<title>Node698&#45;&gt;Node699</title>
<path fill="none" stroke="#191970" d="M294.0228,-452.5C302.5899,-452.5 311.2107,-452.5 319.5443,-452.5"/>
<polygon fill="#191970" stroke="#191970" points="294.0109,-449.0001 284.0108,-452.5 294.0108,-456.0001 294.0109,-449.0001"/>
</g>
<!-- Node700 -->
<g id="node5" class="node">
<title>Node700</title>
<g id="a_node5"><a xlink:href="classIocgns_1_1ParallelDatabaseIO.html#a4741b1b0dd5ec3b91bfef5292ca18ecf" target="_top" xlink:title="Iocgns::ParallelDatabase\lIO::end__">
<polygon fill="#ffffff" stroke="#000000" points="484.5303,-438.5 484.5303,-466.5 611.707,-466.5 611.707,-438.5 484.5303,-438.5"/>
<text text-anchor="start" x="492.5303" y="-454.5" font-family="Helvetica,sans-Serif" font-size="10.00" fill="#000000">Iocgns::ParallelDatabase</text>
<text text-anchor="middle" x="548.1187" y="-444.5" font-family="Helvetica,sans-Serif" font-size="10.00" fill="#000000">IO::end__</text>
</a>
</g>
</g>
<!-- Node699&#45;&gt;Node700 -->
<g id="edge4" class="edge">
<title>Node699&#45;&gt;Node700</title>
<path fill="none" stroke="#191970" d="M459.1214,-452.5C467.5362,-452.5 476.05,-452.5 484.3048,-452.5"/>
<polygon fill="#191970" stroke="#191970" points="458.9302,-449.0001 448.9302,-452.5 458.9301,-456.0001 458.9302,-449.0001"/>
</g>
<!-- Node703 -->
<g id="node8" class="node">
<title>Node703</title>
<g id="a_node8"><a xlink:href="classIopx_1_1DatabaseIO.html#a4755b1a441e20cefdd86c6e1e2256fc9" target="_top" xlink:title="Iopx::DatabaseIO::create\l_implicit_global_map">
<polygon fill="#ffffff" stroke="#000000" points="320.5234,-339.5 320.5234,-367.5 447.6953,-367.5 447.6953,-339.5 320.5234,-339.5"/>
<text text-anchor="start" x="328.5234" y="-355.5" font-family="Helvetica,sans-Serif" font-size="10.00" fill="#000000">Iopx::DatabaseIO::create</text>
<text text-anchor="middle" x="384.1094" y="-345.5" font-family="Helvetica,sans-Serif" font-size="10.00" fill="#000000">_implicit_global_map</text>
</a>
</g>
</g>
<!-- Node702&#45;&gt;Node703 -->
<g id="edge7" class="edge">
<title>Node702&#45;&gt;Node703</title>
<path fill="none" stroke="#191970" d="M293.5809,-353.5C302.5412,-353.5 311.5666,-353.5 320.2669,-353.5"/>
<polygon fill="#191970" stroke="#191970" points="293.513,-350.0001 283.5129,-353.5 293.5129,-357.0001 293.513,-350.0001"/>
</g>
<!-- Node704 -->
<g id="node9" class="node">
<title>Node704</title>
<g id="a_node9"><a xlink:href="classIopx_1_1DatabaseIO.html#a0911c2dc913cf02072e02d8b9e29bc5e" target="_top" xlink:title="Iopx::DatabaseIO::put\l_field_internal">
<polygon fill="#ffffff" stroke="#000000" points="491.4785,-339.5 491.4785,-367.5 604.7588,-367.5 604.7588,-339.5 491.4785,-339.5"/>
<text text-anchor="start" x="499.4785" y="-355.5" font-family="Helvetica,sans-Serif" font-size="10.00" fill="#000000">Iopx::DatabaseIO::put</text>
<text text-anchor="middle" x="548.1187" y="-345.5" font-family="Helvetica,sans-Serif" font-size="10.00" fill="#000000">_field_internal</text>
</a>
</g>
</g>
<!-- Node703&#45;&gt;Node704 -->
<g id="edge8" class="edge">
<title>Node703&#45;&gt;Node704</title>
<path fill="none" stroke="#191970" d="M458.1483,-353.5C469.2971,-353.5 480.6442,-353.5 491.3547,-353.5"/>
<polygon fill="#191970" stroke="#191970" points="457.9893,-350.0001 447.9893,-353.5 457.9892,-357.0001 457.9893,-350.0001"/>
</g>
</g>
</svg>
