<?xml version="1.0" encoding="UTF-8" standalone="no"?>
<!DOCTYPE svg PUBLIC "-//W3C//DTD SVG 1.1//EN"
 "http://www.w3.org/Graphics/SVG/1.1/DTD/svg11.dtd">
<!-- Generated by graphviz version 2.40.1 (20161225.0304)
 -->
<!-- Title: Ioss::DatabaseIO::set_lower_case_variable_names Pages: 1 -->
<svg width="394pt" height="84pt"
 viewBox="0.00 0.00 393.71 84.00" xmlns="http://www.w3.org/2000/svg" xmlns:xlink="http://www.w3.org/1999/xlink">
<g id="graph0" class="graph" transform="scale(1 1) rotate(0) translate(4 80)">
<title>Ioss::DatabaseIO::set_lower_case_variable_names</title>
<polygon fill="#ffffff" stroke="transparent" points="-4,4 -4,-80 389.708,-80 389.708,4 -4,4"/>
<!-- Node2233 -->
<g id="node1" class="node">
<title>Node2233</title>
<polygon fill="#bfbfbf" stroke="#000000" points="0,-23.5 0,-51.5 148.2998,-51.5 148.2998,-23.5 0,-23.5"/>
<text text-anchor="start" x="8" y="-39.5" font-family="Helvetica,sans-Serif" font-size="10.00" fill="#000000">Ioss::DatabaseIO::set</text>
<text text-anchor="middle" x="74.1499" y="-29.5" font-family="Helvetica,sans-Serif" font-size="10.00" fill="#000000">_lower_case_variable_names</text>
</g>
<!-- Node2234 -->
<g id="node2" class="node">
<title>Node2234</title>
<g id="a_node2"><a xlink:href="namespaceanonymous__namespace_02io__shell_8C_03.html#a3614c6356ba84d7eb73b876e616107bd" target="_top" xlink:title="anonymous_namespace\l\{io_shell::C\}::file_copy">
<polygon fill="#ffffff" stroke="#000000" points="185.6865,-47.5 185.6865,-75.5 310.6465,-75.5 310.6465,-47.5 185.6865,-47.5"/>
<text text-anchor="start" x="193.6865" y="-63.5" font-family="Helvetica,sans-Serif" font-size="10.00" fill="#000000">anonymous_namespace</text>
<text text-anchor="middle" x="248.1665" y="-53.5" font-family="Helvetica,sans-Serif" font-size="10.00" fill="#000000">{io_shell::C}::file_copy</text>
</a>
</g>
</g>
<!-- Node2233&#45;&gt;Node2234 -->
<g id="edge1" class="edge">
<title>Node2233&#45;&gt;Node2234</title>
<path fill="none" stroke="#191970" d="M158.3724,-49.1158C167.5463,-50.381 176.7615,-51.652 185.6095,-52.8723"/>
<polygon fill="#191970" stroke="#191970" points="158.8378,-45.6469 148.4534,-47.7478 157.8814,-52.5813 158.8378,-45.6469"/>
</g>
<!-- Node2236 -->
<g id="node4" class="node">
<title>Node2236</title>
<g id="a_node4"><a xlink:href="namespaceanonymous__namespace_02io__shell__ts_8C_03.html#a095c7ac686af64729318e491a9d5622d" target="_top" xlink:title="anonymous_namespace\l\{io_shell_ts::C\}::file_copy">
<polygon fill="#ffffff" stroke="#000000" points="184.2998,-.5 184.2998,-28.5 312.0332,-28.5 312.0332,-.5 184.2998,-.5"/>
<text text-anchor="start" x="192.2998" y="-16.5" font-family="Helvetica,sans-Serif" font-size="10.00" fill="#000000">anonymous_namespace</text>
<text text-anchor="middle" x="248.1665" y="-6.5" font-family="Helvetica,sans-Serif" font-size="10.00" fill="#000000">{io_shell_ts::C}::file_copy</text>
</a>
</g>
</g>
<!-- Node2233&#45;&gt;Node2236 -->
<g id="edge3" class="edge">
<title>Node2233&#45;&gt;Node2236</title>
<path fill="none" stroke="#191970" d="M158.5647,-26.3428C167.2089,-25.2003 175.8872,-24.0533 184.258,-22.9469"/>
<polygon fill="#191970" stroke="#191970" points="157.9085,-22.899 148.4534,-27.6792 158.8258,-29.8386 157.9085,-22.899"/>
</g>
<!-- Node2235 -->
<g id="node3" class="node">
<title>Node2235</title>
<g id="a_node3"><a xlink:href="io__shell_8C.html#a0ddf1224851353fc92bfbff6f499fa97" target="_top" xlink:title="main">
<polygon fill="#ffffff" stroke="#000000" points="348.0332,-52.5 348.0332,-70.5 385.708,-70.5 385.708,-52.5 348.0332,-52.5"/>
<text text-anchor="middle" x="366.8706" y="-58.5" font-family="Helvetica,sans-Serif" font-size="10.00" fill="#000000">main</text>
</a>
</g>
</g>
<!-- Node2234&#45;&gt;Node2235 -->
<g id="edge2" class="edge">
<title>Node2234&#45;&gt;Node2235</title>
<path fill="none" stroke="#191970" d="M320.782,-61.5C330.7854,-61.5 340.259,-61.5 347.9857,-61.5"/>
<polygon fill="#191970" stroke="#191970" points="320.6472,-58.0001 310.6472,-61.5 320.6471,-65.0001 320.6472,-58.0001"/>
</g>
<!-- Node2237 -->
<g id="node5" class="node">
<title>Node2237</title>
<g id="a_node5"><a xlink:href="io__shell__ts_8C.html#a0ddf1224851353fc92bfbff6f499fa97" target="_top" xlink:title="main">
<polygon fill="#ffffff" stroke="#000000" points="348.0332,-5.5 348.0332,-23.5 385.708,-23.5 385.708,-5.5 348.0332,-5.5"/>
<text text-anchor="middle" x="366.8706" y="-11.5" font-family="Helvetica,sans-Serif" font-size="10.00" fill="#000000">main</text>
</a>
</g>
</g>
<!-- Node2236&#45;&gt;Node2237 -->
<g id="edge4" class="edge">
<title>Node2236&#45;&gt;Node2237</title>
<path fill="none" stroke="#191970" d="M322.3333,-14.5C331.678,-14.5 340.4992,-14.5 347.7874,-14.5"/>
<polygon fill="#191970" stroke="#191970" points="322.0357,-11.0001 312.0356,-14.5 322.0356,-18.0001 322.0357,-11.0001"/>
</g>
</g>
</svg>
