<?xml version="1.0" encoding="UTF-8" standalone="no"?>
<!DOCTYPE svg PUBLIC "-//W3C//DTD SVG 1.1//EN"
 "http://www.w3.org/Graphics/SVG/1.1/DTD/svg11.dtd">
<!-- Generated by graphviz version 2.40.1 (20161225.0304)
 -->
<!-- Title: Ioex::DatabaseIO::get_database_step Pages: 1 -->
<svg width="582pt" height="319pt"
 viewBox="0.00 0.00 582.47 319.00" xmlns="http://www.w3.org/2000/svg" xmlns:xlink="http://www.w3.org/1999/xlink">
<g id="graph0" class="graph" transform="scale(1 1) rotate(0) translate(4 315)">
<title>Ioex::DatabaseIO::get_database_step</title>
<polygon fill="#ffffff" stroke="transparent" points="-4,4 -4,-315 578.4707,-315 578.4707,4 -4,4"/>
<!-- Node645 -->
<g id="node1" class="node">
<title>Node645</title>
<polygon fill="#bfbfbf" stroke="#000000" points="0,-117.5 0,-145.5 113.2803,-145.5 113.2803,-117.5 0,-117.5"/>
<text text-anchor="start" x="8" y="-133.5" font-family="Helvetica,sans-Serif" font-size="10.00" fill="#000000">Ioex::DatabaseIO::get</text>
<text text-anchor="middle" x="56.6401" y="-123.5" font-family="Helvetica,sans-Serif" font-size="10.00" fill="#000000">_database_step</text>
</g>
<!-- Node646 -->
<g id="node2" class="node">
<title>Node646</title>
<g id="a_node2"><a xlink:href="classIofx_1_1DatabaseIO.html#ab8286eed2d4d359d5b0997a5118f9987" target="_top" xlink:title="Iofx::DatabaseIO::write\l_nodal_transient_field">
<polygon fill="#ffffff" stroke="#000000" points="152.3491,-258.5 152.3491,-286.5 270.0581,-286.5 270.0581,-258.5 152.3491,-258.5"/>
<text text-anchor="start" x="160.3491" y="-274.5" font-family="Helvetica,sans-Serif" font-size="10.00" fill="#000000">Iofx::DatabaseIO::write</text>
<text text-anchor="middle" x="211.2036" y="-264.5" font-family="Helvetica,sans-Serif" font-size="10.00" fill="#000000">_nodal_transient_field</text>
</a>
</g>
</g>
<!-- Node645&#45;&gt;Node646 -->
<g id="edge1" class="edge">
<title>Node645&#45;&gt;Node646</title>
<path fill="none" stroke="#191970" d="M76.0788,-153.3391C94.2221,-173.2489 122.4531,-203.0445 149.2803,-226.5 162.387,-237.9595 178.1506,-249.6426 190.4928,-258.3671"/>
<polygon fill="#191970" stroke="#191970" points="78.4875,-150.7845 69.1841,-145.7152 73.2956,-155.4797 78.4875,-150.7845"/>
</g>
<!-- Node648 -->
<g id="node4" class="node">
<title>Node648</title>
<g id="a_node4"><a xlink:href="classIofx_1_1DatabaseIO.html#a1746997a058b3088ef7c35cfdfc94cb3" target="_top" xlink:title="Iofx::DatabaseIO::write\l_entity_transient_field">
<polygon fill="#ffffff" stroke="#000000" points="152.3491,-188.5 152.3491,-216.5 270.0581,-216.5 270.0581,-188.5 152.3491,-188.5"/>
<text text-anchor="start" x="160.3491" y="-204.5" font-family="Helvetica,sans-Serif" font-size="10.00" fill="#000000">Iofx::DatabaseIO::write</text>
<text text-anchor="middle" x="211.2036" y="-194.5" font-family="Helvetica,sans-Serif" font-size="10.00" fill="#000000">_entity_transient_field</text>
</a>
</g>
</g>
<!-- Node645&#45;&gt;Node648 -->
<g id="edge3" class="edge">
<title>Node645&#45;&gt;Node648</title>
<path fill="none" stroke="#191970" d="M90.9167,-150.536C108.1781,-159.7929 129.5755,-170.7749 149.2803,-179.5 156.306,-182.6109 163.8958,-185.6689 171.2731,-188.4886"/>
<polygon fill="#191970" stroke="#191970" points="92.2502,-147.278 81.7897,-145.5961 88.9182,-153.4341 92.2502,-147.278"/>
</g>
<!-- Node652 -->
<g id="node8" class="node">
<title>Node652</title>
<g id="a_node8"><a xlink:href="classIopx_1_1DatabaseIO.html#abdb60de70b02cb28c5289221f599186d" target="_top" xlink:title="Iopx::DatabaseIO::write\l_nodal_transient_field">
<polygon fill="#ffffff" stroke="#000000" points="150.9575,-141.5 150.9575,-169.5 271.4497,-169.5 271.4497,-141.5 150.9575,-141.5"/>
<text text-anchor="start" x="158.9575" y="-157.5" font-family="Helvetica,sans-Serif" font-size="10.00" fill="#000000">Iopx::DatabaseIO::write</text>
<text text-anchor="middle" x="211.2036" y="-147.5" font-family="Helvetica,sans-Serif" font-size="10.00" fill="#000000">_nodal_transient_field</text>
</a>
</g>
</g>
<!-- Node645&#45;&gt;Node652 -->
<g id="edge7" class="edge">
<title>Node645&#45;&gt;Node652</title>
<path fill="none" stroke="#191970" d="M123.4912,-141.8804C132.602,-143.2951 141.9098,-144.7403 150.8955,-146.1356"/>
<polygon fill="#191970" stroke="#191970" points="123.7349,-138.3763 113.3162,-140.3004 122.6607,-145.2934 123.7349,-138.3763"/>
</g>
<!-- Node654 -->
<g id="node10" class="node">
<title>Node654</title>
<g id="a_node10"><a xlink:href="classIopx_1_1DatabaseIO.html#a96be05c3beac4bd001b8e6c2185170bf" target="_top" xlink:title="Iopx::DatabaseIO::write\l_entity_transient_field">
<polygon fill="#ffffff" stroke="#000000" points="150.9575,-94.5 150.9575,-122.5 271.4497,-122.5 271.4497,-94.5 150.9575,-94.5"/>
<text text-anchor="start" x="158.9575" y="-110.5" font-family="Helvetica,sans-Serif" font-size="10.00" fill="#000000">Iopx::DatabaseIO::write</text>
<text text-anchor="middle" x="211.2036" y="-100.5" font-family="Helvetica,sans-Serif" font-size="10.00" fill="#000000">_entity_transient_field</text>
</a>
</g>
</g>
<!-- Node645&#45;&gt;Node654 -->
<g id="edge9" class="edge">
<title>Node645&#45;&gt;Node654</title>
<path fill="none" stroke="#191970" d="M123.4912,-121.5521C132.602,-120.1964 141.9098,-118.8114 150.8955,-117.4742"/>
<polygon fill="#191970" stroke="#191970" points="122.6921,-118.1324 113.3162,-123.0662 123.7225,-125.0562 122.6921,-118.1324"/>
</g>
<!-- Node658 -->
<g id="node14" class="node">
<title>Node658</title>
<g id="a_node14"><a xlink:href="classIoex_1_1DatabaseIO.html#ae0e9d1a3169da377f9715e14abf7689d" target="_top" xlink:title="Ioex::DatabaseIO::write\l_reduction_fields">
<polygon fill="#ffffff" stroke="#000000" points="150.9575,-47.5 150.9575,-75.5 271.4497,-75.5 271.4497,-47.5 150.9575,-47.5"/>
<text text-anchor="start" x="158.9575" y="-63.5" font-family="Helvetica,sans-Serif" font-size="10.00" fill="#000000">Ioex::DatabaseIO::write</text>
<text text-anchor="middle" x="211.2036" y="-53.5" font-family="Helvetica,sans-Serif" font-size="10.00" fill="#000000">_reduction_fields</text>
</a>
</g>
</g>
<!-- Node645&#45;&gt;Node658 -->
<g id="edge13" class="edge">
<title>Node645&#45;&gt;Node658</title>
<path fill="none" stroke="#191970" d="M92.5339,-112.7245C109.5588,-104.0656 130.2877,-93.875 149.2803,-85.5 156.9815,-82.104 165.3259,-78.6933 173.3204,-75.5523"/>
<polygon fill="#191970" stroke="#191970" points="90.7961,-109.6822 83.4913,-117.3562 93.9873,-115.9125 90.7961,-109.6822"/>
</g>
<!-- Node660 -->
<g id="node16" class="node">
<title>Node660</title>
<g id="a_node16"><a xlink:href="classIoex_1_1DatabaseIO.html#a517c92d4fe7f508c93ba205521505a87" target="_top" xlink:title="Ioex::DatabaseIO::begin\l_state__">
<polygon fill="#ffffff" stroke="#000000" points="149.2803,-.5 149.2803,-28.5 273.127,-28.5 273.127,-.5 149.2803,-.5"/>
<text text-anchor="start" x="157.2803" y="-16.5" font-family="Helvetica,sans-Serif" font-size="10.00" fill="#000000">Ioex::DatabaseIO::begin</text>
<text text-anchor="middle" x="211.2036" y="-6.5" font-family="Helvetica,sans-Serif" font-size="10.00" fill="#000000">_state__</text>
</a>
</g>
</g>
<!-- Node645&#45;&gt;Node660 -->
<g id="edge15" class="edge">
<title>Node645&#45;&gt;Node660</title>
<path fill="none" stroke="#191970" d="M73.5443,-109.4462C90.6465,-88.4409 118.844,-57.1878 149.2803,-37.5 154.4801,-34.1365 160.2415,-31.1686 166.0962,-28.5791"/>
<polygon fill="#191970" stroke="#191970" points="70.6297,-107.4874 67.1305,-117.4878 76.1022,-111.8523 70.6297,-107.4874"/>
</g>
<!-- Node647 -->
<g id="node3" class="node">
<title>Node647</title>
<g id="a_node3"><a xlink:href="classIofx_1_1DatabaseIO.html#ad2d3d92280f46b3559be20cc3f59950e" target="_top" xlink:title="Iofx::DatabaseIO::put\l_field_internal">
<polygon fill="#ffffff" stroke="#000000" points="311.9102,-282.5 311.9102,-310.5 422.4072,-310.5 422.4072,-282.5 311.9102,-282.5"/>
<text text-anchor="start" x="319.9102" y="-298.5" font-family="Helvetica,sans-Serif" font-size="10.00" fill="#000000">Iofx::DatabaseIO::put</text>
<text text-anchor="middle" x="367.1587" y="-288.5" font-family="Helvetica,sans-Serif" font-size="10.00" fill="#000000">_field_internal</text>
</a>
</g>
</g>
<!-- Node646&#45;&gt;Node647 -->
<g id="edge2" class="edge">
<title>Node646&#45;&gt;Node647</title>
<path fill="none" stroke="#191970" d="M280.1852,-283.1156C290.7358,-284.7392 301.5091,-286.3971 311.7185,-287.9683"/>
<polygon fill="#191970" stroke="#191970" points="280.5796,-279.6352 270.1635,-281.5734 279.5148,-286.5537 280.5796,-279.6352"/>
</g>
<!-- Node649 -->
<g id="node5" class="node">
<title>Node649</title>
<g id="a_node5"><a xlink:href="classIofx_1_1DatabaseIO.html#a23d401f65b0c36d264a1eaabbe07a6f9" target="_top" xlink:title="Iofx::DatabaseIO::put\l_field_internal">
<polygon fill="#ffffff" stroke="#000000" points="311.9102,-235.5 311.9102,-263.5 422.4072,-263.5 422.4072,-235.5 311.9102,-235.5"/>
<text text-anchor="start" x="319.9102" y="-251.5" font-family="Helvetica,sans-Serif" font-size="10.00" fill="#000000">Iofx::DatabaseIO::put</text>
<text text-anchor="middle" x="367.1587" y="-241.5" font-family="Helvetica,sans-Serif" font-size="10.00" fill="#000000">_field_internal</text>
</a>
</g>
</g>
<!-- Node648&#45;&gt;Node649 -->
<g id="edge4" class="edge">
<title>Node648&#45;&gt;Node649</title>
<path fill="none" stroke="#191970" d="M267.9861,-219.6125C285.2993,-224.8301 304.1211,-230.5024 320.669,-235.4894"/>
<polygon fill="#191970" stroke="#191970" points="268.5799,-216.136 257.9953,-216.6015 266.56,-222.8382 268.5799,-216.136"/>
</g>
<!-- Node650 -->
<g id="node6" class="node">
<title>Node650</title>
<g id="a_node6"><a xlink:href="classIofx_1_1DatabaseIO.html#aff2a32e19d8777c2fb7691538f1204f2" target="_top" xlink:title="Iofx::DatabaseIO::put\l_Xset_field_internal">
<polygon fill="#ffffff" stroke="#000000" points="311.9102,-188.5 311.9102,-216.5 422.4072,-216.5 422.4072,-188.5 311.9102,-188.5"/>
<text text-anchor="start" x="319.9102" y="-204.5" font-family="Helvetica,sans-Serif" font-size="10.00" fill="#000000">Iofx::DatabaseIO::put</text>
<text text-anchor="middle" x="367.1587" y="-194.5" font-family="Helvetica,sans-Serif" font-size="10.00" fill="#000000">_Xset_field_internal</text>
</a>
</g>
</g>
<!-- Node648&#45;&gt;Node650 -->
<g id="edge5" class="edge">
<title>Node648&#45;&gt;Node650</title>
<path fill="none" stroke="#191970" d="M280.1852,-202.5C290.7358,-202.5 301.5091,-202.5 311.7185,-202.5"/>
<polygon fill="#191970" stroke="#191970" points="280.1636,-199.0001 270.1635,-202.5 280.1635,-206.0001 280.1636,-199.0001"/>
</g>
<!-- Node651 -->
<g id="node7" class="node">
<title>Node651</title>
<g id="a_node7"><a xlink:href="classIofx_1_1DatabaseIO.html#ae547ecad41ae4f842db8776e39654f2c" target="_top" xlink:title="Iofx::DatabaseIO::put\l_field_internal">
<polygon fill="#ffffff" stroke="#000000" points="462.582,-188.5 462.582,-216.5 573.0791,-216.5 573.0791,-188.5 462.582,-188.5"/>
<text text-anchor="start" x="470.582" y="-204.5" font-family="Helvetica,sans-Serif" font-size="10.00" fill="#000000">Iofx::DatabaseIO::put</text>
<text text-anchor="middle" x="517.8306" y="-194.5" font-family="Helvetica,sans-Serif" font-size="10.00" fill="#000000">_field_internal</text>
</a>
</g>
</g>
<!-- Node650&#45;&gt;Node651 -->
<g id="edge6" class="edge">
<title>Node650&#45;&gt;Node651</title>
<path fill="none" stroke="#191970" d="M432.6192,-202.5C442.5268,-202.5 452.6662,-202.5 462.3361,-202.5"/>
<polygon fill="#191970" stroke="#191970" points="432.4078,-199.0001 422.4078,-202.5 432.4077,-206.0001 432.4078,-199.0001"/>
</g>
<!-- Node653 -->
<g id="node9" class="node">
<title>Node653</title>
<g id="a_node9"><a xlink:href="classIopx_1_1DatabaseIO.html#a0911c2dc913cf02072e02d8b9e29bc5e" target="_top" xlink:title="Iopx::DatabaseIO::put\l_field_internal">
<polygon fill="#ffffff" stroke="#000000" points="310.5186,-141.5 310.5186,-169.5 423.7988,-169.5 423.7988,-141.5 310.5186,-141.5"/>
<text text-anchor="start" x="318.5186" y="-157.5" font-family="Helvetica,sans-Serif" font-size="10.00" fill="#000000">Iopx::DatabaseIO::put</text>
<text text-anchor="middle" x="367.1587" y="-147.5" font-family="Helvetica,sans-Serif" font-size="10.00" fill="#000000">_field_internal</text>
</a>
</g>
</g>
<!-- Node652&#45;&gt;Node653 -->
<g id="edge8" class="edge">
<title>Node652&#45;&gt;Node653</title>
<path fill="none" stroke="#191970" d="M281.791,-155.5C291.3544,-155.5 301.0675,-155.5 310.3478,-155.5"/>
<polygon fill="#191970" stroke="#191970" points="281.5,-152.0001 271.4999,-155.5 281.4999,-159.0001 281.5,-152.0001"/>
</g>
<!-- Node655 -->
<g id="node11" class="node">
<title>Node655</title>
<g id="a_node11"><a xlink:href="classIopx_1_1DatabaseIO.html#afd24273dacc289d454e1adee67f390d8" target="_top" xlink:title="Iopx::DatabaseIO::put\l_field_internal">
<polygon fill="#ffffff" stroke="#000000" points="310.5186,-94.5 310.5186,-122.5 423.7988,-122.5 423.7988,-94.5 310.5186,-94.5"/>
<text text-anchor="start" x="318.5186" y="-110.5" font-family="Helvetica,sans-Serif" font-size="10.00" fill="#000000">Iopx::DatabaseIO::put</text>
<text text-anchor="middle" x="367.1587" y="-100.5" font-family="Helvetica,sans-Serif" font-size="10.00" fill="#000000">_field_internal</text>
</a>
</g>
</g>
<!-- Node654&#45;&gt;Node655 -->
<g id="edge10" class="edge">
<title>Node654&#45;&gt;Node655</title>
<path fill="none" stroke="#191970" d="M281.791,-108.5C291.3544,-108.5 301.0675,-108.5 310.3478,-108.5"/>
<polygon fill="#191970" stroke="#191970" points="281.5,-105.0001 271.4999,-108.5 281.4999,-112.0001 281.5,-105.0001"/>
</g>
<!-- Node656 -->
<g id="node12" class="node">
<title>Node656</title>
<g id="a_node12"><a xlink:href="classIopx_1_1DatabaseIO.html#ac4c1249be1086d90e5aeb7a366393fd9" target="_top" xlink:title="Iopx::DatabaseIO::put\l_Xset_field_internal">
<polygon fill="#ffffff" stroke="#000000" points="310.5186,-47.5 310.5186,-75.5 423.7988,-75.5 423.7988,-47.5 310.5186,-47.5"/>
<text text-anchor="start" x="318.5186" y="-63.5" font-family="Helvetica,sans-Serif" font-size="10.00" fill="#000000">Iopx::DatabaseIO::put</text>
<text text-anchor="middle" x="367.1587" y="-53.5" font-family="Helvetica,sans-Serif" font-size="10.00" fill="#000000">_Xset_field_internal</text>
</a>
</g>
</g>
<!-- Node654&#45;&gt;Node656 -->
<g id="edge11" class="edge">
<title>Node654&#45;&gt;Node656</title>
<path fill="none" stroke="#191970" d="M267.9861,-91.3875C285.2993,-86.1699 304.1211,-80.4976 320.669,-75.5106"/>
<polygon fill="#191970" stroke="#191970" points="266.56,-88.1618 257.9953,-94.3985 268.5799,-94.864 266.56,-88.1618"/>
</g>
<!-- Node657 -->
<g id="node13" class="node">
<title>Node657</title>
<g id="a_node13"><a xlink:href="classIopx_1_1DatabaseIO.html#ae523d7f885ce420952101ccf31e0c5da" target="_top" xlink:title="Iopx::DatabaseIO::put\l_field_internal">
<polygon fill="#ffffff" stroke="#000000" points="461.1904,-47.5 461.1904,-75.5 574.4707,-75.5 574.4707,-47.5 461.1904,-47.5"/>
<text text-anchor="start" x="469.1904" y="-63.5" font-family="Helvetica,sans-Serif" font-size="10.00" fill="#000000">Iopx::DatabaseIO::put</text>
<text text-anchor="middle" x="517.8306" y="-53.5" font-family="Helvetica,sans-Serif" font-size="10.00" fill="#000000">_field_internal</text>
</a>
</g>
</g>
<!-- Node656&#45;&gt;Node657 -->
<g id="edge12" class="edge">
<title>Node656&#45;&gt;Node657</title>
<path fill="none" stroke="#191970" d="M434.3743,-61.5C443.1921,-61.5 452.1601,-61.5 460.7874,-61.5"/>
<polygon fill="#191970" stroke="#191970" points="434.1213,-58.0001 424.1213,-61.5 434.1212,-65.0001 434.1213,-58.0001"/>
</g>
<!-- Node659 -->
<g id="node15" class="node">
<title>Node659</title>
<g id="a_node15"><a xlink:href="classIoex_1_1DatabaseIO.html#a4acc62afb7f8af0922f159a5a84b9fb7" target="_top" xlink:title="Ioex::DatabaseIO::end\l_state__">
<polygon fill="#ffffff" stroke="#000000" points="309.127,-.5 309.127,-28.5 425.1904,-28.5 425.1904,-.5 309.127,-.5"/>
<text text-anchor="start" x="317.127" y="-16.5" font-family="Helvetica,sans-Serif" font-size="10.00" fill="#000000">Ioex::DatabaseIO::end</text>
<text text-anchor="middle" x="367.1587" y="-6.5" font-family="Helvetica,sans-Serif" font-size="10.00" fill="#000000">_state__</text>
</a>
</g>
</g>
<!-- Node658&#45;&gt;Node659 -->
<g id="edge14" class="edge">
<title>Node658&#45;&gt;Node659</title>
<path fill="none" stroke="#191970" d="M267.9861,-44.3875C285.2993,-39.1699 304.1211,-33.4976 320.669,-28.5106"/>
<polygon fill="#191970" stroke="#191970" points="266.56,-41.1618 257.9953,-47.3985 268.5799,-47.864 266.56,-41.1618"/>
</g>
</g>
</svg>
