<?xml version="1.0" encoding="UTF-8" standalone="no"?>
<!DOCTYPE svg PUBLIC "-//W3C//DTD SVG 1.1//EN"
 "http://www.w3.org/Graphics/SVG/1.1/DTD/svg11.dtd">
<!-- Generated by graphviz version 2.42.3 (20191010.1750)
 -->
<!-- Title: Ioss::Field Pages: 1 -->
<svg width="120pt" height="102pt"
 viewBox="0.00 0.00 119.58 102.00" xmlns="http://www.w3.org/2000/svg" xmlns:xlink="http://www.w3.org/1999/xlink">
<g id="graph0" class="graph" transform="scale(1 1) rotate(0) translate(4 98)">
<title>Ioss::Field</title>
<polygon fill="white" stroke="transparent" points="-4,4 -4,-98 115.58,-98 115.58,4 -4,4"/>
<!-- Node1 -->
<g id="node1" class="node">
<title>Node1</title>
<g id="a_node1"><a xlink:title="Holds metadata for bulk data associated with a GroupingEntity.">
<polygon fill="#bfbfbf" stroke="black" points="17.98,-0.5 17.98,-18.5 79.55,-18.5 79.55,-0.5 17.98,-0.5"/>
<text text-anchor="middle" x="48.77" y="-6.5" font-family="Helvetica,sans-Serif" font-size="10.00">Ioss::Field</text>
</a>
</g>
</g>
<!-- Node2 -->
<g id="node2" class="node">
<title>Node2</title>
<g id="a_node2"><a xlink:href="classIoss_1_1VariableType.html" target="_top" xlink:title="A generic variable type.">
<polygon fill="white" stroke="black" points="0,-75.5 0,-93.5 97.53,-93.5 97.53,-75.5 0,-75.5"/>
<text text-anchor="middle" x="48.77" y="-81.5" font-family="Helvetica,sans-Serif" font-size="10.00">Ioss::VariableType</text>
</a>
</g>
</g>
<!-- Node2&#45;&gt;Node1 -->
<g id="edge1" class="edge">
<title>Node2&#45;&gt;Node1</title>
<path fill="none" stroke="#9a32cd" stroke-dasharray="5,2" d="M48.77,-65.35C48.77,-50.48 48.77,-30.12 48.77,-18.85"/>
<polygon fill="#9a32cd" stroke="#9a32cd" points="45.27,-65.41 48.77,-75.41 52.27,-65.41 45.27,-65.41"/>
<text text-anchor="middle" x="80.18" y="-49" font-family="Helvetica,sans-Serif" font-size="10.00"> rawStorage_</text>
<text text-anchor="middle" x="80.18" y="-39" font-family="Helvetica,sans-Serif" font-size="10.00">transStorage_</text>
</g>
</g>
</svg>
