<?xml version="1.0" encoding="UTF-8" standalone="no"?>
<!DOCTYPE svg PUBLIC "-//W3C//DTD SVG 1.1//EN"
 "http://www.w3.org/Graphics/SVG/1.1/DTD/svg11.dtd">
<!-- Generated by graphviz version 2.44.1 (20200629.0846)
 -->
<!-- Title: Ioss::EntitySet Pages: 1 -->
<svg width="392pt" height="140pt"
 viewBox="0.00 0.00 391.50 140.00" xmlns="http://www.w3.org/2000/svg" xmlns:xlink="http://www.w3.org/1999/xlink">
<g id="graph0" class="graph" transform="scale(1 1) rotate(0) translate(4 136)">
<title>Ioss::EntitySet</title>
<polygon fill="white" stroke="transparent" points="-4,4 -4,-136 387.5,-136 387.5,4 -4,4"/>
<!-- Node1 -->
<g id="node1" class="node">
<title>Node1</title>
<g id="a_node1"><a xlink:title="Base class for all &#39;set&#39;&#45;type grouping entities, which means that members of the set are not necessar...">
<polygon fill="#bfbfbf" stroke="black" points="153.5,-56.5 153.5,-75.5 235.5,-75.5 235.5,-56.5 153.5,-56.5"/>
<text text-anchor="middle" x="194.5" y="-63.5" font-family="Helvetica,sans-Serif" font-size="10.00">Ioss::EntitySet</text>
</a>
</g>
</g>
<!-- Node3 -->
<g id="node3" class="node">
<title>Node3</title>
<g id="a_node3"><a xlink:href="classIoss_1_1EdgeSet.html" target="_top" xlink:title="A collection of element edges.">
<polygon fill="white" stroke="black" points="0,-0.5 0,-19.5 79,-19.5 79,-0.5 0,-0.5"/>
<text text-anchor="middle" x="39.5" y="-7.5" font-family="Helvetica,sans-Serif" font-size="10.00">Ioss::EdgeSet</text>
</a>
</g>
</g>
<!-- Node1&#45;&gt;Node3 -->
<g id="edge2" class="edge">
<title>Node1&#45;&gt;Node3</title>
<path fill="none" stroke="midnightblue" d="M160.17,-53.04C131,-42.88 89.86,-28.55 63.95,-19.52"/>
<polygon fill="midnightblue" stroke="midnightblue" points="159.34,-56.46 169.94,-56.44 161.65,-49.85 159.34,-56.46"/>
</g>
<!-- Node4 -->
<g id="node4" class="node">
<title>Node4</title>
<g id="a_node4"><a xlink:href="classIoss_1_1ElementSet.html" target="_top" xlink:title="A collection of elements.">
<polygon fill="white" stroke="black" points="97.5,-0.5 97.5,-19.5 189.5,-19.5 189.5,-0.5 97.5,-0.5"/>
<text text-anchor="middle" x="143.5" y="-7.5" font-family="Helvetica,sans-Serif" font-size="10.00">Ioss::ElementSet</text>
</a>
</g>
</g>
<!-- Node1&#45;&gt;Node4 -->
<g id="edge3" class="edge">
<title>Node1&#45;&gt;Node4</title>
<path fill="none" stroke="midnightblue" d="M179.12,-48.72C170.13,-39.2 159.14,-27.56 151.76,-19.75"/>
<polygon fill="midnightblue" stroke="midnightblue" points="176.67,-51.22 186.08,-56.08 181.76,-46.41 176.67,-51.22"/>
</g>
<!-- Node5 -->
<g id="node5" class="node">
<title>Node5</title>
<g id="a_node5"><a xlink:href="classIoss_1_1FaceSet.html" target="_top" xlink:title="A collection of element faces.">
<polygon fill="white" stroke="black" points="207.5,-0.5 207.5,-19.5 285.5,-19.5 285.5,-0.5 207.5,-0.5"/>
<text text-anchor="middle" x="246.5" y="-7.5" font-family="Helvetica,sans-Serif" font-size="10.00">Ioss::FaceSet</text>
</a>
</g>
</g>
<!-- Node1&#45;&gt;Node5 -->
<g id="edge4" class="edge">
<title>Node1&#45;&gt;Node5</title>
<path fill="none" stroke="midnightblue" d="M210.18,-48.72C219.34,-39.2 230.55,-27.56 238.07,-19.75"/>
<polygon fill="midnightblue" stroke="midnightblue" points="207.5,-46.45 203.09,-56.08 212.54,-51.31 207.5,-46.45"/>
</g>
<!-- Node6 -->
<g id="node6" class="node">
<title>Node6</title>
<g id="a_node6"><a xlink:href="classIoss_1_1NodeSet.html" target="_top" xlink:title="A collection of nodes.">
<polygon fill="white" stroke="black" points="303.5,-0.5 303.5,-19.5 383.5,-19.5 383.5,-0.5 303.5,-0.5"/>
<text text-anchor="middle" x="343.5" y="-7.5" font-family="Helvetica,sans-Serif" font-size="10.00">Ioss::NodeSet</text>
</a>
</g>
</g>
<!-- Node1&#45;&gt;Node6 -->
<g id="edge5" class="edge">
<title>Node1&#45;&gt;Node6</title>
<path fill="none" stroke="midnightblue" d="M227.87,-52.91C255.88,-42.75 295.2,-28.51 320,-19.52"/>
<polygon fill="midnightblue" stroke="midnightblue" points="226.32,-49.75 218.11,-56.44 228.7,-56.33 226.32,-49.75"/>
</g>
<!-- Node2 -->
<g id="node2" class="node">
<title>Node2</title>
<g id="a_node2"><a xlink:href="classIoss_1_1GroupingEntity.html" target="_top" xlink:title="Base class for all &#39;grouping&#39; entities. The following derived classes are typical:">
<polygon fill="white" stroke="black" points="141.5,-112.5 141.5,-131.5 247.5,-131.5 247.5,-112.5 141.5,-112.5"/>
<text text-anchor="middle" x="194.5" y="-119.5" font-family="Helvetica,sans-Serif" font-size="10.00">Ioss::GroupingEntity</text>
</a>
</g>
</g>
<!-- Node2&#45;&gt;Node1 -->
<g id="edge1" class="edge">
<title>Node2&#45;&gt;Node1</title>
<path fill="none" stroke="midnightblue" d="M194.5,-101.8C194.5,-92.91 194.5,-82.78 194.5,-75.75"/>
<polygon fill="midnightblue" stroke="midnightblue" points="191,-102.08 194.5,-112.08 198,-102.08 191,-102.08"/>
</g>
</g>
</svg>
