<?xml version="1.0" encoding="UTF-8" standalone="no"?>
<!DOCTYPE svg PUBLIC "-//W3C//DTD SVG 1.1//EN"
 "http://www.w3.org/Graphics/SVG/1.1/DTD/svg11.dtd">
<!-- Generated by graphviz version 2.40.1 (20161225.0304)
 -->
<!-- Title: Iogs::DatabaseIO::get_element_map Pages: 1 -->
<svg width="271pt" height="37pt"
 viewBox="0.00 0.00 270.56 37.00" xmlns="http://www.w3.org/2000/svg" xmlns:xlink="http://www.w3.org/1999/xlink">
<g id="graph0" class="graph" transform="scale(1 1) rotate(0) translate(4 33)">
<title>Iogs::DatabaseIO::get_element_map</title>
<polygon fill="#ffffff" stroke="transparent" points="-4,4 -4,-33 266.5605,-33 266.5605,4 -4,4"/>
<!-- Node49 -->
<g id="node1" class="node">
<title>Node49</title>
<polygon fill="#bfbfbf" stroke="#000000" points="0,-.5 0,-28.5 113.2803,-28.5 113.2803,-.5 0,-.5"/>
<text text-anchor="start" x="8" y="-16.5" font-family="Helvetica,sans-Serif" font-size="10.00" fill="#000000">Iogs::DatabaseIO::get</text>
<text text-anchor="middle" x="56.6401" y="-6.5" font-family="Helvetica,sans-Serif" font-size="10.00" fill="#000000">_element_map</text>
</g>
<!-- Node50 -->
<g id="node2" class="node">
<title>Node50</title>
<g id="a_node2"><a xlink:href="$classIogs_1_1DatabaseIO.html#a57aa8b0fb15166ceff8a7d5c90b0262f" xlink:title="Iogs::DatabaseIO::get\l_field_internal">
<polygon fill="#ffffff" stroke="#000000" points="149.2803,-.5 149.2803,-28.5 262.5605,-28.5 262.5605,-.5 149.2803,-.5"/>
<text text-anchor="start" x="157.2803" y="-16.5" font-family="Helvetica,sans-Serif" font-size="10.00" fill="#000000">Iogs::DatabaseIO::get</text>
<text text-anchor="middle" x="205.9204" y="-6.5" font-family="Helvetica,sans-Serif" font-size="10.00" fill="#000000">_field_internal</text>
</a>
</g>
</g>
<!-- Node49&#45;&gt;Node50 -->
<g id="edge1" class="edge">
<title>Node49&#45;&gt;Node50</title>
<path fill="none" stroke="#191970" d="M123.7738,-14.5C132.2724,-14.5 140.9021,-14.5 149.2162,-14.5"/>
<polygon fill="#191970" stroke="#191970" points="123.5025,-11.0001 113.5025,-14.5 123.5024,-18.0001 123.5025,-11.0001"/>
</g>
</g>
</svg>
