<?xml version="1.0" encoding="UTF-8" standalone="no"?>
<!DOCTYPE svg PUBLIC "-//W3C//DTD SVG 1.1//EN"
 "http://www.w3.org/Graphics/SVG/1.1/DTD/svg11.dtd">
<!-- Generated by graphviz version 2.40.1 (20161225.0304)
 -->
<!-- Title: Ioss::EdgeBlock::get_implicit_property Pages: 1 -->
<svg width="712pt" height="117pt"
 viewBox="0.00 0.00 712.25 117.00" xmlns="http://www.w3.org/2000/svg" xmlns:xlink="http://www.w3.org/1999/xlink">
<g id="graph0" class="graph" transform="scale(1 1) rotate(0) translate(4 113)">
<title>Ioss::EdgeBlock::get_implicit_property</title>
<polygon fill="#ffffff" stroke="transparent" points="-4,4 -4,-113 708.2539,-113 708.2539,4 -4,4"/>
<!-- Node8 -->
<g id="node1" class="node">
<title>Node8</title>
<polygon fill="#bfbfbf" stroke="#000000" points="0,-35.5 0,-63.5 107.1621,-63.5 107.1621,-35.5 0,-35.5"/>
<text text-anchor="start" x="8" y="-51.5" font-family="Helvetica,sans-Serif" font-size="10.00" fill="#000000">Ioss::EdgeBlock::get</text>
<text text-anchor="middle" x="53.5811" y="-41.5" font-family="Helvetica,sans-Serif" font-size="10.00" fill="#000000">_implicit_property</text>
</g>
<!-- Node9 -->
<g id="node2" class="node">
<title>Node9</title>
<g id="a_node2"><a xlink:href="classIoss_1_1EntityBlock.html#a5f67c2555a9b93afd9e2388411173957" target="_top" xlink:title="Calculate and get an implicit property. ">
<polygon fill="#ffffff" stroke="#000000" points="143.1621,-35.5 143.1621,-63.5 251.4277,-63.5 251.4277,-35.5 143.1621,-35.5"/>
<text text-anchor="start" x="151.1621" y="-51.5" font-family="Helvetica,sans-Serif" font-size="10.00" fill="#000000">Ioss::EntityBlock::</text>
<text text-anchor="middle" x="197.2949" y="-41.5" font-family="Helvetica,sans-Serif" font-size="10.00" fill="#000000">get_implicit_property</text>
</a>
</g>
</g>
<!-- Node8&#45;&gt;Node9 -->
<g id="edge1" class="edge">
<title>Node8&#45;&gt;Node9</title>
<path fill="none" stroke="#191970" d="M107.5037,-49.5C115.7708,-49.5 124.3763,-49.5 132.8432,-49.5"/>
<polygon fill="#191970" stroke="#191970" points="133.0701,-53.0001 143.0701,-49.5 133.07,-46.0001 133.0701,-53.0001"/>
</g>
<!-- Node10 -->
<g id="node3" class="node">
<title>Node10</title>
<g id="a_node3"><a xlink:href="namespaceanonymous__namespace_02io__info_8C_03.html#ac76aa36231a3291b803cc8e620fce319" target="_top" xlink:title="anonymous_namespace\l\{io_info::C\}::name">
<polygon fill="#ffffff" stroke="#000000" points="437.25,-57.5 437.25,-85.5 562.21,-85.5 562.21,-57.5 437.25,-57.5"/>
<text text-anchor="start" x="445.25" y="-73.5" font-family="Helvetica,sans-Serif" font-size="10.00" fill="#000000">anonymous_namespace</text>
<text text-anchor="middle" x="499.73" y="-63.5" font-family="Helvetica,sans-Serif" font-size="10.00" fill="#000000">{io_info::C}::name</text>
</a>
</g>
</g>
<!-- Node9&#45;&gt;Node10 -->
<g id="edge2" class="edge">
<title>Node9&#45;&gt;Node10</title>
<path fill="none" stroke="#191970" d="M251.7135,-53.4586C300.6823,-57.0207 373.0148,-62.2824 426.9442,-66.2054"/>
<polygon fill="#191970" stroke="#191970" points="426.9032,-69.7115 437.1308,-66.9464 427.4111,-62.73 426.9032,-69.7115"/>
</g>
<!-- Node13 -->
<g id="node6" class="node">
<title>Node13</title>
<g id="a_node6"><a xlink:href="classIoss_1_1GroupingEntity.html#a1041e50c022e4f3965eb8b26c982f4c1" target="_top" xlink:title="Calculate and get an implicit property. ">
<polygon fill="#ffffff" stroke="#000000" points="287.4277,-14.5 287.4277,-42.5 401.25,-42.5 401.25,-14.5 287.4277,-14.5"/>
<text text-anchor="start" x="295.4277" y="-30.5" font-family="Helvetica,sans-Serif" font-size="10.00" fill="#000000">Ioss::GroupingEntity</text>
<text text-anchor="middle" x="344.3389" y="-20.5" font-family="Helvetica,sans-Serif" font-size="10.00" fill="#000000">::get_implicit_property</text>
</a>
</g>
</g>
<!-- Node9&#45;&gt;Node13 -->
<g id="edge5" class="edge">
<title>Node9&#45;&gt;Node13</title>
<path fill="none" stroke="#191970" d="M251.6309,-41.74C259.9807,-40.5476 268.6856,-39.3044 277.2721,-38.0781"/>
<polygon fill="#191970" stroke="#191970" points="277.8645,-41.5291 287.2692,-36.6504 276.8747,-34.5994 277.8645,-41.5291"/>
</g>
<!-- Node11 -->
<g id="node4" class="node">
<title>Node11</title>
<g id="a_node4"><a xlink:href="classIoss_1_1GroupingEntity.html#adf92c4256dc89b729f4492642bc4d745" target="_top" xlink:title="Get the name of the particular type of entity. ">
<polygon fill="#ffffff" stroke="#000000" points="598.21,-80.5 598.21,-108.5 704.2539,-108.5 704.2539,-80.5 598.21,-80.5"/>
<text text-anchor="start" x="606.21" y="-96.5" font-family="Helvetica,sans-Serif" font-size="10.00" fill="#000000">Ioss::GroupingEntity</text>
<text text-anchor="middle" x="651.2319" y="-86.5" font-family="Helvetica,sans-Serif" font-size="10.00" fill="#000000">::type_string</text>
</a>
</g>
</g>
<!-- Node10&#45;&gt;Node11 -->
<g id="edge3" class="edge">
<title>Node10&#45;&gt;Node11</title>
<path fill="none" stroke="#191970" d="M562.2263,-80.9878C570.7797,-82.2863 579.5659,-83.6201 588.13,-84.9203"/>
<polygon fill="#191970" stroke="#191970" points="587.6423,-88.3863 598.0543,-86.4269 588.693,-81.4656 587.6423,-88.3863"/>
</g>
<!-- Node12 -->
<g id="node5" class="node">
<title>Node12</title>
<g id="a_node5"><a xlink:href="classIoss_1_1GroupingEntity.html#a50d4053f49c8c3205e05d939fdc9fbc5" target="_top" xlink:title="Get name of entity. ">
<polygon fill="#ffffff" stroke="#000000" points="598.21,-33.5 598.21,-61.5 704.2539,-61.5 704.2539,-33.5 598.21,-33.5"/>
<text text-anchor="start" x="606.21" y="-49.5" font-family="Helvetica,sans-Serif" font-size="10.00" fill="#000000">Ioss::GroupingEntity</text>
<text text-anchor="middle" x="651.2319" y="-39.5" font-family="Helvetica,sans-Serif" font-size="10.00" fill="#000000">::name</text>
</a>
</g>
</g>
<!-- Node10&#45;&gt;Node12 -->
<g id="edge4" class="edge">
<title>Node10&#45;&gt;Node12</title>
<path fill="none" stroke="#191970" d="M562.2263,-61.5997C570.7797,-60.2447 579.5659,-58.8529 588.13,-57.4962"/>
<polygon fill="#191970" stroke="#191970" points="588.7251,-60.9457 598.0543,-55.9241 587.6298,-54.0319 588.7251,-60.9457"/>
</g>
<!-- Node13&#45;&gt;Node10 -->
<g id="edge7" class="edge">
<title>Node13&#45;&gt;Node10</title>
<path fill="none" stroke="#191970" d="M395.2197,-42.5798C409.2435,-46.4605 424.5957,-50.7088 439.1113,-54.7255"/>
<polygon fill="#191970" stroke="#191970" points="438.429,-58.1682 449.0003,-57.462 440.296,-51.4217 438.429,-58.1682"/>
</g>
<!-- Node14 -->
<g id="node7" class="node">
<title>Node14</title>
<g id="a_node7"><a xlink:href="namespaceanonymous__namespace_02Ioss__Field_8C_03.html#a54a9e06fd87ef280d7cd5a33d986222e" target="_top" xlink:title="anonymous_namespace\l\{Ioss_Field::C\}::type\l_string">
<polygon fill="#ffffff" stroke="#000000" points="437.25,-.5 437.25,-38.5 562.21,-38.5 562.21,-.5 437.25,-.5"/>
<text text-anchor="start" x="445.25" y="-26.5" font-family="Helvetica,sans-Serif" font-size="10.00" fill="#000000">anonymous_namespace</text>
<text text-anchor="start" x="445.25" y="-16.5" font-family="Helvetica,sans-Serif" font-size="10.00" fill="#000000">{Ioss_Field::C}::type</text>
<text text-anchor="middle" x="499.73" y="-6.5" font-family="Helvetica,sans-Serif" font-size="10.00" fill="#000000">_string</text>
</a>
</g>
</g>
<!-- Node13&#45;&gt;Node14 -->
<g id="edge6" class="edge">
<title>Node13&#45;&gt;Node14</title>
<path fill="none" stroke="#191970" d="M401.3184,-25.1998C409.6608,-24.7167 418.347,-24.2136 426.9524,-23.7152"/>
<polygon fill="#191970" stroke="#191970" points="427.211,-27.2061 436.9919,-23.1337 426.8062,-20.2179 427.211,-27.2061"/>
</g>
</g>
</svg>
