<?xml version="1.0" encoding="UTF-8" standalone="no"?>
<!DOCTYPE svg PUBLIC "-//W3C//DTD SVG 1.1//EN"
 "http://www.w3.org/Graphics/SVG/1.1/DTD/svg11.dtd">
<!-- Generated by graphviz version 2.43.0 (0)
 -->
<!-- Title: internal::arg_map&lt; Context &gt; Pages: 1 -->
<svg width="109pt" height="187pt"
 viewBox="0.00 0.00 108.77 187.00" xmlns="http://www.w3.org/2000/svg" xmlns:xlink="http://www.w3.org/1999/xlink">
<g id="graph0" class="graph" transform="scale(1 1) rotate(0) translate(4 183)">
<title>internal::arg_map&lt; Context &gt;</title>
<polygon fill="white" stroke="transparent" points="-4,4 -4,-183 104.77,-183 104.77,4 -4,4"/>
<!-- Node1 -->
<g id="node1" class="node">
<title>Node1</title>
<g id="a_node1"><a xlink:title=" ">
<polygon fill="#bfbfbf" stroke="black" points="0.55,-0.5 0.55,-28.5 100.21,-28.5 100.21,-0.5 0.55,-0.5"/>
<text text-anchor="start" x="8.55" y="-16.5" font-family="Helvetica,sans-Serif" font-size="10.00">internal::arg_map&lt;</text>
<text text-anchor="middle" x="50.38" y="-6.5" font-family="Helvetica,sans-Serif" font-size="10.00"> Context &gt;</text>
</a>
</g>
</g>
<!-- Node2 -->
<g id="node2" class="node">
<title>Node2</title>
<g id="a_node2"><a xlink:href="structinternal_1_1arg__map_1_1entry.html" target="_top" xlink:title=" ">
<polygon fill="white" stroke="black" points="0.55,-75.5 0.55,-103.5 100.21,-103.5 100.21,-75.5 0.55,-75.5"/>
<text text-anchor="start" x="8.55" y="-91.5" font-family="Helvetica,sans-Serif" font-size="10.00">internal::arg_map&lt;</text>
<text text-anchor="middle" x="50.38" y="-81.5" font-family="Helvetica,sans-Serif" font-size="10.00"> Context &gt;::entry</text>
</a>
</g>
</g>
<!-- Node2&#45;&gt;Node1 -->
<g id="edge1" class="edge">
<title>Node2&#45;&gt;Node1</title>
<path fill="none" stroke="#9a32cd" stroke-dasharray="5,2" d="M50.38,-65.24C50.38,-53.26 50.38,-39.08 50.38,-28.93"/>
<polygon fill="#9a32cd" stroke="#9a32cd" points="46.88,-65.45 50.38,-75.45 53.88,-65.45 46.88,-65.45"/>
<text text-anchor="middle" x="64.28" y="-49" font-family="Helvetica,sans-Serif" font-size="10.00"> map_</text>
</g>
<!-- Node3 -->
<g id="node3" class="node">
<title>Node3</title>
<g id="a_node3"><a xlink:href="classbasic__string__view.html" target="_top" xlink:title=" ">
<polygon fill="white" stroke="black" points="0,-150.5 0,-178.5 100.77,-178.5 100.77,-150.5 0,-150.5"/>
<text text-anchor="start" x="8" y="-166.5" font-family="Helvetica,sans-Serif" font-size="10.00">basic_string_view&lt;</text>
<text text-anchor="middle" x="50.38" y="-156.5" font-family="Helvetica,sans-Serif" font-size="10.00"> char_type &gt;</text>
</a>
</g>
</g>
<!-- Node3&#45;&gt;Node2 -->
<g id="edge2" class="edge">
<title>Node3&#45;&gt;Node2</title>
<path fill="none" stroke="#9a32cd" stroke-dasharray="5,2" d="M50.38,-140.24C50.38,-128.26 50.38,-114.08 50.38,-103.93"/>
<polygon fill="#9a32cd" stroke="#9a32cd" points="46.88,-140.45 50.38,-150.45 53.88,-140.45 46.88,-140.45"/>
<text text-anchor="middle" x="64.28" y="-124" font-family="Helvetica,sans-Serif" font-size="10.00"> name</text>
</g>
</g>
</svg>
