<?xml version="1.0" encoding="UTF-8" standalone="no"?>
<!DOCTYPE svg PUBLIC "-//W3C//DTD SVG 1.1//EN"
 "http://www.w3.org/Graphics/SVG/1.1/DTD/svg11.dtd">
<!-- Generated by graphviz version 2.40.1 (20161225.0304)
 -->
<!-- Title: Ioss::Utils::check_dynamic_cast Pages: 1 -->
<!--zoomable 799 -->
<svg id="main" version="1.1" xmlns="http://www.w3.org/2000/svg" xmlns:xlink="http://www.w3.org/1999/xlink" xml:space="preserve" onload="init(evt)">
<style type="text/css"><![CDATA[
.edge:hover path { stroke: red; }
.edge:hover polygon { stroke: red; fill: red; }
]]></style>
<script type="text/javascript"><![CDATA[
var edges = document.getElementsByTagName('g');
if (edges && edges.length) {
  for (var i=0;i<edges.length;i++) {
    if (edges[i].id.substr(0,4)=='edge') {
      edges[i].setAttribute('class','edge');
    }
  }
}
]]></script>
        <defs>
                <circle id="rim" cx="0" cy="0" r="7"/>
                <circle id="rim2" cx="0" cy="0" r="3.5"/>
                <g id="zoomPlus">
                        <use xlink:href="#rim" fill="#404040">
                                <set attributeName="fill" to="#808080" begin="zoomplus.mouseover" end="zoomplus.mouseout"/>
                        </use>
                        <path d="M-4,0h8M0,-4v8" fill="none" stroke="white" stroke-width="1.5" pointer-events="none"/>
                </g>
                <g id="zoomMin">
                        <use xlink:href="#rim" fill="#404040">
                                <set attributeName="fill" to="#808080" begin="zoomminus.mouseover" end="zoomminus.mouseout"/>
                        </use>
                        <path d="M-4,0h8" fill="none" stroke="white" stroke-width="1.5" pointer-events="none"/>
                </g>
                <g id="dirArrow">
                        <path fill="none" stroke="white" stroke-width="1.5" d="M0,-3.0v7 M-2.5,-0.5L0,-3.0L2.5,-0.5"/>
                </g>
               <g id="resetDef">
                       <use xlink:href="#rim2" fill="#404040">
                               <set attributeName="fill" to="#808080" begin="reset.mouseover" end="reset.mouseout"/>
                       </use>
               </g>
        </defs>

<script type="text/javascript">
var viewWidth = 619;
var viewHeight = 799;
var sectionId = 'dynsection-6';
</script>
<script xlink:href="svgpan.js"/>
<svg id="graph" class="graph">
<g id="viewport">
<title>Ioss::Utils::check_dynamic_cast</title>
<polygon fill="#ffffff" stroke="transparent" points="-4,4 -4,-795 614.5693,-795 614.5693,4 -4,4"/>
<!-- Node111 -->
<g id="node1" class="node">
<title>Node111</title>
<polygon fill="#bfbfbf" stroke="#000000" points="0,-386.5 0,-414.5 91.0195,-414.5 91.0195,-386.5 0,-386.5"/>
<text text-anchor="start" x="8" y="-402.5" font-family="Helvetica,sans-Serif" font-size="10.00" fill="#000000">Ioss::Utils::check</text>
<text text-anchor="middle" x="45.5098" y="-392.5" font-family="Helvetica,sans-Serif" font-size="10.00" fill="#000000">_dynamic_cast</text>
</g>
<!-- Node112 -->
<g id="node2" class="node">
<title>Node112</title>
<g id="a_node2"><a xlink:href="classIocgns_1_1DecompositionDataBase.html#aab0e3fdf4561f9561d18ecfb6a6cc97c" target="_top" xlink:title="Iocgns::DecompositionData\lBase::communicate_node_data">
<polygon fill="#ffffff" stroke="#000000" points="133.6846,-762.5 133.6846,-790.5 290.334,-790.5 290.334,-762.5 133.6846,-762.5"/>
<text text-anchor="start" x="141.6846" y="-778.5" font-family="Helvetica,sans-Serif" font-size="10.00" fill="#000000">Iocgns::DecompositionData</text>
<text text-anchor="middle" x="212.0093" y="-768.5" font-family="Helvetica,sans-Serif" font-size="10.00" fill="#000000">Base::communicate_node_data</text>
</a>
</g>
</g>
<!-- Node111&#45;&gt;Node112 -->
<g id="edge1" class="edge">
<title>Node111&#45;&gt;Node112</title>
<path fill="none" stroke="#191970" d="M47.942,-425.2379C55.5284,-497.4341 81.0426,-705.7724 127.0195,-753.5 130.3071,-756.9127 134.0447,-759.8362 138.0751,-762.3389"/>
<polygon fill="#191970" stroke="#191970" points="51.3803,-424.4558 46.878,-414.8652 44.4168,-425.1702 51.3803,-424.4558"/>
</g>
<!-- Node113 -->
<g id="node3" class="node">
<title>Node113</title>
<g id="a_node3"><a xlink:href="classIocgns_1_1DecompositionDataBase.html#af7e9316af5bb3184e318c592be734b00" target="_top" xlink:title="Iocgns::DecompositionData\lBase::communicate_element_data">
<polygon fill="#ffffff" stroke="#000000" points="127.0195,-715.5 127.0195,-743.5 296.999,-743.5 296.999,-715.5 127.0195,-715.5"/>
<text text-anchor="start" x="135.0195" y="-731.5" font-family="Helvetica,sans-Serif" font-size="10.00" fill="#000000">Iocgns::DecompositionData</text>
<text text-anchor="middle" x="212.0093" y="-721.5" font-family="Helvetica,sans-Serif" font-size="10.00" fill="#000000">Base::communicate_element_data</text>
</a>
</g>
</g>
<!-- Node111&#45;&gt;Node113 -->
<g id="edge2" class="edge">
<title>Node111&#45;&gt;Node113</title>
<path fill="none" stroke="#191970" d="M48.8442,-424.9399C58.2178,-490.1563 86.7676,-666.0882 127.0195,-706.5 130.4715,-709.9657 134.3884,-712.9243 138.6001,-715.4485"/>
<polygon fill="#191970" stroke="#191970" points="52.2737,-424.1938 47.4114,-414.7806 45.3423,-425.1715 52.2737,-424.1938"/>
</g>
<!-- Node114 -->
<g id="node4" class="node">
<title>Node114</title>
<g id="a_node4"><a xlink:href="classIocgns_1_1DecompositionDataBase.html#ac603e680da9f07c6d2006416cbcff4f6" target="_top" xlink:title="Iocgns::DecompositionData\lBase::get_node_entity_proc_data">
<polygon fill="#ffffff" stroke="#000000" points="129.229,-668.5 129.229,-696.5 294.7896,-696.5 294.7896,-668.5 129.229,-668.5"/>
<text text-anchor="start" x="137.229" y="-684.5" font-family="Helvetica,sans-Serif" font-size="10.00" fill="#000000">Iocgns::DecompositionData</text>
<text text-anchor="middle" x="212.0093" y="-674.5" font-family="Helvetica,sans-Serif" font-size="10.00" fill="#000000">Base::get_node_entity_proc_data</text>
</a>
</g>
</g>
<!-- Node111&#45;&gt;Node114 -->
<g id="edge3" class="edge">
<title>Node111&#45;&gt;Node114</title>
<path fill="none" stroke="#191970" d="M50.0408,-424.6114C61.3562,-482.3656 92.4405,-626.2973 127.0195,-659.5 130.5478,-662.8879 134.522,-665.7882 138.7755,-668.2698"/>
<polygon fill="#191970" stroke="#191970" points="53.4348,-423.7272 48.1037,-414.5714 46.5616,-425.0534 53.4348,-423.7272"/>
</g>
<!-- Node115 -->
<g id="node5" class="node">
<title>Node115</title>
<g id="a_node5"><a xlink:href="classIocgns_1_1DecompositionDataBase.html#a8dc971e2118463b864956e9824360885" target="_top" xlink:title="Iocgns::DecompositionData\lBase::get_block_connectivity">
<polygon fill="#ffffff" stroke="#000000" points="139.5269,-621.5 139.5269,-649.5 284.4917,-649.5 284.4917,-621.5 139.5269,-621.5"/>
<text text-anchor="start" x="147.5269" y="-637.5" font-family="Helvetica,sans-Serif" font-size="10.00" fill="#000000">Iocgns::DecompositionData</text>
<text text-anchor="middle" x="212.0093" y="-627.5" font-family="Helvetica,sans-Serif" font-size="10.00" fill="#000000">Base::get_block_connectivity</text>
</a>
</g>
</g>
<!-- Node111&#45;&gt;Node115 -->
<g id="edge4" class="edge">
<title>Node111&#45;&gt;Node115</title>
<path fill="none" stroke="#191970" d="M47.7656,-424.6043C53.1953,-468.5874 71.0138,-561.9731 127.0195,-612.5 130.8784,-615.9814 135.2114,-618.9437 139.8246,-621.4635"/>
<polygon fill="#191970" stroke="#191970" points="51.2299,-424.09 46.6364,-414.5428 44.2736,-424.8708 51.2299,-424.09"/>
</g>
<!-- Node116 -->
<g id="node6" class="node">
<title>Node116</title>
<g id="a_node6"><a xlink:href="classIocgns_1_1DecompositionDataBase.html#a9b9779ecaf5da2da625814b5653148af" target="_top" xlink:title="Iocgns::DecompositionData\lBase::get_element_field">
<polygon fill="#ffffff" stroke="#000000" points="142.8667,-574.5 142.8667,-602.5 281.1519,-602.5 281.1519,-574.5 142.8667,-574.5"/>
<text text-anchor="start" x="150.8667" y="-590.5" font-family="Helvetica,sans-Serif" font-size="10.00" fill="#000000">Iocgns::DecompositionData</text>
<text text-anchor="middle" x="212.0093" y="-580.5" font-family="Helvetica,sans-Serif" font-size="10.00" fill="#000000">Base::get_element_field</text>
</a>
</g>
</g>
<!-- Node111&#45;&gt;Node116 -->
<g id="edge5" class="edge">
<title>Node111&#45;&gt;Node116</title>
<path fill="none" stroke="#191970" d="M50.8583,-425.081C60.0379,-461.3117 82.2874,-528.7217 127.0195,-565.5 131.7425,-569.3832 137.0645,-572.6144 142.683,-575.3026"/>
<polygon fill="#191970" stroke="#191970" points="54.154,-423.8146 48.4187,-414.9064 47.3469,-425.4469 54.154,-423.8146"/>
</g>
<!-- Node117 -->
<g id="node7" class="node">
<title>Node117</title>
<g id="a_node7"><a xlink:href="classIocgns_1_1DecompositionDataBase.html#a84a976635f9d3fc4e7384386d54d75b2" target="_top" xlink:title="Iocgns::DecompositionData\lBase::get_node_field">
<polygon fill="#ffffff" stroke="#000000" points="142.8667,-527.5 142.8667,-555.5 281.1519,-555.5 281.1519,-527.5 142.8667,-527.5"/>
<text text-anchor="start" x="150.8667" y="-543.5" font-family="Helvetica,sans-Serif" font-size="10.00" fill="#000000">Iocgns::DecompositionData</text>
<text text-anchor="middle" x="212.0093" y="-533.5" font-family="Helvetica,sans-Serif" font-size="10.00" fill="#000000">Base::get_node_field</text>
</a>
</g>
</g>
<!-- Node111&#45;&gt;Node117 -->
<g id="edge6" class="edge">
<title>Node111&#45;&gt;Node117</title>
<path fill="none" stroke="#191970" d="M55.5656,-423.9567C68.2941,-450.8371 92.7646,-494.2877 127.0195,-518.5 131.8877,-521.941 137.2451,-524.8673 142.8297,-527.356"/>
<polygon fill="#191970" stroke="#191970" points="58.6036,-422.1835 51.2663,-414.5405 52.236,-425.0909 58.6036,-422.1835"/>
</g>
<!-- Node118 -->
<g id="node8" class="node">
<title>Node118</title>
<g id="a_node8"><a xlink:href="classIocgns_1_1DecompositionDataBase.html#ada81e86b6b02885c99b70de86bf05da0" target="_top" xlink:title="Iocgns::DecompositionData\lBase::get_sideset_element_side">
<polygon fill="#ffffff" stroke="#000000" points="131.7388,-480.5 131.7388,-508.5 292.2798,-508.5 292.2798,-480.5 131.7388,-480.5"/>
<text text-anchor="start" x="139.7388" y="-496.5" font-family="Helvetica,sans-Serif" font-size="10.00" fill="#000000">Iocgns::DecompositionData</text>
<text text-anchor="middle" x="212.0093" y="-486.5" font-family="Helvetica,sans-Serif" font-size="10.00" fill="#000000">Base::get_sideset_element_side</text>
</a>
</g>
</g>
<!-- Node111&#45;&gt;Node118 -->
<g id="edge7" class="edge">
<title>Node111&#45;&gt;Node118</title>
<path fill="none" stroke="#191970" d="M64.8542,-421.9457C80.2517,-437.7887 103.1188,-458.7381 127.0195,-471.5 133.4919,-474.956 140.525,-477.9245 147.6811,-480.467"/>
<polygon fill="#191970" stroke="#191970" points="67.3441,-419.4849 57.9236,-414.6368 62.2646,-424.3015 67.3441,-419.4849"/>
</g>
<!-- Node119 -->
<g id="node9" class="node">
<title>Node119</title>
<g id="a_node9"><a xlink:href="classIofx_1_1DatabaseIO.html#a78baca50e8ed293624236a1b497f69b3" target="_top" xlink:title="Iofx::DatabaseIO::get\l_blocks">
<polygon fill="#ffffff" stroke="#000000" points="156.7607,-433.5 156.7607,-461.5 267.2578,-461.5 267.2578,-433.5 156.7607,-433.5"/>
<text text-anchor="start" x="164.7607" y="-449.5" font-family="Helvetica,sans-Serif" font-size="10.00" fill="#000000">Iofx::DatabaseIO::get</text>
<text text-anchor="middle" x="212.0093" y="-439.5" font-family="Helvetica,sans-Serif" font-size="10.00" fill="#000000">_blocks</text>
</a>
</g>
</g>
<!-- Node111&#45;&gt;Node119 -->
<g id="edge8" class="edge">
<title>Node111&#45;&gt;Node119</title>
<path fill="none" stroke="#191970" d="M100.8928,-416.9856C109.626,-419.5337 118.5618,-422.1107 127.0195,-424.5 137.4638,-427.4505 148.6521,-430.5335 159.3684,-433.4486"/>
<polygon fill="#191970" stroke="#191970" points="101.7357,-413.5855 91.155,-414.1327 99.7676,-420.3032 101.7357,-413.5855"/>
</g>
<!-- Node124 -->
<g id="node14" class="node">
<title>Node124</title>
<g id="a_node14"><a xlink:href="classIofx_1_1DatabaseIO.html#a1746997a058b3088ef7c35cfdfc94cb3" target="_top" xlink:title="Iofx::DatabaseIO::write\l_entity_transient_field">
<polygon fill="#ffffff" stroke="#000000" points="153.1548,-386.5 153.1548,-414.5 270.8638,-414.5 270.8638,-386.5 153.1548,-386.5"/>
<text text-anchor="start" x="161.1548" y="-402.5" font-family="Helvetica,sans-Serif" font-size="10.00" fill="#000000">Iofx::DatabaseIO::write</text>
<text text-anchor="middle" x="212.0093" y="-392.5" font-family="Helvetica,sans-Serif" font-size="10.00" fill="#000000">_entity_transient_field</text>
</a>
</g>
</g>
<!-- Node111&#45;&gt;Node124 -->
<g id="edge15" class="edge">
<title>Node111&#45;&gt;Node124</title>
<path fill="none" stroke="#191970" d="M101.5385,-400.5C118.1259,-400.5 136.3333,-400.5 153.0973,-400.5"/>
<polygon fill="#191970" stroke="#191970" points="101.4473,-397.0001 91.4472,-400.5 101.4472,-404.0001 101.4473,-397.0001"/>
</g>
<!-- Node128 -->
<g id="node18" class="node">
<title>Node128</title>
<g id="a_node18"><a xlink:href="classIopx_1_1DatabaseIO.html#a96be05c3beac4bd001b8e6c2185170bf" target="_top" xlink:title="Iopx::DatabaseIO::write\l_entity_transient_field">
<polygon fill="#ffffff" stroke="#000000" points="151.7632,-339.5 151.7632,-367.5 272.2554,-367.5 272.2554,-339.5 151.7632,-339.5"/>
<text text-anchor="start" x="159.7632" y="-355.5" font-family="Helvetica,sans-Serif" font-size="10.00" fill="#000000">Iopx::DatabaseIO::write</text>
<text text-anchor="middle" x="212.0093" y="-345.5" font-family="Helvetica,sans-Serif" font-size="10.00" fill="#000000">_entity_transient_field</text>
</a>
</g>
</g>
<!-- Node111&#45;&gt;Node128 -->
<g id="edge19" class="edge">
<title>Node111&#45;&gt;Node128</title>
<path fill="none" stroke="#191970" d="M101.2115,-384.7763C120.9173,-379.2137 142.944,-372.996 162.135,-367.5787"/>
<polygon fill="#191970" stroke="#191970" points="100.1203,-381.4475 91.4472,-387.5326 102.022,-388.1843 100.1203,-381.4475"/>
</g>
<!-- Node132 -->
<g id="node22" class="node">
<title>Node132</title>
<g id="a_node22"><a xlink:href="classIopx_1_1DecompositionDataBase.html#aa14572d794a79ee5793ee8514fa42863" target="_top" xlink:title="Iopx::DecompositionDataBase\l::communicate_node_data">
<polygon fill="#ffffff" stroke="#000000" points="136.751,-292.5 136.751,-320.5 287.2676,-320.5 287.2676,-292.5 136.751,-292.5"/>
<text text-anchor="start" x="144.751" y="-308.5" font-family="Helvetica,sans-Serif" font-size="10.00" fill="#000000">Iopx::DecompositionDataBase</text>
<text text-anchor="middle" x="212.0093" y="-298.5" font-family="Helvetica,sans-Serif" font-size="10.00" fill="#000000">::communicate_node_data</text>
</a>
</g>
</g>
<!-- Node111&#45;&gt;Node132 -->
<g id="edge23" class="edge">
<title>Node111&#45;&gt;Node132</title>
<path fill="none" stroke="#191970" d="M65.2275,-379.1626C80.6721,-363.621 103.4296,-343.1554 127.0195,-330.5 134.1802,-326.6585 142.0188,-323.3789 149.9476,-320.5932"/>
<polygon fill="#191970" stroke="#191970" points="62.7141,-376.7269 58.2615,-386.3408 67.7375,-381.6019 62.7141,-376.7269"/>
</g>
<!-- Node133 -->
<g id="node23" class="node">
<title>Node133</title>
<g id="a_node23"><a xlink:href="classIopx_1_1DecompositionDataBase.html#ac0699c1ddb75139cb9f67938c4061c19" target="_top" xlink:title="Iopx::DecompositionDataBase\l::communicate_element_data">
<polygon fill="#ffffff" stroke="#000000" points="136.751,-245.5 136.751,-273.5 287.2676,-273.5 287.2676,-245.5 136.751,-245.5"/>
<text text-anchor="start" x="144.751" y="-261.5" font-family="Helvetica,sans-Serif" font-size="10.00" fill="#000000">Iopx::DecompositionDataBase</text>
<text text-anchor="middle" x="212.0093" y="-251.5" font-family="Helvetica,sans-Serif" font-size="10.00" fill="#000000">::communicate_element_data</text>
</a>
</g>
</g>
<!-- Node111&#45;&gt;Node133 -->
<g id="edge24" class="edge">
<title>Node111&#45;&gt;Node133</title>
<path fill="none" stroke="#191970" d="M55.8673,-376.8856C68.7443,-350.2634 93.2235,-307.5644 127.0195,-283.5 132.5149,-279.587 138.6319,-276.3101 144.9946,-273.5663"/>
<polygon fill="#191970" stroke="#191970" points="52.564,-375.6875 51.5048,-386.2293 58.9067,-378.6489 52.564,-375.6875"/>
</g>
<!-- Node134 -->
<g id="node24" class="node">
<title>Node134</title>
<g id="a_node24"><a xlink:href="classIopx_1_1DecompositionDataBase.html#a3a7aba8a7aeff3958f4b920acb739a39" target="_top" xlink:title="Iopx::DecompositionDataBase\l::get_node_entity_proc_data">
<polygon fill="#ffffff" stroke="#000000" points="136.751,-198.5 136.751,-226.5 287.2676,-226.5 287.2676,-198.5 136.751,-198.5"/>
<text text-anchor="start" x="144.751" y="-214.5" font-family="Helvetica,sans-Serif" font-size="10.00" fill="#000000">Iopx::DecompositionDataBase</text>
<text text-anchor="middle" x="212.0093" y="-204.5" font-family="Helvetica,sans-Serif" font-size="10.00" fill="#000000">::get_node_entity_proc_data</text>
</a>
</g>
</g>
<!-- Node111&#45;&gt;Node134 -->
<g id="edge25" class="edge">
<title>Node111&#45;&gt;Node134</title>
<path fill="none" stroke="#191970" d="M50.954,-376.1276C60.2563,-340.1929 82.6614,-273.2883 127.0195,-236.5 131.7402,-232.5849 137.0606,-229.3074 142.678,-226.5637"/>
<polygon fill="#191970" stroke="#191970" points="47.462,-375.6718 48.4779,-386.2178 54.2603,-377.3401 47.462,-375.6718"/>
</g>
<!-- Node135 -->
<g id="node25" class="node">
<title>Node135</title>
<g id="a_node25"><a xlink:href="classIopx_1_1DecompositionDataBase.html#aad0063a919217ef56870ea4d76d72b1d" target="_top" xlink:title="Iopx::DecompositionDataBase\l::get_set_mesh_double">
<polygon fill="#ffffff" stroke="#000000" points="136.751,-151.5 136.751,-179.5 287.2676,-179.5 287.2676,-151.5 136.751,-151.5"/>
<text text-anchor="start" x="144.751" y="-167.5" font-family="Helvetica,sans-Serif" font-size="10.00" fill="#000000">Iopx::DecompositionDataBase</text>
<text text-anchor="middle" x="212.0093" y="-157.5" font-family="Helvetica,sans-Serif" font-size="10.00" fill="#000000">::get_set_mesh_double</text>
</a>
</g>
</g>
<!-- Node111&#45;&gt;Node135 -->
<g id="edge26" class="edge">
<title>Node111&#45;&gt;Node135</title>
<path fill="none" stroke="#191970" d="M47.8954,-376.2485C53.518,-332.4338 71.6134,-239.9575 127.0195,-189.5 131.3272,-185.5771 136.2286,-182.29 141.4527,-179.5364"/>
<polygon fill="#191970" stroke="#191970" points="44.4071,-375.9448 46.7196,-386.2841 51.3596,-376.7594 44.4071,-375.9448"/>
</g>
<!-- Node136 -->
<g id="node26" class="node">
<title>Node136</title>
<g id="a_node26"><a xlink:href="classIopx_1_1DecompositionDataBase.html#a9e32656ad93e46f723db259bc4fc0e27" target="_top" xlink:title="Iopx::DecompositionDataBase\l::get_set_mesh_var">
<polygon fill="#ffffff" stroke="#000000" points="136.751,-104.5 136.751,-132.5 287.2676,-132.5 287.2676,-104.5 136.751,-104.5"/>
<text text-anchor="start" x="144.751" y="-120.5" font-family="Helvetica,sans-Serif" font-size="10.00" fill="#000000">Iopx::DecompositionDataBase</text>
<text text-anchor="middle" x="212.0093" y="-110.5" font-family="Helvetica,sans-Serif" font-size="10.00" fill="#000000">::get_set_mesh_var</text>
</a>
</g>
</g>
<!-- Node111&#45;&gt;Node136 -->
<g id="edge27" class="edge">
<title>Node111&#45;&gt;Node136</title>
<path fill="none" stroke="#191970" d="M50.0768,-376.5046C61.4731,-319.0246 92.7248,-175.7549 127.0195,-142.5 130.9821,-138.6576 135.5109,-135.4213 140.3683,-132.6965"/>
<polygon fill="#191970" stroke="#191970" points="46.6071,-376.0112 48.1253,-386.4967 53.4773,-377.353 46.6071,-376.0112"/>
</g>
<!-- Node137 -->
<g id="node27" class="node">
<title>Node137</title>
<g id="a_node27"><a xlink:href="classIopx_1_1DecompositionDataBase.html#a62dd62cc80c5987a0203b5311f6e7f4e" target="_top" xlink:title="Iopx::DecompositionDataBase\l::get_block_connectivity">
<polygon fill="#ffffff" stroke="#000000" points="136.751,-57.5 136.751,-85.5 287.2676,-85.5 287.2676,-57.5 136.751,-57.5"/>
<text text-anchor="start" x="144.751" y="-73.5" font-family="Helvetica,sans-Serif" font-size="10.00" fill="#000000">Iopx::DecompositionDataBase</text>
<text text-anchor="middle" x="212.0093" y="-63.5" font-family="Helvetica,sans-Serif" font-size="10.00" fill="#000000">::get_block_connectivity</text>
</a>
</g>
</g>
<!-- Node111&#45;&gt;Node137 -->
<g id="edge28" class="edge">
<title>Node111&#45;&gt;Node137</title>
<path fill="none" stroke="#191970" d="M48.8795,-376.1627C58.3418,-311.2168 87.0947,-135.9909 127.0195,-95.5 130.8949,-91.5697 135.361,-88.2702 140.1751,-85.5017"/>
<polygon fill="#191970" stroke="#191970" points="45.3837,-375.8848 47.4325,-386.2796 52.3131,-376.876 45.3837,-375.8848"/>
</g>
<!-- Node138 -->
<g id="node28" class="node">
<title>Node138</title>
<g id="a_node28"><a xlink:href="namespaceanonymous__namespace_02struc__to__unstruc_8C_03.html#af3f63f14be0e1889bd15e7a681fe5dd5" target="_top" xlink:title="anonymous_namespace\l\{struc_to_unstruc::C\}\l::output_sidesets">
<polygon fill="#ffffff" stroke="#000000" points="149.5293,-.5 149.5293,-38.5 274.4893,-38.5 274.4893,-.5 149.5293,-.5"/>
<text text-anchor="start" x="157.5293" y="-26.5" font-family="Helvetica,sans-Serif" font-size="10.00" fill="#000000">anonymous_namespace</text>
<text text-anchor="start" x="157.5293" y="-16.5" font-family="Helvetica,sans-Serif" font-size="10.00" fill="#000000">{struc_to_unstruc::C}</text>
<text text-anchor="middle" x="212.0093" y="-6.5" font-family="Helvetica,sans-Serif" font-size="10.00" fill="#000000">::output_sidesets</text>
</a>
</g>
</g>
<!-- Node111&#45;&gt;Node138 -->
<g id="edge29" class="edge">
<title>Node111&#45;&gt;Node138</title>
<path fill="none" stroke="#191970" d="M48.0985,-375.968C56.1184,-304.3525 82.7106,-97.5401 127.0195,-48.5 133.1862,-41.6749 141.0247,-36.4553 149.4369,-32.4638"/>
<polygon fill="#191970" stroke="#191970" points="44.5813,-375.9344 46.971,-386.2562 51.5397,-376.6971 44.5813,-375.9344"/>
</g>
<!-- Node120 -->
<g id="node10" class="node">
<title>Node120</title>
<g id="a_node10"><a xlink:href="classIofx_1_1DatabaseIO.html#a5352613bb7149d93d7948d02518a4b23" target="_top" xlink:title="Iofx::DatabaseIO::get\l_elemblocks">
<polygon fill="#ffffff" stroke="#000000" points="340.2305,-527.5 340.2305,-555.5 450.7275,-555.5 450.7275,-527.5 340.2305,-527.5"/>
<text text-anchor="start" x="348.2305" y="-543.5" font-family="Helvetica,sans-Serif" font-size="10.00" fill="#000000">Iofx::DatabaseIO::get</text>
<text text-anchor="middle" x="395.479" y="-533.5" font-family="Helvetica,sans-Serif" font-size="10.00" fill="#000000">_elemblocks</text>
</a>
</g>
</g>
<!-- Node119&#45;&gt;Node120 -->
<g id="edge9" class="edge">
<title>Node119&#45;&gt;Node120</title>
<path fill="none" stroke="#191970" d="M277.0402,-461.0791C284.0798,-463.9234 290.8934,-467.3569 296.999,-471.5 318.7721,-486.2743 311.8147,-502.8933 332.999,-518.5 337.6521,-521.928 342.8709,-524.8942 348.2571,-527.4484"/>
<polygon fill="#191970" stroke="#191970" points="277.9401,-457.6822 267.346,-457.5544 275.5481,-464.2608 277.9401,-457.6822"/>
</g>
<!-- Node122 -->
<g id="node12" class="node">
<title>Node122</title>
<g id="a_node12"><a xlink:href="classIofx_1_1DatabaseIO.html#aee5d0d60d0f0ab20a3965c38d76deb30" target="_top" xlink:title="Iofx::DatabaseIO::get\l_faceblocks">
<polygon fill="#ffffff" stroke="#000000" points="340.2305,-480.5 340.2305,-508.5 450.7275,-508.5 450.7275,-480.5 340.2305,-480.5"/>
<text text-anchor="start" x="348.2305" y="-496.5" font-family="Helvetica,sans-Serif" font-size="10.00" fill="#000000">Iofx::DatabaseIO::get</text>
<text text-anchor="middle" x="395.479" y="-486.5" font-family="Helvetica,sans-Serif" font-size="10.00" fill="#000000">_faceblocks</text>
</a>
</g>
</g>
<!-- Node119&#45;&gt;Node122 -->
<g id="edge11" class="edge">
<title>Node119&#45;&gt;Node122</title>
<path fill="none" stroke="#191970" d="M276.8169,-464.102C297.726,-469.4583 320.6831,-475.3393 340.7872,-480.4894"/>
<polygon fill="#191970" stroke="#191970" points="277.612,-460.6927 267.0562,-461.6015 275.8749,-467.4737 277.612,-460.6927"/>
</g>
<!-- Node123 -->
<g id="node13" class="node">
<title>Node123</title>
<g id="a_node13"><a xlink:href="classIofx_1_1DatabaseIO.html#a01fc0509353b79eb6285efdf2269b40b" target="_top" xlink:title="Iofx::DatabaseIO::get\l_edgeblocks">
<polygon fill="#ffffff" stroke="#000000" points="340.2305,-433.5 340.2305,-461.5 450.7275,-461.5 450.7275,-433.5 340.2305,-433.5"/>
<text text-anchor="start" x="348.2305" y="-449.5" font-family="Helvetica,sans-Serif" font-size="10.00" fill="#000000">Iofx::DatabaseIO::get</text>
<text text-anchor="middle" x="395.479" y="-439.5" font-family="Helvetica,sans-Serif" font-size="10.00" fill="#000000">_edgeblocks</text>
</a>
</g>
</g>
<!-- Node119&#45;&gt;Node123 -->
<g id="edge13" class="edge">
<title>Node119&#45;&gt;Node123</title>
<path fill="none" stroke="#191970" d="M277.7279,-447.5C298.1607,-447.5 320.4708,-447.5 340.1229,-447.5"/>
<polygon fill="#191970" stroke="#191970" points="277.5542,-444.0001 267.5541,-447.5 277.5541,-451.0001 277.5542,-444.0001"/>
</g>
<!-- Node121 -->
<g id="node11" class="node">
<title>Node121</title>
<g id="a_node11"><a xlink:href="classIofx_1_1DatabaseIO.html#a79b188c0f0320a9656ad80866af72fb6" target="_top" xlink:title="Iofx::DatabaseIO::read\l_meta_data__">
<polygon fill="#ffffff" stroke="#000000" points="493.959,-480.5 493.959,-508.5 610.5693,-508.5 610.5693,-480.5 493.959,-480.5"/>
<text text-anchor="start" x="501.959" y="-496.5" font-family="Helvetica,sans-Serif" font-size="10.00" fill="#000000">Iofx::DatabaseIO::read</text>
<text text-anchor="middle" x="552.2642" y="-486.5" font-family="Helvetica,sans-Serif" font-size="10.00" fill="#000000">_meta_data__</text>
</a>
</g>
</g>
<!-- Node120&#45;&gt;Node121 -->
<g id="edge10" class="edge">
<title>Node120&#45;&gt;Node121</title>
<path fill="none" stroke="#191970" d="M452.5637,-524.3875C469.9691,-519.1699 488.891,-513.4976 505.527,-508.5106"/>
<polygon fill="#191970" stroke="#191970" points="451.0935,-521.1743 442.5197,-527.3985 453.1036,-527.8795 451.0935,-521.1743"/>
</g>
<!-- Node122&#45;&gt;Node121 -->
<g id="edge12" class="edge">
<title>Node122&#45;&gt;Node121</title>
<path fill="none" stroke="#191970" d="M461.0364,-494.5C471.8967,-494.5 483.095,-494.5 493.7665,-494.5"/>
<polygon fill="#191970" stroke="#191970" points="460.7556,-491.0001 450.7556,-494.5 460.7556,-498.0001 460.7556,-491.0001"/>
</g>
<!-- Node123&#45;&gt;Node121 -->
<g id="edge14" class="edge">
<title>Node123&#45;&gt;Node121</title>
<path fill="none" stroke="#191970" d="M452.5637,-464.6125C469.9691,-469.8301 488.891,-475.5024 505.527,-480.4894"/>
<polygon fill="#191970" stroke="#191970" points="453.1036,-461.1205 442.5197,-461.6015 451.0935,-467.8257 453.1036,-461.1205"/>
</g>
<!-- Node125 -->
<g id="node15" class="node">
<title>Node125</title>
<g id="a_node15"><a xlink:href="classIofx_1_1DatabaseIO.html#a23d401f65b0c36d264a1eaabbe07a6f9" target="_top" xlink:title="Iofx::DatabaseIO::put\l_field_internal">
<polygon fill="#ffffff" stroke="#000000" points="340.2305,-386.5 340.2305,-414.5 450.7275,-414.5 450.7275,-386.5 340.2305,-386.5"/>
<text text-anchor="start" x="348.2305" y="-402.5" font-family="Helvetica,sans-Serif" font-size="10.00" fill="#000000">Iofx::DatabaseIO::put</text>
<text text-anchor="middle" x="395.479" y="-392.5" font-family="Helvetica,sans-Serif" font-size="10.00" fill="#000000">_field_internal</text>
</a>
</g>
</g>
<!-- Node124&#45;&gt;Node125 -->
<g id="edge16" class="edge">
<title>Node124&#45;&gt;Node125</title>
<path fill="none" stroke="#191970" d="M281.0852,-400.5C300.5279,-400.5 321.4192,-400.5 339.9595,-400.5"/>
<polygon fill="#191970" stroke="#191970" points="281.0702,-397.0001 271.0702,-400.5 281.0701,-404.0001 281.0702,-397.0001"/>
</g>
<!-- Node126 -->
<g id="node16" class="node">
<title>Node126</title>
<g id="a_node16"><a xlink:href="classIofx_1_1DatabaseIO.html#aff2a32e19d8777c2fb7691538f1204f2" target="_top" xlink:title="Iofx::DatabaseIO::put\l_Xset_field_internal">
<polygon fill="#ffffff" stroke="#000000" points="340.2305,-339.5 340.2305,-367.5 450.7275,-367.5 450.7275,-339.5 340.2305,-339.5"/>
<text text-anchor="start" x="348.2305" y="-355.5" font-family="Helvetica,sans-Serif" font-size="10.00" fill="#000000">Iofx::DatabaseIO::put</text>
<text text-anchor="middle" x="395.479" y="-345.5" font-family="Helvetica,sans-Serif" font-size="10.00" fill="#000000">_Xset_field_internal</text>
</a>
</g>
</g>
<!-- Node124&#45;&gt;Node126 -->
<g id="edge17" class="edge">
<title>Node124&#45;&gt;Node126</title>
<path fill="none" stroke="#191970" d="M276.8169,-383.898C297.726,-378.5417 320.6831,-372.6607 340.7872,-367.5106"/>
<polygon fill="#191970" stroke="#191970" points="275.8749,-380.5263 267.0562,-386.3985 277.612,-387.3073 275.8749,-380.5263"/>
</g>
<!-- Node127 -->
<g id="node17" class="node">
<title>Node127</title>
<g id="a_node17"><a xlink:href="classIofx_1_1DatabaseIO.html#ae547ecad41ae4f842db8776e39654f2c" target="_top" xlink:title="Iofx::DatabaseIO::put\l_field_internal">
<polygon fill="#ffffff" stroke="#000000" points="497.0156,-339.5 497.0156,-367.5 607.5127,-367.5 607.5127,-339.5 497.0156,-339.5"/>
<text text-anchor="start" x="505.0156" y="-355.5" font-family="Helvetica,sans-Serif" font-size="10.00" fill="#000000">Iofx::DatabaseIO::put</text>
<text text-anchor="middle" x="552.2642" y="-345.5" font-family="Helvetica,sans-Serif" font-size="10.00" fill="#000000">_field_internal</text>
</a>
</g>
</g>
<!-- Node126&#45;&gt;Node127 -->
<g id="edge18" class="edge">
<title>Node126&#45;&gt;Node127</title>
<path fill="none" stroke="#191970" d="M461.1044,-353.5C473.0321,-353.5 485.365,-353.5 496.9583,-353.5"/>
<polygon fill="#191970" stroke="#191970" points="460.7556,-350.0001 450.7556,-353.5 460.7556,-357.0001 460.7556,-350.0001"/>
</g>
<!-- Node129 -->
<g id="node19" class="node">
<title>Node129</title>
<g id="a_node19"><a xlink:href="classIopx_1_1DatabaseIO.html#afd24273dacc289d454e1adee67f390d8" target="_top" xlink:title="Iopx::DatabaseIO::put\l_field_internal">
<polygon fill="#ffffff" stroke="#000000" points="338.8389,-292.5 338.8389,-320.5 452.1191,-320.5 452.1191,-292.5 338.8389,-292.5"/>
<text text-anchor="start" x="346.8389" y="-308.5" font-family="Helvetica,sans-Serif" font-size="10.00" fill="#000000">Iopx::DatabaseIO::put</text>
<text text-anchor="middle" x="395.479" y="-298.5" font-family="Helvetica,sans-Serif" font-size="10.00" fill="#000000">_field_internal</text>
</a>
</g>
</g>
<!-- Node128&#45;&gt;Node129 -->
<g id="edge20" class="edge">
<title>Node128&#45;&gt;Node129</title>
<path fill="none" stroke="#191970" d="M276.8169,-336.898C297.726,-331.5417 320.6831,-325.6607 340.7872,-320.5106"/>
<polygon fill="#191970" stroke="#191970" points="275.8749,-333.5263 267.0562,-339.3985 277.612,-340.3073 275.8749,-333.5263"/>
</g>
<!-- Node130 -->
<g id="node20" class="node">
<title>Node130</title>
<g id="a_node20"><a xlink:href="classIopx_1_1DatabaseIO.html#ac4c1249be1086d90e5aeb7a366393fd9" target="_top" xlink:title="Iopx::DatabaseIO::put\l_Xset_field_internal">
<polygon fill="#ffffff" stroke="#000000" points="338.8389,-245.5 338.8389,-273.5 452.1191,-273.5 452.1191,-245.5 338.8389,-245.5"/>
<text text-anchor="start" x="346.8389" y="-261.5" font-family="Helvetica,sans-Serif" font-size="10.00" fill="#000000">Iopx::DatabaseIO::put</text>
<text text-anchor="middle" x="395.479" y="-251.5" font-family="Helvetica,sans-Serif" font-size="10.00" fill="#000000">_Xset_field_internal</text>
</a>
</g>
</g>
<!-- Node128&#45;&gt;Node130 -->
<g id="edge21" class="edge">
<title>Node128&#45;&gt;Node130</title>
<path fill="none" stroke="#191970" d="M282.196,-338.5751C287.394,-336.2596 292.3969,-333.5862 296.999,-330.5 318.8525,-315.8449 311.9246,-299.2549 332.999,-283.5 338.1177,-279.6733 343.9209,-276.3832 349.8783,-273.5756"/>
<polygon fill="#191970" stroke="#191970" points="280.6683,-335.4162 272.6736,-342.3686 283.2589,-341.9192 280.6683,-335.4162"/>
</g>
<!-- Node131 -->
<g id="node21" class="node">
<title>Node131</title>
<g id="a_node21"><a xlink:href="classIopx_1_1DatabaseIO.html#ae523d7f885ce420952101ccf31e0c5da" target="_top" xlink:title="Iopx::DatabaseIO::put\l_field_internal">
<polygon fill="#ffffff" stroke="#000000" points="495.624,-245.5 495.624,-273.5 608.9043,-273.5 608.9043,-245.5 495.624,-245.5"/>
<text text-anchor="start" x="503.624" y="-261.5" font-family="Helvetica,sans-Serif" font-size="10.00" fill="#000000">Iopx::DatabaseIO::put</text>
<text text-anchor="middle" x="552.2642" y="-251.5" font-family="Helvetica,sans-Serif" font-size="10.00" fill="#000000">_field_internal</text>
</a>
</g>
</g>
<!-- Node130&#45;&gt;Node131 -->
<g id="edge22" class="edge">
<title>Node130&#45;&gt;Node131</title>
<path fill="none" stroke="#191970" d="M462.849,-259.5C473.7384,-259.5 484.9173,-259.5 495.5226,-259.5"/>
<polygon fill="#191970" stroke="#191970" points="462.5256,-256.0001 452.5256,-259.5 462.5255,-263.0001 462.5256,-256.0001"/>
</g>
<!-- Node139 -->
<g id="node29" class="node">
<title>Node139</title>
<g id="a_node29"><a xlink:href="namespaceanonymous__namespace_02struc__to__unstruc_8C_03.html#a1f676fd5f6a957f657aee10356750a70" target="_top" xlink:title="anonymous_namespace\l\{struc_to_unstruc::C\}\l::create_unstructured">
<polygon fill="#ffffff" stroke="#000000" points="332.999,-.5 332.999,-38.5 457.959,-38.5 457.959,-.5 332.999,-.5"/>
<text text-anchor="start" x="340.999" y="-26.5" font-family="Helvetica,sans-Serif" font-size="10.00" fill="#000000">anonymous_namespace</text>
<text text-anchor="start" x="340.999" y="-16.5" font-family="Helvetica,sans-Serif" font-size="10.00" fill="#000000">{struc_to_unstruc::C}</text>
<text text-anchor="middle" x="395.479" y="-6.5" font-family="Helvetica,sans-Serif" font-size="10.00" fill="#000000">::create_unstructured</text>
</a>
</g>
</g>
<!-- Node138&#45;&gt;Node139 -->
<g id="edge30" class="edge">
<title>Node138&#45;&gt;Node139</title>
<path fill="none" stroke="#191970" d="M284.9196,-19.5C300.7722,-19.5 317.4086,-19.5 332.8232,-19.5"/>
<polygon fill="#191970" stroke="#191970" points="284.636,-16.0001 274.636,-19.5 284.636,-23.0001 284.636,-16.0001"/>
</g>
<!-- Node140 -->
<g id="node30" class="node">
<title>Node140</title>
<g id="a_node30"><a xlink:href="struc__to__unstruc_8C.html#a0ddf1224851353fc92bfbff6f499fa97" target="_top" xlink:title="main">
<polygon fill="#ffffff" stroke="#000000" points="533.4268,-10.5 533.4268,-28.5 571.1016,-28.5 571.1016,-10.5 533.4268,-10.5"/>
<text text-anchor="middle" x="552.2642" y="-16.5" font-family="Helvetica,sans-Serif" font-size="10.00" fill="#000000">main</text>
</a>
</g>
</g>
<!-- Node139&#45;&gt;Node140 -->
<g id="edge31" class="edge">
<title>Node139&#45;&gt;Node140</title>
<path fill="none" stroke="#191970" d="M468.5346,-19.5C492.464,-19.5 517.0596,-19.5 533.3473,-19.5"/>
<polygon fill="#191970" stroke="#191970" points="468.3462,-16.0001 458.3461,-19.5 468.3461,-23.0001 468.3462,-16.0001"/>
</g>
</g>
</svg>
        <g id="navigator" transform="translate(0 0)" fill="#404254">
                <rect fill="#f2f5e9" fill-opacity="0.5" stroke="#606060" stroke-width=".5" x="0" y="0" width="60" height="60"/>
                <use id="zoomplus" xlink:href="#zoomPlus" x="17" y="9" onmousedown="handleZoom(evt,'in')"/>
                <use id="zoomminus" xlink:href="#zoomMin" x="42" y="9" onmousedown="handleZoom(evt,'out')"/>
                <use id="reset" xlink:href="#resetDef" x="30" y="36" onmousedown="handleReset()"/>
                <g id="arrowUp" xlink:href="#dirArrow" transform="translate(30 24)" onmousedown="handlePan(0,-1)">
                  <use xlink:href="#rim" fill="#404040">
                        <set attributeName="fill" to="#808080" begin="arrowUp.mouseover" end="arrowUp.mouseout"/>
                  </use>
                  <path fill="none" stroke="white" stroke-width="1.5" d="M0,-3.0v7 M-2.5,-0.5L0,-3.0L2.5,-0.5"/>
                </g>
                <g id="arrowRight" xlink:href="#dirArrow" transform="rotate(90) translate(36 -43)" onmousedown="handlePan(1,0)">
                  <use xlink:href="#rim" fill="#404040">
                        <set attributeName="fill" to="#808080" begin="arrowRight.mouseover" end="arrowRight.mouseout"/>
                  </use>
                  <path fill="none" stroke="white" stroke-width="1.5" d="M0,-3.0v7 M-2.5,-0.5L0,-3.0L2.5,-0.5"/>
                </g>
                <g id="arrowDown" xlink:href="#dirArrow" transform="rotate(180) translate(-30 -48)" onmousedown="handlePan(0,1)">
                  <use xlink:href="#rim" fill="#404040">
                        <set attributeName="fill" to="#808080" begin="arrowDown.mouseover" end="arrowDown.mouseout"/>
                  </use>
                  <path fill="none" stroke="white" stroke-width="1.5" d="M0,-3.0v7 M-2.5,-0.5L0,-3.0L2.5,-0.5"/>
                </g>
                <g id="arrowLeft" xlink:href="#dirArrow" transform="rotate(270) translate(-36 17)" onmousedown="handlePan(-1,0)">
                  <use xlink:href="#rim" fill="#404040">
                        <set attributeName="fill" to="#808080" begin="arrowLeft.mouseover" end="arrowLeft.mouseout"/>
                  </use>
                  <path fill="none" stroke="white" stroke-width="1.5" d="M0,-3.0v7 M-2.5,-0.5L0,-3.0L2.5,-0.5"/>
                </g>
        </g>
        <svg viewBox="0 0 15 15" width="100%" height="30px" preserveAspectRatio="xMaxYMin meet">
         <g id="arrow_out" transform="scale(0.3 0.3)">
          <a xlink:href="classIoss_1_1Utils_a7f09e4d2470eab1b903ca420d96e6748_icgraph_org.svg" target="_base">
           <rect id="button" ry="5" rx="5" y="6" x="6" height="38" width="38"
                fill="#f2f5e9" fill-opacity="0.5" stroke="#606060" stroke-width="1.0"/>
           <path id="arrow"
             d="M 11.500037,31.436501 C 11.940474,20.09759 22.043105,11.32322 32.158766,21.979434 L 37.068811,17.246167 C 37.068811,17.246167 37.088388,32 37.088388,32 L 22.160133,31.978069 C 22.160133,31.978069 26.997745,27.140456 26.997745,27.140456 C 18.528582,18.264221 13.291696,25.230495 11.500037,31.436501 z"
             style="fill:#404040;"/>
          </a>
         </g>
        </svg>
</svg>
