<?xml version="1.0" encoding="UTF-8" standalone="no"?>
<!DOCTYPE svg PUBLIC "-//W3C//DTD SVG 1.1//EN"
 "http://www.w3.org/Graphics/SVG/1.1/DTD/svg11.dtd">
<!-- Generated by graphviz version 2.40.1 (20161225.0304)
 -->
<!-- Title: Iopx::DatabaseIO::get_blocks Pages: 1 -->
<svg width="426pt" height="37pt"
 viewBox="0.00 0.00 425.95 37.00" xmlns="http://www.w3.org/2000/svg" xmlns:xlink="http://www.w3.org/1999/xlink">
<g id="graph0" class="graph" transform="scale(1 1) rotate(0) translate(4 33)">
<title>Iopx::DatabaseIO::get_blocks</title>
<polygon fill="#ffffff" stroke="transparent" points="-4,4 -4,-33 421.9541,-33 421.9541,4 -4,4"/>
<!-- Node196 -->
<g id="node1" class="node">
<title>Node196</title>
<polygon fill="#bfbfbf" stroke="#000000" points="0,-.5 0,-28.5 113.2803,-28.5 113.2803,-.5 0,-.5"/>
<text text-anchor="start" x="8" y="-16.5" font-family="Helvetica,sans-Serif" font-size="10.00" fill="#000000">Iopx::DatabaseIO::get</text>
<text text-anchor="middle" x="56.6401" y="-6.5" font-family="Helvetica,sans-Serif" font-size="10.00" fill="#000000">_blocks</text>
</g>
<!-- Node197 -->
<g id="node2" class="node">
<title>Node197</title>
<g id="a_node2"><a xlink:href="$classIopx_1_1DatabaseIO.html#aa10c1946bf4abe12e8229d86153a934b" xlink:title="Iopx::DatabaseIO::get\l_elemblocks">
<polygon fill="#ffffff" stroke="#000000" points="149.2803,-.5 149.2803,-28.5 262.5605,-28.5 262.5605,-.5 149.2803,-.5"/>
<text text-anchor="start" x="157.2803" y="-16.5" font-family="Helvetica,sans-Serif" font-size="10.00" fill="#000000">Iopx::DatabaseIO::get</text>
<text text-anchor="middle" x="205.9204" y="-6.5" font-family="Helvetica,sans-Serif" font-size="10.00" fill="#000000">_elemblocks</text>
</a>
</g>
</g>
<!-- Node196&#45;&gt;Node197 -->
<g id="edge1" class="edge">
<title>Node196&#45;&gt;Node197</title>
<path fill="none" stroke="#191970" d="M123.7738,-14.5C132.2724,-14.5 140.9021,-14.5 149.2162,-14.5"/>
<polygon fill="#191970" stroke="#191970" points="123.5025,-11.0001 113.5025,-14.5 123.5024,-18.0001 123.5025,-11.0001"/>
</g>
<!-- Node198 -->
<g id="node3" class="node">
<title>Node198</title>
<g id="a_node3"><a xlink:href="$classIopx_1_1DatabaseIO.html#aa5fbe815a5233885cb3491ee0de291a4" xlink:title="Iopx::DatabaseIO::read\l_meta_data__">
<polygon fill="#ffffff" stroke="#000000" points="298.5605,-.5 298.5605,-28.5 417.9541,-28.5 417.9541,-.5 298.5605,-.5"/>
<text text-anchor="start" x="306.5605" y="-16.5" font-family="Helvetica,sans-Serif" font-size="10.00" fill="#000000">Iopx::DatabaseIO::read</text>
<text text-anchor="middle" x="358.2573" y="-6.5" font-family="Helvetica,sans-Serif" font-size="10.00" fill="#000000">_meta_data__</text>
</a>
</g>
</g>
<!-- Node197&#45;&gt;Node198 -->
<g id="edge2" class="edge">
<title>Node197&#45;&gt;Node198</title>
<path fill="none" stroke="#191970" d="M272.9032,-14.5C281.3996,-14.5 290.0508,-14.5 298.4255,-14.5"/>
<polygon fill="#191970" stroke="#191970" points="272.6451,-11.0001 262.6451,-14.5 272.645,-18.0001 272.6451,-11.0001"/>
</g>
</g>
</svg>
