<?xml version="1.0" encoding="UTF-8" standalone="no"?>
<!DOCTYPE svg PUBLIC "-//W3C//DTD SVG 1.1//EN"
 "http://www.w3.org/Graphics/SVG/1.1/DTD/svg11.dtd">
<!-- Generated by graphviz version 2.40.1 (20161225.0304)
 -->
<!-- Title: vector3d::length Pages: 1 -->
<svg width="814pt" height="162pt"
 viewBox="0.00 0.00 814.33 162.28" xmlns="http://www.w3.org/2000/svg" xmlns:xlink="http://www.w3.org/1999/xlink">
<g id="graph0" class="graph" transform="scale(1 1) rotate(0) translate(4 158.2808)">
<title>vector3d::length</title>
<polygon fill="#ffffff" stroke="transparent" points="-4,4 -4,-158.2808 810.332,-158.2808 810.332,4 -4,4"/>
<!-- Node31 -->
<g id="node1" class="node">
<title>Node31</title>
<polygon fill="#bfbfbf" stroke="#000000" points="0,-82.5 0,-100.5 87.1572,-100.5 87.1572,-82.5 0,-82.5"/>
<text text-anchor="middle" x="43.5786" y="-88.5" font-family="Helvetica,sans-Serif" font-size="10.00" fill="#000000">vector3d::length</text>
</g>
<!-- Node32 -->
<g id="node2" class="node">
<title>Node32</title>
<g id="a_node2"><a xlink:href="$classvector3d.html#a2255661ec6496f7f8dbba7ac406aa668" xlink:title="vector3d::normalize">
<polygon fill="#ffffff" stroke="#000000" points="123.1572,-82.5 123.1572,-100.5 226.418,-100.5 226.418,-82.5 123.1572,-82.5"/>
<text text-anchor="middle" x="174.7876" y="-88.5" font-family="Helvetica,sans-Serif" font-size="10.00" fill="#000000">vector3d::normalize</text>
</a>
</g>
</g>
<!-- Node31&#45;&gt;Node32 -->
<g id="edge1" class="edge">
<title>Node31&#45;&gt;Node32</title>
<path fill="none" stroke="#191970" d="M97.4388,-91.5C105.9186,-91.5 114.669,-91.5 123.0981,-91.5"/>
<polygon fill="#191970" stroke="#191970" points="97.2693,-88.0001 87.2693,-91.5 97.2693,-95.0001 97.2693,-88.0001"/>
</g>
<!-- Node33 -->
<g id="node3" class="node">
<title>Node33</title>
<g id="a_node3"><a xlink:href="$namespaceanonymous__namespace_02cth__pressure__map_8C_03.html#a67fe067db3b0de028d25c261cb8ed7ea" xlink:title="anonymous_namespace\l\{cth_pressure_map::C\}\l::output_normals">
<polygon fill="#ffffff" stroke="#000000" points="435.0576,-110.5 435.0576,-148.5 560.0176,-148.5 560.0176,-110.5 435.0576,-110.5"/>
<text text-anchor="start" x="443.0576" y="-136.5" font-family="Helvetica,sans-Serif" font-size="10.00" fill="#000000">anonymous_namespace</text>
<text text-anchor="start" x="443.0576" y="-126.5" font-family="Helvetica,sans-Serif" font-size="10.00" fill="#000000">{cth_pressure_map::C}</text>
<text text-anchor="middle" x="497.5376" y="-116.5" font-family="Helvetica,sans-Serif" font-size="10.00" fill="#000000">::output_normals</text>
</a>
</g>
</g>
<!-- Node32&#45;&gt;Node33 -->
<g id="edge2" class="edge">
<title>Node32&#45;&gt;Node33</title>
<path fill="none" stroke="#191970" d="M193.3928,-106.9306C210.2269,-119.8187 236.3126,-137.2196 262.418,-144.5 319.3493,-160.3774 386.9214,-153.5516 434.983,-144.5937"/>
<polygon fill="#191970" stroke="#191970" points="195.498,-104.1333 185.4818,-100.6798 191.1582,-109.6257 195.498,-104.1333"/>
</g>
<!-- Node36 -->
<g id="node6" class="node">
<title>Node36</title>
<g id="a_node6"><a xlink:href="$namespaceanonymous__namespace_02cth__pressure__map_8C_03.html#a446004024452fa26eb595e9c94c05e95" xlink:title="anonymous_namespace\l\{cth_pressure_map::C\}\l::calculate_normals">
<polygon fill="#ffffff" stroke="#000000" points="268.2554,-96.5 268.2554,-134.5 393.2153,-134.5 393.2153,-96.5 268.2554,-96.5"/>
<text text-anchor="start" x="276.2554" y="-122.5" font-family="Helvetica,sans-Serif" font-size="10.00" fill="#000000">anonymous_namespace</text>
<text text-anchor="start" x="276.2554" y="-112.5" font-family="Helvetica,sans-Serif" font-size="10.00" fill="#000000">{cth_pressure_map::C}</text>
<text text-anchor="middle" x="330.7354" y="-102.5" font-family="Helvetica,sans-Serif" font-size="10.00" fill="#000000">::calculate_normals</text>
</a>
</g>
</g>
<!-- Node32&#45;&gt;Node36 -->
<g id="edge5" class="edge">
<title>Node32&#45;&gt;Node36</title>
<path fill="none" stroke="#191970" d="M236.8695,-101.0543C247.1804,-102.6411 257.8784,-104.2875 268.2005,-105.876"/>
<polygon fill="#191970" stroke="#191970" points="237.132,-97.5535 226.7159,-99.4917 236.0672,-104.4721 237.132,-97.5535"/>
</g>
<!-- Node37 -->
<g id="node7" class="node">
<title>Node37</title>
<g id="a_node7"><a xlink:href="$namespaceanonymous__namespace_02shell__to__hex_8C_03.html#a74c48a5f56e3d37d30ceaf48ff484691" xlink:title="anonymous_namespace\l\{shell_to_hex::C\}::output\l_normals">
<polygon fill="#ffffff" stroke="#000000" points="435.0527,-34.5 435.0527,-72.5 560.0225,-72.5 560.0225,-34.5 435.0527,-34.5"/>
<text text-anchor="start" x="443.0527" y="-60.5" font-family="Helvetica,sans-Serif" font-size="10.00" fill="#000000">anonymous_namespace</text>
<text text-anchor="start" x="443.0527" y="-50.5" font-family="Helvetica,sans-Serif" font-size="10.00" fill="#000000">{shell_to_hex::C}::output</text>
<text text-anchor="middle" x="497.5376" y="-40.5" font-family="Helvetica,sans-Serif" font-size="10.00" fill="#000000">_normals</text>
</a>
</g>
</g>
<!-- Node32&#45;&gt;Node37 -->
<g id="edge7" class="edge">
<title>Node32&#45;&gt;Node37</title>
<path fill="none" stroke="#191970" d="M236.6043,-84.2218C293.6051,-77.5106 377.8051,-67.5971 435.0257,-60.86"/>
<polygon fill="#191970" stroke="#191970" points="236.1651,-80.7493 226.643,-85.3946 236.9837,-87.7012 236.1651,-80.7493"/>
</g>
<!-- Node40 -->
<g id="node10" class="node">
<title>Node40</title>
<g id="a_node10"><a xlink:href="$namespaceanonymous__namespace_02shell__to__hex_8C_03.html#a30d31d49c5e547b3336c34ac117841bd" xlink:title="anonymous_namespace\l\{shell_to_hex::C\}::calculate\l_normals">
<polygon fill="#ffffff" stroke="#000000" points="262.418,-.5 262.418,-38.5 399.0527,-38.5 399.0527,-.5 262.418,-.5"/>
<text text-anchor="start" x="270.418" y="-26.5" font-family="Helvetica,sans-Serif" font-size="10.00" fill="#000000">anonymous_namespace</text>
<text text-anchor="start" x="270.418" y="-16.5" font-family="Helvetica,sans-Serif" font-size="10.00" fill="#000000">{shell_to_hex::C}::calculate</text>
<text text-anchor="middle" x="330.7354" y="-6.5" font-family="Helvetica,sans-Serif" font-size="10.00" fill="#000000">_normals</text>
</a>
</g>
</g>
<!-- Node32&#45;&gt;Node40 -->
<g id="edge10" class="edge">
<title>Node32&#45;&gt;Node40</title>
<path fill="none" stroke="#191970" d="M203.8635,-78.0759C227.98,-66.9414 262.56,-50.9761 289.5292,-38.5246"/>
<polygon fill="#191970" stroke="#191970" points="202.1504,-75.0117 194.5385,-82.3812 205.0847,-81.367 202.1504,-75.0117"/>
</g>
<!-- Node34 -->
<g id="node4" class="node">
<title>Node34</title>
<g id="a_node4"><a xlink:href="$namespaceanonymous__namespace_02cth__pressure__map_8C_03.html#ab6e9f3bfe09634b75a519699fffef694" xlink:title="anonymous_namespace\l\{cth_pressure_map::C\}\l::file_copy">
<polygon fill="#ffffff" stroke="#000000" points="601.8599,-110.5 601.8599,-148.5 726.8198,-148.5 726.8198,-110.5 601.8599,-110.5"/>
<text text-anchor="start" x="609.8599" y="-136.5" font-family="Helvetica,sans-Serif" font-size="10.00" fill="#000000">anonymous_namespace</text>
<text text-anchor="start" x="609.8599" y="-126.5" font-family="Helvetica,sans-Serif" font-size="10.00" fill="#000000">{cth_pressure_map::C}</text>
<text text-anchor="middle" x="664.3398" y="-116.5" font-family="Helvetica,sans-Serif" font-size="10.00" fill="#000000">::file_copy</text>
</a>
</g>
</g>
<!-- Node33&#45;&gt;Node34 -->
<g id="edge3" class="edge">
<title>Node33&#45;&gt;Node34</title>
<path fill="none" stroke="#191970" d="M570.4381,-129.5C580.8516,-129.5 591.487,-129.5 601.681,-129.5"/>
<polygon fill="#191970" stroke="#191970" points="570.1232,-126.0001 560.1232,-129.5 570.1231,-133.0001 570.1232,-126.0001"/>
</g>
<!-- Node35 -->
<g id="node5" class="node">
<title>Node35</title>
<g id="a_node5"><a xlink:href="$cth__pressure__map_8C.html#a0ddf1224851353fc92bfbff6f499fa97" xlink:title="main">
<polygon fill="#ffffff" stroke="#000000" points="768.6572,-120.5 768.6572,-138.5 806.332,-138.5 806.332,-120.5 768.6572,-120.5"/>
<text text-anchor="middle" x="787.4946" y="-126.5" font-family="Helvetica,sans-Serif" font-size="10.00" fill="#000000">main</text>
</a>
</g>
</g>
<!-- Node34&#45;&gt;Node35 -->
<g id="edge4" class="edge">
<title>Node34&#45;&gt;Node35</title>
<path fill="none" stroke="#191970" d="M737.2821,-129.5C748.8692,-129.5 759.9001,-129.5 768.656,-129.5"/>
<polygon fill="#191970" stroke="#191970" points="736.9996,-126.0001 726.9996,-129.5 736.9996,-133.0001 736.9996,-126.0001"/>
</g>
<!-- Node36&#45;&gt;Node33 -->
<g id="edge6" class="edge">
<title>Node36&#45;&gt;Node33</title>
<path fill="none" stroke="#191970" d="M403.3105,-121.5914C413.8278,-122.4741 424.5786,-123.3764 434.8787,-124.2409"/>
<polygon fill="#191970" stroke="#191970" points="403.5786,-118.1016 393.3209,-120.7529 402.9931,-125.0771 403.5786,-118.1016"/>
</g>
<!-- Node38 -->
<g id="node8" class="node">
<title>Node38</title>
<g id="a_node8"><a xlink:href="$namespaceanonymous__namespace_02shell__to__hex_8C_03.html#ad07d9a4986d20aaf612fb0c191056470" xlink:title="anonymous_namespace\l\{shell_to_hex::C\}::file_copy">
<polygon fill="#ffffff" stroke="#000000" points="596.0225,-39.5 596.0225,-67.5 732.6572,-67.5 732.6572,-39.5 596.0225,-39.5"/>
<text text-anchor="start" x="604.0225" y="-55.5" font-family="Helvetica,sans-Serif" font-size="10.00" fill="#000000">anonymous_namespace</text>
<text text-anchor="middle" x="664.3398" y="-45.5" font-family="Helvetica,sans-Serif" font-size="10.00" fill="#000000">{shell_to_hex::C}::file_copy</text>
</a>
</g>
</g>
<!-- Node37&#45;&gt;Node38 -->
<g id="edge8" class="edge">
<title>Node37&#45;&gt;Node38</title>
<path fill="none" stroke="#191970" d="M570.3451,-53.5C578.805,-53.5 587.4127,-53.5 595.8124,-53.5"/>
<polygon fill="#191970" stroke="#191970" points="570.1232,-50.0001 560.1232,-53.5 570.1231,-57.0001 570.1232,-50.0001"/>
</g>
<!-- Node39 -->
<g id="node9" class="node">
<title>Node39</title>
<g id="a_node9"><a xlink:href="$shell__to__hex_8C.html#a0ddf1224851353fc92bfbff6f499fa97" xlink:title="main">
<polygon fill="#ffffff" stroke="#000000" points="768.6572,-44.5 768.6572,-62.5 806.332,-62.5 806.332,-44.5 768.6572,-44.5"/>
<text text-anchor="middle" x="787.4946" y="-50.5" font-family="Helvetica,sans-Serif" font-size="10.00" fill="#000000">main</text>
</a>
</g>
</g>
<!-- Node38&#45;&gt;Node39 -->
<g id="edge9" class="edge">
<title>Node38&#45;&gt;Node39</title>
<path fill="none" stroke="#191970" d="M742.8249,-53.5C752.3215,-53.5 761.2365,-53.5 768.5668,-53.5"/>
<polygon fill="#191970" stroke="#191970" points="742.76,-50.0001 732.7599,-53.5 742.7599,-57.0001 742.76,-50.0001"/>
</g>
<!-- Node40&#45;&gt;Node37 -->
<g id="edge11" class="edge">
<title>Node40&#45;&gt;Node37</title>
<path fill="none" stroke="#191970" d="M408.8776,-35.4281C417.6192,-37.2099 426.4382,-39.0075 434.9483,-40.7422"/>
<polygon fill="#191970" stroke="#191970" points="409.5591,-31.9951 399.0615,-33.4272 408.1609,-38.854 409.5591,-31.9951"/>
</g>
</g>
</svg>
