<?xml version="1.0" encoding="UTF-8" standalone="no"?>
<!DOCTYPE svg PUBLIC "-//W3C//DTD SVG 1.1//EN"
 "http://www.w3.org/Graphics/SVG/1.1/DTD/svg11.dtd">
<!-- Generated by graphviz version 2.40.1 (20161225.0304)
 -->
<!-- Title: Ioex::DatabaseIO::write_results_metadata Pages: 1 -->
<svg width="292pt" height="74pt"
 viewBox="0.00 0.00 291.68 74.00" xmlns="http://www.w3.org/2000/svg" xmlns:xlink="http://www.w3.org/1999/xlink">
<g id="graph0" class="graph" transform="scale(1 1) rotate(0) translate(4 70)">
<title>Ioex::DatabaseIO::write_results_metadata</title>
<polygon fill="#ffffff" stroke="transparent" points="-4,4 -4,-70 287.6787,-70 287.6787,4 -4,4"/>
<!-- Node1557 -->
<g id="node1" class="node">
<title>Node1557</title>
<polygon fill="#bfbfbf" stroke="#000000" points="0,-21.5 0,-49.5 120.4922,-49.5 120.4922,-21.5 0,-21.5"/>
<text text-anchor="start" x="8" y="-37.5" font-family="Helvetica,sans-Serif" font-size="10.00" fill="#000000">Ioex::DatabaseIO::write</text>
<text text-anchor="middle" x="60.2461" y="-27.5" font-family="Helvetica,sans-Serif" font-size="10.00" fill="#000000">_results_metadata</text>
</g>
<!-- Node1558 -->
<g id="node2" class="node">
<title>Node1558</title>
<g id="a_node2"><a xlink:href="$classIoex_1_1DatabaseIO.html#abca6a0778015aebea67c7f38fdac49a0" xlink:title="Ioex::DatabaseIO::end__">
<polygon fill="#ffffff" stroke="#000000" points="156.4922,-47.5 156.4922,-65.5 283.6787,-65.5 283.6787,-47.5 156.4922,-47.5"/>
<text text-anchor="middle" x="220.0854" y="-53.5" font-family="Helvetica,sans-Serif" font-size="10.00" fill="#000000">Ioex::DatabaseIO::end__</text>
</a>
</g>
</g>
<!-- Node1557&#45;&gt;Node1558 -->
<g id="edge1" class="edge">
<title>Node1557&#45;&gt;Node1558</title>
<path fill="none" stroke="#191970" d="M130.6368,-44.7481C139.2016,-45.8733 147.9145,-47.018 156.3744,-48.1295"/>
<polygon fill="#191970" stroke="#191970" points="131.0452,-41.2717 120.6745,-43.4392 130.1333,-48.2121 131.0452,-41.2717"/>
</g>
<!-- Node1559 -->
<g id="node3" class="node">
<title>Node1559</title>
<g id="a_node3"><a xlink:href="$classIoex_1_1DatabaseIO.html#a517c92d4fe7f508c93ba205521505a87" xlink:title="Ioex::DatabaseIO::begin\l_state__">
<polygon fill="#ffffff" stroke="#000000" points="158.1621,-.5 158.1621,-28.5 282.0088,-28.5 282.0088,-.5 158.1621,-.5"/>
<text text-anchor="start" x="166.1621" y="-16.5" font-family="Helvetica,sans-Serif" font-size="10.00" fill="#000000">Ioex::DatabaseIO::begin</text>
<text text-anchor="middle" x="220.0854" y="-6.5" font-family="Helvetica,sans-Serif" font-size="10.00" fill="#000000">_state__</text>
</a>
</g>
</g>
<!-- Node1557&#45;&gt;Node1559 -->
<g id="edge2" class="edge">
<title>Node1557&#45;&gt;Node1559</title>
<path fill="none" stroke="#191970" d="M130.8018,-26.2303C139.8553,-25.0408 149.0712,-23.83 157.9764,-22.66"/>
<polygon fill="#191970" stroke="#191970" points="130.1333,-22.7879 120.6745,-27.5608 131.0452,-29.7283 130.1333,-22.7879"/>
</g>
</g>
</svg>
