<?xml version="1.0" encoding="UTF-8" standalone="no"?>
<!DOCTYPE svg PUBLIC "-//W3C//DTD SVG 1.1//EN"
 "http://www.w3.org/Graphics/SVG/1.1/DTD/svg11.dtd">
<!-- Generated by graphviz version 2.40.1 (20161225.0304)
 -->
<!-- Title: Iogn::GeneratedMesh::connectivity Pages: 1 -->
<svg width="567pt" height="58pt"
 viewBox="0.00 0.00 566.91 58.00" xmlns="http://www.w3.org/2000/svg" xmlns:xlink="http://www.w3.org/1999/xlink">
<g id="graph0" class="graph" transform="scale(1 1) rotate(0) translate(4 54)">
<title>Iogn::GeneratedMesh::connectivity</title>
<polygon fill="#ffffff" stroke="transparent" points="-4,4 -4,-54 562.9141,-54 562.9141,4 -4,4"/>
<!-- Node82 -->
<g id="node1" class="node">
<title>Node82</title>
<polygon fill="#bfbfbf" stroke="#000000" points="0,-21.5 0,-49.5 112.7285,-49.5 112.7285,-21.5 0,-21.5"/>
<text text-anchor="start" x="8" y="-37.5" font-family="Helvetica,sans-Serif" font-size="10.00" fill="#000000">Iogn::GeneratedMesh</text>
<text text-anchor="middle" x="56.3643" y="-27.5" font-family="Helvetica,sans-Serif" font-size="10.00" fill="#000000">::connectivity</text>
</g>
<!-- Node83 -->
<g id="node2" class="node">
<title>Node83</title>
<g id="a_node2"><a xlink:href="$classIogn_1_1GeneratedMesh.html#a29edc9ec94c7f7d496c1d897adbbf4de" xlink:title="Iogn::GeneratedMesh\l::raw_connectivity">
<polygon fill="#ffffff" stroke="#000000" points="148.7285,-21.5 148.7285,-49.5 261.457,-49.5 261.457,-21.5 148.7285,-21.5"/>
<text text-anchor="start" x="156.7285" y="-37.5" font-family="Helvetica,sans-Serif" font-size="10.00" fill="#000000">Iogn::GeneratedMesh</text>
<text text-anchor="middle" x="205.0928" y="-27.5" font-family="Helvetica,sans-Serif" font-size="10.00" fill="#000000">::raw_connectivity</text>
</a>
</g>
</g>
<!-- Node82&#45;&gt;Node83 -->
<g id="edge1" class="edge">
<title>Node82&#45;&gt;Node83</title>
<path fill="none" stroke="#191970" d="M113.0164,-35.5C121.3038,-35.5 129.9027,-35.5 138.3682,-35.5"/>
<polygon fill="#191970" stroke="#191970" points="138.5982,-39.0001 148.5981,-35.5 138.5981,-32.0001 138.5982,-39.0001"/>
</g>
<!-- Node84 -->
<g id="node3" class="node">
<title>Node84</title>
<g id="a_node3"><a xlink:href="$classIogn_1_1GeneratedMesh.html#a80b39683b24235fcc06f1b8e1df04e4a" xlink:title="Iogn::GeneratedMesh\l::block_count">
<polygon fill="#ffffff" stroke="#000000" points="446.1855,-21.5 446.1855,-49.5 558.9141,-49.5 558.9141,-21.5 446.1855,-21.5"/>
<text text-anchor="start" x="454.1855" y="-37.5" font-family="Helvetica,sans-Serif" font-size="10.00" fill="#000000">Iogn::GeneratedMesh</text>
<text text-anchor="middle" x="502.5498" y="-27.5" font-family="Helvetica,sans-Serif" font-size="10.00" fill="#000000">::block_count</text>
</a>
</g>
</g>
<!-- Node83&#45;&gt;Node84 -->
<g id="edge2" class="edge">
<title>Node83&#45;&gt;Node84</title>
<path fill="none" stroke="#191970" d="M261.7479,-37.6309C273.5476,-37.9931 285.9069,-38.3125 297.457,-38.5 347.552,-39.3133 360.0906,-39.3133 410.1855,-38.5 418.4872,-38.3652 427.2069,-38.1623 435.8363,-37.9244"/>
<polygon fill="#191970" stroke="#191970" points="436.0011,-41.4212 445.8947,-37.6309 435.7969,-34.4241 436.0011,-41.4212"/>
</g>
<!-- Node85 -->
<g id="node4" class="node">
<title>Node85</title>
<g id="a_node4"><a xlink:href="$classIogn_1_1GeneratedMesh.html#a60cc36536d183fc61255883887679477" xlink:title="Iogn::GeneratedMesh\l::element_count_proc">
<polygon fill="#ffffff" stroke="#000000" points="297.457,-.5 297.457,-28.5 410.1855,-28.5 410.1855,-.5 297.457,-.5"/>
<text text-anchor="start" x="305.457" y="-16.5" font-family="Helvetica,sans-Serif" font-size="10.00" fill="#000000">Iogn::GeneratedMesh</text>
<text text-anchor="middle" x="353.8213" y="-6.5" font-family="Helvetica,sans-Serif" font-size="10.00" fill="#000000">::element_count_proc</text>
</a>
</g>
</g>
<!-- Node83&#45;&gt;Node85 -->
<g id="edge3" class="edge">
<title>Node83&#45;&gt;Node85</title>
<path fill="none" stroke="#191970" d="M261.7449,-27.5009C270.1233,-26.3179 278.8203,-25.0899 287.3758,-23.8819"/>
<polygon fill="#191970" stroke="#191970" points="287.9142,-27.3407 297.3266,-22.4769 286.9355,-20.4094 287.9142,-27.3407"/>
</g>
<!-- Node85&#45;&gt;Node84 -->
<g id="edge4" class="edge">
<title>Node85&#45;&gt;Node84</title>
<path fill="none" stroke="#191970" d="M410.4734,-22.4991C418.8519,-23.6821 427.5488,-24.9101 436.1043,-26.1181"/>
<polygon fill="#191970" stroke="#191970" points="435.664,-29.5906 446.0552,-27.5231 436.6427,-22.6593 435.664,-29.5906"/>
</g>
</g>
</svg>
