<?xml version="1.0" encoding="UTF-8" standalone="no"?>
<!DOCTYPE svg PUBLIC "-//W3C//DTD SVG 1.1//EN"
 "http://www.w3.org/Graphics/SVG/1.1/DTD/svg11.dtd">
<!-- Generated by graphviz version 2.40.1 (20161225.0304)
 -->
<!-- Title: Iofx::DatabaseIO::compute_node_status Pages: 1 -->
<!--zoomable 178 -->
<svg id="main" version="1.1" xmlns="http://www.w3.org/2000/svg" xmlns:xlink="http://www.w3.org/1999/xlink" xml:space="preserve" onload="init(evt)">
<style type="text/css"><![CDATA[
.edge:hover path { stroke: red; }
.edge:hover polygon { stroke: red; fill: red; }
]]></style>
<script type="text/javascript"><![CDATA[
var edges = document.getElementsByTagName('g');
if (edges && edges.length) {
  for (var i=0;i<edges.length;i++) {
    if (edges[i].id.substr(0,4)=='edge') {
      edges[i].setAttribute('class','edge');
    }
  }
}
]]></script>
        <defs>
                <circle id="rim" cx="0" cy="0" r="7"/>
                <circle id="rim2" cx="0" cy="0" r="3.5"/>
                <g id="zoomPlus">
                        <use xlink:href="#rim" fill="#404040">
                                <set attributeName="fill" to="#808080" begin="zoomplus.mouseover" end="zoomplus.mouseout"/>
                        </use>
                        <path d="M-4,0h8M0,-4v8" fill="none" stroke="white" stroke-width="1.5" pointer-events="none"/>
                </g>
                <g id="zoomMin">
                        <use xlink:href="#rim" fill="#404040">
                                <set attributeName="fill" to="#808080" begin="zoomminus.mouseover" end="zoomminus.mouseout"/>
                        </use>
                        <path d="M-4,0h8" fill="none" stroke="white" stroke-width="1.5" pointer-events="none"/>
                </g>
                <g id="dirArrow">
                        <path fill="none" stroke="white" stroke-width="1.5" d="M0,-3.0v7 M-2.5,-0.5L0,-3.0L2.5,-0.5"/>
                </g>
               <g id="resetDef">
                       <use xlink:href="#rim2" fill="#404040">
                               <set attributeName="fill" to="#808080" begin="reset.mouseover" end="reset.mouseout"/>
                       </use>
               </g>
        </defs>

<script type="text/javascript">
var viewWidth = 612;
var viewHeight = 178;
var sectionId = 'dynsection-6';
</script>
<script xlink:href="svgpan.js"/>
<svg id="graph" class="graph">
<g id="viewport">
<title>Iofx::DatabaseIO::compute_node_status</title>
<polygon fill="#ffffff" stroke="transparent" points="-4,4 -4,-174 608.4561,-174 608.4561,4 -4,4"/>
<!-- Node82 -->
<g id="node1" class="node">
<title>Node82</title>
<polygon fill="#bfbfbf" stroke="#000000" points="0,-49.5 0,-77.5 134.9502,-77.5 134.9502,-49.5 0,-49.5"/>
<text text-anchor="start" x="8" y="-65.5" font-family="Helvetica,sans-Serif" font-size="10.00" fill="#000000">Iofx::DatabaseIO::compute</text>
<text text-anchor="middle" x="67.4751" y="-55.5" font-family="Helvetica,sans-Serif" font-size="10.00" fill="#000000">_node_status</text>
</g>
<!-- Node83 -->
<g id="node2" class="node">
<title>Node83</title>
<g id="a_node2"><a xlink:href="classIofx_1_1DatabaseIO.html#a55086ffce615e225095187fcf880c8bb" target="_top" xlink:title="Iofx::DatabaseIO::get_sets">
<polygon fill="#ffffff" stroke="#000000" points="170.9502,-75.5 170.9502,-93.5 305.3486,-93.5 305.3486,-75.5 170.9502,-75.5"/>
<text text-anchor="middle" x="238.1494" y="-81.5" font-family="Helvetica,sans-Serif" font-size="10.00" fill="#000000">Iofx::DatabaseIO::get_sets</text>
</a>
</g>
</g>
<!-- Node82&#45;&gt;Node83 -->
<g id="edge1" class="edge">
<title>Node82&#45;&gt;Node83</title>
<path fill="none" stroke="#191970" d="M145.5878,-73.1111C153.9794,-74.1436 162.4649,-75.1877 170.7164,-76.203"/>
<polygon fill="#191970" stroke="#191970" points="145.7731,-69.6076 135.4205,-71.8601 144.9182,-76.5552 145.7731,-69.6076"/>
</g>
<!-- Node89 -->
<g id="node8" class="node">
<title>Node89</title>
<g id="a_node8"><a xlink:href="classIofx_1_1DatabaseIO.html#a8aa664973f5310a6e8eff1d84ba4d51c" target="_top" xlink:title="Iofx::DatabaseIO::get\l_field_internal">
<polygon fill="#ffffff" stroke="#000000" points="182.9009,-28.5 182.9009,-56.5 293.3979,-56.5 293.3979,-28.5 182.9009,-28.5"/>
<text text-anchor="start" x="190.9009" y="-44.5" font-family="Helvetica,sans-Serif" font-size="10.00" fill="#000000">Iofx::DatabaseIO::get</text>
<text text-anchor="middle" x="238.1494" y="-34.5" font-family="Helvetica,sans-Serif" font-size="10.00" fill="#000000">_field_internal</text>
</a>
</g>
</g>
<!-- Node82&#45;&gt;Node89 -->
<g id="edge10" class="edge">
<title>Node82&#45;&gt;Node89</title>
<path fill="none" stroke="#191970" d="M145.4506,-53.9058C158.0413,-52.3566 170.8472,-50.781 182.7612,-49.315"/>
<polygon fill="#191970" stroke="#191970" points="144.9182,-50.4448 135.4205,-55.1399 145.7731,-57.3924 144.9182,-50.4448"/>
</g>
<!-- Node84 -->
<g id="node3" class="node">
<title>Node84</title>
<g id="a_node3"><a xlink:href="classIofx_1_1DatabaseIO.html#a8298d2d8f141676749d6e5d0abb6bcbd" target="_top" xlink:title="Iofx::DatabaseIO::get\l_nodesets">
<polygon fill="#ffffff" stroke="#000000" points="341.3486,-141.5 341.3486,-169.5 451.8457,-169.5 451.8457,-141.5 341.3486,-141.5"/>
<text text-anchor="start" x="349.3486" y="-157.5" font-family="Helvetica,sans-Serif" font-size="10.00" fill="#000000">Iofx::DatabaseIO::get</text>
<text text-anchor="middle" x="396.5972" y="-147.5" font-family="Helvetica,sans-Serif" font-size="10.00" fill="#000000">_nodesets</text>
</a>
</g>
</g>
<!-- Node83&#45;&gt;Node84 -->
<g id="edge2" class="edge">
<title>Node83&#45;&gt;Node84</title>
<path fill="none" stroke="#191970" d="M266.2257,-97.9367C286.899,-107.738 315.7469,-121.2227 341.3486,-132.5 348.0994,-135.4737 355.3553,-138.567 362.3169,-141.4849"/>
<polygon fill="#191970" stroke="#191970" points="267.5981,-94.7138 257.0641,-93.5806 264.5922,-101.0356 267.5981,-94.7138"/>
</g>
<!-- Node86 -->
<g id="node5" class="node">
<title>Node86</title>
<g id="a_node5"><a xlink:href="classIofx_1_1DatabaseIO.html#a56ddda62eb3637cd13191ff67bbc0029" target="_top" xlink:title="Iofx::DatabaseIO::get\l_edgesets">
<polygon fill="#ffffff" stroke="#000000" points="341.3486,-94.5 341.3486,-122.5 451.8457,-122.5 451.8457,-94.5 341.3486,-94.5"/>
<text text-anchor="start" x="349.3486" y="-110.5" font-family="Helvetica,sans-Serif" font-size="10.00" fill="#000000">Iofx::DatabaseIO::get</text>
<text text-anchor="middle" x="396.5972" y="-100.5" font-family="Helvetica,sans-Serif" font-size="10.00" fill="#000000">_edgesets</text>
</a>
</g>
</g>
<!-- Node83&#45;&gt;Node86 -->
<g id="edge4" class="edge">
<title>Node83&#45;&gt;Node86</title>
<path fill="none" stroke="#191970" d="M307.7899,-95.0484C318.9931,-96.7454 330.4559,-98.4816 341.2641,-100.1187"/>
<polygon fill="#191970" stroke="#191970" points="308.0117,-91.5422 297.6003,-93.505 306.9633,-98.4632 308.0117,-91.5422"/>
</g>
<!-- Node87 -->
<g id="node6" class="node">
<title>Node87</title>
<g id="a_node6"><a xlink:href="classIofx_1_1DatabaseIO.html#a52bfbfd10d033b4f5e50afe18607c415" target="_top" xlink:title="Iofx::DatabaseIO::get\l_facesets">
<polygon fill="#ffffff" stroke="#000000" points="341.3486,-47.5 341.3486,-75.5 451.8457,-75.5 451.8457,-47.5 341.3486,-47.5"/>
<text text-anchor="start" x="349.3486" y="-63.5" font-family="Helvetica,sans-Serif" font-size="10.00" fill="#000000">Iofx::DatabaseIO::get</text>
<text text-anchor="middle" x="396.5972" y="-53.5" font-family="Helvetica,sans-Serif" font-size="10.00" fill="#000000">_facesets</text>
</a>
</g>
</g>
<!-- Node83&#45;&gt;Node87 -->
<g id="edge6" class="edge">
<title>Node83&#45;&gt;Node87</title>
<path fill="none" stroke="#191970" d="M310.2429,-74.035C320.6732,-72.521 331.2698,-70.9828 341.3015,-69.5266"/>
<polygon fill="#191970" stroke="#191970" points="309.7109,-70.5755 300.3174,-75.4758 310.7165,-77.5029 309.7109,-70.5755"/>
</g>
<!-- Node88 -->
<g id="node7" class="node">
<title>Node88</title>
<g id="a_node7"><a xlink:href="classIofx_1_1DatabaseIO.html#a1d9816bc858a047528865240b4730071" target="_top" xlink:title="Iofx::DatabaseIO::get\l_elemsets">
<polygon fill="#ffffff" stroke="#000000" points="341.3486,-.5 341.3486,-28.5 451.8457,-28.5 451.8457,-.5 341.3486,-.5"/>
<text text-anchor="start" x="349.3486" y="-16.5" font-family="Helvetica,sans-Serif" font-size="10.00" fill="#000000">Iofx::DatabaseIO::get</text>
<text text-anchor="middle" x="396.5972" y="-6.5" font-family="Helvetica,sans-Serif" font-size="10.00" fill="#000000">_elemsets</text>
</a>
</g>
</g>
<!-- Node83&#45;&gt;Node88 -->
<g id="edge8" class="edge">
<title>Node83&#45;&gt;Node88</title>
<path fill="none" stroke="#191970" d="M291.7776,-72.2465C296.4584,-70.5478 301.0463,-68.639 305.3486,-66.5 323.499,-57.4762 323.9156,-48.8418 341.3486,-38.5 347.3747,-34.9252 354.0309,-31.5776 360.5745,-28.5832"/>
<polygon fill="#191970" stroke="#191970" points="290.4975,-68.9832 282.1007,-75.4442 292.6939,-75.6297 290.4975,-68.9832"/>
</g>
<!-- Node85 -->
<g id="node4" class="node">
<title>Node85</title>
<g id="a_node4"><a xlink:href="classIofx_1_1DatabaseIO.html#a79b188c0f0320a9656ad80866af72fb6" target="_top" xlink:title="Iofx::DatabaseIO::read\l_meta_data__">
<polygon fill="#ffffff" stroke="#000000" points="487.8457,-70.5 487.8457,-98.5 604.4561,-98.5 604.4561,-70.5 487.8457,-70.5"/>
<text text-anchor="start" x="495.8457" y="-86.5" font-family="Helvetica,sans-Serif" font-size="10.00" fill="#000000">Iofx::DatabaseIO::read</text>
<text text-anchor="middle" x="546.1509" y="-76.5" font-family="Helvetica,sans-Serif" font-size="10.00" fill="#000000">_meta_data__</text>
</a>
</g>
</g>
<!-- Node84&#45;&gt;Node85 -->
<g id="edge3" class="edge">
<title>Node84&#45;&gt;Node85</title>
<path fill="none" stroke="#191970" d="M440.8365,-137.4365C444.5761,-135.8027 448.2864,-134.1438 451.8457,-132.5 475.0288,-121.7935 500.8391,-108.5624 519.5889,-98.7048"/>
<polygon fill="#191970" stroke="#191970" points="439.3583,-134.2622 431.5501,-141.4234 442.1198,-140.6944 439.3583,-134.2622"/>
</g>
<!-- Node86&#45;&gt;Node85 -->
<g id="edge5" class="edge">
<title>Node86&#45;&gt;Node85</title>
<path fill="none" stroke="#191970" d="M461.823,-98.0327C470.3998,-96.6563 479.147,-95.2526 487.6032,-93.8956"/>
<polygon fill="#191970" stroke="#191970" points="461.1796,-94.5911 451.8605,-99.6315 462.2888,-101.5027 461.1796,-94.5911"/>
</g>
<!-- Node87&#45;&gt;Node85 -->
<g id="edge7" class="edge">
<title>Node87&#45;&gt;Node85</title>
<path fill="none" stroke="#191970" d="M461.823,-71.5311C470.3998,-72.8502 479.147,-74.1954 487.6032,-75.4959"/>
<polygon fill="#191970" stroke="#191970" points="462.2764,-68.0598 451.8605,-69.999 461.2123,-74.9785 462.2764,-68.0598"/>
</g>
<!-- Node88&#45;&gt;Node85 -->
<g id="edge9" class="edge">
<title>Node88&#45;&gt;Node85</title>
<path fill="none" stroke="#191970" d="M439.104,-32.7398C443.4195,-34.6589 447.7275,-36.6023 451.8457,-38.5 474.3458,-48.8685 499.555,-61.2029 518.2447,-70.4881"/>
<polygon fill="#191970" stroke="#191970" points="440.2779,-29.4325 429.7155,-28.6044 437.4562,-35.8385 440.2779,-29.4325"/>
</g>
</g>
</svg>
        <g id="navigator" transform="translate(0 0)" fill="#404254">
                <rect fill="#f2f5e9" fill-opacity="0.5" stroke="#606060" stroke-width=".5" x="0" y="0" width="60" height="60"/>
                <use id="zoomplus" xlink:href="#zoomPlus" x="17" y="9" onmousedown="handleZoom(evt,'in')"/>
                <use id="zoomminus" xlink:href="#zoomMin" x="42" y="9" onmousedown="handleZoom(evt,'out')"/>
                <use id="reset" xlink:href="#resetDef" x="30" y="36" onmousedown="handleReset()"/>
                <g id="arrowUp" xlink:href="#dirArrow" transform="translate(30 24)" onmousedown="handlePan(0,-1)">
                  <use xlink:href="#rim" fill="#404040">
                        <set attributeName="fill" to="#808080" begin="arrowUp.mouseover" end="arrowUp.mouseout"/>
                  </use>
                  <path fill="none" stroke="white" stroke-width="1.5" d="M0,-3.0v7 M-2.5,-0.5L0,-3.0L2.5,-0.5"/>
                </g>
                <g id="arrowRight" xlink:href="#dirArrow" transform="rotate(90) translate(36 -43)" onmousedown="handlePan(1,0)">
                  <use xlink:href="#rim" fill="#404040">
                        <set attributeName="fill" to="#808080" begin="arrowRight.mouseover" end="arrowRight.mouseout"/>
                  </use>
                  <path fill="none" stroke="white" stroke-width="1.5" d="M0,-3.0v7 M-2.5,-0.5L0,-3.0L2.5,-0.5"/>
                </g>
                <g id="arrowDown" xlink:href="#dirArrow" transform="rotate(180) translate(-30 -48)" onmousedown="handlePan(0,1)">
                  <use xlink:href="#rim" fill="#404040">
                        <set attributeName="fill" to="#808080" begin="arrowDown.mouseover" end="arrowDown.mouseout"/>
                  </use>
                  <path fill="none" stroke="white" stroke-width="1.5" d="M0,-3.0v7 M-2.5,-0.5L0,-3.0L2.5,-0.5"/>
                </g>
                <g id="arrowLeft" xlink:href="#dirArrow" transform="rotate(270) translate(-36 17)" onmousedown="handlePan(-1,0)">
                  <use xlink:href="#rim" fill="#404040">
                        <set attributeName="fill" to="#808080" begin="arrowLeft.mouseover" end="arrowLeft.mouseout"/>
                  </use>
                  <path fill="none" stroke="white" stroke-width="1.5" d="M0,-3.0v7 M-2.5,-0.5L0,-3.0L2.5,-0.5"/>
                </g>
        </g>
        <svg viewBox="0 0 15 15" width="100%" height="30px" preserveAspectRatio="xMaxYMin meet">
         <g id="arrow_out" transform="scale(0.3 0.3)">
          <a xlink:href="classIofx_1_1DatabaseIO_ad75e4caa91245e475085bd6f5b2e632f_icgraph_org.svg" target="_base">
           <rect id="button" ry="5" rx="5" y="6" x="6" height="38" width="38"
                fill="#f2f5e9" fill-opacity="0.5" stroke="#606060" stroke-width="1.0"/>
           <path id="arrow"
             d="M 11.500037,31.436501 C 11.940474,20.09759 22.043105,11.32322 32.158766,21.979434 L 37.068811,17.246167 C 37.068811,17.246167 37.088388,32 37.088388,32 L 22.160133,31.978069 C 22.160133,31.978069 26.997745,27.140456 26.997745,27.140456 C 18.528582,18.264221 13.291696,25.230495 11.500037,31.436501 z"
             style="fill:#404040;"/>
          </a>
         </g>
        </svg>
</svg>
