<?xml version="1.0" encoding="UTF-8" standalone="no"?>
<!DOCTYPE svg PUBLIC "-//W3C//DTD SVG 1.1//EN"
 "http://www.w3.org/Graphics/SVG/1.1/DTD/svg11.dtd">
<!-- Generated by graphviz version 2.40.1 (20161225.0304)
 -->
<!-- Title: Ioss::Utils::calculate_sideblock_membership Pages: 1 -->
<svg width="600pt" height="331pt"
 viewBox="0.00 0.00 600.24 331.31" xmlns="http://www.w3.org/2000/svg" xmlns:xlink="http://www.w3.org/1999/xlink">
<g id="graph0" class="graph" transform="scale(1 1) rotate(0) translate(4 327.3132)">
<title>Ioss::Utils::calculate_sideblock_membership</title>
<polygon fill="#ffffff" stroke="transparent" points="-4,4 -4,-327.3132 596.2441,-327.3132 596.2441,4 -4,4"/>
<!-- Node47 -->
<g id="node1" class="node">
<title>Node47</title>
<polygon fill="#bfbfbf" stroke="#000000" points="0,-154.5 0,-182.5 123.832,-182.5 123.832,-154.5 0,-154.5"/>
<text text-anchor="start" x="8" y="-170.5" font-family="Helvetica,sans-Serif" font-size="10.00" fill="#000000">Ioss::Utils::calculate</text>
<text text-anchor="middle" x="61.916" y="-160.5" font-family="Helvetica,sans-Serif" font-size="10.00" fill="#000000">_sideblock_membership</text>
</g>
<!-- Node48 -->
<g id="node2" class="node">
<title>Node48</title>
<g id="a_node2"><a xlink:href="classIofx_1_1DatabaseIO.html#a97317a6fa150da8c99d6d1118e1e4d82" target="_top" xlink:title="Iofx::DatabaseIO::get\l_field_internal">
<polygon fill="#ffffff" stroke="#000000" points="481.7471,-257.5 481.7471,-285.5 592.2441,-285.5 592.2441,-257.5 481.7471,-257.5"/>
<text text-anchor="start" x="489.7471" y="-273.5" font-family="Helvetica,sans-Serif" font-size="10.00" fill="#000000">Iofx::DatabaseIO::get</text>
<text text-anchor="middle" x="536.9956" y="-263.5" font-family="Helvetica,sans-Serif" font-size="10.00" fill="#000000">_field_internal</text>
</a>
</g>
</g>
<!-- Node47&#45;&gt;Node48 -->
<g id="edge1" class="edge">
<title>Node47&#45;&gt;Node48</title>
<path fill="none" stroke="#191970" d="M71.9411,-192.0386C86.3418,-222.4333 116.0613,-273.9773 159.832,-295.5 273.0273,-351.1598 428.9159,-309.686 499.5362,-285.5785"/>
<polygon fill="#191970" stroke="#191970" points="74.9786,-190.2635 67.6466,-182.6155 68.6089,-193.1666 74.9786,-190.2635"/>
</g>
<!-- Node49 -->
<g id="node3" class="node">
<title>Node49</title>
<g id="a_node3"><a xlink:href="classIofx_1_1DatabaseIO.html#aa8a6215ec5222eccfbbcdbc073f27d20" target="_top" xlink:title="Iofx::DatabaseIO::get\l_side_connectivity_internal">
<polygon fill="#ffffff" stroke="#000000" points="159.832,-257.5 159.832,-285.5 295.9053,-285.5 295.9053,-257.5 159.832,-257.5"/>
<text text-anchor="start" x="167.832" y="-273.5" font-family="Helvetica,sans-Serif" font-size="10.00" fill="#000000">Iofx::DatabaseIO::get</text>
<text text-anchor="middle" x="227.8687" y="-263.5" font-family="Helvetica,sans-Serif" font-size="10.00" fill="#000000">_side_connectivity_internal</text>
</a>
</g>
</g>
<!-- Node47&#45;&gt;Node49 -->
<g id="edge2" class="edge">
<title>Node47&#45;&gt;Node49</title>
<path fill="none" stroke="#191970" d="M85.9125,-189.2822C105.0533,-205.1881 133.0101,-226.9626 159.832,-242.5 169.3871,-248.0351 180.2006,-253.1241 190.3487,-257.442"/>
<polygon fill="#191970" stroke="#191970" points="87.9312,-186.4067 78.0264,-182.6456 83.424,-191.7625 87.9312,-186.4067"/>
</g>
<!-- Node51 -->
<g id="node5" class="node">
<title>Node51</title>
<g id="a_node5"><a xlink:href="classIofx_1_1DatabaseIO.html#acfef5d3ad97724bc17e8f2c8bdddd06f" target="_top" xlink:title="Iofx::DatabaseIO::get\l_side_distributions">
<polygon fill="#ffffff" stroke="#000000" points="333.5776,-210.5 333.5776,-238.5 444.0747,-238.5 444.0747,-210.5 333.5776,-210.5"/>
<text text-anchor="start" x="341.5776" y="-226.5" font-family="Helvetica,sans-Serif" font-size="10.00" fill="#000000">Iofx::DatabaseIO::get</text>
<text text-anchor="middle" x="388.8262" y="-216.5" font-family="Helvetica,sans-Serif" font-size="10.00" fill="#000000">_side_distributions</text>
</a>
</g>
</g>
<!-- Node47&#45;&gt;Node51 -->
<g id="edge5" class="edge">
<title>Node47&#45;&gt;Node51</title>
<path fill="none" stroke="#191970" d="M134.1236,-182.7778C142.7793,-184.4105 151.4993,-186.0187 159.832,-187.5 218.9104,-198.002 286.792,-208.8132 333.2159,-216.0159"/>
<polygon fill="#191970" stroke="#191970" points="134.4971,-179.2862 124.0192,-180.8561 133.1891,-186.1629 134.4971,-179.2862"/>
</g>
<!-- Node52 -->
<g id="node6" class="node">
<title>Node52</title>
<g id="a_node6"><a xlink:href="classIopx_1_1DatabaseIO.html#a3bc69b10e9372d6910369fec487059f9" target="_top" xlink:title="Iopx::DatabaseIO::get\l_field_internal">
<polygon fill="#ffffff" stroke="#000000" points="332.186,-133.5 332.186,-161.5 445.4663,-161.5 445.4663,-133.5 332.186,-133.5"/>
<text text-anchor="start" x="340.186" y="-149.5" font-family="Helvetica,sans-Serif" font-size="10.00" fill="#000000">Iopx::DatabaseIO::get</text>
<text text-anchor="middle" x="388.8262" y="-139.5" font-family="Helvetica,sans-Serif" font-size="10.00" fill="#000000">_field_internal</text>
</a>
</g>
</g>
<!-- Node47&#45;&gt;Node52 -->
<g id="edge7" class="edge">
<title>Node47&#45;&gt;Node52</title>
<path fill="none" stroke="#191970" d="M134.5087,-174.6047C180.8635,-177.2281 242.1377,-178.3316 295.9053,-171.5 311.7728,-169.4839 328.8066,-165.6049 343.9007,-161.5437"/>
<polygon fill="#191970" stroke="#191970" points="134.4496,-171.0948 124.257,-173.9861 134.028,-178.0821 134.4496,-171.0948"/>
</g>
<!-- Node53 -->
<g id="node7" class="node">
<title>Node53</title>
<g id="a_node7"><a xlink:href="classIopx_1_1DatabaseIO.html#a03e7dea93b69b16f43a43148c6355a03" target="_top" xlink:title="Iopx::DatabaseIO::get\l_side_connectivity">
<polygon fill="#ffffff" stroke="#000000" points="171.2285,-133.5 171.2285,-161.5 284.5088,-161.5 284.5088,-133.5 171.2285,-133.5"/>
<text text-anchor="start" x="179.2285" y="-149.5" font-family="Helvetica,sans-Serif" font-size="10.00" fill="#000000">Iopx::DatabaseIO::get</text>
<text text-anchor="middle" x="227.8687" y="-139.5" font-family="Helvetica,sans-Serif" font-size="10.00" fill="#000000">_side_connectivity</text>
</a>
</g>
</g>
<!-- Node47&#45;&gt;Node53 -->
<g id="edge8" class="edge">
<title>Node47&#45;&gt;Node53</title>
<path fill="none" stroke="#191970" d="M134.3836,-159.3298C146.643,-157.7785 159.2134,-156.1878 171.0011,-154.6961"/>
<polygon fill="#191970" stroke="#191970" points="133.6643,-155.8928 124.1828,-160.6206 134.5431,-162.8374 133.6643,-155.8928"/>
</g>
<!-- Node54 -->
<g id="node8" class="node">
<title>Node54</title>
<g id="a_node8"><a xlink:href="classIopx_1_1DatabaseIO.html#af098ca539268126648291cf907e686d3" target="_top" xlink:title="Iopx::DatabaseIO::get\l_side_distributions">
<polygon fill="#ffffff" stroke="#000000" points="171.2285,-86.5 171.2285,-114.5 284.5088,-114.5 284.5088,-86.5 171.2285,-86.5"/>
<text text-anchor="start" x="179.2285" y="-102.5" font-family="Helvetica,sans-Serif" font-size="10.00" fill="#000000">Iopx::DatabaseIO::get</text>
<text text-anchor="middle" x="227.8687" y="-92.5" font-family="Helvetica,sans-Serif" font-size="10.00" fill="#000000">_side_distributions</text>
</a>
</g>
</g>
<!-- Node47&#45;&gt;Node54 -->
<g id="edge10" class="edge">
<title>Node47&#45;&gt;Node54</title>
<path fill="none" stroke="#191970" d="M101.1092,-149.9894C118.8877,-141.8261 140.2696,-132.3299 159.832,-124.5 168.3208,-121.1024 177.5006,-117.6909 186.2872,-114.5498"/>
<polygon fill="#191970" stroke="#191970" points="99.2455,-146.995 91.6374,-154.3685 102.183,-153.3489 99.2455,-146.995"/>
</g>
<!-- Node55 -->
<g id="node9" class="node">
<title>Node55</title>
<g id="a_node9"><a xlink:href="classIopg_1_1DatabaseIO.html#abfda3501ed8bcf75ec5f0040c935cb8d" target="_top" xlink:title="Iopg::DatabaseIO::get\l_field_internal">
<polygon fill="#ffffff" stroke="#000000" points="331.9053,-22.5 331.9053,-50.5 445.7471,-50.5 445.7471,-22.5 331.9053,-22.5"/>
<text text-anchor="start" x="339.9053" y="-38.5" font-family="Helvetica,sans-Serif" font-size="10.00" fill="#000000">Iopg::DatabaseIO::get</text>
<text text-anchor="middle" x="388.8262" y="-28.5" font-family="Helvetica,sans-Serif" font-size="10.00" fill="#000000">_field_internal</text>
</a>
</g>
</g>
<!-- Node47&#45;&gt;Node55 -->
<g id="edge12" class="edge">
<title>Node47&#45;&gt;Node55</title>
<path fill="none" stroke="#191970" d="M78.952,-146.6193C96.7458,-125.4019 126.6535,-94.0619 159.832,-77.5 214.0363,-50.4427 283.3388,-41.0169 331.4368,-37.8501"/>
<polygon fill="#191970" stroke="#191970" points="76.1485,-144.5187 72.527,-154.4754 81.5671,-148.9503 76.1485,-144.5187"/>
</g>
<!-- Node56 -->
<g id="node10" class="node">
<title>Node56</title>
<g id="a_node10"><a xlink:href="classIopg_1_1DatabaseIO.html#aefa6449ee83e88ef7cc98ac7f4c8ac4d" target="_top" xlink:title="Iopg::DatabaseIO::get\l_side_connectivity">
<polygon fill="#ffffff" stroke="#000000" points="170.9478,-.5 170.9478,-28.5 284.7896,-28.5 284.7896,-.5 170.9478,-.5"/>
<text text-anchor="start" x="178.9478" y="-16.5" font-family="Helvetica,sans-Serif" font-size="10.00" fill="#000000">Iopg::DatabaseIO::get</text>
<text text-anchor="middle" x="227.8687" y="-6.5" font-family="Helvetica,sans-Serif" font-size="10.00" fill="#000000">_side_connectivity</text>
</a>
</g>
</g>
<!-- Node47&#45;&gt;Node56 -->
<g id="edge13" class="edge">
<title>Node47&#45;&gt;Node56</title>
<path fill="none" stroke="#191970" d="M75.0674,-145.2989C91.6897,-117.7719 122.6645,-72.0264 159.832,-43.5 167.5733,-37.5585 176.7146,-32.5889 185.7424,-28.5377"/>
<polygon fill="#191970" stroke="#191970" points="71.8716,-143.8274 69.7998,-154.2177 77.8989,-147.3872 71.8716,-143.8274"/>
</g>
<!-- Node50 -->
<g id="node4" class="node">
<title>Node50</title>
<g id="a_node4"><a xlink:href="classIofx_1_1DatabaseIO.html#ac56327a554a5e07a5df294af32fd3c01" target="_top" xlink:title="Iofx::DatabaseIO::get\l_side_connectivity">
<polygon fill="#ffffff" stroke="#000000" points="333.5776,-257.5 333.5776,-285.5 444.0747,-285.5 444.0747,-257.5 333.5776,-257.5"/>
<text text-anchor="start" x="341.5776" y="-273.5" font-family="Helvetica,sans-Serif" font-size="10.00" fill="#000000">Iofx::DatabaseIO::get</text>
<text text-anchor="middle" x="388.8262" y="-263.5" font-family="Helvetica,sans-Serif" font-size="10.00" fill="#000000">_side_connectivity</text>
</a>
</g>
</g>
<!-- Node49&#45;&gt;Node50 -->
<g id="edge3" class="edge">
<title>Node49&#45;&gt;Node50</title>
<path fill="none" stroke="#191970" d="M306.3138,-271.5C315.3691,-271.5 324.4587,-271.5 333.1238,-271.5"/>
<polygon fill="#191970" stroke="#191970" points="306.1292,-268.0001 296.1291,-271.5 306.1291,-275.0001 306.1292,-268.0001"/>
</g>
<!-- Node50&#45;&gt;Node48 -->
<g id="edge4" class="edge">
<title>Node50&#45;&gt;Node48</title>
<path fill="none" stroke="#191970" d="M454.52,-271.5C463.5544,-271.5 472.7575,-271.5 481.5824,-271.5"/>
<polygon fill="#191970" stroke="#191970" points="454.4206,-268.0001 444.4206,-271.5 454.4205,-275.0001 454.4206,-268.0001"/>
</g>
<!-- Node51&#45;&gt;Node48 -->
<g id="edge6" class="edge">
<title>Node51&#45;&gt;Node48</title>
<path fill="none" stroke="#191970" d="M443.2355,-241.7589C459.5569,-246.9361 477.2519,-252.549 492.8268,-257.4894"/>
<polygon fill="#191970" stroke="#191970" points="443.8721,-238.289 433.2819,-238.6015 441.7556,-244.9614 443.8721,-238.289"/>
</g>
<!-- Node53&#45;&gt;Node52 -->
<g id="edge9" class="edge">
<title>Node53&#45;&gt;Node52</title>
<path fill="none" stroke="#191970" d="M294.8695,-147.5C307.2297,-147.5 320.0265,-147.5 332.0485,-147.5"/>
<polygon fill="#191970" stroke="#191970" points="294.6163,-144.0001 284.6163,-147.5 294.6162,-151.0001 294.6163,-144.0001"/>
</g>
<!-- Node54&#45;&gt;Node52 -->
<g id="edge11" class="edge">
<title>Node54&#45;&gt;Node52</title>
<path fill="none" stroke="#191970" d="M285.972,-117.4663C303.9778,-122.7241 323.6069,-128.4558 340.8452,-133.4894"/>
<polygon fill="#191970" stroke="#191970" points="286.7414,-114.0449 276.1612,-114.6015 284.7793,-120.7643 286.7414,-114.0449"/>
</g>
<!-- Node56&#45;&gt;Node55 -->
<g id="edge14" class="edge">
<title>Node56&#45;&gt;Node55</title>
<path fill="none" stroke="#191970" d="M295.1797,-23.7002C307.3618,-25.3653 319.9576,-27.0869 331.8096,-28.7069"/>
<polygon fill="#191970" stroke="#191970" points="295.4513,-20.2049 285.0695,-22.3183 294.5033,-27.1404 295.4513,-20.2049"/>
</g>
</g>
</svg>
