<?xml version="1.0" encoding="UTF-8" standalone="no"?>
<!DOCTYPE svg PUBLIC "-//W3C//DTD SVG 1.1//EN"
 "http://www.w3.org/Graphics/SVG/1.1/DTD/svg11.dtd">
<!-- Generated by graphviz version 2.40.1 (20161225.0304)
 -->
<!-- Title: Ioss::Field::Field Pages: 1 -->
<svg width="762pt" height="311pt"
 viewBox="0.00 0.00 762.47 311.00" xmlns="http://www.w3.org/2000/svg" xmlns:xlink="http://www.w3.org/1999/xlink">
<g id="graph0" class="graph" transform="scale(1 1) rotate(0) translate(4 307)">
<title>Ioss::Field::Field</title>
<polygon fill="#ffffff" stroke="transparent" points="-4,4 -4,-307 758.4688,-307 758.4688,4 -4,4"/>
<!-- Node30 -->
<g id="node1" class="node">
<title>Node30</title>
<polygon fill="#bfbfbf" stroke="#000000" points="0,-153.5 0,-171.5 88.8027,-171.5 88.8027,-153.5 0,-153.5"/>
<text text-anchor="middle" x="44.4014" y="-159.5" font-family="Helvetica,sans-Serif" font-size="10.00" fill="#000000">Ioss::Field::Field</text>
</g>
<!-- Node31 -->
<g id="node2" class="node">
<title>Node31</title>
<g id="a_node2"><a xlink:href="classIoss_1_1VariableType.html#a307c17b7a8f1fcac73ed711171c59ad4" target="_top" xlink:title="Ioss::VariableType\l::factory">
<polygon fill="#ffffff" stroke="#000000" points="138.5161,-195.5 138.5161,-223.5 236.0493,-223.5 236.0493,-195.5 138.5161,-195.5"/>
<text text-anchor="start" x="146.5161" y="-211.5" font-family="Helvetica,sans-Serif" font-size="10.00" fill="#000000">Ioss::VariableType</text>
<text text-anchor="middle" x="187.2827" y="-201.5" font-family="Helvetica,sans-Serif" font-size="10.00" fill="#000000">::factory</text>
</a>
</g>
</g>
<!-- Node30&#45;&gt;Node31 -->
<g id="edge1" class="edge">
<title>Node30&#45;&gt;Node31</title>
<path fill="none" stroke="#191970" d="M71.9503,-171.5621C89.8123,-177.4377 113.6511,-185.2793 135.0182,-192.3079"/>
<polygon fill="#191970" stroke="#191970" points="134.0384,-195.67 144.6313,-195.4701 136.2257,-189.0205 134.0384,-195.67"/>
</g>
<!-- Node43 -->
<g id="node14" class="node">
<title>Node43</title>
<g id="a_node14"><a xlink:href="namespaceanonymous__namespace_02Ioss__Field_8C_03.html#a6f17c234b0f7c17fe27d6910811e43de" target="_top" xlink:title="anonymous_namespace\l\{Ioss_Field::C\}::internal\l_get_size">
<polygon fill="#ffffff" stroke="#000000" points="124.8027,-117.5 124.8027,-155.5 249.7627,-155.5 249.7627,-117.5 124.8027,-117.5"/>
<text text-anchor="start" x="132.8027" y="-143.5" font-family="Helvetica,sans-Serif" font-size="10.00" fill="#000000">anonymous_namespace</text>
<text text-anchor="start" x="132.8027" y="-133.5" font-family="Helvetica,sans-Serif" font-size="10.00" fill="#000000">{Ioss_Field::C}::internal</text>
<text text-anchor="middle" x="187.2827" y="-123.5" font-family="Helvetica,sans-Serif" font-size="10.00" fill="#000000">_get_size</text>
</a>
</g>
</g>
<!-- Node30&#45;&gt;Node43 -->
<g id="edge15" class="edge">
<title>Node30&#45;&gt;Node43</title>
<path fill="none" stroke="#191970" d="M88.8267,-154.416C97.1,-152.9105 105.9402,-151.3018 114.8017,-149.6893"/>
<polygon fill="#191970" stroke="#191970" points="115.5748,-153.1062 124.7866,-147.8724 114.3216,-146.2193 115.5748,-153.1062"/>
</g>
<!-- Node32 -->
<g id="node3" class="node">
<title>Node32</title>
<g id="a_node3"><a xlink:href="namespaceanonymous__namespace_02io__info_8C_03.html#ac76aa36231a3291b803cc8e620fce319" target="_top" xlink:title="anonymous_namespace\l\{io_info::C\}::name">
<polygon fill="#ffffff" stroke="#000000" points="477.2793,-264.5 477.2793,-292.5 602.2393,-292.5 602.2393,-264.5 477.2793,-264.5"/>
<text text-anchor="start" x="485.2793" y="-280.5" font-family="Helvetica,sans-Serif" font-size="10.00" fill="#000000">anonymous_namespace</text>
<text text-anchor="middle" x="539.7593" y="-270.5" font-family="Helvetica,sans-Serif" font-size="10.00" fill="#000000">{io_info::C}::name</text>
</a>
</g>
</g>
<!-- Node31&#45;&gt;Node32 -->
<g id="edge2" class="edge">
<title>Node31&#45;&gt;Node32</title>
<path fill="none" stroke="#191970" d="M215.8823,-223.5385C235.1705,-232.3956 261.4443,-243.297 285.7627,-249.5 345.736,-264.7977 415.7408,-272.0344 467.0515,-275.4529"/>
<polygon fill="#191970" stroke="#191970" points="466.8545,-278.9473 477.0558,-276.0869 467.2973,-271.9614 466.8545,-278.9473"/>
</g>
<!-- Node35 -->
<g id="node6" class="node">
<title>Node35</title>
<g id="a_node6"><a xlink:href="classIoss_1_1Utils.html#a48106bb99507951b4655783fe6ceb0f8" target="_top" xlink:title="Convert a string to lower case. ">
<polygon fill="#ffffff" stroke="#000000" points="303.4702,-222.5 303.4702,-240.5 413.3862,-240.5 413.3862,-222.5 303.4702,-222.5"/>
<text text-anchor="middle" x="358.4282" y="-228.5" font-family="Helvetica,sans-Serif" font-size="10.00" fill="#000000">Ioss::Utils::lowercase</text>
</a>
</g>
</g>
<!-- Node31&#45;&gt;Node35 -->
<g id="edge5" class="edge">
<title>Node31&#45;&gt;Node35</title>
<path fill="none" stroke="#191970" d="M236.3261,-215.8043C254.0765,-218.086 274.4083,-220.6996 293.3228,-223.131"/>
<polygon fill="#191970" stroke="#191970" points="292.9958,-226.6177 303.3605,-224.4213 293.8883,-219.6748 292.9958,-226.6177"/>
</g>
<!-- Node37 -->
<g id="node8" class="node">
<title>Node37</title>
<g id="a_node8"><a xlink:href="classIoss_1_1CompositeVariableType.html#ad59ad4c62ba30e9df0c024c3c2beb0a2" target="_top" xlink:title="Ioss::CompositeVariableType\l::composite_variable_type">
<polygon fill="#ffffff" stroke="#000000" points="285.7627,-127.5 285.7627,-155.5 431.0938,-155.5 431.0938,-127.5 285.7627,-127.5"/>
<text text-anchor="start" x="293.7627" y="-143.5" font-family="Helvetica,sans-Serif" font-size="10.00" fill="#000000">Ioss::CompositeVariableType</text>
<text text-anchor="middle" x="358.4282" y="-133.5" font-family="Helvetica,sans-Serif" font-size="10.00" fill="#000000">::composite_variable_type</text>
</a>
</g>
</g>
<!-- Node31&#45;&gt;Node37 -->
<g id="edge8" class="edge">
<title>Node31&#45;&gt;Node37</title>
<path fill="none" stroke="#191970" d="M222.7442,-195.4104C249.1338,-184.9252 285.3406,-170.5394 313.7152,-159.2655"/>
<polygon fill="#191970" stroke="#191970" points="315.0112,-162.5168 323.0122,-155.5716 312.4265,-156.0114 315.0112,-162.5168"/>
</g>
<!-- Node33 -->
<g id="node4" class="node">
<title>Node33</title>
<g id="a_node4"><a xlink:href="classIoss_1_1GroupingEntity.html#adf92c4256dc89b729f4492642bc4d745" target="_top" xlink:title="Get the name of the particular type of entity. ">
<polygon fill="#ffffff" stroke="#000000" points="648.4248,-274.5 648.4248,-302.5 754.4688,-302.5 754.4688,-274.5 648.4248,-274.5"/>
<text text-anchor="start" x="656.4248" y="-290.5" font-family="Helvetica,sans-Serif" font-size="10.00" fill="#000000">Ioss::GroupingEntity</text>
<text text-anchor="middle" x="701.4468" y="-280.5" font-family="Helvetica,sans-Serif" font-size="10.00" fill="#000000">::type_string</text>
</a>
</g>
</g>
<!-- Node32&#45;&gt;Node33 -->
<g id="edge3" class="edge">
<title>Node32&#45;&gt;Node33</title>
<path fill="none" stroke="#191970" d="M602.2719,-282.3663C614.025,-283.0932 626.3237,-283.8538 638.1019,-284.5823"/>
<polygon fill="#191970" stroke="#191970" points="638.0947,-288.0884 648.2917,-285.2125 638.5268,-281.1018 638.0947,-288.0884"/>
</g>
<!-- Node34 -->
<g id="node5" class="node">
<title>Node34</title>
<g id="a_node5"><a xlink:href="classIoss_1_1GroupingEntity.html#a50d4053f49c8c3205e05d939fdc9fbc5" target="_top" xlink:title="Get name of entity. ">
<polygon fill="#ffffff" stroke="#000000" points="648.4248,-227.5 648.4248,-255.5 754.4688,-255.5 754.4688,-227.5 648.4248,-227.5"/>
<text text-anchor="start" x="656.4248" y="-243.5" font-family="Helvetica,sans-Serif" font-size="10.00" fill="#000000">Ioss::GroupingEntity</text>
<text text-anchor="middle" x="701.4468" y="-233.5" font-family="Helvetica,sans-Serif" font-size="10.00" fill="#000000">::name</text>
</a>
</g>
</g>
<!-- Node32&#45;&gt;Node34 -->
<g id="edge4" class="edge">
<title>Node32&#45;&gt;Node34</title>
<path fill="none" stroke="#191970" d="M601.3476,-264.4063C613.4095,-261.6461 626.0785,-258.747 638.1937,-255.9746"/>
<polygon fill="#191970" stroke="#191970" points="639.2474,-259.324 648.2146,-253.6815 637.6858,-252.5004 639.2474,-259.324"/>
</g>
<!-- Node35&#45;&gt;Node32 -->
<g id="edge6" class="edge">
<title>Node35&#45;&gt;Node32</title>
<path fill="none" stroke="#191970" d="M393.3907,-240.5621C416.6721,-246.5965 447.9541,-254.7046 475.6219,-261.876"/>
<polygon fill="#191970" stroke="#191970" points="475.072,-265.349 485.6303,-264.4701 476.8283,-258.5729 475.072,-265.349"/>
</g>
<!-- Node36 -->
<g id="node7" class="node">
<title>Node36</title>
<g id="a_node7"><a xlink:href="namespaceanonymous__namespace_02Ioss__Utils_8C_03.html#a0a31af75815b9ec3b66f27bbb6846ac8" target="_top" xlink:title="anonymous_namespace\l\{Ioss_Utils::C\}::to_lower">
<polygon fill="#ffffff" stroke="#000000" points="477.2793,-217.5 477.2793,-245.5 602.2393,-245.5 602.2393,-217.5 477.2793,-217.5"/>
<text text-anchor="start" x="485.2793" y="-233.5" font-family="Helvetica,sans-Serif" font-size="10.00" fill="#000000">anonymous_namespace</text>
<text text-anchor="middle" x="539.7593" y="-223.5" font-family="Helvetica,sans-Serif" font-size="10.00" fill="#000000">{Ioss_Utils::C}::to_lower</text>
</a>
</g>
</g>
<!-- Node35&#45;&gt;Node36 -->
<g id="edge7" class="edge">
<title>Node35&#45;&gt;Node36</title>
<path fill="none" stroke="#191970" d="M413.8188,-231.5C430.5353,-231.5 449.1472,-231.5 466.8235,-231.5"/>
<polygon fill="#191970" stroke="#191970" points="467.1015,-235.0001 477.1015,-231.5 467.1015,-228.0001 467.1015,-235.0001"/>
</g>
<!-- Node38 -->
<g id="node9" class="node">
<title>Node38</title>
<g id="a_node9"><a xlink:href="classIoss_1_1CompositeVariableType.html#aa0239bce2d6a359dcd629d878af3801f" target="_top" xlink:title="Ioss::CompositeVariableType\l::composite_name">
<polygon fill="#ffffff" stroke="#000000" points="467.0938,-170.5 467.0938,-198.5 612.4248,-198.5 612.4248,-170.5 467.0938,-170.5"/>
<text text-anchor="start" x="475.0938" y="-186.5" font-family="Helvetica,sans-Serif" font-size="10.00" fill="#000000">Ioss::CompositeVariableType</text>
<text text-anchor="middle" x="539.7593" y="-176.5" font-family="Helvetica,sans-Serif" font-size="10.00" fill="#000000">::composite_name</text>
</a>
</g>
</g>
<!-- Node37&#45;&gt;Node38 -->
<g id="edge9" class="edge">
<title>Node37&#45;&gt;Node38</title>
<path fill="none" stroke="#191970" d="M417.5519,-155.5203C434.4854,-159.5358 453.0958,-163.949 470.5758,-168.0942"/>
<polygon fill="#191970" stroke="#191970" points="470.1782,-171.5969 480.7159,-170.4987 471.7934,-164.7857 470.1782,-171.5969"/>
</g>
<!-- Node39 -->
<g id="node10" class="node">
<title>Node39</title>
<g id="a_node10"><a xlink:href="classIoss_1_1VariableType.html#a737316d0f49ca1a913f9c99d3132e742" target="_top" xlink:title="Ioss::VariableType\l::name">
<polygon fill="#ffffff" stroke="#000000" points="652.6802,-159.5 652.6802,-187.5 750.2134,-187.5 750.2134,-159.5 652.6802,-159.5"/>
<text text-anchor="start" x="660.6802" y="-175.5" font-family="Helvetica,sans-Serif" font-size="10.00" fill="#000000">Ioss::VariableType</text>
<text text-anchor="middle" x="701.4468" y="-165.5" font-family="Helvetica,sans-Serif" font-size="10.00" fill="#000000">::name</text>
</a>
</g>
</g>
<!-- Node37&#45;&gt;Node39 -->
<g id="edge11" class="edge">
<title>Node37&#45;&gt;Node39</title>
<path fill="none" stroke="#191970" d="M431.3616,-145.5909C482.1988,-148.7761 551.5494,-153.7867 612.4248,-160.5 622.2056,-161.5786 632.5637,-162.9137 642.6227,-164.3136"/>
<polygon fill="#191970" stroke="#191970" points="642.1558,-167.7823 652.5496,-165.7281 643.1433,-160.8523 642.1558,-167.7823"/>
</g>
<!-- Node40 -->
<g id="node11" class="node">
<title>Node40</title>
<g id="a_node11"><a xlink:href="classIoss_1_1VariableType.html#a6321e64e0273514304ccb501dafc4c60" target="_top" xlink:title="Ioss::VariableType\l::registry">
<polygon fill="#ffffff" stroke="#000000" points="490.9927,-84.5 490.9927,-112.5 588.5259,-112.5 588.5259,-84.5 490.9927,-84.5"/>
<text text-anchor="start" x="498.9927" y="-100.5" font-family="Helvetica,sans-Serif" font-size="10.00" fill="#000000">Ioss::VariableType</text>
<text text-anchor="middle" x="539.7593" y="-90.5" font-family="Helvetica,sans-Serif" font-size="10.00" fill="#000000">::registry</text>
</a>
</g>
</g>
<!-- Node37&#45;&gt;Node40 -->
<g id="edge12" class="edge">
<title>Node37&#45;&gt;Node40</title>
<path fill="none" stroke="#191970" d="M417.5519,-127.4797C437.8911,-122.6565 460.6497,-117.2597 480.9628,-112.4427"/>
<polygon fill="#191970" stroke="#191970" points="481.7944,-115.8427 490.717,-110.1297 480.1792,-109.0316 481.7944,-115.8427"/>
</g>
<!-- Node41 -->
<g id="node12" class="node">
<title>Node41</title>
<g id="a_node12"><a xlink:href="classIoss_1_1Registry.html#ae913ba0a64b603060c0b401655f56d1a" target="_top" xlink:title="Ioss::Registry::find">
<polygon fill="#ffffff" stroke="#000000" points="490.6338,-47.5 490.6338,-65.5 588.8848,-65.5 588.8848,-47.5 490.6338,-47.5"/>
<text text-anchor="middle" x="539.7593" y="-53.5" font-family="Helvetica,sans-Serif" font-size="10.00" fill="#000000">Ioss::Registry::find</text>
</a>
</g>
</g>
<!-- Node37&#45;&gt;Node41 -->
<g id="edge13" class="edge">
<title>Node37&#45;&gt;Node41</title>
<path fill="none" stroke="#191970" d="M412.4281,-127.4605C418.9857,-124.6744 425.3778,-121.3803 431.0938,-117.5 451.7156,-103.5009 445.9538,-87.7036 467.0938,-74.5 471.3929,-71.8149 476.0686,-69.5301 480.9063,-67.586"/>
<polygon fill="#191970" stroke="#191970" points="482.0881,-70.8806 490.353,-64.2517 479.7582,-64.2797 482.0881,-70.8806"/>
</g>
<!-- Node42 -->
<g id="node13" class="node">
<title>Node42</title>
<g id="a_node13"><a xlink:href="classIoss_1_1CompositeVariableType.html#a1ecd2151d382735ac2aa66066a052793" target="_top" xlink:title="Ioss::CompositeVariableType\l::CompositeVariableType">
<polygon fill="#ffffff" stroke="#000000" points="467.0938,-.5 467.0938,-28.5 612.4248,-28.5 612.4248,-.5 467.0938,-.5"/>
<text text-anchor="start" x="475.0938" y="-16.5" font-family="Helvetica,sans-Serif" font-size="10.00" fill="#000000">Ioss::CompositeVariableType</text>
<text text-anchor="middle" x="539.7593" y="-6.5" font-family="Helvetica,sans-Serif" font-size="10.00" fill="#000000">::CompositeVariableType</text>
</a>
</g>
</g>
<!-- Node37&#45;&gt;Node42 -->
<g id="edge14" class="edge">
<title>Node37&#45;&gt;Node42</title>
<path fill="none" stroke="#191970" d="M416.4576,-127.4347C421.7548,-124.6907 426.7512,-121.4135 431.0938,-117.5 460.0574,-91.3982 437.968,-63.4208 467.0938,-37.5 468.4189,-36.3206 469.8046,-35.2017 471.2408,-34.1402"/>
<polygon fill="#191970" stroke="#191970" points="473.3457,-36.9511 479.9491,-28.6658 469.6202,-31.0248 473.3457,-36.9511"/>
</g>
<!-- Node38&#45;&gt;Node39 -->
<g id="edge10" class="edge">
<title>Node38&#45;&gt;Node39</title>
<path fill="none" stroke="#191970" d="M612.5621,-179.547C622.6402,-178.8614 632.8866,-178.1643 642.6665,-177.499"/>
<polygon fill="#191970" stroke="#191970" points="642.9234,-180.9897 652.6628,-176.8189 642.4483,-174.0058 642.9234,-180.9897"/>
</g>
<!-- Node44 -->
<g id="node15" class="node">
<title>Node44</title>
<g id="a_node15"><a xlink:href="classIoss_1_1VariableType.html#ad1e37f24dd5bbe9ed6bee80a93665d6c" target="_top" xlink:title="Ioss::VariableType\l::component_count">
<polygon fill="#ffffff" stroke="#000000" points="307.8989,-80.5 307.8989,-108.5 408.9575,-108.5 408.9575,-80.5 307.8989,-80.5"/>
<text text-anchor="start" x="315.8989" y="-96.5" font-family="Helvetica,sans-Serif" font-size="10.00" fill="#000000">Ioss::VariableType</text>
<text text-anchor="middle" x="358.4282" y="-86.5" font-family="Helvetica,sans-Serif" font-size="10.00" fill="#000000">::component_count</text>
</a>
</g>
</g>
<!-- Node43&#45;&gt;Node44 -->
<g id="edge16" class="edge">
<title>Node43&#45;&gt;Node44</title>
<path fill="none" stroke="#191970" d="M250.0392,-121.0992C265.6125,-117.2775 282.2734,-113.1888 297.7454,-109.3919"/>
<polygon fill="#191970" stroke="#191970" points="298.84,-112.7272 307.7176,-106.9447 297.1716,-105.9289 298.84,-112.7272"/>
</g>
</g>
</svg>
