<?xml version="1.0" encoding="UTF-8" standalone="no"?>
<!DOCTYPE svg PUBLIC "-//W3C//DTD SVG 1.1//EN"
 "http://www.w3.org/Graphics/SVG/1.1/DTD/svg11.dtd">
<!-- Generated by graphviz version 2.40.1 (20161225.0304)
 -->
<!-- Title: Ioss::EntityBlock::get_offset Pages: 1 -->
<svg width="594pt" height="1013pt"
 viewBox="0.00 0.00 594.09 1013.00" xmlns="http://www.w3.org/2000/svg" xmlns:xlink="http://www.w3.org/1999/xlink">
<g id="graph0" class="graph" transform="scale(1 1) rotate(0) translate(4 1009)">
<title>Ioss::EntityBlock::get_offset</title>
<polygon fill="#ffffff" stroke="transparent" points="-4,4 -4,-1009 590.0918,-1009 590.0918,4 -4,4"/>
<!-- Node57 -->
<g id="node1" class="node">
<title>Node57</title>
<polygon fill="#bfbfbf" stroke="#000000" points="0,-458.5 0,-486.5 94.916,-486.5 94.916,-458.5 0,-458.5"/>
<text text-anchor="start" x="8" y="-474.5" font-family="Helvetica,sans-Serif" font-size="10.00" fill="#000000">Ioss::EntityBlock::</text>
<text text-anchor="middle" x="47.458" y="-464.5" font-family="Helvetica,sans-Serif" font-size="10.00" fill="#000000">get_offset</text>
</g>
<!-- Node58 -->
<g id="node2" class="node">
<title>Node58</title>
<g id="a_node2"><a xlink:href="classIocgns_1_1DatabaseIO.html#a0fdb59a10d7ab6a0c47e3a176a36fae1" target="_top" xlink:title="Iocgns::DatabaseIO\l::get_field_internal">
<polygon fill="#ffffff" stroke="#000000" points="148.9678,-976.5 148.9678,-1004.5 253.3516,-1004.5 253.3516,-976.5 148.9678,-976.5"/>
<text text-anchor="start" x="156.9678" y="-992.5" font-family="Helvetica,sans-Serif" font-size="10.00" fill="#000000">Iocgns::DatabaseIO</text>
<text text-anchor="middle" x="201.1597" y="-982.5" font-family="Helvetica,sans-Serif" font-size="10.00" fill="#000000">::get_field_internal</text>
</a>
</g>
</g>
<!-- Node57&#45;&gt;Node58 -->
<g id="edge1" class="edge">
<title>Node57&#45;&gt;Node58</title>
<path fill="none" stroke="#191970" d="M48.3128,-496.741C51.9375,-586.0654 68.8342,-895.3743 130.916,-967.5 135.7713,-973.1408 142.0322,-977.4063 148.8126,-980.63"/>
<polygon fill="#191970" stroke="#191970" points="51.8102,-496.6026 47.9262,-486.7454 44.8154,-496.8732 51.8102,-496.6026"/>
</g>
<!-- Node59 -->
<g id="node3" class="node">
<title>Node59</title>
<g id="a_node3"><a xlink:href="classIocgns_1_1ParallelDatabaseIO.html#a953e127fa6d13608b07d8787cc1348ce" target="_top" xlink:title="Iocgns::ParallelDatabase\lIO::get_field_internal">
<polygon fill="#ffffff" stroke="#000000" points="137.5713,-929.5 137.5713,-957.5 264.748,-957.5 264.748,-929.5 137.5713,-929.5"/>
<text text-anchor="start" x="145.5713" y="-945.5" font-family="Helvetica,sans-Serif" font-size="10.00" fill="#000000">Iocgns::ParallelDatabase</text>
<text text-anchor="middle" x="201.1597" y="-935.5" font-family="Helvetica,sans-Serif" font-size="10.00" fill="#000000">IO::get_field_internal</text>
</a>
</g>
</g>
<!-- Node57&#45;&gt;Node59 -->
<g id="edge2" class="edge">
<title>Node57&#45;&gt;Node59</title>
<path fill="none" stroke="#191970" d="M48.7904,-496.8492C53.8537,-580.7395 74.5462,-856.1349 130.916,-920.5 133.9596,-923.9752 137.5362,-926.9279 141.4358,-929.4362"/>
<polygon fill="#191970" stroke="#191970" points="52.2775,-496.5235 48.2011,-486.7443 45.2893,-496.9311 52.2775,-496.5235"/>
</g>
<!-- Node60 -->
<g id="node4" class="node">
<title>Node60</title>
<g id="a_node4"><a xlink:href="classIocgns_1_1ParallelDatabaseIO.html#ac6ed6ab0c75ae47c47d9576615678ab1" target="_top" xlink:title="Iocgns::ParallelDatabase\lIO::handle_element_ids">
<polygon fill="#ffffff" stroke="#000000" points="137.5713,-882.5 137.5713,-910.5 264.748,-910.5 264.748,-882.5 137.5713,-882.5"/>
<text text-anchor="start" x="145.5713" y="-898.5" font-family="Helvetica,sans-Serif" font-size="10.00" fill="#000000">Iocgns::ParallelDatabase</text>
<text text-anchor="middle" x="201.1597" y="-888.5" font-family="Helvetica,sans-Serif" font-size="10.00" fill="#000000">IO::handle_element_ids</text>
</a>
</g>
</g>
<!-- Node57&#45;&gt;Node60 -->
<g id="edge3" class="edge">
<title>Node57&#45;&gt;Node60</title>
<path fill="none" stroke="#191970" d="M49.366,-496.7853C55.9564,-574.7298 80.1935,-816.7966 130.916,-873.5 133.9959,-876.9431 137.5987,-879.8726 141.5164,-882.365"/>
<polygon fill="#191970" stroke="#191970" points="52.8295,-496.1968 48.5206,-486.5177 45.8531,-496.7712 52.8295,-496.1968"/>
</g>
<!-- Node62 -->
<g id="node6" class="node">
<title>Node62</title>
<g id="a_node6"><a xlink:href="classIofx_1_1DatabaseIO.html#a2c58dd390942964fc628d0a2c2ff522d" target="_top" xlink:title="Iofx::DatabaseIO::get\l_field_internal">
<polygon fill="#ffffff" stroke="#000000" points="145.9111,-835.5 145.9111,-863.5 256.4082,-863.5 256.4082,-835.5 145.9111,-835.5"/>
<text text-anchor="start" x="153.9111" y="-851.5" font-family="Helvetica,sans-Serif" font-size="10.00" fill="#000000">Iofx::DatabaseIO::get</text>
<text text-anchor="middle" x="201.1597" y="-841.5" font-family="Helvetica,sans-Serif" font-size="10.00" fill="#000000">_field_internal</text>
</a>
</g>
</g>
<!-- Node57&#45;&gt;Node62 -->
<g id="edge5" class="edge">
<title>Node57&#45;&gt;Node62</title>
<path fill="none" stroke="#191970" d="M50.1427,-497.2015C58.4486,-569.3073 85.9112,-777.5023 130.916,-826.5 135.0826,-831.0363 140.1563,-834.6801 145.6503,-837.6065"/>
<polygon fill="#191970" stroke="#191970" points="53.5732,-496.3873 48.9744,-486.8426 46.6173,-497.1719 53.5732,-496.3873"/>
</g>
<!-- Node63 -->
<g id="node7" class="node">
<title>Node63</title>
<g id="a_node7"><a xlink:href="classIofx_1_1DatabaseIO.html#aa8a6215ec5222eccfbbcdbc073f27d20" target="_top" xlink:title="Iofx::DatabaseIO::get\l_side_connectivity_internal">
<polygon fill="#ffffff" stroke="#000000" points="133.123,-788.5 133.123,-816.5 269.1963,-816.5 269.1963,-788.5 133.123,-788.5"/>
<text text-anchor="start" x="141.123" y="-804.5" font-family="Helvetica,sans-Serif" font-size="10.00" fill="#000000">Iofx::DatabaseIO::get</text>
<text text-anchor="middle" x="201.1597" y="-794.5" font-family="Helvetica,sans-Serif" font-size="10.00" fill="#000000">_side_connectivity_internal</text>
</a>
</g>
</g>
<!-- Node57&#45;&gt;Node63 -->
<g id="edge6" class="edge">
<title>Node57&#45;&gt;Node63</title>
<path fill="none" stroke="#191970" d="M51.3665,-496.7216C62.0961,-560.5763 93.6979,-731.4797 130.916,-773.5 136.3396,-779.6234 143.2563,-784.4818 150.6247,-788.3287"/>
<polygon fill="#191970" stroke="#191970" points="54.8037,-496.0536 49.7169,-486.7598 47.8977,-497.1973 54.8037,-496.0536"/>
</g>
<!-- Node66 -->
<g id="node10" class="node">
<title>Node66</title>
<g id="a_node10"><a xlink:href="classIofx_1_1DatabaseIO.html#a23d401f65b0c36d264a1eaabbe07a6f9" target="_top" xlink:title="Iofx::DatabaseIO::put\l_field_internal">
<polygon fill="#ffffff" stroke="#000000" points="474.2031,-752.5 474.2031,-780.5 584.7002,-780.5 584.7002,-752.5 474.2031,-752.5"/>
<text text-anchor="start" x="482.2031" y="-768.5" font-family="Helvetica,sans-Serif" font-size="10.00" fill="#000000">Iofx::DatabaseIO::put</text>
<text text-anchor="middle" x="529.4517" y="-758.5" font-family="Helvetica,sans-Serif" font-size="10.00" fill="#000000">_field_internal</text>
</a>
</g>
</g>
<!-- Node57&#45;&gt;Node66 -->
<g id="edge9" class="edge">
<title>Node57&#45;&gt;Node66</title>
<path fill="none" stroke="#191970" d="M51.594,-496.5182C62.3475,-556.0712 93.0026,-708.0712 130.916,-740.5 181.039,-783.3722 376.7712,-776.8819 474.0069,-770.7199"/>
<polygon fill="#191970" stroke="#191970" points="55.0139,-495.7585 49.8204,-486.5239 48.1216,-496.9816 55.0139,-495.7585"/>
</g>
<!-- Node67 -->
<g id="node11" class="node">
<title>Node67</title>
<g id="a_node11"><a xlink:href="classIofx_1_1DatabaseIO.html#a411a4ee71f58a9c1c6c86781d7cde55d" target="_top" xlink:title="Iofx::DatabaseIO::handle\l_element_ids">
<polygon fill="#ffffff" stroke="#000000" points="308.7949,-660.5 308.7949,-688.5 435.4199,-688.5 435.4199,-660.5 308.7949,-660.5"/>
<text text-anchor="start" x="316.7949" y="-676.5" font-family="Helvetica,sans-Serif" font-size="10.00" fill="#000000">Iofx::DatabaseIO::handle</text>
<text text-anchor="middle" x="372.1074" y="-666.5" font-family="Helvetica,sans-Serif" font-size="10.00" fill="#000000">_element_ids</text>
</a>
</g>
</g>
<!-- Node57&#45;&gt;Node67 -->
<g id="edge10" class="edge">
<title>Node57&#45;&gt;Node67</title>
<path fill="none" stroke="#191970" d="M57.4309,-496.0396C70.4059,-523.9265 95.6571,-569.9409 130.916,-596.5 183.3802,-636.0192 256.6509,-655.9704 308.6348,-665.7378"/>
<polygon fill="#191970" stroke="#191970" points="60.5041,-494.3397 53.2103,-486.6553 54.1201,-497.211 60.5041,-494.3397"/>
</g>
<!-- Node68 -->
<g id="node12" class="node">
<title>Node68</title>
<g id="a_node12"><a xlink:href="classIofx_1_1DatabaseIO.html#a803fcc950896948321d72beb927fc365" target="_top" xlink:title="Iofx::DatabaseIO::handle\l_face_ids">
<polygon fill="#ffffff" stroke="#000000" points="308.7949,-519.5 308.7949,-547.5 435.4199,-547.5 435.4199,-519.5 308.7949,-519.5"/>
<text text-anchor="start" x="316.7949" y="-535.5" font-family="Helvetica,sans-Serif" font-size="10.00" fill="#000000">Iofx::DatabaseIO::handle</text>
<text text-anchor="middle" x="372.1074" y="-525.5" font-family="Helvetica,sans-Serif" font-size="10.00" fill="#000000">_face_ids</text>
</a>
</g>
</g>
<!-- Node57&#45;&gt;Node68 -->
<g id="edge12" class="edge">
<title>Node57&#45;&gt;Node68</title>
<path fill="none" stroke="#191970" d="M104.7551,-486.764C113.4973,-488.7857 122.4314,-490.7642 130.916,-492.5 190.9418,-504.7799 259.901,-516.2387 308.6676,-523.9028"/>
<polygon fill="#191970" stroke="#191970" points="105.536,-483.3522 95.0007,-484.4738 103.9359,-490.1669 105.536,-483.3522"/>
</g>
<!-- Node70 -->
<g id="node14" class="node">
<title>Node70</title>
<g id="a_node14"><a xlink:href="classIofx_1_1DatabaseIO.html#aef5a5346af268cd6bd69b754b8f59f58" target="_top" xlink:title="Iofx::DatabaseIO::handle\l_edge_ids">
<polygon fill="#ffffff" stroke="#000000" points="308.7949,-472.5 308.7949,-500.5 435.4199,-500.5 435.4199,-472.5 308.7949,-472.5"/>
<text text-anchor="start" x="316.7949" y="-488.5" font-family="Helvetica,sans-Serif" font-size="10.00" fill="#000000">Iofx::DatabaseIO::handle</text>
<text text-anchor="middle" x="372.1074" y="-478.5" font-family="Helvetica,sans-Serif" font-size="10.00" fill="#000000">_edge_ids</text>
</a>
</g>
</g>
<!-- Node57&#45;&gt;Node70 -->
<g id="edge14" class="edge">
<title>Node57&#45;&gt;Node70</title>
<path fill="none" stroke="#191970" d="M105.3113,-474.9948C162.4083,-477.4571 249.4894,-481.2123 308.503,-483.7572"/>
<polygon fill="#191970" stroke="#191970" points="105.154,-471.4849 95.0125,-474.5507 104.8524,-478.4784 105.154,-471.4849"/>
</g>
<!-- Node72 -->
<g id="node16" class="node">
<title>Node72</title>
<g id="a_node16"><a xlink:href="classIofx_1_1DatabaseIO.html#a1746997a058b3088ef7c35cfdfc94cb3" target="_top" xlink:title="Iofx::DatabaseIO::write\l_entity_transient_field">
<polygon fill="#ffffff" stroke="#000000" points="142.3052,-702.5 142.3052,-730.5 260.0142,-730.5 260.0142,-702.5 142.3052,-702.5"/>
<text text-anchor="start" x="150.3052" y="-718.5" font-family="Helvetica,sans-Serif" font-size="10.00" fill="#000000">Iofx::DatabaseIO::write</text>
<text text-anchor="middle" x="201.1597" y="-708.5" font-family="Helvetica,sans-Serif" font-size="10.00" fill="#000000">_entity_transient_field</text>
</a>
</g>
</g>
<!-- Node57&#45;&gt;Node72 -->
<g id="edge16" class="edge">
<title>Node57&#45;&gt;Node72</title>
<path fill="none" stroke="#191970" d="M53.7329,-496.3531C64.627,-534.4693 89.8865,-610.1376 130.916,-662.5 143.6291,-678.7246 162.279,-692.7593 177.1674,-702.4514"/>
<polygon fill="#191970" stroke="#191970" points="57.0866,-495.3487 51.04,-486.6487 50.3414,-497.2205 57.0866,-495.3487"/>
</g>
<!-- Node75 -->
<g id="node19" class="node">
<title>Node75</title>
<g id="a_node19"><a xlink:href="classIopx_1_1DatabaseIO.html#ae7e3f05f4e494c210c67587f1252fca3" target="_top" xlink:title="Iopx::DatabaseIO::get\l_field_internal">
<polygon fill="#ffffff" stroke="#000000" points="144.5195,-311.5 144.5195,-339.5 257.7998,-339.5 257.7998,-311.5 144.5195,-311.5"/>
<text text-anchor="start" x="152.5195" y="-327.5" font-family="Helvetica,sans-Serif" font-size="10.00" fill="#000000">Iopx::DatabaseIO::get</text>
<text text-anchor="middle" x="201.1597" y="-317.5" font-family="Helvetica,sans-Serif" font-size="10.00" fill="#000000">_field_internal</text>
</a>
</g>
</g>
<!-- Node57&#45;&gt;Node75 -->
<g id="edge20" class="edge">
<title>Node57&#45;&gt;Node75</title>
<path fill="none" stroke="#191970" d="M57.7605,-448.8134C70.916,-421.2058 96.2036,-375.9945 130.916,-349.5 136.0381,-345.5905 141.839,-342.2926 147.8581,-339.5166"/>
<polygon fill="#191970" stroke="#191970" points="54.4777,-447.5743 53.4676,-458.1209 60.8342,-450.5061 54.4777,-447.5743"/>
</g>
<!-- Node76 -->
<g id="node20" class="node">
<title>Node76</title>
<g id="a_node20"><a xlink:href="classIopx_1_1DatabaseIO.html#a03e7dea93b69b16f43a43148c6355a03" target="_top" xlink:title="Iopx::DatabaseIO::get\l_side_connectivity">
<polygon fill="#ffffff" stroke="#000000" points="144.5195,-264.5 144.5195,-292.5 257.7998,-292.5 257.7998,-264.5 144.5195,-264.5"/>
<text text-anchor="start" x="152.5195" y="-280.5" font-family="Helvetica,sans-Serif" font-size="10.00" fill="#000000">Iopx::DatabaseIO::get</text>
<text text-anchor="middle" x="201.1597" y="-270.5" font-family="Helvetica,sans-Serif" font-size="10.00" fill="#000000">_side_connectivity</text>
</a>
</g>
</g>
<!-- Node57&#45;&gt;Node76 -->
<g id="edge21" class="edge">
<title>Node57&#45;&gt;Node76</title>
<path fill="none" stroke="#191970" d="M52.9389,-448.5767C62.5273,-411.9993 85.7686,-342.2439 130.916,-302.5 135.3657,-298.5829 140.4842,-295.2986 145.8876,-292.5462"/>
<polygon fill="#191970" stroke="#191970" points="49.5185,-447.8278 50.4906,-458.3779 56.3099,-449.5243 49.5185,-447.8278"/>
</g>
<!-- Node78 -->
<g id="node22" class="node">
<title>Node78</title>
<g id="a_node22"><a xlink:href="classIopx_1_1DatabaseIO.html#afd24273dacc289d454e1adee67f390d8" target="_top" xlink:title="Iopx::DatabaseIO::put\l_field_internal">
<polygon fill="#ffffff" stroke="#000000" points="472.8115,-382.5 472.8115,-410.5 586.0918,-410.5 586.0918,-382.5 472.8115,-382.5"/>
<text text-anchor="start" x="480.8115" y="-398.5" font-family="Helvetica,sans-Serif" font-size="10.00" fill="#000000">Iopx::DatabaseIO::put</text>
<text text-anchor="middle" x="529.4517" y="-388.5" font-family="Helvetica,sans-Serif" font-size="10.00" fill="#000000">_field_internal</text>
</a>
</g>
</g>
<!-- Node57&#45;&gt;Node78 -->
<g id="edge23" class="edge">
<title>Node57&#45;&gt;Node78</title>
<path fill="none" stroke="#191970" d="M96.2822,-455.351C107.5642,-451.7672 119.5838,-448.2477 130.916,-445.5 250.4916,-416.5069 394.6258,-404.2007 472.6149,-399.3534"/>
<polygon fill="#191970" stroke="#191970" points="95.0224,-452.0801 86.5935,-458.4991 97.1856,-458.7375 95.0224,-452.0801"/>
</g>
<!-- Node79 -->
<g id="node23" class="node">
<title>Node79</title>
<g id="a_node23"><a xlink:href="classIopx_1_1DatabaseIO.html#ab21634c9103e7f32cf59b835a0a937ed" target="_top" xlink:title="Iopx::DatabaseIO::handle\l_element_ids">
<polygon fill="#ffffff" stroke="#000000" points="307.4033,-425.5 307.4033,-453.5 436.8115,-453.5 436.8115,-425.5 307.4033,-425.5"/>
<text text-anchor="start" x="315.4033" y="-441.5" font-family="Helvetica,sans-Serif" font-size="10.00" fill="#000000">Iopx::DatabaseIO::handle</text>
<text text-anchor="middle" x="372.1074" y="-431.5" font-family="Helvetica,sans-Serif" font-size="10.00" fill="#000000">_element_ids</text>
</a>
</g>
</g>
<!-- Node57&#45;&gt;Node79 -->
<g id="edge24" class="edge">
<title>Node57&#45;&gt;Node79</title>
<path fill="none" stroke="#191970" d="M105.2448,-466.6261C161.9624,-460.8608 248.3132,-452.0835 307.3257,-446.0849"/>
<polygon fill="#191970" stroke="#191970" points="104.6073,-463.1728 95.0125,-467.6662 105.3152,-470.1369 104.6073,-463.1728"/>
</g>
<!-- Node80 -->
<g id="node24" class="node">
<title>Node80</title>
<g id="a_node24"><a xlink:href="classIopx_1_1DatabaseIO.html#a96be05c3beac4bd001b8e6c2185170bf" target="_top" xlink:title="Iopx::DatabaseIO::write\l_entity_transient_field">
<polygon fill="#ffffff" stroke="#000000" points="140.9136,-358.5 140.9136,-386.5 261.4058,-386.5 261.4058,-358.5 140.9136,-358.5"/>
<text text-anchor="start" x="148.9136" y="-374.5" font-family="Helvetica,sans-Serif" font-size="10.00" fill="#000000">Iopx::DatabaseIO::write</text>
<text text-anchor="middle" x="201.1597" y="-364.5" font-family="Helvetica,sans-Serif" font-size="10.00" fill="#000000">_entity_transient_field</text>
</a>
</g>
</g>
<!-- Node57&#45;&gt;Node80 -->
<g id="edge26" class="edge">
<title>Node57&#45;&gt;Node80</title>
<path fill="none" stroke="#191970" d="M68.4309,-451.388C84.4912,-436.0715 107.7554,-415.6434 130.916,-401.5 140.2618,-395.7928 150.9313,-390.738 161.0838,-386.5124"/>
<polygon fill="#191970" stroke="#191970" points="65.8964,-448.9705 61.1575,-458.4465 70.7714,-453.994 65.8964,-448.9705"/>
</g>
<!-- Node83 -->
<g id="node27" class="node">
<title>Node83</title>
<g id="a_node27"><a xlink:href="classIoex_1_1DatabaseIO.html#aa69c42ac2504d621a7d31dec2f008daa" target="_top" xlink:title="Ioex::DatabaseIO::handle\l_block_ids">
<polygon fill="#ffffff" stroke="#000000" points="136.4556,-558.5 136.4556,-586.5 265.8638,-586.5 265.8638,-558.5 136.4556,-558.5"/>
<text text-anchor="start" x="144.4556" y="-574.5" font-family="Helvetica,sans-Serif" font-size="10.00" fill="#000000">Ioex::DatabaseIO::handle</text>
<text text-anchor="middle" x="201.1597" y="-564.5" font-family="Helvetica,sans-Serif" font-size="10.00" fill="#000000">_block_ids</text>
</a>
</g>
</g>
<!-- Node57&#45;&gt;Node83 -->
<g id="edge30" class="edge">
<title>Node57&#45;&gt;Node83</title>
<path fill="none" stroke="#191970" d="M68.4309,-493.612C84.4912,-508.9285 107.7554,-529.3566 130.916,-543.5 140.2618,-549.2072 150.9313,-554.262 161.0838,-558.4876"/>
<polygon fill="#191970" stroke="#191970" points="70.7714,-491.006 61.1575,-486.5535 65.8964,-496.0295 70.7714,-491.006"/>
</g>
<!-- Node88 -->
<g id="node32" class="node">
<title>Node88</title>
<g id="a_node32"><a xlink:href="structIoex_1_1ElemBlock.html#a7bff5294771edd729451b4e8fa329d84" target="_top" xlink:title="Ioex::ElemBlock::ElemBlock">
<polygon fill="#ffffff" stroke="#000000" points="130.916,-227.5 130.916,-245.5 271.4033,-245.5 271.4033,-227.5 130.916,-227.5"/>
<text text-anchor="middle" x="201.1597" y="-233.5" font-family="Helvetica,sans-Serif" font-size="10.00" fill="#000000">Ioex::ElemBlock::ElemBlock</text>
</a>
</g>
</g>
<!-- Node57&#45;&gt;Node88 -->
<g id="edge39" class="edge">
<title>Node57&#45;&gt;Node88</title>
<path fill="none" stroke="#191970" d="M49.6947,-448.4355C55.1674,-403.6721 73.3213,-307.4486 130.916,-255.5 135.5127,-251.3539 140.9233,-248.0989 146.6676,-245.5457"/>
<polygon fill="#191970" stroke="#191970" points="46.2129,-448.0789 48.5846,-458.4048 53.1699,-448.8536 46.2129,-448.0789"/>
</g>
<!-- Node89 -->
<g id="node33" class="node">
<title>Node89</title>
<g id="a_node33"><a xlink:href="classIogn_1_1DatabaseIO.html#aa021bc9f0a9d3b8214f8608d6abefa9c" target="_top" xlink:title="Iogn::DatabaseIO::get\l_field_internal">
<polygon fill="#ffffff" stroke="#000000" points="144.2388,-180.5 144.2388,-208.5 258.0806,-208.5 258.0806,-180.5 144.2388,-180.5"/>
<text text-anchor="start" x="152.2388" y="-196.5" font-family="Helvetica,sans-Serif" font-size="10.00" fill="#000000">Iogn::DatabaseIO::get</text>
<text text-anchor="middle" x="201.1597" y="-186.5" font-family="Helvetica,sans-Serif" font-size="10.00" fill="#000000">_field_internal</text>
</a>
</g>
</g>
<!-- Node57&#45;&gt;Node89 -->
<g id="edge40" class="edge">
<title>Node57&#45;&gt;Node89</title>
<path fill="none" stroke="#191970" d="M52.4641,-448.5906C64.7505,-391.9822 97.8116,-251.9964 130.916,-218.5 134.8113,-214.5586 139.3799,-211.2641 144.2856,-208.5104"/>
<polygon fill="#191970" stroke="#191970" points="49.0253,-447.9345 50.353,-458.4458 55.8701,-449.4008 49.0253,-447.9345"/>
</g>
<!-- Node90 -->
<g id="node34" class="node">
<title>Node90</title>
<g id="a_node34"><a xlink:href="classIopg_1_1DatabaseIO.html#af23f5b788a46f1e7f6b611c92d5bc06b" target="_top" xlink:title="Iopg::DatabaseIO::get\l_field_internal">
<polygon fill="#ffffff" stroke="#000000" points="144.2388,-133.5 144.2388,-161.5 258.0806,-161.5 258.0806,-133.5 144.2388,-133.5"/>
<text text-anchor="start" x="152.2388" y="-149.5" font-family="Helvetica,sans-Serif" font-size="10.00" fill="#000000">Iopg::DatabaseIO::get</text>
<text text-anchor="middle" x="201.1597" y="-139.5" font-family="Helvetica,sans-Serif" font-size="10.00" fill="#000000">_field_internal</text>
</a>
</g>
</g>
<!-- Node57&#45;&gt;Node90 -->
<g id="edge41" class="edge">
<title>Node57&#45;&gt;Node90</title>
<path fill="none" stroke="#191970" d="M51.2248,-448.1489C61.6022,-383.9724 92.4072,-212.3407 130.916,-171.5 134.7177,-167.4681 139.224,-164.1136 144.0911,-161.3226"/>
<polygon fill="#191970" stroke="#191970" points="47.7465,-447.7361 49.6313,-458.162 54.6595,-448.8363 47.7465,-447.7361"/>
</g>
<!-- Node91 -->
<g id="node35" class="node">
<title>Node91</title>
<g id="a_node35"><a xlink:href="classIopg_1_1DatabaseIO.html#aefa6449ee83e88ef7cc98ac7f4c8ac4d" target="_top" xlink:title="Iopg::DatabaseIO::get\l_side_connectivity">
<polygon fill="#ffffff" stroke="#000000" points="144.2388,-86.5 144.2388,-114.5 258.0806,-114.5 258.0806,-86.5 144.2388,-86.5"/>
<text text-anchor="start" x="152.2388" y="-102.5" font-family="Helvetica,sans-Serif" font-size="10.00" fill="#000000">Iopg::DatabaseIO::get</text>
<text text-anchor="middle" x="201.1597" y="-92.5" font-family="Helvetica,sans-Serif" font-size="10.00" fill="#000000">_side_connectivity</text>
</a>
</g>
</g>
<!-- Node57&#45;&gt;Node91 -->
<g id="edge42" class="edge">
<title>Node57&#45;&gt;Node91</title>
<path fill="none" stroke="#191970" d="M50.2308,-448.2399C58.7806,-377.419 86.8498,-172.9091 130.916,-124.5 134.6463,-120.4021 139.1053,-117.0036 143.9429,-114.1854"/>
<polygon fill="#191970" stroke="#191970" points="46.7263,-448.0719 49.0267,-458.414 53.6778,-448.8946 46.7263,-448.0719"/>
</g>
<!-- Node93 -->
<g id="node37" class="node">
<title>Node93</title>
<g id="a_node37"><a xlink:href="classIovs_1_1DatabaseIO.html#ae08b15beb78fa374f8138df36b4c203b" target="_top" xlink:title="Iovs::DatabaseIO::put\l_field_internal">
<polygon fill="#ffffff" stroke="#000000" points="473.0923,-22.5 473.0923,-50.5 585.811,-50.5 585.811,-22.5 473.0923,-22.5"/>
<text text-anchor="start" x="481.0923" y="-38.5" font-family="Helvetica,sans-Serif" font-size="10.00" fill="#000000">Iovs::DatabaseIO::put</text>
<text text-anchor="middle" x="529.4517" y="-28.5" font-family="Helvetica,sans-Serif" font-size="10.00" fill="#000000">_field_internal</text>
</a>
</g>
</g>
<!-- Node57&#45;&gt;Node93 -->
<g id="edge44" class="edge">
<title>Node57&#45;&gt;Node93</title>
<path fill="none" stroke="#191970" d="M48.9594,-448.1169C54.3052,-369.9267 75.1639,-127.6496 130.916,-77.5 155.8351,-55.0851 369.1606,-43.1808 473.0523,-38.6668"/>
<polygon fill="#191970" stroke="#191970" points="45.4457,-448.2117 48.281,-458.4201 52.4305,-448.6717 45.4457,-448.2117"/>
</g>
<!-- Node94 -->
<g id="node38" class="node">
<title>Node94</title>
<g id="a_node38"><a xlink:href="namespaceIovs.html#afa58b6f28efcc1f205aac211b00ba118" target="_top" xlink:title="Iovs::handle_block_ids">
<polygon fill="#ffffff" stroke="#000000" points="142.5713,-8.5 142.5713,-26.5 259.748,-26.5 259.748,-8.5 142.5713,-8.5"/>
<text text-anchor="middle" x="201.1597" y="-14.5" font-family="Helvetica,sans-Serif" font-size="10.00" fill="#000000">Iovs::handle_block_ids</text>
</a>
</g>
</g>
<!-- Node57&#45;&gt;Node94 -->
<g id="edge45" class="edge">
<title>Node57&#45;&gt;Node94</title>
<path fill="none" stroke="#191970" d="M49.0999,-448.2174C55.0556,-366.8983 78.0162,-105.7701 130.916,-43.5 137.4829,-35.7699 146.5691,-30.3367 156.0298,-26.5182"/>
<polygon fill="#191970" stroke="#191970" points="45.5898,-448.2358 48.371,-458.4591 52.5722,-448.7328 45.5898,-448.2358"/>
</g>
<!-- Node61 -->
<g id="node5" class="node">
<title>Node61</title>
<g id="a_node5"><a xlink:href="classIocgns_1_1ParallelDatabaseIO.html#a98fb519750f0011b64b4f79770051779" target="_top" xlink:title="Iocgns::ParallelDatabase\lIO::put_field_internal">
<polygon fill="#ffffff" stroke="#000000" points="308.519,-882.5 308.519,-910.5 435.6958,-910.5 435.6958,-882.5 308.519,-882.5"/>
<text text-anchor="start" x="316.519" y="-898.5" font-family="Helvetica,sans-Serif" font-size="10.00" fill="#000000">Iocgns::ParallelDatabase</text>
<text text-anchor="middle" x="372.1074" y="-888.5" font-family="Helvetica,sans-Serif" font-size="10.00" fill="#000000">IO::put_field_internal</text>
</a>
</g>
</g>
<!-- Node60&#45;&gt;Node61 -->
<g id="edge4" class="edge">
<title>Node60&#45;&gt;Node61</title>
<path fill="none" stroke="#191970" d="M274.9466,-896.5C286.0864,-896.5 297.4961,-896.5 308.3996,-896.5"/>
<polygon fill="#191970" stroke="#191970" points="274.8143,-893.0001 264.8143,-896.5 274.8143,-900.0001 274.8143,-893.0001"/>
</g>
<!-- Node64 -->
<g id="node8" class="node">
<title>Node64</title>
<g id="a_node8"><a xlink:href="classIofx_1_1DatabaseIO.html#ac56327a554a5e07a5df294af32fd3c01" target="_top" xlink:title="Iofx::DatabaseIO::get\l_side_connectivity">
<polygon fill="#ffffff" stroke="#000000" points="316.8589,-831.5 316.8589,-859.5 427.356,-859.5 427.356,-831.5 316.8589,-831.5"/>
<text text-anchor="start" x="324.8589" y="-847.5" font-family="Helvetica,sans-Serif" font-size="10.00" fill="#000000">Iofx::DatabaseIO::get</text>
<text text-anchor="middle" x="372.1074" y="-837.5" font-family="Helvetica,sans-Serif" font-size="10.00" fill="#000000">_side_connectivity</text>
</a>
</g>
</g>
<!-- Node63&#45;&gt;Node64 -->
<g id="edge7" class="edge">
<title>Node63&#45;&gt;Node64</title>
<path fill="none" stroke="#191970" d="M267.1505,-819.0993C283.482,-823.2073 300.8157,-827.5674 316.5908,-831.5354"/>
<polygon fill="#191970" stroke="#191970" points="267.6861,-815.625 257.1344,-816.5798 265.9784,-822.4135 267.6861,-815.625"/>
</g>
<!-- Node65 -->
<g id="node9" class="node">
<title>Node65</title>
<g id="a_node9"><a xlink:href="classIofx_1_1DatabaseIO.html#a97317a6fa150da8c99d6d1118e1e4d82" target="_top" xlink:title="Iofx::DatabaseIO::get\l_field_internal">
<polygon fill="#ffffff" stroke="#000000" points="474.2031,-831.5 474.2031,-859.5 584.7002,-859.5 584.7002,-831.5 474.2031,-831.5"/>
<text text-anchor="start" x="482.2031" y="-847.5" font-family="Helvetica,sans-Serif" font-size="10.00" fill="#000000">Iofx::DatabaseIO::get</text>
<text text-anchor="middle" x="529.4517" y="-837.5" font-family="Helvetica,sans-Serif" font-size="10.00" fill="#000000">_field_internal</text>
</a>
</g>
</g>
<!-- Node64&#45;&gt;Node65 -->
<g id="edge8" class="edge">
<title>Node64&#45;&gt;Node65</title>
<path fill="none" stroke="#191970" d="M437.6042,-845.5C449.6869,-845.5 462.1964,-845.5 473.9486,-845.5"/>
<polygon fill="#191970" stroke="#191970" points="437.5811,-842.0001 427.5811,-845.5 437.5811,-849.0001 437.5811,-842.0001"/>
</g>
<!-- Node67&#45;&gt;Node66 -->
<g id="edge11" class="edge">
<title>Node67&#45;&gt;Node66</title>
<path fill="none" stroke="#191970" d="M428.3486,-693.1171C431.2971,-694.7787 434.1407,-696.5705 436.8115,-698.5 457.573,-713.4987 452.2815,-728.186 472.8115,-743.5 477.3203,-746.8632 482.3899,-749.8197 487.5948,-752.3937"/>
<polygon fill="#191970" stroke="#191970" points="429.7592,-689.9083 419.2563,-688.5159 426.5985,-696.1541 429.7592,-689.9083"/>
</g>
<!-- Node69 -->
<g id="node13" class="node">
<title>Node69</title>
<g id="a_node13"><a xlink:href="classIofx_1_1DatabaseIO.html#a40fb8ab2ddc1cf3fbb35cff683a2f3cc" target="_top" xlink:title="Iofx::DatabaseIO::put\l_field_internal">
<polygon fill="#ffffff" stroke="#000000" points="474.2031,-519.5 474.2031,-547.5 584.7002,-547.5 584.7002,-519.5 474.2031,-519.5"/>
<text text-anchor="start" x="482.2031" y="-535.5" font-family="Helvetica,sans-Serif" font-size="10.00" fill="#000000">Iofx::DatabaseIO::put</text>
<text text-anchor="middle" x="529.4517" y="-525.5" font-family="Helvetica,sans-Serif" font-size="10.00" fill="#000000">_field_internal</text>
</a>
</g>
</g>
<!-- Node68&#45;&gt;Node69 -->
<g id="edge13" class="edge">
<title>Node68&#45;&gt;Node69</title>
<path fill="none" stroke="#191970" d="M445.7995,-533.5C455.2093,-533.5 464.7146,-533.5 473.7738,-533.5"/>
<polygon fill="#191970" stroke="#191970" points="445.6518,-530.0001 435.6518,-533.5 445.6518,-537.0001 445.6518,-530.0001"/>
</g>
<!-- Node71 -->
<g id="node15" class="node">
<title>Node71</title>
<g id="a_node15"><a xlink:href="classIofx_1_1DatabaseIO.html#acb60fed2afd344093587ef3a2216a3c1" target="_top" xlink:title="Iofx::DatabaseIO::put\l_field_internal">
<polygon fill="#ffffff" stroke="#000000" points="474.2031,-472.5 474.2031,-500.5 584.7002,-500.5 584.7002,-472.5 474.2031,-472.5"/>
<text text-anchor="start" x="482.2031" y="-488.5" font-family="Helvetica,sans-Serif" font-size="10.00" fill="#000000">Iofx::DatabaseIO::put</text>
<text text-anchor="middle" x="529.4517" y="-478.5" font-family="Helvetica,sans-Serif" font-size="10.00" fill="#000000">_field_internal</text>
</a>
</g>
</g>
<!-- Node70&#45;&gt;Node71 -->
<g id="edge15" class="edge">
<title>Node70&#45;&gt;Node71</title>
<path fill="none" stroke="#191970" d="M445.7995,-486.5C455.2093,-486.5 464.7146,-486.5 473.7738,-486.5"/>
<polygon fill="#191970" stroke="#191970" points="445.6518,-483.0001 435.6518,-486.5 445.6518,-490.0001 445.6518,-483.0001"/>
</g>
<!-- Node72&#45;&gt;Node66 -->
<g id="edge17" class="edge">
<title>Node72&#45;&gt;Node66</title>
<path fill="none" stroke="#191970" d="M255.7428,-733.333C272.2104,-737.8855 290.4247,-742.4037 307.4033,-745.5 363.5917,-755.7466 428.7461,-761.1571 473.8814,-763.9027"/>
<polygon fill="#191970" stroke="#191970" points="256.3168,-729.8581 245.7418,-730.5064 254.4129,-736.5943 256.3168,-729.8581"/>
</g>
<!-- Node73 -->
<g id="node17" class="node">
<title>Node73</title>
<g id="a_node17"><a xlink:href="classIofx_1_1DatabaseIO.html#aff2a32e19d8777c2fb7691538f1204f2" target="_top" xlink:title="Iofx::DatabaseIO::put\l_Xset_field_internal">
<polygon fill="#ffffff" stroke="#000000" points="316.8589,-707.5 316.8589,-735.5 427.356,-735.5 427.356,-707.5 316.8589,-707.5"/>
<text text-anchor="start" x="324.8589" y="-723.5" font-family="Helvetica,sans-Serif" font-size="10.00" fill="#000000">Iofx::DatabaseIO::put</text>
<text text-anchor="middle" x="372.1074" y="-713.5" font-family="Helvetica,sans-Serif" font-size="10.00" fill="#000000">_Xset_field_internal</text>
</a>
</g>
</g>
<!-- Node72&#45;&gt;Node73 -->
<g id="edge18" class="edge">
<title>Node72&#45;&gt;Node73</title>
<path fill="none" stroke="#191970" d="M270.8815,-718.5393C286.1173,-718.9849 302.0447,-719.4508 316.636,-719.8775"/>
<polygon fill="#191970" stroke="#191970" points="270.5672,-715.0287 260.4691,-718.2347 270.3625,-722.0257 270.5672,-715.0287"/>
</g>
<!-- Node74 -->
<g id="node18" class="node">
<title>Node74</title>
<g id="a_node18"><a xlink:href="classIofx_1_1DatabaseIO.html#ae547ecad41ae4f842db8776e39654f2c" target="_top" xlink:title="Iofx::DatabaseIO::put\l_field_internal">
<polygon fill="#ffffff" stroke="#000000" points="474.2031,-705.5 474.2031,-733.5 584.7002,-733.5 584.7002,-705.5 474.2031,-705.5"/>
<text text-anchor="start" x="482.2031" y="-721.5" font-family="Helvetica,sans-Serif" font-size="10.00" fill="#000000">Iofx::DatabaseIO::put</text>
<text text-anchor="middle" x="529.4517" y="-711.5" font-family="Helvetica,sans-Serif" font-size="10.00" fill="#000000">_field_internal</text>
</a>
</g>
</g>
<!-- Node73&#45;&gt;Node74 -->
<g id="edge19" class="edge">
<title>Node73&#45;&gt;Node74</title>
<path fill="none" stroke="#191970" d="M437.6042,-720.6675C449.6869,-720.5139 462.1964,-720.3549 473.9486,-720.2055"/>
<polygon fill="#191970" stroke="#191970" points="437.5358,-717.168 427.5811,-720.7949 437.6248,-724.1674 437.5358,-717.168"/>
</g>
<!-- Node77 -->
<g id="node21" class="node">
<title>Node77</title>
<g id="a_node21"><a xlink:href="classIopx_1_1DatabaseIO.html#a3bc69b10e9372d6910369fec487059f9" target="_top" xlink:title="Iopx::DatabaseIO::get\l_field_internal">
<polygon fill="#ffffff" stroke="#000000" points="315.4673,-254.5 315.4673,-282.5 428.7476,-282.5 428.7476,-254.5 315.4673,-254.5"/>
<text text-anchor="start" x="323.4673" y="-270.5" font-family="Helvetica,sans-Serif" font-size="10.00" fill="#000000">Iopx::DatabaseIO::get</text>
<text text-anchor="middle" x="372.1074" y="-260.5" font-family="Helvetica,sans-Serif" font-size="10.00" fill="#000000">_field_internal</text>
</a>
</g>
</g>
<!-- Node76&#45;&gt;Node77 -->
<g id="edge22" class="edge">
<title>Node76&#45;&gt;Node77</title>
<path fill="none" stroke="#191970" d="M268.2016,-274.5782C283.8243,-273.6643 300.3096,-272.7 315.4329,-271.8153"/>
<polygon fill="#191970" stroke="#191970" points="267.8613,-271.092 258.0828,-275.1701 268.2702,-278.0801 267.8613,-271.092"/>
</g>
<!-- Node79&#45;&gt;Node78 -->
<g id="edge25" class="edge">
<title>Node79&#45;&gt;Node78</title>
<path fill="none" stroke="#191970" d="M433.6466,-422.6822C448.3507,-418.6638 463.894,-414.416 478.0844,-410.538"/>
<polygon fill="#191970" stroke="#191970" points="432.3514,-419.4077 423.6278,-425.4202 434.1968,-426.1601 432.3514,-419.4077"/>
</g>
<!-- Node80&#45;&gt;Node78 -->
<g id="edge27" class="edge">
<title>Node80&#45;&gt;Node78</title>
<path fill="none" stroke="#191970" d="M271.8762,-373.5173C318.7499,-374.6794 381.5608,-377.1685 436.8115,-382.5 448.4689,-383.6249 460.8969,-385.2245 472.7401,-386.9427"/>
<polygon fill="#191970" stroke="#191970" points="271.9039,-370.0171 261.8248,-373.2823 271.7402,-377.0152 271.9039,-370.0171"/>
</g>
<!-- Node81 -->
<g id="node25" class="node">
<title>Node81</title>
<g id="a_node25"><a xlink:href="classIopx_1_1DatabaseIO.html#ac4c1249be1086d90e5aeb7a366393fd9" target="_top" xlink:title="Iopx::DatabaseIO::put\l_Xset_field_internal">
<polygon fill="#ffffff" stroke="#000000" points="315.4673,-301.5 315.4673,-329.5 428.7476,-329.5 428.7476,-301.5 315.4673,-301.5"/>
<text text-anchor="start" x="323.4673" y="-317.5" font-family="Helvetica,sans-Serif" font-size="10.00" fill="#000000">Iopx::DatabaseIO::put</text>
<text text-anchor="middle" x="372.1074" y="-307.5" font-family="Helvetica,sans-Serif" font-size="10.00" fill="#000000">_Xset_field_internal</text>
</a>
</g>
</g>
<!-- Node80&#45;&gt;Node81 -->
<g id="edge28" class="edge">
<title>Node80&#45;&gt;Node81</title>
<path fill="none" stroke="#191970" d="M254.0593,-355.2366C259.9139,-353.3088 265.7869,-351.3676 271.4033,-349.5 290.8397,-343.037 312.3538,-335.7865 330.4898,-329.6465"/>
<polygon fill="#191970" stroke="#191970" points="252.6798,-352.0057 244.2722,-358.4527 254.8651,-358.6559 252.6798,-352.0057"/>
</g>
<!-- Node82 -->
<g id="node26" class="node">
<title>Node82</title>
<g id="a_node26"><a xlink:href="classIopx_1_1DatabaseIO.html#ae523d7f885ce420952101ccf31e0c5da" target="_top" xlink:title="Iopx::DatabaseIO::put\l_field_internal">
<polygon fill="#ffffff" stroke="#000000" points="472.8115,-301.5 472.8115,-329.5 586.0918,-329.5 586.0918,-301.5 472.8115,-301.5"/>
<text text-anchor="start" x="480.8115" y="-317.5" font-family="Helvetica,sans-Serif" font-size="10.00" fill="#000000">Iopx::DatabaseIO::put</text>
<text text-anchor="middle" x="529.4517" y="-307.5" font-family="Helvetica,sans-Serif" font-size="10.00" fill="#000000">_field_internal</text>
</a>
</g>
</g>
<!-- Node81&#45;&gt;Node82 -->
<g id="edge29" class="edge">
<title>Node81&#45;&gt;Node82</title>
<path fill="none" stroke="#191970" d="M439.0838,-315.5C450.2877,-315.5 461.8153,-315.5 472.7302,-315.5"/>
<polygon fill="#191970" stroke="#191970" points="438.9123,-312.0001 428.9123,-315.5 438.9123,-319.0001 438.9123,-312.0001"/>
</g>
<!-- Node83&#45;&gt;Node67 -->
<g id="edge31" class="edge">
<title>Node83&#45;&gt;Node67</title>
<path fill="none" stroke="#191970" d="M224.6819,-593.2308C245.3406,-610.6166 276.7947,-635.1558 307.4033,-651.5 313.6081,-654.8132 320.3897,-657.8209 327.1526,-660.4879"/>
<polygon fill="#191970" stroke="#191970" points="226.9319,-590.5497 217.0529,-586.7213 222.3883,-595.8747 226.9319,-590.5497"/>
</g>
<!-- Node83&#45;&gt;Node68 -->
<g id="edge32" class="edge">
<title>Node83&#45;&gt;Node68</title>
<path fill="none" stroke="#191970" d="M272.8097,-556.1538C285.3317,-553.297 298.2604,-550.3475 310.4819,-547.5592"/>
<polygon fill="#191970" stroke="#191970" points="271.8467,-552.7835 262.8757,-558.4201 273.4037,-559.6081 271.8467,-552.7835"/>
</g>
<!-- Node83&#45;&gt;Node70 -->
<g id="edge33" class="edge">
<title>Node83&#45;&gt;Node70</title>
<path fill="none" stroke="#191970" d="M231.6512,-552.8042C252.4854,-539.8257 280.9997,-522.9858 307.4033,-510.5 314.8769,-506.9659 323.0223,-503.5934 330.9344,-500.5521"/>
<polygon fill="#191970" stroke="#191970" points="229.5387,-549.9981 222.9382,-558.2856 233.2662,-555.9231 229.5387,-549.9981"/>
</g>
<!-- Node83&#45;&gt;Node79 -->
<g id="edge34" class="edge">
<title>Node83&#45;&gt;Node79</title>
<path fill="none" stroke="#191970" d="M217.8638,-550.2004C237.0836,-525.9106 270.7444,-487.345 307.4033,-463.5 313.2285,-459.711 319.7355,-456.4069 326.3163,-453.5625"/>
<polygon fill="#191970" stroke="#191970" points="215.0592,-548.1054 211.6865,-558.1491 220.5864,-552.4008 215.0592,-548.1054"/>
</g>
<!-- Node84 -->
<g id="node28" class="node">
<title>Node84</title>
<g id="a_node28"><a xlink:href="classIopx_1_1DatabaseIO.html#ae6c892de2888f978e6b5f77ee9824be8" target="_top" xlink:title="Iopx::DatabaseIO::handle\l_face_ids">
<polygon fill="#ffffff" stroke="#000000" points="307.4033,-613.5 307.4033,-641.5 436.8115,-641.5 436.8115,-613.5 307.4033,-613.5"/>
<text text-anchor="start" x="315.4033" y="-629.5" font-family="Helvetica,sans-Serif" font-size="10.00" fill="#000000">Iopx::DatabaseIO::handle</text>
<text text-anchor="middle" x="372.1074" y="-619.5" font-family="Helvetica,sans-Serif" font-size="10.00" fill="#000000">_face_ids</text>
</a>
</g>
</g>
<!-- Node83&#45;&gt;Node84 -->
<g id="edge35" class="edge">
<title>Node83&#45;&gt;Node84</title>
<path fill="none" stroke="#191970" d="M254.3167,-589.6025C278.0834,-597.2491 305.7594,-606.1535 328.3104,-613.4089"/>
<polygon fill="#191970" stroke="#191970" points="255.3307,-586.2521 244.7393,-586.5211 253.1868,-592.9157 255.3307,-586.2521"/>
</g>
<!-- Node86 -->
<g id="node30" class="node">
<title>Node86</title>
<g id="a_node30"><a xlink:href="classIopx_1_1DatabaseIO.html#a233a09506ade7c00e8202a13e77931c0" target="_top" xlink:title="Iopx::DatabaseIO::handle\l_edge_ids">
<polygon fill="#ffffff" stroke="#000000" points="307.4033,-566.5 307.4033,-594.5 436.8115,-594.5 436.8115,-566.5 307.4033,-566.5"/>
<text text-anchor="start" x="315.4033" y="-582.5" font-family="Helvetica,sans-Serif" font-size="10.00" fill="#000000">Iopx::DatabaseIO::handle</text>
<text text-anchor="middle" x="372.1074" y="-572.5" font-family="Helvetica,sans-Serif" font-size="10.00" fill="#000000">_edge_ids</text>
</a>
</g>
</g>
<!-- Node83&#45;&gt;Node86 -->
<g id="edge37" class="edge">
<title>Node83&#45;&gt;Node86</title>
<path fill="none" stroke="#191970" d="M276.4348,-576.0227C286.6826,-576.5023 297.1288,-576.9912 307.1728,-577.4612"/>
<polygon fill="#191970" stroke="#191970" points="276.4281,-572.5187 266.2753,-575.5473 276.1008,-579.511 276.4281,-572.5187"/>
</g>
<!-- Node85 -->
<g id="node29" class="node">
<title>Node85</title>
<g id="a_node29"><a xlink:href="classIopx_1_1DatabaseIO.html#ad21f353e280d388a47c2a57b82ef3686" target="_top" xlink:title="Iopx::DatabaseIO::put\l_field_internal">
<polygon fill="#ffffff" stroke="#000000" points="472.8115,-613.5 472.8115,-641.5 586.0918,-641.5 586.0918,-613.5 472.8115,-613.5"/>
<text text-anchor="start" x="480.8115" y="-629.5" font-family="Helvetica,sans-Serif" font-size="10.00" fill="#000000">Iopx::DatabaseIO::put</text>
<text text-anchor="middle" x="529.4517" y="-619.5" font-family="Helvetica,sans-Serif" font-size="10.00" fill="#000000">_field_internal</text>
</a>
</g>
</g>
<!-- Node84&#45;&gt;Node85 -->
<g id="edge36" class="edge">
<title>Node84&#45;&gt;Node85</title>
<path fill="none" stroke="#191970" d="M447.0905,-627.5C455.7189,-627.5 464.4065,-627.5 472.7371,-627.5"/>
<polygon fill="#191970" stroke="#191970" points="447.0138,-624.0001 437.0138,-627.5 447.0137,-631.0001 447.0138,-624.0001"/>
</g>
<!-- Node87 -->
<g id="node31" class="node">
<title>Node87</title>
<g id="a_node31"><a xlink:href="classIopx_1_1DatabaseIO.html#ab233ae8a8aa546d3dfba2c88ccec8835" target="_top" xlink:title="Iopx::DatabaseIO::put\l_field_internal">
<polygon fill="#ffffff" stroke="#000000" points="472.8115,-566.5 472.8115,-594.5 586.0918,-594.5 586.0918,-566.5 472.8115,-566.5"/>
<text text-anchor="start" x="480.8115" y="-582.5" font-family="Helvetica,sans-Serif" font-size="10.00" fill="#000000">Iopx::DatabaseIO::put</text>
<text text-anchor="middle" x="529.4517" y="-572.5" font-family="Helvetica,sans-Serif" font-size="10.00" fill="#000000">_field_internal</text>
</a>
</g>
</g>
<!-- Node86&#45;&gt;Node87 -->
<g id="edge38" class="edge">
<title>Node86&#45;&gt;Node87</title>
<path fill="none" stroke="#191970" d="M447.0905,-580.5C455.7189,-580.5 464.4065,-580.5 472.7371,-580.5"/>
<polygon fill="#191970" stroke="#191970" points="447.0138,-577.0001 437.0138,-580.5 447.0137,-584.0001 447.0138,-577.0001"/>
</g>
<!-- Node92 -->
<g id="node36" class="node">
<title>Node92</title>
<g id="a_node36"><a xlink:href="classIopg_1_1DatabaseIO.html#abfda3501ed8bcf75ec5f0040c935cb8d" target="_top" xlink:title="Iopg::DatabaseIO::get\l_field_internal">
<polygon fill="#ffffff" stroke="#000000" points="315.1865,-86.5 315.1865,-114.5 429.0283,-114.5 429.0283,-86.5 315.1865,-86.5"/>
<text text-anchor="start" x="323.1865" y="-102.5" font-family="Helvetica,sans-Serif" font-size="10.00" fill="#000000">Iopg::DatabaseIO::get</text>
<text text-anchor="middle" x="372.1074" y="-92.5" font-family="Helvetica,sans-Serif" font-size="10.00" fill="#000000">_field_internal</text>
</a>
</g>
</g>
<!-- Node91&#45;&gt;Node92 -->
<g id="edge43" class="edge">
<title>Node91&#45;&gt;Node92</title>
<path fill="none" stroke="#191970" d="M268.1476,-100.5C283.6861,-100.5 300.0807,-100.5 315.1416,-100.5"/>
<polygon fill="#191970" stroke="#191970" points="268.0828,-97.0001 258.0828,-100.5 268.0828,-104.0001 268.0828,-97.0001"/>
</g>
<!-- Node95 -->
<g id="node39" class="node">
<title>Node95</title>
<g id="a_node39"><a xlink:href="classIovs_1_1DatabaseIO.html#a6e00b65d9147c8c1f6ea79ad96f56dea" target="_top" xlink:title="Iovs::DatabaseIO::handle\l_element_ids">
<polygon fill="#ffffff" stroke="#000000" points="307.6841,-.5 307.6841,-28.5 436.5308,-28.5 436.5308,-.5 307.6841,-.5"/>
<text text-anchor="start" x="315.6841" y="-16.5" font-family="Helvetica,sans-Serif" font-size="10.00" fill="#000000">Iovs::DatabaseIO::handle</text>
<text text-anchor="middle" x="372.1074" y="-6.5" font-family="Helvetica,sans-Serif" font-size="10.00" fill="#000000">_element_ids</text>
</a>
</g>
</g>
<!-- Node94&#45;&gt;Node95 -->
<g id="edge46" class="edge">
<title>Node94&#45;&gt;Node95</title>
<path fill="none" stroke="#191970" d="M270.227,-16.2879C282.5748,-16.0712 295.3973,-15.8462 307.6107,-15.6319"/>
<polygon fill="#191970" stroke="#191970" points="269.9272,-12.7925 259.9902,-16.4676 270.0501,-19.7915 269.9272,-12.7925"/>
</g>
<!-- Node95&#45;&gt;Node93 -->
<g id="edge47" class="edge">
<title>Node95&#45;&gt;Node93</title>
<path fill="none" stroke="#191970" d="M446.5243,-24.905C455.3991,-26.1459 464.3463,-27.3969 472.9125,-28.5946"/>
<polygon fill="#191970" stroke="#191970" points="446.9477,-21.4303 436.5593,-23.5117 445.9783,-28.3628 446.9477,-21.4303"/>
</g>
</g>
</svg>
