<?xml version="1.0" encoding="UTF-8" standalone="no"?>
<!DOCTYPE svg PUBLIC "-//W3C//DTD SVG 1.1//EN"
 "http://www.w3.org/Graphics/SVG/1.1/DTD/svg11.dtd">
<!-- Generated by graphviz version 2.43.0 (0)
 -->
<!-- Title: internal::dynamic_specs_handler&lt; ParseContext &gt; Pages: 1 -->
<!--zoomable 141 -->
<svg id="main" version="1.1" xmlns="http://www.w3.org/2000/svg" xmlns:xlink="http://www.w3.org/1999/xlink" xml:space="preserve" onload="init(evt)">
<style type="text/css"><![CDATA[
.edge:hover path { stroke: red; }
.edge:hover polygon { stroke: red; fill: red; }
]]></style>
<script type="text/javascript"><![CDATA[
var edges = document.getElementsByTagName('g');
if (edges && edges.length) {
  for (var i=0;i<edges.length;i++) {
    if (edges[i].id.substr(0,4)=='edge') {
      edges[i].setAttribute('class','edge');
    }
  }
}
]]></script>
        <defs>
                <circle id="rim" cx="0" cy="0" r="7"/>
                <circle id="rim2" cx="0" cy="0" r="3.5"/>
                <g id="zoomPlus">
                        <use xlink:href="#rim" fill="#404040">
                                <set attributeName="fill" to="#808080" begin="zoomplus.mouseover" end="zoomplus.mouseout"/>
                        </use>
                        <path d="M-4,0h8M0,-4v8" fill="none" stroke="white" stroke-width="1.5" pointer-events="none"/>
                </g>
                <g id="zoomMin">
                        <use xlink:href="#rim" fill="#404040">
                                <set attributeName="fill" to="#808080" begin="zoomminus.mouseover" end="zoomminus.mouseout"/>
                        </use>
                        <path d="M-4,0h8" fill="none" stroke="white" stroke-width="1.5" pointer-events="none"/>
                </g>
                <g id="dirArrow">
                        <path fill="none" stroke="white" stroke-width="1.5" d="M0,-3.0v7 M-2.5,-0.5L0,-3.0L2.5,-0.5"/>
                </g>
               <g id="resetDef">
                       <use xlink:href="#rim2" fill="#404040">
                               <set attributeName="fill" to="#808080" begin="reset.mouseover" end="reset.mouseout"/>
                       </use>
               </g>
        </defs>

<script type="text/javascript">
var viewWidth = 922;
var viewHeight = 141;
var sectionId = 'dynsection-1';
</script>
<script xlink:href="svgpan.js"/>
<svg id="graph" class="graph">
<g id="viewport">
<title>internal::dynamic_specs_handler&lt; ParseContext &gt;</title>
<polygon fill="white" stroke="transparent" points="-4,4 -4,-137 917.81,-137 917.81,4 -4,4"/>
<!-- Node1 -->
<g id="node1" class="node">
<title>Node1</title>
<g id="a_node1"><a xlink:title=" ">
<polygon fill="#bfbfbf" stroke="black" points="781.07,-70.5 781.07,-98.5 913.81,-98.5 913.81,-70.5 781.07,-70.5"/>
<text text-anchor="start" x="789.07" y="-86.5" font-family="Helvetica,sans-Serif" font-size="10.00">internal::dynamic_specs</text>
<text text-anchor="middle" x="847.44" y="-76.5" font-family="Helvetica,sans-Serif" font-size="10.00">_handler&lt; ParseContext &gt;</text>
</a>
</g>
</g>
<!-- Node2 -->
<g id="node2" class="node">
<title>Node2</title>
<g id="a_node2"><a xlink:href="classinternal_1_1specs__setter.html" target="_top" xlink:title=" ">
<polygon fill="white" stroke="black" points="567.31,-95.5 567.31,-123.5 710.61,-123.5 710.61,-95.5 567.31,-95.5"/>
<text text-anchor="start" x="575.31" y="-111.5" font-family="Helvetica,sans-Serif" font-size="10.00">internal::specs_setter</text>
<text text-anchor="middle" x="638.96" y="-101.5" font-family="Helvetica,sans-Serif" font-size="10.00">&lt; ParseContext::char_type &gt;</text>
</a>
</g>
</g>
<!-- Node2&#45;&gt;Node1 -->
<g id="edge1" class="edge">
<title>Node2&#45;&gt;Node1</title>
<path fill="none" stroke="midnightblue" d="M720.73,-99.72C740.7,-97.3 761.84,-94.74 780.97,-92.43"/>
<polygon fill="midnightblue" stroke="midnightblue" points="720.24,-96.25 710.73,-100.93 721.08,-103.2 720.24,-96.25"/>
</g>
<!-- Node3 -->
<g id="node3" class="node">
<title>Node3</title>
<g id="a_node3"><a xlink:href="structbasic__format__specs.html" target="_top" xlink:title=" ">
<polygon fill="white" stroke="black" points="361.07,-94.5 361.07,-132.5 471.28,-132.5 471.28,-94.5 361.07,-94.5"/>
<text text-anchor="start" x="369.07" y="-120.5" font-family="Helvetica,sans-Serif" font-size="10.00">basic_format_specs</text>
<text text-anchor="start" x="369.07" y="-110.5" font-family="Helvetica,sans-Serif" font-size="10.00">&lt; ParseContext::char</text>
<text text-anchor="middle" x="416.18" y="-100.5" font-family="Helvetica,sans-Serif" font-size="10.00">_type &gt;</text>
</a>
</g>
</g>
<!-- Node3&#45;&gt;Node2 -->
<g id="edge2" class="edge">
<title>Node3&#45;&gt;Node2</title>
<path fill="none" stroke="#9a32cd" stroke-dasharray="5,2" d="M481.53,-112.33C508.38,-111.85 539.66,-111.28 567.16,-110.78"/>
<polygon fill="#9a32cd" stroke="#9a32cd" points="481.4,-108.84 471.47,-112.52 481.53,-115.83 481.4,-108.84"/>
<text text-anchor="middle" x="519.3" y="-113.5" font-family="Helvetica,sans-Serif" font-size="10.00"> specs_</text>
</g>
<!-- Node4 -->
<g id="node4" class="node">
<title>Node4</title>
<g id="a_node4"><a xlink:href="structinternal_1_1fill__t.html" target="_top" xlink:title=" ">
<polygon fill="white" stroke="black" points="168.17,-99.5 168.17,-127.5 309.51,-127.5 309.51,-99.5 168.17,-99.5"/>
<text text-anchor="start" x="176.17" y="-115.5" font-family="Helvetica,sans-Serif" font-size="10.00">internal::fill_t&lt; ParseContext</text>
<text text-anchor="middle" x="238.84" y="-105.5" font-family="Helvetica,sans-Serif" font-size="10.00">::char_type &gt;</text>
</a>
</g>
</g>
<!-- Node4&#45;&gt;Node3 -->
<g id="edge3" class="edge">
<title>Node4&#45;&gt;Node3</title>
<path fill="none" stroke="#9a32cd" stroke-dasharray="5,2" d="M319.74,-113.5C333.71,-113.5 347.95,-113.5 361.01,-113.5"/>
<polygon fill="#9a32cd" stroke="#9a32cd" points="319.64,-110 309.64,-113.5 319.64,-117 319.64,-110"/>
<text text-anchor="middle" x="335.29" y="-115.5" font-family="Helvetica,sans-Serif" font-size="10.00"> fill</text>
</g>
<!-- Node5 -->
<g id="node5" class="node">
<title>Node5</title>
<g id="a_node5"><a xlink:href="structinternal_1_1dynamic__format__specs.html" target="_top" xlink:title=" ">
<polygon fill="white" stroke="black" points="576.21,-47.5 576.21,-75.5 701.71,-75.5 701.71,-47.5 576.21,-47.5"/>
<text text-anchor="start" x="584.21" y="-63.5" font-family="Helvetica,sans-Serif" font-size="10.00">internal::dynamic_format</text>
<text text-anchor="middle" x="638.96" y="-53.5" font-family="Helvetica,sans-Serif" font-size="10.00">_specs&lt; char_type &gt;</text>
</a>
</g>
</g>
<!-- Node5&#45;&gt;Node1 -->
<g id="edge4" class="edge">
<title>Node5&#45;&gt;Node1</title>
<path fill="none" stroke="#9a32cd" stroke-dasharray="5,2" d="M712.04,-69.53C734.45,-72.02 759.01,-74.76 780.95,-77.2"/>
<polygon fill="#9a32cd" stroke="#9a32cd" points="712.24,-66.03 701.91,-68.4 711.46,-72.99 712.24,-66.03"/>
<text text-anchor="middle" x="745.84" y="-76.5" font-family="Helvetica,sans-Serif" font-size="10.00"> specs_</text>
</g>
<!-- Node6 -->
<g id="node6" class="node">
<title>Node6</title>
<g id="a_node6"><a xlink:href="structbasic__format__specs.html" target="_top" xlink:title=" ">
<polygon fill="white" stroke="black" points="363.71,-47.5 363.71,-75.5 468.64,-75.5 468.64,-47.5 363.71,-47.5"/>
<text text-anchor="start" x="371.71" y="-63.5" font-family="Helvetica,sans-Serif" font-size="10.00">basic_format_specs</text>
<text text-anchor="middle" x="416.18" y="-53.5" font-family="Helvetica,sans-Serif" font-size="10.00">&lt; char_type &gt;</text>
</a>
</g>
</g>
<!-- Node6&#45;&gt;Node5 -->
<g id="edge5" class="edge">
<title>Node6&#45;&gt;Node5</title>
<path fill="none" stroke="midnightblue" d="M478.72,-61.5C509.13,-61.5 545.73,-61.5 576.17,-61.5"/>
<polygon fill="midnightblue" stroke="midnightblue" points="478.66,-58 468.66,-61.5 478.66,-65 478.66,-58"/>
</g>
<!-- Node7 -->
<g id="node7" class="node">
<title>Node7</title>
<g id="a_node7"><a xlink:href="structinternal_1_1fill__t.html" target="_top" xlink:title=" ">
<polygon fill="white" stroke="black" points="188.73,-47.5 188.73,-75.5 288.94,-75.5 288.94,-47.5 188.73,-47.5"/>
<text text-anchor="start" x="196.73" y="-63.5" font-family="Helvetica,sans-Serif" font-size="10.00">internal::fill_t&lt; char</text>
<text text-anchor="middle" x="238.84" y="-53.5" font-family="Helvetica,sans-Serif" font-size="10.00">_type &gt;</text>
</a>
</g>
</g>
<!-- Node7&#45;&gt;Node6 -->
<g id="edge6" class="edge">
<title>Node7&#45;&gt;Node6</title>
<path fill="none" stroke="#9a32cd" stroke-dasharray="5,2" d="M299.17,-61.5C320.04,-61.5 343.3,-61.5 363.49,-61.5"/>
<polygon fill="#9a32cd" stroke="#9a32cd" points="299.15,-58 289.15,-61.5 299.15,-65 299.15,-58"/>
<text text-anchor="middle" x="335.29" y="-63.5" font-family="Helvetica,sans-Serif" font-size="10.00"> fill</text>
</g>
<!-- Node8 -->
<g id="node8" class="node">
<title>Node8</title>
<g id="a_node8"><a xlink:href="structinternal_1_1arg__ref.html" target="_top" xlink:title=" ">
<polygon fill="white" stroke="black" points="370.24,-0.5 370.24,-28.5 462.12,-28.5 462.12,-0.5 370.24,-0.5"/>
<text text-anchor="start" x="378.24" y="-16.5" font-family="Helvetica,sans-Serif" font-size="10.00">internal::arg_ref&lt;</text>
<text text-anchor="middle" x="416.18" y="-6.5" font-family="Helvetica,sans-Serif" font-size="10.00"> char_type &gt;</text>
</a>
</g>
</g>
<!-- Node8&#45;&gt;Node5 -->
<g id="edge7" class="edge">
<title>Node8&#45;&gt;Node5</title>
<path fill="none" stroke="#9a32cd" stroke-dasharray="5,2" d="M472.25,-22.92C496.05,-26.86 524.15,-31.92 549.31,-37.5 562.39,-40.4 576.43,-43.98 589.39,-47.49"/>
<polygon fill="#9a32cd" stroke="#9a32cd" points="472.76,-19.46 462.33,-21.3 471.64,-26.37 472.76,-19.46"/>
<text text-anchor="middle" x="519.3" y="-49.5" font-family="Helvetica,sans-Serif" font-size="10.00"> precision_ref</text>
<text text-anchor="middle" x="519.3" y="-39.5" font-family="Helvetica,sans-Serif" font-size="10.00">width_ref</text>
</g>
<!-- Node9 -->
<g id="node9" class="node">
<title>Node9</title>
<g id="a_node9"><a xlink:href="unioninternal_1_1arg__ref_1_1value.html" target="_top" xlink:title=" ">
<polygon fill="white" stroke="black" points="192.9,-0.5 192.9,-28.5 284.78,-28.5 284.78,-0.5 192.9,-0.5"/>
<text text-anchor="start" x="200.9" y="-16.5" font-family="Helvetica,sans-Serif" font-size="10.00">internal::arg_ref&lt;</text>
<text text-anchor="middle" x="238.84" y="-6.5" font-family="Helvetica,sans-Serif" font-size="10.00"> Char &gt;::value</text>
</a>
</g>
</g>
<!-- Node9&#45;&gt;Node8 -->
<g id="edge8" class="edge">
<title>Node9&#45;&gt;Node8</title>
<path fill="none" stroke="#9a32cd" stroke-dasharray="5,2" d="M295.1,-14.5C319.28,-14.5 347.29,-14.5 370.18,-14.5"/>
<polygon fill="#9a32cd" stroke="#9a32cd" points="294.99,-11 284.99,-14.5 294.99,-18 294.99,-11"/>
<text text-anchor="middle" x="335.29" y="-16.5" font-family="Helvetica,sans-Serif" font-size="10.00"> val</text>
</g>
<!-- Node10 -->
<g id="node10" class="node">
<title>Node10</title>
<g id="a_node10"><a xlink:href="structinternal_1_1string__view__metadata.html" target="_top" xlink:title=" ">
<polygon fill="white" stroke="black" points="0,-0.5 0,-28.5 104.37,-28.5 104.37,-0.5 0,-0.5"/>
<text text-anchor="start" x="8" y="-16.5" font-family="Helvetica,sans-Serif" font-size="10.00">internal::string_view</text>
<text text-anchor="middle" x="52.19" y="-6.5" font-family="Helvetica,sans-Serif" font-size="10.00">_metadata</text>
</a>
</g>
</g>
<!-- Node10&#45;&gt;Node9 -->
<g id="edge9" class="edge">
<title>Node10&#45;&gt;Node9</title>
<path fill="none" stroke="#9a32cd" stroke-dasharray="5,2" d="M114.91,-14.5C140.33,-14.5 169.25,-14.5 192.65,-14.5"/>
<polygon fill="#9a32cd" stroke="#9a32cd" points="114.62,-11 104.62,-14.5 114.62,-18 114.62,-11"/>
<text text-anchor="middle" x="136.27" y="-16.5" font-family="Helvetica,sans-Serif" font-size="10.00"> name</text>
</g>
</g>
</svg>
        <g id="navigator" transform="translate(0 0)" fill="#404254">
                <rect fill="#f2f5e9" fill-opacity="0.5" stroke="#606060" stroke-width=".5" x="0" y="0" width="60" height="60"/>
                <use id="zoomplus" xlink:href="#zoomPlus" x="17" y="9" onmousedown="handleZoom(evt,'in')"/>
                <use id="zoomminus" xlink:href="#zoomMin" x="42" y="9" onmousedown="handleZoom(evt,'out')"/>
                <use id="reset" xlink:href="#resetDef" x="30" y="36" onmousedown="handleReset()"/>
                <g id="arrowUp" xlink:href="#dirArrow" transform="translate(30 24)" onmousedown="handlePan(0,-1)">
                  <use xlink:href="#rim" fill="#404040">
                        <set attributeName="fill" to="#808080" begin="arrowUp.mouseover" end="arrowUp.mouseout"/>
                  </use>
                  <path fill="none" stroke="white" stroke-width="1.5" d="M0,-3.0v7 M-2.5,-0.5L0,-3.0L2.5,-0.5"/>
                </g>
                <g id="arrowRight" xlink:href="#dirArrow" transform="rotate(90) translate(36 -43)" onmousedown="handlePan(1,0)">
                  <use xlink:href="#rim" fill="#404040">
                        <set attributeName="fill" to="#808080" begin="arrowRight.mouseover" end="arrowRight.mouseout"/>
                  </use>
                  <path fill="none" stroke="white" stroke-width="1.5" d="M0,-3.0v7 M-2.5,-0.5L0,-3.0L2.5,-0.5"/>
                </g>
                <g id="arrowDown" xlink:href="#dirArrow" transform="rotate(180) translate(-30 -48)" onmousedown="handlePan(0,1)">
                  <use xlink:href="#rim" fill="#404040">
                        <set attributeName="fill" to="#808080" begin="arrowDown.mouseover" end="arrowDown.mouseout"/>
                  </use>
                  <path fill="none" stroke="white" stroke-width="1.5" d="M0,-3.0v7 M-2.5,-0.5L0,-3.0L2.5,-0.5"/>
                </g>
                <g id="arrowLeft" xlink:href="#dirArrow" transform="rotate(270) translate(-36 17)" onmousedown="handlePan(-1,0)">
                  <use xlink:href="#rim" fill="#404040">
                        <set attributeName="fill" to="#808080" begin="arrowLeft.mouseover" end="arrowLeft.mouseout"/>
                  </use>
                  <path fill="none" stroke="white" stroke-width="1.5" d="M0,-3.0v7 M-2.5,-0.5L0,-3.0L2.5,-0.5"/>
                </g>
        </g>
        <svg viewBox="0 0 15 15" width="100%" height="30px" preserveAspectRatio="xMaxYMin meet">
         <g id="arrow_out" transform="scale(0.3 0.3)">
          <a xlink:href="classinternal_1_1dynamic__specs__handler__coll__graph_org.svg" target="_base">
           <rect id="button" ry="5" rx="5" y="6" x="6" height="38" width="38"
                fill="#f2f5e9" fill-opacity="0.5" stroke="#606060" stroke-width="1.0"/>
           <path id="arrow"
             d="M 11.500037,31.436501 C 11.940474,20.09759 22.043105,11.32322 32.158766,21.979434 L 37.068811,17.246167 C 37.068811,17.246167 37.088388,32 37.088388,32 L 22.160133,31.978069 C 22.160133,31.978069 26.997745,27.140456 26.997745,27.140456 C 18.528582,18.264221 13.291696,25.230495 11.500037,31.436501 z"
             style="fill:#404040;"/>
          </a>
         </g>
        </svg>
</svg>
