<?xml version="1.0" encoding="UTF-8" standalone="no"?>
<!DOCTYPE svg PUBLIC "-//W3C//DTD SVG 1.1//EN"
 "http://www.w3.org/Graphics/SVG/1.1/DTD/svg11.dtd">
<!-- Generated by graphviz version 2.40.1 (20161225.0304)
 -->
<!-- Title: Iogn::DatabaseIO::get_field_internal Pages: 1 -->
<svg width="631pt" height="826pt"
 viewBox="0.00 0.00 630.87 826.00" xmlns="http://www.w3.org/2000/svg" xmlns:xlink="http://www.w3.org/1999/xlink">
<g id="graph0" class="graph" transform="scale(1 1) rotate(0) translate(4 822)">
<title>Iogn::DatabaseIO::get_field_internal</title>
<polygon fill="#ffffff" stroke="transparent" points="-4,4 -4,-822 626.874,-822 626.874,4 -4,4"/>
<!-- Node273 -->
<g id="node1" class="node">
<title>Node273</title>
<polygon fill="#bfbfbf" stroke="#000000" points="0,-470.5 0,-498.5 113.8418,-498.5 113.8418,-470.5 0,-470.5"/>
<text text-anchor="start" x="8" y="-486.5" font-family="Helvetica,sans-Serif" font-size="10.00" fill="#000000">Iogn::DatabaseIO::get</text>
<text text-anchor="middle" x="56.9209" y="-476.5" font-family="Helvetica,sans-Serif" font-size="10.00" fill="#000000">_field_internal</text>
</g>
<!-- Node274 -->
<g id="node2" class="node">
<title>Node274</title>
<g id="a_node2"><a xlink:href="$classIoss_1_1Field.html#a5bf843c0a14301cbb7b1507a2ee0ccc6" xlink:title="Ioss::Field::verify">
<polygon fill="#ffffff" stroke="#000000" points="166.812,-799.5 166.812,-817.5 257.8315,-817.5 257.8315,-799.5 166.812,-799.5"/>
<text text-anchor="middle" x="212.3218" y="-805.5" font-family="Helvetica,sans-Serif" font-size="10.00" fill="#000000">Ioss::Field::verify</text>
</a>
</g>
</g>
<!-- Node273&#45;&gt;Node274 -->
<g id="edge1" class="edge">
<title>Node273&#45;&gt;Node274</title>
<path fill="none" stroke="#191970" d="M59.4027,-498.779C69.1549,-553.3392 106.4479,-747.723 149.8418,-790.5 152.2133,-792.8378 154.8679,-794.8758 157.7089,-796.6521"/>
<polygon fill="#191970" stroke="#191970" points="156.1957,-799.8092 166.6943,-801.2339 159.3756,-793.5732 156.1957,-799.8092"/>
</g>
<!-- Node275 -->
<g id="node3" class="node">
<title>Node275</title>
<g id="a_node3"><a xlink:href="$classIoss_1_1GroupingEntity.html#a3e8284b8cafbbe1646625124f68a2652" xlink:title="Get the Property from the property manager associated with the entity. ">
<polygon fill="#ffffff" stroke="#000000" points="159.2998,-752.5 159.2998,-780.5 265.3438,-780.5 265.3438,-752.5 159.2998,-752.5"/>
<text text-anchor="start" x="167.2998" y="-768.5" font-family="Helvetica,sans-Serif" font-size="10.00" fill="#000000">Ioss::GroupingEntity</text>
<text text-anchor="middle" x="212.3218" y="-758.5" font-family="Helvetica,sans-Serif" font-size="10.00" fill="#000000">::get_property</text>
</a>
</g>
</g>
<!-- Node273&#45;&gt;Node275 -->
<g id="edge2" class="edge">
<title>Node273&#45;&gt;Node275</title>
<path fill="none" stroke="#191970" d="M57.9184,-498.7543C61.6826,-541.7767 78.6936,-671.7618 149.8418,-743.5 150.9101,-744.5772 152.0331,-745.6043 153.2024,-746.5838"/>
<polygon fill="#191970" stroke="#191970" points="151.2993,-749.5238 161.5019,-752.3802 155.3074,-743.7849 151.2993,-749.5238"/>
</g>
<!-- Node276 -->
<g id="node4" class="node">
<title>Node276</title>
<g id="a_node4"><a xlink:href="$classIoss_1_1Property.html#a45bcbc7137a296f3eda52c92c04da39f" xlink:title="Get the property value if it is of type INTEGER. ">
<polygon fill="#ffffff" stroke="#000000" points="155.6865,-715.5 155.6865,-733.5 268.957,-733.5 268.957,-715.5 155.6865,-715.5"/>
<text text-anchor="middle" x="212.3218" y="-721.5" font-family="Helvetica,sans-Serif" font-size="10.00" fill="#000000">Ioss::Property::get_int</text>
</a>
</g>
</g>
<!-- Node273&#45;&gt;Node276 -->
<g id="edge3" class="edge">
<title>Node273&#45;&gt;Node276</title>
<path fill="none" stroke="#191970" d="M59.1347,-498.7746C65.7664,-536.8563 88.9204,-641.9394 149.8418,-700.5 154.2425,-704.7301 159.468,-708.2348 164.9945,-711.1336"/>
<polygon fill="#191970" stroke="#191970" points="163.9359,-714.4976 174.4869,-715.4612 166.8398,-708.1282 163.9359,-714.4976"/>
</g>
<!-- Node280 -->
<g id="node8" class="node">
<title>Node280</title>
<g id="a_node8"><a xlink:href="$classIoss_1_1Field.html#aade689a336549e6d96d931e7ba73503d" xlink:title="Get the role (MESH, ATTRIBUTE, TRANSIENT, REDUCTION, etc.) of the data in the field. ">
<polygon fill="#ffffff" stroke="#000000" points="329.1636,-676.5 329.1636,-694.5 432.4292,-694.5 432.4292,-676.5 329.1636,-676.5"/>
<text text-anchor="middle" x="380.7964" y="-682.5" font-family="Helvetica,sans-Serif" font-size="10.00" fill="#000000">Ioss::Field::get_role</text>
</a>
</g>
</g>
<!-- Node273&#45;&gt;Node280 -->
<g id="edge7" class="edge">
<title>Node273&#45;&gt;Node280</title>
<path fill="none" stroke="#191970" d="M59.2853,-498.5608C66.0623,-533.9741 89.1198,-626.8988 149.8418,-667.5 200.8249,-701.5894 273.0195,-701.453 323.0645,-695.7701"/>
<polygon fill="#191970" stroke="#191970" points="323.5861,-699.2322 333.0782,-694.5259 322.723,-692.2857 323.5861,-699.2322"/>
</g>
<!-- Node281 -->
<g id="node9" class="node">
<title>Node281</title>
<g id="a_node9"><a xlink:href="$classIoss_1_1Field.html#aca1c35eb7fb1dcd0bf8c80b2b6926131" xlink:title="Ioss::Field::get_name">
<polygon fill="#ffffff" stroke="#000000" points="324.9937,-639.5 324.9937,-657.5 436.5991,-657.5 436.5991,-639.5 324.9937,-639.5"/>
<text text-anchor="middle" x="380.7964" y="-645.5" font-family="Helvetica,sans-Serif" font-size="10.00" fill="#000000">Ioss::Field::get_name</text>
</a>
</g>
</g>
<!-- Node273&#45;&gt;Node281 -->
<g id="edge8" class="edge">
<title>Node273&#45;&gt;Node281</title>
<path fill="none" stroke="#191970" d="M66.6612,-498.5576C81.9731,-519.6228 113.6845,-559.2725 149.8418,-581.5 157.8049,-586.3953 301.8021,-627.9743 310.8018,-630.5 318.4464,-632.6455 326.5887,-634.8301 334.5153,-636.9035"/>
<polygon fill="#191970" stroke="#191970" points="333.8288,-640.3411 344.3868,-639.4589 335.5831,-633.5644 333.8288,-640.3411"/>
</g>
<!-- Node282 -->
<g id="node10" class="node">
<title>Node282</title>
<g id="a_node10"><a xlink:href="$classIogn_1_1GeneratedMesh.html#aba34619c42e1af678511fd5718781932" xlink:title="Iogn::GeneratedMesh\l::nodeset_nodes">
<polygon fill="#ffffff" stroke="#000000" points="155.9575,-496.5 155.9575,-524.5 268.686,-524.5 268.686,-496.5 155.9575,-496.5"/>
<text text-anchor="start" x="163.9575" y="-512.5" font-family="Helvetica,sans-Serif" font-size="10.00" fill="#000000">Iogn::GeneratedMesh</text>
<text text-anchor="middle" x="212.3218" y="-502.5" font-family="Helvetica,sans-Serif" font-size="10.00" fill="#000000">::nodeset_nodes</text>
</a>
</g>
</g>
<!-- Node273&#45;&gt;Node282 -->
<g id="edge9" class="edge">
<title>Node273&#45;&gt;Node282</title>
<path fill="none" stroke="#191970" d="M113.904,-494.0338C124.2759,-495.7691 135.179,-497.5933 145.7977,-499.3699"/>
<polygon fill="#191970" stroke="#191970" points="145.4243,-502.856 155.8648,-501.0542 146.5795,-495.952 145.4243,-502.856"/>
</g>
<!-- Node284 -->
<g id="node12" class="node">
<title>Node284</title>
<g id="a_node12"><a xlink:href="$namespaceanonymous__namespace_02Iogn__DatabaseIO_8C_03.html#aa005bca9336feb67208c324664b0c99d" xlink:title="anonymous_namespace\l\{Iogn_DatabaseIO::C\}\l::map_global_to_local">
<polygon fill="#ffffff" stroke="#000000" points="149.8418,-439.5 149.8418,-477.5 274.8018,-477.5 274.8018,-439.5 149.8418,-439.5"/>
<text text-anchor="start" x="157.8418" y="-465.5" font-family="Helvetica,sans-Serif" font-size="10.00" fill="#000000">anonymous_namespace</text>
<text text-anchor="start" x="157.8418" y="-455.5" font-family="Helvetica,sans-Serif" font-size="10.00" fill="#000000">{Iogn_DatabaseIO::C}</text>
<text text-anchor="middle" x="212.3218" y="-445.5" font-family="Helvetica,sans-Serif" font-size="10.00" fill="#000000">::map_global_to_local</text>
</a>
</g>
</g>
<!-- Node273&#45;&gt;Node284 -->
<g id="edge11" class="edge">
<title>Node273&#45;&gt;Node284</title>
<path fill="none" stroke="#191970" d="M113.904,-474.9662C122.247,-473.5703 130.9337,-472.117 139.5396,-470.6771"/>
<polygon fill="#191970" stroke="#191970" points="140.2944,-474.0996 149.5797,-468.9973 139.1392,-467.1955 140.2944,-474.0996"/>
</g>
<!-- Node286 -->
<g id="node14" class="node">
<title>Node286</title>
<g id="a_node14"><a xlink:href="$classIogn_1_1DatabaseIO.html#a6d30dd13247c8da4de57d6a404c947f3" xlink:title="Iogn::DatabaseIO::get\l_node_map">
<polygon fill="#ffffff" stroke="#000000" points="155.4009,-390.5 155.4009,-418.5 269.2427,-418.5 269.2427,-390.5 155.4009,-390.5"/>
<text text-anchor="start" x="163.4009" y="-406.5" font-family="Helvetica,sans-Serif" font-size="10.00" fill="#000000">Iogn::DatabaseIO::get</text>
<text text-anchor="middle" x="212.3218" y="-396.5" font-family="Helvetica,sans-Serif" font-size="10.00" fill="#000000">_node_map</text>
</a>
</g>
</g>
<!-- Node273&#45;&gt;Node286 -->
<g id="edge13" class="edge">
<title>Node273&#45;&gt;Node286</title>
<path fill="none" stroke="#191970" d="M79.3716,-470.3274C97.9113,-458.9002 125.1026,-442.7689 149.8418,-430.5 155.2362,-427.8248 160.9748,-425.1786 166.7036,-422.6572"/>
<polygon fill="#191970" stroke="#191970" points="168.4652,-425.7099 176.273,-418.5483 165.7033,-419.2777 168.4652,-425.7099"/>
</g>
<!-- Node293 -->
<g id="node21" class="node">
<title>Node293</title>
<g id="a_node21"><a xlink:href="$classIoss_1_1Map.html#a3912e675a8b5e995478e70d239289f80" xlink:title="Ioss::Map::size">
<polygon fill="#ffffff" stroke="#000000" points="170.9771,-353.5 170.9771,-371.5 253.6665,-371.5 253.6665,-353.5 170.9771,-353.5"/>
<text text-anchor="middle" x="212.3218" y="-359.5" font-family="Helvetica,sans-Serif" font-size="10.00" fill="#000000">Ioss::Map::size</text>
</a>
</g>
</g>
<!-- Node273&#45;&gt;Node293 -->
<g id="edge20" class="edge">
<title>Node273&#45;&gt;Node293</title>
<path fill="none" stroke="#191970" d="M65.9611,-470.2798C80.7997,-448.077 112.4391,-405.2637 149.8418,-381.5 153.6038,-379.1098 157.6838,-377.0056 161.8955,-375.156"/>
<polygon fill="#191970" stroke="#191970" points="163.2118,-378.3995 171.2533,-371.5013 160.6652,-371.8791 163.2118,-378.3995"/>
</g>
<!-- Node294 -->
<g id="node22" class="node">
<title>Node294</title>
<g id="a_node22"><a xlink:href="$classIoss_1_1Field.html#aef6a88e8bb72a09570fa57ce0d5dfa10" xlink:title="Ioss::Field::is_type">
<polygon fill="#ffffff" stroke="#000000" points="331.3901,-256.5 331.3901,-274.5 430.2026,-274.5 430.2026,-256.5 331.3901,-256.5"/>
<text text-anchor="middle" x="380.7964" y="-262.5" font-family="Helvetica,sans-Serif" font-size="10.00" fill="#000000">Ioss::Field::is_type</text>
</a>
</g>
</g>
<!-- Node273&#45;&gt;Node294 -->
<g id="edge21" class="edge">
<title>Node273&#45;&gt;Node294</title>
<path fill="none" stroke="#191970" d="M62.6443,-470.4647C74.6925,-442.5822 105.2829,-379.8617 149.8418,-344.5 178.9459,-321.4031 276.5425,-292.8813 335.1436,-277.2036"/>
<polygon fill="#191970" stroke="#191970" points="336.1334,-280.5622 344.9017,-274.6151 334.3386,-273.7961 336.1334,-280.5622"/>
</g>
<!-- Node295 -->
<g id="node23" class="node">
<title>Node295</title>
<g id="a_node23"><a xlink:href="$classIoss_1_1GroupingEntity.html#a9f973e7426401292d53ac7215e5197c1" xlink:title="Get a reference to a field from the entity&#39;s field manager. ">
<polygon fill="#ffffff" stroke="#000000" points="327.7744,-209.5 327.7744,-237.5 433.8184,-237.5 433.8184,-209.5 327.7744,-209.5"/>
<text text-anchor="start" x="335.7744" y="-225.5" font-family="Helvetica,sans-Serif" font-size="10.00" fill="#000000">Ioss::GroupingEntity</text>
<text text-anchor="middle" x="380.7964" y="-215.5" font-family="Helvetica,sans-Serif" font-size="10.00" fill="#000000">::get_fieldref</text>
</a>
</g>
</g>
<!-- Node273&#45;&gt;Node295 -->
<g id="edge22" class="edge">
<title>Node273&#45;&gt;Node295</title>
<path fill="none" stroke="#191970" d="M59.5974,-470.4493C67.1067,-434.9274 91.7411,-340.8578 149.8418,-291.5 156.5077,-285.8371 253.2176,-258.502 319.3559,-240.2605"/>
<polygon fill="#191970" stroke="#191970" points="320.5712,-243.5562 329.2834,-237.5273 318.7131,-236.8073 320.5712,-243.5562"/>
</g>
<!-- Node296 -->
<g id="node24" class="node">
<title>Node296</title>
<g id="a_node24"><a xlink:href="$classIoss_1_1Field.html#a5fefc8709124002432cf8ba943d3780b" xlink:title="Ioss::Field::get_size">
<polygon fill="#ffffff" stroke="#000000" points="160.1348,-145.5 160.1348,-163.5 264.5088,-163.5 264.5088,-145.5 160.1348,-145.5"/>
<text text-anchor="middle" x="212.3218" y="-151.5" font-family="Helvetica,sans-Serif" font-size="10.00" fill="#000000">Ioss::Field::get_size</text>
</a>
</g>
</g>
<!-- Node273&#45;&gt;Node296 -->
<g id="edge23" class="edge">
<title>Node273&#45;&gt;Node296</title>
<path fill="none" stroke="#191970" d="M58.1505,-470.3388C62.675,-425.5762 81.8532,-284.8276 149.8418,-195.5 158.3981,-184.2581 170.9798,-175.1619 182.6143,-168.4198"/>
<polygon fill="#191970" stroke="#191970" points="184.5248,-171.3654 191.6469,-163.5216 181.1878,-165.2119 184.5248,-171.3654"/>
</g>
<!-- Node299 -->
<g id="node27" class="node">
<title>Node299</title>
<g id="a_node27"><a xlink:href="$classIogn_1_1DatabaseIO.html#ae56bab2a11f21796f54b70544207197a" xlink:title="Iogn::DatabaseIO::get\l_field_internal">
<polygon fill="#ffffff" stroke="#000000" points="155.4009,-629.5 155.4009,-657.5 269.2427,-657.5 269.2427,-629.5 155.4009,-629.5"/>
<text text-anchor="start" x="163.4009" y="-645.5" font-family="Helvetica,sans-Serif" font-size="10.00" fill="#000000">Iogn::DatabaseIO::get</text>
<text text-anchor="middle" x="212.3218" y="-635.5" font-family="Helvetica,sans-Serif" font-size="10.00" fill="#000000">_field_internal</text>
</a>
</g>
</g>
<!-- Node273&#45;&gt;Node299 -->
<g id="edge26" class="edge">
<title>Node273&#45;&gt;Node299</title>
<path fill="none" stroke="#191970" d="M63.9621,-498.8446C77.4054,-524.9575 109.0562,-580.674 149.8418,-614.5 154.3824,-618.2658 159.493,-621.6571 164.7852,-624.6784"/>
<polygon fill="#191970" stroke="#191970" points="163.3147,-627.8594 173.7948,-629.4144 166.5718,-621.6633 163.3147,-627.8594"/>
</g>
<!-- Node300 -->
<g id="node28" class="node">
<title>Node300</title>
<g id="a_node28"><a xlink:href="$namespaceanonymous__namespace_02Iogn__DatabaseIO_8C_03.html#af415fc7c297d7df7a2e93542070668e0" xlink:title="anonymous_namespace\l\{Iogn_DatabaseIO::C\}\l::fill_transient_data">
<polygon fill="#ffffff" stroke="#000000" points="149.8418,-204.5 149.8418,-242.5 274.8018,-242.5 274.8018,-204.5 149.8418,-204.5"/>
<text text-anchor="start" x="157.8418" y="-230.5" font-family="Helvetica,sans-Serif" font-size="10.00" fill="#000000">anonymous_namespace</text>
<text text-anchor="start" x="157.8418" y="-220.5" font-family="Helvetica,sans-Serif" font-size="10.00" fill="#000000">{Iogn_DatabaseIO::C}</text>
<text text-anchor="middle" x="212.3218" y="-210.5" font-family="Helvetica,sans-Serif" font-size="10.00" fill="#000000">::fill_transient_data</text>
</a>
</g>
</g>
<!-- Node273&#45;&gt;Node300 -->
<g id="edge28" class="edge">
<title>Node273&#45;&gt;Node300</title>
<path fill="none" stroke="#191970" d="M59.5529,-470.2568C67.2228,-432.1555 92.7248,-326.3257 149.8418,-260.5 153.7056,-256.0471 158.2428,-251.9863 163.0783,-248.3231"/>
<polygon fill="#191970" stroke="#191970" points="165.206,-251.1069 171.4318,-242.5343 161.2189,-245.3534 165.206,-251.1069"/>
</g>
<!-- Node302 -->
<g id="node30" class="node">
<title>Node302</title>
<g id="a_node30"><a xlink:href="$namespaceanonymous__namespace_02Iogn__DatabaseIO_8C_03.html#ad4b61996a5d9506948e05b5babd81770" xlink:title="anonymous_namespace\l\{Iogn_DatabaseIO::C\}\l::fill_constant_data">
<polygon fill="#ffffff" stroke="#000000" points="149.8418,-47.5 149.8418,-85.5 274.8018,-85.5 274.8018,-47.5 149.8418,-47.5"/>
<text text-anchor="start" x="157.8418" y="-73.5" font-family="Helvetica,sans-Serif" font-size="10.00" fill="#000000">anonymous_namespace</text>
<text text-anchor="start" x="157.8418" y="-63.5" font-family="Helvetica,sans-Serif" font-size="10.00" fill="#000000">{Iogn_DatabaseIO::C}</text>
<text text-anchor="middle" x="212.3218" y="-53.5" font-family="Helvetica,sans-Serif" font-size="10.00" fill="#000000">::fill_constant_data</text>
</a>
</g>
</g>
<!-- Node273&#45;&gt;Node302 -->
<g id="edge33" class="edge">
<title>Node273&#45;&gt;Node302</title>
<path fill="none" stroke="#191970" d="M58.3199,-470.3731C63.646,-421.3934 85.7008,-255.3713 149.8418,-136.5 158.4897,-120.473 171.5001,-105.0943 183.4136,-92.8542"/>
<polygon fill="#191970" stroke="#191970" points="186.0221,-95.1961 190.6408,-85.6609 181.084,-90.2347 186.0221,-95.1961"/>
</g>
<!-- Node304 -->
<g id="node32" class="node">
<title>Node304</title>
<g id="a_node32"><a xlink:href="$classIoss_1_1Utils.html#a7f5bc8bdb2f155ff16302c656f9e836e" xlink:title="Ioss::Utils::field\l_warning">
<polygon fill="#ffffff" stroke="#000000" points="170.7012,-543.5 170.7012,-571.5 253.9424,-571.5 253.9424,-543.5 170.7012,-543.5"/>
<text text-anchor="start" x="178.7012" y="-559.5" font-family="Helvetica,sans-Serif" font-size="10.00" fill="#000000">Ioss::Utils::field</text>
<text text-anchor="middle" x="212.3218" y="-549.5" font-family="Helvetica,sans-Serif" font-size="10.00" fill="#000000">_warning</text>
</a>
</g>
</g>
<!-- Node273&#45;&gt;Node304 -->
<g id="edge37" class="edge">
<title>Node273&#45;&gt;Node304</title>
<path fill="none" stroke="#191970" d="M80.9039,-498.6162C99.395,-509.2005 125.7891,-523.6666 149.8418,-534.5 153.8631,-536.3112 158.0738,-538.0935 162.3279,-539.8152"/>
<polygon fill="#191970" stroke="#191970" points="161.0664,-543.0799 171.6538,-543.4752 163.6237,-536.5638 161.0664,-543.0799"/>
</g>
<!-- Node277 -->
<g id="node5" class="node">
<title>Node277</title>
<g id="a_node5"><a xlink:href="$namespaceanonymous__namespace_02Ioss__Property_8C_03.html#a7e9f404cf974920b115b502313608c02" xlink:title="anonymous_namespace\l\{Ioss_Property::C\}::\lerror_message">
<polygon fill="#ffffff" stroke="#000000" points="318.3164,-713.5 318.3164,-751.5 443.2764,-751.5 443.2764,-713.5 318.3164,-713.5"/>
<text text-anchor="start" x="326.3164" y="-739.5" font-family="Helvetica,sans-Serif" font-size="10.00" fill="#000000">anonymous_namespace</text>
<text text-anchor="start" x="326.3164" y="-729.5" font-family="Helvetica,sans-Serif" font-size="10.00" fill="#000000">{Ioss_Property::C}::</text>
<text text-anchor="middle" x="380.7964" y="-719.5" font-family="Helvetica,sans-Serif" font-size="10.00" fill="#000000">error_message</text>
</a>
</g>
</g>
<!-- Node276&#45;&gt;Node277 -->
<g id="edge4" class="edge">
<title>Node276&#45;&gt;Node277</title>
<path fill="none" stroke="#191970" d="M269.3596,-727.2084C281.7128,-727.795 294.9402,-728.4231 307.8108,-729.0343"/>
<polygon fill="#191970" stroke="#191970" points="307.8779,-732.5413 318.0327,-729.5197 308.21,-725.5492 307.8779,-732.5413"/>
</g>
<!-- Node278 -->
<g id="node6" class="node">
<title>Node278</title>
<g id="a_node6"><a xlink:href="$namespaceanonymous__namespace_02Ioss__Property_8C_03.html#a33c896c06915d8a83ca1d8886b26d8ed" xlink:title="anonymous_namespace\l\{Ioss_Property::C\}::\ltype_string">
<polygon fill="#ffffff" stroke="#000000" points="492.3525,-689.5 492.3525,-727.5 617.3125,-727.5 617.3125,-689.5 492.3525,-689.5"/>
<text text-anchor="start" x="500.3525" y="-715.5" font-family="Helvetica,sans-Serif" font-size="10.00" fill="#000000">anonymous_namespace</text>
<text text-anchor="start" x="500.3525" y="-705.5" font-family="Helvetica,sans-Serif" font-size="10.00" fill="#000000">{Ioss_Property::C}::</text>
<text text-anchor="middle" x="554.8325" y="-695.5" font-family="Helvetica,sans-Serif" font-size="10.00" fill="#000000">type_string</text>
</a>
</g>
</g>
<!-- Node277&#45;&gt;Node278 -->
<g id="edge5" class="edge">
<title>Node277&#45;&gt;Node278</title>
<path fill="none" stroke="#191970" d="M443.6274,-723.8354C456.0733,-722.1191 469.2363,-720.3039 481.9825,-718.5462"/>
<polygon fill="#191970" stroke="#191970" points="482.6656,-721.9852 492.0937,-717.1518 481.7093,-715.0508 482.6656,-721.9852"/>
</g>
<!-- Node279 -->
<g id="node7" class="node">
<title>Node279</title>
<g id="a_node7"><a xlink:href="$classIoss_1_1Property.html#a90c992cd11af736282e63e1c34b1c076" xlink:title="Get the property type. ">
<polygon fill="#ffffff" stroke="#000000" points="494.0273,-746.5 494.0273,-764.5 615.6377,-764.5 615.6377,-746.5 494.0273,-746.5"/>
<text text-anchor="middle" x="554.8325" y="-752.5" font-family="Helvetica,sans-Serif" font-size="10.00" fill="#000000">Ioss::Property::get_type</text>
</a>
</g>
</g>
<!-- Node277&#45;&gt;Node279 -->
<g id="edge6" class="edge">
<title>Node277&#45;&gt;Node279</title>
<path fill="none" stroke="#191970" d="M443.6274,-740.8035C456.6621,-742.5261 470.4833,-744.3527 483.7885,-746.1111"/>
<polygon fill="#191970" stroke="#191970" points="483.4685,-749.5991 493.8409,-747.4396 484.3857,-742.6595 483.4685,-749.5991"/>
</g>
<!-- Node283 -->
<g id="node11" class="node">
<title>Node283</title>
<g id="a_node11"><a xlink:href="$classIogn_1_1GeneratedMesh.html#a9e825e7d61b0484d2ad461f3fa24bf09" xlink:title="Iogn::GeneratedMesh\l::nodeset_node_count_proc">
<polygon fill="#ffffff" stroke="#000000" points="310.8018,-498.5 310.8018,-526.5 450.791,-526.5 450.791,-498.5 310.8018,-498.5"/>
<text text-anchor="start" x="318.8018" y="-514.5" font-family="Helvetica,sans-Serif" font-size="10.00" fill="#000000">Iogn::GeneratedMesh</text>
<text text-anchor="middle" x="380.7964" y="-504.5" font-family="Helvetica,sans-Serif" font-size="10.00" fill="#000000">::nodeset_node_count_proc</text>
</a>
</g>
</g>
<!-- Node282&#45;&gt;Node283 -->
<g id="edge10" class="edge">
<title>Node282&#45;&gt;Node283</title>
<path fill="none" stroke="#191970" d="M268.8901,-511.1715C279.0319,-511.2919 289.7757,-511.4195 300.4364,-511.546"/>
<polygon fill="#191970" stroke="#191970" points="300.569,-515.0478 310.6098,-511.6668 300.6521,-508.0482 300.569,-515.0478"/>
</g>
<!-- Node285 -->
<g id="node13" class="node">
<title>Node285</title>
<g id="a_node13"><a xlink:href="$classIoss_1_1Map.html#ab5b9f9efc6c50d676989ae6660bff073" xlink:title="Ioss::Map::global_to\l_local">
<polygon fill="#ffffff" stroke="#000000" points="328.0479,-451.5 328.0479,-479.5 433.5449,-479.5 433.5449,-451.5 328.0479,-451.5"/>
<text text-anchor="start" x="336.0479" y="-467.5" font-family="Helvetica,sans-Serif" font-size="10.00" fill="#000000">Ioss::Map::global_to</text>
<text text-anchor="middle" x="380.7964" y="-457.5" font-family="Helvetica,sans-Serif" font-size="10.00" fill="#000000">_local</text>
</a>
</g>
</g>
<!-- Node284&#45;&gt;Node285 -->
<g id="edge12" class="edge">
<title>Node284&#45;&gt;Node285</title>
<path fill="none" stroke="#191970" d="M275.0555,-461.1065C289.0579,-461.6883 303.9099,-462.3054 317.9181,-462.8875"/>
<polygon fill="#191970" stroke="#191970" points="317.8083,-466.3858 327.945,-463.3041 318.0989,-459.3918 317.8083,-466.3858"/>
</g>
<!-- Node287 -->
<g id="node15" class="node">
<title>Node287</title>
<g id="a_node15"><a xlink:href="$classIoss_1_1Map.html#af3499aa0dc4ab638c5ddca50bed41252" xlink:title="Ioss::Map::map">
<polygon fill="#ffffff" stroke="#000000" points="338.6167,-330.5 338.6167,-348.5 422.9761,-348.5 422.9761,-330.5 338.6167,-330.5"/>
<text text-anchor="middle" x="380.7964" y="-336.5" font-family="Helvetica,sans-Serif" font-size="10.00" fill="#000000">Ioss::Map::map</text>
</a>
</g>
</g>
<!-- Node286&#45;&gt;Node287 -->
<g id="edge14" class="edge">
<title>Node286&#45;&gt;Node287</title>
<path fill="none" stroke="#191970" d="M254.5228,-390.3819C261.4074,-387.6772 268.3822,-384.6856 274.8018,-381.5 291.8096,-373.0603 293.4405,-366.1864 310.8018,-358.5 316.6953,-355.8907 323.0304,-353.5653 329.3949,-351.5145"/>
<polygon fill="#191970" stroke="#191970" points="330.7933,-354.7489 339.3612,-348.5166 328.7768,-348.0456 330.7933,-354.7489"/>
</g>
<!-- Node288 -->
<g id="node16" class="node">
<title>Node288</title>
<g id="a_node16"><a xlink:href="$classIoss_1_1Map.html#aeb06d5b955371e06cfaa5cb0f3e2ea7f" xlink:title="Ioss::Map::set_size">
<polygon fill="#ffffff" stroke="#000000" points="330.001,-293.5 330.001,-311.5 431.5918,-311.5 431.5918,-293.5 330.001,-293.5"/>
<text text-anchor="middle" x="380.7964" y="-299.5" font-family="Helvetica,sans-Serif" font-size="10.00" fill="#000000">Ioss::Map::set_size</text>
</a>
</g>
</g>
<!-- Node286&#45;&gt;Node288 -->
<g id="edge15" class="edge">
<title>Node286&#45;&gt;Node288</title>
<path fill="none" stroke="#191970" d="M260.8898,-390.4687C265.8632,-387.9323 270.6172,-384.9646 274.8018,-381.5 298.7556,-361.6676 286.002,-340.2638 310.8018,-321.5 313.789,-319.2398 317.0273,-317.2483 320.4179,-315.4936"/>
<polygon fill="#191970" stroke="#191970" points="321.962,-318.6375 329.6807,-311.3799 319.1209,-312.24 321.962,-318.6375"/>
</g>
<!-- Node289 -->
<g id="node17" class="node">
<title>Node289</title>
<g id="a_node17"><a xlink:href="$classIogn_1_1GeneratedMesh.html#a8ca47dae9ba3512c1c8f97c553c646dc" xlink:title="Iogn::GeneratedMesh\l::node_map">
<polygon fill="#ffffff" stroke="#000000" points="324.4321,-404.5 324.4321,-432.5 437.1606,-432.5 437.1606,-404.5 324.4321,-404.5"/>
<text text-anchor="start" x="332.4321" y="-420.5" font-family="Helvetica,sans-Serif" font-size="10.00" fill="#000000">Iogn::GeneratedMesh</text>
<text text-anchor="middle" x="380.7964" y="-410.5" font-family="Helvetica,sans-Serif" font-size="10.00" fill="#000000">::node_map</text>
</a>
</g>
</g>
<!-- Node286&#45;&gt;Node289 -->
<g id="edge16" class="edge">
<title>Node286&#45;&gt;Node289</title>
<path fill="none" stroke="#191970" d="M269.3596,-409.2398C283.7861,-410.4386 299.4048,-411.7365 314.2552,-412.9705"/>
<polygon fill="#191970" stroke="#191970" points="314.1338,-416.4724 324.3893,-413.8127 314.7135,-409.4965 314.1338,-416.4724"/>
</g>
<!-- Node291 -->
<g id="node19" class="node">
<title>Node291</title>
<g id="a_node19"><a xlink:href="$classIoss_1_1Map.html#a2e65d0ea8d6b141ed17a929e4c610b41" xlink:title="Ioss::Map::set_map">
<polygon fill="#ffffff" stroke="#000000" points="329.166,-367.5 329.166,-385.5 432.4268,-385.5 432.4268,-367.5 329.166,-367.5"/>
<text text-anchor="middle" x="380.7964" y="-373.5" font-family="Helvetica,sans-Serif" font-size="10.00" fill="#000000">Ioss::Map::set_map</text>
</a>
</g>
</g>
<!-- Node286&#45;&gt;Node291 -->
<g id="edge18" class="edge">
<title>Node286&#45;&gt;Node291</title>
<path fill="none" stroke="#191970" d="M269.3596,-395.0205C285.3283,-392.3665 302.758,-389.4698 318.9892,-386.7722"/>
<polygon fill="#191970" stroke="#191970" points="319.626,-390.2144 328.9168,-385.1222 318.4783,-383.3092 319.626,-390.2144"/>
</g>
<!-- Node290 -->
<g id="node18" class="node">
<title>Node290</title>
<g id="a_node18"><a xlink:href="$classIogn_1_1GeneratedMesh.html#ae63bcfa4dec36e883b5c1333154f389b" xlink:title="Iogn::GeneratedMesh\l::node_count_proc">
<polygon fill="#ffffff" stroke="#000000" points="498.4683,-406.5 498.4683,-434.5 611.1968,-434.5 611.1968,-406.5 498.4683,-406.5"/>
<text text-anchor="start" x="506.4683" y="-422.5" font-family="Helvetica,sans-Serif" font-size="10.00" fill="#000000">Iogn::GeneratedMesh</text>
<text text-anchor="middle" x="554.8325" y="-412.5" font-family="Helvetica,sans-Serif" font-size="10.00" fill="#000000">::node_count_proc</text>
</a>
</g>
</g>
<!-- Node289&#45;&gt;Node290 -->
<g id="edge17" class="edge">
<title>Node289&#45;&gt;Node290</title>
<path fill="none" stroke="#191970" d="M437.3009,-419.1493C453.4931,-419.3354 471.2992,-419.54 488.0468,-419.7325"/>
<polygon fill="#191970" stroke="#191970" points="488.2743,-423.2353 498.3139,-419.8505 488.3548,-416.2357 488.2743,-423.2353"/>
</g>
<!-- Node292 -->
<g id="node20" class="node">
<title>Node292</title>
<g id="a_node20"><a xlink:href="$namespaceanonymous__namespace_02Ioss__Map_8C_03.html#aa1a8680ec9949ce1b6ad349b6f0e48ea" xlink:title="anonymous_namespace\l\{Ioss_Map::C\}::is_one2one">
<polygon fill="#ffffff" stroke="#000000" points="486.791,-359.5 486.791,-387.5 622.874,-387.5 622.874,-359.5 486.791,-359.5"/>
<text text-anchor="start" x="494.791" y="-375.5" font-family="Helvetica,sans-Serif" font-size="10.00" fill="#000000">anonymous_namespace</text>
<text text-anchor="middle" x="554.8325" y="-365.5" font-family="Helvetica,sans-Serif" font-size="10.00" fill="#000000">{Ioss_Map::C}::is_one2one</text>
</a>
</g>
</g>
<!-- Node291&#45;&gt;Node292 -->
<g id="edge19" class="edge">
<title>Node291&#45;&gt;Node292</title>
<path fill="none" stroke="#191970" d="M432.5418,-375.608C446.3001,-375.3709 461.4746,-375.1093 476.316,-374.8535"/>
<polygon fill="#191970" stroke="#191970" points="476.578,-378.3496 486.5162,-374.6776 476.4573,-371.3506 476.578,-378.3496"/>
</g>
<!-- Node297 -->
<g id="node25" class="node">
<title>Node297</title>
<g id="a_node25"><a xlink:href="$namespaceanonymous__namespace_02Ioss__Field_8C_03.html#a6f17c234b0f7c17fe27d6910811e43de" xlink:title="anonymous_namespace\l\{Ioss_Field::C\}::internal\l_get_size">
<polygon fill="#ffffff" stroke="#000000" points="318.3164,-113.5 318.3164,-151.5 443.2764,-151.5 443.2764,-113.5 318.3164,-113.5"/>
<text text-anchor="start" x="326.3164" y="-139.5" font-family="Helvetica,sans-Serif" font-size="10.00" fill="#000000">anonymous_namespace</text>
<text text-anchor="start" x="326.3164" y="-129.5" font-family="Helvetica,sans-Serif" font-size="10.00" fill="#000000">{Ioss_Field::C}::internal</text>
<text text-anchor="middle" x="380.7964" y="-119.5" font-family="Helvetica,sans-Serif" font-size="10.00" fill="#000000">_get_size</text>
</a>
</g>
</g>
<!-- Node296&#45;&gt;Node297 -->
<g id="edge24" class="edge">
<title>Node296&#45;&gt;Node297</title>
<path fill="none" stroke="#191970" d="M264.7047,-147.6597C278.4391,-145.8662 293.4985,-143.8997 308.0877,-141.9946"/>
<polygon fill="#191970" stroke="#191970" points="308.6281,-145.4538 318.0907,-140.6883 307.7217,-138.5127 308.6281,-145.4538"/>
</g>
<!-- Node298 -->
<g id="node26" class="node">
<title>Node298</title>
<g id="a_node26"><a xlink:href="$classIoss_1_1VariableType.html#ad1e37f24dd5bbe9ed6bee80a93665d6c" xlink:title="Ioss::VariableType\l::component_count">
<polygon fill="#ffffff" stroke="#000000" points="504.3032,-118.5 504.3032,-146.5 605.3618,-146.5 605.3618,-118.5 504.3032,-118.5"/>
<text text-anchor="start" x="512.3032" y="-134.5" font-family="Helvetica,sans-Serif" font-size="10.00" fill="#000000">Ioss::VariableType</text>
<text text-anchor="middle" x="554.8325" y="-124.5" font-family="Helvetica,sans-Serif" font-size="10.00" fill="#000000">::component_count</text>
</a>
</g>
</g>
<!-- Node297&#45;&gt;Node298 -->
<g id="edge25" class="edge">
<title>Node297&#45;&gt;Node298</title>
<path fill="none" stroke="#191970" d="M443.6274,-132.5C459.9207,-132.5 477.443,-132.5 493.6503,-132.5"/>
<polygon fill="#191970" stroke="#191970" points="494.0848,-136.0001 504.0848,-132.5 494.0847,-129.0001 494.0848,-136.0001"/>
</g>
<!-- Node299&#45;&gt;Node280 -->
<g id="edge27" class="edge">
<title>Node299&#45;&gt;Node280</title>
<path fill="none" stroke="#191970" d="M268.8901,-657.6022C290.2338,-662.9231 314.2436,-668.9087 334.5352,-673.9673"/>
<polygon fill="#191970" stroke="#191970" points="333.9211,-677.4212 344.4708,-676.4442 335.6144,-670.6291 333.9211,-677.4212"/>
</g>
<!-- Node300&#45;&gt;Node294 -->
<g id="edge30" class="edge">
<title>Node300&#45;&gt;Node294</title>
<path fill="none" stroke="#191970" d="M275.0555,-239.1392C294.7896,-244.0589 316.2111,-249.3992 334.58,-253.9785"/>
<polygon fill="#191970" stroke="#191970" points="333.8912,-257.4138 344.4408,-256.4367 335.5845,-250.6217 333.8912,-257.4138"/>
</g>
<!-- Node300&#45;&gt;Node295 -->
<g id="edge29" class="edge">
<title>Node300&#45;&gt;Node295</title>
<path fill="none" stroke="#191970" d="M275.0555,-223.5C288.8474,-223.5 303.4636,-223.5 317.2858,-223.5"/>
<polygon fill="#191970" stroke="#191970" points="317.6743,-227.0001 327.6743,-223.5 317.6742,-220.0001 317.6743,-227.0001"/>
</g>
<!-- Node300&#45;&gt;Node298 -->
<g id="edge32" class="edge">
<title>Node300&#45;&gt;Node298</title>
<path fill="none" stroke="#191970" d="M275.162,-207.4814C323.2932,-195.135 391.3114,-177.5203 450.791,-161.5 465.208,-157.6169 480.7218,-153.3438 495.2555,-149.299"/>
<polygon fill="#191970" stroke="#191970" points="496.4435,-152.6013 505.1352,-146.5429 494.5625,-145.8588 496.4435,-152.6013"/>
</g>
<!-- Node301 -->
<g id="node29" class="node">
<title>Node301</title>
<g id="a_node29"><a xlink:href="$classIoss_1_1Field.html#aa50e28cbc6eff5e4056eda686d79f4e1" xlink:title="Ioss::Field::raw_storage">
<polygon fill="#ffffff" stroke="#000000" points="319.7178,-76.5 319.7178,-94.5 441.875,-94.5 441.875,-76.5 319.7178,-76.5"/>
<text text-anchor="middle" x="380.7964" y="-82.5" font-family="Helvetica,sans-Serif" font-size="10.00" fill="#000000">Ioss::Field::raw_storage</text>
</a>
</g>
</g>
<!-- Node300&#45;&gt;Node301 -->
<g id="edge31" class="edge">
<title>Node300&#45;&gt;Node301</title>
<path fill="none" stroke="#191970" d="M241.2662,-204.3068C252.66,-195.7969 265.2695,-185.0874 274.8018,-173.5 296.7765,-146.7875 283.8512,-126.182 310.8018,-104.5 313.4016,-102.4084 316.2132,-100.5462 319.1649,-98.8884"/>
<polygon fill="#191970" stroke="#191970" points="320.8466,-101.9642 328.3685,-94.5029 317.8354,-95.6449 320.8466,-101.9642"/>
</g>
<!-- Node302&#45;&gt;Node298 -->
<g id="edge36" class="edge">
<title>Node302&#45;&gt;Node298</title>
<path fill="none" stroke="#191970" d="M274.9098,-57.5509C323.7987,-52.7403 392.9199,-50.777 450.791,-67.5 480.8686,-76.1915 510.7093,-96.3336 530.6677,-111.9102"/>
<polygon fill="#191970" stroke="#191970" points="528.5966,-114.7357 538.5882,-118.2597 532.9749,-109.274 528.5966,-114.7357"/>
</g>
<!-- Node302&#45;&gt;Node301 -->
<g id="edge35" class="edge">
<title>Node302&#45;&gt;Node301</title>
<path fill="none" stroke="#191970" d="M275.0555,-73.5749C286.3434,-74.8479 298.1834,-76.1832 309.6884,-77.4807"/>
<polygon fill="#191970" stroke="#191970" points="309.361,-80.9659 319.6903,-78.6087 310.1456,-74.01 309.361,-80.9659"/>
</g>
<!-- Node303 -->
<g id="node31" class="node">
<title>Node303</title>
<g id="a_node31"><a xlink:href="$classIoss_1_1Field.html#ac24230b1f5a5bda5d68b842c20efa9bb" xlink:title="Ioss::Field::raw_count">
<polygon fill="#ffffff" stroke="#000000" points="324.1636,-.5 324.1636,-18.5 437.4292,-18.5 437.4292,-.5 324.1636,-.5"/>
<text text-anchor="middle" x="380.7964" y="-6.5" font-family="Helvetica,sans-Serif" font-size="10.00" fill="#000000">Ioss::Field::raw_count</text>
</a>
</g>
</g>
<!-- Node302&#45;&gt;Node303 -->
<g id="edge34" class="edge">
<title>Node302&#45;&gt;Node303</title>
<path fill="none" stroke="#191970" d="M268.8901,-47.3613C293.7592,-38.9473 322.2478,-29.3087 344.2569,-21.8624"/>
<polygon fill="#191970" stroke="#191970" points="345.5261,-25.128 353.8769,-18.6077 343.2826,-18.4972 345.5261,-25.128"/>
</g>
<!-- Node304&#45;&gt;Node281 -->
<g id="edge40" class="edge">
<title>Node304&#45;&gt;Node281</title>
<path fill="none" stroke="#191970" d="M249.9191,-571.6145C258.5299,-575.7305 267.3373,-580.7091 274.8018,-586.5 294.7654,-601.9879 289.5075,-616.8994 310.8018,-630.5 313.7461,-632.3805 316.8779,-634.0649 320.1217,-635.5736"/>
<polygon fill="#191970" stroke="#191970" points="318.9146,-638.8609 329.4969,-639.3771 321.5462,-632.3744 318.9146,-638.8609"/>
</g>
<!-- Node305 -->
<g id="node33" class="node">
<title>Node305</title>
<g id="a_node33"><a xlink:href="$classIoss_1_1GroupingEntity.html#adf92c4256dc89b729f4492642bc4d745" xlink:title="Get the name of the particular type of entity. ">
<polygon fill="#ffffff" stroke="#000000" points="327.7744,-592.5 327.7744,-620.5 433.8184,-620.5 433.8184,-592.5 327.7744,-592.5"/>
<text text-anchor="start" x="335.7744" y="-608.5" font-family="Helvetica,sans-Serif" font-size="10.00" fill="#000000">Ioss::GroupingEntity</text>
<text text-anchor="middle" x="380.7964" y="-598.5" font-family="Helvetica,sans-Serif" font-size="10.00" fill="#000000">::type_string</text>
</a>
</g>
</g>
<!-- Node304&#45;&gt;Node305 -->
<g id="edge38" class="edge">
<title>Node304&#45;&gt;Node305</title>
<path fill="none" stroke="#191970" d="M253.9672,-569.6124C274.6781,-575.636 300.0505,-583.0155 322.6449,-589.5869"/>
<polygon fill="#191970" stroke="#191970" points="321.8894,-593.0122 332.469,-592.4442 323.8443,-586.2907 321.8894,-593.0122"/>
</g>
<!-- Node306 -->
<g id="node34" class="node">
<title>Node306</title>
<g id="a_node34"><a xlink:href="$classIoss_1_1GroupingEntity.html#a50d4053f49c8c3205e05d939fdc9fbc5" xlink:title="Get name of entity. ">
<polygon fill="#ffffff" stroke="#000000" points="327.7744,-545.5 327.7744,-573.5 433.8184,-573.5 433.8184,-545.5 327.7744,-545.5"/>
<text text-anchor="start" x="335.7744" y="-561.5" font-family="Helvetica,sans-Serif" font-size="10.00" fill="#000000">Ioss::GroupingEntity</text>
<text text-anchor="middle" x="380.7964" y="-551.5" font-family="Helvetica,sans-Serif" font-size="10.00" fill="#000000">::name</text>
</a>
</g>
</g>
<!-- Node304&#45;&gt;Node306 -->
<g id="edge39" class="edge">
<title>Node304&#45;&gt;Node306</title>
<path fill="none" stroke="#191970" d="M253.9672,-557.9944C273.0597,-558.221 296.1135,-558.4947 317.3007,-558.7462"/>
<polygon fill="#191970" stroke="#191970" points="317.4852,-562.2486 327.5261,-558.8676 317.5684,-555.2491 317.4852,-562.2486"/>
</g>
</g>
</svg>
