<?xml version="1.0" encoding="UTF-8" standalone="no"?>
<!DOCTYPE svg PUBLIC "-//W3C//DTD SVG 1.1//EN"
 "http://www.w3.org/Graphics/SVG/1.1/DTD/svg11.dtd">
<!-- Generated by graphviz version 2.40.1 (20161225.0304)
 -->
<!-- Title: Ioex::DatabaseIO::add_region_fields Pages: 1 -->
<svg width="279pt" height="84pt"
 viewBox="0.00 0.00 279.46 84.00" xmlns="http://www.w3.org/2000/svg" xmlns:xlink="http://www.w3.org/1999/xlink">
<g id="graph0" class="graph" transform="scale(1 1) rotate(0) translate(4 80)">
<title>Ioex::DatabaseIO::add_region_fields</title>
<polygon fill="#ffffff" stroke="transparent" points="-4,4 -4,-80 275.457,-80 275.457,4 -4,4"/>
<!-- Node177 -->
<g id="node1" class="node">
<title>Node177</title>
<polygon fill="#bfbfbf" stroke="#000000" points="0,-23.5 0,-51.5 116.0635,-51.5 116.0635,-23.5 0,-23.5"/>
<text text-anchor="start" x="8" y="-39.5" font-family="Helvetica,sans-Serif" font-size="10.00" fill="#000000">Ioex::DatabaseIO::add</text>
<text text-anchor="middle" x="58.0317" y="-29.5" font-family="Helvetica,sans-Serif" font-size="10.00" fill="#000000">_region_fields</text>
</g>
<!-- Node178 -->
<g id="node2" class="node">
<title>Node178</title>
<g id="a_node2"><a xlink:href="classIofx_1_1DatabaseIO.html#a79b188c0f0320a9656ad80866af72fb6" target="_top" xlink:title="Iofx::DatabaseIO::read\l_meta_data__">
<polygon fill="#ffffff" stroke="#000000" points="153.4551,-47.5 153.4551,-75.5 270.0654,-75.5 270.0654,-47.5 153.4551,-47.5"/>
<text text-anchor="start" x="161.4551" y="-63.5" font-family="Helvetica,sans-Serif" font-size="10.00" fill="#000000">Iofx::DatabaseIO::read</text>
<text text-anchor="middle" x="211.7603" y="-53.5" font-family="Helvetica,sans-Serif" font-size="10.00" fill="#000000">_meta_data__</text>
</a>
</g>
</g>
<!-- Node177&#45;&gt;Node178 -->
<g id="edge1" class="edge">
<title>Node177&#45;&gt;Node178</title>
<path fill="none" stroke="#191970" d="M126.2463,-48.1496C135.2734,-49.5589 144.4618,-50.9934 153.3047,-52.374"/>
<polygon fill="#191970" stroke="#191970" points="126.5701,-44.6579 116.1499,-46.5734 125.4903,-51.5741 126.5701,-44.6579"/>
</g>
<!-- Node179 -->
<g id="node3" class="node">
<title>Node179</title>
<g id="a_node3"><a xlink:href="classIopx_1_1DatabaseIO.html#aa5fbe815a5233885cb3491ee0de291a4" target="_top" xlink:title="Iopx::DatabaseIO::read\l_meta_data__">
<polygon fill="#ffffff" stroke="#000000" points="152.0635,-.5 152.0635,-28.5 271.457,-28.5 271.457,-.5 152.0635,-.5"/>
<text text-anchor="start" x="160.0635" y="-16.5" font-family="Helvetica,sans-Serif" font-size="10.00" fill="#000000">Iopx::DatabaseIO::read</text>
<text text-anchor="middle" x="211.7603" y="-6.5" font-family="Helvetica,sans-Serif" font-size="10.00" fill="#000000">_meta_data__</text>
</a>
</g>
</g>
<!-- Node177&#45;&gt;Node179 -->
<g id="edge2" class="edge">
<title>Node177&#45;&gt;Node179</title>
<path fill="none" stroke="#191970" d="M126.171,-27.3054C134.7879,-26.0162 143.5531,-24.7048 152.0257,-23.4372"/>
<polygon fill="#191970" stroke="#191970" points="125.5219,-23.8635 116.1499,-28.8047 126.5577,-30.7864 125.5219,-23.8635"/>
</g>
</g>
</svg>
