<?xml version="1.0" encoding="UTF-8" standalone="no"?>
<!DOCTYPE svg PUBLIC "-//W3C//DTD SVG 1.1//EN"
 "http://www.w3.org/Graphics/SVG/1.1/DTD/svg11.dtd">
<!-- Generated by graphviz version 2.42.3 (20191010.1750)
 -->
<!-- Title: Ioad::AdiosWrapper Pages: 1 -->
<svg width="270pt" height="82pt"
 viewBox="0.00 0.00 270.15 82.00" xmlns="http://www.w3.org/2000/svg" xmlns:xlink="http://www.w3.org/1999/xlink">
<g id="graph0" class="graph" transform="scale(1 1) rotate(0) translate(4 78)">
<title>Ioad::AdiosWrapper</title>
<polygon fill="white" stroke="transparent" points="-4,4 -4,-78 266.15,-78 266.15,4 -4,4"/>
<!-- Node1 -->
<g id="node1" class="node">
<title>Node1</title>
<g id="a_node1"><a xlink:title=" ">
<polygon fill="#bfbfbf" stroke="black" points="78.97,-0.5 78.97,-18.5 183.17,-18.5 183.17,-0.5 78.97,-0.5"/>
<text text-anchor="middle" x="131.07" y="-6.5" font-family="Helvetica,sans-Serif" font-size="10.00">Ioad::AdiosWrapper</text>
</a>
</g>
</g>
<!-- Node2 -->
<g id="node2" class="node">
<title>Node2</title>
<g id="a_node2"><a xlink:title=" ">
<polygon fill="white" stroke="#bfbfbf" points="0,-55.5 0,-73.5 82.14,-73.5 82.14,-55.5 0,-55.5"/>
<text text-anchor="middle" x="41.07" y="-61.5" font-family="Helvetica,sans-Serif" font-size="10.00">adios2::ADIOS</text>
</a>
</g>
</g>
<!-- Node2&#45;&gt;Node1 -->
<g id="edge1" class="edge">
<title>Node2&#45;&gt;Node1</title>
<path fill="none" stroke="#8b1a1a" d="M63.44,-50.33C80.32,-40.39 102.95,-27.06 117.27,-18.63"/>
<polygon fill="#8b1a1a" stroke="#8b1a1a" points="61.58,-47.36 54.74,-55.45 65.13,-53.39 61.58,-47.36"/>
</g>
<!-- Node3 -->
<g id="node3" class="node">
<title>Node3</title>
<g id="a_node3"><a xlink:title=" ">
<polygon fill="white" stroke="#bfbfbf" points="100.28,-55.5 100.28,-73.5 161.86,-73.5 161.86,-55.5 100.28,-55.5"/>
<text text-anchor="middle" x="131.07" y="-61.5" font-family="Helvetica,sans-Serif" font-size="10.00">adios2::IO</text>
</a>
</g>
</g>
<!-- Node3&#45;&gt;Node1 -->
<g id="edge2" class="edge">
<title>Node3&#45;&gt;Node1</title>
<path fill="none" stroke="#8b1a1a" d="M131.07,-45.17C131.07,-36.09 131.07,-25.59 131.07,-18.55"/>
<polygon fill="#8b1a1a" stroke="#8b1a1a" points="127.57,-45.22 131.07,-55.22 134.57,-45.22 127.57,-45.22"/>
</g>
<!-- Node4 -->
<g id="node4" class="node">
<title>Node4</title>
<g id="a_node4"><a xlink:title=" ">
<polygon fill="white" stroke="#bfbfbf" points="179.99,-55.5 179.99,-73.5 262.15,-73.5 262.15,-55.5 179.99,-55.5"/>
<text text-anchor="middle" x="221.07" y="-61.5" font-family="Helvetica,sans-Serif" font-size="10.00">adios2::Engine</text>
</a>
</g>
</g>
<!-- Node4&#45;&gt;Node1 -->
<g id="edge3" class="edge">
<title>Node4&#45;&gt;Node1</title>
<path fill="none" stroke="#8b1a1a" d="M198.7,-50.33C181.82,-40.39 159.19,-27.06 144.87,-18.63"/>
<polygon fill="#8b1a1a" stroke="#8b1a1a" points="197.01,-53.39 207.4,-55.45 200.56,-47.36 197.01,-53.39"/>
</g>
</g>
</svg>
