<?xml version="1.0" encoding="UTF-8" standalone="no"?>
<!DOCTYPE svg PUBLIC "-//W3C//DTD SVG 1.1//EN"
 "http://www.w3.org/Graphics/SVG/1.1/DTD/svg11.dtd">
<!-- Generated by graphviz version 2.40.1 (20161225.0304)
 -->
<!-- Title: Ioex::SuperElement::get_implicit_property Pages: 1 -->
<svg width="582pt" height="123pt"
 viewBox="0.00 0.00 582.41 123.00" xmlns="http://www.w3.org/2000/svg" xmlns:xlink="http://www.w3.org/1999/xlink">
<g id="graph0" class="graph" transform="scale(1 1) rotate(0) translate(4 119)">
<title>Ioex::SuperElement::get_implicit_property</title>
<polygon fill="#ffffff" stroke="transparent" points="-4,4 -4,-119 578.4072,-119 578.4072,4 -4,4"/>
<!-- Node16 -->
<g id="node1" class="node">
<title>Node16</title>
<polygon fill="#bfbfbf" stroke="#000000" points="0,-70.5 0,-98.5 113.8223,-98.5 113.8223,-70.5 0,-70.5"/>
<text text-anchor="start" x="8" y="-86.5" font-family="Helvetica,sans-Serif" font-size="10.00" fill="#000000">Ioex::SuperElement</text>
<text text-anchor="middle" x="56.9111" y="-76.5" font-family="Helvetica,sans-Serif" font-size="10.00" fill="#000000">::get_implicit_property</text>
</g>
<!-- Node17 -->
<g id="node2" class="node">
<title>Node17</title>
<g id="a_node2"><a xlink:href="$classIoss_1_1Utils.html#a4345fe52d79d612a6d4779e260e0006b" xlink:title="Case&#45;insensitive string comparison. ">
<polygon fill="#ffffff" stroke="#000000" points="149.8223,-96.5 149.8223,-114.5 271.4033,-114.5 271.4033,-96.5 149.8223,-96.5"/>
<text text-anchor="middle" x="210.6128" y="-102.5" font-family="Helvetica,sans-Serif" font-size="10.00" fill="#000000">Ioss::Utils::case_strcmp</text>
</a>
</g>
</g>
<!-- Node16&#45;&gt;Node17 -->
<g id="edge1" class="edge">
<title>Node16&#45;&gt;Node17</title>
<path fill="none" stroke="#191970" d="M114.144,-92.3196C122.487,-93.4595 131.1606,-94.6446 139.7345,-95.816"/>
<polygon fill="#191970" stroke="#191970" points="139.3461,-99.2954 149.7279,-97.1814 140.2937,-92.3598 139.3461,-99.2954"/>
</g>
<!-- Node18 -->
<g id="node3" class="node">
<title>Node18</title>
<g id="a_node3"><a xlink:href="$classIoss_1_1GroupingEntity.html#a1041e50c022e4f3965eb8b26c982f4c1" xlink:title="Calculate and get an implicit property. ">
<polygon fill="#ffffff" stroke="#000000" points="153.7017,-49.5 153.7017,-77.5 267.5239,-77.5 267.5239,-49.5 153.7017,-49.5"/>
<text text-anchor="start" x="161.7017" y="-65.5" font-family="Helvetica,sans-Serif" font-size="10.00" fill="#000000">Ioss::GroupingEntity</text>
<text text-anchor="middle" x="210.6128" y="-55.5" font-family="Helvetica,sans-Serif" font-size="10.00" fill="#000000">::get_implicit_property</text>
</a>
</g>
</g>
<!-- Node16&#45;&gt;Node18 -->
<g id="edge2" class="edge">
<title>Node16&#45;&gt;Node18</title>
<path fill="none" stroke="#191970" d="M114.144,-76.6804C123.7092,-75.3735 133.7091,-74.0072 143.4949,-72.6702"/>
<polygon fill="#191970" stroke="#191970" points="144.154,-76.1128 153.5882,-71.2912 143.2064,-69.1772 144.154,-76.1128"/>
</g>
<!-- Node19 -->
<g id="node4" class="node">
<title>Node19</title>
<g id="a_node4"><a xlink:href="$namespaceanonymous__namespace_02Ioss__Field_8C_03.html#a54a9e06fd87ef280d7cd5a33d986222e" xlink:title="anonymous_namespace\l\{Ioss_Field::C\}::type\l_string">
<polygon fill="#ffffff" stroke="#000000" points="307.4033,-70.5 307.4033,-108.5 432.3633,-108.5 432.3633,-70.5 307.4033,-70.5"/>
<text text-anchor="start" x="315.4033" y="-96.5" font-family="Helvetica,sans-Serif" font-size="10.00" fill="#000000">anonymous_namespace</text>
<text text-anchor="start" x="315.4033" y="-86.5" font-family="Helvetica,sans-Serif" font-size="10.00" fill="#000000">{Ioss_Field::C}::type</text>
<text text-anchor="middle" x="369.8833" y="-76.5" font-family="Helvetica,sans-Serif" font-size="10.00" fill="#000000">_string</text>
</a>
</g>
</g>
<!-- Node18&#45;&gt;Node19 -->
<g id="edge3" class="edge">
<title>Node18&#45;&gt;Node19</title>
<path fill="none" stroke="#191970" d="M267.6632,-72.8132C277.3033,-74.3868 287.4247,-76.0391 297.3954,-77.6668"/>
<polygon fill="#191970" stroke="#191970" points="296.8593,-81.1255 307.2926,-79.2824 297.9871,-74.2169 296.8593,-81.1255"/>
</g>
<!-- Node20 -->
<g id="node5" class="node">
<title>Node20</title>
<g id="a_node5"><a xlink:href="$namespaceanonymous__namespace_02io__info_8C_03.html#ac76aa36231a3291b803cc8e620fce319" xlink:title="anonymous_namespace\l\{io_info::C\}::name">
<polygon fill="#ffffff" stroke="#000000" points="307.4033,-23.5 307.4033,-51.5 432.3633,-51.5 432.3633,-23.5 307.4033,-23.5"/>
<text text-anchor="start" x="315.4033" y="-39.5" font-family="Helvetica,sans-Serif" font-size="10.00" fill="#000000">anonymous_namespace</text>
<text text-anchor="middle" x="369.8833" y="-29.5" font-family="Helvetica,sans-Serif" font-size="10.00" fill="#000000">{io_info::C}::name</text>
</a>
</g>
</g>
<!-- Node18&#45;&gt;Node20 -->
<g id="edge4" class="edge">
<title>Node18&#45;&gt;Node20</title>
<path fill="none" stroke="#191970" d="M267.6632,-54.1868C277.3033,-52.6132 287.4247,-50.9609 297.3954,-49.3332"/>
<polygon fill="#191970" stroke="#191970" points="297.9871,-52.7831 307.2926,-47.7176 296.8593,-45.8745 297.9871,-52.7831"/>
</g>
<!-- Node21 -->
<g id="node6" class="node">
<title>Node21</title>
<g id="a_node6"><a xlink:href="$classIoss_1_1GroupingEntity.html#adf92c4256dc89b729f4492642bc4d745" xlink:title="Get the name of the particular type of entity. ">
<polygon fill="#ffffff" stroke="#000000" points="468.3633,-47.5 468.3633,-75.5 574.4072,-75.5 574.4072,-47.5 468.3633,-47.5"/>
<text text-anchor="start" x="476.3633" y="-63.5" font-family="Helvetica,sans-Serif" font-size="10.00" fill="#000000">Ioss::GroupingEntity</text>
<text text-anchor="middle" x="521.3853" y="-53.5" font-family="Helvetica,sans-Serif" font-size="10.00" fill="#000000">::type_string</text>
</a>
</g>
</g>
<!-- Node20&#45;&gt;Node21 -->
<g id="edge5" class="edge">
<title>Node20&#45;&gt;Node21</title>
<path fill="none" stroke="#191970" d="M432.3796,-47.4003C440.933,-48.7553 449.7192,-50.1471 458.2833,-51.5038"/>
<polygon fill="#191970" stroke="#191970" points="457.7832,-54.9681 468.2077,-53.0759 458.8785,-48.0543 457.7832,-54.9681"/>
</g>
<!-- Node22 -->
<g id="node7" class="node">
<title>Node22</title>
<g id="a_node7"><a xlink:href="$classIoss_1_1GroupingEntity.html#a50d4053f49c8c3205e05d939fdc9fbc5" xlink:title="Get name of entity. ">
<polygon fill="#ffffff" stroke="#000000" points="468.3633,-.5 468.3633,-28.5 574.4072,-28.5 574.4072,-.5 468.3633,-.5"/>
<text text-anchor="start" x="476.3633" y="-16.5" font-family="Helvetica,sans-Serif" font-size="10.00" fill="#000000">Ioss::GroupingEntity</text>
<text text-anchor="middle" x="521.3853" y="-6.5" font-family="Helvetica,sans-Serif" font-size="10.00" fill="#000000">::name</text>
</a>
</g>
</g>
<!-- Node20&#45;&gt;Node22 -->
<g id="edge6" class="edge">
<title>Node20&#45;&gt;Node22</title>
<path fill="none" stroke="#191970" d="M432.3796,-28.0122C440.933,-26.7137 449.7192,-25.3799 458.2833,-24.0797"/>
<polygon fill="#191970" stroke="#191970" points="458.8463,-27.5344 468.2077,-22.5731 457.7956,-20.6137 458.8463,-27.5344"/>
</g>
</g>
</svg>
