<?xml version="1.0" encoding="UTF-8" standalone="no"?>
<!DOCTYPE svg PUBLIC "-//W3C//DTD SVG 1.1//EN"
 "http://www.w3.org/Graphics/SVG/1.1/DTD/svg11.dtd">
<!-- Generated by graphviz version 2.40.1 (20161225.0304)
 -->
<!-- Title: Ioss::TriShell3::face_type Pages: 1 -->
<!--zoomable 115 -->
<svg id="main" version="1.1" xmlns="http://www.w3.org/2000/svg" xmlns:xlink="http://www.w3.org/1999/xlink" xml:space="preserve" onload="init(evt)">
<style type="text/css"><![CDATA[
.edge:hover path { stroke: red; }
.edge:hover polygon { stroke: red; fill: red; }
]]></style>
<script type="text/javascript"><![CDATA[
var edges = document.getElementsByTagName('g');
if (edges && edges.length) {
  for (var i=0;i<edges.length;i++) {
    if (edges[i].id.substr(0,4)=='edge') {
      edges[i].setAttribute('class','edge');
    }
  }
}
]]></script>
        <defs>
                <circle id="rim" cx="0" cy="0" r="7"/>
                <circle id="rim2" cx="0" cy="0" r="3.5"/>
                <g id="zoomPlus">
                        <use xlink:href="#rim" fill="#404040">
                                <set attributeName="fill" to="#808080" begin="zoomplus.mouseover" end="zoomplus.mouseout"/>
                        </use>
                        <path d="M-4,0h8M0,-4v8" fill="none" stroke="white" stroke-width="1.5" pointer-events="none"/>
                </g>
                <g id="zoomMin">
                        <use xlink:href="#rim" fill="#404040">
                                <set attributeName="fill" to="#808080" begin="zoomminus.mouseover" end="zoomminus.mouseout"/>
                        </use>
                        <path d="M-4,0h8" fill="none" stroke="white" stroke-width="1.5" pointer-events="none"/>
                </g>
                <g id="dirArrow">
                        <path fill="none" stroke="white" stroke-width="1.5" d="M0,-3.0v7 M-2.5,-0.5L0,-3.0L2.5,-0.5"/>
                </g>
               <g id="resetDef">
                       <use xlink:href="#rim2" fill="#404040">
                               <set attributeName="fill" to="#808080" begin="reset.mouseover" end="reset.mouseout"/>
                       </use>
               </g>
        </defs>

<script type="text/javascript">
var viewWidth = 755;
var viewHeight = 115;
var sectionId = 'dynsection-4';
</script>
<script xlink:href="svgpan.js"/>
<svg id="graph" class="graph">
<g id="viewport">
<title>Ioss::TriShell3::face_type</title>
<polygon fill="#ffffff" stroke="transparent" points="-4,4 -4,-111 750.6904,-111 750.6904,4 -4,4"/>
<!-- Node30 -->
<g id="node1" class="node">
<title>Node30</title>
<polygon fill="#bfbfbf" stroke="#000000" points="0,-18.5 0,-36.5 127.9092,-36.5 127.9092,-18.5 0,-18.5"/>
<text text-anchor="middle" x="63.9546" y="-24.5" font-family="Helvetica,sans-Serif" font-size="10.00" fill="#000000">Ioss::TriShell3::face_type</text>
</g>
<!-- Node31 -->
<g id="node2" class="node">
<title>Node31</title>
<g id="a_node2"><a xlink:href="classIoss_1_1ElementTopology.html#a30988fc57eeb0274470f1f8622dd0322" target="_top" xlink:title="Ioss::ElementTopology\l::factory">
<polygon fill="#ffffff" stroke="#000000" points="163.9092,-13.5 163.9092,-41.5 280.5195,-41.5 280.5195,-13.5 163.9092,-13.5"/>
<text text-anchor="start" x="171.9092" y="-29.5" font-family="Helvetica,sans-Serif" font-size="10.00" fill="#000000">Ioss::ElementTopology</text>
<text text-anchor="middle" x="222.2144" y="-19.5" font-family="Helvetica,sans-Serif" font-size="10.00" fill="#000000">::factory</text>
</a>
</g>
</g>
<!-- Node30&#45;&gt;Node31 -->
<g id="edge1" class="edge">
<title>Node30&#45;&gt;Node31</title>
<path fill="none" stroke="#191970" d="M128.3249,-27.5C136.6599,-27.5 145.2214,-27.5 153.6216,-27.5"/>
<polygon fill="#191970" stroke="#191970" points="153.762,-31.0001 163.762,-27.5 153.7619,-24.0001 153.762,-31.0001"/>
</g>
<!-- Node32 -->
<g id="node3" class="node">
<title>Node32</title>
<g id="a_node3"><a xlink:href="classIoss_1_1Utils.html#a48106bb99507951b4655783fe6ceb0f8" target="_top" xlink:title="Convert a string to lower case. ">
<polygon fill="#ffffff" stroke="#000000" points="325.145,-37.5 325.145,-55.5 435.061,-55.5 435.061,-37.5 325.145,-37.5"/>
<text text-anchor="middle" x="380.103" y="-43.5" font-family="Helvetica,sans-Serif" font-size="10.00" fill="#000000">Ioss::Utils::lowercase</text>
</a>
</g>
</g>
<!-- Node31&#45;&gt;Node32 -->
<g id="edge2" class="edge">
<title>Node31&#45;&gt;Node32</title>
<path fill="none" stroke="#191970" d="M280.5577,-34.5209C291.8361,-35.8781 303.7178,-37.308 315.1909,-38.6886"/>
<polygon fill="#191970" stroke="#191970" points="314.7961,-42.1663 325.1427,-39.8862 315.6325,-35.2164 314.7961,-42.1663"/>
</g>
<!-- Node37 -->
<g id="node8" class="node">
<title>Node37</title>
<g id="a_node8"><a xlink:href="classIoss_1_1Super.html#a9b09de0d9163a986a914a3ad47b7a116" target="_top" xlink:title="Ioss::Super::make_super">
<polygon fill="#ffffff" stroke="#000000" points="316.5195,-.5 316.5195,-18.5 443.6865,-18.5 443.6865,-.5 316.5195,-.5"/>
<text text-anchor="middle" x="380.103" y="-6.5" font-family="Helvetica,sans-Serif" font-size="10.00" fill="#000000">Ioss::Super::make_super</text>
</a>
</g>
</g>
<!-- Node31&#45;&gt;Node37 -->
<g id="edge7" class="edge">
<title>Node31&#45;&gt;Node37</title>
<path fill="none" stroke="#191970" d="M280.5577,-20.8486C288.9551,-19.8913 297.6869,-18.8958 306.3355,-17.9098"/>
<polygon fill="#191970" stroke="#191970" points="306.8858,-21.3698 316.4249,-16.7596 306.0928,-14.4149 306.8858,-21.3698"/>
</g>
<!-- Node33 -->
<g id="node4" class="node">
<title>Node33</title>
<g id="a_node4"><a xlink:href="namespaceanonymous__namespace_02io__info_8C_03.html#ac76aa36231a3291b803cc8e620fce319" target="_top" xlink:title="anonymous_namespace\l\{io_info::C\}::name">
<polygon fill="#ffffff" stroke="#000000" points="479.6865,-55.5 479.6865,-83.5 604.6465,-83.5 604.6465,-55.5 479.6865,-55.5"/>
<text text-anchor="start" x="487.6865" y="-71.5" font-family="Helvetica,sans-Serif" font-size="10.00" fill="#000000">anonymous_namespace</text>
<text text-anchor="middle" x="542.1665" y="-61.5" font-family="Helvetica,sans-Serif" font-size="10.00" fill="#000000">{io_info::C}::name</text>
</a>
</g>
</g>
<!-- Node32&#45;&gt;Node33 -->
<g id="edge3" class="edge">
<title>Node32&#45;&gt;Node33</title>
<path fill="none" stroke="#191970" d="M435.4228,-54.351C446.4156,-55.9111 458.1128,-57.5711 469.5817,-59.1988"/>
<polygon fill="#191970" stroke="#191970" points="469.1857,-62.6776 479.5783,-60.6175 470.1693,-55.747 469.1857,-62.6776"/>
</g>
<!-- Node36 -->
<g id="node7" class="node">
<title>Node36</title>
<g id="a_node7"><a xlink:href="namespaceanonymous__namespace_02Ioss__Utils_8C_03.html#a0a31af75815b9ec3b66f27bbb6846ac8" target="_top" xlink:title="anonymous_namespace\l\{Ioss_Utils::C\}::to_lower">
<polygon fill="#ffffff" stroke="#000000" points="479.6865,-8.5 479.6865,-36.5 604.6465,-36.5 604.6465,-8.5 479.6865,-8.5"/>
<text text-anchor="start" x="487.6865" y="-24.5" font-family="Helvetica,sans-Serif" font-size="10.00" fill="#000000">anonymous_namespace</text>
<text text-anchor="middle" x="542.1665" y="-14.5" font-family="Helvetica,sans-Serif" font-size="10.00" fill="#000000">{Ioss_Utils::C}::to_lower</text>
</a>
</g>
</g>
<!-- Node32&#45;&gt;Node36 -->
<g id="edge6" class="edge">
<title>Node32&#45;&gt;Node36</title>
<path fill="none" stroke="#191970" d="M435.4228,-38.3077C446.4156,-36.6798 458.1128,-34.9475 469.5817,-33.2491"/>
<polygon fill="#191970" stroke="#191970" points="470.1989,-36.6959 479.5783,-31.7687 469.1734,-29.7715 470.1989,-36.6959"/>
</g>
<!-- Node34 -->
<g id="node5" class="node">
<title>Node34</title>
<g id="a_node5"><a xlink:href="classIoss_1_1GroupingEntity.html#adf92c4256dc89b729f4492642bc4d745" target="_top" xlink:title="Get the name of the particular type of entity. ">
<polygon fill="#ffffff" stroke="#000000" points="640.6465,-78.5 640.6465,-106.5 746.6904,-106.5 746.6904,-78.5 640.6465,-78.5"/>
<text text-anchor="start" x="648.6465" y="-94.5" font-family="Helvetica,sans-Serif" font-size="10.00" fill="#000000">Ioss::GroupingEntity</text>
<text text-anchor="middle" x="693.6685" y="-84.5" font-family="Helvetica,sans-Serif" font-size="10.00" fill="#000000">::type_string</text>
</a>
</g>
</g>
<!-- Node33&#45;&gt;Node34 -->
<g id="edge4" class="edge">
<title>Node33&#45;&gt;Node34</title>
<path fill="none" stroke="#191970" d="M604.6628,-78.9878C613.2162,-80.2863 622.0024,-81.6201 630.5665,-82.9203"/>
<polygon fill="#191970" stroke="#191970" points="630.0788,-86.3863 640.4909,-84.4269 631.1295,-79.4656 630.0788,-86.3863"/>
</g>
<!-- Node35 -->
<g id="node6" class="node">
<title>Node35</title>
<g id="a_node6"><a xlink:href="classIoss_1_1GroupingEntity.html#a50d4053f49c8c3205e05d939fdc9fbc5" target="_top" xlink:title="Get name of entity. ">
<polygon fill="#ffffff" stroke="#000000" points="640.6465,-31.5 640.6465,-59.5 746.6904,-59.5 746.6904,-31.5 640.6465,-31.5"/>
<text text-anchor="start" x="648.6465" y="-47.5" font-family="Helvetica,sans-Serif" font-size="10.00" fill="#000000">Ioss::GroupingEntity</text>
<text text-anchor="middle" x="693.6685" y="-37.5" font-family="Helvetica,sans-Serif" font-size="10.00" fill="#000000">::name</text>
</a>
</g>
</g>
<!-- Node33&#45;&gt;Node35 -->
<g id="edge5" class="edge">
<title>Node33&#45;&gt;Node35</title>
<path fill="none" stroke="#191970" d="M604.6628,-59.5997C613.2162,-58.2447 622.0024,-56.8529 630.5665,-55.4962"/>
<polygon fill="#191970" stroke="#191970" points="631.1617,-58.9457 640.4909,-53.9241 630.0664,-52.0319 631.1617,-58.9457"/>
</g>
</g>
</svg>
        <g id="navigator" transform="translate(0 0)" fill="#404254">
                <rect fill="#f2f5e9" fill-opacity="0.5" stroke="#606060" stroke-width=".5" x="0" y="0" width="60" height="60"/>
                <use id="zoomplus" xlink:href="#zoomPlus" x="17" y="9" onmousedown="handleZoom(evt,'in')"/>
                <use id="zoomminus" xlink:href="#zoomMin" x="42" y="9" onmousedown="handleZoom(evt,'out')"/>
                <use id="reset" xlink:href="#resetDef" x="30" y="36" onmousedown="handleReset()"/>
                <g id="arrowUp" xlink:href="#dirArrow" transform="translate(30 24)" onmousedown="handlePan(0,-1)">
                  <use xlink:href="#rim" fill="#404040">
                        <set attributeName="fill" to="#808080" begin="arrowUp.mouseover" end="arrowUp.mouseout"/>
                  </use>
                  <path fill="none" stroke="white" stroke-width="1.5" d="M0,-3.0v7 M-2.5,-0.5L0,-3.0L2.5,-0.5"/>
                </g>
                <g id="arrowRight" xlink:href="#dirArrow" transform="rotate(90) translate(36 -43)" onmousedown="handlePan(1,0)">
                  <use xlink:href="#rim" fill="#404040">
                        <set attributeName="fill" to="#808080" begin="arrowRight.mouseover" end="arrowRight.mouseout"/>
                  </use>
                  <path fill="none" stroke="white" stroke-width="1.5" d="M0,-3.0v7 M-2.5,-0.5L0,-3.0L2.5,-0.5"/>
                </g>
                <g id="arrowDown" xlink:href="#dirArrow" transform="rotate(180) translate(-30 -48)" onmousedown="handlePan(0,1)">
                  <use xlink:href="#rim" fill="#404040">
                        <set attributeName="fill" to="#808080" begin="arrowDown.mouseover" end="arrowDown.mouseout"/>
                  </use>
                  <path fill="none" stroke="white" stroke-width="1.5" d="M0,-3.0v7 M-2.5,-0.5L0,-3.0L2.5,-0.5"/>
                </g>
                <g id="arrowLeft" xlink:href="#dirArrow" transform="rotate(270) translate(-36 17)" onmousedown="handlePan(-1,0)">
                  <use xlink:href="#rim" fill="#404040">
                        <set attributeName="fill" to="#808080" begin="arrowLeft.mouseover" end="arrowLeft.mouseout"/>
                  </use>
                  <path fill="none" stroke="white" stroke-width="1.5" d="M0,-3.0v7 M-2.5,-0.5L0,-3.0L2.5,-0.5"/>
                </g>
        </g>
        <svg viewBox="0 0 15 15" width="100%" height="30px" preserveAspectRatio="xMaxYMin meet">
         <g id="arrow_out" transform="scale(0.3 0.3)">
          <a xlink:href="classIoss_1_1TriShell3_a6e9c7dd07e5e92a148701b33061d1dd4_cgraph_org.svg" target="_base">
           <rect id="button" ry="5" rx="5" y="6" x="6" height="38" width="38"
                fill="#f2f5e9" fill-opacity="0.5" stroke="#606060" stroke-width="1.0"/>
           <path id="arrow"
             d="M 11.500037,31.436501 C 11.940474,20.09759 22.043105,11.32322 32.158766,21.979434 L 37.068811,17.246167 C 37.068811,17.246167 37.088388,32 37.088388,32 L 22.160133,31.978069 C 22.160133,31.978069 26.997745,27.140456 26.997745,27.140456 C 18.528582,18.264221 13.291696,25.230495 11.500037,31.436501 z"
             style="fill:#404040;"/>
          </a>
         </g>
        </svg>
</svg>
