<?xml version="1.0" encoding="UTF-8" standalone="no"?>
<!DOCTYPE svg PUBLIC "-//W3C//DTD SVG 1.1//EN"
 "http://www.w3.org/Graphics/SVG/1.1/DTD/svg11.dtd">
<!-- Generated by graphviz version 2.40.1 (20161225.0304)
 -->
<!-- Title: Ioss::DatabaseIO::get_block_adjacencies Pages: 1 -->
<svg width="282pt" height="94pt"
 viewBox="0.00 0.00 281.68 94.00" xmlns="http://www.w3.org/2000/svg" xmlns:xlink="http://www.w3.org/1999/xlink">
<g id="graph0" class="graph" transform="scale(1 1) rotate(0) translate(4 90)">
<title>Ioss::DatabaseIO::get_block_adjacencies</title>
<polygon fill="#ffffff" stroke="transparent" points="-4,4 -4,-90 277.6787,-90 277.6787,4 -4,4"/>
<!-- Node503 -->
<g id="node1" class="node">
<title>Node503</title>
<polygon fill="#bfbfbf" stroke="#000000" points="0,-31.5 0,-59.5 112.7188,-59.5 112.7188,-31.5 0,-31.5"/>
<text text-anchor="start" x="8" y="-47.5" font-family="Helvetica,sans-Serif" font-size="10.00" fill="#000000">Ioss::DatabaseIO::get</text>
<text text-anchor="middle" x="56.3594" y="-37.5" font-family="Helvetica,sans-Serif" font-size="10.00" fill="#000000">_block_adjacencies</text>
</g>
<!-- Node504 -->
<g id="node2" class="node">
<title>Node504</title>
<g id="a_node2"><a xlink:href="classIoss_1_1ElementBlock.html#a363f5207733c5655ccb1904716be9d5c" target="_top" xlink:title="Ioss::ElementBlock\l::get_block_adjacencies">
<polygon fill="#ffffff" stroke="#000000" points="149.8296,-57.5 149.8296,-85.5 272.5679,-85.5 272.5679,-57.5 149.8296,-57.5"/>
<text text-anchor="start" x="157.8296" y="-73.5" font-family="Helvetica,sans-Serif" font-size="10.00" fill="#000000">Ioss::ElementBlock</text>
<text text-anchor="middle" x="211.1987" y="-63.5" font-family="Helvetica,sans-Serif" font-size="10.00" fill="#000000">::get_block_adjacencies</text>
</a>
</g>
</g>
<!-- Node503&#45;&gt;Node504 -->
<g id="edge1" class="edge">
<title>Node503&#45;&gt;Node504</title>
<path fill="none" stroke="#191970" d="M123.0395,-56.6967C131.9054,-58.1854 140.9628,-59.7063 149.7345,-61.1792"/>
<polygon fill="#191970" stroke="#191970" points="123.5782,-53.2382 113.1366,-55.0338 122.4189,-60.1415 123.5782,-53.2382"/>
</g>
<!-- Node505 -->
<g id="node3" class="node">
<title>Node505</title>
<g id="a_node3"><a xlink:href="namespaceanonymous__namespace_02UnitTestIofxDatabaseIO_8C_03.html#a789882fd08e4ce31b9b82e2f78e084e1" target="_top" xlink:title="anonymous_namespace\l\{UnitTestIofxDatabaseIO\l::C\}::TEST">
<polygon fill="#ffffff" stroke="#000000" points="148.7188,-.5 148.7188,-38.5 273.6787,-38.5 273.6787,-.5 148.7188,-.5"/>
<text text-anchor="start" x="156.7188" y="-26.5" font-family="Helvetica,sans-Serif" font-size="10.00" fill="#000000">anonymous_namespace</text>
<text text-anchor="start" x="156.7188" y="-16.5" font-family="Helvetica,sans-Serif" font-size="10.00" fill="#000000">{UnitTestIofxDatabaseIO</text>
<text text-anchor="middle" x="211.1987" y="-6.5" font-family="Helvetica,sans-Serif" font-size="10.00" fill="#000000">::C}::TEST</text>
</a>
</g>
</g>
<!-- Node503&#45;&gt;Node505 -->
<g id="edge2" class="edge">
<title>Node503&#45;&gt;Node505</title>
<path fill="none" stroke="#191970" d="M123.0271,-34.3054C131.5432,-32.8754 140.2363,-31.4157 148.6834,-29.9973"/>
<polygon fill="#191970" stroke="#191970" points="122.4189,-30.8585 113.1366,-35.9662 123.5782,-37.7618 122.4189,-30.8585"/>
</g>
</g>
</svg>
