<?xml version="1.0" encoding="UTF-8" standalone="no"?>
<!DOCTYPE svg PUBLIC "-//W3C//DTD SVG 1.1//EN"
 "http://www.w3.org/Graphics/SVG/1.1/DTD/svg11.dtd">
<!-- Generated by graphviz version 2.40.1 (20161225.0304)
 -->
<!-- Title: Ioss::SerializeIO::setGroupFactor Pages: 1 -->
<svg width="291pt" height="64pt"
 viewBox="0.00 0.00 290.54 64.00" xmlns="http://www.w3.org/2000/svg" xmlns:xlink="http://www.w3.org/1999/xlink">
<g id="graph0" class="graph" transform="scale(1 1) rotate(0) translate(4 60)">
<title>Ioss::SerializeIO::setGroupFactor</title>
<polygon fill="#ffffff" stroke="transparent" points="-4,4 -4,-60 286.541,-60 286.541,4 -4,4"/>
<!-- Node468 -->
<g id="node1" class="node">
<title>Node468</title>
<polygon fill="#bfbfbf" stroke="#000000" points="0,-13.5 0,-41.5 94.3594,-41.5 94.3594,-13.5 0,-13.5"/>
<text text-anchor="start" x="8" y="-29.5" font-family="Helvetica,sans-Serif" font-size="10.00" fill="#000000">Ioss::SerializeIO::</text>
<text text-anchor="middle" x="47.1797" y="-19.5" font-family="Helvetica,sans-Serif" font-size="10.00" fill="#000000">setGroupFactor</text>
</g>
<!-- Node469 -->
<g id="node2" class="node">
<title>Node469</title>
<g id="a_node2"><a xlink:href="classIoss_1_1DatabaseIO.html#ac424982f766c762292b823a270982f08" target="_top" xlink:title="Ioss::DatabaseIO::DatabaseIO">
<polygon fill="#ffffff" stroke="#000000" points="130.3594,-37.5 130.3594,-55.5 282.541,-55.5 282.541,-37.5 130.3594,-37.5"/>
<text text-anchor="middle" x="206.4502" y="-43.5" font-family="Helvetica,sans-Serif" font-size="10.00" fill="#000000">Ioss::DatabaseIO::DatabaseIO</text>
</a>
</g>
</g>
<!-- Node468&#45;&gt;Node469 -->
<g id="edge1" class="edge">
<title>Node468&#45;&gt;Node469</title>
<path fill="none" stroke="#191970" d="M104.7147,-34.3636C113.2332,-35.3798 122.118,-36.4397 130.9354,-37.4915"/>
<polygon fill="#191970" stroke="#191970" points="104.8791,-30.8585 94.5349,-33.1492 104.0498,-37.8092 104.8791,-30.8585"/>
</g>
<!-- Node470 -->
<g id="node3" class="node">
<title>Node470</title>
<g id="a_node3"><a xlink:href="io__shell_8C.html#a0ddf1224851353fc92bfbff6f499fa97" target="_top" xlink:title="main">
<polygon fill="#ffffff" stroke="#000000" points="187.6128,-.5 187.6128,-18.5 225.2876,-18.5 225.2876,-.5 187.6128,-.5"/>
<text text-anchor="middle" x="206.4502" y="-6.5" font-family="Helvetica,sans-Serif" font-size="10.00" fill="#000000">main</text>
</a>
</g>
</g>
<!-- Node468&#45;&gt;Node470 -->
<g id="edge2" class="edge">
<title>Node468&#45;&gt;Node470</title>
<path fill="none" stroke="#191970" d="M104.636,-21.0066C133.7821,-17.7126 167.2353,-13.9319 187.601,-11.6302"/>
<polygon fill="#191970" stroke="#191970" points="104.0785,-17.5472 94.5349,-22.1481 104.8647,-24.5029 104.0785,-17.5472"/>
</g>
</g>
</svg>
