<?xml version="1.0" encoding="UTF-8" standalone="no"?>
<!DOCTYPE svg PUBLIC "-//W3C//DTD SVG 1.1//EN"
 "http://www.w3.org/Graphics/SVG/1.1/DTD/svg11.dtd">
<!-- Generated by graphviz version 2.40.1 (20161225.0304)
 -->
<!-- Title: tsl::robin_map::bucket_count Pages: 1 -->
<svg width="294pt" height="37pt"
 viewBox="0.00 0.00 293.91 37.00" xmlns="http://www.w3.org/2000/svg" xmlns:xlink="http://www.w3.org/1999/xlink">
<g id="graph0" class="graph" transform="scale(1 1) rotate(0) translate(4 33)">
<title>tsl::robin_map::bucket_count</title>
<polygon fill="#ffffff" stroke="transparent" points="-4,4 -4,-33 289.9102,-33 289.9102,4 -4,4"/>
<!-- Node54 -->
<g id="node1" class="node">
<title>Node54</title>
<polygon fill="#bfbfbf" stroke="#000000" points="0,-.5 0,-28.5 113.8271,-28.5 113.8271,-.5 0,-.5"/>
<text text-anchor="start" x="8" y="-16.5" font-family="Helvetica,sans-Serif" font-size="10.00" fill="#000000">tsl::robin_map::bucket</text>
<text text-anchor="middle" x="56.9136" y="-6.5" font-family="Helvetica,sans-Serif" font-size="10.00" fill="#000000">_count</text>
</g>
<!-- Node55 -->
<g id="node2" class="node">
<title>Node55</title>
<g id="a_node2"><a xlink:href="classtsl_1_1detail__robin__hash_1_1robin__hash.html#a82d07c98305050461c5e853f3734434b" target="_top" xlink:title="tsl::detail_robin_hash\l::robin_hash::bucket_count">
<polygon fill="#ffffff" stroke="#000000" points="149.8271,-.5 149.8271,-28.5 285.9102,-28.5 285.9102,-.5 149.8271,-.5"/>
<text text-anchor="start" x="157.8271" y="-16.5" font-family="Helvetica,sans-Serif" font-size="10.00" fill="#000000">tsl::detail_robin_hash</text>
<text text-anchor="middle" x="217.8687" y="-6.5" font-family="Helvetica,sans-Serif" font-size="10.00" fill="#000000">::robin_hash::bucket_count</text>
</a>
</g>
</g>
<!-- Node54&#45;&gt;Node55 -->
<g id="edge1" class="edge">
<title>Node54&#45;&gt;Node55</title>
<path fill="none" stroke="#191970" d="M114.1135,-14.5C122.3615,-14.5 130.9663,-14.5 139.5387,-14.5"/>
<polygon fill="#191970" stroke="#191970" points="139.5637,-18.0001 149.5636,-14.5 139.5636,-11.0001 139.5637,-18.0001"/>
</g>
</g>
</svg>
