<?xml version="1.0" encoding="UTF-8" standalone="no"?>
<!DOCTYPE svg PUBLIC "-//W3C//DTD SVG 1.1//EN"
 "http://www.w3.org/Graphics/SVG/1.1/DTD/svg11.dtd">
<!-- Generated by graphviz version 2.40.1 (20161225.0304)
 -->
<!-- Title: Iocgns::DatabaseIO::write_meta_data Pages: 1 -->
<svg width="253pt" height="37pt"
 viewBox="0.00 0.00 252.77 37.00" xmlns="http://www.w3.org/2000/svg" xmlns:xlink="http://www.w3.org/1999/xlink">
<g id="graph0" class="graph" transform="scale(1 1) rotate(0) translate(4 33)">
<title>Iocgns::DatabaseIO::write_meta_data</title>
<polygon fill="#ffffff" stroke="transparent" points="-4,4 -4,-33 248.7676,-33 248.7676,4 -4,4"/>
<!-- Node1377 -->
<g id="node1" class="node">
<title>Node1377</title>
<polygon fill="#bfbfbf" stroke="#000000" points="0,-.5 0,-28.5 104.3838,-28.5 104.3838,-.5 0,-.5"/>
<text text-anchor="start" x="8" y="-16.5" font-family="Helvetica,sans-Serif" font-size="10.00" fill="#000000">Iocgns::DatabaseIO</text>
<text text-anchor="middle" x="52.1919" y="-6.5" font-family="Helvetica,sans-Serif" font-size="10.00" fill="#000000">::write_meta_data</text>
</g>
<!-- Node1378 -->
<g id="node2" class="node">
<title>Node1378</title>
<g id="a_node2"><a xlink:href="classIocgns_1_1DatabaseIO.html#a2c5d72d71cbf54e42bfc2eb770d804b2" target="_top" xlink:title="Iocgns::DatabaseIO\l::end__">
<polygon fill="#ffffff" stroke="#000000" points="140.3838,-.5 140.3838,-28.5 244.7676,-28.5 244.7676,-.5 140.3838,-.5"/>
<text text-anchor="start" x="148.3838" y="-16.5" font-family="Helvetica,sans-Serif" font-size="10.00" fill="#000000">Iocgns::DatabaseIO</text>
<text text-anchor="middle" x="192.5757" y="-6.5" font-family="Helvetica,sans-Serif" font-size="10.00" fill="#000000">::end__</text>
</a>
</g>
</g>
<!-- Node1377&#45;&gt;Node1378 -->
<g id="edge1" class="edge">
<title>Node1377&#45;&gt;Node1378</title>
<path fill="none" stroke="#191970" d="M114.469,-14.5C123.0802,-14.5 131.8525,-14.5 140.2583,-14.5"/>
<polygon fill="#191970" stroke="#191970" points="114.4657,-11.0001 104.4656,-14.5 114.4656,-18.0001 114.4657,-11.0001"/>
</g>
</g>
</svg>
