<?xml version="1.0" encoding="UTF-8" standalone="no"?>
<!DOCTYPE svg PUBLIC "-//W3C//DTD SVG 1.1//EN"
 "http://www.w3.org/Graphics/SVG/1.1/DTD/svg11.dtd">
<!-- Generated by graphviz version 2.40.1 (20161225.0304)
 -->
<!-- Title: Iocgns::StructuredZoneData::resolve_zgc_split_donor Pages: 1 -->
<svg width="996pt" height="293pt"
 viewBox="0.00 0.00 996.09 292.57" xmlns="http://www.w3.org/2000/svg" xmlns:xlink="http://www.w3.org/1999/xlink">
<g id="graph0" class="graph" transform="scale(1 1) rotate(0) translate(4 288.5677)">
<title>Iocgns::StructuredZoneData::resolve_zgc_split_donor</title>
<polygon fill="#ffffff" stroke="transparent" points="-4,4 -4,-288.5677 992.0947,-288.5677 992.0947,4 -4,4"/>
<!-- Node11 -->
<g id="node1" class="node">
<title>Node11</title>
<polygon fill="#bfbfbf" stroke="#000000" points="0,-146.0677 0,-174.0677 141.0684,-174.0677 141.0684,-146.0677 0,-146.0677"/>
<text text-anchor="start" x="8" y="-162.0677" font-family="Helvetica,sans-Serif" font-size="10.00" fill="#000000">Iocgns::StructuredZoneData</text>
<text text-anchor="middle" x="70.5342" y="-152.0677" font-family="Helvetica,sans-Serif" font-size="10.00" fill="#000000">::resolve_zgc_split_donor</text>
</g>
<!-- Node12 -->
<g id="node2" class="node">
<title>Node12</title>
<g id="a_node2"><a xlink:href="$namespaceanonymous__namespace_02Iocgns__StructuredZoneData_8C_03.html#afdcc0d36a895475b690b17ad39f19438" xlink:title="anonymous_namespace\l\{Iocgns_StructuredZoneData\l::C\}::zgc_donor_overlaps">
<polygon fill="#ffffff" stroke="#000000" points="182.6299,-208.0677 182.6299,-246.0677 327.043,-246.0677 327.043,-208.0677 182.6299,-208.0677"/>
<text text-anchor="start" x="190.6299" y="-234.0677" font-family="Helvetica,sans-Serif" font-size="10.00" fill="#000000">anonymous_namespace</text>
<text text-anchor="start" x="190.6299" y="-224.0677" font-family="Helvetica,sans-Serif" font-size="10.00" fill="#000000">{Iocgns_StructuredZoneData</text>
<text text-anchor="middle" x="254.8364" y="-214.0677" font-family="Helvetica,sans-Serif" font-size="10.00" fill="#000000">::C}::zgc_donor_overlaps</text>
</a>
</g>
</g>
<!-- Node11&#45;&gt;Node12 -->
<g id="edge1" class="edge">
<title>Node11&#45;&gt;Node12</title>
<path fill="none" stroke="#191970" d="M109.17,-174.1131C133.3417,-182.9003 165.0311,-194.4204 192.678,-204.471"/>
<polygon fill="#191970" stroke="#191970" points="191.6754,-207.8306 202.2694,-207.9578 194.067,-201.2518 191.6754,-207.8306"/>
</g>
<!-- Node14 -->
<g id="node4" class="node">
<title>Node14</title>
<g id="a_node4"><a xlink:href="$namespaceanonymous__namespace_02Iocgns__StructuredZoneData_8C_03.html#a1059d0fe4be946e448a5177f920b3a46" xlink:title="anonymous_namespace\l\{Iocgns_StructuredZoneData\l::C\}::zgc_subset_donor_ranges">
<polygon fill="#ffffff" stroke="#000000" points="177.0684,-113.0677 177.0684,-151.0677 332.6045,-151.0677 332.6045,-113.0677 177.0684,-113.0677"/>
<text text-anchor="start" x="185.0684" y="-139.0677" font-family="Helvetica,sans-Serif" font-size="10.00" fill="#000000">anonymous_namespace</text>
<text text-anchor="start" x="185.0684" y="-129.0677" font-family="Helvetica,sans-Serif" font-size="10.00" fill="#000000">{Iocgns_StructuredZoneData</text>
<text text-anchor="middle" x="254.8364" y="-119.0677" font-family="Helvetica,sans-Serif" font-size="10.00" fill="#000000">::C}::zgc_subset_donor_ranges</text>
</a>
</g>
</g>
<!-- Node11&#45;&gt;Node14 -->
<g id="edge3" class="edge">
<title>Node11&#45;&gt;Node14</title>
<path fill="none" stroke="#191970" d="M141.2631,-149.3222C149.6538,-148.0475 158.2952,-146.7346 166.8878,-145.4292"/>
<polygon fill="#191970" stroke="#191970" points="167.5736,-148.8653 176.9345,-143.9029 166.5222,-141.9447 167.5736,-148.8653"/>
</g>
<!-- Node13 -->
<g id="node3" class="node">
<title>Node13</title>
<g id="a_node3"><a xlink:href="$namespaceanonymous__namespace_02Iocgns__StructuredZoneData_8C_03.html#a283239da311b91306f5c9eb73cc3c9e2" xlink:title="anonymous_namespace\l\{Iocgns_StructuredZoneData\l::C\}::overlaps">
<polygon fill="#ffffff" stroke="#000000" points="368.6045,-246.0677 368.6045,-284.0677 513.0176,-284.0677 513.0176,-246.0677 368.6045,-246.0677"/>
<text text-anchor="start" x="376.6045" y="-272.0677" font-family="Helvetica,sans-Serif" font-size="10.00" fill="#000000">anonymous_namespace</text>
<text text-anchor="start" x="376.6045" y="-262.0677" font-family="Helvetica,sans-Serif" font-size="10.00" fill="#000000">{Iocgns_StructuredZoneData</text>
<text text-anchor="middle" x="440.811" y="-252.0677" font-family="Helvetica,sans-Serif" font-size="10.00" fill="#000000">::C}::overlaps</text>
</a>
</g>
</g>
<!-- Node12&#45;&gt;Node13 -->
<g id="edge2" class="edge">
<title>Node12&#45;&gt;Node13</title>
<path fill="none" stroke="#191970" d="M327.2716,-241.8683C337.551,-243.9686 348.1831,-246.1411 358.6308,-248.2759"/>
<polygon fill="#191970" stroke="#191970" points="358.0753,-251.7346 368.5736,-250.3075 359.4767,-244.8763 358.0753,-251.7346"/>
</g>
<!-- Node15 -->
<g id="node5" class="node">
<title>Node15</title>
<g id="a_node5"><a xlink:href="$namespaceanonymous__namespace_02Iocgns__StructuredZoneData_8C_03.html#a7a974986e2d63392401e72e1726d8c4c" xlink:title="anonymous_namespace\l\{Iocgns_StructuredZoneData\l::C\}::subset_range">
<polygon fill="#ffffff" stroke="#000000" points="368.6045,-142.0677 368.6045,-180.0677 513.0176,-180.0677 513.0176,-142.0677 368.6045,-142.0677"/>
<text text-anchor="start" x="376.6045" y="-168.0677" font-family="Helvetica,sans-Serif" font-size="10.00" fill="#000000">anonymous_namespace</text>
<text text-anchor="start" x="376.6045" y="-158.0677" font-family="Helvetica,sans-Serif" font-size="10.00" fill="#000000">{Iocgns_StructuredZoneData</text>
<text text-anchor="middle" x="440.811" y="-148.0677" font-family="Helvetica,sans-Serif" font-size="10.00" fill="#000000">::C}::subset_range</text>
</a>
</g>
</g>
<!-- Node14&#45;&gt;Node15 -->
<g id="edge4" class="edge">
<title>Node14&#45;&gt;Node15</title>
<path fill="none" stroke="#191970" d="M332.6288,-144.1982C341.1422,-145.5258 349.8302,-146.8805 358.3969,-148.2164"/>
<polygon fill="#191970" stroke="#191970" points="357.9602,-151.6905 368.38,-149.7731 359.0387,-144.7741 357.9602,-151.6905"/>
</g>
<!-- Node16 -->
<g id="node6" class="node">
<title>Node16</title>
<g id="a_node6"><a xlink:href="$structanonymous__namespace_02Iocgns__StructuredZoneData_8C_03_1_1Range.html#ae125793617d8a11803bb8c366351213f" xlink:title="anonymous_namespace\l\{Iocgns_StructuredZoneData\l::C\}::Range::begin">
<polygon fill="#ffffff" stroke="#000000" points="368.6045,-85.0677 368.6045,-123.0677 513.0176,-123.0677 513.0176,-85.0677 368.6045,-85.0677"/>
<text text-anchor="start" x="376.6045" y="-111.0677" font-family="Helvetica,sans-Serif" font-size="10.00" fill="#000000">anonymous_namespace</text>
<text text-anchor="start" x="376.6045" y="-101.0677" font-family="Helvetica,sans-Serif" font-size="10.00" fill="#000000">{Iocgns_StructuredZoneData</text>
<text text-anchor="middle" x="440.811" y="-91.0677" font-family="Helvetica,sans-Serif" font-size="10.00" fill="#000000">::C}::Range::begin</text>
</a>
</g>
</g>
<!-- Node14&#45;&gt;Node16 -->
<g id="edge5" class="edge">
<title>Node14&#45;&gt;Node16</title>
<path fill="none" stroke="#191970" d="M332.6288,-120.3554C341.1422,-119.0736 349.8302,-117.7656 358.3969,-116.4758"/>
<polygon fill="#191970" stroke="#191970" points="359.0126,-119.9226 368.38,-114.9727 357.9704,-113.0006 359.0126,-119.9226"/>
</g>
<!-- Node17 -->
<g id="node7" class="node">
<title>Node17</title>
<g id="a_node7"><a xlink:href="$structanonymous__namespace_02Iocgns__StructuredZoneData_8C_03_1_1Range.html#a12d597d67c2911cfa66b51d7733505c2" xlink:title="anonymous_namespace\l\{Iocgns_StructuredZoneData\l::C\}::Range::end">
<polygon fill="#ffffff" stroke="#000000" points="368.6045,-28.0677 368.6045,-66.0677 513.0176,-66.0677 513.0176,-28.0677 368.6045,-28.0677"/>
<text text-anchor="start" x="376.6045" y="-54.0677" font-family="Helvetica,sans-Serif" font-size="10.00" fill="#000000">anonymous_namespace</text>
<text text-anchor="start" x="376.6045" y="-44.0677" font-family="Helvetica,sans-Serif" font-size="10.00" fill="#000000">{Iocgns_StructuredZoneData</text>
<text text-anchor="middle" x="440.811" y="-34.0677" font-family="Helvetica,sans-Serif" font-size="10.00" fill="#000000">::C}::Range::end</text>
</a>
</g>
</g>
<!-- Node14&#45;&gt;Node17 -->
<g id="edge6" class="edge">
<title>Node14&#45;&gt;Node17</title>
<path fill="none" stroke="#191970" d="M290.7968,-112.9569C312.9758,-101.4451 342.1465,-86.7941 368.6045,-75.0677 372.4074,-73.3822 376.3457,-71.6952 380.3311,-70.0316"/>
<polygon fill="#191970" stroke="#191970" points="381.7475,-73.2337 389.6744,-66.2041 379.0939,-66.7561 381.7475,-73.2337"/>
</g>
<!-- Node18 -->
<g id="node8" class="node">
<title>Node18</title>
<g id="a_node8"><a xlink:href="$structIoss_1_1ZoneConnectivity.html#add4d3bbf265f6801644e9ee6a5fb2eb4" xlink:title="Ioss::ZoneConnectivity\l::inverse_transform">
<polygon fill="#ffffff" stroke="#000000" points="552.9189,-95.0677 552.9189,-123.0677 670.0762,-123.0677 670.0762,-95.0677 552.9189,-95.0677"/>
<text text-anchor="start" x="560.9189" y="-111.0677" font-family="Helvetica,sans-Serif" font-size="10.00" fill="#000000">Ioss::ZoneConnectivity</text>
<text text-anchor="middle" x="611.4976" y="-101.0677" font-family="Helvetica,sans-Serif" font-size="10.00" fill="#000000">::inverse_transform</text>
</a>
</g>
</g>
<!-- Node14&#45;&gt;Node18 -->
<g id="edge7" class="edge">
<title>Node14&#45;&gt;Node18</title>
<path fill="none" stroke="#191970" d="M266.6718,-112.99C284.7563,-85.8775 322.1153,-37.3518 368.6045,-18.0677 427.8899,6.5245 453.2467,5.3198 513.0176,-18.0677 548.0403,-31.7715 578.0792,-64.4201 595.4766,-86.6449"/>
<polygon fill="#191970" stroke="#191970" points="592.8873,-89.0227 601.7187,-94.8757 598.4648,-84.7929 592.8873,-89.0227"/>
</g>
<!-- Node22 -->
<g id="node12" class="node">
<title>Node22</title>
<g id="a_node12"><a xlink:href="$structIoss_1_1ZoneConnectivity.html#ab35a8f3c0aa1cb7d0dac884ac844b190" xlink:title="Ioss::ZoneConnectivity\l::is_valid">
<polygon fill="#ffffff" stroke="#000000" points="382.2324,-199.0677 382.2324,-227.0677 499.3896,-227.0677 499.3896,-199.0677 382.2324,-199.0677"/>
<text text-anchor="start" x="390.2324" y="-215.0677" font-family="Helvetica,sans-Serif" font-size="10.00" fill="#000000">Ioss::ZoneConnectivity</text>
<text text-anchor="middle" x="440.811" y="-205.0677" font-family="Helvetica,sans-Serif" font-size="10.00" fill="#000000">::is_valid</text>
</a>
</g>
</g>
<!-- Node14&#45;&gt;Node22 -->
<g id="edge11" class="edge">
<title>Node14&#45;&gt;Node22</title>
<path fill="none" stroke="#191970" d="M289.5893,-151.1119C311.8117,-162.8784 341.4588,-177.8242 368.6045,-189.0677 373.9994,-191.3022 379.684,-193.4805 385.3974,-195.5556"/>
<polygon fill="#191970" stroke="#191970" points="384.3991,-198.9148 394.9939,-198.9418 386.7284,-192.3137 384.3991,-198.9148"/>
</g>
<!-- Node19 -->
<g id="node9" class="node">
<title>Node19</title>
<g id="a_node9"><a xlink:href="$structIoss_1_1ZoneConnectivity.html#aaac247ab4518817bfd64deb1e5e4873e" xlink:title="Ioss::ZoneConnectivity\l::transform_matrix">
<polygon fill="#ffffff" stroke="#000000" points="709.9775,-192.0677 709.9775,-220.0677 827.1348,-220.0677 827.1348,-192.0677 709.9775,-192.0677"/>
<text text-anchor="start" x="717.9775" y="-208.0677" font-family="Helvetica,sans-Serif" font-size="10.00" fill="#000000">Ioss::ZoneConnectivity</text>
<text text-anchor="middle" x="768.5562" y="-198.0677" font-family="Helvetica,sans-Serif" font-size="10.00" fill="#000000">::transform_matrix</text>
</a>
</g>
</g>
<!-- Node18&#45;&gt;Node19 -->
<g id="edge8" class="edge">
<title>Node18&#45;&gt;Node19</title>
<path fill="none" stroke="#191970" d="M654.9676,-123.069C661.49,-125.7375 668.0201,-128.7484 673.9775,-132.0677 700.5109,-146.8511 727.4752,-168.7743 745.7867,-184.9231"/>
<polygon fill="#191970" stroke="#191970" points="743.7761,-187.8212 753.5585,-191.8901 748.4486,-182.6089 743.7761,-187.8212"/>
</g>
<!-- Node20 -->
<g id="node10" class="node">
<title>Node20</title>
<g id="a_node10"><a xlink:href="$namespaceanonymous__namespace_02Ioss__ZoneConnectivity_8C_03.html#ac9f1a485619214c244f6f4d4b0f22db9" xlink:title="anonymous_namespace\l\{Ioss_ZoneConnectivity\l::C\}::sign">
<polygon fill="#ffffff" stroke="#000000" points="863.1348,-237.0677 863.1348,-275.0677 988.0947,-275.0677 988.0947,-237.0677 863.1348,-237.0677"/>
<text text-anchor="start" x="871.1348" y="-263.0677" font-family="Helvetica,sans-Serif" font-size="10.00" fill="#000000">anonymous_namespace</text>
<text text-anchor="start" x="871.1348" y="-253.0677" font-family="Helvetica,sans-Serif" font-size="10.00" fill="#000000">{Ioss_ZoneConnectivity</text>
<text text-anchor="middle" x="925.6147" y="-243.0677" font-family="Helvetica,sans-Serif" font-size="10.00" fill="#000000">::C}::sign</text>
</a>
</g>
</g>
<!-- Node19&#45;&gt;Node20 -->
<g id="edge9" class="edge">
<title>Node19&#45;&gt;Node20</title>
<path fill="none" stroke="#191970" d="M812.7237,-220.1285C826.195,-224.4172 841.3469,-229.2408 856.0717,-233.9285"/>
<polygon fill="#191970" stroke="#191970" points="855.0738,-237.2838 865.6643,-236.9823 857.1973,-230.6136 855.0738,-237.2838"/>
</g>
<!-- Node21 -->
<g id="node11" class="node">
<title>Node21</title>
<g id="a_node11"><a xlink:href="$namespaceanonymous__namespace_02Ioss__ZoneConnectivity_8C_03.html#a5b8cd6b3fee1a6469af9b8e91c886ea6" xlink:title="anonymous_namespace\l\{Ioss_ZoneConnectivity\l::C\}::del">
<polygon fill="#ffffff" stroke="#000000" points="863.1348,-180.0677 863.1348,-218.0677 988.0947,-218.0677 988.0947,-180.0677 863.1348,-180.0677"/>
<text text-anchor="start" x="871.1348" y="-206.0677" font-family="Helvetica,sans-Serif" font-size="10.00" fill="#000000">anonymous_namespace</text>
<text text-anchor="start" x="871.1348" y="-196.0677" font-family="Helvetica,sans-Serif" font-size="10.00" fill="#000000">{Ioss_ZoneConnectivity</text>
<text text-anchor="middle" x="925.6147" y="-186.0677" font-family="Helvetica,sans-Serif" font-size="10.00" fill="#000000">::C}::del</text>
</a>
</g>
</g>
<!-- Node19&#45;&gt;Node21 -->
<g id="edge10" class="edge">
<title>Node19&#45;&gt;Node21</title>
<path fill="none" stroke="#191970" d="M827.4858,-203.4412C835.7161,-203.0744 844.2533,-202.6939 852.7033,-202.3173"/>
<polygon fill="#191970" stroke="#191970" points="853.1065,-205.8029 862.9407,-201.861 852.7947,-198.8098 853.1065,-205.8029"/>
</g>
<!-- Node22&#45;&gt;Node18 -->
<g id="edge16" class="edge">
<title>Node22&#45;&gt;Node18</title>
<path fill="none" stroke="#191970" d="M496.4656,-199.0234C502.3656,-196.263 508.0246,-192.9763 513.0176,-189.0677 536.611,-170.598 525.7211,-150.9105 549.0176,-132.0677 550.6016,-130.7865 552.2636,-129.5727 553.9854,-128.4231"/>
<polygon fill="#191970" stroke="#191970" points="556.1104,-131.237 563.0083,-123.1952 552.601,-125.1802 556.1104,-131.237"/>
</g>
<!-- Node22&#45;&gt;Node20 -->
<g id="edge12" class="edge">
<title>Node22&#45;&gt;Node20</title>
<path fill="none" stroke="#191970" d="M498.6436,-227.1051C514.8539,-230.5627 532.5477,-233.8935 549.0176,-236.0677 653.9434,-249.9186 776.5143,-254.2518 852.612,-255.5644"/>
<polygon fill="#191970" stroke="#191970" points="852.9802,-259.0707 863.0347,-255.7303 853.0916,-252.0715 852.9802,-259.0707"/>
</g>
<!-- Node23 -->
<g id="node13" class="node">
<title>Node23</title>
<g id="a_node13"><a xlink:href="$namespaceanonymous__namespace_02Ioss__ZoneConnectivity_8C_03.html#a14cceeba0c349c1043fca16ef139525b" xlink:title="anonymous_namespace\l\{Ioss_ZoneConnectivity\l::C\}::valid_range">
<polygon fill="#ffffff" stroke="#000000" points="549.0176,-142.0677 549.0176,-180.0677 673.9775,-180.0677 673.9775,-142.0677 549.0176,-142.0677"/>
<text text-anchor="start" x="557.0176" y="-168.0677" font-family="Helvetica,sans-Serif" font-size="10.00" fill="#000000">anonymous_namespace</text>
<text text-anchor="start" x="557.0176" y="-158.0677" font-family="Helvetica,sans-Serif" font-size="10.00" fill="#000000">{Ioss_ZoneConnectivity</text>
<text text-anchor="middle" x="611.4976" y="-148.0677" font-family="Helvetica,sans-Serif" font-size="10.00" fill="#000000">::C}::valid_range</text>
</a>
</g>
</g>
<!-- Node22&#45;&gt;Node23 -->
<g id="edge13" class="edge">
<title>Node22&#45;&gt;Node23</title>
<path fill="none" stroke="#191970" d="M487.0013,-198.9957C503.0788,-194.0977 521.5231,-188.4786 539.2023,-183.0926"/>
<polygon fill="#191970" stroke="#191970" points="540.3796,-186.3928 548.9255,-180.1304 538.3395,-179.6967 540.3796,-186.3928"/>
</g>
<!-- Node24 -->
<g id="node14" class="node">
<title>Node24</title>
<g id="a_node14"><a xlink:href="$structIoss_1_1ZoneConnectivity.html#a9df1e293d1477cffb01844dfe59d0565" xlink:title="Ioss::ZoneConnectivity\l::transform">
<polygon fill="#ffffff" stroke="#000000" points="552.9189,-199.0677 552.9189,-227.0677 670.0762,-227.0677 670.0762,-199.0677 552.9189,-199.0677"/>
<text text-anchor="start" x="560.9189" y="-215.0677" font-family="Helvetica,sans-Serif" font-size="10.00" fill="#000000">Ioss::ZoneConnectivity</text>
<text text-anchor="middle" x="611.4976" y="-205.0677" font-family="Helvetica,sans-Serif" font-size="10.00" fill="#000000">::transform</text>
</a>
</g>
</g>
<!-- Node22&#45;&gt;Node24 -->
<g id="edge14" class="edge">
<title>Node22&#45;&gt;Node24</title>
<path fill="none" stroke="#191970" d="M499.5517,-213.0677C513.3641,-213.0677 528.2096,-213.0677 542.429,-213.0677"/>
<polygon fill="#191970" stroke="#191970" points="542.6487,-216.5678 552.6487,-213.0677 542.6486,-209.5678 542.6487,-216.5678"/>
</g>
<!-- Node24&#45;&gt;Node19 -->
<g id="edge15" class="edge">
<title>Node24&#45;&gt;Node19</title>
<path fill="none" stroke="#191970" d="M670.4272,-210.4412C679.9884,-210.0151 689.9636,-209.5705 699.7352,-209.135"/>
<polygon fill="#191970" stroke="#191970" points="699.9844,-212.6274 709.8186,-208.6856 699.6726,-205.6344 699.9844,-212.6274"/>
</g>
</g>
</svg>
