<?xml version="1.0" encoding="UTF-8" standalone="no"?>
<!DOCTYPE svg PUBLIC "-//W3C//DTD SVG 1.1//EN"
 "http://www.w3.org/Graphics/SVG/1.1/DTD/svg11.dtd">
<!-- Generated by graphviz version 2.40.1 (20161225.0304)
 -->
<!-- Title: Ioex::DatabaseIO::put_info Pages: 1 -->
<svg width="619pt" height="430pt"
 viewBox="0.00 0.00 618.61 430.00" xmlns="http://www.w3.org/2000/svg" xmlns:xlink="http://www.w3.org/1999/xlink">
<g id="graph0" class="graph" transform="scale(1 1) rotate(0) translate(4 426)">
<title>Ioex::DatabaseIO::put_info</title>
<polygon fill="#ffffff" stroke="transparent" points="-4,4 -4,-426 614.6133,-426 614.6133,4 -4,4"/>
<!-- Node1405 -->
<g id="node1" class="node">
<title>Node1405</title>
<polygon fill="#bfbfbf" stroke="#000000" points="0,-196.5 0,-214.5 134.9648,-214.5 134.9648,-196.5 0,-196.5"/>
<text text-anchor="middle" x="67.4824" y="-202.5" font-family="Helvetica,sans-Serif" font-size="10.00" fill="#000000">Ioex::DatabaseIO::put_info</text>
</g>
<!-- Node1406 -->
<g id="node2" class="node">
<title>Node1406</title>
<g id="a_node2"><a xlink:href="$classIoss_1_1DatabaseIO.html#ac7cb8bf7c8175fa0546a2bd965570e7c" xlink:title="Ioss::DatabaseIO::get\l_region">
<polygon fill="#ffffff" stroke="#000000" points="171.2456,-393.5 171.2456,-421.5 283.9644,-421.5 283.9644,-393.5 171.2456,-393.5"/>
<text text-anchor="start" x="179.2456" y="-409.5" font-family="Helvetica,sans-Serif" font-size="10.00" fill="#000000">Ioss::DatabaseIO::get</text>
<text text-anchor="middle" x="227.605" y="-399.5" font-family="Helvetica,sans-Serif" font-size="10.00" fill="#000000">_region</text>
</a>
</g>
</g>
<!-- Node1405&#45;&gt;Node1406 -->
<g id="edge1" class="edge">
<title>Node1405&#45;&gt;Node1406</title>
<path fill="none" stroke="#191970" d="M70.3789,-214.7055C79.9516,-243.7202 113.291,-334.3048 170.9648,-384.5 172.3133,-385.6736 173.7295,-386.7923 175.1987,-387.8584"/>
<polygon fill="#191970" stroke="#191970" points="173.7527,-391.0813 184.0902,-393.4021 177.4562,-385.1412 173.7527,-391.0813"/>
</g>
<!-- Node1407 -->
<g id="node3" class="node">
<title>Node1407</title>
<g id="a_node3"><a xlink:href="$classIoss_1_1GroupingEntity.html#a3e8284b8cafbbe1646625124f68a2652" xlink:title="Get the Property from the property manager associated with the entity. ">
<polygon fill="#ffffff" stroke="#000000" points="174.583,-346.5 174.583,-374.5 280.627,-374.5 280.627,-346.5 174.583,-346.5"/>
<text text-anchor="start" x="182.583" y="-362.5" font-family="Helvetica,sans-Serif" font-size="10.00" fill="#000000">Ioss::GroupingEntity</text>
<text text-anchor="middle" x="227.605" y="-352.5" font-family="Helvetica,sans-Serif" font-size="10.00" fill="#000000">::get_property</text>
</a>
</g>
</g>
<!-- Node1405&#45;&gt;Node1407 -->
<g id="edge2" class="edge">
<title>Node1405&#45;&gt;Node1407</title>
<path fill="none" stroke="#191970" d="M72.3007,-214.5076C85.2448,-237.9244 123.0597,-301.3971 170.9648,-337.5 172.7898,-338.8753 174.7084,-340.182 176.692,-341.4219"/>
<polygon fill="#191970" stroke="#191970" points="175.2753,-344.6386 185.7167,-346.4355 178.6749,-338.5195 175.2753,-344.6386"/>
</g>
<!-- Node1408 -->
<g id="node4" class="node">
<title>Node1408</title>
<g id="a_node4"><a xlink:href="$classIoss_1_1Property.html#a3c4f1409008f9dcdd35170b702cd29e3" xlink:title="Get the property value if it is of type STRING. ">
<polygon fill="#ffffff" stroke="#000000" points="179.0313,-299.5 179.0313,-327.5 276.1787,-327.5 276.1787,-299.5 179.0313,-299.5"/>
<text text-anchor="start" x="187.0313" y="-315.5" font-family="Helvetica,sans-Serif" font-size="10.00" fill="#000000">Ioss::Property::get</text>
<text text-anchor="middle" x="227.605" y="-305.5" font-family="Helvetica,sans-Serif" font-size="10.00" fill="#000000">_string</text>
</a>
</g>
</g>
<!-- Node1405&#45;&gt;Node1408 -->
<g id="edge3" class="edge">
<title>Node1405&#45;&gt;Node1408</title>
<path fill="none" stroke="#191970" d="M76.4585,-214.5018C93.5746,-231.2757 132.602,-267.6764 170.9648,-290.5 173.6156,-292.0771 176.3945,-293.5925 179.2383,-295.0399"/>
<polygon fill="#191970" stroke="#191970" points="177.9299,-298.2932 188.4642,-299.4237 180.9341,-291.9706 177.9299,-298.2932"/>
</g>
<!-- Node1412 -->
<g id="node8" class="node">
<title>Node1412</title>
<g id="a_node8"><a xlink:href="$classIoss_1_1Utils.html#ad7ddb962200b3859fde2ec4e394b3b4f" xlink:title="Convert an input file to a vector of strings containing one string for each line of the file...">
<polygon fill="#ffffff" stroke="#000000" points="175.1421,-262.5 175.1421,-280.5 280.0679,-280.5 280.0679,-262.5 175.1421,-262.5"/>
<text text-anchor="middle" x="227.605" y="-268.5" font-family="Helvetica,sans-Serif" font-size="10.00" fill="#000000">Ioss::Utils::input_file</text>
</a>
</g>
</g>
<!-- Node1405&#45;&gt;Node1412 -->
<g id="edge7" class="edge">
<title>Node1405&#45;&gt;Node1412</title>
<path fill="none" stroke="#191970" d="M85.1318,-214.5229C105.496,-224.7361 140.1418,-241.5092 170.9648,-253.5 176.1334,-255.5107 181.6285,-257.4705 187.0851,-259.3123"/>
<polygon fill="#191970" stroke="#191970" points="186.1941,-262.7032 196.7867,-262.4853 188.3702,-256.0501 186.1941,-262.7032"/>
</g>
<!-- Node1413 -->
<g id="node9" class="node">
<title>Node1413</title>
<g id="a_node9"><a xlink:href="$classIoss_1_1Utils.html#af25be5c9b86bb94f9c0dcb39bf255250" xlink:title="Ioss::Utils::get_name\l_array">
<polygon fill="#ffffff" stroke="#000000" points="172.918,-215.5 172.918,-243.5 282.292,-243.5 282.292,-215.5 172.918,-215.5"/>
<text text-anchor="start" x="180.918" y="-231.5" font-family="Helvetica,sans-Serif" font-size="10.00" fill="#000000">Ioss::Utils::get_name</text>
<text text-anchor="middle" x="227.605" y="-221.5" font-family="Helvetica,sans-Serif" font-size="10.00" fill="#000000">_array</text>
</a>
</g>
</g>
<!-- Node1405&#45;&gt;Node1413 -->
<g id="edge8" class="edge">
<title>Node1405&#45;&gt;Node1413</title>
<path fill="none" stroke="#191970" d="M127.5617,-214.505C139.0239,-216.223 151.0698,-218.0285 162.6754,-219.768"/>
<polygon fill="#191970" stroke="#191970" points="162.3269,-223.2548 172.7353,-221.2758 163.3646,-216.3321 162.3269,-223.2548"/>
</g>
<!-- Node1414 -->
<g id="node10" class="node">
<title>Node1414</title>
<g id="a_node10"><a xlink:href="$classIoss_1_1Utils.html#a9f148e3768f9322640e47ac8c0bc50c0" xlink:title="Get a string containing &#39;uname&#39; output. ">
<polygon fill="#ffffff" stroke="#000000" points="177.0952,-168.5 177.0952,-196.5 278.1147,-196.5 278.1147,-168.5 177.0952,-168.5"/>
<text text-anchor="start" x="185.0952" y="-184.5" font-family="Helvetica,sans-Serif" font-size="10.00" fill="#000000">Ioss::Utils::platform</text>
<text text-anchor="middle" x="227.605" y="-174.5" font-family="Helvetica,sans-Serif" font-size="10.00" fill="#000000">_information</text>
</a>
</g>
</g>
<!-- Node1405&#45;&gt;Node1414 -->
<g id="edge9" class="edge">
<title>Node1405&#45;&gt;Node1414</title>
<path fill="none" stroke="#191970" d="M130.3075,-196.4758C142.4231,-194.7355 155.0916,-192.9158 167.1305,-191.1866"/>
<polygon fill="#191970" stroke="#191970" points="167.6684,-194.6453 177.0691,-189.759 166.6731,-187.7164 167.6684,-194.6453"/>
</g>
<!-- Node1415 -->
<g id="node11" class="node">
<title>Node1415</title>
<g id="a_node11"><a xlink:href="$namespaceIoex.html#acbd085af44e6af39844775c4a8c679cc" xlink:title="Ioex::Version">
<polygon fill="#ffffff" stroke="#000000" points="190.6963,-131.5 190.6963,-149.5 264.5137,-149.5 264.5137,-131.5 190.6963,-131.5"/>
<text text-anchor="middle" x="227.605" y="-137.5" font-family="Helvetica,sans-Serif" font-size="10.00" fill="#000000">Ioex::Version</text>
</a>
</g>
</g>
<!-- Node1405&#45;&gt;Node1415 -->
<g id="edge10" class="edge">
<title>Node1405&#45;&gt;Node1415</title>
<path fill="none" stroke="#191970" d="M86.3279,-196.4762C106.897,-186.7799 140.9146,-171.189 170.9648,-159.5 176.8643,-157.2052 183.1701,-154.9247 189.3531,-152.7821"/>
<polygon fill="#191970" stroke="#191970" points="190.5466,-156.0732 198.8923,-149.5464 188.298,-149.4442 190.5466,-156.0732"/>
</g>
<!-- Node1416 -->
<g id="node12" class="node">
<title>Node1416</title>
<g id="a_node12"><a xlink:href="$classIoex_1_1DatabaseIO.html#af0ddcfa1cd90af9397e76e2e80a7ef27" xlink:title="Ioex::DatabaseIO::get\l_file_pointer">
<polygon fill="#ffffff" stroke="#000000" points="170.9648,-84.5 170.9648,-112.5 284.2451,-112.5 284.2451,-84.5 170.9648,-84.5"/>
<text text-anchor="start" x="178.9648" y="-100.5" font-family="Helvetica,sans-Serif" font-size="10.00" fill="#000000">Ioex::DatabaseIO::get</text>
<text text-anchor="middle" x="227.605" y="-90.5" font-family="Helvetica,sans-Serif" font-size="10.00" fill="#000000">_file_pointer</text>
</a>
</g>
</g>
<!-- Node1405&#45;&gt;Node1416 -->
<g id="edge11" class="edge">
<title>Node1405&#45;&gt;Node1416</title>
<path fill="none" stroke="#191970" d="M77.0794,-196.2683C94.5915,-179.7892 133.3972,-144.9374 170.9648,-122.5 174.1797,-120.5799 177.5764,-118.7356 181.0448,-116.9823"/>
<polygon fill="#191970" stroke="#191970" points="182.7957,-120.0252 190.318,-112.5643 179.7848,-113.7057 182.7957,-120.0252"/>
</g>
<!-- Node1420 -->
<g id="node16" class="node">
<title>Node1420</title>
<g id="a_node16"><a xlink:href="$namespaceIoex.html#a7697aeff911a70745bd170f5259fd686" xlink:title="Ioex::exodus_error">
<polygon fill="#ffffff" stroke="#000000" points="177.9155,-47.5 177.9155,-65.5 277.2944,-65.5 277.2944,-47.5 177.9155,-47.5"/>
<text text-anchor="middle" x="227.605" y="-53.5" font-family="Helvetica,sans-Serif" font-size="10.00" fill="#000000">Ioex::exodus_error</text>
</a>
</g>
</g>
<!-- Node1405&#45;&gt;Node1420 -->
<g id="edge15" class="edge">
<title>Node1405&#45;&gt;Node1420</title>
<path fill="none" stroke="#191970" d="M72.2131,-196.4617C84.9457,-172.9961 122.294,-109.5947 170.9648,-75.5 174.1703,-73.2545 177.6615,-71.2582 181.2844,-69.4863"/>
<polygon fill="#191970" stroke="#191970" points="182.6726,-72.6993 190.4738,-65.5304 179.9048,-66.2697 182.6726,-72.6993"/>
</g>
<!-- Node1421 -->
<g id="node17" class="node">
<title>Node1421</title>
<g id="a_node17"><a xlink:href="$classIoss_1_1Utils.html#a553a066e32b8f268758e92a0fa27db69" xlink:title="Ioss::Utils::delete\l_name_array">
<polygon fill="#ffffff" stroke="#000000" points="181.5337,-.5 181.5337,-28.5 273.6763,-28.5 273.6763,-.5 181.5337,-.5"/>
<text text-anchor="start" x="189.5337" y="-16.5" font-family="Helvetica,sans-Serif" font-size="10.00" fill="#000000">Ioss::Utils::delete</text>
<text text-anchor="middle" x="227.605" y="-6.5" font-family="Helvetica,sans-Serif" font-size="10.00" fill="#000000">_name_array</text>
</a>
</g>
</g>
<!-- Node1405&#45;&gt;Node1421 -->
<g id="edge16" class="edge">
<title>Node1405&#45;&gt;Node1421</title>
<path fill="none" stroke="#191970" d="M70.6892,-196.4745C80.9399,-168.8375 115.5244,-84.408 170.9648,-37.5 172.484,-36.2146 174.0845,-34.9942 175.7462,-33.836"/>
<polygon fill="#191970" stroke="#191970" points="177.7311,-36.7258 184.4723,-28.5522 174.1054,-30.738 177.7311,-36.7258"/>
</g>
<!-- Node1409 -->
<g id="node5" class="node">
<title>Node1409</title>
<g id="a_node5"><a xlink:href="$namespaceanonymous__namespace_02Ioss__Property_8C_03.html#a7e9f404cf974920b115b502313608c02" xlink:title="anonymous_namespace\l\{Ioss_Property::C\}::\lerror_message">
<polygon fill="#ffffff" stroke="#000000" points="322.4692,-294.5 322.4692,-332.5 447.4292,-332.5 447.4292,-294.5 322.4692,-294.5"/>
<text text-anchor="start" x="330.4692" y="-320.5" font-family="Helvetica,sans-Serif" font-size="10.00" fill="#000000">anonymous_namespace</text>
<text text-anchor="start" x="330.4692" y="-310.5" font-family="Helvetica,sans-Serif" font-size="10.00" fill="#000000">{Ioss_Property::C}::</text>
<text text-anchor="middle" x="384.9492" y="-300.5" font-family="Helvetica,sans-Serif" font-size="10.00" fill="#000000">error_message</text>
</a>
</g>
</g>
<!-- Node1408&#45;&gt;Node1409 -->
<g id="edge4" class="edge">
<title>Node1408&#45;&gt;Node1409</title>
<path fill="none" stroke="#191970" d="M276.5272,-313.5C287.8742,-313.5 300.1896,-313.5 312.3126,-313.5"/>
<polygon fill="#191970" stroke="#191970" points="312.4254,-317.0001 322.4253,-313.5 312.4253,-310.0001 312.4254,-317.0001"/>
</g>
<!-- Node1410 -->
<g id="node6" class="node">
<title>Node1410</title>
<g id="a_node6"><a xlink:href="$namespaceanonymous__namespace_02Ioss__Property_8C_03.html#a33c896c06915d8a83ca1d8886b26d8ed" xlink:title="anonymous_namespace\l\{Ioss_Property::C\}::\ltype_string">
<polygon fill="#ffffff" stroke="#000000" points="485.6533,-317.5 485.6533,-355.5 610.6133,-355.5 610.6133,-317.5 485.6533,-317.5"/>
<text text-anchor="start" x="493.6533" y="-343.5" font-family="Helvetica,sans-Serif" font-size="10.00" fill="#000000">anonymous_namespace</text>
<text text-anchor="start" x="493.6533" y="-333.5" font-family="Helvetica,sans-Serif" font-size="10.00" fill="#000000">{Ioss_Property::C}::</text>
<text text-anchor="middle" x="548.1333" y="-323.5" font-family="Helvetica,sans-Serif" font-size="10.00" fill="#000000">type_string</text>
</a>
</g>
</g>
<!-- Node1409&#45;&gt;Node1410 -->
<g id="edge5" class="edge">
<title>Node1409&#45;&gt;Node1410</title>
<path fill="none" stroke="#191970" d="M447.5737,-322.3266C456.6826,-323.6105 466.1253,-324.9414 475.4128,-326.2504"/>
<polygon fill="#191970" stroke="#191970" points="475.0161,-329.729 485.4067,-327.659 475.9931,-322.7975 475.0161,-329.729"/>
</g>
<!-- Node1411 -->
<g id="node7" class="node">
<title>Node1411</title>
<g id="a_node7"><a xlink:href="$classIoss_1_1Property.html#a90c992cd11af736282e63e1c34b1c076" xlink:title="Get the property type. ">
<polygon fill="#ffffff" stroke="#000000" points="487.3281,-280.5 487.3281,-298.5 608.9385,-298.5 608.9385,-280.5 487.3281,-280.5"/>
<text text-anchor="middle" x="548.1333" y="-286.5" font-family="Helvetica,sans-Serif" font-size="10.00" fill="#000000">Ioss::Property::get_type</text>
</a>
</g>
</g>
<!-- Node1409&#45;&gt;Node1411 -->
<g id="edge6" class="edge">
<title>Node1409&#45;&gt;Node1411</title>
<path fill="none" stroke="#191970" d="M447.5737,-304.2896C457.2464,-302.867 467.2956,-301.3891 477.1357,-299.9418"/>
<polygon fill="#191970" stroke="#191970" points="477.9056,-303.3664 487.2898,-298.4484 476.8869,-296.4409 477.9056,-303.3664"/>
</g>
<!-- Node1417 -->
<g id="node13" class="node">
<title>Node1417</title>
<g id="a_node13"><a xlink:href="$classIoss_1_1DatabaseIO.html#afaf8598b13b44b8f262b3eec8398cb06" xlink:title="Determine whether the database is an input database. ">
<polygon fill="#ffffff" stroke="#000000" points="331.9297,-131.5 331.9297,-159.5 437.9688,-159.5 437.9688,-131.5 331.9297,-131.5"/>
<text text-anchor="start" x="339.9297" y="-147.5" font-family="Helvetica,sans-Serif" font-size="10.00" fill="#000000">Ioss::DatabaseIO::is</text>
<text text-anchor="middle" x="384.9492" y="-137.5" font-family="Helvetica,sans-Serif" font-size="10.00" fill="#000000">_input</text>
</a>
</g>
</g>
<!-- Node1416&#45;&gt;Node1417 -->
<g id="edge12" class="edge">
<title>Node1416&#45;&gt;Node1417</title>
<path fill="none" stroke="#191970" d="M274.8134,-112.6015C291.5365,-117.5969 310.5304,-123.2705 327.9792,-128.4826"/>
<polygon fill="#191970" stroke="#191970" points="327.462,-131.9808 338.0454,-131.4894 329.4655,-125.2737 327.462,-131.9808"/>
</g>
<!-- Node1418 -->
<g id="node14" class="node">
<title>Node1418</title>
<g id="a_node14"><a xlink:href="$classIoex_1_1DatabaseIO.html#a74597cacb5f8b3aa935cc91fd05adf81" xlink:title="Ioex::DatabaseIO::open\l_input_file">
<polygon fill="#ffffff" stroke="#000000" points="324.1367,-84.5 324.1367,-112.5 445.7617,-112.5 445.7617,-84.5 324.1367,-84.5"/>
<text text-anchor="start" x="332.1367" y="-100.5" font-family="Helvetica,sans-Serif" font-size="10.00" fill="#000000">Ioex::DatabaseIO::open</text>
<text text-anchor="middle" x="384.9492" y="-90.5" font-family="Helvetica,sans-Serif" font-size="10.00" fill="#000000">_input_file</text>
</a>
</g>
</g>
<!-- Node1416&#45;&gt;Node1418 -->
<g id="edge13" class="edge">
<title>Node1416&#45;&gt;Node1418</title>
<path fill="none" stroke="#191970" d="M284.4099,-98.5C293.9483,-98.5 303.9526,-98.5 313.7984,-98.5"/>
<polygon fill="#191970" stroke="#191970" points="313.9751,-102.0001 323.9751,-98.5 313.9751,-95.0001 313.9751,-102.0001"/>
</g>
<!-- Node1419 -->
<g id="node15" class="node">
<title>Node1419</title>
<g id="a_node15"><a xlink:href="$classIoex_1_1DatabaseIO.html#a184b2da08689814c05d2692855a7365d" xlink:title="Ioex::DatabaseIO::handle\l_output_file">
<polygon fill="#ffffff" stroke="#000000" points="320.2451,-37.5 320.2451,-65.5 449.6533,-65.5 449.6533,-37.5 320.2451,-37.5"/>
<text text-anchor="start" x="328.2451" y="-53.5" font-family="Helvetica,sans-Serif" font-size="10.00" fill="#000000">Ioex::DatabaseIO::handle</text>
<text text-anchor="middle" x="384.9492" y="-43.5" font-family="Helvetica,sans-Serif" font-size="10.00" fill="#000000">_output_file</text>
</a>
</g>
</g>
<!-- Node1416&#45;&gt;Node1419 -->
<g id="edge14" class="edge">
<title>Node1416&#45;&gt;Node1419</title>
<path fill="none" stroke="#191970" d="M274.8134,-84.3985C291.5365,-79.4031 310.5304,-73.7295 327.9792,-68.5174"/>
<polygon fill="#191970" stroke="#191970" points="329.4655,-71.7263 338.0454,-65.5106 327.462,-65.0192 329.4655,-71.7263"/>
</g>
</g>
</svg>
