<?xml version="1.0" encoding="UTF-8" standalone="no"?>
<!DOCTYPE svg PUBLIC "-//W3C//DTD SVG 1.1//EN"
 "http://www.w3.org/Graphics/SVG/1.1/DTD/svg11.dtd">
<!-- Generated by graphviz version 2.40.1 (20161225.0304)
 -->
<!-- Title: Iopx::DecompositionData::create_implicit_global_map Pages: 1 -->
<svg width="292pt" height="121pt"
 viewBox="0.00 0.00 292.23 121.00" xmlns="http://www.w3.org/2000/svg" xmlns:xlink="http://www.w3.org/1999/xlink">
<g id="graph0" class="graph" transform="scale(1 1) rotate(0) translate(4 117)">
<title>Iopx::DecompositionData::create_implicit_global_map</title>
<polygon fill="#ffffff" stroke="transparent" points="-4,4 -4,-117 288.2305,-117 288.2305,4 -4,4"/>
<!-- Node18 -->
<g id="node1" class="node">
<title>Node18</title>
<polygon fill="#bfbfbf" stroke="#000000" points="0,-42.5 0,-70.5 142.7334,-70.5 142.7334,-42.5 0,-42.5"/>
<text text-anchor="start" x="8" y="-58.5" font-family="Helvetica,sans-Serif" font-size="10.00" fill="#000000">Iopx::DecompositionData</text>
<text text-anchor="middle" x="71.3667" y="-48.5" font-family="Helvetica,sans-Serif" font-size="10.00" fill="#000000">::create_implicit_global_map</text>
</g>
<!-- Node19 -->
<g id="node2" class="node">
<title>Node19</title>
<g id="a_node2"><a xlink:href="$classIoss_1_1Utils.html#ab28da0b4314af388924ebb706fc3c758" xlink:title="Ioss::Utils::generate\l_index">
<polygon fill="#ffffff" stroke="#000000" points="179.2949,-84.5 179.2949,-112.5 283.6689,-112.5 283.6689,-84.5 179.2949,-84.5"/>
<text text-anchor="start" x="187.2949" y="-100.5" font-family="Helvetica,sans-Serif" font-size="10.00" fill="#000000">Ioss::Utils::generate</text>
<text text-anchor="middle" x="231.4819" y="-90.5" font-family="Helvetica,sans-Serif" font-size="10.00" fill="#000000">_index</text>
</a>
</g>
</g>
<!-- Node18&#45;&gt;Node19 -->
<g id="edge1" class="edge">
<title>Node18&#45;&gt;Node19</title>
<path fill="none" stroke="#191970" d="M125.1282,-70.6022C139.3008,-74.3199 154.7102,-78.3619 169.2871,-82.1856"/>
<polygon fill="#191970" stroke="#191970" points="168.6596,-85.6393 179.2204,-84.7912 170.4357,-78.8684 168.6596,-85.6393"/>
</g>
<!-- Node20 -->
<g id="node3" class="node">
<title>Node20</title>
<g id="a_node3"><a xlink:href="$classIoss_1_1Map.html#af3499aa0dc4ab638c5ddca50bed41252" xlink:title="Ioss::Map::map">
<polygon fill="#ffffff" stroke="#000000" points="189.3022,-47.5 189.3022,-65.5 273.6616,-65.5 273.6616,-47.5 189.3022,-47.5"/>
<text text-anchor="middle" x="231.4819" y="-53.5" font-family="Helvetica,sans-Serif" font-size="10.00" fill="#000000">Ioss::Map::map</text>
</a>
</g>
</g>
<!-- Node18&#45;&gt;Node20 -->
<g id="edge2" class="edge">
<title>Node18&#45;&gt;Node20</title>
<path fill="none" stroke="#191970" d="M142.9947,-56.5C155.1071,-56.5 167.4797,-56.5 178.987,-56.5"/>
<polygon fill="#191970" stroke="#191970" points="179.2794,-60.0001 189.2794,-56.5 179.2794,-53.0001 179.2794,-60.0001"/>
</g>
<!-- Node21 -->
<g id="node4" class="node">
<title>Node21</title>
<g id="a_node4"><a xlink:href="$classIoss_1_1Map.html#ab5b9f9efc6c50d676989ae6660bff073" xlink:title="Ioss::Map::global_to\l_local">
<polygon fill="#ffffff" stroke="#000000" points="178.7334,-.5 178.7334,-28.5 284.2305,-28.5 284.2305,-.5 178.7334,-.5"/>
<text text-anchor="start" x="186.7334" y="-16.5" font-family="Helvetica,sans-Serif" font-size="10.00" fill="#000000">Ioss::Map::global_to</text>
<text text-anchor="middle" x="231.4819" y="-6.5" font-family="Helvetica,sans-Serif" font-size="10.00" fill="#000000">_local</text>
</a>
</g>
</g>
<!-- Node18&#45;&gt;Node21 -->
<g id="edge3" class="edge">
<title>Node18&#45;&gt;Node21</title>
<path fill="none" stroke="#191970" d="M125.1282,-42.3978C139.1531,-38.7189 154.3893,-34.7222 168.8313,-30.9339"/>
<polygon fill="#191970" stroke="#191970" points="169.8934,-34.2738 178.6781,-28.351 168.1173,-27.5029 169.8934,-34.2738"/>
</g>
</g>
</svg>
