<?xml version="1.0" encoding="UTF-8" standalone="no"?>
<!DOCTYPE svg PUBLIC "-//W3C//DTD SVG 1.1//EN"
 "http://www.w3.org/Graphics/SVG/1.1/DTD/svg11.dtd">
<!-- Generated by graphviz version 2.43.0 (0)
 -->
<!-- Title: internal::truncating_iterator&lt; OutputIt, std::true_type &gt; Pages: 1 -->
<svg width="141pt" height="112pt"
 viewBox="0.00 0.00 140.74 112.00" xmlns="http://www.w3.org/2000/svg" xmlns:xlink="http://www.w3.org/1999/xlink">
<g id="graph0" class="graph" transform="scale(1 1) rotate(0) translate(4 108)">
<title>internal::truncating_iterator&lt; OutputIt, std::true_type &gt;</title>
<polygon fill="white" stroke="transparent" points="-4,4 -4,-108 136.74,-108 136.74,4 -4,4"/>
<!-- Node1 -->
<g id="node1" class="node">
<title>Node1</title>
<g id="a_node1"><a xlink:title=" ">
<polygon fill="#bfbfbf" stroke="black" points="16.54,-0.5 16.54,-38.5 116.2,-38.5 116.2,-0.5 16.54,-0.5"/>
<text text-anchor="start" x="24.54" y="-26.5" font-family="Helvetica,sans-Serif" font-size="10.00">internal::truncating</text>
<text text-anchor="start" x="24.54" y="-16.5" font-family="Helvetica,sans-Serif" font-size="10.00">_iterator&lt; OutputIt,</text>
<text text-anchor="middle" x="66.37" y="-6.5" font-family="Helvetica,sans-Serif" font-size="10.00"> std::true_type &gt;</text>
</a>
</g>
</g>
<!-- Node2 -->
<g id="node2" class="node">
<title>Node2</title>
<g id="a_node2"><a xlink:href="classinternal_1_1truncating__iterator__base.html" target="_top" xlink:title=" ">
<polygon fill="white" stroke="black" points="0,-75.5 0,-103.5 132.74,-103.5 132.74,-75.5 0,-75.5"/>
<text text-anchor="start" x="8" y="-91.5" font-family="Helvetica,sans-Serif" font-size="10.00">internal::truncating</text>
<text text-anchor="middle" x="66.37" y="-81.5" font-family="Helvetica,sans-Serif" font-size="10.00">_iterator_base&lt; OutputIt &gt;</text>
</a>
</g>
</g>
<!-- Node2&#45;&gt;Node1 -->
<g id="edge1" class="edge">
<title>Node2&#45;&gt;Node1</title>
<path fill="none" stroke="midnightblue" d="M66.37,-65.17C66.37,-56.52 66.37,-46.84 66.37,-38.71"/>
<polygon fill="midnightblue" stroke="midnightblue" points="62.87,-65.39 66.37,-75.39 69.87,-65.39 62.87,-65.39"/>
</g>
</g>
</svg>
