<?xml version="1.0" encoding="UTF-8" standalone="no"?>
<!DOCTYPE svg PUBLIC "-//W3C//DTD SVG 1.1//EN"
 "http://www.w3.org/Graphics/SVG/1.1/DTD/svg11.dtd">
<!-- Generated by graphviz version 2.40.1 (20161225.0304)
 -->
<!-- Title: Ioss::GetLongOption::parse Pages: 1 -->
<svg width="562pt" height="84pt"
 viewBox="0.00 0.00 562.45 84.00" xmlns="http://www.w3.org/2000/svg" xmlns:xlink="http://www.w3.org/1999/xlink">
<g id="graph0" class="graph" transform="scale(1 1) rotate(0) translate(4 80)">
<title>Ioss::GetLongOption::parse</title>
<polygon fill="#ffffff" stroke="transparent" points="-4,4 -4,-80 558.4512,-80 558.4512,4 -4,4"/>
<!-- Node17 -->
<g id="node1" class="node">
<title>Node17</title>
<polygon fill="#bfbfbf" stroke="#000000" points="0,-23.5 0,-51.5 107.7236,-51.5 107.7236,-23.5 0,-23.5"/>
<text text-anchor="start" x="8" y="-39.5" font-family="Helvetica,sans-Serif" font-size="10.00" fill="#000000">Ioss::GetLongOption</text>
<text text-anchor="middle" x="53.8618" y="-29.5" font-family="Helvetica,sans-Serif" font-size="10.00" fill="#000000">::parse</text>
</g>
<!-- Node18 -->
<g id="node2" class="node">
<title>Node18</title>
<g id="a_node2"><a xlink:href="namespaceanonymous__namespace_02io__info_8C_03.html#ac76aa36231a3291b803cc8e620fce319" target="_top" xlink:title="anonymous_namespace\l\{io_info::C\}::name">
<polygon fill="#ffffff" stroke="#000000" points="287.4473,-23.5 287.4473,-51.5 412.4072,-51.5 412.4072,-23.5 287.4473,-23.5"/>
<text text-anchor="start" x="295.4473" y="-39.5" font-family="Helvetica,sans-Serif" font-size="10.00" fill="#000000">anonymous_namespace</text>
<text text-anchor="middle" x="349.9272" y="-29.5" font-family="Helvetica,sans-Serif" font-size="10.00" fill="#000000">{io_info::C}::name</text>
</a>
</g>
</g>
<!-- Node17&#45;&gt;Node18 -->
<g id="edge1" class="edge">
<title>Node17&#45;&gt;Node18</title>
<path fill="none" stroke="#191970" d="M108.0262,-39.6007C119.793,-39.9753 132.1741,-40.3073 143.7236,-40.5 191.5941,-41.2988 203.5756,-41.229 251.4473,-40.5 259.8064,-40.3727 268.5633,-40.1847 277.2614,-39.9637"/>
<polygon fill="#191970" stroke="#191970" points="277.5154,-43.4583 287.4178,-39.6909 277.3274,-36.4608 277.5154,-43.4583"/>
</g>
<!-- Node21 -->
<g id="node5" class="node">
<title>Node21</title>
<g id="a_node5"><a xlink:href="classIoss_1_1GetLongOption.html#a7919f3c4cb978e2aff31990961ba2ec9" target="_top" xlink:title="Ioss::GetLongOption\l::setcell">
<polygon fill="#ffffff" stroke="#000000" points="143.7236,-2.5 143.7236,-30.5 251.4473,-30.5 251.4473,-2.5 143.7236,-2.5"/>
<text text-anchor="start" x="151.7236" y="-18.5" font-family="Helvetica,sans-Serif" font-size="10.00" fill="#000000">Ioss::GetLongOption</text>
<text text-anchor="middle" x="197.5854" y="-8.5" font-family="Helvetica,sans-Serif" font-size="10.00" fill="#000000">::setcell</text>
</a>
</g>
</g>
<!-- Node17&#45;&gt;Node21 -->
<g id="edge4" class="edge">
<title>Node17&#45;&gt;Node21</title>
<path fill="none" stroke="#191970" d="M107.7881,-29.6206C116.1467,-28.3993 124.851,-27.1275 133.4084,-25.8771"/>
<polygon fill="#191970" stroke="#191970" points="133.968,-29.3326 143.3569,-24.4235 132.9559,-22.4062 133.968,-29.3326"/>
</g>
<!-- Node19 -->
<g id="node3" class="node">
<title>Node19</title>
<g id="a_node3"><a xlink:href="classIoss_1_1GroupingEntity.html#adf92c4256dc89b729f4492642bc4d745" target="_top" xlink:title="Get the name of the particular type of entity. ">
<polygon fill="#ffffff" stroke="#000000" points="448.4072,-47.5 448.4072,-75.5 554.4512,-75.5 554.4512,-47.5 448.4072,-47.5"/>
<text text-anchor="start" x="456.4072" y="-63.5" font-family="Helvetica,sans-Serif" font-size="10.00" fill="#000000">Ioss::GroupingEntity</text>
<text text-anchor="middle" x="501.4292" y="-53.5" font-family="Helvetica,sans-Serif" font-size="10.00" fill="#000000">::type_string</text>
</a>
</g>
</g>
<!-- Node18&#45;&gt;Node19 -->
<g id="edge2" class="edge">
<title>Node18&#45;&gt;Node19</title>
<path fill="none" stroke="#191970" d="M412.4236,-47.4003C420.977,-48.7553 429.7631,-50.1471 438.3273,-51.5038"/>
<polygon fill="#191970" stroke="#191970" points="437.8271,-54.9681 448.2516,-53.0759 438.9224,-48.0543 437.8271,-54.9681"/>
</g>
<!-- Node20 -->
<g id="node4" class="node">
<title>Node20</title>
<g id="a_node4"><a xlink:href="classIoss_1_1GroupingEntity.html#a50d4053f49c8c3205e05d939fdc9fbc5" target="_top" xlink:title="Get name of entity. ">
<polygon fill="#ffffff" stroke="#000000" points="448.4072,-.5 448.4072,-28.5 554.4512,-28.5 554.4512,-.5 448.4072,-.5"/>
<text text-anchor="start" x="456.4072" y="-16.5" font-family="Helvetica,sans-Serif" font-size="10.00" fill="#000000">Ioss::GroupingEntity</text>
<text text-anchor="middle" x="501.4292" y="-6.5" font-family="Helvetica,sans-Serif" font-size="10.00" fill="#000000">::name</text>
</a>
</g>
</g>
<!-- Node18&#45;&gt;Node20 -->
<g id="edge3" class="edge">
<title>Node18&#45;&gt;Node20</title>
<path fill="none" stroke="#191970" d="M412.4236,-28.0122C420.977,-26.7137 429.7631,-25.3799 438.3273,-24.0797"/>
<polygon fill="#191970" stroke="#191970" points="438.8902,-27.5344 448.2516,-22.5731 437.8395,-20.6137 438.8902,-27.5344"/>
</g>
<!-- Node21&#45;&gt;Node18 -->
<g id="edge5" class="edge">
<title>Node21&#45;&gt;Node18</title>
<path fill="none" stroke="#191970" d="M251.7244,-23.9629C260.0227,-25.1069 268.7028,-26.3034 277.3218,-27.4915"/>
<polygon fill="#191970" stroke="#191970" points="277.001,-30.9803 287.3853,-28.8787 277.9569,-24.0459 277.001,-30.9803"/>
</g>
</g>
</svg>
