<?xml version="1.0" encoding="UTF-8" standalone="no"?>
<!DOCTYPE svg PUBLIC "-//W3C//DTD SVG 1.1//EN"
 "http://www.w3.org/Graphics/SVG/1.1/DTD/svg11.dtd">
<!-- Generated by graphviz version 2.40.1 (20161225.0304)
 -->
<!-- Title: Ioss::ParallelUtils::all_gather Pages: 1 -->
<svg width="949pt" height="671pt"
 viewBox="0.00 0.00 949.39 671.23" xmlns="http://www.w3.org/2000/svg" xmlns:xlink="http://www.w3.org/1999/xlink">
<g id="graph0" class="graph" transform="scale(1 1) rotate(0) translate(4 667.2307)">
<title>Ioss::ParallelUtils::all_gather</title>
<polygon fill="#ffffff" stroke="transparent" points="-4,4 -4,-667.2307 945.3857,-667.2307 945.3857,4 -4,4"/>
<!-- Node34 -->
<g id="node1" class="node">
<title>Node34</title>
<polygon fill="#bfbfbf" stroke="#000000" points="0,-188.5 0,-216.5 92.6895,-216.5 92.6895,-188.5 0,-188.5"/>
<text text-anchor="start" x="8" y="-204.5" font-family="Helvetica,sans-Serif" font-size="10.00" fill="#000000">Ioss::ParallelUtils</text>
<text text-anchor="middle" x="46.3447" y="-194.5" font-family="Helvetica,sans-Serif" font-size="10.00" fill="#000000">::all_gather</text>
</g>
<!-- Node35 -->
<g id="node2" class="node">
<title>Node35</title>
<g id="a_node2"><a xlink:href="classIocgns_1_1DatabaseIO.html#ac24c1fe72e1e14f91497d6f4ddcd73d0" target="_top" xlink:title="Iocgns::DatabaseIO\l::check_valid_file_open">
<polygon fill="#ffffff" stroke="#000000" points="152.3076,-270.5 152.3076,-298.5 272.2676,-298.5 272.2676,-270.5 152.3076,-270.5"/>
<text text-anchor="start" x="160.3076" y="-286.5" font-family="Helvetica,sans-Serif" font-size="10.00" fill="#000000">Iocgns::DatabaseIO</text>
<text text-anchor="middle" x="212.2876" y="-276.5" font-family="Helvetica,sans-Serif" font-size="10.00" fill="#000000">::check_valid_file_open</text>
</a>
</g>
</g>
<!-- Node34&#45;&gt;Node35 -->
<g id="edge1" class="edge">
<title>Node34&#45;&gt;Node35</title>
<path fill="none" stroke="#191970" d="M83.8799,-221.0479C114.2128,-236.0367 156.26,-256.8142 183.8561,-270.4507"/>
<polygon fill="#191970" stroke="#191970" points="85.3871,-217.8886 74.8713,-216.5963 82.2859,-224.1643 85.3871,-217.8886"/>
</g>
<!-- Node51 -->
<g id="node18" class="node">
<title>Node51</title>
<g id="a_node18"><a xlink:href="classIocgns_1_1DatabaseIO.html#aecf73c449524f2d4cf738d82e802e858" target="_top" xlink:title="Iocgns::DatabaseIO\l::finalize_structured\l_blocks">
<polygon fill="#ffffff" stroke="#000000" points="508.6904,-548.5 508.6904,-586.5 613.0742,-586.5 613.0742,-548.5 508.6904,-548.5"/>
<text text-anchor="start" x="516.6904" y="-574.5" font-family="Helvetica,sans-Serif" font-size="10.00" fill="#000000">Iocgns::DatabaseIO</text>
<text text-anchor="start" x="516.6904" y="-564.5" font-family="Helvetica,sans-Serif" font-size="10.00" fill="#000000">::finalize_structured</text>
<text text-anchor="middle" x="560.8823" y="-554.5" font-family="Helvetica,sans-Serif" font-size="10.00" fill="#000000">_blocks</text>
</a>
</g>
</g>
<!-- Node34&#45;&gt;Node51 -->
<g id="edge22" class="edge">
<title>Node34&#45;&gt;Node51</title>
<path fill="none" stroke="#191970" d="M60.3918,-225.2467C75.3304,-248.1776 100.6379,-283.6421 128.6895,-308.5 254.8803,-420.3242 436.057,-510.5848 517.8805,-548.36"/>
<polygon fill="#191970" stroke="#191970" points="63.1628,-223.0831 54.8276,-216.5428 57.265,-226.8535 63.1628,-223.0831"/>
</g>
<!-- Node52 -->
<g id="node19" class="node">
<title>Node52</title>
<g id="a_node19"><a xlink:href="namespaceanonymous__namespace_02Iocgns__Utils_8C_03.html#a397d516e435535ef9fae83c788a399db" target="_top" xlink:title="anonymous_namespace\l\{Iocgns_Utils::C\}::consolidate_zgc">
<polygon fill="#ffffff" stroke="#000000" points="128.6895,-188.5 128.6895,-216.5 295.8857,-216.5 295.8857,-188.5 128.6895,-188.5"/>
<text text-anchor="start" x="136.6895" y="-204.5" font-family="Helvetica,sans-Serif" font-size="10.00" fill="#000000">anonymous_namespace</text>
<text text-anchor="middle" x="212.2876" y="-194.5" font-family="Helvetica,sans-Serif" font-size="10.00" fill="#000000">{Iocgns_Utils::C}::consolidate_zgc</text>
</a>
</g>
</g>
<!-- Node34&#45;&gt;Node52 -->
<g id="edge24" class="edge">
<title>Node34&#45;&gt;Node52</title>
<path fill="none" stroke="#191970" d="M103.1733,-202.5C111.3787,-202.5 119.9641,-202.5 128.5603,-202.5"/>
<polygon fill="#191970" stroke="#191970" points="103.0107,-199.0001 93.0107,-202.5 103.0106,-206.0001 103.0107,-199.0001"/>
</g>
<!-- Node56 -->
<g id="node23" class="node">
<title>Node56</title>
<g id="a_node23"><a xlink:href="classIofx_1_1DatabaseIO.html#a1c76ab6f580b73c7fb860dc0e28f778c" target="_top" xlink:title="Iofx::DatabaseIO::check\l_valid_file_ptr">
<polygon fill="#ffffff" stroke="#000000" points="150.9282,-141.5 150.9282,-169.5 273.647,-169.5 273.647,-141.5 150.9282,-141.5"/>
<text text-anchor="start" x="158.9282" y="-157.5" font-family="Helvetica,sans-Serif" font-size="10.00" fill="#000000">Iofx::DatabaseIO::check</text>
<text text-anchor="middle" x="212.2876" y="-147.5" font-family="Helvetica,sans-Serif" font-size="10.00" fill="#000000">_valid_file_ptr</text>
</a>
</g>
</g>
<!-- Node34&#45;&gt;Node56 -->
<g id="edge29" class="edge">
<title>Node34&#45;&gt;Node56</title>
<path fill="none" stroke="#191970" d="M102.6821,-186.5436C122.1819,-181.0206 143.8773,-174.8759 162.7863,-169.5202"/>
<polygon fill="#191970" stroke="#191970" points="101.6784,-183.1901 93.0107,-189.2828 103.586,-189.9252 101.6784,-183.1901"/>
</g>
<!-- Node59 -->
<g id="node26" class="node">
<title>Node59</title>
<g id="a_node26"><a xlink:href="classIopx_1_1DatabaseIO.html#aae737df4af01a4691b54f042ef2b7988" target="_top" xlink:title="Iopx::DatabaseIO::check\l_valid_file_ptr">
<polygon fill="#ffffff" stroke="#000000" points="149.5366,-47.5 149.5366,-75.5 275.0386,-75.5 275.0386,-47.5 149.5366,-47.5"/>
<text text-anchor="start" x="157.5366" y="-63.5" font-family="Helvetica,sans-Serif" font-size="10.00" fill="#000000">Iopx::DatabaseIO::check</text>
<text text-anchor="middle" x="212.2876" y="-53.5" font-family="Helvetica,sans-Serif" font-size="10.00" fill="#000000">_valid_file_ptr</text>
</a>
</g>
</g>
<!-- Node34&#45;&gt;Node59 -->
<g id="edge32" class="edge">
<title>Node34&#45;&gt;Node59</title>
<path fill="none" stroke="#191970" d="M71.0612,-181.4838C87.4135,-167.5809 109.3292,-148.9503 128.6895,-132.5 151.9067,-112.7725 178.7579,-89.97 195.6314,-75.6423"/>
<polygon fill="#191970" stroke="#191970" points="68.4116,-179.1425 63.0602,-188.2866 72.9459,-184.4755 68.4116,-179.1425"/>
</g>
<!-- Node36 -->
<g id="node3" class="node">
<title>Node36</title>
<g id="a_node3"><a xlink:href="classIocgns_1_1DatabaseIO.html#a7ec7460e9012476c2ce023b4be3bb34c" target="_top" xlink:title="Iocgns::DatabaseIO\l::openDatabase__">
<polygon fill="#ffffff" stroke="#000000" points="344.3979,-340.5 344.3979,-368.5 448.7817,-368.5 448.7817,-340.5 344.3979,-340.5"/>
<text text-anchor="start" x="352.3979" y="-356.5" font-family="Helvetica,sans-Serif" font-size="10.00" fill="#000000">Iocgns::DatabaseIO</text>
<text text-anchor="middle" x="396.5898" y="-346.5" font-family="Helvetica,sans-Serif" font-size="10.00" fill="#000000">::openDatabase__</text>
</a>
</g>
</g>
<!-- Node35&#45;&gt;Node36 -->
<g id="edge2" class="edge">
<title>Node35&#45;&gt;Node36</title>
<path fill="none" stroke="#191970" d="M258.9513,-302.2234C290.1711,-314.081 330.6885,-329.47 359.6639,-340.4751"/>
<polygon fill="#191970" stroke="#191970" points="260.1751,-298.9443 249.5839,-298.6655 257.6896,-305.4882 260.1751,-298.9443"/>
</g>
<!-- Node37 -->
<g id="node4" class="node">
<title>Node37</title>
<g id="a_node4"><a xlink:href="classIocgns_1_1DatabaseIO.html#aea780bd2b6616f62c8c498c0181940e4" target="_top" xlink:title="Iocgns::DatabaseIO\l::DatabaseIO">
<polygon fill="#ffffff" stroke="#000000" points="508.6904,-387.5 508.6904,-415.5 613.0742,-415.5 613.0742,-387.5 508.6904,-387.5"/>
<text text-anchor="start" x="516.6904" y="-403.5" font-family="Helvetica,sans-Serif" font-size="10.00" fill="#000000">Iocgns::DatabaseIO</text>
<text text-anchor="middle" x="560.8823" y="-393.5" font-family="Helvetica,sans-Serif" font-size="10.00" fill="#000000">::DatabaseIO</text>
</a>
</g>
</g>
<!-- Node36&#45;&gt;Node37 -->
<g id="edge3" class="edge">
<title>Node36&#45;&gt;Node37</title>
<path fill="none" stroke="#191970" d="M455.6419,-371.3933C474.0904,-376.671 494.2303,-382.4325 511.9072,-387.4894"/>
<polygon fill="#191970" stroke="#191970" points="456.46,-367.987 445.883,-368.6015 454.5347,-374.7171 456.46,-367.987"/>
</g>
<!-- Node38 -->
<g id="node5" class="node">
<title>Node38</title>
<g id="a_node5"><a xlink:href="classIocgns_1_1DatabaseIO.html#a25570e840129e2bf15bbf76d9dba5d40" target="_top" xlink:title="Iocgns::DatabaseIO\l::get_file_pointer">
<polygon fill="#ffffff" stroke="#000000" points="508.6904,-340.5 508.6904,-368.5 613.0742,-368.5 613.0742,-340.5 508.6904,-340.5"/>
<text text-anchor="start" x="516.6904" y="-356.5" font-family="Helvetica,sans-Serif" font-size="10.00" fill="#000000">Iocgns::DatabaseIO</text>
<text text-anchor="middle" x="560.8823" y="-346.5" font-family="Helvetica,sans-Serif" font-size="10.00" fill="#000000">::get_file_pointer</text>
</a>
</g>
</g>
<!-- Node36&#45;&gt;Node38 -->
<g id="edge4" class="edge">
<title>Node36&#45;&gt;Node38</title>
<path fill="none" stroke="#191970" d="M459.0478,-354.5C475.416,-354.5 492.8923,-354.5 508.6637,-354.5"/>
<polygon fill="#191970" stroke="#191970" points="459.0248,-351.0001 449.0247,-354.5 459.0247,-358.0001 459.0248,-351.0001"/>
</g>
<!-- Node39 -->
<g id="node6" class="node">
<title>Node39</title>
<g id="a_node6"><a xlink:href="classIocgns_1_1DatabaseIO.html#a421c9784c7abe955ddfe5c4d900cdd59" target="_top" xlink:title="Iocgns::DatabaseIO\l::finalize_database">
<polygon fill="#ffffff" stroke="#000000" points="677.9805,-462.5 677.9805,-490.5 782.3643,-490.5 782.3643,-462.5 677.9805,-462.5"/>
<text text-anchor="start" x="685.9805" y="-478.5" font-family="Helvetica,sans-Serif" font-size="10.00" fill="#000000">Iocgns::DatabaseIO</text>
<text text-anchor="middle" x="730.1724" y="-468.5" font-family="Helvetica,sans-Serif" font-size="10.00" fill="#000000">::finalize_database</text>
</a>
</g>
</g>
<!-- Node38&#45;&gt;Node39 -->
<g id="edge5" class="edge">
<title>Node38&#45;&gt;Node39</title>
<path fill="none" stroke="#191970" d="M618.9595,-374.0367C620.8929,-375.4269 622.7394,-376.9126 624.4707,-378.5 651.7231,-403.4884 632.6975,-429.0918 660.4707,-453.5 665.5437,-457.9584 671.5037,-461.5565 677.766,-464.4595"/>
<polygon fill="#191970" stroke="#191970" points="620.3659,-370.7927 610.0146,-368.5342 616.6982,-376.7549 620.3659,-370.7927"/>
</g>
<!-- Node40 -->
<g id="node7" class="node">
<title>Node40</title>
<g id="a_node7"><a xlink:href="classIocgns_1_1DatabaseIO.html#aff9640cf8ff3bb0c6b87500e240d7108" target="_top" xlink:title="Iocgns::DatabaseIO\l::create_structured\l_block_fpp">
<polygon fill="#ffffff" stroke="#000000" points="677.9805,-405.5 677.9805,-443.5 782.3643,-443.5 782.3643,-405.5 677.9805,-405.5"/>
<text text-anchor="start" x="685.9805" y="-431.5" font-family="Helvetica,sans-Serif" font-size="10.00" fill="#000000">Iocgns::DatabaseIO</text>
<text text-anchor="start" x="685.9805" y="-421.5" font-family="Helvetica,sans-Serif" font-size="10.00" fill="#000000">::create_structured</text>
<text text-anchor="middle" x="730.1724" y="-411.5" font-family="Helvetica,sans-Serif" font-size="10.00" fill="#000000">_block_fpp</text>
</a>
</g>
</g>
<!-- Node38&#45;&gt;Node40 -->
<g id="edge6" class="edge">
<title>Node38&#45;&gt;Node40</title>
<path fill="none" stroke="#191970" d="M608.5959,-372.2151C613.9658,-374.2958 619.3459,-376.4192 624.4707,-378.5 645.4246,-387.0076 668.475,-396.9672 687.6884,-405.4394"/>
<polygon fill="#191970" stroke="#191970" points="609.5884,-368.8472 598.9982,-368.5344 607.0819,-375.3831 609.5884,-368.8472"/>
</g>
<!-- Node41 -->
<g id="node8" class="node">
<title>Node41</title>
<g id="a_node8"><a xlink:href="classIocgns_1_1DatabaseIO.html#aefeff18c6c405f13bd79260ee41678de" target="_top" xlink:title="Iocgns::DatabaseIO\l::read_meta_data__">
<polygon fill="#ffffff" stroke="#000000" points="835.874,-340.5 835.874,-368.5 941.3857,-368.5 941.3857,-340.5 835.874,-340.5"/>
<text text-anchor="start" x="843.874" y="-356.5" font-family="Helvetica,sans-Serif" font-size="10.00" fill="#000000">Iocgns::DatabaseIO</text>
<text text-anchor="middle" x="888.6299" y="-346.5" font-family="Helvetica,sans-Serif" font-size="10.00" fill="#000000">::read_meta_data__</text>
</a>
</g>
</g>
<!-- Node38&#45;&gt;Node41 -->
<g id="edge12" class="edge">
<title>Node38&#45;&gt;Node41</title>
<path fill="none" stroke="#191970" d="M623.2804,-356.668C635.605,-357.0149 648.4449,-357.3189 660.4707,-357.5 722.4207,-358.4329 737.9258,-358.5466 799.874,-357.5 811.4357,-357.3047 823.841,-356.9663 835.6031,-356.5855"/>
<polygon fill="#191970" stroke="#191970" points="623.1766,-353.1636 613.0782,-356.3684 622.9711,-360.1606 623.1766,-353.1636"/>
</g>
<!-- Node42 -->
<g id="node9" class="node">
<title>Node42</title>
<g id="a_node9"><a xlink:href="classIocgns_1_1DatabaseIO.html#a3b5d3b4ac91f45ae8ee426c152fb4441" target="_top" xlink:title="Iocgns::DatabaseIO\l::create_structured_block">
<polygon fill="#ffffff" stroke="#000000" points="666.0322,-319.5 666.0322,-347.5 794.3125,-347.5 794.3125,-319.5 666.0322,-319.5"/>
<text text-anchor="start" x="674.0322" y="-335.5" font-family="Helvetica,sans-Serif" font-size="10.00" fill="#000000">Iocgns::DatabaseIO</text>
<text text-anchor="middle" x="730.1724" y="-325.5" font-family="Helvetica,sans-Serif" font-size="10.00" fill="#000000">::create_structured_block</text>
</a>
</g>
</g>
<!-- Node38&#45;&gt;Node42 -->
<g id="edge8" class="edge">
<title>Node38&#45;&gt;Node42</title>
<path fill="none" stroke="#191970" d="M623.8449,-346.6896C637.5913,-344.9844 652.1557,-343.1778 665.9504,-341.4666"/>
<polygon fill="#191970" stroke="#191970" points="623.0118,-343.2661 613.5188,-347.9706 623.8736,-350.2128 623.0118,-343.2661"/>
</g>
<!-- Node43 -->
<g id="node10" class="node">
<title>Node43</title>
<g id="a_node10"><a xlink:href="classIocgns_1_1DatabaseIO.html#a53d6e1283b2da2fa8f863c0eb9859141" target="_top" xlink:title="Iocgns::DatabaseIO\l::create_unstructured_block">
<polygon fill="#ffffff" stroke="#000000" points="660.4707,-272.5 660.4707,-300.5 799.874,-300.5 799.874,-272.5 660.4707,-272.5"/>
<text text-anchor="start" x="668.4707" y="-288.5" font-family="Helvetica,sans-Serif" font-size="10.00" fill="#000000">Iocgns::DatabaseIO</text>
<text text-anchor="middle" x="730.1724" y="-278.5" font-family="Helvetica,sans-Serif" font-size="10.00" fill="#000000">::create_unstructured_block</text>
</a>
</g>
</g>
<!-- Node38&#45;&gt;Node43 -->
<g id="edge10" class="edge">
<title>Node38&#45;&gt;Node43</title>
<path fill="none" stroke="#191970" d="M600.2448,-336.1919C618.4257,-327.9733 640.3913,-318.3764 660.4707,-310.5 669.1682,-307.0883 678.5731,-303.6708 687.5748,-300.5282"/>
<polygon fill="#191970" stroke="#191970" points="598.7647,-333.02 591.1124,-340.3477 601.664,-339.3914 598.7647,-333.02"/>
</g>
<!-- Node44 -->
<g id="node11" class="node">
<title>Node44</title>
<g id="a_node11"><a xlink:href="classIocgns_1_1DatabaseIO.html#afba3d4e19c998e014bbe93b49a5e70c2" target="_top" xlink:title="Iocgns::DatabaseIO\l::write_meta_data">
<polygon fill="#ffffff" stroke="#000000" points="677.9805,-131.5 677.9805,-159.5 782.3643,-159.5 782.3643,-131.5 677.9805,-131.5"/>
<text text-anchor="start" x="685.9805" y="-147.5" font-family="Helvetica,sans-Serif" font-size="10.00" fill="#000000">Iocgns::DatabaseIO</text>
<text text-anchor="middle" x="730.1724" y="-137.5" font-family="Helvetica,sans-Serif" font-size="10.00" fill="#000000">::write_meta_data</text>
</a>
</g>
</g>
<!-- Node38&#45;&gt;Node44 -->
<g id="edge13" class="edge">
<title>Node38&#45;&gt;Node44</title>
<path fill="none" stroke="#191970" d="M567.4717,-330.6801C579.4954,-291.5264 608.6539,-213.526 660.4707,-169.5 665.6399,-165.108 671.6563,-161.5059 677.9475,-158.5549"/>
<polygon fill="#191970" stroke="#191970" points="564.0728,-329.8316 564.5924,-340.4137 570.7853,-331.8173 564.0728,-329.8316"/>
</g>
<!-- Node46 -->
<g id="node13" class="node">
<title>Node46</title>
<g id="a_node13"><a xlink:href="classIocgns_1_1DatabaseIO.html#ad0775bb2ff9b8316ba375b25bf052b7b" target="_top" xlink:title="Iocgns::DatabaseIO\l::get_step_times__">
<polygon fill="#ffffff" stroke="#000000" points="677.9805,-225.5 677.9805,-253.5 782.3643,-253.5 782.3643,-225.5 677.9805,-225.5"/>
<text text-anchor="start" x="685.9805" y="-241.5" font-family="Helvetica,sans-Serif" font-size="10.00" fill="#000000">Iocgns::DatabaseIO</text>
<text text-anchor="middle" x="730.1724" y="-231.5" font-family="Helvetica,sans-Serif" font-size="10.00" fill="#000000">::get_step_times__</text>
</a>
</g>
</g>
<!-- Node38&#45;&gt;Node46 -->
<g id="edge15" class="edge">
<title>Node38&#45;&gt;Node46</title>
<path fill="none" stroke="#191970" d="M579.8099,-332.678C598.5085,-312.3039 628.8285,-282.2952 660.4707,-263.5 666.8527,-259.7092 673.9207,-256.4041 681.0362,-253.5593"/>
<polygon fill="#191970" stroke="#191970" points="577.0958,-330.4615 573.0019,-340.2335 582.2961,-335.1473 577.0958,-330.4615"/>
</g>
<!-- Node47 -->
<g id="node14" class="node">
<title>Node47</title>
<g id="a_node14"><a xlink:href="classIocgns_1_1DatabaseIO.html#a7bc09ba1a2c526f2f6c4f347147d7399" target="_top" xlink:title="Iocgns::DatabaseIO\l::write_adjacency_data">
<polygon fill="#ffffff" stroke="#000000" points="671.0298,-178.5 671.0298,-206.5 789.3149,-206.5 789.3149,-178.5 671.0298,-178.5"/>
<text text-anchor="start" x="679.0298" y="-194.5" font-family="Helvetica,sans-Serif" font-size="10.00" fill="#000000">Iocgns::DatabaseIO</text>
<text text-anchor="middle" x="730.1724" y="-184.5" font-family="Helvetica,sans-Serif" font-size="10.00" fill="#000000">::write_adjacency_data</text>
</a>
</g>
</g>
<!-- Node38&#45;&gt;Node47 -->
<g id="edge17" class="edge">
<title>Node38&#45;&gt;Node47</title>
<path fill="none" stroke="#191970" d="M572.0005,-331.0815C587.643,-300.525 618.944,-247.3312 660.4707,-216.5 665.7113,-212.6091 671.6302,-209.316 677.7491,-206.5369"/>
<polygon fill="#191970" stroke="#191970" points="568.8089,-329.6389 567.4789,-340.15 575.0734,-332.7625 568.8089,-329.6389"/>
</g>
<!-- Node48 -->
<g id="node15" class="node">
<title>Node48</title>
<g id="a_node15"><a xlink:href="classIocgns_1_1DatabaseIO.html#a3ab38d6b7c5521bc8984e2f1f3f2f92a" target="_top" xlink:title="Iocgns::DatabaseIO\l::begin_state__">
<polygon fill="#ffffff" stroke="#000000" points="677.9805,-603.5 677.9805,-631.5 782.3643,-631.5 782.3643,-603.5 677.9805,-603.5"/>
<text text-anchor="start" x="685.9805" y="-619.5" font-family="Helvetica,sans-Serif" font-size="10.00" fill="#000000">Iocgns::DatabaseIO</text>
<text text-anchor="middle" x="730.1724" y="-609.5" font-family="Helvetica,sans-Serif" font-size="10.00" fill="#000000">::begin_state__</text>
</a>
</g>
</g>
<!-- Node38&#45;&gt;Node48 -->
<g id="edge19" class="edge">
<title>Node38&#45;&gt;Node48</title>
<path fill="none" stroke="#191970" d="M620.9109,-374.6789C622.1728,-375.8798 623.3638,-377.1521 624.4707,-378.5 686.2351,-453.7141 597.1342,-520.6048 660.4707,-594.5 665.1976,-600.0149 671.275,-604.2141 677.8673,-607.4102"/>
<polygon fill="#191970" stroke="#191970" points="623.0524,-371.9105 613.0038,-368.5524 618.765,-377.4439 623.0524,-371.9105"/>
</g>
<!-- Node49 -->
<g id="node16" class="node">
<title>Node49</title>
<g id="a_node16"><a xlink:href="classIocgns_1_1DatabaseIO.html#a7f1eb6e0964125b7368fcda4fbe0ce63" target="_top" xlink:title="Iocgns::DatabaseIO\l::get_field_internal">
<polygon fill="#ffffff" stroke="#000000" points="677.9805,-556.5 677.9805,-584.5 782.3643,-584.5 782.3643,-556.5 677.9805,-556.5"/>
<text text-anchor="start" x="685.9805" y="-572.5" font-family="Helvetica,sans-Serif" font-size="10.00" fill="#000000">Iocgns::DatabaseIO</text>
<text text-anchor="middle" x="730.1724" y="-562.5" font-family="Helvetica,sans-Serif" font-size="10.00" fill="#000000">::get_field_internal</text>
</a>
</g>
</g>
<!-- Node38&#45;&gt;Node49 -->
<g id="edge20" class="edge">
<title>Node38&#45;&gt;Node49</title>
<path fill="none" stroke="#191970" d="M620.7416,-374.6635C622.0598,-375.869 623.3075,-377.1464 624.4707,-378.5 674.5227,-436.7449 609.2018,-490.3233 660.4707,-547.5 665.2346,-552.8129 671.2497,-556.902 677.7405,-560.0484"/>
<polygon fill="#191970" stroke="#191970" points="622.6239,-371.7007 612.5192,-368.5154 618.4321,-377.3068 622.6239,-371.7007"/>
</g>
<!-- Node50 -->
<g id="node17" class="node">
<title>Node50</title>
<g id="a_node17"><a xlink:href="classIocgns_1_1DatabaseIO.html#a54fb8af967d5fab52f26812da2fe2e21" target="_top" xlink:title="Iocgns::DatabaseIO\l::put_field_internal">
<polygon fill="#ffffff" stroke="#000000" points="677.9805,-509.5 677.9805,-537.5 782.3643,-537.5 782.3643,-509.5 677.9805,-509.5"/>
<text text-anchor="start" x="685.9805" y="-525.5" font-family="Helvetica,sans-Serif" font-size="10.00" fill="#000000">Iocgns::DatabaseIO</text>
<text text-anchor="middle" x="730.1724" y="-515.5" font-family="Helvetica,sans-Serif" font-size="10.00" fill="#000000">::put_field_internal</text>
</a>
</g>
</g>
<!-- Node38&#45;&gt;Node50 -->
<g id="edge21" class="edge">
<title>Node38&#45;&gt;Node50</title>
<path fill="none" stroke="#191970" d="M620.1315,-374.3817C621.6631,-375.6699 623.1157,-377.0409 624.4707,-378.5 662.9408,-419.9259 621.1358,-459.8944 660.4707,-500.5 665.3471,-505.5339 671.3454,-509.4665 677.7586,-512.5385"/>
<polygon fill="#191970" stroke="#191970" points="622.0989,-371.4865 611.9031,-368.6063 618.0774,-377.2161 622.0989,-371.4865"/>
</g>
<!-- Node40&#45;&gt;Node41 -->
<g id="edge7" class="edge">
<title>Node40&#45;&gt;Node41</title>
<path fill="none" stroke="#191970" d="M782.6441,-401.3202C807.1304,-390.5031 835.4802,-377.9793 856.6947,-368.6076"/>
<polygon fill="#191970" stroke="#191970" points="781.2045,-398.1297 773.4716,-405.3722 784.0331,-404.5328 781.2045,-398.1297"/>
</g>
<!-- Node42&#45;&gt;Node41 -->
<g id="edge9" class="edge">
<title>Node42&#45;&gt;Node41</title>
<path fill="none" stroke="#191970" d="M804.667,-343.3726C815.2043,-344.7691 825.8536,-346.1804 835.8658,-347.5073"/>
<polygon fill="#191970" stroke="#191970" points="804.9963,-339.8857 794.6231,-342.0415 804.0766,-346.825 804.9963,-339.8857"/>
</g>
<!-- Node43&#45;&gt;Node41 -->
<g id="edge11" class="edge">
<title>Node43&#45;&gt;Node41</title>
<path fill="none" stroke="#191970" d="M783.809,-304.1836C789.2719,-306.2183 794.7079,-308.3406 799.874,-310.5 821.2959,-319.4543 844.8067,-331.2006 862.2459,-340.3041"/>
<polygon fill="#191970" stroke="#191970" points="784.5936,-300.7451 773.9994,-300.6264 782.2072,-307.3258 784.5936,-300.7451"/>
</g>
<!-- Node45 -->
<g id="node12" class="node">
<title>Node45</title>
<g id="a_node12"><a xlink:href="classIocgns_1_1DatabaseIO.html#a2c5d72d71cbf54e42bfc2eb770d804b2" target="_top" xlink:title="Iocgns::DatabaseIO\l::end__">
<polygon fill="#ffffff" stroke="#000000" points="836.438,-155.5 836.438,-183.5 940.8218,-183.5 940.8218,-155.5 836.438,-155.5"/>
<text text-anchor="start" x="844.438" y="-171.5" font-family="Helvetica,sans-Serif" font-size="10.00" fill="#000000">Iocgns::DatabaseIO</text>
<text text-anchor="middle" x="888.6299" y="-161.5" font-family="Helvetica,sans-Serif" font-size="10.00" fill="#000000">::end__</text>
</a>
</g>
</g>
<!-- Node44&#45;&gt;Node45 -->
<g id="edge14" class="edge">
<title>Node44&#45;&gt;Node45</title>
<path fill="none" stroke="#191970" d="M792.4117,-154.9268C806.9557,-157.1296 822.3012,-159.4538 836.3608,-161.5833"/>
<polygon fill="#191970" stroke="#191970" points="792.9078,-151.4621 782.4964,-153.425 791.8595,-158.3832 792.9078,-151.4621"/>
</g>
<!-- Node46&#45;&gt;Node41 -->
<g id="edge16" class="edge">
<title>Node46&#45;&gt;Node41</title>
<path fill="none" stroke="#191970" d="M789.4219,-257.6743C793.0469,-259.463 796.5632,-261.4023 799.874,-263.5 833.2434,-284.6422 863.3411,-320.7089 878.4279,-340.4925"/>
<polygon fill="#191970" stroke="#191970" points="790.7965,-254.4548 780.2417,-253.5336 787.9183,-260.8357 790.7965,-254.4548"/>
</g>
<!-- Node47&#45;&gt;Node45 -->
<g id="edge18" class="edge">
<title>Node47&#45;&gt;Node45</title>
<path fill="none" stroke="#191970" d="M799.8382,-182.3881C812.1128,-180.6064 824.6982,-178.7796 836.3925,-177.0822"/>
<polygon fill="#191970" stroke="#191970" points="799.0204,-178.97 789.6269,-183.8702 800.026,-185.8974 799.0204,-178.97"/>
</g>
<!-- Node51&#45;&gt;Node41 -->
<g id="edge23" class="edge">
<title>Node51&#45;&gt;Node41</title>
<path fill="none" stroke="#191970" d="M586.4108,-593.8023C605.0794,-611.0493 632.0196,-632.0867 660.4707,-641.5 719.2918,-660.9615 750.0102,-678.2732 799.874,-641.5 845.8364,-607.604 878.1139,-421.6677 886.484,-368.6285"/>
<polygon fill="#191970" stroke="#191970" points="588.5926,-591.047 578.9361,-586.6878 583.7665,-596.1174 588.5926,-591.047"/>
</g>
<!-- Node53 -->
<g id="node20" class="node">
<title>Node53</title>
<g id="a_node20"><a xlink:href="classIocgns_1_1Utils.html#a4436c119a691be04b8407f0f69185161" target="_top" xlink:title="Iocgns::Utils::common\l_write_meta_data">
<polygon fill="#ffffff" stroke="#000000" points="339.4077,-188.5 339.4077,-216.5 453.772,-216.5 453.772,-188.5 339.4077,-188.5"/>
<text text-anchor="start" x="347.4077" y="-204.5" font-family="Helvetica,sans-Serif" font-size="10.00" fill="#000000">Iocgns::Utils::common</text>
<text text-anchor="middle" x="396.5898" y="-194.5" font-family="Helvetica,sans-Serif" font-size="10.00" fill="#000000">_write_meta_data</text>
</a>
</g>
</g>
<!-- Node52&#45;&gt;Node53 -->
<g id="edge25" class="edge">
<title>Node52&#45;&gt;Node53</title>
<path fill="none" stroke="#191970" d="M306.4038,-202.5C317.6545,-202.5 328.8661,-202.5 339.3674,-202.5"/>
<polygon fill="#191970" stroke="#191970" points="306.0798,-199.0001 296.0798,-202.5 306.0797,-206.0001 306.0798,-199.0001"/>
</g>
<!-- Node53&#45;&gt;Node44 -->
<g id="edge26" class="edge">
<title>Node53&#45;&gt;Node44</title>
<path fill="none" stroke="#191970" d="M463.8049,-191.0148C526.9748,-180.2208 620.2059,-164.2902 677.9613,-154.4214"/>
<polygon fill="#191970" stroke="#191970" points="463.2023,-187.567 453.9347,-192.7014 464.3814,-194.467 463.2023,-187.567"/>
</g>
<!-- Node54 -->
<g id="node21" class="node">
<title>Node54</title>
<g id="a_node21"><a xlink:href="classIocgns_1_1ParallelDatabaseIO.html#a9d91edcb11e439ea07b5bcfa8e5b99ac" target="_top" xlink:title="Iocgns::ParallelDatabase\lIO::write_meta_data">
<polygon fill="#ffffff" stroke="#000000" points="497.2939,-114.5 497.2939,-142.5 624.4707,-142.5 624.4707,-114.5 497.2939,-114.5"/>
<text text-anchor="start" x="505.2939" y="-130.5" font-family="Helvetica,sans-Serif" font-size="10.00" fill="#000000">Iocgns::ParallelDatabase</text>
<text text-anchor="middle" x="560.8823" y="-120.5" font-family="Helvetica,sans-Serif" font-size="10.00" fill="#000000">IO::write_meta_data</text>
</a>
</g>
</g>
<!-- Node53&#45;&gt;Node54 -->
<g id="edge27" class="edge">
<title>Node53&#45;&gt;Node54</title>
<path fill="none" stroke="#191970" d="M448.8041,-184.7896C453.0645,-183.0876 457.274,-181.316 461.2939,-179.5 477.9742,-171.9646 481.062,-167.9578 497.2939,-159.5 508.2946,-153.768 520.5129,-147.7336 531.2758,-142.5276"/>
<polygon fill="#191970" stroke="#191970" points="447.5224,-181.5325 439.45,-188.3946 450.0397,-188.0642 447.5224,-181.5325"/>
</g>
<!-- Node55 -->
<g id="node22" class="node">
<title>Node55</title>
<g id="a_node22"><a xlink:href="classIocgns_1_1ParallelDatabaseIO.html#a4741b1b0dd5ec3b91bfef5292ca18ecf" target="_top" xlink:title="Iocgns::ParallelDatabase\lIO::end__">
<polygon fill="#ffffff" stroke="#000000" points="666.584,-84.5 666.584,-112.5 793.7607,-112.5 793.7607,-84.5 666.584,-84.5"/>
<text text-anchor="start" x="674.584" y="-100.5" font-family="Helvetica,sans-Serif" font-size="10.00" fill="#000000">Iocgns::ParallelDatabase</text>
<text text-anchor="middle" x="730.1724" y="-90.5" font-family="Helvetica,sans-Serif" font-size="10.00" fill="#000000">IO::end__</text>
</a>
</g>
</g>
<!-- Node54&#45;&gt;Node55 -->
<g id="edge28" class="edge">
<title>Node54&#45;&gt;Node55</title>
<path fill="none" stroke="#191970" d="M634.8592,-115.3905C645.3575,-113.5301 656.0782,-111.6303 666.3614,-109.808"/>
<polygon fill="#191970" stroke="#191970" points="634.1195,-111.967 624.8836,-117.1583 635.341,-118.8596 634.1195,-111.967"/>
</g>
<!-- Node57 -->
<g id="node24" class="node">
<title>Node57</title>
<g id="a_node24"><a xlink:href="classIofx_1_1DatabaseIO.html#a09acdec1fe9c955329437c07617d33ca" target="_top" xlink:title="Iofx::DatabaseIO::open\l_input_file">
<polygon fill="#ffffff" stroke="#000000" points="337.1689,-94.5 337.1689,-122.5 456.0107,-122.5 456.0107,-94.5 337.1689,-94.5"/>
<text text-anchor="start" x="345.1689" y="-110.5" font-family="Helvetica,sans-Serif" font-size="10.00" fill="#000000">Iofx::DatabaseIO::open</text>
<text text-anchor="middle" x="396.5898" y="-100.5" font-family="Helvetica,sans-Serif" font-size="10.00" fill="#000000">_input_file</text>
</a>
</g>
</g>
<!-- Node56&#45;&gt;Node57 -->
<g id="edge30" class="edge">
<title>Node56&#45;&gt;Node57</title>
<path fill="none" stroke="#191970" d="M277.3893,-138.898C298.3933,-133.5417 321.4545,-127.6607 341.6499,-122.5106"/>
<polygon fill="#191970" stroke="#191970" points="276.4093,-135.5358 267.5843,-141.3985 278.1391,-142.3188 276.4093,-135.5358"/>
</g>
<!-- Node58 -->
<g id="node25" class="node">
<title>Node58</title>
<g id="a_node25"><a xlink:href="classIofx_1_1DatabaseIO.html#a3cfa484094240eaf8eddbbcd7876f957" target="_top" xlink:title="Iofx::DatabaseIO::handle\l_output_file">
<polygon fill="#ffffff" stroke="#000000" points="333.2773,-141.5 333.2773,-169.5 459.9023,-169.5 459.9023,-141.5 333.2773,-141.5"/>
<text text-anchor="start" x="341.2773" y="-157.5" font-family="Helvetica,sans-Serif" font-size="10.00" fill="#000000">Iofx::DatabaseIO::handle</text>
<text text-anchor="middle" x="396.5898" y="-147.5" font-family="Helvetica,sans-Serif" font-size="10.00" fill="#000000">_output_file</text>
</a>
</g>
</g>
<!-- Node56&#45;&gt;Node58 -->
<g id="edge31" class="edge">
<title>Node56&#45;&gt;Node58</title>
<path fill="none" stroke="#191970" d="M284.1011,-155.5C300.2184,-155.5 317.2094,-155.5 332.9659,-155.5"/>
<polygon fill="#191970" stroke="#191970" points="283.6576,-152.0001 273.6576,-155.5 283.6575,-159.0001 283.6576,-152.0001"/>
</g>
<!-- Node60 -->
<g id="node27" class="node">
<title>Node60</title>
<g id="a_node27"><a xlink:href="classIopx_1_1DatabaseIO.html#aaef51b830dd5e404af3383f8f00a82ae" target="_top" xlink:title="Iopx::DatabaseIO::open\l_input_file">
<polygon fill="#ffffff" stroke="#000000" points="335.7773,-.5 335.7773,-28.5 457.4023,-28.5 457.4023,-.5 335.7773,-.5"/>
<text text-anchor="start" x="343.7773" y="-16.5" font-family="Helvetica,sans-Serif" font-size="10.00" fill="#000000">Iopx::DatabaseIO::open</text>
<text text-anchor="middle" x="396.5898" y="-6.5" font-family="Helvetica,sans-Serif" font-size="10.00" fill="#000000">_input_file</text>
</a>
</g>
</g>
<!-- Node59&#45;&gt;Node60 -->
<g id="edge33" class="edge">
<title>Node59&#45;&gt;Node60</title>
<path fill="none" stroke="#191970" d="M277.3893,-44.898C298.3933,-39.5417 321.4545,-33.6607 341.6499,-28.5106"/>
<polygon fill="#191970" stroke="#191970" points="276.4093,-41.5358 267.5843,-47.3985 278.1391,-48.3188 276.4093,-41.5358"/>
</g>
<!-- Node61 -->
<g id="node28" class="node">
<title>Node61</title>
<g id="a_node28"><a xlink:href="classIopx_1_1DatabaseIO.html#a1813e1dc1c3f3e15259d181c9dec0cac" target="_top" xlink:title="Iopx::DatabaseIO::handle\l_output_file">
<polygon fill="#ffffff" stroke="#000000" points="331.8857,-47.5 331.8857,-75.5 461.2939,-75.5 461.2939,-47.5 331.8857,-47.5"/>
<text text-anchor="start" x="339.8857" y="-63.5" font-family="Helvetica,sans-Serif" font-size="10.00" fill="#000000">Iopx::DatabaseIO::handle</text>
<text text-anchor="middle" x="396.5898" y="-53.5" font-family="Helvetica,sans-Serif" font-size="10.00" fill="#000000">_output_file</text>
</a>
</g>
</g>
<!-- Node59&#45;&gt;Node61 -->
<g id="edge34" class="edge">
<title>Node59&#45;&gt;Node61</title>
<path fill="none" stroke="#191970" d="M285.6217,-61.5C300.8747,-61.5 316.8462,-61.5 331.7667,-61.5"/>
<polygon fill="#191970" stroke="#191970" points="285.1985,-58.0001 275.1985,-61.5 285.1985,-65.0001 285.1985,-58.0001"/>
</g>
</g>
</svg>
