<?xml version="1.0" encoding="UTF-8" standalone="no"?>
<!DOCTYPE svg PUBLIC "-//W3C//DTD SVG 1.1//EN"
 "http://www.w3.org/Graphics/SVG/1.1/DTD/svg11.dtd">
<!-- Generated by graphviz version 2.40.1 (20161225.0304)
 -->
<!-- Title: Iocgns::ParallelDatabaseIO::openSerialDatabase__ Pages: 1 -->
<svg width="634pt" height="66pt"
 viewBox="0.00 0.00 634.17 66.00" xmlns="http://www.w3.org/2000/svg" xmlns:xlink="http://www.w3.org/1999/xlink">
<g id="graph0" class="graph" transform="scale(1 1) rotate(0) translate(4 62)">
<title>Iocgns::ParallelDatabaseIO::openSerialDatabase__</title>
<polygon fill="#ffffff" stroke="transparent" points="-4,4 -4,-62 630.165,-62 630.165,4 -4,4"/>
<!-- Node799 -->
<g id="node1" class="node">
<title>Node799</title>
<polygon fill="#bfbfbf" stroke="#000000" points="0,-29.5 0,-57.5 133.8564,-57.5 133.8564,-29.5 0,-29.5"/>
<text text-anchor="start" x="8" y="-45.5" font-family="Helvetica,sans-Serif" font-size="10.00" fill="#000000">Iocgns::ParallelDatabase</text>
<text text-anchor="middle" x="66.9282" y="-35.5" font-family="Helvetica,sans-Serif" font-size="10.00" fill="#000000">IO::openSerialDatabase__</text>
</g>
<!-- Node800 -->
<g id="node2" class="node">
<title>Node800</title>
<g id="a_node2"><a xlink:href="classIocgns_1_1ParallelDatabaseIO.html#ad21c9e3d0e832cc137bb3d21554775ce" target="_top" xlink:title="Iocgns::ParallelDatabase\lIO::get_serial_file_pointer">
<polygon fill="#ffffff" stroke="#000000" points="169.8564,-29.5 169.8564,-57.5 299.8115,-57.5 299.8115,-29.5 169.8564,-29.5"/>
<text text-anchor="start" x="177.8564" y="-45.5" font-family="Helvetica,sans-Serif" font-size="10.00" fill="#000000">Iocgns::ParallelDatabase</text>
<text text-anchor="middle" x="234.834" y="-35.5" font-family="Helvetica,sans-Serif" font-size="10.00" fill="#000000">IO::get_serial_file_pointer</text>
</a>
</g>
</g>
<!-- Node799&#45;&gt;Node800 -->
<g id="edge1" class="edge">
<title>Node799&#45;&gt;Node800</title>
<path fill="none" stroke="#191970" d="M144.4707,-43.5C152.9003,-43.5 161.4165,-43.5 169.6769,-43.5"/>
<polygon fill="#191970" stroke="#191970" points="144.2545,-40.0001 134.2545,-43.5 144.2544,-47.0001 144.2545,-40.0001"/>
</g>
<!-- Node801 -->
<g id="node3" class="node">
<title>Node801</title>
<g id="a_node3"><a xlink:href="classIocgns_1_1ParallelDatabaseIO.html#ac4401b921f83ec0976dd53675e80d2c8" target="_top" xlink:title="Iocgns::ParallelDatabase\lIO::read_meta_data__">
<polygon fill="#ffffff" stroke="#000000" points="498.9883,-29.5 498.9883,-57.5 626.165,-57.5 626.165,-29.5 498.9883,-29.5"/>
<text text-anchor="start" x="506.9883" y="-45.5" font-family="Helvetica,sans-Serif" font-size="10.00" fill="#000000">Iocgns::ParallelDatabase</text>
<text text-anchor="middle" x="562.5767" y="-35.5" font-family="Helvetica,sans-Serif" font-size="10.00" fill="#000000">IO::read_meta_data__</text>
</a>
</g>
</g>
<!-- Node800&#45;&gt;Node801 -->
<g id="edge2" class="edge">
<title>Node800&#45;&gt;Node801</title>
<path fill="none" stroke="#191970" d="M310.1203,-47.6385C318.7815,-47.9927 327.4877,-48.294 335.8115,-48.5 392.3172,-49.8981 406.4831,-49.9176 462.9883,-48.5 474.5833,-48.2091 486.9305,-47.728 498.842,-47.1762"/>
<polygon fill="#191970" stroke="#191970" points="310.1412,-44.1362 299.9993,-47.2008 309.8387,-51.1297 310.1412,-44.1362"/>
</g>
<!-- Node802 -->
<g id="node4" class="node">
<title>Node802</title>
<g id="a_node4"><a xlink:href="classIocgns_1_1ParallelDatabaseIO.html#add1a71d7365d10930987be82a1852efc" target="_top" xlink:title="Iocgns::ParallelDatabase\lIO::handle_structured\l_blocks">
<polygon fill="#ffffff" stroke="#000000" points="335.8115,-.5 335.8115,-38.5 462.9883,-38.5 462.9883,-.5 335.8115,-.5"/>
<text text-anchor="start" x="343.8115" y="-26.5" font-family="Helvetica,sans-Serif" font-size="10.00" fill="#000000">Iocgns::ParallelDatabase</text>
<text text-anchor="start" x="343.8115" y="-16.5" font-family="Helvetica,sans-Serif" font-size="10.00" fill="#000000">IO::handle_structured</text>
<text text-anchor="middle" x="399.3999" y="-6.5" font-family="Helvetica,sans-Serif" font-size="10.00" fill="#000000">_blocks</text>
</a>
</g>
</g>
<!-- Node800&#45;&gt;Node802 -->
<g id="edge3" class="edge">
<title>Node800&#45;&gt;Node802</title>
<path fill="none" stroke="#191970" d="M309.8993,-32.5526C318.4995,-31.2984 327.2058,-30.0287 335.6383,-28.7989"/>
<polygon fill="#191970" stroke="#191970" points="309.265,-29.108 299.8748,-34.0146 310.2752,-36.0347 309.265,-29.108"/>
</g>
<!-- Node802&#45;&gt;Node801 -->
<g id="edge4" class="edge">
<title>Node802&#45;&gt;Node801</title>
<path fill="none" stroke="#191970" d="M473.5897,-30.4118C481.9869,-31.6469 490.4896,-32.8974 498.7378,-34.1106"/>
<polygon fill="#191970" stroke="#191970" points="473.8262,-26.909 463.4233,-28.9166 472.8076,-33.8345 473.8262,-26.909"/>
</g>
</g>
</svg>
