<?xml version="1.0" encoding="UTF-8" standalone="no"?>
<!DOCTYPE svg PUBLIC "-//W3C//DTD SVG 1.1//EN"
 "http://www.w3.org/Graphics/SVG/1.1/DTD/svg11.dtd">
<!-- Generated by graphviz version 2.40.1 (20161225.0304)
 -->
<!-- Title: Ioss::Tet14::edge_type Pages: 1 -->
<svg width="743pt" height="115pt"
 viewBox="0.00 0.00 743.41 115.00" xmlns="http://www.w3.org/2000/svg" xmlns:xlink="http://www.w3.org/1999/xlink">
<g id="graph0" class="graph" transform="scale(1 1) rotate(0) translate(4 111)">
<title>Ioss::Tet14::edge_type</title>
<polygon fill="#ffffff" stroke="transparent" points="-4,4 -4,-111 739.4063,-111 739.4063,4 -4,4"/>
<!-- Node15 -->
<g id="node1" class="node">
<title>Node15</title>
<polygon fill="#bfbfbf" stroke="#000000" points="0,-18.5 0,-36.5 116.625,-36.5 116.625,-18.5 0,-18.5"/>
<text text-anchor="middle" x="58.3125" y="-24.5" font-family="Helvetica,sans-Serif" font-size="10.00" fill="#000000">Ioss::Tet14::edge_type</text>
</g>
<!-- Node16 -->
<g id="node2" class="node">
<title>Node16</title>
<g id="a_node2"><a xlink:href="classIoss_1_1ElementTopology.html#a30988fc57eeb0274470f1f8622dd0322" target="_top" xlink:title="Ioss::ElementTopology\l::factory">
<polygon fill="#ffffff" stroke="#000000" points="152.625,-13.5 152.625,-41.5 269.2354,-41.5 269.2354,-13.5 152.625,-13.5"/>
<text text-anchor="start" x="160.625" y="-29.5" font-family="Helvetica,sans-Serif" font-size="10.00" fill="#000000">Ioss::ElementTopology</text>
<text text-anchor="middle" x="210.9302" y="-19.5" font-family="Helvetica,sans-Serif" font-size="10.00" fill="#000000">::factory</text>
</a>
</g>
</g>
<!-- Node15&#45;&gt;Node16 -->
<g id="edge1" class="edge">
<title>Node15&#45;&gt;Node16</title>
<path fill="none" stroke="#191970" d="M116.882,-27.5C125.1889,-27.5 133.7927,-27.5 142.2693,-27.5"/>
<polygon fill="#191970" stroke="#191970" points="142.5174,-31.0001 152.5174,-27.5 142.5174,-24.0001 142.5174,-31.0001"/>
</g>
<!-- Node17 -->
<g id="node3" class="node">
<title>Node17</title>
<g id="a_node3"><a xlink:href="classIoss_1_1Utils.html#a48106bb99507951b4655783fe6ceb0f8" target="_top" xlink:title="Convert a string to lower case. ">
<polygon fill="#ffffff" stroke="#000000" points="313.8608,-37.5 313.8608,-55.5 423.7769,-55.5 423.7769,-37.5 313.8608,-37.5"/>
<text text-anchor="middle" x="368.8188" y="-43.5" font-family="Helvetica,sans-Serif" font-size="10.00" fill="#000000">Ioss::Utils::lowercase</text>
</a>
</g>
</g>
<!-- Node16&#45;&gt;Node17 -->
<g id="edge2" class="edge">
<title>Node16&#45;&gt;Node17</title>
<path fill="none" stroke="#191970" d="M269.2735,-34.5209C280.552,-35.8781 292.4336,-37.308 303.9067,-38.6886"/>
<polygon fill="#191970" stroke="#191970" points="303.5119,-42.1663 313.8585,-39.8862 304.3483,-35.2164 303.5119,-42.1663"/>
</g>
<!-- Node22 -->
<g id="node8" class="node">
<title>Node22</title>
<g id="a_node8"><a xlink:href="classIoss_1_1Super.html#a9b09de0d9163a986a914a3ad47b7a116" target="_top" xlink:title="Ioss::Super::make_super">
<polygon fill="#ffffff" stroke="#000000" points="305.2354,-.5 305.2354,-18.5 432.4023,-18.5 432.4023,-.5 305.2354,-.5"/>
<text text-anchor="middle" x="368.8188" y="-6.5" font-family="Helvetica,sans-Serif" font-size="10.00" fill="#000000">Ioss::Super::make_super</text>
</a>
</g>
</g>
<!-- Node16&#45;&gt;Node22 -->
<g id="edge7" class="edge">
<title>Node16&#45;&gt;Node22</title>
<path fill="none" stroke="#191970" d="M269.2735,-20.8486C277.6709,-19.8913 286.4027,-18.8958 295.0513,-17.9098"/>
<polygon fill="#191970" stroke="#191970" points="295.6016,-21.3698 305.1408,-16.7596 294.8086,-14.4149 295.6016,-21.3698"/>
</g>
<!-- Node18 -->
<g id="node4" class="node">
<title>Node18</title>
<g id="a_node4"><a xlink:href="namespaceanonymous__namespace_02io__info_8C_03.html#ac76aa36231a3291b803cc8e620fce319" target="_top" xlink:title="anonymous_namespace\l\{io_info::C\}::name">
<polygon fill="#ffffff" stroke="#000000" points="468.4023,-55.5 468.4023,-83.5 593.3623,-83.5 593.3623,-55.5 468.4023,-55.5"/>
<text text-anchor="start" x="476.4023" y="-71.5" font-family="Helvetica,sans-Serif" font-size="10.00" fill="#000000">anonymous_namespace</text>
<text text-anchor="middle" x="530.8823" y="-61.5" font-family="Helvetica,sans-Serif" font-size="10.00" fill="#000000">{io_info::C}::name</text>
</a>
</g>
</g>
<!-- Node17&#45;&gt;Node18 -->
<g id="edge3" class="edge">
<title>Node17&#45;&gt;Node18</title>
<path fill="none" stroke="#191970" d="M424.1386,-54.351C435.1314,-55.9111 446.8286,-57.5711 458.2975,-59.1988"/>
<polygon fill="#191970" stroke="#191970" points="457.9015,-62.6776 468.2941,-60.6175 458.8851,-55.747 457.9015,-62.6776"/>
</g>
<!-- Node21 -->
<g id="node7" class="node">
<title>Node21</title>
<g id="a_node7"><a xlink:href="namespaceanonymous__namespace_02Ioss__Utils_8C_03.html#a0a31af75815b9ec3b66f27bbb6846ac8" target="_top" xlink:title="anonymous_namespace\l\{Ioss_Utils::C\}::to_lower">
<polygon fill="#ffffff" stroke="#000000" points="468.4023,-8.5 468.4023,-36.5 593.3623,-36.5 593.3623,-8.5 468.4023,-8.5"/>
<text text-anchor="start" x="476.4023" y="-24.5" font-family="Helvetica,sans-Serif" font-size="10.00" fill="#000000">anonymous_namespace</text>
<text text-anchor="middle" x="530.8823" y="-14.5" font-family="Helvetica,sans-Serif" font-size="10.00" fill="#000000">{Ioss_Utils::C}::to_lower</text>
</a>
</g>
</g>
<!-- Node17&#45;&gt;Node21 -->
<g id="edge6" class="edge">
<title>Node17&#45;&gt;Node21</title>
<path fill="none" stroke="#191970" d="M424.1386,-38.3077C435.1314,-36.6798 446.8286,-34.9475 458.2975,-33.2491"/>
<polygon fill="#191970" stroke="#191970" points="458.9147,-36.6959 468.2941,-31.7687 457.8892,-29.7715 458.9147,-36.6959"/>
</g>
<!-- Node19 -->
<g id="node5" class="node">
<title>Node19</title>
<g id="a_node5"><a xlink:href="classIoss_1_1GroupingEntity.html#adf92c4256dc89b729f4492642bc4d745" target="_top" xlink:title="Get the name of the particular type of entity. ">
<polygon fill="#ffffff" stroke="#000000" points="629.3623,-78.5 629.3623,-106.5 735.4063,-106.5 735.4063,-78.5 629.3623,-78.5"/>
<text text-anchor="start" x="637.3623" y="-94.5" font-family="Helvetica,sans-Serif" font-size="10.00" fill="#000000">Ioss::GroupingEntity</text>
<text text-anchor="middle" x="682.3843" y="-84.5" font-family="Helvetica,sans-Serif" font-size="10.00" fill="#000000">::type_string</text>
</a>
</g>
</g>
<!-- Node18&#45;&gt;Node19 -->
<g id="edge4" class="edge">
<title>Node18&#45;&gt;Node19</title>
<path fill="none" stroke="#191970" d="M593.3787,-78.9878C601.9321,-80.2863 610.7182,-81.6201 619.2823,-82.9203"/>
<polygon fill="#191970" stroke="#191970" points="618.7946,-86.3863 629.2067,-84.4269 619.8453,-79.4656 618.7946,-86.3863"/>
</g>
<!-- Node20 -->
<g id="node6" class="node">
<title>Node20</title>
<g id="a_node6"><a xlink:href="classIoss_1_1GroupingEntity.html#a50d4053f49c8c3205e05d939fdc9fbc5" target="_top" xlink:title="Get name of entity. ">
<polygon fill="#ffffff" stroke="#000000" points="629.3623,-31.5 629.3623,-59.5 735.4063,-59.5 735.4063,-31.5 629.3623,-31.5"/>
<text text-anchor="start" x="637.3623" y="-47.5" font-family="Helvetica,sans-Serif" font-size="10.00" fill="#000000">Ioss::GroupingEntity</text>
<text text-anchor="middle" x="682.3843" y="-37.5" font-family="Helvetica,sans-Serif" font-size="10.00" fill="#000000">::name</text>
</a>
</g>
</g>
<!-- Node18&#45;&gt;Node20 -->
<g id="edge5" class="edge">
<title>Node18&#45;&gt;Node20</title>
<path fill="none" stroke="#191970" d="M593.3787,-59.5997C601.9321,-58.2447 610.7182,-56.8529 619.2823,-55.4962"/>
<polygon fill="#191970" stroke="#191970" points="619.8775,-58.9457 629.2067,-53.9241 618.7822,-52.0319 619.8775,-58.9457"/>
</g>
</g>
</svg>
