<?xml version="1.0" encoding="UTF-8" standalone="no"?>
<!DOCTYPE svg PUBLIC "-//W3C//DTD SVG 1.1//EN"
 "http://www.w3.org/Graphics/SVG/1.1/DTD/svg11.dtd">
<!-- Generated by graphviz version 2.40.1 (20161225.0304)
 -->
<!-- Title: Ioss::ParallelUtils::get_environment Pages: 1 -->
<svg width="407pt" height="107pt"
 viewBox="0.00 0.00 407.05 107.00" xmlns="http://www.w3.org/2000/svg" xmlns:xlink="http://www.w3.org/1999/xlink">
<g id="graph0" class="graph" transform="scale(1 1) rotate(0) translate(4 103)">
<title>Ioss::ParallelUtils::get_environment</title>
<polygon fill="#ffffff" stroke="transparent" points="-4,4 -4,-103 403.0527,-103 403.0527,4 -4,4"/>
<!-- Node241 -->
<g id="node1" class="node">
<title>Node241</title>
<polygon fill="#bfbfbf" stroke="#000000" points="0,-46.5 0,-74.5 96.0488,-74.5 96.0488,-46.5 0,-46.5"/>
<text text-anchor="start" x="8" y="-62.5" font-family="Helvetica,sans-Serif" font-size="10.00" fill="#000000">Ioss::ParallelUtils</text>
<text text-anchor="middle" x="48.0244" y="-52.5" font-family="Helvetica,sans-Serif" font-size="10.00" fill="#000000">::get_environment</text>
</g>
<!-- Node242 -->
<g id="node2" class="node">
<title>Node242</title>
<g id="a_node2"><a xlink:href="classIoss_1_1ParallelUtils.html#aaa898869534e6938d6314ffd57663c52" target="_top" xlink:title="Ioss::ParallelUtils\l::parallel_rank">
<polygon fill="#ffffff" stroke="#000000" points="148.1841,-70.5 148.1841,-98.5 240.8735,-98.5 240.8735,-70.5 148.1841,-70.5"/>
<text text-anchor="start" x="156.1841" y="-86.5" font-family="Helvetica,sans-Serif" font-size="10.00" fill="#000000">Ioss::ParallelUtils</text>
<text text-anchor="middle" x="194.5288" y="-76.5" font-family="Helvetica,sans-Serif" font-size="10.00" fill="#000000">::parallel_rank</text>
</a>
</g>
</g>
<!-- Node241&#45;&gt;Node242 -->
<g id="edge1" class="edge">
<title>Node241&#45;&gt;Node242</title>
<path fill="none" stroke="#191970" d="M96.4015,-68.425C109.552,-70.5793 123.9162,-72.9324 137.4973,-75.1572"/>
<polygon fill="#191970" stroke="#191970" points="137.2627,-78.6654 147.6971,-76.8281 138.3944,-71.7575 137.2627,-78.6654"/>
</g>
<!-- Node243 -->
<g id="node3" class="node">
<title>Node243</title>
<g id="a_node3"><a xlink:href="namespaceanonymous__namespace_02io__info_8C_03.html#ac76aa36231a3291b803cc8e620fce319" target="_top" xlink:title="anonymous_namespace\l\{io_info::C\}::name">
<polygon fill="#ffffff" stroke="#000000" points="132.0488,-23.5 132.0488,-51.5 257.0088,-51.5 257.0088,-23.5 132.0488,-23.5"/>
<text text-anchor="start" x="140.0488" y="-39.5" font-family="Helvetica,sans-Serif" font-size="10.00" fill="#000000">anonymous_namespace</text>
<text text-anchor="middle" x="194.5288" y="-29.5" font-family="Helvetica,sans-Serif" font-size="10.00" fill="#000000">{io_info::C}::name</text>
</a>
</g>
</g>
<!-- Node241&#45;&gt;Node243 -->
<g id="edge2" class="edge">
<title>Node241&#45;&gt;Node243</title>
<path fill="none" stroke="#191970" d="M96.4015,-52.9052C104.5486,-51.6262 113.1616,-50.274 121.7655,-48.9232"/>
<polygon fill="#191970" stroke="#191970" points="122.4971,-52.3513 131.8333,-47.3427 121.4114,-45.436 122.4971,-52.3513"/>
</g>
<!-- Node244 -->
<g id="node4" class="node">
<title>Node244</title>
<g id="a_node4"><a xlink:href="classIoss_1_1GroupingEntity.html#adf92c4256dc89b729f4492642bc4d745" target="_top" xlink:title="Get the name of the particular type of entity. ">
<polygon fill="#ffffff" stroke="#000000" points="293.0088,-47.5 293.0088,-75.5 399.0527,-75.5 399.0527,-47.5 293.0088,-47.5"/>
<text text-anchor="start" x="301.0088" y="-63.5" font-family="Helvetica,sans-Serif" font-size="10.00" fill="#000000">Ioss::GroupingEntity</text>
<text text-anchor="middle" x="346.0308" y="-53.5" font-family="Helvetica,sans-Serif" font-size="10.00" fill="#000000">::type_string</text>
</a>
</g>
</g>
<!-- Node243&#45;&gt;Node244 -->
<g id="edge3" class="edge">
<title>Node243&#45;&gt;Node244</title>
<path fill="none" stroke="#191970" d="M257.0251,-47.4003C265.5786,-48.7553 274.3647,-50.1471 282.9288,-51.5038"/>
<polygon fill="#191970" stroke="#191970" points="282.4287,-54.9681 292.8532,-53.0759 283.524,-48.0543 282.4287,-54.9681"/>
</g>
<!-- Node245 -->
<g id="node5" class="node">
<title>Node245</title>
<g id="a_node5"><a xlink:href="classIoss_1_1GroupingEntity.html#a50d4053f49c8c3205e05d939fdc9fbc5" target="_top" xlink:title="Get name of entity. ">
<polygon fill="#ffffff" stroke="#000000" points="293.0088,-.5 293.0088,-28.5 399.0527,-28.5 399.0527,-.5 293.0088,-.5"/>
<text text-anchor="start" x="301.0088" y="-16.5" font-family="Helvetica,sans-Serif" font-size="10.00" fill="#000000">Ioss::GroupingEntity</text>
<text text-anchor="middle" x="346.0308" y="-6.5" font-family="Helvetica,sans-Serif" font-size="10.00" fill="#000000">::name</text>
</a>
</g>
</g>
<!-- Node243&#45;&gt;Node245 -->
<g id="edge4" class="edge">
<title>Node243&#45;&gt;Node245</title>
<path fill="none" stroke="#191970" d="M257.0251,-28.0122C265.5786,-26.7137 274.3647,-25.3799 282.9288,-24.0797"/>
<polygon fill="#191970" stroke="#191970" points="283.4918,-27.5344 292.8532,-22.5731 282.4411,-20.6137 283.4918,-27.5344"/>
</g>
</g>
</svg>
