<?xml version="1.0" encoding="UTF-8" standalone="no"?>
<!DOCTYPE svg PUBLIC "-//W3C//DTD SVG 1.1//EN"
 "http://www.w3.org/Graphics/SVG/1.1/DTD/svg11.dtd">
<!-- Generated by graphviz version 2.40.1 (20161225.0304)
 -->
<!-- Title: tsl::detail_robin_hash::bucket_entry_hash&lt; StoreHash &gt; Pages: 1 -->
<svg width="179pt" height="102pt"
 viewBox="0.00 0.00 178.54 102.00" xmlns="http://www.w3.org/2000/svg" xmlns:xlink="http://www.w3.org/1999/xlink">
<g id="graph0" class="graph" transform="scale(1 1) rotate(0) translate(4 98)">
<title>tsl::detail_robin_hash::bucket_entry_hash&lt; StoreHash &gt;</title>
<polygon fill="#ffffff" stroke="transparent" points="-4,4 -4,-98 174.541,-98 174.541,4 -4,4"/>
<!-- Node0 -->
<g id="node1" class="node">
<title>Node0</title>
<polygon fill="#bfbfbf" stroke="#000000" points="0,-65.5 0,-93.5 170.541,-93.5 170.541,-65.5 0,-65.5"/>
<text text-anchor="start" x="8" y="-81.5" font-family="Helvetica,sans-Serif" font-size="10.00" fill="#000000">tsl::detail_robin_hash</text>
<text text-anchor="middle" x="85.2705" y="-71.5" font-family="Helvetica,sans-Serif" font-size="10.00" fill="#000000">::bucket_entry_hash&lt; StoreHash &gt;</text>
</g>
<!-- Node1 -->
<g id="node2" class="node">
<title>Node1</title>
<g id="a_node2"><a xlink:href="classtsl_1_1detail__robin__hash_1_1bucket__entry.html" target="_top" xlink:title="tsl::detail_robin_hash\l::bucket_entry\&lt; StoreHash \&gt;">
<polygon fill="#ffffff" stroke="#000000" points="13.623,-.5 13.623,-28.5 156.918,-28.5 156.918,-.5 13.623,-.5"/>
<text text-anchor="start" x="21.623" y="-16.5" font-family="Helvetica,sans-Serif" font-size="10.00" fill="#000000">tsl::detail_robin_hash</text>
<text text-anchor="middle" x="85.2705" y="-6.5" font-family="Helvetica,sans-Serif" font-size="10.00" fill="#000000">::bucket_entry&lt; StoreHash &gt;</text>
</a>
</g>
</g>
<!-- Node0&#45;&gt;Node1 -->
<g id="edge1" class="edge">
<title>Node0&#45;&gt;Node1</title>
<path fill="none" stroke="#191970" d="M85.2705,-55.1081C85.2705,-46.1539 85.2705,-36.3227 85.2705,-28.5765"/>
<polygon fill="#191970" stroke="#191970" points="81.7706,-55.3959 85.2705,-65.396 88.7706,-55.396 81.7706,-55.3959"/>
</g>
</g>
</svg>
