<?xml version="1.0" encoding="UTF-8" standalone="no"?>
<!DOCTYPE svg PUBLIC "-//W3C//DTD SVG 1.1//EN"
 "http://www.w3.org/Graphics/SVG/1.1/DTD/svg11.dtd">
<!-- Generated by graphviz version 2.43.0 (0)
 -->
<!-- Title: Iogn::DatabaseIO Pages: 1 -->
<svg width="712pt" height="225pt"
 viewBox="0.00 0.00 711.84 225.00" xmlns="http://www.w3.org/2000/svg" xmlns:xlink="http://www.w3.org/1999/xlink">
<g id="graph0" class="graph" transform="scale(1 1) rotate(0) translate(4 221)">
<title>Iogn::DatabaseIO</title>
<polygon fill="white" stroke="transparent" points="-4,4 -4,-221 707.84,-221 707.84,4 -4,4"/>
<!-- Node1 -->
<g id="node1" class="node">
<title>Node1</title>
<g id="a_node1"><a xlink:title=" ">
<polygon fill="#bfbfbf" stroke="black" points="495.04,-38.5 495.04,-56.5 589.43,-56.5 589.43,-38.5 495.04,-38.5"/>
<text text-anchor="middle" x="542.24" y="-44.5" font-family="Helvetica,sans-Serif" font-size="10.00">Iogn::DatabaseIO</text>
</a>
</g>
</g>
<!-- Node2 -->
<g id="node2" class="node">
<title>Node2</title>
<g id="a_node2"><a xlink:href="classIoss_1_1DatabaseIO.html" target="_top" xlink:title="An input or output Database.">
<polygon fill="white" stroke="black" points="264.06,-73.5 264.06,-91.5 357.32,-91.5 357.32,-73.5 264.06,-73.5"/>
<text text-anchor="middle" x="310.69" y="-79.5" font-family="Helvetica,sans-Serif" font-size="10.00">Ioss::DatabaseIO</text>
</a>
</g>
</g>
<!-- Node2&#45;&gt;Node1 -->
<g id="edge1" class="edge">
<title>Node2&#45;&gt;Node1</title>
<path fill="none" stroke="midnightblue" d="M367.61,-76.06C398.28,-72.3 436.92,-67.18 471.21,-61.5 480.02,-60.04 489.41,-58.3 498.36,-56.54"/>
<polygon fill="midnightblue" stroke="midnightblue" points="367.04,-72.6 357.54,-77.28 367.88,-79.55 367.04,-72.6"/>
</g>
<!-- Node4 -->
<g id="node4" class="node">
<title>Node4</title>
<g id="a_node4"><a xlink:href="classIoss_1_1GroupingEntity.html" target="_top" xlink:title="Base class for all &#39;grouping&#39; entities. The following derived classes are typical:">
<polygon fill="white" stroke="black" points="489.21,-142.5 489.21,-160.5 595.26,-160.5 595.26,-142.5 489.21,-142.5"/>
<text text-anchor="middle" x="542.24" y="-148.5" font-family="Helvetica,sans-Serif" font-size="10.00">Ioss::GroupingEntity</text>
</a>
</g>
</g>
<!-- Node2&#45;&gt;Node4 -->
<g id="edge4" class="edge">
<title>Node2&#45;&gt;Node4</title>
<path fill="none" stroke="#9a32cd" stroke-dasharray="5,2" d="M336.78,-96.25C350.68,-103.4 368.45,-111.82 385.05,-117.5 418.92,-129.09 458.32,-137.63 489.07,-143.26"/>
<polygon fill="#9a32cd" stroke="#9a32cd" points="338.32,-93.1 327.84,-91.54 335.06,-99.3 338.32,-93.1"/>
<text text-anchor="middle" x="428.13" y="-140.5" font-family="Helvetica,sans-Serif" font-size="10.00"> database_</text>
</g>
<!-- Node3 -->
<g id="node3" class="node">
<title>Node3</title>
<g id="a_node3"><a xlink:href="classIoss_1_1Region.html" target="_top" xlink:title="A grouping entity that contains other grouping entities.">
<polygon fill="white" stroke="black" points="632.26,-106.5 632.26,-124.5 703.84,-124.5 703.84,-106.5 632.26,-106.5"/>
<text text-anchor="middle" x="668.05" y="-112.5" font-family="Helvetica,sans-Serif" font-size="10.00">Ioss::Region</text>
</a>
</g>
</g>
<!-- Node3&#45;&gt;Node2 -->
<g id="edge2" class="edge">
<title>Node3&#45;&gt;Node2</title>
<path fill="none" stroke="#9a32cd" stroke-dasharray="5,2" d="M622.2,-111.33C554.24,-105.02 425.89,-93.1 357.42,-86.75"/>
<polygon fill="#9a32cd" stroke="#9a32cd" points="621.89,-114.82 632.17,-112.26 622.53,-107.85 621.89,-114.82"/>
<text text-anchor="middle" x="542.24" y="-110.5" font-family="Helvetica,sans-Serif" font-size="10.00"> region_</text>
</g>
<!-- Node4&#45;&gt;Node3 -->
<g id="edge3" class="edge">
<title>Node4&#45;&gt;Node3</title>
<path fill="none" stroke="midnightblue" d="M584.55,-139.49C601.28,-134.62 620.28,-129.1 635.82,-124.58"/>
<polygon fill="midnightblue" stroke="midnightblue" points="583.11,-136.26 574.48,-142.42 585.06,-142.98 583.11,-136.26"/>
</g>
<!-- Node5 -->
<g id="node5" class="node">
<title>Node5</title>
<g id="a_node5"><a xlink:href="classIoss_1_1FieldManager.html" target="_top" xlink:title="A collection of Ioss::Field objects.">
<polygon fill="white" stroke="black" points="260.17,-198.5 260.17,-216.5 361.21,-216.5 361.21,-198.5 260.17,-198.5"/>
<text text-anchor="middle" x="310.69" y="-204.5" font-family="Helvetica,sans-Serif" font-size="10.00">Ioss::FieldManager</text>
</a>
</g>
</g>
<!-- Node5&#45;&gt;Node4 -->
<g id="edge5" class="edge">
<title>Node5&#45;&gt;Node4</title>
<path fill="none" stroke="#9a32cd" stroke-dasharray="5,2" d="M371.35,-202.52C401.69,-198.99 438.9,-193.11 471.21,-183.5 490.3,-177.82 510.89,-167.92 524.77,-160.62"/>
<polygon fill="#9a32cd" stroke="#9a32cd" points="370.89,-199.05 361.34,-203.63 371.66,-206.01 370.89,-199.05"/>
<text text-anchor="middle" x="428.13" y="-202.5" font-family="Helvetica,sans-Serif" font-size="10.00"> fields</text>
</g>
<!-- Node6 -->
<g id="node6" class="node">
<title>Node6</title>
<g id="a_node6"><a xlink:href="classIoss_1_1PropertyManager.html" target="_top" xlink:title="A collection of Ioss::Property objects.">
<polygon fill="white" stroke="black" points="0,-147.5 0,-165.5 117.16,-165.5 117.16,-147.5 0,-147.5"/>
<text text-anchor="middle" x="58.58" y="-153.5" font-family="Helvetica,sans-Serif" font-size="10.00">Ioss::PropertyManager</text>
</a>
</g>
</g>
<!-- Node6&#45;&gt;Node2 -->
<g id="edge9" class="edge">
<title>Node6&#45;&gt;Node2</title>
<path fill="none" stroke="#9a32cd" stroke-dasharray="5,2" d="M126.67,-145.79C167.83,-138.8 216.35,-129.67 236.32,-122.5 258.44,-114.56 281.95,-100.65 296.23,-91.51"/>
<polygon fill="#9a32cd" stroke="#9a32cd" points="125.94,-142.37 116.66,-147.48 127.1,-149.27 125.94,-142.37"/>
<text text-anchor="middle" x="185.74" y="-145.5" font-family="Helvetica,sans-Serif" font-size="10.00"> properties</text>
</g>
<!-- Node6&#45;&gt;Node4 -->
<g id="edge6" class="edge">
<title>Node6&#45;&gt;Node4</title>
<path fill="none" stroke="#9a32cd" stroke-dasharray="5,2" d="M127.69,-156.23C160.52,-156.07 200.47,-155.83 236.32,-155.5 340.72,-154.54 366.82,-153.91 471.21,-152.5 476.93,-152.42 482.9,-152.34 488.85,-152.26"/>
<polygon fill="#9a32cd" stroke="#9a32cd" points="127.27,-152.73 117.29,-156.28 127.31,-159.73 127.27,-152.73"/>
<text text-anchor="middle" x="310.69" y="-156.5" font-family="Helvetica,sans-Serif" font-size="10.00"> properties</text>
</g>
<!-- Node7 -->
<g id="node7" class="node">
<title>Node7</title>
<g id="a_node7"><a xlink:href="classIoss_1_1Map.html" target="_top" xlink:title=" ">
<polygon fill="white" stroke="black" points="28.9,-74.5 28.9,-92.5 88.25,-92.5 88.25,-74.5 28.9,-74.5"/>
<text text-anchor="middle" x="58.58" y="-80.5" font-family="Helvetica,sans-Serif" font-size="10.00">Ioss::Map</text>
</a>
</g>
</g>
<!-- Node7&#45;&gt;Node2 -->
<g id="edge7" class="edge">
<title>Node7&#45;&gt;Node2</title>
<path fill="none" stroke="#9a32cd" stroke-dasharray="5,2" d="M98.31,-82.89C110.14,-82.73 123.18,-82.58 135.16,-82.5 178.79,-82.21 228.56,-82.25 263.75,-82.33"/>
<polygon fill="#9a32cd" stroke="#9a32cd" points="98.24,-79.39 88.29,-83.03 98.34,-86.39 98.24,-79.39"/>
<text text-anchor="middle" x="185.74" y="-114.5" font-family="Helvetica,sans-Serif" font-size="10.00"> nodeMap</text>
<text text-anchor="middle" x="185.74" y="-104.5" font-family="Helvetica,sans-Serif" font-size="10.00">elemMap</text>
<text text-anchor="middle" x="185.74" y="-94.5" font-family="Helvetica,sans-Serif" font-size="10.00">faceMap</text>
<text text-anchor="middle" x="185.74" y="-84.5" font-family="Helvetica,sans-Serif" font-size="10.00">edgeMap</text>
</g>
<!-- Node8 -->
<g id="node8" class="node">
<title>Node8</title>
<g id="a_node8"><a xlink:href="classIoss_1_1ParallelUtils.html" target="_top" xlink:title=" ">
<polygon fill="white" stroke="black" points="12.23,-37.5 12.23,-55.5 104.92,-55.5 104.92,-37.5 12.23,-37.5"/>
<text text-anchor="middle" x="58.58" y="-43.5" font-family="Helvetica,sans-Serif" font-size="10.00">Ioss::ParallelUtils</text>
</a>
</g>
</g>
<!-- Node8&#45;&gt;Node2 -->
<g id="edge8" class="edge">
<title>Node8&#45;&gt;Node2</title>
<path fill="none" stroke="#9a32cd" stroke-dasharray="5,2" d="M115.13,-51.9C150.03,-55.59 195.93,-60.98 236.32,-67.5 246.85,-69.2 258.16,-71.35 268.67,-73.48"/>
<polygon fill="#9a32cd" stroke="#9a32cd" points="115.44,-48.41 105.13,-50.86 114.71,-55.37 115.44,-48.41"/>
<text text-anchor="middle" x="185.74" y="-69.5" font-family="Helvetica,sans-Serif" font-size="10.00"> util_</text>
</g>
<!-- Node9 -->
<g id="node9" class="node">
<title>Node9</title>
<g id="a_node9"><a xlink:href="classIoss_1_1ElementTopology.html" target="_top" xlink:title="Represents an element topology.">
<polygon fill="white" stroke="black" points="0.27,-0.5 0.27,-18.5 116.88,-18.5 116.88,-0.5 0.27,-0.5"/>
<text text-anchor="middle" x="58.58" y="-6.5" font-family="Helvetica,sans-Serif" font-size="10.00">Ioss::ElementTopology</text>
</a>
</g>
</g>
<!-- Node9&#45;&gt;Node2 -->
<g id="edge10" class="edge">
<title>Node9&#45;&gt;Node2</title>
<path fill="none" stroke="#9a32cd" stroke-dasharray="5,2" d="M127.32,-9.02C162.17,-11.6 203.99,-19.34 236.32,-39.5 247.94,-46.74 243.27,-56.43 254.32,-64.5 259.3,-68.14 265.05,-71.06 270.92,-73.41"/>
<polygon fill="#9a32cd" stroke="#9a32cd" points="127.42,-5.52 117.22,-8.39 126.99,-12.5 127.42,-5.52"/>
<text text-anchor="middle" x="185.74" y="-41.5" font-family="Helvetica,sans-Serif" font-size="10.00"> commonSideTopology</text>
</g>
<!-- Node10 -->
<g id="node10" class="node">
<title>Node10</title>
<g id="a_node10"><a xlink:href="classIogn_1_1GeneratedMesh.html" target="_top" xlink:title=" ">
<polygon fill="white" stroke="black" points="254.32,-36.5 254.32,-54.5 367.05,-54.5 367.05,-36.5 254.32,-36.5"/>
<text text-anchor="middle" x="310.69" y="-42.5" font-family="Helvetica,sans-Serif" font-size="10.00">Iogn::GeneratedMesh</text>
</a>
</g>
</g>
<!-- Node10&#45;&gt;Node1 -->
<g id="edge11" class="edge">
<title>Node10&#45;&gt;Node1</title>
<path fill="none" stroke="#9a32cd" stroke-dasharray="5,2" d="M377.57,-46.07C415.02,-46.4 461.01,-46.8 494.69,-47.09"/>
<polygon fill="#9a32cd" stroke="#9a32cd" points="377.29,-42.57 367.26,-45.98 377.22,-49.57 377.29,-42.57"/>
<text text-anchor="middle" x="428.13" y="-49.5" font-family="Helvetica,sans-Serif" font-size="10.00"> m_generatedMesh</text>
</g>
</g>
</svg>
