<?xml version="1.0" encoding="UTF-8" standalone="no"?>
<!DOCTYPE svg PUBLIC "-//W3C//DTD SVG 1.1//EN"
 "http://www.w3.org/Graphics/SVG/1.1/DTD/svg11.dtd">
<!-- Generated by graphviz version 2.40.1 (20161225.0304)
 -->
<!-- Title: Ioss::Map::size Pages: 1 -->
<!--zoomable 178 -->
<svg id="main" version="1.1" xmlns="http://www.w3.org/2000/svg" xmlns:xlink="http://www.w3.org/1999/xlink" xml:space="preserve" onload="init(evt)">
<style type="text/css"><![CDATA[
.edge:hover path { stroke: red; }
.edge:hover polygon { stroke: red; fill: red; }
]]></style>
<script type="text/javascript"><![CDATA[
var edges = document.getElementsByTagName('g');
if (edges && edges.length) {
  for (var i=0;i<edges.length;i++) {
    if (edges[i].id.substr(0,4)=='edge') {
      edges[i].setAttribute('class','edge');
    }
  }
}
]]></script>
        <defs>
                <circle id="rim" cx="0" cy="0" r="7"/>
                <circle id="rim2" cx="0" cy="0" r="3.5"/>
                <g id="zoomPlus">
                        <use xlink:href="#rim" fill="#404040">
                                <set attributeName="fill" to="#808080" begin="zoomplus.mouseover" end="zoomplus.mouseout"/>
                        </use>
                        <path d="M-4,0h8M0,-4v8" fill="none" stroke="white" stroke-width="1.5" pointer-events="none"/>
                </g>
                <g id="zoomMin">
                        <use xlink:href="#rim" fill="#404040">
                                <set attributeName="fill" to="#808080" begin="zoomminus.mouseover" end="zoomminus.mouseout"/>
                        </use>
                        <path d="M-4,0h8" fill="none" stroke="white" stroke-width="1.5" pointer-events="none"/>
                </g>
                <g id="dirArrow">
                        <path fill="none" stroke="white" stroke-width="1.5" d="M0,-3.0v7 M-2.5,-0.5L0,-3.0L2.5,-0.5"/>
                </g>
               <g id="resetDef">
                       <use xlink:href="#rim2" fill="#404040">
                               <set attributeName="fill" to="#808080" begin="reset.mouseover" end="reset.mouseout"/>
                       </use>
               </g>
        </defs>

<script type="text/javascript">
var viewWidth = 598;
var viewHeight = 178;
var sectionId = 'dynsection-20';
</script>
<script xlink:href="svgpan.js"/>
<svg id="graph" class="graph">
<g id="viewport">
<title>Ioss::Map::size</title>
<polygon fill="#ffffff" stroke="transparent" points="-4,4 -4,-174 594.0225,-174 594.0225,4 -4,4"/>
<!-- Node287 -->
<g id="node1" class="node">
<title>Node287</title>
<polygon fill="#bfbfbf" stroke="#000000" points="0,-73.5 0,-91.5 82.6895,-91.5 82.6895,-73.5 0,-73.5"/>
<text text-anchor="middle" x="41.3447" y="-79.5" font-family="Helvetica,sans-Serif" font-size="10.00" fill="#000000">Ioss::Map::size</text>
</g>
<!-- Node288 -->
<g id="node2" class="node">
<title>Node288</title>
<g id="a_node2"><a xlink:href="namespaceanonymous__namespace_02Iocgns__ParallelDatabaseIO_8C_03.html#aaf908b7001da19cea0d742fffe8f4a51" target="_top" xlink:title="anonymous_namespace\l\{Iocgns_ParallelDatabaseIO\l::C\}::gather_nodes_to_proc0">
<polygon fill="#ffffff" stroke="#000000" points="118.6895,-131.5 118.6895,-169.5 262.0039,-169.5 262.0039,-131.5 118.6895,-131.5"/>
<text text-anchor="start" x="126.6895" y="-157.5" font-family="Helvetica,sans-Serif" font-size="10.00" fill="#000000">anonymous_namespace</text>
<text text-anchor="start" x="126.6895" y="-147.5" font-family="Helvetica,sans-Serif" font-size="10.00" fill="#000000">{Iocgns_ParallelDatabaseIO</text>
<text text-anchor="middle" x="190.3467" y="-137.5" font-family="Helvetica,sans-Serif" font-size="10.00" fill="#000000">::C}::gather_nodes_to_proc0</text>
</a>
</g>
</g>
<!-- Node287&#45;&gt;Node288 -->
<g id="edge1" class="edge">
<title>Node287&#45;&gt;Node288</title>
<path fill="none" stroke="#191970" d="M66.8058,-96.5234C81.7331,-104.5282 101.0642,-114.5253 118.6895,-122.5 125.3823,-125.5282 132.5069,-128.5477 139.5688,-131.4224"/>
<polygon fill="#191970" stroke="#191970" points="68.1551,-93.2739 57.6946,-91.592 64.8231,-99.4301 68.1551,-93.2739"/>
</g>
<!-- Node291 -->
<g id="node5" class="node">
<title>Node291</title>
<g id="a_node5"><a xlink:href="classIofx_1_1DatabaseIO.html#a4feec44f7d0528efc25fc070a4242c07" target="_top" xlink:title="Iofx::DatabaseIO::get_map">
<polygon fill="#ffffff" stroke="#000000" points="122.5908,-94.5 122.5908,-112.5 258.1025,-112.5 258.1025,-94.5 122.5908,-94.5"/>
<text text-anchor="middle" x="190.3467" y="-100.5" font-family="Helvetica,sans-Serif" font-size="10.00" fill="#000000">Iofx::DatabaseIO::get_map</text>
</a>
</g>
</g>
<!-- Node287&#45;&gt;Node291 -->
<g id="edge4" class="edge">
<title>Node287&#45;&gt;Node291</title>
<path fill="none" stroke="#191970" d="M92.9585,-89.7743C103.7644,-91.2973 115.2817,-92.9205 126.4725,-94.4977"/>
<polygon fill="#191970" stroke="#191970" points="93.2407,-86.2796 82.8501,-88.3497 92.2637,-93.2111 93.2407,-86.2796"/>
</g>
<!-- Node292 -->
<g id="node6" class="node">
<title>Node292</title>
<g id="a_node6"><a xlink:href="classIogs_1_1DatabaseIO.html#a57aa8b0fb15166ceff8a7d5c90b0262f" target="_top" xlink:title="Iogs::DatabaseIO::get\l_field_internal">
<polygon fill="#ffffff" stroke="#000000" points="133.7065,-47.5 133.7065,-75.5 246.9868,-75.5 246.9868,-47.5 133.7065,-47.5"/>
<text text-anchor="start" x="141.7065" y="-63.5" font-family="Helvetica,sans-Serif" font-size="10.00" fill="#000000">Iogs::DatabaseIO::get</text>
<text text-anchor="middle" x="190.3467" y="-53.5" font-family="Helvetica,sans-Serif" font-size="10.00" fill="#000000">_field_internal</text>
</a>
</g>
</g>
<!-- Node287&#45;&gt;Node292 -->
<g id="edge5" class="edge">
<title>Node287&#45;&gt;Node292</title>
<path fill="none" stroke="#191970" d="M93.0585,-75.2116C106.107,-73.3726 120.1873,-71.3881 133.4741,-69.5155"/>
<polygon fill="#191970" stroke="#191970" points="92.2637,-71.7889 82.8501,-76.6503 93.2407,-78.7204 92.2637,-71.7889"/>
</g>
<!-- Node293 -->
<g id="node7" class="node">
<title>Node293</title>
<g id="a_node7"><a xlink:href="classIogn_1_1DatabaseIO.html#a3dcabef660dea9d0b71c964b7e6607a0" target="_top" xlink:title="Iogn::DatabaseIO::get\l_field_internal">
<polygon fill="#ffffff" stroke="#000000" points="133.4258,-.5 133.4258,-28.5 247.2676,-28.5 247.2676,-.5 133.4258,-.5"/>
<text text-anchor="start" x="141.4258" y="-16.5" font-family="Helvetica,sans-Serif" font-size="10.00" fill="#000000">Iogn::DatabaseIO::get</text>
<text text-anchor="middle" x="190.3467" y="-6.5" font-family="Helvetica,sans-Serif" font-size="10.00" fill="#000000">_field_internal</text>
</a>
</g>
</g>
<!-- Node287&#45;&gt;Node293 -->
<g id="edge6" class="edge">
<title>Node287&#45;&gt;Node293</title>
<path fill="none" stroke="#191970" d="M64.0914,-68.0019C79.1852,-58.776 99.6503,-47.007 118.6895,-38.5 126.715,-34.9141 135.4479,-31.5612 143.9683,-28.5651"/>
<polygon fill="#191970" stroke="#191970" points="62.0995,-65.1188 55.4482,-73.3657 65.7906,-71.0665 62.0995,-65.1188"/>
</g>
<!-- Node289 -->
<g id="node3" class="node">
<title>Node289</title>
<g id="a_node3"><a xlink:href="classIocgns_1_1ParallelDatabaseIO.html#a31f403c0aa7b587b3eff99a30161014b" target="_top" xlink:title="Iocgns::ParallelDatabase\lIO::write_adjacency_data">
<polygon fill="#ffffff" stroke="#000000" points="298.0039,-136.5 298.0039,-164.5 426.8457,-164.5 426.8457,-136.5 298.0039,-136.5"/>
<text text-anchor="start" x="306.0039" y="-152.5" font-family="Helvetica,sans-Serif" font-size="10.00" fill="#000000">Iocgns::ParallelDatabase</text>
<text text-anchor="middle" x="362.4248" y="-142.5" font-family="Helvetica,sans-Serif" font-size="10.00" fill="#000000">IO::write_adjacency_data</text>
</a>
</g>
</g>
<!-- Node288&#45;&gt;Node289 -->
<g id="edge2" class="edge">
<title>Node288&#45;&gt;Node289</title>
<path fill="none" stroke="#191970" d="M272.3382,-150.5C280.9053,-150.5 289.5261,-150.5 297.8597,-150.5"/>
<polygon fill="#191970" stroke="#191970" points="272.3263,-147.0001 262.3262,-150.5 272.3262,-154.0001 272.3263,-147.0001"/>
</g>
<!-- Node290 -->
<g id="node4" class="node">
<title>Node290</title>
<g id="a_node4"><a xlink:href="classIocgns_1_1ParallelDatabaseIO.html#a4741b1b0dd5ec3b91bfef5292ca18ecf" target="_top" xlink:title="Iocgns::ParallelDatabase\lIO::end__">
<polygon fill="#ffffff" stroke="#000000" points="462.8457,-136.5 462.8457,-164.5 590.0225,-164.5 590.0225,-136.5 462.8457,-136.5"/>
<text text-anchor="start" x="470.8457" y="-152.5" font-family="Helvetica,sans-Serif" font-size="10.00" fill="#000000">Iocgns::ParallelDatabase</text>
<text text-anchor="middle" x="526.4341" y="-142.5" font-family="Helvetica,sans-Serif" font-size="10.00" fill="#000000">IO::end__</text>
</a>
</g>
</g>
<!-- Node289&#45;&gt;Node290 -->
<g id="edge3" class="edge">
<title>Node289&#45;&gt;Node290</title>
<path fill="none" stroke="#191970" d="M437.4368,-150.5C445.8517,-150.5 454.3654,-150.5 462.6203,-150.5"/>
<polygon fill="#191970" stroke="#191970" points="437.2456,-147.0001 427.2456,-150.5 437.2456,-154.0001 437.2456,-147.0001"/>
</g>
</g>
</svg>
        <g id="navigator" transform="translate(0 0)" fill="#404254">
                <rect fill="#f2f5e9" fill-opacity="0.5" stroke="#606060" stroke-width=".5" x="0" y="0" width="60" height="60"/>
                <use id="zoomplus" xlink:href="#zoomPlus" x="17" y="9" onmousedown="handleZoom(evt,'in')"/>
                <use id="zoomminus" xlink:href="#zoomMin" x="42" y="9" onmousedown="handleZoom(evt,'out')"/>
                <use id="reset" xlink:href="#resetDef" x="30" y="36" onmousedown="handleReset()"/>
                <g id="arrowUp" xlink:href="#dirArrow" transform="translate(30 24)" onmousedown="handlePan(0,-1)">
                  <use xlink:href="#rim" fill="#404040">
                        <set attributeName="fill" to="#808080" begin="arrowUp.mouseover" end="arrowUp.mouseout"/>
                  </use>
                  <path fill="none" stroke="white" stroke-width="1.5" d="M0,-3.0v7 M-2.5,-0.5L0,-3.0L2.5,-0.5"/>
                </g>
                <g id="arrowRight" xlink:href="#dirArrow" transform="rotate(90) translate(36 -43)" onmousedown="handlePan(1,0)">
                  <use xlink:href="#rim" fill="#404040">
                        <set attributeName="fill" to="#808080" begin="arrowRight.mouseover" end="arrowRight.mouseout"/>
                  </use>
                  <path fill="none" stroke="white" stroke-width="1.5" d="M0,-3.0v7 M-2.5,-0.5L0,-3.0L2.5,-0.5"/>
                </g>
                <g id="arrowDown" xlink:href="#dirArrow" transform="rotate(180) translate(-30 -48)" onmousedown="handlePan(0,1)">
                  <use xlink:href="#rim" fill="#404040">
                        <set attributeName="fill" to="#808080" begin="arrowDown.mouseover" end="arrowDown.mouseout"/>
                  </use>
                  <path fill="none" stroke="white" stroke-width="1.5" d="M0,-3.0v7 M-2.5,-0.5L0,-3.0L2.5,-0.5"/>
                </g>
                <g id="arrowLeft" xlink:href="#dirArrow" transform="rotate(270) translate(-36 17)" onmousedown="handlePan(-1,0)">
                  <use xlink:href="#rim" fill="#404040">
                        <set attributeName="fill" to="#808080" begin="arrowLeft.mouseover" end="arrowLeft.mouseout"/>
                  </use>
                  <path fill="none" stroke="white" stroke-width="1.5" d="M0,-3.0v7 M-2.5,-0.5L0,-3.0L2.5,-0.5"/>
                </g>
        </g>
        <svg viewBox="0 0 15 15" width="100%" height="30px" preserveAspectRatio="xMaxYMin meet">
         <g id="arrow_out" transform="scale(0.3 0.3)">
          <a xlink:href="classIoss_1_1Map_a3912e675a8b5e995478e70d239289f80_icgraph_org.svg" target="_base">
           <rect id="button" ry="5" rx="5" y="6" x="6" height="38" width="38"
                fill="#f2f5e9" fill-opacity="0.5" stroke="#606060" stroke-width="1.0"/>
           <path id="arrow"
             d="M 11.500037,31.436501 C 11.940474,20.09759 22.043105,11.32322 32.158766,21.979434 L 37.068811,17.246167 C 37.068811,17.246167 37.088388,32 37.088388,32 L 22.160133,31.978069 C 22.160133,31.978069 26.997745,27.140456 26.997745,27.140456 C 18.528582,18.264221 13.291696,25.230495 11.500037,31.436501 z"
             style="fill:#404040;"/>
          </a>
         </g>
        </svg>
</svg>
