<?xml version="1.0" encoding="UTF-8" standalone="no"?>
<!DOCTYPE svg PUBLIC "-//W3C//DTD SVG 1.1//EN"
 "http://www.w3.org/Graphics/SVG/1.1/DTD/svg11.dtd">
<!-- Generated by graphviz version 2.40.1 (20161225.0304)
 -->
<!-- Title: Iocgns::Utils::get_step_times Pages: 1 -->
<svg width="572pt" height="102pt"
 viewBox="0.00 0.00 571.90 102.00" xmlns="http://www.w3.org/2000/svg" xmlns:xlink="http://www.w3.org/1999/xlink">
<g id="graph0" class="graph" transform="scale(1 1) rotate(0) translate(4 98)">
<title>Iocgns::Utils::get_step_times</title>
<polygon fill="#ffffff" stroke="transparent" points="-4,4 -4,-98 567.8994,-98 567.8994,4 -4,4"/>
<!-- Node274 -->
<g id="node1" class="node">
<title>Node274</title>
<polygon fill="#bfbfbf" stroke="#000000" points="0,-44.5 0,-72.5 89.9209,-72.5 89.9209,-44.5 0,-44.5"/>
<text text-anchor="start" x="8" y="-60.5" font-family="Helvetica,sans-Serif" font-size="10.00" fill="#000000">Iocgns::Utils::get</text>
<text text-anchor="middle" x="44.9604" y="-50.5" font-family="Helvetica,sans-Serif" font-size="10.00" fill="#000000">_step_times</text>
</g>
<!-- Node275 -->
<g id="node2" class="node">
<title>Node275</title>
<g id="a_node2"><a xlink:href="$classIocgns_1_1Utils.html#a34010e9b0618c248e1df20ff38800bda" xlink:title="Iocgns::Utils::cgns\l_error">
<polygon fill="#ffffff" stroke="#000000" points="137.8838,-65.5 137.8838,-93.5 235.0264,-93.5 235.0264,-65.5 137.8838,-65.5"/>
<text text-anchor="start" x="145.8838" y="-81.5" font-family="Helvetica,sans-Serif" font-size="10.00" fill="#000000">Iocgns::Utils::cgns</text>
<text text-anchor="middle" x="186.4551" y="-71.5" font-family="Helvetica,sans-Serif" font-size="10.00" fill="#000000">_error</text>
</a>
</g>
</g>
<!-- Node274&#45;&gt;Node275 -->
<g id="edge1" class="edge">
<title>Node274&#45;&gt;Node275</title>
<path fill="none" stroke="#191970" d="M90.1193,-65.2023C102.117,-66.9829 115.2494,-68.932 127.8518,-70.8024"/>
<polygon fill="#191970" stroke="#191970" points="127.4077,-74.2747 137.8133,-72.2808 128.4355,-67.3506 127.4077,-74.2747"/>
</g>
<!-- Node276 -->
<g id="node3" class="node">
<title>Node276</title>
<g id="a_node3"><a xlink:href="$classIoss_1_1Region.html#abc1e575c0f97923d57db3b0b4659ca79" xlink:title="Ioss::Region::add_state">
<polygon fill="#ffffff" stroke="#000000" points="125.9209,-28.5 125.9209,-46.5 246.9893,-46.5 246.9893,-28.5 125.9209,-28.5"/>
<text text-anchor="middle" x="186.4551" y="-34.5" font-family="Helvetica,sans-Serif" font-size="10.00" fill="#000000">Ioss::Region::add_state</text>
</a>
</g>
</g>
<!-- Node274&#45;&gt;Node276 -->
<g id="edge2" class="edge">
<title>Node274&#45;&gt;Node276</title>
<path fill="none" stroke="#191970" d="M90.1193,-51.7977C98.2576,-50.5899 106.918,-49.3045 115.581,-48.0188"/>
<polygon fill="#191970" stroke="#191970" points="116.3427,-51.4442 125.7205,-46.5139 115.315,-44.52 116.3427,-51.4442"/>
</g>
<!-- Node277 -->
<g id="node4" class="node">
<title>Node277</title>
<g id="a_node4"><a xlink:href="$classIoss_1_1Region.html#aecc5d7ede05ee08ad1080daadfd78bd3" xlink:title="Add a state for a specified time. ">
<polygon fill="#ffffff" stroke="#000000" points="282.9893,-28.5 282.9893,-46.5 415.1807,-46.5 415.1807,-28.5 282.9893,-28.5"/>
<text text-anchor="middle" x="349.085" y="-34.5" font-family="Helvetica,sans-Serif" font-size="10.00" fill="#000000">Ioss::Region::add_state__</text>
</a>
</g>
</g>
<!-- Node276&#45;&gt;Node277 -->
<g id="edge3" class="edge">
<title>Node276&#45;&gt;Node277</title>
<path fill="none" stroke="#191970" d="M247.0124,-37.5C255.3857,-37.5 264.0737,-37.5 272.6879,-37.5"/>
<polygon fill="#191970" stroke="#191970" points="272.743,-41.0001 282.7429,-37.5 272.7429,-34.0001 272.743,-41.0001"/>
</g>
<!-- Node278 -->
<g id="node5" class="node">
<title>Node278</title>
<g id="a_node5"><a xlink:href="$classIoss_1_1GroupingEntity.html#a318cd5cde65370bb9c83f8ca223f8481" xlink:title="Ioss::GroupingEntity\l::get_database">
<polygon fill="#ffffff" stroke="#000000" points="454.5181,-47.5 454.5181,-75.5 560.562,-75.5 560.562,-47.5 454.5181,-47.5"/>
<text text-anchor="start" x="462.5181" y="-63.5" font-family="Helvetica,sans-Serif" font-size="10.00" fill="#000000">Ioss::GroupingEntity</text>
<text text-anchor="middle" x="507.54" y="-53.5" font-family="Helvetica,sans-Serif" font-size="10.00" fill="#000000">::get_database</text>
</a>
</g>
</g>
<!-- Node277&#45;&gt;Node278 -->
<g id="edge4" class="edge">
<title>Node277&#45;&gt;Node278</title>
<path fill="none" stroke="#191970" d="M408.5386,-46.505C420.1531,-48.2642 432.3732,-50.115 444.1111,-51.8929"/>
<polygon fill="#191970" stroke="#191970" points="443.8634,-55.3952 454.2748,-53.4323 444.9117,-48.4742 443.8634,-55.3952"/>
</g>
<!-- Node279 -->
<g id="node6" class="node">
<title>Node279</title>
<g id="a_node6"><a xlink:href="$classIoss_1_1DatabaseIO.html#a1c9ad01905e9773cd69b452a8551cbba" xlink:title="Get the file name associated with the database. ">
<polygon fill="#ffffff" stroke="#000000" points="451.1807,-.5 451.1807,-28.5 563.8994,-28.5 563.8994,-.5 451.1807,-.5"/>
<text text-anchor="start" x="459.1807" y="-16.5" font-family="Helvetica,sans-Serif" font-size="10.00" fill="#000000">Ioss::DatabaseIO::get</text>
<text text-anchor="middle" x="507.54" y="-6.5" font-family="Helvetica,sans-Serif" font-size="10.00" fill="#000000">_filename</text>
</a>
</g>
</g>
<!-- Node277&#45;&gt;Node279 -->
<g id="edge5" class="edge">
<title>Node277&#45;&gt;Node279</title>
<path fill="none" stroke="#191970" d="M411.2558,-28.4758C420.9727,-27.0654 431.0489,-25.6028 440.8616,-24.1785"/>
<polygon fill="#191970" stroke="#191970" points="441.5724,-27.6121 450.9659,-22.7118 440.5668,-20.6847 441.5724,-27.6121"/>
</g>
</g>
</svg>
