<?xml version="1.0" encoding="UTF-8" standalone="no"?>
<!DOCTYPE svg PUBLIC "-//W3C//DTD SVG 1.1//EN"
 "http://www.w3.org/Graphics/SVG/1.1/DTD/svg11.dtd">
<!-- Generated by graphviz version 2.40.1 (20161225.0304)
 -->
<!-- Title: Iopx::DecompositionDataBase::decomp_elem_offset Pages: 1 -->
<svg width="489pt" height="47pt"
 viewBox="0.00 0.00 489.31 47.00" xmlns="http://www.w3.org/2000/svg" xmlns:xlink="http://www.w3.org/1999/xlink">
<g id="graph0" class="graph" transform="scale(1 1) rotate(0) translate(4 43)">
<title>Iopx::DecompositionDataBase::decomp_elem_offset</title>
<polygon fill="#ffffff" stroke="transparent" points="-4,4 -4,-43 485.3086,-43 485.3086,4 -4,4"/>
<!-- Node24 -->
<g id="node1" class="node">
<title>Node24</title>
<polygon fill="#bfbfbf" stroke="#000000" points="0,-5.5 0,-33.5 150.5166,-33.5 150.5166,-5.5 0,-5.5"/>
<text text-anchor="start" x="8" y="-21.5" font-family="Helvetica,sans-Serif" font-size="10.00" fill="#000000">Iopx::DecompositionDataBase</text>
<text text-anchor="middle" x="75.2583" y="-11.5" font-family="Helvetica,sans-Serif" font-size="10.00" fill="#000000">::decomp_elem_offset</text>
</g>
<!-- Node25 -->
<g id="node2" class="node">
<title>Node25</title>
<g id="a_node2"><a xlink:href="namespaceanonymous__namespace_02Iopx__DecompositionData_8C_03.html#af4a9b0a3493b0549abcbc6b7c591d4b6" target="_top" xlink:title="anonymous_namespace\l\{Iopx_DecompositionData\l::C\}::zoltan_obj_list">
<polygon fill="#ffffff" stroke="#000000" points="186.5166,-.5 186.5166,-38.5 317.585,-38.5 317.585,-.5 186.5166,-.5"/>
<text text-anchor="start" x="194.5166" y="-26.5" font-family="Helvetica,sans-Serif" font-size="10.00" fill="#000000">anonymous_namespace</text>
<text text-anchor="start" x="194.5166" y="-16.5" font-family="Helvetica,sans-Serif" font-size="10.00" fill="#000000">{Iopx_DecompositionData</text>
<text text-anchor="middle" x="252.0508" y="-6.5" font-family="Helvetica,sans-Serif" font-size="10.00" fill="#000000">::C}::zoltan_obj_list</text>
</a>
</g>
</g>
<!-- Node24&#45;&gt;Node25 -->
<g id="edge1" class="edge">
<title>Node24&#45;&gt;Node25</title>
<path fill="none" stroke="#191970" d="M160.7799,-19.5C169.3571,-19.5 177.9704,-19.5 186.2964,-19.5"/>
<polygon fill="#191970" stroke="#191970" points="160.7471,-16.0001 150.747,-19.5 160.747,-23.0001 160.7471,-16.0001"/>
</g>
<!-- Node26 -->
<g id="node3" class="node">
<title>Node26</title>
<g id="a_node3"><a xlink:href="classIopx_1_1DecompositionData.html#a23f83a24a159ce6badc03aef217ab49b" target="_top" xlink:title="Iopx::DecompositionData\l::decompose_model">
<polygon fill="#ffffff" stroke="#000000" points="353.585,-5.5 353.585,-33.5 481.3086,-33.5 481.3086,-5.5 353.585,-5.5"/>
<text text-anchor="start" x="361.585" y="-21.5" font-family="Helvetica,sans-Serif" font-size="10.00" fill="#000000">Iopx::DecompositionData</text>
<text text-anchor="middle" x="417.4468" y="-11.5" font-family="Helvetica,sans-Serif" font-size="10.00" fill="#000000">::decompose_model</text>
</a>
</g>
</g>
<!-- Node25&#45;&gt;Node26 -->
<g id="edge2" class="edge">
<title>Node25&#45;&gt;Node26</title>
<path fill="none" stroke="#191970" d="M328.1446,-19.5C336.605,-19.5 345.1581,-19.5 353.4467,-19.5"/>
<polygon fill="#191970" stroke="#191970" points="327.8949,-16.0001 317.8949,-19.5 327.8949,-23.0001 327.8949,-16.0001"/>
</g>
</g>
</svg>
