<?xml version="1.0" encoding="UTF-8" standalone="no"?>
<!DOCTYPE svg PUBLIC "-//W3C//DTD SVG 1.1//EN"
 "http://www.w3.org/Graphics/SVG/1.1/DTD/svg11.dtd">
<!-- Generated by graphviz version 2.40.1 (20161225.0304)
 -->
<!-- Title: Iohb::DatabaseIO Pages: 1 -->
<!--zoomable 225 -->
<svg id="main" version="1.1" xmlns="http://www.w3.org/2000/svg" xmlns:xlink="http://www.w3.org/1999/xlink" xml:space="preserve" onload="init(evt)">
<style type="text/css"><![CDATA[
.edge:hover path { stroke: red; }
.edge:hover polygon { stroke: red; fill: red; }
]]></style>
<script type="text/javascript"><![CDATA[
var edges = document.getElementsByTagName('g');
if (edges && edges.length) {
  for (var i=0;i<edges.length;i++) {
    if (edges[i].id.substr(0,4)=='edge') {
      edges[i].setAttribute('class','edge');
    }
  }
}
]]></script>
        <defs>
                <circle id="rim" cx="0" cy="0" r="7"/>
                <circle id="rim2" cx="0" cy="0" r="3.5"/>
                <g id="zoomPlus">
                        <use xlink:href="#rim" fill="#404040">
                                <set attributeName="fill" to="#808080" begin="zoomplus.mouseover" end="zoomplus.mouseout"/>
                        </use>
                        <path d="M-4,0h8M0,-4v8" fill="none" stroke="white" stroke-width="1.5" pointer-events="none"/>
                </g>
                <g id="zoomMin">
                        <use xlink:href="#rim" fill="#404040">
                                <set attributeName="fill" to="#808080" begin="zoomminus.mouseover" end="zoomminus.mouseout"/>
                        </use>
                        <path d="M-4,0h8" fill="none" stroke="white" stroke-width="1.5" pointer-events="none"/>
                </g>
                <g id="dirArrow">
                        <path fill="none" stroke="white" stroke-width="1.5" d="M0,-3.0v7 M-2.5,-0.5L0,-3.0L2.5,-0.5"/>
                </g>
               <g id="resetDef">
                       <use xlink:href="#rim2" fill="#404040">
                               <set attributeName="fill" to="#808080" begin="reset.mouseover" end="reset.mouseout"/>
                       </use>
               </g>
        </defs>

<script type="text/javascript">
var viewWidth = 663;
var viewHeight = 225;
var sectionId = 'dynsection-1';
</script>
<script xlink:href="svgpan.js"/>
<svg id="graph" class="graph">
<g id="viewport">
<title>Iohb::DatabaseIO</title>
<polygon fill="#ffffff" stroke="transparent" points="-4,4 -4,-221 659.4805,-221 659.4805,4 -4,4"/>
<!-- Node2 -->
<g id="node1" class="node">
<title>Node2</title>
<polygon fill="#bfbfbf" stroke="#000000" points="446.6807,-46.5 446.6807,-64.5 541.0645,-64.5 541.0645,-46.5 446.6807,-46.5"/>
<text text-anchor="middle" x="493.8726" y="-52.5" font-family="Helvetica,sans-Serif" font-size="10.00" fill="#000000">Iohb::DatabaseIO</text>
</g>
<!-- Node3 -->
<g id="node2" class="node">
<title>Node3</title>
<g id="a_node2"><a xlink:href="classIoss_1_1DatabaseIO.html" target="_top" xlink:title="An input or output Database. ">
<polygon fill="#ffffff" stroke="#000000" points="258.2134,-75.5 258.2134,-93.5 351.4741,-93.5 351.4741,-75.5 258.2134,-75.5"/>
<text text-anchor="middle" x="304.8438" y="-81.5" font-family="Helvetica,sans-Serif" font-size="10.00" fill="#000000">Ioss::DatabaseIO</text>
</a>
</g>
</g>
<!-- Node3&#45;&gt;Node2 -->
<g id="edge1" class="edge">
<title>Node3&#45;&gt;Node2</title>
<path fill="none" stroke="#191970" d="M361.9439,-78.0385C381.3187,-75.6345 403.064,-72.7039 422.8506,-69.5 431.7828,-68.0537 441.3086,-66.3135 450.3876,-64.5591"/>
<polygon fill="#191970" stroke="#191970" points="361.2548,-74.5965 351.7525,-79.2822 362.1028,-81.545 361.2548,-74.5965"/>
</g>
<!-- Node5 -->
<g id="node4" class="node">
<title>Node5</title>
<g id="a_node4"><a xlink:href="classIoss_1_1GroupingEntity.html" target="_top" xlink:title="Base class for all &#39;grouping&#39; entities. The following derived classes are typical: ...">
<polygon fill="#ffffff" stroke="#000000" points="440.8506,-147.5 440.8506,-165.5 546.8945,-165.5 546.8945,-147.5 440.8506,-147.5"/>
<text text-anchor="middle" x="493.8726" y="-153.5" font-family="Helvetica,sans-Serif" font-size="10.00" fill="#000000">Ioss::GroupingEntity</text>
</a>
</g>
</g>
<!-- Node3&#45;&gt;Node5 -->
<g id="edge4" class="edge">
<title>Node3&#45;&gt;Node5</title>
<path fill="none" stroke="#9a32cd" stroke-dasharray="5,2" d="M327.542,-98.8339C340.5791,-106.6161 357.4731,-115.9558 373.3633,-122.5 399.092,-133.0962 429.2193,-141.5962 452.9145,-147.4471"/>
<polygon fill="#9a32cd" stroke="#9a32cd" points="329.1605,-95.7215 318.8002,-93.5047 325.5169,-101.6984 329.1605,-95.7215"/>
<text text-anchor="middle" x="398.1069" y="-140.5" font-family="Helvetica,sans-Serif" font-size="10.00" fill="#000000"> database_</text>
</g>
<!-- Node4 -->
<g id="node3" class="node">
<title>Node4</title>
<g id="a_node3"><a xlink:href="classIoss_1_1Region.html" target="_top" xlink:title="A grouping entity that contains other grouping entities. ">
<polygon fill="#ffffff" stroke="#000000" points="583.8945,-111.5 583.8945,-129.5 655.4805,-129.5 655.4805,-111.5 583.8945,-111.5"/>
<text text-anchor="middle" x="619.6875" y="-117.5" font-family="Helvetica,sans-Serif" font-size="10.00" fill="#000000">Ioss::Region</text>
</a>
</g>
</g>
<!-- Node4&#45;&gt;Node3 -->
<g id="edge2" class="edge">
<title>Node4&#45;&gt;Node3</title>
<path fill="none" stroke="#9a32cd" stroke-dasharray="5,2" d="M573.2003,-115.1845C513.7186,-108.3833 411.2686,-96.6689 351.6391,-89.8507"/>
<polygon fill="#9a32cd" stroke="#9a32cd" points="573.0982,-118.6956 583.4311,-116.3544 573.8935,-111.7409 573.0982,-118.6956"/>
<text text-anchor="middle" x="493.8726" y="-113.5" font-family="Helvetica,sans-Serif" font-size="10.00" fill="#000000"> region_</text>
</g>
<!-- Node5&#45;&gt;Node4 -->
<g id="edge3" class="edge">
<title>Node5&#45;&gt;Node4</title>
<path fill="none" stroke="#191970" d="M535.3759,-144.6245C552.4916,-139.7271 572.0073,-134.143 587.9492,-129.5814"/>
<polygon fill="#191970" stroke="#191970" points="534.2723,-141.2997 525.621,-147.4157 536.198,-148.0296 534.2723,-141.2997"/>
</g>
<!-- Node6 -->
<g id="node5" class="node">
<title>Node6</title>
<g id="a_node5"><a xlink:href="classIoss_1_1FieldManager.html" target="_top" xlink:title="A collection of Ioss::Field objects. ">
<polygon fill="#ffffff" stroke="#000000" points="254.3242,-198.5 254.3242,-216.5 355.3633,-216.5 355.3633,-198.5 254.3242,-198.5"/>
<text text-anchor="middle" x="304.8438" y="-204.5" font-family="Helvetica,sans-Serif" font-size="10.00" fill="#000000">Ioss::FieldManager</text>
</a>
</g>
</g>
<!-- Node6&#45;&gt;Node5 -->
<g id="edge5" class="edge">
<title>Node6&#45;&gt;Node5</title>
<path fill="none" stroke="#9a32cd" stroke-dasharray="5,2" d="M365.3547,-197.1566C383.9524,-193.4537 404.3818,-188.8501 422.8506,-183.5 439.9554,-178.545 458.7706,-171.3075 472.7355,-165.5728"/>
<polygon fill="#9a32cd" stroke="#9a32cd" points="364.6764,-193.7228 355.5269,-199.0649 366.0107,-200.5945 364.6764,-193.7228"/>
<text text-anchor="middle" x="398.1069" y="-196.5" font-family="Helvetica,sans-Serif" font-size="10.00" fill="#000000"> fields</text>
</g>
<!-- Node7 -->
<g id="node6" class="node">
<title>Node7</title>
<g id="a_node6"><a xlink:href="classIoss_1_1PropertyManager.html" target="_top" xlink:title="A collection of Ioss::Property objects. ">
<polygon fill="#ffffff" stroke="#000000" points="0,-147.5 0,-165.5 117.1572,-165.5 117.1572,-147.5 0,-147.5"/>
<text text-anchor="middle" x="58.5786" y="-153.5" font-family="Helvetica,sans-Serif" font-size="10.00" fill="#000000">Ioss::PropertyManager</text>
</a>
</g>
</g>
<!-- Node7&#45;&gt;Node3 -->
<g id="edge9" class="edge">
<title>Node7&#45;&gt;Node3</title>
<path fill="none" stroke="#9a32cd" stroke-dasharray="5,2" d="M126.4932,-145.7885C167.8025,-138.8314 216.3356,-129.7439 236.3242,-122.5 256.6583,-115.1309 278.1656,-102.2568 291.5447,-93.5587"/>
<polygon fill="#9a32cd" stroke="#9a32cd" points="125.7309,-142.3671 116.4425,-147.4637 126.8818,-149.2719 125.7309,-142.3671"/>
<text text-anchor="middle" x="185.7407" y="-145.5" font-family="Helvetica,sans-Serif" font-size="10.00" fill="#000000"> properties</text>
</g>
<!-- Node7&#45;&gt;Node5 -->
<g id="edge6" class="edge">
<title>Node7&#45;&gt;Node5</title>
<path fill="none" stroke="#9a32cd" stroke-dasharray="5,2" d="M127.3039,-156.5C214.1298,-156.5 361.7081,-156.5 440.5259,-156.5"/>
<polygon fill="#9a32cd" stroke="#9a32cd" points="127.2843,-153.0001 117.2843,-156.5 127.2843,-160.0001 127.2843,-153.0001"/>
<text text-anchor="middle" x="304.8438" y="-158.5" font-family="Helvetica,sans-Serif" font-size="10.00" fill="#000000"> properties</text>
</g>
<!-- Node8 -->
<g id="node7" class="node">
<title>Node8</title>
<g id="a_node7"><a xlink:href="classIoss_1_1Map.html" target="_top" xlink:title="Ioss::Map">
<polygon fill="#ffffff" stroke="#000000" points="28.9038,-74.5 28.9038,-92.5 88.2534,-92.5 88.2534,-74.5 28.9038,-74.5"/>
<text text-anchor="middle" x="58.5786" y="-80.5" font-family="Helvetica,sans-Serif" font-size="10.00" fill="#000000">Ioss::Map</text>
</a>
</g>
</g>
<!-- Node8&#45;&gt;Node3 -->
<g id="edge7" class="edge">
<title>Node8&#45;&gt;Node3</title>
<path fill="none" stroke="#9a32cd" stroke-dasharray="5,2" d="M98.5638,-82.8137C134.5896,-82.3052 189.0033,-81.8095 236.3242,-82.5 243.345,-82.6024 250.769,-82.7639 258.0377,-82.9517"/>
<polygon fill="#9a32cd" stroke="#9a32cd" points="98.4042,-79.3156 88.4572,-82.9635 98.508,-86.3148 98.4042,-79.3156"/>
<text text-anchor="middle" x="185.7407" y="-114.5" font-family="Helvetica,sans-Serif" font-size="10.00" fill="#000000"> nodeMap</text>
<text text-anchor="middle" x="185.7407" y="-104.5" font-family="Helvetica,sans-Serif" font-size="10.00" fill="#000000">elemMap</text>
<text text-anchor="middle" x="185.7407" y="-94.5" font-family="Helvetica,sans-Serif" font-size="10.00" fill="#000000">faceMap</text>
<text text-anchor="middle" x="185.7407" y="-84.5" font-family="Helvetica,sans-Serif" font-size="10.00" fill="#000000">edgeMap</text>
</g>
<!-- Node9 -->
<g id="node8" class="node">
<title>Node9</title>
<g id="a_node8"><a xlink:href="classIoss_1_1ParallelUtils.html" target="_top" xlink:title="Ioss::ParallelUtils">
<polygon fill="#ffffff" stroke="#000000" points="12.2339,-37.5 12.2339,-55.5 104.9233,-55.5 104.9233,-37.5 12.2339,-37.5"/>
<text text-anchor="middle" x="58.5786" y="-43.5" font-family="Helvetica,sans-Serif" font-size="10.00" fill="#000000">Ioss::ParallelUtils</text>
</a>
</g>
</g>
<!-- Node9&#45;&gt;Node3 -->
<g id="edge8" class="edge">
<title>Node9&#45;&gt;Node3</title>
<path fill="none" stroke="#9a32cd" stroke-dasharray="5,2" d="M115.2706,-51.3661C150.3132,-54.8266 196.1206,-60.1677 236.3242,-67.5 248.02,-69.6331 260.6899,-72.5904 271.9166,-75.441"/>
<polygon fill="#9a32cd" stroke="#9a32cd" points="115.5137,-47.8734 105.2237,-50.3962 114.841,-54.841 115.5137,-47.8734"/>
<text text-anchor="middle" x="185.7407" y="-69.5" font-family="Helvetica,sans-Serif" font-size="10.00" fill="#000000"> util_</text>
</g>
<!-- Node10 -->
<g id="node9" class="node">
<title>Node10</title>
<g id="a_node9"><a xlink:href="classIoss_1_1ElementTopology.html" target="_top" xlink:title="Represents an element topology. ">
<polygon fill="#ffffff" stroke="#000000" points=".2734,-.5 .2734,-18.5 116.8838,-18.5 116.8838,-.5 .2734,-.5"/>
<text text-anchor="middle" x="58.5786" y="-6.5" font-family="Helvetica,sans-Serif" font-size="10.00" fill="#000000">Ioss::ElementTopology</text>
</a>
</g>
</g>
<!-- Node10&#45;&gt;Node3 -->
<g id="edge10" class="edge">
<title>Node10&#45;&gt;Node3</title>
<path fill="none" stroke="#9a32cd" stroke-dasharray="5,2" d="M127.1208,-7.7983C162.2807,-9.958 204.3208,-17.5052 236.3242,-38.5 248.6941,-46.6149 242.7363,-57.3031 254.3242,-66.5 258.9188,-70.1466 264.3116,-73.0885 269.8314,-75.4517"/>
<polygon fill="#9a32cd" stroke="#9a32cd" points="127.0826,-4.2925 116.9261,-7.3085 126.7466,-11.2844 127.0826,-4.2925"/>
<text text-anchor="middle" x="185.7407" y="-40.5" font-family="Helvetica,sans-Serif" font-size="10.00" fill="#000000"> commonSideTopology</text>
</g>
<!-- Node11 -->
<g id="node10" class="node">
<title>Node11</title>
<g id="a_node10"><a xlink:href="classIohb_1_1Layout.html" target="_top" xlink:title="Iohb::Layout">
<polygon fill="#ffffff" stroke="#000000" points="269.3218,-38.5 269.3218,-56.5 340.3657,-56.5 340.3657,-38.5 269.3218,-38.5"/>
<text text-anchor="middle" x="304.8438" y="-44.5" font-family="Helvetica,sans-Serif" font-size="10.00" fill="#000000">Iohb::Layout</text>
</a>
</g>
</g>
<!-- Node11&#45;&gt;Node2 -->
<g id="edge11" class="edge">
<title>Node11&#45;&gt;Node2</title>
<path fill="none" stroke="#9a32cd" stroke-dasharray="5,2" d="M350.5155,-47.5583C372.4097,-47.7692 399.0012,-48.2919 422.8506,-49.5 430.5127,-49.8881 438.6293,-50.4402 446.5307,-51.054"/>
<polygon fill="#9a32cd" stroke="#9a32cd" points="350.5234,-44.0584 340.4963,-47.4801 350.4687,-51.0582 350.5234,-44.0584"/>
<text text-anchor="middle" x="398.1069" y="-61.5" font-family="Helvetica,sans-Serif" font-size="10.00" fill="#000000"> layout_</text>
<text text-anchor="middle" x="398.1069" y="-51.5" font-family="Helvetica,sans-Serif" font-size="10.00" fill="#000000">legend_</text>
</g>
</g>
</svg>
        <g id="navigator" transform="translate(0 0)" fill="#404254">
                <rect fill="#f2f5e9" fill-opacity="0.5" stroke="#606060" stroke-width=".5" x="0" y="0" width="60" height="60"/>
                <use id="zoomplus" xlink:href="#zoomPlus" x="17" y="9" onmousedown="handleZoom(evt,'in')"/>
                <use id="zoomminus" xlink:href="#zoomMin" x="42" y="9" onmousedown="handleZoom(evt,'out')"/>
                <use id="reset" xlink:href="#resetDef" x="30" y="36" onmousedown="handleReset()"/>
                <g id="arrowUp" xlink:href="#dirArrow" transform="translate(30 24)" onmousedown="handlePan(0,-1)">
                  <use xlink:href="#rim" fill="#404040">
                        <set attributeName="fill" to="#808080" begin="arrowUp.mouseover" end="arrowUp.mouseout"/>
                  </use>
                  <path fill="none" stroke="white" stroke-width="1.5" d="M0,-3.0v7 M-2.5,-0.5L0,-3.0L2.5,-0.5"/>
                </g>
                <g id="arrowRight" xlink:href="#dirArrow" transform="rotate(90) translate(36 -43)" onmousedown="handlePan(1,0)">
                  <use xlink:href="#rim" fill="#404040">
                        <set attributeName="fill" to="#808080" begin="arrowRight.mouseover" end="arrowRight.mouseout"/>
                  </use>
                  <path fill="none" stroke="white" stroke-width="1.5" d="M0,-3.0v7 M-2.5,-0.5L0,-3.0L2.5,-0.5"/>
                </g>
                <g id="arrowDown" xlink:href="#dirArrow" transform="rotate(180) translate(-30 -48)" onmousedown="handlePan(0,1)">
                  <use xlink:href="#rim" fill="#404040">
                        <set attributeName="fill" to="#808080" begin="arrowDown.mouseover" end="arrowDown.mouseout"/>
                  </use>
                  <path fill="none" stroke="white" stroke-width="1.5" d="M0,-3.0v7 M-2.5,-0.5L0,-3.0L2.5,-0.5"/>
                </g>
                <g id="arrowLeft" xlink:href="#dirArrow" transform="rotate(270) translate(-36 17)" onmousedown="handlePan(-1,0)">
                  <use xlink:href="#rim" fill="#404040">
                        <set attributeName="fill" to="#808080" begin="arrowLeft.mouseover" end="arrowLeft.mouseout"/>
                  </use>
                  <path fill="none" stroke="white" stroke-width="1.5" d="M0,-3.0v7 M-2.5,-0.5L0,-3.0L2.5,-0.5"/>
                </g>
        </g>
        <svg viewBox="0 0 15 15" width="100%" height="30px" preserveAspectRatio="xMaxYMin meet">
         <g id="arrow_out" transform="scale(0.3 0.3)">
          <a xlink:href="classIohb_1_1DatabaseIO__coll__graph_org.svg" target="_base">
           <rect id="button" ry="5" rx="5" y="6" x="6" height="38" width="38"
                fill="#f2f5e9" fill-opacity="0.5" stroke="#606060" stroke-width="1.0"/>
           <path id="arrow"
             d="M 11.500037,31.436501 C 11.940474,20.09759 22.043105,11.32322 32.158766,21.979434 L 37.068811,17.246167 C 37.068811,17.246167 37.088388,32 37.088388,32 L 22.160133,31.978069 C 22.160133,31.978069 26.997745,27.140456 26.997745,27.140456 C 18.528582,18.264221 13.291696,25.230495 11.500037,31.436501 z"
             style="fill:#404040;"/>
          </a>
         </g>
        </svg>
</svg>
