<?xml version="1.0" encoding="UTF-8" standalone="no"?>
<!DOCTYPE svg PUBLIC "-//W3C//DTD SVG 1.1//EN"
 "http://www.w3.org/Graphics/SVG/1.1/DTD/svg11.dtd">
<!-- Generated by graphviz version 2.40.1 (20161225.0304)
 -->
<!-- Title: Ioss::DatabaseIO::node_global_to_local__ Pages: 1 -->
<svg width="837pt" height="69pt"
 viewBox="0.00 0.00 837.09 69.00" xmlns="http://www.w3.org/2000/svg" xmlns:xlink="http://www.w3.org/1999/xlink">
<g id="graph0" class="graph" transform="scale(1 1) rotate(0) translate(4 65)">
<title>Ioss::DatabaseIO::node_global_to_local__</title>
<polygon fill="#ffffff" stroke="transparent" points="-4,4 -4,-65 833.0908,-65 833.0908,4 -4,4"/>
<!-- Node1726 -->
<g id="node1" class="node">
<title>Node1726</title>
<polygon fill="#bfbfbf" stroke="#000000" points="0,-3.5 0,-31.5 121.0635,-31.5 121.0635,-3.5 0,-3.5"/>
<text text-anchor="start" x="8" y="-19.5" font-family="Helvetica,sans-Serif" font-size="10.00" fill="#000000">Ioss::DatabaseIO::node</text>
<text text-anchor="middle" x="60.5317" y="-9.5" font-family="Helvetica,sans-Serif" font-size="10.00" fill="#000000">_global_to_local__</text>
</g>
<!-- Node1727 -->
<g id="node2" class="node">
<title>Node1727</title>
<g id="a_node2"><a xlink:href="classIoss_1_1DatabaseIO.html#a508cb4e8ba172b238fd6af316538f89d" target="_top" xlink:title="Get the local (process&#45;specific) node number corresponding to a global node number. ">
<polygon fill="#ffffff" stroke="#000000" points="157.0635,-3.5 157.0635,-31.5 278.127,-31.5 278.127,-3.5 157.0635,-3.5"/>
<text text-anchor="start" x="165.0635" y="-19.5" font-family="Helvetica,sans-Serif" font-size="10.00" fill="#000000">Ioss::DatabaseIO::node</text>
<text text-anchor="middle" x="217.5952" y="-9.5" font-family="Helvetica,sans-Serif" font-size="10.00" fill="#000000">_global_to_local</text>
</a>
</g>
</g>
<!-- Node1726&#45;&gt;Node1727 -->
<g id="edge1" class="edge">
<title>Node1726&#45;&gt;Node1727</title>
<path fill="none" stroke="#191970" d="M131.2701,-17.5C139.8708,-17.5 148.5975,-17.5 157.0319,-17.5"/>
<polygon fill="#191970" stroke="#191970" points="131.2566,-14.0001 121.2566,-17.5 131.2565,-21.0001 131.2566,-14.0001"/>
</g>
<!-- Node1728 -->
<g id="node3" class="node">
<title>Node1728</title>
<g id="a_node3"><a xlink:href="namespaceanonymous__namespace_02Ioss__FaceGenerator_8C_03.html#a95e85281e055a9945826f8f20e3af20a" target="_top" xlink:title="anonymous_namespace\l\{Ioss_FaceGenerator\l::C\}::resolve_parallel_faces">
<polygon fill="#ffffff" stroke="#000000" points="314.127,-22.5 314.127,-60.5 451.3037,-60.5 451.3037,-22.5 314.127,-22.5"/>
<text text-anchor="start" x="322.127" y="-48.5" font-family="Helvetica,sans-Serif" font-size="10.00" fill="#000000">anonymous_namespace</text>
<text text-anchor="start" x="322.127" y="-38.5" font-family="Helvetica,sans-Serif" font-size="10.00" fill="#000000">{Ioss_FaceGenerator</text>
<text text-anchor="middle" x="382.7153" y="-28.5" font-family="Helvetica,sans-Serif" font-size="10.00" fill="#000000">::C}::resolve_parallel_faces</text>
</a>
</g>
</g>
<!-- Node1727&#45;&gt;Node1728 -->
<g id="edge2" class="edge">
<title>Node1727&#45;&gt;Node1728</title>
<path fill="none" stroke="#191970" d="M288.1328,-27.7525C296.7324,-29.0025 305.5099,-30.2783 314.0811,-31.5241"/>
<polygon fill="#191970" stroke="#191970" points="288.5417,-24.2753 278.1423,-26.3004 287.5348,-31.2025 288.5417,-24.2753"/>
</g>
<!-- Node1730 -->
<g id="node5" class="node">
<title>Node1730</title>
<g id="a_node5"><a xlink:href="namespaceanonymous__namespace_02skinner_8C_03.html#afed02927a4ddde5ed9b2e89045f0d502" target="_top" xlink:title="anonymous_namespace\l\{skinner::C\}::skinner">
<polygon fill="#ffffff" stroke="#000000" points="630.4561,-.5 630.4561,-28.5 755.416,-28.5 755.416,-.5 630.4561,-.5"/>
<text text-anchor="start" x="638.4561" y="-16.5" font-family="Helvetica,sans-Serif" font-size="10.00" fill="#000000">anonymous_namespace</text>
<text text-anchor="middle" x="692.936" y="-6.5" font-family="Helvetica,sans-Serif" font-size="10.00" fill="#000000">{skinner::C}::skinner</text>
</a>
</g>
</g>
<!-- Node1727&#45;&gt;Node1730 -->
<g id="edge6" class="edge">
<title>Node1727&#45;&gt;Node1730</title>
<path fill="none" stroke="#191970" d="M288.4367,-13.4102C297.0881,-13.0349 305.8072,-12.7153 314.127,-12.5 425.3993,-9.6202 555.1162,-11.4224 630.2523,-12.9746"/>
<polygon fill="#191970" stroke="#191970" points="288.1688,-9.9187 278.3398,-13.8735 288.4897,-16.9113 288.1688,-9.9187"/>
</g>
<!-- Node1729 -->
<g id="node4" class="node">
<title>Node1729</title>
<g id="a_node4"><a xlink:href="classIoss_1_1FaceGenerator.html#aeeeec5956be1abd729f44367e373340a" target="_top" xlink:title="Ioss::FaceGenerator\l::generate_faces">
<polygon fill="#ffffff" stroke="#000000" points="487.3037,-24.5 487.3037,-52.5 594.4561,-52.5 594.4561,-24.5 487.3037,-24.5"/>
<text text-anchor="start" x="495.3037" y="-40.5" font-family="Helvetica,sans-Serif" font-size="10.00" fill="#000000">Ioss::FaceGenerator</text>
<text text-anchor="middle" x="540.8799" y="-30.5" font-family="Helvetica,sans-Serif" font-size="10.00" fill="#000000">::generate_faces</text>
</a>
</g>
</g>
<!-- Node1728&#45;&gt;Node1729 -->
<g id="edge3" class="edge">
<title>Node1728&#45;&gt;Node1729</title>
<path fill="none" stroke="#191970" d="M461.6516,-40.0028C470.2111,-39.8404 478.7729,-39.678 486.9359,-39.5232"/>
<polygon fill="#191970" stroke="#191970" points="461.5603,-36.5038 451.6285,-40.1929 461.6931,-43.5025 461.5603,-36.5038"/>
</g>
<!-- Node1729&#45;&gt;Node1730 -->
<g id="edge4" class="edge">
<title>Node1729&#45;&gt;Node1730</title>
<path fill="none" stroke="#191970" d="M604.4558,-28.4654C613.0546,-27.1082 621.8718,-25.7165 630.4513,-24.3624"/>
<polygon fill="#191970" stroke="#191970" points="603.8212,-25.0221 594.4892,-30.0385 604.9126,-31.9366 603.8212,-25.0221"/>
</g>
<!-- Node1731 -->
<g id="node6" class="node">
<title>Node1731</title>
<g id="a_node6"><a xlink:href="skinner_8C.html#a0ddf1224851353fc92bfbff6f499fa97" target="_top" xlink:title="main">
<polygon fill="#ffffff" stroke="#000000" points="791.416,-5.5 791.416,-23.5 829.0908,-23.5 829.0908,-5.5 791.416,-5.5"/>
<text text-anchor="middle" x="810.2534" y="-11.5" font-family="Helvetica,sans-Serif" font-size="10.00" fill="#000000">main</text>
</a>
</g>
</g>
<!-- Node1730&#45;&gt;Node1731 -->
<g id="edge5" class="edge">
<title>Node1730&#45;&gt;Node1731</title>
<path fill="none" stroke="#191970" d="M765.9434,-14.5C775.2279,-14.5 784.0013,-14.5 791.2536,-14.5"/>
<polygon fill="#191970" stroke="#191970" points="765.7162,-11.0001 755.7161,-14.5 765.7161,-18.0001 765.7162,-11.0001"/>
</g>
</g>
</svg>
