<?xml version="1.0" encoding="UTF-8" standalone="no"?>
<!DOCTYPE svg PUBLIC "-//W3C//DTD SVG 1.1//EN"
 "http://www.w3.org/Graphics/SVG/1.1/DTD/svg11.dtd">
<!-- Generated by graphviz version 2.40.1 (20161225.0304)
 -->
<!-- Title: Iocgns::DatabaseIO::openDatabase__ Pages: 1 -->
<!--zoomable 709 -->
<svg id="main" version="1.1" xmlns="http://www.w3.org/2000/svg" xmlns:xlink="http://www.w3.org/1999/xlink" xml:space="preserve" onload="init(evt)">
<style type="text/css"><![CDATA[
.edge:hover path { stroke: red; }
.edge:hover polygon { stroke: red; fill: red; }
]]></style>
<script type="text/javascript"><![CDATA[
var edges = document.getElementsByTagName('g');
if (edges && edges.length) {
  for (var i=0;i<edges.length;i++) {
    if (edges[i].id.substr(0,4)=='edge') {
      edges[i].setAttribute('class','edge');
    }
  }
}
]]></script>
        <defs>
                <circle id="rim" cx="0" cy="0" r="7"/>
                <circle id="rim2" cx="0" cy="0" r="3.5"/>
                <g id="zoomPlus">
                        <use xlink:href="#rim" fill="#404040">
                                <set attributeName="fill" to="#808080" begin="zoomplus.mouseover" end="zoomplus.mouseout"/>
                        </use>
                        <path d="M-4,0h8M0,-4v8" fill="none" stroke="white" stroke-width="1.5" pointer-events="none"/>
                </g>
                <g id="zoomMin">
                        <use xlink:href="#rim" fill="#404040">
                                <set attributeName="fill" to="#808080" begin="zoomminus.mouseover" end="zoomminus.mouseout"/>
                        </use>
                        <path d="M-4,0h8" fill="none" stroke="white" stroke-width="1.5" pointer-events="none"/>
                </g>
                <g id="dirArrow">
                        <path fill="none" stroke="white" stroke-width="1.5" d="M0,-3.0v7 M-2.5,-0.5L0,-3.0L2.5,-0.5"/>
                </g>
               <g id="resetDef">
                       <use xlink:href="#rim2" fill="#404040">
                               <set attributeName="fill" to="#808080" begin="reset.mouseover" end="reset.mouseout"/>
                       </use>
               </g>
        </defs>

<script type="text/javascript">
var viewWidth = 953;
var viewHeight = 709;
var sectionId = 'dynsection-37';
</script>
<script xlink:href="svgpan.js"/>
<svg id="graph" class="graph">
<g id="viewport">
<title>Iocgns::DatabaseIO::openDatabase__</title>
<polygon fill="#ffffff" stroke="transparent" points="-4,4 -4,-705 948.7012,-705 948.7012,4 -4,4"/>
<!-- Node832 -->
<g id="node1" class="node">
<title>Node832</title>
<polygon fill="#bfbfbf" stroke="#000000" points="0,-259.5 0,-287.5 104.3838,-287.5 104.3838,-259.5 0,-259.5"/>
<text text-anchor="start" x="8" y="-275.5" font-family="Helvetica,sans-Serif" font-size="10.00" fill="#000000">Iocgns::DatabaseIO</text>
<text text-anchor="middle" x="52.1919" y="-265.5" font-family="Helvetica,sans-Serif" font-size="10.00" fill="#000000">::openDatabase__</text>
</g>
<!-- Node833 -->
<g id="node2" class="node">
<title>Node833</title>
<g id="a_node2"><a xlink:href="classIoss_1_1DatabaseIO.html#afaf8598b13b44b8f262b3eec8398cb06" target="_top" xlink:title="Determine whether the database is an input database. ">
<polygon fill="#ffffff" stroke="#000000" points="511.4761,-426.5 511.4761,-454.5 617.5151,-454.5 617.5151,-426.5 511.4761,-426.5"/>
<text text-anchor="start" x="519.4761" y="-442.5" font-family="Helvetica,sans-Serif" font-size="10.00" fill="#000000">Ioss::DatabaseIO::is</text>
<text text-anchor="middle" x="564.4956" y="-432.5" font-family="Helvetica,sans-Serif" font-size="10.00" fill="#000000">_input</text>
</a>
</g>
</g>
<!-- Node832&#45;&gt;Node833 -->
<g id="edge1" class="edge">
<title>Node832&#45;&gt;Node833</title>
<path fill="none" stroke="#191970" d="M62.2791,-287.7295C77.4348,-308.3624 107.7973,-346.911 140.3838,-372.5 208.9329,-426.3292 228.997,-443.4307 313.5703,-464.5 378.4611,-480.6659 455.2914,-468.9806 506.6855,-456.9339"/>
<polygon fill="#191970" stroke="#191970" points="507.7197,-460.2847 516.6141,-454.5279 506.071,-453.4816 507.7197,-460.2847"/>
</g>
<!-- Node834 -->
<g id="node3" class="node">
<title>Node834</title>
<g id="a_node3"><a xlink:href="classIoss_1_1PropertyManager.html#a798ebd15c511dc029050e0d707de283f" target="_top" xlink:title="Checks if a property exists in the database. ">
<polygon fill="#ffffff" stroke="#000000" points="323.8535,-426.5 323.8535,-454.5 441.0107,-454.5 441.0107,-426.5 323.8535,-426.5"/>
<text text-anchor="start" x="331.8535" y="-442.5" font-family="Helvetica,sans-Serif" font-size="10.00" fill="#000000">Ioss::PropertyManager</text>
<text text-anchor="middle" x="382.4321" y="-432.5" font-family="Helvetica,sans-Serif" font-size="10.00" fill="#000000">::exists</text>
</a>
</g>
</g>
<!-- Node832&#45;&gt;Node834 -->
<g id="edge2" class="edge">
<title>Node832&#45;&gt;Node834</title>
<path fill="none" stroke="#191970" d="M77.0542,-287.5607C123.0884,-313.3838 224.9862,-369.56 313.5703,-411.5 321.4074,-415.2104 329.8466,-418.9604 338.0392,-422.4762"/>
<polygon fill="#191970" stroke="#191970" points="336.9194,-425.8028 347.4926,-426.4796 339.6491,-419.357 336.9194,-425.8028"/>
</g>
<!-- Node835 -->
<g id="node4" class="node">
<title>Node835</title>
<g id="a_node4"><a xlink:href="classIoss_1_1DatabaseIO.html#a2086f8e605c31f9eb2af5fac410a46b2" target="_top" xlink:title="Get a file&#45;per&#45;processor filename associated with the database. ">
<polygon fill="#ffffff" stroke="#000000" points="140.3838,-259.5 140.3838,-287.5 277.5703,-287.5 277.5703,-259.5 140.3838,-259.5"/>
<text text-anchor="start" x="148.3838" y="-275.5" font-family="Helvetica,sans-Serif" font-size="10.00" fill="#000000">Ioss::DatabaseIO::decoded</text>
<text text-anchor="middle" x="208.9771" y="-265.5" font-family="Helvetica,sans-Serif" font-size="10.00" fill="#000000">_filename</text>
</a>
</g>
</g>
<!-- Node832&#45;&gt;Node835 -->
<g id="edge3" class="edge">
<title>Node832&#45;&gt;Node835</title>
<path fill="none" stroke="#191970" d="M104.3991,-273.5C112.6585,-273.5 121.356,-273.5 130.0621,-273.5"/>
<polygon fill="#191970" stroke="#191970" points="130.2605,-277.0001 140.2605,-273.5 130.2604,-270.0001 130.2605,-277.0001"/>
</g>
<!-- Node840 -->
<g id="node9" class="node">
<title>Node840</title>
<g id="a_node9"><a xlink:href="classIoss_1_1PropertyManager.html#ab9b0abf6f5acb6bd9f5e34e984f840a6" target="_top" xlink:title="Get a property object from the property manager. ">
<polygon fill="#ffffff" stroke="#000000" points="314.1245,-103.5 314.1245,-121.5 450.7397,-121.5 450.7397,-103.5 314.1245,-103.5"/>
<text text-anchor="middle" x="382.4321" y="-109.5" font-family="Helvetica,sans-Serif" font-size="10.00" fill="#000000">Ioss::PropertyManager::get</text>
</a>
</g>
</g>
<!-- Node832&#45;&gt;Node840 -->
<g id="edge44" class="edge">
<title>Node832&#45;&gt;Node840</title>
<path fill="none" stroke="#191970" d="M103.2916,-259.444C167.6668,-241.5702 270.7812,-212.32 277.5703,-206.5 305.9465,-182.1745 284.7933,-154.3499 313.5703,-130.5 315.3483,-129.0265 317.2336,-127.6722 319.2011,-126.4275"/>
<polygon fill="#191970" stroke="#191970" points="321.0626,-129.4028 328.2764,-121.6431 317.7981,-123.2106 321.0626,-129.4028"/>
</g>
<!-- Node841 -->
<g id="node10" class="node">
<title>Node841</title>
<g id="a_node10"><a xlink:href="classIoss_1_1Property.html#a45bcbc7137a296f3eda52c92c04da39f" target="_top" xlink:title="Get the property value if it is of type INTEGER. ">
<polygon fill="#ffffff" stroke="#000000" points="325.7969,-66.5 325.7969,-84.5 439.0674,-84.5 439.0674,-66.5 325.7969,-66.5"/>
<text text-anchor="middle" x="382.4321" y="-72.5" font-family="Helvetica,sans-Serif" font-size="10.00" fill="#000000">Ioss::Property::get_int</text>
</a>
</g>
</g>
<!-- Node832&#45;&gt;Node841 -->
<g id="edge45" class="edge">
<title>Node832&#45;&gt;Node841</title>
<path fill="none" stroke="#191970" d="M66.8341,-259.2748C83.3673,-243.9992 111.7178,-220.0962 140.3838,-206.5 197.0447,-179.6259 229.2847,-213.5147 277.5703,-173.5 307.5912,-148.6214 283.7948,-118.6717 313.5703,-93.5 315.3338,-92.0092 317.2067,-90.6401 319.1638,-89.383"/>
<polygon fill="#191970" stroke="#191970" points="321.0307,-92.3539 328.2045,-84.5572 317.7344,-86.1786 321.0307,-92.3539"/>
</g>
<!-- Node854 -->
<g id="node23" class="node">
<title>Node854</title>
<g id="a_node23"><a xlink:href="classIocgns_1_1DatabaseIO.html#ac24c1fe72e1e14f91497d6f4ddcd73d0" target="_top" xlink:title="Iocgns::DatabaseIO\l::check_valid_file_open">
<polygon fill="#ffffff" stroke="#000000" points="322.4521,-512.5 322.4521,-540.5 442.4121,-540.5 442.4121,-512.5 322.4521,-512.5"/>
<text text-anchor="start" x="330.4521" y="-528.5" font-family="Helvetica,sans-Serif" font-size="10.00" fill="#000000">Iocgns::DatabaseIO</text>
<text text-anchor="middle" x="382.4321" y="-518.5" font-family="Helvetica,sans-Serif" font-size="10.00" fill="#000000">::check_valid_file_open</text>
</a>
</g>
</g>
<!-- Node832&#45;&gt;Node854 -->
<g id="edge29" class="edge">
<title>Node832&#45;&gt;Node854</title>
<path fill="none" stroke="#191970" d="M53.0041,-287.6903C56.143,-328.0454 71.0776,-443.9903 140.3838,-497.5 188.7493,-534.8419 259.5469,-539.2884 312.0919,-536.0664"/>
<polygon fill="#191970" stroke="#191970" points="312.623,-539.5373 322.3454,-535.3272 312.1196,-532.5554 312.623,-539.5373"/>
</g>
<!-- Node863 -->
<g id="node32" class="node">
<title>Node863</title>
<g id="a_node32"><a xlink:href="classIoss_1_1DatabaseIO.html#add13a49b34f8c4bb7b85bb7ad91c01c3" target="_top" xlink:title="Returns 4 or 8. ">
<polygon fill="#ffffff" stroke="#000000" points="152.8984,-135.5 152.8984,-163.5 265.0557,-163.5 265.0557,-135.5 152.8984,-135.5"/>
<text text-anchor="start" x="160.8984" y="-151.5" font-family="Helvetica,sans-Serif" font-size="10.00" fill="#000000">Ioss::DatabaseIO::set</text>
<text text-anchor="middle" x="208.9771" y="-141.5" font-family="Helvetica,sans-Serif" font-size="10.00" fill="#000000">_int_byte_size_api</text>
</a>
</g>
</g>
<!-- Node832&#45;&gt;Node863 -->
<g id="edge46" class="edge">
<title>Node832&#45;&gt;Node863</title>
<path fill="none" stroke="#191970" d="M62.1241,-259.4998C77.0867,-239.2699 107.2109,-201.7478 140.3838,-178.5 146.0037,-174.5616 152.2418,-171.0096 158.6003,-167.8532"/>
<polygon fill="#191970" stroke="#191970" points="160.3496,-170.8999 167.9444,-163.5128 157.4006,-164.5514 160.3496,-170.8999"/>
</g>
<!-- Node835&#45;&gt;Node834 -->
<g id="edge8" class="edge">
<title>Node835&#45;&gt;Node834</title>
<path fill="none" stroke="#191970" d="M219.5953,-287.608C245.8938,-322.5367 312.0494,-410.3186 313.5703,-411.5 318.6125,-415.4167 324.2613,-418.8993 330.0971,-421.9699"/>
<polygon fill="#191970" stroke="#191970" points="328.8358,-425.2479 339.3611,-426.4593 331.8885,-418.9486 328.8358,-425.2479"/>
</g>
<!-- Node836 -->
<g id="node5" class="node">
<title>Node836</title>
<g id="a_node5"><a xlink:href="classIoss_1_1DatabaseIO.html#acd988f56b93ac669b2e504a8e471b321" target="_top" xlink:title="Ioss::DatabaseIO::util">
<polygon fill="#ffffff" stroke="#000000" points="684.377,-472.5 684.377,-490.5 795.9775,-490.5 795.9775,-472.5 684.377,-472.5"/>
<text text-anchor="middle" x="740.1772" y="-478.5" font-family="Helvetica,sans-Serif" font-size="10.00" fill="#000000">Ioss::DatabaseIO::util</text>
</a>
</g>
</g>
<!-- Node835&#45;&gt;Node836 -->
<g id="edge4" class="edge">
<title>Node835&#45;&gt;Node836</title>
<path fill="none" stroke="#191970" d="M233.014,-287.6836C246.7424,-296.3281 263.8907,-308.0781 277.5703,-320.5 296.0225,-337.2556 291.921,-351.1492 313.5703,-363.5 441.9447,-436.7369 503.8871,-364.0962 641.6973,-417.5 672.0346,-429.2562 702.8126,-451.2208 721.6962,-466.101"/>
<polygon fill="#191970" stroke="#191970" points="719.507,-468.8319 729.4911,-472.3772 723.8971,-463.3796 719.507,-468.8319"/>
</g>
<!-- Node837 -->
<g id="node6" class="node">
<title>Node837</title>
<g id="a_node6"><a xlink:href="classIoss_1_1ParallelUtils.html#a847a94880409904693640054d98325df" target="_top" xlink:title="Ioss::ParallelUtils\l::decode_filename">
<polygon fill="#ffffff" stroke="#000000" points="333.5703,-302.5 333.5703,-330.5 431.2939,-330.5 431.2939,-302.5 333.5703,-302.5"/>
<text text-anchor="start" x="341.5703" y="-318.5" font-family="Helvetica,sans-Serif" font-size="10.00" fill="#000000">Ioss::ParallelUtils</text>
<text text-anchor="middle" x="382.4321" y="-308.5" font-family="Helvetica,sans-Serif" font-size="10.00" fill="#000000">::decode_filename</text>
</a>
</g>
</g>
<!-- Node835&#45;&gt;Node837 -->
<g id="edge5" class="edge">
<title>Node835&#45;&gt;Node837</title>
<path fill="none" stroke="#191970" d="M265.7727,-287.5798C284.2816,-292.1682 304.8635,-297.2705 323.5237,-301.8964"/>
<polygon fill="#191970" stroke="#191970" points="322.827,-305.3296 333.3754,-304.3387 324.5114,-298.5353 322.827,-305.3296"/>
</g>
<!-- Node838 -->
<g id="node7" class="node">
<title>Node838</title>
<g id="a_node7"><a xlink:href="classIoss_1_1Utils.html#a72d3b4a8659178159d33d50eef9843cc" target="_top" xlink:title="Ioss::Utils::decode\l_filename">
<polygon fill="#ffffff" stroke="#000000" points="515.6436,-340.5 515.6436,-368.5 613.3477,-368.5 613.3477,-340.5 515.6436,-340.5"/>
<text text-anchor="start" x="523.6436" y="-356.5" font-family="Helvetica,sans-Serif" font-size="10.00" fill="#000000">Ioss::Utils::decode</text>
<text text-anchor="middle" x="564.4956" y="-346.5" font-family="Helvetica,sans-Serif" font-size="10.00" fill="#000000">_filename</text>
</a>
</g>
</g>
<!-- Node835&#45;&gt;Node838 -->
<g id="edge14" class="edge">
<title>Node835&#45;&gt;Node838</title>
<path fill="none" stroke="#191970" d="M224.9913,-287.5699C244.4186,-303.6801 278.8937,-329.2877 313.5703,-340.5 376.8157,-360.9497 453.6489,-362.0184 505.5004,-359.5311"/>
<polygon fill="#191970" stroke="#191970" points="505.729,-363.0239 515.5262,-358.9909 505.3524,-356.0341 505.729,-363.0239"/>
</g>
<!-- Node839 -->
<g id="node8" class="node">
<title>Node839</title>
<g id="a_node8"><a xlink:href="classIoss_1_1DatabaseIO.html#a1c9ad01905e9773cd69b452a8551cbba" target="_top" xlink:title="Get the file name associated with the database. ">
<polygon fill="#ffffff" stroke="#000000" points="508.1362,-259.5 508.1362,-287.5 620.855,-287.5 620.855,-259.5 508.1362,-259.5"/>
<text text-anchor="start" x="516.1362" y="-275.5" font-family="Helvetica,sans-Serif" font-size="10.00" fill="#000000">Ioss::DatabaseIO::get</text>
<text text-anchor="middle" x="564.4956" y="-265.5" font-family="Helvetica,sans-Serif" font-size="10.00" fill="#000000">_filename</text>
</a>
</g>
</g>
<!-- Node835&#45;&gt;Node839 -->
<g id="edge7" class="edge">
<title>Node835&#45;&gt;Node839</title>
<path fill="none" stroke="#191970" d="M277.9461,-273.5C341.4507,-273.5 435.0542,-273.5 497.8207,-273.5"/>
<polygon fill="#191970" stroke="#191970" points="498.0062,-277.0001 508.0061,-273.5 498.0061,-270.0001 498.0062,-277.0001"/>
</g>
<!-- Node835&#45;&gt;Node840 -->
<g id="edge9" class="edge">
<title>Node835&#45;&gt;Node840</title>
<path fill="none" stroke="#191970" d="M257.4543,-259.3584C264.9292,-255.4922 272.001,-250.6198 277.5703,-244.5 313.3321,-205.2036 275.0684,-167.1158 313.5703,-130.5 315.0142,-129.1269 316.5494,-127.8553 318.1586,-126.678"/>
<polygon fill="#191970" stroke="#191970" points="319.958,-129.68 326.7425,-121.5424 316.3641,-123.673 319.958,-129.68"/>
</g>
<!-- Node835&#45;&gt;Node841 -->
<g id="edge10" class="edge">
<title>Node835&#45;&gt;Node841</title>
<path fill="none" stroke="#191970" d="M227.7752,-259.4821C243.1633,-247.1014 264.4595,-227.7513 277.5703,-206.5 305.2457,-161.6409 275.3293,-129.7753 313.5703,-93.5 315.0159,-92.1287 316.5526,-90.8587 318.1632,-89.6828"/>
<polygon fill="#191970" stroke="#191970" points="319.9619,-92.6853 326.7522,-84.5525 316.3723,-86.6757 319.9619,-92.6853"/>
</g>
<!-- Node845 -->
<g id="node14" class="node">
<title>Node845</title>
<g id="a_node14"><a xlink:href="classIoss_1_1DatabaseIO.html#a5e6d55ed99477a4437ac7d853bc42211" target="_top" xlink:title="If we are planning to use BB(aka Burst Buffer) service, we will call simple C API provided by Cray Da...">
<polygon fill="#ffffff" stroke="#000000" points="313.5703,-140.5 313.5703,-158.5 451.2939,-158.5 451.2939,-140.5 313.5703,-140.5"/>
<text text-anchor="middle" x="382.4321" y="-146.5" font-family="Helvetica,sans-Serif" font-size="10.00" fill="#000000">Ioss::DatabaseIO::openDW</text>
</a>
</g>
</g>
<!-- Node835&#45;&gt;Node845 -->
<g id="edge15" class="edge">
<title>Node835&#45;&gt;Node845</title>
<path fill="none" stroke="#191970" d="M254.8658,-259.4267C263.0578,-255.4979 271.0475,-250.5859 277.5703,-244.5 303.4392,-220.3639 286.9351,-196.7877 313.5703,-173.5 318.6293,-169.0768 324.5507,-165.4561 330.7594,-162.4952"/>
<polygon fill="#191970" stroke="#191970" points="332.1325,-165.7148 339.9946,-158.6127 329.4196,-159.2618 332.1325,-165.7148"/>
</g>
<!-- Node850 -->
<g id="node19" class="node">
<title>Node850</title>
<g id="a_node19"><a xlink:href="classIoss_1_1DatabaseIO.html#a7ebbdc09be146cd42dc26b135e494a95" target="_top" xlink:title="Ioss::DatabaseIO::using_dw">
<polygon fill="#ffffff" stroke="#000000" points="493.9614,-221.5 493.9614,-239.5 635.0298,-239.5 635.0298,-221.5 493.9614,-221.5"/>
<text text-anchor="middle" x="564.4956" y="-227.5" font-family="Helvetica,sans-Serif" font-size="10.00" fill="#000000">Ioss::DatabaseIO::using_dw</text>
</a>
</g>
</g>
<!-- Node835&#45;&gt;Node850 -->
<g id="edge24" class="edge">
<title>Node835&#45;&gt;Node850</title>
<path fill="none" stroke="#191970" d="M249.912,-259.346C259.3774,-255.2314 269.1377,-250.2634 277.5703,-244.5 296.5126,-231.5536 292.4336,-216.4252 313.5703,-207.5 369.9597,-183.689 390.3906,-201.3755 451.2939,-207.5 474.015,-209.7849 498.9196,-214.5875 519.5702,-219.2161"/>
<polygon fill="#191970" stroke="#191970" points="518.8078,-222.632 529.3379,-221.4625 520.3768,-215.8101 518.8078,-222.632"/>
</g>
<!-- Node853 -->
<g id="node22" class="node">
<title>Node853</title>
<g id="a_node22"><a xlink:href="classIoss_1_1DatabaseIO.html#a647e5041a48ca35ee03cb739333b1bf2" target="_top" xlink:title="Ioss::DatabaseIO::get\l_dwname">
<polygon fill="#ffffff" stroke="#000000" points="326.0728,-216.5 326.0728,-244.5 438.7915,-244.5 438.7915,-216.5 326.0728,-216.5"/>
<text text-anchor="start" x="334.0728" y="-232.5" font-family="Helvetica,sans-Serif" font-size="10.00" fill="#000000">Ioss::DatabaseIO::get</text>
<text text-anchor="middle" x="382.4321" y="-222.5" font-family="Helvetica,sans-Serif" font-size="10.00" fill="#000000">_dwname</text>
</a>
</g>
</g>
<!-- Node835&#45;&gt;Node853 -->
<g id="edge25" class="edge">
<title>Node835&#45;&gt;Node853</title>
<path fill="none" stroke="#191970" d="M265.7727,-259.4202C281.7278,-255.4649 299.2233,-251.1277 315.7004,-247.043"/>
<polygon fill="#191970" stroke="#191970" points="316.9412,-250.3414 325.8052,-244.538 315.2568,-243.5471 316.9412,-250.3414"/>
</g>
<!-- Node837&#45;&gt;Node838 -->
<g id="edge6" class="edge">
<title>Node837&#45;&gt;Node838</title>
<path fill="none" stroke="#191970" d="M431.7011,-326.7833C454.4613,-331.5338 481.6684,-337.2124 505.5126,-342.1892"/>
<polygon fill="#191970" stroke="#191970" points="504.9988,-345.6573 515.5029,-344.2743 506.429,-338.8049 504.9988,-345.6573"/>
</g>
<!-- Node842 -->
<g id="node11" class="node">
<title>Node842</title>
<g id="a_node11"><a xlink:href="namespaceanonymous__namespace_02Ioss__Property_8C_03.html#a7e9f404cf974920b115b502313608c02" target="_top" xlink:title="anonymous_namespace\l\{Ioss_Property::C\}::\lerror_message">
<polygon fill="#ffffff" stroke="#000000" points="502.0156,-23.5 502.0156,-61.5 626.9756,-61.5 626.9756,-23.5 502.0156,-23.5"/>
<text text-anchor="start" x="510.0156" y="-49.5" font-family="Helvetica,sans-Serif" font-size="10.00" fill="#000000">anonymous_namespace</text>
<text text-anchor="start" x="510.0156" y="-39.5" font-family="Helvetica,sans-Serif" font-size="10.00" fill="#000000">{Ioss_Property::C}::</text>
<text text-anchor="middle" x="564.4956" y="-29.5" font-family="Helvetica,sans-Serif" font-size="10.00" fill="#000000">error_message</text>
</a>
</g>
</g>
<!-- Node841&#45;&gt;Node842 -->
<g id="edge11" class="edge">
<title>Node841&#45;&gt;Node842</title>
<path fill="none" stroke="#191970" d="M432.1818,-66.4826C450.5556,-63.1523 471.776,-59.3059 491.7679,-55.6823"/>
<polygon fill="#191970" stroke="#191970" points="492.5605,-59.0957 501.776,-53.8683 491.312,-52.208 492.5605,-59.0957"/>
</g>
<!-- Node843 -->
<g id="node12" class="node">
<title>Node843</title>
<g id="a_node12"><a xlink:href="namespaceanonymous__namespace_02Ioss__Property_8C_03.html#a33c896c06915d8a83ca1d8886b26d8ed" target="_top" xlink:title="anonymous_namespace\l\{Ioss_Property::C\}::\ltype_string">
<polygon fill="#ffffff" stroke="#000000" points="677.6973,-.5 677.6973,-38.5 802.6572,-38.5 802.6572,-.5 677.6973,-.5"/>
<text text-anchor="start" x="685.6973" y="-26.5" font-family="Helvetica,sans-Serif" font-size="10.00" fill="#000000">anonymous_namespace</text>
<text text-anchor="start" x="685.6973" y="-16.5" font-family="Helvetica,sans-Serif" font-size="10.00" fill="#000000">{Ioss_Property::C}::</text>
<text text-anchor="middle" x="740.1772" y="-6.5" font-family="Helvetica,sans-Serif" font-size="10.00" fill="#000000">type_string</text>
</a>
</g>
</g>
<!-- Node842&#45;&gt;Node843 -->
<g id="edge12" class="edge">
<title>Node842&#45;&gt;Node843</title>
<path fill="none" stroke="#191970" d="M627.4245,-34.2614C640.4485,-32.5564 654.269,-30.747 667.6052,-29.001"/>
<polygon fill="#191970" stroke="#191970" points="668.2267,-32.4496 677.6877,-27.681 667.318,-25.5089 668.2267,-32.4496"/>
</g>
<!-- Node844 -->
<g id="node13" class="node">
<title>Node844</title>
<g id="a_node13"><a xlink:href="classIoss_1_1Property.html#a90c992cd11af736282e63e1c34b1c076" target="_top" xlink:title="Get the property type. ">
<polygon fill="#ffffff" stroke="#000000" points="679.3721,-57.5 679.3721,-75.5 800.9824,-75.5 800.9824,-57.5 679.3721,-57.5"/>
<text text-anchor="middle" x="740.1772" y="-63.5" font-family="Helvetica,sans-Serif" font-size="10.00" fill="#000000">Ioss::Property::get_type</text>
</a>
</g>
</g>
<!-- Node842&#45;&gt;Node844 -->
<g id="edge13" class="edge">
<title>Node842&#45;&gt;Node844</title>
<path fill="none" stroke="#191970" d="M627.4245,-51.0968C640.9723,-52.9475 655.382,-54.9161 669.2118,-56.8054"/>
<polygon fill="#191970" stroke="#191970" points="668.7772,-60.2784 679.159,-58.1642 669.7248,-53.3428 668.7772,-60.2784"/>
</g>
<!-- Node846 -->
<g id="node15" class="node">
<title>Node846</title>
<g id="a_node15"><a xlink:href="classIoss_1_1DatabaseIO.html#a38beccd1ba2407ad7c510a3fa6daa067" target="_top" xlink:title="Ioss::DatabaseIO::set\l_pfsname">
<polygon fill="#ffffff" stroke="#000000" points="508.417,-80.5 508.417,-108.5 620.5742,-108.5 620.5742,-80.5 508.417,-80.5"/>
<text text-anchor="start" x="516.417" y="-96.5" font-family="Helvetica,sans-Serif" font-size="10.00" fill="#000000">Ioss::DatabaseIO::set</text>
<text text-anchor="middle" x="564.4956" y="-86.5" font-family="Helvetica,sans-Serif" font-size="10.00" fill="#000000">_pfsname</text>
</a>
</g>
</g>
<!-- Node845&#45;&gt;Node846 -->
<g id="edge16" class="edge">
<title>Node845&#45;&gt;Node846</title>
<path fill="none" stroke="#191970" d="M417.265,-140.4515C428.2091,-137.4584 440.3025,-133.9952 451.2939,-130.5 467.5053,-125.345 471.1358,-122.8196 487.2939,-117.5 493.309,-115.5197 499.6116,-113.5204 505.9118,-111.5707"/>
<polygon fill="#191970" stroke="#191970" points="507.2284,-114.8282 515.7683,-108.5577 505.182,-108.134 507.2284,-114.8282"/>
</g>
<!-- Node845&#45;&gt;Node850 -->
<g id="edge20" class="edge">
<title>Node845&#45;&gt;Node850</title>
<path fill="none" stroke="#191970" d="M419.0131,-158.5656C429.9205,-162.2173 441.5535,-167.1132 451.2939,-173.5 471.0206,-186.4346 466.9081,-200.6316 487.2939,-212.5 490.7413,-214.507 494.3976,-216.2903 498.1714,-217.8747"/>
<polygon fill="#191970" stroke="#191970" points="497.1489,-221.2283 507.7421,-221.418 499.5794,-214.6637 497.1489,-221.2283"/>
</g>
<!-- Node851 -->
<g id="node20" class="node">
<title>Node851</title>
<g id="a_node20"><a xlink:href="classIoss_1_1DatabaseIO.html#a4a4dc5f08b09384edb478b7eadca9599" target="_top" xlink:title="We call this ONLY after we assure that using_dw() is TRUE &#160;returns mount point of Datawarp namespace...">
<polygon fill="#ffffff" stroke="#000000" points="508.1362,-174.5 508.1362,-202.5 620.855,-202.5 620.855,-174.5 508.1362,-174.5"/>
<text text-anchor="start" x="516.1362" y="-190.5" font-family="Helvetica,sans-Serif" font-size="10.00" fill="#000000">Ioss::DatabaseIO::get</text>
<text text-anchor="middle" x="564.4956" y="-180.5" font-family="Helvetica,sans-Serif" font-size="10.00" fill="#000000">_dwPath</text>
</a>
</g>
</g>
<!-- Node845&#45;&gt;Node851 -->
<g id="edge21" class="edge">
<title>Node845&#45;&gt;Node851</title>
<path fill="none" stroke="#191970" d="M424.6588,-158.5454C446.4475,-163.2128 473.5326,-169.0147 498.0466,-174.2659"/>
<polygon fill="#191970" stroke="#191970" points="497.5007,-177.7283 508.012,-176.4006 498.967,-170.8836 497.5007,-177.7283"/>
</g>
<!-- Node852 -->
<g id="node21" class="node">
<title>Node852</title>
<g id="a_node21"><a xlink:href="classIoss_1_1DatabaseIO.html#a1f57325a25c1fcd14f9f3cc9947b0b3e" target="_top" xlink:title="this will be the name in BB namespace ">
<polygon fill="#ffffff" stroke="#000000" points="508.417,-127.5 508.417,-155.5 620.5742,-155.5 620.5742,-127.5 508.417,-127.5"/>
<text text-anchor="start" x="516.417" y="-143.5" font-family="Helvetica,sans-Serif" font-size="10.00" fill="#000000">Ioss::DatabaseIO::set</text>
<text text-anchor="middle" x="564.4956" y="-133.5" font-family="Helvetica,sans-Serif" font-size="10.00" fill="#000000">_dwname</text>
</a>
</g>
</g>
<!-- Node845&#45;&gt;Node852 -->
<g id="edge22" class="edge">
<title>Node845&#45;&gt;Node852</title>
<path fill="none" stroke="#191970" d="M451.5221,-146.4641C466.7245,-145.7961 482.795,-145.09 497.8966,-144.4264"/>
<polygon fill="#191970" stroke="#191970" points="498.3376,-147.9105 508.1743,-143.9748 498.0303,-140.9172 498.3376,-147.9105"/>
</g>
<!-- Node847 -->
<g id="node16" class="node">
<title>Node847</title>
<g id="a_node16"><a xlink:href="namespaceanonymous__namespace_02io__info_8C_03.html#ac76aa36231a3291b803cc8e620fce319" target="_top" xlink:title="anonymous_namespace\l\{io_info::C\}::name">
<polygon fill="#ffffff" stroke="#000000" points="677.6973,-111.5 677.6973,-139.5 802.6572,-139.5 802.6572,-111.5 677.6973,-111.5"/>
<text text-anchor="start" x="685.6973" y="-127.5" font-family="Helvetica,sans-Serif" font-size="10.00" fill="#000000">anonymous_namespace</text>
<text text-anchor="middle" x="740.1772" y="-117.5" font-family="Helvetica,sans-Serif" font-size="10.00" fill="#000000">{io_info::C}::name</text>
</a>
</g>
</g>
<!-- Node846&#45;&gt;Node847 -->
<g id="edge17" class="edge">
<title>Node846&#45;&gt;Node847</title>
<path fill="none" stroke="#191970" d="M621.0494,-104.4792C635.8604,-107.0927 652.0365,-109.9471 667.5585,-112.686"/>
<polygon fill="#191970" stroke="#191970" points="667.1871,-116.1745 677.6432,-114.4655 668.4036,-109.281 667.1871,-116.1745"/>
</g>
<!-- Node848 -->
<g id="node17" class="node">
<title>Node848</title>
<g id="a_node17"><a xlink:href="classIoss_1_1GroupingEntity.html#adf92c4256dc89b729f4492642bc4d745" target="_top" xlink:title="Get the name of the particular type of entity. ">
<polygon fill="#ffffff" stroke="#000000" points="838.6572,-135.5 838.6572,-163.5 944.7012,-163.5 944.7012,-135.5 838.6572,-135.5"/>
<text text-anchor="start" x="846.6572" y="-151.5" font-family="Helvetica,sans-Serif" font-size="10.00" fill="#000000">Ioss::GroupingEntity</text>
<text text-anchor="middle" x="891.6792" y="-141.5" font-family="Helvetica,sans-Serif" font-size="10.00" fill="#000000">::type_string</text>
</a>
</g>
</g>
<!-- Node847&#45;&gt;Node848 -->
<g id="edge18" class="edge">
<title>Node847&#45;&gt;Node848</title>
<path fill="none" stroke="#191970" d="M802.6736,-135.4003C811.227,-136.7553 820.0131,-138.1471 828.5773,-139.5038"/>
<polygon fill="#191970" stroke="#191970" points="828.0771,-142.9681 838.5016,-141.0759 829.1724,-136.0543 828.0771,-142.9681"/>
</g>
<!-- Node849 -->
<g id="node18" class="node">
<title>Node849</title>
<g id="a_node18"><a xlink:href="classIoss_1_1GroupingEntity.html#a50d4053f49c8c3205e05d939fdc9fbc5" target="_top" xlink:title="Get name of entity. ">
<polygon fill="#ffffff" stroke="#000000" points="838.6572,-88.5 838.6572,-116.5 944.7012,-116.5 944.7012,-88.5 838.6572,-88.5"/>
<text text-anchor="start" x="846.6572" y="-104.5" font-family="Helvetica,sans-Serif" font-size="10.00" fill="#000000">Ioss::GroupingEntity</text>
<text text-anchor="middle" x="891.6792" y="-94.5" font-family="Helvetica,sans-Serif" font-size="10.00" fill="#000000">::name</text>
</a>
</g>
</g>
<!-- Node847&#45;&gt;Node849 -->
<g id="edge19" class="edge">
<title>Node847&#45;&gt;Node849</title>
<path fill="none" stroke="#191970" d="M802.6736,-116.0122C811.227,-114.7137 820.0131,-113.3799 828.5773,-112.0797"/>
<polygon fill="#191970" stroke="#191970" points="829.1402,-115.5344 838.5016,-110.5731 828.0895,-108.6137 829.1402,-115.5344"/>
</g>
<!-- Node852&#45;&gt;Node847 -->
<g id="edge23" class="edge">
<title>Node852&#45;&gt;Node847</title>
<path fill="none" stroke="#191970" d="M621.0494,-136.3494C635.8604,-135.0005 652.0365,-133.5273 667.5585,-132.1137"/>
<polygon fill="#191970" stroke="#191970" points="668.0019,-135.5879 677.6432,-131.1952 667.367,-128.6167 668.0019,-135.5879"/>
</g>
<!-- Node853&#45;&gt;Node833 -->
<g id="edge26" class="edge">
<title>Node853&#45;&gt;Node833</title>
<path fill="none" stroke="#191970" d="M402.0855,-244.6983C417.1627,-256.4061 437.6404,-274.1805 451.2939,-293.5 474.9719,-327.0039 462.5504,-345.7751 487.2939,-378.5 499.8032,-395.0442 517.6702,-409.7659 533.0658,-420.7079"/>
<polygon fill="#191970" stroke="#191970" points="531.0931,-423.599 541.3149,-426.3855 535.0618,-417.8328 531.0931,-423.599"/>
</g>
<!-- Node853&#45;&gt;Node839 -->
<g id="edge28" class="edge">
<title>Node853&#45;&gt;Node839</title>
<path fill="none" stroke="#191970" d="M439.0402,-243.8698C457.7071,-248.2786 478.6389,-253.2223 497.9762,-257.7894"/>
<polygon fill="#191970" stroke="#191970" points="497.3858,-261.2461 507.9226,-260.1385 498.9949,-254.4336 497.3858,-261.2461"/>
</g>
<!-- Node853&#45;&gt;Node850 -->
<g id="edge27" class="edge">
<title>Node853&#45;&gt;Node850</title>
<path fill="none" stroke="#191970" d="M439.0402,-230.5C453.1191,-230.5 468.4863,-230.5 483.4861,-230.5"/>
<polygon fill="#191970" stroke="#191970" points="483.7916,-234.0001 493.7916,-230.5 483.7915,-227.0001 483.7916,-234.0001"/>
</g>
<!-- Node854&#45;&gt;Node833 -->
<g id="edge42" class="edge">
<title>Node854&#45;&gt;Node833</title>
<path fill="none" stroke="#191970" d="M420.8246,-512.4271C430.9914,-508.1415 441.7794,-503.0724 451.2939,-497.5 468.7847,-487.2561 469.6055,-479.3986 487.2939,-469.5 494.6577,-465.3792 502.7228,-461.6187 510.776,-458.2711"/>
<polygon fill="#191970" stroke="#191970" points="512.1805,-461.4792 520.1815,-454.534 509.5958,-454.9739 512.1805,-461.4792"/>
</g>
<!-- Node854&#45;&gt;Node836 -->
<g id="edge30" class="edge">
<title>Node854&#45;&gt;Node836</title>
<path fill="none" stroke="#191970" d="M440.1473,-512.4406C455.4045,-509.1091 471.9092,-505.8464 487.2939,-503.5 550.2643,-493.8961 622.7436,-488.1239 673.9197,-484.918"/>
<polygon fill="#191970" stroke="#191970" points="674.4152,-488.3944 684.1833,-484.2916 673.9887,-481.4074 674.4152,-488.3944"/>
</g>
<!-- Node854&#45;&gt;Node838 -->
<g id="edge37" class="edge">
<title>Node854&#45;&gt;Node838</title>
<path fill="none" stroke="#191970" d="M399.9424,-512.2887C414.3713,-500.2224 435.0308,-482.1081 451.2939,-464.5 469.1468,-445.1707 468.9771,-436.3901 487.2939,-417.5 502.4338,-401.8863 521.3222,-386.4144 536.6262,-374.7106"/>
<polygon fill="#191970" stroke="#191970" points="538.8314,-377.4315 544.7131,-368.6192 534.6197,-371.8402 538.8314,-377.4315"/>
</g>
<!-- Node854&#45;&gt;Node839 -->
<g id="edge38" class="edge">
<title>Node854&#45;&gt;Node839</title>
<path fill="none" stroke="#191970" d="M403.798,-512.3802C419.1738,-501.1478 439.2491,-484.0989 451.2939,-464.5 483.3579,-412.327 452.9486,-382.2003 487.2939,-331.5 497.9044,-315.837 514.1625,-302.7123 529.0272,-292.9317"/>
<polygon fill="#191970" stroke="#191970" points="530.9609,-295.8503 537.565,-287.5656 527.2359,-289.9237 530.9609,-295.8503"/>
</g>
<!-- Node855 -->
<g id="node24" class="node">
<title>Node855</title>
<g id="a_node24"><a xlink:href="classIoss_1_1ParallelUtils.html#a0caf3dea894c98f32b83b705aaa1e360" target="_top" xlink:title="Ioss::ParallelUtils\l::global_minmax">
<polygon fill="#ffffff" stroke="#000000" points="518.1509,-588.5 518.1509,-616.5 610.8403,-616.5 610.8403,-588.5 518.1509,-588.5"/>
<text text-anchor="start" x="526.1509" y="-604.5" font-family="Helvetica,sans-Serif" font-size="10.00" fill="#000000">Ioss::ParallelUtils</text>
<text text-anchor="middle" x="564.4956" y="-594.5" font-family="Helvetica,sans-Serif" font-size="10.00" fill="#000000">::global_minmax</text>
</a>
</g>
</g>
<!-- Node854&#45;&gt;Node855 -->
<g id="edge31" class="edge">
<title>Node854&#45;&gt;Node855</title>
<path fill="none" stroke="#191970" d="M412.5032,-540.5745C433.3511,-550.1849 461.8337,-563.0241 487.2939,-573.5 496.5292,-577.2999 506.463,-581.182 516.0292,-584.8194"/>
<polygon fill="#191970" stroke="#191970" points="514.8414,-588.112 525.4333,-588.3631 517.3098,-581.5617 514.8414,-588.112"/>
</g>
<!-- Node859 -->
<g id="node28" class="node">
<title>Node859</title>
<g id="a_node28"><a xlink:href="classIoss_1_1ParallelUtils.html#a6dc17211b6215cdf25671205024b3f08" target="_top" xlink:title="Ioss::ParallelUtils\l::all_gather">
<polygon fill="#ffffff" stroke="#000000" points="518.1509,-635.5 518.1509,-663.5 610.8403,-663.5 610.8403,-635.5 518.1509,-635.5"/>
<text text-anchor="start" x="526.1509" y="-651.5" font-family="Helvetica,sans-Serif" font-size="10.00" fill="#000000">Ioss::ParallelUtils</text>
<text text-anchor="middle" x="564.4956" y="-641.5" font-family="Helvetica,sans-Serif" font-size="10.00" fill="#000000">::all_gather</text>
</a>
</g>
</g>
<!-- Node854&#45;&gt;Node859 -->
<g id="edge35" class="edge">
<title>Node854&#45;&gt;Node859</title>
<path fill="none" stroke="#191970" d="M393.4352,-540.6222C410.9985,-562.2267 447.472,-603.4019 487.2939,-626.5 493.7812,-630.2628 500.9382,-633.4585 508.1997,-636.1594"/>
<polygon fill="#191970" stroke="#191970" points="507.5188,-639.6252 518.1133,-639.5427 509.7797,-633.0004 507.5188,-639.6252"/>
</g>
<!-- Node860 -->
<g id="node29" class="node">
<title>Node860</title>
<g id="a_node29"><a xlink:href="classIoss_1_1ParallelUtils.html#a795617c394bd2bc1b68a15a006981971" target="_top" xlink:title="Ioss::ParallelUtils\l::parallel_size">
<polygon fill="#ffffff" stroke="#000000" points="693.8325,-509.5 693.8325,-537.5 786.522,-537.5 786.522,-509.5 693.8325,-509.5"/>
<text text-anchor="start" x="701.8325" y="-525.5" font-family="Helvetica,sans-Serif" font-size="10.00" fill="#000000">Ioss::ParallelUtils</text>
<text text-anchor="middle" x="740.1772" y="-515.5" font-family="Helvetica,sans-Serif" font-size="10.00" fill="#000000">::parallel_size</text>
</a>
</g>
</g>
<!-- Node854&#45;&gt;Node860 -->
<g id="edge36" class="edge">
<title>Node854&#45;&gt;Node860</title>
<path fill="none" stroke="#191970" d="M442.46,-535.9073C457.0913,-537.8147 472.7246,-539.5317 487.2939,-540.5 555.7666,-545.0507 573.3241,-546.3581 641.6973,-540.5 655.3349,-539.3316 669.9195,-537.2688 683.5723,-534.974"/>
<polygon fill="#191970" stroke="#191970" points="684.5527,-538.3557 693.8,-533.1848 683.3464,-531.4604 684.5527,-538.3557"/>
</g>
<!-- Node861 -->
<g id="node30" class="node">
<title>Node861</title>
<g id="a_node30"><a xlink:href="classIoss_1_1DatabaseIO.html#aceccfba755333cf8af271ba5dcc659c4" target="_top" xlink:title="Ioss::DatabaseIO::parallel_size">
<polygon fill="#ffffff" stroke="#000000" points="487.2939,-512.5 487.2939,-530.5 641.6973,-530.5 641.6973,-512.5 487.2939,-512.5"/>
<text text-anchor="middle" x="564.4956" y="-518.5" font-family="Helvetica,sans-Serif" font-size="10.00" fill="#000000">Ioss::DatabaseIO::parallel_size</text>
</a>
</g>
</g>
<!-- Node854&#45;&gt;Node861 -->
<g id="edge39" class="edge">
<title>Node854&#45;&gt;Node861</title>
<path fill="none" stroke="#191970" d="M442.5511,-524.849C453.6062,-524.5453 465.3516,-524.2228 477.019,-523.9024"/>
<polygon fill="#191970" stroke="#191970" points="477.3326,-527.3952 487.2327,-523.6219 477.1404,-520.3978 477.3326,-527.3952"/>
</g>
<!-- Node862 -->
<g id="node31" class="node">
<title>Node862</title>
<g id="a_node31"><a xlink:href="namespaceIodw_1_1Utils.html#a87e044777c87d6496718621a3e274dc4" target="_top" xlink:title="Iodw::Utils::msg">
<polygon fill="#ffffff" stroke="#000000" points="521.21,-682.5 521.21,-700.5 607.7813,-700.5 607.7813,-682.5 521.21,-682.5"/>
<text text-anchor="middle" x="564.4956" y="-688.5" font-family="Helvetica,sans-Serif" font-size="10.00" fill="#000000">Iodw::Utils::msg</text>
</a>
</g>
</g>
<!-- Node854&#45;&gt;Node862 -->
<g id="edge43" class="edge">
<title>Node854&#45;&gt;Node862</title>
<path fill="none" stroke="#191970" d="M388.3978,-540.8491C401.5453,-570.6096 435.9816,-639.1349 487.2939,-673.5 494.4444,-678.2888 502.7078,-681.8121 511.1139,-684.4025"/>
<polygon fill="#191970" stroke="#191970" points="510.4252,-687.841 520.9893,-687.0346 512.2281,-681.0772 510.4252,-687.841"/>
</g>
<!-- Node856 -->
<g id="node25" class="node">
<title>Node856</title>
<g id="a_node25"><a xlink:href="classIoss_1_1SerializeIO.html#a5d68f99aed4918df6020bda04222b97f" target="_top" xlink:title="Ioss::SerializeIO::\lisEnabled">
<polygon fill="#ffffff" stroke="#000000" points="692.9976,-603.5 692.9976,-631.5 787.3569,-631.5 787.3569,-603.5 692.9976,-603.5"/>
<text text-anchor="start" x="700.9976" y="-619.5" font-family="Helvetica,sans-Serif" font-size="10.00" fill="#000000">Ioss::SerializeIO::</text>
<text text-anchor="middle" x="740.1772" y="-609.5" font-family="Helvetica,sans-Serif" font-size="10.00" fill="#000000">isEnabled</text>
</a>
</g>
</g>
<!-- Node855&#45;&gt;Node856 -->
<g id="edge32" class="edge">
<title>Node855&#45;&gt;Node856</title>
<path fill="none" stroke="#191970" d="M611.1138,-606.4803C633.0741,-608.3554 659.4799,-610.6099 682.6702,-612.5899"/>
<polygon fill="#191970" stroke="#191970" points="682.4678,-616.0853 692.7293,-613.4488 683.0634,-609.1107 682.4678,-616.0853"/>
</g>
<!-- Node857 -->
<g id="node26" class="node">
<title>Node857</title>
<g id="a_node26"><a xlink:href="classIoss_1_1SerializeIO.html#a85299d763408cb35c3c000f02e08ede0" target="_top" xlink:title="Ioss::SerializeIO::\linBarrier">
<polygon fill="#ffffff" stroke="#000000" points="692.9976,-556.5 692.9976,-584.5 787.3569,-584.5 787.3569,-556.5 692.9976,-556.5"/>
<text text-anchor="start" x="700.9976" y="-572.5" font-family="Helvetica,sans-Serif" font-size="10.00" fill="#000000">Ioss::SerializeIO::</text>
<text text-anchor="middle" x="740.1772" y="-562.5" font-family="Helvetica,sans-Serif" font-size="10.00" fill="#000000">inBarrier</text>
</a>
</g>
</g>
<!-- Node855&#45;&gt;Node857 -->
<g id="edge33" class="edge">
<title>Node855&#45;&gt;Node857</title>
<path fill="none" stroke="#191970" d="M611.1138,-594.0086C633.0741,-590.0086 659.4799,-585.1988 682.6702,-580.9748"/>
<polygon fill="#191970" stroke="#191970" points="683.5184,-584.3779 692.7293,-579.1425 682.264,-577.4913 683.5184,-584.3779"/>
</g>
<!-- Node858 -->
<g id="node27" class="node">
<title>Node858</title>
<g id="a_node27"><a xlink:href="classIoss_1_1SerializeIO.html#ac7468ed4a5f858ffb502c3132e3e87b6" target="_top" xlink:title="Ioss::SerializeIO::\lgetOwner">
<polygon fill="#ffffff" stroke="#000000" points="692.9976,-650.5 692.9976,-678.5 787.3569,-678.5 787.3569,-650.5 692.9976,-650.5"/>
<text text-anchor="start" x="700.9976" y="-666.5" font-family="Helvetica,sans-Serif" font-size="10.00" fill="#000000">Ioss::SerializeIO::</text>
<text text-anchor="middle" x="740.1772" y="-656.5" font-family="Helvetica,sans-Serif" font-size="10.00" fill="#000000">getOwner</text>
</a>
</g>
</g>
<!-- Node855&#45;&gt;Node858 -->
<g id="edge34" class="edge">
<title>Node855&#45;&gt;Node858</title>
<path fill="none" stroke="#191970" d="M610.861,-616.1421C621.0782,-619.3624 631.8018,-622.9092 641.6973,-626.5 657.991,-632.4126 661.5606,-635.1713 677.6973,-641.5 682.1697,-643.2541 686.8369,-645.0448 691.5175,-646.8141"/>
<polygon fill="#191970" stroke="#191970" points="690.4939,-650.1681 701.0863,-650.3971 692.9486,-643.6126 690.4939,-650.1681"/>
</g>
<!-- Node861&#45;&gt;Node836 -->
<g id="edge40" class="edge">
<title>Node861&#45;&gt;Node836</title>
<path fill="none" stroke="#191970" d="M604.3605,-512.4234C629.9672,-506.5931 663.4202,-498.9764 690.7176,-492.7612"/>
<polygon fill="#191970" stroke="#191970" points="691.4967,-496.1735 700.4701,-490.5407 689.9426,-489.3481 691.4967,-496.1735"/>
</g>
<!-- Node861&#45;&gt;Node860 -->
<g id="edge41" class="edge">
<title>Node861&#45;&gt;Node860</title>
<path fill="none" stroke="#191970" d="M641.8078,-522.3801C655.7545,-522.5389 670.0603,-522.7018 683.2918,-522.8524"/>
<polygon fill="#191970" stroke="#191970" points="683.6061,-526.3561 693.6454,-522.9703 683.6859,-519.3566 683.6061,-526.3561"/>
</g>
</g>
</svg>
        <g id="navigator" transform="translate(0 0)" fill="#404254">
                <rect fill="#f2f5e9" fill-opacity="0.5" stroke="#606060" stroke-width=".5" x="0" y="0" width="60" height="60"/>
                <use id="zoomplus" xlink:href="#zoomPlus" x="17" y="9" onmousedown="handleZoom(evt,'in')"/>
                <use id="zoomminus" xlink:href="#zoomMin" x="42" y="9" onmousedown="handleZoom(evt,'out')"/>
                <use id="reset" xlink:href="#resetDef" x="30" y="36" onmousedown="handleReset()"/>
                <g id="arrowUp" xlink:href="#dirArrow" transform="translate(30 24)" onmousedown="handlePan(0,-1)">
                  <use xlink:href="#rim" fill="#404040">
                        <set attributeName="fill" to="#808080" begin="arrowUp.mouseover" end="arrowUp.mouseout"/>
                  </use>
                  <path fill="none" stroke="white" stroke-width="1.5" d="M0,-3.0v7 M-2.5,-0.5L0,-3.0L2.5,-0.5"/>
                </g>
                <g id="arrowRight" xlink:href="#dirArrow" transform="rotate(90) translate(36 -43)" onmousedown="handlePan(1,0)">
                  <use xlink:href="#rim" fill="#404040">
                        <set attributeName="fill" to="#808080" begin="arrowRight.mouseover" end="arrowRight.mouseout"/>
                  </use>
                  <path fill="none" stroke="white" stroke-width="1.5" d="M0,-3.0v7 M-2.5,-0.5L0,-3.0L2.5,-0.5"/>
                </g>
                <g id="arrowDown" xlink:href="#dirArrow" transform="rotate(180) translate(-30 -48)" onmousedown="handlePan(0,1)">
                  <use xlink:href="#rim" fill="#404040">
                        <set attributeName="fill" to="#808080" begin="arrowDown.mouseover" end="arrowDown.mouseout"/>
                  </use>
                  <path fill="none" stroke="white" stroke-width="1.5" d="M0,-3.0v7 M-2.5,-0.5L0,-3.0L2.5,-0.5"/>
                </g>
                <g id="arrowLeft" xlink:href="#dirArrow" transform="rotate(270) translate(-36 17)" onmousedown="handlePan(-1,0)">
                  <use xlink:href="#rim" fill="#404040">
                        <set attributeName="fill" to="#808080" begin="arrowLeft.mouseover" end="arrowLeft.mouseout"/>
                  </use>
                  <path fill="none" stroke="white" stroke-width="1.5" d="M0,-3.0v7 M-2.5,-0.5L0,-3.0L2.5,-0.5"/>
                </g>
        </g>
        <svg viewBox="0 0 15 15" width="100%" height="30px" preserveAspectRatio="xMaxYMin meet">
         <g id="arrow_out" transform="scale(0.3 0.3)">
          <a xlink:href="classIocgns_1_1DatabaseIO_a7ec7460e9012476c2ce023b4be3bb34c_cgraph_org.svg" target="_base">
           <rect id="button" ry="5" rx="5" y="6" x="6" height="38" width="38"
                fill="#f2f5e9" fill-opacity="0.5" stroke="#606060" stroke-width="1.0"/>
           <path id="arrow"
             d="M 11.500037,31.436501 C 11.940474,20.09759 22.043105,11.32322 32.158766,21.979434 L 37.068811,17.246167 C 37.068811,17.246167 37.088388,32 37.088388,32 L 22.160133,31.978069 C 22.160133,31.978069 26.997745,27.140456 26.997745,27.140456 C 18.528582,18.264221 13.291696,25.230495 11.500037,31.436501 z"
             style="fill:#404040;"/>
          </a>
         </g>
        </svg>
</svg>
