<?xml version="1.0" encoding="UTF-8" standalone="no"?>
<!DOCTYPE svg PUBLIC "-//W3C//DTD SVG 1.1//EN"
 "http://www.w3.org/Graphics/SVG/1.1/DTD/svg11.dtd">
<!-- Generated by graphviz version 2.40.1 (20161225.0304)
 -->
<!-- Title: Ioss::DatabaseIO::create_group Pages: 1 -->
<svg width="617pt" height="84pt"
 viewBox="0.00 0.00 617.46 84.00" xmlns="http://www.w3.org/2000/svg" xmlns:xlink="http://www.w3.org/1999/xlink">
<g id="graph0" class="graph" transform="scale(1 1) rotate(0) translate(4 80)">
<title>Ioss::DatabaseIO::create_group</title>
<polygon fill="#ffffff" stroke="transparent" points="-4,4 -4,-80 613.4609,-80 613.4609,4 -4,4"/>
<!-- Node296 -->
<g id="node1" class="node">
<title>Node296</title>
<polygon fill="#bfbfbf" stroke="#000000" points="0,-23.5 0,-51.5 126.6104,-51.5 126.6104,-23.5 0,-23.5"/>
<text text-anchor="start" x="8" y="-39.5" font-family="Helvetica,sans-Serif" font-size="10.00" fill="#000000">Ioss::DatabaseIO::create</text>
<text text-anchor="middle" x="63.3052" y="-29.5" font-family="Helvetica,sans-Serif" font-size="10.00" fill="#000000">_group</text>
</g>
<!-- Node297 -->
<g id="node2" class="node">
<title>Node297</title>
<g id="a_node2"><a xlink:href="classIoss_1_1DatabaseIO.html#a917be08e6a067bddfb5d15f39c6aebb0" target="_top" xlink:title="Ioss::DatabaseIO::create\l_groups">
<polygon fill="#ffffff" stroke="#000000" points="162.6104,-23.5 162.6104,-51.5 289.2207,-51.5 289.2207,-23.5 162.6104,-23.5"/>
<text text-anchor="start" x="170.6104" y="-39.5" font-family="Helvetica,sans-Serif" font-size="10.00" fill="#000000">Ioss::DatabaseIO::create</text>
<text text-anchor="middle" x="225.9155" y="-29.5" font-family="Helvetica,sans-Serif" font-size="10.00" fill="#000000">_groups</text>
</a>
</g>
</g>
<!-- Node296&#45;&gt;Node297 -->
<g id="edge1" class="edge">
<title>Node296&#45;&gt;Node297</title>
<path fill="none" stroke="#191970" d="M136.6743,-37.5C145.2888,-37.5 154.0232,-37.5 162.4859,-37.5"/>
<polygon fill="#191970" stroke="#191970" points="136.6402,-34.0001 126.6402,-37.5 136.6402,-41.0001 136.6402,-34.0001"/>
</g>
<!-- Node298 -->
<g id="node3" class="node">
<title>Node298</title>
<g id="a_node3"><a xlink:href="classIoss_1_1DatabaseIO.html#a4c87b440fd3d95dc9bebd52ada1e7608" target="_top" xlink:title="Ioss::DatabaseIO::handle\l_groups">
<polygon fill="#ffffff" stroke="#000000" points="325.2207,-23.5 325.2207,-51.5 454.0674,-51.5 454.0674,-23.5 325.2207,-23.5"/>
<text text-anchor="start" x="333.2207" y="-39.5" font-family="Helvetica,sans-Serif" font-size="10.00" fill="#000000">Ioss::DatabaseIO::handle</text>
<text text-anchor="middle" x="389.644" y="-29.5" font-family="Helvetica,sans-Serif" font-size="10.00" fill="#000000">_groups</text>
</a>
</g>
</g>
<!-- Node297&#45;&gt;Node298 -->
<g id="edge2" class="edge">
<title>Node297&#45;&gt;Node298</title>
<path fill="none" stroke="#191970" d="M299.8341,-37.5C308.219,-37.5 316.7161,-37.5 324.9691,-37.5"/>
<polygon fill="#191970" stroke="#191970" points="299.6861,-34.0001 289.6861,-37.5 299.686,-41.0001 299.6861,-34.0001"/>
</g>
<!-- Node299 -->
<g id="node4" class="node">
<title>Node299</title>
<g id="a_node4"><a xlink:href="classIofx_1_1DatabaseIO.html#a79b188c0f0320a9656ad80866af72fb6" target="_top" xlink:title="Iofx::DatabaseIO::read\l_meta_data__">
<polygon fill="#ffffff" stroke="#000000" points="491.459,-47.5 491.459,-75.5 608.0693,-75.5 608.0693,-47.5 491.459,-47.5"/>
<text text-anchor="start" x="499.459" y="-63.5" font-family="Helvetica,sans-Serif" font-size="10.00" fill="#000000">Iofx::DatabaseIO::read</text>
<text text-anchor="middle" x="549.7642" y="-53.5" font-family="Helvetica,sans-Serif" font-size="10.00" fill="#000000">_meta_data__</text>
</a>
</g>
</g>
<!-- Node298&#45;&gt;Node299 -->
<g id="edge3" class="edge">
<title>Node298&#45;&gt;Node299</title>
<path fill="none" stroke="#191970" d="M464.4359,-48.7104C473.4605,-50.063 482.5747,-51.4291 491.3173,-52.7395"/>
<polygon fill="#191970" stroke="#191970" points="464.7179,-45.2136 454.3095,-47.1925 463.6802,-52.1363 464.7179,-45.2136"/>
</g>
<!-- Node300 -->
<g id="node5" class="node">
<title>Node300</title>
<g id="a_node5"><a xlink:href="classIopx_1_1DatabaseIO.html#aa5fbe815a5233885cb3491ee0de291a4" target="_top" xlink:title="Iopx::DatabaseIO::read\l_meta_data__">
<polygon fill="#ffffff" stroke="#000000" points="490.0674,-.5 490.0674,-28.5 609.4609,-28.5 609.4609,-.5 490.0674,-.5"/>
<text text-anchor="start" x="498.0674" y="-16.5" font-family="Helvetica,sans-Serif" font-size="10.00" fill="#000000">Iopx::DatabaseIO::read</text>
<text text-anchor="middle" x="549.7642" y="-6.5" font-family="Helvetica,sans-Serif" font-size="10.00" fill="#000000">_meta_data__</text>
</a>
</g>
</g>
<!-- Node298&#45;&gt;Node300 -->
<g id="edge4" class="edge">
<title>Node298&#45;&gt;Node300</title>
<path fill="none" stroke="#191970" d="M464.3553,-26.7683C472.9658,-25.5315 481.6592,-24.2827 490.0346,-23.0797"/>
<polygon fill="#191970" stroke="#191970" points="463.7102,-23.325 454.3095,-28.2113 464.7056,-30.2538 463.7102,-23.325"/>
</g>
</g>
</svg>
