<?xml version="1.0" encoding="UTF-8" standalone="no"?>
<!DOCTYPE svg PUBLIC "-//W3C//DTD SVG 1.1//EN"
 "http://www.w3.org/Graphics/SVG/1.1/DTD/svg11.dtd">
<!-- Generated by graphviz version 2.40.1 (20161225.0304)
 -->
<!-- Title: Iogs::GeneratedMesh::raw_element_map Pages: 1 -->
<svg width="429pt" height="58pt"
 viewBox="0.00 0.00 429.29 58.00" xmlns="http://www.w3.org/2000/svg" xmlns:xlink="http://www.w3.org/1999/xlink">
<g id="graph0" class="graph" transform="scale(1 1) rotate(0) translate(4 54)">
<title>Iogs::GeneratedMesh::raw_element_map</title>
<polygon fill="#ffffff" stroke="transparent" points="-4,4 -4,-54 425.2891,-54 425.2891,4 -4,4"/>
<!-- Node187 -->
<g id="node1" class="node">
<title>Node187</title>
<polygon fill="#bfbfbf" stroke="#000000" points="0,-21.5 0,-49.5 112.167,-49.5 112.167,-21.5 0,-21.5"/>
<text text-anchor="start" x="8" y="-37.5" font-family="Helvetica,sans-Serif" font-size="10.00" fill="#000000">Iogs::GeneratedMesh</text>
<text text-anchor="middle" x="56.0835" y="-27.5" font-family="Helvetica,sans-Serif" font-size="10.00" fill="#000000">::raw_element_map</text>
</g>
<!-- Node188 -->
<g id="node2" class="node">
<title>Node188</title>
<g id="a_node2"><a xlink:href="$classIogs_1_1GeneratedMesh.html#a21bd946f45f556c3d14f9f88ef4a391f" xlink:title="Iogs::GeneratedMesh\l::structured_block_count">
<polygon fill="#ffffff" stroke="#000000" points="296.3389,-21.5 296.3389,-49.5 421.2891,-49.5 421.2891,-21.5 296.3389,-21.5"/>
<text text-anchor="start" x="304.3389" y="-37.5" font-family="Helvetica,sans-Serif" font-size="10.00" fill="#000000">Iogs::GeneratedMesh</text>
<text text-anchor="middle" x="358.814" y="-27.5" font-family="Helvetica,sans-Serif" font-size="10.00" fill="#000000">::structured_block_count</text>
</a>
</g>
</g>
<!-- Node187&#45;&gt;Node188 -->
<g id="edge1" class="edge">
<title>Node187&#45;&gt;Node188</title>
<path fill="none" stroke="#191970" d="M112.5663,-37.6309C124.3302,-37.9931 136.652,-38.3125 148.167,-38.5 198.0145,-39.3118 210.4905,-39.2591 260.3389,-38.5 268.6976,-38.3727 277.4541,-38.1847 286.1517,-37.9637"/>
<polygon fill="#191970" stroke="#191970" points="286.4053,-41.4583 296.3076,-37.6909 286.2172,-34.4608 286.4053,-41.4583"/>
</g>
<!-- Node189 -->
<g id="node3" class="node">
<title>Node189</title>
<g id="a_node3"><a xlink:href="$classIogs_1_1GeneratedMesh.html#abae3de064c139fd5e2ef017632354d95" xlink:title="Iogs::GeneratedMesh\l::element_count_proc">
<polygon fill="#ffffff" stroke="#000000" points="148.167,-.5 148.167,-28.5 260.3389,-28.5 260.3389,-.5 148.167,-.5"/>
<text text-anchor="start" x="156.167" y="-16.5" font-family="Helvetica,sans-Serif" font-size="10.00" fill="#000000">Iogs::GeneratedMesh</text>
<text text-anchor="middle" x="204.2529" y="-6.5" font-family="Helvetica,sans-Serif" font-size="10.00" fill="#000000">::element_count_proc</text>
</a>
</g>
</g>
<!-- Node187&#45;&gt;Node189 -->
<g id="edge2" class="edge">
<title>Node187&#45;&gt;Node189</title>
<path fill="none" stroke="#191970" d="M112.5227,-27.5009C120.8696,-26.3179 129.5338,-25.0899 138.0572,-23.8819"/>
<polygon fill="#191970" stroke="#191970" points="138.5608,-27.3456 147.9707,-22.4769 137.5784,-20.4149 138.5608,-27.3456"/>
</g>
<!-- Node189&#45;&gt;Node188 -->
<g id="edge3" class="edge">
<title>Node189&#45;&gt;Node188</title>
<path fill="none" stroke="#191970" d="M260.4902,-22.1409C268.8034,-23.2704 277.4682,-24.4477 286.0581,-25.6148"/>
<polygon fill="#191970" stroke="#191970" points="285.7019,-29.0984 296.0821,-26.9767 286.6444,-22.1622 285.7019,-29.0984"/>
</g>
</g>
</svg>
