<?xml version="1.0" encoding="UTF-8" standalone="no"?>
<!DOCTYPE svg PUBLIC "-//W3C//DTD SVG 1.1//EN"
 "http://www.w3.org/Graphics/SVG/1.1/DTD/svg11.dtd">
<!-- Generated by graphviz version 2.40.1 (20161225.0304)
 -->
<!-- Title: Ioss::GetLongOption::setcell Pages: 1 -->
<svg width="419pt" height="84pt"
 viewBox="0.00 0.00 418.73 84.00" xmlns="http://www.w3.org/2000/svg" xmlns:xlink="http://www.w3.org/1999/xlink">
<g id="graph0" class="graph" transform="scale(1 1) rotate(0) translate(4 80)">
<title>Ioss::GetLongOption::setcell</title>
<polygon fill="#ffffff" stroke="transparent" points="-4,4 -4,-80 414.7275,-80 414.7275,4 -4,4"/>
<!-- Node25 -->
<g id="node1" class="node">
<title>Node25</title>
<polygon fill="#bfbfbf" stroke="#000000" points="0,-23.5 0,-51.5 107.7236,-51.5 107.7236,-23.5 0,-23.5"/>
<text text-anchor="start" x="8" y="-39.5" font-family="Helvetica,sans-Serif" font-size="10.00" fill="#000000">Ioss::GetLongOption</text>
<text text-anchor="middle" x="53.8618" y="-29.5" font-family="Helvetica,sans-Serif" font-size="10.00" fill="#000000">::setcell</text>
</g>
<!-- Node26 -->
<g id="node2" class="node">
<title>Node26</title>
<g id="a_node2"><a xlink:href="namespaceanonymous__namespace_02io__info_8C_03.html#ac76aa36231a3291b803cc8e620fce319" target="_top" xlink:title="anonymous_namespace\l\{io_info::C\}::name">
<polygon fill="#ffffff" stroke="#000000" points="143.7236,-23.5 143.7236,-51.5 268.6836,-51.5 268.6836,-23.5 143.7236,-23.5"/>
<text text-anchor="start" x="151.7236" y="-39.5" font-family="Helvetica,sans-Serif" font-size="10.00" fill="#000000">anonymous_namespace</text>
<text text-anchor="middle" x="206.2036" y="-29.5" font-family="Helvetica,sans-Serif" font-size="10.00" fill="#000000">{io_info::C}::name</text>
</a>
</g>
</g>
<!-- Node25&#45;&gt;Node26 -->
<g id="edge1" class="edge">
<title>Node25&#45;&gt;Node26</title>
<path fill="none" stroke="#191970" d="M108.0008,-37.5C116.2991,-37.5 124.9792,-37.5 133.5982,-37.5"/>
<polygon fill="#191970" stroke="#191970" points="133.6617,-41.0001 143.6616,-37.5 133.6616,-34.0001 133.6617,-41.0001"/>
</g>
<!-- Node27 -->
<g id="node3" class="node">
<title>Node27</title>
<g id="a_node3"><a xlink:href="classIoss_1_1GroupingEntity.html#adf92c4256dc89b729f4492642bc4d745" target="_top" xlink:title="Get the name of the particular type of entity. ">
<polygon fill="#ffffff" stroke="#000000" points="304.6836,-47.5 304.6836,-75.5 410.7275,-75.5 410.7275,-47.5 304.6836,-47.5"/>
<text text-anchor="start" x="312.6836" y="-63.5" font-family="Helvetica,sans-Serif" font-size="10.00" fill="#000000">Ioss::GroupingEntity</text>
<text text-anchor="middle" x="357.7056" y="-53.5" font-family="Helvetica,sans-Serif" font-size="10.00" fill="#000000">::type_string</text>
</a>
</g>
</g>
<!-- Node26&#45;&gt;Node27 -->
<g id="edge2" class="edge">
<title>Node26&#45;&gt;Node27</title>
<path fill="none" stroke="#191970" d="M268.6999,-47.4003C277.2534,-48.7553 286.0395,-50.1471 294.6036,-51.5038"/>
<polygon fill="#191970" stroke="#191970" points="294.1035,-54.9681 304.528,-53.0759 295.1988,-48.0543 294.1035,-54.9681"/>
</g>
<!-- Node28 -->
<g id="node4" class="node">
<title>Node28</title>
<g id="a_node4"><a xlink:href="classIoss_1_1GroupingEntity.html#a50d4053f49c8c3205e05d939fdc9fbc5" target="_top" xlink:title="Get name of entity. ">
<polygon fill="#ffffff" stroke="#000000" points="304.6836,-.5 304.6836,-28.5 410.7275,-28.5 410.7275,-.5 304.6836,-.5"/>
<text text-anchor="start" x="312.6836" y="-16.5" font-family="Helvetica,sans-Serif" font-size="10.00" fill="#000000">Ioss::GroupingEntity</text>
<text text-anchor="middle" x="357.7056" y="-6.5" font-family="Helvetica,sans-Serif" font-size="10.00" fill="#000000">::name</text>
</a>
</g>
</g>
<!-- Node26&#45;&gt;Node28 -->
<g id="edge3" class="edge">
<title>Node26&#45;&gt;Node28</title>
<path fill="none" stroke="#191970" d="M268.6999,-28.0122C277.2534,-26.7137 286.0395,-25.3799 294.6036,-24.0797"/>
<polygon fill="#191970" stroke="#191970" points="295.1666,-27.5344 304.528,-22.5731 294.1159,-20.6137 295.1666,-27.5344"/>
</g>
</g>
</svg>
