<?xml version="1.0" encoding="UTF-8" standalone="no"?>
<!DOCTYPE svg PUBLIC "-//W3C//DTD SVG 1.1//EN"
 "http://www.w3.org/Graphics/SVG/1.1/DTD/svg11.dtd">
<!-- Generated by graphviz version 2.40.1 (20161225.0304)
 -->
<!-- Title: tsl::rh::power_of_two_growth_policy::is_power_of_two Pages: 1 -->
<svg width="312pt" height="47pt"
 viewBox="0.00 0.00 312.26 47.00" xmlns="http://www.w3.org/2000/svg" xmlns:xlink="http://www.w3.org/1999/xlink">
<g id="graph0" class="graph" transform="scale(1 1) rotate(0) translate(4 43)">
<title>tsl::rh::power_of_two_growth_policy::is_power_of_two</title>
<polygon fill="#ffffff" stroke="transparent" points="-4,4 -4,-43 308.2646,-43 308.2646,4 -4,4"/>
<!-- Node7 -->
<g id="node1" class="node">
<title>Node7</title>
<polygon fill="#bfbfbf" stroke="#000000" points="0,-.5 0,-38.5 128.2803,-38.5 128.2803,-.5 0,-.5"/>
<text text-anchor="start" x="8" y="-26.5" font-family="Helvetica,sans-Serif" font-size="10.00" fill="#000000">tsl::rh::power_of_two</text>
<text text-anchor="start" x="8" y="-16.5" font-family="Helvetica,sans-Serif" font-size="10.00" fill="#000000">_growth_policy::is_power</text>
<text text-anchor="middle" x="64.1401" y="-6.5" font-family="Helvetica,sans-Serif" font-size="10.00" fill="#000000">_of_two</text>
</g>
<!-- Node8 -->
<g id="node2" class="node">
<title>Node8</title>
<g id="a_node2"><a xlink:href="classtsl_1_1rh_1_1power__of__two__growth__policy.html#a8b437c7a824579a9f051c843d7bd0cb6" target="_top" xlink:title="tsl::rh::power_of_two\l_growth_policy\&lt; 2 \&gt;::\lround_up_to_power_of_two">
<polygon fill="#ffffff" stroke="#000000" points="164.2803,-.5 164.2803,-38.5 304.2646,-38.5 304.2646,-.5 164.2803,-.5"/>
<text text-anchor="start" x="172.2803" y="-26.5" font-family="Helvetica,sans-Serif" font-size="10.00" fill="#000000">tsl::rh::power_of_two</text>
<text text-anchor="start" x="172.2803" y="-16.5" font-family="Helvetica,sans-Serif" font-size="10.00" fill="#000000">_growth_policy&lt; 2 &gt;::</text>
<text text-anchor="middle" x="234.2725" y="-6.5" font-family="Helvetica,sans-Serif" font-size="10.00" fill="#000000">round_up_to_power_of_two</text>
</a>
</g>
</g>
<!-- Node7&#45;&gt;Node8 -->
<g id="edge1" class="edge">
<title>Node7&#45;&gt;Node8</title>
<path fill="none" stroke="#191970" d="M138.6944,-19.5C147.1611,-19.5 155.7689,-19.5 164.1754,-19.5"/>
<polygon fill="#191970" stroke="#191970" points="138.4599,-16.0001 128.4599,-19.5 138.4598,-23.0001 138.4599,-16.0001"/>
</g>
</g>
</svg>
