<?xml version="1.0" encoding="UTF-8" standalone="no"?>
<!DOCTYPE svg PUBLIC "-//W3C//DTD SVG 1.1//EN"
 "http://www.w3.org/Graphics/SVG/1.1/DTD/svg11.dtd">
<!-- Generated by graphviz version 2.40.1 (20161225.0304)
 -->
<!-- Title: Ioex::DatabaseIO::get_field_internal Pages: 1 -->
<!--zoomable 178 -->
<svg id="main" version="1.1" xmlns="http://www.w3.org/2000/svg" xmlns:xlink="http://www.w3.org/1999/xlink" xml:space="preserve" onload="init(evt)">
<style type="text/css"><![CDATA[
.edge:hover path { stroke: red; }
.edge:hover polygon { stroke: red; fill: red; }
]]></style>
<script type="text/javascript"><![CDATA[
var edges = document.getElementsByTagName('g');
if (edges && edges.length) {
  for (var i=0;i<edges.length;i++) {
    if (edges[i].id.substr(0,4)=='edge') {
      edges[i].setAttribute('class','edge');
    }
  }
}
]]></script>
        <defs>
                <circle id="rim" cx="0" cy="0" r="7"/>
                <circle id="rim2" cx="0" cy="0" r="3.5"/>
                <g id="zoomPlus">
                        <use xlink:href="#rim" fill="#404040">
                                <set attributeName="fill" to="#808080" begin="zoomplus.mouseover" end="zoomplus.mouseout"/>
                        </use>
                        <path d="M-4,0h8M0,-4v8" fill="none" stroke="white" stroke-width="1.5" pointer-events="none"/>
                </g>
                <g id="zoomMin">
                        <use xlink:href="#rim" fill="#404040">
                                <set attributeName="fill" to="#808080" begin="zoomminus.mouseover" end="zoomminus.mouseout"/>
                        </use>
                        <path d="M-4,0h8" fill="none" stroke="white" stroke-width="1.5" pointer-events="none"/>
                </g>
                <g id="dirArrow">
                        <path fill="none" stroke="white" stroke-width="1.5" d="M0,-3.0v7 M-2.5,-0.5L0,-3.0L2.5,-0.5"/>
                </g>
               <g id="resetDef">
                       <use xlink:href="#rim2" fill="#404040">
                               <set attributeName="fill" to="#808080" begin="reset.mouseover" end="reset.mouseout"/>
                       </use>
               </g>
        </defs>

<script type="text/javascript">
var viewWidth = 738;
var viewHeight = 178;
var sectionId = 'dynsection-33';
</script>
<script xlink:href="svgpan.js"/>
<svg id="graph" class="graph">
<g id="viewport">
<title>Ioex::DatabaseIO::get_field_internal</title>
<polygon fill="#ffffff" stroke="transparent" points="-4,4 -4,-174 734.4111,-174 734.4111,4 -4,4"/>
<!-- Node674 -->
<g id="node1" class="node">
<title>Node674</title>
<polygon fill="#bfbfbf" stroke="#000000" points="0,-70.5 0,-98.5 113.2803,-98.5 113.2803,-70.5 0,-70.5"/>
<text text-anchor="start" x="8" y="-86.5" font-family="Helvetica,sans-Serif" font-size="10.00" fill="#000000">Ioex::DatabaseIO::get</text>
<text text-anchor="middle" x="56.6401" y="-76.5" font-family="Helvetica,sans-Serif" font-size="10.00" fill="#000000">_field_internal</text>
</g>
<!-- Node675 -->
<g id="node2" class="node">
<title>Node675</title>
<g id="a_node2"><a xlink:href="classIofx_1_1DatabaseIO.html#a544ee382dbe142b17890fad8a0467732" target="_top" xlink:title="Iofx::DatabaseIO::get\l_field_internal">
<polygon fill="#ffffff" stroke="#000000" points="150.6719,-94.5 150.6719,-122.5 261.1689,-122.5 261.1689,-94.5 150.6719,-94.5"/>
<text text-anchor="start" x="158.6719" y="-110.5" font-family="Helvetica,sans-Serif" font-size="10.00" fill="#000000">Iofx::DatabaseIO::get</text>
<text text-anchor="middle" x="205.9204" y="-100.5" font-family="Helvetica,sans-Serif" font-size="10.00" fill="#000000">_field_internal</text>
</a>
</g>
</g>
<!-- Node674&#45;&gt;Node675 -->
<g id="edge1" class="edge">
<title>Node674&#45;&gt;Node675</title>
<path fill="none" stroke="#191970" d="M123.4897,-95.2475C132.4166,-96.6827 141.4938,-98.142 150.2029,-99.5422"/>
<polygon fill="#191970" stroke="#191970" points="123.9313,-91.7736 113.5025,-93.6418 122.8201,-98.6849 123.9313,-91.7736"/>
</g>
<!-- Node680 -->
<g id="node7" class="node">
<title>Node680</title>
<g id="a_node7"><a xlink:href="classIopx_1_1DatabaseIO.html#a272b227c62c9994b4ddec01962fab285" target="_top" xlink:title="Iopx::DatabaseIO::get\l_field_internal">
<polygon fill="#ffffff" stroke="#000000" points="149.2803,-47.5 149.2803,-75.5 262.5605,-75.5 262.5605,-47.5 149.2803,-47.5"/>
<text text-anchor="start" x="157.2803" y="-63.5" font-family="Helvetica,sans-Serif" font-size="10.00" fill="#000000">Iopx::DatabaseIO::get</text>
<text text-anchor="middle" x="205.9204" y="-53.5" font-family="Helvetica,sans-Serif" font-size="10.00" fill="#000000">_field_internal</text>
</a>
</g>
</g>
<!-- Node674&#45;&gt;Node680 -->
<g id="edge6" class="edge">
<title>Node674&#45;&gt;Node680</title>
<path fill="none" stroke="#191970" d="M123.4937,-74.1997C132.0827,-72.8764 140.8107,-71.5316 149.2162,-70.2366"/>
<polygon fill="#191970" stroke="#191970" points="122.8528,-70.757 113.5025,-75.7391 123.9188,-77.6754 122.8528,-70.757"/>
</g>
<!-- Node676 -->
<g id="node3" class="node">
<title>Node676</title>
<g id="a_node3"><a xlink:href="classIofx_1_1DatabaseIO.html#a8aa664973f5310a6e8eff1d84ba4d51c" target="_top" xlink:title="Iofx::DatabaseIO::get\l_field_internal">
<polygon fill="#ffffff" stroke="#000000" points="311.3486,-141.5 311.3486,-169.5 421.8457,-169.5 421.8457,-141.5 311.3486,-141.5"/>
<text text-anchor="start" x="319.3486" y="-157.5" font-family="Helvetica,sans-Serif" font-size="10.00" fill="#000000">Iofx::DatabaseIO::get</text>
<text text-anchor="middle" x="366.5972" y="-147.5" font-family="Helvetica,sans-Serif" font-size="10.00" fill="#000000">_field_internal</text>
</a>
</g>
</g>
<!-- Node675&#45;&gt;Node676 -->
<g id="edge2" class="edge">
<title>Node675&#45;&gt;Node676</title>
<path fill="none" stroke="#191970" d="M263.9224,-125.4663C281.8968,-130.7241 301.4917,-136.4558 318.6999,-141.4894"/>
<polygon fill="#191970" stroke="#191970" points="264.7092,-122.0499 254.1287,-122.6015 262.7439,-128.7683 264.7092,-122.0499"/>
</g>
<!-- Node677 -->
<g id="node4" class="node">
<title>Node677</title>
<g id="a_node4"><a xlink:href="classIofx_1_1DatabaseIO.html#aa8a6215ec5222eccfbbcdbc073f27d20" target="_top" xlink:title="Iofx::DatabaseIO::get\l_side_connectivity_internal">
<polygon fill="#ffffff" stroke="#000000" points="298.5605,-94.5 298.5605,-122.5 434.6338,-122.5 434.6338,-94.5 298.5605,-94.5"/>
<text text-anchor="start" x="306.5605" y="-110.5" font-family="Helvetica,sans-Serif" font-size="10.00" fill="#000000">Iofx::DatabaseIO::get</text>
<text text-anchor="middle" x="366.5972" y="-100.5" font-family="Helvetica,sans-Serif" font-size="10.00" fill="#000000">_side_connectivity_internal</text>
</a>
</g>
</g>
<!-- Node675&#45;&gt;Node677 -->
<g id="edge3" class="edge">
<title>Node675&#45;&gt;Node677</title>
<path fill="none" stroke="#191970" d="M271.4954,-108.5C280.3723,-108.5 289.4982,-108.5 298.4194,-108.5"/>
<polygon fill="#191970" stroke="#191970" points="271.2163,-105.0001 261.2162,-108.5 271.2162,-112.0001 271.2163,-105.0001"/>
</g>
<!-- Node678 -->
<g id="node5" class="node">
<title>Node678</title>
<g id="a_node5"><a xlink:href="classIofx_1_1DatabaseIO.html#ac56327a554a5e07a5df294af32fd3c01" target="_top" xlink:title="Iofx::DatabaseIO::get\l_side_connectivity">
<polygon fill="#ffffff" stroke="#000000" points="472.0254,-94.5 472.0254,-122.5 582.5225,-122.5 582.5225,-94.5 472.0254,-94.5"/>
<text text-anchor="start" x="480.0254" y="-110.5" font-family="Helvetica,sans-Serif" font-size="10.00" fill="#000000">Iofx::DatabaseIO::get</text>
<text text-anchor="middle" x="527.2739" y="-100.5" font-family="Helvetica,sans-Serif" font-size="10.00" fill="#000000">_side_connectivity</text>
</a>
</g>
</g>
<!-- Node677&#45;&gt;Node678 -->
<g id="edge4" class="edge">
<title>Node677&#45;&gt;Node678</title>
<path fill="none" stroke="#191970" d="M444.9055,-108.5C453.945,-108.5 463.0188,-108.5 471.6687,-108.5"/>
<polygon fill="#191970" stroke="#191970" points="444.7386,-105.0001 434.7386,-108.5 444.7385,-112.0001 444.7386,-105.0001"/>
</g>
<!-- Node679 -->
<g id="node6" class="node">
<title>Node679</title>
<g id="a_node6"><a xlink:href="classIofx_1_1DatabaseIO.html#a97317a6fa150da8c99d6d1118e1e4d82" target="_top" xlink:title="Iofx::DatabaseIO::get\l_field_internal">
<polygon fill="#ffffff" stroke="#000000" points="619.9141,-94.5 619.9141,-122.5 730.4111,-122.5 730.4111,-94.5 619.9141,-94.5"/>
<text text-anchor="start" x="627.9141" y="-110.5" font-family="Helvetica,sans-Serif" font-size="10.00" fill="#000000">Iofx::DatabaseIO::get</text>
<text text-anchor="middle" x="675.1626" y="-100.5" font-family="Helvetica,sans-Serif" font-size="10.00" fill="#000000">_field_internal</text>
</a>
</g>
</g>
<!-- Node678&#45;&gt;Node679 -->
<g id="edge5" class="edge">
<title>Node678&#45;&gt;Node679</title>
<path fill="none" stroke="#191970" d="M592.8432,-108.5C601.8606,-108.5 611.0462,-108.5 619.8544,-108.5"/>
<polygon fill="#191970" stroke="#191970" points="592.763,-105.0001 582.763,-108.5 592.7629,-112.0001 592.763,-105.0001"/>
</g>
<!-- Node681 -->
<g id="node8" class="node">
<title>Node681</title>
<g id="a_node8"><a xlink:href="classIopx_1_1DatabaseIO.html#a55f8feeda0b12d93bcaa7e476e146efa" target="_top" xlink:title="Iopx::DatabaseIO::get\l_field_internal">
<polygon fill="#ffffff" stroke="#000000" points="309.957,-47.5 309.957,-75.5 423.2373,-75.5 423.2373,-47.5 309.957,-47.5"/>
<text text-anchor="start" x="317.957" y="-63.5" font-family="Helvetica,sans-Serif" font-size="10.00" fill="#000000">Iopx::DatabaseIO::get</text>
<text text-anchor="middle" x="366.5972" y="-53.5" font-family="Helvetica,sans-Serif" font-size="10.00" fill="#000000">_field_internal</text>
</a>
</g>
</g>
<!-- Node680&#45;&gt;Node681 -->
<g id="edge7" class="edge">
<title>Node680&#45;&gt;Node681</title>
<path fill="none" stroke="#191970" d="M272.8044,-61.5C285.143,-61.5 297.9175,-61.5 309.9185,-61.5"/>
<polygon fill="#191970" stroke="#191970" points="272.5691,-58.0001 262.569,-61.5 272.569,-65.0001 272.5691,-58.0001"/>
</g>
<!-- Node682 -->
<g id="node9" class="node">
<title>Node682</title>
<g id="a_node9"><a xlink:href="classIopx_1_1DatabaseIO.html#a03e7dea93b69b16f43a43148c6355a03" target="_top" xlink:title="Iopx::DatabaseIO::get\l_side_connectivity">
<polygon fill="#ffffff" stroke="#000000" points="309.957,-.5 309.957,-28.5 423.2373,-28.5 423.2373,-.5 309.957,-.5"/>
<text text-anchor="start" x="317.957" y="-16.5" font-family="Helvetica,sans-Serif" font-size="10.00" fill="#000000">Iopx::DatabaseIO::get</text>
<text text-anchor="middle" x="366.5972" y="-6.5" font-family="Helvetica,sans-Serif" font-size="10.00" fill="#000000">_side_connectivity</text>
</a>
</g>
</g>
<!-- Node680&#45;&gt;Node682 -->
<g id="edge8" class="edge">
<title>Node680&#45;&gt;Node682</title>
<path fill="none" stroke="#191970" d="M263.9224,-44.5337C281.8968,-39.2759 301.4917,-33.5442 318.6999,-28.5106"/>
<polygon fill="#191970" stroke="#191970" points="262.7439,-41.2317 254.1287,-47.3985 264.7092,-47.9501 262.7439,-41.2317"/>
</g>
<!-- Node683 -->
<g id="node10" class="node">
<title>Node683</title>
<g id="a_node10"><a xlink:href="classIopx_1_1DatabaseIO.html#a3bc69b10e9372d6910369fec487059f9" target="_top" xlink:title="Iopx::DatabaseIO::get\l_field_internal">
<polygon fill="#ffffff" stroke="#000000" points="470.6338,-.5 470.6338,-28.5 583.9141,-28.5 583.9141,-.5 470.6338,-.5"/>
<text text-anchor="start" x="478.6338" y="-16.5" font-family="Helvetica,sans-Serif" font-size="10.00" fill="#000000">Iopx::DatabaseIO::get</text>
<text text-anchor="middle" x="527.2739" y="-6.5" font-family="Helvetica,sans-Serif" font-size="10.00" fill="#000000">_field_internal</text>
</a>
</g>
</g>
<!-- Node682&#45;&gt;Node683 -->
<g id="edge9" class="edge">
<title>Node682&#45;&gt;Node683</title>
<path fill="none" stroke="#191970" d="M433.4812,-14.5C445.8198,-14.5 458.5942,-14.5 470.5953,-14.5"/>
<polygon fill="#191970" stroke="#191970" points="433.2458,-11.0001 423.2458,-14.5 433.2457,-18.0001 433.2458,-11.0001"/>
</g>
</g>
</svg>
        <g id="navigator" transform="translate(0 0)" fill="#404254">
                <rect fill="#f2f5e9" fill-opacity="0.5" stroke="#606060" stroke-width=".5" x="0" y="0" width="60" height="60"/>
                <use id="zoomplus" xlink:href="#zoomPlus" x="17" y="9" onmousedown="handleZoom(evt,'in')"/>
                <use id="zoomminus" xlink:href="#zoomMin" x="42" y="9" onmousedown="handleZoom(evt,'out')"/>
                <use id="reset" xlink:href="#resetDef" x="30" y="36" onmousedown="handleReset()"/>
                <g id="arrowUp" xlink:href="#dirArrow" transform="translate(30 24)" onmousedown="handlePan(0,-1)">
                  <use xlink:href="#rim" fill="#404040">
                        <set attributeName="fill" to="#808080" begin="arrowUp.mouseover" end="arrowUp.mouseout"/>
                  </use>
                  <path fill="none" stroke="white" stroke-width="1.5" d="M0,-3.0v7 M-2.5,-0.5L0,-3.0L2.5,-0.5"/>
                </g>
                <g id="arrowRight" xlink:href="#dirArrow" transform="rotate(90) translate(36 -43)" onmousedown="handlePan(1,0)">
                  <use xlink:href="#rim" fill="#404040">
                        <set attributeName="fill" to="#808080" begin="arrowRight.mouseover" end="arrowRight.mouseout"/>
                  </use>
                  <path fill="none" stroke="white" stroke-width="1.5" d="M0,-3.0v7 M-2.5,-0.5L0,-3.0L2.5,-0.5"/>
                </g>
                <g id="arrowDown" xlink:href="#dirArrow" transform="rotate(180) translate(-30 -48)" onmousedown="handlePan(0,1)">
                  <use xlink:href="#rim" fill="#404040">
                        <set attributeName="fill" to="#808080" begin="arrowDown.mouseover" end="arrowDown.mouseout"/>
                  </use>
                  <path fill="none" stroke="white" stroke-width="1.5" d="M0,-3.0v7 M-2.5,-0.5L0,-3.0L2.5,-0.5"/>
                </g>
                <g id="arrowLeft" xlink:href="#dirArrow" transform="rotate(270) translate(-36 17)" onmousedown="handlePan(-1,0)">
                  <use xlink:href="#rim" fill="#404040">
                        <set attributeName="fill" to="#808080" begin="arrowLeft.mouseover" end="arrowLeft.mouseout"/>
                  </use>
                  <path fill="none" stroke="white" stroke-width="1.5" d="M0,-3.0v7 M-2.5,-0.5L0,-3.0L2.5,-0.5"/>
                </g>
        </g>
        <svg viewBox="0 0 15 15" width="100%" height="30px" preserveAspectRatio="xMaxYMin meet">
         <g id="arrow_out" transform="scale(0.3 0.3)">
          <a xlink:href="classIoex_1_1DatabaseIO_a1f0dc3435483554a259ed3dd4744eb09_icgraph_org.svg" target="_base">
           <rect id="button" ry="5" rx="5" y="6" x="6" height="38" width="38"
                fill="#f2f5e9" fill-opacity="0.5" stroke="#606060" stroke-width="1.0"/>
           <path id="arrow"
             d="M 11.500037,31.436501 C 11.940474,20.09759 22.043105,11.32322 32.158766,21.979434 L 37.068811,17.246167 C 37.068811,17.246167 37.088388,32 37.088388,32 L 22.160133,31.978069 C 22.160133,31.978069 26.997745,27.140456 26.997745,27.140456 C 18.528582,18.264221 13.291696,25.230495 11.500037,31.436501 z"
             style="fill:#404040;"/>
          </a>
         </g>
        </svg>
</svg>
