<?xml version="1.0" encoding="UTF-8" standalone="no"?>
<!DOCTYPE svg PUBLIC "-//W3C//DTD SVG 1.1//EN"
 "http://www.w3.org/Graphics/SVG/1.1/DTD/svg11.dtd">
<!-- Generated by graphviz version 2.40.1 (20161225.0304)
 -->
<!-- Title: Ioss::Region::add_state Pages: 1 -->
<svg width="446pt" height="84pt"
 viewBox="0.00 0.00 445.98 84.00" xmlns="http://www.w3.org/2000/svg" xmlns:xlink="http://www.w3.org/1999/xlink">
<g id="graph0" class="graph" transform="scale(1 1) rotate(0) translate(4 80)">
<title>Ioss::Region::add_state</title>
<polygon fill="#ffffff" stroke="transparent" points="-4,4 -4,-80 441.9785,-80 441.9785,4 -4,4"/>
<!-- Node716 -->
<g id="node1" class="node">
<title>Node716</title>
<polygon fill="#bfbfbf" stroke="#000000" points="0,-28.5 0,-46.5 121.0684,-46.5 121.0684,-28.5 0,-28.5"/>
<text text-anchor="middle" x="60.5342" y="-34.5" font-family="Helvetica,sans-Serif" font-size="10.00" fill="#000000">Ioss::Region::add_state</text>
</g>
<!-- Node717 -->
<g id="node2" class="node">
<title>Node717</title>
<g id="a_node2"><a xlink:href="classIoss_1_1Region.html#aecc5d7ede05ee08ad1080daadfd78bd3" target="_top" xlink:title="Add a state for a specified time. ">
<polygon fill="#ffffff" stroke="#000000" points="157.0684,-28.5 157.0684,-46.5 289.2598,-46.5 289.2598,-28.5 157.0684,-28.5"/>
<text text-anchor="middle" x="223.1641" y="-34.5" font-family="Helvetica,sans-Serif" font-size="10.00" fill="#000000">Ioss::Region::add_state__</text>
</a>
</g>
</g>
<!-- Node716&#45;&gt;Node717 -->
<g id="edge1" class="edge">
<title>Node716&#45;&gt;Node717</title>
<path fill="none" stroke="#191970" d="M121.0915,-37.5C129.4648,-37.5 138.1528,-37.5 146.767,-37.5"/>
<polygon fill="#191970" stroke="#191970" points="146.8221,-41.0001 156.822,-37.5 146.822,-34.0001 146.8221,-41.0001"/>
</g>
<!-- Node718 -->
<g id="node3" class="node">
<title>Node718</title>
<g id="a_node3"><a xlink:href="classIoss_1_1GroupingEntity.html#a318cd5cde65370bb9c83f8ca223f8481" target="_top" xlink:title="Ioss::GroupingEntity\l::get_database">
<polygon fill="#ffffff" stroke="#000000" points="328.5972,-47.5 328.5972,-75.5 434.6411,-75.5 434.6411,-47.5 328.5972,-47.5"/>
<text text-anchor="start" x="336.5972" y="-63.5" font-family="Helvetica,sans-Serif" font-size="10.00" fill="#000000">Ioss::GroupingEntity</text>
<text text-anchor="middle" x="381.6191" y="-53.5" font-family="Helvetica,sans-Serif" font-size="10.00" fill="#000000">::get_database</text>
</a>
</g>
</g>
<!-- Node717&#45;&gt;Node718 -->
<g id="edge2" class="edge">
<title>Node717&#45;&gt;Node718</title>
<path fill="none" stroke="#191970" d="M282.6177,-46.505C294.2322,-48.2642 306.4523,-50.115 318.1902,-51.8929"/>
<polygon fill="#191970" stroke="#191970" points="317.9425,-55.3952 328.3539,-53.4323 318.9908,-48.4742 317.9425,-55.3952"/>
</g>
<!-- Node719 -->
<g id="node4" class="node">
<title>Node719</title>
<g id="a_node4"><a xlink:href="classIoss_1_1DatabaseIO.html#a1c9ad01905e9773cd69b452a8551cbba" target="_top" xlink:title="Get the file name associated with the database. ">
<polygon fill="#ffffff" stroke="#000000" points="325.2598,-.5 325.2598,-28.5 437.9785,-28.5 437.9785,-.5 325.2598,-.5"/>
<text text-anchor="start" x="333.2598" y="-16.5" font-family="Helvetica,sans-Serif" font-size="10.00" fill="#000000">Ioss::DatabaseIO::get</text>
<text text-anchor="middle" x="381.6191" y="-6.5" font-family="Helvetica,sans-Serif" font-size="10.00" fill="#000000">_filename</text>
</a>
</g>
</g>
<!-- Node717&#45;&gt;Node719 -->
<g id="edge3" class="edge">
<title>Node717&#45;&gt;Node719</title>
<path fill="none" stroke="#191970" d="M285.3349,-28.4758C295.0518,-27.0654 305.128,-25.6028 314.9407,-24.1785"/>
<polygon fill="#191970" stroke="#191970" points="315.6515,-27.6121 325.045,-22.7118 314.6459,-20.6847 315.6515,-27.6121"/>
</g>
</g>
</svg>
