<?xml version="1.0" encoding="UTF-8" standalone="no"?>
<!DOCTYPE svg PUBLIC "-//W3C//DTD SVG 1.1//EN"
 "http://www.w3.org/Graphics/SVG/1.1/DTD/svg11.dtd">
<!-- Generated by graphviz version 2.40.1 (20161225.0304)
 -->
<!-- Title: tsl::detail_hopscotch_hash::hopscotch_bucket::swap_value_into_empty_bucket Pages: 1 -->
<!--zoomable 188 -->
<svg id="main" version="1.1" xmlns="http://www.w3.org/2000/svg" xmlns:xlink="http://www.w3.org/1999/xlink" xml:space="preserve" onload="init(evt)">
<style type="text/css"><![CDATA[
.edge:hover path { stroke: red; }
.edge:hover polygon { stroke: red; fill: red; }
]]></style>
<script type="text/javascript"><![CDATA[
var edges = document.getElementsByTagName('g');
if (edges && edges.length) {
  for (var i=0;i<edges.length;i++) {
    if (edges[i].id.substr(0,4)=='edge') {
      edges[i].setAttribute('class','edge');
    }
  }
}
]]></script>
        <defs>
                <circle id="rim" cx="0" cy="0" r="7"/>
                <circle id="rim2" cx="0" cy="0" r="3.5"/>
                <g id="zoomPlus">
                        <use xlink:href="#rim" fill="#404040">
                                <set attributeName="fill" to="#808080" begin="zoomplus.mouseover" end="zoomplus.mouseout"/>
                        </use>
                        <path d="M-4,0h8M0,-4v8" fill="none" stroke="white" stroke-width="1.5" pointer-events="none"/>
                </g>
                <g id="zoomMin">
                        <use xlink:href="#rim" fill="#404040">
                                <set attributeName="fill" to="#808080" begin="zoomminus.mouseover" end="zoomminus.mouseout"/>
                        </use>
                        <path d="M-4,0h8" fill="none" stroke="white" stroke-width="1.5" pointer-events="none"/>
                </g>
                <g id="dirArrow">
                        <path fill="none" stroke="white" stroke-width="1.5" d="M0,-3.0v7 M-2.5,-0.5L0,-3.0L2.5,-0.5"/>
                </g>
               <g id="resetDef">
                       <use xlink:href="#rim2" fill="#404040">
                               <set attributeName="fill" to="#808080" begin="reset.mouseover" end="reset.mouseout"/>
                       </use>
               </g>
        </defs>

<script type="text/javascript">
var viewWidth = 668;
var viewHeight = 188;
var sectionId = 'dynsection-16';
</script>
<script xlink:href="svgpan.js"/>
<svg id="graph" class="graph">
<g id="viewport">
<title>tsl::detail_hopscotch_hash::hopscotch_bucket::swap_value_into_empty_bucket</title>
<polygon fill="#ffffff" stroke="transparent" points="-4,4 -4,-184.2252 664.1104,-184.2252 664.1104,4 -4,4"/>
<!-- Node78 -->
<g id="node1" class="node">
<title>Node78</title>
<polygon fill="#bfbfbf" stroke="#000000" points="0,-114.5 0,-152.5 163.8711,-152.5 163.8711,-114.5 0,-114.5"/>
<text text-anchor="start" x="8" y="-140.5" font-family="Helvetica,sans-Serif" font-size="10.00" fill="#000000">tsl::detail_hopscotch</text>
<text text-anchor="start" x="8" y="-130.5" font-family="Helvetica,sans-Serif" font-size="10.00" fill="#000000">_hash::hopscotch_bucket</text>
<text text-anchor="middle" x="81.9355" y="-120.5" font-family="Helvetica,sans-Serif" font-size="10.00" fill="#000000">::swap_value_into_empty_bucket</text>
</g>
<!-- Node79 -->
<g id="node2" class="node">
<title>Node79</title>
<g id="a_node2"><a xlink:href="classtsl_1_1detail__hopscotch__hash_1_1hopscotch__bucket.html#ace21a9e7aad695ed65acc5f4dfeb0bed" target="_top" xlink:title="tsl::detail_hopscotch\l_hash::hopscotch_bucket\l::empty">
<polygon fill="#ffffff" stroke="#000000" points="530.6973,-126.5 530.6973,-164.5 660.1104,-164.5 660.1104,-126.5 530.6973,-126.5"/>
<text text-anchor="start" x="538.6973" y="-152.5" font-family="Helvetica,sans-Serif" font-size="10.00" fill="#000000">tsl::detail_hopscotch</text>
<text text-anchor="start" x="538.6973" y="-142.5" font-family="Helvetica,sans-Serif" font-size="10.00" fill="#000000">_hash::hopscotch_bucket</text>
<text text-anchor="middle" x="595.4038" y="-132.5" font-family="Helvetica,sans-Serif" font-size="10.00" fill="#000000">::empty</text>
</a>
</g>
</g>
<!-- Node78&#45;&gt;Node79 -->
<g id="edge1" class="edge">
<title>Node78&#45;&gt;Node79</title>
<path fill="none" stroke="#191970" d="M121.0105,-152.5382C143.4917,-162.4286 172.6081,-173.4754 199.8711,-178.5 228.4425,-183.7658 494.6402,-174.5088 494.6973,-174.5 505.8942,-172.7816 517.6017,-170.1837 528.909,-167.2358"/>
<polygon fill="#191970" stroke="#191970" points="529.9884,-170.5694 538.7198,-164.5683 528.1518,-163.8147 529.9884,-170.5694"/>
</g>
<!-- Node80 -->
<g id="node3" class="node">
<title>Node80</title>
<g id="a_node3"><a xlink:href="classtsl_1_1detail__hopscotch__hash_1_1hopscotch__bucket.html#a6a41cfe2ccfff6668ac78e794d83b893" target="_top" xlink:title="tsl::detail_hopscotch\l_hash::hopscotch_bucket\l::value">
<polygon fill="#ffffff" stroke="#000000" points="365.2842,-126.5 365.2842,-164.5 494.6973,-164.5 494.6973,-126.5 365.2842,-126.5"/>
<text text-anchor="start" x="373.2842" y="-152.5" font-family="Helvetica,sans-Serif" font-size="10.00" fill="#000000">tsl::detail_hopscotch</text>
<text text-anchor="start" x="373.2842" y="-142.5" font-family="Helvetica,sans-Serif" font-size="10.00" fill="#000000">_hash::hopscotch_bucket</text>
<text text-anchor="middle" x="429.9907" y="-132.5" font-family="Helvetica,sans-Serif" font-size="10.00" fill="#000000">::value</text>
</a>
</g>
</g>
<!-- Node78&#45;&gt;Node80 -->
<g id="edge2" class="edge">
<title>Node78&#45;&gt;Node80</title>
<path fill="none" stroke="#191970" d="M147.225,-152.5231C164.2156,-156.6526 182.6023,-160.408 199.8711,-162.5 256.9706,-169.4173 271.9682,-167.3037 329.2842,-162.5 337.666,-161.7975 346.3994,-160.7716 355.0664,-159.5664"/>
<polygon fill="#191970" stroke="#191970" points="355.801,-162.996 365.185,-158.0777 354.782,-156.0706 355.801,-162.996"/>
</g>
<!-- Node81 -->
<g id="node4" class="node">
<title>Node81</title>
<g id="a_node4"><a xlink:href="classtsl_1_1detail__hopscotch__hash_1_1hopscotch__bucket__hash.html#af05e3edafe126117b511f20aa2c7da2d" target="_top" xlink:title="tsl::detail_hopscotch\l_hash::hopscotch_bucket\l_hash::copy_hash">
<polygon fill="#ffffff" stroke="#000000" points="199.8711,-114.5 199.8711,-152.5 329.2842,-152.5 329.2842,-114.5 199.8711,-114.5"/>
<text text-anchor="start" x="207.8711" y="-140.5" font-family="Helvetica,sans-Serif" font-size="10.00" fill="#000000">tsl::detail_hopscotch</text>
<text text-anchor="start" x="207.8711" y="-130.5" font-family="Helvetica,sans-Serif" font-size="10.00" fill="#000000">_hash::hopscotch_bucket</text>
<text text-anchor="middle" x="264.5776" y="-120.5" font-family="Helvetica,sans-Serif" font-size="10.00" fill="#000000">_hash::copy_hash</text>
</a>
</g>
</g>
<!-- Node78&#45;&gt;Node81 -->
<g id="edge4" class="edge">
<title>Node78&#45;&gt;Node81</title>
<path fill="none" stroke="#191970" d="M163.9072,-133.5C172.4695,-133.5 181.1425,-133.5 189.6211,-133.5"/>
<polygon fill="#191970" stroke="#191970" points="189.846,-137.0001 199.846,-133.5 189.8459,-130.0001 189.846,-137.0001"/>
</g>
<!-- Node82 -->
<g id="node5" class="node">
<title>Node82</title>
<g id="a_node5"><a xlink:href="classtsl_1_1detail__hopscotch__hash_1_1hopscotch__bucket.html#ad4997662d86d72a65ad39f297417c56b" target="_top" xlink:title="tsl::detail_hopscotch\l_hash::hopscotch_bucket\l::set_empty">
<polygon fill="#ffffff" stroke="#000000" points="199.8711,-57.5 199.8711,-95.5 329.2842,-95.5 329.2842,-57.5 199.8711,-57.5"/>
<text text-anchor="start" x="207.8711" y="-83.5" font-family="Helvetica,sans-Serif" font-size="10.00" fill="#000000">tsl::detail_hopscotch</text>
<text text-anchor="start" x="207.8711" y="-73.5" font-family="Helvetica,sans-Serif" font-size="10.00" fill="#000000">_hash::hopscotch_bucket</text>
<text text-anchor="middle" x="264.5776" y="-63.5" font-family="Helvetica,sans-Serif" font-size="10.00" fill="#000000">::set_empty</text>
</a>
</g>
</g>
<!-- Node78&#45;&gt;Node82 -->
<g id="edge5" class="edge">
<title>Node78&#45;&gt;Node82</title>
<path fill="none" stroke="#191970" d="M143.0066,-114.4406C159.304,-109.3544 177.0505,-103.816 193.821,-98.5821"/>
<polygon fill="#191970" stroke="#191970" points="195.0609,-101.8618 203.5641,-95.5415 192.9754,-95.1796 195.0609,-101.8618"/>
</g>
<!-- Node83 -->
<g id="node6" class="node">
<title>Node83</title>
<g id="a_node6"><a xlink:href="classtsl_1_1detail__hopscotch__hash_1_1hopscotch__bucket.html#a701f85e5f53acf6851effaf9e7ee9142" target="_top" xlink:title="tsl::detail_hopscotch\l_hash::hopscotch_bucket\l::destroy_value">
<polygon fill="#ffffff" stroke="#000000" points="199.8711,-.5 199.8711,-38.5 329.2842,-38.5 329.2842,-.5 199.8711,-.5"/>
<text text-anchor="start" x="207.8711" y="-26.5" font-family="Helvetica,sans-Serif" font-size="10.00" fill="#000000">tsl::detail_hopscotch</text>
<text text-anchor="start" x="207.8711" y="-16.5" font-family="Helvetica,sans-Serif" font-size="10.00" fill="#000000">_hash::hopscotch_bucket</text>
<text text-anchor="middle" x="264.5776" y="-6.5" font-family="Helvetica,sans-Serif" font-size="10.00" fill="#000000">::destroy_value</text>
</a>
</g>
</g>
<!-- Node78&#45;&gt;Node83 -->
<g id="edge6" class="edge">
<title>Node78&#45;&gt;Node83</title>
<path fill="none" stroke="#191970" d="M104.8335,-114.4269C127.8674,-95.8261 164.8899,-67.4931 199.8711,-47.5 202.4963,-45.9996 205.2174,-44.528 207.9915,-43.0937"/>
<polygon fill="#191970" stroke="#191970" points="209.5659,-46.2197 216.9786,-38.6499 206.4632,-39.9449 209.5659,-46.2197"/>
</g>
<!-- Node80&#45;&gt;Node79 -->
<g id="edge3" class="edge">
<title>Node80&#45;&gt;Node79</title>
<path fill="none" stroke="#191970" d="M494.8916,-145.5C503.3487,-145.5 512.0665,-145.5 520.6683,-145.5"/>
<polygon fill="#191970" stroke="#191970" points="520.6901,-149.0001 530.6901,-145.5 520.6901,-142.0001 520.6901,-149.0001"/>
</g>
<!-- Node83&#45;&gt;Node79 -->
<g id="edge7" class="edge">
<title>Node83&#45;&gt;Node79</title>
<path fill="none" stroke="#191970" d="M314.823,-38.6367C374.2252,-61.2609 472.9653,-98.8675 536.0725,-122.9028"/>
<polygon fill="#191970" stroke="#191970" points="534.9085,-126.2047 545.4994,-126.4932 537.4,-119.6631 534.9085,-126.2047"/>
</g>
<!-- Node83&#45;&gt;Node80 -->
<g id="edge8" class="edge">
<title>Node83&#45;&gt;Node80</title>
<path fill="none" stroke="#191970" d="M313.9838,-38.6143C319.2981,-41.3293 324.5041,-44.2988 329.2842,-47.5 359.3008,-67.6016 388.2878,-97.2385 407.3928,-118.6535"/>
<polygon fill="#191970" stroke="#191970" points="404.9849,-121.2158 414.2127,-126.4214 410.2452,-116.5975 404.9849,-121.2158"/>
</g>
</g>
</svg>
        <g id="navigator" transform="translate(0 0)" fill="#404254">
                <rect fill="#f2f5e9" fill-opacity="0.5" stroke="#606060" stroke-width=".5" x="0" y="0" width="60" height="60"/>
                <use id="zoomplus" xlink:href="#zoomPlus" x="17" y="9" onmousedown="handleZoom(evt,'in')"/>
                <use id="zoomminus" xlink:href="#zoomMin" x="42" y="9" onmousedown="handleZoom(evt,'out')"/>
                <use id="reset" xlink:href="#resetDef" x="30" y="36" onmousedown="handleReset()"/>
                <g id="arrowUp" xlink:href="#dirArrow" transform="translate(30 24)" onmousedown="handlePan(0,-1)">
                  <use xlink:href="#rim" fill="#404040">
                        <set attributeName="fill" to="#808080" begin="arrowUp.mouseover" end="arrowUp.mouseout"/>
                  </use>
                  <path fill="none" stroke="white" stroke-width="1.5" d="M0,-3.0v7 M-2.5,-0.5L0,-3.0L2.5,-0.5"/>
                </g>
                <g id="arrowRight" xlink:href="#dirArrow" transform="rotate(90) translate(36 -43)" onmousedown="handlePan(1,0)">
                  <use xlink:href="#rim" fill="#404040">
                        <set attributeName="fill" to="#808080" begin="arrowRight.mouseover" end="arrowRight.mouseout"/>
                  </use>
                  <path fill="none" stroke="white" stroke-width="1.5" d="M0,-3.0v7 M-2.5,-0.5L0,-3.0L2.5,-0.5"/>
                </g>
                <g id="arrowDown" xlink:href="#dirArrow" transform="rotate(180) translate(-30 -48)" onmousedown="handlePan(0,1)">
                  <use xlink:href="#rim" fill="#404040">
                        <set attributeName="fill" to="#808080" begin="arrowDown.mouseover" end="arrowDown.mouseout"/>
                  </use>
                  <path fill="none" stroke="white" stroke-width="1.5" d="M0,-3.0v7 M-2.5,-0.5L0,-3.0L2.5,-0.5"/>
                </g>
                <g id="arrowLeft" xlink:href="#dirArrow" transform="rotate(270) translate(-36 17)" onmousedown="handlePan(-1,0)">
                  <use xlink:href="#rim" fill="#404040">
                        <set attributeName="fill" to="#808080" begin="arrowLeft.mouseover" end="arrowLeft.mouseout"/>
                  </use>
                  <path fill="none" stroke="white" stroke-width="1.5" d="M0,-3.0v7 M-2.5,-0.5L0,-3.0L2.5,-0.5"/>
                </g>
        </g>
        <svg viewBox="0 0 15 15" width="100%" height="30px" preserveAspectRatio="xMaxYMin meet">
         <g id="arrow_out" transform="scale(0.3 0.3)">
          <a xlink:href="classtsl_1_1detail__hopscotch__hash_1_1hopscotch__bucket_aad084f464937d2fa0fe12e26476a7ac5_cgraph_org.svg" target="_base">
           <rect id="button" ry="5" rx="5" y="6" x="6" height="38" width="38"
                fill="#f2f5e9" fill-opacity="0.5" stroke="#606060" stroke-width="1.0"/>
           <path id="arrow"
             d="M 11.500037,31.436501 C 11.940474,20.09759 22.043105,11.32322 32.158766,21.979434 L 37.068811,17.246167 C 37.068811,17.246167 37.088388,32 37.088388,32 L 22.160133,31.978069 C 22.160133,31.978069 26.997745,27.140456 26.997745,27.140456 C 18.528582,18.264221 13.291696,25.230495 11.500037,31.436501 z"
             style="fill:#404040;"/>
          </a>
         </g>
        </svg>
</svg>
