<?xml version="1.0" encoding="UTF-8" standalone="no"?>
<!DOCTYPE svg PUBLIC "-//W3C//DTD SVG 1.1//EN"
 "http://www.w3.org/Graphics/SVG/1.1/DTD/svg11.dtd">
<!-- Generated by graphviz version 2.40.1 (20161225.0304)
 -->
<!-- Title: Iocgns::DecompositionData::get_element_field Pages: 1 -->
<svg width="321pt" height="37pt"
 viewBox="0.00 0.00 320.57 37.00" xmlns="http://www.w3.org/2000/svg" xmlns:xlink="http://www.w3.org/1999/xlink">
<g id="graph0" class="graph" transform="scale(1 1) rotate(0) translate(4 33)">
<title>Iocgns::DecompositionData::get_element_field</title>
<polygon fill="#ffffff" stroke="transparent" points="-4,4 -4,-33 316.5703,-33 316.5703,4 -4,4"/>
<!-- Node82 -->
<g id="node1" class="node">
<title>Node82</title>
<polygon fill="#bfbfbf" stroke="#000000" points="0,-.5 0,-28.5 138.2852,-28.5 138.2852,-.5 0,-.5"/>
<text text-anchor="start" x="8" y="-16.5" font-family="Helvetica,sans-Serif" font-size="10.00" fill="#000000">Iocgns::DecompositionData</text>
<text text-anchor="middle" x="69.1426" y="-6.5" font-family="Helvetica,sans-Serif" font-size="10.00" fill="#000000">::get_element_field</text>
</g>
<!-- Node83 -->
<g id="node2" class="node">
<title>Node83</title>
<g id="a_node2"><a xlink:href="$classIocgns_1_1DecompositionDataBase.html#a9b9779ecaf5da2da625814b5653148af" xlink:title="Iocgns::DecompositionData\lBase::get_element_field">
<polygon fill="#ffffff" stroke="#000000" points="174.2852,-.5 174.2852,-28.5 312.5703,-28.5 312.5703,-.5 174.2852,-.5"/>
<text text-anchor="start" x="182.2852" y="-16.5" font-family="Helvetica,sans-Serif" font-size="10.00" fill="#000000">Iocgns::DecompositionData</text>
<text text-anchor="middle" x="243.4277" y="-6.5" font-family="Helvetica,sans-Serif" font-size="10.00" fill="#000000">Base::get_element_field</text>
</a>
</g>
</g>
<!-- Node82&#45;&gt;Node83 -->
<g id="edge1" class="edge">
<title>Node82&#45;&gt;Node83</title>
<path fill="none" stroke="#191970" d="M148.5441,-14.5C157.1353,-14.5 165.8276,-14.5 174.2836,-14.5"/>
<polygon fill="#191970" stroke="#191970" points="148.5255,-11.0001 138.5255,-14.5 148.5254,-18.0001 148.5255,-11.0001"/>
</g>
</g>
</svg>
