<?xml version="1.0" encoding="UTF-8" standalone="no"?>
<!DOCTYPE svg PUBLIC "-//W3C//DTD SVG 1.1//EN"
 "http://www.w3.org/Graphics/SVG/1.1/DTD/svg11.dtd">
<!-- Generated by graphviz version 2.40.1 (20161225.0304)
 -->
<!-- Title: tsl::hopscotch_map::hopscotch_map Pages: 1 -->
<svg width="406pt" height="47pt"
 viewBox="0.00 0.00 405.95 47.00" xmlns="http://www.w3.org/2000/svg" xmlns:xlink="http://www.w3.org/1999/xlink">
<g id="graph0" class="graph" transform="scale(1 1) rotate(0) translate(4 43)">
<title>tsl::hopscotch_map::hopscotch_map</title>
<polygon fill="#ffffff" stroke="transparent" points="-4,4 -4,-43 401.9492,-43 401.9492,4 -4,4"/>
<!-- Node10 -->
<g id="node1" class="node">
<title>Node10</title>
<polygon fill="#bfbfbf" stroke="#000000" points="0,-5.5 0,-33.5 102.1572,-33.5 102.1572,-5.5 0,-5.5"/>
<text text-anchor="start" x="8" y="-21.5" font-family="Helvetica,sans-Serif" font-size="10.00" fill="#000000">tsl::hopscotch_map</text>
<text text-anchor="middle" x="51.0786" y="-11.5" font-family="Helvetica,sans-Serif" font-size="10.00" fill="#000000">::hopscotch_map</text>
</g>
<!-- Node11 -->
<g id="node2" class="node">
<title>Node11</title>
<g id="a_node2"><a xlink:href="classtsl_1_1hopscotch__map.html#a9a483423694515d6af1b75bc4fe9d89d" target="_top" xlink:title="tsl::hopscotch_map\l::insert">
<polygon fill="#ffffff" stroke="#000000" points="138.1572,-5.5 138.1572,-33.5 240.3145,-33.5 240.3145,-5.5 138.1572,-5.5"/>
<text text-anchor="start" x="146.1572" y="-21.5" font-family="Helvetica,sans-Serif" font-size="10.00" fill="#000000">tsl::hopscotch_map</text>
<text text-anchor="middle" x="189.2358" y="-11.5" font-family="Helvetica,sans-Serif" font-size="10.00" fill="#000000">::insert</text>
</a>
</g>
</g>
<!-- Node10&#45;&gt;Node11 -->
<g id="edge1" class="edge">
<title>Node10&#45;&gt;Node11</title>
<path fill="none" stroke="#191970" d="M102.5233,-19.5C110.7046,-19.5 119.2396,-19.5 127.6261,-19.5"/>
<polygon fill="#191970" stroke="#191970" points="127.7483,-23.0001 137.7482,-19.5 127.7482,-16.0001 127.7483,-23.0001"/>
</g>
<!-- Node12 -->
<g id="node3" class="node">
<title>Node12</title>
<g id="a_node3"><a xlink:href="classtsl_1_1detail__hopscotch__hash_1_1hopscotch__hash.html#a7350c7f91142b524350d08dd4b45827b" target="_top" xlink:title="tsl::detail_hopscotch\l_hash::hopscotch_hash\l::insert">
<polygon fill="#ffffff" stroke="#000000" points="276.3145,-.5 276.3145,-38.5 397.9492,-38.5 397.9492,-.5 276.3145,-.5"/>
<text text-anchor="start" x="284.3145" y="-26.5" font-family="Helvetica,sans-Serif" font-size="10.00" fill="#000000">tsl::detail_hopscotch</text>
<text text-anchor="start" x="284.3145" y="-16.5" font-family="Helvetica,sans-Serif" font-size="10.00" fill="#000000">_hash::hopscotch_hash</text>
<text text-anchor="middle" x="337.1318" y="-6.5" font-family="Helvetica,sans-Serif" font-size="10.00" fill="#000000">::insert</text>
</a>
</g>
</g>
<!-- Node11&#45;&gt;Node12 -->
<g id="edge2" class="edge">
<title>Node11&#45;&gt;Node12</title>
<path fill="none" stroke="#191970" d="M240.5476,-19.5C248.8228,-19.5 257.5165,-19.5 266.156,-19.5"/>
<polygon fill="#191970" stroke="#191970" points="266.2449,-23.0001 276.2448,-19.5 266.2448,-16.0001 266.2449,-23.0001"/>
</g>
</g>
</svg>
