<?xml version="1.0" encoding="UTF-8" standalone="no"?>
<!DOCTYPE svg PUBLIC "-//W3C//DTD SVG 1.1//EN"
 "http://www.w3.org/Graphics/SVG/1.1/DTD/svg11.dtd">
<!-- Generated by graphviz version 2.40.1 (20161225.0304)
 -->
<!-- Title: Iocgns::DatabaseIO::openDatabase__ Pages: 1 -->
<svg width="798pt" height="661pt"
 viewBox="0.00 0.00 797.89 661.00" xmlns="http://www.w3.org/2000/svg" xmlns:xlink="http://www.w3.org/1999/xlink">
<g id="graph0" class="graph" transform="scale(1 1) rotate(0) translate(4 657)">
<title>Iocgns::DatabaseIO::openDatabase__</title>
<polygon fill="#ffffff" stroke="transparent" points="-4,4 -4,-657 793.8936,-657 793.8936,4 -4,4"/>
<!-- Node725 -->
<g id="node1" class="node">
<title>Node725</title>
<polygon fill="#bfbfbf" stroke="#000000" points="0,-421.5 0,-449.5 104.3838,-449.5 104.3838,-421.5 0,-421.5"/>
<text text-anchor="start" x="8" y="-437.5" font-family="Helvetica,sans-Serif" font-size="10.00" fill="#000000">Iocgns::DatabaseIO</text>
<text text-anchor="middle" x="52.1919" y="-427.5" font-family="Helvetica,sans-Serif" font-size="10.00" fill="#000000">::openDatabase__</text>
</g>
<!-- Node726 -->
<g id="node2" class="node">
<title>Node726</title>
<g id="a_node2"><a xlink:href="$classIoss_1_1DatabaseIO.html#afaf8598b13b44b8f262b3eec8398cb06" xlink:title="Determine whether the database is an input database. ">
<polygon fill="#ffffff" stroke="#000000" points="337.7524,-332.5 337.7524,-360.5 443.7915,-360.5 443.7915,-332.5 337.7524,-332.5"/>
<text text-anchor="start" x="345.7524" y="-348.5" font-family="Helvetica,sans-Serif" font-size="10.00" fill="#000000">Ioss::DatabaseIO::is</text>
<text text-anchor="middle" x="390.772" y="-338.5" font-family="Helvetica,sans-Serif" font-size="10.00" fill="#000000">_input</text>
</a>
</g>
</g>
<!-- Node725&#45;&gt;Node726 -->
<g id="edge1" class="edge">
<title>Node725&#45;&gt;Node726</title>
<path fill="none" stroke="#191970" d="M104.7235,-421.6914C164.8458,-405.8875 263.2751,-380.0142 327.5473,-363.1194"/>
<polygon fill="#191970" stroke="#191970" points="328.7766,-366.4152 337.5583,-360.4879 326.997,-359.6452 328.7766,-366.4152"/>
</g>
<!-- Node727 -->
<g id="node3" class="node">
<title>Node727</title>
<g id="a_node3"><a xlink:href="$classIoss_1_1PropertyManager.html#a798ebd15c511dc029050e0d707de283f" xlink:title="Checks if a property exists in the database. ">
<polygon fill="#ffffff" stroke="#000000" points="332.1934,-624.5 332.1934,-652.5 449.3506,-652.5 449.3506,-624.5 332.1934,-624.5"/>
<text text-anchor="start" x="340.1934" y="-640.5" font-family="Helvetica,sans-Serif" font-size="10.00" fill="#000000">Ioss::PropertyManager</text>
<text text-anchor="middle" x="390.772" y="-630.5" font-family="Helvetica,sans-Serif" font-size="10.00" fill="#000000">::exists</text>
</a>
</g>
</g>
<!-- Node725&#45;&gt;Node727 -->
<g id="edge2" class="edge">
<title>Node725&#45;&gt;Node727</title>
<path fill="none" stroke="#191970" d="M58.5376,-449.5173C70.7486,-474.9476 99.9305,-528.7967 140.3838,-558.5 194.2061,-598.0197 268.3004,-618.4981 321.9105,-628.7914"/>
<polygon fill="#191970" stroke="#191970" points="321.5402,-632.2821 332.0097,-630.657 322.8119,-625.3986 321.5402,-632.2821"/>
</g>
<!-- Node728 -->
<g id="node4" class="node">
<title>Node728</title>
<g id="a_node4"><a xlink:href="$classIoss_1_1DatabaseIO.html#a2086f8e605c31f9eb2af5fac410a46b2" xlink:title="Get a file&#45;per&#45;processor filename associated with the database. ">
<polygon fill="#ffffff" stroke="#000000" points="140.3838,-480.5 140.3838,-508.5 277.5703,-508.5 277.5703,-480.5 140.3838,-480.5"/>
<text text-anchor="start" x="148.3838" y="-496.5" font-family="Helvetica,sans-Serif" font-size="10.00" fill="#000000">Ioss::DatabaseIO::decoded</text>
<text text-anchor="middle" x="208.9771" y="-486.5" font-family="Helvetica,sans-Serif" font-size="10.00" fill="#000000">_filename</text>
</a>
</g>
</g>
<!-- Node725&#45;&gt;Node728 -->
<g id="edge3" class="edge">
<title>Node725&#45;&gt;Node728</title>
<path fill="none" stroke="#191970" d="M89.7458,-449.632C111.4655,-457.8053 138.9879,-468.1623 162.1162,-476.8657"/>
<polygon fill="#191970" stroke="#191970" points="161.1376,-480.237 171.7295,-480.4833 163.603,-473.6856 161.1376,-480.237"/>
</g>
<!-- Node733 -->
<g id="node9" class="node">
<title>Node733</title>
<g id="a_node9"><a xlink:href="$classIoss_1_1PropertyManager.html#ab9b0abf6f5acb6bd9f5e34e984f840a6" xlink:title="Get a property object from the property manager. ">
<polygon fill="#ffffff" stroke="#000000" points="322.4644,-587.5 322.4644,-605.5 459.0796,-605.5 459.0796,-587.5 322.4644,-587.5"/>
<text text-anchor="middle" x="390.772" y="-593.5" font-family="Helvetica,sans-Serif" font-size="10.00" fill="#000000">Ioss::PropertyManager::get</text>
</a>
</g>
</g>
<!-- Node725&#45;&gt;Node733 -->
<g id="edge30" class="edge">
<title>Node725&#45;&gt;Node733</title>
<path fill="none" stroke="#191970" d="M63.9073,-449.7611C79.5913,-468.0202 109.0862,-499.5562 140.3838,-518.5 198.4748,-553.6613 273.8605,-574.327 326.6747,-585.4532"/>
<polygon fill="#191970" stroke="#191970" points="326.095,-588.9071 336.5942,-587.4869 327.501,-582.0498 326.095,-588.9071"/>
</g>
<!-- Node734 -->
<g id="node10" class="node">
<title>Node734</title>
<g id="a_node10"><a xlink:href="$classIoss_1_1Property.html#a45bcbc7137a296f3eda52c92c04da39f" xlink:title="Get the property value if it is of type INTEGER. ">
<polygon fill="#ffffff" stroke="#000000" points="334.1367,-426.5 334.1367,-444.5 447.4072,-444.5 447.4072,-426.5 334.1367,-426.5"/>
<text text-anchor="middle" x="390.772" y="-432.5" font-family="Helvetica,sans-Serif" font-size="10.00" fill="#000000">Ioss::Property::get_int</text>
</a>
</g>
</g>
<!-- Node725&#45;&gt;Node734 -->
<g id="edge31" class="edge">
<title>Node725&#45;&gt;Node734</title>
<path fill="none" stroke="#191970" d="M104.7235,-435.5C163.6998,-435.5 259.5365,-435.5 323.8352,-435.5"/>
<polygon fill="#191970" stroke="#191970" points="323.8735,-439.0001 333.8735,-435.5 323.8735,-432.0001 323.8735,-439.0001"/>
</g>
<!-- Node738 -->
<g id="node14" class="node">
<title>Node738</title>
<g id="a_node14"><a xlink:href="$classIocgns_1_1DatabaseIO.html#ac24c1fe72e1e14f91497d6f4ddcd73d0" xlink:title="Iocgns::DatabaseIO\l::check_valid_file_open">
<polygon fill="#ffffff" stroke="#000000" points="148.9971,-251.5 148.9971,-279.5 268.957,-279.5 268.957,-251.5 148.9971,-251.5"/>
<text text-anchor="start" x="156.9971" y="-267.5" font-family="Helvetica,sans-Serif" font-size="10.00" fill="#000000">Iocgns::DatabaseIO</text>
<text text-anchor="middle" x="208.9771" y="-257.5" font-family="Helvetica,sans-Serif" font-size="10.00" fill="#000000">::check_valid_file_open</text>
</a>
</g>
</g>
<!-- Node725&#45;&gt;Node738 -->
<g id="edge15" class="edge">
<title>Node725&#45;&gt;Node738</title>
<path fill="none" stroke="#191970" d="M65.2896,-421.2983C92.7954,-391.4742 156.706,-322.1768 189.2182,-286.9242"/>
<polygon fill="#191970" stroke="#191970" points="191.8201,-289.2656 196.0268,-279.5417 186.6744,-284.5199 191.8201,-289.2656"/>
</g>
<!-- Node747 -->
<g id="node23" class="node">
<title>Node747</title>
<g id="a_node23"><a xlink:href="$classIoss_1_1DatabaseIO.html#add13a49b34f8c4bb7b85bb7ad91c01c3" xlink:title="Returns 4 or 8. ">
<polygon fill="#ffffff" stroke="#000000" points="152.8984,-204.5 152.8984,-232.5 265.0557,-232.5 265.0557,-204.5 152.8984,-204.5"/>
<text text-anchor="start" x="160.8984" y="-220.5" font-family="Helvetica,sans-Serif" font-size="10.00" fill="#000000">Ioss::DatabaseIO::set</text>
<text text-anchor="middle" x="208.9771" y="-210.5" font-family="Helvetica,sans-Serif" font-size="10.00" fill="#000000">_int_byte_size_api</text>
</a>
</g>
</g>
<!-- Node725&#45;&gt;Node747 -->
<g id="edge32" class="edge">
<title>Node725&#45;&gt;Node747</title>
<path fill="none" stroke="#191970" d="M54.7049,-421.3737C61.7096,-386.0829 84.7183,-293.2639 140.3838,-242.5 142.1259,-240.9113 143.9791,-239.4267 145.918,-238.0394"/>
<polygon fill="#191970" stroke="#191970" points="148.1797,-240.7592 154.8888,-232.5593 144.5305,-234.7857 148.1797,-240.7592"/>
</g>
<!-- Node728&#45;&gt;Node727 -->
<g id="edge8" class="edge">
<title>Node728&#45;&gt;Node727</title>
<path fill="none" stroke="#191970" d="M217.4132,-508.7704C233.109,-534.082 269.2611,-586.8628 313.5703,-615.5 316.4774,-617.3788 319.5439,-619.1094 322.7119,-620.7027"/>
<polygon fill="#191970" stroke="#191970" points="321.3067,-623.9084 331.8606,-624.839 324.1905,-617.53 321.3067,-623.9084"/>
</g>
<!-- Node729 -->
<g id="node5" class="node">
<title>Node729</title>
<g id="a_node5"><a xlink:href="$classIoss_1_1DatabaseIO.html#acd988f56b93ac669b2e504a8e471b321" xlink:title="Ioss::DatabaseIO::util">
<polygon fill="#ffffff" stroke="#000000" points="510.6533,-218.5 510.6533,-236.5 622.2539,-236.5 622.2539,-218.5 510.6533,-218.5"/>
<text text-anchor="middle" x="566.4536" y="-224.5" font-family="Helvetica,sans-Serif" font-size="10.00" fill="#000000">Ioss::DatabaseIO::util</text>
</a>
</g>
</g>
<!-- Node728&#45;&gt;Node729 -->
<g id="edge4" class="edge">
<title>Node728&#45;&gt;Node729</title>
<path fill="none" stroke="#191970" d="M277.8373,-491.2881C344.3107,-486.8992 439.0252,-476.8443 467.9736,-454.5 503.1459,-427.3517 545.7764,-295.8658 560.8478,-246.3834"/>
<polygon fill="#191970" stroke="#191970" points="564.2485,-247.2285 563.7794,-236.6441 557.5456,-245.2109 564.2485,-247.2285"/>
</g>
<!-- Node730 -->
<g id="node6" class="node">
<title>Node730</title>
<g id="a_node6"><a xlink:href="$classIoss_1_1ParallelUtils.html#a847a94880409904693640054d98325df" xlink:title="Ioss::ParallelUtils\l::decode_filename">
<polygon fill="#ffffff" stroke="#000000" points="341.9102,-540.5 341.9102,-568.5 439.6338,-568.5 439.6338,-540.5 341.9102,-540.5"/>
<text text-anchor="start" x="349.9102" y="-556.5" font-family="Helvetica,sans-Serif" font-size="10.00" fill="#000000">Ioss::ParallelUtils</text>
<text text-anchor="middle" x="390.772" y="-546.5" font-family="Helvetica,sans-Serif" font-size="10.00" fill="#000000">::decode_filename</text>
</a>
</g>
</g>
<!-- Node728&#45;&gt;Node730 -->
<g id="edge5" class="edge">
<title>Node728&#45;&gt;Node730</title>
<path fill="none" stroke="#191970" d="M251.5999,-508.5673C277.4908,-517.1124 310.7428,-528.087 338.2511,-537.1659"/>
<polygon fill="#191970" stroke="#191970" points="337.5084,-540.6064 348.1016,-540.417 339.7024,-533.9591 337.5084,-540.6064"/>
</g>
<!-- Node731 -->
<g id="node7" class="node">
<title>Node731</title>
<g id="a_node7"><a xlink:href="$classIoss_1_1Utils.html#a72d3b4a8659178159d33d50eef9843cc" xlink:title="Ioss::Utils::decode\l_filename">
<polygon fill="#ffffff" stroke="#000000" points="517.6016,-497.5 517.6016,-525.5 615.3057,-525.5 615.3057,-497.5 517.6016,-497.5"/>
<text text-anchor="start" x="525.6016" y="-513.5" font-family="Helvetica,sans-Serif" font-size="10.00" fill="#000000">Ioss::Utils::decode</text>
<text text-anchor="middle" x="566.4536" y="-503.5" font-family="Helvetica,sans-Serif" font-size="10.00" fill="#000000">_filename</text>
</a>
</g>
</g>
<!-- Node728&#45;&gt;Node731 -->
<g id="edge14" class="edge">
<title>Node728&#45;&gt;Node731</title>
<path fill="none" stroke="#191970" d="M277.9021,-497.7778C344.4955,-500.9447 444.2929,-505.6906 507.3543,-508.6895"/>
<polygon fill="#191970" stroke="#191970" points="507.3776,-512.1945 517.5326,-509.1735 507.7102,-505.2024 507.3776,-512.1945"/>
</g>
<!-- Node732 -->
<g id="node8" class="node">
<title>Node732</title>
<g id="a_node8"><a xlink:href="$classIoss_1_1DatabaseIO.html#a1c9ad01905e9773cd69b452a8551cbba" xlink:title="Get the file name associated with the database. ">
<polygon fill="#ffffff" stroke="#000000" points="334.4126,-379.5 334.4126,-407.5 447.1313,-407.5 447.1313,-379.5 334.4126,-379.5"/>
<text text-anchor="start" x="342.4126" y="-395.5" font-family="Helvetica,sans-Serif" font-size="10.00" fill="#000000">Ioss::DatabaseIO::get</text>
<text text-anchor="middle" x="390.772" y="-385.5" font-family="Helvetica,sans-Serif" font-size="10.00" fill="#000000">_filename</text>
</a>
</g>
</g>
<!-- Node728&#45;&gt;Node732 -->
<g id="edge7" class="edge">
<title>Node728&#45;&gt;Node732</title>
<path fill="none" stroke="#191970" d="M224.5312,-480.4233C244.051,-463.4065 279.1584,-434.8937 313.5703,-417.5 318.074,-415.2236 322.8354,-413.1132 327.6933,-411.1671"/>
<polygon fill="#191970" stroke="#191970" points="328.9828,-414.4216 337.1118,-407.6268 326.5198,-407.8692 328.9828,-414.4216"/>
</g>
<!-- Node728&#45;&gt;Node733 -->
<g id="edge9" class="edge">
<title>Node728&#45;&gt;Node733</title>
<path fill="none" stroke="#191970" d="M225.9768,-508.8441C253.0307,-531.5657 303.8322,-573.7617 313.5703,-578.5 318.1705,-580.7383 323.0624,-582.7061 328.0644,-584.4348"/>
<polygon fill="#191970" stroke="#191970" points="327.1826,-587.8261 337.7715,-587.4726 329.2733,-581.1456 327.1826,-587.8261"/>
</g>
<!-- Node728&#45;&gt;Node734 -->
<g id="edge10" class="edge">
<title>Node728&#45;&gt;Node734</title>
<path fill="none" stroke="#191970" d="M250.1415,-480.4979C269.379,-474.0126 292.614,-466.2628 313.5703,-459.5 325.7799,-455.5598 339.1128,-451.3737 351.2103,-447.6195"/>
<polygon fill="#191970" stroke="#191970" points="352.5105,-450.881 361.0298,-444.5825 350.4421,-444.1935 352.5105,-450.881"/>
</g>
<!-- Node730&#45;&gt;Node731 -->
<g id="edge6" class="edge">
<title>Node730&#45;&gt;Node731</title>
<path fill="none" stroke="#191970" d="M439.7091,-542.5221C460.7518,-537.3717 485.527,-531.3077 507.5649,-525.9137"/>
<polygon fill="#191970" stroke="#191970" points="508.5934,-529.2653 517.4745,-523.4882 506.9291,-522.466 508.5934,-529.2653"/>
</g>
<!-- Node735 -->
<g id="node11" class="node">
<title>Node735</title>
<g id="a_node11"><a xlink:href="$namespaceanonymous__namespace_02Ioss__Property_8C_03.html#a7e9f404cf974920b115b502313608c02" xlink:title="anonymous_namespace\l\{Ioss_Property::C\}::\lerror_message">
<polygon fill="#ffffff" stroke="#000000" points="503.9736,-416.5 503.9736,-454.5 628.9336,-454.5 628.9336,-416.5 503.9736,-416.5"/>
<text text-anchor="start" x="511.9736" y="-442.5" font-family="Helvetica,sans-Serif" font-size="10.00" fill="#000000">anonymous_namespace</text>
<text text-anchor="start" x="511.9736" y="-432.5" font-family="Helvetica,sans-Serif" font-size="10.00" fill="#000000">{Ioss_Property::C}::</text>
<text text-anchor="middle" x="566.4536" y="-422.5" font-family="Helvetica,sans-Serif" font-size="10.00" fill="#000000">error_message</text>
</a>
</g>
</g>
<!-- Node734&#45;&gt;Node735 -->
<g id="edge11" class="edge">
<title>Node734&#45;&gt;Node735</title>
<path fill="none" stroke="#191970" d="M447.8108,-435.5C462.3823,-435.5 478.2487,-435.5 493.4985,-435.5"/>
<polygon fill="#191970" stroke="#191970" points="493.9341,-439.0001 503.9341,-435.5 493.9341,-432.0001 493.9341,-439.0001"/>
</g>
<!-- Node736 -->
<g id="node12" class="node">
<title>Node736</title>
<g id="a_node12"><a xlink:href="$namespaceanonymous__namespace_02Ioss__Property_8C_03.html#a33c896c06915d8a83ca1d8886b26d8ed" xlink:title="anonymous_namespace\l\{Ioss_Property::C\}::\ltype_string">
<polygon fill="#ffffff" stroke="#000000" points="664.9336,-439.5 664.9336,-477.5 789.8936,-477.5 789.8936,-439.5 664.9336,-439.5"/>
<text text-anchor="start" x="672.9336" y="-465.5" font-family="Helvetica,sans-Serif" font-size="10.00" fill="#000000">anonymous_namespace</text>
<text text-anchor="start" x="672.9336" y="-455.5" font-family="Helvetica,sans-Serif" font-size="10.00" fill="#000000">{Ioss_Property::C}::</text>
<text text-anchor="middle" x="727.4136" y="-445.5" font-family="Helvetica,sans-Serif" font-size="10.00" fill="#000000">type_string</text>
</a>
</g>
</g>
<!-- Node735&#45;&gt;Node736 -->
<g id="edge12" class="edge">
<title>Node735&#45;&gt;Node736</title>
<path fill="none" stroke="#191970" d="M629.1458,-444.4583C637.584,-445.664 646.2968,-446.909 654.8875,-448.1366"/>
<polygon fill="#191970" stroke="#191970" points="654.4979,-451.6164 664.8925,-449.5662 655.4881,-444.6867 654.4979,-451.6164"/>
</g>
<!-- Node737 -->
<g id="node13" class="node">
<title>Node737</title>
<g id="a_node13"><a xlink:href="$classIoss_1_1Property.html#a90c992cd11af736282e63e1c34b1c076" xlink:title="Get the property type. ">
<polygon fill="#ffffff" stroke="#000000" points="666.6084,-402.5 666.6084,-420.5 788.2188,-420.5 788.2188,-402.5 666.6084,-402.5"/>
<text text-anchor="middle" x="727.4136" y="-408.5" font-family="Helvetica,sans-Serif" font-size="10.00" fill="#000000">Ioss::Property::get_type</text>
</a>
</g>
</g>
<!-- Node735&#45;&gt;Node737 -->
<g id="edge13" class="edge">
<title>Node735&#45;&gt;Node737</title>
<path fill="none" stroke="#191970" d="M629.1458,-426.1523C638.286,-424.7894 647.7485,-423.3785 657.0289,-421.9947"/>
<polygon fill="#191970" stroke="#191970" points="657.6295,-425.444 667.004,-420.5074 656.5971,-418.5205 657.6295,-425.444"/>
</g>
<!-- Node738&#45;&gt;Node726 -->
<g id="edge28" class="edge">
<title>Node738&#45;&gt;Node726</title>
<path fill="none" stroke="#191970" d="M235.2773,-279.5096C256.2193,-290.4363 286.4211,-305.6887 313.5703,-317.5 322.4374,-321.3576 331.9993,-325.1983 341.2722,-328.7624"/>
<polygon fill="#191970" stroke="#191970" points="340.1982,-332.0982 350.7896,-332.3657 342.6767,-325.5517 340.1982,-332.0982"/>
</g>
<!-- Node738&#45;&gt;Node729 -->
<g id="edge16" class="edge">
<title>Node738&#45;&gt;Node729</title>
<path fill="none" stroke="#191970" d="M269.1232,-254.1804C283.6377,-251.7171 299.1272,-249.3101 313.5703,-247.5 376.7332,-239.5841 449.1877,-234.2313 500.3055,-231.0707"/>
<polygon fill="#191970" stroke="#191970" points="500.7872,-234.548 510.5568,-230.4486 500.3631,-227.5609 500.7872,-234.548"/>
</g>
<!-- Node738&#45;&gt;Node731 -->
<g id="edge23" class="edge">
<title>Node738&#45;&gt;Node731</title>
<path fill="none" stroke="#191970" d="M269.1397,-277.3276C343.3803,-292.1636 460.7723,-316.5092 467.9736,-323.5 514.3806,-368.55 468.1017,-410.6826 503.9736,-464.5 511.0903,-475.1769 521.4706,-484.3773 531.7338,-491.7358"/>
<polygon fill="#191970" stroke="#191970" points="530.0042,-494.7908 540.2532,-497.4757 533.9155,-488.9854 530.0042,-494.7908"/>
</g>
<!-- Node738&#45;&gt;Node732 -->
<g id="edge24" class="edge">
<title>Node738&#45;&gt;Node732</title>
<path fill="none" stroke="#191970" d="M219.2202,-279.617C236.2808,-302.1259 272.7048,-346.0904 313.5703,-370.5 317.1497,-372.638 320.9425,-374.59 324.8503,-376.3703"/>
<polygon fill="#191970" stroke="#191970" points="323.5532,-379.6214 334.1311,-380.2194 326.2349,-373.1554 323.5532,-379.6214"/>
</g>
<!-- Node739 -->
<g id="node15" class="node">
<title>Node739</title>
<g id="a_node15"><a xlink:href="$classIoss_1_1ParallelUtils.html#a0caf3dea894c98f32b83b705aaa1e360" xlink:title="Ioss::ParallelUtils\l::global_minmax">
<polygon fill="#ffffff" stroke="#000000" points="344.4272,-47.5 344.4272,-75.5 437.1167,-75.5 437.1167,-47.5 344.4272,-47.5"/>
<text text-anchor="start" x="352.4272" y="-63.5" font-family="Helvetica,sans-Serif" font-size="10.00" fill="#000000">Ioss::ParallelUtils</text>
<text text-anchor="middle" x="390.772" y="-53.5" font-family="Helvetica,sans-Serif" font-size="10.00" fill="#000000">::global_minmax</text>
</a>
</g>
</g>
<!-- Node738&#45;&gt;Node739 -->
<g id="edge17" class="edge">
<title>Node738&#45;&gt;Node739</title>
<path fill="none" stroke="#191970" d="M266.8068,-251.3377C270.7766,-248.8526 274.437,-245.9321 277.5703,-242.5 324.3779,-191.2281 267.688,-142.6015 313.5703,-90.5 319.4141,-83.8641 326.9312,-78.7422 334.9744,-74.79"/>
<polygon fill="#191970" stroke="#191970" points="336.4194,-77.9786 344.2176,-70.8065 333.6489,-71.5501 336.4194,-77.9786"/>
</g>
<!-- Node743 -->
<g id="node19" class="node">
<title>Node743</title>
<g id="a_node19"><a xlink:href="$classIoss_1_1ParallelUtils.html#a6dc17211b6215cdf25671205024b3f08" xlink:title="Ioss::ParallelUtils\l::all_gather">
<polygon fill="#ffffff" stroke="#000000" points="344.4272,-133.5 344.4272,-161.5 437.1167,-161.5 437.1167,-133.5 344.4272,-133.5"/>
<text text-anchor="start" x="352.4272" y="-149.5" font-family="Helvetica,sans-Serif" font-size="10.00" fill="#000000">Ioss::ParallelUtils</text>
<text text-anchor="middle" x="390.772" y="-139.5" font-family="Helvetica,sans-Serif" font-size="10.00" fill="#000000">::all_gather</text>
</a>
</g>
</g>
<!-- Node738&#45;&gt;Node743 -->
<g id="edge21" class="edge">
<title>Node738&#45;&gt;Node743</title>
<path fill="none" stroke="#191970" d="M264.2688,-251.3839C269.0501,-248.8849 273.5785,-245.9487 277.5703,-242.5 304.3428,-219.3702 286.5436,-194.3322 313.5703,-171.5 319.7446,-166.284 327.0476,-162.2002 334.659,-159.0031"/>
<polygon fill="#191970" stroke="#191970" points="335.8802,-162.2833 344.0412,-155.5268 333.4481,-155.7194 335.8802,-162.2833"/>
</g>
<!-- Node744 -->
<g id="node20" class="node">
<title>Node744</title>
<g id="a_node20"><a xlink:href="$classIoss_1_1ParallelUtils.html#a795617c394bd2bc1b68a15a006981971" xlink:title="Ioss::ParallelUtils\l::parallel_size">
<polygon fill="#ffffff" stroke="#000000" points="520.1089,-156.5 520.1089,-184.5 612.7983,-184.5 612.7983,-156.5 520.1089,-156.5"/>
<text text-anchor="start" x="528.1089" y="-172.5" font-family="Helvetica,sans-Serif" font-size="10.00" fill="#000000">Ioss::ParallelUtils</text>
<text text-anchor="middle" x="566.4536" y="-162.5" font-family="Helvetica,sans-Serif" font-size="10.00" fill="#000000">::parallel_size</text>
</a>
</g>
</g>
<!-- Node738&#45;&gt;Node744 -->
<g id="edge22" class="edge">
<title>Node738&#45;&gt;Node744</title>
<path fill="none" stroke="#191970" d="M266.2442,-251.3119C270.3903,-248.8329 274.242,-245.9209 277.5703,-242.5 315.8065,-203.201 269.5038,-157.1276 313.5703,-124.5 380.5576,-74.9014 484.4179,-122.1685 535.6826,-151.3535"/>
<polygon fill="#191970" stroke="#191970" points="533.9258,-154.3806 544.3284,-156.3899 537.4493,-148.3321 533.9258,-154.3806"/>
</g>
<!-- Node745 -->
<g id="node21" class="node">
<title>Node745</title>
<g id="a_node21"><a xlink:href="$classIoss_1_1DatabaseIO.html#aceccfba755333cf8af271ba5dcc659c4" xlink:title="Ioss::DatabaseIO::parallel_size">
<polygon fill="#ffffff" stroke="#000000" points="313.5703,-180.5 313.5703,-198.5 467.9736,-198.5 467.9736,-180.5 313.5703,-180.5"/>
<text text-anchor="middle" x="390.772" y="-186.5" font-family="Helvetica,sans-Serif" font-size="10.00" fill="#000000">Ioss::DatabaseIO::parallel_size</text>
</a>
</g>
</g>
<!-- Node738&#45;&gt;Node745 -->
<g id="edge25" class="edge">
<title>Node738&#45;&gt;Node745</title>
<path fill="none" stroke="#191970" d="M258.2255,-251.3631C264.8886,-248.7702 271.5106,-245.8169 277.5703,-242.5 295.5927,-232.635 295.4399,-223.165 313.5703,-213.5 322.3952,-208.7956 332.288,-204.8508 341.9707,-201.6071"/>
<polygon fill="#191970" stroke="#191970" points="343.049,-204.9371 351.536,-198.595 340.9465,-198.2603 343.049,-204.9371"/>
</g>
<!-- Node746 -->
<g id="node22" class="node">
<title>Node746</title>
<g id="a_node22"><a xlink:href="$namespaceIodw_1_1Utils.html#a87e044777c87d6496718621a3e274dc4" xlink:title="Iodw::Utils::msg">
<polygon fill="#ffffff" stroke="#000000" points="347.4863,-256.5 347.4863,-274.5 434.0576,-274.5 434.0576,-256.5 347.4863,-256.5"/>
<text text-anchor="middle" x="390.772" y="-262.5" font-family="Helvetica,sans-Serif" font-size="10.00" fill="#000000">Iodw::Utils::msg</text>
</a>
</g>
</g>
<!-- Node738&#45;&gt;Node746 -->
<g id="edge29" class="edge">
<title>Node738&#45;&gt;Node746</title>
<path fill="none" stroke="#191970" d="M269.0073,-265.5C290.9606,-265.5 315.6396,-265.5 337.0111,-265.5"/>
<polygon fill="#191970" stroke="#191970" points="337.2104,-269.0001 347.2104,-265.5 337.2104,-262.0001 337.2104,-269.0001"/>
</g>
<!-- Node740 -->
<g id="node16" class="node">
<title>Node740</title>
<g id="a_node16"><a xlink:href="$classIoss_1_1SerializeIO.html#a5d68f99aed4918df6020bda04222b97f" xlink:title="Ioss::SerializeIO::\lisEnabled">
<polygon fill="#ffffff" stroke="#000000" points="519.2739,-47.5 519.2739,-75.5 613.6333,-75.5 613.6333,-47.5 519.2739,-47.5"/>
<text text-anchor="start" x="527.2739" y="-63.5" font-family="Helvetica,sans-Serif" font-size="10.00" fill="#000000">Ioss::SerializeIO::</text>
<text text-anchor="middle" x="566.4536" y="-53.5" font-family="Helvetica,sans-Serif" font-size="10.00" fill="#000000">isEnabled</text>
</a>
</g>
</g>
<!-- Node739&#45;&gt;Node740 -->
<g id="edge18" class="edge">
<title>Node739&#45;&gt;Node740</title>
<path fill="none" stroke="#191970" d="M437.3902,-61.5C459.3505,-61.5 485.7563,-61.5 508.9465,-61.5"/>
<polygon fill="#191970" stroke="#191970" points="509.0057,-65.0001 519.0057,-61.5 509.0057,-58.0001 509.0057,-65.0001"/>
</g>
<!-- Node741 -->
<g id="node17" class="node">
<title>Node741</title>
<g id="a_node17"><a xlink:href="$classIoss_1_1SerializeIO.html#a85299d763408cb35c3c000f02e08ede0" xlink:title="Ioss::SerializeIO::\linBarrier">
<polygon fill="#ffffff" stroke="#000000" points="519.2739,-.5 519.2739,-28.5 613.6333,-28.5 613.6333,-.5 519.2739,-.5"/>
<text text-anchor="start" x="527.2739" y="-16.5" font-family="Helvetica,sans-Serif" font-size="10.00" fill="#000000">Ioss::SerializeIO::</text>
<text text-anchor="middle" x="566.4536" y="-6.5" font-family="Helvetica,sans-Serif" font-size="10.00" fill="#000000">inBarrier</text>
</a>
</g>
</g>
<!-- Node739&#45;&gt;Node741 -->
<g id="edge19" class="edge">
<title>Node739&#45;&gt;Node741</title>
<path fill="none" stroke="#191970" d="M437.3902,-49.0283C459.449,-43.1269 485.9932,-36.0255 509.2583,-29.8014"/>
<polygon fill="#191970" stroke="#191970" points="510.25,-33.1593 519.0057,-27.1937 508.4408,-26.3971 510.25,-33.1593"/>
</g>
<!-- Node742 -->
<g id="node18" class="node">
<title>Node742</title>
<g id="a_node18"><a xlink:href="$classIoss_1_1SerializeIO.html#ac7468ed4a5f858ffb502c3132e3e87b6" xlink:title="Ioss::SerializeIO::\lgetOwner">
<polygon fill="#ffffff" stroke="#000000" points="519.2739,-94.5 519.2739,-122.5 613.6333,-122.5 613.6333,-94.5 519.2739,-94.5"/>
<text text-anchor="start" x="527.2739" y="-110.5" font-family="Helvetica,sans-Serif" font-size="10.00" fill="#000000">Ioss::SerializeIO::</text>
<text text-anchor="middle" x="566.4536" y="-100.5" font-family="Helvetica,sans-Serif" font-size="10.00" fill="#000000">getOwner</text>
</a>
</g>
</g>
<!-- Node739&#45;&gt;Node742 -->
<g id="edge20" class="edge">
<title>Node739&#45;&gt;Node742</title>
<path fill="none" stroke="#191970" d="M437.3902,-73.9717C459.449,-79.8731 485.9932,-86.9745 509.2583,-93.1986"/>
<polygon fill="#191970" stroke="#191970" points="508.4408,-96.6029 519.0057,-95.8063 510.25,-89.8407 508.4408,-96.6029"/>
</g>
<!-- Node745&#45;&gt;Node729 -->
<g id="edge26" class="edge">
<title>Node745&#45;&gt;Node729</title>
<path fill="none" stroke="#191970" d="M432.4061,-198.5055C457.1487,-203.8573 488.729,-210.6881 515.0216,-216.3752"/>
<polygon fill="#191970" stroke="#191970" points="514.3004,-219.8001 524.8143,-218.4934 515.7803,-212.9583 514.3004,-219.8001"/>
</g>
<!-- Node745&#45;&gt;Node744 -->
<g id="edge27" class="edge">
<title>Node745&#45;&gt;Node744</title>
<path fill="none" stroke="#191970" d="M468.0842,-181.1387C482.1689,-179.6154 496.62,-178.0525 509.9608,-176.6097"/>
<polygon fill="#191970" stroke="#191970" points="510.3561,-180.0875 519.9217,-175.5324 509.6033,-173.128 510.3561,-180.0875"/>
</g>
</g>
</svg>
