<?xml version="1.0" encoding="UTF-8" standalone="no"?>
<!DOCTYPE svg PUBLIC "-//W3C//DTD SVG 1.1//EN"
 "http://www.w3.org/Graphics/SVG/1.1/DTD/svg11.dtd">
<!-- Generated by graphviz version 2.40.1 (20161225.0304)
 -->
<!-- Title: Ioss::DatabaseIO::create_path Pages: 1 -->
<svg width="449pt" height="158pt"
 viewBox="0.00 0.00 448.72 158.00" xmlns="http://www.w3.org/2000/svg" xmlns:xlink="http://www.w3.org/1999/xlink">
<g id="graph0" class="graph" transform="scale(1 1) rotate(0) translate(4 154)">
<title>Ioss::DatabaseIO::create_path</title>
<polygon fill="#ffffff" stroke="transparent" points="-4,4 -4,-154 444.7178,-154 444.7178,4 -4,4"/>
<!-- Node314 -->
<g id="node1" class="node">
<title>Node314</title>
<polygon fill="#bfbfbf" stroke="#000000" points="0,-94.5 0,-112.5 151.6348,-112.5 151.6348,-94.5 0,-94.5"/>
<text text-anchor="middle" x="75.8174" y="-100.5" font-family="Helvetica,sans-Serif" font-size="10.00" fill="#000000">Ioss::DatabaseIO::create_path</text>
</g>
<!-- Node315 -->
<g id="node2" class="node">
<title>Node315</title>
<g id="a_node2"><a xlink:href="classIoss_1_1FileInfo.html#af19049069064a3571f8d049ab9e00906" target="_top" xlink:title="directory path, no filename ">
<polygon fill="#ffffff" stroke="#000000" points="187.6348,-131.5 187.6348,-149.5 310.3584,-149.5 310.3584,-131.5 187.6348,-131.5"/>
<text text-anchor="middle" x="248.9966" y="-137.5" font-family="Helvetica,sans-Serif" font-size="10.00" fill="#000000">Ioss::FileInfo::pathname</text>
</a>
</g>
</g>
<!-- Node314&#45;&gt;Node315 -->
<g id="edge1" class="edge">
<title>Node314&#45;&gt;Node315</title>
<path fill="none" stroke="#191970" d="M118.1818,-112.5512C141.8564,-117.6093 171.5604,-123.9556 196.6772,-129.3219"/>
<polygon fill="#191970" stroke="#191970" points="196.2592,-132.8115 206.7698,-131.4782 197.7218,-125.966 196.2592,-132.8115"/>
</g>
<!-- Node316 -->
<g id="node3" class="node">
<title>Node316</title>
<g id="a_node3"><a xlink:href="classIoss_1_1DatabaseIO.html#acd988f56b93ac669b2e504a8e471b321" target="_top" xlink:title="Ioss::DatabaseIO::util">
<polygon fill="#ffffff" stroke="#000000" points="193.1963,-94.5 193.1963,-112.5 304.7969,-112.5 304.7969,-94.5 193.1963,-94.5"/>
<text text-anchor="middle" x="248.9966" y="-100.5" font-family="Helvetica,sans-Serif" font-size="10.00" fill="#000000">Ioss::DatabaseIO::util</text>
</a>
</g>
</g>
<!-- Node314&#45;&gt;Node316 -->
<g id="edge2" class="edge">
<title>Node314&#45;&gt;Node316</title>
<path fill="none" stroke="#191970" d="M151.7763,-103.5C162.2049,-103.5 172.8424,-103.5 183.0712,-103.5"/>
<polygon fill="#191970" stroke="#191970" points="183.1411,-107.0001 193.141,-103.5 183.141,-100.0001 183.1411,-107.0001"/>
</g>
<!-- Node317 -->
<g id="node4" class="node">
<title>Node317</title>
<g id="a_node4"><a xlink:href="classIoss_1_1ParallelUtils.html#a0caf3dea894c98f32b83b705aaa1e360" target="_top" xlink:title="Ioss::ParallelUtils\l::global_minmax">
<polygon fill="#ffffff" stroke="#000000" points="202.6519,-47.5 202.6519,-75.5 295.3413,-75.5 295.3413,-47.5 202.6519,-47.5"/>
<text text-anchor="start" x="210.6519" y="-63.5" font-family="Helvetica,sans-Serif" font-size="10.00" fill="#000000">Ioss::ParallelUtils</text>
<text text-anchor="middle" x="248.9966" y="-53.5" font-family="Helvetica,sans-Serif" font-size="10.00" fill="#000000">::global_minmax</text>
</a>
</g>
</g>
<!-- Node314&#45;&gt;Node317 -->
<g id="edge3" class="edge">
<title>Node314&#45;&gt;Node317</title>
<path fill="none" stroke="#191970" d="M112.9687,-94.4899C136.2344,-88.8475 166.6612,-81.4683 192.8372,-75.12"/>
<polygon fill="#191970" stroke="#191970" points="193.7442,-78.5015 202.6375,-72.7432 192.0943,-71.6987 193.7442,-78.5015"/>
</g>
<!-- Node318 -->
<g id="node5" class="node">
<title>Node318</title>
<g id="a_node5"><a xlink:href="classIoss_1_1SerializeIO.html#a5d68f99aed4918df6020bda04222b97f" target="_top" xlink:title="Ioss::SerializeIO::\lisEnabled">
<polygon fill="#ffffff" stroke="#000000" points="346.3584,-94.5 346.3584,-122.5 440.7178,-122.5 440.7178,-94.5 346.3584,-94.5"/>
<text text-anchor="start" x="354.3584" y="-110.5" font-family="Helvetica,sans-Serif" font-size="10.00" fill="#000000">Ioss::SerializeIO::</text>
<text text-anchor="middle" x="393.5381" y="-100.5" font-family="Helvetica,sans-Serif" font-size="10.00" fill="#000000">isEnabled</text>
</a>
</g>
</g>
<!-- Node317&#45;&gt;Node318 -->
<g id="edge4" class="edge">
<title>Node317&#45;&gt;Node318</title>
<path fill="none" stroke="#191970" d="M292.3638,-75.6015C307.5137,-80.5278 324.6924,-86.1137 340.5378,-91.2661"/>
<polygon fill="#191970" stroke="#191970" points="339.6093,-94.6445 350.2015,-94.4084 341.7739,-87.9876 339.6093,-94.6445"/>
</g>
<!-- Node319 -->
<g id="node6" class="node">
<title>Node319</title>
<g id="a_node6"><a xlink:href="classIoss_1_1SerializeIO.html#a85299d763408cb35c3c000f02e08ede0" target="_top" xlink:title="Ioss::SerializeIO::\linBarrier">
<polygon fill="#ffffff" stroke="#000000" points="346.3584,-47.5 346.3584,-75.5 440.7178,-75.5 440.7178,-47.5 346.3584,-47.5"/>
<text text-anchor="start" x="354.3584" y="-63.5" font-family="Helvetica,sans-Serif" font-size="10.00" fill="#000000">Ioss::SerializeIO::</text>
<text text-anchor="middle" x="393.5381" y="-53.5" font-family="Helvetica,sans-Serif" font-size="10.00" fill="#000000">inBarrier</text>
</a>
</g>
</g>
<!-- Node317&#45;&gt;Node319 -->
<g id="edge5" class="edge">
<title>Node317&#45;&gt;Node319</title>
<path fill="none" stroke="#191970" d="M295.526,-61.5C308.4158,-61.5 322.5622,-61.5 335.9991,-61.5"/>
<polygon fill="#191970" stroke="#191970" points="336.1035,-65.0001 346.1035,-61.5 336.1034,-58.0001 336.1035,-65.0001"/>
</g>
<!-- Node320 -->
<g id="node7" class="node">
<title>Node320</title>
<g id="a_node7"><a xlink:href="classIoss_1_1SerializeIO.html#ac7468ed4a5f858ffb502c3132e3e87b6" target="_top" xlink:title="Ioss::SerializeIO::\lgetOwner">
<polygon fill="#ffffff" stroke="#000000" points="346.3584,-.5 346.3584,-28.5 440.7178,-28.5 440.7178,-.5 346.3584,-.5"/>
<text text-anchor="start" x="354.3584" y="-16.5" font-family="Helvetica,sans-Serif" font-size="10.00" fill="#000000">Ioss::SerializeIO::</text>
<text text-anchor="middle" x="393.5381" y="-6.5" font-family="Helvetica,sans-Serif" font-size="10.00" fill="#000000">getOwner</text>
</a>
</g>
</g>
<!-- Node317&#45;&gt;Node320 -->
<g id="edge6" class="edge">
<title>Node317&#45;&gt;Node320</title>
<path fill="none" stroke="#191970" d="M292.3638,-47.3985C307.5137,-42.4722 324.6924,-36.8863 340.5378,-31.7339"/>
<polygon fill="#191970" stroke="#191970" points="341.7739,-35.0124 350.2015,-28.5916 339.6093,-28.3555 341.7739,-35.0124"/>
</g>
</g>
</svg>
