<?xml version="1.0" encoding="UTF-8" standalone="no"?>
<!DOCTYPE svg PUBLIC "-//W3C//DTD SVG 1.1//EN"
 "http://www.w3.org/Graphics/SVG/1.1/DTD/svg11.dtd">
<!-- Generated by graphviz version 2.42.3 (20191010.1750)
 -->
<!-- Title: Iogn::DashSurfaceMesh Pages: 1 -->
<svg width="258pt" height="92pt"
 viewBox="0.00 0.00 258.40 92.00" xmlns="http://www.w3.org/2000/svg" xmlns:xlink="http://www.w3.org/1999/xlink">
<g id="graph0" class="graph" transform="scale(1 1) rotate(0) translate(4 88)">
<title>Iogn::DashSurfaceMesh</title>
<polygon fill="white" stroke="transparent" points="-4,4 -4,-88 254.4,-88 254.4,4 -4,4"/>
<!-- Node1 -->
<g id="node1" class="node">
<title>Node1</title>
<g id="a_node1"><a xlink:title=" ">
<polygon fill="#bfbfbf" stroke="black" points="61.72,-0.5 61.72,-18.5 185,-18.5 185,-0.5 61.72,-0.5"/>
<text text-anchor="middle" x="123.36" y="-6.5" font-family="Helvetica,sans-Serif" font-size="10.00">Iogn::DashSurfaceMesh</text>
</a>
</g>
</g>
<!-- Node2 -->
<g id="node2" class="node">
<title>Node2</title>
<g id="a_node2"><a xlink:href="classIogn_1_1GeneratedMesh.html" target="_top" xlink:title=" ">
<polygon fill="white" stroke="black" points="0,-65.5 0,-83.5 112.73,-83.5 112.73,-65.5 0,-65.5"/>
<text text-anchor="middle" x="56.36" y="-71.5" font-family="Helvetica,sans-Serif" font-size="10.00">Iogn::GeneratedMesh</text>
</a>
</g>
</g>
<!-- Node2&#45;&gt;Node1 -->
<g id="edge1" class="edge">
<title>Node2&#45;&gt;Node1</title>
<path fill="none" stroke="midnightblue" d="M72.65,-58.19C85.95,-45.68 104.22,-28.5 114.81,-18.54"/>
<polygon fill="midnightblue" stroke="midnightblue" points="70.01,-55.86 65.12,-65.26 74.81,-60.96 70.01,-55.86"/>
</g>
<!-- Node3 -->
<g id="node3" class="node">
<title>Node3</title>
<g id="a_node3"><a xlink:href="structIogn_1_1DashSurfaceData.html" target="_top" xlink:title=" ">
<polygon fill="white" stroke="black" points="130.39,-65.5 130.39,-83.5 250.34,-83.5 250.34,-65.5 130.39,-65.5"/>
<text text-anchor="middle" x="190.36" y="-71.5" font-family="Helvetica,sans-Serif" font-size="10.00">Iogn::DashSurfaceData</text>
</a>
</g>
</g>
<!-- Node3&#45;&gt;Node1 -->
<g id="edge2" class="edge">
<title>Node3&#45;&gt;Node1</title>
<path fill="none" stroke="#9a32cd" stroke-dasharray="5,2" d="M174.08,-58.19C160.78,-45.68 142.51,-28.5 131.91,-18.54"/>
<polygon fill="#9a32cd" stroke="#9a32cd" points="171.92,-60.96 181.61,-65.26 176.72,-55.86 171.92,-60.96"/>
<text text-anchor="middle" x="205.38" y="-39" font-family="Helvetica,sans-Serif" font-size="10.00"> mDashSurfaceData</text>
</g>
</g>
</svg>
