<?xml version="1.0" encoding="UTF-8" standalone="no"?>
<!DOCTYPE svg PUBLIC "-//W3C//DTD SVG 1.1//EN"
 "http://www.w3.org/Graphics/SVG/1.1/DTD/svg11.dtd">
<!-- Generated by graphviz version 2.40.1 (20161225.0304)
 -->
<!-- Title: Iocgns::DatabaseIO::closeDatabase__ Pages: 1 -->
<!--zoomable 194 -->
<svg id="main" version="1.1" xmlns="http://www.w3.org/2000/svg" xmlns:xlink="http://www.w3.org/1999/xlink" xml:space="preserve" onload="init(evt)">
<style type="text/css"><![CDATA[
.edge:hover path { stroke: red; }
.edge:hover polygon { stroke: red; fill: red; }
]]></style>
<script type="text/javascript"><![CDATA[
var edges = document.getElementsByTagName('g');
if (edges && edges.length) {
  for (var i=0;i<edges.length;i++) {
    if (edges[i].id.substr(0,4)=='edge') {
      edges[i].setAttribute('class','edge');
    }
  }
}
]]></script>
        <defs>
                <circle id="rim" cx="0" cy="0" r="7"/>
                <circle id="rim2" cx="0" cy="0" r="3.5"/>
                <g id="zoomPlus">
                        <use xlink:href="#rim" fill="#404040">
                                <set attributeName="fill" to="#808080" begin="zoomplus.mouseover" end="zoomplus.mouseout"/>
                        </use>
                        <path d="M-4,0h8M0,-4v8" fill="none" stroke="white" stroke-width="1.5" pointer-events="none"/>
                </g>
                <g id="zoomMin">
                        <use xlink:href="#rim" fill="#404040">
                                <set attributeName="fill" to="#808080" begin="zoomminus.mouseover" end="zoomminus.mouseout"/>
                        </use>
                        <path d="M-4,0h8" fill="none" stroke="white" stroke-width="1.5" pointer-events="none"/>
                </g>
                <g id="dirArrow">
                        <path fill="none" stroke="white" stroke-width="1.5" d="M0,-3.0v7 M-2.5,-0.5L0,-3.0L2.5,-0.5"/>
                </g>
               <g id="resetDef">
                       <use xlink:href="#rim2" fill="#404040">
                               <set attributeName="fill" to="#808080" begin="reset.mouseover" end="reset.mouseout"/>
                       </use>
               </g>
        </defs>

<script type="text/javascript">
var viewWidth = 623;
var viewHeight = 194;
var sectionId = 'dynsection-7';
</script>
<script xlink:href="svgpan.js"/>
<svg id="graph" class="graph">
<g id="viewport">
<title>Iocgns::DatabaseIO::closeDatabase__</title>
<polygon fill="#ffffff" stroke="transparent" points="-4,4 -4,-190 618.998,-190 618.998,4 -4,4"/>
<!-- Node116 -->
<g id="node1" class="node">
<title>Node116</title>
<polygon fill="#bfbfbf" stroke="#000000" points="0,-84.5 0,-112.5 104.3838,-112.5 104.3838,-84.5 0,-84.5"/>
<text text-anchor="start" x="8" y="-100.5" font-family="Helvetica,sans-Serif" font-size="10.00" fill="#000000">Iocgns::DatabaseIO</text>
<text text-anchor="middle" x="52.1919" y="-90.5" font-family="Helvetica,sans-Serif" font-size="10.00" fill="#000000">::closeDatabase__</text>
</g>
<!-- Node117 -->
<g id="node2" class="node">
<title>Node117</title>
<g id="a_node2"><a xlink:href="classIoss_1_1DatabaseIO.html#ac744cfa124aea2aca48ddbb429cfb697" target="_top" xlink:title="Function which invokes stageout from BB to Disk, prior to completion of final close. ">
<polygon fill="#ffffff" stroke="#000000" points="140.3838,-89.5 140.3838,-107.5 279.2061,-107.5 279.2061,-89.5 140.3838,-89.5"/>
<text text-anchor="middle" x="209.7949" y="-95.5" font-family="Helvetica,sans-Serif" font-size="10.00" fill="#000000">Ioss::DatabaseIO::closeDW</text>
</a>
</g>
</g>
<!-- Node116&#45;&gt;Node117 -->
<g id="edge1" class="edge">
<title>Node116&#45;&gt;Node117</title>
<path fill="none" stroke="#191970" d="M104.6714,-98.5C112.8452,-98.5 121.4458,-98.5 130.0612,-98.5"/>
<polygon fill="#191970" stroke="#191970" points="130.1572,-102.0001 140.1572,-98.5 130.1572,-95.0001 130.1572,-102.0001"/>
</g>
<!-- Node118 -->
<g id="node3" class="node">
<title>Node118</title>
<g id="a_node3"><a xlink:href="classIoss_1_1DatabaseIO.html#a7ebbdc09be146cd42dc26b135e494a95" target="_top" xlink:title="Ioss::DatabaseIO::using_dw">
<polygon fill="#ffffff" stroke="#000000" points="473.9297,-167.5 473.9297,-185.5 614.998,-185.5 614.998,-167.5 473.9297,-167.5"/>
<text text-anchor="middle" x="544.4639" y="-173.5" font-family="Helvetica,sans-Serif" font-size="10.00" fill="#000000">Ioss::DatabaseIO::using_dw</text>
</a>
</g>
</g>
<!-- Node117&#45;&gt;Node118 -->
<g id="edge2" class="edge">
<title>Node117&#45;&gt;Node118</title>
<path fill="none" stroke="#191970" d="M219.2446,-107.661C236.5659,-123.7622 275.3025,-156.6456 315.2061,-169.5 362.7642,-184.8202 418.7785,-186.804 463.5341,-184.8442"/>
<polygon fill="#191970" stroke="#191970" points="463.971,-188.3265 473.7786,-184.319 463.6124,-181.3357 463.971,-188.3265"/>
</g>
<!-- Node119 -->
<g id="node4" class="node">
<title>Node119</title>
<g id="a_node4"><a xlink:href="classIoss_1_1DatabaseIO.html#a6e5c575a44253f465dd993bb49a16d2d" target="_top" xlink:title="Ioss::DatabaseIO::using\l_parallel_io">
<polygon fill="#ffffff" stroke="#000000" points="315.2061,-131.5 315.2061,-159.5 437.9297,-159.5 437.9297,-131.5 315.2061,-131.5"/>
<text text-anchor="start" x="323.2061" y="-147.5" font-family="Helvetica,sans-Serif" font-size="10.00" fill="#000000">Ioss::DatabaseIO::using</text>
<text text-anchor="middle" x="376.5679" y="-137.5" font-family="Helvetica,sans-Serif" font-size="10.00" fill="#000000">_parallel_io</text>
</a>
</g>
</g>
<!-- Node117&#45;&gt;Node119 -->
<g id="edge3" class="edge">
<title>Node117&#45;&gt;Node119</title>
<path fill="none" stroke="#191970" d="M241.9504,-107.5621C263.1749,-113.5435 291.629,-121.5625 316.9093,-128.687"/>
<polygon fill="#191970" stroke="#191970" points="316.2101,-132.1262 326.7846,-131.4701 318.1089,-125.3887 316.2101,-132.1262"/>
</g>
<!-- Node120 -->
<g id="node5" class="node">
<title>Node120</title>
<g id="a_node5"><a xlink:href="classIoss_1_1DatabaseIO.html#a647e5041a48ca35ee03cb739333b1bf2" target="_top" xlink:title="Ioss::DatabaseIO::get\l_dwname">
<polygon fill="#ffffff" stroke="#000000" points="320.2085,-84.5 320.2085,-112.5 432.9272,-112.5 432.9272,-84.5 320.2085,-84.5"/>
<text text-anchor="start" x="328.2085" y="-100.5" font-family="Helvetica,sans-Serif" font-size="10.00" fill="#000000">Ioss::DatabaseIO::get</text>
<text text-anchor="middle" x="376.5679" y="-90.5" font-family="Helvetica,sans-Serif" font-size="10.00" fill="#000000">_dwname</text>
</a>
</g>
</g>
<!-- Node117&#45;&gt;Node120 -->
<g id="edge4" class="edge">
<title>Node117&#45;&gt;Node120</title>
<path fill="none" stroke="#191970" d="M279.5554,-98.5C289.5585,-98.5 299.8306,-98.5 309.7746,-98.5"/>
<polygon fill="#191970" stroke="#191970" points="309.9935,-102.0001 319.9935,-98.5 309.9934,-95.0001 309.9935,-102.0001"/>
</g>
<!-- Node123 -->
<g id="node8" class="node">
<title>Node123</title>
<g id="a_node8"><a xlink:href="classIoss_1_1DatabaseIO.html#ac9a4f5418c881354de482d8bf319868f" target="_top" xlink:title="Ioss::DatabaseIO::get\l_pfsname">
<polygon fill="#ffffff" stroke="#000000" points="320.2085,-37.5 320.2085,-65.5 432.9272,-65.5 432.9272,-37.5 320.2085,-37.5"/>
<text text-anchor="start" x="328.2085" y="-53.5" font-family="Helvetica,sans-Serif" font-size="10.00" fill="#000000">Ioss::DatabaseIO::get</text>
<text text-anchor="middle" x="376.5679" y="-43.5" font-family="Helvetica,sans-Serif" font-size="10.00" fill="#000000">_pfsname</text>
</a>
</g>
</g>
<!-- Node117&#45;&gt;Node123 -->
<g id="edge8" class="edge">
<title>Node117&#45;&gt;Node123</title>
<path fill="none" stroke="#191970" d="M241.9504,-89.4379C263.1749,-83.4565 291.629,-75.4375 316.9093,-68.313"/>
<polygon fill="#191970" stroke="#191970" points="318.1089,-71.6113 326.7846,-65.5299 316.2101,-64.8738 318.1089,-71.6113"/>
</g>
<!-- Node124 -->
<g id="node9" class="node">
<title>Node124</title>
<g id="a_node9"><a xlink:href="classIoss_1_1DatabaseIO.html#acd988f56b93ac669b2e504a8e471b321" target="_top" xlink:title="Ioss::DatabaseIO::util">
<polygon fill="#ffffff" stroke="#000000" points="320.7676,-.5 320.7676,-18.5 432.3682,-18.5 432.3682,-.5 320.7676,-.5"/>
<text text-anchor="middle" x="376.5679" y="-6.5" font-family="Helvetica,sans-Serif" font-size="10.00" fill="#000000">Ioss::DatabaseIO::util</text>
</a>
</g>
</g>
<!-- Node117&#45;&gt;Node124 -->
<g id="edge9" class="edge">
<title>Node117&#45;&gt;Node124</title>
<path fill="none" stroke="#191970" d="M220.7965,-89.3906C239.245,-74.5208 278.0581,-44.9453 315.2061,-27.5 319.6214,-25.4265 324.3286,-23.5345 329.0975,-21.8229"/>
<polygon fill="#191970" stroke="#191970" points="330.5152,-25.0399 338.8992,-18.5622 328.3056,-18.3978 330.5152,-25.0399"/>
</g>
<!-- Node120&#45;&gt;Node118 -->
<g id="edge6" class="edge">
<title>Node120&#45;&gt;Node118</title>
<path fill="none" stroke="#191970" d="M414.123,-112.527C422.044,-115.6697 430.3084,-119.0875 437.9297,-122.5 465.9939,-135.0658 497.2915,-151.1929 518.66,-162.5393"/>
<polygon fill="#191970" stroke="#191970" points="517.2626,-165.7609 527.732,-167.3861 520.5612,-159.5868 517.2626,-165.7609"/>
</g>
<!-- Node121 -->
<g id="node6" class="node">
<title>Node121</title>
<g id="a_node6"><a xlink:href="classIoss_1_1DatabaseIO.html#afaf8598b13b44b8f262b3eec8398cb06" target="_top" xlink:title="Determine whether the database is an input database. ">
<polygon fill="#ffffff" stroke="#000000" points="491.4443,-96.5 491.4443,-124.5 597.4834,-124.5 597.4834,-96.5 491.4443,-96.5"/>
<text text-anchor="start" x="499.4443" y="-112.5" font-family="Helvetica,sans-Serif" font-size="10.00" fill="#000000">Ioss::DatabaseIO::is</text>
<text text-anchor="middle" x="544.4639" y="-102.5" font-family="Helvetica,sans-Serif" font-size="10.00" fill="#000000">_input</text>
</a>
</g>
</g>
<!-- Node120&#45;&gt;Node121 -->
<g id="edge5" class="edge">
<title>Node120&#45;&gt;Node121</title>
<path fill="none" stroke="#191970" d="M432.9419,-102.5292C448.415,-103.6351 465.294,-104.8415 481.1298,-105.9733"/>
<polygon fill="#191970" stroke="#191970" points="481.1362,-109.4826 491.3603,-106.7045 481.6353,-102.5004 481.1362,-109.4826"/>
</g>
<!-- Node122 -->
<g id="node7" class="node">
<title>Node122</title>
<g id="a_node7"><a xlink:href="classIoss_1_1DatabaseIO.html#a1c9ad01905e9773cd69b452a8551cbba" target="_top" xlink:title="Get the file name associated with the database. ">
<polygon fill="#ffffff" stroke="#000000" points="488.1045,-49.5 488.1045,-77.5 600.8232,-77.5 600.8232,-49.5 488.1045,-49.5"/>
<text text-anchor="start" x="496.1045" y="-65.5" font-family="Helvetica,sans-Serif" font-size="10.00" fill="#000000">Ioss::DatabaseIO::get</text>
<text text-anchor="middle" x="544.4639" y="-55.5" font-family="Helvetica,sans-Serif" font-size="10.00" fill="#000000">_filename</text>
</a>
</g>
</g>
<!-- Node120&#45;&gt;Node122 -->
<g id="edge7" class="edge">
<title>Node120&#45;&gt;Node122</title>
<path fill="none" stroke="#191970" d="M432.9419,-86.7481C447.3388,-83.7469 462.9528,-80.492 477.8112,-77.3946"/>
<polygon fill="#191970" stroke="#191970" points="478.8776,-80.7476 487.9529,-75.2804 477.449,-73.8949 478.8776,-80.7476"/>
</g>
</g>
</svg>
        <g id="navigator" transform="translate(0 0)" fill="#404254">
                <rect fill="#f2f5e9" fill-opacity="0.5" stroke="#606060" stroke-width=".5" x="0" y="0" width="60" height="60"/>
                <use id="zoomplus" xlink:href="#zoomPlus" x="17" y="9" onmousedown="handleZoom(evt,'in')"/>
                <use id="zoomminus" xlink:href="#zoomMin" x="42" y="9" onmousedown="handleZoom(evt,'out')"/>
                <use id="reset" xlink:href="#resetDef" x="30" y="36" onmousedown="handleReset()"/>
                <g id="arrowUp" xlink:href="#dirArrow" transform="translate(30 24)" onmousedown="handlePan(0,-1)">
                  <use xlink:href="#rim" fill="#404040">
                        <set attributeName="fill" to="#808080" begin="arrowUp.mouseover" end="arrowUp.mouseout"/>
                  </use>
                  <path fill="none" stroke="white" stroke-width="1.5" d="M0,-3.0v7 M-2.5,-0.5L0,-3.0L2.5,-0.5"/>
                </g>
                <g id="arrowRight" xlink:href="#dirArrow" transform="rotate(90) translate(36 -43)" onmousedown="handlePan(1,0)">
                  <use xlink:href="#rim" fill="#404040">
                        <set attributeName="fill" to="#808080" begin="arrowRight.mouseover" end="arrowRight.mouseout"/>
                  </use>
                  <path fill="none" stroke="white" stroke-width="1.5" d="M0,-3.0v7 M-2.5,-0.5L0,-3.0L2.5,-0.5"/>
                </g>
                <g id="arrowDown" xlink:href="#dirArrow" transform="rotate(180) translate(-30 -48)" onmousedown="handlePan(0,1)">
                  <use xlink:href="#rim" fill="#404040">
                        <set attributeName="fill" to="#808080" begin="arrowDown.mouseover" end="arrowDown.mouseout"/>
                  </use>
                  <path fill="none" stroke="white" stroke-width="1.5" d="M0,-3.0v7 M-2.5,-0.5L0,-3.0L2.5,-0.5"/>
                </g>
                <g id="arrowLeft" xlink:href="#dirArrow" transform="rotate(270) translate(-36 17)" onmousedown="handlePan(-1,0)">
                  <use xlink:href="#rim" fill="#404040">
                        <set attributeName="fill" to="#808080" begin="arrowLeft.mouseover" end="arrowLeft.mouseout"/>
                  </use>
                  <path fill="none" stroke="white" stroke-width="1.5" d="M0,-3.0v7 M-2.5,-0.5L0,-3.0L2.5,-0.5"/>
                </g>
        </g>
        <svg viewBox="0 0 15 15" width="100%" height="30px" preserveAspectRatio="xMaxYMin meet">
         <g id="arrow_out" transform="scale(0.3 0.3)">
          <a xlink:href="classIocgns_1_1DatabaseIO_a471eeae9ef27a32dafadbe1a73203f05_cgraph_org.svg" target="_base">
           <rect id="button" ry="5" rx="5" y="6" x="6" height="38" width="38"
                fill="#f2f5e9" fill-opacity="0.5" stroke="#606060" stroke-width="1.0"/>
           <path id="arrow"
             d="M 11.500037,31.436501 C 11.940474,20.09759 22.043105,11.32322 32.158766,21.979434 L 37.068811,17.246167 C 37.068811,17.246167 37.088388,32 37.088388,32 L 22.160133,31.978069 C 22.160133,31.978069 26.997745,27.140456 26.997745,27.140456 C 18.528582,18.264221 13.291696,25.230495 11.500037,31.436501 z"
             style="fill:#404040;"/>
          </a>
         </g>
        </svg>
</svg>
