<?xml version="1.0" encoding="UTF-8" standalone="no"?>
<!DOCTYPE svg PUBLIC "-//W3C//DTD SVG 1.1//EN"
 "http://www.w3.org/Graphics/SVG/1.1/DTD/svg11.dtd">
<!-- Generated by graphviz version 2.40.1 (20161225.0304)
 -->
<!-- Title: Ioss::ElementSet::get_implicit_property Pages: 1 -->
<svg width="572pt" height="117pt"
 viewBox="0.00 0.00 571.88 117.00" xmlns="http://www.w3.org/2000/svg" xmlns:xlink="http://www.w3.org/1999/xlink">
<g id="graph0" class="graph" transform="scale(1 1) rotate(0) translate(4 113)">
<title>Ioss::ElementSet::get_implicit_property</title>
<polygon fill="#ffffff" stroke="transparent" points="-4,4 -4,-113 567.875,-113 567.875,4 -4,4"/>
<!-- Node6 -->
<g id="node1" class="node">
<title>Node6</title>
<polygon fill="#bfbfbf" stroke="#000000" points="0,-49.5 0,-77.5 111.0488,-77.5 111.0488,-49.5 0,-49.5"/>
<text text-anchor="start" x="8" y="-65.5" font-family="Helvetica,sans-Serif" font-size="10.00" fill="#000000">Ioss::ElementSet::get</text>
<text text-anchor="middle" x="55.5244" y="-55.5" font-family="Helvetica,sans-Serif" font-size="10.00" fill="#000000">_implicit_property</text>
</g>
<!-- Node7 -->
<g id="node2" class="node">
<title>Node7</title>
<g id="a_node2"><a xlink:href="classIoss_1_1GroupingEntity.html#a1041e50c022e4f3965eb8b26c982f4c1" target="_top" xlink:title="Calculate and get an implicit property. ">
<polygon fill="#ffffff" stroke="#000000" points="147.0488,-49.5 147.0488,-77.5 260.8711,-77.5 260.8711,-49.5 147.0488,-49.5"/>
<text text-anchor="start" x="155.0488" y="-65.5" font-family="Helvetica,sans-Serif" font-size="10.00" fill="#000000">Ioss::GroupingEntity</text>
<text text-anchor="middle" x="203.96" y="-55.5" font-family="Helvetica,sans-Serif" font-size="10.00" fill="#000000">::get_implicit_property</text>
</a>
</g>
</g>
<!-- Node6&#45;&gt;Node7 -->
<g id="edge1" class="edge">
<title>Node6&#45;&gt;Node7</title>
<path fill="none" stroke="#191970" d="M111.2186,-63.5C119.6147,-63.5 128.3487,-63.5 136.9522,-63.5"/>
<polygon fill="#191970" stroke="#191970" points="136.964,-67.0001 146.9639,-63.5 136.9639,-60.0001 136.964,-67.0001"/>
</g>
<!-- Node8 -->
<g id="node3" class="node">
<title>Node8</title>
<g id="a_node3"><a xlink:href="namespaceanonymous__namespace_02Ioss__Field_8C_03.html#a54a9e06fd87ef280d7cd5a33d986222e" target="_top" xlink:title="anonymous_namespace\l\{Ioss_Field::C\}::type\l_string">
<polygon fill="#ffffff" stroke="#000000" points="296.8711,-70.5 296.8711,-108.5 421.8311,-108.5 421.8311,-70.5 296.8711,-70.5"/>
<text text-anchor="start" x="304.8711" y="-96.5" font-family="Helvetica,sans-Serif" font-size="10.00" fill="#000000">anonymous_namespace</text>
<text text-anchor="start" x="304.8711" y="-86.5" font-family="Helvetica,sans-Serif" font-size="10.00" fill="#000000">{Ioss_Field::C}::type</text>
<text text-anchor="middle" x="359.3511" y="-76.5" font-family="Helvetica,sans-Serif" font-size="10.00" fill="#000000">_string</text>
</a>
</g>
</g>
<!-- Node7&#45;&gt;Node8 -->
<g id="edge2" class="edge">
<title>Node7&#45;&gt;Node8</title>
<path fill="none" stroke="#191970" d="M260.9395,-73.0338C269.2819,-74.4297 277.9681,-75.883 286.5735,-77.3229"/>
<polygon fill="#191970" stroke="#191970" points="286.1724,-80.8043 296.613,-79.0027 287.3277,-73.9003 286.1724,-80.8043"/>
</g>
<!-- Node9 -->
<g id="node4" class="node">
<title>Node9</title>
<g id="a_node4"><a xlink:href="namespaceanonymous__namespace_02io__info_8C_03.html#ac76aa36231a3291b803cc8e620fce319" target="_top" xlink:title="anonymous_namespace\l\{io_info::C\}::name">
<polygon fill="#ffffff" stroke="#000000" points="296.8711,-23.5 296.8711,-51.5 421.8311,-51.5 421.8311,-23.5 296.8711,-23.5"/>
<text text-anchor="start" x="304.8711" y="-39.5" font-family="Helvetica,sans-Serif" font-size="10.00" fill="#000000">anonymous_namespace</text>
<text text-anchor="middle" x="359.3511" y="-29.5" font-family="Helvetica,sans-Serif" font-size="10.00" fill="#000000">{io_info::C}::name</text>
</a>
</g>
</g>
<!-- Node7&#45;&gt;Node9 -->
<g id="edge3" class="edge">
<title>Node7&#45;&gt;Node9</title>
<path fill="none" stroke="#191970" d="M260.9395,-53.9662C269.2819,-52.5703 277.9681,-51.117 286.5735,-49.6771"/>
<polygon fill="#191970" stroke="#191970" points="287.3277,-53.0997 296.613,-47.9973 286.1724,-46.1957 287.3277,-53.0997"/>
</g>
<!-- Node10 -->
<g id="node5" class="node">
<title>Node10</title>
<g id="a_node5"><a xlink:href="classIoss_1_1GroupingEntity.html#adf92c4256dc89b729f4492642bc4d745" target="_top" xlink:title="Get the name of the particular type of entity. ">
<polygon fill="#ffffff" stroke="#000000" points="457.8311,-47.5 457.8311,-75.5 563.875,-75.5 563.875,-47.5 457.8311,-47.5"/>
<text text-anchor="start" x="465.8311" y="-63.5" font-family="Helvetica,sans-Serif" font-size="10.00" fill="#000000">Ioss::GroupingEntity</text>
<text text-anchor="middle" x="510.853" y="-53.5" font-family="Helvetica,sans-Serif" font-size="10.00" fill="#000000">::type_string</text>
</a>
</g>
</g>
<!-- Node9&#45;&gt;Node10 -->
<g id="edge4" class="edge">
<title>Node9&#45;&gt;Node10</title>
<path fill="none" stroke="#191970" d="M421.8474,-47.4003C430.4008,-48.7553 439.1869,-50.1471 447.7511,-51.5038"/>
<polygon fill="#191970" stroke="#191970" points="447.2509,-54.9681 457.6754,-53.0759 448.3462,-48.0543 447.2509,-54.9681"/>
</g>
<!-- Node11 -->
<g id="node6" class="node">
<title>Node11</title>
<g id="a_node6"><a xlink:href="classIoss_1_1GroupingEntity.html#a50d4053f49c8c3205e05d939fdc9fbc5" target="_top" xlink:title="Get name of entity. ">
<polygon fill="#ffffff" stroke="#000000" points="457.8311,-.5 457.8311,-28.5 563.875,-28.5 563.875,-.5 457.8311,-.5"/>
<text text-anchor="start" x="465.8311" y="-16.5" font-family="Helvetica,sans-Serif" font-size="10.00" fill="#000000">Ioss::GroupingEntity</text>
<text text-anchor="middle" x="510.853" y="-6.5" font-family="Helvetica,sans-Serif" font-size="10.00" fill="#000000">::name</text>
</a>
</g>
</g>
<!-- Node9&#45;&gt;Node11 -->
<g id="edge5" class="edge">
<title>Node9&#45;&gt;Node11</title>
<path fill="none" stroke="#191970" d="M421.8474,-28.0122C430.4008,-26.7137 439.1869,-25.3799 447.7511,-24.0797"/>
<polygon fill="#191970" stroke="#191970" points="448.3141,-27.5344 457.6754,-22.5731 447.2634,-20.6137 448.3141,-27.5344"/>
</g>
</g>
</svg>
