<?xml version="1.0" encoding="UTF-8" standalone="no"?>
<!DOCTYPE svg PUBLIC "-//W3C//DTD SVG 1.1//EN"
 "http://www.w3.org/Graphics/SVG/1.1/DTD/svg11.dtd">
<!-- Generated by graphviz version 2.40.1 (20161225.0304)
 -->
<!-- Title: Ioss::Region::node_major Pages: 1 -->
<svg width="511pt" height="37pt"
 viewBox="0.00 0.00 510.75 37.00" xmlns="http://www.w3.org/2000/svg" xmlns:xlink="http://www.w3.org/1999/xlink">
<g id="graph0" class="graph" transform="scale(1 1) rotate(0) translate(4 33)">
<title>Ioss::Region::node_major</title>
<polygon fill="#ffffff" stroke="transparent" points="-4,4 -4,-33 506.752,-33 506.752,4 -4,4"/>
<!-- Node2435 -->
<g id="node1" class="node">
<title>Node2435</title>
<polygon fill="#bfbfbf" stroke="#000000" points="0,-.5 0,-28.5 99.3887,-28.5 99.3887,-.5 0,-.5"/>
<text text-anchor="start" x="8" y="-16.5" font-family="Helvetica,sans-Serif" font-size="10.00" fill="#000000">Ioss::Region::node</text>
<text text-anchor="middle" x="49.6943" y="-6.5" font-family="Helvetica,sans-Serif" font-size="10.00" fill="#000000">_major</text>
</g>
<!-- Node2436 -->
<g id="node2" class="node">
<title>Node2436</title>
<g id="a_node2"><a xlink:href="classIoss_1_1Utils.html#a24de37b7a335e4d98eb046f9ee0adb8d" target="_top" xlink:title="Ioss::Utils::copy_database">
<polygon fill="#ffffff" stroke="#000000" points="135.3887,-5.5 135.3887,-23.5 268.1172,-23.5 268.1172,-5.5 135.3887,-5.5"/>
<text text-anchor="middle" x="201.7529" y="-11.5" font-family="Helvetica,sans-Serif" font-size="10.00" fill="#000000">Ioss::Utils::copy_database</text>
</a>
</g>
</g>
<!-- Node2435&#45;&gt;Node2436 -->
<g id="edge1" class="edge">
<title>Node2435&#45;&gt;Node2436</title>
<path fill="none" stroke="#191970" d="M109.5953,-14.5C118.0216,-14.5 126.725,-14.5 135.2652,-14.5"/>
<polygon fill="#191970" stroke="#191970" points="109.484,-11.0001 99.484,-14.5 109.484,-18.0001 109.484,-11.0001"/>
</g>
<!-- Node2437 -->
<g id="node3" class="node">
<title>Node2437</title>
<g id="a_node3"><a xlink:href="namespaceanonymous__namespace_02io__shell_8C_03.html#a3614c6356ba84d7eb73b876e616107bd" target="_top" xlink:title="anonymous_namespace\l\{io_shell::C\}::file_copy">
<polygon fill="#ffffff" stroke="#000000" points="304.1172,-.5 304.1172,-28.5 429.0771,-28.5 429.0771,-.5 304.1172,-.5"/>
<text text-anchor="start" x="312.1172" y="-16.5" font-family="Helvetica,sans-Serif" font-size="10.00" fill="#000000">anonymous_namespace</text>
<text text-anchor="middle" x="366.5972" y="-6.5" font-family="Helvetica,sans-Serif" font-size="10.00" fill="#000000">{io_shell::C}::file_copy</text>
</a>
</g>
</g>
<!-- Node2436&#45;&gt;Node2437 -->
<g id="edge2" class="edge">
<title>Node2436&#45;&gt;Node2437</title>
<path fill="none" stroke="#191970" d="M278.3625,-14.5C286.9643,-14.5 295.651,-14.5 304.0453,-14.5"/>
<polygon fill="#191970" stroke="#191970" points="278.3263,-11.0001 268.3262,-14.5 278.3262,-18.0001 278.3263,-11.0001"/>
</g>
<!-- Node2438 -->
<g id="node4" class="node">
<title>Node2438</title>
<g id="a_node4"><a xlink:href="io__shell_8C.html#a0ddf1224851353fc92bfbff6f499fa97" target="_top" xlink:title="main">
<polygon fill="#ffffff" stroke="#000000" points="465.0771,-5.5 465.0771,-23.5 502.752,-23.5 502.752,-5.5 465.0771,-5.5"/>
<text text-anchor="middle" x="483.9146" y="-11.5" font-family="Helvetica,sans-Serif" font-size="10.00" fill="#000000">main</text>
</a>
</g>
</g>
<!-- Node2437&#45;&gt;Node2438 -->
<g id="edge3" class="edge">
<title>Node2437&#45;&gt;Node2438</title>
<path fill="none" stroke="#191970" d="M439.6046,-14.5C448.889,-14.5 457.6624,-14.5 464.9147,-14.5"/>
<polygon fill="#191970" stroke="#191970" points="439.3773,-11.0001 429.3773,-14.5 439.3772,-18.0001 439.3773,-11.0001"/>
</g>
</g>
</svg>
