<?xml version="1.0" encoding="UTF-8" standalone="no"?>
<!DOCTYPE svg PUBLIC "-//W3C//DTD SVG 1.1//EN"
 "http://www.w3.org/Graphics/SVG/1.1/DTD/svg11.dtd">
<!-- Generated by graphviz version 2.40.1 (20161225.0304)
 -->
<!-- Title: tsl::hh::power_of_two_growth_policy::round_up_to_power_of_two Pages: 1 -->
<svg width="287pt" height="47pt"
 viewBox="0.00 0.00 286.69 47.00" xmlns="http://www.w3.org/2000/svg" xmlns:xlink="http://www.w3.org/1999/xlink">
<g id="graph0" class="graph" transform="scale(1 1) rotate(0) translate(4 43)">
<title>tsl::hh::power_of_two_growth_policy::round_up_to_power_of_two</title>
<polygon fill="#ffffff" stroke="transparent" points="-4,4 -4,-43 282.6885,-43 282.6885,4 -4,4"/>
<!-- Node20 -->
<g id="node1" class="node">
<title>Node20</title>
<polygon fill="#bfbfbf" stroke="#000000" points="0,-.5 0,-38.5 114.4082,-38.5 114.4082,-.5 0,-.5"/>
<text text-anchor="start" x="8" y="-26.5" font-family="Helvetica,sans-Serif" font-size="10.00" fill="#000000">tsl::hh::power_of_two</text>
<text text-anchor="start" x="8" y="-16.5" font-family="Helvetica,sans-Serif" font-size="10.00" fill="#000000">_growth_policy::round</text>
<text text-anchor="middle" x="57.2041" y="-6.5" font-family="Helvetica,sans-Serif" font-size="10.00" fill="#000000">_up_to_power_of_two</text>
</g>
<!-- Node21 -->
<g id="node2" class="node">
<title>Node21</title>
<g id="a_node2"><a xlink:href="classtsl_1_1hh_1_1power__of__two__growth__policy.html#aad66432e83b57818dcaa1f709092f77c" target="_top" xlink:title="tsl::hh::power_of_two\l_growth_policy::is_power\l_of_two">
<polygon fill="#ffffff" stroke="#000000" points="150.4082,-.5 150.4082,-38.5 278.6885,-38.5 278.6885,-.5 150.4082,-.5"/>
<text text-anchor="start" x="158.4082" y="-26.5" font-family="Helvetica,sans-Serif" font-size="10.00" fill="#000000">tsl::hh::power_of_two</text>
<text text-anchor="start" x="158.4082" y="-16.5" font-family="Helvetica,sans-Serif" font-size="10.00" fill="#000000">_growth_policy::is_power</text>
<text text-anchor="middle" x="214.5483" y="-6.5" font-family="Helvetica,sans-Serif" font-size="10.00" fill="#000000">_of_two</text>
</a>
</g>
</g>
<!-- Node20&#45;&gt;Node21 -->
<g id="edge1" class="edge">
<title>Node20&#45;&gt;Node21</title>
<path fill="none" stroke="#191970" d="M114.4541,-19.5C122.7906,-19.5 131.4745,-19.5 140.0908,-19.5"/>
<polygon fill="#191970" stroke="#191970" points="140.1497,-23.0001 150.1496,-19.5 140.1496,-16.0001 140.1497,-23.0001"/>
</g>
</g>
</svg>
