<?xml version="1.0" encoding="UTF-8" standalone="no"?>
<!DOCTYPE svg PUBLIC "-//W3C//DTD SVG 1.1//EN"
 "http://www.w3.org/Graphics/SVG/1.1/DTD/svg11.dtd">
<!-- Generated by graphviz version 2.40.1 (20161225.0304)
 -->
<!-- Title: Ioss::FileInfo::tailname Pages: 1 -->
<!--zoomable 272 -->
<svg id="main" version="1.1" xmlns="http://www.w3.org/2000/svg" xmlns:xlink="http://www.w3.org/1999/xlink" xml:space="preserve" onload="init(evt)">
<style type="text/css"><![CDATA[
.edge:hover path { stroke: red; }
.edge:hover polygon { stroke: red; fill: red; }
]]></style>
<script type="text/javascript"><![CDATA[
var edges = document.getElementsByTagName('g');
if (edges && edges.length) {
  for (var i=0;i<edges.length;i++) {
    if (edges[i].id.substr(0,4)=='edge') {
      edges[i].setAttribute('class','edge');
    }
  }
}
]]></script>
        <defs>
                <circle id="rim" cx="0" cy="0" r="7"/>
                <circle id="rim2" cx="0" cy="0" r="3.5"/>
                <g id="zoomPlus">
                        <use xlink:href="#rim" fill="#404040">
                                <set attributeName="fill" to="#808080" begin="zoomplus.mouseover" end="zoomplus.mouseout"/>
                        </use>
                        <path d="M-4,0h8M0,-4v8" fill="none" stroke="white" stroke-width="1.5" pointer-events="none"/>
                </g>
                <g id="zoomMin">
                        <use xlink:href="#rim" fill="#404040">
                                <set attributeName="fill" to="#808080" begin="zoomminus.mouseover" end="zoomminus.mouseout"/>
                        </use>
                        <path d="M-4,0h8" fill="none" stroke="white" stroke-width="1.5" pointer-events="none"/>
                </g>
                <g id="dirArrow">
                        <path fill="none" stroke="white" stroke-width="1.5" d="M0,-3.0v7 M-2.5,-0.5L0,-3.0L2.5,-0.5"/>
                </g>
               <g id="resetDef">
                       <use xlink:href="#rim2" fill="#404040">
                               <set attributeName="fill" to="#808080" begin="reset.mouseover" end="reset.mouseout"/>
                       </use>
               </g>
        </defs>

<script type="text/javascript">
var viewWidth = 627;
var viewHeight = 272;
var sectionId = 'dynsection-19';
</script>
<script xlink:href="svgpan.js"/>
<svg id="graph" class="graph">
<g id="viewport">
<title>Ioss::FileInfo::tailname</title>
<polygon fill="#ffffff" stroke="transparent" points="-4,4 -4,-268 622.9238,-268 622.9238,4 -4,4"/>
<!-- Node112 -->
<g id="node1" class="node">
<title>Node112</title>
<polygon fill="#bfbfbf" stroke="#000000" points="0,-117.5 0,-135.5 116.0439,-135.5 116.0439,-117.5 0,-117.5"/>
<text text-anchor="middle" x="58.022" y="-123.5" font-family="Helvetica,sans-Serif" font-size="10.00" fill="#000000">Ioss::FileInfo::tailname</text>
</g>
<!-- Node113 -->
<g id="node2" class="node">
<title>Node113</title>
<g id="a_node2"><a xlink:href="classIopx_1_1DatabaseIO.html#aaef51b830dd5e404af3383f8f00a82ae" target="_top" xlink:title="Iopx::DatabaseIO::open\l_input_file">
<polygon fill="#ffffff" stroke="#000000" points="164.2656,-235.5 164.2656,-263.5 285.8906,-263.5 285.8906,-235.5 164.2656,-235.5"/>
<text text-anchor="start" x="172.2656" y="-251.5" font-family="Helvetica,sans-Serif" font-size="10.00" fill="#000000">Iopx::DatabaseIO::open</text>
<text text-anchor="middle" x="225.0781" y="-241.5" font-family="Helvetica,sans-Serif" font-size="10.00" fill="#000000">_input_file</text>
</a>
</g>
</g>
<!-- Node112&#45;&gt;Node113 -->
<g id="edge1" class="edge">
<title>Node112&#45;&gt;Node113</title>
<path fill="none" stroke="#191970" d="M69.9668,-143.912C86.1035,-166.1679 116.923,-204.4494 152.0439,-226.5 157.5606,-229.9636 163.641,-232.9439 169.8674,-235.4991"/>
<polygon fill="#191970" stroke="#191970" points="72.7949,-141.8493 64.1602,-135.7098 67.0816,-145.8939 72.7949,-141.8493"/>
</g>
<!-- Node114 -->
<g id="node3" class="node">
<title>Node114</title>
<g id="a_node3"><a xlink:href="classIopx_1_1DatabaseIO.html#a1813e1dc1c3f3e15259d181c9dec0cac" target="_top" xlink:title="Iopx::DatabaseIO::handle\l_output_file">
<polygon fill="#ffffff" stroke="#000000" points="160.374,-188.5 160.374,-216.5 289.7822,-216.5 289.7822,-188.5 160.374,-188.5"/>
<text text-anchor="start" x="168.374" y="-204.5" font-family="Helvetica,sans-Serif" font-size="10.00" fill="#000000">Iopx::DatabaseIO::handle</text>
<text text-anchor="middle" x="225.0781" y="-194.5" font-family="Helvetica,sans-Serif" font-size="10.00" fill="#000000">_output_file</text>
</a>
</g>
</g>
<!-- Node112&#45;&gt;Node114 -->
<g id="edge2" class="edge">
<title>Node112&#45;&gt;Node114</title>
<path fill="none" stroke="#191970" d="M80.5211,-140.9492C99.1532,-152.4769 126.6018,-168.4664 152.0439,-179.5 159.4835,-182.7263 167.5243,-185.721 175.4576,-188.4112"/>
<polygon fill="#191970" stroke="#191970" points="82.2162,-137.8809 71.8846,-135.5338 78.4975,-143.8115 82.2162,-137.8809"/>
</g>
<!-- Node115 -->
<g id="node4" class="node">
<title>Node115</title>
<g id="a_node4"><a xlink:href="namespaceanonymous__namespace_02Ioex__DatabaseIO_8C_03.html#a5f1d0ce0f60ab0c62e367d59dc8d9ab4" target="_top" xlink:title="anonymous_namespace\l\{Ioex_DatabaseIO::C\}\l::check_variable_consistency">
<polygon fill="#ffffff" stroke="#000000" points="152.0439,-131.5 152.0439,-169.5 298.1123,-169.5 298.1123,-131.5 152.0439,-131.5"/>
<text text-anchor="start" x="160.0439" y="-157.5" font-family="Helvetica,sans-Serif" font-size="10.00" fill="#000000">anonymous_namespace</text>
<text text-anchor="start" x="160.0439" y="-147.5" font-family="Helvetica,sans-Serif" font-size="10.00" fill="#000000">{Ioex_DatabaseIO::C}</text>
<text text-anchor="middle" x="225.0781" y="-137.5" font-family="Helvetica,sans-Serif" font-size="10.00" fill="#000000">::check_variable_consistency</text>
</a>
</g>
</g>
<!-- Node112&#45;&gt;Node115 -->
<g id="edge3" class="edge">
<title>Node112&#45;&gt;Node115</title>
<path fill="none" stroke="#191970" d="M126.5556,-136.3458C134.9445,-137.551 143.5421,-138.7862 151.9947,-140.0005"/>
<polygon fill="#191970" stroke="#191970" points="126.8462,-132.8517 116.4501,-134.894 125.8507,-139.7806 126.8462,-132.8517"/>
</g>
<!-- Node119 -->
<g id="node8" class="node">
<title>Node119</title>
<g id="a_node8"><a xlink:href="classIoss_1_1FileInfo.html#a3999c96b72ab41961a6e9043f729e840" target="_top" xlink:title="strip path and extension ">
<polygon fill="#ffffff" stroke="#000000" points="162.6055,-94.5 162.6055,-112.5 287.5508,-112.5 287.5508,-94.5 162.6055,-94.5"/>
<text text-anchor="middle" x="225.0781" y="-100.5" font-family="Helvetica,sans-Serif" font-size="10.00" fill="#000000">Ioss::FileInfo::basename</text>
</a>
</g>
</g>
<!-- Node112&#45;&gt;Node119 -->
<g id="edge7" class="edge">
<title>Node112&#45;&gt;Node119</title>
<path fill="none" stroke="#191970" d="M126.7097,-117.0432C138.5328,-115.4154 150.7657,-113.7312 162.4196,-112.1267"/>
<polygon fill="#191970" stroke="#191970" points="125.8793,-113.6244 116.4501,-118.4557 126.8341,-120.559 125.8793,-113.6244"/>
</g>
<!-- Node121 -->
<g id="node10" class="node">
<title>Node121</title>
<g id="a_node10"><a xlink:href="namespaceanonymous__namespace_02io__shell_8C_03.html#a3614c6356ba84d7eb73b876e616107bd" target="_top" xlink:title="anonymous_namespace\l\{io_shell::C\}::file_copy">
<polygon fill="#ffffff" stroke="#000000" points="162.5981,-47.5 162.5981,-75.5 287.5581,-75.5 287.5581,-47.5 162.5981,-47.5"/>
<text text-anchor="start" x="170.5981" y="-63.5" font-family="Helvetica,sans-Serif" font-size="10.00" fill="#000000">anonymous_namespace</text>
<text text-anchor="middle" x="225.0781" y="-53.5" font-family="Helvetica,sans-Serif" font-size="10.00" fill="#000000">{io_shell::C}::file_copy</text>
</a>
</g>
</g>
<!-- Node112&#45;&gt;Node121 -->
<g id="edge10" class="edge">
<title>Node112&#45;&gt;Node121</title>
<path fill="none" stroke="#191970" d="M85.5441,-113.1991C104.104,-104.4804 129.2692,-93.1401 152.0439,-84.5 160.2471,-81.3879 169.0749,-78.3518 177.66,-75.5592"/>
<polygon fill="#191970" stroke="#191970" points="84.0256,-110.0456 76.4882,-117.4914 87.0237,-116.3711 84.0256,-110.0456"/>
</g>
<!-- Node123 -->
<g id="node12" class="node">
<title>Node123</title>
<g id="a_node12"><a xlink:href="namespaceanonymous__namespace_02io__shell__ts_8C_03.html#a095c7ac686af64729318e491a9d5622d" target="_top" xlink:title="anonymous_namespace\l\{io_shell_ts::C\}::file_copy">
<polygon fill="#ffffff" stroke="#000000" points="161.2114,-.5 161.2114,-28.5 288.9448,-28.5 288.9448,-.5 161.2114,-.5"/>
<text text-anchor="start" x="169.2114" y="-16.5" font-family="Helvetica,sans-Serif" font-size="10.00" fill="#000000">anonymous_namespace</text>
<text text-anchor="middle" x="225.0781" y="-6.5" font-family="Helvetica,sans-Serif" font-size="10.00" fill="#000000">{io_shell_ts::C}::file_copy</text>
</a>
</g>
</g>
<!-- Node112&#45;&gt;Node123 -->
<g id="edge12" class="edge">
<title>Node112&#45;&gt;Node123</title>
<path fill="none" stroke="#191970" d="M71.8751,-109.3176C88.8153,-89.3697 119.3008,-56.752 152.0439,-37.5 157.8882,-34.0637 164.3025,-31.0838 170.8278,-28.5147"/>
<polygon fill="#191970" stroke="#191970" points="68.978,-107.3278 65.281,-117.2567 74.3628,-111.8004 68.978,-107.3278"/>
</g>
<!-- Node116 -->
<g id="node5" class="node">
<title>Node116</title>
<g id="a_node5"><a xlink:href="classIoex_1_1DatabaseIO.html#a9f74d76251f899e6483d054eafca74c7" target="_top" xlink:title="Ioex::DatabaseIO::write\l_results_metadata">
<polygon fill="#ffffff" stroke="#000000" points="334.6787,-136.5 334.6787,-164.5 455.1709,-164.5 455.1709,-136.5 334.6787,-136.5"/>
<text text-anchor="start" x="342.6787" y="-152.5" font-family="Helvetica,sans-Serif" font-size="10.00" fill="#000000">Ioex::DatabaseIO::write</text>
<text text-anchor="middle" x="394.9248" y="-142.5" font-family="Helvetica,sans-Serif" font-size="10.00" fill="#000000">_results_metadata</text>
</a>
</g>
</g>
<!-- Node115&#45;&gt;Node116 -->
<g id="edge4" class="edge">
<title>Node115&#45;&gt;Node116</title>
<path fill="none" stroke="#191970" d="M308.7758,-150.5C317.4801,-150.5 326.2016,-150.5 334.5743,-150.5"/>
<polygon fill="#191970" stroke="#191970" points="308.5875,-147.0001 298.5875,-150.5 308.5875,-154.0001 308.5875,-147.0001"/>
</g>
<!-- Node117 -->
<g id="node6" class="node">
<title>Node117</title>
<g id="a_node6"><a xlink:href="classIoex_1_1DatabaseIO.html#abca6a0778015aebea67c7f38fdac49a0" target="_top" xlink:title="Ioex::DatabaseIO::end__">
<polygon fill="#ffffff" stroke="#000000" points="491.7373,-141.5 491.7373,-159.5 618.9238,-159.5 618.9238,-141.5 491.7373,-141.5"/>
<text text-anchor="middle" x="555.3306" y="-147.5" font-family="Helvetica,sans-Serif" font-size="10.00" fill="#000000">Ioex::DatabaseIO::end__</text>
</a>
</g>
</g>
<!-- Node116&#45;&gt;Node117 -->
<g id="edge5" class="edge">
<title>Node116&#45;&gt;Node117</title>
<path fill="none" stroke="#191970" d="M465.6414,-150.5C474.3025,-150.5 483.1133,-150.5 491.6622,-150.5"/>
<polygon fill="#191970" stroke="#191970" points="465.5674,-147.0001 455.5673,-150.5 465.5673,-154.0001 465.5674,-147.0001"/>
</g>
<!-- Node118 -->
<g id="node7" class="node">
<title>Node118</title>
<g id="a_node7"><a xlink:href="classIoex_1_1DatabaseIO.html#a517c92d4fe7f508c93ba205521505a87" target="_top" xlink:title="Ioex::DatabaseIO::begin\l_state__">
<polygon fill="#ffffff" stroke="#000000" points="493.4072,-92.5 493.4072,-120.5 617.2539,-120.5 617.2539,-92.5 493.4072,-92.5"/>
<text text-anchor="start" x="501.4072" y="-108.5" font-family="Helvetica,sans-Serif" font-size="10.00" fill="#000000">Ioex::DatabaseIO::begin</text>
<text text-anchor="middle" x="555.3306" y="-98.5" font-family="Helvetica,sans-Serif" font-size="10.00" fill="#000000">_state__</text>
</a>
</g>
</g>
<!-- Node116&#45;&gt;Node118 -->
<g id="edge6" class="edge">
<title>Node116&#45;&gt;Node118</title>
<path fill="none" stroke="#191970" d="M455.8562,-133.7863C471.7562,-129.4248 488.7303,-124.7688 504.0723,-120.5604"/>
<polygon fill="#191970" stroke="#191970" points="454.8371,-130.4364 446.1192,-136.4572 456.6889,-137.1871 454.8371,-130.4364"/>
</g>
<!-- Node120 -->
<g id="node9" class="node">
<title>Node120</title>
<g id="a_node9"><a xlink:href="classIoex_1_1DatabaseIO.html#afc1828b3a9b9277946252a1417140e97" target="_top" xlink:title="Ioex::DatabaseIO::open\l_state_file">
<polygon fill="#ffffff" stroke="#000000" points="334.1123,-89.5 334.1123,-117.5 455.7373,-117.5 455.7373,-89.5 334.1123,-89.5"/>
<text text-anchor="start" x="342.1123" y="-105.5" font-family="Helvetica,sans-Serif" font-size="10.00" fill="#000000">Ioex::DatabaseIO::open</text>
<text text-anchor="middle" x="394.9248" y="-95.5" font-family="Helvetica,sans-Serif" font-size="10.00" fill="#000000">_state_file</text>
</a>
</g>
</g>
<!-- Node119&#45;&gt;Node120 -->
<g id="edge8" class="edge">
<title>Node119&#45;&gt;Node120</title>
<path fill="none" stroke="#191970" d="M298.1818,-103.5C310.0696,-103.5 322.2724,-103.5 333.834,-103.5"/>
<polygon fill="#191970" stroke="#191970" points="297.8402,-100.0001 287.8402,-103.5 297.8402,-107.0001 297.8402,-100.0001"/>
</g>
<!-- Node120&#45;&gt;Node118 -->
<g id="edge9" class="edge">
<title>Node120&#45;&gt;Node118</title>
<path fill="none" stroke="#191970" d="M466.1633,-104.8323C475.2234,-105.0018 484.438,-105.1741 493.3368,-105.3406"/>
<polygon fill="#191970" stroke="#191970" points="466.0887,-101.3304 456.0249,-104.6427 465.9577,-108.3292 466.0887,-101.3304"/>
</g>
<!-- Node122 -->
<g id="node11" class="node">
<title>Node122</title>
<g id="a_node11"><a xlink:href="io__shell_8C.html#a0ddf1224851353fc92bfbff6f499fa97" target="_top" xlink:title="main">
<polygon fill="#ffffff" stroke="#000000" points="376.0874,-52.5 376.0874,-70.5 413.7622,-70.5 413.7622,-52.5 376.0874,-52.5"/>
<text text-anchor="middle" x="394.9248" y="-58.5" font-family="Helvetica,sans-Serif" font-size="10.00" fill="#000000">main</text>
</a>
</g>
</g>
<!-- Node121&#45;&gt;Node122 -->
<g id="edge11" class="edge">
<title>Node121&#45;&gt;Node122</title>
<path fill="none" stroke="#191970" d="M298.2022,-61.5C326.614,-61.5 356.8227,-61.5 375.7727,-61.5"/>
<polygon fill="#191970" stroke="#191970" points="297.8402,-58.0001 287.8402,-61.5 297.8402,-65.0001 297.8402,-58.0001"/>
</g>
<!-- Node124 -->
<g id="node13" class="node">
<title>Node124</title>
<g id="a_node13"><a xlink:href="io__shell__ts_8C.html#a0ddf1224851353fc92bfbff6f499fa97" target="_top" xlink:title="main">
<polygon fill="#ffffff" stroke="#000000" points="376.0874,-5.5 376.0874,-23.5 413.7622,-23.5 413.7622,-5.5 376.0874,-5.5"/>
<text text-anchor="middle" x="394.9248" y="-11.5" font-family="Helvetica,sans-Serif" font-size="10.00" fill="#000000">main</text>
</a>
</g>
</g>
<!-- Node123&#45;&gt;Node124 -->
<g id="edge13" class="edge">
<title>Node123&#45;&gt;Node124</title>
<path fill="none" stroke="#191970" d="M299.5162,-14.5C327.5258,-14.5 357.0806,-14.5 375.7405,-14.5"/>
<polygon fill="#191970" stroke="#191970" points="299.2899,-11.0001 289.2899,-14.5 299.2898,-18.0001 299.2899,-11.0001"/>
</g>
</g>
</svg>
        <g id="navigator" transform="translate(0 0)" fill="#404254">
                <rect fill="#f2f5e9" fill-opacity="0.5" stroke="#606060" stroke-width=".5" x="0" y="0" width="60" height="60"/>
                <use id="zoomplus" xlink:href="#zoomPlus" x="17" y="9" onmousedown="handleZoom(evt,'in')"/>
                <use id="zoomminus" xlink:href="#zoomMin" x="42" y="9" onmousedown="handleZoom(evt,'out')"/>
                <use id="reset" xlink:href="#resetDef" x="30" y="36" onmousedown="handleReset()"/>
                <g id="arrowUp" xlink:href="#dirArrow" transform="translate(30 24)" onmousedown="handlePan(0,-1)">
                  <use xlink:href="#rim" fill="#404040">
                        <set attributeName="fill" to="#808080" begin="arrowUp.mouseover" end="arrowUp.mouseout"/>
                  </use>
                  <path fill="none" stroke="white" stroke-width="1.5" d="M0,-3.0v7 M-2.5,-0.5L0,-3.0L2.5,-0.5"/>
                </g>
                <g id="arrowRight" xlink:href="#dirArrow" transform="rotate(90) translate(36 -43)" onmousedown="handlePan(1,0)">
                  <use xlink:href="#rim" fill="#404040">
                        <set attributeName="fill" to="#808080" begin="arrowRight.mouseover" end="arrowRight.mouseout"/>
                  </use>
                  <path fill="none" stroke="white" stroke-width="1.5" d="M0,-3.0v7 M-2.5,-0.5L0,-3.0L2.5,-0.5"/>
                </g>
                <g id="arrowDown" xlink:href="#dirArrow" transform="rotate(180) translate(-30 -48)" onmousedown="handlePan(0,1)">
                  <use xlink:href="#rim" fill="#404040">
                        <set attributeName="fill" to="#808080" begin="arrowDown.mouseover" end="arrowDown.mouseout"/>
                  </use>
                  <path fill="none" stroke="white" stroke-width="1.5" d="M0,-3.0v7 M-2.5,-0.5L0,-3.0L2.5,-0.5"/>
                </g>
                <g id="arrowLeft" xlink:href="#dirArrow" transform="rotate(270) translate(-36 17)" onmousedown="handlePan(-1,0)">
                  <use xlink:href="#rim" fill="#404040">
                        <set attributeName="fill" to="#808080" begin="arrowLeft.mouseover" end="arrowLeft.mouseout"/>
                  </use>
                  <path fill="none" stroke="white" stroke-width="1.5" d="M0,-3.0v7 M-2.5,-0.5L0,-3.0L2.5,-0.5"/>
                </g>
        </g>
        <svg viewBox="0 0 15 15" width="100%" height="30px" preserveAspectRatio="xMaxYMin meet">
         <g id="arrow_out" transform="scale(0.3 0.3)">
          <a xlink:href="classIoss_1_1FileInfo_acdac06f618ef2cadc7a94f777cb2facc_icgraph_org.svg" target="_base">
           <rect id="button" ry="5" rx="5" y="6" x="6" height="38" width="38"
                fill="#f2f5e9" fill-opacity="0.5" stroke="#606060" stroke-width="1.0"/>
           <path id="arrow"
             d="M 11.500037,31.436501 C 11.940474,20.09759 22.043105,11.32322 32.158766,21.979434 L 37.068811,17.246167 C 37.068811,17.246167 37.088388,32 37.088388,32 L 22.160133,31.978069 C 22.160133,31.978069 26.997745,27.140456 26.997745,27.140456 C 18.528582,18.264221 13.291696,25.230495 11.500037,31.436501 z"
             style="fill:#404040;"/>
          </a>
         </g>
        </svg>
</svg>
