<?xml version="1.0" encoding="UTF-8" standalone="no"?>
<!DOCTYPE svg PUBLIC "-//W3C//DTD SVG 1.1//EN"
 "http://www.w3.org/Graphics/SVG/1.1/DTD/svg11.dtd">
<!-- Generated by graphviz version 2.43.0 (0)
 -->
<!-- Title: Ioss::EntityBlock Pages: 1 -->
<svg width="386pt" height="212pt"
 viewBox="0.00 0.00 385.89 212.00" xmlns="http://www.w3.org/2000/svg" xmlns:xlink="http://www.w3.org/1999/xlink">
<g id="graph0" class="graph" transform="scale(1 1) rotate(0) translate(4 208)">
<title>Ioss::EntityBlock</title>
<polygon fill="white" stroke="transparent" points="-4,4 -4,-208 381.89,-208 381.89,4 -4,4"/>
<!-- Node1 -->
<g id="node1" class="node">
<title>Node1</title>
<g id="a_node1"><a xlink:title="Base class for all &#39;block&#39;&#45;type grouping entities, which means all members of the block are similar o...">
<polygon fill="#bfbfbf" stroke="black" points="142.04,-92.5 142.04,-110.5 231.4,-110.5 231.4,-92.5 142.04,-92.5"/>
<text text-anchor="middle" x="186.72" y="-98.5" font-family="Helvetica,sans-Serif" font-size="10.00">Ioss::EntityBlock</text>
</a>
</g>
</g>
<!-- Node3 -->
<g id="node3" class="node">
<title>Node3</title>
<g id="a_node3"><a xlink:href="classIoss_1_1EdgeBlock.html" target="_top" xlink:title="A collection of element edges with the same topology.">
<polygon fill="white" stroke="black" points="278.79,-185.5 278.79,-203.5 366.5,-203.5 366.5,-185.5 278.79,-185.5"/>
<text text-anchor="middle" x="322.64" y="-191.5" font-family="Helvetica,sans-Serif" font-size="10.00">Ioss::EdgeBlock</text>
</a>
</g>
</g>
<!-- Node1&#45;&gt;Node3 -->
<g id="edge2" class="edge">
<title>Node1&#45;&gt;Node3</title>
<path fill="none" stroke="midnightblue" d="M201.9,-118.63C216.67,-135.5 241.28,-160.92 267.4,-176.5 273.37,-180.06 280.13,-183.02 286.8,-185.44"/>
<polygon fill="midnightblue" stroke="midnightblue" points="204.27,-116.02 195.11,-110.69 198.95,-120.57 204.27,-116.02"/>
</g>
<!-- Node4 -->
<g id="node4" class="node">
<title>Node4</title>
<g id="a_node4"><a xlink:href="classIoss_1_1ElementBlock.html" target="_top" xlink:title="A collection of elements having the same topology.">
<polygon fill="white" stroke="black" points="272.13,-148.5 272.13,-166.5 373.16,-166.5 373.16,-148.5 272.13,-148.5"/>
<text text-anchor="middle" x="322.64" y="-154.5" font-family="Helvetica,sans-Serif" font-size="10.00">Ioss::ElementBlock</text>
</a>
</g>
</g>
<!-- Node1&#45;&gt;Node4 -->
<g id="edge3" class="edge">
<title>Node1&#45;&gt;Node4</title>
<path fill="none" stroke="midnightblue" d="M214.52,-115.31C229.81,-122.92 249.44,-132.27 267.4,-139.5 275.32,-142.69 284.04,-145.76 292.13,-148.44"/>
<polygon fill="midnightblue" stroke="midnightblue" points="215.67,-111.97 205.16,-110.59 212.52,-118.22 215.67,-111.97"/>
</g>
<!-- Node5 -->
<g id="node5" class="node">
<title>Node5</title>
<g id="a_node5"><a xlink:href="classIoss_1_1FaceBlock.html" target="_top" xlink:title="A collection of element faces with the same topology.">
<polygon fill="white" stroke="black" points="279.35,-111.5 279.35,-129.5 365.94,-129.5 365.94,-111.5 279.35,-111.5"/>
<text text-anchor="middle" x="322.64" y="-117.5" font-family="Helvetica,sans-Serif" font-size="10.00">Ioss::FaceBlock</text>
</a>
</g>
</g>
<!-- Node1&#45;&gt;Node5 -->
<g id="edge4" class="edge">
<title>Node1&#45;&gt;Node5</title>
<path fill="none" stroke="midnightblue" d="M241.81,-109.17C254.21,-110.93 267.23,-112.78 279.06,-114.46"/>
<polygon fill="midnightblue" stroke="midnightblue" points="241.97,-105.66 231.57,-107.72 240.98,-112.59 241.97,-105.66"/>
</g>
<!-- Node6 -->
<g id="node6" class="node">
<title>Node6</title>
<g id="a_node6"><a xlink:href="classIoss_1_1NodeBlock.html" target="_top" xlink:title="A collection of all nodes in the region.">
<polygon fill="white" stroke="black" points="278.52,-74.5 278.52,-92.5 366.77,-92.5 366.77,-74.5 278.52,-74.5"/>
<text text-anchor="middle" x="322.64" y="-80.5" font-family="Helvetica,sans-Serif" font-size="10.00">Ioss::NodeBlock</text>
</a>
</g>
</g>
<!-- Node1&#45;&gt;Node6 -->
<g id="edge5" class="edge">
<title>Node1&#45;&gt;Node6</title>
<path fill="none" stroke="midnightblue" d="M241.6,-94.26C253.75,-92.63 266.49,-90.91 278.15,-89.35"/>
<polygon fill="midnightblue" stroke="midnightblue" points="241.02,-90.81 231.57,-95.61 241.95,-97.74 241.02,-90.81"/>
</g>
<!-- Node7 -->
<g id="node7" class="node">
<title>Node7</title>
<g id="a_node7"><a xlink:href="classIoss_1_1SideBlock.html" target="_top" xlink:title="A collection of element sides having the same topology.">
<polygon fill="white" stroke="black" points="280.46,-37.5 280.46,-55.5 364.83,-55.5 364.83,-37.5 280.46,-37.5"/>
<text text-anchor="middle" x="322.64" y="-43.5" font-family="Helvetica,sans-Serif" font-size="10.00">Ioss::SideBlock</text>
</a>
</g>
</g>
<!-- Node1&#45;&gt;Node7 -->
<g id="edge6" class="edge">
<title>Node1&#45;&gt;Node7</title>
<path fill="none" stroke="midnightblue" d="M215.16,-87.82C230.37,-80.47 249.73,-71.51 267.4,-64.5 275.43,-61.32 284.26,-58.22 292.43,-55.52"/>
<polygon fill="midnightblue" stroke="midnightblue" points="213.27,-84.84 205.82,-92.37 216.34,-91.13 213.27,-84.84"/>
</g>
<!-- Node8 -->
<g id="node8" class="node">
<title>Node8</title>
<g id="a_node8"><a xlink:href="classIoss_1_1StructuredBlock.html" target="_top" xlink:title="A structured zone – i,j,k.">
<polygon fill="white" stroke="black" points="267.4,-0.5 267.4,-18.5 377.89,-18.5 377.89,-0.5 267.4,-0.5"/>
<text text-anchor="middle" x="322.64" y="-6.5" font-family="Helvetica,sans-Serif" font-size="10.00">Ioss::StructuredBlock</text>
</a>
</g>
</g>
<!-- Node1&#45;&gt;Node8 -->
<g id="edge7" class="edge">
<title>Node1&#45;&gt;Node8</title>
<path fill="none" stroke="midnightblue" d="M201.94,-84.61C216.75,-67.97 241.39,-42.89 267.4,-27.5 273.38,-23.96 280.14,-21.01 286.82,-18.6"/>
<polygon fill="midnightblue" stroke="midnightblue" points="199.06,-82.59 195.14,-92.44 204.34,-87.18 199.06,-82.59"/>
</g>
<!-- Node2 -->
<g id="node2" class="node">
<title>Node2</title>
<g id="a_node2"><a xlink:href="classIoss_1_1GroupingEntity.html" target="_top" xlink:title="Base class for all &#39;grouping&#39; entities. The following derived classes are typical:">
<polygon fill="white" stroke="black" points="0,-92.5 0,-110.5 106.04,-110.5 106.04,-92.5 0,-92.5"/>
<text text-anchor="middle" x="53.02" y="-98.5" font-family="Helvetica,sans-Serif" font-size="10.00">Ioss::GroupingEntity</text>
</a>
</g>
</g>
<!-- Node2&#45;&gt;Node1 -->
<g id="edge1" class="edge">
<title>Node2&#45;&gt;Node1</title>
<path fill="none" stroke="midnightblue" d="M116.13,-101.5C124.77,-101.5 133.49,-101.5 141.7,-101.5"/>
<polygon fill="midnightblue" stroke="midnightblue" points="116.07,-98 106.07,-101.5 116.07,-105 116.07,-98"/>
</g>
</g>
</svg>
