<?xml version="1.0" encoding="UTF-8" standalone="no"?>
<!DOCTYPE svg PUBLIC "-//W3C//DTD SVG 1.1//EN"
 "http://www.w3.org/Graphics/SVG/1.1/DTD/svg11.dtd">
<!-- Generated by graphviz version 2.40.1 (20161225.0304)
 -->
<!-- Title: vector3d::cross Pages: 1 -->
<svg width="828pt" height="104pt"
 viewBox="0.00 0.00 828.22 104.00" xmlns="http://www.w3.org/2000/svg" xmlns:xlink="http://www.w3.org/1999/xlink">
<g id="graph0" class="graph" transform="scale(1 1) rotate(0) translate(4 100)">
<title>vector3d::cross</title>
<polygon fill="#ffffff" stroke="transparent" points="-4,4 -4,-100 824.2236,-100 824.2236,4 -4,4"/>
<!-- Node20 -->
<g id="node1" class="node">
<title>Node20</title>
<polygon fill="#bfbfbf" stroke="#000000" points="0,-38.5 0,-56.5 83.8027,-56.5 83.8027,-38.5 0,-38.5"/>
<text text-anchor="middle" x="41.9014" y="-44.5" font-family="Helvetica,sans-Serif" font-size="10.00" fill="#000000">vector3d::cross</text>
</g>
<!-- Node21 -->
<g id="node2" class="node">
<title>Node21</title>
<g id="a_node2"><a xlink:href="$classvector3d.html#abc5513772b1ef3470c1cfa6c0bd0c193" xlink:title="vector3d::plane_normal">
<polygon fill="#ffffff" stroke="#000000" points="119.8027,-38.5 119.8027,-56.5 240.3096,-56.5 240.3096,-38.5 119.8027,-38.5"/>
<text text-anchor="middle" x="180.0562" y="-44.5" font-family="Helvetica,sans-Serif" font-size="10.00" fill="#000000">vector3d::plane_normal</text>
</a>
</g>
</g>
<!-- Node20&#45;&gt;Node21 -->
<g id="edge1" class="edge">
<title>Node20&#45;&gt;Node21</title>
<path fill="none" stroke="#191970" d="M94.3245,-47.5C102.5663,-47.5 111.1444,-47.5 119.5505,-47.5"/>
<polygon fill="#191970" stroke="#191970" points="94.1031,-44.0001 84.103,-47.5 94.103,-51.0001 94.1031,-44.0001"/>
</g>
<!-- Node22 -->
<g id="node3" class="node">
<title>Node22</title>
<g id="a_node3"><a xlink:href="$namespaceanonymous__namespace_02cth__pressure__map_8C_03.html#a446004024452fa26eb595e9c94c05e95" xlink:title="anonymous_namespace\l\{cth_pressure_map::C\}\l::calculate_normals">
<polygon fill="#ffffff" stroke="#000000" points="282.147,-57.5 282.147,-95.5 407.1069,-95.5 407.1069,-57.5 282.147,-57.5"/>
<text text-anchor="start" x="290.147" y="-83.5" font-family="Helvetica,sans-Serif" font-size="10.00" fill="#000000">anonymous_namespace</text>
<text text-anchor="start" x="290.147" y="-73.5" font-family="Helvetica,sans-Serif" font-size="10.00" fill="#000000">{cth_pressure_map::C}</text>
<text text-anchor="middle" x="344.627" y="-63.5" font-family="Helvetica,sans-Serif" font-size="10.00" fill="#000000">::calculate_normals</text>
</a>
</g>
</g>
<!-- Node21&#45;&gt;Node22 -->
<g id="edge2" class="edge">
<title>Node21&#45;&gt;Node22</title>
<path fill="none" stroke="#191970" d="M241.2038,-58.2752C254.4865,-60.6158 268.5573,-63.0953 281.8999,-65.4465"/>
<polygon fill="#191970" stroke="#191970" points="241.681,-54.8054 231.2253,-56.5168 240.4661,-61.6992 241.681,-54.8054"/>
</g>
<!-- Node26 -->
<g id="node7" class="node">
<title>Node26</title>
<g id="a_node7"><a xlink:href="$namespaceanonymous__namespace_02shell__to__hex_8C_03.html#a30d31d49c5e547b3336c34ac117841bd" xlink:title="anonymous_namespace\l\{shell_to_hex::C\}::calculate\l_normals">
<polygon fill="#ffffff" stroke="#000000" points="276.3096,-.5 276.3096,-38.5 412.9443,-38.5 412.9443,-.5 276.3096,-.5"/>
<text text-anchor="start" x="284.3096" y="-26.5" font-family="Helvetica,sans-Serif" font-size="10.00" fill="#000000">anonymous_namespace</text>
<text text-anchor="start" x="284.3096" y="-16.5" font-family="Helvetica,sans-Serif" font-size="10.00" fill="#000000">{shell_to_hex::C}::calculate</text>
<text text-anchor="middle" x="344.627" y="-6.5" font-family="Helvetica,sans-Serif" font-size="10.00" fill="#000000">_normals</text>
</a>
</g>
</g>
<!-- Node21&#45;&gt;Node26 -->
<g id="edge6" class="edge">
<title>Node21&#45;&gt;Node26</title>
<path fill="none" stroke="#191970" d="M243.1947,-36.7576C253.9686,-34.9246 265.206,-33.0126 276.1114,-31.1572"/>
<polygon fill="#191970" stroke="#191970" points="242.3045,-33.3587 233.0333,-38.4865 243.4787,-40.2595 242.3045,-33.3587"/>
</g>
<!-- Node23 -->
<g id="node4" class="node">
<title>Node23</title>
<g id="a_node4"><a xlink:href="$namespaceanonymous__namespace_02cth__pressure__map_8C_03.html#a67fe067db3b0de028d25c261cb8ed7ea" xlink:title="anonymous_namespace\l\{cth_pressure_map::C\}\l::output_normals">
<polygon fill="#ffffff" stroke="#000000" points="448.9492,-57.5 448.9492,-95.5 573.9092,-95.5 573.9092,-57.5 448.9492,-57.5"/>
<text text-anchor="start" x="456.9492" y="-83.5" font-family="Helvetica,sans-Serif" font-size="10.00" fill="#000000">anonymous_namespace</text>
<text text-anchor="start" x="456.9492" y="-73.5" font-family="Helvetica,sans-Serif" font-size="10.00" fill="#000000">{cth_pressure_map::C}</text>
<text text-anchor="middle" x="511.4292" y="-63.5" font-family="Helvetica,sans-Serif" font-size="10.00" fill="#000000">::output_normals</text>
</a>
</g>
</g>
<!-- Node22&#45;&gt;Node23 -->
<g id="edge3" class="edge">
<title>Node22&#45;&gt;Node23</title>
<path fill="none" stroke="#191970" d="M417.5275,-76.5C427.941,-76.5 438.5764,-76.5 448.7703,-76.5"/>
<polygon fill="#191970" stroke="#191970" points="417.2126,-73.0001 407.2125,-76.5 417.2125,-80.0001 417.2126,-73.0001"/>
</g>
<!-- Node24 -->
<g id="node5" class="node">
<title>Node24</title>
<g id="a_node5"><a xlink:href="$namespaceanonymous__namespace_02cth__pressure__map_8C_03.html#ab6e9f3bfe09634b75a519699fffef694" xlink:title="anonymous_namespace\l\{cth_pressure_map::C\}\l::file_copy">
<polygon fill="#ffffff" stroke="#000000" points="615.7515,-57.5 615.7515,-95.5 740.7114,-95.5 740.7114,-57.5 615.7515,-57.5"/>
<text text-anchor="start" x="623.7515" y="-83.5" font-family="Helvetica,sans-Serif" font-size="10.00" fill="#000000">anonymous_namespace</text>
<text text-anchor="start" x="623.7515" y="-73.5" font-family="Helvetica,sans-Serif" font-size="10.00" fill="#000000">{cth_pressure_map::C}</text>
<text text-anchor="middle" x="678.2314" y="-63.5" font-family="Helvetica,sans-Serif" font-size="10.00" fill="#000000">::file_copy</text>
</a>
</g>
</g>
<!-- Node23&#45;&gt;Node24 -->
<g id="edge4" class="edge">
<title>Node23&#45;&gt;Node24</title>
<path fill="none" stroke="#191970" d="M584.3297,-76.5C594.7432,-76.5 605.3786,-76.5 615.5726,-76.5"/>
<polygon fill="#191970" stroke="#191970" points="584.0148,-73.0001 574.0148,-76.5 584.0147,-80.0001 584.0148,-73.0001"/>
</g>
<!-- Node25 -->
<g id="node6" class="node">
<title>Node25</title>
<g id="a_node6"><a xlink:href="$cth__pressure__map_8C.html#a0ddf1224851353fc92bfbff6f499fa97" xlink:title="main">
<polygon fill="#ffffff" stroke="#000000" points="782.5488,-67.5 782.5488,-85.5 820.2236,-85.5 820.2236,-67.5 782.5488,-67.5"/>
<text text-anchor="middle" x="801.3862" y="-73.5" font-family="Helvetica,sans-Serif" font-size="10.00" fill="#000000">main</text>
</a>
</g>
</g>
<!-- Node24&#45;&gt;Node25 -->
<g id="edge5" class="edge">
<title>Node24&#45;&gt;Node25</title>
<path fill="none" stroke="#191970" d="M751.1737,-76.5C762.7608,-76.5 773.7917,-76.5 782.5476,-76.5"/>
<polygon fill="#191970" stroke="#191970" points="750.8912,-73.0001 740.8912,-76.5 750.8912,-80.0001 750.8912,-73.0001"/>
</g>
<!-- Node27 -->
<g id="node8" class="node">
<title>Node27</title>
<g id="a_node8"><a xlink:href="$namespaceanonymous__namespace_02shell__to__hex_8C_03.html#a74c48a5f56e3d37d30ceaf48ff484691" xlink:title="anonymous_namespace\l\{shell_to_hex::C\}::output\l_normals">
<polygon fill="#ffffff" stroke="#000000" points="448.9443,-.5 448.9443,-38.5 573.9141,-38.5 573.9141,-.5 448.9443,-.5"/>
<text text-anchor="start" x="456.9443" y="-26.5" font-family="Helvetica,sans-Serif" font-size="10.00" fill="#000000">anonymous_namespace</text>
<text text-anchor="start" x="456.9443" y="-16.5" font-family="Helvetica,sans-Serif" font-size="10.00" fill="#000000">{shell_to_hex::C}::output</text>
<text text-anchor="middle" x="511.4292" y="-6.5" font-family="Helvetica,sans-Serif" font-size="10.00" fill="#000000">_normals</text>
</a>
</g>
</g>
<!-- Node26&#45;&gt;Node27 -->
<g id="edge7" class="edge">
<title>Node26&#45;&gt;Node27</title>
<path fill="none" stroke="#191970" d="M423.0512,-19.5C431.7004,-19.5 440.4213,-19.5 448.8399,-19.5"/>
<polygon fill="#191970" stroke="#191970" points="422.9531,-16.0001 412.9531,-19.5 422.9531,-23.0001 422.9531,-16.0001"/>
</g>
<!-- Node28 -->
<g id="node9" class="node">
<title>Node28</title>
<g id="a_node9"><a xlink:href="$namespaceanonymous__namespace_02shell__to__hex_8C_03.html#ad07d9a4986d20aaf612fb0c191056470" xlink:title="anonymous_namespace\l\{shell_to_hex::C\}::file_copy">
<polygon fill="#ffffff" stroke="#000000" points="609.9141,-5.5 609.9141,-33.5 746.5488,-33.5 746.5488,-5.5 609.9141,-5.5"/>
<text text-anchor="start" x="617.9141" y="-21.5" font-family="Helvetica,sans-Serif" font-size="10.00" fill="#000000">anonymous_namespace</text>
<text text-anchor="middle" x="678.2314" y="-11.5" font-family="Helvetica,sans-Serif" font-size="10.00" fill="#000000">{shell_to_hex::C}::file_copy</text>
</a>
</g>
</g>
<!-- Node27&#45;&gt;Node28 -->
<g id="edge8" class="edge">
<title>Node27&#45;&gt;Node28</title>
<path fill="none" stroke="#191970" d="M584.2367,-19.5C592.6966,-19.5 601.3043,-19.5 609.704,-19.5"/>
<polygon fill="#191970" stroke="#191970" points="584.0148,-16.0001 574.0148,-19.5 584.0147,-23.0001 584.0148,-16.0001"/>
</g>
<!-- Node29 -->
<g id="node10" class="node">
<title>Node29</title>
<g id="a_node10"><a xlink:href="$shell__to__hex_8C.html#a0ddf1224851353fc92bfbff6f499fa97" xlink:title="main">
<polygon fill="#ffffff" stroke="#000000" points="782.5488,-10.5 782.5488,-28.5 820.2236,-28.5 820.2236,-10.5 782.5488,-10.5"/>
<text text-anchor="middle" x="801.3862" y="-16.5" font-family="Helvetica,sans-Serif" font-size="10.00" fill="#000000">main</text>
</a>
</g>
</g>
<!-- Node28&#45;&gt;Node29 -->
<g id="edge9" class="edge">
<title>Node28&#45;&gt;Node29</title>
<path fill="none" stroke="#191970" d="M756.7165,-19.5C766.2131,-19.5 775.1281,-19.5 782.4584,-19.5"/>
<polygon fill="#191970" stroke="#191970" points="756.6516,-16.0001 746.6515,-19.5 756.6515,-23.0001 756.6516,-16.0001"/>
</g>
</g>
</svg>
