<?xml version="1.0" encoding="UTF-8" standalone="no"?>
<!DOCTYPE svg PUBLIC "-//W3C//DTD SVG 1.1//EN"
 "http://www.w3.org/Graphics/SVG/1.1/DTD/svg11.dtd">
<!-- Generated by graphviz version 2.40.1 (20161225.0304)
 -->
<!-- Title: tsl::detail_robin_hash::robin_hash::equal_range Pages: 1 -->
<svg width="294pt" height="94pt"
 viewBox="0.00 0.00 293.92 94.00" xmlns="http://www.w3.org/2000/svg" xmlns:xlink="http://www.w3.org/1999/xlink">
<g id="graph0" class="graph" transform="scale(1 1) rotate(0) translate(4 90)">
<title>tsl::detail_robin_hash::robin_hash::equal_range</title>
<polygon fill="#ffffff" stroke="transparent" points="-4,4 -4,-90 289.9199,-90 289.9199,4 -4,4"/>
<!-- Node99 -->
<g id="node1" class="node">
<title>Node99</title>
<polygon fill="#bfbfbf" stroke="#000000" points="0,-31.5 0,-59.5 132.2012,-59.5 132.2012,-31.5 0,-31.5"/>
<text text-anchor="start" x="8" y="-47.5" font-family="Helvetica,sans-Serif" font-size="10.00" fill="#000000">tsl::detail_robin_hash</text>
<text text-anchor="middle" x="66.1006" y="-37.5" font-family="Helvetica,sans-Serif" font-size="10.00" fill="#000000">::robin_hash::equal_range</text>
</g>
<!-- Node99&#45;&gt;Node99 -->
<g id="edge1" class="edge">
<title>Node99&#45;&gt;Node99</title>
<path fill="none" stroke="#191970" d="M37.1774,-69.4873C40.2486,-74.4413 49.8896,-78 66.1006,-78 92.0381,-78 101.1567,-68.8898 93.4565,-59.5305"/>
<polygon fill="#191970" stroke="#191970" points="40.6471,-69.9531 38.7446,-59.5305 33.7322,-68.8646 40.6471,-69.9531"/>
</g>
<!-- Node100 -->
<g id="node2" class="node">
<title>Node100</title>
<g id="a_node2"><a xlink:href="classtsl_1_1robin__map.html#a5a93cc710804986ad1d88fa6e1bf0890" target="_top" xlink:title="tsl::robin_map::equal\l_range">
<polygon fill="#ffffff" stroke="#000000" points="172.6445,-57.5 172.6445,-85.5 281.4766,-85.5 281.4766,-57.5 172.6445,-57.5"/>
<text text-anchor="start" x="180.6445" y="-73.5" font-family="Helvetica,sans-Serif" font-size="10.00" fill="#000000">tsl::robin_map::equal</text>
<text text-anchor="middle" x="227.0605" y="-63.5" font-family="Helvetica,sans-Serif" font-size="10.00" fill="#000000">_range</text>
</a>
</g>
</g>
<!-- Node99&#45;&gt;Node100 -->
<g id="edge2" class="edge">
<title>Node99&#45;&gt;Node100</title>
<path fill="none" stroke="#191970" d="M142.5765,-57.8532C152.7067,-59.4896 162.9217,-61.1396 172.5774,-62.6993"/>
<polygon fill="#191970" stroke="#191970" points="142.9286,-54.3648 132.4985,-56.2253 141.8123,-61.2752 142.9286,-54.3648"/>
</g>
<!-- Node101 -->
<g id="node3" class="node">
<title>Node101</title>
<g id="a_node3"><a xlink:href="classtsl_1_1robin__set.html#a9ca20230c0c5d01285751024a4b798af" target="_top" xlink:title="tsl::robin_set\&lt; Face,\l FaceHash, FaceEqual\l \&gt;::equal_range">
<polygon fill="#ffffff" stroke="#000000" points="168.2012,-.5 168.2012,-38.5 285.9199,-38.5 285.9199,-.5 168.2012,-.5"/>
<text text-anchor="start" x="176.2012" y="-26.5" font-family="Helvetica,sans-Serif" font-size="10.00" fill="#000000">tsl::robin_set&lt; Face,</text>
<text text-anchor="start" x="176.2012" y="-16.5" font-family="Helvetica,sans-Serif" font-size="10.00" fill="#000000"> FaceHash, FaceEqual</text>
<text text-anchor="middle" x="227.0605" y="-6.5" font-family="Helvetica,sans-Serif" font-size="10.00" fill="#000000"> &gt;::equal_range</text>
</a>
</g>
</g>
<!-- Node99&#45;&gt;Node101 -->
<g id="edge3" class="edge">
<title>Node99&#45;&gt;Node101</title>
<path fill="none" stroke="#191970" d="M142.5107,-33.1574C151.0838,-31.7726 159.7186,-30.3778 168.0247,-29.0361"/>
<polygon fill="#191970" stroke="#191970" points="141.8123,-29.7248 132.4985,-34.7747 142.9286,-36.6352 141.8123,-29.7248"/>
</g>
</g>
</svg>
