<?xml version="1.0" encoding="UTF-8" standalone="no"?>
<!DOCTYPE svg PUBLIC "-//W3C//DTD SVG 1.1//EN"
 "http://www.w3.org/Graphics/SVG/1.1/DTD/svg11.dtd">
<!-- Generated by graphviz version 2.40.1 (20161225.0304)
 -->
<!-- Title: Ioss::FileInfo::extension Pages: 1 -->
<svg width="524pt" height="151pt"
 viewBox="0.00 0.00 523.54 151.00" xmlns="http://www.w3.org/2000/svg" xmlns:xlink="http://www.w3.org/1999/xlink">
<g id="graph0" class="graph" transform="scale(1 1) rotate(0) translate(4 147)">
<title>Ioss::FileInfo::extension</title>
<polygon fill="#ffffff" stroke="transparent" points="-4,4 -4,-147 519.5352,-147 519.5352,4 -4,4"/>
<!-- Node42 -->
<g id="node1" class="node">
<title>Node42</title>
<polygon fill="#bfbfbf" stroke="#000000" points="0,-67.5 0,-85.5 121.0537,-85.5 121.0537,-67.5 0,-67.5"/>
<text text-anchor="middle" x="60.5269" y="-73.5" font-family="Helvetica,sans-Serif" font-size="10.00" fill="#000000">Ioss::FileInfo::extension</text>
</g>
<!-- Node43 -->
<g id="node2" class="node">
<title>Node43</title>
<g id="a_node2"><a xlink:href="classIoex_1_1DatabaseIO.html#afc1828b3a9b9277946252a1417140e97" target="_top" xlink:title="Ioex::DatabaseIO::open\l_state_file">
<polygon fill="#ffffff" stroke="#000000" points="158.7212,-114.5 158.7212,-142.5 280.3462,-142.5 280.3462,-114.5 158.7212,-114.5"/>
<text text-anchor="start" x="166.7212" y="-130.5" font-family="Helvetica,sans-Serif" font-size="10.00" fill="#000000">Ioex::DatabaseIO::open</text>
<text text-anchor="middle" x="219.5337" y="-120.5" font-family="Helvetica,sans-Serif" font-size="10.00" fill="#000000">_state_file</text>
</a>
</g>
</g>
<!-- Node42&#45;&gt;Node43 -->
<g id="edge1" class="edge">
<title>Node42&#45;&gt;Node43</title>
<path fill="none" stroke="#191970" d="M97.8681,-88.7117C121.4548,-96.4253 152.0081,-106.4171 176.5958,-114.458"/>
<polygon fill="#191970" stroke="#191970" points="98.8163,-85.3395 88.2237,-85.5577 96.6405,-91.9927 98.8163,-85.3395"/>
</g>
<!-- Node45 -->
<g id="node4" class="node">
<title>Node45</title>
<g id="a_node4"><a xlink:href="namespaceanonymous__namespace_02info__interface_8C_03.html#a1c5d3b4308934427a3e71620d8af9068" target="_top" xlink:title="anonymous_namespace\l\{info_interface::C\}\l::get_type_from_file">
<polygon fill="#ffffff" stroke="#000000" points="157.0537,-57.5 157.0537,-95.5 282.0137,-95.5 282.0137,-57.5 157.0537,-57.5"/>
<text text-anchor="start" x="165.0537" y="-83.5" font-family="Helvetica,sans-Serif" font-size="10.00" fill="#000000">anonymous_namespace</text>
<text text-anchor="start" x="165.0537" y="-73.5" font-family="Helvetica,sans-Serif" font-size="10.00" fill="#000000">{info_interface::C}</text>
<text text-anchor="middle" x="219.5337" y="-63.5" font-family="Helvetica,sans-Serif" font-size="10.00" fill="#000000">::get_type_from_file</text>
</a>
</g>
</g>
<!-- Node42&#45;&gt;Node45 -->
<g id="edge3" class="edge">
<title>Node42&#45;&gt;Node45</title>
<path fill="none" stroke="#191970" d="M131.1315,-76.5C139.7583,-76.5 148.5267,-76.5 157.0234,-76.5"/>
<polygon fill="#191970" stroke="#191970" points="131.0942,-73.0001 121.0941,-76.5 131.0941,-80.0001 131.0942,-73.0001"/>
</g>
<!-- Node48 -->
<g id="node7" class="node">
<title>Node48</title>
<g id="a_node7"><a xlink:href="namespaceanonymous__namespace_02shell__interface_8C_03.html#a1b8031ed6616016a0063825afb8efe1e" target="_top" xlink:title="anonymous_namespace\l\{shell_interface::C\}\l::get_type_from_file">
<polygon fill="#ffffff" stroke="#000000" points="157.0537,-.5 157.0537,-38.5 282.0137,-38.5 282.0137,-.5 157.0537,-.5"/>
<text text-anchor="start" x="165.0537" y="-26.5" font-family="Helvetica,sans-Serif" font-size="10.00" fill="#000000">anonymous_namespace</text>
<text text-anchor="start" x="165.0537" y="-16.5" font-family="Helvetica,sans-Serif" font-size="10.00" fill="#000000">{shell_interface::C}</text>
<text text-anchor="middle" x="219.5337" y="-6.5" font-family="Helvetica,sans-Serif" font-size="10.00" fill="#000000">::get_type_from_file</text>
</a>
</g>
</g>
<!-- Node42&#45;&gt;Node48 -->
<g id="edge6" class="edge">
<title>Node42&#45;&gt;Node48</title>
<path fill="none" stroke="#191970" d="M95.4149,-63.9935C116.2318,-56.5312 143.0834,-46.9055 166.484,-38.517"/>
<polygon fill="#191970" stroke="#191970" points="93.9543,-60.7989 85.722,-67.4682 96.3165,-67.3883 93.9543,-60.7989"/>
</g>
<!-- Node44 -->
<g id="node3" class="node">
<title>Node44</title>
<g id="a_node3"><a xlink:href="classIoex_1_1DatabaseIO.html#a517c92d4fe7f508c93ba205521505a87" target="_top" xlink:title="Ioex::DatabaseIO::begin\l_state__">
<polygon fill="#ffffff" stroke="#000000" points="318.0137,-114.5 318.0137,-142.5 441.8604,-142.5 441.8604,-114.5 318.0137,-114.5"/>
<text text-anchor="start" x="326.0137" y="-130.5" font-family="Helvetica,sans-Serif" font-size="10.00" fill="#000000">Ioex::DatabaseIO::begin</text>
<text text-anchor="middle" x="379.937" y="-120.5" font-family="Helvetica,sans-Serif" font-size="10.00" fill="#000000">_state__</text>
</a>
</g>
</g>
<!-- Node43&#45;&gt;Node44 -->
<g id="edge2" class="edge">
<title>Node43&#45;&gt;Node44</title>
<path fill="none" stroke="#191970" d="M290.7711,-128.5C299.831,-128.5 309.0455,-128.5 317.9442,-128.5"/>
<polygon fill="#191970" stroke="#191970" points="290.6329,-125.0001 280.6329,-128.5 290.6329,-132.0001 290.6329,-125.0001"/>
</g>
<!-- Node46 -->
<g id="node5" class="node">
<title>Node46</title>
<g id="a_node5"><a xlink:href="classInfo_1_1Interface.html#ae768280a4dbfbfdde0220e3627dd507a" target="_top" xlink:title="Info::Interface::parse\l_options">
<polygon fill="#ffffff" stroke="#000000" points="326.0776,-62.5 326.0776,-90.5 433.7964,-90.5 433.7964,-62.5 326.0776,-62.5"/>
<text text-anchor="start" x="334.0776" y="-78.5" font-family="Helvetica,sans-Serif" font-size="10.00" fill="#000000">Info::Interface::parse</text>
<text text-anchor="middle" x="379.937" y="-68.5" font-family="Helvetica,sans-Serif" font-size="10.00" fill="#000000">_options</text>
</a>
</g>
</g>
<!-- Node45&#45;&gt;Node46 -->
<g id="edge4" class="edge">
<title>Node45&#45;&gt;Node46</title>
<path fill="none" stroke="#191970" d="M292.6928,-76.5C303.9098,-76.5 315.3119,-76.5 326.0125,-76.5"/>
<polygon fill="#191970" stroke="#191970" points="292.469,-73.0001 282.469,-76.5 292.4689,-80.0001 292.469,-73.0001"/>
</g>
<!-- Node47 -->
<g id="node6" class="node">
<title>Node47</title>
<g id="a_node6"><a xlink:href="io__info__main_8C.html#a0ddf1224851353fc92bfbff6f499fa97" target="_top" xlink:title="main">
<polygon fill="#ffffff" stroke="#000000" points="477.8604,-67.5 477.8604,-85.5 515.5352,-85.5 515.5352,-67.5 477.8604,-67.5"/>
<text text-anchor="middle" x="496.6978" y="-73.5" font-family="Helvetica,sans-Serif" font-size="10.00" fill="#000000">main</text>
</a>
</g>
</g>
<!-- Node46&#45;&gt;Node47 -->
<g id="edge5" class="edge">
<title>Node46&#45;&gt;Node47</title>
<path fill="none" stroke="#191970" d="M444.162,-76.5C456.3695,-76.5 468.2327,-76.5 477.5876,-76.5"/>
<polygon fill="#191970" stroke="#191970" points="443.8743,-73.0001 433.8743,-76.5 443.8742,-80.0001 443.8743,-73.0001"/>
</g>
<!-- Node49 -->
<g id="node8" class="node">
<title>Node49</title>
<g id="a_node8"><a xlink:href="classIOShell_1_1Interface.html#a91c17d1da7ea52b068de0bd8924a62a6" target="_top" xlink:title="IOShell::Interface\l::parse_options">
<polygon fill="#ffffff" stroke="#000000" points="333.3066,-5.5 333.3066,-33.5 426.5674,-33.5 426.5674,-5.5 333.3066,-5.5"/>
<text text-anchor="start" x="341.3066" y="-21.5" font-family="Helvetica,sans-Serif" font-size="10.00" fill="#000000">IOShell::Interface</text>
<text text-anchor="middle" x="379.937" y="-11.5" font-family="Helvetica,sans-Serif" font-size="10.00" fill="#000000">::parse_options</text>
</a>
</g>
</g>
<!-- Node48&#45;&gt;Node49 -->
<g id="edge7" class="edge">
<title>Node48&#45;&gt;Node49</title>
<path fill="none" stroke="#191970" d="M292.8435,-19.5C306.5136,-19.5 320.4528,-19.5 333.0566,-19.5"/>
<polygon fill="#191970" stroke="#191970" points="292.469,-16.0001 282.469,-19.5 292.4689,-23.0001 292.469,-16.0001"/>
</g>
<!-- Node50 -->
<g id="node9" class="node">
<title>Node50</title>
<g id="a_node9"><a xlink:href="io__shell_8C.html#a0ddf1224851353fc92bfbff6f499fa97" target="_top" xlink:title="main">
<polygon fill="#ffffff" stroke="#000000" points="477.8604,-10.5 477.8604,-28.5 515.5352,-28.5 515.5352,-10.5 477.8604,-10.5"/>
<text text-anchor="middle" x="496.6978" y="-16.5" font-family="Helvetica,sans-Serif" font-size="10.00" fill="#000000">main</text>
</a>
</g>
</g>
<!-- Node49&#45;&gt;Node50 -->
<g id="edge8" class="edge">
<title>Node49&#45;&gt;Node50</title>
<path fill="none" stroke="#191970" d="M436.859,-19.5C451.5478,-19.5 466.3598,-19.5 477.5723,-19.5"/>
<polygon fill="#191970" stroke="#191970" points="436.7553,-16.0001 426.7553,-19.5 436.7553,-23.0001 436.7553,-16.0001"/>
</g>
</g>
</svg>
