<?xml version="1.0" encoding="UTF-8" standalone="no"?>
<!DOCTYPE svg PUBLIC "-//W3C//DTD SVG 1.1//EN"
 "http://www.w3.org/Graphics/SVG/1.1/DTD/svg11.dtd">
<!-- Generated by graphviz version 2.44.1 (20200629.0846)
 -->
<!-- Title: Ioss::CompositeVariableType Pages: 1 -->
<svg width="152pt" height="95pt"
 viewBox="0.00 0.00 152.00 95.00" xmlns="http://www.w3.org/2000/svg" xmlns:xlink="http://www.w3.org/1999/xlink">
<g id="graph0" class="graph" transform="scale(1 1) rotate(0) translate(4 91)">
<title>Ioss::CompositeVariableType</title>
<polygon fill="white" stroke="transparent" points="-4,4 -4,-91 148,-91 148,4 -4,4"/>
<!-- Node1 -->
<g id="node1" class="node">
<title>Node1</title>
<g id="a_node1"><a xlink:title=" ">
<polygon fill="#bfbfbf" stroke="black" points="0,-0.5 0,-19.5 144,-19.5 144,-0.5 0,-0.5"/>
<text text-anchor="middle" x="72" y="-7.5" font-family="Helvetica,sans-Serif" font-size="10.00">Ioss::CompositeVariableType</text>
</a>
</g>
</g>
<!-- Node2 -->
<g id="node2" class="node">
<title>Node2</title>
<g id="a_node2"><a xlink:href="classIoss_1_1VariableType.html" target="_top" xlink:title="A generic variable type.">
<polygon fill="white" stroke="black" points="23.5,-67.5 23.5,-86.5 120.5,-86.5 120.5,-67.5 23.5,-67.5"/>
<text text-anchor="middle" x="72" y="-74.5" font-family="Helvetica,sans-Serif" font-size="10.00">Ioss::VariableType</text>
</a>
</g>
</g>
<!-- Node2&#45;&gt;Node1 -->
<g id="edge1" class="edge">
<title>Node2&#45;&gt;Node1</title>
<path fill="none" stroke="midnightblue" d="M70.44,-57.38C70.26,-54.58 70.1,-51.71 70,-49 69.63,-38.97 70.4,-27.45 71.09,-19.75"/>
<polygon fill="midnightblue" stroke="midnightblue" points="66.96,-57.79 71.21,-67.5 73.94,-57.26 66.96,-57.79"/>
</g>
<!-- Node2&#45;&gt;Node1 -->
<g id="edge2" class="edge">
<title>Node2&#45;&gt;Node1</title>
<path fill="none" stroke="#9a32cd" stroke-dasharray="5,2" d="M72,-57.04C72,-44.67 72,-29.12 72,-19.63"/>
<polygon fill="#9a32cd" stroke="#9a32cd" points="68.5,-57.23 72,-67.23 75.5,-57.23 68.5,-57.23"/>
<text text-anchor="middle" x="95" y="-41" font-family="Helvetica,sans-Serif" font-size="10.00"> baseType</text>
</g>
</g>
</svg>
