<?xml version="1.0" encoding="UTF-8" standalone="no"?>
<!DOCTYPE svg PUBLIC "-//W3C//DTD SVG 1.1//EN"
 "http://www.w3.org/Graphics/SVG/1.1/DTD/svg11.dtd">
<!-- Generated by graphviz version 2.40.1 (20161225.0304)
 -->
<!-- Title: Iogs::GeneratedMesh::element_map Pages: 1 -->
<svg width="419pt" height="37pt"
 viewBox="0.00 0.00 418.73 37.00" xmlns="http://www.w3.org/2000/svg" xmlns:xlink="http://www.w3.org/1999/xlink">
<g id="graph0" class="graph" transform="scale(1 1) rotate(0) translate(4 33)">
<title>Iogs::GeneratedMesh::element_map</title>
<polygon fill="#ffffff" stroke="transparent" points="-4,4 -4,-33 414.7275,-33 414.7275,4 -4,4"/>
<!-- Node101 -->
<g id="node1" class="node">
<title>Node101</title>
<polygon fill="#bfbfbf" stroke="#000000" points="0,-.5 0,-28.5 112.167,-28.5 112.167,-.5 0,-.5"/>
<text text-anchor="start" x="8" y="-16.5" font-family="Helvetica,sans-Serif" font-size="10.00" fill="#000000">Iogs::GeneratedMesh</text>
<text text-anchor="middle" x="56.0835" y="-6.5" font-family="Helvetica,sans-Serif" font-size="10.00" fill="#000000">::element_map</text>
</g>
<!-- Node102 -->
<g id="node2" class="node">
<title>Node102</title>
<g id="a_node2"><a xlink:href="$classIogs_1_1DatabaseIO.html#a7705b88d8fd26d250d01f5bcd2cdb702" xlink:title="Iogs::DatabaseIO::get\l_element_map">
<polygon fill="#ffffff" stroke="#000000" points="148.167,-.5 148.167,-28.5 261.4473,-28.5 261.4473,-.5 148.167,-.5"/>
<text text-anchor="start" x="156.167" y="-16.5" font-family="Helvetica,sans-Serif" font-size="10.00" fill="#000000">Iogs::DatabaseIO::get</text>
<text text-anchor="middle" x="204.8071" y="-6.5" font-family="Helvetica,sans-Serif" font-size="10.00" fill="#000000">_element_map</text>
</a>
</g>
</g>
<!-- Node101&#45;&gt;Node102 -->
<g id="edge1" class="edge">
<title>Node101&#45;&gt;Node102</title>
<path fill="none" stroke="#191970" d="M122.5679,-14.5C131.0591,-14.5 139.6888,-14.5 148.0076,-14.5"/>
<polygon fill="#191970" stroke="#191970" points="122.3096,-11.0001 112.3095,-14.5 122.3095,-18.0001 122.3096,-11.0001"/>
</g>
<!-- Node103 -->
<g id="node3" class="node">
<title>Node103</title>
<g id="a_node3"><a xlink:href="$classIogs_1_1DatabaseIO.html#a57aa8b0fb15166ceff8a7d5c90b0262f" xlink:title="Iogs::DatabaseIO::get\l_field_internal">
<polygon fill="#ffffff" stroke="#000000" points="297.4473,-.5 297.4473,-28.5 410.7275,-28.5 410.7275,-.5 297.4473,-.5"/>
<text text-anchor="start" x="305.4473" y="-16.5" font-family="Helvetica,sans-Serif" font-size="10.00" fill="#000000">Iogs::DatabaseIO::get</text>
<text text-anchor="middle" x="354.0874" y="-6.5" font-family="Helvetica,sans-Serif" font-size="10.00" fill="#000000">_field_internal</text>
</a>
</g>
</g>
<!-- Node102&#45;&gt;Node103 -->
<g id="edge2" class="edge">
<title>Node102&#45;&gt;Node103</title>
<path fill="none" stroke="#191970" d="M271.9408,-14.5C280.4394,-14.5 289.0691,-14.5 297.3832,-14.5"/>
<polygon fill="#191970" stroke="#191970" points="271.6695,-11.0001 261.6695,-14.5 271.6694,-18.0001 271.6695,-11.0001"/>
</g>
</g>
</svg>
