<?xml version="1.0" encoding="UTF-8" standalone="no"?>
<!DOCTYPE svg PUBLIC "-//W3C//DTD SVG 1.1//EN"
 "http://www.w3.org/Graphics/SVG/1.1/DTD/svg11.dtd">
<!-- Generated by graphviz version 2.40.1 (20161225.0304)
 -->
<!-- Title: Iopx::DatabaseIO::compute_node_status Pages: 1 -->
<svg width="295pt" height="37pt"
 viewBox="0.00 0.00 295.01 37.00" xmlns="http://www.w3.org/2000/svg" xmlns:xlink="http://www.w3.org/1999/xlink">
<g id="graph0" class="graph" transform="scale(1 1) rotate(0) translate(4 33)">
<title>Iopx::DatabaseIO::compute_node_status</title>
<polygon fill="#ffffff" stroke="transparent" points="-4,4 -4,-33 291.0137,-33 291.0137,4 -4,4"/>
<!-- Node47 -->
<g id="node1" class="node">
<title>Node47</title>
<polygon fill="#bfbfbf" stroke="#000000" points="0,-.5 0,-28.5 137.7334,-28.5 137.7334,-.5 0,-.5"/>
<text text-anchor="start" x="8" y="-16.5" font-family="Helvetica,sans-Serif" font-size="10.00" fill="#000000">Iopx::DatabaseIO::compute</text>
<text text-anchor="middle" x="68.8667" y="-6.5" font-family="Helvetica,sans-Serif" font-size="10.00" fill="#000000">_node_status</text>
</g>
<!-- Node48 -->
<g id="node2" class="node">
<title>Node48</title>
<g id="a_node2"><a xlink:href="$classIopx_1_1DatabaseIO.html#a55f8feeda0b12d93bcaa7e476e146efa" xlink:title="Iopx::DatabaseIO::get\l_field_internal">
<polygon fill="#ffffff" stroke="#000000" points="173.7334,-.5 173.7334,-28.5 287.0137,-28.5 287.0137,-.5 173.7334,-.5"/>
<text text-anchor="start" x="181.7334" y="-16.5" font-family="Helvetica,sans-Serif" font-size="10.00" fill="#000000">Iopx::DatabaseIO::get</text>
<text text-anchor="middle" x="230.3735" y="-6.5" font-family="Helvetica,sans-Serif" font-size="10.00" fill="#000000">_field_internal</text>
</a>
</g>
</g>
<!-- Node47&#45;&gt;Node48 -->
<g id="edge1" class="edge">
<title>Node47&#45;&gt;Node48</title>
<path fill="none" stroke="#191970" d="M147.8702,-14.5C156.4543,-14.5 165.0647,-14.5 173.3133,-14.5"/>
<polygon fill="#191970" stroke="#191970" points="147.8286,-11.0001 137.8286,-14.5 147.8286,-18.0001 147.8286,-11.0001"/>
</g>
</g>
</svg>
