<?xml version="1.0" encoding="UTF-8" standalone="no"?>
<!DOCTYPE svg PUBLIC "-//W3C//DTD SVG 1.1//EN"
 "http://www.w3.org/Graphics/SVG/1.1/DTD/svg11.dtd">
<!-- Generated by graphviz version 2.40.1 (20161225.0304)
 -->
<!-- Title: Ioss::IOFactory::alias Pages: 1 -->
<svg width="288pt" height="74pt"
 viewBox="0.00 0.00 287.72 74.00" xmlns="http://www.w3.org/2000/svg" xmlns:xlink="http://www.w3.org/1999/xlink">
<g id="graph0" class="graph" transform="scale(1 1) rotate(0) translate(4 70)">
<title>Ioss::IOFactory::alias</title>
<polygon fill="#ffffff" stroke="transparent" points="-4,4 -4,-70 283.7236,-70 283.7236,4 -4,4"/>
<!-- Node5 -->
<g id="node1" class="node">
<title>Node5</title>
<polygon fill="#bfbfbf" stroke="#000000" points="0,-21.5 0,-39.5 109.916,-39.5 109.916,-21.5 0,-21.5"/>
<text text-anchor="middle" x="54.958" y="-27.5" font-family="Helvetica,sans-Serif" font-size="10.00" fill="#000000">Ioss::IOFactory::alias</text>
</g>
<!-- Node6 -->
<g id="node2" class="node">
<title>Node6</title>
<g id="a_node2"><a xlink:href="classIocgns_1_1IOFactory.html#a3e38e166593bdd2ea18757d79c2dd365" target="_top" xlink:title="Iocgns::IOFactory::\lIOFactory">
<polygon fill="#ffffff" stroke="#000000" points="162.5835,-37.5 162.5835,-65.5 263.0562,-65.5 263.0562,-37.5 162.5835,-37.5"/>
<text text-anchor="start" x="170.5835" y="-53.5" font-family="Helvetica,sans-Serif" font-size="10.00" fill="#000000">Iocgns::IOFactory::</text>
<text text-anchor="middle" x="212.8198" y="-43.5" font-family="Helvetica,sans-Serif" font-size="10.00" fill="#000000">IOFactory</text>
</a>
</g>
</g>
<!-- Node5&#45;&gt;Node6 -->
<g id="edge1" class="edge">
<title>Node5&#45;&gt;Node6</title>
<path fill="none" stroke="#191970" d="M120.2791,-39.1895C134.3425,-41.0603 149.0002,-43.0102 162.3932,-44.7919"/>
<polygon fill="#191970" stroke="#191970" points="120.5446,-35.6941 110.1704,-37.8448 119.6215,-42.633 120.5446,-35.6941"/>
</g>
<!-- Node7 -->
<g id="node3" class="node">
<title>Node7</title>
<g id="a_node3"><a xlink:href="classIoex_1_1IOFactory.html#a40f9724c642aa7e2c296d29463e3a4b1" target="_top" xlink:title="Ioex::IOFactory::IOFactory">
<polygon fill="#ffffff" stroke="#000000" points="145.916,-.5 145.916,-18.5 279.7236,-18.5 279.7236,-.5 145.916,-.5"/>
<text text-anchor="middle" x="212.8198" y="-6.5" font-family="Helvetica,sans-Serif" font-size="10.00" fill="#000000">Ioex::IOFactory::IOFactory</text>
</a>
</g>
</g>
<!-- Node5&#45;&gt;Node7 -->
<g id="edge2" class="edge">
<title>Node5&#45;&gt;Node7</title>
<path fill="none" stroke="#191970" d="M120.2748,-21.8111C128.6664,-20.6947 137.2698,-19.5503 145.6898,-18.4302"/>
<polygon fill="#191970" stroke="#191970" points="119.6215,-18.367 110.1704,-23.1552 120.5446,-25.3059 119.6215,-18.367"/>
</g>
</g>
</svg>
