<?xml version="1.0" encoding="UTF-8" standalone="no"?>
<!DOCTYPE svg PUBLIC "-//W3C//DTD SVG 1.1//EN"
 "http://www.w3.org/Graphics/SVG/1.1/DTD/svg11.dtd">
<!-- Generated by graphviz version 2.40.1 (20161225.0304)
 -->
<!-- Title: Iotr::Factory::make Pages: 1 -->
<!--zoomable 47 -->
<svg id="main" version="1.1" xmlns="http://www.w3.org/2000/svg" xmlns:xlink="http://www.w3.org/1999/xlink" xml:space="preserve" onload="init(evt)">
<style type="text/css"><![CDATA[
.edge:hover path { stroke: red; }
.edge:hover polygon { stroke: red; fill: red; }
]]></style>
<script type="text/javascript"><![CDATA[
var edges = document.getElementsByTagName('g');
if (edges && edges.length) {
  for (var i=0;i<edges.length;i++) {
    if (edges[i].id.substr(0,4)=='edge') {
      edges[i].setAttribute('class','edge');
    }
  }
}
]]></script>
        <defs>
                <circle id="rim" cx="0" cy="0" r="7"/>
                <circle id="rim2" cx="0" cy="0" r="3.5"/>
                <g id="zoomPlus">
                        <use xlink:href="#rim" fill="#404040">
                                <set attributeName="fill" to="#808080" begin="zoomplus.mouseover" end="zoomplus.mouseout"/>
                        </use>
                        <path d="M-4,0h8M0,-4v8" fill="none" stroke="white" stroke-width="1.5" pointer-events="none"/>
                </g>
                <g id="zoomMin">
                        <use xlink:href="#rim" fill="#404040">
                                <set attributeName="fill" to="#808080" begin="zoomminus.mouseover" end="zoomminus.mouseout"/>
                        </use>
                        <path d="M-4,0h8" fill="none" stroke="white" stroke-width="1.5" pointer-events="none"/>
                </g>
                <g id="dirArrow">
                        <path fill="none" stroke="white" stroke-width="1.5" d="M0,-3.0v7 M-2.5,-0.5L0,-3.0L2.5,-0.5"/>
                </g>
               <g id="resetDef">
                       <use xlink:href="#rim2" fill="#404040">
                               <set attributeName="fill" to="#808080" begin="reset.mouseover" end="reset.mouseout"/>
                       </use>
               </g>
        </defs>

<script type="text/javascript">
var viewWidth = 734;
var viewHeight = 47;
var sectionId = 'dynsection-7';
</script>
<script xlink:href="svgpan.js"/>
<svg id="graph" class="graph">
<g id="viewport">
<title>Iotr::Factory::make</title>
<polygon fill="#ffffff" stroke="transparent" points="-4,4 -4,-43 730.4658,-43 730.4658,4 -4,4"/>
<!-- Node26 -->
<g id="node1" class="node">
<title>Node26</title>
<polygon fill="#bfbfbf" stroke="#000000" points="0,-10.5 0,-28.5 99.3545,-28.5 99.3545,-10.5 0,-10.5"/>
<text text-anchor="middle" x="49.6772" y="-16.5" font-family="Helvetica,sans-Serif" font-size="10.00" fill="#000000">Iotr::Factory::make</text>
</g>
<!-- Node27 -->
<g id="node2" class="node">
<title>Node27</title>
<g id="a_node2"><a xlink:href="classIotr_1_1Factory.html#a9eba1b6558c8760b82ec44eccb73c30b" target="_top" xlink:title="Iotr::Factory::create">
<polygon fill="#ffffff" stroke="#000000" points="135.3545,-10.5 135.3545,-28.5 238.0488,-28.5 238.0488,-10.5 135.3545,-10.5"/>
<text text-anchor="middle" x="186.7017" y="-16.5" font-family="Helvetica,sans-Serif" font-size="10.00" fill="#000000">Iotr::Factory::create</text>
</a>
</g>
</g>
<!-- Node26&#45;&gt;Node27 -->
<g id="edge1" class="edge">
<title>Node26&#45;&gt;Node27</title>
<path fill="none" stroke="#191970" d="M109.779,-19.5C118.2789,-19.5 126.9541,-19.5 135.2707,-19.5"/>
<polygon fill="#191970" stroke="#191970" points="109.5339,-16.0001 99.5338,-19.5 109.5338,-23.0001 109.5339,-16.0001"/>
</g>
<!-- Node28 -->
<g id="node3" class="node">
<title>Node28</title>
<g id="a_node3"><a xlink:href="namespaceanonymous__namespace_02io__shell__ts_8C_03.html#a9121f4bc562f5f656e8dc54eaa44b850" target="_top" xlink:title="anonymous_namespace\l\{io_shell_ts::C\}::transform\l_fields">
<polygon fill="#ffffff" stroke="#000000" points="274.0488,-.5 274.0488,-38.5 404.5459,-38.5 404.5459,-.5 274.0488,-.5"/>
<text text-anchor="start" x="282.0488" y="-26.5" font-family="Helvetica,sans-Serif" font-size="10.00" fill="#000000">anonymous_namespace</text>
<text text-anchor="start" x="282.0488" y="-16.5" font-family="Helvetica,sans-Serif" font-size="10.00" fill="#000000">{io_shell_ts::C}::transform</text>
<text text-anchor="middle" x="339.2974" y="-6.5" font-family="Helvetica,sans-Serif" font-size="10.00" fill="#000000">_fields</text>
</a>
</g>
</g>
<!-- Node27&#45;&gt;Node28 -->
<g id="edge2" class="edge">
<title>Node27&#45;&gt;Node28</title>
<path fill="none" stroke="#191970" d="M248.4389,-19.5C256.8213,-19.5 265.4471,-19.5 273.8913,-19.5"/>
<polygon fill="#191970" stroke="#191970" points="248.3636,-16.0001 238.3636,-19.5 248.3636,-23.0001 248.3636,-16.0001"/>
</g>
<!-- Node29 -->
<g id="node4" class="node">
<title>Node29</title>
<g id="a_node4"><a xlink:href="namespaceanonymous__namespace_02io__shell__ts_8C_03.html#a6983982d25e9faee6020e34c4f77c4e1" target="_top" xlink:title="anonymous_namespace\l\{io_shell_ts::C\}::transfer\l_fields_ts">
<polygon fill="#ffffff" stroke="#000000" points="440.5459,-.5 440.5459,-38.5 565.5059,-38.5 565.5059,-.5 440.5459,-.5"/>
<text text-anchor="start" x="448.5459" y="-26.5" font-family="Helvetica,sans-Serif" font-size="10.00" fill="#000000">anonymous_namespace</text>
<text text-anchor="start" x="448.5459" y="-16.5" font-family="Helvetica,sans-Serif" font-size="10.00" fill="#000000">{io_shell_ts::C}::transfer</text>
<text text-anchor="middle" x="503.0259" y="-6.5" font-family="Helvetica,sans-Serif" font-size="10.00" fill="#000000">_fields_ts</text>
</a>
</g>
</g>
<!-- Node28&#45;&gt;Node29 -->
<g id="edge3" class="edge">
<title>Node28&#45;&gt;Node29</title>
<path fill="none" stroke="#191970" d="M415.1457,-19.5C423.5598,-19.5 432.0592,-19.5 440.2856,-19.5"/>
<polygon fill="#191970" stroke="#191970" points="414.9487,-16.0001 404.9486,-19.5 414.9486,-23.0001 414.9487,-16.0001"/>
</g>
<!-- Node30 -->
<g id="node5" class="node">
<title>Node30</title>
<g id="a_node5"><a xlink:href="namespaceanonymous__namespace_02io__shell__ts_8C_03.html#aa276fe20e737cf8d69a46bc51bad1ba6" target="_top" xlink:title="anonymous_namespace\l\{io_shell_ts::C\}::transfer\l_fields">
<polygon fill="#ffffff" stroke="#000000" points="601.5059,-.5 601.5059,-38.5 726.4658,-38.5 726.4658,-.5 601.5059,-.5"/>
<text text-anchor="start" x="609.5059" y="-26.5" font-family="Helvetica,sans-Serif" font-size="10.00" fill="#000000">anonymous_namespace</text>
<text text-anchor="start" x="609.5059" y="-16.5" font-family="Helvetica,sans-Serif" font-size="10.00" fill="#000000">{io_shell_ts::C}::transfer</text>
<text text-anchor="middle" x="663.9858" y="-6.5" font-family="Helvetica,sans-Serif" font-size="10.00" fill="#000000">_fields</text>
</a>
</g>
</g>
<!-- Node29&#45;&gt;Node30 -->
<g id="edge4" class="edge">
<title>Node29&#45;&gt;Node30</title>
<path fill="none" stroke="#191970" d="M575.7262,-19.5C584.3185,-19.5 593.0303,-19.5 601.4647,-19.5"/>
<polygon fill="#191970" stroke="#191970" points="575.7181,-16.0001 565.7181,-19.5 575.7181,-23.0001 575.7181,-16.0001"/>
</g>
</g>
</svg>
        <g id="navigator" transform="translate(0 0)" fill="#404254">
                <rect fill="#f2f5e9" fill-opacity="0.5" stroke="#606060" stroke-width=".5" x="0" y="0" width="60" height="60"/>
                <use id="zoomplus" xlink:href="#zoomPlus" x="17" y="9" onmousedown="handleZoom(evt,'in')"/>
                <use id="zoomminus" xlink:href="#zoomMin" x="42" y="9" onmousedown="handleZoom(evt,'out')"/>
                <use id="reset" xlink:href="#resetDef" x="30" y="36" onmousedown="handleReset()"/>
                <g id="arrowUp" xlink:href="#dirArrow" transform="translate(30 24)" onmousedown="handlePan(0,-1)">
                  <use xlink:href="#rim" fill="#404040">
                        <set attributeName="fill" to="#808080" begin="arrowUp.mouseover" end="arrowUp.mouseout"/>
                  </use>
                  <path fill="none" stroke="white" stroke-width="1.5" d="M0,-3.0v7 M-2.5,-0.5L0,-3.0L2.5,-0.5"/>
                </g>
                <g id="arrowRight" xlink:href="#dirArrow" transform="rotate(90) translate(36 -43)" onmousedown="handlePan(1,0)">
                  <use xlink:href="#rim" fill="#404040">
                        <set attributeName="fill" to="#808080" begin="arrowRight.mouseover" end="arrowRight.mouseout"/>
                  </use>
                  <path fill="none" stroke="white" stroke-width="1.5" d="M0,-3.0v7 M-2.5,-0.5L0,-3.0L2.5,-0.5"/>
                </g>
                <g id="arrowDown" xlink:href="#dirArrow" transform="rotate(180) translate(-30 -48)" onmousedown="handlePan(0,1)">
                  <use xlink:href="#rim" fill="#404040">
                        <set attributeName="fill" to="#808080" begin="arrowDown.mouseover" end="arrowDown.mouseout"/>
                  </use>
                  <path fill="none" stroke="white" stroke-width="1.5" d="M0,-3.0v7 M-2.5,-0.5L0,-3.0L2.5,-0.5"/>
                </g>
                <g id="arrowLeft" xlink:href="#dirArrow" transform="rotate(270) translate(-36 17)" onmousedown="handlePan(-1,0)">
                  <use xlink:href="#rim" fill="#404040">
                        <set attributeName="fill" to="#808080" begin="arrowLeft.mouseover" end="arrowLeft.mouseout"/>
                  </use>
                  <path fill="none" stroke="white" stroke-width="1.5" d="M0,-3.0v7 M-2.5,-0.5L0,-3.0L2.5,-0.5"/>
                </g>
        </g>
        <svg viewBox="0 0 15 15" width="100%" height="30px" preserveAspectRatio="xMaxYMin meet">
         <g id="arrow_out" transform="scale(0.3 0.3)">
          <a xlink:href="classIotr_1_1Factory_a33e848dfe2b61f8bc9ad7bd13165bd08_icgraph_org.svg" target="_base">
           <rect id="button" ry="5" rx="5" y="6" x="6" height="38" width="38"
                fill="#f2f5e9" fill-opacity="0.5" stroke="#606060" stroke-width="1.0"/>
           <path id="arrow"
             d="M 11.500037,31.436501 C 11.940474,20.09759 22.043105,11.32322 32.158766,21.979434 L 37.068811,17.246167 C 37.068811,17.246167 37.088388,32 37.088388,32 L 22.160133,31.978069 C 22.160133,31.978069 26.997745,27.140456 26.997745,27.140456 C 18.528582,18.264221 13.291696,25.230495 11.500037,31.436501 z"
             style="fill:#404040;"/>
          </a>
         </g>
        </svg>
</svg>
