<?xml version="1.0" encoding="UTF-8" standalone="no"?>
<!DOCTYPE svg PUBLIC "-//W3C//DTD SVG 1.1//EN"
 "http://www.w3.org/Graphics/SVG/1.1/DTD/svg11.dtd">
<!-- Generated by graphviz version 2.40.1 (20161225.0304)
 -->
<!-- Title: Iocgns::Utils::map_cgns_face_to_ioss Pages: 1 -->
<svg width="265pt" height="37pt"
 viewBox="0.00 0.00 265.00 37.00" xmlns="http://www.w3.org/2000/svg" xmlns:xlink="http://www.w3.org/1999/xlink">
<g id="graph0" class="graph" transform="scale(1 1) rotate(0) translate(4 33)">
<title>Iocgns::Utils::map_cgns_face_to_ioss</title>
<polygon fill="#ffffff" stroke="transparent" points="-4,4 -4,-33 261.0039,-33 261.0039,4 -4,4"/>
<!-- Node301 -->
<g id="node1" class="node">
<title>Node301</title>
<polygon fill="#bfbfbf" stroke="#000000" points="0,-.5 0,-28.5 104.3936,-28.5 104.3936,-.5 0,-.5"/>
<text text-anchor="start" x="8" y="-16.5" font-family="Helvetica,sans-Serif" font-size="10.00" fill="#000000">Iocgns::Utils::map</text>
<text text-anchor="middle" x="52.1968" y="-6.5" font-family="Helvetica,sans-Serif" font-size="10.00" fill="#000000">_cgns_face_to_ioss</text>
</g>
<!-- Node302 -->
<g id="node2" class="node">
<title>Node302</title>
<g id="a_node2"><a xlink:href="$classIoss_1_1ElementTopology.html#a477e1058938f046445651e6072ba605b" xlink:title="Ioss::ElementTopology\l::shape">
<polygon fill="#ffffff" stroke="#000000" points="140.3936,-.5 140.3936,-28.5 257.0039,-28.5 257.0039,-.5 140.3936,-.5"/>
<text text-anchor="start" x="148.3936" y="-16.5" font-family="Helvetica,sans-Serif" font-size="10.00" fill="#000000">Ioss::ElementTopology</text>
<text text-anchor="middle" x="198.6987" y="-6.5" font-family="Helvetica,sans-Serif" font-size="10.00" fill="#000000">::shape</text>
</a>
</g>
</g>
<!-- Node301&#45;&gt;Node302 -->
<g id="edge1" class="edge">
<title>Node301&#45;&gt;Node302</title>
<path fill="none" stroke="#191970" d="M104.6735,-14.5C112.9943,-14.5 121.7048,-14.5 130.3249,-14.5"/>
<polygon fill="#191970" stroke="#191970" points="130.3739,-18.0001 140.3739,-14.5 130.3738,-11.0001 130.3739,-18.0001"/>
</g>
</g>
</svg>
