<?xml version="1.0" encoding="UTF-8" standalone="no"?>
<!DOCTYPE svg PUBLIC "-//W3C//DTD SVG 1.1//EN"
 "http://www.w3.org/Graphics/SVG/1.1/DTD/svg11.dtd">
<!-- Generated by graphviz version 2.40.1 (20161225.0304)
 -->
<!-- Title: Iopx::DatabaseIO::get_field_internal Pages: 1 -->
<svg width="741pt" height="279pt"
 viewBox="0.00 0.00 740.62 279.00" xmlns="http://www.w3.org/2000/svg" xmlns:xlink="http://www.w3.org/1999/xlink">
<g id="graph0" class="graph" transform="scale(1 1) rotate(0) translate(4 275)">
<title>Iopx::DatabaseIO::get_field_internal</title>
<polygon fill="#ffffff" stroke="transparent" points="-4,4 -4,-275 736.623,-275 736.623,4 -4,4"/>
<!-- Node653 -->
<g id="node1" class="node">
<title>Node653</title>
<polygon fill="#bfbfbf" stroke="#000000" points="0,-142.5 0,-170.5 113.2803,-170.5 113.2803,-142.5 0,-142.5"/>
<text text-anchor="start" x="8" y="-158.5" font-family="Helvetica,sans-Serif" font-size="10.00" fill="#000000">Iopx::DatabaseIO::get</text>
<text text-anchor="middle" x="56.6401" y="-148.5" font-family="Helvetica,sans-Serif" font-size="10.00" fill="#000000">_field_internal</text>
</g>
<!-- Node654 -->
<g id="node2" class="node">
<title>Node654</title>
<g id="a_node2"><a xlink:href="$classIoex_1_1DatabaseIO.html#a1f0dc3435483554a259ed3dd4744eb09" xlink:title="Ioex::DatabaseIO::get\l_field_internal">
<polygon fill="#ffffff" stroke="#000000" points="149.2803,-142.5 149.2803,-170.5 262.5605,-170.5 262.5605,-142.5 149.2803,-142.5"/>
<text text-anchor="start" x="157.2803" y="-158.5" font-family="Helvetica,sans-Serif" font-size="10.00" fill="#000000">Ioex::DatabaseIO::get</text>
<text text-anchor="middle" x="205.9204" y="-148.5" font-family="Helvetica,sans-Serif" font-size="10.00" fill="#000000">_field_internal</text>
</a>
</g>
</g>
<!-- Node653&#45;&gt;Node654 -->
<g id="edge1" class="edge">
<title>Node653&#45;&gt;Node654</title>
<path fill="none" stroke="#191970" d="M113.5025,-156.5C121.8205,-156.5 130.4514,-156.5 138.9483,-156.5"/>
<polygon fill="#191970" stroke="#191970" points="139.2162,-160.0001 149.2162,-156.5 139.2161,-153.0001 139.2162,-160.0001"/>
</g>
<!-- Node655 -->
<g id="node3" class="node">
<title>Node655</title>
<g id="a_node3"><a xlink:href="$classIoss_1_1Field.html#a5bf843c0a14301cbb7b1507a2ee0ccc6" xlink:title="Ioss::Field::verify">
<polygon fill="#ffffff" stroke="#000000" points="309.6909,-205.5 309.6909,-223.5 400.7104,-223.5 400.7104,-205.5 309.6909,-205.5"/>
<text text-anchor="middle" x="355.2007" y="-211.5" font-family="Helvetica,sans-Serif" font-size="10.00" fill="#000000">Ioss::Field::verify</text>
</a>
</g>
</g>
<!-- Node654&#45;&gt;Node655 -->
<g id="edge2" class="edge">
<title>Node654&#45;&gt;Node655</title>
<path fill="none" stroke="#191970" d="M236.4869,-170.6125C254.3957,-178.65 277.5557,-188.65 298.5605,-196.5 303.8159,-198.4641 309.3941,-200.4058 314.9209,-202.2462"/>
<polygon fill="#191970" stroke="#191970" points="314.1405,-205.6727 324.7326,-205.4322 316.3025,-199.0148 314.1405,-205.6727"/>
</g>
<!-- Node656 -->
<g id="node4" class="node">
<title>Node656</title>
<g id="a_node4"><a xlink:href="$classIoss_1_1Field.html#aade689a336549e6d96d931e7ba73503d" xlink:title="Get the role (MESH, ATTRIBUTE, TRANSIENT, REDUCTION, etc.) of the data in the field. ">
<polygon fill="#ffffff" stroke="#000000" points="303.5679,-168.5 303.5679,-186.5 406.8335,-186.5 406.8335,-168.5 303.5679,-168.5"/>
<text text-anchor="middle" x="355.2007" y="-174.5" font-family="Helvetica,sans-Serif" font-size="10.00" fill="#000000">Ioss::Field::get_role</text>
</a>
</g>
</g>
<!-- Node654&#45;&gt;Node656 -->
<g id="edge3" class="edge">
<title>Node654&#45;&gt;Node656</title>
<path fill="none" stroke="#191970" d="M262.7827,-164.4991C272.7938,-165.9074 283.2579,-167.3794 293.3963,-168.8057"/>
<polygon fill="#191970" stroke="#191970" points="293.0071,-172.2853 303.3972,-170.2125 293.9823,-165.3536 293.0071,-172.2853"/>
</g>
<!-- Node657 -->
<g id="node5" class="node">
<title>Node657</title>
<g id="a_node5"><a xlink:href="$classIoex_1_1DatabaseIO.html#a18a87fd245372a8b8b44d6b6a6787ba0" xlink:title="Ioex::DatabaseIO::get\l_reduction_field">
<polygon fill="#ffffff" stroke="#000000" points="298.5605,-121.5 298.5605,-149.5 411.8408,-149.5 411.8408,-121.5 298.5605,-121.5"/>
<text text-anchor="start" x="306.5605" y="-137.5" font-family="Helvetica,sans-Serif" font-size="10.00" fill="#000000">Ioex::DatabaseIO::get</text>
<text text-anchor="middle" x="355.2007" y="-127.5" font-family="Helvetica,sans-Serif" font-size="10.00" fill="#000000">_reduction_field</text>
</a>
</g>
</g>
<!-- Node654&#45;&gt;Node657 -->
<g id="edge4" class="edge">
<title>Node654&#45;&gt;Node657</title>
<path fill="none" stroke="#191970" d="M262.7827,-148.5009C271.1922,-147.3179 279.9214,-146.0899 288.5086,-144.8819"/>
<polygon fill="#191970" stroke="#191970" points="289.0816,-148.3359 298.4965,-143.4769 288.1064,-141.4041 289.0816,-148.3359"/>
</g>
<!-- Node666 -->
<g id="node14" class="node">
<title>Node666</title>
<g id="a_node14"><a xlink:href="$classIoss_1_1DatabaseIO.html#ac7cb8bf7c8175fa0546a2bd965570e7c" xlink:title="Ioss::DatabaseIO::get\l_region">
<polygon fill="#ffffff" stroke="#000000" points="298.8413,-74.5 298.8413,-102.5 411.5601,-102.5 411.5601,-74.5 298.8413,-74.5"/>
<text text-anchor="start" x="306.8413" y="-90.5" font-family="Helvetica,sans-Serif" font-size="10.00" fill="#000000">Ioss::DatabaseIO::get</text>
<text text-anchor="middle" x="355.2007" y="-80.5" font-family="Helvetica,sans-Serif" font-size="10.00" fill="#000000">_region</text>
</a>
</g>
</g>
<!-- Node654&#45;&gt;Node666 -->
<g id="edge13" class="edge">
<title>Node654&#45;&gt;Node666</title>
<path fill="none" stroke="#191970" d="M234.9792,-142.3081C253.1603,-133.526 277.1205,-122.1287 298.5605,-112.5 302.8989,-110.5516 307.4418,-108.5549 311.9869,-106.5856"/>
<polygon fill="#191970" stroke="#191970" points="313.4466,-109.7679 321.2542,-102.6061 310.6845,-103.3358 313.4466,-109.7679"/>
</g>
<!-- Node658 -->
<g id="node6" class="node">
<title>Node658</title>
<g id="a_node6"><a xlink:href="$classIoss_1_1Field.html#aa50e28cbc6eff5e4056eda686d79f4e1" xlink:title="Ioss::Field::raw_storage">
<polygon fill="#ffffff" stroke="#000000" points="447.8408,-252.5 447.8408,-270.5 569.998,-270.5 569.998,-252.5 447.8408,-252.5"/>
<text text-anchor="middle" x="508.9194" y="-258.5" font-family="Helvetica,sans-Serif" font-size="10.00" fill="#000000">Ioss::Field::raw_storage</text>
</a>
</g>
</g>
<!-- Node657&#45;&gt;Node658 -->
<g id="edge5" class="edge">
<title>Node657&#45;&gt;Node658</title>
<path fill="none" stroke="#191970" d="M398.5684,-149.6281C403.4121,-152.3919 407.9816,-155.6565 411.8408,-159.5 440.6205,-188.162 417.4723,-216.5272 447.8408,-243.5 449.3906,-244.8765 451.041,-246.1479 452.7689,-247.3222"/>
<polygon fill="#191970" stroke="#191970" points="451.5072,-250.6251 461.9486,-252.422 454.9068,-244.506 451.5072,-250.6251"/>
</g>
<!-- Node659 -->
<g id="node7" class="node">
<title>Node659</title>
<g id="a_node7"><a xlink:href="$classIoss_1_1Field.html#a8abb33dcfa0630f6422e7541b36694b4" xlink:title="Get the basic data type of the data held in the field. ">
<polygon fill="#ffffff" stroke="#000000" points="456.1733,-215.5 456.1733,-233.5 561.6655,-233.5 561.6655,-215.5 456.1733,-215.5"/>
<text text-anchor="middle" x="508.9194" y="-221.5" font-family="Helvetica,sans-Serif" font-size="10.00" fill="#000000">Ioss::Field::get_type</text>
</a>
</g>
</g>
<!-- Node657&#45;&gt;Node659 -->
<g id="edge6" class="edge">
<title>Node657&#45;&gt;Node659</title>
<path fill="none" stroke="#191970" d="M395.6474,-149.5558C401.358,-152.4011 406.9435,-155.7072 411.8408,-159.5 432.644,-175.6113 426.1521,-191.6022 447.8408,-206.5 450.5289,-208.3464 453.4086,-210.0064 456.3999,-211.4982"/>
<polygon fill="#191970" stroke="#191970" points="455.0613,-214.7325 465.6292,-215.4881 457.839,-208.3072 455.0613,-214.7325"/>
</g>
<!-- Node660 -->
<g id="node8" class="node">
<title>Node660</title>
<g id="a_node8"><a xlink:href="$classIoss_1_1DatabaseIO.html#aac344d090f98ae0082547ea7d8e0db7e" xlink:title="Ioss::DatabaseIO::get\l_field_separator">
<polygon fill="#ffffff" stroke="#000000" points="452.5601,-168.5 452.5601,-196.5 565.2788,-196.5 565.2788,-168.5 452.5601,-168.5"/>
<text text-anchor="start" x="460.5601" y="-184.5" font-family="Helvetica,sans-Serif" font-size="10.00" fill="#000000">Ioss::DatabaseIO::get</text>
<text text-anchor="middle" x="508.9194" y="-174.5" font-family="Helvetica,sans-Serif" font-size="10.00" fill="#000000">_field_separator</text>
</a>
</g>
</g>
<!-- Node657&#45;&gt;Node660 -->
<g id="edge7" class="edge">
<title>Node657&#45;&gt;Node660</title>
<path fill="none" stroke="#191970" d="M401.3214,-149.6015C417.6591,-154.5969 436.2154,-160.2705 453.2621,-165.4826"/>
<polygon fill="#191970" stroke="#191970" points="452.51,-168.9125 463.0964,-168.4894 454.5568,-162.2184 452.51,-168.9125"/>
</g>
<!-- Node661 -->
<g id="node9" class="node">
<title>Node661</title>
<g id="a_node9"><a xlink:href="$classIoss_1_1VariableType.html#ad1e37f24dd5bbe9ed6bee80a93665d6c" xlink:title="Ioss::VariableType\l::component_count">
<polygon fill="#ffffff" stroke="#000000" points="458.3901,-121.5 458.3901,-149.5 559.4487,-149.5 559.4487,-121.5 458.3901,-121.5"/>
<text text-anchor="start" x="466.3901" y="-137.5" font-family="Helvetica,sans-Serif" font-size="10.00" fill="#000000">Ioss::VariableType</text>
<text text-anchor="middle" x="508.9194" y="-127.5" font-family="Helvetica,sans-Serif" font-size="10.00" fill="#000000">::component_count</text>
</a>
</g>
</g>
<!-- Node657&#45;&gt;Node661 -->
<g id="edge8" class="edge">
<title>Node657&#45;&gt;Node661</title>
<path fill="none" stroke="#191970" d="M412.0031,-135.5C423.7114,-135.5 436.0872,-135.5 447.9367,-135.5"/>
<polygon fill="#191970" stroke="#191970" points="448.1843,-139.0001 458.1843,-135.5 448.1843,-132.0001 448.1843,-139.0001"/>
</g>
<!-- Node662 -->
<g id="node10" class="node">
<title>Node662</title>
<g id="a_node10"><a xlink:href="$classIoss_1_1Field.html#aca1c35eb7fb1dcd0bf8c80b2b6926131" xlink:title="Ioss::Field::get_name">
<polygon fill="#ffffff" stroke="#000000" points="453.1167,-84.5 453.1167,-102.5 564.7222,-102.5 564.7222,-84.5 453.1167,-84.5"/>
<text text-anchor="middle" x="508.9194" y="-90.5" font-family="Helvetica,sans-Serif" font-size="10.00" fill="#000000">Ioss::Field::get_name</text>
</a>
</g>
</g>
<!-- Node657&#45;&gt;Node662 -->
<g id="edge9" class="edge">
<title>Node657&#45;&gt;Node662</title>
<path fill="none" stroke="#191970" d="M406.8144,-121.3978C425.9484,-116.1699 447.4307,-110.3003 465.7362,-105.2988"/>
<polygon fill="#191970" stroke="#191970" points="466.8201,-108.631 475.544,-102.619 464.9751,-101.8785 466.8201,-108.631"/>
</g>
<!-- Node663 -->
<g id="node11" class="node">
<title>Node663</title>
<g id="a_node11"><a xlink:href="$classIoss_1_1VariableType.html#a40198c08c4f89a2f9559c1eca19bce6b" xlink:title="Ioss::VariableType\l::label_name">
<polygon fill="#ffffff" stroke="#000000" points="460.1528,-37.5 460.1528,-65.5 557.686,-65.5 557.686,-37.5 460.1528,-37.5"/>
<text text-anchor="start" x="468.1528" y="-53.5" font-family="Helvetica,sans-Serif" font-size="10.00" fill="#000000">Ioss::VariableType</text>
<text text-anchor="middle" x="508.9194" y="-43.5" font-family="Helvetica,sans-Serif" font-size="10.00" fill="#000000">::label_name</text>
</a>
</g>
</g>
<!-- Node657&#45;&gt;Node663 -->
<g id="edge10" class="edge">
<title>Node657&#45;&gt;Node663</title>
<path fill="none" stroke="#191970" d="M395.8674,-121.3967C401.4264,-118.7859 406.9102,-115.8186 411.8408,-112.5 430.8749,-99.689 428.7345,-88.203 447.8408,-75.5 450.776,-73.5485 453.8939,-71.7182 457.1073,-70.0082"/>
<polygon fill="#191970" stroke="#191970" points="458.8878,-73.0341 466.3442,-65.5073 455.8214,-66.7414 458.8878,-73.0341"/>
</g>
<!-- Node664 -->
<g id="node12" class="node">
<title>Node664</title>
<g id="a_node12"><a xlink:href="$classIoss_1_1DatabaseIO.html#a5d8e540f4416132b1453c0c7a7fa6c7e" xlink:title="Return the database to STATE_CLOSED. ">
<polygon fill="#ffffff" stroke="#000000" points="451.1685,-.5 451.1685,-18.5 566.6704,-18.5 566.6704,-.5 451.1685,-.5"/>
<text text-anchor="middle" x="508.9194" y="-6.5" font-family="Helvetica,sans-Serif" font-size="10.00" fill="#000000">Ioss::DatabaseIO::end</text>
</a>
</g>
</g>
<!-- Node657&#45;&gt;Node664 -->
<g id="edge11" class="edge">
<title>Node657&#45;&gt;Node664</title>
<path fill="none" stroke="#191970" d="M399.9763,-121.3628C404.2944,-118.8518 408.3558,-115.9189 411.8408,-112.5 440.8355,-84.0556 417.6754,-55.6997 447.8408,-28.5 450.0058,-26.5479 452.369,-24.7963 454.8669,-23.2248"/>
<polygon fill="#191970" stroke="#191970" points="456.5579,-26.2901 463.7871,-18.5448 453.3058,-20.0914 456.5579,-26.2901"/>
</g>
<!-- Node665 -->
<g id="node13" class="node">
<title>Node665</title>
<g id="a_node13"><a xlink:href="$classIoss_1_1DatabaseIO.html#a511fe9a77435e39aaa5cea5e34067f4a" xlink:title="Ioss::DatabaseIO::end__">
<polygon fill="#ffffff" stroke="#000000" points="605.998,-.5 605.998,-18.5 732.623,-18.5 732.623,-.5 605.998,-.5"/>
<text text-anchor="middle" x="669.3105" y="-6.5" font-family="Helvetica,sans-Serif" font-size="10.00" fill="#000000">Ioss::DatabaseIO::end__</text>
</a>
</g>
</g>
<!-- Node664&#45;&gt;Node665 -->
<g id="edge12" class="edge">
<title>Node664&#45;&gt;Node665</title>
<path fill="none" stroke="#191970" d="M566.8243,-9.5C576.2145,-9.5 586.0476,-9.5 595.7502,-9.5"/>
<polygon fill="#191970" stroke="#191970" points="595.7902,-13.0001 605.7902,-9.5 595.7901,-6.0001 595.7902,-13.0001"/>
</g>
</g>
</svg>
