<?xml version="1.0" encoding="UTF-8" standalone="no"?>
<!DOCTYPE svg PUBLIC "-//W3C//DTD SVG 1.1//EN"
 "http://www.w3.org/Graphics/SVG/1.1/DTD/svg11.dtd">
<!-- Generated by graphviz version 2.40.1 (20161225.0304)
 -->
<!-- Title: Ioss::Bar2 Pages: 1 -->
<svg width="160pt" height="83pt"
 viewBox="0.00 0.00 160.40 83.00" xmlns="http://www.w3.org/2000/svg" xmlns:xlink="http://www.w3.org/1999/xlink">
<g id="graph0" class="graph" transform="scale(1 1) rotate(0) translate(4 79)">
<title>Ioss::Bar2</title>
<polygon fill="#ffffff" stroke="transparent" points="-4,4 -4,-79 156.4009,-79 156.4009,4 -4,4"/>
<!-- Node2 -->
<g id="node1" class="node">
<title>Node2</title>
<polygon fill="#bfbfbf" stroke="#000000" points="27.7954,-.5 27.7954,-18.5 88.8149,-18.5 88.8149,-.5 27.7954,-.5"/>
<text text-anchor="middle" x="58.3052" y="-6.5" font-family="Helvetica,sans-Serif" font-size="10.00" fill="#000000">Ioss::Bar2</text>
</g>
<!-- Node2&#45;&gt;Node2 -->
<g id="edge2" class="edge">
<title>Node2&#45;&gt;Node2</title>
<path fill="none" stroke="#9a32cd" stroke-dasharray="5,2" d="M99.3963,-13.9094C103.9058,-13.0693 106.8149,-11.5995 106.8149,-9.5 106.8149,-6.0547 98.9807,-4.3051 89.096,-4.2513"/>
<polygon fill="#9a32cd" stroke="#9a32cd" points="98.7787,-10.448 89.096,-14.7487 99.3473,-17.4249 98.7787,-10.448"/>
<text text-anchor="middle" x="129.6079" y="-6.5" font-family="Helvetica,sans-Serif" font-size="10.00" fill="#000000"> instance_</text>
</g>
<!-- Node3 -->
<g id="node2" class="node">
<title>Node3</title>
<g id="a_node2"><a xlink:href="classIoss_1_1ElementTopology.html" target="_top" xlink:title="Represents an element topology. ">
<polygon fill="#ffffff" stroke="#000000" points="0,-56.5 0,-74.5 116.6104,-74.5 116.6104,-56.5 0,-56.5"/>
<text text-anchor="middle" x="58.3052" y="-62.5" font-family="Helvetica,sans-Serif" font-size="10.00" fill="#000000">Ioss::ElementTopology</text>
</a>
</g>
</g>
<!-- Node3&#45;&gt;Node2 -->
<g id="edge1" class="edge">
<title>Node3&#45;&gt;Node2</title>
<path fill="none" stroke="#191970" d="M58.3052,-46.2065C58.3052,-36.8384 58.3052,-26.0262 58.3052,-18.5752"/>
<polygon fill="#191970" stroke="#191970" points="54.8053,-46.2527 58.3052,-56.2527 61.8053,-46.2528 54.8053,-46.2527"/>
</g>
</g>
</svg>
