<?xml version="1.0" encoding="UTF-8" standalone="no"?>
<!DOCTYPE svg PUBLIC "-//W3C//DTD SVG 1.1//EN"
 "http://www.w3.org/Graphics/SVG/1.1/DTD/svg11.dtd">
<!-- Generated by graphviz version 2.40.1 (20161225.0304)
 -->
<!-- Title: Ioss::DatabaseIO::closeDatabase__ Pages: 1 -->
<svg width="695pt" height="194pt"
 viewBox="0.00 0.00 694.71 194.00" xmlns="http://www.w3.org/2000/svg" xmlns:xlink="http://www.w3.org/1999/xlink">
<g id="graph0" class="graph" transform="scale(1 1) rotate(0) translate(4 190)">
<title>Ioss::DatabaseIO::closeDatabase__</title>
<polygon fill="#ffffff" stroke="transparent" points="-4,4 -4,-190 690.707,-190 690.707,4 -4,4"/>
<!-- Node182 -->
<g id="node1" class="node">
<title>Node182</title>
<polygon fill="#bfbfbf" stroke="#000000" points="0,-89.5 0,-107.5 176.0928,-107.5 176.0928,-89.5 0,-89.5"/>
<text text-anchor="middle" x="88.0464" y="-95.5" font-family="Helvetica,sans-Serif" font-size="10.00" fill="#000000">Ioss::DatabaseIO::closeDatabase__</text>
</g>
<!-- Node183 -->
<g id="node2" class="node">
<title>Node183</title>
<g id="a_node2"><a xlink:href="classIoss_1_1DatabaseIO.html#ac744cfa124aea2aca48ddbb429cfb697" target="_top" xlink:title="Function which invokes stageout from BB to Disk, prior to completion of final close. ">
<polygon fill="#ffffff" stroke="#000000" points="212.0928,-89.5 212.0928,-107.5 350.915,-107.5 350.915,-89.5 212.0928,-89.5"/>
<text text-anchor="middle" x="281.5039" y="-95.5" font-family="Helvetica,sans-Serif" font-size="10.00" fill="#000000">Ioss::DatabaseIO::closeDW</text>
</a>
</g>
</g>
<!-- Node182&#45;&gt;Node183 -->
<g id="edge1" class="edge">
<title>Node182&#45;&gt;Node183</title>
<path fill="none" stroke="#191970" d="M176.2833,-98.5C184.785,-98.5 193.3748,-98.5 201.7874,-98.5"/>
<polygon fill="#191970" stroke="#191970" points="201.9432,-102.0001 211.9432,-98.5 201.9431,-95.0001 201.9432,-102.0001"/>
</g>
<!-- Node184 -->
<g id="node3" class="node">
<title>Node184</title>
<g id="a_node3"><a xlink:href="classIoss_1_1DatabaseIO.html#a7ebbdc09be146cd42dc26b135e494a95" target="_top" xlink:title="Ioss::DatabaseIO::using_dw">
<polygon fill="#ffffff" stroke="#000000" points="545.6387,-167.5 545.6387,-185.5 686.707,-185.5 686.707,-167.5 545.6387,-167.5"/>
<text text-anchor="middle" x="616.1729" y="-173.5" font-family="Helvetica,sans-Serif" font-size="10.00" fill="#000000">Ioss::DatabaseIO::using_dw</text>
</a>
</g>
</g>
<!-- Node183&#45;&gt;Node184 -->
<g id="edge2" class="edge">
<title>Node183&#45;&gt;Node184</title>
<path fill="none" stroke="#191970" d="M290.9536,-107.661C308.2749,-123.7622 347.0115,-156.6456 386.915,-169.5 434.4732,-184.8202 490.4875,-186.804 535.2431,-184.8442"/>
<polygon fill="#191970" stroke="#191970" points="535.68,-188.3265 545.4876,-184.319 535.3214,-181.3357 535.68,-188.3265"/>
</g>
<!-- Node185 -->
<g id="node4" class="node">
<title>Node185</title>
<g id="a_node4"><a xlink:href="classIoss_1_1DatabaseIO.html#a6e5c575a44253f465dd993bb49a16d2d" target="_top" xlink:title="Ioss::DatabaseIO::using\l_parallel_io">
<polygon fill="#ffffff" stroke="#000000" points="386.915,-131.5 386.915,-159.5 509.6387,-159.5 509.6387,-131.5 386.915,-131.5"/>
<text text-anchor="start" x="394.915" y="-147.5" font-family="Helvetica,sans-Serif" font-size="10.00" fill="#000000">Ioss::DatabaseIO::using</text>
<text text-anchor="middle" x="448.2769" y="-137.5" font-family="Helvetica,sans-Serif" font-size="10.00" fill="#000000">_parallel_io</text>
</a>
</g>
</g>
<!-- Node183&#45;&gt;Node185 -->
<g id="edge3" class="edge">
<title>Node183&#45;&gt;Node185</title>
<path fill="none" stroke="#191970" d="M313.6594,-107.5621C334.8838,-113.5435 363.338,-121.5625 388.6183,-128.687"/>
<polygon fill="#191970" stroke="#191970" points="387.9191,-132.1262 398.4936,-131.4701 389.8179,-125.3887 387.9191,-132.1262"/>
</g>
<!-- Node186 -->
<g id="node5" class="node">
<title>Node186</title>
<g id="a_node5"><a xlink:href="classIoss_1_1DatabaseIO.html#a647e5041a48ca35ee03cb739333b1bf2" target="_top" xlink:title="Ioss::DatabaseIO::get\l_dwname">
<polygon fill="#ffffff" stroke="#000000" points="391.9175,-84.5 391.9175,-112.5 504.6362,-112.5 504.6362,-84.5 391.9175,-84.5"/>
<text text-anchor="start" x="399.9175" y="-100.5" font-family="Helvetica,sans-Serif" font-size="10.00" fill="#000000">Ioss::DatabaseIO::get</text>
<text text-anchor="middle" x="448.2769" y="-90.5" font-family="Helvetica,sans-Serif" font-size="10.00" fill="#000000">_dwname</text>
</a>
</g>
</g>
<!-- Node183&#45;&gt;Node186 -->
<g id="edge4" class="edge">
<title>Node183&#45;&gt;Node186</title>
<path fill="none" stroke="#191970" d="M351.2643,-98.5C361.2675,-98.5 371.5396,-98.5 381.4836,-98.5"/>
<polygon fill="#191970" stroke="#191970" points="381.7025,-102.0001 391.7024,-98.5 381.7024,-95.0001 381.7025,-102.0001"/>
</g>
<!-- Node189 -->
<g id="node8" class="node">
<title>Node189</title>
<g id="a_node8"><a xlink:href="classIoss_1_1DatabaseIO.html#ac9a4f5418c881354de482d8bf319868f" target="_top" xlink:title="Ioss::DatabaseIO::get\l_pfsname">
<polygon fill="#ffffff" stroke="#000000" points="391.9175,-37.5 391.9175,-65.5 504.6362,-65.5 504.6362,-37.5 391.9175,-37.5"/>
<text text-anchor="start" x="399.9175" y="-53.5" font-family="Helvetica,sans-Serif" font-size="10.00" fill="#000000">Ioss::DatabaseIO::get</text>
<text text-anchor="middle" x="448.2769" y="-43.5" font-family="Helvetica,sans-Serif" font-size="10.00" fill="#000000">_pfsname</text>
</a>
</g>
</g>
<!-- Node183&#45;&gt;Node189 -->
<g id="edge8" class="edge">
<title>Node183&#45;&gt;Node189</title>
<path fill="none" stroke="#191970" d="M313.6594,-89.4379C334.8838,-83.4565 363.338,-75.4375 388.6183,-68.313"/>
<polygon fill="#191970" stroke="#191970" points="389.8179,-71.6113 398.4936,-65.5299 387.9191,-64.8738 389.8179,-71.6113"/>
</g>
<!-- Node190 -->
<g id="node9" class="node">
<title>Node190</title>
<g id="a_node9"><a xlink:href="classIoss_1_1DatabaseIO.html#acd988f56b93ac669b2e504a8e471b321" target="_top" xlink:title="Ioss::DatabaseIO::util">
<polygon fill="#ffffff" stroke="#000000" points="392.4766,-.5 392.4766,-18.5 504.0771,-18.5 504.0771,-.5 392.4766,-.5"/>
<text text-anchor="middle" x="448.2769" y="-6.5" font-family="Helvetica,sans-Serif" font-size="10.00" fill="#000000">Ioss::DatabaseIO::util</text>
</a>
</g>
</g>
<!-- Node183&#45;&gt;Node190 -->
<g id="edge9" class="edge">
<title>Node183&#45;&gt;Node190</title>
<path fill="none" stroke="#191970" d="M292.5055,-89.3906C310.954,-74.5208 349.7671,-44.9453 386.915,-27.5 391.3303,-25.4265 396.0376,-23.5345 400.8065,-21.8229"/>
<polygon fill="#191970" stroke="#191970" points="402.2242,-25.0399 410.6081,-18.5622 400.0146,-18.3978 402.2242,-25.0399"/>
</g>
<!-- Node186&#45;&gt;Node184 -->
<g id="edge6" class="edge">
<title>Node186&#45;&gt;Node184</title>
<path fill="none" stroke="#191970" d="M485.832,-112.527C493.753,-115.6697 502.0173,-119.0875 509.6387,-122.5 537.7029,-135.0658 569.0005,-151.1929 590.369,-162.5393"/>
<polygon fill="#191970" stroke="#191970" points="588.9715,-165.7609 599.441,-167.3861 592.2701,-159.5868 588.9715,-165.7609"/>
</g>
<!-- Node187 -->
<g id="node6" class="node">
<title>Node187</title>
<g id="a_node6"><a xlink:href="classIoss_1_1DatabaseIO.html#afaf8598b13b44b8f262b3eec8398cb06" target="_top" xlink:title="Determine whether the database is an input database. ">
<polygon fill="#ffffff" stroke="#000000" points="563.1533,-96.5 563.1533,-124.5 669.1924,-124.5 669.1924,-96.5 563.1533,-96.5"/>
<text text-anchor="start" x="571.1533" y="-112.5" font-family="Helvetica,sans-Serif" font-size="10.00" fill="#000000">Ioss::DatabaseIO::is</text>
<text text-anchor="middle" x="616.1729" y="-102.5" font-family="Helvetica,sans-Serif" font-size="10.00" fill="#000000">_input</text>
</a>
</g>
</g>
<!-- Node186&#45;&gt;Node187 -->
<g id="edge5" class="edge">
<title>Node186&#45;&gt;Node187</title>
<path fill="none" stroke="#191970" d="M504.6509,-102.5292C520.1239,-103.6351 537.003,-104.8415 552.8388,-105.9733"/>
<polygon fill="#191970" stroke="#191970" points="552.8452,-109.4826 563.0693,-106.7045 553.3443,-102.5004 552.8452,-109.4826"/>
</g>
<!-- Node188 -->
<g id="node7" class="node">
<title>Node188</title>
<g id="a_node7"><a xlink:href="classIoss_1_1DatabaseIO.html#a1c9ad01905e9773cd69b452a8551cbba" target="_top" xlink:title="Get the file name associated with the database. ">
<polygon fill="#ffffff" stroke="#000000" points="559.8135,-49.5 559.8135,-77.5 672.5322,-77.5 672.5322,-49.5 559.8135,-49.5"/>
<text text-anchor="start" x="567.8135" y="-65.5" font-family="Helvetica,sans-Serif" font-size="10.00" fill="#000000">Ioss::DatabaseIO::get</text>
<text text-anchor="middle" x="616.1729" y="-55.5" font-family="Helvetica,sans-Serif" font-size="10.00" fill="#000000">_filename</text>
</a>
</g>
</g>
<!-- Node186&#45;&gt;Node188 -->
<g id="edge7" class="edge">
<title>Node186&#45;&gt;Node188</title>
<path fill="none" stroke="#191970" d="M504.6509,-86.7481C519.0477,-83.7469 534.6618,-80.492 549.5202,-77.3946"/>
<polygon fill="#191970" stroke="#191970" points="550.5866,-80.7476 559.6619,-75.2804 549.158,-73.8949 550.5866,-80.7476"/>
</g>
</g>
</svg>
