<?xml version="1.0" encoding="UTF-8" standalone="no"?>
<!DOCTYPE svg PUBLIC "-//W3C//DTD SVG 1.1//EN"
 "http://www.w3.org/Graphics/SVG/1.1/DTD/svg11.dtd">
<!-- Generated by graphviz version 2.40.1 (20161225.0304)
 -->
<!-- Title: Iovs::DatabaseIO::put_field_internal Pages: 1 -->
<svg width="943pt" height="380pt"
 viewBox="0.00 0.00 942.72 379.66" xmlns="http://www.w3.org/2000/svg" xmlns:xlink="http://www.w3.org/1999/xlink">
<g id="graph0" class="graph" transform="scale(1 1) rotate(0) translate(4 375.6605)">
<title>Iovs::DatabaseIO::put_field_internal</title>
<polygon fill="#ffffff" stroke="transparent" points="-4,4 -4,-375.6605 938.7207,-375.6605 938.7207,4 -4,4"/>
<!-- Node280 -->
<g id="node1" class="node">
<title>Node280</title>
<polygon fill="#bfbfbf" stroke="#000000" points="0,-175.5 0,-203.5 112.7188,-203.5 112.7188,-175.5 0,-175.5"/>
<text text-anchor="start" x="8" y="-191.5" font-family="Helvetica,sans-Serif" font-size="10.00" fill="#000000">Iovs::DatabaseIO::put</text>
<text text-anchor="middle" x="56.3594" y="-181.5" font-family="Helvetica,sans-Serif" font-size="10.00" fill="#000000">_field_internal</text>
</g>
<!-- Node281 -->
<g id="node2" class="node">
<title>Node281</title>
<g id="a_node2"><a xlink:href="classIoss_1_1Field.html#a5bf843c0a14301cbb7b1507a2ee0ccc6" target="_top" xlink:title="Ioss::Field::verify">
<polygon fill="#ffffff" stroke="#000000" points="165.689,-303.5 165.689,-321.5 256.7085,-321.5 256.7085,-303.5 165.689,-303.5"/>
<text text-anchor="middle" x="211.1987" y="-309.5" font-family="Helvetica,sans-Serif" font-size="10.00" fill="#000000">Ioss::Field::verify</text>
</a>
</g>
</g>
<!-- Node280&#45;&gt;Node281 -->
<g id="edge1" class="edge">
<title>Node280&#45;&gt;Node281</title>
<path fill="none" stroke="#191970" d="M64.9775,-203.7011C79.4434,-226.3282 110.7832,-270.4551 148.7188,-294.5 151.7176,-296.4008 154.9228,-298.1063 158.2382,-299.6356"/>
<polygon fill="#191970" stroke="#191970" points="157.2112,-302.9955 167.7943,-303.4957 159.833,-296.505 157.2112,-302.9955"/>
</g>
<!-- Node282 -->
<g id="node3" class="node">
<title>Node282</title>
<g id="a_node3"><a xlink:href="classIoss_1_1Field.html#aca1c35eb7fb1dcd0bf8c80b2b6926131" target="_top" xlink:title="Ioss::Field::get_name">
<polygon fill="#ffffff" stroke="#000000" points="155.396,-266.5 155.396,-284.5 267.0015,-284.5 267.0015,-266.5 155.396,-266.5"/>
<text text-anchor="middle" x="211.1987" y="-272.5" font-family="Helvetica,sans-Serif" font-size="10.00" fill="#000000">Ioss::Field::get_name</text>
</a>
</g>
</g>
<!-- Node280&#45;&gt;Node282 -->
<g id="edge2" class="edge">
<title>Node280&#45;&gt;Node282</title>
<path fill="none" stroke="#191970" d="M74.696,-203.6186C92.8041,-217.1162 121.6388,-237.4373 148.7188,-251.5 156.7358,-255.6633 165.6456,-259.5113 174.1666,-262.8515"/>
<polygon fill="#191970" stroke="#191970" points="172.9619,-266.1378 183.5536,-266.3968 175.4352,-259.5893 172.9619,-266.1378"/>
</g>
<!-- Node283 -->
<g id="node4" class="node">
<title>Node283</title>
<g id="a_node4"><a xlink:href="namespaceanonymous__namespace_02Iovs__DatabaseIO_8C_03.html#ae34bd5aa34632073a1919d8abcad0b7c" target="_top" xlink:title="anonymous_namespace\l\{Iovs_DatabaseIO::C\}\l::get_id">
<polygon fill="#ffffff" stroke="#000000" points="148.7188,-170.5 148.7188,-208.5 273.6787,-208.5 273.6787,-170.5 148.7188,-170.5"/>
<text text-anchor="start" x="156.7188" y="-196.5" font-family="Helvetica,sans-Serif" font-size="10.00" fill="#000000">anonymous_namespace</text>
<text text-anchor="start" x="156.7188" y="-186.5" font-family="Helvetica,sans-Serif" font-size="10.00" fill="#000000">{Iovs_DatabaseIO::C}</text>
<text text-anchor="middle" x="211.1987" y="-176.5" font-family="Helvetica,sans-Serif" font-size="10.00" fill="#000000">::get_id</text>
</a>
</g>
</g>
<!-- Node280&#45;&gt;Node283 -->
<g id="edge3" class="edge">
<title>Node280&#45;&gt;Node283</title>
<path fill="none" stroke="#191970" d="M113.1366,-189.5C121.4494,-189.5 130.1047,-189.5 138.6796,-189.5"/>
<polygon fill="#191970" stroke="#191970" points="138.6834,-193.0001 148.6834,-189.5 138.6833,-186.0001 138.6834,-193.0001"/>
</g>
<!-- Node290 -->
<g id="node11" class="node">
<title>Node290</title>
<g id="a_node11"><a xlink:href="namespaceanonymous__namespace_02io__info_8C_03.html#af2fab5f0f368666f9c7a83a18e745130" target="_top" xlink:title="anonymous_namespace\l\{io_info::C\}::id">
<polygon fill="#ffffff" stroke="#000000" points="309.6787,-304.5 309.6787,-332.5 434.6387,-332.5 434.6387,-304.5 309.6787,-304.5"/>
<text text-anchor="start" x="317.6787" y="-320.5" font-family="Helvetica,sans-Serif" font-size="10.00" fill="#000000">anonymous_namespace</text>
<text text-anchor="middle" x="372.1587" y="-310.5" font-family="Helvetica,sans-Serif" font-size="10.00" fill="#000000">{io_info::C}::id</text>
</a>
</g>
</g>
<!-- Node280&#45;&gt;Node290 -->
<g id="edge26" class="edge">
<title>Node280&#45;&gt;Node290</title>
<path fill="none" stroke="#191970" d="M100.9827,-203.5283C116.133,-208.2867 133.161,-213.6297 148.7188,-218.5 204.2416,-235.8811 220.7601,-233.3234 273.6787,-257.5 298.7426,-268.9508 325.1876,-285.6182 344.3555,-298.638"/>
<polygon fill="#191970" stroke="#191970" points="342.3988,-301.54 352.6193,-304.3315 346.3703,-295.7757 342.3988,-301.54"/>
</g>
<!-- Node298 -->
<g id="node19" class="node">
<title>Node298</title>
<g id="a_node19"><a xlink:href="classIoss_1_1Field.html#a8abb33dcfa0630f6422e7541b36694b4" target="_top" xlink:title="Get the basic data type of the data held in the field. ">
<polygon fill="#ffffff" stroke="#000000" points="319.4126,-.5 319.4126,-18.5 424.9048,-18.5 424.9048,-.5 319.4126,-.5"/>
<text text-anchor="middle" x="372.1587" y="-6.5" font-family="Helvetica,sans-Serif" font-size="10.00" fill="#000000">Ioss::Field::get_type</text>
</a>
</g>
</g>
<!-- Node280&#45;&gt;Node298 -->
<g id="edge22" class="edge">
<title>Node280&#45;&gt;Node298</title>
<path fill="none" stroke="#191970" d="M70.149,-175.4135C87.1992,-158.7241 117.7739,-131.0964 148.7188,-114.5 199.9901,-87.002 226.1559,-109.0629 273.6787,-75.5 295.4608,-60.1164 287.7286,-42.6428 309.6787,-27.5 312.2441,-25.7302 314.9829,-24.1328 317.8278,-22.6911"/>
<polygon fill="#191970" stroke="#191970" points="319.4324,-25.8095 327.193,-18.5967 316.6283,-19.3957 319.4324,-25.8095"/>
</g>
<!-- Node299 -->
<g id="node20" class="node">
<title>Node299</title>
<g id="a_node20"><a xlink:href="classIoss_1_1Map.html#a4e757e282fd3350ffaea92ca57080c77" target="_top" xlink:title="Release memory for all maps. ">
<polygon fill="#ffffff" stroke="#000000" points="162.0732,-123.5 162.0732,-151.5 260.3242,-151.5 260.3242,-123.5 162.0732,-123.5"/>
<text text-anchor="start" x="170.0732" y="-139.5" font-family="Helvetica,sans-Serif" font-size="10.00" fill="#000000">Ioss::Map::reverse</text>
<text text-anchor="middle" x="211.1987" y="-129.5" font-family="Helvetica,sans-Serif" font-size="10.00" fill="#000000">_map_data</text>
</a>
</g>
</g>
<!-- Node280&#45;&gt;Node299 -->
<g id="edge23" class="edge">
<title>Node280&#45;&gt;Node299</title>
<path fill="none" stroke="#191970" d="M98.2611,-175.4281C117.1953,-169.0693 139.7482,-161.4954 159.7033,-154.7938"/>
<polygon fill="#191970" stroke="#191970" points="160.8981,-158.0847 169.2635,-151.5832 158.6695,-151.449 160.8981,-158.0847"/>
</g>
<!-- Node300 -->
<g id="node21" class="node">
<title>Node300</title>
<g id="a_node21"><a xlink:href="classIoss_1_1GroupingEntity.html#a50d4053f49c8c3205e05d939fdc9fbc5" target="_top" xlink:title="Get name of entity. ">
<polygon fill="#ffffff" stroke="#000000" points="158.1768,-37.5 158.1768,-65.5 264.2207,-65.5 264.2207,-37.5 158.1768,-37.5"/>
<text text-anchor="start" x="166.1768" y="-53.5" font-family="Helvetica,sans-Serif" font-size="10.00" fill="#000000">Ioss::GroupingEntity</text>
<text text-anchor="middle" x="211.1987" y="-43.5" font-family="Helvetica,sans-Serif" font-size="10.00" fill="#000000">::name</text>
</a>
</g>
</g>
<!-- Node280&#45;&gt;Node300 -->
<g id="edge25" class="edge">
<title>Node280&#45;&gt;Node300</title>
<path fill="none" stroke="#191970" d="M65.3097,-175.4162C80.2419,-152.8513 112.2228,-108.3138 148.7188,-80.5 153.7122,-76.6944 159.2853,-73.2301 164.9903,-70.1271"/>
<polygon fill="#191970" stroke="#191970" points="166.6686,-73.2003 173.9995,-65.5512 163.4986,-66.9592 166.6686,-73.2003"/>
</g>
<!-- Node284 -->
<g id="node5" class="node">
<title>Node284</title>
<g id="a_node5"><a xlink:href="classIoss_1_1GroupingEntity.html#aef4ddf9b47f28f0fb54a2aa1d352e234" target="_top" xlink:title="Checks if a property exists in the entity&#39;s property manager. ">
<polygon fill="#ffffff" stroke="#000000" points="487.3159,-338.5 487.3159,-366.5 593.3599,-366.5 593.3599,-338.5 487.3159,-338.5"/>
<text text-anchor="start" x="495.3159" y="-354.5" font-family="Helvetica,sans-Serif" font-size="10.00" fill="#000000">Ioss::GroupingEntity</text>
<text text-anchor="middle" x="540.3379" y="-344.5" font-family="Helvetica,sans-Serif" font-size="10.00" fill="#000000">::property_exists</text>
</a>
</g>
</g>
<!-- Node283&#45;&gt;Node284 -->
<g id="edge4" class="edge">
<title>Node283&#45;&gt;Node284</title>
<path fill="none" stroke="#191970" d="M232.028,-208.516C245.2305,-221.3852 261.9651,-239.3002 273.6787,-257.5 295.8824,-291.9986 275.9753,-319.1068 309.6787,-342.5 358.1978,-376.1767 427.2794,-374.399 477.1787,-366.8238"/>
<polygon fill="#191970" stroke="#191970" points="477.9011,-370.2523 487.2058,-365.1853 476.7722,-363.3439 477.9011,-370.2523"/>
</g>
<!-- Node285 -->
<g id="node6" class="node">
<title>Node285</title>
<g id="a_node6"><a xlink:href="classIoss_1_1GroupingEntity.html#a3e8284b8cafbbe1646625124f68a2652" target="_top" xlink:title="Get the Property from the property manager associated with the entity. ">
<polygon fill="#ffffff" stroke="#000000" points="487.3159,-282.5 487.3159,-310.5 593.3599,-310.5 593.3599,-282.5 487.3159,-282.5"/>
<text text-anchor="start" x="495.3159" y="-298.5" font-family="Helvetica,sans-Serif" font-size="10.00" fill="#000000">Ioss::GroupingEntity</text>
<text text-anchor="middle" x="540.3379" y="-288.5" font-family="Helvetica,sans-Serif" font-size="10.00" fill="#000000">::get_property</text>
</a>
</g>
</g>
<!-- Node283&#45;&gt;Node285 -->
<g id="edge5" class="edge">
<title>Node283&#45;&gt;Node285</title>
<path fill="none" stroke="#191970" d="M246.776,-208.6369C269.6296,-220.7193 297.2779,-234.8884 309.6787,-239.5 364.7889,-259.9944 430.0389,-275.3378 477.0514,-284.9125"/>
<polygon fill="#191970" stroke="#191970" points="476.6012,-288.3918 487.0942,-286.9267 477.9778,-281.5285 476.6012,-288.3918"/>
</g>
<!-- Node286 -->
<g id="node7" class="node">
<title>Node286</title>
<g id="a_node7"><a xlink:href="classIoss_1_1Property.html#a45bcbc7137a296f3eda52c92c04da39f" target="_top" xlink:title="Get the property value if it is of type INTEGER. ">
<polygon fill="#ffffff" stroke="#000000" points="483.7026,-228.5 483.7026,-246.5 596.9731,-246.5 596.9731,-228.5 483.7026,-228.5"/>
<text text-anchor="middle" x="540.3379" y="-234.5" font-family="Helvetica,sans-Serif" font-size="10.00" fill="#000000">Ioss::Property::get_int</text>
</a>
</g>
</g>
<!-- Node283&#45;&gt;Node286 -->
<g id="edge6" class="edge">
<title>Node283&#45;&gt;Node286</title>
<path fill="none" stroke="#191970" d="M268.5219,-208.5189C281.9024,-212.3596 296.1873,-215.9852 309.6787,-218.5 364.2122,-228.665 427.0106,-233.3921 473.2993,-235.5901"/>
<polygon fill="#191970" stroke="#191970" points="473.3613,-239.0963 483.5078,-236.0467 473.6742,-232.1033 473.3613,-239.0963"/>
</g>
<!-- Node283&#45;&gt;Node290 -->
<g id="edge10" class="edge">
<title>Node283&#45;&gt;Node290</title>
<path fill="none" stroke="#191970" d="M254.1569,-208.5633C261.1769,-212.8426 267.9999,-217.8268 273.6787,-223.5 297.3171,-247.1151 285.2991,-266.6509 309.6787,-289.5 313.6597,-293.2311 318.2063,-296.5534 322.9904,-299.4941"/>
<polygon fill="#191970" stroke="#191970" points="321.346,-302.5844 331.7874,-304.3811 324.7455,-296.4652 321.346,-302.5844"/>
</g>
<!-- Node291 -->
<g id="node12" class="node">
<title>Node291</title>
<g id="a_node12"><a xlink:href="classIoss_1_1Property.html#a3c4f1409008f9dcdd35170b702cd29e3" target="_top" xlink:title="Get the property value if it is of type STRING. ">
<polygon fill="#ffffff" stroke="#000000" points="491.7642,-130.5 491.7642,-158.5 588.9116,-158.5 588.9116,-130.5 491.7642,-130.5"/>
<text text-anchor="start" x="499.7642" y="-146.5" font-family="Helvetica,sans-Serif" font-size="10.00" fill="#000000">Ioss::Property::get</text>
<text text-anchor="middle" x="540.3379" y="-136.5" font-family="Helvetica,sans-Serif" font-size="10.00" fill="#000000">_string</text>
</a>
</g>
</g>
<!-- Node283&#45;&gt;Node291 -->
<g id="edge14" class="edge">
<title>Node283&#45;&gt;Node291</title>
<path fill="none" stroke="#191970" d="M270.8978,-170.4292C283.5889,-166.9675 296.9894,-163.7474 309.6787,-161.5 367.3892,-151.279 434.2745,-147.1868 481.1117,-145.5573"/>
<polygon fill="#191970" stroke="#191970" points="481.4992,-149.0468 491.382,-145.2283 481.275,-142.0504 481.4992,-149.0468"/>
</g>
<!-- Node292 -->
<g id="node13" class="node">
<title>Node292</title>
<g id="a_node13"><a xlink:href="namespaceanonymous__namespace_02Iovs__DatabaseIO_8C_03.html#aa430ca5d07cd6693aa40e8a3f46064dd" target="_top" xlink:title="anonymous_namespace\l\{Iovs_DatabaseIO::C\}\l::extract_id">
<polygon fill="#ffffff" stroke="#000000" points="309.6787,-170.5 309.6787,-208.5 434.6387,-208.5 434.6387,-170.5 309.6787,-170.5"/>
<text text-anchor="start" x="317.6787" y="-196.5" font-family="Helvetica,sans-Serif" font-size="10.00" fill="#000000">anonymous_namespace</text>
<text text-anchor="start" x="317.6787" y="-186.5" font-family="Helvetica,sans-Serif" font-size="10.00" fill="#000000">{Iovs_DatabaseIO::C}</text>
<text text-anchor="middle" x="372.1587" y="-176.5" font-family="Helvetica,sans-Serif" font-size="10.00" fill="#000000">::extract_id</text>
</a>
</g>
</g>
<!-- Node283&#45;&gt;Node292 -->
<g id="edge16" class="edge">
<title>Node283&#45;&gt;Node292</title>
<path fill="none" stroke="#191970" d="M273.891,-189.5C282.3291,-189.5 291.0419,-189.5 299.6327,-189.5"/>
<polygon fill="#191970" stroke="#191970" points="299.6376,-193.0001 309.6376,-189.5 299.6375,-186.0001 299.6376,-193.0001"/>
</g>
<!-- Node294 -->
<g id="node15" class="node">
<title>Node294</title>
<g id="a_node15"><a xlink:href="classIoss_1_1GroupingEntity.html#a878ad30d29d9565bfcb108d60797ebdc" target="_top" xlink:title="Get the EntityType, which indicates the particular type of GroupingEntity this is. ">
<polygon fill="#ffffff" stroke="#000000" points="319.1367,-84.5 319.1367,-112.5 425.1807,-112.5 425.1807,-84.5 319.1367,-84.5"/>
<text text-anchor="start" x="327.1367" y="-100.5" font-family="Helvetica,sans-Serif" font-size="10.00" fill="#000000">Ioss::GroupingEntity</text>
<text text-anchor="middle" x="372.1587" y="-90.5" font-family="Helvetica,sans-Serif" font-size="10.00" fill="#000000">::type</text>
</a>
</g>
</g>
<!-- Node283&#45;&gt;Node294 -->
<g id="edge18" class="edge">
<title>Node283&#45;&gt;Node294</title>
<path fill="none" stroke="#191970" d="M258.5175,-170.362C263.7732,-167.6356 268.9348,-164.67 273.6787,-161.5 291.9773,-149.2727 291.4615,-139.8483 309.6787,-127.5 315.2654,-123.7131 321.4255,-120.1865 327.6346,-116.9894"/>
<polygon fill="#191970" stroke="#191970" points="329.2628,-120.0893 336.7057,-112.5492 326.1852,-113.8021 329.2628,-120.0893"/>
</g>
<!-- Node295 -->
<g id="node16" class="node">
<title>Node295</title>
<g id="a_node16"><a xlink:href="classIoss_1_1GroupingEntity.html#ab472accb6574a89fd058c9c6a0342927" target="_top" xlink:title="Add a property to the entity&#39;s property manager. ">
<polygon fill="#ffffff" stroke="#000000" points="319.1367,-37.5 319.1367,-65.5 425.1807,-65.5 425.1807,-37.5 319.1367,-37.5"/>
<text text-anchor="start" x="327.1367" y="-53.5" font-family="Helvetica,sans-Serif" font-size="10.00" fill="#000000">Ioss::GroupingEntity</text>
<text text-anchor="middle" x="372.1587" y="-43.5" font-family="Helvetica,sans-Serif" font-size="10.00" fill="#000000">::property_add</text>
</a>
</g>
</g>
<!-- Node283&#45;&gt;Node295 -->
<g id="edge19" class="edge">
<title>Node283&#45;&gt;Node295</title>
<path fill="none" stroke="#191970" d="M262.7928,-170.4048C266.7409,-167.7757 270.4417,-164.8185 273.6787,-161.5 302.6118,-131.8383 279.9473,-104.3614 309.6787,-75.5 311.3046,-73.9217 313.0452,-72.4447 314.8738,-71.0625"/>
<polygon fill="#191970" stroke="#191970" points="316.8579,-73.9478 323.3707,-65.5911 313.0681,-68.0624 316.8579,-73.9478"/>
</g>
<!-- Node287 -->
<g id="node8" class="node">
<title>Node287</title>
<g id="a_node8"><a xlink:href="namespaceanonymous__namespace_02Ioss__Property_8C_03.html#a7e9f404cf974920b115b502313608c02" target="_top" xlink:title="anonymous_namespace\l\{Ioss_Property::C\}::\lerror_message">
<polygon fill="#ffffff" stroke="#000000" points="647.4189,-173.5 647.4189,-211.5 772.3789,-211.5 772.3789,-173.5 647.4189,-173.5"/>
<text text-anchor="start" x="655.4189" y="-199.5" font-family="Helvetica,sans-Serif" font-size="10.00" fill="#000000">anonymous_namespace</text>
<text text-anchor="start" x="655.4189" y="-189.5" font-family="Helvetica,sans-Serif" font-size="10.00" fill="#000000">{Ioss_Property::C}::</text>
<text text-anchor="middle" x="709.8989" y="-179.5" font-family="Helvetica,sans-Serif" font-size="10.00" fill="#000000">error_message</text>
</a>
</g>
</g>
<!-- Node286&#45;&gt;Node287 -->
<g id="edge7" class="edge">
<title>Node286&#45;&gt;Node287</title>
<path fill="none" stroke="#191970" d="M574.6511,-228.3936C592.6934,-223.6053 615.5301,-217.5446 637.277,-211.7732"/>
<polygon fill="#191970" stroke="#191970" points="638.4033,-215.0955 647.1709,-209.1475 636.6077,-208.3297 638.4033,-215.0955"/>
</g>
<!-- Node288 -->
<g id="node9" class="node">
<title>Node288</title>
<g id="a_node9"><a xlink:href="namespaceanonymous__namespace_02Ioss__Property_8C_03.html#a33c896c06915d8a83ca1d8886b26d8ed" target="_top" xlink:title="anonymous_namespace\l\{Ioss_Property::C\}::\ltype_string">
<polygon fill="#ffffff" stroke="#000000" points="809.7607,-196.5 809.7607,-234.5 934.7207,-234.5 934.7207,-196.5 809.7607,-196.5"/>
<text text-anchor="start" x="817.7607" y="-222.5" font-family="Helvetica,sans-Serif" font-size="10.00" fill="#000000">anonymous_namespace</text>
<text text-anchor="start" x="817.7607" y="-212.5" font-family="Helvetica,sans-Serif" font-size="10.00" fill="#000000">{Ioss_Property::C}::</text>
<text text-anchor="middle" x="872.2407" y="-202.5" font-family="Helvetica,sans-Serif" font-size="10.00" fill="#000000">type_string</text>
</a>
</g>
</g>
<!-- Node287&#45;&gt;Node288 -->
<g id="edge8" class="edge">
<title>Node287&#45;&gt;Node288</title>
<path fill="none" stroke="#191970" d="M772.6645,-201.3924C781.481,-202.6415 790.6033,-203.9339 799.585,-205.2064"/>
<polygon fill="#191970" stroke="#191970" points="799.2499,-208.6938 809.6421,-206.6312 800.2319,-201.763 799.2499,-208.6938"/>
</g>
<!-- Node289 -->
<g id="node10" class="node">
<title>Node289</title>
<g id="a_node10"><a xlink:href="classIoss_1_1Property.html#a90c992cd11af736282e63e1c34b1c076" target="_top" xlink:title="Get the property type. ">
<polygon fill="#ffffff" stroke="#000000" points="811.4355,-159.5 811.4355,-177.5 933.0459,-177.5 933.0459,-159.5 811.4355,-159.5"/>
<text text-anchor="middle" x="872.2407" y="-165.5" font-family="Helvetica,sans-Serif" font-size="10.00" fill="#000000">Ioss::Property::get_type</text>
</a>
</g>
</g>
<!-- Node287&#45;&gt;Node289 -->
<g id="edge9" class="edge">
<title>Node287&#45;&gt;Node289</title>
<path fill="none" stroke="#191970" d="M772.6645,-183.221C781.9689,-181.8454 791.614,-180.4196 801.0749,-179.0209"/>
<polygon fill="#191970" stroke="#191970" points="801.8633,-182.4425 811.2439,-177.5175 800.8395,-175.5177 801.8633,-182.4425"/>
</g>
<!-- Node290&#45;&gt;Node284 -->
<g id="edge11" class="edge">
<title>Node290&#45;&gt;Node284</title>
<path fill="none" stroke="#191970" d="M434.7824,-331.1603C448.6851,-333.971 463.4268,-336.9513 477.3443,-339.7649"/>
<polygon fill="#191970" stroke="#191970" points="476.8136,-343.2283 487.3089,-341.7794 478.2008,-336.3671 476.8136,-343.2283"/>
</g>
<!-- Node290&#45;&gt;Node285 -->
<g id="edge12" class="edge">
<title>Node290&#45;&gt;Node285</title>
<path fill="none" stroke="#191970" d="M434.7824,-310.308C448.6851,-308.4894 463.4268,-306.561 477.3443,-304.7404"/>
<polygon fill="#191970" stroke="#191970" points="477.8474,-308.2045 487.3089,-303.4369 476.9394,-301.2636 477.8474,-308.2045"/>
</g>
<!-- Node290&#45;&gt;Node286 -->
<g id="edge13" class="edge">
<title>Node290&#45;&gt;Node286</title>
<path fill="none" stroke="#191970" d="M401.4533,-304.3909C432.5339,-289.4215 481.3041,-265.9324 512.0113,-251.1429"/>
<polygon fill="#191970" stroke="#191970" points="513.8104,-254.1612 521.3012,-246.6686 510.7729,-247.8546 513.8104,-254.1612"/>
</g>
<!-- Node291&#45;&gt;Node287 -->
<g id="edge15" class="edge">
<title>Node291&#45;&gt;Node287</title>
<path fill="none" stroke="#191970" d="M588.9273,-158.2549C604.001,-162.522 620.9537,-167.321 637.2907,-171.9458"/>
<polygon fill="#191970" stroke="#191970" points="636.7856,-175.4403 647.3609,-174.7965 638.6923,-168.7049 636.7856,-175.4403"/>
</g>
<!-- Node293 -->
<g id="node14" class="node">
<title>Node293</title>
<g id="a_node14"><a xlink:href="namespaceIoss.html#a841de519059ab3e29b12ff99fee464db" target="_top" xlink:title="Ioss::tokenize">
<polygon fill="#ffffff" stroke="#000000" points="501.7666,-180.5 501.7666,-198.5 578.9092,-198.5 578.9092,-180.5 501.7666,-180.5"/>
<text text-anchor="middle" x="540.3379" y="-186.5" font-family="Helvetica,sans-Serif" font-size="10.00" fill="#000000">Ioss::tokenize</text>
</a>
</g>
</g>
<!-- Node292&#45;&gt;Node293 -->
<g id="edge17" class="edge">
<title>Node292&#45;&gt;Node293</title>
<path fill="none" stroke="#191970" d="M434.7824,-189.5C453.5188,-189.5 473.779,-189.5 491.4919,-189.5"/>
<polygon fill="#191970" stroke="#191970" points="491.5959,-193.0001 501.5958,-189.5 491.5958,-186.0001 491.5959,-193.0001"/>
</g>
<!-- Node296 -->
<g id="node17" class="node">
<title>Node296</title>
<g id="a_node17"><a xlink:href="classIoss_1_1PropertyManager.html#a8d6d5a27856b4618b56d542208ad86e2" target="_top" xlink:title="Add a property to the property manager. ">
<polygon fill="#ffffff" stroke="#000000" points="470.6387,-42.5 470.6387,-60.5 610.0371,-60.5 610.0371,-42.5 470.6387,-42.5"/>
<text text-anchor="middle" x="540.3379" y="-48.5" font-family="Helvetica,sans-Serif" font-size="10.00" fill="#000000">Ioss::PropertyManager::add</text>
</a>
</g>
</g>
<!-- Node295&#45;&gt;Node296 -->
<g id="edge20" class="edge">
<title>Node295&#45;&gt;Node296</title>
<path fill="none" stroke="#191970" d="M425.3716,-51.5C436.4617,-51.5 448.3839,-51.5 460.2017,-51.5"/>
<polygon fill="#191970" stroke="#191970" points="460.5367,-55.0001 470.5366,-51.5 460.5366,-48.0001 460.5367,-55.0001"/>
</g>
<!-- Node297 -->
<g id="node18" class="node">
<title>Node297</title>
<g id="a_node18"><a xlink:href="classIoss_1_1Property.html#a33f2d36f732d7504f12116b285c2ccb2" target="_top" xlink:title="Get the property name. ">
<polygon fill="#ffffff" stroke="#000000" points="646.0371,-42.5 646.0371,-60.5 773.7607,-60.5 773.7607,-42.5 646.0371,-42.5"/>
<text text-anchor="middle" x="709.8989" y="-48.5" font-family="Helvetica,sans-Serif" font-size="10.00" fill="#000000">Ioss::Property::get_name</text>
</a>
</g>
</g>
<!-- Node296&#45;&gt;Node297 -->
<g id="edge21" class="edge">
<title>Node296&#45;&gt;Node297</title>
<path fill="none" stroke="#191970" d="M610.2838,-51.5C618.6502,-51.5 627.2155,-51.5 635.64,-51.5"/>
<polygon fill="#191970" stroke="#191970" points="635.8235,-55.0001 645.8235,-51.5 635.8235,-48.0001 635.8235,-55.0001"/>
</g>
<!-- Node299&#45;&gt;Node298 -->
<g id="edge24" class="edge">
<title>Node299&#45;&gt;Node298</title>
<path fill="none" stroke="#191970" d="M252.5977,-123.4373C260.2665,-119.4786 267.7241,-114.5526 273.6787,-108.5 301.3071,-80.4167 279.9712,-53.3739 309.6787,-27.5 311.4078,-25.994 313.2558,-24.6137 315.1931,-23.3486"/>
<polygon fill="#191970" stroke="#191970" points="317.0272,-26.336 324.1659,-18.5073 313.7033,-20.1756 317.0272,-26.336"/>
</g>
</g>
</svg>
