<?xml version="1.0" encoding="UTF-8" standalone="no"?>
<!DOCTYPE svg PUBLIC "-//W3C//DTD SVG 1.1//EN"
 "http://www.w3.org/Graphics/SVG/1.1/DTD/svg11.dtd">
<!-- Generated by graphviz version 2.40.1 (20161225.0304)
 -->
<!-- Title: Ioss::StructuredBlock Pages: 1 -->
<svg width="118pt" height="137pt"
 viewBox="0.00 0.00 118.48 137.00" xmlns="http://www.w3.org/2000/svg" xmlns:xlink="http://www.w3.org/1999/xlink">
<g id="graph0" class="graph" transform="scale(1 1) rotate(0) translate(4 133)">
<title>Ioss::StructuredBlock</title>
<polygon fill="#ffffff" stroke="transparent" points="-4,4 -4,-133 114.4824,-133 114.4824,4 -4,4"/>
<!-- Node0 -->
<g id="node1" class="node">
<title>Node0</title>
<g id="a_node1"><a xlink:title="A structured zone – i,j,k.">
<polygon fill="#bfbfbf" stroke="#000000" points="0,-.5 0,-18.5 110.4824,-18.5 110.4824,-.5 0,-.5"/>
<text text-anchor="middle" x="55.2412" y="-6.5" font-family="Helvetica,sans-Serif" font-size="10.00" fill="#000000">Ioss::StructuredBlock</text>
</a>
</g>
</g>
<!-- Node1 -->
<g id="node2" class="node">
<title>Node1</title>
<g id="a_node2"><a xlink:href="classIoss_1_1EntityBlock.html" target="_top" xlink:title="Base class for all &#39;block&#39;&#45;type grouping entities, which means all members of the block are similar o...">
<polygon fill="#ffffff" stroke="#000000" points="10.5615,-55.5 10.5615,-73.5 99.9209,-73.5 99.9209,-55.5 10.5615,-55.5"/>
<text text-anchor="middle" x="55.2412" y="-61.5" font-family="Helvetica,sans-Serif" font-size="10.00" fill="#000000">Ioss::EntityBlock</text>
</a>
</g>
</g>
<!-- Node1&#45;&gt;Node0 -->
<g id="edge1" class="edge">
<title>Node1&#45;&gt;Node0</title>
<path fill="none" stroke="#191970" d="M55.2412,-45.383C55.2412,-36.3738 55.2412,-26.0373 55.2412,-18.7795"/>
<polygon fill="#191970" stroke="#191970" points="51.7413,-45.4178 55.2412,-55.4179 58.7413,-45.4179 51.7413,-45.4178"/>
</g>
<!-- Node2 -->
<g id="node3" class="node">
<title>Node2</title>
<g id="a_node3"><a xlink:href="classIoss_1_1GroupingEntity.html" target="_top" xlink:title="Base class for all &#39;grouping&#39; entities. The following derived classes are typical:">
<polygon fill="#ffffff" stroke="#000000" points="2.2192,-110.5 2.2192,-128.5 108.2632,-128.5 108.2632,-110.5 2.2192,-110.5"/>
<text text-anchor="middle" x="55.2412" y="-116.5" font-family="Helvetica,sans-Serif" font-size="10.00" fill="#000000">Ioss::GroupingEntity</text>
</a>
</g>
</g>
<!-- Node2&#45;&gt;Node1 -->
<g id="edge2" class="edge">
<title>Node2&#45;&gt;Node1</title>
<path fill="none" stroke="#191970" d="M55.2412,-100.383C55.2412,-91.3738 55.2412,-81.0373 55.2412,-73.7795"/>
<polygon fill="#191970" stroke="#191970" points="51.7413,-100.4178 55.2412,-110.4179 58.7413,-100.4179 51.7413,-100.4178"/>
</g>
</g>
</svg>
