<?xml version="1.0" encoding="UTF-8" standalone="no"?>
<!DOCTYPE svg PUBLIC "-//W3C//DTD SVG 1.1//EN"
 "http://www.w3.org/Graphics/SVG/1.1/DTD/svg11.dtd">
<!-- Generated by graphviz version 2.40.1 (20161225.0304)
 -->
<!-- Title: Iohb::Layout::add Pages: 1 -->
<svg width="404pt" height="84pt"
 viewBox="0.00 0.00 404.29 84.00" xmlns="http://www.w3.org/2000/svg" xmlns:xlink="http://www.w3.org/1999/xlink">
<g id="graph0" class="graph" transform="scale(1 1) rotate(0) translate(4 80)">
<title>Iohb::Layout::add</title>
<polygon fill="#ffffff" stroke="transparent" points="-4,4 -4,-80 400.2891,-80 400.2891,4 -4,4"/>
<!-- Node19 -->
<g id="node1" class="node">
<title>Node19</title>
<polygon fill="#bfbfbf" stroke="#000000" points="0,-28.5 0,-46.5 93.2852,-46.5 93.2852,-28.5 0,-28.5"/>
<text text-anchor="middle" x="46.6426" y="-34.5" font-family="Helvetica,sans-Serif" font-size="10.00" fill="#000000">Iohb::Layout::add</text>
</g>
<!-- Node20 -->
<g id="node2" class="node">
<title>Node20</title>
<g id="a_node2"><a xlink:href="$namespaceanonymous__namespace_02io__info_8C_03.html#ac76aa36231a3291b803cc8e620fce319" xlink:title="anonymous_namespace\l\{io_info::C\}::name">
<polygon fill="#ffffff" stroke="#000000" points="129.2852,-23.5 129.2852,-51.5 254.2451,-51.5 254.2451,-23.5 129.2852,-23.5"/>
<text text-anchor="start" x="137.2852" y="-39.5" font-family="Helvetica,sans-Serif" font-size="10.00" fill="#000000">anonymous_namespace</text>
<text text-anchor="middle" x="191.7651" y="-29.5" font-family="Helvetica,sans-Serif" font-size="10.00" fill="#000000">{io_info::C}::name</text>
</a>
</g>
</g>
<!-- Node19&#45;&gt;Node20 -->
<g id="edge1" class="edge">
<title>Node19&#45;&gt;Node20</title>
<path fill="none" stroke="#191970" d="M93.3591,-37.5C101.5777,-37.5 110.3051,-37.5 119.0358,-37.5"/>
<polygon fill="#191970" stroke="#191970" points="119.2561,-41.0001 129.2561,-37.5 119.256,-34.0001 119.2561,-41.0001"/>
</g>
<!-- Node21 -->
<g id="node3" class="node">
<title>Node21</title>
<g id="a_node3"><a xlink:href="$classIoss_1_1GroupingEntity.html#adf92c4256dc89b729f4492642bc4d745" xlink:title="Get the name of the particular type of entity. ">
<polygon fill="#ffffff" stroke="#000000" points="290.2451,-47.5 290.2451,-75.5 396.2891,-75.5 396.2891,-47.5 290.2451,-47.5"/>
<text text-anchor="start" x="298.2451" y="-63.5" font-family="Helvetica,sans-Serif" font-size="10.00" fill="#000000">Ioss::GroupingEntity</text>
<text text-anchor="middle" x="343.2671" y="-53.5" font-family="Helvetica,sans-Serif" font-size="10.00" fill="#000000">::type_string</text>
</a>
</g>
</g>
<!-- Node20&#45;&gt;Node21 -->
<g id="edge2" class="edge">
<title>Node20&#45;&gt;Node21</title>
<path fill="none" stroke="#191970" d="M254.2615,-47.4003C262.8149,-48.7553 271.601,-50.1471 280.1651,-51.5038"/>
<polygon fill="#191970" stroke="#191970" points="279.665,-54.9681 290.0895,-53.0759 280.7603,-48.0543 279.665,-54.9681"/>
</g>
<!-- Node22 -->
<g id="node4" class="node">
<title>Node22</title>
<g id="a_node4"><a xlink:href="$classIoss_1_1GroupingEntity.html#a50d4053f49c8c3205e05d939fdc9fbc5" xlink:title="Get name of entity. ">
<polygon fill="#ffffff" stroke="#000000" points="290.2451,-.5 290.2451,-28.5 396.2891,-28.5 396.2891,-.5 290.2451,-.5"/>
<text text-anchor="start" x="298.2451" y="-16.5" font-family="Helvetica,sans-Serif" font-size="10.00" fill="#000000">Ioss::GroupingEntity</text>
<text text-anchor="middle" x="343.2671" y="-6.5" font-family="Helvetica,sans-Serif" font-size="10.00" fill="#000000">::name</text>
</a>
</g>
</g>
<!-- Node20&#45;&gt;Node22 -->
<g id="edge3" class="edge">
<title>Node20&#45;&gt;Node22</title>
<path fill="none" stroke="#191970" d="M254.2615,-28.0122C262.8149,-26.7137 271.601,-25.3799 280.1651,-24.0797"/>
<polygon fill="#191970" stroke="#191970" points="280.7281,-27.5344 290.0895,-22.5731 279.6774,-20.6137 280.7281,-27.5344"/>
</g>
</g>
</svg>
