<?xml version="1.0" encoding="UTF-8" standalone="no"?>
<!DOCTYPE svg PUBLIC "-//W3C//DTD SVG 1.1//EN"
 "http://www.w3.org/Graphics/SVG/1.1/DTD/svg11.dtd">
<!-- Generated by graphviz version 2.40.1 (20161225.0304)
 -->
<!-- Title: Iogn::GeneratedMesh::topology_type Pages: 1 -->
<svg width="273pt" height="84pt"
 viewBox="0.00 0.00 273.34 84.00" xmlns="http://www.w3.org/2000/svg" xmlns:xlink="http://www.w3.org/1999/xlink">
<g id="graph0" class="graph" transform="scale(1 1) rotate(0) translate(4 80)">
<title>Iogn::GeneratedMesh::topology_type</title>
<polygon fill="#ffffff" stroke="transparent" points="-4,4 -4,-80 269.3389,-80 269.3389,4 -4,4"/>
<!-- Node344 -->
<g id="node1" class="node">
<title>Node344</title>
<polygon fill="#bfbfbf" stroke="#000000" points="0,-23.5 0,-51.5 112.7285,-51.5 112.7285,-23.5 0,-23.5"/>
<text text-anchor="start" x="8" y="-39.5" font-family="Helvetica,sans-Serif" font-size="10.00" fill="#000000">Iogn::GeneratedMesh</text>
<text text-anchor="middle" x="56.3643" y="-29.5" font-family="Helvetica,sans-Serif" font-size="10.00" fill="#000000">::topology_type</text>
</g>
<!-- Node345 -->
<g id="node2" class="node">
<title>Node345</title>
<g id="a_node2"><a xlink:href="$classIogn_1_1GeneratedMesh.html#a80b39683b24235fcc06f1b8e1df04e4a" xlink:title="Iogn::GeneratedMesh\l::block_count">
<polygon fill="#ffffff" stroke="#000000" points="150.6694,-47.5 150.6694,-75.5 263.3979,-75.5 263.3979,-47.5 150.6694,-47.5"/>
<text text-anchor="start" x="158.6694" y="-63.5" font-family="Helvetica,sans-Serif" font-size="10.00" fill="#000000">Iogn::GeneratedMesh</text>
<text text-anchor="middle" x="207.0337" y="-53.5" font-family="Helvetica,sans-Serif" font-size="10.00" fill="#000000">::block_count</text>
</a>
</g>
</g>
<!-- Node344&#45;&gt;Node345 -->
<g id="edge1" class="edge">
<title>Node344&#45;&gt;Node345</title>
<path fill="none" stroke="#191970" d="M112.8967,-46.505C121.911,-47.9409 131.309,-49.4379 140.5281,-50.9064"/>
<polygon fill="#191970" stroke="#191970" points="140.009,-54.3677 150.4351,-52.4845 141.1102,-47.4549 140.009,-54.3677"/>
</g>
<!-- Node346 -->
<g id="node3" class="node">
<title>Node346</title>
<g id="a_node3"><a xlink:href="$classIoss_1_1ElementTopology.html#a65981470136fcfc0e884c7332a3ed2f5" xlink:title="Ioss::ElementTopology\l::name">
<polygon fill="#ffffff" stroke="#000000" points="148.7285,-.5 148.7285,-28.5 265.3389,-28.5 265.3389,-.5 148.7285,-.5"/>
<text text-anchor="start" x="156.7285" y="-16.5" font-family="Helvetica,sans-Serif" font-size="10.00" fill="#000000">Ioss::ElementTopology</text>
<text text-anchor="middle" x="207.0337" y="-6.5" font-family="Helvetica,sans-Serif" font-size="10.00" fill="#000000">::name</text>
</a>
</g>
</g>
<!-- Node344&#45;&gt;Node346 -->
<g id="edge2" class="edge">
<title>Node344&#45;&gt;Node346</title>
<path fill="none" stroke="#191970" d="M112.8967,-28.8702C121.2991,-27.5876 130.0348,-26.254 138.6484,-24.9392"/>
<polygon fill="#191970" stroke="#191970" points="139.3192,-28.3774 148.6765,-23.4083 138.2628,-21.4575 139.3192,-28.3774"/>
</g>
</g>
</svg>
