<?xml version="1.0" encoding="UTF-8" standalone="no"?>
<!DOCTYPE svg PUBLIC "-//W3C//DTD SVG 1.1//EN"
 "http://www.w3.org/Graphics/SVG/1.1/DTD/svg11.dtd">
<!-- Generated by graphviz version 2.40.1 (20161225.0304)
 -->
<!-- Title: Ioex::DatabaseIO::get_file_pointer Pages: 1 -->
<svg width="287pt" height="131pt"
 viewBox="0.00 0.00 286.69 131.00" xmlns="http://www.w3.org/2000/svg" xmlns:xlink="http://www.w3.org/1999/xlink">
<g id="graph0" class="graph" transform="scale(1 1) rotate(0) translate(4 127)">
<title>Ioex::DatabaseIO::get_file_pointer</title>
<polygon fill="#ffffff" stroke="transparent" points="-4,4 -4,-127 282.6885,-127 282.6885,4 -4,4"/>
<!-- Node672 -->
<g id="node1" class="node">
<title>Node672</title>
<polygon fill="#bfbfbf" stroke="#000000" points="0,-47.5 0,-75.5 113.2803,-75.5 113.2803,-47.5 0,-47.5"/>
<text text-anchor="start" x="8" y="-63.5" font-family="Helvetica,sans-Serif" font-size="10.00" fill="#000000">Ioex::DatabaseIO::get</text>
<text text-anchor="middle" x="56.6401" y="-53.5" font-family="Helvetica,sans-Serif" font-size="10.00" fill="#000000">_file_pointer</text>
</g>
<!-- Node673 -->
<g id="node2" class="node">
<title>Node673</title>
<g id="a_node2"><a xlink:href="$classIoss_1_1DatabaseIO.html#afaf8598b13b44b8f262b3eec8398cb06" xlink:title="Determine whether the database is an input database. ">
<polygon fill="#ffffff" stroke="#000000" points="160.9648,-94.5 160.9648,-122.5 267.0039,-122.5 267.0039,-94.5 160.9648,-94.5"/>
<text text-anchor="start" x="168.9648" y="-110.5" font-family="Helvetica,sans-Serif" font-size="10.00" fill="#000000">Ioss::DatabaseIO::is</text>
<text text-anchor="middle" x="213.9844" y="-100.5" font-family="Helvetica,sans-Serif" font-size="10.00" fill="#000000">_input</text>
</a>
</g>
</g>
<!-- Node672&#45;&gt;Node673 -->
<g id="edge1" class="edge">
<title>Node672&#45;&gt;Node673</title>
<path fill="none" stroke="#191970" d="M103.8486,-75.6015C120.5716,-80.5969 139.5656,-86.2705 157.0144,-91.4826"/>
<polygon fill="#191970" stroke="#191970" points="156.4971,-94.9808 167.0805,-94.4894 158.5006,-88.2737 156.4971,-94.9808"/>
</g>
<!-- Node674 -->
<g id="node3" class="node">
<title>Node674</title>
<g id="a_node3"><a xlink:href="$classIoex_1_1DatabaseIO.html#a74597cacb5f8b3aa935cc91fd05adf81" xlink:title="Ioex::DatabaseIO::open\l_input_file">
<polygon fill="#ffffff" stroke="#000000" points="153.1719,-47.5 153.1719,-75.5 274.7969,-75.5 274.7969,-47.5 153.1719,-47.5"/>
<text text-anchor="start" x="161.1719" y="-63.5" font-family="Helvetica,sans-Serif" font-size="10.00" fill="#000000">Ioex::DatabaseIO::open</text>
<text text-anchor="middle" x="213.9844" y="-53.5" font-family="Helvetica,sans-Serif" font-size="10.00" fill="#000000">_input_file</text>
</a>
</g>
</g>
<!-- Node672&#45;&gt;Node674 -->
<g id="edge2" class="edge">
<title>Node672&#45;&gt;Node674</title>
<path fill="none" stroke="#191970" d="M113.445,-61.5C122.9835,-61.5 132.9878,-61.5 142.8335,-61.5"/>
<polygon fill="#191970" stroke="#191970" points="143.0103,-65.0001 153.0102,-61.5 143.0102,-58.0001 143.0103,-65.0001"/>
</g>
<!-- Node675 -->
<g id="node4" class="node">
<title>Node675</title>
<g id="a_node4"><a xlink:href="$classIoex_1_1DatabaseIO.html#a184b2da08689814c05d2692855a7365d" xlink:title="Ioex::DatabaseIO::handle\l_output_file">
<polygon fill="#ffffff" stroke="#000000" points="149.2803,-.5 149.2803,-28.5 278.6885,-28.5 278.6885,-.5 149.2803,-.5"/>
<text text-anchor="start" x="157.2803" y="-16.5" font-family="Helvetica,sans-Serif" font-size="10.00" fill="#000000">Ioex::DatabaseIO::handle</text>
<text text-anchor="middle" x="213.9844" y="-6.5" font-family="Helvetica,sans-Serif" font-size="10.00" fill="#000000">_output_file</text>
</a>
</g>
</g>
<!-- Node672&#45;&gt;Node675 -->
<g id="edge3" class="edge">
<title>Node672&#45;&gt;Node675</title>
<path fill="none" stroke="#191970" d="M103.8486,-47.3985C120.5716,-42.4031 139.5656,-36.7295 157.0144,-31.5174"/>
<polygon fill="#191970" stroke="#191970" points="158.5006,-34.7263 167.0805,-28.5106 156.4971,-28.0192 158.5006,-34.7263"/>
</g>
</g>
</svg>
