<?xml version="1.0" encoding="UTF-8" standalone="no"?>
<!DOCTYPE svg PUBLIC "-//W3C//DTD SVG 1.1//EN"
 "http://www.w3.org/Graphics/SVG/1.1/DTD/svg11.dtd">
<!-- Generated by graphviz version 2.40.1 (20161225.0304)
 -->
<!-- Title: Ioss::ConstructedVariableType::label Pages: 1 -->
<svg width="574pt" height="84pt"
 viewBox="0.00 0.00 574.30 84.00" xmlns="http://www.w3.org/2000/svg" xmlns:xlink="http://www.w3.org/1999/xlink">
<g id="graph0" class="graph" transform="scale(1 1) rotate(0) translate(4 80)">
<title>Ioss::ConstructedVariableType::label</title>
<polygon fill="#ffffff" stroke="transparent" points="-4,4 -4,-80 570.3018,-80 570.3018,4 -4,4"/>
<!-- Node6 -->
<g id="node1" class="node">
<title>Node6</title>
<polygon fill="#bfbfbf" stroke="#000000" points="0,-23.5 0,-51.5 129.7646,-51.5 129.7646,-23.5 0,-23.5"/>
<text text-anchor="start" x="8" y="-39.5" font-family="Helvetica,sans-Serif" font-size="10.00" fill="#000000">Ioss::ConstructedVariable</text>
<text text-anchor="middle" x="64.8823" y="-29.5" font-family="Helvetica,sans-Serif" font-size="10.00" fill="#000000">Type::label</text>
</g>
<!-- Node7 -->
<g id="node2" class="node">
<title>Node7</title>
<g id="a_node2"><a xlink:href="classIoss_1_1VariableType.html#abb6df4603afd79690025027170f0d208" target="_top" xlink:title="Ioss::VariableType\l::numeric_label">
<polygon fill="#ffffff" stroke="#000000" points="165.7646,-45.5 165.7646,-73.5 263.2979,-73.5 263.2979,-45.5 165.7646,-45.5"/>
<text text-anchor="start" x="173.7646" y="-61.5" font-family="Helvetica,sans-Serif" font-size="10.00" fill="#000000">Ioss::VariableType</text>
<text text-anchor="middle" x="214.5313" y="-51.5" font-family="Helvetica,sans-Serif" font-size="10.00" fill="#000000">::numeric_label</text>
</a>
</g>
</g>
<!-- Node6&#45;&gt;Node7 -->
<g id="edge1" class="edge">
<title>Node6&#45;&gt;Node7</title>
<path fill="none" stroke="#191970" d="M130.0852,-47.0855C138.5967,-48.3368 147.277,-49.6129 155.6758,-50.8476"/>
<polygon fill="#191970" stroke="#191970" points="155.3478,-54.3369 165.7506,-52.3287 156.366,-47.4114 155.3478,-54.3369"/>
</g>
<!-- Node8 -->
<g id="node3" class="node">
<title>Node8</title>
<g id="a_node3"><a xlink:href="namespaceanonymous__namespace_02io__info_8C_03.html#ac76aa36231a3291b803cc8e620fce319" target="_top" xlink:title="anonymous_namespace\l\{io_info::C\}::name">
<polygon fill="#ffffff" stroke="#000000" points="299.2979,-23.5 299.2979,-51.5 424.2578,-51.5 424.2578,-23.5 299.2979,-23.5"/>
<text text-anchor="start" x="307.2979" y="-39.5" font-family="Helvetica,sans-Serif" font-size="10.00" fill="#000000">anonymous_namespace</text>
<text text-anchor="middle" x="361.7778" y="-29.5" font-family="Helvetica,sans-Serif" font-size="10.00" fill="#000000">{io_info::C}::name</text>
</a>
</g>
</g>
<!-- Node6&#45;&gt;Node8 -->
<g id="edge5" class="edge">
<title>Node6&#45;&gt;Node8</title>
<path fill="none" stroke="#191970" d="M130.003,-36.7598C141.9001,-36.6515 154.2048,-36.5573 165.7646,-36.5 209.1122,-36.2852 219.9503,-36.2799 263.2979,-36.5 271.6544,-36.5424 280.4097,-36.6051 289.1069,-36.6788"/>
<polygon fill="#191970" stroke="#191970" points="289.2316,-40.1799 299.2626,-36.7697 289.2944,-33.1802 289.2316,-40.1799"/>
</g>
<!-- Node7&#45;&gt;Node8 -->
<g id="edge2" class="edge">
<title>Node7&#45;&gt;Node8</title>
<path fill="none" stroke="#191970" d="M263.5622,-52.1743C271.74,-50.9525 280.3752,-49.6623 288.995,-48.3744"/>
<polygon fill="#191970" stroke="#191970" points="289.7055,-51.8072 299.0785,-46.8679 288.671,-44.8841 289.7055,-51.8072"/>
</g>
<!-- Node9 -->
<g id="node4" class="node">
<title>Node9</title>
<g id="a_node4"><a xlink:href="classIoss_1_1GroupingEntity.html#adf92c4256dc89b729f4492642bc4d745" target="_top" xlink:title="Get the name of the particular type of entity. ">
<polygon fill="#ffffff" stroke="#000000" points="460.2578,-47.5 460.2578,-75.5 566.3018,-75.5 566.3018,-47.5 460.2578,-47.5"/>
<text text-anchor="start" x="468.2578" y="-63.5" font-family="Helvetica,sans-Serif" font-size="10.00" fill="#000000">Ioss::GroupingEntity</text>
<text text-anchor="middle" x="513.2798" y="-53.5" font-family="Helvetica,sans-Serif" font-size="10.00" fill="#000000">::type_string</text>
</a>
</g>
</g>
<!-- Node8&#45;&gt;Node9 -->
<g id="edge3" class="edge">
<title>Node8&#45;&gt;Node9</title>
<path fill="none" stroke="#191970" d="M424.2742,-47.4003C432.8276,-48.7553 441.6137,-50.1471 450.1778,-51.5038"/>
<polygon fill="#191970" stroke="#191970" points="449.6777,-54.9681 460.1022,-53.0759 450.773,-48.0543 449.6777,-54.9681"/>
</g>
<!-- Node10 -->
<g id="node5" class="node">
<title>Node10</title>
<g id="a_node5"><a xlink:href="classIoss_1_1GroupingEntity.html#a50d4053f49c8c3205e05d939fdc9fbc5" target="_top" xlink:title="Get name of entity. ">
<polygon fill="#ffffff" stroke="#000000" points="460.2578,-.5 460.2578,-28.5 566.3018,-28.5 566.3018,-.5 460.2578,-.5"/>
<text text-anchor="start" x="468.2578" y="-16.5" font-family="Helvetica,sans-Serif" font-size="10.00" fill="#000000">Ioss::GroupingEntity</text>
<text text-anchor="middle" x="513.2798" y="-6.5" font-family="Helvetica,sans-Serif" font-size="10.00" fill="#000000">::name</text>
</a>
</g>
</g>
<!-- Node8&#45;&gt;Node10 -->
<g id="edge4" class="edge">
<title>Node8&#45;&gt;Node10</title>
<path fill="none" stroke="#191970" d="M424.2742,-28.0122C432.8276,-26.7137 441.6137,-25.3799 450.1778,-24.0797"/>
<polygon fill="#191970" stroke="#191970" points="450.7408,-27.5344 460.1022,-22.5731 449.6901,-20.6137 450.7408,-27.5344"/>
</g>
</g>
</svg>
