<?xml version="1.0" encoding="UTF-8" standalone="no"?>
<!DOCTYPE svg PUBLIC "-//W3C//DTD SVG 1.1//EN"
 "http://www.w3.org/Graphics/SVG/1.1/DTD/svg11.dtd">
<!-- Generated by graphviz version 2.40.1 (20161225.0304)
 -->
<!-- Title: Ioex::DatabaseIO::gather_names Pages: 1 -->
<svg width="757pt" height="540pt"
 viewBox="0.00 0.00 756.76 540.00" xmlns="http://www.w3.org/2000/svg" xmlns:xlink="http://www.w3.org/1999/xlink">
<g id="graph0" class="graph" transform="scale(1 1) rotate(0) translate(4 536)">
<title>Ioex::DatabaseIO::gather_names</title>
<polygon fill="#ffffff" stroke="transparent" points="-4,4 -4,-536 752.7607,-536 752.7607,4 -4,4"/>
<!-- Node539 -->
<g id="node1" class="node">
<title>Node539</title>
<polygon fill="#bfbfbf" stroke="#000000" points="0,-202.5 0,-230.5 127.7334,-230.5 127.7334,-202.5 0,-202.5"/>
<text text-anchor="start" x="8" y="-218.5" font-family="Helvetica,sans-Serif" font-size="10.00" fill="#000000">Ioex::DatabaseIO::gather</text>
<text text-anchor="middle" x="63.8667" y="-208.5" font-family="Helvetica,sans-Serif" font-size="10.00" fill="#000000">_names</text>
</g>
<!-- Node540 -->
<g id="node2" class="node">
<title>Node540</title>
<g id="a_node2"><a xlink:href="$classIoss_1_1GroupingEntity.html#a92f4d388db4e0d10b1be6ac7fa69af4a" xlink:title="Get the names of all fields in the entity&#39;s field manager. ">
<polygon fill="#ffffff" stroke="#000000" points="171.2432,-503.5 171.2432,-531.5 277.2871,-531.5 277.2871,-503.5 171.2432,-503.5"/>
<text text-anchor="start" x="179.2432" y="-519.5" font-family="Helvetica,sans-Serif" font-size="10.00" fill="#000000">Ioss::GroupingEntity</text>
<text text-anchor="middle" x="224.2651" y="-509.5" font-family="Helvetica,sans-Serif" font-size="10.00" fill="#000000">::field_describe</text>
</a>
</g>
</g>
<!-- Node539&#45;&gt;Node540 -->
<g id="edge1" class="edge">
<title>Node539&#45;&gt;Node540</title>
<path fill="none" stroke="#191970" d="M65.3078,-230.5411C70.4817,-274.2064 91.8162,-409.4121 163.7334,-488.5 166.9918,-492.0832 170.7876,-495.2674 174.8606,-498.0875"/>
<polygon fill="#191970" stroke="#191970" points="173.1674,-501.1545 183.5267,-503.3764 176.8141,-495.1794 173.1674,-501.1545"/>
</g>
<!-- Node541 -->
<g id="node3" class="node">
<title>Node541</title>
<g id="a_node3"><a xlink:href="$namespaceIoex.html#afd98f843b2c93b81b9b61ee20cc7b90e" xlink:title="Ioex::find_displacement\l_field">
<polygon fill="#ffffff" stroke="#000000" points="163.7334,-290.5 163.7334,-318.5 284.7969,-318.5 284.7969,-290.5 163.7334,-290.5"/>
<text text-anchor="start" x="171.7334" y="-306.5" font-family="Helvetica,sans-Serif" font-size="10.00" fill="#000000">Ioex::find_displacement</text>
<text text-anchor="middle" x="224.2651" y="-296.5" font-family="Helvetica,sans-Serif" font-size="10.00" fill="#000000">_field</text>
</a>
</g>
</g>
<!-- Node539&#45;&gt;Node541 -->
<g id="edge2" class="edge">
<title>Node539&#45;&gt;Node541</title>
<path fill="none" stroke="#191970" d="M89.2992,-230.5457C109.4718,-241.677 138.3902,-257.6132 163.7334,-271.5 172.0586,-276.0618 181.0354,-280.9644 189.461,-285.5589"/>
<polygon fill="#191970" stroke="#191970" points="187.8747,-288.6805 198.3303,-290.3927 191.2246,-282.534 187.8747,-288.6805"/>
</g>
<!-- Node542 -->
<g id="node4" class="node">
<title>Node542</title>
<g id="a_node4"><a xlink:href="$namespaceanonymous__namespace_02io__info_8C_03.html#ac76aa36231a3291b803cc8e620fce319" xlink:title="anonymous_namespace\l\{io_info::C\}::name">
<polygon fill="#ffffff" stroke="#000000" points="481.7568,-309.5 481.7568,-337.5 606.7168,-337.5 606.7168,-309.5 481.7568,-309.5"/>
<text text-anchor="start" x="489.7568" y="-325.5" font-family="Helvetica,sans-Serif" font-size="10.00" fill="#000000">anonymous_namespace</text>
<text text-anchor="middle" x="544.2368" y="-315.5" font-family="Helvetica,sans-Serif" font-size="10.00" fill="#000000">{io_info::C}::name</text>
</a>
</g>
</g>
<!-- Node539&#45;&gt;Node542 -->
<g id="edge12" class="edge">
<title>Node539&#45;&gt;Node542</title>
<path fill="none" stroke="#191970" d="M69.5864,-230.5807C82.4059,-260.6535 116.0938,-331.9538 163.7334,-375.5 221.5563,-428.3544 244.6206,-437.2174 320.7969,-455.5 374.801,-468.4612 396.1138,-480.4 445.7568,-455.5 490.9569,-432.8286 520.7063,-378.4812 534.7801,-347.0456"/>
<polygon fill="#191970" stroke="#191970" points="538.0582,-348.2825 538.7985,-337.7136 531.6289,-345.514 538.0582,-348.2825"/>
</g>
<!-- Node544 -->
<g id="node6" class="node">
<title>Node544</title>
<g id="a_node6"><a xlink:href="$classIoss_1_1GroupingEntity.html#a50d4053f49c8c3205e05d939fdc9fbc5" xlink:title="Get name of entity. ">
<polygon fill="#ffffff" stroke="#000000" points="642.7168,-219.5 642.7168,-247.5 748.7607,-247.5 748.7607,-219.5 642.7168,-219.5"/>
<text text-anchor="start" x="650.7168" y="-235.5" font-family="Helvetica,sans-Serif" font-size="10.00" fill="#000000">Ioss::GroupingEntity</text>
<text text-anchor="middle" x="695.7388" y="-225.5" font-family="Helvetica,sans-Serif" font-size="10.00" fill="#000000">::name</text>
</a>
</g>
</g>
<!-- Node539&#45;&gt;Node544 -->
<g id="edge20" class="edge">
<title>Node539&#45;&gt;Node544</title>
<path fill="none" stroke="#191970" d="M127.7719,-206.1739C203.6561,-195.2948 334.0225,-180.9602 445.7568,-190.5 509.7938,-195.9674 582.0633,-209.1765 632.3658,-219.5231"/>
<polygon fill="#191970" stroke="#191970" points="631.9365,-223.0087 642.4396,-221.6174 633.3614,-216.1552 631.9365,-223.0087"/>
</g>
<!-- Node547 -->
<g id="node9" class="node">
<title>Node547</title>
<g id="a_node9"><a xlink:href="$classIoss_1_1GroupingEntity.html#a508cc132f3c03c54d0dfd84f567fa1b6" xlink:title="Get a field from the entity&#39;s field manager. ">
<polygon fill="#ffffff" stroke="#000000" points="330.2549,-417.5 330.2549,-445.5 436.2988,-445.5 436.2988,-417.5 330.2549,-417.5"/>
<text text-anchor="start" x="338.2549" y="-433.5" font-family="Helvetica,sans-Serif" font-size="10.00" fill="#000000">Ioss::GroupingEntity</text>
<text text-anchor="middle" x="383.2769" y="-423.5" font-family="Helvetica,sans-Serif" font-size="10.00" fill="#000000">::get_field</text>
</a>
</g>
</g>
<!-- Node539&#45;&gt;Node547 -->
<g id="edge13" class="edge">
<title>Node539&#45;&gt;Node547</title>
<path fill="none" stroke="#191970" d="M73.8435,-230.7752C90.409,-253.6858 125.5663,-299.0705 163.7334,-328.5 214.7815,-367.8617 283.2991,-396.9838 330.1296,-414.0346"/>
<polygon fill="#191970" stroke="#191970" points="329.1849,-417.4139 339.7795,-417.4892 331.5443,-410.8235 329.1849,-417.4139"/>
</g>
<!-- Node548 -->
<g id="node10" class="node">
<title>Node548</title>
<g id="a_node10"><a xlink:href="$classIoss_1_1Field.html#a99c74998a49363e559dc5ca530cbcb4d" xlink:title="Ioss::Field::transformed\l_storage">
<polygon fill="#ffffff" stroke="#000000" points="323.0356,-247.5 323.0356,-275.5 443.5181,-275.5 443.5181,-247.5 323.0356,-247.5"/>
<text text-anchor="start" x="331.0356" y="-263.5" font-family="Helvetica,sans-Serif" font-size="10.00" fill="#000000">Ioss::Field::transformed</text>
<text text-anchor="middle" x="383.2769" y="-253.5" font-family="Helvetica,sans-Serif" font-size="10.00" fill="#000000">_storage</text>
</a>
</g>
</g>
<!-- Node539&#45;&gt;Node548 -->
<g id="edge14" class="edge">
<title>Node539&#45;&gt;Node548</title>
<path fill="none" stroke="#191970" d="M127.7364,-225.4983C181.295,-233.0439 257.6725,-243.8043 312.9635,-251.5939"/>
<polygon fill="#191970" stroke="#191970" points="312.6413,-255.083 323.0319,-253.0124 313.618,-248.1515 312.6413,-255.083"/>
</g>
<!-- Node549 -->
<g id="node11" class="node">
<title>Node549</title>
<g id="a_node11"><a xlink:href="$classIoss_1_1VariableType.html#ad1e37f24dd5bbe9ed6bee80a93665d6c" xlink:title="Ioss::VariableType\l::component_count">
<polygon fill="#ffffff" stroke="#000000" points="332.7476,-200.5 332.7476,-228.5 433.8062,-228.5 433.8062,-200.5 332.7476,-200.5"/>
<text text-anchor="start" x="340.7476" y="-216.5" font-family="Helvetica,sans-Serif" font-size="10.00" fill="#000000">Ioss::VariableType</text>
<text text-anchor="middle" x="383.2769" y="-206.5" font-family="Helvetica,sans-Serif" font-size="10.00" fill="#000000">::component_count</text>
</a>
</g>
</g>
<!-- Node539&#45;&gt;Node549 -->
<g id="edge18" class="edge">
<title>Node539&#45;&gt;Node549</title>
<path fill="none" stroke="#191970" d="M127.7364,-216.1001C184.4657,-215.7449 266.7956,-215.2294 322.5523,-214.8802"/>
<polygon fill="#191970" stroke="#191970" points="322.6641,-218.3797 332.6419,-214.8171 322.6202,-211.3798 322.6641,-218.3797"/>
</g>
<!-- Node550 -->
<g id="node12" class="node">
<title>Node550</title>
<g id="a_node12"><a xlink:href="$classIoss_1_1Field.html#a8abb33dcfa0630f6422e7541b36694b4" xlink:title="Get the basic data type of the data held in the field. ">
<polygon fill="#ffffff" stroke="#000000" points="171.519,-131.5 171.519,-149.5 277.0112,-149.5 277.0112,-131.5 171.519,-131.5"/>
<text text-anchor="middle" x="224.2651" y="-137.5" font-family="Helvetica,sans-Serif" font-size="10.00" fill="#000000">Ioss::Field::get_type</text>
</a>
</g>
</g>
<!-- Node539&#45;&gt;Node550 -->
<g id="edge15" class="edge">
<title>Node539&#45;&gt;Node550</title>
<path fill="none" stroke="#191970" d="M89.3717,-202.2956C109.3401,-191.4014 137.9552,-176.284 163.7334,-164.5 172.2494,-160.6071 181.5914,-156.7208 190.3334,-153.2445"/>
<polygon fill="#191970" stroke="#191970" points="191.8332,-156.4162 199.8724,-149.5153 189.2844,-149.8967 191.8332,-156.4162"/>
</g>
<!-- Node551 -->
<g id="node13" class="node">
<title>Node551</title>
<g id="a_node13"><a xlink:href="$classIoss_1_1Field.html#aca1c35eb7fb1dcd0bf8c80b2b6926131" xlink:title="Ioss::Field::get_name">
<polygon fill="#ffffff" stroke="#000000" points="168.4624,-94.5 168.4624,-112.5 280.0679,-112.5 280.0679,-94.5 168.4624,-94.5"/>
<text text-anchor="middle" x="224.2651" y="-100.5" font-family="Helvetica,sans-Serif" font-size="10.00" fill="#000000">Ioss::Field::get_name</text>
</a>
</g>
</g>
<!-- Node539&#45;&gt;Node551 -->
<g id="edge16" class="edge">
<title>Node539&#45;&gt;Node551</title>
<path fill="none" stroke="#191970" d="M74.907,-202.4032C91.8467,-181.704 126.2482,-143.1988 163.7334,-121.5 167.1582,-119.5175 170.8206,-117.7362 174.5854,-116.1388"/>
<polygon fill="#191970" stroke="#191970" points="175.9701,-119.357 184.078,-112.537 173.4867,-112.8123 175.9701,-119.357"/>
</g>
<!-- Node552 -->
<g id="node14" class="node">
<title>Node552</title>
<g id="a_node14"><a xlink:href="$classIoss_1_1DatabaseIO.html#aac344d090f98ae0082547ea7d8e0db7e" xlink:title="Ioss::DatabaseIO::get\l_field_separator">
<polygon fill="#ffffff" stroke="#000000" points="167.9058,-47.5 167.9058,-75.5 280.6245,-75.5 280.6245,-47.5 167.9058,-47.5"/>
<text text-anchor="start" x="175.9058" y="-63.5" font-family="Helvetica,sans-Serif" font-size="10.00" fill="#000000">Ioss::DatabaseIO::get</text>
<text text-anchor="middle" x="224.2651" y="-53.5" font-family="Helvetica,sans-Serif" font-size="10.00" fill="#000000">_field_separator</text>
</a>
</g>
</g>
<!-- Node539&#45;&gt;Node552 -->
<g id="edge17" class="edge">
<title>Node539&#45;&gt;Node552</title>
<path fill="none" stroke="#191970" d="M70.9707,-202.4948C85.1275,-175.8953 119.3515,-117.7594 163.7334,-84.5 165.5973,-83.1032 167.556,-81.7818 169.5819,-80.5329"/>
<polygon fill="#191970" stroke="#191970" points="171.6993,-83.3653 178.8097,-75.5108 168.3531,-77.2169 171.6993,-83.3653"/>
</g>
<!-- Node553 -->
<g id="node15" class="node">
<title>Node553</title>
<g id="a_node15"><a xlink:href="$classIoss_1_1VariableType.html#a40198c08c4f89a2f9559c1eca19bce6b" xlink:title="Ioss::VariableType\l::label_name">
<polygon fill="#ffffff" stroke="#000000" points="175.4985,-.5 175.4985,-28.5 273.0317,-28.5 273.0317,-.5 175.4985,-.5"/>
<text text-anchor="start" x="183.4985" y="-16.5" font-family="Helvetica,sans-Serif" font-size="10.00" fill="#000000">Ioss::VariableType</text>
<text text-anchor="middle" x="224.2651" y="-6.5" font-family="Helvetica,sans-Serif" font-size="10.00" fill="#000000">::label_name</text>
</a>
</g>
</g>
<!-- Node539&#45;&gt;Node553 -->
<g id="edge19" class="edge">
<title>Node539&#45;&gt;Node553</title>
<path fill="none" stroke="#191970" d="M68.0617,-202.2392C78.6062,-168.7739 109.3375,-84.4925 163.7334,-37.5 165.2328,-36.2047 166.8126,-34.9787 168.4547,-33.8187"/>
<polygon fill="#191970" stroke="#191970" points="170.3808,-36.7437 177.1001,-28.5521 166.7391,-30.7656 170.3808,-36.7437"/>
</g>
<!-- Node541&#45;&gt;Node542 -->
<g id="edge3" class="edge">
<title>Node541&#45;&gt;Node542</title>
<path fill="none" stroke="#191970" d="M284.8255,-308.0961C337.8703,-311.2459 415.0748,-315.8303 471.4634,-319.1787"/>
<polygon fill="#191970" stroke="#191970" points="471.5497,-322.6899 481.7396,-319.7889 471.9647,-315.7022 471.5497,-322.6899"/>
</g>
<!-- Node545 -->
<g id="node7" class="node">
<title>Node545</title>
<g id="a_node7"><a xlink:href="$classIoss_1_1Utils.html#a13e9c9d36876c699b9b67ded571fab40" xlink:title="Convert a string to lower case, and convert spaces to &#39;_&#39;. ">
<polygon fill="#ffffff" stroke="#000000" points="324.979,-333.5 324.979,-351.5 441.5747,-351.5 441.5747,-333.5 324.979,-333.5"/>
<text text-anchor="middle" x="383.2769" y="-339.5" font-family="Helvetica,sans-Serif" font-size="10.00" fill="#000000">Ioss::Utils::fixup_name</text>
</a>
</g>
</g>
<!-- Node541&#45;&gt;Node545 -->
<g id="edge6" class="edge">
<title>Node541&#45;&gt;Node545</title>
<path fill="none" stroke="#191970" d="M283.0235,-318.5418C300.3138,-322.6738 319.0116,-327.1421 335.5232,-331.088"/>
<polygon fill="#191970" stroke="#191970" points="334.9497,-334.5494 345.4893,-333.4697 336.5767,-327.7412 334.9497,-334.5494"/>
</g>
<!-- Node546 -->
<g id="node8" class="node">
<title>Node546</title>
<g id="a_node8"><a xlink:href="$namespaceanonymous__namespace_02Ioex__Utils_8C_03.html#aab52be7a389c9d765d77412e1e056c62" xlink:title="anonymous_namespace\l\{Ioex_Utils::C\}::match">
<polygon fill="#ffffff" stroke="#000000" points="320.7969,-370.5 320.7969,-398.5 445.7568,-398.5 445.7568,-370.5 320.7969,-370.5"/>
<text text-anchor="start" x="328.7969" y="-386.5" font-family="Helvetica,sans-Serif" font-size="10.00" fill="#000000">anonymous_namespace</text>
<text text-anchor="middle" x="383.2769" y="-376.5" font-family="Helvetica,sans-Serif" font-size="10.00" fill="#000000">{Ioex_Utils::C}::match</text>
</a>
</g>
</g>
<!-- Node541&#45;&gt;Node546 -->
<g id="edge8" class="edge">
<title>Node541&#45;&gt;Node546</title>
<path fill="none" stroke="#191970" d="M245.5054,-318.557C264.6683,-330.8675 293.8943,-348.7342 320.7969,-361.5 324.5563,-363.2839 328.4939,-365.0209 332.4853,-366.689"/>
<polygon fill="#191970" stroke="#191970" points="331.2536,-369.966 341.8376,-370.4455 333.8627,-363.4704 331.2536,-369.966"/>
</g>
<!-- Node541&#45;&gt;Node547 -->
<g id="edge9" class="edge">
<title>Node541&#45;&gt;Node547</title>
<path fill="none" stroke="#191970" d="M235.9879,-318.6867C257.1194,-343.9841 301.2177,-395.4565 320.7969,-408.5 323.1868,-410.0921 325.7012,-411.5918 328.2936,-413.0021"/>
<polygon fill="#191970" stroke="#191970" points="326.8222,-416.1788 337.3397,-417.4565 329.9145,-409.8989 326.8222,-416.1788"/>
</g>
<!-- Node541&#45;&gt;Node548 -->
<g id="edge10" class="edge">
<title>Node541&#45;&gt;Node548</title>
<path fill="none" stroke="#191970" d="M276.3315,-290.4202C290.82,-286.5022 306.6942,-282.2095 321.674,-278.1587"/>
<polygon fill="#191970" stroke="#191970" points="322.6256,-281.5271 331.3652,-275.538 320.7982,-274.7698 322.6256,-281.5271"/>
</g>
<!-- Node541&#45;&gt;Node549 -->
<g id="edge11" class="edge">
<title>Node541&#45;&gt;Node549</title>
<path fill="none" stroke="#191970" d="M241.5487,-290.4741C260.2292,-275.8132 291.2982,-252.8472 320.7969,-237.5 324.1198,-235.7712 327.6027,-234.1115 331.1517,-232.5311"/>
<polygon fill="#191970" stroke="#191970" points="332.7767,-235.6447 340.6364,-228.5401 330.0617,-229.1926 332.7767,-235.6447"/>
</g>
<!-- Node543 -->
<g id="node5" class="node">
<title>Node543</title>
<g id="a_node5"><a xlink:href="$classIoss_1_1GroupingEntity.html#adf92c4256dc89b729f4492642bc4d745" xlink:title="Get the name of the particular type of entity. ">
<polygon fill="#ffffff" stroke="#000000" points="642.7168,-309.5 642.7168,-337.5 748.7607,-337.5 748.7607,-309.5 642.7168,-309.5"/>
<text text-anchor="start" x="650.7168" y="-325.5" font-family="Helvetica,sans-Serif" font-size="10.00" fill="#000000">Ioss::GroupingEntity</text>
<text text-anchor="middle" x="695.7388" y="-315.5" font-family="Helvetica,sans-Serif" font-size="10.00" fill="#000000">::type_string</text>
</a>
</g>
</g>
<!-- Node542&#45;&gt;Node543 -->
<g id="edge4" class="edge">
<title>Node542&#45;&gt;Node543</title>
<path fill="none" stroke="#191970" d="M606.7331,-323.5C615.1936,-323.5 623.8817,-323.5 632.3575,-323.5"/>
<polygon fill="#191970" stroke="#191970" points="632.5612,-327.0001 642.5612,-323.5 632.5611,-320.0001 632.5612,-327.0001"/>
</g>
<!-- Node542&#45;&gt;Node544 -->
<g id="edge5" class="edge">
<title>Node542&#45;&gt;Node544</title>
<path fill="none" stroke="#191970" d="M567.909,-309.4375C593.4414,-294.2699 634.2731,-270.0138 662.9016,-253.007"/>
<polygon fill="#191970" stroke="#191970" points="664.923,-255.8772 671.7328,-247.7608 661.3478,-249.859 664.923,-255.8772"/>
</g>
<!-- Node545&#45;&gt;Node542 -->
<g id="edge7" class="edge">
<title>Node545&#45;&gt;Node542</title>
<path fill="none" stroke="#191970" d="M441.8424,-335.5868C451.4492,-334.4528 461.5068,-333.2656 471.4086,-332.0968"/>
<polygon fill="#191970" stroke="#191970" points="472.1247,-335.5366 481.6455,-330.8884 471.3041,-328.5849 472.1247,-335.5366"/>
</g>
</g>
</svg>
