<?xml version="1.0" encoding="UTF-8" standalone="no"?>
<!DOCTYPE svg PUBLIC "-//W3C//DTD SVG 1.1//EN"
 "http://www.w3.org/Graphics/SVG/1.1/DTD/svg11.dtd">
<!-- Generated by graphviz version 2.40.1 (20161225.0304)
 -->
<!-- Title: tsl::detail_robin_hash::robin_hash::emplace_hint Pages: 1 -->
<svg width="324pt" height="121pt"
 viewBox="0.00 0.00 323.92 121.00" xmlns="http://www.w3.org/2000/svg" xmlns:xlink="http://www.w3.org/1999/xlink">
<g id="graph0" class="graph" transform="scale(1 1) rotate(0) translate(4 117)">
<title>tsl::detail_robin_hash::robin_hash::emplace_hint</title>
<polygon fill="#ffffff" stroke="transparent" points="-4,4 -4,-117 319.9248,-117 319.9248,4 -4,4"/>
<!-- Node77 -->
<g id="node1" class="node">
<title>Node77</title>
<polygon fill="#bfbfbf" stroke="#000000" points="0,-52.5 0,-80.5 136.0781,-80.5 136.0781,-52.5 0,-52.5"/>
<text text-anchor="start" x="8" y="-68.5" font-family="Helvetica,sans-Serif" font-size="10.00" fill="#000000">tsl::detail_robin_hash</text>
<text text-anchor="middle" x="68.0391" y="-58.5" font-family="Helvetica,sans-Serif" font-size="10.00" fill="#000000">::robin_hash::emplace_hint</text>
</g>
<!-- Node78 -->
<g id="node2" class="node">
<title>Node78</title>
<g id="a_node2"><a xlink:href="classtsl_1_1robin__map.html#a85c637a58ac0e7bbbca26ffdbb544541" target="_top" xlink:title="tsl::robin_map::insert">
<polygon fill="#ffffff" stroke="#000000" points="189.5928,-94.5 189.5928,-112.5 298.4102,-112.5 298.4102,-94.5 189.5928,-94.5"/>
<text text-anchor="middle" x="244.0015" y="-100.5" font-family="Helvetica,sans-Serif" font-size="10.00" fill="#000000">tsl::robin_map::insert</text>
</a>
</g>
</g>
<!-- Node77&#45;&gt;Node78 -->
<g id="edge1" class="edge">
<title>Node77&#45;&gt;Node78</title>
<path fill="none" stroke="#191970" d="M144.7913,-82.6389C164.0363,-86.6856 184.0099,-90.8855 200.9474,-94.4469"/>
<polygon fill="#191970" stroke="#191970" points="145.32,-79.1736 134.8138,-80.5409 143.8796,-86.0238 145.32,-79.1736"/>
</g>
<!-- Node79 -->
<g id="node3" class="node">
<title>Node79</title>
<g id="a_node3"><a xlink:href="classtsl_1_1robin__map.html#ad3db483f5b734b8450f9c9a32ef393b3" target="_top" xlink:title="tsl::robin_map::emplace_hint">
<polygon fill="#ffffff" stroke="#000000" points="172.0781,-57.5 172.0781,-75.5 315.9248,-75.5 315.9248,-57.5 172.0781,-57.5"/>
<text text-anchor="middle" x="244.0015" y="-63.5" font-family="Helvetica,sans-Serif" font-size="10.00" fill="#000000">tsl::robin_map::emplace_hint</text>
</a>
</g>
</g>
<!-- Node77&#45;&gt;Node79 -->
<g id="edge2" class="edge">
<title>Node77&#45;&gt;Node79</title>
<path fill="none" stroke="#191970" d="M146.5605,-66.5C155.0193,-66.5 163.5961,-66.5 171.9732,-66.5"/>
<polygon fill="#191970" stroke="#191970" points="146.3226,-63.0001 136.3226,-66.5 146.3225,-70.0001 146.3226,-63.0001"/>
</g>
<!-- Node80 -->
<g id="node4" class="node">
<title>Node80</title>
<g id="a_node4"><a xlink:href="classtsl_1_1robin__set.html#abc4f08f83e5d7793a1fc9360575788cf" target="_top" xlink:title="tsl::robin_set\&lt; Face,\l FaceHash, FaceEqual\l \&gt;::emplace_hint">
<polygon fill="#ffffff" stroke="#000000" points="185.1421,-.5 185.1421,-38.5 302.8608,-38.5 302.8608,-.5 185.1421,-.5"/>
<text text-anchor="start" x="193.1421" y="-26.5" font-family="Helvetica,sans-Serif" font-size="10.00" fill="#000000">tsl::robin_set&lt; Face,</text>
<text text-anchor="start" x="193.1421" y="-16.5" font-family="Helvetica,sans-Serif" font-size="10.00" fill="#000000"> FaceHash, FaceEqual</text>
<text text-anchor="middle" x="244.0015" y="-6.5" font-family="Helvetica,sans-Serif" font-size="10.00" fill="#000000"> &gt;::emplace_hint</text>
</a>
</g>
</g>
<!-- Node77&#45;&gt;Node80 -->
<g id="edge3" class="edge">
<title>Node77&#45;&gt;Node80</title>
<path fill="none" stroke="#191970" d="M130.5214,-49.8108C148.2776,-45.0681 167.5504,-39.9203 185.0874,-35.2361"/>
<polygon fill="#191970" stroke="#191970" points="129.5917,-46.4364 120.8336,-52.3985 131.3981,-53.1993 129.5917,-46.4364"/>
</g>
</g>
</svg>
