<?xml version="1.0" encoding="UTF-8" standalone="no"?>
<!DOCTYPE svg PUBLIC "-//W3C//DTD SVG 1.1//EN"
 "http://www.w3.org/Graphics/SVG/1.1/DTD/svg11.dtd">
<!-- Generated by graphviz version 2.40.1 (20161225.0304)
 -->
<!-- Title: Ioss::Shell4::Shell4 Pages: 1 -->
<svg width="711pt" height="131pt"
 viewBox="0.00 0.00 710.58 131.00" xmlns="http://www.w3.org/2000/svg" xmlns:xlink="http://www.w3.org/1999/xlink">
<g id="graph0" class="graph" transform="scale(1 1) rotate(0) translate(4 127)">
<title>Ioss::Shell4::Shell4</title>
<polygon fill="#ffffff" stroke="transparent" points="-4,4 -4,-127 706.5791,-127 706.5791,4 -4,4"/>
<!-- Node2 -->
<g id="node1" class="node">
<title>Node2</title>
<polygon fill="#bfbfbf" stroke="#000000" points="0,-28.5 0,-46.5 101.0488,-46.5 101.0488,-28.5 0,-28.5"/>
<text text-anchor="middle" x="50.5244" y="-34.5" font-family="Helvetica,sans-Serif" font-size="10.00" fill="#000000">Ioss::Shell4::Shell4</text>
</g>
<!-- Node3 -->
<g id="node2" class="node">
<title>Node3</title>
<g id="a_node2"><a xlink:href="classIoss_1_1ElementTopology.html#aebb05d3060d648c95e263fb81be6dd84" target="_top" xlink:title="Ioss::ElementTopology\l::alias">
<polygon fill="#ffffff" stroke="#000000" points="137.0488,-47.5 137.0488,-75.5 253.6592,-75.5 253.6592,-47.5 137.0488,-47.5"/>
<text text-anchor="start" x="145.0488" y="-63.5" font-family="Helvetica,sans-Serif" font-size="10.00" fill="#000000">Ioss::ElementTopology</text>
<text text-anchor="middle" x="195.354" y="-53.5" font-family="Helvetica,sans-Serif" font-size="10.00" fill="#000000">::alias</text>
</a>
</g>
</g>
<!-- Node2&#45;&gt;Node3 -->
<g id="edge1" class="edge">
<title>Node2&#45;&gt;Node3</title>
<path fill="none" stroke="#191970" d="M101.1788,-45.894C109.5042,-47.2737 118.2526,-48.7234 126.9246,-50.1604"/>
<polygon fill="#191970" stroke="#191970" points="126.602,-53.6546 137.0397,-51.8366 127.7465,-46.7488 126.602,-53.6546"/>
</g>
<!-- Node9 -->
<g id="node8" class="node">
<title>Node9</title>
<g id="a_node8"><a xlink:href="classIoss_1_1ElementTopology.html#a65981470136fcfc0e884c7332a3ed2f5" target="_top" xlink:title="Ioss::ElementTopology\l::name">
<polygon fill="#ffffff" stroke="#000000" points="137.0488,-.5 137.0488,-28.5 253.6592,-28.5 253.6592,-.5 137.0488,-.5"/>
<text text-anchor="start" x="145.0488" y="-16.5" font-family="Helvetica,sans-Serif" font-size="10.00" fill="#000000">Ioss::ElementTopology</text>
<text text-anchor="middle" x="195.354" y="-6.5" font-family="Helvetica,sans-Serif" font-size="10.00" fill="#000000">::name</text>
</a>
</g>
</g>
<!-- Node2&#45;&gt;Node9 -->
<g id="edge7" class="edge">
<title>Node2&#45;&gt;Node9</title>
<path fill="none" stroke="#191970" d="M101.1788,-29.4557C109.5042,-28.1336 118.2526,-26.7443 126.9246,-25.3671"/>
<polygon fill="#191970" stroke="#191970" points="127.7125,-28.7859 137.0397,-23.7607 126.6145,-21.8726 127.7125,-28.7859"/>
</g>
<!-- Node4 -->
<g id="node3" class="node">
<title>Node4</title>
<g id="a_node3"><a xlink:href="classIoss_1_1Utils.html#a48106bb99507951b4655783fe6ceb0f8" target="_top" xlink:title="Convert a string to lower case. ">
<polygon fill="#ffffff" stroke="#000000" points="289.6592,-52.5 289.6592,-70.5 399.5752,-70.5 399.5752,-52.5 289.6592,-52.5"/>
<text text-anchor="middle" x="344.6172" y="-58.5" font-family="Helvetica,sans-Serif" font-size="10.00" fill="#000000">Ioss::Utils::lowercase</text>
</a>
</g>
</g>
<!-- Node3&#45;&gt;Node4 -->
<g id="edge2" class="edge">
<title>Node3&#45;&gt;Node4</title>
<path fill="none" stroke="#191970" d="M253.9184,-61.5C262.2797,-61.5 270.9235,-61.5 279.4025,-61.5"/>
<polygon fill="#191970" stroke="#191970" points="279.6333,-65.0001 289.6333,-61.5 279.6332,-58.0001 279.6333,-65.0001"/>
</g>
<!-- Node5 -->
<g id="node4" class="node">
<title>Node5</title>
<g id="a_node4"><a xlink:href="namespaceanonymous__namespace_02io__info_8C_03.html#ac76aa36231a3291b803cc8e620fce319" target="_top" xlink:title="anonymous_namespace\l\{io_info::C\}::name">
<polygon fill="#ffffff" stroke="#000000" points="435.5752,-71.5 435.5752,-99.5 560.5352,-99.5 560.5352,-71.5 435.5752,-71.5"/>
<text text-anchor="start" x="443.5752" y="-87.5" font-family="Helvetica,sans-Serif" font-size="10.00" fill="#000000">anonymous_namespace</text>
<text text-anchor="middle" x="498.0552" y="-77.5" font-family="Helvetica,sans-Serif" font-size="10.00" fill="#000000">{io_info::C}::name</text>
</a>
</g>
</g>
<!-- Node4&#45;&gt;Node5 -->
<g id="edge3" class="edge">
<title>Node4&#45;&gt;Node5</title>
<path fill="none" stroke="#191970" d="M399.5784,-70.0968C407.9222,-71.4019 416.6404,-72.7655 425.2913,-74.1186"/>
<polygon fill="#191970" stroke="#191970" points="424.9685,-77.6106 435.3893,-75.6981 426.0503,-70.6947 424.9685,-77.6106"/>
</g>
<!-- Node8 -->
<g id="node7" class="node">
<title>Node8</title>
<g id="a_node7"><a xlink:href="namespaceanonymous__namespace_02Ioss__Utils_8C_03.html#a0a31af75815b9ec3b66f27bbb6846ac8" target="_top" xlink:title="anonymous_namespace\l\{Ioss_Utils::C\}::to_lower">
<polygon fill="#ffffff" stroke="#000000" points="435.5752,-24.5 435.5752,-52.5 560.5352,-52.5 560.5352,-24.5 435.5752,-24.5"/>
<text text-anchor="start" x="443.5752" y="-40.5" font-family="Helvetica,sans-Serif" font-size="10.00" fill="#000000">anonymous_namespace</text>
<text text-anchor="middle" x="498.0552" y="-30.5" font-family="Helvetica,sans-Serif" font-size="10.00" fill="#000000">{Ioss_Utils::C}::to_lower</text>
</a>
</g>
</g>
<!-- Node4&#45;&gt;Node8 -->
<g id="edge6" class="edge">
<title>Node4&#45;&gt;Node8</title>
<path fill="none" stroke="#191970" d="M399.5784,-53.2614C407.9222,-52.0107 416.6404,-50.7039 425.2913,-49.4071"/>
<polygon fill="#191970" stroke="#191970" points="426.0187,-52.8373 435.3893,-47.8935 424.9809,-45.9146 426.0187,-52.8373"/>
</g>
<!-- Node6 -->
<g id="node5" class="node">
<title>Node6</title>
<g id="a_node5"><a xlink:href="classIoss_1_1GroupingEntity.html#adf92c4256dc89b729f4492642bc4d745" target="_top" xlink:title="Get the name of the particular type of entity. ">
<polygon fill="#ffffff" stroke="#000000" points="596.5352,-94.5 596.5352,-122.5 702.5791,-122.5 702.5791,-94.5 596.5352,-94.5"/>
<text text-anchor="start" x="604.5352" y="-110.5" font-family="Helvetica,sans-Serif" font-size="10.00" fill="#000000">Ioss::GroupingEntity</text>
<text text-anchor="middle" x="649.5571" y="-100.5" font-family="Helvetica,sans-Serif" font-size="10.00" fill="#000000">::type_string</text>
</a>
</g>
</g>
<!-- Node5&#45;&gt;Node6 -->
<g id="edge4" class="edge">
<title>Node5&#45;&gt;Node6</title>
<path fill="none" stroke="#191970" d="M560.5515,-94.9878C569.1049,-96.2863 577.891,-97.6201 586.4552,-98.9203"/>
<polygon fill="#191970" stroke="#191970" points="585.9675,-102.3863 596.3795,-100.4269 587.0182,-95.4656 585.9675,-102.3863"/>
</g>
<!-- Node7 -->
<g id="node6" class="node">
<title>Node7</title>
<g id="a_node6"><a xlink:href="classIoss_1_1GroupingEntity.html#a50d4053f49c8c3205e05d939fdc9fbc5" target="_top" xlink:title="Get name of entity. ">
<polygon fill="#ffffff" stroke="#000000" points="596.5352,-47.5 596.5352,-75.5 702.5791,-75.5 702.5791,-47.5 596.5352,-47.5"/>
<text text-anchor="start" x="604.5352" y="-63.5" font-family="Helvetica,sans-Serif" font-size="10.00" fill="#000000">Ioss::GroupingEntity</text>
<text text-anchor="middle" x="649.5571" y="-53.5" font-family="Helvetica,sans-Serif" font-size="10.00" fill="#000000">::name</text>
</a>
</g>
</g>
<!-- Node5&#45;&gt;Node7 -->
<g id="edge5" class="edge">
<title>Node5&#45;&gt;Node7</title>
<path fill="none" stroke="#191970" d="M560.5515,-75.5997C569.1049,-74.2447 577.891,-72.8529 586.4552,-71.4962"/>
<polygon fill="#191970" stroke="#191970" points="587.0503,-74.9457 596.3795,-69.9241 585.955,-68.0319 587.0503,-74.9457"/>
</g>
</g>
</svg>
