<?xml version="1.0" encoding="UTF-8" standalone="no"?>
<!DOCTYPE svg PUBLIC "-//W3C//DTD SVG 1.1//EN"
 "http://www.w3.org/Graphics/SVG/1.1/DTD/svg11.dtd">
<!-- Generated by graphviz version 2.40.1 (20161225.0304)
 -->
<!-- Title: Iocgns::Utils::resolve_processor_shared_nodes Pages: 1 -->
<svg width="538pt" height="47pt"
 viewBox="0.00 0.00 538.01 47.00" xmlns="http://www.w3.org/2000/svg" xmlns:xlink="http://www.w3.org/1999/xlink">
<g id="graph0" class="graph" transform="scale(1 1) rotate(0) translate(4 43)">
<title>Iocgns::Utils::resolve_processor_shared_nodes</title>
<polygon fill="#ffffff" stroke="transparent" points="-4,4 -4,-43 534.0078,-43 534.0078,4 -4,4"/>
<!-- Node355 -->
<g id="node1" class="node">
<title>Node355</title>
<polygon fill="#bfbfbf" stroke="#000000" points="0,-5.5 0,-33.5 134.4131,-33.5 134.4131,-5.5 0,-5.5"/>
<text text-anchor="start" x="8" y="-21.5" font-family="Helvetica,sans-Serif" font-size="10.00" fill="#000000">Iocgns::Utils::resolve</text>
<text text-anchor="middle" x="67.2065" y="-11.5" font-family="Helvetica,sans-Serif" font-size="10.00" fill="#000000">_processor_shared_nodes</text>
</g>
<!-- Node356 -->
<g id="node2" class="node">
<title>Node356</title>
<g id="a_node2"><a xlink:href="$namespaceanonymous__namespace_02struc__to__unstruc_8C_03.html#ab48c619af8fe68015cb9762358cf2450" xlink:title="anonymous_namespace\l\{struc_to_unstruc::C\}\l::transfer_nodeblock">
<polygon fill="#ffffff" stroke="#000000" points="170.4131,-.5 170.4131,-38.5 295.373,-38.5 295.373,-.5 170.4131,-.5"/>
<text text-anchor="start" x="178.4131" y="-26.5" font-family="Helvetica,sans-Serif" font-size="10.00" fill="#000000">anonymous_namespace</text>
<text text-anchor="start" x="178.4131" y="-16.5" font-family="Helvetica,sans-Serif" font-size="10.00" fill="#000000">{struc_to_unstruc::C}</text>
<text text-anchor="middle" x="232.8931" y="-6.5" font-family="Helvetica,sans-Serif" font-size="10.00" fill="#000000">::transfer_nodeblock</text>
</a>
</g>
</g>
<!-- Node355&#45;&gt;Node356 -->
<g id="edge1" class="edge">
<title>Node355&#45;&gt;Node356</title>
<path fill="none" stroke="#191970" d="M144.6568,-19.5C153.2755,-19.5 161.9724,-19.5 170.3722,-19.5"/>
<polygon fill="#191970" stroke="#191970" points="144.5976,-16.0001 134.5976,-19.5 144.5976,-23.0001 144.5976,-16.0001"/>
</g>
<!-- Node357 -->
<g id="node3" class="node">
<title>Node357</title>
<g id="a_node3"><a xlink:href="$namespaceanonymous__namespace_02struc__to__unstruc_8C_03.html#a1f676fd5f6a957f657aee10356750a70" xlink:title="anonymous_namespace\l\{struc_to_unstruc::C\}\l::create_unstructured">
<polygon fill="#ffffff" stroke="#000000" points="331.373,-.5 331.373,-38.5 456.333,-38.5 456.333,-.5 331.373,-.5"/>
<text text-anchor="start" x="339.373" y="-26.5" font-family="Helvetica,sans-Serif" font-size="10.00" fill="#000000">anonymous_namespace</text>
<text text-anchor="start" x="339.373" y="-16.5" font-family="Helvetica,sans-Serif" font-size="10.00" fill="#000000">{struc_to_unstruc::C}</text>
<text text-anchor="middle" x="393.853" y="-6.5" font-family="Helvetica,sans-Serif" font-size="10.00" fill="#000000">::create_unstructured</text>
</a>
</g>
</g>
<!-- Node356&#45;&gt;Node357 -->
<g id="edge2" class="edge">
<title>Node356&#45;&gt;Node357</title>
<path fill="none" stroke="#191970" d="M305.5934,-19.5C314.1857,-19.5 322.8975,-19.5 331.3319,-19.5"/>
<polygon fill="#191970" stroke="#191970" points="305.5853,-16.0001 295.5853,-19.5 305.5853,-23.0001 305.5853,-16.0001"/>
</g>
<!-- Node358 -->
<g id="node4" class="node">
<title>Node358</title>
<g id="a_node4"><a xlink:href="$struc__to__unstruc_8C.html#a0ddf1224851353fc92bfbff6f499fa97" xlink:title="main">
<polygon fill="#ffffff" stroke="#000000" points="492.333,-10.5 492.333,-28.5 530.0078,-28.5 530.0078,-10.5 492.333,-10.5"/>
<text text-anchor="middle" x="511.1704" y="-16.5" font-family="Helvetica,sans-Serif" font-size="10.00" fill="#000000">main</text>
</a>
</g>
</g>
<!-- Node357&#45;&gt;Node358 -->
<g id="edge3" class="edge">
<title>Node357&#45;&gt;Node358</title>
<path fill="none" stroke="#191970" d="M466.8604,-19.5C476.1448,-19.5 484.9183,-19.5 492.1706,-19.5"/>
<polygon fill="#191970" stroke="#191970" points="466.6332,-16.0001 456.6331,-19.5 466.6331,-23.0001 466.6332,-16.0001"/>
</g>
</g>
</svg>
