<?xml version="1.0" encoding="UTF-8" standalone="no"?>
<!DOCTYPE svg PUBLIC "-//W3C//DTD SVG 1.1//EN"
 "http://www.w3.org/Graphics/SVG/1.1/DTD/svg11.dtd">
<!-- Generated by graphviz version 2.40.1 (20161225.0304)
 -->
<!-- Title: tsl::hopscotch_map::insert Pages: 1 -->
<svg width="248pt" height="37pt"
 viewBox="0.00 0.00 248.31 37.00" xmlns="http://www.w3.org/2000/svg" xmlns:xlink="http://www.w3.org/1999/xlink">
<g id="graph0" class="graph" transform="scale(1 1) rotate(0) translate(4 33)">
<title>tsl::hopscotch_map::insert</title>
<polygon fill="#ffffff" stroke="transparent" points="-4,4 -4,-33 244.3145,-33 244.3145,4 -4,4"/>
<!-- Node170 -->
<g id="node1" class="node">
<title>Node170</title>
<polygon fill="#bfbfbf" stroke="#000000" points="0,-.5 0,-28.5 102.1572,-28.5 102.1572,-.5 0,-.5"/>
<text text-anchor="start" x="8" y="-16.5" font-family="Helvetica,sans-Serif" font-size="10.00" fill="#000000">tsl::hopscotch_map</text>
<text text-anchor="middle" x="51.0786" y="-6.5" font-family="Helvetica,sans-Serif" font-size="10.00" fill="#000000">::insert</text>
</g>
<!-- Node171 -->
<g id="node2" class="node">
<title>Node171</title>
<g id="a_node2"><a xlink:href="classtsl_1_1hopscotch__map.html#a7b4b191e8bea5b17ddded13a532eded7" target="_top" xlink:title="tsl::hopscotch_map\l::hopscotch_map">
<polygon fill="#ffffff" stroke="#000000" points="138.1572,-.5 138.1572,-28.5 240.3145,-28.5 240.3145,-.5 138.1572,-.5"/>
<text text-anchor="start" x="146.1572" y="-16.5" font-family="Helvetica,sans-Serif" font-size="10.00" fill="#000000">tsl::hopscotch_map</text>
<text text-anchor="middle" x="189.2358" y="-6.5" font-family="Helvetica,sans-Serif" font-size="10.00" fill="#000000">::hopscotch_map</text>
</a>
</g>
</g>
<!-- Node170&#45;&gt;Node171 -->
<g id="edge1" class="edge">
<title>Node170&#45;&gt;Node171</title>
<path fill="none" stroke="#191970" d="M112.6444,-14.5C121.0303,-14.5 129.5656,-14.5 137.7482,-14.5"/>
<polygon fill="#191970" stroke="#191970" points="112.5233,-11.0001 102.5233,-14.5 112.5232,-18.0001 112.5233,-11.0001"/>
</g>
</g>
</svg>
