<?xml version="1.0" encoding="UTF-8" standalone="no"?>
<!DOCTYPE svg PUBLIC "-//W3C//DTD SVG 1.1//EN"
 "http://www.w3.org/Graphics/SVG/1.1/DTD/svg11.dtd">
<!-- Generated by graphviz version 2.43.0 (0)
 -->
<!-- Title: text_style Pages: 1 -->
<svg width="141pt" height="177pt"
 viewBox="0.00 0.00 140.52 177.00" xmlns="http://www.w3.org/2000/svg" xmlns:xlink="http://www.w3.org/1999/xlink">
<g id="graph0" class="graph" transform="scale(1 1) rotate(0) translate(4 173)">
<title>text_style</title>
<polygon fill="white" stroke="transparent" points="-4,4 -4,-173 136.52,-173 136.52,4 -4,4"/>
<!-- Node1 -->
<g id="node1" class="node">
<title>Node1</title>
<g id="a_node1"><a xlink:title=" ">
<polygon fill="#bfbfbf" stroke="black" points="21.13,-0.5 21.13,-18.5 79.37,-18.5 79.37,-0.5 21.13,-0.5"/>
<text text-anchor="middle" x="50.25" y="-6.5" font-family="Helvetica,sans-Serif" font-size="10.00">text_style</text>
</a>
</g>
</g>
<!-- Node2 -->
<g id="node2" class="node">
<title>Node2</title>
<g id="a_node2"><a xlink:href="structinternal_1_1color__type.html" target="_top" xlink:title=" ">
<polygon fill="white" stroke="black" points="0,-75.5 0,-93.5 100.49,-93.5 100.49,-75.5 0,-75.5"/>
<text text-anchor="middle" x="50.25" y="-81.5" font-family="Helvetica,sans-Serif" font-size="10.00">internal::color_type</text>
</a>
</g>
</g>
<!-- Node2&#45;&gt;Node1 -->
<g id="edge1" class="edge">
<title>Node2&#45;&gt;Node1</title>
<path fill="none" stroke="#9a32cd" stroke-dasharray="5,2" d="M50.25,-65.35C50.25,-50.48 50.25,-30.12 50.25,-18.85"/>
<polygon fill="#9a32cd" stroke="#9a32cd" points="46.75,-65.41 50.25,-75.41 53.75,-65.41 46.75,-65.41"/>
<text text-anchor="middle" x="91.38" y="-49" font-family="Helvetica,sans-Serif" font-size="10.00"> background_color</text>
<text text-anchor="middle" x="91.38" y="-39" font-family="Helvetica,sans-Serif" font-size="10.00">foreground_color</text>
</g>
<!-- Node3 -->
<g id="node3" class="node">
<title>Node3</title>
<g id="a_node3"><a xlink:href="unioninternal_1_1color__type_1_1color__union.html" target="_top" xlink:title=" ">
<polygon fill="white" stroke="black" points="0,-140.5 0,-168.5 100.49,-168.5 100.49,-140.5 0,-140.5"/>
<text text-anchor="start" x="8" y="-156.5" font-family="Helvetica,sans-Serif" font-size="10.00">internal::color_type</text>
<text text-anchor="middle" x="50.25" y="-146.5" font-family="Helvetica,sans-Serif" font-size="10.00">::color_union</text>
</a>
</g>
</g>
<!-- Node3&#45;&gt;Node2 -->
<g id="edge2" class="edge">
<title>Node3&#45;&gt;Node2</title>
<path fill="none" stroke="#9a32cd" stroke-dasharray="5,2" d="M50.25,-130.1C50.25,-117.55 50.25,-102.85 50.25,-93.86"/>
<polygon fill="#9a32cd" stroke="#9a32cd" points="46.75,-130.39 50.25,-140.39 53.75,-130.39 46.75,-130.39"/>
<text text-anchor="middle" x="63.59" y="-114" font-family="Helvetica,sans-Serif" font-size="10.00"> value</text>
</g>
</g>
</svg>
