<?xml version="1.0" encoding="UTF-8" standalone="no"?>
<!DOCTYPE svg PUBLIC "-//W3C//DTD SVG 1.1//EN"
 "http://www.w3.org/Graphics/SVG/1.1/DTD/svg11.dtd">
<!-- Generated by graphviz version 2.43.0 (0)
 -->
<!-- Title: Ioss::ElementBlock Pages: 1 -->
<svg width="679pt" height="252pt"
 viewBox="0.00 0.00 679.10 252.00" xmlns="http://www.w3.org/2000/svg" xmlns:xlink="http://www.w3.org/1999/xlink">
<g id="graph0" class="graph" transform="scale(1 1) rotate(0) translate(4 248)">
<title>Ioss::ElementBlock</title>
<polygon fill="white" stroke="transparent" points="-4,4 -4,-248 675.1,-248 675.1,4 -4,4"/>
<!-- Node1 -->
<g id="node1" class="node">
<title>Node1</title>
<g id="a_node1"><a xlink:title="A collection of elements having the same topology.">
<polygon fill="#bfbfbf" stroke="black" points="0,-0.5 0,-18.5 101.03,-18.5 101.03,-0.5 0,-0.5"/>
<text text-anchor="middle" x="50.52" y="-6.5" font-family="Helvetica,sans-Serif" font-size="10.00">Ioss::ElementBlock</text>
</a>
</g>
</g>
<!-- Node2 -->
<g id="node2" class="node">
<title>Node2</title>
<g id="a_node2"><a xlink:href="classIoss_1_1EntityBlock.html" target="_top" xlink:title="Base class for all &#39;block&#39;&#45;type grouping entities, which means all members of the block are similar o...">
<polygon fill="white" stroke="black" points="5.84,-95.5 5.84,-113.5 95.2,-113.5 95.2,-95.5 5.84,-95.5"/>
<text text-anchor="middle" x="50.52" y="-101.5" font-family="Helvetica,sans-Serif" font-size="10.00">Ioss::EntityBlock</text>
</a>
</g>
</g>
<!-- Node2&#45;&gt;Node1 -->
<g id="edge1" class="edge">
<title>Node2&#45;&gt;Node1</title>
<path fill="none" stroke="midnightblue" d="M50.52,-85.12C50.52,-64.91 50.52,-33.35 50.52,-18.6"/>
<polygon fill="midnightblue" stroke="midnightblue" points="47.02,-85.25 50.52,-95.25 54.02,-85.25 47.02,-85.25"/>
</g>
<!-- Node3 -->
<g id="node3" class="node">
<title>Node3</title>
<g id="a_node3"><a xlink:href="classIoss_1_1GroupingEntity.html" target="_top" xlink:title="Base class for all &#39;grouping&#39; entities. The following derived classes are typical:">
<polygon fill="white" stroke="black" points="419.5,-160.5 419.5,-178.5 525.54,-178.5 525.54,-160.5 419.5,-160.5"/>
<text text-anchor="middle" x="472.52" y="-166.5" font-family="Helvetica,sans-Serif" font-size="10.00">Ioss::GroupingEntity</text>
</a>
</g>
</g>
<!-- Node3&#45;&gt;Node2 -->
<g id="edge2" class="edge">
<title>Node3&#45;&gt;Node2</title>
<path fill="none" stroke="midnightblue" d="M409.15,-159.04C322.96,-146.17 170.89,-123.47 95.5,-112.22"/>
<polygon fill="midnightblue" stroke="midnightblue" points="408.66,-162.51 419.07,-160.52 409.7,-155.58 408.66,-162.51"/>
</g>
<!-- Node5 -->
<g id="node5" class="node">
<title>Node5</title>
<g id="a_node5"><a xlink:href="classIoss_1_1Region.html" target="_top" xlink:title="A grouping entity that contains other grouping entities.">
<polygon fill="white" stroke="black" points="525.72,-95.5 525.72,-113.5 597.31,-113.5 597.31,-95.5 525.72,-95.5"/>
<text text-anchor="middle" x="561.52" y="-101.5" font-family="Helvetica,sans-Serif" font-size="10.00">Ioss::Region</text>
</a>
</g>
</g>
<!-- Node3&#45;&gt;Node5 -->
<g id="edge5" class="edge">
<title>Node3&#45;&gt;Node5</title>
<path fill="none" stroke="midnightblue" d="M492.67,-154.24C510.44,-141.66 535.69,-123.78 550.16,-113.54"/>
<polygon fill="midnightblue" stroke="midnightblue" points="490.29,-151.63 484.15,-160.26 494.34,-157.34 490.29,-151.63"/>
</g>
<!-- Node4 -->
<g id="node4" class="node">
<title>Node4</title>
<g id="a_node4"><a xlink:href="classIoss_1_1DatabaseIO.html" target="_top" xlink:title="An input or output Database.">
<polygon fill="white" stroke="black" points="370.89,-0.5 370.89,-18.5 464.15,-18.5 464.15,-0.5 370.89,-0.5"/>
<text text-anchor="middle" x="417.52" y="-6.5" font-family="Helvetica,sans-Serif" font-size="10.00">Ioss::DatabaseIO</text>
</a>
</g>
</g>
<!-- Node4&#45;&gt;Node3 -->
<g id="edge3" class="edge">
<title>Node4&#45;&gt;Node3</title>
<path fill="none" stroke="#9a32cd" stroke-dasharray="5,2" d="M425.8,-28.08C427.1,-31.03 428.39,-34.09 429.52,-37 447.35,-82.9 464.2,-139.61 470.2,-160.39"/>
<polygon fill="#9a32cd" stroke="#9a32cd" points="428.88,-26.39 421.54,-18.76 422.51,-29.31 428.88,-26.39"/>
<text text-anchor="middle" x="480.26" y="-101.5" font-family="Helvetica,sans-Serif" font-size="10.00"> database_</text>
</g>
<!-- Node5&#45;&gt;Node4 -->
<g id="edge4" class="edge">
<title>Node5&#45;&gt;Node4</title>
<path fill="none" stroke="#9a32cd" stroke-dasharray="5,2" d="M543.96,-88.78C526.5,-74.54 498.64,-52.85 472.52,-37 461.01,-30.02 447.38,-23.44 436.57,-18.59"/>
<polygon fill="#9a32cd" stroke="#9a32cd" points="542.13,-91.81 552.07,-95.48 546.59,-86.41 542.13,-91.81"/>
<text text-anchor="middle" x="546.59" y="-54" font-family="Helvetica,sans-Serif" font-size="10.00"> region_</text>
</g>
<!-- Node6 -->
<g id="node6" class="node">
<title>Node6</title>
<g id="a_node6"><a xlink:href="classIoss_1_1Map.html" target="_top" xlink:title=" ">
<polygon fill="white" stroke="black" points="252.84,-95.5 252.84,-113.5 312.19,-113.5 312.19,-95.5 252.84,-95.5"/>
<text text-anchor="middle" x="282.52" y="-101.5" font-family="Helvetica,sans-Serif" font-size="10.00">Ioss::Map</text>
</a>
</g>
</g>
<!-- Node6&#45;&gt;Node4 -->
<g id="edge6" class="edge">
<title>Node6&#45;&gt;Node4</title>
<path fill="none" stroke="#9a32cd" stroke-dasharray="5,2" d="M293.28,-87.02C303.82,-72.06 321.16,-50.35 341.04,-37 353.41,-28.7 368.64,-22.73 382.25,-18.58"/>
<polygon fill="#9a32cd" stroke="#9a32cd" points="290.35,-85.09 287.63,-95.33 296.15,-89.02 290.35,-85.09"/>
<text text-anchor="middle" x="363.76" y="-69" font-family="Helvetica,sans-Serif" font-size="10.00"> nodeMap</text>
<text text-anchor="middle" x="363.76" y="-59" font-family="Helvetica,sans-Serif" font-size="10.00">elemMap</text>
<text text-anchor="middle" x="363.76" y="-49" font-family="Helvetica,sans-Serif" font-size="10.00">faceMap</text>
<text text-anchor="middle" x="363.76" y="-39" font-family="Helvetica,sans-Serif" font-size="10.00">edgeMap</text>
</g>
<!-- Node7 -->
<g id="node7" class="node">
<title>Node7</title>
<g id="a_node7"><a xlink:href="classIoss_1_1ParallelUtils.html" target="_top" xlink:title=" ">
<polygon fill="white" stroke="black" points="330.17,-95.5 330.17,-113.5 422.86,-113.5 422.86,-95.5 330.17,-95.5"/>
<text text-anchor="middle" x="376.52" y="-101.5" font-family="Helvetica,sans-Serif" font-size="10.00">Ioss::ParallelUtils</text>
</a>
</g>
</g>
<!-- Node7&#45;&gt;Node4 -->
<g id="edge7" class="edge">
<title>Node7&#45;&gt;Node4</title>
<path fill="none" stroke="#9a32cd" stroke-dasharray="5,2" d="M384.25,-85.96C393.14,-65.79 407.35,-33.55 413.95,-18.6"/>
<polygon fill="#9a32cd" stroke="#9a32cd" points="380.99,-84.68 380.16,-95.25 387.39,-87.51 380.99,-84.68"/>
<text text-anchor="middle" x="415.08" y="-54" font-family="Helvetica,sans-Serif" font-size="10.00"> util_</text>
</g>
<!-- Node8 -->
<g id="node8" class="node">
<title>Node8</title>
<g id="a_node8"><a xlink:href="classIoss_1_1PropertyManager.html" target="_top" xlink:title="A collection of Ioss::Property objects.">
<polygon fill="white" stroke="black" points="553.94,-225.5 553.94,-243.5 671.1,-243.5 671.1,-225.5 553.94,-225.5"/>
<text text-anchor="middle" x="612.52" y="-231.5" font-family="Helvetica,sans-Serif" font-size="10.00">Ioss::PropertyManager</text>
</a>
</g>
</g>
<!-- Node8&#45;&gt;Node3 -->
<g id="edge11" class="edge">
<title>Node8&#45;&gt;Node3</title>
<path fill="none" stroke="#9a32cd" stroke-dasharray="5,2" d="M585.27,-221.24C557.27,-208.64 514.47,-189.38 490.46,-178.58"/>
<polygon fill="#9a32cd" stroke="#9a32cd" points="583.95,-224.48 594.5,-225.39 586.82,-218.1 583.95,-224.48"/>
<text text-anchor="middle" x="574.14" y="-199" font-family="Helvetica,sans-Serif" font-size="10.00"> properties</text>
</g>
<!-- Node8&#45;&gt;Node4 -->
<g id="edge8" class="edge">
<title>Node8&#45;&gt;Node4</title>
<path fill="none" stroke="#9a32cd" stroke-dasharray="5,2" d="M615.45,-215.33C620.88,-174.41 627.11,-75.58 568.52,-37 551.73,-25.95 502.21,-18.72 464.42,-14.64"/>
<polygon fill="#9a32cd" stroke="#9a32cd" points="611.96,-215.04 613.96,-225.44 618.88,-216.06 611.96,-215.04"/>
<text text-anchor="middle" x="641.14" y="-134" font-family="Helvetica,sans-Serif" font-size="10.00"> properties</text>
</g>
<!-- Node9 -->
<g id="node9" class="node">
<title>Node9</title>
<g id="a_node9"><a xlink:href="classIoss_1_1ElementTopology.html" target="_top" xlink:title="Represents an element topology.">
<polygon fill="white" stroke="black" points="32.21,-160.5 32.21,-178.5 148.82,-178.5 148.82,-160.5 32.21,-160.5"/>
<text text-anchor="middle" x="90.52" y="-166.5" font-family="Helvetica,sans-Serif" font-size="10.00">Ioss::ElementTopology</text>
</a>
</g>
</g>
<!-- Node9&#45;&gt;Node2 -->
<g id="edge12" class="edge">
<title>Node9&#45;&gt;Node2</title>
<path fill="none" stroke="#9a32cd" stroke-dasharray="5,2" d="M60.2,-154.86C55.45,-151.36 51.19,-147.11 48.37,-142 43.52,-133.22 45.47,-121.38 47.68,-113.59"/>
<polygon fill="#9a32cd" stroke="#9a32cd" points="58.73,-158.06 69.07,-160.36 62.42,-152.12 58.73,-158.06"/>
<text text-anchor="middle" x="71.59" y="-134" font-family="Helvetica,sans-Serif" font-size="10.00"> topology_</text>
</g>
<!-- Node9&#45;&gt;Node4 -->
<g id="edge9" class="edge">
<title>Node9&#45;&gt;Node4</title>
<path fill="none" stroke="#9a32cd" stroke-dasharray="5,2" d="M98.74,-151.37C107.46,-134.85 122.69,-110.17 142.35,-95 210.7,-42.26 312.11,-22.22 370.83,-14.77"/>
<polygon fill="#9a32cd" stroke="#9a32cd" points="95.54,-149.94 94.17,-160.45 101.79,-153.09 95.54,-149.94"/>
<text text-anchor="middle" x="193.1" y="-101.5" font-family="Helvetica,sans-Serif" font-size="10.00"> commonSideTopology</text>
</g>
<!-- Node10 -->
<g id="node10" class="node">
<title>Node10</title>
<g id="a_node10"><a xlink:href="classIoss_1_1FieldManager.html" target="_top" xlink:title="A collection of Ioss::Field objects.">
<polygon fill="white" stroke="black" points="422,-225.5 422,-243.5 523.04,-243.5 523.04,-225.5 422,-225.5"/>
<text text-anchor="middle" x="472.52" y="-231.5" font-family="Helvetica,sans-Serif" font-size="10.00">Ioss::FieldManager</text>
</a>
</g>
</g>
<!-- Node10&#45;&gt;Node3 -->
<g id="edge10" class="edge">
<title>Node10&#45;&gt;Node3</title>
<path fill="none" stroke="#9a32cd" stroke-dasharray="5,2" d="M472.52,-214.91C472.52,-202.81 472.52,-187.65 472.52,-178.54"/>
<polygon fill="#9a32cd" stroke="#9a32cd" points="469.02,-215.26 472.52,-225.26 476.02,-215.26 469.02,-215.26"/>
<text text-anchor="middle" x="485.58" y="-199" font-family="Helvetica,sans-Serif" font-size="10.00"> fields</text>
</g>
</g>
</svg>
