<?xml version="1.0" encoding="UTF-8" standalone="no"?>
<!DOCTYPE svg PUBLIC "-//W3C//DTD SVG 1.1//EN"
 "http://www.w3.org/Graphics/SVG/1.1/DTD/svg11.dtd">
<!-- Generated by graphviz version 2.40.1 (20161225.0304)
 -->
<!-- Title: tsl::robin_map::max_load_factor Pages: 1 -->
<svg width="267pt" height="47pt"
 viewBox="0.00 0.00 267.21 47.00" xmlns="http://www.w3.org/2000/svg" xmlns:xlink="http://www.w3.org/1999/xlink">
<g id="graph0" class="graph" transform="scale(1 1) rotate(0) translate(4 43)">
<title>tsl::robin_map::max_load_factor</title>
<polygon fill="#ffffff" stroke="transparent" points="-4,4 -4,-43 263.2109,-43 263.2109,4 -4,4"/>
<!-- Node217 -->
<g id="node1" class="node">
<title>Node217</title>
<polygon fill="#bfbfbf" stroke="#000000" points="0,-5.5 0,-33.5 103.2559,-33.5 103.2559,-5.5 0,-5.5"/>
<text text-anchor="start" x="8" y="-21.5" font-family="Helvetica,sans-Serif" font-size="10.00" fill="#000000">tsl::robin_map::max</text>
<text text-anchor="middle" x="51.6279" y="-11.5" font-family="Helvetica,sans-Serif" font-size="10.00" fill="#000000">_load_factor</text>
</g>
<!-- Node218 -->
<g id="node2" class="node">
<title>Node218</title>
<g id="a_node2"><a xlink:href="classtsl_1_1detail__robin__hash_1_1robin__hash.html#a967995c9781b76a6134733d104fd1893" target="_top" xlink:title="tsl::detail_robin_hash\l::robin_hash::max_load\l_factor">
<polygon fill="#ffffff" stroke="#000000" points="139.2559,-.5 139.2559,-38.5 259.2109,-38.5 259.2109,-.5 139.2559,-.5"/>
<text text-anchor="start" x="147.2559" y="-26.5" font-family="Helvetica,sans-Serif" font-size="10.00" fill="#000000">tsl::detail_robin_hash</text>
<text text-anchor="start" x="147.2559" y="-16.5" font-family="Helvetica,sans-Serif" font-size="10.00" fill="#000000">::robin_hash::max_load</text>
<text text-anchor="middle" x="199.2334" y="-6.5" font-family="Helvetica,sans-Serif" font-size="10.00" fill="#000000">_factor</text>
</a>
</g>
</g>
<!-- Node217&#45;&gt;Node218 -->
<g id="edge1" class="edge">
<title>Node217&#45;&gt;Node218</title>
<path fill="none" stroke="#191970" d="M103.6681,-19.5C111.8113,-19.5 120.3426,-19.5 128.8144,-19.5"/>
<polygon fill="#191970" stroke="#191970" points="129.0885,-23.0001 139.0885,-19.5 129.0885,-16.0001 129.0885,-23.0001"/>
</g>
</g>
</svg>
