<?xml version="1.0" encoding="UTF-8" standalone="no"?>
<!DOCTYPE svg PUBLIC "-//W3C//DTD SVG 1.1//EN"
 "http://www.w3.org/Graphics/SVG/1.1/DTD/svg11.dtd">
<!-- Generated by graphviz version 2.40.1 (20161225.0304)
 -->
<!-- Title: Iotr::Scale_Factory::factory Pages: 1 -->
<svg width="225pt" height="37pt"
 viewBox="0.00 0.00 224.94 37.00" xmlns="http://www.w3.org/2000/svg" xmlns:xlink="http://www.w3.org/1999/xlink">
<g id="graph0" class="graph" transform="scale(1 1) rotate(0) translate(4 33)">
<title>Iotr::Scale_Factory::factory</title>
<polygon fill="#ffffff" stroke="transparent" points="-4,4 -4,-33 220.9404,-33 220.9404,4 -4,4"/>
<!-- Node5 -->
<g id="node1" class="node">
<title>Node5</title>
<polygon fill="#bfbfbf" stroke="#000000" points="0,-.5 0,-28.5 99.9209,-28.5 99.9209,-.5 0,-.5"/>
<text text-anchor="start" x="8" y="-16.5" font-family="Helvetica,sans-Serif" font-size="10.00" fill="#000000">Iotr::Scale_Factory</text>
<text text-anchor="middle" x="49.9604" y="-6.5" font-family="Helvetica,sans-Serif" font-size="10.00" fill="#000000">::factory</text>
</g>
<!-- Node6 -->
<g id="node2" class="node">
<title>Node6</title>
<g id="a_node2"><a xlink:href="classIotr_1_1Initializer.html#a0230a0d68b9893d18cb136ec7a2b4aac" target="_top" xlink:title="Iotr::Initializer::\lInitializer">
<polygon fill="#ffffff" stroke="#000000" points="135.9209,-.5 135.9209,-28.5 216.9404,-28.5 216.9404,-.5 135.9209,-.5"/>
<text text-anchor="start" x="143.9209" y="-16.5" font-family="Helvetica,sans-Serif" font-size="10.00" fill="#000000">Iotr::Initializer::</text>
<text text-anchor="middle" x="176.4307" y="-6.5" font-family="Helvetica,sans-Serif" font-size="10.00" fill="#000000">Initializer</text>
</a>
</g>
</g>
<!-- Node5&#45;&gt;Node6 -->
<g id="edge1" class="edge">
<title>Node5&#45;&gt;Node6</title>
<path fill="none" stroke="#191970" d="M110.0802,-14.5C118.7786,-14.5 127.5558,-14.5 135.7512,-14.5"/>
<polygon fill="#191970" stroke="#191970" points="109.9449,-11.0001 99.9448,-14.5 109.9448,-18.0001 109.9449,-11.0001"/>
</g>
</g>
</svg>
