<?xml version="1.0" encoding="UTF-8" standalone="no"?>
<!DOCTYPE svg PUBLIC "-//W3C//DTD SVG 1.1//EN"
 "http://www.w3.org/Graphics/SVG/1.1/DTD/svg11.dtd">
<!-- Generated by graphviz version 2.40.1 (20161225.0304)
 -->
<!-- Title: Ioss::Field::is_valid Pages: 1 -->
<svg width="1236pt" height="744pt"
 viewBox="0.00 0.00 1235.69 744.35" xmlns="http://www.w3.org/2000/svg" xmlns:xlink="http://www.w3.org/1999/xlink">
<g id="graph0" class="graph" transform="scale(1 1) rotate(0) translate(4 740.3461)">
<title>Ioss::Field::is_valid</title>
<polygon fill="#ffffff" stroke="transparent" points="-4,4 -4,-740.3461 1231.6855,-740.3461 1231.6855,4 -4,4"/>
<!-- Node546 -->
<g id="node1" class="node">
<title>Node546</title>
<polygon fill="#bfbfbf" stroke="#000000" points="0,-344.8461 0,-362.8461 100.4775,-362.8461 100.4775,-344.8461 0,-344.8461"/>
<text text-anchor="middle" x="50.2388" y="-350.8461" font-family="Helvetica,sans-Serif" font-size="10.00" fill="#000000">Ioss::Field::is_valid</text>
</g>
<!-- Node547 -->
<g id="node2" class="node">
<title>Node547</title>
<g id="a_node2"><a xlink:href="namespaceanonymous__namespace_02Ioss__Utils_8C_03.html#af221385fb78d9efeb911ee7caa72a854" target="_top" xlink:title="anonymous_namespace\l\{Ioss_Utils::C\}::define_field">
<polygon fill="#ffffff" stroke="#000000" points="136.4775,-318.8461 136.4775,-346.8461 271.9893,-346.8461 271.9893,-318.8461 136.4775,-318.8461"/>
<text text-anchor="start" x="144.4775" y="-334.8461" font-family="Helvetica,sans-Serif" font-size="10.00" fill="#000000">anonymous_namespace</text>
<text text-anchor="middle" x="204.2334" y="-324.8461" font-family="Helvetica,sans-Serif" font-size="10.00" fill="#000000">{Ioss_Utils::C}::define_field</text>
</a>
</g>
</g>
<!-- Node546&#45;&gt;Node547 -->
<g id="edge1" class="edge">
<title>Node546&#45;&gt;Node547</title>
<path fill="none" stroke="#191970" d="M110.7447,-345.595C119.1456,-344.4494 127.8213,-343.2663 136.3459,-342.1038"/>
<polygon fill="#191970" stroke="#191970" points="110.0977,-342.1508 100.6624,-346.9699 111.0436,-349.0866 110.0977,-342.1508"/>
</g>
<!-- Node548 -->
<g id="node3" class="node">
<title>Node548</title>
<g id="a_node3"><a xlink:href="classIoss_1_1Utils.html#a5ceff6a2feab85fa57da7cebcc443deb" target="_top" xlink:title="Ioss::Utils::get_fields">
<polygon fill="#ffffff" stroke="#000000" points="307.9893,-344.8461 307.9893,-362.8461 415.6934,-362.8461 415.6934,-344.8461 307.9893,-344.8461"/>
<text text-anchor="middle" x="361.8413" y="-350.8461" font-family="Helvetica,sans-Serif" font-size="10.00" fill="#000000">Ioss::Utils::get_fields</text>
</a>
</g>
</g>
<!-- Node546&#45;&gt;Node548 -->
<g id="edge54" class="edge">
<title>Node546&#45;&gt;Node548</title>
<path fill="none" stroke="#191970" d="M110.8536,-355.429C119.4549,-355.602 128.1898,-355.75 136.4775,-355.8461 196.7009,-356.5444 211.7656,-356.5163 271.9893,-355.8461 283.5349,-355.7176 295.9135,-355.4963 307.6788,-355.2466"/>
<polygon fill="#191970" stroke="#191970" points="110.9249,-351.9298 100.8526,-355.2161 110.7758,-358.9282 110.9249,-351.9298"/>
</g>
<!-- Node547&#45;&gt;Node548 -->
<g id="edge2" class="edge">
<title>Node547&#45;&gt;Node548</title>
<path fill="none" stroke="#191970" d="M282.4661,-343.27C291.026,-344.4105 299.5949,-345.5523 307.7687,-346.6414"/>
<polygon fill="#191970" stroke="#191970" points="282.8206,-339.7864 272.4459,-341.9349 281.896,-346.7251 282.8206,-339.7864"/>
</g>
<!-- Node549 -->
<g id="node4" class="node">
<title>Node549</title>
<g id="a_node4"><a xlink:href="classIocgns_1_1Utils.html#ad21b98f36426a1b2a2f45742035b4c23" target="_top" xlink:title="Iocgns::Utils::add\l_transient_variables">
<polygon fill="#ffffff" stroke="#000000" points="465.0332,-386.8461 465.0332,-414.8461 570.5303,-414.8461 570.5303,-386.8461 465.0332,-386.8461"/>
<text text-anchor="start" x="473.0332" y="-402.8461" font-family="Helvetica,sans-Serif" font-size="10.00" fill="#000000">Iocgns::Utils::add</text>
<text text-anchor="middle" x="517.7817" y="-392.8461" font-family="Helvetica,sans-Serif" font-size="10.00" fill="#000000">_transient_variables</text>
</a>
</g>
</g>
<!-- Node548&#45;&gt;Node549 -->
<g id="edge3" class="edge">
<title>Node548&#45;&gt;Node549</title>
<path fill="none" stroke="#191970" d="M401.5789,-365.8229C422.805,-372.2204 449.0549,-380.132 471.2321,-386.8162"/>
<polygon fill="#191970" stroke="#191970" points="402.4928,-362.4429 391.9082,-362.9082 400.4727,-369.1451 402.4928,-362.4429"/>
</g>
<!-- Node552 -->
<g id="node7" class="node">
<title>Node552</title>
<g id="a_node7"><a xlink:href="classIoex_1_1DatabaseIO.html#af8302d2f60ebd0acdaa212ca6ae21d75" target="_top" xlink:title="Ioex::DatabaseIO::internal\l_add_results_fields">
<polygon fill="#ffffff" stroke="#000000" points="451.6934,-339.8461 451.6934,-367.8461 583.8701,-367.8461 583.8701,-339.8461 451.6934,-339.8461"/>
<text text-anchor="start" x="459.6934" y="-355.8461" font-family="Helvetica,sans-Serif" font-size="10.00" fill="#000000">Ioex::DatabaseIO::internal</text>
<text text-anchor="middle" x="517.7817" y="-345.8461" font-family="Helvetica,sans-Serif" font-size="10.00" fill="#000000">_add_results_fields</text>
</a>
</g>
</g>
<!-- Node548&#45;&gt;Node552 -->
<g id="edge6" class="edge">
<title>Node548&#45;&gt;Node552</title>
<path fill="none" stroke="#191970" d="M426.1025,-353.8461C434.5434,-353.8461 443.2055,-353.8461 451.6763,-353.8461"/>
<polygon fill="#191970" stroke="#191970" points="425.9441,-350.3462 415.9441,-353.8461 425.944,-357.3462 425.9441,-350.3462"/>
</g>
<!-- Node576 -->
<g id="node31" class="node">
<title>Node576</title>
<g id="a_node31"><a xlink:href="classIoex_1_1DatabaseIO.html#a842ea33b8ef486bc3df95240fe706418" target="_top" xlink:title="Ioex::DatabaseIO::add\l_attribute_fields">
<polygon fill="#ffffff" stroke="#000000" points="625.4268,-292.8461 625.4268,-320.8461 741.4902,-320.8461 741.4902,-292.8461 625.4268,-292.8461"/>
<text text-anchor="start" x="633.4268" y="-308.8461" font-family="Helvetica,sans-Serif" font-size="10.00" fill="#000000">Ioex::DatabaseIO::add</text>
<text text-anchor="middle" x="683.4585" y="-298.8461" font-family="Helvetica,sans-Serif" font-size="10.00" fill="#000000">_attribute_fields</text>
</a>
</g>
</g>
<!-- Node548&#45;&gt;Node576 -->
<g id="edge46" class="edge">
<title>Node548&#45;&gt;Node576</title>
<path fill="none" stroke="#191970" d="M400.9723,-341.9158C416.6178,-337.5351 434.8833,-332.9044 451.6934,-329.8461 510.1724,-319.2069 577.9112,-313.2025 624.9933,-310.0181"/>
<polygon fill="#191970" stroke="#191970" points="399.7611,-338.6218 391.1109,-344.7394 401.688,-345.3514 399.7611,-338.6218"/>
</g>
<!-- Node550 -->
<g id="node5" class="node">
<title>Node550</title>
<g id="a_node5"><a xlink:href="classIocgns_1_1DatabaseIO.html#aefeff18c6c405f13bd79260ee41678de" target="_top" xlink:title="Iocgns::DatabaseIO\l::read_meta_data__">
<polygon fill="#ffffff" stroke="#000000" points="630.7026,-433.8461 630.7026,-461.8461 736.2144,-461.8461 736.2144,-433.8461 630.7026,-433.8461"/>
<text text-anchor="start" x="638.7026" y="-449.8461" font-family="Helvetica,sans-Serif" font-size="10.00" fill="#000000">Iocgns::DatabaseIO</text>
<text text-anchor="middle" x="683.4585" y="-439.8461" font-family="Helvetica,sans-Serif" font-size="10.00" fill="#000000">::read_meta_data__</text>
</a>
</g>
</g>
<!-- Node549&#45;&gt;Node550 -->
<g id="edge4" class="edge">
<title>Node549&#45;&gt;Node550</title>
<path fill="none" stroke="#191970" d="M577.3313,-417.7394C595.9352,-423.0171 616.2449,-428.7786 634.0708,-433.8356"/>
<polygon fill="#191970" stroke="#191970" points="578.0658,-414.3098 567.4902,-414.9477 576.1554,-421.044 578.0658,-414.3098"/>
</g>
<!-- Node551 -->
<g id="node6" class="node">
<title>Node551</title>
<g id="a_node6"><a xlink:href="classIocgns_1_1ParallelDatabaseIO.html#ac4401b921f83ec0976dd53675e80d2c8" target="_top" xlink:title="Iocgns::ParallelDatabase\lIO::read_meta_data__">
<polygon fill="#ffffff" stroke="#000000" points="619.8701,-386.8461 619.8701,-414.8461 747.0469,-414.8461 747.0469,-386.8461 619.8701,-386.8461"/>
<text text-anchor="start" x="627.8701" y="-402.8461" font-family="Helvetica,sans-Serif" font-size="10.00" fill="#000000">Iocgns::ParallelDatabase</text>
<text text-anchor="middle" x="683.4585" y="-392.8461" font-family="Helvetica,sans-Serif" font-size="10.00" fill="#000000">IO::read_meta_data__</text>
</a>
</g>
</g>
<!-- Node549&#45;&gt;Node551 -->
<g id="edge5" class="edge">
<title>Node549&#45;&gt;Node551</title>
<path fill="none" stroke="#191970" d="M580.7407,-400.8461C593.5232,-400.8461 606.9769,-400.8461 619.7839,-400.8461"/>
<polygon fill="#191970" stroke="#191970" points="580.6585,-397.3462 570.6584,-400.8461 580.6584,-404.3462 580.6585,-397.3462"/>
</g>
<!-- Node553 -->
<g id="node8" class="node">
<title>Node553</title>
<g id="a_node8"><a xlink:href="classIoex_1_1DatabaseIO.html#ac57e5ba46ec8c43b217ab820c430803b" target="_top" xlink:title="Ioex::DatabaseIO::add\l_results_fields">
<polygon fill="#ffffff" stroke="#000000" points="625.4268,-339.8461 625.4268,-367.8461 741.4902,-367.8461 741.4902,-339.8461 625.4268,-339.8461"/>
<text text-anchor="start" x="633.4268" y="-355.8461" font-family="Helvetica,sans-Serif" font-size="10.00" fill="#000000">Ioex::DatabaseIO::add</text>
<text text-anchor="middle" x="683.4585" y="-345.8461" font-family="Helvetica,sans-Serif" font-size="10.00" fill="#000000">_results_fields</text>
</a>
</g>
</g>
<!-- Node552&#45;&gt;Node553 -->
<g id="edge7" class="edge">
<title>Node552&#45;&gt;Node553</title>
<path fill="none" stroke="#191970" d="M594.5005,-353.8461C604.8536,-353.8461 615.3349,-353.8461 625.2928,-353.8461"/>
<polygon fill="#191970" stroke="#191970" points="594.2142,-350.3462 584.2142,-353.8461 594.2142,-357.3462 594.2142,-350.3462"/>
</g>
<!-- Node554 -->
<g id="node9" class="node">
<title>Node554</title>
<g id="a_node9"><a xlink:href="classIofx_1_1DatabaseIO.html#a78baca50e8ed293624236a1b497f69b3" target="_top" xlink:title="Iofx::DatabaseIO::get\l_blocks">
<polygon fill="#ffffff" stroke="#000000" points="796.3892,-613.8461 796.3892,-641.8461 906.8862,-641.8461 906.8862,-613.8461 796.3892,-613.8461"/>
<text text-anchor="start" x="804.3892" y="-629.8461" font-family="Helvetica,sans-Serif" font-size="10.00" fill="#000000">Iofx::DatabaseIO::get</text>
<text text-anchor="middle" x="851.6377" y="-619.8461" font-family="Helvetica,sans-Serif" font-size="10.00" fill="#000000">_blocks</text>
</a>
</g>
</g>
<!-- Node553&#45;&gt;Node554 -->
<g id="edge8" class="edge">
<title>Node553&#45;&gt;Node554</title>
<path fill="none" stroke="#191970" d="M743.5662,-373.7843C744.7742,-374.7573 745.9372,-375.7771 747.0469,-376.8461 777.776,-406.4495 766.7282,-426.421 783.0469,-465.8461 805.7076,-520.5933 833.4135,-585.3976 845.5044,-613.576"/>
<polygon fill="#191970" stroke="#191970" points="745.276,-370.7157 735.0297,-368.0207 741.359,-376.5172 745.276,-370.7157"/>
</g>
<!-- Node559 -->
<g id="node14" class="node">
<title>Node559</title>
<g id="a_node14"><a xlink:href="classIofx_1_1DatabaseIO.html#a27da0e50c4bfa4895ac1693a8368ed60" target="_top" xlink:title="Iofx::DatabaseIO::get\l_sidesets">
<polygon fill="#ffffff" stroke="#000000" points="796.3892,-428.8461 796.3892,-456.8461 906.8862,-456.8461 906.8862,-428.8461 796.3892,-428.8461"/>
<text text-anchor="start" x="804.3892" y="-444.8461" font-family="Helvetica,sans-Serif" font-size="10.00" fill="#000000">Iofx::DatabaseIO::get</text>
<text text-anchor="middle" x="851.6377" y="-434.8461" font-family="Helvetica,sans-Serif" font-size="10.00" fill="#000000">_sidesets</text>
</a>
</g>
</g>
<!-- Node553&#45;&gt;Node559 -->
<g id="edge15" class="edge">
<title>Node553&#45;&gt;Node559</title>
<path fill="none" stroke="#191970" d="M740.0443,-372.4888C742.4677,-373.8528 744.8149,-375.304 747.0469,-376.8461 767.2738,-390.8216 762.747,-404.9767 783.0469,-418.8461 788.672,-422.6893 794.9759,-425.9791 801.4221,-428.7778"/>
<polygon fill="#191970" stroke="#191970" points="741.5094,-369.3077 731.0053,-367.924 738.3539,-375.5562 741.5094,-369.3077"/>
</g>
<!-- Node560 -->
<g id="node15" class="node">
<title>Node560</title>
<g id="a_node15"><a xlink:href="classIofx_1_1DatabaseIO.html#a55086ffce615e225095187fcf880c8bb" target="_top" xlink:title="Iofx::DatabaseIO::get_sets">
<polygon fill="#ffffff" stroke="#000000" points="784.4385,-391.8461 784.4385,-409.8461 918.8369,-409.8461 918.8369,-391.8461 784.4385,-391.8461"/>
<text text-anchor="middle" x="851.6377" y="-397.8461" font-family="Helvetica,sans-Serif" font-size="10.00" fill="#000000">Iofx::DatabaseIO::get_sets</text>
</a>
</g>
</g>
<!-- Node553&#45;&gt;Node560 -->
<g id="edge17" class="edge">
<title>Node553&#45;&gt;Node560</title>
<path fill="none" stroke="#191970" d="M743.8615,-370.7266C769.3106,-377.8387 797.9113,-385.8315 819.2515,-391.7953"/>
<polygon fill="#191970" stroke="#191970" points="744.4908,-367.2684 733.9178,-367.9477 742.6067,-374.0101 744.4908,-367.2684"/>
</g>
<!-- Node565 -->
<g id="node20" class="node">
<title>Node565</title>
<g id="a_node20"><a xlink:href="classIopx_1_1DatabaseIO.html#a745e72869a9065d9f74f548a61262823" target="_top" xlink:title="Iopx::DatabaseIO::get\l_blocks">
<polygon fill="#ffffff" stroke="#000000" points="794.9976,-191.8461 794.9976,-219.8461 908.2778,-219.8461 908.2778,-191.8461 794.9976,-191.8461"/>
<text text-anchor="start" x="802.9976" y="-207.8461" font-family="Helvetica,sans-Serif" font-size="10.00" fill="#000000">Iopx::DatabaseIO::get</text>
<text text-anchor="middle" x="851.6377" y="-197.8461" font-family="Helvetica,sans-Serif" font-size="10.00" fill="#000000">_blocks</text>
</a>
</g>
</g>
<!-- Node553&#45;&gt;Node565 -->
<g id="edge26" class="edge">
<title>Node553&#45;&gt;Node565</title>
<path fill="none" stroke="#191970" d="M742.499,-333.9485C744.0985,-332.6644 745.621,-331.2987 747.0469,-329.8461 780.431,-295.8386 749.0334,-262.2242 783.0469,-228.8461 786.543,-225.4153 790.5658,-222.496 794.8737,-220.012"/>
<polygon fill="#191970" stroke="#191970" points="740.2849,-331.22 733.9492,-339.7118 744.1976,-337.0244 740.2849,-331.22"/>
</g>
<!-- Node568 -->
<g id="node23" class="node">
<title>Node568</title>
<g id="a_node23"><a xlink:href="classIopx_1_1DatabaseIO.html#a8817ac53c20c2bc6d7e3285beb718268" target="_top" xlink:title="Iopx::DatabaseIO::get\l_sidesets">
<polygon fill="#ffffff" stroke="#000000" points="794.9976,-144.8461 794.9976,-172.8461 908.2778,-172.8461 908.2778,-144.8461 794.9976,-144.8461"/>
<text text-anchor="start" x="802.9976" y="-160.8461" font-family="Helvetica,sans-Serif" font-size="10.00" fill="#000000">Iopx::DatabaseIO::get</text>
<text text-anchor="middle" x="851.6377" y="-150.8461" font-family="Helvetica,sans-Serif" font-size="10.00" fill="#000000">_sidesets</text>
</a>
</g>
</g>
<!-- Node553&#45;&gt;Node568 -->
<g id="edge29" class="edge">
<title>Node553&#45;&gt;Node568</title>
<path fill="none" stroke="#191970" d="M743.2665,-333.6379C744.5996,-332.4454 745.8644,-331.1829 747.0469,-329.8461 791.9005,-279.1424 737.254,-231.7032 783.0469,-181.8461 786.4453,-178.1461 790.4563,-175.0408 794.8055,-172.4347"/>
<polygon fill="#191970" stroke="#191970" points="740.9637,-330.9867 734.9798,-339.7299 745.11,-336.6267 740.9637,-330.9867"/>
</g>
<!-- Node569 -->
<g id="node24" class="node">
<title>Node569</title>
<g id="a_node24"><a xlink:href="classIopx_1_1DatabaseIO.html#a6edefcd1db4d70995c9c6de9be5e968d" target="_top" xlink:title="Iopx::DatabaseIO::get_sets">
<polygon fill="#ffffff" stroke="#000000" points="783.0469,-238.8461 783.0469,-256.8461 920.2285,-256.8461 920.2285,-238.8461 783.0469,-238.8461"/>
<text text-anchor="middle" x="851.6377" y="-244.8461" font-family="Helvetica,sans-Serif" font-size="10.00" fill="#000000">Iopx::DatabaseIO::get_sets</text>
</a>
</g>
</g>
<!-- Node553&#45;&gt;Node569 -->
<g id="edge31" class="edge">
<title>Node553&#45;&gt;Node569</title>
<path fill="none" stroke="#191970" d="M738.7294,-335.1771C741.6272,-333.5287 744.422,-331.7539 747.0469,-329.8461 767.7654,-314.7882 763.3812,-301.2553 783.0469,-284.8461 797.0716,-273.1437 815.3791,-263.4943 829.5523,-256.987"/>
<polygon fill="#191970" stroke="#191970" points="737.1013,-332.0786 729.7937,-339.7499 740.2902,-338.31 737.1013,-332.0786"/>
</g>
<!-- Node574 -->
<g id="node29" class="node">
<title>Node574</title>
<g id="a_node29"><a xlink:href="classIoex_1_1DatabaseIO.html#abbf608900e50b190d274d618dfdca0dc" target="_top" xlink:title="Ioex::DatabaseIO::get\l_nodeblocks">
<polygon fill="#ffffff" stroke="#000000" points="794.9976,-294.8461 794.9976,-322.8461 908.2778,-322.8461 908.2778,-294.8461 794.9976,-294.8461"/>
<text text-anchor="start" x="802.9976" y="-310.8461" font-family="Helvetica,sans-Serif" font-size="10.00" fill="#000000">Ioex::DatabaseIO::get</text>
<text text-anchor="middle" x="851.6377" y="-300.8461" font-family="Helvetica,sans-Serif" font-size="10.00" fill="#000000">_nodeblocks</text>
</a>
</g>
</g>
<!-- Node553&#45;&gt;Node574 -->
<g id="edge40" class="edge">
<title>Node553&#45;&gt;Node574</title>
<path fill="none" stroke="#191970" d="M746.271,-337.0393C763.6554,-332.3877 782.3383,-327.3887 799.0734,-322.9108"/>
<polygon fill="#191970" stroke="#191970" points="744.9655,-333.7654 736.21,-339.7313 746.7749,-340.5275 744.9655,-333.7654"/>
</g>
<!-- Node575 -->
<g id="node30" class="node">
<title>Node575</title>
<g id="a_node30"><a xlink:href="classIoex_1_1DatabaseIO.html#a3033bd63238c8330fff6cc76142b09e7" target="_top" xlink:title="Ioex::DatabaseIO::add\l_region_fields">
<polygon fill="#ffffff" stroke="#000000" points="956.2285,-339.8461 956.2285,-367.8461 1072.292,-367.8461 1072.292,-339.8461 956.2285,-339.8461"/>
<text text-anchor="start" x="964.2285" y="-355.8461" font-family="Helvetica,sans-Serif" font-size="10.00" fill="#000000">Ioex::DatabaseIO::add</text>
<text text-anchor="middle" x="1014.2603" y="-345.8461" font-family="Helvetica,sans-Serif" font-size="10.00" fill="#000000">_region_fields</text>
</a>
</g>
</g>
<!-- Node553&#45;&gt;Node575 -->
<g id="edge43" class="edge">
<title>Node553&#45;&gt;Node575</title>
<path fill="none" stroke="#191970" d="M752.0311,-353.8461C812.3619,-353.8461 899.2214,-353.8461 956.1871,-353.8461"/>
<polygon fill="#191970" stroke="#191970" points="751.8378,-350.3462 741.8377,-353.8461 751.8377,-357.3462 751.8378,-350.3462"/>
</g>
<!-- Node555 -->
<g id="node10" class="node">
<title>Node555</title>
<g id="a_node10"><a xlink:href="classIofx_1_1DatabaseIO.html#a5352613bb7149d93d7948d02518a4b23" target="_top" xlink:title="Iofx::DatabaseIO::get\l_elemblocks">
<polygon fill="#ffffff" stroke="#000000" points="959.0117,-707.8461 959.0117,-735.8461 1069.5088,-735.8461 1069.5088,-707.8461 959.0117,-707.8461"/>
<text text-anchor="start" x="967.0117" y="-723.8461" font-family="Helvetica,sans-Serif" font-size="10.00" fill="#000000">Iofx::DatabaseIO::get</text>
<text text-anchor="middle" x="1014.2603" y="-713.8461" font-family="Helvetica,sans-Serif" font-size="10.00" fill="#000000">_elemblocks</text>
</a>
</g>
</g>
<!-- Node554&#45;&gt;Node555 -->
<g id="edge9" class="edge">
<title>Node554&#45;&gt;Node555</title>
<path fill="none" stroke="#191970" d="M877.9798,-648.1156C898.5414,-663.3364 928.2247,-684.0219 956.2285,-698.8461 962.2628,-702.0404 968.8415,-705.0555 975.3314,-707.786"/>
<polygon fill="#191970" stroke="#191970" points="879.8604,-645.1514 869.7577,-641.96 875.6652,-650.755 879.8604,-645.1514"/>
</g>
<!-- Node557 -->
<g id="node12" class="node">
<title>Node557</title>
<g id="a_node12"><a xlink:href="classIofx_1_1DatabaseIO.html#aee5d0d60d0f0ab20a3965c38d76deb30" target="_top" xlink:title="Iofx::DatabaseIO::get\l_faceblocks">
<polygon fill="#ffffff" stroke="#000000" points="959.0117,-660.8461 959.0117,-688.8461 1069.5088,-688.8461 1069.5088,-660.8461 959.0117,-660.8461"/>
<text text-anchor="start" x="967.0117" y="-676.8461" font-family="Helvetica,sans-Serif" font-size="10.00" fill="#000000">Iofx::DatabaseIO::get</text>
<text text-anchor="middle" x="1014.2603" y="-666.8461" font-family="Helvetica,sans-Serif" font-size="10.00" fill="#000000">_faceblocks</text>
</a>
</g>
</g>
<!-- Node554&#45;&gt;Node557 -->
<g id="edge11" class="edge">
<title>Node554&#45;&gt;Node557</title>
<path fill="none" stroke="#191970" d="M910.0895,-644.7394C928.3505,-650.0171 948.2857,-655.7786 965.783,-660.8356"/>
<polygon fill="#191970" stroke="#191970" points="911.0085,-641.3618 900.4298,-641.9477 909.0649,-648.0866 911.0085,-641.3618"/>
</g>
<!-- Node558 -->
<g id="node13" class="node">
<title>Node558</title>
<g id="a_node13"><a xlink:href="classIofx_1_1DatabaseIO.html#a01fc0509353b79eb6285efdf2269b40b" target="_top" xlink:title="Iofx::DatabaseIO::get\l_edgeblocks">
<polygon fill="#ffffff" stroke="#000000" points="959.0117,-613.8461 959.0117,-641.8461 1069.5088,-641.8461 1069.5088,-613.8461 959.0117,-613.8461"/>
<text text-anchor="start" x="967.0117" y="-629.8461" font-family="Helvetica,sans-Serif" font-size="10.00" fill="#000000">Iofx::DatabaseIO::get</text>
<text text-anchor="middle" x="1014.2603" y="-619.8461" font-family="Helvetica,sans-Serif" font-size="10.00" fill="#000000">_edgeblocks</text>
</a>
</g>
</g>
<!-- Node554&#45;&gt;Node558 -->
<g id="edge13" class="edge">
<title>Node554&#45;&gt;Node558</title>
<path fill="none" stroke="#191970" d="M917.5273,-627.8461C931.2917,-627.8461 945.6681,-627.8461 958.9998,-627.8461"/>
<polygon fill="#191970" stroke="#191970" points="917.1483,-624.3462 907.1483,-627.8461 917.1483,-631.3462 917.1483,-624.3462"/>
</g>
<!-- Node556 -->
<g id="node11" class="node">
<title>Node556</title>
<g id="a_node11"><a xlink:href="classIofx_1_1DatabaseIO.html#a79b188c0f0320a9656ad80866af72fb6" target="_top" xlink:title="Iofx::DatabaseIO::read\l_meta_data__">
<polygon fill="#ffffff" stroke="#000000" points="1109.6836,-503.8461 1109.6836,-531.8461 1226.2939,-531.8461 1226.2939,-503.8461 1109.6836,-503.8461"/>
<text text-anchor="start" x="1117.6836" y="-519.8461" font-family="Helvetica,sans-Serif" font-size="10.00" fill="#000000">Iofx::DatabaseIO::read</text>
<text text-anchor="middle" x="1167.9888" y="-509.8461" font-family="Helvetica,sans-Serif" font-size="10.00" fill="#000000">_meta_data__</text>
</a>
</g>
</g>
<!-- Node555&#45;&gt;Node556 -->
<g id="edge10" class="edge">
<title>Node555&#45;&gt;Node556</title>
<path fill="none" stroke="#191970" d="M1068.1038,-702.2547C1069.5597,-701.1751 1070.9606,-700.0398 1072.292,-698.8461 1125.7538,-650.9161 1154.4289,-565.9315 1164.1474,-532.2112"/>
<polygon fill="#191970" stroke="#191970" points="1065.8455,-699.5418 1059.2657,-707.8458 1069.5878,-705.4575 1065.8455,-699.5418"/>
</g>
<!-- Node557&#45;&gt;Node556 -->
<g id="edge12" class="edge">
<title>Node557&#45;&gt;Node556</title>
<path fill="none" stroke="#191970" d="M1066.7322,-655.7802C1068.6615,-654.5403 1070.5237,-653.2299 1072.292,-651.8461 1115.7434,-617.8448 1148.0698,-558.9489 1161.349,-532.0202"/>
<polygon fill="#191970" stroke="#191970" points="1064.8988,-652.7962 1057.9265,-660.7734 1068.3517,-658.8853 1064.8988,-652.7962"/>
</g>
<!-- Node558&#45;&gt;Node556 -->
<g id="edge14" class="edge">
<title>Node558&#45;&gt;Node556</title>
<path fill="none" stroke="#191970" d="M1054.9951,-609.0493C1060.9284,-605.8673 1066.8618,-602.4265 1072.292,-598.8461 1103.366,-578.3574 1135.6253,-549.0996 1153.6217,-531.9293"/>
<polygon fill="#191970" stroke="#191970" points="1053.0279,-606.1257 1045.7439,-613.8194 1056.236,-612.3474 1053.0279,-606.1257"/>
</g>
<!-- Node559&#45;&gt;Node556 -->
<g id="edge16" class="edge">
<title>Node559&#45;&gt;Node556</title>
<path fill="none" stroke="#191970" d="M863.2467,-466.1698C879.4385,-495.7423 911.882,-545.3437 956.2285,-565.8461 1003.0505,-587.493 1022.0957,-577.7294 1072.292,-565.8461 1099.7841,-559.3377 1128.3662,-543.6362 1147.0518,-531.9528"/>
<polygon fill="#191970" stroke="#191970" points="866.1549,-464.1823 858.3849,-456.9797 859.9674,-467.4557 866.1549,-464.1823"/>
</g>
<!-- Node561 -->
<g id="node16" class="node">
<title>Node561</title>
<g id="a_node16"><a xlink:href="classIofx_1_1DatabaseIO.html#a8298d2d8f141676749d6e5d0abb6bcbd" target="_top" xlink:title="Iofx::DatabaseIO::get\l_nodesets">
<polygon fill="#ffffff" stroke="#000000" points="959.0117,-527.8461 959.0117,-555.8461 1069.5088,-555.8461 1069.5088,-527.8461 959.0117,-527.8461"/>
<text text-anchor="start" x="967.0117" y="-543.8461" font-family="Helvetica,sans-Serif" font-size="10.00" fill="#000000">Iofx::DatabaseIO::get</text>
<text text-anchor="middle" x="1014.2603" y="-533.8461" font-family="Helvetica,sans-Serif" font-size="10.00" fill="#000000">_nodesets</text>
</a>
</g>
</g>
<!-- Node560&#45;&gt;Node561 -->
<g id="edge18" class="edge">
<title>Node560&#45;&gt;Node561</title>
<path fill="none" stroke="#191970" d="M915.4691,-415.0375C917.135,-416.2103 918.7275,-417.4774 920.2285,-418.8461 954.8238,-450.3924 923.8484,-484.0301 956.2285,-517.8461 959.9233,-521.7047 964.3297,-524.9654 969.04,-527.7158"/>
<polygon fill="#191970" stroke="#191970" points="917.0217,-411.8925 906.6112,-409.9244 913.5222,-417.955 917.0217,-411.8925"/>
</g>
<!-- Node562 -->
<g id="node17" class="node">
<title>Node562</title>
<g id="a_node17"><a xlink:href="classIofx_1_1DatabaseIO.html#a56ddda62eb3637cd13191ff67bbc0029" target="_top" xlink:title="Iofx::DatabaseIO::get\l_edgesets">
<polygon fill="#ffffff" stroke="#000000" points="959.0117,-480.8461 959.0117,-508.8461 1069.5088,-508.8461 1069.5088,-480.8461 959.0117,-480.8461"/>
<text text-anchor="start" x="967.0117" y="-496.8461" font-family="Helvetica,sans-Serif" font-size="10.00" fill="#000000">Iofx::DatabaseIO::get</text>
<text text-anchor="middle" x="1014.2603" y="-486.8461" font-family="Helvetica,sans-Serif" font-size="10.00" fill="#000000">_edgesets</text>
</a>
</g>
</g>
<!-- Node560&#45;&gt;Node562 -->
<g id="edge20" class="edge">
<title>Node560&#45;&gt;Node562</title>
<path fill="none" stroke="#191970" d="M912.1729,-414.0196C914.9844,-415.4643 917.6885,-417.0673 920.2285,-418.8461 943.2529,-434.9707 934.3486,-453.1997 956.2285,-470.8461 960.9809,-474.679 966.4311,-477.9834 972.0463,-480.8072"/>
<polygon fill="#191970" stroke="#191970" points="913.4601,-410.762 902.8984,-409.9238 910.6321,-417.1654 913.4601,-410.762"/>
</g>
<!-- Node563 -->
<g id="node18" class="node">
<title>Node563</title>
<g id="a_node18"><a xlink:href="classIofx_1_1DatabaseIO.html#a52bfbfd10d033b4f5e50afe18607c415" target="_top" xlink:title="Iofx::DatabaseIO::get\l_facesets">
<polygon fill="#ffffff" stroke="#000000" points="959.0117,-433.8461 959.0117,-461.8461 1069.5088,-461.8461 1069.5088,-433.8461 959.0117,-433.8461"/>
<text text-anchor="start" x="967.0117" y="-449.8461" font-family="Helvetica,sans-Serif" font-size="10.00" fill="#000000">Iofx::DatabaseIO::get</text>
<text text-anchor="middle" x="1014.2603" y="-439.8461" font-family="Helvetica,sans-Serif" font-size="10.00" fill="#000000">_facesets</text>
</a>
</g>
</g>
<!-- Node560&#45;&gt;Node563 -->
<g id="edge22" class="edge">
<title>Node560&#45;&gt;Node563</title>
<path fill="none" stroke="#191970" d="M896.9897,-412.4566C904.7575,-414.5284 912.7366,-416.7089 920.2285,-418.8461 936.4925,-423.4859 954.2399,-428.874 969.8911,-433.7379"/>
<polygon fill="#191970" stroke="#191970" points="897.8783,-409.0713 887.3161,-409.9019 896.0909,-415.8393 897.8783,-409.0713"/>
</g>
<!-- Node564 -->
<g id="node19" class="node">
<title>Node564</title>
<g id="a_node19"><a xlink:href="classIofx_1_1DatabaseIO.html#a1d9816bc858a047528865240b4730071" target="_top" xlink:title="Iofx::DatabaseIO::get\l_elemsets">
<polygon fill="#ffffff" stroke="#000000" points="959.0117,-386.8461 959.0117,-414.8461 1069.5088,-414.8461 1069.5088,-386.8461 959.0117,-386.8461"/>
<text text-anchor="start" x="967.0117" y="-402.8461" font-family="Helvetica,sans-Serif" font-size="10.00" fill="#000000">Iofx::DatabaseIO::get</text>
<text text-anchor="middle" x="1014.2603" y="-392.8461" font-family="Helvetica,sans-Serif" font-size="10.00" fill="#000000">_elemsets</text>
</a>
</g>
</g>
<!-- Node560&#45;&gt;Node564 -->
<g id="edge24" class="edge">
<title>Node560&#45;&gt;Node564</title>
<path fill="none" stroke="#191970" d="M929.4576,-400.8461C939.3566,-400.8461 949.3247,-400.8461 958.7736,-400.8461"/>
<polygon fill="#191970" stroke="#191970" points="929.1915,-397.3462 919.1915,-400.8461 929.1915,-404.3462 929.1915,-397.3462"/>
</g>
<!-- Node561&#45;&gt;Node556 -->
<g id="edge19" class="edge">
<title>Node561&#45;&gt;Node556</title>
<path fill="none" stroke="#191970" d="M1079.8837,-531.601C1089.7122,-530.0666 1099.7914,-528.4931 1109.4595,-526.9837"/>
<polygon fill="#191970" stroke="#191970" points="1079.1002,-528.1809 1069.7598,-533.1816 1080.18,-535.0971 1079.1002,-528.1809"/>
</g>
<!-- Node562&#45;&gt;Node556 -->
<g id="edge21" class="edge">
<title>Node562&#45;&gt;Node556</title>
<path fill="none" stroke="#191970" d="M1079.8837,-504.6643C1089.7122,-506.1348 1099.7914,-507.6428 1109.4595,-509.0893"/>
<polygon fill="#191970" stroke="#191970" points="1080.1676,-501.1679 1069.7598,-503.1496 1079.1318,-508.0909 1080.1676,-501.1679"/>
</g>
<!-- Node563&#45;&gt;Node556 -->
<g id="edge23" class="edge">
<title>Node563&#45;&gt;Node556</title>
<path fill="none" stroke="#191970" d="M1060.3902,-465.7423C1064.4324,-467.4272 1068.4461,-469.1427 1072.292,-470.8461 1095.6471,-481.1902 1121.6309,-494.0397 1140.6225,-503.6876"/>
<polygon fill="#191970" stroke="#191970" points="1061.553,-462.4364 1050.9724,-461.8867 1058.9008,-468.9146 1061.553,-462.4364"/>
</g>
<!-- Node564&#45;&gt;Node556 -->
<g id="edge25" class="edge">
<title>Node564&#45;&gt;Node556</title>
<path fill="none" stroke="#191970" d="M1064.8252,-419.421C1067.402,-420.8192 1069.9076,-422.2945 1072.292,-423.8461 1107.2317,-446.5829 1140.0972,-483.481 1156.7069,-503.6205"/>
<polygon fill="#191970" stroke="#191970" points="1066.3746,-416.2827 1055.8621,-414.9648 1063.2583,-422.5507 1066.3746,-416.2827"/>
</g>
<!-- Node566 -->
<g id="node21" class="node">
<title>Node566</title>
<g id="a_node21"><a xlink:href="classIopx_1_1DatabaseIO.html#aa10c1946bf4abe12e8229d86153a934b" target="_top" xlink:title="Iopx::DatabaseIO::get\l_elemblocks">
<polygon fill="#ffffff" stroke="#000000" points="957.6201,-27.8461 957.6201,-55.8461 1070.9004,-55.8461 1070.9004,-27.8461 957.6201,-27.8461"/>
<text text-anchor="start" x="965.6201" y="-43.8461" font-family="Helvetica,sans-Serif" font-size="10.00" fill="#000000">Iopx::DatabaseIO::get</text>
<text text-anchor="middle" x="1014.2603" y="-33.8461" font-family="Helvetica,sans-Serif" font-size="10.00" fill="#000000">_elemblocks</text>
</a>
</g>
</g>
<!-- Node565&#45;&gt;Node566 -->
<g id="edge27" class="edge">
<title>Node565&#45;&gt;Node566</title>
<path fill="none" stroke="#191970" d="M915.7303,-185.9802C917.3124,-184.688 918.8177,-183.3117 920.2285,-181.8461 957.9597,-142.6497 919.3038,-104.8032 956.2285,-64.8461 959.3913,-61.4236 963.1288,-58.502 967.1588,-56.0095"/>
<polygon fill="#191970" stroke="#191970" points="913.5424,-183.2361 907.2595,-191.767 917.491,-189.0161 913.5424,-183.2361"/>
</g>
<!-- Node567 -->
<g id="node22" class="node">
<title>Node567</title>
<g id="a_node22"><a xlink:href="classIopx_1_1DatabaseIO.html#aa5fbe815a5233885cb3491ee0de291a4" target="_top" xlink:title="Iopx::DatabaseIO::read\l_meta_data__">
<polygon fill="#ffffff" stroke="#000000" points="1108.292,-145.8461 1108.292,-173.8461 1227.6855,-173.8461 1227.6855,-145.8461 1108.292,-145.8461"/>
<text text-anchor="start" x="1116.292" y="-161.8461" font-family="Helvetica,sans-Serif" font-size="10.00" fill="#000000">Iopx::DatabaseIO::read</text>
<text text-anchor="middle" x="1167.9888" y="-151.8461" font-family="Helvetica,sans-Serif" font-size="10.00" fill="#000000">_meta_data__</text>
</a>
</g>
</g>
<!-- Node566&#45;&gt;Node567 -->
<g id="edge28" class="edge">
<title>Node566&#45;&gt;Node567</title>
<path fill="none" stroke="#191970" d="M1064.8351,-60.4058C1067.4094,-61.8079 1069.9117,-63.2882 1072.292,-64.8461 1107.55,-87.923 1140.5375,-125.5146 1157.0163,-145.8007"/>
<polygon fill="#191970" stroke="#191970" points="1066.3892,-57.2697 1055.8781,-55.9402 1063.2659,-63.5343 1066.3892,-57.2697"/>
</g>
<!-- Node568&#45;&gt;Node567 -->
<g id="edge30" class="edge">
<title>Node568&#45;&gt;Node567</title>
<path fill="none" stroke="#191970" d="M860.9987,-135.1524C875.6228,-101.8261 907.377,-42.4334 956.2285,-17.8461 1002.3054,5.3446 1026.7511,6.3802 1072.292,-17.8461 1124.2589,-45.4909 1153.0858,-115.3178 1163.4806,-145.5392"/>
<polygon fill="#191970" stroke="#191970" points="857.6788,-134.017 857.0102,-144.5907 864.1267,-136.7419 857.6788,-134.017"/>
</g>
<!-- Node570 -->
<g id="node25" class="node">
<title>Node570</title>
<g id="a_node25"><a xlink:href="classIopx_1_1DatabaseIO.html#abf732bb3541f75a9b0c0c9f2af6399be" target="_top" xlink:title="Iopx::DatabaseIO::get\l_nodesets">
<polygon fill="#ffffff" stroke="#000000" points="957.6201,-74.8461 957.6201,-102.8461 1070.9004,-102.8461 1070.9004,-74.8461 957.6201,-74.8461"/>
<text text-anchor="start" x="965.6201" y="-90.8461" font-family="Helvetica,sans-Serif" font-size="10.00" fill="#000000">Iopx::DatabaseIO::get</text>
<text text-anchor="middle" x="1014.2603" y="-80.8461" font-family="Helvetica,sans-Serif" font-size="10.00" fill="#000000">_nodesets</text>
</a>
</g>
</g>
<!-- Node569&#45;&gt;Node570 -->
<g id="edge32" class="edge">
<title>Node569&#45;&gt;Node570</title>
<path fill="none" stroke="#191970" d="M914.216,-233.7812C916.351,-232.2947 918.3679,-230.6549 920.2285,-228.8461 959.2392,-190.923 919.3038,-151.8032 956.2285,-111.8461 959.3913,-108.4236 963.1288,-105.502 967.1588,-103.0095"/>
<polygon fill="#191970" stroke="#191970" points="912.4138,-230.7799 905.476,-238.7873 915.893,-236.8541 912.4138,-230.7799"/>
</g>
<!-- Node571 -->
<g id="node26" class="node">
<title>Node571</title>
<g id="a_node26"><a xlink:href="classIopx_1_1DatabaseIO.html#a84d2d1d0a4214b47d53e3a11533598bb" target="_top" xlink:title="Iopx::DatabaseIO::get\l_edgesets">
<polygon fill="#ffffff" stroke="#000000" points="957.6201,-215.8461 957.6201,-243.8461 1070.9004,-243.8461 1070.9004,-215.8461 957.6201,-215.8461"/>
<text text-anchor="start" x="965.6201" y="-231.8461" font-family="Helvetica,sans-Serif" font-size="10.00" fill="#000000">Iopx::DatabaseIO::get</text>
<text text-anchor="middle" x="1014.2603" y="-221.8461" font-family="Helvetica,sans-Serif" font-size="10.00" fill="#000000">_edgesets</text>
</a>
</g>
</g>
<!-- Node569&#45;&gt;Node571 -->
<g id="edge34" class="edge">
<title>Node569&#45;&gt;Node571</title>
<path fill="none" stroke="#191970" d="M930.7509,-239.0894C939.7724,-238.0909 948.83,-237.0883 957.4791,-236.131"/>
<polygon fill="#191970" stroke="#191970" points="930.1585,-235.6335 920.6043,-240.2125 930.9287,-242.591 930.1585,-235.6335"/>
</g>
<!-- Node572 -->
<g id="node27" class="node">
<title>Node572</title>
<g id="a_node27"><a xlink:href="classIopx_1_1DatabaseIO.html#a7d07698ca15aca274f7b70450a9b06cd" target="_top" xlink:title="Iopx::DatabaseIO::get\l_facesets">
<polygon fill="#ffffff" stroke="#000000" points="957.6201,-168.8461 957.6201,-196.8461 1070.9004,-196.8461 1070.9004,-168.8461 957.6201,-168.8461"/>
<text text-anchor="start" x="965.6201" y="-184.8461" font-family="Helvetica,sans-Serif" font-size="10.00" fill="#000000">Iopx::DatabaseIO::get</text>
<text text-anchor="middle" x="1014.2603" y="-174.8461" font-family="Helvetica,sans-Serif" font-size="10.00" fill="#000000">_facesets</text>
</a>
</g>
</g>
<!-- Node569&#45;&gt;Node572 -->
<g id="edge36" class="edge">
<title>Node569&#45;&gt;Node572</title>
<path fill="none" stroke="#191970" d="M902.0053,-235.7668C908.2426,-233.7268 914.4516,-231.4216 920.2285,-228.8461 937.5699,-221.1149 939.3259,-214.4945 956.2285,-205.8461 962.4031,-202.6868 969.1174,-199.6696 975.7156,-196.921"/>
<polygon fill="#191970" stroke="#191970" points="900.7769,-232.4824 892.2385,-238.7549 902.8249,-239.1761 900.7769,-232.4824"/>
</g>
<!-- Node573 -->
<g id="node28" class="node">
<title>Node573</title>
<g id="a_node28"><a xlink:href="classIopx_1_1DatabaseIO.html#ac0b8713a8e4b212a855d2feb0cc1c82c" target="_top" xlink:title="Iopx::DatabaseIO::get\l_elemsets">
<polygon fill="#ffffff" stroke="#000000" points="957.6201,-121.8461 957.6201,-149.8461 1070.9004,-149.8461 1070.9004,-121.8461 957.6201,-121.8461"/>
<text text-anchor="start" x="965.6201" y="-137.8461" font-family="Helvetica,sans-Serif" font-size="10.00" fill="#000000">Iopx::DatabaseIO::get</text>
<text text-anchor="middle" x="1014.2603" y="-127.8461" font-family="Helvetica,sans-Serif" font-size="10.00" fill="#000000">_elemsets</text>
</a>
</g>
</g>
<!-- Node569&#45;&gt;Node573 -->
<g id="edge38" class="edge">
<title>Node569&#45;&gt;Node573</title>
<path fill="none" stroke="#191970" d="M912.0518,-234.3975C914.9395,-232.7551 917.6886,-230.9127 920.2285,-228.8461 947.3651,-206.7665 930.3128,-182.3467 956.2285,-158.8461 960.0017,-155.4245 964.3455,-152.484 968.9232,-149.9633"/>
<polygon fill="#191970" stroke="#191970" points="910.5255,-231.2478 903.0433,-238.749 913.5702,-237.5509 910.5255,-231.2478"/>
</g>
<!-- Node570&#45;&gt;Node567 -->
<g id="edge33" class="edge">
<title>Node570&#45;&gt;Node567</title>
<path fill="none" stroke="#191970" d="M1060.5813,-106.7811C1064.5607,-108.4499 1068.5089,-110.1516 1072.292,-111.8461 1096.04,-122.4835 1122.4339,-135.8417 1141.4773,-145.7635"/>
<polygon fill="#191970" stroke="#191970" points="1061.882,-103.5317 1051.3022,-102.9658 1059.2199,-110.0057 1061.882,-103.5317"/>
</g>
<!-- Node571&#45;&gt;Node567 -->
<g id="edge35" class="edge">
<title>Node571&#45;&gt;Node567</title>
<path fill="none" stroke="#191970" d="M1058.5606,-211.8257C1063.2125,-209.8438 1067.8591,-207.8263 1072.292,-205.8461 1095.1819,-195.621 1120.7595,-183.2777 1139.7089,-173.9525"/>
<polygon fill="#191970" stroke="#191970" points="1056.9299,-208.7146 1049.0713,-215.8205 1059.646,-215.1662 1056.9299,-208.7146"/>
</g>
<!-- Node572&#45;&gt;Node567 -->
<g id="edge37" class="edge">
<title>Node572&#45;&gt;Node567</title>
<path fill="none" stroke="#191970" d="M1081.0913,-172.8472C1090.064,-171.5048 1099.2223,-170.1346 1108.0658,-168.8115"/>
<polygon fill="#191970" stroke="#191970" points="1080.4383,-169.4059 1071.0663,-174.3471 1081.4742,-176.3288 1080.4383,-169.4059"/>
</g>
<!-- Node573&#45;&gt;Node567 -->
<g id="edge39" class="edge">
<title>Node573&#45;&gt;Node567</title>
<path fill="none" stroke="#191970" d="M1081.0913,-146.2797C1090.064,-147.6806 1099.2223,-149.1103 1108.0658,-150.491"/>
<polygon fill="#191970" stroke="#191970" points="1081.4865,-142.7991 1071.0663,-144.7146 1080.4067,-149.7153 1081.4865,-142.7991"/>
</g>
<!-- Node574&#45;&gt;Node556 -->
<g id="edge41" class="edge">
<title>Node574&#45;&gt;Node556</title>
<path fill="none" stroke="#191970" d="M918.3794,-299.2529C965.3352,-296.0695 1027.5342,-299.3949 1072.292,-329.8461 1134.5182,-372.1821 1158.5075,-467.6929 1165.5506,-503.7274"/>
<polygon fill="#191970" stroke="#191970" points="917.9949,-295.7723 908.3023,-300.0506 918.5473,-302.7504 917.9949,-295.7723"/>
</g>
<!-- Node574&#45;&gt;Node567 -->
<g id="edge42" class="edge">
<title>Node574&#45;&gt;Node567</title>
<path fill="none" stroke="#191970" d="M918.6612,-301.0958C964.2352,-293.669 1024.6667,-279.4748 1072.292,-252.8461 1108.8919,-232.3821 1141.5754,-194.3654 1157.5845,-173.8464"/>
<polygon fill="#191970" stroke="#191970" points="917.9288,-297.6676 908.5878,-302.6672 919.0077,-304.584 917.9288,-297.6676"/>
</g>
<!-- Node575&#45;&gt;Node556 -->
<g id="edge44" class="edge">
<title>Node575&#45;&gt;Node556</title>
<path fill="none" stroke="#191970" d="M1067.3191,-373.2184C1069.0424,-374.3664 1070.7068,-375.5748 1072.292,-376.8461 1117.2977,-412.9382 1149.2648,-475.8567 1161.9438,-503.792"/>
<polygon fill="#191970" stroke="#191970" points="1068.7071,-369.9767 1058.3038,-367.9713 1065.1859,-376.0266 1068.7071,-369.9767"/>
</g>
<!-- Node575&#45;&gt;Node567 -->
<g id="edge45" class="edge">
<title>Node575&#45;&gt;Node567</title>
<path fill="none" stroke="#191970" d="M1033.6728,-332.1939C1045.1327,-319.226 1059.7951,-302.3072 1072.292,-286.8461 1104.5712,-246.9106 1140.4623,-197.964 1157.6769,-174.1822"/>
<polygon fill="#191970" stroke="#191970" points="1031.0219,-329.9079 1026.9992,-339.7094 1036.2562,-334.5558 1031.0219,-329.9079"/>
</g>
<!-- Node576&#45;&gt;Node554 -->
<g id="edge47" class="edge">
<title>Node576&#45;&gt;Node554</title>
<path fill="none" stroke="#191970" d="M744.244,-327.0454C745.2189,-327.939 746.1551,-328.8719 747.0469,-329.8461 789.2654,-375.9669 762.8068,-406.6864 783.0469,-465.8461 802.2269,-521.9075 831.7275,-586.0342 844.8919,-613.8073"/>
<polygon fill="#191970" stroke="#191970" points="746.2028,-324.1396 736.1029,-320.9393 742.0027,-329.7395 746.2028,-324.1396"/>
</g>
<!-- Node576&#45;&gt;Node559 -->
<g id="edge48" class="edge">
<title>Node576&#45;&gt;Node559</title>
<path fill="none" stroke="#191970" d="M743.5662,-326.7843C744.7742,-327.7573 745.9372,-328.7771 747.0469,-329.8461 777.776,-359.4495 752.1631,-389.4041 783.0469,-418.8461 787.156,-422.7635 791.94,-426.0452 797.0345,-428.7937"/>
<polygon fill="#191970" stroke="#191970" points="745.276,-323.7157 735.0297,-321.0207 741.359,-329.5172 745.276,-323.7157"/>
</g>
<!-- Node576&#45;&gt;Node560 -->
<g id="edge49" class="edge">
<title>Node576&#45;&gt;Node560</title>
<path fill="none" stroke="#191970" d="M736.1731,-324.7381C739.8992,-326.3601 743.5583,-328.0665 747.0469,-329.8461 783.2141,-348.2962 821.7291,-377.1586 840.3109,-391.7491"/>
<polygon fill="#191970" stroke="#191970" points="737.4116,-321.463 726.8325,-320.8864 734.7431,-327.9344 737.4116,-321.463"/>
</g>
<!-- Node576&#45;&gt;Node565 -->
<g id="edge50" class="edge">
<title>Node576&#45;&gt;Node565</title>
<path fill="none" stroke="#191970" d="M705.7678,-285.7057C724.9829,-268.4395 754.1153,-244.4262 783.0469,-228.8461 789.2395,-225.5113 796.005,-222.5349 802.7965,-219.9196"/>
<polygon fill="#191970" stroke="#191970" points="703.1911,-283.319 698.1694,-292.6482 707.9128,-288.4868 703.1911,-283.319"/>
</g>
<!-- Node576&#45;&gt;Node568 -->
<g id="edge51" class="edge">
<title>Node576&#45;&gt;Node568</title>
<path fill="none" stroke="#191970" d="M696.0759,-283.9499C712.5809,-256.0177 744.0422,-209.1539 783.0469,-181.8461 787.9855,-178.3885 793.4835,-175.4189 799.1576,-172.8759"/>
<polygon fill="#191970" stroke="#191970" points="693.0274,-282.2301 691.0626,-292.6412 699.091,-285.7277 693.0274,-282.2301"/>
</g>
<!-- Node576&#45;&gt;Node569 -->
<g id="edge52" class="edge">
<title>Node576&#45;&gt;Node569</title>
<path fill="none" stroke="#191970" d="M733.3264,-289.3517C763.7038,-278.6948 801.2653,-265.5176 825.8072,-256.9079"/>
<polygon fill="#191970" stroke="#191970" points="732.0191,-286.1011 723.7416,-292.7141 734.3364,-292.7064 732.0191,-286.1011"/>
</g>
<!-- Node576&#45;&gt;Node574 -->
<g id="edge53" class="edge">
<title>Node576&#45;&gt;Node574</title>
<path fill="none" stroke="#191970" d="M752.026,-307.6615C766.2418,-307.8306 781.0707,-308.0069 794.8107,-308.1703"/>
<polygon fill="#191970" stroke="#191970" points="751.8484,-304.1593 741.8074,-307.54 751.7651,-311.1588 751.8484,-304.1593"/>
</g>
</g>
</svg>
