<?xml version="1.0" encoding="UTF-8" standalone="no"?>
<!DOCTYPE svg PUBLIC "-//W3C//DTD SVG 1.1//EN"
 "http://www.w3.org/Graphics/SVG/1.1/DTD/svg11.dtd">
<!-- Generated by graphviz version 2.42.3 (20191010.1750)
 -->
<!-- Title: Ioex::BaseDatabaseIO Pages: 1 -->
<svg width="246pt" height="137pt"
 viewBox="0.00 0.00 246.50 137.00" xmlns="http://www.w3.org/2000/svg" xmlns:xlink="http://www.w3.org/1999/xlink">
<g id="graph0" class="graph" transform="scale(1 1) rotate(0) translate(4 133)">
<title>Ioex::BaseDatabaseIO</title>
<polygon fill="white" stroke="transparent" points="-4,4 -4,-133 242.5,-133 242.5,4 -4,4"/>
<!-- Node1 -->
<g id="node1" class="node">
<title>Node1</title>
<g id="a_node1"><a xlink:title=" ">
<polygon fill="#bfbfbf" stroke="black" points="52.6,-55.5 52.6,-73.5 169.22,-73.5 169.22,-55.5 52.6,-55.5"/>
<text text-anchor="middle" x="110.91" y="-61.5" font-family="Helvetica,sans-Serif" font-size="10.00">Ioex::BaseDatabaseIO</text>
</a>
</g>
</g>
<!-- Node3 -->
<g id="node3" class="node">
<title>Node3</title>
<g id="a_node3"><a xlink:href="classIoex_1_1DatabaseIO.html" target="_top" xlink:title=" ">
<polygon fill="white" stroke="black" points="0,-0.5 0,-18.5 93.82,-18.5 93.82,-0.5 0,-0.5"/>
<text text-anchor="middle" x="46.91" y="-6.5" font-family="Helvetica,sans-Serif" font-size="10.00">Ioex::DatabaseIO</text>
</a>
</g>
</g>
<!-- Node1&#45;&gt;Node3 -->
<g id="edge2" class="edge">
<title>Node1&#45;&gt;Node3</title>
<path fill="none" stroke="midnightblue" d="M93.31,-48.93C81.52,-39.16 66.44,-26.67 56.72,-18.63"/>
<polygon fill="midnightblue" stroke="midnightblue" points="91.26,-51.77 101.19,-55.45 95.72,-46.38 91.26,-51.77"/>
</g>
<!-- Node4 -->
<g id="node4" class="node">
<title>Node4</title>
<g id="a_node4"><a xlink:href="classIoex_1_1ParallelDatabaseIO.html" target="_top" xlink:title=" ">
<polygon fill="white" stroke="black" points="111.33,-0.5 111.33,-18.5 238.5,-18.5 238.5,-0.5 111.33,-0.5"/>
<text text-anchor="middle" x="174.91" y="-6.5" font-family="Helvetica,sans-Serif" font-size="10.00">Ioex::ParallelDatabaseIO</text>
</a>
</g>
</g>
<!-- Node1&#45;&gt;Node4 -->
<g id="edge3" class="edge">
<title>Node1&#45;&gt;Node4</title>
<path fill="none" stroke="midnightblue" d="M128.51,-48.93C140.3,-39.16 155.39,-26.67 165.1,-18.63"/>
<polygon fill="midnightblue" stroke="midnightblue" points="126.1,-46.38 120.63,-55.45 130.57,-51.77 126.1,-46.38"/>
</g>
<!-- Node2 -->
<g id="node2" class="node">
<title>Node2</title>
<g id="a_node2"><a xlink:href="classIoss_1_1DatabaseIO.html" target="_top" xlink:title="An input or output Database.">
<polygon fill="white" stroke="black" points="64.28,-110.5 64.28,-128.5 157.54,-128.5 157.54,-110.5 64.28,-110.5"/>
<text text-anchor="middle" x="110.91" y="-116.5" font-family="Helvetica,sans-Serif" font-size="10.00">Ioss::DatabaseIO</text>
</a>
</g>
</g>
<!-- Node2&#45;&gt;Node1 -->
<g id="edge1" class="edge">
<title>Node2&#45;&gt;Node1</title>
<path fill="none" stroke="midnightblue" d="M110.91,-100.17C110.91,-91.09 110.91,-80.59 110.91,-73.55"/>
<polygon fill="midnightblue" stroke="midnightblue" points="107.41,-100.22 110.91,-110.22 114.41,-100.22 107.41,-100.22"/>
</g>
</g>
</svg>
