<?xml version="1.0" encoding="UTF-8" standalone="no"?>
<!DOCTYPE svg PUBLIC "-//W3C//DTD SVG 1.1//EN"
 "http://www.w3.org/Graphics/SVG/1.1/DTD/svg11.dtd">
<!-- Generated by graphviz version 2.40.1 (20161225.0304)
 -->
<!-- Title: Iocgns::DatabaseIO::get_step_times__ Pages: 1 -->
<svg width="1258pt" height="754pt"
 viewBox="0.00 0.00 1258.49 754.00" xmlns="http://www.w3.org/2000/svg" xmlns:xlink="http://www.w3.org/1999/xlink">
<g id="graph0" class="graph" transform="scale(1 1) rotate(0) translate(4 750)">
<title>Iocgns::DatabaseIO::get_step_times__</title>
<polygon fill="#ffffff" stroke="transparent" points="-4,4 -4,-750 1254.4883,-750 1254.4883,4 -4,4"/>
<!-- Node784 -->
<g id="node1" class="node">
<title>Node784</title>
<polygon fill="#bfbfbf" stroke="#000000" points="0,-452.5 0,-480.5 104.3838,-480.5 104.3838,-452.5 0,-452.5"/>
<text text-anchor="start" x="8" y="-468.5" font-family="Helvetica,sans-Serif" font-size="10.00" fill="#000000">Iocgns::DatabaseIO</text>
<text text-anchor="middle" x="52.1919" y="-458.5" font-family="Helvetica,sans-Serif" font-size="10.00" fill="#000000">::get_step_times__</text>
</g>
<!-- Node785 -->
<g id="node2" class="node">
<title>Node785</title>
<g id="a_node2"><a xlink:href="classIocgns_1_1Utils.html#ada733053c60201753363c5bf2637af89" target="_top" xlink:title="Iocgns::Utils::get\l_step_times">
<polygon fill="#ffffff" stroke="#000000" points="151.7827,-513.5 151.7827,-541.5 241.7036,-541.5 241.7036,-513.5 151.7827,-513.5"/>
<text text-anchor="start" x="159.7827" y="-529.5" font-family="Helvetica,sans-Serif" font-size="10.00" fill="#000000">Iocgns::Utils::get</text>
<text text-anchor="middle" x="196.7432" y="-519.5" font-family="Helvetica,sans-Serif" font-size="10.00" fill="#000000">_step_times</text>
</a>
</g>
</g>
<!-- Node784&#45;&gt;Node785 -->
<g id="edge1" class="edge">
<title>Node784&#45;&gt;Node785</title>
<path fill="none" stroke="#191970" d="M85.7182,-480.6479C106.0605,-489.2323 132.2172,-500.2703 154.0322,-509.4761"/>
<polygon fill="#191970" stroke="#191970" points="152.8246,-512.7654 163.3987,-513.4288 155.5462,-506.3161 152.8246,-512.7654"/>
</g>
<!-- Node791 -->
<g id="node8" class="node">
<title>Node791</title>
<g id="a_node8"><a xlink:href="classIocgns_1_1DatabaseIO.html#a25570e840129e2bf15bbf76d9dba5d40" target="_top" xlink:title="Iocgns::DatabaseIO\l::get_file_pointer">
<polygon fill="#ffffff" stroke="#000000" points="144.5513,-452.5 144.5513,-480.5 248.9351,-480.5 248.9351,-452.5 144.5513,-452.5"/>
<text text-anchor="start" x="152.5513" y="-468.5" font-family="Helvetica,sans-Serif" font-size="10.00" fill="#000000">Iocgns::DatabaseIO</text>
<text text-anchor="middle" x="196.7432" y="-458.5" font-family="Helvetica,sans-Serif" font-size="10.00" fill="#000000">::get_file_pointer</text>
</a>
</g>
</g>
<!-- Node784&#45;&gt;Node791 -->
<g id="edge7" class="edge">
<title>Node784&#45;&gt;Node791</title>
<path fill="none" stroke="#191970" d="M104.7871,-466.5C114.3731,-466.5 124.4591,-466.5 134.2975,-466.5"/>
<polygon fill="#191970" stroke="#191970" points="134.4292,-470.0001 144.4291,-466.5 134.4291,-463.0001 134.4292,-470.0001"/>
</g>
<!-- Node823 -->
<g id="node40" class="node">
<title>Node823</title>
<g id="a_node40"><a xlink:href="classIoss_1_1DatabaseIO.html#ac7cb8bf7c8175fa0546a2bd965570e7c" target="_top" xlink:title="Ioss::DatabaseIO::get\l_region">
<polygon fill="#ffffff" stroke="#000000" points="140.3838,-405.5 140.3838,-433.5 253.1025,-433.5 253.1025,-405.5 140.3838,-405.5"/>
<text text-anchor="start" x="148.3838" y="-421.5" font-family="Helvetica,sans-Serif" font-size="10.00" fill="#000000">Ioss::DatabaseIO::get</text>
<text text-anchor="middle" x="196.7432" y="-411.5" font-family="Helvetica,sans-Serif" font-size="10.00" fill="#000000">_region</text>
</a>
</g>
</g>
<!-- Node784&#45;&gt;Node823 -->
<g id="edge55" class="edge">
<title>Node784&#45;&gt;Node823</title>
<path fill="none" stroke="#191970" d="M95.562,-452.3985C110.713,-447.4722 127.8928,-441.8863 143.7393,-436.7339"/>
<polygon fill="#191970" stroke="#191970" points="144.9759,-440.0122 153.4036,-433.5916 142.8114,-433.3553 144.9759,-440.0122"/>
</g>
<!-- Node786 -->
<g id="node3" class="node">
<title>Node786</title>
<g id="a_node3"><a xlink:href="classIocgns_1_1Utils.html#a34010e9b0618c248e1df20ff38800bda" target="_top" xlink:title="Iocgns::Utils::cgns\l_error">
<polygon fill="#ffffff" stroke="#000000" points="301.0654,-513.5 301.0654,-541.5 398.208,-541.5 398.208,-513.5 301.0654,-513.5"/>
<text text-anchor="start" x="309.0654" y="-529.5" font-family="Helvetica,sans-Serif" font-size="10.00" fill="#000000">Iocgns::Utils::cgns</text>
<text text-anchor="middle" x="349.6367" y="-519.5" font-family="Helvetica,sans-Serif" font-size="10.00" fill="#000000">_error</text>
</a>
</g>
</g>
<!-- Node785&#45;&gt;Node786 -->
<g id="edge2" class="edge">
<title>Node785&#45;&gt;Node786</title>
<path fill="none" stroke="#191970" d="M241.7893,-527.5C257.0357,-527.5 274.2989,-527.5 290.473,-527.5"/>
<polygon fill="#191970" stroke="#191970" points="290.9122,-531.0001 300.9122,-527.5 290.9122,-524.0001 290.9122,-531.0001"/>
</g>
<!-- Node787 -->
<g id="node4" class="node">
<title>Node787</title>
<g id="a_node4"><a xlink:href="classIoss_1_1Region.html#abc1e575c0f97923d57db3b0b4659ca79" target="_top" xlink:title="Ioss::Region::add_state">
<polygon fill="#ffffff" stroke="#000000" points="289.1025,-573.5 289.1025,-591.5 410.1709,-591.5 410.1709,-573.5 289.1025,-573.5"/>
<text text-anchor="middle" x="349.6367" y="-579.5" font-family="Helvetica,sans-Serif" font-size="10.00" fill="#000000">Ioss::Region::add_state</text>
</a>
</g>
</g>
<!-- Node785&#45;&gt;Node787 -->
<g id="edge3" class="edge">
<title>Node785&#45;&gt;Node787</title>
<path fill="none" stroke="#191970" d="M235.7203,-541.5211C260.0284,-550.2654 291.0517,-561.4254 314.5833,-569.8903"/>
<polygon fill="#191970" stroke="#191970" points="313.5737,-573.2467 324.1681,-573.3383 315.9432,-566.6599 313.5737,-573.2467"/>
</g>
<!-- Node788 -->
<g id="node5" class="node">
<title>Node788</title>
<g id="a_node5"><a xlink:href="classIoss_1_1Region.html#aecc5d7ede05ee08ad1080daadfd78bd3" target="_top" xlink:title="Add a state for a specified time. ">
<polygon fill="#ffffff" stroke="#000000" points="448.6685,-587.5 448.6685,-605.5 580.8599,-605.5 580.8599,-587.5 448.6685,-587.5"/>
<text text-anchor="middle" x="514.7642" y="-593.5" font-family="Helvetica,sans-Serif" font-size="10.00" fill="#000000">Ioss::Region::add_state__</text>
</a>
</g>
</g>
<!-- Node787&#45;&gt;Node788 -->
<g id="edge4" class="edge">
<title>Node787&#45;&gt;Node788</title>
<path fill="none" stroke="#191970" d="M410.1864,-587.6336C419.3795,-588.413 428.9653,-589.2257 438.441,-590.0291"/>
<polygon fill="#191970" stroke="#191970" points="438.396,-593.5377 448.6559,-590.8951 438.9874,-586.5628 438.396,-593.5377"/>
</g>
<!-- Node789 -->
<g id="node6" class="node">
<title>Node789</title>
<g id="a_node6"><a xlink:href="classIoss_1_1GroupingEntity.html#a318cd5cde65370bb9c83f8ca223f8481" target="_top" xlink:title="Ioss::GroupingEntity\l::get_database">
<polygon fill="#ffffff" stroke="#000000" points="635.1973,-591.5 635.1973,-619.5 741.2412,-619.5 741.2412,-591.5 635.1973,-591.5"/>
<text text-anchor="start" x="643.1973" y="-607.5" font-family="Helvetica,sans-Serif" font-size="10.00" fill="#000000">Ioss::GroupingEntity</text>
<text text-anchor="middle" x="688.2192" y="-597.5" font-family="Helvetica,sans-Serif" font-size="10.00" fill="#000000">::get_database</text>
</a>
</g>
</g>
<!-- Node788&#45;&gt;Node789 -->
<g id="edge5" class="edge">
<title>Node788&#45;&gt;Node789</title>
<path fill="none" stroke="#191970" d="M581.3304,-599.9539C595.6296,-600.6958 610.703,-601.4779 624.876,-602.2133"/>
<polygon fill="#191970" stroke="#191970" points="624.845,-605.7163 635.013,-602.7393 625.2078,-598.7257 624.845,-605.7163"/>
</g>
<!-- Node790 -->
<g id="node7" class="node">
<title>Node790</title>
<g id="a_node7"><a xlink:href="classIoss_1_1DatabaseIO.html#a1c9ad01905e9773cd69b452a8551cbba" target="_top" xlink:title="Get the file name associated with the database. ">
<polygon fill="#ffffff" stroke="#000000" points="813.9233,-377.5 813.9233,-405.5 926.6421,-405.5 926.6421,-377.5 813.9233,-377.5"/>
<text text-anchor="start" x="821.9233" y="-393.5" font-family="Helvetica,sans-Serif" font-size="10.00" fill="#000000">Ioss::DatabaseIO::get</text>
<text text-anchor="middle" x="870.2827" y="-383.5" font-family="Helvetica,sans-Serif" font-size="10.00" fill="#000000">_filename</text>
</a>
</g>
</g>
<!-- Node788&#45;&gt;Node790 -->
<g id="edge6" class="edge">
<title>Node788&#45;&gt;Node790</title>
<path fill="none" stroke="#191970" d="M530.3223,-587.3437C550.7224,-575.3568 587.6454,-553.7265 619.3574,-535.5 680.347,-500.4462 703.0313,-502.5236 757.0811,-457.5 776.2318,-441.5474 772.2553,-428.1939 793.0811,-414.5 796.6305,-412.1661 800.4245,-410.0622 804.3551,-408.1667"/>
<polygon fill="#191970" stroke="#191970" points="805.9366,-411.296 813.7234,-404.1115 803.1559,-404.8719 805.9366,-411.296"/>
</g>
<!-- Node792 -->
<g id="node9" class="node">
<title>Node792</title>
<g id="a_node9"><a xlink:href="classIocgns_1_1DatabaseIO.html#a7ec7460e9012476c2ce023b4be3bb34c" target="_top" xlink:title="Iocgns::DatabaseIO\l::openDatabase__">
<polygon fill="#ffffff" stroke="#000000" points="297.4448,-439.5 297.4448,-467.5 401.8286,-467.5 401.8286,-439.5 297.4448,-439.5"/>
<text text-anchor="start" x="305.4448" y="-455.5" font-family="Helvetica,sans-Serif" font-size="10.00" fill="#000000">Iocgns::DatabaseIO</text>
<text text-anchor="middle" x="349.6367" y="-445.5" font-family="Helvetica,sans-Serif" font-size="10.00" fill="#000000">::openDatabase__</text>
</a>
</g>
</g>
<!-- Node791&#45;&gt;Node792 -->
<g id="edge8" class="edge">
<title>Node791&#45;&gt;Node792</title>
<path fill="none" stroke="#191970" d="M249.3605,-462.0261C261.6291,-460.983 274.8076,-459.8625 287.4471,-458.7878"/>
<polygon fill="#191970" stroke="#191970" points="287.7729,-462.2728 297.4404,-457.9381 287.1798,-455.298 287.7729,-462.2728"/>
</g>
<!-- Node793 -->
<g id="node10" class="node">
<title>Node793</title>
<g id="a_node10"><a xlink:href="classIoss_1_1DatabaseIO.html#afaf8598b13b44b8f262b3eec8398cb06" target="_top" xlink:title="Determine whether the database is an input database. ">
<polygon fill="#ffffff" stroke="#000000" points="817.2632,-424.5 817.2632,-452.5 923.3022,-452.5 923.3022,-424.5 817.2632,-424.5"/>
<text text-anchor="start" x="825.2632" y="-440.5" font-family="Helvetica,sans-Serif" font-size="10.00" fill="#000000">Ioss::DatabaseIO::is</text>
<text text-anchor="middle" x="870.2827" y="-430.5" font-family="Helvetica,sans-Serif" font-size="10.00" fill="#000000">_input</text>
</a>
</g>
</g>
<!-- Node792&#45;&gt;Node793 -->
<g id="edge9" class="edge">
<title>Node792&#45;&gt;Node793</title>
<path fill="none" stroke="#191970" d="M401.8556,-457.2012C479.4897,-461.9824 629.867,-468.4706 757.0811,-457.5 773.4407,-456.0892 790.9966,-453.6182 807.2839,-450.9156"/>
<polygon fill="#191970" stroke="#191970" points="807.9736,-454.3486 817.2391,-449.2104 806.7917,-447.449 807.9736,-454.3486"/>
</g>
<!-- Node794 -->
<g id="node11" class="node">
<title>Node794</title>
<g id="a_node11"><a xlink:href="classIoss_1_1PropertyManager.html#a798ebd15c511dc029050e0d707de283f" target="_top" xlink:title="Checks if a property exists in the database. ">
<polygon fill="#ffffff" stroke="#000000" points="629.6406,-420.5 629.6406,-448.5 746.7979,-448.5 746.7979,-420.5 629.6406,-420.5"/>
<text text-anchor="start" x="637.6406" y="-436.5" font-family="Helvetica,sans-Serif" font-size="10.00" fill="#000000">Ioss::PropertyManager</text>
<text text-anchor="middle" x="688.2192" y="-426.5" font-family="Helvetica,sans-Serif" font-size="10.00" fill="#000000">::exists</text>
</a>
</g>
</g>
<!-- Node792&#45;&gt;Node794 -->
<g id="edge10" class="edge">
<title>Node792&#45;&gt;Node794</title>
<path fill="none" stroke="#191970" d="M402.1687,-450.5521C460.6164,-447.2722 555.2668,-441.9608 619.5444,-438.3538"/>
<polygon fill="#191970" stroke="#191970" points="619.8014,-441.845 629.5896,-437.7901 619.4092,-434.856 619.8014,-441.845"/>
</g>
<!-- Node795 -->
<g id="node12" class="node">
<title>Node795</title>
<g id="a_node12"><a xlink:href="classIoss_1_1DatabaseIO.html#a2086f8e605c31f9eb2af5fac410a46b2" target="_top" xlink:title="Get a file&#45;per&#45;processor filename associated with the database. ">
<polygon fill="#ffffff" stroke="#000000" points="446.1709,-248.5 446.1709,-276.5 583.3574,-276.5 583.3574,-248.5 446.1709,-248.5"/>
<text text-anchor="start" x="454.1709" y="-264.5" font-family="Helvetica,sans-Serif" font-size="10.00" fill="#000000">Ioss::DatabaseIO::decoded</text>
<text text-anchor="middle" x="514.7642" y="-254.5" font-family="Helvetica,sans-Serif" font-size="10.00" fill="#000000">_filename</text>
</a>
</g>
</g>
<!-- Node792&#45;&gt;Node795 -->
<g id="edge11" class="edge">
<title>Node792&#45;&gt;Node795</title>
<path fill="none" stroke="#191970" d="M361.7789,-439.4553C390.2882,-406.4792 461.6755,-323.9067 495.895,-284.3256"/>
<polygon fill="#191970" stroke="#191970" points="498.7117,-286.4192 502.6041,-276.5653 493.4163,-281.8411 498.7117,-286.4192"/>
</g>
<!-- Node799 -->
<g id="node16" class="node">
<title>Node799</title>
<g id="a_node16"><a xlink:href="classIoss_1_1PropertyManager.html#ab9b0abf6f5acb6bd9f5e34e984f840a6" target="_top" xlink:title="Get a property object from the property manager. ">
<polygon fill="#ffffff" stroke="#000000" points="619.9116,-97.5 619.9116,-115.5 756.5269,-115.5 756.5269,-97.5 619.9116,-97.5"/>
<text text-anchor="middle" x="688.2192" y="-103.5" font-family="Helvetica,sans-Serif" font-size="10.00" fill="#000000">Ioss::PropertyManager::get</text>
</a>
</g>
</g>
<!-- Node792&#45;&gt;Node799 -->
<g id="edge52" class="edge">
<title>Node792&#45;&gt;Node799</title>
<path fill="none" stroke="#191970" d="M352.9924,-439.4433C362.3182,-402.786 391.5286,-302.6762 446.1709,-238.5 505.911,-168.3367 535.1748,-161.9839 619.3574,-124.5 624.3666,-122.2696 629.7083,-120.2715 635.1167,-118.4923"/>
<polygon fill="#191970" stroke="#191970" points="636.3199,-121.7847 644.8665,-115.5232 634.2806,-115.0883 636.3199,-121.7847"/>
</g>
<!-- Node800 -->
<g id="node17" class="node">
<title>Node800</title>
<g id="a_node17"><a xlink:href="classIoss_1_1Property.html#a45bcbc7137a296f3eda52c92c04da39f" target="_top" xlink:title="Get the property value if it is of type INTEGER. ">
<polygon fill="#ffffff" stroke="#000000" points="631.584,-60.5 631.584,-78.5 744.8545,-78.5 744.8545,-60.5 631.584,-60.5"/>
<text text-anchor="middle" x="688.2192" y="-66.5" font-family="Helvetica,sans-Serif" font-size="10.00" fill="#000000">Ioss::Property::get_int</text>
</a>
</g>
</g>
<!-- Node792&#45;&gt;Node800 -->
<g id="edge53" class="edge">
<title>Node792&#45;&gt;Node800</title>
<path fill="none" stroke="#191970" d="M352.078,-439.4645C361.9918,-383.9924 400.8779,-180.9016 446.1709,-136.5 492.6073,-90.9776 567.0872,-75.7562 621.176,-70.9806"/>
<polygon fill="#191970" stroke="#191970" points="621.6708,-74.4527 631.3669,-70.1821 621.124,-67.4741 621.6708,-74.4527"/>
</g>
<!-- Node813 -->
<g id="node30" class="node">
<title>Node813</title>
<g id="a_node30"><a xlink:href="classIocgns_1_1DatabaseIO.html#ac24c1fe72e1e14f91497d6f4ddcd73d0" target="_top" xlink:title="Iocgns::DatabaseIO\l::check_valid_file_open">
<polygon fill="#ffffff" stroke="#000000" points="628.2393,-544.5 628.2393,-572.5 748.1992,-572.5 748.1992,-544.5 628.2393,-544.5"/>
<text text-anchor="start" x="636.2393" y="-560.5" font-family="Helvetica,sans-Serif" font-size="10.00" fill="#000000">Iocgns::DatabaseIO</text>
<text text-anchor="middle" x="688.2192" y="-550.5" font-family="Helvetica,sans-Serif" font-size="10.00" fill="#000000">::check_valid_file_open</text>
</a>
</g>
</g>
<!-- Node792&#45;&gt;Node813 -->
<g id="edge37" class="edge">
<title>Node792&#45;&gt;Node813</title>
<path fill="none" stroke="#191970" d="M367.1382,-467.6879C379.3806,-477.7467 396.0101,-491.6806 410.1709,-504.5 426.7144,-519.4763 425.8391,-530.3025 446.1709,-539.5 500.2447,-563.9615 568.0568,-567.2629 618.1378,-565.2806"/>
<polygon fill="#191970" stroke="#191970" points="618.4034,-568.7721 628.2259,-564.8009 618.0709,-561.78 618.4034,-568.7721"/>
</g>
<!-- Node822 -->
<g id="node39" class="node">
<title>Node822</title>
<g id="a_node39"><a xlink:href="classIoss_1_1DatabaseIO.html#add13a49b34f8c4bb7b85bb7ad91c01c3" target="_top" xlink:title="Returns 4 or 8. ">
<polygon fill="#ffffff" stroke="#000000" points="458.6855,-501.5 458.6855,-529.5 570.8428,-529.5 570.8428,-501.5 458.6855,-501.5"/>
<text text-anchor="start" x="466.6855" y="-517.5" font-family="Helvetica,sans-Serif" font-size="10.00" fill="#000000">Ioss::DatabaseIO::set</text>
<text text-anchor="middle" x="514.7642" y="-507.5" font-family="Helvetica,sans-Serif" font-size="10.00" fill="#000000">_int_byte_size_api</text>
</a>
</g>
</g>
<!-- Node792&#45;&gt;Node822 -->
<g id="edge54" class="edge">
<title>Node792&#45;&gt;Node822</title>
<path fill="none" stroke="#191970" d="M387.1067,-467.5688C411.0695,-476.566 442.3426,-488.3081 467.9379,-497.9183"/>
<polygon fill="#191970" stroke="#191970" points="466.8503,-501.2484 477.4425,-501.4869 469.3109,-494.6951 466.8503,-501.2484"/>
</g>
<!-- Node795&#45;&gt;Node790 -->
<g id="edge15" class="edge">
<title>Node795&#45;&gt;Node790</title>
<path fill="none" stroke="#191970" d="M523.3035,-276.6262C538.9041,-300.9719 574.5693,-350.2622 619.3574,-371.5 677.1999,-398.9279 751.0044,-401.5155 803.5652,-398.7098"/>
<polygon fill="#191970" stroke="#191970" points="804.0163,-402.1887 813.783,-398.0825 803.5873,-395.2019 804.0163,-402.1887"/>
</g>
<!-- Node795&#45;&gt;Node794 -->
<g id="edge16" class="edge">
<title>Node795&#45;&gt;Node794</title>
<path fill="none" stroke="#191970" d="M521.7352,-276.6526C536.2475,-304.8028 572.3052,-368.3037 619.3574,-405.5 624.2993,-409.4067 629.8442,-412.8748 635.5856,-415.9301"/>
<polygon fill="#191970" stroke="#191970" points="634.1904,-419.1439 644.7111,-420.3952 637.267,-412.8562 634.1904,-419.1439"/>
</g>
<!-- Node796 -->
<g id="node13" class="node">
<title>Node796</title>
<g id="a_node13"><a xlink:href="classIoss_1_1DatabaseIO.html#acd988f56b93ac669b2e504a8e471b321" target="_top" xlink:title="Ioss::DatabaseIO::util">
<polygon fill="#ffffff" stroke="#000000" points="990.1641,-514.5 990.1641,-532.5 1101.7646,-532.5 1101.7646,-514.5 990.1641,-514.5"/>
<text text-anchor="middle" x="1045.9644" y="-520.5" font-family="Helvetica,sans-Serif" font-size="10.00" fill="#000000">Ioss::DatabaseIO::util</text>
</a>
</g>
</g>
<!-- Node795&#45;&gt;Node796 -->
<g id="edge12" class="edge">
<title>Node795&#45;&gt;Node796</title>
<path fill="none" stroke="#191970" d="M576.0709,-276.523C693.8458,-303.5771 940.7741,-360.9037 947.4844,-367.5 992.6873,-411.9351 939.2346,-460.1157 983.4844,-505.5 984.7034,-506.7503 986.0032,-507.9151 987.3696,-509.0004"/>
<polygon fill="#191970" stroke="#191970" points="985.5098,-511.9655 995.8246,-514.3855 989.2703,-506.0613 985.5098,-511.9655"/>
</g>
<!-- Node797 -->
<g id="node14" class="node">
<title>Node797</title>
<g id="a_node14"><a xlink:href="classIoss_1_1ParallelUtils.html#a847a94880409904693640054d98325df" target="_top" xlink:title="Ioss::ParallelUtils\l::decode_filename">
<polygon fill="#ffffff" stroke="#000000" points="639.3574,-248.5 639.3574,-276.5 737.0811,-276.5 737.0811,-248.5 639.3574,-248.5"/>
<text text-anchor="start" x="647.3574" y="-264.5" font-family="Helvetica,sans-Serif" font-size="10.00" fill="#000000">Ioss::ParallelUtils</text>
<text text-anchor="middle" x="688.2192" y="-254.5" font-family="Helvetica,sans-Serif" font-size="10.00" fill="#000000">::decode_filename</text>
</a>
</g>
</g>
<!-- Node795&#45;&gt;Node797 -->
<g id="edge13" class="edge">
<title>Node795&#45;&gt;Node797</title>
<path fill="none" stroke="#191970" d="M583.8166,-262.5C598.717,-262.5 614.3444,-262.5 628.8369,-262.5"/>
<polygon fill="#191970" stroke="#191970" points="629.1625,-266.0001 639.1625,-262.5 629.1624,-259.0001 629.1625,-266.0001"/>
</g>
<!-- Node798 -->
<g id="node15" class="node">
<title>Node798</title>
<g id="a_node15"><a xlink:href="classIoss_1_1Utils.html#a72d3b4a8659178159d33d50eef9843cc" target="_top" xlink:title="Ioss::Utils::decode\l_filename">
<polygon fill="#ffffff" stroke="#000000" points="821.4307,-248.5 821.4307,-276.5 919.1348,-276.5 919.1348,-248.5 821.4307,-248.5"/>
<text text-anchor="start" x="829.4307" y="-264.5" font-family="Helvetica,sans-Serif" font-size="10.00" fill="#000000">Ioss::Utils::decode</text>
<text text-anchor="middle" x="870.2827" y="-254.5" font-family="Helvetica,sans-Serif" font-size="10.00" fill="#000000">_filename</text>
</a>
</g>
</g>
<!-- Node795&#45;&gt;Node798 -->
<g id="edge22" class="edge">
<title>Node795&#45;&gt;Node798</title>
<path fill="none" stroke="#191970" d="M565.4373,-248.4525C582.4345,-244.391 601.5858,-240.5128 619.3574,-238.5 680.1791,-231.6114 696.2042,-232.1176 757.0811,-238.5 774.8691,-240.3649 793.9756,-243.8353 811.3322,-247.5689"/>
<polygon fill="#191970" stroke="#191970" points="810.8053,-251.037 821.3262,-249.7875 812.3224,-244.2034 810.8053,-251.037"/>
</g>
<!-- Node795&#45;&gt;Node799 -->
<g id="edge17" class="edge">
<title>Node795&#45;&gt;Node799</title>
<path fill="none" stroke="#191970" d="M536.512,-248.4188C551.2634,-237.9912 570.3696,-222.6616 583.3574,-205.5 607.131,-174.0864 589.331,-150.0032 619.3574,-124.5 621.1174,-123.0051 622.9874,-121.6326 624.942,-120.3724"/>
<polygon fill="#191970" stroke="#191970" points="626.8102,-123.3424 633.9744,-115.5369 623.5063,-117.1711 626.8102,-123.3424"/>
</g>
<!-- Node795&#45;&gt;Node800 -->
<g id="edge18" class="edge">
<title>Node795&#45;&gt;Node800</title>
<path fill="none" stroke="#191970" d="M519.1295,-248.1544C530.112,-214.5654 562.1756,-130.4202 619.3574,-87.5 621.6737,-85.7614 624.143,-84.1903 626.718,-82.7706"/>
<polygon fill="#191970" stroke="#191970" points="628.245,-85.9203 635.8108,-78.5034 625.2711,-79.5834 628.245,-85.9203"/>
</g>
<!-- Node804 -->
<g id="node21" class="node">
<title>Node804</title>
<g id="a_node21"><a xlink:href="classIoss_1_1DatabaseIO.html#a5e6d55ed99477a4437ac7d853bc42211" target="_top" xlink:title="If we are planning to use BB(aka Burst Buffer) service, we will call simple C API provided by Cray Da...">
<polygon fill="#ffffff" stroke="#000000" points="619.3574,-134.5 619.3574,-152.5 757.0811,-152.5 757.0811,-134.5 619.3574,-134.5"/>
<text text-anchor="middle" x="688.2192" y="-140.5" font-family="Helvetica,sans-Serif" font-size="10.00" fill="#000000">Ioss::DatabaseIO::openDW</text>
</a>
</g>
</g>
<!-- Node795&#45;&gt;Node804 -->
<g id="edge23" class="edge">
<title>Node795&#45;&gt;Node804</title>
<path fill="none" stroke="#191970" d="M533.0282,-248.3024C547.1444,-237.0986 566.9744,-220.8509 583.3574,-205.5 600.3339,-189.593 599.82,-180.1303 619.3574,-167.5 626.4644,-162.9056 634.5548,-159.0742 642.6306,-155.9206"/>
<polygon fill="#191970" stroke="#191970" points="643.8253,-159.2104 652.0443,-152.5247 641.4499,-152.6257 643.8253,-159.2104"/>
</g>
<!-- Node809 -->
<g id="node26" class="node">
<title>Node809</title>
<g id="a_node26"><a xlink:href="classIoss_1_1DatabaseIO.html#a7ebbdc09be146cd42dc26b135e494a95" target="_top" xlink:title="Ioss::DatabaseIO::using_dw">
<polygon fill="#ffffff" stroke="#000000" points="799.7485,-211.5 799.7485,-229.5 940.8169,-229.5 940.8169,-211.5 799.7485,-211.5"/>
<text text-anchor="middle" x="870.2827" y="-217.5" font-family="Helvetica,sans-Serif" font-size="10.00" fill="#000000">Ioss::DatabaseIO::using_dw</text>
</a>
</g>
</g>
<!-- Node795&#45;&gt;Node809 -->
<g id="edge32" class="edge">
<title>Node795&#45;&gt;Node809</title>
<path fill="none" stroke="#191970" d="M552.4483,-248.4011C572.0998,-241.7099 596.7052,-234.3504 619.3574,-230.5 675.7537,-220.9139 740.2567,-218.5274 789.7413,-218.4785"/>
<polygon fill="#191970" stroke="#191970" points="789.7398,-221.9784 799.7474,-218.5001 789.755,-214.9784 789.7398,-221.9784"/>
</g>
<!-- Node812 -->
<g id="node29" class="node">
<title>Node812</title>
<g id="a_node29"><a xlink:href="classIoss_1_1DatabaseIO.html#a647e5041a48ca35ee03cb739333b1bf2" target="_top" xlink:title="Ioss::DatabaseIO::get\l_dwname">
<polygon fill="#ffffff" stroke="#000000" points="631.8599,-334.5 631.8599,-362.5 744.5786,-362.5 744.5786,-334.5 631.8599,-334.5"/>
<text text-anchor="start" x="639.8599" y="-350.5" font-family="Helvetica,sans-Serif" font-size="10.00" fill="#000000">Ioss::DatabaseIO::get</text>
<text text-anchor="middle" x="688.2192" y="-340.5" font-family="Helvetica,sans-Serif" font-size="10.00" fill="#000000">_dwname</text>
</a>
</g>
</g>
<!-- Node795&#45;&gt;Node812 -->
<g id="edge33" class="edge">
<title>Node795&#45;&gt;Node812</title>
<path fill="none" stroke="#191970" d="M538.9178,-276.5634C559.8887,-288.555 591.2229,-305.9517 619.3574,-319.5 627.0858,-323.2216 635.4161,-326.9555 643.5217,-330.447"/>
<polygon fill="#191970" stroke="#191970" points="642.3116,-333.7355 652.8843,-334.4192 645.0455,-327.2915 642.3116,-333.7355"/>
</g>
<!-- Node797&#45;&gt;Node798 -->
<g id="edge14" class="edge">
<title>Node797&#45;&gt;Node798</title>
<path fill="none" stroke="#191970" d="M737.4882,-262.5C760.1468,-262.5 787.2127,-262.5 810.9802,-262.5"/>
<polygon fill="#191970" stroke="#191970" points="811.2901,-266.0001 821.2901,-262.5 811.29,-259.0001 811.2901,-266.0001"/>
</g>
<!-- Node801 -->
<g id="node18" class="node">
<title>Node801</title>
<g id="a_node18"><a xlink:href="namespaceanonymous__namespace_02Ioss__Property_8C_03.html#a7e9f404cf974920b115b502313608c02" target="_top" xlink:title="anonymous_namespace\l\{Ioss_Property::C\}::\lerror_message">
<polygon fill="#ffffff" stroke="#000000" points="807.8027,-13.5 807.8027,-51.5 932.7627,-51.5 932.7627,-13.5 807.8027,-13.5"/>
<text text-anchor="start" x="815.8027" y="-39.5" font-family="Helvetica,sans-Serif" font-size="10.00" fill="#000000">anonymous_namespace</text>
<text text-anchor="start" x="815.8027" y="-29.5" font-family="Helvetica,sans-Serif" font-size="10.00" fill="#000000">{Ioss_Property::C}::</text>
<text text-anchor="middle" x="870.2827" y="-19.5" font-family="Helvetica,sans-Serif" font-size="10.00" fill="#000000">error_message</text>
</a>
</g>
</g>
<!-- Node800&#45;&gt;Node801 -->
<g id="edge19" class="edge">
<title>Node800&#45;&gt;Node801</title>
<path fill="none" stroke="#191970" d="M732.757,-60.4488C752.2933,-56.4785 775.7349,-51.7146 797.6843,-47.2539"/>
<polygon fill="#191970" stroke="#191970" points="798.5421,-50.6512 807.6447,-45.2297 797.148,-43.7914 798.5421,-50.6512"/>
</g>
<!-- Node802 -->
<g id="node19" class="node">
<title>Node802</title>
<g id="a_node19"><a xlink:href="namespaceanonymous__namespace_02Ioss__Property_8C_03.html#a33c896c06915d8a83ca1d8886b26d8ed" target="_top" xlink:title="anonymous_namespace\l\{Ioss_Property::C\}::\ltype_string">
<polygon fill="#ffffff" stroke="#000000" points="983.4844,-37.5 983.4844,-75.5 1108.4443,-75.5 1108.4443,-37.5 983.4844,-37.5"/>
<text text-anchor="start" x="991.4844" y="-63.5" font-family="Helvetica,sans-Serif" font-size="10.00" fill="#000000">anonymous_namespace</text>
<text text-anchor="start" x="991.4844" y="-53.5" font-family="Helvetica,sans-Serif" font-size="10.00" fill="#000000">{Ioss_Property::C}::</text>
<text text-anchor="middle" x="1045.9644" y="-43.5" font-family="Helvetica,sans-Serif" font-size="10.00" fill="#000000">type_string</text>
</a>
</g>
</g>
<!-- Node801&#45;&gt;Node802 -->
<g id="edge20" class="edge">
<title>Node801&#45;&gt;Node802</title>
<path fill="none" stroke="#191970" d="M933.2116,-41.0968C946.2356,-42.876 960.0562,-44.764 973.3923,-46.5859"/>
<polygon fill="#191970" stroke="#191970" points="973.0931,-50.0774 983.4748,-47.9633 974.0406,-43.1418 973.0931,-50.0774"/>
</g>
<!-- Node803 -->
<g id="node20" class="node">
<title>Node803</title>
<g id="a_node20"><a xlink:href="classIoss_1_1Property.html#a90c992cd11af736282e63e1c34b1c076" target="_top" xlink:title="Get the property type. ">
<polygon fill="#ffffff" stroke="#000000" points="985.1592,-.5 985.1592,-18.5 1106.7695,-18.5 1106.7695,-.5 985.1592,-.5"/>
<text text-anchor="middle" x="1045.9644" y="-6.5" font-family="Helvetica,sans-Serif" font-size="10.00" fill="#000000">Ioss::Property::get_type</text>
</a>
</g>
</g>
<!-- Node801&#45;&gt;Node803 -->
<g id="edge21" class="edge">
<title>Node801&#45;&gt;Node803</title>
<path fill="none" stroke="#191970" d="M933.2116,-24.2614C946.7594,-22.4878 961.1692,-20.6013 974.999,-18.7907"/>
<polygon fill="#191970" stroke="#191970" points="975.4851,-22.257 984.9461,-17.4884 974.5763,-15.3162 975.4851,-22.257"/>
</g>
<!-- Node805 -->
<g id="node22" class="node">
<title>Node805</title>
<g id="a_node22"><a xlink:href="classIoss_1_1DatabaseIO.html#a38beccd1ba2407ad7c510a3fa6daa067" target="_top" xlink:title="Ioss::DatabaseIO::set\l_pfsname">
<polygon fill="#ffffff" stroke="#000000" points="814.2041,-164.5 814.2041,-192.5 926.3613,-192.5 926.3613,-164.5 814.2041,-164.5"/>
<text text-anchor="start" x="822.2041" y="-180.5" font-family="Helvetica,sans-Serif" font-size="10.00" fill="#000000">Ioss::DatabaseIO::set</text>
<text text-anchor="middle" x="870.2827" y="-170.5" font-family="Helvetica,sans-Serif" font-size="10.00" fill="#000000">_pfsname</text>
</a>
</g>
</g>
<!-- Node804&#45;&gt;Node805 -->
<g id="edge24" class="edge">
<title>Node804&#45;&gt;Node805</title>
<path fill="none" stroke="#191970" d="M735.1051,-152.5134C756.1223,-156.5537 781.2819,-161.3904 804.1657,-165.7896"/>
<polygon fill="#191970" stroke="#191970" points="803.6737,-169.259 814.1546,-167.7099 804.9952,-162.3849 803.6737,-169.259"/>
</g>
<!-- Node804&#45;&gt;Node809 -->
<g id="edge28" class="edge">
<title>Node804&#45;&gt;Node809</title>
<path fill="none" stroke="#191970" d="M723.1213,-152.5091C734.4144,-156.2347 746.6947,-161.1877 757.0811,-167.5 775.888,-178.9299 773.7576,-190.9668 793.0811,-201.5 797.8531,-204.1012 802.9835,-206.3518 808.2492,-208.2979"/>
<polygon fill="#191970" stroke="#191970" points="807.2318,-211.648 817.8253,-211.4824 809.4407,-205.0056 807.2318,-211.648"/>
</g>
<!-- Node810 -->
<g id="node27" class="node">
<title>Node810</title>
<g id="a_node27"><a xlink:href="classIoss_1_1DatabaseIO.html#a4a4dc5f08b09384edb478b7eadca9599" target="_top" xlink:title="We call this ONLY after we assure that using_dw() is TRUE &#160;returns mount point of Datawarp namespace...">
<polygon fill="#ffffff" stroke="#000000" points="813.9233,-117.5 813.9233,-145.5 926.6421,-145.5 926.6421,-117.5 813.9233,-117.5"/>
<text text-anchor="start" x="821.9233" y="-133.5" font-family="Helvetica,sans-Serif" font-size="10.00" fill="#000000">Ioss::DatabaseIO::get</text>
<text text-anchor="middle" x="870.2827" y="-123.5" font-family="Helvetica,sans-Serif" font-size="10.00" fill="#000000">_dwPath</text>
</a>
</g>
</g>
<!-- Node804&#45;&gt;Node810 -->
<g id="edge29" class="edge">
<title>Node804&#45;&gt;Node810</title>
<path fill="none" stroke="#191970" d="M757.3092,-138.9462C772.4298,-137.9496 788.4093,-136.8964 803.4401,-135.9057"/>
<polygon fill="#191970" stroke="#191970" points="803.9241,-139.3815 813.6723,-135.2313 803.4637,-132.3966 803.9241,-139.3815"/>
</g>
<!-- Node811 -->
<g id="node28" class="node">
<title>Node811</title>
<g id="a_node28"><a xlink:href="classIoss_1_1DatabaseIO.html#a1f57325a25c1fcd14f9f3cc9947b0b3e" target="_top" xlink:title="this will be the name in BB namespace ">
<polygon fill="#ffffff" stroke="#000000" points="814.2041,-70.5 814.2041,-98.5 926.3613,-98.5 926.3613,-70.5 814.2041,-70.5"/>
<text text-anchor="start" x="822.2041" y="-86.5" font-family="Helvetica,sans-Serif" font-size="10.00" fill="#000000">Ioss::DatabaseIO::set</text>
<text text-anchor="middle" x="870.2827" y="-76.5" font-family="Helvetica,sans-Serif" font-size="10.00" fill="#000000">_dwname</text>
</a>
</g>
</g>
<!-- Node804&#45;&gt;Node811 -->
<g id="edge30" class="edge">
<title>Node804&#45;&gt;Node811</title>
<path fill="none" stroke="#191970" d="M725.4013,-134.4976C735.7715,-131.6487 746.9649,-128.2524 757.0811,-124.5 773.6708,-118.3464 776.5547,-113.822 793.0811,-107.5 798.4365,-105.4513 804.0568,-103.4689 809.7197,-101.5841"/>
<polygon fill="#191970" stroke="#191970" points="810.8082,-104.9106 819.2509,-98.5097 808.6593,-98.2486 810.8082,-104.9106"/>
</g>
<!-- Node806 -->
<g id="node23" class="node">
<title>Node806</title>
<g id="a_node23"><a xlink:href="namespaceanonymous__namespace_02io__info_8C_03.html#ac76aa36231a3291b803cc8e620fce319" target="_top" xlink:title="anonymous_namespace\l\{io_info::C\}::name">
<polygon fill="#ffffff" stroke="#000000" points="983.4844,-129.5 983.4844,-157.5 1108.4443,-157.5 1108.4443,-129.5 983.4844,-129.5"/>
<text text-anchor="start" x="991.4844" y="-145.5" font-family="Helvetica,sans-Serif" font-size="10.00" fill="#000000">anonymous_namespace</text>
<text text-anchor="middle" x="1045.9644" y="-135.5" font-family="Helvetica,sans-Serif" font-size="10.00" fill="#000000">{io_info::C}::name</text>
</a>
</g>
</g>
<!-- Node805&#45;&gt;Node806 -->
<g id="edge25" class="edge">
<title>Node805&#45;&gt;Node806</title>
<path fill="none" stroke="#191970" d="M926.8365,-167.2331C941.6475,-164.2824 957.8236,-161.0598 973.3456,-157.9674"/>
<polygon fill="#191970" stroke="#191970" points="974.3069,-161.3447 983.4303,-155.9583 972.9392,-154.4797 974.3069,-161.3447"/>
</g>
<!-- Node807 -->
<g id="node24" class="node">
<title>Node807</title>
<g id="a_node24"><a xlink:href="classIoss_1_1GroupingEntity.html#adf92c4256dc89b729f4492642bc4d745" target="_top" xlink:title="Get the name of the particular type of entity. ">
<polygon fill="#ffffff" stroke="#000000" points="1144.4443,-152.5 1144.4443,-180.5 1250.4883,-180.5 1250.4883,-152.5 1144.4443,-152.5"/>
<text text-anchor="start" x="1152.4443" y="-168.5" font-family="Helvetica,sans-Serif" font-size="10.00" fill="#000000">Ioss::GroupingEntity</text>
<text text-anchor="middle" x="1197.4663" y="-158.5" font-family="Helvetica,sans-Serif" font-size="10.00" fill="#000000">::type_string</text>
</a>
</g>
</g>
<!-- Node806&#45;&gt;Node807 -->
<g id="edge26" class="edge">
<title>Node806&#45;&gt;Node807</title>
<path fill="none" stroke="#191970" d="M1108.4607,-152.9878C1117.0141,-154.2863 1125.8002,-155.6201 1134.3644,-156.9203"/>
<polygon fill="#191970" stroke="#191970" points="1133.8766,-160.3863 1144.2887,-158.4269 1134.9273,-153.4656 1133.8766,-160.3863"/>
</g>
<!-- Node808 -->
<g id="node25" class="node">
<title>Node808</title>
<g id="a_node25"><a xlink:href="classIoss_1_1GroupingEntity.html#a50d4053f49c8c3205e05d939fdc9fbc5" target="_top" xlink:title="Get name of entity. ">
<polygon fill="#ffffff" stroke="#000000" points="1144.4443,-105.5 1144.4443,-133.5 1250.4883,-133.5 1250.4883,-105.5 1144.4443,-105.5"/>
<text text-anchor="start" x="1152.4443" y="-121.5" font-family="Helvetica,sans-Serif" font-size="10.00" fill="#000000">Ioss::GroupingEntity</text>
<text text-anchor="middle" x="1197.4663" y="-111.5" font-family="Helvetica,sans-Serif" font-size="10.00" fill="#000000">::name</text>
</a>
</g>
</g>
<!-- Node806&#45;&gt;Node808 -->
<g id="edge27" class="edge">
<title>Node806&#45;&gt;Node808</title>
<path fill="none" stroke="#191970" d="M1108.4607,-133.5997C1117.0141,-132.2447 1125.8002,-130.8529 1134.3644,-129.4962"/>
<polygon fill="#191970" stroke="#191970" points="1134.9595,-132.9457 1144.2887,-127.9241 1133.8642,-126.0319 1134.9595,-132.9457"/>
</g>
<!-- Node811&#45;&gt;Node806 -->
<g id="edge31" class="edge">
<title>Node811&#45;&gt;Node806</title>
<path fill="none" stroke="#191970" d="M919.0195,-98.5289C928.4938,-101.3943 938.3245,-104.4644 947.4844,-107.5 964.6736,-113.1964 983.3739,-119.9016 999.8156,-125.9715"/>
<polygon fill="#191970" stroke="#191970" points="998.6137,-129.2587 1009.2067,-129.4595 1001.051,-122.6967 998.6137,-129.2587"/>
</g>
<!-- Node812&#45;&gt;Node790 -->
<g id="edge36" class="edge">
<title>Node812&#45;&gt;Node790</title>
<path fill="none" stroke="#191970" d="M744.8273,-361.8698C763.4942,-366.2786 784.426,-371.2223 803.7633,-375.7894"/>
<polygon fill="#191970" stroke="#191970" points="803.1729,-379.2461 813.7097,-378.1385 804.782,-372.4336 803.1729,-379.2461"/>
</g>
<!-- Node812&#45;&gt;Node793 -->
<g id="edge34" class="edge">
<title>Node812&#45;&gt;Node793</title>
<path fill="none" stroke="#191970" d="M707.4482,-362.7647C727.8442,-377.3652 761.4286,-399.923 793.0811,-414.5 798.1009,-416.8118 803.4029,-418.9802 808.7815,-420.9947"/>
<polygon fill="#191970" stroke="#191970" points="807.9067,-424.3983 818.5014,-424.4522 810.2527,-417.8031 807.9067,-424.3983"/>
</g>
<!-- Node812&#45;&gt;Node809 -->
<g id="edge35" class="edge">
<title>Node812&#45;&gt;Node809</title>
<path fill="none" stroke="#191970" d="M705.4154,-334.2583C719.8416,-321.9696 740.6612,-303.4204 757.0811,-285.5 774.8568,-266.0998 770.9729,-252.7679 793.0811,-238.5 796.0027,-236.6145 799.0995,-234.9258 802.3087,-233.4135"/>
<polygon fill="#191970" stroke="#191970" points="803.675,-236.6361 811.5974,-229.6015 801.0173,-230.1603 803.675,-236.6361"/>
</g>
<!-- Node813&#45;&gt;Node790 -->
<g id="edge46" class="edge">
<title>Node813&#45;&gt;Node790</title>
<path fill="none" stroke="#191970" d="M706.1024,-544.2909C721.148,-531.6475 742.483,-512.0252 757.0811,-491.5 778.9765,-460.7144 764.4689,-439.1679 793.0811,-414.5 796.5715,-411.4907 800.4425,-408.8751 804.5384,-406.6016"/>
<polygon fill="#191970" stroke="#191970" points="806.305,-409.6359 813.8035,-402.151 803.274,-403.3261 806.305,-409.6359"/>
</g>
<!-- Node813&#45;&gt;Node793 -->
<g id="edge50" class="edge">
<title>Node813&#45;&gt;Node793</title>
<path fill="none" stroke="#191970" d="M733.2963,-544.4873C741.7911,-540.5247 750.1669,-535.5845 757.0811,-529.5 781.0016,-508.4497 768.7519,-488.0767 793.0811,-467.5 797.7032,-463.5908 802.9044,-460.1818 808.3675,-457.2144"/>
<polygon fill="#191970" stroke="#191970" points="810.3052,-460.1631 817.7524,-452.6271 807.2312,-453.8741 810.3052,-460.1631"/>
</g>
<!-- Node813&#45;&gt;Node796 -->
<g id="edge38" class="edge">
<title>Node813&#45;&gt;Node796</title>
<path fill="none" stroke="#191970" d="M748.3254,-555.1307C800.9501,-551.8785 879.422,-546.2978 947.4844,-538.5 958.4688,-537.2415 970.1085,-535.6762 981.3912,-534.0357"/>
<polygon fill="#191970" stroke="#191970" points="982.2468,-537.447 991.6235,-532.5146 981.2175,-530.5231 982.2468,-537.447"/>
</g>
<!-- Node813&#45;&gt;Node798 -->
<g id="edge45" class="edge">
<title>Node813&#45;&gt;Node798</title>
<path fill="none" stroke="#191970" d="M699.2943,-544.4091C713.8524,-525.4401 739.6202,-490.2787 757.0811,-457.5 777.3356,-419.4769 772.1532,-405.1566 793.0811,-367.5 810.0832,-336.9072 834.7258,-304.9485 851.5677,-284.4445"/>
<polygon fill="#191970" stroke="#191970" points="854.3421,-286.5823 858.0444,-276.6554 848.9597,-282.1068 854.3421,-286.5823"/>
</g>
<!-- Node814 -->
<g id="node31" class="node">
<title>Node814</title>
<g id="a_node31"><a xlink:href="classIoss_1_1ParallelUtils.html#a0caf3dea894c98f32b83b705aaa1e360" target="_top" xlink:title="Ioss::ParallelUtils\l::global_minmax">
<polygon fill="#ffffff" stroke="#000000" points="823.938,-670.5 823.938,-698.5 916.6274,-698.5 916.6274,-670.5 823.938,-670.5"/>
<text text-anchor="start" x="831.938" y="-686.5" font-family="Helvetica,sans-Serif" font-size="10.00" fill="#000000">Ioss::ParallelUtils</text>
<text text-anchor="middle" x="870.2827" y="-676.5" font-family="Helvetica,sans-Serif" font-size="10.00" fill="#000000">::global_minmax</text>
</a>
</g>
</g>
<!-- Node813&#45;&gt;Node814 -->
<g id="edge39" class="edge">
<title>Node813&#45;&gt;Node814</title>
<path fill="none" stroke="#191970" d="M742.5223,-572.5325C747.7972,-575.2875 752.7776,-578.5761 757.0811,-582.5 785.5933,-608.497 763.9809,-636.1629 793.0811,-661.5 799.2299,-666.8537 806.5818,-670.9618 814.2699,-674.114"/>
<polygon fill="#191970" stroke="#191970" points="813.1616,-677.4347 823.7562,-677.5044 815.5174,-670.843 813.1616,-677.4347"/>
</g>
<!-- Node818 -->
<g id="node35" class="node">
<title>Node818</title>
<g id="a_node35"><a xlink:href="classIoss_1_1ParallelUtils.html#a6dc17211b6215cdf25671205024b3f08" target="_top" xlink:title="Ioss::ParallelUtils\l::all_gather">
<polygon fill="#ffffff" stroke="#000000" points="823.938,-623.5 823.938,-651.5 916.6274,-651.5 916.6274,-623.5 823.938,-623.5"/>
<text text-anchor="start" x="831.938" y="-639.5" font-family="Helvetica,sans-Serif" font-size="10.00" fill="#000000">Ioss::ParallelUtils</text>
<text text-anchor="middle" x="870.2827" y="-629.5" font-family="Helvetica,sans-Serif" font-size="10.00" fill="#000000">::all_gather</text>
</a>
</g>
</g>
<!-- Node813&#45;&gt;Node818 -->
<g id="edge43" class="edge">
<title>Node813&#45;&gt;Node818</title>
<path fill="none" stroke="#191970" d="M736.3512,-572.5433C743.5101,-575.4035 750.6399,-578.7174 757.0811,-582.5 775.5406,-593.3406 774.3781,-604.0851 793.0811,-614.5 799.5492,-618.1019 806.6435,-621.1976 813.8285,-623.8425"/>
<polygon fill="#191970" stroke="#191970" points="813.0375,-627.2703 823.6319,-627.1749 815.2904,-620.6427 813.0375,-627.2703"/>
</g>
<!-- Node819 -->
<g id="node36" class="node">
<title>Node819</title>
<g id="a_node36"><a xlink:href="classIoss_1_1ParallelUtils.html#a795617c394bd2bc1b68a15a006981971" target="_top" xlink:title="Ioss::ParallelUtils\l::parallel_size">
<polygon fill="#ffffff" stroke="#000000" points="999.6196,-467.5 999.6196,-495.5 1092.3091,-495.5 1092.3091,-467.5 999.6196,-467.5"/>
<text text-anchor="start" x="1007.6196" y="-483.5" font-family="Helvetica,sans-Serif" font-size="10.00" fill="#000000">Ioss::ParallelUtils</text>
<text text-anchor="middle" x="1045.9644" y="-473.5" font-family="Helvetica,sans-Serif" font-size="10.00" fill="#000000">::parallel_size</text>
</a>
</g>
</g>
<!-- Node813&#45;&gt;Node819 -->
<g id="edge44" class="edge">
<title>Node813&#45;&gt;Node819</title>
<path fill="none" stroke="#191970" d="M726.6117,-544.4271C736.7785,-540.1415 747.5665,-535.0724 757.0811,-529.5 774.5718,-519.2561 774.1829,-508.8296 793.0811,-501.5 856.9813,-476.7167 936.6445,-474.6743 989.2912,-476.8828"/>
<polygon fill="#191970" stroke="#191970" points="989.2897,-480.3868 999.4476,-477.3757 989.6291,-473.395 989.2897,-480.3868"/>
</g>
<!-- Node820 -->
<g id="node37" class="node">
<title>Node820</title>
<g id="a_node37"><a xlink:href="classIoss_1_1DatabaseIO.html#aceccfba755333cf8af271ba5dcc659c4" target="_top" xlink:title="Ioss::DatabaseIO::parallel_size">
<polygon fill="#ffffff" stroke="#000000" points="793.0811,-510.5 793.0811,-528.5 947.4844,-528.5 947.4844,-510.5 793.0811,-510.5"/>
<text text-anchor="middle" x="870.2827" y="-516.5" font-family="Helvetica,sans-Serif" font-size="10.00" fill="#000000">Ioss::DatabaseIO::parallel_size</text>
</a>
</g>
</g>
<!-- Node813&#45;&gt;Node820 -->
<g id="edge47" class="edge">
<title>Node813&#45;&gt;Node820</title>
<path fill="none" stroke="#191970" d="M748.3382,-545.6219C770.8709,-540.7951 796.271,-535.3541 818.0337,-530.6923"/>
<polygon fill="#191970" stroke="#191970" points="819.0289,-534.0586 828.074,-528.5416 817.5627,-527.2139 819.0289,-534.0586"/>
</g>
<!-- Node821 -->
<g id="node38" class="node">
<title>Node821</title>
<g id="a_node38"><a xlink:href="namespaceIodw_1_1Utils.html#a87e044777c87d6496718621a3e274dc4" target="_top" xlink:title="Iodw::Utils::msg">
<polygon fill="#ffffff" stroke="#000000" points="826.9971,-586.5 826.9971,-604.5 913.5684,-604.5 913.5684,-586.5 826.9971,-586.5"/>
<text text-anchor="middle" x="870.2827" y="-592.5" font-family="Helvetica,sans-Serif" font-size="10.00" fill="#000000">Iodw::Utils::msg</text>
</a>
</g>
</g>
<!-- Node813&#45;&gt;Node821 -->
<g id="edge51" class="edge">
<title>Node813&#45;&gt;Node821</title>
<path fill="none" stroke="#191970" d="M748.3382,-570.7177C770.5132,-575.2243 795.4653,-580.2952 816.9947,-584.6705"/>
<polygon fill="#191970" stroke="#191970" points="816.4446,-588.1302 826.9414,-586.6919 817.8388,-581.2704 816.4446,-588.1302"/>
</g>
<!-- Node815 -->
<g id="node32" class="node">
<title>Node815</title>
<g id="a_node32"><a xlink:href="classIoss_1_1SerializeIO.html#a5d68f99aed4918df6020bda04222b97f" target="_top" xlink:title="Ioss::SerializeIO::\lisEnabled">
<polygon fill="#ffffff" stroke="#000000" points="998.7847,-623.5 998.7847,-651.5 1093.144,-651.5 1093.144,-623.5 998.7847,-623.5"/>
<text text-anchor="start" x="1006.7847" y="-639.5" font-family="Helvetica,sans-Serif" font-size="10.00" fill="#000000">Ioss::SerializeIO::</text>
<text text-anchor="middle" x="1045.9644" y="-629.5" font-family="Helvetica,sans-Serif" font-size="10.00" fill="#000000">isEnabled</text>
</a>
</g>
</g>
<!-- Node814&#45;&gt;Node815 -->
<g id="edge40" class="edge">
<title>Node814&#45;&gt;Node815</title>
<path fill="none" stroke="#191970" d="M916.9009,-672.0283C938.9597,-666.1269 965.5039,-659.0255 988.7691,-652.8014"/>
<polygon fill="#191970" stroke="#191970" points="989.7607,-656.1593 998.5164,-650.1937 987.9516,-649.3971 989.7607,-656.1593"/>
</g>
<!-- Node816 -->
<g id="node33" class="node">
<title>Node816</title>
<g id="a_node33"><a xlink:href="classIoss_1_1SerializeIO.html#a85299d763408cb35c3c000f02e08ede0" target="_top" xlink:title="Ioss::SerializeIO::\linBarrier">
<polygon fill="#ffffff" stroke="#000000" points="998.7847,-717.5 998.7847,-745.5 1093.144,-745.5 1093.144,-717.5 998.7847,-717.5"/>
<text text-anchor="start" x="1006.7847" y="-733.5" font-family="Helvetica,sans-Serif" font-size="10.00" fill="#000000">Ioss::SerializeIO::</text>
<text text-anchor="middle" x="1045.9644" y="-723.5" font-family="Helvetica,sans-Serif" font-size="10.00" fill="#000000">inBarrier</text>
</a>
</g>
</g>
<!-- Node814&#45;&gt;Node816 -->
<g id="edge41" class="edge">
<title>Node814&#45;&gt;Node816</title>
<path fill="none" stroke="#191970" d="M916.9009,-696.9717C938.9597,-702.8731 965.5039,-709.9745 988.7691,-716.1986"/>
<polygon fill="#191970" stroke="#191970" points="987.9516,-719.6029 998.5164,-718.8063 989.7607,-712.8407 987.9516,-719.6029"/>
</g>
<!-- Node817 -->
<g id="node34" class="node">
<title>Node817</title>
<g id="a_node34"><a xlink:href="classIoss_1_1SerializeIO.html#ac7468ed4a5f858ffb502c3132e3e87b6" target="_top" xlink:title="Ioss::SerializeIO::\lgetOwner">
<polygon fill="#ffffff" stroke="#000000" points="998.7847,-670.5 998.7847,-698.5 1093.144,-698.5 1093.144,-670.5 998.7847,-670.5"/>
<text text-anchor="start" x="1006.7847" y="-686.5" font-family="Helvetica,sans-Serif" font-size="10.00" fill="#000000">Ioss::SerializeIO::</text>
<text text-anchor="middle" x="1045.9644" y="-676.5" font-family="Helvetica,sans-Serif" font-size="10.00" fill="#000000">getOwner</text>
</a>
</g>
</g>
<!-- Node814&#45;&gt;Node817 -->
<g id="edge42" class="edge">
<title>Node814&#45;&gt;Node817</title>
<path fill="none" stroke="#191970" d="M916.9009,-684.5C938.8612,-684.5 965.267,-684.5 988.4573,-684.5"/>
<polygon fill="#191970" stroke="#191970" points="988.5165,-688.0001 998.5164,-684.5 988.5164,-681.0001 988.5165,-688.0001"/>
</g>
<!-- Node820&#45;&gt;Node796 -->
<g id="edge48" class="edge">
<title>Node820&#45;&gt;Node796</title>
<path fill="none" stroke="#191970" d="M947.5949,-521.2603C958.2965,-521.5039 969.2097,-521.7524 979.6866,-521.991"/>
<polygon fill="#191970" stroke="#191970" points="979.9171,-525.497 989.9942,-522.2256 980.0765,-518.4988 979.9171,-525.497"/>
</g>
<!-- Node820&#45;&gt;Node819 -->
<g id="edge49" class="edge">
<title>Node820&#45;&gt;Node819</title>
<path fill="none" stroke="#191970" d="M911.9168,-510.4945C935.1172,-505.4763 964.3295,-499.1577 989.5571,-493.7009"/>
<polygon fill="#191970" stroke="#191970" points="990.3355,-497.1136 999.3695,-491.5785 988.8556,-490.2718 990.3355,-497.1136"/>
</g>
</g>
</svg>
