<?xml version="1.0" encoding="UTF-8" standalone="no"?>
<!DOCTYPE svg PUBLIC "-//W3C//DTD SVG 1.1//EN"
 "http://www.w3.org/Graphics/SVG/1.1/DTD/svg11.dtd">
<!-- Generated by graphviz version 2.40.1 (20161225.0304)
 -->
<!-- Title: tsl::detail_robin_hash::bucket_entry::swap_with_value_in_bucket Pages: 1 -->
<!--zoomable 152 -->
<svg id="main" version="1.1" xmlns="http://www.w3.org/2000/svg" xmlns:xlink="http://www.w3.org/1999/xlink" xml:space="preserve" onload="init(evt)">
<style type="text/css"><![CDATA[
.edge:hover path { stroke: red; }
.edge:hover polygon { stroke: red; fill: red; }
]]></style>
<script type="text/javascript"><![CDATA[
var edges = document.getElementsByTagName('g');
if (edges && edges.length) {
  for (var i=0;i<edges.length;i++) {
    if (edges[i].id.substr(0,4)=='edge') {
      edges[i].setAttribute('class','edge');
    }
  }
}
]]></script>
        <defs>
                <circle id="rim" cx="0" cy="0" r="7"/>
                <circle id="rim2" cx="0" cy="0" r="3.5"/>
                <g id="zoomPlus">
                        <use xlink:href="#rim" fill="#404040">
                                <set attributeName="fill" to="#808080" begin="zoomplus.mouseover" end="zoomplus.mouseout"/>
                        </use>
                        <path d="M-4,0h8M0,-4v8" fill="none" stroke="white" stroke-width="1.5" pointer-events="none"/>
                </g>
                <g id="zoomMin">
                        <use xlink:href="#rim" fill="#404040">
                                <set attributeName="fill" to="#808080" begin="zoomminus.mouseover" end="zoomminus.mouseout"/>
                        </use>
                        <path d="M-4,0h8" fill="none" stroke="white" stroke-width="1.5" pointer-events="none"/>
                </g>
                <g id="dirArrow">
                        <path fill="none" stroke="white" stroke-width="1.5" d="M0,-3.0v7 M-2.5,-0.5L0,-3.0L2.5,-0.5"/>
                </g>
               <g id="resetDef">
                       <use xlink:href="#rim2" fill="#404040">
                               <set attributeName="fill" to="#808080" begin="reset.mouseover" end="reset.mouseout"/>
                       </use>
               </g>
        </defs>

<script type="text/javascript">
var viewWidth = 503;
var viewHeight = 152;
var sectionId = 'dynsection-12';
</script>
<script xlink:href="svgpan.js"/>
<svg id="graph" class="graph">
<g id="viewport">
<title>tsl::detail_robin_hash::bucket_entry::swap_with_value_in_bucket</title>
<polygon fill="#ffffff" stroke="transparent" points="-4,4 -4,-148 499.2148,-148 499.2148,4 -4,4"/>
<!-- Node58 -->
<g id="node1" class="node">
<title>Node58</title>
<polygon fill="#bfbfbf" stroke="#000000" points="0,-65.5 0,-103.5 131.0586,-103.5 131.0586,-65.5 0,-65.5"/>
<text text-anchor="start" x="8" y="-91.5" font-family="Helvetica,sans-Serif" font-size="10.00" fill="#000000">tsl::detail_robin_hash</text>
<text text-anchor="start" x="8" y="-81.5" font-family="Helvetica,sans-Serif" font-size="10.00" fill="#000000">::bucket_entry::swap_with</text>
<text text-anchor="middle" x="65.5293" y="-71.5" font-family="Helvetica,sans-Serif" font-size="10.00" fill="#000000">_value_in_bucket</text>
</g>
<!-- Node59 -->
<g id="node2" class="node">
<title>Node59</title>
<g id="a_node2"><a xlink:href="classtsl_1_1detail__robin__hash_1_1bucket__entry.html#a340ef1dd98ee7dc8cd302f6dab921d2a" target="_top" xlink:title="tsl::detail_robin_hash\l::bucket_entry::empty">
<polygon fill="#ffffff" stroke="#000000" points="383.6143,-115.5 383.6143,-143.5 495.2148,-143.5 495.2148,-115.5 383.6143,-115.5"/>
<text text-anchor="start" x="391.6143" y="-131.5" font-family="Helvetica,sans-Serif" font-size="10.00" fill="#000000">tsl::detail_robin_hash</text>
<text text-anchor="middle" x="439.4146" y="-121.5" font-family="Helvetica,sans-Serif" font-size="10.00" fill="#000000">::bucket_entry::empty</text>
</a>
</g>
</g>
<!-- Node58&#45;&gt;Node59 -->
<g id="edge1" class="edge">
<title>Node58&#45;&gt;Node59</title>
<path fill="none" stroke="#191970" d="M96.6845,-103.6551C116.1354,-114.4679 142.1374,-126.9058 167.0586,-132.5 236.2293,-148.027 317.7894,-144.3393 373.5056,-138.6169"/>
<polygon fill="#191970" stroke="#191970" points="374.0322,-142.0805 383.5995,-137.5289 373.282,-135.1208 374.0322,-142.0805"/>
</g>
<!-- Node60 -->
<g id="node3" class="node">
<title>Node60</title>
<g id="a_node3"><a xlink:href="classtsl_1_1detail__robin__hash_1_1bucket__entry.html#a8e20ad6cf768b8d9e5c3791e9a251a20" target="_top" xlink:title="tsl::detail_robin_hash\l::bucket_entry::value">
<polygon fill="#ffffff" stroke="#000000" points="202.083,-94.5 202.083,-122.5 312.5898,-122.5 312.5898,-94.5 202.083,-94.5"/>
<text text-anchor="start" x="210.083" y="-110.5" font-family="Helvetica,sans-Serif" font-size="10.00" fill="#000000">tsl::detail_robin_hash</text>
<text text-anchor="middle" x="257.3364" y="-100.5" font-family="Helvetica,sans-Serif" font-size="10.00" fill="#000000">::bucket_entry::value</text>
</a>
</g>
</g>
<!-- Node58&#45;&gt;Node60 -->
<g id="edge2" class="edge">
<title>Node58&#45;&gt;Node60</title>
<path fill="none" stroke="#191970" d="M131.2701,-92.7259C150.848,-95.1756 172.2929,-97.8589 191.8543,-100.3065"/>
<polygon fill="#191970" stroke="#191970" points="191.5348,-103.7937 201.8921,-101.5625 192.404,-96.8479 191.5348,-103.7937"/>
</g>
<!-- Node61 -->
<g id="node4" class="node">
<title>Node61</title>
<g id="a_node4"><a xlink:href="classtsl_1_1detail__robin__hash_1_1bucket__entry__hash.html#a50e40aa4ccc2670244b23024d7717bb7" target="_top" xlink:title="tsl::detail_robin_hash\l::bucket_entry_hash::truncated_hash">
<polygon fill="#ffffff" stroke="#000000" points="167.0586,-47.5 167.0586,-75.5 347.6143,-75.5 347.6143,-47.5 167.0586,-47.5"/>
<text text-anchor="start" x="175.0586" y="-63.5" font-family="Helvetica,sans-Serif" font-size="10.00" fill="#000000">tsl::detail_robin_hash</text>
<text text-anchor="middle" x="257.3364" y="-53.5" font-family="Helvetica,sans-Serif" font-size="10.00" fill="#000000">::bucket_entry_hash::truncated_hash</text>
</a>
</g>
</g>
<!-- Node58&#45;&gt;Node61 -->
<g id="edge4" class="edge">
<title>Node58&#45;&gt;Node61</title>
<path fill="none" stroke="#191970" d="M131.2701,-76.6169C139.5323,-75.6261 148.1271,-74.5955 156.7724,-73.5588"/>
<polygon fill="#191970" stroke="#191970" points="157.4156,-77.0069 166.9277,-72.3411 156.5821,-70.0567 157.4156,-77.0069"/>
</g>
<!-- Node62 -->
<g id="node5" class="node">
<title>Node62</title>
<g id="a_node5"><a xlink:href="classtsl_1_1detail__robin__hash_1_1bucket__entry__hash.html#af40159825764d023f139cebfbd753970" target="_top" xlink:title="tsl::detail_robin_hash\l::bucket_entry_hash::set_hash">
<polygon fill="#ffffff" stroke="#000000" points="181.2358,-.5 181.2358,-28.5 333.437,-28.5 333.437,-.5 181.2358,-.5"/>
<text text-anchor="start" x="189.2358" y="-16.5" font-family="Helvetica,sans-Serif" font-size="10.00" fill="#000000">tsl::detail_robin_hash</text>
<text text-anchor="middle" x="257.3364" y="-6.5" font-family="Helvetica,sans-Serif" font-size="10.00" fill="#000000">::bucket_entry_hash::set_hash</text>
</a>
</g>
</g>
<!-- Node58&#45;&gt;Node62 -->
<g id="edge5" class="edge">
<title>Node58&#45;&gt;Node62</title>
<path fill="none" stroke="#191970" d="M103.4814,-65.4979C122.2997,-56.5441 145.5512,-46.1714 167.0586,-38.5 174.0684,-35.9997 181.466,-33.6246 188.8872,-31.4101"/>
<polygon fill="#191970" stroke="#191970" points="189.9916,-34.7342 198.6261,-28.5945 188.0474,-28.0096 189.9916,-34.7342"/>
</g>
<!-- Node60&#45;&gt;Node59 -->
<g id="edge3" class="edge">
<title>Node60&#45;&gt;Node59</title>
<path fill="none" stroke="#191970" d="M312.9552,-114.9148C332.0136,-117.1129 353.5256,-119.594 373.3301,-121.8781"/>
<polygon fill="#191970" stroke="#191970" points="373.1737,-125.3832 383.5089,-123.0521 373.9758,-118.4293 373.1737,-125.3832"/>
</g>
</g>
</svg>
        <g id="navigator" transform="translate(0 0)" fill="#404254">
                <rect fill="#f2f5e9" fill-opacity="0.5" stroke="#606060" stroke-width=".5" x="0" y="0" width="60" height="60"/>
                <use id="zoomplus" xlink:href="#zoomPlus" x="17" y="9" onmousedown="handleZoom(evt,'in')"/>
                <use id="zoomminus" xlink:href="#zoomMin" x="42" y="9" onmousedown="handleZoom(evt,'out')"/>
                <use id="reset" xlink:href="#resetDef" x="30" y="36" onmousedown="handleReset()"/>
                <g id="arrowUp" xlink:href="#dirArrow" transform="translate(30 24)" onmousedown="handlePan(0,-1)">
                  <use xlink:href="#rim" fill="#404040">
                        <set attributeName="fill" to="#808080" begin="arrowUp.mouseover" end="arrowUp.mouseout"/>
                  </use>
                  <path fill="none" stroke="white" stroke-width="1.5" d="M0,-3.0v7 M-2.5,-0.5L0,-3.0L2.5,-0.5"/>
                </g>
                <g id="arrowRight" xlink:href="#dirArrow" transform="rotate(90) translate(36 -43)" onmousedown="handlePan(1,0)">
                  <use xlink:href="#rim" fill="#404040">
                        <set attributeName="fill" to="#808080" begin="arrowRight.mouseover" end="arrowRight.mouseout"/>
                  </use>
                  <path fill="none" stroke="white" stroke-width="1.5" d="M0,-3.0v7 M-2.5,-0.5L0,-3.0L2.5,-0.5"/>
                </g>
                <g id="arrowDown" xlink:href="#dirArrow" transform="rotate(180) translate(-30 -48)" onmousedown="handlePan(0,1)">
                  <use xlink:href="#rim" fill="#404040">
                        <set attributeName="fill" to="#808080" begin="arrowDown.mouseover" end="arrowDown.mouseout"/>
                  </use>
                  <path fill="none" stroke="white" stroke-width="1.5" d="M0,-3.0v7 M-2.5,-0.5L0,-3.0L2.5,-0.5"/>
                </g>
                <g id="arrowLeft" xlink:href="#dirArrow" transform="rotate(270) translate(-36 17)" onmousedown="handlePan(-1,0)">
                  <use xlink:href="#rim" fill="#404040">
                        <set attributeName="fill" to="#808080" begin="arrowLeft.mouseover" end="arrowLeft.mouseout"/>
                  </use>
                  <path fill="none" stroke="white" stroke-width="1.5" d="M0,-3.0v7 M-2.5,-0.5L0,-3.0L2.5,-0.5"/>
                </g>
        </g>
        <svg viewBox="0 0 15 15" width="100%" height="30px" preserveAspectRatio="xMaxYMin meet">
         <g id="arrow_out" transform="scale(0.3 0.3)">
          <a xlink:href="classtsl_1_1detail__robin__hash_1_1bucket__entry_a921d07d27715e027d4a31242aa44c247_cgraph_org.svg" target="_base">
           <rect id="button" ry="5" rx="5" y="6" x="6" height="38" width="38"
                fill="#f2f5e9" fill-opacity="0.5" stroke="#606060" stroke-width="1.0"/>
           <path id="arrow"
             d="M 11.500037,31.436501 C 11.940474,20.09759 22.043105,11.32322 32.158766,21.979434 L 37.068811,17.246167 C 37.068811,17.246167 37.088388,32 37.088388,32 L 22.160133,31.978069 C 22.160133,31.978069 26.997745,27.140456 26.997745,27.140456 C 18.528582,18.264221 13.291696,25.230495 11.500037,31.436501 z"
             style="fill:#404040;"/>
          </a>
         </g>
        </svg>
</svg>
