<?xml version="1.0" encoding="UTF-8" standalone="no"?>
<!DOCTYPE svg PUBLIC "-//W3C//DTD SVG 1.1//EN"
 "http://www.w3.org/Graphics/SVG/1.1/DTD/svg11.dtd">
<!-- Generated by graphviz version 2.40.1 (20161225.0304)
 -->
<!-- Title: Iogs::GeneratedMesh::build_node_map Pages: 1 -->
<svg width="447pt" height="37pt"
 viewBox="0.00 0.00 447.08 37.00" xmlns="http://www.w3.org/2000/svg" xmlns:xlink="http://www.w3.org/1999/xlink">
<g id="graph0" class="graph" transform="scale(1 1) rotate(0) translate(4 33)">
<title>Iogs::GeneratedMesh::build_node_map</title>
<polygon fill="#ffffff" stroke="transparent" points="-4,4 -4,-33 443.0771,-33 443.0771,4 -4,4"/>
<!-- Node38 -->
<g id="node1" class="node">
<title>Node38</title>
<polygon fill="#bfbfbf" stroke="#000000" points="0,-.5 0,-28.5 112.167,-28.5 112.167,-.5 0,-.5"/>
<text text-anchor="start" x="8" y="-16.5" font-family="Helvetica,sans-Serif" font-size="10.00" fill="#000000">Iogs::GeneratedMesh</text>
<text text-anchor="middle" x="56.0835" y="-6.5" font-family="Helvetica,sans-Serif" font-size="10.00" fill="#000000">::build_node_map</text>
</g>
<!-- Node39 -->
<g id="node2" class="node">
<title>Node39</title>
<g id="a_node2"><a xlink:href="$classIogs_1_1GeneratedMesh.html#a599bf4b9d38cd25a90989f9c0348cc12" xlink:title="Iogs::GeneratedMesh\l::node_communication_map">
<polygon fill="#ffffff" stroke="#000000" points="148.167,-.5 148.167,-28.5 289.7969,-28.5 289.7969,-.5 148.167,-.5"/>
<text text-anchor="start" x="156.167" y="-16.5" font-family="Helvetica,sans-Serif" font-size="10.00" fill="#000000">Iogs::GeneratedMesh</text>
<text text-anchor="middle" x="218.9819" y="-6.5" font-family="Helvetica,sans-Serif" font-size="10.00" fill="#000000">::node_communication_map</text>
</a>
</g>
</g>
<!-- Node38&#45;&gt;Node39 -->
<g id="edge1" class="edge">
<title>Node38&#45;&gt;Node39</title>
<path fill="none" stroke="#191970" d="M122.6376,-14.5C130.9742,-14.5 139.5264,-14.5 147.9285,-14.5"/>
<polygon fill="#191970" stroke="#191970" points="122.6003,-11.0001 112.6003,-14.5 122.6003,-18.0001 122.6003,-11.0001"/>
</g>
<!-- Node40 -->
<g id="node3" class="node">
<title>Node40</title>
<g id="a_node3"><a xlink:href="$classIogs_1_1DatabaseIO.html#a1edcbc55e38a46aec120b5a10f8e7233" xlink:title="Iogs::DatabaseIO::get\l_field_internal">
<polygon fill="#ffffff" stroke="#000000" points="325.7969,-.5 325.7969,-28.5 439.0771,-28.5 439.0771,-.5 325.7969,-.5"/>
<text text-anchor="start" x="333.7969" y="-16.5" font-family="Helvetica,sans-Serif" font-size="10.00" fill="#000000">Iogs::DatabaseIO::get</text>
<text text-anchor="middle" x="382.437" y="-6.5" font-family="Helvetica,sans-Serif" font-size="10.00" fill="#000000">_field_internal</text>
</a>
</g>
</g>
<!-- Node39&#45;&gt;Node40 -->
<g id="edge2" class="edge">
<title>Node39&#45;&gt;Node40</title>
<path fill="none" stroke="#191970" d="M300.266,-14.5C308.8626,-14.5 317.4657,-14.5 325.6949,-14.5"/>
<polygon fill="#191970" stroke="#191970" points="300.2003,-11.0001 290.2002,-14.5 300.2002,-18.0001 300.2003,-11.0001"/>
</g>
</g>
</svg>
