<?xml version="1.0" encoding="UTF-8" standalone="no"?>
<!DOCTYPE svg PUBLIC "-//W3C//DTD SVG 1.1//EN"
 "http://www.w3.org/Graphics/SVG/1.1/DTD/svg11.dtd">
<!-- Generated by graphviz version 2.40.1 (20161225.0304)
 -->
<!-- Title: Iovs::DatabaseIO::create_global_node_and_element_ids Pages: 1 -->
<svg width="325pt" height="37pt"
 viewBox="0.00 0.00 325.07 37.00" xmlns="http://www.w3.org/2000/svg" xmlns:xlink="http://www.w3.org/1999/xlink">
<g id="graph0" class="graph" transform="scale(1 1) rotate(0) translate(4 33)">
<title>Iovs::DatabaseIO::create_global_node_and_element_ids</title>
<polygon fill="#ffffff" stroke="transparent" points="-4,4 -4,-33 321.0723,-33 321.0723,4 -4,4"/>
<!-- Node82 -->
<g id="node1" class="node">
<title>Node82</title>
<polygon fill="#bfbfbf" stroke="#000000" points="0,-.5 0,-28.5 157.7871,-28.5 157.7871,-.5 0,-.5"/>
<text text-anchor="start" x="8" y="-16.5" font-family="Helvetica,sans-Serif" font-size="10.00" fill="#000000">Iovs::DatabaseIO::create</text>
<text text-anchor="middle" x="78.8936" y="-6.5" font-family="Helvetica,sans-Serif" font-size="10.00" fill="#000000">_global_node_and_element_ids</text>
</g>
<!-- Node83 -->
<g id="node2" class="node">
<title>Node83</title>
<g id="a_node2"><a xlink:href="classIovs_1_1DatabaseIO.html#a04f47a35cebc0f7a18d3cd8a4ed8082f" target="_top" xlink:title="Iovs::DatabaseIO::begin\l_state__">
<polygon fill="#ffffff" stroke="#000000" points="193.7871,-.5 193.7871,-28.5 317.0723,-28.5 317.0723,-.5 193.7871,-.5"/>
<text text-anchor="start" x="201.7871" y="-16.5" font-family="Helvetica,sans-Serif" font-size="10.00" fill="#000000">Iovs::DatabaseIO::begin</text>
<text text-anchor="middle" x="255.4297" y="-6.5" font-family="Helvetica,sans-Serif" font-size="10.00" fill="#000000">_state__</text>
</a>
</g>
</g>
<!-- Node82&#45;&gt;Node83 -->
<g id="edge1" class="edge">
<title>Node82&#45;&gt;Node83</title>
<path fill="none" stroke="#191970" d="M168.0497,-14.5C176.7362,-14.5 185.4112,-14.5 193.7382,-14.5"/>
<polygon fill="#191970" stroke="#191970" points="167.8675,-11.0001 157.8674,-14.5 167.8674,-18.0001 167.8675,-11.0001"/>
</g>
</g>
</svg>
