<?xml version="1.0" encoding="UTF-8" standalone="no"?>
<!DOCTYPE svg PUBLIC "-//W3C//DTD SVG 1.1//EN"
 "http://www.w3.org/Graphics/SVG/1.1/DTD/svg11.dtd">
<!-- Generated by graphviz version 2.40.1 (20161225.0304)
 -->
<!-- Title: tsl::hopscotch_set::operator= Pages: 1 -->
<svg width="262pt" height="161pt"
 viewBox="0.00 0.00 261.68 161.00" xmlns="http://www.w3.org/2000/svg" xmlns:xlink="http://www.w3.org/1999/xlink">
<g id="graph0" class="graph" transform="scale(1 1) rotate(0) translate(4 157)">
<title>tsl::hopscotch_set::operator=</title>
<polygon fill="#ffffff" stroke="transparent" points="-4,4 -4,-157 257.6787,-157 257.6787,4 -4,4"/>
<!-- Node184 -->
<g id="node1" class="node">
<title>Node184</title>
<polygon fill="#bfbfbf" stroke="#000000" points="0,-62.5 0,-90.5 96.0439,-90.5 96.0439,-62.5 0,-62.5"/>
<text text-anchor="start" x="8" y="-78.5" font-family="Helvetica,sans-Serif" font-size="10.00" fill="#000000">tsl::hopscotch_set</text>
<text text-anchor="middle" x="48.022" y="-68.5" font-family="Helvetica,sans-Serif" font-size="10.00" fill="#000000">::operator=</text>
</g>
<!-- Node185 -->
<g id="node2" class="node">
<title>Node185</title>
<g id="a_node2"><a xlink:href="classtsl_1_1detail__hopscotch__hash_1_1hopscotch__hash.html#a9ab208ac39f3680d758ae7e79b9b0961" target="_top" xlink:title="tsl::detail_hopscotch\l_hash::hopscotch_hash\l::clear">
<polygon fill="#ffffff" stroke="#000000" points="132.0439,-114.5 132.0439,-152.5 253.6787,-152.5 253.6787,-114.5 132.0439,-114.5"/>
<text text-anchor="start" x="140.0439" y="-140.5" font-family="Helvetica,sans-Serif" font-size="10.00" fill="#000000">tsl::detail_hopscotch</text>
<text text-anchor="start" x="140.0439" y="-130.5" font-family="Helvetica,sans-Serif" font-size="10.00" fill="#000000">_hash::hopscotch_hash</text>
<text text-anchor="middle" x="192.8613" y="-120.5" font-family="Helvetica,sans-Serif" font-size="10.00" fill="#000000">::clear</text>
</a>
</g>
</g>
<!-- Node184&#45;&gt;Node185 -->
<g id="edge1" class="edge">
<title>Node184&#45;&gt;Node185</title>
<path fill="none" stroke="#191970" d="M83.825,-90.5899C99.2337,-96.6538 117.6437,-103.8989 134.9098,-110.6938"/>
<polygon fill="#191970" stroke="#191970" points="133.771,-114.0069 144.3581,-114.4121 136.3345,-107.4931 133.771,-114.0069"/>
</g>
<!-- Node186 -->
<g id="node3" class="node">
<title>Node186</title>
<g id="a_node3"><a xlink:href="classtsl_1_1detail__hopscotch__hash_1_1hopscotch__hash.html#af66a19b0b9b32c219c219da6e7a592c8" target="_top" xlink:title="tsl::detail_hopscotch\l_hash::hopscotch_hash\l::reserve">
<polygon fill="#ffffff" stroke="#000000" points="132.0439,-57.5 132.0439,-95.5 253.6787,-95.5 253.6787,-57.5 132.0439,-57.5"/>
<text text-anchor="start" x="140.0439" y="-83.5" font-family="Helvetica,sans-Serif" font-size="10.00" fill="#000000">tsl::detail_hopscotch</text>
<text text-anchor="start" x="140.0439" y="-73.5" font-family="Helvetica,sans-Serif" font-size="10.00" fill="#000000">_hash::hopscotch_hash</text>
<text text-anchor="middle" x="192.8613" y="-63.5" font-family="Helvetica,sans-Serif" font-size="10.00" fill="#000000">::reserve</text>
</a>
</g>
</g>
<!-- Node184&#45;&gt;Node186 -->
<g id="edge2" class="edge">
<title>Node184&#45;&gt;Node186</title>
<path fill="none" stroke="#191970" d="M96.2514,-76.5C104.4729,-76.5 113.1644,-76.5 121.8294,-76.5"/>
<polygon fill="#191970" stroke="#191970" points="121.9595,-80.0001 131.9594,-76.5 121.9594,-73.0001 121.9595,-80.0001"/>
</g>
<!-- Node187 -->
<g id="node4" class="node">
<title>Node187</title>
<g id="a_node4"><a xlink:href="classtsl_1_1detail__hopscotch__hash_1_1hopscotch__hash.html#a7350c7f91142b524350d08dd4b45827b" target="_top" xlink:title="tsl::detail_hopscotch\l_hash::hopscotch_hash\l::insert">
<polygon fill="#ffffff" stroke="#000000" points="132.0439,-.5 132.0439,-38.5 253.6787,-38.5 253.6787,-.5 132.0439,-.5"/>
<text text-anchor="start" x="140.0439" y="-26.5" font-family="Helvetica,sans-Serif" font-size="10.00" fill="#000000">tsl::detail_hopscotch</text>
<text text-anchor="start" x="140.0439" y="-16.5" font-family="Helvetica,sans-Serif" font-size="10.00" fill="#000000">_hash::hopscotch_hash</text>
<text text-anchor="middle" x="192.8613" y="-6.5" font-family="Helvetica,sans-Serif" font-size="10.00" fill="#000000">::insert</text>
</a>
</g>
</g>
<!-- Node184&#45;&gt;Node187 -->
<g id="edge3" class="edge">
<title>Node184&#45;&gt;Node187</title>
<path fill="none" stroke="#191970" d="M83.825,-62.4101C99.2337,-56.3462 117.6437,-49.1011 134.9098,-42.3062"/>
<polygon fill="#191970" stroke="#191970" points="136.3345,-45.5069 144.3581,-38.5879 133.771,-38.9931 136.3345,-45.5069"/>
</g>
</g>
</svg>
