<?xml version="1.0" encoding="UTF-8" standalone="no"?>
<!DOCTYPE svg PUBLIC "-//W3C//DTD SVG 1.1//EN"
 "http://www.w3.org/Graphics/SVG/1.1/DTD/svg11.dtd">
<!-- Generated by graphviz version 2.40.1 (20161225.0304)
 -->
<!-- Title: Ioss::FileInfo::size Pages: 1 -->
<svg width="265pt" height="47pt"
 viewBox="0.00 0.00 264.99 47.00" xmlns="http://www.w3.org/2000/svg" xmlns:xlink="http://www.w3.org/1999/xlink">
<g id="graph0" class="graph" transform="scale(1 1) rotate(0) translate(4 43)">
<title>Ioss::FileInfo::size</title>
<polygon fill="#ffffff" stroke="transparent" points="-4,4 -4,-43 260.9893,-43 260.9893,4 -4,4"/>
<!-- Node108 -->
<g id="node1" class="node">
<title>Node108</title>
<polygon fill="#bfbfbf" stroke="#000000" points="0,-10.5 0,-28.5 96.0293,-28.5 96.0293,-10.5 0,-10.5"/>
<text text-anchor="middle" x="48.0146" y="-16.5" font-family="Helvetica,sans-Serif" font-size="10.00" fill="#000000">Ioss::FileInfo::size</text>
</g>
<!-- Node109 -->
<g id="node2" class="node">
<title>Node109</title>
<g id="a_node2"><a xlink:href="namespaceanonymous__namespace_02Ioss__FileInfo_8C_03.html#aef181f38bf657e6f71b1841efeaf7611" target="_top" xlink:title="anonymous_namespace\l\{Ioss_FileInfo::C\}::\ldo_stat">
<polygon fill="#ffffff" stroke="#000000" points="132.0293,-.5 132.0293,-38.5 256.9893,-38.5 256.9893,-.5 132.0293,-.5"/>
<text text-anchor="start" x="140.0293" y="-26.5" font-family="Helvetica,sans-Serif" font-size="10.00" fill="#000000">anonymous_namespace</text>
<text text-anchor="start" x="140.0293" y="-16.5" font-family="Helvetica,sans-Serif" font-size="10.00" fill="#000000">{Ioss_FileInfo::C}::</text>
<text text-anchor="middle" x="194.5093" y="-6.5" font-family="Helvetica,sans-Serif" font-size="10.00" fill="#000000">do_stat</text>
</a>
</g>
</g>
<!-- Node108&#45;&gt;Node109 -->
<g id="edge1" class="edge">
<title>Node108&#45;&gt;Node109</title>
<path fill="none" stroke="#191970" d="M96.3885,-19.5C104.5351,-19.5 113.1475,-19.5 121.7509,-19.5"/>
<polygon fill="#191970" stroke="#191970" points="121.818,-23.0001 131.8179,-19.5 121.8179,-16.0001 121.818,-23.0001"/>
</g>
</g>
</svg>
