<?xml version="1.0" encoding="UTF-8" standalone="no"?>
<!DOCTYPE svg PUBLIC "-//W3C//DTD SVG 1.1//EN"
 "http://www.w3.org/Graphics/SVG/1.1/DTD/svg11.dtd">
<!-- Generated by graphviz version 2.40.1 (20161225.0304)
 -->
<!-- Title: Ioss::EntitySet::EntitySet Pages: 1 -->
<svg width="922pt" height="197pt"
 viewBox="0.00 0.00 921.53 197.00" xmlns="http://www.w3.org/2000/svg" xmlns:xlink="http://www.w3.org/1999/xlink">
<g id="graph0" class="graph" transform="scale(1 1) rotate(0) translate(4 193)">
<title>Ioss::EntitySet::EntitySet</title>
<polygon fill="#ffffff" stroke="transparent" points="-4,4 -4,-193 917.5342,-193 917.5342,4 -4,4"/>
<!-- Node0 -->
<g id="node1" class="node">
<title>Node0</title>
<polygon fill="#bfbfbf" stroke="#000000" points="0,-94.5 0,-112.5 125.4922,-112.5 125.4922,-94.5 0,-94.5"/>
<text text-anchor="middle" x="62.7461" y="-100.5" font-family="Helvetica,sans-Serif" font-size="10.00" fill="#000000">Ioss::EntitySet::EntitySet</text>
</g>
<!-- Node1 -->
<g id="node2" class="node">
<title>Node1</title>
<g id="a_node2"><a xlink:href="classIoss_1_1PropertyManager.html#a8d6d5a27856b4618b56d542208ad86e2" target="_top" xlink:title="Add a property to the property manager. ">
<polygon fill="#ffffff" stroke="#000000" points="161.4922,-150.5 161.4922,-168.5 300.8906,-168.5 300.8906,-150.5 161.4922,-150.5"/>
<text text-anchor="middle" x="231.1914" y="-156.5" font-family="Helvetica,sans-Serif" font-size="10.00" fill="#000000">Ioss::PropertyManager::add</text>
</a>
</g>
</g>
<!-- Node0&#45;&gt;Node1 -->
<g id="edge1" class="edge">
<title>Node0&#45;&gt;Node1</title>
<path fill="none" stroke="#191970" d="M90.1846,-112.622C118.5333,-122.0466 162.9477,-136.8122 194.3443,-147.2501"/>
<polygon fill="#191970" stroke="#191970" points="193.4502,-150.6411 204.0437,-150.4747 195.6586,-143.9986 193.4502,-150.6411"/>
</g>
<!-- Node3 -->
<g id="node4" class="node">
<title>Node3</title>
<g id="a_node4"><a xlink:href="classIoss_1_1FieldManager.html#a0da349bf5958db6702137da83f231c6a" target="_top" xlink:title="Add a field to the field manager. ">
<polygon fill="#ffffff" stroke="#000000" points="169.5513,-94.5 169.5513,-112.5 292.8315,-112.5 292.8315,-94.5 169.5513,-94.5"/>
<text text-anchor="middle" x="231.1914" y="-100.5" font-family="Helvetica,sans-Serif" font-size="10.00" fill="#000000">Ioss::FieldManager::add</text>
</a>
</g>
</g>
<!-- Node0&#45;&gt;Node3 -->
<g id="edge3" class="edge">
<title>Node0&#45;&gt;Node3</title>
<path fill="none" stroke="#191970" d="M125.9482,-103.5C136.8122,-103.5 148.1747,-103.5 159.2479,-103.5"/>
<polygon fill="#191970" stroke="#191970" points="159.3132,-107.0001 169.3131,-103.5 159.3131,-100.0001 159.3132,-107.0001"/>
</g>
<!-- Node11 -->
<g id="node12" class="node">
<title>Node11</title>
<g id="a_node12"><a xlink:href="classIoss_1_1GroupingEntity.html#a0178b36d697ce63d54fcab3204c15201" target="_top" xlink:title="Ioss::GroupingEntity\l::field_int_type">
<polygon fill="#ffffff" stroke="#000000" points="178.1694,-24.5 178.1694,-52.5 284.2134,-52.5 284.2134,-24.5 178.1694,-24.5"/>
<text text-anchor="start" x="186.1694" y="-40.5" font-family="Helvetica,sans-Serif" font-size="10.00" fill="#000000">Ioss::GroupingEntity</text>
<text text-anchor="middle" x="231.1914" y="-30.5" font-family="Helvetica,sans-Serif" font-size="10.00" fill="#000000">::field_int_type</text>
</a>
</g>
</g>
<!-- Node0&#45;&gt;Node11 -->
<g id="edge12" class="edge">
<title>Node0&#45;&gt;Node11</title>
<path fill="none" stroke="#191970" d="M86.1677,-94.462C111.646,-84.6304 153.0196,-68.6651 185.0679,-56.2982"/>
<polygon fill="#191970" stroke="#191970" points="186.6172,-59.452 194.6867,-52.5865 184.0971,-52.9213 186.6172,-59.452"/>
</g>
<!-- Node2 -->
<g id="node3" class="node">
<title>Node2</title>
<g id="a_node3"><a xlink:href="classIoss_1_1Property.html#a33f2d36f732d7504f12116b285c2ccb2" target="_top" xlink:title="Get the property name. ">
<polygon fill="#ffffff" stroke="#000000" points="336.8906,-170.5 336.8906,-188.5 464.6143,-188.5 464.6143,-170.5 336.8906,-170.5"/>
<text text-anchor="middle" x="400.7524" y="-176.5" font-family="Helvetica,sans-Serif" font-size="10.00" fill="#000000">Ioss::Property::get_name</text>
</a>
</g>
</g>
<!-- Node1&#45;&gt;Node2 -->
<g id="edge2" class="edge">
<title>Node1&#45;&gt;Node2</title>
<path fill="none" stroke="#191970" d="M301.1373,-167.7502C309.5037,-168.7371 318.069,-169.7474 326.4936,-170.741"/>
<polygon fill="#191970" stroke="#191970" points="326.3358,-174.2466 336.677,-171.9422 327.1559,-167.2948 326.3358,-174.2466"/>
</g>
<!-- Node4 -->
<g id="node5" class="node">
<title>Node4</title>
<g id="a_node5"><a xlink:href="classIoss_1_1Utils.html#a48106bb99507951b4655783fe6ceb0f8" target="_top" xlink:title="Convert a string to lower case. ">
<polygon fill="#ffffff" stroke="#000000" points="500.6143,-92.5 500.6143,-110.5 610.5303,-110.5 610.5303,-92.5 500.6143,-92.5"/>
<text text-anchor="middle" x="555.5723" y="-98.5" font-family="Helvetica,sans-Serif" font-size="10.00" fill="#000000">Ioss::Utils::lowercase</text>
</a>
</g>
</g>
<!-- Node3&#45;&gt;Node4 -->
<g id="edge4" class="edge">
<title>Node3&#45;&gt;Node4</title>
<path fill="none" stroke="#191970" d="M271.6196,-112.5081C291.2171,-116.4275 315.1626,-120.5627 336.8906,-122.5 393.4324,-127.5414 408.2131,-128.9263 464.6143,-122.5 481.1256,-120.6187 499.0028,-116.8754 514.5027,-113.0634"/>
<polygon fill="#191970" stroke="#191970" points="515.4794,-116.4265 524.3067,-110.5675 513.7523,-109.6429 515.4794,-116.4265"/>
</g>
<!-- Node9 -->
<g id="node10" class="node">
<title>Node9</title>
<g id="a_node10"><a xlink:href="classIoss_1_1Field.html#aca1c35eb7fb1dcd0bf8c80b2b6926131" target="_top" xlink:title="Ioss::Field::get_name">
<polygon fill="#ffffff" stroke="#000000" points="344.9497,-94.5 344.9497,-112.5 456.5552,-112.5 456.5552,-94.5 344.9497,-94.5"/>
<text text-anchor="middle" x="400.7524" y="-100.5" font-family="Helvetica,sans-Serif" font-size="10.00" fill="#000000">Ioss::Field::get_name</text>
</a>
</g>
</g>
<!-- Node3&#45;&gt;Node9 -->
<g id="edge9" class="edge">
<title>Node3&#45;&gt;Node9</title>
<path fill="none" stroke="#191970" d="M292.8865,-103.5C306.3932,-103.5 320.7462,-103.5 334.4255,-103.5"/>
<polygon fill="#191970" stroke="#191970" points="334.7298,-107.0001 344.7297,-103.5 334.7297,-100.0001 334.7298,-107.0001"/>
</g>
<!-- Node10 -->
<g id="node11" class="node">
<title>Node10</title>
<g id="a_node11"><a xlink:href="classIoss_1_1FieldManager.html#a4e14c1288743e88f738203161065d317" target="_top" xlink:title="Checks if a field with a given name exists in the field manager. ">
<polygon fill="#ffffff" stroke="#000000" points="350.2329,-47.5 350.2329,-75.5 451.272,-75.5 451.272,-47.5 350.2329,-47.5"/>
<text text-anchor="start" x="358.2329" y="-63.5" font-family="Helvetica,sans-Serif" font-size="10.00" fill="#000000">Ioss::FieldManager</text>
<text text-anchor="middle" x="400.7524" y="-53.5" font-family="Helvetica,sans-Serif" font-size="10.00" fill="#000000">::exists</text>
</a>
</g>
</g>
<!-- Node3&#45;&gt;Node10 -->
<g id="edge10" class="edge">
<title>Node3&#45;&gt;Node10</title>
<path fill="none" stroke="#191970" d="M267.5665,-94.4899C288.6915,-89.2573 315.8464,-82.5311 340.1199,-76.5186"/>
<polygon fill="#191970" stroke="#191970" points="341.1005,-79.8816 349.9656,-74.0798 339.4174,-73.0869 341.1005,-79.8816"/>
</g>
<!-- Node5 -->
<g id="node6" class="node">
<title>Node5</title>
<g id="a_node6"><a xlink:href="namespaceanonymous__namespace_02io__info_8C_03.html#ac76aa36231a3291b803cc8e620fce319" target="_top" xlink:title="anonymous_namespace\l\{io_info::C\}::name">
<polygon fill="#ffffff" stroke="#000000" points="646.5303,-111.5 646.5303,-139.5 771.4902,-139.5 771.4902,-111.5 646.5303,-111.5"/>
<text text-anchor="start" x="654.5303" y="-127.5" font-family="Helvetica,sans-Serif" font-size="10.00" fill="#000000">anonymous_namespace</text>
<text text-anchor="middle" x="709.0103" y="-117.5" font-family="Helvetica,sans-Serif" font-size="10.00" fill="#000000">{io_info::C}::name</text>
</a>
</g>
</g>
<!-- Node4&#45;&gt;Node5 -->
<g id="edge5" class="edge">
<title>Node4&#45;&gt;Node5</title>
<path fill="none" stroke="#191970" d="M610.5335,-110.0968C618.8773,-111.4019 627.5955,-112.7655 636.2463,-114.1186"/>
<polygon fill="#191970" stroke="#191970" points="635.9236,-117.6106 646.3444,-115.6981 637.0054,-110.6947 635.9236,-117.6106"/>
</g>
<!-- Node8 -->
<g id="node9" class="node">
<title>Node8</title>
<g id="a_node9"><a xlink:href="namespaceanonymous__namespace_02Ioss__Utils_8C_03.html#a0a31af75815b9ec3b66f27bbb6846ac8" target="_top" xlink:title="anonymous_namespace\l\{Ioss_Utils::C\}::to_lower">
<polygon fill="#ffffff" stroke="#000000" points="646.5303,-64.5 646.5303,-92.5 771.4902,-92.5 771.4902,-64.5 646.5303,-64.5"/>
<text text-anchor="start" x="654.5303" y="-80.5" font-family="Helvetica,sans-Serif" font-size="10.00" fill="#000000">anonymous_namespace</text>
<text text-anchor="middle" x="709.0103" y="-70.5" font-family="Helvetica,sans-Serif" font-size="10.00" fill="#000000">{Ioss_Utils::C}::to_lower</text>
</a>
</g>
</g>
<!-- Node4&#45;&gt;Node8 -->
<g id="edge8" class="edge">
<title>Node4&#45;&gt;Node8</title>
<path fill="none" stroke="#191970" d="M610.5335,-93.2614C618.8773,-92.0107 627.5955,-90.7039 636.2463,-89.4071"/>
<polygon fill="#191970" stroke="#191970" points="636.9738,-92.8373 646.3444,-87.8935 635.936,-85.9146 636.9738,-92.8373"/>
</g>
<!-- Node6 -->
<g id="node7" class="node">
<title>Node6</title>
<g id="a_node7"><a xlink:href="classIoss_1_1GroupingEntity.html#adf92c4256dc89b729f4492642bc4d745" target="_top" xlink:title="Get the name of the particular type of entity. ">
<polygon fill="#ffffff" stroke="#000000" points="807.4902,-135.5 807.4902,-163.5 913.5342,-163.5 913.5342,-135.5 807.4902,-135.5"/>
<text text-anchor="start" x="815.4902" y="-151.5" font-family="Helvetica,sans-Serif" font-size="10.00" fill="#000000">Ioss::GroupingEntity</text>
<text text-anchor="middle" x="860.5122" y="-141.5" font-family="Helvetica,sans-Serif" font-size="10.00" fill="#000000">::type_string</text>
</a>
</g>
</g>
<!-- Node5&#45;&gt;Node6 -->
<g id="edge6" class="edge">
<title>Node5&#45;&gt;Node6</title>
<path fill="none" stroke="#191970" d="M771.5066,-135.4003C780.06,-136.7553 788.8461,-138.1471 797.4103,-139.5038"/>
<polygon fill="#191970" stroke="#191970" points="796.9101,-142.9681 807.3346,-141.0759 798.0054,-136.0543 796.9101,-142.9681"/>
</g>
<!-- Node7 -->
<g id="node8" class="node">
<title>Node7</title>
<g id="a_node8"><a xlink:href="classIoss_1_1GroupingEntity.html#a50d4053f49c8c3205e05d939fdc9fbc5" target="_top" xlink:title="Get name of entity. ">
<polygon fill="#ffffff" stroke="#000000" points="807.4902,-88.5 807.4902,-116.5 913.5342,-116.5 913.5342,-88.5 807.4902,-88.5"/>
<text text-anchor="start" x="815.4902" y="-104.5" font-family="Helvetica,sans-Serif" font-size="10.00" fill="#000000">Ioss::GroupingEntity</text>
<text text-anchor="middle" x="860.5122" y="-94.5" font-family="Helvetica,sans-Serif" font-size="10.00" fill="#000000">::name</text>
</a>
</g>
</g>
<!-- Node5&#45;&gt;Node7 -->
<g id="edge7" class="edge">
<title>Node5&#45;&gt;Node7</title>
<path fill="none" stroke="#191970" d="M771.5066,-116.0122C780.06,-114.7137 788.8461,-113.3799 797.4103,-112.0797"/>
<polygon fill="#191970" stroke="#191970" points="797.9732,-115.5344 807.3346,-110.5731 796.9225,-108.6137 797.9732,-115.5344"/>
</g>
<!-- Node10&#45;&gt;Node4 -->
<g id="edge11" class="edge">
<title>Node10&#45;&gt;Node4</title>
<path fill="none" stroke="#191970" d="M451.4462,-74.5975C470.4947,-79.519 492.0033,-85.076 510.5059,-89.8564"/>
<polygon fill="#191970" stroke="#191970" points="509.8836,-93.3105 520.4413,-92.4234 511.6347,-86.5331 509.8836,-93.3105"/>
</g>
<!-- Node12 -->
<g id="node13" class="node">
<title>Node12</title>
<g id="a_node13"><a xlink:href="classIoss_1_1GroupingEntity.html#a318cd5cde65370bb9c83f8ca223f8481" target="_top" xlink:title="Ioss::GroupingEntity\l::get_database">
<polygon fill="#ffffff" stroke="#000000" points="347.7305,-.5 347.7305,-28.5 453.7744,-28.5 453.7744,-.5 347.7305,-.5"/>
<text text-anchor="start" x="355.7305" y="-16.5" font-family="Helvetica,sans-Serif" font-size="10.00" fill="#000000">Ioss::GroupingEntity</text>
<text text-anchor="middle" x="400.7524" y="-6.5" font-family="Helvetica,sans-Serif" font-size="10.00" fill="#000000">::get_database</text>
</a>
</g>
</g>
<!-- Node11&#45;&gt;Node12 -->
<g id="edge13" class="edge">
<title>Node11&#45;&gt;Node12</title>
<path fill="none" stroke="#191970" d="M284.3764,-30.9721C301.1823,-28.5933 319.9212,-25.941 337.367,-23.4717"/>
<polygon fill="#191970" stroke="#191970" points="338.0541,-26.9094 347.4649,-22.0424 337.0731,-19.9785 338.0541,-26.9094"/>
</g>
</g>
</svg>
