<?xml version="1.0" encoding="UTF-8" standalone="no"?>
<!DOCTYPE svg PUBLIC "-//W3C//DTD SVG 1.1//EN"
 "http://www.w3.org/Graphics/SVG/1.1/DTD/svg11.dtd">
<!-- Generated by graphviz version 2.40.1 (20161225.0304)
 -->
<!-- Title: Iogn::GeneratedMesh::show_parameters Pages: 1 -->
<svg width="418pt" height="37pt"
 viewBox="0.00 0.00 418.19 37.00" xmlns="http://www.w3.org/2000/svg" xmlns:xlink="http://www.w3.org/1999/xlink">
<g id="graph0" class="graph" transform="scale(1 1) rotate(0) translate(4 33)">
<title>Iogn::GeneratedMesh::show_parameters</title>
<polygon fill="#ffffff" stroke="transparent" points="-4,4 -4,-33 414.1855,-33 414.1855,4 -4,4"/>
<!-- Node305 -->
<g id="node1" class="node">
<title>Node305</title>
<polygon fill="#bfbfbf" stroke="#000000" points="0,-.5 0,-28.5 112.7285,-28.5 112.7285,-.5 0,-.5"/>
<text text-anchor="start" x="8" y="-16.5" font-family="Helvetica,sans-Serif" font-size="10.00" fill="#000000">Iogn::GeneratedMesh</text>
<text text-anchor="middle" x="56.3643" y="-6.5" font-family="Helvetica,sans-Serif" font-size="10.00" fill="#000000">::show_parameters</text>
</g>
<!-- Node306 -->
<g id="node2" class="node">
<title>Node306</title>
<g id="a_node2"><a xlink:href="$classIogn_1_1GeneratedMesh.html#a8ff4045f9e46990d7e02444d539b7013" xlink:title="Iogn::GeneratedMesh\l::parse_options">
<polygon fill="#ffffff" stroke="#000000" points="148.7285,-.5 148.7285,-28.5 261.457,-28.5 261.457,-.5 148.7285,-.5"/>
<text text-anchor="start" x="156.7285" y="-16.5" font-family="Helvetica,sans-Serif" font-size="10.00" fill="#000000">Iogn::GeneratedMesh</text>
<text text-anchor="middle" x="205.0928" y="-6.5" font-family="Helvetica,sans-Serif" font-size="10.00" fill="#000000">::parse_options</text>
</a>
</g>
</g>
<!-- Node305&#45;&gt;Node306 -->
<g id="edge1" class="edge">
<title>Node305&#45;&gt;Node306</title>
<path fill="none" stroke="#191970" d="M123.2498,-14.5C131.7169,-14.5 140.3148,-14.5 148.5981,-14.5"/>
<polygon fill="#191970" stroke="#191970" points="123.0164,-11.0001 113.0164,-14.5 123.0164,-18.0001 123.0164,-11.0001"/>
</g>
<!-- Node307 -->
<g id="node3" class="node">
<title>Node307</title>
<g id="a_node3"><a xlink:href="$classIogn_1_1GeneratedMesh.html#afb85c3f28b89a17725a0fae633f1e5a3" xlink:title="Iogn::GeneratedMesh\l::GeneratedMesh">
<polygon fill="#ffffff" stroke="#000000" points="297.457,-.5 297.457,-28.5 410.1855,-28.5 410.1855,-.5 297.457,-.5"/>
<text text-anchor="start" x="305.457" y="-16.5" font-family="Helvetica,sans-Serif" font-size="10.00" fill="#000000">Iogn::GeneratedMesh</text>
<text text-anchor="middle" x="353.8213" y="-6.5" font-family="Helvetica,sans-Serif" font-size="10.00" fill="#000000">::GeneratedMesh</text>
</a>
</g>
</g>
<!-- Node306&#45;&gt;Node307 -->
<g id="edge2" class="edge">
<title>Node306&#45;&gt;Node307</title>
<path fill="none" stroke="#191970" d="M271.9783,-14.5C280.4455,-14.5 289.0433,-14.5 297.3266,-14.5"/>
<polygon fill="#191970" stroke="#191970" points="271.745,-11.0001 261.7449,-14.5 271.7449,-18.0001 271.745,-11.0001"/>
</g>
</g>
</svg>
