<?xml version="1.0" encoding="UTF-8" standalone="no"?>
<!DOCTYPE svg PUBLIC "-//W3C//DTD SVG 1.1//EN"
 "http://www.w3.org/Graphics/SVG/1.1/DTD/svg11.dtd">
<!-- Generated by graphviz version 2.40.1 (20161225.0304)
 -->
<!-- Title: Iofx::DatabaseIO Pages: 1 -->
<svg width="683pt" height="225pt"
 viewBox="0.00 0.00 682.93 225.00" xmlns="http://www.w3.org/2000/svg" xmlns:xlink="http://www.w3.org/1999/xlink">
<g id="graph0" class="graph" transform="scale(1 1) rotate(0) translate(4 221)">
<title>Iofx::DatabaseIO</title>
<polygon fill="#ffffff" stroke="transparent" points="-4,4 -4,-221 678.9336,-221 678.9336,4 -4,4"/>
<!-- Node3 -->
<g id="node1" class="node">
<title>Node3</title>
<polygon fill="#bfbfbf" stroke="#000000" points="583.8945,-56.5 583.8945,-74.5 674.9336,-74.5 674.9336,-56.5 583.8945,-56.5"/>
<text text-anchor="middle" x="629.4141" y="-62.5" font-family="Helvetica,sans-Serif" font-size="10.00" fill="#000000">Iofx::DatabaseIO</text>
</g>
<!-- Node4 -->
<g id="node2" class="node">
<title>Node4</title>
<g id="a_node2"><a xlink:href="classIoex_1_1DatabaseIO.html" target="_top" xlink:title="Ioex::DatabaseIO">
<polygon fill="#ffffff" stroke="#000000" points="446.9614,-56.5 446.9614,-74.5 540.7837,-74.5 540.7837,-56.5 446.9614,-56.5"/>
<text text-anchor="middle" x="493.8726" y="-62.5" font-family="Helvetica,sans-Serif" font-size="10.00" fill="#000000">Ioex::DatabaseIO</text>
</a>
</g>
</g>
<!-- Node4&#45;&gt;Node3 -->
<g id="edge1" class="edge">
<title>Node4&#45;&gt;Node3</title>
<path fill="none" stroke="#191970" d="M551.1979,-65.5C562.0985,-65.5 573.3686,-65.5 583.8432,-65.5"/>
<polygon fill="#191970" stroke="#191970" points="550.898,-62.0001 540.898,-65.5 550.898,-69.0001 550.898,-62.0001"/>
</g>
<!-- Node5 -->
<g id="node3" class="node">
<title>Node5</title>
<g id="a_node3"><a xlink:href="classIoss_1_1DatabaseIO.html" target="_top" xlink:title="An input or output Database. ">
<polygon fill="#ffffff" stroke="#000000" points="258.2134,-72.5 258.2134,-90.5 351.4741,-90.5 351.4741,-72.5 258.2134,-72.5"/>
<text text-anchor="middle" x="304.8438" y="-78.5" font-family="Helvetica,sans-Serif" font-size="10.00" fill="#000000">Ioss::DatabaseIO</text>
</a>
</g>
</g>
<!-- Node5&#45;&gt;Node4 -->
<g id="edge2" class="edge">
<title>Node5&#45;&gt;Node4</title>
<path fill="none" stroke="#191970" d="M361.7055,-76.687C388.8451,-74.3899 420.9363,-71.6736 446.7002,-69.4928"/>
<polygon fill="#191970" stroke="#191970" points="361.2391,-73.2139 351.57,-77.5449 361.8296,-80.189 361.2391,-73.2139"/>
</g>
<!-- Node7 -->
<g id="node5" class="node">
<title>Node7</title>
<g id="a_node5"><a xlink:href="classIoss_1_1GroupingEntity.html" target="_top" xlink:title="Base class for all &#39;grouping&#39; entities. The following derived classes are typical: ...">
<polygon fill="#ffffff" stroke="#000000" points="440.8506,-152.5 440.8506,-170.5 546.8945,-170.5 546.8945,-152.5 440.8506,-152.5"/>
<text text-anchor="middle" x="493.8726" y="-158.5" font-family="Helvetica,sans-Serif" font-size="10.00" fill="#000000">Ioss::GroupingEntity</text>
</a>
</g>
</g>
<!-- Node5&#45;&gt;Node7 -->
<g id="edge5" class="edge">
<title>Node5&#45;&gt;Node7</title>
<path fill="none" stroke="#9a32cd" stroke-dasharray="5,2" d="M326.3746,-96.1062C339.5402,-104.5948 356.9532,-115.0512 373.3633,-122.5 401.2965,-135.1793 434.5709,-145.6208 459.0709,-152.4983"/>
<polygon fill="#9a32cd" stroke="#9a32cd" points="328.2823,-93.1718 318.0031,-90.605 324.4381,-99.0218 328.2823,-93.1718"/>
<text text-anchor="middle" x="398.1069" y="-142.5" font-family="Helvetica,sans-Serif" font-size="10.00" fill="#000000"> database_</text>
</g>
<!-- Node6 -->
<g id="node4" class="node">
<title>Node6</title>
<g id="a_node4"><a xlink:href="classIoss_1_1Region.html" target="_top" xlink:title="A grouping entity that contains other grouping entities. ">
<polygon fill="#ffffff" stroke="#000000" points="593.6211,-114.5 593.6211,-132.5 665.207,-132.5 665.207,-114.5 593.6211,-114.5"/>
<text text-anchor="middle" x="629.4141" y="-120.5" font-family="Helvetica,sans-Serif" font-size="10.00" fill="#000000">Ioss::Region</text>
</a>
</g>
</g>
<!-- Node6&#45;&gt;Node5 -->
<g id="edge3" class="edge">
<title>Node6&#45;&gt;Node5</title>
<path fill="none" stroke="#9a32cd" stroke-dasharray="5,2" d="M583.4201,-117.5483C521.9507,-109.594 413.5929,-95.5723 351.6924,-87.5623"/>
<polygon fill="#9a32cd" stroke="#9a32cd" points="583.233,-121.0532 593.5995,-118.8655 584.1314,-114.1111 583.233,-121.0532"/>
<text text-anchor="middle" x="493.8726" y="-114.5" font-family="Helvetica,sans-Serif" font-size="10.00" fill="#000000"> region_</text>
</g>
<!-- Node7&#45;&gt;Node6 -->
<g id="edge4" class="edge">
<title>Node7&#45;&gt;Node6</title>
<path fill="none" stroke="#191970" d="M535.6719,-149.7813C555.4314,-144.2415 578.6616,-137.7288 597.0535,-132.5725"/>
<polygon fill="#191970" stroke="#191970" points="534.6779,-146.4249 525.994,-152.4945 536.5676,-153.165 534.6779,-146.4249"/>
</g>
<!-- Node8 -->
<g id="node6" class="node">
<title>Node8</title>
<g id="a_node6"><a xlink:href="classIoss_1_1FieldManager.html" target="_top" xlink:title="A collection of Ioss::Field objects. ">
<polygon fill="#ffffff" stroke="#000000" points="254.3242,-198.5 254.3242,-216.5 355.3633,-216.5 355.3633,-198.5 254.3242,-198.5"/>
<text text-anchor="middle" x="304.8438" y="-204.5" font-family="Helvetica,sans-Serif" font-size="10.00" fill="#000000">Ioss::FieldManager</text>
</a>
</g>
</g>
<!-- Node8&#45;&gt;Node7 -->
<g id="edge6" class="edge">
<title>Node8&#45;&gt;Node7</title>
<path fill="none" stroke="#9a32cd" stroke-dasharray="5,2" d="M364.6452,-196.5411C383.3709,-192.7879 404.0511,-188.3106 422.8506,-183.5 437.4818,-179.756 453.574,-174.839 466.7357,-170.6031"/>
<polygon fill="#9a32cd" stroke="#9a32cd" points="363.8934,-193.1218 354.7605,-198.4922 365.2491,-199.9893 363.8934,-193.1218"/>
<text text-anchor="middle" x="398.1069" y="-196.5" font-family="Helvetica,sans-Serif" font-size="10.00" fill="#000000"> fields</text>
</g>
<!-- Node9 -->
<g id="node7" class="node">
<title>Node9</title>
<g id="a_node7"><a xlink:href="classIoss_1_1PropertyManager.html" target="_top" xlink:title="A collection of Ioss::Property objects. ">
<polygon fill="#ffffff" stroke="#000000" points="0,-147.5 0,-165.5 117.1572,-165.5 117.1572,-147.5 0,-147.5"/>
<text text-anchor="middle" x="58.5786" y="-153.5" font-family="Helvetica,sans-Serif" font-size="10.00" fill="#000000">Ioss::PropertyManager</text>
</a>
</g>
</g>
<!-- Node9&#45;&gt;Node5 -->
<g id="edge10" class="edge">
<title>Node9&#45;&gt;Node5</title>
<path fill="none" stroke="#9a32cd" stroke-dasharray="5,2" d="M127.422,-145.8658C168.5786,-139.0163 216.5929,-130.0197 236.3242,-122.5 257.3096,-114.5024 279.1741,-100.2083 292.4015,-90.7893"/>
<polygon fill="#9a32cd" stroke="#9a32cd" points="126.7004,-142.4373 117.4011,-147.5142 127.8367,-149.3445 126.7004,-142.4373"/>
<text text-anchor="middle" x="185.7407" y="-145.5" font-family="Helvetica,sans-Serif" font-size="10.00" fill="#000000"> properties</text>
</g>
<!-- Node9&#45;&gt;Node7 -->
<g id="edge7" class="edge">
<title>Node9&#45;&gt;Node7</title>
<path fill="none" stroke="#9a32cd" stroke-dasharray="5,2" d="M127.3039,-157.2894C214.1298,-158.2867 361.7081,-159.9819 440.5259,-160.8872"/>
<polygon fill="#9a32cd" stroke="#9a32cd" points="127.3239,-153.7895 117.2843,-157.1743 127.2434,-160.789 127.3239,-153.7895"/>
<text text-anchor="middle" x="304.8438" y="-161.5" font-family="Helvetica,sans-Serif" font-size="10.00" fill="#000000"> properties</text>
</g>
<!-- Node10 -->
<g id="node8" class="node">
<title>Node10</title>
<g id="a_node8"><a xlink:href="classIoss_1_1Map.html" target="_top" xlink:title="Ioss::Map">
<polygon fill="#ffffff" stroke="#000000" points="28.9038,-74.5 28.9038,-92.5 88.2534,-92.5 88.2534,-74.5 28.9038,-74.5"/>
<text text-anchor="middle" x="58.5786" y="-80.5" font-family="Helvetica,sans-Serif" font-size="10.00" fill="#000000">Ioss::Map</text>
</a>
</g>
</g>
<!-- Node10&#45;&gt;Node5 -->
<g id="edge8" class="edge">
<title>Node10&#45;&gt;Node5</title>
<path fill="none" stroke="#9a32cd" stroke-dasharray="5,2" d="M98.4349,-82.9254C110.2555,-82.7697 123.2287,-82.613 135.1572,-82.5 176.6939,-82.1064 223.9515,-81.843 258.0274,-81.6858"/>
<polygon fill="#9a32cd" stroke="#9a32cd" points="98.3508,-79.4262 88.3991,-83.061 98.4455,-86.4255 98.3508,-79.4262"/>
<text text-anchor="middle" x="185.7407" y="-114.5" font-family="Helvetica,sans-Serif" font-size="10.00" fill="#000000"> nodeMap</text>
<text text-anchor="middle" x="185.7407" y="-104.5" font-family="Helvetica,sans-Serif" font-size="10.00" fill="#000000">elemMap</text>
<text text-anchor="middle" x="185.7407" y="-94.5" font-family="Helvetica,sans-Serif" font-size="10.00" fill="#000000">faceMap</text>
<text text-anchor="middle" x="185.7407" y="-84.5" font-family="Helvetica,sans-Serif" font-size="10.00" fill="#000000">edgeMap</text>
</g>
<!-- Node11 -->
<g id="node9" class="node">
<title>Node11</title>
<g id="a_node9"><a xlink:href="classIoss_1_1ParallelUtils.html" target="_top" xlink:title="Ioss::ParallelUtils">
<polygon fill="#ffffff" stroke="#000000" points="12.2339,-37.5 12.2339,-55.5 104.9233,-55.5 104.9233,-37.5 12.2339,-37.5"/>
<text text-anchor="middle" x="58.5786" y="-43.5" font-family="Helvetica,sans-Serif" font-size="10.00" fill="#000000">Ioss::ParallelUtils</text>
</a>
</g>
</g>
<!-- Node11&#45;&gt;Node5 -->
<g id="edge9" class="edge">
<title>Node11&#45;&gt;Node5</title>
<path fill="none" stroke="#9a32cd" stroke-dasharray="5,2" d="M115.1685,-51.9611C150.1732,-55.6423 195.9767,-61.0064 236.3242,-67.5 245.1948,-68.9277 254.6624,-70.6997 263.6406,-72.4979"/>
<polygon fill="#9a32cd" stroke="#9a32cd" points="115.4413,-48.4707 105.1337,-50.9206 114.7194,-55.4333 115.4413,-48.4707"/>
<text text-anchor="middle" x="185.7407" y="-69.5" font-family="Helvetica,sans-Serif" font-size="10.00" fill="#000000"> util_</text>
</g>
<!-- Node12 -->
<g id="node10" class="node">
<title>Node12</title>
<g id="a_node10"><a xlink:href="classIoss_1_1ElementTopology.html" target="_top" xlink:title="Represents an element topology. ">
<polygon fill="#ffffff" stroke="#000000" points=".2734,-.5 .2734,-18.5 116.8838,-18.5 116.8838,-.5 .2734,-.5"/>
<text text-anchor="middle" x="58.5786" y="-6.5" font-family="Helvetica,sans-Serif" font-size="10.00" fill="#000000">Ioss::ElementTopology</text>
</a>
</g>
</g>
<!-- Node12&#45;&gt;Node5 -->
<g id="edge11" class="edge">
<title>Node12&#45;&gt;Node5</title>
<path fill="none" stroke="#9a32cd" stroke-dasharray="5,2" d="M127.4729,-14.929C161.0963,-19.1217 201.6666,-26.5121 236.3242,-39.5 257.7514,-47.5298 279.8455,-62.5083 292.9582,-72.2369"/>
<polygon fill="#9a32cd" stroke="#9a32cd" points="127.6162,-11.4217 117.2753,-13.7277 126.7972,-18.3736 127.6162,-11.4217"/>
<text text-anchor="middle" x="185.7407" y="-41.5" font-family="Helvetica,sans-Serif" font-size="10.00" fill="#000000"> commonSideTopology</text>
</g>
</g>
</svg>
