<?xml version="1.0" encoding="UTF-8" standalone="no"?>
<!DOCTYPE svg PUBLIC "-//W3C//DTD SVG 1.1//EN"
 "http://www.w3.org/Graphics/SVG/1.1/DTD/svg11.dtd">
<!-- Generated by graphviz version 2.44.1 (20200629.0846)
 -->
<!-- Title: Ioex::DatabaseIO Pages: 1 -->
<!--zoomable 234 -->
<svg id="main" version="1.1" xmlns="http://www.w3.org/2000/svg" xmlns:xlink="http://www.w3.org/1999/xlink" xml:space="preserve" onload="init(evt)">
<style type="text/css"><![CDATA[
.edge:hover path { stroke: red; }
.edge:hover polygon { stroke: red; fill: red; }
]]></style>
<script type="text/javascript"><![CDATA[
var edges = document.getElementsByTagName('g');
if (edges && edges.length) {
  for (var i=0;i<edges.length;i++) {
    if (edges[i].id.substr(0,4)=='edge') {
      edges[i].setAttribute('class','edge');
    }
  }
}
]]></script>
        <defs>
                <circle id="rim" cx="0" cy="0" r="7"/>
                <circle id="rim2" cx="0" cy="0" r="3.5"/>
                <g id="zoomPlus">
                        <use xlink:href="#rim" fill="#404040">
                                <set attributeName="fill" to="#808080" begin="zoomplus.mouseover" end="zoomplus.mouseout"/>
                        </use>
                        <path d="M-4,0h8M0,-4v8" fill="none" stroke="white" stroke-width="1.5" pointer-events="none"/>
                </g>
                <g id="zoomMin">
                        <use xlink:href="#rim" fill="#404040">
                                <set attributeName="fill" to="#808080" begin="zoomminus.mouseover" end="zoomminus.mouseout"/>
                        </use>
                        <path d="M-4,0h8" fill="none" stroke="white" stroke-width="1.5" pointer-events="none"/>
                </g>
                <g id="dirArrow">
                        <path fill="none" stroke="white" stroke-width="1.5" d="M0,-3.0v7 M-2.5,-0.5L0,-3.0L2.5,-0.5"/>
                </g>
               <g id="resetDef">
                       <use xlink:href="#rim2" fill="#404040">
                               <set attributeName="fill" to="#808080" begin="reset.mouseover" end="reset.mouseout"/>
                       </use>
               </g>
        </defs>

<script type="text/javascript">
var viewWidth = 692;
var viewHeight = 234;
var sectionId = 'dynsection-1';
</script>
<script xlink:href="svgpan.js"/>
<svg id="graph" class="graph">
<g id="viewport">
<title>Ioex::DatabaseIO</title>
<polygon fill="white" stroke="transparent" points="-4,4 -4,-230 688,-230 688,4 -4,4"/>
<!-- Node1 -->
<g id="node1" class="node">
<title>Node1</title>
<g id="a_node1"><a xlink:title=" ">
<polygon fill="#bfbfbf" stroke="black" points="590,-62.5 590,-81.5 684,-81.5 684,-62.5 590,-62.5"/>
<text text-anchor="middle" x="637" y="-69.5" font-family="Helvetica,sans-Serif" font-size="10.00">Ioex::DatabaseIO</text>
</a>
</g>
</g>
<!-- Node2 -->
<g id="node2" class="node">
<title>Node2</title>
<g id="a_node2"><a xlink:href="classIoex_1_1BaseDatabaseIO.html" target="_top" xlink:title=" ">
<polygon fill="white" stroke="black" points="437,-62.5 437,-81.5 553,-81.5 553,-62.5 437,-62.5"/>
<text text-anchor="middle" x="495" y="-69.5" font-family="Helvetica,sans-Serif" font-size="10.00">Ioex::BaseDatabaseIO</text>
</a>
</g>
</g>
<!-- Node2&#45;&gt;Node1 -->
<g id="edge1" class="edge">
<title>Node2&#45;&gt;Node1</title>
<path fill="none" stroke="midnightblue" d="M563.63,-72C572.44,-72 581.3,-72 589.65,-72"/>
<polygon fill="midnightblue" stroke="midnightblue" points="563.35,-68.5 553.35,-72 563.35,-75.5 563.35,-68.5"/>
</g>
<!-- Node3 -->
<g id="node3" class="node">
<title>Node3</title>
<g id="a_node3"><a xlink:href="classIoss_1_1DatabaseIO.html" target="_top" xlink:title="An input or output Database.">
<polygon fill="white" stroke="black" points="255,-74.5 255,-93.5 349,-93.5 349,-74.5 255,-74.5"/>
<text text-anchor="middle" x="302" y="-81.5" font-family="Helvetica,sans-Serif" font-size="10.00">Ioss::DatabaseIO</text>
</a>
</g>
</g>
<!-- Node3&#45;&gt;Node2 -->
<g id="edge2" class="edge">
<title>Node3&#45;&gt;Node2</title>
<path fill="none" stroke="midnightblue" d="M359.43,-80.45C383.86,-78.92 412.42,-77.13 436.92,-75.59"/>
<polygon fill="midnightblue" stroke="midnightblue" points="359,-76.97 349.24,-81.1 359.44,-83.96 359,-76.97"/>
</g>
<!-- Node5 -->
<g id="node5" class="node">
<title>Node5</title>
<g id="a_node5"><a xlink:href="classIoss_1_1GroupingEntity.html" target="_top" xlink:title="Base class for all &#39;grouping&#39; entities. The following derived classes are typical:">
<polygon fill="white" stroke="black" points="442,-159.5 442,-178.5 548,-178.5 548,-159.5 442,-159.5"/>
<text text-anchor="middle" x="495" y="-166.5" font-family="Helvetica,sans-Serif" font-size="10.00">Ioss::GroupingEntity</text>
</a>
</g>
</g>
<!-- Node3&#45;&gt;Node5 -->
<g id="edge5" class="edge">
<title>Node3&#45;&gt;Node5</title>
<path fill="none" stroke="#9a32cd" stroke-dasharray="5,2" d="M323.33,-99.84C336.16,-109.28 353.41,-120.95 370,-129 397.37,-142.28 430.21,-152.65 455.22,-159.5"/>
<polygon fill="#9a32cd" stroke="#9a32cd" points="325.3,-96.95 315.21,-93.74 321.1,-102.54 325.3,-96.95"/>
<text text-anchor="middle" x="394.5" y="-150" font-family="Helvetica,sans-Serif" font-size="10.00"> database_</text>
</g>
<!-- Node4 -->
<g id="node4" class="node">
<title>Node4</title>
<g id="a_node4"><a xlink:href="classIoss_1_1Region.html" target="_top" xlink:title="A grouping entity that contains other grouping entities.">
<polygon fill="white" stroke="black" points="601,-120.5 601,-139.5 673,-139.5 673,-120.5 601,-120.5"/>
<text text-anchor="middle" x="637" y="-127.5" font-family="Helvetica,sans-Serif" font-size="10.00">Ioss::Region</text>
</a>
</g>
</g>
<!-- Node4&#45;&gt;Node3 -->
<g id="edge3" class="edge">
<title>Node4&#45;&gt;Node3</title>
<path fill="none" stroke="#9a32cd" stroke-dasharray="5,2" d="M590.69,-123.74C527.39,-115 413.12,-99.21 349.3,-90.4"/>
<polygon fill="#9a32cd" stroke="#9a32cd" points="590.38,-127.23 600.77,-125.13 591.34,-120.3 590.38,-127.23"/>
<text text-anchor="middle" x="495" y="-121" font-family="Helvetica,sans-Serif" font-size="10.00"> region_</text>
</g>
<!-- Node5&#45;&gt;Node4 -->
<g id="edge4" class="edge">
<title>Node5&#45;&gt;Node4</title>
<path fill="none" stroke="midnightblue" d="M540.01,-156.74C559.89,-151.2 583.04,-144.75 601.62,-139.58"/>
<polygon fill="midnightblue" stroke="midnightblue" points="538.94,-153.4 530.25,-159.46 540.82,-160.15 538.94,-153.4"/>
</g>
<!-- Node6 -->
<g id="node6" class="node">
<title>Node6</title>
<g id="a_node6"><a xlink:href="classIoss_1_1FieldManager.html" target="_top" xlink:title="A collection of Ioss::Field objects.">
<polygon fill="white" stroke="black" points="252,-206.5 252,-225.5 352,-225.5 352,-206.5 252,-206.5"/>
<text text-anchor="middle" x="302" y="-213.5" font-family="Helvetica,sans-Serif" font-size="10.00">Ioss::FieldManager</text>
</a>
</g>
</g>
<!-- Node6&#45;&gt;Node5 -->
<g id="edge6" class="edge">
<title>Node6&#45;&gt;Node5</title>
<path fill="none" stroke="#9a32cd" stroke-dasharray="5,2" d="M360.96,-204.38C379.57,-200.41 400.21,-195.77 419,-191 433.6,-187.29 449.64,-182.66 463.12,-178.61"/>
<polygon fill="#9a32cd" stroke="#9a32cd" points="360.22,-200.96 351.16,-206.44 361.66,-207.81 360.22,-200.96"/>
<text text-anchor="middle" x="394.5" y="-205" font-family="Helvetica,sans-Serif" font-size="10.00"> fields</text>
</g>
<!-- Node7 -->
<g id="node7" class="node">
<title>Node7</title>
<g id="a_node7"><a xlink:href="classIoss_1_1PropertyManager.html" target="_top" xlink:title="A collection of Ioss::Property objects.">
<polygon fill="white" stroke="black" points="0,-154.5 0,-173.5 116,-173.5 116,-154.5 0,-154.5"/>
<text text-anchor="middle" x="58" y="-161.5" font-family="Helvetica,sans-Serif" font-size="10.00">Ioss::PropertyManager</text>
</a>
</g>
</g>
<!-- Node7&#45;&gt;Node3 -->
<g id="edge10" class="edge">
<title>Node7&#45;&gt;Node3</title>
<path fill="none" stroke="#9a32cd" stroke-dasharray="5,2" d="M126.08,-153.37C166.84,-146.38 214.64,-137.06 234,-129 255.22,-120.17 276.75,-104.19 289.48,-93.84"/>
<polygon fill="#9a32cd" stroke="#9a32cd" points="125.44,-149.93 116.16,-155.05 126.61,-156.83 125.44,-149.93"/>
<text text-anchor="middle" x="184" y="-154" font-family="Helvetica,sans-Serif" font-size="10.00"> properties</text>
</g>
<!-- Node7&#45;&gt;Node5 -->
<g id="edge7" class="edge">
<title>Node7&#45;&gt;Node5</title>
<path fill="none" stroke="#9a32cd" stroke-dasharray="5,2" d="M126.35,-164.77C213.42,-165.77 363.16,-167.5 441.99,-168.4"/>
<polygon fill="#9a32cd" stroke="#9a32cd" points="126.36,-161.27 116.32,-164.66 126.28,-168.27 126.36,-161.27"/>
<text text-anchor="middle" x="302" y="-170" font-family="Helvetica,sans-Serif" font-size="10.00"> properties</text>
</g>
<!-- Node8 -->
<g id="node8" class="node">
<title>Node8</title>
<g id="a_node8"><a xlink:href="classIoss_1_1Map.html" target="_top" xlink:title=" ">
<polygon fill="white" stroke="black" points="28,-76.5 28,-95.5 88,-95.5 88,-76.5 28,-76.5"/>
<text text-anchor="middle" x="58" y="-83.5" font-family="Helvetica,sans-Serif" font-size="10.00">Ioss::Map</text>
</a>
</g>
</g>
<!-- Node8&#45;&gt;Node3 -->
<g id="edge8" class="edge">
<title>Node8&#45;&gt;Node3</title>
<path fill="none" stroke="#9a32cd" stroke-dasharray="5,2" d="M98.39,-85.42C109.87,-85.27 122.44,-85.11 134,-85 174.88,-84.61 221.39,-84.34 254.92,-84.19"/>
<polygon fill="#9a32cd" stroke="#9a32cd" points="98.16,-81.92 88.21,-85.56 98.25,-88.92 98.16,-81.92"/>
<text text-anchor="middle" x="184" y="-121" font-family="Helvetica,sans-Serif" font-size="10.00"> edgeMap</text>
<text text-anchor="middle" x="184" y="-110" font-family="Helvetica,sans-Serif" font-size="10.00">elemMap</text>
<text text-anchor="middle" x="184" y="-99" font-family="Helvetica,sans-Serif" font-size="10.00">faceMap</text>
<text text-anchor="middle" x="184" y="-88" font-family="Helvetica,sans-Serif" font-size="10.00">nodeMap</text>
</g>
<!-- Node9 -->
<g id="node9" class="node">
<title>Node9</title>
<g id="a_node9"><a xlink:href="classIoss_1_1ParallelUtils.html" target="_top" xlink:title=" ">
<polygon fill="white" stroke="black" points="11,-38.5 11,-57.5 105,-57.5 105,-38.5 11,-38.5"/>
<text text-anchor="middle" x="58" y="-45.5" font-family="Helvetica,sans-Serif" font-size="10.00">Ioss::ParallelUtils</text>
</a>
</g>
</g>
<!-- Node9&#45;&gt;Node3 -->
<g id="edge9" class="edge">
<title>Node9&#45;&gt;Node3</title>
<path fill="none" stroke="#9a32cd" stroke-dasharray="5,2" d="M115.56,-53.33C149.93,-56.93 194.64,-62.25 234,-69 242.93,-70.53 252.46,-72.48 261.45,-74.45"/>
<polygon fill="#9a32cd" stroke="#9a32cd" points="115.55,-49.81 105.24,-52.26 114.83,-56.77 115.55,-49.81"/>
<text text-anchor="middle" x="184" y="-72" font-family="Helvetica,sans-Serif" font-size="10.00"> util_</text>
</g>
<!-- Node10 -->
<g id="node10" class="node">
<title>Node10</title>
<g id="a_node10"><a xlink:href="classIoss_1_1ElementTopology.html" target="_top" xlink:title="Represents an element topology.">
<polygon fill="white" stroke="black" points="0,-0.5 0,-19.5 116,-19.5 116,-0.5 0,-0.5"/>
<text text-anchor="middle" x="58" y="-7.5" font-family="Helvetica,sans-Serif" font-size="10.00">Ioss::ElementTopology</text>
</a>
</g>
</g>
<!-- Node10&#45;&gt;Node3 -->
<g id="edge11" class="edge">
<title>Node10&#45;&gt;Node3</title>
<path fill="none" stroke="#9a32cd" stroke-dasharray="5,2" d="M126.25,-15.01C159.54,-19.1 199.82,-26.53 234,-40 255.23,-48.37 276.76,-64.07 289.49,-74.28"/>
<polygon fill="#9a32cd" stroke="#9a32cd" points="126.49,-11.51 116.15,-13.84 125.69,-18.46 126.49,-11.51"/>
<text text-anchor="middle" x="184" y="-43" font-family="Helvetica,sans-Serif" font-size="10.00"> commonSideTopology</text>
</g>
</g>
</svg>
        <g id="navigator" transform="translate(0 0)" fill="#404254">
                <rect fill="#f2f5e9" fill-opacity="0.5" stroke="#606060" stroke-width=".5" x="0" y="0" width="60" height="60"/>
                <use id="zoomplus" xlink:href="#zoomPlus" x="17" y="9" onmousedown="handleZoom(evt,'in')"/>
                <use id="zoomminus" xlink:href="#zoomMin" x="42" y="9" onmousedown="handleZoom(evt,'out')"/>
                <use id="reset" xlink:href="#resetDef" x="30" y="36" onmousedown="handleReset()"/>
                <g id="arrowUp" xlink:href="#dirArrow" transform="translate(30 24)" onmousedown="handlePan(0,-1)">
                  <use xlink:href="#rim" fill="#404040">
                        <set attributeName="fill" to="#808080" begin="arrowUp.mouseover" end="arrowUp.mouseout"/>
                  </use>
                  <path fill="none" stroke="white" stroke-width="1.5" d="M0,-3.0v7 M-2.5,-0.5L0,-3.0L2.5,-0.5"/>
                </g>
                <g id="arrowRight" xlink:href="#dirArrow" transform="rotate(90) translate(36 -43)" onmousedown="handlePan(1,0)">
                  <use xlink:href="#rim" fill="#404040">
                        <set attributeName="fill" to="#808080" begin="arrowRight.mouseover" end="arrowRight.mouseout"/>
                  </use>
                  <path fill="none" stroke="white" stroke-width="1.5" d="M0,-3.0v7 M-2.5,-0.5L0,-3.0L2.5,-0.5"/>
                </g>
                <g id="arrowDown" xlink:href="#dirArrow" transform="rotate(180) translate(-30 -48)" onmousedown="handlePan(0,1)">
                  <use xlink:href="#rim" fill="#404040">
                        <set attributeName="fill" to="#808080" begin="arrowDown.mouseover" end="arrowDown.mouseout"/>
                  </use>
                  <path fill="none" stroke="white" stroke-width="1.5" d="M0,-3.0v7 M-2.5,-0.5L0,-3.0L2.5,-0.5"/>
                </g>
                <g id="arrowLeft" xlink:href="#dirArrow" transform="rotate(270) translate(-36 17)" onmousedown="handlePan(-1,0)">
                  <use xlink:href="#rim" fill="#404040">
                        <set attributeName="fill" to="#808080" begin="arrowLeft.mouseover" end="arrowLeft.mouseout"/>
                  </use>
                  <path fill="none" stroke="white" stroke-width="1.5" d="M0,-3.0v7 M-2.5,-0.5L0,-3.0L2.5,-0.5"/>
                </g>
        </g>
        <svg viewBox="0 0 15 15" width="100%" height="30px" preserveAspectRatio="xMaxYMin meet">
         <g id="arrow_out" transform="scale(0.3 0.3)">
          <a xlink:href="classIoex_1_1DatabaseIO__coll__graph_org.svg" target="_base">
           <rect id="button" ry="5" rx="5" y="6" x="6" height="38" width="38"
                fill="#f2f5e9" fill-opacity="0.5" stroke="#606060" stroke-width="1.0"/>
           <path id="arrow"
             d="M 11.500037,31.436501 C 11.940474,20.09759 22.043105,11.32322 32.158766,21.979434 L 37.068811,17.246167 C 37.068811,17.246167 37.088388,32 37.088388,32 L 22.160133,31.978069 C 22.160133,31.978069 26.997745,27.140456 26.997745,27.140456 C 18.528582,18.264221 13.291696,25.230495 11.500037,31.436501 z"
             style="fill:#404040;"/>
          </a>
         </g>
        </svg>
</svg>
