<?xml version="1.0" encoding="UTF-8" standalone="no"?>
<!DOCTYPE svg PUBLIC "-//W3C//DTD SVG 1.1//EN"
 "http://www.w3.org/Graphics/SVG/1.1/DTD/svg11.dtd">
<!-- Generated by graphviz version 2.42.3 (20191010.1750)
 -->
<!-- Title: src/hash/hopscotch_hash.h Pages: 1 -->
<svg width="482pt" height="102pt"
 viewBox="0.00 0.00 481.94 102.00" xmlns="http://www.w3.org/2000/svg" xmlns:xlink="http://www.w3.org/1999/xlink">
<g id="graph0" class="graph" transform="scale(1 1) rotate(0) translate(4 98)">
<title>src/hash/hopscotch_hash.h</title>
<polygon fill="white" stroke="transparent" points="-4,4 -4,-98 477.94,-98 477.94,4 -4,4"/>
<!-- Node1 -->
<g id="node1" class="node">
<title>Node1</title>
<g id="a_node1"><a xlink:title=" ">
<polygon fill="#bfbfbf" stroke="black" points="189.78,-65.5 189.78,-93.5 291.94,-93.5 291.94,-65.5 189.78,-65.5"/>
<text text-anchor="start" x="197.78" y="-81.5" font-family="Helvetica,sans-Serif" font-size="10.00">src/hash/hopscotch</text>
<text text-anchor="middle" x="240.86" y="-71.5" font-family="Helvetica,sans-Serif" font-size="10.00">_hash.h</text>
</a>
</g>
</g>
<!-- Node2 -->
<g id="node2" class="node">
<title>Node2</title>
<g id="a_node2"><a xlink:href="bhopscotch__map_8h.html" target="_top" xlink:title=" ">
<polygon fill="white" stroke="black" points="0,-0.5 0,-28.5 107.72,-28.5 107.72,-0.5 0,-0.5"/>
<text text-anchor="start" x="8" y="-16.5" font-family="Helvetica,sans-Serif" font-size="10.00">src/hash/bhopscotch</text>
<text text-anchor="middle" x="53.86" y="-6.5" font-family="Helvetica,sans-Serif" font-size="10.00">_map.h</text>
</a>
</g>
</g>
<!-- Node1&#45;&gt;Node2 -->
<g id="edge1" class="edge">
<title>Node1&#45;&gt;Node2</title>
<path fill="none" stroke="midnightblue" d="M192.35,-62.16C161.28,-51.69 121.5,-38.29 92.56,-28.54"/>
<polygon fill="midnightblue" stroke="midnightblue" points="191.52,-65.57 202.11,-65.45 193.75,-58.94 191.52,-65.57"/>
</g>
<!-- Node3 -->
<g id="node3" class="node">
<title>Node3</title>
<g id="a_node3"><a xlink:href="bhopscotch__set_8h.html" target="_top" xlink:title=" ">
<polygon fill="white" stroke="black" points="126,-0.5 126,-28.5 233.72,-28.5 233.72,-0.5 126,-0.5"/>
<text text-anchor="start" x="134" y="-16.5" font-family="Helvetica,sans-Serif" font-size="10.00">src/hash/bhopscotch</text>
<text text-anchor="middle" x="179.86" y="-6.5" font-family="Helvetica,sans-Serif" font-size="10.00">_set.h</text>
</a>
</g>
</g>
<!-- Node1&#45;&gt;Node3 -->
<g id="edge2" class="edge">
<title>Node1&#45;&gt;Node3</title>
<path fill="none" stroke="midnightblue" d="M221.1,-58.09C211.7,-48.38 200.74,-37.06 192.48,-28.54"/>
<polygon fill="midnightblue" stroke="midnightblue" points="218.75,-60.7 228.22,-65.45 223.78,-55.83 218.75,-60.7"/>
</g>
<!-- Node4 -->
<g id="node4" class="node">
<title>Node4</title>
<g id="a_node4"><a xlink:href="hopscotch__map_8h.html" target="_top" xlink:title=" ">
<polygon fill="white" stroke="black" points="251.78,-0.5 251.78,-28.5 353.94,-28.5 353.94,-0.5 251.78,-0.5"/>
<text text-anchor="start" x="259.78" y="-16.5" font-family="Helvetica,sans-Serif" font-size="10.00">src/hash/hopscotch</text>
<text text-anchor="middle" x="302.86" y="-6.5" font-family="Helvetica,sans-Serif" font-size="10.00">_map.h</text>
</a>
</g>
</g>
<!-- Node1&#45;&gt;Node4 -->
<g id="edge3" class="edge">
<title>Node1&#45;&gt;Node4</title>
<path fill="none" stroke="midnightblue" d="M260.94,-58.09C270.5,-48.38 281.64,-37.06 290.03,-28.54"/>
<polygon fill="midnightblue" stroke="midnightblue" points="258.23,-55.86 253.71,-65.45 263.21,-60.77 258.23,-55.86"/>
</g>
<!-- Node5 -->
<g id="node5" class="node">
<title>Node5</title>
<g id="a_node5"><a xlink:href="hopscotch__set_8h.html" target="_top" xlink:title=" ">
<polygon fill="white" stroke="black" points="371.78,-0.5 371.78,-28.5 473.94,-28.5 473.94,-0.5 371.78,-0.5"/>
<text text-anchor="start" x="379.78" y="-16.5" font-family="Helvetica,sans-Serif" font-size="10.00">src/hash/hopscotch</text>
<text text-anchor="middle" x="422.86" y="-6.5" font-family="Helvetica,sans-Serif" font-size="10.00">_set.h</text>
</a>
</g>
</g>
<!-- Node1&#45;&gt;Node5 -->
<g id="edge4" class="edge">
<title>Node1&#45;&gt;Node5</title>
<path fill="none" stroke="midnightblue" d="M288.07,-62.16C318.31,-51.69 357.02,-38.29 385.2,-28.54"/>
<polygon fill="midnightblue" stroke="midnightblue" points="286.87,-58.87 278.57,-65.45 289.16,-65.48 286.87,-58.87"/>
</g>
</g>
</svg>
