<?xml version="1.0" encoding="UTF-8" standalone="no"?>
<!DOCTYPE svg PUBLIC "-//W3C//DTD SVG 1.1//EN"
 "http://www.w3.org/Graphics/SVG/1.1/DTD/svg11.dtd">
<!-- Generated by graphviz version 2.42.3 (20191010.1750)
 -->
<!-- Title: src/hash/hopscotch_hash.h Pages: 1 -->
<!--zoomable 147 -->
<svg id="main" version="1.1" xmlns="http://www.w3.org/2000/svg" xmlns:xlink="http://www.w3.org/1999/xlink" xml:space="preserve" onload="init(evt)">
<style type="text/css"><![CDATA[
.edge:hover path { stroke: red; }
.edge:hover polygon { stroke: red; fill: red; }
]]></style>
<script type="text/javascript"><![CDATA[
var edges = document.getElementsByTagName('g');
if (edges && edges.length) {
  for (var i=0;i<edges.length;i++) {
    if (edges[i].id.substr(0,4)=='edge') {
      edges[i].setAttribute('class','edge');
    }
  }
}
]]></script>
        <defs>
                <circle id="rim" cx="0" cy="0" r="7"/>
                <circle id="rim2" cx="0" cy="0" r="3.5"/>
                <g id="zoomPlus">
                        <use xlink:href="#rim" fill="#404040">
                                <set attributeName="fill" to="#808080" begin="zoomplus.mouseover" end="zoomplus.mouseout"/>
                        </use>
                        <path d="M-4,0h8M0,-4v8" fill="none" stroke="white" stroke-width="1.5" pointer-events="none"/>
                </g>
                <g id="zoomMin">
                        <use xlink:href="#rim" fill="#404040">
                                <set attributeName="fill" to="#808080" begin="zoomminus.mouseover" end="zoomminus.mouseout"/>
                        </use>
                        <path d="M-4,0h8" fill="none" stroke="white" stroke-width="1.5" pointer-events="none"/>
                </g>
                <g id="dirArrow">
                        <path fill="none" stroke="white" stroke-width="1.5" d="M0,-3.0v7 M-2.5,-0.5L0,-3.0L2.5,-0.5"/>
                </g>
               <g id="resetDef">
                       <use xlink:href="#rim2" fill="#404040">
                               <set attributeName="fill" to="#808080" begin="reset.mouseover" end="reset.mouseout"/>
                       </use>
               </g>
        </defs>

<script type="text/javascript">
var viewWidth = 1190;
var viewHeight = 147;
var sectionId = 'dynsection-0';
</script>
<script xlink:href="svgpan.js"/>
<svg id="graph" class="graph">
<g id="viewport">
<title>src/hash/hopscotch_hash.h</title>
<polygon fill="white" stroke="transparent" points="-4,4 -4,-143 1186.18,-143 1186.18,4 -4,4"/>
<!-- Node1 -->
<g id="node1" class="node">
<title>Node1</title>
<g id="a_node1"><a xlink:title=" ">
<polygon fill="#bfbfbf" stroke="black" points="540.49,-110.5 540.49,-138.5 642.64,-138.5 642.64,-110.5 540.49,-110.5"/>
<text text-anchor="start" x="548.49" y="-126.5" font-family="Helvetica,sans-Serif" font-size="10.00">src/hash/hopscotch</text>
<text text-anchor="middle" x="591.56" y="-116.5" font-family="Helvetica,sans-Serif" font-size="10.00">_hash.h</text>
</a>
</g>
</g>
<!-- Node2 -->
<g id="node2" class="node">
<title>Node2</title>
<g id="a_node2"><a xlink:href="hopscotch__growth__policy_8h.html" target="_top" xlink:title=" ">
<polygon fill="white" stroke="black" points="196.62,-55.5 196.62,-73.5 332.51,-73.5 332.51,-55.5 196.62,-55.5"/>
<text text-anchor="middle" x="264.56" y="-61.5" font-family="Helvetica,sans-Serif" font-size="10.00">hopscotch_growth_policy.h</text>
</a>
</g>
</g>
<!-- Node1&#45;&gt;Node2 -->
<g id="edge1" class="edge">
<title>Node1&#45;&gt;Node2</title>
<path fill="none" stroke="midnightblue" d="M540.47,-114.44C480.49,-103.8 381.39,-86.22 319.71,-75.28"/>
<polygon fill="midnightblue" stroke="midnightblue" points="320.23,-71.82 309.77,-73.52 319.01,-78.71 320.23,-71.82"/>
</g>
<!-- Node3 -->
<g id="node3" class="node">
<title>Node3</title>
<g id="a_node3"><a xlink:title=" ">
<polygon fill="white" stroke="#bfbfbf" points="0,-0.5 0,-18.5 57.13,-18.5 57.13,-0.5 0,-0.5"/>
<text text-anchor="middle" x="28.56" y="-6.5" font-family="Helvetica,sans-Serif" font-size="10.00">algorithm</text>
</a>
</g>
</g>
<!-- Node1&#45;&gt;Node3 -->
<g id="edge11" class="edge">
<title>Node1&#45;&gt;Node3</title>
<path fill="none" stroke="midnightblue" d="M540.28,-123.85C456.61,-123.09 286.33,-115.92 149.56,-74 111.89,-62.45 72.16,-39.15 48.91,-24.22"/>
<polygon fill="midnightblue" stroke="midnightblue" points="50.56,-21.12 40.28,-18.57 46.73,-26.98 50.56,-21.12"/>
</g>
<!-- Node6 -->
<g id="node6" class="node">
<title>Node6</title>
<g id="a_node6"><a xlink:title=" ">
<polygon fill="white" stroke="#bfbfbf" points="74.95,-0.5 74.95,-18.5 118.18,-18.5 118.18,-0.5 74.95,-0.5"/>
<text text-anchor="middle" x="96.56" y="-6.5" font-family="Helvetica,sans-Serif" font-size="10.00">cmath</text>
</a>
</g>
</g>
<!-- Node1&#45;&gt;Node6 -->
<g id="edge13" class="edge">
<title>Node1&#45;&gt;Node6</title>
<path fill="none" stroke="midnightblue" d="M540.32,-120.31C446.49,-113.97 250.92,-98.25 187.56,-74 158.5,-62.87 129.87,-40.5 112.71,-25.51"/>
<polygon fill="midnightblue" stroke="midnightblue" points="115.04,-22.89 105.26,-18.82 110.36,-28.1 115.04,-22.89"/>
</g>
<!-- Node7 -->
<g id="node7" class="node">
<title>Node7</title>
<g id="a_node7"><a xlink:title=" ">
<polygon fill="white" stroke="#bfbfbf" points="308.44,-0.5 308.44,-18.5 356.68,-18.5 356.68,-0.5 308.44,-0.5"/>
<text text-anchor="middle" x="332.56" y="-6.5" font-family="Helvetica,sans-Serif" font-size="10.00">cstddef</text>
</a>
</g>
</g>
<!-- Node1&#45;&gt;Node7 -->
<g id="edge14" class="edge">
<title>Node1&#45;&gt;Node7</title>
<path fill="none" stroke="midnightblue" d="M542.27,-110.45C512.01,-101.7 472.81,-89.05 439.56,-74 407.85,-59.64 373.66,-38.2 352.68,-24.28"/>
<polygon fill="midnightblue" stroke="midnightblue" points="354.54,-21.31 344.29,-18.64 350.64,-27.12 354.54,-21.31"/>
</g>
<!-- Node8 -->
<g id="node8" class="node">
<title>Node8</title>
<g id="a_node8"><a xlink:title=" ">
<polygon fill="white" stroke="#bfbfbf" points="375,-0.5 375,-18.5 422.13,-18.5 422.13,-0.5 375,-0.5"/>
<text text-anchor="middle" x="398.56" y="-6.5" font-family="Helvetica,sans-Serif" font-size="10.00">iterator</text>
</a>
</g>
</g>
<!-- Node1&#45;&gt;Node8 -->
<g id="edge19" class="edge">
<title>Node1&#45;&gt;Node8</title>
<path fill="none" stroke="midnightblue" d="M548.79,-110.48C524.28,-102.02 493.53,-89.64 468.56,-74 446.94,-60.46 425.76,-39.94 412.47,-25.92"/>
<polygon fill="midnightblue" stroke="midnightblue" points="414.97,-23.47 405.6,-18.51 409.83,-28.23 414.97,-23.47"/>
</g>
<!-- Node9 -->
<g id="node9" class="node">
<title>Node9</title>
<g id="a_node9"><a xlink:title=" ">
<polygon fill="white" stroke="#bfbfbf" points="440.18,-0.5 440.18,-18.5 478.95,-18.5 478.95,-0.5 440.18,-0.5"/>
<text text-anchor="middle" x="459.56" y="-6.5" font-family="Helvetica,sans-Serif" font-size="10.00">limits</text>
</a>
</g>
</g>
<!-- Node1&#45;&gt;Node9 -->
<g id="edge20" class="edge">
<title>Node1&#45;&gt;Node9</title>
<path fill="none" stroke="midnightblue" d="M545.45,-110.48C524.9,-102.72 501.75,-90.98 485.56,-74 473.5,-61.34 466.73,-42.33 463.14,-28.4"/>
<polygon fill="midnightblue" stroke="midnightblue" points="466.53,-27.53 460.9,-18.55 459.7,-29.08 466.53,-27.53"/>
</g>
<!-- Node11 -->
<g id="node11" class="node">
<title>Node11</title>
<g id="a_node11"><a xlink:title=" ">
<polygon fill="white" stroke="#bfbfbf" points="497.16,-0.5 497.16,-18.5 555.97,-18.5 555.97,-0.5 497.16,-0.5"/>
<text text-anchor="middle" x="526.56" y="-6.5" font-family="Helvetica,sans-Serif" font-size="10.00">stdexcept</text>
</a>
</g>
</g>
<!-- Node1&#45;&gt;Node11 -->
<g id="edge22" class="edge">
<title>Node1&#45;&gt;Node11</title>
<path fill="none" stroke="midnightblue" d="M541.73,-110.47C523.3,-102.98 504.3,-91.45 493.56,-74 483.75,-58.05 496.93,-38.87 509.43,-25.79"/>
<polygon fill="midnightblue" stroke="midnightblue" points="512.18,-28 516.92,-18.52 507.3,-22.98 512.18,-28"/>
</g>
<!-- Node12 -->
<g id="node12" class="node">
<title>Node12</title>
<g id="a_node12"><a xlink:title=" ">
<polygon fill="white" stroke="#bfbfbf" points="502.45,-55.5 502.45,-73.5 550.68,-73.5 550.68,-55.5 502.45,-55.5"/>
<text text-anchor="middle" x="526.56" y="-61.5" font-family="Helvetica,sans-Serif" font-size="10.00">cassert</text>
</a>
</g>
</g>
<!-- Node1&#45;&gt;Node12 -->
<g id="edge12" class="edge">
<title>Node1&#45;&gt;Node12</title>
<path fill="none" stroke="midnightblue" d="M576.81,-110.34C566.88,-101.48 553.76,-89.77 543.42,-80.54"/>
<polygon fill="midnightblue" stroke="midnightblue" points="545.63,-77.82 535.83,-73.77 540.96,-83.04 545.63,-77.82"/>
</g>
<!-- Node13 -->
<g id="node13" class="node">
<title>Node13</title>
<g id="a_node13"><a xlink:title=" ">
<polygon fill="white" stroke="#bfbfbf" points="569.11,-55.5 569.11,-73.5 614.01,-73.5 614.01,-55.5 569.11,-55.5"/>
<text text-anchor="middle" x="591.56" y="-61.5" font-family="Helvetica,sans-Serif" font-size="10.00">cstdint</text>
</a>
</g>
</g>
<!-- Node1&#45;&gt;Node13 -->
<g id="edge15" class="edge">
<title>Node1&#45;&gt;Node13</title>
<path fill="none" stroke="midnightblue" d="M591.56,-110.34C591.56,-102.53 591.56,-92.51 591.56,-83.93"/>
<polygon fill="midnightblue" stroke="midnightblue" points="595.06,-83.77 591.56,-73.77 588.06,-83.77 595.06,-83.77"/>
</g>
<!-- Node14 -->
<g id="node14" class="node">
<title>Node14</title>
<g id="a_node14"><a xlink:title=" ">
<polygon fill="white" stroke="#bfbfbf" points="632.16,-55.5 632.16,-73.5 690.97,-73.5 690.97,-55.5 632.16,-55.5"/>
<text text-anchor="middle" x="661.56" y="-61.5" font-family="Helvetica,sans-Serif" font-size="10.00">exception</text>
</a>
</g>
</g>
<!-- Node1&#45;&gt;Node14 -->
<g id="edge16" class="edge">
<title>Node1&#45;&gt;Node14</title>
<path fill="none" stroke="midnightblue" d="M607.45,-110.34C618.25,-101.39 632.55,-89.54 643.74,-80.27"/>
<polygon fill="midnightblue" stroke="midnightblue" points="646.11,-82.85 651.58,-73.77 641.65,-77.46 646.11,-82.85"/>
</g>
<!-- Node15 -->
<g id="node15" class="node">
<title>Node15</title>
<g id="a_node15"><a xlink:title=" ">
<polygon fill="white" stroke="#bfbfbf" points="709.16,-55.5 709.16,-73.5 767.97,-73.5 767.97,-55.5 709.16,-55.5"/>
<text text-anchor="middle" x="738.56" y="-61.5" font-family="Helvetica,sans-Serif" font-size="10.00">functional</text>
</a>
</g>
</g>
<!-- Node1&#45;&gt;Node15 -->
<g id="edge17" class="edge">
<title>Node1&#45;&gt;Node15</title>
<path fill="none" stroke="midnightblue" d="M624.55,-110.48C649.7,-100.56 684.05,-87.01 708.45,-77.38"/>
<polygon fill="midnightblue" stroke="midnightblue" points="709.91,-80.57 717.92,-73.64 707.34,-74.06 709.91,-80.57"/>
</g>
<!-- Node16 -->
<g id="node16" class="node">
<title>Node16</title>
<g id="a_node16"><a xlink:title=" ">
<polygon fill="white" stroke="#bfbfbf" points="786.22,-55.5 786.22,-73.5 858.91,-73.5 858.91,-55.5 786.22,-55.5"/>
<text text-anchor="middle" x="822.56" y="-61.5" font-family="Helvetica,sans-Serif" font-size="10.00">initializer_list</text>
</a>
</g>
</g>
<!-- Node1&#45;&gt;Node16 -->
<g id="edge18" class="edge">
<title>Node1&#45;&gt;Node16</title>
<path fill="none" stroke="midnightblue" d="M642.83,-110.63C684.32,-100.21 742.01,-85.73 780.74,-76"/>
<polygon fill="midnightblue" stroke="midnightblue" points="781.79,-79.35 790.64,-73.52 780.09,-72.56 781.79,-79.35"/>
</g>
<!-- Node17 -->
<g id="node17" class="node">
<title>Node17</title>
<g id="a_node17"><a xlink:title=" ">
<polygon fill="white" stroke="#bfbfbf" points="876.51,-55.5 876.51,-73.5 928.62,-73.5 928.62,-55.5 876.51,-55.5"/>
<text text-anchor="middle" x="902.56" y="-61.5" font-family="Helvetica,sans-Serif" font-size="10.00">memory</text>
</a>
</g>
</g>
<!-- Node1&#45;&gt;Node17 -->
<g id="edge21" class="edge">
<title>Node1&#45;&gt;Node17</title>
<path fill="none" stroke="midnightblue" d="M642.87,-115.26C696.31,-106.46 782.67,-91.63 866.31,-74.16"/>
<polygon fill="midnightblue" stroke="midnightblue" points="867.16,-77.56 876.23,-72.08 865.72,-70.71 867.16,-77.56"/>
</g>
<!-- Node18 -->
<g id="node18" class="node">
<title>Node18</title>
<g id="a_node18"><a xlink:title=" ">
<polygon fill="white" stroke="#bfbfbf" points="946.72,-55.5 946.72,-73.5 984.41,-73.5 984.41,-55.5 946.72,-55.5"/>
<text text-anchor="middle" x="965.56" y="-61.5" font-family="Helvetica,sans-Serif" font-size="10.00">tuple</text>
</a>
</g>
</g>
<!-- Node1&#45;&gt;Node18 -->
<g id="edge23" class="edge">
<title>Node1&#45;&gt;Node18</title>
<path fill="none" stroke="midnightblue" d="M642.72,-118.65C708.64,-111.86 826.86,-97.83 936.76,-73.85"/>
<polygon fill="midnightblue" stroke="midnightblue" points="937.68,-77.24 946.69,-71.66 936.17,-70.4 937.68,-77.24"/>
</g>
<!-- Node19 -->
<g id="node19" class="node">
<title>Node19</title>
<g id="a_node19"><a xlink:title=" ">
<polygon fill="white" stroke="#bfbfbf" points="1002.5,-55.5 1002.5,-73.5 1064.63,-73.5 1064.63,-55.5 1002.5,-55.5"/>
<text text-anchor="middle" x="1033.56" y="-61.5" font-family="Helvetica,sans-Serif" font-size="10.00">type_traits</text>
</a>
</g>
</g>
<!-- Node1&#45;&gt;Node19 -->
<g id="edge24" class="edge">
<title>Node1&#45;&gt;Node19</title>
<path fill="none" stroke="midnightblue" d="M642.85,-118.63C717.52,-111.21 860.7,-95.8 991.94,-74.15"/>
<polygon fill="midnightblue" stroke="midnightblue" points="992.88,-77.54 1002.17,-72.44 991.73,-70.63 992.88,-77.54"/>
</g>
<!-- Node20 -->
<g id="node20" class="node">
<title>Node20</title>
<g id="a_node20"><a xlink:title=" ">
<polygon fill="white" stroke="#bfbfbf" points="1082.17,-55.5 1082.17,-73.5 1120.96,-73.5 1120.96,-55.5 1082.17,-55.5"/>
<text text-anchor="middle" x="1101.56" y="-61.5" font-family="Helvetica,sans-Serif" font-size="10.00">utility</text>
</a>
</g>
</g>
<!-- Node1&#45;&gt;Node20 -->
<g id="edge25" class="edge">
<title>Node1&#45;&gt;Node20</title>
<path fill="none" stroke="midnightblue" d="M642.7,-121.48C729.44,-117.35 910.88,-105.68 1072.01,-73.95"/>
<polygon fill="midnightblue" stroke="midnightblue" points="1072.99,-77.32 1082.1,-71.93 1071.61,-70.46 1072.99,-77.32"/>
</g>
<!-- Node21 -->
<g id="node21" class="node">
<title>Node21</title>
<g id="a_node21"><a xlink:title=" ">
<polygon fill="white" stroke="#bfbfbf" points="1138.95,-55.5 1138.95,-73.5 1182.18,-73.5 1182.18,-55.5 1138.95,-55.5"/>
<text text-anchor="middle" x="1160.56" y="-61.5" font-family="Helvetica,sans-Serif" font-size="10.00">vector</text>
</a>
</g>
</g>
<!-- Node1&#45;&gt;Node21 -->
<g id="edge26" class="edge">
<title>Node1&#45;&gt;Node21</title>
<path fill="none" stroke="midnightblue" d="M642.78,-121.79C737.16,-117.98 944.92,-106.57 1128.55,-73.85"/>
<polygon fill="midnightblue" stroke="midnightblue" points="1129.44,-77.24 1138.66,-72.02 1128.2,-70.35 1129.44,-77.24"/>
</g>
<!-- Node2&#45;&gt;Node3 -->
<g id="edge2" class="edge">
<title>Node2&#45;&gt;Node3</title>
<path fill="none" stroke="midnightblue" d="M228.24,-55.44C190.36,-47.03 128.99,-33.35 67.17,-19.35"/>
<polygon fill="midnightblue" stroke="midnightblue" points="67.77,-15.9 57.24,-17.11 66.22,-22.73 67.77,-15.9"/>
</g>
<!-- Node4 -->
<g id="node4" class="node">
<title>Node4</title>
<g id="a_node4"><a xlink:title=" ">
<polygon fill="white" stroke="#bfbfbf" points="136.17,-0.5 136.17,-18.5 174.96,-18.5 174.96,-0.5 136.17,-0.5"/>
<text text-anchor="middle" x="155.56" y="-6.5" font-family="Helvetica,sans-Serif" font-size="10.00">array</text>
</a>
</g>
</g>
<!-- Node2&#45;&gt;Node4 -->
<g id="edge3" class="edge">
<title>Node2&#45;&gt;Node4</title>
<path fill="none" stroke="midnightblue" d="M248.01,-55.45C230.32,-46.85 202.05,-33.1 181.43,-23.08"/>
<polygon fill="midnightblue" stroke="midnightblue" points="182.8,-19.85 172.27,-18.63 179.74,-26.15 182.8,-19.85"/>
</g>
<!-- Node5 -->
<g id="node5" class="node">
<title>Node5</title>
<g id="a_node5"><a xlink:title=" ">
<polygon fill="white" stroke="#bfbfbf" points="192.68,-0.5 192.68,-18.5 236.45,-18.5 236.45,-0.5 192.68,-0.5"/>
<text text-anchor="middle" x="214.56" y="-6.5" font-family="Helvetica,sans-Serif" font-size="10.00">climits</text>
</a>
</g>
</g>
<!-- Node2&#45;&gt;Node5 -->
<g id="edge4" class="edge">
<title>Node2&#45;&gt;Node5</title>
<path fill="none" stroke="midnightblue" d="M256.75,-55.22C249.37,-47.39 238.11,-35.46 229.08,-25.89"/>
<polygon fill="midnightblue" stroke="midnightblue" points="231.57,-23.42 222.16,-18.55 226.47,-28.23 231.57,-23.42"/>
</g>
<!-- Node2&#45;&gt;Node6 -->
<g id="edge5" class="edge">
<title>Node2&#45;&gt;Node6</title>
<path fill="none" stroke="midnightblue" d="M239.05,-55.45C209.31,-46.07 160.17,-30.57 128.08,-20.44"/>
<polygon fill="midnightblue" stroke="midnightblue" points="128.89,-17.03 118.3,-17.36 126.79,-23.7 128.89,-17.03"/>
</g>
<!-- Node2&#45;&gt;Node7 -->
<g id="edge6" class="edge">
<title>Node2&#45;&gt;Node7</title>
<path fill="none" stroke="midnightblue" d="M274.89,-55.45C285.28,-47.36 301.51,-34.7 314.11,-24.88"/>
<polygon fill="midnightblue" stroke="midnightblue" points="316.4,-27.53 322.14,-18.63 312.1,-22.01 316.4,-27.53"/>
</g>
<!-- Node2&#45;&gt;Node8 -->
<g id="edge7" class="edge">
<title>Node2&#45;&gt;Node8</title>
<path fill="none" stroke="midnightblue" d="M284.92,-55.45C307.15,-46.66 342.99,-32.48 368.48,-22.4"/>
<polygon fill="midnightblue" stroke="midnightblue" points="370.01,-25.56 378.02,-18.63 367.43,-19.05 370.01,-25.56"/>
</g>
<!-- Node2&#45;&gt;Node9 -->
<g id="edge8" class="edge">
<title>Node2&#45;&gt;Node9</title>
<path fill="none" stroke="midnightblue" d="M296.05,-55.45C327.71,-47.29 378.17,-34.07 430.27,-19.3"/>
<polygon fill="midnightblue" stroke="midnightblue" points="431.35,-22.64 440.01,-16.53 429.43,-15.9 431.35,-22.64"/>
</g>
<!-- Node10 -->
<g id="node10" class="node">
<title>Node10</title>
<g id="a_node10"><a xlink:title=" ">
<polygon fill="white" stroke="#bfbfbf" points="254.84,-0.5 254.84,-18.5 290.29,-18.5 290.29,-0.5 254.84,-0.5"/>
<text text-anchor="middle" x="272.56" y="-6.5" font-family="Helvetica,sans-Serif" font-size="10.00">ratio</text>
</a>
</g>
</g>
<!-- Node2&#45;&gt;Node10 -->
<g id="edge9" class="edge">
<title>Node2&#45;&gt;Node10</title>
<path fill="none" stroke="midnightblue" d="M265.81,-55.22C266.89,-48.1 268.48,-37.58 269.84,-28.53"/>
<polygon fill="midnightblue" stroke="midnightblue" points="273.32,-28.96 271.35,-18.55 266.4,-27.92 273.32,-28.96"/>
</g>
<!-- Node2&#45;&gt;Node11 -->
<g id="edge10" class="edge">
<title>Node2&#45;&gt;Node11</title>
<path fill="none" stroke="midnightblue" d="M306.12,-55.43C348.84,-47.09 417.56,-33.54 486.58,-19.18"/>
<polygon fill="midnightblue" stroke="midnightblue" points="487.69,-22.52 496.77,-17.05 486.26,-15.67 487.69,-22.52"/>
</g>
</g>
</svg>
        <g id="navigator" transform="translate(0 0)" fill="#404254">
                <rect fill="#f2f5e9" fill-opacity="0.5" stroke="#606060" stroke-width=".5" x="0" y="0" width="60" height="60"/>
                <use id="zoomplus" xlink:href="#zoomPlus" x="17" y="9" onmousedown="handleZoom(evt,'in')"/>
                <use id="zoomminus" xlink:href="#zoomMin" x="42" y="9" onmousedown="handleZoom(evt,'out')"/>
                <use id="reset" xlink:href="#resetDef" x="30" y="36" onmousedown="handleReset()"/>
                <g id="arrowUp" xlink:href="#dirArrow" transform="translate(30 24)" onmousedown="handlePan(0,-1)">
                  <use xlink:href="#rim" fill="#404040">
                        <set attributeName="fill" to="#808080" begin="arrowUp.mouseover" end="arrowUp.mouseout"/>
                  </use>
                  <path fill="none" stroke="white" stroke-width="1.5" d="M0,-3.0v7 M-2.5,-0.5L0,-3.0L2.5,-0.5"/>
                </g>
                <g id="arrowRight" xlink:href="#dirArrow" transform="rotate(90) translate(36 -43)" onmousedown="handlePan(1,0)">
                  <use xlink:href="#rim" fill="#404040">
                        <set attributeName="fill" to="#808080" begin="arrowRight.mouseover" end="arrowRight.mouseout"/>
                  </use>
                  <path fill="none" stroke="white" stroke-width="1.5" d="M0,-3.0v7 M-2.5,-0.5L0,-3.0L2.5,-0.5"/>
                </g>
                <g id="arrowDown" xlink:href="#dirArrow" transform="rotate(180) translate(-30 -48)" onmousedown="handlePan(0,1)">
                  <use xlink:href="#rim" fill="#404040">
                        <set attributeName="fill" to="#808080" begin="arrowDown.mouseover" end="arrowDown.mouseout"/>
                  </use>
                  <path fill="none" stroke="white" stroke-width="1.5" d="M0,-3.0v7 M-2.5,-0.5L0,-3.0L2.5,-0.5"/>
                </g>
                <g id="arrowLeft" xlink:href="#dirArrow" transform="rotate(270) translate(-36 17)" onmousedown="handlePan(-1,0)">
                  <use xlink:href="#rim" fill="#404040">
                        <set attributeName="fill" to="#808080" begin="arrowLeft.mouseover" end="arrowLeft.mouseout"/>
                  </use>
                  <path fill="none" stroke="white" stroke-width="1.5" d="M0,-3.0v7 M-2.5,-0.5L0,-3.0L2.5,-0.5"/>
                </g>
        </g>
        <svg viewBox="0 0 15 15" width="100%" height="30px" preserveAspectRatio="xMaxYMin meet">
         <g id="arrow_out" transform="scale(0.3 0.3)">
          <a xlink:href="hopscotch__hash_8h__incl_org.svg" target="_base">
           <rect id="button" ry="5" rx="5" y="6" x="6" height="38" width="38"
                fill="#f2f5e9" fill-opacity="0.5" stroke="#606060" stroke-width="1.0"/>
           <path id="arrow"
             d="M 11.500037,31.436501 C 11.940474,20.09759 22.043105,11.32322 32.158766,21.979434 L 37.068811,17.246167 C 37.068811,17.246167 37.088388,32 37.088388,32 L 22.160133,31.978069 C 22.160133,31.978069 26.997745,27.140456 26.997745,27.140456 C 18.528582,18.264221 13.291696,25.230495 11.500037,31.436501 z"
             style="fill:#404040;"/>
          </a>
         </g>
        </svg>
</svg>
