<?xml version="1.0" encoding="UTF-8" standalone="no"?>
<!DOCTYPE svg PUBLIC "-//W3C//DTD SVG 1.1//EN"
 "http://www.w3.org/Graphics/SVG/1.1/DTD/svg11.dtd">
<!-- Generated by graphviz version 2.40.1 (20161225.0304)
 -->
<!-- Title: src/hash/hopscotch_growth_policy.h Pages: 1 -->
<svg width="482pt" height="167pt"
 viewBox="0.00 0.00 481.94 167.00" xmlns="http://www.w3.org/2000/svg" xmlns:xlink="http://www.w3.org/1999/xlink">
<g id="graph0" class="graph" transform="scale(1 1) rotate(0) translate(4 163)">
<title>src/hash/hopscotch_growth_policy.h</title>
<polygon fill="#ffffff" stroke="transparent" points="-4,4 -4,-163 477.938,-163 477.938,4 -4,4"/>
<!-- Node1 -->
<g id="node1" class="node">
<title>Node1</title>
<g id="a_node1"><a xlink:title=" ">
<polygon fill="#bfbfbf" stroke="#000000" points="189.7808,-130.5 189.7808,-158.5 291.938,-158.5 291.938,-130.5 189.7808,-130.5"/>
<text text-anchor="start" x="197.7808" y="-146.5" font-family="Helvetica,sans-Serif" font-size="10.00" fill="#000000">src/hash/hopscotch</text>
<text text-anchor="middle" x="240.8594" y="-136.5" font-family="Helvetica,sans-Serif" font-size="10.00" fill="#000000">_growth_policy.h</text>
</a>
</g>
</g>
<!-- Node2 -->
<g id="node2" class="node">
<title>Node2</title>
<g id="a_node2"><a xlink:href="hopscotch__hash_8h.html" target="_top" xlink:title=" ">
<polygon fill="#ffffff" stroke="#000000" points="189.7808,-65.5 189.7808,-93.5 291.938,-93.5 291.938,-65.5 189.7808,-65.5"/>
<text text-anchor="start" x="197.7808" y="-81.5" font-family="Helvetica,sans-Serif" font-size="10.00" fill="#000000">src/hash/hopscotch</text>
<text text-anchor="middle" x="240.8594" y="-71.5" font-family="Helvetica,sans-Serif" font-size="10.00" fill="#000000">_hash.h</text>
</a>
</g>
</g>
<!-- Node1&#45;&gt;Node2 -->
<g id="edge1" class="edge">
<title>Node1&#45;&gt;Node2</title>
<path fill="none" stroke="#191970" d="M240.8594,-120.1081C240.8594,-111.1539 240.8594,-101.3227 240.8594,-93.5765"/>
<polygon fill="#191970" stroke="#191970" points="237.3595,-120.3959 240.8594,-130.396 244.3595,-120.396 237.3595,-120.3959"/>
</g>
<!-- Node3 -->
<g id="node3" class="node">
<title>Node3</title>
<g id="a_node3"><a xlink:href="bhopscotch__map_8h.html" target="_top" xlink:title=" ">
<polygon fill="#ffffff" stroke="#000000" points="0,-.5 0,-28.5 107.7188,-28.5 107.7188,-.5 0,-.5"/>
<text text-anchor="start" x="8" y="-16.5" font-family="Helvetica,sans-Serif" font-size="10.00" fill="#000000">src/hash/bhopscotch</text>
<text text-anchor="middle" x="53.8594" y="-6.5" font-family="Helvetica,sans-Serif" font-size="10.00" fill="#000000">_map.h</text>
</a>
</g>
</g>
<!-- Node2&#45;&gt;Node3 -->
<g id="edge2" class="edge">
<title>Node2&#45;&gt;Node3</title>
<path fill="none" stroke="#191970" d="M190.777,-62.0917C160.5899,-51.5988 122.6414,-38.4082 94.3564,-28.5765"/>
<polygon fill="#191970" stroke="#191970" points="189.6883,-65.4186 200.2832,-65.396 191.9867,-58.8067 189.6883,-65.4186"/>
</g>
<!-- Node4 -->
<g id="node4" class="node">
<title>Node4</title>
<g id="a_node4"><a xlink:href="bhopscotch__set_8h.html" target="_top" xlink:title=" ">
<polygon fill="#ffffff" stroke="#000000" points="126,-.5 126,-28.5 233.7188,-28.5 233.7188,-.5 126,-.5"/>
<text text-anchor="start" x="134" y="-16.5" font-family="Helvetica,sans-Serif" font-size="10.00" fill="#000000">src/hash/bhopscotch</text>
<text text-anchor="middle" x="179.8594" y="-6.5" font-family="Helvetica,sans-Serif" font-size="10.00" fill="#000000">_set.h</text>
</a>
</g>
</g>
<!-- Node2&#45;&gt;Node4 -->
<g id="edge3" class="edge">
<title>Node2&#45;&gt;Node4</title>
<path fill="none" stroke="#191970" d="M220.7052,-58.0243C211.6168,-48.3398 201.138,-37.1739 193.0696,-28.5765"/>
<polygon fill="#191970" stroke="#191970" points="218.2279,-60.4992 227.6233,-65.396 223.3323,-55.709 218.2279,-60.4992"/>
</g>
<!-- Node5 -->
<g id="node5" class="node">
<title>Node5</title>
<g id="a_node5"><a xlink:href="hopscotch__map_8h.html" target="_top" xlink:title=" ">
<polygon fill="#ffffff" stroke="#000000" points="251.7808,-.5 251.7808,-28.5 353.938,-28.5 353.938,-.5 251.7808,-.5"/>
<text text-anchor="start" x="259.7808" y="-16.5" font-family="Helvetica,sans-Serif" font-size="10.00" fill="#000000">src/hash/hopscotch</text>
<text text-anchor="middle" x="302.8594" y="-6.5" font-family="Helvetica,sans-Serif" font-size="10.00" fill="#000000">_map.h</text>
</a>
</g>
</g>
<!-- Node2&#45;&gt;Node5 -->
<g id="edge4" class="edge">
<title>Node2&#45;&gt;Node5</title>
<path fill="none" stroke="#191970" d="M261.3439,-58.0243C270.5814,-48.3398 281.2319,-37.1739 289.4326,-28.5765"/>
<polygon fill="#191970" stroke="#191970" points="258.682,-55.7441 254.3125,-65.396 263.7472,-60.5756 258.682,-55.7441"/>
</g>
<!-- Node6 -->
<g id="node6" class="node">
<title>Node6</title>
<g id="a_node6"><a xlink:href="hopscotch__set_8h.html" target="_top" xlink:title=" ">
<polygon fill="#ffffff" stroke="#000000" points="371.7808,-.5 371.7808,-28.5 473.938,-28.5 473.938,-.5 371.7808,-.5"/>
<text text-anchor="start" x="379.7808" y="-16.5" font-family="Helvetica,sans-Serif" font-size="10.00" fill="#000000">src/hash/hopscotch</text>
<text text-anchor="middle" x="422.8594" y="-6.5" font-family="Helvetica,sans-Serif" font-size="10.00" fill="#000000">_set.h</text>
</a>
</g>
</g>
<!-- Node2&#45;&gt;Node6 -->
<g id="edge5" class="edge">
<title>Node2&#45;&gt;Node6</title>
<path fill="none" stroke="#191970" d="M289.9847,-61.9553C319.3022,-51.4847 356.0356,-38.3656 383.4452,-28.5765"/>
<polygon fill="#191970" stroke="#191970" points="288.5909,-58.7364 280.3507,-65.396 290.9453,-65.3286 288.5909,-58.7364"/>
</g>
</g>
</svg>
