<?xml version="1.0" encoding="UTF-8" standalone="no"?>
<!DOCTYPE svg PUBLIC "-//W3C//DTD SVG 1.1//EN"
 "http://www.w3.org/Graphics/SVG/1.1/DTD/svg11.dtd">
<!-- Generated by graphviz version 2.43.0 (0)
 -->
<!-- Title: Graphical Class Hierarchy Pages: 1 -->
<svg width="280pt" height="64pt"
 viewBox="0.00 0.00 280.01 64.00" xmlns="http://www.w3.org/2000/svg" xmlns:xlink="http://www.w3.org/1999/xlink">
<g id="graph0" class="graph" transform="scale(1 1) rotate(0) translate(4 60)">
<title>Graphical Class Hierarchy</title>
<polygon fill="white" stroke="transparent" points="-4,4 -4,-60 276.01,-60 276.01,4 -4,4"/>
<!-- Node0 -->
<g id="node1" class="node">
<title>Node0</title>
<g id="a_node1"><a xlink:href="classIogn_1_1GeneratedMesh.html" target="_top" xlink:title=" ">
<polygon fill="white" stroke="black" points="0,-18.5 0,-36.5 112.73,-36.5 112.73,-18.5 0,-18.5"/>
<text text-anchor="middle" x="56.36" y="-24.5" font-family="Helvetica,sans-Serif" font-size="10.00">Iogn::GeneratedMesh</text>
</a>
</g>
</g>
<!-- Node1 -->
<g id="node2" class="node">
<title>Node1</title>
<g id="a_node2"><a xlink:href="classIogn_1_1DashSurfaceMesh.html" target="_top" xlink:title=" ">
<polygon fill="white" stroke="black" points="148.73,-37.5 148.73,-55.5 272.01,-55.5 272.01,-37.5 148.73,-37.5"/>
<text text-anchor="middle" x="210.37" y="-43.5" font-family="Helvetica,sans-Serif" font-size="10.00">Iogn::DashSurfaceMesh</text>
</a>
</g>
</g>
<!-- Node0&#45;&gt;Node1 -->
<g id="edge1" class="edge">
<title>Node0&#45;&gt;Node1</title>
<path fill="none" stroke="midnightblue" d="M123.23,-35.73C131.63,-36.78 140.2,-37.85 148.51,-38.89"/>
<polygon fill="midnightblue" stroke="midnightblue" points="123.46,-32.23 113.1,-34.47 122.59,-39.18 123.46,-32.23"/>
</g>
<!-- Node2 -->
<g id="node3" class="node">
<title>Node2</title>
<g id="a_node3"><a xlink:href="classIogn_1_1ExodusMesh.html" target="_top" xlink:title=" ">
<polygon fill="white" stroke="black" points="160.96,-0.5 160.96,-18.5 259.78,-18.5 259.78,-0.5 160.96,-0.5"/>
<text text-anchor="middle" x="210.37" y="-6.5" font-family="Helvetica,sans-Serif" font-size="10.00">Iogn::ExodusMesh</text>
</a>
</g>
</g>
<!-- Node0&#45;&gt;Node2 -->
<g id="edge2" class="edge">
<title>Node0&#45;&gt;Node2</title>
<path fill="none" stroke="midnightblue" d="M123.1,-19.72C135.71,-18.22 148.71,-16.68 160.66,-15.27"/>
<polygon fill="midnightblue" stroke="midnightblue" points="122.62,-16.25 113.1,-20.9 123.44,-23.2 122.62,-16.25"/>
</g>
</g>
</svg>
