<?xml version="1.0" encoding="UTF-8" standalone="no"?>
<!DOCTYPE svg PUBLIC "-//W3C//DTD SVG 1.1//EN"
 "http://www.w3.org/Graphics/SVG/1.1/DTD/svg11.dtd">
<!-- Generated by graphviz version 2.43.0 (0)
 -->
<!-- Title: Graphical Class Hierarchy Pages: 1 -->
<svg width="228pt" height="249pt"
 viewBox="0.00 0.00 227.53 249.00" xmlns="http://www.w3.org/2000/svg" xmlns:xlink="http://www.w3.org/1999/xlink">
<g id="graph0" class="graph" transform="scale(1 1) rotate(0) translate(4 245)">
<title>Graphical Class Hierarchy</title>
<polygon fill="white" stroke="transparent" points="-4,4 -4,-245 223.53,-245 223.53,4 -4,4"/>
<!-- Node0 -->
<g id="node1" class="node">
<title>Node0</title>
<g id="a_node1"><a xlink:href="classIotr_1_1Factory.html" target="_top" xlink:title=" ">
<polygon fill="white" stroke="black" points="0,-111.5 0,-129.5 69.34,-129.5 69.34,-111.5 0,-111.5"/>
<text text-anchor="middle" x="34.67" y="-117.5" font-family="Helvetica,sans-Serif" font-size="10.00">Iotr::Factory</text>
</a>
</g>
</g>
<!-- Node1 -->
<g id="node2" class="node">
<title>Node1</title>
<g id="a_node2"><a xlink:href="classIotr_1_1MinMax__Factory.html" target="_top" xlink:title=" ">
<polygon fill="white" stroke="black" points="107.48,-222.5 107.48,-240.5 217.39,-240.5 217.39,-222.5 107.48,-222.5"/>
<text text-anchor="middle" x="162.44" y="-228.5" font-family="Helvetica,sans-Serif" font-size="10.00">Iotr::MinMax_Factory</text>
</a>
</g>
</g>
<!-- Node0&#45;&gt;Node1 -->
<g id="edge1" class="edge">
<title>Node0&#45;&gt;Node1</title>
<path fill="none" stroke="midnightblue" d="M44.84,-138.78C56.25,-159.75 77.67,-193.78 105.34,-213.5 110.51,-217.18 116.46,-220.13 122.52,-222.5"/>
<polygon fill="midnightblue" stroke="midnightblue" points="47.8,-136.88 40.05,-129.65 41.6,-140.13 47.8,-136.88"/>
</g>
<!-- Node2 -->
<g id="node3" class="node">
<title>Node2</title>
<g id="a_node3"><a xlink:href="classIotr_1_1Offset3D__Factory.html" target="_top" xlink:title=" ">
<polygon fill="white" stroke="black" points="105.34,-185.5 105.34,-203.5 219.53,-203.5 219.53,-185.5 105.34,-185.5"/>
<text text-anchor="middle" x="162.44" y="-191.5" font-family="Helvetica,sans-Serif" font-size="10.00">Iotr::Offset3D_Factory</text>
</a>
</g>
</g>
<!-- Node0&#45;&gt;Node2 -->
<g id="edge2" class="edge">
<title>Node0&#45;&gt;Node2</title>
<path fill="none" stroke="midnightblue" d="M52.23,-136.75C65.61,-149.11 85.43,-165.78 105.34,-176.5 111.92,-180.04 119.31,-183.02 126.51,-185.48"/>
<polygon fill="midnightblue" stroke="midnightblue" points="54.45,-134.03 44.79,-129.7 49.64,-139.12 54.45,-134.03"/>
</g>
<!-- Node3 -->
<g id="node4" class="node">
<title>Node3</title>
<g id="a_node4"><a xlink:href="classIotr_1_1Offset__Factory.html" target="_top" xlink:title=" ">
<polygon fill="white" stroke="black" points="111.74,-148.5 111.74,-166.5 213.14,-166.5 213.14,-148.5 111.74,-148.5"/>
<text text-anchor="middle" x="162.44" y="-154.5" font-family="Helvetica,sans-Serif" font-size="10.00">Iotr::Offset_Factory</text>
</a>
</g>
</g>
<!-- Node0&#45;&gt;Node3 -->
<g id="edge3" class="edge">
<title>Node0&#45;&gt;Node3</title>
<path fill="none" stroke="midnightblue" d="M76.44,-132.49C94.02,-137.66 114.24,-143.62 130.55,-148.41"/>
<polygon fill="midnightblue" stroke="midnightblue" points="77.02,-129.02 66.44,-129.55 75.04,-135.73 77.02,-129.02"/>
</g>
<!-- Node4 -->
<g id="node5" class="node">
<title>Node4</title>
<g id="a_node5"><a xlink:href="classIotr_1_1Scale3D__Factory.html" target="_top" xlink:title=" ">
<polygon fill="white" stroke="black" points="106.09,-111.5 106.09,-129.5 218.79,-129.5 218.79,-111.5 106.09,-111.5"/>
<text text-anchor="middle" x="162.44" y="-117.5" font-family="Helvetica,sans-Serif" font-size="10.00">Iotr::Scale3D_Factory</text>
</a>
</g>
</g>
<!-- Node0&#45;&gt;Node4 -->
<g id="edge4" class="edge">
<title>Node0&#45;&gt;Node4</title>
<path fill="none" stroke="midnightblue" d="M79.44,-120.5C87.95,-120.5 96.96,-120.5 105.79,-120.5"/>
<polygon fill="midnightblue" stroke="midnightblue" points="79.38,-117 69.38,-120.5 79.38,-124 79.38,-117"/>
</g>
<!-- Node5 -->
<g id="node6" class="node">
<title>Node5</title>
<g id="a_node6"><a xlink:href="classIotr_1_1Scale__Factory.html" target="_top" xlink:title=" ">
<polygon fill="white" stroke="black" points="112.48,-74.5 112.48,-92.5 212.4,-92.5 212.4,-74.5 112.48,-74.5"/>
<text text-anchor="middle" x="162.44" y="-80.5" font-family="Helvetica,sans-Serif" font-size="10.00">Iotr::Scale_Factory</text>
</a>
</g>
</g>
<!-- Node0&#45;&gt;Node5 -->
<g id="edge5" class="edge">
<title>Node0&#45;&gt;Node5</title>
<path fill="none" stroke="midnightblue" d="M76.44,-108.51C94.02,-103.34 114.24,-97.38 130.55,-92.59"/>
<polygon fill="midnightblue" stroke="midnightblue" points="75.04,-105.27 66.44,-111.45 77.02,-111.98 75.04,-105.27"/>
</g>
<!-- Node6 -->
<g id="node7" class="node">
<title>Node6</title>
<g id="a_node7"><a xlink:href="classIotr_1_1Tensor__Factory.html" target="_top" xlink:title=" ">
<polygon fill="white" stroke="black" points="109.98,-37.5 109.98,-55.5 214.9,-55.5 214.9,-37.5 109.98,-37.5"/>
<text text-anchor="middle" x="162.44" y="-43.5" font-family="Helvetica,sans-Serif" font-size="10.00">Iotr::Tensor_Factory</text>
</a>
</g>
</g>
<!-- Node0&#45;&gt;Node6 -->
<g id="edge6" class="edge">
<title>Node0&#45;&gt;Node6</title>
<path fill="none" stroke="midnightblue" d="M52.79,-104.23C66.21,-92.19 85.83,-76.1 105.34,-65.5 112.57,-61.58 120.76,-58.25 128.61,-55.53"/>
<polygon fill="midnightblue" stroke="midnightblue" points="50.28,-101.78 45.28,-111.12 55.02,-106.94 50.28,-101.78"/>
</g>
<!-- Node7 -->
<g id="node8" class="node">
<title>Node7</title>
<g id="a_node8"><a xlink:href="classIotr_1_1VM__Factory.html" target="_top" xlink:title=" ">
<polygon fill="white" stroke="black" points="117.49,-0.5 117.49,-18.5 207.39,-18.5 207.39,-0.5 117.49,-0.5"/>
<text text-anchor="middle" x="162.44" y="-6.5" font-family="Helvetica,sans-Serif" font-size="10.00">Iotr::VM_Factory</text>
</a>
</g>
</g>
<!-- Node0&#45;&gt;Node7 -->
<g id="edge7" class="edge">
<title>Node0&#45;&gt;Node7</title>
<path fill="none" stroke="midnightblue" d="M44.94,-102.5C56.46,-81.83 77.97,-48.23 105.34,-28.5 111.02,-24.41 117.63,-21.15 124.29,-18.58"/>
<polygon fill="midnightblue" stroke="midnightblue" points="41.76,-101.03 40.11,-111.49 47.93,-104.34 41.76,-101.03"/>
</g>
</g>
</svg>
