<?xml version="1.0" encoding="UTF-8" standalone="no"?>
<!DOCTYPE svg PUBLIC "-//W3C//DTD SVG 1.1//EN"
 "http://www.w3.org/Graphics/SVG/1.1/DTD/svg11.dtd">
<!-- Generated by graphviz version 2.43.0 (0)
 -->
<!-- Title: Graphical Class Hierarchy Pages: 1 -->
<svg width="302pt" height="37pt"
 viewBox="0.00 0.00 302.08 37.00" xmlns="http://www.w3.org/2000/svg" xmlns:xlink="http://www.w3.org/1999/xlink">
<g id="graph0" class="graph" transform="scale(1 1) rotate(0) translate(4 33)">
<title>Graphical Class Hierarchy</title>
<polygon fill="white" stroke="transparent" points="-4,4 -4,-33 298.08,-33 298.08,4 -4,4"/>
<!-- Node0 -->
<g id="node1" class="node">
<title>Node0</title>
<g id="a_node1"><a xlink:href="structinternal_1_1integer__sequence.html" target="_top" xlink:title=" ">
<polygon fill="white" stroke="black" points="0,-0.5 0,-28.5 133.86,-28.5 133.86,-0.5 0,-0.5"/>
<text text-anchor="start" x="8" y="-16.5" font-family="Helvetica,sans-Serif" font-size="10.00">internal::integer_sequence</text>
<text text-anchor="middle" x="66.93" y="-6.5" font-family="Helvetica,sans-Serif" font-size="10.00">&lt; T, Ns... &gt;</text>
</a>
</g>
</g>
<!-- Node1 -->
<g id="node2" class="node">
<title>Node1</title>
<g id="a_node2"><a xlink:href="structinternal_1_1make__integer__sequence_3_01T_00_010_00_01Ns_8_8_8_01_4.html" target="_top" xlink:title=" ">
<polygon fill="white" stroke="black" points="169.86,-0.5 169.86,-28.5 294.08,-28.5 294.08,-0.5 169.86,-0.5"/>
<text text-anchor="start" x="177.86" y="-16.5" font-family="Helvetica,sans-Serif" font-size="10.00">internal::make_integer</text>
<text text-anchor="middle" x="231.97" y="-6.5" font-family="Helvetica,sans-Serif" font-size="10.00">_sequence&lt; T, 0, Ns... &gt;</text>
</a>
</g>
</g>
<!-- Node0&#45;&gt;Node1 -->
<g id="edge1" class="edge">
<title>Node0&#45;&gt;Node1</title>
<path fill="none" stroke="midnightblue" d="M144.5,-14.5C152.95,-14.5 161.48,-14.5 169.71,-14.5"/>
<polygon fill="midnightblue" stroke="midnightblue" points="144.25,-11 134.25,-14.5 144.25,-18 144.25,-11"/>
</g>
</g>
</svg>
