<?xml version="1.0" encoding="UTF-8" standalone="no"?>
<!DOCTYPE svg PUBLIC "-//W3C//DTD SVG 1.1//EN"
 "http://www.w3.org/Graphics/SVG/1.1/DTD/svg11.dtd">
<!-- Generated by graphviz version 2.43.0 (0)
 -->
<!-- Title: Graphical Class Hierarchy Pages: 1 -->
<svg width="274pt" height="37pt"
 viewBox="0.00 0.00 274.42 37.00" xmlns="http://www.w3.org/2000/svg" xmlns:xlink="http://www.w3.org/1999/xlink">
<g id="graph0" class="graph" transform="scale(1 1) rotate(0) translate(4 33)">
<title>Graphical Class Hierarchy</title>
<polygon fill="white" stroke="transparent" points="-4,4 -4,-33 270.42,-33 270.42,4 -4,4"/>
<!-- Node0 -->
<g id="node1" class="node">
<title>Node0</title>
<g id="a_node1"><a xlink:href="structbasic__format__specs.html" target="_top" xlink:title=" ">
<polygon fill="white" stroke="black" points="0,-0.5 0,-28.5 104.93,-28.5 104.93,-0.5 0,-0.5"/>
<text text-anchor="start" x="8" y="-16.5" font-family="Helvetica,sans-Serif" font-size="10.00">basic_format_specs</text>
<text text-anchor="middle" x="52.47" y="-6.5" font-family="Helvetica,sans-Serif" font-size="10.00">&lt; Char &gt;</text>
</a>
</g>
</g>
<!-- Node1 -->
<g id="node2" class="node">
<title>Node1</title>
<g id="a_node2"><a xlink:href="structinternal_1_1dynamic__format__specs.html" target="_top" xlink:title=" ">
<polygon fill="white" stroke="black" points="140.93,-0.5 140.93,-28.5 266.42,-28.5 266.42,-0.5 140.93,-0.5"/>
<text text-anchor="start" x="148.93" y="-16.5" font-family="Helvetica,sans-Serif" font-size="10.00">internal::dynamic_format</text>
<text text-anchor="middle" x="203.68" y="-6.5" font-family="Helvetica,sans-Serif" font-size="10.00">_specs&lt; Char &gt;</text>
</a>
</g>
</g>
<!-- Node0&#45;&gt;Node1 -->
<g id="edge1" class="edge">
<title>Node0&#45;&gt;Node1</title>
<path fill="none" stroke="midnightblue" d="M115.33,-14.5C123.72,-14.5 132.33,-14.5 140.73,-14.5"/>
<polygon fill="midnightblue" stroke="midnightblue" points="115.23,-11 105.23,-14.5 115.23,-18 115.23,-11"/>
</g>
</g>
</svg>
