<?xml version="1.0" encoding="UTF-8" standalone="no"?>
<!DOCTYPE svg PUBLIC "-//W3C//DTD SVG 1.1//EN"
 "http://www.w3.org/Graphics/SVG/1.1/DTD/svg11.dtd">
<!-- Generated by graphviz version 2.40.1 (20161225.0304)
 -->
<!-- Title: Graphical Class Hierarchy Pages: 1 -->
<svg width="229pt" height="47pt"
 viewBox="0.00 0.00 228.88 47.00" xmlns="http://www.w3.org/2000/svg" xmlns:xlink="http://www.w3.org/1999/xlink">
<g id="graph0" class="graph" transform="scale(1 1) rotate(0) translate(4 43)">
<title>Graphical Class Hierarchy</title>
<polygon fill="#ffffff" stroke="transparent" points="-4,4 -4,-43 224.876,-43 224.876,4 -4,4"/>
<!-- Node150 -->
<g id="node1" class="node">
<title>Node150</title>
<g id="a_node1"><a xlink:title=" ">
<polygon fill="#ffffff" stroke="#bfbfbf" points="0,-10.5 0,-28.5 59.916,-28.5 59.916,-10.5 0,-10.5"/>
<text text-anchor="middle" x="29.958" y="-16.5" font-family="Helvetica,sans-Serif" font-size="10.00" fill="#000000">numpunct</text>
</a>
</g>
</g>
<!-- Node0 -->
<g id="node2" class="node">
<title>Node0</title>
<g id="a_node2"><a xlink:href="structanonymous__namespace_02io__shell__ts_8C_03_1_1my__numpunct.html" target="_top" xlink:title=" ">
<polygon fill="#ffffff" stroke="#000000" points="95.916,-.5 95.916,-38.5 220.876,-38.5 220.876,-.5 95.916,-.5"/>
<text text-anchor="start" x="103.916" y="-26.5" font-family="Helvetica,sans-Serif" font-size="10.00" fill="#000000">anonymous_namespace</text>
<text text-anchor="start" x="103.916" y="-16.5" font-family="Helvetica,sans-Serif" font-size="10.00" fill="#000000">{io_shell_ts.C}::my</text>
<text text-anchor="middle" x="158.396" y="-6.5" font-family="Helvetica,sans-Serif" font-size="10.00" fill="#000000">_numpunct</text>
</a>
</g>
</g>
<!-- Node150&#45;&gt;Node0 -->
<g id="edge1" class="edge">
<title>Node150&#45;&gt;Node0</title>
<path fill="none" stroke="#191970" d="M70.072,-19.5C78.2649,-19.5 87.0701,-19.5 95.8341,-19.5"/>
<polygon fill="#191970" stroke="#191970" points="70.071,-16.0001 60.071,-19.5 70.071,-23.0001 70.071,-16.0001"/>
</g>
</g>
</svg>
