<?xml version="1.0" encoding="UTF-8" standalone="no"?>
<!DOCTYPE svg PUBLIC "-//W3C//DTD SVG 1.1//EN"
 "http://www.w3.org/Graphics/SVG/1.1/DTD/svg11.dtd">
<!-- Generated by graphviz version 2.43.0 (0)
 -->
<!-- Title: src/adios/Ioad_IOFactory.h Pages: 1 -->
<svg width="296pt" height="82pt"
 viewBox="0.00 0.00 295.85 82.00" xmlns="http://www.w3.org/2000/svg" xmlns:xlink="http://www.w3.org/1999/xlink">
<g id="graph0" class="graph" transform="scale(1 1) rotate(0) translate(4 78)">
<title>src/adios/Ioad_IOFactory.h</title>
<polygon fill="white" stroke="transparent" points="-4,4 -4,-78 291.85,-78 291.85,4 -4,4"/>
<!-- Node1 -->
<g id="node1" class="node">
<title>Node1</title>
<g id="a_node1"><a xlink:title=" ">
<polygon fill="#bfbfbf" stroke="black" points="74.71,-55.5 74.71,-73.5 210.02,-73.5 210.02,-55.5 74.71,-55.5"/>
<text text-anchor="middle" x="142.36" y="-61.5" font-family="Helvetica,sans-Serif" font-size="10.00">src/adios/Ioad_IOFactory.h</text>
</a>
</g>
</g>
<!-- Node2 -->
<g id="node2" class="node">
<title>Node2</title>
<g id="a_node2"><a xlink:href="Ioad__Initializer_8C.html" target="_top" xlink:title=" ">
<polygon fill="white" stroke="black" points="0,-0.5 0,-18.5 132.73,-18.5 132.73,-0.5 0,-0.5"/>
<text text-anchor="middle" x="66.36" y="-6.5" font-family="Helvetica,sans-Serif" font-size="10.00">src/adios/Ioad_Initializer.C</text>
</a>
</g>
</g>
<!-- Node1&#45;&gt;Node2 -->
<g id="edge1" class="edge">
<title>Node1&#45;&gt;Node2</title>
<path fill="none" stroke="midnightblue" d="M122.28,-49.49C108.16,-39.65 89.77,-26.83 78.02,-18.63"/>
<polygon fill="midnightblue" stroke="midnightblue" points="120.62,-52.6 130.82,-55.45 124.62,-46.86 120.62,-52.6"/>
</g>
<!-- Node3 -->
<g id="node3" class="node">
<title>Node3</title>
<g id="a_node3"><a xlink:href="Ioad__IOFactory_8C.html" target="_top" xlink:title=" ">
<polygon fill="white" stroke="black" points="150.88,-0.5 150.88,-18.5 287.85,-18.5 287.85,-0.5 150.88,-0.5"/>
<text text-anchor="middle" x="219.36" y="-6.5" font-family="Helvetica,sans-Serif" font-size="10.00">src/adios/Ioad_IOFactory.C</text>
</a>
</g>
</g>
<!-- Node1&#45;&gt;Node3 -->
<g id="edge2" class="edge">
<title>Node1&#45;&gt;Node3</title>
<path fill="none" stroke="midnightblue" d="M162.31,-49.77C176.66,-39.89 195.53,-26.9 207.56,-18.63"/>
<polygon fill="midnightblue" stroke="midnightblue" points="160.31,-46.9 154.06,-55.45 164.28,-52.66 160.31,-46.9"/>
</g>
</g>
</svg>
