<?xml version="1.0" encoding="UTF-8" standalone="no"?>
<!DOCTYPE svg PUBLIC "-//W3C//DTD SVG 1.1//EN"
 "http://www.w3.org/Graphics/SVG/1.1/DTD/svg11.dtd">
<!-- Generated by graphviz version 2.40.1 (20161225.0304)
 -->
<!-- Title: src/cgns/Iocgns_Utils.h Pages: 1 -->
<svg width="1228pt" height="92pt"
 viewBox="0.00 0.00 1228.38 92.00" xmlns="http://www.w3.org/2000/svg" xmlns:xlink="http://www.w3.org/1999/xlink">
<g id="graph0" class="graph" transform="scale(1 1) rotate(0) translate(4 88)">
<title>src/cgns/Iocgns_Utils.h</title>
<polygon fill="#ffffff" stroke="transparent" points="-4,4 -4,-88 1224.3838,-88 1224.3838,4 -4,4"/>
<!-- Node50 -->
<g id="node1" class="node">
<title>Node50</title>
<g id="a_node1"><a xlink:title=" ">
<polygon fill="#bfbfbf" stroke="#000000" points="582.7905,-65.5 582.7905,-83.5 701.6079,-83.5 701.6079,-65.5 582.7905,-65.5"/>
<text text-anchor="middle" x="642.1992" y="-71.5" font-family="Helvetica,sans-Serif" font-size="10.00" fill="#000000">src/cgns/Iocgns_Utils.h</text>
</a>
</g>
</g>
<!-- Node51 -->
<g id="node2" class="node">
<title>Node51</title>
<g id="a_node2"><a xlink:href="Iocgns__DatabaseIO_8C.html" target="_top" xlink:title=" ">
<polygon fill="#ffffff" stroke="#000000" points="0,-5.5 0,-23.5 154.3984,-23.5 154.3984,-5.5 0,-5.5"/>
<text text-anchor="middle" x="77.1992" y="-11.5" font-family="Helvetica,sans-Serif" font-size="10.00" fill="#000000">src/cgns/Iocgns_DatabaseIO.C</text>
</a>
</g>
</g>
<!-- Node50&#45;&gt;Node51 -->
<g id="edge1" class="edge">
<title>Node50&#45;&gt;Node51</title>
<path fill="none" stroke="#191970" d="M572.5051,-69.4688C479.1091,-62.3638 308.2852,-48.0965 163.1992,-29 151.49,-27.4588 138.9323,-25.5107 127.1302,-23.5467"/>
<polygon fill="#191970" stroke="#191970" points="572.4414,-72.9739 582.6767,-70.2376 572.969,-65.9938 572.4414,-72.9739"/>
</g>
<!-- Node52 -->
<g id="node3" class="node">
<title>Node52</title>
<g id="a_node3"><a xlink:href="Iocgns__DecompositionData_8C.html" target="_top" xlink:title=" ">
<polygon fill="#ffffff" stroke="#000000" points="172.6108,-.5 172.6108,-28.5 329.7876,-28.5 329.7876,-.5 172.6108,-.5"/>
<text text-anchor="start" x="180.6108" y="-16.5" font-family="Helvetica,sans-Serif" font-size="10.00" fill="#000000">src/cgns/Iocgns_Decomposition</text>
<text text-anchor="middle" x="251.1992" y="-6.5" font-family="Helvetica,sans-Serif" font-size="10.00" fill="#000000">Data.C</text>
</a>
</g>
</g>
<!-- Node50&#45;&gt;Node52 -->
<g id="edge2" class="edge">
<title>Node50&#45;&gt;Node52</title>
<path fill="none" stroke="#191970" d="M572.6853,-64.349C511.2434,-55.3081 419.2134,-41.5991 339.1992,-29 336.1402,-28.5183 333.022,-28.0234 329.8725,-27.5202"/>
<polygon fill="#191970" stroke="#191970" points="572.2523,-67.8228 582.655,-65.8145 573.2704,-60.8973 572.2523,-67.8228"/>
</g>
<!-- Node53 -->
<g id="node4" class="node">
<title>Node53</title>
<g id="a_node4"><a xlink:href="Iocgns__IOFactory_8C.html" target="_top" xlink:title=" ">
<polygon fill="#ffffff" stroke="#000000" points="348.1025,-5.5 348.1025,-23.5 492.2959,-23.5 492.2959,-5.5 348.1025,-5.5"/>
<text text-anchor="middle" x="420.1992" y="-11.5" font-family="Helvetica,sans-Serif" font-size="10.00" fill="#000000">src/cgns/Iocgns_IOFactory.C</text>
</a>
</g>
</g>
<!-- Node50&#45;&gt;Node53 -->
<g id="edge3" class="edge">
<title>Node50&#45;&gt;Node53</title>
<path fill="none" stroke="#191970" d="M598.6781,-62.7375C556.1026,-51.2306 492.1824,-33.9549 453.5062,-23.5019"/>
<polygon fill="#191970" stroke="#191970" points="597.9154,-66.1569 608.4822,-65.3873 599.7418,-59.3994 597.9154,-66.1569"/>
</g>
<!-- Node54 -->
<g id="node5" class="node">
<title>Node54</title>
<g id="a_node5"><a xlink:href="Iocgns__ParallelDatabaseIO_8C.html" target="_top" xlink:title=" ">
<polygon fill="#ffffff" stroke="#000000" points="510.0073,-.5 510.0073,-28.5 634.3911,-28.5 634.3911,-.5 510.0073,-.5"/>
<text text-anchor="start" x="518.0073" y="-16.5" font-family="Helvetica,sans-Serif" font-size="10.00" fill="#000000">src/cgns/Iocgns_Parallel</text>
<text text-anchor="middle" x="572.1992" y="-6.5" font-family="Helvetica,sans-Serif" font-size="10.00" fill="#000000">DatabaseIO.C</text>
</a>
</g>
</g>
<!-- Node50&#45;&gt;Node54 -->
<g id="edge4" class="edge">
<title>Node50&#45;&gt;Node54</title>
<path fill="none" stroke="#191970" d="M623.8743,-58.7929C612.9651,-49.4422 599.2354,-37.6739 588.6705,-28.6183"/>
<polygon fill="#191970" stroke="#191970" points="621.6974,-61.5367 631.5677,-65.3873 626.2529,-56.2219 621.6974,-61.5367"/>
</g>
<!-- Node55 -->
<g id="node6" class="node">
<title>Node55</title>
<g id="a_node6"><a xlink:href="Iocgns__Utils_8C.html" target="_top" xlink:title=" ">
<polygon fill="#ffffff" stroke="#000000" points="651.9604,-5.5 651.9604,-23.5 772.438,-23.5 772.438,-5.5 651.9604,-5.5"/>
<text text-anchor="middle" x="712.1992" y="-11.5" font-family="Helvetica,sans-Serif" font-size="10.00" fill="#000000">src/cgns/Iocgns_Utils.C</text>
</a>
</g>
</g>
<!-- Node50&#45;&gt;Node55 -->
<g id="edge5" class="edge">
<title>Node50&#45;&gt;Node55</title>
<path fill="none" stroke="#191970" d="M660.7009,-58.6414C673.7004,-47.4989 690.6372,-32.9817 701.4677,-23.6985"/>
<polygon fill="#191970" stroke="#191970" points="658.1455,-56.2219 652.8307,-65.3873 662.7011,-61.5368 658.1455,-56.2219"/>
</g>
<!-- Node56 -->
<g id="node7" class="node">
<title>Node56</title>
<g id="a_node7"><a xlink:href="cgns__decomp_8C.html" target="_top" xlink:title=" ">
<polygon fill="#ffffff" stroke="#000000" points="790.7881,-5.5 790.7881,-23.5 919.6104,-23.5 919.6104,-5.5 790.7881,-5.5"/>
<text text-anchor="middle" x="855.1992" y="-11.5" font-family="Helvetica,sans-Serif" font-size="10.00" fill="#000000">src/main/cgns_decomp.C</text>
</a>
</g>
</g>
<!-- Node50&#45;&gt;Node56 -->
<g id="edge6" class="edge">
<title>Node50&#45;&gt;Node56</title>
<path fill="none" stroke="#191970" d="M684.2148,-62.6646C725.0641,-51.1578 786.2125,-33.9329 823.2426,-23.5019"/>
<polygon fill="#191970" stroke="#191970" points="683.2257,-59.3069 674.5493,-65.3873 685.1238,-66.0447 683.2257,-59.3069"/>
</g>
<!-- Node57 -->
<g id="node8" class="node">
<title>Node57</title>
<g id="a_node8"><a xlink:href="struc__to__unstruc_8C.html" target="_top" xlink:title=" ">
<polygon fill="#ffffff" stroke="#000000" points="937.9556,-5.5 937.9556,-23.5 1078.4429,-23.5 1078.4429,-5.5 937.9556,-5.5"/>
<text text-anchor="middle" x="1008.1992" y="-11.5" font-family="Helvetica,sans-Serif" font-size="10.00" fill="#000000">src/main/struc_to_unstruc.C</text>
</a>
</g>
</g>
<!-- Node50&#45;&gt;Node57 -->
<g id="edge7" class="edge">
<title>Node50&#45;&gt;Node57</title>
<path fill="none" stroke="#191970" d="M711.5591,-63.8933C769.5206,-54.927 854.3224,-41.5701 928.1992,-29 938.2182,-27.2953 948.9296,-25.4025 959.1514,-23.5623"/>
<polygon fill="#191970" stroke="#191970" points="710.7659,-60.4742 701.4173,-65.4597 711.8344,-67.3922 710.7659,-60.4742"/>
</g>
<!-- Node58 -->
<g id="node9" class="node">
<title>Node58</title>
<g id="a_node9"><a xlink:href="Utst__structured__decomp_8C.html" target="_top" xlink:title=" ">
<polygon fill="#ffffff" stroke="#000000" points="1096.0146,-.5 1096.0146,-28.5 1220.3838,-28.5 1220.3838,-.5 1096.0146,-.5"/>
<text text-anchor="start" x="1104.0146" y="-16.5" font-family="Helvetica,sans-Serif" font-size="10.00" fill="#000000">src/utest/Utst_structured</text>
<text text-anchor="middle" x="1158.1992" y="-6.5" font-family="Helvetica,sans-Serif" font-size="10.00" fill="#000000">_decomp.C</text>
</a>
</g>
</g>
<!-- Node50&#45;&gt;Node58 -->
<g id="edge8" class="edge">
<title>Node50&#45;&gt;Node58</title>
<path fill="none" stroke="#191970" d="M711.9311,-69.5304C799.7716,-62.7749 955.2024,-49.1754 1087.1992,-29 1090.0596,-28.5628 1092.9791,-28.0871 1095.924,-27.5834"/>
<polygon fill="#191970" stroke="#191970" points="711.526,-66.0511 701.8208,-70.3007 712.0578,-73.0308 711.526,-66.0511"/>
</g>
</g>
</svg>
