<?xml version="1.0" encoding="UTF-8" standalone="no"?>
<!DOCTYPE svg PUBLIC "-//W3C//DTD SVG 1.1//EN"
 "http://www.w3.org/Graphics/SVG/1.1/DTD/svg11.dtd">
<!-- Generated by graphviz version 2.44.1 (20200629.0846)
 -->
<!-- Title: src/cgns/Iocgns_DecompositionData.h Pages: 1 -->
<svg width="308pt" height="173pt"
 viewBox="0.00 0.00 307.50 173.00" xmlns="http://www.w3.org/2000/svg" xmlns:xlink="http://www.w3.org/1999/xlink">
<g id="graph0" class="graph" transform="scale(1 1) rotate(0) translate(4 169)">
<title>src/cgns/Iocgns_DecompositionData.h</title>
<polygon fill="white" stroke="transparent" points="-4,4 -4,-169 303.5,-169 303.5,4 -4,4"/>
<!-- Node1 -->
<g id="node1" class="node">
<title>Node1</title>
<g id="a_node1"><a xlink:title=" ">
<polygon fill="#bfbfbf" stroke="black" points="79,-134.5 79,-164.5 236,-164.5 236,-134.5 79,-134.5"/>
<text text-anchor="start" x="87" y="-152.5" font-family="Helvetica,sans-Serif" font-size="10.00">src/cgns/Iocgns_Decomposition</text>
<text text-anchor="middle" x="157.5" y="-141.5" font-family="Helvetica,sans-Serif" font-size="10.00">Data.h</text>
</a>
</g>
</g>
<!-- Node2 -->
<g id="node2" class="node">
<title>Node2</title>
<g id="a_node2"><a xlink:href="$Iocgns__DecompositionData_8C.html" xlink:title=" ">
<polygon fill="white" stroke="black" points="0,-67.5 0,-97.5 157,-97.5 157,-67.5 0,-67.5"/>
<text text-anchor="start" x="8" y="-85.5" font-family="Helvetica,sans-Serif" font-size="10.00">src/cgns/Iocgns_Decomposition</text>
<text text-anchor="middle" x="78.5" y="-74.5" font-family="Helvetica,sans-Serif" font-size="10.00">Data.C</text>
</a>
</g>
</g>
<!-- Node1&#45;&gt;Node2 -->
<g id="edge1" class="edge">
<title>Node1&#45;&gt;Node2</title>
<path fill="none" stroke="midnightblue" d="M132.44,-127.88C120.44,-118.01 106.37,-106.43 95.61,-97.58"/>
<polygon fill="midnightblue" stroke="midnightblue" points="130.41,-130.75 140.36,-134.4 134.86,-125.34 130.41,-130.75"/>
</g>
<!-- Node3 -->
<g id="node3" class="node">
<title>Node3</title>
<g id="a_node3"><a xlink:href="$Iocgns__ParallelDatabaseIO_8h.html" xlink:title=" ">
<polygon fill="white" stroke="black" points="175.5,-67.5 175.5,-97.5 299.5,-97.5 299.5,-67.5 175.5,-67.5"/>
<text text-anchor="start" x="183.5" y="-85.5" font-family="Helvetica,sans-Serif" font-size="10.00">src/cgns/Iocgns_Parallel</text>
<text text-anchor="middle" x="237.5" y="-74.5" font-family="Helvetica,sans-Serif" font-size="10.00">DatabaseIO.h</text>
</a>
</g>
</g>
<!-- Node1&#45;&gt;Node3 -->
<g id="edge2" class="edge">
<title>Node1&#45;&gt;Node3</title>
<path fill="none" stroke="midnightblue" d="M182.87,-127.88C195.03,-118.01 209.28,-106.43 220.18,-97.58"/>
<polygon fill="midnightblue" stroke="midnightblue" points="180.41,-125.37 174.86,-134.4 184.83,-130.81 180.41,-125.37"/>
</g>
<!-- Node4 -->
<g id="node4" class="node">
<title>Node4</title>
<g id="a_node4"><a xlink:href="$Iocgns__ParallelDatabaseIO_8C.html" xlink:title=" ">
<polygon fill="white" stroke="black" points="175.5,-0.5 175.5,-30.5 299.5,-30.5 299.5,-0.5 175.5,-0.5"/>
<text text-anchor="start" x="183.5" y="-18.5" font-family="Helvetica,sans-Serif" font-size="10.00">src/cgns/Iocgns_Parallel</text>
<text text-anchor="middle" x="237.5" y="-7.5" font-family="Helvetica,sans-Serif" font-size="10.00">DatabaseIO.C</text>
</a>
</g>
</g>
<!-- Node3&#45;&gt;Node4 -->
<g id="edge3" class="edge">
<title>Node3&#45;&gt;Node4</title>
<path fill="none" stroke="midnightblue" d="M237.5,-57.11C237.5,-48.15 237.5,-38.32 237.5,-30.58"/>
<polygon fill="midnightblue" stroke="midnightblue" points="234,-57.4 237.5,-67.4 241,-57.4 234,-57.4"/>
</g>
</g>
</svg>
