<?xml version="1.0" encoding="UTF-8" standalone="no"?>
<!DOCTYPE svg PUBLIC "-//W3C//DTD SVG 1.1//EN"
 "http://www.w3.org/Graphics/SVG/1.1/DTD/svg11.dtd">
<!-- Generated by graphviz version 2.40.1 (20161225.0304)
 -->
<!-- Title: src/cgns/Iocgns_DecompositionData.h Pages: 1 -->
<!--zoomable 652 -->
<svg id="main" version="1.1" xmlns="http://www.w3.org/2000/svg" xmlns:xlink="http://www.w3.org/1999/xlink" xml:space="preserve" onload="init(evt)">
<style type="text/css"><![CDATA[
.edge:hover path { stroke: red; }
.edge:hover polygon { stroke: red; fill: red; }
]]></style>
<script type="text/javascript"><![CDATA[
var edges = document.getElementsByTagName('g');
if (edges && edges.length) {
  for (var i=0;i<edges.length;i++) {
    if (edges[i].id.substr(0,4)=='edge') {
      edges[i].setAttribute('class','edge');
    }
  }
}
]]></script>
        <defs>
                <circle id="rim" cx="0" cy="0" r="7"/>
                <circle id="rim2" cx="0" cy="0" r="3.5"/>
                <g id="zoomPlus">
                        <use xlink:href="#rim" fill="#404040">
                                <set attributeName="fill" to="#808080" begin="zoomplus.mouseover" end="zoomplus.mouseout"/>
                        </use>
                        <path d="M-4,0h8M0,-4v8" fill="none" stroke="white" stroke-width="1.5" pointer-events="none"/>
                </g>
                <g id="zoomMin">
                        <use xlink:href="#rim" fill="#404040">
                                <set attributeName="fill" to="#808080" begin="zoomminus.mouseover" end="zoomminus.mouseout"/>
                        </use>
                        <path d="M-4,0h8" fill="none" stroke="white" stroke-width="1.5" pointer-events="none"/>
                </g>
                <g id="dirArrow">
                        <path fill="none" stroke="white" stroke-width="1.5" d="M0,-3.0v7 M-2.5,-0.5L0,-3.0L2.5,-0.5"/>
                </g>
               <g id="resetDef">
                       <use xlink:href="#rim2" fill="#404040">
                               <set attributeName="fill" to="#808080" begin="reset.mouseover" end="reset.mouseout"/>
                       </use>
               </g>
        </defs>

<script type="text/javascript">
var viewWidth = 3249;
var viewHeight = 652;
var sectionId = 'dynsection-0';
</script>
<script xlink:href="svgpan.js"/>
<svg id="graph" class="graph">
<g id="viewport">
<title>src/cgns/Iocgns_DecompositionData.h</title>
<polygon fill="#ffffff" stroke="transparent" points="-4,4 -4,-648 3244.7339,-648 3244.7339,4 -4,4"/>
<!-- Node0 -->
<g id="node1" class="node">
<title>Node0</title>
<g id="a_node1"><a xlink:title=" ">
<polygon fill="#bfbfbf" stroke="#000000" points="650.4116,-615.5 650.4116,-643.5 807.5884,-643.5 807.5884,-615.5 650.4116,-615.5"/>
<text text-anchor="start" x="658.4116" y="-631.5" font-family="Helvetica,sans-Serif" font-size="10.00" fill="#000000">src/cgns/Iocgns_Decomposition</text>
<text text-anchor="middle" x="729" y="-621.5" font-family="Helvetica,sans-Serif" font-size="10.00" fill="#000000">Data.h</text>
</a>
</g>
</g>
<!-- Node1 -->
<g id="node2" class="node">
<title>Node1</title>
<g id="a_node2"><a xlink:title=" ">
<polygon fill="#ffffff" stroke="#bfbfbf" points="2068.7734,-.5 2068.7734,-18.5 2109.2266,-18.5 2109.2266,-.5 2068.7734,-.5"/>
<text text-anchor="middle" x="2089" y="-6.5" font-family="Helvetica,sans-Serif" font-size="10.00" fill="#000000">string</text>
</a>
</g>
</g>
<!-- Node0&#45;&gt;Node1 -->
<g id="edge1" class="edge">
<title>Node0&#45;&gt;Node1</title>
<path fill="none" stroke="#191970" d="M807.8388,-627.4838C1221.1419,-616.6614 3119,-563.7409 3119,-504.5 3119,-504.5 3119,-504.5 3119,-284.5 3119,-166.1982 3022.3813,-165.6763 2918,-110 2861.923,-80.0889 2847.8821,-69.4886 2786,-55 2656.3321,-24.6406 2236.0861,-12.8828 2119.3353,-10.1555"/>
<polygon fill="#191970" stroke="#191970" points="2119.3838,-6.6558 2109.3064,-9.9262 2119.2237,-13.6539 2119.3838,-6.6558"/>
</g>
<!-- Node2 -->
<g id="node3" class="node">
<title>Node2</title>
<g id="a_node3"><a xlink:title=" ">
<polygon fill="#ffffff" stroke="#bfbfbf" points="434.6973,-165.5 434.6973,-183.5 521.3027,-183.5 521.3027,-165.5 434.6973,-165.5"/>
<text text-anchor="middle" x="478" y="-171.5" font-family="Helvetica,sans-Serif" font-size="10.00" fill="#000000">unordered_map</text>
</a>
</g>
</g>
<!-- Node0&#45;&gt;Node2 -->
<g id="edge2" class="edge">
<title>Node0&#45;&gt;Node2</title>
<path fill="none" stroke="#191970" d="M664.9396,-615.4555C609.7805,-599.1446 539,-566.1947 539,-504.5 539,-504.5 539,-504.5 539,-394.5 539,-341.387 554.4933,-326.0973 540,-275 530.8241,-242.6497 507.9544,-210.4971 492.7055,-191.5693"/>
<polygon fill="#191970" stroke="#191970" points="495.1951,-189.0883 486.1186,-183.6232 489.806,-193.5557 495.1951,-189.0883"/>
</g>
<!-- Node3 -->
<g id="node4" class="node">
<title>Node3</title>
<g id="a_node4"><a xlink:title=" ">
<polygon fill="#ffffff" stroke="#bfbfbf" points="349.3843,-.5 349.3843,-18.5 392.6157,-18.5 392.6157,-.5 349.3843,-.5"/>
<text text-anchor="middle" x="371" y="-6.5" font-family="Helvetica,sans-Serif" font-size="10.00" fill="#000000">vector</text>
</a>
</g>
</g>
<!-- Node0&#45;&gt;Node3 -->
<g id="edge3" class="edge">
<title>Node0&#45;&gt;Node3</title>
<path fill="none" stroke="#191970" d="M650.3929,-628.4531C510.4688,-625.668 224.2279,-615.5471 132,-579 82.4414,-559.3614 38,-557.8079 38,-504.5 38,-504.5 38,-504.5 38,-119.5 38,-56.5054 255.5755,-23.4785 338.9856,-13.1318"/>
<polygon fill="#191970" stroke="#191970" points="339.644,-16.5777 349.1509,-11.9013 338.8028,-9.6284 339.644,-16.5777"/>
</g>
<!-- Node4 -->
<g id="node5" class="node">
<title>Node4</title>
<g id="a_node5"><a xlink:title=" ">
<polygon fill="#ffffff" stroke="#bfbfbf" points="1374.8794,-.5 1374.8794,-18.5 1423.1206,-18.5 1423.1206,-.5 1374.8794,-.5"/>
<text text-anchor="middle" x="1399" y="-6.5" font-family="Helvetica,sans-Serif" font-size="10.00" fill="#000000">cstddef</text>
</a>
</g>
</g>
<!-- Node0&#45;&gt;Node4 -->
<g id="edge4" class="edge">
<title>Node0&#45;&gt;Node4</title>
<path fill="none" stroke="#191970" d="M702.2721,-615.4839C668.5771,-595.6646 615,-556.0462 615,-504.5 615,-504.5 615,-504.5 615,-394.5 615,-331.7951 581.76,-321.7761 540,-275 496.8251,-226.6389 454.1147,-242.416 426,-184 422.3379,-176.391 420.9171,-171.7434 426,-165 479.4298,-94.1158 531.6246,-130.4595 618,-110 746.5041,-79.5615 779.2226,-73.3597 910,-55 1079.8957,-31.1485 1284.8173,-16.6819 1364.7434,-11.5824"/>
<polygon fill="#191970" stroke="#191970" points="1364.9787,-15.0746 1374.7386,-10.9522 1364.5381,-8.0885 1364.9787,-15.0746"/>
</g>
<!-- Node5 -->
<g id="node6" class="node">
<title>Node5</title>
<g id="a_node6"><a xlink:title=" ">
<polygon fill="#ffffff" stroke="#bfbfbf" points="2906.5493,-.5 2906.5493,-18.5 2951.4507,-18.5 2951.4507,-.5 2906.5493,-.5"/>
<text text-anchor="middle" x="2929" y="-6.5" font-family="Helvetica,sans-Serif" font-size="10.00" fill="#000000">cstdint</text>
</a>
</g>
</g>
<!-- Node0&#45;&gt;Node5 -->
<g id="edge5" class="edge">
<title>Node0&#45;&gt;Node5</title>
<path fill="none" stroke="#191970" d="M807.5996,-628.1654C1109.3624,-622.9081 2193.9026,-602.7494 2538,-579 2676.2194,-569.4602 3157,-643.0482 3157,-504.5 3157,-504.5 3157,-504.5 3157,-119.5 3157,-76.6194 3024.5253,-35.1973 2961.5343,-17.9251"/>
<polygon fill="#191970" stroke="#191970" points="2962.2617,-14.4962 2951.6951,-15.2689 2960.4372,-21.2543 2962.2617,-14.4962"/>
</g>
<!-- Node6 -->
<g id="node7" class="node">
<title>Node6</title>
<g id="a_node7"><a xlink:href="Ioss__CodeTypes_8h.html" target="_top" xlink:title=" ">
<polygon fill="#ffffff" stroke="#000000" points="918.584,-55.5 918.584,-73.5 1017.416,-73.5 1017.416,-55.5 918.584,-55.5"/>
<text text-anchor="middle" x="968" y="-61.5" font-family="Helvetica,sans-Serif" font-size="10.00" fill="#000000">Ioss_CodeTypes.h</text>
</a>
</g>
</g>
<!-- Node0&#45;&gt;Node6 -->
<g id="edge6" class="edge">
<title>Node0&#45;&gt;Node6</title>
<path fill="none" stroke="#191970" d="M650.1993,-625.2672C532.6988,-618.2839 317.518,-602.7177 244,-579 180.6235,-558.5541 114,-571.0929 114,-504.5 114,-504.5 114,-504.5 114,-339.5 114,-236.6476 170.5874,-203.4064 266,-165 349.5344,-131.3749 372.4426,-126.3167 461,-110 620.9556,-80.5281 812.9622,-69.9156 908.2627,-66.2781"/>
<polygon fill="#191970" stroke="#191970" points="908.4249,-69.7746 918.2888,-65.9077 908.1664,-62.7794 908.4249,-69.7746"/>
</g>
<!-- Node10 -->
<g id="node11" class="node">
<title>Node10</title>
<g id="a_node11"><a xlink:href="Ioss__Decomposition_8h.html" target="_top" xlink:title=" ">
<polygon fill="#ffffff" stroke="#000000" points="416.8081,-275.5 416.8081,-293.5 531.1919,-293.5 531.1919,-275.5 416.8081,-275.5"/>
<text text-anchor="middle" x="474" y="-281.5" font-family="Helvetica,sans-Serif" font-size="10.00" fill="#000000">Ioss_Decomposition.h</text>
</a>
</g>
</g>
<!-- Node0&#45;&gt;Node10 -->
<g id="edge14" class="edge">
<title>Node0&#45;&gt;Node10</title>
<path fill="none" stroke="#191970" d="M650.3459,-621.8187C610.4256,-615.1066 562.5661,-602.5361 525,-579 488.4955,-556.1291 463,-547.5773 463,-504.5 463,-504.5 463,-504.5 463,-394.5 463,-362.4666 467.6758,-325.4451 470.9304,-303.5563"/>
<polygon fill="#191970" stroke="#191970" points="474.4013,-304.0133 472.4705,-293.5959 467.4835,-302.9436 474.4013,-304.0133"/>
</g>
<!-- Node15 -->
<g id="node16" class="node">
<title>Node15</title>
<g id="a_node16"><a xlink:href="Ioss__Field_8h.html" target="_top" xlink:title=" ">
<polygon fill="#ffffff" stroke="#000000" points="1263.042,-110.5 1263.042,-128.5 1332.958,-128.5 1332.958,-110.5 1263.042,-110.5"/>
<text text-anchor="middle" x="1298" y="-116.5" font-family="Helvetica,sans-Serif" font-size="10.00" fill="#000000">Ioss_Field.h</text>
</a>
</g>
</g>
<!-- Node0&#45;&gt;Node15 -->
<g id="edge62" class="edge">
<title>Node0&#45;&gt;Node15</title>
<path fill="none" stroke="#191970" d="M727.0567,-615.371C723.214,-582.0349 717.8164,-497.0038 753,-440 822.1458,-327.9714 886.2642,-342.9868 999,-275 1087.2089,-221.8045 1111.1895,-211.7054 1203,-165 1224.9302,-153.8438 1250.0502,-141.846 1268.9493,-132.973"/>
<polygon fill="#191970" stroke="#191970" points="1270.6402,-136.0461 1278.2154,-128.6388 1267.6743,-129.7054 1270.6402,-136.0461"/>
</g>
<!-- Node22 -->
<g id="node23" class="node">
<title>Node22</title>
<g id="a_node23"><a xlink:href="Ioss__PropertyManager_8h.html" target="_top" xlink:title=" ">
<polygon fill="#ffffff" stroke="#000000" points="690.5225,-220.5 690.5225,-238.5 815.4775,-238.5 815.4775,-220.5 690.5225,-220.5"/>
<text text-anchor="middle" x="753" y="-226.5" font-family="Helvetica,sans-Serif" font-size="10.00" fill="#000000">Ioss_PropertyManager.h</text>
</a>
</g>
</g>
<!-- Node0&#45;&gt;Node22 -->
<g id="edge64" class="edge">
<title>Node0&#45;&gt;Node22</title>
<path fill="none" stroke="#191970" d="M736.3268,-615.3026C747.3691,-592.5511 767,-546.2349 767,-504.5 767,-504.5 767,-504.5 767,-339.5 767,-307.3684 761.049,-270.3768 756.9068,-248.5207"/>
<polygon fill="#191970" stroke="#191970" points="760.3146,-247.7112 754.9466,-238.5769 753.4468,-249.065 760.3146,-247.7112"/>
</g>
<!-- Node27 -->
<g id="node28" class="node">
<title>Node27</title>
<g id="a_node28"><a xlink:title=" ">
<polygon fill="#ffffff" stroke="#bfbfbf" points="179.6455,-220.5 179.6455,-238.5 252.3545,-238.5 252.3545,-220.5 179.6455,-220.5"/>
<text text-anchor="middle" x="216" y="-226.5" font-family="Helvetica,sans-Serif" font-size="10.00" fill="#000000">zoltan_cpp.h</text>
</a>
</g>
</g>
<!-- Node0&#45;&gt;Node27 -->
<g id="edge141" class="edge">
<title>Node0&#45;&gt;Node27</title>
<path fill="none" stroke="#191970" d="M650.2818,-620.5776C492.3873,-601.6122 152,-554.8838 152,-504.5 152,-504.5 152,-504.5 152,-339.5 152,-302.2158 179.8091,-266.2886 198.765,-246.13"/>
<polygon fill="#191970" stroke="#191970" points="201.5094,-248.3297 206,-238.7335 196.5053,-243.4348 201.5094,-248.3297"/>
</g>
<!-- Node28 -->
<g id="node29" class="node">
<title>Node28</title>
<g id="a_node29"><a xlink:href="Ioss__MeshType_8h.html" target="_top" xlink:title=" ">
<polygon fill="#ffffff" stroke="#000000" points="1033.8105,-555.5 1033.8105,-573.5 1128.1895,-573.5 1128.1895,-555.5 1033.8105,-555.5"/>
<text text-anchor="middle" x="1081" y="-561.5" font-family="Helvetica,sans-Serif" font-size="10.00" fill="#000000">Ioss_MeshType.h</text>
</a>
</g>
</g>
<!-- Node0&#45;&gt;Node28 -->
<g id="edge63" class="edge">
<title>Node0&#45;&gt;Node28</title>
<path fill="none" stroke="#191970" d="M807.8705,-617.8985C867.7039,-608.6493 951.8532,-594.6804 1025,-579 1029.1979,-578.1001 1033.5555,-577.0964 1037.9022,-576.0486"/>
<polygon fill="#191970" stroke="#191970" points="1039.0847,-579.3613 1047.945,-573.5521 1037.3959,-572.5681 1039.0847,-579.3613"/>
</g>
<!-- Node29 -->
<g id="node30" class="node">
<title>Node29</title>
<g id="a_node30"><a xlink:href="Ioss__StructuredBlock_8h.html" target="_top" xlink:title=" ">
<polygon fill="#ffffff" stroke="#000000" points="884.5864,-495.5 884.5864,-513.5 1003.4136,-513.5 1003.4136,-495.5 884.5864,-495.5"/>
<text text-anchor="middle" x="944" y="-501.5" font-family="Helvetica,sans-Serif" font-size="10.00" fill="#000000">Ioss_StructuredBlock.h</text>
</a>
</g>
</g>
<!-- Node0&#45;&gt;Node29 -->
<g id="edge65" class="edge">
<title>Node0&#45;&gt;Node29</title>
<path fill="none" stroke="#191970" d="M752.6219,-615.2564C779.3148,-599.2147 824.1136,-572.453 863,-550 881.5655,-539.2803 902.6874,-527.4267 918.7066,-518.5062"/>
<polygon fill="#191970" stroke="#191970" points="920.4508,-521.5412 927.491,-513.6237 917.05,-515.4228 920.4508,-521.5412"/>
</g>
<!-- Node46 -->
<g id="node47" class="node">
<title>Node46</title>
<g id="a_node47"><a xlink:href="Iocgns__StructuredZoneData_8h.html" target="_top" xlink:title=" ">
<polygon fill="#ffffff" stroke="#000000" points="872.0742,-550.5 872.0742,-578.5 1015.9258,-578.5 1015.9258,-550.5 872.0742,-550.5"/>
<text text-anchor="start" x="880.0742" y="-566.5" font-family="Helvetica,sans-Serif" font-size="10.00" fill="#000000">cgns/Iocgns_StructuredZone</text>
<text text-anchor="middle" x="944" y="-556.5" font-family="Helvetica,sans-Serif" font-size="10.00" fill="#000000">Data.h</text>
</a>
</g>
</g>
<!-- Node0&#45;&gt;Node46 -->
<g id="edge134" class="edge">
<title>Node0&#45;&gt;Node46</title>
<path fill="none" stroke="#191970" d="M775.3871,-615.476C808.3355,-605.5149 852.7532,-592.0862 887.7284,-581.5123"/>
<polygon fill="#191970" stroke="#191970" points="888.7662,-584.8551 897.3254,-578.6109 886.7404,-578.1546 888.7662,-584.8551"/>
</g>
<!-- Node47 -->
<g id="node48" class="node">
<title>Node47</title>
<g id="a_node48"><a xlink:title=" ">
<polygon fill="#ffffff" stroke="#bfbfbf" points="3185.2661,-555.5 3185.2661,-573.5 3240.7339,-573.5 3240.7339,-555.5 3185.2661,-555.5"/>
<text text-anchor="middle" x="3213" y="-561.5" font-family="Helvetica,sans-Serif" font-size="10.00" fill="#000000">cgnslib.h</text>
</a>
</g>
</g>
<!-- Node0&#45;&gt;Node47 -->
<g id="edge140" class="edge">
<title>Node0&#45;&gt;Node47</title>
<path fill="none" stroke="#191970" d="M807.762,-629.3272C1200.1223,-628.271 2934.2887,-621.2315 3171,-579 3174.2654,-578.4174 3177.6189,-577.6214 3180.9386,-576.7002"/>
<polygon fill="#191970" stroke="#191970" points="3182.1793,-579.9793 3190.675,-573.6488 3180.0859,-573.2997 3182.1793,-579.9793"/>
</g>
<!-- Node6&#45;&gt;Node1 -->
<g id="edge10" class="edge">
<title>Node6&#45;&gt;Node1</title>
<path fill="none" stroke="#191970" d="M1017.6144,-62.0658C1210.0286,-52.6253 1903.9074,-18.5813 2058.3784,-11.0024"/>
<polygon fill="#191970" stroke="#191970" points="2058.7374,-14.4891 2068.5539,-10.5032 2058.3943,-7.4975 2058.7374,-14.4891"/>
</g>
<!-- Node6&#45;&gt;Node3 -->
<g id="edge11" class="edge">
<title>Node6&#45;&gt;Node3</title>
<path fill="none" stroke="#191970" d="M918.3823,-59.9289C799.5829,-48.9842 501.392,-21.5127 403.0316,-12.451"/>
<polygon fill="#191970" stroke="#191970" points="403.1112,-8.9436 392.8323,-11.5113 402.469,-15.9141 403.1112,-8.9436"/>
</g>
<!-- Node6&#45;&gt;Node4 -->
<g id="edge8" class="edge">
<title>Node6&#45;&gt;Node4</title>
<path fill="none" stroke="#191970" d="M1017.4412,-58.1908C1105.7144,-46.9262 1288.3095,-23.6252 1364.4665,-13.9068"/>
<polygon fill="#191970" stroke="#191970" points="1365.0087,-17.3661 1374.4852,-12.6283 1364.1226,-10.4224 1365.0087,-17.3661"/>
</g>
<!-- Node6&#45;&gt;Node5 -->
<g id="edge9" class="edge">
<title>Node6&#45;&gt;Node5</title>
<path fill="none" stroke="#191970" d="M1017.4552,-63.1129C1296.2371,-55.294 2667.1292,-16.8447 2896.4373,-10.4133"/>
<polygon fill="#191970" stroke="#191970" points="2896.5871,-13.9106 2906.485,-10.1315 2896.3907,-6.9133 2896.5871,-13.9106"/>
</g>
<!-- Node7 -->
<g id="node8" class="node">
<title>Node7</title>
<g id="a_node8"><a xlink:title=" ">
<polygon fill="#ffffff" stroke="#bfbfbf" points="56.6084,-.5 56.6084,-18.5 95.3916,-18.5 95.3916,-.5 56.6084,-.5"/>
<text text-anchor="middle" x="76" y="-6.5" font-family="Helvetica,sans-Serif" font-size="10.00" fill="#000000">array</text>
</a>
</g>
</g>
<!-- Node6&#45;&gt;Node7 -->
<g id="edge7" class="edge">
<title>Node6&#45;&gt;Node7</title>
<path fill="none" stroke="#191970" d="M918.4517,-61.4449C755.009,-51.3671 235.9727,-19.3638 105.8216,-11.3388"/>
<polygon fill="#191970" stroke="#191970" points="105.6475,-7.8215 95.451,-10.6993 105.2167,-14.8082 105.6475,-7.8215"/>
</g>
<!-- Node8 -->
<g id="node9" class="node">
<title>Node8</title>
<g id="a_node9"><a xlink:title=" ">
<polygon fill="#ffffff" stroke="#bfbfbf" points="961.2515,-.5 961.2515,-18.5 1076.7485,-18.5 1076.7485,-.5 961.2515,-.5"/>
<text text-anchor="middle" x="1019" y="-6.5" font-family="Helvetica,sans-Serif" font-size="10.00" fill="#000000">SEACASIoss_config.h</text>
</a>
</g>
</g>
<!-- Node6&#45;&gt;Node8 -->
<g id="edge12" class="edge">
<title>Node6&#45;&gt;Node8</title>
<path fill="none" stroke="#191970" d="M976.4216,-55.4179C983.7598,-47.5041 994.5902,-35.8243 1003.4913,-26.2251"/>
<polygon fill="#191970" stroke="#191970" points="1006.1624,-28.492 1010.3954,-18.7795 1001.0295,-23.7324 1006.1624,-28.492"/>
</g>
<!-- Node9 -->
<g id="node10" class="node">
<title>Node9</title>
<g id="a_node10"><a xlink:title=" ">
<polygon fill="#ffffff" stroke="#bfbfbf" points="890.3818,-.5 890.3818,-18.5 943.6182,-18.5 943.6182,-.5 890.3818,-.5"/>
<text text-anchor="middle" x="917" y="-6.5" font-family="Helvetica,sans-Serif" font-size="10.00" fill="#000000">complex</text>
</a>
</g>
</g>
<!-- Node6&#45;&gt;Node9 -->
<g id="edge13" class="edge">
<title>Node6&#45;&gt;Node9</title>
<path fill="none" stroke="#191970" d="M959.5784,-55.4179C952.2402,-47.5041 941.4098,-35.8243 932.5087,-26.2251"/>
<polygon fill="#191970" stroke="#191970" points="934.9705,-23.7324 925.6046,-18.7795 929.8376,-28.492 934.9705,-23.7324"/>
</g>
<!-- Node10&#45;&gt;Node1 -->
<g id="edge58" class="edge">
<title>Node10&#45;&gt;Node1</title>
<path fill="none" stroke="#191970" d="M531.4633,-283.8136C740.1873,-281.091 1457.8657,-269.6665 1685,-239 1784.8808,-225.5146 2063.609,-208.9323 2125,-129 2148.7441,-98.0848 2121.3361,-51.604 2102.9447,-26.7034"/>
<polygon fill="#191970" stroke="#191970" points="2105.5613,-24.3645 2096.6883,-18.5747 2100.014,-28.634 2105.5613,-24.3645"/>
</g>
<!-- Node10&#45;&gt;Node3 -->
<g id="edge59" class="edge">
<title>Node10&#45;&gt;Node3</title>
<path fill="none" stroke="#191970" d="M420.0273,-275.4747C375.8021,-267.1862 317.5942,-253.9485 299,-239 256.244,-204.627 255.7975,-182.3461 243,-129 235.3278,-97.0185 224.0344,-81.8698 243,-55 254.3391,-38.9351 305.2141,-24.4938 339.3093,-16.377"/>
<polygon fill="#191970" stroke="#191970" points="340.3367,-19.7318 349.2895,-14.0662 338.7577,-12.9122 340.3367,-19.7318"/>
</g>
<!-- Node10&#45;&gt;Node6 -->
<g id="edge15" class="edge">
<title>Node10&#45;&gt;Node6</title>
<path fill="none" stroke="#191970" d="M471.5144,-275.2908C467.7878,-262.354 459.997,-238.3316 449,-220 434.5652,-195.9377 400.9914,-187.3174 418,-165 424.9851,-155.8347 606.7034,-112.2761 618,-110 719.0505,-89.6401 838.4326,-76.3905 908.4174,-69.6983"/>
<polygon fill="#191970" stroke="#191970" points="908.7496,-73.1826 918.3765,-68.7584 908.0918,-66.2136 908.7496,-73.1826"/>
</g>
<!-- Node11 -->
<g id="node12" class="node">
<title>Node11</title>
<g id="a_node12"><a xlink:href="Ioss__Map_8h.html" target="_top" xlink:title=" ">
<polygon fill="#ffffff" stroke="#000000" points="2048.1528,-110.5 2048.1528,-128.5 2115.8472,-128.5 2115.8472,-110.5 2048.1528,-110.5"/>
<text text-anchor="middle" x="2082" y="-116.5" font-family="Helvetica,sans-Serif" font-size="10.00" fill="#000000">Ioss_Map.h</text>
</a>
</g>
</g>
<!-- Node10&#45;&gt;Node11 -->
<g id="edge16" class="edge">
<title>Node10&#45;&gt;Node11</title>
<path fill="none" stroke="#191970" d="M531.204,-283.8492C732.4593,-281.3068 1407.2158,-270.5764 1621,-239 1782.2528,-215.1826 1968.5462,-157.1773 2045.6778,-131.7665"/>
<polygon fill="#191970" stroke="#191970" points="2047.003,-135.0146 2055.3946,-128.5469 2044.8013,-128.3698 2047.003,-135.0146"/>
</g>
<!-- Node13 -->
<g id="node14" class="node">
<title>Node13</title>
<g id="a_node14"><a xlink:href="Ioss__ParallelUtils_8h.html" target="_top" xlink:title=" ">
<polygon fill="#ffffff" stroke="#000000" points="947.4829,-220.5 947.4829,-238.5 1048.5171,-238.5 1048.5171,-220.5 947.4829,-220.5"/>
<text text-anchor="middle" x="998" y="-226.5" font-family="Helvetica,sans-Serif" font-size="10.00" fill="#000000">Ioss_ParallelUtils.h</text>
</a>
</g>
</g>
<!-- Node10&#45;&gt;Node13 -->
<g id="edge23" class="edge">
<title>Node10&#45;&gt;Node13</title>
<path fill="none" stroke="#191970" d="M531.3252,-278.483C630.9404,-268.0273 835.0896,-246.5994 937.1279,-235.8892"/>
<polygon fill="#191970" stroke="#191970" points="937.6913,-239.3494 947.2712,-234.8246 936.9605,-232.3877 937.6913,-239.3494"/>
</g>
<!-- Node16 -->
<g id="node17" class="node">
<title>Node16</title>
<g id="a_node17"><a xlink:title=" ">
<polygon fill="#ffffff" stroke="#bfbfbf" points="627.436,-110.5 627.436,-128.5 684.564,-128.5 684.564,-110.5 627.436,-110.5"/>
<text text-anchor="middle" x="656" y="-116.5" font-family="Helvetica,sans-Serif" font-size="10.00" fill="#000000">algorithm</text>
</a>
</g>
</g>
<!-- Node10&#45;&gt;Node16 -->
<g id="edge55" class="edge">
<title>Node10&#45;&gt;Node16</title>
<path fill="none" stroke="#191970" d="M478.4559,-275.0951C483.9973,-261.9257 491.6245,-237.6289 482,-220 467.8217,-194.0301 440.1783,-209.9699 426,-184 421.9535,-176.5882 420.6228,-171.5111 426,-165 452.9473,-132.3702 571.5573,-137.5655 613,-129 614.4506,-128.7002 615.928,-128.3913 617.4197,-128.0765"/>
<polygon fill="#191970" stroke="#191970" points="618.3002,-131.4673 627.3422,-125.9453 616.8301,-124.6234 618.3002,-131.4673"/>
</g>
<!-- Node10&#45;&gt;Node22 -->
<g id="edge46" class="edge">
<title>Node10&#45;&gt;Node22</title>
<path fill="none" stroke="#191970" d="M519.7588,-275.4795C568.3106,-265.9083 645.0589,-250.7787 697.1438,-240.5111"/>
<polygon fill="#191970" stroke="#191970" points="698.082,-243.8936 707.2163,-238.5255 696.7281,-237.0257 698.082,-243.8936"/>
</g>
<!-- Node24 -->
<g id="node25" class="node">
<title>Node24</title>
<g id="a_node25"><a xlink:title=" ">
<polygon fill="#ffffff" stroke="#bfbfbf" points="308.2144,-220.5 308.2144,-238.5 359.7856,-238.5 359.7856,-220.5 308.2144,-220.5"/>
<text text-anchor="middle" x="334" y="-226.5" font-family="Helvetica,sans-Serif" font-size="10.00" fill="#000000">assert.h</text>
</a>
</g>
</g>
<!-- Node10&#45;&gt;Node24 -->
<g id="edge56" class="edge">
<title>Node10&#45;&gt;Node24</title>
<path fill="none" stroke="#191970" d="M450.8818,-275.4179C427.8806,-266.3817 392.3807,-252.4353 366.538,-242.2828"/>
<polygon fill="#191970" stroke="#191970" points="367.7398,-238.9946 357.1525,-238.5956 365.1802,-245.5098 367.7398,-238.9946"/>
</g>
<!-- Node25 -->
<g id="node26" class="node">
<title>Node25</title>
<g id="a_node26"><a xlink:title=" ">
<polygon fill="#ffffff" stroke="#bfbfbf" points="1781.2734,-165.5 1781.2734,-183.5 1816.7266,-183.5 1816.7266,-165.5 1781.2734,-165.5"/>
<text text-anchor="middle" x="1799" y="-171.5" font-family="Helvetica,sans-Serif" font-size="10.00" fill="#000000">map</text>
</a>
</g>
</g>
<!-- Node10&#45;&gt;Node25 -->
<g id="edge57" class="edge">
<title>Node10&#45;&gt;Node25</title>
<path fill="none" stroke="#191970" d="M531.2427,-283.4105C744.1143,-279.187 1483.0804,-262.9329 1586,-239 1606.3506,-234.2677 1609.2721,-226.8815 1629,-220 1688.8493,-199.1233 1705.9424,-201.0221 1767,-184 1768.4305,-183.6012 1769.8952,-183.1871 1771.373,-182.7646"/>
<polygon fill="#191970" stroke="#191970" points="1772.4697,-186.0907 1781.0904,-179.9317 1770.5104,-179.3704 1772.4697,-186.0907"/>
</g>
<!-- Node26 -->
<g id="node27" class="node">
<title>Node26</title>
<g id="a_node27"><a xlink:title=" ">
<polygon fill="#ffffff" stroke="#bfbfbf" points="377.6577,-220.5 377.6577,-238.5 440.3423,-238.5 440.3423,-220.5 377.6577,-220.5"/>
<text text-anchor="middle" x="409" y="-226.5" font-family="Helvetica,sans-Serif" font-size="10.00" fill="#000000">parmetis.h</text>
</a>
</g>
</g>
<!-- Node10&#45;&gt;Node26 -->
<g id="edge60" class="edge">
<title>Node10&#45;&gt;Node26</title>
<path fill="none" stroke="#191970" d="M463.2666,-275.4179C453.6334,-267.2667 439.2783,-255.1201 427.7518,-245.3669"/>
<polygon fill="#191970" stroke="#191970" points="429.8613,-242.5671 419.9666,-238.7795 425.3397,-247.9108 429.8613,-242.5671"/>
</g>
<!-- Node10&#45;&gt;Node27 -->
<g id="edge61" class="edge">
<title>Node10&#45;&gt;Node27</title>
<path fill="none" stroke="#191970" d="M431.6854,-275.4795C385.1066,-265.5499 310.4641,-249.6377 262.3392,-239.3785"/>
<polygon fill="#191970" stroke="#191970" points="263.002,-235.9412 252.492,-237.2793 261.5425,-242.7874 263.002,-235.9412"/>
</g>
<!-- Node11&#45;&gt;Node1 -->
<g id="edge20" class="edge">
<title>Node11&#45;&gt;Node1</title>
<path fill="none" stroke="#191970" d="M2082.5728,-110.4982C2083.706,-92.6913 2086.2558,-52.6225 2087.7813,-28.6515"/>
<polygon fill="#191970" stroke="#191970" points="2091.277,-28.8283 2088.4192,-18.6261 2084.2911,-28.3836 2091.277,-28.8283"/>
</g>
<!-- Node11&#45;&gt;Node3 -->
<g id="edge22" class="edge">
<title>Node11&#45;&gt;Node3</title>
<path fill="none" stroke="#191970" d="M2047.978,-117.2375C1921.9649,-108.865 1469.8289,-78.8898 1097,-55 828.5686,-37.7997 504.2596,-17.7249 402.862,-11.4649"/>
<polygon fill="#191970" stroke="#191970" points="402.8761,-7.9592 392.6794,-10.8365 402.4448,-14.9459 402.8761,-7.9592"/>
</g>
<!-- Node11&#45;&gt;Node4 -->
<g id="edge18" class="edge">
<title>Node11&#45;&gt;Node4</title>
<path fill="none" stroke="#191970" d="M2072.6662,-110.4165C2056.9254,-95.7459 2023.4344,-67.2456 1989,-55 1885.6043,-18.2302 1543.8937,-11.1434 1433.6296,-9.8048"/>
<polygon fill="#191970" stroke="#191970" points="1433.4405,-6.3026 1423.4016,-9.6894 1433.3614,-13.3021 1433.4405,-6.3026"/>
</g>
<!-- Node11&#45;&gt;Node5 -->
<g id="edge19" class="edge">
<title>Node11&#45;&gt;Node5</title>
<path fill="none" stroke="#191970" d="M2103.917,-110.4407C2140.0874,-95.9385 2214.865,-67.8404 2281,-55 2400.8518,-31.7302 2781.4963,-15.275 2896.0632,-10.7526"/>
<polygon fill="#191970" stroke="#191970" points="2896.4464,-14.2404 2906.3021,-10.3524 2896.1729,-7.2457 2896.4464,-14.2404"/>
</g>
<!-- Node11&#45;&gt;Node6 -->
<g id="edge17" class="edge">
<title>Node11&#45;&gt;Node6</title>
<path fill="none" stroke="#191970" d="M2048.0519,-117.8239C1890.6198,-110.0512 1230.7059,-77.4702 1027.6893,-67.447"/>
<polygon fill="#191970" stroke="#191970" points="1027.6797,-63.9423 1017.5192,-66.9448 1027.3344,-70.9338 1027.6797,-63.9423"/>
</g>
<!-- Node12 -->
<g id="node13" class="node">
<title>Node12</title>
<g id="a_node13"><a xlink:title=" ">
<polygon fill="#ffffff" stroke="#bfbfbf" points="2289.6084,-55.5 2289.6084,-73.5 2328.3916,-73.5 2328.3916,-55.5 2289.6084,-55.5"/>
<text text-anchor="middle" x="2309" y="-61.5" font-family="Helvetica,sans-Serif" font-size="10.00" fill="#000000">utility</text>
</a>
</g>
</g>
<!-- Node11&#45;&gt;Node12 -->
<g id="edge21" class="edge">
<title>Node11&#45;&gt;Node12</title>
<path fill="none" stroke="#191970" d="M2115.9842,-111.2659C2160.4519,-100.4918 2237.644,-81.7889 2279.6749,-71.6052"/>
<polygon fill="#191970" stroke="#191970" points="2280.6672,-74.9661 2289.5618,-69.2097 2279.0188,-68.163 2280.6672,-74.9661"/>
</g>
<!-- Node13&#45;&gt;Node1 -->
<g id="edge44" class="edge">
<title>Node13&#45;&gt;Node1</title>
<path fill="none" stroke="#191970" d="M1048.6808,-225.7628C1154.1579,-217.8053 1394.1797,-198.7128 1475,-184 1506.7155,-178.2264 1513.3671,-171.2102 1545,-165 1673.3111,-139.8098 1712.8809,-170.1425 1837,-129 1852.7765,-123.7705 1951.9429,-62.0377 1967,-55 1997.5986,-40.6982 2034.0383,-27.5914 2059.0776,-19.1566"/>
<polygon fill="#191970" stroke="#191970" points="2060.3484,-22.4225 2068.7328,-15.9454 2058.1392,-15.7803 2060.3484,-22.4225"/>
</g>
<!-- Node13&#45;&gt;Node3 -->
<g id="edge45" class="edge">
<title>Node13&#45;&gt;Node3</title>
<path fill="none" stroke="#191970" d="M947.1509,-226.0323C850.2139,-219.0961 642.4461,-202.5752 573,-184 552.8159,-178.6012 549.7091,-171.9349 530,-165 471.4236,-144.3891 437.5178,-174.2574 395,-129 369.379,-101.7282 367.7022,-55.1147 369.1153,-28.8924"/>
<polygon fill="#191970" stroke="#191970" points="372.6205,-28.9532 369.8781,-18.7195 365.6401,-28.4297 372.6205,-28.9532"/>
</g>
<!-- Node13&#45;&gt;Node4 -->
<g id="edge43" class="edge">
<title>Node13&#45;&gt;Node4</title>
<path fill="none" stroke="#191970" d="M1006.8085,-220.2959C1035.0581,-191.3277 1127.041,-101.2156 1221,-55 1267.89,-31.9362 1327.6634,-19.7578 1364.6273,-13.9781"/>
<polygon fill="#191970" stroke="#191970" points="1365.4986,-17.3869 1374.8725,-12.4492 1364.4655,-10.4636 1365.4986,-17.3869"/>
</g>
<!-- Node13&#45;&gt;Node6 -->
<g id="edge24" class="edge">
<title>Node13&#45;&gt;Node6</title>
<path fill="none" stroke="#191970" d="M997.1257,-220.2751C995.8745,-207.7206 993.3492,-184.5749 990,-165 985.0949,-136.3309 977.5282,-103.4694 972.6708,-83.3497"/>
<polygon fill="#191970" stroke="#191970" points="976.0597,-82.4732 970.2851,-73.5904 969.2599,-84.1355 976.0597,-82.4732"/>
</g>
<!-- Node14 -->
<g id="node15" class="node">
<title>Node14</title>
<g id="a_node15"><a xlink:href="Ioss__Utils_8h.html" target="_top" xlink:title=" ">
<polygon fill="#ffffff" stroke="#000000" points="1365.1577,-165.5 1365.1577,-183.5 1432.8423,-183.5 1432.8423,-165.5 1365.1577,-165.5"/>
<text text-anchor="middle" x="1399" y="-171.5" font-family="Helvetica,sans-Serif" font-size="10.00" fill="#000000">Ioss_Utils.h</text>
</a>
</g>
</g>
<!-- Node13&#45;&gt;Node14 -->
<g id="edge25" class="edge">
<title>Node13&#45;&gt;Node14</title>
<path fill="none" stroke="#191970" d="M1048.7869,-222.5342C1128.0919,-211.657 1279.9991,-190.8218 1354.9505,-180.5417"/>
<polygon fill="#191970" stroke="#191970" points="1355.5685,-183.9898 1365.0001,-179.1633 1354.6173,-177.0547 1355.5685,-183.9898"/>
</g>
<!-- Node17 -->
<g id="node18" class="node">
<title>Node17</title>
<g id="a_node18"><a xlink:title=" ">
<polygon fill="#ffffff" stroke="#bfbfbf" points="892.8843,-110.5 892.8843,-128.5 941.1157,-128.5 941.1157,-110.5 892.8843,-110.5"/>
<text text-anchor="middle" x="917" y="-116.5" font-family="Helvetica,sans-Serif" font-size="10.00" fill="#000000">cassert</text>
</a>
</g>
</g>
<!-- Node13&#45;&gt;Node17 -->
<g id="edge42" class="edge">
<title>Node13&#45;&gt;Node17</title>
<path fill="none" stroke="#191970" d="M995.6942,-220.4775C992.0289,-207.3441 983.9356,-182.6107 971,-165 962.4952,-153.4216 950.4612,-142.9091 939.9113,-134.9129"/>
<polygon fill="#191970" stroke="#191970" points="941.6587,-131.8567 931.5084,-128.8197 937.5494,-137.5236 941.6587,-131.8567"/>
</g>
<!-- Node14&#45;&gt;Node1 -->
<g id="edge40" class="edge">
<title>Node14&#45;&gt;Node1</title>
<path fill="none" stroke="#191970" d="M1433.0507,-167.5498C1437.7308,-166.6563 1442.4798,-165.7817 1447,-165 1554.582,-146.396 1587.5044,-166.6119 1690,-129 1748.4685,-107.5443 1750.6832,-76.8648 1809,-55 1895.7152,-22.4877 2006.115,-13.1891 2058.616,-10.5434"/>
<polygon fill="#191970" stroke="#191970" points="2058.7862,-14.0393 2068.6158,-10.0859 2058.4662,-7.0467 2058.7862,-14.0393"/>
</g>
<!-- Node14&#45;&gt;Node3 -->
<g id="edge41" class="edge">
<title>Node14&#45;&gt;Node3</title>
<path fill="none" stroke="#191970" d="M1393.6719,-165.3069C1384.8675,-151.0083 1365.86,-123.6666 1342,-110 1231.5731,-46.7492 1187.192,-71.4423 1061,-55 808.8498,-22.1458 501.6016,-12.51 403.0417,-10.1624"/>
<polygon fill="#191970" stroke="#191970" points="402.929,-6.6589 392.8512,-9.9282 402.7682,-13.6571 402.929,-6.6589"/>
</g>
<!-- Node14&#45;&gt;Node4 -->
<g id="edge35" class="edge">
<title>Node14&#45;&gt;Node4</title>
<path fill="none" stroke="#191970" d="M1399,-165.1561C1399,-138.9504 1399,-64.3557 1399,-28.8021"/>
<polygon fill="#191970" stroke="#191970" points="1402.5001,-28.7414 1399,-18.7414 1395.5001,-28.7414 1402.5001,-28.7414"/>
</g>
<!-- Node14&#45;&gt;Node5 -->
<g id="edge36" class="edge">
<title>Node14&#45;&gt;Node5</title>
<path fill="none" stroke="#191970" d="M1433.1915,-172.7443C1557.8938,-166.2807 1988.1042,-143.4369 2125,-129 2426.1716,-97.2386 2787.4044,-34.7507 2896.3549,-15.3721"/>
<polygon fill="#191970" stroke="#191970" points="2897.1582,-18.7841 2906.3882,-13.5823 2895.9289,-11.8929 2897.1582,-18.7841"/>
</g>
<!-- Node14&#45;&gt;Node6 -->
<g id="edge26" class="edge">
<title>Node14&#45;&gt;Node6</title>
<path fill="none" stroke="#191970" d="M1364.8199,-165.7765C1287.6374,-146.078 1099.8532,-98.1516 1013.1921,-76.034"/>
<polygon fill="#191970" stroke="#191970" points="1013.9421,-72.6132 1003.3871,-73.5315 1012.211,-79.3958 1013.9421,-72.6132"/>
</g>
<!-- Node14&#45;&gt;Node15 -->
<g id="edge27" class="edge">
<title>Node14&#45;&gt;Node15</title>
<path fill="none" stroke="#191970" d="M1382.3219,-165.4179C1366.386,-156.7399 1342.1341,-143.5334 1323.7232,-133.5077"/>
<polygon fill="#191970" stroke="#191970" points="1325.159,-130.3043 1314.7029,-128.5956 1321.8113,-136.4519 1325.159,-130.3043"/>
</g>
<!-- Node14&#45;&gt;Node16 -->
<g id="edge32" class="edge">
<title>Node14&#45;&gt;Node16</title>
<path fill="none" stroke="#191970" d="M1365.1441,-171.9938C1242.9571,-162.949 825.0793,-132.016 694.985,-122.3858"/>
<polygon fill="#191970" stroke="#191970" points="694.9396,-118.873 684.7084,-121.6251 694.4227,-125.8539 694.9396,-118.873"/>
</g>
<!-- Node14&#45;&gt;Node17 -->
<g id="edge33" class="edge">
<title>Node14&#45;&gt;Node17</title>
<path fill="none" stroke="#191970" d="M1365.1067,-170.6325C1276.7698,-160.5526 1040.1835,-133.5562 951.3443,-123.419"/>
<polygon fill="#191970" stroke="#191970" points="951.5949,-119.9249 941.2626,-122.2685 950.8012,-126.8798 951.5949,-119.9249"/>
</g>
<!-- Node18 -->
<g id="node19" class="node">
<title>Node18</title>
<g id="a_node19"><a xlink:title=" ">
<polygon fill="#ffffff" stroke="#bfbfbf" points="1503.3843,-110.5 1503.3843,-128.5 1546.6157,-128.5 1546.6157,-110.5 1503.3843,-110.5"/>
<text text-anchor="middle" x="1525" y="-116.5" font-family="Helvetica,sans-Serif" font-size="10.00" fill="#000000">cmath</text>
</a>
</g>
</g>
<!-- Node14&#45;&gt;Node18 -->
<g id="edge34" class="edge">
<title>Node14&#45;&gt;Node18</title>
<path fill="none" stroke="#191970" d="M1419.8063,-165.4179C1440.2339,-156.5011 1471.6148,-142.803 1494.7892,-132.6873"/>
<polygon fill="#191970" stroke="#191970" points="1496.3981,-135.804 1504.1628,-128.5956 1493.5976,-129.3885 1496.3981,-135.804"/>
</g>
<!-- Node19 -->
<g id="node20" class="node">
<title>Node19</title>
<g id="a_node20"><a xlink:title=" ">
<polygon fill="#ffffff" stroke="#bfbfbf" points="1564.8276,-110.5 1564.8276,-128.5 1609.1724,-128.5 1609.1724,-110.5 1564.8276,-110.5"/>
<text text-anchor="middle" x="1587" y="-116.5" font-family="Helvetica,sans-Serif" font-size="10.00" fill="#000000">cstdlib</text>
</a>
</g>
</g>
<!-- Node14&#45;&gt;Node19 -->
<g id="edge37" class="edge">
<title>Node14&#45;&gt;Node19</title>
<path fill="none" stroke="#191970" d="M1430.6165,-165.4908C1460.3687,-156.9789 1506.4113,-143.7202 1554.9289,-129.2907"/>
<polygon fill="#191970" stroke="#191970" points="1556.0775,-132.6006 1564.6613,-126.3903 1554.0782,-125.8922 1556.0775,-132.6006"/>
</g>
<!-- Node20 -->
<g id="node21" class="node">
<title>Node20</title>
<g id="a_node21"><a xlink:title=" ">
<polygon fill="#ffffff" stroke="#bfbfbf" points="1626.8276,-110.5 1626.8276,-128.5 1681.1724,-128.5 1681.1724,-110.5 1626.8276,-110.5"/>
<text text-anchor="middle" x="1654" y="-116.5" font-family="Helvetica,sans-Serif" font-size="10.00" fill="#000000">iostream</text>
</a>
</g>
</g>
<!-- Node14&#45;&gt;Node20 -->
<g id="edge38" class="edge">
<title>Node14&#45;&gt;Node20</title>
<path fill="none" stroke="#191970" d="M1432.9734,-167.6717C1481.6246,-157.857 1569.6814,-139.9494 1616.6126,-129.2176"/>
<polygon fill="#191970" stroke="#191970" points="1617.5736,-132.5876 1626.5203,-126.9124 1615.9873,-125.7697 1617.5736,-132.5876"/>
</g>
<!-- Node21 -->
<g id="node22" class="node">
<title>Node21</title>
<g id="a_node22"><a xlink:title=" ">
<polygon fill="#ffffff" stroke="#bfbfbf" points="1426.5986,-110.5 1426.5986,-128.5 1485.4014,-128.5 1485.4014,-110.5 1426.5986,-110.5"/>
<text text-anchor="middle" x="1456" y="-116.5" font-family="Helvetica,sans-Serif" font-size="10.00" fill="#000000">stdexcept</text>
</a>
</g>
</g>
<!-- Node14&#45;&gt;Node21 -->
<g id="edge39" class="edge">
<title>Node14&#45;&gt;Node21</title>
<path fill="none" stroke="#191970" d="M1408.4124,-165.4179C1416.6959,-157.425 1428.9609,-145.5903 1438.9645,-135.9377"/>
<polygon fill="#191970" stroke="#191970" points="1441.6172,-138.2419 1446.3831,-128.7795 1436.7566,-133.2045 1441.6172,-138.2419"/>
</g>
<!-- Node15&#45;&gt;Node1 -->
<g id="edge30" class="edge">
<title>Node15&#45;&gt;Node1</title>
<path fill="none" stroke="#191970" d="M1333.2063,-114.0347C1407.1772,-102.6058 1584.199,-75.5387 1733,-55 1853.2389,-38.4036 1996.6268,-20.7187 2058.3091,-13.2119"/>
<polygon fill="#191970" stroke="#191970" points="2059.0083,-16.6528 2068.5132,-11.9723 2058.1641,-9.7039 2059.0083,-16.6528"/>
</g>
<!-- Node15&#45;&gt;Node3 -->
<g id="edge31" class="edge">
<title>Node15&#45;&gt;Node3</title>
<path fill="none" stroke="#191970" d="M1262.8731,-114.9723C1217.4059,-108.5584 1136.0576,-95.1924 1069,-74 1049.0776,-67.7039 1046.2812,-60.0214 1026,-55 905.6786,-25.2096 517.0602,-13.1971 402.8472,-10.2569"/>
<polygon fill="#191970" stroke="#191970" points="402.7542,-6.7535 392.6691,-10.0004 402.5777,-13.7513 402.7542,-6.7535"/>
</g>
<!-- Node15&#45;&gt;Node4 -->
<g id="edge29" class="edge">
<title>Node15&#45;&gt;Node4</title>
<path fill="none" stroke="#191970" d="M1306.2653,-110.4982C1323.2071,-92.0467 1362.0961,-49.6924 1383.7459,-26.1134"/>
<polygon fill="#191970" stroke="#191970" points="1386.4353,-28.3593 1390.6205,-18.6261 1381.2791,-23.625 1386.4353,-28.3593"/>
</g>
<!-- Node15&#45;&gt;Node6 -->
<g id="edge28" class="edge">
<title>Node15&#45;&gt;Node6</title>
<path fill="none" stroke="#191970" d="M1262.9966,-113.6661C1206.9853,-104.3309 1096.5459,-85.9243 1027.8314,-74.4719"/>
<polygon fill="#191970" stroke="#191970" points="1028.0313,-70.957 1017.5919,-72.7653 1026.8805,-77.8618 1028.0313,-70.957"/>
</g>
<!-- Node22&#45;&gt;Node1 -->
<g id="edge52" class="edge">
<title>Node22&#45;&gt;Node1</title>
<path fill="none" stroke="#191970" d="M815.504,-226.1419C979.6291,-217.2211 1412.296,-192.9992 1442,-184 1458.1969,-179.0929 1459.0105,-170.5458 1475,-165 1579.3968,-128.791 1613.7234,-155.4858 1721,-129 1817.0737,-105.2801 1836.7461,-85.1496 1931,-55 1974.9684,-40.9355 2026.4378,-26.4832 2058.385,-17.7456"/>
<polygon fill="#191970" stroke="#191970" points="2059.7025,-21.0144 2068.4319,-15.0103 2057.8636,-14.2602 2059.7025,-21.0144"/>
</g>
<!-- Node22&#45;&gt;Node2 -->
<g id="edge53" class="edge">
<title>Node22&#45;&gt;Node2</title>
<path fill="none" stroke="#191970" d="M707.8973,-220.4795C659.4701,-210.794 582.5831,-195.4166 531.2269,-185.1454"/>
<polygon fill="#191970" stroke="#191970" points="531.8043,-181.6916 521.3121,-183.1624 530.4315,-188.5557 531.8043,-181.6916"/>
</g>
<!-- Node22&#45;&gt;Node3 -->
<g id="edge54" class="edge">
<title>Node22&#45;&gt;Node3</title>
<path fill="none" stroke="#191970" d="M690.2123,-223.2984C609.4519,-214.8838 473.8836,-199.1553 426,-184 375.0222,-167.8654 346.8569,-174.6405 319,-129 301.8656,-100.9271 305.4098,-84.9497 319,-55 324.6539,-42.54 335.5926,-32.1506 345.9844,-24.4602"/>
<polygon fill="#191970" stroke="#191970" points="348.19,-27.1916 354.4568,-18.6489 344.2305,-21.4191 348.19,-27.1916"/>
</g>
<!-- Node22&#45;&gt;Node4 -->
<g id="edge51" class="edge">
<title>Node22&#45;&gt;Node4</title>
<path fill="none" stroke="#191970" d="M770.4201,-220.4186C785.4928,-212.0941 807.4131,-198.8352 824,-184 855.56,-155.7731 847.7077,-131.8095 884,-110 904.9434,-97.4143 1252.6021,-35.3187 1364.5591,-15.5535"/>
<polygon fill="#191970" stroke="#191970" points="1365.3988,-18.9595 1374.639,-13.776 1364.1831,-12.0659 1365.3988,-18.9595"/>
</g>
<!-- Node22&#45;&gt;Node6 -->
<g id="edge47" class="edge">
<title>Node22&#45;&gt;Node6</title>
<path fill="none" stroke="#191970" d="M728.1821,-220.3181C703.0128,-209.4311 669.4266,-189.6197 682,-165 700.9639,-127.8673 719.9272,-126.998 758,-110 806.0915,-88.529 865.0088,-76.9017 908.1846,-70.7909"/>
<polygon fill="#191970" stroke="#191970" points="908.8127,-74.2378 918.2514,-69.4253 907.8717,-67.3013 908.8127,-74.2378"/>
</g>
<!-- Node23 -->
<g id="node24" class="node">
<title>Node23</title>
<g id="a_node24"><a xlink:href="Ioss__Property_8h.html" target="_top" xlink:title=" ">
<polygon fill="#ffffff" stroke="#000000" points="2815.3516,-165.5 2815.3516,-183.5 2900.6484,-183.5 2900.6484,-165.5 2815.3516,-165.5"/>
<text text-anchor="middle" x="2858" y="-171.5" font-family="Helvetica,sans-Serif" font-size="10.00" fill="#000000">Ioss_Property.h</text>
</a>
</g>
</g>
<!-- Node22&#45;&gt;Node23 -->
<g id="edge48" class="edge">
<title>Node22&#45;&gt;Node23</title>
<path fill="none" stroke="#191970" d="M815.4926,-225.8608C851.336,-223.8813 897.185,-221.5313 938,-220 1678.0193,-192.2363 2579.1549,-178.3995 2804.8409,-175.2218"/>
<polygon fill="#191970" stroke="#191970" points="2805.1239,-178.7182 2815.0739,-175.0785 2805.0259,-171.7189 2805.1239,-178.7182"/>
</g>
<!-- Node23&#45;&gt;Node1 -->
<g id="edge50" class="edge">
<title>Node23&#45;&gt;Node1</title>
<path fill="none" stroke="#191970" d="M2850.8367,-165.4648C2831.7311,-142.1404 2776.7867,-79.9894 2715,-55 2659.4691,-32.5407 2237.4965,-15.0953 2119.5443,-10.6201"/>
<polygon fill="#191970" stroke="#191970" points="2119.5312,-7.1173 2109.4068,-10.2392 2119.2682,-14.1123 2119.5312,-7.1173"/>
</g>
<!-- Node23&#45;&gt;Node5 -->
<g id="edge49" class="edge">
<title>Node23&#45;&gt;Node5</title>
<path fill="none" stroke="#191970" d="M2862.5278,-165.4655C2871.2146,-147.9968 2890.6319,-108.2861 2905,-74 2911.3496,-58.8482 2917.802,-41.3653 2922.415,-28.4266"/>
<polygon fill="#191970" stroke="#191970" points="2925.7926,-29.3726 2925.8147,-18.7778 2919.1904,-27.0463 2925.7926,-29.3726"/>
</g>
<!-- Node29&#45;&gt;Node1 -->
<g id="edge133" class="edge">
<title>Node29&#45;&gt;Node1</title>
<path fill="none" stroke="#191970" d="M1003.5579,-504.1604C1305.5418,-502.2929 2660.3926,-492.1188 2845,-459 2946.17,-440.85 3043,-442.2852 3043,-339.5 3043,-339.5 3043,-339.5 3043,-284.5 3043,-179.1399 2926.7566,-116.9091 2746,-55 2686.2822,-34.5467 2240.6927,-15.5225 2119.4041,-10.6819"/>
<polygon fill="#191970" stroke="#191970" points="2119.4587,-7.1814 2109.328,-10.2828 2119.1816,-14.176 2119.4587,-7.1814"/>
</g>
<!-- Node29&#45;&gt;Node6 -->
<g id="edge67" class="edge">
<title>Node29&#45;&gt;Node6</title>
<path fill="none" stroke="#191970" d="M910.5904,-495.4816C768.1675,-456.7173 216.9111,-303.3127 171,-239 166.0936,-232.1271 165.961,-226.7762 171,-220 183.6697,-202.9627 516.1854,-114.1883 537,-110 667.999,-83.6404 824.663,-71.9564 908.34,-67.272"/>
<polygon fill="#191970" stroke="#191970" points="908.6278,-70.7616 918.4222,-66.7218 908.2463,-63.772 908.6278,-70.7616"/>
</g>
<!-- Node29&#45;&gt;Node7 -->
<g id="edge131" class="edge">
<title>Node29&#45;&gt;Node7</title>
<path fill="none" stroke="#191970" d="M884.2324,-496.8756C676.722,-468.7617 0,-362.6544 0,-174.5 0,-174.5 0,-174.5 0,-119.5 0,-88.9131 6.6262,-80.1735 24,-55 31.9849,-43.4303 43.5559,-32.9186 53.7566,-24.9206"/>
<polygon fill="#191970" stroke="#191970" points="55.9885,-27.6219 61.8941,-18.8255 51.792,-22.0192 55.9885,-27.6219"/>
</g>
<!-- Node29&#45;&gt;Node17 -->
<g id="edge132" class="edge">
<title>Node29&#45;&gt;Node17</title>
<path fill="none" stroke="#191970" d="M934.1563,-495.2352C916.4375,-477.5023 881,-436.7545 881,-394.5 881,-394.5 881,-394.5 881,-284.5 881,-230.4463 899.6704,-168.674 910.12,-138.3337"/>
<polygon fill="#191970" stroke="#191970" points="913.5102,-139.2451 913.5482,-128.6503 906.9115,-136.909 913.5102,-139.2451"/>
</g>
<!-- Node29&#45;&gt;Node23 -->
<g id="edge125" class="edge">
<title>Node29&#45;&gt;Node23</title>
<path fill="none" stroke="#191970" d="M1003.7362,-504.1796C1297.6219,-502.4449 2582.8771,-492.9614 2758,-459 2877.7201,-435.7828 3005,-461.4506 3005,-339.5 3005,-339.5 3005,-339.5 3005,-284.5 3005,-232.3445 2944.9467,-201.9226 2901.6075,-186.7587"/>
<polygon fill="#191970" stroke="#191970" points="2902.688,-183.4296 2892.0942,-183.5771 2900.4678,-190.0682 2902.688,-183.4296"/>
</g>
<!-- Node30 -->
<g id="node31" class="node">
<title>Node30</title>
<g id="a_node31"><a xlink:href="Ioss__BoundingBox_8h.html" target="_top" xlink:title=" ">
<polygon fill="#ffffff" stroke="#000000" points="1181.1333,-220.5 1181.1333,-238.5 1288.8667,-238.5 1288.8667,-220.5 1181.1333,-220.5"/>
<text text-anchor="middle" x="1235" y="-226.5" font-family="Helvetica,sans-Serif" font-size="10.00" fill="#000000">Ioss_BoundingBox.h</text>
</a>
</g>
</g>
<!-- Node29&#45;&gt;Node30 -->
<g id="edge66" class="edge">
<title>Node29&#45;&gt;Node30</title>
<path fill="none" stroke="#191970" d="M945.8076,-495.4163C949.3796,-476.6477 957,-432.191 957,-394.5 957,-394.5 957,-394.5 957,-339.5 957,-292.8973 1093.7828,-257.5503 1175.4573,-240.5982"/>
<polygon fill="#191970" stroke="#191970" points="1176.5212,-243.9533 1185.6195,-238.5246 1175.1216,-237.0947 1176.5212,-243.9533"/>
</g>
<!-- Node31 -->
<g id="node32" class="node">
<title>Node31</title>
<g id="a_node32"><a xlink:href="Ioss__EntityBlock_8h.html" target="_top" xlink:title=" ">
<polygon fill="#ffffff" stroke="#000000" points="1855.1479,-385.5 1855.1479,-403.5 1952.8521,-403.5 1952.8521,-385.5 1855.1479,-385.5"/>
<text text-anchor="middle" x="1904" y="-391.5" font-family="Helvetica,sans-Serif" font-size="10.00" fill="#000000">Ioss_EntityBlock.h</text>
</a>
</g>
</g>
<!-- Node29&#45;&gt;Node31 -->
<g id="edge68" class="edge">
<title>Node29&#45;&gt;Node31</title>
<path fill="none" stroke="#191970" d="M1003.6896,-497.6606C1176.1074,-477.9044 1673.4791,-420.9139 1845.0119,-401.259"/>
<polygon fill="#191970" stroke="#191970" points="1845.5744,-404.7176 1855.1109,-400.1019 1844.7775,-397.7631 1845.5744,-404.7176"/>
</g>
<!-- Node44 -->
<g id="node45" class="node">
<title>Node44</title>
<g id="a_node45"><a xlink:href="Ioss__NodeBlock_8h.html" target="_top" xlink:title=" ">
<polygon fill="#ffffff" stroke="#000000" points="2652.6997,-440.5 2652.6997,-458.5 2749.3003,-458.5 2749.3003,-440.5 2652.6997,-440.5"/>
<text text-anchor="middle" x="2701" y="-446.5" font-family="Helvetica,sans-Serif" font-size="10.00" fill="#000000">Ioss_NodeBlock.h</text>
</a>
</g>
</g>
<!-- Node29&#45;&gt;Node44 -->
<g id="edge118" class="edge">
<title>Node29&#45;&gt;Node44</title>
<path fill="none" stroke="#191970" d="M1003.4653,-502.6385C1272.4677,-494.2179 2373.9807,-459.7368 2642.0068,-451.3467"/>
<polygon fill="#191970" stroke="#191970" points="2642.4132,-454.8358 2652.2988,-451.0245 2642.1941,-447.8392 2642.4132,-454.8358"/>
</g>
<!-- Node45 -->
<g id="node46" class="node">
<title>Node45</title>
<g id="a_node46"><a xlink:href="Ioss__ZoneConnectivity_8h.html" target="_top" xlink:title=" ">
<polygon fill="#ffffff" stroke="#000000" points="690.6177,-165.5 690.6177,-183.5 815.3823,-183.5 815.3823,-165.5 690.6177,-165.5"/>
<text text-anchor="middle" x="753" y="-171.5" font-family="Helvetica,sans-Serif" font-size="10.00" fill="#000000">Ioss_ZoneConnectivity.h</text>
</a>
</g>
</g>
<!-- Node29&#45;&gt;Node45 -->
<g id="edge126" class="edge">
<title>Node29&#45;&gt;Node45</title>
<path fill="none" stroke="#191970" d="M924.7955,-495.463C908.4671,-487.2598 884.8927,-474.1523 867,-459 769.5076,-376.4396 725.758,-359.0259 682,-239 679.1076,-231.0664 677.9482,-227.4089 682,-220 689.7622,-205.8063 704.0517,-195.3885 717.7874,-188.1314"/>
<polygon fill="#191970" stroke="#191970" points="719.6509,-191.1176 727.1213,-183.6046 716.5963,-184.8192 719.6509,-191.1176"/>
</g>
<!-- Node31&#45;&gt;Node1 -->
<g id="edge117" class="edge">
<title>Node31&#45;&gt;Node1</title>
<path fill="none" stroke="#191970" d="M1952.8914,-386.8591C2106.9657,-362.388 2575.2165,-284.8784 2626,-239 2645.0853,-221.7581 2639.9495,-209.3993 2644,-184 2649.9905,-146.4363 2631.2583,-133.051 2601,-110 2550.4436,-71.4857 2530.4685,-71.1534 2469,-55 2342.0802,-21.6467 2184.8159,-12.6754 2119.5737,-10.3169"/>
<polygon fill="#191970" stroke="#191970" points="2119.6658,-6.8181 2109.5543,-9.9815 2119.4315,-13.8142 2119.6658,-6.8181"/>
</g>
<!-- Node31&#45;&gt;Node4 -->
<g id="edge116" class="edge">
<title>Node31&#45;&gt;Node4</title>
<path fill="none" stroke="#191970" d="M1854.9071,-392.8673C1701.6635,-386.5472 1237.9722,-357.7359 1164,-239 1102.767,-140.7123 1286.5392,-53.9508 1365.1573,-22.2726"/>
<polygon fill="#191970" stroke="#191970" points="1366.6337,-25.4524 1374.6403,-18.5137 1364.0542,-18.945 1366.6337,-25.4524"/>
</g>
<!-- Node31&#45;&gt;Node23 -->
<g id="edge115" class="edge">
<title>Node31&#45;&gt;Node23</title>
<path fill="none" stroke="#191970" d="M1953.1128,-390.5741C2101.1202,-378.3576 2541.008,-339.1197 2677,-294 2744.295,-271.6727 2810.5174,-217.5396 2840.8378,-190.4685"/>
<polygon fill="#191970" stroke="#191970" points="2843.3543,-192.9111 2848.4087,-183.5996 2838.6508,-187.7269 2843.3543,-192.9111"/>
</g>
<!-- Node32 -->
<g id="node33" class="node">
<title>Node32</title>
<g id="a_node33"><a xlink:href="Ioss__GroupingEntity_8h.html" target="_top" xlink:title=" ">
<polygon fill="#ffffff" stroke="#000000" points="1812.1743,-330.5 1812.1743,-348.5 1925.8257,-348.5 1925.8257,-330.5 1812.1743,-330.5"/>
<text text-anchor="middle" x="1869" y="-336.5" font-family="Helvetica,sans-Serif" font-size="10.00" fill="#000000">Ioss_GroupingEntity.h</text>
</a>
</g>
</g>
<!-- Node31&#45;&gt;Node32 -->
<g id="edge69" class="edge">
<title>Node31&#45;&gt;Node32</title>
<path fill="none" stroke="#191970" d="M1898.2205,-385.4179C1893.3859,-377.8207 1886.3426,-366.7527 1880.3824,-357.3866"/>
<polygon fill="#191970" stroke="#191970" points="1883.2267,-355.337 1874.9051,-348.7795 1877.3211,-359.0952 1883.2267,-355.337"/>
</g>
<!-- Node32&#45;&gt;Node1 -->
<g id="edge113" class="edge">
<title>Node32&#45;&gt;Node1</title>
<path fill="none" stroke="#191970" d="M1926.0449,-333.7892C2095.2021,-316.5858 2583.7045,-264.8547 2606,-239 2749.0028,-73.1687 2250.6521,-22.106 2119.7199,-11.6926"/>
<polygon fill="#191970" stroke="#191970" points="2119.8107,-8.1893 2109.5709,-10.9091 2119.2718,-15.1686 2119.8107,-8.1893"/>
</g>
<!-- Node32&#45;&gt;Node3 -->
<g id="edge114" class="edge">
<title>Node32&#45;&gt;Node3</title>
<path fill="none" stroke="#191970" d="M1812.1304,-339.2247C1577.8705,-337.8598 686.8499,-330.3376 408,-294 300.7741,-280.0271 238.2659,-323.6637 171,-239 132.1106,-190.0522 -48.8475,-325.1915 229,-55 244.8191,-39.6168 302.5377,-24.545 339.3386,-16.1912"/>
<polygon fill="#191970" stroke="#191970" points="340.1094,-19.6054 349.1115,-14.0185 338.5902,-12.7722 340.1094,-19.6054"/>
</g>
<!-- Node32&#45;&gt;Node4 -->
<g id="edge111" class="edge">
<title>Node32&#45;&gt;Node4</title>
<path fill="none" stroke="#191970" d="M1848.5504,-330.426C1818.861,-315.9764 1764.9724,-284.6314 1743,-239 1739.3364,-231.3917 1738.3668,-227.0599 1743,-220 1765.0617,-186.3835 1803.9383,-217.6165 1826,-184 1830.6332,-176.9401 1829.5818,-172.6472 1826,-165 1793.6086,-95.843 1763.6083,-86.41 1694,-55 1647.931,-34.2118 1500.7917,-18.6863 1433.3549,-12.4731"/>
<polygon fill="#191970" stroke="#191970" points="1433.5189,-8.9737 1423.2437,-11.5565 1432.8869,-15.9451 1433.5189,-8.9737"/>
</g>
<!-- Node32&#45;&gt;Node5 -->
<g id="edge112" class="edge">
<title>Node32&#45;&gt;Node5</title>
<path fill="none" stroke="#191970" d="M1926.0354,-338.5916C2080.8627,-335.737 2506.5297,-325.1997 2643,-294 2768.1149,-265.3963 2832.9091,-286.6104 2910,-184 2944.8648,-137.5939 2938.3672,-63.6449 2932.7561,-28.8267"/>
<polygon fill="#191970" stroke="#191970" points="2936.138,-27.8518 2930.9482,-18.6152 2929.2452,-29.0722 2936.138,-27.8518"/>
</g>
<!-- Node32&#45;&gt;Node6 -->
<g id="edge70" class="edge">
<title>Node32&#45;&gt;Node6</title>
<path fill="none" stroke="#191970" d="M1812.0852,-336.6833C1620.6999,-326.7603 1008.4033,-291.1865 938,-239 888.0679,-201.9878 852.1945,-163.3997 884,-110 892.9963,-94.8957 908.9441,-84.4988 924.5444,-77.5006"/>
<polygon fill="#191970" stroke="#191970" points="926.2182,-80.5974 934.1476,-73.5707 923.5669,-74.1189 926.2182,-80.5974"/>
</g>
<!-- Node32&#45;&gt;Node15 -->
<g id="edge90" class="edge">
<title>Node32&#45;&gt;Node15</title>
<path fill="none" stroke="#191970" d="M1811.946,-335.506C1652.9693,-323.8022 1213.8728,-287.3435 1172,-239 1166.4714,-232.617 1168.3364,-227.6083 1172,-220 1182.9853,-197.1863 1241.4137,-156.3992 1274.713,-134.4545"/>
<polygon fill="#191970" stroke="#191970" points="1276.9196,-137.1937 1283.3784,-128.7952 1273.0919,-131.3329 1276.9196,-137.1937"/>
</g>
<!-- Node32&#45;&gt;Node22 -->
<g id="edge101" class="edge">
<title>Node32&#45;&gt;Node22</title>
<path fill="none" stroke="#191970" d="M1812.1325,-338.2543C1642.518,-334.2749 1141.9744,-320.5469 981,-294 910.961,-282.4496 831.7501,-257.1647 787.5545,-241.9089"/>
<polygon fill="#191970" stroke="#191970" points="788.4798,-238.525 777.8849,-238.5377 786.1753,-245.1348 788.4798,-238.525"/>
</g>
<!-- Node32&#45;&gt;Node23 -->
<g id="edge100" class="edge">
<title>Node32&#45;&gt;Node23</title>
<path fill="none" stroke="#191970" d="M1925.9571,-338.6881C2074.9511,-336.1294 2473.4996,-326.3743 2601,-294 2692.5298,-270.7592 2791.2626,-215.2034 2834.9569,-188.8461"/>
<polygon fill="#191970" stroke="#191970" points="2836.9446,-191.7336 2843.6616,-183.5401 2833.3012,-185.7565 2836.9446,-191.7336"/>
</g>
<!-- Node33 -->
<g id="node34" class="node">
<title>Node33</title>
<g id="a_node34"><a xlink:href="Ioss__DatabaseIO_8h.html" target="_top" xlink:title=" ">
<polygon fill="#ffffff" stroke="#000000" points="1955.1973,-275.5 1955.1973,-293.5 2056.8027,-293.5 2056.8027,-275.5 1955.1973,-275.5"/>
<text text-anchor="middle" x="2006" y="-281.5" font-family="Helvetica,sans-Serif" font-size="10.00" fill="#000000">Ioss_DatabaseIO.h</text>
</a>
</g>
</g>
<!-- Node32&#45;&gt;Node33 -->
<g id="edge71" class="edge">
<title>Node32&#45;&gt;Node33</title>
<path fill="none" stroke="#191970" d="M1891.6228,-330.4179C1914.032,-321.4215 1948.5645,-307.5581 1973.8245,-297.4172"/>
<polygon fill="#191970" stroke="#191970" points="1975.3675,-300.5693 1983.3436,-293.5956 1972.7596,-294.0732 1975.3675,-300.5693"/>
</g>
<!-- Node36 -->
<g id="node37" class="node">
<title>Node36</title>
<g id="a_node37"><a xlink:href="Ioss__EntityType_8h.html" target="_top" xlink:title=" ">
<polygon fill="#ffffff" stroke="#000000" points="2502.5322,-220.5 2502.5322,-238.5 2597.4678,-238.5 2597.4678,-220.5 2502.5322,-220.5"/>
<text text-anchor="middle" x="2550" y="-226.5" font-family="Helvetica,sans-Serif" font-size="10.00" fill="#000000">Ioss_EntityType.h</text>
</a>
</g>
</g>
<!-- Node32&#45;&gt;Node36 -->
<g id="edge89" class="edge">
<title>Node32&#45;&gt;Node36</title>
<path fill="none" stroke="#191970" d="M1925.9743,-331.0158C1985.7905,-322.0511 2082.5612,-307.3863 2166,-294 2308.6686,-271.1113 2346.5597,-263.9062 2492.1344,-239.3142"/>
<polygon fill="#191970" stroke="#191970" points="2493.0643,-242.7069 2502.3422,-237.5912 2491.8991,-235.8045 2493.0643,-242.7069"/>
</g>
<!-- Node37 -->
<g id="node38" class="node">
<title>Node37</title>
<g id="a_node38"><a xlink:href="Ioss__State_8h.html" target="_top" xlink:title=" ">
<polygon fill="#ffffff" stroke="#000000" points="2413.2046,-220.5 2413.2046,-238.5 2484.7954,-238.5 2484.7954,-220.5 2413.2046,-220.5"/>
<text text-anchor="middle" x="2449" y="-226.5" font-family="Helvetica,sans-Serif" font-size="10.00" fill="#000000">Ioss_State.h</text>
</a>
</g>
</g>
<!-- Node32&#45;&gt;Node37 -->
<g id="edge102" class="edge">
<title>Node32&#45;&gt;Node37</title>
<path fill="none" stroke="#191970" d="M1916.5102,-330.497C2009.2647,-312.919 2220.9593,-272.7941 2399,-239 2400.2696,-238.759 2401.5573,-238.5146 2402.8569,-238.2678"/>
<polygon fill="#191970" stroke="#191970" points="2403.7789,-241.6554 2412.9503,-236.3511 2402.4728,-234.7783 2403.7789,-241.6554"/>
</g>
<!-- Node40 -->
<g id="node41" class="node">
<title>Node40</title>
<g id="a_node41"><a xlink:href="Ioss__FieldManager_8h.html" target="_top" xlink:title=" ">
<polygon fill="#ffffff" stroke="#000000" points="1344.5815,-220.5 1344.5815,-238.5 1453.4185,-238.5 1453.4185,-220.5 1344.5815,-220.5"/>
<text text-anchor="middle" x="1399" y="-226.5" font-family="Helvetica,sans-Serif" font-size="10.00" fill="#000000">Ioss_FieldManager.h</text>
</a>
</g>
</g>
<!-- Node32&#45;&gt;Node40 -->
<g id="edge91" class="edge">
<title>Node32&#45;&gt;Node40</title>
<path fill="none" stroke="#191970" d="M1820.3279,-330.4289C1774.8387,-321.7582 1705.1045,-307.9723 1645,-294 1572.9318,-277.2465 1489.8023,-254.7878 1440.9754,-241.2725"/>
<polygon fill="#191970" stroke="#191970" points="1441.665,-237.8316 1431.0932,-238.5294 1439.7928,-244.5766 1441.665,-237.8316"/>
</g>
<!-- Node42 -->
<g id="node43" class="node">
<title>Node42</title>
<g id="a_node43"><a xlink:href="Ioss__VariableType_8h.html" target="_top" xlink:title=" ">
<polygon fill="#ffffff" stroke="#000000" points="1471.061,-220.5 1471.061,-238.5 1576.939,-238.5 1576.939,-220.5 1471.061,-220.5"/>
<text text-anchor="middle" x="1524" y="-226.5" font-family="Helvetica,sans-Serif" font-size="10.00" fill="#000000">Ioss_VariableType.h</text>
</a>
</g>
</g>
<!-- Node32&#45;&gt;Node42 -->
<g id="edge103" class="edge">
<title>Node32&#45;&gt;Node42</title>
<path fill="none" stroke="#191970" d="M1833.5942,-330.4618C1800.2326,-321.7606 1748.9465,-307.9068 1705,-294 1652.962,-277.5326 1593.506,-255.7674 1557.3709,-242.2031"/>
<polygon fill="#191970" stroke="#191970" points="1558.4148,-238.8563 1547.8229,-238.606 1555.9469,-245.4068 1558.4148,-238.8563"/>
</g>
<!-- Node33&#45;&gt;Node1 -->
<g id="edge86" class="edge">
<title>Node33&#45;&gt;Node1</title>
<path fill="none" stroke="#191970" d="M2057.0653,-279.6415C2138.4707,-271.4861 2290.5145,-254.4194 2310,-239 2330.6454,-222.6628 2326.4355,-209.7327 2332,-184 2344.127,-127.9198 2373.7286,-99.0801 2337,-55 2309.6406,-22.1644 2179.7202,-12.948 2119.624,-10.4232"/>
<polygon fill="#191970" stroke="#191970" points="2119.7189,-6.9243 2109.5917,-10.0371 2119.4497,-13.9192 2119.7189,-6.9243"/>
</g>
<!-- Node33&#45;&gt;Node3 -->
<g id="edge88" class="edge">
<title>Node33&#45;&gt;Node3</title>
<path fill="none" stroke="#191970" d="M1954.8693,-283.6451C1743.3178,-279.9683 935.7287,-264.5205 682,-239 608.4645,-231.6037 418.696,-219.7295 354,-184 300.5844,-154.5003 278.0373,-108.7086 307,-55 314.3418,-41.3854 327.7474,-30.9013 340.3996,-23.4471"/>
<polygon fill="#191970" stroke="#191970" points="342.2749,-26.4112 349.3817,-18.5534 338.9259,-20.2643 342.2749,-26.4112"/>
</g>
<!-- Node33&#45;&gt;Node4 -->
<g id="edge83" class="edge">
<title>Node33&#45;&gt;Node4</title>
<path fill="none" stroke="#191970" d="M1955.0937,-276.1722C1915.2367,-268.4915 1864.5162,-255.749 1852,-239 1817.7771,-193.2033 1893.212,-238.7341 1939,-184 1975.9462,-139.8352 1990.0076,-97.3552 1951,-55 1915.9015,-16.8893 1548.6623,-10.6992 1433.4054,-9.6945"/>
<polygon fill="#191970" stroke="#191970" points="1433.393,-6.1944 1423.3655,-9.6147 1433.3374,-13.1942 1433.393,-6.1944"/>
</g>
<!-- Node33&#45;&gt;Node5 -->
<g id="edge84" class="edge">
<title>Node33&#45;&gt;Node5</title>
<path fill="none" stroke="#191970" d="M2056.938,-278.8013C2134.9531,-269.8307 2280.3186,-252.0908 2331,-239 2557.8144,-180.4149 2816.2753,-62.8432 2900.7137,-23.0341"/>
<polygon fill="#191970" stroke="#191970" points="2902.3714,-26.1218 2909.9123,-18.6797 2899.3763,-19.7949 2902.3714,-26.1218"/>
</g>
<!-- Node33&#45;&gt;Node6 -->
<g id="edge73" class="edge">
<title>Node33&#45;&gt;Node6</title>
<path fill="none" stroke="#191970" d="M1955.046,-283.63C1819.5188,-280.9044 1452.5733,-270.727 1336,-239 1317.7804,-234.0413 1315.5906,-226.8639 1298,-220 1244.1413,-198.9843 1227.8308,-202.3304 1173,-184 1108.0254,-162.2784 1085.9629,-167.0625 1029,-129 1009.6854,-116.094 991.9697,-96.0277 980.665,-81.7057"/>
<polygon fill="#191970" stroke="#191970" points="983.3544,-79.4607 974.4978,-73.6459 977.7952,-83.7146 983.3544,-79.4607"/>
</g>
<!-- Node33&#45;&gt;Node11 -->
<g id="edge77" class="edge">
<title>Node33&#45;&gt;Node11</title>
<path fill="none" stroke="#191970" d="M2050.6778,-275.4337C2085.9741,-267.2577 2131.0536,-254.2049 2142,-239 2166.4779,-204.9992 2126.6263,-159.5494 2100.9796,-135.6899"/>
<polygon fill="#191970" stroke="#191970" points="2103.0285,-132.8255 2093.2514,-128.7438 2098.3491,-138.0317 2103.0285,-132.8255"/>
</g>
<!-- Node33&#45;&gt;Node12 -->
<g id="edge87" class="edge">
<title>Node33&#45;&gt;Node12</title>
<path fill="none" stroke="#191970" d="M2057.0021,-279.6774C2134.3821,-271.8689 2274.1724,-255.6462 2290,-239 2330.3592,-196.5534 2320.8265,-119.4827 2313.5682,-83.7037"/>
<polygon fill="#191970" stroke="#191970" points="2316.9206,-82.6512 2311.3576,-73.6343 2310.0834,-84.1523 2316.9206,-82.6512"/>
</g>
<!-- Node33&#45;&gt;Node13 -->
<g id="edge78" class="edge">
<title>Node33&#45;&gt;Node13</title>
<path fill="none" stroke="#191970" d="M1954.7524,-281.7049C1824.1995,-274.5841 1468.4606,-255.1799 1172,-239 1134.3575,-236.9456 1092.1345,-234.6403 1058.7087,-232.8152"/>
<polygon fill="#191970" stroke="#191970" points="1058.8084,-229.3155 1048.6324,-232.265 1058.4267,-236.3051 1058.8084,-229.3155"/>
</g>
<!-- Node33&#45;&gt;Node22 -->
<g id="edge79" class="edge">
<title>Node33&#45;&gt;Node22</title>
<path fill="none" stroke="#191970" d="M1955.1328,-282.4907C1801.6052,-276.3922 1329.3844,-257.3858 938,-239 901.0262,-237.2631 859.9047,-235.1678 825.8384,-233.3874"/>
<polygon fill="#191970" stroke="#191970" points="825.6745,-229.8741 815.505,-232.8457 825.308,-236.8645 825.6745,-229.8741"/>
</g>
<!-- Node33&#45;&gt;Node25 -->
<g id="edge85" class="edge">
<title>Node33&#45;&gt;Node25</title>
<path fill="none" stroke="#191970" d="M1955.0492,-277.8264C1906.6551,-270.503 1838.4777,-257.306 1819,-239 1806.7314,-227.4694 1801.9337,-208.5779 1800.0858,-194.2127"/>
<polygon fill="#191970" stroke="#191970" points="1803.5386,-193.5326 1799.1498,-183.8895 1796.5672,-194.1647 1803.5386,-193.5326"/>
</g>
<!-- Node33&#45;&gt;Node30 -->
<g id="edge72" class="edge">
<title>Node33&#45;&gt;Node30</title>
<path fill="none" stroke="#191970" d="M1955.1664,-282.5046C1839.2705,-277.6724 1546.6477,-263.8697 1303,-239 1301.7326,-238.8706 1300.4525,-238.7355 1299.163,-238.5953"/>
<polygon fill="#191970" stroke="#191970" points="1299.4834,-235.1091 1289.1467,-237.4335 1298.6768,-242.0625 1299.4834,-235.1091"/>
</g>
<!-- Node34 -->
<g id="node35" class="node">
<title>Node34</title>
<g id="a_node35"><a xlink:href="Ioss__DBUsage_8h.html" target="_top" xlink:title=" ">
<polygon fill="#ffffff" stroke="#000000" points="2189.4805,-220.5 2189.4805,-238.5 2280.5195,-238.5 2280.5195,-220.5 2189.4805,-220.5"/>
<text text-anchor="middle" x="2235" y="-226.5" font-family="Helvetica,sans-Serif" font-size="10.00" fill="#000000">Ioss_DBUsage.h</text>
</a>
</g>
</g>
<!-- Node33&#45;&gt;Node34 -->
<g id="edge74" class="edge">
<title>Node33&#45;&gt;Node34</title>
<path fill="none" stroke="#191970" d="M2043.5583,-275.4795C2082.9109,-266.0279 2144.8319,-251.1561 2187.5413,-240.8984"/>
<polygon fill="#191970" stroke="#191970" points="2188.5151,-244.2641 2197.4212,-238.5255 2186.8803,-237.4577 2188.5151,-244.2641"/>
</g>
<!-- Node35 -->
<g id="node36" class="node">
<title>Node35</title>
<g id="a_node36"><a xlink:href="Ioss__DataSize_8h.html" target="_top" xlink:title=" ">
<polygon fill="#ffffff" stroke="#000000" points="1860.5913,-220.5 1860.5913,-238.5 1949.4087,-238.5 1949.4087,-220.5 1860.5913,-220.5"/>
<text text-anchor="middle" x="1905" y="-226.5" font-family="Helvetica,sans-Serif" font-size="10.00" fill="#000000">Ioss_DataSize.h</text>
</a>
</g>
</g>
<!-- Node33&#45;&gt;Node35 -->
<g id="edge75" class="edge">
<title>Node33&#45;&gt;Node35</title>
<path fill="none" stroke="#191970" d="M1989.3219,-275.4179C1973.386,-266.7399 1949.1341,-253.5334 1930.7232,-243.5077"/>
<polygon fill="#191970" stroke="#191970" points="1932.159,-240.3043 1921.7029,-238.5956 1928.8113,-246.4519 1932.159,-240.3043"/>
</g>
<!-- Node33&#45;&gt;Node36 -->
<g id="edge76" class="edge">
<title>Node33&#45;&gt;Node36</title>
<path fill="none" stroke="#191970" d="M2057.0755,-281.0064C2144.2307,-274.7677 2327.4659,-260.4485 2492.0647,-239.1743"/>
<polygon fill="#191970" stroke="#191970" points="2492.9146,-242.5931 2502.3778,-237.8289 2492.009,-235.6519 2492.9146,-242.5931"/>
</g>
<!-- Node33&#45;&gt;Node37 -->
<g id="edge80" class="edge">
<title>Node33&#45;&gt;Node37</title>
<path fill="none" stroke="#191970" d="M2057.0306,-279.7845C2132.1407,-272.5741 2276.7835,-257.6603 2399,-239 2400.2774,-238.805 2401.5721,-238.6012 2402.8779,-238.3903"/>
<polygon fill="#191970" stroke="#191970" points="2403.7349,-241.7948 2413.0035,-236.6622 2402.5572,-234.8945 2403.7349,-241.7948"/>
</g>
<!-- Node38 -->
<g id="node39" class="node">
<title>Node38</title>
<g id="a_node39"><a xlink:href="Ioss__SurfaceSplit_8h.html" target="_top" xlink:title=" ">
<polygon fill="#ffffff" stroke="#000000" points="1966.9214,-220.5 1966.9214,-238.5 2069.0786,-238.5 2069.0786,-220.5 1966.9214,-220.5"/>
<text text-anchor="middle" x="2018" y="-226.5" font-family="Helvetica,sans-Serif" font-size="10.00" fill="#000000">Ioss_SurfaceSplit.h</text>
</a>
</g>
</g>
<!-- Node33&#45;&gt;Node38 -->
<g id="edge81" class="edge">
<title>Node33&#45;&gt;Node38</title>
<path fill="none" stroke="#191970" d="M2007.9816,-275.4179C2009.5701,-268.1372 2011.854,-257.669 2013.8402,-248.5659"/>
<polygon fill="#191970" stroke="#191970" points="2017.2632,-249.2957 2015.9754,-238.7795 2010.4241,-247.8035 2017.2632,-249.2957"/>
</g>
<!-- Node39 -->
<g id="node40" class="node">
<title>Node39</title>
<g id="a_node40"><a xlink:title=" ">
<polygon fill="#ffffff" stroke="#bfbfbf" points="2086.7119,-220.5 2086.7119,-238.5 2133.2881,-238.5 2133.2881,-220.5 2086.7119,-220.5"/>
<text text-anchor="middle" x="2110" y="-226.5" font-family="Helvetica,sans-Serif" font-size="10.00" fill="#000000">chrono</text>
</a>
</g>
</g>
<!-- Node33&#45;&gt;Node39 -->
<g id="edge82" class="edge">
<title>Node33&#45;&gt;Node39</title>
<path fill="none" stroke="#191970" d="M2023.1735,-275.4179C2039.658,-266.7001 2064.7842,-253.4122 2083.7732,-243.3699"/>
<polygon fill="#191970" stroke="#191970" points="2085.5973,-246.3646 2092.801,-238.5956 2082.3248,-240.1767 2085.5973,-246.3646"/>
</g>
<!-- Node40&#45;&gt;Node1 -->
<g id="edge97" class="edge">
<title>Node40&#45;&gt;Node1</title>
<path fill="none" stroke="#191970" d="M1432.3954,-220.4574C1463.0126,-211.9112 1509.4615,-198.299 1549,-184 1569.4156,-176.6167 1573.0395,-170.6538 1594,-165 1715.5648,-132.2093 1755.7138,-169.2995 1875,-129 1890.5637,-123.742 1988.6259,-62.9538 2003,-55 2022.6442,-44.13 2045.0726,-32.2822 2062.0986,-23.402"/>
<polygon fill="#191970" stroke="#191970" points="2064.1796,-26.2649 2071.4372,-18.5463 2060.9502,-20.0543 2064.1796,-26.2649"/>
</g>
<!-- Node40&#45;&gt;Node2 -->
<g id="edge98" class="edge">
<title>Node40&#45;&gt;Node2</title>
<path fill="none" stroke="#191970" d="M1344.5228,-223.9315C1329.4629,-222.5132 1313.1075,-221.0851 1298,-220 976.2097,-196.8884 894.7209,-208.0584 573,-184 559.5649,-182.9953 545.0843,-181.6709 531.5765,-180.3311"/>
<polygon fill="#191970" stroke="#191970" points="531.7717,-176.8331 521.4701,-179.3086 531.067,-183.7975 531.7717,-176.8331"/>
</g>
<!-- Node40&#45;&gt;Node3 -->
<g id="edge99" class="edge">
<title>Node40&#45;&gt;Node3</title>
<path fill="none" stroke="#191970" d="M1344.5186,-223.9894C1329.4586,-222.5714 1313.1043,-221.1288 1298,-220 1009.9156,-198.4694 933.3465,-235.0224 649,-184 608.2501,-176.6879 505.4741,-151.9251 471,-129 430.2521,-101.9029 397.1606,-53.4346 381.2503,-27.3263"/>
<polygon fill="#191970" stroke="#191970" points="384.1284,-25.318 376.0137,-18.506 378.1093,-28.8916 384.1284,-25.318"/>
</g>
<!-- Node40&#45;&gt;Node4 -->
<g id="edge95" class="edge">
<title>Node40&#45;&gt;Node4</title>
<path fill="none" stroke="#191970" d="M1419.7053,-220.4288C1450.2553,-207.2347 1509.3717,-182.4264 1561,-165 1617.398,-145.9637 1654.0088,-176.4104 1690,-129 1758.6125,-38.6181 1524.164,-16.2299 1433.3958,-11.0023"/>
<polygon fill="#191970" stroke="#191970" points="1433.4916,-7.5024 1423.3176,-10.4589 1433.1147,-14.4923 1433.4916,-7.5024"/>
</g>
<!-- Node40&#45;&gt;Node6 -->
<g id="edge92" class="edge">
<title>Node40&#45;&gt;Node6</title>
<path fill="none" stroke="#191970" d="M1365.2463,-220.4984C1292.4829,-200.8872 1123.0655,-154.0582 1069,-129 1039.2077,-115.1919 1007.761,-93.8937 988.0236,-79.5893"/>
<polygon fill="#191970" stroke="#191970" points="989.9566,-76.6663 979.827,-73.5611 985.8093,-82.3055 989.9566,-76.6663"/>
</g>
<!-- Node40&#45;&gt;Node14 -->
<g id="edge94" class="edge">
<title>Node40&#45;&gt;Node14</title>
<path fill="none" stroke="#191970" d="M1399,-220.4179C1399,-213.2164 1399,-202.8962 1399,-193.8632"/>
<polygon fill="#191970" stroke="#191970" points="1402.5001,-193.7794 1399,-183.7795 1395.5001,-193.7795 1402.5001,-193.7794"/>
</g>
<!-- Node40&#45;&gt;Node15 -->
<g id="edge93" class="edge">
<title>Node40&#45;&gt;Node15</title>
<path fill="none" stroke="#191970" d="M1390.3672,-220.4975C1381.6371,-211.3628 1367.787,-196.7859 1356,-184 1341.2631,-168.0143 1324.7011,-149.5447 1313.0598,-136.4772"/>
<polygon fill="#191970" stroke="#191970" points="1315.4496,-133.8976 1306.189,-128.7505 1310.2186,-138.5492 1315.4496,-133.8976"/>
</g>
<!-- Node41 -->
<g id="node42" class="node">
<title>Node41</title>
<g id="a_node42"><a xlink:title=" ">
<polygon fill="#ffffff" stroke="#bfbfbf" points="1602.5962,-165.5 1602.5962,-183.5 1661.4038,-183.5 1661.4038,-165.5 1602.5962,-165.5"/>
<text text-anchor="middle" x="1632" y="-171.5" font-family="Helvetica,sans-Serif" font-size="10.00" fill="#000000">functional</text>
</a>
</g>
</g>
<!-- Node40&#45;&gt;Node41 -->
<g id="edge96" class="edge">
<title>Node40&#45;&gt;Node41</title>
<path fill="none" stroke="#191970" d="M1437.2143,-220.4795C1480.0033,-210.379 1549.0163,-194.0884 1592.3727,-183.8541"/>
<polygon fill="#191970" stroke="#191970" points="1593.3503,-187.2196 1602.2787,-181.5158 1591.7421,-180.4068 1593.3503,-187.2196"/>
</g>
<!-- Node42&#45;&gt;Node1 -->
<g id="edge109" class="edge">
<title>Node42&#45;&gt;Node1</title>
<path fill="none" stroke="#191970" d="M1572.3142,-220.4862C1624.6858,-210.4579 1704.7066,-194.313 1734,-184 1751.8108,-177.7295 1754.307,-171.5954 1772,-165 1832.6033,-142.409 1854.0296,-155.5632 1913,-129 1975.4846,-100.8538 2039.8535,-50.7281 2070.5477,-25.2725"/>
<polygon fill="#191970" stroke="#191970" points="2072.8694,-27.8934 2078.2825,-18.7857 2068.3713,-22.5299 2072.8694,-27.8934"/>
</g>
<!-- Node42&#45;&gt;Node3 -->
<g id="edge110" class="edge">
<title>Node42&#45;&gt;Node3</title>
<path fill="none" stroke="#191970" d="M1470.947,-220.9929C1467.924,-220.626 1464.9257,-220.2908 1462,-220 1289.3332,-202.8356 848.8215,-231.7393 682,-184 561.7754,-149.5954 437.6627,-60.8526 390.6385,-24.9339"/>
<polygon fill="#191970" stroke="#191970" points="392.584,-22.0142 382.5288,-18.676 388.3076,-27.5561 392.584,-22.0142"/>
</g>
<!-- Node42&#45;&gt;Node6 -->
<g id="edge104" class="edge">
<title>Node42&#45;&gt;Node6</title>
<path fill="none" stroke="#191970" d="M1490.531,-220.4365C1456.6245,-211.2543 1402.6661,-196.6411 1356,-184 1265.7766,-159.5599 1242.2994,-156.6262 1153,-129 1099.6846,-112.506 1038.7177,-90.6597 1001.8076,-77.0971"/>
<polygon fill="#191970" stroke="#191970" points="1002.6548,-73.6792 992.0614,-73.5028 1000.2326,-80.2468 1002.6548,-73.6792"/>
</g>
<!-- Node42&#45;&gt;Node14 -->
<g id="edge105" class="edge">
<title>Node42&#45;&gt;Node14</title>
<path fill="none" stroke="#191970" d="M1503.3588,-220.4179C1483.0934,-211.5011 1451.9615,-197.803 1428.971,-187.6873"/>
<polygon fill="#191970" stroke="#191970" points="1430.2346,-184.4195 1419.6719,-183.5956 1427.4154,-190.8267 1430.2346,-184.4195"/>
</g>
<!-- Node42&#45;&gt;Node25 -->
<g id="edge108" class="edge">
<title>Node42&#45;&gt;Node25</title>
<path fill="none" stroke="#191970" d="M1576.9504,-221.2092C1626.4027,-213.0832 1702.1215,-199.6599 1767,-184 1768.4436,-183.6516 1769.9188,-183.2777 1771.4048,-182.887"/>
<polygon fill="#191970" stroke="#191970" points="1772.4647,-186.2248 1781.1485,-180.155 1770.5748,-179.4848 1772.4647,-186.2248"/>
</g>
<!-- Node42&#45;&gt;Node41 -->
<g id="edge107" class="edge">
<title>Node42&#45;&gt;Node41</title>
<path fill="none" stroke="#191970" d="M1541.834,-220.4179C1559.0307,-211.6603 1585.2836,-198.2907 1605.0343,-188.2326"/>
<polygon fill="#191970" stroke="#191970" points="1606.8168,-191.2526 1614.1395,-183.5956 1603.6401,-185.0148 1606.8168,-191.2526"/>
</g>
<!-- Node43 -->
<g id="node44" class="node">
<title>Node43</title>
<g id="a_node44"><a xlink:title=" ">
<polygon fill="#ffffff" stroke="#bfbfbf" points="1679.2734,-165.5 1679.2734,-183.5 1724.7266,-183.5 1724.7266,-165.5 1679.2734,-165.5"/>
<text text-anchor="middle" x="1702" y="-171.5" font-family="Helvetica,sans-Serif" font-size="10.00" fill="#000000">cstring</text>
</a>
</g>
</g>
<!-- Node42&#45;&gt;Node43 -->
<g id="edge106" class="edge">
<title>Node42&#45;&gt;Node43</title>
<path fill="none" stroke="#191970" d="M1553.3931,-220.4179C1585.3399,-210.5467 1636.2503,-194.8159 1669.4021,-184.5724"/>
<polygon fill="#191970" stroke="#191970" points="1670.5588,-187.8783 1679.0798,-181.5821 1668.4922,-181.1903 1670.5588,-187.8783"/>
</g>
<!-- Node44&#45;&gt;Node1 -->
<g id="edge124" class="edge">
<title>Node44&#45;&gt;Node1</title>
<path fill="none" stroke="#191970" d="M2702.2423,-440.4596C2707.7241,-396.5163 2725.2951,-203.5437 2626,-110 2586.504,-72.7917 2569.0488,-70.3401 2517,-55 2442.0775,-32.9184 2204.0935,-16.5584 2119.3368,-11.3011"/>
<polygon fill="#191970" stroke="#191970" points="2119.5227,-7.8061 2109.3273,-10.6879 2119.0946,-14.793 2119.5227,-7.8061"/>
</g>
<!-- Node44&#45;&gt;Node4 -->
<g id="edge122" class="edge">
<title>Node44&#45;&gt;Node4</title>
<path fill="none" stroke="#191970" d="M2652.5195,-444.1482C2530.8319,-429.732 2203.79,-384.8882 1946,-294 1895.5722,-276.2208 1866.8569,-284.6405 1839,-239 1821.8593,-210.9168 1848.9041,-196.9373 1841,-165 1834.3611,-138.175 1830.5958,-130.4414 1812,-110 1781.9714,-76.991 1769.786,-70.6602 1728,-55 1674.4781,-34.9415 1506.5455,-18.663 1433.5027,-12.3394"/>
<polygon fill="#191970" stroke="#191970" points="1433.701,-8.8437 1423.4393,-11.4794 1433.1049,-15.8183 1433.701,-8.8437"/>
</g>
<!-- Node44&#45;&gt;Node5 -->
<g id="edge123" class="edge">
<title>Node44&#45;&gt;Node5</title>
<path fill="none" stroke="#191970" d="M2743.7268,-440.4413C2781.7897,-431.671 2833.8865,-417.7219 2850,-404 2896.723,-364.2115 2920.6595,-284.3024 2948,-129 2953.7044,-96.5974 2957.058,-87.1349 2950,-55 2947.9301,-45.5757 2943.7122,-35.7774 2939.5961,-27.698"/>
<polygon fill="#191970" stroke="#191970" points="2942.629,-25.949 2934.7768,-18.8361 2936.4795,-29.2932 2942.629,-25.949"/>
</g>
<!-- Node44&#45;&gt;Node23 -->
<g id="edge120" class="edge">
<title>Node44&#45;&gt;Node23</title>
<path fill="none" stroke="#191970" d="M2749.3749,-442.7602C2775.999,-436.7272 2807.8322,-425.3574 2829,-404 2885.9554,-346.5344 2871.2271,-237.3832 2862.367,-193.4851"/>
<polygon fill="#191970" stroke="#191970" points="2865.7616,-192.6226 2860.2377,-183.5817 2858.918,-194.0941 2865.7616,-192.6226"/>
</g>
<!-- Node44&#45;&gt;Node31 -->
<g id="edge121" class="edge">
<title>Node44&#45;&gt;Node31</title>
<path fill="none" stroke="#191970" d="M2652.6573,-446.8813C2539.0548,-440.6123 2246.2463,-423.7828 2002,-404 1989.4299,-402.9819 1975.9657,-401.7616 1963.1666,-400.5402"/>
<polygon fill="#191970" stroke="#191970" points="1963.3649,-397.0431 1953.0745,-399.5642 1962.6911,-404.0106 1963.3649,-397.0431"/>
</g>
<!-- Node44&#45;&gt;Node36 -->
<g id="edge119" class="edge">
<title>Node44&#45;&gt;Node36</title>
<path fill="none" stroke="#191970" d="M2694.704,-440.327C2671.7757,-406.9216 2592.493,-291.4103 2562.0418,-247.0444"/>
<polygon fill="#191970" stroke="#191970" points="2564.8676,-244.9764 2556.3229,-238.7122 2559.0962,-248.9376 2564.8676,-244.9764"/>
</g>
<!-- Node45&#45;&gt;Node1 -->
<g id="edge130" class="edge">
<title>Node45&#45;&gt;Node1</title>
<path fill="none" stroke="#191970" d="M809.9319,-165.4671C945.8104,-144.1213 1299.9021,-89.7498 1597,-55 1771.1382,-34.6321 1980.828,-17.7845 2058.3025,-11.819"/>
<polygon fill="#191970" stroke="#191970" points="2058.6361,-15.3038 2068.3395,-11.0502 2058.1014,-8.3242 2058.6361,-15.3038"/>
</g>
<!-- Node45&#45;&gt;Node6 -->
<g id="edge127" class="edge">
<title>Node45&#45;&gt;Node6</title>
<path fill="none" stroke="#191970" d="M753.4544,-165.0743C754.6606,-150.965 759.0522,-124.4686 775,-110 794.4401,-92.363 859.2032,-79.5931 908.3952,-72.15"/>
<polygon fill="#191970" stroke="#191970" points="908.9376,-75.6079 918.3206,-70.6876 907.9172,-68.6827 908.9376,-75.6079"/>
</g>
<!-- Node45&#45;&gt;Node7 -->
<g id="edge128" class="edge">
<title>Node45&#45;&gt;Node7</title>
<path fill="none" stroke="#191970" d="M715.6372,-165.3939C594.5154,-135.8738 214.2671,-43.1988 105.3941,-16.664"/>
<polygon fill="#191970" stroke="#191970" points="105.9845,-13.2055 95.4401,-14.238 104.3269,-20.0064 105.9845,-13.2055"/>
</g>
<!-- Node45&#45;&gt;Node17 -->
<g id="edge129" class="edge">
<title>Node45&#45;&gt;Node17</title>
<path fill="none" stroke="#191970" d="M780.0813,-165.4179C808.2808,-155.9607 852.5175,-141.1252 883.0387,-130.8895"/>
<polygon fill="#191970" stroke="#191970" points="884.4524,-134.107 892.8205,-127.609 882.2266,-127.4703 884.4524,-134.107"/>
</g>
<!-- Node46&#45;&gt;Node4 -->
<g id="edge137" class="edge">
<title>Node46&#45;&gt;Node4</title>
<path fill="none" stroke="#191970" d="M1016.3574,-551.0861C1019.2723,-550.6919 1022.1616,-550.3273 1025,-550 1216.5517,-527.9129 2625.278,-598.8741 2758,-459 2850.6712,-361.3349 2782.2077,-258.1508 2685,-165 2567.8828,-52.7705 2496.6662,-83.6112 2337,-55 2158.3208,-22.9818 1580.7829,-12.2388 1433.4586,-9.9846"/>
<polygon fill="#191970" stroke="#191970" points="1433.2708,-6.4815 1423.2195,-9.8311 1433.1659,-13.4807 1433.2708,-6.4815"/>
</g>
<!-- Node46&#45;&gt;Node5 -->
<g id="edge138" class="edge">
<title>Node46&#45;&gt;Node5</title>
<path fill="none" stroke="#191970" d="M1016.3456,-550.9764C1019.2638,-550.6126 1022.157,-550.2842 1025,-550 1743.3735,-478.1762 1929.6629,-575.427 2649,-514 2745.7121,-505.7414 3081,-546.5641 3081,-449.5 3081,-449.5 3081,-449.5 3081,-119.5 3081,-61.0239 3006.2566,-30.4684 2961.5954,-17.4302"/>
<polygon fill="#191970" stroke="#191970" points="2962.3279,-14.0012 2951.7559,-14.6973 2960.4545,-20.7459 2962.3279,-14.0012"/>
</g>
<!-- Node46&#45;&gt;Node6 -->
<g id="edge135" class="edge">
<title>Node46&#45;&gt;Node6</title>
<path fill="none" stroke="#191970" d="M914.5933,-550.4642C900.3363,-542.0115 884.4946,-529.8016 876,-514 833.4874,-434.918 821.9299,-185.1891 871,-110 881.2931,-94.2282 898.6175,-83.8147 915.8013,-76.9882"/>
<polygon fill="#191970" stroke="#191970" points="917.0767,-80.2488 925.2878,-73.5534 914.6936,-73.6669 917.0767,-80.2488"/>
</g>
<!-- Node46&#45;&gt;Node12 -->
<g id="edge139" class="edge">
<title>Node46&#45;&gt;Node12</title>
<path fill="none" stroke="#191970" d="M1016.3574,-551.0861C1019.2723,-550.6919 1022.1616,-550.3273 1025,-550 1216.5517,-527.9129 2625.278,-598.8741 2758,-459 2793.0482,-422.0632 2995.5278,-564.59 2606,-220 2562.1515,-181.2101 2403.8113,-107.3587 2337.9996,-77.5047"/>
<polygon fill="#191970" stroke="#191970" points="2339.1777,-74.1963 2328.6239,-73.2656 2336.2938,-80.5747 2339.1777,-74.1963"/>
</g>
<!-- Node46&#45;&gt;Node29 -->
<g id="edge136" class="edge">
<title>Node46&#45;&gt;Node29</title>
<path fill="none" stroke="#191970" d="M944,-550.2808C944,-542.3776 944,-532.4316 944,-523.8308"/>
<polygon fill="#191970" stroke="#191970" points="947.5001,-523.5842 944,-513.5842 940.5001,-523.5842 947.5001,-523.5842"/>
</g>
</g>
</svg>
        <g id="navigator" transform="translate(0 0)" fill="#404254">
                <rect fill="#f2f5e9" fill-opacity="0.5" stroke="#606060" stroke-width=".5" x="0" y="0" width="60" height="60"/>
                <use id="zoomplus" xlink:href="#zoomPlus" x="17" y="9" onmousedown="handleZoom(evt,'in')"/>
                <use id="zoomminus" xlink:href="#zoomMin" x="42" y="9" onmousedown="handleZoom(evt,'out')"/>
                <use id="reset" xlink:href="#resetDef" x="30" y="36" onmousedown="handleReset()"/>
                <g id="arrowUp" xlink:href="#dirArrow" transform="translate(30 24)" onmousedown="handlePan(0,-1)">
                  <use xlink:href="#rim" fill="#404040">
                        <set attributeName="fill" to="#808080" begin="arrowUp.mouseover" end="arrowUp.mouseout"/>
                  </use>
                  <path fill="none" stroke="white" stroke-width="1.5" d="M0,-3.0v7 M-2.5,-0.5L0,-3.0L2.5,-0.5"/>
                </g>
                <g id="arrowRight" xlink:href="#dirArrow" transform="rotate(90) translate(36 -43)" onmousedown="handlePan(1,0)">
                  <use xlink:href="#rim" fill="#404040">
                        <set attributeName="fill" to="#808080" begin="arrowRight.mouseover" end="arrowRight.mouseout"/>
                  </use>
                  <path fill="none" stroke="white" stroke-width="1.5" d="M0,-3.0v7 M-2.5,-0.5L0,-3.0L2.5,-0.5"/>
                </g>
                <g id="arrowDown" xlink:href="#dirArrow" transform="rotate(180) translate(-30 -48)" onmousedown="handlePan(0,1)">
                  <use xlink:href="#rim" fill="#404040">
                        <set attributeName="fill" to="#808080" begin="arrowDown.mouseover" end="arrowDown.mouseout"/>
                  </use>
                  <path fill="none" stroke="white" stroke-width="1.5" d="M0,-3.0v7 M-2.5,-0.5L0,-3.0L2.5,-0.5"/>
                </g>
                <g id="arrowLeft" xlink:href="#dirArrow" transform="rotate(270) translate(-36 17)" onmousedown="handlePan(-1,0)">
                  <use xlink:href="#rim" fill="#404040">
                        <set attributeName="fill" to="#808080" begin="arrowLeft.mouseover" end="arrowLeft.mouseout"/>
                  </use>
                  <path fill="none" stroke="white" stroke-width="1.5" d="M0,-3.0v7 M-2.5,-0.5L0,-3.0L2.5,-0.5"/>
                </g>
        </g>
        <svg viewBox="0 0 15 15" width="100%" height="30px" preserveAspectRatio="xMaxYMin meet">
         <g id="arrow_out" transform="scale(0.3 0.3)">
          <a xlink:href="Iocgns__DecompositionData_8h__incl_org.svg" target="_base">
           <rect id="button" ry="5" rx="5" y="6" x="6" height="38" width="38"
                fill="#f2f5e9" fill-opacity="0.5" stroke="#606060" stroke-width="1.0"/>
           <path id="arrow"
             d="M 11.500037,31.436501 C 11.940474,20.09759 22.043105,11.32322 32.158766,21.979434 L 37.068811,17.246167 C 37.068811,17.246167 37.088388,32 37.088388,32 L 22.160133,31.978069 C 22.160133,31.978069 26.997745,27.140456 26.997745,27.140456 C 18.528582,18.264221 13.291696,25.230495 11.500037,31.436501 z"
             style="fill:#404040;"/>
          </a>
         </g>
        </svg>
</svg>
