<?xml version="1.0" encoding="UTF-8" standalone="no"?>
<!DOCTYPE svg PUBLIC "-//W3C//DTD SVG 1.1//EN"
 "http://www.w3.org/Graphics/SVG/1.1/DTD/svg11.dtd">
<!-- Generated by graphviz version 2.40.1 (20161225.0304)
 -->
<!-- Title: src/cgns/Iocgns_Utils.h Pages: 1 -->
<!--zoomable 577 -->
<svg id="main" version="1.1" xmlns="http://www.w3.org/2000/svg" xmlns:xlink="http://www.w3.org/1999/xlink" xml:space="preserve" onload="init(evt)">
<style type="text/css"><![CDATA[
.edge:hover path { stroke: red; }
.edge:hover polygon { stroke: red; fill: red; }
]]></style>
<script type="text/javascript"><![CDATA[
var edges = document.getElementsByTagName('g');
if (edges && edges.length) {
  for (var i=0;i<edges.length;i++) {
    if (edges[i].id.substr(0,4)=='edge') {
      edges[i].setAttribute('class','edge');
    }
  }
}
]]></script>
        <defs>
                <circle id="rim" cx="0" cy="0" r="7"/>
                <circle id="rim2" cx="0" cy="0" r="3.5"/>
                <g id="zoomPlus">
                        <use xlink:href="#rim" fill="#404040">
                                <set attributeName="fill" to="#808080" begin="zoomplus.mouseover" end="zoomplus.mouseout"/>
                        </use>
                        <path d="M-4,0h8M0,-4v8" fill="none" stroke="white" stroke-width="1.5" pointer-events="none"/>
                </g>
                <g id="zoomMin">
                        <use xlink:href="#rim" fill="#404040">
                                <set attributeName="fill" to="#808080" begin="zoomminus.mouseover" end="zoomminus.mouseout"/>
                        </use>
                        <path d="M-4,0h8" fill="none" stroke="white" stroke-width="1.5" pointer-events="none"/>
                </g>
                <g id="dirArrow">
                        <path fill="none" stroke="white" stroke-width="1.5" d="M0,-3.0v7 M-2.5,-0.5L0,-3.0L2.5,-0.5"/>
                </g>
               <g id="resetDef">
                       <use xlink:href="#rim2" fill="#404040">
                               <set attributeName="fill" to="#808080" begin="reset.mouseover" end="reset.mouseout"/>
                       </use>
               </g>
        </defs>

<script type="text/javascript">
var viewWidth = 3685;
var viewHeight = 577;
var sectionId = 'dynsection-0';
</script>
<script xlink:href="svgpan.js"/>
<svg id="graph" class="graph">
<g id="viewport">
<title>src/cgns/Iocgns_Utils.h</title>
<polygon fill="#ffffff" stroke="transparent" points="-4,4 -4,-573 3681.0615,-573 3681.0615,4 -4,4"/>
<!-- Node0 -->
<g id="node1" class="node">
<title>Node0</title>
<g id="a_node1"><a xlink:title=" ">
<polygon fill="#bfbfbf" stroke="#000000" points="1509.5913,-550.5 1509.5913,-568.5 1628.4087,-568.5 1628.4087,-550.5 1509.5913,-550.5"/>
<text text-anchor="middle" x="1569" y="-556.5" font-family="Helvetica,sans-Serif" font-size="10.00" fill="#000000">src/cgns/Iocgns_Utils.h</text>
</a>
</g>
</g>
<!-- Node1 -->
<g id="node2" class="node">
<title>Node1</title>
<g id="a_node2"><a xlink:href="Ioss__CodeTypes_8h.html" target="_top" xlink:title=" ">
<polygon fill="#ffffff" stroke="#000000" points="1661.584,-55.5 1661.584,-73.5 1760.416,-73.5 1760.416,-55.5 1661.584,-55.5"/>
<text text-anchor="middle" x="1711" y="-61.5" font-family="Helvetica,sans-Serif" font-size="10.00" fill="#000000">Ioss_CodeTypes.h</text>
</a>
</g>
</g>
<!-- Node0&#45;&gt;Node1 -->
<g id="edge1" class="edge">
<title>Node0&#45;&gt;Node1</title>
<path fill="none" stroke="#191970" d="M1547.2891,-550.4258C1514.2131,-534.9802 1455,-500.243 1455,-449.5 1455,-449.5 1455,-449.5 1455,-394.5 1455,-239.1673 1147.7213,-225.1268 1252,-110 1265.2386,-95.3842 1529.9334,-76.3177 1651.2215,-68.3065"/>
<polygon fill="#191970" stroke="#191970" points="1651.7023,-71.7825 1661.4514,-67.6345 1651.2435,-64.7976 1651.7023,-71.7825"/>
</g>
<!-- Node5 -->
<g id="node6" class="node">
<title>Node5</title>
<g id="a_node6"><a xlink:title=" ">
<polygon fill="#ffffff" stroke="#bfbfbf" points="2613.7734,-.5 2613.7734,-18.5 2654.2266,-18.5 2654.2266,-.5 2613.7734,-.5"/>
<text text-anchor="middle" x="2634" y="-6.5" font-family="Helvetica,sans-Serif" font-size="10.00" fill="#000000">string</text>
</a>
</g>
</g>
<!-- Node0&#45;&gt;Node5 -->
<g id="edge165" class="edge">
<title>Node0&#45;&gt;Node5</title>
<path fill="none" stroke="#191970" d="M1628.567,-559.0408C1917.3045,-556.6703 3164.3627,-544.7213 3335,-514 3421.9386,-498.3477 3523,-537.8363 3523,-449.5 3523,-449.5 3523,-449.5 3523,-119.5 3523,-49.3731 3447.0992,-71.7415 3379,-55 3240.0567,-20.8422 2786.4429,-11.7575 2664.4446,-9.9062"/>
<polygon fill="#191970" stroke="#191970" points="2664.3727,-6.4048 2654.3225,-9.7578 2664.2701,-13.4041 2664.3727,-6.4048"/>
</g>
<!-- Node9 -->
<g id="node10" class="node">
<title>Node9</title>
<g id="a_node10"><a xlink:href="Ioss__DatabaseIO_8h.html" target="_top" xlink:title=" ">
<polygon fill="#ffffff" stroke="#000000" points="1009.1973,-275.5 1009.1973,-293.5 1110.8027,-293.5 1110.8027,-275.5 1009.1973,-275.5"/>
<text text-anchor="middle" x="1060" y="-281.5" font-family="Helvetica,sans-Serif" font-size="10.00" fill="#000000">Ioss_DatabaseIO.h</text>
</a>
</g>
</g>
<!-- Node0&#45;&gt;Node9 -->
<g id="edge9" class="edge">
<title>Node0&#45;&gt;Node9</title>
<path fill="none" stroke="#191970" d="M1509.365,-552.8292C1374.9553,-536.9888 1060,-495.0148 1060,-449.5 1060,-449.5 1060,-449.5 1060,-394.5 1060,-362.7718 1060,-325.8957 1060,-303.917"/>
<polygon fill="#191970" stroke="#191970" points="1063.5001,-303.6266 1060,-293.6267 1056.5001,-303.6267 1063.5001,-303.6266"/>
</g>
<!-- Node17 -->
<g id="node18" class="node">
<title>Node17</title>
<g id="a_node18"><a xlink:href="Ioss__Utils_8h.html" target="_top" xlink:title=" ">
<polygon fill="#ffffff" stroke="#000000" points="1289.1577,-165.5 1289.1577,-183.5 1356.8423,-183.5 1356.8423,-165.5 1289.1577,-165.5"/>
<text text-anchor="middle" x="1323" y="-171.5" font-family="Helvetica,sans-Serif" font-size="10.00" fill="#000000">Ioss_Utils.h</text>
</a>
</g>
</g>
<!-- Node0&#45;&gt;Node17 -->
<g id="edge162" class="edge">
<title>Node0&#45;&gt;Node17</title>
<path fill="none" stroke="#191970" d="M1563.5555,-550.4507C1553.0482,-532.0998 1531,-488.899 1531,-449.5 1531,-449.5 1531,-449.5 1531,-339.5 1531,-285.9149 1550.9575,-259.7293 1515,-220 1495.4835,-198.4363 1417.3865,-185.4607 1367.0068,-179.1674"/>
<polygon fill="#191970" stroke="#191970" points="1367.3647,-175.6853 1357.0172,-177.9613 1366.5255,-182.6348 1367.3647,-175.6853"/>
</g>
<!-- Node32 -->
<g id="node33" class="node">
<title>Node32</title>
<g id="a_node33"><a xlink:href="Ioss__ElementTopology_8h.html" target="_top" xlink:title=" ">
<polygon fill="#ffffff" stroke="#000000" points="467.8911,-220.5 467.8911,-238.5 592.1089,-238.5 592.1089,-220.5 467.8911,-220.5"/>
<text text-anchor="middle" x="530" y="-226.5" font-family="Helvetica,sans-Serif" font-size="10.00" fill="#000000">Ioss_ElementTopology.h</text>
</a>
</g>
</g>
<!-- Node0&#45;&gt;Node32 -->
<g id="edge63" class="edge">
<title>Node0&#45;&gt;Node32</title>
<path fill="none" stroke="#191970" d="M1509.4529,-558.3959C1227.2405,-552.7802 38,-524.6568 38,-449.5 38,-449.5 38,-449.5 38,-394.5 38,-307.0469 320.9583,-257.3421 457.7032,-238.4275"/>
<polygon fill="#191970" stroke="#191970" points="458.2528,-241.885 467.6879,-237.0652 457.3065,-234.9492 458.2528,-241.885"/>
</g>
<!-- Node33 -->
<g id="node34" class="node">
<title>Node33</title>
<g id="a_node34"><a xlink:href="Ioss__Region_8h.html" target="_top" xlink:title=" ">
<polygon fill="#ffffff" stroke="#000000" points="952.0347,-385.5 952.0347,-403.5 1031.9653,-403.5 1031.9653,-385.5 952.0347,-385.5"/>
<text text-anchor="middle" x="992" y="-391.5" font-family="Helvetica,sans-Serif" font-size="10.00" fill="#000000">Ioss_Region.h</text>
</a>
</g>
</g>
<!-- Node0&#45;&gt;Node33 -->
<g id="edge68" class="edge">
<title>Node0&#45;&gt;Node33</title>
<path fill="none" stroke="#191970" d="M1509.2386,-557.6705C1379.99,-553.2348 1083.0865,-540.2853 1046,-514 1012.6825,-490.386 999.5433,-441.1945 994.6627,-413.8624"/>
<polygon fill="#191970" stroke="#191970" points="998.0627,-412.9549 993.0419,-403.6253 991.1489,-414.0496 998.0627,-412.9549"/>
</g>
<!-- Node42 -->
<g id="node43" class="node">
<title>Node42</title>
<g id="a_node43"><a xlink:href="Ioss__SideBlock_8h.html" target="_top" xlink:title=" ">
<polygon fill="#ffffff" stroke="#000000" points="2600.6455,-495.5 2600.6455,-513.5 2693.3545,-513.5 2693.3545,-495.5 2600.6455,-495.5"/>
<text text-anchor="middle" x="2647" y="-501.5" font-family="Helvetica,sans-Serif" font-size="10.00" fill="#000000">Ioss_SideBlock.h</text>
</a>
</g>
</g>
<!-- Node0&#45;&gt;Node42 -->
<g id="edge114" class="edge">
<title>Node0&#45;&gt;Node42</title>
<path fill="none" stroke="#191970" d="M1628.4935,-556.4646C1817.9095,-546.8005 2405.3144,-516.8309 2590.4865,-507.3833"/>
<polygon fill="#191970" stroke="#191970" points="2590.7435,-510.8749 2600.5521,-506.8698 2590.3867,-503.884 2590.7435,-510.8749"/>
</g>
<!-- Node45 -->
<g id="node46" class="node">
<title>Node45</title>
<g id="a_node46"><a xlink:href="Ioss__SideSet_8h.html" target="_top" xlink:title=" ">
<polygon fill="#ffffff" stroke="#000000" points="2453.3672,-385.5 2453.3672,-403.5 2536.6328,-403.5 2536.6328,-385.5 2453.3672,-385.5"/>
<text text-anchor="middle" x="2495" y="-391.5" font-family="Helvetica,sans-Serif" font-size="10.00" fill="#000000">Ioss_SideSet.h</text>
</a>
</g>
</g>
<!-- Node0&#45;&gt;Node45 -->
<g id="edge141" class="edge">
<title>Node0&#45;&gt;Node45</title>
<path fill="none" stroke="#191970" d="M1619.7736,-550.4529C1780.9768,-521.7288 2280.1441,-432.7843 2443.0202,-403.7621"/>
<polygon fill="#191970" stroke="#191970" points="2444.0242,-407.1384 2453.2551,-401.9383 2442.7962,-400.2469 2444.0242,-407.1384"/>
</g>
<!-- Node46 -->
<g id="node47" class="node">
<title>Node46</title>
<g id="a_node47"><a xlink:href="Ioss__StructuredBlock_8h.html" target="_top" xlink:title=" ">
<polygon fill="#ffffff" stroke="#000000" points="3207.5864,-495.5 3207.5864,-513.5 3326.4136,-513.5 3326.4136,-495.5 3207.5864,-495.5"/>
<text text-anchor="middle" x="3267" y="-501.5" font-family="Helvetica,sans-Serif" font-size="10.00" fill="#000000">Ioss_StructuredBlock.h</text>
</a>
</g>
</g>
<!-- Node0&#45;&gt;Node46 -->
<g id="edge142" class="edge">
<title>Node0&#45;&gt;Node46</title>
<path fill="none" stroke="#191970" d="M1628.4371,-557.5748C1887.4862,-549.1839 2917.3743,-515.8247 3196.7631,-506.775"/>
<polygon fill="#191970" stroke="#191970" points="3197.2838,-510.2601 3207.1652,-506.4381 3197.0571,-503.2638 3197.2838,-510.2601"/>
</g>
<!-- Node49 -->
<g id="node50" class="node">
<title>Node49</title>
<g id="a_node50"><a xlink:title=" ">
<polygon fill="#ffffff" stroke="#bfbfbf" points="3551.2661,-495.5 3551.2661,-513.5 3606.7339,-513.5 3606.7339,-495.5 3551.2661,-495.5"/>
<text text-anchor="middle" x="3579" y="-501.5" font-family="Helvetica,sans-Serif" font-size="10.00" fill="#000000">cgnslib.h</text>
</a>
</g>
</g>
<!-- Node0&#45;&gt;Node49 -->
<g id="edge163" class="edge">
<title>Node0&#45;&gt;Node49</title>
<path fill="none" stroke="#191970" d="M1628.5513,-558.8307C1936.7555,-555.2719 3343.8765,-537.8319 3537,-514 3538.2938,-513.8403 3539.6062,-513.6584 3540.9287,-513.4578"/>
<polygon fill="#191970" stroke="#191970" points="3541.9021,-516.8389 3551.1226,-511.6202 3540.6602,-509.9499 3541.9021,-516.8389"/>
</g>
<!-- Node50 -->
<g id="node51" class="node">
<title>Node50</title>
<g id="a_node51"><a xlink:title=" ">
<polygon fill="#ffffff" stroke="#bfbfbf" points="3624.9385,-495.5 3624.9385,-513.5 3677.0615,-513.5 3677.0615,-495.5 3624.9385,-495.5"/>
<text text-anchor="middle" x="3651" y="-501.5" font-family="Helvetica,sans-Serif" font-size="10.00" fill="#000000">ostream</text>
</a>
</g>
</g>
<!-- Node0&#45;&gt;Node50 -->
<g id="edge164" class="edge">
<title>Node0&#45;&gt;Node50</title>
<path fill="none" stroke="#191970" d="M1628.6073,-559.0376C1939.7772,-556.5099 3372.3521,-543.4336 3614.7565,-513.6907"/>
<polygon fill="#191970" stroke="#191970" points="3615.3221,-517.1463 3624.7707,-512.3531 3614.3953,-510.2079 3615.3221,-517.1463"/>
</g>
<!-- Node2 -->
<g id="node3" class="node">
<title>Node2</title>
<g id="a_node3"><a xlink:title=" ">
<polygon fill="#ffffff" stroke="#bfbfbf" points="3375.6084,-.5 3375.6084,-18.5 3414.3916,-18.5 3414.3916,-.5 3375.6084,-.5"/>
<text text-anchor="middle" x="3395" y="-6.5" font-family="Helvetica,sans-Serif" font-size="10.00" fill="#000000">array</text>
</a>
</g>
</g>
<!-- Node1&#45;&gt;Node2 -->
<g id="edge2" class="edge">
<title>Node1&#45;&gt;Node2</title>
<path fill="none" stroke="#191970" d="M1760.4869,-62.8837C2014.2822,-54.5947 3165.6706,-16.99 3365.4194,-10.4661"/>
<polygon fill="#191970" stroke="#191970" points="3365.5865,-13.9626 3375.4668,-10.138 3365.3579,-6.9664 3365.5865,-13.9626"/>
</g>
<!-- Node3 -->
<g id="node4" class="node">
<title>Node3</title>
<g id="a_node4"><a xlink:title=" ">
<polygon fill="#ffffff" stroke="#bfbfbf" points="2020.8794,-.5 2020.8794,-18.5 2069.1206,-18.5 2069.1206,-.5 2020.8794,-.5"/>
<text text-anchor="middle" x="2045" y="-6.5" font-family="Helvetica,sans-Serif" font-size="10.00" fill="#000000">cstddef</text>
</a>
</g>
</g>
<!-- Node1&#45;&gt;Node3 -->
<g id="edge3" class="edge">
<title>Node1&#45;&gt;Node3</title>
<path fill="none" stroke="#191970" d="M1760.6425,-56.3253C1829.2145,-45.0335 1951.1654,-24.9518 2010.5686,-15.1698"/>
<polygon fill="#191970" stroke="#191970" points="2011.2687,-18.6018 2020.5671,-13.5234 2010.1312,-11.6948 2011.2687,-18.6018"/>
</g>
<!-- Node4 -->
<g id="node5" class="node">
<title>Node4</title>
<g id="a_node5"><a xlink:title=" ">
<polygon fill="#ffffff" stroke="#bfbfbf" points="959.5493,-.5 959.5493,-18.5 1004.4507,-18.5 1004.4507,-.5 959.5493,-.5"/>
<text text-anchor="middle" x="982" y="-6.5" font-family="Helvetica,sans-Serif" font-size="10.00" fill="#000000">cstdint</text>
</a>
</g>
</g>
<!-- Node1&#45;&gt;Node4 -->
<g id="edge4" class="edge">
<title>Node1&#45;&gt;Node4</title>
<path fill="none" stroke="#191970" d="M1661.466,-60.7629C1522.2437,-50.2591 1130.0892,-20.6727 1014.4698,-11.9497"/>
<polygon fill="#191970" stroke="#191970" points="1014.701,-8.4573 1004.466,-11.195 1014.1743,-15.4375 1014.701,-8.4573"/>
</g>
<!-- Node1&#45;&gt;Node5 -->
<g id="edge5" class="edge">
<title>Node1&#45;&gt;Node5</title>
<path fill="none" stroke="#191970" d="M1760.6245,-61.543C1927.9779,-51.5707 2468.663,-19.3521 2603.3799,-11.3246"/>
<polygon fill="#191970" stroke="#191970" points="2603.9876,-14.7947 2613.7617,-10.706 2603.5712,-7.8071 2603.9876,-14.7947"/>
</g>
<!-- Node6 -->
<g id="node7" class="node">
<title>Node6</title>
<g id="a_node7"><a xlink:title=" ">
<polygon fill="#ffffff" stroke="#bfbfbf" points="580.3843,-.5 580.3843,-18.5 623.6157,-18.5 623.6157,-.5 580.3843,-.5"/>
<text text-anchor="middle" x="602" y="-6.5" font-family="Helvetica,sans-Serif" font-size="10.00" fill="#000000">vector</text>
</a>
</g>
</g>
<!-- Node1&#45;&gt;Node6 -->
<g id="edge6" class="edge">
<title>Node1&#45;&gt;Node6</title>
<path fill="none" stroke="#191970" d="M1661.556,-62.0479C1471.504,-52.6224 790.807,-18.8637 634.2603,-11.0999"/>
<polygon fill="#191970" stroke="#191970" points="634.0699,-7.5863 623.9087,-10.5865 633.7231,-14.5777 634.0699,-7.5863"/>
</g>
<!-- Node7 -->
<g id="node8" class="node">
<title>Node7</title>
<g id="a_node8"><a xlink:title=" ">
<polygon fill="#ffffff" stroke="#bfbfbf" points="1704.2515,-.5 1704.2515,-18.5 1819.7485,-18.5 1819.7485,-.5 1704.2515,-.5"/>
<text text-anchor="middle" x="1762" y="-6.5" font-family="Helvetica,sans-Serif" font-size="10.00" fill="#000000">SEACASIoss_config.h</text>
</a>
</g>
</g>
<!-- Node1&#45;&gt;Node7 -->
<g id="edge7" class="edge">
<title>Node1&#45;&gt;Node7</title>
<path fill="none" stroke="#191970" d="M1719.4216,-55.4179C1726.7598,-47.5041 1737.5902,-35.8243 1746.4913,-26.2251"/>
<polygon fill="#191970" stroke="#191970" points="1749.1624,-28.492 1753.3954,-18.7795 1744.0295,-23.7324 1749.1624,-28.492"/>
</g>
<!-- Node8 -->
<g id="node9" class="node">
<title>Node8</title>
<g id="a_node9"><a xlink:title=" ">
<polygon fill="#ffffff" stroke="#bfbfbf" points="1633.3818,-.5 1633.3818,-18.5 1686.6182,-18.5 1686.6182,-.5 1633.3818,-.5"/>
<text text-anchor="middle" x="1660" y="-6.5" font-family="Helvetica,sans-Serif" font-size="10.00" fill="#000000">complex</text>
</a>
</g>
</g>
<!-- Node1&#45;&gt;Node8 -->
<g id="edge8" class="edge">
<title>Node1&#45;&gt;Node8</title>
<path fill="none" stroke="#191970" d="M1702.5784,-55.4179C1695.2402,-47.5041 1684.4098,-35.8243 1675.5087,-26.2251"/>
<polygon fill="#191970" stroke="#191970" points="1677.9705,-23.7324 1668.6046,-18.7795 1672.8376,-28.492 1677.9705,-23.7324"/>
</g>
<!-- Node9&#45;&gt;Node1 -->
<g id="edge11" class="edge">
<title>Node9&#45;&gt;Node1</title>
<path fill="none" stroke="#191970" d="M1075.0759,-275.4448C1087.4164,-267.3202 1104.4933,-254.3347 1115,-239 1149.1588,-189.145 1110.4642,-147.3188 1158,-110 1167.6213,-102.4466 1510.2656,-78.2251 1651.2882,-68.549"/>
<polygon fill="#191970" stroke="#191970" points="1651.7508,-72.0256 1661.4883,-67.8503 1651.2725,-65.0419 1651.7508,-72.0256"/>
</g>
<!-- Node9&#45;&gt;Node3 -->
<g id="edge57" class="edge">
<title>Node9&#45;&gt;Node3</title>
<path fill="none" stroke="#191970" d="M1110.9034,-284.0974C1250.8689,-282.5293 1634.0028,-274.9624 1677,-239 1703.0463,-217.2152 1675.4254,-192.0125 1696,-165 1755.5902,-86.7638 1797.4625,-93.404 1888,-55 1928.901,-37.6507 1978.4929,-24.5047 2010.8492,-16.9094"/>
<polygon fill="#191970" stroke="#191970" points="2011.7549,-20.2925 2020.716,-14.6401 2010.1859,-13.4706 2011.7549,-20.2925"/>
</g>
<!-- Node9&#45;&gt;Node4 -->
<g id="edge58" class="edge">
<title>Node9&#45;&gt;Node4</title>
<path fill="none" stroke="#191970" d="M1008.818,-282.1381C909.5535,-277.0307 698.6781,-263.4059 677,-239 583.7994,-134.0719 853.5431,-45.686 949.5048,-18.2839"/>
<polygon fill="#191970" stroke="#191970" points="950.5987,-21.6121 959.2764,-15.5336 948.7022,-14.8739 950.5987,-21.6121"/>
</g>
<!-- Node9&#45;&gt;Node5 -->
<g id="edge60" class="edge">
<title>Node9&#45;&gt;Node5</title>
<path fill="none" stroke="#191970" d="M1110.9399,-283.5655C1315.3338,-279.6596 2069.9444,-263.6878 2174,-239 2356.9162,-195.6021 2550.2513,-68.244 2613.0209,-24.4745"/>
<polygon fill="#191970" stroke="#191970" points="2615.1489,-27.2569 2621.3178,-18.6432 2611.1238,-21.5299 2615.1489,-27.2569"/>
</g>
<!-- Node9&#45;&gt;Node6 -->
<g id="edge62" class="edge">
<title>Node9&#45;&gt;Node6</title>
<path fill="none" stroke="#191970" d="M1009.1248,-282.5825C863.5499,-276.8625 454.4326,-259.066 434,-239 399.2004,-204.8247 444.8369,-61.7801 451,-55 467.0181,-37.3781 530.9894,-22.6958 570.3483,-15.0948"/>
<polygon fill="#191970" stroke="#191970" points="571.0783,-18.5189 580.2584,-13.2296 569.7835,-11.6397 571.0783,-18.5189"/>
</g>
<!-- Node10 -->
<g id="node11" class="node">
<title>Node10</title>
<g id="a_node11"><a xlink:href="Ioss__BoundingBox_8h.html" target="_top" xlink:title=" ">
<polygon fill="#ffffff" stroke="#000000" points="2865.1333,-220.5 2865.1333,-238.5 2972.8667,-238.5 2972.8667,-220.5 2865.1333,-220.5"/>
<text text-anchor="middle" x="2919" y="-226.5" font-family="Helvetica,sans-Serif" font-size="10.00" fill="#000000">Ioss_BoundingBox.h</text>
</a>
</g>
</g>
<!-- Node9&#45;&gt;Node10 -->
<g id="edge10" class="edge">
<title>Node9&#45;&gt;Node10</title>
<path fill="none" stroke="#191970" d="M1111.1732,-282.986C1373.1483,-275.2353 2563.1472,-240.0282 2854.4829,-231.4088"/>
<polygon fill="#191970" stroke="#191970" points="2854.9765,-234.8958 2864.8686,-231.1015 2854.7695,-227.8989 2854.9765,-234.8958"/>
</g>
<!-- Node11 -->
<g id="node12" class="node">
<title>Node11</title>
<g id="a_node12"><a xlink:href="Ioss__DBUsage_8h.html" target="_top" xlink:title=" ">
<polygon fill="#ffffff" stroke="#000000" points="1014.4805,-220.5 1014.4805,-238.5 1105.5195,-238.5 1105.5195,-220.5 1014.4805,-220.5"/>
<text text-anchor="middle" x="1060" y="-226.5" font-family="Helvetica,sans-Serif" font-size="10.00" fill="#000000">Ioss_DBUsage.h</text>
</a>
</g>
</g>
<!-- Node9&#45;&gt;Node11 -->
<g id="edge12" class="edge">
<title>Node9&#45;&gt;Node11</title>
<path fill="none" stroke="#191970" d="M1060,-275.4179C1060,-268.2164 1060,-257.8962 1060,-248.8632"/>
<polygon fill="#191970" stroke="#191970" points="1063.5001,-248.7794 1060,-238.7795 1056.5001,-248.7795 1063.5001,-248.7794"/>
</g>
<!-- Node12 -->
<g id="node13" class="node">
<title>Node12</title>
<g id="a_node13"><a xlink:href="Ioss__DataSize_8h.html" target="_top" xlink:title=" ">
<polygon fill="#ffffff" stroke="#000000" points="685.5913,-220.5 685.5913,-238.5 774.4087,-238.5 774.4087,-220.5 685.5913,-220.5"/>
<text text-anchor="middle" x="730" y="-226.5" font-family="Helvetica,sans-Serif" font-size="10.00" fill="#000000">Ioss_DataSize.h</text>
</a>
</g>
</g>
<!-- Node9&#45;&gt;Node12 -->
<g id="edge13" class="edge">
<title>Node9&#45;&gt;Node12</title>
<path fill="none" stroke="#191970" d="M1009.1633,-276.3771C955.6942,-267.7825 868.8232,-253.6749 784.5237,-239.2446"/>
<polygon fill="#191970" stroke="#191970" points="784.9726,-235.7705 774.5247,-237.5293 783.789,-242.6698 784.9726,-235.7705"/>
</g>
<!-- Node13 -->
<g id="node14" class="node">
<title>Node13</title>
<g id="a_node14"><a xlink:href="Ioss__EntityType_8h.html" target="_top" xlink:title=" ">
<polygon fill="#ffffff" stroke="#000000" points="2448.5322,-220.5 2448.5322,-238.5 2543.4678,-238.5 2543.4678,-220.5 2448.5322,-220.5"/>
<text text-anchor="middle" x="2496" y="-226.5" font-family="Helvetica,sans-Serif" font-size="10.00" fill="#000000">Ioss_EntityType.h</text>
</a>
</g>
</g>
<!-- Node9&#45;&gt;Node13 -->
<g id="edge14" class="edge">
<title>Node9&#45;&gt;Node13</title>
<path fill="none" stroke="#191970" d="M1111.108,-282.5425C1332.044,-274.0805 2204.3926,-240.6688 2438.1258,-231.7166"/>
<polygon fill="#191970" stroke="#191970" points="2438.5869,-235.2016 2448.4456,-231.3214 2438.3189,-228.2068 2438.5869,-235.2016"/>
</g>
<!-- Node14 -->
<g id="node15" class="node">
<title>Node14</title>
<g id="a_node15"><a xlink:href="Ioss__Map_8h.html" target="_top" xlink:title=" ">
<polygon fill="#ffffff" stroke="#000000" points="886.1528,-110.5 886.1528,-128.5 953.8472,-128.5 953.8472,-110.5 886.1528,-110.5"/>
<text text-anchor="middle" x="920" y="-116.5" font-family="Helvetica,sans-Serif" font-size="10.00" fill="#000000">Ioss_Map.h</text>
</a>
</g>
</g>
<!-- Node9&#45;&gt;Node14 -->
<g id="edge15" class="edge">
<title>Node9&#45;&gt;Node14</title>
<path fill="none" stroke="#191970" d="M1046.9522,-275.2432C1035.258,-266.6037 1017.9942,-252.9775 1005,-239 974.3934,-206.0772 945.5724,-161.7239 930.6329,-137.3681"/>
<polygon fill="#191970" stroke="#191970" points="933.6186,-135.5415 925.4457,-128.7995 927.6304,-139.1666 933.6186,-135.5415"/>
</g>
<!-- Node15 -->
<g id="node16" class="node">
<title>Node15</title>
<g id="a_node16"><a xlink:title=" ">
<polygon fill="#ffffff" stroke="#bfbfbf" points="459.6084,-55.5 459.6084,-73.5 498.3916,-73.5 498.3916,-55.5 459.6084,-55.5"/>
<text text-anchor="middle" x="479" y="-61.5" font-family="Helvetica,sans-Serif" font-size="10.00" fill="#000000">utility</text>
</a>
</g>
</g>
<!-- Node9&#45;&gt;Node15 -->
<g id="edge61" class="edge">
<title>Node9&#45;&gt;Node15</title>
<path fill="none" stroke="#191970" d="M1009.0627,-282.5694C865.8707,-276.8976 468.9307,-259.3953 450,-239 409.3234,-195.1763 447.2919,-117.0795 467.8094,-82.1887"/>
<polygon fill="#191970" stroke="#191970" points="470.852,-83.9214 473.0537,-73.5579 464.8697,-80.2864 470.852,-83.9214"/>
</g>
<!-- Node16 -->
<g id="node17" class="node">
<title>Node16</title>
<g id="a_node17"><a xlink:href="Ioss__ParallelUtils_8h.html" target="_top" xlink:title=" ">
<polygon fill="#ffffff" stroke="#000000" points="1404.4829,-220.5 1404.4829,-238.5 1505.5171,-238.5 1505.5171,-220.5 1404.4829,-220.5"/>
<text text-anchor="middle" x="1455" y="-226.5" font-family="Helvetica,sans-Serif" font-size="10.00" fill="#000000">Ioss_ParallelUtils.h</text>
</a>
</g>
</g>
<!-- Node9&#45;&gt;Node16 -->
<g id="edge22" class="edge">
<title>Node9&#45;&gt;Node16</title>
<path fill="none" stroke="#191970" d="M1110.8307,-277.4223C1183.4168,-267.3154 1316.5555,-248.7771 1394.2458,-237.9594"/>
<polygon fill="#191970" stroke="#191970" points="1394.9427,-241.3963 1404.3644,-236.5505 1393.9772,-234.4632 1394.9427,-241.3963"/>
</g>
<!-- Node25 -->
<g id="node26" class="node">
<title>Node25</title>
<g id="a_node26"><a xlink:href="Ioss__PropertyManager_8h.html" target="_top" xlink:title=" ">
<polygon fill="#ffffff" stroke="#000000" points="2040.5225,-220.5 2040.5225,-238.5 2165.4775,-238.5 2165.4775,-220.5 2040.5225,-220.5"/>
<text text-anchor="middle" x="2103" y="-226.5" font-family="Helvetica,sans-Serif" font-size="10.00" fill="#000000">Ioss_PropertyManager.h</text>
</a>
</g>
</g>
<!-- Node9&#45;&gt;Node25 -->
<g id="edge45" class="edge">
<title>Node9&#45;&gt;Node25</title>
<path fill="none" stroke="#191970" d="M1110.9038,-283.6275C1253.9798,-280.8521 1672.0413,-270.5271 2030.1614,-238.9939"/>
<polygon fill="#191970" stroke="#191970" points="2030.5545,-242.4729 2040.2059,-238.1024 2029.9357,-235.5003 2030.5545,-242.4729"/>
</g>
<!-- Node28 -->
<g id="node29" class="node">
<title>Node28</title>
<g id="a_node29"><a xlink:href="Ioss__State_8h.html" target="_top" xlink:title=" ">
<polygon fill="#ffffff" stroke="#000000" points="1162.2046,-220.5 1162.2046,-238.5 1233.7954,-238.5 1233.7954,-220.5 1162.2046,-220.5"/>
<text text-anchor="middle" x="1198" y="-226.5" font-family="Helvetica,sans-Serif" font-size="10.00" fill="#000000">Ioss_State.h</text>
</a>
</g>
</g>
<!-- Node9&#45;&gt;Node28 -->
<g id="edge54" class="edge">
<title>Node9&#45;&gt;Node28</title>
<path fill="none" stroke="#191970" d="M1082.7879,-275.4179C1105.3607,-266.4215 1140.1452,-252.5581 1165.5897,-242.4172"/>
<polygon fill="#191970" stroke="#191970" points="1167.1847,-245.5493 1175.1783,-238.5956 1164.593,-239.0467 1167.1847,-245.5493"/>
</g>
<!-- Node29 -->
<g id="node30" class="node">
<title>Node29</title>
<g id="a_node30"><a xlink:href="Ioss__SurfaceSplit_8h.html" target="_top" xlink:title=" ">
<polygon fill="#ffffff" stroke="#000000" points="791.9214,-220.5 791.9214,-238.5 894.0786,-238.5 894.0786,-220.5 791.9214,-220.5"/>
<text text-anchor="middle" x="843" y="-226.5" font-family="Helvetica,sans-Serif" font-size="10.00" fill="#000000">Ioss_SurfaceSplit.h</text>
</a>
</g>
</g>
<!-- Node9&#45;&gt;Node29 -->
<g id="edge55" class="edge">
<title>Node9&#45;&gt;Node29</title>
<path fill="none" stroke="#191970" d="M1024.1669,-275.4179C986.9904,-265.9953 928.7489,-251.2336 888.3802,-241.0019"/>
<polygon fill="#191970" stroke="#191970" points="889.0791,-237.5684 878.5257,-238.5042 887.3593,-244.3539 889.0791,-237.5684"/>
</g>
<!-- Node30 -->
<g id="node31" class="node">
<title>Node30</title>
<g id="a_node31"><a xlink:title=" ">
<polygon fill="#ffffff" stroke="#bfbfbf" points="911.7119,-220.5 911.7119,-238.5 958.2881,-238.5 958.2881,-220.5 911.7119,-220.5"/>
<text text-anchor="middle" x="935" y="-226.5" font-family="Helvetica,sans-Serif" font-size="10.00" fill="#000000">chrono</text>
</a>
</g>
</g>
<!-- Node9&#45;&gt;Node30 -->
<g id="edge56" class="edge">
<title>Node9&#45;&gt;Node30</title>
<path fill="none" stroke="#191970" d="M1039.3588,-275.4179C1019.0934,-266.5011 987.9615,-252.803 964.971,-242.6873"/>
<polygon fill="#191970" stroke="#191970" points="966.2346,-239.4195 955.6719,-238.5956 963.4154,-245.8267 966.2346,-239.4195"/>
</g>
<!-- Node31 -->
<g id="node32" class="node">
<title>Node31</title>
<g id="a_node32"><a xlink:title=" ">
<polygon fill="#ffffff" stroke="#bfbfbf" points="474.2734,-165.5 474.2734,-183.5 509.7266,-183.5 509.7266,-165.5 474.2734,-165.5"/>
<text text-anchor="middle" x="492" y="-171.5" font-family="Helvetica,sans-Serif" font-size="10.00" fill="#000000">map</text>
</a>
</g>
</g>
<!-- Node9&#45;&gt;Node31 -->
<g id="edge59" class="edge">
<title>Node9&#45;&gt;Node31</title>
<path fill="none" stroke="#191970" d="M1009.0537,-282.51C867.3333,-276.7296 477.6084,-259.0704 459,-239 446.0117,-224.9912 460.049,-204.9028 473.6167,-190.8789"/>
<polygon fill="#191970" stroke="#191970" points="476.1869,-193.262 480.9314,-183.7889 471.3149,-188.2356 476.1869,-193.262"/>
</g>
<!-- Node14&#45;&gt;Node1 -->
<g id="edge16" class="edge">
<title>Node14&#45;&gt;Node1</title>
<path fill="none" stroke="#191970" d="M953.9883,-117.1367C1076.1909,-108.6397 1494.2965,-79.5679 1651.0244,-68.6702"/>
<polygon fill="#191970" stroke="#191970" points="1651.674,-72.1336 1661.4071,-67.9483 1651.1884,-65.1505 1651.674,-72.1336"/>
</g>
<!-- Node14&#45;&gt;Node3 -->
<g id="edge17" class="edge">
<title>Node14&#45;&gt;Node3</title>
<path fill="none" stroke="#191970" d="M941.7095,-110.4031C977.9144,-95.7134 1053.2443,-67.1861 1120,-55 1142.3211,-50.9253 1844.8505,-18.6427 2010.334,-11.0809"/>
<polygon fill="#191970" stroke="#191970" points="2010.6146,-14.5718 2020.4445,-10.6191 2010.2952,-7.5791 2010.6146,-14.5718"/>
</g>
<!-- Node14&#45;&gt;Node4 -->
<g id="edge18" class="edge">
<title>Node14&#45;&gt;Node4</title>
<path fill="none" stroke="#191970" d="M919.5119,-110.1074C919.2415,-96.9527 920.2787,-72.6732 930,-55 936.6849,-42.847 947.939,-32.3902 958.2712,-24.5766"/>
<polygon fill="#191970" stroke="#191970" points="960.4842,-27.2979 966.6128,-18.6556 956.4324,-21.5897 960.4842,-27.2979"/>
</g>
<!-- Node14&#45;&gt;Node5 -->
<g id="edge19" class="edge">
<title>Node14&#45;&gt;Node5</title>
<path fill="none" stroke="#191970" d="M953.938,-116.0096C1058.1948,-105.3955 1383.1002,-73.1262 1653,-55 2027.0525,-29.879 2482.2763,-14.3443 2603.2711,-10.4612"/>
<polygon fill="#191970" stroke="#191970" points="2603.7296,-13.9485 2613.6131,-10.1317 2603.5066,-6.952 2603.7296,-13.9485"/>
</g>
<!-- Node14&#45;&gt;Node6 -->
<g id="edge21" class="edge">
<title>Node14&#45;&gt;Node6</title>
<path fill="none" stroke="#191970" d="M912.1676,-110.315C899.4304,-96.0275 872.7442,-68.7008 844,-55 807.2022,-37.4606 690.9294,-20.8027 634.0139,-13.4466"/>
<polygon fill="#191970" stroke="#191970" points="634.1487,-9.9355 623.7862,-12.1425 633.2632,-16.8793 634.1487,-9.9355"/>
</g>
<!-- Node14&#45;&gt;Node15 -->
<g id="edge20" class="edge">
<title>Node14&#45;&gt;Node15</title>
<path fill="none" stroke="#191970" d="M886.1277,-115.2756C802.7188,-104.8731 588.4408,-78.1491 509.1189,-68.2563"/>
<polygon fill="#191970" stroke="#191970" points="509.2058,-64.7401 498.8495,-66.9756 508.3395,-71.6863 509.2058,-64.7401"/>
</g>
<!-- Node16&#45;&gt;Node1 -->
<g id="edge23" class="edge">
<title>Node16&#45;&gt;Node1</title>
<path fill="none" stroke="#191970" d="M1404.4579,-222.2535C1359.1463,-214.7396 1297.23,-201.618 1280,-184 1256.6522,-160.1265 1244.6238,-134.7864 1267,-110 1279.7109,-95.92 1532.8124,-76.7548 1651.0694,-68.5246"/>
<polygon fill="#191970" stroke="#191970" points="1651.6635,-71.9919 1661.3979,-67.8097 1651.1801,-65.0086 1651.6635,-71.9919"/>
</g>
<!-- Node16&#45;&gt;Node3 -->
<g id="edge42" class="edge">
<title>Node16&#45;&gt;Node3</title>
<path fill="none" stroke="#191970" d="M1449.8453,-220.189C1442.8889,-206.2295 1432.8949,-179.9261 1447,-165 1544.2282,-62.1127 1985.7718,-231.8873 2083,-129 2110.1523,-100.2673 2079.6645,-52.1696 2059.647,-26.6365"/>
<polygon fill="#191970" stroke="#191970" points="2062.1433,-24.1592 2053.1149,-18.6149 2056.7154,-28.5793 2062.1433,-24.1592"/>
</g>
<!-- Node16&#45;&gt;Node5 -->
<g id="edge43" class="edge">
<title>Node16&#45;&gt;Node5</title>
<path fill="none" stroke="#191970" d="M1459.9652,-220.3702C1468.5511,-205.6331 1487.7088,-177.0394 1513,-165 1657.046,-96.4298 2075.7018,-169.5361 2230,-129 2248.2626,-124.2022 2250.9705,-118.1571 2268,-110 2281.2279,-103.6639 2374.0157,-59.423 2388,-55 2463.4918,-31.1232 2556.2132,-18.1792 2603.3436,-12.7052"/>
<polygon fill="#191970" stroke="#191970" points="2603.9529,-16.1587 2613.4977,-11.5603 2603.1685,-9.2028 2603.9529,-16.1587"/>
</g>
<!-- Node16&#45;&gt;Node6 -->
<g id="edge44" class="edge">
<title>Node16&#45;&gt;Node6</title>
<path fill="none" stroke="#191970" d="M1404.2031,-226.9563C1240.2503,-218.6697 734.8738,-192.4968 720,-184 658.1491,-148.6671 622.1083,-66.0867 608.4067,-28.6068"/>
<polygon fill="#191970" stroke="#191970" points="611.6178,-27.1877 604.9988,-18.9149 605.0142,-29.5097 611.6178,-27.1877"/>
</g>
<!-- Node16&#45;&gt;Node17 -->
<g id="edge24" class="edge">
<title>Node16&#45;&gt;Node17</title>
<path fill="none" stroke="#191970" d="M1433.2029,-220.4179C1411.7071,-211.4613 1378.6336,-197.6806 1354.3248,-187.552"/>
<polygon fill="#191970" stroke="#191970" points="1355.4064,-184.2111 1344.8295,-183.5956 1352.7141,-190.6726 1355.4064,-184.2111"/>
</g>
<!-- Node20 -->
<g id="node21" class="node">
<title>Node20</title>
<g id="a_node21"><a xlink:title=" ">
<polygon fill="#ffffff" stroke="#bfbfbf" points="3114.8843,-110.5 3114.8843,-128.5 3163.1157,-128.5 3163.1157,-110.5 3114.8843,-110.5"/>
<text text-anchor="middle" x="3139" y="-116.5" font-family="Helvetica,sans-Serif" font-size="10.00" fill="#000000">cassert</text>
</a>
</g>
</g>
<!-- Node16&#45;&gt;Node20 -->
<g id="edge41" class="edge">
<title>Node16&#45;&gt;Node20</title>
<path fill="none" stroke="#191970" d="M1464.9526,-220.4626C1482.0629,-205.5846 1518.815,-176.4429 1556,-165 1632.5131,-141.4547 2880.3902,-123.0868 3104.6289,-119.9681"/>
<polygon fill="#191970" stroke="#191970" points="3104.8622,-123.4653 3114.8128,-119.8272 3104.7653,-116.466 3104.8622,-123.4653"/>
</g>
<!-- Node17&#45;&gt;Node1 -->
<g id="edge25" class="edge">
<title>Node17&#45;&gt;Node1</title>
<path fill="none" stroke="#191970" d="M1357.038,-167.4745C1361.7201,-166.5926 1366.473,-165.7413 1371,-165 1493.5147,-144.9375 1536.9352,-184.4704 1648,-129 1669.3382,-118.3428 1687.5945,-97.5211 1698.8779,-82.4107"/>
<polygon fill="#191970" stroke="#191970" points="1702.0048,-84.0545 1704.9676,-73.8824 1696.308,-79.9867 1702.0048,-84.0545"/>
</g>
<!-- Node17&#45;&gt;Node3 -->
<g id="edge34" class="edge">
<title>Node17&#45;&gt;Node3</title>
<path fill="none" stroke="#191970" d="M1357.0503,-167.5473C1361.7305,-166.6542 1366.4796,-165.7803 1371,-165 1479.0208,-146.3532 1525.8758,-192.8206 1615,-129 1645.0596,-107.4748 1622.6111,-76.0578 1653,-55 1682.1496,-34.8009 1920.5747,-17.5118 2010.6843,-11.6388"/>
<polygon fill="#191970" stroke="#191970" points="2010.9138,-15.1314 2020.668,-10.9954 2010.4635,-8.1459 2010.9138,-15.1314"/>
</g>
<!-- Node17&#45;&gt;Node4 -->
<g id="edge35" class="edge">
<title>Node17&#45;&gt;Node4</title>
<path fill="none" stroke="#191970" d="M1304.1806,-165.3939C1247.3563,-137.8982 1077.2998,-55.6128 1009.9302,-23.0146"/>
<polygon fill="#191970" stroke="#191970" points="1011.2873,-19.7831 1000.7612,-18.578 1008.2383,-26.0842 1011.2873,-19.7831"/>
</g>
<!-- Node17&#45;&gt;Node5 -->
<g id="edge39" class="edge">
<title>Node17&#45;&gt;Node5</title>
<path fill="none" stroke="#191970" d="M1356.9901,-167.1406C1361.6796,-166.3106 1366.4473,-165.5626 1371,-165 1685.4566,-126.1399 1771.215,-185.4198 2083,-129 2136.4582,-119.3264 2263.0408,-67.111 2316,-55 2420.1937,-31.1725 2546.6036,-17.5207 2603.5718,-12.1629"/>
<polygon fill="#191970" stroke="#191970" points="2604.0601,-15.6328 2613.6967,-11.2299 2603.4176,-8.6624 2604.0601,-15.6328"/>
</g>
<!-- Node17&#45;&gt;Node6 -->
<g id="edge40" class="edge">
<title>Node17&#45;&gt;Node6</title>
<path fill="none" stroke="#191970" d="M1289.1461,-171.2015C1185.8859,-161.121 881.6453,-131.2662 877,-129 836.0358,-109.0159 845.717,-77.3605 806,-55 776.7749,-38.5464 683.3909,-22.1309 633.741,-14.2772"/>
<polygon fill="#191970" stroke="#191970" points="634.2688,-10.8173 623.8489,-12.7344 633.19,-17.7337 634.2688,-10.8173"/>
</g>
<!-- Node18 -->
<g id="node19" class="node">
<title>Node18</title>
<g id="a_node19"><a xlink:href="Ioss__Field_8h.html" target="_top" xlink:title=" ">
<polygon fill="#ffffff" stroke="#000000" points="2004.042,-110.5 2004.042,-128.5 2073.958,-128.5 2073.958,-110.5 2004.042,-110.5"/>
<text text-anchor="middle" x="2039" y="-116.5" font-family="Helvetica,sans-Serif" font-size="10.00" fill="#000000">Ioss_Field.h</text>
</a>
</g>
</g>
<!-- Node17&#45;&gt;Node18 -->
<g id="edge26" class="edge">
<title>Node17&#45;&gt;Node18</title>
<path fill="none" stroke="#191970" d="M1356.9996,-167.215C1361.6876,-166.3734 1366.4524,-165.6024 1371,-165 1603.7994,-134.1618 1885.1744,-123.66 1993.4799,-120.6025"/>
<polygon fill="#191970" stroke="#191970" points="1993.8155,-124.0947 2003.7156,-120.3213 1993.6233,-117.0973 1993.8155,-124.0947"/>
</g>
<!-- Node19 -->
<g id="node20" class="node">
<title>Node19</title>
<g id="a_node20"><a xlink:title=" ">
<polygon fill="#ffffff" stroke="#bfbfbf" points="1276.436,-110.5 1276.436,-128.5 1333.564,-128.5 1333.564,-110.5 1276.436,-110.5"/>
<text text-anchor="middle" x="1305" y="-116.5" font-family="Helvetica,sans-Serif" font-size="10.00" fill="#000000">algorithm</text>
</a>
</g>
</g>
<!-- Node17&#45;&gt;Node19 -->
<g id="edge31" class="edge">
<title>Node17&#45;&gt;Node19</title>
<path fill="none" stroke="#191970" d="M1320.0277,-165.4179C1317.6449,-158.1372 1314.2189,-147.669 1311.2397,-138.5659"/>
<polygon fill="#191970" stroke="#191970" points="1314.4738,-137.1948 1308.0369,-128.7795 1307.821,-139.3721 1314.4738,-137.1948"/>
</g>
<!-- Node17&#45;&gt;Node20 -->
<g id="edge32" class="edge">
<title>Node17&#45;&gt;Node20</title>
<path fill="none" stroke="#191970" d="M1356.9636,-172.6866C1396.7465,-170.6089 1464.6426,-167.2073 1523,-165 2157.9604,-140.983 2933.706,-123.8603 3104.6376,-120.2212"/>
<polygon fill="#191970" stroke="#191970" points="3104.8698,-123.7172 3114.7933,-120.0057 3104.7212,-116.7187 3104.8698,-123.7172"/>
</g>
<!-- Node21 -->
<g id="node22" class="node">
<title>Node21</title>
<g id="a_node22"><a xlink:title=" ">
<polygon fill="#ffffff" stroke="#bfbfbf" points="1351.3843,-110.5 1351.3843,-128.5 1394.6157,-128.5 1394.6157,-110.5 1351.3843,-110.5"/>
<text text-anchor="middle" x="1373" y="-116.5" font-family="Helvetica,sans-Serif" font-size="10.00" fill="#000000">cmath</text>
</a>
</g>
</g>
<!-- Node17&#45;&gt;Node21 -->
<g id="edge33" class="edge">
<title>Node17&#45;&gt;Node21</title>
<path fill="none" stroke="#191970" d="M1331.2565,-165.4179C1338.4508,-157.5041 1349.0688,-145.8243 1357.7954,-136.2251"/>
<polygon fill="#191970" stroke="#191970" points="1360.4272,-138.5332 1364.5641,-128.7795 1355.2476,-133.8245 1360.4272,-138.5332"/>
</g>
<!-- Node22 -->
<g id="node23" class="node">
<title>Node22</title>
<g id="a_node23"><a xlink:title=" ">
<polygon fill="#ffffff" stroke="#bfbfbf" points="1412.8276,-110.5 1412.8276,-128.5 1457.1724,-128.5 1457.1724,-110.5 1412.8276,-110.5"/>
<text text-anchor="middle" x="1435" y="-116.5" font-family="Helvetica,sans-Serif" font-size="10.00" fill="#000000">cstdlib</text>
</a>
</g>
</g>
<!-- Node17&#45;&gt;Node22 -->
<g id="edge36" class="edge">
<title>Node17&#45;&gt;Node22</title>
<path fill="none" stroke="#191970" d="M1341.4945,-165.4179C1359.4092,-156.6205 1386.8011,-143.1691 1407.3144,-133.0956"/>
<polygon fill="#191970" stroke="#191970" points="1409.0447,-136.1452 1416.478,-128.5956 1405.9591,-129.8619 1409.0447,-136.1452"/>
</g>
<!-- Node23 -->
<g id="node24" class="node">
<title>Node23</title>
<g id="a_node24"><a xlink:title=" ">
<polygon fill="#ffffff" stroke="#bfbfbf" points="1474.8276,-110.5 1474.8276,-128.5 1529.1724,-128.5 1529.1724,-110.5 1474.8276,-110.5"/>
<text text-anchor="middle" x="1502" y="-116.5" font-family="Helvetica,sans-Serif" font-size="10.00" fill="#000000">iostream</text>
</a>
</g>
</g>
<!-- Node17&#45;&gt;Node23 -->
<g id="edge37" class="edge">
<title>Node17&#45;&gt;Node23</title>
<path fill="none" stroke="#191970" d="M1352.5582,-165.4179C1383.3347,-155.9614 1431.6124,-141.1275 1464.9249,-130.8918"/>
<polygon fill="#191970" stroke="#191970" points="1466.2159,-134.1567 1474.7468,-127.8739 1464.1599,-127.4654 1466.2159,-134.1567"/>
</g>
<!-- Node24 -->
<g id="node25" class="node">
<title>Node24</title>
<g id="a_node25"><a xlink:title=" ">
<polygon fill="#ffffff" stroke="#bfbfbf" points="1547.5986,-110.5 1547.5986,-128.5 1606.4014,-128.5 1606.4014,-110.5 1547.5986,-110.5"/>
<text text-anchor="middle" x="1577" y="-116.5" font-family="Helvetica,sans-Serif" font-size="10.00" fill="#000000">stdexcept</text>
</a>
</g>
</g>
<!-- Node17&#45;&gt;Node24 -->
<g id="edge38" class="edge">
<title>Node17&#45;&gt;Node24</title>
<path fill="none" stroke="#191970" d="M1356.956,-167.6461C1397.4838,-159.3927 1467.5427,-144.8958 1537.3641,-129.0928"/>
<polygon fill="#191970" stroke="#191970" points="1538.2359,-132.484 1547.2115,-126.8548 1536.6845,-125.6581 1538.2359,-132.484"/>
</g>
<!-- Node18&#45;&gt;Node1 -->
<g id="edge27" class="edge">
<title>Node18&#45;&gt;Node1</title>
<path fill="none" stroke="#191970" d="M2003.9599,-112.5748C1999.2706,-111.6867 1994.5212,-110.8068 1990,-110 1914.4977,-96.5274 1827.2083,-82.5482 1770.6578,-73.7013"/>
<polygon fill="#191970" stroke="#191970" points="1770.8862,-70.1946 1760.4661,-72.1104 1769.8066,-77.1109 1770.8862,-70.1946"/>
</g>
<!-- Node18&#45;&gt;Node3 -->
<g id="edge28" class="edge">
<title>Node18&#45;&gt;Node3</title>
<path fill="none" stroke="#191970" d="M2030.806,-110.4941C2020.6406,-98.1879 2005.4062,-75.3225 2012,-55 2015.4422,-44.3911 2022.3888,-34.1855 2029.0245,-26.1379"/>
<polygon fill="#191970" stroke="#191970" points="2031.6775,-28.4211 2035.667,-18.606 2026.4275,-23.791 2031.6775,-28.4211"/>
</g>
<!-- Node18&#45;&gt;Node5 -->
<g id="edge29" class="edge">
<title>Node18&#45;&gt;Node5</title>
<path fill="none" stroke="#191970" d="M2067.3979,-110.4812C2111.8694,-96.6666 2200.8472,-70.2671 2278,-55 2397.3584,-31.3812 2541.7655,-17.3206 2603.5579,-11.979"/>
<polygon fill="#191970" stroke="#191970" points="2604.1038,-15.4453 2613.7714,-11.111 2603.5109,-8.4704 2604.1038,-15.4453"/>
</g>
<!-- Node18&#45;&gt;Node6 -->
<g id="edge30" class="edge">
<title>Node18&#45;&gt;Node6</title>
<path fill="none" stroke="#191970" d="M2003.8151,-112.6563C1942.369,-100.6752 1821.1238,-76.8919 1812,-74 1792.0829,-67.6871 1789.3552,-59.7127 1769,-55 1712.2291,-41.8561 816.098,-15.6203 634.1,-10.4112"/>
<polygon fill="#191970" stroke="#191970" points="634.1819,-6.9122 624.0861,-10.1252 633.982,-13.9094 634.1819,-6.9122"/>
</g>
<!-- Node25&#45;&gt;Node1 -->
<g id="edge46" class="edge">
<title>Node25&#45;&gt;Node1</title>
<path fill="none" stroke="#191970" d="M2129.3578,-220.3998C2158.4758,-208.9368 2198.9098,-187.9443 2180,-165 2126.7259,-100.3597 2076.9632,-146.2779 1995,-129 1911.8636,-111.4748 1815.502,-89.1657 1759.0989,-75.9042"/>
<polygon fill="#191970" stroke="#191970" points="1759.5805,-72.4219 1749.0444,-73.5364 1757.9759,-79.2355 1759.5805,-72.4219"/>
</g>
<!-- Node25&#45;&gt;Node3 -->
<g id="edge50" class="edge">
<title>Node25&#45;&gt;Node3</title>
<path fill="none" stroke="#191970" d="M2143.2248,-220.4433C2162.7252,-213.8096 2184.3908,-202.604 2196,-184 2203.5523,-171.8973 2207.9739,-137.7793 2192,-110 2166.7148,-66.0279 2113.4574,-37.1379 2078.4699,-22.0599"/>
<polygon fill="#191970" stroke="#191970" points="2079.7019,-18.7817 2069.1246,-18.1724 2077.0132,-25.2448 2079.7019,-18.7817"/>
</g>
<!-- Node25&#45;&gt;Node5 -->
<g id="edge51" class="edge">
<title>Node25&#45;&gt;Node5</title>
<path fill="none" stroke="#191970" d="M2131.0622,-220.3973C2181.7464,-203.7349 2291.6852,-166.5763 2382,-129 2465.7142,-94.1699 2561.7945,-46.3545 2607.3568,-23.1873"/>
<polygon fill="#191970" stroke="#191970" points="2609.2276,-26.1621 2616.5455,-18.5006 2606.047,-19.9264 2609.2276,-26.1621"/>
</g>
<!-- Node25&#45;&gt;Node6 -->
<g id="edge53" class="edge">
<title>Node25&#45;&gt;Node6</title>
<path fill="none" stroke="#191970" d="M2040.2056,-220.9015C2037.0955,-220.574 2034.0139,-220.2706 2031,-220 1698.1777,-190.1182 1612.8852,-213.1724 1280,-184 1231.9071,-179.7854 895.0891,-143.3697 849,-129 780.6824,-107.6999 770.5926,-85.8023 706,-55 681.7363,-43.4294 653.8046,-31.2719 633.0015,-22.4376"/>
<polygon fill="#191970" stroke="#191970" points="634.2707,-19.1743 623.6969,-18.5059 631.546,-25.6223 634.2707,-19.1743"/>
</g>
<!-- Node26 -->
<g id="node27" class="node">
<title>Node26</title>
<g id="a_node27"><a xlink:href="Ioss__Property_8h.html" target="_top" xlink:title=" ">
<polygon fill="#ffffff" stroke="#000000" points="2533.3516,-165.5 2533.3516,-183.5 2618.6484,-183.5 2618.6484,-165.5 2533.3516,-165.5"/>
<text text-anchor="middle" x="2576" y="-171.5" font-family="Helvetica,sans-Serif" font-size="10.00" fill="#000000">Ioss_Property.h</text>
</a>
</g>
</g>
<!-- Node25&#45;&gt;Node26 -->
<g id="edge47" class="edge">
<title>Node25&#45;&gt;Node26</title>
<path fill="none" stroke="#191970" d="M2165.8107,-222.1964C2259.8431,-211.2624 2435.519,-190.835 2523.2797,-180.6303"/>
<polygon fill="#191970" stroke="#191970" points="2523.7513,-184.0991 2533.2801,-179.4674 2522.9428,-177.1459 2523.7513,-184.0991"/>
</g>
<!-- Node27 -->
<g id="node28" class="node">
<title>Node27</title>
<g id="a_node28"><a xlink:title=" ">
<polygon fill="#ffffff" stroke="#bfbfbf" points="2084.6973,-165.5 2084.6973,-183.5 2171.3027,-183.5 2171.3027,-165.5 2084.6973,-165.5"/>
<text text-anchor="middle" x="2128" y="-171.5" font-family="Helvetica,sans-Serif" font-size="10.00" fill="#000000">unordered_map</text>
</a>
</g>
</g>
<!-- Node25&#45;&gt;Node27 -->
<g id="edge52" class="edge">
<title>Node25&#45;&gt;Node27</title>
<path fill="none" stroke="#191970" d="M2107.1282,-220.4179C2110.5096,-212.9789 2115.4035,-202.2123 2119.6027,-192.9742"/>
<polygon fill="#191970" stroke="#191970" points="2122.8303,-194.3315 2123.7821,-183.7795 2116.4577,-191.4348 2122.8303,-194.3315"/>
</g>
<!-- Node26&#45;&gt;Node4 -->
<g id="edge48" class="edge">
<title>Node26&#45;&gt;Node4</title>
<path fill="none" stroke="#191970" d="M2533.0884,-166.3377C2416.4409,-144.4805 2083.5493,-84.3014 1804,-55 1498.2571,-22.9531 1126.0158,-12.6379 1014.846,-10.1594"/>
<polygon fill="#191970" stroke="#191970" points="1014.6945,-6.6553 1004.6208,-9.9373 1014.5424,-13.6537 1014.6945,-6.6553"/>
</g>
<!-- Node26&#45;&gt;Node5 -->
<g id="edge49" class="edge">
<title>Node26&#45;&gt;Node5</title>
<path fill="none" stroke="#191970" d="M2594.5796,-165.4572C2610.029,-157.3402 2631.9979,-144.3588 2648,-129 2669.4356,-108.4262 2677.1544,-102.3641 2686,-74 2688.514,-65.9385 2689.4894,-62.6898 2686,-55 2680.3461,-42.54 2669.4074,-32.1506 2659.0156,-24.4602"/>
<polygon fill="#191970" stroke="#191970" points="2660.7695,-21.4191 2650.5432,-18.6489 2656.81,-27.1916 2660.7695,-21.4191"/>
</g>
<!-- Node32&#45;&gt;Node1 -->
<g id="edge64" class="edge">
<title>Node32&#45;&gt;Node1</title>
<path fill="none" stroke="#191970" d="M566.663,-220.4331C658.9476,-197.9706 908.5767,-139.4358 1120,-110 1221.47,-95.8726 1522.6074,-76.197 1651.4423,-68.1495"/>
<polygon fill="#191970" stroke="#191970" points="1651.7598,-71.6366 1661.5228,-67.5216 1651.3245,-64.6502 1651.7598,-71.6366"/>
</g>
<!-- Node32&#45;&gt;Node5 -->
<g id="edge66" class="edge">
<title>Node32&#45;&gt;Node5</title>
<path fill="none" stroke="#191970" d="M592.2178,-225.3087C618.3914,-223.5898 649.1717,-221.6262 677,-220 983.1177,-202.1119 1061.1005,-216.6244 1366,-184 1418.3822,-178.3951 1430.6279,-170.698 1483,-165 1768.4285,-133.9459 1845.706,-181.3821 2128,-129 2206.4945,-114.4347 2224.1533,-101.776 2299,-74 2319.3533,-66.4468 2323.1213,-60.9489 2344,-55 2436.3947,-28.6743 2549.9677,-16.4474 2603.4274,-11.8304"/>
<polygon fill="#191970" stroke="#191970" points="2603.9195,-15.3016 2613.5939,-10.9824 2603.3375,-8.3259 2603.9195,-15.3016"/>
</g>
<!-- Node32&#45;&gt;Node6 -->
<g id="edge67" class="edge">
<title>Node32&#45;&gt;Node6</title>
<path fill="none" stroke="#191970" d="M533.0021,-220.327C543.8204,-187.271 580.9505,-73.8179 595.795,-28.4598"/>
<polygon fill="#191970" stroke="#191970" points="599.201,-29.3048 598.9851,-18.7122 592.5483,-27.1275 599.201,-29.3048"/>
</g>
<!-- Node32&#45;&gt;Node31 -->
<g id="edge65" class="edge">
<title>Node32&#45;&gt;Node31</title>
<path fill="none" stroke="#191970" d="M523.7251,-220.4179C518.4214,-212.7415 510.6695,-201.5217 504.1562,-192.0945"/>
<polygon fill="#191970" stroke="#191970" points="506.9752,-190.0173 498.4113,-183.7795 501.2161,-193.9963 506.9752,-190.0173"/>
</g>
<!-- Node33&#45;&gt;Node3 -->
<g id="edge106" class="edge">
<title>Node33&#45;&gt;Node3</title>
<path fill="none" stroke="#191970" d="M1032.2151,-390.0915C1095.7035,-382.9059 1222.9517,-367.5875 1330,-349 1565.9724,-308.0265 1643.0235,-315.7997 1843,-184 1918.2671,-134.3933 1995.7763,-59.4263 2028.6659,-26.2777"/>
<polygon fill="#191970" stroke="#191970" points="2031.5149,-28.3729 2036.0378,-18.792 2026.5273,-23.4612 2031.5149,-28.3729"/>
</g>
<!-- Node33&#45;&gt;Node4 -->
<g id="edge107" class="edge">
<title>Node33&#45;&gt;Node4</title>
<path fill="none" stroke="#191970" d="M951.9182,-392.2741C860.0332,-386.8424 636.6074,-371.6718 565,-349 517.0136,-333.8069 503.2838,-327.815 466,-294 421.3376,-253.4929 420.1861,-225.1748 424,-165 427.1842,-114.7607 411.0397,-85.6153 451,-55 490.5829,-24.6739 840.0303,-13.1579 949.4151,-10.2769"/>
<polygon fill="#191970" stroke="#191970" points="949.6168,-13.773 959.5237,-10.0174 949.4371,-6.7753 949.6168,-13.773"/>
</g>
<!-- Node33&#45;&gt;Node5 -->
<g id="edge111" class="edge">
<title>Node33&#45;&gt;Node5</title>
<path fill="none" stroke="#191970" d="M1032.2267,-393.7029C1215.3782,-389.9519 1965.8949,-373.2196 2068,-349 2178.4648,-322.7975 2449.9773,-144.3684 2476,-129 2516.6913,-104.9687 2529.5229,-102.7881 2567,-74 2586.0526,-59.3647 2605.5921,-39.9521 2618.6159,-26.26"/>
<polygon fill="#191970" stroke="#191970" points="2621.1931,-28.6284 2625.4781,-18.9387 2616.0858,-23.8413 2621.1931,-28.6284"/>
</g>
<!-- Node33&#45;&gt;Node6 -->
<g id="edge113" class="edge">
<title>Node33&#45;&gt;Node6</title>
<path fill="none" stroke="#191970" d="M951.975,-393.7512C782.246,-390.4134 129.0789,-375.861 95,-349 71.5296,-330.5007 76,-314.3846 76,-284.5 76,-284.5 76,-284.5 76,-119.5 76,-72.4303 116.2655,-72.4025 160,-55 234.8263,-25.2256 481.6112,-13.7526 570.0849,-10.5336"/>
<polygon fill="#191970" stroke="#191970" points="570.4348,-14.0236 580.3052,-10.1732 570.188,-7.0279 570.4348,-14.0236"/>
</g>
<!-- Node33&#45;&gt;Node9 -->
<g id="edge72" class="edge">
<title>Node33&#45;&gt;Node9</title>
<path fill="none" stroke="#191970" d="M997.5647,-385.4982C1008.7719,-367.369 1034.2436,-326.1647 1048.9556,-302.3659"/>
<polygon fill="#191970" stroke="#191970" points="1052.0772,-303.9725 1054.3584,-293.6261 1046.123,-300.2917 1052.0772,-303.9725"/>
</g>
<!-- Node33&#45;&gt;Node13 -->
<g id="edge73" class="edge">
<title>Node33&#45;&gt;Node13</title>
<path fill="none" stroke="#191970" d="M1032.0528,-394.3661C1258.6552,-393.4672 2372.0105,-387.1182 2433,-349 2468.8337,-326.604 2485.4342,-276.5387 2492.1243,-248.8459"/>
<polygon fill="#191970" stroke="#191970" points="2495.603,-249.325 2494.3495,-238.8046 2488.7688,-247.8104 2495.603,-249.325"/>
</g>
<!-- Node33&#45;&gt;Node15 -->
<g id="edge112" class="edge">
<title>Node33&#45;&gt;Node15</title>
<path fill="none" stroke="#191970" d="M951.921,-392.1303C886.7628,-387.6373 754.1575,-375.8183 645,-349 576.0438,-332.0586 554.4847,-332.7755 495,-294 441.0488,-258.8315 421.5428,-228.9683 429,-165 431.9085,-140.051 430.9071,-132.5358 442,-110 447.1934,-99.4494 455.2321,-89.1572 462.4916,-81.038"/>
<polygon fill="#191970" stroke="#191970" points="465.0716,-83.4034 469.3571,-73.7139 459.9645,-78.6161 465.0716,-83.4034"/>
</g>
<!-- Node33&#45;&gt;Node26 -->
<g id="edge104" class="edge">
<title>Node33&#45;&gt;Node26</title>
<path fill="none" stroke="#191970" d="M1032.2186,-393.9839C1247.797,-391.1092 2259.0056,-376.2125 2319,-349 2390.5876,-316.5289 2373.8253,-262.4272 2440,-220 2465.2759,-203.7946 2496.9177,-192.7602 2523.3189,-185.6211"/>
<polygon fill="#191970" stroke="#191970" points="2524.3537,-188.9687 2533.1566,-183.073 2522.5985,-182.1923 2524.3537,-188.9687"/>
</g>
<!-- Node33&#45;&gt;Node28 -->
<g id="edge105" class="edge">
<title>Node33&#45;&gt;Node28</title>
<path fill="none" stroke="#191970" d="M1003.7262,-385.4526C1026.3502,-367.9617 1077.5408,-328.2147 1120,-294 1140.3183,-277.627 1163.3104,-258.5456 1179.0375,-245.4073"/>
<polygon fill="#191970" stroke="#191970" points="1181.5409,-247.8763 1186.9641,-238.7746 1177.0487,-242.5077 1181.5409,-247.8763"/>
</g>
<!-- Node33&#45;&gt;Node31 -->
<g id="edge110" class="edge">
<title>Node33&#45;&gt;Node31</title>
<path fill="none" stroke="#191970" d="M951.7807,-389.1941C836.9472,-373.1406 511.8535,-321.0946 450,-239 437.8114,-222.8228 454.7812,-203.19 470.653,-189.8652"/>
<polygon fill="#191970" stroke="#191970" points="473.0086,-192.465 478.6926,-183.5239 468.6734,-186.9689 473.0086,-192.465"/>
</g>
<!-- Node34 -->
<g id="node35" class="node">
<title>Node34</title>
<g id="a_node35"><a xlink:href="Ioss__CoordinateFrame_8h.html" target="_top" xlink:title=" ">
<polygon fill="#ffffff" stroke="#000000" points="239.9731,-55.5 239.9731,-73.5 366.0269,-73.5 366.0269,-55.5 239.9731,-55.5"/>
<text text-anchor="middle" x="303" y="-61.5" font-family="Helvetica,sans-Serif" font-size="10.00" fill="#000000">Ioss_CoordinateFrame.h</text>
</a>
</g>
</g>
<!-- Node33&#45;&gt;Node34 -->
<g id="edge69" class="edge">
<title>Node33&#45;&gt;Node34</title>
<path fill="none" stroke="#191970" d="M951.6496,-393.8118C824.5919,-391.3298 433.9774,-381.2088 312,-349 305.2011,-347.2047 203.3425,-298.5722 198,-294 169.9104,-269.9607 146.5693,-254.4461 160,-220 184.4609,-157.2644 247.3851,-104.5349 281.0228,-79.7258"/>
<polygon fill="#191970" stroke="#191970" points="283.2317,-82.448 289.2907,-73.7566 279.1342,-76.7726 283.2317,-82.448"/>
</g>
<!-- Node35 -->
<g id="node36" class="node">
<title>Node35</title>
<g id="a_node36"><a xlink:href="Ioss__GroupingEntity_8h.html" target="_top" xlink:title=" ">
<polygon fill="#ffffff" stroke="#000000" points="1945.1743,-330.5 1945.1743,-348.5 2058.8257,-348.5 2058.8257,-330.5 1945.1743,-330.5"/>
<text text-anchor="middle" x="2002" y="-336.5" font-family="Helvetica,sans-Serif" font-size="10.00" fill="#000000">Ioss_GroupingEntity.h</text>
</a>
</g>
</g>
<!-- Node33&#45;&gt;Node35 -->
<g id="edge74" class="edge">
<title>Node33&#45;&gt;Node35</title>
<path fill="none" stroke="#191970" d="M1032.2165,-392.31C1186.4852,-383.9092 1741.4309,-353.6894 1934.902,-343.1539"/>
<polygon fill="#191970" stroke="#191970" points="1935.1407,-346.6461 1944.9356,-342.6075 1934.76,-339.6565 1935.1407,-346.6461"/>
</g>
<!-- Node37 -->
<g id="node38" class="node">
<title>Node37</title>
<g id="a_node38"><a xlink:title=" ">
<polygon fill="#ffffff" stroke="#bfbfbf" points="1704.5962,-165.5 1704.5962,-183.5 1763.4038,-183.5 1763.4038,-165.5 1704.5962,-165.5"/>
<text text-anchor="middle" x="1734" y="-171.5" font-family="Helvetica,sans-Serif" font-size="10.00" fill="#000000">functional</text>
</a>
</g>
</g>
<!-- Node33&#45;&gt;Node37 -->
<g id="edge108" class="edge">
<title>Node33&#45;&gt;Node37</title>
<path fill="none" stroke="#191970" d="M1032.2768,-388.0881C1175.9561,-364.9045 1657.5846,-284.4118 1710,-239 1723.2406,-227.5286 1729.1871,-208.0387 1731.8514,-193.4788"/>
<polygon fill="#191970" stroke="#191970" points="1735.3237,-193.9229 1733.3155,-183.5201 1728.3981,-192.9047 1735.3237,-193.9229"/>
</g>
<!-- Node40 -->
<g id="node41" class="node">
<title>Node40</title>
<g id="a_node41"><a xlink:href="Ioss__MeshType_8h.html" target="_top" xlink:title=" ">
<polygon fill="#ffffff" stroke="#000000" points="103.8105,-330.5 103.8105,-348.5 198.1895,-348.5 198.1895,-330.5 103.8105,-330.5"/>
<text text-anchor="middle" x="151" y="-336.5" font-family="Helvetica,sans-Serif" font-size="10.00" fill="#000000">Ioss_MeshType.h</text>
</a>
</g>
</g>
<!-- Node33&#45;&gt;Node40 -->
<g id="edge103" class="edge">
<title>Node33&#45;&gt;Node40</title>
<path fill="none" stroke="#191970" d="M951.837,-393.7329C837.3165,-391.214 499.2222,-381.4723 208.6215,-349.0639"/>
<polygon fill="#191970" stroke="#191970" points="208.6334,-345.5432 198.3044,-347.9015 207.8496,-352.4992 208.6334,-345.5432"/>
</g>
<!-- Node41 -->
<g id="node42" class="node">
<title>Node41</title>
<g id="a_node42"><a xlink:title=" ">
<polygon fill="#ffffff" stroke="#bfbfbf" points="215.8276,-330.5 215.8276,-348.5 260.1724,-348.5 260.1724,-330.5 215.8276,-330.5"/>
<text text-anchor="middle" x="238" y="-336.5" font-family="Helvetica,sans-Serif" font-size="10.00" fill="#000000">iosfwd</text>
</a>
</g>
</g>
<!-- Node33&#45;&gt;Node41 -->
<g id="edge109" class="edge">
<title>Node33&#45;&gt;Node41</title>
<path fill="none" stroke="#191970" d="M951.9367,-392.9898C820.9521,-387.891 406.2334,-370.4275 274,-349 272.7438,-348.7964 271.4679,-348.568 270.1827,-348.3197"/>
<polygon fill="#191970" stroke="#191970" points="270.8468,-344.8818 260.3235,-346.1113 269.3167,-351.7125 270.8468,-344.8818"/>
</g>
<!-- Node34&#45;&gt;Node4 -->
<g id="edge70" class="edge">
<title>Node34&#45;&gt;Node4</title>
<path fill="none" stroke="#191970" d="M366.4226,-56.4339C371.0146,-55.924 375.5769,-55.4398 380,-55 596.7336,-33.4517 858.2697,-16.906 949.0665,-11.4397"/>
<polygon fill="#191970" stroke="#191970" points="949.5055,-14.9198 959.2784,-10.8284 949.0871,-7.9323 949.5055,-14.9198"/>
</g>
<!-- Node34&#45;&gt;Node6 -->
<g id="edge71" class="edge">
<title>Node34&#45;&gt;Node6</title>
<path fill="none" stroke="#191970" d="M352.039,-55.4795C413.7276,-44.1321 517.8906,-24.9716 570.1238,-15.3635"/>
<polygon fill="#191970" stroke="#191970" points="570.9474,-18.7708 580.1491,-13.5194 569.6809,-11.8863 570.9474,-18.7708"/>
</g>
<!-- Node35&#45;&gt;Node1 -->
<g id="edge75" class="edge">
<title>Node35&#45;&gt;Node1</title>
<path fill="none" stroke="#191970" d="M1992.6356,-330.3285C1975.0074,-312.949 1935.8898,-273.8356 1905,-239 1855.9537,-183.6886 1857.4773,-156.4892 1800,-110 1783.3789,-96.5564 1762.1456,-85.5152 1744.5876,-77.6773"/>
<polygon fill="#191970" stroke="#191970" points="1745.8326,-74.4026 1735.264,-73.6575 1743.0612,-80.8307 1745.8326,-74.4026"/>
</g>
<!-- Node35&#45;&gt;Node3 -->
<g id="edge99" class="edge">
<title>Node35&#45;&gt;Node3</title>
<path fill="none" stroke="#191970" d="M2033.1697,-330.4333C2058.0555,-322.5543 2093.3735,-309.9139 2122,-294 2157.1954,-274.4343 2170.9607,-272.0261 2194,-239 2208.6386,-218.016 2207.1794,-209.2986 2211,-184 2220.112,-123.664 2213.4803,-90.7094 2164,-55 2138.3053,-36.4565 2104.1017,-24.4182 2078.9594,-17.4116"/>
<polygon fill="#191970" stroke="#191970" points="2079.6929,-13.9851 2069.1293,-14.7982 2077.8943,-20.7501 2079.6929,-13.9851"/>
</g>
<!-- Node35&#45;&gt;Node4 -->
<g id="edge100" class="edge">
<title>Node35&#45;&gt;Node4</title>
<path fill="none" stroke="#191970" d="M1945.0095,-334.3409C1836.3797,-323.5729 1592.869,-294.9306 1395,-239 1332.6545,-221.3771 1318.598,-211.637 1260,-184 1213.4172,-162.0298 1202.0289,-155.7226 1158,-129 1100.2807,-93.9683 1035.2453,-48.03 1002.7771,-24.6268"/>
<polygon fill="#191970" stroke="#191970" points="1004.67,-21.6763 994.5162,-18.6513 1000.5673,-27.3481 1004.67,-21.6763"/>
</g>
<!-- Node35&#45;&gt;Node5 -->
<g id="edge101" class="edge">
<title>Node35&#45;&gt;Node5</title>
<path fill="none" stroke="#191970" d="M2038.6294,-330.4412C2069.6052,-322.3145 2114.8982,-309.3278 2153,-294 2346.3105,-216.234 2401.7578,-200.9311 2567,-74 2586.0526,-59.3647 2605.5921,-39.9521 2618.6159,-26.26"/>
<polygon fill="#191970" stroke="#191970" points="2621.1931,-28.6284 2625.4781,-18.9387 2616.0858,-23.8413 2621.1931,-28.6284"/>
</g>
<!-- Node35&#45;&gt;Node6 -->
<g id="edge102" class="edge">
<title>Node35&#45;&gt;Node6</title>
<path fill="none" stroke="#191970" d="M1944.7654,-338.1279C1677.9607,-331.4284 563.2759,-299.9767 421,-239 312.953,-192.6932 153.1015,-143.0357 231,-55 253.3462,-29.7458 483.9923,-15.5054 569.947,-11.0427"/>
<polygon fill="#191970" stroke="#191970" points="570.3448,-14.5271 580.1541,-10.5236 569.9892,-7.5361 570.3448,-14.5271"/>
</g>
<!-- Node35&#45;&gt;Node9 -->
<g id="edge76" class="edge">
<title>Node35&#45;&gt;Node9</title>
<path fill="none" stroke="#191970" d="M1944.8439,-336.1629C1778.0415,-326.4239 1292.8498,-298.0953 1121.118,-288.0685"/>
<polygon fill="#191970" stroke="#191970" points="1121.1782,-284.5661 1110.9911,-287.4772 1120.7701,-291.5542 1121.1782,-284.5661"/>
</g>
<!-- Node35&#45;&gt;Node13 -->
<g id="edge77" class="edge">
<title>Node35&#45;&gt;Node13</title>
<path fill="none" stroke="#191970" d="M2059.0351,-337.5587C2130.0877,-333.9267 2254.6152,-323.5484 2357,-294 2399.0706,-281.8584 2444.5026,-258.6667 2471.5825,-243.6532"/>
<polygon fill="#191970" stroke="#191970" points="2473.3606,-246.6688 2480.3601,-238.7153 2469.9284,-240.5679 2473.3606,-246.6688"/>
</g>
<!-- Node35&#45;&gt;Node18 -->
<g id="edge78" class="edge">
<title>Node35&#45;&gt;Node18</title>
<path fill="none" stroke="#191970" d="M2021.0442,-330.3556C2060.981,-310.8726 2151.6493,-264.9376 2174,-239 2191.1861,-219.0558 2191.0213,-209.8524 2196,-184 2197.5969,-175.7079 2201.0725,-171.7512 2196,-165 2182.496,-147.0268 2125.5717,-133.8728 2084.1444,-126.4571"/>
<polygon fill="#191970" stroke="#191970" points="2084.6972,-123.0008 2074.2462,-124.7403 2083.5009,-129.8978 2084.6972,-123.0008"/>
</g>
<!-- Node35&#45;&gt;Node25 -->
<g id="edge89" class="edge">
<title>Node35&#45;&gt;Node25</title>
<path fill="none" stroke="#191970" d="M2010.2653,-330.4982C2027.2071,-312.0467 2066.0961,-269.6924 2087.7459,-246.1134"/>
<polygon fill="#191970" stroke="#191970" points="2090.4353,-248.3593 2094.6205,-238.6261 2085.2791,-243.625 2090.4353,-248.3593"/>
</g>
<!-- Node35&#45;&gt;Node26 -->
<g id="edge88" class="edge">
<title>Node35&#45;&gt;Node26</title>
<path fill="none" stroke="#191970" d="M2058.8479,-336.3704C2116.3369,-331.8 2207.0235,-320.6975 2281,-294 2342.0873,-271.9541 2347.1076,-245.1114 2407,-220 2444.5841,-204.2419 2489.1759,-192.5063 2523.1155,-184.9037"/>
<polygon fill="#191970" stroke="#191970" points="2524.2667,-188.2347 2533.287,-182.6771 2522.7698,-181.3966 2524.2667,-188.2347"/>
</g>
<!-- Node35&#45;&gt;Node28 -->
<g id="edge90" class="edge">
<title>Node35&#45;&gt;Node28</title>
<path fill="none" stroke="#191970" d="M1945.0276,-335.1204C1859.9126,-328.2565 1694.613,-313.6877 1555,-294 1442.5879,-278.1481 1311.4921,-252.6431 1243.7501,-238.9368"/>
<polygon fill="#191970" stroke="#191970" points="1244.326,-235.4824 1233.8295,-236.9221 1242.9329,-242.3424 1244.326,-235.4824"/>
</g>
<!-- Node36 -->
<g id="node37" class="node">
<title>Node36</title>
<g id="a_node37"><a xlink:href="Ioss__FieldManager_8h.html" target="_top" xlink:title=" ">
<polygon fill="#ffffff" stroke="#000000" points="1913.5815,-220.5 1913.5815,-238.5 2022.4185,-238.5 2022.4185,-220.5 1913.5815,-220.5"/>
<text text-anchor="middle" x="1968" y="-226.5" font-family="Helvetica,sans-Serif" font-size="10.00" fill="#000000">Ioss_FieldManager.h</text>
</a>
</g>
</g>
<!-- Node35&#45;&gt;Node36 -->
<g id="edge79" class="edge">
<title>Node35&#45;&gt;Node36</title>
<path fill="none" stroke="#191970" d="M1999.2176,-330.4982C1993.6888,-312.6108 1981.2165,-272.2594 1973.8193,-248.3271"/>
<polygon fill="#191970" stroke="#191970" points="1977.1179,-247.1466 1970.8208,-238.6261 1970.43,-249.2138 1977.1179,-247.1466"/>
</g>
<!-- Node38 -->
<g id="node39" class="node">
<title>Node38</title>
<g id="a_node39"><a xlink:href="Ioss__VariableType_8h.html" target="_top" xlink:title=" ">
<polygon fill="#ffffff" stroke="#000000" points="1562.061,-220.5 1562.061,-238.5 1667.939,-238.5 1667.939,-220.5 1562.061,-220.5"/>
<text text-anchor="middle" x="1615" y="-226.5" font-family="Helvetica,sans-Serif" font-size="10.00" fill="#000000">Ioss_VariableType.h</text>
</a>
</g>
</g>
<!-- Node35&#45;&gt;Node38 -->
<g id="edge91" class="edge">
<title>Node35&#45;&gt;Node38</title>
<path fill="none" stroke="#191970" d="M1970.3302,-330.4982C1900.7924,-310.733 1734.759,-263.54 1656.7885,-241.3779"/>
<polygon fill="#191970" stroke="#191970" points="1657.4115,-237.9164 1646.8356,-238.5489 1655.4976,-244.6497 1657.4115,-237.9164"/>
</g>
<!-- Node36&#45;&gt;Node1 -->
<g id="edge80" class="edge">
<title>Node36&#45;&gt;Node1</title>
<path fill="none" stroke="#191970" d="M1960.4393,-220.3942C1941.7964,-198.471 1891.2588,-142.1919 1838,-110 1813.2485,-95.0391 1782.8254,-83.9247 1757.9615,-76.4269"/>
<polygon fill="#191970" stroke="#191970" points="1758.6103,-72.9705 1748.0304,-73.5332 1756.652,-79.691 1758.6103,-72.9705"/>
</g>
<!-- Node36&#45;&gt;Node3 -->
<g id="edge83" class="edge">
<title>Node36&#45;&gt;Node3</title>
<path fill="none" stroke="#191970" d="M1977.0877,-220.3292C1990.6109,-207.011 2017.2143,-182.0496 2043,-165 2073.1754,-145.0479 2096.8971,-159.7201 2116,-129 2138.9818,-92.042 2094.3482,-47.8506 2065.9597,-24.9585"/>
<polygon fill="#191970" stroke="#191970" points="2067.8024,-21.9572 2057.7638,-18.5695 2063.4987,-27.478 2067.8024,-21.9572"/>
</g>
<!-- Node36&#45;&gt;Node5 -->
<g id="edge85" class="edge">
<title>Node36&#45;&gt;Node5</title>
<path fill="none" stroke="#191970" d="M1983.0593,-220.2996C2011.5653,-202.913 2071.0193,-166.8002 2076,-165 2173.3063,-129.8309 2205.9836,-155.4973 2306,-129 2395.606,-105.2607 2413.8013,-86.4512 2501,-55 2536.2158,-42.2982 2576.9839,-28.4811 2604.005,-19.4462"/>
<polygon fill="#191970" stroke="#191970" points="2605.269,-22.7142 2613.6478,-16.2299 2603.0541,-16.0738 2605.269,-22.7142"/>
</g>
<!-- Node36&#45;&gt;Node6 -->
<g id="edge87" class="edge">
<title>Node36&#45;&gt;Node6</title>
<path fill="none" stroke="#191970" d="M1913.1283,-227.7327C1786.5156,-223.3345 1464.2409,-210.3061 1196,-184 1017.4063,-166.4855 964.6702,-190.2604 796,-129 766.9074,-118.4337 704.3908,-71.1726 678,-55 660.735,-44.4198 641.1246,-32.6864 626.1489,-23.785"/>
<polygon fill="#191970" stroke="#191970" points="627.8717,-20.7375 617.4857,-18.6442 624.2994,-26.7574 627.8717,-20.7375"/>
</g>
<!-- Node36&#45;&gt;Node17 -->
<g id="edge82" class="edge">
<title>Node36&#45;&gt;Node17</title>
<path fill="none" stroke="#191970" d="M1913.5635,-224.8581C1788.3933,-214.1847 1482.0831,-188.0652 1367.3528,-178.282"/>
<polygon fill="#191970" stroke="#191970" points="1367.4404,-174.7769 1357.1792,-177.4145 1366.8456,-181.7516 1367.4404,-174.7769"/>
</g>
<!-- Node36&#45;&gt;Node18 -->
<g id="edge81" class="edge">
<title>Node36&#45;&gt;Node18</title>
<path fill="none" stroke="#191970" d="M1972.9265,-220.1035C1979.7143,-207.3546 1992.5242,-183.9892 2005,-165 2011.3495,-155.3355 2019.0161,-144.9779 2025.4609,-136.59"/>
<polygon fill="#191970" stroke="#191970" points="2028.2435,-138.7132 2031.6283,-128.6736 2022.7215,-134.4112 2028.2435,-138.7132"/>
</g>
<!-- Node36&#45;&gt;Node27 -->
<g id="edge86" class="edge">
<title>Node36&#45;&gt;Node27</title>
<path fill="none" stroke="#191970" d="M1994.4207,-220.4179C2021.1351,-211.2348 2062.6015,-196.9807 2092.2447,-186.7909"/>
<polygon fill="#191970" stroke="#191970" points="2093.4869,-190.065 2101.8059,-183.5042 2091.2113,-183.4452 2093.4869,-190.065"/>
</g>
<!-- Node36&#45;&gt;Node37 -->
<g id="edge84" class="edge">
<title>Node36&#45;&gt;Node37</title>
<path fill="none" stroke="#191970" d="M1929.6217,-220.4795C1886.529,-210.3508 1816.9524,-193.9974 1773.4331,-183.7685"/>
<polygon fill="#191970" stroke="#191970" points="1774.0315,-180.3138 1763.496,-181.4328 1772.4298,-187.1281 1774.0315,-180.3138"/>
</g>
<!-- Node38&#45;&gt;Node1 -->
<g id="edge92" class="edge">
<title>Node38&#45;&gt;Node1</title>
<path fill="none" stroke="#191970" d="M1595.8812,-220.4186C1573.1901,-208.3929 1540.2866,-186.2223 1556,-165 1588.6276,-120.9335 1631.1264,-163.18 1674,-129 1688.7834,-117.2143 1698.7615,-97.8039 1704.594,-83.3499"/>
<polygon fill="#191970" stroke="#191970" points="1707.9102,-84.4739 1708.1177,-73.8811 1701.3497,-82.0325 1707.9102,-84.4739"/>
</g>
<!-- Node38&#45;&gt;Node5 -->
<g id="edge97" class="edge">
<title>Node38&#45;&gt;Node5</title>
<path fill="none" stroke="#191970" d="M1622.8581,-220.3654C1636.1774,-205.6215 1664.7987,-177.0182 1696,-165 1933.7016,-73.4419 2022.0503,-195.2848 2268,-129 2286.2318,-124.0864 2288.7236,-117.6203 2306,-110 2368.303,-82.5195 2384.0314,-75.3941 2449,-55 2502.5661,-38.1852 2566.4325,-23.6648 2603.3893,-15.7887"/>
<polygon fill="#191970" stroke="#191970" points="2604.4483,-19.1425 2613.5111,-13.6548 2603.0042,-12.2931 2604.4483,-19.1425"/>
</g>
<!-- Node38&#45;&gt;Node6 -->
<g id="edge98" class="edge">
<title>Node38&#45;&gt;Node6</title>
<path fill="none" stroke="#191970" d="M1561.8302,-224.16C1546.7054,-222.7195 1530.2103,-221.2228 1515,-220 1272.1464,-200.4771 1208.4887,-223.0407 968,-184 872.7654,-168.5397 844.669,-171.3925 758,-129 701.342,-101.2868 645.159,-51.2783 618.3137,-25.6296"/>
<polygon fill="#191970" stroke="#191970" points="620.5743,-22.9466 610.9562,-18.5034 615.7042,-27.9748 620.5743,-22.9466"/>
</g>
<!-- Node38&#45;&gt;Node17 -->
<g id="edge93" class="edge">
<title>Node38&#45;&gt;Node17</title>
<path fill="none" stroke="#191970" d="M1567.1091,-220.4795C1511.6292,-210.0295 1420.9707,-192.9534 1367.1384,-182.8137"/>
<polygon fill="#191970" stroke="#191970" points="1367.6833,-179.3549 1357.2083,-180.9433 1366.3876,-186.2339 1367.6833,-179.3549"/>
</g>
<!-- Node38&#45;&gt;Node31 -->
<g id="edge96" class="edge">
<title>Node38&#45;&gt;Node31</title>
<path fill="none" stroke="#191970" d="M1561.846,-223.9497C1546.7214,-222.5064 1530.2224,-221.0609 1515,-220 1413.3574,-212.9161 673.392,-182.0321 519.8494,-175.6547"/>
<polygon fill="#191970" stroke="#191970" points="519.9612,-172.1564 509.8246,-175.2385 519.6708,-179.1504 519.9612,-172.1564"/>
</g>
<!-- Node38&#45;&gt;Node37 -->
<g id="edge95" class="edge">
<title>Node38&#45;&gt;Node37</title>
<path fill="none" stroke="#191970" d="M1634.6504,-220.4179C1653.857,-211.5409 1683.3163,-197.9253 1705.174,-187.823"/>
<polygon fill="#191970" stroke="#191970" points="1706.7114,-190.9682 1714.3204,-183.5956 1703.7746,-184.614 1706.7114,-190.9682"/>
</g>
<!-- Node39 -->
<g id="node40" class="node">
<title>Node39</title>
<g id="a_node40"><a xlink:title=" ">
<polygon fill="#ffffff" stroke="#bfbfbf" points="1565.2734,-165.5 1565.2734,-183.5 1610.7266,-183.5 1610.7266,-165.5 1565.2734,-165.5"/>
<text text-anchor="middle" x="1588" y="-171.5" font-family="Helvetica,sans-Serif" font-size="10.00" fill="#000000">cstring</text>
</a>
</g>
</g>
<!-- Node38&#45;&gt;Node39 -->
<g id="edge94" class="edge">
<title>Node38&#45;&gt;Node39</title>
<path fill="none" stroke="#191970" d="M1610.5415,-220.4179C1606.8897,-212.9789 1601.6042,-202.2123 1597.0691,-192.9742"/>
<polygon fill="#191970" stroke="#191970" points="1600.104,-191.2138 1592.5554,-183.7795 1593.8203,-194.2985 1600.104,-191.2138"/>
</g>
<!-- Node42&#45;&gt;Node3 -->
<g id="edge137" class="edge">
<title>Node42&#45;&gt;Node3</title>
<path fill="none" stroke="#191970" d="M2693.3811,-500.0214C2824.9355,-486.7 3191,-445.0868 3191,-394.5 3191,-394.5 3191,-394.5 3191,-174.5 3191,-144.6154 3195.1123,-128.9449 3172,-110 3085.4173,-39.029 2259.3387,-14.7618 2079.4653,-10.2983"/>
<polygon fill="#191970" stroke="#191970" points="2079.345,-6.7944 2069.2626,-10.0493 2079.1742,-13.7923 2079.345,-6.7944"/>
</g>
<!-- Node42&#45;&gt;Node4 -->
<g id="edge138" class="edge">
<title>Node42&#45;&gt;Node4</title>
<path fill="none" stroke="#191970" d="M2600.3397,-502.4473C2469.3891,-495.9714 2087.8581,-472.1939 1779,-404 1550.906,-353.6383 1495.4319,-329.2898 1280,-239 1262.9509,-231.8545 1259.7108,-227.9043 1243,-220 1206.6518,-202.807 1195.059,-203.689 1160,-184 1123.015,-163.2294 1115.251,-155.3378 1082,-129 1053.1254,-106.1287 1043.4123,-102.4377 1020,-74 1008.2827,-59.7676 997.8839,-41.5053 990.9398,-28.0482"/>
<polygon fill="#191970" stroke="#191970" points="993.9395,-26.2211 986.3383,-18.8405 987.6778,-29.3503 993.9395,-26.2211"/>
</g>
<!-- Node42&#45;&gt;Node5 -->
<g id="edge139" class="edge">
<title>Node42&#45;&gt;Node5</title>
<path fill="none" stroke="#191970" d="M2693.7612,-502.7516C2819.8011,-497.7504 3160.1154,-482.2354 3205,-459 3266.5018,-427.1624 3305,-408.7539 3305,-339.5 3305,-339.5 3305,-339.5 3305,-119.5 3305,-32.004 3204.5063,-73.5533 3119,-55 3031.4504,-36.0034 2756.6357,-17.2866 2664.4736,-11.3972"/>
<polygon fill="#191970" stroke="#191970" points="2664.6099,-7.8989 2654.4084,-10.7587 2664.1667,-14.8849 2664.6099,-7.8989"/>
</g>
<!-- Node42&#45;&gt;Node6 -->
<g id="edge140" class="edge">
<title>Node42&#45;&gt;Node6</title>
<path fill="none" stroke="#191970" d="M2600.4962,-504.1182C2247.1799,-500.9221 0,-475.258 0,-339.5 0,-339.5 0,-339.5 0,-119.5 0,-65.11 52.4248,-72.2705 104,-55 191.0983,-25.8343 474.4365,-13.7976 570.1095,-10.4994"/>
<polygon fill="#191970" stroke="#191970" points="570.4361,-13.9905 580.3128,-10.1566 570.2009,-6.9945 570.4361,-13.9905"/>
</g>
<!-- Node42&#45;&gt;Node13 -->
<g id="edge127" class="edge">
<title>Node42&#45;&gt;Node13</title>
<path fill="none" stroke="#191970" d="M2641.976,-495.3503C2620.3903,-456.0385 2535.292,-301.0582 2505.9827,-247.6803"/>
<polygon fill="#191970" stroke="#191970" points="2508.924,-245.765 2501.0429,-238.6841 2502.7881,-249.1342 2508.924,-245.765"/>
</g>
<!-- Node42&#45;&gt;Node26 -->
<g id="edge128" class="edge">
<title>Node42&#45;&gt;Node26</title>
<path fill="none" stroke="#191970" d="M2652.4445,-495.4507C2662.9518,-477.0998 2685,-433.899 2685,-394.5 2685,-394.5 2685,-394.5 2685,-339.5 2685,-275.5231 2627.2444,-217.2581 2595.8161,-190.2888"/>
<polygon fill="#191970" stroke="#191970" points="2597.9996,-187.5522 2588.0814,-183.8267 2593.5115,-192.9242 2597.9996,-187.5522"/>
</g>
<!-- Node43 -->
<g id="node44" class="node">
<title>Node43</title>
<g id="a_node44"><a xlink:href="Ioss__ElementBlock_8h.html" target="_top" xlink:title=" ">
<polygon fill="#ffffff" stroke="#000000" points="2865.3105,-440.5 2865.3105,-458.5 2974.6895,-458.5 2974.6895,-440.5 2865.3105,-440.5"/>
<text text-anchor="middle" x="2920" y="-446.5" font-family="Helvetica,sans-Serif" font-size="10.00" fill="#000000">Ioss_ElementBlock.h</text>
</a>
</g>
</g>
<!-- Node42&#45;&gt;Node43 -->
<g id="edge115" class="edge">
<title>Node42&#45;&gt;Node43</title>
<path fill="none" stroke="#191970" d="M2691.7747,-495.4795C2739.2824,-485.9083 2814.3802,-470.7787 2865.345,-460.5111"/>
<polygon fill="#191970" stroke="#191970" points="2866.0891,-463.9316 2875.2008,-458.5255 2864.7065,-457.0695 2866.0891,-463.9316"/>
</g>
<!-- Node44 -->
<g id="node45" class="node">
<title>Node44</title>
<g id="a_node45"><a xlink:href="Ioss__EntityBlock_8h.html" target="_top" xlink:title=" ">
<polygon fill="#ffffff" stroke="#000000" points="2949.1479,-385.5 2949.1479,-403.5 3046.8521,-403.5 3046.8521,-385.5 2949.1479,-385.5"/>
<text text-anchor="middle" x="2998" y="-391.5" font-family="Helvetica,sans-Serif" font-size="10.00" fill="#000000">Ioss_EntityBlock.h</text>
</a>
</g>
</g>
<!-- Node42&#45;&gt;Node44 -->
<g id="edge126" class="edge">
<title>Node42&#45;&gt;Node44</title>
<path fill="none" stroke="#191970" d="M2693.3618,-501.1788C2780.7491,-494.4976 2962.9913,-478.4008 2984,-459 2996.2222,-447.7132 2999.0841,-428.4826 2999.2716,-413.949"/>
<polygon fill="#191970" stroke="#191970" points="3002.7586,-413.4385 2998.9764,-403.5418 2995.7615,-413.6371 3002.7586,-413.4385"/>
</g>
<!-- Node42&#45;&gt;Node45 -->
<g id="edge129" class="edge">
<title>Node42&#45;&gt;Node45</title>
<path fill="none" stroke="#191970" d="M2634.5612,-495.4982C2608.5079,-476.6439 2547.9671,-432.8315 2515.8602,-409.5962"/>
<polygon fill="#191970" stroke="#191970" points="2517.7638,-406.6535 2507.6107,-403.6261 2513.6599,-412.3243 2517.7638,-406.6535"/>
</g>
<!-- Node43&#45;&gt;Node1 -->
<g id="edge117" class="edge">
<title>Node43&#45;&gt;Node1</title>
<path fill="none" stroke="#191970" d="M2865.2162,-441.1465C2862.1006,-440.7405 2859.012,-440.3548 2856,-440 2651.9686,-415.9652 2113.2601,-452.8524 1936,-349 1849.3843,-298.254 1865.0413,-245.4517 1805,-165 1786.4418,-140.1332 1783.2169,-132.6408 1762,-110 1752.1115,-99.4479 1740.0793,-88.6305 1730.1858,-80.1921"/>
<polygon fill="#191970" stroke="#191970" points="1732.3829,-77.4668 1722.4722,-73.7213 1727.8841,-82.8297 1732.3829,-77.4668"/>
</g>
<!-- Node43&#45;&gt;Node5 -->
<g id="edge125" class="edge">
<title>Node43&#45;&gt;Node5</title>
<path fill="none" stroke="#191970" d="M2975.1241,-446.2964C3023.4832,-441.7384 3094.6755,-430.7033 3151,-404 3191.6472,-384.7293 3229,-384.4839 3229,-339.5 3229,-339.5 3229,-339.5 3229,-229.5 3229,-175.3283 3243.4867,-148.1228 3205,-110 3127.4799,-33.2129 2771.7265,-14.4053 2664.606,-10.4462"/>
<polygon fill="#191970" stroke="#191970" points="2664.5875,-6.9435 2654.4704,-10.0891 2664.3409,-13.9391 2664.5875,-6.9435"/>
</g>
<!-- Node43&#45;&gt;Node10 -->
<g id="edge116" class="edge">
<title>Node43&#45;&gt;Node10</title>
<path fill="none" stroke="#191970" d="M2919.9583,-440.327C2919.8084,-407.3409 2919.2945,-294.2972 2919.0875,-248.7484"/>
<polygon fill="#191970" stroke="#191970" points="2922.5874,-248.6961 2919.0419,-238.7122 2915.5875,-248.728 2922.5874,-248.6961"/>
</g>
<!-- Node43&#45;&gt;Node20 -->
<g id="edge124" class="edge">
<title>Node43&#45;&gt;Node20</title>
<path fill="none" stroke="#191970" d="M2974.9016,-443.541C3028.858,-436.6537 3106.3121,-423.6778 3129,-404 3152.1066,-383.959 3153,-370.0869 3153,-339.5 3153,-339.5 3153,-339.5 3153,-229.5 3153,-197.3684 3147.049,-160.3768 3142.9068,-138.5207"/>
<polygon fill="#191970" stroke="#191970" points="3146.3146,-137.7112 3140.9466,-128.5769 3139.4468,-139.065 3146.3146,-137.7112"/>
</g>
<!-- Node43&#45;&gt;Node26 -->
<g id="edge123" class="edge">
<title>Node43&#45;&gt;Node26</title>
<path fill="none" stroke="#191970" d="M2915.9229,-440.1454C2899.9756,-404.7527 2838.0798,-278.1135 2745,-220 2709.695,-197.9577 2663.7864,-186.4771 2628.7294,-180.5664"/>
<polygon fill="#191970" stroke="#191970" points="2629.1103,-177.0831 2618.6856,-178.974 2628.0142,-183.9968 2629.1103,-177.0831"/>
</g>
<!-- Node43&#45;&gt;Node44 -->
<g id="edge118" class="edge">
<title>Node43&#45;&gt;Node44</title>
<path fill="none" stroke="#191970" d="M2932.8801,-440.4179C2944.7354,-432.0584 2962.5502,-419.4966 2976.5516,-409.6239"/>
<polygon fill="#191970" stroke="#191970" points="2978.9451,-412.2188 2985.1008,-403.5956 2974.9112,-406.498 2978.9451,-412.2188"/>
</g>
<!-- Node44&#45;&gt;Node3 -->
<g id="edge121" class="edge">
<title>Node44&#45;&gt;Node3</title>
<path fill="none" stroke="#191970" d="M3001.2208,-385.4455C3010.4829,-357.6613 3034.2281,-272.3368 2997,-220 2912.0177,-100.5282 2828.1371,-145.952 2686,-110 2458.114,-52.3588 2175.8282,-21.9111 2079.2518,-12.624"/>
<polygon fill="#191970" stroke="#191970" points="2079.4722,-9.1292 2069.1862,-11.6684 2078.8106,-16.0979 2079.4722,-9.1292"/>
</g>
<!-- Node44&#45;&gt;Node5 -->
<g id="edge122" class="edge">
<title>Node44&#45;&gt;Node5</title>
<path fill="none" stroke="#191970" d="M3005.5137,-385.4334C3026.4689,-358.9837 3082.1593,-279.9942 3053,-220 2978.8505,-67.4401 2747.8247,-23.7738 2664.4191,-12.8058"/>
<polygon fill="#191970" stroke="#191970" points="2664.6845,-9.3119 2654.3279,-11.5456 2663.817,-16.2579 2664.6845,-9.3119"/>
</g>
<!-- Node44&#45;&gt;Node26 -->
<g id="edge120" class="edge">
<title>Node44&#45;&gt;Node26</title>
<path fill="none" stroke="#191970" d="M2995.1746,-385.1931C2992.5422,-376.0694 2988.766,-361.7184 2987,-349 2986.0136,-341.8961 2986.8833,-225.2528 2982,-220 2958.3687,-194.5809 2733.5336,-181.4332 2628.9814,-176.6515"/>
<polygon fill="#191970" stroke="#191970" points="2629.0956,-173.1532 2618.9488,-176.2015 2628.7818,-180.1462 2629.0956,-173.1532"/>
</g>
<!-- Node44&#45;&gt;Node35 -->
<g id="edge119" class="edge">
<title>Node44&#45;&gt;Node35</title>
<path fill="none" stroke="#191970" d="M2948.9479,-391.7913C2785.164,-382.747 2256.9264,-353.5773 2069.0758,-343.204"/>
<polygon fill="#191970" stroke="#191970" points="2069.235,-339.7075 2059.0572,-342.6507 2068.849,-346.6969 2069.235,-339.7075"/>
</g>
<!-- Node45&#45;&gt;Node3 -->
<g id="edge133" class="edge">
<title>Node45&#45;&gt;Node3</title>
<path fill="none" stroke="#191970" d="M2507.9452,-385.3752C2551.9875,-353.2532 2689.929,-243.134 2628,-165 2517.9792,-26.1899 2409.5497,-125.242 2240,-74 2216.8458,-67.0022 2211.8729,-62.8686 2189,-55 2151.631,-42.1445 2108.3466,-28.6539 2079.0671,-19.7327"/>
<polygon fill="#191970" stroke="#191970" points="2079.9129,-16.3318 2069.3274,-16.7762 2077.8796,-23.03 2079.9129,-16.3318"/>
</g>
<!-- Node45&#45;&gt;Node4 -->
<g id="edge134" class="edge">
<title>Node45&#45;&gt;Node4</title>
<path fill="none" stroke="#191970" d="M2452.997,-394.2307C2190.9393,-392.1297 787.3741,-374.5695 661,-239 620.4931,-195.5457 651.602,-149.4703 696,-110 770.6124,-43.6688 891.6835,-20.458 949.3954,-12.8842"/>
<polygon fill="#191970" stroke="#191970" points="949.9142,-16.3468 959.4087,-11.6451 949.0545,-9.3998 949.9142,-16.3468"/>
</g>
<!-- Node45&#45;&gt;Node5 -->
<g id="edge135" class="edge">
<title>Node45&#45;&gt;Node5</title>
<path fill="none" stroke="#191970" d="M2521.0962,-385.349C2540.2589,-377.7239 2566.13,-365.455 2585,-349 2629.7862,-309.9455 2636.7037,-293.2287 2661,-239 2695.2176,-162.6272 2740.1726,-128.9538 2701,-55 2693.0858,-40.0587 2677.8235,-29.1148 2663.8625,-21.7096"/>
<polygon fill="#191970" stroke="#191970" points="2665.0331,-18.3862 2654.5115,-17.1427 2661.9611,-24.6762 2665.0331,-18.3862"/>
</g>
<!-- Node45&#45;&gt;Node6 -->
<g id="edge136" class="edge">
<title>Node45&#45;&gt;Node6</title>
<path fill="none" stroke="#191970" d="M2453.1663,-393.7989C2245.559,-390.2271 1324.539,-373.2706 1039,-349 862.3876,-333.9881 818.7153,-323.8637 644,-294 431.5462,-257.6857 174,-390.0351 174,-174.5 174,-174.5 174,-174.5 174,-119.5 174,-85.532 186.2349,-73.0664 215,-55 244.8689,-36.2404 482.9092,-17.8494 570.1226,-11.6764"/>
<polygon fill="#191970" stroke="#191970" points="570.4913,-15.1593 580.2222,-10.9686 570.0019,-8.1764 570.4913,-15.1593"/>
</g>
<!-- Node45&#45;&gt;Node13 -->
<g id="edge130" class="edge">
<title>Node45&#45;&gt;Node13</title>
<path fill="none" stroke="#191970" d="M2495.0566,-385.1561C2495.2155,-358.9504 2495.6675,-284.3557 2495.883,-248.8021"/>
<polygon fill="#191970" stroke="#191970" points="2499.3832,-248.7625 2495.944,-238.7414 2492.3834,-248.72 2499.3832,-248.7625"/>
</g>
<!-- Node45&#45;&gt;Node26 -->
<g id="edge132" class="edge">
<title>Node45&#45;&gt;Node26</title>
<path fill="none" stroke="#191970" d="M2498.3773,-385.327C2510.5737,-352.2011 2552.4961,-238.3378 2569.1249,-193.173"/>
<polygon fill="#191970" stroke="#191970" points="2572.4376,-194.3057 2572.6082,-183.7122 2565.8686,-191.8871 2572.4376,-194.3057"/>
</g>
<!-- Node45&#45;&gt;Node35 -->
<g id="edge131" class="edge">
<title>Node45&#45;&gt;Node35</title>
<path fill="none" stroke="#191970" d="M2452.9671,-389.8107C2367.4468,-380.2699 2172.5711,-358.5292 2069.2314,-347.0005"/>
<polygon fill="#191970" stroke="#191970" points="2069.5462,-343.514 2059.2198,-345.8835 2068.77,-350.4708 2069.5462,-343.514"/>
</g>
<!-- Node46&#45;&gt;Node1 -->
<g id="edge144" class="edge">
<title>Node46&#45;&gt;Node1</title>
<path fill="none" stroke="#191970" d="M3207.4066,-503.0925C3028.256,-498.1269 2479.2731,-477.5389 2031,-404 1913.9378,-384.796 1772,-458.1269 1772,-339.5 1772,-339.5 1772,-339.5 1772,-284.5 1772,-231.3889 1786.3078,-216.1476 1772,-165 1762.9813,-132.7598 1740.4779,-100.5763 1725.4718,-81.6119"/>
<polygon fill="#191970" stroke="#191970" points="1728.0171,-79.1946 1718.9898,-73.6487 1722.5883,-83.6137 1728.0171,-79.1946"/>
</g>
<!-- Node46&#45;&gt;Node2 -->
<g id="edge159" class="edge">
<title>Node46&#45;&gt;Node2</title>
<path fill="none" stroke="#191970" d="M3326.6002,-495.8516C3375.478,-487.8046 3439.9176,-474.7097 3461,-459 3532.6765,-405.5898 3561,-373.8878 3561,-284.5 3561,-284.5 3561,-284.5 3561,-119.5 3561,-88.9131 3559.1213,-76.1236 3537,-55 3520.769,-39.5011 3461.3866,-24.125 3424.7498,-15.815"/>
<polygon fill="#191970" stroke="#191970" points="3425.1495,-12.3185 3414.6285,-13.5673 3423.6319,-19.1521 3425.1495,-12.3185"/>
</g>
<!-- Node46&#45;&gt;Node5 -->
<g id="edge161" class="edge">
<title>Node46&#45;&gt;Node5</title>
<path fill="none" stroke="#191970" d="M3310.7101,-495.482C3333.5797,-488.7941 3360.5732,-477.5261 3379,-459 3414.682,-423.1256 3438.0736,-377.0794 3466,-184 3477.2961,-105.9003 3416.7181,-85.6469 3344,-55 3280.821,-28.3733 2793.1637,-13.7078 2664.852,-10.2844"/>
<polygon fill="#191970" stroke="#191970" points="2664.6566,-6.7781 2654.5679,-10.0137 2664.4723,-13.7757 2664.6566,-6.7781"/>
</g>
<!-- Node46&#45;&gt;Node10 -->
<g id="edge143" class="edge">
<title>Node46&#45;&gt;Node10</title>
<path fill="none" stroke="#191970" d="M3255.4214,-495.3503C3204.8468,-455.3847 3002.9894,-295.871 2938.744,-245.1023"/>
<polygon fill="#191970" stroke="#191970" points="2940.6381,-242.1382 2930.6221,-238.6841 2936.298,-247.6303 2940.6381,-242.1382"/>
</g>
<!-- Node46&#45;&gt;Node20 -->
<g id="edge160" class="edge">
<title>Node46&#45;&gt;Node20</title>
<path fill="none" stroke="#191970" d="M3267.5797,-495.4022C3269.278,-463.8152 3272.4146,-356.379 3243,-275 3222.7771,-219.051 3178.2481,-163.5549 3154.5503,-136.5086"/>
<polygon fill="#191970" stroke="#191970" points="3156.9122,-133.8983 3147.6454,-128.7625 3151.6868,-138.5562 3156.9122,-133.8983"/>
</g>
<!-- Node46&#45;&gt;Node26 -->
<g id="edge153" class="edge">
<title>Node46&#45;&gt;Node26</title>
<path fill="none" stroke="#191970" d="M3207.2501,-503.0279C3077.2653,-499.3013 2777.57,-487.6712 2742,-459 2675.3456,-405.2731 2721.4643,-352.458 2685,-275 2672.5565,-248.5673 2669.8863,-240.4278 2649,-220 2635.9507,-207.2371 2618.7213,-196.2895 2604.278,-188.333"/>
<polygon fill="#191970" stroke="#191970" points="2605.7349,-185.1439 2595.261,-183.5475 2602.4533,-191.327 2605.7349,-185.1439"/>
</g>
<!-- Node46&#45;&gt;Node44 -->
<g id="edge145" class="edge">
<title>Node46&#45;&gt;Node44</title>
<path fill="none" stroke="#191970" d="M3244.9866,-495.4982C3197.4013,-476.0396 3084.8072,-429.9974 3029.6123,-407.4269"/>
<polygon fill="#191970" stroke="#191970" points="3030.8984,-404.1716 3020.3176,-403.6261 3028.2488,-410.6508 3030.8984,-404.1716"/>
</g>
<!-- Node47 -->
<g id="node48" class="node">
<title>Node47</title>
<g id="a_node48"><a xlink:href="Ioss__NodeBlock_8h.html" target="_top" xlink:title=" ">
<polygon fill="#ffffff" stroke="#000000" points="2750.6997,-440.5 2750.6997,-458.5 2847.3003,-458.5 2847.3003,-440.5 2750.6997,-440.5"/>
<text text-anchor="middle" x="2799" y="-446.5" font-family="Helvetica,sans-Serif" font-size="10.00" fill="#000000">Ioss_NodeBlock.h</text>
</a>
</g>
</g>
<!-- Node46&#45;&gt;Node47 -->
<g id="edge146" class="edge">
<title>Node46&#45;&gt;Node47</title>
<path fill="none" stroke="#191970" d="M3207.3171,-498.9296C3129.2616,-491.4137 2988.0232,-477.0244 2857.6484,-459.1689"/>
<polygon fill="#191970" stroke="#191970" points="2857.8668,-455.6659 2847.4823,-457.7663 2856.9101,-462.6002 2857.8668,-455.6659"/>
</g>
<!-- Node48 -->
<g id="node49" class="node">
<title>Node48</title>
<g id="a_node49"><a xlink:href="Ioss__ZoneConnectivity_8h.html" target="_top" xlink:title=" ">
<polygon fill="#ffffff" stroke="#000000" points="3332.6177,-165.5 3332.6177,-183.5 3457.3823,-183.5 3457.3823,-165.5 3332.6177,-165.5"/>
<text text-anchor="middle" x="3395" y="-171.5" font-family="Helvetica,sans-Serif" font-size="10.00" fill="#000000">Ioss_ZoneConnectivity.h</text>
</a>
</g>
</g>
<!-- Node46&#45;&gt;Node48 -->
<g id="edge154" class="edge">
<title>Node46&#45;&gt;Node48</title>
<path fill="none" stroke="#191970" d="M3295.9574,-495.4089C3315.2558,-488.1289 3340.0875,-476.2552 3357,-459 3379.2634,-436.2855 3388,-426.3057 3388,-394.5 3388,-394.5 3388,-394.5 3388,-284.5 3388,-252.5611 3390.9755,-215.5109 3393.0466,-193.5907"/>
<polygon fill="#191970" stroke="#191970" points="3396.5322,-193.9085 3394.0267,-183.6142 3389.5657,-193.2241 3396.5322,-193.9085"/>
</g>
<!-- Node47&#45;&gt;Node3 -->
<g id="edge150" class="edge">
<title>Node47&#45;&gt;Node3</title>
<path fill="none" stroke="#191970" d="M2804.4445,-440.4507C2814.9518,-422.0998 2837,-378.899 2837,-339.5 2837,-339.5 2837,-339.5 2837,-284.5 2837,-151.5381 2716.3666,-162.0123 2594,-110 2581.9354,-104.8719 2197.7419,-36.5592 2079.3702,-15.5829"/>
<polygon fill="#191970" stroke="#191970" points="2079.8536,-12.1142 2069.3964,-13.8161 2078.6325,-19.0068 2079.8536,-12.1142"/>
</g>
<!-- Node47&#45;&gt;Node4 -->
<g id="edge151" class="edge">
<title>Node47&#45;&gt;Node4</title>
<path fill="none" stroke="#191970" d="M2750.6454,-447.6632C2604.8536,-441.9625 2171.0262,-423.7643 2031,-404 1810.4222,-372.8661 1758.3854,-346.927 1542,-294 1449.1164,-271.281 1423.8582,-271.6958 1334,-239 1194.2843,-188.163 1155.9656,-170.6626 1043,-74 1025.7379,-59.2292 1008.1304,-40.0835 996.2985,-26.4984"/>
<polygon fill="#191970" stroke="#191970" points="998.901,-24.1566 989.7325,-18.8471 993.5888,-28.7152 998.901,-24.1566"/>
</g>
<!-- Node47&#45;&gt;Node5 -->
<g id="edge152" class="edge">
<title>Node47&#45;&gt;Node5</title>
<path fill="none" stroke="#191970" d="M2847.4685,-441.3228C2920.6647,-428.9172 3051.4335,-406.5099 3056,-404 3090.0469,-385.2866 3115,-378.3508 3115,-339.5 3115,-339.5 3115,-339.5 3115,-284.5 3115,-137.8742 3016.1583,-104.1058 2878,-55 2803.981,-28.6913 2711.6491,-16.7789 2664.6207,-12.1005"/>
<polygon fill="#191970" stroke="#191970" points="2664.7724,-8.5992 2654.4857,-11.1355 2664.1089,-15.5677 2664.7724,-8.5992"/>
</g>
<!-- Node47&#45;&gt;Node13 -->
<g id="edge147" class="edge">
<title>Node47&#45;&gt;Node13</title>
<path fill="none" stroke="#191970" d="M2789.4834,-440.117C2760.7034,-412.1169 2671.2589,-327.8289 2585,-275 2565.6461,-263.1468 2542.8393,-251.5297 2525.1584,-243.0009"/>
<polygon fill="#191970" stroke="#191970" points="2526.4508,-239.7397 2515.9176,-238.5985 2523.4401,-246.0592 2526.4508,-239.7397"/>
</g>
<!-- Node47&#45;&gt;Node26 -->
<g id="edge148" class="edge">
<title>Node47&#45;&gt;Node26</title>
<path fill="none" stroke="#191970" d="M2800.1138,-440.3485C2802.977,-412.9948 2808.2028,-330.3261 2775,-275 2743.8553,-223.1033 2676.5061,-197.1085 2628.8045,-184.7359"/>
<polygon fill="#191970" stroke="#191970" points="2629.4915,-181.3004 2618.9438,-182.298 2627.8115,-188.0958 2629.4915,-181.3004"/>
</g>
<!-- Node47&#45;&gt;Node44 -->
<g id="edge149" class="edge">
<title>Node47&#45;&gt;Node44</title>
<path fill="none" stroke="#191970" d="M2831.8608,-440.4179C2865.6646,-431.0751 2918.46,-416.4834 2955.4394,-406.263"/>
<polygon fill="#191970" stroke="#191970" points="2956.7149,-409.5418 2965.4211,-403.5042 2954.8501,-402.7947 2956.7149,-409.5418"/>
</g>
<!-- Node48&#45;&gt;Node1 -->
<g id="edge155" class="edge">
<title>Node48&#45;&gt;Node1</title>
<path fill="none" stroke="#191970" d="M3371.0332,-165.4073C3330.6676,-150.5871 3246.2468,-121.7035 3172,-110 3032.3057,-87.98 2028.167,-69.8097 1770.9166,-65.4804"/>
<polygon fill="#191970" stroke="#191970" points="1770.7112,-61.9765 1760.6539,-65.3083 1770.5938,-68.9755 1770.7112,-61.9765"/>
</g>
<!-- Node48&#45;&gt;Node2 -->
<g id="edge156" class="edge">
<title>Node48&#45;&gt;Node2</title>
<path fill="none" stroke="#191970" d="M3395,-165.1561C3395,-138.9504 3395,-64.3557 3395,-28.8021"/>
<polygon fill="#191970" stroke="#191970" points="3398.5001,-28.7414 3395,-18.7414 3391.5001,-28.7414 3398.5001,-28.7414"/>
</g>
<!-- Node48&#45;&gt;Node5 -->
<g id="edge158" class="edge">
<title>Node48&#45;&gt;Node5</title>
<path fill="none" stroke="#191970" d="M3392.3145,-165.2229C3385.0079,-141.874 3362.3516,-80.7119 3319,-55 3262.161,-21.2887 2789.6705,-11.8384 2664.3902,-9.9145"/>
<polygon fill="#191970" stroke="#191970" points="2664.3907,-6.4142 2654.3397,-9.765 2664.2865,-13.4134 2664.3907,-6.4142"/>
</g>
<!-- Node48&#45;&gt;Node20 -->
<g id="edge157" class="edge">
<title>Node48&#45;&gt;Node20</title>
<path fill="none" stroke="#191970" d="M3353.0135,-165.4795C3302.7691,-154.6848 3219.6152,-136.8197 3173.1341,-126.8335"/>
<polygon fill="#191970" stroke="#191970" points="3173.7595,-123.3881 3163.2474,-124.7094 3172.2891,-130.2319 3173.7595,-123.3881"/>
</g>
</g>
</svg>
        <g id="navigator" transform="translate(0 0)" fill="#404254">
                <rect fill="#f2f5e9" fill-opacity="0.5" stroke="#606060" stroke-width=".5" x="0" y="0" width="60" height="60"/>
                <use id="zoomplus" xlink:href="#zoomPlus" x="17" y="9" onmousedown="handleZoom(evt,'in')"/>
                <use id="zoomminus" xlink:href="#zoomMin" x="42" y="9" onmousedown="handleZoom(evt,'out')"/>
                <use id="reset" xlink:href="#resetDef" x="30" y="36" onmousedown="handleReset()"/>
                <g id="arrowUp" xlink:href="#dirArrow" transform="translate(30 24)" onmousedown="handlePan(0,-1)">
                  <use xlink:href="#rim" fill="#404040">
                        <set attributeName="fill" to="#808080" begin="arrowUp.mouseover" end="arrowUp.mouseout"/>
                  </use>
                  <path fill="none" stroke="white" stroke-width="1.5" d="M0,-3.0v7 M-2.5,-0.5L0,-3.0L2.5,-0.5"/>
                </g>
                <g id="arrowRight" xlink:href="#dirArrow" transform="rotate(90) translate(36 -43)" onmousedown="handlePan(1,0)">
                  <use xlink:href="#rim" fill="#404040">
                        <set attributeName="fill" to="#808080" begin="arrowRight.mouseover" end="arrowRight.mouseout"/>
                  </use>
                  <path fill="none" stroke="white" stroke-width="1.5" d="M0,-3.0v7 M-2.5,-0.5L0,-3.0L2.5,-0.5"/>
                </g>
                <g id="arrowDown" xlink:href="#dirArrow" transform="rotate(180) translate(-30 -48)" onmousedown="handlePan(0,1)">
                  <use xlink:href="#rim" fill="#404040">
                        <set attributeName="fill" to="#808080" begin="arrowDown.mouseover" end="arrowDown.mouseout"/>
                  </use>
                  <path fill="none" stroke="white" stroke-width="1.5" d="M0,-3.0v7 M-2.5,-0.5L0,-3.0L2.5,-0.5"/>
                </g>
                <g id="arrowLeft" xlink:href="#dirArrow" transform="rotate(270) translate(-36 17)" onmousedown="handlePan(-1,0)">
                  <use xlink:href="#rim" fill="#404040">
                        <set attributeName="fill" to="#808080" begin="arrowLeft.mouseover" end="arrowLeft.mouseout"/>
                  </use>
                  <path fill="none" stroke="white" stroke-width="1.5" d="M0,-3.0v7 M-2.5,-0.5L0,-3.0L2.5,-0.5"/>
                </g>
        </g>
        <svg viewBox="0 0 15 15" width="100%" height="30px" preserveAspectRatio="xMaxYMin meet">
         <g id="arrow_out" transform="scale(0.3 0.3)">
          <a xlink:href="Iocgns__Utils_8h__incl_org.svg" target="_base">
           <rect id="button" ry="5" rx="5" y="6" x="6" height="38" width="38"
                fill="#f2f5e9" fill-opacity="0.5" stroke="#606060" stroke-width="1.0"/>
           <path id="arrow"
             d="M 11.500037,31.436501 C 11.940474,20.09759 22.043105,11.32322 32.158766,21.979434 L 37.068811,17.246167 C 37.068811,17.246167 37.088388,32 37.088388,32 L 22.160133,31.978069 C 22.160133,31.978069 26.997745,27.140456 26.997745,27.140456 C 18.528582,18.264221 13.291696,25.230495 11.500037,31.436501 z"
             style="fill:#404040;"/>
          </a>
         </g>
        </svg>
</svg>
