<?xml version="1.0" encoding="UTF-8" standalone="no"?>
<!DOCTYPE svg PUBLIC "-//W3C//DTD SVG 1.1//EN"
 "http://www.w3.org/Graphics/SVG/1.1/DTD/svg11.dtd">
<!-- Generated by graphviz version 2.40.1 (20161225.0304)
 -->
<!-- Title: src/cgns/Iocgns_ParallelDatabaseIO.h Pages: 1 -->
<!--zoomable 717 -->
<svg id="main" version="1.1" xmlns="http://www.w3.org/2000/svg" xmlns:xlink="http://www.w3.org/1999/xlink" xml:space="preserve" onload="init(evt)">
<style type="text/css"><![CDATA[
.edge:hover path { stroke: red; }
.edge:hover polygon { stroke: red; fill: red; }
]]></style>
<script type="text/javascript"><![CDATA[
var edges = document.getElementsByTagName('g');
if (edges && edges.length) {
  for (var i=0;i<edges.length;i++) {
    if (edges[i].id.substr(0,4)=='edge') {
      edges[i].setAttribute('class','edge');
    }
  }
}
]]></script>
        <defs>
                <circle id="rim" cx="0" cy="0" r="7"/>
                <circle id="rim2" cx="0" cy="0" r="3.5"/>
                <g id="zoomPlus">
                        <use xlink:href="#rim" fill="#404040">
                                <set attributeName="fill" to="#808080" begin="zoomplus.mouseover" end="zoomplus.mouseout"/>
                        </use>
                        <path d="M-4,0h8M0,-4v8" fill="none" stroke="white" stroke-width="1.5" pointer-events="none"/>
                </g>
                <g id="zoomMin">
                        <use xlink:href="#rim" fill="#404040">
                                <set attributeName="fill" to="#808080" begin="zoomminus.mouseover" end="zoomminus.mouseout"/>
                        </use>
                        <path d="M-4,0h8" fill="none" stroke="white" stroke-width="1.5" pointer-events="none"/>
                </g>
                <g id="dirArrow">
                        <path fill="none" stroke="white" stroke-width="1.5" d="M0,-3.0v7 M-2.5,-0.5L0,-3.0L2.5,-0.5"/>
                </g>
               <g id="resetDef">
                       <use xlink:href="#rim2" fill="#404040">
                               <set attributeName="fill" to="#808080" begin="reset.mouseover" end="reset.mouseout"/>
                       </use>
               </g>
        </defs>

<script type="text/javascript">
var viewWidth = 3569;
var viewHeight = 717;
var sectionId = 'dynsection-0';
</script>
<script xlink:href="svgpan.js"/>
<svg id="graph" class="graph">
<g id="viewport">
<title>src/cgns/Iocgns_ParallelDatabaseIO.h</title>
<polygon fill="#ffffff" stroke="transparent" points="-4,4 -4,-713 3565,-713 3565,4 -4,4"/>
<!-- Node0 -->
<g id="node1" class="node">
<title>Node0</title>
<polygon fill="#bfbfbf" stroke="#000000" points="1096.8081,-680.5 1096.8081,-708.5 1221.1919,-708.5 1221.1919,-680.5 1096.8081,-680.5"/>
<text text-anchor="start" x="1104.8081" y="-696.5" font-family="Helvetica,sans-Serif" font-size="10.00" fill="#000000">src/cgns/Iocgns_Parallel</text>
<text text-anchor="middle" x="1159" y="-686.5" font-family="Helvetica,sans-Serif" font-size="10.00" fill="#000000">DatabaseIO.h</text>
</g>
<!-- Node1 -->
<g id="node2" class="node">
<title>Node1</title>
<g id="a_node2"><a xlink:href="Ioss__CodeTypes_8h.html" target="_top" xlink:title="Ioss_CodeTypes.h">
<polygon fill="#ffffff" stroke="#000000" points="2601.584,-55.5 2601.584,-73.5 2700.416,-73.5 2700.416,-55.5 2601.584,-55.5"/>
<text text-anchor="middle" x="2651" y="-61.5" font-family="Helvetica,sans-Serif" font-size="10.00" fill="#000000">Ioss_CodeTypes.h</text>
</a>
</g>
</g>
<!-- Node0&#45;&gt;Node1 -->
<g id="edge1" class="edge">
<title>Node0&#45;&gt;Node1</title>
<path fill="none" stroke="#191970" d="M1221.5113,-693.4798C1495.6326,-688.8896 2593.0304,-669.2704 2937,-644 3063.6711,-634.6939 3503,-691.5124 3503,-564.5 3503,-564.5 3503,-564.5 3503,-504.5 3503,-430.7316 3485,-413.2684 3485,-339.5 3485,-339.5 3485,-339.5 3485,-229.5 3485,-150.5123 2901.8727,-88.2532 2710.8144,-69.9742"/>
<polygon fill="#191970" stroke="#191970" points="2710.9593,-66.4723 2700.6729,-69.0101 2710.2967,-73.4409 2710.9593,-66.4723"/>
</g>
<!-- Node5 -->
<g id="node6" class="node">
<title>Node5</title>
<polygon fill="#ffffff" stroke="#bfbfbf" points="1513.7734,-.5 1513.7734,-18.5 1554.2266,-18.5 1554.2266,-.5 1513.7734,-.5"/>
<text text-anchor="middle" x="1534" y="-6.5" font-family="Helvetica,sans-Serif" font-size="10.00" fill="#000000">string</text>
</g>
<!-- Node0&#45;&gt;Node5 -->
<g id="edge77" class="edge">
<title>Node0&#45;&gt;Node5</title>
<path fill="none" stroke="#191970" d="M1096.6764,-691.6171C899.4659,-681.6745 302,-644.9164 302,-564.5 302,-564.5 302,-564.5 302,-394.5 302,-278.7743 325.596,-224.2561 425,-165 571.9958,-77.3738 625.4987,-84.8902 794,-55 933.7853,-30.2037 1382.1232,-14.3567 1503.4695,-10.4474"/>
<polygon fill="#191970" stroke="#191970" points="1503.6622,-13.9431 1513.5456,-10.1262 1503.4391,-6.9467 1503.6622,-13.9431"/>
</g>
<!-- Node9 -->
<g id="node10" class="node">
<title>Node9</title>
<g id="a_node10"><a xlink:href="Ioss__DBUsage_8h.html" target="_top" xlink:title="Ioss_DBUsage.h">
<polygon fill="#ffffff" stroke="#000000" points="180.4805,-220.5 180.4805,-238.5 271.5195,-238.5 271.5195,-220.5 180.4805,-220.5"/>
<text text-anchor="middle" x="226" y="-226.5" font-family="Helvetica,sans-Serif" font-size="10.00" fill="#000000">Ioss_DBUsage.h</text>
</a>
</g>
</g>
<!-- Node0&#45;&gt;Node9 -->
<g id="edge9" class="edge">
<title>Node0&#45;&gt;Node9</title>
<path fill="none" stroke="#191970" d="M1096.6227,-693.8385C909.1114,-691.4414 359.0466,-681.2754 288,-644 248.3216,-623.1823 226,-609.308 226,-564.5 226,-564.5 226,-564.5 226,-339.5 226,-307.7718 226,-270.8957 226,-248.917"/>
<polygon fill="#191970" stroke="#191970" points="229.5001,-248.6266 226,-238.6267 222.5001,-248.6267 229.5001,-248.6266"/>
</g>
<!-- Node10 -->
<g id="node11" class="node">
<title>Node10</title>
<g id="a_node11"><a xlink:href="Ioss__DatabaseIO_8h.html" target="_top" xlink:title="Ioss_DatabaseIO.h">
<polygon fill="#ffffff" stroke="#000000" points="895.1973,-275.5 895.1973,-293.5 996.8027,-293.5 996.8027,-275.5 895.1973,-275.5"/>
<text text-anchor="middle" x="946" y="-281.5" font-family="Helvetica,sans-Serif" font-size="10.00" fill="#000000">Ioss_DatabaseIO.h</text>
</a>
</g>
</g>
<!-- Node0&#45;&gt;Node10 -->
<g id="edge10" class="edge">
<title>Node0&#45;&gt;Node10</title>
<path fill="none" stroke="#191970" d="M1096.6233,-681.2017C1038.5856,-664.7349 961,-630.398 961,-564.5 961,-564.5 961,-564.5 961,-394.5 961,-362.3306 954.6239,-325.3504 950.1858,-303.5069"/>
<polygon fill="#191970" stroke="#191970" points="953.5778,-302.6298 948.0857,-293.5696 946.7291,-304.0772 953.5778,-302.6298"/>
</g>
<!-- Node14 -->
<g id="node15" class="node">
<title>Node14</title>
<g id="a_node15"><a xlink:href="Ioss__Map_8h.html" target="_top" xlink:title="Ioss_Map.h">
<polygon fill="#ffffff" stroke="#000000" points="1176.1528,-220.5 1176.1528,-238.5 1243.8472,-238.5 1243.8472,-220.5 1176.1528,-220.5"/>
<text text-anchor="middle" x="1210" y="-226.5" font-family="Helvetica,sans-Serif" font-size="10.00" fill="#000000">Ioss_Map.h</text>
</a>
</g>
</g>
<!-- Node0&#45;&gt;Node14 -->
<g id="edge70" class="edge">
<title>Node0&#45;&gt;Node14</title>
<path fill="none" stroke="#191970" d="M1140.6644,-680.3524C1129.7754,-671.0786 1116.4812,-658.0926 1108,-644 1088.9686,-612.3768 1084,-601.4083 1084,-564.5 1084,-564.5 1084,-564.5 1084,-339.5 1084,-290.9857 1137.6648,-258.9439 1174.9491,-242.5368"/>
<polygon fill="#191970" stroke="#191970" points="1176.6453,-245.6202 1184.502,-238.5123 1173.9276,-239.1693 1176.6453,-245.6202"/>
</g>
<!-- Node22 -->
<g id="node23" class="node">
<title>Node22</title>
<polygon fill="#ffffff" stroke="#bfbfbf" points="1485.8276,-110.5 1485.8276,-128.5 1540.1724,-128.5 1540.1724,-110.5 1485.8276,-110.5"/>
<text text-anchor="middle" x="1513" y="-116.5" font-family="Helvetica,sans-Serif" font-size="10.00" fill="#000000">iostream</text>
</g>
<!-- Node0&#45;&gt;Node22 -->
<g id="edge73" class="edge">
<title>Node0&#45;&gt;Node22</title>
<path fill="none" stroke="#191970" d="M1153.9766,-680.3759C1145.4235,-654.3099 1129.9795,-597.0117 1141,-550 1184.5951,-364.0306 1183.2682,-284.8498 1332,-165 1353.9309,-147.3278 1429.5498,-132.6743 1475.8226,-125.0895"/>
<polygon fill="#191970" stroke="#191970" points="1476.4627,-128.5317 1485.782,-123.4917 1475.3538,-121.6201 1476.4627,-128.5317"/>
</g>
<!-- Node27 -->
<g id="node28" class="node">
<title>Node27</title>
<g id="a_node28"><a xlink:href="Ioss__State_8h.html" target="_top" xlink:title="Ioss_State.h">
<polygon fill="#ffffff" stroke="#000000" points="404.2046,-220.5 404.2046,-238.5 475.7954,-238.5 475.7954,-220.5 404.2046,-220.5"/>
<text text-anchor="middle" x="440" y="-226.5" font-family="Helvetica,sans-Serif" font-size="10.00" fill="#000000">Ioss_State.h</text>
</a>
</g>
</g>
<!-- Node0&#45;&gt;Node27 -->
<g id="edge72" class="edge">
<title>Node0&#45;&gt;Node27</title>
<path fill="none" stroke="#191970" d="M1096.5895,-687.7351C982.2965,-673.6012 751,-636.1472 751,-564.5 751,-564.5 751,-564.5 751,-339.5 751,-283.9847 572.6399,-249.4674 486.0643,-235.9829"/>
<polygon fill="#191970" stroke="#191970" points="486.3933,-232.4926 475.9795,-234.4427 485.3364,-239.4124 486.3933,-232.4926"/>
</g>
<!-- Node31 -->
<g id="node32" class="node">
<title>Node31</title>
<g id="a_node32"><a xlink:href="Ioss__IOFactory_8h.html" target="_top" xlink:title="Ioss_IOFactory.h">
<polygon fill="#ffffff" stroke="#000000" points="106.2998,-275.5 106.2998,-293.5 197.7002,-293.5 197.7002,-275.5 106.2998,-275.5"/>
<text text-anchor="middle" x="152" y="-281.5" font-family="Helvetica,sans-Serif" font-size="10.00" fill="#000000">Ioss_IOFactory.h</text>
</a>
</g>
</g>
<!-- Node0&#45;&gt;Node31 -->
<g id="edge63" class="edge">
<title>Node0&#45;&gt;Node31</title>
<path fill="none" stroke="#191970" d="M1096.7772,-692.8635C891.8945,-687.2561 249.2757,-667.8411 212,-644 178.3356,-622.4687 170,-604.4611 170,-564.5 170,-564.5 170,-564.5 170,-394.5 170,-362.2016 162.3487,-325.2607 157.023,-303.4601"/>
<polygon fill="#191970" stroke="#191970" points="160.3584,-302.3743 154.5028,-293.5446 153.5741,-304.0987 160.3584,-302.3743"/>
</g>
<!-- Node32 -->
<g id="node33" class="node">
<title>Node32</title>
<g id="a_node33"><a xlink:href="Ioss__MeshType_8h.html" target="_top" xlink:title="Ioss_MeshType.h">
<polygon fill="#ffffff" stroke="#000000" points="1149.8105,-555.5 1149.8105,-573.5 1244.1895,-573.5 1244.1895,-555.5 1149.8105,-555.5"/>
<text text-anchor="middle" x="1197" y="-561.5" font-family="Helvetica,sans-Serif" font-size="10.00" fill="#000000">Ioss_MeshType.h</text>
</a>
</g>
</g>
<!-- Node0&#45;&gt;Node32 -->
<g id="edge71" class="edge">
<title>Node0&#45;&gt;Node32</title>
<path fill="none" stroke="#191970" d="M1163.139,-680.3402C1170.0062,-656.8472 1183.7594,-609.7968 1191.4572,-583.4623"/>
<polygon fill="#191970" stroke="#191970" points="1194.9014,-584.1539 1194.3477,-573.5736 1188.1826,-582.1899 1194.9014,-584.1539"/>
</g>
<!-- Node33 -->
<g id="node34" class="node">
<title>Node33</title>
<polygon fill="#ffffff" stroke="#bfbfbf" points="1531.9434,-620.5 1531.9434,-638.5 1584.0566,-638.5 1584.0566,-620.5 1531.9434,-620.5"/>
<text text-anchor="middle" x="1558" y="-626.5" font-family="Helvetica,sans-Serif" font-size="10.00" fill="#000000">memory</text>
</g>
<!-- Node0&#45;&gt;Node33 -->
<g id="edge74" class="edge">
<title>Node0&#45;&gt;Node33</title>
<path fill="none" stroke="#191970" d="M1221.4713,-690.6883C1294.7574,-685.1088 1419.4127,-672.1461 1523,-644 1524.9517,-643.4697 1526.9396,-642.8576 1528.9267,-642.1909"/>
<polygon fill="#191970" stroke="#191970" points="1530.5522,-645.3194 1538.6857,-638.53 1528.0935,-638.7654 1530.5522,-645.3194"/>
</g>
<!-- Node34 -->
<g id="node35" class="node">
<title>Node34</title>
<polygon fill="#ffffff" stroke="#bfbfbf" points="1602.2095,-620.5 1602.2095,-638.5 1653.7905,-638.5 1653.7905,-620.5 1602.2095,-620.5"/>
<text text-anchor="middle" x="1628" y="-626.5" font-family="Helvetica,sans-Serif" font-size="10.00" fill="#000000">stddef.h</text>
</g>
<!-- Node0&#45;&gt;Node34 -->
<g id="edge75" class="edge">
<title>Node0&#45;&gt;Node34</title>
<path fill="none" stroke="#191970" d="M1221.4409,-692.6429C1306.6644,-688.8922 1463.6042,-677.6334 1593,-644 1594.9574,-643.4912 1596.9496,-642.8954 1598.94,-642.2409"/>
<polygon fill="#191970" stroke="#191970" points="1600.5535,-645.3752 1608.7069,-638.6096 1598.114,-638.814 1600.5535,-645.3752"/>
</g>
<!-- Node35 -->
<g id="node36" class="node">
<title>Node35</title>
<polygon fill="#ffffff" stroke="#bfbfbf" points="1671.8794,-620.5 1671.8794,-638.5 1720.1206,-638.5 1720.1206,-620.5 1671.8794,-620.5"/>
<text text-anchor="middle" x="1696" y="-626.5" font-family="Helvetica,sans-Serif" font-size="10.00" fill="#000000">stdint.h</text>
</g>
<!-- Node0&#45;&gt;Node35 -->
<g id="edge76" class="edge">
<title>Node0&#45;&gt;Node35</title>
<path fill="none" stroke="#191970" d="M1221.5352,-690.6901C1337.4103,-683.2246 1581.1379,-665.5084 1663,-644 1664.9065,-643.4991 1666.8435,-642.9019 1668.7745,-642.2397"/>
<polygon fill="#191970" stroke="#191970" points="1670.1846,-645.4463 1678.2123,-638.5321 1667.625,-638.931 1670.1846,-645.4463"/>
</g>
<!-- Node36 -->
<g id="node37" class="node">
<title>Node36</title>
<g id="a_node37"><a xlink:href="Iocgns__DecompositionData_8h.html" target="_top" xlink:title="cgns/Iocgns_Decomposition\lData.h">
<polygon fill="#ffffff" stroke="#000000" points="1372.4658,-615.5 1372.4658,-643.5 1513.5342,-643.5 1513.5342,-615.5 1372.4658,-615.5"/>
<text text-anchor="start" x="1380.4658" y="-631.5" font-family="Helvetica,sans-Serif" font-size="10.00" fill="#000000">cgns/Iocgns_Decomposition</text>
<text text-anchor="middle" x="1443" y="-621.5" font-family="Helvetica,sans-Serif" font-size="10.00" fill="#000000">Data.h</text>
</a>
</g>
</g>
<!-- Node0&#45;&gt;Node36 -->
<g id="edge78" class="edge">
<title>Node0&#45;&gt;Node36</title>
<path fill="none" stroke="#191970" d="M1220.2741,-680.476C1264.6336,-670.3233 1324.7316,-656.5685 1371.3205,-645.9055"/>
<polygon fill="#191970" stroke="#191970" points="1372.3791,-649.2538 1381.3462,-643.6109 1370.8173,-642.4303 1372.3791,-649.2538"/>
</g>
<!-- Node51 -->
<g id="node52" class="node">
<title>Node51</title>
<polygon fill="#ffffff" stroke="#bfbfbf" points="3419.2661,-555.5 3419.2661,-573.5 3474.7339,-573.5 3474.7339,-555.5 3419.2661,-555.5"/>
<text text-anchor="middle" x="3447" y="-561.5" font-family="Helvetica,sans-Serif" font-size="10.00" fill="#000000">cgnslib.h</text>
</g>
<!-- Node0&#45;&gt;Node51 -->
<g id="edge159" class="edge">
<title>Node0&#45;&gt;Node51</title>
<path fill="none" stroke="#191970" d="M1221.4025,-693.6548C1538.1156,-689.0057 2969.6197,-663.5917 3405,-579 3408.2561,-578.3674 3411.6034,-577.5381 3414.9192,-576.5962"/>
<polygon fill="#191970" stroke="#191970" points="3416.1725,-579.8708 3424.6503,-573.5164 3414.0603,-573.1971 3416.1725,-579.8708"/>
</g>
<!-- Node2 -->
<g id="node3" class="node">
<title>Node2</title>
<polygon fill="#ffffff" stroke="#bfbfbf" points="3095.6084,-.5 3095.6084,-18.5 3134.3916,-18.5 3134.3916,-.5 3095.6084,-.5"/>
<text text-anchor="middle" x="3115" y="-6.5" font-family="Helvetica,sans-Serif" font-size="10.00" fill="#000000">array</text>
</g>
<!-- Node1&#45;&gt;Node2 -->
<g id="edge2" class="edge">
<title>Node1&#45;&gt;Node2</title>
<path fill="none" stroke="#191970" d="M2700.6561,-58.614C2797.1155,-47.1803 3007.1825,-22.2801 3085.1166,-13.0422"/>
<polygon fill="#191970" stroke="#191970" points="3085.6925,-16.4985 3095.2109,-11.8457 3084.8684,-9.5472 3085.6925,-16.4985"/>
</g>
<!-- Node3 -->
<g id="node4" class="node">
<title>Node3</title>
<polygon fill="#ffffff" stroke="#bfbfbf" points="2378.8794,-.5 2378.8794,-18.5 2427.1206,-18.5 2427.1206,-.5 2378.8794,-.5"/>
<text text-anchor="middle" x="2403" y="-6.5" font-family="Helvetica,sans-Serif" font-size="10.00" fill="#000000">cstddef</text>
</g>
<!-- Node1&#45;&gt;Node3 -->
<g id="edge3" class="edge">
<title>Node1&#45;&gt;Node3</title>
<path fill="none" stroke="#191970" d="M2610.3255,-55.4795C2562.0086,-44.764 2482.2766,-27.0815 2437.0646,-17.0546"/>
<polygon fill="#191970" stroke="#191970" points="2437.6793,-13.606 2427.1587,-14.8578 2436.1637,-20.44 2437.6793,-13.606"/>
</g>
<!-- Node4 -->
<g id="node5" class="node">
<title>Node4</title>
<polygon fill="#ffffff" stroke="#bfbfbf" points="3320.5493,-.5 3320.5493,-18.5 3365.4507,-18.5 3365.4507,-.5 3320.5493,-.5"/>
<text text-anchor="middle" x="3343" y="-6.5" font-family="Helvetica,sans-Serif" font-size="10.00" fill="#000000">cstdint</text>
</g>
<!-- Node1&#45;&gt;Node4 -->
<g id="edge4" class="edge">
<title>Node1&#45;&gt;Node4</title>
<path fill="none" stroke="#191970" d="M2700.4892,-60.5666C2833.8589,-49.9664 3198.2133,-21.0076 3309.9674,-12.1254"/>
<polygon fill="#191970" stroke="#191970" points="3310.5822,-15.5877 3320.2734,-11.3063 3310.0275,-8.6097 3310.5822,-15.5877"/>
</g>
<!-- Node1&#45;&gt;Node5 -->
<g id="edge5" class="edge">
<title>Node1&#45;&gt;Node5</title>
<path fill="none" stroke="#191970" d="M2601.5626,-62.0658C2409.835,-52.6253 1718.4322,-18.5813 1564.5123,-11.0024"/>
<polygon fill="#191970" stroke="#191970" points="1564.5332,-7.4993 1554.3732,-10.5032 1564.1889,-14.4908 1564.5332,-7.4993"/>
</g>
<!-- Node6 -->
<g id="node7" class="node">
<title>Node6</title>
<polygon fill="#ffffff" stroke="#bfbfbf" points="1018.3843,-.5 1018.3843,-18.5 1061.6157,-18.5 1061.6157,-.5 1018.3843,-.5"/>
<text text-anchor="middle" x="1040" y="-6.5" font-family="Helvetica,sans-Serif" font-size="10.00" fill="#000000">vector</text>
</g>
<!-- Node1&#45;&gt;Node6 -->
<g id="edge6" class="edge">
<title>Node1&#45;&gt;Node6</title>
<path fill="none" stroke="#191970" d="M2601.4638,-62.8088C2355.7991,-54.4218 1272.0331,-17.4217 1071.8526,-10.5875"/>
<polygon fill="#191970" stroke="#191970" points="1071.825,-7.0846 1061.7114,-10.2412 1071.5861,-14.0805 1071.825,-7.0846"/>
</g>
<!-- Node7 -->
<g id="node8" class="node">
<title>Node7</title>
<polygon fill="#ffffff" stroke="#bfbfbf" points="2542.2515,-.5 2542.2515,-18.5 2657.7485,-18.5 2657.7485,-.5 2542.2515,-.5"/>
<text text-anchor="middle" x="2600" y="-6.5" font-family="Helvetica,sans-Serif" font-size="10.00" fill="#000000">SEACASIoss_config.h</text>
</g>
<!-- Node1&#45;&gt;Node7 -->
<g id="edge7" class="edge">
<title>Node1&#45;&gt;Node7</title>
<path fill="none" stroke="#191970" d="M2642.5784,-55.4179C2635.2402,-47.5041 2624.4098,-35.8243 2615.5087,-26.2251"/>
<polygon fill="#191970" stroke="#191970" points="2617.9705,-23.7324 2608.6046,-18.7795 2612.8376,-28.492 2617.9705,-23.7324"/>
</g>
<!-- Node8 -->
<g id="node9" class="node">
<title>Node8</title>
<polygon fill="#ffffff" stroke="#bfbfbf" points="2675.3818,-.5 2675.3818,-18.5 2728.6182,-18.5 2728.6182,-.5 2675.3818,-.5"/>
<text text-anchor="middle" x="2702" y="-6.5" font-family="Helvetica,sans-Serif" font-size="10.00" fill="#000000">complex</text>
</g>
<!-- Node1&#45;&gt;Node8 -->
<g id="edge8" class="edge">
<title>Node1&#45;&gt;Node8</title>
<path fill="none" stroke="#191970" d="M2659.4216,-55.4179C2666.7598,-47.5041 2677.5902,-35.8243 2686.4913,-26.2251"/>
<polygon fill="#191970" stroke="#191970" points="2689.1624,-28.492 2693.3954,-18.7795 2684.0295,-23.7324 2689.1624,-28.492"/>
</g>
<!-- Node10&#45;&gt;Node1 -->
<g id="edge12" class="edge">
<title>Node10&#45;&gt;Node1</title>
<path fill="none" stroke="#191970" d="M996.8489,-283.8585C1230.5672,-280.7703 2195.9379,-266.4461 2328,-239 2350.4638,-234.3314 2354.0983,-226.8365 2376,-220 2443.5101,-198.9271 2469.1315,-218.2632 2531,-184 2577.936,-158.0065 2618.9324,-108.3498 2638.6076,-81.9736"/>
<polygon fill="#191970" stroke="#191970" points="2641.5839,-83.8325 2644.6526,-73.6918 2635.9299,-79.7055 2641.5839,-83.8325"/>
</g>
<!-- Node10&#45;&gt;Node3 -->
<g id="edge57" class="edge">
<title>Node10&#45;&gt;Node3</title>
<path fill="none" stroke="#191970" d="M946.3132,-275.4338C947.2515,-261.794 950.9109,-235.9026 965,-220 1046.8503,-127.6144 1100.5582,-141.1163 1220,-110 1445.7882,-51.1789 2197.4262,-17.7959 2368.2542,-10.8614"/>
<polygon fill="#191970" stroke="#191970" points="2368.5817,-14.3511 2378.4328,-10.4517 2368.3001,-7.3568 2368.5817,-14.3511"/>
</g>
<!-- Node10&#45;&gt;Node4 -->
<g id="edge58" class="edge">
<title>Node10&#45;&gt;Node4</title>
<path fill="none" stroke="#191970" d="M997.0565,-283.7297C1217.9153,-280.264 2092.2252,-265.1367 2366,-239 2419.3164,-233.91 2431.75,-225.743 2485,-220 2625.7434,-204.8207 2984.7021,-222.236 3121,-184 3209.8148,-159.0846 3232.6332,-140.0739 3297,-74 3310.7468,-59.8886 3323.511,-41.3764 3332.0887,-27.8055"/>
<polygon fill="#191970" stroke="#191970" points="3335.2897,-29.2819 3337.5489,-18.9307 3329.3277,-25.6137 3335.2897,-29.2819"/>
</g>
<!-- Node10&#45;&gt;Node5 -->
<g id="edge60" class="edge">
<title>Node10&#45;&gt;Node5</title>
<path fill="none" stroke="#191970" d="M894.9638,-277.032C869.5825,-270.833 840.2894,-259.5367 821,-239 800.5403,-217.2173 802,-204.3846 802,-174.5 802,-174.5 802,-174.5 802,-119.5 802,-47.3986 1364.553,-17.1759 1503.3349,-10.817"/>
<polygon fill="#191970" stroke="#191970" points="1503.8256,-14.2986 1513.6581,-10.3525 1503.5109,-7.3056 1503.8256,-14.2986"/>
</g>
<!-- Node10&#45;&gt;Node6 -->
<g id="edge62" class="edge">
<title>Node10&#45;&gt;Node6</title>
<path fill="none" stroke="#191970" d="M894.8322,-279.2137C795.176,-268.7948 583.4826,-246.0106 569,-239 532.368,-221.2675 504,-215.1982 504,-174.5 504,-174.5 504,-174.5 504,-119.5 504,-68.8328 550.4392,-72.4679 598,-55 673.5952,-27.2357 919.8947,-14.4939 1008.1633,-10.7387"/>
<polygon fill="#191970" stroke="#191970" points="1008.5134,-14.2273 1018.3595,-10.3153 1008.2229,-7.2333 1008.5134,-14.2273"/>
</g>
<!-- Node10&#45;&gt;Node9 -->
<g id="edge13" class="edge">
<title>Node10&#45;&gt;Node9</title>
<path fill="none" stroke="#191970" d="M895.0841,-280.6106C764.4424,-270.631 418.0993,-244.1743 282.0218,-233.7794"/>
<polygon fill="#191970" stroke="#191970" points="282.0597,-230.2722 271.8221,-233.0003 281.5264,-237.2519 282.0597,-230.2722"/>
</g>
<!-- Node11 -->
<g id="node12" class="node">
<title>Node11</title>
<g id="a_node12"><a xlink:href="Ioss__BoundingBox_8h.html" target="_top" xlink:title="Ioss_BoundingBox.h">
<polygon fill="#ffffff" stroke="#000000" points="974.1333,-220.5 974.1333,-238.5 1081.8667,-238.5 1081.8667,-220.5 974.1333,-220.5"/>
<text text-anchor="middle" x="1028" y="-226.5" font-family="Helvetica,sans-Serif" font-size="10.00" fill="#000000">Ioss_BoundingBox.h</text>
</a>
</g>
</g>
<!-- Node10&#45;&gt;Node11 -->
<g id="edge11" class="edge">
<title>Node10&#45;&gt;Node11</title>
<path fill="none" stroke="#191970" d="M959.5406,-275.4179C972.1226,-266.9788 991.0896,-254.257 1005.8711,-244.3426"/>
<polygon fill="#191970" stroke="#191970" points="1008.084,-247.0727 1014.4393,-238.5956 1004.1847,-241.2593 1008.084,-247.0727"/>
</g>
<!-- Node12 -->
<g id="node13" class="node">
<title>Node12</title>
<g id="a_node13"><a xlink:href="Ioss__DataSize_8h.html" target="_top" xlink:title="Ioss_DataSize.h">
<polygon fill="#ffffff" stroke="#000000" points="829.5913,-220.5 829.5913,-238.5 918.4087,-238.5 918.4087,-220.5 829.5913,-220.5"/>
<text text-anchor="middle" x="874" y="-226.5" font-family="Helvetica,sans-Serif" font-size="10.00" fill="#000000">Ioss_DataSize.h</text>
</a>
</g>
</g>
<!-- Node10&#45;&gt;Node12 -->
<g id="edge14" class="edge">
<title>Node10&#45;&gt;Node12</title>
<path fill="none" stroke="#191970" d="M934.1107,-275.4179C923.3365,-267.1876 907.2298,-254.8839 894.4003,-245.0836"/>
<polygon fill="#191970" stroke="#191970" points="896.219,-242.0685 886.1477,-238.7795 891.9697,-247.6313 896.219,-242.0685"/>
</g>
<!-- Node13 -->
<g id="node14" class="node">
<title>Node13</title>
<g id="a_node14"><a xlink:href="Ioss__EntityType_8h.html" target="_top" xlink:title="Ioss_EntityType.h">
<polygon fill="#ffffff" stroke="#000000" points="2493.5322,-220.5 2493.5322,-238.5 2588.4678,-238.5 2588.4678,-220.5 2493.5322,-220.5"/>
<text text-anchor="middle" x="2541" y="-226.5" font-family="Helvetica,sans-Serif" font-size="10.00" fill="#000000">Ioss_EntityType.h</text>
</a>
</g>
</g>
<!-- Node10&#45;&gt;Node13 -->
<g id="edge15" class="edge">
<title>Node10&#45;&gt;Node13</title>
<path fill="none" stroke="#191970" d="M997.0351,-283.61C1184.5617,-280.1904 1853.2471,-266.6791 2404,-239 2430.0441,-237.6911 2458.8416,-235.7665 2483.2857,-233.9913"/>
<polygon fill="#191970" stroke="#191970" points="2483.7582,-237.4661 2493.4745,-233.2418 2483.2446,-230.4849 2483.7582,-237.4661"/>
</g>
<!-- Node10&#45;&gt;Node14 -->
<g id="edge16" class="edge">
<title>Node10&#45;&gt;Node14</title>
<path fill="none" stroke="#191970" d="M989.2986,-275.4795C1038.0532,-265.3223 1116.8557,-248.9051 1165.9261,-238.6821"/>
<polygon fill="#191970" stroke="#191970" points="1166.8485,-242.0651 1175.9244,-236.5991 1165.4207,-235.2123 1166.8485,-242.0651"/>
</g>
<!-- Node15 -->
<g id="node16" class="node">
<title>Node15</title>
<polygon fill="#ffffff" stroke="#bfbfbf" points="531.6084,-165.5 531.6084,-183.5 570.3916,-183.5 570.3916,-165.5 531.6084,-165.5"/>
<text text-anchor="middle" x="551" y="-171.5" font-family="Helvetica,sans-Serif" font-size="10.00" fill="#000000">utility</text>
</g>
<!-- Node10&#45;&gt;Node15 -->
<g id="edge61" class="edge">
<title>Node10&#45;&gt;Node15</title>
<path fill="none" stroke="#191970" d="M895.1132,-279.142C799.9918,-268.965 603.6402,-247.1302 591,-239 574.5917,-228.4462 563.7831,-208.5244 557.5855,-193.6013"/>
<polygon fill="#191970" stroke="#191970" points="560.695,-191.9306 553.8735,-183.8239 554.1508,-194.4151 560.695,-191.9306"/>
</g>
<!-- Node16 -->
<g id="node17" class="node">
<title>Node16</title>
<g id="a_node17"><a xlink:href="Ioss__ParallelUtils_8h.html" target="_top" xlink:title="Ioss_ParallelUtils.h">
<polygon fill="#ffffff" stroke="#000000" points="2184.4829,-220.5 2184.4829,-238.5 2285.5171,-238.5 2285.5171,-220.5 2184.4829,-220.5"/>
<text text-anchor="middle" x="2235" y="-226.5" font-family="Helvetica,sans-Serif" font-size="10.00" fill="#000000">Ioss_ParallelUtils.h</text>
</a>
</g>
</g>
<!-- Node10&#45;&gt;Node16 -->
<g id="edge23" class="edge">
<title>Node10&#45;&gt;Node16</title>
<path fill="none" stroke="#191970" d="M996.8297,-283.4332C1195.4887,-279.1393 1920.5069,-262.2721 2174.047,-238.9371"/>
<polygon fill="#191970" stroke="#191970" points="2174.6911,-242.3919 2184.3158,-237.9631 2174.03,-235.4231 2174.6911,-242.3919"/>
</g>
<!-- Node24 -->
<g id="node25" class="node">
<title>Node24</title>
<g id="a_node25"><a xlink:href="Ioss__PropertyManager_8h.html" target="_top" xlink:title="Ioss_PropertyManager.h">
<polygon fill="#ffffff" stroke="#000000" points="1375.5225,-220.5 1375.5225,-238.5 1500.4775,-238.5 1500.4775,-220.5 1375.5225,-220.5"/>
<text text-anchor="middle" x="1438" y="-226.5" font-family="Helvetica,sans-Serif" font-size="10.00" fill="#000000">Ioss_PropertyManager.h</text>
</a>
</g>
</g>
<!-- Node10&#45;&gt;Node24 -->
<g id="edge45" class="edge">
<title>Node10&#45;&gt;Node24</title>
<path fill="none" stroke="#191970" d="M997.2603,-278.7697C1085.0631,-268.9543 1264.4848,-248.897 1365.2224,-237.6357"/>
<polygon fill="#191970" stroke="#191970" points="1365.7669,-241.0967 1375.3161,-236.5073 1364.9892,-234.1401 1365.7669,-241.0967"/>
</g>
<!-- Node10&#45;&gt;Node27 -->
<g id="edge54" class="edge">
<title>Node10&#45;&gt;Node27</title>
<path fill="none" stroke="#191970" d="M894.9883,-279.1228C881.9523,-277.7629 867.9587,-276.3155 855,-275 692.8241,-258.5372 651.3446,-262.237 490,-239 488.721,-238.8158 487.4249,-238.6216 486.1178,-238.4192"/>
<polygon fill="#191970" stroke="#191970" points="486.4241,-234.9222 475.9856,-236.7356 485.2766,-241.8275 486.4241,-234.9222"/>
</g>
<!-- Node28 -->
<g id="node29" class="node">
<title>Node28</title>
<g id="a_node29"><a xlink:href="Ioss__SurfaceSplit_8h.html" target="_top" xlink:title="Ioss_SurfaceSplit.h">
<polygon fill="#ffffff" stroke="#000000" points="607.9214,-220.5 607.9214,-238.5 710.0786,-238.5 710.0786,-220.5 607.9214,-220.5"/>
<text text-anchor="middle" x="659" y="-226.5" font-family="Helvetica,sans-Serif" font-size="10.00" fill="#000000">Ioss_SurfaceSplit.h</text>
</a>
</g>
</g>
<!-- Node10&#45;&gt;Node28 -->
<g id="edge55" class="edge">
<title>Node10&#45;&gt;Node28</title>
<path fill="none" stroke="#191970" d="M898.9292,-275.4795C848.8811,-265.8884 769.7071,-250.7156 716.1233,-240.447"/>
<polygon fill="#191970" stroke="#191970" points="716.5766,-236.9702 706.0965,-238.5255 715.2591,-243.8451 716.5766,-236.9702"/>
</g>
<!-- Node29 -->
<g id="node30" class="node">
<title>Node29</title>
<polygon fill="#ffffff" stroke="#bfbfbf" points="727.7119,-220.5 727.7119,-238.5 774.2881,-238.5 774.2881,-220.5 727.7119,-220.5"/>
<text text-anchor="middle" x="751" y="-226.5" font-family="Helvetica,sans-Serif" font-size="10.00" fill="#000000">chrono</text>
</g>
<!-- Node10&#45;&gt;Node29 -->
<g id="edge56" class="edge">
<title>Node10&#45;&gt;Node29</title>
<path fill="none" stroke="#191970" d="M913.7997,-275.4179C878.0602,-265.3375 820.6562,-249.1466 784.4291,-238.9287"/>
<polygon fill="#191970" stroke="#191970" points="784.9357,-235.4351 774.3611,-236.089 783.0355,-242.1723 784.9357,-235.4351"/>
</g>
<!-- Node30 -->
<g id="node31" class="node">
<title>Node30</title>
<polygon fill="#ffffff" stroke="#bfbfbf" points="856.2734,-165.5 856.2734,-183.5 891.7266,-183.5 891.7266,-165.5 856.2734,-165.5"/>
<text text-anchor="middle" x="874" y="-171.5" font-family="Helvetica,sans-Serif" font-size="10.00" fill="#000000">map</text>
</g>
<!-- Node10&#45;&gt;Node30 -->
<g id="edge59" class="edge">
<title>Node10&#45;&gt;Node30</title>
<path fill="none" stroke="#191970" d="M894.9172,-278.6758C799.6156,-267.6921 603.8463,-244.5233 599,-239 593.4305,-232.6526 593.5379,-226.4401 599,-220 614.9001,-201.253 778.8013,-183.6016 845.7487,-177.1167"/>
<polygon fill="#191970" stroke="#191970" points="846.3638,-180.574 855.9859,-176.1392 845.6984,-173.6057 846.3638,-180.574"/>
</g>
<!-- Node14&#45;&gt;Node1 -->
<g id="edge17" class="edge">
<title>Node14&#45;&gt;Node1</title>
<path fill="none" stroke="#191970" d="M1243.9901,-227.3638C1275.7867,-225.3843 1324.6054,-222.3934 1367,-220 1672.2662,-202.7663 1753.0516,-237.9863 2054,-184 2081.1537,-179.129 2264.0432,-115.8636 2291,-110 2395.2899,-87.3149 2519.2112,-74.7279 2591.105,-68.8087"/>
<polygon fill="#191970" stroke="#191970" points="2591.6404,-72.2769 2601.3262,-67.9833 2591.077,-65.2996 2591.6404,-72.2769"/>
</g>
<!-- Node14&#45;&gt;Node3 -->
<g id="edge18" class="edge">
<title>Node14&#45;&gt;Node3</title>
<path fill="none" stroke="#191970" d="M1201.0497,-220.221C1189.1666,-206.7681 1171.2013,-181.6405 1185,-165 1269.2961,-63.3439 1346.3672,-129.3614 1477,-110 1823.2615,-58.6796 2246.0288,-22.2926 2368.3443,-12.2782"/>
<polygon fill="#191970" stroke="#191970" points="2368.9049,-15.7442 2378.5877,-11.4439 2368.3366,-8.7673 2368.9049,-15.7442"/>
</g>
<!-- Node14&#45;&gt;Node4 -->
<g id="edge19" class="edge">
<title>Node14&#45;&gt;Node4</title>
<path fill="none" stroke="#191970" d="M1243.9752,-227.0558C1275.7613,-224.8613 1324.5731,-221.7272 1367,-220 1462.4419,-216.1146 2994.9947,-213.0223 3086,-184 3189.1345,-151.1096 3288.535,-62.5187 3326.653,-25.7939"/>
<polygon fill="#191970" stroke="#191970" points="3329.1243,-28.2726 3333.8361,-18.7832 3324.235,-23.2631 3329.1243,-28.2726"/>
</g>
<!-- Node14&#45;&gt;Node5 -->
<g id="edge20" class="edge">
<title>Node14&#45;&gt;Node5</title>
<path fill="none" stroke="#191970" d="M1188.5253,-220.4579C1173.8926,-213.0204 1155.6604,-200.9377 1147,-184 1126.8992,-144.6878 1100.7179,-121.643 1178,-55 1202.4989,-33.8738 1421.5327,-17.0806 1503.3522,-11.4934"/>
<polygon fill="#191970" stroke="#191970" points="1503.7707,-14.9733 1513.5129,-10.8093 1503.3004,-7.9891 1503.7707,-14.9733"/>
</g>
<!-- Node14&#45;&gt;Node6 -->
<g id="edge22" class="edge">
<title>Node14&#45;&gt;Node6</title>
<path fill="none" stroke="#191970" d="M1176.1175,-222.6451C1138.2276,-214.3579 1080.0561,-199.5734 1064,-184 1021.097,-142.3866 1017.1126,-114.1046 1026,-55 1027.3501,-46.0213 1030.1197,-36.3695 1032.8418,-28.2759"/>
<polygon fill="#191970" stroke="#191970" points="1036.1871,-29.3158 1036.2695,-18.7213 1029.5983,-26.952 1036.1871,-29.3158"/>
</g>
<!-- Node14&#45;&gt;Node15 -->
<g id="edge21" class="edge">
<title>Node14&#45;&gt;Node15</title>
<path fill="none" stroke="#191970" d="M1175.957,-226.6588C1061.0364,-217.0675 688.6056,-185.9845 580.6075,-176.971"/>
<polygon fill="#191970" stroke="#191970" points="580.6938,-173.4662 570.4373,-176.1222 580.1115,-180.4419 580.6938,-173.4662"/>
</g>
<!-- Node16&#45;&gt;Node1 -->
<g id="edge24" class="edge">
<title>Node16&#45;&gt;Node1</title>
<path fill="none" stroke="#191970" d="M2285.6866,-222.039C2341.0602,-213.3596 2425.7782,-198.3776 2455,-184 2500.2445,-161.739 2498.0482,-136.4151 2541,-110 2563.4408,-96.199 2590.8081,-84.8605 2612.6311,-76.954"/>
<polygon fill="#191970" stroke="#191970" points="2613.9651,-80.1949 2622.2302,-73.5663 2611.6354,-73.5939 2613.9651,-80.1949"/>
</g>
<!-- Node16&#45;&gt;Node3 -->
<g id="edge42" class="edge">
<title>Node16&#45;&gt;Node3</title>
<path fill="none" stroke="#191970" d="M2281.3613,-220.4521C2318.4305,-212.2421 2366.237,-199.1308 2379,-184 2416.7182,-139.2843 2411.4676,-63.9579 2406.404,-28.7373"/>
<polygon fill="#191970" stroke="#191970" points="2409.8508,-28.1259 2404.8212,-18.801 2402.9379,-29.2271 2409.8508,-28.1259"/>
</g>
<!-- Node16&#45;&gt;Node5 -->
<g id="edge43" class="edge">
<title>Node16&#45;&gt;Node5</title>
<path fill="none" stroke="#191970" d="M2184.3297,-221.3025C2108.2192,-208.9281 1972.7145,-186.6336 1968,-184 1929.7833,-162.6521 1934.684,-140.2055 1903,-110 1874.615,-82.9396 1869.9394,-70.695 1834,-55 1785.8687,-33.9807 1630.7093,-18.101 1564.4519,-12.1066"/>
<polygon fill="#191970" stroke="#191970" points="1564.5175,-8.5987 1554.2466,-11.1982 1563.8968,-15.5711 1564.5175,-8.5987"/>
</g>
<!-- Node16&#45;&gt;Node6 -->
<g id="edge44" class="edge">
<title>Node16&#45;&gt;Node6</title>
<path fill="none" stroke="#191970" d="M2184.2642,-221.4462C2181.1296,-220.955 2178.0222,-220.4698 2175,-220 2070.1568,-203.7035 2043.7063,-201.1541 1939,-184 1799.1837,-161.0938 1763.5915,-158.4223 1625,-129 1590.9417,-121.7696 1582.9785,-117.5968 1549,-110 1369.3893,-69.8434 1152.2365,-29.766 1071.8895,-15.2228"/>
<polygon fill="#191970" stroke="#191970" points="1072.3732,-11.7536 1061.9104,-13.4206 1071.1291,-18.6422 1072.3732,-11.7536"/>
</g>
<!-- Node17 -->
<g id="node18" class="node">
<title>Node17</title>
<g id="a_node18"><a xlink:href="Ioss__Utils_8h.html" target="_top" xlink:title="Ioss_Utils.h">
<polygon fill="#ffffff" stroke="#000000" points="1977.1577,-165.5 1977.1577,-183.5 2044.8423,-183.5 2044.8423,-165.5 1977.1577,-165.5"/>
<text text-anchor="middle" x="2011" y="-171.5" font-family="Helvetica,sans-Serif" font-size="10.00" fill="#000000">Ioss_Utils.h</text>
</a>
</g>
</g>
<!-- Node16&#45;&gt;Node17 -->
<g id="edge25" class="edge">
<title>Node16&#45;&gt;Node17</title>
<path fill="none" stroke="#191970" d="M2198.011,-220.4179C2158.7504,-210.778 2096.7309,-195.55 2054.9914,-185.3015"/>
<polygon fill="#191970" stroke="#191970" points="2055.6507,-181.8594 2045.1045,-182.8739 2053.9815,-188.6575 2055.6507,-181.8594"/>
</g>
<!-- Node20 -->
<g id="node21" class="node">
<title>Node20</title>
<polygon fill="#ffffff" stroke="#bfbfbf" points="2658.8843,-110.5 2658.8843,-128.5 2707.1157,-128.5 2707.1157,-110.5 2658.8843,-110.5"/>
<text text-anchor="middle" x="2683" y="-116.5" font-family="Helvetica,sans-Serif" font-size="10.00" fill="#000000">cassert</text>
</g>
<!-- Node16&#45;&gt;Node20 -->
<g id="edge41" class="edge">
<title>Node16&#45;&gt;Node20</title>
<path fill="none" stroke="#191970" d="M2285.9133,-222.8643C2338.3084,-215.4905 2422.0656,-202.1816 2493,-184 2549.3765,-169.5498 2613.0914,-146.4893 2650.5549,-132.2115"/>
<polygon fill="#191970" stroke="#191970" points="2651.8641,-135.458 2659.9455,-128.6066 2649.3554,-128.923 2651.8641,-135.458"/>
</g>
<!-- Node17&#45;&gt;Node1 -->
<g id="edge26" class="edge">
<title>Node17&#45;&gt;Node1</title>
<path fill="none" stroke="#191970" d="M2037.0922,-165.4938C2078.8072,-151.4513 2163.3275,-124.4543 2237,-110 2361.8621,-85.5025 2510.6856,-73.1846 2591.5293,-67.8773"/>
<polygon fill="#191970" stroke="#191970" points="2591.7675,-71.3693 2601.5221,-67.2344 2591.318,-64.3837 2591.7675,-71.3693"/>
</g>
<!-- Node17&#45;&gt;Node3 -->
<g id="edge34" class="edge">
<title>Node17&#45;&gt;Node3</title>
<path fill="none" stroke="#191970" d="M2044.9323,-166.1616C2067.6551,-159.2175 2097.1166,-147.4361 2118,-129 2146.5161,-103.8257 2129.9341,-76.9504 2161,-55 2193.9504,-31.718 2309.8697,-18.0331 2368.497,-12.4499"/>
<polygon fill="#191970" stroke="#191970" points="2369.1097,-15.9083 2378.7444,-11.5012 2368.4643,-8.9381 2369.1097,-15.9083"/>
</g>
<!-- Node17&#45;&gt;Node4 -->
<g id="edge35" class="edge">
<title>Node17&#45;&gt;Node4</title>
<path fill="none" stroke="#191970" d="M2044.9276,-170.2973C2231.0247,-147.2447 3126.1589,-36.3609 3309.9667,-13.592"/>
<polygon fill="#191970" stroke="#191970" points="3310.5993,-17.0404 3320.0932,-12.3376 3309.7387,-10.0935 3310.5993,-17.0404"/>
</g>
<!-- Node17&#45;&gt;Node5 -->
<g id="edge39" class="edge">
<title>Node17&#45;&gt;Node5</title>
<path fill="none" stroke="#191970" d="M2003.6636,-165.2585C1983.0905,-139.5997 1924.6182,-68.4827 1898,-55 1839.7881,-25.5144 1641.5333,-14.0792 1564.7376,-10.6898"/>
<polygon fill="#191970" stroke="#191970" points="1564.4592,-7.1749 1554.3195,-10.2469 1564.1618,-14.1686 1564.4592,-7.1749"/>
</g>
<!-- Node17&#45;&gt;Node6 -->
<g id="edge40" class="edge">
<title>Node17&#45;&gt;Node6</title>
<path fill="none" stroke="#191970" d="M1976.7031,-166.7877C1919.655,-154.0892 1801.5863,-128.3591 1701,-110 1599.6467,-91.5009 1570.1234,-105.4087 1472,-74 1454.0165,-68.2436 1452.0976,-60.387 1434,-55 1366.103,-34.7897 1152.8176,-17.6736 1071.7207,-11.7341"/>
<polygon fill="#191970" stroke="#191970" points="1071.8488,-8.2343 1061.622,-11.0024 1071.3429,-15.216 1071.8488,-8.2343"/>
</g>
<!-- Node18 -->
<g id="node19" class="node">
<title>Node18</title>
<g id="a_node19"><a xlink:href="Ioss__Field_8h.html" target="_top" xlink:title="Ioss_Field.h">
<polygon fill="#ffffff" stroke="#000000" points="1824.042,-110.5 1824.042,-128.5 1893.958,-128.5 1893.958,-110.5 1824.042,-110.5"/>
<text text-anchor="middle" x="1859" y="-116.5" font-family="Helvetica,sans-Serif" font-size="10.00" fill="#000000">Ioss_Field.h</text>
</a>
</g>
</g>
<!-- Node17&#45;&gt;Node18 -->
<g id="edge27" class="edge">
<title>Node17&#45;&gt;Node18</title>
<path fill="none" stroke="#191970" d="M1985.9003,-165.4179C1960.632,-156.2748 1921.4709,-142.1046 1893.3355,-131.924"/>
<polygon fill="#191970" stroke="#191970" points="1894.4786,-128.6156 1883.8844,-128.5042 1892.0968,-135.198 1894.4786,-128.6156"/>
</g>
<!-- Node19 -->
<g id="node20" class="node">
<title>Node19</title>
<polygon fill="#ffffff" stroke="#bfbfbf" points="1634.436,-110.5 1634.436,-128.5 1691.564,-128.5 1691.564,-110.5 1634.436,-110.5"/>
<text text-anchor="middle" x="1663" y="-116.5" font-family="Helvetica,sans-Serif" font-size="10.00" fill="#000000">algorithm</text>
</g>
<!-- Node17&#45;&gt;Node19 -->
<g id="edge32" class="edge">
<title>Node17&#45;&gt;Node19</title>
<path fill="none" stroke="#191970" d="M1976.9987,-169.1262C1911.9282,-158.8421 1770.1751,-136.4386 1701.6377,-125.6065"/>
<polygon fill="#191970" stroke="#191970" points="1702.1055,-122.1371 1691.6817,-124.033 1701.0127,-129.0513 1702.1055,-122.1371"/>
</g>
<!-- Node17&#45;&gt;Node20 -->
<g id="edge33" class="edge">
<title>Node17&#45;&gt;Node20</title>
<path fill="none" stroke="#191970" d="M2045.2484,-171.6969C2160.5362,-162.2612 2533.7225,-131.7176 2648.8553,-122.2946"/>
<polygon fill="#191970" stroke="#191970" points="2649.1868,-125.7792 2658.868,-121.4751 2648.6158,-118.8026 2649.1868,-125.7792"/>
</g>
<!-- Node21 -->
<g id="node22" class="node">
<title>Node21</title>
<polygon fill="#ffffff" stroke="#bfbfbf" points="2064.8276,-110.5 2064.8276,-128.5 2109.1724,-128.5 2109.1724,-110.5 2064.8276,-110.5"/>
<text text-anchor="middle" x="2087" y="-116.5" font-family="Helvetica,sans-Serif" font-size="10.00" fill="#000000">cstdlib</text>
</g>
<!-- Node17&#45;&gt;Node21 -->
<g id="edge36" class="edge">
<title>Node17&#45;&gt;Node21</title>
<path fill="none" stroke="#191970" d="M2023.5499,-165.4179C2035.1011,-157.0584 2052.4592,-144.4966 2066.1015,-134.6239"/>
<polygon fill="#191970" stroke="#191970" points="2068.3823,-137.2938 2074.4315,-128.5956 2064.2784,-131.6229 2068.3823,-137.2938"/>
</g>
<!-- Node17&#45;&gt;Node22 -->
<g id="edge37" class="edge">
<title>Node17&#45;&gt;Node22</title>
<path fill="none" stroke="#191970" d="M1976.7704,-170.7196C1886.7364,-160.7761 1643.823,-133.9483 1550.3557,-123.6256"/>
<polygon fill="#191970" stroke="#191970" points="1550.5561,-120.1266 1540.2323,-122.5076 1549.7876,-127.0843 1550.5561,-120.1266"/>
</g>
<!-- Node23 -->
<g id="node24" class="node">
<title>Node23</title>
<polygon fill="#ffffff" stroke="#bfbfbf" points="1987.5986,-110.5 1987.5986,-128.5 2046.4014,-128.5 2046.4014,-110.5 1987.5986,-110.5"/>
<text text-anchor="middle" x="2017" y="-116.5" font-family="Helvetica,sans-Serif" font-size="10.00" fill="#000000">stdexcept</text>
</g>
<!-- Node17&#45;&gt;Node23 -->
<g id="edge38" class="edge">
<title>Node17&#45;&gt;Node23</title>
<path fill="none" stroke="#191970" d="M2011.9908,-165.4179C2012.7764,-158.2164 2013.9022,-147.8962 2014.8877,-138.8632"/>
<polygon fill="#191970" stroke="#191970" points="2018.3825,-139.1001 2015.9877,-128.7795 2011.4238,-138.3409 2018.3825,-139.1001"/>
</g>
<!-- Node18&#45;&gt;Node1 -->
<g id="edge28" class="edge">
<title>Node18&#45;&gt;Node1</title>
<path fill="none" stroke="#191970" d="M1894.1724,-116.6094C1918.0866,-114.6702 1950.4459,-112.0969 1979,-110 2204.8403,-93.4154 2473.5454,-75.8852 2591.0287,-68.3304"/>
<polygon fill="#191970" stroke="#191970" points="2591.4924,-71.808 2601.2475,-67.674 2591.0436,-64.8224 2591.4924,-71.808"/>
</g>
<!-- Node18&#45;&gt;Node3 -->
<g id="edge29" class="edge">
<title>Node18&#45;&gt;Node3</title>
<path fill="none" stroke="#191970" d="M1892.5656,-110.4013C1942.5286,-97.0625 2039.5412,-71.949 2123,-55 2210.8222,-37.1648 2315.2618,-21.696 2368.3251,-14.2404"/>
<polygon fill="#191970" stroke="#191970" points="2369.1181,-17.6637 2378.5385,-12.8154 2368.1507,-10.7309 2369.1181,-17.6637"/>
</g>
<!-- Node18&#45;&gt;Node5 -->
<g id="edge30" class="edge">
<title>Node18&#45;&gt;Node5</title>
<path fill="none" stroke="#191970" d="M1854.8118,-110.2326C1847.7805,-95.8322 1832.1636,-68.3535 1810,-55 1769.0068,-30.3017 1627.5326,-16.6636 1564.6001,-11.6953"/>
<polygon fill="#191970" stroke="#191970" points="1564.7398,-8.1958 1554.5011,-10.9196 1564.2037,-15.1752 1564.7398,-8.1958"/>
</g>
<!-- Node18&#45;&gt;Node6 -->
<g id="edge31" class="edge">
<title>Node18&#45;&gt;Node6</title>
<path fill="none" stroke="#191970" d="M1823.8902,-112.9195C1756.0751,-100.3713 1602.2637,-72.6989 1472,-55 1322.7333,-34.7191 1143.3969,-18.3864 1071.7891,-12.1877"/>
<polygon fill="#191970" stroke="#191970" points="1071.8946,-8.6839 1061.6315,-11.314 1071.2947,-15.6582 1071.8946,-8.6839"/>
</g>
<!-- Node24&#45;&gt;Node1 -->
<g id="edge46" class="edge">
<title>Node24&#45;&gt;Node1</title>
<path fill="none" stroke="#191970" d="M1500.6922,-226.5986C1658.782,-219.1043 2065.3666,-198.6628 2125,-184 2145.2893,-179.0112 2148.2373,-171.7807 2168,-165 2263.3317,-132.2909 2289.3883,-130.827 2388,-110 2457.4262,-95.337 2537.898,-81.9358 2591.3601,-73.5333"/>
<polygon fill="#191970" stroke="#191970" points="2592.0105,-76.9742 2601.3501,-71.972 2590.9295,-70.0582 2592.0105,-76.9742"/>
</g>
<!-- Node24&#45;&gt;Node3 -->
<g id="edge50" class="edge">
<title>Node24&#45;&gt;Node3</title>
<path fill="none" stroke="#191970" d="M1500.6078,-226.2573C1646.6887,-218.4933 2001.6598,-198.4117 2054,-184 2186.4661,-147.5259 2328.1001,-59.3133 2381.2262,-24.2392"/>
<polygon fill="#191970" stroke="#191970" points="2383.4333,-26.9745 2389.8171,-18.5189 2379.5536,-21.148 2383.4333,-26.9745"/>
</g>
<!-- Node24&#45;&gt;Node5 -->
<g id="edge51" class="edge">
<title>Node24&#45;&gt;Node5</title>
<path fill="none" stroke="#191970" d="M1388.2528,-220.4148C1367.3386,-213.9143 1344.9068,-202.8317 1332,-184 1324.8161,-173.5182 1325.5332,-60.5728 1330,-55 1351.3995,-28.3018 1451.9759,-16.2471 1503.4628,-11.7497"/>
<polygon fill="#191970" stroke="#191970" points="1503.9826,-15.2187 1513.6583,-10.9022 1503.4027,-8.2427 1503.9826,-15.2187"/>
</g>
<!-- Node24&#45;&gt;Node6 -->
<g id="edge53" class="edge">
<title>Node24&#45;&gt;Node6</title>
<path fill="none" stroke="#191970" d="M1403.884,-220.4175C1352.5063,-205.8564 1253.2794,-174.254 1178,-129 1128.4901,-99.2373 1079.5235,-51.2763 1055.4257,-26.1198"/>
<polygon fill="#191970" stroke="#191970" points="1057.9211,-23.6647 1048.5063,-18.8054 1052.8359,-28.4752 1057.9211,-23.6647"/>
</g>
<!-- Node25 -->
<g id="node26" class="node">
<title>Node25</title>
<g id="a_node26"><a xlink:href="Ioss__Property_8h.html" target="_top" xlink:title="Ioss_Property.h">
<polygon fill="#ffffff" stroke="#000000" points="2811.3516,-165.5 2811.3516,-183.5 2896.6484,-183.5 2896.6484,-165.5 2811.3516,-165.5"/>
<text text-anchor="middle" x="2854" y="-171.5" font-family="Helvetica,sans-Serif" font-size="10.00" fill="#000000">Ioss_Property.h</text>
</a>
</g>
</g>
<!-- Node24&#45;&gt;Node25 -->
<g id="edge47" class="edge">
<title>Node24&#45;&gt;Node25</title>
<path fill="none" stroke="#191970" d="M1500.9565,-226.7431C1545.6223,-224.8055 1606.9872,-222.1805 1661,-220 2101.6977,-202.2091 2634.0476,-182.557 2801.1852,-176.4303"/>
<polygon fill="#191970" stroke="#191970" points="2801.3338,-179.9273 2811.1989,-176.0634 2801.0774,-172.932 2801.3338,-179.9273"/>
</g>
<!-- Node26 -->
<g id="node27" class="node">
<title>Node26</title>
<polygon fill="#ffffff" stroke="#bfbfbf" points="1340.6973,-165.5 1340.6973,-183.5 1427.3027,-183.5 1427.3027,-165.5 1340.6973,-165.5"/>
<text text-anchor="middle" x="1384" y="-171.5" font-family="Helvetica,sans-Serif" font-size="10.00" fill="#000000">unordered_map</text>
</g>
<!-- Node24&#45;&gt;Node26 -->
<g id="edge52" class="edge">
<title>Node24&#45;&gt;Node26</title>
<path fill="none" stroke="#191970" d="M1429.083,-220.4179C1421.2354,-212.425 1409.616,-200.5903 1400.1389,-190.9377"/>
<polygon fill="#191970" stroke="#191970" points="1402.6142,-188.463 1393.1107,-183.7795 1397.6192,-193.3672 1402.6142,-188.463"/>
</g>
<!-- Node25&#45;&gt;Node4 -->
<g id="edge48" class="edge">
<title>Node25&#45;&gt;Node4</title>
<path fill="none" stroke="#191970" d="M2892.2578,-165.4467C2925.2124,-157.2333 2973.8289,-144.12 3015,-129 3089.3038,-101.7122 3102.589,-81.9941 3177,-55 3222.4418,-38.5151 3276.7373,-24.6958 3310.5526,-16.7557"/>
<polygon fill="#191970" stroke="#191970" points="3311.4052,-20.151 3320.357,-14.4839 3309.825,-13.3316 3311.4052,-20.151"/>
</g>
<!-- Node25&#45;&gt;Node5 -->
<g id="edge49" class="edge">
<title>Node25&#45;&gt;Node5</title>
<path fill="none" stroke="#191970" d="M2847.1265,-165.4217C2828.289,-141.421 2772.9596,-76.6531 2709,-55 2597.8459,-17.3696 1738.4474,-10.6308 1564.6032,-9.6487"/>
<polygon fill="#191970" stroke="#191970" points="1564.6174,-6.1488 1554.5985,-9.5943 1564.5793,-13.1487 1564.6174,-6.1488"/>
</g>
<!-- Node31&#45;&gt;Node1 -->
<g id="edge64" class="edge">
<title>Node31&#45;&gt;Node1</title>
<path fill="none" stroke="#191970" d="M198.032,-283.8381C504.8114,-279.3888 2242.7139,-253.5729 2295,-239 2311.3026,-234.4562 2312.2541,-226.2036 2328,-220 2393.7999,-194.076 2418.5179,-213.0472 2483,-184 2514.5718,-169.7779 2594.3895,-108.7894 2631.4878,-79.8523"/>
<polygon fill="#191970" stroke="#191970" points="2633.8213,-82.4706 2639.5396,-73.5514 2629.5073,-76.9579 2633.8213,-82.4706"/>
</g>
<!-- Node31&#45;&gt;Node5 -->
<g id="edge65" class="edge">
<title>Node31&#45;&gt;Node5</title>
<path fill="none" stroke="#191970" d="M149.4514,-275.2476C146.3356,-261.8277 142.7569,-236.7409 154,-220 220.9996,-120.2386 286.0896,-145.1695 401,-110 535.2213,-68.9202 572.5628,-71.13 712,-55 1019.4754,-19.4314 1394.9801,-11.4801 1503.378,-9.8744"/>
<polygon fill="#191970" stroke="#191970" points="1503.6379,-13.3712 1513.5876,-9.7305 1503.5392,-6.3719 1503.6379,-13.3712"/>
</g>
<!-- Node31&#45;&gt;Node6 -->
<g id="edge69" class="edge">
<title>Node31&#45;&gt;Node6</title>
<path fill="none" stroke="#191970" d="M137.8941,-275.1745C126.3168,-266.885 110.2207,-253.8092 100,-239 82.6262,-213.8265 76,-205.0869 76,-174.5 76,-174.5 76,-174.5 76,-119.5 76,-23.4876 840.6179,-11.244 1007.9131,-9.7142"/>
<polygon fill="#191970" stroke="#191970" points="1008.0844,-13.2129 1018.0543,-9.6281 1008.0249,-6.2132 1008.0844,-13.2129"/>
</g>
<!-- Node31&#45;&gt;Node9 -->
<g id="edge66" class="edge">
<title>Node31&#45;&gt;Node9</title>
<path fill="none" stroke="#191970" d="M164.2196,-275.4179C175.4669,-267.0584 192.3682,-254.4966 205.6515,-244.6239"/>
<polygon fill="#191970" stroke="#191970" points="207.8241,-247.37 213.7623,-238.5956 203.6484,-241.7518 207.8241,-247.37"/>
</g>
<!-- Node31&#45;&gt;Node24 -->
<g id="edge67" class="edge">
<title>Node31&#45;&gt;Node24</title>
<path fill="none" stroke="#191970" d="M197.8929,-282.768C348.8619,-277.0354 843.7987,-257.9614 1253,-239 1289.9749,-237.2867 1331.0965,-235.1937 1365.1626,-233.4088"/>
<polygon fill="#191970" stroke="#191970" points="1365.6935,-236.8858 1375.496,-232.8655 1365.3259,-229.8955 1365.6935,-236.8858"/>
</g>
<!-- Node31&#45;&gt;Node30 -->
<g id="edge68" class="edge">
<title>Node31&#45;&gt;Node30</title>
<path fill="none" stroke="#191970" d="M151.6823,-275.2469C151.748,-260.866 154.2238,-233.4138 171,-220 197.8012,-198.5705 718.0421,-179.7408 845.8339,-175.426"/>
<polygon fill="#191970" stroke="#191970" points="846.1084,-178.9189 855.9856,-175.086 845.874,-171.9228 846.1084,-178.9189"/>
</g>
<!-- Node36&#45;&gt;Node1 -->
<g id="edge84" class="edge">
<title>Node36&#45;&gt;Node1</title>
<path fill="none" stroke="#191970" d="M1513.5848,-616.0844C1516.7609,-615.6771 1519.9104,-615.3118 1523,-615 1887.2373,-578.2414 2811.5212,-653.2491 3170,-579 3255.9898,-561.1896 3353,-592.3149 3353,-504.5 3353,-504.5 3353,-504.5 3353,-394.5 3353,-300.8769 3303.4709,-283.8516 3235,-220 3143.2366,-134.4273 3097.1496,-138.6824 2975,-110 2884.0614,-88.6464 2776.2552,-75.9512 2710.7799,-69.6022"/>
<polygon fill="#191970" stroke="#191970" points="2710.9307,-66.1008 2700.644,-68.6373 2710.2673,-73.0693 2710.9307,-66.1008"/>
</g>
<!-- Node36&#45;&gt;Node3 -->
<g id="edge82" class="edge">
<title>Node36&#45;&gt;Node3</title>
<path fill="none" stroke="#191970" d="M1513.6176,-616.3602C1516.7848,-615.8782 1519.9234,-615.4218 1523,-615 1653.6834,-597.0822 2705,-636.406 2705,-504.5 2705,-504.5 2705,-504.5 2705,-449.5 2705,-274.1577 2857.8473,-147.6791 2709,-55 2686.2398,-40.8285 2512.8156,-21.0824 2437.6102,-13.08"/>
<polygon fill="#191970" stroke="#191970" points="2437.5689,-9.5562 2427.2566,-11.9865 2436.8337,-16.5175 2437.5689,-9.5562"/>
</g>
<!-- Node36&#45;&gt;Node4 -->
<g id="edge83" class="edge">
<title>Node36&#45;&gt;Node4</title>
<path fill="none" stroke="#191970" d="M1513.5843,-616.0797C1516.7606,-615.6737 1519.9102,-615.3099 1523,-615 1715.7407,-595.6659 3077.6021,-624.0446 3266,-579 3430.2508,-539.7288 3561,-508.3803 3561,-339.5 3561,-339.5 3561,-339.5 3561,-119.5 3561,-37.5179 3436.5948,-16.6251 3375.7418,-11.3093"/>
<polygon fill="#191970" stroke="#191970" points="3375.7508,-7.7994 3365.5087,-10.5104 3375.206,-14.7782 3375.7508,-7.7994"/>
</g>
<!-- Node36&#45;&gt;Node5 -->
<g id="edge79" class="edge">
<title>Node36&#45;&gt;Node5</title>
<path fill="none" stroke="#191970" d="M1418.6222,-615.4178C1388.2837,-598.3036 1334.5393,-569.3237 1286,-550 994.7843,-434.0658 909.2754,-442.1748 610,-349 499.5725,-314.6201 318.9818,-315.6496 384,-220 421.3496,-165.0543 460.2414,-186.8032 523,-165 683.4476,-109.2583 721.926,-85.6082 889,-55 1009.3525,-32.9513 1392.4267,-15.4607 1503.5259,-10.7531"/>
<polygon fill="#191970" stroke="#191970" points="1503.8558,-14.2424 1513.7001,-10.3256 1503.5619,-7.2485 1503.8558,-14.2424"/>
</g>
<!-- Node36&#45;&gt;Node6 -->
<g id="edge81" class="edge">
<title>Node36&#45;&gt;Node6</title>
<path fill="none" stroke="#191970" d="M1379.4117,-615.4152C1349.8314,-607.2956 1314.8876,-595.3902 1286,-579 1269.0178,-569.3647 1270.444,-558.7716 1253,-550 1131.5865,-488.9483 174.3263,-362.5791 57,-294 23.9719,-274.6945 0,-267.7564 0,-229.5 0,-229.5 0,-229.5 0,-119.5 0,-79.116 27.092,-71.3909 64,-55 151.8968,-15.965 850.0331,-10.383 1008.2107,-9.6173"/>
<polygon fill="#191970" stroke="#191970" points="1008.2609,-13.1172 1018.2449,-9.5718 1008.2291,-6.1173 1008.2609,-13.1172"/>
</g>
<!-- Node36&#45;&gt;Node18 -->
<g id="edge97" class="edge">
<title>Node36&#45;&gt;Node18</title>
<path fill="none" stroke="#191970" d="M1449.5726,-615.4836C1465.5377,-582.3907 1508.9735,-497.8471 1562,-440 1658.104,-335.1593 1732.0878,-357.3234 1811,-239 1832.6225,-206.5785 1847.053,-162.9076 1854.0612,-138.3367"/>
<polygon fill="#191970" stroke="#191970" points="1857.4892,-139.07 1856.758,-128.5004 1850.7383,-137.219 1857.4892,-139.07"/>
</g>
<!-- Node36&#45;&gt;Node24 -->
<g id="edge99" class="edge">
<title>Node36&#45;&gt;Node24</title>
<path fill="none" stroke="#191970" d="M1439.4262,-615.3593C1433.9224,-592.3041 1424,-545.1087 1424,-504.5 1424,-504.5 1424,-504.5 1424,-339.5 1424,-307.3684 1429.951,-270.3768 1434.0932,-248.5207"/>
<polygon fill="#191970" stroke="#191970" points="1437.5532,-249.065 1436.0534,-238.5769 1430.6854,-247.7112 1437.5532,-249.065"/>
</g>
<!-- Node36&#45;&gt;Node26 -->
<g id="edge80" class="edge">
<title>Node36&#45;&gt;Node26</title>
<path fill="none" stroke="#191970" d="M1421.9164,-615.271C1393.9286,-594.4983 1348,-553.0183 1348,-504.5 1348,-504.5 1348,-504.5 1348,-284.5 1348,-250.6739 1363.5667,-213.7695 1374.2275,-192.4619"/>
<polygon fill="#191970" stroke="#191970" points="1377.3345,-194.0731 1378.8421,-183.5861 1371.1237,-190.8441 1377.3345,-194.0731"/>
</g>
<!-- Node36&#45;&gt;Node32 -->
<g id="edge98" class="edge">
<title>Node36&#45;&gt;Node32</title>
<path fill="none" stroke="#191970" d="M1389.9245,-615.476C1345.4289,-603.719 1282.6519,-587.1316 1240.9349,-576.1088"/>
<polygon fill="#191970" stroke="#191970" points="1241.6298,-572.6724 1231.0674,-573.5016 1239.8415,-579.4401 1241.6298,-572.6724"/>
</g>
<!-- Node37 -->
<g id="node38" class="node">
<title>Node37</title>
<g id="a_node38"><a xlink:href="Ioss__Decomposition_8h.html" target="_top" xlink:title="Ioss_Decomposition.h">
<polygon fill="#ffffff" stroke="#000000" points="1631.8081,-275.5 1631.8081,-293.5 1746.1919,-293.5 1746.1919,-275.5 1631.8081,-275.5"/>
<text text-anchor="middle" x="1689" y="-281.5" font-family="Helvetica,sans-Serif" font-size="10.00" fill="#000000">Ioss_Decomposition.h</text>
</a>
</g>
</g>
<!-- Node36&#45;&gt;Node37 -->
<g id="edge85" class="edge">
<title>Node36&#45;&gt;Node37</title>
<path fill="none" stroke="#191970" d="M1444.2292,-615.4507C1448.4023,-575.2466 1465.2272,-457.9518 1524,-385 1558.5766,-342.0817 1616.7441,-312.854 1653.9732,-297.4237"/>
<polygon fill="#191970" stroke="#191970" points="1655.4528,-300.6011 1663.4204,-293.6177 1652.837,-294.1082 1655.4528,-300.6011"/>
</g>
<!-- Node40 -->
<g id="node41" class="node">
<title>Node40</title>
<polygon fill="#ffffff" stroke="#bfbfbf" points="2606.6455,-220.5 2606.6455,-238.5 2679.3545,-238.5 2679.3545,-220.5 2606.6455,-220.5"/>
<text text-anchor="middle" x="2643" y="-226.5" font-family="Helvetica,sans-Serif" font-size="10.00" fill="#000000">zoltan_cpp.h</text>
</g>
<!-- Node36&#45;&gt;Node40 -->
<g id="edge158" class="edge">
<title>Node36&#45;&gt;Node40</title>
<path fill="none" stroke="#191970" d="M1476.9056,-615.3965C1516.3102,-596.4752 1576,-558.8444 1576,-504.5 1576,-504.5 1576,-504.5 1576,-449.5 1576,-424.1843 2449.5882,-300.7044 2474,-294 2524.2229,-280.207 2580.3002,-257.2156 2613.5691,-242.7324"/>
<polygon fill="#191970" stroke="#191970" points="2615.3834,-245.7582 2623.1299,-238.5303 2612.5668,-239.3498 2615.3834,-245.7582"/>
</g>
<!-- Node41 -->
<g id="node42" class="node">
<title>Node41</title>
<g id="a_node42"><a xlink:href="Ioss__StructuredBlock_8h.html" target="_top" xlink:title="Ioss_StructuredBlock.h">
<polygon fill="#ffffff" stroke="#000000" points="2875.5864,-495.5 2875.5864,-513.5 2994.4136,-513.5 2994.4136,-495.5 2875.5864,-495.5"/>
<text text-anchor="middle" x="2935" y="-501.5" font-family="Helvetica,sans-Serif" font-size="10.00" fill="#000000">Ioss_StructuredBlock.h</text>
</a>
</g>
</g>
<!-- Node36&#45;&gt;Node41 -->
<g id="edge100" class="edge">
<title>Node36&#45;&gt;Node41</title>
<path fill="none" stroke="#191970" d="M1513.5881,-616.1163C1516.7633,-615.7004 1519.9117,-615.3245 1523,-615 1787.4422,-587.212 2457.4508,-626.8943 2719,-579 2788.2101,-566.3264 2865.208,-535.4499 2905.9762,-517.6793"/>
<polygon fill="#191970" stroke="#191970" points="2907.5596,-520.8062 2915.2969,-513.5684 2904.7348,-514.4015 2907.5596,-520.8062"/>
</g>
<!-- Node50 -->
<g id="node51" class="node">
<title>Node50</title>
<g id="a_node51"><a xlink:href="Iocgns__StructuredZoneData_8h.html" target="_top" xlink:title="cgns/Iocgns_StructuredZone\lData.h">
<polygon fill="#ffffff" stroke="#000000" points="3017.0742,-550.5 3017.0742,-578.5 3160.9258,-578.5 3160.9258,-550.5 3017.0742,-550.5"/>
<text text-anchor="start" x="3025.0742" y="-566.5" font-family="Helvetica,sans-Serif" font-size="10.00" fill="#000000">cgns/Iocgns_StructuredZone</text>
<text text-anchor="middle" x="3089" y="-556.5" font-family="Helvetica,sans-Serif" font-size="10.00" fill="#000000">Data.h</text>
</a>
</g>
</g>
<!-- Node36&#45;&gt;Node50 -->
<g id="edge151" class="edge">
<title>Node36&#45;&gt;Node50</title>
<path fill="none" stroke="#191970" d="M1513.5869,-616.1046C1516.7624,-615.6918 1519.9112,-615.3198 1523,-615 2111.1826,-554.0937 2262.2502,-605.1354 2853,-579 2904.184,-576.7356 2961.5558,-573.2325 3006.9154,-570.2369"/>
<polygon fill="#191970" stroke="#191970" points="3007.2474,-573.7226 3016.9931,-569.5667 3006.7829,-566.7381 3007.2474,-573.7226"/>
</g>
<!-- Node36&#45;&gt;Node51 -->
<g id="edge157" class="edge">
<title>Node36&#45;&gt;Node51</title>
<path fill="none" stroke="#191970" d="M1513.5837,-616.0738C1516.7601,-615.6694 1519.9099,-615.3076 1523,-615 1939.2416,-573.5666 2993.1468,-652.1489 3405,-579 3408.4463,-578.3879 3411.9904,-577.5373 3415.4893,-576.5519"/>
<polygon fill="#191970" stroke="#191970" points="3416.6355,-579.8603 3425.112,-573.5041 3414.5219,-573.187 3416.6355,-579.8603"/>
</g>
<!-- Node37&#45;&gt;Node1 -->
<g id="edge86" class="edge">
<title>Node37&#45;&gt;Node1</title>
<path fill="none" stroke="#191970" d="M1746.3044,-283.1131C1863.2559,-279.7404 2137.6707,-269.0537 2366,-239 2397.3264,-234.8767 2616.2386,-197.0816 2645,-184 2686.489,-165.1295 2737.0488,-150.4275 2716,-110 2708.8336,-96.2358 2695.3869,-85.7744 2682.5752,-78.3746"/>
<polygon fill="#191970" stroke="#191970" points="2683.9297,-75.1308 2673.4574,-73.524 2680.642,-81.3107 2683.9297,-75.1308"/>
</g>
<!-- Node37&#45;&gt;Node5 -->
<g id="edge93" class="edge">
<title>Node37&#45;&gt;Node5</title>
<path fill="none" stroke="#191970" d="M1664.7612,-275.455C1618.1332,-256.5616 1517.0225,-207.9906 1477,-129 1458.4258,-92.341 1493.5979,-48.6001 1516.5037,-25.5499"/>
<polygon fill="#191970" stroke="#191970" points="1518.9633,-28.0402 1523.7061,-18.5662 1514.0904,-23.0147 1518.9633,-28.0402"/>
</g>
<!-- Node37&#45;&gt;Node6 -->
<g id="edge94" class="edge">
<title>Node37&#45;&gt;Node6</title>
<path fill="none" stroke="#191970" d="M1631.5085,-281.9988C1514.695,-276.5063 1253.3624,-262.0158 1167,-239 1147.5936,-233.8281 1144.343,-228.1788 1126,-220 1088.9031,-203.4592 1070.815,-212.6265 1042,-184 1000.6849,-142.9553 1005.9902,-111.7657 1019,-55 1021.1831,-45.4743 1025.4935,-35.548 1029.6441,-27.4065"/>
<polygon fill="#191970" stroke="#191970" points="1032.7797,-28.9664 1034.4738,-18.5078 1026.6275,-25.6272 1032.7797,-28.9664"/>
</g>
<!-- Node37&#45;&gt;Node14 -->
<g id="edge87" class="edge">
<title>Node37&#45;&gt;Node14</title>
<path fill="none" stroke="#191970" d="M1631.6972,-277.9203C1534.9351,-266.8099 1341.2066,-244.5655 1254.1502,-234.5694"/>
<polygon fill="#191970" stroke="#191970" points="1254.4101,-231.0764 1244.0761,-233.4127 1253.6115,-238.0307 1254.4101,-231.0764"/>
</g>
<!-- Node37&#45;&gt;Node16 -->
<g id="edge88" class="edge">
<title>Node37&#45;&gt;Node16</title>
<path fill="none" stroke="#191970" d="M1746.3637,-280.3193C1835.5392,-273.5579 2013.0305,-259.054 2174.1929,-239.0263"/>
<polygon fill="#191970" stroke="#191970" points="2174.8059,-242.477 2184.2933,-237.7611 2173.9358,-235.5312 2174.8059,-242.477"/>
</g>
<!-- Node37&#45;&gt;Node19 -->
<g id="edge90" class="edge">
<title>Node37&#45;&gt;Node19</title>
<path fill="none" stroke="#191970" d="M1681.3244,-275.4689C1674.4761,-266.7727 1664.9406,-252.9224 1661,-239 1651.292,-204.7013 1655.5141,-162.6216 1659.342,-138.6497"/>
<polygon fill="#191970" stroke="#191970" points="1662.8026,-139.1786 1661.0742,-128.7257 1655.9068,-137.975 1662.8026,-139.1786"/>
</g>
<!-- Node37&#45;&gt;Node24 -->
<g id="edge89" class="edge">
<title>Node37&#45;&gt;Node24</title>
<path fill="none" stroke="#191970" d="M1647.8335,-275.4795C1604.4273,-265.9681 1535.9704,-250.9676 1489.1317,-240.7042"/>
<polygon fill="#191970" stroke="#191970" points="1489.7064,-237.2471 1479.189,-238.5255 1488.208,-244.0849 1489.7064,-237.2471"/>
</g>
<!-- Node37&#45;&gt;Node30 -->
<g id="edge92" class="edge">
<title>Node37&#45;&gt;Node30</title>
<path fill="none" stroke="#191970" d="M1631.6542,-282.2226C1509.458,-276.9754 1226.9947,-262.6397 1134,-239 1113.7504,-233.8525 1110.8889,-226.4011 1091,-220 1024.5959,-198.6283 943.4617,-184.7134 901.7299,-178.4079"/>
<polygon fill="#191970" stroke="#191970" points="902.1676,-174.9347 891.7632,-176.9344 901.1437,-181.8594 902.1676,-174.9347"/>
</g>
<!-- Node38 -->
<g id="node39" class="node">
<title>Node38</title>
<polygon fill="#ffffff" stroke="#bfbfbf" points="1670.2144,-220.5 1670.2144,-238.5 1721.7856,-238.5 1721.7856,-220.5 1670.2144,-220.5"/>
<text text-anchor="middle" x="1696" y="-226.5" font-family="Helvetica,sans-Serif" font-size="10.00" fill="#000000">assert.h</text>
</g>
<!-- Node37&#45;&gt;Node38 -->
<g id="edge91" class="edge">
<title>Node37&#45;&gt;Node38</title>
<path fill="none" stroke="#191970" d="M1690.1559,-275.4179C1691.0725,-268.2164 1692.3859,-257.8962 1693.5356,-248.8632"/>
<polygon fill="#191970" stroke="#191970" points="1697.0283,-249.1414 1694.819,-238.7795 1690.0844,-248.2575 1697.0283,-249.1414"/>
</g>
<!-- Node39 -->
<g id="node40" class="node">
<title>Node39</title>
<polygon fill="#ffffff" stroke="#bfbfbf" points="1739.6577,-220.5 1739.6577,-238.5 1802.3423,-238.5 1802.3423,-220.5 1739.6577,-220.5"/>
<text text-anchor="middle" x="1771" y="-226.5" font-family="Helvetica,sans-Serif" font-size="10.00" fill="#000000">parmetis.h</text>
</g>
<!-- Node37&#45;&gt;Node39 -->
<g id="edge95" class="edge">
<title>Node37&#45;&gt;Node39</title>
<path fill="none" stroke="#191970" d="M1702.5406,-275.4179C1715.1226,-266.9788 1734.0896,-254.257 1748.8711,-244.3426"/>
<polygon fill="#191970" stroke="#191970" points="1751.084,-247.0727 1757.4393,-238.5956 1747.1847,-241.2593 1751.084,-247.0727"/>
</g>
<!-- Node37&#45;&gt;Node40 -->
<g id="edge96" class="edge">
<title>Node37&#45;&gt;Node40</title>
<path fill="none" stroke="#191970" d="M1746.4556,-282.7773C1915.866,-277.5182 2412.4384,-260.7682 2596.3364,-238.831"/>
<polygon fill="#191970" stroke="#191970" points="2596.9329,-242.2839 2606.4269,-237.5813 2596.0725,-235.337 2596.9329,-242.2839"/>
</g>
<!-- Node41&#45;&gt;Node1 -->
<g id="edge102" class="edge">
<title>Node41&#45;&gt;Node1</title>
<path fill="none" stroke="#191970" d="M2994.5959,-495.5373C3050.3167,-483.3802 3125,-455.6753 3125,-394.5 3125,-394.5 3125,-394.5 3125,-284.5 3125,-228.632 3127.2118,-202.7203 3086,-165 3078.8369,-158.4437 2816.1918,-100.5379 2702.5456,-75.7165"/>
<polygon fill="#191970" stroke="#191970" points="2703.1903,-72.2749 2692.674,-73.5618 2701.6975,-79.1138 2703.1903,-72.2749"/>
</g>
<!-- Node41&#45;&gt;Node2 -->
<g id="edge148" class="edge">
<title>Node41&#45;&gt;Node2</title>
<path fill="none" stroke="#191970" d="M2994.4338,-498.0625C3030.0547,-492.0947 3075.0607,-480.6886 3110,-459 3192.4483,-407.8203 3211.5702,-381.7534 3253,-294 3298.6594,-197.2878 3345.863,-140.0342 3281,-55 3264.5083,-33.3797 3187.5687,-19.5041 3144.4626,-13.2884"/>
<polygon fill="#191970" stroke="#191970" points="3144.9301,-9.8199 3134.5429,-11.9071 3143.9646,-16.753 3144.9301,-9.8199"/>
</g>
<!-- Node41&#45;&gt;Node5 -->
<g id="edge150" class="edge">
<title>Node41&#45;&gt;Node5</title>
<path fill="none" stroke="#191970" d="M2875.2907,-501.1158C2619.7053,-485.6364 1619.4056,-414.6404 1367,-239 1297.9824,-190.973 1269.5885,-119.9402 1323,-55 1345.604,-27.517 1450.795,-15.7699 1503.5969,-11.5364"/>
<polygon fill="#191970" stroke="#191970" points="1504.0145,-15.0149 1513.7199,-10.7658 1503.4831,-8.035 1504.0145,-15.0149"/>
</g>
<!-- Node41&#45;&gt;Node11 -->
<g id="edge101" class="edge">
<title>Node41&#45;&gt;Node11</title>
<path fill="none" stroke="#191970" d="M2875.2325,-503.6814C2632.2654,-500.1874 1725.5837,-485.4805 1600,-459 1378.609,-412.3177 1132.694,-286.1721 1053.8184,-243.6869"/>
<polygon fill="#191970" stroke="#191970" points="1055.0893,-240.3947 1044.6296,-238.7075 1051.7542,-246.5492 1055.0893,-240.3947"/>
</g>
<!-- Node41&#45;&gt;Node20 -->
<g id="edge149" class="edge">
<title>Node41&#45;&gt;Node20</title>
<path fill="none" stroke="#191970" d="M2938.7305,-495.2787C2942.1805,-486.2185 2947.0583,-471.9132 2949,-459 2968.6363,-328.4112 3007.3606,-249.6465 2906,-165 2877.7217,-141.3847 2772.3113,-128.0306 2717.1468,-122.5192"/>
<polygon fill="#191970" stroke="#191970" points="2717.4318,-119.0305 2707.1411,-121.5507 2716.7574,-125.998 2717.4318,-119.0305"/>
</g>
<!-- Node41&#45;&gt;Node25 -->
<g id="edge142" class="edge">
<title>Node41&#45;&gt;Node25</title>
<path fill="none" stroke="#191970" d="M2935,-495.3733C2935,-476.5256 2935,-431.9306 2935,-394.5 2935,-394.5 2935,-394.5 2935,-284.5 2935,-244.3678 2899.6082,-209.2283 2875.6134,-190.0163"/>
<polygon fill="#191970" stroke="#191970" points="2877.4357,-187.0023 2867.3755,-183.6791 2873.1675,-192.5506 2877.4357,-187.0023"/>
</g>
<!-- Node42 -->
<g id="node43" class="node">
<title>Node42</title>
<g id="a_node43"><a xlink:href="Ioss__EntityBlock_8h.html" target="_top" xlink:title="Ioss_EntityBlock.h">
<polygon fill="#ffffff" stroke="#000000" points="2733.1479,-385.5 2733.1479,-403.5 2830.8521,-403.5 2830.8521,-385.5 2733.1479,-385.5"/>
<text text-anchor="middle" x="2782" y="-391.5" font-family="Helvetica,sans-Serif" font-size="10.00" fill="#000000">Ioss_EntityBlock.h</text>
</a>
</g>
</g>
<!-- Node41&#45;&gt;Node42 -->
<g id="edge103" class="edge">
<title>Node41&#45;&gt;Node42</title>
<path fill="none" stroke="#191970" d="M2875.5267,-496.4515C2849.88,-490.1602 2821.3854,-478.9548 2802,-459 2790.2683,-446.9237 2785.4051,-428.0987 2783.3962,-413.8971"/>
<polygon fill="#191970" stroke="#191970" points="2786.8519,-413.2929 2782.3203,-403.7161 2779.8907,-414.0286 2786.8519,-413.2929"/>
</g>
<!-- Node48 -->
<g id="node49" class="node">
<title>Node48</title>
<g id="a_node49"><a xlink:href="Ioss__NodeBlock_8h.html" target="_top" xlink:title="Ioss_NodeBlock.h">
<polygon fill="#ffffff" stroke="#000000" points="2810.6997,-440.5 2810.6997,-458.5 2907.3003,-458.5 2907.3003,-440.5 2810.6997,-440.5"/>
<text text-anchor="middle" x="2859" y="-446.5" font-family="Helvetica,sans-Serif" font-size="10.00" fill="#000000">Ioss_NodeBlock.h</text>
</a>
</g>
</g>
<!-- Node41&#45;&gt;Node48 -->
<g id="edge135" class="edge">
<title>Node41&#45;&gt;Node48</title>
<path fill="none" stroke="#191970" d="M2922.4501,-495.4179C2910.8989,-487.0584 2893.5408,-474.4966 2879.8985,-464.6239"/>
<polygon fill="#191970" stroke="#191970" points="2881.7216,-461.6229 2871.5685,-458.5956 2877.6177,-467.2938 2881.7216,-461.6229"/>
</g>
<!-- Node49 -->
<g id="node50" class="node">
<title>Node49</title>
<g id="a_node50"><a xlink:href="Ioss__ZoneConnectivity_8h.html" target="_top" xlink:title="Ioss_ZoneConnectivity.h">
<polygon fill="#ffffff" stroke="#000000" points="2952.6177,-165.5 2952.6177,-183.5 3077.3823,-183.5 3077.3823,-165.5 2952.6177,-165.5"/>
<text text-anchor="middle" x="3015" y="-171.5" font-family="Helvetica,sans-Serif" font-size="10.00" fill="#000000">Ioss_ZoneConnectivity.h</text>
</a>
</g>
</g>
<!-- Node41&#45;&gt;Node49 -->
<g id="edge143" class="edge">
<title>Node41&#45;&gt;Node49</title>
<path fill="none" stroke="#191970" d="M2991.7815,-495.4514C3016.3721,-488.9583 3043.8495,-477.8714 3063,-459 3084.7864,-437.5312 3087,-425.0869 3087,-394.5 3087,-394.5 3087,-394.5 3087,-284.5 3087,-245.8438 3055.4869,-210.1906 3034.1573,-190.486"/>
<polygon fill="#191970" stroke="#191970" points="3036.368,-187.7683 3026.568,-183.742 3031.7182,-193.0009 3036.368,-187.7683"/>
</g>
<!-- Node42&#45;&gt;Node3 -->
<g id="edge133" class="edge">
<title>Node42&#45;&gt;Node3</title>
<path fill="none" stroke="#191970" d="M2781.2756,-385.4324C2779.0718,-353.9439 2774.1923,-246.7908 2802,-165 2810.5287,-139.9144 2835.7685,-134.2087 2825,-110 2810.1638,-76.6469 2797.1878,-70.2025 2764,-55 2734.638,-41.55 2521.8159,-20.5531 2437.382,-12.65"/>
<polygon fill="#191970" stroke="#191970" points="2437.5587,-9.1514 2427.2773,-11.7094 2436.9098,-16.1212 2437.5587,-9.1514"/>
</g>
<!-- Node42&#45;&gt;Node5 -->
<g id="edge134" class="edge">
<title>Node42&#45;&gt;Node5</title>
<path fill="none" stroke="#191970" d="M2732.7104,-393.329C2607.174,-389.9925 2265.2832,-378.6877 1982,-349 1821.462,-332.1758 1769.3937,-362.0029 1623,-294 1555.5809,-262.6825 1543.5243,-241.9794 1497,-184 1479.5736,-162.2829 1473.88,-155.981 1467,-129 1461.6612,-108.0632 1473.7038,-58.8841 1476,-55 1483.5773,-42.1823 1496.2467,-31.6175 1507.8148,-23.9052"/>
<polygon fill="#191970" stroke="#191970" points="1509.7195,-26.8421 1516.3437,-18.5735 1506.0089,-20.9065 1509.7195,-26.8421"/>
</g>
<!-- Node42&#45;&gt;Node25 -->
<g id="edge132" class="edge">
<title>Node42&#45;&gt;Node25</title>
<path fill="none" stroke="#191970" d="M2798.1235,-385.3558C2810.4482,-377.433 2826.6902,-364.7715 2835,-349 2861.8119,-298.1125 2859.4159,-227.4052 2856.3065,-193.7662"/>
<polygon fill="#191970" stroke="#191970" points="2859.754,-193.0841 2855.2236,-183.5068 2852.7927,-193.8189 2859.754,-193.0841"/>
</g>
<!-- Node43 -->
<g id="node44" class="node">
<title>Node43</title>
<g id="a_node44"><a xlink:href="Ioss__GroupingEntity_8h.html" target="_top" xlink:title="Ioss_GroupingEntity.h">
<polygon fill="#ffffff" stroke="#000000" points="1991.1743,-330.5 1991.1743,-348.5 2104.8257,-348.5 2104.8257,-330.5 1991.1743,-330.5"/>
<text text-anchor="middle" x="2048" y="-336.5" font-family="Helvetica,sans-Serif" font-size="10.00" fill="#000000">Ioss_GroupingEntity.h</text>
</a>
</g>
</g>
<!-- Node42&#45;&gt;Node43 -->
<g id="edge104" class="edge">
<title>Node42&#45;&gt;Node43</title>
<path fill="none" stroke="#191970" d="M2732.9865,-390.8273C2605.0857,-381.2435 2261.04,-355.4635 2115.0134,-344.5214"/>
<polygon fill="#191970" stroke="#191970" points="2115.081,-341.0168 2104.8474,-343.7597 2114.5579,-347.9972 2115.081,-341.0168"/>
</g>
<!-- Node43&#45;&gt;Node1 -->
<g id="edge105" class="edge">
<title>Node43&#45;&gt;Node1</title>
<path fill="none" stroke="#191970" d="M2104.8781,-336.0603C2186.9141,-330.5039 2342.9885,-317.7027 2474,-294 2522.3167,-285.2585 2651.1156,-271.4107 2688,-239 2710.7524,-219.0072 2747.2986,-136.1407 2732,-110 2723.2294,-95.0137 2707.5108,-84.5853 2692.239,-77.5315"/>
<polygon fill="#191970" stroke="#191970" points="2693.4276,-74.2342 2682.8539,-73.5651 2690.7026,-80.682 2693.4276,-74.2342"/>
</g>
<!-- Node43&#45;&gt;Node3 -->
<g id="edge128" class="edge">
<title>Node43&#45;&gt;Node3</title>
<path fill="none" stroke="#191970" d="M2104.9876,-331.2973C2184.1875,-316.686 2325.9076,-278.2825 2398,-184 2433.4733,-137.608 2435.0066,-112.1525 2423,-55 2421.0073,-45.5145 2416.9127,-35.5931 2412.9445,-27.4445"/>
<polygon fill="#191970" stroke="#191970" points="2416.0314,-25.7943 2408.3165,-18.5327 2409.8191,-29.0204 2416.0314,-25.7943"/>
</g>
<!-- Node43&#45;&gt;Node4 -->
<g id="edge129" class="edge">
<title>Node43&#45;&gt;Node4</title>
<path fill="none" stroke="#191970" d="M2104.9676,-336.4735C2339.3914,-323.4914 3221.3495,-269.2703 3309,-184 3351.5203,-142.6343 3349.3587,-65.0215 3345.6402,-28.9052"/>
<polygon fill="#191970" stroke="#191970" points="3349.0875,-28.2533 3344.4329,-18.7357 3342.1363,-29.0787 3349.0875,-28.2533"/>
</g>
<!-- Node43&#45;&gt;Node5 -->
<g id="edge130" class="edge">
<title>Node43&#45;&gt;Node5</title>
<path fill="none" stroke="#191970" d="M2029.2882,-330.3315C2010.6746,-321.1911 1981.3162,-306.7196 1956,-294 1891.3497,-261.5177 1875.7197,-252.3438 1811,-220 1728.6776,-178.8593 1696.1246,-187.4022 1625,-129 1589.0607,-99.4894 1559.0345,-53.106 1544.1226,-27.6766"/>
<polygon fill="#191970" stroke="#191970" points="1547.0136,-25.6821 1539.0047,-18.7461 1540.9402,-29.1626 1547.0136,-25.6821"/>
</g>
<!-- Node43&#45;&gt;Node6 -->
<g id="edge131" class="edge">
<title>Node43&#45;&gt;Node6</title>
<path fill="none" stroke="#191970" d="M1990.93,-339.4285C1678.4158,-338.8787 185.3395,-334.1525 97,-294 61.6313,-277.924 38,-268.3508 38,-229.5 38,-229.5 38,-229.5 38,-119.5 38,-60.1217 97.8949,-71.2723 155,-55 238.27,-31.2718 859.4405,-14.0909 1008.1032,-10.2908"/>
<polygon fill="#191970" stroke="#191970" points="1008.4524,-13.7832 1018.3605,-10.0308 1008.275,-6.7854 1008.4524,-13.7832"/>
</g>
<!-- Node43&#45;&gt;Node10 -->
<g id="edge106" class="edge">
<title>Node43&#45;&gt;Node10</title>
<path fill="none" stroke="#191970" d="M1991.0722,-336.6588C1802.8288,-327.2637 1201.4024,-297.2469 1007.1386,-287.5514"/>
<polygon fill="#191970" stroke="#191970" points="1007.2688,-284.0536 997.1067,-287.0507 1006.9198,-291.0449 1007.2688,-284.0536"/>
</g>
<!-- Node43&#45;&gt;Node13 -->
<g id="edge107" class="edge">
<title>Node43&#45;&gt;Node13</title>
<path fill="none" stroke="#191970" d="M2104.8644,-336.1511C2198.6334,-330.0928 2381.3574,-315.8759 2442,-294 2472.9571,-282.8327 2503.9938,-260.3312 2522.8526,-245.087"/>
<polygon fill="#191970" stroke="#191970" points="2525.145,-247.733 2530.6165,-238.6603 2520.6814,-242.3407 2525.145,-247.733"/>
</g>
<!-- Node43&#45;&gt;Node18 -->
<g id="edge108" class="edge">
<title>Node43&#45;&gt;Node18</title>
<path fill="none" stroke="#191970" d="M2033.6038,-330.4213C2008.9754,-314.3506 1958.2061,-278.8123 1925,-239 1898.3013,-206.9896 1877.1362,-162.56 1866.5028,-137.8839"/>
<polygon fill="#191970" stroke="#191970" points="1869.7068,-136.4739 1862.605,-128.6117 1863.2538,-139.1866 1869.7068,-136.4739"/>
</g>
<!-- Node43&#45;&gt;Node24 -->
<g id="edge119" class="edge">
<title>Node43&#45;&gt;Node24</title>
<path fill="none" stroke="#191970" d="M1990.955,-337.5319C1908.7461,-333.7657 1752.597,-323.1249 1623,-294 1567.0329,-281.4223 1504.5191,-257.4248 1468.3724,-242.5119"/>
<polygon fill="#191970" stroke="#191970" points="1469.4805,-239.1819 1458.9037,-238.5636 1466.7864,-245.6427 1469.4805,-239.1819"/>
</g>
<!-- Node43&#45;&gt;Node25 -->
<g id="edge118" class="edge">
<title>Node43&#45;&gt;Node25</title>
<path fill="none" stroke="#191970" d="M2104.893,-337.5164C2227.5839,-332.8088 2513.5085,-319.4086 2607,-294 2694.8251,-270.1314 2789.131,-215.3329 2831.3302,-189.0637"/>
<polygon fill="#191970" stroke="#191970" points="2833.3847,-191.9062 2839.9853,-183.6187 2829.6572,-185.9812 2833.3847,-191.9062"/>
</g>
<!-- Node43&#45;&gt;Node27 -->
<g id="edge120" class="edge">
<title>Node43&#45;&gt;Node27</title>
<path fill="none" stroke="#191970" d="M1990.8416,-338.1462C1788.1346,-333.2067 1104.1378,-315.3239 886,-294 831.8215,-288.7038 818.8814,-282.7558 765,-275 642.9924,-257.4379 611.7109,-258.5125 490,-239 488.7241,-238.7954 487.4307,-238.5833 486.1261,-238.365"/>
<polygon fill="#191970" stroke="#191970" points="486.4596,-234.8703 476.0066,-236.5978 485.2554,-241.766 486.4596,-234.8703"/>
</g>
<!-- Node44 -->
<g id="node45" class="node">
<title>Node44</title>
<g id="a_node45"><a xlink:href="Ioss__FieldManager_8h.html" target="_top" xlink:title="Ioss_FieldManager.h">
<polygon fill="#ffffff" stroke="#000000" points="2057.5815,-220.5 2057.5815,-238.5 2166.4185,-238.5 2166.4185,-220.5 2057.5815,-220.5"/>
<text text-anchor="middle" x="2112" y="-226.5" font-family="Helvetica,sans-Serif" font-size="10.00" fill="#000000">Ioss_FieldManager.h</text>
</a>
</g>
</g>
<!-- Node43&#45;&gt;Node44 -->
<g id="edge109" class="edge">
<title>Node43&#45;&gt;Node44</title>
<path fill="none" stroke="#191970" d="M2053.2374,-330.4982C2063.7853,-312.369 2087.7587,-271.1647 2101.6053,-247.3659"/>
<polygon fill="#191970" stroke="#191970" points="2104.6865,-249.0298 2106.6902,-238.6261 2098.636,-245.5095 2104.6865,-249.0298"/>
</g>
<!-- Node46 -->
<g id="node47" class="node">
<title>Node46</title>
<g id="a_node47"><a xlink:href="Ioss__VariableType_8h.html" target="_top" xlink:title="Ioss_VariableType.h">
<polygon fill="#ffffff" stroke="#000000" points="1934.061,-220.5 1934.061,-238.5 2039.939,-238.5 2039.939,-220.5 1934.061,-220.5"/>
<text text-anchor="middle" x="1987" y="-226.5" font-family="Helvetica,sans-Serif" font-size="10.00" fill="#000000">Ioss_VariableType.h</text>
</a>
</g>
</g>
<!-- Node43&#45;&gt;Node46 -->
<g id="edge121" class="edge">
<title>Node43&#45;&gt;Node46</title>
<path fill="none" stroke="#191970" d="M2043.0081,-330.4982C2032.9993,-312.4496 2010.3079,-271.5306 1997.084,-247.6843"/>
<polygon fill="#191970" stroke="#191970" points="1999.9715,-245.6741 1992.0609,-238.6261 1993.8497,-249.0689 1999.9715,-245.6741"/>
</g>
<!-- Node44&#45;&gt;Node1 -->
<g id="edge110" class="edge">
<title>Node44&#45;&gt;Node1</title>
<path fill="none" stroke="#191970" d="M2166.6698,-221.1863C2238.902,-210.0474 2359.333,-190.8835 2379,-184 2443.2139,-161.5251 2450.6465,-137.2138 2513,-110 2543.991,-96.4742 2580.361,-84.6387 2607.9813,-76.4315"/>
<polygon fill="#191970" stroke="#191970" points="2609.1215,-79.7446 2617.7351,-73.5755 2607.1545,-73.0267 2609.1215,-79.7446"/>
</g>
<!-- Node44&#45;&gt;Node3 -->
<g id="edge113" class="edge">
<title>Node44&#45;&gt;Node3</title>
<path fill="none" stroke="#191970" d="M2165.7041,-220.4681C2232.6632,-209.0006 2339.2248,-189.9852 2346,-184 2391.9075,-143.4458 2401.0114,-65.426 2402.6977,-29.0564"/>
<polygon fill="#191970" stroke="#191970" points="2406.2038,-28.9176 2403.0219,-18.8119 2399.2073,-28.6961 2406.2038,-28.9176"/>
</g>
<!-- Node44&#45;&gt;Node5 -->
<g id="edge115" class="edge">
<title>Node44&#45;&gt;Node5</title>
<path fill="none" stroke="#191970" d="M2063.9163,-220.4743C2011.7945,-210.4352 1932.1551,-194.2806 1903,-184 1782.0951,-141.3671 1761.7257,-108.0158 1645,-55 1617.7448,-42.6209 1586.1045,-29.7996 1563.5947,-20.9348"/>
<polygon fill="#191970" stroke="#191970" points="1564.8329,-17.6609 1554.2451,-17.2735 1562.2804,-24.179 1564.8329,-17.6609"/>
</g>
<!-- Node44&#45;&gt;Node6 -->
<g id="edge117" class="edge">
<title>Node44&#45;&gt;Node6</title>
<path fill="none" stroke="#191970" d="M2057.3794,-221.155C2054.5467,-220.7562 2051.7406,-220.3688 2049,-220 1914.1603,-201.8543 1879.2274,-206.2264 1745,-184 1705.0965,-177.3925 1695.6049,-173.2098 1656,-165 1576.5407,-148.5287 1555.9614,-147.7133 1477,-129 1397.2967,-110.1109 1158.0132,-42.8547 1071.5804,-18.4387"/>
<polygon fill="#191970" stroke="#191970" points="1072.3935,-15.0315 1061.8186,-15.6797 1070.4896,-21.7676 1072.3935,-15.0315"/>
</g>
<!-- Node44&#45;&gt;Node17 -->
<g id="edge112" class="edge">
<title>Node44&#45;&gt;Node17</title>
<path fill="none" stroke="#191970" d="M2095.3219,-220.4179C2079.386,-211.7399 2055.1341,-198.5334 2036.7232,-188.5077"/>
<polygon fill="#191970" stroke="#191970" points="2038.159,-185.3043 2027.7029,-183.5956 2034.8113,-191.4519 2038.159,-185.3043"/>
</g>
<!-- Node44&#45;&gt;Node18 -->
<g id="edge111" class="edge">
<title>Node44&#45;&gt;Node18</title>
<path fill="none" stroke="#191970" d="M2067.5756,-220.4677C2023.0413,-210.99 1957.8937,-195.851 1935,-184 1911.3996,-171.7831 1888.7661,-151.0142 1874.4315,-136.3492"/>
<polygon fill="#191970" stroke="#191970" points="1876.7961,-133.7568 1867.3682,-128.923 1871.724,-138.5811 1876.7961,-133.7568"/>
</g>
<!-- Node44&#45;&gt;Node26 -->
<g id="edge116" class="edge">
<title>Node44&#45;&gt;Node26</title>
<path fill="none" stroke="#191970" d="M2057.3997,-220.9888C2054.5617,-220.6334 2051.7489,-220.3008 2049,-220 1822.5491,-195.2208 1551.1458,-181.6459 1437.8248,-176.6959"/>
<polygon fill="#191970" stroke="#191970" points="1437.8219,-173.1926 1427.6801,-176.2574 1437.5196,-180.186 1437.8219,-173.1926"/>
</g>
<!-- Node45 -->
<g id="node46" class="node">
<title>Node45</title>
<polygon fill="#ffffff" stroke="#bfbfbf" points="2278.5962,-165.5 2278.5962,-183.5 2337.4038,-183.5 2337.4038,-165.5 2278.5962,-165.5"/>
<text text-anchor="middle" x="2308" y="-171.5" font-family="Helvetica,sans-Serif" font-size="10.00" fill="#000000">functional</text>
</g>
<!-- Node44&#45;&gt;Node45 -->
<g id="edge114" class="edge">
<title>Node44&#45;&gt;Node45</title>
<path fill="none" stroke="#191970" d="M2144.3654,-220.4179C2178.4547,-210.852 2232.1533,-195.7835 2268.6632,-185.5384"/>
<polygon fill="#191970" stroke="#191970" points="2269.792,-188.8569 2278.4745,-182.7852 2267.9007,-182.1172 2269.792,-188.8569"/>
</g>
<!-- Node46&#45;&gt;Node1 -->
<g id="edge122" class="edge">
<title>Node46&#45;&gt;Node1</title>
<path fill="none" stroke="#191970" d="M2039.9573,-220.4758C2106.464,-209.0167 2214.0811,-190.0105 2232,-184 2249.9021,-177.9951 2252.3556,-171.7244 2270,-165 2357.3467,-131.7114 2382.605,-133.7976 2473,-110 2517.9704,-98.161 2569.4508,-85.0495 2605.4407,-75.9546"/>
<polygon fill="#191970" stroke="#191970" points="2606.3235,-79.3417 2615.1626,-73.5003 2604.6101,-72.5546 2606.3235,-79.3417"/>
</g>
<!-- Node46&#45;&gt;Node5 -->
<g id="edge126" class="edge">
<title>Node46&#45;&gt;Node5</title>
<path fill="none" stroke="#191970" d="M1933.7544,-225.1459C1891.0318,-219.9267 1830.5535,-208.564 1783,-184 1739.3848,-161.4703 1740.4353,-139.2358 1701,-110 1654.2401,-75.334 1594.9174,-41.8781 1561.028,-23.6584"/>
<polygon fill="#191970" stroke="#191970" points="1562.2427,-20.3396 1551.7721,-18.7218 1558.9484,-26.516 1562.2427,-20.3396"/>
</g>
<!-- Node46&#45;&gt;Node6 -->
<g id="edge127" class="edge">
<title>Node46&#45;&gt;Node6</title>
<path fill="none" stroke="#191970" d="M1933.7956,-222.3314C1807.4128,-204.5372 1479.9953,-153.9286 1216,-74 1164.5479,-58.4221 1106.2131,-36.0912 1071.3025,-22.209"/>
<polygon fill="#191970" stroke="#191970" points="1072.2628,-18.8236 1061.6781,-18.3596 1069.6632,-25.323 1072.2628,-18.8236"/>
</g>
<!-- Node46&#45;&gt;Node30 -->
<g id="edge125" class="edge">
<title>Node46&#45;&gt;Node30</title>
<path fill="none" stroke="#191970" d="M1933.8617,-226.5568C1898.9438,-224.6413 1852.2559,-222.1151 1811,-220 1452.1053,-201.6002 1015.7817,-181.1164 902.1318,-175.8105"/>
<polygon fill="#191970" stroke="#191970" points="902.0188,-172.3015 891.8665,-175.3315 901.6925,-179.2939 902.0188,-172.3015"/>
</g>
<!-- Node46&#45;&gt;Node45 -->
<g id="edge124" class="edge">
<title>Node46&#45;&gt;Node45</title>
<path fill="none" stroke="#191970" d="M2039.9685,-221.1884C2108.1699,-210.4243 2222.9159,-192.0864 2265,-184 2266.0887,-183.7908 2267.1919,-183.5749 2268.3047,-183.3535"/>
<polygon fill="#191970" stroke="#191970" points="2269.3534,-186.7108 2278.4364,-181.2564 2267.9345,-179.8561 2269.3534,-186.7108"/>
</g>
<!-- Node47 -->
<g id="node48" class="node">
<title>Node47</title>
<polygon fill="#ffffff" stroke="#bfbfbf" points="2177.2734,-165.5 2177.2734,-183.5 2222.7266,-183.5 2222.7266,-165.5 2177.2734,-165.5"/>
<text text-anchor="middle" x="2200" y="-171.5" font-family="Helvetica,sans-Serif" font-size="10.00" fill="#000000">cstring</text>
</g>
<!-- Node46&#45;&gt;Node47 -->
<g id="edge123" class="edge">
<title>Node46&#45;&gt;Node47</title>
<path fill="none" stroke="#191970" d="M2022.1726,-220.4179C2062.5224,-209.9989 2128.1531,-193.052 2167.3927,-182.9197"/>
<polygon fill="#191970" stroke="#191970" points="2168.4358,-186.2653 2177.2431,-180.3762 2166.6856,-179.4876 2168.4358,-186.2653"/>
</g>
<!-- Node48&#45;&gt;Node3 -->
<g id="edge139" class="edge">
<title>Node48&#45;&gt;Node3</title>
<path fill="none" stroke="#191970" d="M2878.8339,-440.484C2951.0474,-406.4325 3191.4257,-281.6588 3108,-165 3020.0302,-41.9869 2933.4626,-88.5512 2786,-55 2719.8425,-39.9476 2518.4228,-20.2142 2437.3469,-12.6433"/>
<polygon fill="#191970" stroke="#191970" points="2437.4583,-9.1386 2427.1774,-11.6986 2436.8107,-16.1086 2437.4583,-9.1386"/>
</g>
<!-- Node48&#45;&gt;Node4 -->
<g id="edge140" class="edge">
<title>Node48&#45;&gt;Node4</title>
<path fill="none" stroke="#191970" d="M2890.8966,-440.44C2975.3424,-414.8287 3206.6782,-333.8509 3330,-184 3367.4695,-138.4701 3372.0409,-112.9227 3361,-55 3359.2329,-45.7295 3355.6097,-35.9365 3352.0742,-27.8202"/>
<polygon fill="#191970" stroke="#191970" points="3355.1783,-26.1946 3347.789,-18.6019 3348.8306,-29.1455 3355.1783,-26.1946"/>
</g>
<!-- Node48&#45;&gt;Node5 -->
<g id="edge141" class="edge">
<title>Node48&#45;&gt;Node5</title>
<path fill="none" stroke="#191970" d="M2810.5384,-448.0816C2608.4744,-441.4661 1833.7668,-408.9287 1623,-294 1612.2538,-288.1402 1481.3369,-140.4459 1477,-129 1474.0079,-121.1034 1474.7128,-118.1288 1477,-110 1482.0787,-91.9498 1489.6364,-90.2459 1499,-74 1507.9227,-58.519 1517.5737,-40.6415 1524.477,-27.6398"/>
<polygon fill="#191970" stroke="#191970" points="1527.5872,-29.2452 1529.1627,-18.7682 1521.3975,-25.9759 1527.5872,-29.2452"/>
</g>
<!-- Node48&#45;&gt;Node13 -->
<g id="edge136" class="edge">
<title>Node48&#45;&gt;Node13</title>
<path fill="none" stroke="#191970" d="M2858.5021,-440.1102C2857.3238,-426.5192 2853.3566,-401.2213 2840,-385 2773.405,-304.122 2653.6911,-260.3092 2587.7458,-241.2788"/>
<polygon fill="#191970" stroke="#191970" points="2588.6039,-237.8844 2578.0295,-238.5423 2586.7062,-244.6223 2588.6039,-237.8844"/>
</g>
<!-- Node48&#45;&gt;Node25 -->
<g id="edge137" class="edge">
<title>Node48&#45;&gt;Node25</title>
<path fill="none" stroke="#191970" d="M2864.4445,-440.4507C2874.9518,-422.0998 2897,-378.899 2897,-339.5 2897,-339.5 2897,-339.5 2897,-284.5 2897,-250.0044 2878.4297,-213.3421 2865.6967,-192.2584"/>
<polygon fill="#191970" stroke="#191970" points="2868.6253,-190.3406 2860.3448,-183.7312 2862.6964,-194.0618 2868.6253,-190.3406"/>
</g>
<!-- Node48&#45;&gt;Node42 -->
<g id="edge138" class="edge">
<title>Node48&#45;&gt;Node42</title>
<path fill="none" stroke="#191970" d="M2846.285,-440.4179C2834.5817,-432.0584 2816.9953,-419.4966 2803.1735,-409.6239"/>
<polygon fill="#191970" stroke="#191970" points="2804.9056,-406.56 2794.7339,-403.5956 2800.8369,-412.2561 2804.9056,-406.56"/>
</g>
<!-- Node49&#45;&gt;Node1 -->
<g id="edge144" class="edge">
<title>Node49&#45;&gt;Node1</title>
<path fill="none" stroke="#191970" d="M2985.2124,-165.4982C2919.9408,-145.7733 2764.2785,-98.7325 2690.7549,-76.5139"/>
<polygon fill="#191970" stroke="#191970" points="2691.5285,-73.0914 2680.9435,-73.5489 2689.5035,-79.7921 2691.5285,-73.0914"/>
</g>
<!-- Node49&#45;&gt;Node2 -->
<g id="edge145" class="edge">
<title>Node49&#45;&gt;Node2</title>
<path fill="none" stroke="#191970" d="M3072.6045,-165.4756C3093.9898,-159.0251 3116.1499,-147.9646 3129,-129 3149.8026,-98.2989 3135.0181,-52.7064 3124.0014,-27.6432"/>
<polygon fill="#191970" stroke="#191970" points="3127.1594,-26.1335 3119.7654,-18.5454 3120.8135,-29.0883 3127.1594,-26.1335"/>
</g>
<!-- Node49&#45;&gt;Node5 -->
<g id="edge147" class="edge">
<title>Node49&#45;&gt;Node5</title>
<path fill="none" stroke="#191970" d="M3000.0075,-165.4993C2959.9064,-141.9779 2846.1423,-78.8493 2742,-55 2624.2769,-28.0406 1741.6358,-12.7771 1564.7926,-9.9724"/>
<polygon fill="#191970" stroke="#191970" points="1564.6802,-6.4703 1554.6264,-9.8127 1564.5702,-13.4695 1564.6802,-6.4703"/>
</g>
<!-- Node49&#45;&gt;Node20 -->
<g id="edge146" class="edge">
<title>Node49&#45;&gt;Node20</title>
<path fill="none" stroke="#191970" d="M2960.5487,-165.4795C2891.6227,-154.061 2774.9418,-134.7313 2717.3113,-125.1841"/>
<polygon fill="#191970" stroke="#191970" points="2717.7001,-121.7009 2707.2625,-123.5194 2716.556,-128.6068 2717.7001,-121.7009"/>
</g>
<!-- Node50&#45;&gt;Node1 -->
<g id="edge152" class="edge">
<title>Node50&#45;&gt;Node1</title>
<path fill="none" stroke="#191970" d="M3136.0494,-550.4169C3180.0395,-533.9976 3239,-502.167 3239,-449.5 3239,-449.5 3239,-449.5 3239,-284.5 3239,-205.6925 3176.9613,-203.1438 3108,-165 3039.9957,-127.3855 2818.3743,-89.859 2710.7404,-73.2993"/>
<polygon fill="#191970" stroke="#191970" points="2711.103,-69.8142 2700.689,-71.7629 2710.0453,-76.7338 2711.103,-69.8142"/>
</g>
<!-- Node50&#45;&gt;Node3 -->
<g id="edge154" class="edge">
<title>Node50&#45;&gt;Node3</title>
<path fill="none" stroke="#191970" d="M3159.4357,-550.4174C3183.1394,-542.8426 3208.2894,-531.3431 3227,-514 3325.2159,-422.9623 3362.6599,-334.3753 3293,-220 3237.5788,-129.0033 3179.2121,-148.844 3080,-110 2994.5553,-76.5463 2971.2402,-71.6333 2881,-55 2795.5496,-39.2496 2532.2974,-18.9791 2437.482,-11.9945"/>
<polygon fill="#191970" stroke="#191970" points="2437.5191,-8.4879 2427.2899,-11.2472 2437.0071,-15.4692 2437.5191,-8.4879"/>
</g>
<!-- Node50&#45;&gt;Node4 -->
<g id="edge155" class="edge">
<title>Node50&#45;&gt;Node4</title>
<path fill="none" stroke="#191970" d="M3161.1535,-559.4492C3284.5632,-546.4657 3523,-500.5427 3523,-339.5 3523,-339.5 3523,-339.5 3523,-119.5 3523,-51.317 3427.8016,-24.1282 3375.8692,-14.3689"/>
<polygon fill="#191970" stroke="#191970" points="3376.2531,-10.8826 3365.7971,-12.5923 3375.0371,-17.7762 3376.2531,-10.8826"/>
</g>
<!-- Node50&#45;&gt;Node15 -->
<g id="edge156" class="edge">
<title>Node50&#45;&gt;Node15</title>
<path fill="none" stroke="#191970" d="M3016.9441,-561.5939C2605.6598,-544.2645 567.2695,-448.1495 395,-239 358.9286,-195.2063 466.6263,-180.7624 521.2777,-176.3227"/>
<polygon fill="#191970" stroke="#191970" points="521.7313,-179.7987 531.4424,-175.5624 521.2092,-172.8182 521.7313,-179.7987"/>
</g>
<!-- Node50&#45;&gt;Node41 -->
<g id="edge153" class="edge">
<title>Node50&#45;&gt;Node41</title>
<path fill="none" stroke="#191970" d="M3052.8938,-550.4327C3027.1512,-540.4031 2992.8179,-527.0265 2967.8447,-517.2966"/>
<polygon fill="#191970" stroke="#191970" points="2969.0248,-514.0002 2958.4364,-513.6311 2966.4835,-520.5226 2969.0248,-514.0002"/>
</g>
</g>
</svg>
        <g id="navigator" transform="translate(0 0)" fill="#404254">
                <rect fill="#f2f5e9" fill-opacity="0.5" stroke="#606060" stroke-width=".5" x="0" y="0" width="60" height="60"/>
                <use id="zoomplus" xlink:href="#zoomPlus" x="17" y="9" onmousedown="handleZoom(evt,'in')"/>
                <use id="zoomminus" xlink:href="#zoomMin" x="42" y="9" onmousedown="handleZoom(evt,'out')"/>
                <use id="reset" xlink:href="#resetDef" x="30" y="36" onmousedown="handleReset()"/>
                <g id="arrowUp" xlink:href="#dirArrow" transform="translate(30 24)" onmousedown="handlePan(0,-1)">
                  <use xlink:href="#rim" fill="#404040">
                        <set attributeName="fill" to="#808080" begin="arrowUp.mouseover" end="arrowUp.mouseout"/>
                  </use>
                  <path fill="none" stroke="white" stroke-width="1.5" d="M0,-3.0v7 M-2.5,-0.5L0,-3.0L2.5,-0.5"/>
                </g>
                <g id="arrowRight" xlink:href="#dirArrow" transform="rotate(90) translate(36 -43)" onmousedown="handlePan(1,0)">
                  <use xlink:href="#rim" fill="#404040">
                        <set attributeName="fill" to="#808080" begin="arrowRight.mouseover" end="arrowRight.mouseout"/>
                  </use>
                  <path fill="none" stroke="white" stroke-width="1.5" d="M0,-3.0v7 M-2.5,-0.5L0,-3.0L2.5,-0.5"/>
                </g>
                <g id="arrowDown" xlink:href="#dirArrow" transform="rotate(180) translate(-30 -48)" onmousedown="handlePan(0,1)">
                  <use xlink:href="#rim" fill="#404040">
                        <set attributeName="fill" to="#808080" begin="arrowDown.mouseover" end="arrowDown.mouseout"/>
                  </use>
                  <path fill="none" stroke="white" stroke-width="1.5" d="M0,-3.0v7 M-2.5,-0.5L0,-3.0L2.5,-0.5"/>
                </g>
                <g id="arrowLeft" xlink:href="#dirArrow" transform="rotate(270) translate(-36 17)" onmousedown="handlePan(-1,0)">
                  <use xlink:href="#rim" fill="#404040">
                        <set attributeName="fill" to="#808080" begin="arrowLeft.mouseover" end="arrowLeft.mouseout"/>
                  </use>
                  <path fill="none" stroke="white" stroke-width="1.5" d="M0,-3.0v7 M-2.5,-0.5L0,-3.0L2.5,-0.5"/>
                </g>
        </g>
        <svg viewBox="0 0 15 15" width="100%" height="30px" preserveAspectRatio="xMaxYMin meet">
         <g id="arrow_out" transform="scale(0.3 0.3)">
          <a xlink:href="Iocgns__ParallelDatabaseIO_8h__incl_org.svg" target="_base">
           <rect id="button" ry="5" rx="5" y="6" x="6" height="38" width="38"
                fill="#f2f5e9" fill-opacity="0.5" stroke="#606060" stroke-width="1.0"/>
           <path id="arrow"
             d="M 11.500037,31.436501 C 11.940474,20.09759 22.043105,11.32322 32.158766,21.979434 L 37.068811,17.246167 C 37.068811,17.246167 37.088388,32 37.088388,32 L 22.160133,31.978069 C 22.160133,31.978069 26.997745,27.140456 26.997745,27.140456 C 18.528582,18.264221 13.291696,25.230495 11.500037,31.436501 z"
             style="fill:#404040;"/>
          </a>
         </g>
        </svg>
</svg>
