<?xml version="1.0" encoding="UTF-8" standalone="no"?>
<!DOCTYPE svg PUBLIC "-//W3C//DTD SVG 1.1//EN"
 "http://www.w3.org/Graphics/SVG/1.1/DTD/svg11.dtd">
<!-- Generated by graphviz version 2.40.1 (20161225.0304)
 -->
<!-- Title: src/data_warehouse/Iodw_DatabaseIO.h Pages: 1 -->
<svg width="1685pt" height="367pt"
 viewBox="0.00 0.00 1685.00 367.00" xmlns="http://www.w3.org/2000/svg" xmlns:xlink="http://www.w3.org/1999/xlink">
<g id="graph0" class="graph" transform="scale(1 1) rotate(0) translate(4 363)">
<title>src/data_warehouse/Iodw_DatabaseIO.h</title>
<polygon fill="#ffffff" stroke="transparent" points="-4,4 -4,-363 1681,-363 1681,4 -4,4"/>
<!-- Node0 -->
<g id="node1" class="node">
<title>Node0</title>
<polygon fill="#bfbfbf" stroke="#000000" points="1105.4165,-330.5 1105.4165,-358.5 1212.5835,-358.5 1212.5835,-330.5 1105.4165,-330.5"/>
<text text-anchor="start" x="1113.4165" y="-346.5" font-family="Helvetica,sans-Serif" font-size="10.00" fill="#000000">src/data_warehouse</text>
<text text-anchor="middle" x="1159" y="-336.5" font-family="Helvetica,sans-Serif" font-size="10.00" fill="#000000">/Iodw_DatabaseIO.h</text>
</g>
<!-- Node1 -->
<g id="node2" class="node">
<title>Node1</title>
<g id="a_node2"><a xlink:href="$Ioss__CodeTypes_8h.html" xlink:title="Ioss_CodeTypes.h">
<polygon fill="#ffffff" stroke="#000000" points="890.584,-55.5 890.584,-73.5 989.416,-73.5 989.416,-55.5 890.584,-55.5"/>
<text text-anchor="middle" x="940" y="-61.5" font-family="Helvetica,sans-Serif" font-size="10.00" fill="#000000">Ioss_CodeTypes.h</text>
</a>
</g>
</g>
<!-- Node0&#45;&gt;Node1 -->
<g id="edge1" class="edge">
<title>Node0&#45;&gt;Node1</title>
<path fill="none" stroke="#191970" d="M1212.6229,-340.4779C1312.1792,-330.9942 1509.7527,-301.5408 1444,-220 1396.6118,-161.2333 1350.6213,-204.6231 1278,-184 1163.6713,-151.5327 1031.8433,-101.0131 972.2323,-77.4362"/>
<polygon fill="#191970" stroke="#191970" points="973.2148,-74.0606 962.629,-73.6236 970.6318,-80.5666 973.2148,-74.0606"/>
</g>
<!-- Node3 -->
<g id="node4" class="node">
<title>Node3</title>
<polygon fill="#ffffff" stroke="#bfbfbf" points="392.8794,-.5 392.8794,-18.5 441.1206,-18.5 441.1206,-.5 392.8794,-.5"/>
<text text-anchor="middle" x="417" y="-6.5" font-family="Helvetica,sans-Serif" font-size="10.00" fill="#000000">cstddef</text>
</g>
<!-- Node0&#45;&gt;Node3 -->
<g id="edge71" class="edge">
<title>Node0&#45;&gt;Node3</title>
<path fill="none" stroke="#191970" d="M1105.373,-343.5442C905.6024,-339.7522 214.2734,-324.4687 179,-294 98.2102,-224.215 79.8807,-130.8553 155,-55 186.2463,-23.4476 318.4778,-13.6225 382.2799,-10.6876"/>
<polygon fill="#191970" stroke="#191970" points="382.7919,-14.169 392.6331,-10.2446 382.4926,-7.1754 382.7919,-14.169"/>
</g>
<!-- Node4 -->
<g id="node5" class="node">
<title>Node4</title>
<polygon fill="#ffffff" stroke="#bfbfbf" points="138.5493,-.5 138.5493,-18.5 183.4507,-18.5 183.4507,-.5 138.5493,-.5"/>
<text text-anchor="middle" x="161" y="-6.5" font-family="Helvetica,sans-Serif" font-size="10.00" fill="#000000">cstdint</text>
</g>
<!-- Node0&#45;&gt;Node4 -->
<g id="edge72" class="edge">
<title>Node0&#45;&gt;Node4</title>
<path fill="none" stroke="#191970" d="M1105.395,-344.2027C924.7414,-342.8259 339.2882,-335.2143 156,-294 82.8018,-277.5406 0,-304.5259 0,-229.5 0,-229.5 0,-229.5 0,-119.5 0,-57.8427 81.496,-28.2393 128.5245,-16.2892"/>
<polygon fill="#191970" stroke="#191970" points="129.3733,-19.6849 138.2741,-13.9381 127.7322,-12.88 129.3733,-19.6849"/>
</g>
<!-- Node5 -->
<g id="node6" class="node">
<title>Node5</title>
<polygon fill="#ffffff" stroke="#bfbfbf" points="1375.7734,-.5 1375.7734,-18.5 1416.2266,-18.5 1416.2266,-.5 1375.7734,-.5"/>
<text text-anchor="middle" x="1396" y="-6.5" font-family="Helvetica,sans-Serif" font-size="10.00" fill="#000000">string</text>
</g>
<!-- Node0&#45;&gt;Node5 -->
<g id="edge73" class="edge">
<title>Node0&#45;&gt;Node5</title>
<path fill="none" stroke="#191970" d="M1212.7392,-341.0719C1283.6621,-335.6151 1411.9338,-322.5073 1518,-294 1591.6462,-274.2062 1677,-305.7598 1677,-229.5 1677,-229.5 1677,-229.5 1677,-119.5 1677,-79.7371 1649.7994,-74.2377 1615,-55 1582.8871,-37.2475 1478.8427,-20.9099 1426.567,-13.5724"/>
<polygon fill="#191970" stroke="#191970" points="1426.9253,-10.0887 1416.5402,-12.1865 1425.9668,-17.0228 1426.9253,-10.0887"/>
</g>
<!-- Node6 -->
<g id="node7" class="node">
<title>Node6</title>
<polygon fill="#ffffff" stroke="#bfbfbf" points="721.3843,-.5 721.3843,-18.5 764.6157,-18.5 764.6157,-.5 721.3843,-.5"/>
<text text-anchor="middle" x="743" y="-6.5" font-family="Helvetica,sans-Serif" font-size="10.00" fill="#000000">vector</text>
</g>
<!-- Node0&#45;&gt;Node6 -->
<g id="edge74" class="edge">
<title>Node0&#45;&gt;Node6</title>
<path fill="none" stroke="#191970" d="M1105.2068,-341.9356C925.828,-332.8414 356.4088,-299.3954 303,-239 263.8268,-194.7024 103.1167,-242.0709 486,-55 525.2706,-35.813 651.3006,-19.7052 711.0282,-12.9317"/>
<polygon fill="#191970" stroke="#191970" points="711.4867,-16.4023 721.0364,-11.8139 710.7096,-9.4456 711.4867,-16.4023"/>
</g>
<!-- Node9 -->
<g id="node10" class="node">
<title>Node9</title>
<g id="a_node10"><a xlink:href="$Ioss__DBUsage_8h.html" xlink:title="Ioss_DBUsage.h">
<polygon fill="#ffffff" stroke="#000000" points="1519.4805,-110.5 1519.4805,-128.5 1610.5195,-128.5 1610.5195,-110.5 1519.4805,-110.5"/>
<text text-anchor="middle" x="1565" y="-116.5" font-family="Helvetica,sans-Serif" font-size="10.00" fill="#000000">Ioss_DBUsage.h</text>
</a>
</g>
</g>
<!-- Node0&#45;&gt;Node9 -->
<g id="edge9" class="edge">
<title>Node0&#45;&gt;Node9</title>
<path fill="none" stroke="#191970" d="M1212.8408,-342.8432C1296.6676,-339.2275 1453.2156,-328.0005 1496,-294 1545.2499,-254.8614 1559.4603,-175.4818 1563.4701,-138.8377"/>
<polygon fill="#191970" stroke="#191970" points="1566.9861,-138.8327 1564.445,-128.5472 1560.0173,-138.1724 1566.9861,-138.8327"/>
</g>
<!-- Node10 -->
<g id="node11" class="node">
<title>Node10</title>
<g id="a_node11"><a xlink:href="$Ioss__DatabaseIO_8h.html" xlink:title="Ioss_DatabaseIO.h">
<polygon fill="#ffffff" stroke="#000000" points="869.1973,-275.5 869.1973,-293.5 970.8027,-293.5 970.8027,-275.5 869.1973,-275.5"/>
<text text-anchor="middle" x="920" y="-281.5" font-family="Helvetica,sans-Serif" font-size="10.00" fill="#000000">Ioss_DatabaseIO.h</text>
</a>
</g>
</g>
<!-- Node0&#45;&gt;Node10 -->
<g id="edge10" class="edge">
<title>Node0&#45;&gt;Node10</title>
<path fill="none" stroke="#191970" d="M1105.3637,-331.0348C1063.3681,-320.492 1005.5901,-305.9871 965.7581,-295.9874"/>
<polygon fill="#191970" stroke="#191970" points="966.5898,-292.5876 956.0385,-293.5473 964.8853,-299.377 966.5898,-292.5876"/>
</g>
<!-- Node14 -->
<g id="node15" class="node">
<title>Node14</title>
<g id="a_node15"><a xlink:href="$Ioss__Map_8h.html" xlink:title="Ioss_Map.h">
<polygon fill="#ffffff" stroke="#000000" points="226.1528,-110.5 226.1528,-128.5 293.8472,-128.5 293.8472,-110.5 226.1528,-110.5"/>
<text text-anchor="middle" x="260" y="-116.5" font-family="Helvetica,sans-Serif" font-size="10.00" fill="#000000">Ioss_Map.h</text>
</a>
</g>
</g>
<!-- Node0&#45;&gt;Node14 -->
<g id="edge69" class="edge">
<title>Node0&#45;&gt;Node14</title>
<path fill="none" stroke="#191970" d="M1105.3175,-343.7116C907.0117,-340.541 225.5601,-327.2549 194,-294 150.2397,-247.8898 212.3711,-169.9154 243.7488,-136.0372"/>
<polygon fill="#191970" stroke="#191970" points="246.2907,-138.4433 250.632,-128.7787 241.2114,-133.6266 246.2907,-138.4433"/>
</g>
<!-- Node27 -->
<g id="node28" class="node">
<title>Node27</title>
<g id="a_node28"><a xlink:href="$Ioss__State_8h.html" xlink:title="Ioss_State.h">
<polygon fill="#ffffff" stroke="#000000" points="1363.2046,-220.5 1363.2046,-238.5 1434.7954,-238.5 1434.7954,-220.5 1363.2046,-220.5"/>
<text text-anchor="middle" x="1399" y="-226.5" font-family="Helvetica,sans-Serif" font-size="10.00" fill="#000000">Ioss_State.h</text>
</a>
</g>
</g>
<!-- Node0&#45;&gt;Node27 -->
<g id="edge70" class="edge">
<title>Node0&#45;&gt;Node27</title>
<path fill="none" stroke="#191970" d="M1188.4287,-330.3987C1235.0549,-308.057 1325.2961,-264.8164 1371.008,-242.9128"/>
<polygon fill="#191970" stroke="#191970" points="1372.5491,-246.0555 1380.0549,-238.5779 1369.5243,-239.7428 1372.5491,-246.0555"/>
</g>
<!-- Node30 -->
<g id="node31" class="node">
<title>Node30</title>
<g id="a_node31"><a xlink:href="$Ioss__IOFactory_8h.html" xlink:title="Ioss_IOFactory.h">
<polygon fill="#ffffff" stroke="#000000" points="1287.2998,-165.5 1287.2998,-183.5 1378.7002,-183.5 1378.7002,-165.5 1287.2998,-165.5"/>
<text text-anchor="middle" x="1333" y="-171.5" font-family="Helvetica,sans-Serif" font-size="10.00" fill="#000000">Ioss_IOFactory.h</text>
</a>
</g>
</g>
<!-- Node0&#45;&gt;Node30 -->
<g id="edge62" class="edge">
<title>Node0&#45;&gt;Node30</title>
<path fill="none" stroke="#191970" d="M1212.8456,-339.7378C1299.0377,-331.565 1460.0772,-313.8223 1477,-294 1498.3545,-268.9867 1496.4394,-246.529 1477,-220 1466.1993,-205.2602 1424.466,-193.082 1388.6887,-185.046"/>
<polygon fill="#191970" stroke="#191970" points="1389.3019,-181.5975 1378.7863,-182.8905 1387.8131,-188.4374 1389.3019,-181.5975"/>
</g>
<!-- Node2 -->
<g id="node3" class="node">
<title>Node2</title>
<polygon fill="#ffffff" stroke="#bfbfbf" points="986.6084,-.5 986.6084,-18.5 1025.3916,-18.5 1025.3916,-.5 986.6084,-.5"/>
<text text-anchor="middle" x="1006" y="-6.5" font-family="Helvetica,sans-Serif" font-size="10.00" fill="#000000">array</text>
</g>
<!-- Node1&#45;&gt;Node2 -->
<g id="edge2" class="edge">
<title>Node1&#45;&gt;Node2</title>
<path fill="none" stroke="#191970" d="M950.8986,-55.4179C960.6799,-47.2667 975.2558,-35.1201 986.9597,-25.3669"/>
<polygon fill="#191970" stroke="#191970" points="989.4231,-27.8701 994.8647,-18.7795 984.9418,-22.4926 989.4231,-27.8701"/>
</g>
<!-- Node1&#45;&gt;Node3 -->
<g id="edge3" class="edge">
<title>Node1&#45;&gt;Node3</title>
<path fill="none" stroke="#191970" d="M890.3259,-59.2761C784.9831,-48.198 541.4558,-22.5881 451.3417,-13.1115"/>
<polygon fill="#191970" stroke="#191970" points="451.6886,-9.6287 441.3774,-12.0636 450.9565,-16.5903 451.6886,-9.6287"/>
</g>
<!-- Node1&#45;&gt;Node4 -->
<g id="edge4" class="edge">
<title>Node1&#45;&gt;Node4</title>
<path fill="none" stroke="#191970" d="M890.3824,-60.9968C743.8288,-50.6497 315.5385,-20.4109 193.6871,-11.8078"/>
<polygon fill="#191970" stroke="#191970" points="193.7295,-8.3022 183.5078,-11.0891 193.2365,-15.2848 193.7295,-8.3022"/>
</g>
<!-- Node1&#45;&gt;Node5 -->
<g id="edge5" class="edge">
<title>Node1&#45;&gt;Node5</title>
<path fill="none" stroke="#191970" d="M989.668,-58.5093C1084.4663,-47.0753 1288.6163,-22.452 1365.7001,-13.1546"/>
<polygon fill="#191970" stroke="#191970" points="1366.2001,-16.6197 1375.709,-11.9474 1365.3618,-9.6701 1366.2001,-16.6197"/>
</g>
<!-- Node1&#45;&gt;Node6 -->
<g id="edge6" class="edge">
<title>Node1&#45;&gt;Node6</title>
<path fill="none" stroke="#191970" d="M905.3415,-55.4971C873.5346,-47.1376 824.8863,-34.1088 774.6519,-19.4163"/>
<polygon fill="#191970" stroke="#191970" points="775.5047,-16.019 764.9235,-16.5556 773.5299,-22.7347 775.5047,-16.019"/>
</g>
<!-- Node7 -->
<g id="node8" class="node">
<title>Node7</title>
<polygon fill="#ffffff" stroke="#bfbfbf" points="782.2515,-.5 782.2515,-18.5 897.7485,-18.5 897.7485,-.5 782.2515,-.5"/>
<text text-anchor="middle" x="840" y="-6.5" font-family="Helvetica,sans-Serif" font-size="10.00" fill="#000000">SEACASIoss_config.h</text>
</g>
<!-- Node1&#45;&gt;Node7 -->
<g id="edge7" class="edge">
<title>Node1&#45;&gt;Node7</title>
<path fill="none" stroke="#191970" d="M923.487,-55.4179C907.7089,-46.7399 883.6972,-33.5334 865.4685,-23.5077"/>
<polygon fill="#191970" stroke="#191970" points="866.9864,-20.3481 856.5375,-18.5956 863.6129,-26.4816 866.9864,-20.3481"/>
</g>
<!-- Node8 -->
<g id="node9" class="node">
<title>Node8</title>
<polygon fill="#ffffff" stroke="#bfbfbf" points="915.3818,-.5 915.3818,-18.5 968.6182,-18.5 968.6182,-.5 915.3818,-.5"/>
<text text-anchor="middle" x="942" y="-6.5" font-family="Helvetica,sans-Serif" font-size="10.00" fill="#000000">complex</text>
</g>
<!-- Node1&#45;&gt;Node8 -->
<g id="edge8" class="edge">
<title>Node1&#45;&gt;Node8</title>
<path fill="none" stroke="#191970" d="M940.3303,-55.4179C940.5921,-48.2164 940.9674,-37.8962 941.2959,-28.8632"/>
<polygon fill="#191970" stroke="#191970" points="944.7968,-28.9001 941.6626,-18.7795 937.8014,-28.6456 944.7968,-28.9001"/>
</g>
<!-- Node10&#45;&gt;Node1 -->
<g id="edge12" class="edge">
<title>Node10&#45;&gt;Node1</title>
<path fill="none" stroke="#191970" d="M899.479,-275.4058C875.135,-263.3664 839.877,-241.1809 857,-220 905.0069,-160.6161 976.9931,-243.3839 1025,-184 1032.7665,-174.3929 1044.9989,-144.5381 1024,-110 1014.8668,-94.9781 998.8954,-84.5954 983.3146,-77.5854"/>
<polygon fill="#191970" stroke="#191970" points="984.3082,-74.2098 973.7284,-73.6453 981.647,-80.6842 984.3082,-74.2098"/>
</g>
<!-- Node10&#45;&gt;Node3 -->
<g id="edge56" class="edge">
<title>Node10&#45;&gt;Node3</title>
<path fill="none" stroke="#191970" d="M869.0391,-283.6288C722.8363,-280.7656 309.13,-269.9862 257,-239 179.4038,-192.8766 113.2656,-124.3922 171,-55 197.4674,-23.1883 320.8369,-13.525 382.1813,-10.6634"/>
<polygon fill="#191970" stroke="#191970" points="382.6855,-14.145 392.5258,-10.2181 382.3845,-7.1515 382.6855,-14.145"/>
</g>
<!-- Node10&#45;&gt;Node4 -->
<g id="edge57" class="edge">
<title>Node10&#45;&gt;Node4</title>
<path fill="none" stroke="#191970" d="M869.0778,-283.1599C718.7151,-278.9257 283.5132,-264.5789 225,-239 192.4493,-224.7705 181.7668,-216.3105 167,-184 143.3302,-132.209 151.1672,-62.4655 157.0171,-29.0036"/>
<polygon fill="#191970" stroke="#191970" points="160.5332,-29.2453 158.9485,-18.7697 153.6546,-27.9471 160.5332,-29.2453"/>
</g>
<!-- Node10&#45;&gt;Node5 -->
<g id="edge59" class="edge">
<title>Node10&#45;&gt;Node5</title>
<path fill="none" stroke="#191970" d="M970.8584,-281.4176C1043.4538,-276.3221 1180.6607,-264.1061 1295,-239 1321.9074,-233.0918 1327.6165,-227.9262 1354,-220 1411.007,-202.8737 1426.6293,-203.1168 1483,-184 1545.1366,-162.9279 1583.25,-183.3546 1620,-129 1670.2521,-54.6753 1498.9749,-22.9949 1426.683,-13.1334"/>
<polygon fill="#191970" stroke="#191970" points="1426.7453,-9.6118 1416.3757,-11.7844 1425.8369,-16.5526 1426.7453,-9.6118"/>
</g>
<!-- Node10&#45;&gt;Node6 -->
<g id="edge61" class="edge">
<title>Node10&#45;&gt;Node6</title>
<path fill="none" stroke="#191970" d="M868.903,-278.0336C823.4092,-271.3302 755.5059,-258.9803 699,-239 598.5495,-203.481 541.4212,-219.9967 486,-129 433.3352,-42.5291 631.3582,-17.8614 711.1077,-11.5097"/>
<polygon fill="#191970" stroke="#191970" points="711.3903,-14.9985 721.1008,-10.761 710.8673,-8.018 711.3903,-14.9985"/>
</g>
<!-- Node10&#45;&gt;Node9 -->
<g id="edge13" class="edge">
<title>Node10&#45;&gt;Node9</title>
<path fill="none" stroke="#191970" d="M971.0347,-279.4191C1035.6649,-272.5228 1150.2661,-258.752 1247,-239 1258.4482,-236.6624 1439.1836,-188.4192 1450,-184 1483.8969,-170.1509 1520.333,-148.426 1542.9005,-134.0747"/>
<polygon fill="#191970" stroke="#191970" points="1544.8841,-136.9603 1551.3957,-128.6027 1541.0935,-131.0755 1544.8841,-136.9603"/>
</g>
<!-- Node11 -->
<g id="node12" class="node">
<title>Node11</title>
<g id="a_node12"><a xlink:href="$Ioss__BoundingBox_8h.html" xlink:title="Ioss_BoundingBox.h">
<polygon fill="#ffffff" stroke="#000000" points="866.1333,-220.5 866.1333,-238.5 973.8667,-238.5 973.8667,-220.5 866.1333,-220.5"/>
<text text-anchor="middle" x="920" y="-226.5" font-family="Helvetica,sans-Serif" font-size="10.00" fill="#000000">Ioss_BoundingBox.h</text>
</a>
</g>
</g>
<!-- Node10&#45;&gt;Node11 -->
<g id="edge11" class="edge">
<title>Node10&#45;&gt;Node11</title>
<path fill="none" stroke="#191970" d="M920,-275.4179C920,-268.2164 920,-257.8962 920,-248.8632"/>
<polygon fill="#191970" stroke="#191970" points="923.5001,-248.7794 920,-238.7795 916.5001,-248.7795 923.5001,-248.7794"/>
</g>
<!-- Node12 -->
<g id="node13" class="node">
<title>Node12</title>
<g id="a_node13"><a xlink:href="$Ioss__DataSize_8h.html" xlink:title="Ioss_DataSize.h">
<polygon fill="#ffffff" stroke="#000000" points="991.5913,-220.5 991.5913,-238.5 1080.4087,-238.5 1080.4087,-220.5 991.5913,-220.5"/>
<text text-anchor="middle" x="1036" y="-226.5" font-family="Helvetica,sans-Serif" font-size="10.00" fill="#000000">Ioss_DataSize.h</text>
</a>
</g>
</g>
<!-- Node10&#45;&gt;Node12 -->
<g id="edge14" class="edge">
<title>Node10&#45;&gt;Node12</title>
<path fill="none" stroke="#191970" d="M939.155,-275.4179C957.7934,-266.5807 986.3367,-253.0473 1007.6136,-242.9591"/>
<polygon fill="#191970" stroke="#191970" points="1009.2802,-246.0424 1016.8165,-238.5956 1006.2812,-239.7174 1009.2802,-246.0424"/>
</g>
<!-- Node13 -->
<g id="node14" class="node">
<title>Node13</title>
<g id="a_node14"><a xlink:href="$Ioss__EntityType_8h.html" xlink:title="Ioss_EntityType.h">
<polygon fill="#ffffff" stroke="#000000" points="1098.5322,-220.5 1098.5322,-238.5 1193.4678,-238.5 1193.4678,-220.5 1098.5322,-220.5"/>
<text text-anchor="middle" x="1146" y="-226.5" font-family="Helvetica,sans-Serif" font-size="10.00" fill="#000000">Ioss_EntityType.h</text>
</a>
</g>
</g>
<!-- Node10&#45;&gt;Node13 -->
<g id="edge15" class="edge">
<title>Node10&#45;&gt;Node13</title>
<path fill="none" stroke="#191970" d="M957.0662,-275.4795C995.9033,-266.0279 1057.0132,-251.1561 1099.163,-240.8984"/>
<polygon fill="#191970" stroke="#191970" points="1100.0248,-244.2909 1108.9135,-238.5255 1098.3695,-237.4894 1100.0248,-244.2909"/>
</g>
<!-- Node10&#45;&gt;Node14 -->
<g id="edge16" class="edge">
<title>Node10&#45;&gt;Node14</title>
<path fill="none" stroke="#191970" d="M869.0137,-283.8829C729.2803,-281.7577 347.6139,-272.8805 303,-239 271.5029,-215.0806 263.0336,-166.0117 260.7855,-138.7803"/>
<polygon fill="#191970" stroke="#191970" points="264.2655,-138.3482 260.1539,-128.5837 257.2789,-138.781 264.2655,-138.3482"/>
</g>
<!-- Node15 -->
<g id="node16" class="node">
<title>Node15</title>
<polygon fill="#ffffff" stroke="#bfbfbf" points="179.6084,-55.5 179.6084,-73.5 218.3916,-73.5 218.3916,-55.5 179.6084,-55.5"/>
<text text-anchor="middle" x="199" y="-61.5" font-family="Helvetica,sans-Serif" font-size="10.00" fill="#000000">utility</text>
</g>
<!-- Node10&#45;&gt;Node15 -->
<g id="edge60" class="edge">
<title>Node10&#45;&gt;Node15</title>
<path fill="none" stroke="#191970" d="M868.9732,-283.5392C726.6392,-280.4868 332.4208,-269.3575 283,-239 227.1789,-204.7111 207.6696,-121.5319 201.534,-83.7472"/>
<polygon fill="#191970" stroke="#191970" points="204.9565,-82.9644 200.0339,-73.5826 198.0315,-83.9865 204.9565,-82.9644"/>
</g>
<!-- Node16 -->
<g id="node17" class="node">
<title>Node16</title>
<g id="a_node17"><a xlink:href="$Ioss__ParallelUtils_8h.html" xlink:title="Ioss_ParallelUtils.h">
<polygon fill="#ffffff" stroke="#000000" points="708.4829,-220.5 708.4829,-238.5 809.5171,-238.5 809.5171,-220.5 708.4829,-220.5"/>
<text text-anchor="middle" x="759" y="-226.5" font-family="Helvetica,sans-Serif" font-size="10.00" fill="#000000">Ioss_ParallelUtils.h</text>
</a>
</g>
</g>
<!-- Node10&#45;&gt;Node16 -->
<g id="edge23" class="edge">
<title>Node10&#45;&gt;Node16</title>
<path fill="none" stroke="#191970" d="M893.4141,-275.4179C866.5329,-266.2348 824.8073,-251.9807 794.9788,-241.7909"/>
<polygon fill="#191970" stroke="#191970" points="795.9523,-238.4249 785.3578,-238.5042 793.6894,-245.0491 795.9523,-238.4249"/>
</g>
<!-- Node24 -->
<g id="node25" class="node">
<title>Node24</title>
<g id="a_node25"><a xlink:href="$Ioss__PropertyManager_8h.html" xlink:title="Ioss_PropertyManager.h">
<polygon fill="#ffffff" stroke="#000000" points="1262.5225,-110.5 1262.5225,-128.5 1387.4775,-128.5 1387.4775,-110.5 1262.5225,-110.5"/>
<text text-anchor="middle" x="1325" y="-116.5" font-family="Helvetica,sans-Serif" font-size="10.00" fill="#000000">Ioss_PropertyManager.h</text>
</a>
</g>
</g>
<!-- Node10&#45;&gt;Node24 -->
<g id="edge45" class="edge">
<title>Node10&#45;&gt;Node24</title>
<path fill="none" stroke="#191970" d="M970.8305,-281.3884C1045.2764,-276.0719 1179.6155,-263.3724 1221,-239 1256.772,-217.9329 1250.3468,-195.9638 1278,-165 1287.2446,-154.6486 1298.3731,-143.8118 1307.4804,-135.3118"/>
<polygon fill="#191970" stroke="#191970" points="1309.8778,-137.862 1314.8653,-128.5145 1305.1372,-132.7116 1309.8778,-137.862"/>
</g>
<!-- Node10&#45;&gt;Node27 -->
<g id="edge54" class="edge">
<title>Node10&#45;&gt;Node27</title>
<path fill="none" stroke="#191970" d="M971.0205,-280.4534C1051.5726,-273.7577 1213.0407,-259.0915 1349,-239 1350.2784,-238.8111 1351.5738,-238.6128 1352.8803,-238.4067"/>
<polygon fill="#191970" stroke="#191970" points="1353.7285,-241.8133 1363.0098,-236.7038 1352.5679,-234.9102 1353.7285,-241.8133"/>
</g>
<!-- Node28 -->
<g id="node29" class="node">
<title>Node28</title>
<g id="a_node29"><a xlink:href="$Ioss__SurfaceSplit_8h.html" xlink:title="Ioss_SurfaceSplit.h">
<polygon fill="#ffffff" stroke="#000000" points="311.9214,-220.5 311.9214,-238.5 414.0786,-238.5 414.0786,-220.5 311.9214,-220.5"/>
<text text-anchor="middle" x="363" y="-226.5" font-family="Helvetica,sans-Serif" font-size="10.00" fill="#000000">Ioss_SurfaceSplit.h</text>
</a>
</g>
</g>
<!-- Node10&#45;&gt;Node28 -->
<g id="edge55" class="edge">
<title>Node10&#45;&gt;Node28</title>
<path fill="none" stroke="#191970" d="M868.91,-280.6711C779.4225,-273.7646 588.5602,-258.1439 428,-239 426.8959,-238.8684 425.7816,-238.733 424.6594,-238.5943"/>
<polygon fill="#191970" stroke="#191970" points="424.7799,-235.0808 414.4139,-237.2706 423.883,-242.0231 424.7799,-235.0808"/>
</g>
<!-- Node29 -->
<g id="node30" class="node">
<title>Node29</title>
<polygon fill="#ffffff" stroke="#bfbfbf" points="1133.2734,-110.5 1133.2734,-128.5 1168.7266,-128.5 1168.7266,-110.5 1133.2734,-110.5"/>
<text text-anchor="middle" x="1151" y="-116.5" font-family="Helvetica,sans-Serif" font-size="10.00" fill="#000000">map</text>
</g>
<!-- Node10&#45;&gt;Node29 -->
<g id="edge58" class="edge">
<title>Node10&#45;&gt;Node29</title>
<path fill="none" stroke="#191970" d="M970.8627,-279.8486C1047.9989,-272.2748 1187.2098,-256.3678 1202,-239 1228.657,-207.6972 1191.4996,-160.3892 1167.8864,-135.7366"/>
<polygon fill="#191970" stroke="#191970" points="1170.3182,-133.2181 1160.7937,-128.5775 1165.3454,-138.1448 1170.3182,-133.2181"/>
</g>
<!-- Node14&#45;&gt;Node1 -->
<g id="edge17" class="edge">
<title>Node14&#45;&gt;Node1</title>
<path fill="none" stroke="#191970" d="M294.1873,-116.7348C402.9641,-107.9367 742.005,-80.5143 880.3306,-69.3262"/>
<polygon fill="#191970" stroke="#191970" points="880.6463,-72.8122 890.3315,-68.5173 880.0819,-65.835 880.6463,-72.8122"/>
</g>
<!-- Node14&#45;&gt;Node3 -->
<g id="edge18" class="edge">
<title>Node14&#45;&gt;Node3</title>
<path fill="none" stroke="#191970" d="M264.6954,-110.3681C272.1659,-96.6426 287.9813,-70.6407 308,-55 330.24,-37.6239 360.0721,-25.78 382.9045,-18.5423"/>
<polygon fill="#191970" stroke="#191970" points="383.9759,-21.8749 392.5337,-15.6288 381.9486,-15.1749 383.9759,-21.8749"/>
</g>
<!-- Node14&#45;&gt;Node4 -->
<g id="edge19" class="edge">
<title>Node14&#45;&gt;Node4</title>
<path fill="none" stroke="#191970" d="M256.9492,-110.3216C252.1796,-96.9939 241.9303,-72.0208 227,-55 215.9962,-42.4556 200.8224,-31.681 187.7983,-23.77"/>
<polygon fill="#191970" stroke="#191970" points="189.1896,-20.5305 178.785,-18.5314 185.672,-26.5825 189.1896,-20.5305"/>
</g>
<!-- Node14&#45;&gt;Node5 -->
<g id="edge20" class="edge">
<title>Node14&#45;&gt;Node5</title>
<path fill="none" stroke="#191970" d="M294.0316,-115.7893C387.7396,-105.611 657.4903,-76.5763 882,-55 1065.1119,-37.4022 1285.1725,-18.7611 1365.095,-12.0726"/>
<polygon fill="#191970" stroke="#191970" points="1365.7501,-15.5302 1375.4239,-11.2096 1365.1672,-8.5545 1365.7501,-15.5302"/>
</g>
<!-- Node14&#45;&gt;Node6 -->
<g id="edge22" class="edge">
<title>Node14&#45;&gt;Node6</title>
<path fill="none" stroke="#191970" d="M269.0103,-110.0774C283.6253,-95.4642 314.0942,-67.6994 346,-55 412.3906,-28.5746 629.002,-15.2152 711.0816,-11.0049"/>
<polygon fill="#191970" stroke="#191970" points="711.4857,-14.4891 721.2979,-10.4927 711.1352,-7.4979 711.4857,-14.4891"/>
</g>
<!-- Node14&#45;&gt;Node15 -->
<g id="edge21" class="edge">
<title>Node14&#45;&gt;Node15</title>
<path fill="none" stroke="#191970" d="M249.9271,-110.4179C240.9745,-102.3458 227.6762,-90.3556 216.9137,-80.6517"/>
<polygon fill="#191970" stroke="#191970" points="219.0624,-77.8764 209.2918,-73.7795 214.3749,-83.0753 219.0624,-77.8764"/>
</g>
<!-- Node16&#45;&gt;Node1 -->
<g id="edge24" class="edge">
<title>Node16&#45;&gt;Node1</title>
<path fill="none" stroke="#191970" d="M809.5177,-221.8369C879.6703,-210.9549 998.7498,-191.5123 1005,-184 1026.0351,-158.7175 1020.1884,-139.1717 1005,-110 997.8336,-96.2358 984.3869,-85.7744 971.5752,-78.3746"/>
<polygon fill="#191970" stroke="#191970" points="972.9297,-75.1308 962.4574,-73.524 969.642,-81.3107 972.9297,-75.1308"/>
</g>
<!-- Node16&#45;&gt;Node3 -->
<g id="edge42" class="edge">
<title>Node16&#45;&gt;Node3</title>
<path fill="none" stroke="#191970" d="M708.4488,-223.005C645.1809,-212.6609 536.2493,-187.2966 463,-129 431.9514,-104.2895 421.8368,-55.9401 418.5583,-28.9308"/>
<polygon fill="#191970" stroke="#191970" points="422.0214,-28.389 417.5306,-18.793 415.0571,-29.095 422.0214,-28.389"/>
</g>
<!-- Node16&#45;&gt;Node5 -->
<g id="edge43" class="edge">
<title>Node16&#45;&gt;Node5</title>
<path fill="none" stroke="#191970" d="M809.5862,-224.3142C824.8182,-222.8289 841.5824,-221.2696 857,-220 974.8719,-210.2932 1279.4846,-231.0364 1388,-184 1420.8918,-169.7429 1432.7026,-161.8743 1447,-129 1452.3099,-116.7909 1457.4074,-82.0978 1445,-55 1439.4678,-42.9177 1429.0861,-32.5433 1419.2977,-24.7651"/>
<polygon fill="#191970" stroke="#191970" points="1421.1074,-21.7504 1410.9855,-18.6205 1416.9463,-27.3794 1421.1074,-21.7504"/>
</g>
<!-- Node16&#45;&gt;Node6 -->
<g id="edge44" class="edge">
<title>Node16&#45;&gt;Node6</title>
<path fill="none" stroke="#191970" d="M809.52,-221.9569C885.5114,-208.3463 1015.9177,-174.8679 972,-110 947.8474,-74.3258 921.5539,-91.0731 882,-74 843.1086,-57.2129 798.8232,-36.3559 770.8992,-22.986"/>
<polygon fill="#191970" stroke="#191970" points="772.2698,-19.7616 761.7401,-18.5881 769.2398,-26.0719 772.2698,-19.7616"/>
</g>
<!-- Node17 -->
<g id="node18" class="node">
<title>Node17</title>
<g id="a_node18"><a xlink:href="$Ioss__Utils_8h.html" xlink:title="Ioss_Utils.h">
<polygon fill="#ffffff" stroke="#000000" points="673.1577,-165.5 673.1577,-183.5 740.8423,-183.5 740.8423,-165.5 673.1577,-165.5"/>
<text text-anchor="middle" x="707" y="-171.5" font-family="Helvetica,sans-Serif" font-size="10.00" fill="#000000">Ioss_Utils.h</text>
</a>
</g>
</g>
<!-- Node16&#45;&gt;Node17 -->
<g id="edge25" class="edge">
<title>Node16&#45;&gt;Node17</title>
<path fill="none" stroke="#191970" d="M750.4133,-220.4179C742.9312,-212.5041 731.8884,-200.8243 722.8128,-191.2251"/>
<polygon fill="#191970" stroke="#191970" points="725.1867,-188.6414 715.7733,-183.7795 720.1002,-193.4505 725.1867,-188.6414"/>
</g>
<!-- Node20 -->
<g id="node21" class="node">
<title>Node20</title>
<polygon fill="#ffffff" stroke="#bfbfbf" points="914.8843,-110.5 914.8843,-128.5 963.1157,-128.5 963.1157,-110.5 914.8843,-110.5"/>
<text text-anchor="middle" x="939" y="-116.5" font-family="Helvetica,sans-Serif" font-size="10.00" fill="#000000">cassert</text>
</g>
<!-- Node16&#45;&gt;Node20 -->
<g id="edge41" class="edge">
<title>Node16&#45;&gt;Node20</title>
<path fill="none" stroke="#191970" d="M773.7302,-220.4982C804.8465,-201.4827 877.5043,-157.0807 915.2646,-134.005"/>
<polygon fill="#191970" stroke="#191970" points="917.3586,-136.8272 924.0663,-128.6261 913.7084,-130.8542 917.3586,-136.8272"/>
</g>
<!-- Node17&#45;&gt;Node1 -->
<g id="edge26" class="edge">
<title>Node17&#45;&gt;Node1</title>
<path fill="none" stroke="#191970" d="M741.0808,-169.498C774.8999,-163.4985 827.4089,-151.3317 868,-129 890.3705,-116.6926 911.5813,-96.2329 925.1097,-81.6576"/>
<polygon fill="#191970" stroke="#191970" points="928.0414,-83.6328 932.1379,-73.8619 922.8423,-78.9455 928.0414,-83.6328"/>
</g>
<!-- Node17&#45;&gt;Node3 -->
<g id="edge34" class="edge">
<title>Node17&#45;&gt;Node3</title>
<path fill="none" stroke="#191970" d="M673.0915,-170.9364C618.82,-164.6777 515.5418,-150.3185 486,-129 451.1689,-103.8646 431.2811,-55.3194 422.4904,-28.4856"/>
<polygon fill="#191970" stroke="#191970" points="425.7775,-27.2679 419.4788,-18.7487 419.09,-29.3364 425.7775,-27.2679"/>
</g>
<!-- Node17&#45;&gt;Node4 -->
<g id="edge35" class="edge">
<title>Node17&#45;&gt;Node4</title>
<path fill="none" stroke="#191970" d="M672.8451,-172.8327C568.2816,-167.5206 257.1864,-150.0971 217,-129 188.7848,-114.1876 184.1443,-103.0299 171,-74 164.5652,-59.7884 162.1593,-42.2083 161.31,-28.9929"/>
<polygon fill="#191970" stroke="#191970" points="164.7954,-28.5509 160.9022,-18.6972 157.8008,-28.828 164.7954,-28.5509"/>
</g>
<!-- Node17&#45;&gt;Node5 -->
<g id="edge39" class="edge">
<title>Node17&#45;&gt;Node5</title>
<path fill="none" stroke="#191970" d="M740.8457,-173.5368C876.3311,-169.5197 1373.3678,-153.1761 1396,-129 1421.2969,-101.9775 1411.3327,-54.5763 1402.97,-28.3279"/>
<polygon fill="#191970" stroke="#191970" points="1406.2547,-27.1164 1399.701,-18.7917 1399.6329,-29.3863 1406.2547,-27.1164"/>
</g>
<!-- Node17&#45;&gt;Node6 -->
<g id="edge40" class="edge">
<title>Node17&#45;&gt;Node6</title>
<path fill="none" stroke="#191970" d="M672.7353,-172.3124C618.1259,-168.0324 515.2296,-156.4529 493,-129 487.6859,-122.4373 488.2718,-116.9966 493,-110 542.6011,-36.6014 655.6238,-16.7994 711.0935,-11.4638"/>
<polygon fill="#191970" stroke="#191970" points="711.7212,-14.9228 721.3842,-10.5779 711.1208,-7.9486 711.7212,-14.9228"/>
</g>
<!-- Node18 -->
<g id="node19" class="node">
<title>Node18</title>
<g id="a_node19"><a xlink:href="$Ioss__Field_8h.html" xlink:title="Ioss_Field.h">
<polygon fill="#ffffff" stroke="#000000" points="713.042,-110.5 713.042,-128.5 782.958,-128.5 782.958,-110.5 713.042,-110.5"/>
<text text-anchor="middle" x="748" y="-116.5" font-family="Helvetica,sans-Serif" font-size="10.00" fill="#000000">Ioss_Field.h</text>
</a>
</g>
</g>
<!-- Node17&#45;&gt;Node18 -->
<g id="edge27" class="edge">
<title>Node17&#45;&gt;Node18</title>
<path fill="none" stroke="#191970" d="M713.7703,-165.4179C719.5517,-157.6624 728.0293,-146.29 735.101,-136.8035"/>
<polygon fill="#191970" stroke="#191970" points="737.912,-138.8888 741.0826,-128.7795 732.2998,-134.7051 737.912,-138.8888"/>
</g>
<!-- Node19 -->
<g id="node20" class="node">
<title>Node19</title>
<polygon fill="#ffffff" stroke="#bfbfbf" points="801.436,-110.5 801.436,-128.5 858.564,-128.5 858.564,-110.5 801.436,-110.5"/>
<text text-anchor="middle" x="830" y="-116.5" font-family="Helvetica,sans-Serif" font-size="10.00" fill="#000000">algorithm</text>
</g>
<!-- Node17&#45;&gt;Node19 -->
<g id="edge32" class="edge">
<title>Node17&#45;&gt;Node19</title>
<path fill="none" stroke="#191970" d="M727.3109,-165.4179C747.2521,-156.5011 777.8859,-142.803 800.5085,-132.6873"/>
<polygon fill="#191970" stroke="#191970" points="801.9587,-135.8728 809.6589,-128.5956 799.1012,-129.4826 801.9587,-135.8728"/>
</g>
<!-- Node17&#45;&gt;Node20 -->
<g id="edge33" class="edge">
<title>Node17&#45;&gt;Node20</title>
<path fill="none" stroke="#191970" d="M741.0291,-166.6774C779.7938,-157.7293 845.0194,-142.5615 901,-129 902.2268,-128.7028 903.4755,-128.3988 904.7365,-128.0904"/>
<polygon fill="#191970" stroke="#191970" points="905.6132,-131.4791 914.4832,-125.685 903.9359,-124.683 905.6132,-131.4791"/>
</g>
<!-- Node21 -->
<g id="node22" class="node">
<title>Node21</title>
<polygon fill="#ffffff" stroke="#bfbfbf" points="501.8276,-110.5 501.8276,-128.5 546.1724,-128.5 546.1724,-110.5 501.8276,-110.5"/>
<text text-anchor="middle" x="524" y="-116.5" font-family="Helvetica,sans-Serif" font-size="10.00" fill="#000000">cstdlib</text>
</g>
<!-- Node17&#45;&gt;Node21 -->
<g id="edge36" class="edge">
<title>Node17&#45;&gt;Node21</title>
<path fill="none" stroke="#191970" d="M676.7013,-165.4935C647.9887,-156.9446 603.4,-143.6331 556.1459,-129.3349"/>
<polygon fill="#191970" stroke="#191970" points="556.931,-125.9157 546.3457,-126.3669 554.902,-132.6152 556.931,-125.9157"/>
</g>
<!-- Node22 -->
<g id="node23" class="node">
<title>Node22</title>
<polygon fill="#ffffff" stroke="#bfbfbf" points="563.8276,-110.5 563.8276,-128.5 618.1724,-128.5 618.1724,-110.5 563.8276,-110.5"/>
<text text-anchor="middle" x="591" y="-116.5" font-family="Helvetica,sans-Serif" font-size="10.00" fill="#000000">iostream</text>
</g>
<!-- Node17&#45;&gt;Node22 -->
<g id="edge37" class="edge">
<title>Node17&#45;&gt;Node22</title>
<path fill="none" stroke="#191970" d="M687.845,-165.4179C669.2066,-156.5807 640.6633,-143.0473 619.3864,-132.9591"/>
<polygon fill="#191970" stroke="#191970" points="620.7188,-129.7174 610.1835,-128.5956 617.7198,-136.0424 620.7188,-129.7174"/>
</g>
<!-- Node23 -->
<g id="node24" class="node">
<title>Node23</title>
<polygon fill="#ffffff" stroke="#bfbfbf" points="636.5986,-110.5 636.5986,-128.5 695.4014,-128.5 695.4014,-110.5 636.5986,-110.5"/>
<text text-anchor="middle" x="666" y="-116.5" font-family="Helvetica,sans-Serif" font-size="10.00" fill="#000000">stdexcept</text>
</g>
<!-- Node17&#45;&gt;Node23 -->
<g id="edge38" class="edge">
<title>Node17&#45;&gt;Node23</title>
<path fill="none" stroke="#191970" d="M700.2297,-165.4179C694.4483,-157.6624 685.9707,-146.29 678.899,-136.8035"/>
<polygon fill="#191970" stroke="#191970" points="681.7002,-134.7051 672.9174,-128.7795 676.088,-138.8888 681.7002,-134.7051"/>
</g>
<!-- Node18&#45;&gt;Node1 -->
<g id="edge28" class="edge">
<title>Node18&#45;&gt;Node1</title>
<path fill="none" stroke="#191970" d="M779.7049,-110.4179C812.3196,-101.0751 863.2579,-86.4834 898.9365,-76.263"/>
<polygon fill="#191970" stroke="#191970" points="899.9176,-79.6228 908.5671,-73.5042 897.9899,-72.8934 899.9176,-79.6228"/>
</g>
<!-- Node18&#45;&gt;Node3 -->
<g id="edge29" class="edge">
<title>Node18&#45;&gt;Node3</title>
<path fill="none" stroke="#191970" d="M720.9129,-110.4982C660.847,-90.5368 516.6017,-42.6003 450.7778,-20.7252"/>
<polygon fill="#191970" stroke="#191970" points="451.8761,-17.4021 441.2826,-17.5697 449.6685,-24.0449 451.8761,-17.4021"/>
</g>
<!-- Node18&#45;&gt;Node5 -->
<g id="edge30" class="edge">
<title>Node18&#45;&gt;Node5</title>
<path fill="none" stroke="#191970" d="M782.9902,-111.5228C786.0286,-110.9585 789.0631,-110.4399 792,-110 979.0361,-81.9859 1033.9415,-125.2055 1216,-74 1234.1771,-68.8875 1236.5131,-62.1241 1254,-55 1291.5796,-39.6902 1336.3771,-26.0702 1365.4641,-17.8105"/>
<polygon fill="#191970" stroke="#191970" points="1366.7435,-21.0869 1375.4271,-15.0169 1364.8535,-14.3468 1366.7435,-21.0869"/>
</g>
<!-- Node18&#45;&gt;Node6 -->
<g id="edge31" class="edge">
<title>Node18&#45;&gt;Node6</title>
<path fill="none" stroke="#191970" d="M747.5908,-110.4982C746.7814,-92.6913 744.9601,-52.6225 743.8705,-28.6515"/>
<polygon fill="#191970" stroke="#191970" points="747.3654,-28.4569 743.4148,-18.6261 740.3726,-28.7748 747.3654,-28.4569"/>
</g>
<!-- Node24&#45;&gt;Node1 -->
<g id="edge46" class="edge">
<title>Node24&#45;&gt;Node1</title>
<path fill="none" stroke="#191970" d="M1262.2862,-110.5409C1189.6827,-100.169 1070.9736,-83.2105 999.6831,-73.0262"/>
<polygon fill="#191970" stroke="#191970" points="999.9146,-69.5238 989.5201,-71.5743 998.9246,-76.4534 999.9146,-69.5238"/>
</g>
<!-- Node24&#45;&gt;Node3 -->
<g id="edge50" class="edge">
<title>Node24&#45;&gt;Node3</title>
<path fill="none" stroke="#191970" d="M1265.9978,-110.4846C1213.9269,-102.1788 1136.0903,-88.9103 1069,-74 1037.1121,-66.9132 1030.196,-60.5206 998,-55 792.6924,-19.7964 541.8354,-11.7876 451.4801,-10.0011"/>
<polygon fill="#191970" stroke="#191970" points="451.3336,-6.4979 441.2707,-9.8127 451.2044,-13.4967 451.3336,-6.4979"/>
</g>
<!-- Node24&#45;&gt;Node5 -->
<g id="edge51" class="edge">
<title>Node24&#45;&gt;Node5</title>
<path fill="none" stroke="#191970" d="M1332.0911,-110.2716C1338.9611,-101.2061 1349.5513,-86.897 1358,-74 1367.9885,-58.7524 1378.438,-40.8525 1385.8453,-27.7829"/>
<polygon fill="#191970" stroke="#191970" points="1389.0147,-29.2871 1390.8588,-18.854 1382.911,-25.86 1389.0147,-29.2871"/>
</g>
<!-- Node24&#45;&gt;Node6 -->
<g id="edge53" class="edge">
<title>Node24&#45;&gt;Node6</title>
<path fill="none" stroke="#191970" d="M1267.2037,-110.4707C1223.8752,-102.9077 1163.4418,-90.6632 1112,-74 1092.1232,-67.5614 1089.1447,-60.5437 1069,-55 944.3445,-20.6957 904.4498,-45.83 774.7379,-19.0389"/>
<polygon fill="#191970" stroke="#191970" points="775.3381,-15.5883 764.8283,-16.9282 773.8798,-22.4347 775.3381,-15.5883"/>
</g>
<!-- Node25 -->
<g id="node26" class="node">
<title>Node25</title>
<g id="a_node26"><a xlink:href="$Ioss__Property_8h.html" xlink:title="Ioss_Property.h">
<polygon fill="#ffffff" stroke="#000000" points="1121.3516,-55.5 1121.3516,-73.5 1206.6484,-73.5 1206.6484,-55.5 1121.3516,-55.5"/>
<text text-anchor="middle" x="1164" y="-61.5" font-family="Helvetica,sans-Serif" font-size="10.00" fill="#000000">Ioss_Property.h</text>
</a>
</g>
</g>
<!-- Node24&#45;&gt;Node25 -->
<g id="edge47" class="edge">
<title>Node24&#45;&gt;Node25</title>
<path fill="none" stroke="#191970" d="M1298.4141,-110.4179C1271.5329,-101.2348 1229.8073,-86.9807 1199.9788,-76.7909"/>
<polygon fill="#191970" stroke="#191970" points="1200.9523,-73.4249 1190.3578,-73.5042 1198.6894,-80.0491 1200.9523,-73.4249"/>
</g>
<!-- Node26 -->
<g id="node27" class="node">
<title>Node26</title>
<polygon fill="#ffffff" stroke="#bfbfbf" points="1262.6973,-55.5 1262.6973,-73.5 1349.3027,-73.5 1349.3027,-55.5 1262.6973,-55.5"/>
<text text-anchor="middle" x="1306" y="-61.5" font-family="Helvetica,sans-Serif" font-size="10.00" fill="#000000">unordered_map</text>
</g>
<!-- Node24&#45;&gt;Node26 -->
<g id="edge52" class="edge">
<title>Node24&#45;&gt;Node26</title>
<path fill="none" stroke="#191970" d="M1321.8625,-110.4179C1319.3201,-103.0581 1315.6524,-92.441 1312.484,-83.2695"/>
<polygon fill="#191970" stroke="#191970" points="1315.7791,-82.0885 1309.2056,-73.7795 1309.1627,-84.3742 1315.7791,-82.0885"/>
</g>
<!-- Node25&#45;&gt;Node4 -->
<g id="edge48" class="edge">
<title>Node25&#45;&gt;Node4</title>
<path fill="none" stroke="#191970" d="M1121.0088,-62.0059C1087.4966,-60.0698 1039.7916,-57.3318 998,-55 684.8081,-37.5255 305.6442,-17.221 193.6337,-11.2404"/>
<polygon fill="#191970" stroke="#191970" points="193.8115,-7.745 183.6391,-10.7069 193.4383,-14.735 193.8115,-7.745"/>
</g>
<!-- Node25&#45;&gt;Node5 -->
<g id="edge49" class="edge">
<title>Node25&#45;&gt;Node5</title>
<path fill="none" stroke="#191970" d="M1202.0503,-55.4795C1247.7941,-44.635 1323.6379,-26.6548 1365.6464,-16.6959"/>
<polygon fill="#191970" stroke="#191970" points="1366.6357,-20.0585 1375.5586,-14.346 1365.0209,-13.2472 1366.6357,-20.0585"/>
</g>
<!-- Node30&#45;&gt;Node1 -->
<g id="edge63" class="edge">
<title>Node30&#45;&gt;Node1</title>
<path fill="none" stroke="#191970" d="M1310.179,-165.4631C1287.4876,-156.4225 1251.7236,-142.025 1221,-129 1201.7636,-120.8449 1197.9451,-116.224 1178,-110 1145.4478,-99.8419 1058.6752,-84.3019 999.4113,-74.2706"/>
<polygon fill="#191970" stroke="#191970" points="999.8604,-70.797 989.4179,-72.587 998.6975,-77.6997 999.8604,-70.797"/>
</g>
<!-- Node30&#45;&gt;Node5 -->
<g id="edge64" class="edge">
<title>Node30&#45;&gt;Node5</title>
<path fill="none" stroke="#191970" d="M1375.4751,-165.456C1395.3333,-158.8702 1417.1667,-147.7037 1429,-129 1446.5842,-101.2066 1439.1502,-86.2834 1429,-55 1425.5578,-44.3911 1418.6112,-34.1855 1411.9755,-26.1379"/>
<polygon fill="#191970" stroke="#191970" points="1414.5725,-23.791 1405.333,-18.606 1409.3225,-28.4211 1414.5725,-23.791"/>
</g>
<!-- Node30&#45;&gt;Node6 -->
<g id="edge68" class="edge">
<title>Node30&#45;&gt;Node6</title>
<path fill="none" stroke="#191970" d="M1317.5048,-165.4459C1290.2952,-149.6584 1234.8387,-118.0079 1214,-110 1150.4061,-85.5622 1130.8954,-91.2968 1065,-74 1035.0622,-66.1417 1028.2228,-61.6788 998,-55 902.2041,-33.8304 873.336,-41.8056 774.6257,-19.1236"/>
<polygon fill="#191970" stroke="#191970" points="775.3855,-15.7069 764.8504,-16.8309 773.787,-22.522 775.3855,-15.7069"/>
</g>
<!-- Node30&#45;&gt;Node9 -->
<g id="edge65" class="edge">
<title>Node30&#45;&gt;Node9</title>
<path fill="none" stroke="#191970" d="M1371.0503,-165.4795C1411.0026,-156.008 1473.9155,-141.0933 1517.1932,-130.8335"/>
<polygon fill="#191970" stroke="#191970" points="1518.006,-134.2379 1526.9289,-128.5255 1516.3912,-127.4267 1518.006,-134.2379"/>
</g>
<!-- Node30&#45;&gt;Node24 -->
<g id="edge66" class="edge">
<title>Node30&#45;&gt;Node24</title>
<path fill="none" stroke="#191970" d="M1331.679,-165.4179C1330.6315,-158.2164 1329.1304,-147.8962 1327.8165,-138.8632"/>
<polygon fill="#191970" stroke="#191970" points="1331.2528,-138.1715 1326.3497,-128.7795 1324.3257,-139.1791 1331.2528,-138.1715"/>
</g>
<!-- Node30&#45;&gt;Node29 -->
<g id="edge67" class="edge">
<title>Node30&#45;&gt;Node29</title>
<path fill="none" stroke="#191970" d="M1302.9464,-165.4179C1268.3602,-154.966 1212.036,-137.945 1178.5448,-127.824"/>
<polygon fill="#191970" stroke="#191970" points="1179.5183,-124.4619 1168.9333,-124.9194 1177.4933,-131.1626 1179.5183,-124.4619"/>
</g>
</g>
</svg>
