<?xml version="1.0" encoding="UTF-8" standalone="no"?>
<!DOCTYPE svg PUBLIC "-//W3C//DTD SVG 1.1//EN"
 "http://www.w3.org/Graphics/SVG/1.1/DTD/svg11.dtd">
<!-- Generated by graphviz version 2.42.3 (20191010.1750)
 -->
<!-- Title: src/exodus/Ioex_Utils.h Pages: 1 -->
<svg width="1100pt" height="92pt"
 viewBox="0.00 0.00 1100.19 92.00" xmlns="http://www.w3.org/2000/svg" xmlns:xlink="http://www.w3.org/1999/xlink">
<g id="graph0" class="graph" transform="scale(1 1) rotate(0) translate(4 88)">
<title>src/exodus/Ioex_Utils.h</title>
<polygon fill="white" stroke="transparent" points="-4,4 -4,-88 1096.19,-88 1096.19,4 -4,4"/>
<!-- Node1 -->
<g id="node1" class="node">
<title>Node1</title>
<g id="a_node1"><a xlink:title=" ">
<polygon fill="#bfbfbf" stroke="black" points="554.19,-65.5 554.19,-83.5 673.57,-83.5 673.57,-65.5 554.19,-65.5"/>
<text text-anchor="middle" x="613.88" y="-71.5" font-family="Helvetica,sans-Serif" font-size="10.00">src/exodus/Ioex_Utils.h</text>
</a>
</g>
</g>
<!-- Node2 -->
<g id="node2" class="node">
<title>Node2</title>
<g id="a_node2"><a xlink:href="Ioex__BaseDatabaseIO_8C.html" target="_top" xlink:title=" ">
<polygon fill="white" stroke="black" points="0,-5.5 0,-23.5 177.75,-23.5 177.75,-5.5 0,-5.5"/>
<text text-anchor="middle" x="88.88" y="-11.5" font-family="Helvetica,sans-Serif" font-size="10.00">src/exodus/Ioex_BaseDatabaseIO.C</text>
</a>
</g>
</g>
<!-- Node1&#45;&gt;Node2 -->
<g id="edge1" class="edge">
<title>Node1&#45;&gt;Node2</title>
<path fill="none" stroke="midnightblue" d="M544.04,-66.94C459.42,-58.82 312.55,-44.2 186.88,-29 173.24,-27.35 158.55,-25.41 144.81,-23.53"/>
<polygon fill="midnightblue" stroke="midnightblue" points="543.76,-70.43 554.05,-67.89 544.43,-63.46 543.76,-70.43"/>
</g>
<!-- Node3 -->
<g id="node3" class="node">
<title>Node3</title>
<g id="a_node3"><a xlink:href="Ioex__DatabaseIO_8C.html" target="_top" xlink:title=" ">
<polygon fill="white" stroke="black" points="195.4,-5.5 195.4,-23.5 350.36,-23.5 350.36,-5.5 195.4,-5.5"/>
<text text-anchor="middle" x="272.88" y="-11.5" font-family="Helvetica,sans-Serif" font-size="10.00">src/exodus/Ioex_DatabaseIO.C</text>
</a>
</g>
</g>
<!-- Node1&#45;&gt;Node3 -->
<g id="edge2" class="edge">
<title>Node1&#45;&gt;Node3</title>
<path fill="none" stroke="midnightblue" d="M556.93,-63.81C490.5,-52.52 381.9,-34.04 320,-23.51"/>
<polygon fill="midnightblue" stroke="midnightblue" points="556.37,-67.27 566.82,-65.5 557.55,-60.37 556.37,-67.27"/>
</g>
<!-- Node4 -->
<g id="node4" class="node">
<title>Node4</title>
<g id="a_node4"><a xlink:href="Ioex__DecompositionData_8C.html" target="_top" xlink:title=" ">
<polygon fill="white" stroke="black" points="368.01,-0.5 368.01,-28.5 525.75,-28.5 525.75,-0.5 368.01,-0.5"/>
<text text-anchor="start" x="376.01" y="-16.5" font-family="Helvetica,sans-Serif" font-size="10.00">src/exodus/Ioex_Decomposition</text>
<text text-anchor="middle" x="446.88" y="-6.5" font-family="Helvetica,sans-Serif" font-size="10.00">Data.C</text>
</a>
</g>
</g>
<!-- Node1&#45;&gt;Node4 -->
<g id="edge3" class="edge">
<title>Node1&#45;&gt;Node4</title>
<path fill="none" stroke="midnightblue" d="M581,-62.08C553.2,-52.43 513.36,-38.59 484.34,-28.51"/>
<polygon fill="midnightblue" stroke="midnightblue" points="580.06,-65.46 590.66,-65.44 582.36,-58.85 580.06,-65.46"/>
</g>
<!-- Node5 -->
<g id="node5" class="node">
<title>Node5</title>
<g id="a_node5"><a xlink:href="Ioex__Internals_8C.html" target="_top" xlink:title=" ">
<polygon fill="white" stroke="black" points="543.9,-5.5 543.9,-23.5 683.85,-23.5 683.85,-5.5 543.9,-5.5"/>
<text text-anchor="middle" x="613.88" y="-11.5" font-family="Helvetica,sans-Serif" font-size="10.00">src/exodus/Ioex_Internals.C</text>
</a>
</g>
</g>
<!-- Node1&#45;&gt;Node5 -->
<g id="edge4" class="edge">
<title>Node1&#45;&gt;Node5</title>
<path fill="none" stroke="midnightblue" d="M613.88,-55.21C613.88,-44.71 613.88,-32.03 613.88,-23.87"/>
<polygon fill="midnightblue" stroke="midnightblue" points="610.38,-55.44 613.88,-65.44 617.38,-55.44 610.38,-55.44"/>
</g>
<!-- Node6 -->
<g id="node6" class="node">
<title>Node6</title>
<g id="a_node6"><a xlink:href="Ioex__ParallelDatabaseIO_8C.html" target="_top" xlink:title=" ">
<polygon fill="white" stroke="black" points="701.4,-0.5 701.4,-28.5 826.35,-28.5 826.35,-0.5 701.4,-0.5"/>
<text text-anchor="start" x="709.4" y="-16.5" font-family="Helvetica,sans-Serif" font-size="10.00">src/exodus/Ioex_Parallel</text>
<text text-anchor="middle" x="763.88" y="-6.5" font-family="Helvetica,sans-Serif" font-size="10.00">DatabaseIO.C</text>
</a>
</g>
</g>
<!-- Node1&#45;&gt;Node6 -->
<g id="edge5" class="edge">
<title>Node1&#45;&gt;Node6</title>
<path fill="none" stroke="midnightblue" d="M644.07,-61.83C669.01,-52.18 704.39,-38.5 730.23,-28.51"/>
<polygon fill="midnightblue" stroke="midnightblue" points="642.8,-58.56 634.73,-65.44 645.32,-65.09 642.8,-58.56"/>
</g>
<!-- Node7 -->
<g id="node7" class="node">
<title>Node7</title>
<g id="a_node7"><a xlink:href="Ioex__Utils_8C.html" target="_top" xlink:title=" ">
<polygon fill="white" stroke="black" points="844.36,-5.5 844.36,-23.5 965.4,-23.5 965.4,-5.5 844.36,-5.5"/>
<text text-anchor="middle" x="904.88" y="-11.5" font-family="Helvetica,sans-Serif" font-size="10.00">src/exodus/Ioex_Utils.C</text>
</a>
</g>
</g>
<!-- Node1&#45;&gt;Node7 -->
<g id="edge6" class="edge">
<title>Node1&#45;&gt;Node7</title>
<path fill="none" stroke="midnightblue" d="M663.87,-63.54C720.68,-52.21 812.28,-33.96 864.66,-23.51"/>
<polygon fill="midnightblue" stroke="midnightblue" points="663.16,-60.11 654.03,-65.5 664.52,-66.97 663.16,-60.11"/>
</g>
<!-- Node8 -->
<g id="node8" class="node">
<title>Node8</title>
<g id="a_node8"><a xlink:href="io__modify_8C.html" target="_top" xlink:title=" ">
<polygon fill="white" stroke="black" points="983.57,-5.5 983.57,-23.5 1092.19,-23.5 1092.19,-5.5 983.57,-5.5"/>
<text text-anchor="middle" x="1037.88" y="-11.5" font-family="Helvetica,sans-Serif" font-size="10.00">src/main/io_modify.C</text>
</a>
</g>
</g>
<!-- Node1&#45;&gt;Node8 -->
<g id="edge7" class="edge">
<title>Node1&#45;&gt;Node8</title>
<path fill="none" stroke="midnightblue" d="M683.82,-66.73C756.74,-59.24 874.22,-45.95 974.88,-29 984.03,-27.46 993.87,-25.5 1002.99,-23.55"/>
<polygon fill="midnightblue" stroke="midnightblue" points="683.43,-63.25 673.84,-67.75 684.14,-70.22 683.43,-63.25"/>
</g>
</g>
</svg>
