<?xml version="1.0" encoding="UTF-8" standalone="no"?>
<!DOCTYPE svg PUBLIC "-//W3C//DTD SVG 1.1//EN"
 "http://www.w3.org/Graphics/SVG/1.1/DTD/svg11.dtd">
<!-- Generated by graphviz version 2.40.1 (20161225.0304)
 -->
<!-- Title: src/exodus/Ioex_Utils.h Pages: 1 -->
<!--zoomable 92 -->
<svg id="main" version="1.1" xmlns="http://www.w3.org/2000/svg" xmlns:xlink="http://www.w3.org/1999/xlink" xml:space="preserve" onload="init(evt)">
<style type="text/css"><![CDATA[
.edge:hover path { stroke: red; }
.edge:hover polygon { stroke: red; fill: red; }
]]></style>
<script type="text/javascript"><![CDATA[
var edges = document.getElementsByTagName('g');
if (edges && edges.length) {
  for (var i=0;i<edges.length;i++) {
    if (edges[i].id.substr(0,4)=='edge') {
      edges[i].setAttribute('class','edge');
    }
  }
}
]]></script>
        <defs>
                <circle id="rim" cx="0" cy="0" r="7"/>
                <circle id="rim2" cx="0" cy="0" r="3.5"/>
                <g id="zoomPlus">
                        <use xlink:href="#rim" fill="#404040">
                                <set attributeName="fill" to="#808080" begin="zoomplus.mouseover" end="zoomplus.mouseout"/>
                        </use>
                        <path d="M-4,0h8M0,-4v8" fill="none" stroke="white" stroke-width="1.5" pointer-events="none"/>
                </g>
                <g id="zoomMin">
                        <use xlink:href="#rim" fill="#404040">
                                <set attributeName="fill" to="#808080" begin="zoomminus.mouseover" end="zoomminus.mouseout"/>
                        </use>
                        <path d="M-4,0h8" fill="none" stroke="white" stroke-width="1.5" pointer-events="none"/>
                </g>
                <g id="dirArrow">
                        <path fill="none" stroke="white" stroke-width="1.5" d="M0,-3.0v7 M-2.5,-0.5L0,-3.0L2.5,-0.5"/>
                </g>
               <g id="resetDef">
                       <use xlink:href="#rim2" fill="#404040">
                               <set attributeName="fill" to="#808080" begin="reset.mouseover" end="reset.mouseout"/>
                       </use>
               </g>
        </defs>

<script type="text/javascript">
var viewWidth = 831;
var viewHeight = 92;
var sectionId = 'dynsection-1';
</script>
<script xlink:href="svgpan.js"/>
<svg id="graph" class="graph">
<g id="viewport">
<title>src/exodus/Ioex_Utils.h</title>
<polygon fill="#ffffff" stroke="transparent" points="-4,4 -4,-88 827.2778,-88 827.2778,4 -4,4"/>
<!-- Node42 -->
<g id="node1" class="node">
<title>Node42</title>
<polygon fill="#bfbfbf" stroke="#000000" points="371.0688,-65.5 371.0688,-83.5 490.4478,-83.5 490.4478,-65.5 371.0688,-65.5"/>
<text text-anchor="middle" x="430.7583" y="-71.5" font-family="Helvetica,sans-Serif" font-size="10.00" fill="#000000">src/exodus/Ioex_Utils.h</text>
</g>
<!-- Node43 -->
<g id="node2" class="node">
<title>Node43</title>
<g id="a_node2"><a xlink:href="Iofx__DatabaseIO_8C.html" target="_top" xlink:title="src/exo_fpp/Iofx_DatabaseIO.C">
<polygon fill="#ffffff" stroke="#000000" points="0,-5.5 0,-23.5 155.5166,-23.5 155.5166,-5.5 0,-5.5"/>
<text text-anchor="middle" x="77.7583" y="-11.5" font-family="Helvetica,sans-Serif" font-size="10.00" fill="#000000">src/exo_fpp/Iofx_DatabaseIO.C</text>
</a>
</g>
</g>
<!-- Node42&#45;&gt;Node43 -->
<g id="edge1" class="edge">
<title>Node42&#45;&gt;Node43</title>
<path fill="none" stroke="#191970" d="M367.4425,-63.7381C299.9178,-52.2608 194.1659,-34.286 130.8432,-23.5229"/>
<polygon fill="#191970" stroke="#191970" points="367.0833,-67.2272 377.5284,-65.4524 368.2563,-60.3262 367.0833,-67.2272"/>
</g>
<!-- Node44 -->
<g id="node3" class="node">
<title>Node44</title>
<g id="a_node3"><a xlink:href="Iopx__DatabaseIO_8C.html" target="_top" xlink:title="src/exo_par/Iopx_DatabaseIO.C">
<polygon fill="#ffffff" stroke="#000000" points="173.3325,-5.5 173.3325,-23.5 332.1841,-23.5 332.1841,-5.5 173.3325,-5.5"/>
<text text-anchor="middle" x="252.7583" y="-11.5" font-family="Helvetica,sans-Serif" font-size="10.00" fill="#000000">src/exo_par/Iopx_DatabaseIO.C</text>
</a>
</g>
</g>
<!-- Node42&#45;&gt;Node44 -->
<g id="edge2" class="edge">
<title>Node42&#45;&gt;Node44</title>
<path fill="none" stroke="#191970" d="M394.1201,-62.15C360.0016,-50.6494 309.9512,-33.7785 279.4639,-23.5019"/>
<polygon fill="#191970" stroke="#191970" points="393.1298,-65.5097 403.7239,-65.3873 395.3658,-58.8764 393.1298,-65.5097"/>
</g>
<!-- Node45 -->
<g id="node4" class="node">
<title>Node45</title>
<g id="a_node4"><a xlink:href="Iopx__DecompositionData_8C.html" target="_top" xlink:title="src/exo_par/Iopx_Decomposition\lData.C">
<polygon fill="#ffffff" stroke="#000000" points="349.9434,-.5 349.9434,-28.5 511.5732,-28.5 511.5732,-.5 349.9434,-.5"/>
<text text-anchor="start" x="357.9434" y="-16.5" font-family="Helvetica,sans-Serif" font-size="10.00" fill="#000000">src/exo_par/Iopx_Decomposition</text>
<text text-anchor="middle" x="430.7583" y="-6.5" font-family="Helvetica,sans-Serif" font-size="10.00" fill="#000000">Data.C</text>
</a>
</g>
</g>
<!-- Node42&#45;&gt;Node45 -->
<g id="edge3" class="edge">
<title>Node42&#45;&gt;Node45</title>
<path fill="none" stroke="#191970" d="M430.7583,-55.1865C430.7583,-46.6283 430.7583,-36.7354 430.7583,-28.8477"/>
<polygon fill="#191970" stroke="#191970" points="427.2584,-55.3873 430.7583,-65.3873 434.2584,-55.3873 427.2584,-55.3873"/>
</g>
<!-- Node46 -->
<g id="node5" class="node">
<title>Node46</title>
<g id="a_node5"><a xlink:href="Ioex__DatabaseIO_8C.html" target="_top" xlink:title="src/exodus/Ioex_DatabaseIO.C">
<polygon fill="#ffffff" stroke="#000000" points="529.2783,-5.5 529.2783,-23.5 684.2383,-23.5 684.2383,-5.5 529.2783,-5.5"/>
<text text-anchor="middle" x="606.7583" y="-11.5" font-family="Helvetica,sans-Serif" font-size="10.00" fill="#000000">src/exodus/Ioex_DatabaseIO.C</text>
</a>
</g>
</g>
<!-- Node42&#45;&gt;Node46 -->
<g id="edge4" class="edge">
<title>Node42&#45;&gt;Node46</title>
<path fill="none" stroke="#191970" d="M466.9849,-62.15C500.72,-50.6494 550.208,-33.7785 580.3528,-23.5019"/>
<polygon fill="#191970" stroke="#191970" points="465.8246,-58.8477 457.4889,-65.3873 468.0834,-65.4733 465.8246,-58.8477"/>
</g>
<!-- Node47 -->
<g id="node6" class="node">
<title>Node47</title>
<g id="a_node6"><a xlink:href="Ioex__Utils_8C.html" target="_top" xlink:title="src/exodus/Ioex_Utils.C">
<polygon fill="#ffffff" stroke="#000000" points="702.2388,-5.5 702.2388,-23.5 823.2778,-23.5 823.2778,-5.5 702.2388,-5.5"/>
<text text-anchor="middle" x="762.7583" y="-11.5" font-family="Helvetica,sans-Serif" font-size="10.00" fill="#000000">src/exodus/Ioex_Utils.C</text>
</a>
</g>
</g>
<!-- Node42&#45;&gt;Node47 -->
<g id="edge5" class="edge">
<title>Node42&#45;&gt;Node47</title>
<path fill="none" stroke="#191970" d="M495.7582,-63.8118C548.8386,-54.9394 625.7594,-41.7534 692.7583,-29 701.6584,-27.3059 711.1746,-25.3989 720.2319,-23.5381"/>
<polygon fill="#191970" stroke="#191970" points="495.0894,-60.3749 485.8013,-65.4723 496.2409,-67.2796 495.0894,-60.3749"/>
</g>
</g>
</svg>
        <g id="navigator" transform="translate(0 0)" fill="#404254">
                <rect fill="#f2f5e9" fill-opacity="0.5" stroke="#606060" stroke-width=".5" x="0" y="0" width="60" height="60"/>
                <use id="zoomplus" xlink:href="#zoomPlus" x="17" y="9" onmousedown="handleZoom(evt,'in')"/>
                <use id="zoomminus" xlink:href="#zoomMin" x="42" y="9" onmousedown="handleZoom(evt,'out')"/>
                <use id="reset" xlink:href="#resetDef" x="30" y="36" onmousedown="handleReset()"/>
                <g id="arrowUp" xlink:href="#dirArrow" transform="translate(30 24)" onmousedown="handlePan(0,-1)">
                  <use xlink:href="#rim" fill="#404040">
                        <set attributeName="fill" to="#808080" begin="arrowUp.mouseover" end="arrowUp.mouseout"/>
                  </use>
                  <path fill="none" stroke="white" stroke-width="1.5" d="M0,-3.0v7 M-2.5,-0.5L0,-3.0L2.5,-0.5"/>
                </g>
                <g id="arrowRight" xlink:href="#dirArrow" transform="rotate(90) translate(36 -43)" onmousedown="handlePan(1,0)">
                  <use xlink:href="#rim" fill="#404040">
                        <set attributeName="fill" to="#808080" begin="arrowRight.mouseover" end="arrowRight.mouseout"/>
                  </use>
                  <path fill="none" stroke="white" stroke-width="1.5" d="M0,-3.0v7 M-2.5,-0.5L0,-3.0L2.5,-0.5"/>
                </g>
                <g id="arrowDown" xlink:href="#dirArrow" transform="rotate(180) translate(-30 -48)" onmousedown="handlePan(0,1)">
                  <use xlink:href="#rim" fill="#404040">
                        <set attributeName="fill" to="#808080" begin="arrowDown.mouseover" end="arrowDown.mouseout"/>
                  </use>
                  <path fill="none" stroke="white" stroke-width="1.5" d="M0,-3.0v7 M-2.5,-0.5L0,-3.0L2.5,-0.5"/>
                </g>
                <g id="arrowLeft" xlink:href="#dirArrow" transform="rotate(270) translate(-36 17)" onmousedown="handlePan(-1,0)">
                  <use xlink:href="#rim" fill="#404040">
                        <set attributeName="fill" to="#808080" begin="arrowLeft.mouseover" end="arrowLeft.mouseout"/>
                  </use>
                  <path fill="none" stroke="white" stroke-width="1.5" d="M0,-3.0v7 M-2.5,-0.5L0,-3.0L2.5,-0.5"/>
                </g>
        </g>
        <svg viewBox="0 0 15 15" width="100%" height="30px" preserveAspectRatio="xMaxYMin meet">
         <g id="arrow_out" transform="scale(0.3 0.3)">
          <a xlink:href="Ioex__Utils_8h__dep__incl_org.svg" target="_base">
           <rect id="button" ry="5" rx="5" y="6" x="6" height="38" width="38"
                fill="#f2f5e9" fill-opacity="0.5" stroke="#606060" stroke-width="1.0"/>
           <path id="arrow"
             d="M 11.500037,31.436501 C 11.940474,20.09759 22.043105,11.32322 32.158766,21.979434 L 37.068811,17.246167 C 37.068811,17.246167 37.088388,32 37.088388,32 L 22.160133,31.978069 C 22.160133,31.978069 26.997745,27.140456 26.997745,27.140456 C 18.528582,18.264221 13.291696,25.230495 11.500037,31.436501 z"
             style="fill:#404040;"/>
          </a>
         </g>
        </svg>
</svg>
