<?xml version="1.0" encoding="UTF-8" standalone="no"?>
<!DOCTYPE svg PUBLIC "-//W3C//DTD SVG 1.1//EN"
 "http://www.w3.org/Graphics/SVG/1.1/DTD/svg11.dtd">
<!-- Generated by graphviz version 2.40.1 (20161225.0304)
 -->
<!-- Title: src/exodus/Ioex_SuperElement.h Pages: 1 -->
<svg width="1951pt" height="412pt"
 viewBox="0.00 0.00 1951.00 412.00" xmlns="http://www.w3.org/2000/svg" xmlns:xlink="http://www.w3.org/1999/xlink">
<g id="graph0" class="graph" transform="scale(1 1) rotate(0) translate(4 408)">
<title>src/exodus/Ioex_SuperElement.h</title>
<polygon fill="#ffffff" stroke="transparent" points="-4,4 -4,-408 1947,-408 1947,4 -4,4"/>
<!-- Node0 -->
<g id="node1" class="node">
<title>Node0</title>
<polygon fill="#bfbfbf" stroke="#000000" points="70.3477,-385.5 70.3477,-403.5 233.6523,-403.5 233.6523,-385.5 70.3477,-385.5"/>
<text text-anchor="middle" x="152" y="-391.5" font-family="Helvetica,sans-Serif" font-size="10.00" fill="#000000">src/exodus/Ioex_SuperElement.h</text>
</g>
<!-- Node1 -->
<g id="node2" class="node">
<title>Node1</title>
<g id="a_node2"><a xlink:href="$Ioss__EntityType_8h.html" xlink:title="Ioss_EntityType.h">
<polygon fill="#ffffff" stroke="#000000" points="179.5322,-220.5 179.5322,-238.5 274.4678,-238.5 274.4678,-220.5 179.5322,-220.5"/>
<text text-anchor="middle" x="227" y="-226.5" font-family="Helvetica,sans-Serif" font-size="10.00" fill="#000000">Ioss_EntityType.h</text>
</a>
</g>
</g>
<!-- Node0&#45;&gt;Node1 -->
<g id="edge1" class="edge">
<title>Node0&#45;&gt;Node1</title>
<path fill="none" stroke="#191970" d="M156.2472,-385.1561C168.262,-358.7235 202.6544,-283.0604 218.6421,-247.8875"/>
<polygon fill="#191970" stroke="#191970" points="221.8476,-249.2934 222.7994,-238.7414 215.475,-246.3967 221.8476,-249.2934"/>
</g>
<!-- Node2 -->
<g id="node3" class="node">
<title>Node2</title>
<g id="a_node3"><a xlink:href="$Ioss__Property_8h.html" xlink:title="Ioss_Property.h">
<polygon fill="#ffffff" stroke="#000000" points="180.3516,-55.5 180.3516,-73.5 265.6484,-73.5 265.6484,-55.5 180.3516,-55.5"/>
<text text-anchor="middle" x="223" y="-61.5" font-family="Helvetica,sans-Serif" font-size="10.00" fill="#000000">Ioss_Property.h</text>
</a>
</g>
</g>
<!-- Node0&#45;&gt;Node2 -->
<g id="edge2" class="edge">
<title>Node0&#45;&gt;Node2</title>
<path fill="none" stroke="#191970" d="M130.2891,-385.4258C97.2131,-369.9802 38,-335.243 38,-284.5 38,-284.5 38,-284.5 38,-174.5 38,-112.588 115.4946,-84.7391 170.1721,-72.7952"/>
<polygon fill="#191970" stroke="#191970" points="171.0074,-76.1966 180.0923,-70.7455 169.5909,-69.3414 171.0074,-76.1966"/>
</g>
<!-- Node3 -->
<g id="node4" class="node">
<title>Node3</title>
<polygon fill="#ffffff" stroke="#bfbfbf" points="667.5493,-.5 667.5493,-18.5 712.4507,-18.5 712.4507,-.5 667.5493,-.5"/>
<text text-anchor="middle" x="690" y="-6.5" font-family="Helvetica,sans-Serif" font-size="10.00" fill="#000000">cstdint</text>
</g>
<!-- Node0&#45;&gt;Node3 -->
<g id="edge90" class="edge">
<title>Node0&#45;&gt;Node3</title>
<path fill="none" stroke="#191970" d="M151.2226,-385.3387C149.3203,-358.6322 146.2504,-279.0162 171,-220 195.4293,-161.7477 213.916,-152.1096 261,-110 294.5397,-80.0037 303.7764,-70.5519 346,-55 402.8434,-34.0633 582.673,-17.9417 657.1765,-11.9908"/>
<polygon fill="#191970" stroke="#191970" points="657.6832,-15.4618 667.3774,-11.1872 657.1334,-8.4834 657.6832,-15.4618"/>
</g>
<!-- Node4 -->
<g id="node5" class="node">
<title>Node4</title>
<polygon fill="#ffffff" stroke="#bfbfbf" points="420.7734,-.5 420.7734,-18.5 461.2266,-18.5 461.2266,-.5 420.7734,-.5"/>
<text text-anchor="middle" x="441" y="-6.5" font-family="Helvetica,sans-Serif" font-size="10.00" fill="#000000">string</text>
</g>
<!-- Node0&#45;&gt;Node4 -->
<g id="edge91" class="edge">
<title>Node0&#45;&gt;Node4</title>
<path fill="none" stroke="#191970" d="M115.5922,-385.4355C70.6244,-371.8021 0,-341.3419 0,-284.5 0,-284.5 0,-284.5 0,-119.5 0,-34.7056 310.8194,-14.7569 410.5755,-10.5381"/>
<polygon fill="#191970" stroke="#191970" points="410.7618,-14.0336 420.6141,-10.1372 410.4824,-7.0391 410.7618,-14.0336"/>
</g>
<!-- Node5 -->
<g id="node6" class="node">
<title>Node5</title>
<g id="a_node6"><a xlink:href="$Ioss__GroupingEntity_8h.html" xlink:title="Ioss_GroupingEntity.h">
<polygon fill="#ffffff" stroke="#000000" points="712.1743,-330.5 712.1743,-348.5 825.8257,-348.5 825.8257,-330.5 712.1743,-330.5"/>
<text text-anchor="middle" x="769" y="-336.5" font-family="Helvetica,sans-Serif" font-size="10.00" fill="#000000">Ioss_GroupingEntity.h</text>
</a>
</g>
</g>
<!-- Node0&#45;&gt;Node5 -->
<g id="edge5" class="edge">
<title>Node0&#45;&gt;Node5</title>
<path fill="none" stroke="#191970" d="M233.9328,-387.1964C357.2358,-376.2051 588.1582,-355.6204 702.0217,-345.4705"/>
<polygon fill="#191970" stroke="#191970" points="702.3555,-348.9547 712.0052,-344.5806 701.7339,-341.9824 702.3555,-348.9547"/>
</g>
<!-- Node8 -->
<g id="node9" class="node">
<title>Node8</title>
<polygon fill="#ffffff" stroke="#bfbfbf" points="1690.8794,-.5 1690.8794,-18.5 1739.1206,-18.5 1739.1206,-.5 1690.8794,-.5"/>
<text text-anchor="middle" x="1715" y="-6.5" font-family="Helvetica,sans-Serif" font-size="10.00" fill="#000000">cstddef</text>
</g>
<!-- Node0&#45;&gt;Node8 -->
<g id="edge89" class="edge">
<title>Node0&#45;&gt;Node8</title>
<path fill="none" stroke="#191970" d="M233.9043,-393.8137C584.7431,-390.3455 1943,-371.3128 1943,-284.5 1943,-284.5 1943,-284.5 1943,-119.5 1943,-82.3969 1921.2639,-74.9803 1890,-55 1846.5444,-27.2282 1786.7941,-16.3627 1749.5586,-12.1418"/>
<polygon fill="#191970" stroke="#191970" points="1749.5336,-8.6208 1739.2273,-11.0763 1748.8154,-15.5838 1749.5336,-8.6208"/>
</g>
<!-- Node2&#45;&gt;Node3 -->
<g id="edge3" class="edge">
<title>Node2&#45;&gt;Node3</title>
<path fill="none" stroke="#191970" d="M265.9124,-57.09C270.6601,-56.347 275.4289,-55.6341 280,-55 419.7221,-35.6184 587.1453,-19.1267 656.9347,-12.5511"/>
<polygon fill="#191970" stroke="#191970" points="657.6481,-15.9996 667.278,-11.5819 656.9951,-9.0301 657.6481,-15.9996"/>
</g>
<!-- Node2&#45;&gt;Node4 -->
<g id="edge4" class="edge">
<title>Node2&#45;&gt;Node4</title>
<path fill="none" stroke="#191970" d="M258.9983,-55.4179C301.4054,-44.7188 371.0966,-27.1362 410.8064,-17.1176"/>
<polygon fill="#191970" stroke="#191970" points="411.853,-20.4634 420.693,-14.6233 410.1406,-13.676 411.853,-20.4634"/>
</g>
<!-- Node5&#45;&gt;Node1 -->
<g id="edge64" class="edge">
<title>Node5&#45;&gt;Node1</title>
<path fill="none" stroke="#191970" d="M712.0968,-336.9905C609.0606,-331.8971 395.7933,-318.6802 326,-294 294.973,-283.0283 263.9541,-260.4772 245.1182,-245.1688"/>
<polygon fill="#191970" stroke="#191970" points="247.2891,-242.4219 237.3649,-238.7124 242.8097,-247.8011 247.2891,-242.4219"/>
</g>
<!-- Node5&#45;&gt;Node2 -->
<g id="edge75" class="edge">
<title>Node5&#45;&gt;Node2</title>
<path fill="none" stroke="#191970" d="M711.7628,-336.7044C601.3998,-330.8909 363.0921,-316.1669 284,-294 230.2172,-278.9265 200.618,-286.3558 171,-239 138.6706,-187.3089 184.5691,-114.4598 209.1737,-81.6724"/>
<polygon fill="#191970" stroke="#191970" points="212.1159,-83.5892 215.466,-73.538 206.5791,-79.3062 212.1159,-83.5892"/>
</g>
<!-- Node5&#45;&gt;Node3 -->
<g id="edge86" class="edge">
<title>Node5&#45;&gt;Node3</title>
<path fill="none" stroke="#191970" d="M712.0994,-333.581C656.1514,-326.9392 568.6724,-314.3454 495,-294 430.5605,-276.2043 415.6418,-267.1374 355,-239 308.2804,-217.3224 279.3975,-228.2246 253,-184 230.4196,-146.1703 275.0702,-105.2047 389,-55 436.7435,-33.9612 589.8818,-18.3104 657.4472,-12.2509"/>
<polygon fill="#191970" stroke="#191970" points="657.8734,-15.7269 667.527,-11.3613 657.258,-8.754 657.8734,-15.7269"/>
</g>
<!-- Node5&#45;&gt;Node4 -->
<g id="edge87" class="edge">
<title>Node5&#45;&gt;Node4</title>
<path fill="none" stroke="#191970" d="M712.0374,-337.6607C588.4553,-333.2233 299.2665,-320.2996 205,-294 143.2573,-276.7743 76,-293.6006 76,-229.5 76,-229.5 76,-229.5 76,-119.5 76,-76.5375 109.1715,-73.3882 148,-55 194.2745,-33.0856 345.5505,-17.7551 410.7033,-12.0085"/>
<polygon fill="#191970" stroke="#191970" points="411.0901,-15.4882 420.7508,-11.1384 410.4861,-8.5143 411.0901,-15.4882"/>
</g>
<!-- Node6 -->
<g id="node7" class="node">
<title>Node6</title>
<g id="a_node7"><a xlink:href="$Ioss__CodeTypes_8h.html" xlink:title="Ioss_CodeTypes.h">
<polygon fill="#ffffff" stroke="#000000" points="838.584,-55.5 838.584,-73.5 937.416,-73.5 937.416,-55.5 838.584,-55.5"/>
<text text-anchor="middle" x="888" y="-61.5" font-family="Helvetica,sans-Serif" font-size="10.00" fill="#000000">Ioss_CodeTypes.h</text>
</a>
</g>
</g>
<!-- Node5&#45;&gt;Node6 -->
<g id="edge6" class="edge">
<title>Node5&#45;&gt;Node6</title>
<path fill="none" stroke="#191970" d="M825.9323,-337.7046C1018.7454,-331.0406 1638.3437,-304.6383 1696,-239 1701.5729,-232.6556 1700.7386,-226.9896 1696,-220 1677.4751,-192.675 1452.1259,-117.5996 1420,-110 1374.9871,-99.3519 1076.7719,-77.6492 947.5438,-68.6024"/>
<polygon fill="#191970" stroke="#191970" points="947.6446,-65.1011 937.425,-67.8958 947.1568,-72.084 947.6446,-65.1011"/>
</g>
<!-- Node5&#45;&gt;Node8 -->
<g id="edge85" class="edge">
<title>Node5&#45;&gt;Node8</title>
<path fill="none" stroke="#191970" d="M825.928,-338.2354C1024.3778,-333.6447 1678.5612,-316.9169 1770,-294 1834.5015,-277.8342 1905,-295.9964 1905,-229.5 1905,-229.5 1905,-229.5 1905,-119.5 1905,-48.4218 1804.1804,-22.5272 1749.4239,-13.705"/>
<polygon fill="#191970" stroke="#191970" points="1749.8597,-10.2313 1739.4502,-12.2045 1748.8182,-17.1534 1749.8597,-10.2313"/>
</g>
<!-- Node9 -->
<g id="node10" class="node">
<title>Node9</title>
<polygon fill="#ffffff" stroke="#bfbfbf" points="1360.3843,-.5 1360.3843,-18.5 1403.6157,-18.5 1403.6157,-.5 1360.3843,-.5"/>
<text text-anchor="middle" x="1382" y="-6.5" font-family="Helvetica,sans-Serif" font-size="10.00" fill="#000000">vector</text>
</g>
<!-- Node5&#45;&gt;Node9 -->
<g id="edge88" class="edge">
<title>Node5&#45;&gt;Node9</title>
<path fill="none" stroke="#191970" d="M825.8921,-338.9428C1030.138,-336.6753 1716.0864,-326.6482 1749,-294 1817.8763,-225.6791 1725.8988,-94.3593 1673,-55 1632.4872,-24.8565 1481.2776,-14.1422 1414.2911,-10.8197"/>
<polygon fill="#191970" stroke="#191970" points="1414.0739,-7.3057 1403.9203,-10.3314 1413.7446,-14.2979 1414.0739,-7.3057"/>
</g>
<!-- Node12 -->
<g id="node13" class="node">
<title>Node12</title>
<g id="a_node13"><a xlink:href="$Ioss__DatabaseIO_8h.html" xlink:title="Ioss_DatabaseIO.h">
<polygon fill="#ffffff" stroke="#000000" points="947.1973,-275.5 947.1973,-293.5 1048.8027,-293.5 1048.8027,-275.5 947.1973,-275.5"/>
<text text-anchor="middle" x="998" y="-281.5" font-family="Helvetica,sans-Serif" font-size="10.00" fill="#000000">Ioss_DatabaseIO.h</text>
</a>
</g>
</g>
<!-- Node5&#45;&gt;Node12 -->
<g id="edge14" class="edge">
<title>Node5&#45;&gt;Node12</title>
<path fill="none" stroke="#191970" d="M806.5583,-330.4795C845.9109,-321.0279 907.8319,-306.1561 950.5413,-295.8984"/>
<polygon fill="#191970" stroke="#191970" points="951.5151,-299.2641 960.4212,-293.5255 949.8803,-292.4577 951.5151,-299.2641"/>
</g>
<!-- Node20 -->
<g id="node21" class="node">
<title>Node20</title>
<g id="a_node21"><a xlink:href="$Ioss__Field_8h.html" xlink:title="Ioss_Field.h">
<polygon fill="#ffffff" stroke="#000000" points="1341.042,-110.5 1341.042,-128.5 1410.958,-128.5 1410.958,-110.5 1341.042,-110.5"/>
<text text-anchor="middle" x="1376" y="-116.5" font-family="Helvetica,sans-Serif" font-size="10.00" fill="#000000">Ioss_Field.h</text>
</a>
</g>
</g>
<!-- Node5&#45;&gt;Node20 -->
<g id="edge65" class="edge">
<title>Node5&#45;&gt;Node20</title>
<path fill="none" stroke="#191970" d="M825.8301,-338.9458C1027.3916,-336.706 1697.7098,-326.8084 1729,-294 1826.5541,-191.7127 1536.2636,-140.8236 1420.9828,-125.0313"/>
<polygon fill="#191970" stroke="#191970" points="1421.4153,-121.5581 1411.0386,-123.6969 1420.4842,-128.4959 1421.4153,-121.5581"/>
</g>
<!-- Node26 -->
<g id="node27" class="node">
<title>Node26</title>
<g id="a_node27"><a xlink:href="$Ioss__PropertyManager_8h.html" xlink:title="Ioss_PropertyManager.h">
<polygon fill="#ffffff" stroke="#000000" points="427.5225,-110.5 427.5225,-128.5 552.4775,-128.5 552.4775,-110.5 427.5225,-110.5"/>
<text text-anchor="middle" x="490" y="-116.5" font-family="Helvetica,sans-Serif" font-size="10.00" fill="#000000">Ioss_PropertyManager.h</text>
</a>
</g>
</g>
<!-- Node5&#45;&gt;Node26 -->
<g id="edge76" class="edge">
<title>Node5&#45;&gt;Node26</title>
<path fill="none" stroke="#191970" d="M745.3804,-330.3331C682.4871,-305.3823 513.775,-234.7275 485,-184 477.1292,-170.1246 479.5311,-151.7917 483.2296,-138.2184"/>
<polygon fill="#191970" stroke="#191970" points="486.6155,-139.1195 486.3022,-128.5293 479.943,-137.0035 486.6155,-139.1195"/>
</g>
<!-- Node28 -->
<g id="node29" class="node">
<title>Node28</title>
<g id="a_node29"><a xlink:href="$Ioss__State_8h.html" xlink:title="Ioss_State.h">
<polygon fill="#ffffff" stroke="#000000" points="1615.2046,-220.5 1615.2046,-238.5 1686.7954,-238.5 1686.7954,-220.5 1615.2046,-220.5"/>
<text text-anchor="middle" x="1651" y="-226.5" font-family="Helvetica,sans-Serif" font-size="10.00" fill="#000000">Ioss_State.h</text>
</a>
</g>
</g>
<!-- Node5&#45;&gt;Node28 -->
<g id="edge77" class="edge">
<title>Node5&#45;&gt;Node28</title>
<path fill="none" stroke="#191970" d="M825.9249,-333.9636C960.8923,-320.5453 1310.7585,-284.0499 1601,-239 1602.277,-238.8018 1603.5712,-238.5952 1604.8766,-238.3819"/>
<polygon fill="#191970" stroke="#191970" points="1605.7382,-241.7852 1615.0002,-236.6408 1604.5517,-234.8865 1605.7382,-241.7852"/>
</g>
<!-- Node31 -->
<g id="node32" class="node">
<title>Node31</title>
<g id="a_node32"><a xlink:href="$Ioss__FieldManager_8h.html" xlink:title="Ioss_FieldManager.h">
<polygon fill="#ffffff" stroke="#000000" points="1142.5815,-220.5 1142.5815,-238.5 1251.4185,-238.5 1251.4185,-220.5 1142.5815,-220.5"/>
<text text-anchor="middle" x="1197" y="-226.5" font-family="Helvetica,sans-Serif" font-size="10.00" fill="#000000">Ioss_FieldManager.h</text>
</a>
</g>
</g>
<!-- Node5&#45;&gt;Node31 -->
<g id="edge66" class="edge">
<title>Node5&#45;&gt;Node31</title>
<path fill="none" stroke="#191970" d="M825.9864,-335.2364C885.0442,-329.7333 979.5223,-317.8731 1058,-294 1099.8922,-281.2563 1145.3751,-258.2367 1172.5143,-243.4229"/>
<polygon fill="#191970" stroke="#191970" points="1174.2567,-246.4589 1181.3127,-238.5555 1170.8681,-240.3337 1174.2567,-246.4589"/>
</g>
<!-- Node33 -->
<g id="node34" class="node">
<title>Node33</title>
<g id="a_node34"><a xlink:href="$Ioss__VariableType_8h.html" xlink:title="Ioss_VariableType.h">
<polygon fill="#ffffff" stroke="#000000" points="406.061,-220.5 406.061,-238.5 511.939,-238.5 511.939,-220.5 406.061,-220.5"/>
<text text-anchor="middle" x="459" y="-226.5" font-family="Helvetica,sans-Serif" font-size="10.00" fill="#000000">Ioss_VariableType.h</text>
</a>
</g>
</g>
<!-- Node5&#45;&gt;Node33 -->
<g id="edge78" class="edge">
<title>Node5&#45;&gt;Node33</title>
<path fill="none" stroke="#191970" d="M712.035,-332.6692C650.7208,-324.6466 557.7159,-310.3404 526,-294 503.9232,-282.6257 484.1884,-261.6352 471.951,-246.6899"/>
<polygon fill="#191970" stroke="#191970" points="474.5938,-244.3889 465.6511,-238.7073 469.0988,-248.7255 474.5938,-244.3889"/>
</g>
<!-- Node6&#45;&gt;Node3 -->
<g id="edge9" class="edge">
<title>Node6&#45;&gt;Node3</title>
<path fill="none" stroke="#191970" d="M853.6894,-55.4888C821.9149,-47.0692 773.1132,-33.9501 722.4725,-19.3708"/>
<polygon fill="#191970" stroke="#191970" points="723.2411,-15.9497 712.6624,-16.5346 721.2969,-22.6743 723.2411,-15.9497"/>
</g>
<!-- Node6&#45;&gt;Node4 -->
<g id="edge10" class="edge">
<title>Node6&#45;&gt;Node4</title>
<path fill="none" stroke="#191970" d="M838.4553,-58.4039C745.511,-46.9678 547.5289,-22.6076 471.557,-13.2598"/>
<polygon fill="#191970" stroke="#191970" points="471.6129,-9.7404 461.2603,-11.9929 470.758,-16.688 471.6129,-9.7404"/>
</g>
<!-- Node7 -->
<g id="node8" class="node">
<title>Node7</title>
<polygon fill="#ffffff" stroke="#bfbfbf" points="934.6084,-.5 934.6084,-18.5 973.3916,-18.5 973.3916,-.5 934.6084,-.5"/>
<text text-anchor="middle" x="954" y="-6.5" font-family="Helvetica,sans-Serif" font-size="10.00" fill="#000000">array</text>
</g>
<!-- Node6&#45;&gt;Node7 -->
<g id="edge7" class="edge">
<title>Node6&#45;&gt;Node7</title>
<path fill="none" stroke="#191970" d="M898.8986,-55.4179C908.6799,-47.2667 923.2558,-35.1201 934.9597,-25.3669"/>
<polygon fill="#191970" stroke="#191970" points="937.4231,-27.8701 942.8647,-18.7795 932.9418,-22.4926 937.4231,-27.8701"/>
</g>
<!-- Node6&#45;&gt;Node8 -->
<g id="edge8" class="edge">
<title>Node6&#45;&gt;Node8</title>
<path fill="none" stroke="#191970" d="M937.5626,-61.2038C1090.2575,-51.0488 1551.0141,-20.406 1680.7006,-11.7811"/>
<polygon fill="#191970" stroke="#191970" points="1681.0932,-15.2628 1690.8389,-11.1068 1680.6286,-8.2782 1681.0932,-15.2628"/>
</g>
<!-- Node6&#45;&gt;Node9 -->
<g id="edge11" class="edge">
<title>Node6&#45;&gt;Node9</title>
<path fill="none" stroke="#191970" d="M937.6284,-58.9746C1038.7707,-47.7138 1266.2634,-22.3856 1350.1487,-13.0462"/>
<polygon fill="#191970" stroke="#191970" points="1350.7777,-16.4979 1360.3289,-11.9128 1350.003,-9.5409 1350.7777,-16.4979"/>
</g>
<!-- Node10 -->
<g id="node11" class="node">
<title>Node10</title>
<polygon fill="#ffffff" stroke="#bfbfbf" points="730.2515,-.5 730.2515,-18.5 845.7485,-18.5 845.7485,-.5 730.2515,-.5"/>
<text text-anchor="middle" x="788" y="-6.5" font-family="Helvetica,sans-Serif" font-size="10.00" fill="#000000">SEACASIoss_config.h</text>
</g>
<!-- Node6&#45;&gt;Node10 -->
<g id="edge12" class="edge">
<title>Node6&#45;&gt;Node10</title>
<path fill="none" stroke="#191970" d="M871.487,-55.4179C855.7089,-46.7399 831.6972,-33.5334 813.4685,-23.5077"/>
<polygon fill="#191970" stroke="#191970" points="814.9864,-20.3481 804.5375,-18.5956 811.6129,-26.4816 814.9864,-20.3481"/>
</g>
<!-- Node11 -->
<g id="node12" class="node">
<title>Node11</title>
<polygon fill="#ffffff" stroke="#bfbfbf" points="863.3818,-.5 863.3818,-18.5 916.6182,-18.5 916.6182,-.5 863.3818,-.5"/>
<text text-anchor="middle" x="890" y="-6.5" font-family="Helvetica,sans-Serif" font-size="10.00" fill="#000000">complex</text>
</g>
<!-- Node6&#45;&gt;Node11 -->
<g id="edge13" class="edge">
<title>Node6&#45;&gt;Node11</title>
<path fill="none" stroke="#191970" d="M888.3303,-55.4179C888.5921,-48.2164 888.9674,-37.8962 889.2959,-28.8632"/>
<polygon fill="#191970" stroke="#191970" points="892.7968,-28.9001 889.6626,-18.7795 885.8014,-28.6456 892.7968,-28.9001"/>
</g>
<!-- Node12&#45;&gt;Node1 -->
<g id="edge19" class="edge">
<title>Node12&#45;&gt;Node1</title>
<path fill="none" stroke="#191970" d="M947.0687,-282.8189C830.2589,-278.6176 534.1747,-266.0013 288,-239 286.908,-238.8802 285.8056,-238.7548 284.6954,-238.6244"/>
<polygon fill="#191970" stroke="#191970" points="284.9264,-235.1256 274.5641,-237.3332 284.0414,-242.0694 284.9264,-235.1256"/>
</g>
<!-- Node12&#45;&gt;Node3 -->
<g id="edge59" class="edge">
<title>Node12&#45;&gt;Node3</title>
<path fill="none" stroke="#191970" d="M1017.3438,-275.4073C1040.7596,-263.1893 1075.0629,-240.6198 1058,-220 1003.4847,-154.1207 946.3115,-220.5366 869,-184 799.9551,-151.3701 789.2158,-129.7262 737,-74 723.2987,-59.3776 710.0778,-40.691 701.1674,-27.1992"/>
<polygon fill="#191970" stroke="#191970" points="704.1053,-25.2969 695.7344,-18.8025 698.2283,-29.0996 704.1053,-25.2969"/>
</g>
<!-- Node12&#45;&gt;Node4 -->
<g id="edge61" class="edge">
<title>Node12&#45;&gt;Node4</title>
<path fill="none" stroke="#191970" d="M947.144,-283.6588C815.4447,-281.0414 465.831,-271.1803 355,-239 305.5389,-224.6387 292.7288,-216.776 253,-184 199.0748,-139.512 117.7355,-108.2751 163,-55 178.9307,-36.2499 341.5947,-18.8628 410.4625,-12.2817"/>
<polygon fill="#191970" stroke="#191970" points="411.0456,-15.7424 420.6732,-11.3197 410.3889,-8.7732 411.0456,-15.7424"/>
</g>
<!-- Node12&#45;&gt;Node6 -->
<g id="edge16" class="edge">
<title>Node12&#45;&gt;Node6</title>
<path fill="none" stroke="#191970" d="M1032.3847,-275.4414C1066.7175,-264.7302 1111.6301,-245.1374 1091,-220 1038.9664,-156.598 983.7431,-219.9064 910,-184 876.2799,-167.5813 861.6498,-163.0837 846,-129 837.8897,-111.3365 852.5542,-92.9228 866.7315,-80.3136"/>
<polygon fill="#191970" stroke="#191970" points="869.3661,-82.677 874.8467,-73.6098 864.9079,-77.2802 869.3661,-82.677"/>
</g>
<!-- Node12&#45;&gt;Node8 -->
<g id="edge58" class="edge">
<title>Node12&#45;&gt;Node8</title>
<path fill="none" stroke="#191970" d="M1049.1036,-282.2126C1159.3076,-276.8992 1416.1212,-262.366 1500,-239 1640.2545,-199.9295 1713.4224,-201.8937 1783,-74 1794.4817,-52.895 1770.0964,-34.6783 1747.3993,-23.0392"/>
<polygon fill="#191970" stroke="#191970" points="1748.7403,-19.8002 1738.2122,-18.6126 1745.7018,-26.1064 1748.7403,-19.8002"/>
</g>
<!-- Node12&#45;&gt;Node9 -->
<g id="edge63" class="edge">
<title>Node12&#45;&gt;Node9</title>
<path fill="none" stroke="#191970" d="M1048.8795,-281.7346C1151.646,-275.7748 1380.5979,-260.4986 1456,-239 1567.4789,-207.2152 1623.4883,-184.6651 1658,-74 1660.514,-65.9385 1663.464,-61.4385 1658,-55 1642.3408,-36.5479 1483.7276,-19.2446 1414.2787,-12.4886"/>
<polygon fill="#191970" stroke="#191970" points="1414.2222,-8.9673 1403.9337,-11.4964 1413.5538,-15.9353 1414.2222,-8.9673"/>
</g>
<!-- Node13 -->
<g id="node14" class="node">
<title>Node13</title>
<g id="a_node14"><a xlink:href="$Ioss__BoundingBox_8h.html" xlink:title="Ioss_BoundingBox.h">
<polygon fill="#ffffff" stroke="#000000" points="606.1333,-220.5 606.1333,-238.5 713.8667,-238.5 713.8667,-220.5 606.1333,-220.5"/>
<text text-anchor="middle" x="660" y="-226.5" font-family="Helvetica,sans-Serif" font-size="10.00" fill="#000000">Ioss_BoundingBox.h</text>
</a>
</g>
</g>
<!-- Node12&#45;&gt;Node13 -->
<g id="edge15" class="edge">
<title>Node12&#45;&gt;Node13</title>
<path fill="none" stroke="#191970" d="M947.032,-276.2064C887.4256,-266.5071 788.6925,-250.4411 723.9846,-239.9117"/>
<polygon fill="#191970" stroke="#191970" points="724.3351,-236.4228 713.9027,-238.2712 723.2107,-243.3319 724.3351,-236.4228"/>
</g>
<!-- Node14 -->
<g id="node15" class="node">
<title>Node14</title>
<g id="a_node15"><a xlink:href="$Ioss__DBUsage_8h.html" xlink:title="Ioss_DBUsage.h">
<polygon fill="#ffffff" stroke="#000000" points="731.4805,-220.5 731.4805,-238.5 822.5195,-238.5 822.5195,-220.5 731.4805,-220.5"/>
<text text-anchor="middle" x="777" y="-226.5" font-family="Helvetica,sans-Serif" font-size="10.00" fill="#000000">Ioss_DBUsage.h</text>
</a>
</g>
</g>
<!-- Node12&#45;&gt;Node14 -->
<g id="edge17" class="edge">
<title>Node12&#45;&gt;Node14</title>
<path fill="none" stroke="#191970" d="M961.5063,-275.4179C923.5644,-265.9753 864.0781,-251.171 822.9556,-240.9369"/>
<polygon fill="#191970" stroke="#191970" points="823.7298,-237.5229 813.1806,-238.5042 822.0393,-244.3157 823.7298,-237.5229"/>
</g>
<!-- Node15 -->
<g id="node16" class="node">
<title>Node15</title>
<g id="a_node16"><a xlink:href="$Ioss__DataSize_8h.html" xlink:title="Ioss_DataSize.h">
<polygon fill="#ffffff" stroke="#000000" points="840.5913,-220.5 840.5913,-238.5 929.4087,-238.5 929.4087,-220.5 840.5913,-220.5"/>
<text text-anchor="middle" x="885" y="-226.5" font-family="Helvetica,sans-Serif" font-size="10.00" fill="#000000">Ioss_DataSize.h</text>
</a>
</g>
</g>
<!-- Node12&#45;&gt;Node15 -->
<g id="edge18" class="edge">
<title>Node12&#45;&gt;Node15</title>
<path fill="none" stroke="#191970" d="M979.3403,-275.4179C961.2658,-266.6205 933.6292,-253.1691 912.9328,-243.0956"/>
<polygon fill="#191970" stroke="#191970" points="914.2106,-239.825 903.6874,-238.5956 911.1471,-246.1191 914.2106,-239.825"/>
</g>
<!-- Node16 -->
<g id="node17" class="node">
<title>Node16</title>
<g id="a_node17"><a xlink:href="$Ioss__Map_8h.html" xlink:title="Ioss_Map.h">
<polygon fill="#ffffff" stroke="#000000" points="1505.1528,-110.5 1505.1528,-128.5 1572.8472,-128.5 1572.8472,-110.5 1505.1528,-110.5"/>
<text text-anchor="middle" x="1539" y="-116.5" font-family="Helvetica,sans-Serif" font-size="10.00" fill="#000000">Ioss_Map.h</text>
</a>
</g>
</g>
<!-- Node12&#45;&gt;Node16 -->
<g id="edge20" class="edge">
<title>Node12&#45;&gt;Node16</title>
<path fill="none" stroke="#191970" d="M1048.9831,-281.7189C1138.7359,-276.2805 1321.0359,-262.6556 1380,-239 1439.5398,-215.1134 1496.4003,-162.9613 1523.1135,-136.1486"/>
<polygon fill="#191970" stroke="#191970" points="1525.9108,-138.2944 1530.4055,-128.7003 1520.9088,-133.3974 1525.9108,-138.2944"/>
</g>
<!-- Node17 -->
<g id="node18" class="node">
<title>Node17</title>
<polygon fill="#ffffff" stroke="#bfbfbf" points="1610.6084,-55.5 1610.6084,-73.5 1649.3916,-73.5 1649.3916,-55.5 1610.6084,-55.5"/>
<text text-anchor="middle" x="1630" y="-61.5" font-family="Helvetica,sans-Serif" font-size="10.00" fill="#000000">utility</text>
</g>
<!-- Node12&#45;&gt;Node17 -->
<g id="edge62" class="edge">
<title>Node12&#45;&gt;Node17</title>
<path fill="none" stroke="#191970" d="M1048.8667,-281.271C1144.1755,-274.8341 1346.0558,-259.2628 1413,-239 1505.289,-211.0658 1537.5269,-202.4486 1600,-129 1611.3646,-115.6388 1619.3533,-97.2495 1624.2138,-83.5241"/>
<polygon fill="#191970" stroke="#191970" points="1627.6448,-84.2946 1627.4459,-73.7016 1620.9955,-82.1066 1627.6448,-84.2946"/>
</g>
<!-- Node18 -->
<g id="node19" class="node">
<title>Node18</title>
<g id="a_node19"><a xlink:href="$Ioss__ParallelUtils_8h.html" xlink:title="Ioss_ParallelUtils.h">
<polygon fill="#ffffff" stroke="#000000" points="1269.4829,-220.5 1269.4829,-238.5 1370.5171,-238.5 1370.5171,-220.5 1269.4829,-220.5"/>
<text text-anchor="middle" x="1320" y="-226.5" font-family="Helvetica,sans-Serif" font-size="10.00" fill="#000000">Ioss_ParallelUtils.h</text>
</a>
</g>
</g>
<!-- Node12&#45;&gt;Node18 -->
<g id="edge27" class="edge">
<title>Node12&#45;&gt;Node18</title>
<path fill="none" stroke="#191970" d="M1049.0219,-275.7851C1106.1021,-266.0354 1198.5106,-250.2513 1259.2682,-239.8734"/>
<polygon fill="#191970" stroke="#191970" points="1260.2142,-243.2626 1269.4821,-238.1288 1259.0356,-236.3626 1260.2142,-243.2626"/>
</g>
<!-- Node12&#45;&gt;Node26 -->
<g id="edge49" class="edge">
<title>Node12&#45;&gt;Node26</title>
<path fill="none" stroke="#191970" d="M946.8621,-281.44C845.1985,-274.9628 625.0313,-258.822 597,-239 567.1377,-217.8832 585.3038,-192.3314 561,-165 549.4595,-152.0219 533.3691,-141.3016 519.4235,-133.5333"/>
<polygon fill="#191970" stroke="#191970" points="520.6677,-130.2313 510.1937,-128.6354 517.3864,-136.4146 520.6677,-130.2313"/>
</g>
<!-- Node12&#45;&gt;Node28 -->
<g id="edge56" class="edge">
<title>Node12&#45;&gt;Node28</title>
<path fill="none" stroke="#191970" d="M1049.0238,-282.588C1153.1609,-278.2592 1397.5272,-265.9198 1601,-239 1602.2811,-238.8305 1603.579,-238.6494 1604.8876,-238.4585"/>
<polygon fill="#191970" stroke="#191970" points="1605.7071,-241.872 1615.0282,-236.8353 1604.6007,-234.9599 1605.7071,-241.872"/>
</g>
<!-- Node29 -->
<g id="node30" class="node">
<title>Node29</title>
<g id="a_node30"><a xlink:href="$Ioss__SurfaceSplit_8h.html" xlink:title="Ioss_SurfaceSplit.h">
<polygon fill="#ffffff" stroke="#000000" points="946.9214,-220.5 946.9214,-238.5 1049.0786,-238.5 1049.0786,-220.5 946.9214,-220.5"/>
<text text-anchor="middle" x="998" y="-226.5" font-family="Helvetica,sans-Serif" font-size="10.00" fill="#000000">Ioss_SurfaceSplit.h</text>
</a>
</g>
</g>
<!-- Node12&#45;&gt;Node29 -->
<g id="edge57" class="edge">
<title>Node12&#45;&gt;Node29</title>
<path fill="none" stroke="#191970" d="M998,-275.4179C998,-268.2164 998,-257.8962 998,-248.8632"/>
<polygon fill="#191970" stroke="#191970" points="1001.5001,-248.7794 998,-238.7795 994.5001,-248.7795 1001.5001,-248.7794"/>
</g>
<!-- Node30 -->
<g id="node31" class="node">
<title>Node30</title>
<polygon fill="#ffffff" stroke="#bfbfbf" points="262.2734,-165.5 262.2734,-183.5 297.7266,-183.5 297.7266,-165.5 262.2734,-165.5"/>
<text text-anchor="middle" x="280" y="-171.5" font-family="Helvetica,sans-Serif" font-size="10.00" fill="#000000">map</text>
</g>
<!-- Node12&#45;&gt;Node30 -->
<g id="edge60" class="edge">
<title>Node12&#45;&gt;Node30</title>
<path fill="none" stroke="#191970" d="M946.8061,-283.4161C820.9807,-280.3055 499.4096,-269.5263 397,-239 377.9281,-233.315 331.8534,-206.2699 303.5464,-189.0553"/>
<polygon fill="#191970" stroke="#191970" points="305.0494,-185.8718 294.6925,-183.6392 301.3966,-191.8432 305.0494,-185.8718"/>
</g>
<!-- Node16&#45;&gt;Node3 -->
<g id="edge23" class="edge">
<title>Node16&#45;&gt;Node3</title>
<path fill="none" stroke="#191970" d="M1507.6327,-110.4718C1456.4727,-96.1447 1351.6677,-68.4504 1261,-55 1026.324,-20.1862 959.385,-61.3714 722.4873,-18.8806"/>
<polygon fill="#191970" stroke="#191970" points="723.0031,-15.417 712.5372,-17.065 721.7465,-22.3033 723.0031,-15.417"/>
</g>
<!-- Node16&#45;&gt;Node4 -->
<g id="edge24" class="edge">
<title>Node16&#45;&gt;Node4</title>
<path fill="none" stroke="#191970" d="M1504.981,-112.3531C1500.2959,-111.4901 1495.5372,-110.6764 1491,-110 1090.1741,-50.2473 597.6952,-18.6998 471.5518,-11.2454"/>
<polygon fill="#191970" stroke="#191970" points="471.6546,-7.7455 461.4671,-10.6549 471.2454,-14.7335 471.6546,-7.7455"/>
</g>
<!-- Node16&#45;&gt;Node6 -->
<g id="edge21" class="edge">
<title>Node16&#45;&gt;Node6</title>
<path fill="none" stroke="#191970" d="M1504.9962,-112.246C1500.3088,-111.3996 1495.5453,-110.619 1491,-110 1292.9789,-83.0325 1056.0357,-71.0124 947.5461,-66.6212"/>
<polygon fill="#191970" stroke="#191970" points="947.585,-63.1201 937.4538,-66.2198 947.3067,-70.1146 947.585,-63.1201"/>
</g>
<!-- Node16&#45;&gt;Node8 -->
<g id="edge22" class="edge">
<title>Node16&#45;&gt;Node8</title>
<path fill="none" stroke="#191970" d="M1545.8149,-110.4205C1556.4719,-96.7634 1578.3271,-70.8495 1602,-55 1626.3401,-38.7037 1657.4194,-26.7225 1680.821,-19.1574"/>
<polygon fill="#191970" stroke="#191970" points="1682.1545,-22.4079 1690.659,-16.0893 1680.0704,-15.7253 1682.1545,-22.4079"/>
</g>
<!-- Node16&#45;&gt;Node9 -->
<g id="edge26" class="edge">
<title>Node16&#45;&gt;Node9</title>
<path fill="none" stroke="#191970" d="M1527.5146,-110.4605C1511.2084,-97.7254 1480.2916,-73.9412 1453,-55 1437.4113,-44.181 1419.4081,-32.6542 1405.4311,-23.9095"/>
<polygon fill="#191970" stroke="#191970" points="1407.2337,-20.9089 1396.8935,-18.6001 1403.537,-26.8532 1407.2337,-20.9089"/>
</g>
<!-- Node16&#45;&gt;Node17 -->
<g id="edge25" class="edge">
<title>Node16&#45;&gt;Node17</title>
<path fill="none" stroke="#191970" d="M1554.0268,-110.4179C1568.2531,-101.8195 1589.8353,-88.7754 1606.3658,-78.7844"/>
<polygon fill="#191970" stroke="#191970" points="1608.203,-81.7637 1614.9509,-73.5956 1604.5822,-75.7729 1608.203,-81.7637"/>
</g>
<!-- Node18&#45;&gt;Node4 -->
<g id="edge47" class="edge">
<title>Node18&#45;&gt;Node4</title>
<path fill="none" stroke="#191970" d="M1269.1305,-220.973C1139.9985,-199.2484 806.2334,-142.5778 757,-129 648.4541,-99.0648 525.0035,-46.8259 470.0425,-22.5682"/>
<polygon fill="#191970" stroke="#191970" points="471.4616,-19.3689 460.9014,-18.5123 468.6226,-25.7673 471.4616,-19.3689"/>
</g>
<!-- Node18&#45;&gt;Node6 -->
<g id="edge28" class="edge">
<title>Node18&#45;&gt;Node6</title>
<path fill="none" stroke="#191970" d="M1318.1295,-220.41C1312.8939,-197.5004 1295.7901,-137.2838 1256,-110 1231.1302,-92.9469 1045.5302,-76.4824 947.8029,-68.8802"/>
<polygon fill="#191970" stroke="#191970" points="948.008,-65.3857 937.7686,-68.1067 947.47,-72.365 948.008,-65.3857"/>
</g>
<!-- Node18&#45;&gt;Node8 -->
<g id="edge46" class="edge">
<title>Node18&#45;&gt;Node8</title>
<path fill="none" stroke="#191970" d="M1370.6067,-226.268C1430.1951,-221.4242 1531.6147,-209.9104 1615,-184 1668.7214,-167.3071 1686.2597,-165.5775 1729,-129 1757.0896,-104.9607 1782.2773,-88.6677 1767,-55 1761.3461,-42.54 1750.4074,-32.1506 1740.0156,-24.4602"/>
<polygon fill="#191970" stroke="#191970" points="1741.7695,-21.4191 1731.5432,-18.6489 1737.81,-27.1916 1741.7695,-21.4191"/>
</g>
<!-- Node18&#45;&gt;Node9 -->
<g id="edge48" class="edge">
<title>Node18&#45;&gt;Node9</title>
<path fill="none" stroke="#191970" d="M1358.2972,-220.4443C1424.5064,-203.928 1555.8156,-167.0887 1582,-129 1627.676,-62.5581 1480.9592,-27.1335 1413.7716,-14.7067"/>
<polygon fill="#191970" stroke="#191970" points="1414.1728,-11.223 1403.7129,-12.9085 1412.9409,-18.1137 1414.1728,-11.223"/>
</g>
<!-- Node19 -->
<g id="node20" class="node">
<title>Node19</title>
<g id="a_node20"><a xlink:href="$Ioss__Utils_8h.html" xlink:title="Ioss_Utils.h">
<polygon fill="#ffffff" stroke="#000000" points="1087.1577,-165.5 1087.1577,-183.5 1154.8423,-183.5 1154.8423,-165.5 1087.1577,-165.5"/>
<text text-anchor="middle" x="1121" y="-171.5" font-family="Helvetica,sans-Serif" font-size="10.00" fill="#000000">Ioss_Utils.h</text>
</a>
</g>
</g>
<!-- Node18&#45;&gt;Node19 -->
<g id="edge29" class="edge">
<title>Node18&#45;&gt;Node19</title>
<path fill="none" stroke="#191970" d="M1287.1392,-220.4179C1253.3354,-211.0751 1200.54,-196.4834 1163.5606,-186.263"/>
<polygon fill="#191970" stroke="#191970" points="1164.1499,-182.7947 1153.5789,-183.5042 1162.2851,-189.5418 1164.1499,-182.7947"/>
</g>
<!-- Node22 -->
<g id="node23" class="node">
<title>Node22</title>
<polygon fill="#ffffff" stroke="#bfbfbf" points="1198.8843,-110.5 1198.8843,-128.5 1247.1157,-128.5 1247.1157,-110.5 1198.8843,-110.5"/>
<text text-anchor="middle" x="1223" y="-116.5" font-family="Helvetica,sans-Serif" font-size="10.00" fill="#000000">cassert</text>
</g>
<!-- Node18&#45;&gt;Node22 -->
<g id="edge45" class="edge">
<title>Node18&#45;&gt;Node22</title>
<path fill="none" stroke="#191970" d="M1312.0621,-220.4982C1295.8623,-202.1273 1258.7682,-160.0619 1237.9233,-136.4233"/>
<polygon fill="#191970" stroke="#191970" points="1240.2867,-133.8116 1231.0476,-128.6261 1235.0365,-138.4414 1240.2867,-133.8116"/>
</g>
<!-- Node19&#45;&gt;Node3 -->
<g id="edge39" class="edge">
<title>Node19&#45;&gt;Node3</title>
<path fill="none" stroke="#191970" d="M1086.7266,-170.6024C1024.6841,-163.2242 896.3518,-146.3913 855,-129 794.4646,-103.5406 734.9442,-52.1508 706.8101,-25.8367"/>
<polygon fill="#191970" stroke="#191970" points="709.0874,-23.1727 699.4252,-18.8262 704.268,-28.2494 709.0874,-23.1727"/>
</g>
<!-- Node19&#45;&gt;Node4 -->
<g id="edge43" class="edge">
<title>Node19&#45;&gt;Node4</title>
<path fill="none" stroke="#191970" d="M1086.9553,-172.0812C1029.8807,-167.4425 911.6461,-155.3257 815,-129 730.3528,-105.9427 715.5745,-81.6851 632,-55 576.198,-37.1826 509.248,-22.7835 471.2606,-15.2419"/>
<polygon fill="#191970" stroke="#191970" points="471.834,-11.7878 461.3476,-13.2995 470.4879,-18.6571 471.834,-11.7878"/>
</g>
<!-- Node19&#45;&gt;Node6 -->
<g id="edge30" class="edge">
<title>Node19&#45;&gt;Node6</title>
<path fill="none" stroke="#191970" d="M1086.7118,-173.6373C1023.5946,-171.2483 892.9052,-162.3023 865,-129 853.6182,-115.4169 863.2891,-95.7836 873.3547,-81.7512"/>
<polygon fill="#191970" stroke="#191970" points="876.1259,-83.8891 879.4883,-73.842 870.5943,-79.5993 876.1259,-83.8891"/>
</g>
<!-- Node19&#45;&gt;Node8 -->
<g id="edge38" class="edge">
<title>Node19&#45;&gt;Node8</title>
<path fill="none" stroke="#191970" d="M1154.9602,-173.4403C1247.7258,-170.1847 1503.6984,-158.6888 1582,-129 1635.9529,-108.5432 1681.6762,-54.7902 1702.6756,-26.8795"/>
<polygon fill="#191970" stroke="#191970" points="1705.5095,-28.9335 1708.6039,-18.8005 1699.866,-24.7922 1705.5095,-28.9335"/>
</g>
<!-- Node19&#45;&gt;Node9 -->
<g id="edge44" class="edge">
<title>Node19&#45;&gt;Node9</title>
<path fill="none" stroke="#191970" d="M1129.9624,-165.2595C1142.7451,-152.2855 1167.196,-128.2193 1190,-110 1223.9966,-82.8383 1232.6622,-75.5851 1271,-55 1296.8939,-41.0965 1327.9693,-28.6955 1350.6455,-20.3653"/>
<polygon fill="#191970" stroke="#191970" points="1351.9013,-23.633 1360.1167,-16.9429 1349.5224,-17.0497 1351.9013,-23.633"/>
</g>
<!-- Node19&#45;&gt;Node20 -->
<g id="edge31" class="edge">
<title>Node19&#45;&gt;Node20</title>
<path fill="none" stroke="#191970" d="M1154.862,-167.1964C1200.1105,-157.4369 1280.4259,-140.114 1330.8037,-129.2482"/>
<polygon fill="#191970" stroke="#191970" points="1331.731,-132.6288 1340.7682,-127.099 1330.2551,-125.7861 1331.731,-132.6288"/>
</g>
<!-- Node21 -->
<g id="node22" class="node">
<title>Node21</title>
<polygon fill="#ffffff" stroke="#bfbfbf" points="1023.436,-110.5 1023.436,-128.5 1080.564,-128.5 1080.564,-110.5 1023.436,-110.5"/>
<text text-anchor="middle" x="1052" y="-116.5" font-family="Helvetica,sans-Serif" font-size="10.00" fill="#000000">algorithm</text>
</g>
<!-- Node19&#45;&gt;Node21 -->
<g id="edge36" class="edge">
<title>Node19&#45;&gt;Node21</title>
<path fill="none" stroke="#191970" d="M1109.6061,-165.4179C1099.2808,-157.1876 1083.8453,-144.8839 1071.5503,-135.0836"/>
<polygon fill="#191970" stroke="#191970" points="1073.6429,-132.2757 1063.6415,-128.7795 1069.2796,-137.7495 1073.6429,-132.2757"/>
</g>
<!-- Node19&#45;&gt;Node22 -->
<g id="edge37" class="edge">
<title>Node19&#45;&gt;Node22</title>
<path fill="none" stroke="#191970" d="M1137.8432,-165.4179C1154.0107,-156.7001 1178.6538,-143.4122 1197.2776,-133.3699"/>
<polygon fill="#191970" stroke="#191970" points="1198.991,-136.4225 1206.1318,-128.5956 1195.6686,-130.2611 1198.991,-136.4225"/>
</g>
<!-- Node23 -->
<g id="node24" class="node">
<title>Node23</title>
<polygon fill="#ffffff" stroke="#bfbfbf" points="1098.8276,-110.5 1098.8276,-128.5 1143.1724,-128.5 1143.1724,-110.5 1098.8276,-110.5"/>
<text text-anchor="middle" x="1121" y="-116.5" font-family="Helvetica,sans-Serif" font-size="10.00" fill="#000000">cstdlib</text>
</g>
<!-- Node19&#45;&gt;Node23 -->
<g id="edge40" class="edge">
<title>Node19&#45;&gt;Node23</title>
<path fill="none" stroke="#191970" d="M1121,-165.4179C1121,-158.2164 1121,-147.8962 1121,-138.8632"/>
<polygon fill="#191970" stroke="#191970" points="1124.5001,-138.7794 1121,-128.7795 1117.5001,-138.7795 1124.5001,-138.7794"/>
</g>
<!-- Node24 -->
<g id="node25" class="node">
<title>Node24</title>
<polygon fill="#ffffff" stroke="#bfbfbf" points="873.8276,-110.5 873.8276,-128.5 928.1724,-128.5 928.1724,-110.5 873.8276,-110.5"/>
<text text-anchor="middle" x="901" y="-116.5" font-family="Helvetica,sans-Serif" font-size="10.00" fill="#000000">iostream</text>
</g>
<!-- Node19&#45;&gt;Node24 -->
<g id="edge41" class="edge">
<title>Node19&#45;&gt;Node24</title>
<path fill="none" stroke="#191970" d="M1086.9156,-166.1079C1052.0876,-157.5145 996.1851,-143.6712 938.1773,-129.0305"/>
<polygon fill="#191970" stroke="#191970" points="939.0258,-125.635 928.4731,-126.5787 937.311,-132.4217 939.0258,-125.635"/>
</g>
<!-- Node25 -->
<g id="node26" class="node">
<title>Node25</title>
<polygon fill="#ffffff" stroke="#bfbfbf" points="946.5986,-110.5 946.5986,-128.5 1005.4014,-128.5 1005.4014,-110.5 946.5986,-110.5"/>
<text text-anchor="middle" x="976" y="-116.5" font-family="Helvetica,sans-Serif" font-size="10.00" fill="#000000">stdexcept</text>
</g>
<!-- Node19&#45;&gt;Node25 -->
<g id="edge42" class="edge">
<title>Node19&#45;&gt;Node25</title>
<path fill="none" stroke="#191970" d="M1097.0562,-165.4179C1073.1285,-156.3419 1036.1415,-142.3123 1009.3469,-132.1488"/>
<polygon fill="#191970" stroke="#191970" points="1010.5707,-128.8697 999.9794,-128.5956 1008.088,-135.4147 1010.5707,-128.8697"/>
</g>
<!-- Node20&#45;&gt;Node4 -->
<g id="edge34" class="edge">
<title>Node20&#45;&gt;Node4</title>
<path fill="none" stroke="#191970" d="M1340.8311,-116.6485C1224.096,-107.1731 855.3976,-77.1585 830,-74 695.8281,-57.3139 537.1447,-27.9831 471.6327,-15.4502"/>
<polygon fill="#191970" stroke="#191970" points="472.0589,-11.9682 461.5781,-13.5184 470.7381,-18.8424 472.0589,-11.9682"/>
</g>
<!-- Node20&#45;&gt;Node6 -->
<g id="edge32" class="edge">
<title>Node20&#45;&gt;Node6</title>
<path fill="none" stroke="#191970" d="M1341.0007,-112.3253C1336.3049,-111.4768 1331.5428,-110.6745 1327,-110 1192.0337,-89.9622 1032.4194,-75.7854 947.7513,-69.0113"/>
<polygon fill="#191970" stroke="#191970" points="947.8009,-65.5043 937.5554,-68.2024 947.2472,-72.4824 947.8009,-65.5043"/>
</g>
<!-- Node20&#45;&gt;Node8 -->
<g id="edge33" class="edge">
<title>Node20&#45;&gt;Node8</title>
<path fill="none" stroke="#191970" d="M1403.7418,-110.4982C1465.4098,-90.488 1613.7139,-42.3657 1680.8989,-20.5653"/>
<polygon fill="#191970" stroke="#191970" points="1682.1501,-23.839 1690.5816,-17.4234 1679.9896,-17.1807 1682.1501,-23.839"/>
</g>
<!-- Node20&#45;&gt;Node9 -->
<g id="edge35" class="edge">
<title>Node20&#45;&gt;Node9</title>
<path fill="none" stroke="#191970" d="M1376.491,-110.4982C1377.4623,-92.6913 1379.6479,-52.6225 1380.9554,-28.6515"/>
<polygon fill="#191970" stroke="#191970" points="1384.4523,-28.802 1381.5022,-18.6261 1377.4627,-28.4206 1384.4523,-28.802"/>
</g>
<!-- Node26&#45;&gt;Node2 -->
<g id="edge51" class="edge">
<title>Node26&#45;&gt;Node2</title>
<path fill="none" stroke="#191970" d="M446.2094,-110.4795C399.5658,-100.8712 325.7289,-85.6614 275.8755,-75.392"/>
<polygon fill="#191970" stroke="#191970" points="276.4305,-71.9329 265.93,-73.3433 275.0182,-78.7889 276.4305,-71.9329"/>
</g>
<!-- Node26&#45;&gt;Node4 -->
<g id="edge53" class="edge">
<title>Node26&#45;&gt;Node4</title>
<path fill="none" stroke="#191970" d="M492.9621,-110.2459C496.5741,-97.2559 501.2453,-73.1706 493,-55 487.3461,-42.54 476.4074,-32.1506 466.0156,-24.4602"/>
<polygon fill="#191970" stroke="#191970" points="467.7695,-21.4191 457.5432,-18.6489 463.81,-27.1916 467.7695,-21.4191"/>
</g>
<!-- Node26&#45;&gt;Node6 -->
<g id="edge50" class="edge">
<title>Node26&#45;&gt;Node6</title>
<path fill="none" stroke="#191970" d="M552.6253,-110.8457C628.1021,-100.4155 754.0097,-83.0162 828.2007,-72.7637"/>
<polygon fill="#191970" stroke="#191970" points="828.8887,-76.202 838.3155,-71.366 827.9305,-69.2679 828.8887,-76.202"/>
</g>
<!-- Node26&#45;&gt;Node8 -->
<g id="edge52" class="edge">
<title>Node26&#45;&gt;Node8</title>
<path fill="none" stroke="#191970" d="M552.8563,-113.8558C774.1565,-93.9839 1512.9331,-27.6448 1680.8464,-12.5669"/>
<polygon fill="#191970" stroke="#191970" points="1681.2045,-16.0489 1690.8514,-11.6684 1680.5784,-9.0769 1681.2045,-16.0489"/>
</g>
<!-- Node26&#45;&gt;Node9 -->
<g id="edge55" class="edge">
<title>Node26&#45;&gt;Node9</title>
<path fill="none" stroke="#191970" d="M530.0765,-110.4772C593.4307,-96.5358 720.7532,-69.823 830,-55 1026.9176,-28.2816 1265.6339,-15.0494 1350.335,-10.9415"/>
<polygon fill="#191970" stroke="#191970" points="1350.5206,-14.4367 1360.3425,-10.4641 1350.187,-7.4446 1350.5206,-14.4367"/>
</g>
<!-- Node27 -->
<g id="node28" class="node">
<title>Node27</title>
<polygon fill="#ffffff" stroke="#bfbfbf" points="397.6973,-55.5 397.6973,-73.5 484.3027,-73.5 484.3027,-55.5 397.6973,-55.5"/>
<text text-anchor="middle" x="441" y="-61.5" font-family="Helvetica,sans-Serif" font-size="10.00" fill="#000000">unordered_map</text>
</g>
<!-- Node26&#45;&gt;Node27 -->
<g id="edge54" class="edge">
<title>Node26&#45;&gt;Node27</title>
<path fill="none" stroke="#191970" d="M481.9086,-110.4179C474.9287,-102.5833 464.6603,-91.0575 456.1577,-81.5137"/>
<polygon fill="#191970" stroke="#191970" points="458.5326,-78.9178 449.2672,-73.7795 453.3059,-83.5743 458.5326,-78.9178"/>
</g>
<!-- Node31&#45;&gt;Node4 -->
<g id="edge72" class="edge">
<title>Node31&#45;&gt;Node4</title>
<path fill="none" stroke="#191970" d="M1142.5578,-225.697C996.8389,-215.4774 608.0389,-187.9267 595,-184 578.4248,-179.0083 577.1323,-171.2771 561,-165 496.3007,-139.8255 460.8585,-175.1567 409,-129 383.5513,-106.3493 374.9222,-86.0243 389,-55 394.6539,-42.54 405.5926,-32.1506 415.9844,-24.4602"/>
<polygon fill="#191970" stroke="#191970" points="418.19,-27.1916 424.4568,-18.6489 414.2305,-21.4191 418.19,-27.1916"/>
</g>
<!-- Node31&#45;&gt;Node6 -->
<g id="edge67" class="edge">
<title>Node31&#45;&gt;Node6</title>
<path fill="none" stroke="#191970" d="M1142.36,-221.4591C1054.8423,-207.3385 889.532,-175.1396 855,-129 843.7853,-114.0156 856.7561,-94.6597 869.586,-81.0763"/>
<polygon fill="#191970" stroke="#191970" points="872.2785,-83.3367 876.9399,-73.8224 867.3627,-78.3532 872.2785,-83.3367"/>
</g>
<!-- Node31&#45;&gt;Node8 -->
<g id="edge70" class="edge">
<title>Node31&#45;&gt;Node8</title>
<path fill="none" stroke="#191970" d="M1244.9828,-220.47C1339.5896,-202.2454 1546.6764,-160.15 1612,-129 1648.3472,-111.6676 1658.5782,-105.2292 1684,-74 1695.1402,-60.3149 1703.4613,-41.9611 1708.6622,-28.3315"/>
<polygon fill="#191970" stroke="#191970" points="1712.0736,-29.1876 1712.1586,-18.5931 1705.4853,-26.8222 1712.0736,-29.1876"/>
</g>
<!-- Node31&#45;&gt;Node9 -->
<g id="edge74" class="edge">
<title>Node31&#45;&gt;Node9</title>
<path fill="none" stroke="#191970" d="M1227.4622,-220.4796C1283.4456,-203.195 1398.9098,-164.0113 1420,-129 1439.9216,-95.9286 1414.0056,-51.3294 1396.1995,-27.0451"/>
<polygon fill="#191970" stroke="#191970" points="1398.7435,-24.6104 1389.8847,-18.799 1393.1859,-28.8664 1398.7435,-24.6104"/>
</g>
<!-- Node31&#45;&gt;Node19 -->
<g id="edge69" class="edge">
<title>Node31&#45;&gt;Node19</title>
<path fill="none" stroke="#191970" d="M1184.4501,-220.4179C1172.8989,-212.0584 1155.5408,-199.4966 1141.8985,-189.6239"/>
<polygon fill="#191970" stroke="#191970" points="1143.7216,-186.6229 1133.5685,-183.5956 1139.6177,-192.2938 1143.7216,-186.6229"/>
</g>
<!-- Node31&#45;&gt;Node20 -->
<g id="edge68" class="edge">
<title>Node31&#45;&gt;Node20</title>
<path fill="none" stroke="#191970" d="M1218.0261,-220.402C1237.0494,-211.8694 1265.5862,-198.3109 1289,-184 1313.5909,-168.9697 1339.9241,-148.8146 1357.0971,-135.0602"/>
<polygon fill="#191970" stroke="#191970" points="1359.6153,-137.5248 1365.1848,-128.512 1355.2104,-132.0844 1359.6153,-137.5248"/>
</g>
<!-- Node31&#45;&gt;Node27 -->
<g id="edge73" class="edge">
<title>Node31&#45;&gt;Node27</title>
<path fill="none" stroke="#191970" d="M1142.3473,-224.4569C969.1694,-208.2162 442.5675,-156.7256 419,-129 407.6855,-115.6893 416.7419,-96.2756 426.4342,-82.2273"/>
<polygon fill="#191970" stroke="#191970" points="429.4881,-83.9887 432.6875,-73.8885 423.8878,-79.789 429.4881,-83.9887"/>
</g>
<!-- Node32 -->
<g id="node33" class="node">
<title>Node32</title>
<polygon fill="#ffffff" stroke="#bfbfbf" points="493.5962,-165.5 493.5962,-183.5 552.4038,-183.5 552.4038,-165.5 493.5962,-165.5"/>
<text text-anchor="middle" x="523" y="-171.5" font-family="Helvetica,sans-Serif" font-size="10.00" fill="#000000">functional</text>
</g>
<!-- Node31&#45;&gt;Node32 -->
<g id="edge71" class="edge">
<title>Node31&#45;&gt;Node32</title>
<path fill="none" stroke="#191970" d="M1142.5497,-225.7901C994.5949,-215.6805 594.3091,-188.1254 566,-184 564.903,-183.8401 563.7924,-183.6679 562.6731,-183.4852"/>
<polygon fill="#191970" stroke="#191970" points="562.9727,-179.9816 552.5039,-181.6105 561.7036,-186.8656 562.9727,-179.9816"/>
</g>
<!-- Node33&#45;&gt;Node4 -->
<g id="edge83" class="edge">
<title>Node33&#45;&gt;Node4</title>
<path fill="none" stroke="#191970" d="M432.129,-220.3615C408.6325,-212.0005 373.853,-198.7199 345,-184 324.6256,-173.6056 182.0364,-94.0339 171,-74 166.9254,-66.6036 165.5475,-61.4482 171,-55 186.3686,-36.8249 342.9547,-19.2386 410.3843,-12.4447"/>
<polygon fill="#191970" stroke="#191970" points="410.8009,-15.9206 420.4056,-11.4485 410.1084,-8.955 410.8009,-15.9206"/>
</g>
<!-- Node33&#45;&gt;Node6 -->
<g id="edge79" class="edge">
<title>Node33&#45;&gt;Node6</title>
<path fill="none" stroke="#191970" d="M460.1616,-220.1259C462.4031,-206.0839 468.6443,-179.6743 485,-165 510.9063,-141.7569 726.9595,-96.4093 831.6133,-75.5194"/>
<polygon fill="#191970" stroke="#191970" points="832.5614,-78.8994 841.6864,-73.5156 831.1956,-72.034 832.5614,-78.8994"/>
</g>
<!-- Node33&#45;&gt;Node9 -->
<g id="edge84" class="edge">
<title>Node33&#45;&gt;Node9</title>
<path fill="none" stroke="#191970" d="M512.0761,-225.7799C537.7292,-223.9988 568.9637,-221.855 597,-220 722.9783,-211.6645 1043.4268,-221.4448 1164,-184 1256.581,-155.2484 1337.5418,-64.9411 1368.5469,-26.7869"/>
<polygon fill="#191970" stroke="#191970" points="1371.5188,-28.6741 1375.0209,-18.6748 1366.0475,-24.3077 1371.5188,-28.6741"/>
</g>
<!-- Node33&#45;&gt;Node30 -->
<g id="edge82" class="edge">
<title>Node33&#45;&gt;Node30</title>
<path fill="none" stroke="#191970" d="M429.4418,-220.4179C395.7515,-210.0661 341.0892,-193.2704 308.0434,-183.1167"/>
<polygon fill="#191970" stroke="#191970" points="308.7147,-179.6615 298.1278,-180.07 306.6587,-186.3528 308.7147,-179.6615"/>
</g>
<!-- Node33&#45;&gt;Node32 -->
<g id="edge81" class="edge">
<title>Node33&#45;&gt;Node32</title>
<path fill="none" stroke="#191970" d="M469.5683,-220.4179C479.0533,-212.2667 493.1875,-200.1201 504.5366,-190.3669"/>
<polygon fill="#191970" stroke="#191970" points="506.8991,-192.9516 512.2021,-183.7795 502.3367,-187.6427 506.8991,-192.9516"/>
</g>
<!-- Node34 -->
<g id="node35" class="node">
<title>Node34</title>
<polygon fill="#ffffff" stroke="#bfbfbf" points="354.2734,-165.5 354.2734,-183.5 399.7266,-183.5 399.7266,-165.5 354.2734,-165.5"/>
<text text-anchor="middle" x="377" y="-171.5" font-family="Helvetica,sans-Serif" font-size="10.00" fill="#000000">cstring</text>
</g>
<!-- Node33&#45;&gt;Node34 -->
<g id="edge80" class="edge">
<title>Node33&#45;&gt;Node34</title>
<path fill="none" stroke="#191970" d="M445.4594,-220.4179C432.8774,-211.9788 413.9104,-199.257 399.1289,-189.3426"/>
<polygon fill="#191970" stroke="#191970" points="400.8153,-186.2593 390.5607,-183.5956 396.916,-192.0727 400.8153,-186.2593"/>
</g>
</g>
</svg>
