<?xml version="1.0" encoding="UTF-8" standalone="no"?>
<!DOCTYPE svg PUBLIC "-//W3C//DTD SVG 1.1//EN"
 "http://www.w3.org/Graphics/SVG/1.1/DTD/svg11.dtd">
<!-- Generated by graphviz version 2.40.1 (20161225.0304)
 -->
<!-- Title: src/exodus/Ioex_Utils.C Pages: 1 -->
<!--zoomable 577 -->
<svg id="main" version="1.1" xmlns="http://www.w3.org/2000/svg" xmlns:xlink="http://www.w3.org/1999/xlink" xml:space="preserve" onload="init(evt)">
<style type="text/css"><![CDATA[
.edge:hover path { stroke: red; }
.edge:hover polygon { stroke: red; fill: red; }
]]></style>
<script type="text/javascript"><![CDATA[
var edges = document.getElementsByTagName('g');
if (edges && edges.length) {
  for (var i=0;i<edges.length;i++) {
    if (edges[i].id.substr(0,4)=='edge') {
      edges[i].setAttribute('class','edge');
    }
  }
}
]]></script>
        <defs>
                <circle id="rim" cx="0" cy="0" r="7"/>
                <circle id="rim2" cx="0" cy="0" r="3.5"/>
                <g id="zoomPlus">
                        <use xlink:href="#rim" fill="#404040">
                                <set attributeName="fill" to="#808080" begin="zoomplus.mouseover" end="zoomplus.mouseout"/>
                        </use>
                        <path d="M-4,0h8M0,-4v8" fill="none" stroke="white" stroke-width="1.5" pointer-events="none"/>
                </g>
                <g id="zoomMin">
                        <use xlink:href="#rim" fill="#404040">
                                <set attributeName="fill" to="#808080" begin="zoomminus.mouseover" end="zoomminus.mouseout"/>
                        </use>
                        <path d="M-4,0h8" fill="none" stroke="white" stroke-width="1.5" pointer-events="none"/>
                </g>
                <g id="dirArrow">
                        <path fill="none" stroke="white" stroke-width="1.5" d="M0,-3.0v7 M-2.5,-0.5L0,-3.0L2.5,-0.5"/>
                </g>
               <g id="resetDef">
                       <use xlink:href="#rim2" fill="#404040">
                               <set attributeName="fill" to="#808080" begin="reset.mouseover" end="reset.mouseout"/>
                       </use>
               </g>
        </defs>

<script type="text/javascript">
var viewWidth = 2872;
var viewHeight = 577;
var sectionId = 'dynsection-0';
</script>
<script xlink:href="svgpan.js"/>
<svg id="graph" class="graph">
<g id="viewport">
<title>src/exodus/Ioex_Utils.C</title>
<polygon fill="#ffffff" stroke="transparent" points="-4,4 -4,-573 2868.2958,-573 2868.2958,4 -4,4"/>
<!-- Node0 -->
<g id="node1" class="node">
<title>Node0</title>
<g id="a_node1"><a xlink:title=" ">
<polygon fill="#bfbfbf" stroke="#000000" points="2365.7763,-550.5 2365.7763,-568.5 2486.8153,-568.5 2486.8153,-550.5 2365.7763,-550.5"/>
<text text-anchor="middle" x="2426.2958" y="-556.5" font-family="Helvetica,sans-Serif" font-size="10.00" fill="#000000">src/exodus/Ioex_Utils.C</text>
</a>
</g>
</g>
<!-- Node1 -->
<g id="node2" class="node">
<title>Node1</title>
<g id="a_node2"><a xlink:href="Ioss__ElementTopology_8h.html" target="_top" xlink:title=" ">
<polygon fill="#ffffff" stroke="#000000" points="370.1869,-220.5 370.1869,-238.5 494.4047,-238.5 494.4047,-220.5 370.1869,-220.5"/>
<text text-anchor="middle" x="432.2958" y="-226.5" font-family="Helvetica,sans-Serif" font-size="10.00" fill="#000000">Ioss_ElementTopology.h</text>
</a>
</g>
</g>
<!-- Node0&#45;&gt;Node1 -->
<g id="edge1" class="edge">
<title>Node0&#45;&gt;Node1</title>
<path fill="none" stroke="#191970" d="M2365.5713,-558.3871C2081.3507,-552.8612 880.8208,-525.9166 512.2958,-459 429.1536,-443.9031 386.5585,-467.048 330.2958,-404 291.7922,-360.8529 307.1291,-316.6033 347.2958,-275 360.999,-260.8067 380.1025,-250.0378 396.7287,-242.5487"/>
<polygon fill="#191970" stroke="#191970" points="398.3493,-245.6625 406.1721,-238.5172 395.6009,-239.2247 398.3493,-245.6625"/>
</g>
<!-- Node11 -->
<g id="node12" class="node">
<title>Node11</title>
<g id="a_node12"><a xlink:href="Ioss__Region_8h.html" target="_top" xlink:title=" ">
<polygon fill="#ffffff" stroke="#000000" points="1091.3305,-385.5 1091.3305,-403.5 1171.2611,-403.5 1171.2611,-385.5 1091.3305,-385.5"/>
<text text-anchor="middle" x="1131.2958" y="-391.5" font-family="Helvetica,sans-Serif" font-size="10.00" fill="#000000">Ioss_Region.h</text>
</a>
</g>
</g>
<!-- Node0&#45;&gt;Node11 -->
<g id="edge13" class="edge">
<title>Node0&#45;&gt;Node11</title>
<path fill="none" stroke="#191970" d="M2365.6192,-558.021C2161.4226,-552.8711 1506.7701,-534.8966 1414.2958,-514 1314.0396,-491.3449 1204.3457,-435.0747 1156.2433,-408.6414"/>
<polygon fill="#191970" stroke="#191970" points="1157.6439,-405.4158 1147.2017,-403.6237 1154.2472,-411.5365 1157.6439,-405.4158"/>
</g>
<!-- Node21 -->
<g id="node22" class="node">
<title>Node21</title>
<g id="a_node22"><a xlink:href="Ioss__Utils_8h.html" target="_top" xlink:title=" ">
<polygon fill="#ffffff" stroke="#000000" points="2210.4535,-165.5 2210.4535,-183.5 2278.1381,-183.5 2278.1381,-165.5 2210.4535,-165.5"/>
<text text-anchor="middle" x="2244.2958" y="-171.5" font-family="Helvetica,sans-Serif" font-size="10.00" fill="#000000">Ioss_Utils.h</text>
</a>
</g>
</g>
<!-- Node0&#45;&gt;Node21 -->
<g id="edge112" class="edge">
<title>Node0&#45;&gt;Node21</title>
<path fill="none" stroke="#191970" d="M2436.5401,-550.418C2473.5685,-517.4987 2598.2958,-405.7759 2598.2958,-394.5 2598.2958,-394.5 2598.2958,-394.5 2598.2958,-284.5 2598.2958,-220.2972 2383.2661,-189.3537 2288.3851,-178.825"/>
<polygon fill="#191970" stroke="#191970" points="2288.5575,-175.3232 2278.2388,-177.7263 2287.8039,-182.2826 2288.5575,-175.3232"/>
</g>
<!-- Node23 -->
<g id="node24" class="node">
<title>Node23</title>
<g id="a_node24"><a xlink:title=" ">
<polygon fill="#ffffff" stroke="#bfbfbf" points="1363.7318,-110.5 1363.7318,-128.5 1420.8598,-128.5 1420.8598,-110.5 1363.7318,-110.5"/>
<text text-anchor="middle" x="1392.2958" y="-116.5" font-family="Helvetica,sans-Serif" font-size="10.00" fill="#000000">algorithm</text>
</a>
</g>
</g>
<!-- Node0&#45;&gt;Node23 -->
<g id="edge114" class="edge">
<title>Node0&#45;&gt;Node23</title>
<path fill="none" stroke="#191970" d="M2365.7418,-556.0223C2149.5165,-543.2096 1428.2958,-496.9186 1428.2958,-449.5 1428.2958,-449.5 1428.2958,-449.5 1428.2958,-284.5 1428.2958,-235.9166 1395.05,-231.5941 1385.2958,-184 1382.2174,-168.9795 1384.392,-151.6959 1387.1036,-138.8029"/>
<polygon fill="#191970" stroke="#191970" points="1390.581,-139.3103 1389.5062,-128.7701 1383.7735,-137.68 1390.581,-139.3103"/>
</g>
<!-- Node38 -->
<g id="node39" class="node">
<title>Node38</title>
<g id="a_node39"><a xlink:href="Ioss__VariableType_8h.html" target="_top" xlink:title=" ">
<polygon fill="#ffffff" stroke="#000000" points="2116.3568,-220.5 2116.3568,-238.5 2222.2348,-238.5 2222.2348,-220.5 2116.3568,-220.5"/>
<text text-anchor="middle" x="2169.2958" y="-226.5" font-family="Helvetica,sans-Serif" font-size="10.00" fill="#000000">Ioss_VariableType.h</text>
</a>
</g>
</g>
<!-- Node0&#45;&gt;Node38 -->
<g id="edge113" class="edge">
<title>Node0&#45;&gt;Node38</title>
<path fill="none" stroke="#191970" d="M2428.9377,-550.4647C2434.1583,-531.7854 2445.2958,-487.4848 2445.2958,-449.5 2445.2958,-449.5 2445.2958,-449.5 2445.2958,-339.5 2445.2958,-293.1252 2309.1342,-257.6287 2228.0856,-240.6075"/>
<polygon fill="#191970" stroke="#191970" points="2228.5049,-237.1203 2218.0037,-238.5255 2227.0892,-243.9757 2228.5049,-237.1203"/>
</g>
<!-- Node39 -->
<g id="node40" class="node">
<title>Node39</title>
<g id="a_node40"><a xlink:title=" ">
<polygon fill="#ffffff" stroke="#bfbfbf" points="2524.5692,-165.5 2524.5692,-183.5 2570.0223,-183.5 2570.0223,-165.5 2524.5692,-165.5"/>
<text text-anchor="middle" x="2547.2958" y="-171.5" font-family="Helvetica,sans-Serif" font-size="10.00" fill="#000000">cstring</text>
</a>
</g>
</g>
<!-- Node0&#45;&gt;Node39 -->
<g id="edge115" class="edge">
<title>Node0&#45;&gt;Node39</title>
<path fill="none" stroke="#191970" d="M2487.094,-553.3133C2562.0008,-545.0676 2681.0499,-529.6842 2694.2958,-514 2721.2023,-482.1404 2962.8034,-705.8871 2612.2958,-220 2602.8928,-206.9653 2588.5584,-196.3605 2575.7412,-188.6784"/>
<polygon fill="#191970" stroke="#191970" points="2577.1967,-185.4808 2566.7686,-183.6083 2573.7529,-191.5751 2577.1967,-185.4808"/>
</g>
<!-- Node42 -->
<g id="node43" class="node">
<title>Node42</title>
<g id="a_node43"><a xlink:href="Ioex__Utils_8h.html" target="_top" xlink:title=" ">
<polygon fill="#ffffff" stroke="#000000" points="2029.6605,-495.5 2029.6605,-513.5 2132.931,-513.5 2132.931,-495.5 2029.6605,-495.5"/>
<text text-anchor="middle" x="2081.2958" y="-501.5" font-family="Helvetica,sans-Serif" font-size="10.00" fill="#000000">exodus/Ioex_Utils.h</text>
</a>
</g>
</g>
<!-- Node0&#45;&gt;Node42 -->
<g id="edge116" class="edge">
<title>Node0&#45;&gt;Node42</title>
<path fill="none" stroke="#191970" d="M2369.7124,-550.4795C2307.3823,-540.5428 2207.4717,-524.615 2143.1233,-514.3566"/>
<polygon fill="#191970" stroke="#191970" points="2143.5387,-510.8787 2133.1124,-512.7606 2142.4366,-517.7914 2143.5387,-510.8787"/>
</g>
<!-- Node47 -->
<g id="node48" class="node">
<title>Node47</title>
<g id="a_node48"><a xlink:title=" ">
<polygon fill="#ffffff" stroke="#bfbfbf" points="2511.163,-495.5 2511.163,-513.5 2589.4286,-513.5 2589.4286,-495.5 2511.163,-495.5"/>
<text text-anchor="middle" x="2550.2958" y="-501.5" font-family="Helvetica,sans-Serif" font-size="10.00" fill="#000000">exodusII_int.h</text>
</a>
</g>
</g>
<!-- Node0&#45;&gt;Node47 -->
<g id="edge136" class="edge">
<title>Node0&#45;&gt;Node47</title>
<path fill="none" stroke="#191970" d="M2446.7719,-550.4179C2466.8752,-541.5011 2497.758,-527.803 2520.5645,-517.6873"/>
<polygon fill="#191970" stroke="#191970" points="2522.0672,-520.8496 2529.7893,-513.5956 2519.229,-514.4508 2522.0672,-520.8496"/>
</g>
<!-- Node48 -->
<g id="node49" class="node">
<title>Node48</title>
<g id="a_node49"><a xlink:title=" ">
<polygon fill="#ffffff" stroke="#bfbfbf" points="2607.7318,-495.5 2607.7318,-513.5 2684.8598,-513.5 2684.8598,-495.5 2607.7318,-495.5"/>
<text text-anchor="middle" x="2646.2958" y="-501.5" font-family="Helvetica,sans-Serif" font-size="10.00" fill="#000000">fmt/ostream.h</text>
</a>
</g>
</g>
<!-- Node0&#45;&gt;Node48 -->
<g id="edge137" class="edge">
<title>Node0&#45;&gt;Node48</title>
<path fill="none" stroke="#191970" d="M2462.6243,-550.4179C2500.3946,-540.9753 2559.6117,-526.171 2600.5481,-515.9369"/>
<polygon fill="#191970" stroke="#191970" points="2601.4264,-519.3251 2610.2789,-513.5042 2599.7286,-512.5341 2601.4264,-519.3251"/>
</g>
<!-- Node49 -->
<g id="node50" class="node">
<title>Node49</title>
<g id="a_node50"><a xlink:href="tokenize_8h.html" target="_top" xlink:title=" ">
<polygon fill="#ffffff" stroke="#000000" points="1675.5028,-55.5 1675.5028,-73.5 1737.0888,-73.5 1737.0888,-55.5 1675.5028,-55.5"/>
<text text-anchor="middle" x="1706.2958" y="-61.5" font-family="Helvetica,sans-Serif" font-size="10.00" fill="#000000">tokenize.h</text>
</a>
</g>
</g>
<!-- Node0&#45;&gt;Node49 -->
<g id="edge138" class="edge">
<title>Node0&#45;&gt;Node49</title>
<path fill="none" stroke="#191970" d="M2414.594,-550.1289C2380.2651,-522.8538 2276.3784,-441.8503 2183.2958,-385 2016.2048,-282.9489 1963.1838,-277.7462 1791.2958,-184 1748.4641,-160.64 1720.6644,-171.266 1696.2958,-129 1688.1773,-114.9188 1692.2958,-96.368 1697.4872,-82.7769"/>
<polygon fill="#191970" stroke="#191970" points="1700.7387,-84.0754 1701.4813,-73.5066 1694.31,-81.3056 1700.7387,-84.0754"/>
</g>
<!-- Node2 -->
<g id="node3" class="node">
<title>Node2</title>
<g id="a_node3"><a xlink:href="Ioss__CodeTypes_8h.html" target="_top" xlink:title=" ">
<polygon fill="#ffffff" stroke="#000000" points="1399.8798,-55.5 1399.8798,-73.5 1498.7118,-73.5 1498.7118,-55.5 1399.8798,-55.5"/>
<text text-anchor="middle" x="1449.2958" y="-61.5" font-family="Helvetica,sans-Serif" font-size="10.00" fill="#000000">Ioss_CodeTypes.h</text>
</a>
</g>
</g>
<!-- Node1&#45;&gt;Node2 -->
<g id="edge2" class="edge">
<title>Node1&#45;&gt;Node2</title>
<path fill="none" stroke="#191970" d="M442.1081,-220.4129C458.6367,-205.7374 493.7238,-177.23 529.2958,-165 729.9287,-96.0205 794.5842,-153.7465 1005.2958,-129 1058.489,-122.7529 1071.3281,-117.9355 1124.2958,-110 1216.8227,-96.1378 1324.374,-81.3377 1389.6019,-72.5068"/>
<polygon fill="#191970" stroke="#191970" points="1390.2575,-75.9501 1399.6984,-71.1418 1389.3196,-69.0132 1390.2575,-75.9501"/>
</g>
<!-- Node6 -->
<g id="node7" class="node">
<title>Node6</title>
<g id="a_node7"><a xlink:title=" ">
<polygon fill="#ffffff" stroke="#bfbfbf" points="2436.0692,-.5 2436.0692,-18.5 2476.5223,-18.5 2476.5223,-.5 2436.0692,-.5"/>
<text text-anchor="middle" x="2456.2958" y="-6.5" font-family="Helvetica,sans-Serif" font-size="10.00" fill="#000000">string</text>
</a>
</g>
</g>
<!-- Node1&#45;&gt;Node6 -->
<g id="edge11" class="edge">
<title>Node1&#45;&gt;Node6</title>
<path fill="none" stroke="#191970" d="M494.8075,-225.2301C743.4977,-208.1919 1655.4161,-145.2065 1784.2958,-129 2033.9195,-97.61 2331.7175,-36.0899 2426.079,-16.0089"/>
<polygon fill="#191970" stroke="#191970" points="2427.0194,-19.3871 2436.068,-13.8759 2425.5576,-12.5414 2427.0194,-19.3871"/>
</g>
<!-- Node7 -->
<g id="node8" class="node">
<title>Node7</title>
<g id="a_node8"><a xlink:title=" ">
<polygon fill="#ffffff" stroke="#bfbfbf" points="940.6801,-.5 940.6801,-18.5 983.9115,-18.5 983.9115,-.5 940.6801,-.5"/>
<text text-anchor="middle" x="962.2958" y="-6.5" font-family="Helvetica,sans-Serif" font-size="10.00" fill="#000000">vector</text>
</a>
</g>
</g>
<!-- Node1&#45;&gt;Node7 -->
<g id="edge12" class="edge">
<title>Node1&#45;&gt;Node7</title>
<path fill="none" stroke="#191970" d="M438.733,-220.4385C460.7502,-190.2885 536.6642,-93.1099 626.2958,-55 680.7859,-31.8317 857.1263,-16.9785 930.1602,-11.679"/>
<polygon fill="#191970" stroke="#191970" points="930.8343,-15.14 940.5605,-10.9386 930.3372,-8.1576 930.8343,-15.14"/>
</g>
<!-- Node10 -->
<g id="node11" class="node">
<title>Node10</title>
<g id="a_node11"><a xlink:title=" ">
<polygon fill="#ffffff" stroke="#bfbfbf" points="538.5692,-165.5 538.5692,-183.5 574.0223,-183.5 574.0223,-165.5 538.5692,-165.5"/>
<text text-anchor="middle" x="556.2958" y="-171.5" font-family="Helvetica,sans-Serif" font-size="10.00" fill="#000000">map</text>
</a>
</g>
</g>
<!-- Node1&#45;&gt;Node10 -->
<g id="edge10" class="edge">
<title>Node1&#45;&gt;Node10</title>
<path fill="none" stroke="#191970" d="M452.7719,-220.4179C473.5974,-211.1807 505.991,-196.8126 528.9905,-186.6112"/>
<polygon fill="#191970" stroke="#191970" points="530.4892,-189.7754 538.2112,-182.5214 527.6509,-183.3766 530.4892,-189.7754"/>
</g>
<!-- Node3 -->
<g id="node4" class="node">
<title>Node3</title>
<g id="a_node4"><a xlink:title=" ">
<polygon fill="#ffffff" stroke="#bfbfbf" points="1429.9042,-.5 1429.9042,-18.5 1468.6874,-18.5 1468.6874,-.5 1429.9042,-.5"/>
<text text-anchor="middle" x="1449.2958" y="-6.5" font-family="Helvetica,sans-Serif" font-size="10.00" fill="#000000">array</text>
</a>
</g>
</g>
<!-- Node2&#45;&gt;Node3 -->
<g id="edge3" class="edge">
<title>Node2&#45;&gt;Node3</title>
<path fill="none" stroke="#191970" d="M1449.2958,-55.4179C1449.2958,-48.2164 1449.2958,-37.8962 1449.2958,-28.8632"/>
<polygon fill="#191970" stroke="#191970" points="1452.7959,-28.7794 1449.2958,-18.7795 1445.7959,-28.7795 1452.7959,-28.7794"/>
</g>
<!-- Node4 -->
<g id="node5" class="node">
<title>Node4</title>
<g id="a_node5"><a xlink:title=" ">
<polygon fill="#ffffff" stroke="#bfbfbf" points="1817.1752,-.5 1817.1752,-18.5 1865.4164,-18.5 1865.4164,-.5 1817.1752,-.5"/>
<text text-anchor="middle" x="1841.2958" y="-6.5" font-family="Helvetica,sans-Serif" font-size="10.00" fill="#000000">cstddef</text>
</a>
</g>
</g>
<!-- Node2&#45;&gt;Node4 -->
<g id="edge4" class="edge">
<title>Node2&#45;&gt;Node4</title>
<path fill="none" stroke="#191970" d="M1498.9429,-57.5342C1579.6782,-46.2066 1737.3855,-24.0792 1806.9394,-14.3204"/>
<polygon fill="#191970" stroke="#191970" points="1807.5151,-17.774 1816.9318,-12.9184 1806.5424,-10.8419 1807.5151,-17.774"/>
</g>
<!-- Node5 -->
<g id="node6" class="node">
<title>Node5</title>
<g id="a_node6"><a xlink:title=" ">
<polygon fill="#ffffff" stroke="#bfbfbf" points="254.8451,-.5 254.8451,-18.5 299.7465,-18.5 299.7465,-.5 254.8451,-.5"/>
<text text-anchor="middle" x="277.2958" y="-6.5" font-family="Helvetica,sans-Serif" font-size="10.00" fill="#000000">cstdint</text>
</a>
</g>
</g>
<!-- Node2&#45;&gt;Node5 -->
<g id="edge5" class="edge">
<title>Node2&#45;&gt;Node5</title>
<path fill="none" stroke="#191970" d="M1399.685,-62.1718C1202.279,-52.9079 475.2936,-18.7917 310.6133,-11.0635"/>
<polygon fill="#191970" stroke="#191970" points="310.3187,-7.5459 300.1656,-10.5732 309.9905,-14.5383 310.3187,-7.5459"/>
</g>
<!-- Node2&#45;&gt;Node6 -->
<g id="edge6" class="edge">
<title>Node2&#45;&gt;Node6</title>
<path fill="none" stroke="#191970" d="M1498.8896,-61.7913C1677.1367,-52.0559 2282.3308,-19.0016 2425.673,-11.1725"/>
<polygon fill="#191970" stroke="#191970" points="2426.1258,-14.6531 2435.92,-10.6129 2425.744,-7.6635 2426.1258,-14.6531"/>
</g>
<!-- Node2&#45;&gt;Node7 -->
<g id="edge7" class="edge">
<title>Node2&#45;&gt;Node7</title>
<path fill="none" stroke="#191970" d="M1399.4669,-58.8725C1299.4868,-47.5811 1076.9185,-22.4451 994.1268,-13.0949"/>
<polygon fill="#191970" stroke="#191970" points="994.3972,-9.6033 984.0676,-11.9588 993.6116,-16.559 994.3972,-9.6033"/>
</g>
<!-- Node8 -->
<g id="node9" class="node">
<title>Node8</title>
<g id="a_node9"><a xlink:title=" ">
<polygon fill="#ffffff" stroke="#bfbfbf" points="1486.5473,-.5 1486.5473,-18.5 1602.0443,-18.5 1602.0443,-.5 1486.5473,-.5"/>
<text text-anchor="middle" x="1544.2958" y="-6.5" font-family="Helvetica,sans-Serif" font-size="10.00" fill="#000000">SEACASIoss_config.h</text>
</a>
</g>
</g>
<!-- Node2&#45;&gt;Node8 -->
<g id="edge8" class="edge">
<title>Node2&#45;&gt;Node8</title>
<path fill="none" stroke="#191970" d="M1464.9831,-55.4179C1479.8348,-46.8195 1502.3656,-33.7754 1519.6227,-23.7844"/>
<polygon fill="#191970" stroke="#191970" points="1521.6845,-26.635 1528.5852,-18.5956 1518.1772,-20.577 1521.6845,-26.635"/>
</g>
<!-- Node9 -->
<g id="node10" class="node">
<title>Node9</title>
<g id="a_node10"><a xlink:title=" ">
<polygon fill="#ffffff" stroke="#bfbfbf" points="1358.6776,-.5 1358.6776,-18.5 1411.9139,-18.5 1411.9139,-.5 1358.6776,-.5"/>
<text text-anchor="middle" x="1385.2958" y="-6.5" font-family="Helvetica,sans-Serif" font-size="10.00" fill="#000000">complex</text>
</a>
</g>
</g>
<!-- Node2&#45;&gt;Node9 -->
<g id="edge9" class="edge">
<title>Node2&#45;&gt;Node9</title>
<path fill="none" stroke="#191970" d="M1438.7275,-55.4179C1429.2425,-47.2667 1415.1083,-35.1201 1403.7591,-25.3669"/>
<polygon fill="#191970" stroke="#191970" points="1405.9591,-22.6427 1396.0937,-18.7795 1401.3967,-27.9516 1405.9591,-22.6427"/>
</g>
<!-- Node11&#45;&gt;Node4 -->
<g id="edge104" class="edge">
<title>Node11&#45;&gt;Node4</title>
<path fill="none" stroke="#191970" d="M1171.4933,-391.9944C1361.4307,-379.744 2162.6351,-323.3098 2231.2958,-239 2280.1455,-179.0165 2264.2824,-239.111 2120.2958,-184 2063.9902,-162.449 2048.0949,-159.8483 1996.2958,-129 1942.8528,-97.1728 1886.5833,-49.7577 1858.8578,-25.323"/>
<polygon fill="#191970" stroke="#191970" points="1861.004,-22.5478 1851.2045,-18.5203 1856.3535,-27.7798 1861.004,-22.5478"/>
</g>
<!-- Node11&#45;&gt;Node5 -->
<g id="edge105" class="edge">
<title>Node11&#45;&gt;Node5</title>
<path fill="none" stroke="#191970" d="M1091.1845,-394.3648C931.5922,-393.5583 341.5363,-387.949 159.2958,-349 93.9206,-335.0278 64.4454,-343.3016 19.2958,-294 -.8874,-271.9608 .2958,-259.3846 .2958,-229.5 .2958,-229.5 .2958,-229.5 .2958,-119.5 .2958,-85.2915 13.9168,-74.1012 42.2958,-55 74.926,-33.0374 187.7948,-18.6764 244.3951,-12.684"/>
<polygon fill="#191970" stroke="#191970" points="245.0135,-16.1388 254.6009,-11.6298 244.2942,-9.1759 245.0135,-16.1388"/>
</g>
<!-- Node11&#45;&gt;Node6 -->
<g id="edge109" class="edge">
<title>Node11&#45;&gt;Node6</title>
<path fill="none" stroke="#191970" d="M1171.3084,-393.9603C1383.1607,-390.3565 2373.0493,-363.9787 2607.2958,-184 2637.459,-160.8247 2670.0614,-142.4998 2650.2958,-110 2614.4398,-51.0435 2531.5797,-25.128 2486.6246,-15.0661"/>
<polygon fill="#191970" stroke="#191970" points="2487.0951,-11.5882 2476.5872,-12.9429 2485.6464,-18.4367 2487.0951,-11.5882"/>
</g>
<!-- Node11&#45;&gt;Node7 -->
<g id="edge111" class="edge">
<title>Node11&#45;&gt;Node7</title>
<path fill="none" stroke="#191970" d="M1091.3019,-394.0207C1000.1843,-392.3134 770.4897,-384.5253 582.2958,-349 498.424,-333.1676 475.2858,-330.8466 398.2958,-294 299.2158,-246.5813 254.9044,-231.0604 214.2958,-129 202.1368,-98.4412 191.7569,-78.9516 214.2958,-55 226.7598,-41.7548 788.4596,-16.9206 930.1214,-10.8598"/>
<polygon fill="#191970" stroke="#191970" points="930.479,-14.3478 940.3207,-10.4248 930.1807,-7.3542 930.479,-14.3478"/>
</g>
<!-- Node11&#45;&gt;Node10 -->
<g id="edge108" class="edge">
<title>Node11&#45;&gt;Node10</title>
<path fill="none" stroke="#191970" d="M1091.1883,-387.008C1048.3674,-378.7497 978.65,-364.5575 919.2958,-349 759.9254,-307.2271 671.9465,-364.5767 565.2958,-239 554.785,-226.624 553.2345,-207.8356 553.8991,-193.7238"/>
<polygon fill="#191970" stroke="#191970" points="557.398,-193.8866 554.778,-183.6209 550.4244,-193.2799 557.398,-193.8866"/>
</g>
<!-- Node12 -->
<g id="node13" class="node">
<title>Node12</title>
<g id="a_node13"><a xlink:href="Ioss__CoordinateFrame_8h.html" target="_top" xlink:title=" ">
<polygon fill="#ffffff" stroke="#000000" points="28.2689,-275.5 28.2689,-293.5 154.3226,-293.5 154.3226,-275.5 28.2689,-275.5"/>
<text text-anchor="middle" x="91.2958" y="-281.5" font-family="Helvetica,sans-Serif" font-size="10.00" fill="#000000">Ioss_CoordinateFrame.h</text>
</a>
</g>
</g>
<!-- Node11&#45;&gt;Node12 -->
<g id="edge14" class="edge">
<title>Node11&#45;&gt;Node12</title>
<path fill="none" stroke="#191970" d="M1091.2191,-393.6111C924.6879,-389.7706 292.0522,-373.6735 206.2958,-349 170.333,-338.6529 133.4052,-315.2186 111.41,-299.6309"/>
<polygon fill="#191970" stroke="#191970" points="113.3619,-296.723 103.2106,-293.6896 109.2546,-302.3914 113.3619,-296.723"/>
</g>
<!-- Node13 -->
<g id="node14" class="node">
<title>Node13</title>
<g id="a_node14"><a xlink:href="Ioss__DatabaseIO_8h.html" target="_top" xlink:title=" ">
<polygon fill="#ffffff" stroke="#000000" points="1020.4931,-275.5 1020.4931,-293.5 1122.0985,-293.5 1122.0985,-275.5 1020.4931,-275.5"/>
<text text-anchor="middle" x="1071.2958" y="-281.5" font-family="Helvetica,sans-Serif" font-size="10.00" fill="#000000">Ioss_DatabaseIO.h</text>
</a>
</g>
</g>
<!-- Node11&#45;&gt;Node13 -->
<g id="edge17" class="edge">
<title>Node11&#45;&gt;Node13</title>
<path fill="none" stroke="#191970" d="M1126.3857,-385.4982C1116.541,-367.4496 1094.2215,-326.5306 1081.2145,-302.6843"/>
<polygon fill="#191970" stroke="#191970" points="1084.1349,-300.7291 1076.2737,-293.6261 1077.9896,-304.0811 1084.1349,-300.7291"/>
</g>
<!-- Node17 -->
<g id="node18" class="node">
<title>Node17</title>
<g id="a_node18"><a xlink:href="Ioss__EntityType_8h.html" target="_top" xlink:title=" ">
<polygon fill="#ffffff" stroke="#000000" points="1177.828,-220.5 1177.828,-238.5 1272.7636,-238.5 1272.7636,-220.5 1177.828,-220.5"/>
<text text-anchor="middle" x="1225.2958" y="-226.5" font-family="Helvetica,sans-Serif" font-size="10.00" fill="#000000">Ioss_EntityType.h</text>
</a>
</g>
</g>
<!-- Node11&#45;&gt;Node17 -->
<g id="edge71" class="edge">
<title>Node11&#45;&gt;Node17</title>
<path fill="none" stroke="#191970" d="M1138.5598,-385.3812C1145.5581,-376.397 1156.2405,-362.1463 1164.2958,-349 1185.3918,-314.571 1205.8875,-271.9756 1216.923,-248.0597"/>
<polygon fill="#191970" stroke="#191970" points="1220.2012,-249.3067 1221.172,-238.7565 1213.8338,-246.3986 1220.2012,-249.3067"/>
</g>
<!-- Node19 -->
<g id="node20" class="node">
<title>Node19</title>
<g id="a_node20"><a xlink:title=" ">
<polygon fill="#ffffff" stroke="#bfbfbf" points="322.9042,-55.5 322.9042,-73.5 361.6874,-73.5 361.6874,-55.5 322.9042,-55.5"/>
<text text-anchor="middle" x="342.2958" y="-61.5" font-family="Helvetica,sans-Serif" font-size="10.00" fill="#000000">utility</text>
</a>
</g>
</g>
<!-- Node11&#45;&gt;Node19 -->
<g id="edge110" class="edge">
<title>Node11&#45;&gt;Node19</title>
<path fill="none" stroke="#191970" d="M1091.0992,-392.1784C946.0796,-382.984 452.6181,-344.3459 343.2958,-239 301.1854,-198.4213 322.0113,-119.8241 334.8042,-83.6138"/>
<polygon fill="#191970" stroke="#191970" points="338.2387,-84.4189 338.438,-73.826 331.6763,-81.9826 338.2387,-84.4189"/>
</g>
<!-- Node30 -->
<g id="node31" class="node">
<title>Node30</title>
<g id="a_node31"><a xlink:href="Ioss__Property_8h.html" target="_top" xlink:title=" ">
<polygon fill="#ffffff" stroke="#000000" points="1394.6473,-165.5 1394.6473,-183.5 1479.9442,-183.5 1479.9442,-165.5 1394.6473,-165.5"/>
<text text-anchor="middle" x="1437.2958" y="-171.5" font-family="Helvetica,sans-Serif" font-size="10.00" fill="#000000">Ioss_Property.h</text>
</a>
</g>
</g>
<!-- Node11&#45;&gt;Node30 -->
<g id="edge102" class="edge">
<title>Node11&#45;&gt;Node30</title>
<path fill="none" stroke="#191970" d="M1130.1091,-385.2442C1126.9432,-356.1229 1121.5306,-265.6058 1169.2958,-220 1199.3682,-191.2871 1315.0095,-180.5444 1384.1788,-176.6371"/>
<polygon fill="#191970" stroke="#191970" points="1384.6471,-180.1172 1394.4458,-176.0879 1384.2731,-173.1272 1384.6471,-180.1172"/>
</g>
<!-- Node32 -->
<g id="node33" class="node">
<title>Node32</title>
<g id="a_node33"><a xlink:href="Ioss__State_8h.html" target="_top" xlink:title=" ">
<polygon fill="#ffffff" stroke="#000000" points="1290.5004,-220.5 1290.5004,-238.5 1362.0912,-238.5 1362.0912,-220.5 1290.5004,-220.5"/>
<text text-anchor="middle" x="1326.2958" y="-226.5" font-family="Helvetica,sans-Serif" font-size="10.00" fill="#000000">Ioss_State.h</text>
</a>
</g>
</g>
<!-- Node11&#45;&gt;Node32 -->
<g id="edge103" class="edge">
<title>Node11&#45;&gt;Node32</title>
<path fill="none" stroke="#191970" d="M1142.0576,-385.3939C1173.812,-358.5247 1267.4008,-279.3342 1307.6005,-245.3191"/>
<polygon fill="#191970" stroke="#191970" points="1309.9538,-247.9127 1315.3269,-238.7814 1305.4322,-242.569 1309.9538,-247.9127"/>
</g>
<!-- Node35 -->
<g id="node36" class="node">
<title>Node35</title>
<g id="a_node36"><a xlink:href="Ioss__GroupingEntity_8h.html" target="_top" xlink:title=" ">
<polygon fill="#ffffff" stroke="#000000" points="1461.4701,-330.5 1461.4701,-348.5 1575.1215,-348.5 1575.1215,-330.5 1461.4701,-330.5"/>
<text text-anchor="middle" x="1518.2958" y="-336.5" font-family="Helvetica,sans-Serif" font-size="10.00" fill="#000000">Ioss_GroupingEntity.h</text>
</a>
</g>
</g>
<!-- Node11&#45;&gt;Node35 -->
<g id="edge72" class="edge">
<title>Node11&#45;&gt;Node35</title>
<path fill="none" stroke="#191970" d="M1171.6164,-388.7697C1237.8949,-379.3503 1370.5426,-360.4985 1451.1676,-349.0402"/>
<polygon fill="#191970" stroke="#191970" points="1451.8098,-352.4842 1461.2178,-347.6119 1450.8248,-345.5538 1451.8098,-352.4842"/>
</g>
<!-- Node37 -->
<g id="node38" class="node">
<title>Node37</title>
<g id="a_node38"><a xlink:title=" ">
<polygon fill="#ffffff" stroke="#bfbfbf" points="1867.892,-165.5 1867.892,-183.5 1926.6996,-183.5 1926.6996,-165.5 1867.892,-165.5"/>
<text text-anchor="middle" x="1897.2958" y="-171.5" font-family="Helvetica,sans-Serif" font-size="10.00" fill="#000000">functional</text>
</a>
</g>
</g>
<!-- Node11&#45;&gt;Node37 -->
<g id="edge106" class="edge">
<title>Node11&#45;&gt;Node37</title>
<path fill="none" stroke="#191970" d="M1171.431,-391.6354C1250.6323,-385.7251 1432.5234,-370.8743 1584.2958,-349 1715.005,-330.1614 1747.7708,-324.3503 1876.2958,-294 1963.1011,-273.5015 2015.5599,-310.1886 2069.2958,-239 2074.3833,-232.2601 2074.4471,-226.6912 2069.2958,-220 2065.1642,-214.6333 1985.9373,-195.2582 1936.4678,-183.5919"/>
<polygon fill="#191970" stroke="#191970" points="1937.2369,-180.1774 1926.7014,-181.2976 1935.636,-186.9919 1937.2369,-180.1774"/>
</g>
<!-- Node40 -->
<g id="node41" class="node">
<title>Node40</title>
<g id="a_node41"><a xlink:href="Ioss__MeshType_8h.html" target="_top" xlink:title=" ">
<polygon fill="#ffffff" stroke="#000000" points="928.1063,-330.5 928.1063,-348.5 1022.4852,-348.5 1022.4852,-330.5 928.1063,-330.5"/>
<text text-anchor="middle" x="975.2958" y="-336.5" font-family="Helvetica,sans-Serif" font-size="10.00" fill="#000000">Ioss_MeshType.h</text>
</a>
</g>
</g>
<!-- Node11&#45;&gt;Node40 -->
<g id="edge101" class="edge">
<title>Node11&#45;&gt;Node40</title>
<path fill="none" stroke="#191970" d="M1105.5356,-385.4179C1079.6024,-376.2748 1039.4106,-362.1046 1010.5349,-351.924"/>
<polygon fill="#191970" stroke="#191970" points="1011.4298,-348.5285 1000.835,-348.5042 1009.1022,-355.1302 1011.4298,-348.5285"/>
</g>
<!-- Node41 -->
<g id="node42" class="node">
<title>Node41</title>
<g id="a_node42"><a xlink:title=" ">
<polygon fill="#ffffff" stroke="#bfbfbf" points="1040.1234,-330.5 1040.1234,-348.5 1084.4681,-348.5 1084.4681,-330.5 1040.1234,-330.5"/>
<text text-anchor="middle" x="1062.2958" y="-336.5" font-family="Helvetica,sans-Serif" font-size="10.00" fill="#000000">iosfwd</text>
</a>
</g>
</g>
<!-- Node11&#45;&gt;Node41 -->
<g id="edge107" class="edge">
<title>Node11&#45;&gt;Node41</title>
<path fill="none" stroke="#191970" d="M1119.9018,-385.4179C1109.5766,-377.1876 1094.141,-364.8839 1081.8461,-355.0836"/>
<polygon fill="#191970" stroke="#191970" points="1083.9386,-352.2757 1073.9373,-348.7795 1079.5754,-357.7495 1083.9386,-352.2757"/>
</g>
<!-- Node12&#45;&gt;Node5 -->
<g id="edge15" class="edge">
<title>Node12&#45;&gt;Node5</title>
<path fill="none" stroke="#191970" d="M83.2462,-275.2267C68.4196,-257.158 38.2958,-215.4128 38.2958,-174.5 38.2958,-174.5 38.2958,-174.5 38.2958,-119.5 38.2958,-88.9131 39.1311,-74.9738 62.2958,-55 89.2608,-31.7494 191.1885,-18.2163 244.4399,-12.5898"/>
<polygon fill="#191970" stroke="#191970" points="245.1206,-16.0385 254.7124,-11.5389 244.4081,-9.0749 245.1206,-16.0385"/>
</g>
<!-- Node12&#45;&gt;Node7 -->
<g id="edge16" class="edge">
<title>Node12&#45;&gt;Node7</title>
<path fill="none" stroke="#191970" d="M91.2841,-275.2854C91.8008,-239.3032 99.0678,-107.6636 176.2958,-55 207.9385,-33.4221 786.8089,-14.7468 930.3128,-10.4351"/>
<polygon fill="#191970" stroke="#191970" points="930.7335,-13.9242 940.6247,-10.1275 930.5248,-6.9273 930.7335,-13.9242"/>
</g>
<!-- Node13&#45;&gt;Node2 -->
<g id="edge19" class="edge">
<title>Node13&#45;&gt;Node2</title>
<path fill="none" stroke="#191970" d="M1074.893,-275.0917C1087.7416,-241.9785 1132.2034,-131.6502 1162.2958,-110 1180.422,-96.959 1310.7528,-80.193 1389.4157,-71.0922"/>
<polygon fill="#191970" stroke="#191970" points="1390.1482,-74.5312 1399.6838,-69.9138 1389.35,-67.5768 1390.1482,-74.5312"/>
</g>
<!-- Node13&#45;&gt;Node4 -->
<g id="edge65" class="edge">
<title>Node13&#45;&gt;Node4</title>
<path fill="none" stroke="#191970" d="M1071.8601,-275.3142C1074.2257,-245.6078 1086.0494,-151.657 1142.2958,-110 1249.7565,-30.4128 1681.6258,-13.4874 1807.0075,-10.222"/>
<polygon fill="#191970" stroke="#191970" points="1807.2637,-13.7168 1817.1739,-9.9701 1807.0902,-6.719 1807.2637,-13.7168"/>
</g>
<!-- Node13&#45;&gt;Node5 -->
<g id="edge66" class="edge">
<title>Node13&#45;&gt;Node5</title>
<path fill="none" stroke="#191970" d="M1020.2609,-283.7163C864.5938,-280.9938 402.7827,-270.3356 343.2958,-239 260.9381,-195.6168 244.616,-162.0089 214.2958,-74 211.5452,-66.0161 210.4514,-62.5186 214.2958,-55 221.2647,-41.3704 234.4316,-30.8846 246.9334,-23.4332"/>
<polygon fill="#191970" stroke="#191970" points="248.7476,-26.4299 255.8211,-18.5421 245.3726,-20.2972 248.7476,-26.4299"/>
</g>
<!-- Node13&#45;&gt;Node6 -->
<g id="edge68" class="edge">
<title>Node13&#45;&gt;Node6</title>
<path fill="none" stroke="#191970" d="M1122.1572,-284.2218C1349.4212,-282.7795 2266.1724,-274.7741 2389.2958,-239 2451.6603,-220.8797 2456.4047,-192.3774 2515.2958,-165 2558.8894,-144.7341 2589.5296,-168.2447 2617.2958,-129 2656.38,-73.7585 2543.2638,-33.5052 2486.5641,-17.3319"/>
<polygon fill="#191970" stroke="#191970" points="2487.2545,-13.8914 2476.683,-14.594 2485.3853,-20.6372 2487.2545,-13.8914"/>
</g>
<!-- Node13&#45;&gt;Node7 -->
<g id="edge70" class="edge">
<title>Node13&#45;&gt;Node7</title>
<path fill="none" stroke="#191970" d="M1020.2891,-283.1632C907.3335,-279.6764 643.9356,-268.4431 617.2958,-239 513.4723,-124.2512 827.7267,-40.3011 930.759,-16.4117"/>
<polygon fill="#191970" stroke="#191970" points="931.6318,-19.8026 940.6016,-14.1641 930.0733,-12.9782 931.6318,-19.8026"/>
</g>
<!-- Node13&#45;&gt;Node10 -->
<g id="edge67" class="edge">
<title>Node13&#45;&gt;Node10</title>
<path fill="none" stroke="#191970" d="M1020.0654,-282.64C902.1596,-277.9466 619.0171,-264.1671 584.2958,-239 569.8032,-228.4953 562.7266,-208.8648 559.3253,-194.0082"/>
<polygon fill="#191970" stroke="#191970" points="562.6913,-192.9746 557.3787,-183.808 555.8154,-194.2869 562.6913,-192.9746"/>
</g>
<!-- Node14 -->
<g id="node15" class="node">
<title>Node14</title>
<g id="a_node15"><a xlink:href="Ioss__BoundingBox_8h.html" target="_top" xlink:title=" ">
<polygon fill="#ffffff" stroke="#000000" points="1598.4291,-220.5 1598.4291,-238.5 1706.1625,-238.5 1706.1625,-220.5 1598.4291,-220.5"/>
<text text-anchor="middle" x="1652.2958" y="-226.5" font-family="Helvetica,sans-Serif" font-size="10.00" fill="#000000">Ioss_BoundingBox.h</text>
</a>
</g>
</g>
<!-- Node13&#45;&gt;Node14 -->
<g id="edge18" class="edge">
<title>Node13&#45;&gt;Node14</title>
<path fill="none" stroke="#191970" d="M1122.1367,-281.086C1213.346,-274.7318 1411.0152,-259.9186 1588.335,-239.0469"/>
<polygon fill="#191970" stroke="#191970" points="1588.8512,-242.5103 1598.3692,-237.8567 1588.0265,-235.5591 1588.8512,-242.5103"/>
</g>
<!-- Node15 -->
<g id="node16" class="node">
<title>Node15</title>
<g id="a_node16"><a xlink:href="Ioss__DBUsage_8h.html" target="_top" xlink:title=" ">
<polygon fill="#ffffff" stroke="#000000" points="626.7763,-220.5 626.7763,-238.5 717.8153,-238.5 717.8153,-220.5 626.7763,-220.5"/>
<text text-anchor="middle" x="672.2958" y="-226.5" font-family="Helvetica,sans-Serif" font-size="10.00" fill="#000000">Ioss_DBUsage.h</text>
</a>
</g>
</g>
<!-- Node13&#45;&gt;Node15 -->
<g id="edge20" class="edge">
<title>Node13&#45;&gt;Node15</title>
<path fill="none" stroke="#191970" d="M1020.2085,-278.3831C954.9199,-270.4236 838.1639,-255.713 727.8598,-239.0339"/>
<polygon fill="#191970" stroke="#191970" points="728.3042,-235.5614 717.8917,-237.5185 727.252,-242.4819 728.3042,-235.5614"/>
</g>
<!-- Node16 -->
<g id="node17" class="node">
<title>Node16</title>
<g id="a_node17"><a xlink:href="Ioss__DataSize_8h.html" target="_top" xlink:title=" ">
<polygon fill="#ffffff" stroke="#000000" points="735.8871,-220.5 735.8871,-238.5 824.7045,-238.5 824.7045,-220.5 735.8871,-220.5"/>
<text text-anchor="middle" x="780.2958" y="-226.5" font-family="Helvetica,sans-Serif" font-size="10.00" fill="#000000">Ioss_DataSize.h</text>
</a>
</g>
</g>
<!-- Node13&#45;&gt;Node16 -->
<g id="edge21" class="edge">
<title>Node13&#45;&gt;Node16</title>
<path fill="none" stroke="#191970" d="M1023.5689,-275.4795C971.763,-265.688 889.1781,-250.0791 834.8439,-239.8098"/>
<polygon fill="#191970" stroke="#191970" points="835.1825,-236.3119 824.7064,-237.8938 833.8824,-243.1901 835.1825,-236.3119"/>
</g>
<!-- Node13&#45;&gt;Node17 -->
<g id="edge22" class="edge">
<title>Node13&#45;&gt;Node17</title>
<path fill="none" stroke="#191970" d="M1096.7258,-275.4179C1122.3265,-266.2748 1162.0029,-252.1046 1190.5085,-241.924"/>
<polygon fill="#191970" stroke="#191970" points="1191.8438,-245.1637 1200.084,-238.5042 1189.4894,-238.5715 1191.8438,-245.1637"/>
</g>
<!-- Node18 -->
<g id="node19" class="node">
<title>Node18</title>
<g id="a_node19"><a xlink:href="Ioss__Map_8h.html" target="_top" xlink:title=" ">
<polygon fill="#ffffff" stroke="#000000" points="928.4486,-110.5 928.4486,-128.5 996.143,-128.5 996.143,-110.5 928.4486,-110.5"/>
<text text-anchor="middle" x="962.2958" y="-116.5" font-family="Helvetica,sans-Serif" font-size="10.00" fill="#000000">Ioss_Map.h</text>
</a>
</g>
</g>
<!-- Node13&#45;&gt;Node18 -->
<g id="edge23" class="edge">
<title>Node13&#45;&gt;Node18</title>
<path fill="none" stroke="#191970" d="M1020.394,-280.0438C967.4077,-274.2262 889.6206,-261.962 871.2958,-239 841.4553,-201.6083 901.1147,-156.44 937.3245,-133.8426"/>
<polygon fill="#191970" stroke="#191970" points="939.2246,-136.7836 945.9564,-128.6023 935.5919,-130.8 939.2246,-136.7836"/>
</g>
<!-- Node13&#45;&gt;Node19 -->
<g id="edge69" class="edge">
<title>Node13&#45;&gt;Node19</title>
<path fill="none" stroke="#191970" d="M1020.2218,-283.0127C861.3539,-278.1542 385.075,-261.7449 361.2958,-239 318.7862,-198.3395 329.5808,-119.7838 337.4631,-83.5989"/>
<polygon fill="#191970" stroke="#191970" points="340.8812,-84.353 339.7536,-73.8183 334.0656,-82.7568 340.8812,-84.353"/>
</g>
<!-- Node20 -->
<g id="node21" class="node">
<title>Node20</title>
<g id="a_node21"><a xlink:href="Ioss__ParallelUtils_8h.html" target="_top" xlink:title=" ">
<polygon fill="#ffffff" stroke="#000000" points="2278.7787,-220.5 2278.7787,-238.5 2379.8129,-238.5 2379.8129,-220.5 2278.7787,-220.5"/>
<text text-anchor="middle" x="2329.2958" y="-226.5" font-family="Helvetica,sans-Serif" font-size="10.00" fill="#000000">Ioss_ParallelUtils.h</text>
</a>
</g>
</g>
<!-- Node13&#45;&gt;Node20 -->
<g id="edge30" class="edge">
<title>Node13&#45;&gt;Node20</title>
<path fill="none" stroke="#191970" d="M1122.2329,-283.5461C1284.3741,-280.2861 1802.9974,-268.135 2231.2958,-239 2243.3537,-238.1798 2256.2264,-237.088 2268.544,-235.9372"/>
<polygon fill="#191970" stroke="#191970" points="2269.1097,-239.3991 2278.7303,-234.9613 2268.4421,-232.431 2269.1097,-239.3991"/>
</g>
<!-- Node29 -->
<g id="node30" class="node">
<title>Node29</title>
<g id="a_node30"><a xlink:href="Ioss__PropertyManager_8h.html" target="_top" xlink:title=" ">
<polygon fill="#ffffff" stroke="#000000" points="1455.8182,-220.5 1455.8182,-238.5 1580.7733,-238.5 1580.7733,-220.5 1455.8182,-220.5"/>
<text text-anchor="middle" x="1518.2958" y="-226.5" font-family="Helvetica,sans-Serif" font-size="10.00" fill="#000000">Ioss_PropertyManager.h</text>
</a>
</g>
</g>
<!-- Node13&#45;&gt;Node29 -->
<g id="edge53" class="edge">
<title>Node13&#45;&gt;Node29</title>
<path fill="none" stroke="#191970" d="M1122.1372,-278.2443C1201.4273,-268.4883 1354.8457,-249.6113 1445.7385,-238.4276"/>
<polygon fill="#191970" stroke="#191970" points="1446.1919,-241.8983 1455.6896,-237.2032 1445.337,-234.9507 1446.1919,-241.8983"/>
</g>
<!-- Node13&#45;&gt;Node32 -->
<g id="edge62" class="edge">
<title>Node13&#45;&gt;Node32</title>
<path fill="none" stroke="#191970" d="M1113.1183,-275.4795C1159.0592,-265.5706 1232.6215,-249.7043 1280.1965,-239.443"/>
<polygon fill="#191970" stroke="#191970" points="1281.1909,-242.8091 1290.2281,-237.2793 1279.7149,-235.9664 1281.1909,-242.8091"/>
</g>
<!-- Node33 -->
<g id="node34" class="node">
<title>Node33</title>
<g id="a_node34"><a xlink:href="Ioss__SurfaceSplit_8h.html" target="_top" xlink:title=" ">
<polygon fill="#ffffff" stroke="#000000" points="880.2172,-220.5 880.2172,-238.5 982.3744,-238.5 982.3744,-220.5 880.2172,-220.5"/>
<text text-anchor="middle" x="931.2958" y="-226.5" font-family="Helvetica,sans-Serif" font-size="10.00" fill="#000000">Ioss_SurfaceSplit.h</text>
</a>
</g>
</g>
<!-- Node13&#45;&gt;Node33 -->
<g id="edge63" class="edge">
<title>Node13&#45;&gt;Node33</title>
<path fill="none" stroke="#191970" d="M1048.1776,-275.4179C1025.1764,-266.3817 989.6765,-252.4353 963.8337,-242.2828"/>
<polygon fill="#191970" stroke="#191970" points="965.0356,-238.9946 954.4483,-238.5956 962.476,-245.5098 965.0356,-238.9946"/>
</g>
<!-- Node34 -->
<g id="node35" class="node">
<title>Node34</title>
<g id="a_node35"><a xlink:title=" ">
<polygon fill="#ffffff" stroke="#bfbfbf" points="1000.0077,-220.5 1000.0077,-238.5 1046.5839,-238.5 1046.5839,-220.5 1000.0077,-220.5"/>
<text text-anchor="middle" x="1023.2958" y="-226.5" font-family="Helvetica,sans-Serif" font-size="10.00" fill="#000000">chrono</text>
</a>
</g>
</g>
<!-- Node13&#45;&gt;Node34 -->
<g id="edge64" class="edge">
<title>Node13&#45;&gt;Node34</title>
<path fill="none" stroke="#191970" d="M1063.3696,-275.4179C1056.5321,-267.5833 1046.4733,-256.0575 1038.1441,-246.5137"/>
<polygon fill="#191970" stroke="#191970" points="1040.6066,-244.0123 1031.3942,-238.7795 1035.3326,-248.6151 1040.6066,-244.0123"/>
</g>
<!-- Node18&#45;&gt;Node2 -->
<g id="edge24" class="edge">
<title>Node18&#45;&gt;Node2</title>
<path fill="none" stroke="#191970" d="M996.3116,-112.3314C1000.9971,-111.4718 1005.7569,-110.6647 1010.2958,-110 1176.3991,-85.6731 1219.6797,-94.5233 1386.2958,-74 1387.3936,-73.8648 1388.5018,-73.7256 1389.6178,-73.583"/>
<polygon fill="#191970" stroke="#191970" points="1390.3597,-77.0151 1399.808,-72.2214 1389.4325,-70.0768 1390.3597,-77.0151"/>
</g>
<!-- Node18&#45;&gt;Node4 -->
<g id="edge25" class="edge">
<title>Node18&#45;&gt;Node4</title>
<path fill="none" stroke="#191970" d="M987.997,-110.3897C1029.9468,-95.9473 1116.014,-68.0945 1191.2958,-55 1311.3952,-34.11 1689.9728,-16.145 1806.6902,-10.9861"/>
<polygon fill="#191970" stroke="#191970" points="1807.0031,-14.4758 1816.84,-10.5407 1806.6961,-7.4826 1807.0031,-14.4758"/>
</g>
<!-- Node18&#45;&gt;Node5 -->
<g id="edge26" class="edge">
<title>Node18&#45;&gt;Node5</title>
<path fill="none" stroke="#191970" d="M928.0196,-112.5113C865.9965,-99.9993 730.932,-73.366 616.2958,-55 504.2867,-37.0549 370.6765,-20.5556 310.0735,-13.3368"/>
<polygon fill="#191970" stroke="#191970" points="310.31,-9.8404 299.9675,-12.1386 309.4858,-16.7917 310.31,-9.8404"/>
</g>
<!-- Node18&#45;&gt;Node6 -->
<g id="edge27" class="edge">
<title>Node18&#45;&gt;Node6</title>
<path fill="none" stroke="#191970" d="M996.3438,-112.5341C1001.0243,-111.643 1005.7741,-110.7733 1010.2958,-110 1178.936,-81.1595 1220.947,-70.8937 1391.2958,-55 1799.5202,-16.9122 2298.7889,-10.671 2425.7941,-9.681"/>
<polygon fill="#191970" stroke="#191970" points="2425.9647,-13.1799 2435.939,-9.6071 2425.9137,-6.1801 2425.9647,-13.1799"/>
</g>
<!-- Node18&#45;&gt;Node7 -->
<g id="edge29" class="edge">
<title>Node18&#45;&gt;Node7</title>
<path fill="none" stroke="#191970" d="M962.2958,-110.4982C962.2958,-92.6913 962.2958,-52.6225 962.2958,-28.6515"/>
<polygon fill="#191970" stroke="#191970" points="965.7959,-28.6261 962.2958,-18.6261 958.7959,-28.6262 965.7959,-28.6261"/>
</g>
<!-- Node18&#45;&gt;Node19 -->
<g id="edge28" class="edge">
<title>Node18&#45;&gt;Node19</title>
<path fill="none" stroke="#191970" d="M928.0788,-116.4646C818.1142,-106.7097 474.9277,-76.2657 371.8576,-67.1224"/>
<polygon fill="#191970" stroke="#191970" points="372.1082,-63.631 361.8381,-66.2336 371.4896,-70.6036 372.1082,-63.631"/>
</g>
<!-- Node20&#45;&gt;Node2 -->
<g id="edge31" class="edge">
<title>Node20&#45;&gt;Node2</title>
<path fill="none" stroke="#191970" d="M2292.1868,-220.4696C2234.1091,-206.6397 2118.0513,-180.2199 2018.2958,-165 1857.1512,-140.4139 1809.9126,-174.202 1653.2958,-129 1635.1539,-123.764 1632.9303,-116.7504 1615.2958,-110 1577.8647,-95.6716 1534.0891,-83.8675 1500.8919,-75.8758"/>
<polygon fill="#191970" stroke="#191970" points="1501.4853,-72.4196 1490.9477,-73.5195 1499.8712,-79.231 1501.4853,-72.4196"/>
</g>
<!-- Node20&#45;&gt;Node4 -->
<g id="edge50" class="edge">
<title>Node20&#45;&gt;Node4</title>
<path fill="none" stroke="#191970" d="M2293.4855,-220.4952C2260.6463,-211.9747 2210.8061,-198.379 2168.2958,-184 2146.5616,-176.6484 2141.7964,-173.0089 2120.2958,-165 2074.8528,-148.0725 2055.4319,-158.954 2017.2958,-129 1986.4667,-104.7852 2000.0607,-79.2963 1969.2958,-55 1941.8879,-33.3548 1903.3592,-21.5265 1875.746,-15.4004"/>
<polygon fill="#191970" stroke="#191970" points="1876.2461,-11.9297 1865.7434,-13.3232 1874.8228,-18.7835 1876.2461,-11.9297"/>
</g>
<!-- Node20&#45;&gt;Node6 -->
<g id="edge51" class="edge">
<title>Node20&#45;&gt;Node6</title>
<path fill="none" stroke="#191970" d="M2343.7832,-220.4121C2364.3368,-207.6195 2403.2521,-183.7674 2437.2958,-165 2468.2797,-147.9194 2489.78,-159.1483 2508.2958,-129 2525.5078,-100.9746 2521.886,-84.9497 2508.2958,-55 2502.6419,-42.54 2491.7031,-32.1506 2481.3114,-24.4602"/>
<polygon fill="#191970" stroke="#191970" points="2483.0653,-21.4191 2472.839,-18.6489 2479.1058,-27.1916 2483.0653,-21.4191"/>
</g>
<!-- Node20&#45;&gt;Node7 -->
<g id="edge52" class="edge">
<title>Node20&#45;&gt;Node7</title>
<path fill="none" stroke="#191970" d="M2278.5905,-223.6433C2216.1421,-216.0932 2106.9506,-201.7942 2014.2958,-184 1978.8316,-177.1892 1971.076,-169.8862 1935.2958,-165 1879.3353,-157.358 958.5196,-169.6383 919.2958,-129 891.3688,-100.0659 925.0591,-51.7055 946.745,-26.2845"/>
<polygon fill="#191970" stroke="#191970" points="949.5331,-28.415 953.5328,-18.6041 944.2879,-23.7794 949.5331,-28.415"/>
</g>
<!-- Node20&#45;&gt;Node21 -->
<g id="edge32" class="edge">
<title>Node20&#45;&gt;Node21</title>
<path fill="none" stroke="#191970" d="M2315.2598,-220.4179C2302.0945,-211.8992 2282.185,-199.0166 2266.8018,-189.0627"/>
<polygon fill="#191970" stroke="#191970" points="2268.6498,-186.0897 2258.3527,-183.5956 2264.847,-191.9667 2268.6498,-186.0897"/>
</g>
<!-- Node24 -->
<g id="node25" class="node">
<title>Node24</title>
<g id="a_node25"><a xlink:title=" ">
<polygon fill="#ffffff" stroke="#bfbfbf" points="2560.1801,-110.5 2560.1801,-128.5 2608.4115,-128.5 2608.4115,-110.5 2560.1801,-110.5"/>
<text text-anchor="middle" x="2584.2958" y="-116.5" font-family="Helvetica,sans-Serif" font-size="10.00" fill="#000000">cassert</text>
</a>
</g>
</g>
<!-- Node20&#45;&gt;Node24 -->
<g id="edge49" class="edge">
<title>Node20&#45;&gt;Node24</title>
<path fill="none" stroke="#191970" d="M2350.1635,-220.4982C2395.0855,-201.1201 2501.1236,-155.3782 2553.676,-132.7085"/>
<polygon fill="#191970" stroke="#191970" points="2555.3439,-135.8009 2563.1397,-128.6261 2552.5713,-129.3734 2555.3439,-135.8009"/>
</g>
<!-- Node21&#45;&gt;Node2 -->
<g id="edge33" class="edge">
<title>Node21&#45;&gt;Node2</title>
<path fill="none" stroke="#191970" d="M2210.0652,-172.3222C2097.9284,-165.0959 1745.9628,-141.6531 1696.2958,-129 1676.0489,-123.8419 1673.1434,-116.5279 1653.2958,-110 1626.1504,-101.0719 1555.1898,-85.9072 1504.6022,-75.5592"/>
<polygon fill="#191970" stroke="#191970" points="1505.2728,-72.124 1494.7753,-73.5571 1503.8753,-78.9831 1505.2728,-72.124"/>
</g>
<!-- Node21&#45;&gt;Node4 -->
<g id="edge42" class="edge">
<title>Node21&#45;&gt;Node4</title>
<path fill="none" stroke="#191970" d="M2210.4041,-167.6997C2170.5139,-159.1739 2107.2905,-143.867 2088.2958,-129 2058.3417,-105.5551 2075.9886,-77.4692 2045.2958,-55 2018.6439,-35.489 1926.7325,-20.718 1875.8566,-13.8123"/>
<polygon fill="#191970" stroke="#191970" points="1876.035,-10.3054 1865.6614,-12.4593 1875.114,-17.2446 1876.035,-10.3054"/>
</g>
<!-- Node21&#45;&gt;Node5 -->
<g id="edge43" class="edge">
<title>Node21&#45;&gt;Node5</title>
<path fill="none" stroke="#191970" d="M2210.1329,-173.3952C2005.7353,-166.777 952.3547,-132.549 919.2958,-129 783.2105,-114.3907 750.8579,-99.0135 616.2958,-74 503.7771,-53.0841 370.4178,-27.4679 309.975,-15.8129"/>
<polygon fill="#191970" stroke="#191970" points="310.3786,-12.3263 299.8967,-13.8686 309.0526,-19.1996 310.3786,-12.3263"/>
</g>
<!-- Node21&#45;&gt;Node6 -->
<g id="edge47" class="edge">
<title>Node21&#45;&gt;Node6</title>
<path fill="none" stroke="#191970" d="M2278.1899,-167.7081C2303.4089,-161.2474 2337.4473,-149.4011 2361.2958,-129 2390.2008,-104.2733 2380.1071,-84.3568 2404.2958,-55 2413.4735,-43.8615 2425.51,-33.1428 2435.6912,-24.9096"/>
<polygon fill="#191970" stroke="#191970" points="2437.9962,-27.5498 2443.7035,-18.6235 2433.6754,-22.0424 2437.9962,-27.5498"/>
</g>
<!-- Node21&#45;&gt;Node7 -->
<g id="edge48" class="edge">
<title>Node21&#45;&gt;Node7</title>
<path fill="none" stroke="#191970" d="M2210.3971,-168.7309C2121.2385,-153.5302 1872.8239,-111.0028 1666.2958,-74 1620.4753,-65.7905 1609.4592,-60.9878 1563.2958,-55 1346.6626,-26.9006 1083.6782,-14.3723 994.0037,-10.7056"/>
<polygon fill="#191970" stroke="#191970" points="994.074,-7.2057 983.9417,-10.3019 993.7933,-14.2001 994.074,-7.2057"/>
</g>
<!-- Node22 -->
<g id="node23" class="node">
<title>Node22</title>
<g id="a_node23"><a xlink:href="Ioss__Field_8h.html" target="_top" xlink:title=" ">
<polygon fill="#ffffff" stroke="#000000" points="1705.3378,-110.5 1705.3378,-128.5 1775.2538,-128.5 1775.2538,-110.5 1705.3378,-110.5"/>
<text text-anchor="middle" x="1740.2958" y="-116.5" font-family="Helvetica,sans-Serif" font-size="10.00" fill="#000000">Ioss_Field.h</text>
</a>
</g>
</g>
<!-- Node21&#45;&gt;Node22 -->
<g id="edge34" class="edge">
<title>Node21&#45;&gt;Node22</title>
<path fill="none" stroke="#191970" d="M2210.2033,-172.1665C2134.3149,-166.737 1945.8011,-151.9472 1789.2958,-129 1788.0178,-128.8126 1786.7225,-128.6148 1785.4162,-128.4085"/>
<polygon fill="#191970" stroke="#191970" points="1785.7375,-124.9131 1775.2928,-126.6902 1784.5661,-131.8144 1785.7375,-124.9131"/>
</g>
<!-- Node21&#45;&gt;Node23 -->
<g id="edge39" class="edge">
<title>Node21&#45;&gt;Node23</title>
<path fill="none" stroke="#191970" d="M2210.3706,-172.31C2075.1017,-163.5778 1574.6451,-131.2714 1431.0469,-122.0015"/>
<polygon fill="#191970" stroke="#191970" points="1431.1528,-118.5012 1420.948,-121.3496 1430.7018,-125.4866 1431.1528,-118.5012"/>
</g>
<!-- Node21&#45;&gt;Node24 -->
<g id="edge40" class="edge">
<title>Node21&#45;&gt;Node24</title>
<path fill="none" stroke="#191970" d="M2278.1393,-169.0253C2343.0559,-158.5241 2484.4162,-135.657 2549.8232,-125.0765"/>
<polygon fill="#191970" stroke="#191970" points="2550.7016,-128.4799 2560.0143,-123.4279 2549.5837,-121.5698 2550.7016,-128.4799"/>
</g>
<!-- Node25 -->
<g id="node26" class="node">
<title>Node25</title>
<g id="a_node26"><a xlink:title=" ">
<polygon fill="#ffffff" stroke="#bfbfbf" points="2097.6801,-110.5 2097.6801,-128.5 2140.9115,-128.5 2140.9115,-110.5 2097.6801,-110.5"/>
<text text-anchor="middle" x="2119.2958" y="-116.5" font-family="Helvetica,sans-Serif" font-size="10.00" fill="#000000">cmath</text>
</a>
</g>
</g>
<!-- Node21&#45;&gt;Node25 -->
<g id="edge41" class="edge">
<title>Node21&#45;&gt;Node25</title>
<path fill="none" stroke="#191970" d="M2223.6546,-165.4179C2203.3891,-156.5011 2172.2573,-142.803 2149.2668,-132.6873"/>
<polygon fill="#191970" stroke="#191970" points="2150.5304,-129.4195 2139.9677,-128.5956 2147.7112,-135.8267 2150.5304,-129.4195"/>
</g>
<!-- Node26 -->
<g id="node27" class="node">
<title>Node26</title>
<g id="a_node27"><a xlink:title=" ">
<polygon fill="#ffffff" stroke="#bfbfbf" points="2159.1234,-110.5 2159.1234,-128.5 2203.4681,-128.5 2203.4681,-110.5 2159.1234,-110.5"/>
<text text-anchor="middle" x="2181.2958" y="-116.5" font-family="Helvetica,sans-Serif" font-size="10.00" fill="#000000">cstdlib</text>
</a>
</g>
</g>
<!-- Node21&#45;&gt;Node26 -->
<g id="edge44" class="edge">
<title>Node21&#45;&gt;Node26</title>
<path fill="none" stroke="#191970" d="M2233.8926,-165.4179C2224.5558,-157.2667 2210.6425,-145.1201 2199.4706,-135.3669"/>
<polygon fill="#191970" stroke="#191970" points="2201.76,-132.7194 2191.925,-128.7795 2197.1564,-137.9927 2201.76,-132.7194"/>
</g>
<!-- Node27 -->
<g id="node28" class="node">
<title>Node27</title>
<g id="a_node28"><a xlink:title=" ">
<polygon fill="#ffffff" stroke="#bfbfbf" points="2221.1234,-110.5 2221.1234,-128.5 2275.4681,-128.5 2275.4681,-110.5 2221.1234,-110.5"/>
<text text-anchor="middle" x="2248.2958" y="-116.5" font-family="Helvetica,sans-Serif" font-size="10.00" fill="#000000">iostream</text>
</a>
</g>
</g>
<!-- Node21&#45;&gt;Node27 -->
<g id="edge45" class="edge">
<title>Node21&#45;&gt;Node27</title>
<path fill="none" stroke="#191970" d="M2244.9563,-165.4179C2245.4801,-158.2164 2246.2306,-147.8962 2246.8876,-138.8632"/>
<polygon fill="#191970" stroke="#191970" points="2250.3862,-139.007 2247.6209,-128.7795 2243.4047,-138.4992 2250.3862,-139.007"/>
</g>
<!-- Node28 -->
<g id="node29" class="node">
<title>Node28</title>
<g id="a_node29"><a xlink:title=" ">
<polygon fill="#ffffff" stroke="#bfbfbf" points="2293.8944,-110.5 2293.8944,-128.5 2352.6972,-128.5 2352.6972,-110.5 2293.8944,-110.5"/>
<text text-anchor="middle" x="2323.2958" y="-116.5" font-family="Helvetica,sans-Serif" font-size="10.00" fill="#000000">stdexcept</text>
</a>
</g>
</g>
<!-- Node21&#45;&gt;Node28 -->
<g id="edge46" class="edge">
<title>Node21&#45;&gt;Node28</title>
<path fill="none" stroke="#191970" d="M2257.341,-165.4179C2269.4627,-156.9788 2287.7358,-144.257 2301.9765,-134.3426"/>
<polygon fill="#191970" stroke="#191970" points="2304.024,-137.1818 2310.2312,-128.5956 2300.0244,-131.4369 2304.024,-137.1818"/>
</g>
<!-- Node22&#45;&gt;Node2 -->
<g id="edge35" class="edge">
<title>Node22&#45;&gt;Node2</title>
<path fill="none" stroke="#191970" d="M1705.2367,-112.6779C1700.5504,-111.7733 1695.8069,-110.8614 1691.2958,-110 1628.7672,-98.0604 1557.1019,-84.6161 1508.0852,-75.4572"/>
<polygon fill="#191970" stroke="#191970" points="1508.4534,-71.9656 1497.9808,-73.57 1507.1681,-78.8466 1508.4534,-71.9656"/>
</g>
<!-- Node22&#45;&gt;Node4 -->
<g id="edge36" class="edge">
<title>Node22&#45;&gt;Node4</title>
<path fill="none" stroke="#191970" d="M1746.4143,-110.2824C1755.1996,-97.3356 1772.2182,-73.3014 1789.2958,-55 1799.2701,-44.311 1811.533,-33.487 1821.6448,-25.0793"/>
<polygon fill="#191970" stroke="#191970" points="1823.9999,-27.675 1829.5353,-18.6411 1819.5745,-22.2513 1823.9999,-27.675"/>
</g>
<!-- Node22&#45;&gt;Node6 -->
<g id="edge37" class="edge">
<title>Node22&#45;&gt;Node6</title>
<path fill="none" stroke="#191970" d="M1753.4217,-110.452C1775.4135,-95.8326 1821.6008,-67.404 1865.2958,-55 1972.2623,-24.6346 2319.7772,-13.1123 2425.4997,-10.2583"/>
<polygon fill="#191970" stroke="#191970" points="2425.8897,-13.7494 2435.7942,-9.9875 2425.7055,-6.7518 2425.8897,-13.7494"/>
</g>
<!-- Node22&#45;&gt;Node7 -->
<g id="edge38" class="edge">
<title>Node22&#45;&gt;Node7</title>
<path fill="none" stroke="#191970" d="M1713.7622,-110.4014C1670.9029,-96.105 1583.5299,-68.6107 1507.2958,-55 1314.5519,-20.5877 1078.6998,-12.0918 994.2498,-10.0887"/>
<polygon fill="#191970" stroke="#191970" points="994.1093,-6.5848 984.0338,-9.8611 993.9534,-13.5831 994.1093,-6.5848"/>
</g>
<!-- Node29&#45;&gt;Node2 -->
<g id="edge54" class="edge">
<title>Node29&#45;&gt;Node2</title>
<path fill="none" stroke="#191970" d="M1469.6944,-220.4936C1427.5578,-211.9205 1370.5551,-198.2454 1352.2958,-184 1330.1724,-166.7399 1328.4179,-156.141 1321.2958,-129 1319.1524,-120.8321 1316.4263,-116.899 1321.2958,-110 1330.6838,-96.6993 1367.173,-84.5115 1398.8021,-76.1046"/>
<polygon fill="#191970" stroke="#191970" points="1400.0506,-79.3972 1408.86,-73.5113 1398.3028,-72.6189 1400.0506,-79.3972"/>
</g>
<!-- Node29&#45;&gt;Node4 -->
<g id="edge58" class="edge">
<title>Node29&#45;&gt;Node4</title>
<path fill="none" stroke="#191970" d="M1464.6358,-220.4713C1438.4458,-213.8894 1407.8147,-202.7218 1385.2958,-184 1357.8761,-161.2038 1331.7733,-137.6449 1354.2958,-110 1361.5921,-101.0442 1697.2942,-36.7779 1807.0051,-15.9775"/>
<polygon fill="#191970" stroke="#191970" points="1807.7243,-19.4036 1816.8982,-14.1036 1806.4215,-12.5259 1807.7243,-19.4036"/>
</g>
<!-- Node29&#45;&gt;Node6 -->
<g id="edge59" class="edge">
<title>Node29&#45;&gt;Node6</title>
<path fill="none" stroke="#191970" d="M1580.9842,-220.8303C1583.791,-220.531 1586.5715,-220.2521 1589.2958,-220 1743.9523,-205.689 2138.3826,-228.1398 2287.2958,-184 2287.6612,-183.8917 2382.0223,-129.2655 2382.2958,-129 2413.381,-98.8232 2436.9412,-53.0278 2448.4631,-27.7909"/>
<polygon fill="#191970" stroke="#191970" points="2451.6734,-29.1854 2452.5281,-18.6251 2445.2744,-26.3474 2451.6734,-29.1854"/>
</g>
<!-- Node29&#45;&gt;Node7 -->
<g id="edge61" class="edge">
<title>Node29&#45;&gt;Node7</title>
<path fill="none" stroke="#191970" d="M1469.1988,-220.4971C1430.79,-212.7694 1376.3574,-200.2999 1330.2958,-184 1196.1188,-136.5187 1045.4246,-55.818 987.1466,-23.4955"/>
<polygon fill="#191970" stroke="#191970" points="988.7306,-20.3715 978.2916,-18.5612 985.3233,-26.4862 988.7306,-20.3715"/>
</g>
<!-- Node29&#45;&gt;Node30 -->
<g id="edge55" class="edge">
<title>Node29&#45;&gt;Node30</title>
<path fill="none" stroke="#191970" d="M1504.9203,-220.4179C1492.4918,-211.9788 1473.7561,-199.257 1459.1548,-189.3426"/>
<polygon fill="#191970" stroke="#191970" points="1460.9304,-186.3176 1450.6912,-183.5956 1456.9981,-192.1088 1460.9304,-186.3176"/>
</g>
<!-- Node31 -->
<g id="node32" class="node">
<title>Node31</title>
<g id="a_node32"><a xlink:title=" ">
<polygon fill="#ffffff" stroke="#bfbfbf" points="1535.9931,-165.5 1535.9931,-183.5 1622.5985,-183.5 1622.5985,-165.5 1535.9931,-165.5"/>
<text text-anchor="middle" x="1579.2958" y="-171.5" font-family="Helvetica,sans-Serif" font-size="10.00" fill="#000000">unordered_map</text>
</a>
</g>
</g>
<!-- Node29&#45;&gt;Node31 -->
<g id="edge60" class="edge">
<title>Node29&#45;&gt;Node31</title>
<path fill="none" stroke="#191970" d="M1528.3687,-220.4179C1537.3213,-212.3458 1550.6196,-200.3556 1561.3821,-190.6517"/>
<polygon fill="#191970" stroke="#191970" points="1563.9209,-193.0753 1569.004,-183.7795 1559.2334,-187.8764 1563.9209,-193.0753"/>
</g>
<!-- Node30&#45;&gt;Node5 -->
<g id="edge56" class="edge">
<title>Node30&#45;&gt;Node5</title>
<path fill="none" stroke="#191970" d="M1394.528,-173.6429C1249.2708,-170.4909 775.5976,-158.1737 626.2958,-129 504.1925,-105.1409 366.4369,-48.6803 307.0948,-22.8353"/>
<polygon fill="#191970" stroke="#191970" points="308.1648,-19.4828 297.6013,-18.6695 305.352,-25.8928 308.1648,-19.4828"/>
</g>
<!-- Node30&#45;&gt;Node6 -->
<g id="edge57" class="edge">
<title>Node30&#45;&gt;Node6</title>
<path fill="none" stroke="#191970" d="M1480.1215,-169.522C1545.7298,-161.7519 1675.0097,-145.873 1784.2958,-129 2032.9394,-90.6111 2331.383,-33.7014 2425.9933,-15.3976"/>
<polygon fill="#191970" stroke="#191970" points="2426.8578,-18.7952 2436.0093,-13.4566 2425.526,-11.9231 2426.8578,-18.7952"/>
</g>
<!-- Node35&#45;&gt;Node2 -->
<g id="edge73" class="edge">
<title>Node35&#45;&gt;Node2</title>
<path fill="none" stroke="#191970" d="M1507.0304,-330.3351C1466.9399,-297.7008 1333.4174,-188.8383 1330.2958,-184 1316.5592,-162.7096 1318.6589,-154.113 1315.2958,-129 1314.1749,-120.6303 1310.3774,-116.8643 1315.2958,-110 1325.0867,-96.3355 1362.6993,-84.2784 1395.592,-76.0148"/>
<polygon fill="#191970" stroke="#191970" points="1396.7247,-79.3414 1405.6125,-73.5745 1395.0683,-72.5401 1396.7247,-79.3414"/>
</g>
<!-- Node35&#45;&gt;Node4 -->
<g id="edge97" class="edge">
<title>Node35&#45;&gt;Node4</title>
<path fill="none" stroke="#191970" d="M1575.2142,-334.8542C1656.1493,-327.9033 1809.0236,-313.4988 1938.2958,-294 1982.1661,-287.3828 1992.4049,-281.4794 2036.2958,-275 2114.3017,-263.4844 2336.4435,-297.5164 2389.2958,-239 2394.9559,-232.7333 2394.6762,-226.5084 2389.2958,-220 2335.0908,-154.4305 2282.5033,-209.3548 2201.2958,-184 2181.3517,-177.773 2177.554,-173.1034 2158.2958,-165 2118.5866,-148.2914 2104.4956,-152.3575 2068.2958,-129 2028.4133,-103.2663 2032.2476,-78.9956 1991.2958,-55 1954.8016,-33.6163 1907.3279,-21.4261 1875.6599,-15.1485"/>
<polygon fill="#191970" stroke="#191970" points="1876.0408,-11.6586 1865.5649,-13.2415 1874.7414,-18.537 1876.0408,-11.6586"/>
</g>
<!-- Node35&#45;&gt;Node5 -->
<g id="edge98" class="edge">
<title>Node35&#45;&gt;Node5</title>
<path fill="none" stroke="#191970" d="M1461.3982,-337.9051C1259.0522,-332.1075 581.2554,-311.5694 485.2958,-294 372.2569,-273.3036 322.6488,-274.0826 251.2958,-184 213.7717,-136.6261 179.6452,-108.2117 208.2958,-55 216.1996,-40.3206 231.142,-29.5935 245.106,-22.2549"/>
<polygon fill="#191970" stroke="#191970" points="247.036,-25.2097 254.5185,-17.7088 243.9916,-18.9064 247.036,-25.2097"/>
</g>
<!-- Node35&#45;&gt;Node6 -->
<g id="edge99" class="edge">
<title>Node35&#45;&gt;Node6</title>
<path fill="none" stroke="#191970" d="M1575.4591,-337.1593C1770.8268,-328.2478 2409.2858,-291.3444 2579.2958,-184 2608.5264,-165.5438 2621.0665,-160.9382 2634.2958,-129 2647.6361,-96.7937 2634.7315,-77.7236 2608.2958,-55 2590.0133,-39.2847 2525.668,-23.7878 2486.7994,-15.5581"/>
<polygon fill="#191970" stroke="#191970" points="2487.0742,-12.0406 2476.5715,-13.4354 2485.6517,-18.8945 2487.0742,-12.0406"/>
</g>
<!-- Node35&#45;&gt;Node7 -->
<g id="edge100" class="edge">
<title>Node35&#45;&gt;Node7</title>
<path fill="none" stroke="#191970" d="M1461.3825,-337.9111C1238.9596,-331.2615 436.1117,-302.9853 343.2958,-239 275.1355,-192.0117 246.664,-102.7459 314.2958,-55 364.9368,-19.249 806.5664,-11.3457 930.234,-9.8268"/>
<polygon fill="#191970" stroke="#191970" points="930.5846,-13.323 940.5429,-9.7061 930.5026,-6.3235 930.5846,-13.323"/>
</g>
<!-- Node35&#45;&gt;Node13 -->
<g id="edge74" class="edge">
<title>Node35&#45;&gt;Node13</title>
<path fill="none" stroke="#191970" d="M1461.2289,-332.4783C1376.669,-322.0739 1218.7808,-302.6469 1132.1113,-291.9829"/>
<polygon fill="#191970" stroke="#191970" points="1132.5131,-288.506 1122.1605,-290.7585 1131.6582,-295.4536 1132.5131,-288.506"/>
</g>
<!-- Node35&#45;&gt;Node17 -->
<g id="edge75" class="edge">
<title>Node35&#45;&gt;Node17</title>
<path fill="none" stroke="#191970" d="M1494.3184,-330.4982C1442.2729,-310.959 1318.831,-264.6156 1258.9849,-242.1478"/>
<polygon fill="#191970" stroke="#191970" points="1260.1967,-238.8642 1249.6045,-238.6261 1257.7363,-245.4176 1260.1967,-238.8642"/>
</g>
<!-- Node35&#45;&gt;Node22 -->
<g id="edge76" class="edge">
<title>Node35&#45;&gt;Node22</title>
<path fill="none" stroke="#191970" d="M1575.2647,-331.3181C1623.251,-323.4454 1687.1987,-310.3425 1707.2958,-294 1753.6881,-256.2748 1748.7288,-175.5612 1743.5975,-138.6433"/>
<polygon fill="#191970" stroke="#191970" points="1747.0451,-138.0349 1742.0562,-128.6882 1740.1275,-139.106 1747.0451,-138.0349"/>
</g>
<!-- Node35&#45;&gt;Node29 -->
<g id="edge87" class="edge">
<title>Node35&#45;&gt;Node29</title>
<path fill="none" stroke="#191970" d="M1518.2958,-330.4982C1518.2958,-312.6913 1518.2958,-272.6225 1518.2958,-248.6515"/>
<polygon fill="#191970" stroke="#191970" points="1521.7959,-248.6261 1518.2958,-238.6261 1514.7959,-248.6262 1521.7959,-248.6261"/>
</g>
<!-- Node35&#45;&gt;Node30 -->
<g id="edge86" class="edge">
<title>Node35&#45;&gt;Node30</title>
<path fill="none" stroke="#191970" d="M1564.3659,-330.4912C1636.6408,-314.383 1763.6868,-276.9116 1715.2958,-220 1683.0636,-182.0924 1543.3921,-192.0901 1494.2958,-184 1493.0151,-183.789 1491.7183,-183.575 1490.4103,-183.3589"/>
<polygon fill="#191970" stroke="#191970" points="1490.6812,-179.8562 1480.2437,-181.6753 1489.5375,-186.7622 1490.6812,-179.8562"/>
</g>
<!-- Node35&#45;&gt;Node32 -->
<g id="edge88" class="edge">
<title>Node35&#45;&gt;Node32</title>
<path fill="none" stroke="#191970" d="M1502.5836,-330.4982C1469.2522,-311.4021 1391.2337,-266.704 1351.1035,-243.7128"/>
<polygon fill="#191970" stroke="#191970" points="1352.6418,-240.5604 1342.2251,-238.6261 1349.162,-246.6342 1352.6418,-240.5604"/>
</g>
<!-- Node36 -->
<g id="node37" class="node">
<title>Node36</title>
<g id="a_node37"><a xlink:href="Ioss__FieldManager_8h.html" target="_top" xlink:title=" ">
<polygon fill="#ffffff" stroke="#000000" points="1951.8773,-220.5 1951.8773,-238.5 2060.7142,-238.5 2060.7142,-220.5 1951.8773,-220.5"/>
<text text-anchor="middle" x="2006.2958" y="-226.5" font-family="Helvetica,sans-Serif" font-size="10.00" fill="#000000">Ioss_FieldManager.h</text>
</a>
</g>
</g>
<!-- Node35&#45;&gt;Node36 -->
<g id="edge77" class="edge">
<title>Node35&#45;&gt;Node36</title>
<path fill="none" stroke="#191970" d="M1575.344,-334.9492C1639.0006,-329.0226 1744.6952,-316.6386 1833.2958,-294 1885.1644,-280.7469 1942.9878,-257.3337 1976.9197,-242.6581"/>
<polygon fill="#191970" stroke="#191970" points="1978.4787,-245.7965 1986.2411,-238.5857 1975.6763,-239.382 1978.4787,-245.7965"/>
</g>
<!-- Node35&#45;&gt;Node38 -->
<g id="edge89" class="edge">
<title>Node35&#45;&gt;Node38</title>
<path fill="none" stroke="#191970" d="M1575.2656,-333.8638C1646.0983,-326.4878 1770.5778,-312.3158 1876.2958,-294 1964.1683,-278.7759 2065.5653,-255.0636 2123.0878,-241.0276"/>
<polygon fill="#191970" stroke="#191970" points="2124.0825,-244.3875 2132.9621,-238.608 2122.4164,-237.5887 2124.0825,-244.3875"/>
</g>
<!-- Node36&#45;&gt;Node2 -->
<g id="edge78" class="edge">
<title>Node36&#45;&gt;Node2</title>
<path fill="none" stroke="#191970" d="M1951.5532,-220.5227C1870.4029,-206.2931 1714.1218,-175.3359 1587.2958,-129 1547.0771,-114.3061 1502.5309,-92.3983 1475.2189,-78.2794"/>
<polygon fill="#191970" stroke="#191970" points="1476.7976,-75.1554 1466.3125,-73.6348 1473.5608,-81.3621 1476.7976,-75.1554"/>
</g>
<!-- Node36&#45;&gt;Node4 -->
<g id="edge81" class="edge">
<title>Node36&#45;&gt;Node4</title>
<path fill="none" stroke="#191970" d="M1957.7137,-220.4463C1919.9624,-212.3666 1871.9565,-199.4434 1859.2958,-184 1822.3586,-138.9444 1830.5733,-63.7861 1837.0854,-28.6722"/>
<polygon fill="#191970" stroke="#191970" points="1840.5368,-29.2619 1839.0805,-18.7676 1833.6746,-27.8796 1840.5368,-29.2619"/>
</g>
<!-- Node36&#45;&gt;Node6 -->
<g id="edge83" class="edge">
<title>Node36&#45;&gt;Node6</title>
<path fill="none" stroke="#191970" d="M2061.0191,-223.7007C2137.7266,-215.2078 2273.1221,-198.7879 2320.2958,-184 2338.3136,-178.3518 2341.3613,-173.3525 2358.2958,-165 2391.0972,-148.8215 2409.9261,-157.9358 2432.2958,-129 2454.9672,-99.6738 2457.8494,-54.5293 2457.4093,-28.9453"/>
<polygon fill="#191970" stroke="#191970" points="2460.8975,-28.5587 2457.0324,-18.6941 2453.9022,-28.8159 2460.8975,-28.5587"/>
</g>
<!-- Node36&#45;&gt;Node7 -->
<g id="edge85" class="edge">
<title>Node36&#45;&gt;Node7</title>
<path fill="none" stroke="#191970" d="M1951.7933,-223.133C1890.8917,-215.5976 1789.5147,-201.7945 1703.2958,-184 1670.8835,-177.3105 1663.7728,-171.3681 1631.2958,-165 1509.4692,-141.1123 1475.648,-155.1913 1354.2958,-129 1217.6457,-99.5069 1059.8328,-44.8895 993.8448,-21.0897"/>
<polygon fill="#191970" stroke="#191970" points="994.654,-17.6603 984.0598,-17.5432 992.2687,-24.2413 994.654,-17.6603"/>
</g>
<!-- Node36&#45;&gt;Node21 -->
<g id="edge80" class="edge">
<title>Node36&#45;&gt;Node21</title>
<path fill="none" stroke="#191970" d="M2045.3301,-220.4795C2087.9062,-210.6405 2155.9002,-194.9276 2200.3276,-184.6607"/>
<polygon fill="#191970" stroke="#191970" points="2201.3023,-188.0278 2210.2575,-182.366 2199.7262,-181.2075 2201.3023,-188.0278"/>
</g>
<!-- Node36&#45;&gt;Node22 -->
<g id="edge79" class="edge">
<title>Node36&#45;&gt;Node22</title>
<path fill="none" stroke="#191970" d="M1951.6034,-221.4817C1914.8927,-214.7232 1866.1439,-203.0304 1826.2958,-184 1800.0511,-171.4662 1773.8906,-150.291 1757.4369,-135.6395"/>
<polygon fill="#191970" stroke="#191970" points="1759.5177,-132.8004 1749.7685,-128.6526 1754.8032,-137.9748 1759.5177,-132.8004"/>
</g>
<!-- Node36&#45;&gt;Node31 -->
<g id="edge84" class="edge">
<title>Node36&#45;&gt;Node31</title>
<path fill="none" stroke="#191970" d="M1951.6566,-223.521C1879.3773,-215.4424 1748.0673,-200.1792 1636.2958,-184 1635.2036,-183.8419 1634.1001,-183.6799 1632.9881,-183.5145"/>
<polygon fill="#191970" stroke="#191970" points="1633.2508,-180.0138 1622.8351,-181.9535 1632.187,-186.9325 1633.2508,-180.0138"/>
</g>
<!-- Node36&#45;&gt;Node37 -->
<g id="edge82" class="edge">
<title>Node36&#45;&gt;Node37</title>
<path fill="none" stroke="#191970" d="M1988.2967,-220.4179C1970.9408,-211.6603 1944.4447,-198.2907 1924.5112,-188.2326"/>
<polygon fill="#191970" stroke="#191970" points="1925.8262,-184.9758 1915.3217,-183.5956 1922.6728,-191.2253 1925.8262,-184.9758"/>
</g>
<!-- Node38&#45;&gt;Node2 -->
<g id="edge90" class="edge">
<title>Node38&#45;&gt;Node2</title>
<path fill="none" stroke="#191970" d="M2146.5002,-220.4768C2109.6574,-206.285 2034.4612,-178.9329 1968.2958,-165 1818.3034,-133.4151 1774.0235,-166.086 1625.2958,-129 1603.434,-123.5487 1599.3697,-117.9715 1578.2958,-110 1547.3134,-98.2804 1511.7965,-85.8242 1485.8843,-76.9133"/>
<polygon fill="#191970" stroke="#191970" points="1486.7007,-73.4933 1476.1061,-73.5621 1484.4312,-80.1152 1486.7007,-73.4933"/>
</g>
<!-- Node38&#45;&gt;Node6 -->
<g id="edge95" class="edge">
<title>Node38&#45;&gt;Node6</title>
<path fill="none" stroke="#191970" d="M2219.9196,-220.4672C2258.4955,-212.8328 2312.582,-200.4986 2358.2958,-184 2364.8161,-181.6467 2466.6303,-134.8836 2470.2958,-129 2489.7217,-97.8186 2475.8482,-53.079 2465.2607,-28.1276"/>
<polygon fill="#191970" stroke="#191970" points="2468.3309,-26.4216 2461.031,-18.7429 2461.9491,-29.2979 2468.3309,-26.4216"/>
</g>
<!-- Node38&#45;&gt;Node7 -->
<g id="edge96" class="edge">
<title>Node38&#45;&gt;Node7</title>
<path fill="none" stroke="#191970" d="M2115.9532,-221.905C2074.6833,-214.9711 2016.6169,-202.8816 1968.2958,-184 1952.5325,-177.8405 1951.4084,-170.1773 1935.2958,-165 1781.7856,-115.6743 1733.8179,-152.4758 1574.2958,-129 1350.4764,-96.062 1084.2545,-37.2687 994.0028,-16.7809"/>
<polygon fill="#191970" stroke="#191970" points="994.6512,-13.339 984.1237,-14.5314 993.097,-20.1643 994.6512,-13.339"/>
</g>
<!-- Node38&#45;&gt;Node10 -->
<g id="edge94" class="edge">
<title>Node38&#45;&gt;Node10</title>
<path fill="none" stroke="#191970" d="M2116.1511,-223.8074C2101.0267,-222.3623 2084.5255,-220.9514 2069.2958,-220 1470.5419,-182.5954 736.5059,-175.7195 584.5986,-174.6692"/>
<polygon fill="#191970" stroke="#191970" points="584.3221,-171.1673 574.2991,-174.6009 584.2757,-178.1672 584.3221,-171.1673"/>
</g>
<!-- Node38&#45;&gt;Node21 -->
<g id="edge91" class="edge">
<title>Node38&#45;&gt;Node21</title>
<path fill="none" stroke="#191970" d="M2181.6805,-220.4179C2193.0798,-212.0584 2210.2095,-199.4966 2223.6723,-189.6239"/>
<polygon fill="#191970" stroke="#191970" points="2225.8984,-192.3317 2231.8927,-183.5956 2221.7588,-186.6869 2225.8984,-192.3317"/>
</g>
<!-- Node38&#45;&gt;Node37 -->
<g id="edge93" class="edge">
<title>Node38&#45;&gt;Node37</title>
<path fill="none" stroke="#191970" d="M2122.3081,-220.4676C2075.9747,-211.4895 2003.1736,-197.1908 1940.2958,-184 1939.2108,-183.7724 1938.1108,-183.5401 1937.001,-183.3044"/>
<polygon fill="#191970" stroke="#191970" points="1937.399,-179.8098 1926.886,-181.1242 1935.924,-186.6527 1937.399,-179.8098"/>
</g>
<!-- Node38&#45;&gt;Node39 -->
<g id="edge92" class="edge">
<title>Node38&#45;&gt;Node39</title>
<path fill="none" stroke="#191970" d="M2222.2531,-221.7946C2301.5509,-210.2565 2448.8181,-188.8288 2514.3606,-179.2922"/>
<polygon fill="#191970" stroke="#191970" points="2515.1294,-182.7172 2524.5212,-177.8138 2514.1215,-175.7902 2515.1294,-182.7172"/>
</g>
<!-- Node42&#45;&gt;Node1 -->
<g id="edge129" class="edge">
<title>Node42&#45;&gt;Node1</title>
<path fill="none" stroke="#191970" d="M2029.4855,-504.0155C1739.862,-500.9755 334.2958,-481.7286 334.2958,-394.5 334.2958,-394.5 334.2958,-394.5 334.2958,-339.5 334.2958,-296.342 376.8726,-262.2875 405.8986,-244.0859"/>
<polygon fill="#191970" stroke="#191970" points="408.0133,-246.8982 414.7753,-238.7419 404.4029,-240.9011 408.0133,-246.8982"/>
</g>
<!-- Node42&#45;&gt;Node6 -->
<g id="edge134" class="edge">
<title>Node42&#45;&gt;Node6</title>
<path fill="none" stroke="#191970" d="M2133.0496,-497.1063C2184.4618,-489.3136 2265.364,-475.8401 2334.2958,-459 2594.0054,-395.5527 2864.2958,-441.8474 2864.2958,-174.5 2864.2958,-174.5 2864.2958,-174.5 2864.2958,-119.5 2864.2958,-82.6774 2844.4378,-72.9664 2812.2958,-55 2756.6986,-23.923 2562.8514,-13.4638 2487.0301,-10.5116"/>
<polygon fill="#191970" stroke="#191970" points="2486.8533,-7.0027 2476.7303,-10.1289 2486.5934,-13.9979 2486.8533,-7.0027"/>
</g>
<!-- Node42&#45;&gt;Node7 -->
<g id="edge135" class="edge">
<title>Node42&#45;&gt;Node7</title>
<path fill="none" stroke="#191970" d="M2029.2396,-503.8077C1774.4012,-500.3087 664.5194,-483.7582 512.2958,-459 428.89,-445.4346 387.9202,-465.8059 330.2958,-404 223.8622,-289.8431 167.3241,-149.8205 291.2958,-55 342.4369,-15.8844 803.5785,-10.3957 930.2369,-9.6256"/>
<polygon fill="#191970" stroke="#191970" points="930.4601,-13.1246 940.4407,-9.5696 930.4217,-6.1247 930.4601,-13.1246"/>
</g>
<!-- Node42&#45;&gt;Node12 -->
<g id="edge117" class="edge">
<title>Node42&#45;&gt;Node12</title>
<path fill="none" stroke="#191970" d="M2029.2511,-504.1004C1723.1949,-501.6516 169.7564,-487.8165 130.2958,-459 81.6765,-423.4953 84.3396,-341.6378 88.4883,-304.0348"/>
<polygon fill="#191970" stroke="#191970" points="91.9894,-304.2455 89.7684,-293.886 85.0445,-303.3694 91.9894,-304.2455"/>
</g>
<!-- Node42&#45;&gt;Node21 -->
<g id="edge130" class="edge">
<title>Node42&#45;&gt;Node21</title>
<path fill="none" stroke="#191970" d="M2110.6623,-495.3425C2133.216,-487.5687 2164.5818,-475.1113 2189.2958,-459 2308.6048,-381.2209 2365.9111,-369.7861 2422.2958,-239 2425.6389,-231.2455 2427.475,-226.6697 2422.2958,-220 2405.9838,-198.9939 2335.3897,-186.0475 2288.1564,-179.5743"/>
<polygon fill="#191970" stroke="#191970" points="2288.5397,-176.0946 2278.1671,-178.2533 2287.6219,-183.0342 2288.5397,-176.0946"/>
</g>
<!-- Node42&#45;&gt;Node24 -->
<g id="edge131" class="edge">
<title>Node42&#45;&gt;Node24</title>
<path fill="none" stroke="#191970" d="M2126.3746,-495.4577C2253.268,-468.9973 2608.538,-387.6544 2674.2958,-294 2712.3769,-239.7637 2640.7121,-167.2647 2604.0274,-135.5214"/>
<polygon fill="#191970" stroke="#191970" points="2605.8519,-132.4811 2595.9535,-128.7031 2601.3355,-137.8292 2605.8519,-132.4811"/>
</g>
<!-- Node43 -->
<g id="node44" class="node">
<title>Node43</title>
<g id="a_node44"><a xlink:href="Ioss__ElementBlock_8h.html" target="_top" xlink:title=" ">
<polygon fill="#ffffff" stroke="#000000" points="2070.6063,-440.5 2070.6063,-458.5 2179.9852,-458.5 2179.9852,-440.5 2070.6063,-440.5"/>
<text text-anchor="middle" x="2125.2958" y="-446.5" font-family="Helvetica,sans-Serif" font-size="10.00" fill="#000000">Ioss_ElementBlock.h</text>
</a>
</g>
</g>
<!-- Node42&#45;&gt;Node43 -->
<g id="edge118" class="edge">
<title>Node42&#45;&gt;Node43</title>
<path fill="none" stroke="#191970" d="M2088.5615,-495.4179C2094.7659,-487.6624 2103.8638,-476.29 2111.453,-466.8035"/>
<polygon fill="#191970" stroke="#191970" points="2114.3583,-468.7746 2117.8722,-458.7795 2108.8922,-464.4017 2114.3583,-468.7746"/>
</g>
<!-- Node45 -->
<g id="node46" class="node">
<title>Node45</title>
<g id="a_node46"><a xlink:title=" ">
<polygon fill="#ffffff" stroke="#bfbfbf" points="1943.2245,-440.5 1943.2245,-458.5 2005.3671,-458.5 2005.3671,-440.5 1943.2245,-440.5"/>
<text text-anchor="middle" x="1974.2958" y="-446.5" font-family="Helvetica,sans-Serif" font-size="10.00" fill="#000000">exodusII.h</text>
</a>
</g>
</g>
<!-- Node42&#45;&gt;Node45 -->
<g id="edge132" class="edge">
<title>Node42&#45;&gt;Node45</title>
<path fill="none" stroke="#191970" d="M2063.6269,-495.4179C2046.5895,-486.6603 2020.5796,-473.2907 2001.0118,-463.2326"/>
<polygon fill="#191970" stroke="#191970" points="2002.4848,-460.0544 1991.9909,-458.5956 1999.2847,-466.2801 2002.4848,-460.0544"/>
</g>
<!-- Node46 -->
<g id="node47" class="node">
<title>Node46</title>
<g id="a_node47"><a xlink:title=" ">
<polygon fill="#ffffff" stroke="#bfbfbf" points="2023.6259,-440.5 2023.6259,-458.5 2052.9657,-458.5 2052.9657,-440.5 2023.6259,-440.5"/>
<text text-anchor="middle" x="2038.2958" y="-446.5" font-family="Helvetica,sans-Serif" font-size="10.00" fill="#000000">set</text>
</a>
</g>
</g>
<!-- Node42&#45;&gt;Node46 -->
<g id="edge133" class="edge">
<title>Node42&#45;&gt;Node46</title>
<path fill="none" stroke="#191970" d="M2074.1952,-495.4179C2068.1318,-487.6624 2059.2407,-476.29 2051.824,-466.8035"/>
<polygon fill="#191970" stroke="#191970" points="2054.4672,-464.5018 2045.5506,-458.7795 2048.9526,-468.8133 2054.4672,-464.5018"/>
</g>
<!-- Node43&#45;&gt;Node2 -->
<g id="edge120" class="edge">
<title>Node43&#45;&gt;Node2</title>
<path fill="none" stroke="#191970" d="M2112.5994,-440.4959C2057.6173,-401.6624 1839.3242,-249.1561 1761.2958,-220 1662.7285,-183.1694 1615.7368,-241.0104 1527.2958,-184 1489.6102,-159.7073 1466.2259,-110.0398 1455.7565,-83.015"/>
<polygon fill="#191970" stroke="#191970" points="1459.0135,-81.7311 1452.2667,-73.5622 1452.4467,-84.1555 1459.0135,-81.7311"/>
</g>
<!-- Node43&#45;&gt;Node6 -->
<g id="edge128" class="edge">
<title>Node43&#45;&gt;Node6</title>
<path fill="none" stroke="#191970" d="M2180.1843,-447.1995C2293.8453,-440.1012 2559.5919,-411.21 2742.2958,-294 2796.9378,-258.9455 2826.2958,-239.4197 2826.2958,-174.5 2826.2958,-174.5 2826.2958,-174.5 2826.2958,-119.5 2826.2958,-85.7683 2814.5783,-73.3827 2786.2958,-55 2737.1745,-23.0728 2559.1168,-13.1826 2486.9701,-10.4458"/>
<polygon fill="#191970" stroke="#191970" points="2486.8473,-6.9392 2476.7283,-10.0788 2486.5966,-13.9347 2486.8473,-6.9392"/>
</g>
<!-- Node43&#45;&gt;Node14 -->
<g id="edge119" class="edge">
<title>Node43&#45;&gt;Node14</title>
<path fill="none" stroke="#191970" d="M2070.3263,-441.1727C2067.6114,-440.7734 2064.923,-440.3807 2062.2958,-440 1947.279,-423.3352 1905.4093,-459.4923 1803.2958,-404 1734.4396,-366.581 1682.6484,-284.4643 1662.0449,-247.8038"/>
<polygon fill="#191970" stroke="#191970" points="1664.9522,-245.8264 1657.0725,-238.744 1658.8157,-249.1944 1664.9522,-245.8264"/>
</g>
<!-- Node43&#45;&gt;Node24 -->
<g id="edge127" class="edge">
<title>Node43&#45;&gt;Node24</title>
<path fill="none" stroke="#191970" d="M2164.215,-440.4442C2256.0587,-416.7466 2485.5887,-343.394 2579.2958,-184 2587.3004,-170.3843 2588.0196,-152.2645 2587.042,-138.6974"/>
<polygon fill="#191970" stroke="#191970" points="2590.5017,-138.1353 2585.9445,-128.5707 2583.5425,-138.8897 2590.5017,-138.1353"/>
</g>
<!-- Node43&#45;&gt;Node30 -->
<g id="edge126" class="edge">
<title>Node43&#45;&gt;Node30</title>
<path fill="none" stroke="#191970" d="M2070.4846,-440.9335C2018.6014,-432.1946 1944.9476,-417.97 1919.2958,-404 1817.1761,-348.3856 1837.2438,-272.1171 1733.2958,-220 1637.2689,-171.8544 1600.3896,-200.8304 1494.2958,-184 1493.0139,-183.7966 1491.716,-183.5896 1490.4069,-183.3797"/>
<polygon fill="#191970" stroke="#191970" points="1490.6661,-179.8761 1480.2348,-181.7304 1489.5457,-186.7859 1490.6661,-179.8761"/>
</g>
<!-- Node44 -->
<g id="node45" class="node">
<title>Node44</title>
<g id="a_node45"><a xlink:href="Ioss__EntityBlock_8h.html" target="_top" xlink:title=" ">
<polygon fill="#ffffff" stroke="#000000" points="2076.4437,-385.5 2076.4437,-403.5 2174.1478,-403.5 2174.1478,-385.5 2076.4437,-385.5"/>
<text text-anchor="middle" x="2125.2958" y="-391.5" font-family="Helvetica,sans-Serif" font-size="10.00" fill="#000000">Ioss_EntityBlock.h</text>
</a>
</g>
</g>
<!-- Node43&#45;&gt;Node44 -->
<g id="edge121" class="edge">
<title>Node43&#45;&gt;Node44</title>
<path fill="none" stroke="#191970" d="M2125.2958,-440.4179C2125.2958,-433.2164 2125.2958,-422.8962 2125.2958,-413.8632"/>
<polygon fill="#191970" stroke="#191970" points="2128.7959,-413.7794 2125.2958,-403.7795 2121.7959,-413.7795 2128.7959,-413.7794"/>
</g>
<!-- Node44&#45;&gt;Node4 -->
<g id="edge124" class="edge">
<title>Node44&#45;&gt;Node4</title>
<path fill="none" stroke="#191970" d="M2174.2008,-390.9411C2269.1823,-383.6818 2471.6609,-366.3786 2498.2958,-349 2597.6736,-284.1583 2695.6282,-199.1315 2617.2958,-110 2567.482,-53.3188 2019.5771,-19.3214 1875.7208,-11.3299"/>
<polygon fill="#191970" stroke="#191970" points="1875.871,-7.833 1865.694,-10.7789 1875.4868,-14.8225 1875.871,-7.833"/>
</g>
<!-- Node44&#45;&gt;Node6 -->
<g id="edge125" class="edge">
<title>Node44&#45;&gt;Node6</title>
<path fill="none" stroke="#191970" d="M2174.1763,-391.8076C2266.2513,-386.266 2461.846,-372.1275 2525.2958,-349 2657.0914,-300.9604 2788.2958,-314.7779 2788.2958,-174.5 2788.2958,-174.5 2788.2958,-174.5 2788.2958,-119.5 2788.2958,-88.9131 2788.0673,-74.2476 2764.2958,-55 2722.1276,-20.8568 2556.6782,-12.2826 2487.2396,-10.1721"/>
<polygon fill="#191970" stroke="#191970" points="2487.0466,-6.6655 2476.9531,-9.8859 2486.8519,-13.6627 2487.0466,-6.6655"/>
</g>
<!-- Node44&#45;&gt;Node30 -->
<g id="edge123" class="edge">
<title>Node44&#45;&gt;Node30</title>
<path fill="none" stroke="#191970" d="M2111.8467,-385.32C2067.6039,-355.6316 1921.6644,-261.7295 1786.2958,-220 1661.3379,-181.4797 1623.7045,-202.7527 1494.2958,-184 1493.0113,-183.8139 1491.711,-183.6223 1490.3999,-183.4263"/>
<polygon fill="#191970" stroke="#191970" points="1490.6331,-179.9209 1480.2161,-181.854 1489.5649,-186.8389 1490.6331,-179.9209"/>
</g>
<!-- Node44&#45;&gt;Node35 -->
<g id="edge122" class="edge">
<title>Node44&#45;&gt;Node35</title>
<path fill="none" stroke="#191970" d="M2076.3928,-390.0689C1968.2692,-380.2719 1708.7494,-356.7569 1585.4866,-345.5881"/>
<polygon fill="#191970" stroke="#191970" points="1585.6954,-342.0928 1575.4203,-344.676 1585.0637,-349.0642 1585.6954,-342.0928"/>
</g>
<!-- Node49&#45;&gt;Node6 -->
<g id="edge139" class="edge">
<title>Node49&#45;&gt;Node6</title>
<path fill="none" stroke="#191970" d="M1737.398,-60.598C1752.9646,-58.7322 1772.1077,-56.5691 1789.2958,-55 2034.429,-32.6222 2331.167,-16.095 2425.7767,-11.0824"/>
<polygon fill="#191970" stroke="#191970" points="2425.9981,-14.5757 2435.8002,-10.5545 2425.6299,-7.5854 2425.9981,-14.5757"/>
</g>
<!-- Node49&#45;&gt;Node7 -->
<g id="edge140" class="edge">
<title>Node49&#45;&gt;Node7</title>
<path fill="none" stroke="#191970" d="M1675.4125,-57.3731C1670.7028,-56.4627 1665.8838,-55.6303 1661.2958,-55 1405.8184,-19.9017 1093.9792,-11.7304 994.4378,-9.9593"/>
<polygon fill="#191970" stroke="#191970" points="994.21,-6.455 984.1524,-9.786 994.092,-13.454 994.21,-6.455"/>
</g>
</g>
</svg>
        <g id="navigator" transform="translate(0 0)" fill="#404254">
                <rect fill="#f2f5e9" fill-opacity="0.5" stroke="#606060" stroke-width=".5" x="0" y="0" width="60" height="60"/>
                <use id="zoomplus" xlink:href="#zoomPlus" x="17" y="9" onmousedown="handleZoom(evt,'in')"/>
                <use id="zoomminus" xlink:href="#zoomMin" x="42" y="9" onmousedown="handleZoom(evt,'out')"/>
                <use id="reset" xlink:href="#resetDef" x="30" y="36" onmousedown="handleReset()"/>
                <g id="arrowUp" xlink:href="#dirArrow" transform="translate(30 24)" onmousedown="handlePan(0,-1)">
                  <use xlink:href="#rim" fill="#404040">
                        <set attributeName="fill" to="#808080" begin="arrowUp.mouseover" end="arrowUp.mouseout"/>
                  </use>
                  <path fill="none" stroke="white" stroke-width="1.5" d="M0,-3.0v7 M-2.5,-0.5L0,-3.0L2.5,-0.5"/>
                </g>
                <g id="arrowRight" xlink:href="#dirArrow" transform="rotate(90) translate(36 -43)" onmousedown="handlePan(1,0)">
                  <use xlink:href="#rim" fill="#404040">
                        <set attributeName="fill" to="#808080" begin="arrowRight.mouseover" end="arrowRight.mouseout"/>
                  </use>
                  <path fill="none" stroke="white" stroke-width="1.5" d="M0,-3.0v7 M-2.5,-0.5L0,-3.0L2.5,-0.5"/>
                </g>
                <g id="arrowDown" xlink:href="#dirArrow" transform="rotate(180) translate(-30 -48)" onmousedown="handlePan(0,1)">
                  <use xlink:href="#rim" fill="#404040">
                        <set attributeName="fill" to="#808080" begin="arrowDown.mouseover" end="arrowDown.mouseout"/>
                  </use>
                  <path fill="none" stroke="white" stroke-width="1.5" d="M0,-3.0v7 M-2.5,-0.5L0,-3.0L2.5,-0.5"/>
                </g>
                <g id="arrowLeft" xlink:href="#dirArrow" transform="rotate(270) translate(-36 17)" onmousedown="handlePan(-1,0)">
                  <use xlink:href="#rim" fill="#404040">
                        <set attributeName="fill" to="#808080" begin="arrowLeft.mouseover" end="arrowLeft.mouseout"/>
                  </use>
                  <path fill="none" stroke="white" stroke-width="1.5" d="M0,-3.0v7 M-2.5,-0.5L0,-3.0L2.5,-0.5"/>
                </g>
        </g>
        <svg viewBox="0 0 15 15" width="100%" height="30px" preserveAspectRatio="xMaxYMin meet">
         <g id="arrow_out" transform="scale(0.3 0.3)">
          <a xlink:href="Ioex__Utils_8C__incl_org.svg" target="_base">
           <rect id="button" ry="5" rx="5" y="6" x="6" height="38" width="38"
                fill="#f2f5e9" fill-opacity="0.5" stroke="#606060" stroke-width="1.0"/>
           <path id="arrow"
             d="M 11.500037,31.436501 C 11.940474,20.09759 22.043105,11.32322 32.158766,21.979434 L 37.068811,17.246167 C 37.068811,17.246167 37.088388,32 37.088388,32 L 22.160133,31.978069 C 22.160133,31.978069 26.997745,27.140456 26.997745,27.140456 C 18.528582,18.264221 13.291696,25.230495 11.500037,31.436501 z"
             style="fill:#404040;"/>
          </a>
         </g>
        </svg>
</svg>
