<?xml version="1.0" encoding="UTF-8" standalone="no"?>
<!DOCTYPE svg PUBLIC "-//W3C//DTD SVG 1.1//EN"
 "http://www.w3.org/Graphics/SVG/1.1/DTD/svg11.dtd">
<!-- Generated by graphviz version 2.42.3 (20191010.1750)
 -->
<!-- Title: src/exo_fac/Ioex_IOFactory.h Pages: 1 -->
<svg width="1750pt" height="357pt"
 viewBox="0.00 0.00 1750.06 357.00" xmlns="http://www.w3.org/2000/svg" xmlns:xlink="http://www.w3.org/1999/xlink">
<g id="graph0" class="graph" transform="scale(1 1) rotate(0) translate(4 353)">
<title>src/exo_fac/Ioex_IOFactory.h</title>
<polygon fill="white" stroke="transparent" points="-4,4 -4,-353 1746.06,-353 1746.06,4 -4,4"/>
<!-- Node1 -->
<g id="node1" class="node">
<title>Node1</title>
<g id="a_node1"><a xlink:title=" ">
<polygon fill="#bfbfbf" stroke="black" points="1538.12,-330.5 1538.12,-348.5 1683.99,-348.5 1683.99,-330.5 1538.12,-330.5"/>
<text text-anchor="middle" x="1611.06" y="-336.5" font-family="Helvetica,sans-Serif" font-size="10.00">src/exo_fac/Ioex_IOFactory.h</text>
</a>
</g>
</g>
<!-- Node2 -->
<g id="node2" class="node">
<title>Node2</title>
<g id="a_node2"><a xlink:href="Ioss__DatabaseIO_8h.html" target="_top" xlink:title=" ">
<polygon fill="white" stroke="black" points="953.25,-275.5 953.25,-293.5 1054.86,-293.5 1054.86,-275.5 953.25,-275.5"/>
<text text-anchor="middle" x="1004.06" y="-281.5" font-family="Helvetica,sans-Serif" font-size="10.00">Ioss_DatabaseIO.h</text>
</a>
</g>
</g>
<!-- Node1&#45;&gt;Node2 -->
<g id="edge1" class="edge">
<title>Node1&#45;&gt;Node2</title>
<path fill="none" stroke="midnightblue" d="M1537.84,-332.11C1416.9,-321.55 1177.63,-300.66 1065.17,-290.84"/>
<polygon fill="midnightblue" stroke="midnightblue" points="1065.28,-287.33 1055.02,-289.95 1064.68,-294.31 1065.28,-287.33"/>
</g>
<!-- Node4 -->
<g id="node4" class="node">
<title>Node4</title>
<g id="a_node4"><a xlink:href="Ioss__CodeTypes_8h.html" target="_top" xlink:title=" ">
<polygon fill="white" stroke="black" points="765.64,-55.5 765.64,-73.5 864.47,-73.5 864.47,-55.5 765.64,-55.5"/>
<text text-anchor="middle" x="815.06" y="-61.5" font-family="Helvetica,sans-Serif" font-size="10.00">Ioss_CodeTypes.h</text>
</a>
</g>
</g>
<!-- Node1&#45;&gt;Node4 -->
<g id="edge62" class="edge">
<title>Node1&#45;&gt;Node4</title>
<path fill="none" stroke="midnightblue" d="M1537.88,-336.68C1232.43,-328.75 72.68,-295.02 20.06,-239 14.27,-232.85 15.11,-226.84 20.06,-220 95.75,-115.34 176.65,-178.23 296.06,-129 313.51,-121.8 315.9,-115.18 334.06,-110 411.67,-87.85 644.51,-73.85 755.27,-68.27"/>
<polygon fill="midnightblue" stroke="midnightblue" points="755.46,-71.76 765.27,-67.77 755.11,-64.77 755.46,-71.76"/>
</g>
<!-- Node8 -->
<g id="node8" class="node">
<title>Node8</title>
<g id="a_node8"><a xlink:title=" ">
<polygon fill="white" stroke="#bfbfbf" points="1421.83,-0.5 1421.83,-18.5 1462.28,-18.5 1462.28,-0.5 1421.83,-0.5"/>
<text text-anchor="middle" x="1442.06" y="-6.5" font-family="Helvetica,sans-Serif" font-size="10.00">string</text>
</a>
</g>
</g>
<!-- Node1&#45;&gt;Node8 -->
<g id="edge71" class="edge">
<title>Node1&#45;&gt;Node8</title>
<path fill="none" stroke="midnightblue" d="M1636.63,-330.43C1674.75,-316.63 1742.06,-284.59 1742.06,-230.5 1742.06,-230.5 1742.06,-230.5 1742.06,-118.5 1742.06,-61.67 1549.04,-26.52 1472.65,-14.84"/>
<polygon fill="midnightblue" stroke="midnightblue" points="1473.08,-11.36 1462.68,-13.34 1472.05,-18.29 1473.08,-11.36"/>
</g>
<!-- Node12 -->
<g id="node12" class="node">
<title>Node12</title>
<g id="a_node12"><a xlink:href="Ioss__DBUsage_8h.html" target="_top" xlink:title=" ">
<polygon fill="white" stroke="black" points="1622.54,-110.5 1622.54,-128.5 1713.58,-128.5 1713.58,-110.5 1622.54,-110.5"/>
<text text-anchor="middle" x="1668.06" y="-116.5" font-family="Helvetica,sans-Serif" font-size="10.00">Ioss_DBUsage.h</text>
</a>
</g>
</g>
<!-- Node1&#45;&gt;Node12 -->
<g id="edge63" class="edge">
<title>Node1&#45;&gt;Node12</title>
<path fill="none" stroke="midnightblue" d="M1614.02,-330.24C1622.13,-307.31 1645,-240.84 1658.06,-184 1661.5,-169.01 1664.13,-151.76 1665.83,-139.02"/>
<polygon fill="midnightblue" stroke="midnightblue" points="1669.34,-139.15 1667.12,-128.79 1662.4,-138.27 1669.34,-139.15"/>
</g>
<!-- Node33 -->
<g id="node33" class="node">
<title>Node33</title>
<g id="a_node33"><a xlink:href="Ioss__IOFactory_8h.html" target="_top" xlink:title=" ">
<polygon fill="white" stroke="black" points="1436.36,-165.5 1436.36,-183.5 1527.76,-183.5 1527.76,-165.5 1436.36,-165.5"/>
<text text-anchor="middle" x="1482.06" y="-171.5" font-family="Helvetica,sans-Serif" font-size="10.00">Ioss_IOFactory.h</text>
</a>
</g>
</g>
<!-- Node1&#45;&gt;Node33 -->
<g id="edge64" class="edge">
<title>Node1&#45;&gt;Node33</title>
<path fill="none" stroke="midnightblue" d="M1604.48,-330.19C1584.12,-304.47 1521.86,-225.79 1494.81,-191.62"/>
<polygon fill="midnightblue" stroke="midnightblue" points="1497.41,-189.27 1488.46,-183.6 1491.93,-193.61 1497.41,-189.27"/>
</g>
<!-- Node3 -->
<g id="node3" class="node">
<title>Node3</title>
<g id="a_node3"><a xlink:href="Ioss__BoundingBox_8h.html" target="_top" xlink:title=" ">
<polygon fill="white" stroke="black" points="29.19,-220.5 29.19,-238.5 136.92,-238.5 136.92,-220.5 29.19,-220.5"/>
<text text-anchor="middle" x="83.06" y="-226.5" font-family="Helvetica,sans-Serif" font-size="10.00">Ioss_BoundingBox.h</text>
</a>
</g>
</g>
<!-- Node2&#45;&gt;Node3 -->
<g id="edge2" class="edge">
<title>Node2&#45;&gt;Node3</title>
<path fill="none" stroke="midnightblue" d="M953.01,-282.12C820.48,-278.27 454.61,-265.85 151.06,-239 149.79,-238.89 148.51,-238.77 147.22,-238.65"/>
<polygon fill="midnightblue" stroke="midnightblue" points="147.51,-235.16 137.21,-237.63 146.8,-242.12 147.51,-235.16"/>
</g>
<!-- Node2&#45;&gt;Node4 -->
<g id="edge3" class="edge">
<title>Node2&#45;&gt;Node4</title>
<path fill="none" stroke="midnightblue" d="M999.94,-275.29C993.51,-262.8 980.33,-238.52 966.06,-220 922.92,-164.03 861.49,-106.76 832.06,-80.42"/>
<polygon fill="midnightblue" stroke="midnightblue" points="834.13,-77.58 824.33,-73.56 829.48,-82.81 834.13,-77.58"/>
</g>
<!-- Node6 -->
<g id="node6" class="node">
<title>Node6</title>
<g id="a_node6"><a xlink:title=" ">
<polygon fill="white" stroke="#bfbfbf" points="194.94,-0.5 194.94,-18.5 243.18,-18.5 243.18,-0.5 194.94,-0.5"/>
<text text-anchor="middle" x="219.06" y="-6.5" font-family="Helvetica,sans-Serif" font-size="10.00">cstddef</text>
</a>
</g>
</g>
<!-- Node2&#45;&gt;Node6 -->
<g id="edge56" class="edge">
<title>Node2&#45;&gt;Node6</title>
<path fill="none" stroke="midnightblue" d="M953.02,-282.82C756.4,-279.99 57.11,-267.91 20.06,-239 -3.17,-220.88 1.06,-204.96 1.06,-175.5 1.06,-175.5 1.06,-175.5 1.06,-118.5 1.06,-37.45 123.55,-17.22 184.9,-12.18"/>
<polygon fill="midnightblue" stroke="midnightblue" points="185.18,-15.67 194.89,-11.45 184.66,-8.69 185.18,-15.67"/>
</g>
<!-- Node7 -->
<g id="node7" class="node">
<title>Node7</title>
<g id="a_node7"><a xlink:title=" ">
<polygon fill="white" stroke="#bfbfbf" points="396.61,-0.5 396.61,-18.5 441.51,-18.5 441.51,-0.5 396.61,-0.5"/>
<text text-anchor="middle" x="419.06" y="-6.5" font-family="Helvetica,sans-Serif" font-size="10.00">cstdint</text>
</a>
</g>
</g>
<!-- Node2&#45;&gt;Node7 -->
<g id="edge57" class="edge">
<title>Node2&#45;&gt;Node7</title>
<path fill="none" stroke="midnightblue" d="M953.17,-282.22C791.88,-276.95 297.42,-250.93 210.06,-129 161.53,-61.28 315.97,-27.09 386.19,-15.34"/>
<polygon fill="midnightblue" stroke="midnightblue" points="386.98,-18.76 396.29,-13.71 385.86,-11.85 386.98,-18.76"/>
</g>
<!-- Node2&#45;&gt;Node8 -->
<g id="edge59" class="edge">
<title>Node2&#45;&gt;Node8</title>
<path fill="none" stroke="midnightblue" d="M1055.26,-283.12C1182.87,-280.9 1509.01,-267.07 1568.06,-184 1602.68,-135.28 1574.61,-94.85 1530.06,-55 1513.07,-39.81 1489.97,-28.39 1471.69,-20.92"/>
<polygon fill="midnightblue" stroke="midnightblue" points="1472.96,-17.66 1462.37,-17.28 1470.41,-24.18 1472.96,-17.66"/>
</g>
<!-- Node9 -->
<g id="node9" class="node">
<title>Node9</title>
<g id="a_node9"><a xlink:title=" ">
<polygon fill="white" stroke="#bfbfbf" points="984.44,-0.5 984.44,-18.5 1027.67,-18.5 1027.67,-0.5 984.44,-0.5"/>
<text text-anchor="middle" x="1006.06" y="-6.5" font-family="Helvetica,sans-Serif" font-size="10.00">vector</text>
</a>
</g>
</g>
<!-- Node2&#45;&gt;Node9 -->
<g id="edge61" class="edge">
<title>Node2&#45;&gt;Node9</title>
<path fill="none" stroke="midnightblue" d="M1005.96,-275.18C1012.27,-247.08 1032.5,-153.01 1039.06,-74 1039.75,-65.58 1041.7,-63.02 1039.06,-55 1035.56,-44.4 1028.45,-34.27 1021.72,-26.36"/>
<polygon fill="midnightblue" stroke="midnightblue" points="1024.09,-23.76 1014.77,-18.73 1018.92,-28.47 1024.09,-23.76"/>
</g>
<!-- Node2&#45;&gt;Node12 -->
<g id="edge11" class="edge">
<title>Node2&#45;&gt;Node12</title>
<path fill="none" stroke="midnightblue" d="M1054.96,-282.12C1188.46,-278.15 1541.57,-265.27 1587.06,-239 1626.68,-216.12 1651.14,-165.09 1661.8,-138.07"/>
<polygon fill="midnightblue" stroke="midnightblue" points="1665.08,-139.29 1665.32,-128.7 1658.52,-136.83 1665.08,-139.29"/>
</g>
<!-- Node13 -->
<g id="node13" class="node">
<title>Node13</title>
<g id="a_node13"><a xlink:href="Ioss__DataSize_8h.html" target="_top" xlink:title=" ">
<polygon fill="white" stroke="black" points="636.65,-220.5 636.65,-238.5 725.46,-238.5 725.46,-220.5 636.65,-220.5"/>
<text text-anchor="middle" x="681.06" y="-226.5" font-family="Helvetica,sans-Serif" font-size="10.00">Ioss_DataSize.h</text>
</a>
</g>
</g>
<!-- Node2&#45;&gt;Node13 -->
<g id="edge12" class="edge">
<title>Node2&#45;&gt;Node13</title>
<path fill="none" stroke="midnightblue" d="M955,-275.45C895.9,-265.75 796.93,-249.51 735.52,-239.44"/>
<polygon fill="midnightblue" stroke="midnightblue" points="736.06,-235.98 725.62,-237.81 734.93,-242.89 736.06,-235.98"/>
</g>
<!-- Node14 -->
<g id="node14" class="node">
<title>Node14</title>
<g id="a_node14"><a xlink:href="Ioss__EntityType_8h.html" target="_top" xlink:title=" ">
<polygon fill="white" stroke="black" points="862.59,-220.5 862.59,-238.5 957.52,-238.5 957.52,-220.5 862.59,-220.5"/>
<text text-anchor="middle" x="910.06" y="-226.5" font-family="Helvetica,sans-Serif" font-size="10.00">Ioss_EntityType.h</text>
</a>
</g>
</g>
<!-- Node2&#45;&gt;Node14 -->
<g id="edge13" class="edge">
<title>Node2&#45;&gt;Node14</title>
<path fill="none" stroke="midnightblue" d="M989.78,-275.45C974.87,-267.05 951.25,-253.72 933.58,-243.76"/>
<polygon fill="midnightblue" stroke="midnightblue" points="934.9,-240.49 924.47,-238.63 931.46,-246.59 934.9,-240.49"/>
</g>
<!-- Node15 -->
<g id="node15" class="node">
<title>Node15</title>
<g id="a_node15"><a xlink:href="Ioss__Map_8h.html" target="_top" xlink:title=" ">
<polygon fill="white" stroke="black" points="219.21,-110.5 219.21,-128.5 286.9,-128.5 286.9,-110.5 219.21,-110.5"/>
<text text-anchor="middle" x="253.06" y="-116.5" font-family="Helvetica,sans-Serif" font-size="10.00">Ioss_Map.h</text>
</a>
</g>
</g>
<!-- Node2&#45;&gt;Node15 -->
<g id="edge14" class="edge">
<title>Node2&#45;&gt;Node15</title>
<path fill="none" stroke="midnightblue" d="M953.08,-280.52C880.31,-275.58 742.76,-263.68 628.06,-239 497.17,-210.84 346.78,-156.3 283.56,-132.31"/>
<polygon fill="midnightblue" stroke="midnightblue" points="284.42,-128.89 273.83,-128.59 281.92,-135.43 284.42,-128.89"/>
</g>
<!-- Node16 -->
<g id="node16" class="node">
<title>Node16</title>
<g id="a_node16"><a xlink:title=" ">
<polygon fill="white" stroke="#bfbfbf" points="114.66,-55.5 114.66,-73.5 153.45,-73.5 153.45,-55.5 114.66,-55.5"/>
<text text-anchor="middle" x="134.06" y="-61.5" font-family="Helvetica,sans-Serif" font-size="10.00">utility</text>
</a>
</g>
</g>
<!-- Node2&#45;&gt;Node16 -->
<g id="edge60" class="edge">
<title>Node2&#45;&gt;Node16</title>
<path fill="none" stroke="midnightblue" d="M952.97,-284.03C783.81,-285.33 249.3,-285.68 189.06,-239 140.37,-201.28 133.94,-120.43 133.64,-83.98"/>
<polygon fill="midnightblue" stroke="midnightblue" points="137.14,-83.85 133.71,-73.82 130.14,-83.8 137.14,-83.85"/>
</g>
<!-- Node17 -->
<g id="node17" class="node">
<title>Node17</title>
<g id="a_node17"><a xlink:href="Ioss__ParallelUtils_8h.html" target="_top" xlink:title=" ">
<polygon fill="white" stroke="black" points="743.54,-220.5 743.54,-238.5 844.57,-238.5 844.57,-220.5 743.54,-220.5"/>
<text text-anchor="middle" x="794.06" y="-226.5" font-family="Helvetica,sans-Serif" font-size="10.00">Ioss_ParallelUtils.h</text>
</a>
</g>
</g>
<!-- Node2&#45;&gt;Node17 -->
<g id="edge21" class="edge">
<title>Node2&#45;&gt;Node17</title>
<path fill="none" stroke="midnightblue" d="M972.16,-275.45C935.67,-266.24 875.79,-251.13 835.66,-241"/>
<polygon fill="midnightblue" stroke="midnightblue" points="836.46,-237.59 825.91,-238.54 834.75,-244.38 836.46,-237.59"/>
</g>
<!-- Node26 -->
<g id="node26" class="node">
<title>Node26</title>
<g id="a_node26"><a xlink:href="Ioss__PropertyManager_8h.html" target="_top" xlink:title=" ">
<polygon fill="white" stroke="black" points="1156.58,-110.5 1156.58,-128.5 1281.53,-128.5 1281.53,-110.5 1156.58,-110.5"/>
<text text-anchor="middle" x="1219.06" y="-116.5" font-family="Helvetica,sans-Serif" font-size="10.00">Ioss_PropertyManager.h</text>
</a>
</g>
</g>
<!-- Node2&#45;&gt;Node26 -->
<g id="edge44" class="edge">
<title>Node2&#45;&gt;Node26</title>
<path fill="none" stroke="midnightblue" d="M1017.35,-275.35C1031.25,-266.69 1053.57,-252.45 1072.06,-239 1120.61,-203.67 1174.94,-158.23 1201.92,-135.24"/>
<polygon fill="midnightblue" stroke="midnightblue" points="1204.36,-137.76 1209.68,-128.6 1199.81,-132.44 1204.36,-137.76"/>
</g>
<!-- Node29 -->
<g id="node29" class="node">
<title>Node29</title>
<g id="a_node29"><a xlink:href="Ioss__State_8h.html" target="_top" xlink:title=" ">
<polygon fill="white" stroke="black" points="1124.26,-220.5 1124.26,-238.5 1195.85,-238.5 1195.85,-220.5 1124.26,-220.5"/>
<text text-anchor="middle" x="1160.06" y="-226.5" font-family="Helvetica,sans-Serif" font-size="10.00">Ioss_State.h</text>
</a>
</g>
</g>
<!-- Node2&#45;&gt;Node29 -->
<g id="edge53" class="edge">
<title>Node2&#45;&gt;Node29</title>
<path fill="none" stroke="midnightblue" d="M1027.75,-275.45C1054.17,-266.47 1097.09,-251.89 1126.85,-241.78"/>
<polygon fill="midnightblue" stroke="midnightblue" points="1128.05,-245.07 1136.4,-238.54 1125.8,-238.44 1128.05,-245.07"/>
</g>
<!-- Node30 -->
<g id="node30" class="node">
<title>Node30</title>
<g id="a_node30"><a xlink:href="Ioss__SurfaceSplit_8h.html" target="_top" xlink:title=" ">
<polygon fill="white" stroke="black" points="1213.98,-220.5 1213.98,-238.5 1316.13,-238.5 1316.13,-220.5 1213.98,-220.5"/>
<text text-anchor="middle" x="1265.06" y="-226.5" font-family="Helvetica,sans-Serif" font-size="10.00">Ioss_SurfaceSplit.h</text>
</a>
</g>
</g>
<!-- Node2&#45;&gt;Node30 -->
<g id="edge54" class="edge">
<title>Node2&#45;&gt;Node30</title>
<path fill="none" stroke="midnightblue" d="M1043.7,-275.45C1089.72,-266.1 1165.69,-250.68 1215.55,-240.55"/>
<polygon fill="midnightblue" stroke="midnightblue" points="1216.37,-243.96 1225.47,-238.54 1214.97,-237.1 1216.37,-243.96"/>
</g>
<!-- Node31 -->
<g id="node31" class="node">
<title>Node31</title>
<g id="a_node31"><a xlink:title=" ">
<polygon fill="white" stroke="#bfbfbf" points="1333.77,-220.5 1333.77,-238.5 1380.34,-238.5 1380.34,-220.5 1333.77,-220.5"/>
<text text-anchor="middle" x="1357.06" y="-226.5" font-family="Helvetica,sans-Serif" font-size="10.00">chrono</text>
</a>
</g>
</g>
<!-- Node2&#45;&gt;Node31 -->
<g id="edge55" class="edge">
<title>Node2&#45;&gt;Node31</title>
<path fill="none" stroke="midnightblue" d="M1054.97,-278.38C1116.5,-271.76 1223.3,-258.91 1323.71,-239.06"/>
<polygon fill="midnightblue" stroke="midnightblue" points="1324.6,-242.45 1333.71,-237.05 1323.22,-235.59 1324.6,-242.45"/>
</g>
<!-- Node32 -->
<g id="node32" class="node">
<title>Node32</title>
<g id="a_node32"><a xlink:title=" ">
<polygon fill="white" stroke="#bfbfbf" points="1403.33,-110.5 1403.33,-128.5 1438.78,-128.5 1438.78,-110.5 1403.33,-110.5"/>
<text text-anchor="middle" x="1421.06" y="-116.5" font-family="Helvetica,sans-Serif" font-size="10.00">map</text>
</a>
</g>
</g>
<!-- Node2&#45;&gt;Node32 -->
<g id="edge58" class="edge">
<title>Node2&#45;&gt;Node32</title>
<path fill="none" stroke="midnightblue" d="M1054.98,-280.77C1153.83,-275.02 1364.2,-260.41 1389.06,-239 1418.17,-213.92 1422.15,-165.38 1421.95,-138.87"/>
<polygon fill="midnightblue" stroke="midnightblue" points="1425.45,-138.59 1421.66,-128.7 1418.45,-138.79 1425.45,-138.59"/>
</g>
<!-- Node5 -->
<g id="node5" class="node">
<title>Node5</title>
<g id="a_node5"><a xlink:title=" ">
<polygon fill="white" stroke="#bfbfbf" points="859.66,-0.5 859.66,-18.5 898.45,-18.5 898.45,-0.5 859.66,-0.5"/>
<text text-anchor="middle" x="879.06" y="-6.5" font-family="Helvetica,sans-Serif" font-size="10.00">array</text>
</a>
</g>
</g>
<!-- Node4&#45;&gt;Node5 -->
<g id="edge4" class="edge">
<title>Node4&#45;&gt;Node5</title>
<path fill="none" stroke="midnightblue" d="M824.78,-55.45C834.46,-47.43 849.54,-34.95 861.35,-25.17"/>
<polygon fill="midnightblue" stroke="midnightblue" points="863.77,-27.7 869.24,-18.63 859.31,-22.31 863.77,-27.7"/>
</g>
<!-- Node4&#45;&gt;Node6 -->
<g id="edge5" class="edge">
<title>Node4&#45;&gt;Node6</title>
<path fill="none" stroke="midnightblue" d="M765.52,-59.1C647.88,-48.63 354.03,-22.5 253.45,-13.56"/>
<polygon fill="midnightblue" stroke="midnightblue" points="253.52,-10.05 243.25,-12.65 252.9,-17.02 253.52,-10.05"/>
</g>
<!-- Node4&#45;&gt;Node7 -->
<g id="edge6" class="edge">
<title>Node4&#45;&gt;Node7</title>
<path fill="none" stroke="midnightblue" d="M765.3,-56.84C683.11,-45.84 521.16,-24.17 451.82,-14.88"/>
<polygon fill="midnightblue" stroke="midnightblue" points="452.27,-11.41 441.9,-13.56 451.34,-18.35 452.27,-11.41"/>
</g>
<!-- Node4&#45;&gt;Node8 -->
<g id="edge7" class="edge">
<title>Node4&#45;&gt;Node8</title>
<path fill="none" stroke="midnightblue" d="M864.52,-59.32C988.67,-48.82 1310.74,-21.6 1411.48,-13.08"/>
<polygon fill="midnightblue" stroke="midnightblue" points="1411.92,-16.56 1421.59,-12.23 1411.33,-9.59 1411.92,-16.56"/>
</g>
<!-- Node4&#45;&gt;Node9 -->
<g id="edge8" class="edge">
<title>Node4&#45;&gt;Node9</title>
<path fill="none" stroke="midnightblue" d="M844.06,-55.45C879.11,-45.72 937.88,-29.42 974.17,-19.35"/>
<polygon fill="midnightblue" stroke="midnightblue" points="975.52,-22.61 984.22,-16.56 973.65,-15.86 975.52,-22.61"/>
</g>
<!-- Node10 -->
<g id="node10" class="node">
<title>Node10</title>
<g id="a_node10"><a xlink:title=" ">
<polygon fill="white" stroke="#bfbfbf" points="655.31,-0.5 655.31,-18.5 770.8,-18.5 770.8,-0.5 655.31,-0.5"/>
<text text-anchor="middle" x="713.06" y="-6.5" font-family="Helvetica,sans-Serif" font-size="10.00">SEACASIoss_config.h</text>
</a>
</g>
</g>
<!-- Node4&#45;&gt;Node10 -->
<g id="edge9" class="edge">
<title>Node4&#45;&gt;Node10</title>
<path fill="none" stroke="midnightblue" d="M799.56,-55.45C783.16,-46.93 757.04,-33.35 737.78,-23.35"/>
<polygon fill="midnightblue" stroke="midnightblue" points="739.18,-20.13 728.69,-18.63 735.95,-26.34 739.18,-20.13"/>
</g>
<!-- Node11 -->
<g id="node11" class="node">
<title>Node11</title>
<g id="a_node11"><a xlink:title=" ">
<polygon fill="white" stroke="#bfbfbf" points="788.44,-0.5 788.44,-18.5 841.67,-18.5 841.67,-0.5 788.44,-0.5"/>
<text text-anchor="middle" x="815.06" y="-6.5" font-family="Helvetica,sans-Serif" font-size="10.00">complex</text>
</a>
</g>
</g>
<!-- Node4&#45;&gt;Node11 -->
<g id="edge10" class="edge">
<title>Node4&#45;&gt;Node11</title>
<path fill="none" stroke="midnightblue" d="M815.06,-55.22C815.06,-48.18 815.06,-37.81 815.06,-28.83"/>
<polygon fill="midnightblue" stroke="midnightblue" points="818.56,-28.55 815.06,-18.55 811.56,-28.55 818.56,-28.55"/>
</g>
<!-- Node15&#45;&gt;Node4 -->
<g id="edge15" class="edge">
<title>Node15&#45;&gt;Node4</title>
<path fill="none" stroke="midnightblue" d="M287.09,-112.09C291.77,-111.32 296.53,-110.6 301.06,-110 464.92,-88.44 659.61,-74.84 755.55,-68.93"/>
<polygon fill="midnightblue" stroke="midnightblue" points="755.87,-72.41 765.64,-68.31 755.44,-65.43 755.87,-72.41"/>
</g>
<!-- Node15&#45;&gt;Node6 -->
<g id="edge16" class="edge">
<title>Node15&#45;&gt;Node6</title>
<path fill="none" stroke="midnightblue" d="M250.5,-110.38C245.06,-93.1 232.22,-52.33 224.74,-28.56"/>
<polygon fill="midnightblue" stroke="midnightblue" points="227.98,-27.2 221.64,-18.71 221.31,-29.3 227.98,-27.2"/>
</g>
<!-- Node15&#45;&gt;Node7 -->
<g id="edge17" class="edge">
<title>Node15&#45;&gt;Node7</title>
<path fill="none" stroke="midnightblue" d="M265.53,-110.38C293.77,-92.01 362.85,-47.07 397.9,-24.26"/>
<polygon fill="midnightblue" stroke="midnightblue" points="399.96,-27.1 406.43,-18.71 396.14,-21.23 399.96,-27.1"/>
</g>
<!-- Node15&#45;&gt;Node8 -->
<g id="edge18" class="edge">
<title>Node15&#45;&gt;Node8</title>
<path fill="none" stroke="midnightblue" d="M286.92,-114.66C301.43,-113.09 318.56,-111.33 334.06,-110 573.27,-89.47 633.92,-95.32 873.06,-74 1079.32,-55.61 1326.71,-25.1 1411.68,-14.37"/>
<polygon fill="midnightblue" stroke="midnightblue" points="1412.2,-17.83 1421.68,-13.11 1411.32,-10.89 1412.2,-17.83"/>
</g>
<!-- Node15&#45;&gt;Node9 -->
<g id="edge20" class="edge">
<title>Node15&#45;&gt;Node9</title>
<path fill="none" stroke="midnightblue" d="M287.12,-112.32C291.8,-111.51 296.54,-110.72 301.06,-110 560.47,-68.74 875,-27.42 974.39,-14.57"/>
<polygon fill="midnightblue" stroke="midnightblue" points="974.91,-18.03 984.38,-13.28 974.01,-11.09 974.91,-18.03"/>
</g>
<!-- Node15&#45;&gt;Node16 -->
<g id="edge19" class="edge">
<title>Node15&#45;&gt;Node16</title>
<path fill="none" stroke="midnightblue" d="M234.98,-110.45C215.5,-101.77 184.25,-87.86 161.68,-77.8"/>
<polygon fill="midnightblue" stroke="midnightblue" points="162.86,-74.5 152.3,-73.63 160.01,-80.89 162.86,-74.5"/>
</g>
<!-- Node17&#45;&gt;Node4 -->
<g id="edge22" class="edge">
<title>Node17&#45;&gt;Node4</title>
<path fill="none" stroke="midnightblue" d="M798.02,-220.31C806.8,-201.27 826.84,-152.4 823.06,-110 822.28,-101.28 820.66,-91.72 819.08,-83.7"/>
<polygon fill="midnightblue" stroke="midnightblue" points="822.45,-82.71 816.97,-73.64 815.6,-84.15 822.45,-82.71"/>
</g>
<!-- Node17&#45;&gt;Node6 -->
<g id="edge41" class="edge">
<title>Node17&#45;&gt;Node6</title>
<path fill="none" stroke="midnightblue" d="M743.22,-221.21C607.99,-201.65 246.25,-148.22 195.06,-129 151.52,-112.66 128.7,-114.61 106.06,-74 87.15,-40.1 145.02,-23.05 184.79,-15.54"/>
<polygon fill="midnightblue" stroke="midnightblue" points="185.46,-18.98 194.7,-13.79 184.24,-12.08 185.46,-18.98"/>
</g>
<!-- Node17&#45;&gt;Node8 -->
<g id="edge42" class="edge">
<title>Node17&#45;&gt;Node8</title>
<path fill="none" stroke="midnightblue" d="M844.76,-221C847.9,-220.63 851.02,-220.29 854.06,-220 891.88,-216.33 1510.9,-211.57 1537.06,-184 1560.85,-158.91 1613.91,-201.71 1510.06,-55 1500.32,-41.25 1484.87,-30.64 1471.15,-23.24"/>
<polygon fill="midnightblue" stroke="midnightblue" points="1472.53,-20.01 1462.02,-18.63 1469.37,-26.26 1472.53,-20.01"/>
</g>
<!-- Node17&#45;&gt;Node9 -->
<g id="edge43" class="edge">
<title>Node17&#45;&gt;Node9</title>
<path fill="none" stroke="midnightblue" d="M832.91,-220.49C880.64,-208.65 960.94,-181.93 1007.06,-129 1029.23,-103.56 1030.5,-88.12 1024.06,-55 1022.24,-45.68 1018.48,-35.85 1014.86,-27.8"/>
<polygon fill="midnightblue" stroke="midnightblue" points="1017.99,-26.23 1010.51,-18.73 1011.68,-29.26 1017.99,-26.23"/>
</g>
<!-- Node18 -->
<g id="node18" class="node">
<title>Node18</title>
<g id="a_node18"><a xlink:href="Ioss__Utils_8h.html" target="_top" xlink:title=" ">
<polygon fill="white" stroke="black" points="614.21,-165.5 614.21,-183.5 681.9,-183.5 681.9,-165.5 614.21,-165.5"/>
<text text-anchor="middle" x="648.06" y="-171.5" font-family="Helvetica,sans-Serif" font-size="10.00">Ioss_Utils.h</text>
</a>
</g>
</g>
<!-- Node17&#45;&gt;Node18 -->
<g id="edge23" class="edge">
<title>Node17&#45;&gt;Node18</title>
<path fill="none" stroke="midnightblue" d="M771.88,-220.45C747.44,-211.58 707.91,-197.23 680.1,-187.13"/>
<polygon fill="midnightblue" stroke="midnightblue" points="681.03,-183.75 670.44,-183.63 678.64,-190.33 681.03,-183.75"/>
</g>
<!-- Node21 -->
<g id="node21" class="node">
<title>Node21</title>
<g id="a_node21"><a xlink:title=" ">
<polygon fill="white" stroke="#bfbfbf" points="342.94,-110.5 342.94,-128.5 391.17,-128.5 391.17,-110.5 342.94,-110.5"/>
<text text-anchor="middle" x="367.06" y="-116.5" font-family="Helvetica,sans-Serif" font-size="10.00">cassert</text>
</a>
</g>
</g>
<!-- Node17&#45;&gt;Node21 -->
<g id="edge40" class="edge">
<title>Node17&#45;&gt;Node21</title>
<path fill="none" stroke="midnightblue" d="M758.45,-220.45C720.4,-211.76 658.35,-197.38 605.06,-184 532.18,-165.7 447.22,-142.61 401.1,-129.92"/>
<polygon fill="midnightblue" stroke="midnightblue" points="401.89,-126.51 391.32,-127.23 400.03,-133.26 401.89,-126.51"/>
</g>
<!-- Node18&#45;&gt;Node4 -->
<g id="edge24" class="edge">
<title>Node18&#45;&gt;Node4</title>
<path fill="none" stroke="midnightblue" d="M636.95,-165.42C621.06,-152.89 595.3,-128.3 610.06,-110 628.04,-87.69 701.37,-76 755.21,-70.29"/>
<polygon fill="midnightblue" stroke="midnightblue" points="755.76,-73.76 765.36,-69.26 755.06,-66.79 755.76,-73.76"/>
</g>
<!-- Node18&#45;&gt;Node6 -->
<g id="edge33" class="edge">
<title>Node18&#45;&gt;Node6</title>
<path fill="none" stroke="midnightblue" d="M614.02,-172.61C515.78,-169.7 237.02,-158.84 210.06,-129 185.01,-101.28 199.89,-53.5 210.75,-27.9"/>
<polygon fill="midnightblue" stroke="midnightblue" points="213.99,-29.24 214.9,-18.69 207.6,-26.37 213.99,-29.24"/>
</g>
<!-- Node18&#45;&gt;Node7 -->
<g id="edge34" class="edge">
<title>Node18&#45;&gt;Node7</title>
<path fill="none" stroke="midnightblue" d="M614.03,-168.43C557.72,-159.74 450.13,-141.69 438.06,-129 412.29,-101.91 413.31,-54.57 416.22,-28.69"/>
<polygon fill="midnightblue" stroke="midnightblue" points="419.7,-29.11 417.56,-18.74 412.76,-28.18 419.7,-29.11"/>
</g>
<!-- Node18&#45;&gt;Node8 -->
<g id="edge38" class="edge">
<title>Node18&#45;&gt;Node8</title>
<path fill="none" stroke="midnightblue" d="M682.02,-172.77C797.35,-170.02 1173.31,-158.94 1290.06,-129 1346.49,-114.52 1366.91,-114.23 1409.06,-74 1422.24,-61.41 1431.16,-42.38 1436.36,-28.44"/>
<polygon fill="midnightblue" stroke="midnightblue" points="1439.82,-29.16 1439.75,-18.57 1433.19,-26.89 1439.82,-29.16"/>
</g>
<!-- Node18&#45;&gt;Node9 -->
<g id="edge39" class="edge">
<title>Node18&#45;&gt;Node9</title>
<path fill="none" stroke="midnightblue" d="M682.06,-173.98C759.23,-174.31 944.22,-170.63 987.06,-129 1014,-102.81 1012.41,-54.73 1009.12,-28.58"/>
<polygon fill="midnightblue" stroke="midnightblue" points="1012.56,-27.94 1007.63,-18.56 1005.64,-28.96 1012.56,-27.94"/>
</g>
<!-- Node19 -->
<g id="node19" class="node">
<title>Node19</title>
<g id="a_node19"><a xlink:href="Ioss__Field_8h.html" target="_top" xlink:title=" ">
<polygon fill="white" stroke="black" points="908.1,-110.5 908.1,-128.5 978.01,-128.5 978.01,-110.5 908.1,-110.5"/>
<text text-anchor="middle" x="943.06" y="-116.5" font-family="Helvetica,sans-Serif" font-size="10.00">Ioss_Field.h</text>
</a>
</g>
</g>
<!-- Node18&#45;&gt;Node19 -->
<g id="edge25" class="edge">
<title>Node18&#45;&gt;Node19</title>
<path fill="none" stroke="midnightblue" d="M682.18,-167.37C735.52,-157.79 838.65,-139.26 898.02,-128.59"/>
<polygon fill="midnightblue" stroke="midnightblue" points="898.64,-132.04 907.86,-126.82 897.4,-125.15 898.64,-132.04"/>
</g>
<!-- Node20 -->
<g id="node20" class="node">
<title>Node20</title>
<g id="a_node20"><a xlink:title=" ">
<polygon fill="white" stroke="#bfbfbf" points="695.49,-110.5 695.49,-128.5 752.62,-128.5 752.62,-110.5 695.49,-110.5"/>
<text text-anchor="middle" x="724.06" y="-116.5" font-family="Helvetica,sans-Serif" font-size="10.00">algorithm</text>
</a>
</g>
</g>
<!-- Node18&#45;&gt;Node20 -->
<g id="edge30" class="edge">
<title>Node18&#45;&gt;Node20</title>
<path fill="none" stroke="midnightblue" d="M659.6,-165.45C671.32,-157.28 689.7,-144.46 703.84,-134.6"/>
<polygon fill="midnightblue" stroke="midnightblue" points="706.2,-137.22 712.4,-128.63 702.2,-131.47 706.2,-137.22"/>
</g>
<!-- Node18&#45;&gt;Node21 -->
<g id="edge31" class="edge">
<title>Node18&#45;&gt;Node21</title>
<path fill="none" stroke="midnightblue" d="M614.17,-167.72C567.13,-159.61 479.45,-144.13 405.06,-129 403.96,-128.78 402.85,-128.55 401.73,-128.32"/>
<polygon fill="midnightblue" stroke="midnightblue" points="402.07,-124.81 391.56,-126.13 400.6,-131.65 402.07,-124.81"/>
</g>
<!-- Node22 -->
<g id="node22" class="node">
<title>Node22</title>
<g id="a_node22"><a xlink:title=" ">
<polygon fill="white" stroke="#bfbfbf" points="770.44,-110.5 770.44,-128.5 813.67,-128.5 813.67,-110.5 770.44,-110.5"/>
<text text-anchor="middle" x="792.06" y="-116.5" font-family="Helvetica,sans-Serif" font-size="10.00">cmath</text>
</a>
</g>
</g>
<!-- Node18&#45;&gt;Node22 -->
<g id="edge32" class="edge">
<title>Node18&#45;&gt;Node22</title>
<path fill="none" stroke="midnightblue" d="M669.93,-165.45C694.03,-156.58 733.02,-142.23 760.45,-132.13"/>
<polygon fill="midnightblue" stroke="midnightblue" points="761.8,-135.36 769.98,-128.63 759.39,-128.79 761.8,-135.36"/>
</g>
<!-- Node23 -->
<g id="node23" class="node">
<title>Node23</title>
<g id="a_node23"><a xlink:title=" ">
<polygon fill="white" stroke="#bfbfbf" points="446.88,-110.5 446.88,-128.5 491.23,-128.5 491.23,-110.5 446.88,-110.5"/>
<text text-anchor="middle" x="469.06" y="-116.5" font-family="Helvetica,sans-Serif" font-size="10.00">cstdlib</text>
</a>
</g>
</g>
<!-- Node18&#45;&gt;Node23 -->
<g id="edge35" class="edge">
<title>Node18&#45;&gt;Node23</title>
<path fill="none" stroke="midnightblue" d="M620.87,-165.45C588.78,-155.95 535.49,-140.17 501.34,-130.06"/>
<polygon fill="midnightblue" stroke="midnightblue" points="501.98,-126.6 491.4,-127.11 499.99,-133.31 501.98,-126.6"/>
</g>
<!-- Node24 -->
<g id="node24" class="node">
<title>Node24</title>
<g id="a_node24"><a xlink:title=" ">
<polygon fill="white" stroke="#bfbfbf" points="508.88,-110.5 508.88,-128.5 563.23,-128.5 563.23,-110.5 508.88,-110.5"/>
<text text-anchor="middle" x="536.06" y="-116.5" font-family="Helvetica,sans-Serif" font-size="10.00">iostream</text>
</a>
</g>
</g>
<!-- Node18&#45;&gt;Node24 -->
<g id="edge36" class="edge">
<title>Node18&#45;&gt;Node24</title>
<path fill="none" stroke="midnightblue" d="M631.05,-165.45C612.79,-156.81 583.56,-142.98 562.34,-132.94"/>
<polygon fill="midnightblue" stroke="midnightblue" points="563.76,-129.74 553.23,-128.63 560.77,-136.07 563.76,-129.74"/>
</g>
<!-- Node25 -->
<g id="node25" class="node">
<title>Node25</title>
<g id="a_node25"><a xlink:title=" ">
<polygon fill="white" stroke="#bfbfbf" points="618.65,-110.5 618.65,-128.5 677.46,-128.5 677.46,-110.5 618.65,-110.5"/>
<text text-anchor="middle" x="648.06" y="-116.5" font-family="Helvetica,sans-Serif" font-size="10.00">stdexcept</text>
</a>
</g>
</g>
<!-- Node18&#45;&gt;Node25 -->
<g id="edge37" class="edge">
<title>Node18&#45;&gt;Node25</title>
<path fill="none" stroke="midnightblue" d="M648.06,-165.22C648.06,-158.18 648.06,-147.81 648.06,-138.83"/>
<polygon fill="midnightblue" stroke="midnightblue" points="651.56,-138.55 648.06,-128.55 644.56,-138.55 651.56,-138.55"/>
</g>
<!-- Node19&#45;&gt;Node4 -->
<g id="edge26" class="edge">
<title>Node19&#45;&gt;Node4</title>
<path fill="none" stroke="midnightblue" d="M923.62,-110.45C902.47,-101.7 868.44,-87.61 844.12,-77.53"/>
<polygon fill="midnightblue" stroke="midnightblue" points="845.26,-74.22 834.68,-73.63 842.58,-80.68 845.26,-74.22"/>
</g>
<!-- Node19&#45;&gt;Node6 -->
<g id="edge27" class="edge">
<title>Node19&#45;&gt;Node6</title>
<path fill="none" stroke="midnightblue" d="M907.65,-113.22C784.46,-94.84 375.52,-33.84 253.63,-15.66"/>
<polygon fill="midnightblue" stroke="midnightblue" points="253.8,-12.14 243.4,-14.13 252.77,-19.07 253.8,-12.14"/>
</g>
<!-- Node19&#45;&gt;Node8 -->
<g id="edge28" class="edge">
<title>Node19&#45;&gt;Node8</title>
<path fill="none" stroke="midnightblue" d="M969.52,-110.4C1012.66,-97.41 1100.99,-71.67 1177.06,-55 1261.33,-36.54 1362.13,-21.53 1411.61,-14.62"/>
<polygon fill="midnightblue" stroke="midnightblue" points="1412.22,-18.06 1421.64,-13.23 1411.26,-11.13 1412.22,-18.06"/>
</g>
<!-- Node19&#45;&gt;Node9 -->
<g id="edge29" class="edge">
<title>Node19&#45;&gt;Node9</title>
<path fill="none" stroke="midnightblue" d="M942.76,-110.09C942.68,-97.33 943.99,-72.7 954.06,-55 961.03,-42.74 972.73,-32.27 983.26,-24.58"/>
<polygon fill="midnightblue" stroke="midnightblue" points="985.44,-27.33 991.7,-18.79 981.48,-21.56 985.44,-27.33"/>
</g>
<!-- Node26&#45;&gt;Node4 -->
<g id="edge45" class="edge">
<title>Node26&#45;&gt;Node4</title>
<path fill="none" stroke="midnightblue" d="M1157.7,-110.45C1081.06,-100.4 950.82,-83.31 874.9,-73.35"/>
<polygon fill="midnightblue" stroke="midnightblue" points="874.93,-69.82 864.56,-71.99 874.02,-76.77 874.93,-69.82"/>
</g>
<!-- Node26&#45;&gt;Node6 -->
<g id="edge49" class="edge">
<title>Node26&#45;&gt;Node6</title>
<path fill="none" stroke="midnightblue" d="M1182.9,-110.46C1120.18,-96.83 986.98,-69.28 873.06,-55 751.24,-39.73 370.19,-18.59 253.42,-12.32"/>
<polygon fill="midnightblue" stroke="midnightblue" points="253.44,-8.82 243.27,-11.78 253.07,-15.81 253.44,-8.82"/>
</g>
<!-- Node26&#45;&gt;Node8 -->
<g id="edge50" class="edge">
<title>Node26&#45;&gt;Node8</title>
<path fill="none" stroke="midnightblue" d="M1281.59,-110.49C1314.24,-104.22 1353.78,-93.2 1385.06,-74 1404.32,-62.17 1420.87,-41.89 1431.1,-27.43"/>
<polygon fill="midnightblue" stroke="midnightblue" points="1434.15,-29.15 1436.87,-18.91 1428.36,-25.23 1434.15,-29.15"/>
</g>
<!-- Node26&#45;&gt;Node9 -->
<g id="edge52" class="edge">
<title>Node26&#45;&gt;Node9</title>
<path fill="none" stroke="midnightblue" d="M1210.25,-110.46C1195.48,-97.31 1164.32,-71.07 1134.06,-55 1102.87,-38.44 1064.26,-26 1037.65,-18.55"/>
<polygon fill="midnightblue" stroke="midnightblue" points="1038.3,-15.1 1027.73,-15.84 1036.45,-21.85 1038.3,-15.1"/>
</g>
<!-- Node27 -->
<g id="node27" class="node">
<title>Node27</title>
<g id="a_node27"><a xlink:href="Ioss__Property_8h.html" target="_top" xlink:title=" ">
<polygon fill="white" stroke="black" points="1186.41,-55.5 1186.41,-73.5 1271.7,-73.5 1271.7,-55.5 1186.41,-55.5"/>
<text text-anchor="middle" x="1229.06" y="-61.5" font-family="Helvetica,sans-Serif" font-size="10.00">Ioss_Property.h</text>
</a>
</g>
</g>
<!-- Node26&#45;&gt;Node27 -->
<g id="edge46" class="edge">
<title>Node26&#45;&gt;Node27</title>
<path fill="none" stroke="midnightblue" d="M1220.62,-110.22C1221.96,-103.1 1223.95,-92.58 1225.65,-83.53"/>
<polygon fill="midnightblue" stroke="midnightblue" points="1229.12,-84.03 1227.54,-73.55 1222.24,-82.73 1229.12,-84.03"/>
</g>
<!-- Node28 -->
<g id="node28" class="node">
<title>Node28</title>
<g id="a_node28"><a xlink:title=" ">
<polygon fill="white" stroke="#bfbfbf" points="1289.75,-55.5 1289.75,-73.5 1376.36,-73.5 1376.36,-55.5 1289.75,-55.5"/>
<text text-anchor="middle" x="1333.06" y="-61.5" font-family="Helvetica,sans-Serif" font-size="10.00">unordered_map</text>
</a>
</g>
</g>
<!-- Node26&#45;&gt;Node28 -->
<g id="edge51" class="edge">
<title>Node26&#45;&gt;Node28</title>
<path fill="none" stroke="midnightblue" d="M1236.37,-110.45C1254.95,-101.81 1284.7,-87.98 1306.3,-77.94"/>
<polygon fill="midnightblue" stroke="midnightblue" points="1307.99,-81.01 1315.58,-73.63 1305.04,-74.67 1307.99,-81.01"/>
</g>
<!-- Node27&#45;&gt;Node7 -->
<g id="edge47" class="edge">
<title>Node27&#45;&gt;Node7</title>
<path fill="none" stroke="midnightblue" d="M1186.36,-60.71C1042.9,-51.32 579.97,-21.03 452.07,-12.66"/>
<polygon fill="midnightblue" stroke="midnightblue" points="451.96,-9.15 441.75,-11.99 451.5,-16.13 451.96,-9.15"/>
</g>
<!-- Node27&#45;&gt;Node8 -->
<g id="edge48" class="edge">
<title>Node27&#45;&gt;Node8</title>
<path fill="none" stroke="midnightblue" d="M1261.41,-55.45C1302.22,-45.3 1371.86,-27.97 1411.7,-18.05"/>
<polygon fill="midnightblue" stroke="midnightblue" points="1412.77,-21.39 1421.63,-15.58 1411.08,-14.6 1412.77,-21.39"/>
</g>
<!-- Node33&#45;&gt;Node4 -->
<g id="edge65" class="edge">
<title>Node33&#45;&gt;Node4</title>
<path fill="none" stroke="midnightblue" d="M1436.29,-168.22C1371.83,-160.61 1250.7,-145.61 1148.06,-129 1046.31,-112.53 927.93,-88.88 863.29,-75.58"/>
<polygon fill="midnightblue" stroke="midnightblue" points="863.89,-72.13 853.39,-73.53 862.48,-78.98 863.89,-72.13"/>
</g>
<!-- Node33&#45;&gt;Node8 -->
<g id="edge66" class="edge">
<title>Node33&#45;&gt;Node8</title>
<path fill="none" stroke="midnightblue" d="M1485.64,-165.27C1493.78,-145.3 1511.61,-93.13 1494.06,-55 1488.23,-42.35 1476.84,-31.96 1466.21,-24.41"/>
<polygon fill="midnightblue" stroke="midnightblue" points="1467.86,-21.31 1457.59,-18.74 1464.02,-27.16 1467.86,-21.31"/>
</g>
<!-- Node33&#45;&gt;Node9 -->
<g id="edge70" class="edge">
<title>Node33&#45;&gt;Node9</title>
<path fill="none" stroke="midnightblue" d="M1478.73,-165.11C1473.44,-152.39 1462.23,-127.81 1448.06,-110 1424.91,-80.92 1419.04,-70.06 1385.06,-55 1323.16,-27.56 1118.52,-15.57 1038.51,-11.85"/>
<polygon fill="midnightblue" stroke="midnightblue" points="1038.23,-8.33 1028.08,-11.38 1037.91,-15.33 1038.23,-8.33"/>
</g>
<!-- Node33&#45;&gt;Node12 -->
<g id="edge67" class="edge">
<title>Node33&#45;&gt;Node12</title>
<path fill="none" stroke="midnightblue" d="M1510.31,-165.45C1542.22,-156.36 1594.32,-141.51 1629.85,-131.39"/>
<polygon fill="midnightblue" stroke="midnightblue" points="1631.19,-134.64 1639.85,-128.54 1629.27,-127.91 1631.19,-134.64"/>
</g>
<!-- Node33&#45;&gt;Node26 -->
<g id="edge68" class="edge">
<title>Node33&#45;&gt;Node26</title>
<path fill="none" stroke="midnightblue" d="M1442.11,-165.45C1395.73,-156.1 1319.18,-140.68 1268.94,-130.55"/>
<polygon fill="midnightblue" stroke="midnightblue" points="1269.44,-127.08 1258.94,-128.54 1268.06,-133.94 1269.44,-127.08"/>
</g>
<!-- Node33&#45;&gt;Node32 -->
<g id="edge69" class="edge">
<title>Node33&#45;&gt;Node32</title>
<path fill="none" stroke="midnightblue" d="M1472.79,-165.45C1463.66,-157.51 1449.47,-145.19 1438.26,-135.45"/>
<polygon fill="midnightblue" stroke="midnightblue" points="1440.25,-132.54 1430.41,-128.63 1435.66,-137.83 1440.25,-132.54"/>
</g>
</g>
</svg>
