<?xml version="1.0" encoding="UTF-8" standalone="no"?>
<!DOCTYPE svg PUBLIC "-//W3C//DTD SVG 1.1//EN"
 "http://www.w3.org/Graphics/SVG/1.1/DTD/svg11.dtd">
<!-- Generated by graphviz version 2.43.0 (0)
 -->
<!-- Title: src/generated/Iogn_DashSurfaceMesh.C Pages: 1 -->
<!--zoomable 332 -->
<svg id="main" version="1.1" xmlns="http://www.w3.org/2000/svg" xmlns:xlink="http://www.w3.org/1999/xlink" xml:space="preserve" onload="init(evt)">
<style type="text/css"><![CDATA[
.edge:hover path { stroke: red; }
.edge:hover polygon { stroke: red; fill: red; }
]]></style>
<script type="text/javascript"><![CDATA[
var edges = document.getElementsByTagName('g');
if (edges && edges.length) {
  for (var i=0;i<edges.length;i++) {
    if (edges[i].id.substr(0,4)=='edge') {
      edges[i].setAttribute('class','edge');
    }
  }
}
]]></script>
        <defs>
                <circle id="rim" cx="0" cy="0" r="7"/>
                <circle id="rim2" cx="0" cy="0" r="3.5"/>
                <g id="zoomPlus">
                        <use xlink:href="#rim" fill="#404040">
                                <set attributeName="fill" to="#808080" begin="zoomplus.mouseover" end="zoomplus.mouseout"/>
                        </use>
                        <path d="M-4,0h8M0,-4v8" fill="none" stroke="white" stroke-width="1.5" pointer-events="none"/>
                </g>
                <g id="zoomMin">
                        <use xlink:href="#rim" fill="#404040">
                                <set attributeName="fill" to="#808080" begin="zoomminus.mouseover" end="zoomminus.mouseout"/>
                        </use>
                        <path d="M-4,0h8" fill="none" stroke="white" stroke-width="1.5" pointer-events="none"/>
                </g>
                <g id="dirArrow">
                        <path fill="none" stroke="white" stroke-width="1.5" d="M0,-3.0v7 M-2.5,-0.5L0,-3.0L2.5,-0.5"/>
                </g>
               <g id="resetDef">
                       <use xlink:href="#rim2" fill="#404040">
                               <set attributeName="fill" to="#808080" begin="reset.mouseover" end="reset.mouseout"/>
                       </use>
               </g>
        </defs>

<script type="text/javascript">
var viewWidth = 767;
var viewHeight = 332;
var sectionId = 'dynsection-0';
</script>
<script xlink:href="svgpan.js"/>
<svg id="graph" class="graph">
<g id="viewport">
<title>src/generated/Iogn_DashSurfaceMesh.C</title>
<polygon fill="white" stroke="transparent" points="-4,4 -4,-328 763.12,-328 763.12,4 -4,4"/>
<!-- Node1 -->
<g id="node1" class="node">
<title>Node1</title>
<g id="a_node1"><a xlink:title=" ">
<polygon fill="#bfbfbf" stroke="black" points="91.09,-295.5 91.09,-323.5 204.91,-323.5 204.91,-295.5 91.09,-295.5"/>
<text text-anchor="start" x="99.09" y="-311.5" font-family="Helvetica,sans-Serif" font-size="10.00">src/generated/Iogn</text>
<text text-anchor="middle" x="148" y="-301.5" font-family="Helvetica,sans-Serif" font-size="10.00">_DashSurfaceMesh.C</text>
</a>
</g>
</g>
<!-- Node2 -->
<g id="node2" class="node">
<title>Node2</title>
<g id="a_node2"><a xlink:href="Iogn__GeneratedMesh_8h.html" target="_top" xlink:title=" ">
<polygon fill="white" stroke="black" points="344.95,-110.5 344.95,-138.5 481.05,-138.5 481.05,-110.5 344.95,-110.5"/>
<text text-anchor="start" x="352.95" y="-126.5" font-family="Helvetica,sans-Serif" font-size="10.00">generated/Iogn_Generated</text>
<text text-anchor="middle" x="413" y="-116.5" font-family="Helvetica,sans-Serif" font-size="10.00">Mesh.h</text>
</a>
</g>
</g>
<!-- Node1&#45;&gt;Node2 -->
<g id="edge1" class="edge">
<title>Node1&#45;&gt;Node2</title>
<path fill="none" stroke="midnightblue" d="M140.87,-295.31C127.78,-269.07 103.77,-209.85 133,-175 136.29,-171.08 252.91,-151.45 334.59,-138.12"/>
<polygon fill="midnightblue" stroke="midnightblue" points="335.56,-141.51 344.87,-136.45 334.44,-134.6 335.56,-141.51"/>
</g>
<!-- Node8 -->
<g id="node8" class="node">
<title>Node8</title>
<g id="a_node8"><a xlink:title=" ">
<polygon fill="white" stroke="#bfbfbf" points="130.38,-0.5 130.38,-18.5 173.62,-18.5 173.62,-0.5 130.38,-0.5"/>
<text text-anchor="middle" x="152" y="-6.5" font-family="Helvetica,sans-Serif" font-size="10.00">vector</text>
</a>
</g>
</g>
<!-- Node1&#45;&gt;Node8 -->
<g id="edge40" class="edge">
<title>Node1&#45;&gt;Node8</title>
<path fill="none" stroke="midnightblue" d="M109.11,-295.41C65.26,-277.9 0,-242.3 0,-185.5 0,-185.5 0,-185.5 0,-123.5 0,-64.01 75.91,-32.17 120.44,-18.61"/>
<polygon fill="midnightblue" stroke="midnightblue" points="121.59,-21.92 130.22,-15.77 119.64,-15.2 121.59,-21.92"/>
</g>
<!-- Node14 -->
<g id="node14" class="node">
<title>Node14</title>
<g id="a_node14"><a xlink:title=" ">
<polygon fill="white" stroke="#bfbfbf" points="397.44,-235.5 397.44,-253.5 454.56,-253.5 454.56,-235.5 397.44,-235.5"/>
<text text-anchor="middle" x="426" y="-241.5" font-family="Helvetica,sans-Serif" font-size="10.00">algorithm</text>
</a>
</g>
</g>
<!-- Node1&#45;&gt;Node14 -->
<g id="edge18" class="edge">
<title>Node1&#45;&gt;Node14</title>
<path fill="none" stroke="midnightblue" d="M205.27,-298.98C254.22,-290.31 326.33,-276.22 388,-259 390.33,-258.35 392.73,-257.63 395.13,-256.86"/>
<polygon fill="midnightblue" stroke="midnightblue" points="396.5,-260.1 404.86,-253.59 394.27,-253.46 396.5,-260.1"/>
</g>
<!-- Node15 -->
<g id="node15" class="node">
<title>Node15</title>
<g id="a_node15"><a xlink:href="Iogn__DashSurfaceMesh_8h.html" target="_top" xlink:title=" ">
<polygon fill="white" stroke="black" points="232.68,-230.5 232.68,-258.5 379.32,-258.5 379.32,-230.5 232.68,-230.5"/>
<text text-anchor="start" x="240.68" y="-246.5" font-family="Helvetica,sans-Serif" font-size="10.00">generated/Iogn_DashSurface</text>
<text text-anchor="middle" x="306" y="-236.5" font-family="Helvetica,sans-Serif" font-size="10.00">Mesh.h</text>
</a>
</g>
</g>
<!-- Node1&#45;&gt;Node15 -->
<g id="edge19" class="edge">
<title>Node1&#45;&gt;Node15</title>
<path fill="none" stroke="midnightblue" d="M180.74,-295.45C204.78,-285.86 237.66,-272.75 263.69,-262.37"/>
<polygon fill="midnightblue" stroke="midnightblue" points="265.31,-265.49 273.3,-258.54 262.72,-258.99 265.31,-265.49"/>
</g>
<!-- Node3 -->
<g id="node3" class="node">
<title>Node3</title>
<g id="a_node3"><a xlink:href="Ioss__CodeTypes_8h.html" target="_top" xlink:title=" ">
<polygon fill="white" stroke="black" points="497.58,-55.5 497.58,-73.5 596.42,-73.5 596.42,-55.5 497.58,-55.5"/>
<text text-anchor="middle" x="547" y="-61.5" font-family="Helvetica,sans-Serif" font-size="10.00">Ioss_CodeTypes.h</text>
</a>
</g>
</g>
<!-- Node2&#45;&gt;Node3 -->
<g id="edge2" class="edge">
<title>Node2&#45;&gt;Node3</title>
<path fill="none" stroke="midnightblue" d="M443.07,-110.48C465.79,-100.65 496.75,-87.25 518.96,-77.64"/>
<polygon fill="midnightblue" stroke="midnightblue" points="520.4,-80.83 528.19,-73.64 517.62,-74.4 520.4,-80.83"/>
</g>
<!-- Node4 -->
<g id="node4" class="node">
<title>Node4</title>
<g id="a_node4"><a xlink:title=" ">
<polygon fill="white" stroke="#bfbfbf" points="386.61,-0.5 386.61,-18.5 425.39,-18.5 425.39,-0.5 386.61,-0.5"/>
<text text-anchor="middle" x="406" y="-6.5" font-family="Helvetica,sans-Serif" font-size="10.00">array</text>
</a>
</g>
</g>
<!-- Node2&#45;&gt;Node4 -->
<g id="edge11" class="edge">
<title>Node2&#45;&gt;Node4</title>
<path fill="none" stroke="midnightblue" d="M426.63,-110.15C438.78,-96.55 453.56,-74.72 446,-55 441.6,-43.53 432.74,-33.17 424.47,-25.33"/>
<polygon fill="midnightblue" stroke="midnightblue" points="426.7,-22.63 416.89,-18.64 422.07,-27.88 426.7,-22.63"/>
</g>
<!-- Node5 -->
<g id="node5" class="node">
<title>Node5</title>
<g id="a_node5"><a xlink:title=" ">
<polygon fill="white" stroke="#bfbfbf" points="710.88,-0.5 710.88,-18.5 759.12,-18.5 759.12,-0.5 710.88,-0.5"/>
<text text-anchor="middle" x="735" y="-6.5" font-family="Helvetica,sans-Serif" font-size="10.00">cstddef</text>
</a>
</g>
</g>
<!-- Node2&#45;&gt;Node5 -->
<g id="edge12" class="edge">
<title>Node2&#45;&gt;Node5</title>
<path fill="none" stroke="midnightblue" d="M481.36,-114.02C525.47,-106.46 583.46,-93.81 632,-74 663.54,-61.13 696.45,-39.09 716.34,-24.65"/>
<polygon fill="midnightblue" stroke="midnightblue" points="718.55,-27.38 724.51,-18.62 714.39,-21.74 718.55,-27.38"/>
</g>
<!-- Node6 -->
<g id="node6" class="node">
<title>Node6</title>
<g id="a_node6"><a xlink:title=" ">
<polygon fill="white" stroke="#bfbfbf" points="647.55,-0.5 647.55,-18.5 692.45,-18.5 692.45,-0.5 647.55,-0.5"/>
<text text-anchor="middle" x="670" y="-6.5" font-family="Helvetica,sans-Serif" font-size="10.00">cstdint</text>
</a>
</g>
</g>
<!-- Node2&#45;&gt;Node6 -->
<g id="edge13" class="edge">
<title>Node2&#45;&gt;Node6</title>
<path fill="none" stroke="midnightblue" d="M481.11,-114.81C519.36,-107.81 566.91,-95.46 605,-74 626.17,-62.07 645.4,-41.51 657.35,-27.02"/>
<polygon fill="midnightblue" stroke="midnightblue" points="660.32,-28.92 663.81,-18.92 654.84,-24.56 660.32,-28.92"/>
</g>
<!-- Node7 -->
<g id="node7" class="node">
<title>Node7</title>
<g id="a_node7"><a xlink:title=" ">
<polygon fill="white" stroke="#bfbfbf" points="282.77,-0.5 282.77,-18.5 323.23,-18.5 323.23,-0.5 282.77,-0.5"/>
<text text-anchor="middle" x="303" y="-6.5" font-family="Helvetica,sans-Serif" font-size="10.00">string</text>
</a>
</g>
</g>
<!-- Node2&#45;&gt;Node7 -->
<g id="edge15" class="edge">
<title>Node2&#45;&gt;Node7</title>
<path fill="none" stroke="midnightblue" d="M417.03,-110.39C420.72,-95.6 424.1,-71.47 413,-55 395.39,-28.88 359.56,-18.08 333.57,-13.63"/>
<polygon fill="midnightblue" stroke="midnightblue" points="333.87,-10.13 323.46,-12.12 332.84,-17.06 333.87,-10.13"/>
</g>
<!-- Node2&#45;&gt;Node8 -->
<g id="edge17" class="edge">
<title>Node2&#45;&gt;Node8</title>
<path fill="none" stroke="midnightblue" d="M382.4,-110.44C359.79,-100.68 328.31,-86.86 301,-74 283.92,-65.96 280.22,-62.74 263,-55 236.28,-42.99 205.29,-30.7 182.85,-22.08"/>
<polygon fill="midnightblue" stroke="midnightblue" points="184.09,-18.81 173.5,-18.52 181.59,-25.35 184.09,-18.81"/>
</g>
<!-- Node11 -->
<g id="node11" class="node">
<title>Node11</title>
<g id="a_node11"><a xlink:href="Ioss__EntityType_8h.html" target="_top" xlink:title=" ">
<polygon fill="white" stroke="black" points="309.53,-55.5 309.53,-73.5 404.47,-73.5 404.47,-55.5 309.53,-55.5"/>
<text text-anchor="middle" x="357" y="-61.5" font-family="Helvetica,sans-Serif" font-size="10.00">Ioss_EntityType.h</text>
</a>
</g>
</g>
<!-- Node2&#45;&gt;Node11 -->
<g id="edge10" class="edge">
<title>Node2&#45;&gt;Node11</title>
<path fill="none" stroke="midnightblue" d="M400.29,-110.34C391.91,-101.65 380.88,-90.23 372.05,-81.09"/>
<polygon fill="midnightblue" stroke="midnightblue" points="374.45,-78.53 364.99,-73.77 369.41,-83.4 374.45,-78.53"/>
</g>
<!-- Node12 -->
<g id="node12" class="node">
<title>Node12</title>
<g id="a_node12"><a xlink:title=" ">
<polygon fill="white" stroke="#bfbfbf" points="218.27,-55.5 218.27,-73.5 253.73,-73.5 253.73,-55.5 218.27,-55.5"/>
<text text-anchor="middle" x="236" y="-61.5" font-family="Helvetica,sans-Serif" font-size="10.00">map</text>
</a>
</g>
</g>
<!-- Node2&#45;&gt;Node12 -->
<g id="edge14" class="edge">
<title>Node2&#45;&gt;Node12</title>
<path fill="none" stroke="midnightblue" d="M373.28,-110.48C339.91,-99.55 293.08,-84.2 263.65,-74.56"/>
<polygon fill="midnightblue" stroke="midnightblue" points="264.61,-71.19 254.02,-71.41 262.43,-77.85 264.61,-71.19"/>
</g>
<!-- Node13 -->
<g id="node13" class="node">
<title>Node13</title>
<g id="a_node13"><a xlink:title=" ">
<polygon fill="white" stroke="#bfbfbf" points="689.61,-55.5 689.61,-73.5 728.39,-73.5 728.39,-55.5 689.61,-55.5"/>
<text text-anchor="middle" x="709" y="-61.5" font-family="Helvetica,sans-Serif" font-size="10.00">utility</text>
</a>
</g>
</g>
<!-- Node2&#45;&gt;Node13 -->
<g id="edge16" class="edge">
<title>Node2&#45;&gt;Node13</title>
<path fill="none" stroke="midnightblue" d="M481.09,-111.96C534.34,-102.62 610.13,-88.67 676,-74 677.23,-73.73 678.49,-73.44 679.76,-73.14"/>
<polygon fill="midnightblue" stroke="midnightblue" points="680.63,-76.53 689.51,-70.75 678.96,-69.73 680.63,-76.53"/>
</g>
<!-- Node3&#45;&gt;Node4 -->
<g id="edge3" class="edge">
<title>Node3&#45;&gt;Node4</title>
<path fill="none" stroke="midnightblue" d="M525.59,-55.45C501.54,-46.41 462.37,-31.69 435.45,-21.57"/>
<polygon fill="midnightblue" stroke="midnightblue" points="436.38,-18.18 425.79,-17.94 433.92,-24.73 436.38,-18.18"/>
</g>
<!-- Node3&#45;&gt;Node5 -->
<g id="edge4" class="edge">
<title>Node3&#45;&gt;Node5</title>
<path fill="none" stroke="midnightblue" d="M575.55,-55.45C609.12,-45.99 664.78,-30.3 700.66,-20.18"/>
<polygon fill="midnightblue" stroke="midnightblue" points="702,-23.44 710.67,-17.36 700.1,-16.7 702,-23.44"/>
</g>
<!-- Node3&#45;&gt;Node6 -->
<g id="edge5" class="edge">
<title>Node3&#45;&gt;Node6</title>
<path fill="none" stroke="midnightblue" d="M565.68,-55.45C585.91,-46.73 618.41,-32.73 641.76,-22.67"/>
<polygon fill="midnightblue" stroke="midnightblue" points="643.34,-25.8 651.14,-18.63 640.57,-19.37 643.34,-25.8"/>
</g>
<!-- Node3&#45;&gt;Node7 -->
<g id="edge6" class="edge">
<title>Node3&#45;&gt;Node7</title>
<path fill="none" stroke="midnightblue" d="M509.94,-55.45C461.68,-44.97 378.22,-26.84 333.46,-17.12"/>
<polygon fill="midnightblue" stroke="midnightblue" points="333.99,-13.65 323.48,-14.95 332.51,-20.49 333.99,-13.65"/>
</g>
<!-- Node3&#45;&gt;Node8 -->
<g id="edge7" class="edge">
<title>Node3&#45;&gt;Node8</title>
<path fill="none" stroke="midnightblue" d="M497.37,-56.84C415.16,-45.81 252.96,-24.05 184.11,-14.81"/>
<polygon fill="midnightblue" stroke="midnightblue" points="184.27,-11.3 173.89,-13.44 183.34,-18.24 184.27,-11.3"/>
</g>
<!-- Node9 -->
<g id="node9" class="node">
<title>Node9</title>
<g id="a_node9"><a xlink:title=" ">
<polygon fill="white" stroke="#bfbfbf" points="443.25,-0.5 443.25,-18.5 558.75,-18.5 558.75,-0.5 443.25,-0.5"/>
<text text-anchor="middle" x="501" y="-6.5" font-family="Helvetica,sans-Serif" font-size="10.00">SEACASIoss_config.h</text>
</a>
</g>
</g>
<!-- Node3&#45;&gt;Node9 -->
<g id="edge8" class="edge">
<title>Node3&#45;&gt;Node9</title>
<path fill="none" stroke="midnightblue" d="M539.81,-55.22C533.09,-47.47 522.87,-35.7 514.61,-26.18"/>
<polygon fill="midnightblue" stroke="midnightblue" points="517.18,-23.81 507.99,-18.55 511.9,-28.4 517.18,-23.81"/>
</g>
<!-- Node10 -->
<g id="node10" class="node">
<title>Node10</title>
<g id="a_node10"><a xlink:title=" ">
<polygon fill="white" stroke="#bfbfbf" points="576.38,-0.5 576.38,-18.5 629.62,-18.5 629.62,-0.5 576.38,-0.5"/>
<text text-anchor="middle" x="603" y="-6.5" font-family="Helvetica,sans-Serif" font-size="10.00">complex</text>
</a>
</g>
</g>
<!-- Node3&#45;&gt;Node10 -->
<g id="edge9" class="edge">
<title>Node3&#45;&gt;Node10</title>
<path fill="none" stroke="midnightblue" d="M555.75,-55.22C564.1,-47.32 576.88,-35.22 587.04,-25.61"/>
<polygon fill="midnightblue" stroke="midnightblue" points="589.64,-27.97 594.49,-18.55 584.83,-22.88 589.64,-27.97"/>
</g>
<!-- Node15&#45;&gt;Node2 -->
<g id="edge36" class="edge">
<title>Node15&#45;&gt;Node2</title>
<path fill="none" stroke="midnightblue" d="M369.48,-230.48C419.95,-219.49 483.33,-203.99 491,-194 506.2,-174.2 482.12,-155.78 456.82,-143.03"/>
<polygon fill="midnightblue" stroke="midnightblue" points="458.05,-139.74 447.51,-138.6 455.04,-146.06 458.05,-139.74"/>
</g>
<!-- Node15&#45;&gt;Node5 -->
<g id="edge33" class="edge">
<title>Node15&#45;&gt;Node5</title>
<path fill="none" stroke="midnightblue" d="M379.33,-231.4C455.28,-218.72 565.57,-199.84 585,-194 643.9,-176.28 665.51,-179.28 712,-139 737.64,-116.79 742.76,-106.64 752,-74 756.41,-58.4 750.7,-40.57 744.73,-27.78"/>
<polygon fill="midnightblue" stroke="midnightblue" points="747.77,-26.03 740.08,-18.74 741.55,-29.23 747.77,-26.03"/>
</g>
<!-- Node15&#45;&gt;Node6 -->
<g id="edge34" class="edge">
<title>Node15&#45;&gt;Node6</title>
<path fill="none" stroke="midnightblue" d="M378.97,-230.46C436.49,-219.75 511.71,-204.66 541,-194 636.98,-159.07 689.8,-164.58 737,-74 748.2,-52.52 722.81,-34.26 700.13,-22.92"/>
<polygon fill="midnightblue" stroke="midnightblue" points="701.56,-19.72 691.02,-18.63 698.58,-26.05 701.56,-19.72"/>
</g>
<!-- Node15&#45;&gt;Node7 -->
<g id="edge37" class="edge">
<title>Node15&#45;&gt;Node7</title>
<path fill="none" stroke="midnightblue" d="M232.29,-231.5C191.02,-223.11 145.41,-210.46 133,-194 98.95,-148.84 50.14,-191.45 202,-55 222.3,-36.76 251.28,-25.04 272.99,-18.23"/>
<polygon fill="midnightblue" stroke="midnightblue" points="274.1,-21.55 282.7,-15.36 272.12,-14.84 274.1,-21.55"/>
</g>
<!-- Node15&#45;&gt;Node8 -->
<g id="edge39" class="edge">
<title>Node15&#45;&gt;Node8</title>
<path fill="none" stroke="midnightblue" d="M232.49,-234.5C183.12,-226.77 124.37,-213.71 109,-194 69.46,-143.29 115.97,-62.3 139.71,-27.4"/>
<polygon fill="midnightblue" stroke="midnightblue" points="142.84,-29.04 145.72,-18.84 137.11,-25.02 142.84,-29.04"/>
</g>
<!-- Node15&#45;&gt;Node13 -->
<g id="edge38" class="edge">
<title>Node15&#45;&gt;Node13</title>
<path fill="none" stroke="midnightblue" d="M379.38,-231.55C418.55,-223.69 467.01,-211.55 508,-194 580.7,-162.87 656.77,-106.69 690.74,-80.15"/>
<polygon fill="midnightblue" stroke="midnightblue" points="693.12,-82.73 698.8,-73.78 688.79,-77.23 693.12,-82.73"/>
</g>
<!-- Node16 -->
<g id="node16" class="node">
<title>Node16</title>
<g id="a_node16"><a xlink:href="Ioss__Beam2_8h.html" target="_top" xlink:title=" ">
<polygon fill="white" stroke="black" points="218.04,-175.5 218.04,-193.5 297.96,-193.5 297.96,-175.5 218.04,-175.5"/>
<text text-anchor="middle" x="258" y="-181.5" font-family="Helvetica,sans-Serif" font-size="10.00">Ioss_Beam2.h</text>
</a>
</g>
</g>
<!-- Node15&#45;&gt;Node16 -->
<g id="edge20" class="edge">
<title>Node15&#45;&gt;Node16</title>
<path fill="none" stroke="midnightblue" d="M295.11,-230.34C288.07,-221.83 278.85,-210.69 271.36,-201.65"/>
<polygon fill="midnightblue" stroke="midnightblue" points="273.92,-199.24 264.85,-193.77 268.52,-203.71 273.92,-199.24"/>
</g>
<!-- Node18 -->
<g id="node18" class="node">
<title>Node18</title>
<g id="a_node18"><a xlink:href="Ioss__Hex8_8h.html" target="_top" xlink:title=" ">
<polygon fill="white" stroke="black" points="410.21,-175.5 410.21,-193.5 481.79,-193.5 481.79,-175.5 410.21,-175.5"/>
<text text-anchor="middle" x="446" y="-181.5" font-family="Helvetica,sans-Serif" font-size="10.00">Ioss_Hex8.h</text>
</a>
</g>
</g>
<!-- Node15&#45;&gt;Node18 -->
<g id="edge27" class="edge">
<title>Node15&#45;&gt;Node18</title>
<path fill="none" stroke="midnightblue" d="M337.42,-230.48C361.26,-220.61 393.79,-207.13 417.01,-197.51"/>
<polygon fill="midnightblue" stroke="midnightblue" points="418.44,-200.7 426.34,-193.64 415.77,-194.24 418.44,-200.7"/>
</g>
<!-- Node19 -->
<g id="node19" class="node">
<title>Node19</title>
<g id="a_node19"><a xlink:href="Ioss__Shell4_8h.html" target="_top" xlink:title=" ">
<polygon fill="white" stroke="black" points="315.98,-175.5 315.98,-193.5 392.02,-193.5 392.02,-175.5 315.98,-175.5"/>
<text text-anchor="middle" x="354" y="-181.5" font-family="Helvetica,sans-Serif" font-size="10.00">Ioss_Shell4.h</text>
</a>
</g>
</g>
<!-- Node15&#45;&gt;Node19 -->
<g id="edge30" class="edge">
<title>Node15&#45;&gt;Node19</title>
<path fill="none" stroke="midnightblue" d="M316.89,-230.34C323.93,-221.83 333.15,-210.69 340.64,-201.65"/>
<polygon fill="midnightblue" stroke="midnightblue" points="343.48,-203.71 347.15,-193.77 338.08,-199.24 343.48,-203.71"/>
</g>
<!-- Node20 -->
<g id="node20" class="node">
<title>Node20</title>
<g id="a_node20"><a xlink:title=" ">
<polygon fill="white" stroke="#bfbfbf" points="141.6,-175.5 141.6,-193.5 200.4,-193.5 200.4,-175.5 141.6,-175.5"/>
<text text-anchor="middle" x="171" y="-181.5" font-family="Helvetica,sans-Serif" font-size="10.00">exception</text>
</a>
</g>
</g>
<!-- Node15&#45;&gt;Node20 -->
<g id="edge35" class="edge">
<title>Node15&#45;&gt;Node20</title>
<path fill="none" stroke="midnightblue" d="M275.7,-230.48C252.81,-220.65 221.63,-207.25 199.25,-197.64"/>
<polygon fill="midnightblue" stroke="midnightblue" points="200.52,-194.38 189.95,-193.64 197.76,-200.81 200.52,-194.38"/>
</g>
<!-- Node16&#45;&gt;Node3 -->
<g id="edge21" class="edge">
<title>Node16&#45;&gt;Node3</title>
<path fill="none" stroke="midnightblue" d="M298.06,-176.19C363.35,-164.22 485.9,-141.51 490,-139 512.09,-125.45 528.89,-100 538.34,-82.9"/>
<polygon fill="midnightblue" stroke="midnightblue" points="541.49,-84.42 543.05,-73.94 535.3,-81.17 541.49,-84.42"/>
</g>
<!-- Node17 -->
<g id="node17" class="node">
<title>Node17</title>
<g id="a_node17"><a xlink:href="Ioss__ElementTopology_8h.html" target="_top" xlink:title=" ">
<polygon fill="white" stroke="black" points="195.89,-115.5 195.89,-133.5 320.11,-133.5 320.11,-115.5 195.89,-115.5"/>
<text text-anchor="middle" x="258" y="-121.5" font-family="Helvetica,sans-Serif" font-size="10.00">Ioss_ElementTopology.h</text>
</a>
</g>
</g>
<!-- Node16&#45;&gt;Node17 -->
<g id="edge22" class="edge">
<title>Node16&#45;&gt;Node17</title>
<path fill="none" stroke="midnightblue" d="M258,-175.44C258,-167.39 258,-154.74 258,-144.18"/>
<polygon fill="midnightblue" stroke="midnightblue" points="261.5,-143.87 258,-133.87 254.5,-143.87 261.5,-143.87"/>
</g>
<!-- Node17&#45;&gt;Node3 -->
<g id="edge23" class="edge">
<title>Node17&#45;&gt;Node3</title>
<path fill="none" stroke="midnightblue" d="M297.88,-115.5C349.78,-105.08 440.47,-86.88 496.94,-75.55"/>
<polygon fill="midnightblue" stroke="midnightblue" points="497.95,-78.91 507.06,-73.51 496.57,-72.05 497.95,-78.91"/>
</g>
<!-- Node17&#45;&gt;Node7 -->
<g id="edge25" class="edge">
<title>Node17&#45;&gt;Node7</title>
<path fill="none" stroke="midnightblue" d="M244.83,-115.48C225.88,-102.9 194.69,-77.61 209,-55 222.92,-33.01 250.98,-21.67 272.83,-15.96"/>
<polygon fill="midnightblue" stroke="midnightblue" points="273.73,-19.35 282.66,-13.66 272.13,-12.53 273.73,-19.35"/>
</g>
<!-- Node17&#45;&gt;Node8 -->
<g id="edge26" class="edge">
<title>Node17&#45;&gt;Node8</title>
<path fill="none" stroke="midnightblue" d="M247.59,-115.25C235.95,-105.82 216.79,-89.66 202,-74 187.75,-58.92 173.28,-40.07 163.6,-26.84"/>
<polygon fill="midnightblue" stroke="midnightblue" points="166.41,-24.76 157.72,-18.7 160.73,-28.85 166.41,-24.76"/>
</g>
<!-- Node17&#45;&gt;Node12 -->
<g id="edge24" class="edge">
<title>Node17&#45;&gt;Node12</title>
<path fill="none" stroke="midnightblue" d="M254.94,-115.44C251.82,-107.22 246.89,-94.2 242.83,-83.51"/>
<polygon fill="midnightblue" stroke="midnightblue" points="245.99,-81.98 239.18,-73.87 239.45,-84.46 245.99,-81.98"/>
</g>
<!-- Node18&#45;&gt;Node3 -->
<g id="edge28" class="edge">
<title>Node18&#45;&gt;Node3</title>
<path fill="none" stroke="midnightblue" d="M481.94,-180.15C508.65,-175.56 543.39,-164.69 561,-139 572.44,-122.3 564.76,-98.69 557,-82.77"/>
<polygon fill="midnightblue" stroke="midnightblue" points="559.89,-80.75 552.09,-73.58 553.72,-84.05 559.89,-80.75"/>
</g>
<!-- Node18&#45;&gt;Node17 -->
<g id="edge29" class="edge">
<title>Node18&#45;&gt;Node17</title>
<path fill="none" stroke="midnightblue" d="M419.86,-175.44C387.12,-165.34 330.87,-147.98 294.05,-136.62"/>
<polygon fill="midnightblue" stroke="midnightblue" points="294.81,-133.19 284.22,-133.59 292.74,-139.88 294.81,-133.19"/>
</g>
<!-- Node19&#45;&gt;Node3 -->
<g id="edge31" class="edge">
<title>Node19&#45;&gt;Node3</title>
<path fill="none" stroke="midnightblue" d="M392.36,-175.43C439.2,-165.26 513.43,-148.03 523,-139 538.23,-124.63 543.81,-100.48 545.85,-83.81"/>
<polygon fill="midnightblue" stroke="midnightblue" points="549.35,-83.94 546.76,-73.67 542.38,-83.31 549.35,-83.94"/>
</g>
<!-- Node19&#45;&gt;Node17 -->
<g id="edge32" class="edge">
<title>Node19&#45;&gt;Node17</title>
<path fill="none" stroke="midnightblue" d="M340.65,-175.44C325.05,-166.01 298.99,-150.26 280.3,-138.97"/>
<polygon fill="midnightblue" stroke="midnightblue" points="281.91,-135.86 271.54,-133.68 278.29,-141.85 281.91,-135.86"/>
</g>
</g>
</svg>
        <g id="navigator" transform="translate(0 0)" fill="#404254">
                <rect fill="#f2f5e9" fill-opacity="0.5" stroke="#606060" stroke-width=".5" x="0" y="0" width="60" height="60"/>
                <use id="zoomplus" xlink:href="#zoomPlus" x="17" y="9" onmousedown="handleZoom(evt,'in')"/>
                <use id="zoomminus" xlink:href="#zoomMin" x="42" y="9" onmousedown="handleZoom(evt,'out')"/>
                <use id="reset" xlink:href="#resetDef" x="30" y="36" onmousedown="handleReset()"/>
                <g id="arrowUp" xlink:href="#dirArrow" transform="translate(30 24)" onmousedown="handlePan(0,-1)">
                  <use xlink:href="#rim" fill="#404040">
                        <set attributeName="fill" to="#808080" begin="arrowUp.mouseover" end="arrowUp.mouseout"/>
                  </use>
                  <path fill="none" stroke="white" stroke-width="1.5" d="M0,-3.0v7 M-2.5,-0.5L0,-3.0L2.5,-0.5"/>
                </g>
                <g id="arrowRight" xlink:href="#dirArrow" transform="rotate(90) translate(36 -43)" onmousedown="handlePan(1,0)">
                  <use xlink:href="#rim" fill="#404040">
                        <set attributeName="fill" to="#808080" begin="arrowRight.mouseover" end="arrowRight.mouseout"/>
                  </use>
                  <path fill="none" stroke="white" stroke-width="1.5" d="M0,-3.0v7 M-2.5,-0.5L0,-3.0L2.5,-0.5"/>
                </g>
                <g id="arrowDown" xlink:href="#dirArrow" transform="rotate(180) translate(-30 -48)" onmousedown="handlePan(0,1)">
                  <use xlink:href="#rim" fill="#404040">
                        <set attributeName="fill" to="#808080" begin="arrowDown.mouseover" end="arrowDown.mouseout"/>
                  </use>
                  <path fill="none" stroke="white" stroke-width="1.5" d="M0,-3.0v7 M-2.5,-0.5L0,-3.0L2.5,-0.5"/>
                </g>
                <g id="arrowLeft" xlink:href="#dirArrow" transform="rotate(270) translate(-36 17)" onmousedown="handlePan(-1,0)">
                  <use xlink:href="#rim" fill="#404040">
                        <set attributeName="fill" to="#808080" begin="arrowLeft.mouseover" end="arrowLeft.mouseout"/>
                  </use>
                  <path fill="none" stroke="white" stroke-width="1.5" d="M0,-3.0v7 M-2.5,-0.5L0,-3.0L2.5,-0.5"/>
                </g>
        </g>
        <svg viewBox="0 0 15 15" width="100%" height="30px" preserveAspectRatio="xMaxYMin meet">
         <g id="arrow_out" transform="scale(0.3 0.3)">
          <a xlink:href="Iogn__DashSurfaceMesh_8C__incl_org.svg" target="_base">
           <rect id="button" ry="5" rx="5" y="6" x="6" height="38" width="38"
                fill="#f2f5e9" fill-opacity="0.5" stroke="#606060" stroke-width="1.0"/>
           <path id="arrow"
             d="M 11.500037,31.436501 C 11.940474,20.09759 22.043105,11.32322 32.158766,21.979434 L 37.068811,17.246167 C 37.068811,17.246167 37.088388,32 37.088388,32 L 22.160133,31.978069 C 22.160133,31.978069 26.997745,27.140456 26.997745,27.140456 C 18.528582,18.264221 13.291696,25.230495 11.500037,31.436501 z"
             style="fill:#404040;"/>
          </a>
         </g>
        </svg>
</svg>
