<?xml version="1.0" encoding="UTF-8" standalone="no"?>
<!DOCTYPE svg PUBLIC "-//W3C//DTD SVG 1.1//EN"
 "http://www.w3.org/Graphics/SVG/1.1/DTD/svg11.dtd">
<!-- Generated by graphviz version 2.43.0 (0)
 -->
<!-- Title: src/gen_struc/Iogs_GeneratedMesh.h Pages: 1 -->
<!--zoomable 147 -->
<svg id="main" version="1.1" xmlns="http://www.w3.org/2000/svg" xmlns:xlink="http://www.w3.org/1999/xlink" xml:space="preserve" onload="init(evt)">
<style type="text/css"><![CDATA[
.edge:hover path { stroke: red; }
.edge:hover polygon { stroke: red; fill: red; }
]]></style>
<script type="text/javascript"><![CDATA[
var edges = document.getElementsByTagName('g');
if (edges && edges.length) {
  for (var i=0;i<edges.length;i++) {
    if (edges[i].id.substr(0,4)=='edge') {
      edges[i].setAttribute('class','edge');
    }
  }
}
]]></script>
        <defs>
                <circle id="rim" cx="0" cy="0" r="7"/>
                <circle id="rim2" cx="0" cy="0" r="3.5"/>
                <g id="zoomPlus">
                        <use xlink:href="#rim" fill="#404040">
                                <set attributeName="fill" to="#808080" begin="zoomplus.mouseover" end="zoomplus.mouseout"/>
                        </use>
                        <path d="M-4,0h8M0,-4v8" fill="none" stroke="white" stroke-width="1.5" pointer-events="none"/>
                </g>
                <g id="zoomMin">
                        <use xlink:href="#rim" fill="#404040">
                                <set attributeName="fill" to="#808080" begin="zoomminus.mouseover" end="zoomminus.mouseout"/>
                        </use>
                        <path d="M-4,0h8" fill="none" stroke="white" stroke-width="1.5" pointer-events="none"/>
                </g>
                <g id="dirArrow">
                        <path fill="none" stroke="white" stroke-width="1.5" d="M0,-3.0v7 M-2.5,-0.5L0,-3.0L2.5,-0.5"/>
                </g>
               <g id="resetDef">
                       <use xlink:href="#rim2" fill="#404040">
                               <set attributeName="fill" to="#808080" begin="reset.mouseover" end="reset.mouseout"/>
                       </use>
               </g>
        </defs>

<script type="text/javascript">
var viewWidth = 574;
var viewHeight = 147;
var sectionId = 'dynsection-0';
</script>
<script xlink:href="svgpan.js"/>
<svg id="graph" class="graph">
<g id="viewport">
<title>src/gen_struc/Iogs_GeneratedMesh.h</title>
<polygon fill="white" stroke="transparent" points="-4,4 -4,-143 569.78,-143 569.78,4 -4,4"/>
<!-- Node1 -->
<g id="node1" class="node">
<title>Node1</title>
<g id="a_node1"><a xlink:title=" ">
<polygon fill="#bfbfbf" stroke="black" points="244.59,-110.5 244.59,-138.5 346.2,-138.5 346.2,-110.5 244.59,-110.5"/>
<text text-anchor="start" x="252.59" y="-126.5" font-family="Helvetica,sans-Serif" font-size="10.00">src/gen_struc/Iogs</text>
<text text-anchor="middle" x="295.39" y="-116.5" font-family="Helvetica,sans-Serif" font-size="10.00">_GeneratedMesh.h</text>
</a>
</g>
</g>
<!-- Node2 -->
<g id="node2" class="node">
<title>Node2</title>
<g id="a_node2"><a xlink:href="Ioss__CodeTypes_8h.html" target="_top" xlink:title=" ">
<polygon fill="white" stroke="black" points="168.98,-55.5 168.98,-73.5 267.81,-73.5 267.81,-55.5 168.98,-55.5"/>
<text text-anchor="middle" x="218.39" y="-61.5" font-family="Helvetica,sans-Serif" font-size="10.00">Ioss_CodeTypes.h</text>
</a>
</g>
</g>
<!-- Node1&#45;&gt;Node2 -->
<g id="edge1" class="edge">
<title>Node1&#45;&gt;Node2</title>
<path fill="none" stroke="midnightblue" d="M277.92,-110.34C265.92,-101.3 250,-89.31 237.64,-80"/>
<polygon fill="midnightblue" stroke="midnightblue" points="239.47,-76.99 229.37,-73.77 235.25,-82.58 239.47,-76.99"/>
</g>
<!-- Node3 -->
<g id="node3" class="node">
<title>Node3</title>
<g id="a_node3"><a xlink:title=" ">
<polygon fill="white" stroke="#bfbfbf" points="0,-0.5 0,-18.5 38.78,-18.5 38.78,-0.5 0,-0.5"/>
<text text-anchor="middle" x="19.39" y="-6.5" font-family="Helvetica,sans-Serif" font-size="10.00">array</text>
</a>
</g>
</g>
<!-- Node1&#45;&gt;Node3 -->
<g id="edge10" class="edge">
<title>Node1&#45;&gt;Node3</title>
<path fill="none" stroke="midnightblue" d="M244.34,-113.29C208.45,-105.13 159.82,-92.05 119.39,-74 89.24,-60.54 57.57,-38.98 38.15,-24.78"/>
<polygon fill="midnightblue" stroke="midnightblue" points="40.01,-21.8 29.9,-18.65 35.84,-27.42 40.01,-21.8"/>
</g>
<!-- Node4 -->
<g id="node4" class="node">
<title>Node4</title>
<g id="a_node4"><a xlink:title=" ">
<polygon fill="white" stroke="#bfbfbf" points="57.27,-0.5 57.27,-18.5 105.51,-18.5 105.51,-0.5 57.27,-0.5"/>
<text text-anchor="middle" x="81.39" y="-6.5" font-family="Helvetica,sans-Serif" font-size="10.00">cstddef</text>
</a>
</g>
</g>
<!-- Node1&#45;&gt;Node4 -->
<g id="edge11" class="edge">
<title>Node1&#45;&gt;Node4</title>
<path fill="none" stroke="midnightblue" d="M244.33,-112.41C214.64,-104.53 177.29,-92.1 147.39,-74 126.44,-61.31 106.81,-40.91 94.49,-26.66"/>
<polygon fill="midnightblue" stroke="midnightblue" points="96.93,-24.12 87.82,-18.71 91.57,-28.62 96.93,-24.12"/>
</g>
<!-- Node5 -->
<g id="node5" class="node">
<title>Node5</title>
<g id="a_node5"><a xlink:title=" ">
<polygon fill="white" stroke="#bfbfbf" points="123.94,-0.5 123.94,-18.5 168.84,-18.5 168.84,-0.5 123.94,-0.5"/>
<text text-anchor="middle" x="146.39" y="-6.5" font-family="Helvetica,sans-Serif" font-size="10.00">cstdint</text>
</a>
</g>
</g>
<!-- Node1&#45;&gt;Node5 -->
<g id="edge12" class="edge">
<title>Node1&#45;&gt;Node5</title>
<path fill="none" stroke="midnightblue" d="M244.33,-116.94C215.7,-110.63 181.58,-98.25 160.39,-74 149.6,-61.65 146.55,-42.86 145.93,-28.92"/>
<polygon fill="midnightblue" stroke="midnightblue" points="149.42,-28.58 145.86,-18.6 142.42,-28.62 149.42,-28.58"/>
</g>
<!-- Node6 -->
<g id="node6" class="node">
<title>Node6</title>
<g id="a_node6"><a xlink:title=" ">
<polygon fill="white" stroke="#bfbfbf" points="391.17,-0.5 391.17,-18.5 431.62,-18.5 431.62,-0.5 391.17,-0.5"/>
<text text-anchor="middle" x="411.39" y="-6.5" font-family="Helvetica,sans-Serif" font-size="10.00">string</text>
</a>
</g>
</g>
<!-- Node1&#45;&gt;Node6 -->
<g id="edge14" class="edge">
<title>Node1&#45;&gt;Node6</title>
<path fill="none" stroke="midnightblue" d="M296.95,-110.38C299.36,-95.36 305.3,-70.79 319.39,-55 328.23,-45.1 358.16,-31.57 381.52,-22.04"/>
<polygon fill="midnightblue" stroke="midnightblue" points="383.06,-25.19 391.04,-18.22 380.46,-18.69 383.06,-25.19"/>
</g>
<!-- Node7 -->
<g id="node7" class="node">
<title>Node7</title>
<g id="a_node7"><a xlink:title=" ">
<polygon fill="white" stroke="#bfbfbf" points="449.78,-0.5 449.78,-18.5 493.01,-18.5 493.01,-0.5 449.78,-0.5"/>
<text text-anchor="middle" x="471.39" y="-6.5" font-family="Helvetica,sans-Serif" font-size="10.00">vector</text>
</a>
</g>
</g>
<!-- Node1&#45;&gt;Node7 -->
<g id="edge16" class="edge">
<title>Node1&#45;&gt;Node7</title>
<path fill="none" stroke="midnightblue" d="M303.28,-110.39C313.06,-95.14 331.07,-70.13 352.39,-55 366.77,-44.79 409.63,-29.97 439.77,-20.29"/>
<polygon fill="midnightblue" stroke="midnightblue" points="440.97,-23.58 449.44,-17.21 438.85,-16.9 440.97,-23.58"/>
</g>
<!-- Node10 -->
<g id="node10" class="node">
<title>Node10</title>
<g id="a_node10"><a xlink:href="Ioss__EntityType_8h.html" target="_top" xlink:title=" ">
<polygon fill="white" stroke="black" points="360.92,-55.5 360.92,-73.5 455.86,-73.5 455.86,-55.5 360.92,-55.5"/>
<text text-anchor="middle" x="408.39" y="-61.5" font-family="Helvetica,sans-Serif" font-size="10.00">Ioss_EntityType.h</text>
</a>
</g>
</g>
<!-- Node1&#45;&gt;Node10 -->
<g id="edge9" class="edge">
<title>Node1&#45;&gt;Node10</title>
<path fill="none" stroke="midnightblue" d="M320.75,-110.48C339.48,-100.87 364.85,-87.85 383.47,-78.29"/>
<polygon fill="midnightblue" stroke="midnightblue" points="385.23,-81.32 392.53,-73.64 382.03,-75.1 385.23,-81.32"/>
</g>
<!-- Node11 -->
<g id="node11" class="node">
<title>Node11</title>
<g id="a_node11"><a xlink:title=" ">
<polygon fill="white" stroke="#bfbfbf" points="473.67,-55.5 473.67,-73.5 509.12,-73.5 509.12,-55.5 473.67,-55.5"/>
<text text-anchor="middle" x="491.39" y="-61.5" font-family="Helvetica,sans-Serif" font-size="10.00">map</text>
</a>
</g>
</g>
<!-- Node1&#45;&gt;Node11 -->
<g id="edge13" class="edge">
<title>Node1&#45;&gt;Node11</title>
<path fill="none" stroke="midnightblue" d="M341.01,-110.41C372.87,-101.2 416.62,-88.44 463.64,-74.19"/>
<polygon fill="midnightblue" stroke="midnightblue" points="464.85,-77.48 473.4,-71.22 462.81,-70.78 464.85,-77.48"/>
</g>
<!-- Node12 -->
<g id="node12" class="node">
<title>Node12</title>
<g id="a_node12"><a xlink:title=" ">
<polygon fill="white" stroke="#bfbfbf" points="527,-55.5 527,-73.5 565.78,-73.5 565.78,-55.5 527,-55.5"/>
<text text-anchor="middle" x="546.39" y="-61.5" font-family="Helvetica,sans-Serif" font-size="10.00">utility</text>
</a>
</g>
</g>
<!-- Node1&#45;&gt;Node12 -->
<g id="edge15" class="edge">
<title>Node1&#45;&gt;Node12</title>
<path fill="none" stroke="midnightblue" d="M346.58,-113.3C389.74,-104.43 453.31,-90.76 517.05,-74.21"/>
<polygon fill="midnightblue" stroke="midnightblue" points="518.08,-77.56 526.86,-71.64 516.3,-70.79 518.08,-77.56"/>
</g>
<!-- Node2&#45;&gt;Node3 -->
<g id="edge2" class="edge">
<title>Node2&#45;&gt;Node3</title>
<path fill="none" stroke="midnightblue" d="M186.67,-55.49C154.41,-47.28 102.73,-33.95 48.77,-19.04"/>
<polygon fill="midnightblue" stroke="midnightblue" points="49.6,-15.64 39.02,-16.34 47.73,-22.38 49.6,-15.64"/>
</g>
<!-- Node2&#45;&gt;Node4 -->
<g id="edge3" class="edge">
<title>Node2&#45;&gt;Node4</title>
<path fill="none" stroke="midnightblue" d="M197.58,-55.45C174.75,-46.62 137.88,-32.35 111.81,-22.27"/>
<polygon fill="midnightblue" stroke="midnightblue" points="112.98,-18.97 102.39,-18.63 110.46,-25.5 112.98,-18.97"/>
</g>
<!-- Node2&#45;&gt;Node5 -->
<g id="edge4" class="edge">
<title>Node2&#45;&gt;Node5</title>
<path fill="none" stroke="midnightblue" d="M207.46,-55.45C196.36,-47.28 178.94,-34.46 165.55,-24.6"/>
<polygon fill="midnightblue" stroke="midnightblue" points="167.56,-21.73 157.43,-18.63 163.41,-27.37 167.56,-21.73"/>
</g>
<!-- Node2&#45;&gt;Node6 -->
<g id="edge5" class="edge">
<title>Node2&#45;&gt;Node6</title>
<path fill="none" stroke="midnightblue" d="M248.67,-55.48C279.69,-47.22 329.55,-33.83 381.42,-19.23"/>
<polygon fill="midnightblue" stroke="midnightblue" points="382.45,-22.58 391.13,-16.5 380.55,-15.84 382.45,-22.58"/>
</g>
<!-- Node2&#45;&gt;Node7 -->
<g id="edge6" class="edge">
<title>Node2&#45;&gt;Node7</title>
<path fill="none" stroke="midnightblue" d="M263.24,-55.46C306.11,-47.56 372.77,-34.73 439.86,-18.98"/>
<polygon fill="midnightblue" stroke="midnightblue" points="440.84,-22.35 449.76,-16.64 439.22,-15.54 440.84,-22.35"/>
</g>
<!-- Node8 -->
<g id="node8" class="node">
<title>Node8</title>
<g id="a_node8"><a xlink:title=" ">
<polygon fill="white" stroke="#bfbfbf" points="257.64,-0.5 257.64,-18.5 373.14,-18.5 373.14,-0.5 257.64,-0.5"/>
<text text-anchor="middle" x="315.39" y="-6.5" font-family="Helvetica,sans-Serif" font-size="10.00">SEACASIoss_config.h</text>
</a>
</g>
</g>
<!-- Node2&#45;&gt;Node8 -->
<g id="edge7" class="edge">
<title>Node2&#45;&gt;Node8</title>
<path fill="none" stroke="midnightblue" d="M233.12,-55.45C248.65,-46.97 273.34,-33.48 291.62,-23.49"/>
<polygon fill="midnightblue" stroke="midnightblue" points="293.42,-26.49 300.52,-18.63 290.07,-20.35 293.42,-26.49"/>
</g>
<!-- Node9 -->
<g id="node9" class="node">
<title>Node9</title>
<g id="a_node9"><a xlink:title=" ">
<polygon fill="white" stroke="#bfbfbf" points="186.77,-0.5 186.77,-18.5 240.01,-18.5 240.01,-0.5 186.77,-0.5"/>
<text text-anchor="middle" x="213.39" y="-6.5" font-family="Helvetica,sans-Serif" font-size="10.00">complex</text>
</a>
</g>
</g>
<!-- Node2&#45;&gt;Node9 -->
<g id="edge8" class="edge">
<title>Node2&#45;&gt;Node9</title>
<path fill="none" stroke="midnightblue" d="M217.61,-55.22C216.94,-48.1 215.95,-37.58 215.09,-28.53"/>
<polygon fill="midnightblue" stroke="midnightblue" points="218.57,-28.18 214.15,-18.55 211.61,-28.83 218.57,-28.18"/>
</g>
</g>
</svg>
        <g id="navigator" transform="translate(0 0)" fill="#404254">
                <rect fill="#f2f5e9" fill-opacity="0.5" stroke="#606060" stroke-width=".5" x="0" y="0" width="60" height="60"/>
                <use id="zoomplus" xlink:href="#zoomPlus" x="17" y="9" onmousedown="handleZoom(evt,'in')"/>
                <use id="zoomminus" xlink:href="#zoomMin" x="42" y="9" onmousedown="handleZoom(evt,'out')"/>
                <use id="reset" xlink:href="#resetDef" x="30" y="36" onmousedown="handleReset()"/>
                <g id="arrowUp" xlink:href="#dirArrow" transform="translate(30 24)" onmousedown="handlePan(0,-1)">
                  <use xlink:href="#rim" fill="#404040">
                        <set attributeName="fill" to="#808080" begin="arrowUp.mouseover" end="arrowUp.mouseout"/>
                  </use>
                  <path fill="none" stroke="white" stroke-width="1.5" d="M0,-3.0v7 M-2.5,-0.5L0,-3.0L2.5,-0.5"/>
                </g>
                <g id="arrowRight" xlink:href="#dirArrow" transform="rotate(90) translate(36 -43)" onmousedown="handlePan(1,0)">
                  <use xlink:href="#rim" fill="#404040">
                        <set attributeName="fill" to="#808080" begin="arrowRight.mouseover" end="arrowRight.mouseout"/>
                  </use>
                  <path fill="none" stroke="white" stroke-width="1.5" d="M0,-3.0v7 M-2.5,-0.5L0,-3.0L2.5,-0.5"/>
                </g>
                <g id="arrowDown" xlink:href="#dirArrow" transform="rotate(180) translate(-30 -48)" onmousedown="handlePan(0,1)">
                  <use xlink:href="#rim" fill="#404040">
                        <set attributeName="fill" to="#808080" begin="arrowDown.mouseover" end="arrowDown.mouseout"/>
                  </use>
                  <path fill="none" stroke="white" stroke-width="1.5" d="M0,-3.0v7 M-2.5,-0.5L0,-3.0L2.5,-0.5"/>
                </g>
                <g id="arrowLeft" xlink:href="#dirArrow" transform="rotate(270) translate(-36 17)" onmousedown="handlePan(-1,0)">
                  <use xlink:href="#rim" fill="#404040">
                        <set attributeName="fill" to="#808080" begin="arrowLeft.mouseover" end="arrowLeft.mouseout"/>
                  </use>
                  <path fill="none" stroke="white" stroke-width="1.5" d="M0,-3.0v7 M-2.5,-0.5L0,-3.0L2.5,-0.5"/>
                </g>
        </g>
        <svg viewBox="0 0 15 15" width="100%" height="30px" preserveAspectRatio="xMaxYMin meet">
         <g id="arrow_out" transform="scale(0.3 0.3)">
          <a xlink:href="Iogs__GeneratedMesh_8h__incl_org.svg" target="_base">
           <rect id="button" ry="5" rx="5" y="6" x="6" height="38" width="38"
                fill="#f2f5e9" fill-opacity="0.5" stroke="#606060" stroke-width="1.0"/>
           <path id="arrow"
             d="M 11.500037,31.436501 C 11.940474,20.09759 22.043105,11.32322 32.158766,21.979434 L 37.068811,17.246167 C 37.068811,17.246167 37.088388,32 37.088388,32 L 22.160133,31.978069 C 22.160133,31.978069 26.997745,27.140456 26.997745,27.140456 C 18.528582,18.264221 13.291696,25.230495 11.500037,31.436501 z"
             style="fill:#404040;"/>
          </a>
         </g>
        </svg>
</svg>
