<?xml version="1.0" encoding="UTF-8" standalone="no"?>
<!DOCTYPE svg PUBLIC "-//W3C//DTD SVG 1.1//EN"
 "http://www.w3.org/Graphics/SVG/1.1/DTD/svg11.dtd">
<!-- Generated by graphviz version 2.42.3 (20191010.1750)
 -->
<!-- Title: src/heartbeat/Iohb_DatabaseIO.h Pages: 1 -->
<!--zoomable 367 -->
<svg id="main" version="1.1" xmlns="http://www.w3.org/2000/svg" xmlns:xlink="http://www.w3.org/1999/xlink" xml:space="preserve" onload="init(evt)">
<style type="text/css"><![CDATA[
.edge:hover path { stroke: red; }
.edge:hover polygon { stroke: red; fill: red; }
]]></style>
<script type="text/javascript"><![CDATA[
var edges = document.getElementsByTagName('g');
if (edges && edges.length) {
  for (var i=0;i<edges.length;i++) {
    if (edges[i].id.substr(0,4)=='edge') {
      edges[i].setAttribute('class','edge');
    }
  }
}
]]></script>
        <defs>
                <circle id="rim" cx="0" cy="0" r="7"/>
                <circle id="rim2" cx="0" cy="0" r="3.5"/>
                <g id="zoomPlus">
                        <use xlink:href="#rim" fill="#404040">
                                <set attributeName="fill" to="#808080" begin="zoomplus.mouseover" end="zoomplus.mouseout"/>
                        </use>
                        <path d="M-4,0h8M0,-4v8" fill="none" stroke="white" stroke-width="1.5" pointer-events="none"/>
                </g>
                <g id="zoomMin">
                        <use xlink:href="#rim" fill="#404040">
                                <set attributeName="fill" to="#808080" begin="zoomminus.mouseover" end="zoomminus.mouseout"/>
                        </use>
                        <path d="M-4,0h8" fill="none" stroke="white" stroke-width="1.5" pointer-events="none"/>
                </g>
                <g id="dirArrow">
                        <path fill="none" stroke="white" stroke-width="1.5" d="M0,-3.0v7 M-2.5,-0.5L0,-3.0L2.5,-0.5"/>
                </g>
               <g id="resetDef">
                       <use xlink:href="#rim2" fill="#404040">
                               <set attributeName="fill" to="#808080" begin="reset.mouseover" end="reset.mouseout"/>
                       </use>
               </g>
        </defs>

<script type="text/javascript">
var viewWidth = 1700;
var viewHeight = 367;
var sectionId = 'dynsection-0';
</script>
<script xlink:href="svgpan.js"/>
<svg id="graph" class="graph">
<g id="viewport">
<title>src/heartbeat/Iohb_DatabaseIO.h</title>
<polygon fill="white" stroke="transparent" points="-4,4 -4,-363 1696,-363 1696,4 -4,4"/>
<!-- Node1 -->
<g id="node1" class="node">
<title>Node1</title>
<g id="a_node1"><a xlink:title=" ">
<polygon fill="#bfbfbf" stroke="black" points="1070.7,-330.5 1070.7,-358.5 1167.3,-358.5 1167.3,-330.5 1070.7,-330.5"/>
<text text-anchor="start" x="1078.7" y="-346.5" font-family="Helvetica,sans-Serif" font-size="10.00">src/heartbeat/Iohb</text>
<text text-anchor="middle" x="1119" y="-336.5" font-family="Helvetica,sans-Serif" font-size="10.00">_DatabaseIO.h</text>
</a>
</g>
</g>
<!-- Node2 -->
<g id="node2" class="node">
<title>Node2</title>
<g id="a_node2"><a xlink:href="Ioss__State_8h.html" target="_top" xlink:title=" ">
<polygon fill="white" stroke="black" points="66.2,-220.5 66.2,-238.5 137.8,-238.5 137.8,-220.5 66.2,-220.5"/>
<text text-anchor="middle" x="102" y="-226.5" font-family="Helvetica,sans-Serif" font-size="10.00">Ioss_State.h</text>
</a>
</g>
</g>
<!-- Node1&#45;&gt;Node2 -->
<g id="edge1" class="edge">
<title>Node1&#45;&gt;Node2</title>
<path fill="none" stroke="midnightblue" d="M1070.54,-339.6C928.78,-327.89 502.82,-290.67 152,-239 150.73,-238.81 149.43,-238.62 148.13,-238.42"/>
<polygon fill="midnightblue" stroke="midnightblue" points="148.44,-234.93 138.02,-236.82 147.35,-241.84 148.44,-234.93"/>
</g>
<!-- Node3 -->
<g id="node3" class="node">
<title>Node3</title>
<g id="a_node3"><a xlink:href="Ioss__CodeTypes_8h.html" target="_top" xlink:title=" ">
<polygon fill="white" stroke="black" points="669.58,-55.5 669.58,-73.5 768.42,-73.5 768.42,-55.5 669.58,-55.5"/>
<text text-anchor="middle" x="719" y="-61.5" font-family="Helvetica,sans-Serif" font-size="10.00">Ioss_CodeTypes.h</text>
</a>
</g>
</g>
<!-- Node1&#45;&gt;Node3 -->
<g id="edge2" class="edge">
<title>Node1&#45;&gt;Node3</title>
<path fill="none" stroke="midnightblue" d="M1118.08,-330.24C1114.52,-289.78 1097.9,-167.17 1025,-110 982.83,-76.94 844.63,-81.75 778.74,-74.62"/>
<polygon fill="midnightblue" stroke="midnightblue" points="778.8,-71.1 768.43,-73.31 777.91,-78.04 778.8,-71.1"/>
</g>
<!-- Node5 -->
<g id="node5" class="node">
<title>Node5</title>
<g id="a_node5"><a xlink:title=" ">
<polygon fill="white" stroke="#bfbfbf" points="408.88,-0.5 408.88,-18.5 457.12,-18.5 457.12,-0.5 408.88,-0.5"/>
<text text-anchor="middle" x="433" y="-6.5" font-family="Helvetica,sans-Serif" font-size="10.00">cstddef</text>
</a>
</g>
</g>
<!-- Node1&#45;&gt;Node5 -->
<g id="edge72" class="edge">
<title>Node1&#45;&gt;Node5</title>
<path fill="none" stroke="midnightblue" d="M1070.67,-342.56C871.84,-338.18 124.27,-316.61 57,-239 25.3,-202.43 -69.73,-209.86 194,-55 259.1,-16.77 349.91,-10.24 398.72,-9.77"/>
<polygon fill="midnightblue" stroke="midnightblue" points="398.76,-13.27 408.76,-9.76 398.75,-6.27 398.76,-13.27"/>
</g>
<!-- Node6 -->
<g id="node6" class="node">
<title>Node6</title>
<g id="a_node6"><a xlink:title=" ">
<polygon fill="white" stroke="#bfbfbf" points="159.55,-0.5 159.55,-18.5 204.45,-18.5 204.45,-0.5 159.55,-0.5"/>
<text text-anchor="middle" x="182" y="-6.5" font-family="Helvetica,sans-Serif" font-size="10.00">cstdint</text>
</a>
</g>
</g>
<!-- Node1&#45;&gt;Node6 -->
<g id="edge73" class="edge">
<title>Node1&#45;&gt;Node6</title>
<path fill="none" stroke="midnightblue" d="M1070.56,-343.77C855.78,-344.35 0,-339.78 0,-230.5 0,-230.5 0,-230.5 0,-118.5 0,-49.92 96.74,-23.94 149.16,-14.89"/>
<polygon fill="midnightblue" stroke="midnightblue" points="150,-18.3 159.32,-13.25 148.89,-11.38 150,-18.3"/>
</g>
<!-- Node7 -->
<g id="node7" class="node">
<title>Node7</title>
<g id="a_node7"><a xlink:title=" ">
<polygon fill="white" stroke="#bfbfbf" points="1390.77,-0.5 1390.77,-18.5 1431.23,-18.5 1431.23,-0.5 1390.77,-0.5"/>
<text text-anchor="middle" x="1411" y="-6.5" font-family="Helvetica,sans-Serif" font-size="10.00">string</text>
</a>
</g>
</g>
<!-- Node1&#45;&gt;Node7 -->
<g id="edge75" class="edge">
<title>Node1&#45;&gt;Node7</title>
<path fill="none" stroke="midnightblue" d="M1167.36,-344.18C1305.5,-344.82 1692,-337.09 1692,-230.5 1692,-230.5 1692,-230.5 1692,-118.5 1692,-65.32 1514.45,-28.45 1441.62,-15.56"/>
<polygon fill="midnightblue" stroke="midnightblue" points="1442.11,-12.09 1431.66,-13.83 1440.92,-18.99 1442.11,-12.09"/>
</g>
<!-- Node11 -->
<g id="node11" class="node">
<title>Node11</title>
<g id="a_node11"><a xlink:href="Ioss__DBUsage_8h.html" target="_top" xlink:title=" ">
<polygon fill="white" stroke="black" points="1572.48,-110.5 1572.48,-128.5 1663.52,-128.5 1663.52,-110.5 1572.48,-110.5"/>
<text text-anchor="middle" x="1618" y="-116.5" font-family="Helvetica,sans-Serif" font-size="10.00">Ioss_DBUsage.h</text>
</a>
</g>
</g>
<!-- Node1&#45;&gt;Node11 -->
<g id="edge10" class="edge">
<title>Node1&#45;&gt;Node11</title>
<path fill="none" stroke="midnightblue" d="M1167.42,-340.31C1250.23,-333.06 1422.16,-309.98 1547,-239 1576.78,-222.07 1584.01,-213.75 1601,-184 1608.97,-170.05 1613.31,-152.24 1615.61,-139.04"/>
<polygon fill="midnightblue" stroke="midnightblue" points="1619.12,-139.24 1617.14,-128.83 1612.2,-138.2 1619.12,-139.24"/>
</g>
<!-- Node12 -->
<g id="node12" class="node">
<title>Node12</title>
<g id="a_node12"><a xlink:href="Ioss__DatabaseIO_8h.html" target="_top" xlink:title=" ">
<polygon fill="white" stroke="black" points="602.2,-275.5 602.2,-293.5 703.8,-293.5 703.8,-275.5 602.2,-275.5"/>
<text text-anchor="middle" x="653" y="-281.5" font-family="Helvetica,sans-Serif" font-size="10.00">Ioss_DatabaseIO.h</text>
</a>
</g>
</g>
<!-- Node1&#45;&gt;Node12 -->
<g id="edge11" class="edge">
<title>Node1&#45;&gt;Node12</title>
<path fill="none" stroke="midnightblue" d="M1070.45,-337.46C984.95,-326.82 807.75,-304.76 714.08,-293.1"/>
<polygon fill="midnightblue" stroke="midnightblue" points="714.27,-289.6 703.91,-291.84 713.4,-296.55 714.27,-289.6"/>
</g>
<!-- Node25 -->
<g id="node25" class="node">
<title>Node25</title>
<g id="a_node25"><a xlink:title=" ">
<polygon fill="white" stroke="#bfbfbf" points="961.83,-110.5 961.83,-128.5 1016.17,-128.5 1016.17,-110.5 961.83,-110.5"/>
<text text-anchor="middle" x="989" y="-116.5" font-family="Helvetica,sans-Serif" font-size="10.00">iostream</text>
</a>
</g>
</g>
<!-- Node1&#45;&gt;Node25 -->
<g id="edge74" class="edge">
<title>Node1&#45;&gt;Node25</title>
<path fill="none" stroke="midnightblue" d="M1125.95,-330.49C1132.5,-316.43 1140.29,-293.52 1133,-275 1108.07,-211.69 1043.63,-158.99 1010.05,-134.78"/>
<polygon fill="midnightblue" stroke="midnightblue" points="1011.64,-131.62 1001.45,-128.72 1007.61,-137.34 1011.64,-131.62"/>
</g>
<!-- Node33 -->
<g id="node33" class="node">
<title>Node33</title>
<g id="a_node33"><a xlink:href="Ioss__IOFactory_8h.html" target="_top" xlink:title=" ">
<polygon fill="white" stroke="black" points="1384.3,-165.5 1384.3,-183.5 1475.7,-183.5 1475.7,-165.5 1384.3,-165.5"/>
<text text-anchor="middle" x="1430" y="-171.5" font-family="Helvetica,sans-Serif" font-size="10.00">Ioss_IOFactory.h</text>
</a>
</g>
</g>
<!-- Node1&#45;&gt;Node33 -->
<g id="edge65" class="edge">
<title>Node1&#45;&gt;Node33</title>
<path fill="none" stroke="midnightblue" d="M1143.14,-330.46C1201.16,-299.12 1347.86,-219.87 1405.86,-188.54"/>
<polygon fill="midnightblue" stroke="midnightblue" points="1407.87,-191.43 1415.01,-183.6 1404.54,-185.27 1407.87,-191.43"/>
</g>
<!-- Node4 -->
<g id="node4" class="node">
<title>Node4</title>
<g id="a_node4"><a xlink:title=" ">
<polygon fill="white" stroke="#bfbfbf" points="699.61,-0.5 699.61,-18.5 738.39,-18.5 738.39,-0.5 699.61,-0.5"/>
<text text-anchor="middle" x="719" y="-6.5" font-family="Helvetica,sans-Serif" font-size="10.00">array</text>
</a>
</g>
</g>
<!-- Node3&#45;&gt;Node4 -->
<g id="edge3" class="edge">
<title>Node3&#45;&gt;Node4</title>
<path fill="none" stroke="midnightblue" d="M719,-55.22C719,-48.18 719,-37.81 719,-28.83"/>
<polygon fill="midnightblue" stroke="midnightblue" points="722.5,-28.55 719,-18.55 715.5,-28.55 722.5,-28.55"/>
</g>
<!-- Node3&#45;&gt;Node5 -->
<g id="edge4" class="edge">
<title>Node3&#45;&gt;Node5</title>
<path fill="none" stroke="midnightblue" d="M675.56,-55.45C618.55,-44.88 519.61,-26.55 467.46,-16.89"/>
<polygon fill="midnightblue" stroke="midnightblue" points="467.84,-13.4 457.37,-15.02 466.57,-20.28 467.84,-13.4"/>
</g>
<!-- Node3&#45;&gt;Node6 -->
<g id="edge5" class="edge">
<title>Node3&#45;&gt;Node6</title>
<path fill="none" stroke="midnightblue" d="M669.44,-58.61C561.05,-47.91 305.35,-22.67 214.63,-13.72"/>
<polygon fill="midnightblue" stroke="midnightblue" points="214.94,-10.23 204.65,-12.74 214.25,-17.2 214.94,-10.23"/>
</g>
<!-- Node3&#45;&gt;Node7 -->
<g id="edge6" class="edge">
<title>Node3&#45;&gt;Node7</title>
<path fill="none" stroke="midnightblue" d="M768.49,-59.71C902.77,-49.43 1271.21,-21.21 1380.22,-12.86"/>
<polygon fill="midnightblue" stroke="midnightblue" points="1380.82,-16.32 1390.52,-12.07 1380.28,-9.34 1380.82,-16.32"/>
</g>
<!-- Node8 -->
<g id="node8" class="node">
<title>Node8</title>
<g id="a_node8"><a xlink:title=" ">
<polygon fill="white" stroke="#bfbfbf" points="934.38,-0.5 934.38,-18.5 977.62,-18.5 977.62,-0.5 934.38,-0.5"/>
<text text-anchor="middle" x="956" y="-6.5" font-family="Helvetica,sans-Serif" font-size="10.00">vector</text>
</a>
</g>
</g>
<!-- Node3&#45;&gt;Node8 -->
<g id="edge7" class="edge">
<title>Node3&#45;&gt;Node8</title>
<path fill="none" stroke="midnightblue" d="M755,-55.45C801.15,-45.13 880.45,-27.39 924.39,-17.57"/>
<polygon fill="midnightblue" stroke="midnightblue" points="925.24,-20.97 934.24,-15.37 923.71,-14.13 925.24,-20.97"/>
</g>
<!-- Node9 -->
<g id="node9" class="node">
<title>Node9</title>
<g id="a_node9"><a xlink:title=" ">
<polygon fill="white" stroke="#bfbfbf" points="756.25,-0.5 756.25,-18.5 871.75,-18.5 871.75,-0.5 756.25,-0.5"/>
<text text-anchor="middle" x="814" y="-6.5" font-family="Helvetica,sans-Serif" font-size="10.00">SEACASIoss_config.h</text>
</a>
</g>
</g>
<!-- Node3&#45;&gt;Node9 -->
<g id="edge8" class="edge">
<title>Node3&#45;&gt;Node9</title>
<path fill="none" stroke="midnightblue" d="M733.43,-55.45C748.49,-47.05 772.37,-33.72 790.23,-23.76"/>
<polygon fill="midnightblue" stroke="midnightblue" points="792.41,-26.55 799.44,-18.63 789,-20.44 792.41,-26.55"/>
</g>
<!-- Node10 -->
<g id="node10" class="node">
<title>Node10</title>
<g id="a_node10"><a xlink:title=" ">
<polygon fill="white" stroke="#bfbfbf" points="628.38,-0.5 628.38,-18.5 681.62,-18.5 681.62,-0.5 628.38,-0.5"/>
<text text-anchor="middle" x="655" y="-6.5" font-family="Helvetica,sans-Serif" font-size="10.00">complex</text>
</a>
</g>
</g>
<!-- Node3&#45;&gt;Node10 -->
<g id="edge9" class="edge">
<title>Node3&#45;&gt;Node10</title>
<path fill="none" stroke="midnightblue" d="M709.28,-55.45C699.6,-47.43 684.52,-34.95 672.71,-25.17"/>
<polygon fill="midnightblue" stroke="midnightblue" points="674.75,-22.31 664.81,-18.63 670.28,-27.7 674.75,-22.31"/>
</g>
<!-- Node12&#45;&gt;Node2 -->
<g id="edge56" class="edge">
<title>Node12&#45;&gt;Node2</title>
<path fill="none" stroke="midnightblue" d="M602.01,-280.32C511.27,-274.36 315.89,-260.18 152,-239 150.72,-238.83 149.43,-238.66 148.12,-238.48"/>
<polygon fill="midnightblue" stroke="midnightblue" points="148.4,-234.98 138,-236.97 147.37,-241.91 148.4,-234.98"/>
</g>
<!-- Node12&#45;&gt;Node3 -->
<g id="edge13" class="edge">
<title>Node12&#45;&gt;Node3</title>
<path fill="none" stroke="midnightblue" d="M647.68,-275.1C638.58,-261.44 618.7,-234.48 595,-220 543.11,-188.3 516.48,-212.94 463,-184 425.26,-163.58 372.84,-142.37 401,-110 409.4,-100.34 569.44,-81.64 659.2,-71.84"/>
<polygon fill="midnightblue" stroke="midnightblue" points="659.69,-75.3 669.25,-70.74 658.93,-68.35 659.69,-75.3"/>
</g>
<!-- Node12&#45;&gt;Node5 -->
<g id="edge59" class="edge">
<title>Node12&#45;&gt;Node5</title>
<path fill="none" stroke="midnightblue" d="M602.03,-280.05C525.33,-274.23 384.37,-260.9 339,-239 275.02,-208.11 260.49,-189.35 223,-129 205.19,-100.33 184.56,-81.06 206,-55 230.02,-25.81 341.5,-15.49 398.79,-12.07"/>
<polygon fill="midnightblue" stroke="midnightblue" points="399.04,-15.56 408.83,-11.51 398.65,-8.57 399.04,-15.56"/>
</g>
<!-- Node12&#45;&gt;Node6 -->
<g id="edge60" class="edge">
<title>Node12&#45;&gt;Node6</title>
<path fill="none" stroke="midnightblue" d="M602.01,-280.13C487.91,-272.34 220.89,-252.76 207,-239 149.48,-182.03 167.43,-71.85 177.35,-28.58"/>
<polygon fill="midnightblue" stroke="midnightblue" points="180.8,-29.21 179.76,-18.67 174,-27.56 180.8,-29.21"/>
</g>
<!-- Node12&#45;&gt;Node7 -->
<g id="edge62" class="edge">
<title>Node12&#45;&gt;Node7</title>
<path fill="none" stroke="midnightblue" d="M704.03,-281.52C880.98,-274.11 1460.34,-245.33 1514,-184 1553.27,-139.11 1517.75,-98.55 1477,-55 1465.11,-42.29 1448.94,-31.32 1435.59,-23.45"/>
<polygon fill="midnightblue" stroke="midnightblue" points="1437.3,-20.4 1426.88,-18.51 1433.85,-26.49 1437.3,-20.4"/>
</g>
<!-- Node12&#45;&gt;Node8 -->
<g id="edge64" class="edge">
<title>Node12&#45;&gt;Node8</title>
<path fill="none" stroke="midnightblue" d="M703.9,-283.78C776.71,-282.77 913.96,-275.57 1024,-239 1040.06,-233.66 1041.79,-227.42 1057,-220 1105.28,-196.43 1245.01,-168.89 1281,-129 1303.54,-104.02 1319.2,-80.29 1297,-55 1276.74,-31.92 1068.75,-17.19 987.9,-12.3"/>
<polygon fill="midnightblue" stroke="midnightblue" points="988,-8.8 977.81,-11.7 987.58,-15.79 988,-8.8"/>
</g>
<!-- Node12&#45;&gt;Node11 -->
<g id="edge14" class="edge">
<title>Node12&#45;&gt;Node11</title>
<path fill="none" stroke="midnightblue" d="M703.95,-283.26C878.73,-282.11 1447.19,-275.58 1520,-239 1564,-216.9 1595.47,-165.13 1609.62,-137.92"/>
<polygon fill="midnightblue" stroke="midnightblue" points="1612.84,-139.32 1614.19,-128.81 1606.58,-136.18 1612.84,-139.32"/>
</g>
<!-- Node13 -->
<g id="node13" class="node">
<title>Node13</title>
<g id="a_node13"><a xlink:href="Ioss__BoundingBox_8h.html" target="_top" xlink:title=" ">
<polygon fill="white" stroke="black" points="372.13,-220.5 372.13,-238.5 479.87,-238.5 479.87,-220.5 372.13,-220.5"/>
<text text-anchor="middle" x="426" y="-226.5" font-family="Helvetica,sans-Serif" font-size="10.00">Ioss_BoundingBox.h</text>
</a>
</g>
</g>
<!-- Node12&#45;&gt;Node13 -->
<g id="edge12" class="edge">
<title>Node12&#45;&gt;Node13</title>
<path fill="none" stroke="midnightblue" d="M618.52,-275.45C578.91,-266.2 513.8,-251 470.42,-240.87"/>
<polygon fill="midnightblue" stroke="midnightblue" points="470.96,-237.4 460.43,-238.54 469.37,-244.22 470.96,-237.4"/>
</g>
<!-- Node14 -->
<g id="node14" class="node">
<title>Node14</title>
<g id="a_node14"><a xlink:href="Ioss__DataSize_8h.html" target="_top" xlink:title=" ">
<polygon fill="white" stroke="black" points="497.59,-220.5 497.59,-238.5 586.41,-238.5 586.41,-220.5 497.59,-220.5"/>
<text text-anchor="middle" x="542" y="-226.5" font-family="Helvetica,sans-Serif" font-size="10.00">Ioss_DataSize.h</text>
</a>
</g>
</g>
<!-- Node12&#45;&gt;Node14 -->
<g id="edge15" class="edge">
<title>Node12&#45;&gt;Node14</title>
<path fill="none" stroke="midnightblue" d="M636.14,-275.45C618.05,-266.81 589.08,-252.98 568.05,-242.94"/>
<polygon fill="midnightblue" stroke="midnightblue" points="569.55,-239.78 559.02,-238.63 566.53,-246.09 569.55,-239.78"/>
</g>
<!-- Node15 -->
<g id="node15" class="node">
<title>Node15</title>
<g id="a_node15"><a xlink:href="Ioss__EntityType_8h.html" target="_top" xlink:title=" ">
<polygon fill="white" stroke="black" points="799.53,-220.5 799.53,-238.5 894.47,-238.5 894.47,-220.5 799.53,-220.5"/>
<text text-anchor="middle" x="847" y="-226.5" font-family="Helvetica,sans-Serif" font-size="10.00">Ioss_EntityType.h</text>
</a>
</g>
</g>
<!-- Node12&#45;&gt;Node15 -->
<g id="edge16" class="edge">
<title>Node12&#45;&gt;Node15</title>
<path fill="none" stroke="midnightblue" d="M682.46,-275.45C715.89,-266.32 770.56,-251.38 807.62,-241.26"/>
<polygon fill="midnightblue" stroke="midnightblue" points="808.85,-244.55 817.58,-238.54 807.01,-237.8 808.85,-244.55"/>
</g>
<!-- Node16 -->
<g id="node16" class="node">
<title>Node16</title>
<g id="a_node16"><a xlink:href="Ioss__Map_8h.html" target="_top" xlink:title=" ">
<polygon fill="white" stroke="black" points="256.15,-110.5 256.15,-128.5 323.85,-128.5 323.85,-110.5 256.15,-110.5"/>
<text text-anchor="middle" x="290" y="-116.5" font-family="Helvetica,sans-Serif" font-size="10.00">Ioss_Map.h</text>
</a>
</g>
</g>
<!-- Node12&#45;&gt;Node16 -->
<g id="edge17" class="edge">
<title>Node12&#45;&gt;Node16</title>
<path fill="none" stroke="midnightblue" d="M601.9,-280.78C529.41,-276.07 401.26,-264.37 363,-239 326.18,-214.59 304.72,-164.61 295.46,-138.03"/>
<polygon fill="midnightblue" stroke="midnightblue" points="298.77,-136.91 292.32,-128.51 292.13,-139.1 298.77,-136.91"/>
</g>
<!-- Node17 -->
<g id="node17" class="node">
<title>Node17</title>
<g id="a_node17"><a xlink:title=" ">
<polygon fill="white" stroke="#bfbfbf" points="220.61,-55.5 220.61,-73.5 259.39,-73.5 259.39,-55.5 220.61,-55.5"/>
<text text-anchor="middle" x="240" y="-61.5" font-family="Helvetica,sans-Serif" font-size="10.00">utility</text>
</a>
</g>
</g>
<!-- Node12&#45;&gt;Node17 -->
<g id="edge63" class="edge">
<title>Node12&#45;&gt;Node17</title>
<path fill="none" stroke="midnightblue" d="M602.08,-280.04C490.95,-272.26 235.57,-252.93 223,-239 183.51,-195.21 213.98,-117.57 230.79,-82.98"/>
<polygon fill="midnightblue" stroke="midnightblue" points="234.09,-84.21 235.48,-73.71 227.84,-81.05 234.09,-84.21"/>
</g>
<!-- Node18 -->
<g id="node18" class="node">
<title>Node18</title>
<g id="a_node18"><a xlink:href="Ioss__ParallelUtils_8h.html" target="_top" xlink:title=" ">
<polygon fill="white" stroke="black" points="642.48,-220.5 642.48,-238.5 743.52,-238.5 743.52,-220.5 642.48,-220.5"/>
<text text-anchor="middle" x="693" y="-226.5" font-family="Helvetica,sans-Serif" font-size="10.00">Ioss_ParallelUtils.h</text>
</a>
</g>
</g>
<!-- Node12&#45;&gt;Node18 -->
<g id="edge24" class="edge">
<title>Node12&#45;&gt;Node18</title>
<path fill="none" stroke="midnightblue" d="M659.25,-275.22C664.98,-267.63 673.62,-256.18 680.73,-246.76"/>
<polygon fill="midnightblue" stroke="midnightblue" points="683.69,-248.64 686.92,-238.55 678.11,-244.42 683.69,-248.64"/>
</g>
<!-- Node27 -->
<g id="node27" class="node">
<title>Node27</title>
<g id="a_node27"><a xlink:href="Ioss__PropertyManager_8h.html" target="_top" xlink:title=" ">
<polygon fill="white" stroke="black" points="1147.52,-110.5 1147.52,-128.5 1272.48,-128.5 1272.48,-110.5 1147.52,-110.5"/>
<text text-anchor="middle" x="1210" y="-116.5" font-family="Helvetica,sans-Serif" font-size="10.00">Ioss_PropertyManager.h</text>
</a>
</g>
</g>
<!-- Node12&#45;&gt;Node27 -->
<g id="edge47" class="edge">
<title>Node12&#45;&gt;Node27</title>
<path fill="none" stroke="midnightblue" d="M671.91,-275.38C692.11,-266.65 724.99,-252.23 753,-239 770.07,-230.94 773,-225.7 791,-220 892.98,-187.68 925.18,-209.82 1029,-184 1084,-170.32 1145.87,-146.76 1181.17,-132.51"/>
<polygon fill="midnightblue" stroke="midnightblue" points="1182.87,-135.59 1190.81,-128.58 1180.23,-129.11 1182.87,-135.59"/>
</g>
<!-- Node30 -->
<g id="node30" class="node">
<title>Node30</title>
<g id="a_node30"><a xlink:href="Ioss__SurfaceSplit_8h.html" target="_top" xlink:title=" ">
<polygon fill="white" stroke="black" points="912.92,-220.5 912.92,-238.5 1015.08,-238.5 1015.08,-220.5 912.92,-220.5"/>
<text text-anchor="middle" x="964" y="-226.5" font-family="Helvetica,sans-Serif" font-size="10.00">Ioss_SurfaceSplit.h</text>
</a>
</g>
</g>
<!-- Node12&#45;&gt;Node30 -->
<g id="edge57" class="edge">
<title>Node12&#45;&gt;Node30</title>
<path fill="none" stroke="midnightblue" d="M700.23,-275.45C755.65,-266.01 847.49,-250.36 906.87,-240.24"/>
<polygon fill="midnightblue" stroke="midnightblue" points="907.56,-243.67 916.83,-238.54 906.39,-236.77 907.56,-243.67"/>
</g>
<!-- Node31 -->
<g id="node31" class="node">
<title>Node31</title>
<g id="a_node31"><a xlink:title=" ">
<polygon fill="white" stroke="#bfbfbf" points="231.71,-220.5 231.71,-238.5 278.29,-238.5 278.29,-220.5 231.71,-220.5"/>
<text text-anchor="middle" x="255" y="-226.5" font-family="Helvetica,sans-Serif" font-size="10.00">chrono</text>
</a>
</g>
</g>
<!-- Node12&#45;&gt;Node31 -->
<g id="edge58" class="edge">
<title>Node12&#45;&gt;Node31</title>
<path fill="none" stroke="midnightblue" d="M601.94,-278.88C531.78,-272.15 401.77,-258.32 292,-239 290.76,-238.78 289.5,-238.55 288.22,-238.3"/>
<polygon fill="midnightblue" stroke="midnightblue" points="288.92,-234.87 278.41,-236.26 287.49,-241.73 288.92,-234.87"/>
</g>
<!-- Node32 -->
<g id="node32" class="node">
<title>Node32</title>
<g id="a_node32"><a xlink:title=" ">
<polygon fill="white" stroke="#bfbfbf" points="1366.27,-110.5 1366.27,-128.5 1401.73,-128.5 1401.73,-110.5 1366.27,-110.5"/>
<text text-anchor="middle" x="1384" y="-116.5" font-family="Helvetica,sans-Serif" font-size="10.00">map</text>
</a>
</g>
</g>
<!-- Node12&#45;&gt;Node32 -->
<g id="edge61" class="edge">
<title>Node12&#45;&gt;Node32</title>
<path fill="none" stroke="midnightblue" d="M704.04,-281.76C781.32,-278.27 932.26,-268.03 1057,-239 1171.88,-212.26 1301.84,-157.33 1356.97,-132.8"/>
<polygon fill="midnightblue" stroke="midnightblue" points="1358.68,-135.87 1366.38,-128.59 1355.82,-129.48 1358.68,-135.87"/>
</g>
<!-- Node16&#45;&gt;Node3 -->
<g id="edge18" class="edge">
<title>Node16&#45;&gt;Node3</title>
<path fill="none" stroke="midnightblue" d="M324.05,-112.21C328.73,-111.43 333.48,-110.66 338,-110 451.27,-93.37 584.23,-79.01 659.35,-71.37"/>
<polygon fill="midnightblue" stroke="midnightblue" points="659.96,-74.82 669.56,-70.33 659.26,-67.86 659.96,-74.82"/>
</g>
<!-- Node16&#45;&gt;Node5 -->
<g id="edge19" class="edge">
<title>Node16&#45;&gt;Node5</title>
<path fill="none" stroke="midnightblue" d="M300.75,-110.38C324.87,-92.17 383.57,-47.83 414,-24.85"/>
<polygon fill="midnightblue" stroke="midnightblue" points="416.26,-27.53 422.13,-18.71 412.04,-21.95 416.26,-27.53"/>
</g>
<!-- Node16&#45;&gt;Node6 -->
<g id="edge20" class="edge">
<title>Node16&#45;&gt;Node6</title>
<path fill="none" stroke="midnightblue" d="M289.09,-110.11C287.27,-96.93 282.05,-71.23 268,-55 253.89,-38.7 232.33,-27.56 214.33,-20.51"/>
<polygon fill="midnightblue" stroke="midnightblue" points="215.36,-17.16 204.77,-17 212.95,-23.73 215.36,-17.16"/>
</g>
<!-- Node16&#45;&gt;Node7 -->
<g id="edge21" class="edge">
<title>Node16&#45;&gt;Node7</title>
<path fill="none" stroke="midnightblue" d="M323.96,-115.5C403.28,-108.47 606.92,-90.29 777,-74 1009.26,-51.76 1289.19,-23.06 1380.56,-13.64"/>
<polygon fill="midnightblue" stroke="midnightblue" points="1381.16,-17.1 1390.75,-12.59 1380.44,-10.14 1381.16,-17.1"/>
</g>
<!-- Node16&#45;&gt;Node8 -->
<g id="edge23" class="edge">
<title>Node16&#45;&gt;Node8</title>
<path fill="none" stroke="midnightblue" d="M324.08,-112.44C328.76,-111.61 333.5,-110.78 338,-110 481.47,-85.08 517.22,-78.08 661,-55 756.65,-39.64 870,-22.97 924.13,-15.11"/>
<polygon fill="midnightblue" stroke="midnightblue" points="924.75,-18.55 934.14,-13.65 923.74,-11.62 924.75,-18.55"/>
</g>
<!-- Node16&#45;&gt;Node17 -->
<g id="edge22" class="edge">
<title>Node16&#45;&gt;Node17</title>
<path fill="none" stroke="midnightblue" d="M282.19,-110.22C274.81,-102.39 263.55,-90.46 254.52,-80.89"/>
<polygon fill="midnightblue" stroke="midnightblue" points="257,-78.42 247.59,-73.55 251.91,-83.23 257,-78.42"/>
</g>
<!-- Node18&#45;&gt;Node3 -->
<g id="edge25" class="edge">
<title>Node18&#45;&gt;Node3</title>
<path fill="none" stroke="midnightblue" d="M656.33,-220.49C571.89,-201.23 373.57,-150.88 409,-110 417.14,-100.61 571.66,-81.95 659.4,-72.04"/>
<polygon fill="midnightblue" stroke="midnightblue" points="659.95,-75.5 669.5,-70.9 659.17,-68.54 659.95,-75.5"/>
</g>
<!-- Node18&#45;&gt;Node5 -->
<g id="edge44" class="edge">
<title>Node18&#45;&gt;Node5</title>
<path fill="none" stroke="midnightblue" d="M642.15,-222.28C539.12,-208.87 310.13,-174.71 247,-129 223.53,-112.01 220.1,-101.82 212,-74 209.64,-65.89 206.65,-61.53 212,-55 235.18,-26.69 342.36,-16 398.5,-12.29"/>
<polygon fill="midnightblue" stroke="midnightblue" points="398.92,-15.77 408.68,-11.65 398.48,-8.78 398.92,-15.77"/>
</g>
<!-- Node18&#45;&gt;Node7 -->
<g id="edge45" class="edge">
<title>Node18&#45;&gt;Node7</title>
<path fill="none" stroke="midnightblue" d="M743.59,-223.78C758.82,-222.44 775.58,-221.07 791,-220 829.52,-217.33 1458.42,-212 1485,-184 1506.7,-161.14 1551.49,-213.71 1459,-55 1452.1,-43.15 1441.04,-32.59 1431.27,-24.73"/>
<polygon fill="midnightblue" stroke="midnightblue" points="1433.24,-21.83 1423.16,-18.55 1429,-27.4 1433.24,-21.83"/>
</g>
<!-- Node18&#45;&gt;Node8 -->
<g id="edge46" class="edge">
<title>Node18&#45;&gt;Node8</title>
<path fill="none" stroke="midnightblue" d="M743.68,-220.77C828.01,-206.77 991.23,-174.37 1025,-129 1051.15,-93.87 1004.08,-48.03 975.52,-25.02"/>
<polygon fill="midnightblue" stroke="midnightblue" points="977.4,-22.04 967.36,-18.65 973.09,-27.56 977.4,-22.04"/>
</g>
<!-- Node19 -->
<g id="node19" class="node">
<title>Node19</title>
<g id="a_node19"><a xlink:href="Ioss__Utils_8h.html" target="_top" xlink:title=" ">
<polygon fill="white" stroke="black" points="659.16,-165.5 659.16,-183.5 726.84,-183.5 726.84,-165.5 659.16,-165.5"/>
<text text-anchor="middle" x="693" y="-171.5" font-family="Helvetica,sans-Serif" font-size="10.00">Ioss_Utils.h</text>
</a>
</g>
</g>
<!-- Node18&#45;&gt;Node19 -->
<g id="edge26" class="edge">
<title>Node18&#45;&gt;Node19</title>
<path fill="none" stroke="midnightblue" d="M693,-220.22C693,-213.18 693,-202.81 693,-193.83"/>
<polygon fill="midnightblue" stroke="midnightblue" points="696.5,-193.55 693,-183.55 689.5,-193.55 696.5,-193.55"/>
</g>
<!-- Node22 -->
<g id="node22" class="node">
<title>Node22</title>
<g id="a_node22"><a xlink:title=" ">
<polygon fill="white" stroke="#bfbfbf" points="417.88,-110.5 417.88,-128.5 466.12,-128.5 466.12,-110.5 417.88,-110.5"/>
<text text-anchor="middle" x="442" y="-116.5" font-family="Helvetica,sans-Serif" font-size="10.00">cassert</text>
</a>
</g>
</g>
<!-- Node18&#45;&gt;Node22 -->
<g id="edge43" class="edge">
<title>Node18&#45;&gt;Node22</title>
<path fill="none" stroke="midnightblue" d="M674.13,-220.38C630.33,-201.53 521.54,-154.72 469.97,-132.53"/>
<polygon fill="midnightblue" stroke="midnightblue" points="471.31,-129.3 460.74,-128.56 468.54,-135.73 471.31,-129.3"/>
</g>
<!-- Node19&#45;&gt;Node3 -->
<g id="edge27" class="edge">
<title>Node19&#45;&gt;Node3</title>
<path fill="none" stroke="midnightblue" d="M658.85,-170.65C607.78,-165.04 520.61,-149.49 551,-110 564.37,-92.62 616.72,-80.63 659.47,-73.51"/>
<polygon fill="midnightblue" stroke="midnightblue" points="660.22,-76.94 669.54,-71.9 659.11,-70.03 660.22,-76.94"/>
</g>
<!-- Node19&#45;&gt;Node5 -->
<g id="edge36" class="edge">
<title>Node19&#45;&gt;Node5</title>
<path fill="none" stroke="midnightblue" d="M659.12,-168.99C626.8,-163.5 577.73,-151.94 541,-129 497.66,-101.94 460.95,-52.76 443.64,-27.1"/>
<polygon fill="midnightblue" stroke="midnightblue" points="446.41,-24.93 437.98,-18.51 440.56,-28.78 446.41,-24.93"/>
</g>
<!-- Node19&#45;&gt;Node6 -->
<g id="edge37" class="edge">
<title>Node19&#45;&gt;Node6</title>
<path fill="none" stroke="midnightblue" d="M659.11,-173.87C567.27,-174.28 315.92,-171.42 247,-129 210.47,-106.51 192.97,-55.71 185.94,-28.5"/>
<polygon fill="midnightblue" stroke="midnightblue" points="189.34,-27.65 183.61,-18.74 182.53,-29.28 189.34,-27.65"/>
</g>
<!-- Node19&#45;&gt;Node7 -->
<g id="edge41" class="edge">
<title>Node19&#45;&gt;Node7</title>
<path fill="none" stroke="midnightblue" d="M727.17,-173.8C837.11,-174.34 1180.42,-172.4 1281,-129 1333.4,-106.39 1378.57,-53.64 1399.15,-26.81"/>
<polygon fill="midnightblue" stroke="midnightblue" points="1401.96,-28.88 1405.15,-18.78 1396.36,-24.69 1401.96,-28.88"/>
</g>
<!-- Node19&#45;&gt;Node8 -->
<g id="edge42" class="edge">
<title>Node19&#45;&gt;Node8</title>
<path fill="none" stroke="midnightblue" d="M727.1,-170.77C782.18,-165.71 887.39,-153.11 915,-129 944.57,-103.18 952.82,-54.94 955.12,-28.68"/>
<polygon fill="midnightblue" stroke="midnightblue" points="958.62,-28.82 955.8,-18.6 951.64,-28.35 958.62,-28.82"/>
</g>
<!-- Node20 -->
<g id="node20" class="node">
<title>Node20</title>
<g id="a_node20"><a xlink:href="Ioss__Field_8h.html" target="_top" xlink:title=" ">
<polygon fill="white" stroke="black" points="836.04,-110.5 836.04,-128.5 905.96,-128.5 905.96,-110.5 836.04,-110.5"/>
<text text-anchor="middle" x="871" y="-116.5" font-family="Helvetica,sans-Serif" font-size="10.00">Ioss_Field.h</text>
</a>
</g>
</g>
<!-- Node19&#45;&gt;Node20 -->
<g id="edge28" class="edge">
<title>Node19&#45;&gt;Node20</title>
<path fill="none" stroke="midnightblue" d="M720.03,-165.45C750.44,-156.4 800.01,-141.64 833.99,-131.52"/>
<polygon fill="midnightblue" stroke="midnightblue" points="835.42,-134.75 844,-128.54 833.42,-128.04 835.42,-134.75"/>
</g>
<!-- Node21 -->
<g id="node21" class="node">
<title>Node21</title>
<g id="a_node21"><a xlink:title=" ">
<polygon fill="white" stroke="#bfbfbf" points="699.44,-110.5 699.44,-128.5 756.56,-128.5 756.56,-110.5 699.44,-110.5"/>
<text text-anchor="middle" x="728" y="-116.5" font-family="Helvetica,sans-Serif" font-size="10.00">algorithm</text>
</a>
</g>
</g>
<!-- Node19&#45;&gt;Node21 -->
<g id="edge33" class="edge">
<title>Node19&#45;&gt;Node21</title>
<path fill="none" stroke="midnightblue" d="M698.47,-165.22C703.43,-157.71 710.89,-146.41 717.07,-137.05"/>
<polygon fill="midnightblue" stroke="midnightblue" points="720.09,-138.82 722.68,-128.55 714.25,-134.97 720.09,-138.82"/>
</g>
<!-- Node19&#45;&gt;Node22 -->
<g id="edge34" class="edge">
<title>Node19&#45;&gt;Node22</title>
<path fill="none" stroke="midnightblue" d="M659.03,-166.56C616.97,-157.92 543.14,-142.66 480,-129 478.91,-128.76 477.8,-128.52 476.68,-128.28"/>
<polygon fill="midnightblue" stroke="midnightblue" points="477.04,-124.77 466.52,-126.04 475.53,-131.61 477.04,-124.77"/>
</g>
<!-- Node23 -->
<g id="node23" class="node">
<title>Node23</title>
<g id="a_node23"><a xlink:title=" ">
<polygon fill="white" stroke="#bfbfbf" points="774.38,-110.5 774.38,-128.5 817.62,-128.5 817.62,-110.5 774.38,-110.5"/>
<text text-anchor="middle" x="796" y="-116.5" font-family="Helvetica,sans-Serif" font-size="10.00">cmath</text>
</a>
</g>
</g>
<!-- Node19&#45;&gt;Node23 -->
<g id="edge35" class="edge">
<title>Node19&#45;&gt;Node23</title>
<path fill="none" stroke="midnightblue" d="M708.64,-165.45C725.28,-156.89 751.83,-143.23 771.3,-133.21"/>
<polygon fill="midnightblue" stroke="midnightblue" points="772.92,-136.31 780.21,-128.63 769.72,-130.09 772.92,-136.31"/>
</g>
<!-- Node24 -->
<g id="node24" class="node">
<title>Node24</title>
<g id="a_node24"><a xlink:title=" ">
<polygon fill="white" stroke="#bfbfbf" points="559.83,-110.5 559.83,-128.5 604.17,-128.5 604.17,-110.5 559.83,-110.5"/>
<text text-anchor="middle" x="582" y="-116.5" font-family="Helvetica,sans-Serif" font-size="10.00">cstdlib</text>
</a>
</g>
</g>
<!-- Node19&#45;&gt;Node24 -->
<g id="edge38" class="edge">
<title>Node19&#45;&gt;Node24</title>
<path fill="none" stroke="midnightblue" d="M676.14,-165.45C658.05,-156.81 629.08,-142.98 608.05,-132.94"/>
<polygon fill="midnightblue" stroke="midnightblue" points="609.55,-129.78 599.02,-128.63 606.53,-136.09 609.55,-129.78"/>
</g>
<!-- Node19&#45;&gt;Node25 -->
<g id="edge39" class="edge">
<title>Node19&#45;&gt;Node25</title>
<path fill="none" stroke="midnightblue" d="M726.89,-167.94C775.8,-159.83 868.98,-144.08 948,-129 949.25,-128.76 950.51,-128.52 951.79,-128.27"/>
<polygon fill="midnightblue" stroke="midnightblue" points="952.56,-131.68 961.68,-126.29 951.18,-124.82 952.56,-131.68"/>
</g>
<!-- Node26 -->
<g id="node26" class="node">
<title>Node26</title>
<g id="a_node26"><a xlink:title=" ">
<polygon fill="white" stroke="#bfbfbf" points="622.6,-110.5 622.6,-128.5 681.4,-128.5 681.4,-110.5 622.6,-110.5"/>
<text text-anchor="middle" x="652" y="-116.5" font-family="Helvetica,sans-Serif" font-size="10.00">stdexcept</text>
</a>
</g>
</g>
<!-- Node19&#45;&gt;Node26 -->
<g id="edge40" class="edge">
<title>Node19&#45;&gt;Node26</title>
<path fill="none" stroke="midnightblue" d="M686.59,-165.22C680.66,-157.55 671.68,-145.94 664.35,-136.47"/>
<polygon fill="midnightblue" stroke="midnightblue" points="667.11,-134.32 658.23,-128.55 661.58,-138.6 667.11,-134.32"/>
</g>
<!-- Node20&#45;&gt;Node3 -->
<g id="edge29" class="edge">
<title>Node20&#45;&gt;Node3</title>
<path fill="none" stroke="midnightblue" d="M847.91,-110.45C822.36,-101.54 780.96,-87.1 751.99,-77"/>
<polygon fill="midnightblue" stroke="midnightblue" points="752.9,-73.61 742.3,-73.63 750.59,-80.22 752.9,-73.61"/>
</g>
<!-- Node20&#45;&gt;Node5 -->
<g id="edge30" class="edge">
<title>Node20&#45;&gt;Node5</title>
<path fill="none" stroke="midnightblue" d="M835.92,-111.35C785.17,-100.95 693.76,-82.02 661,-74 591.58,-56.99 511.23,-33.78 466.86,-20.65"/>
<polygon fill="midnightblue" stroke="midnightblue" points="467.75,-17.26 457.16,-17.77 465.75,-23.97 467.75,-17.26"/>
</g>
<!-- Node20&#45;&gt;Node7 -->
<g id="edge31" class="edge">
<title>Node20&#45;&gt;Node7</title>
<path fill="none" stroke="midnightblue" d="M889.52,-110.46C921.71,-96.83 990.36,-69.27 1051,-55 1170.96,-26.78 1317.87,-15.7 1380.44,-12.05"/>
<polygon fill="midnightblue" stroke="midnightblue" points="1380.64,-15.54 1390.43,-11.49 1380.25,-8.55 1380.64,-15.54"/>
</g>
<!-- Node20&#45;&gt;Node8 -->
<g id="edge32" class="edge">
<title>Node20&#45;&gt;Node8</title>
<path fill="none" stroke="midnightblue" d="M874.15,-110.09C879.19,-97.33 889.94,-72.71 904,-55 913.12,-43.51 925.54,-32.76 935.95,-24.7"/>
<polygon fill="midnightblue" stroke="midnightblue" points="938.19,-27.39 944.11,-18.61 934,-21.79 938.19,-27.39"/>
</g>
<!-- Node27&#45;&gt;Node3 -->
<g id="edge48" class="edge">
<title>Node27&#45;&gt;Node3</title>
<path fill="none" stroke="midnightblue" d="M1147.32,-111.73C1052.13,-101.46 872.34,-82.05 778.86,-71.96"/>
<polygon fill="midnightblue" stroke="midnightblue" points="779.03,-68.46 768.72,-70.87 778.28,-75.42 779.03,-68.46"/>
</g>
<!-- Node27&#45;&gt;Node5 -->
<g id="edge52" class="edge">
<title>Node27&#45;&gt;Node5</title>
<path fill="none" stroke="midnightblue" d="M1157.38,-110.49C1075.93,-98.16 914.36,-73.95 777,-55 663.65,-39.36 529.06,-22.42 467.2,-14.73"/>
<polygon fill="midnightblue" stroke="midnightblue" points="467.56,-11.25 457.21,-13.49 466.7,-18.19 467.56,-11.25"/>
</g>
<!-- Node27&#45;&gt;Node7 -->
<g id="edge53" class="edge">
<title>Node27&#45;&gt;Node7</title>
<path fill="none" stroke="midnightblue" d="M1226.12,-110.47C1243.66,-101.68 1272.46,-87.11 1297,-74 1328.65,-57.1 1364.77,-36.81 1387.72,-23.79"/>
<polygon fill="midnightblue" stroke="midnightblue" points="1389.73,-26.67 1396.69,-18.68 1386.27,-20.58 1389.73,-26.67"/>
</g>
<!-- Node27&#45;&gt;Node8 -->
<g id="edge55" class="edge">
<title>Node27&#45;&gt;Node8</title>
<path fill="none" stroke="midnightblue" d="M1205.4,-110.42C1197.17,-96.72 1178.54,-69.06 1155,-55 1102.02,-23.35 1028.92,-14.17 987.66,-11.53"/>
<polygon fill="midnightblue" stroke="midnightblue" points="987.83,-8.04 977.65,-10.98 987.44,-15.03 987.83,-8.04"/>
</g>
<!-- Node28 -->
<g id="node28" class="node">
<title>Node28</title>
<g id="a_node28"><a xlink:href="Ioss__Property_8h.html" target="_top" xlink:title=" ">
<polygon fill="white" stroke="black" points="1060.35,-55.5 1060.35,-73.5 1145.65,-73.5 1145.65,-55.5 1060.35,-55.5"/>
<text text-anchor="middle" x="1103" y="-61.5" font-family="Helvetica,sans-Serif" font-size="10.00">Ioss_Property.h</text>
</a>
</g>
</g>
<!-- Node27&#45;&gt;Node28 -->
<g id="edge49" class="edge">
<title>Node27&#45;&gt;Node28</title>
<path fill="none" stroke="midnightblue" d="M1193.75,-110.45C1176.39,-101.85 1148.64,-88.1 1128.39,-78.08"/>
<polygon fill="midnightblue" stroke="midnightblue" points="1129.92,-74.93 1119.4,-73.63 1126.81,-81.2 1129.92,-74.93"/>
</g>
<!-- Node29 -->
<g id="node29" class="node">
<title>Node29</title>
<g id="a_node29"><a xlink:title=" ">
<polygon fill="white" stroke="#bfbfbf" points="1201.7,-55.5 1201.7,-73.5 1288.3,-73.5 1288.3,-55.5 1201.7,-55.5"/>
<text text-anchor="middle" x="1245" y="-61.5" font-family="Helvetica,sans-Serif" font-size="10.00">unordered_map</text>
</a>
</g>
</g>
<!-- Node27&#45;&gt;Node29 -->
<g id="edge54" class="edge">
<title>Node27&#45;&gt;Node29</title>
<path fill="none" stroke="midnightblue" d="M1215.47,-110.22C1220.43,-102.71 1227.89,-91.41 1234.07,-82.05"/>
<polygon fill="midnightblue" stroke="midnightblue" points="1237.09,-83.82 1239.68,-73.55 1231.25,-79.97 1237.09,-83.82"/>
</g>
<!-- Node28&#45;&gt;Node6 -->
<g id="edge50" class="edge">
<title>Node28&#45;&gt;Node6</title>
<path fill="none" stroke="midnightblue" d="M1060.12,-61.03C902.14,-51.94 354.5,-20.43 214.69,-12.38"/>
<polygon fill="midnightblue" stroke="midnightblue" points="214.79,-8.88 204.61,-11.8 214.39,-15.87 214.79,-8.88"/>
</g>
<!-- Node28&#45;&gt;Node7 -->
<g id="edge51" class="edge">
<title>Node28&#45;&gt;Node7</title>
<path fill="none" stroke="midnightblue" d="M1145.83,-56.13C1208.9,-45.28 1325.23,-25.26 1380.42,-15.76"/>
<polygon fill="midnightblue" stroke="midnightblue" points="1381.34,-19.15 1390.61,-14.01 1380.16,-12.26 1381.34,-19.15"/>
</g>
<!-- Node33&#45;&gt;Node3 -->
<g id="edge66" class="edge">
<title>Node33&#45;&gt;Node3</title>
<path fill="none" stroke="midnightblue" d="M1384.19,-167.63C1326.7,-160 1225.18,-145.67 1139,-129 1102.7,-121.98 1094.38,-116.64 1058,-110 960.8,-92.27 846.68,-78.78 778.74,-71.52"/>
<polygon fill="midnightblue" stroke="midnightblue" points="778.96,-68.02 768.65,-70.45 778.22,-74.98 778.96,-68.02"/>
</g>
<!-- Node33&#45;&gt;Node7 -->
<g id="edge67" class="edge">
<title>Node33&#45;&gt;Node7</title>
<path fill="none" stroke="midnightblue" d="M1433.36,-165.21C1440.82,-145.54 1457.13,-94.73 1444,-55 1440.5,-44.4 1433.39,-34.27 1426.67,-26.36"/>
<polygon fill="midnightblue" stroke="midnightblue" points="1429.03,-23.76 1419.71,-18.73 1423.86,-28.47 1429.03,-23.76"/>
</g>
<!-- Node33&#45;&gt;Node8 -->
<g id="edge71" class="edge">
<title>Node33&#45;&gt;Node8</title>
<path fill="none" stroke="midnightblue" d="M1429.31,-165.31C1427.86,-152.41 1423.52,-127.08 1411,-110 1385.28,-74.9 1370.76,-70.23 1330,-55 1267.55,-31.67 1067.3,-17.27 988.4,-12.38"/>
<polygon fill="midnightblue" stroke="midnightblue" points="988.29,-8.87 978.09,-11.75 987.86,-15.85 988.29,-8.87"/>
</g>
<!-- Node33&#45;&gt;Node11 -->
<g id="edge68" class="edge">
<title>Node33&#45;&gt;Node11</title>
<path fill="none" stroke="midnightblue" d="M1458.55,-165.45C1490.95,-156.32 1543.92,-141.38 1579.84,-131.26"/>
<polygon fill="midnightblue" stroke="midnightblue" points="1580.81,-134.62 1589.49,-128.54 1578.91,-127.88 1580.81,-134.62"/>
</g>
<!-- Node33&#45;&gt;Node27 -->
<g id="edge69" class="edge">
<title>Node33&#45;&gt;Node27</title>
<path fill="none" stroke="midnightblue" d="M1396.59,-165.45C1358.28,-156.22 1295.36,-141.06 1253.31,-130.93"/>
<polygon fill="midnightblue" stroke="midnightblue" points="1253.91,-127.48 1243.37,-128.54 1252.27,-134.28 1253.91,-127.48"/>
</g>
<!-- Node33&#45;&gt;Node32 -->
<g id="edge70" class="edge">
<title>Node33&#45;&gt;Node32</title>
<path fill="none" stroke="midnightblue" d="M1422.81,-165.22C1416.09,-157.47 1405.87,-145.7 1397.61,-136.18"/>
<polygon fill="midnightblue" stroke="midnightblue" points="1400.18,-133.81 1390.99,-128.55 1394.9,-138.4 1400.18,-133.81"/>
</g>
</g>
</svg>
        <g id="navigator" transform="translate(0 0)" fill="#404254">
                <rect fill="#f2f5e9" fill-opacity="0.5" stroke="#606060" stroke-width=".5" x="0" y="0" width="60" height="60"/>
                <use id="zoomplus" xlink:href="#zoomPlus" x="17" y="9" onmousedown="handleZoom(evt,'in')"/>
                <use id="zoomminus" xlink:href="#zoomMin" x="42" y="9" onmousedown="handleZoom(evt,'out')"/>
                <use id="reset" xlink:href="#resetDef" x="30" y="36" onmousedown="handleReset()"/>
                <g id="arrowUp" xlink:href="#dirArrow" transform="translate(30 24)" onmousedown="handlePan(0,-1)">
                  <use xlink:href="#rim" fill="#404040">
                        <set attributeName="fill" to="#808080" begin="arrowUp.mouseover" end="arrowUp.mouseout"/>
                  </use>
                  <path fill="none" stroke="white" stroke-width="1.5" d="M0,-3.0v7 M-2.5,-0.5L0,-3.0L2.5,-0.5"/>
                </g>
                <g id="arrowRight" xlink:href="#dirArrow" transform="rotate(90) translate(36 -43)" onmousedown="handlePan(1,0)">
                  <use xlink:href="#rim" fill="#404040">
                        <set attributeName="fill" to="#808080" begin="arrowRight.mouseover" end="arrowRight.mouseout"/>
                  </use>
                  <path fill="none" stroke="white" stroke-width="1.5" d="M0,-3.0v7 M-2.5,-0.5L0,-3.0L2.5,-0.5"/>
                </g>
                <g id="arrowDown" xlink:href="#dirArrow" transform="rotate(180) translate(-30 -48)" onmousedown="handlePan(0,1)">
                  <use xlink:href="#rim" fill="#404040">
                        <set attributeName="fill" to="#808080" begin="arrowDown.mouseover" end="arrowDown.mouseout"/>
                  </use>
                  <path fill="none" stroke="white" stroke-width="1.5" d="M0,-3.0v7 M-2.5,-0.5L0,-3.0L2.5,-0.5"/>
                </g>
                <g id="arrowLeft" xlink:href="#dirArrow" transform="rotate(270) translate(-36 17)" onmousedown="handlePan(-1,0)">
                  <use xlink:href="#rim" fill="#404040">
                        <set attributeName="fill" to="#808080" begin="arrowLeft.mouseover" end="arrowLeft.mouseout"/>
                  </use>
                  <path fill="none" stroke="white" stroke-width="1.5" d="M0,-3.0v7 M-2.5,-0.5L0,-3.0L2.5,-0.5"/>
                </g>
        </g>
        <svg viewBox="0 0 15 15" width="100%" height="30px" preserveAspectRatio="xMaxYMin meet">
         <g id="arrow_out" transform="scale(0.3 0.3)">
          <a xlink:href="Iohb__DatabaseIO_8h__incl_org.svg" target="_base">
           <rect id="button" ry="5" rx="5" y="6" x="6" height="38" width="38"
                fill="#f2f5e9" fill-opacity="0.5" stroke="#606060" stroke-width="1.0"/>
           <path id="arrow"
             d="M 11.500037,31.436501 C 11.940474,20.09759 22.043105,11.32322 32.158766,21.979434 L 37.068811,17.246167 C 37.068811,17.246167 37.088388,32 37.088388,32 L 22.160133,31.978069 C 22.160133,31.978069 26.997745,27.140456 26.997745,27.140456 C 18.528582,18.264221 13.291696,25.230495 11.500037,31.436501 z"
             style="fill:#404040;"/>
          </a>
         </g>
        </svg>
</svg>
