<?xml version="1.0" encoding="UTF-8" standalone="no"?>
<!DOCTYPE svg PUBLIC "-//W3C//DTD SVG 1.1//EN"
 "http://www.w3.org/Graphics/SVG/1.1/DTD/svg11.dtd">
<!-- Generated by graphviz version 2.40.1 (20161225.0304)
 -->
<!-- Title: src/init/Ionit_Initializer.C Pages: 1 -->
<!--zoomable 422 -->
<svg id="main" version="1.1" xmlns="http://www.w3.org/2000/svg" xmlns:xlink="http://www.w3.org/1999/xlink" xml:space="preserve" onload="init(evt)">
<style type="text/css"><![CDATA[
.edge:hover path { stroke: red; }
.edge:hover polygon { stroke: red; fill: red; }
]]></style>
<script type="text/javascript"><![CDATA[
var edges = document.getElementsByTagName('g');
if (edges && edges.length) {
  for (var i=0;i<edges.length;i++) {
    if (edges[i].id.substr(0,4)=='edge') {
      edges[i].setAttribute('class','edge');
    }
  }
}
]]></script>
        <defs>
                <circle id="rim" cx="0" cy="0" r="7"/>
                <circle id="rim2" cx="0" cy="0" r="3.5"/>
                <g id="zoomPlus">
                        <use xlink:href="#rim" fill="#404040">
                                <set attributeName="fill" to="#808080" begin="zoomplus.mouseover" end="zoomplus.mouseout"/>
                        </use>
                        <path d="M-4,0h8M0,-4v8" fill="none" stroke="white" stroke-width="1.5" pointer-events="none"/>
                </g>
                <g id="zoomMin">
                        <use xlink:href="#rim" fill="#404040">
                                <set attributeName="fill" to="#808080" begin="zoomminus.mouseover" end="zoomminus.mouseout"/>
                        </use>
                        <path d="M-4,0h8" fill="none" stroke="white" stroke-width="1.5" pointer-events="none"/>
                </g>
                <g id="dirArrow">
                        <path fill="none" stroke="white" stroke-width="1.5" d="M0,-3.0v7 M-2.5,-0.5L0,-3.0L2.5,-0.5"/>
                </g>
               <g id="resetDef">
                       <use xlink:href="#rim2" fill="#404040">
                               <set attributeName="fill" to="#808080" begin="reset.mouseover" end="reset.mouseout"/>
                       </use>
               </g>
        </defs>

<script type="text/javascript">
var viewWidth = 2358;
var viewHeight = 422;
var sectionId = 'dynsection-0';
</script>
<script xlink:href="svgpan.js"/>
<svg id="graph" class="graph">
<g id="viewport">
<title>src/init/Ionit_Initializer.C</title>
<polygon fill="#ffffff" stroke="transparent" points="-4,4 -4,-418 2354.2271,-418 2354.2271,4 -4,4"/>
<!-- Node0 -->
<g id="node1" class="node">
<title>Node0</title>
<polygon fill="#bfbfbf" stroke="#000000" points="1812.478,-395.5 1812.478,-413.5 1933.522,-413.5 1933.522,-395.5 1812.478,-395.5"/>
<text text-anchor="middle" x="1873" y="-401.5" font-family="Helvetica,sans-Serif" font-size="10.00" fill="#000000">src/init/Ionit_Initializer.C</text>
</g>
<!-- Node1 -->
<g id="node2" class="node">
<title>Node1</title>
<g id="a_node2"><a xlink:href="Ionit__Initializer_8h.html" target="_top" xlink:title="Ionit_Initializer.h">
<polygon fill="#ffffff" stroke="#000000" points="162.1431,-335.5 162.1431,-353.5 249.8569,-353.5 249.8569,-335.5 162.1431,-335.5"/>
<text text-anchor="middle" x="206" y="-341.5" font-family="Helvetica,sans-Serif" font-size="10.00" fill="#000000">Ionit_Initializer.h</text>
</a>
</g>
</g>
<!-- Node0&#45;&gt;Node1 -->
<g id="edge1" class="edge">
<title>Node0&#45;&gt;Node1</title>
<path fill="none" stroke="#191970" d="M1812.3129,-403.6473C1537.2869,-399.6667 414.5317,-382.1273 259,-359 254.1258,-358.2752 249.0607,-357.2525 244.0803,-356.0817"/>
<polygon fill="#191970" stroke="#191970" points="244.6198,-352.6071 234.0642,-353.5183 242.8842,-359.3885 244.6198,-352.6071"/>
</g>
<!-- Node2 -->
<g id="node3" class="node">
<title>Node2</title>
<g id="a_node3"><a xlink:href="Ioss__CodeTypes_8h.html" target="_top" xlink:title="Ioss_CodeTypes.h">
<polygon fill="#ffffff" stroke="#000000" points="1245.584,-55.5 1245.584,-73.5 1344.416,-73.5 1344.416,-55.5 1245.584,-55.5"/>
<text text-anchor="middle" x="1295" y="-61.5" font-family="Helvetica,sans-Serif" font-size="10.00" fill="#000000">Ioss_CodeTypes.h</text>
</a>
</g>
</g>
<!-- Node0&#45;&gt;Node2 -->
<g id="edge2" class="edge">
<title>Node0&#45;&gt;Node2</title>
<path fill="none" stroke="#191970" d="M1890.7385,-395.4258C1903.7204,-387.6967 1920.3491,-375.259 1928,-359 1943.8958,-325.2198 1948.308,-306.3267 1928,-275 1871.987,-188.5957 1594.5877,-136.1809 1495,-110 1445.6308,-97.0212 1388.8393,-84.3107 1348.4182,-75.6377"/>
<polygon fill="#191970" stroke="#191970" points="1349.0193,-72.1872 1338.5089,-73.5219 1347.5577,-79.0329 1349.0193,-72.1872"/>
</g>
<!-- Node10 -->
<g id="node11" class="node">
<title>Node10</title>
<g id="a_node11"><a xlink:href="Iogs__DatabaseIO_8h.html" target="_top" xlink:title="gen_struc/Iogs_DatabaseIO.h">
<polygon fill="#ffffff" stroke="#000000" points="267.5693,-335.5 267.5693,-353.5 416.4307,-353.5 416.4307,-335.5 267.5693,-335.5"/>
<text text-anchor="middle" x="342" y="-341.5" font-family="Helvetica,sans-Serif" font-size="10.00" fill="#000000">gen_struc/Iogs_DatabaseIO.h</text>
</a>
</g>
</g>
<!-- Node0&#45;&gt;Node10 -->
<g id="edge10" class="edge">
<title>Node0&#45;&gt;Node10</title>
<path fill="none" stroke="#191970" d="M1812.3353,-403.7216C1573.9869,-400.4881 701.3719,-386.9588 426,-359 416.8094,-358.0669 407.1066,-356.7267 397.6876,-355.2335"/>
<polygon fill="#191970" stroke="#191970" points="398.0538,-351.7465 387.6162,-353.5651 396.9098,-358.6524 398.0538,-351.7465"/>
</g>
<!-- Node34 -->
<g id="node35" class="node">
<title>Node34</title>
<g id="a_node35"><a xlink:href="Iogn__DatabaseIO_8h.html" target="_top" xlink:title="generated/Iogn_DatabaseIO.h">
<polygon fill="#ffffff" stroke="#000000" points="434.7271,-335.5 434.7271,-353.5 585.2729,-353.5 585.2729,-335.5 434.7271,-335.5"/>
<text text-anchor="middle" x="510" y="-341.5" font-family="Helvetica,sans-Serif" font-size="10.00" fill="#000000">generated/Iogn_DatabaseIO.h</text>
</a>
</g>
</g>
<!-- Node0&#45;&gt;Node34 -->
<g id="edge79" class="edge">
<title>Node0&#45;&gt;Node34</title>
<path fill="none" stroke="#191970" d="M1812.2316,-401.8249C1594.0217,-392.2192 849.5434,-359.4469 595.6449,-348.2701"/>
<polygon fill="#191970" stroke="#191970" points="595.5166,-344.7612 585.3723,-347.8179 595.2086,-351.7544 595.5166,-344.7612"/>
</g>
<!-- Node35 -->
<g id="node36" class="node">
<title>Node35</title>
<g id="a_node36"><a xlink:href="Iohb__DatabaseIO_8h.html" target="_top" xlink:title="heartbeat/Iohb_DatabaseIO.h">
<polygon fill="#ffffff" stroke="#000000" points="1630.1187,-335.5 1630.1187,-353.5 1777.8813,-353.5 1777.8813,-335.5 1630.1187,-335.5"/>
<text text-anchor="middle" x="1704" y="-341.5" font-family="Helvetica,sans-Serif" font-size="10.00" fill="#000000">heartbeat/Iohb_DatabaseIO.h</text>
</a>
</g>
</g>
<!-- Node0&#45;&gt;Node35 -->
<g id="edge90" class="edge">
<title>Node0&#45;&gt;Node35</title>
<path fill="none" stroke="#191970" d="M1847.3325,-395.3873C1818.3787,-385.1078 1771.1298,-368.3331 1738.8543,-356.8743"/>
<polygon fill="#191970" stroke="#191970" points="1739.95,-353.5493 1729.3553,-353.5019 1737.608,-360.1459 1739.95,-353.5493"/>
</g>
<!-- Node36 -->
<g id="node37" class="node">
<title>Node36</title>
<g id="a_node37"><a xlink:href="Ioss__ConcreteVariableType_8h.html" target="_top" xlink:title="Ioss_ConcreteVariableType.h">
<polygon fill="#ffffff" stroke="#000000" points="2203.7729,-165.5 2203.7729,-183.5 2350.2271,-183.5 2350.2271,-165.5 2203.7729,-165.5"/>
<text text-anchor="middle" x="2277" y="-171.5" font-family="Helvetica,sans-Serif" font-size="10.00" fill="#000000">Ioss_ConcreteVariableType.h</text>
</a>
</g>
</g>
<!-- Node0&#45;&gt;Node36 -->
<g id="edge100" class="edge">
<title>Node0&#45;&gt;Node36</title>
<path fill="none" stroke="#191970" d="M1933.7239,-401.437C2036.4702,-395.6589 2235.6822,-381.6555 2258,-359 2301.8254,-314.5115 2290.1536,-231.5428 2281.9186,-193.929"/>
<polygon fill="#191970" stroke="#191970" points="2285.2342,-192.7384 2279.5385,-183.8047 2278.42,-194.3403 2285.2342,-192.7384"/>
</g>
<!-- Node40 -->
<g id="node41" class="node">
<title>Node40</title>
<g id="a_node41"><a xlink:href="Ioss__Initializer_8h.html" target="_top" xlink:title="Ioss_Initializer.h">
<polygon fill="#ffffff" stroke="#000000" points="2015.4238,-335.5 2015.4238,-353.5 2102.5762,-353.5 2102.5762,-335.5 2015.4238,-335.5"/>
<text text-anchor="middle" x="2059" y="-341.5" font-family="Helvetica,sans-Serif" font-size="10.00" fill="#000000">Ioss_Initializer.h</text>
</a>
</g>
</g>
<!-- Node0&#45;&gt;Node40 -->
<g id="edge109" class="edge">
<title>Node0&#45;&gt;Node40</title>
<path fill="none" stroke="#191970" d="M1901.2494,-395.3873C1933.3905,-385.0192 1986.0155,-368.0434 2021.5546,-356.5791"/>
<polygon fill="#191970" stroke="#191970" points="2022.6516,-359.903 2031.0942,-353.5019 2020.5026,-353.241 2022.6516,-359.903"/>
</g>
<!-- Node41 -->
<g id="node42" class="node">
<title>Node41</title>
<g id="a_node42"><a xlink:href="Iotr__Initializer_8h.html" target="_top" xlink:title="transform/Iotr_Initializer.h">
<polygon fill="#ffffff" stroke="#000000" points="2120.8647,-335.5 2120.8647,-353.5 2249.1353,-353.5 2249.1353,-335.5 2120.8647,-335.5"/>
<text text-anchor="middle" x="2185" y="-341.5" font-family="Helvetica,sans-Serif" font-size="10.00" fill="#000000">transform/Iotr_Initializer.h</text>
</a>
</g>
</g>
<!-- Node0&#45;&gt;Node41 -->
<g id="edge110" class="edge">
<title>Node0&#45;&gt;Node41</title>
<path fill="none" stroke="#191970" d="M1921.0879,-395.4614C1969.3668,-386.3596 2045.8692,-371.8625 2112,-359 2117.769,-357.8779 2123.7925,-356.6968 2129.7979,-355.5131"/>
<polygon fill="#191970" stroke="#191970" points="2130.7077,-358.9011 2139.8393,-353.5285 2129.3504,-352.0339 2130.7077,-358.9011"/>
</g>
<!-- Node42 -->
<g id="node43" class="node">
<title>Node42</title>
<g id="a_node43"><a xlink:href="Iovs__IOFactory_8h.html" target="_top" xlink:title="visualization/Iovs\l_IOFactory.h">
<polygon fill="#ffffff" stroke="#000000" points="1827.2046,-330.5 1827.2046,-358.5 1918.7954,-358.5 1918.7954,-330.5 1827.2046,-330.5"/>
<text text-anchor="start" x="1835.2046" y="-346.5" font-family="Helvetica,sans-Serif" font-size="10.00" fill="#000000">visualization/Iovs</text>
<text text-anchor="middle" x="1873" y="-336.5" font-family="Helvetica,sans-Serif" font-size="10.00" fill="#000000">_IOFactory.h</text>
</a>
</g>
</g>
<!-- Node0&#45;&gt;Node42 -->
<g id="edge111" class="edge">
<title>Node0&#45;&gt;Node42</title>
<path fill="none" stroke="#191970" d="M1873,-395.3873C1873,-388.3369 1873,-378.2311 1873,-368.8806"/>
<polygon fill="#191970" stroke="#191970" points="1876.5001,-368.8476 1873,-358.8477 1869.5001,-368.8477 1876.5001,-368.8476"/>
</g>
<!-- Node3 -->
<g id="node4" class="node">
<title>Node3</title>
<polygon fill="#ffffff" stroke="#bfbfbf" points="1180.6084,-.5 1180.6084,-18.5 1219.3916,-18.5 1219.3916,-.5 1180.6084,-.5"/>
<text text-anchor="middle" x="1200" y="-6.5" font-family="Helvetica,sans-Serif" font-size="10.00" fill="#000000">array</text>
</g>
<!-- Node2&#45;&gt;Node3 -->
<g id="edge3" class="edge">
<title>Node2&#45;&gt;Node3</title>
<path fill="none" stroke="#191970" d="M1279.3127,-55.4179C1264.461,-46.8195 1241.9302,-33.7754 1224.6731,-23.7844"/>
<polygon fill="#191970" stroke="#191970" points="1226.1185,-20.577 1215.7106,-18.5956 1222.6113,-26.635 1226.1185,-20.577"/>
</g>
<!-- Node4 -->
<g id="node5" class="node">
<title>Node4</title>
<polygon fill="#ffffff" stroke="#bfbfbf" points="464.8794,-.5 464.8794,-18.5 513.1206,-18.5 513.1206,-.5 464.8794,-.5"/>
<text text-anchor="middle" x="489" y="-6.5" font-family="Helvetica,sans-Serif" font-size="10.00" fill="#000000">cstddef</text>
</g>
<!-- Node2&#45;&gt;Node4 -->
<g id="edge4" class="edge">
<title>Node2&#45;&gt;Node4</title>
<path fill="none" stroke="#191970" d="M1245.4923,-61.1217C1095.8977,-50.9136 651.015,-20.5556 523.5083,-11.8548"/>
<polygon fill="#191970" stroke="#191970" points="523.3985,-8.3392 513.1834,-11.1502 522.9219,-15.323 523.3985,-8.3392"/>
</g>
<!-- Node5 -->
<g id="node6" class="node">
<title>Node5</title>
<polygon fill="#ffffff" stroke="#bfbfbf" points="220.5493,-.5 220.5493,-18.5 265.4507,-18.5 265.4507,-.5 220.5493,-.5"/>
<text text-anchor="middle" x="243" y="-6.5" font-family="Helvetica,sans-Serif" font-size="10.00" fill="#000000">cstdint</text>
</g>
<!-- Node2&#45;&gt;Node5 -->
<g id="edge5" class="edge">
<title>Node2&#45;&gt;Node5</title>
<path fill="none" stroke="#191970" d="M1245.3198,-61.9026C1062.1644,-52.327 427.4919,-19.1455 275.767,-11.2131"/>
<polygon fill="#191970" stroke="#191970" points="275.8594,-7.7132 265.6903,-10.6863 275.4938,-14.7037 275.8594,-7.7132"/>
</g>
<!-- Node6 -->
<g id="node7" class="node">
<title>Node6</title>
<polygon fill="#ffffff" stroke="#bfbfbf" points="1792.7734,-.5 1792.7734,-18.5 1833.2266,-18.5 1833.2266,-.5 1792.7734,-.5"/>
<text text-anchor="middle" x="1813" y="-6.5" font-family="Helvetica,sans-Serif" font-size="10.00" fill="#000000">string</text>
</g>
<!-- Node2&#45;&gt;Node6 -->
<g id="edge6" class="edge">
<title>Node2&#45;&gt;Node6</title>
<path fill="none" stroke="#191970" d="M1344.668,-59.2264C1450.6672,-47.9716 1696.3866,-21.8817 1782.5113,-12.7372"/>
<polygon fill="#191970" stroke="#191970" points="1783.0881,-16.1957 1792.6627,-11.6594 1782.349,-9.2349 1783.0881,-16.1957"/>
</g>
<!-- Node7 -->
<g id="node8" class="node">
<title>Node7</title>
<polygon fill="#ffffff" stroke="#bfbfbf" points="752.3843,-.5 752.3843,-18.5 795.6157,-18.5 795.6157,-.5 752.3843,-.5"/>
<text text-anchor="middle" x="774" y="-6.5" font-family="Helvetica,sans-Serif" font-size="10.00" fill="#000000">vector</text>
</g>
<!-- Node2&#45;&gt;Node7 -->
<g id="edge7" class="edge">
<title>Node2&#45;&gt;Node7</title>
<path fill="none" stroke="#191970" d="M1245.5159,-59.2761C1139.6917,-48.1047 893.8821,-22.1555 805.974,-12.8754"/>
<polygon fill="#191970" stroke="#191970" points="806.1322,-9.3727 795.82,-11.8035 805.3973,-16.334 806.1322,-9.3727"/>
</g>
<!-- Node8 -->
<g id="node9" class="node">
<title>Node8</title>
<polygon fill="#ffffff" stroke="#bfbfbf" points="1237.2515,-.5 1237.2515,-18.5 1352.7485,-18.5 1352.7485,-.5 1237.2515,-.5"/>
<text text-anchor="middle" x="1295" y="-6.5" font-family="Helvetica,sans-Serif" font-size="10.00" fill="#000000">SEACASIoss_config.h</text>
</g>
<!-- Node2&#45;&gt;Node8 -->
<g id="edge8" class="edge">
<title>Node2&#45;&gt;Node8</title>
<path fill="none" stroke="#191970" d="M1295,-55.4179C1295,-48.2164 1295,-37.8962 1295,-28.8632"/>
<polygon fill="#191970" stroke="#191970" points="1298.5001,-28.7794 1295,-18.7795 1291.5001,-28.7795 1298.5001,-28.7794"/>
</g>
<!-- Node9 -->
<g id="node10" class="node">
<title>Node9</title>
<polygon fill="#ffffff" stroke="#bfbfbf" points="1370.3818,-.5 1370.3818,-18.5 1423.6182,-18.5 1423.6182,-.5 1370.3818,-.5"/>
<text text-anchor="middle" x="1397" y="-6.5" font-family="Helvetica,sans-Serif" font-size="10.00" fill="#000000">complex</text>
</g>
<!-- Node2&#45;&gt;Node9 -->
<g id="edge9" class="edge">
<title>Node2&#45;&gt;Node9</title>
<path fill="none" stroke="#191970" d="M1311.8432,-55.4179C1328.0107,-46.7001 1352.6538,-33.4122 1371.2776,-23.3699"/>
<polygon fill="#191970" stroke="#191970" points="1372.991,-26.4225 1380.1318,-18.5956 1369.6686,-20.2611 1372.991,-26.4225"/>
</g>
<!-- Node10&#45;&gt;Node2 -->
<g id="edge12" class="edge">
<title>Node10&#45;&gt;Node2</title>
<path fill="none" stroke="#191970" d="M342.7009,-335.1802C344.9331,-312.1996 353.8918,-252.3467 388,-220 427.1685,-182.8543 453.9154,-204.1372 504,-184 521.5193,-176.9561 524.542,-172.1946 542,-165 614.2492,-135.2255 632.3801,-125.3579 709,-110 759.6349,-99.8506 1096.6148,-77.3016 1235.4184,-68.3095"/>
<polygon fill="#191970" stroke="#191970" points="1235.7059,-71.7983 1245.4592,-67.6603 1235.2542,-64.8129 1235.7059,-71.7983"/>
</g>
<!-- Node10&#45;&gt;Node4 -->
<g id="edge75" class="edge">
<title>Node10&#45;&gt;Node4</title>
<path fill="none" stroke="#191970" d="M290.8502,-335.4846C210.3135,-321.261 62.9206,-295.1015 62,-294 47.5947,-276.7641 -2.0928,-290.4768 100,-110 117.3331,-79.359 125.3295,-70.3717 157,-55 209.0052,-29.7585 380.3341,-16.2872 454.3921,-11.523"/>
<polygon fill="#191970" stroke="#191970" points="454.8261,-15.0027 464.5871,-10.8828 454.3874,-8.0164 454.8261,-15.0027"/>
</g>
<!-- Node10&#45;&gt;Node5 -->
<g id="edge76" class="edge">
<title>Node10&#45;&gt;Node5</title>
<path fill="none" stroke="#191970" d="M291.111,-335.4362C280.506,-333.5961 269.3934,-331.7038 259,-330 137.1529,-310.026 0,-352.9734 0,-229.5 0,-229.5 0,-229.5 0,-119.5 0,-88.9131 .7984,-74.9309 24,-55 51.6155,-31.2775 156.2594,-17.8966 210.283,-12.4343"/>
<polygon fill="#191970" stroke="#191970" points="210.7634,-15.9041 220.3749,-11.4467 210.0816,-8.9374 210.7634,-15.9041"/>
</g>
<!-- Node10&#45;&gt;Node6 -->
<g id="edge77" class="edge">
<title>Node10&#45;&gt;Node6</title>
<path fill="none" stroke="#191970" d="M388.5163,-335.4949C400.676,-333.4091 413.7962,-331.3946 426,-330 889.1875,-277.0683 1018.7348,-352.1396 1471,-239 1606.7463,-205.0414 1658.4053,-218.463 1766,-129 1796.5983,-103.558 1807.3768,-55.4973 1811.0985,-28.7297"/>
<polygon fill="#191970" stroke="#191970" points="1814.5869,-29.0343 1812.2987,-18.6895 1807.6364,-28.2034 1814.5869,-29.0343"/>
</g>
<!-- Node10&#45;&gt;Node7 -->
<g id="edge78" class="edge">
<title>Node10&#45;&gt;Node7</title>
<path fill="none" stroke="#191970" d="M343.0932,-335.4706C345.9889,-314.116 355.252,-259.3477 378,-220 394.9906,-190.611 404.0889,-185.6927 431,-165 451.5698,-149.1833 613.0777,-65.0502 637,-55 672.3954,-40.1298 714.4858,-26.7638 742.5848,-18.4263"/>
<polygon fill="#191970" stroke="#191970" points="743.654,-21.7603 752.2658,-15.5887 741.685,-15.0429 743.654,-21.7603"/>
</g>
<!-- Node11 -->
<g id="node12" class="node">
<title>Node11</title>
<g id="a_node12"><a xlink:href="Ioss__State_8h.html" target="_top" xlink:title="Ioss_State.h">
<polygon fill="#ffffff" stroke="#000000" points="408.2046,-220.5 408.2046,-238.5 479.7954,-238.5 479.7954,-220.5 408.2046,-220.5"/>
<text text-anchor="middle" x="444" y="-226.5" font-family="Helvetica,sans-Serif" font-size="10.00" fill="#000000">Ioss_State.h</text>
</a>
</g>
</g>
<!-- Node10&#45;&gt;Node11 -->
<g id="edge11" class="edge">
<title>Node10&#45;&gt;Node11</title>
<path fill="none" stroke="#191970" d="M350.0038,-335.4761C367.0502,-316.2571 407.1673,-271.027 429.0774,-246.3246"/>
<polygon fill="#191970" stroke="#191970" points="431.7329,-248.6051 435.7501,-238.8014 426.496,-243.9602 431.7329,-248.6051"/>
</g>
<!-- Node12 -->
<g id="node13" class="node">
<title>Node12</title>
<g id="a_node13"><a xlink:href="Ioss__DBUsage_8h.html" target="_top" xlink:title="Ioss_DBUsage.h">
<polygon fill="#ffffff" stroke="#000000" points="1603.4805,-220.5 1603.4805,-238.5 1694.5195,-238.5 1694.5195,-220.5 1603.4805,-220.5"/>
<text text-anchor="middle" x="1649" y="-226.5" font-family="Helvetica,sans-Serif" font-size="10.00" fill="#000000">Ioss_DBUsage.h</text>
</a>
</g>
</g>
<!-- Node10&#45;&gt;Node12 -->
<g id="edge13" class="edge">
<title>Node10&#45;&gt;Node12</title>
<path fill="none" stroke="#191970" d="M387.6159,-335.4317C400.0201,-333.2928 413.4849,-331.2682 426,-330 554.1834,-317.0102 1466.847,-345.3769 1585,-294 1607.4931,-284.2192 1626.2722,-262.5261 1637.5512,-246.9989"/>
<polygon fill="#191970" stroke="#191970" points="1640.4788,-248.919 1643.2969,-238.7059 1634.7249,-244.9325 1640.4788,-248.919"/>
</g>
<!-- Node13 -->
<g id="node14" class="node">
<title>Node13</title>
<g id="a_node14"><a xlink:href="Ioss__DatabaseIO_8h.html" target="_top" xlink:title="Ioss_DatabaseIO.h">
<polygon fill="#ffffff" stroke="#000000" points="950.1973,-275.5 950.1973,-293.5 1051.8027,-293.5 1051.8027,-275.5 950.1973,-275.5"/>
<text text-anchor="middle" x="1001" y="-281.5" font-family="Helvetica,sans-Serif" font-size="10.00" fill="#000000">Ioss_DatabaseIO.h</text>
</a>
</g>
</g>
<!-- Node10&#45;&gt;Node13 -->
<g id="edge14" class="edge">
<title>Node10&#45;&gt;Node13</title>
<path fill="none" stroke="#191970" d="M389.8608,-335.4552C401.6449,-333.4448 414.2531,-331.4755 426,-330 612.5422,-306.5694 834.7384,-293.0337 939.958,-287.4816"/>
<polygon fill="#191970" stroke="#191970" points="940.2707,-290.9701 950.0746,-286.9534 939.9057,-283.9797 940.2707,-290.9701"/>
</g>
<!-- Node17 -->
<g id="node18" class="node">
<title>Node17</title>
<g id="a_node18"><a xlink:href="Ioss__Map_8h.html" target="_top" xlink:title="Ioss_Map.h">
<polygon fill="#ffffff" stroke="#000000" points="412.1528,-110.5 412.1528,-128.5 479.8472,-128.5 479.8472,-110.5 412.1528,-110.5"/>
<text text-anchor="middle" x="446" y="-116.5" font-family="Helvetica,sans-Serif" font-size="10.00" fill="#000000">Ioss_Map.h</text>
</a>
</g>
</g>
<!-- Node10&#45;&gt;Node17 -->
<g id="edge74" class="edge">
<title>Node10&#45;&gt;Node17</title>
<path fill="none" stroke="#191970" d="M289.245,-335.4605C245.965,-326.8427 189.6754,-312.4545 176,-294 170.9724,-287.2154 173.486,-283.0615 176,-275 205.7554,-179.5866 333.2044,-140.8993 401.8287,-126.7567"/>
<polygon fill="#191970" stroke="#191970" points="402.7771,-130.1372 411.9109,-124.7684 401.4226,-123.2695 402.7771,-130.1372"/>
</g>
<!-- Node33 -->
<g id="node34" class="node">
<title>Node33</title>
<g id="a_node34"><a xlink:href="Ioss__IOFactory_8h.html" target="_top" xlink:title="Ioss_IOFactory.h">
<polygon fill="#ffffff" stroke="#000000" points="1827.2998,-275.5 1827.2998,-293.5 1918.7002,-293.5 1918.7002,-275.5 1827.2998,-275.5"/>
<text text-anchor="middle" x="1873" y="-281.5" font-family="Helvetica,sans-Serif" font-size="10.00" fill="#000000">Ioss_IOFactory.h</text>
</a>
</g>
</g>
<!-- Node10&#45;&gt;Node33 -->
<g id="edge67" class="edge">
<title>Node10&#45;&gt;Node33</title>
<path fill="none" stroke="#191970" d="M387.1777,-335.499C399.7023,-333.3323 413.3371,-331.2769 426,-330 955.5549,-276.5996 1091.0675,-312.1054 1623,-294 1689.6022,-291.7331 1766.1709,-288.771 1816.8359,-286.7613"/>
<polygon fill="#191970" stroke="#191970" points="1817.0738,-290.2548 1826.9268,-286.3601 1816.7956,-283.2603 1817.0738,-290.2548"/>
</g>
<!-- Node13&#45;&gt;Node2 -->
<g id="edge16" class="edge">
<title>Node13&#45;&gt;Node2</title>
<path fill="none" stroke="#191970" d="M1052.0617,-282.4666C1155.2765,-277.8305 1380.9255,-264.8263 1404,-239 1409.6262,-232.7028 1406.5413,-228.053 1404,-220 1394.3456,-189.4074 1336.3793,-115.465 1309.133,-81.7604"/>
<polygon fill="#191970" stroke="#191970" points="1311.6443,-79.3009 1302.621,-73.7483 1306.2122,-83.716 1311.6443,-79.3009"/>
</g>
<!-- Node13&#45;&gt;Node4 -->
<g id="edge61" class="edge">
<title>Node13&#45;&gt;Node4</title>
<path fill="none" stroke="#191970" d="M950.0888,-281.5532C850.2136,-275.3942 632.0548,-259.9718 560,-239 541.87,-233.7232 539.1949,-227.8025 522,-220 483.5191,-202.5386 469.9587,-206.1958 434,-184 374.9417,-147.5458 305.0346,-111.0235 346,-55 358.9317,-37.3148 416.5941,-23.2284 454.631,-15.6454"/>
<polygon fill="#191970" stroke="#191970" points="455.632,-19.0168 464.7854,-13.6815 454.3027,-12.1441 455.632,-19.0168"/>
</g>
<!-- Node13&#45;&gt;Node5 -->
<g id="edge62" class="edge">
<title>Node13&#45;&gt;Node5</title>
<path fill="none" stroke="#191970" d="M950.1094,-282.4007C843.6291,-277.5641 600.6937,-264.0824 522,-239 505.8753,-233.8605 504.2141,-227.4129 489,-220 450.642,-201.3104 436.3531,-206.3404 400,-184 340.0141,-147.1364 329.6029,-129.2813 286,-74 274.062,-58.8646 262.0217,-40.4742 253.7307,-27.2094"/>
<polygon fill="#191970" stroke="#191970" points="256.6369,-25.2539 248.4113,-18.5763 250.6774,-28.926 256.6369,-25.2539"/>
</g>
<!-- Node13&#45;&gt;Node6 -->
<g id="edge64" class="edge">
<title>Node13&#45;&gt;Node6</title>
<path fill="none" stroke="#191970" d="M1051.8484,-281.2559C1156.4084,-274.3102 1392.3173,-257.1502 1471,-239 1607.3488,-207.5477 1646.3655,-201.5798 1766,-129 1797.2096,-110.0658 1812.1638,-107.3531 1827,-74 1833.6058,-59.1495 1828.5933,-40.9541 1822.8094,-27.6795"/>
<polygon fill="#191970" stroke="#191970" points="1825.9301,-26.0934 1818.4157,-18.6245 1819.6324,-29.1492 1825.9301,-26.0934"/>
</g>
<!-- Node13&#45;&gt;Node7 -->
<g id="edge66" class="edge">
<title>Node13&#45;&gt;Node7</title>
<path fill="none" stroke="#191970" d="M949.9925,-282.7149C877.7903,-279.1502 750.7864,-268.7284 717,-239 694.564,-219.2588 698,-204.3846 698,-174.5 698,-174.5 698,-174.5 698,-119.5 698,-88.9131 704.6262,-80.1735 722,-55 729.9849,-43.4303 741.5559,-32.9186 751.7566,-24.9206"/>
<polygon fill="#191970" stroke="#191970" points="753.9885,-27.6219 759.8941,-18.8255 749.792,-22.0192 753.9885,-27.6219"/>
</g>
<!-- Node13&#45;&gt;Node11 -->
<g id="edge58" class="edge">
<title>Node13&#45;&gt;Node11</title>
<path fill="none" stroke="#191970" d="M950.0785,-281.5913C858.5029,-275.9913 660.0819,-262.1731 494,-239 492.7202,-238.8214 491.4234,-238.6323 490.1157,-238.4343"/>
<polygon fill="#191970" stroke="#191970" points="490.4145,-234.9366 479.9802,-236.7738 489.2827,-241.8445 490.4145,-234.9366"/>
</g>
<!-- Node13&#45;&gt;Node12 -->
<g id="edge17" class="edge">
<title>Node13&#45;&gt;Node12</title>
<path fill="none" stroke="#191970" d="M1051.8247,-280.5362C1148.8796,-272.9135 1367.301,-255.5014 1551,-239 1564.5669,-237.7813 1579.1833,-236.4008 1592.8812,-235.0774"/>
<polygon fill="#191970" stroke="#191970" points="1593.5299,-238.5309 1603.1445,-234.08 1592.8529,-231.5637 1593.5299,-238.5309"/>
</g>
<!-- Node14 -->
<g id="node15" class="node">
<title>Node14</title>
<g id="a_node15"><a xlink:href="Ioss__BoundingBox_8h.html" target="_top" xlink:title="Ioss_BoundingBox.h">
<polygon fill="#ffffff" stroke="#000000" points="947.1333,-220.5 947.1333,-238.5 1054.8667,-238.5 1054.8667,-220.5 947.1333,-220.5"/>
<text text-anchor="middle" x="1001" y="-226.5" font-family="Helvetica,sans-Serif" font-size="10.00" fill="#000000">Ioss_BoundingBox.h</text>
</a>
</g>
</g>
<!-- Node13&#45;&gt;Node14 -->
<g id="edge15" class="edge">
<title>Node13&#45;&gt;Node14</title>
<path fill="none" stroke="#191970" d="M1001,-275.4179C1001,-268.2164 1001,-257.8962 1001,-248.8632"/>
<polygon fill="#191970" stroke="#191970" points="1004.5001,-248.7794 1001,-238.7795 997.5001,-248.7795 1004.5001,-248.7794"/>
</g>
<!-- Node15 -->
<g id="node16" class="node">
<title>Node15</title>
<g id="a_node16"><a xlink:href="Ioss__DataSize_8h.html" target="_top" xlink:title="Ioss_DataSize.h">
<polygon fill="#ffffff" stroke="#000000" points="1072.5913,-220.5 1072.5913,-238.5 1161.4087,-238.5 1161.4087,-220.5 1072.5913,-220.5"/>
<text text-anchor="middle" x="1117" y="-226.5" font-family="Helvetica,sans-Serif" font-size="10.00" fill="#000000">Ioss_DataSize.h</text>
</a>
</g>
</g>
<!-- Node13&#45;&gt;Node15 -->
<g id="edge18" class="edge">
<title>Node13&#45;&gt;Node15</title>
<path fill="none" stroke="#191970" d="M1020.155,-275.4179C1038.7934,-266.5807 1067.3367,-253.0473 1088.6136,-242.9591"/>
<polygon fill="#191970" stroke="#191970" points="1090.2802,-246.0424 1097.8165,-238.5956 1087.2812,-239.7174 1090.2802,-246.0424"/>
</g>
<!-- Node16 -->
<g id="node17" class="node">
<title>Node16</title>
<g id="a_node17"><a xlink:href="Ioss__EntityType_8h.html" target="_top" xlink:title="Ioss_EntityType.h">
<polygon fill="#ffffff" stroke="#000000" points="1179.5322,-220.5 1179.5322,-238.5 1274.4678,-238.5 1274.4678,-220.5 1179.5322,-220.5"/>
<text text-anchor="middle" x="1227" y="-226.5" font-family="Helvetica,sans-Serif" font-size="10.00" fill="#000000">Ioss_EntityType.h</text>
</a>
</g>
</g>
<!-- Node13&#45;&gt;Node16 -->
<g id="edge19" class="edge">
<title>Node13&#45;&gt;Node16</title>
<path fill="none" stroke="#191970" d="M1038.0662,-275.4795C1076.9033,-266.0279 1138.0132,-251.1561 1180.163,-240.8984"/>
<polygon fill="#191970" stroke="#191970" points="1181.0248,-244.2909 1189.9135,-238.5255 1179.3695,-237.4894 1181.0248,-244.2909"/>
</g>
<!-- Node13&#45;&gt;Node17 -->
<g id="edge20" class="edge">
<title>Node13&#45;&gt;Node17</title>
<path fill="none" stroke="#191970" d="M949.925,-282.2283C886.33,-278.2593 774.9813,-267.5374 684,-239 640.5999,-225.387 523.3253,-162.1105 471.368,-133.5514"/>
<polygon fill="#191970" stroke="#191970" points="472.9067,-130.4031 462.4591,-128.6426 469.5285,-136.534 472.9067,-130.4031"/>
</g>
<!-- Node18 -->
<g id="node19" class="node">
<title>Node18</title>
<polygon fill="#ffffff" stroke="#bfbfbf" points="365.6084,-55.5 365.6084,-73.5 404.3916,-73.5 404.3916,-55.5 365.6084,-55.5"/>
<text text-anchor="middle" x="385" y="-61.5" font-family="Helvetica,sans-Serif" font-size="10.00" fill="#000000">utility</text>
</g>
<!-- Node13&#45;&gt;Node18 -->
<g id="edge65" class="edge">
<title>Node13&#45;&gt;Node18</title>
<path fill="none" stroke="#191970" d="M949.9405,-283.1593C878.5829,-280.159 745.5813,-270.4457 637,-239 526.6178,-207.0328 477.1863,-216.7639 403,-129 392.2219,-116.2493 387.8718,-97.5066 386.1296,-83.5072"/>
<polygon fill="#191970" stroke="#191970" points="389.6111,-83.1432 385.2186,-73.5019 382.6399,-83.7781 389.6111,-83.1432"/>
</g>
<!-- Node19 -->
<g id="node20" class="node">
<title>Node19</title>
<g id="a_node20"><a xlink:href="Ioss__ParallelUtils_8h.html" target="_top" xlink:title="Ioss_ParallelUtils.h">
<polygon fill="#ffffff" stroke="#000000" points="828.4829,-220.5 828.4829,-238.5 929.5171,-238.5 929.5171,-220.5 828.4829,-220.5"/>
<text text-anchor="middle" x="879" y="-226.5" font-family="Helvetica,sans-Serif" font-size="10.00" fill="#000000">Ioss_ParallelUtils.h</text>
</a>
</g>
</g>
<!-- Node13&#45;&gt;Node19 -->
<g id="edge27" class="edge">
<title>Node13&#45;&gt;Node19</title>
<path fill="none" stroke="#191970" d="M980.8542,-275.4179C961.1634,-266.5409 930.9615,-252.9253 908.5527,-242.823"/>
<polygon fill="#191970" stroke="#191970" points="909.7306,-239.5148 899.1757,-238.5956 906.8537,-245.8963 909.7306,-239.5148"/>
</g>
<!-- Node27 -->
<g id="node28" class="node">
<title>Node27</title>
<g id="a_node28"><a xlink:href="Ioss__PropertyManager_8h.html" target="_top" xlink:title="Ioss_PropertyManager.h">
<polygon fill="#ffffff" stroke="#000000" points="1584.5225,-110.5 1584.5225,-128.5 1709.4775,-128.5 1709.4775,-110.5 1584.5225,-110.5"/>
<text text-anchor="middle" x="1647" y="-116.5" font-family="Helvetica,sans-Serif" font-size="10.00" fill="#000000">Ioss_PropertyManager.h</text>
</a>
</g>
</g>
<!-- Node13&#45;&gt;Node27 -->
<g id="edge49" class="edge">
<title>Node13&#45;&gt;Node27</title>
<path fill="none" stroke="#191970" d="M1051.815,-281.823C1150.9101,-276.1725 1366.4398,-261.6542 1437,-239 1476.1405,-226.4335 1578.4425,-163.0626 1624.2486,-134.0463"/>
<polygon fill="#191970" stroke="#191970" points="1626.3094,-136.8837 1632.8723,-128.5663 1622.555,-130.9757 1626.3094,-136.8837"/>
</g>
<!-- Node30 -->
<g id="node31" class="node">
<title>Node30</title>
<g id="a_node31"><a xlink:href="Ioss__SurfaceSplit_8h.html" target="_top" xlink:title="Ioss_SurfaceSplit.h">
<polygon fill="#ffffff" stroke="#000000" points="1292.9214,-220.5 1292.9214,-238.5 1395.0786,-238.5 1395.0786,-220.5 1292.9214,-220.5"/>
<text text-anchor="middle" x="1344" y="-226.5" font-family="Helvetica,sans-Serif" font-size="10.00" fill="#000000">Ioss_SurfaceSplit.h</text>
</a>
</g>
</g>
<!-- Node13&#45;&gt;Node30 -->
<g id="edge59" class="edge">
<title>Node13&#45;&gt;Node30</title>
<path fill="none" stroke="#191970" d="M1051.9802,-276.3253C1113.4487,-266.4689 1216.6844,-249.915 1282.5089,-239.3601"/>
<polygon fill="#191970" stroke="#191970" points="1283.4203,-242.7587 1292.7399,-237.7195 1282.3119,-235.847 1283.4203,-242.7587"/>
</g>
<!-- Node31 -->
<g id="node32" class="node">
<title>Node31</title>
<polygon fill="#ffffff" stroke="#bfbfbf" points="725.7119,-220.5 725.7119,-238.5 772.2881,-238.5 772.2881,-220.5 725.7119,-220.5"/>
<text text-anchor="middle" x="749" y="-226.5" font-family="Helvetica,sans-Serif" font-size="10.00" fill="#000000">chrono</text>
</g>
<!-- Node13&#45;&gt;Node31 -->
<g id="edge60" class="edge">
<title>Node13&#45;&gt;Node31</title>
<path fill="none" stroke="#191970" d="M955.5753,-275.4744C911.9743,-266.6725 844.3238,-252.6524 786,-239 784.765,-238.7109 783.5081,-238.412 782.2393,-238.1063"/>
<polygon fill="#191970" stroke="#191970" points="782.9989,-234.6888 772.4507,-235.6822 781.3161,-241.4835 782.9989,-234.6888"/>
</g>
<!-- Node32 -->
<g id="node33" class="node">
<title>Node32</title>
<polygon fill="#ffffff" stroke="#bfbfbf" points="1879.2734,-55.5 1879.2734,-73.5 1914.7266,-73.5 1914.7266,-55.5 1879.2734,-55.5"/>
<text text-anchor="middle" x="1897" y="-61.5" font-family="Helvetica,sans-Serif" font-size="10.00" fill="#000000">map</text>
</g>
<!-- Node13&#45;&gt;Node32 -->
<g id="edge63" class="edge">
<title>Node13&#45;&gt;Node32</title>
<path fill="none" stroke="#191970" d="M1052.0349,-283.4963C1138.9894,-280.9147 1321.0215,-271.7151 1471,-239 1617.1143,-207.1278 1653.4217,-192.1171 1789,-129 1820.2166,-114.4674 1853.9479,-93.3696 1875.2552,-79.306"/>
<polygon fill="#191970" stroke="#191970" points="1877.4759,-82.0318 1883.8498,-73.5687 1873.5895,-76.2097 1877.4759,-82.0318"/>
</g>
<!-- Node17&#45;&gt;Node2 -->
<g id="edge21" class="edge">
<title>Node17&#45;&gt;Node2</title>
<path fill="none" stroke="#191970" d="M480.0691,-117.2929C609.2868,-108.9219 1070.1671,-79.0651 1235.4621,-68.357"/>
<polygon fill="#191970" stroke="#191970" points="1235.6973,-71.8492 1245.4501,-67.7099 1235.2447,-64.8638 1235.6973,-71.8492"/>
</g>
<!-- Node17&#45;&gt;Node4 -->
<g id="edge22" class="edge">
<title>Node17&#45;&gt;Node4</title>
<path fill="none" stroke="#191970" d="M449.5189,-110.4982C456.5427,-92.5302 472.4272,-51.8954 481.7664,-28.0046"/>
<polygon fill="#191970" stroke="#191970" points="485.0514,-29.2141 485.4325,-18.6261 478.5319,-26.6655 485.0514,-29.2141"/>
</g>
<!-- Node17&#45;&gt;Node5 -->
<g id="edge23" class="edge">
<title>Node17&#45;&gt;Node5</title>
<path fill="none" stroke="#191970" d="M443.7852,-110.0545C439.9728,-95.9193 430.805,-69.3895 413,-55 391.9804,-38.0125 318.8252,-22.7744 275.6312,-14.9806"/>
<polygon fill="#191970" stroke="#191970" points="276.0606,-11.5023 265.6039,-13.2078 274.8418,-18.3954 276.0606,-11.5023"/>
</g>
<!-- Node17&#45;&gt;Node6 -->
<g id="edge24" class="edge">
<title>Node17&#45;&gt;Node6</title>
<path fill="none" stroke="#191970" d="M479.9195,-116.7032C589.477,-107.6764 943.7781,-78.5362 1237,-55 1445.5581,-38.2595 1696.636,-18.5935 1782.498,-11.8821"/>
<polygon fill="#191970" stroke="#191970" points="1782.8951,-15.3618 1792.592,-11.0933 1782.3497,-8.3831 1782.8951,-15.3618"/>
</g>
<!-- Node17&#45;&gt;Node7 -->
<g id="edge26" class="edge">
<title>Node17&#45;&gt;Node7</title>
<path fill="none" stroke="#191970" d="M466.6947,-110.3973C497.2315,-97.1639 556.3315,-72.3071 608,-55 654.2216,-39.5174 708.9392,-25.2916 742.5579,-17.0073"/>
<polygon fill="#191970" stroke="#191970" points="743.3973,-20.4052 752.2811,-14.6322 741.7362,-13.6052 743.3973,-20.4052"/>
</g>
<!-- Node17&#45;&gt;Node18 -->
<g id="edge25" class="edge">
<title>Node17&#45;&gt;Node18</title>
<path fill="none" stroke="#191970" d="M435.9271,-110.4179C426.9745,-102.3458 413.6762,-90.3556 402.9137,-80.6517"/>
<polygon fill="#191970" stroke="#191970" points="405.0624,-77.8764 395.2918,-73.7795 400.3749,-83.0753 405.0624,-77.8764"/>
</g>
<!-- Node19&#45;&gt;Node2 -->
<g id="edge28" class="edge">
<title>Node19&#45;&gt;Node2</title>
<path fill="none" stroke="#191970" d="M921.5609,-220.475C1015.8939,-200.173 1236.3443,-150.969 1263,-129 1276.9901,-117.4696 1285.3992,-98.3023 1290.0607,-83.8518"/>
<polygon fill="#191970" stroke="#191970" points="1293.5153,-84.5038 1292.9252,-73.9255 1286.7897,-82.563 1293.5153,-84.5038"/>
</g>
<!-- Node19&#45;&gt;Node4 -->
<g id="edge46" class="edge">
<title>Node19&#45;&gt;Node4</title>
<path fill="none" stroke="#191970" d="M828.2144,-223.0487C720.8406,-208.73 474.7582,-172.1287 403,-129 369.8083,-109.0509 334.5173,-86.5306 357,-55 368.5597,-38.7882 419.6431,-24.6459 454.7625,-16.5933"/>
<polygon fill="#191970" stroke="#191970" points="455.6439,-19.9828 464.6426,-14.3905 454.1206,-13.1505 455.6439,-19.9828"/>
</g>
<!-- Node19&#45;&gt;Node6 -->
<g id="edge47" class="edge">
<title>Node19&#45;&gt;Node6</title>
<path fill="none" stroke="#191970" d="M929.8262,-221.1613C932.5893,-220.7563 935.3275,-220.3664 938,-220 1026.9612,-207.8039 1665.4363,-177.5074 1741,-129 1777.725,-105.4247 1798.4203,-55.8401 1807.4579,-28.5356"/>
<polygon fill="#191970" stroke="#191970" points="1810.9065,-29.2333 1810.541,-18.6448 1804.2236,-27.1501 1810.9065,-29.2333"/>
</g>
<!-- Node19&#45;&gt;Node7 -->
<g id="edge48" class="edge">
<title>Node19&#45;&gt;Node7</title>
<path fill="none" stroke="#191970" d="M867.8522,-220.2902C848.9986,-204.0215 811.1049,-168.1929 793,-129 777.7897,-96.0733 774.4538,-53.204 773.8938,-28.7808"/>
<polygon fill="#191970" stroke="#191970" points="777.3928,-28.6449 773.8005,-18.6777 770.3931,-28.7096 777.3928,-28.6449"/>
</g>
<!-- Node20 -->
<g id="node21" class="node">
<title>Node20</title>
<g id="a_node21"><a xlink:href="Ioss__Utils_8h.html" target="_top" xlink:title="Ioss_Utils.h">
<polygon fill="#ffffff" stroke="#000000" points="986.1577,-165.5 986.1577,-183.5 1053.8423,-183.5 1053.8423,-165.5 986.1577,-165.5"/>
<text text-anchor="middle" x="1020" y="-171.5" font-family="Helvetica,sans-Serif" font-size="10.00" fill="#000000">Ioss_Utils.h</text>
</a>
</g>
</g>
<!-- Node19&#45;&gt;Node20 -->
<g id="edge29" class="edge">
<title>Node19&#45;&gt;Node20</title>
<path fill="none" stroke="#191970" d="M902.2833,-220.4179C925.4488,-211.3817 961.2023,-197.4353 987.2296,-187.2828"/>
<polygon fill="#191970" stroke="#191970" points="988.6377,-190.4904 996.6821,-183.5956 986.0939,-183.969 988.6377,-190.4904"/>
</g>
<!-- Node23 -->
<g id="node24" class="node">
<title>Node23</title>
<polygon fill="#ffffff" stroke="#bfbfbf" points="801.8843,-110.5 801.8843,-128.5 850.1157,-128.5 850.1157,-110.5 801.8843,-110.5"/>
<text text-anchor="middle" x="826" y="-116.5" font-family="Helvetica,sans-Serif" font-size="10.00" fill="#000000">cassert</text>
</g>
<!-- Node19&#45;&gt;Node23 -->
<g id="edge45" class="edge">
<title>Node19&#45;&gt;Node23</title>
<path fill="none" stroke="#191970" d="M874.6628,-220.4982C865.9666,-202.4496 846.2511,-161.5306 834.7615,-137.6843"/>
<polygon fill="#191970" stroke="#191970" points="837.8909,-136.1157 830.3971,-128.6261 831.5847,-139.1542 837.8909,-136.1157"/>
</g>
<!-- Node20&#45;&gt;Node2 -->
<g id="edge30" class="edge">
<title>Node20&#45;&gt;Node2</title>
<path fill="none" stroke="#191970" d="M1053.8687,-170.0882C1107.0017,-162.7284 1207.0786,-146.9684 1238,-129 1257.5023,-117.6672 1273.8223,-97.2761 1283.933,-82.4477"/>
<polygon fill="#191970" stroke="#191970" points="1287.132,-83.9487 1289.6516,-73.6578 1281.2644,-80.1314 1287.132,-83.9487"/>
</g>
<!-- Node20&#45;&gt;Node4 -->
<g id="edge38" class="edge">
<title>Node20&#45;&gt;Node4</title>
<path fill="none" stroke="#191970" d="M996.3793,-165.4396C972.8893,-156.3812 935.8567,-141.9706 904,-129 883.8931,-120.8134 879.5215,-117.0835 859,-110 737.4586,-68.0471 588.6759,-32.1857 522.962,-17.1091"/>
<polygon fill="#191970" stroke="#191970" points="523.6734,-13.6816 513.1454,-14.8702 522.1167,-20.5063 523.6734,-13.6816"/>
</g>
<!-- Node20&#45;&gt;Node5 -->
<g id="edge39" class="edge">
<title>Node20&#45;&gt;Node5</title>
<path fill="none" stroke="#191970" d="M986.0449,-173.1092C864.8286,-167.9916 457.7099,-149.4403 403,-129 342.3685,-106.3473 285.0794,-53.183 258.5018,-26.055"/>
<polygon fill="#191970" stroke="#191970" points="260.7241,-23.3165 251.2698,-18.5344 255.6785,-28.1685 260.7241,-23.3165"/>
</g>
<!-- Node20&#45;&gt;Node6 -->
<g id="edge43" class="edge">
<title>Node20&#45;&gt;Node6</title>
<path fill="none" stroke="#191970" d="M1054.1593,-174.1409C1186.5415,-172.4975 1661.2257,-164.1807 1718,-129 1750.3338,-108.9641 1736.8113,-84.3568 1761,-55 1770.1777,-43.8615 1782.2142,-33.1428 1792.3954,-24.9096"/>
<polygon fill="#191970" stroke="#191970" points="1794.7004,-27.5498 1800.4077,-18.6235 1790.3796,-22.0424 1794.7004,-27.5498"/>
</g>
<!-- Node20&#45;&gt;Node7 -->
<g id="edge44" class="edge">
<title>Node20&#45;&gt;Node7</title>
<path fill="none" stroke="#191970" d="M1001.3182,-165.4955C983.7931,-156.8181 957.0535,-142.9805 935,-129 881.4833,-95.074 822.6712,-48.9749 793.1528,-25.1675"/>
<polygon fill="#191970" stroke="#191970" points="795.273,-22.3807 785.3008,-18.8021 790.8648,-27.8183 795.273,-22.3807"/>
</g>
<!-- Node21 -->
<g id="node22" class="node">
<title>Node21</title>
<g id="a_node22"><a xlink:href="Ioss__Field_8h.html" target="_top" xlink:title="Ioss_Field.h">
<polygon fill="#ffffff" stroke="#000000" points="944.042,-110.5 944.042,-128.5 1013.958,-128.5 1013.958,-110.5 944.042,-110.5"/>
<text text-anchor="middle" x="979" y="-116.5" font-family="Helvetica,sans-Serif" font-size="10.00" fill="#000000">Ioss_Field.h</text>
</a>
</g>
</g>
<!-- Node20&#45;&gt;Node21 -->
<g id="edge31" class="edge">
<title>Node20&#45;&gt;Node21</title>
<path fill="none" stroke="#191970" d="M1013.2297,-165.4179C1007.4483,-157.6624 998.9707,-146.29 991.899,-136.8035"/>
<polygon fill="#191970" stroke="#191970" points="994.7002,-134.7051 985.9174,-128.7795 989.088,-138.8888 994.7002,-134.7051"/>
</g>
<!-- Node22 -->
<g id="node23" class="node">
<title>Node22</title>
<polygon fill="#ffffff" stroke="#bfbfbf" points="1032.436,-110.5 1032.436,-128.5 1089.564,-128.5 1089.564,-110.5 1032.436,-110.5"/>
<text text-anchor="middle" x="1061" y="-116.5" font-family="Helvetica,sans-Serif" font-size="10.00" fill="#000000">algorithm</text>
</g>
<!-- Node20&#45;&gt;Node22 -->
<g id="edge36" class="edge">
<title>Node20&#45;&gt;Node22</title>
<path fill="none" stroke="#191970" d="M1026.7703,-165.4179C1032.5517,-157.6624 1041.0293,-146.29 1048.101,-136.8035"/>
<polygon fill="#191970" stroke="#191970" points="1050.912,-138.8888 1054.0826,-128.7795 1045.2998,-134.7051 1050.912,-138.8888"/>
</g>
<!-- Node20&#45;&gt;Node23 -->
<g id="edge37" class="edge">
<title>Node20&#45;&gt;Node23</title>
<path fill="none" stroke="#191970" d="M987.9648,-165.4179C952.8004,-155.4486 896.555,-139.5027 860.4567,-129.2687"/>
<polygon fill="#191970" stroke="#191970" points="860.9708,-125.7765 850.3953,-126.4162 859.0614,-132.5111 860.9708,-125.7765"/>
</g>
<!-- Node24 -->
<g id="node25" class="node">
<title>Node24</title>
<polygon fill="#ffffff" stroke="#bfbfbf" points="1107.8276,-110.5 1107.8276,-128.5 1152.1724,-128.5 1152.1724,-110.5 1107.8276,-110.5"/>
<text text-anchor="middle" x="1130" y="-116.5" font-family="Helvetica,sans-Serif" font-size="10.00" fill="#000000">cstdlib</text>
</g>
<!-- Node20&#45;&gt;Node24 -->
<g id="edge40" class="edge">
<title>Node20&#45;&gt;Node24</title>
<path fill="none" stroke="#191970" d="M1038.1643,-165.4179C1055.759,-156.6205 1082.6618,-143.1691 1102.8088,-133.0956"/>
<polygon fill="#191970" stroke="#191970" points="1104.4297,-136.1983 1111.8088,-128.5956 1101.2992,-129.9373 1104.4297,-136.1983"/>
</g>
<!-- Node25 -->
<g id="node26" class="node">
<title>Node25</title>
<polygon fill="#ffffff" stroke="#bfbfbf" points="1360.8276,-110.5 1360.8276,-128.5 1415.1724,-128.5 1415.1724,-110.5 1360.8276,-110.5"/>
<text text-anchor="middle" x="1388" y="-116.5" font-family="Helvetica,sans-Serif" font-size="10.00" fill="#000000">iostream</text>
</g>
<!-- Node20&#45;&gt;Node25 -->
<g id="edge41" class="edge">
<title>Node20&#45;&gt;Node25</title>
<path fill="none" stroke="#191970" d="M1053.9609,-169.4243C1122.9849,-159.1082 1279.1701,-135.7653 1350.8163,-125.0573"/>
<polygon fill="#191970" stroke="#191970" points="1351.3804,-128.512 1360.7532,-123.5722 1350.3457,-121.5889 1351.3804,-128.512"/>
</g>
<!-- Node26 -->
<g id="node27" class="node">
<title>Node26</title>
<polygon fill="#ffffff" stroke="#bfbfbf" points="1170.5986,-110.5 1170.5986,-128.5 1229.4014,-128.5 1229.4014,-110.5 1170.5986,-110.5"/>
<text text-anchor="middle" x="1200" y="-116.5" font-family="Helvetica,sans-Serif" font-size="10.00" fill="#000000">stdexcept</text>
</g>
<!-- Node20&#45;&gt;Node26 -->
<g id="edge42" class="edge">
<title>Node20&#45;&gt;Node26</title>
<path fill="none" stroke="#191970" d="M1049.7233,-165.4179C1080.0383,-156.155 1127.2392,-141.7325 1160.6422,-131.526"/>
<polygon fill="#191970" stroke="#191970" points="1161.9909,-134.7737 1170.5317,-128.5042 1159.9454,-128.0792 1161.9909,-134.7737"/>
</g>
<!-- Node21&#45;&gt;Node2 -->
<g id="edge32" class="edge">
<title>Node21&#45;&gt;Node2</title>
<path fill="none" stroke="#191970" d="M1014.0342,-111.7808C1017.0631,-111.1605 1020.0833,-110.5585 1023,-110 1095.822,-96.0557 1180.0748,-82.3318 1235.2806,-73.6645"/>
<polygon fill="#191970" stroke="#191970" points="1235.9026,-77.1098 1245.2414,-72.106 1234.8205,-70.1939 1235.9026,-77.1098"/>
</g>
<!-- Node21&#45;&gt;Node4 -->
<g id="edge33" class="edge">
<title>Node21&#45;&gt;Node4</title>
<path fill="none" stroke="#191970" d="M943.7604,-111.5891C853.1011,-91.237 612.6489,-37.2579 523.1748,-17.1719"/>
<polygon fill="#191970" stroke="#191970" points="523.7995,-13.7251 513.2756,-14.9496 522.2661,-20.5551 523.7995,-13.7251"/>
</g>
<!-- Node21&#45;&gt;Node6 -->
<g id="edge34" class="edge">
<title>Node21&#45;&gt;Node6</title>
<path fill="none" stroke="#191970" d="M1013.9858,-111.4928C1017.0251,-110.9351 1020.0611,-110.4261 1023,-110 1233.4029,-79.4936 1290.1178,-107.9038 1500,-74 1534.3718,-68.4477 1542.0017,-62.5073 1576,-55 1649.8568,-38.6914 1737.4049,-22.7574 1782.6066,-14.7798"/>
<polygon fill="#191970" stroke="#191970" points="1783.389,-18.196 1792.6325,-13.0184 1782.1777,-11.3016 1783.389,-18.196"/>
</g>
<!-- Node21&#45;&gt;Node7 -->
<g id="edge35" class="edge">
<title>Node21&#45;&gt;Node7</title>
<path fill="none" stroke="#191970" d="M980.3242,-110.2229C981.7477,-96.3077 982.163,-70.0613 968,-55 946.1419,-31.7556 855.0565,-18.3852 805.8585,-12.7278"/>
<polygon fill="#191970" stroke="#191970" points="806.0742,-9.2304 795.7492,-11.6062 805.3022,-16.1877 806.0742,-9.2304"/>
</g>
<!-- Node27&#45;&gt;Node2 -->
<g id="edge50" class="edge">
<title>Node27&#45;&gt;Node2</title>
<path fill="none" stroke="#191970" d="M1589.2685,-110.4795C1524.563,-100.3692 1420.1631,-84.0567 1354.6752,-73.8243"/>
<polygon fill="#191970" stroke="#191970" points="1354.9314,-70.3219 1344.511,-72.2361 1353.8507,-77.238 1354.9314,-70.3219"/>
</g>
<!-- Node27&#45;&gt;Node4 -->
<g id="edge54" class="edge">
<title>Node27&#45;&gt;Node4</title>
<path fill="none" stroke="#191970" d="M1588.2089,-110.4916C1525.6744,-100.6164 1431.0352,-84.7493 1396,-74 1376.0254,-67.8715 1373.3226,-59.8515 1353,-55 1312.0692,-45.2288 680.5906,-17.6928 523.9531,-10.9864"/>
<polygon fill="#191970" stroke="#191970" points="523.6508,-7.4704 513.5104,-10.5401 523.3518,-14.464 523.6508,-7.4704"/>
</g>
<!-- Node27&#45;&gt;Node6 -->
<g id="edge55" class="edge">
<title>Node27&#45;&gt;Node6</title>
<path fill="none" stroke="#191970" d="M1656.2551,-110.3755C1670.0161,-97.115 1697.0453,-72.2247 1723,-55 1742.0785,-42.3387 1765.1524,-30.7391 1783.1602,-22.4208"/>
<polygon fill="#191970" stroke="#191970" points="1784.921,-25.4657 1792.5859,-18.1513 1782.0327,-19.0893 1784.921,-25.4657"/>
</g>
<!-- Node27&#45;&gt;Node7 -->
<g id="edge57" class="edge">
<title>Node27&#45;&gt;Node7</title>
<path fill="none" stroke="#191970" d="M1631.3374,-110.4114C1605.1494,-95.7335 1550.3755,-67.2229 1500,-55 1365.3803,-22.3365 928.3387,-12.2415 806.0549,-10.0217"/>
<polygon fill="#191970" stroke="#191970" points="805.9202,-6.5188 795.86,-9.8418 805.7967,-13.5177 805.9202,-6.5188"/>
</g>
<!-- Node28 -->
<g id="node29" class="node">
<title>Node28</title>
<g id="a_node29"><a xlink:href="Ioss__Property_8h.html" target="_top" xlink:title="Ioss_Property.h">
<polygon fill="#ffffff" stroke="#000000" points="1405.3516,-55.5 1405.3516,-73.5 1490.6484,-73.5 1490.6484,-55.5 1405.3516,-55.5"/>
<text text-anchor="middle" x="1448" y="-61.5" font-family="Helvetica,sans-Serif" font-size="10.00" fill="#000000">Ioss_Property.h</text>
</a>
</g>
</g>
<!-- Node27&#45;&gt;Node28 -->
<g id="edge51" class="edge">
<title>Node27&#45;&gt;Node28</title>
<path fill="none" stroke="#191970" d="M1614.1392,-110.4179C1580.3354,-101.0751 1527.54,-86.4834 1490.5606,-76.263"/>
<polygon fill="#191970" stroke="#191970" points="1491.1499,-72.7947 1480.5789,-73.5042 1489.2851,-79.5418 1491.1499,-72.7947"/>
</g>
<!-- Node29 -->
<g id="node30" class="node">
<title>Node29</title>
<polygon fill="#ffffff" stroke="#bfbfbf" points="1584.6973,-55.5 1584.6973,-73.5 1671.3027,-73.5 1671.3027,-55.5 1584.6973,-55.5"/>
<text text-anchor="middle" x="1628" y="-61.5" font-family="Helvetica,sans-Serif" font-size="10.00" fill="#000000">unordered_map</text>
</g>
<!-- Node27&#45;&gt;Node29 -->
<g id="edge56" class="edge">
<title>Node27&#45;&gt;Node29</title>
<path fill="none" stroke="#191970" d="M1643.8625,-110.4179C1641.3201,-103.0581 1637.6524,-92.441 1634.484,-83.2695"/>
<polygon fill="#191970" stroke="#191970" points="1637.7791,-82.0885 1631.2056,-73.7795 1631.1627,-84.3742 1637.7791,-82.0885"/>
</g>
<!-- Node28&#45;&gt;Node5 -->
<g id="edge52" class="edge">
<title>Node28&#45;&gt;Node5</title>
<path fill="none" stroke="#191970" d="M1405.0109,-59.6537C1388.7359,-57.963 1370.0309,-56.1922 1353,-55 954.9865,-27.1373 854.63,-35.8888 456,-19 392.2102,-16.2974 317.6848,-12.924 275.8489,-11.0106"/>
<polygon fill="#191970" stroke="#191970" points="275.8451,-7.5068 265.6954,-10.5455 275.5248,-14.4995 275.8451,-7.5068"/>
</g>
<!-- Node28&#45;&gt;Node6 -->
<g id="edge53" class="edge">
<title>Node28&#45;&gt;Node6</title>
<path fill="none" stroke="#191970" d="M1490.937,-57.2566C1495.6802,-56.4824 1500.4411,-55.7166 1505,-55 1606.3708,-39.0662 1726.7735,-21.7426 1782.2334,-13.853"/>
<polygon fill="#191970" stroke="#191970" points="1783.0262,-17.2756 1792.4346,-12.4041 1782.0418,-10.3452 1783.0262,-17.2756"/>
</g>
<!-- Node33&#45;&gt;Node2 -->
<g id="edge68" class="edge">
<title>Node33&#45;&gt;Node2</title>
<path fill="none" stroke="#191970" d="M1860.8121,-275.3034C1842.7515,-261.9531 1807.5083,-236.9521 1775,-220 1716.4567,-189.4715 1699.6159,-185.9418 1637,-165 1579.3305,-145.7125 1562.6921,-148.2198 1505,-129 1483.2323,-121.7482 1478.7401,-117.334 1457,-110 1418.3682,-96.9676 1373.7106,-84.622 1341.0788,-76.0876"/>
<polygon fill="#191970" stroke="#191970" points="1341.9164,-72.6891 1331.3578,-73.5649 1340.1579,-79.4647 1341.9164,-72.6891"/>
</g>
<!-- Node33&#45;&gt;Node6 -->
<g id="edge69" class="edge">
<title>Node33&#45;&gt;Node6</title>
<path fill="none" stroke="#191970" d="M1879.6258,-275.2649C1902.3894,-242.3112 1973.3423,-128.5527 1924,-55 1906.256,-28.5497 1870.0999,-17.4639 1843.862,-12.8249"/>
<polygon fill="#191970" stroke="#191970" points="1844.0725,-9.316 1833.6559,-11.2512 1843.0057,-16.2343 1844.0725,-9.316"/>
</g>
<!-- Node33&#45;&gt;Node7 -->
<g id="edge73" class="edge">
<title>Node33&#45;&gt;Node7</title>
<path fill="none" stroke="#191970" d="M1827.0134,-283.948C1629.3322,-281.3932 859.9308,-269.5167 819,-239 752.9824,-189.7793 763.3241,-74.5044 770.4711,-28.7292"/>
<polygon fill="#191970" stroke="#191970" points="773.9555,-29.1148 772.1709,-18.6714 767.0534,-27.9483 773.9555,-29.1148"/>
</g>
<!-- Node33&#45;&gt;Node12 -->
<g id="edge70" class="edge">
<title>Node33&#45;&gt;Node12</title>
<path fill="none" stroke="#191970" d="M1836.011,-275.4179C1797.554,-265.9753 1737.2602,-251.171 1695.5794,-240.9369"/>
<polygon fill="#191970" stroke="#191970" points="1696.2178,-237.4898 1685.6717,-238.5042 1694.5486,-244.2879 1696.2178,-237.4898"/>
</g>
<!-- Node33&#45;&gt;Node27 -->
<g id="edge71" class="edge">
<title>Node33&#45;&gt;Node27</title>
<path fill="none" stroke="#191970" d="M1865.9217,-275.4148C1855.3422,-262.2032 1834.3543,-237.3733 1813,-220 1768.0916,-183.4638 1708.6751,-150.6936 1674.4636,-133.0965"/>
<polygon fill="#191970" stroke="#191970" points="1676.0156,-129.9592 1665.5155,-128.5451 1672.8419,-136.1985 1676.0156,-129.9592"/>
</g>
<!-- Node33&#45;&gt;Node32 -->
<g id="edge72" class="edge">
<title>Node33&#45;&gt;Node32</title>
<path fill="none" stroke="#191970" d="M1876.0879,-275.4969C1884.5498,-249.8472 1907.2087,-174.1077 1903,-110 1902.4259,-101.2544 1901.2373,-91.6238 1900.0684,-83.4835"/>
<polygon fill="#191970" stroke="#191970" points="1903.5178,-82.8858 1898.5461,-73.5298 1896.5982,-83.9441 1903.5178,-82.8858"/>
</g>
<!-- Node34&#45;&gt;Node2 -->
<g id="edge81" class="edge">
<title>Node34&#45;&gt;Node2</title>
<path fill="none" stroke="#191970" d="M490.6729,-335.4917C450.2974,-315.4704 363.5736,-265.4503 399,-220 439.2908,-168.309 478.7778,-201.2702 542,-184 654.1921,-153.3529 678.7584,-131.7985 793,-110 876.2527,-94.1145 1120.9249,-76.2188 1235.0758,-68.4498"/>
<polygon fill="#191970" stroke="#191970" points="1235.6356,-71.92 1245.3762,-67.7522 1235.1625,-64.936 1235.6356,-71.92"/>
</g>
<!-- Node34&#45;&gt;Node4 -->
<g id="edge86" class="edge">
<title>Node34&#45;&gt;Node4</title>
<path fill="none" stroke="#191970" d="M459.4983,-335.4553C400.9393,-324.6511 308.2044,-306.475 275,-294 227.8815,-276.2975 215.8828,-269.7066 176,-239 144.4935,-214.7425 114,-214.2629 114,-174.5 114,-174.5 114,-174.5 114,-119.5 114,-48.8624 362.0947,-20.3607 454.6939,-12.1828"/>
<polygon fill="#191970" stroke="#191970" points="455.0196,-15.6678 464.6841,-11.3266 454.4218,-8.6934 455.0196,-15.6678"/>
</g>
<!-- Node34&#45;&gt;Node5 -->
<g id="edge87" class="edge">
<title>Node34&#45;&gt;Node5</title>
<path fill="none" stroke="#191970" d="M458.0074,-335.493C377.7664,-321.5545 232.3629,-296.1305 227,-294 185.5287,-277.5247 173.928,-271.1678 143,-239 101.1141,-195.4349 76.3751,-165.6256 100,-110 119.8963,-63.1533 175.1081,-34.5513 210.8171,-20.3967"/>
<polygon fill="#191970" stroke="#191970" points="212.2209,-23.6076 220.3261,-16.7844 209.7349,-17.0638 212.2209,-23.6076"/>
</g>
<!-- Node34&#45;&gt;Node6 -->
<g id="edge88" class="edge">
<title>Node34&#45;&gt;Node6</title>
<path fill="none" stroke="#191970" d="M585.7216,-343.0987C875.9783,-337.5651 1902.6773,-316.437 1928,-294 2007.6399,-223.4354 2012.4219,-134.7662 1942,-55 1928.7533,-39.9956 1877.0228,-25.0237 1843.2307,-16.5468"/>
<polygon fill="#191970" stroke="#191970" points="1843.9278,-13.1141 1833.3819,-14.1317 1842.2606,-19.9127 1843.9278,-13.1141"/>
</g>
<!-- Node34&#45;&gt;Node7 -->
<g id="edge89" class="edge">
<title>Node34&#45;&gt;Node7</title>
<path fill="none" stroke="#191970" d="M487.7186,-335.4501C444.8742,-316.653 357.7972,-270.8726 388,-220 408.6601,-185.2008 659.9963,-63.5952 745.6345,-22.8905"/>
<polygon fill="#191970" stroke="#191970" points="747.2401,-26.0028 754.7748,-18.5544 744.2397,-19.6783 747.2401,-26.0028"/>
</g>
<!-- Node34&#45;&gt;Node11 -->
<g id="edge80" class="edge">
<title>Node34&#45;&gt;Node11</title>
<path fill="none" stroke="#191970" d="M504.8211,-335.4761C493.9829,-316.5914 468.7313,-272.5924 454.4061,-247.6318"/>
<polygon fill="#191970" stroke="#191970" points="457.3515,-245.7323 449.3382,-238.8014 451.2803,-249.2167 457.3515,-245.7323"/>
</g>
<!-- Node34&#45;&gt;Node12 -->
<g id="edge82" class="edge">
<title>Node34&#45;&gt;Node12</title>
<path fill="none" stroke="#191970" d="M585.3532,-343.3057C828.764,-339.1582 1580.7088,-323.9679 1623,-294 1637.444,-283.7649 1643.8715,-264.0951 1646.7272,-249.1558"/>
<polygon fill="#191970" stroke="#191970" points="1650.2453,-249.3008 1648.2883,-238.8883 1643.3248,-248.2485 1650.2453,-249.3008"/>
</g>
<!-- Node34&#45;&gt;Node13 -->
<g id="edge83" class="edge">
<title>Node34&#45;&gt;Node13</title>
<path fill="none" stroke="#191970" d="M583.7733,-335.4849C680.827,-323.625 849.6184,-302.9988 939.8997,-291.9664"/>
<polygon fill="#191970" stroke="#191970" points="940.4779,-295.4219 949.9795,-290.7347 939.6287,-288.4736 940.4779,-295.4219"/>
</g>
<!-- Node34&#45;&gt;Node17 -->
<g id="edge85" class="edge">
<title>Node34&#45;&gt;Node17</title>
<path fill="none" stroke="#191970" d="M464.0092,-335.4564C401.1402,-322.8771 295.4703,-300.8683 290,-294 269.51,-268.2738 274.2541,-248.8746 290,-220 314.7075,-174.6919 369.5737,-146.7357 407.1828,-132.1559"/>
<polygon fill="#191970" stroke="#191970" points="408.6699,-135.3369 416.8179,-128.5649 406.2252,-128.7776 408.6699,-135.3369"/>
</g>
<!-- Node34&#45;&gt;Node33 -->
<g id="edge84" class="edge">
<title>Node34&#45;&gt;Node33</title>
<path fill="none" stroke="#191970" d="M585.4154,-341.2156C769.2919,-333.2022 1255.3608,-311.9873 1661,-294 1713.8742,-291.6554 1774.1647,-288.9507 1816.8984,-287.0283"/>
<polygon fill="#191970" stroke="#191970" points="1817.2643,-290.5155 1827.0968,-286.5694 1816.9495,-283.5225 1817.2643,-290.5155"/>
</g>
<!-- Node35&#45;&gt;Node2 -->
<g id="edge92" class="edge">
<title>Node35&#45;&gt;Node2</title>
<path fill="none" stroke="#191970" d="M1710.6644,-335.3931C1717.3133,-325.6958 1727.0858,-309.6228 1731,-294 1736.3321,-272.7179 1724.2768,-222.8712 1722,-220 1719.516,-216.8675 1592.7832,-166.2924 1589,-165 1531.4557,-145.342 1513.1425,-152.3622 1457,-129 1441.3749,-122.498 1439.378,-117.0666 1424,-110 1395.1392,-96.7377 1361.2243,-84.9139 1335.4138,-76.6454"/>
<polygon fill="#191970" stroke="#191970" points="1336.1843,-73.2184 1325.5945,-73.5455 1334.077,-79.8937 1336.1843,-73.2184"/>
</g>
<!-- Node35&#45;&gt;Node4 -->
<g id="edge96" class="edge">
<title>Node35&#45;&gt;Node4</title>
<path fill="none" stroke="#191970" d="M1629.9411,-343.4401C1493.1516,-340.632 1191.9255,-330.4718 941,-294 831.4197,-278.0726 793.6881,-294.7253 698,-239 603.1859,-183.7837 526.9875,-71.2305 499.7669,-27.4686"/>
<polygon fill="#191970" stroke="#191970" points="502.6507,-25.4758 494.4444,-18.7745 496.6806,-29.1307 502.6507,-25.4758"/>
</g>
<!-- Node35&#45;&gt;Node5 -->
<g id="edge97" class="edge">
<title>Node35&#45;&gt;Node5</title>
<path fill="none" stroke="#191970" d="M1629.9202,-343.0187C1387.2399,-337.9344 625.5319,-320.0583 518,-294 461.3743,-280.2779 444.7672,-275.0572 399,-239 350.0381,-200.4259 350.5292,-177.9973 312,-129 292.8203,-104.6093 284.508,-100.875 269,-74 260.6086,-59.4578 253.6617,-41.6819 249.0662,-28.4767"/>
<polygon fill="#191970" stroke="#191970" points="252.2656,-27.0074 245.7788,-18.6306 245.6259,-29.2243 252.2656,-27.0074"/>
</g>
<!-- Node35&#45;&gt;Node6 -->
<g id="edge99" class="edge">
<title>Node35&#45;&gt;Node6</title>
<path fill="none" stroke="#191970" d="M1764.914,-335.4585C1830.2638,-325.2741 1929.4541,-308.2795 1965,-294 2014.0756,-274.2853 2065,-282.3875 2065,-229.5 2065,-229.5 2065,-229.5 2065,-119.5 2065,-87.4992 2058.3372,-74.5468 2033,-55 2003.6759,-32.3774 1896.7823,-18.2792 1843.5493,-12.5081"/>
<polygon fill="#191970" stroke="#191970" points="1843.6657,-9.0011 1833.354,-11.4338 1842.9321,-15.9625 1843.6657,-9.0011"/>
</g>
<!-- Node35&#45;&gt;Node11 -->
<g id="edge91" class="edge">
<title>Node35&#45;&gt;Node11</title>
<path fill="none" stroke="#191970" d="M1629.8507,-343.0299C1394.1818,-338.1029 671.8019,-320.9523 570,-294 530.8192,-283.6268 489.825,-259.8478 465.6166,-244.2421"/>
<polygon fill="#191970" stroke="#191970" points="467.4774,-241.2769 457.1992,-238.7063 463.631,-247.1254 467.4774,-241.2769"/>
</g>
<!-- Node35&#45;&gt;Node12 -->
<g id="edge93" class="edge">
<title>Node35&#45;&gt;Node12</title>
<path fill="none" stroke="#191970" d="M1699.6842,-335.4761C1690.6923,-316.6749 1669.7954,-272.9813 1657.8307,-247.9642"/>
<polygon fill="#191970" stroke="#191970" points="1660.9206,-246.3126 1653.4485,-238.8014 1654.6056,-249.3328 1660.9206,-246.3126"/>
</g>
<!-- Node35&#45;&gt;Node13 -->
<g id="edge94" class="edge">
<title>Node35&#45;&gt;Node13</title>
<path fill="none" stroke="#191970" d="M1630.0954,-338.1924C1490.5726,-326.2843 1190.8415,-300.7027 1061.9591,-289.7028"/>
<polygon fill="#191970" stroke="#191970" points="1062.1321,-286.2049 1051.8707,-288.8417 1061.5368,-293.1795 1062.1321,-286.2049"/>
</g>
<!-- Node35&#45;&gt;Node25 -->
<g id="edge98" class="edge">
<title>Node35&#45;&gt;Node25</title>
<path fill="none" stroke="#191970" d="M1707.3305,-335.2548C1714.7247,-312.9504 1729.9012,-255.4171 1704,-220 1695.4876,-208.3601 1506.6743,-153.3623 1425.0481,-130.0183"/>
<polygon fill="#191970" stroke="#191970" points="1425.9914,-126.6478 1415.4147,-127.268 1424.0697,-133.3789 1425.9914,-126.6478"/>
</g>
<!-- Node35&#45;&gt;Node33 -->
<g id="edge95" class="edge">
<title>Node35&#45;&gt;Node33</title>
<path fill="none" stroke="#191970" d="M1729.6675,-335.3873C1758.6213,-325.1078 1805.8702,-308.3331 1838.1457,-296.8743"/>
<polygon fill="#191970" stroke="#191970" points="1839.392,-300.1459 1847.6447,-293.5019 1837.05,-293.5493 1839.392,-300.1459"/>
</g>
<!-- Node36&#45;&gt;Node6 -->
<g id="edge108" class="edge">
<title>Node36&#45;&gt;Node6</title>
<path fill="none" stroke="#191970" d="M2283.2631,-165.3318C2297.4964,-143.2698 2328.8817,-86.7059 2300,-55 2269.2061,-21.1949 1945.4498,-12.065 1843.5363,-10.0194"/>
<polygon fill="#191970" stroke="#191970" points="1843.3698,-6.5157 1833.3045,-9.8232 1843.2355,-13.5144 1843.3698,-6.5157"/>
</g>
<!-- Node37 -->
<g id="node38" class="node">
<title>Node37</title>
<g id="a_node38"><a xlink:href="Ioss__VariableType_8h.html" target="_top" xlink:title="Ioss_VariableType.h">
<polygon fill="#ffffff" stroke="#000000" points="2131.061,-110.5 2131.061,-128.5 2236.939,-128.5 2236.939,-110.5 2131.061,-110.5"/>
<text text-anchor="middle" x="2184" y="-116.5" font-family="Helvetica,sans-Serif" font-size="10.00" fill="#000000">Ioss_VariableType.h</text>
</a>
</g>
</g>
<!-- Node36&#45;&gt;Node37 -->
<g id="edge101" class="edge">
<title>Node36&#45;&gt;Node37</title>
<path fill="none" stroke="#191970" d="M2261.6429,-165.4179C2247.1039,-156.8195 2225.0475,-143.7754 2208.1537,-133.7844"/>
<polygon fill="#191970" stroke="#191970" points="2209.769,-130.6735 2199.3799,-128.5956 2206.2056,-136.6987 2209.769,-130.6735"/>
</g>
<!-- Node37&#45;&gt;Node2 -->
<g id="edge102" class="edge">
<title>Node37&#45;&gt;Node2</title>
<path fill="none" stroke="#191970" d="M2130.9218,-117.098C2003.8873,-111.2045 1672.3557,-94.9686 1396,-74 1382.6353,-72.9859 1368.2911,-71.7353 1354.7308,-70.4783"/>
<polygon fill="#191970" stroke="#191970" points="1354.8271,-66.972 1344.5431,-69.5196 1354.1712,-73.9412 1354.8271,-66.972"/>
</g>
<!-- Node37&#45;&gt;Node6 -->
<g id="edge106" class="edge">
<title>Node37&#45;&gt;Node6</title>
<path fill="none" stroke="#191970" d="M2177.4068,-110.1777C2166.6051,-95.7019 2143.6538,-68.122 2117,-55 2069.1673,-31.4514 1910.8069,-16.9442 1843.5942,-11.7103"/>
<polygon fill="#191970" stroke="#191970" points="1843.8576,-8.2204 1833.6205,-10.95 1843.3254,-15.2001 1843.8576,-8.2204"/>
</g>
<!-- Node37&#45;&gt;Node7 -->
<g id="edge107" class="edge">
<title>Node37&#45;&gt;Node7</title>
<path fill="none" stroke="#191970" d="M2155.5215,-110.4033C2108.0868,-95.7139 2009.6405,-67.1871 1924,-55 1810.7719,-38.887 980.2144,-15.2011 805.9987,-10.3766"/>
<polygon fill="#191970" stroke="#191970" points="806.0245,-6.876 795.9317,-10.0986 805.8312,-13.8734 806.0245,-6.876"/>
</g>
<!-- Node37&#45;&gt;Node32 -->
<g id="edge105" class="edge">
<title>Node37&#45;&gt;Node32</title>
<path fill="none" stroke="#191970" d="M2130.8997,-111.8015C2079.0697,-103.8704 1998.1396,-90.3769 1929,-74 1927.555,-73.6577 1926.0786,-73.2888 1924.5916,-72.9019"/>
<polygon fill="#191970" stroke="#191970" points="1925.4178,-69.4988 1914.845,-70.1823 1923.5364,-76.2413 1925.4178,-69.4988"/>
</g>
<!-- Node38 -->
<g id="node39" class="node">
<title>Node38</title>
<polygon fill="#ffffff" stroke="#bfbfbf" points="2169.2734,-55.5 2169.2734,-73.5 2214.7266,-73.5 2214.7266,-55.5 2169.2734,-55.5"/>
<text text-anchor="middle" x="2192" y="-61.5" font-family="Helvetica,sans-Serif" font-size="10.00" fill="#000000">cstring</text>
</g>
<!-- Node37&#45;&gt;Node38 -->
<g id="edge103" class="edge">
<title>Node37&#45;&gt;Node38</title>
<path fill="none" stroke="#191970" d="M2185.321,-110.4179C2186.3685,-103.2164 2187.8696,-92.8962 2189.1835,-83.8632"/>
<polygon fill="#191970" stroke="#191970" points="2192.6743,-84.1791 2190.6503,-73.7795 2185.7472,-83.1715 2192.6743,-84.1791"/>
</g>
<!-- Node39 -->
<g id="node40" class="node">
<title>Node39</title>
<polygon fill="#ffffff" stroke="#bfbfbf" points="2232.5962,-55.5 2232.5962,-73.5 2291.4038,-73.5 2291.4038,-55.5 2232.5962,-55.5"/>
<text text-anchor="middle" x="2262" y="-61.5" font-family="Helvetica,sans-Serif" font-size="10.00" fill="#000000">functional</text>
</g>
<!-- Node37&#45;&gt;Node39 -->
<g id="edge104" class="edge">
<title>Node37&#45;&gt;Node39</title>
<path fill="none" stroke="#191970" d="M2196.8801,-110.4179C2208.7354,-102.0584 2226.5502,-89.4966 2240.5516,-79.6239"/>
<polygon fill="#191970" stroke="#191970" points="2242.9451,-82.2188 2249.1008,-73.5956 2238.9112,-76.498 2242.9451,-82.2188"/>
</g>
<!-- Node42&#45;&gt;Node2 -->
<g id="edge113" class="edge">
<title>Node42&#45;&gt;Node2</title>
<path fill="none" stroke="#191970" d="M1897.21,-330.4522C1917.4775,-316.8183 1941.141,-295.271 1928,-275 1871.987,-188.5957 1594.5877,-136.1809 1495,-110 1445.6308,-97.0212 1388.8393,-84.3107 1348.4182,-75.6377"/>
<polygon fill="#191970" stroke="#191970" points="1349.0193,-72.1872 1338.5089,-73.5219 1347.5577,-79.0329 1349.0193,-72.1872"/>
</g>
<!-- Node42&#45;&gt;Node6 -->
<g id="edge116" class="edge">
<title>Node42&#45;&gt;Node6</title>
<path fill="none" stroke="#191970" d="M1919.2099,-338.2786C1972.4527,-330.2539 2055.6242,-314.814 2079,-294 2101.8437,-273.6598 2103,-260.0869 2103,-229.5 2103,-229.5 2103,-229.5 2103,-119.5 2103,-88.9131 2102.5511,-74.5167 2079,-55 2043.6077,-25.6706 1906.1978,-14.5711 1843.9517,-10.9866"/>
<polygon fill="#191970" stroke="#191970" points="1843.7672,-7.4714 1833.591,-10.4199 1843.3848,-14.4609 1843.7672,-7.4714"/>
</g>
<!-- Node42&#45;&gt;Node12 -->
<g id="edge114" class="edge">
<title>Node42&#45;&gt;Node12</title>
<path fill="none" stroke="#191970" d="M1845.5332,-330.3987C1802.1975,-308.1505 1718.4944,-265.1779 1675.6635,-243.1889"/>
<polygon fill="#191970" stroke="#191970" points="1677.1768,-240.0315 1666.6821,-238.5779 1673.9797,-246.2588 1677.1768,-240.0315"/>
</g>
<!-- Node42&#45;&gt;Node13 -->
<g id="edge112" class="edge">
<title>Node42&#45;&gt;Node13</title>
<path fill="none" stroke="#191970" d="M1827.1602,-335.818C1814.215,-333.6259 1800.0898,-331.4779 1787,-330 1518.2171,-299.6531 1195.3072,-289.0348 1062.562,-285.778"/>
<polygon fill="#191970" stroke="#191970" points="1062.2817,-282.2703 1052.2006,-285.5293 1062.1137,-289.2683 1062.2817,-282.2703"/>
</g>
<!-- Node42&#45;&gt;Node33 -->
<g id="edge115" class="edge">
<title>Node42&#45;&gt;Node33</title>
<path fill="none" stroke="#191970" d="M1873,-330.2808C1873,-322.3776 1873,-312.4316 1873,-303.8308"/>
<polygon fill="#191970" stroke="#191970" points="1876.5001,-303.5842 1873,-293.5842 1869.5001,-303.5842 1876.5001,-303.5842"/>
</g>
</g>
</svg>
        <g id="navigator" transform="translate(0 0)" fill="#404254">
                <rect fill="#f2f5e9" fill-opacity="0.5" stroke="#606060" stroke-width=".5" x="0" y="0" width="60" height="60"/>
                <use id="zoomplus" xlink:href="#zoomPlus" x="17" y="9" onmousedown="handleZoom(evt,'in')"/>
                <use id="zoomminus" xlink:href="#zoomMin" x="42" y="9" onmousedown="handleZoom(evt,'out')"/>
                <use id="reset" xlink:href="#resetDef" x="30" y="36" onmousedown="handleReset()"/>
                <g id="arrowUp" xlink:href="#dirArrow" transform="translate(30 24)" onmousedown="handlePan(0,-1)">
                  <use xlink:href="#rim" fill="#404040">
                        <set attributeName="fill" to="#808080" begin="arrowUp.mouseover" end="arrowUp.mouseout"/>
                  </use>
                  <path fill="none" stroke="white" stroke-width="1.5" d="M0,-3.0v7 M-2.5,-0.5L0,-3.0L2.5,-0.5"/>
                </g>
                <g id="arrowRight" xlink:href="#dirArrow" transform="rotate(90) translate(36 -43)" onmousedown="handlePan(1,0)">
                  <use xlink:href="#rim" fill="#404040">
                        <set attributeName="fill" to="#808080" begin="arrowRight.mouseover" end="arrowRight.mouseout"/>
                  </use>
                  <path fill="none" stroke="white" stroke-width="1.5" d="M0,-3.0v7 M-2.5,-0.5L0,-3.0L2.5,-0.5"/>
                </g>
                <g id="arrowDown" xlink:href="#dirArrow" transform="rotate(180) translate(-30 -48)" onmousedown="handlePan(0,1)">
                  <use xlink:href="#rim" fill="#404040">
                        <set attributeName="fill" to="#808080" begin="arrowDown.mouseover" end="arrowDown.mouseout"/>
                  </use>
                  <path fill="none" stroke="white" stroke-width="1.5" d="M0,-3.0v7 M-2.5,-0.5L0,-3.0L2.5,-0.5"/>
                </g>
                <g id="arrowLeft" xlink:href="#dirArrow" transform="rotate(270) translate(-36 17)" onmousedown="handlePan(-1,0)">
                  <use xlink:href="#rim" fill="#404040">
                        <set attributeName="fill" to="#808080" begin="arrowLeft.mouseover" end="arrowLeft.mouseout"/>
                  </use>
                  <path fill="none" stroke="white" stroke-width="1.5" d="M0,-3.0v7 M-2.5,-0.5L0,-3.0L2.5,-0.5"/>
                </g>
        </g>
        <svg viewBox="0 0 15 15" width="100%" height="30px" preserveAspectRatio="xMaxYMin meet">
         <g id="arrow_out" transform="scale(0.3 0.3)">
          <a xlink:href="Ionit__Initializer_8C__incl_org.svg" target="_base">
           <rect id="button" ry="5" rx="5" y="6" x="6" height="38" width="38"
                fill="#f2f5e9" fill-opacity="0.5" stroke="#606060" stroke-width="1.0"/>
           <path id="arrow"
             d="M 11.500037,31.436501 C 11.940474,20.09759 22.043105,11.32322 32.158766,21.979434 L 37.068811,17.246167 C 37.068811,17.246167 37.088388,32 37.088388,32 L 22.160133,31.978069 C 22.160133,31.978069 26.997745,27.140456 26.997745,27.140456 C 18.528582,18.264221 13.291696,25.230495 11.500037,31.436501 z"
             style="fill:#404040;"/>
          </a>
         </g>
        </svg>
</svg>
