<?xml version="1.0" encoding="UTF-8" standalone="no"?>
<!DOCTYPE svg PUBLIC "-//W3C//DTD SVG 1.1//EN"
 "http://www.w3.org/Graphics/SVG/1.1/DTD/svg11.dtd">
<!-- Generated by graphviz version 2.40.1 (20161225.0304)
 -->
<!-- Title: src/pamgen/Iopg_DatabaseIO.h Pages: 1 -->
<!--zoomable 357 -->
<svg id="main" version="1.1" xmlns="http://www.w3.org/2000/svg" xmlns:xlink="http://www.w3.org/1999/xlink" xml:space="preserve" onload="init(evt)">
<style type="text/css"><![CDATA[
.edge:hover path { stroke: red; }
.edge:hover polygon { stroke: red; fill: red; }
]]></style>
<script type="text/javascript"><![CDATA[
var edges = document.getElementsByTagName('g');
if (edges && edges.length) {
  for (var i=0;i<edges.length;i++) {
    if (edges[i].id.substr(0,4)=='edge') {
      edges[i].setAttribute('class','edge');
    }
  }
}
]]></script>
        <defs>
                <circle id="rim" cx="0" cy="0" r="7"/>
                <circle id="rim2" cx="0" cy="0" r="3.5"/>
                <g id="zoomPlus">
                        <use xlink:href="#rim" fill="#404040">
                                <set attributeName="fill" to="#808080" begin="zoomplus.mouseover" end="zoomplus.mouseout"/>
                        </use>
                        <path d="M-4,0h8M0,-4v8" fill="none" stroke="white" stroke-width="1.5" pointer-events="none"/>
                </g>
                <g id="zoomMin">
                        <use xlink:href="#rim" fill="#404040">
                                <set attributeName="fill" to="#808080" begin="zoomminus.mouseover" end="zoomminus.mouseout"/>
                        </use>
                        <path d="M-4,0h8" fill="none" stroke="white" stroke-width="1.5" pointer-events="none"/>
                </g>
                <g id="dirArrow">
                        <path fill="none" stroke="white" stroke-width="1.5" d="M0,-3.0v7 M-2.5,-0.5L0,-3.0L2.5,-0.5"/>
                </g>
               <g id="resetDef">
                       <use xlink:href="#rim2" fill="#404040">
                               <set attributeName="fill" to="#808080" begin="reset.mouseover" end="reset.mouseout"/>
                       </use>
               </g>
        </defs>

<script type="text/javascript">
var viewWidth = 1729;
var viewHeight = 357;
var sectionId = 'dynsection-0';
</script>
<script xlink:href="svgpan.js"/>
<svg id="graph" class="graph">
<g id="viewport">
<title>src/pamgen/Iopg_DatabaseIO.h</title>
<polygon fill="#ffffff" stroke="transparent" points="-4,4 -4,-353 1724.8983,-353 1724.8983,4 -4,4"/>
<!-- Node0 -->
<g id="node1" class="node">
<title>Node0</title>
<g id="a_node1"><a xlink:title=" ">
<polygon fill="#bfbfbf" stroke="#000000" points="438.1235,-330.5 438.1235,-348.5 595.8765,-348.5 595.8765,-330.5 438.1235,-330.5"/>
<text text-anchor="middle" x="517" y="-336.5" font-family="Helvetica,sans-Serif" font-size="10.00" fill="#000000">src/pamgen/Iopg_DatabaseIO.h</text>
</a>
</g>
</g>
<!-- Node1 -->
<g id="node2" class="node">
<title>Node1</title>
<g id="a_node2"><a xlink:href="Ioss__State_8h.html" target="_top" xlink:title=" ">
<polygon fill="#ffffff" stroke="#000000" points="142.2046,-220.5 142.2046,-238.5 213.7954,-238.5 213.7954,-220.5 142.2046,-220.5"/>
<text text-anchor="middle" x="178" y="-226.5" font-family="Helvetica,sans-Serif" font-size="10.00" fill="#000000">Ioss_State.h</text>
</a>
</g>
</g>
<!-- Node0&#45;&gt;Node1 -->
<g id="edge1" class="edge">
<title>Node0&#45;&gt;Node1</title>
<path fill="none" stroke="#191970" d="M489.2582,-330.4982C428.6693,-310.8381 284.4499,-264.0413 215.7017,-241.7336"/>
<polygon fill="#191970" stroke="#191970" points="216.7172,-238.3835 206.1251,-238.6261 214.5566,-245.0418 216.7172,-238.3835"/>
</g>
<!-- Node2 -->
<g id="node3" class="node">
<title>Node2</title>
<g id="a_node3"><a xlink:href="Ioss__CodeTypes_8h.html" target="_top" xlink:title=" ">
<polygon fill="#ffffff" stroke="#000000" points="1039.584,-55.5 1039.584,-73.5 1138.416,-73.5 1138.416,-55.5 1039.584,-55.5"/>
<text text-anchor="middle" x="1089" y="-61.5" font-family="Helvetica,sans-Serif" font-size="10.00" fill="#000000">Ioss_CodeTypes.h</text>
</a>
</g>
</g>
<!-- Node0&#45;&gt;Node2 -->
<g id="edge2" class="edge">
<title>Node0&#45;&gt;Node2</title>
<path fill="none" stroke="#191970" d="M596.0062,-334.0211C770.3889,-321.1081 1175.9117,-286.2595 1215,-239 1220.382,-232.4929 1218.5609,-227.6569 1215,-220 1188.5315,-163.0863 1140.9443,-181.7971 1107,-129 1098.1587,-115.2482 1093.5992,-97.1418 1091.2853,-83.6145"/>
<polygon fill="#191970" stroke="#191970" points="1094.7214,-82.9202 1089.8251,-73.5247 1087.7936,-83.9229 1094.7214,-82.9202"/>
</g>
<!-- Node6 -->
<g id="node7" class="node">
<title>Node6</title>
<g id="a_node7"><a xlink:title=" ">
<polygon fill="#ffffff" stroke="#bfbfbf" points="808.7734,-.5 808.7734,-18.5 849.2266,-18.5 849.2266,-.5 808.7734,-.5"/>
<text text-anchor="middle" x="829" y="-6.5" font-family="Helvetica,sans-Serif" font-size="10.00" fill="#000000">string</text>
</a>
</g>
</g>
<!-- Node0&#45;&gt;Node6 -->
<g id="edge74" class="edge">
<title>Node0&#45;&gt;Node6</title>
<path fill="none" stroke="#191970" d="M449.3508,-330.4862C327.957,-312.8988 89.6188,-271.2098 133,-220 195.9079,-145.7397 262.5493,-228.702 349,-184 420.7442,-146.9024 404.589,-90.7785 477,-55 533.3401,-27.1622 723.3569,-14.8 798.2702,-10.9248"/>
<polygon fill="#191970" stroke="#191970" points="798.6461,-14.4104 808.4582,-10.4138 798.2954,-7.4192 798.6461,-14.4104"/>
</g>
<!-- Node7 -->
<g id="node8" class="node">
<title>Node7</title>
<g id="a_node8"><a xlink:title=" ">
<polygon fill="#ffffff" stroke="#bfbfbf" points="346.3843,-.5 346.3843,-18.5 389.6157,-18.5 389.6157,-.5 346.3843,-.5"/>
<text text-anchor="middle" x="368" y="-6.5" font-family="Helvetica,sans-Serif" font-size="10.00" fill="#000000">vector</text>
</a>
</g>
</g>
<!-- Node0&#45;&gt;Node7 -->
<g id="edge75" class="edge">
<title>Node0&#45;&gt;Node7</title>
<path fill="none" stroke="#191970" d="M437.7482,-337.4215C327.3777,-333.5149 133.7506,-322.6978 70,-294 31.4238,-276.6346 0,-271.8046 0,-229.5 0,-229.5 0,-229.5 0,-119.5 0,-49.5757 246.9828,-20.3941 336.2736,-12.129"/>
<polygon fill="#191970" stroke="#191970" points="336.7071,-15.6043 346.3538,-11.2234 336.0807,-8.6324 336.7071,-15.6043"/>
</g>
<!-- Node10 -->
<g id="node11" class="node">
<title>Node10</title>
<g id="a_node11"><a xlink:href="Ioss__DBUsage_8h.html" target="_top" xlink:title=" ">
<polygon fill="#ffffff" stroke="#000000" points="80.4805,-110.5 80.4805,-128.5 171.5195,-128.5 171.5195,-110.5 80.4805,-110.5"/>
<text text-anchor="middle" x="126" y="-116.5" font-family="Helvetica,sans-Serif" font-size="10.00" fill="#000000">Ioss_DBUsage.h</text>
</a>
</g>
</g>
<!-- Node0&#45;&gt;Node10 -->
<g id="edge10" class="edge">
<title>Node0&#45;&gt;Node10</title>
<path fill="none" stroke="#191970" d="M438.0682,-336.8194C319.6167,-331.9734 107.2029,-319.7688 84,-294 43.4228,-248.9355 88.8101,-171.5441 112.912,-137.0176"/>
<polygon fill="#191970" stroke="#191970" points="115.7936,-139.0053 118.7869,-128.8421 110.109,-134.9204 115.7936,-139.0053"/>
</g>
<!-- Node11 -->
<g id="node12" class="node">
<title>Node11</title>
<g id="a_node12"><a xlink:href="Ioss__DatabaseIO_8h.html" target="_top" xlink:title=" ">
<polygon fill="#ffffff" stroke="#000000" points="523.1973,-275.5 523.1973,-293.5 624.8027,-293.5 624.8027,-275.5 523.1973,-275.5"/>
<text text-anchor="middle" x="574" y="-281.5" font-family="Helvetica,sans-Serif" font-size="10.00" fill="#000000">Ioss_DatabaseIO.h</text>
</a>
</g>
</g>
<!-- Node0&#45;&gt;Node11 -->
<g id="edge11" class="edge">
<title>Node0&#45;&gt;Node11</title>
<path fill="none" stroke="#191970" d="M526.4124,-330.4179C534.6959,-322.425 546.9609,-310.5903 556.9645,-300.9377"/>
<polygon fill="#191970" stroke="#191970" points="559.6172,-303.2419 564.3831,-293.7795 554.7566,-298.2045 559.6172,-303.2419"/>
</g>
<!-- Node15 -->
<g id="node16" class="node">
<title>Node15</title>
<g id="a_node16"><a xlink:href="Ioss__Map_8h.html" target="_top" xlink:title=" ">
<polygon fill="#ffffff" stroke="#000000" points="840.1528,-110.5 840.1528,-128.5 907.8472,-128.5 907.8472,-110.5 840.1528,-110.5"/>
<text text-anchor="middle" x="874" y="-116.5" font-family="Helvetica,sans-Serif" font-size="10.00" fill="#000000">Ioss_Map.h</text>
</a>
</g>
</g>
<!-- Node0&#45;&gt;Node15 -->
<g id="edge71" class="edge">
<title>Node0&#45;&gt;Node15</title>
<path fill="none" stroke="#191970" d="M596.3128,-334.7799C720.0326,-325.5773 950.0092,-300.4633 1000,-239 1034.8825,-196.1122 955.149,-153.3536 907.0968,-132.5429"/>
<polygon fill="#191970" stroke="#191970" points="908.2382,-129.2257 897.6643,-128.5613 905.516,-135.6747 908.2382,-129.2257"/>
</g>
<!-- Node31 -->
<g id="node32" class="node">
<title>Node31</title>
<g id="a_node32"><a xlink:href="Ioss__IOFactory_8h.html" target="_top" xlink:title=" ">
<polygon fill="#ffffff" stroke="#000000" points="248.2998,-165.5 248.2998,-183.5 339.7002,-183.5 339.7002,-165.5 248.2998,-165.5"/>
<text text-anchor="middle" x="294" y="-171.5" font-family="Helvetica,sans-Serif" font-size="10.00" fill="#000000">Ioss_IOFactory.h</text>
</a>
</g>
</g>
<!-- Node0&#45;&gt;Node31 -->
<g id="edge64" class="edge">
<title>Node0&#45;&gt;Node31</title>
<path fill="none" stroke="#191970" d="M437.6867,-336.4545C323.0021,-331.224 122.0928,-318.6346 100,-294 78.0415,-269.5152 79.571,-245.7747 100,-220 116.9725,-198.5863 186.8681,-186.2749 237.9101,-179.986"/>
<polygon fill="#191970" stroke="#191970" points="238.3277,-183.4611 247.8458,-178.8076 237.5032,-176.5098 238.3277,-183.4611"/>
</g>
<!-- Node32 -->
<g id="node33" class="node">
<title>Node32</title>
<g id="a_node33"><a xlink:title=" ">
<polygon fill="#ffffff" stroke="#bfbfbf" points="1338.2095,-275.5 1338.2095,-293.5 1389.7905,-293.5 1389.7905,-275.5 1338.2095,-275.5"/>
<text text-anchor="middle" x="1364" y="-281.5" font-family="Helvetica,sans-Serif" font-size="10.00" fill="#000000">stddef.h</text>
</a>
</g>
</g>
<!-- Node0&#45;&gt;Node32 -->
<g id="edge72" class="edge">
<title>Node0&#45;&gt;Node32</title>
<path fill="none" stroke="#191970" d="M596.0202,-336.8266C770.6954,-330.6267 1185.1409,-314.2416 1324,-294 1325.2713,-293.8147 1326.5616,-293.6084 1327.862,-293.3852"/>
<polygon fill="#191970" stroke="#191970" points="1328.7474,-296.7779 1337.878,-291.4037 1327.3889,-289.911 1328.7474,-296.7779"/>
</g>
<!-- Node33 -->
<g id="node34" class="node">
<title>Node33</title>
<g id="a_node34"><a xlink:title=" ">
<polygon fill="#ffffff" stroke="#bfbfbf" points="1407.8794,-275.5 1407.8794,-293.5 1456.1206,-293.5 1456.1206,-275.5 1407.8794,-275.5"/>
<text text-anchor="middle" x="1432" y="-281.5" font-family="Helvetica,sans-Serif" font-size="10.00" fill="#000000">stdint.h</text>
</a>
</g>
</g>
<!-- Node0&#45;&gt;Node33 -->
<g id="edge73" class="edge">
<title>Node0&#45;&gt;Node33</title>
<path fill="none" stroke="#191970" d="M596.0552,-337.7369C778.8259,-333.294 1227.3558,-320.195 1397.5573,-293.8203"/>
<polygon fill="#191970" stroke="#191970" points="1398.3237,-297.2418 1407.6351,-292.1872 1397.2039,-290.332 1398.3237,-297.2418"/>
</g>
<!-- Node3 -->
<g id="node4" class="node">
<title>Node3</title>
<g id="a_node4"><a xlink:title=" ">
<polygon fill="#ffffff" stroke="#bfbfbf" points="923.6084,-.5 923.6084,-18.5 962.3916,-18.5 962.3916,-.5 923.6084,-.5"/>
<text text-anchor="middle" x="943" y="-6.5" font-family="Helvetica,sans-Serif" font-size="10.00" fill="#000000">array</text>
</a>
</g>
</g>
<!-- Node2&#45;&gt;Node3 -->
<g id="edge3" class="edge">
<title>Node2&#45;&gt;Node3</title>
<path fill="none" stroke="#191970" d="M1064.8911,-55.4179C1039.3557,-45.7984 999.049,-30.6144 971.8457,-20.3665"/>
<polygon fill="#191970" stroke="#191970" points="973.0597,-17.0838 962.4679,-16.8338 970.592,-23.6344 973.0597,-17.0838"/>
</g>
<!-- Node4 -->
<g id="node5" class="node">
<title>Node4</title>
<g id="a_node5"><a xlink:title=" ">
<polygon fill="#ffffff" stroke="#bfbfbf" points="1656.8794,-.5 1656.8794,-18.5 1705.1206,-18.5 1705.1206,-.5 1656.8794,-.5"/>
<text text-anchor="middle" x="1681" y="-6.5" font-family="Helvetica,sans-Serif" font-size="10.00" fill="#000000">cstddef</text>
</a>
</g>
</g>
<!-- Node2&#45;&gt;Node4 -->
<g id="edge4" class="edge">
<title>Node2&#45;&gt;Node4</title>
<path fill="none" stroke="#191970" d="M1138.4553,-59.9053C1255.3571,-49.0445 1546.4142,-22.0037 1646.5294,-12.7025"/>
<polygon fill="#191970" stroke="#191970" points="1647.0617,-16.1682 1656.695,-11.7581 1646.4141,-9.1982 1647.0617,-16.1682"/>
</g>
<!-- Node5 -->
<g id="node6" class="node">
<title>Node5</title>
<g id="a_node6"><a xlink:title=" ">
<polygon fill="#ffffff" stroke="#bfbfbf" points="1184.5493,-.5 1184.5493,-18.5 1229.4507,-18.5 1229.4507,-.5 1184.5493,-.5"/>
<text text-anchor="middle" x="1207" y="-6.5" font-family="Helvetica,sans-Serif" font-size="10.00" fill="#000000">cstdint</text>
</a>
</g>
</g>
<!-- Node2&#45;&gt;Node5 -->
<g id="edge5" class="edge">
<title>Node2&#45;&gt;Node5</title>
<path fill="none" stroke="#191970" d="M1108.4853,-55.4179C1127.5305,-46.5409 1156.7422,-32.9253 1178.4162,-22.823"/>
<polygon fill="#191970" stroke="#191970" points="1179.9006,-25.9927 1187.4858,-18.5956 1176.9433,-19.648 1179.9006,-25.9927"/>
</g>
<!-- Node2&#45;&gt;Node6 -->
<g id="edge6" class="edge">
<title>Node2&#45;&gt;Node6</title>
<path fill="none" stroke="#191970" d="M1046.3574,-55.4795C993.6977,-44.3399 905.4444,-25.6709 859.2592,-15.901"/>
<polygon fill="#191970" stroke="#191970" points="859.7768,-12.4331 849.269,-13.7877 858.3281,-19.2816 859.7768,-12.4331"/>
</g>
<!-- Node2&#45;&gt;Node7 -->
<g id="edge7" class="edge">
<title>Node2&#45;&gt;Node7</title>
<path fill="none" stroke="#191970" d="M1039.4428,-60.7196C901.2102,-50.1748 514.0633,-20.6421 400.0054,-11.9415"/>
<polygon fill="#191970" stroke="#191970" points="400.0749,-8.4367 389.8376,-11.1658 399.5424,-15.4164 400.0749,-8.4367"/>
</g>
<!-- Node8 -->
<g id="node9" class="node">
<title>Node8</title>
<g id="a_node9"><a xlink:title=" ">
<polygon fill="#ffffff" stroke="#bfbfbf" points="980.2515,-.5 980.2515,-18.5 1095.7485,-18.5 1095.7485,-.5 980.2515,-.5"/>
<text text-anchor="middle" x="1038" y="-6.5" font-family="Helvetica,sans-Serif" font-size="10.00" fill="#000000">SEACASIoss_config.h</text>
</a>
</g>
</g>
<!-- Node2&#45;&gt;Node8 -->
<g id="edge8" class="edge">
<title>Node2&#45;&gt;Node8</title>
<path fill="none" stroke="#191970" d="M1080.5784,-55.4179C1073.2402,-47.5041 1062.4098,-35.8243 1053.5087,-26.2251"/>
<polygon fill="#191970" stroke="#191970" points="1055.9705,-23.7324 1046.6046,-18.7795 1050.8376,-28.492 1055.9705,-23.7324"/>
</g>
<!-- Node9 -->
<g id="node10" class="node">
<title>Node9</title>
<g id="a_node10"><a xlink:title=" ">
<polygon fill="#ffffff" stroke="#bfbfbf" points="1113.3818,-.5 1113.3818,-18.5 1166.6182,-18.5 1166.6182,-.5 1113.3818,-.5"/>
<text text-anchor="middle" x="1140" y="-6.5" font-family="Helvetica,sans-Serif" font-size="10.00" fill="#000000">complex</text>
</a>
</g>
</g>
<!-- Node2&#45;&gt;Node9 -->
<g id="edge9" class="edge">
<title>Node2&#45;&gt;Node9</title>
<path fill="none" stroke="#191970" d="M1097.4216,-55.4179C1104.7598,-47.5041 1115.5902,-35.8243 1124.4913,-26.2251"/>
<polygon fill="#191970" stroke="#191970" points="1127.1624,-28.492 1131.3954,-18.7795 1122.0295,-23.7324 1127.1624,-28.492"/>
</g>
<!-- Node11&#45;&gt;Node1 -->
<g id="edge55" class="edge">
<title>Node11&#45;&gt;Node1</title>
<path fill="none" stroke="#191970" d="M523.1541,-278.7333C455.5797,-270.8593 332.5353,-255.7902 228,-239 226.7241,-238.7951 225.4308,-238.5825 224.1263,-238.364"/>
<polygon fill="#191970" stroke="#191970" points="224.4603,-234.8694 214.007,-236.5953 223.255,-241.7648 224.4603,-234.8694"/>
</g>
<!-- Node11&#45;&gt;Node2 -->
<g id="edge13" class="edge">
<title>Node11&#45;&gt;Node2</title>
<path fill="none" stroke="#191970" d="M625.0217,-281.766C731.4216,-275.6765 969.6711,-259.8732 1000,-239 1007.1322,-234.0914 1059.2499,-126.5403 1080.2584,-82.777"/>
<polygon fill="#191970" stroke="#191970" points="1083.5065,-84.0979 1084.672,-73.5673 1077.194,-81.0726 1083.5065,-84.0979"/>
</g>
<!-- Node11&#45;&gt;Node4 -->
<g id="edge58" class="edge">
<title>Node11&#45;&gt;Node4</title>
<path fill="none" stroke="#191970" d="M624.8377,-283.5278C809.3675,-279.4048 1442.7013,-259.9098 1628,-184 1666.2505,-168.3302 1680.4706,-163.6564 1703,-129 1721.1598,-101.0653 1725.5084,-86.618 1715,-55 1711.4452,-44.3043 1704.2872,-34.0894 1697.452,-26.058"/>
<polygon fill="#191970" stroke="#191970" points="1699.933,-23.5843 1690.6105,-18.5503 1694.759,-28.2992 1699.933,-23.5843"/>
</g>
<!-- Node11&#45;&gt;Node5 -->
<g id="edge59" class="edge">
<title>Node11&#45;&gt;Node5</title>
<path fill="none" stroke="#191970" d="M625.0422,-283.1411C756.3748,-279.2831 1103.4772,-266.7013 1215,-239 1235.2774,-233.9633 1238.1592,-226.5488 1258,-220 1432.7797,-162.3111 1547.0392,-272.7357 1662,-129 1717.2869,-59.8747 1352.7521,-22.1359 1239.694,-12.1902"/>
<polygon fill="#191970" stroke="#191970" points="1239.8248,-8.6885 1229.5605,-11.3144 1239.2219,-15.6625 1239.8248,-8.6885"/>
</g>
<!-- Node11&#45;&gt;Node6 -->
<g id="edge61" class="edge">
<title>Node11&#45;&gt;Node6</title>
<path fill="none" stroke="#191970" d="M523.1302,-277.4831C479.377,-270.2822 421.1384,-257.5059 407,-239 365.1382,-184.2068 486.3855,-63.9392 501,-55 550.6802,-24.6122 727.1596,-13.8249 798.6234,-10.6467"/>
<polygon fill="#191970" stroke="#191970" points="798.9251,-14.1372 808.7675,-10.2158 798.6279,-7.1435 798.9251,-14.1372"/>
</g>
<!-- Node11&#45;&gt;Node7 -->
<g id="edge63" class="edge">
<title>Node11&#45;&gt;Node7</title>
<path fill="none" stroke="#191970" d="M523.0776,-279.6295C446.3563,-271.8801 304.9891,-255.8846 257,-239 251.3377,-237.0078 73.974,-134.214 71,-129 66.8161,-121.6649 66.078,-116.8617 71,-110 102.7633,-65.7192 266.5179,-29.2275 336.3691,-15.4277"/>
<polygon fill="#191970" stroke="#191970" points="337.2066,-18.8304 346.3535,-13.4839 335.8689,-11.9594 337.2066,-18.8304"/>
</g>
<!-- Node11&#45;&gt;Node10 -->
<g id="edge14" class="edge">
<title>Node11&#45;&gt;Node10</title>
<path fill="none" stroke="#191970" d="M523.1372,-278.8866C454.7372,-270.8697 337.0636,-255.2987 297,-239 234.4048,-213.5349 172.2173,-161.7109 143.094,-135.4778"/>
<polygon fill="#191970" stroke="#191970" points="145.2101,-132.6702 135.4674,-128.5072 140.4875,-137.8372 145.2101,-132.6702"/>
</g>
<!-- Node12 -->
<g id="node13" class="node">
<title>Node12</title>
<g id="a_node13"><a xlink:href="Ioss__BoundingBox_8h.html" target="_top" xlink:title=" ">
<polygon fill="#ffffff" stroke="#000000" points="460.1333,-220.5 460.1333,-238.5 567.8667,-238.5 567.8667,-220.5 460.1333,-220.5"/>
<text text-anchor="middle" x="514" y="-226.5" font-family="Helvetica,sans-Serif" font-size="10.00" fill="#000000">Ioss_BoundingBox.h</text>
</a>
</g>
</g>
<!-- Node11&#45;&gt;Node12 -->
<g id="edge12" class="edge">
<title>Node11&#45;&gt;Node12</title>
<path fill="none" stroke="#191970" d="M564.0922,-275.4179C555.2864,-267.3458 542.2061,-255.3556 531.62,-245.6517"/>
<polygon fill="#191970" stroke="#191970" points="533.8597,-242.9567 524.123,-238.7795 529.1296,-248.1168 533.8597,-242.9567"/>
</g>
<!-- Node13 -->
<g id="node14" class="node">
<title>Node13</title>
<g id="a_node14"><a xlink:href="Ioss__DataSize_8h.html" target="_top" xlink:title=" ">
<polygon fill="#ffffff" stroke="#000000" points="585.5913,-220.5 585.5913,-238.5 674.4087,-238.5 674.4087,-220.5 585.5913,-220.5"/>
<text text-anchor="middle" x="630" y="-226.5" font-family="Helvetica,sans-Serif" font-size="10.00" fill="#000000">Ioss_DataSize.h</text>
</a>
</g>
</g>
<!-- Node11&#45;&gt;Node13 -->
<g id="edge15" class="edge">
<title>Node11&#45;&gt;Node13</title>
<path fill="none" stroke="#191970" d="M583.2473,-275.4179C591.3855,-267.425 603.4353,-255.5903 613.2634,-245.9377"/>
<polygon fill="#191970" stroke="#191970" points="615.8698,-248.2836 620.5518,-238.7795 610.9648,-243.2895 615.8698,-248.2836"/>
</g>
<!-- Node14 -->
<g id="node15" class="node">
<title>Node14</title>
<g id="a_node15"><a xlink:href="Ioss__EntityType_8h.html" target="_top" xlink:title=" ">
<polygon fill="#ffffff" stroke="#000000" points="692.5322,-220.5 692.5322,-238.5 787.4678,-238.5 787.4678,-220.5 692.5322,-220.5"/>
<text text-anchor="middle" x="740" y="-226.5" font-family="Helvetica,sans-Serif" font-size="10.00" fill="#000000">Ioss_EntityType.h</text>
</a>
</g>
</g>
<!-- Node11&#45;&gt;Node14 -->
<g id="edge16" class="edge">
<title>Node11&#45;&gt;Node14</title>
<path fill="none" stroke="#191970" d="M601.4115,-275.4179C629.2481,-266.1949 672.5234,-251.8567 703.3043,-241.6582"/>
<polygon fill="#191970" stroke="#191970" points="704.4319,-244.9718 712.8237,-238.5042 702.2303,-238.327 704.4319,-244.9718"/>
</g>
<!-- Node11&#45;&gt;Node15 -->
<g id="edge17" class="edge">
<title>Node11&#45;&gt;Node15</title>
<path fill="none" stroke="#191970" d="M625.1699,-282.5226C729.223,-277.9745 957.6554,-265.0998 981,-239 1011.1662,-205.2734 948.9282,-205.6975 925,-184 909.5338,-169.9756 895.094,-150.9243 885.5556,-137.1668"/>
<polygon fill="#191970" stroke="#191970" points="888.2787,-134.9451 879.7828,-128.615 882.4769,-138.8616 888.2787,-134.9451"/>
</g>
<!-- Node16 -->
<g id="node17" class="node">
<title>Node16</title>
<g id="a_node17"><a xlink:title=" ">
<polygon fill="#ffffff" stroke="#bfbfbf" points="651.6084,-55.5 651.6084,-73.5 690.3916,-73.5 690.3916,-55.5 651.6084,-55.5"/>
<text text-anchor="middle" x="671" y="-61.5" font-family="Helvetica,sans-Serif" font-size="10.00" fill="#000000">utility</text>
</a>
</g>
</g>
<!-- Node11&#45;&gt;Node16 -->
<g id="edge62" class="edge">
<title>Node11&#45;&gt;Node16</title>
<path fill="none" stroke="#191970" d="M523.0208,-277.4607C481.475,-269.2587 432.477,-252.4607 451,-220 490.4019,-150.9501 541.8942,-177.3534 605,-129 623.9569,-114.4747 643.2145,-94.9965 655.9953,-81.258"/>
<polygon fill="#191970" stroke="#191970" points="658.8877,-83.2817 663.0557,-73.5411 653.7231,-78.5565 658.8877,-83.2817"/>
</g>
<!-- Node17 -->
<g id="node18" class="node">
<title>Node17</title>
<g id="a_node18"><a xlink:href="Ioss__ParallelUtils_8h.html" target="_top" xlink:title=" ">
<polygon fill="#ffffff" stroke="#000000" points="1104.4829,-220.5 1104.4829,-238.5 1205.5171,-238.5 1205.5171,-220.5 1104.4829,-220.5"/>
<text text-anchor="middle" x="1155" y="-226.5" font-family="Helvetica,sans-Serif" font-size="10.00" fill="#000000">Ioss_ParallelUtils.h</text>
</a>
</g>
</g>
<!-- Node11&#45;&gt;Node17 -->
<g id="edge24" class="edge">
<title>Node11&#45;&gt;Node17</title>
<path fill="none" stroke="#191970" d="M625.0507,-279.6673C732.0296,-269.5402 979.3027,-246.1323 1094.2352,-235.2523"/>
<polygon fill="#191970" stroke="#191970" points="1094.6468,-238.729 1104.2725,-234.3021 1093.9871,-231.7602 1094.6468,-238.729"/>
</g>
<!-- Node25 -->
<g id="node26" class="node">
<title>Node25</title>
<g id="a_node26"><a xlink:href="Ioss__PropertyManager_8h.html" target="_top" xlink:title=" ">
<polygon fill="#ffffff" stroke="#000000" points="471.5225,-110.5 471.5225,-128.5 596.4775,-128.5 596.4775,-110.5 471.5225,-110.5"/>
<text text-anchor="middle" x="534" y="-116.5" font-family="Helvetica,sans-Serif" font-size="10.00" fill="#000000">Ioss_PropertyManager.h</text>
</a>
</g>
</g>
<!-- Node11&#45;&gt;Node25 -->
<g id="edge46" class="edge">
<title>Node11&#45;&gt;Node25</title>
<path fill="none" stroke="#191970" d="M522.8444,-276.3399C482.4146,-268.7236 430.7376,-255.9835 418,-239 386.322,-196.7627 458.8534,-153.981 503.0488,-132.921"/>
<polygon fill="#191970" stroke="#191970" points="504.6686,-136.0279 512.2673,-128.6447 501.7229,-129.6778 504.6686,-136.0279"/>
</g>
<!-- Node28 -->
<g id="node29" class="node">
<title>Node28</title>
<g id="a_node29"><a xlink:href="Ioss__SurfaceSplit_8h.html" target="_top" xlink:title=" ">
<polygon fill="#ffffff" stroke="#000000" points="805.9214,-220.5 805.9214,-238.5 908.0786,-238.5 908.0786,-220.5 805.9214,-220.5"/>
<text text-anchor="middle" x="857" y="-226.5" font-family="Helvetica,sans-Serif" font-size="10.00" fill="#000000">Ioss_SurfaceSplit.h</text>
</a>
</g>
</g>
<!-- Node11&#45;&gt;Node28 -->
<g id="edge56" class="edge">
<title>Node11&#45;&gt;Node28</title>
<path fill="none" stroke="#191970" d="M620.4148,-275.4795C669.7653,-265.8884 747.8359,-250.7156 800.6728,-240.447"/>
<polygon fill="#191970" stroke="#191970" points="801.4113,-243.869 810.5599,-238.5255 800.0758,-236.9976 801.4113,-243.869"/>
</g>
<!-- Node29 -->
<g id="node30" class="node">
<title>Node29</title>
<g id="a_node30"><a xlink:title=" ">
<polygon fill="#ffffff" stroke="#bfbfbf" points="925.7119,-220.5 925.7119,-238.5 972.2881,-238.5 972.2881,-220.5 925.7119,-220.5"/>
<text text-anchor="middle" x="949" y="-226.5" font-family="Helvetica,sans-Serif" font-size="10.00" fill="#000000">chrono</text>
</a>
</g>
</g>
<!-- Node11&#45;&gt;Node29 -->
<g id="edge57" class="edge">
<title>Node11&#45;&gt;Node29</title>
<path fill="none" stroke="#191970" d="M624.9867,-280.253C690.3838,-274.2505 807.3765,-261.6425 915.8898,-238.961"/>
<polygon fill="#191970" stroke="#191970" points="916.6354,-242.3808 925.6901,-236.8797 915.1812,-235.5335 916.6354,-242.3808"/>
</g>
<!-- Node30 -->
<g id="node31" class="node">
<title>Node30</title>
<g id="a_node31"><a xlink:title=" ">
<polygon fill="#ffffff" stroke="#bfbfbf" points="228.2734,-110.5 228.2734,-128.5 263.7266,-128.5 263.7266,-110.5 228.2734,-110.5"/>
<text text-anchor="middle" x="246" y="-116.5" font-family="Helvetica,sans-Serif" font-size="10.00" fill="#000000">map</text>
</a>
</g>
</g>
<!-- Node11&#45;&gt;Node30 -->
<g id="edge60" class="edge">
<title>Node11&#45;&gt;Node30</title>
<path fill="none" stroke="#191970" d="M523.068,-278.9275C475.276,-272.6753 402.3207,-260.4777 342,-239 329.7778,-234.6482 245.6722,-195.1267 239,-184 230.7726,-170.2798 233.8292,-151.9298 238.1813,-138.3106"/>
<polygon fill="#191970" stroke="#191970" points="241.5926,-139.1749 241.7586,-128.5813 235.0226,-136.7592 241.5926,-139.1749"/>
</g>
<!-- Node15&#45;&gt;Node2 -->
<g id="edge18" class="edge">
<title>Node15&#45;&gt;Node2</title>
<path fill="none" stroke="#191970" d="M908.0674,-110.7851C944.7438,-101.4027 1003.2648,-86.4323 1043.7756,-76.069"/>
<polygon fill="#191970" stroke="#191970" points="1044.8421,-79.409 1053.6627,-73.5398 1043.1072,-72.6274 1044.8421,-79.409"/>
</g>
<!-- Node15&#45;&gt;Node4 -->
<g id="edge19" class="edge">
<title>Node15&#45;&gt;Node4</title>
<path fill="none" stroke="#191970" d="M907.9039,-114.8786C1039.4101,-96.9534 1514.999,-32.1271 1646.8805,-14.1507"/>
<polygon fill="#191970" stroke="#191970" points="1647.3895,-17.6138 1656.8252,-12.7952 1646.4441,-10.6779 1647.3895,-17.6138"/>
</g>
<!-- Node15&#45;&gt;Node5 -->
<g id="edge20" class="edge">
<title>Node15&#45;&gt;Node5</title>
<path fill="none" stroke="#191970" d="M893.4793,-110.4111C922.8181,-96.9723 980.3143,-71.6046 1031,-55 1091.1433,-35.2971 1110.2327,-36.5594 1174.5297,-19.2824"/>
<polygon fill="#191970" stroke="#191970" points="1175.6328,-22.6094 1184.3545,-16.5942 1173.7853,-15.8576 1175.6328,-22.6094"/>
</g>
<!-- Node15&#45;&gt;Node6 -->
<g id="edge21" class="edge">
<title>Node15&#45;&gt;Node6</title>
<path fill="none" stroke="#191970" d="M853.4884,-110.4437C839.2604,-102.9344 821.4121,-90.7692 813,-74 805.6621,-59.3724 811.3678,-41.1528 817.9155,-27.8125"/>
<polygon fill="#191970" stroke="#191970" points="821.1687,-29.1573 822.8845,-18.7024 815.0234,-25.8054 821.1687,-29.1573"/>
</g>
<!-- Node15&#45;&gt;Node7 -->
<g id="edge23" class="edge">
<title>Node15&#45;&gt;Node7</title>
<path fill="none" stroke="#191970" d="M845.4242,-110.4199C818.5168,-101.689 777.2002,-87.8153 742,-74 722.5507,-66.3666 719.1009,-60.7004 699,-55 592.0909,-24.6816 459.825,-14.2595 400.0248,-10.9341"/>
<polygon fill="#191970" stroke="#191970" points="399.8945,-7.4225 389.7245,-10.3925 399.5269,-14.4128 399.8945,-7.4225"/>
</g>
<!-- Node15&#45;&gt;Node16 -->
<g id="edge22" class="edge">
<title>Node15&#45;&gt;Node16</title>
<path fill="none" stroke="#191970" d="M840.0819,-110.6224C805.7323,-101.5848 751.1014,-87.0818 704,-74 702.7721,-73.659 701.5192,-73.3087 700.2541,-72.953"/>
<polygon fill="#191970" stroke="#191970" points="701.1025,-69.5556 690.5265,-70.1869 699.1879,-76.2887 701.1025,-69.5556"/>
</g>
<!-- Node17&#45;&gt;Node2 -->
<g id="edge25" class="edge">
<title>Node17&#45;&gt;Node2</title>
<path fill="none" stroke="#191970" d="M1134.1112,-220.3521C1119.0998,-212.7286 1099.5472,-200.4603 1088,-184 1068.777,-156.5979 1068.6929,-143.0489 1074,-110 1075.4488,-100.978 1078.4165,-91.3202 1081.3327,-83.2336"/>
<polygon fill="#191970" stroke="#191970" points="1084.6787,-84.2838 1085.0045,-73.6939 1078.1459,-81.7693 1084.6787,-84.2838"/>
</g>
<!-- Node17&#45;&gt;Node4 -->
<g id="edge43" class="edge">
<title>Node17&#45;&gt;Node4</title>
<path fill="none" stroke="#191970" d="M1205.6028,-222.8154C1330.5517,-205.897 1646.2026,-160.4903 1682,-129 1707.4141,-106.6437 1706.6511,-88.188 1700,-55 1698.1313,-45.6754 1694.3064,-35.8752 1690.575,-27.7682"/>
<polygon fill="#191970" stroke="#191970" points="1693.6052,-25.9986 1686.0529,-18.5681 1687.3231,-29.0865 1693.6052,-25.9986"/>
</g>
<!-- Node17&#45;&gt;Node6 -->
<g id="edge44" class="edge">
<title>Node17&#45;&gt;Node6</title>
<path fill="none" stroke="#191970" d="M1136.5142,-220.4832C1119.5088,-211.9029 1093.8452,-198.2231 1073,-184 998.6835,-133.2923 992.0536,-104.6102 917,-55 898.3566,-42.6768 875.9678,-31.1413 858.4386,-22.7688"/>
<polygon fill="#191970" stroke="#191970" points="859.7944,-19.5388 849.2548,-18.4578 856.8199,-25.8754 859.7944,-19.5388"/>
</g>
<!-- Node17&#45;&gt;Node7 -->
<g id="edge45" class="edge">
<title>Node17&#45;&gt;Node7</title>
<path fill="none" stroke="#191970" d="M1104.3718,-226.6546C1069.6565,-224.7235 1022.5431,-222.1418 981,-220 898.5681,-215.75 305.4394,-232.9785 239,-184 211.5772,-163.7842 203.0055,-140.081 219,-110 243.7712,-63.4126 300.8302,-34.5209 336.713,-20.2745"/>
<polygon fill="#191970" stroke="#191970" points="338.1338,-23.4785 346.2278,-16.6421 335.6371,-16.9389 338.1338,-23.4785"/>
</g>
<!-- Node18 -->
<g id="node19" class="node">
<title>Node18</title>
<g id="a_node19"><a xlink:href="Ioss__Utils_8h.html" target="_top" xlink:title=" ">
<polygon fill="#ffffff" stroke="#000000" points="1303.1577,-165.5 1303.1577,-183.5 1370.8423,-183.5 1370.8423,-165.5 1303.1577,-165.5"/>
<text text-anchor="middle" x="1337" y="-171.5" font-family="Helvetica,sans-Serif" font-size="10.00" fill="#000000">Ioss_Utils.h</text>
</a>
</g>
</g>
<!-- Node17&#45;&gt;Node18 -->
<g id="edge26" class="edge">
<title>Node17&#45;&gt;Node18</title>
<path fill="none" stroke="#191970" d="M1185.0536,-220.4179C1215.7054,-211.155 1263.4308,-196.7325 1297.2049,-186.526"/>
<polygon fill="#191970" stroke="#191970" points="1298.6443,-189.7474 1307.2042,-183.5042 1296.6193,-183.0467 1298.6443,-189.7474"/>
</g>
<!-- Node21 -->
<g id="node22" class="node">
<title>Node21</title>
<g id="a_node22"><a xlink:title=" ">
<polygon fill="#ffffff" stroke="#bfbfbf" points="1115.8843,-110.5 1115.8843,-128.5 1164.1157,-128.5 1164.1157,-110.5 1115.8843,-110.5"/>
<text text-anchor="middle" x="1140" y="-116.5" font-family="Helvetica,sans-Serif" font-size="10.00" fill="#000000">cassert</text>
</a>
</g>
</g>
<!-- Node17&#45;&gt;Node21 -->
<g id="edge42" class="edge">
<title>Node17&#45;&gt;Node21</title>
<path fill="none" stroke="#191970" d="M1153.7725,-220.4982C1151.3443,-202.6913 1145.8803,-162.6225 1142.6116,-138.6515"/>
<polygon fill="#191970" stroke="#191970" points="1146.0636,-138.0615 1141.2445,-128.6261 1139.1278,-139.0074 1146.0636,-138.0615"/>
</g>
<!-- Node18&#45;&gt;Node2 -->
<g id="edge27" class="edge">
<title>Node18&#45;&gt;Node2</title>
<path fill="none" stroke="#191970" d="M1308.5314,-165.4863C1282.6987,-157.0105 1243.7556,-143.488 1211,-129 1192.3162,-120.7361 1144.3825,-94.8576 1114.4623,-78.5012"/>
<polygon fill="#191970" stroke="#191970" points="1115.8927,-75.2941 1105.4408,-73.5596 1112.5298,-81.4334 1115.8927,-75.2941"/>
</g>
<!-- Node18&#45;&gt;Node4 -->
<g id="edge35" class="edge">
<title>Node18&#45;&gt;Node4</title>
<path fill="none" stroke="#191970" d="M1371.0845,-171.818C1450.0005,-165.3156 1640.2175,-147.8518 1662,-129 1690.3536,-104.4612 1688.4046,-56.0441 1684.626,-28.978"/>
<polygon fill="#191970" stroke="#191970" points="1688.0339,-28.1277 1682.9776,-18.8173 1681.1243,-29.2488 1688.0339,-28.1277"/>
</g>
<!-- Node18&#45;&gt;Node5 -->
<g id="edge36" class="edge">
<title>Node18&#45;&gt;Node5</title>
<path fill="none" stroke="#191970" d="M1339.733,-165.3101C1345.5634,-143.683 1356.7711,-88.8489 1332,-55 1320.7832,-39.6726 1272.3768,-25.2578 1239.2014,-16.9104"/>
<polygon fill="#191970" stroke="#191970" points="1239.9984,-13.5022 1229.4526,-14.5203 1238.3315,-20.3009 1239.9984,-13.5022"/>
</g>
<!-- Node18&#45;&gt;Node6 -->
<g id="edge40" class="edge">
<title>Node18&#45;&gt;Node6</title>
<path fill="none" stroke="#191970" d="M1333.6932,-165.4408C1328.315,-151.8103 1316.4852,-125.9307 1299,-110 1256.5263,-71.3023 1237.1603,-71.0894 1182,-55 1151.3355,-46.0557 939.9101,-21.8761 859.7351,-12.9079"/>
<polygon fill="#191970" stroke="#191970" points="859.652,-9.377 849.3256,-11.7466 858.8758,-16.3338 859.652,-9.377"/>
</g>
<!-- Node18&#45;&gt;Node7 -->
<g id="edge41" class="edge">
<title>Node18&#45;&gt;Node7</title>
<path fill="none" stroke="#191970" d="M1302.9912,-174.371C1151.0676,-173.5751 538.6454,-167.9567 463,-129 419.9597,-106.8346 389.9735,-55.4599 376.3254,-27.8445"/>
<polygon fill="#191970" stroke="#191970" points="379.3546,-26.0643 371.9014,-18.5343 373.0321,-29.0687 379.3546,-26.0643"/>
</g>
<!-- Node19 -->
<g id="node20" class="node">
<title>Node19</title>
<g id="a_node20"><a xlink:href="Ioss__Field_8h.html" target="_top" xlink:title=" ">
<polygon fill="#ffffff" stroke="#000000" points="1220.042,-110.5 1220.042,-128.5 1289.958,-128.5 1289.958,-110.5 1220.042,-110.5"/>
<text text-anchor="middle" x="1255" y="-116.5" font-family="Helvetica,sans-Serif" font-size="10.00" fill="#000000">Ioss_Field.h</text>
</a>
</g>
</g>
<!-- Node18&#45;&gt;Node19 -->
<g id="edge28" class="edge">
<title>Node18&#45;&gt;Node19</title>
<path fill="none" stroke="#191970" d="M1323.4594,-165.4179C1310.8774,-156.9788 1291.9104,-144.257 1277.1289,-134.3426"/>
<polygon fill="#191970" stroke="#191970" points="1278.8153,-131.2593 1268.5607,-128.5956 1274.916,-137.0727 1278.8153,-131.2593"/>
</g>
<!-- Node20 -->
<g id="node21" class="node">
<title>Node20</title>
<g id="a_node21"><a xlink:title=" ">
<polygon fill="#ffffff" stroke="#bfbfbf" points="1384.436,-110.5 1384.436,-128.5 1441.564,-128.5 1441.564,-110.5 1384.436,-110.5"/>
<text text-anchor="middle" x="1413" y="-116.5" font-family="Helvetica,sans-Serif" font-size="10.00" fill="#000000">algorithm</text>
</a>
</g>
</g>
<!-- Node18&#45;&gt;Node20 -->
<g id="edge33" class="edge">
<title>Node18&#45;&gt;Node20</title>
<path fill="none" stroke="#191970" d="M1349.5499,-165.4179C1361.1011,-157.0584 1378.4592,-144.4966 1392.1015,-134.6239"/>
<polygon fill="#191970" stroke="#191970" points="1394.3823,-137.2938 1400.4315,-128.5956 1390.2784,-131.6229 1394.3823,-137.2938"/>
</g>
<!-- Node18&#45;&gt;Node21 -->
<g id="edge34" class="edge">
<title>Node18&#45;&gt;Node21</title>
<path fill="none" stroke="#191970" d="M1304.4695,-165.4179C1268.4082,-155.35 1210.5146,-139.1868 1173.9083,-128.9668"/>
<polygon fill="#191970" stroke="#191970" points="1174.7567,-125.5699 1164.1838,-126.2518 1172.8743,-132.312 1174.7567,-125.5699"/>
</g>
<!-- Node22 -->
<g id="node23" class="node">
<title>Node22</title>
<g id="a_node23"><a xlink:title=" ">
<polygon fill="#ffffff" stroke="#bfbfbf" points="1459.8276,-110.5 1459.8276,-128.5 1504.1724,-128.5 1504.1724,-110.5 1459.8276,-110.5"/>
<text text-anchor="middle" x="1482" y="-116.5" font-family="Helvetica,sans-Serif" font-size="10.00" fill="#000000">cstdlib</text>
</a>
</g>
</g>
<!-- Node18&#45;&gt;Node22 -->
<g id="edge37" class="edge">
<title>Node18&#45;&gt;Node22</title>
<path fill="none" stroke="#191970" d="M1360.9438,-165.4179C1385.3013,-156.1788 1423.1915,-141.8067 1450.0871,-131.6049"/>
<polygon fill="#191970" stroke="#191970" points="1451.3445,-134.8713 1459.4532,-128.0522 1448.8619,-128.3264 1451.3445,-134.8713"/>
</g>
<!-- Node23 -->
<g id="node24" class="node">
<title>Node23</title>
<g id="a_node24"><a xlink:title=" ">
<polygon fill="#ffffff" stroke="#bfbfbf" points="1521.8276,-110.5 1521.8276,-128.5 1576.1724,-128.5 1576.1724,-110.5 1521.8276,-110.5"/>
<text text-anchor="middle" x="1549" y="-116.5" font-family="Helvetica,sans-Serif" font-size="10.00" fill="#000000">iostream</text>
</a>
</g>
</g>
<!-- Node18&#45;&gt;Node23 -->
<g id="edge38" class="edge">
<title>Node18&#45;&gt;Node23</title>
<path fill="none" stroke="#191970" d="M1371.0822,-165.743C1404.5378,-157.1351 1457.2818,-143.5327 1511.6748,-129.338"/>
<polygon fill="#191970" stroke="#191970" points="1512.6952,-132.689 1521.4864,-126.7757 1510.9265,-125.9161 1512.6952,-132.689"/>
</g>
<!-- Node24 -->
<g id="node25" class="node">
<title>Node24</title>
<g id="a_node25"><a xlink:title=" ">
<polygon fill="#ffffff" stroke="#bfbfbf" points="1594.5986,-110.5 1594.5986,-128.5 1653.4014,-128.5 1653.4014,-110.5 1594.5986,-110.5"/>
<text text-anchor="middle" x="1624" y="-116.5" font-family="Helvetica,sans-Serif" font-size="10.00" fill="#000000">stdexcept</text>
</a>
</g>
</g>
<!-- Node18&#45;&gt;Node24 -->
<g id="edge39" class="edge">
<title>Node18&#45;&gt;Node24</title>
<path fill="none" stroke="#191970" d="M1371.2206,-168.862C1417.2989,-161.1307 1502.0562,-146.4194 1584.2249,-129.0672"/>
<polygon fill="#191970" stroke="#191970" points="1585.1773,-132.443 1594.2299,-126.9383 1583.7204,-125.5963 1585.1773,-132.443"/>
</g>
<!-- Node19&#45;&gt;Node2 -->
<g id="edge29" class="edge">
<title>Node19&#45;&gt;Node2</title>
<path fill="none" stroke="#191970" d="M1227.5885,-110.4179C1199.7519,-101.1949 1156.4766,-86.8567 1125.6957,-76.6582"/>
<polygon fill="#191970" stroke="#191970" points="1126.7697,-73.327 1116.1763,-73.5042 1124.5681,-79.9718 1126.7697,-73.327"/>
</g>
<!-- Node19&#45;&gt;Node4 -->
<g id="edge30" class="edge">
<title>Node19&#45;&gt;Node4</title>
<path fill="none" stroke="#191970" d="M1290.2372,-116.5171C1385.6059,-108.3108 1642.597,-85.2625 1657,-74 1670.8005,-63.2087 1676.6655,-43.6198 1679.158,-28.8512"/>
<polygon fill="#191970" stroke="#191970" points="1682.6563,-29.092 1680.4823,-18.7226 1675.7153,-28.1845 1682.6563,-29.092"/>
</g>
<!-- Node19&#45;&gt;Node6 -->
<g id="edge31" class="edge">
<title>Node19&#45;&gt;Node6</title>
<path fill="none" stroke="#191970" d="M1243.4748,-110.4794C1224.5272,-96.1629 1185.0866,-68.4832 1147,-55 1120.1917,-45.5095 934.2313,-22.2581 859.747,-13.1986"/>
<polygon fill="#191970" stroke="#191970" points="859.9471,-9.6973 849.5986,-11.9682 859.1046,-16.6464 859.9471,-9.6973"/>
</g>
<!-- Node19&#45;&gt;Node7 -->
<g id="edge32" class="edge">
<title>Node19&#45;&gt;Node7</title>
<path fill="none" stroke="#191970" d="M1219.8986,-115.311C1205.3872,-113.611 1188.3885,-111.6607 1173,-110 1013.1303,-92.7468 971.499,-101.0936 813,-74 777.8298,-67.988 770.0966,-61.4279 735,-55 612.0201,-32.4762 463.7779,-17.8913 399.867,-12.2005"/>
<polygon fill="#191970" stroke="#191970" points="399.9109,-8.6909 389.643,-11.3023 399.2983,-15.6641 399.9109,-8.6909"/>
</g>
<!-- Node25&#45;&gt;Node2 -->
<g id="edge47" class="edge">
<title>Node25&#45;&gt;Node2</title>
<path fill="none" stroke="#191970" d="M596.6434,-114.866C690.2452,-107.6796 872.0831,-92.7063 1026,-74 1027.098,-73.8666 1028.2064,-73.729 1029.3227,-73.588"/>
<polygon fill="#191970" stroke="#191970" points="1030.0609,-77.0208 1039.5141,-72.2366 1029.1408,-70.0815 1030.0609,-77.0208"/>
</g>
<!-- Node25&#45;&gt;Node4 -->
<g id="edge51" class="edge">
<title>Node25&#45;&gt;Node4</title>
<path fill="none" stroke="#191970" d="M596.8107,-112.9522C672.7779,-104.822 804.4735,-90.0522 917,-74 967.8508,-66.746 979.9887,-61.0225 1031,-55 1265.4345,-27.3223 1549.573,-14.5343 1646.6106,-10.7522"/>
<polygon fill="#191970" stroke="#191970" points="1646.8638,-14.2452 1656.7224,-10.3645 1646.5956,-7.2503 1646.8638,-14.2452"/>
</g>
<!-- Node25&#45;&gt;Node6 -->
<g id="edge52" class="edge">
<title>Node25&#45;&gt;Node6</title>
<path fill="none" stroke="#191970" d="M548.142,-110.4216C572.9843,-94.5956 623.6567,-62.8861 643,-55 695.5338,-33.5824 760.6823,-20.5002 798.2822,-14.158"/>
<polygon fill="#191970" stroke="#191970" points="799.2688,-17.5432 808.5729,-12.4753 798.1392,-10.6349 799.2688,-17.5432"/>
</g>
<!-- Node25&#45;&gt;Node7 -->
<g id="edge54" class="edge">
<title>Node25&#45;&gt;Node7</title>
<path fill="none" stroke="#191970" d="M520.4155,-110.4982C491.841,-91.5633 425.2799,-47.4566 390.3337,-24.2994"/>
<polygon fill="#191970" stroke="#191970" points="392.0415,-21.2324 381.7722,-18.6261 388.1748,-27.0676 392.0415,-21.2324"/>
</g>
<!-- Node26 -->
<g id="node27" class="node">
<title>Node26</title>
<g id="a_node27"><a xlink:href="Ioss__Property_8h.html" target="_top" xlink:title=" ">
<polygon fill="#ffffff" stroke="#000000" points="822.3516,-55.5 822.3516,-73.5 907.6484,-73.5 907.6484,-55.5 822.3516,-55.5"/>
<text text-anchor="middle" x="865" y="-61.5" font-family="Helvetica,sans-Serif" font-size="10.00" fill="#000000">Ioss_Property.h</text>
</a>
</g>
</g>
<!-- Node25&#45;&gt;Node26 -->
<g id="edge48" class="edge">
<title>Node25&#45;&gt;Node26</title>
<path fill="none" stroke="#191970" d="M588.2873,-110.4795C650.1825,-100.1948 750.7031,-83.4919 812.0397,-73.3"/>
<polygon fill="#191970" stroke="#191970" points="812.9854,-76.691 822.2764,-71.5991 811.838,-69.7857 812.9854,-76.691"/>
</g>
<!-- Node27 -->
<g id="node28" class="node">
<title>Node27</title>
<g id="a_node28"><a xlink:title=" ">
<polygon fill="#ffffff" stroke="#bfbfbf" points="509.6973,-55.5 509.6973,-73.5 596.3027,-73.5 596.3027,-55.5 509.6973,-55.5"/>
<text text-anchor="middle" x="553" y="-61.5" font-family="Helvetica,sans-Serif" font-size="10.00" fill="#000000">unordered_map</text>
</a>
</g>
</g>
<!-- Node25&#45;&gt;Node27 -->
<g id="edge53" class="edge">
<title>Node25&#45;&gt;Node27</title>
<path fill="none" stroke="#191970" d="M537.1375,-110.4179C539.6799,-103.0581 543.3476,-92.441 546.516,-83.2695"/>
<polygon fill="#191970" stroke="#191970" points="549.8373,-84.3742 549.7944,-73.7795 543.2209,-82.0885 549.8373,-84.3742"/>
</g>
<!-- Node26&#45;&gt;Node5 -->
<g id="edge49" class="edge">
<title>Node26&#45;&gt;Node5</title>
<path fill="none" stroke="#191970" d="M907.8838,-60.3135C966.2727,-54.157 1074.1332,-41.1647 1174.4277,-19.0898"/>
<polygon fill="#191970" stroke="#191970" points="1175.4252,-22.4532 1184.4197,-16.8542 1173.8968,-15.6221 1175.4252,-22.4532"/>
</g>
<!-- Node26&#45;&gt;Node6 -->
<g id="edge50" class="edge">
<title>Node26&#45;&gt;Node6</title>
<path fill="none" stroke="#191970" d="M859.0553,-55.4179C854.0826,-47.8207 846.8381,-36.7527 840.7076,-27.3866"/>
<polygon fill="#191970" stroke="#191970" points="843.4789,-25.2297 835.0738,-18.7795 837.622,-29.0633 843.4789,-25.2297"/>
</g>
<!-- Node31&#45;&gt;Node2 -->
<g id="edge65" class="edge">
<title>Node31&#45;&gt;Node2</title>
<path fill="none" stroke="#191970" d="M339.8743,-172.8486C464.4094,-168.0952 806.8312,-153.1548 917,-129 969.5947,-117.4685 1027.6276,-93.0929 1061.0496,-77.8304"/>
<polygon fill="#191970" stroke="#191970" points="1062.5923,-80.9732 1070.1988,-73.5982 1059.6533,-74.62 1062.5923,-80.9732"/>
</g>
<!-- Node31&#45;&gt;Node6 -->
<g id="edge66" class="edge">
<title>Node31&#45;&gt;Node6</title>
<path fill="none" stroke="#191970" d="M298.3522,-165.2657C309.8606,-142.0175 343.5686,-81.0719 392,-55 427.6547,-35.8061 704.8208,-17.1491 798.318,-11.3438"/>
<polygon fill="#191970" stroke="#191970" points="798.7673,-14.8229 808.5335,-10.7155 798.3375,-7.8361 798.7673,-14.8229"/>
</g>
<!-- Node31&#45;&gt;Node7 -->
<g id="edge70" class="edge">
<title>Node31&#45;&gt;Node7</title>
<path fill="none" stroke="#191970" d="M293.7079,-165.4266C293.4321,-144.5062 295.0416,-91.8594 316,-55 322.8558,-42.9427 334.1265,-32.4951 344.4254,-24.6628"/>
<polygon fill="#191970" stroke="#191970" points="346.6338,-27.3864 352.7297,-18.7209 342.5604,-21.6936 346.6338,-27.3864"/>
</g>
<!-- Node31&#45;&gt;Node10 -->
<g id="edge67" class="edge">
<title>Node31&#45;&gt;Node10</title>
<path fill="none" stroke="#191970" d="M266.2582,-165.4179C238.0862,-156.1949 194.2895,-141.8567 163.1378,-131.6582"/>
<polygon fill="#191970" stroke="#191970" points="164.0964,-128.2893 153.5038,-128.5042 161.9185,-134.9419 164.0964,-128.2893"/>
</g>
<!-- Node31&#45;&gt;Node25 -->
<g id="edge68" class="edge">
<title>Node31&#45;&gt;Node25</title>
<path fill="none" stroke="#191970" d="M333.3624,-165.4795C374.7793,-155.9881 440.0488,-141.0305 484.8271,-130.7688"/>
<polygon fill="#191970" stroke="#191970" points="485.6506,-134.1709 494.6161,-128.5255 484.087,-127.3477 485.6506,-134.1709"/>
</g>
<!-- Node31&#45;&gt;Node30 -->
<g id="edge69" class="edge">
<title>Node31&#45;&gt;Node30</title>
<path fill="none" stroke="#191970" d="M286.0738,-165.4179C279.2363,-157.5833 269.1775,-146.0575 260.8483,-136.5137"/>
<polygon fill="#191970" stroke="#191970" points="263.3108,-134.0123 254.0984,-128.7795 258.0368,-138.6151 263.3108,-134.0123"/>
</g>
</g>
</svg>
        <g id="navigator" transform="translate(0 0)" fill="#404254">
                <rect fill="#f2f5e9" fill-opacity="0.5" stroke="#606060" stroke-width=".5" x="0" y="0" width="60" height="60"/>
                <use id="zoomplus" xlink:href="#zoomPlus" x="17" y="9" onmousedown="handleZoom(evt,'in')"/>
                <use id="zoomminus" xlink:href="#zoomMin" x="42" y="9" onmousedown="handleZoom(evt,'out')"/>
                <use id="reset" xlink:href="#resetDef" x="30" y="36" onmousedown="handleReset()"/>
                <g id="arrowUp" xlink:href="#dirArrow" transform="translate(30 24)" onmousedown="handlePan(0,-1)">
                  <use xlink:href="#rim" fill="#404040">
                        <set attributeName="fill" to="#808080" begin="arrowUp.mouseover" end="arrowUp.mouseout"/>
                  </use>
                  <path fill="none" stroke="white" stroke-width="1.5" d="M0,-3.0v7 M-2.5,-0.5L0,-3.0L2.5,-0.5"/>
                </g>
                <g id="arrowRight" xlink:href="#dirArrow" transform="rotate(90) translate(36 -43)" onmousedown="handlePan(1,0)">
                  <use xlink:href="#rim" fill="#404040">
                        <set attributeName="fill" to="#808080" begin="arrowRight.mouseover" end="arrowRight.mouseout"/>
                  </use>
                  <path fill="none" stroke="white" stroke-width="1.5" d="M0,-3.0v7 M-2.5,-0.5L0,-3.0L2.5,-0.5"/>
                </g>
                <g id="arrowDown" xlink:href="#dirArrow" transform="rotate(180) translate(-30 -48)" onmousedown="handlePan(0,1)">
                  <use xlink:href="#rim" fill="#404040">
                        <set attributeName="fill" to="#808080" begin="arrowDown.mouseover" end="arrowDown.mouseout"/>
                  </use>
                  <path fill="none" stroke="white" stroke-width="1.5" d="M0,-3.0v7 M-2.5,-0.5L0,-3.0L2.5,-0.5"/>
                </g>
                <g id="arrowLeft" xlink:href="#dirArrow" transform="rotate(270) translate(-36 17)" onmousedown="handlePan(-1,0)">
                  <use xlink:href="#rim" fill="#404040">
                        <set attributeName="fill" to="#808080" begin="arrowLeft.mouseover" end="arrowLeft.mouseout"/>
                  </use>
                  <path fill="none" stroke="white" stroke-width="1.5" d="M0,-3.0v7 M-2.5,-0.5L0,-3.0L2.5,-0.5"/>
                </g>
        </g>
        <svg viewBox="0 0 15 15" width="100%" height="30px" preserveAspectRatio="xMaxYMin meet">
         <g id="arrow_out" transform="scale(0.3 0.3)">
          <a xlink:href="Iopg__DatabaseIO_8h__incl_org.svg" target="_base">
           <rect id="button" ry="5" rx="5" y="6" x="6" height="38" width="38"
                fill="#f2f5e9" fill-opacity="0.5" stroke="#606060" stroke-width="1.0"/>
           <path id="arrow"
             d="M 11.500037,31.436501 C 11.940474,20.09759 22.043105,11.32322 32.158766,21.979434 L 37.068811,17.246167 C 37.068811,17.246167 37.088388,32 37.088388,32 L 22.160133,31.978069 C 22.160133,31.978069 26.997745,27.140456 26.997745,27.140456 C 18.528582,18.264221 13.291696,25.230495 11.500037,31.436501 z"
             style="fill:#404040;"/>
          </a>
         </g>
        </svg>
</svg>
