<?xml version="1.0" encoding="UTF-8" standalone="no"?>
<!DOCTYPE svg PUBLIC "-//W3C//DTD SVG 1.1//EN"
 "http://www.w3.org/Graphics/SVG/1.1/DTD/svg11.dtd">
<!-- Generated by graphviz version 2.43.0 (0)
 -->
<!-- Title: src/Ioss_Hex8.h Pages: 1 -->
<!--zoomable 157 -->
<svg id="main" version="1.1" xmlns="http://www.w3.org/2000/svg" xmlns:xlink="http://www.w3.org/1999/xlink" xml:space="preserve" onload="init(evt)">
<style type="text/css"><![CDATA[
.edge:hover path { stroke: red; }
.edge:hover polygon { stroke: red; fill: red; }
]]></style>
<script type="text/javascript"><![CDATA[
var edges = document.getElementsByTagName('g');
if (edges && edges.length) {
  for (var i=0;i<edges.length;i++) {
    if (edges[i].id.substr(0,4)=='edge') {
      edges[i].setAttribute('class','edge');
    }
  }
}
]]></script>
        <defs>
                <circle id="rim" cx="0" cy="0" r="7"/>
                <circle id="rim2" cx="0" cy="0" r="3.5"/>
                <g id="zoomPlus">
                        <use xlink:href="#rim" fill="#404040">
                                <set attributeName="fill" to="#808080" begin="zoomplus.mouseover" end="zoomplus.mouseout"/>
                        </use>
                        <path d="M-4,0h8M0,-4v8" fill="none" stroke="white" stroke-width="1.5" pointer-events="none"/>
                </g>
                <g id="zoomMin">
                        <use xlink:href="#rim" fill="#404040">
                                <set attributeName="fill" to="#808080" begin="zoomminus.mouseover" end="zoomminus.mouseout"/>
                        </use>
                        <path d="M-4,0h8" fill="none" stroke="white" stroke-width="1.5" pointer-events="none"/>
                </g>
                <g id="dirArrow">
                        <path fill="none" stroke="white" stroke-width="1.5" d="M0,-3.0v7 M-2.5,-0.5L0,-3.0L2.5,-0.5"/>
                </g>
               <g id="resetDef">
                       <use xlink:href="#rim2" fill="#404040">
                               <set attributeName="fill" to="#808080" begin="reset.mouseover" end="reset.mouseout"/>
                       </use>
               </g>
        </defs>

<script type="text/javascript">
var viewWidth = 1764;
var viewHeight = 157;
var sectionId = 'dynsection-1';
</script>
<script xlink:href="svgpan.js"/>
<svg id="graph" class="graph">
<g id="viewport">
<title>src/Ioss_Hex8.h</title>
<polygon fill="white" stroke="transparent" points="-4,4 -4,-153 1760.16,-153 1760.16,4 -4,4"/>
<!-- Node1 -->
<g id="node1" class="node">
<title>Node1</title>
<g id="a_node1"><a xlink:title=" ">
<polygon fill="#bfbfbf" stroke="black" points="813.35,-130.5 813.35,-148.5 901.05,-148.5 901.05,-130.5 813.35,-130.5"/>
<text text-anchor="middle" x="857.2" y="-136.5" font-family="Helvetica,sans-Serif" font-size="10.00">src/Ioss_Hex8.h</text>
</a>
</g>
</g>
<!-- Node2 -->
<g id="node2" class="node">
<title>Node2</title>
<g id="a_node2"><a xlink:href="Iocgns__DatabaseIO_8C.html" target="_top" xlink:title=" ">
<polygon fill="white" stroke="black" points="0,-70.5 0,-88.5 154.4,-88.5 154.4,-70.5 0,-70.5"/>
<text text-anchor="middle" x="77.2" y="-76.5" font-family="Helvetica,sans-Serif" font-size="10.00">src/cgns/Iocgns_DatabaseIO.C</text>
</a>
</g>
</g>
<!-- Node1&#45;&gt;Node2 -->
<g id="edge1" class="edge">
<title>Node1&#45;&gt;Node2</title>
<path fill="none" stroke="midnightblue" d="M803.1,-136.72C686.09,-132.5 400.84,-120.21 163.2,-94 150.28,-92.57 136.34,-90.58 123.51,-88.57"/>
<polygon fill="midnightblue" stroke="midnightblue" points="803.11,-140.22 813.23,-137.08 803.36,-133.23 803.11,-140.22"/>
</g>
<!-- Node3 -->
<g id="node3" class="node">
<title>Node3</title>
<g id="a_node3"><a xlink:href="Iocgns__Utils_8C.html" target="_top" xlink:title=" ">
<polygon fill="white" stroke="black" points="171.96,-70.5 171.96,-88.5 292.44,-88.5 292.44,-70.5 171.96,-70.5"/>
<text text-anchor="middle" x="232.2" y="-76.5" font-family="Helvetica,sans-Serif" font-size="10.00">src/cgns/Iocgns_Utils.C</text>
</a>
</g>
</g>
<!-- Node1&#45;&gt;Node3 -->
<g id="edge2" class="edge">
<title>Node1&#45;&gt;Node3</title>
<path fill="none" stroke="midnightblue" d="M802.91,-136.2C703.17,-131.52 484.2,-119.14 301.2,-94 290.8,-92.57 279.6,-90.58 269.31,-88.56"/>
<polygon fill="midnightblue" stroke="midnightblue" points="802.9,-139.7 813.05,-136.67 803.22,-132.71 802.9,-139.7"/>
</g>
<!-- Node4 -->
<g id="node4" class="node">
<title>Node4</title>
<g id="a_node4"><a xlink:href="Iogs__GeneratedMesh_8C.html" target="_top" xlink:title=" ">
<polygon fill="white" stroke="black" points="310.56,-65.5 310.56,-93.5 413.83,-93.5 413.83,-65.5 310.56,-65.5"/>
<text text-anchor="start" x="318.56" y="-81.5" font-family="Helvetica,sans-Serif" font-size="10.00">src/gen_struc/Iogs</text>
<text text-anchor="middle" x="362.2" y="-71.5" font-family="Helvetica,sans-Serif" font-size="10.00">_GeneratedMesh.C</text>
</a>
</g>
</g>
<!-- Node1&#45;&gt;Node4 -->
<g id="edge3" class="edge">
<title>Node1&#45;&gt;Node4</title>
<path fill="none" stroke="midnightblue" d="M803.12,-134.97C720.75,-129.15 559.09,-115.93 423.2,-94 420.2,-93.52 417.13,-92.98 414.03,-92.4"/>
<polygon fill="midnightblue" stroke="midnightblue" points="803.02,-138.48 813.24,-135.68 803.51,-131.49 803.02,-138.48"/>
</g>
<!-- Node5 -->
<g id="node5" class="node">
<title>Node5</title>
<g id="a_node5"><a xlink:href="Iogn__DashSurfaceMesh_8h.html" target="_top" xlink:title=" ">
<polygon fill="white" stroke="black" points="432.12,-65.5 432.12,-93.5 544.28,-93.5 544.28,-65.5 432.12,-65.5"/>
<text text-anchor="start" x="440.12" y="-81.5" font-family="Helvetica,sans-Serif" font-size="10.00">src/generated/Iogn</text>
<text text-anchor="middle" x="488.2" y="-71.5" font-family="Helvetica,sans-Serif" font-size="10.00">_DashSurfaceMesh.h</text>
</a>
</g>
</g>
<!-- Node1&#45;&gt;Node5 -->
<g id="edge4" class="edge">
<title>Node1&#45;&gt;Node5</title>
<path fill="none" stroke="midnightblue" d="M803.12,-131.57C742.21,-123.54 640.34,-109.41 553.2,-94 550.36,-93.5 547.46,-92.97 544.53,-92.41"/>
<polygon fill="midnightblue" stroke="midnightblue" points="802.9,-135.07 813.27,-132.9 803.81,-128.13 802.9,-135.07"/>
</g>
<!-- Node7 -->
<g id="node7" class="node">
<title>Node7</title>
<g id="a_node7"><a xlink:href="Iogn__GeneratedMesh_8C.html" target="_top" xlink:title=" ">
<polygon fill="white" stroke="black" points="562.56,-65.5 562.56,-93.5 665.83,-93.5 665.83,-65.5 562.56,-65.5"/>
<text text-anchor="start" x="570.56" y="-81.5" font-family="Helvetica,sans-Serif" font-size="10.00">src/generated/Iogn</text>
<text text-anchor="middle" x="614.2" y="-71.5" font-family="Helvetica,sans-Serif" font-size="10.00">_GeneratedMesh.C</text>
</a>
</g>
</g>
<!-- Node1&#45;&gt;Node7 -->
<g id="edge6" class="edge">
<title>Node1&#45;&gt;Node7</title>
<path fill="none" stroke="midnightblue" d="M813.88,-128.16C772.5,-118.28 710.08,-103.38 666.06,-92.88"/>
<polygon fill="midnightblue" stroke="midnightblue" points="813.13,-131.58 823.67,-130.5 814.75,-124.77 813.13,-131.58"/>
</g>
<!-- Node8 -->
<g id="node8" class="node">
<title>Node8</title>
<g id="a_node8"><a xlink:href="Ioss__Hex8_8C.html" target="_top" xlink:title=" ">
<polygon fill="white" stroke="black" points="683.52,-70.5 683.52,-88.5 772.88,-88.5 772.88,-70.5 683.52,-70.5"/>
<text text-anchor="middle" x="728.2" y="-76.5" font-family="Helvetica,sans-Serif" font-size="10.00">src/Ioss_Hex8.C</text>
</a>
</g>
</g>
<!-- Node1&#45;&gt;Node8 -->
<g id="edge7" class="edge">
<title>Node1&#45;&gt;Node8</title>
<path fill="none" stroke="midnightblue" d="M829.92,-126.23C804.77,-114.93 768.16,-98.46 746.4,-88.68"/>
<polygon fill="midnightblue" stroke="midnightblue" points="828.71,-129.53 839.26,-130.44 831.58,-123.14 828.71,-129.53"/>
</g>
<!-- Node9 -->
<g id="node9" class="node">
<title>Node9</title>
<g id="a_node9"><a xlink:href="Ioss__StandardElementTypes_8h.html" target="_top" xlink:title=" ">
<polygon fill="white" stroke="black" points="790.56,-65.5 790.56,-93.5 923.84,-93.5 923.84,-65.5 790.56,-65.5"/>
<text text-anchor="start" x="798.56" y="-81.5" font-family="Helvetica,sans-Serif" font-size="10.00">src/Ioss_StandardElement</text>
<text text-anchor="middle" x="857.2" y="-71.5" font-family="Helvetica,sans-Serif" font-size="10.00">Types.h</text>
</a>
</g>
</g>
<!-- Node1&#45;&gt;Node9 -->
<g id="edge8" class="edge">
<title>Node1&#45;&gt;Node9</title>
<path fill="none" stroke="midnightblue" d="M857.2,-120.32C857.2,-111.75 857.2,-101.7 857.2,-93.84"/>
<polygon fill="midnightblue" stroke="midnightblue" points="853.7,-120.44 857.2,-130.44 860.7,-120.44 853.7,-120.44"/>
</g>
<!-- Node11 -->
<g id="node11" class="node">
<title>Node11</title>
<g id="a_node11"><a xlink:href="Ioss__StructuredBlock_8C.html" target="_top" xlink:title=" ">
<polygon fill="white" stroke="black" points="941.9,-70.5 941.9,-88.5 1078.5,-88.5 1078.5,-70.5 941.9,-70.5"/>
<text text-anchor="middle" x="1010.2" y="-76.5" font-family="Helvetica,sans-Serif" font-size="10.00">src/Ioss_StructuredBlock.C</text>
</a>
</g>
</g>
<!-- Node1&#45;&gt;Node11 -->
<g id="edge10" class="edge">
<title>Node1&#45;&gt;Node11</title>
<path fill="none" stroke="midnightblue" d="M887.99,-126.83C917.84,-115.51 962.35,-98.64 988.61,-88.68"/>
<polygon fill="midnightblue" stroke="midnightblue" points="886.58,-123.62 878.47,-130.44 889.06,-130.16 886.58,-123.62"/>
</g>
<!-- Node12 -->
<g id="node12" class="node">
<title>Node12</title>
<g id="a_node12"><a xlink:href="io__info_8C.html" target="_top" xlink:title=" ">
<polygon fill="white" stroke="black" points="1096.18,-70.5 1096.18,-88.5 1192.21,-88.5 1192.21,-70.5 1096.18,-70.5"/>
<text text-anchor="middle" x="1144.2" y="-76.5" font-family="Helvetica,sans-Serif" font-size="10.00">src/main/io_info.C</text>
</a>
</g>
</g>
<!-- Node1&#45;&gt;Node12 -->
<g id="edge11" class="edge">
<title>Node1&#45;&gt;Node12</title>
<path fill="none" stroke="midnightblue" d="M911.3,-128.69C957.99,-120.06 1027.19,-106.91 1087.2,-94 1095.05,-92.31 1103.49,-90.38 1111.4,-88.51"/>
<polygon fill="midnightblue" stroke="midnightblue" points="910.6,-125.26 901.4,-130.51 911.87,-132.14 910.6,-125.26"/>
</g>
<!-- Node13 -->
<g id="node13" class="node">
<title>Node13</title>
<g id="a_node13"><a xlink:href="shell__to__hex_8C.html" target="_top" xlink:title=" ">
<polygon fill="white" stroke="black" points="1209.84,-70.5 1209.84,-88.5 1332.56,-88.5 1332.56,-70.5 1209.84,-70.5"/>
<text text-anchor="middle" x="1271.2" y="-76.5" font-family="Helvetica,sans-Serif" font-size="10.00">src/main/shell_to_hex.C</text>
</a>
</g>
</g>
<!-- Node1&#45;&gt;Node13 -->
<g id="edge12" class="edge">
<title>Node1&#45;&gt;Node13</title>
<path fill="none" stroke="midnightblue" d="M911.35,-132.54C979.24,-124.84 1099.12,-110.43 1201.2,-94 1211.1,-92.41 1221.74,-90.47 1231.66,-88.57"/>
<polygon fill="midnightblue" stroke="midnightblue" points="910.85,-129.08 901.31,-133.68 911.64,-136.03 910.85,-129.08"/>
</g>
<!-- Node14 -->
<g id="node14" class="node">
<title>Node14</title>
<g id="a_node14"><a xlink:href="sphgen_8C.html" target="_top" xlink:title=" ">
<polygon fill="white" stroke="black" points="1350.51,-70.5 1350.51,-88.5 1449.88,-88.5 1449.88,-70.5 1350.51,-70.5"/>
<text text-anchor="middle" x="1400.2" y="-76.5" font-family="Helvetica,sans-Serif" font-size="10.00">src/main/sphgen.C</text>
</a>
</g>
</g>
<!-- Node1&#45;&gt;Node14 -->
<g id="edge13" class="edge">
<title>Node1&#45;&gt;Node14</title>
<path fill="none" stroke="midnightblue" d="M911.37,-135.88C1001.16,-131.01 1186.3,-118.73 1341.2,-94 1350.12,-92.58 1359.71,-90.58 1368.51,-88.57"/>
<polygon fill="midnightblue" stroke="midnightblue" points="910.96,-132.4 901.16,-136.42 911.33,-139.39 910.96,-132.4"/>
</g>
<!-- Node15 -->
<g id="node15" class="node">
<title>Node15</title>
<g id="a_node15"><a xlink:href="struc__to__unstruc_8C.html" target="_top" xlink:title=" ">
<polygon fill="white" stroke="black" points="1467.96,-70.5 1467.96,-88.5 1608.44,-88.5 1608.44,-70.5 1467.96,-70.5"/>
<text text-anchor="middle" x="1538.2" y="-76.5" font-family="Helvetica,sans-Serif" font-size="10.00">src/main/struc_to_unstruc.C</text>
</a>
</g>
</g>
<!-- Node1&#45;&gt;Node15 -->
<g id="edge14" class="edge">
<title>Node1&#45;&gt;Node15</title>
<path fill="none" stroke="midnightblue" d="M911.24,-136.24C1016.84,-131.43 1257.85,-118.59 1459.2,-94 1471.08,-92.55 1483.89,-90.55 1495.67,-88.53"/>
<polygon fill="midnightblue" stroke="midnightblue" points="910.98,-132.75 901.15,-136.69 911.3,-139.74 910.98,-132.75"/>
</g>
<!-- Node16 -->
<g id="node16" class="node">
<title>Node16</title>
<g id="a_node16"><a xlink:href="UnitTestIofxDatabaseIO_8C.html" target="_top" xlink:title=" ">
<polygon fill="white" stroke="black" points="1626.23,-65.5 1626.23,-93.5 1756.16,-93.5 1756.16,-65.5 1626.23,-65.5"/>
<text text-anchor="start" x="1634.23" y="-81.5" font-family="Helvetica,sans-Serif" font-size="10.00">src/unit_tests/UnitTestIofx</text>
<text text-anchor="middle" x="1691.2" y="-71.5" font-family="Helvetica,sans-Serif" font-size="10.00">DatabaseIO.C</text>
</a>
</g>
</g>
<!-- Node1&#45;&gt;Node16 -->
<g id="edge15" class="edge">
<title>Node1&#45;&gt;Node16</title>
<path fill="none" stroke="midnightblue" d="M911.11,-137.6C1035.81,-135.02 1353.62,-125.64 1617.2,-94 1620.05,-93.66 1622.96,-93.27 1625.89,-92.86"/>
<polygon fill="midnightblue" stroke="midnightblue" points="910.99,-134.1 901.06,-137.8 911.13,-141.1 910.99,-134.1"/>
</g>
<!-- Node6 -->
<g id="node6" class="node">
<title>Node6</title>
<g id="a_node6"><a xlink:href="Iogn__DashSurfaceMesh_8C.html" target="_top" xlink:title=" ">
<polygon fill="white" stroke="black" points="431.29,-0.5 431.29,-28.5 545.11,-28.5 545.11,-0.5 431.29,-0.5"/>
<text text-anchor="start" x="439.29" y="-16.5" font-family="Helvetica,sans-Serif" font-size="10.00">src/generated/Iogn</text>
<text text-anchor="middle" x="488.2" y="-6.5" font-family="Helvetica,sans-Serif" font-size="10.00">_DashSurfaceMesh.C</text>
</a>
</g>
</g>
<!-- Node5&#45;&gt;Node6 -->
<g id="edge5" class="edge">
<title>Node5&#45;&gt;Node6</title>
<path fill="none" stroke="midnightblue" d="M488.2,-55.16C488.2,-46.17 488.2,-36.22 488.2,-28.54"/>
<polygon fill="midnightblue" stroke="midnightblue" points="484.7,-55.45 488.2,-65.45 491.7,-55.45 484.7,-55.45"/>
</g>
<!-- Node10 -->
<g id="node10" class="node">
<title>Node10</title>
<g id="a_node10"><a xlink:href="Ioss__Initializer_8C.html" target="_top" xlink:title=" ">
<polygon fill="white" stroke="black" points="804.74,-5.5 804.74,-23.5 909.66,-23.5 909.66,-5.5 804.74,-5.5"/>
<text text-anchor="middle" x="857.2" y="-11.5" font-family="Helvetica,sans-Serif" font-size="10.00">src/Ioss_Initializer.C</text>
</a>
</g>
</g>
<!-- Node9&#45;&gt;Node10 -->
<g id="edge9" class="edge">
<title>Node9&#45;&gt;Node10</title>
<path fill="none" stroke="midnightblue" d="M857.2,-55.13C857.2,-44.12 857.2,-31.69 857.2,-23.73"/>
<polygon fill="midnightblue" stroke="midnightblue" points="853.7,-55.45 857.2,-65.45 860.7,-55.45 853.7,-55.45"/>
</g>
</g>
</svg>
        <g id="navigator" transform="translate(0 0)" fill="#404254">
                <rect fill="#f2f5e9" fill-opacity="0.5" stroke="#606060" stroke-width=".5" x="0" y="0" width="60" height="60"/>
                <use id="zoomplus" xlink:href="#zoomPlus" x="17" y="9" onmousedown="handleZoom(evt,'in')"/>
                <use id="zoomminus" xlink:href="#zoomMin" x="42" y="9" onmousedown="handleZoom(evt,'out')"/>
                <use id="reset" xlink:href="#resetDef" x="30" y="36" onmousedown="handleReset()"/>
                <g id="arrowUp" xlink:href="#dirArrow" transform="translate(30 24)" onmousedown="handlePan(0,-1)">
                  <use xlink:href="#rim" fill="#404040">
                        <set attributeName="fill" to="#808080" begin="arrowUp.mouseover" end="arrowUp.mouseout"/>
                  </use>
                  <path fill="none" stroke="white" stroke-width="1.5" d="M0,-3.0v7 M-2.5,-0.5L0,-3.0L2.5,-0.5"/>
                </g>
                <g id="arrowRight" xlink:href="#dirArrow" transform="rotate(90) translate(36 -43)" onmousedown="handlePan(1,0)">
                  <use xlink:href="#rim" fill="#404040">
                        <set attributeName="fill" to="#808080" begin="arrowRight.mouseover" end="arrowRight.mouseout"/>
                  </use>
                  <path fill="none" stroke="white" stroke-width="1.5" d="M0,-3.0v7 M-2.5,-0.5L0,-3.0L2.5,-0.5"/>
                </g>
                <g id="arrowDown" xlink:href="#dirArrow" transform="rotate(180) translate(-30 -48)" onmousedown="handlePan(0,1)">
                  <use xlink:href="#rim" fill="#404040">
                        <set attributeName="fill" to="#808080" begin="arrowDown.mouseover" end="arrowDown.mouseout"/>
                  </use>
                  <path fill="none" stroke="white" stroke-width="1.5" d="M0,-3.0v7 M-2.5,-0.5L0,-3.0L2.5,-0.5"/>
                </g>
                <g id="arrowLeft" xlink:href="#dirArrow" transform="rotate(270) translate(-36 17)" onmousedown="handlePan(-1,0)">
                  <use xlink:href="#rim" fill="#404040">
                        <set attributeName="fill" to="#808080" begin="arrowLeft.mouseover" end="arrowLeft.mouseout"/>
                  </use>
                  <path fill="none" stroke="white" stroke-width="1.5" d="M0,-3.0v7 M-2.5,-0.5L0,-3.0L2.5,-0.5"/>
                </g>
        </g>
        <svg viewBox="0 0 15 15" width="100%" height="30px" preserveAspectRatio="xMaxYMin meet">
         <g id="arrow_out" transform="scale(0.3 0.3)">
          <a xlink:href="Ioss__Hex8_8h__dep__incl_org.svg" target="_base">
           <rect id="button" ry="5" rx="5" y="6" x="6" height="38" width="38"
                fill="#f2f5e9" fill-opacity="0.5" stroke="#606060" stroke-width="1.0"/>
           <path id="arrow"
             d="M 11.500037,31.436501 C 11.940474,20.09759 22.043105,11.32322 32.158766,21.979434 L 37.068811,17.246167 C 37.068811,17.246167 37.088388,32 37.088388,32 L 22.160133,31.978069 C 22.160133,31.978069 26.997745,27.140456 26.997745,27.140456 C 18.528582,18.264221 13.291696,25.230495 11.500037,31.436501 z"
             style="fill:#404040;"/>
          </a>
         </g>
        </svg>
</svg>
