<?xml version="1.0" encoding="UTF-8" standalone="no"?>
<!DOCTYPE svg PUBLIC "-//W3C//DTD SVG 1.1//EN"
 "http://www.w3.org/Graphics/SVG/1.1/DTD/svg11.dtd">
<!-- Generated by graphviz version 2.40.1 (20161225.0304)
 -->
<!-- Title: src/Ioss_NullEntity.h Pages: 1 -->
<svg width="1884pt" height="412pt"
 viewBox="0.00 0.00 1883.82 412.00" xmlns="http://www.w3.org/2000/svg" xmlns:xlink="http://www.w3.org/1999/xlink">
<g id="graph0" class="graph" transform="scale(1 1) rotate(0) translate(4 408)">
<title>src/Ioss_NullEntity.h</title>
<polygon fill="#ffffff" stroke="transparent" points="-4,4 -4,-408 1879.8206,-408 1879.8206,4 -4,4"/>
<!-- Node0 -->
<g id="node1" class="node">
<title>Node0</title>
<polygon fill="#bfbfbf" stroke="#000000" points="1134.8963,-385.5 1134.8963,-403.5 1240.7449,-403.5 1240.7449,-385.5 1134.8963,-385.5"/>
<text text-anchor="middle" x="1187.8206" y="-391.5" font-family="Helvetica,sans-Serif" font-size="10.00" fill="#000000">src/Ioss_NullEntity.h</text>
</g>
<!-- Node1 -->
<g id="node2" class="node">
<title>Node1</title>
<g id="a_node2"><a xlink:href="Ioss__CodeTypes_8h.html" target="_top" xlink:title="Ioss_CodeTypes.h">
<polygon fill="#ffffff" stroke="#000000" points="1453.4046,-55.5 1453.4046,-73.5 1552.2366,-73.5 1552.2366,-55.5 1453.4046,-55.5"/>
<text text-anchor="middle" x="1502.8206" y="-61.5" font-family="Helvetica,sans-Serif" font-size="10.00" fill="#000000">Ioss_CodeTypes.h</text>
</a>
</g>
</g>
<!-- Node0&#45;&gt;Node1 -->
<g id="edge1" class="edge">
<title>Node0&#45;&gt;Node1</title>
<path fill="none" stroke="#191970" d="M1240.9491,-391.6007C1402.3257,-382.0926 1875.8206,-348.723 1875.8206,-284.5 1875.8206,-284.5 1875.8206,-284.5 1875.8206,-229.5 1875.8206,-191.2436 1849.6818,-187.6085 1818.8206,-165 1741.187,-108.1268 1630.1972,-82.6758 1562.5183,-71.861"/>
<polygon fill="#191970" stroke="#191970" points="1562.8648,-68.3731 1552.4483,-70.3089 1561.7984,-75.2914 1562.8648,-68.3731"/>
</g>
<!-- Node5 -->
<g id="node6" class="node">
<title>Node5</title>
<polygon fill="#ffffff" stroke="#bfbfbf" points="411.5941,-.5 411.5941,-18.5 452.0472,-18.5 452.0472,-.5 411.5941,-.5"/>
<text text-anchor="middle" x="431.8206" y="-6.5" font-family="Helvetica,sans-Serif" font-size="10.00" fill="#000000">string</text>
</g>
<!-- Node0&#45;&gt;Node5 -->
<g id="edge88" class="edge">
<title>Node0&#45;&gt;Node5</title>
<path fill="none" stroke="#191970" d="M1134.6633,-392.6653C928.6835,-385.1398 190.366,-354.1528 105.8206,-294 19.1212,-232.3146 35.0026,-119.2479 119.8206,-55 163.7245,-21.7437 331.3927,-12.6562 401.1214,-10.2901"/>
<polygon fill="#191970" stroke="#191970" points="401.5526,-13.7783 411.4375,-9.9654 401.3323,-6.7818 401.5526,-13.7783"/>
</g>
<!-- Node9 -->
<g id="node10" class="node">
<title>Node9</title>
<g id="a_node10"><a xlink:href="Ioss__GroupingEntity_8h.html" target="_top" xlink:title="Ioss_GroupingEntity.h">
<polygon fill="#ffffff" stroke="#000000" points="1130.9949,-330.5 1130.9949,-348.5 1244.6463,-348.5 1244.6463,-330.5 1130.9949,-330.5"/>
<text text-anchor="middle" x="1187.8206" y="-336.5" font-family="Helvetica,sans-Serif" font-size="10.00" fill="#000000">Ioss_GroupingEntity.h</text>
</a>
</g>
</g>
<!-- Node0&#45;&gt;Node9 -->
<g id="edge9" class="edge">
<title>Node0&#45;&gt;Node9</title>
<path fill="none" stroke="#191970" d="M1187.8206,-385.4179C1187.8206,-378.2164 1187.8206,-367.8962 1187.8206,-358.8632"/>
<polygon fill="#191970" stroke="#191970" points="1191.3207,-358.7794 1187.8206,-348.7795 1184.3207,-358.7795 1191.3207,-358.7794"/>
</g>
<!-- Node2 -->
<g id="node3" class="node">
<title>Node2</title>
<polygon fill="#ffffff" stroke="#bfbfbf" points="1492.429,-.5 1492.429,-18.5 1531.2122,-18.5 1531.2122,-.5 1492.429,-.5"/>
<text text-anchor="middle" x="1511.8206" y="-6.5" font-family="Helvetica,sans-Serif" font-size="10.00" fill="#000000">array</text>
</g>
<!-- Node1&#45;&gt;Node2 -->
<g id="edge2" class="edge">
<title>Node1&#45;&gt;Node2</title>
<path fill="none" stroke="#191970" d="M1504.3068,-55.4179C1505.4852,-48.2164 1507.174,-37.8962 1508.6521,-28.8632"/>
<polygon fill="#191970" stroke="#191970" points="1512.1413,-29.2134 1510.3022,-18.7795 1505.2331,-28.083 1512.1413,-29.2134"/>
</g>
<!-- Node3 -->
<g id="node4" class="node">
<title>Node3</title>
<polygon fill="#ffffff" stroke="#bfbfbf" points="1354.7,-.5 1354.7,-18.5 1402.9412,-18.5 1402.9412,-.5 1354.7,-.5"/>
<text text-anchor="middle" x="1378.8206" y="-6.5" font-family="Helvetica,sans-Serif" font-size="10.00" fill="#000000">cstddef</text>
</g>
<!-- Node1&#45;&gt;Node3 -->
<g id="edge3" class="edge">
<title>Node1&#45;&gt;Node3</title>
<path fill="none" stroke="#191970" d="M1482.3445,-55.4179C1462.2412,-46.5011 1431.3584,-32.803 1408.5519,-22.6873"/>
<polygon fill="#191970" stroke="#191970" points="1409.8874,-19.4508 1399.3271,-18.5956 1407.0492,-25.8496 1409.8874,-19.4508"/>
</g>
<!-- Node4 -->
<g id="node5" class="node">
<title>Node4</title>
<polygon fill="#ffffff" stroke="#bfbfbf" points="59.3699,-.5 59.3699,-18.5 104.2713,-18.5 104.2713,-.5 59.3699,-.5"/>
<text text-anchor="middle" x="81.8206" y="-6.5" font-family="Helvetica,sans-Serif" font-size="10.00" fill="#000000">cstdint</text>
</g>
<!-- Node1&#45;&gt;Node4 -->
<g id="edge4" class="edge">
<title>Node1&#45;&gt;Node4</title>
<path fill="none" stroke="#191970" d="M1453.0797,-62.5748C1227.1952,-53.8319 300.9597,-17.9818 114.583,-10.7681"/>
<polygon fill="#191970" stroke="#191970" points="114.465,-7.261 104.3371,-10.3715 114.1942,-14.2557 114.465,-7.261"/>
</g>
<!-- Node1&#45;&gt;Node5 -->
<g id="edge5" class="edge">
<title>Node1&#45;&gt;Node5</title>
<path fill="none" stroke="#191970" d="M1453.312,-61.9575C1267.2867,-52.4044 613.0901,-18.8089 462.7722,-11.0895"/>
<polygon fill="#191970" stroke="#191970" points="462.6154,-7.5769 452.449,-10.5593 462.2563,-14.5677 462.6154,-7.5769"/>
</g>
<!-- Node6 -->
<g id="node7" class="node">
<title>Node6</title>
<polygon fill="#ffffff" stroke="#bfbfbf" points="861.2049,-.5 861.2049,-18.5 904.4363,-18.5 904.4363,-.5 861.2049,-.5"/>
<text text-anchor="middle" x="882.8206" y="-6.5" font-family="Helvetica,sans-Serif" font-size="10.00" fill="#000000">vector</text>
</g>
<!-- Node1&#45;&gt;Node6 -->
<g id="edge6" class="edge">
<title>Node1&#45;&gt;Node6</title>
<path fill="none" stroke="#191970" d="M1453.392,-60.1152C1330.9094,-49.2498 1015.9527,-21.3101 914.6877,-12.3269"/>
<polygon fill="#191970" stroke="#191970" points="914.7593,-8.8196 904.4891,-11.4222 914.1407,-15.7922 914.7593,-8.8196"/>
</g>
<!-- Node7 -->
<g id="node8" class="node">
<title>Node7</title>
<polygon fill="#ffffff" stroke="#bfbfbf" points="1549.0721,-.5 1549.0721,-18.5 1664.5691,-18.5 1664.5691,-.5 1549.0721,-.5"/>
<text text-anchor="middle" x="1606.8206" y="-6.5" font-family="Helvetica,sans-Serif" font-size="10.00" fill="#000000">SEACASIoss_config.h</text>
</g>
<!-- Node1&#45;&gt;Node7 -->
<g id="edge7" class="edge">
<title>Node1&#45;&gt;Node7</title>
<path fill="none" stroke="#191970" d="M1519.9941,-55.4179C1536.4786,-46.7001 1561.6048,-33.4122 1580.5939,-23.3699"/>
<polygon fill="#191970" stroke="#191970" points="1582.4179,-26.3646 1589.6216,-18.5956 1579.1454,-20.1767 1582.4179,-26.3646"/>
</g>
<!-- Node8 -->
<g id="node9" class="node">
<title>Node8</title>
<polygon fill="#ffffff" stroke="#bfbfbf" points="1421.2024,-.5 1421.2024,-18.5 1474.4388,-18.5 1474.4388,-.5 1421.2024,-.5"/>
<text text-anchor="middle" x="1447.8206" y="-6.5" font-family="Helvetica,sans-Serif" font-size="10.00" fill="#000000">complex</text>
</g>
<!-- Node1&#45;&gt;Node8 -->
<g id="edge8" class="edge">
<title>Node1&#45;&gt;Node8</title>
<path fill="none" stroke="#191970" d="M1493.7385,-55.4179C1485.7456,-47.425 1473.911,-35.5903 1464.2584,-25.9377"/>
<polygon fill="#191970" stroke="#191970" points="1466.6461,-23.3757 1457.1001,-18.7795 1461.6963,-28.3254 1466.6461,-23.3757"/>
</g>
<!-- Node9&#45;&gt;Node1 -->
<g id="edge10" class="edge">
<title>Node9&#45;&gt;Node1</title>
<path fill="none" stroke="#191970" d="M1235.8435,-330.4556C1342.5918,-309.2515 1593.8748,-252.8816 1640.8206,-184 1673.099,-136.6392 1590.906,-96.5573 1539.8643,-77.105"/>
<polygon fill="#191970" stroke="#191970" points="1541.0157,-73.7992 1530.4227,-73.6046 1538.5823,-80.3626 1541.0157,-73.7992"/>
</g>
<!-- Node9&#45;&gt;Node3 -->
<g id="edge84" class="edge">
<title>Node9&#45;&gt;Node3</title>
<path fill="none" stroke="#191970" d="M1244.7555,-337.0595C1355.7945,-331.8316 1597.3502,-318.0315 1676.8206,-294 1753.2352,-270.8926 1794.1331,-259.9188 1818.8206,-184 1860.345,-56.3048 1826.7348,-138.6082 1574.8206,-55 1507.4327,-32.6345 1485.595,-36.84 1413.3296,-19.2351"/>
<polygon fill="#191970" stroke="#191970" points="1413.8322,-15.7532 1403.2823,-16.7275 1412.1371,-22.5449 1413.8322,-15.7532"/>
</g>
<!-- Node9&#45;&gt;Node4 -->
<g id="edge85" class="edge">
<title>Node9&#45;&gt;Node4</title>
<path fill="none" stroke="#191970" d="M1130.8036,-338.6082C913.8888,-335.0219 150.0484,-320.5525 105.8206,-294 26.5617,-246.4164 -19.7416,-197.9225 8.8206,-110 19.79,-76.2331 46.8426,-44.3319 64.7549,-25.8624"/>
<polygon fill="#191970" stroke="#191970" points="67.435,-28.1319 72.0248,-18.5829 62.4819,-23.1854 67.435,-28.1319"/>
</g>
<!-- Node9&#45;&gt;Node5 -->
<g id="edge86" class="edge">
<title>Node9&#45;&gt;Node5</title>
<path fill="none" stroke="#191970" d="M1130.9023,-338.3159C968.7566,-334.6357 506.5705,-321.9275 357.8206,-294 267.2737,-277 160.8206,-321.629 160.8206,-229.5 160.8206,-229.5 160.8206,-229.5 160.8206,-174.5 160.8206,-87.8661 239.441,-97.7007 314.8206,-55 342.8624,-39.115 377.547,-26.3998 401.8435,-18.4927"/>
<polygon fill="#191970" stroke="#191970" points="403.0995,-21.7661 411.5707,-15.403 400.9804,-15.0946 403.0995,-21.7661"/>
</g>
<!-- Node9&#45;&gt;Node6 -->
<g id="edge87" class="edge">
<title>Node9&#45;&gt;Node6</title>
<path fill="none" stroke="#191970" d="M1130.8024,-337.7312C937.7014,-331.1537 317.2059,-304.9988 259.8206,-239 210.2902,-182.035 116.9253,-264.458 369.8206,-110 437.9525,-68.3878 462.9406,-72.5567 540.8206,-55 653.2699,-29.6503 789.9224,-16.7007 850.8427,-11.8334"/>
<polygon fill="#191970" stroke="#191970" points="851.2777,-15.3102 860.9752,-11.0431 850.7333,-8.3314 851.2777,-15.3102"/>
</g>
<!-- Node10 -->
<g id="node11" class="node">
<title>Node10</title>
<g id="a_node11"><a xlink:href="Ioss__DatabaseIO_8h.html" target="_top" xlink:title="Ioss_DatabaseIO.h">
<polygon fill="#ffffff" stroke="#000000" points="661.0179,-275.5 661.0179,-293.5 762.6233,-293.5 762.6233,-275.5 661.0179,-275.5"/>
<text text-anchor="middle" x="711.8206" y="-281.5" font-family="Helvetica,sans-Serif" font-size="10.00" fill="#000000">Ioss_DatabaseIO.h</text>
</a>
</g>
</g>
<!-- Node9&#45;&gt;Node10 -->
<g id="edge11" class="edge">
<title>Node9&#45;&gt;Node10</title>
<path fill="none" stroke="#191970" d="M1130.8767,-332.9203C1040.6117,-322.4906 865.4327,-302.2493 772.7418,-291.5392"/>
<polygon fill="#191970" stroke="#191970" points="773.0098,-288.047 762.6741,-290.3759 772.2063,-295.0007 773.0098,-288.047"/>
</g>
<!-- Node14 -->
<g id="node15" class="node">
<title>Node14</title>
<g id="a_node15"><a xlink:href="Ioss__EntityType_8h.html" target="_top" xlink:title="Ioss_EntityType.h">
<polygon fill="#ffffff" stroke="#000000" points="1039.3528,-220.5 1039.3528,-238.5 1134.2884,-238.5 1134.2884,-220.5 1039.3528,-220.5"/>
<text text-anchor="middle" x="1086.8206" y="-226.5" font-family="Helvetica,sans-Serif" font-size="10.00" fill="#000000">Ioss_EntityType.h</text>
</a>
</g>
</g>
<!-- Node9&#45;&gt;Node14 -->
<g id="edge63" class="edge">
<title>Node9&#45;&gt;Node14</title>
<path fill="none" stroke="#191970" d="M1179.5554,-330.4982C1162.6135,-312.0467 1123.7246,-269.6924 1102.0747,-246.1134"/>
<polygon fill="#191970" stroke="#191970" points="1104.5415,-243.625 1095.2001,-238.6261 1099.3853,-248.3593 1104.5415,-243.625"/>
</g>
<!-- Node19 -->
<g id="node20" class="node">
<title>Node19</title>
<g id="a_node20"><a xlink:href="Ioss__Field_8h.html" target="_top" xlink:title="Ioss_Field.h">
<polygon fill="#ffffff" stroke="#000000" points="1377.8626,-110.5 1377.8626,-128.5 1447.7786,-128.5 1447.7786,-110.5 1377.8626,-110.5"/>
<text text-anchor="middle" x="1412.8206" y="-116.5" font-family="Helvetica,sans-Serif" font-size="10.00" fill="#000000">Ioss_Field.h</text>
</a>
</g>
</g>
<!-- Node9&#45;&gt;Node19 -->
<g id="edge64" class="edge">
<title>Node9&#45;&gt;Node19</title>
<path fill="none" stroke="#191970" d="M1235.9981,-330.4659C1285.0529,-318.5412 1359.097,-292.4548 1396.8206,-239 1417.9621,-209.0423 1417.6623,-164.1305 1415.3654,-138.7565"/>
<polygon fill="#191970" stroke="#191970" points="1418.8198,-138.1504 1414.2395,-128.5969 1411.8624,-138.9216 1418.8198,-138.1504"/>
</g>
<!-- Node25 -->
<g id="node26" class="node">
<title>Node25</title>
<g id="a_node26"><a xlink:href="Ioss__PropertyManager_8h.html" target="_top" xlink:title="Ioss_PropertyManager.h">
<polygon fill="#ffffff" stroke="#000000" points="720.3431,-110.5 720.3431,-128.5 845.2982,-128.5 845.2982,-110.5 720.3431,-110.5"/>
<text text-anchor="middle" x="782.8206" y="-116.5" font-family="Helvetica,sans-Serif" font-size="10.00" fill="#000000">Ioss_PropertyManager.h</text>
</a>
</g>
</g>
<!-- Node9&#45;&gt;Node25 -->
<g id="edge75" class="edge">
<title>Node9&#45;&gt;Node25</title>
<path fill="none" stroke="#191970" d="M1196.9692,-330.2459C1217.4022,-308.48 1262.6859,-253.3675 1232.8206,-220 1184.5068,-166.0206 978.1994,-204.8465 908.8206,-184 870.213,-172.3994 829.3468,-149.1813 804.9695,-133.9978"/>
<polygon fill="#191970" stroke="#191970" points="806.7932,-131.01 796.473,-128.613 803.0459,-136.9225 806.7932,-131.01"/>
</g>
<!-- Node26 -->
<g id="node27" class="node">
<title>Node26</title>
<g id="a_node27"><a xlink:href="Ioss__Property_8h.html" target="_top" xlink:title="Ioss_Property.h">
<polygon fill="#ffffff" stroke="#000000" points="129.1722,-55.5 129.1722,-73.5 214.4691,-73.5 214.4691,-55.5 129.1722,-55.5"/>
<text text-anchor="middle" x="171.8206" y="-61.5" font-family="Helvetica,sans-Serif" font-size="10.00" fill="#000000">Ioss_Property.h</text>
</a>
</g>
</g>
<!-- Node9&#45;&gt;Node26 -->
<g id="edge74" class="edge">
<title>Node9&#45;&gt;Node26</title>
<path fill="none" stroke="#191970" d="M1130.9761,-338.1841C920.032,-333.15 191.8973,-314.3694 146.8206,-294 110.5856,-277.626 84.8206,-269.2629 84.8206,-229.5 84.8206,-229.5 84.8206,-229.5 84.8206,-174.5 84.8206,-133.1554 123.0977,-98.2622 148.8735,-79.4523"/>
<polygon fill="#191970" stroke="#191970" points="150.8886,-82.314 157.0622,-73.7037 146.8666,-76.5848 150.8886,-82.314"/>
</g>
<!-- Node28 -->
<g id="node29" class="node">
<title>Node28</title>
<g id="a_node29"><a xlink:href="Ioss__State_8h.html" target="_top" xlink:title="Ioss_State.h">
<polygon fill="#ffffff" stroke="#000000" points="1152.0252,-220.5 1152.0252,-238.5 1223.616,-238.5 1223.616,-220.5 1152.0252,-220.5"/>
<text text-anchor="middle" x="1187.8206" y="-226.5" font-family="Helvetica,sans-Serif" font-size="10.00" fill="#000000">Ioss_State.h</text>
</a>
</g>
</g>
<!-- Node9&#45;&gt;Node28 -->
<g id="edge76" class="edge">
<title>Node9&#45;&gt;Node28</title>
<path fill="none" stroke="#191970" d="M1187.8206,-330.4982C1187.8206,-312.6913 1187.8206,-272.6225 1187.8206,-248.6515"/>
<polygon fill="#191970" stroke="#191970" points="1191.3207,-248.6261 1187.8206,-238.6261 1184.3207,-248.6262 1191.3207,-248.6261"/>
</g>
<!-- Node31 -->
<g id="node32" class="node">
<title>Node31</title>
<g id="a_node32"><a xlink:href="Ioss__FieldManager_8h.html" target="_top" xlink:title="Ioss_FieldManager.h">
<polygon fill="#ffffff" stroke="#000000" points="1279.4022,-220.5 1279.4022,-238.5 1388.2391,-238.5 1388.2391,-220.5 1279.4022,-220.5"/>
<text text-anchor="middle" x="1333.8206" y="-226.5" font-family="Helvetica,sans-Serif" font-size="10.00" fill="#000000">Ioss_FieldManager.h</text>
</a>
</g>
</g>
<!-- Node9&#45;&gt;Node31 -->
<g id="edge65" class="edge">
<title>Node9&#45;&gt;Node31</title>
<path fill="none" stroke="#191970" d="M1205.9028,-330.4855C1222.2034,-322.0092 1246.5067,-308.4864 1265.8206,-294 1285.4071,-279.3092 1305.461,-259.6051 1318.6663,-245.8562"/>
<polygon fill="#191970" stroke="#191970" points="1321.2652,-248.202 1325.5947,-238.5321 1316.1799,-243.3915 1321.2652,-248.202"/>
</g>
<!-- Node33 -->
<g id="node34" class="node">
<title>Node33</title>
<g id="a_node34"><a xlink:href="Ioss__VariableType_8h.html" target="_top" xlink:title="Ioss_VariableType.h">
<polygon fill="#ffffff" stroke="#000000" points="1663.8816,-220.5 1663.8816,-238.5 1769.7596,-238.5 1769.7596,-220.5 1663.8816,-220.5"/>
<text text-anchor="middle" x="1716.8206" y="-226.5" font-family="Helvetica,sans-Serif" font-size="10.00" fill="#000000">Ioss_VariableType.h</text>
</a>
</g>
</g>
<!-- Node9&#45;&gt;Node33 -->
<g id="edge77" class="edge">
<title>Node9&#45;&gt;Node33</title>
<path fill="none" stroke="#191970" d="M1244.7411,-338.5196C1351.885,-335.9223 1579.1079,-326.6255 1649.8206,-294 1672.6159,-283.4827 1692.4367,-261.9477 1704.4873,-246.6582"/>
<polygon fill="#191970" stroke="#191970" points="1707.41,-248.596 1710.6484,-238.5082 1701.826,-244.3747 1707.41,-248.596"/>
</g>
<!-- Node10&#45;&gt;Node1 -->
<g id="edge13" class="edge">
<title>Node10&#45;&gt;Node1</title>
<path fill="none" stroke="#191970" d="M762.6752,-282.7895C911.2515,-277.5596 1337.8915,-260.803 1396.8206,-239 1415.9531,-231.9212 1534.6875,-147.2414 1543.8206,-129 1552.592,-111.481 1537.6053,-92.7136 1523.3489,-79.9661"/>
<polygon fill="#191970" stroke="#191970" points="1525.5798,-77.2692 1515.6593,-73.5496 1521.0949,-82.6438 1525.5798,-77.2692"/>
</g>
<!-- Node10&#45;&gt;Node3 -->
<g id="edge57" class="edge">
<title>Node10&#45;&gt;Node3</title>
<path fill="none" stroke="#191970" d="M762.6432,-280.9231C819.772,-275.8427 914.7461,-264.1893 992.8206,-239 1010.7908,-233.2022 1013.1332,-226.6106 1030.8206,-220 1149.8337,-175.5196 1197.0095,-200.8139 1301.8206,-129 1329.8247,-109.8123 1336.7439,-102.7337 1354.8206,-74 1363.6682,-59.9364 1369.9855,-42.1192 1373.9107,-28.7763"/>
<polygon fill="#191970" stroke="#191970" points="1377.3768,-29.3709 1376.6483,-18.8012 1370.6264,-27.5183 1377.3768,-29.3709"/>
</g>
<!-- Node10&#45;&gt;Node4 -->
<g id="edge58" class="edge">
<title>Node10&#45;&gt;Node4</title>
<path fill="none" stroke="#191970" d="M660.7764,-283.8847C555.3405,-281.9139 317.3072,-273.6446 244.8206,-239 152.0964,-194.683 122.4494,-168.8226 82.8206,-74 76.8753,-59.7742 77.0353,-42.1952 78.4534,-28.9838"/>
<polygon fill="#191970" stroke="#191970" points="81.974,-29.0823 79.9017,-18.6921 75.0423,-28.1068 81.974,-29.0823"/>
</g>
<!-- Node10&#45;&gt;Node5 -->
<g id="edge60" class="edge">
<title>Node10&#45;&gt;Node5</title>
<path fill="none" stroke="#191970" d="M660.8395,-280.0889C593.0818,-273.5263 477.6192,-259.6993 440.8206,-239 357.1773,-191.9503 275.2926,-135.3162 327.8206,-55 344.0552,-30.1771 377.1455,-18.815 401.6619,-13.6659"/>
<polygon fill="#191970" stroke="#191970" points="402.3809,-17.0922 411.5699,-11.8184 401.0977,-10.2108 402.3809,-17.0922"/>
</g>
<!-- Node10&#45;&gt;Node6 -->
<g id="edge62" class="edge">
<title>Node10&#45;&gt;Node6</title>
<path fill="none" stroke="#191970" d="M661.0036,-279.1493C611.5515,-272.77 541.4917,-260.2138 524.8206,-239 501.5402,-209.3759 473.6478,-245.8889 562.8206,-110 582.6677,-79.7554 590.3673,-70.9819 622.8206,-55 662.5719,-35.4241 790.6382,-19.4591 850.9042,-12.8208"/>
<polygon fill="#191970" stroke="#191970" points="851.4279,-16.2846 860.9925,-11.7272 850.6735,-9.3254 851.4279,-16.2846"/>
</g>
<!-- Node11 -->
<g id="node12" class="node">
<title>Node11</title>
<g id="a_node12"><a xlink:href="Ioss__BoundingBox_8h.html" target="_top" xlink:title="Ioss_BoundingBox.h">
<polygon fill="#ffffff" stroke="#000000" points="540.9539,-220.5 540.9539,-238.5 648.6873,-238.5 648.6873,-220.5 540.9539,-220.5"/>
<text text-anchor="middle" x="594.8206" y="-226.5" font-family="Helvetica,sans-Serif" font-size="10.00" fill="#000000">Ioss_BoundingBox.h</text>
</a>
</g>
</g>
<!-- Node10&#45;&gt;Node11 -->
<g id="edge12" class="edge">
<title>Node10&#45;&gt;Node11</title>
<path fill="none" stroke="#191970" d="M692.5004,-275.4179C673.7014,-266.5807 644.9121,-253.0473 623.4517,-242.9591"/>
<polygon fill="#191970" stroke="#191970" points="624.7084,-239.6824 614.1695,-238.5956 621.7304,-246.0174 624.7084,-239.6824"/>
</g>
<!-- Node12 -->
<g id="node13" class="node">
<title>Node12</title>
<g id="a_node13"><a xlink:href="Ioss__DBUsage_8h.html" target="_top" xlink:title="Ioss_DBUsage.h">
<polygon fill="#ffffff" stroke="#000000" points="666.3011,-220.5 666.3011,-238.5 757.3401,-238.5 757.3401,-220.5 666.3011,-220.5"/>
<text text-anchor="middle" x="711.8206" y="-226.5" font-family="Helvetica,sans-Serif" font-size="10.00" fill="#000000">Ioss_DBUsage.h</text>
</a>
</g>
</g>
<!-- Node10&#45;&gt;Node12 -->
<g id="edge14" class="edge">
<title>Node10&#45;&gt;Node12</title>
<path fill="none" stroke="#191970" d="M711.8206,-275.4179C711.8206,-268.2164 711.8206,-257.8962 711.8206,-248.8632"/>
<polygon fill="#191970" stroke="#191970" points="715.3207,-248.7794 711.8206,-238.7795 708.3207,-248.7795 715.3207,-248.7794"/>
</g>
<!-- Node13 -->
<g id="node14" class="node">
<title>Node13</title>
<g id="a_node14"><a xlink:href="Ioss__DataSize_8h.html" target="_top" xlink:title="Ioss_DataSize.h">
<polygon fill="#ffffff" stroke="#000000" points="775.4119,-220.5 775.4119,-238.5 864.2293,-238.5 864.2293,-220.5 775.4119,-220.5"/>
<text text-anchor="middle" x="819.8206" y="-226.5" font-family="Helvetica,sans-Serif" font-size="10.00" fill="#000000">Ioss_DataSize.h</text>
</a>
</g>
</g>
<!-- Node10&#45;&gt;Node13 -->
<g id="edge15" class="edge">
<title>Node10&#45;&gt;Node13</title>
<path fill="none" stroke="#191970" d="M729.6546,-275.4179C746.8513,-266.6603 773.1043,-253.2907 792.8549,-243.2326"/>
<polygon fill="#191970" stroke="#191970" points="794.6374,-246.2526 801.9601,-238.5956 791.4608,-240.0148 794.6374,-246.2526"/>
</g>
<!-- Node10&#45;&gt;Node14 -->
<g id="edge16" class="edge">
<title>Node10&#45;&gt;Node14</title>
<path fill="none" stroke="#191970" d="M762.6952,-277.297C824.8189,-268.4623 933.0833,-252.94 1025.8206,-239 1026.907,-238.8367 1028.0042,-238.6712 1029.1095,-238.5041"/>
<polygon fill="#191970" stroke="#191970" points="1029.8501,-241.9317 1039.2086,-236.9648 1028.7954,-235.0116 1029.8501,-241.9317"/>
</g>
<!-- Node15 -->
<g id="node16" class="node">
<title>Node15</title>
<g id="a_node16"><a xlink:href="Ioss__Map_8h.html" target="_top" xlink:title="Ioss_Map.h">
<polygon fill="#ffffff" stroke="#000000" points="378.9734,-110.5 378.9734,-128.5 446.6678,-128.5 446.6678,-110.5 378.9734,-110.5"/>
<text text-anchor="middle" x="412.8206" y="-116.5" font-family="Helvetica,sans-Serif" font-size="10.00" fill="#000000">Ioss_Map.h</text>
</a>
</g>
</g>
<!-- Node10&#45;&gt;Node15 -->
<g id="edge17" class="edge">
<title>Node10&#45;&gt;Node15</title>
<path fill="none" stroke="#191970" d="M660.8051,-281.0265C596.5108,-275.689 490.7665,-263.4192 460.8206,-239 429.8918,-213.7793 418.7576,-165.6312 414.8507,-138.7905"/>
<polygon fill="#191970" stroke="#191970" points="418.3047,-138.2049 413.5822,-128.7208 411.3596,-139.0799 418.3047,-138.2049"/>
</g>
<!-- Node16 -->
<g id="node17" class="node">
<title>Node16</title>
<polygon fill="#ffffff" stroke="#bfbfbf" points="346.429,-55.5 346.429,-73.5 385.2122,-73.5 385.2122,-55.5 346.429,-55.5"/>
<text text-anchor="middle" x="365.8206" y="-61.5" font-family="Helvetica,sans-Serif" font-size="10.00" fill="#000000">utility</text>
</g>
<!-- Node10&#45;&gt;Node16 -->
<g id="edge61" class="edge">
<title>Node10&#45;&gt;Node16</title>
<path fill="none" stroke="#191970" d="M660.6165,-283.1327C547.9247,-279.595 286.3048,-268.284 259.8206,-239 212.8863,-187.1039 301.36,-111.4859 344.3233,-79.5865"/>
<polygon fill="#191970" stroke="#191970" points="346.4704,-82.3527 352.4958,-73.638 342.351,-76.6931 346.4704,-82.3527"/>
</g>
<!-- Node17 -->
<g id="node18" class="node">
<title>Node17</title>
<g id="a_node18"><a xlink:href="Ioss__ParallelUtils_8h.html" target="_top" xlink:title="Ioss_ParallelUtils.h">
<polygon fill="#ffffff" stroke="#000000" points="882.3035,-220.5 882.3035,-238.5 983.3377,-238.5 983.3377,-220.5 882.3035,-220.5"/>
<text text-anchor="middle" x="932.8206" y="-226.5" font-family="Helvetica,sans-Serif" font-size="10.00" fill="#000000">Ioss_ParallelUtils.h</text>
</a>
</g>
</g>
<!-- Node10&#45;&gt;Node17 -->
<g id="edge24" class="edge">
<title>Node10&#45;&gt;Node17</title>
<path fill="none" stroke="#191970" d="M748.3143,-275.4179C786.2562,-265.9753 845.7425,-251.171 886.865,-240.9369"/>
<polygon fill="#191970" stroke="#191970" points="887.7813,-244.3157 896.6401,-238.5042 886.0908,-237.5229 887.7813,-244.3157"/>
</g>
<!-- Node10&#45;&gt;Node25 -->
<g id="edge46" class="edge">
<title>Node10&#45;&gt;Node25</title>
<path fill="none" stroke="#191970" d="M660.6576,-278.5614C613.1877,-271.8738 547.5643,-259.2185 531.8206,-239 526.6325,-232.3373 527.0876,-226.9934 531.8206,-220 571.4265,-161.4791 651.2486,-137.0315 710.2927,-126.8202"/>
<polygon fill="#191970" stroke="#191970" points="711.0123,-130.2492 720.3196,-125.1871 709.887,-123.3402 711.0123,-130.2492"/>
</g>
<!-- Node10&#45;&gt;Node28 -->
<g id="edge55" class="edge">
<title>Node10&#45;&gt;Node28</title>
<path fill="none" stroke="#191970" d="M762.7998,-280.8263C841.7895,-274.7596 998.6797,-261.2194 1141.7452,-239.0181"/>
<polygon fill="#191970" stroke="#191970" points="1142.6848,-242.4135 1152.0208,-237.4046 1141.5989,-235.4982 1142.6848,-242.4135"/>
</g>
<!-- Node29 -->
<g id="node30" class="node">
<title>Node29</title>
<g id="a_node30"><a xlink:href="Ioss__SurfaceSplit_8h.html" target="_top" xlink:title="Ioss_SurfaceSplit.h">
<polygon fill="#ffffff" stroke="#000000" points="268.742,-220.5 268.742,-238.5 370.8992,-238.5 370.8992,-220.5 268.742,-220.5"/>
<text text-anchor="middle" x="319.8206" y="-226.5" font-family="Helvetica,sans-Serif" font-size="10.00" fill="#000000">Ioss_SurfaceSplit.h</text>
</a>
</g>
</g>
<!-- Node10&#45;&gt;Node29 -->
<g id="edge56" class="edge">
<title>Node10&#45;&gt;Node29</title>
<path fill="none" stroke="#191970" d="M660.8289,-277.5153C596.4827,-268.6758 482.4192,-252.9222 384.8206,-239 383.5505,-238.8188 382.2664,-238.6352 380.9721,-238.4497"/>
<polygon fill="#191970" stroke="#191970" points="381.3073,-234.962 370.9105,-237.0008 380.3095,-241.8905 381.3073,-234.962"/>
</g>
<!-- Node30 -->
<g id="node31" class="node">
<title>Node30</title>
<polygon fill="#ffffff" stroke="#bfbfbf" points="1596.0941,-165.5 1596.0941,-183.5 1631.5472,-183.5 1631.5472,-165.5 1596.0941,-165.5"/>
<text text-anchor="middle" x="1613.8206" y="-171.5" font-family="Helvetica,sans-Serif" font-size="10.00" fill="#000000">map</text>
</g>
<!-- Node10&#45;&gt;Node30 -->
<g id="edge59" class="edge">
<title>Node10&#45;&gt;Node30</title>
<path fill="none" stroke="#191970" d="M762.8577,-283.0783C904.7653,-278.8373 1301.9786,-264.9311 1429.8206,-239 1487.1895,-227.3635 1551.0132,-202.0161 1586.3931,-186.7913"/>
<polygon fill="#191970" stroke="#191970" points="1588.2369,-189.8057 1596.0054,-182.6015 1585.4399,-183.3888 1588.2369,-189.8057"/>
</g>
<!-- Node15&#45;&gt;Node1 -->
<g id="edge18" class="edge">
<title>Node15&#45;&gt;Node1</title>
<path fill="none" stroke="#191970" d="M446.8088,-117.3283C478.604,-115.324 527.4218,-112.3165 569.8206,-110 899.5319,-91.9857 1294.982,-73.8438 1443.0214,-67.1731"/>
<polygon fill="#191970" stroke="#191970" points="1443.4159,-70.659 1453.2484,-66.7128 1443.1011,-63.6661 1443.4159,-70.659"/>
</g>
<!-- Node15&#45;&gt;Node3 -->
<g id="edge19" class="edge">
<title>Node15&#45;&gt;Node3</title>
<path fill="none" stroke="#191970" d="M446.9172,-113.1782C516.5634,-100.4659 680.2841,-71.6078 818.8206,-55 1017.0821,-31.2323 1256.353,-16.3816 1344.2685,-11.3851"/>
<polygon fill="#191970" stroke="#191970" points="1344.6777,-14.8677 1354.4653,-10.8114 1344.2844,-7.8788 1344.6777,-14.8677"/>
</g>
<!-- Node15&#45;&gt;Node4 -->
<g id="edge20" class="edge">
<title>Node15&#45;&gt;Node4</title>
<path fill="none" stroke="#191970" d="M378.9594,-117.8417C311.1393,-113.95 161.5645,-102.3279 119.8206,-74 103.8975,-63.1944 93.6818,-43.3121 87.8981,-28.467"/>
<polygon fill="#191970" stroke="#191970" points="91.093,-27.0045 84.4516,-18.7496 84.4957,-29.3444 91.093,-27.0045"/>
</g>
<!-- Node15&#45;&gt;Node5 -->
<g id="edge21" class="edge">
<title>Node15&#45;&gt;Node5</title>
<path fill="none" stroke="#191970" d="M414.3755,-110.4982C417.4512,-92.6913 424.3722,-52.6225 428.5126,-28.6515"/>
<polygon fill="#191970" stroke="#191970" points="431.9911,-29.076 430.2443,-18.6261 425.0932,-27.8845 431.9911,-29.076"/>
</g>
<!-- Node15&#45;&gt;Node6 -->
<g id="edge23" class="edge">
<title>Node15&#45;&gt;Node6</title>
<path fill="none" stroke="#191970" d="M439.3959,-110.3608C465.354,-101.3615 505.9357,-87.0999 540.8206,-74 562.2999,-65.9341 566.679,-61.0142 588.8206,-55 682.2768,-29.6149 796.5482,-17.0069 851.0099,-12.0772"/>
<polygon fill="#191970" stroke="#191970" points="851.4258,-15.5542 861.0809,-11.1921 850.8129,-8.5811 851.4258,-15.5542"/>
</g>
<!-- Node15&#45;&gt;Node16 -->
<g id="edge22" class="edge">
<title>Node15&#45;&gt;Node16</title>
<path fill="none" stroke="#191970" d="M405.0595,-110.4179C398.3645,-102.5833 388.5152,-91.0575 380.3596,-81.5137"/>
<polygon fill="#191970" stroke="#191970" points="382.9077,-79.108 373.7503,-73.7795 377.5861,-83.6556 382.9077,-79.108"/>
</g>
<!-- Node17&#45;&gt;Node1 -->
<g id="edge25" class="edge">
<title>Node17&#45;&gt;Node1</title>
<path fill="none" stroke="#191970" d="M983.601,-223.2524C1112.3267,-206.9904 1443.8531,-162.2985 1480.8206,-129 1493.5702,-117.5158 1498.9348,-98.3423 1501.1899,-83.8778"/>
<polygon fill="#191970" stroke="#191970" points="1504.6661,-84.285 1502.3792,-73.94 1497.7157,-83.4532 1504.6661,-84.285"/>
</g>
<!-- Node17&#45;&gt;Node3 -->
<g id="edge43" class="edge">
<title>Node17&#45;&gt;Node3</title>
<path fill="none" stroke="#191970" d="M975.7414,-220.4517C1056.4456,-202.8778 1227.1561,-162.8779 1276.8206,-129 1317.3813,-101.3322 1351.3317,-53.4915 1367.9143,-27.5259"/>
<polygon fill="#191970" stroke="#191970" points="1371.0758,-29.0704 1373.3969,-18.733 1365.1359,-25.3667 1371.0758,-29.0704"/>
</g>
<!-- Node17&#45;&gt;Node5 -->
<g id="edge44" class="edge">
<title>Node17&#45;&gt;Node5</title>
<path fill="none" stroke="#191970" d="M882.1127,-221.2483C878.9712,-220.8062 875.8546,-220.3859 872.8206,-220 707.1643,-198.9328 660.6408,-225.2316 498.8206,-184 438.4235,-168.6109 416.5368,-170.2582 369.8206,-129 342.9631,-105.2803 318.7871,-85.3591 337.8206,-55 351.7051,-32.8538 379.7629,-21.2211 401.6271,-15.2839"/>
<polygon fill="#191970" stroke="#191970" points="402.5885,-18.6519 411.4681,-12.8725 400.9224,-11.8531 402.5885,-18.6519"/>
</g>
<!-- Node17&#45;&gt;Node6 -->
<g id="edge45" class="edge">
<title>Node17&#45;&gt;Node6</title>
<path fill="none" stroke="#191970" d="M888.6644,-220.4533C796.1697,-201.0597 588.9968,-155.1278 569.8206,-129 533.892,-80.0469 764.774,-31.4551 851.1489,-15.1984"/>
<polygon fill="#191970" stroke="#191970" points="851.9807,-18.6038 861.1727,-13.3353 850.7015,-11.7216 851.9807,-18.6038"/>
</g>
<!-- Node18 -->
<g id="node19" class="node">
<title>Node18</title>
<g id="a_node19"><a xlink:href="Ioss__Utils_8h.html" target="_top" xlink:title="Ioss_Utils.h">
<polygon fill="#ffffff" stroke="#000000" points="1040.9783,-165.5 1040.9783,-183.5 1108.6629,-183.5 1108.6629,-165.5 1040.9783,-165.5"/>
<text text-anchor="middle" x="1074.8206" y="-171.5" font-family="Helvetica,sans-Serif" font-size="10.00" fill="#000000">Ioss_Utils.h</text>
</a>
</g>
</g>
<!-- Node17&#45;&gt;Node18 -->
<g id="edge26" class="edge">
<title>Node17&#45;&gt;Node18</title>
<path fill="none" stroke="#191970" d="M956.269,-220.4179C979.5989,-211.3817 1015.6059,-197.4353 1041.8178,-187.2828"/>
<polygon fill="#191970" stroke="#191970" points="1043.2765,-190.4712 1051.3374,-183.5956 1040.7482,-183.9437 1043.2765,-190.4712"/>
</g>
<!-- Node21 -->
<g id="node22" class="node">
<title>Node21</title>
<polygon fill="#ffffff" stroke="#bfbfbf" points="578.7049,-110.5 578.7049,-128.5 626.9363,-128.5 626.9363,-110.5 578.7049,-110.5"/>
<text text-anchor="middle" x="602.8206" y="-116.5" font-family="Helvetica,sans-Serif" font-size="10.00" fill="#000000">cassert</text>
</g>
<!-- Node17&#45;&gt;Node21 -->
<g id="edge42" class="edge">
<title>Node17&#45;&gt;Node21</title>
<path fill="none" stroke="#191970" d="M905.8153,-220.4982C846.0539,-200.5778 702.7117,-152.797 636.9016,-130.8603"/>
<polygon fill="#191970" stroke="#191970" points="637.6235,-127.4117 627.0299,-127.5697 635.4099,-134.0525 637.6235,-127.4117"/>
</g>
<!-- Node18&#45;&gt;Node1 -->
<g id="edge27" class="edge">
<title>Node18&#45;&gt;Node1</title>
<path fill="none" stroke="#191970" d="M1108.7489,-173.9221C1190.9465,-171.9807 1398.2846,-163.6849 1456.8206,-129 1474.5105,-118.5181 1487.2269,-98.2818 1494.7457,-83.2586"/>
<polygon fill="#191970" stroke="#191970" points="1498.0671,-84.4174 1499.118,-73.8748 1491.722,-81.461 1498.0671,-84.4174"/>
</g>
<!-- Node18&#45;&gt;Node3 -->
<g id="edge35" class="edge">
<title>Node18&#45;&gt;Node3</title>
<path fill="none" stroke="#191970" d="M1108.7726,-169.1467C1154.2773,-161.4354 1231.9782,-146.2211 1254.8206,-129 1285.1942,-106.1011 1270.728,-81.7002 1297.8206,-55 1311.5201,-41.499 1330.0326,-30.7031 1345.9016,-23.0217"/>
<polygon fill="#191970" stroke="#191970" points="1347.7641,-26.0167 1355.374,-18.645 1344.828,-19.6622 1347.7641,-26.0167"/>
</g>
<!-- Node18&#45;&gt;Node4 -->
<g id="edge36" class="edge">
<title>Node18&#45;&gt;Node4</title>
<path fill="none" stroke="#191970" d="M1040.9082,-173.9335C938.9433,-171.883 626.3624,-163.057 369.8206,-129 247.5577,-112.7691 186.914,-159.2879 97.8206,-74 85.852,-62.5426 82.2765,-43.6422 81.4439,-29.255"/>
<polygon fill="#191970" stroke="#191970" points="84.9371,-28.8476 81.2562,-18.9127 77.9383,-28.9746 84.9371,-28.8476"/>
</g>
<!-- Node18&#45;&gt;Node5 -->
<g id="edge40" class="edge">
<title>Node18&#45;&gt;Node5</title>
<path fill="none" stroke="#191970" d="M1040.854,-171.5154C962.9701,-164.4664 773.4861,-146.0916 711.8206,-129 691.6861,-123.4194 687.9945,-118.3009 668.8206,-110 594.467,-77.8103 506.5686,-40.8117 461.5968,-21.958"/>
<polygon fill="#191970" stroke="#191970" points="462.7299,-18.638 452.1541,-18.0015 460.0247,-25.0942 462.7299,-18.638"/>
</g>
<!-- Node18&#45;&gt;Node6 -->
<g id="edge41" class="edge">
<title>Node18&#45;&gt;Node6</title>
<path fill="none" stroke="#191970" d="M1040.7658,-169.9702C1015.9289,-164.6893 983.9122,-153.3288 967.8206,-129 949.0883,-100.6788 1005.4062,-83.4177 986.8206,-55 970.9636,-30.7543 939.0257,-19.3507 914.7034,-14.0353"/>
<polygon fill="#191970" stroke="#191970" points="915.2994,-10.5857 904.8148,-12.1103 913.9618,-17.4567 915.2994,-10.5857"/>
</g>
<!-- Node18&#45;&gt;Node19 -->
<g id="edge28" class="edge">
<title>Node18&#45;&gt;Node19</title>
<path fill="none" stroke="#191970" d="M1108.7769,-168.9746C1170.0018,-159.0119 1298.8938,-138.0384 1367.5435,-126.8676"/>
<polygon fill="#191970" stroke="#191970" points="1368.3142,-130.2883 1377.6222,-125.2275 1367.1899,-123.3792 1368.3142,-130.2883"/>
</g>
<!-- Node20 -->
<g id="node21" class="node">
<title>Node20</title>
<polygon fill="#ffffff" stroke="#bfbfbf" points="977.2566,-110.5 977.2566,-128.5 1034.3846,-128.5 1034.3846,-110.5 977.2566,-110.5"/>
<text text-anchor="middle" x="1005.8206" y="-116.5" font-family="Helvetica,sans-Serif" font-size="10.00" fill="#000000">algorithm</text>
</g>
<!-- Node18&#45;&gt;Node20 -->
<g id="edge33" class="edge">
<title>Node18&#45;&gt;Node20</title>
<path fill="none" stroke="#191970" d="M1063.4267,-165.4179C1053.1014,-157.1876 1037.6659,-144.8839 1025.3709,-135.0836"/>
<polygon fill="#191970" stroke="#191970" points="1027.4635,-132.2757 1017.4621,-128.7795 1023.1003,-137.7495 1027.4635,-132.2757"/>
</g>
<!-- Node18&#45;&gt;Node21 -->
<g id="edge34" class="edge">
<title>Node18&#45;&gt;Node21</title>
<path fill="none" stroke="#191970" d="M1040.9055,-170.7184C972.4378,-163.0586 812.8048,-145.0709 678.8206,-129 665.1736,-127.3631 650.1565,-125.4992 637.1007,-123.8586"/>
<polygon fill="#191970" stroke="#191970" points="637.4737,-120.378 627.1144,-122.5992 636.5979,-127.323 637.4737,-120.378"/>
</g>
<!-- Node22 -->
<g id="node23" class="node">
<title>Node22</title>
<polygon fill="#ffffff" stroke="#bfbfbf" points="1052.6483,-110.5 1052.6483,-128.5 1096.993,-128.5 1096.993,-110.5 1052.6483,-110.5"/>
<text text-anchor="middle" x="1074.8206" y="-116.5" font-family="Helvetica,sans-Serif" font-size="10.00" fill="#000000">cstdlib</text>
</g>
<!-- Node18&#45;&gt;Node22 -->
<g id="edge37" class="edge">
<title>Node18&#45;&gt;Node22</title>
<path fill="none" stroke="#191970" d="M1074.8206,-165.4179C1074.8206,-158.2164 1074.8206,-147.8962 1074.8206,-138.8632"/>
<polygon fill="#191970" stroke="#191970" points="1078.3207,-138.7794 1074.8206,-128.7795 1071.3207,-138.7795 1078.3207,-138.7794"/>
</g>
<!-- Node23 -->
<g id="node24" class="node">
<title>Node23</title>
<polygon fill="#ffffff" stroke="#bfbfbf" points="1114.6483,-110.5 1114.6483,-128.5 1168.993,-128.5 1168.993,-110.5 1114.6483,-110.5"/>
<text text-anchor="middle" x="1141.8206" y="-116.5" font-family="Helvetica,sans-Serif" font-size="10.00" fill="#000000">iostream</text>
</g>
<!-- Node18&#45;&gt;Node23 -->
<g id="edge38" class="edge">
<title>Node18&#45;&gt;Node23</title>
<path fill="none" stroke="#191970" d="M1085.8843,-165.4179C1095.8139,-157.2667 1110.6106,-145.1201 1122.4918,-135.3669"/>
<polygon fill="#191970" stroke="#191970" points="1125.008,-137.8297 1130.5165,-128.7795 1120.5665,-132.4192 1125.008,-137.8297"/>
</g>
<!-- Node24 -->
<g id="node25" class="node">
<title>Node24</title>
<polygon fill="#ffffff" stroke="#bfbfbf" points="1187.4192,-110.5 1187.4192,-128.5 1246.222,-128.5 1246.222,-110.5 1187.4192,-110.5"/>
<text text-anchor="middle" x="1216.8206" y="-116.5" font-family="Helvetica,sans-Serif" font-size="10.00" fill="#000000">stdexcept</text>
</g>
<!-- Node18&#45;&gt;Node24 -->
<g id="edge39" class="edge">
<title>Node18&#45;&gt;Node24</title>
<path fill="none" stroke="#191970" d="M1098.269,-165.4179C1121.5989,-156.3817 1157.6059,-142.4353 1183.8178,-132.2828"/>
<polygon fill="#191970" stroke="#191970" points="1185.2765,-135.4712 1193.3374,-128.5956 1182.7482,-128.9437 1185.2765,-135.4712"/>
</g>
<!-- Node19&#45;&gt;Node1 -->
<g id="edge29" class="edge">
<title>Node19&#45;&gt;Node1</title>
<path fill="none" stroke="#191970" d="M1427.6823,-110.4179C1441.622,-101.8992 1462.7026,-89.0166 1478.9907,-79.0627"/>
<polygon fill="#191970" stroke="#191970" points="1481.2291,-81.7967 1487.9369,-73.5956 1477.5789,-75.8237 1481.2291,-81.7967"/>
</g>
<!-- Node19&#45;&gt;Node3 -->
<g id="edge30" class="edge">
<title>Node19&#45;&gt;Node3</title>
<path fill="none" stroke="#191970" d="M1412.1034,-110.103C1410.9324,-97.3535 1408.0808,-73.9875 1401.8206,-55 1398.7075,-45.5576 1393.8981,-35.6414 1389.4805,-27.4852"/>
<polygon fill="#191970" stroke="#191970" points="1392.3994,-25.5367 1384.4265,-18.5593 1386.3081,-28.9858 1392.3994,-25.5367"/>
</g>
<!-- Node19&#45;&gt;Node5 -->
<g id="edge31" class="edge">
<title>Node19&#45;&gt;Node5</title>
<path fill="none" stroke="#191970" d="M1377.7745,-113.9325C1301.081,-101.8902 1112.5307,-73.0555 953.8206,-55 767.7896,-33.8364 543.4758,-17.2925 462.6845,-11.6199"/>
<polygon fill="#191970" stroke="#191970" points="462.4754,-8.0968 452.256,-10.8922 461.9881,-15.0799 462.4754,-8.0968"/>
</g>
<!-- Node19&#45;&gt;Node6 -->
<g id="edge32" class="edge">
<title>Node19&#45;&gt;Node6</title>
<path fill="none" stroke="#191970" d="M1399.2864,-110.3903C1377.0828,-95.9486 1331.0579,-68.0968 1287.8206,-55 1217.9201,-33.8267 997.3667,-17.2124 914.6082,-11.5742"/>
<polygon fill="#191970" stroke="#191970" points="914.7567,-8.0763 904.5442,-10.8966 914.2864,-15.0605 914.7567,-8.0763"/>
</g>
<!-- Node25&#45;&gt;Node1 -->
<g id="edge47" class="edge">
<title>Node25&#45;&gt;Node1</title>
<path fill="none" stroke="#191970" d="M845.4564,-114.7153C982.669,-104.2338 1308.2592,-79.3623 1442.9241,-69.0754"/>
<polygon fill="#191970" stroke="#191970" points="1443.3492,-72.5532 1453.0536,-68.3016 1442.816,-65.5736 1443.3492,-72.5532"/>
</g>
<!-- Node25&#45;&gt;Node3 -->
<g id="edge51" class="edge">
<title>Node25&#45;&gt;Node3</title>
<path fill="none" stroke="#191970" d="M788.9755,-110.4539C799.4967,-95.8373 822.4742,-67.4126 849.8206,-55 894.7015,-34.6285 1233.829,-16.5374 1344.2136,-11.1356"/>
<polygon fill="#191970" stroke="#191970" points="1344.642,-14.619 1354.4607,-10.6385 1344.3028,-7.6272 1344.642,-14.619"/>
</g>
<!-- Node25&#45;&gt;Node5 -->
<g id="edge52" class="edge">
<title>Node25&#45;&gt;Node5</title>
<path fill="none" stroke="#191970" d="M773.2079,-110.3108C757.6618,-96.0175 725.4376,-68.6831 692.8206,-55 651.5078,-37.6689 521.9376,-20.3674 462.3514,-13.086"/>
<polygon fill="#191970" stroke="#191970" points="462.7572,-9.6096 452.4096,-11.8849 461.9176,-16.5591 462.7572,-9.6096"/>
</g>
<!-- Node25&#45;&gt;Node6 -->
<g id="edge54" class="edge">
<title>Node25&#45;&gt;Node6</title>
<path fill="none" stroke="#191970" d="M786.0308,-110.3259C791.0283,-97.0035 801.691,-72.037 816.8206,-55 827.9008,-42.523 843.0795,-31.7526 856.0871,-23.8272"/>
<polygon fill="#191970" stroke="#191970" points="858.2131,-26.639 865.0853,-18.5753 854.6845,-20.5933 858.2131,-26.639"/>
</g>
<!-- Node25&#45;&gt;Node26 -->
<g id="edge48" class="edge">
<title>Node25&#45;&gt;Node26</title>
<path fill="none" stroke="#191970" d="M720.3043,-113.8725C599.8215,-103.0271 337.4463,-79.409 224.8645,-69.2748"/>
<polygon fill="#191970" stroke="#191970" points="225.0409,-65.7766 214.7674,-68.3659 224.4133,-72.7484 225.0409,-65.7766"/>
</g>
<!-- Node27 -->
<g id="node28" class="node">
<title>Node27</title>
<polygon fill="#ffffff" stroke="#bfbfbf" points="858.5179,-55.5 858.5179,-73.5 945.1233,-73.5 945.1233,-55.5 858.5179,-55.5"/>
<text text-anchor="middle" x="901.8206" y="-61.5" font-family="Helvetica,sans-Serif" font-size="10.00" fill="#000000">unordered_map</text>
</g>
<!-- Node25&#45;&gt;Node27 -->
<g id="edge53" class="edge">
<title>Node25&#45;&gt;Node27</title>
<path fill="none" stroke="#191970" d="M802.471,-110.4179C821.6776,-101.5409 851.1369,-87.9253 872.9946,-77.823"/>
<polygon fill="#191970" stroke="#191970" points="874.532,-80.9682 882.141,-73.5956 871.5952,-74.614 874.532,-80.9682"/>
</g>
<!-- Node26&#45;&gt;Node4 -->
<g id="edge49" class="edge">
<title>Node26&#45;&gt;Node4</title>
<path fill="none" stroke="#191970" d="M156.9589,-55.4179C143.0192,-46.8992 121.9386,-34.0166 105.6505,-24.0627"/>
<polygon fill="#191970" stroke="#191970" points="107.0623,-20.8237 96.7044,-18.5956 103.4121,-26.7967 107.0623,-20.8237"/>
</g>
<!-- Node26&#45;&gt;Node5 -->
<g id="edge50" class="edge">
<title>Node26&#45;&gt;Node5</title>
<path fill="none" stroke="#191970" d="M214.4632,-55.4795C267.1229,-44.3399 355.3762,-25.6709 401.5614,-15.901"/>
<polygon fill="#191970" stroke="#191970" points="402.4925,-19.2816 411.5516,-13.7877 401.0438,-12.4331 402.4925,-19.2816"/>
</g>
<!-- Node31&#45;&gt;Node1 -->
<g id="edge66" class="edge">
<title>Node31&#45;&gt;Node1</title>
<path fill="none" stroke="#191970" d="M1341.1342,-220.1273C1352.582,-206.0872 1376.1008,-179.6799 1401.8206,-165 1452.4023,-136.1298 1492.7482,-175.4965 1527.8206,-129 1538.601,-114.7081 1528.351,-95.1914 1517.9065,-81.3801"/>
<polygon fill="#191970" stroke="#191970" points="1520.6011,-79.1464 1511.5645,-73.6157 1515.1798,-83.5746 1520.6011,-79.1464"/>
</g>
<!-- Node31&#45;&gt;Node3 -->
<g id="edge69" class="edge">
<title>Node31&#45;&gt;Node3</title>
<path fill="none" stroke="#191970" d="M1374.632,-220.4835C1421.9642,-207.9434 1499.1868,-180.7075 1543.8206,-129 1560.5389,-109.6321 1557,-99.2986 1560.8206,-74 1570.9087,-7.2009 1487.7197,-34.4234 1413.2631,-19.0186"/>
<polygon fill="#191970" stroke="#191970" points="1413.8321,-15.557 1403.2963,-16.6735 1412.2288,-22.3709 1413.8321,-15.557"/>
</g>
<!-- Node31&#45;&gt;Node5 -->
<g id="edge71" class="edge">
<title>Node31&#45;&gt;Node5</title>
<path fill="none" stroke="#191970" d="M1279.1207,-224.0173C1181.0652,-214.1267 979.0548,-193.45 908.8206,-184 757.547,-163.6462 713.5756,-180.3077 569.8206,-129 523.8717,-112.6004 510.3916,-107.3909 474.8206,-74 460.608,-60.6585 448.7129,-41.7661 441.0626,-27.8751"/>
<polygon fill="#191970" stroke="#191970" points="444.0332,-26.0048 436.2698,-18.795 437.8427,-29.2725 444.0332,-26.0048"/>
</g>
<!-- Node31&#45;&gt;Node6 -->
<g id="edge73" class="edge">
<title>Node31&#45;&gt;Node6</title>
<path fill="none" stroke="#191970" d="M1279.2643,-222.7969C1198.4669,-212.6406 1054.092,-193.5296 1031.8206,-184 995.123,-168.2975 980.0627,-163.9718 960.8206,-129 944.8953,-100.0562 971.0203,-83.2051 953.8206,-55 944.6917,-40.0298 928.5647,-29.1082 913.9856,-21.7236"/>
<polygon fill="#191970" stroke="#191970" points="915.2573,-18.4542 904.7176,-17.3746 912.2836,-24.7912 915.2573,-18.4542"/>
</g>
<!-- Node31&#45;&gt;Node18 -->
<g id="edge68" class="edge">
<title>Node31&#45;&gt;Node18</title>
<path fill="none" stroke="#191970" d="M1291.3421,-220.4795C1243.7788,-210.3792 1167.0661,-194.0888 1118.8716,-183.8545"/>
<polygon fill="#191970" stroke="#191970" points="1119.55,-180.4205 1109.041,-181.7669 1118.0958,-187.2679 1119.55,-180.4205"/>
</g>
<!-- Node31&#45;&gt;Node19 -->
<g id="edge67" class="edge">
<title>Node31&#45;&gt;Node19</title>
<path fill="none" stroke="#191970" d="M1336.8772,-220.1364C1341.4368,-207.0161 1350.8893,-182.7771 1363.8206,-165 1371.9545,-153.8181 1383.1268,-143.1917 1392.7494,-135.0245"/>
<polygon fill="#191970" stroke="#191970" points="1395.167,-137.5688 1400.6913,-128.5282 1390.7349,-132.1505 1395.167,-137.5688"/>
</g>
<!-- Node31&#45;&gt;Node27 -->
<g id="edge72" class="edge">
<title>Node31&#45;&gt;Node27</title>
<path fill="none" stroke="#191970" d="M1279.2807,-221.7315C1274.7296,-221.1286 1270.1975,-220.5436 1265.8206,-220 1192.3955,-210.8803 998.3856,-221.867 934.8206,-184 909.2953,-168.794 905.6662,-157.3641 896.8206,-129 892.2229,-114.257 894.0066,-96.7438 896.643,-83.6894"/>
<polygon fill="#191970" stroke="#191970" points="900.0556,-84.4667 898.9368,-73.9311 893.2413,-82.8648 900.0556,-84.4667"/>
</g>
<!-- Node32 -->
<g id="node33" class="node">
<title>Node32</title>
<polygon fill="#ffffff" stroke="#bfbfbf" points="1519.4168,-165.5 1519.4168,-183.5 1578.2244,-183.5 1578.2244,-165.5 1519.4168,-165.5"/>
<text text-anchor="middle" x="1548.8206" y="-171.5" font-family="Helvetica,sans-Serif" font-size="10.00" fill="#000000">functional</text>
</g>
<!-- Node31&#45;&gt;Node32 -->
<g id="edge70" class="edge">
<title>Node31&#45;&gt;Node32</title>
<path fill="none" stroke="#191970" d="M1369.3235,-220.4179C1407.9165,-210.5452 1469.4217,-194.8113 1509.4642,-184.5679"/>
<polygon fill="#191970" stroke="#191970" points="1510.3344,-187.9581 1519.155,-182.0889 1508.5996,-181.1765 1510.3344,-187.9581"/>
</g>
<!-- Node33&#45;&gt;Node1 -->
<g id="edge78" class="edge">
<title>Node33&#45;&gt;Node1</title>
<path fill="none" stroke="#191970" d="M1716.3201,-220.4767C1714.5864,-198.2416 1706.9539,-140.4195 1673.8206,-110 1657.4796,-94.9974 1605.1531,-82.4412 1562.6442,-74.3459"/>
<polygon fill="#191970" stroke="#191970" points="1563.1045,-70.8716 1552.6334,-72.486 1561.8258,-77.7538 1563.1045,-70.8716"/>
</g>
<!-- Node33&#45;&gt;Node5 -->
<g id="edge82" class="edge">
<title>Node33&#45;&gt;Node5</title>
<path fill="none" stroke="#191970" d="M1663.6549,-227.748C1477.4338,-221.0946 855.8054,-194.3844 668.8206,-129 652.8452,-123.4138 651.1158,-117.244 635.8206,-110 595.0138,-90.6734 581.5115,-93.5695 540.8206,-74 509.6104,-58.9901 475.5455,-38.0353 453.9519,-24.132"/>
<polygon fill="#191970" stroke="#191970" points="455.7979,-21.1576 445.5057,-18.6431 451.9835,-27.027 455.7979,-21.1576"/>
</g>
<!-- Node33&#45;&gt;Node6 -->
<g id="edge83" class="edge">
<title>Node33&#45;&gt;Node6</title>
<path fill="none" stroke="#191970" d="M1718.1092,-220.4596C1719.3459,-211.2954 1721.1251,-196.6959 1721.8206,-184 1723.7356,-149.0427 1720.3899,-133.9142 1694.8206,-110 1647.803,-66.0257 1623.528,-69.5664 1560.8206,-55 1435.4566,-25.8789 1031.2797,-13.3458 914.6197,-10.2787"/>
<polygon fill="#191970" stroke="#191970" points="914.6387,-6.7781 904.5517,-10.0189 914.458,-13.7758 914.6387,-6.7781"/>
</g>
<!-- Node33&#45;&gt;Node30 -->
<g id="edge81" class="edge">
<title>Node33&#45;&gt;Node30</title>
<path fill="none" stroke="#191970" d="M1699.8123,-220.4179C1683.4863,-211.7001 1658.6016,-198.4122 1639.7952,-188.3699"/>
<polygon fill="#191970" stroke="#191970" points="1641.324,-185.2186 1630.8542,-183.5956 1638.0268,-191.3934 1641.324,-185.2186"/>
</g>
<!-- Node33&#45;&gt;Node32 -->
<g id="edge80" class="edge">
<title>Node33&#45;&gt;Node32</title>
<path fill="none" stroke="#191970" d="M1689.0788,-220.4179C1660.9068,-211.1949 1617.1102,-196.8567 1585.9584,-186.6582"/>
<polygon fill="#191970" stroke="#191970" points="1586.917,-183.2893 1576.3244,-183.5042 1584.7391,-189.9419 1586.917,-183.2893"/>
</g>
<!-- Node34 -->
<g id="node35" class="node">
<title>Node34</title>
<polygon fill="#ffffff" stroke="#bfbfbf" points="1764.0941,-165.5 1764.0941,-183.5 1809.5472,-183.5 1809.5472,-165.5 1764.0941,-165.5"/>
<text text-anchor="middle" x="1786.8206" y="-171.5" font-family="Helvetica,sans-Serif" font-size="10.00" fill="#000000">cstring</text>
</g>
<!-- Node33&#45;&gt;Node34 -->
<g id="edge79" class="edge">
<title>Node33&#45;&gt;Node34</title>
<path fill="none" stroke="#191970" d="M1728.3797,-220.4179C1738.8546,-212.1876 1754.5138,-199.8839 1766.987,-190.0836"/>
<polygon fill="#191970" stroke="#191970" points="1769.3096,-192.7098 1775.0104,-183.7795 1764.9848,-187.2056 1769.3096,-192.7098"/>
</g>
</g>
</svg>
