<?xml version="1.0" encoding="UTF-8" standalone="no"?>
<!DOCTYPE svg PUBLIC "-//W3C//DTD SVG 1.1//EN"
 "http://www.w3.org/Graphics/SVG/1.1/DTD/svg11.dtd">
<!-- Generated by graphviz version 2.40.1 (20161225.0304)
 -->
<!-- Title: src/Ioss_ShellLine2D2.h Pages: 1 -->
<svg width="284pt" height="147pt"
 viewBox="0.00 0.00 284.39 147.00" xmlns="http://www.w3.org/2000/svg" xmlns:xlink="http://www.w3.org/1999/xlink">
<g id="graph0" class="graph" transform="scale(1 1) rotate(0) translate(4 143)">
<title>src/Ioss_ShellLine2D2.h</title>
<polygon fill="#ffffff" stroke="transparent" points="-4,4 -4,-143 280.3887,-143 280.3887,4 -4,4"/>
<!-- Node11 -->
<g id="node1" class="node">
<title>Node11</title>
<polygon fill="#bfbfbf" stroke="#000000" points="73.8301,-120.5 73.8301,-138.5 197.667,-138.5 197.667,-120.5 73.8301,-120.5"/>
<text text-anchor="middle" x="135.7485" y="-126.5" font-family="Helvetica,sans-Serif" font-size="10.00" fill="#000000">src/Ioss_ShellLine2D2.h</text>
</g>
<!-- Node12 -->
<g id="node2" class="node">
<title>Node12</title>
<g id="a_node2"><a xlink:href="$Ioss__ShellLine2D2_8C.html" xlink:title="src/Ioss_ShellLine2D2.C">
<polygon fill="#ffffff" stroke="#000000" points="0,-60.5 0,-78.5 125.4971,-78.5 125.4971,-60.5 0,-60.5"/>
<text text-anchor="middle" x="62.7485" y="-66.5" font-family="Helvetica,sans-Serif" font-size="10.00" fill="#000000">src/Ioss_ShellLine2D2.C</text>
</a>
</g>
</g>
<!-- Node11&#45;&gt;Node12 -->
<g id="edge1" class="edge">
<title>Node11&#45;&gt;Node12</title>
<path fill="none" stroke="#191970" d="M116.8401,-113.9588C103.2343,-102.7759 85.3422,-88.0702 73.94,-78.6985"/>
<polygon fill="#191970" stroke="#191970" points="114.7136,-116.7415 124.6614,-120.3873 119.1584,-111.3337 114.7136,-116.7415"/>
</g>
<!-- Node13 -->
<g id="node3" class="node">
<title>Node13</title>
<g id="a_node3"><a xlink:href="$Ioss__StandardElementTypes_8h.html" xlink:title="src/Ioss_StandardElement\lTypes.h">
<polygon fill="#ffffff" stroke="#000000" points="143.1084,-55.5 143.1084,-83.5 276.3887,-83.5 276.3887,-55.5 143.1084,-55.5"/>
<text text-anchor="start" x="151.1084" y="-71.5" font-family="Helvetica,sans-Serif" font-size="10.00" fill="#000000">src/Ioss_StandardElement</text>
<text text-anchor="middle" x="209.7485" y="-61.5" font-family="Helvetica,sans-Serif" font-size="10.00" fill="#000000">Types.h</text>
</a>
</g>
</g>
<!-- Node11&#45;&gt;Node13 -->
<g id="edge2" class="edge">
<title>Node11&#45;&gt;Node13</title>
<path fill="none" stroke="#191970" d="M154.7822,-114.0673C166.3682,-104.6732 181.0579,-92.7627 192.336,-83.6183"/>
<polygon fill="#191970" stroke="#191970" points="152.5508,-111.3706 146.9875,-120.3873 156.9594,-116.8079 152.5508,-111.3706"/>
</g>
<!-- Node14 -->
<g id="node4" class="node">
<title>Node14</title>
<g id="a_node4"><a xlink:href="$Ioss__Initializer_8C.html" xlink:title="src/Ioss_Initializer.C">
<polygon fill="#ffffff" stroke="#000000" points="157.2881,-.5 157.2881,-18.5 262.209,-18.5 262.209,-.5 157.2881,-.5"/>
<text text-anchor="middle" x="209.7485" y="-6.5" font-family="Helvetica,sans-Serif" font-size="10.00" fill="#000000">src/Ioss_Initializer.C</text>
</a>
</g>
</g>
<!-- Node13&#45;&gt;Node14 -->
<g id="edge3" class="edge">
<title>Node13&#45;&gt;Node14</title>
<path fill="none" stroke="#191970" d="M209.7485,-45.2151C209.7485,-35.8253 209.7485,-25.6598 209.7485,-18.5842"/>
<polygon fill="#191970" stroke="#191970" points="206.2486,-45.2808 209.7485,-55.2808 213.2486,-45.2809 206.2486,-45.2808"/>
</g>
</g>
</svg>
