<?xml version="1.0" encoding="UTF-8" standalone="no"?>
<!DOCTYPE svg PUBLIC "-//W3C//DTD SVG 1.1//EN"
 "http://www.w3.org/Graphics/SVG/1.1/DTD/svg11.dtd">
<!-- Generated by graphviz version 2.43.0 (0)
 -->
<!-- Title: src/Ioss_IOFactory.C Pages: 1 -->
<!--zoomable 302 -->
<svg id="main" version="1.1" xmlns="http://www.w3.org/2000/svg" xmlns:xlink="http://www.w3.org/1999/xlink" xml:space="preserve" onload="init(evt)">
<style type="text/css"><![CDATA[
.edge:hover path { stroke: red; }
.edge:hover polygon { stroke: red; fill: red; }
]]></style>
<script type="text/javascript"><![CDATA[
var edges = document.getElementsByTagName('g');
if (edges && edges.length) {
  for (var i=0;i<edges.length;i++) {
    if (edges[i].id.substr(0,4)=='edge') {
      edges[i].setAttribute('class','edge');
    }
  }
}
]]></script>
        <defs>
                <circle id="rim" cx="0" cy="0" r="7"/>
                <circle id="rim2" cx="0" cy="0" r="3.5"/>
                <g id="zoomPlus">
                        <use xlink:href="#rim" fill="#404040">
                                <set attributeName="fill" to="#808080" begin="zoomplus.mouseover" end="zoomplus.mouseout"/>
                        </use>
                        <path d="M-4,0h8M0,-4v8" fill="none" stroke="white" stroke-width="1.5" pointer-events="none"/>
                </g>
                <g id="zoomMin">
                        <use xlink:href="#rim" fill="#404040">
                                <set attributeName="fill" to="#808080" begin="zoomminus.mouseover" end="zoomminus.mouseout"/>
                        </use>
                        <path d="M-4,0h8" fill="none" stroke="white" stroke-width="1.5" pointer-events="none"/>
                </g>
                <g id="dirArrow">
                        <path fill="none" stroke="white" stroke-width="1.5" d="M0,-3.0v7 M-2.5,-0.5L0,-3.0L2.5,-0.5"/>
                </g>
               <g id="resetDef">
                       <use xlink:href="#rim2" fill="#404040">
                               <set attributeName="fill" to="#808080" begin="reset.mouseover" end="reset.mouseout"/>
                       </use>
               </g>
        </defs>

<script type="text/javascript">
var viewWidth = 1305;
var viewHeight = 302;
var sectionId = 'dynsection-0';
</script>
<script xlink:href="svgpan.js"/>
<svg id="graph" class="graph">
<g id="viewport">
<title>src/Ioss_IOFactory.C</title>
<polygon fill="white" stroke="transparent" points="-4,4 -4,-298 1301.02,-298 1301.02,4 -4,4"/>
<!-- Node1 -->
<g id="node1" class="node">
<title>Node1</title>
<g id="a_node1"><a xlink:title=" ">
<polygon fill="#bfbfbf" stroke="black" points="477.42,-275.5 477.42,-293.5 586.58,-293.5 586.58,-275.5 477.42,-275.5"/>
<text text-anchor="middle" x="532" y="-281.5" font-family="Helvetica,sans-Serif" font-size="10.00">src/Ioss_IOFactory.C</text>
</a>
</g>
</g>
<!-- Node2 -->
<g id="node2" class="node">
<title>Node2</title>
<g id="a_node2"><a xlink:href="Ioss__DBUsage_8h.html" target="_top" xlink:title=" ">
<polygon fill="white" stroke="black" points="66.48,-110.5 66.48,-128.5 157.52,-128.5 157.52,-110.5 66.48,-110.5"/>
<text text-anchor="middle" x="112" y="-116.5" font-family="Helvetica,sans-Serif" font-size="10.00">Ioss_DBUsage.h</text>
</a>
</g>
</g>
<!-- Node1&#45;&gt;Node2 -->
<g id="edge1" class="edge">
<title>Node1&#45;&gt;Node2</title>
<path fill="none" stroke="midnightblue" d="M477.15,-277.66C403.27,-267.8 269.79,-242.84 172,-184 152.17,-172.07 134.67,-151.8 123.76,-137.38"/>
<polygon fill="midnightblue" stroke="midnightblue" points="126.29,-134.91 117.58,-128.88 120.63,-139.03 126.29,-134.91"/>
</g>
<!-- Node3 -->
<g id="node3" class="node">
<title>Node3</title>
<g id="a_node3"><a xlink:href="Ioss__IOFactory_8h.html" target="_top" xlink:title=" ">
<polygon fill="white" stroke="black" points="360.3,-165.5 360.3,-183.5 451.7,-183.5 451.7,-165.5 360.3,-165.5"/>
<text text-anchor="middle" x="406" y="-171.5" font-family="Helvetica,sans-Serif" font-size="10.00">Ioss_IOFactory.h</text>
</a>
</g>
</g>
<!-- Node1&#45;&gt;Node3 -->
<g id="edge2" class="edge">
<title>Node1&#45;&gt;Node3</title>
<path fill="none" stroke="midnightblue" d="M498.96,-275.4C477.76,-268.72 450.94,-257.31 433,-239 420.7,-226.44 413.62,-207.41 409.83,-193.46"/>
<polygon fill="midnightblue" stroke="midnightblue" points="413.2,-192.48 407.45,-183.58 406.39,-194.12 413.2,-192.48"/>
</g>
<!-- Node6 -->
<g id="node6" class="node">
<title>Node6</title>
<g id="a_node6"><a xlink:title=" ">
<polygon fill="white" stroke="#bfbfbf" points="509.88,-0.5 509.88,-18.5 558.12,-18.5 558.12,-0.5 509.88,-0.5"/>
<text text-anchor="middle" x="534" y="-6.5" font-family="Helvetica,sans-Serif" font-size="10.00">cstddef</text>
</a>
</g>
</g>
<!-- Node1&#45;&gt;Node6 -->
<g id="edge49" class="edge">
<title>Node1&#45;&gt;Node6</title>
<path fill="none" stroke="midnightblue" d="M477.31,-283.04C331.02,-279.83 -51.06,-257.48 57,-110 109.7,-38.07 399.09,-17.13 499.6,-11.98"/>
<polygon fill="midnightblue" stroke="midnightblue" points="499.99,-15.47 509.81,-11.48 499.65,-8.48 499.99,-15.47"/>
</g>
<!-- Node8 -->
<g id="node8" class="node">
<title>Node8</title>
<g id="a_node8"><a xlink:title=" ">
<polygon fill="white" stroke="#bfbfbf" points="172.77,-0.5 172.77,-18.5 213.23,-18.5 213.23,-0.5 172.77,-0.5"/>
<text text-anchor="middle" x="193" y="-6.5" font-family="Helvetica,sans-Serif" font-size="10.00">string</text>
</a>
</g>
</g>
<!-- Node1&#45;&gt;Node8 -->
<g id="edge54" class="edge">
<title>Node1&#45;&gt;Node8</title>
<path fill="none" stroke="midnightblue" d="M477.07,-283.85C341.15,-283.24 0,-272.1 0,-175.5 0,-175.5 0,-175.5 0,-118.5 0,-44.89 108.24,-20.96 162.6,-13.58"/>
<polygon fill="midnightblue" stroke="midnightblue" points="163.22,-17.03 172.71,-12.32 162.35,-10.09 163.22,-17.03"/>
</g>
<!-- Node15 -->
<g id="node15" class="node">
<title>Node15</title>
<g id="a_node15"><a xlink:title=" ">
<polygon fill="white" stroke="#bfbfbf" points="214.27,-110.5 214.27,-128.5 249.73,-128.5 249.73,-110.5 214.27,-110.5"/>
<text text-anchor="middle" x="232" y="-116.5" font-family="Helvetica,sans-Serif" font-size="10.00">map</text>
</a>
</g>
</g>
<!-- Node1&#45;&gt;Node15 -->
<g id="edge51" class="edge">
<title>Node1&#45;&gt;Node15</title>
<path fill="none" stroke="midnightblue" d="M506.47,-275.4C482.52,-267.41 446.01,-254.22 416,-239 352.5,-206.8 283.38,-158.25 250.88,-134.54"/>
<polygon fill="midnightblue" stroke="midnightblue" points="252.86,-131.64 242.73,-128.54 248.71,-137.28 252.86,-131.64"/>
</g>
<!-- Node16 -->
<g id="node16" class="node">
<title>Node16</title>
<g id="a_node16"><a xlink:href="Ioss__ParallelUtils_8h.html" target="_top" xlink:title=" ">
<polygon fill="white" stroke="black" points="442.48,-220.5 442.48,-238.5 543.52,-238.5 543.52,-220.5 442.48,-220.5"/>
<text text-anchor="middle" x="493" y="-226.5" font-family="Helvetica,sans-Serif" font-size="10.00">Ioss_ParallelUtils.h</text>
</a>
</g>
</g>
<!-- Node1&#45;&gt;Node16 -->
<g id="edge24" class="edge">
<title>Node1&#45;&gt;Node16</title>
<path fill="none" stroke="midnightblue" d="M525.91,-275.22C520.32,-267.63 511.89,-256.18 504.96,-246.76"/>
<polygon fill="midnightblue" stroke="midnightblue" points="507.67,-244.53 498.92,-238.55 502.03,-248.68 507.67,-244.53"/>
</g>
<!-- Node17 -->
<g id="node17" class="node">
<title>Node17</title>
<g id="a_node17"><a xlink:href="Ioss__Utils_8h.html" target="_top" xlink:title=" ">
<polygon fill="white" stroke="black" points="875.16,-165.5 875.16,-183.5 942.84,-183.5 942.84,-165.5 875.16,-165.5"/>
<text text-anchor="middle" x="909" y="-171.5" font-family="Helvetica,sans-Serif" font-size="10.00">Ioss_Utils.h</text>
</a>
</g>
</g>
<!-- Node1&#45;&gt;Node17 -->
<g id="edge47" class="edge">
<title>Node1&#45;&gt;Node17</title>
<path fill="none" stroke="midnightblue" d="M536.96,-275.2C545.84,-261.17 565.89,-233.04 591,-220 695.7,-165.62 737.25,-201.01 854,-184 857.5,-183.49 861.12,-182.95 864.76,-182.4"/>
<polygon fill="midnightblue" stroke="midnightblue" points="865.62,-185.81 874.98,-180.85 864.57,-178.89 865.62,-185.81"/>
</g>
<!-- Node25 -->
<g id="node25" class="node">
<title>Node25</title>
<g id="a_node25"><a xlink:href="Ioss__Version_8h.html" target="_top" xlink:title=" ">
<polygon fill="white" stroke="black" points="600.2,-220.5 600.2,-238.5 681.8,-238.5 681.8,-220.5 600.2,-220.5"/>
<text text-anchor="middle" x="641" y="-226.5" font-family="Helvetica,sans-Serif" font-size="10.00">Ioss_Version.h</text>
</a>
</g>
</g>
<!-- Node1&#45;&gt;Node25 -->
<g id="edge48" class="edge">
<title>Node1&#45;&gt;Node25</title>
<path fill="none" stroke="midnightblue" d="M548.55,-275.45C566.24,-266.85 594.51,-253.1 615.14,-243.08"/>
<polygon fill="midnightblue" stroke="midnightblue" points="616.83,-246.15 624.29,-238.63 613.77,-239.85 616.83,-246.15"/>
</g>
<!-- Node26 -->
<g id="node26" class="node">
<title>Node26</title>
<g id="a_node26"><a xlink:title=" ">
<polygon fill="white" stroke="#bfbfbf" points="699.44,-220.5 699.44,-238.5 776.56,-238.5 776.56,-220.5 699.44,-220.5"/>
<text text-anchor="middle" x="738" y="-226.5" font-family="Helvetica,sans-Serif" font-size="10.00">fmt/ostream.h</text>
</a>
</g>
</g>
<!-- Node1&#45;&gt;Node26 -->
<g id="edge50" class="edge">
<title>Node1&#45;&gt;Node26</title>
<path fill="none" stroke="midnightblue" d="M563.29,-275.45C599.01,-266.26 657.58,-251.19 696.94,-241.06"/>
<polygon fill="midnightblue" stroke="midnightblue" points="697.94,-244.42 706.76,-238.54 696.2,-237.64 697.94,-244.42"/>
</g>
<!-- Node27 -->
<g id="node27" class="node">
<title>Node27</title>
<g id="a_node27"><a xlink:title=" ">
<polygon fill="white" stroke="#bfbfbf" points="794.94,-220.5 794.94,-238.5 847.06,-238.5 847.06,-220.5 794.94,-220.5"/>
<text text-anchor="middle" x="821" y="-226.5" font-family="Helvetica,sans-Serif" font-size="10.00">ostream</text>
</a>
</g>
</g>
<!-- Node1&#45;&gt;Node27 -->
<g id="edge52" class="edge">
<title>Node1&#45;&gt;Node27</title>
<path fill="none" stroke="midnightblue" d="M583.75,-275.44C633,-267.55 709.4,-254.71 784.56,-239.19"/>
<polygon fill="midnightblue" stroke="midnightblue" points="785.59,-242.55 794.67,-237.09 784.16,-235.7 785.59,-242.55"/>
</g>
<!-- Node28 -->
<g id="node28" class="node">
<title>Node28</title>
<g id="a_node28"><a xlink:title=" ">
<polygon fill="white" stroke="#bfbfbf" points="865.33,-220.5 865.33,-238.5 894.67,-238.5 894.67,-220.5 865.33,-220.5"/>
<text text-anchor="middle" x="880" y="-226.5" font-family="Helvetica,sans-Serif" font-size="10.00">set</text>
</a>
</g>
</g>
<!-- Node1&#45;&gt;Node28 -->
<g id="edge53" class="edge">
<title>Node1&#45;&gt;Node28</title>
<path fill="none" stroke="midnightblue" d="M586.81,-279.4C649.66,-273.94 755.78,-262.4 855.25,-238.69"/>
<polygon fill="midnightblue" stroke="midnightblue" points="856.27,-242.05 865.16,-236.28 854.62,-235.24 856.27,-242.05"/>
</g>
<!-- Node29 -->
<g id="node29" class="node">
<title>Node29</title>
<g id="a_node29"><a xlink:title=" ">
<polygon fill="white" stroke="#bfbfbf" points="912.61,-220.5 912.61,-238.5 951.39,-238.5 951.39,-220.5 912.61,-220.5"/>
<text text-anchor="middle" x="932" y="-226.5" font-family="Helvetica,sans-Serif" font-size="10.00">utility</text>
</a>
</g>
</g>
<!-- Node1&#45;&gt;Node29 -->
<g id="edge55" class="edge">
<title>Node1&#45;&gt;Node29</title>
<path fill="none" stroke="midnightblue" d="M586.7,-279.98C657.67,-274.74 785.38,-263.04 902.67,-238.95"/>
<polygon fill="midnightblue" stroke="midnightblue" points="903.46,-242.36 912.53,-236.89 902.03,-235.51 903.46,-242.36"/>
</g>
<!-- Node3&#45;&gt;Node2 -->
<g id="edge12" class="edge">
<title>Node3&#45;&gt;Node2</title>
<path fill="none" stroke="midnightblue" d="M361.35,-165.45C309.18,-156.05 222.86,-140.48 166.71,-130.36"/>
<polygon fill="midnightblue" stroke="midnightblue" points="167.05,-126.87 156.59,-128.54 165.81,-133.76 167.05,-126.87"/>
</g>
<!-- Node4 -->
<g id="node4" class="node">
<title>Node4</title>
<g id="a_node4"><a xlink:href="Ioss__CodeTypes_8h.html" target="_top" xlink:title=" ">
<polygon fill="white" stroke="black" points="789.58,-55.5 789.58,-73.5 888.42,-73.5 888.42,-55.5 789.58,-55.5"/>
<text text-anchor="middle" x="839" y="-61.5" font-family="Helvetica,sans-Serif" font-size="10.00">Ioss_CodeTypes.h</text>
</a>
</g>
</g>
<!-- Node3&#45;&gt;Node4 -->
<g id="edge3" class="edge">
<title>Node3&#45;&gt;Node4</title>
<path fill="none" stroke="midnightblue" d="M452,-172.14C539.55,-168.9 726.45,-158.64 783,-129 803.08,-118.48 819.29,-97.59 829,-82.64"/>
<polygon fill="midnightblue" stroke="midnightblue" points="832.16,-84.19 834.43,-73.85 826.2,-80.52 832.16,-84.19"/>
</g>
<!-- Node3&#45;&gt;Node8 -->
<g id="edge11" class="edge">
<title>Node3&#45;&gt;Node8</title>
<path fill="none" stroke="midnightblue" d="M386.8,-165.37C365.91,-156.49 331.54,-141.84 302,-129 282.84,-120.67 278.38,-117.8 259,-110 215.56,-92.53 186.86,-112.35 160,-74 149.16,-58.52 162.86,-39.01 175.76,-25.73"/>
<polygon fill="midnightblue" stroke="midnightblue" points="178.28,-28.16 183.07,-18.71 173.43,-23.11 178.28,-28.16"/>
</g>
<!-- Node9 -->
<g id="node9" class="node">
<title>Node9</title>
<g id="a_node9"><a xlink:title=" ">
<polygon fill="white" stroke="#bfbfbf" points="664.38,-0.5 664.38,-18.5 707.62,-18.5 707.62,-0.5 664.38,-0.5"/>
<text text-anchor="middle" x="686" y="-6.5" font-family="Helvetica,sans-Serif" font-size="10.00">vector</text>
</a>
</g>
</g>
<!-- Node3&#45;&gt;Node9 -->
<g id="edge23" class="edge">
<title>Node3&#45;&gt;Node9</title>
<path fill="none" stroke="midnightblue" d="M419.89,-165.42C464.95,-139.18 607.42,-56.24 663.25,-23.74"/>
<polygon fill="midnightblue" stroke="midnightblue" points="665.15,-26.69 672.03,-18.63 661.63,-20.64 665.15,-26.69"/>
</g>
<!-- Node12 -->
<g id="node12" class="node">
<title>Node12</title>
<g id="a_node12"><a xlink:href="Ioss__PropertyManager_8h.html" target="_top" xlink:title=" ">
<polygon fill="white" stroke="black" points="343.52,-110.5 343.52,-128.5 468.48,-128.5 468.48,-110.5 343.52,-110.5"/>
<text text-anchor="middle" x="406" y="-116.5" font-family="Helvetica,sans-Serif" font-size="10.00">Ioss_PropertyManager.h</text>
</a>
</g>
</g>
<!-- Node3&#45;&gt;Node12 -->
<g id="edge13" class="edge">
<title>Node3&#45;&gt;Node12</title>
<path fill="none" stroke="midnightblue" d="M406,-165.22C406,-158.18 406,-147.81 406,-138.83"/>
<polygon fill="midnightblue" stroke="midnightblue" points="409.5,-138.55 406,-128.55 402.5,-138.55 409.5,-138.55"/>
</g>
<!-- Node3&#45;&gt;Node15 -->
<g id="edge22" class="edge">
<title>Node3&#45;&gt;Node15</title>
<path fill="none" stroke="midnightblue" d="M379.57,-165.45C347.32,-155.63 293.01,-139.08 260.04,-129.04"/>
<polygon fill="midnightblue" stroke="midnightblue" points="260.72,-125.59 250.14,-126.03 258.69,-132.29 260.72,-125.59"/>
</g>
<!-- Node5 -->
<g id="node5" class="node">
<title>Node5</title>
<g id="a_node5"><a xlink:title=" ">
<polygon fill="white" stroke="#bfbfbf" points="725.61,-0.5 725.61,-18.5 764.39,-18.5 764.39,-0.5 725.61,-0.5"/>
<text text-anchor="middle" x="745" y="-6.5" font-family="Helvetica,sans-Serif" font-size="10.00">array</text>
</a>
</g>
</g>
<!-- Node4&#45;&gt;Node5 -->
<g id="edge4" class="edge">
<title>Node4&#45;&gt;Node5</title>
<path fill="none" stroke="midnightblue" d="M824.72,-55.45C809.82,-47.05 786.19,-33.72 768.52,-23.76"/>
<polygon fill="midnightblue" stroke="midnightblue" points="769.84,-20.49 759.41,-18.63 766.4,-26.59 769.84,-20.49"/>
</g>
<!-- Node4&#45;&gt;Node6 -->
<g id="edge5" class="edge">
<title>Node4&#45;&gt;Node6</title>
<path fill="none" stroke="midnightblue" d="M792.68,-55.45C730.99,-44.73 623.3,-26.02 568.36,-16.47"/>
<polygon fill="midnightblue" stroke="midnightblue" points="568.88,-13.01 558.42,-14.74 567.68,-19.9 568.88,-13.01"/>
</g>
<!-- Node7 -->
<g id="node7" class="node">
<title>Node7</title>
<g id="a_node7"><a xlink:title=" ">
<polygon fill="white" stroke="#bfbfbf" points="986.55,-0.5 986.55,-18.5 1031.45,-18.5 1031.45,-0.5 986.55,-0.5"/>
<text text-anchor="middle" x="1009" y="-6.5" font-family="Helvetica,sans-Serif" font-size="10.00">cstdint</text>
</a>
</g>
</g>
<!-- Node4&#45;&gt;Node7 -->
<g id="edge6" class="edge">
<title>Node4&#45;&gt;Node7</title>
<path fill="none" stroke="midnightblue" d="M864.82,-55.45C894.74,-46.12 944.09,-30.74 976.57,-20.61"/>
<polygon fill="midnightblue" stroke="midnightblue" points="977.97,-23.84 986.48,-17.52 975.89,-17.16 977.97,-23.84"/>
</g>
<!-- Node4&#45;&gt;Node8 -->
<g id="edge7" class="edge">
<title>Node4&#45;&gt;Node8</title>
<path fill="none" stroke="midnightblue" d="M789.38,-59.43C661.97,-48.98 326.11,-21.42 223.32,-12.99"/>
<polygon fill="midnightblue" stroke="midnightblue" points="223.56,-9.5 213.31,-12.17 222.99,-16.47 223.56,-9.5"/>
</g>
<!-- Node4&#45;&gt;Node9 -->
<g id="edge8" class="edge">
<title>Node4&#45;&gt;Node9</title>
<path fill="none" stroke="midnightblue" d="M815.76,-55.45C789.59,-46.38 746.9,-31.6 717.69,-21.48"/>
<polygon fill="midnightblue" stroke="midnightblue" points="718.56,-18.07 707.96,-18.11 716.27,-24.69 718.56,-18.07"/>
</g>
<!-- Node10 -->
<g id="node10" class="node">
<title>Node10</title>
<g id="a_node10"><a xlink:title=" ">
<polygon fill="white" stroke="#bfbfbf" points="782.25,-0.5 782.25,-18.5 897.75,-18.5 897.75,-0.5 782.25,-0.5"/>
<text text-anchor="middle" x="840" y="-6.5" font-family="Helvetica,sans-Serif" font-size="10.00">SEACASIoss_config.h</text>
</a>
</g>
</g>
<!-- Node4&#45;&gt;Node10 -->
<g id="edge9" class="edge">
<title>Node4&#45;&gt;Node10</title>
<path fill="none" stroke="midnightblue" d="M839.16,-55.22C839.29,-48.18 839.48,-37.81 839.65,-28.83"/>
<polygon fill="midnightblue" stroke="midnightblue" points="843.16,-28.61 839.85,-18.55 836.16,-28.48 843.16,-28.61"/>
</g>
<!-- Node11 -->
<g id="node11" class="node">
<title>Node11</title>
<g id="a_node11"><a xlink:title=" ">
<polygon fill="white" stroke="#bfbfbf" points="915.38,-0.5 915.38,-18.5 968.62,-18.5 968.62,-0.5 915.38,-0.5"/>
<text text-anchor="middle" x="942" y="-6.5" font-family="Helvetica,sans-Serif" font-size="10.00">complex</text>
</a>
</g>
</g>
<!-- Node4&#45;&gt;Node11 -->
<g id="edge10" class="edge">
<title>Node4&#45;&gt;Node11</title>
<path fill="none" stroke="midnightblue" d="M854.64,-55.45C871.28,-46.89 897.83,-33.23 917.3,-23.21"/>
<polygon fill="midnightblue" stroke="midnightblue" points="918.92,-26.31 926.21,-18.63 915.72,-20.09 918.92,-26.31"/>
</g>
<!-- Node12&#45;&gt;Node4 -->
<g id="edge14" class="edge">
<title>Node12&#45;&gt;Node4</title>
<path fill="none" stroke="midnightblue" d="M468.5,-110.85C551.6,-100.68 697.46,-82.82 779.18,-72.82"/>
<polygon fill="midnightblue" stroke="midnightblue" points="779.81,-76.27 789.31,-71.58 778.96,-69.32 779.81,-76.27"/>
</g>
<!-- Node12&#45;&gt;Node6 -->
<g id="edge18" class="edge">
<title>Node12&#45;&gt;Node6</title>
<path fill="none" stroke="midnightblue" d="M415.62,-110.38C437.03,-92.32 488.85,-48.59 516.29,-25.44"/>
<polygon fill="midnightblue" stroke="midnightblue" points="518.88,-27.84 524.27,-18.71 514.37,-22.49 518.88,-27.84"/>
</g>
<!-- Node12&#45;&gt;Node8 -->
<g id="edge19" class="edge">
<title>Node12&#45;&gt;Node8</title>
<path fill="none" stroke="midnightblue" d="M357.43,-110.43C312.87,-102.28 250.86,-88.8 231,-74 215.57,-62.5 205.18,-42.71 199.22,-28.28"/>
<polygon fill="midnightblue" stroke="midnightblue" points="202.34,-26.62 195.52,-18.51 195.79,-29.1 202.34,-26.62"/>
</g>
<!-- Node12&#45;&gt;Node9 -->
<g id="edge21" class="edge">
<title>Node12&#45;&gt;Node9</title>
<path fill="none" stroke="midnightblue" d="M427.05,-110.38C476.12,-91.45 598.29,-44.33 655.52,-22.26"/>
<polygon fill="midnightblue" stroke="midnightblue" points="657.02,-25.43 665.09,-18.56 654.5,-18.9 657.02,-25.43"/>
</g>
<!-- Node13 -->
<g id="node13" class="node">
<title>Node13</title>
<g id="a_node13"><a xlink:href="Ioss__Property_8h.html" target="_top" xlink:title=" ">
<polygon fill="white" stroke="black" points="344.35,-55.5 344.35,-73.5 429.65,-73.5 429.65,-55.5 344.35,-55.5"/>
<text text-anchor="middle" x="387" y="-61.5" font-family="Helvetica,sans-Serif" font-size="10.00">Ioss_Property.h</text>
</a>
</g>
</g>
<!-- Node12&#45;&gt;Node13 -->
<g id="edge15" class="edge">
<title>Node12&#45;&gt;Node13</title>
<path fill="none" stroke="midnightblue" d="M403.03,-110.22C400.45,-103.02 396.62,-92.35 393.36,-83.23"/>
<polygon fill="midnightblue" stroke="midnightblue" points="396.56,-81.78 389.89,-73.55 389.97,-84.14 396.56,-81.78"/>
</g>
<!-- Node14 -->
<g id="node14" class="node">
<title>Node14</title>
<g id="a_node14"><a xlink:title=" ">
<polygon fill="white" stroke="#bfbfbf" points="239.7,-55.5 239.7,-73.5 326.3,-73.5 326.3,-55.5 239.7,-55.5"/>
<text text-anchor="middle" x="283" y="-61.5" font-family="Helvetica,sans-Serif" font-size="10.00">unordered_map</text>
</a>
</g>
</g>
<!-- Node12&#45;&gt;Node14 -->
<g id="edge20" class="edge">
<title>Node12&#45;&gt;Node14</title>
<path fill="none" stroke="midnightblue" d="M387.32,-110.45C367.09,-101.73 334.59,-87.73 311.24,-77.67"/>
<polygon fill="midnightblue" stroke="midnightblue" points="312.43,-74.37 301.86,-73.63 309.66,-80.8 312.43,-74.37"/>
</g>
<!-- Node13&#45;&gt;Node7 -->
<g id="edge16" class="edge">
<title>Node13&#45;&gt;Node7</title>
<path fill="none" stroke="midnightblue" d="M429.99,-63.09C526.42,-61.56 767.29,-54.37 976.49,-18.94"/>
<polygon fill="midnightblue" stroke="midnightblue" points="977.16,-22.37 986.43,-17.23 975.98,-15.47 977.16,-22.37"/>
</g>
<!-- Node13&#45;&gt;Node8 -->
<g id="edge17" class="edge">
<title>Node13&#45;&gt;Node8</title>
<path fill="none" stroke="midnightblue" d="M357.54,-55.45C321.36,-45.57 260.3,-28.89 223.61,-18.86"/>
<polygon fill="midnightblue" stroke="midnightblue" points="224.07,-15.36 213.5,-16.1 222.22,-22.11 224.07,-15.36"/>
</g>
<!-- Node16&#45;&gt;Node4 -->
<g id="edge25" class="edge">
<title>Node16&#45;&gt;Node4</title>
<path fill="none" stroke="midnightblue" d="M530.92,-220.46C605.05,-204.13 765.64,-165.5 808,-129 821.77,-117.13 829.99,-97.72 834.47,-83.48"/>
<polygon fill="midnightblue" stroke="midnightblue" points="837.85,-84.38 837.19,-73.81 831.11,-82.48 837.85,-84.38"/>
</g>
<!-- Node16&#45;&gt;Node6 -->
<g id="edge44" class="edge">
<title>Node16&#45;&gt;Node6</title>
<path fill="none" stroke="midnightblue" d="M494.51,-220.48C500.42,-189.04 522.12,-73.67 530.59,-28.66"/>
<polygon fill="midnightblue" stroke="midnightblue" points="534.03,-29.3 532.43,-18.82 527.15,-28 534.03,-29.3"/>
</g>
<!-- Node16&#45;&gt;Node8 -->
<g id="edge45" class="edge">
<title>Node16&#45;&gt;Node8</title>
<path fill="none" stroke="midnightblue" d="M448.66,-220.47C389.28,-208.17 282.42,-180.48 205,-129 176.99,-110.37 165.44,-105.26 153,-74 145.83,-55.99 160.51,-37.46 174.06,-25.1"/>
<polygon fill="midnightblue" stroke="midnightblue" points="176.37,-27.73 181.73,-18.59 171.85,-22.39 176.37,-27.73"/>
</g>
<!-- Node16&#45;&gt;Node9 -->
<g id="edge46" class="edge">
<title>Node16&#45;&gt;Node9</title>
<path fill="none" stroke="midnightblue" d="M499.46,-220.29C514.87,-200.78 555.17,-150.31 591,-110 618.21,-79.39 651.6,-45.13 670.68,-25.86"/>
<polygon fill="midnightblue" stroke="midnightblue" points="673.35,-28.13 677.92,-18.57 668.39,-23.2 673.35,-28.13"/>
</g>
<!-- Node16&#45;&gt;Node17 -->
<g id="edge26" class="edge">
<title>Node16&#45;&gt;Node17</title>
<path fill="none" stroke="midnightblue" d="M543.74,-221.82C548.56,-221.2 553.37,-220.58 558,-220 689.48,-203.41 722.72,-202.12 854,-184 857.5,-183.52 861.13,-183 864.77,-182.46"/>
<polygon fill="midnightblue" stroke="midnightblue" points="865.62,-185.87 874.99,-180.93 864.58,-178.95 865.62,-185.87"/>
</g>
<!-- Node20 -->
<g id="node20" class="node">
<title>Node20</title>
<g id="a_node20"><a xlink:title=" ">
<polygon fill="white" stroke="#bfbfbf" points="599.88,-110.5 599.88,-128.5 648.12,-128.5 648.12,-110.5 599.88,-110.5"/>
<text text-anchor="middle" x="624" y="-116.5" font-family="Helvetica,sans-Serif" font-size="10.00">cassert</text>
</a>
</g>
</g>
<!-- Node16&#45;&gt;Node20 -->
<g id="edge43" class="edge">
<title>Node16&#45;&gt;Node20</title>
<path fill="none" stroke="midnightblue" d="M519.89,-220.37C539.9,-213.27 566.95,-201.36 586,-184 600.08,-171.18 610.59,-151.91 616.95,-137.97"/>
<polygon fill="midnightblue" stroke="midnightblue" points="620.27,-139.11 620.99,-128.54 613.84,-136.35 620.27,-139.11"/>
</g>
<!-- Node17&#45;&gt;Node4 -->
<g id="edge27" class="edge">
<title>Node17&#45;&gt;Node4</title>
<path fill="none" stroke="midnightblue" d="M903.74,-165.38C892.34,-147.79 865.15,-105.85 849.88,-82.29"/>
<polygon fill="midnightblue" stroke="midnightblue" points="852.7,-80.2 844.32,-73.71 846.82,-84.01 852.7,-80.2"/>
</g>
<!-- Node17&#45;&gt;Node6 -->
<g id="edge36" class="edge">
<title>Node17&#45;&gt;Node6</title>
<path fill="none" stroke="midnightblue" d="M875.01,-170.92C831.62,-166.64 754.97,-155.7 695,-129 657.24,-112.19 653.29,-98.5 620,-74 596.96,-57.05 570.49,-37.49 553.07,-24.61"/>
<polygon fill="midnightblue" stroke="midnightblue" points="554.97,-21.66 544.85,-18.53 550.81,-27.29 554.97,-21.66"/>
</g>
<!-- Node17&#45;&gt;Node7 -->
<g id="edge37" class="edge">
<title>Node17&#45;&gt;Node7</title>
<path fill="none" stroke="midnightblue" d="M943.03,-171.98C1030.98,-167.72 1260.58,-154.24 1283,-129 1354.61,-48.37 1128.81,-20.53 1041.75,-12.93"/>
<polygon fill="midnightblue" stroke="midnightblue" points="1041.87,-9.42 1031.61,-12.08 1041.28,-16.4 1041.87,-9.42"/>
</g>
<!-- Node17&#45;&gt;Node8 -->
<g id="edge41" class="edge">
<title>Node17&#45;&gt;Node8</title>
<path fill="none" stroke="midnightblue" d="M874.94,-172.49C767.69,-169.04 437.98,-156.44 335,-129 315.98,-123.93 312.94,-118.1 295,-110 257.98,-93.28 237.81,-104.51 211,-74 200.01,-61.49 195.69,-42.73 194.02,-28.83"/>
<polygon fill="midnightblue" stroke="midnightblue" points="197.48,-28.22 193.15,-18.56 190.51,-28.82 197.48,-28.22"/>
</g>
<!-- Node17&#45;&gt;Node9 -->
<g id="edge42" class="edge">
<title>Node17&#45;&gt;Node9</title>
<path fill="none" stroke="midnightblue" d="M911.08,-165.31C915.96,-144.05 925.63,-86.54 897,-55 844.25,3.1 799.89,-34.66 717.59,-18.79"/>
<polygon fill="midnightblue" stroke="midnightblue" points="718.14,-15.33 707.63,-16.64 716.67,-22.17 718.14,-15.33"/>
</g>
<!-- Node18 -->
<g id="node18" class="node">
<title>Node18</title>
<g id="a_node18"><a xlink:href="Ioss__Field_8h.html" target="_top" xlink:title=" ">
<polygon fill="white" stroke="black" points="704.04,-110.5 704.04,-128.5 773.96,-128.5 773.96,-110.5 704.04,-110.5"/>
<text text-anchor="middle" x="739" y="-116.5" font-family="Helvetica,sans-Serif" font-size="10.00">Ioss_Field.h</text>
</a>
</g>
</g>
<!-- Node17&#45;&gt;Node18 -->
<g id="edge28" class="edge">
<title>Node17&#45;&gt;Node18</title>
<path fill="none" stroke="midnightblue" d="M883.18,-165.45C854.14,-156.4 806.8,-141.64 774.34,-131.52"/>
<polygon fill="midnightblue" stroke="midnightblue" points="775.37,-128.17 764.78,-128.54 773.29,-134.86 775.37,-128.17"/>
</g>
<!-- Node19 -->
<g id="node19" class="node">
<title>Node19</title>
<g id="a_node19"><a xlink:title=" ">
<polygon fill="white" stroke="#bfbfbf" points="944.44,-110.5 944.44,-128.5 1001.56,-128.5 1001.56,-110.5 944.44,-110.5"/>
<text text-anchor="middle" x="973" y="-116.5" font-family="Helvetica,sans-Serif" font-size="10.00">algorithm</text>
</a>
</g>
</g>
<!-- Node17&#45;&gt;Node19 -->
<g id="edge33" class="edge">
<title>Node17&#45;&gt;Node19</title>
<path fill="none" stroke="midnightblue" d="M918.72,-165.45C928.4,-157.43 943.48,-144.95 955.29,-135.17"/>
<polygon fill="midnightblue" stroke="midnightblue" points="957.72,-137.7 963.19,-128.63 953.25,-132.31 957.72,-137.7"/>
</g>
<!-- Node17&#45;&gt;Node20 -->
<g id="edge34" class="edge">
<title>Node17&#45;&gt;Node20</title>
<path fill="none" stroke="midnightblue" d="M874.95,-167.83C827.24,-159.78 737.81,-144.3 662,-129 660.91,-128.78 659.8,-128.55 658.68,-128.32"/>
<polygon fill="midnightblue" stroke="midnightblue" points="659.01,-124.81 648.5,-126.14 657.54,-131.66 659.01,-124.81"/>
</g>
<!-- Node21 -->
<g id="node21" class="node">
<title>Node21</title>
<g id="a_node21"><a xlink:title=" ">
<polygon fill="white" stroke="#bfbfbf" points="1019.38,-110.5 1019.38,-128.5 1062.62,-128.5 1062.62,-110.5 1019.38,-110.5"/>
<text text-anchor="middle" x="1041" y="-116.5" font-family="Helvetica,sans-Serif" font-size="10.00">cmath</text>
</a>
</g>
</g>
<!-- Node17&#45;&gt;Node21 -->
<g id="edge35" class="edge">
<title>Node17&#45;&gt;Node21</title>
<path fill="none" stroke="midnightblue" d="M929.05,-165.45C950.95,-156.66 986.26,-142.48 1011.36,-132.4"/>
<polygon fill="midnightblue" stroke="midnightblue" points="1012.79,-135.6 1020.76,-128.63 1010.18,-129.1 1012.79,-135.6"/>
</g>
<!-- Node22 -->
<g id="node22" class="node">
<title>Node22</title>
<g id="a_node22"><a xlink:title=" ">
<polygon fill="white" stroke="#bfbfbf" points="1080.83,-110.5 1080.83,-128.5 1125.17,-128.5 1125.17,-110.5 1080.83,-110.5"/>
<text text-anchor="middle" x="1103" y="-116.5" font-family="Helvetica,sans-Serif" font-size="10.00">cstdlib</text>
</a>
</g>
</g>
<!-- Node17&#45;&gt;Node22 -->
<g id="edge38" class="edge">
<title>Node17&#45;&gt;Node22</title>
<path fill="none" stroke="midnightblue" d="M938.45,-165.47C969.18,-157.09 1019.03,-143.49 1070.94,-129.29"/>
<polygon fill="midnightblue" stroke="midnightblue" points="1071.93,-132.65 1080.65,-126.63 1070.08,-125.89 1071.93,-132.65"/>
</g>
<!-- Node23 -->
<g id="node23" class="node">
<title>Node23</title>
<g id="a_node23"><a xlink:title=" ">
<polygon fill="white" stroke="#bfbfbf" points="1142.83,-110.5 1142.83,-128.5 1197.17,-128.5 1197.17,-110.5 1142.83,-110.5"/>
<text text-anchor="middle" x="1170" y="-116.5" font-family="Helvetica,sans-Serif" font-size="10.00">iostream</text>
</a>
</g>
</g>
<!-- Node17&#45;&gt;Node23 -->
<g id="edge39" class="edge">
<title>Node17&#45;&gt;Node23</title>
<path fill="none" stroke="midnightblue" d="M943.01,-167.18C985.24,-159.23 1059.73,-144.94 1132.69,-129.23"/>
<polygon fill="midnightblue" stroke="midnightblue" points="1133.47,-132.64 1142.51,-127.1 1131.99,-125.8 1133.47,-132.64"/>
</g>
<!-- Node24 -->
<g id="node24" class="node">
<title>Node24</title>
<g id="a_node24"><a xlink:title=" ">
<polygon fill="white" stroke="#bfbfbf" points="1215.6,-110.5 1215.6,-128.5 1274.4,-128.5 1274.4,-110.5 1215.6,-110.5"/>
<text text-anchor="middle" x="1245" y="-116.5" font-family="Helvetica,sans-Serif" font-size="10.00">stdexcept</text>
</a>
</g>
</g>
<!-- Node17&#45;&gt;Node24 -->
<g id="edge40" class="edge">
<title>Node17&#45;&gt;Node24</title>
<path fill="none" stroke="midnightblue" d="M942.97,-169.15C996.49,-162.14 1103.92,-147.41 1205.14,-129.05"/>
<polygon fill="midnightblue" stroke="midnightblue" points="1206.02,-132.44 1215.23,-127.2 1204.76,-125.56 1206.02,-132.44"/>
</g>
<!-- Node18&#45;&gt;Node4 -->
<g id="edge29" class="edge">
<title>Node18&#45;&gt;Node4</title>
<path fill="none" stroke="midnightblue" d="M754.19,-110.45C770.27,-101.93 795.88,-88.35 814.76,-78.35"/>
<polygon fill="midnightblue" stroke="midnightblue" points="816.47,-81.4 823.67,-73.63 813.19,-75.22 816.47,-81.4"/>
</g>
<!-- Node18&#45;&gt;Node6 -->
<g id="edge30" class="edge">
<title>Node18&#45;&gt;Node6</title>
<path fill="none" stroke="midnightblue" d="M724.95,-110.47C703.39,-98.22 660.78,-74.24 624,-55 602.76,-43.89 578.36,-31.87 560.34,-23.13"/>
<polygon fill="midnightblue" stroke="midnightblue" points="561.56,-19.84 551.03,-18.64 558.52,-26.14 561.56,-19.84"/>
</g>
<!-- Node18&#45;&gt;Node8 -->
<g id="edge31" class="edge">
<title>Node18&#45;&gt;Node8</title>
<path fill="none" stroke="midnightblue" d="M703.97,-110.73C648.05,-98.41 535.12,-73.86 439,-55 361.56,-39.8 270.02,-23.74 223.48,-15.71"/>
<polygon fill="midnightblue" stroke="midnightblue" points="223.9,-12.24 213.45,-13.99 222.71,-19.13 223.9,-12.24"/>
</g>
<!-- Node18&#45;&gt;Node9 -->
<g id="edge32" class="edge">
<title>Node18&#45;&gt;Node9</title>
<path fill="none" stroke="midnightblue" d="M740.94,-110.2C743.44,-97.59 746.54,-73.16 738,-55 732.08,-42.4 720.68,-32.01 710.06,-24.45"/>
<polygon fill="midnightblue" stroke="midnightblue" points="711.74,-21.36 701.46,-18.77 707.88,-27.2 711.74,-21.36"/>
</g>
</g>
</svg>
        <g id="navigator" transform="translate(0 0)" fill="#404254">
                <rect fill="#f2f5e9" fill-opacity="0.5" stroke="#606060" stroke-width=".5" x="0" y="0" width="60" height="60"/>
                <use id="zoomplus" xlink:href="#zoomPlus" x="17" y="9" onmousedown="handleZoom(evt,'in')"/>
                <use id="zoomminus" xlink:href="#zoomMin" x="42" y="9" onmousedown="handleZoom(evt,'out')"/>
                <use id="reset" xlink:href="#resetDef" x="30" y="36" onmousedown="handleReset()"/>
                <g id="arrowUp" xlink:href="#dirArrow" transform="translate(30 24)" onmousedown="handlePan(0,-1)">
                  <use xlink:href="#rim" fill="#404040">
                        <set attributeName="fill" to="#808080" begin="arrowUp.mouseover" end="arrowUp.mouseout"/>
                  </use>
                  <path fill="none" stroke="white" stroke-width="1.5" d="M0,-3.0v7 M-2.5,-0.5L0,-3.0L2.5,-0.5"/>
                </g>
                <g id="arrowRight" xlink:href="#dirArrow" transform="rotate(90) translate(36 -43)" onmousedown="handlePan(1,0)">
                  <use xlink:href="#rim" fill="#404040">
                        <set attributeName="fill" to="#808080" begin="arrowRight.mouseover" end="arrowRight.mouseout"/>
                  </use>
                  <path fill="none" stroke="white" stroke-width="1.5" d="M0,-3.0v7 M-2.5,-0.5L0,-3.0L2.5,-0.5"/>
                </g>
                <g id="arrowDown" xlink:href="#dirArrow" transform="rotate(180) translate(-30 -48)" onmousedown="handlePan(0,1)">
                  <use xlink:href="#rim" fill="#404040">
                        <set attributeName="fill" to="#808080" begin="arrowDown.mouseover" end="arrowDown.mouseout"/>
                  </use>
                  <path fill="none" stroke="white" stroke-width="1.5" d="M0,-3.0v7 M-2.5,-0.5L0,-3.0L2.5,-0.5"/>
                </g>
                <g id="arrowLeft" xlink:href="#dirArrow" transform="rotate(270) translate(-36 17)" onmousedown="handlePan(-1,0)">
                  <use xlink:href="#rim" fill="#404040">
                        <set attributeName="fill" to="#808080" begin="arrowLeft.mouseover" end="arrowLeft.mouseout"/>
                  </use>
                  <path fill="none" stroke="white" stroke-width="1.5" d="M0,-3.0v7 M-2.5,-0.5L0,-3.0L2.5,-0.5"/>
                </g>
        </g>
        <svg viewBox="0 0 15 15" width="100%" height="30px" preserveAspectRatio="xMaxYMin meet">
         <g id="arrow_out" transform="scale(0.3 0.3)">
          <a xlink:href="Ioss__IOFactory_8C__incl_org.svg" target="_base">
           <rect id="button" ry="5" rx="5" y="6" x="6" height="38" width="38"
                fill="#f2f5e9" fill-opacity="0.5" stroke="#606060" stroke-width="1.0"/>
           <path id="arrow"
             d="M 11.500037,31.436501 C 11.940474,20.09759 22.043105,11.32322 32.158766,21.979434 L 37.068811,17.246167 C 37.068811,17.246167 37.088388,32 37.088388,32 L 22.160133,31.978069 C 22.160133,31.978069 26.997745,27.140456 26.997745,27.140456 C 18.528582,18.264221 13.291696,25.230495 11.500037,31.436501 z"
             style="fill:#404040;"/>
          </a>
         </g>
        </svg>
</svg>
