<?xml version="1.0" encoding="UTF-8" standalone="no"?>
<!DOCTYPE svg PUBLIC "-//W3C//DTD SVG 1.1//EN"
 "http://www.w3.org/Graphics/SVG/1.1/DTD/svg11.dtd">
<!-- Generated by graphviz version 2.42.3 (20191010.1750)
 -->
<!-- Title: src/Ioss_CompositeVariableType.C Pages: 1 -->
<!--zoomable 367 -->
<svg id="main" version="1.1" xmlns="http://www.w3.org/2000/svg" xmlns:xlink="http://www.w3.org/1999/xlink" xml:space="preserve" onload="init(evt)">
<style type="text/css"><![CDATA[
.edge:hover path { stroke: red; }
.edge:hover polygon { stroke: red; fill: red; }
]]></style>
<script type="text/javascript"><![CDATA[
var edges = document.getElementsByTagName('g');
if (edges && edges.length) {
  for (var i=0;i<edges.length;i++) {
    if (edges[i].id.substr(0,4)=='edge') {
      edges[i].setAttribute('class','edge');
    }
  }
}
]]></script>
        <defs>
                <circle id="rim" cx="0" cy="0" r="7"/>
                <circle id="rim2" cx="0" cy="0" r="3.5"/>
                <g id="zoomPlus">
                        <use xlink:href="#rim" fill="#404040">
                                <set attributeName="fill" to="#808080" begin="zoomplus.mouseover" end="zoomplus.mouseout"/>
                        </use>
                        <path d="M-4,0h8M0,-4v8" fill="none" stroke="white" stroke-width="1.5" pointer-events="none"/>
                </g>
                <g id="zoomMin">
                        <use xlink:href="#rim" fill="#404040">
                                <set attributeName="fill" to="#808080" begin="zoomminus.mouseover" end="zoomminus.mouseout"/>
                        </use>
                        <path d="M-4,0h8" fill="none" stroke="white" stroke-width="1.5" pointer-events="none"/>
                </g>
                <g id="dirArrow">
                        <path fill="none" stroke="white" stroke-width="1.5" d="M0,-3.0v7 M-2.5,-0.5L0,-3.0L2.5,-0.5"/>
                </g>
               <g id="resetDef">
                       <use xlink:href="#rim2" fill="#404040">
                               <set attributeName="fill" to="#808080" begin="reset.mouseover" end="reset.mouseout"/>
                       </use>
               </g>
        </defs>

<script type="text/javascript">
var viewWidth = 994;
var viewHeight = 367;
var sectionId = 'dynsection-0';
</script>
<script xlink:href="svgpan.js"/>
<svg id="graph" class="graph">
<g id="viewport">
<title>src/Ioss_CompositeVariableType.C</title>
<polygon fill="white" stroke="transparent" points="-4,4 -4,-363 989.83,-363 989.83,4 -4,4"/>
<!-- Node1 -->
<g id="node1" class="node">
<title>Node1</title>
<g id="a_node1"><a xlink:title=" ">
<polygon fill="#bfbfbf" stroke="black" points="732.56,-330.5 732.56,-358.5 872.32,-358.5 872.32,-330.5 732.56,-330.5"/>
<text text-anchor="start" x="740.56" y="-346.5" font-family="Helvetica,sans-Serif" font-size="10.00">src/Ioss_CompositeVariable</text>
<text text-anchor="middle" x="802.44" y="-336.5" font-family="Helvetica,sans-Serif" font-size="10.00">Type.C</text>
</a>
</g>
</g>
<!-- Node2 -->
<g id="node2" class="node">
<title>Node2</title>
<g id="a_node2"><a xlink:href="Ioss__CompositeVariableType_8h.html" target="_top" xlink:title=" ">
<polygon fill="white" stroke="black" points="601.6,-275.5 601.6,-293.5 755.28,-293.5 755.28,-275.5 601.6,-275.5"/>
<text text-anchor="middle" x="678.44" y="-281.5" font-family="Helvetica,sans-Serif" font-size="10.00">Ioss_CompositeVariableType.h</text>
</a>
</g>
</g>
<!-- Node1&#45;&gt;Node2 -->
<g id="edge1" class="edge">
<title>Node1&#45;&gt;Node2</title>
<path fill="none" stroke="midnightblue" d="M774.61,-330.48C753.78,-320.74 725.45,-307.49 704.95,-297.9"/>
<polygon fill="midnightblue" stroke="midnightblue" points="706.39,-294.71 695.85,-293.64 703.43,-301.05 706.39,-294.71"/>
</g>
<!-- Node3 -->
<g id="node3" class="node">
<title>Node3</title>
<g id="a_node3"><a xlink:href="Ioss__VariableType_8h.html" target="_top" xlink:title=" ">
<polygon fill="white" stroke="black" points="520.5,-220.5 520.5,-238.5 626.38,-238.5 626.38,-220.5 520.5,-220.5"/>
<text text-anchor="middle" x="573.44" y="-226.5" font-family="Helvetica,sans-Serif" font-size="10.00">Ioss_VariableType.h</text>
</a>
</g>
</g>
<!-- Node1&#45;&gt;Node3 -->
<g id="edge35" class="edge">
<title>Node1&#45;&gt;Node3</title>
<path fill="none" stroke="midnightblue" d="M732.35,-334.61C679.42,-326.54 612.58,-312.98 592.44,-294 580.15,-282.42 575.71,-263.24 574.15,-248.99"/>
<polygon fill="midnightblue" stroke="midnightblue" points="577.63,-248.58 573.43,-238.85 570.65,-249.08 577.63,-248.58"/>
</g>
<!-- Node8 -->
<g id="node8" class="node">
<title>Node8</title>
<g id="a_node8"><a xlink:title=" ">
<polygon fill="white" stroke="#bfbfbf" points="652.21,-0.5 652.21,-18.5 692.67,-18.5 692.67,-0.5 652.21,-0.5"/>
<text text-anchor="middle" x="672.44" y="-6.5" font-family="Helvetica,sans-Serif" font-size="10.00">string</text>
</a>
</g>
</g>
<!-- Node1&#45;&gt;Node8 -->
<g id="edge39" class="edge">
<title>Node1&#45;&gt;Node8</title>
<path fill="none" stroke="midnightblue" d="M814.25,-330.33C830.95,-310.29 859.44,-270.27 859.44,-230.5 859.44,-230.5 859.44,-230.5 859.44,-118.5 859.44,-47.12 756.02,-22.18 703,-14.08"/>
<polygon fill="midnightblue" stroke="midnightblue" points="703.2,-10.57 692.81,-12.64 702.22,-17.51 703.2,-10.57"/>
</g>
<!-- Node12 -->
<g id="node12" class="node">
<title>Node12</title>
<g id="a_node12"><a xlink:href="Ioss__Utils_8h.html" target="_top" xlink:title=" ">
<polygon fill="white" stroke="black" points="364.6,-165.5 364.6,-183.5 432.28,-183.5 432.28,-165.5 364.6,-165.5"/>
<text text-anchor="middle" x="398.44" y="-171.5" font-family="Helvetica,sans-Serif" font-size="10.00">Ioss_Utils.h</text>
</a>
</g>
</g>
<!-- Node1&#45;&gt;Node12 -->
<g id="edge34" class="edge">
<title>Node1&#45;&gt;Node12</title>
<path fill="none" stroke="midnightblue" d="M732.48,-334.89C687.01,-327.67 627.16,-315.06 577.44,-294 512.79,-266.61 446.35,-215.36 415.77,-190.2"/>
<polygon fill="midnightblue" stroke="midnightblue" points="417.72,-187.27 407.8,-183.56 413.24,-192.64 417.72,-187.27"/>
</g>
<!-- Node15 -->
<g id="node15" class="node">
<title>Node15</title>
<g id="a_node15"><a xlink:title=" ">
<polygon fill="white" stroke="#bfbfbf" points="770.33,-110.5 770.33,-128.5 818.56,-128.5 818.56,-110.5 770.33,-110.5"/>
<text text-anchor="middle" x="794.44" y="-116.5" font-family="Helvetica,sans-Serif" font-size="10.00">cassert</text>
</a>
</g>
</g>
<!-- Node1&#45;&gt;Node15 -->
<g id="edge36" class="edge">
<title>Node1&#45;&gt;Node15</title>
<path fill="none" stroke="midnightblue" d="M803.78,-330.49C804.74,-320.52 805.94,-306.41 806.44,-294 808.1,-252.89 806.41,-201.9 802.44,-165 801.51,-156.3 799.87,-146.74 798.32,-138.72"/>
<polygon fill="midnightblue" stroke="midnightblue" points="801.69,-137.75 796.26,-128.65 794.83,-139.15 801.69,-137.75"/>
</g>
<!-- Node22 -->
<g id="node22" class="node">
<title>Node22</title>
<g id="a_node22"><a xlink:title=" ">
<polygon fill="white" stroke="#bfbfbf" points="757.71,-165.5 757.71,-183.5 793.17,-183.5 793.17,-165.5 757.71,-165.5"/>
<text text-anchor="middle" x="775.44" y="-171.5" font-family="Helvetica,sans-Serif" font-size="10.00">map</text>
</a>
</g>
</g>
<!-- Node1&#45;&gt;Node22 -->
<g id="edge38" class="edge">
<title>Node1&#45;&gt;Node22</title>
<path fill="none" stroke="midnightblue" d="M800.32,-330.32C795.52,-300.43 783.8,-227.5 778.33,-193.5"/>
<polygon fill="midnightblue" stroke="midnightblue" points="781.78,-192.9 776.74,-183.58 774.87,-194.01 781.78,-192.9"/>
</g>
<!-- Node23 -->
<g id="node23" class="node">
<title>Node23</title>
<g id="a_node23"><a xlink:title=" ">
<polygon fill="white" stroke="#bfbfbf" points="887.38,-275.5 887.38,-293.5 929.5,-293.5 929.5,-275.5 887.38,-275.5"/>
<text text-anchor="middle" x="908.44" y="-281.5" font-family="Helvetica,sans-Serif" font-size="10.00">cstdio</text>
</a>
</g>
</g>
<!-- Node1&#45;&gt;Node23 -->
<g id="edge37" class="edge">
<title>Node1&#45;&gt;Node23</title>
<path fill="none" stroke="midnightblue" d="M826.23,-330.48C843.64,-320.96 867.16,-308.09 884.58,-298.55"/>
<polygon fill="midnightblue" stroke="midnightblue" points="886.47,-301.51 893.56,-293.64 883.11,-295.37 886.47,-301.51"/>
</g>
<!-- Node24 -->
<g id="node24" class="node">
<title>Node24</title>
<g id="a_node24"><a xlink:title=" ">
<polygon fill="white" stroke="#bfbfbf" points="947.05,-275.5 947.05,-293.5 985.83,-293.5 985.83,-275.5 947.05,-275.5"/>
<text text-anchor="middle" x="966.44" y="-281.5" font-family="Helvetica,sans-Serif" font-size="10.00">utility</text>
</a>
</g>
</g>
<!-- Node1&#45;&gt;Node24 -->
<g id="edge40" class="edge">
<title>Node1&#45;&gt;Node24</title>
<path fill="none" stroke="midnightblue" d="M839.25,-330.48C868.72,-320.06 909.53,-305.63 936.9,-295.95"/>
<polygon fill="midnightblue" stroke="midnightblue" points="938.42,-299.12 946.68,-292.49 936.08,-292.52 938.42,-299.12"/>
</g>
<!-- Node2&#45;&gt;Node3 -->
<g id="edge2" class="edge">
<title>Node2&#45;&gt;Node3</title>
<path fill="none" stroke="midnightblue" d="M662.49,-275.45C645.53,-266.89 618.47,-253.23 598.62,-243.21"/>
<polygon fill="midnightblue" stroke="midnightblue" points="600.04,-240.01 589.54,-238.63 596.89,-246.26 600.04,-240.01"/>
</g>
<!-- Node2&#45;&gt;Node8 -->
<g id="edge33" class="edge">
<title>Node2&#45;&gt;Node8</title>
<path fill="none" stroke="midnightblue" d="M685.32,-275.44C699.24,-258.28 729.44,-216.35 729.44,-175.5 729.44,-175.5 729.44,-175.5 729.44,-118.5 729.44,-82.3 704.09,-46.35 687.2,-26.42"/>
<polygon fill="midnightblue" stroke="midnightblue" points="689.61,-23.85 680.37,-18.67 684.36,-28.48 689.61,-23.85"/>
</g>
<!-- Node4 -->
<g id="node4" class="node">
<title>Node4</title>
<g id="a_node4"><a xlink:href="Ioss__CodeTypes_8h.html" target="_top" xlink:title=" ">
<polygon fill="white" stroke="black" points="404.02,-55.5 404.02,-73.5 502.86,-73.5 502.86,-55.5 404.02,-55.5"/>
<text text-anchor="middle" x="453.44" y="-61.5" font-family="Helvetica,sans-Serif" font-size="10.00">Ioss_CodeTypes.h</text>
</a>
</g>
</g>
<!-- Node3&#45;&gt;Node4 -->
<g id="edge3" class="edge">
<title>Node3&#45;&gt;Node4</title>
<path fill="none" stroke="midnightblue" d="M561.85,-220.5C546.51,-208.85 522.5,-186.28 532.44,-165 545.57,-136.89 593.23,-135.42 575.44,-110 561.13,-89.55 536.39,-78.47 512.91,-72.47"/>
<polygon fill="midnightblue" stroke="midnightblue" points="513.49,-69.01 502.96,-70.2 511.93,-75.84 513.49,-69.01"/>
</g>
<!-- Node3&#45;&gt;Node8 -->
<g id="edge31" class="edge">
<title>Node3&#45;&gt;Node8</title>
<path fill="none" stroke="midnightblue" d="M616.41,-220.48C637.07,-214.22 660.01,-203.22 672.44,-184 703.9,-135.37 688.1,-61.92 678.29,-28.37"/>
<polygon fill="midnightblue" stroke="midnightblue" points="681.57,-27.12 675.27,-18.61 674.88,-29.2 681.57,-27.12"/>
</g>
<!-- Node9 -->
<g id="node9" class="node">
<title>Node9</title>
<g id="a_node9"><a xlink:title=" ">
<polygon fill="white" stroke="#bfbfbf" points="120.83,-0.5 120.83,-18.5 164.06,-18.5 164.06,-0.5 120.83,-0.5"/>
<text text-anchor="middle" x="142.44" y="-6.5" font-family="Helvetica,sans-Serif" font-size="10.00">vector</text>
</a>
</g>
</g>
<!-- Node3&#45;&gt;Node9 -->
<g id="edge32" class="edge">
<title>Node3&#45;&gt;Node9</title>
<path fill="none" stroke="midnightblue" d="M520.21,-227.44C392.5,-223.66 74.47,-206.5 9.44,-129 -27.92,-84.47 61.29,-41.44 111.34,-21.72"/>
<polygon fill="midnightblue" stroke="midnightblue" points="112.7,-24.95 120.78,-18.1 110.19,-18.42 112.7,-24.95"/>
</g>
<!-- Node3&#45;&gt;Node12 -->
<g id="edge11" class="edge">
<title>Node3&#45;&gt;Node12</title>
<path fill="none" stroke="midnightblue" d="M546.86,-220.45C516.97,-211.4 468.24,-196.64 434.82,-186.52"/>
<polygon fill="midnightblue" stroke="midnightblue" points="435.57,-183.09 424.98,-183.54 433.54,-189.79 435.57,-183.09"/>
</g>
<!-- Node20 -->
<g id="node20" class="node">
<title>Node20</title>
<g id="a_node20"><a xlink:title=" ">
<polygon fill="white" stroke="#bfbfbf" points="541.71,-165.5 541.71,-183.5 587.17,-183.5 587.17,-165.5 541.71,-165.5"/>
<text text-anchor="middle" x="564.44" y="-171.5" font-family="Helvetica,sans-Serif" font-size="10.00">cstring</text>
</a>
</g>
</g>
<!-- Node3&#45;&gt;Node20 -->
<g id="edge28" class="edge">
<title>Node3&#45;&gt;Node20</title>
<path fill="none" stroke="midnightblue" d="M572.03,-220.22C570.83,-213.1 569.04,-202.58 567.5,-193.53"/>
<polygon fill="midnightblue" stroke="midnightblue" points="570.93,-192.82 565.81,-183.55 564.03,-193.99 570.93,-192.82"/>
</g>
<!-- Node21 -->
<g id="node21" class="node">
<title>Node21</title>
<g id="a_node21"><a xlink:title=" ">
<polygon fill="white" stroke="#bfbfbf" points="605.04,-165.5 605.04,-183.5 663.84,-183.5 663.84,-165.5 605.04,-165.5"/>
<text text-anchor="middle" x="634.44" y="-171.5" font-family="Helvetica,sans-Serif" font-size="10.00">functional</text>
</a>
</g>
</g>
<!-- Node3&#45;&gt;Node21 -->
<g id="edge29" class="edge">
<title>Node3&#45;&gt;Node21</title>
<path fill="none" stroke="midnightblue" d="M582.71,-220.45C591.84,-212.51 606.03,-200.19 617.23,-190.45"/>
<polygon fill="midnightblue" stroke="midnightblue" points="619.84,-192.83 625.09,-183.63 615.24,-187.54 619.84,-192.83"/>
</g>
<!-- Node3&#45;&gt;Node22 -->
<g id="edge30" class="edge">
<title>Node3&#45;&gt;Node22</title>
<path fill="none" stroke="midnightblue" d="M604.12,-220.45C643.26,-210.18 710.38,-192.57 747.94,-182.72"/>
<polygon fill="midnightblue" stroke="midnightblue" points="748.91,-186.08 757.7,-180.16 747.14,-179.31 748.91,-186.08"/>
</g>
<!-- Node5 -->
<g id="node5" class="node">
<title>Node5</title>
<g id="a_node5"><a xlink:title=" ">
<polygon fill="white" stroke="#bfbfbf" points="350.05,-0.5 350.05,-18.5 388.83,-18.5 388.83,-0.5 350.05,-0.5"/>
<text text-anchor="middle" x="369.44" y="-6.5" font-family="Helvetica,sans-Serif" font-size="10.00">array</text>
</a>
</g>
</g>
<!-- Node4&#45;&gt;Node5 -->
<g id="edge4" class="edge">
<title>Node4&#45;&gt;Node5</title>
<path fill="none" stroke="midnightblue" d="M440.68,-55.45C427.49,-47.12 406.64,-33.97 390.9,-24.04"/>
<polygon fill="midnightblue" stroke="midnightblue" points="392.64,-21 382.32,-18.63 388.91,-26.92 392.64,-21"/>
</g>
<!-- Node6 -->
<g id="node6" class="node">
<title>Node6</title>
<g id="a_node6"><a xlink:title=" ">
<polygon fill="white" stroke="#bfbfbf" points="220.32,-0.5 220.32,-18.5 268.56,-18.5 268.56,-0.5 220.32,-0.5"/>
<text text-anchor="middle" x="244.44" y="-6.5" font-family="Helvetica,sans-Serif" font-size="10.00">cstddef</text>
</a>
</g>
</g>
<!-- Node4&#45;&gt;Node6 -->
<g id="edge5" class="edge">
<title>Node4&#45;&gt;Node6</title>
<path fill="none" stroke="midnightblue" d="M421.7,-55.45C383.04,-45.65 318.01,-29.16 278.38,-19.11"/>
<polygon fill="midnightblue" stroke="midnightblue" points="279.2,-15.7 268.65,-16.64 277.48,-22.49 279.2,-15.7"/>
</g>
<!-- Node7 -->
<g id="node7" class="node">
<title>Node7</title>
<g id="a_node7"><a xlink:title=" ">
<polygon fill="white" stroke="#bfbfbf" points="286.99,-0.5 286.99,-18.5 331.89,-18.5 331.89,-0.5 286.99,-0.5"/>
<text text-anchor="middle" x="309.44" y="-6.5" font-family="Helvetica,sans-Serif" font-size="10.00">cstdint</text>
</a>
</g>
</g>
<!-- Node4&#45;&gt;Node7 -->
<g id="edge6" class="edge">
<title>Node4&#45;&gt;Node7</title>
<path fill="none" stroke="midnightblue" d="M431.57,-55.45C407.47,-46.58 368.48,-32.23 341.05,-22.13"/>
<polygon fill="midnightblue" stroke="midnightblue" points="342.11,-18.79 331.52,-18.63 339.69,-25.36 342.11,-18.79"/>
</g>
<!-- Node4&#45;&gt;Node8 -->
<g id="edge7" class="edge">
<title>Node4&#45;&gt;Node8</title>
<path fill="none" stroke="midnightblue" d="M486.7,-55.45C528.97,-45.22 601.33,-27.71 642.14,-17.83"/>
<polygon fill="midnightblue" stroke="midnightblue" points="643.14,-21.19 652.03,-15.44 641.49,-14.39 643.14,-21.19"/>
</g>
<!-- Node4&#45;&gt;Node9 -->
<g id="edge8" class="edge">
<title>Node4&#45;&gt;Node9</title>
<path fill="none" stroke="midnightblue" d="M406.21,-55.45C342.03,-44.51 229.02,-25.25 174.13,-15.9"/>
<polygon fill="midnightblue" stroke="midnightblue" points="174.72,-12.45 164.27,-14.22 173.54,-19.35 174.72,-12.45"/>
</g>
<!-- Node10 -->
<g id="node10" class="node">
<title>Node10</title>
<g id="a_node10"><a xlink:title=" ">
<polygon fill="white" stroke="#bfbfbf" points="406.69,-0.5 406.69,-18.5 522.19,-18.5 522.19,-0.5 406.69,-0.5"/>
<text text-anchor="middle" x="464.44" y="-6.5" font-family="Helvetica,sans-Serif" font-size="10.00">SEACASIoss_config.h</text>
</a>
</g>
</g>
<!-- Node4&#45;&gt;Node10 -->
<g id="edge9" class="edge">
<title>Node4&#45;&gt;Node10</title>
<path fill="none" stroke="midnightblue" d="M455.16,-55.22C456.64,-48.1 458.82,-37.58 460.7,-28.53"/>
<polygon fill="midnightblue" stroke="midnightblue" points="464.16,-29.05 462.77,-18.55 457.31,-27.63 464.16,-29.05"/>
</g>
<!-- Node11 -->
<g id="node11" class="node">
<title>Node11</title>
<g id="a_node11"><a xlink:title=" ">
<polygon fill="white" stroke="#bfbfbf" points="539.82,-0.5 539.82,-18.5 593.06,-18.5 593.06,-0.5 539.82,-0.5"/>
<text text-anchor="middle" x="566.44" y="-6.5" font-family="Helvetica,sans-Serif" font-size="10.00">complex</text>
</a>
</g>
</g>
<!-- Node4&#45;&gt;Node11 -->
<g id="edge10" class="edge">
<title>Node4&#45;&gt;Node11</title>
<path fill="none" stroke="midnightblue" d="M470.6,-55.45C489.02,-46.81 518.51,-32.98 539.92,-22.94"/>
<polygon fill="midnightblue" stroke="midnightblue" points="541.55,-26.04 549.12,-18.63 538.58,-19.7 541.55,-26.04"/>
</g>
<!-- Node12&#45;&gt;Node4 -->
<g id="edge12" class="edge">
<title>Node12&#45;&gt;Node4</title>
<path fill="none" stroke="midnightblue" d="M432.5,-168.88C474.8,-162.35 543.27,-148.97 558.44,-129 577.7,-103.65 538.69,-86.26 502.88,-76.17"/>
<polygon fill="midnightblue" stroke="midnightblue" points="503.48,-72.71 492.91,-73.52 501.68,-79.47 503.48,-72.71"/>
</g>
<!-- Node12&#45;&gt;Node6 -->
<g id="edge21" class="edge">
<title>Node12&#45;&gt;Node6</title>
<path fill="none" stroke="midnightblue" d="M364.38,-171.34C310.69,-167.16 210.2,-155.86 188.44,-129 162.07,-96.46 202.58,-49.44 227.42,-25.6"/>
<polygon fill="midnightblue" stroke="midnightblue" points="229.88,-28.09 234.83,-18.72 225.12,-22.96 229.88,-28.09"/>
</g>
<!-- Node12&#45;&gt;Node7 -->
<g id="edge22" class="edge">
<title>Node12&#45;&gt;Node7</title>
<path fill="none" stroke="midnightblue" d="M364.49,-170.91C313.19,-166.22 219.75,-154.35 199.44,-129 166.8,-88.25 239.67,-44.16 281.95,-23.09"/>
<polygon fill="midnightblue" stroke="midnightblue" points="283.74,-26.11 291.21,-18.6 280.69,-19.81 283.74,-26.11"/>
</g>
<!-- Node12&#45;&gt;Node8 -->
<g id="edge26" class="edge">
<title>Node12&#45;&gt;Node8</title>
<path fill="none" stroke="midnightblue" d="M432.56,-171.28C470.16,-167.47 531.17,-157.1 575.44,-129 616.46,-102.96 648.34,-53.72 663.23,-27.66"/>
<polygon fill="midnightblue" stroke="midnightblue" points="666.46,-29.06 668.25,-18.62 660.34,-25.67 666.46,-29.06"/>
</g>
<!-- Node12&#45;&gt;Node9 -->
<g id="edge27" class="edge">
<title>Node12&#45;&gt;Node9</title>
<path fill="none" stroke="midnightblue" d="M364.2,-170.93C308.9,-166.11 203.4,-153.84 176.44,-129 148.06,-102.85 142.79,-54.75 142.16,-28.59"/>
<polygon fill="midnightblue" stroke="midnightblue" points="145.66,-28.55 142.12,-18.56 138.66,-28.58 145.66,-28.55"/>
</g>
<!-- Node13 -->
<g id="node13" class="node">
<title>Node13</title>
<g id="a_node13"><a xlink:href="Ioss__Field_8h.html" target="_top" xlink:title=" ">
<polygon fill="white" stroke="black" points="407.48,-110.5 407.48,-128.5 477.4,-128.5 477.4,-110.5 407.48,-110.5"/>
<text text-anchor="middle" x="442.44" y="-116.5" font-family="Helvetica,sans-Serif" font-size="10.00">Ioss_Field.h</text>
</a>
</g>
</g>
<!-- Node12&#45;&gt;Node13 -->
<g id="edge13" class="edge">
<title>Node12&#45;&gt;Node13</title>
<path fill="none" stroke="midnightblue" d="M405.32,-165.22C411.68,-157.55 421.32,-145.94 429.18,-136.47"/>
<polygon fill="midnightblue" stroke="midnightblue" points="432.06,-138.48 435.76,-128.55 426.68,-134.01 432.06,-138.48"/>
</g>
<!-- Node14 -->
<g id="node14" class="node">
<title>Node14</title>
<g id="a_node14"><a xlink:title=" ">
<polygon fill="white" stroke="#bfbfbf" points="208.88,-110.5 208.88,-128.5 266,-128.5 266,-110.5 208.88,-110.5"/>
<text text-anchor="middle" x="237.44" y="-116.5" font-family="Helvetica,sans-Serif" font-size="10.00">algorithm</text>
</a>
</g>
</g>
<!-- Node12&#45;&gt;Node14 -->
<g id="edge18" class="edge">
<title>Node12&#45;&gt;Node14</title>
<path fill="none" stroke="midnightblue" d="M373.99,-165.45C346.72,-156.47 302.42,-141.89 271.71,-131.78"/>
<polygon fill="midnightblue" stroke="midnightblue" points="272.45,-128.34 261.86,-128.54 270.26,-134.99 272.45,-128.34"/>
</g>
<!-- Node12&#45;&gt;Node15 -->
<g id="edge19" class="edge">
<title>Node12&#45;&gt;Node15</title>
<path fill="none" stroke="midnightblue" d="M432.55,-168.94C507.29,-158.93 684.84,-135.17 759.94,-125.12"/>
<polygon fill="midnightblue" stroke="midnightblue" points="760.81,-128.53 770.25,-123.74 759.88,-121.59 760.81,-128.53"/>
</g>
<!-- Node16 -->
<g id="node16" class="node">
<title>Node16</title>
<g id="a_node16"><a xlink:title=" ">
<polygon fill="white" stroke="#bfbfbf" points="283.83,-110.5 283.83,-128.5 327.06,-128.5 327.06,-110.5 283.83,-110.5"/>
<text text-anchor="middle" x="305.44" y="-116.5" font-family="Helvetica,sans-Serif" font-size="10.00">cmath</text>
</a>
</g>
</g>
<!-- Node12&#45;&gt;Node16 -->
<g id="edge20" class="edge">
<title>Node12&#45;&gt;Node16</title>
<path fill="none" stroke="midnightblue" d="M384.32,-165.45C369.57,-157.05 346.19,-143.72 328.71,-133.76"/>
<polygon fill="midnightblue" stroke="midnightblue" points="330.12,-130.54 319.7,-128.63 326.65,-136.62 330.12,-130.54"/>
</g>
<!-- Node17 -->
<g id="node17" class="node">
<title>Node17</title>
<g id="a_node17"><a xlink:title=" ">
<polygon fill="white" stroke="#bfbfbf" points="345.27,-110.5 345.27,-128.5 389.61,-128.5 389.61,-110.5 345.27,-110.5"/>
<text text-anchor="middle" x="367.44" y="-116.5" font-family="Helvetica,sans-Serif" font-size="10.00">cstdlib</text>
</a>
</g>
</g>
<!-- Node12&#45;&gt;Node17 -->
<g id="edge23" class="edge">
<title>Node12&#45;&gt;Node17</title>
<path fill="none" stroke="midnightblue" d="M393.6,-165.22C389.25,-157.79 382.73,-146.65 377.29,-137.34"/>
<polygon fill="midnightblue" stroke="midnightblue" points="380.22,-135.41 372.15,-128.55 374.18,-138.95 380.22,-135.41"/>
</g>
<!-- Node18 -->
<g id="node18" class="node">
<title>Node18</title>
<g id="a_node18"><a xlink:title=" ">
<polygon fill="white" stroke="#bfbfbf" points="495.27,-110.5 495.27,-128.5 549.61,-128.5 549.61,-110.5 495.27,-110.5"/>
<text text-anchor="middle" x="522.44" y="-116.5" font-family="Helvetica,sans-Serif" font-size="10.00">iostream</text>
</a>
</g>
</g>
<!-- Node12&#45;&gt;Node18 -->
<g id="edge24" class="edge">
<title>Node12&#45;&gt;Node18</title>
<path fill="none" stroke="midnightblue" d="M417.27,-165.45C437.67,-156.73 470.43,-142.73 493.97,-132.67"/>
<polygon fill="midnightblue" stroke="midnightblue" points="495.61,-135.77 503.43,-128.63 492.86,-129.34 495.61,-135.77"/>
</g>
<!-- Node19 -->
<g id="node19" class="node">
<title>Node19</title>
<g id="a_node19"><a xlink:title=" ">
<polygon fill="white" stroke="#bfbfbf" points="18.04,-110.5 18.04,-128.5 76.84,-128.5 76.84,-110.5 18.04,-110.5"/>
<text text-anchor="middle" x="47.44" y="-116.5" font-family="Helvetica,sans-Serif" font-size="10.00">stdexcept</text>
</a>
</g>
</g>
<!-- Node12&#45;&gt;Node19 -->
<g id="edge25" class="edge">
<title>Node12&#45;&gt;Node19</title>
<path fill="none" stroke="midnightblue" d="M364.17,-169.14C307.2,-161.75 189.49,-145.93 90.44,-129 89.35,-128.81 88.25,-128.62 87.14,-128.42"/>
<polygon fill="midnightblue" stroke="midnightblue" points="87.48,-124.93 77.01,-126.55 86.21,-131.81 87.48,-124.93"/>
</g>
<!-- Node13&#45;&gt;Node4 -->
<g id="edge14" class="edge">
<title>Node13&#45;&gt;Node4</title>
<path fill="none" stroke="midnightblue" d="M444.16,-110.22C445.64,-103.1 447.82,-92.58 449.7,-83.53"/>
<polygon fill="midnightblue" stroke="midnightblue" points="453.16,-84.05 451.77,-73.55 446.31,-82.63 453.16,-84.05"/>
</g>
<!-- Node13&#45;&gt;Node6 -->
<g id="edge15" class="edge">
<title>Node13&#45;&gt;Node6</title>
<path fill="none" stroke="midnightblue" d="M427.56,-110.38C393.43,-91.77 309.31,-45.89 268.05,-23.38"/>
<polygon fill="midnightblue" stroke="midnightblue" points="269.68,-20.28 259.23,-18.56 266.33,-26.43 269.68,-20.28"/>
</g>
<!-- Node13&#45;&gt;Node8 -->
<g id="edge16" class="edge">
<title>Node13&#45;&gt;Node8</title>
<path fill="none" stroke="midnightblue" d="M459.73,-110.38C499.62,-91.65 598.32,-45.31 645.92,-22.95"/>
<polygon fill="midnightblue" stroke="midnightblue" points="647.7,-25.98 655.27,-18.56 644.73,-19.65 647.7,-25.98"/>
</g>
<!-- Node13&#45;&gt;Node9 -->
<g id="edge17" class="edge">
<title>Node13&#45;&gt;Node9</title>
<path fill="none" stroke="midnightblue" d="M419.89,-110.38C366.97,-91.33 234.69,-43.71 173.9,-21.82"/>
<polygon fill="midnightblue" stroke="midnightblue" points="175.03,-18.51 164.44,-18.42 172.66,-25.1 175.03,-18.51"/>
</g>
</g>
</svg>
        <g id="navigator" transform="translate(0 0)" fill="#404254">
                <rect fill="#f2f5e9" fill-opacity="0.5" stroke="#606060" stroke-width=".5" x="0" y="0" width="60" height="60"/>
                <use id="zoomplus" xlink:href="#zoomPlus" x="17" y="9" onmousedown="handleZoom(evt,'in')"/>
                <use id="zoomminus" xlink:href="#zoomMin" x="42" y="9" onmousedown="handleZoom(evt,'out')"/>
                <use id="reset" xlink:href="#resetDef" x="30" y="36" onmousedown="handleReset()"/>
                <g id="arrowUp" xlink:href="#dirArrow" transform="translate(30 24)" onmousedown="handlePan(0,-1)">
                  <use xlink:href="#rim" fill="#404040">
                        <set attributeName="fill" to="#808080" begin="arrowUp.mouseover" end="arrowUp.mouseout"/>
                  </use>
                  <path fill="none" stroke="white" stroke-width="1.5" d="M0,-3.0v7 M-2.5,-0.5L0,-3.0L2.5,-0.5"/>
                </g>
                <g id="arrowRight" xlink:href="#dirArrow" transform="rotate(90) translate(36 -43)" onmousedown="handlePan(1,0)">
                  <use xlink:href="#rim" fill="#404040">
                        <set attributeName="fill" to="#808080" begin="arrowRight.mouseover" end="arrowRight.mouseout"/>
                  </use>
                  <path fill="none" stroke="white" stroke-width="1.5" d="M0,-3.0v7 M-2.5,-0.5L0,-3.0L2.5,-0.5"/>
                </g>
                <g id="arrowDown" xlink:href="#dirArrow" transform="rotate(180) translate(-30 -48)" onmousedown="handlePan(0,1)">
                  <use xlink:href="#rim" fill="#404040">
                        <set attributeName="fill" to="#808080" begin="arrowDown.mouseover" end="arrowDown.mouseout"/>
                  </use>
                  <path fill="none" stroke="white" stroke-width="1.5" d="M0,-3.0v7 M-2.5,-0.5L0,-3.0L2.5,-0.5"/>
                </g>
                <g id="arrowLeft" xlink:href="#dirArrow" transform="rotate(270) translate(-36 17)" onmousedown="handlePan(-1,0)">
                  <use xlink:href="#rim" fill="#404040">
                        <set attributeName="fill" to="#808080" begin="arrowLeft.mouseover" end="arrowLeft.mouseout"/>
                  </use>
                  <path fill="none" stroke="white" stroke-width="1.5" d="M0,-3.0v7 M-2.5,-0.5L0,-3.0L2.5,-0.5"/>
                </g>
        </g>
        <svg viewBox="0 0 15 15" width="100%" height="30px" preserveAspectRatio="xMaxYMin meet">
         <g id="arrow_out" transform="scale(0.3 0.3)">
          <a xlink:href="Ioss__CompositeVariableType_8C__incl_org.svg" target="_base">
           <rect id="button" ry="5" rx="5" y="6" x="6" height="38" width="38"
                fill="#f2f5e9" fill-opacity="0.5" stroke="#606060" stroke-width="1.0"/>
           <path id="arrow"
             d="M 11.500037,31.436501 C 11.940474,20.09759 22.043105,11.32322 32.158766,21.979434 L 37.068811,17.246167 C 37.068811,17.246167 37.088388,32 37.088388,32 L 22.160133,31.978069 C 22.160133,31.978069 26.997745,27.140456 26.997745,27.140456 C 18.528582,18.264221 13.291696,25.230495 11.500037,31.436501 z"
             style="fill:#404040;"/>
          </a>
         </g>
        </svg>
</svg>
