<?xml version="1.0" encoding="UTF-8" standalone="no"?>
<!DOCTYPE svg PUBLIC "-//W3C//DTD SVG 1.1//EN"
 "http://www.w3.org/Graphics/SVG/1.1/DTD/svg11.dtd">
<!-- Generated by graphviz version 2.44.0 (20200408.0750)
 -->
<!-- Title: src/Ioss_FaceSet.h Pages: 1 -->
<svg width="2099pt" height="162pt"
 viewBox="0.00 0.00 2099.00 162.00" xmlns="http://www.w3.org/2000/svg" xmlns:xlink="http://www.w3.org/1999/xlink">
<g id="graph0" class="graph" transform="scale(1 1) rotate(0) translate(4 158)">
<title>src/Ioss_FaceSet.h</title>
<polygon fill="white" stroke="transparent" points="-4,4 -4,-158 2095,-158 2095,4 -4,4"/>
<!-- Node1 -->
<g id="node1" class="node">
<title>Node1</title>
<g id="a_node1"><a xlink:title=" ">
<polygon fill="#bfbfbf" stroke="black" points="886,-134.5 886,-153.5 988,-153.5 988,-134.5 886,-134.5"/>
<text text-anchor="middle" x="937" y="-141.5" font-family="Helvetica,sans-Serif" font-size="10.00">src/Ioss_FaceSet.h</text>
</a>
</g>
</g>
<!-- Node2 -->
<g id="node2" class="node">
<title>Node2</title>
<g id="a_node2"><a xlink:href="Ioad__DatabaseIO_8C.html" target="_top" xlink:title=" ">
<polygon fill="white" stroke="black" points="0,-73 0,-92 146,-92 146,-73 0,-73"/>
<text text-anchor="middle" x="73" y="-80" font-family="Helvetica,sans-Serif" font-size="10.00">src/adios/Ioad_DatabaseIO.C</text>
</a>
</g>
</g>
<!-- Node1&#45;&gt;Node2 -->
<g id="edge1" class="edge">
<title>Node1&#45;&gt;Node2</title>
<path fill="none" stroke="midnightblue" d="M875.66,-141.68C744.15,-138.37 425.41,-127.72 160,-98 146.46,-96.48 131.81,-94.27 118.48,-92.03"/>
<polygon fill="midnightblue" stroke="midnightblue" points="875.85,-145.19 885.93,-141.94 876.02,-138.19 875.85,-145.19"/>
</g>
<!-- Node3 -->
<g id="node3" class="node">
<title>Node3</title>
<g id="a_node3"><a xlink:href="Ut__ioad_8C.html" target="_top" xlink:title=" ">
<polygon fill="white" stroke="black" points="460.5,-0.5 460.5,-30.5 555.5,-30.5 555.5,-0.5 460.5,-0.5"/>
<text text-anchor="start" x="468.5" y="-18.5" font-family="Helvetica,sans-Serif" font-size="10.00">src/adios/utest/Ut</text>
<text text-anchor="middle" x="508" y="-7.5" font-family="Helvetica,sans-Serif" font-size="10.00">_ioad.C</text>
</a>
</g>
</g>
<!-- Node1&#45;&gt;Node3 -->
<g id="edge2" class="edge">
<title>Node1&#45;&gt;Node3</title>
<path fill="none" stroke="midnightblue" d="M875.98,-141.56C702.32,-137.18 216.29,-122.74 193,-98 183.56,-87.97 184.06,-77.49 193,-67 226.77,-27.38 380.82,-18.72 460.28,-16.91"/>
<polygon fill="midnightblue" stroke="midnightblue" points="875.9,-145.06 885.99,-141.81 876.08,-138.06 875.9,-145.06"/>
</g>
<!-- Node4 -->
<g id="node4" class="node">
<title>Node4</title>
<g id="a_node4"><a xlink:href="Iocgns__DatabaseIO_8C.html" target="_top" xlink:title=" ">
<polygon fill="white" stroke="black" points="202.5,-73 202.5,-92 357.5,-92 357.5,-73 202.5,-73"/>
<text text-anchor="middle" x="280" y="-80" font-family="Helvetica,sans-Serif" font-size="10.00">src/cgns/Iocgns_DatabaseIO.C</text>
</a>
</g>
</g>
<!-- Node1&#45;&gt;Node4 -->
<g id="edge3" class="edge">
<title>Node1&#45;&gt;Node4</title>
<path fill="none" stroke="midnightblue" d="M875.69,-139.9C771.08,-134.22 551.51,-120.62 367,-98 353.93,-96.4 339.82,-94.24 326.85,-92.07"/>
<polygon fill="midnightblue" stroke="midnightblue" points="875.58,-143.4 885.76,-140.44 875.96,-136.41 875.58,-143.4"/>
</g>
<!-- Node5 -->
<g id="node5" class="node">
<title>Node5</title>
<g id="a_node5"><a xlink:href="Iodw__Utils_8C.html" target="_top" xlink:title=" ">
<polygon fill="white" stroke="black" points="376,-67.5 376,-97.5 480,-97.5 480,-67.5 376,-67.5"/>
<text text-anchor="start" x="384" y="-85.5" font-family="Helvetica,sans-Serif" font-size="10.00">src/data_warehouse</text>
<text text-anchor="middle" x="428" y="-74.5" font-family="Helvetica,sans-Serif" font-size="10.00">/Iodw_Utils.C</text>
</a>
</g>
</g>
<!-- Node1&#45;&gt;Node5 -->
<g id="edge4" class="edge">
<title>Node1&#45;&gt;Node5</title>
<path fill="none" stroke="midnightblue" d="M875.81,-139.45C789.23,-133.83 626.22,-121.1 489,-98 486.1,-97.51 483.14,-96.97 480.15,-96.38"/>
<polygon fill="midnightblue" stroke="midnightblue" points="875.78,-142.95 885.98,-140.1 876.22,-135.97 875.78,-142.95"/>
</g>
<!-- Node6 -->
<g id="node6" class="node">
<title>Node6</title>
<g id="a_node6"><a xlink:href="Ioex__BaseDatabaseIO_8C.html" target="_top" xlink:title=" ">
<polygon fill="white" stroke="black" points="498.5,-73 498.5,-92 675.5,-92 675.5,-73 498.5,-73"/>
<text text-anchor="middle" x="587" y="-80" font-family="Helvetica,sans-Serif" font-size="10.00">src/exodus/Ioex_BaseDatabaseIO.C</text>
</a>
</g>
</g>
<!-- Node1&#45;&gt;Node6 -->
<g id="edge5" class="edge">
<title>Node1&#45;&gt;Node6</title>
<path fill="none" stroke="midnightblue" d="M876.76,-132.76C809.03,-121.25 700.3,-102.76 637.05,-92.01"/>
<polygon fill="midnightblue" stroke="midnightblue" points="876.41,-136.25 886.85,-134.48 877.58,-129.35 876.41,-136.25"/>
</g>
<!-- Node7 -->
<g id="node7" class="node">
<title>Node7</title>
<g id="a_node7"><a xlink:href="Ioex__DatabaseIO_8C.html" target="_top" xlink:title=" ">
<polygon fill="white" stroke="black" points="693.5,-73 693.5,-92 848.5,-92 848.5,-73 693.5,-73"/>
<text text-anchor="middle" x="771" y="-80" font-family="Helvetica,sans-Serif" font-size="10.00">src/exodus/Ioex_DatabaseIO.C</text>
</a>
</g>
</g>
<!-- Node1&#45;&gt;Node7 -->
<g id="edge6" class="edge">
<title>Node1&#45;&gt;Node7</title>
<path fill="none" stroke="midnightblue" d="M903.75,-131.08C871.48,-119.52 823.32,-102.25 794.74,-92.01"/>
<polygon fill="midnightblue" stroke="midnightblue" points="902.62,-134.4 913.22,-134.48 904.98,-127.81 902.62,-134.4"/>
</g>
<!-- Node8 -->
<g id="node8" class="node">
<title>Node8</title>
<g id="a_node8"><a xlink:href="Ioex__Internals_8C.html" target="_top" xlink:title=" ">
<polygon fill="white" stroke="black" points="867,-73 867,-92 1007,-92 1007,-73 867,-73"/>
<text text-anchor="middle" x="937" y="-80" font-family="Helvetica,sans-Serif" font-size="10.00">src/exodus/Ioex_Internals.C</text>
</a>
</g>
</g>
<!-- Node1&#45;&gt;Node8 -->
<g id="edge7" class="edge">
<title>Node1&#45;&gt;Node8</title>
<path fill="none" stroke="midnightblue" d="M937,-124.32C937,-113.5 937,-100.4 937,-92.01"/>
<polygon fill="midnightblue" stroke="midnightblue" points="933.5,-124.48 937,-134.48 940.5,-124.48 933.5,-124.48"/>
</g>
<!-- Node9 -->
<g id="node9" class="node">
<title>Node9</title>
<g id="a_node9"><a xlink:href="Ioex__ParallelDatabaseIO_8C.html" target="_top" xlink:title=" ">
<polygon fill="white" stroke="black" points="1025,-67.5 1025,-97.5 1149,-97.5 1149,-67.5 1025,-67.5"/>
<text text-anchor="start" x="1033" y="-85.5" font-family="Helvetica,sans-Serif" font-size="10.00">src/exodus/Ioex_Parallel</text>
<text text-anchor="middle" x="1087" y="-74.5" font-family="Helvetica,sans-Serif" font-size="10.00">DatabaseIO.C</text>
</a>
</g>
</g>
<!-- Node1&#45;&gt;Node9 -->
<g id="edge8" class="edge">
<title>Node1&#45;&gt;Node9</title>
<path fill="none" stroke="midnightblue" d="M967.96,-130.72C992.31,-121.06 1026.24,-107.6 1051.65,-97.52"/>
<polygon fill="midnightblue" stroke="midnightblue" points="966.5,-127.53 958.49,-134.48 969.08,-134.04 966.5,-127.53"/>
</g>
<!-- Node10 -->
<g id="node10" class="node">
<title>Node10</title>
<g id="a_node10"><a xlink:href="Ioss__FaceSet_8C.html" target="_top" xlink:title=" ">
<polygon fill="white" stroke="black" points="1167,-73 1167,-92 1271,-92 1271,-73 1167,-73"/>
<text text-anchor="middle" x="1219" y="-80" font-family="Helvetica,sans-Serif" font-size="10.00">src/Ioss_FaceSet.C</text>
</a>
</g>
</g>
<!-- Node1&#45;&gt;Node10 -->
<g id="edge9" class="edge">
<title>Node1&#45;&gt;Node10</title>
<path fill="none" stroke="midnightblue" d="M991.2,-132.47C1036,-123.65 1101.24,-110.52 1158,-98 1166.4,-96.15 1175.42,-94.06 1183.88,-92.05"/>
<polygon fill="midnightblue" stroke="midnightblue" points="990.25,-129.09 981.12,-134.46 991.6,-135.96 990.25,-129.09"/>
</g>
<!-- Node11 -->
<g id="node11" class="node">
<title>Node11</title>
<g id="a_node11"><a xlink:href="Ioss__Region_8C.html" target="_top" xlink:title=" ">
<polygon fill="white" stroke="black" points="1289,-73 1289,-92 1387,-92 1387,-73 1289,-73"/>
<text text-anchor="middle" x="1338" y="-80" font-family="Helvetica,sans-Serif" font-size="10.00">src/Ioss_Region.C</text>
</a>
</g>
</g>
<!-- Node1&#45;&gt;Node11 -->
<g id="edge10" class="edge">
<title>Node1&#45;&gt;Node11</title>
<path fill="none" stroke="midnightblue" d="M998.38,-137.09C1067.27,-129.96 1182.21,-116.58 1280,-98 1288.67,-96.35 1297.97,-94.2 1306.54,-92.06"/>
<polygon fill="midnightblue" stroke="midnightblue" points="997.73,-133.64 988.14,-138.14 998.44,-140.6 997.73,-133.64"/>
</g>
<!-- Node12 -->
<g id="node12" class="node">
<title>Node12</title>
<g id="a_node12"><a xlink:href="Ioss__SubSystem_8h.html" target="_top" xlink:title=" ">
<polygon fill="white" stroke="black" points="1405,-73 1405,-92 1521,-92 1521,-73 1405,-73"/>
<text text-anchor="middle" x="1463" y="-80" font-family="Helvetica,sans-Serif" font-size="10.00">src/Ioss_SubSystem.h</text>
</a>
</g>
</g>
<!-- Node1&#45;&gt;Node12 -->
<g id="edge11" class="edge">
<title>Node1&#45;&gt;Node12</title>
<path fill="none" stroke="midnightblue" d="M998.29,-139.25C1086.57,-133.34 1254.47,-120.18 1396,-98 1406.23,-96.4 1417.24,-94.21 1427.33,-92.02"/>
<polygon fill="midnightblue" stroke="midnightblue" points="997.93,-135.77 988.18,-139.92 998.39,-142.75 997.93,-135.77"/>
</g>
<!-- Node20 -->
<g id="node20" class="node">
<title>Node20</title>
<g id="a_node20"><a xlink:href="io__info_8h.html" target="_top" xlink:title=" ">
<polygon fill="white" stroke="black" points="1698,-73 1698,-92 1792,-92 1792,-73 1698,-73"/>
<text text-anchor="middle" x="1745" y="-80" font-family="Helvetica,sans-Serif" font-size="10.00">src/main/io_info.h</text>
</a>
</g>
</g>
<!-- Node1&#45;&gt;Node20 -->
<g id="edge20" class="edge">
<title>Node1&#45;&gt;Node20</title>
<path fill="none" stroke="midnightblue" d="M998.46,-138.47C1153.77,-127.04 1559.44,-97.16 1697.9,-86.97"/>
<polygon fill="midnightblue" stroke="midnightblue" points="997.87,-135.01 988.16,-139.23 998.39,-141.99 997.87,-135.01"/>
</g>
<!-- Node23 -->
<g id="node23" class="node">
<title>Node23</title>
<g id="a_node23"><a xlink:href="io__modify_8C.html" target="_top" xlink:title=" ">
<polygon fill="white" stroke="black" points="1810,-73 1810,-92 1918,-92 1918,-73 1810,-73"/>
<text text-anchor="middle" x="1864" y="-80" font-family="Helvetica,sans-Serif" font-size="10.00">src/main/io_modify.C</text>
</a>
</g>
</g>
<!-- Node1&#45;&gt;Node23 -->
<g id="edge23" class="edge">
<title>Node1&#45;&gt;Node23</title>
<path fill="none" stroke="midnightblue" d="M998.68,-143.46C1140.88,-143.72 1502.41,-139.81 1801,-98 1811.11,-96.58 1822,-94.34 1831.83,-92.04"/>
<polygon fill="midnightblue" stroke="midnightblue" points="998.43,-139.96 988.42,-143.43 998.41,-146.96 998.43,-139.96"/>
</g>
<!-- Node12&#45;&gt;Node3 -->
<g id="edge12" class="edge">
<title>Node12&#45;&gt;Node3</title>
<path fill="none" stroke="midnightblue" d="M1418.44,-70.84C1410.98,-69.35 1403.3,-67.99 1396,-67 1231.23,-44.62 715.18,-24.15 555.54,-18.22"/>
<polygon fill="midnightblue" stroke="midnightblue" points="1417.9,-74.3 1428.41,-72.93 1419.34,-67.45 1417.9,-74.3"/>
</g>
<!-- Node13 -->
<g id="node13" class="node">
<title>Node13</title>
<g id="a_node13"><a xlink:href="Iodw__DatabaseIO_8C.html" target="_top" xlink:title=" ">
<polygon fill="white" stroke="black" points="907.5,-0.5 907.5,-30.5 1016.5,-30.5 1016.5,-0.5 907.5,-0.5"/>
<text text-anchor="start" x="915.5" y="-18.5" font-family="Helvetica,sans-Serif" font-size="10.00">src/data_warehouse</text>
<text text-anchor="middle" x="962" y="-7.5" font-family="Helvetica,sans-Serif" font-size="10.00">/Iodw_DatabaseIO.C</text>
</a>
</g>
</g>
<!-- Node12&#45;&gt;Node13 -->
<g id="edge13" class="edge">
<title>Node12&#45;&gt;Node13</title>
<path fill="none" stroke="midnightblue" d="M1417.16,-70.84C1410.1,-69.41 1402.87,-68.07 1396,-67 1232.76,-41.48 1189.11,-57.31 1026,-31 1022.96,-30.51 1019.86,-29.96 1016.72,-29.37"/>
<polygon fill="midnightblue" stroke="midnightblue" points="1416.82,-74.35 1427.33,-72.98 1418.26,-67.5 1416.82,-74.35"/>
</g>
<!-- Node14 -->
<g id="node14" class="node">
<title>Node14</title>
<g id="a_node14"><a xlink:href="Ioss__Utils_8C.html" target="_top" xlink:title=" ">
<polygon fill="white" stroke="black" points="1035,-6 1035,-25 1123,-25 1123,-6 1035,-6"/>
<text text-anchor="middle" x="1079" y="-13" font-family="Helvetica,sans-Serif" font-size="10.00">src/Ioss_Utils.C</text>
</a>
</g>
</g>
<!-- Node12&#45;&gt;Node14 -->
<g id="edge14" class="edge">
<title>Node12&#45;&gt;Node14</title>
<path fill="none" stroke="midnightblue" d="M1415.68,-70.78C1409.08,-69.43 1402.38,-68.12 1396,-67 1279.38,-46.46 1248.03,-54.68 1132,-31 1123.96,-29.36 1115.34,-27.19 1107.44,-25.02"/>
<polygon fill="midnightblue" stroke="midnightblue" points="1415.38,-74.29 1425.89,-72.93 1416.83,-67.45 1415.38,-74.29"/>
</g>
<!-- Node15 -->
<g id="node15" class="node">
<title>Node15</title>
<g id="a_node15"><a xlink:href="io__shell_8C.html" target="_top" xlink:title=" ">
<polygon fill="white" stroke="black" points="1141.5,-6 1141.5,-25 1242.5,-25 1242.5,-6 1141.5,-6"/>
<text text-anchor="middle" x="1192" y="-13" font-family="Helvetica,sans-Serif" font-size="10.00">src/main/io_shell.C</text>
</a>
</g>
</g>
<!-- Node12&#45;&gt;Node15 -->
<g id="edge15" class="edge">
<title>Node12&#45;&gt;Node15</title>
<path fill="none" stroke="midnightblue" d="M1417.33,-70.6C1374.59,-60.39 1308.96,-44.7 1252,-31 1243.98,-29.07 1235.35,-26.99 1227.21,-25.02"/>
<polygon fill="midnightblue" stroke="midnightblue" points="1416.61,-74.03 1427.15,-72.95 1418.24,-67.22 1416.61,-74.03"/>
</g>
<!-- Node16 -->
<g id="node16" class="node">
<title>Node16</title>
<g id="a_node16"><a xlink:href="io__shell__ts_8C.html" target="_top" xlink:title=" ">
<polygon fill="white" stroke="black" points="1261,-6 1261,-25 1375,-25 1375,-6 1261,-6"/>
<text text-anchor="middle" x="1318" y="-13" font-family="Helvetica,sans-Serif" font-size="10.00">src/main/io_shell_ts.C</text>
</a>
</g>
</g>
<!-- Node12&#45;&gt;Node16 -->
<g id="edge16" class="edge">
<title>Node12&#45;&gt;Node16</title>
<path fill="none" stroke="midnightblue" d="M1434.25,-68.61C1405.53,-55.74 1362.18,-36.31 1337.33,-25.17"/>
<polygon fill="midnightblue" stroke="midnightblue" points="1433.19,-71.97 1443.75,-72.87 1436.05,-65.58 1433.19,-71.97"/>
</g>
<!-- Node17 -->
<g id="node17" class="node">
<title>Node17</title>
<g id="a_node17"><a xlink:href="struc__to__unstruc_8C.html" target="_top" xlink:title=" ">
<polygon fill="white" stroke="black" points="1393,-6 1393,-25 1533,-25 1533,-6 1393,-6"/>
<text text-anchor="middle" x="1463" y="-13" font-family="Helvetica,sans-Serif" font-size="10.00">src/main/struc_to_unstruc.C</text>
</a>
</g>
</g>
<!-- Node12&#45;&gt;Node17 -->
<g id="edge17" class="edge">
<title>Node12&#45;&gt;Node17</title>
<path fill="none" stroke="midnightblue" d="M1463,-62.54C1463,-50.17 1463,-34.62 1463,-25.13"/>
<polygon fill="midnightblue" stroke="midnightblue" points="1459.5,-62.73 1463,-72.73 1466.5,-62.73 1459.5,-62.73"/>
</g>
<!-- Node18 -->
<g id="node18" class="node">
<title>Node18</title>
<g id="a_node18"><a xlink:href="Iopg__DatabaseIO_8C.html" target="_top" xlink:title=" ">
<polygon fill="white" stroke="black" points="1551,-6 1551,-25 1709,-25 1709,-6 1551,-6"/>
<text text-anchor="middle" x="1630" y="-13" font-family="Helvetica,sans-Serif" font-size="10.00">src/pamgen/Iopg_DatabaseIO.C</text>
</a>
</g>
</g>
<!-- Node12&#45;&gt;Node18 -->
<g id="edge18" class="edge">
<title>Node12&#45;&gt;Node18</title>
<path fill="none" stroke="midnightblue" d="M1494.85,-69.1C1528.01,-56.2 1579.06,-36.33 1608,-25.06"/>
<polygon fill="midnightblue" stroke="midnightblue" points="1493.23,-65.98 1485.18,-72.87 1495.76,-72.5 1493.23,-65.98"/>
</g>
<!-- Node19 -->
<g id="node19" class="node">
<title>Node19</title>
<g id="a_node19"><a xlink:href="Iovs__DatabaseIO_8C.html" target="_top" xlink:title=" ">
<polygon fill="white" stroke="black" points="1727.5,-0.5 1727.5,-30.5 1836.5,-30.5 1836.5,-0.5 1727.5,-0.5"/>
<text text-anchor="start" x="1735.5" y="-18.5" font-family="Helvetica,sans-Serif" font-size="10.00">src/visualization/Iovs</text>
<text text-anchor="middle" x="1782" y="-7.5" font-family="Helvetica,sans-Serif" font-size="10.00">_DatabaseIO.C</text>
</a>
</g>
</g>
<!-- Node12&#45;&gt;Node19 -->
<g id="edge19" class="edge">
<title>Node12&#45;&gt;Node19</title>
<path fill="none" stroke="midnightblue" d="M1518.18,-71.02C1569.89,-61.1 1649.3,-45.58 1718,-31 1721.01,-30.36 1724.1,-29.7 1727.21,-29.02"/>
<polygon fill="midnightblue" stroke="midnightblue" points="1517.38,-67.61 1508.22,-72.93 1518.7,-74.49 1517.38,-67.61"/>
</g>
<!-- Node21 -->
<g id="node21" class="node">
<title>Node21</title>
<g id="a_node21"><a xlink:href="io__info_8C.html" target="_top" xlink:title=" ">
<polygon fill="white" stroke="black" points="1855,-6 1855,-25 1951,-25 1951,-6 1855,-6"/>
<text text-anchor="middle" x="1903" y="-13" font-family="Helvetica,sans-Serif" font-size="10.00">src/main/io_info.C</text>
</a>
</g>
</g>
<!-- Node20&#45;&gt;Node21 -->
<g id="edge21" class="edge">
<title>Node20&#45;&gt;Node21</title>
<path fill="none" stroke="midnightblue" d="M1775.51,-68.95C1806.79,-56.08 1854.62,-36.4 1881.93,-25.17"/>
<polygon fill="midnightblue" stroke="midnightblue" points="1773.9,-65.83 1765.98,-72.87 1776.56,-72.3 1773.9,-65.83"/>
</g>
<!-- Node22 -->
<g id="node22" class="node">
<title>Node22</title>
<g id="a_node22"><a xlink:href="io__info__main_8C.html" target="_top" xlink:title=" ">
<polygon fill="white" stroke="black" points="1969,-6 1969,-25 2091,-25 2091,-6 1969,-6"/>
<text text-anchor="middle" x="2030" y="-13" font-family="Helvetica,sans-Serif" font-size="10.00">src/main/io_info_main.C</text>
</a>
</g>
</g>
<!-- Node20&#45;&gt;Node22 -->
<g id="edge22" class="edge">
<title>Node20&#45;&gt;Node22</title>
<path fill="none" stroke="midnightblue" d="M1787.26,-70.38C1791.89,-69.22 1796.54,-68.07 1801,-67 1866.52,-51.3 1943.04,-34.79 1988.94,-25.08"/>
<polygon fill="midnightblue" stroke="midnightblue" points="1786.05,-67.08 1777.23,-72.94 1787.78,-73.86 1786.05,-67.08"/>
</g>
</g>
</svg>
