<?xml version="1.0" encoding="UTF-8" standalone="no"?>
<!DOCTYPE svg PUBLIC "-//W3C//DTD SVG 1.1//EN"
 "http://www.w3.org/Graphics/SVG/1.1/DTD/svg11.dtd">
<!-- Generated by graphviz version 2.42.3 (20191010.1750)
 -->
<!-- Title: src/Ioss_ZoneConnectivity.h Pages: 1 -->
<svg width="2661pt" height="342pt"
 viewBox="0.00 0.00 2661.13 342.00" xmlns="http://www.w3.org/2000/svg" xmlns:xlink="http://www.w3.org/1999/xlink">
<g id="graph0" class="graph" transform="scale(1 1) rotate(0) translate(4 338)">
<title>src/Ioss_ZoneConnectivity.h</title>
<polygon fill="white" stroke="transparent" points="-4,4 -4,-338 2657.13,-338 2657.13,4 -4,4"/>
<!-- Node1 -->
<g id="node1" class="node">
<title>Node1</title>
<g id="a_node1"><a xlink:title=" ">
<polygon fill="#bfbfbf" stroke="black" points="873.68,-315.5 873.68,-333.5 1014.56,-333.5 1014.56,-315.5 873.68,-315.5"/>
<text text-anchor="middle" x="944.12" y="-321.5" font-family="Helvetica,sans-Serif" font-size="10.00">src/Ioss_ZoneConnectivity.h</text>
</a>
</g>
</g>
<!-- Node2 -->
<g id="node2" class="node">
<title>Node2</title>
<g id="a_node2"><a xlink:href="Ioss__StructuredBlock_8h.html" target="_top" xlink:title=" ">
<polygon fill="white" stroke="black" points="746.65,-260.5 746.65,-278.5 881.59,-278.5 881.59,-260.5 746.65,-260.5"/>
<text text-anchor="middle" x="814.12" y="-266.5" font-family="Helvetica,sans-Serif" font-size="10.00">src/Ioss_StructuredBlock.h</text>
</a>
</g>
</g>
<!-- Node1&#45;&gt;Node2 -->
<g id="edge1" class="edge">
<title>Node1&#45;&gt;Node2</title>
<path fill="none" stroke="midnightblue" d="M914.81,-311.55C890.17,-301.5 855.6,-287.41 834.05,-278.63"/>
<polygon fill="midnightblue" stroke="midnightblue" points="913.79,-314.92 924.37,-315.45 916.44,-308.43 913.79,-314.92"/>
</g>
<!-- Node11 -->
<g id="node11" class="node">
<title>Node11</title>
<g id="a_node11"><a xlink:href="cgns__decomp_8C.html" target="_top" xlink:title=" ">
<polygon fill="white" stroke="black" points="804.71,-135.5 804.71,-153.5 933.53,-153.5 933.53,-135.5 804.71,-135.5"/>
<text text-anchor="middle" x="869.12" y="-141.5" font-family="Helvetica,sans-Serif" font-size="10.00">src/main/cgns_decomp.C</text>
</a>
</g>
</g>
<!-- Node1&#45;&gt;Node11 -->
<g id="edge47" class="edge">
<title>Node1&#45;&gt;Node11</title>
<path fill="none" stroke="midnightblue" d="M970.11,-310.68C1012.61,-288.02 1089.03,-239.11 1055.12,-195 1046.16,-183.34 961.6,-164.32 909.63,-153.57"/>
<polygon fill="midnightblue" stroke="midnightblue" points="968.37,-307.64 961.11,-315.36 971.6,-313.85 968.37,-307.64"/>
</g>
<!-- Node13 -->
<g id="node13" class="node">
<title>Node13</title>
<g id="a_node13"><a xlink:href="Utst__structured__decomp_8C.html" target="_top" xlink:title=" ">
<polygon fill="white" stroke="black" points="188.93,-130.5 188.93,-158.5 313.3,-158.5 313.3,-130.5 188.93,-130.5"/>
<text text-anchor="start" x="196.93" y="-146.5" font-family="Helvetica,sans-Serif" font-size="10.00">src/utest/Utst_structured</text>
<text text-anchor="middle" x="251.12" y="-136.5" font-family="Helvetica,sans-Serif" font-size="10.00">_decomp.C</text>
</a>
</g>
</g>
<!-- Node1&#45;&gt;Node13 -->
<g id="edge48" class="edge">
<title>Node1&#45;&gt;Node13</title>
<path fill="none" stroke="midnightblue" d="M863.49,-319.03C675.06,-307.75 218.27,-275.35 173.12,-224 151.93,-199.9 191.58,-173.84 221.71,-158.63"/>
<polygon fill="midnightblue" stroke="midnightblue" points="863.43,-322.53 873.62,-319.63 863.84,-315.54 863.43,-322.53"/>
</g>
<!-- Node35 -->
<g id="node35" class="node">
<title>Node35</title>
<g id="a_node35"><a xlink:href="Ioss__ZoneConnectivity_8C.html" target="_top" xlink:title=" ">
<polygon fill="white" stroke="black" points="1101.85,-260.5 1101.85,-278.5 1244.39,-278.5 1244.39,-260.5 1101.85,-260.5"/>
<text text-anchor="middle" x="1173.12" y="-266.5" font-family="Helvetica,sans-Serif" font-size="10.00">src/Ioss_ZoneConnectivity.C</text>
</a>
</g>
</g>
<!-- Node1&#45;&gt;Node35 -->
<g id="edge46" class="edge">
<title>Node1&#45;&gt;Node35</title>
<path fill="none" stroke="midnightblue" d="M988.7,-313.18C1032.49,-303.05 1098.36,-287.8 1138.39,-278.54"/>
<polygon fill="midnightblue" stroke="midnightblue" points="987.85,-309.79 978.9,-315.45 989.43,-316.61 987.85,-309.79"/>
</g>
<!-- Node3 -->
<g id="node3" class="node">
<title>Node3</title>
<g id="a_node3"><a xlink:href="Iocgns__DatabaseIO_8C.html" target="_top" xlink:title=" ">
<polygon fill="white" stroke="black" points="1347.92,-135.5 1347.92,-153.5 1502.32,-153.5 1502.32,-135.5 1347.92,-135.5"/>
<text text-anchor="middle" x="1425.12" y="-141.5" font-family="Helvetica,sans-Serif" font-size="10.00">src/cgns/Iocgns_DatabaseIO.C</text>
</a>
</g>
</g>
<!-- Node2&#45;&gt;Node3 -->
<g id="edge2" class="edge">
<title>Node2&#45;&gt;Node3</title>
<path fill="none" stroke="midnightblue" d="M891.58,-266.51C975.78,-262.9 1113.74,-252.71 1229.12,-224 1298.84,-206.65 1376.69,-169.85 1409.35,-153.56"/>
<polygon fill="midnightblue" stroke="midnightblue" points="891.44,-263.02 881.59,-266.92 891.72,-270.01 891.44,-263.02"/>
</g>
<!-- Node4 -->
<g id="node4" class="node">
<title>Node4</title>
<g id="a_node4"><a xlink:href="Iocgns__DecompositionData_8C.html" target="_top" xlink:title=" ">
<polygon fill="white" stroke="black" points="698.53,-65.5 698.53,-93.5 855.71,-93.5 855.71,-65.5 698.53,-65.5"/>
<text text-anchor="start" x="706.53" y="-81.5" font-family="Helvetica,sans-Serif" font-size="10.00">src/cgns/Iocgns_Decomposition</text>
<text text-anchor="middle" x="777.12" y="-71.5" font-family="Helvetica,sans-Serif" font-size="10.00">Data.C</text>
</a>
</g>
</g>
<!-- Node2&#45;&gt;Node4 -->
<g id="edge3" class="edge">
<title>Node2&#45;&gt;Node4</title>
<path fill="none" stroke="midnightblue" d="M851.01,-256.59C866.25,-249.64 882.36,-239.17 891.12,-224 897.56,-212.84 898.44,-205.61 891.12,-195 865.46,-157.84 825.99,-192.86 796.12,-159 779.88,-140.6 776.97,-110.67 776.75,-93.58"/>
<polygon fill="midnightblue" stroke="midnightblue" points="849.59,-253.39 841.71,-260.47 852.29,-259.84 849.59,-253.39"/>
</g>
<!-- Node5 -->
<g id="node5" class="node">
<title>Node5</title>
<g id="a_node5"><a xlink:href="Iocgns__DecompositionData_8h.html" target="_top" xlink:title=" ">
<polygon fill="white" stroke="black" points="13.53,-130.5 13.53,-158.5 170.71,-158.5 170.71,-130.5 13.53,-130.5"/>
<text text-anchor="start" x="21.53" y="-146.5" font-family="Helvetica,sans-Serif" font-size="10.00">src/cgns/Iocgns_Decomposition</text>
<text text-anchor="middle" x="92.12" y="-136.5" font-family="Helvetica,sans-Serif" font-size="10.00">Data.h</text>
</a>
</g>
</g>
<!-- Node2&#45;&gt;Node5 -->
<g id="edge4" class="edge">
<title>Node2&#45;&gt;Node5</title>
<path fill="none" stroke="midnightblue" d="M736.38,-266.09C576.88,-260.71 223.37,-246.41 173.12,-224 141.1,-209.72 114.26,-177.03 101.01,-158.66"/>
<polygon fill="midnightblue" stroke="midnightblue" points="736.49,-269.59 746.6,-266.43 736.72,-262.6 736.49,-269.59"/>
</g>
<!-- Node7 -->
<g id="node7" class="node">
<title>Node7</title>
<g id="a_node7"><a xlink:href="Iocgns__ParallelDatabaseIO_8C.html" target="_top" xlink:title=" ">
<polygon fill="white" stroke="black" points="29.93,-0.5 29.93,-28.5 154.31,-28.5 154.31,-0.5 29.93,-0.5"/>
<text text-anchor="start" x="37.93" y="-16.5" font-family="Helvetica,sans-Serif" font-size="10.00">src/cgns/Iocgns_Parallel</text>
<text text-anchor="middle" x="92.12" y="-6.5" font-family="Helvetica,sans-Serif" font-size="10.00">DatabaseIO.C</text>
</a>
</g>
</g>
<!-- Node2&#45;&gt;Node7 -->
<g id="edge8" class="edge">
<title>Node2&#45;&gt;Node7</title>
<path fill="none" stroke="midnightblue" d="M736.08,-267.42C581.61,-264.64 242.14,-255.08 130.12,-224 69.4,-207.16 36.91,-212.81 4.12,-159 -9.47,-136.7 15.57,-72.96 21.12,-65 32.03,-49.35 49.59,-37.04 64.52,-28.62"/>
<polygon fill="midnightblue" stroke="midnightblue" points="736.37,-270.93 746.43,-267.61 736.49,-263.93 736.37,-270.93"/>
</g>
<!-- Node8 -->
<g id="node8" class="node">
<title>Node8</title>
<g id="a_node8"><a xlink:href="Iocgns__StructuredZoneData_8h.html" target="_top" xlink:title=" ">
<polygon fill="white" stroke="black" points="182.54,-195.5 182.54,-223.5 319.7,-223.5 319.7,-195.5 182.54,-195.5"/>
<text text-anchor="start" x="190.54" y="-211.5" font-family="Helvetica,sans-Serif" font-size="10.00">src/cgns/Iocgns_Structured</text>
<text text-anchor="middle" x="251.12" y="-201.5" font-family="Helvetica,sans-Serif" font-size="10.00">ZoneData.h</text>
</a>
</g>
</g>
<!-- Node2&#45;&gt;Node8 -->
<g id="edge9" class="edge">
<title>Node2&#45;&gt;Node8</title>
<path fill="none" stroke="midnightblue" d="M736.28,-262.94C641.18,-255.76 475.49,-242.03 334.12,-224 329.48,-223.41 324.71,-222.75 319.91,-222.06"/>
<polygon fill="midnightblue" stroke="midnightblue" points="736.16,-266.44 746.39,-263.7 736.68,-259.46 736.16,-266.44"/>
</g>
<!-- Node10 -->
<g id="node10" class="node">
<title>Node10</title>
<g id="a_node10"><a xlink:href="Iocgns__Utils_8C.html" target="_top" xlink:title=" ">
<polygon fill="white" stroke="black" points="628.88,-135.5 628.88,-153.5 749.36,-153.5 749.36,-135.5 628.88,-135.5"/>
<text text-anchor="middle" x="689.12" y="-141.5" font-family="Helvetica,sans-Serif" font-size="10.00">src/cgns/Iocgns_Utils.C</text>
</a>
</g>
</g>
<!-- Node2&#45;&gt;Node10 -->
<g id="edge19" class="edge">
<title>Node2&#45;&gt;Node10</title>
<path fill="none" stroke="midnightblue" d="M736.2,-266.32C614.69,-262.11 391.37,-250.78 367.12,-224 306.92,-157.51 264.73,-219.01 620.12,-159 629.75,-157.37 640.1,-155.45 649.78,-153.56"/>
<polygon fill="midnightblue" stroke="midnightblue" points="736.09,-269.82 746.2,-266.66 736.33,-262.82 736.09,-269.82"/>
</g>
<!-- Node17 -->
<g id="node17" class="node">
<title>Node17</title>
<g id="a_node17"><a xlink:href="Iocgns__Utils_8h.html" target="_top" xlink:title=" ">
<polygon fill="white" stroke="black" points="1101.71,-200.5 1101.71,-218.5 1220.53,-218.5 1220.53,-200.5 1101.71,-200.5"/>
<text text-anchor="middle" x="1161.12" y="-206.5" font-family="Helvetica,sans-Serif" font-size="10.00">src/cgns/Iocgns_Utils.h</text>
</a>
</g>
</g>
<!-- Node2&#45;&gt;Node17 -->
<g id="edge20" class="edge">
<title>Node2&#45;&gt;Node17</title>
<path fill="none" stroke="midnightblue" d="M872.06,-258.81C939.66,-247.52 1050.18,-229.04 1113.17,-218.51"/>
<polygon fill="midnightblue" stroke="midnightblue" points="871.29,-255.4 862,-260.5 872.44,-262.3 871.29,-255.4"/>
</g>
<!-- Node19 -->
<g id="node19" class="node">
<title>Node19</title>
<g id="a_node19"><a xlink:href="Iogs__DatabaseIO_8C.html" target="_top" xlink:title=" ">
<polygon fill="white" stroke="black" points="376.27,-195.5 376.27,-223.5 473.97,-223.5 473.97,-195.5 376.27,-195.5"/>
<text text-anchor="start" x="384.27" y="-211.5" font-family="Helvetica,sans-Serif" font-size="10.00">src/gen_struc/Iogs</text>
<text text-anchor="middle" x="425.12" y="-201.5" font-family="Helvetica,sans-Serif" font-size="10.00">_DatabaseIO.C</text>
</a>
</g>
</g>
<!-- Node2&#45;&gt;Node19 -->
<g id="edge29" class="edge">
<title>Node2&#45;&gt;Node19</title>
<path fill="none" stroke="midnightblue" d="M736.53,-260.18C669.24,-252.46 569.37,-239.8 483.12,-224 480.17,-223.46 477.14,-222.87 474.1,-222.25"/>
<polygon fill="midnightblue" stroke="midnightblue" points="736.29,-263.68 746.62,-261.33 737.08,-256.72 736.29,-263.68"/>
</g>
<!-- Node20 -->
<g id="node20" class="node">
<title>Node20</title>
<g id="a_node20"><a xlink:href="Ioss__DatabaseIO_8C.html" target="_top" xlink:title=" ">
<polygon fill="white" stroke="black" points="492.43,-200.5 492.43,-218.5 611.81,-218.5 611.81,-200.5 492.43,-200.5"/>
<text text-anchor="middle" x="552.12" y="-206.5" font-family="Helvetica,sans-Serif" font-size="10.00">src/Ioss_DatabaseIO.C</text>
</a>
</g>
</g>
<!-- Node2&#45;&gt;Node20 -->
<g id="edge30" class="edge">
<title>Node2&#45;&gt;Node20</title>
<path fill="none" stroke="midnightblue" d="M768.15,-258.32C716.94,-246.99 635.2,-228.89 588.32,-218.51"/>
<polygon fill="midnightblue" stroke="midnightblue" points="767.44,-261.75 777.96,-260.5 768.96,-254.92 767.44,-261.75"/>
</g>
<!-- Node21 -->
<g id="node21" class="node">
<title>Node21</title>
<g id="a_node21"><a xlink:href="Ioss__Region_8C.html" target="_top" xlink:title=" ">
<polygon fill="white" stroke="black" points="630.27,-200.5 630.27,-218.5 727.97,-218.5 727.97,-200.5 630.27,-200.5"/>
<text text-anchor="middle" x="679.12" y="-206.5" font-family="Helvetica,sans-Serif" font-size="10.00">src/Ioss_Region.C</text>
</a>
</g>
</g>
<!-- Node2&#45;&gt;Node21 -->
<g id="edge31" class="edge">
<title>Node2&#45;&gt;Node21</title>
<path fill="none" stroke="midnightblue" d="M785.92,-256.38C759.59,-245.07 721.03,-228.51 698.17,-218.68"/>
<polygon fill="midnightblue" stroke="midnightblue" points="784.78,-259.7 795.35,-260.44 787.54,-253.27 784.78,-259.7"/>
</g>
<!-- Node22 -->
<g id="node22" class="node">
<title>Node22</title>
<g id="a_node22"><a xlink:href="Ioss__StructuredBlock_8C.html" target="_top" xlink:title=" ">
<polygon fill="white" stroke="black" points="745.82,-200.5 745.82,-218.5 882.42,-218.5 882.42,-200.5 745.82,-200.5"/>
<text text-anchor="middle" x="814.12" y="-206.5" font-family="Helvetica,sans-Serif" font-size="10.00">src/Ioss_StructuredBlock.C</text>
</a>
</g>
</g>
<!-- Node2&#45;&gt;Node22 -->
<g id="edge32" class="edge">
<title>Node2&#45;&gt;Node22</title>
<path fill="none" stroke="midnightblue" d="M814.12,-250.21C814.12,-239.71 814.12,-227.03 814.12,-218.87"/>
<polygon fill="midnightblue" stroke="midnightblue" points="810.62,-250.44 814.12,-260.44 817.62,-250.44 810.62,-250.44"/>
</g>
<!-- Node23 -->
<g id="node23" class="node">
<title>Node23</title>
<g id="a_node23"><a xlink:href="Ioss__SubSystem_8h.html" target="_top" xlink:title=" ">
<polygon fill="white" stroke="black" points="1743.38,-200.5 1743.38,-218.5 1858.86,-218.5 1858.86,-200.5 1743.38,-200.5"/>
<text text-anchor="middle" x="1801.12" y="-206.5" font-family="Helvetica,sans-Serif" font-size="10.00">src/Ioss_SubSystem.h</text>
</a>
</g>
</g>
<!-- Node2&#45;&gt;Node23 -->
<g id="edge33" class="edge">
<title>Node2&#45;&gt;Node23</title>
<path fill="none" stroke="midnightblue" d="M891.95,-263.93C1083.54,-252.67 1574.61,-223.81 1743.24,-213.9"/>
<polygon fill="midnightblue" stroke="midnightblue" points="891.74,-260.43 881.96,-264.51 892.15,-267.42 891.74,-260.43"/>
</g>
<!-- Node31 -->
<g id="node31" class="node">
<title>Node31</title>
<g id="a_node31"><a xlink:href="io__info_8h.html" target="_top" xlink:title=" ">
<polygon fill="white" stroke="black" points="2429.93,-200.5 2429.93,-218.5 2524.3,-218.5 2524.3,-200.5 2429.93,-200.5"/>
<text text-anchor="middle" x="2477.12" y="-206.5" font-family="Helvetica,sans-Serif" font-size="10.00">src/main/io_info.h</text>
</a>
</g>
</g>
<!-- Node2&#45;&gt;Node31 -->
<g id="edge42" class="edge">
<title>Node2&#45;&gt;Node31</title>
<path fill="none" stroke="midnightblue" d="M891.64,-265.8C1181.67,-255.68 2198.02,-220.23 2429.81,-212.15"/>
<polygon fill="midnightblue" stroke="midnightblue" points="891.5,-262.3 881.63,-266.15 891.75,-269.29 891.5,-262.3"/>
</g>
<!-- Node34 -->
<g id="node34" class="node">
<title>Node34</title>
<g id="a_node34"><a xlink:href="io__modify_8C.html" target="_top" xlink:title=" ">
<polygon fill="white" stroke="black" points="937.81,-200.5 937.81,-218.5 1046.43,-218.5 1046.43,-200.5 937.81,-200.5"/>
<text text-anchor="middle" x="992.12" y="-206.5" font-family="Helvetica,sans-Serif" font-size="10.00">src/main/io_modify.C</text>
</a>
</g>
</g>
<!-- Node2&#45;&gt;Node34 -->
<g id="edge45" class="edge">
<title>Node2&#45;&gt;Node34</title>
<path fill="none" stroke="midnightblue" d="M848.62,-257.26C883.45,-245.91 936.39,-228.66 967.29,-218.59"/>
<polygon fill="midnightblue" stroke="midnightblue" points="847.29,-254.01 838.87,-260.44 849.46,-260.66 847.29,-254.01"/>
</g>
<!-- Node5&#45;&gt;Node4 -->
<g id="edge5" class="edge">
<title>Node5&#45;&gt;Node4</title>
<path fill="none" stroke="midnightblue" d="M180.76,-129.99C372.7,-107.62 585.78,-92.5 698.24,-85.29"/>
<polygon fill="midnightblue" stroke="midnightblue" points="180.29,-126.52 170.76,-131.16 181.1,-133.47 180.29,-126.52"/>
</g>
<!-- Node6 -->
<g id="node6" class="node">
<title>Node6</title>
<g id="a_node6"><a xlink:href="Iocgns__ParallelDatabaseIO_8h.html" target="_top" xlink:title=" ">
<polygon fill="white" stroke="black" points="29.93,-65.5 29.93,-93.5 154.31,-93.5 154.31,-65.5 29.93,-65.5"/>
<text text-anchor="start" x="37.93" y="-81.5" font-family="Helvetica,sans-Serif" font-size="10.00">src/cgns/Iocgns_Parallel</text>
<text text-anchor="middle" x="92.12" y="-71.5" font-family="Helvetica,sans-Serif" font-size="10.00">DatabaseIO.h</text>
</a>
</g>
</g>
<!-- Node5&#45;&gt;Node6 -->
<g id="edge6" class="edge">
<title>Node5&#45;&gt;Node6</title>
<path fill="none" stroke="midnightblue" d="M92.12,-120.16C92.12,-111.17 92.12,-101.22 92.12,-93.54"/>
<polygon fill="midnightblue" stroke="midnightblue" points="88.62,-120.45 92.12,-130.45 95.62,-120.45 88.62,-120.45"/>
</g>
<!-- Node6&#45;&gt;Node7 -->
<g id="edge7" class="edge">
<title>Node6&#45;&gt;Node7</title>
<path fill="none" stroke="midnightblue" d="M92.12,-55.16C92.12,-46.17 92.12,-36.22 92.12,-28.54"/>
<polygon fill="midnightblue" stroke="midnightblue" points="88.62,-55.45 92.12,-65.45 95.62,-55.45 88.62,-55.45"/>
</g>
<!-- Node8&#45;&gt;Node5 -->
<g id="edge10" class="edge">
<title>Node8&#45;&gt;Node5</title>
<path fill="none" stroke="midnightblue" d="M208.84,-191.75C182.58,-181.34 149.31,-168.16 125.02,-158.54"/>
<polygon fill="midnightblue" stroke="midnightblue" points="207.59,-195.02 218.17,-195.45 210.17,-188.51 207.59,-195.02"/>
</g>
<!-- Node9 -->
<g id="node9" class="node">
<title>Node9</title>
<g id="a_node9"><a xlink:href="Iocgns__StructuredZoneData_8C.html" target="_top" xlink:title=" ">
<polygon fill="white" stroke="black" points="473.54,-130.5 473.54,-158.5 610.7,-158.5 610.7,-130.5 473.54,-130.5"/>
<text text-anchor="start" x="481.54" y="-146.5" font-family="Helvetica,sans-Serif" font-size="10.00">src/cgns/Iocgns_Structured</text>
<text text-anchor="middle" x="542.12" y="-136.5" font-family="Helvetica,sans-Serif" font-size="10.00">ZoneData.C</text>
</a>
</g>
</g>
<!-- Node8&#45;&gt;Node9 -->
<g id="edge11" class="edge">
<title>Node8&#45;&gt;Node9</title>
<path fill="none" stroke="midnightblue" d="M321.32,-193.3C370.37,-182.68 435.2,-168.65 481.9,-158.54"/>
<polygon fill="midnightblue" stroke="midnightblue" points="320.45,-189.91 311.41,-195.45 321.93,-196.75 320.45,-189.91"/>
</g>
<!-- Node8&#45;&gt;Node10 -->
<g id="edge12" class="edge">
<title>Node8&#45;&gt;Node10</title>
<path fill="none" stroke="midnightblue" d="M330.19,-195.57C331.51,-195.38 332.82,-195.19 334.12,-195 460.92,-176.71 493.62,-179.31 620.12,-159 630,-157.41 640.63,-155.46 650.52,-153.53"/>
<polygon fill="midnightblue" stroke="midnightblue" points="329.3,-192.17 319.93,-197.11 330.34,-199.09 329.3,-192.17"/>
</g>
<!-- Node8&#45;&gt;Node11 -->
<g id="edge13" class="edge">
<title>Node8&#45;&gt;Node11</title>
<path fill="none" stroke="midnightblue" d="M329.73,-199.09C342.23,-197.67 355.03,-196.26 367.12,-195 540.69,-176.91 584.59,-177.54 758.12,-159 773.56,-157.35 790.19,-155.41 805.76,-153.53"/>
<polygon fill="midnightblue" stroke="midnightblue" points="329.32,-195.62 319.79,-200.23 330.12,-202.57 329.32,-195.62"/>
</g>
<!-- Node12 -->
<g id="node12" class="node">
<title>Node12</title>
<g id="a_node12"><a xlink:href="struc__to__unstruc_8C.html" target="_top" xlink:title=" ">
<polygon fill="white" stroke="black" points="951.87,-135.5 951.87,-153.5 1092.36,-153.5 1092.36,-135.5 951.87,-135.5"/>
<text text-anchor="middle" x="1022.12" y="-141.5" font-family="Helvetica,sans-Serif" font-size="10.00">src/main/struc_to_unstruc.C</text>
</a>
</g>
</g>
<!-- Node8&#45;&gt;Node12 -->
<g id="edge14" class="edge">
<title>Node8&#45;&gt;Node12</title>
<path fill="none" stroke="midnightblue" d="M329.7,-198.78C342.21,-197.4 355.01,-196.08 367.12,-195 622.16,-172.19 687.75,-188.34 942.12,-159 954.29,-157.6 967.43,-155.59 979.47,-153.55"/>
<polygon fill="midnightblue" stroke="midnightblue" points="329.3,-195.3 319.76,-199.9 330.08,-202.26 329.3,-195.3"/>
</g>
<!-- Node8&#45;&gt;Node13 -->
<g id="edge15" class="edge">
<title>Node8&#45;&gt;Node13</title>
<path fill="none" stroke="midnightblue" d="M251.12,-185.16C251.12,-176.17 251.12,-166.22 251.12,-158.54"/>
<polygon fill="midnightblue" stroke="midnightblue" points="247.62,-185.45 251.12,-195.45 254.62,-185.45 247.62,-185.45"/>
</g>
<!-- Node14 -->
<g id="node14" class="node">
<title>Node14</title>
<g id="a_node14"><a xlink:href="Utst__structured__decomp_8h.html" target="_top" xlink:title=" ">
<polygon fill="white" stroke="black" points="330.93,-130.5 330.93,-158.5 455.3,-158.5 455.3,-130.5 330.93,-130.5"/>
<text text-anchor="start" x="338.93" y="-146.5" font-family="Helvetica,sans-Serif" font-size="10.00">src/utest/Utst_structured</text>
<text text-anchor="middle" x="393.12" y="-136.5" font-family="Helvetica,sans-Serif" font-size="10.00">_decomp.h</text>
</a>
</g>
</g>
<!-- Node8&#45;&gt;Node14 -->
<g id="edge16" class="edge">
<title>Node8&#45;&gt;Node14</title>
<path fill="none" stroke="midnightblue" d="M289.8,-191.34C313.11,-181 342.32,-168.04 363.73,-158.54"/>
<polygon fill="midnightblue" stroke="midnightblue" points="288.26,-188.19 280.54,-195.45 291.1,-194.59 288.26,-188.19"/>
</g>
<!-- Node15 -->
<g id="node15" class="node">
<title>Node15</title>
<g id="a_node15"><a xlink:href="Utst__structured__decomp__herron_8C.html" target="_top" xlink:title=" ">
<polygon fill="white" stroke="black" points="401.93,-65.5 401.93,-93.5 526.3,-93.5 526.3,-65.5 401.93,-65.5"/>
<text text-anchor="start" x="409.93" y="-81.5" font-family="Helvetica,sans-Serif" font-size="10.00">src/utest/Utst_structured</text>
<text text-anchor="middle" x="464.12" y="-71.5" font-family="Helvetica,sans-Serif" font-size="10.00">_decomp_herron.C</text>
</a>
</g>
</g>
<!-- Node14&#45;&gt;Node15 -->
<g id="edge17" class="edge">
<title>Node14&#45;&gt;Node15</title>
<path fill="none" stroke="midnightblue" d="M415.47,-123.67C426.55,-113.83 439.62,-102.23 449.43,-93.54"/>
<polygon fill="midnightblue" stroke="midnightblue" points="412.99,-121.19 407.83,-130.45 417.63,-126.43 412.99,-121.19"/>
</g>
<!-- Node16 -->
<g id="node16" class="node">
<title>Node16</title>
<g id="a_node16"><a xlink:href="Utst__structured__decomp__rocket_8C.html" target="_top" xlink:title=" ">
<polygon fill="white" stroke="black" points="259.93,-65.5 259.93,-93.5 384.3,-93.5 384.3,-65.5 259.93,-65.5"/>
<text text-anchor="start" x="267.93" y="-81.5" font-family="Helvetica,sans-Serif" font-size="10.00">src/utest/Utst_structured</text>
<text text-anchor="middle" x="322.12" y="-71.5" font-family="Helvetica,sans-Serif" font-size="10.00">_decomp_rocket.C</text>
</a>
</g>
</g>
<!-- Node14&#45;&gt;Node16 -->
<g id="edge18" class="edge">
<title>Node14&#45;&gt;Node16</title>
<path fill="none" stroke="midnightblue" d="M370.77,-123.67C359.68,-113.83 346.61,-102.23 336.81,-93.54"/>
<polygon fill="midnightblue" stroke="midnightblue" points="368.6,-126.43 378.41,-130.45 373.25,-121.19 368.6,-126.43"/>
</g>
<!-- Node17&#45;&gt;Node3 -->
<g id="edge21" class="edge">
<title>Node17&#45;&gt;Node3</title>
<path fill="none" stroke="midnightblue" d="M1204.81,-198.07C1257.13,-185.59 1343.64,-164.94 1391.2,-153.59"/>
<polygon fill="midnightblue" stroke="midnightblue" points="1203.74,-194.73 1194.82,-200.46 1205.36,-201.54 1203.74,-194.73"/>
</g>
<!-- Node17&#45;&gt;Node4 -->
<g id="edge22" class="edge">
<title>Node17&#45;&gt;Node4</title>
<path fill="none" stroke="midnightblue" d="M1153.06,-191.39C1143.44,-173 1125.52,-144.46 1101.12,-130 1060.79,-106.11 938.18,-92.47 855.9,-85.78"/>
<polygon fill="midnightblue" stroke="midnightblue" points="1149.96,-193.01 1157.54,-200.41 1156.23,-189.9 1149.96,-193.01"/>
</g>
<!-- Node17&#45;&gt;Node7 -->
<g id="edge24" class="edge">
<title>Node17&#45;&gt;Node7</title>
<path fill="none" stroke="midnightblue" d="M1208.24,-198C1244.43,-188.88 1290.03,-174.68 1301.12,-159 1308.56,-148.48 1309.53,-139.76 1301.12,-130 1225.62,-42.42 391.71,-20.86 154.64,-16.48"/>
<polygon fill="midnightblue" stroke="midnightblue" points="1207.2,-194.66 1198.32,-200.44 1208.87,-201.45 1207.2,-194.66"/>
</g>
<!-- Node17&#45;&gt;Node10 -->
<g id="edge25" class="edge">
<title>Node17&#45;&gt;Node10</title>
<path fill="none" stroke="midnightblue" d="M1091.22,-199.17C998.55,-186.8 836.57,-165.18 749.16,-153.51"/>
<polygon fill="midnightblue" stroke="midnightblue" points="1090.96,-202.67 1101.34,-200.52 1091.89,-195.73 1090.96,-202.67"/>
</g>
<!-- Node17&#45;&gt;Node11 -->
<g id="edge26" class="edge">
<title>Node17&#45;&gt;Node11</title>
<path fill="none" stroke="midnightblue" d="M1113.87,-198.31C1056.12,-185.85 959.56,-165.01 906.64,-153.59"/>
<polygon fill="midnightblue" stroke="midnightblue" points="1113.33,-201.77 1123.84,-200.46 1114.8,-194.93 1113.33,-201.77"/>
</g>
<!-- Node17&#45;&gt;Node12 -->
<g id="edge27" class="edge">
<title>Node17&#45;&gt;Node12</title>
<path fill="none" stroke="midnightblue" d="M1134.06,-196.24C1106.26,-183.64 1063.78,-164.38 1039.94,-153.58"/>
<polygon fill="midnightblue" stroke="midnightblue" points="1132.68,-199.45 1143.23,-200.39 1135.57,-193.08 1132.68,-199.45"/>
</g>
<!-- Node17&#45;&gt;Node13 -->
<g id="edge28" class="edge">
<title>Node17&#45;&gt;Node13</title>
<path fill="none" stroke="midnightblue" d="M1094.28,-199.19C1081.31,-197.61 1067.8,-196.12 1055.12,-195 730.21,-166.37 646,-197.56 322.12,-159 319.25,-158.66 316.33,-158.27 313.38,-157.84"/>
<polygon fill="midnightblue" stroke="midnightblue" points="1094.19,-202.7 1104.54,-200.47 1095.06,-195.76 1094.19,-202.7"/>
</g>
<!-- Node18 -->
<g id="node18" class="node">
<title>Node18</title>
<g id="a_node18"><a xlink:href="Iocgns__IOFactory_8C.html" target="_top" xlink:title=" ">
<polygon fill="white" stroke="black" points="1148.02,-135.5 1148.02,-153.5 1292.22,-153.5 1292.22,-135.5 1148.02,-135.5"/>
<text text-anchor="middle" x="1220.12" y="-141.5" font-family="Helvetica,sans-Serif" font-size="10.00">src/cgns/Iocgns_IOFactory.C</text>
</a>
</g>
</g>
<!-- Node17&#45;&gt;Node18 -->
<g id="edge23" class="edge">
<title>Node17&#45;&gt;Node18</title>
<path fill="none" stroke="midnightblue" d="M1175.79,-192.83C1187.48,-180.36 1203.35,-163.4 1212.59,-153.54"/>
<polygon fill="midnightblue" stroke="midnightblue" points="1173.11,-190.57 1168.83,-200.26 1178.22,-195.36 1173.11,-190.57"/>
</g>
<!-- Node23&#45;&gt;Node12 -->
<g id="edge39" class="edge">
<title>Node23&#45;&gt;Node12</title>
<path fill="none" stroke="midnightblue" d="M1732.9,-204.31C1612.77,-196.72 1355.68,-179.58 1139.12,-159 1122.43,-157.41 1104.42,-155.46 1087.66,-153.53"/>
<polygon fill="midnightblue" stroke="midnightblue" points="1732.85,-207.81 1743.05,-204.95 1733.29,-200.83 1732.85,-207.81"/>
</g>
<!-- Node24 -->
<g id="node24" class="node">
<title>Node24</title>
<g id="a_node24"><a xlink:href="Ut__ioad_8C.html" target="_top" xlink:title=" ">
<polygon fill="white" stroke="black" points="1520.49,-130.5 1520.49,-158.5 1613.74,-158.5 1613.74,-130.5 1520.49,-130.5"/>
<text text-anchor="start" x="1528.49" y="-146.5" font-family="Helvetica,sans-Serif" font-size="10.00">src/adios/utest/Ut</text>
<text text-anchor="middle" x="1567.12" y="-136.5" font-family="Helvetica,sans-Serif" font-size="10.00">_ioad.C</text>
</a>
</g>
</g>
<!-- Node23&#45;&gt;Node24 -->
<g id="edge34" class="edge">
<title>Node23&#45;&gt;Node24</title>
<path fill="none" stroke="midnightblue" d="M1761.16,-197.74C1720.4,-186.77 1657.21,-169.76 1614.09,-158.15"/>
<polygon fill="midnightblue" stroke="midnightblue" points="1760.44,-201.17 1771.01,-200.39 1762.26,-194.41 1760.44,-201.17"/>
</g>
<!-- Node25 -->
<g id="node25" class="node">
<title>Node25</title>
<g id="a_node25"><a xlink:href="Iodw__DatabaseIO_8C.html" target="_top" xlink:title=" ">
<polygon fill="white" stroke="black" points="1631.7,-130.5 1631.7,-158.5 1740.53,-158.5 1740.53,-130.5 1631.7,-130.5"/>
<text text-anchor="start" x="1639.7" y="-146.5" font-family="Helvetica,sans-Serif" font-size="10.00">src/data_warehouse</text>
<text text-anchor="middle" x="1686.12" y="-136.5" font-family="Helvetica,sans-Serif" font-size="10.00">/Iodw_DatabaseIO.C</text>
</a>
</g>
</g>
<!-- Node23&#45;&gt;Node25 -->
<g id="edge35" class="edge">
<title>Node23&#45;&gt;Node25</title>
<path fill="none" stroke="midnightblue" d="M1777.13,-195.36C1757.41,-184.56 1729.63,-169.34 1709.96,-158.56"/>
<polygon fill="midnightblue" stroke="midnightblue" points="1775.63,-198.53 1786.08,-200.26 1779,-192.39 1775.63,-198.53"/>
</g>
<!-- Node26 -->
<g id="node26" class="node">
<title>Node26</title>
<g id="a_node26"><a xlink:href="Ioss__Utils_8C.html" target="_top" xlink:title=" ">
<polygon fill="white" stroke="black" points="1758.39,-135.5 1758.39,-153.5 1843.85,-153.5 1843.85,-135.5 1758.39,-135.5"/>
<text text-anchor="middle" x="1801.12" y="-141.5" font-family="Helvetica,sans-Serif" font-size="10.00">src/Ioss_Utils.C</text>
</a>
</g>
</g>
<!-- Node23&#45;&gt;Node26 -->
<g id="edge36" class="edge">
<title>Node23&#45;&gt;Node26</title>
<path fill="none" stroke="midnightblue" d="M1801.12,-189.91C1801.12,-177.81 1801.12,-162.65 1801.12,-153.54"/>
<polygon fill="midnightblue" stroke="midnightblue" points="1797.62,-190.26 1801.12,-200.26 1804.62,-190.26 1797.62,-190.26"/>
</g>
<!-- Node27 -->
<g id="node27" class="node">
<title>Node27</title>
<g id="a_node27"><a xlink:href="io__shell_8C.html" target="_top" xlink:title=" ">
<polygon fill="white" stroke="black" points="1861.88,-135.5 1861.88,-153.5 1962.35,-153.5 1962.35,-135.5 1861.88,-135.5"/>
<text text-anchor="middle" x="1912.12" y="-141.5" font-family="Helvetica,sans-Serif" font-size="10.00">src/main/io_shell.C</text>
</a>
</g>
</g>
<!-- Node23&#45;&gt;Node27 -->
<g id="edge37" class="edge">
<title>Node23&#45;&gt;Node27</title>
<path fill="none" stroke="midnightblue" d="M1824.44,-195.26C1846.67,-182.65 1879.41,-164.06 1897.95,-153.54"/>
<polygon fill="midnightblue" stroke="midnightblue" points="1822.6,-192.28 1815.63,-200.26 1826.05,-198.37 1822.6,-192.28"/>
</g>
<!-- Node28 -->
<g id="node28" class="node">
<title>Node28</title>
<g id="a_node28"><a xlink:href="io__shell__ts_8C.html" target="_top" xlink:title=" ">
<polygon fill="white" stroke="black" points="1980.21,-135.5 1980.21,-153.5 2094.02,-153.5 2094.02,-135.5 1980.21,-135.5"/>
<text text-anchor="middle" x="2037.12" y="-141.5" font-family="Helvetica,sans-Serif" font-size="10.00">src/main/io_shell_ts.C</text>
</a>
</g>
</g>
<!-- Node23&#45;&gt;Node28 -->
<g id="edge38" class="edge">
<title>Node23&#45;&gt;Node28</title>
<path fill="none" stroke="midnightblue" d="M1841.31,-197.77C1888.21,-185.25 1964.71,-164.83 2006.87,-153.58"/>
<polygon fill="midnightblue" stroke="midnightblue" points="1840.25,-194.43 1831.49,-200.39 1842.05,-201.2 1840.25,-194.43"/>
</g>
<!-- Node29 -->
<g id="node29" class="node">
<title>Node29</title>
<g id="a_node29"><a xlink:href="Iopg__DatabaseIO_8C.html" target="_top" xlink:title=" ">
<polygon fill="white" stroke="black" points="2112.41,-135.5 2112.41,-153.5 2271.83,-153.5 2271.83,-135.5 2112.41,-135.5"/>
<text text-anchor="middle" x="2192.12" y="-141.5" font-family="Helvetica,sans-Serif" font-size="10.00">src/pamgen/Iopg_DatabaseIO.C</text>
</a>
</g>
</g>
<!-- Node23&#45;&gt;Node29 -->
<g id="edge40" class="edge">
<title>Node23&#45;&gt;Node29</title>
<path fill="none" stroke="midnightblue" d="M1861.06,-198.84C1938.08,-186.43 2070.37,-165.12 2142.19,-153.54"/>
<polygon fill="midnightblue" stroke="midnightblue" points="1860.35,-195.41 1851.04,-200.46 1861.47,-202.32 1860.35,-195.41"/>
</g>
<!-- Node30 -->
<g id="node30" class="node">
<title>Node30</title>
<g id="a_node30"><a xlink:href="Iovs__DatabaseIO_8C.html" target="_top" xlink:title=" ">
<polygon fill="white" stroke="black" points="2290.27,-130.5 2290.27,-158.5 2397.97,-158.5 2397.97,-130.5 2290.27,-130.5"/>
<text text-anchor="start" x="2298.27" y="-146.5" font-family="Helvetica,sans-Serif" font-size="10.00">src/visualization/Iovs</text>
<text text-anchor="middle" x="2344.12" y="-136.5" font-family="Helvetica,sans-Serif" font-size="10.00">_DatabaseIO.C</text>
</a>
</g>
</g>
<!-- Node23&#45;&gt;Node30 -->
<g id="edge41" class="edge">
<title>Node23&#45;&gt;Node30</title>
<path fill="none" stroke="midnightblue" d="M1869.16,-203.82C1962.46,-196.86 2135.17,-182.09 2281.12,-159 2284.1,-158.53 2287.16,-158.01 2290.23,-157.45"/>
<polygon fill="midnightblue" stroke="midnightblue" points="1868.73,-200.34 1859.01,-204.57 1869.24,-207.32 1868.73,-200.34"/>
</g>
<!-- Node32 -->
<g id="node32" class="node">
<title>Node32</title>
<g id="a_node32"><a xlink:href="io__info_8C.html" target="_top" xlink:title=" ">
<polygon fill="white" stroke="black" points="2557.1,-135.5 2557.1,-153.5 2653.13,-153.5 2653.13,-135.5 2557.1,-135.5"/>
<text text-anchor="middle" x="2605.12" y="-141.5" font-family="Helvetica,sans-Serif" font-size="10.00">src/main/io_info.C</text>
</a>
</g>
</g>
<!-- Node31&#45;&gt;Node32 -->
<g id="edge43" class="edge">
<title>Node31&#45;&gt;Node32</title>
<path fill="none" stroke="midnightblue" d="M2502.71,-195.91C2528.31,-183.3 2566.95,-164.29 2588.71,-153.58"/>
<polygon fill="midnightblue" stroke="midnightblue" points="2501.02,-192.84 2493.59,-200.39 2504.11,-199.12 2501.02,-192.84"/>
</g>
<!-- Node33 -->
<g id="node33" class="node">
<title>Node33</title>
<g id="a_node33"><a xlink:href="io__info__main_8C.html" target="_top" xlink:title=" ">
<polygon fill="white" stroke="black" points="2415.49,-135.5 2415.49,-153.5 2538.75,-153.5 2538.75,-135.5 2415.49,-135.5"/>
<text text-anchor="middle" x="2477.12" y="-141.5" font-family="Helvetica,sans-Serif" font-size="10.00">src/main/io_info_main.C</text>
</a>
</g>
</g>
<!-- Node31&#45;&gt;Node33 -->
<g id="edge44" class="edge">
<title>Node31&#45;&gt;Node33</title>
<path fill="none" stroke="midnightblue" d="M2477.12,-189.91C2477.12,-177.81 2477.12,-162.65 2477.12,-153.54"/>
<polygon fill="midnightblue" stroke="midnightblue" points="2473.62,-190.26 2477.12,-200.26 2480.62,-190.26 2473.62,-190.26"/>
</g>
</g>
</svg>
