<?xml version="1.0" encoding="UTF-8" standalone="no"?>
<!DOCTYPE svg PUBLIC "-//W3C//DTD SVG 1.1//EN"
 "http://www.w3.org/Graphics/SVG/1.1/DTD/svg11.dtd">
<!-- Generated by graphviz version 2.40.1 (20161225.0304)
 -->
<!-- Title: src/Ioss_CompositeVariableType.C Pages: 1 -->
<!--zoomable 367 -->
<svg id="main" version="1.1" xmlns="http://www.w3.org/2000/svg" xmlns:xlink="http://www.w3.org/1999/xlink" xml:space="preserve" onload="init(evt)">
<style type="text/css"><![CDATA[
.edge:hover path { stroke: red; }
.edge:hover polygon { stroke: red; fill: red; }
]]></style>
<script type="text/javascript"><![CDATA[
var edges = document.getElementsByTagName('g');
if (edges && edges.length) {
  for (var i=0;i<edges.length;i++) {
    if (edges[i].id.substr(0,4)=='edge') {
      edges[i].setAttribute('class','edge');
    }
  }
}
]]></script>
        <defs>
                <circle id="rim" cx="0" cy="0" r="7"/>
                <circle id="rim2" cx="0" cy="0" r="3.5"/>
                <g id="zoomPlus">
                        <use xlink:href="#rim" fill="#404040">
                                <set attributeName="fill" to="#808080" begin="zoomplus.mouseover" end="zoomplus.mouseout"/>
                        </use>
                        <path d="M-4,0h8M0,-4v8" fill="none" stroke="white" stroke-width="1.5" pointer-events="none"/>
                </g>
                <g id="zoomMin">
                        <use xlink:href="#rim" fill="#404040">
                                <set attributeName="fill" to="#808080" begin="zoomminus.mouseover" end="zoomminus.mouseout"/>
                        </use>
                        <path d="M-4,0h8" fill="none" stroke="white" stroke-width="1.5" pointer-events="none"/>
                </g>
                <g id="dirArrow">
                        <path fill="none" stroke="white" stroke-width="1.5" d="M0,-3.0v7 M-2.5,-0.5L0,-3.0L2.5,-0.5"/>
                </g>
               <g id="resetDef">
                       <use xlink:href="#rim2" fill="#404040">
                               <set attributeName="fill" to="#808080" begin="reset.mouseover" end="reset.mouseout"/>
                       </use>
               </g>
        </defs>

<script type="text/javascript">
var viewWidth = 994;
var viewHeight = 367;
var sectionId = 'dynsection-0';
</script>
<script xlink:href="svgpan.js"/>
<svg id="graph" class="graph">
<g id="viewport">
<title>src/Ioss_CompositeVariableType.C</title>
<polygon fill="#ffffff" stroke="transparent" points="-4,4 -4,-363 989.8721,-363 989.8721,4 -4,4"/>
<!-- Node0 -->
<g id="node1" class="node">
<title>Node0</title>
<g id="a_node1"><a xlink:title=" ">
<polygon fill="#bfbfbf" stroke="#000000" points="732.6006,-330.5 732.6006,-358.5 872.3604,-358.5 872.3604,-330.5 732.6006,-330.5"/>
<text text-anchor="start" x="740.6006" y="-346.5" font-family="Helvetica,sans-Serif" font-size="10.00" fill="#000000">src/Ioss_CompositeVariable</text>
<text text-anchor="middle" x="802.4805" y="-336.5" font-family="Helvetica,sans-Serif" font-size="10.00" fill="#000000">Type.C</text>
</a>
</g>
</g>
<!-- Node1 -->
<g id="node2" class="node">
<title>Node1</title>
<g id="a_node2"><a xlink:href="Ioss__CompositeVariableType_8h.html" target="_top" xlink:title=" ">
<polygon fill="#ffffff" stroke="#000000" points="601.6426,-275.5 601.6426,-293.5 755.3184,-293.5 755.3184,-275.5 601.6426,-275.5"/>
<text text-anchor="middle" x="678.4805" y="-281.5" font-family="Helvetica,sans-Serif" font-size="10.00" fill="#000000">Ioss_CompositeVariableType.h</text>
</a>
</g>
</g>
<!-- Node0&#45;&gt;Node1 -->
<g id="edge1" class="edge">
<title>Node0&#45;&gt;Node1</title>
<path fill="none" stroke="#191970" d="M773.408,-330.4327C753.2305,-320.6693 726.4982,-307.7344 706.5441,-298.0792"/>
<polygon fill="#191970" stroke="#191970" points="707.8774,-294.8362 697.3514,-293.6311 704.8285,-301.1373 707.8774,-294.8362"/>
</g>
<!-- Node2 -->
<g id="node3" class="node">
<title>Node2</title>
<g id="a_node3"><a xlink:href="Ioss__VariableType_8h.html" target="_top" xlink:title=" ">
<polygon fill="#ffffff" stroke="#000000" points="520.5415,-220.5 520.5415,-238.5 626.4195,-238.5 626.4195,-220.5 520.5415,-220.5"/>
<text text-anchor="middle" x="573.4805" y="-226.5" font-family="Helvetica,sans-Serif" font-size="10.00" fill="#000000">Ioss_VariableType.h</text>
</a>
</g>
</g>
<!-- Node0&#45;&gt;Node2 -->
<g id="edge35" class="edge">
<title>Node0&#45;&gt;Node2</title>
<path fill="none" stroke="#191970" d="M732.3583,-335.2863C679.4098,-326.9638 612.5564,-313.0873 592.4805,-294 580.3309,-282.4487 575.8333,-263.5597 574.2261,-249.2007"/>
<polygon fill="#191970" stroke="#191970" points="577.6913,-248.5986 573.4657,-238.8829 570.7102,-249.1131 577.6913,-248.5986"/>
</g>
<!-- Node7 -->
<g id="node8" class="node">
<title>Node7</title>
<g id="a_node8"><a xlink:title=" ">
<polygon fill="#ffffff" stroke="#bfbfbf" points="652.2539,-.5 652.2539,-18.5 692.7071,-18.5 692.7071,-.5 652.2539,-.5"/>
<text text-anchor="middle" x="672.4805" y="-6.5" font-family="Helvetica,sans-Serif" font-size="10.00" fill="#000000">string</text>
</a>
</g>
</g>
<!-- Node0&#45;&gt;Node7 -->
<g id="edge39" class="edge">
<title>Node0&#45;&gt;Node7</title>
<path fill="none" stroke="#191970" d="M814.8487,-330.3723C831.6128,-309.7187 859.4805,-269.3869 859.4805,-229.5 859.4805,-229.5 859.4805,-229.5 859.4805,-119.5 859.4805,-47.7908 756.0564,-21.9023 703.0385,-13.3422"/>
<polygon fill="#191970" stroke="#191970" points="703.258,-9.8359 692.8488,-11.8104 702.2173,-16.7581 703.258,-9.8359"/>
</g>
<!-- Node11 -->
<g id="node12" class="node">
<title>Node11</title>
<g id="a_node12"><a xlink:href="Ioss__Utils_8h.html" target="_top" xlink:title=" ">
<polygon fill="#ffffff" stroke="#000000" points="364.6382,-165.5 364.6382,-183.5 432.3228,-183.5 432.3228,-165.5 364.6382,-165.5"/>
<text text-anchor="middle" x="398.4805" y="-171.5" font-family="Helvetica,sans-Serif" font-size="10.00" fill="#000000">Ioss_Utils.h</text>
</a>
</g>
</g>
<!-- Node0&#45;&gt;Node11 -->
<g id="edge34" class="edge">
<title>Node0&#45;&gt;Node11</title>
<path fill="none" stroke="#191970" d="M732.496,-335.5821C687.0143,-328.161 627.1606,-315.2812 577.4805,-294 513.4347,-266.5651 447.7203,-215.6954 416.748,-190.0862"/>
<polygon fill="#191970" stroke="#191970" points="418.8794,-187.306 408.9638,-183.5735 414.3875,-192.6748 418.8794,-187.306"/>
</g>
<!-- Node14 -->
<g id="node15" class="node">
<title>Node14</title>
<g id="a_node15"><a xlink:title=" ">
<polygon fill="#ffffff" stroke="#bfbfbf" points="770.3648,-110.5 770.3648,-128.5 818.5962,-128.5 818.5962,-110.5 770.3648,-110.5"/>
<text text-anchor="middle" x="794.4805" y="-116.5" font-family="Helvetica,sans-Serif" font-size="10.00" fill="#000000">cassert</text>
</a>
</g>
</g>
<!-- Node0&#45;&gt;Node14 -->
<g id="edge36" class="edge">
<title>Node0&#45;&gt;Node14</title>
<path fill="none" stroke="#191970" d="M803.9004,-330.3687C804.8433,-320.2529 805.994,-306.3031 806.4805,-294 808.1117,-252.7472 806.2904,-201.0836 802.4805,-165 801.5541,-156.2262 799.9468,-146.5917 798.4147,-138.456"/>
<polygon fill="#191970" stroke="#191970" points="801.8214,-137.6409 796.4433,-128.5126 794.955,-139.0024 801.8214,-137.6409"/>
</g>
<!-- Node21 -->
<g id="node22" class="node">
<title>Node21</title>
<g id="a_node22"><a xlink:title=" ">
<polygon fill="#ffffff" stroke="#bfbfbf" points="757.7539,-165.5 757.7539,-183.5 793.2071,-183.5 793.2071,-165.5 757.7539,-165.5"/>
<text text-anchor="middle" x="775.4805" y="-171.5" font-family="Helvetica,sans-Serif" font-size="10.00" fill="#000000">map</text>
</a>
</g>
</g>
<!-- Node0&#45;&gt;Node21 -->
<g id="edge38" class="edge">
<title>Node0&#45;&gt;Node21</title>
<path fill="none" stroke="#191970" d="M800.2249,-330.2983C795.3969,-299.8994 784.0555,-228.4909 778.5655,-193.9244"/>
<polygon fill="#191970" stroke="#191970" points="781.9712,-193.0538 776.9459,-183.7266 775.0579,-194.1519 781.9712,-193.0538"/>
</g>
<!-- Node22 -->
<g id="node23" class="node">
<title>Node22</title>
<g id="a_node23"><a xlink:title=" ">
<polygon fill="#ffffff" stroke="#bfbfbf" points="887.419,-275.5 887.419,-293.5 929.542,-293.5 929.542,-275.5 887.419,-275.5"/>
<text text-anchor="middle" x="908.4805" y="-281.5" font-family="Helvetica,sans-Serif" font-size="10.00" fill="#000000">cstdio</text>
</a>
</g>
</g>
<!-- Node0&#45;&gt;Node22 -->
<g id="edge37" class="edge">
<title>Node0&#45;&gt;Node22</title>
<path fill="none" stroke="#191970" d="M827.3328,-330.4327C844.2677,-320.8468 866.604,-308.2037 883.5546,-298.609"/>
<polygon fill="#191970" stroke="#191970" points="885.3705,-301.603 892.349,-293.6311 881.9223,-295.5112 885.3705,-301.603"/>
</g>
<!-- Node23 -->
<g id="node24" class="node">
<title>Node23</title>
<g id="a_node24"><a xlink:title=" ">
<polygon fill="#ffffff" stroke="#bfbfbf" points="947.0889,-275.5 947.0889,-293.5 985.8721,-293.5 985.8721,-275.5 947.0889,-275.5"/>
<text text-anchor="middle" x="966.4805" y="-281.5" font-family="Helvetica,sans-Serif" font-size="10.00" fill="#000000">utility</text>
</a>
</g>
</g>
<!-- Node0&#45;&gt;Node23 -->
<g id="edge40" class="edge">
<title>Node0&#45;&gt;Node23</title>
<path fill="none" stroke="#191970" d="M840.9312,-330.4327C870.3137,-319.683 910.2053,-305.0885 937.0699,-295.26"/>
<polygon fill="#191970" stroke="#191970" points="938.4905,-298.4672 946.6791,-291.7444 936.0854,-291.8933 938.4905,-298.4672"/>
</g>
<!-- Node1&#45;&gt;Node2 -->
<g id="edge2" class="edge">
<title>Node1&#45;&gt;Node2</title>
<path fill="none" stroke="#191970" d="M661.1419,-275.4179C644.4989,-266.7001 619.131,-253.4122 599.9594,-243.3699"/>
<polygon fill="#191970" stroke="#191970" points="601.3272,-240.1353 590.8449,-238.5956 598.0792,-246.3362 601.3272,-240.1353"/>
</g>
<!-- Node1&#45;&gt;Node7 -->
<g id="edge33" class="edge">
<title>Node1&#45;&gt;Node7</title>
<path fill="none" stroke="#191970" d="M686.0057,-275.455C700.1922,-257.4511 729.4805,-215.3369 729.4805,-174.5 729.4805,-174.5 729.4805,-174.5 729.4805,-119.5 729.4805,-83.1769 704.6763,-46.9084 687.7929,-26.4288"/>
<polygon fill="#191970" stroke="#191970" points="690.303,-23.9791 681.1376,-18.6644 684.9882,-28.5348 690.303,-23.9791"/>
</g>
<!-- Node3 -->
<g id="node4" class="node">
<title>Node3</title>
<g id="a_node4"><a xlink:href="Ioss__CodeTypes_8h.html" target="_top" xlink:title=" ">
<polygon fill="#ffffff" stroke="#000000" points="404.0645,-55.5 404.0645,-73.5 502.8965,-73.5 502.8965,-55.5 404.0645,-55.5"/>
<text text-anchor="middle" x="453.4805" y="-61.5" font-family="Helvetica,sans-Serif" font-size="10.00" fill="#000000">Ioss_CodeTypes.h</text>
</a>
</g>
</g>
<!-- Node2&#45;&gt;Node3 -->
<g id="edge3" class="edge">
<title>Node2&#45;&gt;Node3</title>
<path fill="none" stroke="#191970" d="M560.5487,-220.3253C545.1633,-208.1987 522.7116,-185.9191 532.4805,-165 543.0266,-142.4165 564.9344,-151.5835 575.4805,-129 579.0535,-121.3487 580.2966,-116.9364 575.4805,-110 566.5324,-97.1126 531.4195,-84.8237 501.1469,-76.2732"/>
<polygon fill="#191970" stroke="#191970" points="501.6804,-72.7903 491.1108,-73.5213 499.8293,-79.5411 501.6804,-72.7903"/>
</g>
<!-- Node2&#45;&gt;Node7 -->
<g id="edge31" class="edge">
<title>Node2&#45;&gt;Node7</title>
<path fill="none" stroke="#191970" d="M618.2692,-220.4715C638.4607,-213.9271 660.4356,-202.7919 672.4805,-184 703.6064,-135.4388 688.4339,-62.5887 678.6131,-28.4392"/>
<polygon fill="#191970" stroke="#191970" points="681.9371,-27.3398 675.678,-18.7914 675.2401,-29.3772 681.9371,-27.3398"/>
</g>
<!-- Node8 -->
<g id="node9" class="node">
<title>Node8</title>
<g id="a_node9"><a xlink:title=" ">
<polygon fill="#ffffff" stroke="#bfbfbf" points="120.8648,-.5 120.8648,-18.5 164.0962,-18.5 164.0962,-.5 120.8648,-.5"/>
<text text-anchor="middle" x="142.4805" y="-6.5" font-family="Helvetica,sans-Serif" font-size="10.00" fill="#000000">vector</text>
</a>
</g>
</g>
<!-- Node2&#45;&gt;Node8 -->
<g id="edge32" class="edge">
<title>Node2&#45;&gt;Node8</title>
<path fill="none" stroke="#191970" d="M520.2475,-228.342C392.5244,-224.3268 74.4602,-206.5821 9.4805,-129 -27.9848,-84.2686 61.2719,-40.7998 111.3571,-20.8554"/>
<polygon fill="#191970" stroke="#191970" points="112.7483,-24.0699 120.8027,-17.1868 110.2139,-17.5447 112.7483,-24.0699"/>
</g>
<!-- Node2&#45;&gt;Node11 -->
<g id="edge11" class="edge">
<title>Node2&#45;&gt;Node11</title>
<path fill="none" stroke="#191970" d="M544.5828,-220.4179C515.11,-211.155 469.2201,-196.7325 436.745,-186.526"/>
<polygon fill="#191970" stroke="#191970" points="437.7196,-183.1636 427.1303,-183.5042 435.6208,-189.8415 437.7196,-183.1636"/>
</g>
<!-- Node19 -->
<g id="node20" class="node">
<title>Node19</title>
<g id="a_node20"><a xlink:title=" ">
<polygon fill="#ffffff" stroke="#bfbfbf" points="541.7539,-165.5 541.7539,-183.5 587.2071,-183.5 587.2071,-165.5 541.7539,-165.5"/>
<text text-anchor="middle" x="564.4805" y="-171.5" font-family="Helvetica,sans-Serif" font-size="10.00" fill="#000000">cstring</text>
</a>
</g>
</g>
<!-- Node2&#45;&gt;Node19 -->
<g id="edge28" class="edge">
<title>Node2&#45;&gt;Node19</title>
<path fill="none" stroke="#191970" d="M571.9943,-220.4179C570.8159,-213.2164 569.1271,-202.8962 567.649,-193.8632"/>
<polygon fill="#191970" stroke="#191970" points="571.068,-193.083 565.999,-183.7795 564.1599,-194.2134 571.068,-193.083"/>
</g>
<!-- Node20 -->
<g id="node21" class="node">
<title>Node20</title>
<g id="a_node21"><a xlink:title=" ">
<polygon fill="#ffffff" stroke="#bfbfbf" points="605.0767,-165.5 605.0767,-183.5 663.8843,-183.5 663.8843,-165.5 605.0767,-165.5"/>
<text text-anchor="middle" x="634.4805" y="-171.5" font-family="Helvetica,sans-Serif" font-size="10.00" fill="#000000">functional</text>
</a>
</g>
</g>
<!-- Node2&#45;&gt;Node20 -->
<g id="edge29" class="edge">
<title>Node2&#45;&gt;Node20</title>
<path fill="none" stroke="#191970" d="M583.5534,-220.4179C592.506,-212.3458 605.8043,-200.3556 616.5668,-190.6517"/>
<polygon fill="#191970" stroke="#191970" points="619.1056,-193.0753 624.1887,-183.7795 614.4181,-187.8764 619.1056,-193.0753"/>
</g>
<!-- Node2&#45;&gt;Node21 -->
<g id="edge30" class="edge">
<title>Node2&#45;&gt;Node21</title>
<path fill="none" stroke="#191970" d="M606.8367,-220.4179C646.2049,-209.6988 710.9494,-192.0704 747.7093,-182.0615"/>
<polygon fill="#191970" stroke="#191970" points="748.9966,-185.3384 757.7259,-179.3342 747.1576,-178.5843 748.9966,-185.3384"/>
</g>
<!-- Node4 -->
<g id="node5" class="node">
<title>Node4</title>
<g id="a_node5"><a xlink:title=" ">
<polygon fill="#ffffff" stroke="#bfbfbf" points="350.0889,-.5 350.0889,-18.5 388.8721,-18.5 388.8721,-.5 350.0889,-.5"/>
<text text-anchor="middle" x="369.4805" y="-6.5" font-family="Helvetica,sans-Serif" font-size="10.00" fill="#000000">array</text>
</a>
</g>
</g>
<!-- Node3&#45;&gt;Node4 -->
<g id="edge4" class="edge">
<title>Node3&#45;&gt;Node4</title>
<path fill="none" stroke="#191970" d="M439.6096,-55.4179C426.7208,-46.9788 407.2911,-34.257 392.1491,-24.3426"/>
<polygon fill="#191970" stroke="#191970" points="393.6555,-21.1454 383.372,-18.5956 389.8209,-27.0017 393.6555,-21.1454"/>
</g>
<!-- Node5 -->
<g id="node6" class="node">
<title>Node5</title>
<g id="a_node6"><a xlink:title=" ">
<polygon fill="#ffffff" stroke="#bfbfbf" points="220.3599,-.5 220.3599,-18.5 268.6011,-18.5 268.6011,-.5 220.3599,-.5"/>
<text text-anchor="middle" x="244.4805" y="-6.5" font-family="Helvetica,sans-Serif" font-size="10.00" fill="#000000">cstddef</text>
</a>
</g>
</g>
<!-- Node3&#45;&gt;Node5 -->
<g id="edge5" class="edge">
<title>Node3&#45;&gt;Node5</title>
<path fill="none" stroke="#191970" d="M417.9028,-55.4508C382.5083,-46.4008 326.6722,-31.9964 278.4805,-19 278.3806,-18.9731 278.2806,-18.9461 278.1805,-18.919"/>
<polygon fill="#191970" stroke="#191970" points="279.1809,-15.5642 268.6117,-16.3006 277.3332,-22.316 279.1809,-15.5642"/>
</g>
<!-- Node6 -->
<g id="node7" class="node">
<title>Node6</title>
<g id="a_node7"><a xlink:title=" ">
<polygon fill="#ffffff" stroke="#bfbfbf" points="287.0298,-.5 287.0298,-18.5 331.9312,-18.5 331.9312,-.5 287.0298,-.5"/>
<text text-anchor="middle" x="309.4805" y="-6.5" font-family="Helvetica,sans-Serif" font-size="10.00" fill="#000000">cstdint</text>
</a>
</g>
</g>
<!-- Node3&#45;&gt;Node6 -->
<g id="edge6" class="edge">
<title>Node3&#45;&gt;Node6</title>
<path fill="none" stroke="#191970" d="M429.7018,-55.4179C405.7601,-46.2734 368.6528,-32.1005 341.9974,-21.9197"/>
<polygon fill="#191970" stroke="#191970" points="342.9331,-18.5305 332.3425,-18.232 340.4354,-25.0697 342.9331,-18.5305"/>
</g>
<!-- Node3&#45;&gt;Node7 -->
<g id="edge7" class="edge">
<title>Node3&#45;&gt;Node7</title>
<path fill="none" stroke="#191970" d="M489.6439,-55.4179C532.2456,-44.7188 602.2564,-27.1362 642.1484,-17.1176"/>
<polygon fill="#191970" stroke="#191970" points="643.234,-20.4538 652.0803,-14.6233 641.5289,-13.6646 643.234,-20.4538"/>
</g>
<!-- Node3&#45;&gt;Node8 -->
<g id="edge8" class="edge">
<title>Node3&#45;&gt;Node8</title>
<path fill="none" stroke="#191970" d="M403.8577,-55.7243C339.3876,-44.3228 228.6766,-24.7437 174.3873,-15.1427"/>
<polygon fill="#191970" stroke="#191970" points="174.7689,-11.6559 164.3122,-13.3609 173.5499,-18.549 174.7689,-11.6559"/>
</g>
<!-- Node9 -->
<g id="node10" class="node">
<title>Node9</title>
<g id="a_node10"><a xlink:title=" ">
<polygon fill="#ffffff" stroke="#bfbfbf" points="406.732,-.5 406.732,-18.5 522.229,-18.5 522.229,-.5 406.732,-.5"/>
<text text-anchor="middle" x="464.4805" y="-6.5" font-family="Helvetica,sans-Serif" font-size="10.00" fill="#000000">SEACASIoss_config.h</text>
</a>
</g>
</g>
<!-- Node3&#45;&gt;Node9 -->
<g id="edge9" class="edge">
<title>Node3&#45;&gt;Node9</title>
<path fill="none" stroke="#191970" d="M455.2969,-55.4179C456.7372,-48.2164 458.8013,-37.8962 460.6079,-28.8632"/>
<polygon fill="#191970" stroke="#191970" points="464.0954,-29.2717 462.6246,-18.7795 457.2313,-27.8988 464.0954,-29.2717"/>
</g>
<!-- Node10 -->
<g id="node11" class="node">
<title>Node10</title>
<g id="a_node11"><a xlink:title=" ">
<polygon fill="#ffffff" stroke="#bfbfbf" points="539.8623,-.5 539.8623,-18.5 593.0987,-18.5 593.0987,-.5 539.8623,-.5"/>
<text text-anchor="middle" x="566.4805" y="-6.5" font-family="Helvetica,sans-Serif" font-size="10.00" fill="#000000">complex</text>
</a>
</g>
</g>
<!-- Node3&#45;&gt;Node10 -->
<g id="edge10" class="edge">
<title>Node3&#45;&gt;Node10</title>
<path fill="none" stroke="#191970" d="M472.1402,-55.4179C490.2147,-46.6205 517.8513,-33.1691 538.5477,-23.0956"/>
<polygon fill="#191970" stroke="#191970" points="540.3334,-26.1191 547.7931,-18.5956 537.2699,-19.825 540.3334,-26.1191"/>
</g>
<!-- Node11&#45;&gt;Node3 -->
<g id="edge12" class="edge">
<title>Node11&#45;&gt;Node3</title>
<path fill="none" stroke="#191970" d="M432.5512,-169.6568C474.8638,-162.8638 543.338,-149.049 558.4805,-129 577.2199,-104.1886 540.8399,-86.7604 505.8854,-76.329"/>
<polygon fill="#191970" stroke="#191970" points="506.6858,-72.9183 496.1112,-73.572 504.7855,-79.6554 506.6858,-72.9183"/>
</g>
<!-- Node11&#45;&gt;Node5 -->
<g id="edge21" class="edge">
<title>Node11&#45;&gt;Node5</title>
<path fill="none" stroke="#191970" d="M364.4153,-172.1759C310.7066,-167.7237 210.2019,-155.9318 188.4805,-129 162.3926,-96.6544 201.3792,-50.1588 226.3269,-25.799"/>
<polygon fill="#191970" stroke="#191970" points="228.9636,-28.1232 233.8332,-18.7137 224.1586,-23.0327 228.9636,-28.1232"/>
</g>
<!-- Node11&#45;&gt;Node6 -->
<g id="edge22" class="edge">
<title>Node11&#45;&gt;Node6</title>
<path fill="none" stroke="#191970" d="M364.5158,-171.737C313.2066,-166.7793 219.7493,-154.4262 199.4805,-129 167.2069,-88.5145 237.8167,-44.6299 280.3284,-23.0492"/>
<polygon fill="#191970" stroke="#191970" points="282.0221,-26.1163 289.4351,-18.5466 278.9196,-19.8413 282.0221,-26.1163"/>
</g>
<!-- Node11&#45;&gt;Node7 -->
<g id="edge26" class="edge">
<title>Node11&#45;&gt;Node7</title>
<path fill="none" stroke="#191970" d="M432.63,-172.09C470.2537,-168.0598 531.2801,-157.3487 575.4805,-129 616.1671,-102.9049 647.7861,-54.0225 662.8376,-27.5851"/>
<polygon fill="#191970" stroke="#191970" points="666.0042,-29.091 667.7793,-18.6459 659.878,-25.7043 666.0042,-29.091"/>
</g>
<!-- Node11&#45;&gt;Node8 -->
<g id="edge27" class="edge">
<title>Node11&#45;&gt;Node8</title>
<path fill="none" stroke="#191970" d="M364.2251,-171.7771C308.9077,-166.6957 203.3771,-153.9504 176.4805,-129 148.3792,-102.9321 142.9083,-55.4735 142.1904,-28.8819"/>
<polygon fill="#191970" stroke="#191970" points="145.6885,-28.5623 142.126,-18.5844 138.6887,-28.6062 145.6885,-28.5623"/>
</g>
<!-- Node12 -->
<g id="node13" class="node">
<title>Node12</title>
<g id="a_node13"><a xlink:href="Ioss__Field_8h.html" target="_top" xlink:title=" ">
<polygon fill="#ffffff" stroke="#000000" points="407.5225,-110.5 407.5225,-128.5 477.4385,-128.5 477.4385,-110.5 407.5225,-110.5"/>
<text text-anchor="middle" x="442.4805" y="-116.5" font-family="Helvetica,sans-Serif" font-size="10.00" fill="#000000">Ioss_Field.h</text>
</a>
</g>
</g>
<!-- Node11&#45;&gt;Node12 -->
<g id="edge13" class="edge">
<title>Node11&#45;&gt;Node12</title>
<path fill="none" stroke="#191970" d="M405.7462,-165.4179C411.9506,-157.6624 421.0485,-146.29 428.6377,-136.8035"/>
<polygon fill="#191970" stroke="#191970" points="431.543,-138.7746 435.0569,-128.7795 426.0769,-134.4017 431.543,-138.7746"/>
</g>
<!-- Node13 -->
<g id="node14" class="node">
<title>Node13</title>
<g id="a_node14"><a xlink:title=" ">
<polygon fill="#ffffff" stroke="#bfbfbf" points="208.9165,-110.5 208.9165,-128.5 266.0445,-128.5 266.0445,-110.5 208.9165,-110.5"/>
<text text-anchor="middle" x="237.4805" y="-116.5" font-family="Helvetica,sans-Serif" font-size="10.00" fill="#000000">algorithm</text>
</a>
</g>
</g>
<!-- Node11&#45;&gt;Node13 -->
<g id="edge18" class="edge">
<title>Node11&#45;&gt;Node13</title>
<path fill="none" stroke="#191970" d="M371.8946,-165.4179C345.0134,-156.2348 303.2878,-141.9807 273.4593,-131.7909"/>
<polygon fill="#191970" stroke="#191970" points="274.4328,-128.4249 263.8383,-128.5042 272.1699,-135.0491 274.4328,-128.4249"/>
</g>
<!-- Node11&#45;&gt;Node14 -->
<g id="edge19" class="edge">
<title>Node11&#45;&gt;Node14</title>
<path fill="none" stroke="#191970" d="M432.586,-169.7631C507.3301,-159.382 684.8781,-134.7226 759.9815,-124.2915"/>
<polygon fill="#191970" stroke="#191970" points="760.8712,-127.7016 770.2946,-122.8592 759.9082,-120.7682 760.8712,-127.7016"/>
</g>
<!-- Node15 -->
<g id="node16" class="node">
<title>Node15</title>
<g id="a_node16"><a xlink:title=" ">
<polygon fill="#ffffff" stroke="#bfbfbf" points="283.8648,-110.5 283.8648,-128.5 327.0962,-128.5 327.0962,-110.5 283.8648,-110.5"/>
<text text-anchor="middle" x="305.4805" y="-116.5" font-family="Helvetica,sans-Serif" font-size="10.00" fill="#000000">cmath</text>
</a>
</g>
</g>
<!-- Node11&#45;&gt;Node15 -->
<g id="edge20" class="edge">
<title>Node11&#45;&gt;Node15</title>
<path fill="none" stroke="#191970" d="M383.1234,-165.4179C368.5844,-156.8195 346.528,-143.7754 329.6342,-133.7844"/>
<polygon fill="#191970" stroke="#191970" points="331.2495,-130.6735 320.8604,-128.5956 327.6861,-136.6987 331.2495,-130.6735"/>
</g>
<!-- Node16 -->
<g id="node17" class="node">
<title>Node16</title>
<g id="a_node17"><a xlink:title=" ">
<polygon fill="#ffffff" stroke="#bfbfbf" points="345.3081,-110.5 345.3081,-128.5 389.6529,-128.5 389.6529,-110.5 345.3081,-110.5"/>
<text text-anchor="middle" x="367.4805" y="-116.5" font-family="Helvetica,sans-Serif" font-size="10.00" fill="#000000">cstdlib</text>
</a>
</g>
</g>
<!-- Node11&#45;&gt;Node16 -->
<g id="edge23" class="edge">
<title>Node11&#45;&gt;Node16</title>
<path fill="none" stroke="#191970" d="M393.3615,-165.4179C389.124,-157.8998 382.9708,-146.9829 377.7273,-137.6799"/>
<polygon fill="#191970" stroke="#191970" points="380.67,-135.7724 372.7107,-128.7795 374.5719,-139.2096 380.67,-135.7724"/>
</g>
<!-- Node17 -->
<g id="node18" class="node">
<title>Node17</title>
<g id="a_node18"><a xlink:title=" ">
<polygon fill="#ffffff" stroke="#bfbfbf" points="495.3081,-110.5 495.3081,-128.5 549.6529,-128.5 549.6529,-110.5 495.3081,-110.5"/>
<text text-anchor="middle" x="522.4805" y="-116.5" font-family="Helvetica,sans-Serif" font-size="10.00" fill="#000000">iostream</text>
</a>
</g>
</g>
<!-- Node11&#45;&gt;Node17 -->
<g id="edge24" class="edge">
<title>Node11&#45;&gt;Node17</title>
<path fill="none" stroke="#191970" d="M418.9566,-165.4179C439.0599,-156.5011 469.9427,-142.803 492.7492,-132.6873"/>
<polygon fill="#191970" stroke="#191970" points="494.252,-135.8496 501.974,-128.5956 491.4137,-129.4508 494.252,-135.8496"/>
</g>
<!-- Node18 -->
<g id="node19" class="node">
<title>Node18</title>
<g id="a_node19"><a xlink:title=" ">
<polygon fill="#ffffff" stroke="#bfbfbf" points="18.0791,-110.5 18.0791,-128.5 76.8819,-128.5 76.8819,-110.5 18.0791,-110.5"/>
<text text-anchor="middle" x="47.4805" y="-116.5" font-family="Helvetica,sans-Serif" font-size="10.00" fill="#000000">stdexcept</text>
</a>
</g>
</g>
<!-- Node11&#45;&gt;Node18 -->
<g id="edge25" class="edge">
<title>Node11&#45;&gt;Node18</title>
<path fill="none" stroke="#191970" d="M364.6255,-170.2958C307.7779,-163.0582 189.6226,-147.2511 90.4805,-129 89.3903,-128.7993 88.2856,-128.5909 87.1716,-128.3762"/>
<polygon fill="#191970" stroke="#191970" points="87.5292,-124.8775 77.0327,-126.3173 86.1361,-131.7374 87.5292,-124.8775"/>
</g>
<!-- Node12&#45;&gt;Node3 -->
<g id="edge14" class="edge">
<title>Node12&#45;&gt;Node3</title>
<path fill="none" stroke="#191970" d="M444.2969,-110.4179C445.7372,-103.2164 447.8013,-92.8962 449.6079,-83.8632"/>
<polygon fill="#191970" stroke="#191970" points="453.0954,-84.2717 451.6246,-73.7795 446.2313,-82.8988 453.0954,-84.2717"/>
</g>
<!-- Node12&#45;&gt;Node5 -->
<g id="edge15" class="edge">
<title>Node12&#45;&gt;Node5</title>
<path fill="none" stroke="#191970" d="M426.2773,-110.4982C391.8318,-91.3619 311.108,-46.5153 269.8021,-23.5675"/>
<polygon fill="#191970" stroke="#191970" points="271.3489,-20.4231 260.9076,-18.6261 267.9494,-26.5422 271.3489,-20.4231"/>
</g>
<!-- Node12&#45;&gt;Node7 -->
<g id="edge16" class="edge">
<title>Node12&#45;&gt;Node7</title>
<path fill="none" stroke="#191970" d="M461.3024,-110.4982C501.6518,-91.2007 596.668,-45.7581 644.2689,-22.9925"/>
<polygon fill="#191970" stroke="#191970" points="645.8873,-26.0982 653.3986,-18.6261 642.8671,-19.7833 645.8873,-26.0982"/>
</g>
<!-- Node12&#45;&gt;Node8 -->
<g id="edge17" class="edge">
<title>Node12&#45;&gt;Node8</title>
<path fill="none" stroke="#191970" d="M417.9302,-110.4982C363.8252,-90.6597 234.3618,-43.1898 174.2054,-21.1325"/>
<polygon fill="#191970" stroke="#191970" points="175.0826,-17.7263 164.4889,-17.5697 172.6728,-24.2984 175.0826,-17.7263"/>
</g>
</g>
</svg>
        <g id="navigator" transform="translate(0 0)" fill="#404254">
                <rect fill="#f2f5e9" fill-opacity="0.5" stroke="#606060" stroke-width=".5" x="0" y="0" width="60" height="60"/>
                <use id="zoomplus" xlink:href="#zoomPlus" x="17" y="9" onmousedown="handleZoom(evt,'in')"/>
                <use id="zoomminus" xlink:href="#zoomMin" x="42" y="9" onmousedown="handleZoom(evt,'out')"/>
                <use id="reset" xlink:href="#resetDef" x="30" y="36" onmousedown="handleReset()"/>
                <g id="arrowUp" xlink:href="#dirArrow" transform="translate(30 24)" onmousedown="handlePan(0,-1)">
                  <use xlink:href="#rim" fill="#404040">
                        <set attributeName="fill" to="#808080" begin="arrowUp.mouseover" end="arrowUp.mouseout"/>
                  </use>
                  <path fill="none" stroke="white" stroke-width="1.5" d="M0,-3.0v7 M-2.5,-0.5L0,-3.0L2.5,-0.5"/>
                </g>
                <g id="arrowRight" xlink:href="#dirArrow" transform="rotate(90) translate(36 -43)" onmousedown="handlePan(1,0)">
                  <use xlink:href="#rim" fill="#404040">
                        <set attributeName="fill" to="#808080" begin="arrowRight.mouseover" end="arrowRight.mouseout"/>
                  </use>
                  <path fill="none" stroke="white" stroke-width="1.5" d="M0,-3.0v7 M-2.5,-0.5L0,-3.0L2.5,-0.5"/>
                </g>
                <g id="arrowDown" xlink:href="#dirArrow" transform="rotate(180) translate(-30 -48)" onmousedown="handlePan(0,1)">
                  <use xlink:href="#rim" fill="#404040">
                        <set attributeName="fill" to="#808080" begin="arrowDown.mouseover" end="arrowDown.mouseout"/>
                  </use>
                  <path fill="none" stroke="white" stroke-width="1.5" d="M0,-3.0v7 M-2.5,-0.5L0,-3.0L2.5,-0.5"/>
                </g>
                <g id="arrowLeft" xlink:href="#dirArrow" transform="rotate(270) translate(-36 17)" onmousedown="handlePan(-1,0)">
                  <use xlink:href="#rim" fill="#404040">
                        <set attributeName="fill" to="#808080" begin="arrowLeft.mouseover" end="arrowLeft.mouseout"/>
                  </use>
                  <path fill="none" stroke="white" stroke-width="1.5" d="M0,-3.0v7 M-2.5,-0.5L0,-3.0L2.5,-0.5"/>
                </g>
        </g>
        <svg viewBox="0 0 15 15" width="100%" height="30px" preserveAspectRatio="xMaxYMin meet">
         <g id="arrow_out" transform="scale(0.3 0.3)">
          <a xlink:href="Ioss__CompositeVariableType_8C__incl_org.svg" target="_base">
           <rect id="button" ry="5" rx="5" y="6" x="6" height="38" width="38"
                fill="#f2f5e9" fill-opacity="0.5" stroke="#606060" stroke-width="1.0"/>
           <path id="arrow"
             d="M 11.500037,31.436501 C 11.940474,20.09759 22.043105,11.32322 32.158766,21.979434 L 37.068811,17.246167 C 37.068811,17.246167 37.088388,32 37.088388,32 L 22.160133,31.978069 C 22.160133,31.978069 26.997745,27.140456 26.997745,27.140456 C 18.528582,18.264221 13.291696,25.230495 11.500037,31.436501 z"
             style="fill:#404040;"/>
          </a>
         </g>
        </svg>
</svg>
