<?xml version="1.0" encoding="UTF-8" standalone="no"?>
<!DOCTYPE svg PUBLIC "-//W3C//DTD SVG 1.1//EN"
 "http://www.w3.org/Graphics/SVG/1.1/DTD/svg11.dtd">
<!-- Generated by graphviz version 2.44.0 (20200408.0750)
 -->
<!-- Title: src/Ioss_SideSet.h Pages: 1 -->
<svg width="3853pt" height="218pt"
 viewBox="0.00 0.00 3852.61 218.00" xmlns="http://www.w3.org/2000/svg" xmlns:xlink="http://www.w3.org/1999/xlink">
<g id="graph0" class="graph" transform="scale(1 1) rotate(0) translate(4 214)">
<title>src/Ioss_SideSet.h</title>
<polygon fill="white" stroke="transparent" points="-4,4 -4,-214 3848.61,-214 3848.61,4 -4,4"/>
<!-- Node1 -->
<g id="node1" class="node">
<title>Node1</title>
<g id="a_node1"><a xlink:title=" ">
<polygon fill="#bfbfbf" stroke="black" points="1578.61,-190.5 1578.61,-209.5 1678.61,-209.5 1678.61,-190.5 1578.61,-190.5"/>
<text text-anchor="middle" x="1628.61" y="-197.5" font-family="Helvetica,sans-Serif" font-size="10.00">src/Ioss_SideSet.h</text>
</a>
</g>
</g>
<!-- Node2 -->
<g id="node2" class="node">
<title>Node2</title>
<g id="a_node2"><a xlink:href="Ioad__DatabaseIO_8h.html" target="_top" xlink:title=" ">
<polygon fill="white" stroke="black" points="170.61,-134.5 170.61,-153.5 314.61,-153.5 314.61,-134.5 170.61,-134.5"/>
<text text-anchor="middle" x="242.61" y="-141.5" font-family="Helvetica,sans-Serif" font-size="10.00">src/adios/Ioad_DatabaseIO.h</text>
</a>
</g>
</g>
<!-- Node1&#45;&gt;Node2 -->
<g id="edge1" class="edge">
<title>Node1&#45;&gt;Node2</title>
<path fill="none" stroke="midnightblue" d="M1568.35,-198.04C1384.53,-194.88 814.84,-183.22 343.61,-154 334.3,-153.42 324.52,-152.7 314.85,-151.91"/>
<polygon fill="midnightblue" stroke="midnightblue" points="1568.3,-201.54 1578.36,-198.21 1568.42,-194.54 1568.3,-201.54"/>
</g>
<!-- Node5 -->
<g id="node5" class="node">
<title>Node5</title>
<g id="a_node5"><a xlink:href="Ioad__Helper_8h.html" target="_top" xlink:title=" ">
<polygon fill="white" stroke="black" points="353.11,-134.5 353.11,-153.5 472.11,-153.5 472.11,-134.5 353.11,-134.5"/>
<text text-anchor="middle" x="412.61" y="-141.5" font-family="Helvetica,sans-Serif" font-size="10.00">src/adios/Ioad_Helper.h</text>
</a>
</g>
</g>
<!-- Node1&#45;&gt;Node5 -->
<g id="edge4" class="edge">
<title>Node1&#45;&gt;Node5</title>
<path fill="none" stroke="midnightblue" d="M1568.44,-197.73C1400.47,-193.95 912.34,-181.27 507.61,-154 496.13,-153.23 483.87,-152.21 472.12,-151.14"/>
<polygon fill="midnightblue" stroke="midnightblue" points="1568.49,-201.24 1578.56,-197.96 1568.64,-194.24 1568.49,-201.24"/>
</g>
<!-- Node7 -->
<g id="node7" class="node">
<title>Node7</title>
<g id="a_node7"><a xlink:href="Ut__ioad_8C.html" target="_top" xlink:title=" ">
<polygon fill="white" stroke="black" points="855.11,-0.5 855.11,-30.5 950.11,-30.5 950.11,-0.5 855.11,-0.5"/>
<text text-anchor="start" x="863.11" y="-18.5" font-family="Helvetica,sans-Serif" font-size="10.00">src/adios/utest/Ut</text>
<text text-anchor="middle" x="902.61" y="-7.5" font-family="Helvetica,sans-Serif" font-size="10.00">_ioad.C</text>
</a>
</g>
</g>
<!-- Node1&#45;&gt;Node7 -->
<g id="edge8" class="edge">
<title>Node1&#45;&gt;Node7</title>
<path fill="none" stroke="midnightblue" d="M1567.98,-198.27C1308.82,-194.99 301.01,-180.62 161.61,-154 89.67,-140.26 48.7,-157.95 6.61,-98 -1.3,-86.72 -2.85,-77.01 6.61,-67 35.98,-35.93 673.7,-21.02 854.96,-17.39"/>
<polygon fill="midnightblue" stroke="midnightblue" points="1568.28,-201.77 1578.32,-198.4 1568.37,-194.77 1568.28,-201.77"/>
</g>
<!-- Node8 -->
<g id="node8" class="node">
<title>Node8</title>
<g id="a_node8"><a xlink:href="Iocgns__DatabaseIO_8C.html" target="_top" xlink:title=" ">
<polygon fill="white" stroke="black" points="1720.11,-6 1720.11,-25 1875.11,-25 1875.11,-6 1720.11,-6"/>
<text text-anchor="middle" x="1797.61" y="-13" font-family="Helvetica,sans-Serif" font-size="10.00">src/cgns/Iocgns_DatabaseIO.C</text>
</a>
</g>
</g>
<!-- Node1&#45;&gt;Node8 -->
<g id="edge9" class="edge">
<title>Node1&#45;&gt;Node8</title>
<path fill="none" stroke="midnightblue" d="M1688.65,-196.32C1872.16,-187.52 2416.3,-156.65 2467.61,-98 2553.49,0.14 2014.18,-45.76 1884.61,-31 1871.23,-29.48 1856.76,-27.29 1843.54,-25.07"/>
<polygon fill="midnightblue" stroke="midnightblue" points="1688.46,-192.83 1678.64,-196.8 1688.79,-199.82 1688.46,-192.83"/>
</g>
<!-- Node9 -->
<g id="node9" class="node">
<title>Node9</title>
<g id="a_node9"><a xlink:href="Iocgns__ParallelDatabaseIO_8C.html" target="_top" xlink:title=" ">
<polygon fill="white" stroke="black" points="1566.61,-0.5 1566.61,-30.5 1690.61,-30.5 1690.61,-0.5 1566.61,-0.5"/>
<text text-anchor="start" x="1574.61" y="-18.5" font-family="Helvetica,sans-Serif" font-size="10.00">src/cgns/Iocgns_Parallel</text>
<text text-anchor="middle" x="1628.61" y="-7.5" font-family="Helvetica,sans-Serif" font-size="10.00">DatabaseIO.C</text>
</a>
</g>
</g>
<!-- Node1&#45;&gt;Node9 -->
<g id="edge10" class="edge">
<title>Node1&#45;&gt;Node9</title>
<path fill="none" stroke="midnightblue" d="M1568.38,-196.28C1451.02,-190.68 1183.64,-176.48 959.61,-154 770.37,-135.01 409.28,-204.57 540.61,-67 558.45,-48.32 1338.43,-24.74 1566.56,-18.23"/>
<polygon fill="midnightblue" stroke="midnightblue" points="1568.43,-199.78 1578.59,-196.76 1568.76,-192.79 1568.43,-199.78"/>
</g>
<!-- Node10 -->
<g id="node10" class="node">
<title>Node10</title>
<g id="a_node10"><a xlink:href="Iocgns__Utils_8h.html" target="_top" xlink:title=" ">
<polygon fill="white" stroke="black" points="2514.61,-73 2514.61,-92 2634.61,-92 2634.61,-73 2514.61,-73"/>
<text text-anchor="middle" x="2574.61" y="-80" font-family="Helvetica,sans-Serif" font-size="10.00">src/cgns/Iocgns_Utils.h</text>
</a>
</g>
</g>
<!-- Node1&#45;&gt;Node10 -->
<g id="edge11" class="edge">
<title>Node1&#45;&gt;Node10</title>
<path fill="none" stroke="midnightblue" d="M1688.91,-198.3C1874.09,-195.83 2426.6,-185.85 2500.61,-154 2531.75,-140.6 2557.62,-107.95 2568.75,-92.24"/>
<polygon fill="midnightblue" stroke="midnightblue" points="1688.76,-194.81 1678.8,-198.44 1688.85,-201.81 1688.76,-194.81"/>
</g>
<!-- Node17 -->
<g id="node17" class="node">
<title>Node17</title>
<g id="a_node17"><a xlink:href="Ioex__BaseDatabaseIO_8C.html" target="_top" xlink:title=" ">
<polygon fill="white" stroke="black" points="550.11,-73 550.11,-92 727.11,-92 727.11,-73 550.11,-73"/>
<text text-anchor="middle" x="638.61" y="-80" font-family="Helvetica,sans-Serif" font-size="10.00">src/exodus/Ioex_BaseDatabaseIO.C</text>
</a>
</g>
</g>
<!-- Node1&#45;&gt;Node17 -->
<g id="edge20" class="edge">
<title>Node1&#45;&gt;Node17</title>
<path fill="none" stroke="midnightblue" d="M1568.58,-195.13C1470.91,-188.54 1271.63,-173.92 1103.61,-154 951.38,-135.95 772.33,-106.46 687.68,-92.01"/>
<polygon fill="midnightblue" stroke="midnightblue" points="1568.35,-198.62 1578.56,-195.8 1568.81,-191.64 1568.35,-198.62"/>
</g>
<!-- Node18 -->
<g id="node18" class="node">
<title>Node18</title>
<g id="a_node18"><a xlink:href="Ioex__DatabaseIO_8C.html" target="_top" xlink:title=" ">
<polygon fill="white" stroke="black" points="745.11,-73 745.11,-92 900.11,-92 900.11,-73 745.11,-73"/>
<text text-anchor="middle" x="822.61" y="-80" font-family="Helvetica,sans-Serif" font-size="10.00">src/exodus/Ioex_DatabaseIO.C</text>
</a>
</g>
</g>
<!-- Node1&#45;&gt;Node18 -->
<g id="edge21" class="edge">
<title>Node1&#45;&gt;Node18</title>
<path fill="none" stroke="midnightblue" d="M1568.41,-193.3C1490.34,-185.66 1350.02,-171.05 1230.61,-154 1097.72,-135.02 941.6,-106.22 866.85,-92.02"/>
<polygon fill="midnightblue" stroke="midnightblue" points="1568.25,-196.8 1578.54,-194.29 1568.93,-189.83 1568.25,-196.8"/>
</g>
<!-- Node19 -->
<g id="node19" class="node">
<title>Node19</title>
<g id="a_node19"><a xlink:href="Ioex__Internals_8C.html" target="_top" xlink:title=" ">
<polygon fill="white" stroke="black" points="918.61,-73 918.61,-92 1058.61,-92 1058.61,-73 918.61,-73"/>
<text text-anchor="middle" x="988.61" y="-80" font-family="Helvetica,sans-Serif" font-size="10.00">src/exodus/Ioex_Internals.C</text>
</a>
</g>
</g>
<!-- Node1&#45;&gt;Node19 -->
<g id="edge22" class="edge">
<title>Node1&#45;&gt;Node19</title>
<path fill="none" stroke="midnightblue" d="M1568.41,-190.36C1510.06,-181.8 1419.1,-167.99 1340.61,-154 1226.95,-133.75 1093.46,-105.89 1028.36,-92.04"/>
<polygon fill="midnightblue" stroke="midnightblue" points="1568.16,-193.86 1578.56,-191.84 1569.17,-186.93 1568.16,-193.86"/>
</g>
<!-- Node20 -->
<g id="node20" class="node">
<title>Node20</title>
<g id="a_node20"><a xlink:href="Ioex__ParallelDatabaseIO_8C.html" target="_top" xlink:title=" ">
<polygon fill="white" stroke="black" points="1076.61,-67.5 1076.61,-97.5 1200.61,-97.5 1200.61,-67.5 1076.61,-67.5"/>
<text text-anchor="start" x="1084.61" y="-85.5" font-family="Helvetica,sans-Serif" font-size="10.00">src/exodus/Ioex_Parallel</text>
<text text-anchor="middle" x="1138.61" y="-74.5" font-family="Helvetica,sans-Serif" font-size="10.00">DatabaseIO.C</text>
</a>
</g>
</g>
<!-- Node1&#45;&gt;Node20 -->
<g id="edge23" class="edge">
<title>Node1&#45;&gt;Node20</title>
<path fill="none" stroke="midnightblue" d="M1577.96,-188.35C1536.21,-179.47 1475.47,-166.33 1422.61,-154 1342.59,-135.33 1250.31,-112.11 1193.21,-97.54"/>
<polygon fill="midnightblue" stroke="midnightblue" points="1577.38,-191.81 1587.89,-190.46 1578.83,-184.96 1577.38,-191.81"/>
</g>
<!-- Node21 -->
<g id="node21" class="node">
<title>Node21</title>
<g id="a_node21"><a xlink:href="Iogs__DatabaseIO_8C.html" target="_top" xlink:title=" ">
<polygon fill="white" stroke="black" points="1218.61,-67.5 1218.61,-97.5 1316.61,-97.5 1316.61,-67.5 1218.61,-67.5"/>
<text text-anchor="start" x="1226.61" y="-85.5" font-family="Helvetica,sans-Serif" font-size="10.00">src/gen_struc/Iogs</text>
<text text-anchor="middle" x="1267.61" y="-74.5" font-family="Helvetica,sans-Serif" font-size="10.00">_DatabaseIO.C</text>
</a>
</g>
</g>
<!-- Node1&#45;&gt;Node21 -->
<g id="edge24" class="edge">
<title>Node1&#45;&gt;Node21</title>
<path fill="none" stroke="midnightblue" d="M1592.1,-187.32C1525.28,-165.94 1383.61,-120.61 1311.61,-97.58"/>
<polygon fill="midnightblue" stroke="midnightblue" points="1591.18,-190.7 1601.78,-190.41 1593.32,-184.03 1591.18,-190.7"/>
</g>
<!-- Node22 -->
<g id="node22" class="node">
<title>Node22</title>
<g id="a_node22"><a xlink:href="Iogn__DatabaseIO_8C.html" target="_top" xlink:title=" ">
<polygon fill="white" stroke="black" points="1334.61,-67.5 1334.61,-97.5 1432.61,-97.5 1432.61,-67.5 1334.61,-67.5"/>
<text text-anchor="start" x="1342.61" y="-85.5" font-family="Helvetica,sans-Serif" font-size="10.00">src/generated/Iogn</text>
<text text-anchor="middle" x="1383.61" y="-74.5" font-family="Helvetica,sans-Serif" font-size="10.00">_DatabaseIO.C</text>
</a>
</g>
</g>
<!-- Node1&#45;&gt;Node22 -->
<g id="edge25" class="edge">
<title>Node1&#45;&gt;Node22</title>
<path fill="none" stroke="midnightblue" d="M1601.04,-186C1554.62,-164.12 1461.27,-120.11 1413.41,-97.55"/>
<polygon fill="midnightblue" stroke="midnightblue" points="1599.66,-189.22 1610.2,-190.32 1602.65,-182.89 1599.66,-189.22"/>
</g>
<!-- Node23 -->
<g id="node23" class="node">
<title>Node23</title>
<g id="a_node23"><a xlink:href="Ioss__DatabaseIO_8C.html" target="_top" xlink:title=" ">
<polygon fill="white" stroke="black" points="1694.61,-73 1694.61,-92 1814.61,-92 1814.61,-73 1694.61,-73"/>
<text text-anchor="middle" x="1754.61" y="-80" font-family="Helvetica,sans-Serif" font-size="10.00">src/Ioss_DatabaseIO.C</text>
</a>
</g>
</g>
<!-- Node1&#45;&gt;Node23 -->
<g id="edge26" class="edge">
<title>Node1&#45;&gt;Node23</title>
<path fill="none" stroke="midnightblue" d="M1651.41,-184.88C1664.09,-176.57 1679.84,-165.46 1692.61,-154 1714.94,-133.97 1737.2,-106.32 1747.96,-92.34"/>
<polygon fill="midnightblue" stroke="midnightblue" points="1649.33,-182.06 1642.8,-190.4 1653.11,-187.95 1649.33,-182.06"/>
</g>
<!-- Node24 -->
<g id="node24" class="node">
<title>Node24</title>
<g id="a_node24"><a xlink:href="Ioss__Region_8C.html" target="_top" xlink:title=" ">
<polygon fill="white" stroke="black" points="1832.61,-73 1832.61,-92 1930.61,-92 1930.61,-73 1832.61,-73"/>
<text text-anchor="middle" x="1881.61" y="-80" font-family="Helvetica,sans-Serif" font-size="10.00">src/Ioss_Region.C</text>
</a>
</g>
</g>
<!-- Node1&#45;&gt;Node24 -->
<g id="edge27" class="edge">
<title>Node1&#45;&gt;Node24</title>
<path fill="none" stroke="midnightblue" d="M1656.95,-186.06C1709.04,-162.28 1818.69,-112.23 1862.72,-92.12"/>
<polygon fill="midnightblue" stroke="midnightblue" points="1655.27,-182.98 1647.63,-190.32 1658.18,-189.35 1655.27,-182.98"/>
</g>
<!-- Node25 -->
<g id="node25" class="node">
<title>Node25</title>
<g id="a_node25"><a xlink:href="Ioss__SideBlock_8h.html" target="_top" xlink:title=" ">
<polygon fill="white" stroke="black" points="1573.61,-134.5 1573.61,-153.5 1683.61,-153.5 1683.61,-134.5 1573.61,-134.5"/>
<text text-anchor="middle" x="1628.61" y="-141.5" font-family="Helvetica,sans-Serif" font-size="10.00">src/Ioss_SideBlock.h</text>
</a>
</g>
</g>
<!-- Node1&#45;&gt;Node25 -->
<g id="edge28" class="edge">
<title>Node1&#45;&gt;Node25</title>
<path fill="none" stroke="midnightblue" d="M1628.61,-179.8C1628.61,-170.91 1628.61,-160.78 1628.61,-153.75"/>
<polygon fill="midnightblue" stroke="midnightblue" points="1625.11,-180.08 1628.61,-190.08 1632.11,-180.08 1625.11,-180.08"/>
</g>
<!-- Node27 -->
<g id="node27" class="node">
<title>Node27</title>
<g id="a_node27"><a xlink:href="Ioss__SideSet_8C.html" target="_top" xlink:title=" ">
<polygon fill="white" stroke="black" points="1948.61,-73 1948.61,-92 2050.61,-92 2050.61,-73 1948.61,-73"/>
<text text-anchor="middle" x="1999.61" y="-80" font-family="Helvetica,sans-Serif" font-size="10.00">src/Ioss_SideSet.C</text>
</a>
</g>
</g>
<!-- Node1&#45;&gt;Node27 -->
<g id="edge60" class="edge">
<title>Node1&#45;&gt;Node27</title>
<path fill="none" stroke="midnightblue" d="M1666.11,-187.33C1740.77,-164.08 1906.5,-112.49 1972.1,-92.06"/>
<polygon fill="midnightblue" stroke="midnightblue" points="1664.7,-184.1 1656.2,-190.41 1666.78,-190.78 1664.7,-184.1"/>
</g>
<!-- Node28 -->
<g id="node28" class="node">
<title>Node28</title>
<g id="a_node28"><a xlink:href="Ioss__SubSystem_8h.html" target="_top" xlink:title=" ">
<polygon fill="white" stroke="black" points="2873.61,-73 2873.61,-92 2989.61,-92 2989.61,-73 2873.61,-73"/>
<text text-anchor="middle" x="2931.61" y="-80" font-family="Helvetica,sans-Serif" font-size="10.00">src/Ioss_SubSystem.h</text>
</a>
</g>
</g>
<!-- Node1&#45;&gt;Node28 -->
<g id="edge61" class="edge">
<title>Node1&#45;&gt;Node28</title>
<path fill="none" stroke="midnightblue" d="M1689.16,-198.56C1834.52,-196.93 2214.61,-189.35 2529.61,-154 2663.75,-138.95 2820.86,-107.26 2892.48,-92.03"/>
<polygon fill="midnightblue" stroke="midnightblue" points="1689.06,-195.06 1679.1,-198.66 1689.14,-202.06 1689.06,-195.06"/>
</g>
<!-- Node35 -->
<g id="node35" class="node">
<title>Node35</title>
<g id="a_node35"><a xlink:href="cth__pressure__map_8C.html" target="_top" xlink:title=" ">
<polygon fill="white" stroke="black" points="2069.11,-67.5 2069.11,-97.5 2182.11,-97.5 2182.11,-67.5 2069.11,-67.5"/>
<text text-anchor="start" x="2077.11" y="-85.5" font-family="Helvetica,sans-Serif" font-size="10.00">src/main/cth_pressure</text>
<text text-anchor="middle" x="2125.61" y="-74.5" font-family="Helvetica,sans-Serif" font-size="10.00">_map.C</text>
</a>
</g>
</g>
<!-- Node1&#45;&gt;Node35 -->
<g id="edge62" class="edge">
<title>Node1&#45;&gt;Node35</title>
<path fill="none" stroke="midnightblue" d="M1675.27,-188.19C1714.57,-179.08 1772.27,-165.7 1822.61,-154 1908.5,-134.05 2008.06,-110.87 2068.94,-96.7"/>
<polygon fill="midnightblue" stroke="midnightblue" points="1674.4,-184.8 1665.45,-190.46 1675.98,-191.62 1674.4,-184.8"/>
</g>
<!-- Node36 -->
<g id="node36" class="node">
<title>Node36</title>
<g id="a_node36"><a xlink:href="io__info_8h.html" target="_top" xlink:title=" ">
<polygon fill="white" stroke="black" points="3337.61,-73 3337.61,-92 3431.61,-92 3431.61,-73 3337.61,-73"/>
<text text-anchor="middle" x="3384.61" y="-80" font-family="Helvetica,sans-Serif" font-size="10.00">src/main/io_info.h</text>
</a>
</g>
</g>
<!-- Node1&#45;&gt;Node36 -->
<g id="edge63" class="edge">
<title>Node1&#45;&gt;Node36</title>
<path fill="none" stroke="midnightblue" d="M1688.85,-197.18C1842.46,-192.33 2261.27,-177.82 2609.61,-154 2885.93,-135.1 3216.68,-101.26 3337.49,-88.53"/>
<polygon fill="midnightblue" stroke="midnightblue" points="1688.57,-193.69 1678.68,-197.5 1688.79,-200.68 1688.57,-193.69"/>
</g>
<!-- Node39 -->
<g id="node39" class="node">
<title>Node39</title>
<g id="a_node39"><a xlink:href="io__modify_8C.html" target="_top" xlink:title=" ">
<polygon fill="white" stroke="black" points="2200.61,-73 2200.61,-92 2308.61,-92 2308.61,-73 2200.61,-73"/>
<text text-anchor="middle" x="2254.61" y="-80" font-family="Helvetica,sans-Serif" font-size="10.00">src/main/io_modify.C</text>
</a>
</g>
</g>
<!-- Node1&#45;&gt;Node39 -->
<g id="edge64" class="edge">
<title>Node1&#45;&gt;Node39</title>
<path fill="none" stroke="midnightblue" d="M1688.66,-189.12C1791.64,-171.98 2008.45,-134.98 2190.61,-98 2199.55,-96.19 2209.15,-94.09 2218.12,-92.07"/>
<polygon fill="midnightblue" stroke="midnightblue" points="1688.05,-185.67 1678.76,-190.77 1689.19,-192.58 1688.05,-185.67"/>
</g>
<!-- Node40 -->
<g id="node40" class="node">
<title>Node40</title>
<g id="a_node40"><a xlink:href="UnitTestIofxDatabaseIO_8C.html" target="_top" xlink:title=" ">
<polygon fill="white" stroke="black" points="2326.61,-67.5 2326.61,-97.5 2458.61,-97.5 2458.61,-67.5 2326.61,-67.5"/>
<text text-anchor="start" x="2334.61" y="-85.5" font-family="Helvetica,sans-Serif" font-size="10.00">src/unit_tests/UnitTestIofx</text>
<text text-anchor="middle" x="2392.61" y="-74.5" font-family="Helvetica,sans-Serif" font-size="10.00">DatabaseIO.C</text>
</a>
</g>
</g>
<!-- Node1&#45;&gt;Node40 -->
<g id="edge65" class="edge">
<title>Node1&#45;&gt;Node40</title>
<path fill="none" stroke="midnightblue" d="M1689,-191.29C1809.07,-175.69 2086.18,-138.46 2317.61,-98 2320.49,-97.5 2323.42,-96.97 2326.38,-96.44"/>
<polygon fill="midnightblue" stroke="midnightblue" points="1688.37,-187.84 1678.91,-192.59 1689.27,-194.78 1688.37,-187.84"/>
</g>
<!-- Node3 -->
<g id="node3" class="node">
<title>Node3</title>
<g id="a_node3"><a xlink:href="Ioad__DatabaseIO_8C.html" target="_top" xlink:title=" ">
<polygon fill="white" stroke="black" points="169.61,-73 169.61,-92 315.61,-92 315.61,-73 169.61,-73"/>
<text text-anchor="middle" x="242.61" y="-80" font-family="Helvetica,sans-Serif" font-size="10.00">src/adios/Ioad_DatabaseIO.C</text>
</a>
</g>
</g>
<!-- Node2&#45;&gt;Node3 -->
<g id="edge2" class="edge">
<title>Node2&#45;&gt;Node3</title>
<path fill="none" stroke="midnightblue" d="M242.61,-124.32C242.61,-113.5 242.61,-100.4 242.61,-92.01"/>
<polygon fill="midnightblue" stroke="midnightblue" points="239.11,-124.48 242.61,-134.48 246.11,-124.48 239.11,-124.48"/>
</g>
<!-- Node4 -->
<g id="node4" class="node">
<title>Node4</title>
<g id="a_node4"><a xlink:href="Ioad__IOFactory_8C.html" target="_top" xlink:title=" ">
<polygon fill="white" stroke="black" points="15.61,-73 15.61,-92 151.61,-92 151.61,-73 15.61,-73"/>
<text text-anchor="middle" x="83.61" y="-80" font-family="Helvetica,sans-Serif" font-size="10.00">src/adios/Ioad_IOFactory.C</text>
</a>
</g>
</g>
<!-- Node2&#45;&gt;Node4 -->
<g id="edge3" class="edge">
<title>Node2&#45;&gt;Node4</title>
<path fill="none" stroke="midnightblue" d="M210.37,-130.93C179.46,-119.37 133.61,-102.21 106.35,-92.01"/>
<polygon fill="midnightblue" stroke="midnightblue" points="209.24,-134.25 219.83,-134.48 211.69,-127.69 209.24,-134.25"/>
</g>
<!-- Node5&#45;&gt;Node3 -->
<g id="edge5" class="edge">
<title>Node5&#45;&gt;Node3</title>
<path fill="none" stroke="midnightblue" d="M378.57,-131.08C345.52,-119.52 296.19,-102.25 266.93,-92.01"/>
<polygon fill="midnightblue" stroke="midnightblue" points="377.66,-134.48 388.26,-134.48 379.98,-127.87 377.66,-134.48"/>
</g>
<!-- Node6 -->
<g id="node6" class="node">
<title>Node6</title>
<g id="a_node6"><a xlink:href="Ioad__Helper_8C.html" target="_top" xlink:title=" ">
<polygon fill="white" stroke="black" points="371.61,-73 371.61,-92 493.61,-92 493.61,-73 371.61,-73"/>
<text text-anchor="middle" x="432.61" y="-80" font-family="Helvetica,sans-Serif" font-size="10.00">src/adios/Ioad_Helper.C</text>
</a>
</g>
</g>
<!-- Node5&#45;&gt;Node6 -->
<g id="edge6" class="edge">
<title>Node5&#45;&gt;Node6</title>
<path fill="none" stroke="midnightblue" d="M418.78,-124.66C422.44,-113.77 426.9,-100.49 429.75,-92.01"/>
<polygon fill="midnightblue" stroke="midnightblue" points="415.35,-123.88 415.48,-134.48 421.98,-126.11 415.35,-123.88"/>
</g>
<!-- Node5&#45;&gt;Node7 -->
<g id="edge7" class="edge">
<title>Node5&#45;&gt;Node7</title>
<path fill="none" stroke="midnightblue" d="M391.59,-128.39C370.98,-112.34 345.04,-86.29 362.61,-67 395.47,-30.93 729.04,-20.17 854.9,-17.37"/>
<polygon fill="midnightblue" stroke="midnightblue" points="389.56,-131.24 399.67,-134.41 393.74,-125.63 389.56,-131.24"/>
</g>
<!-- Node10&#45;&gt;Node8 -->
<g id="edge12" class="edge">
<title>Node10&#45;&gt;Node8</title>
<path fill="none" stroke="midnightblue" d="M2526.48,-71.09C2517.9,-69.52 2509.02,-68.06 2500.61,-67 2228.54,-32.55 2157.15,-61.59 1884.61,-31 1871.07,-29.48 1856.43,-27.26 1843.09,-25.02"/>
<polygon fill="midnightblue" stroke="midnightblue" points="2525.89,-74.54 2536.37,-72.98 2527.2,-67.67 2525.89,-74.54"/>
</g>
<!-- Node10&#45;&gt;Node9 -->
<g id="edge15" class="edge">
<title>Node10&#45;&gt;Node9</title>
<path fill="none" stroke="midnightblue" d="M2508.46,-71.62C2494.97,-69.86 2480.85,-68.21 2467.61,-67 2132.19,-36.36 2045.36,-68.4 1710.61,-31 1704.15,-30.28 1697.42,-29.36 1690.73,-28.34"/>
<polygon fill="midnightblue" stroke="midnightblue" points="2508.26,-75.12 2518.63,-72.98 2509.18,-68.18 2508.26,-75.12"/>
</g>
<!-- Node11 -->
<g id="node11" class="node">
<title>Node11</title>
<g id="a_node11"><a xlink:href="Iocgns__DecompositionData_8C.html" target="_top" xlink:title=" ">
<polygon fill="white" stroke="black" points="2485.11,-0.5 2485.11,-30.5 2642.11,-30.5 2642.11,-0.5 2485.11,-0.5"/>
<text text-anchor="start" x="2493.11" y="-18.5" font-family="Helvetica,sans-Serif" font-size="10.00">src/cgns/Iocgns_Decomposition</text>
<text text-anchor="middle" x="2563.61" y="-7.5" font-family="Helvetica,sans-Serif" font-size="10.00">Data.C</text>
</a>
</g>
</g>
<!-- Node10&#45;&gt;Node11 -->
<g id="edge13" class="edge">
<title>Node10&#45;&gt;Node11</title>
<path fill="none" stroke="midnightblue" d="M2571.44,-62.74C2569.7,-52.49 2567.59,-40 2566,-30.59"/>
<polygon fill="midnightblue" stroke="midnightblue" points="2568.01,-63.46 2573.13,-72.73 2574.91,-62.29 2568.01,-63.46"/>
</g>
<!-- Node12 -->
<g id="node12" class="node">
<title>Node12</title>
<g id="a_node12"><a xlink:href="Iocgns__IOFactory_8C.html" target="_top" xlink:title=" ">
<polygon fill="white" stroke="black" points="1893.61,-6 1893.61,-25 2037.61,-25 2037.61,-6 1893.61,-6"/>
<text text-anchor="middle" x="1965.61" y="-13" font-family="Helvetica,sans-Serif" font-size="10.00">src/cgns/Iocgns_IOFactory.C</text>
</a>
</g>
</g>
<!-- Node10&#45;&gt;Node12 -->
<g id="edge14" class="edge">
<title>Node10&#45;&gt;Node12</title>
<path fill="none" stroke="midnightblue" d="M2525.61,-71.08C2517.3,-69.55 2508.73,-68.11 2500.61,-67 2300.08,-39.49 2247.37,-56.86 2046.61,-31 2034.29,-29.41 2020.98,-27.23 2008.79,-25.04"/>
<polygon fill="midnightblue" stroke="midnightblue" points="2525.1,-74.55 2535.58,-72.98 2526.42,-67.67 2525.1,-74.55"/>
</g>
<!-- Node13 -->
<g id="node13" class="node">
<title>Node13</title>
<g id="a_node13"><a xlink:href="Iocgns__Utils_8C.html" target="_top" xlink:title=" ">
<polygon fill="white" stroke="black" points="2055.61,-6 2055.61,-25 2177.61,-25 2177.61,-6 2055.61,-6"/>
<text text-anchor="middle" x="2116.61" y="-13" font-family="Helvetica,sans-Serif" font-size="10.00">src/cgns/Iocgns_Utils.C</text>
</a>
</g>
</g>
<!-- Node10&#45;&gt;Node13 -->
<g id="edge16" class="edge">
<title>Node10&#45;&gt;Node13</title>
<path fill="none" stroke="midnightblue" d="M2524.18,-71.06C2516.31,-69.59 2508.26,-68.18 2500.61,-67 2361.8,-45.48 2325.31,-53.27 2186.61,-31 2176.2,-29.33 2164.98,-27.17 2154.65,-25.03"/>
<polygon fill="midnightblue" stroke="midnightblue" points="2523.53,-74.5 2534,-72.94 2524.84,-67.63 2523.53,-74.5"/>
</g>
<!-- Node14 -->
<g id="node14" class="node">
<title>Node14</title>
<g id="a_node14"><a xlink:href="cgns__decomp_8C.html" target="_top" xlink:title=" ">
<polygon fill="white" stroke="black" points="2195.61,-6 2195.61,-25 2323.61,-25 2323.61,-6 2195.61,-6"/>
<text text-anchor="middle" x="2259.61" y="-13" font-family="Helvetica,sans-Serif" font-size="10.00">src/main/cgns_decomp.C</text>
</a>
</g>
</g>
<!-- Node10&#45;&gt;Node14 -->
<g id="edge17" class="edge">
<title>Node10&#45;&gt;Node14</title>
<path fill="none" stroke="midnightblue" d="M2523.14,-70.88C2461.1,-58.08 2358.08,-36.82 2300.96,-25.03"/>
<polygon fill="midnightblue" stroke="midnightblue" points="2522.61,-74.34 2533.11,-72.94 2524.02,-67.49 2522.61,-74.34"/>
</g>
<!-- Node15 -->
<g id="node15" class="node">
<title>Node15</title>
<g id="a_node15"><a xlink:href="struc__to__unstruc_8C.html" target="_top" xlink:title=" ">
<polygon fill="white" stroke="black" points="2660.61,-6 2660.61,-25 2800.61,-25 2800.61,-6 2660.61,-6"/>
<text text-anchor="middle" x="2730.61" y="-13" font-family="Helvetica,sans-Serif" font-size="10.00">src/main/struc_to_unstruc.C</text>
</a>
</g>
</g>
<!-- Node10&#45;&gt;Node15 -->
<g id="edge18" class="edge">
<title>Node10&#45;&gt;Node15</title>
<path fill="none" stroke="midnightblue" d="M2604.74,-68.95C2635.63,-56.08 2682.85,-36.4 2709.81,-25.17"/>
<polygon fill="midnightblue" stroke="midnightblue" points="2603.21,-65.79 2595.33,-72.87 2605.91,-72.25 2603.21,-65.79"/>
</g>
<!-- Node16 -->
<g id="node16" class="node">
<title>Node16</title>
<g id="a_node16"><a xlink:href="Utst__structured__decomp_8C.html" target="_top" xlink:title=" ">
<polygon fill="white" stroke="black" points="2342.11,-0.5 2342.11,-30.5 2467.11,-30.5 2467.11,-0.5 2342.11,-0.5"/>
<text text-anchor="start" x="2350.11" y="-18.5" font-family="Helvetica,sans-Serif" font-size="10.00">src/utest/Utst_structured</text>
<text text-anchor="middle" x="2404.61" y="-7.5" font-family="Helvetica,sans-Serif" font-size="10.00">_decomp.C</text>
</a>
</g>
</g>
<!-- Node10&#45;&gt;Node16 -->
<g id="edge19" class="edge">
<title>Node10&#45;&gt;Node16</title>
<path fill="none" stroke="midnightblue" d="M2542.45,-69.2C2513.64,-58.19 2471.42,-42.04 2441.3,-30.53"/>
<polygon fill="midnightblue" stroke="midnightblue" points="2541.45,-72.57 2552.04,-72.87 2543.95,-66.03 2541.45,-72.57"/>
</g>
<!-- Node25&#45;&gt;Node3 -->
<g id="edge29" class="edge">
<title>Node25&#45;&gt;Node3</title>
<path fill="none" stroke="midnightblue" d="M1563.39,-142.63C1376.25,-141.15 821.52,-133.82 362.61,-98 343.79,-96.53 323.36,-94.3 304.8,-92.03"/>
<polygon fill="midnightblue" stroke="midnightblue" points="1563.58,-146.13 1573.61,-142.71 1563.64,-139.13 1563.58,-146.13"/>
</g>
<!-- Node25&#45;&gt;Node6 -->
<g id="edge30" class="edge">
<title>Node25&#45;&gt;Node6</title>
<path fill="none" stroke="midnightblue" d="M1563.36,-142.39C1394.16,-140.37 927.53,-131.9 540.61,-98 523.65,-96.51 505.27,-94.28 488.56,-92.01"/>
<polygon fill="midnightblue" stroke="midnightblue" points="1563.55,-145.9 1573.59,-142.51 1563.63,-138.9 1563.55,-145.9"/>
</g>
<!-- Node25&#45;&gt;Node7 -->
<g id="edge31" class="edge">
<title>Node25&#45;&gt;Node7</title>
<path fill="none" stroke="midnightblue" d="M1574.46,-132.05C1545.28,-124.84 1509.28,-113.78 1479.61,-98 1460.37,-87.77 1461.78,-75.26 1441.61,-67 1353.12,-30.74 1064.72,-20.22 950.16,-17.43"/>
<polygon fill="midnightblue" stroke="midnightblue" points="1573.94,-135.53 1584.47,-134.45 1575.56,-128.72 1573.94,-135.53"/>
</g>
<!-- Node25&#45;&gt;Node8 -->
<g id="edge32" class="edge">
<title>Node25&#45;&gt;Node8</title>
<path fill="none" stroke="midnightblue" d="M1638.18,-125.54C1648.15,-108.69 1665.17,-83.38 1685.61,-67 1710.58,-47 1744.74,-33.1 1768.75,-25.02"/>
<polygon fill="midnightblue" stroke="midnightblue" points="1635.07,-123.94 1633.15,-134.36 1641.15,-127.41 1635.07,-123.94"/>
</g>
<!-- Node25&#45;&gt;Node9 -->
<g id="edge33" class="edge">
<title>Node25&#45;&gt;Node9</title>
<path fill="none" stroke="midnightblue" d="M1628.61,-124.11C1628.61,-98.63 1628.61,-53.81 1628.61,-30.89"/>
<polygon fill="midnightblue" stroke="midnightblue" points="1625.11,-124.31 1628.61,-134.31 1632.11,-124.31 1625.11,-124.31"/>
</g>
<!-- Node25&#45;&gt;Node10 -->
<g id="edge34" class="edge">
<title>Node25&#45;&gt;Node10</title>
<path fill="none" stroke="midnightblue" d="M1693.93,-141.3C1835.27,-137.23 2180.01,-125.16 2467.61,-98 2484.04,-96.45 2501.81,-94.25 2518.07,-92.03"/>
<polygon fill="midnightblue" stroke="midnightblue" points="1693.6,-137.81 1683.7,-141.59 1693.8,-144.81 1693.6,-137.81"/>
</g>
<!-- Node25&#45;&gt;Node17 -->
<g id="edge35" class="edge">
<title>Node25&#45;&gt;Node17</title>
<path fill="none" stroke="midnightblue" d="M1563.36,-141.9C1415.63,-138.94 1044.47,-128.79 735.61,-98 720.45,-96.49 704.03,-94.26 689.09,-92"/>
<polygon fill="midnightblue" stroke="midnightblue" points="1563.53,-145.41 1573.6,-142.1 1563.67,-138.41 1563.53,-145.41"/>
</g>
<!-- Node25&#45;&gt;Node18 -->
<g id="edge36" class="edge">
<title>Node25&#45;&gt;Node18</title>
<path fill="none" stroke="midnightblue" d="M1563.13,-141.15C1436.53,-137.08 1149.53,-125.43 909.61,-98 896.23,-96.47 881.76,-94.28 868.54,-92.06"/>
<polygon fill="midnightblue" stroke="midnightblue" points="1563.32,-144.66 1573.42,-141.48 1563.54,-137.66 1563.32,-144.66"/>
</g>
<!-- Node25&#45;&gt;Node19 -->
<g id="edge37" class="edge">
<title>Node25&#45;&gt;Node19</title>
<path fill="none" stroke="midnightblue" d="M1563.36,-139.92C1458.52,-134.49 1246.21,-121.49 1067.61,-98 1055.59,-96.42 1042.61,-94.24 1030.72,-92.05"/>
<polygon fill="midnightblue" stroke="midnightblue" points="1563.31,-143.42 1573.47,-140.44 1563.67,-136.43 1563.31,-143.42"/>
</g>
<!-- Node25&#45;&gt;Node20 -->
<g id="edge38" class="edge">
<title>Node25&#45;&gt;Node20</title>
<path fill="none" stroke="midnightblue" d="M1563.5,-137.93C1480.89,-131.05 1334.18,-117.37 1209.61,-98 1206.76,-97.56 1203.84,-97.07 1200.89,-96.57"/>
<polygon fill="midnightblue" stroke="midnightblue" points="1563.24,-141.42 1573.49,-138.75 1563.81,-134.44 1563.24,-141.42"/>
</g>
<!-- Node25&#45;&gt;Node21 -->
<g id="edge39" class="edge">
<title>Node25&#45;&gt;Node21</title>
<path fill="none" stroke="midnightblue" d="M1563.63,-135.21C1502.06,-127.4 1407.14,-114.2 1325.61,-98 1322.76,-97.43 1319.84,-96.82 1316.9,-96.17"/>
<polygon fill="midnightblue" stroke="midnightblue" points="1563.24,-138.69 1573.6,-136.47 1564.12,-131.75 1563.24,-138.69"/>
</g>
<!-- Node25&#45;&gt;Node22 -->
<g id="edge40" class="edge">
<title>Node25&#45;&gt;Node22</title>
<path fill="none" stroke="midnightblue" d="M1583.69,-132.09C1541.06,-121.74 1477.12,-106.21 1433.06,-95.51"/>
<polygon fill="midnightblue" stroke="midnightblue" points="1582.97,-135.52 1593.51,-134.48 1584.62,-128.71 1582.97,-135.52"/>
</g>
<!-- Node25&#45;&gt;Node23 -->
<g id="edge41" class="edge">
<title>Node25&#45;&gt;Node23</title>
<path fill="none" stroke="midnightblue" d="M1655.77,-130.17C1680.22,-118.63 1715.46,-101.99 1736.6,-92.01"/>
<polygon fill="midnightblue" stroke="midnightblue" points="1654.22,-127.04 1646.67,-134.48 1657.2,-133.37 1654.22,-127.04"/>
</g>
<!-- Node25&#45;&gt;Node24 -->
<g id="edge42" class="edge">
<title>Node25&#45;&gt;Node24</title>
<path fill="none" stroke="midnightblue" d="M1676.3,-132.25C1715.81,-123.28 1773.43,-110.06 1823.61,-98 1831.49,-96.11 1839.95,-94.02 1847.9,-92.04"/>
<polygon fill="midnightblue" stroke="midnightblue" points="1675.39,-128.87 1666.41,-134.49 1676.94,-135.69 1675.39,-128.87"/>
</g>
<!-- Node26 -->
<g id="node26" class="node">
<title>Node26</title>
<g id="a_node26"><a xlink:href="Ioss__SideBlock_8C.html" target="_top" xlink:title=" ">
<polygon fill="white" stroke="black" points="1488.61,-73 1488.61,-92 1600.61,-92 1600.61,-73 1488.61,-73"/>
<text text-anchor="middle" x="1544.61" y="-80" font-family="Helvetica,sans-Serif" font-size="10.00">src/Ioss_SideBlock.C</text>
</a>
</g>
</g>
<!-- Node25&#45;&gt;Node26 -->
<g id="edge43" class="edge">
<title>Node25&#45;&gt;Node26</title>
<path fill="none" stroke="midnightblue" d="M1608.3,-128.61C1592.15,-117.17 1570.09,-101.55 1556.63,-92.01"/>
<polygon fill="midnightblue" stroke="midnightblue" points="1606.4,-131.55 1616.58,-134.48 1610.44,-125.84 1606.4,-131.55"/>
</g>
<!-- Node25&#45;&gt;Node27 -->
<g id="edge44" class="edge">
<title>Node25&#45;&gt;Node27</title>
<path fill="none" stroke="midnightblue" d="M1693.86,-135.36C1756.99,-127.54 1855.25,-114.26 1939.61,-98 1948.45,-96.3 1957.95,-94.15 1966.73,-92.03"/>
<polygon fill="midnightblue" stroke="midnightblue" points="1693.15,-131.92 1683.65,-136.61 1694,-138.87 1693.15,-131.92"/>
</g>
<!-- Node25&#45;&gt;Node28 -->
<g id="edge45" class="edge">
<title>Node25&#45;&gt;Node28</title>
<path fill="none" stroke="midnightblue" d="M1693.86,-140.24C1855.04,-133.4 2285.01,-114.98 2643.61,-98 2723.25,-94.23 2815.26,-89.54 2873.42,-86.53"/>
<polygon fill="midnightblue" stroke="midnightblue" points="1693.47,-136.76 1683.63,-140.68 1693.77,-143.75 1693.47,-136.76"/>
</g>
<!-- Node25&#45;&gt;Node35 -->
<g id="edge54" class="edge">
<title>Node25&#45;&gt;Node35</title>
<path fill="none" stroke="midnightblue" d="M1693.62,-138.5C1778.26,-132.11 1930.61,-118.84 2059.61,-98 2062.63,-97.51 2065.71,-96.98 2068.81,-96.4"/>
<polygon fill="midnightblue" stroke="midnightblue" points="1693.36,-135.01 1683.64,-139.24 1693.88,-141.99 1693.36,-135.01"/>
</g>
<!-- Node25&#45;&gt;Node36 -->
<g id="edge55" class="edge">
<title>Node25&#45;&gt;Node36</title>
<path fill="none" stroke="midnightblue" d="M1693.94,-140.96C1890.94,-134.8 2496.56,-115.67 2998.61,-98 3120.76,-93.7 3264.62,-88.17 3337.38,-85.35"/>
<polygon fill="midnightblue" stroke="midnightblue" points="1693.64,-137.47 1683.76,-141.28 1693.86,-144.47 1693.64,-137.47"/>
</g>
<!-- Node25&#45;&gt;Node39 -->
<g id="edge58" class="edge">
<title>Node25&#45;&gt;Node39</title>
<path fill="none" stroke="midnightblue" d="M1694.1,-140.79C1799.3,-136.57 2012.22,-125.21 2190.61,-98 2200.64,-96.47 2211.43,-94.25 2221.24,-92.01"/>
<polygon fill="midnightblue" stroke="midnightblue" points="1693.81,-137.3 1683.96,-141.19 1694.09,-144.3 1693.81,-137.3"/>
</g>
<!-- Node25&#45;&gt;Node40 -->
<g id="edge59" class="edge">
<title>Node25&#45;&gt;Node40</title>
<path fill="none" stroke="midnightblue" d="M1694.11,-141.46C1816.87,-137.98 2089.74,-127.35 2317.61,-98 2320.51,-97.63 2323.46,-97.21 2326.43,-96.76"/>
<polygon fill="midnightblue" stroke="midnightblue" points="1693.67,-137.97 1683.77,-141.75 1693.86,-144.97 1693.67,-137.97"/>
</g>
<!-- Node28&#45;&gt;Node7 -->
<g id="edge46" class="edge">
<title>Node28&#45;&gt;Node7</title>
<path fill="none" stroke="midnightblue" d="M2863.24,-77.65C2804.89,-74.46 2718.77,-69.98 2643.61,-67 1972.09,-40.36 1154.35,-21.91 950.4,-17.51"/>
<polygon fill="midnightblue" stroke="midnightblue" points="2863.26,-81.15 2873.44,-78.21 2863.64,-74.16 2863.26,-81.15"/>
</g>
<!-- Node28&#45;&gt;Node15 -->
<g id="edge51" class="edge">
<title>Node28&#45;&gt;Node15</title>
<path fill="none" stroke="midnightblue" d="M2895.33,-69.77C2855.5,-56.89 2792.53,-36.52 2757.1,-25.06"/>
<polygon fill="midnightblue" stroke="midnightblue" points="2894.33,-73.12 2904.92,-72.87 2896.49,-66.46 2894.33,-73.12"/>
</g>
<!-- Node29 -->
<g id="node29" class="node">
<title>Node29</title>
<g id="a_node29"><a xlink:href="Iodw__DatabaseIO_8C.html" target="_top" xlink:title=" ">
<polygon fill="white" stroke="black" points="2819.11,-0.5 2819.11,-30.5 2928.11,-30.5 2928.11,-0.5 2819.11,-0.5"/>
<text text-anchor="start" x="2827.11" y="-18.5" font-family="Helvetica,sans-Serif" font-size="10.00">src/data_warehouse</text>
<text text-anchor="middle" x="2873.61" y="-7.5" font-family="Helvetica,sans-Serif" font-size="10.00">/Iodw_DatabaseIO.C</text>
</a>
</g>
</g>
<!-- Node28&#45;&gt;Node29 -->
<g id="edge47" class="edge">
<title>Node28&#45;&gt;Node29</title>
<path fill="none" stroke="midnightblue" d="M2916.88,-64.99C2907.4,-54.36 2895.21,-40.7 2886.19,-30.59"/>
<polygon fill="midnightblue" stroke="midnightblue" points="2914.52,-67.6 2923.79,-72.73 2919.75,-62.94 2914.52,-67.6"/>
</g>
<!-- Node30 -->
<g id="node30" class="node">
<title>Node30</title>
<g id="a_node30"><a xlink:href="Ioss__Utils_8C.html" target="_top" xlink:title=" ">
<polygon fill="white" stroke="black" points="2946.61,-6 2946.61,-25 3034.61,-25 3034.61,-6 2946.61,-6"/>
<text text-anchor="middle" x="2990.61" y="-13" font-family="Helvetica,sans-Serif" font-size="10.00">src/Ioss_Utils.C</text>
</a>
</g>
</g>
<!-- Node28&#45;&gt;Node30 -->
<g id="edge48" class="edge">
<title>Node28&#45;&gt;Node30</title>
<path fill="none" stroke="midnightblue" d="M2946.47,-65.13C2958.01,-52.42 2973.55,-35.3 2982.78,-25.13"/>
<polygon fill="midnightblue" stroke="midnightblue" points="2943.7,-62.98 2939.57,-72.73 2948.88,-67.68 2943.7,-62.98"/>
</g>
<!-- Node31 -->
<g id="node31" class="node">
<title>Node31</title>
<g id="a_node31"><a xlink:href="io__shell_8C.html" target="_top" xlink:title=" ">
<polygon fill="white" stroke="black" points="3053.11,-6 3053.11,-25 3154.11,-25 3154.11,-6 3053.11,-6"/>
<text text-anchor="middle" x="3103.61" y="-13" font-family="Helvetica,sans-Serif" font-size="10.00">src/main/io_shell.C</text>
</a>
</g>
</g>
<!-- Node28&#45;&gt;Node31 -->
<g id="edge49" class="edge">
<title>Node28&#45;&gt;Node31</title>
<path fill="none" stroke="midnightblue" d="M2963.98,-69.27C2998.11,-56.37 3051.02,-36.38 3080.95,-25.06"/>
<polygon fill="midnightblue" stroke="midnightblue" points="2962.57,-66.06 2954.45,-72.87 2965.05,-72.61 2962.57,-66.06"/>
</g>
<!-- Node32 -->
<g id="node32" class="node">
<title>Node32</title>
<g id="a_node32"><a xlink:href="io__shell__ts_8C.html" target="_top" xlink:title=" ">
<polygon fill="white" stroke="black" points="3172.61,-6 3172.61,-25 3286.61,-25 3286.61,-6 3172.61,-6"/>
<text text-anchor="middle" x="3229.61" y="-13" font-family="Helvetica,sans-Serif" font-size="10.00">src/main/io_shell_ts.C</text>
</a>
</g>
</g>
<!-- Node28&#45;&gt;Node32 -->
<g id="edge50" class="edge">
<title>Node28&#45;&gt;Node32</title>
<path fill="none" stroke="midnightblue" d="M2980.94,-70.79C3027.91,-60.59 3100.59,-44.78 3163.61,-31 3172.44,-29.07 3181.93,-26.99 3190.88,-25.02"/>
<polygon fill="midnightblue" stroke="midnightblue" points="2980.06,-67.4 2971.03,-72.95 2981.54,-74.24 2980.06,-67.4"/>
</g>
<!-- Node33 -->
<g id="node33" class="node">
<title>Node33</title>
<g id="a_node33"><a xlink:href="Iopg__DatabaseIO_8C.html" target="_top" xlink:title=" ">
<polygon fill="white" stroke="black" points="3304.61,-6 3304.61,-25 3462.61,-25 3462.61,-6 3304.61,-6"/>
<text text-anchor="middle" x="3383.61" y="-13" font-family="Helvetica,sans-Serif" font-size="10.00">src/pamgen/Iopg_DatabaseIO.C</text>
</a>
</g>
</g>
<!-- Node28&#45;&gt;Node33 -->
<g id="edge52" class="edge">
<title>Node28&#45;&gt;Node33</title>
<path fill="none" stroke="midnightblue" d="M2999.69,-72.58C3072.88,-62.87 3192.6,-46.63 3295.61,-31 3307.86,-29.14 3321.05,-27.03 3333.39,-25"/>
<polygon fill="midnightblue" stroke="midnightblue" points="2999.13,-69.12 2989.68,-73.91 3000.05,-76.06 2999.13,-69.12"/>
</g>
<!-- Node34 -->
<g id="node34" class="node">
<title>Node34</title>
<g id="a_node34"><a xlink:href="Iovs__DatabaseIO_8C.html" target="_top" xlink:title=" ">
<polygon fill="white" stroke="black" points="3481.11,-0.5 3481.11,-30.5 3590.11,-30.5 3590.11,-0.5 3481.11,-0.5"/>
<text text-anchor="start" x="3489.11" y="-18.5" font-family="Helvetica,sans-Serif" font-size="10.00">src/visualization/Iovs</text>
<text text-anchor="middle" x="3535.61" y="-7.5" font-family="Helvetica,sans-Serif" font-size="10.00">_DatabaseIO.C</text>
</a>
</g>
</g>
<!-- Node28&#45;&gt;Node34 -->
<g id="edge53" class="edge">
<title>Node28&#45;&gt;Node34</title>
<path fill="none" stroke="midnightblue" d="M3000.11,-77.95C3102.98,-71.96 3303.28,-57.82 3471.61,-31 3474.65,-30.52 3477.76,-29.97 3480.89,-29.39"/>
<polygon fill="midnightblue" stroke="midnightblue" points="2999.64,-74.47 2989.86,-78.53 3000.04,-81.45 2999.64,-74.47"/>
</g>
<!-- Node37 -->
<g id="node37" class="node">
<title>Node37</title>
<g id="a_node37"><a xlink:href="io__info_8C.html" target="_top" xlink:title=" ">
<polygon fill="white" stroke="black" points="3608.61,-6 3608.61,-25 3704.61,-25 3704.61,-6 3608.61,-6"/>
<text text-anchor="middle" x="3656.61" y="-13" font-family="Helvetica,sans-Serif" font-size="10.00">src/main/io_info.C</text>
</a>
</g>
</g>
<!-- Node36&#45;&gt;Node37 -->
<g id="edge56" class="edge">
<title>Node36&#45;&gt;Node37</title>
<path fill="none" stroke="midnightblue" d="M3431.71,-70.7C3475.3,-60.64 3541.91,-45.11 3599.61,-31 3607.35,-29.11 3615.66,-27.02 3623.49,-25.04"/>
<polygon fill="midnightblue" stroke="midnightblue" points="3430.91,-67.29 3421.95,-72.95 3432.48,-74.11 3430.91,-67.29"/>
</g>
<!-- Node38 -->
<g id="node38" class="node">
<title>Node38</title>
<g id="a_node38"><a xlink:href="io__info__main_8C.html" target="_top" xlink:title=" ">
<polygon fill="white" stroke="black" points="3722.61,-6 3722.61,-25 3844.61,-25 3844.61,-6 3722.61,-6"/>
<text text-anchor="middle" x="3783.61" y="-13" font-family="Helvetica,sans-Serif" font-size="10.00">src/main/io_info_main.C</text>
</a>
</g>
</g>
<!-- Node36&#45;&gt;Node38 -->
<g id="edge57" class="edge">
<title>Node36&#45;&gt;Node38</title>
<path fill="none" stroke="midnightblue" d="M3442.03,-73.61C3507.8,-64.36 3618.74,-48.1 3713.61,-31 3723.51,-29.22 3734.15,-27.11 3744.07,-25.06"/>
<polygon fill="midnightblue" stroke="midnightblue" points="3441.29,-70.18 3431.87,-75.03 3442.26,-77.11 3441.29,-70.18"/>
</g>
</g>
</svg>
