<?xml version="1.0" encoding="UTF-8" standalone="no"?>
<!DOCTYPE svg PUBLIC "-//W3C//DTD SVG 1.1//EN"
 "http://www.w3.org/Graphics/SVG/1.1/DTD/svg11.dtd">
<!-- Generated by graphviz version 2.44.1 (20200629.0846)
 -->
<!-- Title: src/Ioss_StructuredBlock.h Pages: 1 -->
<svg width="2659pt" height="296pt"
 viewBox="0.00 0.00 2659.24 296.00" xmlns="http://www.w3.org/2000/svg" xmlns:xlink="http://www.w3.org/1999/xlink">
<g id="graph0" class="graph" transform="scale(1 1) rotate(0) translate(4 292)">
<title>src/Ioss_StructuredBlock.h</title>
<polygon fill="white" stroke="transparent" points="-4,4 -4,-292 2655.24,-292 2655.24,4 -4,4"/>
<!-- Node1 -->
<g id="node1" class="node">
<title>Node1</title>
<g id="a_node1"><a xlink:title=" ">
<polygon fill="#bfbfbf" stroke="black" points="1496.74,-268.5 1496.74,-287.5 1631.74,-287.5 1631.74,-268.5 1496.74,-268.5"/>
<text text-anchor="middle" x="1564.24" y="-275.5" font-family="Helvetica,sans-Serif" font-size="10.00">src/Ioss_StructuredBlock.h</text>
</a>
</g>
</g>
<!-- Node2 -->
<g id="node2" class="node">
<title>Node2</title>
<g id="a_node2"><a xlink:href="Iocgns__DecompositionData_8C.html" target="_top" xlink:title=" ">
<polygon fill="white" stroke="black" points="169.74,-67.5 169.74,-97.5 326.74,-97.5 326.74,-67.5 169.74,-67.5"/>
<text text-anchor="start" x="177.74" y="-85.5" font-family="Helvetica,sans-Serif" font-size="10.00">src/cgns/Iocgns_Decomposition</text>
<text text-anchor="middle" x="248.24" y="-74.5" font-family="Helvetica,sans-Serif" font-size="10.00">Data.C</text>
</a>
</g>
</g>
<!-- Node1&#45;&gt;Node2 -->
<g id="edge1" class="edge">
<title>Node1&#45;&gt;Node2</title>
<path fill="none" stroke="midnightblue" d="M1486.29,-275.57C1258.62,-271.13 597.13,-256.46 382.24,-232 224.44,-214.04 132.47,-287.38 31.24,-165 22.46,-154.38 22.67,-144.79 31.24,-134 40.14,-122.79 111.28,-107.66 169.71,-96.9"/>
<polygon fill="midnightblue" stroke="midnightblue" points="1486.42,-279.07 1496.48,-275.76 1486.55,-272.07 1486.42,-279.07"/>
</g>
<!-- Node3 -->
<g id="node3" class="node">
<title>Node3</title>
<g id="a_node3"><a xlink:href="Iocgns__DecompositionData_8h.html" target="_top" xlink:title=" ">
<polygon fill="white" stroke="black" points="40.74,-134.5 40.74,-164.5 197.74,-164.5 197.74,-134.5 40.74,-134.5"/>
<text text-anchor="start" x="48.74" y="-152.5" font-family="Helvetica,sans-Serif" font-size="10.00">src/cgns/Iocgns_Decomposition</text>
<text text-anchor="middle" x="119.24" y="-141.5" font-family="Helvetica,sans-Serif" font-size="10.00">Data.h</text>
</a>
</g>
</g>
<!-- Node1&#45;&gt;Node3 -->
<g id="edge2" class="edge">
<title>Node1&#45;&gt;Node3</title>
<path fill="none" stroke="midnightblue" d="M1486.42,-276.63C1321.59,-275.14 925.28,-267.78 595.24,-232 447.91,-216.03 277.12,-183.26 185.49,-164.5"/>
<polygon fill="midnightblue" stroke="midnightblue" points="1486.44,-280.13 1496.47,-276.72 1486.5,-273.13 1486.44,-280.13"/>
</g>
<!-- Node5 -->
<g id="node5" class="node">
<title>Node5</title>
<g id="a_node5"><a xlink:href="Iocgns__ParallelDatabaseIO_8C.html" target="_top" xlink:title=" ">
<polygon fill="white" stroke="black" points="27.24,-0.5 27.24,-30.5 151.24,-30.5 151.24,-0.5 27.24,-0.5"/>
<text text-anchor="start" x="35.24" y="-18.5" font-family="Helvetica,sans-Serif" font-size="10.00">src/cgns/Iocgns_Parallel</text>
<text text-anchor="middle" x="89.24" y="-7.5" font-family="Helvetica,sans-Serif" font-size="10.00">DatabaseIO.C</text>
</a>
</g>
</g>
<!-- Node1&#45;&gt;Node5 -->
<g id="edge6" class="edge">
<title>Node1&#45;&gt;Node5</title>
<path fill="none" stroke="midnightblue" d="M1485.97,-276.63C1186.75,-274.94 128.77,-266.54 66.24,-232 -0.61,-195.07 -16.78,-134.87 18.24,-67 26.49,-51 42.41,-38.97 57.09,-30.66"/>
<polygon fill="midnightblue" stroke="midnightblue" points="1486.28,-280.13 1496.29,-276.68 1486.31,-273.13 1486.28,-280.13"/>
</g>
<!-- Node6 -->
<g id="node6" class="node">
<title>Node6</title>
<g id="a_node6"><a xlink:href="Iocgns__StructuredZoneData_8h.html" target="_top" xlink:title=" ">
<polygon fill="white" stroke="black" points="637.74,-201.5 637.74,-231.5 774.74,-231.5 774.74,-201.5 637.74,-201.5"/>
<text text-anchor="start" x="645.74" y="-219.5" font-family="Helvetica,sans-Serif" font-size="10.00">src/cgns/Iocgns_Structured</text>
<text text-anchor="middle" x="706.24" y="-208.5" font-family="Helvetica,sans-Serif" font-size="10.00">ZoneData.h</text>
</a>
</g>
</g>
<!-- Node1&#45;&gt;Node6 -->
<g id="edge7" class="edge">
<title>Node1&#45;&gt;Node6</title>
<path fill="none" stroke="midnightblue" d="M1486.41,-271.6C1320.17,-260.07 932.75,-233.21 774.96,-222.27"/>
<polygon fill="midnightblue" stroke="midnightblue" points="1486.34,-275.11 1496.56,-272.31 1486.82,-268.12 1486.34,-275.11"/>
</g>
<!-- Node8 -->
<g id="node8" class="node">
<title>Node8</title>
<g id="a_node8"><a xlink:href="Iocgns__Utils_8C.html" target="_top" xlink:title=" ">
<polygon fill="white" stroke="black" points="514.24,-140 514.24,-159 636.24,-159 636.24,-140 514.24,-140"/>
<text text-anchor="middle" x="575.24" y="-147" font-family="Helvetica,sans-Serif" font-size="10.00">src/cgns/Iocgns_Utils.C</text>
</a>
</g>
</g>
<!-- Node1&#45;&gt;Node8 -->
<g id="edge17" class="edge">
<title>Node1&#45;&gt;Node8</title>
<path fill="none" stroke="midnightblue" d="M1486.63,-277.29C1275.52,-277.51 701.73,-274.19 628.24,-232 599.55,-215.53 583.72,-176.51 577.88,-159.12"/>
<polygon fill="midnightblue" stroke="midnightblue" points="1486.71,-280.79 1496.71,-277.27 1486.7,-273.79 1486.71,-280.79"/>
</g>
<!-- Node15 -->
<g id="node15" class="node">
<title>Node15</title>
<g id="a_node15"><a xlink:href="Iocgns__Utils_8h.html" target="_top" xlink:title=" ">
<polygon fill="white" stroke="black" points="932.24,-207 932.24,-226 1052.24,-226 1052.24,-207 932.24,-207"/>
<text text-anchor="middle" x="992.24" y="-214" font-family="Helvetica,sans-Serif" font-size="10.00">src/cgns/Iocgns_Utils.h</text>
</a>
</g>
</g>
<!-- Node1&#45;&gt;Node15 -->
<g id="edge18" class="edge">
<title>Node1&#45;&gt;Node15</title>
<path fill="none" stroke="midnightblue" d="M1486.48,-268.91C1370.98,-256.9 1156.56,-234.59 1052.29,-223.75"/>
<polygon fill="midnightblue" stroke="midnightblue" points="1486.35,-272.42 1496.66,-269.97 1487.08,-265.45 1486.35,-272.42"/>
</g>
<!-- Node18 -->
<g id="node18" class="node">
<title>Node18</title>
<g id="a_node18"><a xlink:href="Iogs__DatabaseIO_8C.html" target="_top" xlink:title=" ">
<polygon fill="white" stroke="black" points="1640.24,-201.5 1640.24,-231.5 1738.24,-231.5 1738.24,-201.5 1640.24,-201.5"/>
<text text-anchor="start" x="1648.24" y="-219.5" font-family="Helvetica,sans-Serif" font-size="10.00">src/gen_struc/Iogs</text>
<text text-anchor="middle" x="1689.24" y="-208.5" font-family="Helvetica,sans-Serif" font-size="10.00">_DatabaseIO.C</text>
</a>
</g>
</g>
<!-- Node1&#45;&gt;Node18 -->
<g id="edge27" class="edge">
<title>Node1&#45;&gt;Node18</title>
<path fill="none" stroke="midnightblue" d="M1591.4,-264.07C1611.58,-254.47 1639.07,-241.38 1659.78,-231.52"/>
<polygon fill="midnightblue" stroke="midnightblue" points="1589.67,-261.02 1582.15,-268.48 1592.68,-267.34 1589.67,-261.02"/>
</g>
<!-- Node19 -->
<g id="node19" class="node">
<title>Node19</title>
<g id="a_node19"><a xlink:href="Ioss__DatabaseIO_8C.html" target="_top" xlink:title=" ">
<polygon fill="white" stroke="black" points="1756.24,-207 1756.24,-226 1876.24,-226 1876.24,-207 1756.24,-207"/>
<text text-anchor="middle" x="1816.24" y="-214" font-family="Helvetica,sans-Serif" font-size="10.00">src/Ioss_DatabaseIO.C</text>
</a>
</g>
</g>
<!-- Node1&#45;&gt;Node19 -->
<g id="edge28" class="edge">
<title>Node1&#45;&gt;Node19</title>
<path fill="none" stroke="midnightblue" d="M1610.35,-266.11C1659.26,-254.57 1735.51,-236.56 1780.2,-226.01"/>
<polygon fill="midnightblue" stroke="midnightblue" points="1609.27,-262.77 1600.34,-268.48 1610.88,-269.58 1609.27,-262.77"/>
</g>
<!-- Node20 -->
<g id="node20" class="node">
<title>Node20</title>
<g id="a_node20"><a xlink:href="Ioss__Region_8C.html" target="_top" xlink:title=" ">
<polygon fill="white" stroke="black" points="1894.24,-207 1894.24,-226 1992.24,-226 1992.24,-207 1894.24,-207"/>
<text text-anchor="middle" x="1943.24" y="-214" font-family="Helvetica,sans-Serif" font-size="10.00">src/Ioss_Region.C</text>
</a>
</g>
</g>
<!-- Node1&#45;&gt;Node20 -->
<g id="edge29" class="edge">
<title>Node1&#45;&gt;Node20</title>
<path fill="none" stroke="midnightblue" d="M1642.11,-268.42C1707.36,-260.67 1802.79,-248.04 1885.24,-232 1893.9,-230.32 1903.2,-228.15 1911.77,-226.01"/>
<polygon fill="midnightblue" stroke="midnightblue" points="1641.43,-264.98 1631.91,-269.62 1642.25,-271.93 1641.43,-264.98"/>
</g>
<!-- Node21 -->
<g id="node21" class="node">
<title>Node21</title>
<g id="a_node21"><a xlink:href="Ioss__StructuredBlock_8C.html" target="_top" xlink:title=" ">
<polygon fill="white" stroke="black" points="2010.74,-207 2010.74,-226 2147.74,-226 2147.74,-207 2010.74,-207"/>
<text text-anchor="middle" x="2079.24" y="-214" font-family="Helvetica,sans-Serif" font-size="10.00">src/Ioss_StructuredBlock.C</text>
</a>
</g>
</g>
<!-- Node1&#45;&gt;Node21 -->
<g id="edge30" class="edge">
<title>Node1&#45;&gt;Node21</title>
<path fill="none" stroke="midnightblue" d="M1641.94,-270.92C1729.51,-263.61 1875.98,-250.06 2001.24,-232 2012.83,-230.33 2025.32,-228.17 2036.84,-226.03"/>
<polygon fill="midnightblue" stroke="midnightblue" points="1641.5,-267.44 1631.82,-271.75 1642.08,-274.42 1641.5,-267.44"/>
</g>
<!-- Node22 -->
<g id="node22" class="node">
<title>Node22</title>
<g id="a_node22"><a xlink:href="Ioss__SubSystem_8h.html" target="_top" xlink:title=" ">
<polygon fill="white" stroke="black" points="1506.24,-207 1506.24,-226 1622.24,-226 1622.24,-207 1506.24,-207"/>
<text text-anchor="middle" x="1564.24" y="-214" font-family="Helvetica,sans-Serif" font-size="10.00">src/Ioss_SubSystem.h</text>
</a>
</g>
</g>
<!-- Node1&#45;&gt;Node22 -->
<g id="edge31" class="edge">
<title>Node1&#45;&gt;Node22</title>
<path fill="none" stroke="midnightblue" d="M1564.24,-258.32C1564.24,-247.5 1564.24,-234.4 1564.24,-226.01"/>
<polygon fill="midnightblue" stroke="midnightblue" points="1560.74,-258.48 1564.24,-268.48 1567.74,-258.48 1560.74,-258.48"/>
</g>
<!-- Node30 -->
<g id="node30" class="node">
<title>Node30</title>
<g id="a_node30"><a xlink:href="io__info_8h.html" target="_top" xlink:title=" ">
<polygon fill="white" stroke="black" points="2291.24,-207 2291.24,-226 2385.24,-226 2385.24,-207 2291.24,-207"/>
<text text-anchor="middle" x="2338.24" y="-214" font-family="Helvetica,sans-Serif" font-size="10.00">src/main/io_info.h</text>
</a>
</g>
</g>
<!-- Node1&#45;&gt;Node30 -->
<g id="edge41" class="edge">
<title>Node1&#45;&gt;Node30</title>
<path fill="none" stroke="midnightblue" d="M1642.47,-271.14C1755.77,-262.64 1972.13,-246.33 2156.24,-232 2202.06,-228.43 2254.36,-224.25 2291.11,-221.3"/>
<polygon fill="midnightblue" stroke="midnightblue" points="1641.88,-267.68 1632.17,-271.92 1642.4,-274.66 1641.88,-267.68"/>
</g>
<!-- Node33 -->
<g id="node33" class="node">
<title>Node33</title>
<g id="a_node33"><a xlink:href="io__modify_8C.html" target="_top" xlink:title=" ">
<polygon fill="white" stroke="black" points="2403.24,-207 2403.24,-226 2511.24,-226 2511.24,-207 2403.24,-207"/>
<text text-anchor="middle" x="2457.24" y="-214" font-family="Helvetica,sans-Serif" font-size="10.00">src/main/io_modify.C</text>
</a>
</g>
</g>
<!-- Node1&#45;&gt;Node33 -->
<g id="edge44" class="edge">
<title>Node1&#45;&gt;Node33</title>
<path fill="none" stroke="midnightblue" d="M1642.17,-277.23C1789.71,-276.68 2119.69,-270.74 2394.24,-232 2404.35,-230.57 2415.24,-228.33 2425.07,-226.03"/>
<polygon fill="midnightblue" stroke="midnightblue" points="1641.85,-273.73 1631.86,-277.26 1641.87,-280.73 1641.85,-273.73"/>
</g>
<!-- Node3&#45;&gt;Node2 -->
<g id="edge3" class="edge">
<title>Node3&#45;&gt;Node2</title>
<path fill="none" stroke="midnightblue" d="M156.25,-129.85C176.64,-119.58 201.55,-107.03 220.3,-97.58"/>
<polygon fill="midnightblue" stroke="midnightblue" points="154.59,-126.77 147.23,-134.4 157.74,-133.02 154.59,-126.77"/>
</g>
<!-- Node4 -->
<g id="node4" class="node">
<title>Node4</title>
<g id="a_node4"><a xlink:href="Iocgns__ParallelDatabaseIO_8h.html" target="_top" xlink:title=" ">
<polygon fill="white" stroke="black" points="27.24,-67.5 27.24,-97.5 151.24,-97.5 151.24,-67.5 27.24,-67.5"/>
<text text-anchor="start" x="35.24" y="-85.5" font-family="Helvetica,sans-Serif" font-size="10.00">src/cgns/Iocgns_Parallel</text>
<text text-anchor="middle" x="89.24" y="-74.5" font-family="Helvetica,sans-Serif" font-size="10.00">DatabaseIO.h</text>
</a>
</g>
</g>
<!-- Node3&#45;&gt;Node4 -->
<g id="edge4" class="edge">
<title>Node3&#45;&gt;Node4</title>
<path fill="none" stroke="midnightblue" d="M108.52,-125.28C104.25,-116.02 99.47,-105.66 95.74,-97.58"/>
<polygon fill="midnightblue" stroke="midnightblue" points="105.36,-126.78 112.73,-134.4 111.72,-123.85 105.36,-126.78"/>
</g>
<!-- Node4&#45;&gt;Node5 -->
<g id="edge5" class="edge">
<title>Node4&#45;&gt;Node5</title>
<path fill="none" stroke="midnightblue" d="M89.24,-57.11C89.24,-48.15 89.24,-38.32 89.24,-30.58"/>
<polygon fill="midnightblue" stroke="midnightblue" points="85.74,-57.4 89.24,-67.4 92.74,-57.4 85.74,-57.4"/>
</g>
<!-- Node6&#45;&gt;Node3 -->
<g id="edge8" class="edge">
<title>Node6&#45;&gt;Node3</title>
<path fill="none" stroke="midnightblue" d="M627.55,-209.13C528.9,-200.79 354.7,-184.85 206.24,-165 203.51,-164.63 200.73,-164.25 197.93,-163.85"/>
<polygon fill="midnightblue" stroke="midnightblue" points="627.48,-212.64 637.74,-209.99 628.07,-205.66 627.48,-212.64"/>
</g>
<!-- Node7 -->
<g id="node7" class="node">
<title>Node7</title>
<g id="a_node7"><a xlink:href="Iocgns__StructuredZoneData_8C.html" target="_top" xlink:title=" ">
<polygon fill="white" stroke="black" points="215.74,-134.5 215.74,-164.5 352.74,-164.5 352.74,-134.5 215.74,-134.5"/>
<text text-anchor="start" x="223.74" y="-152.5" font-family="Helvetica,sans-Serif" font-size="10.00">src/cgns/Iocgns_Structured</text>
<text text-anchor="middle" x="284.24" y="-141.5" font-family="Helvetica,sans-Serif" font-size="10.00">ZoneData.C</text>
</a>
</g>
</g>
<!-- Node6&#45;&gt;Node7 -->
<g id="edge9" class="edge">
<title>Node6&#45;&gt;Node7</title>
<path fill="none" stroke="midnightblue" d="M627.64,-204.92C557.62,-195.28 452.43,-180.25 361.24,-165 358.56,-164.55 355.82,-164.08 353.06,-163.6"/>
<polygon fill="midnightblue" stroke="midnightblue" points="627.32,-208.41 637.71,-206.31 628.28,-201.48 627.32,-208.41"/>
</g>
<!-- Node6&#45;&gt;Node8 -->
<g id="edge10" class="edge">
<title>Node6&#45;&gt;Node8</title>
<path fill="none" stroke="midnightblue" d="M668.56,-196.8C643.44,-184.34 611.63,-168.56 592.38,-159.01"/>
<polygon fill="midnightblue" stroke="midnightblue" points="667.3,-200.09 677.81,-201.4 670.41,-193.82 667.3,-200.09"/>
</g>
<!-- Node9 -->
<g id="node9" class="node">
<title>Node9</title>
<g id="a_node9"><a xlink:href="cgns__decomp_8C.html" target="_top" xlink:title=" ">
<polygon fill="white" stroke="black" points="654.24,-140 654.24,-159 782.24,-159 782.24,-140 654.24,-140"/>
<text text-anchor="middle" x="718.24" y="-147" font-family="Helvetica,sans-Serif" font-size="10.00">src/main/cgns_decomp.C</text>
</a>
</g>
</g>
<!-- Node6&#45;&gt;Node9 -->
<g id="edge11" class="edge">
<title>Node6&#45;&gt;Node9</title>
<path fill="none" stroke="midnightblue" d="M710.72,-191.25C712.79,-180.02 715.12,-167.38 716.63,-159.19"/>
<polygon fill="midnightblue" stroke="midnightblue" points="707.22,-190.93 708.84,-201.4 714.1,-192.2 707.22,-190.93"/>
</g>
<!-- Node10 -->
<g id="node10" class="node">
<title>Node10</title>
<g id="a_node10"><a xlink:href="struc__to__unstruc_8C.html" target="_top" xlink:title=" ">
<polygon fill="white" stroke="black" points="1182.24,-140 1182.24,-159 1322.24,-159 1322.24,-140 1182.24,-140"/>
<text text-anchor="middle" x="1252.24" y="-147" font-family="Helvetica,sans-Serif" font-size="10.00">src/main/struc_to_unstruc.C</text>
</a>
</g>
</g>
<!-- Node6&#45;&gt;Node10 -->
<g id="edge12" class="edge">
<title>Node6&#45;&gt;Node10</title>
<path fill="none" stroke="midnightblue" d="M785.07,-208.76C878.09,-200.4 1037.32,-184.8 1173.24,-165 1184.83,-163.31 1197.32,-161.17 1208.87,-159.05"/>
<polygon fill="midnightblue" stroke="midnightblue" points="784.54,-205.3 774.89,-209.67 785.16,-212.27 784.54,-205.3"/>
</g>
<!-- Node11 -->
<g id="node11" class="node">
<title>Node11</title>
<g id="a_node11"><a xlink:href="Utst__structured__decomp_8C.html" target="_top" xlink:title=" ">
<polygon fill="white" stroke="black" points="800.74,-134.5 800.74,-164.5 925.74,-164.5 925.74,-134.5 800.74,-134.5"/>
<text text-anchor="start" x="808.74" y="-152.5" font-family="Helvetica,sans-Serif" font-size="10.00">src/utest/Utst_structured</text>
<text text-anchor="middle" x="863.24" y="-141.5" font-family="Helvetica,sans-Serif" font-size="10.00">_decomp.C</text>
</a>
</g>
</g>
<!-- Node6&#45;&gt;Node11 -->
<g id="edge13" class="edge">
<title>Node6&#45;&gt;Node11</title>
<path fill="none" stroke="midnightblue" d="M749.61,-197.54C774.73,-187.14 805.9,-174.24 829.24,-164.58"/>
<polygon fill="midnightblue" stroke="midnightblue" points="748.21,-194.34 740.31,-201.4 750.88,-200.8 748.21,-194.34"/>
</g>
<!-- Node12 -->
<g id="node12" class="node">
<title>Node12</title>
<g id="a_node12"><a xlink:href="Utst__structured__decomp_8h.html" target="_top" xlink:title=" ">
<polygon fill="white" stroke="black" points="370.74,-134.5 370.74,-164.5 495.74,-164.5 495.74,-134.5 370.74,-134.5"/>
<text text-anchor="start" x="378.74" y="-152.5" font-family="Helvetica,sans-Serif" font-size="10.00">src/utest/Utst_structured</text>
<text text-anchor="middle" x="433.24" y="-141.5" font-family="Helvetica,sans-Serif" font-size="10.00">_decomp.h</text>
</a>
</g>
</g>
<!-- Node6&#45;&gt;Node12 -->
<g id="edge14" class="edge">
<title>Node6&#45;&gt;Node12</title>
<path fill="none" stroke="midnightblue" d="M637.44,-199.12C592.77,-188.48 535.14,-174.76 492.51,-164.61"/>
<polygon fill="midnightblue" stroke="midnightblue" points="636.8,-202.56 647.34,-201.48 638.42,-195.75 636.8,-202.56"/>
</g>
<!-- Node13 -->
<g id="node13" class="node">
<title>Node13</title>
<g id="a_node13"><a xlink:href="Utst__structured__decomp__herron_8C.html" target="_top" xlink:title=" ">
<polygon fill="white" stroke="black" points="500.74,-67.5 500.74,-97.5 625.74,-97.5 625.74,-67.5 500.74,-67.5"/>
<text text-anchor="start" x="508.74" y="-85.5" font-family="Helvetica,sans-Serif" font-size="10.00">src/utest/Utst_structured</text>
<text text-anchor="middle" x="563.24" y="-74.5" font-family="Helvetica,sans-Serif" font-size="10.00">_decomp_herron.C</text>
</a>
</g>
</g>
<!-- Node12&#45;&gt;Node13 -->
<g id="edge15" class="edge">
<title>Node12&#45;&gt;Node13</title>
<path fill="none" stroke="midnightblue" d="M470.53,-129.85C491.09,-119.58 516.19,-107.03 535.09,-97.58"/>
<polygon fill="midnightblue" stroke="midnightblue" points="468.83,-126.79 461.45,-134.4 471.96,-133.05 468.83,-126.79"/>
</g>
<!-- Node14 -->
<g id="node14" class="node">
<title>Node14</title>
<g id="a_node14"><a xlink:href="Utst__structured__decomp__rocket_8C.html" target="_top" xlink:title=" ">
<polygon fill="white" stroke="black" points="357.74,-67.5 357.74,-97.5 482.74,-97.5 482.74,-67.5 357.74,-67.5"/>
<text text-anchor="start" x="365.74" y="-85.5" font-family="Helvetica,sans-Serif" font-size="10.00">src/utest/Utst_structured</text>
<text text-anchor="middle" x="420.24" y="-74.5" font-family="Helvetica,sans-Serif" font-size="10.00">_decomp_rocket.C</text>
</a>
</g>
</g>
<!-- Node12&#45;&gt;Node14 -->
<g id="edge16" class="edge">
<title>Node12&#45;&gt;Node14</title>
<path fill="none" stroke="midnightblue" d="M428.42,-124.4C426.61,-115.37 424.62,-105.41 423.05,-97.58"/>
<polygon fill="midnightblue" stroke="midnightblue" points="425.03,-125.28 430.42,-134.4 431.89,-123.9 425.03,-125.28"/>
</g>
<!-- Node15&#45;&gt;Node2 -->
<g id="edge20" class="edge">
<title>Node15&#45;&gt;Node2</title>
<path fill="none" stroke="midnightblue" d="M985.14,-197.6C976.38,-178.16 959.47,-148.01 934.24,-134 877.21,-102.34 413.13,-104.69 348.24,-98 341.26,-97.28 334.02,-96.43 326.77,-95.51"/>
<polygon fill="midnightblue" stroke="midnightblue" points="981.95,-199.05 989.08,-206.89 988.4,-196.32 981.95,-199.05"/>
</g>
<!-- Node15&#45;&gt;Node5 -->
<g id="edge22" class="edge">
<title>Node15&#45;&gt;Node5</title>
<path fill="none" stroke="midnightblue" d="M991.03,-196.87C988.79,-178.17 982.39,-149.93 964.24,-134 843.11,-27.74 330.74,-16.77 151.48,-16.24"/>
<polygon fill="midnightblue" stroke="midnightblue" points="987.55,-197.2 991.95,-206.84 994.52,-196.56 987.55,-197.2"/>
</g>
<!-- Node15&#45;&gt;Node8 -->
<g id="edge23" class="edge">
<title>Node15&#45;&gt;Node8</title>
<path fill="none" stroke="midnightblue" d="M922.14,-206.55C851.91,-197.29 740.81,-181.84 645.24,-165 635.22,-163.23 624.43,-161.11 614.4,-159.04"/>
<polygon fill="midnightblue" stroke="midnightblue" points="921.83,-210.04 932.2,-207.87 922.74,-203.1 921.83,-210.04"/>
</g>
<!-- Node15&#45;&gt;Node9 -->
<g id="edge24" class="edge">
<title>Node15&#45;&gt;Node9</title>
<path fill="none" stroke="midnightblue" d="M946.14,-204.56C892.12,-191.75 803.75,-170.78 754.42,-159.08"/>
<polygon fill="midnightblue" stroke="midnightblue" points="945.6,-208.03 956.14,-206.94 947.21,-201.22 945.6,-208.03"/>
</g>
<!-- Node15&#45;&gt;Node10 -->
<g id="edge25" class="edge">
<title>Node15&#45;&gt;Node10</title>
<path fill="none" stroke="midnightblue" d="M1036.3,-204.48C1087.59,-191.66 1171.2,-170.76 1217.91,-159.08"/>
<polygon fill="midnightblue" stroke="midnightblue" points="1035.35,-201.11 1026.5,-206.94 1037.05,-207.91 1035.35,-201.11"/>
</g>
<!-- Node15&#45;&gt;Node11 -->
<g id="edge26" class="edge">
<title>Node15&#45;&gt;Node11</title>
<path fill="none" stroke="midnightblue" d="M966.13,-202.34C944.41,-191.4 913.57,-175.86 891.32,-164.65"/>
<polygon fill="midnightblue" stroke="midnightblue" points="964.6,-205.49 975.11,-206.87 967.75,-199.24 964.6,-205.49"/>
</g>
<!-- Node16 -->
<g id="node16" class="node">
<title>Node16</title>
<g id="a_node16"><a xlink:href="Iocgns__DatabaseIO_8C.html" target="_top" xlink:title=" ">
<polygon fill="white" stroke="black" points="1340.74,-140 1340.74,-159 1495.74,-159 1495.74,-140 1340.74,-140"/>
<text text-anchor="middle" x="1418.24" y="-147" font-family="Helvetica,sans-Serif" font-size="10.00">src/cgns/Iocgns_DatabaseIO.C</text>
</a>
</g>
</g>
<!-- Node15&#45;&gt;Node16 -->
<g id="edge19" class="edge">
<title>Node15&#45;&gt;Node16</title>
<path fill="none" stroke="midnightblue" d="M1061.93,-205.48C1130.5,-195.53 1238.16,-179.69 1331.24,-165 1343.19,-163.11 1356.05,-161.01 1368.12,-159.01"/>
<polygon fill="midnightblue" stroke="midnightblue" points="1061.08,-202.06 1051.69,-206.96 1062.09,-208.99 1061.08,-202.06"/>
</g>
<!-- Node17 -->
<g id="node17" class="node">
<title>Node17</title>
<g id="a_node17"><a xlink:href="Iocgns__IOFactory_8C.html" target="_top" xlink:title=" ">
<polygon fill="white" stroke="black" points="1020.24,-140 1020.24,-159 1164.24,-159 1164.24,-140 1020.24,-140"/>
<text text-anchor="middle" x="1092.24" y="-147" font-family="Helvetica,sans-Serif" font-size="10.00">src/cgns/Iocgns_IOFactory.C</text>
</a>
</g>
</g>
<!-- Node15&#45;&gt;Node17 -->
<g id="edge21" class="edge">
<title>Node15&#45;&gt;Node17</title>
<path fill="none" stroke="midnightblue" d="M1014.13,-201.27C1033.93,-188.4 1062.43,-169.88 1078.97,-159.13"/>
<polygon fill="midnightblue" stroke="midnightblue" points="1012.2,-198.35 1005.73,-206.73 1016.02,-204.22 1012.2,-198.35"/>
</g>
<!-- Node22&#45;&gt;Node10 -->
<g id="edge38" class="edge">
<title>Node22&#45;&gt;Node10</title>
<path fill="none" stroke="midnightblue" d="M1513.27,-204.88C1451.92,-192.1 1350.07,-170.88 1293.44,-159.08"/>
<polygon fill="midnightblue" stroke="midnightblue" points="1512.63,-208.32 1523.13,-206.94 1514.05,-201.47 1512.63,-208.32"/>
</g>
<!-- Node22&#45;&gt;Node16 -->
<g id="edge33" class="edge">
<title>Node22&#45;&gt;Node16</title>
<path fill="none" stroke="midnightblue" d="M1535.67,-202.78C1506.76,-189.91 1462.84,-170.35 1437.71,-159.17"/>
<polygon fill="midnightblue" stroke="midnightblue" points="1534.29,-206 1544.85,-206.87 1537.14,-199.6 1534.29,-206"/>
</g>
<!-- Node23 -->
<g id="node23" class="node">
<title>Node23</title>
<g id="a_node23"><a xlink:href="Ut__ioad_8C.html" target="_top" xlink:title=" ">
<polygon fill="white" stroke="black" points="2068.74,-134.5 2068.74,-164.5 2163.74,-164.5 2163.74,-134.5 2068.74,-134.5"/>
<text text-anchor="start" x="2076.74" y="-152.5" font-family="Helvetica,sans-Serif" font-size="10.00">src/adios/utest/Ut</text>
<text text-anchor="middle" x="2116.24" y="-141.5" font-family="Helvetica,sans-Serif" font-size="10.00">_ioad.C</text>
</a>
</g>
</g>
<!-- Node22&#45;&gt;Node23 -->
<g id="edge32" class="edge">
<title>Node22&#45;&gt;Node23</title>
<path fill="none" stroke="midnightblue" d="M1609.82,-204.81C1616.96,-203.37 1624.28,-202.04 1631.24,-201 1820.03,-172.75 1870.99,-196.64 2059.24,-165 2062.26,-164.49 2065.36,-163.9 2068.47,-163.26"/>
<polygon fill="midnightblue" stroke="midnightblue" points="1608.62,-201.49 1599.55,-206.96 1610.05,-208.34 1608.62,-201.49"/>
</g>
<!-- Node24 -->
<g id="node24" class="node">
<title>Node24</title>
<g id="a_node24"><a xlink:href="Iodw__DatabaseIO_8C.html" target="_top" xlink:title=" ">
<polygon fill="white" stroke="black" points="2181.74,-134.5 2181.74,-164.5 2290.74,-164.5 2290.74,-134.5 2181.74,-134.5"/>
<text text-anchor="start" x="2189.74" y="-152.5" font-family="Helvetica,sans-Serif" font-size="10.00">src/data_warehouse</text>
<text text-anchor="middle" x="2236.24" y="-141.5" font-family="Helvetica,sans-Serif" font-size="10.00">/Iodw_DatabaseIO.C</text>
</a>
</g>
</g>
<!-- Node22&#45;&gt;Node24 -->
<g id="edge34" class="edge">
<title>Node22&#45;&gt;Node24</title>
<path fill="none" stroke="midnightblue" d="M1608.81,-204.9C1616.27,-203.4 1623.95,-202.03 1631.24,-201 1869.86,-167.42 1933.78,-199.73 2172.24,-165 2175.28,-164.56 2178.4,-164.05 2181.53,-163.49"/>
<polygon fill="midnightblue" stroke="midnightblue" points="1607.91,-201.52 1598.84,-207 1609.35,-208.37 1607.91,-201.52"/>
</g>
<!-- Node25 -->
<g id="node25" class="node">
<title>Node25</title>
<g id="a_node25"><a xlink:href="Ioss__Utils_8C.html" target="_top" xlink:title=" ">
<polygon fill="white" stroke="black" points="2309.24,-140 2309.24,-159 2397.24,-159 2397.24,-140 2309.24,-140"/>
<text text-anchor="middle" x="2353.24" y="-147" font-family="Helvetica,sans-Serif" font-size="10.00">src/Ioss_Utils.C</text>
</a>
</g>
</g>
<!-- Node22&#45;&gt;Node25 -->
<g id="edge35" class="edge">
<title>Node22&#45;&gt;Node25</title>
<path fill="none" stroke="midnightblue" d="M1608.29,-204.92C1615.91,-203.39 1623.78,-202 1631.24,-201 1925.91,-161.43 2005.63,-211.81 2299.24,-165 2307.96,-163.61 2317.31,-161.38 2325.73,-159.07"/>
<polygon fill="midnightblue" stroke="midnightblue" points="1607.55,-201.5 1598.48,-206.99 1608.99,-208.35 1607.55,-201.5"/>
</g>
<!-- Node26 -->
<g id="node26" class="node">
<title>Node26</title>
<g id="a_node26"><a xlink:href="io__shell_8C.html" target="_top" xlink:title=" ">
<polygon fill="white" stroke="black" points="1513.74,-140 1513.74,-159 1614.74,-159 1614.74,-140 1513.74,-140"/>
<text text-anchor="middle" x="1564.24" y="-147" font-family="Helvetica,sans-Serif" font-size="10.00">src/main/io_shell.C</text>
</a>
</g>
</g>
<!-- Node22&#45;&gt;Node26 -->
<g id="edge36" class="edge">
<title>Node22&#45;&gt;Node26</title>
<path fill="none" stroke="midnightblue" d="M1564.24,-196.54C1564.24,-184.17 1564.24,-168.62 1564.24,-159.13"/>
<polygon fill="midnightblue" stroke="midnightblue" points="1560.74,-196.73 1564.24,-206.73 1567.74,-196.73 1560.74,-196.73"/>
</g>
<!-- Node27 -->
<g id="node27" class="node">
<title>Node27</title>
<g id="a_node27"><a xlink:href="io__shell__ts_8C.html" target="_top" xlink:title=" ">
<polygon fill="white" stroke="black" points="1633.24,-140 1633.24,-159 1747.24,-159 1747.24,-140 1633.24,-140"/>
<text text-anchor="middle" x="1690.24" y="-147" font-family="Helvetica,sans-Serif" font-size="10.00">src/main/io_shell_ts.C</text>
</a>
</g>
</g>
<!-- Node22&#45;&gt;Node27 -->
<g id="edge37" class="edge">
<title>Node22&#45;&gt;Node27</title>
<path fill="none" stroke="midnightblue" d="M1589.88,-202.27C1614.83,-189.4 1652.03,-170.21 1673.44,-159.17"/>
<polygon fill="midnightblue" stroke="midnightblue" points="1588.25,-199.17 1580.97,-206.87 1591.46,-205.39 1588.25,-199.17"/>
</g>
<!-- Node28 -->
<g id="node28" class="node">
<title>Node28</title>
<g id="a_node28"><a xlink:href="Iopg__DatabaseIO_8C.html" target="_top" xlink:title=" ">
<polygon fill="white" stroke="black" points="1765.24,-140 1765.24,-159 1923.24,-159 1923.24,-140 1765.24,-140"/>
<text text-anchor="middle" x="1844.24" y="-147" font-family="Helvetica,sans-Serif" font-size="10.00">src/pamgen/Iopg_DatabaseIO.C</text>
</a>
</g>
</g>
<!-- Node22&#45;&gt;Node28 -->
<g id="edge39" class="edge">
<title>Node22&#45;&gt;Node28</title>
<path fill="none" stroke="midnightblue" d="M1611,-204.64C1666.17,-191.84 1756.75,-170.81 1807.26,-159.08"/>
<polygon fill="midnightblue" stroke="midnightblue" points="1610.08,-201.26 1601.13,-206.94 1611.66,-208.08 1610.08,-201.26"/>
</g>
<!-- Node29 -->
<g id="node29" class="node">
<title>Node29</title>
<g id="a_node29"><a xlink:href="Iovs__DatabaseIO_8C.html" target="_top" xlink:title=" ">
<polygon fill="white" stroke="black" points="1941.74,-134.5 1941.74,-164.5 2050.74,-164.5 2050.74,-134.5 1941.74,-134.5"/>
<text text-anchor="start" x="1949.74" y="-152.5" font-family="Helvetica,sans-Serif" font-size="10.00">src/visualization/Iovs</text>
<text text-anchor="middle" x="1996.24" y="-141.5" font-family="Helvetica,sans-Serif" font-size="10.00">_DatabaseIO.C</text>
</a>
</g>
</g>
<!-- Node22&#45;&gt;Node29 -->
<g id="edge40" class="edge">
<title>Node22&#45;&gt;Node29</title>
<path fill="none" stroke="midnightblue" d="M1610.59,-204.88C1617.49,-203.47 1624.54,-202.12 1631.24,-201 1764.12,-178.73 1799.47,-187.92 1932.24,-165 1935.27,-164.48 1938.37,-163.9 1941.5,-163.29"/>
<polygon fill="midnightblue" stroke="midnightblue" points="1609.7,-201.49 1600.63,-206.97 1611.14,-208.34 1609.7,-201.49"/>
</g>
<!-- Node31 -->
<g id="node31" class="node">
<title>Node31</title>
<g id="a_node31"><a xlink:href="io__info_8C.html" target="_top" xlink:title=" ">
<polygon fill="white" stroke="black" points="2415.24,-140 2415.24,-159 2511.24,-159 2511.24,-140 2415.24,-140"/>
<text text-anchor="middle" x="2463.24" y="-147" font-family="Helvetica,sans-Serif" font-size="10.00">src/main/io_info.C</text>
</a>
</g>
</g>
<!-- Node30&#45;&gt;Node31 -->
<g id="edge42" class="edge">
<title>Node30&#45;&gt;Node31</title>
<path fill="none" stroke="midnightblue" d="M2364,-202.1C2388.76,-189.23 2425.43,-170.16 2446.57,-159.17"/>
<polygon fill="midnightblue" stroke="midnightblue" points="2362.1,-199.15 2354.84,-206.87 2365.33,-205.36 2362.1,-199.15"/>
</g>
<!-- Node32 -->
<g id="node32" class="node">
<title>Node32</title>
<g id="a_node32"><a xlink:href="io__info__main_8C.html" target="_top" xlink:title=" ">
<polygon fill="white" stroke="black" points="2529.24,-140 2529.24,-159 2651.24,-159 2651.24,-140 2529.24,-140"/>
<text text-anchor="middle" x="2590.24" y="-147" font-family="Helvetica,sans-Serif" font-size="10.00">src/main/io_info_main.C</text>
</a>
</g>
</g>
<!-- Node30&#45;&gt;Node32 -->
<g id="edge43" class="edge">
<title>Node30&#45;&gt;Node32</title>
<path fill="none" stroke="midnightblue" d="M2380.89,-204.45C2385.39,-203.29 2389.91,-202.12 2394.24,-201 2451.4,-186.24 2517.95,-169.1 2556.94,-159.07"/>
<polygon fill="midnightblue" stroke="midnightblue" points="2379.91,-201.09 2371.11,-206.98 2381.66,-207.87 2379.91,-201.09"/>
</g>
</g>
</svg>
