<?xml version="1.0" encoding="UTF-8" standalone="no"?>
<!DOCTYPE svg PUBLIC "-//W3C//DTD SVG 1.1//EN"
 "http://www.w3.org/Graphics/SVG/1.1/DTD/svg11.dtd">
<!-- Generated by graphviz version 2.40.1 (20161225.0304)
 -->
<!-- Title: src/Ioss_StructuredBlock.h Pages: 1 -->
<svg width="2358pt" height="522pt"
 viewBox="0.00 0.00 2358.00 522.00" xmlns="http://www.w3.org/2000/svg" xmlns:xlink="http://www.w3.org/1999/xlink">
<g id="graph0" class="graph" transform="scale(1 1) rotate(0) translate(4 518)">
<title>src/Ioss_StructuredBlock.h</title>
<polygon fill="#ffffff" stroke="transparent" points="-4,4 -4,-518 2354,-518 2354,4 -4,4"/>
<!-- Node0 -->
<g id="node1" class="node">
<title>Node0</title>
<polygon fill="#bfbfbf" stroke="#000000" points="423.5322,-495.5 423.5322,-513.5 558.4678,-513.5 558.4678,-495.5 423.5322,-495.5"/>
<text text-anchor="middle" x="491" y="-501.5" font-family="Helvetica,sans-Serif" font-size="10.00" fill="#000000">src/Ioss_StructuredBlock.h</text>
</g>
<!-- Node1 -->
<g id="node2" class="node">
<title>Node1</title>
<g id="a_node2"><a xlink:href="Ioss__BoundingBox_8h.html" target="_top" xlink:title="Ioss_BoundingBox.h">
<polygon fill="#ffffff" stroke="#000000" points="443.1333,-220.5 443.1333,-238.5 550.8667,-238.5 550.8667,-220.5 443.1333,-220.5"/>
<text text-anchor="middle" x="497" y="-226.5" font-family="Helvetica,sans-Serif" font-size="10.00" fill="#000000">Ioss_BoundingBox.h</text>
</a>
</g>
</g>
<!-- Node0&#45;&gt;Node1 -->
<g id="edge1" class="edge">
<title>Node0&#45;&gt;Node1</title>
<path fill="none" stroke="#191970" d="M491,-495.3733C491,-476.5256 491,-431.9306 491,-394.5 491,-394.5 491,-394.5 491,-339.5 491,-307.5782 493.5504,-270.5227 495.3257,-248.5969"/>
<polygon fill="#191970" stroke="#191970" points="498.8145,-248.8759 496.1657,-238.6175 491.8391,-248.2886 498.8145,-248.8759"/>
</g>
<!-- Node2 -->
<g id="node3" class="node">
<title>Node2</title>
<g id="a_node3"><a xlink:href="Ioss__CodeTypes_8h.html" target="_top" xlink:title="Ioss_CodeTypes.h">
<polygon fill="#ffffff" stroke="#000000" points="757.584,-55.5 757.584,-73.5 856.416,-73.5 856.416,-55.5 757.584,-55.5"/>
<text text-anchor="middle" x="807" y="-61.5" font-family="Helvetica,sans-Serif" font-size="10.00" fill="#000000">Ioss_CodeTypes.h</text>
</a>
</g>
</g>
<!-- Node0&#45;&gt;Node2 -->
<g id="edge2" class="edge">
<title>Node0&#45;&gt;Node2</title>
<path fill="none" stroke="#191970" d="M431.1436,-495.4804C375.4509,-483.2938 301,-455.58 301,-394.5 301,-394.5 301,-394.5 301,-339.5 301,-273.5419 338.0971,-261.9448 389,-220 417.8445,-196.2317 433.6643,-204.3718 465,-184 507.2758,-156.5159 505.4478,-131.6244 551,-110 584.9183,-93.8984 682.8517,-79.5103 747.2833,-71.4077"/>
<polygon fill="#191970" stroke="#191970" points="747.8288,-74.867 757.3216,-70.162 746.9666,-67.9203 747.8288,-74.867"/>
</g>
<!-- Node3 -->
<g id="node4" class="node">
<title>Node3</title>
<polygon fill="#ffffff" stroke="#bfbfbf" points="18.6084,-.5 18.6084,-18.5 57.3916,-18.5 57.3916,-.5 18.6084,-.5"/>
<text text-anchor="middle" x="38" y="-6.5" font-family="Helvetica,sans-Serif" font-size="10.00" fill="#000000">array</text>
</g>
<!-- Node0&#45;&gt;Node3 -->
<g id="edge106" class="edge">
<title>Node0&#45;&gt;Node3</title>
<path fill="none" stroke="#191970" d="M423.5012,-496.3575C288.9176,-479.2043 0,-437.3864 0,-394.5 0,-394.5 0,-394.5 0,-119.5 0,-85.4876 16.4315,-48.6418 27.6845,-27.3963"/>
<polygon fill="#191970" stroke="#191970" points="30.7984,-28.9975 32.5555,-18.5493 24.6664,-25.6213 30.7984,-28.9975"/>
</g>
<!-- Node6 -->
<g id="node7" class="node">
<title>Node6</title>
<polygon fill="#ffffff" stroke="#bfbfbf" points="1987.7734,-.5 1987.7734,-18.5 2028.2266,-18.5 2028.2266,-.5 1987.7734,-.5"/>
<text text-anchor="middle" x="2008" y="-6.5" font-family="Helvetica,sans-Serif" font-size="10.00" fill="#000000">string</text>
</g>
<!-- Node0&#45;&gt;Node6 -->
<g id="edge108" class="edge">
<title>Node0&#45;&gt;Node6</title>
<path fill="none" stroke="#191970" d="M558.5635,-503.6814C848.2757,-500.0285 1977.9295,-484.2775 2135,-459 2233.4956,-443.149 2350,-494.2629 2350,-394.5 2350,-394.5 2350,-394.5 2350,-119.5 2350,-71.3659 2307.197,-74.066 2263,-55 2222.9615,-37.7279 2097.2491,-20.5136 2038.6419,-13.1813"/>
<polygon fill="#191970" stroke="#191970" points="2038.8693,-9.6828 2028.5154,-11.9294 2038.0104,-16.6299 2038.8693,-9.6828"/>
</g>
<!-- Node10 -->
<g id="node11" class="node">
<title>Node10</title>
<g id="a_node11"><a xlink:href="Ioss__EntityBlock_8h.html" target="_top" xlink:title="Ioss_EntityBlock.h">
<polygon fill="#ffffff" stroke="#000000" points="2110.1479,-385.5 2110.1479,-403.5 2207.8521,-403.5 2207.8521,-385.5 2110.1479,-385.5"/>
<text text-anchor="middle" x="2159" y="-391.5" font-family="Helvetica,sans-Serif" font-size="10.00" fill="#000000">Ioss_EntityBlock.h</text>
</a>
</g>
</g>
<!-- Node0&#45;&gt;Node10 -->
<g id="edge10" class="edge">
<title>Node0&#45;&gt;Node10</title>
<path fill="none" stroke="#191970" d="M558.9313,-504.1886C837.506,-502.6804 1884.4545,-494.6698 2028,-459 2068.7944,-448.8629 2111.702,-424.7974 2136.8704,-409.0998"/>
<polygon fill="#191970" stroke="#191970" points="2139.0494,-411.8618 2145.6064,-403.5398 2135.2909,-405.9564 2139.0494,-411.8618"/>
</g>
<!-- Node22 -->
<g id="node23" class="node">
<title>Node22</title>
<polygon fill="#ffffff" stroke="#bfbfbf" points="559.8843,-110.5 559.8843,-128.5 608.1157,-128.5 608.1157,-110.5 559.8843,-110.5"/>
<text text-anchor="middle" x="584" y="-116.5" font-family="Helvetica,sans-Serif" font-size="10.00" fill="#000000">cassert</text>
</g>
<!-- Node0&#45;&gt;Node22 -->
<g id="edge107" class="edge">
<title>Node0&#45;&gt;Node22</title>
<path fill="none" stroke="#191970" d="M469.2891,-495.4258C436.2131,-479.9802 377,-445.243 377,-394.5 377,-394.5 377,-394.5 377,-284.5 377,-214.5918 439.4458,-222.1912 498,-184 521.8279,-168.4586 547.7702,-148.5573 564.8611,-134.998"/>
<polygon fill="#191970" stroke="#191970" points="567.3099,-137.5213 572.9336,-128.5422 562.9379,-132.0545 567.3099,-137.5213"/>
</g>
<!-- Node27 -->
<g id="node28" class="node">
<title>Node27</title>
<g id="a_node28"><a xlink:href="Ioss__Property_8h.html" target="_top" xlink:title="Ioss_Property.h">
<polygon fill="#ffffff" stroke="#000000" points="2112.3516,-165.5 2112.3516,-183.5 2197.6484,-183.5 2197.6484,-165.5 2112.3516,-165.5"/>
<text text-anchor="middle" x="2155" y="-171.5" font-family="Helvetica,sans-Serif" font-size="10.00" fill="#000000">Ioss_Property.h</text>
</a>
</g>
</g>
<!-- Node0&#45;&gt;Node27 -->
<g id="edge100" class="edge">
<title>Node0&#45;&gt;Node27</title>
<path fill="none" stroke="#191970" d="M558.5976,-503.8207C840.7582,-500.8118 1916.8011,-487.5534 2066,-459 2136.1512,-445.5746 2176.0396,-462.5122 2217,-404 2239.3456,-372.0792 2347.0818,-588.8308 2189,-220 2184.5599,-209.6405 2177.3071,-199.4616 2170.6382,-191.3671"/>
<polygon fill="#191970" stroke="#191970" points="2173.2399,-189.0249 2164.0424,-183.766 2167.9529,-193.6128 2173.2399,-189.0249"/>
</g>
<!-- Node36 -->
<g id="node37" class="node">
<title>Node36</title>
<g id="a_node37"><a xlink:href="Ioss__NodeBlock_8h.html" target="_top" xlink:title="Ioss_NodeBlock.h">
<polygon fill="#ffffff" stroke="#000000" points="1922.6997,-440.5 1922.6997,-458.5 2019.3003,-458.5 2019.3003,-440.5 1922.6997,-440.5"/>
<text text-anchor="middle" x="1971" y="-446.5" font-family="Helvetica,sans-Serif" font-size="10.00" fill="#000000">Ioss_NodeBlock.h</text>
</a>
</g>
</g>
<!-- Node0&#45;&gt;Node36 -->
<g id="edge93" class="edge">
<title>Node0&#45;&gt;Node36</title>
<path fill="none" stroke="#191970" d="M558.926,-501.9757C809.3592,-492.6691 1678.5627,-460.3676 1912.5855,-451.6708"/>
<polygon fill="#191970" stroke="#191970" points="1912.7343,-455.1678 1922.5973,-451.2987 1912.4742,-448.1726 1912.7343,-455.1678"/>
</g>
<!-- Node37 -->
<g id="node38" class="node">
<title>Node37</title>
<g id="a_node38"><a xlink:href="Ioss__ZoneConnectivity_8h.html" target="_top" xlink:title="Ioss_ZoneConnectivity.h">
<polygon fill="#ffffff" stroke="#000000" points="331.6177,-165.5 331.6177,-183.5 456.3823,-183.5 456.3823,-165.5 331.6177,-165.5"/>
<text text-anchor="middle" x="394" y="-171.5" font-family="Helvetica,sans-Serif" font-size="10.00" fill="#000000">Ioss_ZoneConnectivity.h</text>
</a>
</g>
</g>
<!-- Node0&#45;&gt;Node37 -->
<g id="edge101" class="edge">
<title>Node0&#45;&gt;Node37</title>
<path fill="none" stroke="#191970" d="M433.228,-495.4468C382.0264,-486.735 311.6701,-472.8741 287,-459 252.342,-439.5088 225,-434.2629 225,-394.5 225,-394.5 225,-394.5 225,-284.5 225,-229.3136 289.0822,-200.3822 338.3256,-186.2971"/>
<polygon fill="#191970" stroke="#191970" points="339.5352,-189.5953 348.2662,-183.5936 337.6981,-182.8407 339.5352,-189.5953"/>
</g>
<!-- Node2&#45;&gt;Node3 -->
<g id="edge3" class="edge">
<title>Node2&#45;&gt;Node3</title>
<path fill="none" stroke="#191970" d="M757.4314,-60.9548C611.1815,-50.4948 184.4326,-19.9731 67.7728,-11.6294"/>
<polygon fill="#191970" stroke="#191970" points="67.6952,-8.115 57.4709,-10.8926 67.1957,-15.0972 67.6952,-8.115"/>
</g>
<!-- Node4 -->
<g id="node5" class="node">
<title>Node4</title>
<polygon fill="#ffffff" stroke="#bfbfbf" points="241.8794,-.5 241.8794,-18.5 290.1206,-18.5 290.1206,-.5 241.8794,-.5"/>
<text text-anchor="middle" x="266" y="-6.5" font-family="Helvetica,sans-Serif" font-size="10.00" fill="#000000">cstddef</text>
</g>
<!-- Node2&#45;&gt;Node4 -->
<g id="edge4" class="edge">
<title>Node2&#45;&gt;Node4</title>
<path fill="none" stroke="#191970" d="M757.5557,-59.4733C649.1783,-48.4553 392.9929,-22.4106 300.2613,-12.9831"/>
<polygon fill="#191970" stroke="#191970" points="300.5887,-9.4985 290.2859,-11.969 299.8806,-16.4626 300.5887,-9.4985"/>
</g>
<!-- Node5 -->
<g id="node6" class="node">
<title>Node5</title>
<polygon fill="#ffffff" stroke="#bfbfbf" points="979.5493,-.5 979.5493,-18.5 1024.4507,-18.5 1024.4507,-.5 979.5493,-.5"/>
<text text-anchor="middle" x="1002" y="-6.5" font-family="Helvetica,sans-Serif" font-size="10.00" fill="#000000">cstdint</text>
</g>
<!-- Node2&#45;&gt;Node5 -->
<g id="edge5" class="edge">
<title>Node2&#45;&gt;Node5</title>
<path fill="none" stroke="#191970" d="M839.2003,-55.4179C875.2352,-45.2542 933.2941,-28.8786 969.4648,-18.6766"/>
<polygon fill="#191970" stroke="#191970" points="970.8198,-21.931 979.4942,-15.8478 968.9195,-15.1939 970.8198,-21.931"/>
</g>
<!-- Node2&#45;&gt;Node6 -->
<g id="edge6" class="edge">
<title>Node2&#45;&gt;Node6</title>
<path fill="none" stroke="#191970" d="M856.6974,-62.2241C1058.7824,-52.9696 1815.7752,-18.303 1977.4835,-10.8975"/>
<polygon fill="#191970" stroke="#191970" points="1977.8441,-14.3848 1987.6735,-10.4309 1977.5238,-7.3921 1977.8441,-14.3848"/>
</g>
<!-- Node7 -->
<g id="node8" class="node">
<title>Node7</title>
<polygon fill="#ffffff" stroke="#bfbfbf" points="1625.3843,-.5 1625.3843,-18.5 1668.6157,-18.5 1668.6157,-.5 1625.3843,-.5"/>
<text text-anchor="middle" x="1647" y="-6.5" font-family="Helvetica,sans-Serif" font-size="10.00" fill="#000000">vector</text>
</g>
<!-- Node2&#45;&gt;Node7 -->
<g id="edge7" class="edge">
<title>Node2&#45;&gt;Node7</title>
<path fill="none" stroke="#191970" d="M856.7196,-61.2445C1012.1951,-51.0646 1486.4304,-20.0135 1614.7147,-11.6139"/>
<polygon fill="#191970" stroke="#191970" points="1615.2835,-15.0843 1625.0334,-10.9383 1614.8261,-8.0992 1615.2835,-15.0843"/>
</g>
<!-- Node8 -->
<g id="node9" class="node">
<title>Node8</title>
<polygon fill="#ffffff" stroke="#bfbfbf" points="698.2515,-.5 698.2515,-18.5 813.7485,-18.5 813.7485,-.5 698.2515,-.5"/>
<text text-anchor="middle" x="756" y="-6.5" font-family="Helvetica,sans-Serif" font-size="10.00" fill="#000000">SEACASIoss_config.h</text>
</g>
<!-- Node2&#45;&gt;Node8 -->
<g id="edge8" class="edge">
<title>Node2&#45;&gt;Node8</title>
<path fill="none" stroke="#191970" d="M798.5784,-55.4179C791.2402,-47.5041 780.4098,-35.8243 771.5087,-26.2251"/>
<polygon fill="#191970" stroke="#191970" points="773.9705,-23.7324 764.6046,-18.7795 768.8376,-28.492 773.9705,-23.7324"/>
</g>
<!-- Node9 -->
<g id="node10" class="node">
<title>Node9</title>
<polygon fill="#ffffff" stroke="#bfbfbf" points="831.3818,-.5 831.3818,-18.5 884.6182,-18.5 884.6182,-.5 831.3818,-.5"/>
<text text-anchor="middle" x="858" y="-6.5" font-family="Helvetica,sans-Serif" font-size="10.00" fill="#000000">complex</text>
</g>
<!-- Node2&#45;&gt;Node9 -->
<g id="edge9" class="edge">
<title>Node2&#45;&gt;Node9</title>
<path fill="none" stroke="#191970" d="M815.4216,-55.4179C822.7598,-47.5041 833.5902,-35.8243 842.4913,-26.2251"/>
<polygon fill="#191970" stroke="#191970" points="845.1624,-28.492 849.3954,-18.7795 840.0295,-23.7324 845.1624,-28.492"/>
</g>
<!-- Node10&#45;&gt;Node4 -->
<g id="edge91" class="edge">
<title>Node10&#45;&gt;Node4</title>
<path fill="none" stroke="#191970" d="M2110.0427,-392.5522C1829.6269,-381.1232 433.7683,-320.4684 262,-239 203.0626,-211.0465 180.6823,-174.2411 192,-110 196.5129,-84.384 197.106,-76.324 212,-55 220.3087,-43.1044 232.4775,-32.4824 243.1609,-24.4991"/>
<polygon fill="#191970" stroke="#191970" points="245.199,-27.3445 251.3083,-18.6885 241.1345,-21.6454 245.199,-27.3445"/>
</g>
<!-- Node10&#45;&gt;Node6 -->
<g id="edge92" class="edge">
<title>Node10&#45;&gt;Node6</title>
<path fill="none" stroke="#191970" d="M2171.7464,-385.326C2201.6881,-362.6013 2274,-300.3815 2274,-229.5 2274,-229.5 2274,-229.5 2274,-119.5 2274,-68.9958 2108.1797,-29.6702 2038.385,-15.3547"/>
<polygon fill="#191970" stroke="#191970" points="2038.9251,-11.8932 2028.4309,-13.3496 2037.5428,-18.7554 2038.9251,-11.8932"/>
</g>
<!-- Node11 -->
<g id="node12" class="node">
<title>Node11</title>
<g id="a_node12"><a xlink:href="Ioss__GroupingEntity_8h.html" target="_top" xlink:title="Ioss_GroupingEntity.h">
<polygon fill="#ffffff" stroke="#000000" points="1552.1743,-330.5 1552.1743,-348.5 1665.8257,-348.5 1665.8257,-330.5 1552.1743,-330.5"/>
<text text-anchor="middle" x="1609" y="-336.5" font-family="Helvetica,sans-Serif" font-size="10.00" fill="#000000">Ioss_GroupingEntity.h</text>
</a>
</g>
</g>
<!-- Node10&#45;&gt;Node11 -->
<g id="edge11" class="edge">
<title>Node10&#45;&gt;Node11</title>
<path fill="none" stroke="#191970" d="M2109.7071,-389.5707C2010.8845,-379.6885 1788.4313,-357.4431 1676.3059,-346.2306"/>
<polygon fill="#191970" stroke="#191970" points="1676.4331,-342.7259 1666.1345,-345.2134 1675.7365,-349.6912 1676.4331,-342.7259"/>
</g>
<!-- Node10&#45;&gt;Node27 -->
<g id="edge90" class="edge">
<title>Node10&#45;&gt;Node27</title>
<path fill="none" stroke="#191970" d="M2161.5939,-385.3152C2168.5875,-359.1875 2186.4875,-282.3114 2174,-220 2172.1313,-210.6754 2168.3064,-200.8752 2164.575,-192.7682"/>
<polygon fill="#191970" stroke="#191970" points="2167.6052,-190.9986 2160.0529,-183.5681 2161.3231,-194.0865 2167.6052,-190.9986"/>
</g>
<!-- Node11&#45;&gt;Node2 -->
<g id="edge12" class="edge">
<title>Node11&#45;&gt;Node2</title>
<path fill="none" stroke="#191970" d="M1552.1163,-339.0389C1399.2808,-337.3317 982.372,-329.4636 850,-294 797.2025,-279.8551 773.555,-282.1476 740,-239 724.6407,-219.2499 730.6821,-208.8753 728,-184 724.2935,-149.6239 731.1981,-137.6177 752,-110 760.8247,-98.2839 773.2461,-87.6754 784.0521,-79.6548"/>
<polygon fill="#191970" stroke="#191970" points="786.1537,-82.455 792.2723,-73.8055 782.0953,-76.7515 786.1537,-82.455"/>
</g>
<!-- Node11&#45;&gt;Node4 -->
<g id="edge86" class="edge">
<title>Node11&#45;&gt;Node4</title>
<path fill="none" stroke="#191970" d="M1552.1615,-338.421C1417.395,-335.4196 1068.0266,-325.0404 778,-294 624.0485,-277.5232 585.6221,-270.3572 434,-239 336.9896,-218.9371 284.9311,-257.0326 218,-184 179.2063,-141.6698 197.0573,-105.1597 225,-55 230.9768,-44.2711 239.9063,-33.9615 247.9075,-25.8769"/>
<polygon fill="#191970" stroke="#191970" points="250.685,-28.0608 255.4555,-18.6007 245.8269,-23.0211 250.685,-28.0608"/>
</g>
<!-- Node11&#45;&gt;Node5 -->
<g id="edge87" class="edge">
<title>Node11&#45;&gt;Node5</title>
<path fill="none" stroke="#191970" d="M1552.1163,-339.0389C1399.2808,-337.3317 982.372,-329.4636 850,-294 797.2025,-279.8551 773.555,-282.1476 740,-239 689.7372,-174.3683 690.7964,-112.5842 749,-55 764.5521,-39.6134 904.7109,-21.1035 969.4665,-13.282"/>
<polygon fill="#191970" stroke="#191970" points="970.0318,-16.7394 979.5458,-12.0775 969.2011,-9.7889 970.0318,-16.7394"/>
</g>
<!-- Node11&#45;&gt;Node6 -->
<g id="edge88" class="edge">
<title>Node11&#45;&gt;Node6</title>
<path fill="none" stroke="#191970" d="M1666.003,-338.4196C1775.179,-335.6363 2009.4776,-326.0136 2083,-294 2150.5452,-264.589 2176.7867,-251.1901 2207,-184 2244.6537,-100.2634 2102.2993,-40.9366 2037.9945,-18.9275"/>
<polygon fill="#191970" stroke="#191970" points="2038.9774,-15.5657 2028.3836,-15.7175 2036.7598,-22.2052 2038.9774,-15.5657"/>
</g>
<!-- Node11&#45;&gt;Node7 -->
<g id="edge89" class="edge">
<title>Node11&#45;&gt;Node7</title>
<path fill="none" stroke="#191970" d="M1666.0278,-334.3731C1769.7825,-323.7345 1982.8151,-295.4066 2027,-239 2129.9131,-107.6209 1786.8468,-34.2964 1678.6388,-14.813"/>
<polygon fill="#191970" stroke="#191970" points="1679.0918,-11.3389 1668.6353,-13.0456 1677.8739,-18.2322 1679.0918,-11.3389"/>
</g>
<!-- Node12 -->
<g id="node13" class="node">
<title>Node12</title>
<g id="a_node13"><a xlink:href="Ioss__DatabaseIO_8h.html" target="_top" xlink:title="Ioss_DatabaseIO.h">
<polygon fill="#ffffff" stroke="#000000" points="1211.1973,-275.5 1211.1973,-293.5 1312.8027,-293.5 1312.8027,-275.5 1211.1973,-275.5"/>
<text text-anchor="middle" x="1262" y="-281.5" font-family="Helvetica,sans-Serif" font-size="10.00" fill="#000000">Ioss_DatabaseIO.h</text>
</a>
</g>
</g>
<!-- Node11&#45;&gt;Node12 -->
<g id="edge13" class="edge">
<title>Node11&#45;&gt;Node12</title>
<path fill="none" stroke="#191970" d="M1552.0886,-330.4795C1489.0322,-320.4849 1387.7359,-304.4293 1323.0591,-294.178"/>
<polygon fill="#191970" stroke="#191970" points="1323.4294,-290.693 1313.0048,-292.5843 1322.3335,-297.6067 1323.4294,-290.693"/>
</g>
<!-- Node15 -->
<g id="node16" class="node">
<title>Node15</title>
<g id="a_node16"><a xlink:href="Ioss__EntityType_8h.html" target="_top" xlink:title="Ioss_EntityType.h">
<polygon fill="#ffffff" stroke="#000000" points="1923.5322,-220.5 1923.5322,-238.5 2018.4678,-238.5 2018.4678,-220.5 1923.5322,-220.5"/>
<text text-anchor="middle" x="1971" y="-226.5" font-family="Helvetica,sans-Serif" font-size="10.00" fill="#000000">Ioss_EntityType.h</text>
</a>
</g>
</g>
<!-- Node11&#45;&gt;Node15 -->
<g id="edge65" class="edge">
<title>Node11&#45;&gt;Node15</title>
<path fill="none" stroke="#191970" d="M1638.624,-330.4982C1703.5369,-310.7733 1858.3439,-263.7325 1931.4635,-241.5139"/>
<polygon fill="#191970" stroke="#191970" points="1932.6706,-244.8052 1941.221,-238.5489 1930.6354,-238.1075 1932.6706,-244.8052"/>
</g>
<!-- Node20 -->
<g id="node21" class="node">
<title>Node20</title>
<g id="a_node21"><a xlink:href="Ioss__Field_8h.html" target="_top" xlink:title="Ioss_Field.h">
<polygon fill="#ffffff" stroke="#000000" points="1092.042,-110.5 1092.042,-128.5 1161.958,-128.5 1161.958,-110.5 1092.042,-110.5"/>
<text text-anchor="middle" x="1127" y="-116.5" font-family="Helvetica,sans-Serif" font-size="10.00" fill="#000000">Ioss_Field.h</text>
</a>
</g>
</g>
<!-- Node11&#45;&gt;Node20 -->
<g id="edge66" class="edge">
<title>Node11&#45;&gt;Node20</title>
<path fill="none" stroke="#191970" d="M1552.1662,-337.1567C1369.0577,-329.0298 803.323,-299.2048 750,-239 703.4731,-186.4685 971.5992,-141.6396 1081.5643,-125.7038"/>
<polygon fill="#191970" stroke="#191970" points="1082.2938,-129.1352 1091.6965,-124.2526 1081.3012,-122.2059 1082.2938,-129.1352"/>
</g>
<!-- Node26 -->
<g id="node27" class="node">
<title>Node26</title>
<g id="a_node27"><a xlink:href="Ioss__PropertyManager_8h.html" target="_top" xlink:title="Ioss_PropertyManager.h">
<polygon fill="#ffffff" stroke="#000000" points="1743.5225,-220.5 1743.5225,-238.5 1868.4775,-238.5 1868.4775,-220.5 1743.5225,-220.5"/>
<text text-anchor="middle" x="1806" y="-226.5" font-family="Helvetica,sans-Serif" font-size="10.00" fill="#000000">Ioss_PropertyManager.h</text>
</a>
</g>
</g>
<!-- Node11&#45;&gt;Node26 -->
<g id="edge77" class="edge">
<title>Node11&#45;&gt;Node26</title>
<path fill="none" stroke="#191970" d="M1625.1213,-330.4982C1659.3929,-311.3619 1739.709,-266.5153 1780.8063,-243.5675"/>
<polygon fill="#191970" stroke="#191970" points="1782.6311,-246.5573 1789.6559,-238.6261 1779.2184,-240.4455 1782.6311,-246.5573"/>
</g>
<!-- Node11&#45;&gt;Node27 -->
<g id="edge76" class="edge">
<title>Node11&#45;&gt;Node27</title>
<path fill="none" stroke="#191970" d="M1665.8501,-336.5083C1779.5729,-330.1284 2027.0427,-314.1139 2060,-294 2093.4623,-273.5779 2083.0913,-250.2712 2108,-220 2116.7067,-209.4188 2127.6467,-198.7045 2136.7806,-190.3331"/>
<polygon fill="#191970" stroke="#191970" points="2139.1337,-192.9242 2144.2411,-183.6417 2134.4598,-187.7132 2139.1337,-192.9242"/>
</g>
<!-- Node29 -->
<g id="node30" class="node">
<title>Node29</title>
<g id="a_node30"><a xlink:href="Ioss__State_8h.html" target="_top" xlink:title="Ioss_State.h">
<polygon fill="#ffffff" stroke="#000000" points="1404.2046,-220.5 1404.2046,-238.5 1475.7954,-238.5 1475.7954,-220.5 1404.2046,-220.5"/>
<text text-anchor="middle" x="1440" y="-226.5" font-family="Helvetica,sans-Serif" font-size="10.00" fill="#000000">Ioss_State.h</text>
</a>
</g>
</g>
<!-- Node11&#45;&gt;Node29 -->
<g id="edge78" class="edge">
<title>Node11&#45;&gt;Node29</title>
<path fill="none" stroke="#191970" d="M1595.17,-330.4982C1566.079,-311.5633 1498.3151,-267.4566 1462.7373,-244.2994"/>
<polygon fill="#191970" stroke="#191970" points="1464.3114,-241.1479 1454.0211,-238.6261 1460.4928,-247.0147 1464.3114,-241.1479"/>
</g>
<!-- Node32 -->
<g id="node33" class="node">
<title>Node32</title>
<g id="a_node33"><a xlink:href="Ioss__FieldManager_8h.html" target="_top" xlink:title="Ioss_FieldManager.h">
<polygon fill="#ffffff" stroke="#000000" points="1493.5815,-220.5 1493.5815,-238.5 1602.4185,-238.5 1602.4185,-220.5 1493.5815,-220.5"/>
<text text-anchor="middle" x="1548" y="-226.5" font-family="Helvetica,sans-Serif" font-size="10.00" fill="#000000">Ioss_FieldManager.h</text>
</a>
</g>
</g>
<!-- Node11&#45;&gt;Node32 -->
<g id="edge67" class="edge">
<title>Node11&#45;&gt;Node32</title>
<path fill="none" stroke="#191970" d="M1604.0081,-330.4982C1593.9993,-312.4496 1571.3079,-271.5306 1558.084,-247.6843"/>
<polygon fill="#191970" stroke="#191970" points="1560.9715,-245.6741 1553.0609,-238.6261 1554.8497,-249.0689 1560.9715,-245.6741"/>
</g>
<!-- Node34 -->
<g id="node35" class="node">
<title>Node34</title>
<g id="a_node35"><a xlink:href="Ioss__VariableType_8h.html" target="_top" xlink:title="Ioss_VariableType.h">
<polygon fill="#ffffff" stroke="#000000" points="1620.061,-220.5 1620.061,-238.5 1725.939,-238.5 1725.939,-220.5 1620.061,-220.5"/>
<text text-anchor="middle" x="1673" y="-226.5" font-family="Helvetica,sans-Serif" font-size="10.00" fill="#000000">Ioss_VariableType.h</text>
</a>
</g>
</g>
<!-- Node11&#45;&gt;Node34 -->
<g id="edge79" class="edge">
<title>Node11&#45;&gt;Node34</title>
<path fill="none" stroke="#191970" d="M1614.2374,-330.4982C1624.7853,-312.369 1648.7587,-271.1647 1662.6053,-247.3659"/>
<polygon fill="#191970" stroke="#191970" points="1665.6865,-249.0298 1667.6902,-238.6261 1659.636,-245.5095 1665.6865,-249.0298"/>
</g>
<!-- Node12&#45;&gt;Node1 -->
<g id="edge14" class="edge">
<title>Node12&#45;&gt;Node1</title>
<path fill="none" stroke="#191970" d="M1211.1693,-282.4658C1095.97,-277.5748 806.2685,-263.6945 565,-239 563.7326,-238.8703 562.4526,-238.7348 561.1631,-238.5944"/>
<polygon fill="#191970" stroke="#191970" points="561.484,-235.1082 551.1469,-237.4308 560.6762,-242.0614 561.484,-235.1082"/>
</g>
<!-- Node12&#45;&gt;Node2 -->
<g id="edge15" class="edge">
<title>Node12&#45;&gt;Node2</title>
<path fill="none" stroke="#191970" d="M1211.0101,-283.7867C1087.6068,-281.5332 780.7245,-272.576 750,-239 732.7865,-220.1889 683.2715,-280.6471 764,-110 769.4089,-98.5664 778.7862,-88.1253 787.4061,-80.1372"/>
<polygon fill="#191970" stroke="#191970" points="789.741,-82.745 794.9739,-73.5326 785.1382,-77.471 789.741,-82.745"/>
</g>
<!-- Node12&#45;&gt;Node4 -->
<g id="edge59" class="edge">
<title>Node12&#45;&gt;Node4</title>
<path fill="none" stroke="#191970" d="M1211.035,-280.9272C1114.2534,-273.9947 897.2401,-257.7418 715,-239 645.9596,-231.8998 628.9356,-228.0546 560,-220 488.0464,-211.5928 288.0829,-234.3524 236,-184 194.7802,-144.1498 215.6057,-108.5834 236,-55 239.8558,-44.8693 246.2686,-34.6937 252.1775,-26.5422"/>
<polygon fill="#191970" stroke="#191970" points="254.9624,-28.6623 258.2468,-18.5894 249.3977,-24.4155 254.9624,-28.6623"/>
</g>
<!-- Node12&#45;&gt;Node5 -->
<g id="edge60" class="edge">
<title>Node12&#45;&gt;Node5</title>
<path fill="none" stroke="#191970" d="M1262.0416,-275.0887C1261.5668,-260.9982 1258.5046,-234.5259 1243,-220 1189.8083,-170.1659 1139.7331,-229.7618 1083,-184 1076.3815,-178.6614 1029.0238,-71.3645 1009.9399,-27.7231"/>
<polygon fill="#191970" stroke="#191970" points="1013.1395,-26.3041 1005.9308,-18.5398 1006.7242,-29.1049 1013.1395,-26.3041"/>
</g>
<!-- Node12&#45;&gt;Node6 -->
<g id="edge62" class="edge">
<title>Node12&#45;&gt;Node6</title>
<path fill="none" stroke="#191970" d="M1312.9024,-283.2714C1440.4762,-279.7868 1771.2,-268.1385 1877,-239 1895.2046,-233.9863 1898.0655,-228.3525 1915,-220 1947.8015,-203.8215 1959.7269,-205.9264 1989,-184 2015.4409,-164.195 2026.2524,-159.4772 2039,-129 2051.7013,-98.6334 2052.3814,-86.2359 2042,-55 2038.4452,-44.3043 2031.2872,-34.0894 2024.452,-26.058"/>
<polygon fill="#191970" stroke="#191970" points="2026.933,-23.5843 2017.6105,-18.5503 2021.759,-28.2992 2026.933,-23.5843"/>
</g>
<!-- Node12&#45;&gt;Node7 -->
<g id="edge64" class="edge">
<title>Node12&#45;&gt;Node7</title>
<path fill="none" stroke="#191970" d="M1282.9627,-275.4469C1302.6591,-266.7352 1332.7937,-252.8743 1358,-239 1473.6559,-175.3395 1514.8999,-170.4931 1605,-74 1618.2094,-59.8533 1629.9164,-41.0668 1637.5925,-27.4196"/>
<polygon fill="#191970" stroke="#191970" points="1640.7244,-28.9866 1642.4332,-18.5305 1634.5769,-25.6388 1640.7244,-28.9866"/>
</g>
<!-- Node13 -->
<g id="node14" class="node">
<title>Node13</title>
<g id="a_node14"><a xlink:href="Ioss__DBUsage_8h.html" target="_top" xlink:title="Ioss_DBUsage.h">
<polygon fill="#ffffff" stroke="#000000" points="878.4805,-220.5 878.4805,-238.5 969.5195,-238.5 969.5195,-220.5 878.4805,-220.5"/>
<text text-anchor="middle" x="924" y="-226.5" font-family="Helvetica,sans-Serif" font-size="10.00" fill="#000000">Ioss_DBUsage.h</text>
</a>
</g>
</g>
<!-- Node12&#45;&gt;Node13 -->
<g id="edge16" class="edge">
<title>Node12&#45;&gt;Node13</title>
<path fill="none" stroke="#191970" d="M1211.1036,-276.4995C1156.5318,-267.8804 1067.0614,-253.632 979.7006,-239.1013"/>
<polygon fill="#191970" stroke="#191970" points="980.0508,-235.6115 969.6116,-237.4204 978.9003,-242.5163 980.0508,-235.6115"/>
</g>
<!-- Node14 -->
<g id="node15" class="node">
<title>Node14</title>
<g id="a_node15"><a xlink:href="Ioss__DataSize_8h.html" target="_top" xlink:title="Ioss_DataSize.h">
<polygon fill="#ffffff" stroke="#000000" points="987.5913,-220.5 987.5913,-238.5 1076.4087,-238.5 1076.4087,-220.5 987.5913,-220.5"/>
<text text-anchor="middle" x="1032" y="-226.5" font-family="Helvetica,sans-Serif" font-size="10.00" fill="#000000">Ioss_DataSize.h</text>
</a>
</g>
</g>
<!-- Node12&#45;&gt;Node14 -->
<g id="edge17" class="edge">
<title>Node12&#45;&gt;Node14</title>
<path fill="none" stroke="#191970" d="M1224.2777,-275.4795C1184.7532,-266.0279 1122.5618,-251.1561 1079.6659,-240.8984"/>
<polygon fill="#191970" stroke="#191970" points="1080.2827,-237.4473 1069.7429,-238.5255 1078.6546,-244.2553 1080.2827,-237.4473"/>
</g>
<!-- Node12&#45;&gt;Node15 -->
<g id="edge18" class="edge">
<title>Node12&#45;&gt;Node15</title>
<path fill="none" stroke="#191970" d="M1312.9598,-282.3867C1422.4904,-277.5229 1688.3883,-263.9919 1910,-239 1911.0917,-238.8769 1912.1937,-238.7484 1913.3035,-238.6152"/>
<polygon fill="#191970" stroke="#191970" points="1913.9643,-242.059 1923.4327,-237.305 1913.0663,-235.1168 1913.9643,-242.059"/>
</g>
<!-- Node16 -->
<g id="node17" class="node">
<title>Node16</title>
<g id="a_node17"><a xlink:href="Ioss__Map_8h.html" target="_top" xlink:title="Ioss_Map.h">
<polygon fill="#ffffff" stroke="#000000" points="968.1528,-110.5 968.1528,-128.5 1035.8472,-128.5 1035.8472,-110.5 968.1528,-110.5"/>
<text text-anchor="middle" x="1002" y="-116.5" font-family="Helvetica,sans-Serif" font-size="10.00" fill="#000000">Ioss_Map.h</text>
</a>
</g>
</g>
<!-- Node12&#45;&gt;Node16 -->
<g id="edge19" class="edge">
<title>Node12&#45;&gt;Node16</title>
<path fill="none" stroke="#191970" d="M1223.1753,-275.4716C1194.5128,-267.9431 1155.0776,-255.7414 1123,-239 1086.9873,-220.2048 1078.6392,-212.8092 1050,-184 1035.7677,-169.6832 1022.2966,-150.9569 1013.269,-137.3728"/>
<polygon fill="#191970" stroke="#191970" points="1016.1545,-135.3897 1007.7743,-128.9072 1010.2829,-139.2008 1016.1545,-135.3897"/>
</g>
<!-- Node17 -->
<g id="node18" class="node">
<title>Node17</title>
<polygon fill="#ffffff" stroke="#bfbfbf" points="1129.6084,-55.5 1129.6084,-73.5 1168.3916,-73.5 1168.3916,-55.5 1129.6084,-55.5"/>
<text text-anchor="middle" x="1149" y="-61.5" font-family="Helvetica,sans-Serif" font-size="10.00" fill="#000000">utility</text>
</g>
<!-- Node12&#45;&gt;Node17 -->
<g id="edge63" class="edge">
<title>Node12&#45;&gt;Node17</title>
<path fill="none" stroke="#191970" d="M1276.4162,-275.4008C1318.1274,-248.7324 1437.2259,-170.0601 1457,-129 1460.664,-121.3919 1462.5176,-116.3926 1457,-110 1438.9065,-89.0372 1252.4251,-72.4802 1178.7305,-66.7077"/>
<polygon fill="#191970" stroke="#191970" points="1178.9488,-63.2142 1168.7093,-65.935 1178.4106,-70.1935 1178.9488,-63.2142"/>
</g>
<!-- Node18 -->
<g id="node19" class="node">
<title>Node18</title>
<g id="a_node19"><a xlink:href="Ioss__ParallelUtils_8h.html" target="_top" xlink:title="Ioss_ParallelUtils.h">
<polygon fill="#ffffff" stroke="#000000" points="759.4829,-220.5 759.4829,-238.5 860.5171,-238.5 860.5171,-220.5 759.4829,-220.5"/>
<text text-anchor="middle" x="810" y="-226.5" font-family="Helvetica,sans-Serif" font-size="10.00" fill="#000000">Ioss_ParallelUtils.h</text>
</a>
</g>
</g>
<!-- Node12&#45;&gt;Node18 -->
<g id="edge26" class="edge">
<title>Node12&#45;&gt;Node18</title>
<path fill="none" stroke="#191970" d="M1211.0355,-279.3298C1137.9128,-271.7504 998.7619,-256.7282 870.8039,-239.2054"/>
<polygon fill="#191970" stroke="#191970" points="871.2115,-235.7286 860.8273,-237.8309 870.256,-242.6631 871.2115,-235.7286"/>
</g>
<!-- Node12&#45;&gt;Node26 -->
<g id="edge48" class="edge">
<title>Node12&#45;&gt;Node26</title>
<path fill="none" stroke="#191970" d="M1312.8134,-280.2351C1397.7337,-272.9709 1574.1092,-257.3019 1733.3192,-239.161"/>
<polygon fill="#191970" stroke="#191970" points="1733.7591,-242.6336 1743.2959,-238.0184 1732.9625,-235.6791 1733.7591,-242.6336"/>
</g>
<!-- Node12&#45;&gt;Node29 -->
<g id="edge57" class="edge">
<title>Node12&#45;&gt;Node29</title>
<path fill="none" stroke="#191970" d="M1291.3931,-275.4179C1321.3712,-266.155 1368.0477,-251.7325 1401.0795,-241.526"/>
<polygon fill="#191970" stroke="#191970" points="1402.3381,-244.8005 1410.8591,-238.5042 1400.2715,-238.1124 1402.3381,-244.8005"/>
</g>
<!-- Node30 -->
<g id="node31" class="node">
<title>Node30</title>
<g id="a_node31"><a xlink:href="Ioss__SurfaceSplit_8h.html" target="_top" xlink:title="Ioss_SurfaceSplit.h">
<polygon fill="#ffffff" stroke="#000000" points="1131.9214,-220.5 1131.9214,-238.5 1234.0786,-238.5 1234.0786,-220.5 1131.9214,-220.5"/>
<text text-anchor="middle" x="1183" y="-226.5" font-family="Helvetica,sans-Serif" font-size="10.00" fill="#000000">Ioss_SurfaceSplit.h</text>
</a>
</g>
</g>
<!-- Node12&#45;&gt;Node30 -->
<g id="edge58" class="edge">
<title>Node12&#45;&gt;Node30</title>
<path fill="none" stroke="#191970" d="M1248.9548,-275.4179C1236.8331,-266.9788 1218.56,-254.257 1204.3193,-244.3426"/>
<polygon fill="#191970" stroke="#191970" points="1206.2714,-241.4369 1196.0646,-238.5956 1202.2718,-247.1818 1206.2714,-241.4369"/>
</g>
<!-- Node31 -->
<g id="node32" class="node">
<title>Node31</title>
<polygon fill="#ffffff" stroke="#bfbfbf" points="1092.2734,-165.5 1092.2734,-183.5 1127.7266,-183.5 1127.7266,-165.5 1092.2734,-165.5"/>
<text text-anchor="middle" x="1110" y="-171.5" font-family="Helvetica,sans-Serif" font-size="10.00" fill="#000000">map</text>
</g>
<!-- Node12&#45;&gt;Node31 -->
<g id="edge61" class="edge">
<title>Node12&#45;&gt;Node31</title>
<path fill="none" stroke="#191970" d="M1268.2875,-275.1489C1276.5306,-261.606 1288.5507,-236.3675 1276,-220 1238.4754,-171.0636 1201.3415,-200.7766 1142,-184 1140.571,-183.596 1139.1074,-183.1777 1137.6306,-182.752"/>
<polygon fill="#191970" stroke="#191970" points="1138.4966,-179.3587 1127.9161,-179.9086 1136.5302,-186.0768 1138.4966,-179.3587"/>
</g>
<!-- Node16&#45;&gt;Node2 -->
<g id="edge20" class="edge">
<title>Node16&#45;&gt;Node2</title>
<path fill="none" stroke="#191970" d="M969.7997,-110.4179C936.6754,-101.0751 884.9412,-86.4834 848.7051,-76.263"/>
<polygon fill="#191970" stroke="#191970" points="849.4987,-72.8503 838.924,-73.5042 847.5984,-79.5875 849.4987,-72.8503"/>
</g>
<!-- Node16&#45;&gt;Node4 -->
<g id="edge21" class="edge">
<title>Node16&#45;&gt;Node4</title>
<path fill="none" stroke="#191970" d="M987.4772,-110.4672C963.1776,-95.8698 912.28,-67.4721 865,-55 757.1595,-26.5526 411.4133,-13.8798 300.5552,-10.4796"/>
<polygon fill="#191970" stroke="#191970" points="300.3801,-6.9729 290.2794,-10.1706 300.1696,-13.9697 300.3801,-6.9729"/>
</g>
<!-- Node16&#45;&gt;Node5 -->
<g id="edge22" class="edge">
<title>Node16&#45;&gt;Node5</title>
<path fill="none" stroke="#191970" d="M1002,-110.4982C1002,-92.6913 1002,-52.6225 1002,-28.6515"/>
<polygon fill="#191970" stroke="#191970" points="1005.5001,-28.6261 1002,-18.6261 998.5001,-28.6262 1005.5001,-28.6261"/>
</g>
<!-- Node16&#45;&gt;Node6 -->
<g id="edge23" class="edge">
<title>Node16&#45;&gt;Node6</title>
<path fill="none" stroke="#191970" d="M1036.1164,-114.9865C1119.8243,-103.9842 1342.0978,-75.2051 1528,-55 1697.3397,-36.595 1900.7552,-18.7007 1977.0757,-12.1344"/>
<polygon fill="#191970" stroke="#191970" points="1977.7305,-15.5912 1987.3947,-11.2491 1977.1321,-8.6168 1977.7305,-15.5912"/>
</g>
<!-- Node16&#45;&gt;Node7 -->
<g id="edge25" class="edge">
<title>Node16&#45;&gt;Node7</title>
<path fill="none" stroke="#191970" d="M1014.436,-110.4872C1035.2858,-95.9184 1079.1351,-67.561 1121,-55 1214.4012,-26.9762 1515.9059,-14.1046 1615.0627,-10.5567"/>
<polygon fill="#191970" stroke="#191970" points="1615.4681,-14.0448 1625.3394,-10.1967 1615.223,-7.049 1615.4681,-14.0448"/>
</g>
<!-- Node16&#45;&gt;Node17 -->
<g id="edge24" class="edge">
<title>Node16&#45;&gt;Node17</title>
<path fill="none" stroke="#191970" d="M1026.2741,-110.4179C1051.9843,-100.7984 1092.5671,-85.6144 1119.9568,-75.3665"/>
<polygon fill="#191970" stroke="#191970" points="1121.2594,-78.6162 1129.3988,-71.8338 1118.8064,-72.06 1121.2594,-78.6162"/>
</g>
<!-- Node18&#45;&gt;Node2 -->
<g id="edge27" class="edge">
<title>Node18&#45;&gt;Node2</title>
<path fill="none" stroke="#191970" d="M799.4931,-220.2334C790.7775,-211.7902 779.029,-198.4612 774,-184 763.1971,-152.9359 763.8498,-141.2834 774,-110 777.4422,-99.3911 784.3888,-89.1855 791.0245,-81.1379"/>
<polygon fill="#191970" stroke="#191970" points="793.6775,-83.4211 797.667,-73.606 788.4275,-78.791 793.6775,-83.4211"/>
</g>
<!-- Node18&#45;&gt;Node4 -->
<g id="edge45" class="edge">
<title>Node18&#45;&gt;Node4</title>
<path fill="none" stroke="#191970" d="M759.3446,-227.2154C625.0726,-220.9165 269.0867,-202.5366 252,-184 212.0662,-140.6774 240.643,-62.8987 256.8681,-27.6939"/>
<polygon fill="#191970" stroke="#191970" points="260.067,-29.1174 261.2341,-18.5871 253.7549,-26.0912 260.067,-29.1174"/>
</g>
<!-- Node18&#45;&gt;Node6 -->
<g id="edge46" class="edge">
<title>Node18&#45;&gt;Node6</title>
<path fill="none" stroke="#191970" d="M860.8071,-221.0082C863.5751,-220.6427 866.3196,-220.3032 869,-220 1111.5342,-192.569 1176.6826,-226.6948 1417,-184 1587.5914,-153.6928 1624.848,-123.1271 1791,-74 1857.7106,-54.2753 1935.9082,-30.9924 1977.8179,-18.5009"/>
<polygon fill="#191970" stroke="#191970" points="1979.0787,-21.7773 1987.662,-15.5663 1977.0789,-15.0691 1979.0787,-21.7773"/>
</g>
<!-- Node18&#45;&gt;Node7 -->
<g id="edge47" class="edge">
<title>Node18&#45;&gt;Node7</title>
<path fill="none" stroke="#191970" d="M860.8113,-221.0444C863.5782,-220.6696 866.3213,-220.3181 869,-220 1152.1158,-186.3763 1251.8065,-261.9796 1504,-129 1556.423,-101.3578 1607.0392,-52.0912 1631.5945,-26.2984"/>
<polygon fill="#191970" stroke="#191970" points="1634.3331,-28.4947 1638.6205,-18.8061 1629.227,-23.7064 1634.3331,-28.4947"/>
</g>
<!-- Node19 -->
<g id="node20" class="node">
<title>Node19</title>
<g id="a_node20"><a xlink:href="Ioss__Utils_8h.html" target="_top" xlink:title="Ioss_Utils.h">
<polygon fill="#ffffff" stroke="#000000" points="1260.1577,-165.5 1260.1577,-183.5 1327.8423,-183.5 1327.8423,-165.5 1260.1577,-165.5"/>
<text text-anchor="middle" x="1294" y="-171.5" font-family="Helvetica,sans-Serif" font-size="10.00" fill="#000000">Ioss_Utils.h</text>
</a>
</g>
</g>
<!-- Node18&#45;&gt;Node19 -->
<g id="edge28" class="edge">
<title>Node18&#45;&gt;Node19</title>
<path fill="none" stroke="#191970" d="M860.8235,-221.1413C863.5873,-220.7415 866.3264,-220.3581 869,-220 1007.5594,-201.4411 1172.3436,-185.5568 1249.7195,-178.4612"/>
<polygon fill="#191970" stroke="#191970" points="1250.4051,-181.9132 1260.0457,-177.5189 1249.769,-174.9422 1250.4051,-181.9132"/>
</g>
<!-- Node18&#45;&gt;Node22 -->
<g id="edge44" class="edge">
<title>Node18&#45;&gt;Node22</title>
<path fill="none" stroke="#191970" d="M791.5055,-220.4982C751.9406,-201.241 658.8836,-155.9478 612.0145,-133.1354"/>
<polygon fill="#191970" stroke="#191970" points="613.2733,-129.8556 602.7501,-128.6261 610.2098,-136.1496 613.2733,-129.8556"/>
</g>
<!-- Node19&#45;&gt;Node2 -->
<g id="edge29" class="edge">
<title>Node19&#45;&gt;Node2</title>
<path fill="none" stroke="#191970" d="M1259.9651,-167.4556C1255.2825,-166.5767 1250.5286,-165.7312 1246,-165 1119.0887,-144.5077 1082.8831,-163.3422 959,-129 938.8657,-123.4185 935.1972,-118.2469 916,-110 890.0213,-98.8398 860.4067,-86.5021 838.6092,-77.4929"/>
<polygon fill="#191970" stroke="#191970" points="839.7643,-74.1833 829.1853,-73.6039 837.094,-80.654 839.7643,-74.1833"/>
</g>
<!-- Node19&#45;&gt;Node4 -->
<g id="edge37" class="edge">
<title>Node19&#45;&gt;Node4</title>
<path fill="none" stroke="#191970" d="M1260.0205,-171.1241C1193.7031,-164.3776 1042.4494,-148.2151 916,-129 679.5577,-93.0706 397.2365,-36.429 300.4903,-16.6217"/>
<polygon fill="#191970" stroke="#191970" points="300.904,-13.1338 290.4046,-14.5525 299.4971,-19.9909 300.904,-13.1338"/>
</g>
<!-- Node19&#45;&gt;Node5 -->
<g id="edge38" class="edge">
<title>Node19&#45;&gt;Node5</title>
<path fill="none" stroke="#191970" d="M1328.1366,-172.8385C1385.8839,-168.7747 1493.2108,-155.0819 1457,-110 1403.647,-43.5764 1130.068,-18.4216 1034.7776,-11.5919"/>
<polygon fill="#191970" stroke="#191970" points="1034.7963,-8.0848 1024.5775,-10.8826 1034.3106,-15.068 1034.7963,-8.0848"/>
</g>
<!-- Node19&#45;&gt;Node6 -->
<g id="edge42" class="edge">
<title>Node19&#45;&gt;Node6</title>
<path fill="none" stroke="#191970" d="M1327.8701,-167.3731C1369.4163,-158.5822 1441.9724,-143.0717 1504,-129 1683.6608,-88.2417 1898.5366,-36.1892 1977.2106,-17.0205"/>
<polygon fill="#191970" stroke="#191970" points="1978.5038,-20.3078 1987.3901,-14.5386 1976.8456,-13.507 1978.5038,-20.3078"/>
</g>
<!-- Node19&#45;&gt;Node7 -->
<g id="edge43" class="edge">
<title>Node19&#45;&gt;Node7</title>
<path fill="none" stroke="#191970" d="M1328.1411,-169.8288C1365.3453,-163.8498 1425.9734,-151.47 1474,-129 1524.7293,-105.2655 1529.7366,-86.5671 1576,-55 1591.6741,-44.305 1609.6762,-32.7767 1623.6313,-24.0002"/>
<polygon fill="#191970" stroke="#191970" points="1625.5329,-26.9391 1632.1523,-18.6666 1621.8188,-21.0056 1625.5329,-26.9391"/>
</g>
<!-- Node19&#45;&gt;Node20 -->
<g id="edge30" class="edge">
<title>Node19&#45;&gt;Node20</title>
<path fill="none" stroke="#191970" d="M1266.4233,-165.4179C1238.4191,-156.1949 1194.8831,-141.8567 1163.9168,-131.6582"/>
<polygon fill="#191970" stroke="#191970" points="1164.9331,-128.3081 1154.3401,-128.5042 1162.7433,-134.9568 1164.9331,-128.3081"/>
</g>
<!-- Node21 -->
<g id="node22" class="node">
<title>Node21</title>
<polygon fill="#ffffff" stroke="#bfbfbf" points="1256.436,-110.5 1256.436,-128.5 1313.564,-128.5 1313.564,-110.5 1256.436,-110.5"/>
<text text-anchor="middle" x="1285" y="-116.5" font-family="Helvetica,sans-Serif" font-size="10.00" fill="#000000">algorithm</text>
</g>
<!-- Node19&#45;&gt;Node21 -->
<g id="edge35" class="edge">
<title>Node19&#45;&gt;Node21</title>
<path fill="none" stroke="#191970" d="M1292.5138,-165.4179C1291.3354,-158.2164 1289.6466,-147.8962 1288.1685,-138.8632"/>
<polygon fill="#191970" stroke="#191970" points="1291.5875,-138.083 1286.5185,-128.7795 1284.6794,-139.2134 1291.5875,-138.083"/>
</g>
<!-- Node19&#45;&gt;Node22 -->
<g id="edge36" class="edge">
<title>Node19&#45;&gt;Node22</title>
<path fill="none" stroke="#191970" d="M1259.7552,-171.8472C1139.6972,-162.547 738.6574,-131.4805 618.3834,-122.1635"/>
<polygon fill="#191970" stroke="#191970" points="618.5165,-118.6634 608.2761,-121.3805 617.9759,-125.6425 618.5165,-118.6634"/>
</g>
<!-- Node23 -->
<g id="node24" class="node">
<title>Node23</title>
<polygon fill="#ffffff" stroke="#bfbfbf" points="1331.8276,-110.5 1331.8276,-128.5 1376.1724,-128.5 1376.1724,-110.5 1331.8276,-110.5"/>
<text text-anchor="middle" x="1354" y="-116.5" font-family="Helvetica,sans-Serif" font-size="10.00" fill="#000000">cstdlib</text>
</g>
<!-- Node19&#45;&gt;Node23 -->
<g id="edge39" class="edge">
<title>Node19&#45;&gt;Node23</title>
<path fill="none" stroke="#191970" d="M1303.9078,-165.4179C1312.7136,-157.3458 1325.7939,-145.3556 1336.38,-135.6517"/>
<polygon fill="#191970" stroke="#191970" points="1338.8704,-138.1168 1343.877,-128.7795 1334.1403,-132.9567 1338.8704,-138.1168"/>
</g>
<!-- Node24 -->
<g id="node25" class="node">
<title>Node24</title>
<polygon fill="#ffffff" stroke="#bfbfbf" points="1393.8276,-110.5 1393.8276,-128.5 1448.1724,-128.5 1448.1724,-110.5 1393.8276,-110.5"/>
<text text-anchor="middle" x="1421" y="-116.5" font-family="Helvetica,sans-Serif" font-size="10.00" fill="#000000">iostream</text>
</g>
<!-- Node19&#45;&gt;Node24 -->
<g id="edge40" class="edge">
<title>Node19&#45;&gt;Node24</title>
<path fill="none" stroke="#191970" d="M1314.9715,-165.4179C1335.5611,-156.5011 1367.1911,-142.803 1390.5494,-132.6873"/>
<polygon fill="#191970" stroke="#191970" points="1392.2119,-135.7815 1399.9974,-128.5956 1389.43,-129.358 1392.2119,-135.7815"/>
</g>
<!-- Node25 -->
<g id="node26" class="node">
<title>Node25</title>
<polygon fill="#ffffff" stroke="#bfbfbf" points="1179.5986,-110.5 1179.5986,-128.5 1238.4014,-128.5 1238.4014,-110.5 1179.5986,-110.5"/>
<text text-anchor="middle" x="1209" y="-116.5" font-family="Helvetica,sans-Serif" font-size="10.00" fill="#000000">stdexcept</text>
</g>
<!-- Node19&#45;&gt;Node25 -->
<g id="edge41" class="edge">
<title>Node19&#45;&gt;Node25</title>
<path fill="none" stroke="#191970" d="M1279.964,-165.4179C1266.7987,-156.8992 1246.8892,-144.0166 1231.506,-134.0627"/>
<polygon fill="#191970" stroke="#191970" points="1233.354,-131.0897 1223.0569,-128.5956 1229.5512,-136.9667 1233.354,-131.0897"/>
</g>
<!-- Node20&#45;&gt;Node2 -->
<g id="edge31" class="edge">
<title>Node20&#45;&gt;Node2</title>
<path fill="none" stroke="#191970" d="M1091.839,-113.4567C1037.5568,-104.1269 932.7087,-86.1062 866.4806,-74.7232"/>
<polygon fill="#191970" stroke="#191970" points="867.047,-71.2693 856.5986,-73.0248 865.8612,-78.1682 867.047,-71.2693"/>
</g>
<!-- Node20&#45;&gt;Node4 -->
<g id="edge32" class="edge">
<title>Node20&#45;&gt;Node4</title>
<path fill="none" stroke="#191970" d="M1142.5936,-110.4916C1163.0702,-97.5883 1194.4803,-73.3752 1177,-55 1161.5972,-38.8087 464.6732,-15.7832 300.4162,-10.5747"/>
<polygon fill="#191970" stroke="#191970" points="300.4857,-7.0753 290.3801,-10.2577 300.2646,-14.0718 300.4857,-7.0753"/>
</g>
<!-- Node20&#45;&gt;Node6 -->
<g id="edge33" class="edge">
<title>Node20&#45;&gt;Node6</title>
<path fill="none" stroke="#191970" d="M1161.998,-111.5732C1165.0347,-110.998 1168.0667,-110.4631 1171,-110 1328.5206,-85.133 1369.7983,-94.0833 1528,-74 1583.3104,-66.9785 1596.7879,-62.757 1652,-55 1772.1984,-38.1127 1915.6074,-20.5796 1977.3021,-13.1621"/>
<polygon fill="#191970" stroke="#191970" points="1977.9965,-16.6039 1987.5084,-11.9377 1977.1627,-9.6538 1977.9965,-16.6039"/>
</g>
<!-- Node20&#45;&gt;Node7 -->
<g id="edge34" class="edge">
<title>Node20&#45;&gt;Node7</title>
<path fill="none" stroke="#191970" d="M1162.0613,-111.9148C1165.0843,-111.2654 1168.0958,-110.6201 1171,-110 1338.2433,-74.2901 1538.7001,-32.199 1615.2108,-16.1595"/>
<polygon fill="#191970" stroke="#191970" points="1616.0985,-19.5495 1625.1678,-14.0725 1614.6625,-12.6984 1616.0985,-19.5495"/>
</g>
<!-- Node26&#45;&gt;Node2 -->
<g id="edge49" class="edge">
<title>Node26&#45;&gt;Node2</title>
<path fill="none" stroke="#191970" d="M1743.3039,-220.9078C1740.4992,-220.5875 1737.7213,-220.283 1735,-220 1520.4518,-197.6868 1462.8048,-224.8353 1251,-184 1223.534,-178.7047 1218.3128,-171.036 1191,-165 1068.9177,-138.0203 1029.8878,-170.6469 912,-129 879.4923,-117.5158 846.3033,-94.9307 826.1727,-79.7716"/>
<polygon fill="#191970" stroke="#191970" points="828.198,-76.9139 818.1382,-73.5897 823.9294,-82.4617 828.198,-76.9139"/>
</g>
<!-- Node26&#45;&gt;Node4 -->
<g id="edge53" class="edge">
<title>Node26&#45;&gt;Node4</title>
<path fill="none" stroke="#191970" d="M1743.3192,-220.7413C1740.5104,-220.4661 1737.7274,-220.2166 1735,-220 1656.7764,-213.7876 385.9272,-230.8797 323,-184 297.5361,-165.0298 277.1784,-69.8661 269.4058,-28.6177"/>
<polygon fill="#191970" stroke="#191970" points="272.8006,-27.7256 267.5535,-18.5213 265.9156,-28.9888 272.8006,-27.7256"/>
</g>
<!-- Node26&#45;&gt;Node6 -->
<g id="edge54" class="edge">
<title>Node26&#45;&gt;Node6</title>
<path fill="none" stroke="#191970" d="M1863.2967,-220.4102C1914.7727,-208.875 1987.4166,-183.4711 2022,-129 2041.691,-97.9854 2027.7183,-53.1833 2017.0428,-28.1766"/>
<polygon fill="#191970" stroke="#191970" points="2020.0945,-26.4313 2012.7772,-18.7693 2013.7193,-29.3221 2020.0945,-26.4313"/>
</g>
<!-- Node26&#45;&gt;Node7 -->
<g id="edge56" class="edge">
<title>Node26&#45;&gt;Node7</title>
<path fill="none" stroke="#191970" d="M1839.8524,-220.4293C1858.1366,-213.6141 1879.1366,-202.2391 1890,-184 1905.1995,-158.4808 1868.135,-119.0215 1861,-110 1837.9431,-80.8468 1830.5259,-72.9887 1798,-55 1759.6837,-33.8088 1710.3126,-21.3376 1678.6511,-14.9614"/>
<polygon fill="#191970" stroke="#191970" points="1679.1162,-11.4867 1668.6343,-13.029 1677.7902,-18.36 1679.1162,-11.4867"/>
</g>
<!-- Node26&#45;&gt;Node27 -->
<g id="edge50" class="edge">
<title>Node26&#45;&gt;Node27</title>
<path fill="none" stroke="#191970" d="M1863.2395,-220.4795C1929.5962,-210.0221 2038.058,-192.9293 2102.3818,-182.7923"/>
<polygon fill="#191970" stroke="#191970" points="2102.98,-186.2413 2112.3132,-181.2271 2101.8902,-179.3266 2102.98,-186.2413"/>
</g>
<!-- Node28 -->
<g id="node29" class="node">
<title>Node28</title>
<polygon fill="#ffffff" stroke="#bfbfbf" points="1779.6973,-165.5 1779.6973,-183.5 1866.3027,-183.5 1866.3027,-165.5 1779.6973,-165.5"/>
<text text-anchor="middle" x="1823" y="-171.5" font-family="Helvetica,sans-Serif" font-size="10.00" fill="#000000">unordered_map</text>
</g>
<!-- Node26&#45;&gt;Node28 -->
<g id="edge55" class="edge">
<title>Node26&#45;&gt;Node28</title>
<path fill="none" stroke="#191970" d="M1808.8072,-220.4179C1811.0576,-213.1372 1814.2932,-202.669 1817.1069,-193.5659"/>
<polygon fill="#191970" stroke="#191970" points="1820.5226,-194.3671 1820.1318,-183.7795 1813.8348,-192.2999 1820.5226,-194.3671"/>
</g>
<!-- Node27&#45;&gt;Node5 -->
<g id="edge51" class="edge">
<title>Node27&#45;&gt;Node5</title>
<path fill="none" stroke="#191970" d="M2112.1424,-167.2817C1995.6662,-147.7854 1663.4265,-92.9789 1386,-55 1256.2094,-37.232 1101.17,-20.1146 1034.7859,-12.9797"/>
<polygon fill="#191970" stroke="#191970" points="1034.8589,-9.4675 1024.543,-11.8825 1034.1133,-16.4277 1034.8589,-9.4675"/>
</g>
<!-- Node27&#45;&gt;Node6 -->
<g id="edge52" class="edge">
<title>Node27&#45;&gt;Node6</title>
<path fill="none" stroke="#191970" d="M2152.7932,-165.2245C2147.18,-143.4124 2130.4519,-88.2075 2098,-55 2081.4314,-38.0456 2057.2129,-26.2976 2038.0713,-18.9914"/>
<polygon fill="#191970" stroke="#191970" points="2039.1861,-15.6729 2028.5918,-15.5716 2036.8106,-22.2575 2039.1861,-15.6729"/>
</g>
<!-- Node32&#45;&gt;Node2 -->
<g id="edge68" class="edge">
<title>Node32&#45;&gt;Node2</title>
<path fill="none" stroke="#191970" d="M1493.3916,-221.0593C1490.5557,-220.6855 1487.7456,-220.3296 1485,-220 1335.1596,-202.0099 911.9611,-242.0645 812,-129 801.3165,-116.916 801.0458,-98.092 802.8674,-83.8927"/>
<polygon fill="#191970" stroke="#191970" points="806.3724,-84.1622 804.6179,-73.7137 799.4736,-82.9758 806.3724,-84.1622"/>
</g>
<!-- Node32&#45;&gt;Node4 -->
<g id="edge71" class="edge">
<title>Node32&#45;&gt;Node4</title>
<path fill="none" stroke="#191970" d="M1493.4125,-220.8605C1490.5711,-220.5386 1487.7541,-220.2482 1485,-220 1418.8492,-214.0376 339.3999,-228.3975 290,-184 246.0801,-144.5275 254.7627,-65.3177 261.6806,-28.7773"/>
<polygon fill="#191970" stroke="#191970" points="265.2044,-29.018 263.7957,-18.5173 258.3486,-27.6046 265.2044,-29.018"/>
</g>
<!-- Node32&#45;&gt;Node6 -->
<g id="edge73" class="edge">
<title>Node32&#45;&gt;Node6</title>
<path fill="none" stroke="#191970" d="M1557.3126,-220.096C1571.7895,-206.015 1601.1455,-179.5551 1631,-165 1689.9103,-136.2792 1711.7484,-149.495 1774,-129 1835.1482,-108.8682 1850.9327,-103.7945 1908,-74 1936.5861,-59.0753 1967.4904,-38.371 1987.258,-24.4839"/>
<polygon fill="#191970" stroke="#191970" points="1989.3793,-27.2703 1995.5084,-18.6283 1985.3278,-21.5619 1989.3793,-27.2703"/>
</g>
<!-- Node32&#45;&gt;Node7 -->
<g id="edge75" class="edge">
<title>Node32&#45;&gt;Node7</title>
<path fill="none" stroke="#191970" d="M1552.4244,-220.3902C1559.8058,-206.2057 1576.0193,-179.0176 1598,-165 1658.7248,-126.2746 1711.0845,-185.3006 1756,-129 1788.1546,-88.695 1718.111,-44.732 1675.9289,-23.0925"/>
<polygon fill="#191970" stroke="#191970" points="1677.4025,-19.9162 1666.8926,-18.577 1674.2734,-26.178 1677.4025,-19.9162"/>
</g>
<!-- Node32&#45;&gt;Node19 -->
<g id="edge70" class="edge">
<title>Node32&#45;&gt;Node19</title>
<path fill="none" stroke="#191970" d="M1506.3415,-220.4795C1459.9252,-210.4287 1385.2017,-194.2484 1337.8978,-184.0054"/>
<polygon fill="#191970" stroke="#191970" points="1338.4641,-180.547 1327.9499,-181.8514 1336.9826,-187.3885 1338.4641,-180.547"/>
</g>
<!-- Node32&#45;&gt;Node20 -->
<g id="edge69" class="edge">
<title>Node32&#45;&gt;Node20</title>
<path fill="none" stroke="#191970" d="M1493.4866,-221.2621C1408.5256,-208.4075 1253.8743,-184.9392 1251,-184 1213.5326,-171.7568 1173.6883,-149.0819 1149.5686,-134.1429"/>
<polygon fill="#191970" stroke="#191970" points="1151.1642,-131.0116 1140.837,-128.6452 1147.4345,-136.9352 1151.1642,-131.0116"/>
</g>
<!-- Node32&#45;&gt;Node28 -->
<g id="edge74" class="edge">
<title>Node32&#45;&gt;Node28</title>
<path fill="none" stroke="#191970" d="M1593.1027,-220.4795C1641.5299,-210.794 1718.4169,-195.4166 1769.7731,-185.1454"/>
<polygon fill="#191970" stroke="#191970" points="1770.5685,-188.5557 1779.6879,-183.1624 1769.1957,-181.6916 1770.5685,-188.5557"/>
</g>
<!-- Node33 -->
<g id="node34" class="node">
<title>Node33</title>
<polygon fill="#ffffff" stroke="#bfbfbf" points="1639.5962,-165.5 1639.5962,-183.5 1698.4038,-183.5 1698.4038,-165.5 1639.5962,-165.5"/>
<text text-anchor="middle" x="1669" y="-171.5" font-family="Helvetica,sans-Serif" font-size="10.00" fill="#000000">functional</text>
</g>
<!-- Node32&#45;&gt;Node33 -->
<g id="edge72" class="edge">
<title>Node32&#45;&gt;Node33</title>
<path fill="none" stroke="#191970" d="M1567.9807,-220.4179C1587.51,-211.5409 1617.4644,-197.9253 1639.6895,-187.823"/>
<polygon fill="#191970" stroke="#191970" points="1641.3343,-190.92 1648.9896,-183.5956 1638.4376,-184.5474 1641.3343,-190.92"/>
</g>
<!-- Node34&#45;&gt;Node2 -->
<g id="edge80" class="edge">
<title>Node34&#45;&gt;Node2</title>
<path fill="none" stroke="#191970" d="M1619.9294,-221.1515C1616.9109,-220.7442 1613.9184,-220.3569 1611,-220 1436.8992,-198.7075 1391.1331,-212.0956 1218,-184 1181.5003,-178.0769 1173.3956,-171.5324 1137,-165 1010.4668,-142.2893 959.341,-196.6089 850,-129 832.8871,-118.4186 821.0969,-98.199 814.2488,-83.207"/>
<polygon fill="#191970" stroke="#191970" points="817.4094,-81.6945 810.2927,-73.8458 810.9616,-84.4195 817.4094,-81.6945"/>
</g>
<!-- Node34&#45;&gt;Node6 -->
<g id="edge84" class="edge">
<title>Node34&#45;&gt;Node6</title>
<path fill="none" stroke="#191970" d="M1725.9445,-220.5413C1785.7191,-210.0927 1876.4594,-193.0946 1890,-184 1949.1318,-144.2839 1986.5911,-63.99 2001.1267,-27.8547"/>
<polygon fill="#191970" stroke="#191970" points="2004.3921,-29.1144 2004.7599,-18.526 1997.8693,-26.574 2004.3921,-29.1144"/>
</g>
<!-- Node34&#45;&gt;Node7 -->
<g id="edge85" class="edge">
<title>Node34&#45;&gt;Node7</title>
<path fill="none" stroke="#191970" d="M1726.1238,-221.0326C1782.769,-211.4649 1865.6398,-195.7031 1875,-184 1880.2744,-177.4054 1877.7506,-172.9839 1875,-165 1845.3222,-78.8556 1733.9264,-34.8883 1678.5935,-17.9713"/>
<polygon fill="#191970" stroke="#191970" points="1679.5282,-14.598 1668.9464,-15.1232 1677.5462,-21.3115 1679.5282,-14.598"/>
</g>
<!-- Node34&#45;&gt;Node31 -->
<g id="edge83" class="edge">
<title>Node34&#45;&gt;Node31</title>
<path fill="none" stroke="#191970" d="M1619.9355,-221.0999C1616.9155,-220.7057 1613.921,-220.3354 1611,-220 1403.3071,-196.1513 1347.5821,-221.9617 1142,-184 1140.5397,-183.7303 1139.0511,-183.4195 1137.5545,-183.0784"/>
<polygon fill="#191970" stroke="#191970" points="1138.3388,-179.6657 1127.7772,-180.5044 1136.5566,-186.435 1138.3388,-179.6657"/>
</g>
<!-- Node34&#45;&gt;Node33 -->
<g id="edge82" class="edge">
<title>Node34&#45;&gt;Node33</title>
<path fill="none" stroke="#191970" d="M1672.3395,-220.4179C1671.8157,-213.2164 1671.0652,-202.8962 1670.4082,-193.8632"/>
<polygon fill="#191970" stroke="#191970" points="1673.8911,-193.4992 1669.6749,-183.7795 1666.9095,-194.007 1673.8911,-193.4992"/>
</g>
<!-- Node35 -->
<g id="node36" class="node">
<title>Node35</title>
<polygon fill="#ffffff" stroke="#bfbfbf" points="1716.2734,-165.5 1716.2734,-183.5 1761.7266,-183.5 1761.7266,-165.5 1716.2734,-165.5"/>
<text text-anchor="middle" x="1739" y="-171.5" font-family="Helvetica,sans-Serif" font-size="10.00" fill="#000000">cstring</text>
</g>
<!-- Node34&#45;&gt;Node35 -->
<g id="edge81" class="edge">
<title>Node34&#45;&gt;Node35</title>
<path fill="none" stroke="#191970" d="M1683.8986,-220.4179C1693.6799,-212.2667 1708.2558,-200.1201 1719.9597,-190.3669"/>
<polygon fill="#191970" stroke="#191970" points="1722.4231,-192.8701 1727.8647,-183.7795 1717.9418,-187.4926 1722.4231,-192.8701"/>
</g>
<!-- Node36&#45;&gt;Node4 -->
<g id="edge97" class="edge">
<title>Node36&#45;&gt;Node4</title>
<path fill="none" stroke="#191970" d="M1922.6299,-448.5961C1694.9176,-444.2458 735.2621,-424.8179 603,-404 422.7259,-375.6251 360.216,-363.7293 227,-239 166.5159,-182.3691 150.7216,-123.7291 197,-55 206.1815,-41.3643 220.9637,-30.8207 234.4951,-23.3326"/>
<polygon fill="#191970" stroke="#191970" points="236.3033,-26.3378 243.5789,-18.6361 233.0885,-20.1197 236.3033,-26.3378"/>
</g>
<!-- Node36&#45;&gt;Node5 -->
<g id="edge98" class="edge">
<title>Node36&#45;&gt;Node5</title>
<path fill="none" stroke="#191970" d="M1922.2948,-448.6663C1658.7308,-443.8431 415,-416.9779 415,-339.5 415,-339.5 415,-339.5 415,-284.5 415,-254.6154 418.3454,-245.4562 434,-220 443.347,-204.8008 535.586,-118.9884 551,-110 622.1618,-68.5034 647.8474,-74.0139 728,-55 814.073,-34.5816 917.4908,-20.0618 969.194,-13.4719"/>
<polygon fill="#191970" stroke="#191970" points="969.9318,-16.9068 979.4171,-12.1868 969.0587,-9.9615 969.9318,-16.9068"/>
</g>
<!-- Node36&#45;&gt;Node6 -->
<g id="edge99" class="edge">
<title>Node36&#45;&gt;Node6</title>
<path fill="none" stroke="#191970" d="M2019.5146,-444.5953C2081.4294,-437.6475 2184.4237,-423.5719 2217,-404 2275.1596,-369.0576 2312,-352.3491 2312,-284.5 2312,-284.5 2312,-284.5 2312,-119.5 2312,-70.2884 2267.0212,-74.8714 2222,-55 2160.174,-27.7114 2080.9175,-16.3762 2038.3233,-12.0004"/>
<polygon fill="#191970" stroke="#191970" points="2038.6077,-8.5116 2028.3171,-11.0323 2037.9336,-15.4791 2038.6077,-8.5116"/>
</g>
<!-- Node36&#45;&gt;Node10 -->
<g id="edge96" class="edge">
<title>Node36&#45;&gt;Node10</title>
<path fill="none" stroke="#191970" d="M2002.0444,-440.4179C2033.8431,-431.115 2083.4307,-416.608 2118.3433,-406.3943"/>
<polygon fill="#191970" stroke="#191970" points="2119.607,-409.6713 2128.222,-403.5042 2117.6415,-402.9529 2119.607,-409.6713"/>
</g>
<!-- Node36&#45;&gt;Node15 -->
<g id="edge94" class="edge">
<title>Node36&#45;&gt;Node15</title>
<path fill="none" stroke="#191970" d="M1971,-440.327C1971,-407.3409 1971,-294.2972 1971,-248.7484"/>
<polygon fill="#191970" stroke="#191970" points="1974.5001,-248.7122 1971,-238.7122 1967.5001,-248.7122 1974.5001,-248.7122"/>
</g>
<!-- Node36&#45;&gt;Node27 -->
<g id="edge95" class="edge">
<title>Node36&#45;&gt;Node27</title>
<path fill="none" stroke="#191970" d="M1978.0919,-440.2227C1996.2141,-416.3971 2045.4388,-350.9289 2083,-294 2106.2268,-258.7968 2131.167,-216.1969 2144.7441,-192.5489"/>
<polygon fill="#191970" stroke="#191970" points="2147.9061,-194.07 2149.8291,-183.6511 2141.8285,-190.5967 2147.9061,-194.07"/>
</g>
<!-- Node37&#45;&gt;Node2 -->
<g id="edge102" class="edge">
<title>Node37&#45;&gt;Node2</title>
<path fill="none" stroke="#191970" d="M401.7508,-165.1378C414.3761,-150.6074 440.9116,-122.954 470,-110 518.3423,-88.4715 664.242,-74.7821 747.3563,-68.51"/>
<polygon fill="#191970" stroke="#191970" points="747.7031,-71.994 757.4168,-67.7639 747.1853,-65.0132 747.7031,-71.994"/>
</g>
<!-- Node37&#45;&gt;Node3 -->
<g id="edge103" class="edge">
<title>Node37&#45;&gt;Node3</title>
<path fill="none" stroke="#191970" d="M374.3528,-165.3939C314.9073,-137.8419 136.7637,-55.2753 66.7278,-22.8148"/>
<polygon fill="#191970" stroke="#191970" points="68.1312,-19.6077 57.5865,-18.578 65.1875,-25.9587 68.1312,-19.6077"/>
</g>
<!-- Node37&#45;&gt;Node6 -->
<g id="edge105" class="edge">
<title>Node37&#45;&gt;Node6</title>
<path fill="none" stroke="#191970" d="M456.3954,-173.6196C653.6491,-170.5547 1262.2054,-158.8645 1457,-129 1489.2886,-124.0497 1496.4319,-118.3975 1528,-110 1620.408,-85.4182 1642.5216,-75.132 1736,-55 1822.9932,-36.2646 1927.0424,-20.7504 1977.5263,-13.6556"/>
<polygon fill="#191970" stroke="#191970" points="1978.3246,-17.0783 1987.746,-12.2319 1977.3587,-10.1452 1978.3246,-17.0783"/>
</g>
<!-- Node37&#45;&gt;Node22 -->
<g id="edge104" class="edge">
<title>Node37&#45;&gt;Node22</title>
<path fill="none" stroke="#191970" d="M425.3746,-165.4179C459.7181,-155.4763 514.593,-139.5915 549.9579,-129.3543"/>
<polygon fill="#191970" stroke="#191970" points="551.1894,-132.6416 559.8219,-126.4989 549.243,-125.9176 551.1894,-132.6416"/>
</g>
</g>
</svg>
