<?xml version="1.0" encoding="UTF-8" standalone="no"?>
<!DOCTYPE svg PUBLIC "-//W3C//DTD SVG 1.1//EN"
 "http://www.w3.org/Graphics/SVG/1.1/DTD/svg11.dtd">
<!-- Generated by graphviz version 2.40.1 (20161225.0304)
 -->
<!-- Title: src/Ioss_Property.C Pages: 1 -->
<svg width="2263pt" height="412pt"
 viewBox="0.00 0.00 2263.06 412.00" xmlns="http://www.w3.org/2000/svg" xmlns:xlink="http://www.w3.org/1999/xlink">
<g id="graph0" class="graph" transform="scale(1 1) rotate(0) translate(4 408)">
<title>src/Ioss_Property.C</title>
<polygon fill="#ffffff" stroke="transparent" points="-4,4 -4,-408 2259.0615,-408 2259.0615,4 -4,4"/>
<!-- Node0 -->
<g id="node1" class="node">
<title>Node0</title>
<g id="a_node1"><a xlink:title=" ">
<polygon fill="#bfbfbf" stroke="#000000" points="1989.4673,-385.5 1989.4673,-403.5 2092.5327,-403.5 2092.5327,-385.5 1989.4673,-385.5"/>
<text text-anchor="middle" x="2041" y="-391.5" font-family="Helvetica,sans-Serif" font-size="10.00" fill="#000000">src/Ioss_Property.C</text>
</a>
</g>
</g>
<!-- Node1 -->
<g id="node2" class="node">
<title>Node1</title>
<g id="a_node2"><a xlink:href="Ioss__GroupingEntity_8h.html" target="_top" xlink:title=" ">
<polygon fill="#ffffff" stroke="#000000" points="1374.1743,-330.5 1374.1743,-348.5 1487.8257,-348.5 1487.8257,-330.5 1374.1743,-330.5"/>
<text text-anchor="middle" x="1431" y="-336.5" font-family="Helvetica,sans-Serif" font-size="10.00" fill="#000000">Ioss_GroupingEntity.h</text>
</a>
</g>
</g>
<!-- Node0&#45;&gt;Node1 -->
<g id="edge1" class="edge">
<title>Node0&#45;&gt;Node1</title>
<path fill="none" stroke="#191970" d="M1989.2549,-389.8345C1879.0103,-379.8944 1621.0449,-356.6352 1498.2565,-345.5641"/>
<polygon fill="#191970" stroke="#191970" points="1498.5016,-342.0721 1488.2277,-344.6599 1497.873,-349.0438 1498.5016,-342.0721"/>
</g>
<!-- Node4 -->
<g id="node5" class="node">
<title>Node4</title>
<g id="a_node5"><a xlink:title=" ">
<polygon fill="#ffffff" stroke="#bfbfbf" points="260.8794,-.5 260.8794,-18.5 309.1206,-18.5 309.1206,-.5 260.8794,-.5"/>
<text text-anchor="middle" x="285" y="-6.5" font-family="Helvetica,sans-Serif" font-size="10.00" fill="#000000">cstddef</text>
</a>
</g>
</g>
<!-- Node0&#45;&gt;Node4 -->
<g id="edge92" class="edge">
<title>Node0&#45;&gt;Node4</title>
<path fill="none" stroke="#191970" d="M1989.2326,-393.6849C1813.1433,-390.7018 1221.1748,-378.948 733,-349 569.7885,-338.9875 0,-448.0183 0,-284.5 0,-284.5 0,-284.5 0,-119.5 0,-66.3131 174.9369,-28.9466 250.6976,-15.258"/>
<polygon fill="#191970" stroke="#191970" points="251.4656,-18.6765 260.7011,-13.4844 250.2436,-11.7839 251.4656,-18.6765"/>
</g>
<!-- Node6 -->
<g id="node7" class="node">
<title>Node6</title>
<g id="a_node7"><a xlink:title=" ">
<polygon fill="#ffffff" stroke="#bfbfbf" points="1483.7734,-.5 1483.7734,-18.5 1524.2266,-18.5 1524.2266,-.5 1483.7734,-.5"/>
<text text-anchor="middle" x="1504" y="-6.5" font-family="Helvetica,sans-Serif" font-size="10.00" fill="#000000">string</text>
</a>
</g>
</g>
<!-- Node0&#45;&gt;Node6 -->
<g id="edge95" class="edge">
<title>Node0&#45;&gt;Node6</title>
<path fill="none" stroke="#191970" d="M2046.4445,-385.4507C2056.9518,-367.0998 2079,-323.899 2079,-284.5 2079,-284.5 2079,-284.5 2079,-229.5 2079,-135.6272 2040.7141,-102.9304 1960,-55 1923.4839,-33.3157 1630.6575,-16.1508 1534.4834,-11.0515"/>
<polygon fill="#191970" stroke="#191970" points="1534.4356,-7.5442 1524.2661,-10.5161 1534.0692,-14.5346 1534.4356,-7.5442"/>
</g>
<!-- Node18 -->
<g id="node19" class="node">
<title>Node18</title>
<g id="a_node19"><a xlink:href="Ioss__Utils_8h.html" target="_top" xlink:title=" ">
<polygon fill="#ffffff" stroke="#000000" points="592.1577,-165.5 592.1577,-183.5 659.8423,-183.5 659.8423,-165.5 592.1577,-165.5"/>
<text text-anchor="middle" x="626" y="-171.5" font-family="Helvetica,sans-Serif" font-size="10.00" fill="#000000">Ioss_Utils.h</text>
</a>
</g>
</g>
<!-- Node0&#45;&gt;Node18 -->
<g id="edge91" class="edge">
<title>Node0&#45;&gt;Node18</title>
<path fill="none" stroke="#191970" d="M1989.3556,-394.0552C1757.6986,-391.6041 813.4196,-376.635 531,-294 482.3179,-279.7558 456.8161,-282.662 431,-239 426.7021,-231.7311 425.7509,-226.6148 431,-220 449.4473,-196.7528 530.0264,-184.2757 581.6551,-178.5433"/>
<polygon fill="#191970" stroke="#191970" points="582.311,-181.9933 591.8837,-177.4533 581.5691,-175.0328 582.311,-181.9933"/>
</g>
<!-- Node27 -->
<g id="node28" class="node">
<title>Node27</title>
<g id="a_node28"><a xlink:href="Ioss__Property_8h.html" target="_top" xlink:title=" ">
<polygon fill="#ffffff" stroke="#000000" points="1865.3516,-55.5 1865.3516,-73.5 1950.6484,-73.5 1950.6484,-55.5 1865.3516,-55.5"/>
<text text-anchor="middle" x="1908" y="-61.5" font-family="Helvetica,sans-Serif" font-size="10.00" fill="#000000">Ioss_Property.h</text>
</a>
</g>
</g>
<!-- Node0&#45;&gt;Node27 -->
<g id="edge90" class="edge">
<title>Node0&#45;&gt;Node27</title>
<path fill="none" stroke="#191970" d="M2040.4828,-385.2961C2037.9857,-347.8474 2024.5758,-204.4367 1962,-110 1953.9852,-97.9044 1941.8385,-87.2674 1931.0939,-79.3257"/>
<polygon fill="#191970" stroke="#191970" points="1933.078,-76.4422 1922.8832,-73.5581 1929.0543,-82.1702 1933.078,-76.4422"/>
</g>
<!-- Node37 -->
<g id="node38" class="node">
<title>Node37</title>
<g id="a_node38"><a xlink:title=" ">
<polygon fill="#ffffff" stroke="#bfbfbf" points="2107.436,-330.5 2107.436,-348.5 2184.564,-348.5 2184.564,-330.5 2107.436,-330.5"/>
<text text-anchor="middle" x="2146" y="-336.5" font-family="Helvetica,sans-Serif" font-size="10.00" fill="#000000">fmt/ostream.h</text>
</a>
</g>
</g>
<!-- Node0&#45;&gt;Node37 -->
<g id="edge93" class="edge">
<title>Node0&#45;&gt;Node37</title>
<path fill="none" stroke="#191970" d="M2058.3386,-385.4179C2074.9816,-376.7001 2100.3495,-363.4122 2119.5211,-353.3699"/>
<polygon fill="#191970" stroke="#191970" points="2121.4013,-356.3362 2128.6356,-348.5956 2118.1533,-350.1353 2121.4013,-356.3362"/>
</g>
<!-- Node38 -->
<g id="node39" class="node">
<title>Node38</title>
<g id="a_node39"><a xlink:title=" ">
<polygon fill="#ffffff" stroke="#bfbfbf" points="2202.9385,-330.5 2202.9385,-348.5 2255.0615,-348.5 2255.0615,-330.5 2202.9385,-330.5"/>
<text text-anchor="middle" x="2229" y="-336.5" font-family="Helvetica,sans-Serif" font-size="10.00" fill="#000000">ostream</text>
</a>
</g>
</g>
<!-- Node0&#45;&gt;Node38 -->
<g id="edge94" class="edge">
<title>Node0&#45;&gt;Node38</title>
<path fill="none" stroke="#191970" d="M2072.0444,-385.4179C2105.2669,-375.6985 2157.9071,-360.2985 2192.9418,-350.0489"/>
<polygon fill="#191970" stroke="#191970" points="2194.1517,-353.3418 2202.7667,-347.1746 2192.1862,-346.6234 2194.1517,-353.3418"/>
</g>
<!-- Node2 -->
<g id="node3" class="node">
<title>Node2</title>
<g id="a_node3"><a xlink:href="Ioss__CodeTypes_8h.html" target="_top" xlink:title=" ">
<polygon fill="#ffffff" stroke="#000000" points="677.584,-55.5 677.584,-73.5 776.416,-73.5 776.416,-55.5 677.584,-55.5"/>
<text text-anchor="middle" x="727" y="-61.5" font-family="Helvetica,sans-Serif" font-size="10.00" fill="#000000">Ioss_CodeTypes.h</text>
</a>
</g>
</g>
<!-- Node1&#45;&gt;Node2 -->
<g id="edge2" class="edge">
<title>Node1&#45;&gt;Node2</title>
<path fill="none" stroke="#191970" d="M1373.9874,-337.7714C1121.2031,-329.7395 114,-293.7079 114,-229.5 114,-229.5 114,-229.5 114,-174.5 114,-118.6799 512.88,-81.3384 667.1183,-68.9858"/>
<polygon fill="#191970" stroke="#191970" points="667.6629,-72.4537 677.3549,-68.174 667.1095,-65.4756 667.6629,-72.4537"/>
</g>
<!-- Node1&#45;&gt;Node4 -->
<g id="edge86" class="edge">
<title>Node1&#45;&gt;Node4</title>
<path fill="none" stroke="#191970" d="M1373.9784,-338.9916C1174.9433,-336.9376 511.7874,-327.671 302,-294 198.8649,-277.4467 76,-333.9551 76,-229.5 76,-229.5 76,-229.5 76,-119.5 76,-41.5578 191.2314,-18.7159 250.5693,-12.1205"/>
<polygon fill="#191970" stroke="#191970" points="251.021,-15.5927 260.616,-11.0998 250.3134,-8.6286 251.021,-15.5927"/>
</g>
<!-- Node5 -->
<g id="node6" class="node">
<title>Node5</title>
<g id="a_node6"><a xlink:title=" ">
<polygon fill="#ffffff" stroke="#bfbfbf" points="1799.5493,-.5 1799.5493,-18.5 1844.4507,-18.5 1844.4507,-.5 1799.5493,-.5"/>
<text text-anchor="middle" x="1822" y="-6.5" font-family="Helvetica,sans-Serif" font-size="10.00" fill="#000000">cstdint</text>
</a>
</g>
</g>
<!-- Node1&#45;&gt;Node5 -->
<g id="edge87" class="edge">
<title>Node1&#45;&gt;Node5</title>
<path fill="none" stroke="#191970" d="M1488.1915,-338.2571C1618.1323,-334.9206 1927.1323,-323.9015 1963,-294 2044.7096,-225.8819 2040.8348,-139.3385 1976,-55 1961.1901,-35.7349 1895.1397,-21.6087 1854.5014,-14.556"/>
<polygon fill="#191970" stroke="#191970" points="1854.9592,-11.0839 1844.5171,-12.8763 1853.7978,-17.9869 1854.9592,-11.0839"/>
</g>
<!-- Node1&#45;&gt;Node6 -->
<g id="edge88" class="edge">
<title>Node1&#45;&gt;Node6</title>
<path fill="none" stroke="#191970" d="M1488.0193,-334.7241C1575.7808,-326.9796 1739.7163,-310.843 1796,-294 1858.1727,-275.3947 1927,-294.3969 1927,-229.5 1927,-229.5 1927,-229.5 1927,-174.5 1927,-90.1639 1631.4705,-31.5356 1534.4503,-14.5607"/>
<polygon fill="#191970" stroke="#191970" points="1534.8515,-11.0783 1524.4022,-12.8281 1533.662,-17.9765 1534.8515,-11.0783"/>
</g>
<!-- Node7 -->
<g id="node8" class="node">
<title>Node7</title>
<g id="a_node8"><a xlink:title=" ">
<polygon fill="#ffffff" stroke="#bfbfbf" points="1003.3843,-.5 1003.3843,-18.5 1046.6157,-18.5 1046.6157,-.5 1003.3843,-.5"/>
<text text-anchor="middle" x="1025" y="-6.5" font-family="Helvetica,sans-Serif" font-size="10.00" fill="#000000">vector</text>
</a>
</g>
</g>
<!-- Node1&#45;&gt;Node7 -->
<g id="edge89" class="edge">
<title>Node1&#45;&gt;Node7</title>
<path fill="none" stroke="#191970" d="M1374.1478,-334.6977C1225.2174,-321.5463 832.5782,-282.9825 795,-239 789.5146,-232.5798 789.4568,-226.3704 795,-220 871,-132.659 954.4434,-244.754 1053,-184 1084.4725,-164.5991 1101.5913,-145.4223 1091,-110 1081.1474,-77.0483 1056.6374,-44.8818 1040.4189,-26.1398"/>
<polygon fill="#191970" stroke="#191970" points="1042.897,-23.6596 1033.633,-18.5186 1037.669,-28.3146 1042.897,-23.6596"/>
</g>
<!-- Node10 -->
<g id="node11" class="node">
<title>Node10</title>
<g id="a_node11"><a xlink:href="Ioss__DatabaseIO_8h.html" target="_top" xlink:title=" ">
<polygon fill="#ffffff" stroke="#000000" points="1313.1973,-275.5 1313.1973,-293.5 1414.8027,-293.5 1414.8027,-275.5 1313.1973,-275.5"/>
<text text-anchor="middle" x="1364" y="-281.5" font-family="Helvetica,sans-Serif" font-size="10.00" fill="#000000">Ioss_DatabaseIO.h</text>
</a>
</g>
</g>
<!-- Node1&#45;&gt;Node10 -->
<g id="edge10" class="edge">
<title>Node1&#45;&gt;Node10</title>
<path fill="none" stroke="#191970" d="M1419.9363,-330.4179C1410.0067,-322.2667 1395.21,-310.1201 1383.3288,-300.3669"/>
<polygon fill="#191970" stroke="#191970" points="1385.2541,-297.4192 1375.3041,-293.7795 1380.8126,-302.8297 1385.2541,-297.4192"/>
</g>
<!-- Node14 -->
<g id="node15" class="node">
<title>Node14</title>
<g id="a_node15"><a xlink:href="Ioss__EntityType_8h.html" target="_top" xlink:title=" ">
<polygon fill="#ffffff" stroke="#000000" points="1676.5322,-220.5 1676.5322,-238.5 1771.4678,-238.5 1771.4678,-220.5 1676.5322,-220.5"/>
<text text-anchor="middle" x="1724" y="-226.5" font-family="Helvetica,sans-Serif" font-size="10.00" fill="#000000">Ioss_EntityType.h</text>
</a>
</g>
</g>
<!-- Node1&#45;&gt;Node14 -->
<g id="edge64" class="edge">
<title>Node1&#45;&gt;Node14</title>
<path fill="none" stroke="#191970" d="M1454.9774,-330.4982C1507.0229,-310.959 1630.4648,-264.6156 1690.3109,-242.1478"/>
<polygon fill="#191970" stroke="#191970" points="1691.5595,-245.4176 1699.6913,-238.6261 1689.0991,-238.8642 1691.5595,-245.4176"/>
</g>
<!-- Node19 -->
<g id="node20" class="node">
<title>Node19</title>
<g id="a_node20"><a xlink:href="Ioss__Field_8h.html" target="_top" xlink:title=" ">
<polygon fill="#ffffff" stroke="#000000" points="832.042,-110.5 832.042,-128.5 901.958,-128.5 901.958,-110.5 832.042,-110.5"/>
<text text-anchor="middle" x="867" y="-116.5" font-family="Helvetica,sans-Serif" font-size="10.00" fill="#000000">Ioss_Field.h</text>
</a>
</g>
</g>
<!-- Node1&#45;&gt;Node19 -->
<g id="edge65" class="edge">
<title>Node1&#45;&gt;Node19</title>
<path fill="none" stroke="#191970" d="M1374.0517,-337.4547C1212.3,-331.4399 757.6079,-313.0336 693,-294 645.0897,-279.8855 620.236,-282.1018 595,-239 590.7333,-231.7127 590.0437,-226.837 595,-220 625.1917,-178.3516 656.636,-201.5227 705,-184 751.0414,-167.3188 803.5815,-145.9648 836.0233,-132.5041"/>
<polygon fill="#191970" stroke="#191970" points="837.5297,-135.6682 845.4168,-128.594 834.8396,-129.2057 837.5297,-135.6682"/>
</g>
<!-- Node26 -->
<g id="node27" class="node">
<title>Node26</title>
<g id="a_node27"><a xlink:href="Ioss__PropertyManager_8h.html" target="_top" xlink:title=" ">
<polygon fill="#ffffff" stroke="#000000" points="1546.5225,-110.5 1546.5225,-128.5 1671.4775,-128.5 1671.4775,-110.5 1546.5225,-110.5"/>
<text text-anchor="middle" x="1609" y="-116.5" font-family="Helvetica,sans-Serif" font-size="10.00" fill="#000000">Ioss_PropertyManager.h</text>
</a>
</g>
</g>
<!-- Node1&#45;&gt;Node26 -->
<g id="edge76" class="edge">
<title>Node1&#45;&gt;Node26</title>
<path fill="none" stroke="#191970" d="M1487.9417,-335.1228C1595.7657,-325.5184 1823.1698,-298.5317 1870,-239 1924.9245,-169.1786 1776.8157,-138.6527 1681.7912,-126.5512"/>
<polygon fill="#191970" stroke="#191970" points="1681.9803,-123.0482 1671.6277,-125.3008 1681.1255,-129.9958 1681.9803,-123.0482"/>
</g>
<!-- Node1&#45;&gt;Node27 -->
<g id="edge75" class="edge">
<title>Node1&#45;&gt;Node27</title>
<path fill="none" stroke="#191970" d="M1487.9925,-337.807C1613.5326,-333.5981 1905.6204,-320.9951 1941,-294 1965.3167,-275.446 1965,-260.0869 1965,-229.5 1965,-229.5 1965,-229.5 1965,-174.5 1965,-138.1769 1940.1958,-101.9084 1923.3124,-81.4288"/>
<polygon fill="#191970" stroke="#191970" points="1925.8225,-78.9791 1916.6571,-73.6644 1920.5077,-83.5348 1925.8225,-78.9791"/>
</g>
<!-- Node29 -->
<g id="node30" class="node">
<title>Node29</title>
<g id="a_node30"><a xlink:href="Ioss__State_8h.html" target="_top" xlink:title=" ">
<polygon fill="#ffffff" stroke="#000000" points="1789.2046,-220.5 1789.2046,-238.5 1860.7954,-238.5 1860.7954,-220.5 1789.2046,-220.5"/>
<text text-anchor="middle" x="1825" y="-226.5" font-family="Helvetica,sans-Serif" font-size="10.00" fill="#000000">Ioss_State.h</text>
</a>
</g>
</g>
<!-- Node1&#45;&gt;Node29 -->
<g id="edge77" class="edge">
<title>Node1&#45;&gt;Node29</title>
<path fill="none" stroke="#191970" d="M1463.2427,-330.4982C1534.1827,-310.6927 1703.7652,-263.3473 1782.9406,-241.2425"/>
<polygon fill="#191970" stroke="#191970" points="1783.8981,-244.6091 1792.5886,-238.5489 1782.0157,-237.8669 1783.8981,-244.6091"/>
</g>
<!-- Node33 -->
<g id="node34" class="node">
<title>Node33</title>
<g id="a_node34"><a xlink:href="Ioss__FieldManager_8h.html" target="_top" xlink:title=" ">
<polygon fill="#ffffff" stroke="#000000" points="439.5815,-220.5 439.5815,-238.5 548.4185,-238.5 548.4185,-220.5 439.5815,-220.5"/>
<text text-anchor="middle" x="494" y="-226.5" font-family="Helvetica,sans-Serif" font-size="10.00" fill="#000000">Ioss_FieldManager.h</text>
</a>
</g>
</g>
<!-- Node1&#45;&gt;Node33 -->
<g id="edge66" class="edge">
<title>Node1&#45;&gt;Node33</title>
<path fill="none" stroke="#191970" d="M1373.8651,-338.7943C1192.3167,-336.2363 636.1789,-325.8576 562,-294 538.7534,-284.0163 518.6606,-262.3668 506.466,-246.905"/>
<polygon fill="#191970" stroke="#191970" points="509.0534,-244.5233 500.2346,-238.6514 503.4668,-248.7412 509.0534,-244.5233"/>
</g>
<!-- Node35 -->
<g id="node36" class="node">
<title>Node35</title>
<g id="a_node36"><a xlink:href="Ioss__VariableType_8h.html" target="_top" xlink:title=" ">
<polygon fill="#ffffff" stroke="#000000" points="604.061,-220.5 604.061,-238.5 709.939,-238.5 709.939,-220.5 604.061,-220.5"/>
<text text-anchor="middle" x="657" y="-226.5" font-family="Helvetica,sans-Serif" font-size="10.00" fill="#000000">Ioss_VariableType.h</text>
</a>
</g>
</g>
<!-- Node1&#45;&gt;Node35 -->
<g id="edge78" class="edge">
<title>Node1&#45;&gt;Node35</title>
<path fill="none" stroke="#191970" d="M1373.9219,-338.0767C1216.3015,-333.8314 782.7671,-319.9152 724,-294 701.0297,-283.8705 681.2465,-262.2523 669.2524,-246.8376"/>
<polygon fill="#191970" stroke="#191970" points="671.906,-244.541 663.1253,-238.6123 666.2923,-248.7227 671.906,-244.541"/>
</g>
<!-- Node3 -->
<g id="node4" class="node">
<title>Node3</title>
<g id="a_node4"><a xlink:title=" ">
<polygon fill="#ffffff" stroke="#bfbfbf" points="707.6084,-.5 707.6084,-18.5 746.3916,-18.5 746.3916,-.5 707.6084,-.5"/>
<text text-anchor="middle" x="727" y="-6.5" font-family="Helvetica,sans-Serif" font-size="10.00" fill="#000000">array</text>
</a>
</g>
</g>
<!-- Node2&#45;&gt;Node3 -->
<g id="edge3" class="edge">
<title>Node2&#45;&gt;Node3</title>
<path fill="none" stroke="#191970" d="M727,-55.4179C727,-48.2164 727,-37.8962 727,-28.8632"/>
<polygon fill="#191970" stroke="#191970" points="730.5001,-28.7794 727,-18.7795 723.5001,-28.7795 730.5001,-28.7794"/>
</g>
<!-- Node2&#45;&gt;Node4 -->
<g id="edge4" class="edge">
<title>Node2&#45;&gt;Node4</title>
<path fill="none" stroke="#191970" d="M677.5836,-58.3509C587.2203,-47.1066 397.4764,-23.4959 319.5401,-13.798"/>
<polygon fill="#191970" stroke="#191970" points="319.6626,-10.2863 309.3069,-12.5246 318.7982,-17.2327 319.6626,-10.2863"/>
</g>
<!-- Node2&#45;&gt;Node5 -->
<g id="edge5" class="edge">
<title>Node2&#45;&gt;Node5</title>
<path fill="none" stroke="#191970" d="M776.5356,-62.0119C964.5921,-52.5662 1631.6302,-19.062 1788.7002,-11.1726"/>
<polygon fill="#191970" stroke="#191970" points="1789.3026,-14.6468 1799.1144,-10.6495 1788.9513,-7.6557 1789.3026,-14.6468"/>
</g>
<!-- Node2&#45;&gt;Node6 -->
<g id="edge6" class="edge">
<title>Node2&#45;&gt;Node6</title>
<path fill="none" stroke="#191970" d="M776.4902,-60.9968C923.4929,-50.5912 1354.6915,-20.0688 1473.4263,-11.6642"/>
<polygon fill="#191970" stroke="#191970" points="1473.8869,-15.1404 1483.6148,-10.943 1473.3926,-8.1579 1473.8869,-15.1404"/>
</g>
<!-- Node2&#45;&gt;Node7 -->
<g id="edge7" class="edge">
<title>Node2&#45;&gt;Node7</title>
<path fill="none" stroke="#191970" d="M775.8749,-55.4795C837.3572,-44.1321 941.1719,-24.9716 993.2304,-15.3635"/>
<polygon fill="#191970" stroke="#191970" points="994.0236,-18.7763 1003.2222,-13.5194 992.753,-11.8926 994.0236,-18.7763"/>
</g>
<!-- Node8 -->
<g id="node9" class="node">
<title>Node8</title>
<g id="a_node9"><a xlink:title=" ">
<polygon fill="#ffffff" stroke="#bfbfbf" points="764.2515,-.5 764.2515,-18.5 879.7485,-18.5 879.7485,-.5 764.2515,-.5"/>
<text text-anchor="middle" x="822" y="-6.5" font-family="Helvetica,sans-Serif" font-size="10.00" fill="#000000">SEACASIoss_config.h</text>
</a>
</g>
</g>
<!-- Node2&#45;&gt;Node8 -->
<g id="edge8" class="edge">
<title>Node2&#45;&gt;Node8</title>
<path fill="none" stroke="#191970" d="M742.6873,-55.4179C757.539,-46.8195 780.0698,-33.7754 797.3269,-23.7844"/>
<polygon fill="#191970" stroke="#191970" points="799.3887,-26.635 806.2894,-18.5956 795.8815,-20.577 799.3887,-26.635"/>
</g>
<!-- Node9 -->
<g id="node10" class="node">
<title>Node9</title>
<g id="a_node10"><a xlink:title=" ">
<polygon fill="#ffffff" stroke="#bfbfbf" points="636.3818,-.5 636.3818,-18.5 689.6182,-18.5 689.6182,-.5 636.3818,-.5"/>
<text text-anchor="middle" x="663" y="-6.5" font-family="Helvetica,sans-Serif" font-size="10.00" fill="#000000">complex</text>
</a>
</g>
</g>
<!-- Node2&#45;&gt;Node9 -->
<g id="edge9" class="edge">
<title>Node2&#45;&gt;Node9</title>
<path fill="none" stroke="#191970" d="M716.4317,-55.4179C706.9467,-47.2667 692.8125,-35.1201 681.4634,-25.3669"/>
<polygon fill="#191970" stroke="#191970" points="683.6633,-22.6427 673.7979,-18.7795 679.1009,-27.9516 683.6633,-22.6427"/>
</g>
<!-- Node10&#45;&gt;Node2 -->
<g id="edge12" class="edge">
<title>Node10&#45;&gt;Node2</title>
<path fill="none" stroke="#191970" d="M1313.0021,-283.7093C1130.2066,-280.6426 514.2514,-268.2233 431,-239 391.6585,-225.1902 373.9639,-221.1327 355,-184 340.9325,-156.4547 380.5695,-112.3912 384,-110 428.5731,-78.9314 581.4204,-69.0515 667.2667,-65.9285"/>
<polygon fill="#191970" stroke="#191970" points="667.5181,-69.422 677.3918,-65.5802 667.2773,-62.4262 667.5181,-69.422"/>
</g>
<!-- Node10&#45;&gt;Node4 -->
<g id="edge58" class="edge">
<title>Node10&#45;&gt;Node4</title>
<path fill="none" stroke="#191970" d="M1312.8963,-283.6635C1137.966,-280.5608 563.9725,-268.3398 382,-239 277.1879,-222.1009 152,-280.6657 152,-174.5 152,-174.5 152,-174.5 152,-119.5 152,-68.1204 211.668,-36.2194 251.0728,-20.754"/>
<polygon fill="#191970" stroke="#191970" points="252.4744,-23.9664 260.6058,-17.1744 250.0136,-17.4132 252.4744,-23.9664"/>
</g>
<!-- Node10&#45;&gt;Node5 -->
<g id="edge59" class="edge">
<title>Node10&#45;&gt;Node5</title>
<path fill="none" stroke="#191970" d="M1414.9692,-278.6888C1464.584,-272.1572 1541.6953,-259.6698 1606,-239 1688.6285,-212.4402 1913.3604,-147.1959 1960,-74 1986.1488,-32.9623 1903.4186,-17.5956 1854.8138,-12.1979"/>
<polygon fill="#191970" stroke="#191970" points="1855.0269,-8.7015 1844.7223,-11.1645 1854.3137,-15.665 1855.0269,-8.7015"/>
</g>
<!-- Node10&#45;&gt;Node6 -->
<g id="edge61" class="edge">
<title>Node10&#45;&gt;Node6</title>
<path fill="none" stroke="#191970" d="M1415.0875,-280.1132C1495.7139,-269.9589 1648.3103,-236.7048 1697,-129 1707.7901,-105.1317 1680.6829,-58.3601 1677,-55 1656.2292,-36.0495 1578.2923,-21.1438 1534.4484,-14.0416"/>
<polygon fill="#191970" stroke="#191970" points="1534.7735,-10.5497 1524.3498,-12.4461 1533.681,-17.4639 1534.7735,-10.5497"/>
</g>
<!-- Node10&#45;&gt;Node7 -->
<g id="edge63" class="edge">
<title>Node10&#45;&gt;Node7</title>
<path fill="none" stroke="#191970" d="M1316.148,-275.4289C1291.8575,-268.779 1263.2798,-257.5629 1243,-239 1196.0775,-196.0501 1221.6398,-158.937 1181,-110 1146.5707,-68.5415 1090.5307,-38.3538 1055.8208,-22.4085"/>
<polygon fill="#191970" stroke="#191970" points="1057.1891,-19.1863 1046.6322,-18.2912 1054.3268,-25.5744 1057.1891,-19.1863"/>
</g>
<!-- Node11 -->
<g id="node12" class="node">
<title>Node11</title>
<g id="a_node12"><a xlink:href="Ioss__BoundingBox_8h.html" target="_top" xlink:title=" ">
<polygon fill="#ffffff" stroke="#000000" points="1252.1333,-220.5 1252.1333,-238.5 1359.8667,-238.5 1359.8667,-220.5 1252.1333,-220.5"/>
<text text-anchor="middle" x="1306" y="-226.5" font-family="Helvetica,sans-Serif" font-size="10.00" fill="#000000">Ioss_BoundingBox.h</text>
</a>
</g>
</g>
<!-- Node10&#45;&gt;Node11 -->
<g id="edge11" class="edge">
<title>Node10&#45;&gt;Node11</title>
<path fill="none" stroke="#191970" d="M1354.4225,-275.4179C1345.9936,-267.425 1333.5134,-255.5903 1323.3344,-245.9377"/>
<polygon fill="#191970" stroke="#191970" points="1325.4502,-243.1207 1315.7856,-238.7795 1320.6335,-248.2001 1325.4502,-243.1207"/>
</g>
<!-- Node12 -->
<g id="node13" class="node">
<title>Node12</title>
<g id="a_node13"><a xlink:href="Ioss__DBUsage_8h.html" target="_top" xlink:title=" ">
<polygon fill="#ffffff" stroke="#000000" points="1377.4805,-220.5 1377.4805,-238.5 1468.5195,-238.5 1468.5195,-220.5 1377.4805,-220.5"/>
<text text-anchor="middle" x="1423" y="-226.5" font-family="Helvetica,sans-Serif" font-size="10.00" fill="#000000">Ioss_DBUsage.h</text>
</a>
</g>
</g>
<!-- Node10&#45;&gt;Node12 -->
<g id="edge13" class="edge">
<title>Node10&#45;&gt;Node12</title>
<path fill="none" stroke="#191970" d="M1373.7427,-275.4179C1382.4017,-267.3458 1395.264,-255.3556 1405.6736,-245.6517"/>
<polygon fill="#191970" stroke="#191970" points="1408.1176,-248.1584 1413.0457,-238.7795 1403.3444,-243.0381 1408.1176,-248.1584"/>
</g>
<!-- Node13 -->
<g id="node14" class="node">
<title>Node13</title>
<g id="a_node14"><a xlink:href="Ioss__DataSize_8h.html" target="_top" xlink:title=" ">
<polygon fill="#ffffff" stroke="#000000" points="923.5913,-220.5 923.5913,-238.5 1012.4087,-238.5 1012.4087,-220.5 923.5913,-220.5"/>
<text text-anchor="middle" x="968" y="-226.5" font-family="Helvetica,sans-Serif" font-size="10.00" fill="#000000">Ioss_DataSize.h</text>
</a>
</g>
</g>
<!-- Node10&#45;&gt;Node13 -->
<g id="edge14" class="edge">
<title>Node10&#45;&gt;Node13</title>
<path fill="none" stroke="#191970" d="M1313.0465,-278.4753C1247.9976,-270.6211 1131.7328,-256.0374 1022.6972,-239.2116"/>
<polygon fill="#191970" stroke="#191970" points="1022.927,-235.7054 1012.5084,-237.6294 1021.8528,-242.6225 1022.927,-235.7054"/>
</g>
<!-- Node10&#45;&gt;Node14 -->
<g id="edge15" class="edge">
<title>Node10&#45;&gt;Node14</title>
<path fill="none" stroke="#191970" d="M1415.0625,-276.7849C1474.5938,-267.7774 1575.9446,-252.4026 1663,-239 1664.0858,-238.8328 1665.1824,-238.6638 1666.2873,-238.4934"/>
<polygon fill="#191970" stroke="#191970" points="1667.0354,-241.9194 1676.383,-236.9321 1665.9656,-235.0016 1667.0354,-241.9194"/>
</g>
<!-- Node15 -->
<g id="node16" class="node">
<title>Node15</title>
<g id="a_node16"><a xlink:href="Ioss__Map_8h.html" target="_top" xlink:title=" ">
<polygon fill="#ffffff" stroke="#000000" points="1328.1528,-110.5 1328.1528,-128.5 1395.8472,-128.5 1395.8472,-110.5 1328.1528,-110.5"/>
<text text-anchor="middle" x="1362" y="-116.5" font-family="Helvetica,sans-Serif" font-size="10.00" fill="#000000">Ioss_Map.h</text>
</a>
</g>
</g>
<!-- Node10&#45;&gt;Node15 -->
<g id="edge16" class="edge">
<title>Node10&#45;&gt;Node15</title>
<path fill="none" stroke="#191970" d="M1415.0748,-277.3145C1438.3572,-271.2059 1463.835,-259.9051 1478,-239 1507.5403,-195.4036 1436.329,-153.3528 1392.7763,-132.7162"/>
<polygon fill="#191970" stroke="#191970" points="1394.2336,-129.534 1383.6867,-128.5273 1391.3038,-135.8914 1394.2336,-129.534"/>
</g>
<!-- Node16 -->
<g id="node17" class="node">
<title>Node16</title>
<g id="a_node17"><a xlink:title=" ">
<polygon fill="#ffffff" stroke="#bfbfbf" points="1413.6084,-55.5 1413.6084,-73.5 1452.3916,-73.5 1452.3916,-55.5 1413.6084,-55.5"/>
<text text-anchor="middle" x="1433" y="-61.5" font-family="Helvetica,sans-Serif" font-size="10.00" fill="#000000">utility</text>
</a>
</g>
</g>
<!-- Node10&#45;&gt;Node16 -->
<g id="edge62" class="edge">
<title>Node10&#45;&gt;Node16</title>
<path fill="none" stroke="#191970" d="M1406.6995,-275.4183C1441.0674,-267.1407 1485.3398,-253.9503 1496,-239 1532.2195,-188.2044 1477.5665,-114.3802 1448.8166,-81.4527"/>
<polygon fill="#191970" stroke="#191970" points="1451.0976,-78.7543 1441.813,-73.6507 1445.8885,-83.4303 1451.0976,-78.7543"/>
</g>
<!-- Node17 -->
<g id="node18" class="node">
<title>Node17</title>
<g id="a_node18"><a xlink:href="Ioss__ParallelUtils_8h.html" target="_top" xlink:title=" ">
<polygon fill="#ffffff" stroke="#000000" points="804.4829,-220.5 804.4829,-238.5 905.5171,-238.5 905.5171,-220.5 804.4829,-220.5"/>
<text text-anchor="middle" x="855" y="-226.5" font-family="Helvetica,sans-Serif" font-size="10.00" fill="#000000">Ioss_ParallelUtils.h</text>
</a>
</g>
</g>
<!-- Node10&#45;&gt;Node17 -->
<g id="edge23" class="edge">
<title>Node10&#45;&gt;Node17</title>
<path fill="none" stroke="#191970" d="M1313.0548,-280.2739C1231.5488,-273.3073 1066.5641,-258.3642 916.0604,-239.0705"/>
<polygon fill="#191970" stroke="#191970" points="916.0762,-235.5436 905.7102,-237.7337 915.1795,-242.4859 916.0762,-235.5436"/>
</g>
<!-- Node10&#45;&gt;Node26 -->
<g id="edge46" class="edge">
<title>Node10&#45;&gt;Node26</title>
<path fill="none" stroke="#191970" d="M1415.1471,-276.8404C1462.4743,-268.8924 1528.5085,-255.3454 1549,-239 1581.3947,-213.1597 1597.7848,-165.2561 1604.7395,-138.6201"/>
<polygon fill="#191970" stroke="#191970" points="1608.206,-139.1764 1607.1616,-128.6332 1601.4032,-137.5265 1608.206,-139.1764"/>
</g>
<!-- Node10&#45;&gt;Node29 -->
<g id="edge55" class="edge">
<title>Node10&#45;&gt;Node29</title>
<path fill="none" stroke="#191970" d="M1414.8057,-280.5771C1491.5591,-274.2917 1641.8157,-260.5897 1779.3211,-238.9632"/>
<polygon fill="#191970" stroke="#191970" points="1779.8721,-242.4196 1789.1982,-237.3923 1778.7726,-235.5065 1779.8721,-242.4196"/>
</g>
<!-- Node30 -->
<g id="node31" class="node">
<title>Node30</title>
<g id="a_node31"><a xlink:href="Ioss__SurfaceSplit_8h.html" target="_top" xlink:title=" ">
<polygon fill="#ffffff" stroke="#000000" points="1029.9214,-220.5 1029.9214,-238.5 1132.0786,-238.5 1132.0786,-220.5 1029.9214,-220.5"/>
<text text-anchor="middle" x="1081" y="-226.5" font-family="Helvetica,sans-Serif" font-size="10.00" fill="#000000">Ioss_SurfaceSplit.h</text>
</a>
</g>
</g>
<!-- Node10&#45;&gt;Node30 -->
<g id="edge56" class="edge">
<title>Node10&#45;&gt;Node30</title>
<path fill="none" stroke="#191970" d="M1317.5852,-275.4795C1268.2347,-265.8884 1190.1641,-250.7156 1137.3272,-240.447"/>
<polygon fill="#191970" stroke="#191970" points="1137.9242,-236.9976 1127.4401,-238.5255 1136.5887,-243.869 1137.9242,-236.9976"/>
</g>
<!-- Node31 -->
<g id="node32" class="node">
<title>Node31</title>
<g id="a_node32"><a xlink:title=" ">
<polygon fill="#ffffff" stroke="#bfbfbf" points="1149.7119,-220.5 1149.7119,-238.5 1196.2881,-238.5 1196.2881,-220.5 1149.7119,-220.5"/>
<text text-anchor="middle" x="1173" y="-226.5" font-family="Helvetica,sans-Serif" font-size="10.00" fill="#000000">chrono</text>
</a>
</g>
</g>
<!-- Node10&#45;&gt;Node31 -->
<g id="edge57" class="edge">
<title>Node10&#45;&gt;Node31</title>
<path fill="none" stroke="#191970" d="M1332.4602,-275.4179C1297.6467,-265.393 1241.8463,-249.3248 1206.3317,-239.0981"/>
<polygon fill="#191970" stroke="#191970" points="1207.0253,-235.6557 1196.4473,-236.2518 1205.0883,-242.3824 1207.0253,-235.6557"/>
</g>
<!-- Node32 -->
<g id="node33" class="node">
<title>Node32</title>
<g id="a_node33"><a xlink:title=" ">
<polygon fill="#ffffff" stroke="#bfbfbf" points="1008.2734,-165.5 1008.2734,-183.5 1043.7266,-183.5 1043.7266,-165.5 1008.2734,-165.5"/>
<text text-anchor="middle" x="1026" y="-171.5" font-family="Helvetica,sans-Serif" font-size="10.00" fill="#000000">map</text>
</a>
</g>
</g>
<!-- Node10&#45;&gt;Node32 -->
<g id="edge60" class="edge">
<title>Node10&#45;&gt;Node32</title>
<path fill="none" stroke="#191970" d="M1312.8412,-282.2754C1176.307,-276.0927 812.4571,-257.9088 795,-239 789.2718,-232.7955 789.5864,-226.4808 795,-220 823.8105,-185.51 950.2824,-194.4106 994,-184 995.4446,-183.656 996.9207,-183.2857 998.4074,-182.8977"/>
<polygon fill="#191970" stroke="#191970" points="999.4639,-186.2366 1008.1532,-180.1746 997.5802,-179.4949 999.4639,-186.2366"/>
</g>
<!-- Node15&#45;&gt;Node2 -->
<g id="edge17" class="edge">
<title>Node15&#45;&gt;Node2</title>
<path fill="none" stroke="#191970" d="M1327.8596,-116.543C1225.0247,-107.636 917.2929,-80.9821 786.6782,-69.669"/>
<polygon fill="#191970" stroke="#191970" points="786.7286,-66.1603 776.4639,-68.7843 786.1245,-73.1342 786.7286,-66.1603"/>
</g>
<!-- Node15&#45;&gt;Node4 -->
<g id="edge18" class="edge">
<title>Node15&#45;&gt;Node4</title>
<path fill="none" stroke="#191970" d="M1327.8829,-115.4381C1238.7158,-104.876 991.3333,-75.9184 785,-55 610.0913,-37.2675 400.4243,-19.2332 319.3412,-12.3799"/>
<polygon fill="#191970" stroke="#191970" points="319.4711,-8.8785 309.2122,-11.5255 318.8826,-15.8537 319.4711,-8.8785"/>
</g>
<!-- Node15&#45;&gt;Node5 -->
<g id="edge19" class="edge">
<title>Node15&#45;&gt;Node5</title>
<path fill="none" stroke="#191970" d="M1365.268,-110.1139C1370.8802,-95.5508 1383.8339,-67.8533 1405,-55 1437.6327,-35.1836 1696.6006,-17.3023 1789.2122,-11.4822"/>
<polygon fill="#191970" stroke="#191970" points="1789.6426,-14.9623 1799.406,-10.8482 1789.208,-7.9758 1789.6426,-14.9623"/>
</g>
<!-- Node15&#45;&gt;Node6 -->
<g id="edge20" class="edge">
<title>Node15&#45;&gt;Node6</title>
<path fill="none" stroke="#191970" d="M1360.7077,-110.4137C1359.2981,-96.7477 1358.7718,-70.8225 1372,-55 1385.1742,-39.2421 1438.7521,-24.4079 1473.4669,-16.18"/>
<polygon fill="#191970" stroke="#191970" points="1474.6144,-19.5071 1483.5693,-13.8449 1473.0379,-12.687 1474.6144,-19.5071"/>
</g>
<!-- Node15&#45;&gt;Node7 -->
<g id="edge22" class="edge">
<title>Node15&#45;&gt;Node7</title>
<path fill="none" stroke="#191970" d="M1343.1824,-110.3539C1314.8307,-96.8423 1259.2321,-71.3826 1210,-55 1157.3,-37.4634 1094.1368,-23.3557 1056.9125,-15.7241"/>
<polygon fill="#191970" stroke="#191970" points="1057.1775,-12.2069 1046.6823,-13.6563 1055.7906,-19.0682 1057.1775,-12.2069"/>
</g>
<!-- Node15&#45;&gt;Node16 -->
<g id="edge21" class="edge">
<title>Node15&#45;&gt;Node16</title>
<path fill="none" stroke="#191970" d="M1373.7242,-110.4179C1384.3488,-102.1876 1400.2317,-89.8839 1412.8831,-80.0836"/>
<polygon fill="#191970" stroke="#191970" points="1415.259,-82.6704 1421.0211,-73.7795 1410.9721,-77.1365 1415.259,-82.6704"/>
</g>
<!-- Node17&#45;&gt;Node2 -->
<g id="edge24" class="edge">
<title>Node17&#45;&gt;Node2</title>
<path fill="none" stroke="#191970" d="M903.9976,-220.4886C966.0314,-208.8953 1065.665,-189.5835 1072,-184 1097.4736,-161.5482 1113.472,-135.4558 1091,-110 1071.2316,-87.6067 884.9427,-73.5985 786.8207,-67.7122"/>
<polygon fill="#191970" stroke="#191970" points="786.9347,-64.2129 776.7459,-67.1178 786.5224,-71.2008 786.9347,-64.2129"/>
</g>
<!-- Node17&#45;&gt;Node4 -->
<g id="edge43" class="edge">
<title>Node17&#45;&gt;Node4</title>
<path fill="none" stroke="#191970" d="M804.2924,-227.1418C716.1077,-221.2086 530.8427,-200.5275 394,-129 359.5516,-110.9939 351.877,-103.0051 326,-74 313.3476,-59.8182 302.0184,-41.3143 294.4926,-27.7645"/>
<polygon fill="#191970" stroke="#191970" points="297.5445,-26.0499 289.7202,-18.9063 291.382,-29.37 297.5445,-26.0499"/>
</g>
<!-- Node17&#45;&gt;Node6 -->
<g id="edge44" class="edge">
<title>Node17&#45;&gt;Node6</title>
<path fill="none" stroke="#191970" d="M905.7185,-221.3285C908.8574,-220.8665 911.9705,-220.4199 915,-220 1084.5777,-196.498 1566.3186,-257.0058 1680,-129 1698.8044,-107.8262 1675.9338,-73.9237 1654,-55 1636.0136,-39.482 1572.7961,-23.9682 1534.4058,-15.6701"/>
<polygon fill="#191970" stroke="#191970" points="1534.8028,-12.1765 1524.2944,-13.5269 1533.3513,-19.0244 1534.8028,-12.1765"/>
</g>
<!-- Node17&#45;&gt;Node7 -->
<g id="edge45" class="edge">
<title>Node17&#45;&gt;Node7</title>
<path fill="none" stroke="#191970" d="M905.7322,-221.4225C908.8677,-220.9372 911.9763,-220.4597 915,-220 969.8387,-211.6626 1125.7161,-225.9556 1162,-184 1183.5136,-159.1235 1177.76,-138.867 1162,-110 1147.8217,-84.0301 1130.0483,-91.2377 1106,-74 1084.0568,-58.2712 1059.9817,-38.7979 1043.8286,-25.3873"/>
<polygon fill="#191970" stroke="#191970" points="1045.6514,-22.3494 1035.7335,-18.6229 1041.1629,-27.7209 1045.6514,-22.3494"/>
</g>
<!-- Node17&#45;&gt;Node18 -->
<g id="edge25" class="edge">
<title>Node17&#45;&gt;Node18</title>
<path fill="none" stroke="#191970" d="M817.4417,-220.4795C776.9144,-210.7458 712.4512,-195.2634 669.6864,-184.9924"/>
<polygon fill="#191970" stroke="#191970" points="670.384,-181.5605 659.8431,-182.6283 668.7492,-188.3669 670.384,-181.5605"/>
</g>
<!-- Node21 -->
<g id="node22" class="node">
<title>Node21</title>
<g id="a_node22"><a xlink:title=" ">
<polygon fill="#ffffff" stroke="#bfbfbf" points="1033.8843,-110.5 1033.8843,-128.5 1082.1157,-128.5 1082.1157,-110.5 1033.8843,-110.5"/>
<text text-anchor="middle" x="1058" y="-116.5" font-family="Helvetica,sans-Serif" font-size="10.00" fill="#000000">cassert</text>
</a>
</g>
</g>
<!-- Node17&#45;&gt;Node21 -->
<g id="edge42" class="edge">
<title>Node17&#45;&gt;Node21</title>
<path fill="none" stroke="#191970" d="M905.6768,-221.0455C961.0811,-211.3112 1043.331,-195.2232 1053,-184 1063.5277,-171.78 1063.8173,-152.9726 1062.0425,-138.814"/>
<polygon fill="#191970" stroke="#191970" points="1065.4462,-137.9496 1060.3326,-128.6705 1058.5436,-139.1131 1065.4462,-137.9496"/>
</g>
<!-- Node18&#45;&gt;Node2 -->
<g id="edge26" class="edge">
<title>Node18&#45;&gt;Node2</title>
<path fill="none" stroke="#191970" d="M592.1126,-171.2952C543.0344,-165.8739 455.9541,-153.0587 437,-129 431.7742,-122.3668 431.5111,-116.4172 437,-110 451.7917,-92.7066 587.1103,-77.3957 667.5725,-69.7191"/>
<polygon fill="#191970" stroke="#191970" points="667.9541,-73.1987 677.5818,-68.7765 667.2977,-66.2296 667.9541,-73.1987"/>
</g>
<!-- Node18&#45;&gt;Node4 -->
<g id="edge35" class="edge">
<title>Node18&#45;&gt;Node4</title>
<path fill="none" stroke="#191970" d="M591.9865,-171.4703C551.3934,-166.7907 482.3172,-155.405 429,-129 375.41,-102.4599 324.4345,-52.3011 300.0218,-26.2122"/>
<polygon fill="#191970" stroke="#191970" points="302.4069,-23.6353 293.0593,-18.648 297.2565,-28.376 302.4069,-23.6353"/>
</g>
<!-- Node18&#45;&gt;Node5 -->
<g id="edge36" class="edge">
<title>Node18&#45;&gt;Node5</title>
<path fill="none" stroke="#191970" d="M659.9586,-173.1077C839.8868,-165.7219 1673.9098,-131.3717 1680,-129 1735.8104,-107.2662 1785.4388,-54.0907 1808.4379,-26.5921"/>
<polygon fill="#191970" stroke="#191970" points="1811.3213,-28.595 1814.9436,-18.6386 1805.903,-24.163 1811.3213,-28.595"/>
</g>
<!-- Node18&#45;&gt;Node6 -->
<g id="edge40" class="edge">
<title>Node18&#45;&gt;Node6</title>
<path fill="none" stroke="#191970" d="M659.9311,-169.9423C713.494,-162.5547 820.8286,-146.9676 911,-129 1049.4939,-101.4037 1081.5137,-82.6343 1220,-55 1311.8545,-36.6709 1421.576,-20.7739 1473.6662,-13.5855"/>
<polygon fill="#191970" stroke="#191970" points="1474.1549,-17.0513 1483.587,-12.2259 1473.2043,-10.1162 1474.1549,-17.0513"/>
</g>
<!-- Node18&#45;&gt;Node7 -->
<g id="edge41" class="edge">
<title>Node18&#45;&gt;Node7</title>
<path fill="none" stroke="#191970" d="M660.0218,-165.665C703.3696,-154.2694 774.0216,-135.1782 785,-129 827.2094,-105.2463 822.7709,-78.7188 865,-55 906.0102,-31.9658 959.6019,-19.8239 993.1657,-14.0382"/>
<polygon fill="#191970" stroke="#191970" points="994.0143,-17.446 1003.318,-12.3773 992.884,-10.5378 994.0143,-17.446"/>
</g>
<!-- Node18&#45;&gt;Node19 -->
<g id="edge27" class="edge">
<title>Node18&#45;&gt;Node19</title>
<path fill="none" stroke="#191970" d="M660.0183,-166.7365C702.4472,-157.0536 775.11,-140.4707 822.0796,-129.7515"/>
<polygon fill="#191970" stroke="#191970" points="823.0111,-133.129 831.9817,-127.4917 821.4536,-126.3045 823.0111,-133.129"/>
</g>
<!-- Node20 -->
<g id="node21" class="node">
<title>Node20</title>
<g id="a_node21"><a xlink:title=" ">
<polygon fill="#ffffff" stroke="#bfbfbf" points="446.436,-110.5 446.436,-128.5 503.564,-128.5 503.564,-110.5 446.436,-110.5"/>
<text text-anchor="middle" x="475" y="-116.5" font-family="Helvetica,sans-Serif" font-size="10.00" fill="#000000">algorithm</text>
</a>
</g>
</g>
<!-- Node18&#45;&gt;Node20 -->
<g id="edge32" class="edge">
<title>Node18&#45;&gt;Node20</title>
<path fill="none" stroke="#191970" d="M601.0654,-165.4179C576.073,-156.3147 537.3994,-142.2283 509.4764,-132.0576"/>
<polygon fill="#191970" stroke="#191970" points="510.3146,-128.6381 499.7206,-128.5042 507.9189,-135.2153 510.3146,-128.6381"/>
</g>
<!-- Node18&#45;&gt;Node21 -->
<g id="edge33" class="edge">
<title>Node18&#45;&gt;Node21</title>
<path fill="none" stroke="#191970" d="M659.8983,-170.1842C740.4204,-159.9326 942.4876,-134.2064 1023.5559,-123.8853"/>
<polygon fill="#191970" stroke="#191970" points="1024.2437,-127.326 1033.7216,-122.591 1023.3596,-120.3821 1024.2437,-127.326"/>
</g>
<!-- Node22 -->
<g id="node23" class="node">
<title>Node22</title>
<g id="a_node23"><a xlink:title=" ">
<polygon fill="#ffffff" stroke="#bfbfbf" points="521.3843,-110.5 521.3843,-128.5 564.6157,-128.5 564.6157,-110.5 521.3843,-110.5"/>
<text text-anchor="middle" x="543" y="-116.5" font-family="Helvetica,sans-Serif" font-size="10.00" fill="#000000">cmath</text>
</a>
</g>
</g>
<!-- Node18&#45;&gt;Node22 -->
<g id="edge34" class="edge">
<title>Node18&#45;&gt;Node22</title>
<path fill="none" stroke="#191970" d="M612.2942,-165.4179C599.5589,-156.9788 580.3605,-144.257 565.3988,-134.3426"/>
<polygon fill="#191970" stroke="#191970" points="566.9954,-131.2019 556.7261,-128.5956 563.1287,-137.037 566.9954,-131.2019"/>
</g>
<!-- Node23 -->
<g id="node24" class="node">
<title>Node23</title>
<g id="a_node24"><a xlink:title=" ">
<polygon fill="#ffffff" stroke="#bfbfbf" points="582.8276,-110.5 582.8276,-128.5 627.1724,-128.5 627.1724,-110.5 582.8276,-110.5"/>
<text text-anchor="middle" x="605" y="-116.5" font-family="Helvetica,sans-Serif" font-size="10.00" fill="#000000">cstdlib</text>
</a>
</g>
</g>
<!-- Node18&#45;&gt;Node23 -->
<g id="edge37" class="edge">
<title>Node18&#45;&gt;Node23</title>
<path fill="none" stroke="#191970" d="M622.5323,-165.4179C619.7222,-158.0581 615.6684,-147.441 612.1665,-138.2695"/>
<polygon fill="#191970" stroke="#191970" points="615.3799,-136.8732 608.5431,-128.7795 608.8404,-139.3701 615.3799,-136.8732"/>
</g>
<!-- Node24 -->
<g id="node25" class="node">
<title>Node24</title>
<g id="a_node25"><a xlink:title=" ">
<polygon fill="#ffffff" stroke="#bfbfbf" points="644.8276,-110.5 644.8276,-128.5 699.1724,-128.5 699.1724,-110.5 644.8276,-110.5"/>
<text text-anchor="middle" x="672" y="-116.5" font-family="Helvetica,sans-Serif" font-size="10.00" fill="#000000">iostream</text>
</a>
</g>
</g>
<!-- Node18&#45;&gt;Node24 -->
<g id="edge38" class="edge">
<title>Node18&#45;&gt;Node24</title>
<path fill="none" stroke="#191970" d="M633.596,-165.4179C640.1485,-157.5833 649.7882,-146.0575 657.7704,-136.5137"/>
<polygon fill="#191970" stroke="#191970" points="660.5082,-138.6957 664.239,-128.7795 655.1386,-134.2048 660.5082,-138.6957"/>
</g>
<!-- Node25 -->
<g id="node26" class="node">
<title>Node25</title>
<g id="a_node26"><a xlink:title=" ">
<polygon fill="#ffffff" stroke="#bfbfbf" points="717.5986,-110.5 717.5986,-128.5 776.4014,-128.5 776.4014,-110.5 717.5986,-110.5"/>
<text text-anchor="middle" x="747" y="-116.5" font-family="Helvetica,sans-Serif" font-size="10.00" fill="#000000">stdexcept</text>
</a>
</g>
</g>
<!-- Node18&#45;&gt;Node25 -->
<g id="edge39" class="edge">
<title>Node18&#45;&gt;Node25</title>
<path fill="none" stroke="#191970" d="M645.9807,-165.4179C665.51,-156.5409 695.4644,-142.9253 717.6895,-132.823"/>
<polygon fill="#191970" stroke="#191970" points="719.3343,-135.92 726.9896,-128.5956 716.4376,-129.5474 719.3343,-135.92"/>
</g>
<!-- Node19&#45;&gt;Node2 -->
<g id="edge28" class="edge">
<title>Node19&#45;&gt;Node2</title>
<path fill="none" stroke="#191970" d="M843.8818,-110.4179C820.8806,-101.3817 785.3807,-87.4353 759.538,-77.2828"/>
<polygon fill="#191970" stroke="#191970" points="760.7398,-73.9946 750.1525,-73.5956 758.1802,-80.5098 760.7398,-73.9946"/>
</g>
<!-- Node19&#45;&gt;Node4 -->
<g id="edge29" class="edge">
<title>Node19&#45;&gt;Node4</title>
<path fill="none" stroke="#191970" d="M831.904,-112.8667C727.8352,-93.1974 421.8078,-35.3571 319.0741,-15.9401"/>
<polygon fill="#191970" stroke="#191970" points="319.7012,-12.4968 309.2252,-14.0786 318.4012,-19.375 319.7012,-12.4968"/>
</g>
<!-- Node19&#45;&gt;Node6 -->
<g id="edge30" class="edge">
<title>Node19&#45;&gt;Node6</title>
<path fill="none" stroke="#191970" d="M900.8812,-110.4194C952.8556,-96.761 1055.5422,-70.8453 1144,-55 1265.0907,-33.3092 1410.9147,-18.2352 1473.2819,-12.3044"/>
<polygon fill="#191970" stroke="#191970" points="1473.9612,-15.7561 1483.5897,-11.3356 1473.3061,-8.7868 1473.9612,-15.7561"/>
</g>
<!-- Node19&#45;&gt;Node7 -->
<g id="edge31" class="edge">
<title>Node19&#45;&gt;Node7</title>
<path fill="none" stroke="#191970" d="M865.8096,-110.3445C864.5611,-96.5881 864.3711,-70.5463 878,-55 893.1721,-37.6934 954.5114,-23.0719 992.9995,-15.3609"/>
<polygon fill="#191970" stroke="#191970" points="994.0468,-18.7226 1003.1917,-13.3728 992.7066,-11.8521 994.0468,-18.7226"/>
</g>
<!-- Node26&#45;&gt;Node2 -->
<g id="edge47" class="edge">
<title>Node26&#45;&gt;Node2</title>
<path fill="none" stroke="#191970" d="M1546.2758,-115.5886C1382.993,-105.4066 946.3679,-78.1794 786.6153,-68.2175"/>
<polygon fill="#191970" stroke="#191970" points="786.6973,-64.7159 776.4989,-67.5867 786.2616,-71.7023 786.6973,-64.7159"/>
</g>
<!-- Node26&#45;&gt;Node4 -->
<g id="edge51" class="edge">
<title>Node26&#45;&gt;Node4</title>
<path fill="none" stroke="#191970" d="M1606.0158,-110.4066C1600.6526,-95.7219 1587.8572,-67.2016 1566,-55 1551.9812,-47.1741 521.4078,-16.4583 319.2054,-10.5031"/>
<polygon fill="#191970" stroke="#191970" points="319.2564,-7.0032 309.1577,-10.2075 319.0505,-14.0001 319.2564,-7.0032"/>
</g>
<!-- Node26&#45;&gt;Node6 -->
<g id="edge52" class="edge">
<title>Node26&#45;&gt;Node6</title>
<path fill="none" stroke="#191970" d="M1618.7333,-110.1087C1631.1631,-96.9555 1649.6359,-72.6777 1637,-55 1624.8587,-38.0143 1569.5296,-23.4077 1534.17,-15.5882"/>
<polygon fill="#191970" stroke="#191970" points="1534.8555,-12.1557 1524.3432,-13.4752 1533.384,-18.9993 1534.8555,-12.1557"/>
</g>
<!-- Node26&#45;&gt;Node7 -->
<g id="edge54" class="edge">
<title>Node26&#45;&gt;Node7</title>
<path fill="none" stroke="#191970" d="M1610.6988,-110.4293C1612.7631,-96.2985 1614.2837,-69.1825 1599,-55 1559.1142,-17.9881 1171.8761,-11.021 1056.9791,-9.7651"/>
<polygon fill="#191970" stroke="#191970" points="1056.7663,-6.2628 1046.7311,-9.6605 1056.6948,-13.2625 1056.7663,-6.2628"/>
</g>
<!-- Node26&#45;&gt;Node27 -->
<g id="edge48" class="edge">
<title>Node26&#45;&gt;Node27</title>
<path fill="none" stroke="#191970" d="M1658.039,-110.4795C1712.3156,-100.4955 1799.473,-84.4632 1855.2108,-74.2104"/>
<polygon fill="#191970" stroke="#191970" points="1856.0358,-77.6174 1865.2376,-72.366 1854.7694,-70.7329 1856.0358,-77.6174"/>
</g>
<!-- Node28 -->
<g id="node29" class="node">
<title>Node28</title>
<g id="a_node29"><a xlink:title=" ">
<polygon fill="#ffffff" stroke="#bfbfbf" points="1470.6973,-55.5 1470.6973,-73.5 1557.3027,-73.5 1557.3027,-55.5 1470.6973,-55.5"/>
<text text-anchor="middle" x="1514" y="-61.5" font-family="Helvetica,sans-Serif" font-size="10.00" fill="#000000">unordered_map</text>
</a>
</g>
</g>
<!-- Node26&#45;&gt;Node28 -->
<g id="edge53" class="edge">
<title>Node26&#45;&gt;Node28</title>
<path fill="none" stroke="#191970" d="M1593.3127,-110.4179C1578.461,-101.8195 1555.9302,-88.7754 1538.6731,-78.7844"/>
<polygon fill="#191970" stroke="#191970" points="1540.1185,-75.577 1529.7106,-73.5956 1536.6113,-81.635 1540.1185,-75.577"/>
</g>
<!-- Node27&#45;&gt;Node5 -->
<g id="edge49" class="edge">
<title>Node27&#45;&gt;Node5</title>
<path fill="none" stroke="#191970" d="M1893.7988,-55.4179C1880.4787,-46.8992 1860.335,-34.0166 1844.7708,-24.0627"/>
<polygon fill="#191970" stroke="#191970" points="1846.5325,-21.0348 1836.2222,-18.5956 1842.761,-26.932 1846.5325,-21.0348"/>
</g>
<!-- Node27&#45;&gt;Node6 -->
<g id="edge50" class="edge">
<title>Node27&#45;&gt;Node6</title>
<path fill="none" stroke="#191970" d="M1865.0745,-57.1816C1860.3292,-56.4214 1855.5646,-55.6794 1851,-55 1734.213,-37.6163 1594.7764,-20.4056 1534.3755,-13.1226"/>
<polygon fill="#191970" stroke="#191970" points="1534.7189,-9.6387 1524.3726,-11.9202 1533.8834,-16.5887 1534.7189,-9.6387"/>
</g>
<!-- Node33&#45;&gt;Node2 -->
<g id="edge67" class="edge">
<title>Node33&#45;&gt;Node2</title>
<path fill="none" stroke="#191970" d="M439.4095,-224.0694C395.9974,-217.0111 344.9902,-200.9915 361,-165 375.8362,-131.6469 388.987,-125.5784 422,-110 464.3118,-90.0337 591.0157,-76.1221 667.155,-69.3044"/>
<polygon fill="#191970" stroke="#191970" points="667.8943,-72.753 677.5489,-68.3896 667.2805,-65.7799 667.8943,-72.753"/>
</g>
<!-- Node33&#45;&gt;Node4 -->
<g id="edge70" class="edge">
<title>Node33&#45;&gt;Node4</title>
<path fill="none" stroke="#191970" d="M439.4352,-224.947C380.7899,-216.7265 290.7789,-193.6685 252,-129 235.0859,-100.7937 241.8498,-86.2834 252,-55 255.4422,-44.3911 262.3888,-34.1855 269.0245,-26.1379"/>
<polygon fill="#191970" stroke="#191970" points="271.6775,-28.4211 275.667,-18.606 266.4275,-23.791 271.6775,-28.4211"/>
</g>
<!-- Node33&#45;&gt;Node6 -->
<g id="edge72" class="edge">
<title>Node33&#45;&gt;Node6</title>
<path fill="none" stroke="#191970" d="M548.4245,-224.3298C599.4985,-218.3619 677.4756,-206.3565 742,-184 759.0947,-178.077 760.7167,-170.3476 778,-165 911.7713,-123.6098 953.9553,-157.7517 1091,-129 1200.2436,-106.0809 1223.6677,-85.647 1331,-55 1380.796,-40.7816 1439.1213,-25.7813 1473.7371,-17.0503"/>
<polygon fill="#191970" stroke="#191970" points="1474.8383,-20.3824 1483.6831,-14.5497 1473.1315,-13.5937 1474.8383,-20.3824"/>
</g>
<!-- Node33&#45;&gt;Node7 -->
<g id="edge74" class="edge">
<title>Node33&#45;&gt;Node7</title>
<path fill="none" stroke="#191970" d="M548.4955,-220.645C591.5363,-212.9611 652.8288,-200.4793 705,-184 725.7015,-177.461 729.3235,-171.6175 750,-165 819.8331,-142.6498 847.1686,-165.0798 911,-129 956.5504,-103.2532 995.0878,-53.4915 1013.465,-27.0346"/>
<polygon fill="#191970" stroke="#191970" points="1016.3842,-28.966 1019.103,-18.7259 1010.5918,-25.0355 1016.3842,-28.966"/>
</g>
<!-- Node33&#45;&gt;Node18 -->
<g id="edge69" class="edge">
<title>Node33&#45;&gt;Node18</title>
<path fill="none" stroke="#191970" d="M515.7971,-220.4179C537.2929,-211.4613 570.3664,-197.6806 594.6752,-187.552"/>
<polygon fill="#191970" stroke="#191970" points="596.2859,-190.6726 604.1705,-183.5956 593.5936,-184.2111 596.2859,-190.6726"/>
</g>
<!-- Node33&#45;&gt;Node19 -->
<g id="edge68" class="edge">
<title>Node33&#45;&gt;Node19</title>
<path fill="none" stroke="#191970" d="M536.6507,-220.4441C572.4437,-212.363 624.6811,-199.4391 669,-184 688.7307,-177.1266 692.3788,-172.18 712,-165 748.4796,-151.651 790.8589,-139.4274 822.0748,-131.0192"/>
<polygon fill="#191970" stroke="#191970" points="823.0356,-134.3854 831.796,-128.4267 821.2318,-127.6218 823.0356,-134.3854"/>
</g>
<!-- Node33&#45;&gt;Node28 -->
<g id="edge73" class="edge">
<title>Node33&#45;&gt;Node28</title>
<path fill="none" stroke="#191970" d="M548.6505,-221.9295C605.9871,-213.71 698.6338,-199.6453 778,-184 814.279,-176.8484 822.4278,-170.4571 859,-165 1099.5306,-129.1096 1172.6742,-200.8878 1405,-129 1439.1872,-118.4216 1473.9602,-95.2246 1494.7568,-79.7288"/>
<polygon fill="#191970" stroke="#191970" points="1496.941,-82.4648 1502.7715,-73.6185 1492.697,-76.8981 1496.941,-82.4648"/>
</g>
<!-- Node34 -->
<g id="node35" class="node">
<title>Node34</title>
<g id="a_node35"><a xlink:title=" ">
<polygon fill="#ffffff" stroke="#bfbfbf" points="369.5962,-165.5 369.5962,-183.5 428.4038,-183.5 428.4038,-165.5 369.5962,-165.5"/>
<text text-anchor="middle" x="399" y="-171.5" font-family="Helvetica,sans-Serif" font-size="10.00" fill="#000000">functional</text>
</a>
</g>
</g>
<!-- Node33&#45;&gt;Node34 -->
<g id="edge71" class="edge">
<title>Node33&#45;&gt;Node34</title>
<path fill="none" stroke="#191970" d="M478.3127,-220.4179C463.461,-211.8195 440.9302,-198.7754 423.6731,-188.7844"/>
<polygon fill="#191970" stroke="#191970" points="425.1185,-185.577 414.7106,-183.5956 421.6113,-191.635 425.1185,-185.577"/>
</g>
<!-- Node35&#45;&gt;Node2 -->
<g id="edge79" class="edge">
<title>Node35&#45;&gt;Node2</title>
<path fill="none" stroke="#191970" d="M627.1732,-220.4422C558.9437,-198.9838 399.5537,-144.2836 429,-110 444.3239,-92.1588 585.0503,-76.9396 667.5191,-69.4564"/>
<polygon fill="#191970" stroke="#191970" points="667.8728,-72.9389 677.5208,-68.5608 667.2485,-65.9668 667.8728,-72.9389"/>
</g>
<!-- Node35&#45;&gt;Node6 -->
<g id="edge84" class="edge">
<title>Node35&#45;&gt;Node6</title>
<path fill="none" stroke="#191970" d="M709.9599,-224.4626C768.7871,-218.1207 866.2508,-205.3851 948,-184 971.4011,-177.8784 975.5217,-170.8185 999,-165 1119.5012,-135.1369 1163.0873,-180.6049 1276,-129 1320.9493,-108.4567 1316.0157,-79.389 1359,-55 1395.7436,-34.1519 1443.2494,-21.5833 1473.6797,-15.0931"/>
<polygon fill="#191970" stroke="#191970" points="1474.5893,-18.4796 1483.6855,-13.0473 1473.187,-11.6215 1474.5893,-18.4796"/>
</g>
<!-- Node35&#45;&gt;Node7 -->
<g id="edge85" class="edge">
<title>Node35&#45;&gt;Node7</title>
<path fill="none" stroke="#191970" d="M710.1827,-221.5791C785.2792,-210.225 914.2972,-190.026 923,-184 978.951,-145.2583 1008.6674,-65.0683 1019.7874,-28.4641"/>
<polygon fill="#191970" stroke="#191970" points="1023.2248,-29.1768 1022.6498,-18.5976 1016.502,-27.2264 1023.2248,-29.1768"/>
</g>
<!-- Node35&#45;&gt;Node18 -->
<g id="edge80" class="edge">
<title>Node35&#45;&gt;Node18</title>
<path fill="none" stroke="#191970" d="M651.881,-220.4179C647.6435,-212.8998 641.4903,-201.9829 636.2468,-192.6799"/>
<polygon fill="#191970" stroke="#191970" points="639.1895,-190.7724 631.2302,-183.7795 633.0914,-194.2096 639.1895,-190.7724"/>
</g>
<!-- Node35&#45;&gt;Node32 -->
<g id="edge83" class="edge">
<title>Node35&#45;&gt;Node32</title>
<path fill="none" stroke="#191970" d="M710.0246,-221.9402C714.7498,-221.279 719.4609,-220.6244 724,-220 843.9326,-203.5021 875.612,-209.304 994,-184 995.4522,-183.6896 996.9343,-183.3462 998.4258,-182.9794"/>
<polygon fill="#191970" stroke="#191970" points="999.4565,-186.3263 1008.1868,-180.3237 997.6187,-179.5718 999.4565,-186.3263"/>
</g>
<!-- Node35&#45;&gt;Node34 -->
<g id="edge82" class="edge">
<title>Node35&#45;&gt;Node34</title>
<path fill="none" stroke="#191970" d="M613.7363,-220.462C570.3019,-211.3606 501.479,-196.8638 442,-184 440.9165,-183.7657 439.8178,-183.5274 438.709,-183.2864"/>
<polygon fill="#191970" stroke="#191970" points="439.1174,-179.7931 428.6005,-181.0759 437.6219,-186.6315 439.1174,-179.7931"/>
</g>
<!-- Node36 -->
<g id="node37" class="node">
<title>Node36</title>
<g id="a_node37"><a xlink:title=" ">
<polygon fill="#ffffff" stroke="#bfbfbf" points="868.2734,-165.5 868.2734,-183.5 913.7266,-183.5 913.7266,-165.5 868.2734,-165.5"/>
<text text-anchor="middle" x="891" y="-171.5" font-family="Helvetica,sans-Serif" font-size="10.00" fill="#000000">cstring</text>
</a>
</g>
</g>
<!-- Node35&#45;&gt;Node36 -->
<g id="edge81" class="edge">
<title>Node35&#45;&gt;Node36</title>
<path fill="none" stroke="#191970" d="M697.4386,-220.4626C737.31,-211.4807 799.9472,-197.1793 854,-184 855.2685,-183.6907 856.5607,-183.3728 857.8655,-183.0494"/>
<polygon fill="#191970" stroke="#191970" points="859.0862,-186.3514 867.9292,-180.516 857.3772,-179.5632 859.0862,-186.3514"/>
</g>
</g>
</svg>
