<?xml version="1.0" encoding="UTF-8" standalone="no"?>
<!DOCTYPE svg PUBLIC "-//W3C//DTD SVG 1.1//EN"
 "http://www.w3.org/Graphics/SVG/1.1/DTD/svg11.dtd">
<!-- Generated by graphviz version 2.40.1 (20161225.0304)
 -->
<!-- Title: src/Ioss_VariableType.C Pages: 1 -->
<svg width="1320pt" height="257pt"
 viewBox="0.00 0.00 1320.17 257.00" xmlns="http://www.w3.org/2000/svg" xmlns:xlink="http://www.w3.org/1999/xlink">
<g id="graph0" class="graph" transform="scale(1 1) rotate(0) translate(4 253)">
<title>src/Ioss_VariableType.C</title>
<polygon fill="#ffffff" stroke="transparent" points="-4,4 -4,-253 1316.1716,-253 1316.1716,4 -4,4"/>
<!-- Node0 -->
<g id="node1" class="node">
<title>Node0</title>
<polygon fill="#bfbfbf" stroke="#000000" points="629.9568,-230.5 629.9568,-248.5 753.6033,-248.5 753.6033,-230.5 629.9568,-230.5"/>
<text text-anchor="middle" x="691.78" y="-236.5" font-family="Helvetica,sans-Serif" font-size="10.00" fill="#000000">src/Ioss_VariableType.C</text>
</g>
<!-- Node1 -->
<g id="node2" class="node">
<title>Node1</title>
<g id="a_node2"><a xlink:href="Ioss__CompositeVariableType_8h.html" target="_top" xlink:title="Ioss_CompositeVariableType.h">
<polygon fill="#ffffff" stroke="#000000" points="258.9421,-170.5 258.9421,-188.5 412.6179,-188.5 412.6179,-170.5 258.9421,-170.5"/>
<text text-anchor="middle" x="335.78" y="-176.5" font-family="Helvetica,sans-Serif" font-size="10.00" fill="#000000">Ioss_CompositeVariableType.h</text>
</a>
</g>
</g>
<!-- Node0&#45;&gt;Node1 -->
<g id="edge1" class="edge">
<title>Node0&#45;&gt;Node1</title>
<path fill="none" stroke="#191970" d="M638.0978,-230.4524C574.1717,-219.6784 467.5179,-201.703 399.4782,-190.2357"/>
<polygon fill="#191970" stroke="#191970" points="399.7588,-186.7336 389.3161,-188.5229 398.5953,-193.6363 399.7588,-186.7336"/>
</g>
<!-- Node2 -->
<g id="node3" class="node">
<title>Node2</title>
<g id="a_node3"><a xlink:href="Ioss__VariableType_8h.html" target="_top" xlink:title="Ioss_VariableType.h">
<polygon fill="#ffffff" stroke="#000000" points="249.8411,-110.5 249.8411,-128.5 355.719,-128.5 355.719,-110.5 249.8411,-110.5"/>
<text text-anchor="middle" x="302.78" y="-116.5" font-family="Helvetica,sans-Serif" font-size="10.00" fill="#000000">Ioss_VariableType.h</text>
</a>
</g>
</g>
<!-- Node0&#45;&gt;Node2 -->
<g id="edge40" class="edge">
<title>Node0&#45;&gt;Node2</title>
<path fill="none" stroke="#191970" d="M629.8623,-235.0819C581.7401,-229.8505 514.2427,-218.5024 459.78,-194 440.4053,-185.2834 440.3368,-175.3442 421.78,-165 396.8458,-151.1007 366.8068,-139.6515 343.1477,-131.7146"/>
<polygon fill="#191970" stroke="#191970" points="344.0249,-128.319 333.4322,-128.5313 341.8453,-134.971 344.0249,-128.319"/>
</g>
<!-- Node5 -->
<g id="node6" class="node">
<title>Node5</title>
<polygon fill="#ffffff" stroke="#bfbfbf" points="861.6594,-.5 861.6594,-18.5 909.9006,-18.5 909.9006,-.5 861.6594,-.5"/>
<text text-anchor="middle" x="885.78" y="-6.5" font-family="Helvetica,sans-Serif" font-size="10.00" fill="#000000">cstddef</text>
</g>
<!-- Node0&#45;&gt;Node5 -->
<g id="edge43" class="edge">
<title>Node0&#45;&gt;Node5</title>
<path fill="none" stroke="#191970" d="M753.7043,-232.9485C860.1054,-220.2007 1070.0657,-188.0004 1109.78,-129 1158.9262,-55.9874 995.1233,-24.1707 920.6709,-13.7051"/>
<polygon fill="#191970" stroke="#191970" points="920.749,-10.184 910.3704,-12.3136 919.8118,-17.121 920.749,-10.184"/>
</g>
<!-- Node7 -->
<g id="node8" class="node">
<title>Node7</title>
<polygon fill="#ffffff" stroke="#bfbfbf" points="325.5535,-.5 325.5535,-18.5 366.0066,-18.5 366.0066,-.5 325.5535,-.5"/>
<text text-anchor="middle" x="345.78" y="-6.5" font-family="Helvetica,sans-Serif" font-size="10.00" fill="#000000">string</text>
</g>
<!-- Node0&#45;&gt;Node7 -->
<g id="edge49" class="edge">
<title>Node0&#45;&gt;Node7</title>
<path fill="none" stroke="#191970" d="M629.7431,-238.864C479.4932,-236.787 105.1419,-228.2007 60.78,-194 9.7701,-154.674 -22.4993,-103.5901 19.78,-55 39.0815,-32.8175 238.069,-16.8931 315.3377,-11.5024"/>
<polygon fill="#191970" stroke="#191970" points="315.6644,-14.9883 325.4015,-10.8121 315.1854,-8.0047 315.6644,-14.9883"/>
</g>
<!-- Node8 -->
<g id="node9" class="node">
<title>Node8</title>
<polygon fill="#ffffff" stroke="#bfbfbf" points="475.1643,-.5 475.1643,-18.5 518.3958,-18.5 518.3958,-.5 475.1643,-.5"/>
<text text-anchor="middle" x="496.78" y="-6.5" font-family="Helvetica,sans-Serif" font-size="10.00" fill="#000000">vector</text>
</g>
<!-- Node0&#45;&gt;Node8 -->
<g id="edge51" class="edge">
<title>Node0&#45;&gt;Node8</title>
<path fill="none" stroke="#191970" d="M683.6919,-230.2323C670.0667,-215.0476 641.1381,-184.6015 611.78,-165 579.6904,-143.5747 560.8386,-155.486 532.78,-129 504.7804,-102.5696 498.3063,-55.2518 496.9653,-28.7802"/>
<polygon fill="#191970" stroke="#191970" points="500.4561,-28.422 496.654,-18.5329 493.4593,-28.6346 500.4561,-28.422"/>
</g>
<!-- Node11 -->
<g id="node12" class="node">
<title>Node11</title>
<polygon fill="#ffffff" stroke="#bfbfbf" points="29.0535,-55.5 29.0535,-73.5 74.5066,-73.5 74.5066,-55.5 29.0535,-55.5"/>
<text text-anchor="middle" x="51.78" y="-61.5" font-family="Helvetica,sans-Serif" font-size="10.00" fill="#000000">cstring</text>
</g>
<!-- Node0&#45;&gt;Node11 -->
<g id="edge46" class="edge">
<title>Node0&#45;&gt;Node11</title>
<path fill="none" stroke="#191970" d="M629.7844,-238.8892C483.4738,-236.8832 125.8669,-228.4702 84.78,-194 52.2989,-166.7496 49.3746,-112.4155 50.3609,-83.5501"/>
<polygon fill="#191970" stroke="#191970" points="53.8579,-83.698 50.9003,-73.5244 46.868,-83.3218 53.8579,-83.698"/>
</g>
<!-- Node13 -->
<g id="node14" class="node">
<title>Node13</title>
<polygon fill="#ffffff" stroke="#bfbfbf" points="92.0535,-55.5 92.0535,-73.5 127.5066,-73.5 127.5066,-55.5 92.0535,-55.5"/>
<text text-anchor="middle" x="109.78" y="-61.5" font-family="Helvetica,sans-Serif" font-size="10.00" fill="#000000">map</text>
</g>
<!-- Node0&#45;&gt;Node13 -->
<g id="edge47" class="edge">
<title>Node0&#45;&gt;Node13</title>
<path fill="none" stroke="#191970" d="M629.7566,-236.9636C481.8835,-230.6167 119.5343,-213.1762 101.78,-194 73.962,-163.9541 89.6829,-111.2841 101.1373,-83.2682"/>
<polygon fill="#191970" stroke="#191970" points="104.4594,-84.4042 105.2188,-73.8366 98.0351,-81.6241 104.4594,-84.4042"/>
</g>
<!-- Node14 -->
<g id="node15" class="node">
<title>Node14</title>
<g id="a_node15"><a xlink:href="Ioss__ConstructedVariableType_8h.html" target="_top" xlink:title="Ioss_ConstructedVariable\lType.h">
<polygon fill="#ffffff" stroke="#000000" points="110.8953,-165.5 110.8953,-193.5 240.6648,-193.5 240.6648,-165.5 110.8953,-165.5"/>
<text text-anchor="start" x="118.8953" y="-181.5" font-family="Helvetica,sans-Serif" font-size="10.00" fill="#000000">Ioss_ConstructedVariable</text>
<text text-anchor="middle" x="175.78" y="-171.5" font-family="Helvetica,sans-Serif" font-size="10.00" fill="#000000">Type.h</text>
</a>
</g>
</g>
<!-- Node0&#45;&gt;Node14 -->
<g id="edge17" class="edge">
<title>Node0&#45;&gt;Node14</title>
<path fill="none" stroke="#191970" d="M629.7018,-234.9003C545.9828,-228.2994 392.065,-214.7646 250.8395,-194.0687"/>
<polygon fill="#191970" stroke="#191970" points="251.0992,-190.569 240.6943,-192.5662 250.0737,-197.4935 251.0992,-190.569"/>
</g>
<!-- Node15 -->
<g id="node16" class="node">
<title>Node15</title>
<g id="a_node16"><a xlink:href="Ioss__NamedSuffixVariableType_8h.html" target="_top" xlink:title="Ioss_NamedSuffixVariable\lType.h">
<polygon fill="#ffffff" stroke="#000000" points="469.2302,-165.5 469.2302,-193.5 602.3298,-193.5 602.3298,-165.5 469.2302,-165.5"/>
<text text-anchor="start" x="477.2302" y="-181.5" font-family="Helvetica,sans-Serif" font-size="10.00" fill="#000000">Ioss_NamedSuffixVariable</text>
<text text-anchor="middle" x="535.78" y="-171.5" font-family="Helvetica,sans-Serif" font-size="10.00" fill="#000000">Type.h</text>
</a>
</g>
</g>
<!-- Node0&#45;&gt;Node15 -->
<g id="edge20" class="edge">
<title>Node0&#45;&gt;Node15</title>
<path fill="none" stroke="#191970" d="M668.087,-230.3873C645.2895,-221.619 610.2048,-208.1249 581.8916,-197.2352"/>
<polygon fill="#191970" stroke="#191970" points="582.7804,-193.8272 572.1905,-193.504 580.2675,-200.3606 582.7804,-193.8272"/>
</g>
<!-- Node16 -->
<g id="node17" class="node">
<title>Node16</title>
<g id="a_node17"><a xlink:href="Ioss__Utils_8h.html" target="_top" xlink:title="Ioss_Utils.h">
<polygon fill="#ffffff" stroke="#000000" points="731.9378,-170.5 731.9378,-188.5 799.6223,-188.5 799.6223,-170.5 731.9378,-170.5"/>
<text text-anchor="middle" x="765.78" y="-176.5" font-family="Helvetica,sans-Serif" font-size="10.00" fill="#000000">Ioss_Utils.h</text>
</a>
</g>
</g>
<!-- Node0&#45;&gt;Node16 -->
<g id="edge24" class="edge">
<title>Node0&#45;&gt;Node16</title>
<path fill="none" stroke="#191970" d="M703.019,-230.3873C714.5372,-221.0483 732.6674,-206.3481 746.486,-195.1438"/>
<polygon fill="#191970" stroke="#191970" points="748.872,-197.7152 754.4353,-188.6985 744.4634,-192.2779 748.872,-197.7152"/>
</g>
<!-- Node18 -->
<g id="node19" class="node">
<title>Node18</title>
<polygon fill="#ffffff" stroke="#bfbfbf" points="915.2161,-110.5 915.2161,-128.5 972.344,-128.5 972.344,-110.5 915.2161,-110.5"/>
<text text-anchor="middle" x="943.78" y="-116.5" font-family="Helvetica,sans-Serif" font-size="10.00" fill="#000000">algorithm</text>
</g>
<!-- Node0&#45;&gt;Node18 -->
<g id="edge41" class="edge">
<title>Node0&#45;&gt;Node18</title>
<path fill="none" stroke="#191970" d="M718.2222,-230.3598C742.2145,-221.7989 778.3789,-208.2224 808.78,-194 848.9065,-175.2279 893.5685,-149.5935 920.1341,-133.8135"/>
<polygon fill="#191970" stroke="#191970" points="921.951,-136.8052 928.7388,-128.6703 918.3595,-130.7967 921.951,-136.8052"/>
</g>
<!-- Node19 -->
<g id="node20" class="node">
<title>Node19</title>
<polygon fill="#ffffff" stroke="#bfbfbf" points="990.6643,-110.5 990.6643,-128.5 1038.8958,-128.5 1038.8958,-110.5 990.6643,-110.5"/>
<text text-anchor="middle" x="1014.78" y="-116.5" font-family="Helvetica,sans-Serif" font-size="10.00" fill="#000000">cassert</text>
</g>
<!-- Node0&#45;&gt;Node19 -->
<g id="edge42" class="edge">
<title>Node0&#45;&gt;Node19</title>
<path fill="none" stroke="#191970" d="M729.2253,-230.4531C761.766,-222.1977 809.9566,-209.0201 850.78,-194 900.2512,-175.7982 955.6767,-149.2666 987.767,-133.266"/>
<polygon fill="#191970" stroke="#191970" points="989.5773,-136.2736 996.9444,-128.6594 986.437,-130.0175 989.5773,-136.2736"/>
</g>
<!-- Node20 -->
<g id="node21" class="node">
<title>Node20</title>
<polygon fill="#ffffff" stroke="#bfbfbf" points="1056.6077,-110.5 1056.6077,-128.5 1100.9524,-128.5 1100.9524,-110.5 1056.6077,-110.5"/>
<text text-anchor="middle" x="1078.78" y="-116.5" font-family="Helvetica,sans-Serif" font-size="10.00" fill="#000000">cstdlib</text>
</g>
<!-- Node0&#45;&gt;Node20 -->
<g id="edge45" class="edge">
<title>Node0&#45;&gt;Node20</title>
<path fill="none" stroke="#191970" d="M745.2039,-230.4355C787.4076,-222.636 847.5284,-210.1011 898.78,-194 954.0798,-176.6272 1016.012,-149.1247 1050.9105,-132.8424"/>
<polygon fill="#191970" stroke="#191970" points="1052.448,-135.9871 1060.0088,-128.5652 1049.4699,-129.6522 1052.448,-135.9871"/>
</g>
<!-- Node23 -->
<g id="node24" class="node">
<title>Node23</title>
<polygon fill="#ffffff" stroke="#bfbfbf" points="1143.7185,-170.5 1143.7185,-188.5 1185.8416,-188.5 1185.8416,-170.5 1143.7185,-170.5"/>
<text text-anchor="middle" x="1164.78" y="-176.5" font-family="Helvetica,sans-Serif" font-size="10.00" fill="#000000">cstdio</text>
</g>
<!-- Node0&#45;&gt;Node23 -->
<g id="edge44" class="edge">
<title>Node0&#45;&gt;Node23</title>
<path fill="none" stroke="#191970" d="M753.7406,-235.2808C857.0965,-227.8715 1060.2099,-211.6261 1129.78,-194 1131.9558,-193.4488 1134.1734,-192.7868 1136.383,-192.0535"/>
<polygon fill="#191970" stroke="#191970" points="1137.727,-195.2877 1145.8649,-188.5035 1135.2725,-188.7321 1137.727,-195.2877"/>
</g>
<!-- Node24 -->
<g id="node25" class="node">
<title>Node24</title>
<polygon fill="#ffffff" stroke="#bfbfbf" points="1203.9993,-170.5 1203.9993,-188.5 1255.5608,-188.5 1255.5608,-170.5 1203.9993,-170.5"/>
<text text-anchor="middle" x="1229.78" y="-176.5" font-family="Helvetica,sans-Serif" font-size="10.00" fill="#000000">sstream</text>
</g>
<!-- Node0&#45;&gt;Node24 -->
<g id="edge48" class="edge">
<title>Node0&#45;&gt;Node24</title>
<path fill="none" stroke="#191970" d="M753.6961,-236.2409C869.0823,-229.7801 1112.7276,-214.2089 1194.78,-194 1196.9594,-193.4632 1199.1796,-192.8119 1201.3911,-192.0862"/>
<polygon fill="#191970" stroke="#191970" points="1202.7283,-195.3231 1210.8769,-188.5517 1200.2842,-188.7636 1202.7283,-195.3231"/>
</g>
<!-- Node25 -->
<g id="node26" class="node">
<title>Node25</title>
<polygon fill="#ffffff" stroke="#bfbfbf" points="1273.3884,-170.5 1273.3884,-188.5 1312.1716,-188.5 1312.1716,-170.5 1273.3884,-170.5"/>
<text text-anchor="middle" x="1292.78" y="-176.5" font-family="Helvetica,sans-Serif" font-size="10.00" fill="#000000">utility</text>
</g>
<!-- Node0&#45;&gt;Node25 -->
<g id="edge50" class="edge">
<title>Node0&#45;&gt;Node25</title>
<path fill="none" stroke="#191970" d="M753.9979,-237.6702C881.9,-233.4015 1170.273,-221.0261 1264.78,-194 1266.0235,-193.6444 1267.2759,-193.231 1268.525,-192.7734"/>
<polygon fill="#191970" stroke="#191970" points="1270.1213,-195.8939 1277.833,-188.6288 1267.2739,-189.4992 1270.1213,-195.8939"/>
</g>
<!-- Node1&#45;&gt;Node2 -->
<g id="edge2" class="edge">
<title>Node1&#45;&gt;Node2</title>
<path fill="none" stroke="#191970" d="M330.768,-170.3873C326.0192,-161.7531 318.7501,-148.5365 312.8101,-137.7366"/>
<polygon fill="#191970" stroke="#191970" points="315.7252,-135.7739 307.8392,-128.6985 309.5917,-139.1474 315.7252,-135.7739"/>
</g>
<!-- Node1&#45;&gt;Node7 -->
<g id="edge16" class="edge">
<title>Node1&#45;&gt;Node7</title>
<path fill="none" stroke="#191970" d="M313.6452,-170.4689C269.574,-151.1718 177.9727,-103.6956 212.78,-55 224.9213,-38.0143 280.2504,-23.4077 315.61,-15.5882"/>
<polygon fill="#191970" stroke="#191970" points="316.3961,-18.9993 325.4368,-13.4752 314.9245,-12.1557 316.3961,-18.9993"/>
</g>
<!-- Node3 -->
<g id="node4" class="node">
<title>Node3</title>
<g id="a_node4"><a xlink:href="Ioss__CodeTypes_8h.html" target="_top" xlink:title="Ioss_CodeTypes.h">
<polygon fill="#ffffff" stroke="#000000" points="601.364,-55.5 601.364,-73.5 700.1961,-73.5 700.1961,-55.5 601.364,-55.5"/>
<text text-anchor="middle" x="650.78" y="-61.5" font-family="Helvetica,sans-Serif" font-size="10.00" fill="#000000">Ioss_CodeTypes.h</text>
</a>
</g>
</g>
<!-- Node2&#45;&gt;Node3 -->
<g id="edge3" class="edge">
<title>Node2&#45;&gt;Node3</title>
<path fill="none" stroke="#191970" d="M356.0126,-111.0868C419.3591,-101.0751 524.8449,-84.4035 590.9572,-73.9548"/>
<polygon fill="#191970" stroke="#191970" points="591.8862,-77.3515 601.2172,-72.3332 590.7934,-70.4373 591.8862,-77.3515"/>
</g>
<!-- Node2&#45;&gt;Node7 -->
<g id="edge14" class="edge">
<title>Node2&#45;&gt;Node7</title>
<path fill="none" stroke="#191970" d="M306.2989,-110.4982C313.3228,-92.5302 329.2073,-51.8954 338.5464,-28.0046"/>
<polygon fill="#191970" stroke="#191970" points="341.8315,-29.2141 342.2125,-18.6261 335.3119,-26.6655 341.8315,-29.2141"/>
</g>
<!-- Node2&#45;&gt;Node8 -->
<g id="edge15" class="edge">
<title>Node2&#45;&gt;Node8</title>
<path fill="none" stroke="#191970" d="M318.6559,-110.4982C352.4055,-91.3619 431.4986,-46.5153 471.97,-23.5675"/>
<polygon fill="#191970" stroke="#191970" points="473.7122,-26.6032 480.6848,-18.6261 470.2595,-20.5139 473.7122,-26.6032"/>
</g>
<!-- Node2&#45;&gt;Node11 -->
<g id="edge11" class="edge">
<title>Node2&#45;&gt;Node11</title>
<path fill="none" stroke="#191970" d="M252.2316,-110.4364C209.7158,-102.5001 147.152,-90.0933 84.7466,-74.351"/>
<polygon fill="#191970" stroke="#191970" points="85.2903,-70.8777 74.7354,-71.796 83.5592,-77.6603 85.2903,-70.8777"/>
</g>
<!-- Node12 -->
<g id="node13" class="node">
<title>Node12</title>
<polygon fill="#ffffff" stroke="#bfbfbf" points="221.3762,-55.5 221.3762,-73.5 280.1838,-73.5 280.1838,-55.5 221.3762,-55.5"/>
<text text-anchor="middle" x="250.78" y="-61.5" font-family="Helvetica,sans-Serif" font-size="10.00" fill="#000000">functional</text>
</g>
<!-- Node2&#45;&gt;Node12 -->
<g id="edge12" class="edge">
<title>Node2&#45;&gt;Node12</title>
<path fill="none" stroke="#191970" d="M294.1933,-110.4179C286.7112,-102.5041 275.6685,-90.8243 266.5929,-81.2251"/>
<polygon fill="#191970" stroke="#191970" points="268.9668,-78.6414 259.5533,-73.7795 263.8802,-83.4505 268.9668,-78.6414"/>
</g>
<!-- Node2&#45;&gt;Node13 -->
<g id="edge13" class="edge">
<title>Node2&#45;&gt;Node13</title>
<path fill="none" stroke="#191970" d="M270.91,-110.4179C233.6856,-99.8099 172.7155,-82.435 137.4144,-72.3751"/>
<polygon fill="#191970" stroke="#191970" points="138.3347,-68.998 127.7583,-69.6233 136.4162,-75.73 138.3347,-68.998"/>
</g>
<!-- Node4 -->
<g id="node5" class="node">
<title>Node4</title>
<polygon fill="#ffffff" stroke="#bfbfbf" points="536.3884,-.5 536.3884,-18.5 575.1716,-18.5 575.1716,-.5 536.3884,-.5"/>
<text text-anchor="middle" x="555.78" y="-6.5" font-family="Helvetica,sans-Serif" font-size="10.00" fill="#000000">array</text>
</g>
<!-- Node3&#45;&gt;Node4 -->
<g id="edge4" class="edge">
<title>Node3&#45;&gt;Node4</title>
<path fill="none" stroke="#191970" d="M635.0927,-55.4179C620.2411,-46.8195 597.7102,-33.7754 580.4531,-23.7844"/>
<polygon fill="#191970" stroke="#191970" points="581.8986,-20.577 571.4907,-18.5956 578.3913,-26.635 581.8986,-20.577"/>
</g>
<!-- Node3&#45;&gt;Node5 -->
<g id="edge5" class="edge">
<title>Node3&#45;&gt;Node5</title>
<path fill="none" stroke="#191970" d="M693.6666,-55.4402C732.3906,-47.1146 791.1489,-34.123 851.5924,-18.9494"/>
<polygon fill="#191970" stroke="#191970" points="852.4668,-22.3385 861.3049,-16.4957 850.7522,-15.5517 852.4668,-22.3385"/>
</g>
<!-- Node6 -->
<g id="node7" class="node">
<title>Node6</title>
<polygon fill="#ffffff" stroke="#bfbfbf" points="798.3294,-.5 798.3294,-18.5 843.2307,-18.5 843.2307,-.5 798.3294,-.5"/>
<text text-anchor="middle" x="820.78" y="-6.5" font-family="Helvetica,sans-Serif" font-size="10.00" fill="#000000">cstdint</text>
</g>
<!-- Node3&#45;&gt;Node6 -->
<g id="edge6" class="edge">
<title>Node3&#45;&gt;Node6</title>
<path fill="none" stroke="#191970" d="M678.8521,-55.4179C708.9763,-45.6718 756.7555,-30.2138 788.435,-19.9646"/>
<polygon fill="#191970" stroke="#191970" points="789.6749,-23.2421 798.112,-16.8338 787.5201,-16.582 789.6749,-23.2421"/>
</g>
<!-- Node3&#45;&gt;Node7 -->
<g id="edge7" class="edge">
<title>Node3&#45;&gt;Node7</title>
<path fill="none" stroke="#191970" d="M601.0977,-55.5409C537.456,-44.0645 429.0964,-24.5243 376.3873,-15.0193"/>
<polygon fill="#191970" stroke="#191970" points="376.781,-11.534 366.3186,-13.2037 375.5387,-18.4228 376.781,-11.534"/>
</g>
<!-- Node3&#45;&gt;Node8 -->
<g id="edge8" class="edge">
<title>Node3&#45;&gt;Node8</title>
<path fill="none" stroke="#191970" d="M625.3501,-55.4179C598.7559,-45.9199 556.9723,-30.9972 528.3007,-20.7574"/>
<polygon fill="#191970" stroke="#191970" points="529.3471,-17.4146 518.7524,-17.3473 526.9927,-24.0068 529.3471,-17.4146"/>
</g>
<!-- Node9 -->
<g id="node10" class="node">
<title>Node9</title>
<polygon fill="#ffffff" stroke="#bfbfbf" points="593.0315,-.5 593.0315,-18.5 708.5286,-18.5 708.5286,-.5 593.0315,-.5"/>
<text text-anchor="middle" x="650.78" y="-6.5" font-family="Helvetica,sans-Serif" font-size="10.00" fill="#000000">SEACASIoss_config.h</text>
</g>
<!-- Node3&#45;&gt;Node9 -->
<g id="edge9" class="edge">
<title>Node3&#45;&gt;Node9</title>
<path fill="none" stroke="#191970" d="M650.78,-55.4179C650.78,-48.2164 650.78,-37.8962 650.78,-28.8632"/>
<polygon fill="#191970" stroke="#191970" points="654.2801,-28.7794 650.78,-18.7795 647.2801,-28.7795 654.2801,-28.7794"/>
</g>
<!-- Node10 -->
<g id="node11" class="node">
<title>Node10</title>
<polygon fill="#ffffff" stroke="#bfbfbf" points="726.1619,-.5 726.1619,-18.5 779.3982,-18.5 779.3982,-.5 726.1619,-.5"/>
<text text-anchor="middle" x="752.78" y="-6.5" font-family="Helvetica,sans-Serif" font-size="10.00" fill="#000000">complex</text>
</g>
<!-- Node3&#45;&gt;Node10 -->
<g id="edge10" class="edge">
<title>Node3&#45;&gt;Node10</title>
<path fill="none" stroke="#191970" d="M667.6233,-55.4179C683.7907,-46.7001 708.4338,-33.4122 727.0576,-23.3699"/>
<polygon fill="#191970" stroke="#191970" points="728.771,-26.4225 735.9118,-18.5956 725.4487,-20.2611 728.771,-26.4225"/>
</g>
<!-- Node14&#45;&gt;Node2 -->
<g id="edge18" class="edge">
<title>Node14&#45;&gt;Node2</title>
<path fill="none" stroke="#191970" d="M205.5559,-165.4327C226.3155,-155.625 253.8497,-142.6167 274.3157,-132.9477"/>
<polygon fill="#191970" stroke="#191970" points="275.906,-136.0674 283.4526,-128.6311 272.9158,-129.7382 275.906,-136.0674"/>
</g>
<!-- Node14&#45;&gt;Node7 -->
<g id="edge19" class="edge">
<title>Node14&#45;&gt;Node7</title>
<path fill="none" stroke="#191970" d="M174.323,-165.1517C172.5664,-139.639 172.7701,-86.1449 200.78,-55 216.1406,-37.9202 277.6906,-23.0244 315.488,-15.2437"/>
<polygon fill="#191970" stroke="#191970" points="316.3453,-18.6415 325.4609,-13.2419 314.9676,-11.7784 316.3453,-18.6415"/>
</g>
<!-- Node15&#45;&gt;Node2 -->
<g id="edge23" class="edge">
<title>Node15&#45;&gt;Node2</title>
<path fill="none" stroke="#191970" d="M481.1519,-165.4327C440.5291,-154.9719 385.7672,-140.8701 347.6809,-131.0625"/>
<polygon fill="#191970" stroke="#191970" points="348.449,-127.6461 337.8921,-128.5417 346.7033,-134.425 348.449,-127.6461"/>
</g>
<!-- Node15&#45;&gt;Node3 -->
<g id="edge21" class="edge">
<title>Node15&#45;&gt;Node3</title>
<path fill="none" stroke="#191970" d="M536.2501,-165.3942C537.462,-150.1178 541.5228,-125.8187 554.78,-110 567.6747,-94.6139 586.9585,-84.0862 604.8674,-77.0669"/>
<polygon fill="#191970" stroke="#191970" points="606.4234,-80.2254 614.6261,-73.5197 604.032,-73.6466 606.4234,-80.2254"/>
</g>
<!-- Node15&#45;&gt;Node7 -->
<g id="edge22" class="edge">
<title>Node15&#45;&gt;Node7</title>
<path fill="none" stroke="#191970" d="M475.4599,-165.4927C452.2347,-157.7534 426.7596,-146.122 407.78,-129 376.9544,-101.1912 359.057,-54.4423 350.9877,-28.4242"/>
<polygon fill="#191970" stroke="#191970" points="354.2962,-27.2684 348.122,-18.6585 347.5794,-29.2395 354.2962,-27.2684"/>
</g>
<!-- Node16&#45;&gt;Node3 -->
<g id="edge25" class="edge">
<title>Node16&#45;&gt;Node3</title>
<path fill="none" stroke="#191970" d="M774.5009,-170.187C786.6172,-156.0857 805.5806,-128.9547 791.78,-110 781.4796,-95.8527 742.295,-83.8902 707.8409,-75.7868"/>
<polygon fill="#191970" stroke="#191970" points="708.3361,-72.31 697.8084,-73.5015 706.7813,-79.1352 708.3361,-72.31"/>
</g>
<!-- Node16&#45;&gt;Node5 -->
<g id="edge33" class="edge">
<title>Node16&#45;&gt;Node5</title>
<path fill="none" stroke="#191970" d="M779.3019,-170.3203C792.2104,-161.0467 811.5943,-145.7317 824.78,-129 850.0239,-96.9675 869.2716,-52.8522 878.9166,-28.1662"/>
<polygon fill="#191970" stroke="#191970" points="882.2767,-29.1766 882.5559,-18.5854 875.7329,-26.6908 882.2767,-29.1766"/>
</g>
<!-- Node16&#45;&gt;Node6 -->
<g id="edge34" class="edge">
<title>Node16&#45;&gt;Node6</title>
<path fill="none" stroke="#191970" d="M776.4401,-170.2569C786.3961,-160.9363 800.7462,-145.5875 807.78,-129 821.8466,-95.8277 822.8524,-53.0441 822.0163,-28.7027"/>
<polygon fill="#191970" stroke="#191970" points="825.5085,-28.4543 821.5251,-18.6368 818.5168,-28.7956 825.5085,-28.4543"/>
</g>
<!-- Node16&#45;&gt;Node7 -->
<g id="edge38" class="edge">
<title>Node16&#45;&gt;Node7</title>
<path fill="none" stroke="#191970" d="M731.8657,-175.9701C685.4842,-170.2988 600.32,-156.8443 532.78,-129 466.3602,-101.6175 397.4857,-50.7239 364.972,-25.0978"/>
<polygon fill="#191970" stroke="#191970" points="366.7989,-22.0781 356.798,-18.5806 362.435,-27.5513 366.7989,-22.0781"/>
</g>
<!-- Node16&#45;&gt;Node8 -->
<g id="edge39" class="edge">
<title>Node16&#45;&gt;Node8</title>
<path fill="none" stroke="#191970" d="M731.9345,-174.9761C679.5061,-167.3885 581.8657,-150.7657 554.78,-129 522.6926,-103.2149 507.1537,-55.2895 500.6861,-28.6353"/>
<polygon fill="#191970" stroke="#191970" points="504.0487,-27.6344 498.4479,-18.641 497.2179,-29.1642 504.0487,-27.6344"/>
</g>
<!-- Node17 -->
<g id="node18" class="node">
<title>Node17</title>
<g id="a_node18"><a xlink:href="Ioss__Field_8h.html" target="_top" xlink:title="Ioss_Field.h">
<polygon fill="#ffffff" stroke="#000000" points="563.822,-110.5 563.822,-128.5 633.738,-128.5 633.738,-110.5 563.822,-110.5"/>
<text text-anchor="middle" x="598.78" y="-116.5" font-family="Helvetica,sans-Serif" font-size="10.00" fill="#000000">Ioss_Field.h</text>
</a>
</g>
</g>
<!-- Node16&#45;&gt;Node17 -->
<g id="edge26" class="edge">
<title>Node16&#45;&gt;Node17</title>
<path fill="none" stroke="#191970" d="M740.4163,-170.3873C711.9285,-160.1521 665.5176,-143.4776 633.6351,-132.0228"/>
<polygon fill="#191970" stroke="#191970" points="634.4297,-128.5893 623.8353,-128.5019 632.0628,-135.177 634.4297,-128.5893"/>
</g>
<!-- Node16&#45;&gt;Node18 -->
<g id="edge31" class="edge">
<title>Node16&#45;&gt;Node18</title>
<path fill="none" stroke="#191970" d="M792.8144,-170.3873C823.4416,-160.0635 873.5046,-143.1883 907.5083,-131.7264"/>
<polygon fill="#191970" stroke="#191970" points="908.7163,-135.0128 917.0745,-128.5019 906.4803,-128.3795 908.7163,-135.0128"/>
</g>
<!-- Node16&#45;&gt;Node19 -->
<g id="edge32" class="edge">
<title>Node16&#45;&gt;Node19</title>
<path fill="none" stroke="#191970" d="M799.9551,-172.0711C840.7309,-163.0844 911.1763,-147.1713 980.5335,-129.2373"/>
<polygon fill="#191970" stroke="#191970" points="981.5131,-132.599 990.3097,-126.6938 979.7506,-125.8245 981.5131,-132.599"/>
</g>
<!-- Node16&#45;&gt;Node20 -->
<g id="edge35" class="edge">
<title>Node16&#45;&gt;Node20</title>
<path fill="none" stroke="#191970" d="M799.9129,-174.742C851.4007,-167.2718 952.1209,-151.5204 1046.5214,-129.0801"/>
<polygon fill="#191970" stroke="#191970" points="1047.615,-132.4169 1056.5175,-126.6726 1045.9759,-125.6114 1047.615,-132.4169"/>
</g>
<!-- Node21 -->
<g id="node22" class="node">
<title>Node21</title>
<polygon fill="#ffffff" stroke="#bfbfbf" points="651.6077,-110.5 651.6077,-128.5 705.9524,-128.5 705.9524,-110.5 651.6077,-110.5"/>
<text text-anchor="middle" x="678.78" y="-116.5" font-family="Helvetica,sans-Serif" font-size="10.00" fill="#000000">iostream</text>
</g>
<!-- Node16&#45;&gt;Node21 -->
<g id="edge36" class="edge">
<title>Node16&#45;&gt;Node21</title>
<path fill="none" stroke="#191970" d="M752.5666,-170.3873C738.6893,-160.8168 716.6482,-145.6159 700.2648,-134.3171"/>
<polygon fill="#191970" stroke="#191970" points="702.052,-131.298 691.8328,-128.5019 698.0778,-137.0605 702.052,-131.298"/>
</g>
<!-- Node22 -->
<g id="node23" class="node">
<title>Node22</title>
<polygon fill="#ffffff" stroke="#bfbfbf" points="724.3787,-110.5 724.3787,-128.5 783.1814,-128.5 783.1814,-110.5 724.3787,-110.5"/>
<text text-anchor="middle" x="753.78" y="-116.5" font-family="Helvetica,sans-Serif" font-size="10.00" fill="#000000">stdexcept</text>
</g>
<!-- Node16&#45;&gt;Node22 -->
<g id="edge37" class="edge">
<title>Node16&#45;&gt;Node22</title>
<path fill="none" stroke="#191970" d="M763.9575,-170.3873C762.2835,-162.0174 759.7483,-149.3414 757.627,-138.735"/>
<polygon fill="#191970" stroke="#191970" points="761.013,-137.8178 755.6197,-128.6985 754.1489,-139.1907 761.013,-137.8178"/>
</g>
<!-- Node17&#45;&gt;Node3 -->
<g id="edge27" class="edge">
<title>Node17&#45;&gt;Node3</title>
<path fill="none" stroke="#191970" d="M607.3668,-110.4179C614.8489,-102.5041 625.8916,-90.8243 634.9672,-81.2251"/>
<polygon fill="#191970" stroke="#191970" points="637.6799,-83.4505 642.0067,-73.7795 632.5933,-78.6414 637.6799,-83.4505"/>
</g>
<!-- Node17&#45;&gt;Node5 -->
<g id="edge28" class="edge">
<title>Node17&#45;&gt;Node5</title>
<path fill="none" stroke="#191970" d="M622.2665,-110.4982C673.141,-90.9993 793.6619,-44.8066 852.4174,-22.2871"/>
<polygon fill="#191970" stroke="#191970" points="853.8841,-25.4733 861.9691,-18.6261 851.3788,-18.9369 853.8841,-25.4733"/>
</g>
<!-- Node17&#45;&gt;Node7 -->
<g id="edge29" class="edge">
<title>Node17&#45;&gt;Node7</title>
<path fill="none" stroke="#191970" d="M578.076,-110.4982C533.2846,-91.0237 427.2516,-44.9224 375.3854,-22.3719"/>
<polygon fill="#191970" stroke="#191970" points="376.6293,-19.0963 366.0631,-18.3187 373.8382,-25.5158 376.6293,-19.0963"/>
</g>
<!-- Node17&#45;&gt;Node8 -->
<g id="edge30" class="edge">
<title>Node17&#45;&gt;Node8</title>
<path fill="none" stroke="#191970" d="M592.6855,-110.2599C583.9287,-97.2864 566.9437,-73.2207 549.78,-55 539.6459,-44.2417 527.1487,-33.4145 516.8352,-25.0223"/>
<polygon fill="#191970" stroke="#191970" points="518.7854,-22.1007 508.7854,-18.6005 514.42,-27.5728 518.7854,-22.1007"/>
</g>
</g>
</svg>
