<?xml version="1.0" encoding="UTF-8" standalone="no"?>
<!DOCTYPE svg PUBLIC "-//W3C//DTD SVG 1.1//EN"
 "http://www.w3.org/Graphics/SVG/1.1/DTD/svg11.dtd">
<!-- Generated by graphviz version 2.40.1 (20161225.0304)
 -->
<!-- Title: src/Ioss_Pyramid5.h Pages: 1 -->
<svg width="406pt" height="147pt"
 viewBox="0.00 0.00 405.88 147.00" xmlns="http://www.w3.org/2000/svg" xmlns:xlink="http://www.w3.org/1999/xlink">
<g id="graph0" class="graph" transform="scale(1 1) rotate(0) translate(4 143)">
<title>src/Ioss_Pyramid5.h</title>
<polygon fill="#ffffff" stroke="transparent" points="-4,4 -4,-143 401.8789,-143 401.8789,4 -4,4"/>
<!-- Node11 -->
<g id="node1" class="node">
<title>Node11</title>
<polygon fill="#bfbfbf" stroke="#000000" points="138.9458,-120.5 138.9458,-138.5 245.5317,-138.5 245.5317,-120.5 138.9458,-120.5"/>
<text text-anchor="middle" x="192.2388" y="-126.5" font-family="Helvetica,sans-Serif" font-size="10.00" fill="#000000">src/Ioss_Pyramid5.h</text>
</g>
<!-- Node12 -->
<g id="node2" class="node">
<title>Node12</title>
<g id="a_node2"><a xlink:href="$Iocgns__Utils_8C.html" xlink:title="src/cgns/Iocgns_Utils.C">
<polygon fill="#ffffff" stroke="#000000" points="0,-60.5 0,-78.5 120.4775,-78.5 120.4775,-60.5 0,-60.5"/>
<text text-anchor="middle" x="60.2388" y="-66.5" font-family="Helvetica,sans-Serif" font-size="10.00" fill="#000000">src/cgns/Iocgns_Utils.C</text>
</a>
</g>
</g>
<!-- Node11&#45;&gt;Node12 -->
<g id="edge1" class="edge">
<title>Node11&#45;&gt;Node12</title>
<path fill="none" stroke="#191970" d="M162.7572,-116.0993C137.5505,-104.6417 101.9722,-88.4698 80.0429,-78.5019"/>
<polygon fill="#191970" stroke="#191970" points="161.6388,-119.4355 172.1908,-120.3873 164.5355,-113.0629 161.6388,-119.4355"/>
</g>
<!-- Node13 -->
<g id="node3" class="node">
<title>Node13</title>
<g id="a_node3"><a xlink:href="$Ioss__Pyramid5_8C.html" xlink:title="src/Ioss_Pyramid5.C">
<polygon fill="#ffffff" stroke="#000000" points="138.1157,-60.5 138.1157,-78.5 246.3618,-78.5 246.3618,-60.5 138.1157,-60.5"/>
<text text-anchor="middle" x="192.2388" y="-66.5" font-family="Helvetica,sans-Serif" font-size="10.00" fill="#000000">src/Ioss_Pyramid5.C</text>
</a>
</g>
</g>
<!-- Node11&#45;&gt;Node13 -->
<g id="edge2" class="edge">
<title>Node11&#45;&gt;Node13</title>
<path fill="none" stroke="#191970" d="M192.2388,-110.3734C192.2388,-99.7812 192.2388,-87.0976 192.2388,-78.6985"/>
<polygon fill="#191970" stroke="#191970" points="188.7389,-110.3873 192.2388,-120.3873 195.7389,-110.3873 188.7389,-110.3873"/>
</g>
<!-- Node14 -->
<g id="node4" class="node">
<title>Node14</title>
<g id="a_node4"><a xlink:href="$Ioss__StandardElementTypes_8h.html" xlink:title="src/Ioss_StandardElement\lTypes.h">
<polygon fill="#ffffff" stroke="#000000" points="264.5986,-55.5 264.5986,-83.5 397.8789,-83.5 397.8789,-55.5 264.5986,-55.5"/>
<text text-anchor="start" x="272.5986" y="-71.5" font-family="Helvetica,sans-Serif" font-size="10.00" fill="#000000">src/Ioss_StandardElement</text>
<text text-anchor="middle" x="331.2388" y="-61.5" font-family="Helvetica,sans-Serif" font-size="10.00" fill="#000000">Types.h</text>
</a>
</g>
</g>
<!-- Node11&#45;&gt;Node14 -->
<g id="edge3" class="edge">
<title>Node11&#45;&gt;Node14</title>
<path fill="none" stroke="#191970" d="M222.7628,-116.3242C245.273,-106.6075 275.8447,-93.4111 298.7961,-83.504"/>
<polygon fill="#191970" stroke="#191970" points="221.144,-113.2107 213.3499,-120.3873 223.9182,-119.6375 221.144,-113.2107"/>
</g>
<!-- Node15 -->
<g id="node5" class="node">
<title>Node15</title>
<g id="a_node5"><a xlink:href="$Ioss__Initializer_8C.html" xlink:title="src/Ioss_Initializer.C">
<polygon fill="#ffffff" stroke="#000000" points="278.7783,-.5 278.7783,-18.5 383.6992,-18.5 383.6992,-.5 278.7783,-.5"/>
<text text-anchor="middle" x="331.2388" y="-6.5" font-family="Helvetica,sans-Serif" font-size="10.00" fill="#000000">src/Ioss_Initializer.C</text>
</a>
</g>
</g>
<!-- Node14&#45;&gt;Node15 -->
<g id="edge4" class="edge">
<title>Node14&#45;&gt;Node15</title>
<path fill="none" stroke="#191970" d="M331.2388,-45.2151C331.2388,-35.8253 331.2388,-25.6598 331.2388,-18.5842"/>
<polygon fill="#191970" stroke="#191970" points="327.7389,-45.2808 331.2388,-55.2808 334.7389,-45.2809 327.7389,-45.2808"/>
</g>
</g>
</svg>
