<?xml version="1.0" encoding="UTF-8" standalone="no"?>
<!DOCTYPE svg PUBLIC "-//W3C//DTD SVG 1.1//EN"
 "http://www.w3.org/Graphics/SVG/1.1/DTD/svg11.dtd">
<!-- Generated by graphviz version 2.40.1 (20161225.0304)
 -->
<!-- Title: src/Ioss_FileInfo.C Pages: 1 -->
<svg width="861pt" height="192pt"
 viewBox="0.00 0.00 860.63 192.00" xmlns="http://www.w3.org/2000/svg" xmlns:xlink="http://www.w3.org/1999/xlink">
<g id="graph0" class="graph" transform="scale(1 1) rotate(0) translate(4 188)">
<title>src/Ioss_FileInfo.C</title>
<polygon fill="#ffffff" stroke="transparent" points="-4,4 -4,-188 856.6328,-188 856.6328,4 -4,4"/>
<!-- Node0 -->
<g id="node1" class="node">
<title>Node0</title>
<polygon fill="#bfbfbf" stroke="#000000" points="476.7192,-165.5 476.7192,-183.5 575.522,-183.5 575.522,-165.5 476.7192,-165.5"/>
<text text-anchor="middle" x="526.1206" y="-171.5" font-family="Helvetica,sans-Serif" font-size="10.00" fill="#000000">src/Ioss_FileInfo.C</text>
</g>
<!-- Node1 -->
<g id="node2" class="node">
<title>Node1</title>
<g id="a_node2"><a xlink:href="$Ioss__CodeTypes_8h.html" xlink:title="Ioss_CodeTypes.h">
<polygon fill="#ffffff" stroke="#000000" points="237.7046,-55.5 237.7046,-73.5 336.5366,-73.5 336.5366,-55.5 237.7046,-55.5"/>
<text text-anchor="middle" x="287.1206" y="-61.5" font-family="Helvetica,sans-Serif" font-size="10.00" fill="#000000">Ioss_CodeTypes.h</text>
</a>
</g>
</g>
<!-- Node0&#45;&gt;Node1 -->
<g id="edge1" class="edge">
<title>Node0&#45;&gt;Node1</title>
<path fill="none" stroke="#191970" d="M476.3447,-168.9543C439.5123,-163.1692 389.1719,-151.6231 350.1206,-129 329.4822,-117.0438 311.0927,-96.4695 299.5867,-81.7722"/>
<polygon fill="#191970" stroke="#191970" points="302.1702,-79.3852 293.3536,-73.5101 296.5821,-83.6011 302.1702,-79.3852"/>
</g>
<!-- Node3 -->
<g id="node4" class="node">
<title>Node3</title>
<polygon fill="#ffffff" stroke="#bfbfbf" points="0,-.5 0,-18.5 48.2412,-18.5 48.2412,-.5 0,-.5"/>
<text text-anchor="middle" x="24.1206" y="-6.5" font-family="Helvetica,sans-Serif" font-size="10.00" fill="#000000">cstddef</text>
</g>
<!-- Node0&#45;&gt;Node3 -->
<g id="edge14" class="edge">
<title>Node0&#45;&gt;Node3</title>
<path fill="none" stroke="#191970" d="M476.3165,-165.6429C434.861,-157.7232 374.5264,-144.9217 323.1206,-129 221.534,-97.536 105.813,-46.8436 53.064,-22.8763"/>
<polygon fill="#191970" stroke="#191970" points="54.2208,-19.557 43.6704,-18.5877 51.3136,-25.9248 54.2208,-19.557"/>
</g>
<!-- Node5 -->
<g id="node6" class="node">
<title>Node5</title>
<polygon fill="#ffffff" stroke="#bfbfbf" points="451.894,-.5 451.894,-18.5 492.3472,-18.5 492.3472,-.5 451.894,-.5"/>
<text text-anchor="middle" x="472.1206" y="-6.5" font-family="Helvetica,sans-Serif" font-size="10.00" fill="#000000">string</text>
</g>
<!-- Node0&#45;&gt;Node5 -->
<g id="edge15" class="edge">
<title>Node0&#45;&gt;Node5</title>
<path fill="none" stroke="#191970" d="M477.6906,-165.429C440.8281,-157.4245 394.5386,-144.615 383.1206,-129 355.3684,-91.0466 411.8877,-46.7479 447.0039,-24.2459"/>
<polygon fill="#191970" stroke="#191970" points="449.1874,-27.0097 455.8299,-18.7558 445.49,-21.0658 449.1874,-27.0097"/>
</g>
<!-- Node9 -->
<g id="node10" class="node">
<title>Node9</title>
<g id="a_node10"><a xlink:href="$Ioss__FileInfo_8h.html" xlink:title="Ioss_FileInfo.h">
<polygon fill="#ffffff" stroke="#000000" points="392.6035,-110.5 392.6035,-128.5 473.6377,-128.5 473.6377,-110.5 392.6035,-110.5"/>
<text text-anchor="middle" x="433.1206" y="-116.5" font-family="Helvetica,sans-Serif" font-size="10.00" fill="#000000">Ioss_FileInfo.h</text>
</a>
</g>
</g>
<!-- Node0&#45;&gt;Node9 -->
<g id="edge9" class="edge">
<title>Node0&#45;&gt;Node9</title>
<path fill="none" stroke="#191970" d="M510.7635,-165.4179C496.2245,-156.8195 474.1681,-143.7754 457.2743,-133.7844"/>
<polygon fill="#191970" stroke="#191970" points="458.8896,-130.6735 448.5005,-128.5956 455.3263,-136.6987 458.8896,-130.6735"/>
</g>
<!-- Node12 -->
<g id="node13" class="node">
<title>Node12</title>
<polygon fill="#ffffff" stroke="#bfbfbf" points="492,-110.5 492,-128.5 560.2412,-128.5 560.2412,-110.5 492,-110.5"/>
<text text-anchor="middle" x="526.1206" y="-116.5" font-family="Helvetica,sans-Serif" font-size="10.00" fill="#000000">sys/select.h</text>
</g>
<!-- Node0&#45;&gt;Node12 -->
<g id="edge16" class="edge">
<title>Node0&#45;&gt;Node12</title>
<path fill="none" stroke="#191970" d="M526.1206,-165.4179C526.1206,-158.2164 526.1206,-147.8962 526.1206,-138.8632"/>
<polygon fill="#191970" stroke="#191970" points="529.6207,-138.7794 526.1206,-128.7795 522.6207,-138.7795 529.6207,-138.7794"/>
</g>
<!-- Node13 -->
<g id="node14" class="node">
<title>Node13</title>
<polygon fill="#ffffff" stroke="#bfbfbf" points="578.7192,-110.5 578.7192,-128.5 647.522,-128.5 647.522,-110.5 578.7192,-110.5"/>
<text text-anchor="middle" x="613.1206" y="-116.5" font-family="Helvetica,sans-Serif" font-size="10.00" fill="#000000">sys/unistd.h</text>
</g>
<!-- Node0&#45;&gt;Node13 -->
<g id="edge17" class="edge">
<title>Node0&#45;&gt;Node13</title>
<path fill="none" stroke="#191970" d="M540.4869,-165.4179C553.9619,-156.8992 574.3399,-144.0166 590.085,-134.0627"/>
<polygon fill="#191970" stroke="#191970" points="592.1507,-136.8977 598.733,-128.5956 588.4101,-130.9808 592.1507,-136.8977"/>
</g>
<!-- Node14 -->
<g id="node15" class="node">
<title>Node14</title>
<polygon fill="#ffffff" stroke="#bfbfbf" points="665.0591,-110.5 665.0591,-128.5 707.1821,-128.5 707.1821,-110.5 665.0591,-110.5"/>
<text text-anchor="middle" x="686.1206" y="-116.5" font-family="Helvetica,sans-Serif" font-size="10.00" fill="#000000">cstdio</text>
</g>
<!-- Node0&#45;&gt;Node14 -->
<g id="edge18" class="edge">
<title>Node0&#45;&gt;Node14</title>
<path fill="none" stroke="#191970" d="M552.5414,-165.4179C580.7708,-155.714 625.4732,-140.3475 655.2901,-130.098"/>
<polygon fill="#191970" stroke="#191970" points="656.4669,-133.3946 664.786,-126.8338 654.1913,-126.7747 656.4669,-133.3946"/>
</g>
<!-- Node15 -->
<g id="node16" class="node">
<title>Node15</title>
<polygon fill="#ffffff" stroke="#bfbfbf" points="725.0024,-110.5 725.0024,-128.5 783.2388,-128.5 783.2388,-110.5 725.0024,-110.5"/>
<text text-anchor="middle" x="754.1206" y="-116.5" font-family="Helvetica,sans-Serif" font-size="10.00" fill="#000000">sys/stat.h</text>
</g>
<!-- Node0&#45;&gt;Node15 -->
<g id="edge19" class="edge">
<title>Node0&#45;&gt;Node15</title>
<path fill="none" stroke="#191970" d="M564.3593,-165.4606C600.6481,-156.8559 656.9855,-143.43 714.6515,-129.344"/>
<polygon fill="#191970" stroke="#191970" points="715.7874,-132.6694 724.6693,-126.8935 714.124,-125.8699 715.7874,-132.6694"/>
</g>
<!-- Node16 -->
<g id="node17" class="node">
<title>Node16</title>
<polygon fill="#ffffff" stroke="#bfbfbf" points="801.6084,-110.5 801.6084,-128.5 852.6328,-128.5 852.6328,-110.5 801.6084,-110.5"/>
<text text-anchor="middle" x="827.1206" y="-116.5" font-family="Helvetica,sans-Serif" font-size="10.00" fill="#000000">unistd.h</text>
</g>
<!-- Node0&#45;&gt;Node16 -->
<g id="edge20" class="edge">
<title>Node0&#45;&gt;Node16</title>
<path fill="none" stroke="#191970" d="M575.9113,-167.438C627.4671,-159.8007 710.5151,-146.5925 791.6885,-128.9143"/>
<polygon fill="#191970" stroke="#191970" points="792.5632,-132.3056 801.5762,-126.7364 791.0574,-125.4695 792.5632,-132.3056"/>
</g>
<!-- Node2 -->
<g id="node3" class="node">
<title>Node2</title>
<polygon fill="#ffffff" stroke="#bfbfbf" points="394.729,-.5 394.729,-18.5 433.5122,-18.5 433.5122,-.5 394.729,-.5"/>
<text text-anchor="middle" x="414.1206" y="-6.5" font-family="Helvetica,sans-Serif" font-size="10.00" fill="#000000">array</text>
</g>
<!-- Node1&#45;&gt;Node2 -->
<g id="edge2" class="edge">
<title>Node1&#45;&gt;Node2</title>
<path fill="none" stroke="#191970" d="M308.0921,-55.4179C329.0516,-46.3409 361.4517,-32.3094 384.9207,-22.1456"/>
<polygon fill="#191970" stroke="#191970" points="386.5872,-25.2381 394.3727,-18.0522 383.8053,-18.8146 386.5872,-25.2381"/>
</g>
<!-- Node1&#45;&gt;Node3 -->
<g id="edge3" class="edge">
<title>Node1&#45;&gt;Node3</title>
<path fill="none" stroke="#191970" d="M237.2984,-55.7345C192.9314,-47.6736 126.0608,-34.901 58.5407,-18.9501"/>
<polygon fill="#191970" stroke="#191970" points="59.1157,-15.4891 48.5765,-16.5738 57.4918,-22.2982 59.1157,-15.4891"/>
</g>
<!-- Node4 -->
<g id="node5" class="node">
<title>Node4</title>
<polygon fill="#ffffff" stroke="#bfbfbf" points="66.6699,-.5 66.6699,-18.5 111.5713,-18.5 111.5713,-.5 66.6699,-.5"/>
<text text-anchor="middle" x="89.1206" y="-6.5" font-family="Helvetica,sans-Serif" font-size="10.00" fill="#000000">cstdint</text>
</g>
<!-- Node1&#45;&gt;Node4 -->
<g id="edge4" class="edge">
<title>Node1&#45;&gt;Node4</title>
<path fill="none" stroke="#191970" d="M252.81,-55.4888C221.0356,-47.0692 172.2338,-33.9501 121.5931,-19.3708"/>
<polygon fill="#191970" stroke="#191970" points="122.3617,-15.9497 111.783,-16.5346 120.4175,-22.6743 122.3617,-15.9497"/>
</g>
<!-- Node1&#45;&gt;Node5 -->
<g id="edge5" class="edge">
<title>Node1&#45;&gt;Node5</title>
<path fill="none" stroke="#191970" d="M318.6465,-55.4573C350.0065,-46.4123 399.4694,-32.0116 442.1206,-19 442.2186,-18.9701 442.3167,-18.9401 442.4151,-18.9101"/>
<polygon fill="#191970" stroke="#191970" points="443.2916,-22.3028 451.8055,-15.997 441.2175,-15.6171 443.2916,-22.3028"/>
</g>
<!-- Node6 -->
<g id="node7" class="node">
<title>Node6</title>
<polygon fill="#ffffff" stroke="#bfbfbf" points="129.5049,-.5 129.5049,-18.5 172.7363,-18.5 172.7363,-.5 129.5049,-.5"/>
<text text-anchor="middle" x="151.1206" y="-6.5" font-family="Helvetica,sans-Serif" font-size="10.00" fill="#000000">vector</text>
</g>
<!-- Node1&#45;&gt;Node6 -->
<g id="edge6" class="edge">
<title>Node1&#45;&gt;Node6</title>
<path fill="none" stroke="#191970" d="M264.663,-55.4179C242.2841,-46.3676 207.7259,-32.3919 182.6118,-22.2354"/>
<polygon fill="#191970" stroke="#191970" points="183.7432,-18.9176 173.1604,-18.4131 181.1187,-25.407 183.7432,-18.9176"/>
</g>
<!-- Node7 -->
<g id="node8" class="node">
<title>Node7</title>
<polygon fill="#ffffff" stroke="#bfbfbf" points="190.3721,-.5 190.3721,-18.5 305.8691,-18.5 305.8691,-.5 190.3721,-.5"/>
<text text-anchor="middle" x="248.1206" y="-6.5" font-family="Helvetica,sans-Serif" font-size="10.00" fill="#000000">SEACASIoss_config.h</text>
</g>
<!-- Node1&#45;&gt;Node7 -->
<g id="edge7" class="edge">
<title>Node1&#45;&gt;Node7</title>
<path fill="none" stroke="#191970" d="M280.6805,-55.4179C275.2373,-47.7415 267.2815,-36.5217 260.5967,-27.0945"/>
<polygon fill="#191970" stroke="#191970" points="263.34,-24.9123 254.7006,-18.7795 257.6298,-28.9613 263.34,-24.9123"/>
</g>
<!-- Node8 -->
<g id="node9" class="node">
<title>Node8</title>
<polygon fill="#ffffff" stroke="#bfbfbf" points="323.5024,-.5 323.5024,-18.5 376.7388,-18.5 376.7388,-.5 323.5024,-.5"/>
<text text-anchor="middle" x="350.1206" y="-6.5" font-family="Helvetica,sans-Serif" font-size="10.00" fill="#000000">complex</text>
</g>
<!-- Node1&#45;&gt;Node8 -->
<g id="edge8" class="edge">
<title>Node1&#45;&gt;Node8</title>
<path fill="none" stroke="#191970" d="M297.5238,-55.4179C306.8606,-47.2667 320.7739,-35.1201 331.9457,-25.3669"/>
<polygon fill="#191970" stroke="#191970" points="334.26,-27.9927 339.4914,-18.7795 329.6564,-22.7194 334.26,-27.9927"/>
</g>
<!-- Node9&#45;&gt;Node1 -->
<g id="edge10" class="edge">
<title>Node9&#45;&gt;Node1</title>
<path fill="none" stroke="#191970" d="M409.0117,-110.4179C384.919,-101.3419 347.6769,-87.3123 320.6975,-77.1488"/>
<polygon fill="#191970" stroke="#191970" points="321.8572,-73.8457 311.2654,-73.5956 319.3895,-80.3963 321.8572,-73.8457"/>
</g>
<!-- Node9&#45;&gt;Node5 -->
<g id="edge12" class="edge">
<title>Node9&#45;&gt;Node5</title>
<path fill="none" stroke="#191970" d="M432.0552,-110.393C430.9132,-97.5777 430.1076,-73.6987 437.1206,-55 441.1207,-44.3346 448.5257,-34.123 455.4979,-26.0859"/>
<polygon fill="#191970" stroke="#191970" points="458.228,-28.2887 462.4461,-18.5698 453.0878,-23.537 458.228,-28.2887"/>
</g>
<!-- Node10 -->
<g id="node11" class="node">
<title>Node10</title>
<polygon fill="#ffffff" stroke="#bfbfbf" points="446.1748,-55.5 446.1748,-73.5 486.0664,-73.5 486.0664,-55.5 446.1748,-55.5"/>
<text text-anchor="middle" x="466.1206" y="-61.5" font-family="Helvetica,sans-Serif" font-size="10.00" fill="#000000">ctime</text>
</g>
<!-- Node9&#45;&gt;Node10 -->
<g id="edge11" class="edge">
<title>Node9&#45;&gt;Node10</title>
<path fill="none" stroke="#191970" d="M438.5699,-110.4179C443.1282,-102.8207 449.769,-91.7527 455.3886,-82.3866"/>
<polygon fill="#191970" stroke="#191970" points="458.4092,-84.1552 460.5529,-73.7795 452.4067,-80.5536 458.4092,-84.1552"/>
</g>
<!-- Node11 -->
<g id="node12" class="node">
<title>Node11</title>
<polygon fill="#ffffff" stroke="#bfbfbf" points="504.1108,-55.5 504.1108,-73.5 570.1304,-73.5 570.1304,-55.5 504.1108,-55.5"/>
<text text-anchor="middle" x="537.1206" y="-61.5" font-family="Helvetica,sans-Serif" font-size="10.00" fill="#000000">sys/types.h</text>
</g>
<!-- Node9&#45;&gt;Node11 -->
<g id="edge13" class="edge">
<title>Node9&#45;&gt;Node11</title>
<path fill="none" stroke="#191970" d="M450.2941,-110.4179C466.7786,-101.7001 491.9048,-88.4122 510.8939,-78.3699"/>
<polygon fill="#191970" stroke="#191970" points="512.7179,-81.3646 519.9216,-73.5956 509.4454,-75.1767 512.7179,-81.3646"/>
</g>
</g>
</svg>
