<?xml version="1.0" encoding="UTF-8" standalone="no"?>
<!DOCTYPE svg PUBLIC "-//W3C//DTD SVG 1.1//EN"
 "http://www.w3.org/Graphics/SVG/1.1/DTD/svg11.dtd">
<!-- Generated by graphviz version 2.40.1 (20161225.0304)
 -->
<!-- Title: src/Ioss_MeshType.h Pages: 1 -->
<!--zoomable 222 -->
<svg id="main" version="1.1" xmlns="http://www.w3.org/2000/svg" xmlns:xlink="http://www.w3.org/1999/xlink" xml:space="preserve" onload="init(evt)">
<style type="text/css"><![CDATA[
.edge:hover path { stroke: red; }
.edge:hover polygon { stroke: red; fill: red; }
]]></style>
<script type="text/javascript"><![CDATA[
var edges = document.getElementsByTagName('g');
if (edges && edges.length) {
  for (var i=0;i<edges.length;i++) {
    if (edges[i].id.substr(0,4)=='edge') {
      edges[i].setAttribute('class','edge');
    }
  }
}
]]></script>
        <defs>
                <circle id="rim" cx="0" cy="0" r="7"/>
                <circle id="rim2" cx="0" cy="0" r="3.5"/>
                <g id="zoomPlus">
                        <use xlink:href="#rim" fill="#404040">
                                <set attributeName="fill" to="#808080" begin="zoomplus.mouseover" end="zoomplus.mouseout"/>
                        </use>
                        <path d="M-4,0h8M0,-4v8" fill="none" stroke="white" stroke-width="1.5" pointer-events="none"/>
                </g>
                <g id="zoomMin">
                        <use xlink:href="#rim" fill="#404040">
                                <set attributeName="fill" to="#808080" begin="zoomminus.mouseover" end="zoomminus.mouseout"/>
                        </use>
                        <path d="M-4,0h8" fill="none" stroke="white" stroke-width="1.5" pointer-events="none"/>
                </g>
                <g id="dirArrow">
                        <path fill="none" stroke="white" stroke-width="1.5" d="M0,-3.0v7 M-2.5,-0.5L0,-3.0L2.5,-0.5"/>
                </g>
               <g id="resetDef">
                       <use xlink:href="#rim2" fill="#404040">
                               <set attributeName="fill" to="#808080" begin="reset.mouseover" end="reset.mouseout"/>
                       </use>
               </g>
        </defs>

<script type="text/javascript">
var viewWidth = 3543;
var viewHeight = 222;
var sectionId = 'dynsection-0';
</script>
<script xlink:href="svgpan.js"/>
<svg id="graph" class="graph">
<g id="viewport">
<title>src/Ioss_MeshType.h</title>
<polygon fill="#ffffff" stroke="transparent" points="-4,4 -4,-218 3539.0115,-218 3539.0115,4 -4,4"/>
<!-- Node1 -->
<g id="node1" class="node">
<title>Node1</title>
<g id="a_node1"><a xlink:title=" ">
<polygon fill="#bfbfbf" stroke="#000000" points="1796.3447,-195.5 1796.3447,-213.5 1906.832,-213.5 1906.832,-195.5 1796.3447,-195.5"/>
<text text-anchor="middle" x="1851.5884" y="-201.5" font-family="Helvetica,sans-Serif" font-size="10.00" fill="#000000">src/Ioss_MeshType.h</text>
</a>
</g>
</g>
<!-- Node2 -->
<g id="node2" class="node">
<title>Node2</title>
<g id="a_node2"><a xlink:href="Iocgns__DecompositionData_8h.html" target="_top" xlink:title=" ">
<polygon fill="#ffffff" stroke="#000000" points="130,-130.5 130,-158.5 287.1768,-158.5 287.1768,-130.5 130,-130.5"/>
<text text-anchor="start" x="138" y="-146.5" font-family="Helvetica,sans-Serif" font-size="10.00" fill="#000000">src/cgns/Iocgns_Decomposition</text>
<text text-anchor="middle" x="208.5884" y="-136.5" font-family="Helvetica,sans-Serif" font-size="10.00" fill="#000000">Data.h</text>
</a>
</g>
</g>
<!-- Node1&#45;&gt;Node2 -->
<g id="edge1" class="edge">
<title>Node1&#45;&gt;Node2</title>
<path fill="none" stroke="#191970" d="M1785.9413,-202.1027C1526.0482,-192.6117 569.6663,-157.686 287.4697,-147.3806"/>
<polygon fill="#191970" stroke="#191970" points="1785.8603,-205.6019 1795.9814,-202.4693 1786.1158,-198.6066 1785.8603,-205.6019"/>
</g>
<!-- Node4 -->
<g id="node4" class="node">
<title>Node4</title>
<g id="a_node4"><a xlink:href="Iocgns__ParallelDatabaseIO_8h.html" target="_top" xlink:title=" ">
<polygon fill="#ffffff" stroke="#000000" points="146.3965,-65.5 146.3965,-93.5 270.7803,-93.5 270.7803,-65.5 146.3965,-65.5"/>
<text text-anchor="start" x="154.3965" y="-81.5" font-family="Helvetica,sans-Serif" font-size="10.00" fill="#000000">src/cgns/Iocgns_Parallel</text>
<text text-anchor="middle" x="208.5884" y="-71.5" font-family="Helvetica,sans-Serif" font-size="10.00" fill="#000000">DatabaseIO.h</text>
</a>
</g>
</g>
<!-- Node1&#45;&gt;Node4 -->
<g id="edge5" class="edge">
<title>Node1&#45;&gt;Node4</title>
<path fill="none" stroke="#191970" d="M1785.9056,-202.3055C1570.7076,-194.5919 867.6005,-165.2418 290.5884,-94 284.2752,-93.2205 277.7099,-92.2807 271.1655,-91.2586"/>
<polygon fill="#191970" stroke="#191970" points="1785.9653,-205.8097 1796.0833,-202.6671 1786.2139,-198.8141 1785.9653,-205.8097"/>
</g>
<!-- Node6 -->
<g id="node6" class="node">
<title>Node6</title>
<g id="a_node6"><a xlink:href="Ioss__Region_8h.html" target="_top" xlink:title=" ">
<polygon fill="#ffffff" stroke="#000000" points="1803.5688,-135.5 1803.5688,-153.5 1899.6079,-153.5 1899.6079,-135.5 1803.5688,-135.5"/>
<text text-anchor="middle" x="1851.5884" y="-141.5" font-family="Helvetica,sans-Serif" font-size="10.00" fill="#000000">src/Ioss_Region.h</text>
</a>
</g>
</g>
<!-- Node1&#45;&gt;Node6 -->
<g id="edge6" class="edge">
<title>Node1&#45;&gt;Node6</title>
<path fill="none" stroke="#191970" d="M1851.5884,-185.3734C1851.5884,-174.7812 1851.5884,-162.0976 1851.5884,-153.6985"/>
<polygon fill="#191970" stroke="#191970" points="1848.0885,-185.3873 1851.5884,-195.3873 1855.0885,-185.3873 1848.0885,-185.3873"/>
</g>
<!-- Node31 -->
<g id="node31" class="node">
<title>Node31</title>
<g id="a_node31"><a xlink:href="io__shell_8C.html" target="_top" xlink:title=" ">
<polygon fill="#ffffff" stroke="#000000" points="2824.3521,-5.5 2824.3521,-23.5 2924.8247,-23.5 2924.8247,-5.5 2824.3521,-5.5"/>
<text text-anchor="middle" x="2874.5884" y="-11.5" font-family="Helvetica,sans-Serif" font-size="10.00" fill="#000000">src/main/io_shell.C</text>
</a>
</g>
</g>
<!-- Node1&#45;&gt;Node31 -->
<g id="edge48" class="edge">
<title>Node1&#45;&gt;Node31</title>
<path fill="none" stroke="#191970" d="M1917.3983,-202.6048C2218.8054,-193.6123 3455.1934,-153.2073 3510.5884,-94 3598.7447,.2234 3061.1408,-48.4928 2933.5884,-29 2924.8299,-27.6615 2915.4668,-25.6402 2906.839,-23.5284"/>
<polygon fill="#191970" stroke="#191970" points="1916.9659,-199.116 1907.0743,-202.9114 1917.1738,-206.1129 1916.9659,-199.116"/>
</g>
<!-- Node32 -->
<g id="node32" class="node">
<title>Node32</title>
<g id="a_node32"><a xlink:href="io__shell__ts_8C.html" target="_top" xlink:title=" ">
<polygon fill="#ffffff" stroke="#000000" points="2942.6821,-5.5 2942.6821,-23.5 3056.4946,-23.5 3056.4946,-5.5 2942.6821,-5.5"/>
<text text-anchor="middle" x="2999.5884" y="-11.5" font-family="Helvetica,sans-Serif" font-size="10.00" fill="#000000">src/main/io_shell_ts.C</text>
</a>
</g>
</g>
<!-- Node1&#45;&gt;Node32 -->
<g id="edge49" class="edge">
<title>Node1&#45;&gt;Node32</title>
<path fill="none" stroke="#191970" d="M1917.0814,-203.3969C2146.029,-199.3555 2909.8624,-184.2619 3153.5884,-159 3321.8389,-141.561 3419.6716,-223.4198 3528.5884,-94 3536.8875,-84.1386 3537.3418,-74.4605 3528.5884,-65 3493.5446,-27.1257 3116.6321,-36.5543 3065.5884,-29 3056.0721,-27.5916 3045.8806,-25.5978 3036.4228,-23.5381"/>
<polygon fill="#191970" stroke="#191970" points="1916.845,-199.9005 1906.908,-203.5754 1916.9679,-206.8994 1916.845,-199.9005"/>
</g>
<!-- Node3 -->
<g id="node3" class="node">
<title>Node3</title>
<g id="a_node3"><a xlink:href="Iocgns__DecompositionData_8C.html" target="_top" xlink:title=" ">
<polygon fill="#ffffff" stroke="#000000" points="0,-.5 0,-28.5 157.1768,-28.5 157.1768,-.5 0,-.5"/>
<text text-anchor="start" x="8" y="-16.5" font-family="Helvetica,sans-Serif" font-size="10.00" fill="#000000">src/cgns/Iocgns_Decomposition</text>
<text text-anchor="middle" x="78.5884" y="-6.5" font-family="Helvetica,sans-Serif" font-size="10.00" fill="#000000">Data.C</text>
</a>
</g>
</g>
<!-- Node2&#45;&gt;Node3 -->
<g id="edge2" class="edge">
<title>Node2&#45;&gt;Node3</title>
<path fill="none" stroke="#191970" d="M176.5571,-124.8602C163.7324,-116.2213 149.2628,-105.441 137.5884,-94 116.8425,-73.669 97.7751,-45.5347 87.2112,-28.7602"/>
<polygon fill="#191970" stroke="#191970" points="174.838,-127.9185 185.1184,-130.4807 178.6796,-122.0668 174.838,-127.9185"/>
</g>
<!-- Node2&#45;&gt;Node4 -->
<g id="edge3" class="edge">
<title>Node2&#45;&gt;Node4</title>
<path fill="none" stroke="#191970" d="M208.5884,-120.1081C208.5884,-111.1539 208.5884,-101.3227 208.5884,-93.5765"/>
<polygon fill="#191970" stroke="#191970" points="205.0885,-120.3959 208.5884,-130.396 212.0885,-120.396 205.0885,-120.3959"/>
</g>
<!-- Node5 -->
<g id="node5" class="node">
<title>Node5</title>
<g id="a_node5"><a xlink:href="Iocgns__ParallelDatabaseIO_8C.html" target="_top" xlink:title=" ">
<polygon fill="#ffffff" stroke="#000000" points="175.3965,-.5 175.3965,-28.5 299.7803,-28.5 299.7803,-.5 175.3965,-.5"/>
<text text-anchor="start" x="183.3965" y="-16.5" font-family="Helvetica,sans-Serif" font-size="10.00" fill="#000000">src/cgns/Iocgns_Parallel</text>
<text text-anchor="middle" x="237.5884" y="-6.5" font-family="Helvetica,sans-Serif" font-size="10.00" fill="#000000">DatabaseIO.C</text>
</a>
</g>
</g>
<!-- Node4&#45;&gt;Node5 -->
<g id="edge4" class="edge">
<title>Node4&#45;&gt;Node5</title>
<path fill="none" stroke="#191970" d="M219.0772,-55.9907C223.1756,-46.8044 227.7382,-36.5781 231.3081,-28.5765"/>
<polygon fill="#191970" stroke="#191970" points="215.7591,-54.8376 214.8809,-65.396 222.1517,-57.6897 215.7591,-54.8376"/>
</g>
<!-- Node6&#45;&gt;Node5 -->
<g id="edge8" class="edge">
<title>Node6&#45;&gt;Node5</title>
<path fill="none" stroke="#191970" d="M1792.8384,-143.5032C1523.2797,-138.8057 415.02,-118.0956 345.5884,-94 306.6567,-80.4891 269.9316,-47.6569 250.9728,-28.6798"/>
<polygon fill="#191970" stroke="#191970" points="1793.1292,-147.0087 1803.1885,-143.6829 1793.2508,-140.0097 1793.1292,-147.0087"/>
</g>
<!-- Node7 -->
<g id="node7" class="node">
<title>Node7</title>
<g id="a_node7"><a xlink:href="Iocgns__DatabaseIO_8C.html" target="_top" xlink:title=" ">
<polygon fill="#ffffff" stroke="#000000" points="317.3892,-5.5 317.3892,-23.5 471.7876,-23.5 471.7876,-5.5 317.3892,-5.5"/>
<text text-anchor="middle" x="394.5884" y="-11.5" font-family="Helvetica,sans-Serif" font-size="10.00" fill="#000000">src/cgns/Iocgns_DatabaseIO.C</text>
</a>
</g>
</g>
<!-- Node6&#45;&gt;Node7 -->
<g id="edge7" class="edge">
<title>Node6&#45;&gt;Node7</title>
<path fill="none" stroke="#191970" d="M1793.044,-143.6265C1519.6777,-139.4119 381.0153,-120.2997 355.5884,-94 335.3924,-73.1108 366.2744,-39.7336 383.8225,-23.6936"/>
<polygon fill="#191970" stroke="#191970" points="1793.1034,-147.1277 1803.1559,-143.7816 1793.2108,-140.1285 1793.1034,-147.1277"/>
</g>
<!-- Node8 -->
<g id="node8" class="node">
<title>Node8</title>
<g id="a_node8"><a xlink:href="Iocgns__Utils_8h.html" target="_top" xlink:title=" ">
<polygon fill="#ffffff" stroke="#000000" points="364.1797,-70.5 364.1797,-88.5 482.9971,-88.5 482.9971,-70.5 364.1797,-70.5"/>
<text text-anchor="middle" x="423.5884" y="-76.5" font-family="Helvetica,sans-Serif" font-size="10.00" fill="#000000">src/cgns/Iocgns_Utils.h</text>
</a>
</g>
</g>
<!-- Node6&#45;&gt;Node8 -->
<g id="edge9" class="edge">
<title>Node6&#45;&gt;Node8</title>
<path fill="none" stroke="#191970" d="M1793.0362,-143.6748C1566.749,-140.2766 749.2275,-126.0079 491.5884,-94 481.4063,-92.735 470.4892,-90.7115 460.4475,-88.5727"/>
<polygon fill="#191970" stroke="#191970" points="1793.3093,-147.1792 1803.3603,-143.8285 1793.4135,-140.18 1793.3093,-147.1792"/>
</g>
<!-- Node13 -->
<g id="node13" class="node">
<title>Node13</title>
<g id="a_node13"><a xlink:href="Iodw__Utils_8C.html" target="_top" xlink:title=" ">
<polygon fill="#ffffff" stroke="#000000" points="500.5615,-65.5 500.5615,-93.5 606.6152,-93.5 606.6152,-65.5 500.5615,-65.5"/>
<text text-anchor="start" x="508.5615" y="-81.5" font-family="Helvetica,sans-Serif" font-size="10.00" fill="#000000">src/data_warehouse</text>
<text text-anchor="middle" x="553.5884" y="-71.5" font-family="Helvetica,sans-Serif" font-size="10.00" fill="#000000">/Iodw_Utils.C</text>
</a>
</g>
</g>
<!-- Node6&#45;&gt;Node13 -->
<g id="edge17" class="edge">
<title>Node6&#45;&gt;Node13</title>
<path fill="none" stroke="#191970" d="M1793.4623,-143.5819C1581.1078,-140.001 847.5977,-125.5811 615.5884,-94 612.7405,-93.6123 609.8316,-93.1539 606.9034,-92.643"/>
<polygon fill="#191970" stroke="#191970" points="1793.4146,-147.0815 1803.4717,-143.7492 1793.5316,-140.0825 1793.4146,-147.0815"/>
</g>
<!-- Node14 -->
<g id="node14" class="node">
<title>Node14</title>
<g id="a_node14"><a xlink:href="Iofx__DatabaseIO_8C.html" target="_top" xlink:title=" ">
<polygon fill="#ffffff" stroke="#000000" points="624.8301,-70.5 624.8301,-88.5 780.3467,-88.5 780.3467,-70.5 624.8301,-70.5"/>
<text text-anchor="middle" x="702.5884" y="-76.5" font-family="Helvetica,sans-Serif" font-size="10.00" fill="#000000">src/exo_fpp/Iofx_DatabaseIO.C</text>
</a>
</g>
</g>
<!-- Node6&#45;&gt;Node14 -->
<g id="edge18" class="edge">
<title>Node6&#45;&gt;Node14</title>
<path fill="none" stroke="#191970" d="M1793.4118,-144.1331C1633.0013,-142.604 1171.0087,-134.7109 789.5884,-94 776.9508,-92.6511 763.3626,-90.6527 750.7687,-88.5677"/>
<polygon fill="#191970" stroke="#191970" points="1793.5062,-147.634 1803.5376,-144.2249 1793.5697,-140.6343 1793.5062,-147.634"/>
</g>
<!-- Node15 -->
<g id="node15" class="node">
<title>Node15</title>
<g id="a_node15"><a xlink:href="Iopx__DatabaseIO_8C.html" target="_top" xlink:title=" ">
<polygon fill="#ffffff" stroke="#000000" points="798.1626,-70.5 798.1626,-88.5 957.0142,-88.5 957.0142,-70.5 798.1626,-70.5"/>
<text text-anchor="middle" x="877.5884" y="-76.5" font-family="Helvetica,sans-Serif" font-size="10.00" fill="#000000">src/exo_par/Iopx_DatabaseIO.C</text>
</a>
</g>
</g>
<!-- Node6&#45;&gt;Node15 -->
<g id="edge19" class="edge">
<title>Node6&#45;&gt;Node15</title>
<path fill="none" stroke="#191970" d="M1793.2645,-143.2788C1651.373,-139.8496 1277.0147,-128.0501 966.5884,-94 953.8277,-92.6003 940.1105,-90.6096 927.3586,-88.5501"/>
<polygon fill="#191970" stroke="#191970" points="1793.3955,-146.7827 1803.4756,-143.5207 1793.5614,-139.7847 1793.3955,-146.7827"/>
</g>
<!-- Node16 -->
<g id="node16" class="node">
<title>Node16</title>
<g id="a_node16"><a xlink:href="Ioex__DatabaseIO_8C.html" target="_top" xlink:title=" ">
<polygon fill="#ffffff" stroke="#000000" points="975.1084,-70.5 975.1084,-88.5 1130.0684,-88.5 1130.0684,-70.5 975.1084,-70.5"/>
<text text-anchor="middle" x="1052.5884" y="-76.5" font-family="Helvetica,sans-Serif" font-size="10.00" fill="#000000">src/exodus/Ioex_DatabaseIO.C</text>
</a>
</g>
</g>
<!-- Node6&#45;&gt;Node16 -->
<g id="edge20" class="edge">
<title>Node6&#45;&gt;Node16</title>
<path fill="none" stroke="#191970" d="M1793.2239,-142.2723C1671.2872,-137.1991 1380.7413,-122.9214 1138.5884,-94 1126.4105,-92.5455 1113.3292,-90.5598 1101.1354,-88.5247"/>
<polygon fill="#191970" stroke="#191970" points="1793.3154,-145.7789 1803.4507,-142.6925 1793.6029,-138.7848 1793.3154,-145.7789"/>
</g>
<!-- Node17 -->
<g id="node17" class="node">
<title>Node17</title>
<g id="a_node17"><a xlink:href="Ioex__Internals_8C.html" target="_top" xlink:title=" ">
<polygon fill="#ffffff" stroke="#000000" points="1147.6133,-70.5 1147.6133,-88.5 1287.5635,-88.5 1287.5635,-70.5 1147.6133,-70.5"/>
<text text-anchor="middle" x="1217.5884" y="-76.5" font-family="Helvetica,sans-Serif" font-size="10.00" fill="#000000">src/exodus/Ioex_Internals.C</text>
</a>
</g>
</g>
<!-- Node6&#45;&gt;Node17 -->
<g id="edge21" class="edge">
<title>Node6&#45;&gt;Node17</title>
<path fill="none" stroke="#191970" d="M1793.4077,-141.0078C1691.987,-134.5207 1476.3679,-118.9578 1295.5884,-94 1284.673,-92.4931 1272.9625,-90.5119 1262.0199,-88.5002"/>
<polygon fill="#191970" stroke="#191970" points="1793.2456,-144.5045 1803.447,-141.6441 1793.6884,-137.5185 1793.2456,-144.5045"/>
</g>
<!-- Node18 -->
<g id="node18" class="node">
<title>Node18</title>
<g id="a_node18"><a xlink:href="Ioex__Utils_8C.html" target="_top" xlink:title=" ">
<polygon fill="#ffffff" stroke="#000000" points="1305.0688,-70.5 1305.0688,-88.5 1426.1079,-88.5 1426.1079,-70.5 1305.0688,-70.5"/>
<text text-anchor="middle" x="1365.5884" y="-76.5" font-family="Helvetica,sans-Serif" font-size="10.00" fill="#000000">src/exodus/Ioex_Utils.C</text>
</a>
</g>
</g>
<!-- Node6&#45;&gt;Node18 -->
<g id="edge22" class="edge">
<title>Node6&#45;&gt;Node18</title>
<path fill="none" stroke="#191970" d="M1793.5828,-139.0781C1712.8234,-131.1651 1562.061,-115.0719 1434.5884,-94 1425.1684,-92.4428 1415.0831,-90.4885 1405.6125,-88.5235"/>
<polygon fill="#191970" stroke="#191970" points="1793.2616,-142.5632 1803.5535,-140.0482 1793.9395,-135.5961 1793.2616,-142.5632"/>
</g>
<!-- Node19 -->
<g id="node19" class="node">
<title>Node19</title>
<g id="a_node19"><a xlink:href="Iogs__DatabaseIO_8C.html" target="_top" xlink:title=" ">
<polygon fill="#ffffff" stroke="#000000" points="1443.7363,-65.5 1443.7363,-93.5 1541.4404,-93.5 1541.4404,-65.5 1443.7363,-65.5"/>
<text text-anchor="start" x="1451.7363" y="-81.5" font-family="Helvetica,sans-Serif" font-size="10.00" fill="#000000">src/gen_struc/Iogs</text>
<text text-anchor="middle" x="1492.5884" y="-71.5" font-family="Helvetica,sans-Serif" font-size="10.00" fill="#000000">_DatabaseIO.C</text>
</a>
</g>
</g>
<!-- Node6&#45;&gt;Node19 -->
<g id="edge23" class="edge">
<title>Node6&#45;&gt;Node19</title>
<path fill="none" stroke="#191970" d="M1793.2356,-136.1032C1732.4088,-127.0249 1634.4375,-111.4867 1550.5884,-94 1547.6418,-93.3855 1544.6184,-92.7241 1541.5736,-92.0344"/>
<polygon fill="#191970" stroke="#191970" points="1793.004,-139.6071 1803.4095,-137.613 1794.0316,-132.6829 1793.004,-139.6071"/>
</g>
<!-- Node20 -->
<g id="node20" class="node">
<title>Node20</title>
<g id="a_node20"><a xlink:href="Iogn__DatabaseIO_8C.html" target="_top" xlink:title=" ">
<polygon fill="#ffffff" stroke="#000000" points="1559.894,-65.5 1559.894,-93.5 1659.2827,-93.5 1659.2827,-65.5 1559.894,-65.5"/>
<text text-anchor="start" x="1567.894" y="-81.5" font-family="Helvetica,sans-Serif" font-size="10.00" fill="#000000">src/generated/Iogn</text>
<text text-anchor="middle" x="1609.5884" y="-71.5" font-family="Helvetica,sans-Serif" font-size="10.00" fill="#000000">_DatabaseIO.C</text>
</a>
</g>
</g>
<!-- Node6&#45;&gt;Node20 -->
<g id="edge24" class="edge">
<title>Node6&#45;&gt;Node20</title>
<path fill="none" stroke="#191970" d="M1808.0513,-132.8062C1766.2281,-121.5727 1703.1013,-104.6171 1659.3185,-92.8573"/>
<polygon fill="#191970" stroke="#191970" points="1807.3737,-136.2481 1817.9393,-135.462 1809.1895,-129.4878 1807.3737,-136.2481"/>
</g>
<!-- Node21 -->
<g id="node21" class="node">
<title>Node21</title>
<g id="a_node21"><a xlink:href="Iohb__DatabaseIO_8C.html" target="_top" xlink:title=" ">
<polygon fill="#ffffff" stroke="#000000" points="1677.2856,-65.5 1677.2856,-93.5 1773.8911,-93.5 1773.8911,-65.5 1677.2856,-65.5"/>
<text text-anchor="start" x="1685.2856" y="-81.5" font-family="Helvetica,sans-Serif" font-size="10.00" fill="#000000">src/heartbeat/Iohb</text>
<text text-anchor="middle" x="1725.5884" y="-71.5" font-family="Helvetica,sans-Serif" font-size="10.00" fill="#000000">_DatabaseIO.C</text>
</a>
</g>
</g>
<!-- Node6&#45;&gt;Node21 -->
<g id="edge25" class="edge">
<title>Node6&#45;&gt;Node21</title>
<path fill="none" stroke="#191970" d="M1825.0141,-130.7911C1803.9067,-119.9023 1774.4893,-104.7267 1753.1325,-93.7093"/>
<polygon fill="#191970" stroke="#191970" points="1823.5768,-133.9878 1834.0686,-135.462 1826.7861,-127.7668 1823.5768,-133.9878"/>
</g>
<!-- Node22 -->
<g id="node22" class="node">
<title>Node22</title>
<g id="a_node22"><a xlink:href="Ioss__DatabaseIO_8C.html" target="_top" xlink:title=" ">
<polygon fill="#ffffff" stroke="#000000" points="1791.9014,-70.5 1791.9014,-88.5 1911.2754,-88.5 1911.2754,-70.5 1791.9014,-70.5"/>
<text text-anchor="middle" x="1851.5884" y="-76.5" font-family="Helvetica,sans-Serif" font-size="10.00" fill="#000000">src/Ioss_DatabaseIO.C</text>
</a>
</g>
</g>
<!-- Node6&#45;&gt;Node22 -->
<g id="edge26" class="edge">
<title>Node6&#45;&gt;Node22</title>
<path fill="none" stroke="#191970" d="M1851.5884,-125.1265C1851.5884,-113.1522 1851.5884,-98.3205 1851.5884,-88.8821"/>
<polygon fill="#191970" stroke="#191970" points="1848.0885,-125.462 1851.5884,-135.462 1855.0885,-125.4621 1848.0885,-125.462"/>
</g>
<!-- Node23 -->
<g id="node23" class="node">
<title>Node23</title>
<g id="a_node23"><a xlink:href="Ioss__FaceGenerator_8C.html" target="_top" xlink:title=" ">
<polygon fill="#ffffff" stroke="#000000" points="1929.229,-70.5 1929.229,-88.5 2061.9478,-88.5 2061.9478,-70.5 1929.229,-70.5"/>
<text text-anchor="middle" x="1995.5884" y="-76.5" font-family="Helvetica,sans-Serif" font-size="10.00" fill="#000000">src/Ioss_FaceGenerator.C</text>
</a>
</g>
</g>
<!-- Node6&#45;&gt;Node23 -->
<g id="edge27" class="edge">
<title>Node6&#45;&gt;Node23</title>
<path fill="none" stroke="#191970" d="M1880.9322,-131.2545C1909.0237,-118.5743 1950.6633,-99.7787 1975.2716,-88.6708"/>
<polygon fill="#191970" stroke="#191970" points="1879.2855,-128.1577 1871.611,-135.462 1882.1654,-134.5379 1879.2855,-128.1577"/>
</g>
<!-- Node24 -->
<g id="node24" class="node">
<title>Node24</title>
<g id="a_node24"><a xlink:href="Ioss__GroupingEntity_8C.html" target="_top" xlink:title=" ">
<polygon fill="#ffffff" stroke="#000000" points="2079.8784,-70.5 2079.8784,-88.5 2211.2983,-88.5 2211.2983,-70.5 2079.8784,-70.5"/>
<text text-anchor="middle" x="2145.5884" y="-76.5" font-family="Helvetica,sans-Serif" font-size="10.00" fill="#000000">src/Ioss_GroupingEntity.C</text>
</a>
</g>
</g>
<!-- Node6&#45;&gt;Node24 -->
<g id="edge28" class="edge">
<title>Node6&#45;&gt;Node24</title>
<path fill="none" stroke="#191970" d="M1902.3931,-133.2677C1959.6697,-120.6045 2051.6821,-100.2616 2104.5833,-88.5658"/>
<polygon fill="#191970" stroke="#191970" points="1901.4764,-129.8857 1892.4678,-135.462 1902.9876,-136.7207 1901.4764,-129.8857"/>
</g>
<!-- Node25 -->
<g id="node25" class="node">
<title>Node25</title>
<g id="a_node25"><a xlink:href="Ioss__Region_8C.html" target="_top" xlink:title=" ">
<polygon fill="#ffffff" stroke="#000000" points="2229.7388,-70.5 2229.7388,-88.5 2327.438,-88.5 2327.438,-70.5 2229.7388,-70.5"/>
<text text-anchor="middle" x="2278.5884" y="-76.5" font-family="Helvetica,sans-Serif" font-size="10.00" fill="#000000">src/Ioss_Region.C</text>
</a>
</g>
</g>
<!-- Node6&#45;&gt;Node25 -->
<g id="edge29" class="edge">
<title>Node6&#45;&gt;Node25</title>
<path fill="none" stroke="#191970" d="M1909.9879,-138.4976C1983.0078,-130.5366 2111.6634,-115.0044 2220.5884,-94 2228.5378,-92.4671 2237.0275,-90.5222 2244.9902,-88.5587"/>
<polygon fill="#191970" stroke="#191970" points="1909.1933,-135.063 1899.6271,-139.617 1909.9453,-142.0225 1909.1933,-135.063"/>
</g>
<!-- Node26 -->
<g id="node26" class="node">
<title>Node26</title>
<g id="a_node26"><a xlink:href="Ioss__SideSet_8C.html" target="_top" xlink:title=" ">
<polygon fill="#ffffff" stroke="#000000" points="2345.0713,-70.5 2345.0713,-88.5 2446.1055,-88.5 2446.1055,-70.5 2345.0713,-70.5"/>
<text text-anchor="middle" x="2395.5884" y="-76.5" font-family="Helvetica,sans-Serif" font-size="10.00" fill="#000000">src/Ioss_SideSet.C</text>
</a>
</g>
</g>
<!-- Node6&#45;&gt;Node26 -->
<g id="edge30" class="edge">
<title>Node6&#45;&gt;Node26</title>
<path fill="none" stroke="#191970" d="M1909.8922,-141.0235C2001.3298,-134.9895 2183.8041,-120.5991 2336.5884,-94 2345.0055,-92.5346 2354.0029,-90.5449 2362.3706,-88.5094"/>
<polygon fill="#191970" stroke="#191970" points="1909.4846,-137.5426 1899.7328,-141.6842 1909.9389,-144.5278 1909.4846,-137.5426"/>
</g>
<!-- Node27 -->
<g id="node27" class="node">
<title>Node27</title>
<g id="a_node27"><a xlink:href="Ioss__StructuredBlock_8C.html" target="_top" xlink:title=" ">
<polygon fill="#ffffff" stroke="#000000" points="2464.2905,-70.5 2464.2905,-88.5 2600.8862,-88.5 2600.8862,-70.5 2464.2905,-70.5"/>
<text text-anchor="middle" x="2532.5884" y="-76.5" font-family="Helvetica,sans-Serif" font-size="10.00" fill="#000000">src/Ioss_StructuredBlock.C</text>
</a>
</g>
</g>
<!-- Node6&#45;&gt;Node27 -->
<g id="edge31" class="edge">
<title>Node6&#45;&gt;Node27</title>
<path fill="none" stroke="#191970" d="M1909.9668,-141.6171C2018.0174,-135.8381 2256.3378,-121.0175 2455.5884,-94 2466.3721,-92.5378 2477.9355,-90.5734 2488.7383,-88.5636"/>
<polygon fill="#191970" stroke="#191970" points="1909.7238,-138.1249 1899.9226,-142.1482 1910.0936,-145.1152 1909.7238,-138.1249"/>
</g>
<!-- Node28 -->
<g id="node28" class="node">
<title>Node28</title>
<g id="a_node28"><a xlink:href="Ioss__SubSystem_8h.html" target="_top" xlink:title=" ">
<polygon fill="#ffffff" stroke="#000000" points="2618.8472,-70.5 2618.8472,-88.5 2734.3296,-88.5 2734.3296,-70.5 2618.8472,-70.5"/>
<text text-anchor="middle" x="2676.5884" y="-76.5" font-family="Helvetica,sans-Serif" font-size="10.00" fill="#000000">src/Ioss_SubSystem.h</text>
</a>
</g>
</g>
<!-- Node6&#45;&gt;Node28 -->
<g id="edge32" class="edge">
<title>Node6&#45;&gt;Node28</title>
<path fill="none" stroke="#191970" d="M1910.0463,-143.5205C2037.6444,-140.745 2350.446,-130.4733 2609.5884,-94 2619.37,-92.6233 2629.8517,-90.6151 2639.5514,-88.5296"/>
<polygon fill="#191970" stroke="#191970" points="1909.6537,-140.0278 1899.7294,-143.7372 1909.8008,-147.0263 1909.6537,-140.0278"/>
</g>
<!-- Node35 -->
<g id="node35" class="node">
<title>Node35</title>
<g id="a_node35"><a xlink:href="cth__pressure__map_8C.html" target="_top" xlink:title=" ">
<polygon fill="#ffffff" stroke="#000000" points="2752.4038,-65.5 2752.4038,-93.5 2866.7729,-93.5 2866.7729,-65.5 2752.4038,-65.5"/>
<text text-anchor="start" x="2760.4038" y="-81.5" font-family="Helvetica,sans-Serif" font-size="10.00" fill="#000000">src/main/cth_pressure</text>
<text text-anchor="middle" x="2809.5884" y="-71.5" font-family="Helvetica,sans-Serif" font-size="10.00" fill="#000000">_map.C</text>
</a>
</g>
</g>
<!-- Node6&#45;&gt;Node35 -->
<g id="edge40" class="edge">
<title>Node6&#45;&gt;Node35</title>
<path fill="none" stroke="#191970" d="M1909.7005,-142.4248C2080.9059,-136.1185 2581.5138,-116.2464 2743.5884,-94 2746.3778,-93.6171 2749.2243,-93.1786 2752.0926,-92.6982"/>
<polygon fill="#191970" stroke="#191970" points="1909.4912,-138.93 1899.6262,-142.7942 1909.7478,-145.9253 1909.4912,-138.93"/>
</g>
<!-- Node36 -->
<g id="node36" class="node">
<title>Node36</title>
<g id="a_node36"><a xlink:href="io__info_8h.html" target="_top" xlink:title=" ">
<polygon fill="#ffffff" stroke="#000000" points="2884.4038,-70.5 2884.4038,-88.5 2978.7729,-88.5 2978.7729,-70.5 2884.4038,-70.5"/>
<text text-anchor="middle" x="2931.5884" y="-76.5" font-family="Helvetica,sans-Serif" font-size="10.00" fill="#000000">src/main/io_info.h</text>
</a>
</g>
</g>
<!-- Node6&#45;&gt;Node36 -->
<g id="edge41" class="edge">
<title>Node6&#45;&gt;Node36</title>
<path fill="none" stroke="#191970" d="M1910.1472,-143.1836C2098.4948,-138.7026 2687.3508,-122.7036 2875.5884,-94 2884.0272,-92.7132 2893.0359,-90.6824 2901.3056,-88.5434"/>
<polygon fill="#191970" stroke="#191970" points="1909.8143,-139.6904 1899.8997,-143.4254 1909.9795,-146.6885 1909.8143,-139.6904"/>
</g>
<!-- Node39 -->
<g id="node39" class="node">
<title>Node39</title>
<g id="a_node39"><a xlink:href="shell__to__hex_8C.html" target="_top" xlink:title=" ">
<polygon fill="#ffffff" stroke="#000000" points="2997.2314,-70.5 2997.2314,-88.5 3119.9453,-88.5 3119.9453,-70.5 2997.2314,-70.5"/>
<text text-anchor="middle" x="3058.5884" y="-76.5" font-family="Helvetica,sans-Serif" font-size="10.00" fill="#000000">src/main/shell_to_hex.C</text>
</a>
</g>
</g>
<!-- Node6&#45;&gt;Node39 -->
<g id="edge44" class="edge">
<title>Node6&#45;&gt;Node39</title>
<path fill="none" stroke="#191970" d="M1909.9538,-143.1181C2111.2527,-138.1623 2775.7519,-120.1752 2987.5884,-94 2998.2014,-92.6886 3009.594,-90.6495 3020.0786,-88.5106"/>
<polygon fill="#191970" stroke="#191970" points="1909.79,-139.621 1899.8787,-143.3648 1909.9614,-146.6189 1909.79,-139.621"/>
</g>
<!-- Node40 -->
<g id="node40" class="node">
<title>Node40</title>
<g id="a_node40"><a xlink:href="skinner_8C.html" target="_top" xlink:title=" ">
<polygon fill="#ffffff" stroke="#000000" points="3137.4629,-70.5 3137.4629,-88.5 3235.7139,-88.5 3235.7139,-70.5 3137.4629,-70.5"/>
<text text-anchor="middle" x="3186.5884" y="-76.5" font-family="Helvetica,sans-Serif" font-size="10.00" fill="#000000">src/main/skinner.C</text>
</a>
</g>
</g>
<!-- Node6&#45;&gt;Node40 -->
<g id="edge45" class="edge">
<title>Node6&#45;&gt;Node40</title>
<path fill="none" stroke="#191970" d="M1910.1817,-143.7807C2127.6911,-140.8619 2888.5884,-128.3726 3128.5884,-94 3137.4245,-92.7345 3146.8693,-90.6829 3155.5168,-88.5161"/>
<polygon fill="#191970" stroke="#191970" points="1909.8898,-140.2841 1899.9371,-143.9164 1909.9826,-147.2835 1909.8898,-140.2841"/>
</g>
<!-- Node41 -->
<g id="node41" class="node">
<title>Node41</title>
<g id="a_node41"><a xlink:href="sphgen_8C.html" target="_top" xlink:title=" ">
<polygon fill="#ffffff" stroke="#000000" points="3253.9038,-70.5 3253.9038,-88.5 3353.2729,-88.5 3353.2729,-70.5 3253.9038,-70.5"/>
<text text-anchor="middle" x="3303.5884" y="-76.5" font-family="Helvetica,sans-Serif" font-size="10.00" fill="#000000">src/main/sphgen.C</text>
</a>
</g>
</g>
<!-- Node6&#45;&gt;Node41 -->
<g id="edge46" class="edge">
<title>Node6&#45;&gt;Node41</title>
<path fill="none" stroke="#191970" d="M1910.0876,-143.9745C2139.8399,-141.6637 2980.6548,-130.8204 3244.5884,-94 3253.5725,-92.7467 3263.1788,-90.699 3271.9754,-88.5322"/>
<polygon fill="#191970" stroke="#191970" points="1909.8963,-140.4761 1899.9315,-144.0751 1909.9657,-147.4758 1909.8963,-140.4761"/>
</g>
<!-- Node42 -->
<g id="node42" class="node">
<title>Node42</title>
<g id="a_node42"><a xlink:href="UnitTestIofxDatabaseIO_8C.html" target="_top" xlink:title=" ">
<polygon fill="#ffffff" stroke="#000000" points="3371.623,-65.5 3371.623,-93.5 3501.5537,-93.5 3501.5537,-65.5 3371.623,-65.5"/>
<text text-anchor="start" x="3379.623" y="-81.5" font-family="Helvetica,sans-Serif" font-size="10.00" fill="#000000">src/unit_tests/UnitTestIofx</text>
<text text-anchor="middle" x="3436.5884" y="-71.5" font-family="Helvetica,sans-Serif" font-size="10.00" fill="#000000">DatabaseIO.C</text>
</a>
</g>
</g>
<!-- Node6&#45;&gt;Node42 -->
<g id="edge47" class="edge">
<title>Node6&#45;&gt;Node42</title>
<path fill="none" stroke="#191970" d="M1910.1133,-143.7973C2151.8653,-140.7011 3073.5023,-126.9388 3362.5884,-94 3365.45,-93.6739 3368.3663,-93.2968 3371.3067,-92.8799"/>
<polygon fill="#191970" stroke="#191970" points="1909.7413,-140.3016 1899.7865,-143.9283 1909.8302,-147.3011 1909.7413,-140.3016"/>
</g>
<!-- Node8&#45;&gt;Node3 -->
<g id="edge11" class="edge">
<title>Node8&#45;&gt;Node3</title>
<path fill="none" stroke="#191970" d="M365.4475,-68.5459C307.0014,-57.5343 216.6805,-40.5173 153.0301,-28.5253"/>
<polygon fill="#191970" stroke="#191970" points="365.1425,-72.05 375.6176,-70.462 366.4385,-65.171 365.1425,-72.05"/>
</g>
<!-- Node8&#45;&gt;Node5 -->
<g id="edge13" class="edge">
<title>Node8&#45;&gt;Node5</title>
<path fill="none" stroke="#191970" d="M388.0544,-67.0822C356.5977,-56.0893 310.7153,-40.0551 277.8975,-28.5865"/>
<polygon fill="#191970" stroke="#191970" points="387.131,-70.467 397.7259,-70.462 389.4404,-63.8589 387.131,-70.467"/>
</g>
<!-- Node8&#45;&gt;Node7 -->
<g id="edge10" class="edge">
<title>Node8&#45;&gt;Node7</title>
<path fill="none" stroke="#191970" d="M415.4367,-61.229C410.0141,-49.0748 403.1155,-33.6124 398.7743,-23.8821"/>
<polygon fill="#191970" stroke="#191970" points="412.2853,-62.7558 419.5561,-70.462 418.6779,-59.9036 412.2853,-62.7558"/>
</g>
<!-- Node9 -->
<g id="node9" class="node">
<title>Node9</title>
<g id="a_node9"><a xlink:href="Iocgns__IOFactory_8C.html" target="_top" xlink:title=" ">
<polygon fill="#ffffff" stroke="#000000" points="489.4917,-5.5 489.4917,-23.5 633.6851,-23.5 633.6851,-5.5 489.4917,-5.5"/>
<text text-anchor="middle" x="561.5884" y="-11.5" font-family="Helvetica,sans-Serif" font-size="10.00" fill="#000000">src/cgns/Iocgns_IOFactory.C</text>
</a>
</g>
</g>
<!-- Node8&#45;&gt;Node9 -->
<g id="edge12" class="edge">
<title>Node8&#45;&gt;Node9</title>
<path fill="none" stroke="#191970" d="M452.0629,-66.0881C478.9788,-53.4103 518.6382,-34.7302 542.1182,-23.6708"/>
<polygon fill="#191970" stroke="#191970" points="450.332,-63.0345 442.7767,-70.462 453.3148,-69.3672 450.332,-63.0345"/>
</g>
<!-- Node10 -->
<g id="node10" class="node">
<title>Node10</title>
<g id="a_node10"><a xlink:href="Iocgns__Utils_8C.html" target="_top" xlink:title=" ">
<polygon fill="#ffffff" stroke="#000000" points="651.3496,-5.5 651.3496,-23.5 771.8271,-23.5 771.8271,-5.5 651.3496,-5.5"/>
<text text-anchor="middle" x="711.5884" y="-11.5" font-family="Helvetica,sans-Serif" font-size="10.00" fill="#000000">src/cgns/Iocgns_Utils.C</text>
</a>
</g>
</g>
<!-- Node8&#45;&gt;Node10 -->
<g id="edge14" class="edge">
<title>Node8&#45;&gt;Node10</title>
<path fill="none" stroke="#191970" d="M473.7052,-68.1889C529.837,-55.5203 619.7058,-35.2374 671.4201,-23.5658"/>
<polygon fill="#191970" stroke="#191970" points="472.6176,-64.8463 463.6335,-70.462 474.1588,-71.6745 472.6176,-64.8463"/>
</g>
<!-- Node11 -->
<g id="node11" class="node">
<title>Node11</title>
<g id="a_node11"><a xlink:href="struc__to__unstruc_8C.html" target="_top" xlink:title=" ">
<polygon fill="#ffffff" stroke="#000000" points="1584.3447,-5.5 1584.3447,-23.5 1724.832,-23.5 1724.832,-5.5 1584.3447,-5.5"/>
<text text-anchor="middle" x="1654.5884" y="-11.5" font-family="Helvetica,sans-Serif" font-size="10.00" fill="#000000">src/main/struc_to_unstruc.C</text>
</a>
</g>
</g>
<!-- Node8&#45;&gt;Node11 -->
<g id="edge15" class="edge">
<title>Node8&#45;&gt;Node11</title>
<path fill="none" stroke="#191970" d="M470.5631,-68.4208C477.5786,-67.0756 484.75,-65.8714 491.5884,-65 704.7225,-37.8414 1366.0971,-20.9599 1584.0967,-16.019"/>
<polygon fill="#191970" stroke="#191970" points="469.5583,-65.0532 460.4529,-70.4701 470.949,-71.9136 469.5583,-65.0532"/>
</g>
<!-- Node12 -->
<g id="node12" class="node">
<title>Node12</title>
<g id="a_node12"><a xlink:href="Utst__structured__decomp_8C.html" target="_top" xlink:title=" ">
<polygon fill="#ffffff" stroke="#000000" points="789.4038,-.5 789.4038,-28.5 913.7729,-28.5 913.7729,-.5 789.4038,-.5"/>
<text text-anchor="start" x="797.4038" y="-16.5" font-family="Helvetica,sans-Serif" font-size="10.00" fill="#000000">src/utest/Utst_structured</text>
<text text-anchor="middle" x="851.5884" y="-6.5" font-family="Helvetica,sans-Serif" font-size="10.00" fill="#000000">_decomp.C</text>
</a>
</g>
</g>
<!-- Node8&#45;&gt;Node12 -->
<g id="edge16" class="edge">
<title>Node8&#45;&gt;Node12</title>
<path fill="none" stroke="#191970" d="M473.27,-68.39C479.424,-67.1664 485.6406,-66.0027 491.5884,-65 619.2246,-43.4832 652.8605,-49.9656 780.5884,-29 783.4438,-28.5313 786.3592,-28.0298 789.3008,-27.5051"/>
<polygon fill="#191970" stroke="#191970" points="472.125,-65.0518 463.0311,-70.4881 473.5302,-71.9093 472.125,-65.0518"/>
</g>
<!-- Node28&#45;&gt;Node11 -->
<g id="edge37" class="edge">
<title>Node28&#45;&gt;Node11</title>
<path fill="none" stroke="#191970" d="M2630.0585,-68.427C2623.2242,-67.0932 2616.2458,-65.8906 2609.5884,-65 2438.5443,-42.1194 1915.5881,-23.0996 1725.0135,-16.7572"/>
<polygon fill="#191970" stroke="#191970" points="2629.4141,-71.8677 2639.9142,-70.454 2630.8244,-65.0112 2629.4141,-71.8677"/>
</g>
<!-- Node29 -->
<g id="node29" class="node">
<title>Node29</title>
<g id="a_node29"><a xlink:href="Iodw__DatabaseIO_8C.html" target="_top" xlink:title=" ">
<polygon fill="#ffffff" stroke="#000000" points="2291.1748,-.5 2291.1748,-28.5 2400.002,-28.5 2400.002,-.5 2291.1748,-.5"/>
<text text-anchor="start" x="2299.1748" y="-16.5" font-family="Helvetica,sans-Serif" font-size="10.00" fill="#000000">src/data_warehouse</text>
<text text-anchor="middle" x="2345.5884" y="-6.5" font-family="Helvetica,sans-Serif" font-size="10.00" fill="#000000">/Iodw_DatabaseIO.C</text>
</a>
</g>
</g>
<!-- Node28&#45;&gt;Node29 -->
<g id="edge33" class="edge">
<title>Node28&#45;&gt;Node29</title>
<path fill="none" stroke="#191970" d="M2626.0062,-68.351C2620.4715,-67.1914 2614.9152,-66.0531 2609.5884,-65 2520.5567,-47.3989 2497.503,-47.1834 2408.5884,-29 2405.8394,-28.4378 2403.0265,-27.8472 2400.1884,-27.239"/>
<polygon fill="#191970" stroke="#191970" points="2625.3825,-71.7966 2635.8911,-70.4478 2626.835,-64.9489 2625.3825,-71.7966"/>
</g>
<!-- Node30 -->
<g id="node30" class="node">
<title>Node30</title>
<g id="a_node30"><a xlink:href="Ioss__Utils_8C.html" target="_top" xlink:title=" ">
<polygon fill="#ffffff" stroke="#000000" points="2417.8618,-5.5 2417.8618,-23.5 2503.3149,-23.5 2503.3149,-5.5 2417.8618,-5.5"/>
<text text-anchor="middle" x="2460.5884" y="-11.5" font-family="Helvetica,sans-Serif" font-size="10.00" fill="#000000">src/Ioss_Utils.C</text>
</a>
</g>
</g>
<!-- Node28&#45;&gt;Node30 -->
<g id="edge34" class="edge">
<title>Node28&#45;&gt;Node30</title>
<path fill="none" stroke="#191970" d="M2636.8839,-67.5519C2594.6724,-54.8494 2528.8566,-35.0437 2490.7146,-23.5658"/>
<polygon fill="#191970" stroke="#191970" points="2635.9701,-70.9319 2646.5545,-70.462 2637.9873,-64.2288 2635.9701,-70.9319"/>
</g>
<!-- Node28&#45;&gt;Node31 -->
<g id="edge35" class="edge">
<title>Node28&#45;&gt;Node31</title>
<path fill="none" stroke="#191970" d="M2713.9683,-67.2288C2752.6945,-54.5157 2812.3043,-34.9468 2846.9727,-23.5658"/>
<polygon fill="#191970" stroke="#191970" points="2712.5289,-64.0175 2704.1194,-70.462 2714.7123,-70.6683 2712.5289,-64.0175"/>
</g>
<!-- Node28&#45;&gt;Node32 -->
<g id="edge36" class="edge">
<title>Node28&#45;&gt;Node32</title>
<path fill="none" stroke="#191970" d="M2727.8181,-68.2706C2733.1397,-67.1467 2738.471,-66.0384 2743.5884,-65 2827.8187,-47.9088 2849.3849,-46.223 2933.5884,-29 2941.9787,-27.2838 2950.9507,-25.3674 2959.4903,-23.5044"/>
<polygon fill="#191970" stroke="#191970" points="2726.706,-64.9289 2717.6552,-70.4366 2728.1652,-71.7752 2726.706,-64.9289"/>
</g>
<!-- Node33 -->
<g id="node33" class="node">
<title>Node33</title>
<g id="a_node33"><a xlink:href="Iopg__DatabaseIO_8C.html" target="_top" xlink:title=" ">
<polygon fill="#ffffff" stroke="#000000" points="2520.8818,-5.5 2520.8818,-23.5 2680.2949,-23.5 2680.2949,-5.5 2520.8818,-5.5"/>
<text text-anchor="middle" x="2600.5884" y="-11.5" font-family="Helvetica,sans-Serif" font-size="10.00" fill="#000000">src/pamgen/Iopg_DatabaseIO.C</text>
</a>
</g>
</g>
<!-- Node28&#45;&gt;Node33 -->
<g id="edge38" class="edge">
<title>Node28&#45;&gt;Node33</title>
<path fill="none" stroke="#191970" d="M2658.1492,-63.7297C2643.5782,-51.2676 2623.7316,-34.2936 2611.5583,-23.8821"/>
<polygon fill="#191970" stroke="#191970" points="2656.1464,-66.6222 2666.0209,-70.462 2660.6962,-61.3024 2656.1464,-66.6222"/>
</g>
<!-- Node34 -->
<g id="node34" class="node">
<title>Node34</title>
<g id="a_node34"><a xlink:href="Iovs__DatabaseIO_8C.html" target="_top" xlink:title=" ">
<polygon fill="#ffffff" stroke="#000000" points="2698.7388,-.5 2698.7388,-28.5 2806.438,-28.5 2806.438,-.5 2698.7388,-.5"/>
<text text-anchor="start" x="2706.7388" y="-16.5" font-family="Helvetica,sans-Serif" font-size="10.00" fill="#000000">src/visualization/Iovs</text>
<text text-anchor="middle" x="2752.5884" y="-6.5" font-family="Helvetica,sans-Serif" font-size="10.00" fill="#000000">_DatabaseIO.C</text>
</a>
</g>
</g>
<!-- Node28&#45;&gt;Node34 -->
<g id="edge39" class="edge">
<title>Node28&#45;&gt;Node34</title>
<path fill="none" stroke="#191970" d="M2695.0833,-63.682C2707.5674,-53.0048 2723.905,-39.0319 2735.9744,-28.7093"/>
<polygon fill="#191970" stroke="#191970" points="2692.4806,-61.3024 2687.1559,-70.462 2697.0304,-66.6222 2692.4806,-61.3024"/>
</g>
<!-- Node37 -->
<g id="node37" class="node">
<title>Node37</title>
<g id="a_node37"><a xlink:href="io__info_8C.html" target="_top" xlink:title=" ">
<polygon fill="#ffffff" stroke="#000000" points="3074.5737,-5.5 3074.5737,-23.5 3170.603,-23.5 3170.603,-5.5 3074.5737,-5.5"/>
<text text-anchor="middle" x="3122.5884" y="-11.5" font-family="Helvetica,sans-Serif" font-size="10.00" fill="#000000">src/main/io_info.C</text>
</a>
</g>
</g>
<!-- Node36&#45;&gt;Node37 -->
<g id="edge42" class="edge">
<title>Node36&#45;&gt;Node37</title>
<path fill="none" stroke="#191970" d="M2967.6468,-67.2288C3005.0039,-54.5157 3062.5062,-34.9468 3095.949,-23.5658"/>
<polygon fill="#191970" stroke="#191970" points="2966.4853,-63.9269 2958.1461,-70.462 2968.7406,-70.5537 2966.4853,-63.9269"/>
</g>
<!-- Node38 -->
<g id="node38" class="node">
<title>Node38</title>
<g id="a_node38"><a xlink:href="io__info__main_8C.html" target="_top" xlink:title=" ">
<polygon fill="#ffffff" stroke="#000000" points="3188.9556,-5.5 3188.9556,-23.5 3312.2212,-23.5 3312.2212,-5.5 3188.9556,-5.5"/>
<text text-anchor="middle" x="3250.5884" y="-11.5" font-family="Helvetica,sans-Serif" font-size="10.00" fill="#000000">src/main/io_info_main.C</text>
</a>
</g>
</g>
<!-- Node36&#45;&gt;Node38 -->
<g id="edge43" class="edge">
<title>Node36&#45;&gt;Node38</title>
<path fill="none" stroke="#191970" d="M2975.2891,-68.0863C2979.7717,-67.0045 2984.2655,-65.9563 2988.5884,-65 3072.933,-46.3426 3094.8232,-45.6429 3179.5884,-29 3188.3534,-27.2791 3197.7179,-25.3974 3206.6751,-23.5765"/>
<polygon fill="#191970" stroke="#191970" points="2974.4349,-64.692 2965.5641,-70.485 2976.1113,-71.4883 2974.4349,-64.692"/>
</g>
</g>
</svg>
        <g id="navigator" transform="translate(0 0)" fill="#404254">
                <rect fill="#f2f5e9" fill-opacity="0.5" stroke="#606060" stroke-width=".5" x="0" y="0" width="60" height="60"/>
                <use id="zoomplus" xlink:href="#zoomPlus" x="17" y="9" onmousedown="handleZoom(evt,'in')"/>
                <use id="zoomminus" xlink:href="#zoomMin" x="42" y="9" onmousedown="handleZoom(evt,'out')"/>
                <use id="reset" xlink:href="#resetDef" x="30" y="36" onmousedown="handleReset()"/>
                <g id="arrowUp" xlink:href="#dirArrow" transform="translate(30 24)" onmousedown="handlePan(0,-1)">
                  <use xlink:href="#rim" fill="#404040">
                        <set attributeName="fill" to="#808080" begin="arrowUp.mouseover" end="arrowUp.mouseout"/>
                  </use>
                  <path fill="none" stroke="white" stroke-width="1.5" d="M0,-3.0v7 M-2.5,-0.5L0,-3.0L2.5,-0.5"/>
                </g>
                <g id="arrowRight" xlink:href="#dirArrow" transform="rotate(90) translate(36 -43)" onmousedown="handlePan(1,0)">
                  <use xlink:href="#rim" fill="#404040">
                        <set attributeName="fill" to="#808080" begin="arrowRight.mouseover" end="arrowRight.mouseout"/>
                  </use>
                  <path fill="none" stroke="white" stroke-width="1.5" d="M0,-3.0v7 M-2.5,-0.5L0,-3.0L2.5,-0.5"/>
                </g>
                <g id="arrowDown" xlink:href="#dirArrow" transform="rotate(180) translate(-30 -48)" onmousedown="handlePan(0,1)">
                  <use xlink:href="#rim" fill="#404040">
                        <set attributeName="fill" to="#808080" begin="arrowDown.mouseover" end="arrowDown.mouseout"/>
                  </use>
                  <path fill="none" stroke="white" stroke-width="1.5" d="M0,-3.0v7 M-2.5,-0.5L0,-3.0L2.5,-0.5"/>
                </g>
                <g id="arrowLeft" xlink:href="#dirArrow" transform="rotate(270) translate(-36 17)" onmousedown="handlePan(-1,0)">
                  <use xlink:href="#rim" fill="#404040">
                        <set attributeName="fill" to="#808080" begin="arrowLeft.mouseover" end="arrowLeft.mouseout"/>
                  </use>
                  <path fill="none" stroke="white" stroke-width="1.5" d="M0,-3.0v7 M-2.5,-0.5L0,-3.0L2.5,-0.5"/>
                </g>
        </g>
        <svg viewBox="0 0 15 15" width="100%" height="30px" preserveAspectRatio="xMaxYMin meet">
         <g id="arrow_out" transform="scale(0.3 0.3)">
          <a xlink:href="Ioss__MeshType_8h__dep__incl_org.svg" target="_base">
           <rect id="button" ry="5" rx="5" y="6" x="6" height="38" width="38"
                fill="#f2f5e9" fill-opacity="0.5" stroke="#606060" stroke-width="1.0"/>
           <path id="arrow"
             d="M 11.500037,31.436501 C 11.940474,20.09759 22.043105,11.32322 32.158766,21.979434 L 37.068811,17.246167 C 37.068811,17.246167 37.088388,32 37.088388,32 L 22.160133,31.978069 C 22.160133,31.978069 26.997745,27.140456 26.997745,27.140456 C 18.528582,18.264221 13.291696,25.230495 11.500037,31.436501 z"
             style="fill:#404040;"/>
          </a>
         </g>
        </svg>
</svg>
