<?xml version="1.0" encoding="UTF-8" standalone="no"?>
<!DOCTYPE svg PUBLIC "-//W3C//DTD SVG 1.1//EN"
 "http://www.w3.org/Graphics/SVG/1.1/DTD/svg11.dtd">
<!-- Generated by graphviz version 2.40.1 (20161225.0304)
 -->
<!-- Title: src/Ioss_ElementSet.C Pages: 1 -->
<!--zoomable 522 -->
<svg id="main" version="1.1" xmlns="http://www.w3.org/2000/svg" xmlns:xlink="http://www.w3.org/1999/xlink" xml:space="preserve" onload="init(evt)">
<style type="text/css"><![CDATA[
.edge:hover path { stroke: red; }
.edge:hover polygon { stroke: red; fill: red; }
]]></style>
<script type="text/javascript"><![CDATA[
var edges = document.getElementsByTagName('g');
if (edges && edges.length) {
  for (var i=0;i<edges.length;i++) {
    if (edges[i].id.substr(0,4)=='edge') {
      edges[i].setAttribute('class','edge');
    }
  }
}
]]></script>
        <defs>
                <circle id="rim" cx="0" cy="0" r="7"/>
                <circle id="rim2" cx="0" cy="0" r="3.5"/>
                <g id="zoomPlus">
                        <use xlink:href="#rim" fill="#404040">
                                <set attributeName="fill" to="#808080" begin="zoomplus.mouseover" end="zoomplus.mouseout"/>
                        </use>
                        <path d="M-4,0h8M0,-4v8" fill="none" stroke="white" stroke-width="1.5" pointer-events="none"/>
                </g>
                <g id="zoomMin">
                        <use xlink:href="#rim" fill="#404040">
                                <set attributeName="fill" to="#808080" begin="zoomminus.mouseover" end="zoomminus.mouseout"/>
                        </use>
                        <path d="M-4,0h8" fill="none" stroke="white" stroke-width="1.5" pointer-events="none"/>
                </g>
                <g id="dirArrow">
                        <path fill="none" stroke="white" stroke-width="1.5" d="M0,-3.0v7 M-2.5,-0.5L0,-3.0L2.5,-0.5"/>
                </g>
               <g id="resetDef">
                       <use xlink:href="#rim2" fill="#404040">
                               <set attributeName="fill" to="#808080" begin="reset.mouseover" end="reset.mouseout"/>
                       </use>
               </g>
        </defs>

<script type="text/javascript">
var viewWidth = 2427;
var viewHeight = 522;
var sectionId = 'dynsection-0';
</script>
<script xlink:href="svgpan.js"/>
<svg id="graph" class="graph">
<g id="viewport">
<title>src/Ioss_ElementSet.C</title>
<polygon fill="#ffffff" stroke="transparent" points="-4,4 -4,-518 2423,-518 2423,4 -4,4"/>
<!-- Node0 -->
<g id="node1" class="node">
<title>Node0</title>
<g id="a_node1"><a xlink:title=" ">
<polygon fill="#bfbfbf" stroke="#000000" points="1371.1479,-495.5 1371.1479,-513.5 1488.8521,-513.5 1488.8521,-495.5 1371.1479,-495.5"/>
<text text-anchor="middle" x="1430" y="-501.5" font-family="Helvetica,sans-Serif" font-size="10.00" fill="#000000">src/Ioss_ElementSet.C</text>
</a>
</g>
</g>
<!-- Node1 -->
<g id="node2" class="node">
<title>Node1</title>
<g id="a_node2"><a xlink:href="Ioss__DatabaseIO_8h.html" target="_top" xlink:title=" ">
<polygon fill="#ffffff" stroke="#000000" points="811.1973,-275.5 811.1973,-293.5 912.8027,-293.5 912.8027,-275.5 811.1973,-275.5"/>
<text text-anchor="middle" x="862" y="-281.5" font-family="Helvetica,sans-Serif" font-size="10.00" fill="#000000">Ioss_DatabaseIO.h</text>
</a>
</g>
</g>
<!-- Node0&#45;&gt;Node1 -->
<g id="edge1" class="edge">
<title>Node0&#45;&gt;Node1</title>
<path fill="none" stroke="#191970" d="M1370.7447,-503.6486C1236.9953,-501.1523 920.6026,-491.8079 886,-459 843.3484,-418.5605 851.2125,-340.4831 857.7815,-304.0777"/>
<polygon fill="#191970" stroke="#191970" points="861.3029,-304.3107 859.8031,-293.8226 854.4351,-302.9568 861.3029,-304.3107"/>
</g>
<!-- Node5 -->
<g id="node6" class="node">
<title>Node5</title>
<g id="a_node6"><a xlink:title=" ">
<polygon fill="#ffffff" stroke="#bfbfbf" points="406.8794,-.5 406.8794,-18.5 455.1206,-18.5 455.1206,-.5 406.8794,-.5"/>
<text text-anchor="middle" x="431" y="-6.5" font-family="Helvetica,sans-Serif" font-size="10.00" fill="#000000">cstddef</text>
</a>
</g>
</g>
<!-- Node0&#45;&gt;Node5 -->
<g id="edge102" class="edge">
<title>Node0&#45;&gt;Node5</title>
<path fill="none" stroke="#191970" d="M1370.8266,-503.0986C1100.9619,-496.3264 0,-464.4138 0,-394.5 0,-394.5 0,-394.5 0,-119.5 0,-80.0438 25.7832,-72.7924 61,-55 119.3937,-25.498 316.3197,-14.216 396.5503,-10.7759"/>
<polygon fill="#191970" stroke="#191970" points="396.7813,-14.2695 406.628,-10.359 396.4919,-7.2754 396.7813,-14.2695"/>
</g>
<!-- Node7 -->
<g id="node8" class="node">
<title>Node7</title>
<g id="a_node8"><a xlink:title=" ">
<polygon fill="#ffffff" stroke="#bfbfbf" points="2066.7734,-.5 2066.7734,-18.5 2107.2266,-18.5 2107.2266,-.5 2066.7734,-.5"/>
<text text-anchor="middle" x="2087" y="-6.5" font-family="Helvetica,sans-Serif" font-size="10.00" fill="#000000">string</text>
</a>
</g>
</g>
<!-- Node0&#45;&gt;Node7 -->
<g id="edge103" class="edge">
<title>Node0&#45;&gt;Node7</title>
<path fill="none" stroke="#191970" d="M1489.0822,-502.5902C1643.1635,-497.3484 2054.5905,-481.6082 2189,-459 2293.695,-441.3899 2419,-500.6657 2419,-394.5 2419,-394.5 2419,-394.5 2419,-119.5 2419,-71.3659 2376.1296,-74.2216 2332,-55 2259.3268,-23.3455 2165.1758,-13.6949 2117.5203,-10.7661"/>
<polygon fill="#191970" stroke="#191970" points="2117.441,-7.2564 2107.2624,-10.1968 2117.0531,-14.2457 2117.441,-7.2564"/>
</g>
<!-- Node8 -->
<g id="node9" class="node">
<title>Node8</title>
<g id="a_node9"><a xlink:title=" ">
<polygon fill="#ffffff" stroke="#bfbfbf" points="1035.3843,-.5 1035.3843,-18.5 1078.6157,-18.5 1078.6157,-.5 1035.3843,-.5"/>
<text text-anchor="middle" x="1057" y="-6.5" font-family="Helvetica,sans-Serif" font-size="10.00" fill="#000000">vector</text>
</a>
</g>
</g>
<!-- Node0&#45;&gt;Node8 -->
<g id="edge104" class="edge">
<title>Node0&#45;&gt;Node8</title>
<path fill="none" stroke="#191970" d="M1370.9051,-499.8014C1293.751,-491.2655 1157.1173,-467.7169 1060,-404 1033.8262,-386.8278 1028.9728,-377.4896 1016,-349 961.7972,-229.9655 938.4189,-168.7385 1003,-55 1010.0689,-42.5504 1021.9257,-31.9908 1032.7312,-24.1876"/>
<polygon fill="#191970" stroke="#191970" points="1034.7497,-27.0477 1041.06,-18.5371 1030.8197,-21.255 1034.7497,-27.0477"/>
</g>
<!-- Node25 -->
<g id="node26" class="node">
<title>Node25</title>
<g id="a_node26"><a xlink:href="Ioss__Property_8h.html" target="_top" xlink:title=" ">
<polygon fill="#ffffff" stroke="#000000" points="2191.3516,-165.5 2191.3516,-183.5 2276.6484,-183.5 2276.6484,-165.5 2191.3516,-165.5"/>
<text text-anchor="middle" x="2234" y="-171.5" font-family="Helvetica,sans-Serif" font-size="10.00" fill="#000000">Ioss_Property.h</text>
</a>
</g>
</g>
<!-- Node0&#45;&gt;Node25 -->
<g id="edge101" class="edge">
<title>Node0&#45;&gt;Node25</title>
<path fill="none" stroke="#191970" d="M1489.1117,-503.2969C1685.6749,-498.5223 2305,-476.9377 2305,-394.5 2305,-394.5 2305,-394.5 2305,-284.5 2305,-245.8025 2273.5983,-209.9252 2252.5617,-190.2321"/>
<polygon fill="#191970" stroke="#191970" points="2254.8662,-187.5974 2245.0938,-183.5048 2250.1811,-192.7983 2254.8662,-187.5974"/>
</g>
<!-- Node31 -->
<g id="node32" class="node">
<title>Node31</title>
<g id="a_node32"><a xlink:href="Ioss__ElementSet_8h.html" target="_top" xlink:title=" ">
<polygon fill="#ffffff" stroke="#000000" points="1278.0322,-440.5 1278.0322,-458.5 1377.9678,-458.5 1377.9678,-440.5 1278.0322,-440.5"/>
<text text-anchor="middle" x="1328" y="-446.5" font-family="Helvetica,sans-Serif" font-size="10.00" fill="#000000">Ioss_ElementSet.h</text>
</a>
</g>
</g>
<!-- Node0&#45;&gt;Node31 -->
<g id="edge61" class="edge">
<title>Node0&#45;&gt;Node31</title>
<path fill="none" stroke="#191970" d="M1413.1568,-495.4179C1396.9893,-486.7001 1372.3462,-473.4122 1353.7224,-463.3699"/>
<polygon fill="#191970" stroke="#191970" points="1355.3314,-460.2611 1344.8682,-458.5956 1352.009,-466.4225 1355.3314,-460.2611"/>
</g>
<!-- Node32 -->
<g id="node33" class="node">
<title>Node32</title>
<g id="a_node33"><a xlink:href="Ioss__EntitySet_8h.html" target="_top" xlink:title=" ">
<polygon fill="#ffffff" stroke="#000000" points="2150.8696,-385.5 2150.8696,-403.5 2239.1304,-403.5 2239.1304,-385.5 2150.8696,-385.5"/>
<text text-anchor="middle" x="2195" y="-391.5" font-family="Helvetica,sans-Serif" font-size="10.00" fill="#000000">Ioss_EntitySet.h</text>
</a>
</g>
</g>
<!-- Node0&#45;&gt;Node32 -->
<g id="edge105" class="edge">
<title>Node0&#45;&gt;Node32</title>
<path fill="none" stroke="#191970" d="M1489.1861,-496.5174C1610.7068,-480.0325 1897.105,-440.6929 2137,-404 2138.2482,-403.8091 2139.5112,-403.6144 2140.7848,-403.4168"/>
<polygon fill="#191970" stroke="#191970" points="2141.3481,-406.8713 2150.6817,-401.858 2140.2589,-399.9566 2141.3481,-406.8713"/>
</g>
<!-- Node33 -->
<g id="node34" class="node">
<title>Node33</title>
<g id="a_node34"><a xlink:href="Ioss__GroupingEntity_8h.html" target="_top" xlink:title=" ">
<polygon fill="#ffffff" stroke="#000000" points="1450.1743,-330.5 1450.1743,-348.5 1563.8257,-348.5 1563.8257,-330.5 1450.1743,-330.5"/>
<text text-anchor="middle" x="1507" y="-336.5" font-family="Helvetica,sans-Serif" font-size="10.00" fill="#000000">Ioss_GroupingEntity.h</text>
</a>
</g>
</g>
<!-- Node0&#45;&gt;Node33 -->
<g id="edge106" class="edge">
<title>Node0&#45;&gt;Node33</title>
<path fill="none" stroke="#191970" d="M1434.3605,-495.1561C1446.6957,-468.7235 1482.0051,-393.0604 1498.4192,-357.8875"/>
<polygon fill="#191970" stroke="#191970" points="1501.6301,-359.2834 1502.6873,-348.7414 1495.2868,-356.3231 1501.6301,-359.2834"/>
</g>
<!-- Node2 -->
<g id="node3" class="node">
<title>Node2</title>
<g id="a_node3"><a xlink:href="Ioss__BoundingBox_8h.html" target="_top" xlink:title=" ">
<polygon fill="#ffffff" stroke="#000000" points="332.1333,-220.5 332.1333,-238.5 439.8667,-238.5 439.8667,-220.5 332.1333,-220.5"/>
<text text-anchor="middle" x="386" y="-226.5" font-family="Helvetica,sans-Serif" font-size="10.00" fill="#000000">Ioss_BoundingBox.h</text>
</a>
</g>
</g>
<!-- Node1&#45;&gt;Node2 -->
<g id="edge2" class="edge">
<title>Node1&#45;&gt;Node2</title>
<path fill="none" stroke="#191970" d="M811.0608,-279.2781C733.7892,-271.253 582.3512,-255.1194 454,-239 452.736,-238.8413 451.4589,-238.6792 450.1722,-238.5144"/>
<polygon fill="#191970" stroke="#191970" points="450.5421,-235.033 440.1725,-237.2063 449.634,-241.9739 450.5421,-235.033"/>
</g>
<!-- Node3 -->
<g id="node4" class="node">
<title>Node3</title>
<g id="a_node4"><a xlink:href="Ioss__CodeTypes_8h.html" target="_top" xlink:title=" ">
<polygon fill="#ffffff" stroke="#000000" points="1486.584,-55.5 1486.584,-73.5 1585.416,-73.5 1585.416,-55.5 1486.584,-55.5"/>
<text text-anchor="middle" x="1536" y="-61.5" font-family="Helvetica,sans-Serif" font-size="10.00" fill="#000000">Ioss_CodeTypes.h</text>
</a>
</g>
</g>
<!-- Node1&#45;&gt;Node3 -->
<g id="edge3" class="edge">
<title>Node1&#45;&gt;Node3</title>
<path fill="none" stroke="#191970" d="M882.4469,-275.3557C902.0342,-266.4679 932.3239,-252.388 958,-239 1060.552,-185.5277 1074.3477,-146.7773 1184,-110 1236.7707,-92.3007 1390.3567,-76.923 1476.19,-69.4044"/>
<polygon fill="#191970" stroke="#191970" points="1476.6501,-72.8777 1486.3103,-68.5268 1476.0453,-65.9039 1476.6501,-72.8777"/>
</g>
<!-- Node1&#45;&gt;Node5 -->
<g id="edge55" class="edge">
<title>Node1&#45;&gt;Node5</title>
<path fill="none" stroke="#191970" d="M810.737,-282.0114C682.3509,-275.535 353.9819,-257.3787 308,-239 265.5897,-222.0488 228,-220.1725 228,-174.5 228,-174.5 228,-174.5 228,-119.5 228,-43.8395 338.3568,-19.9506 396.3355,-12.6209"/>
<polygon fill="#191970" stroke="#191970" points="396.9852,-16.069 406.5135,-11.4362 396.1758,-9.1159 396.9852,-16.069"/>
</g>
<!-- Node6 -->
<g id="node7" class="node">
<title>Node6</title>
<g id="a_node7"><a xlink:title=" ">
<polygon fill="#ffffff" stroke="#bfbfbf" points="711.5493,-.5 711.5493,-18.5 756.4507,-18.5 756.4507,-.5 711.5493,-.5"/>
<text text-anchor="middle" x="734" y="-6.5" font-family="Helvetica,sans-Serif" font-size="10.00" fill="#000000">cstdint</text>
</a>
</g>
</g>
<!-- Node1&#45;&gt;Node6 -->
<g id="edge56" class="edge">
<title>Node1&#45;&gt;Node6</title>
<path fill="none" stroke="#191970" d="M811.1332,-282.0164C713.6271,-276.7326 508.1474,-262.8684 487,-239 461.4686,-210.1836 392.6064,-205.3023 583,-55 617.6139,-27.6748 668.4462,-16.7226 701.3864,-12.3574"/>
<polygon fill="#191970" stroke="#191970" points="701.8955,-15.8215 711.4093,-11.1592 701.0645,-8.871 701.8955,-15.8215"/>
</g>
<!-- Node1&#45;&gt;Node7 -->
<g id="edge58" class="edge">
<title>Node1&#45;&gt;Node7</title>
<path fill="none" stroke="#191970" d="M912.8958,-284.3414C1097.7457,-283.4537 1733.1624,-277.599 1932,-239 2003.7577,-225.0702 2034.7021,-235.07 2087,-184 2128.6663,-143.3119 2123.5045,-111.6501 2110,-55 2107.7237,-45.4511 2103.1029,-35.6361 2098.5963,-27.5779"/>
<polygon fill="#191970" stroke="#191970" points="2101.4571,-25.5422 2093.3211,-18.7558 2095.4492,-29.1347 2101.4571,-25.5422"/>
</g>
<!-- Node1&#45;&gt;Node8 -->
<g id="edge60" class="edge">
<title>Node1&#45;&gt;Node8</title>
<path fill="none" stroke="#191970" d="M873.6482,-275.4799C883.3155,-267.1947 896.3595,-253.959 902,-239 910.7952,-215.6746 894.6827,-208.655 891,-184 882.4388,-126.684 870.0783,-97.0081 910,-55 925.8548,-38.3166 986.9579,-23.4794 1025.2184,-15.5607"/>
<polygon fill="#191970" stroke="#191970" points="1026.2384,-18.9255 1035.3475,-13.515 1024.8525,-12.064 1026.2384,-18.9255"/>
</g>
<!-- Node11 -->
<g id="node12" class="node">
<title>Node11</title>
<g id="a_node12"><a xlink:href="Ioss__DBUsage_8h.html" target="_top" xlink:title=" ">
<polygon fill="#ffffff" stroke="#000000" points="496.4805,-220.5 496.4805,-238.5 587.5195,-238.5 587.5195,-220.5 496.4805,-220.5"/>
<text text-anchor="middle" x="542" y="-226.5" font-family="Helvetica,sans-Serif" font-size="10.00" fill="#000000">Ioss_DBUsage.h</text>
</a>
</g>
</g>
<!-- Node1&#45;&gt;Node11 -->
<g id="edge11" class="edge">
<title>Node1&#45;&gt;Node11</title>
<path fill="none" stroke="#191970" d="M811.1951,-275.7924C760.0369,-267.0208 678.5506,-253.0396 597.9521,-239.1626"/>
<polygon fill="#191970" stroke="#191970" points="598.0668,-235.6309 587.6179,-237.3831 596.8789,-242.5294 598.0668,-235.6309"/>
</g>
<!-- Node12 -->
<g id="node13" class="node">
<title>Node12</title>
<g id="a_node13"><a xlink:href="Ioss__DataSize_8h.html" target="_top" xlink:title=" ">
<polygon fill="#ffffff" stroke="#000000" points="605.5913,-220.5 605.5913,-238.5 694.4087,-238.5 694.4087,-220.5 605.5913,-220.5"/>
<text text-anchor="middle" x="650" y="-226.5" font-family="Helvetica,sans-Serif" font-size="10.00" fill="#000000">Ioss_DataSize.h</text>
</a>
</g>
</g>
<!-- Node1&#45;&gt;Node12 -->
<g id="edge12" class="edge">
<title>Node1&#45;&gt;Node12</title>
<path fill="none" stroke="#191970" d="M826.9925,-275.4179C790.7496,-266.0152 734.0141,-251.2961 694.5854,-241.067"/>
<polygon fill="#191970" stroke="#191970" points="695.2656,-237.6276 684.7071,-238.5042 693.5078,-244.4033 695.2656,-237.6276"/>
</g>
<!-- Node13 -->
<g id="node14" class="node">
<title>Node13</title>
<g id="a_node14"><a xlink:href="Ioss__EntityType_8h.html" target="_top" xlink:title=" ">
<polygon fill="#ffffff" stroke="#000000" points="1294.5322,-220.5 1294.5322,-238.5 1389.4678,-238.5 1389.4678,-220.5 1294.5322,-220.5"/>
<text text-anchor="middle" x="1342" y="-226.5" font-family="Helvetica,sans-Serif" font-size="10.00" fill="#000000">Ioss_EntityType.h</text>
</a>
</g>
</g>
<!-- Node1&#45;&gt;Node13 -->
<g id="edge13" class="edge">
<title>Node1&#45;&gt;Node13</title>
<path fill="none" stroke="#191970" d="M913.0308,-280.0398C990.9278,-273.008 1144.3869,-258.2779 1284.321,-239.167"/>
<polygon fill="#191970" stroke="#191970" points="1284.9424,-242.6146 1294.3717,-237.7835 1283.9878,-235.68 1284.9424,-242.6146"/>
</g>
<!-- Node14 -->
<g id="node15" class="node">
<title>Node14</title>
<g id="a_node15"><a xlink:href="Ioss__Map_8h.html" target="_top" xlink:title=" ">
<polygon fill="#ffffff" stroke="#000000" points="738.1528,-110.5 738.1528,-128.5 805.8472,-128.5 805.8472,-110.5 738.1528,-110.5"/>
<text text-anchor="middle" x="772" y="-116.5" font-family="Helvetica,sans-Serif" font-size="10.00" fill="#000000">Ioss_Map.h</text>
</a>
</g>
</g>
<!-- Node1&#45;&gt;Node14 -->
<g id="edge14" class="edge">
<title>Node1&#45;&gt;Node14</title>
<path fill="none" stroke="#191970" d="M870.3589,-275.1786C880.6461,-262.5147 895.7401,-239.2453 887,-220 881.889,-208.7457 823.2095,-160.5655 791.7112,-135.2237"/>
<polygon fill="#191970" stroke="#191970" points="793.606,-132.2568 783.6149,-128.7312 789.2268,-137.7178 793.606,-132.2568"/>
</g>
<!-- Node15 -->
<g id="node16" class="node">
<title>Node15</title>
<g id="a_node16"><a xlink:title=" ">
<polygon fill="#ffffff" stroke="#bfbfbf" points="591.6084,-55.5 591.6084,-73.5 630.3916,-73.5 630.3916,-55.5 591.6084,-55.5"/>
<text text-anchor="middle" x="611" y="-61.5" font-family="Helvetica,sans-Serif" font-size="10.00" fill="#000000">utility</text>
</a>
</g>
</g>
<!-- Node1&#45;&gt;Node15 -->
<g id="edge59" class="edge">
<title>Node1&#45;&gt;Node15</title>
<path fill="none" stroke="#191970" d="M810.8837,-284.098C681.3659,-282.5502 348.1922,-275.0678 315,-239 309.2817,-232.7863 310.3969,-227.0796 315,-220 342.1692,-178.2138 476.6765,-153.6438 520,-129 546.037,-114.1893 573.8339,-93.7273 591.7574,-79.8512"/>
<polygon fill="#191970" stroke="#191970" points="593.9968,-82.5431 599.7121,-73.622 589.6809,-77.0318 593.9968,-82.5431"/>
</g>
<!-- Node16 -->
<g id="node17" class="node">
<title>Node16</title>
<g id="a_node17"><a xlink:href="Ioss__ParallelUtils_8h.html" target="_top" xlink:title=" ">
<polygon fill="#ffffff" stroke="#000000" points="1086.4829,-220.5 1086.4829,-238.5 1187.5171,-238.5 1187.5171,-220.5 1086.4829,-220.5"/>
<text text-anchor="middle" x="1137" y="-226.5" font-family="Helvetica,sans-Serif" font-size="10.00" fill="#000000">Ioss_ParallelUtils.h</text>
</a>
</g>
</g>
<!-- Node1&#45;&gt;Node16 -->
<g id="edge21" class="edge">
<title>Node1&#45;&gt;Node16</title>
<path fill="none" stroke="#191970" d="M907.1027,-275.4795C954.9585,-265.9083 1030.6064,-250.7787 1081.9446,-240.5111"/>
<polygon fill="#191970" stroke="#191970" points="1082.7533,-243.9187 1091.8727,-238.5255 1081.3804,-237.0547 1082.7533,-243.9187"/>
</g>
<!-- Node24 -->
<g id="node25" class="node">
<title>Node24</title>
<g id="a_node25"><a xlink:href="Ioss__PropertyManager_8h.html" target="_top" xlink:title=" ">
<polygon fill="#ffffff" stroke="#000000" points="1444.5225,-220.5 1444.5225,-238.5 1569.4775,-238.5 1569.4775,-220.5 1444.5225,-220.5"/>
<text text-anchor="middle" x="1507" y="-226.5" font-family="Helvetica,sans-Serif" font-size="10.00" fill="#000000">Ioss_PropertyManager.h</text>
</a>
</g>
</g>
<!-- Node1&#45;&gt;Node24 -->
<g id="edge43" class="edge">
<title>Node1&#45;&gt;Node24</title>
<path fill="none" stroke="#191970" d="M912.9972,-280.2094C1008.2801,-272.1844 1219.8158,-254.3277 1398,-239 1409.7545,-237.9889 1422.2213,-236.9092 1434.3629,-235.8537"/>
<polygon fill="#191970" stroke="#191970" points="1434.8037,-239.3287 1444.4626,-234.9748 1434.1968,-232.355 1434.8037,-239.3287"/>
</g>
<!-- Node27 -->
<g id="node28" class="node">
<title>Node27</title>
<g id="a_node28"><a xlink:href="Ioss__State_8h.html" target="_top" xlink:title=" ">
<polygon fill="#ffffff" stroke="#000000" points="1205.2046,-220.5 1205.2046,-238.5 1276.7954,-238.5 1276.7954,-220.5 1205.2046,-220.5"/>
<text text-anchor="middle" x="1241" y="-226.5" font-family="Helvetica,sans-Serif" font-size="10.00" fill="#000000">Ioss_State.h</text>
</a>
</g>
</g>
<!-- Node1&#45;&gt;Node27 -->
<g id="edge52" class="edge">
<title>Node1&#45;&gt;Node27</title>
<path fill="none" stroke="#191970" d="M912.9852,-278.8237C976.7639,-271.4463 1089.5199,-257.4934 1194.8574,-239.2808"/>
<polygon fill="#191970" stroke="#191970" points="1195.7775,-242.6732 1205.0263,-237.5051 1194.5733,-235.7775 1195.7775,-242.6732"/>
</g>
<!-- Node28 -->
<g id="node29" class="node">
<title>Node28</title>
<g id="a_node29"><a xlink:href="Ioss__SurfaceSplit_8h.html" target="_top" xlink:title=" ">
<polygon fill="#ffffff" stroke="#000000" points="711.9214,-220.5 711.9214,-238.5 814.0786,-238.5 814.0786,-220.5 711.9214,-220.5"/>
<text text-anchor="middle" x="763" y="-226.5" font-family="Helvetica,sans-Serif" font-size="10.00" fill="#000000">Ioss_SurfaceSplit.h</text>
</a>
</g>
</g>
<!-- Node1&#45;&gt;Node28 -->
<g id="edge53" class="edge">
<title>Node1&#45;&gt;Node28</title>
<path fill="none" stroke="#191970" d="M845.6522,-275.4179C830.0319,-266.7399 806.2602,-253.5334 788.2138,-243.5077"/>
<polygon fill="#191970" stroke="#191970" points="789.8135,-240.3925 779.3721,-238.5956 786.4139,-246.5117 789.8135,-240.3925"/>
</g>
<!-- Node29 -->
<g id="node30" class="node">
<title>Node29</title>
<g id="a_node30"><a xlink:title=" ">
<polygon fill="#ffffff" stroke="#bfbfbf" points="831.7119,-220.5 831.7119,-238.5 878.2881,-238.5 878.2881,-220.5 831.7119,-220.5"/>
<text text-anchor="middle" x="855" y="-226.5" font-family="Helvetica,sans-Serif" font-size="10.00" fill="#000000">chrono</text>
</a>
</g>
</g>
<!-- Node1&#45;&gt;Node29 -->
<g id="edge54" class="edge">
<title>Node1&#45;&gt;Node29</title>
<path fill="none" stroke="#191970" d="M860.8441,-275.4179C859.9275,-268.2164 858.6141,-257.8962 857.4644,-248.8632"/>
<polygon fill="#191970" stroke="#191970" points="860.9156,-248.2575 856.181,-238.7795 853.9717,-249.1414 860.9156,-248.2575"/>
</g>
<!-- Node30 -->
<g id="node31" class="node">
<title>Node30</title>
<g id="a_node31"><a xlink:title=" ">
<polygon fill="#ffffff" stroke="#bfbfbf" points="1199.2734,-165.5 1199.2734,-183.5 1234.7266,-183.5 1234.7266,-165.5 1199.2734,-165.5"/>
<text text-anchor="middle" x="1217" y="-171.5" font-family="Helvetica,sans-Serif" font-size="10.00" fill="#000000">map</text>
</a>
</g>
</g>
<!-- Node1&#45;&gt;Node30 -->
<g id="edge57" class="edge">
<title>Node1&#45;&gt;Node30</title>
<path fill="none" stroke="#191970" d="M811.163,-284.0336C683.2031,-282.3335 355.6486,-274.5208 323,-239 317.2855,-232.7828 317.1826,-226.121 323,-220 353.551,-187.8546 1040.5339,-176.8582 1188.9125,-174.8541"/>
<polygon fill="#191970" stroke="#191970" points="1189.0686,-178.3524 1199.0214,-174.7203 1188.9759,-171.353 1189.0686,-178.3524"/>
</g>
<!-- Node4 -->
<g id="node5" class="node">
<title>Node4</title>
<g id="a_node5"><a xlink:title=" ">
<polygon fill="#ffffff" stroke="#bfbfbf" points="1580.6084,-.5 1580.6084,-18.5 1619.3916,-18.5 1619.3916,-.5 1580.6084,-.5"/>
<text text-anchor="middle" x="1600" y="-6.5" font-family="Helvetica,sans-Serif" font-size="10.00" fill="#000000">array</text>
</a>
</g>
</g>
<!-- Node3&#45;&gt;Node4 -->
<g id="edge4" class="edge">
<title>Node3&#45;&gt;Node4</title>
<path fill="none" stroke="#191970" d="M1546.5683,-55.4179C1556.0533,-47.2667 1570.1875,-35.1201 1581.5366,-25.3669"/>
<polygon fill="#191970" stroke="#191970" points="1583.8991,-27.9516 1589.2021,-18.7795 1579.3367,-22.6427 1583.8991,-27.9516"/>
</g>
<!-- Node3&#45;&gt;Node5 -->
<g id="edge5" class="edge">
<title>Node3&#45;&gt;Node5</title>
<path fill="none" stroke="#191970" d="M1486.3738,-62.0299C1297.5361,-52.6308 626.3462,-19.2231 465.7207,-11.2282"/>
<polygon fill="#191970" stroke="#191970" points="465.631,-7.7195 455.4693,-10.7179 465.2829,-14.7108 465.631,-7.7195"/>
</g>
<!-- Node3&#45;&gt;Node6 -->
<g id="edge6" class="edge">
<title>Node3&#45;&gt;Node6</title>
<path fill="none" stroke="#191970" d="M1486.4365,-61.101C1336.6107,-50.8262 891.0966,-20.2735 766.6264,-11.7375"/>
<polygon fill="#191970" stroke="#191970" points="766.7926,-8.2407 756.5765,-11.0483 766.3136,-15.2243 766.7926,-8.2407"/>
</g>
<!-- Node3&#45;&gt;Node7 -->
<g id="edge7" class="edge">
<title>Node3&#45;&gt;Node7</title>
<path fill="none" stroke="#191970" d="M1585.8694,-59.5221C1697.7491,-48.3544 1966.0293,-21.5751 2056.567,-12.5378"/>
<polygon fill="#191970" stroke="#191970" points="2057.1018,-16.0019 2066.7046,-11.5259 2056.4064,-9.0365 2057.1018,-16.0019"/>
</g>
<!-- Node3&#45;&gt;Node8 -->
<g id="edge8" class="edge">
<title>Node3&#45;&gt;Node8</title>
<path fill="none" stroke="#191970" d="M1486.5042,-56.8418C1481.942,-56.1947 1477.3875,-55.5705 1473,-55 1330.0695,-36.4148 1158.8399,-19.31 1089.008,-12.5523"/>
<polygon fill="#191970" stroke="#191970" points="1088.9806,-9.0335 1078.6909,-11.5579 1088.309,-16.0012 1088.9806,-9.0335"/>
</g>
<!-- Node9 -->
<g id="node10" class="node">
<title>Node9</title>
<g id="a_node10"><a xlink:title=" ">
<polygon fill="#ffffff" stroke="#bfbfbf" points="1376.2515,-.5 1376.2515,-18.5 1491.7485,-18.5 1491.7485,-.5 1376.2515,-.5"/>
<text text-anchor="middle" x="1434" y="-6.5" font-family="Helvetica,sans-Serif" font-size="10.00" fill="#000000">SEACASIoss_config.h</text>
</a>
</g>
</g>
<!-- Node3&#45;&gt;Node9 -->
<g id="edge9" class="edge">
<title>Node3&#45;&gt;Node9</title>
<path fill="none" stroke="#191970" d="M1519.1568,-55.4179C1502.9893,-46.7001 1478.3462,-33.4122 1459.7224,-23.3699"/>
<polygon fill="#191970" stroke="#191970" points="1461.3314,-20.2611 1450.8682,-18.5956 1458.009,-26.4225 1461.3314,-20.2611"/>
</g>
<!-- Node10 -->
<g id="node11" class="node">
<title>Node10</title>
<g id="a_node11"><a xlink:title=" ">
<polygon fill="#ffffff" stroke="#bfbfbf" points="1509.3818,-.5 1509.3818,-18.5 1562.6182,-18.5 1562.6182,-.5 1509.3818,-.5"/>
<text text-anchor="middle" x="1536" y="-6.5" font-family="Helvetica,sans-Serif" font-size="10.00" fill="#000000">complex</text>
</a>
</g>
</g>
<!-- Node3&#45;&gt;Node10 -->
<g id="edge10" class="edge">
<title>Node3&#45;&gt;Node10</title>
<path fill="none" stroke="#191970" d="M1536,-55.4179C1536,-48.2164 1536,-37.8962 1536,-28.8632"/>
<polygon fill="#191970" stroke="#191970" points="1539.5001,-28.7794 1536,-18.7795 1532.5001,-28.7795 1539.5001,-28.7794"/>
</g>
<!-- Node14&#45;&gt;Node3 -->
<g id="edge15" class="edge">
<title>Node14&#45;&gt;Node3</title>
<path fill="none" stroke="#191970" d="M806.3117,-117.0299C925.7342,-108.4327 1324.1719,-79.7494 1476.2821,-68.7991"/>
<polygon fill="#191970" stroke="#191970" points="1476.6479,-72.2819 1486.3707,-68.0728 1476.1452,-65.3 1476.6479,-72.2819"/>
</g>
<!-- Node14&#45;&gt;Node5 -->
<g id="edge16" class="edge">
<title>Node14&#45;&gt;Node5</title>
<path fill="none" stroke="#191970" d="M761.0971,-110.4074C743.5193,-96.2465 707.3051,-69.0901 672,-55 601.9613,-27.0479 513.4851,-15.9945 465.6036,-11.8363"/>
<polygon fill="#191970" stroke="#191970" points="465.7139,-8.3337 455.4618,-11.0069 465.1432,-15.3105 465.7139,-8.3337"/>
</g>
<!-- Node14&#45;&gt;Node6 -->
<g id="edge17" class="edge">
<title>Node14&#45;&gt;Node6</title>
<path fill="none" stroke="#191970" d="M768.8903,-110.4982C762.711,-92.6108 748.7714,-52.2594 740.5039,-28.3271"/>
<polygon fill="#191970" stroke="#191970" points="743.7261,-26.9352 737.1527,-18.6261 737.1098,-29.2209 743.7261,-26.9352"/>
</g>
<!-- Node14&#45;&gt;Node7 -->
<g id="edge18" class="edge">
<title>Node14&#45;&gt;Node7</title>
<path fill="none" stroke="#191970" d="M806.1463,-116.1786C908.14,-106.3011 1219.4986,-76.4635 1478,-55 1699.8775,-36.5774 1967.5225,-17.7631 2056.5587,-11.5955"/>
<polygon fill="#191970" stroke="#191970" points="2057.0164,-15.0723 2066.7511,-10.8907 2056.5335,-8.089 2057.0164,-15.0723"/>
</g>
<!-- Node14&#45;&gt;Node8 -->
<g id="edge20" class="edge">
<title>Node14&#45;&gt;Node8</title>
<path fill="none" stroke="#191970" d="M778.0129,-110.3344C787.8875,-96.0734 808.9633,-68.7824 834,-55 866.6136,-37.0467 972.0403,-20.8709 1025.4163,-13.5832"/>
<polygon fill="#191970" stroke="#191970" points="1025.916,-17.0476 1035.3605,-12.2463 1024.9832,-10.11 1025.916,-17.0476"/>
</g>
<!-- Node14&#45;&gt;Node15 -->
<g id="edge19" class="edge">
<title>Node14&#45;&gt;Node15</title>
<path fill="none" stroke="#191970" d="M745.4141,-110.4179C716.3663,-100.4947 669.9849,-84.6501 640.0124,-74.4111"/>
<polygon fill="#191970" stroke="#191970" points="641.1201,-71.091 630.5256,-71.1702 638.8572,-77.7151 641.1201,-71.091"/>
</g>
<!-- Node16&#45;&gt;Node3 -->
<g id="edge22" class="edge">
<title>Node16&#45;&gt;Node3</title>
<path fill="none" stroke="#191970" d="M1139.5,-220.4182C1146.3184,-197.5276 1167.5593,-137.3522 1209,-110 1251.7213,-81.8026 1394.0076,-70.8032 1476.1301,-66.7297"/>
<polygon fill="#191970" stroke="#191970" points="1476.5024,-70.216 1486.3245,-66.2442 1476.1694,-63.2239 1476.5024,-70.216"/>
</g>
<!-- Node16&#45;&gt;Node5 -->
<g id="edge40" class="edge">
<title>Node16&#45;&gt;Node5</title>
<path fill="none" stroke="#191970" d="M1086.2954,-224.3353C985.8255,-213.2766 755.0098,-183.7501 568,-129 507.0047,-111.1427 473.273,-125.4785 436,-74 426.6446,-61.0791 426.1311,-42.6415 427.528,-28.7858"/>
<polygon fill="#191970" stroke="#191970" points="430.9986,-29.2392 428.9255,-18.8492 424.0668,-28.2642 430.9986,-29.2392"/>
</g>
<!-- Node16&#45;&gt;Node7 -->
<g id="edge41" class="edge">
<title>Node16&#45;&gt;Node7</title>
<path fill="none" stroke="#191970" d="M1187.8073,-221.0105C1190.5753,-220.6445 1193.3197,-220.3041 1196,-220 1435.8804,-192.7812 1506.9645,-254.0432 1738,-184 1754.196,-179.0898 1755.7175,-172.2709 1771,-165 1811.3977,-145.78 1824.3316,-147.6404 1865,-129 1939.0424,-95.0626 2022.7401,-47.3233 2062.9357,-23.778"/>
<polygon fill="#191970" stroke="#191970" points="2064.8917,-26.6881 2071.7368,-18.6013 2061.3428,-20.6544 2064.8917,-26.6881"/>
</g>
<!-- Node16&#45;&gt;Node8 -->
<g id="edge42" class="edge">
<title>Node16&#45;&gt;Node8</title>
<path fill="none" stroke="#191970" d="M1119.4747,-220.3369C1092.9648,-205.3536 1043.6762,-172.8319 1024,-129 1010.531,-98.9956 1013.8498,-86.2834 1024,-55 1027.4422,-44.3911 1034.3888,-34.1855 1041.0245,-26.1379"/>
<polygon fill="#191970" stroke="#191970" points="1043.6775,-28.4211 1047.667,-18.606 1038.4275,-23.791 1043.6775,-28.4211"/>
</g>
<!-- Node17 -->
<g id="node18" class="node">
<title>Node17</title>
<g id="a_node18"><a xlink:href="Ioss__Utils_8h.html" target="_top" xlink:title=" ">
<polygon fill="#ffffff" stroke="#000000" points="1661.1577,-165.5 1661.1577,-183.5 1728.8423,-183.5 1728.8423,-165.5 1661.1577,-165.5"/>
<text text-anchor="middle" x="1695" y="-171.5" font-family="Helvetica,sans-Serif" font-size="10.00" fill="#000000">Ioss_Utils.h</text>
</a>
</g>
</g>
<!-- Node16&#45;&gt;Node17 -->
<g id="edge23" class="edge">
<title>Node16&#45;&gt;Node17</title>
<path fill="none" stroke="#191970" d="M1187.8169,-221.0903C1190.5823,-220.7037 1193.3236,-220.3371 1196,-220 1363.5348,-198.8992 1563.8953,-183.6382 1650.9817,-177.4924"/>
<polygon fill="#191970" stroke="#191970" points="1651.2997,-180.9788 1661.0306,-176.7883 1650.8104,-173.9959 1651.2997,-180.9788"/>
</g>
<!-- Node20 -->
<g id="node21" class="node">
<title>Node20</title>
<g id="a_node21"><a xlink:title=" ">
<polygon fill="#ffffff" stroke="#bfbfbf" points="1217.8843,-110.5 1217.8843,-128.5 1266.1157,-128.5 1266.1157,-110.5 1217.8843,-110.5"/>
<text text-anchor="middle" x="1242" y="-116.5" font-family="Helvetica,sans-Serif" font-size="10.00" fill="#000000">cassert</text>
</a>
</g>
</g>
<!-- Node16&#45;&gt;Node20 -->
<g id="edge39" class="edge">
<title>Node16&#45;&gt;Node20</title>
<path fill="none" stroke="#191970" d="M1187.5243,-220.7489C1208.6979,-214.3158 1231.3049,-203.1937 1244,-184 1252.7783,-170.7282 1251.2004,-152.3291 1248.0556,-138.5772"/>
<polygon fill="#191970" stroke="#191970" points="1251.3775,-137.4556 1245.3656,-128.7316 1244.625,-139.3005 1251.3775,-137.4556"/>
</g>
<!-- Node17&#45;&gt;Node3 -->
<g id="edge24" class="edge">
<title>Node17&#45;&gt;Node3</title>
<path fill="none" stroke="#191970" d="M1692.9423,-165.2365C1689.3909,-151.339 1680.8173,-125.1155 1664,-110 1644.9685,-92.8943 1619.0765,-82.1152 1595.5579,-75.3726"/>
<polygon fill="#191970" stroke="#191970" points="1596.2156,-71.9255 1585.6508,-72.7234 1594.4072,-78.6879 1596.2156,-71.9255"/>
</g>
<!-- Node17&#45;&gt;Node5 -->
<g id="edge32" class="edge">
<title>Node17&#45;&gt;Node5</title>
<path fill="none" stroke="#191970" d="M1661.0281,-172.8811C1621.2375,-170.9862 1553.334,-167.7562 1495,-165 1409.8899,-160.9787 808.5141,-159.6171 729,-129 680.6738,-110.3919 685.5901,-77.6063 639,-55 581.9749,-27.3305 508.0252,-16.3143 465.4064,-12.0561"/>
<polygon fill="#191970" stroke="#191970" points="465.5568,-8.555 455.2755,-11.113 464.908,-15.5249 465.5568,-8.555"/>
</g>
<!-- Node17&#45;&gt;Node6 -->
<g id="edge33" class="edge">
<title>Node17&#45;&gt;Node6</title>
<path fill="none" stroke="#191970" d="M1660.8097,-170.977C1616.213,-165.6114 1536.3006,-153.338 1472,-129 1456.1719,-123.009 1454.9998,-115.5161 1439,-110 1311.3602,-65.9946 888.3608,-23.9246 766.884,-12.5181"/>
<polygon fill="#191970" stroke="#191970" points="767.0076,-9.0145 756.7255,-11.5699 766.3569,-15.9842 767.0076,-9.0145"/>
</g>
<!-- Node17&#45;&gt;Node7 -->
<g id="edge37" class="edge">
<title>Node17&#45;&gt;Node7</title>
<path fill="none" stroke="#191970" d="M1728.9417,-168.2377C1759.4644,-161.6142 1804.7833,-149.2651 1840,-129 1882.2636,-104.6798 1878.2992,-78.5441 1921,-55 1964.7542,-30.8751 2022.167,-18.8542 2056.7316,-13.4175"/>
<polygon fill="#191970" stroke="#191970" points="2057.3091,-16.8702 2066.6845,-11.9356 2056.2781,-9.9465 2057.3091,-16.8702"/>
</g>
<!-- Node17&#45;&gt;Node8 -->
<g id="edge38" class="edge">
<title>Node17&#45;&gt;Node8</title>
<path fill="none" stroke="#191970" d="M1661.0301,-166.8724C1616.6714,-156.7467 1541.5493,-138.9854 1515,-129 1447.2797,-103.53 1438.9442,-76.9421 1370,-55 1270.7024,-23.3977 1146.6253,-13.6456 1089.0708,-10.7148"/>
<polygon fill="#191970" stroke="#191970" points="1088.9503,-7.2053 1078.7962,-10.2292 1088.6198,-14.1975 1088.9503,-7.2053"/>
</g>
<!-- Node18 -->
<g id="node19" class="node">
<title>Node18</title>
<g id="a_node19"><a xlink:href="Ioss__Field_8h.html" target="_top" xlink:title=" ">
<polygon fill="#ffffff" stroke="#000000" points="1360.042,-110.5 1360.042,-128.5 1429.958,-128.5 1429.958,-110.5 1360.042,-110.5"/>
<text text-anchor="middle" x="1395" y="-116.5" font-family="Helvetica,sans-Serif" font-size="10.00" fill="#000000">Ioss_Field.h</text>
</a>
</g>
</g>
<!-- Node17&#45;&gt;Node18 -->
<g id="edge25" class="edge">
<title>Node17&#45;&gt;Node18</title>
<path fill="none" stroke="#191970" d="M1660.9277,-167.6697C1656.2509,-166.7576 1651.5086,-165.8459 1647,-165 1556.9412,-148.1042 1534.0914,-145.7207 1444,-129 1442.73,-128.7643 1441.4418,-128.5238 1440.1418,-128.28"/>
<polygon fill="#191970" stroke="#191970" points="1440.5279,-124.7909 1430.0508,-126.3661 1439.2235,-131.6683 1440.5279,-124.7909"/>
</g>
<!-- Node19 -->
<g id="node20" class="node">
<title>Node19</title>
<g id="a_node20"><a xlink:title=" ">
<polygon fill="#ffffff" stroke="#bfbfbf" points="1711.436,-110.5 1711.436,-128.5 1768.564,-128.5 1768.564,-110.5 1711.436,-110.5"/>
<text text-anchor="middle" x="1740" y="-116.5" font-family="Helvetica,sans-Serif" font-size="10.00" fill="#000000">algorithm</text>
</a>
</g>
</g>
<!-- Node17&#45;&gt;Node19 -->
<g id="edge30" class="edge">
<title>Node17&#45;&gt;Node19</title>
<path fill="none" stroke="#191970" d="M1702.4308,-165.4179C1708.7762,-157.6624 1718.0809,-146.29 1725.8426,-136.8035"/>
<polygon fill="#191970" stroke="#191970" points="1728.7842,-138.7354 1732.4077,-128.7795 1723.3664,-134.3027 1728.7842,-138.7354"/>
</g>
<!-- Node17&#45;&gt;Node20 -->
<g id="edge31" class="edge">
<title>Node17&#45;&gt;Node20</title>
<path fill="none" stroke="#191970" d="M1660.9514,-170.3661C1576.9905,-160.1721 1360.7573,-133.9187 1276.4141,-123.6783"/>
<polygon fill="#191970" stroke="#191970" points="1276.6854,-120.1856 1266.3365,-122.4548 1275.8417,-127.1346 1276.6854,-120.1856"/>
</g>
<!-- Node21 -->
<g id="node22" class="node">
<title>Node21</title>
<g id="a_node22"><a xlink:title=" ">
<polygon fill="#ffffff" stroke="#bfbfbf" points="1786.8276,-110.5 1786.8276,-128.5 1831.1724,-128.5 1831.1724,-110.5 1786.8276,-110.5"/>
<text text-anchor="middle" x="1809" y="-116.5" font-family="Helvetica,sans-Serif" font-size="10.00" fill="#000000">cstdlib</text>
</a>
</g>
</g>
<!-- Node17&#45;&gt;Node21 -->
<g id="edge34" class="edge">
<title>Node17&#45;&gt;Node21</title>
<path fill="none" stroke="#191970" d="M1713.8248,-165.4179C1732.1418,-156.5807 1760.1929,-143.0473 1781.103,-132.9591"/>
<polygon fill="#191970" stroke="#191970" points="1782.6615,-136.0933 1790.1473,-128.5956 1779.6198,-129.7887 1782.6615,-136.0933"/>
</g>
<!-- Node22 -->
<g id="node23" class="node">
<title>Node22</title>
<g id="a_node23"><a xlink:title=" ">
<polygon fill="#ffffff" stroke="#bfbfbf" points="1523.8276,-110.5 1523.8276,-128.5 1578.1724,-128.5 1578.1724,-110.5 1523.8276,-110.5"/>
<text text-anchor="middle" x="1551" y="-116.5" font-family="Helvetica,sans-Serif" font-size="10.00" fill="#000000">iostream</text>
</a>
</g>
</g>
<!-- Node17&#45;&gt;Node22 -->
<g id="edge35" class="edge">
<title>Node17&#45;&gt;Node22</title>
<path fill="none" stroke="#191970" d="M1671.2213,-165.4179C1647.5629,-156.3817 1611.0487,-142.4353 1584.4676,-132.2828"/>
<polygon fill="#191970" stroke="#191970" points="1585.4046,-128.8941 1574.814,-128.5956 1582.907,-135.4334 1585.4046,-128.8941"/>
</g>
<!-- Node23 -->
<g id="node24" class="node">
<title>Node23</title>
<g id="a_node24"><a xlink:title=" ">
<polygon fill="#ffffff" stroke="#bfbfbf" points="1596.5986,-110.5 1596.5986,-128.5 1655.4014,-128.5 1655.4014,-110.5 1596.5986,-110.5"/>
<text text-anchor="middle" x="1626" y="-116.5" font-family="Helvetica,sans-Serif" font-size="10.00" fill="#000000">stdexcept</text>
</a>
</g>
</g>
<!-- Node17&#45;&gt;Node23 -->
<g id="edge36" class="edge">
<title>Node17&#45;&gt;Node23</title>
<path fill="none" stroke="#191970" d="M1683.6061,-165.4179C1673.2808,-157.1876 1657.8453,-144.8839 1645.5503,-135.0836"/>
<polygon fill="#191970" stroke="#191970" points="1647.6429,-132.2757 1637.6415,-128.7795 1643.2796,-137.7495 1647.6429,-132.2757"/>
</g>
<!-- Node18&#45;&gt;Node3 -->
<g id="edge26" class="edge">
<title>Node18&#45;&gt;Node3</title>
<path fill="none" stroke="#191970" d="M1418.2833,-110.4179C1441.4488,-101.3817 1477.2023,-87.4353 1503.2296,-77.2828"/>
<polygon fill="#191970" stroke="#191970" points="1504.6377,-80.4904 1512.6821,-73.5956 1502.0939,-73.969 1504.6377,-80.4904"/>
</g>
<!-- Node18&#45;&gt;Node5 -->
<g id="edge27" class="edge">
<title>Node18&#45;&gt;Node5</title>
<path fill="none" stroke="#191970" d="M1359.8349,-115.4874C1208.7131,-98.2432 615.3266,-30.5331 465.5034,-13.4371"/>
<polygon fill="#191970" stroke="#191970" points="465.8272,-9.9514 455.4949,-12.2951 465.0336,-16.9063 465.8272,-9.9514"/>
</g>
<!-- Node18&#45;&gt;Node7 -->
<g id="edge28" class="edge">
<title>Node18&#45;&gt;Node7</title>
<path fill="none" stroke="#191970" d="M1430.2677,-113.8939C1550.6014,-94.7657 1943.7827,-32.2658 2056.528,-14.3438"/>
<polygon fill="#191970" stroke="#191970" points="2057.2183,-17.7781 2066.5448,-12.7515 2056.1193,-10.8649 2057.2183,-17.7781"/>
</g>
<!-- Node18&#45;&gt;Node8 -->
<g id="edge29" class="edge">
<title>Node18&#45;&gt;Node8</title>
<path fill="none" stroke="#191970" d="M1390.8232,-110.2136C1383.8076,-95.787 1368.2117,-68.2733 1346,-55 1303.0473,-29.3322 1155.0181,-16.2224 1089.1011,-11.5447"/>
<polygon fill="#191970" stroke="#191970" points="1089.105,-8.0367 1078.888,-10.8411 1088.6238,-15.0202 1089.105,-8.0367"/>
</g>
<!-- Node24&#45;&gt;Node3 -->
<g id="edge44" class="edge">
<title>Node24&#45;&gt;Node3</title>
<path fill="none" stroke="#191970" d="M1457.8606,-220.4533C1419.6581,-212.3778 1371.0325,-199.4569 1358,-184 1336.705,-158.7437 1330.6197,-136.0001 1351,-110 1366.4302,-90.315 1428.1994,-78.0084 1476.1688,-71.2327"/>
<polygon fill="#191970" stroke="#191970" points="1476.7376,-74.6877 1486.1738,-69.8702 1475.7929,-67.7517 1476.7376,-74.6877"/>
</g>
<!-- Node24&#45;&gt;Node5 -->
<g id="edge48" class="edge">
<title>Node24&#45;&gt;Node5</title>
<path fill="none" stroke="#191970" d="M1444.4719,-223.5611C1253.6604,-205.2934 686.9073,-149.9124 606,-129 575.2333,-121.0476 498.5329,-94.1981 474,-74 458.7836,-61.4722 446.9043,-42.1688 439.5239,-27.9423"/>
<polygon fill="#191970" stroke="#191970" points="442.5106,-26.0839 434.9616,-18.65 436.2271,-29.169 442.5106,-26.0839"/>
</g>
<!-- Node24&#45;&gt;Node7 -->
<g id="edge49" class="edge">
<title>Node24&#45;&gt;Node7</title>
<path fill="none" stroke="#191970" d="M1569.7213,-221.5089C1623.5795,-213.9786 1703.0479,-201.2703 1771,-184 1796.4726,-177.526 1801.9466,-172.943 1827,-165 1880.89,-147.9145 1899.3954,-156.1189 1949,-129 1999.9379,-101.1522 2048.6343,-51.9742 2072.2176,-26.2485"/>
<polygon fill="#191970" stroke="#191970" points="2074.8598,-28.5448 2078.9631,-18.7768 2069.664,-23.854 2074.8598,-28.5448"/>
</g>
<!-- Node24&#45;&gt;Node8 -->
<g id="edge51" class="edge">
<title>Node24&#45;&gt;Node8</title>
<path fill="none" stroke="#191970" d="M1467.9811,-220.4965C1378.7258,-199.6712 1165.2457,-148.4719 1138,-129 1101.2769,-102.7548 1076.1356,-54.2956 1064.4551,-27.8659"/>
<polygon fill="#191970" stroke="#191970" points="1067.653,-26.4422 1060.5195,-18.6088 1061.2111,-29.181 1067.653,-26.4422"/>
</g>
<!-- Node24&#45;&gt;Node25 -->
<g id="edge45" class="edge">
<title>Node24&#45;&gt;Node25</title>
<path fill="none" stroke="#191970" d="M1569.5274,-223.9051C1584.7318,-222.5847 1600.9473,-221.21 1616,-220 1825.1173,-203.1898 2074.2436,-185.5882 2181.0847,-178.1551"/>
<polygon fill="#191970" stroke="#191970" points="2181.5447,-181.6316 2191.278,-177.4467 2181.0594,-174.6485 2181.5447,-181.6316"/>
</g>
<!-- Node26 -->
<g id="node27" class="node">
<title>Node26</title>
<g id="a_node27"><a xlink:title=" ">
<polygon fill="#ffffff" stroke="#bfbfbf" points="1366.6973,-165.5 1366.6973,-183.5 1453.3027,-183.5 1453.3027,-165.5 1366.6973,-165.5"/>
<text text-anchor="middle" x="1410" y="-171.5" font-family="Helvetica,sans-Serif" font-size="10.00" fill="#000000">unordered_map</text>
</a>
</g>
</g>
<!-- Node24&#45;&gt;Node26 -->
<g id="edge50" class="edge">
<title>Node24&#45;&gt;Node26</title>
<path fill="none" stroke="#191970" d="M1490.9824,-220.4179C1475.8181,-211.8195 1452.8129,-198.7754 1435.1925,-188.7844"/>
<polygon fill="#191970" stroke="#191970" points="1436.4667,-185.4834 1426.0414,-183.5956 1433.014,-191.5727 1436.4667,-185.4834"/>
</g>
<!-- Node25&#45;&gt;Node6 -->
<g id="edge46" class="edge">
<title>Node25&#45;&gt;Node6</title>
<path fill="none" stroke="#191970" d="M2229.1024,-165.4964C2220.6386,-150.9408 2201.7748,-122.602 2177,-110 1945.0244,7.9976 1853.5597,-74.1015 1594,-55 1271.8733,-31.2941 880.9908,-15.1962 766.7876,-10.7474"/>
<polygon fill="#191970" stroke="#191970" points="766.7389,-7.243 756.611,-10.3534 766.468,-14.2378 766.7389,-7.243"/>
</g>
<!-- Node25&#45;&gt;Node7 -->
<g id="edge47" class="edge">
<title>Node25&#45;&gt;Node7</title>
<path fill="none" stroke="#191970" d="M2232.2772,-165.4075C2229.6424,-152.6093 2223.9546,-128.7507 2215,-110 2202.1962,-83.189 2199.3931,-74.5273 2177,-55 2159.3269,-39.5887 2135.5127,-27.8493 2116.8201,-20.1579"/>
<polygon fill="#191970" stroke="#191970" points="2117.8901,-16.8176 2107.3032,-16.4054 2115.3223,-23.3296 2117.8901,-16.8176"/>
</g>
<!-- Node31&#45;&gt;Node5 -->
<g id="edge97" class="edge">
<title>Node31&#45;&gt;Node5</title>
<path fill="none" stroke="#191970" d="M1277.8264,-447.899C1040.0381,-439.9884 38,-402.8925 38,-339.5 38,-339.5 38,-339.5 38,-119.5 38,-78.4851 67.1774,-73.0643 104,-55 155.0088,-29.9763 323.1212,-16.4229 396.3731,-11.5814"/>
<polygon fill="#191970" stroke="#191970" points="396.7134,-15.0668 406.4672,-10.93 396.2625,-8.0813 396.7134,-15.0668"/>
</g>
<!-- Node31&#45;&gt;Node6 -->
<g id="edge98" class="edge">
<title>Node31&#45;&gt;Node6</title>
<path fill="none" stroke="#191970" d="M1277.994,-447.0686C1074.7884,-435.8965 317.2796,-381.2562 224,-184 180.3122,-91.6145 582.3868,-29.8532 701.4124,-13.7068"/>
<polygon fill="#191970" stroke="#191970" points="701.9489,-17.1663 711.3959,-12.3699 701.0198,-10.2282 701.9489,-17.1663"/>
</g>
<!-- Node31&#45;&gt;Node7 -->
<g id="edge99" class="edge">
<title>Node31&#45;&gt;Node7</title>
<path fill="none" stroke="#191970" d="M1378.2593,-448.6007C1558.4113,-445.1598 2165.493,-431.6131 2248,-404 2323.3581,-378.7795 2381,-363.9664 2381,-284.5 2381,-284.5 2381,-284.5 2381,-119.5 2381,-70.2884 2335.9218,-75.0951 2291,-55 2232.7714,-28.9523 2158.319,-17.2228 2117.3809,-12.4298"/>
<polygon fill="#191970" stroke="#191970" points="2117.5692,-8.9293 2107.2443,-11.3058 2116.7976,-15.8867 2117.5692,-8.9293"/>
</g>
<!-- Node31&#45;&gt;Node8 -->
<g id="edge100" class="edge">
<title>Node31&#45;&gt;Node8</title>
<path fill="none" stroke="#191970" d="M1277.829,-442.2033C1190.5535,-428.0873 1020,-393.5831 1020,-339.5 1020,-339.5 1020,-339.5 1020,-284.5 1020,-182.4651 975.4277,-149.4631 1014,-55 1018.7186,-43.4442 1027.8573,-33.0996 1036.5007,-25.2051"/>
<polygon fill="#191970" stroke="#191970" points="1038.8173,-27.8295 1044.1583,-18.6794 1034.277,-22.5017 1038.8173,-27.8295"/>
</g>
<!-- Node31&#45;&gt;Node13 -->
<g id="edge62" class="edge">
<title>Node31&#45;&gt;Node13</title>
<path fill="none" stroke="#191970" d="M1328.5837,-440.327C1330.6829,-407.3409 1337.8765,-294.2972 1340.7751,-248.7484"/>
<polygon fill="#191970" stroke="#191970" points="1344.2715,-248.9143 1341.4138,-238.7122 1337.2857,-248.4697 1344.2715,-248.9143"/>
</g>
<!-- Node31&#45;&gt;Node25 -->
<g id="edge63" class="edge">
<title>Node31&#45;&gt;Node25</title>
<path fill="none" stroke="#191970" d="M1378.1057,-445.0597C1536.2333,-430.2846 2021.9103,-378.8517 2152,-294 2189.9538,-269.2444 2215.0891,-220.179 2226.6579,-193.2587"/>
<polygon fill="#191970" stroke="#191970" points="2229.9743,-194.397 2230.5461,-183.8176 2223.5017,-191.7313 2229.9743,-194.397"/>
</g>
<!-- Node31&#45;&gt;Node32 -->
<g id="edge64" class="edge">
<title>Node31&#45;&gt;Node32</title>
<path fill="none" stroke="#191970" d="M1378.3294,-448.5255C1505.701,-445.6567 1851.0386,-435.3712 2137,-404 2138.2552,-403.8623 2139.5245,-403.7157 2140.8037,-403.5614"/>
<polygon fill="#191970" stroke="#191970" points="2141.2786,-407.0292 2150.7328,-402.2473 2140.36,-400.0897 2141.2786,-407.0292"/>
</g>
<!-- Node32&#45;&gt;Node5 -->
<g id="edge95" class="edge">
<title>Node32&#45;&gt;Node5</title>
<path fill="none" stroke="#191970" d="M2150.4525,-393.3252C1878.7842,-386.0094 450.4847,-345.3318 263,-294 167.8693,-267.954 76,-273.1319 76,-174.5 76,-174.5 76,-174.5 76,-119.5 76,-73.8275 114.3204,-73.6757 156,-55 198.5648,-35.9277 332.9552,-19.7793 396.7467,-12.9656"/>
<polygon fill="#191970" stroke="#191970" points="397.1378,-16.4439 406.7161,-11.9156 396.4045,-9.4824 397.1378,-16.4439"/>
</g>
<!-- Node32&#45;&gt;Node7 -->
<g id="edge96" class="edge">
<title>Node32&#45;&gt;Node7</title>
<path fill="none" stroke="#191970" d="M2229.3262,-385.4946C2273.0469,-371.7078 2343,-340.845 2343,-284.5 2343,-284.5 2343,-284.5 2343,-119.5 2343,-70.9426 2185.5606,-30.8946 2117.6154,-15.8723"/>
<polygon fill="#191970" stroke="#191970" points="2118.0319,-12.3812 2107.5168,-13.6787 2116.546,-19.2217 2118.0319,-12.3812"/>
</g>
<!-- Node32&#45;&gt;Node25 -->
<g id="edge94" class="edge">
<title>Node32&#45;&gt;Node25</title>
<path fill="none" stroke="#191970" d="M2196.6261,-385.327C2202.4737,-352.3409 2222.5132,-239.2972 2230.5878,-193.7484"/>
<polygon fill="#191970" stroke="#191970" points="2234.0676,-194.1696 2232.3669,-183.7122 2227.1751,-192.9477 2234.0676,-194.1696"/>
</g>
<!-- Node32&#45;&gt;Node33 -->
<g id="edge65" class="edge">
<title>Node32&#45;&gt;Node33</title>
<path fill="none" stroke="#191970" d="M2150.6525,-390.9548C2033.3801,-381.5798 1714.517,-356.0893 1574.4822,-344.8946"/>
<polygon fill="#191970" stroke="#191970" points="1574.5581,-341.3896 1564.311,-344.0815 1574.0002,-348.3674 1574.5581,-341.3896"/>
</g>
<!-- Node33&#45;&gt;Node1 -->
<g id="edge67" class="edge">
<title>Node33&#45;&gt;Node1</title>
<path fill="none" stroke="#191970" d="M1450.0435,-334.6432C1329.069,-324.3276 1047.4085,-300.31 922.969,-289.6989"/>
<polygon fill="#191970" stroke="#191970" points="923.1152,-286.1988 912.854,-288.8364 922.5204,-293.1734 923.1152,-286.1988"/>
</g>
<!-- Node33&#45;&gt;Node3 -->
<g id="edge66" class="edge">
<title>Node33&#45;&gt;Node3</title>
<path fill="none" stroke="#191970" d="M1564.0224,-333.8446C1704.2672,-319.3638 2057.0878,-279.2466 2091,-239 2108.0207,-218.8 2087.4806,-183.1171 2068,-165 1912.1136,-20.025 1807.3307,-102.3934 1595.584,-74.7188"/>
<polygon fill="#191970" stroke="#191970" points="1595.8039,-71.2161 1585.4194,-73.3164 1594.8472,-78.1504 1595.8039,-71.2161"/>
</g>
<!-- Node33&#45;&gt;Node5 -->
<g id="edge90" class="edge">
<title>Node33&#45;&gt;Node5</title>
<path fill="none" stroke="#191970" d="M1450.0942,-338.4985C1238.4789,-334.5902 503.9034,-319.3183 402,-294 282.4815,-264.3051 152,-297.6522 152,-174.5 152,-174.5 152,-174.5 152,-119.5 152,-88.9131 152.5189,-74.6009 176,-55 209.0428,-27.4174 335.2505,-15.6441 396.8181,-11.4596"/>
<polygon fill="#191970" stroke="#191970" points="397.0724,-14.9505 406.8238,-10.8079 396.6174,-7.9653 397.0724,-14.9505"/>
</g>
<!-- Node33&#45;&gt;Node6 -->
<g id="edge91" class="edge">
<title>Node33&#45;&gt;Node6</title>
<path fill="none" stroke="#191970" d="M1449.8219,-339.1978C1221.6568,-337.401 384.9174,-324.9563 308,-239 185.6481,-102.2699 582.1425,-31.7965 701.2256,-14.0478"/>
<polygon fill="#191970" stroke="#191970" points="701.8399,-17.4953 711.2278,-12.5845 700.8265,-10.569 701.8399,-17.4953"/>
</g>
<!-- Node33&#45;&gt;Node7 -->
<g id="edge92" class="edge">
<title>Node33&#45;&gt;Node7</title>
<path fill="none" stroke="#191970" d="M1563.9805,-337.4588C1711.4965,-331.8952 2098.1573,-315.4361 2152,-294 2228.8047,-263.4221 2312.9269,-243.1595 2286,-165 2265.7865,-106.3274 2249.589,-92.3094 2200,-55 2175.0096,-36.1979 2141.1859,-23.9357 2117.0721,-16.9315"/>
<polygon fill="#191970" stroke="#191970" points="2117.9577,-13.5451 2107.3862,-14.2479 2116.0887,-20.291 2117.9577,-13.5451"/>
</g>
<!-- Node33&#45;&gt;Node8 -->
<g id="edge93" class="edge">
<title>Node33&#45;&gt;Node8</title>
<path fill="none" stroke="#191970" d="M1501.7561,-330.4556C1488.0099,-307.6528 1448.481,-247.6664 1398,-220 1315.7269,-174.9099 1276.6748,-219.909 1190,-184 1150.8118,-167.7645 1142.0338,-158.9546 1112,-129 1090.7827,-107.8387 1085.4914,-101.2386 1073,-74 1066.3789,-59.5622 1062.2519,-41.9992 1059.8513,-28.8479"/>
<polygon fill="#191970" stroke="#191970" points="1063.2448,-27.9144 1058.1668,-18.6158 1056.3378,-29.0516 1063.2448,-27.9144"/>
</g>
<!-- Node33&#45;&gt;Node13 -->
<g id="edge68" class="edge">
<title>Node33&#45;&gt;Node13</title>
<path fill="none" stroke="#191970" d="M1478.0296,-330.3668C1456.2192,-322.6798 1426.2148,-310.3237 1403,-294 1383.9978,-280.6384 1366.2266,-260.6529 1354.8235,-246.4745"/>
<polygon fill="#191970" stroke="#191970" points="1357.5102,-244.2284 1348.5923,-238.508 1351.9965,-248.5411 1357.5102,-244.2284"/>
</g>
<!-- Node33&#45;&gt;Node18 -->
<g id="edge69" class="edge">
<title>Node33&#45;&gt;Node18</title>
<path fill="none" stroke="#191970" d="M1520.0289,-330.2099C1546.5528,-310.1191 1602.3319,-261.1222 1578,-220 1561.1203,-191.4724 1474.9495,-152.4087 1427.1139,-132.4256"/>
<polygon fill="#191970" stroke="#191970" points="1428.3867,-129.1645 1417.8082,-128.5768 1425.7113,-135.6331 1428.3867,-129.1645"/>
</g>
<!-- Node33&#45;&gt;Node24 -->
<g id="edge80" class="edge">
<title>Node33&#45;&gt;Node24</title>
<path fill="none" stroke="#191970" d="M1507,-330.4982C1507,-312.6913 1507,-272.6225 1507,-248.6515"/>
<polygon fill="#191970" stroke="#191970" points="1510.5001,-248.6261 1507,-238.6261 1503.5001,-248.6262 1510.5001,-248.6261"/>
</g>
<!-- Node33&#45;&gt;Node25 -->
<g id="edge79" class="edge">
<title>Node33&#45;&gt;Node25</title>
<path fill="none" stroke="#191970" d="M1563.947,-338.2066C1708.4003,-334.5229 2081.0656,-322.3565 2129,-294 2162.7402,-274.0404 2150.6746,-249.0476 2177,-220 2187.3324,-208.5991 2200.6986,-197.7699 2211.8905,-189.5383"/>
<polygon fill="#191970" stroke="#191970" points="2214.1967,-192.1923 2220.3005,-183.5324 2210.1285,-186.4958 2214.1967,-192.1923"/>
</g>
<!-- Node33&#45;&gt;Node27 -->
<g id="edge81" class="edge">
<title>Node33&#45;&gt;Node27</title>
<path fill="none" stroke="#191970" d="M1478.0347,-330.4667C1451.2583,-321.875 1410.5153,-308.1878 1376,-294 1337.6995,-278.2563 1294.7476,-257.1075 1267.7908,-243.3912"/>
<polygon fill="#191970" stroke="#191970" points="1269.1178,-240.1385 1258.6213,-238.6978 1265.9283,-246.3697 1269.1178,-240.1385"/>
</g>
<!-- Node34 -->
<g id="node35" class="node">
<title>Node34</title>
<g id="a_node35"><a xlink:href="Ioss__FieldManager_8h.html" target="_top" xlink:title=" ">
<polygon fill="#ffffff" stroke="#000000" points="1624.5815,-220.5 1624.5815,-238.5 1733.4185,-238.5 1733.4185,-220.5 1624.5815,-220.5"/>
<text text-anchor="middle" x="1679" y="-226.5" font-family="Helvetica,sans-Serif" font-size="10.00" fill="#000000">Ioss_FieldManager.h</text>
</a>
</g>
</g>
<!-- Node33&#45;&gt;Node34 -->
<g id="edge70" class="edge">
<title>Node33&#45;&gt;Node34</title>
<path fill="none" stroke="#191970" d="M1534.3768,-330.488C1556.15,-322.6399 1586.858,-310.0145 1611,-294 1631.4028,-280.4659 1651.3135,-260.5587 1664.2619,-246.4458"/>
<polygon fill="#191970" stroke="#191970" points="1666.9604,-248.6791 1671.0323,-238.898 1661.7496,-244.005 1666.9604,-248.6791"/>
</g>
<!-- Node36 -->
<g id="node37" class="node">
<title>Node36</title>
<g id="a_node37"><a xlink:href="Ioss__VariableType_8h.html" target="_top" xlink:title=" ">
<polygon fill="#ffffff" stroke="#000000" points="1817.061,-220.5 1817.061,-238.5 1922.939,-238.5 1922.939,-220.5 1817.061,-220.5"/>
<text text-anchor="middle" x="1870" y="-226.5" font-family="Helvetica,sans-Serif" font-size="10.00" fill="#000000">Ioss_VariableType.h</text>
</a>
</g>
</g>
<!-- Node33&#45;&gt;Node36 -->
<g id="edge82" class="edge">
<title>Node33&#45;&gt;Node36</title>
<path fill="none" stroke="#191970" d="M1536.7058,-330.4982C1601.798,-310.7733 1757.0327,-263.7325 1830.3543,-241.5139"/>
<polygon fill="#191970" stroke="#191970" points="1831.5835,-244.7986 1840.1387,-238.5489 1829.5534,-238.0994 1831.5835,-244.7986"/>
</g>
<!-- Node34&#45;&gt;Node3 -->
<g id="edge71" class="edge">
<title>Node34&#45;&gt;Node3</title>
<path fill="none" stroke="#191970" d="M1711.8761,-220.4608C1770.6618,-202.7549 1883.7348,-160.7678 1840,-110 1824.2851,-91.758 1679.644,-76.6234 1595.6653,-69.2809"/>
<polygon fill="#191970" stroke="#191970" points="1595.7514,-65.7754 1585.4876,-68.4032 1595.1499,-72.7495 1595.7514,-65.7754"/>
</g>
<!-- Node34&#45;&gt;Node5 -->
<g id="edge74" class="edge">
<title>Node34&#45;&gt;Node5</title>
<path fill="none" stroke="#191970" d="M1625.8251,-220.4502C1588.3995,-213.1015 1537.5889,-201.1298 1495,-184 1479.2985,-177.6847 1478.2429,-169.7526 1462,-165 1134.4685,-69.1648 1026.8063,-208.7859 695,-129 600.9249,-106.3788 499.2019,-50.3028 454.416,-23.8048"/>
<polygon fill="#191970" stroke="#191970" points="456.1258,-20.7492 445.7467,-18.6221 452.5339,-26.7574 456.1258,-20.7492"/>
</g>
<!-- Node34&#45;&gt;Node7 -->
<g id="edge76" class="edge">
<title>Node34&#45;&gt;Node7</title>
<path fill="none" stroke="#191970" d="M1709.9155,-220.4494C1740.6685,-211.3985 1789.1739,-196.9934 1831,-184 1857.3082,-175.8273 1863.5712,-172.7738 1890,-165 1949.573,-147.477 1976.5751,-167.8719 2025,-129 2057.5346,-102.8836 2074.8418,-55.0889 2082.3391,-28.5442"/>
<polygon fill="#191970" stroke="#191970" points="2085.7973,-29.1564 2084.9673,-18.5941 2079.0295,-27.3686 2085.7973,-29.1564"/>
</g>
<!-- Node34&#45;&gt;Node8 -->
<g id="edge78" class="edge">
<title>Node34&#45;&gt;Node8</title>
<path fill="none" stroke="#191970" d="M1657.9101,-220.4504C1624.1576,-206.3485 1555.6274,-179.2715 1495,-165 1370.2943,-135.6448 1327.2125,-178.3866 1209,-129 1151.4573,-104.9599 1097.3819,-52.8771 1072.0463,-26.1139"/>
<polygon fill="#191970" stroke="#191970" points="1074.5068,-23.6202 1065.1341,-18.6801 1069.3804,-28.3868 1074.5068,-23.6202"/>
</g>
<!-- Node34&#45;&gt;Node17 -->
<g id="edge73" class="edge">
<title>Node34&#45;&gt;Node17</title>
<path fill="none" stroke="#191970" d="M1681.6421,-220.4179C1683.7601,-213.1372 1686.8054,-202.669 1689.4536,-193.5659"/>
<polygon fill="#191970" stroke="#191970" points="1692.8678,-194.3591 1692.3005,-183.7795 1686.1465,-192.4037 1692.8678,-194.3591"/>
</g>
<!-- Node34&#45;&gt;Node18 -->
<g id="edge72" class="edge">
<title>Node34&#45;&gt;Node18</title>
<path fill="none" stroke="#191970" d="M1666.3383,-220.2878C1646.7903,-206.4573 1607.6765,-180.3201 1571,-165 1547.5626,-155.21 1484.019,-139.7433 1440.0689,-129.6087"/>
<polygon fill="#191970" stroke="#191970" points="1440.7126,-126.1656 1430.1834,-127.3427 1439.1485,-132.9886 1440.7126,-126.1656"/>
</g>
<!-- Node34&#45;&gt;Node26 -->
<g id="edge77" class="edge">
<title>Node34&#45;&gt;Node26</title>
<path fill="none" stroke="#191970" d="M1634.8813,-220.4795C1588.0278,-210.8997 1513.9397,-195.7516 1463.7193,-185.4835"/>
<polygon fill="#191970" stroke="#191970" points="1464.1948,-182.0084 1453.6963,-183.4342 1462.7925,-188.8665 1464.1948,-182.0084"/>
</g>
<!-- Node35 -->
<g id="node36" class="node">
<title>Node35</title>
<g id="a_node36"><a xlink:title=" ">
<polygon fill="#ffffff" stroke="#bfbfbf" points="1898.5962,-165.5 1898.5962,-183.5 1957.4038,-183.5 1957.4038,-165.5 1898.5962,-165.5"/>
<text text-anchor="middle" x="1928" y="-171.5" font-family="Helvetica,sans-Serif" font-size="10.00" fill="#000000">functional</text>
</a>
</g>
</g>
<!-- Node34&#45;&gt;Node35 -->
<g id="edge75" class="edge">
<title>Node34&#45;&gt;Node35</title>
<path fill="none" stroke="#191970" d="M1719.8385,-220.4795C1766.5284,-210.1664 1842.4352,-193.3999 1888.5405,-183.216"/>
<polygon fill="#191970" stroke="#191970" points="1889.4547,-186.5985 1898.4644,-181.0239 1887.9448,-179.7632 1889.4547,-186.5985"/>
</g>
<!-- Node36&#45;&gt;Node3 -->
<g id="edge83" class="edge">
<title>Node36&#45;&gt;Node3</title>
<path fill="none" stroke="#191970" d="M1908.0894,-220.4604C1941.6107,-210.5086 1982.6841,-192.2195 1966,-165 1927.5275,-102.2335 1704.7674,-77.0801 1595.8829,-68.4304"/>
<polygon fill="#191970" stroke="#191970" points="1595.9512,-64.9253 1585.7112,-67.6441 1595.4117,-71.9045 1595.9512,-64.9253"/>
</g>
<!-- Node36&#45;&gt;Node7 -->
<g id="edge88" class="edge">
<title>Node36&#45;&gt;Node7</title>
<path fill="none" stroke="#191970" d="M1923.2866,-224.179C1975.2288,-217.8235 2049.0771,-205.2863 2068,-184 2106.9145,-140.2251 2098.1064,-63.8206 2091.299,-28.4562"/>
<polygon fill="#191970" stroke="#191970" points="2094.6923,-27.5832 2089.2221,-18.5097 2087.84,-29.014 2094.6923,-27.5832"/>
</g>
<!-- Node36&#45;&gt;Node8 -->
<g id="edge89" class="edge">
<title>Node36&#45;&gt;Node8</title>
<path fill="none" stroke="#191970" d="M1824.5145,-220.488C1761.0464,-207.9348 1642.3042,-184.5273 1541,-165 1456.6067,-148.7324 1433.4397,-153.3014 1351,-129 1249.9647,-99.217 1135.8708,-47.2725 1084.5697,-22.8764"/>
<polygon fill="#191970" stroke="#191970" points="1085.9849,-19.6737 1075.4535,-18.5161 1082.9645,-25.9885 1085.9849,-19.6737"/>
</g>
<!-- Node36&#45;&gt;Node17 -->
<g id="edge84" class="edge">
<title>Node36&#45;&gt;Node17</title>
<path fill="none" stroke="#191970" d="M1841.1023,-220.4179C1811.6295,-211.155 1765.7396,-196.7325 1733.2645,-186.526"/>
<polygon fill="#191970" stroke="#191970" points="1734.2391,-183.1636 1723.6498,-183.5042 1732.1403,-189.8415 1734.2391,-183.1636"/>
</g>
<!-- Node36&#45;&gt;Node30 -->
<g id="edge87" class="edge">
<title>Node36&#45;&gt;Node30</title>
<path fill="none" stroke="#191970" d="M1816.8391,-225.0224C1684.7859,-213.9 1345.2803,-185.3046 1245.1792,-176.8734"/>
<polygon fill="#191970" stroke="#191970" points="1245.2129,-173.364 1234.9544,-176.0122 1244.6254,-180.3393 1245.2129,-173.364"/>
</g>
<!-- Node36&#45;&gt;Node35 -->
<g id="edge86" class="edge">
<title>Node36&#45;&gt;Node35</title>
<path fill="none" stroke="#191970" d="M1879.5775,-220.4179C1888.0064,-212.425 1900.4866,-200.5903 1910.6656,-190.9377"/>
<polygon fill="#191970" stroke="#191970" points="1913.3665,-193.2001 1918.2144,-183.7795 1908.5498,-188.1207 1913.3665,-193.2001"/>
</g>
<!-- Node37 -->
<g id="node38" class="node">
<title>Node37</title>
<g id="a_node38"><a xlink:title=" ">
<polygon fill="#ffffff" stroke="#bfbfbf" points="2013.2734,-165.5 2013.2734,-183.5 2058.7266,-183.5 2058.7266,-165.5 2013.2734,-165.5"/>
<text text-anchor="middle" x="2036" y="-171.5" font-family="Helvetica,sans-Serif" font-size="10.00" fill="#000000">cstring</text>
</a>
</g>
</g>
<!-- Node36&#45;&gt;Node37 -->
<g id="edge85" class="edge">
<title>Node36&#45;&gt;Node37</title>
<path fill="none" stroke="#191970" d="M1897.4115,-220.4179C1926.4514,-210.7962 1972.2935,-195.6076 2003.2236,-185.3597"/>
<polygon fill="#191970" stroke="#191970" points="2004.7037,-188.5564 2013.0954,-182.0889 2002.5021,-181.9117 2004.7037,-188.5564"/>
</g>
</g>
</svg>
        <g id="navigator" transform="translate(0 0)" fill="#404254">
                <rect fill="#f2f5e9" fill-opacity="0.5" stroke="#606060" stroke-width=".5" x="0" y="0" width="60" height="60"/>
                <use id="zoomplus" xlink:href="#zoomPlus" x="17" y="9" onmousedown="handleZoom(evt,'in')"/>
                <use id="zoomminus" xlink:href="#zoomMin" x="42" y="9" onmousedown="handleZoom(evt,'out')"/>
                <use id="reset" xlink:href="#resetDef" x="30" y="36" onmousedown="handleReset()"/>
                <g id="arrowUp" xlink:href="#dirArrow" transform="translate(30 24)" onmousedown="handlePan(0,-1)">
                  <use xlink:href="#rim" fill="#404040">
                        <set attributeName="fill" to="#808080" begin="arrowUp.mouseover" end="arrowUp.mouseout"/>
                  </use>
                  <path fill="none" stroke="white" stroke-width="1.5" d="M0,-3.0v7 M-2.5,-0.5L0,-3.0L2.5,-0.5"/>
                </g>
                <g id="arrowRight" xlink:href="#dirArrow" transform="rotate(90) translate(36 -43)" onmousedown="handlePan(1,0)">
                  <use xlink:href="#rim" fill="#404040">
                        <set attributeName="fill" to="#808080" begin="arrowRight.mouseover" end="arrowRight.mouseout"/>
                  </use>
                  <path fill="none" stroke="white" stroke-width="1.5" d="M0,-3.0v7 M-2.5,-0.5L0,-3.0L2.5,-0.5"/>
                </g>
                <g id="arrowDown" xlink:href="#dirArrow" transform="rotate(180) translate(-30 -48)" onmousedown="handlePan(0,1)">
                  <use xlink:href="#rim" fill="#404040">
                        <set attributeName="fill" to="#808080" begin="arrowDown.mouseover" end="arrowDown.mouseout"/>
                  </use>
                  <path fill="none" stroke="white" stroke-width="1.5" d="M0,-3.0v7 M-2.5,-0.5L0,-3.0L2.5,-0.5"/>
                </g>
                <g id="arrowLeft" xlink:href="#dirArrow" transform="rotate(270) translate(-36 17)" onmousedown="handlePan(-1,0)">
                  <use xlink:href="#rim" fill="#404040">
                        <set attributeName="fill" to="#808080" begin="arrowLeft.mouseover" end="arrowLeft.mouseout"/>
                  </use>
                  <path fill="none" stroke="white" stroke-width="1.5" d="M0,-3.0v7 M-2.5,-0.5L0,-3.0L2.5,-0.5"/>
                </g>
        </g>
        <svg viewBox="0 0 15 15" width="100%" height="30px" preserveAspectRatio="xMaxYMin meet">
         <g id="arrow_out" transform="scale(0.3 0.3)">
          <a xlink:href="Ioss__ElementSet_8C__incl_org.svg" target="_base">
           <rect id="button" ry="5" rx="5" y="6" x="6" height="38" width="38"
                fill="#f2f5e9" fill-opacity="0.5" stroke="#606060" stroke-width="1.0"/>
           <path id="arrow"
             d="M 11.500037,31.436501 C 11.940474,20.09759 22.043105,11.32322 32.158766,21.979434 L 37.068811,17.246167 C 37.068811,17.246167 37.088388,32 37.088388,32 L 22.160133,31.978069 C 22.160133,31.978069 26.997745,27.140456 26.997745,27.140456 C 18.528582,18.264221 13.291696,25.230495 11.500037,31.436501 z"
             style="fill:#404040;"/>
          </a>
         </g>
        </svg>
</svg>
