<?xml version="1.0" encoding="UTF-8" standalone="no"?>
<!DOCTYPE svg PUBLIC "-//W3C//DTD SVG 1.1//EN"
 "http://www.w3.org/Graphics/SVG/1.1/DTD/svg11.dtd">
<!-- Generated by graphviz version 2.42.3 (20191010.1750)
 -->
<!-- Title: src/Ioss_IOFactory.h Pages: 1 -->
<!--zoomable 157 -->
<svg id="main" version="1.1" xmlns="http://www.w3.org/2000/svg" xmlns:xlink="http://www.w3.org/1999/xlink" xml:space="preserve" onload="init(evt)">
<style type="text/css"><![CDATA[
.edge:hover path { stroke: red; }
.edge:hover polygon { stroke: red; fill: red; }
]]></style>
<script type="text/javascript"><![CDATA[
var edges = document.getElementsByTagName('g');
if (edges && edges.length) {
  for (var i=0;i<edges.length;i++) {
    if (edges[i].id.substr(0,4)=='edge') {
      edges[i].setAttribute('class','edge');
    }
  }
}
]]></script>
        <defs>
                <circle id="rim" cx="0" cy="0" r="7"/>
                <circle id="rim2" cx="0" cy="0" r="3.5"/>
                <g id="zoomPlus">
                        <use xlink:href="#rim" fill="#404040">
                                <set attributeName="fill" to="#808080" begin="zoomplus.mouseover" end="zoomplus.mouseout"/>
                        </use>
                        <path d="M-4,0h8M0,-4v8" fill="none" stroke="white" stroke-width="1.5" pointer-events="none"/>
                </g>
                <g id="zoomMin">
                        <use xlink:href="#rim" fill="#404040">
                                <set attributeName="fill" to="#808080" begin="zoomminus.mouseover" end="zoomminus.mouseout"/>
                        </use>
                        <path d="M-4,0h8" fill="none" stroke="white" stroke-width="1.5" pointer-events="none"/>
                </g>
                <g id="dirArrow">
                        <path fill="none" stroke="white" stroke-width="1.5" d="M0,-3.0v7 M-2.5,-0.5L0,-3.0L2.5,-0.5"/>
                </g>
               <g id="resetDef">
                       <use xlink:href="#rim2" fill="#404040">
                               <set attributeName="fill" to="#808080" begin="reset.mouseover" end="reset.mouseout"/>
                       </use>
               </g>
        </defs>

<script type="text/javascript">
var viewWidth = 3926;
var viewHeight = 157;
var sectionId = 'dynsection-1';
</script>
<script xlink:href="svgpan.js"/>
<svg id="graph" class="graph">
<g id="viewport">
<title>src/Ioss_IOFactory.h</title>
<polygon fill="white" stroke="transparent" points="-4,4 -4,-153 3922.17,-153 3922.17,4 -4,4"/>
<!-- Node1 -->
<g id="node1" class="node">
<title>Node1</title>
<g id="a_node1"><a xlink:title=" ">
<polygon fill="#bfbfbf" stroke="black" points="2173.73,-130.5 2173.73,-148.5 2281.24,-148.5 2281.24,-130.5 2173.73,-130.5"/>
<text text-anchor="middle" x="2227.49" y="-136.5" font-family="Helvetica,sans-Serif" font-size="10.00">src/Ioss_IOFactory.h</text>
</a>
</g>
</g>
<!-- Node2 -->
<g id="node2" class="node">
<title>Node2</title>
<g id="a_node2"><a xlink:href="Ioad__IOFactory_8C.html" target="_top" xlink:title=" ">
<polygon fill="white" stroke="black" points="0,-5.5 0,-23.5 136.98,-23.5 136.98,-5.5 0,-5.5"/>
<text text-anchor="middle" x="68.49" y="-11.5" font-family="Helvetica,sans-Serif" font-size="10.00">src/adios/Ioad_IOFactory.C</text>
</a>
</g>
</g>
<!-- Node1&#45;&gt;Node2 -->
<g id="edge1" class="edge">
<title>Node1&#45;&gt;Node2</title>
<path fill="none" stroke="midnightblue" d="M2163.3,-138.5C1822.74,-138.33 239.13,-135.3 144.49,-94 110.24,-79.05 83.7,-40.62 73.28,-23.71"/>
<polygon fill="midnightblue" stroke="midnightblue" points="2163.48,-142 2173.48,-138.5 2163.49,-135 2163.48,-142"/>
</g>
<!-- Node3 -->
<g id="node3" class="node">
<title>Node3</title>
<g id="a_node3"><a xlink:href="Ioad__IOFactory_8h.html" target="_top" xlink:title=" ">
<polygon fill="white" stroke="black" points="153.83,-70.5 153.83,-88.5 289.15,-88.5 289.15,-70.5 153.83,-70.5"/>
<text text-anchor="middle" x="221.49" y="-76.5" font-family="Helvetica,sans-Serif" font-size="10.00">src/adios/Ioad_IOFactory.h</text>
</a>
</g>
</g>
<!-- Node1&#45;&gt;Node3 -->
<g id="edge2" class="edge">
<title>Node1&#45;&gt;Node3</title>
<path fill="none" stroke="midnightblue" d="M2163.22,-138.74C1924.19,-139.24 1063.89,-137.72 356.49,-94 334.62,-92.65 310.83,-90.5 289.39,-88.31"/>
<polygon fill="midnightblue" stroke="midnightblue" points="2163.47,-142.24 2173.46,-138.71 2163.46,-135.24 2163.47,-142.24"/>
</g>
<!-- Node5 -->
<g id="node5" class="node">
<title>Node5</title>
<g id="a_node5"><a xlink:href="Ut__ioad_8C.html" target="_top" xlink:title=" ">
<polygon fill="white" stroke="black" points="305.86,-0.5 305.86,-28.5 399.11,-28.5 399.11,-0.5 305.86,-0.5"/>
<text text-anchor="start" x="313.86" y="-16.5" font-family="Helvetica,sans-Serif" font-size="10.00">src/adios/utest/Ut</text>
<text text-anchor="middle" x="352.49" y="-6.5" font-family="Helvetica,sans-Serif" font-size="10.00">_ioad.C</text>
</a>
</g>
</g>
<!-- Node1&#45;&gt;Node5 -->
<g id="edge5" class="edge">
<title>Node1&#45;&gt;Node5</title>
<path fill="none" stroke="midnightblue" d="M2163.41,-138.2C1874.6,-136.68 701.09,-128.39 540.49,-94 478.23,-80.67 410.58,-47.28 375.9,-28.62"/>
<polygon fill="midnightblue" stroke="midnightblue" points="2163.69,-141.7 2173.71,-138.26 2163.72,-134.7 2163.69,-141.7"/>
</g>
<!-- Node6 -->
<g id="node6" class="node">
<title>Node6</title>
<g id="a_node6"><a xlink:href="Iocgns__DatabaseIO_8C.html" target="_top" xlink:title=" ">
<polygon fill="white" stroke="black" points="1359.29,-5.5 1359.29,-23.5 1513.69,-23.5 1513.69,-5.5 1359.29,-5.5"/>
<text text-anchor="middle" x="1436.49" y="-11.5" font-family="Helvetica,sans-Serif" font-size="10.00">src/cgns/Iocgns_DatabaseIO.C</text>
</a>
</g>
</g>
<!-- Node1&#45;&gt;Node6 -->
<g id="edge6" class="edge">
<title>Node1&#45;&gt;Node6</title>
<path fill="none" stroke="midnightblue" d="M2163.41,-137.51C1970.76,-134.23 1408.31,-122.27 1381.49,-94 1359.61,-70.94 1401,-38.59 1423.42,-23.65"/>
<polygon fill="midnightblue" stroke="midnightblue" points="2163.61,-141.02 2173.67,-137.68 2163.73,-134.02 2163.61,-141.02"/>
</g>
<!-- Node7 -->
<g id="node7" class="node">
<title>Node7</title>
<g id="a_node7"><a xlink:href="Iocgns__DatabaseIO_8h.html" target="_top" xlink:title=" ">
<polygon fill="white" stroke="black" points="1390.12,-70.5 1390.12,-88.5 1542.86,-88.5 1542.86,-70.5 1390.12,-70.5"/>
<text text-anchor="middle" x="1466.49" y="-76.5" font-family="Helvetica,sans-Serif" font-size="10.00">src/cgns/Iocgns_DatabaseIO.h</text>
</a>
</g>
</g>
<!-- Node1&#45;&gt;Node7 -->
<g id="edge7" class="edge">
<title>Node1&#45;&gt;Node7</title>
<path fill="none" stroke="midnightblue" d="M2163.35,-136.01C2043.75,-130.98 1778.68,-117.99 1556.49,-94 1542.98,-92.54 1528.39,-90.54 1514.97,-88.52"/>
<polygon fill="midnightblue" stroke="midnightblue" points="2163.29,-139.51 2173.43,-136.43 2163.59,-132.52 2163.29,-139.51"/>
</g>
<!-- Node8 -->
<g id="node8" class="node">
<title>Node8</title>
<g id="a_node8"><a xlink:href="Iocgns__IOFactory_8C.html" target="_top" xlink:title=" ">
<polygon fill="white" stroke="black" points="1531.39,-5.5 1531.39,-23.5 1675.58,-23.5 1675.58,-5.5 1531.39,-5.5"/>
<text text-anchor="middle" x="1603.49" y="-11.5" font-family="Helvetica,sans-Serif" font-size="10.00">src/cgns/Iocgns_IOFactory.C</text>
</a>
</g>
</g>
<!-- Node1&#45;&gt;Node8 -->
<g id="edge10" class="edge">
<title>Node1&#45;&gt;Node8</title>
<path fill="none" stroke="midnightblue" d="M2163.3,-138.86C2009.17,-139.07 1628.05,-135.35 1589.49,-94 1571.17,-74.36 1588.66,-39.41 1598.2,-23.63"/>
<polygon fill="midnightblue" stroke="midnightblue" points="2163.57,-142.36 2173.56,-138.84 2163.55,-135.36 2163.57,-142.36"/>
</g>
<!-- Node9 -->
<g id="node9" class="node">
<title>Node9</title>
<g id="a_node9"><a xlink:href="Iocgns__IOFactory_8h.html" target="_top" xlink:title=" ">
<polygon fill="white" stroke="black" points="1598.22,-70.5 1598.22,-88.5 1740.75,-88.5 1740.75,-70.5 1598.22,-70.5"/>
<text text-anchor="middle" x="1669.49" y="-76.5" font-family="Helvetica,sans-Serif" font-size="10.00">src/cgns/Iocgns_IOFactory.h</text>
</a>
</g>
</g>
<!-- Node1&#45;&gt;Node9 -->
<g id="edge11" class="edge">
<title>Node1&#45;&gt;Node9</title>
<path fill="none" stroke="midnightblue" d="M2163.33,-134.05C2071.42,-127.33 1897.1,-113.3 1749.49,-94 1737.76,-92.47 1725.11,-90.49 1713.41,-88.52"/>
<polygon fill="midnightblue" stroke="midnightblue" points="2163.35,-137.56 2173.58,-134.79 2163.86,-130.58 2163.35,-137.56"/>
</g>
<!-- Node11 -->
<g id="node11" class="node">
<title>Node11</title>
<g id="a_node11"><a xlink:href="Iocgns__ParallelDatabaseIO_8C.html" target="_top" xlink:title=" ">
<polygon fill="white" stroke="black" points="1851.3,-0.5 1851.3,-28.5 1975.68,-28.5 1975.68,-0.5 1851.3,-0.5"/>
<text text-anchor="start" x="1859.3" y="-16.5" font-family="Helvetica,sans-Serif" font-size="10.00">src/cgns/Iocgns_Parallel</text>
<text text-anchor="middle" x="1913.49" y="-6.5" font-family="Helvetica,sans-Serif" font-size="10.00">DatabaseIO.C</text>
</a>
</g>
</g>
<!-- Node1&#45;&gt;Node11 -->
<g id="edge14" class="edge">
<title>Node1&#45;&gt;Node11</title>
<path fill="none" stroke="midnightblue" d="M2163.51,-137.3C2086.15,-134.46 1962.22,-125.05 1929.49,-94 1911.73,-77.15 1910.83,-46.37 1912,-28.77"/>
<polygon fill="midnightblue" stroke="midnightblue" points="2163.53,-140.8 2173.64,-137.64 2163.76,-133.8 2163.53,-140.8"/>
</g>
<!-- Node12 -->
<g id="node12" class="node">
<title>Node12</title>
<g id="a_node12"><a xlink:href="Iocgns__ParallelDatabaseIO_8h.html" target="_top" xlink:title=" ">
<polygon fill="white" stroke="black" points="1758.3,-65.5 1758.3,-93.5 1882.68,-93.5 1882.68,-65.5 1758.3,-65.5"/>
<text text-anchor="start" x="1766.3" y="-81.5" font-family="Helvetica,sans-Serif" font-size="10.00">src/cgns/Iocgns_Parallel</text>
<text text-anchor="middle" x="1820.49" y="-71.5" font-family="Helvetica,sans-Serif" font-size="10.00">DatabaseIO.h</text>
</a>
</g>
</g>
<!-- Node1&#45;&gt;Node12 -->
<g id="edge15" class="edge">
<title>Node1&#45;&gt;Node12</title>
<path fill="none" stroke="midnightblue" d="M2163.55,-130.72C2096.79,-122.4 1989.13,-108.45 1896.49,-94 1892.12,-93.32 1887.61,-92.59 1883.08,-91.83"/>
<polygon fill="midnightblue" stroke="midnightblue" points="2163.14,-134.19 2173.5,-131.95 2164,-127.24 2163.14,-134.19"/>
</g>
<!-- Node13 -->
<g id="node13" class="node">
<title>Node13</title>
<g id="a_node13"><a xlink:href="Iodw__DatabaseIO_8h.html" target="_top" xlink:title=" ">
<polygon fill="white" stroke="black" points="549.9,-65.5 549.9,-93.5 657.07,-93.5 657.07,-65.5 549.9,-65.5"/>
<text text-anchor="start" x="557.9" y="-81.5" font-family="Helvetica,sans-Serif" font-size="10.00">src/data_warehouse</text>
<text text-anchor="middle" x="603.49" y="-71.5" font-family="Helvetica,sans-Serif" font-size="10.00">/Iodw_DatabaseIO.h</text>
</a>
</g>
</g>
<!-- Node1&#45;&gt;Node13 -->
<g id="edge17" class="edge">
<title>Node1&#45;&gt;Node13</title>
<path fill="none" stroke="midnightblue" d="M2163.47,-137.38C1962.27,-133.69 1324.77,-120.54 797.49,-94 750.11,-91.62 696.3,-87.78 657.39,-84.81"/>
<polygon fill="midnightblue" stroke="midnightblue" points="2163.5,-140.88 2173.57,-137.57 2163.63,-133.89 2163.5,-140.88"/>
</g>
<!-- Node15 -->
<g id="node15" class="node">
<title>Node15</title>
<g id="a_node15"><a xlink:href="Ioex__IOFactory_8C.html" target="_top" xlink:title=" ">
<polygon fill="white" stroke="black" points="2004.72,-5.5 2004.72,-23.5 2152.25,-23.5 2152.25,-5.5 2004.72,-5.5"/>
<text text-anchor="middle" x="2078.49" y="-11.5" font-family="Helvetica,sans-Serif" font-size="10.00">src/exo_fac/Ioex_IOFactory.C</text>
</a>
</g>
</g>
<!-- Node1&#45;&gt;Node15 -->
<g id="edge19" class="edge">
<title>Node1&#45;&gt;Node15</title>
<path fill="none" stroke="midnightblue" d="M2205.32,-124.85C2192.2,-116.45 2175.46,-105.19 2161.49,-94 2132.08,-70.44 2100.6,-38.61 2086.33,-23.76"/>
<polygon fill="midnightblue" stroke="midnightblue" points="2203.82,-128.04 2214.14,-130.41 2207.55,-122.12 2203.82,-128.04"/>
</g>
<!-- Node16 -->
<g id="node16" class="node">
<title>Node16</title>
<g id="a_node16"><a xlink:href="Ioex__IOFactory_8h.html" target="_top" xlink:title=" ">
<polygon fill="white" stroke="black" points="1938.55,-70.5 1938.55,-88.5 2084.42,-88.5 2084.42,-70.5 1938.55,-70.5"/>
<text text-anchor="middle" x="2011.49" y="-76.5" font-family="Helvetica,sans-Serif" font-size="10.00">src/exo_fac/Ioex_IOFactory.h</text>
</a>
</g>
</g>
<!-- Node1&#45;&gt;Node16 -->
<g id="edge20" class="edge">
<title>Node1&#45;&gt;Node16</title>
<path fill="none" stroke="midnightblue" d="M2187.78,-127.84C2145.57,-116.5 2079.76,-98.83 2041.61,-88.59"/>
<polygon fill="midnightblue" stroke="midnightblue" points="2186.89,-131.22 2197.45,-130.44 2188.7,-124.46 2186.89,-131.22"/>
</g>
<!-- Node17 -->
<g id="node17" class="node">
<title>Node17</title>
<g id="a_node17"><a xlink:href="Iogs__DatabaseIO_8C.html" target="_top" xlink:title=" ">
<polygon fill="white" stroke="black" points="2175.64,-0.5 2175.64,-28.5 2273.34,-28.5 2273.34,-0.5 2175.64,-0.5"/>
<text text-anchor="start" x="2183.64" y="-16.5" font-family="Helvetica,sans-Serif" font-size="10.00">src/gen_struc/Iogs</text>
<text text-anchor="middle" x="2224.49" y="-6.5" font-family="Helvetica,sans-Serif" font-size="10.00">_DatabaseIO.C</text>
</a>
</g>
</g>
<!-- Node1&#45;&gt;Node17 -->
<g id="edge22" class="edge">
<title>Node1&#45;&gt;Node17</title>
<path fill="none" stroke="midnightblue" d="M2200.85,-125.35C2188.94,-117.92 2176.11,-107.42 2169.49,-94 2163.79,-82.44 2164.24,-76.77 2169.49,-65 2176.28,-49.74 2190.36,-37.22 2202.57,-28.58"/>
<polygon fill="midnightblue" stroke="midnightblue" points="2199.25,-128.46 2209.67,-130.42 2202.74,-122.4 2199.25,-128.46"/>
</g>
<!-- Node18 -->
<g id="node18" class="node">
<title>Node18</title>
<g id="a_node18"><a xlink:href="Iogs__DatabaseIO_8h.html" target="_top" xlink:title=" ">
<polygon fill="white" stroke="black" points="2178.64,-65.5 2178.64,-93.5 2276.34,-93.5 2276.34,-65.5 2178.64,-65.5"/>
<text text-anchor="start" x="2186.64" y="-81.5" font-family="Helvetica,sans-Serif" font-size="10.00">src/gen_struc/Iogs</text>
<text text-anchor="middle" x="2227.49" y="-71.5" font-family="Helvetica,sans-Serif" font-size="10.00">_DatabaseIO.h</text>
</a>
</g>
</g>
<!-- Node1&#45;&gt;Node18 -->
<g id="edge23" class="edge">
<title>Node1&#45;&gt;Node18</title>
<path fill="none" stroke="midnightblue" d="M2227.49,-120.32C2227.49,-111.75 2227.49,-101.7 2227.49,-93.84"/>
<polygon fill="midnightblue" stroke="midnightblue" points="2223.99,-120.44 2227.49,-130.44 2230.99,-120.44 2223.99,-120.44"/>
</g>
<!-- Node20 -->
<g id="node20" class="node">
<title>Node20</title>
<g id="a_node20"><a xlink:href="Iogn__DatabaseIO_8C.html" target="_top" xlink:title=" ">
<polygon fill="white" stroke="black" points="2294.79,-0.5 2294.79,-28.5 2394.18,-28.5 2394.18,-0.5 2294.79,-0.5"/>
<text text-anchor="start" x="2302.79" y="-16.5" font-family="Helvetica,sans-Serif" font-size="10.00">src/generated/Iogn</text>
<text text-anchor="middle" x="2344.49" y="-6.5" font-family="Helvetica,sans-Serif" font-size="10.00">_DatabaseIO.C</text>
</a>
</g>
</g>
<!-- Node1&#45;&gt;Node20 -->
<g id="edge26" class="edge">
<title>Node1&#45;&gt;Node20</title>
<path fill="none" stroke="midnightblue" d="M2248.83,-124.26C2260.31,-116.09 2274.36,-105.24 2285.49,-94 2306.12,-73.16 2325.66,-44.89 2336.26,-28.58"/>
<polygon fill="midnightblue" stroke="midnightblue" points="2246.5,-121.62 2240.28,-130.19 2250.49,-127.37 2246.5,-121.62"/>
</g>
<!-- Node21 -->
<g id="node21" class="node">
<title>Node21</title>
<g id="a_node21"><a xlink:href="Iogn__DatabaseIO_8h.html" target="_top" xlink:title=" ">
<polygon fill="white" stroke="black" points="2332.79,-65.5 2332.79,-93.5 2432.18,-93.5 2432.18,-65.5 2332.79,-65.5"/>
<text text-anchor="start" x="2340.79" y="-81.5" font-family="Helvetica,sans-Serif" font-size="10.00">src/generated/Iogn</text>
<text text-anchor="middle" x="2382.49" y="-71.5" font-family="Helvetica,sans-Serif" font-size="10.00">_DatabaseIO.h</text>
</a>
</g>
</g>
<!-- Node1&#45;&gt;Node21 -->
<g id="edge27" class="edge">
<title>Node1&#45;&gt;Node21</title>
<path fill="none" stroke="midnightblue" d="M2258.68,-126.83C2284.46,-117.18 2321.01,-103.5 2347.72,-93.51"/>
<polygon fill="midnightblue" stroke="midnightblue" points="2257.18,-123.65 2249.04,-130.44 2259.63,-130.21 2257.18,-123.65"/>
</g>
<!-- Node22 -->
<g id="node22" class="node">
<title>Node22</title>
<g id="a_node22"><a xlink:href="Iohb__DatabaseIO_8C.html" target="_top" xlink:title=" ">
<polygon fill="white" stroke="black" points="2565.19,-0.5 2565.19,-28.5 2661.79,-28.5 2661.79,-0.5 2565.19,-0.5"/>
<text text-anchor="start" x="2573.19" y="-16.5" font-family="Helvetica,sans-Serif" font-size="10.00">src/heartbeat/Iohb</text>
<text text-anchor="middle" x="2613.49" y="-6.5" font-family="Helvetica,sans-Serif" font-size="10.00">_DatabaseIO.C</text>
</a>
</g>
</g>
<!-- Node1&#45;&gt;Node22 -->
<g id="edge30" class="edge">
<title>Node1&#45;&gt;Node22</title>
<path fill="none" stroke="midnightblue" d="M2291.55,-136.89C2410.5,-133.24 2655.8,-122.33 2681.49,-94 2701.96,-71.43 2665.77,-44.45 2638.8,-28.72"/>
<polygon fill="midnightblue" stroke="midnightblue" points="2291.37,-133.4 2281.48,-137.19 2291.58,-140.39 2291.37,-133.4"/>
</g>
<!-- Node23 -->
<g id="node23" class="node">
<title>Node23</title>
<g id="a_node23"><a xlink:href="Iohb__DatabaseIO_8h.html" target="_top" xlink:title=" ">
<polygon fill="white" stroke="black" points="2450.19,-65.5 2450.19,-93.5 2546.79,-93.5 2546.79,-65.5 2450.19,-65.5"/>
<text text-anchor="start" x="2458.19" y="-81.5" font-family="Helvetica,sans-Serif" font-size="10.00">src/heartbeat/Iohb</text>
<text text-anchor="middle" x="2498.49" y="-71.5" font-family="Helvetica,sans-Serif" font-size="10.00">_DatabaseIO.h</text>
</a>
</g>
</g>
<!-- Node1&#45;&gt;Node23 -->
<g id="edge31" class="edge">
<title>Node1&#45;&gt;Node23</title>
<path fill="none" stroke="midnightblue" d="M2277.81,-128.44C2321.23,-119.67 2385.59,-106.43 2441.49,-94 2444.27,-93.38 2447.12,-92.74 2450,-92.08"/>
<polygon fill="midnightblue" stroke="midnightblue" points="2276.9,-125.06 2267.79,-130.46 2278.28,-131.92 2276.9,-125.06"/>
</g>
<!-- Node24 -->
<g id="node24" class="node">
<title>Node24</title>
<g id="a_node24"><a xlink:href="Ioss__FaceGenerator_8C.html" target="_top" xlink:title=" ">
<polygon fill="white" stroke="black" points="2766.13,-70.5 2766.13,-88.5 2898.85,-88.5 2898.85,-70.5 2766.13,-70.5"/>
<text text-anchor="middle" x="2832.49" y="-76.5" font-family="Helvetica,sans-Serif" font-size="10.00">src/Ioss_FaceGenerator.C</text>
</a>
</g>
</g>
<!-- Node1&#45;&gt;Node24 -->
<g id="edge34" class="edge">
<title>Node1&#45;&gt;Node24</title>
<path fill="none" stroke="midnightblue" d="M2291.45,-134.79C2390.49,-128.66 2586.83,-114.96 2752.49,-94 2764.37,-92.5 2777.18,-90.5 2788.99,-88.51"/>
<polygon fill="midnightblue" stroke="midnightblue" points="2291.07,-131.3 2281.3,-135.41 2291.5,-138.29 2291.07,-131.3"/>
</g>
<!-- Node25 -->
<g id="node25" class="node">
<title>Node25</title>
<g id="a_node25"><a xlink:href="Ioss__IOFactory_8C.html" target="_top" xlink:title=" ">
<polygon fill="white" stroke="black" points="2916.9,-70.5 2916.9,-88.5 3026.07,-88.5 3026.07,-70.5 2916.9,-70.5"/>
<text text-anchor="middle" x="2971.49" y="-76.5" font-family="Helvetica,sans-Serif" font-size="10.00">src/Ioss_IOFactory.C</text>
</a>
</g>
</g>
<!-- Node1&#45;&gt;Node25 -->
<g id="edge35" class="edge">
<title>Node1&#45;&gt;Node25</title>
<path fill="none" stroke="midnightblue" d="M2291.72,-137.34C2412.73,-134.49 2682.56,-124.92 2907.49,-94 2917.39,-92.64 2928.04,-90.62 2937.77,-88.55"/>
<polygon fill="midnightblue" stroke="midnightblue" points="2291.44,-133.85 2281.52,-137.58 2291.6,-140.85 2291.44,-133.85"/>
</g>
<!-- Node26 -->
<g id="node26" class="node">
<title>Node26</title>
<g id="a_node26"><a xlink:href="Ioss__SubSystem_8h.html" target="_top" xlink:title=" ">
<polygon fill="white" stroke="black" points="806.75,-70.5 806.75,-88.5 922.23,-88.5 922.23,-70.5 806.75,-70.5"/>
<text text-anchor="middle" x="864.49" y="-76.5" font-family="Helvetica,sans-Serif" font-size="10.00">src/Ioss_SubSystem.h</text>
</a>
</g>
</g>
<!-- Node1&#45;&gt;Node26 -->
<g id="edge36" class="edge">
<title>Node1&#45;&gt;Node26</title>
<path fill="none" stroke="midnightblue" d="M2163.25,-135.86C1998.06,-129.06 1544.95,-110.33 1167.49,-94 1082.13,-90.31 983.26,-85.87 922.29,-83.12"/>
<polygon fill="midnightblue" stroke="midnightblue" points="2163.58,-139.38 2173.71,-136.29 2163.86,-132.38 2163.58,-139.38"/>
</g>
<!-- Node33 -->
<g id="node33" class="node">
<title>Node33</title>
<g id="a_node33"><a xlink:href="cgns__decomp_8C.html" target="_top" xlink:title=" ">
<polygon fill="white" stroke="black" points="3044.08,-70.5 3044.08,-88.5 3172.9,-88.5 3172.9,-70.5 3044.08,-70.5"/>
<text text-anchor="middle" x="3108.49" y="-76.5" font-family="Helvetica,sans-Serif" font-size="10.00">src/main/cgns_decomp.C</text>
</a>
</g>
</g>
<!-- Node1&#45;&gt;Node33 -->
<g id="edge45" class="edge">
<title>Node1&#45;&gt;Node33</title>
<path fill="none" stroke="midnightblue" d="M2291.92,-137.74C2429.14,-135.52 2760.18,-126.9 3035.49,-94 3046.88,-92.64 3059.17,-90.59 3070.36,-88.5"/>
<polygon fill="midnightblue" stroke="midnightblue" points="2291.54,-134.25 2281.59,-137.9 2291.65,-141.25 2291.54,-134.25"/>
</g>
<!-- Node34 -->
<g id="node34" class="node">
<title>Node34</title>
<g id="a_node34"><a xlink:href="cth__pressure__map_8C.html" target="_top" xlink:title=" ">
<polygon fill="white" stroke="black" points="3191.3,-65.5 3191.3,-93.5 3305.67,-93.5 3305.67,-65.5 3191.3,-65.5"/>
<text text-anchor="start" x="3199.3" y="-81.5" font-family="Helvetica,sans-Serif" font-size="10.00">src/main/cth_pressure</text>
<text text-anchor="middle" x="3248.49" y="-71.5" font-family="Helvetica,sans-Serif" font-size="10.00">_map.C</text>
</a>
</g>
</g>
<!-- Node1&#45;&gt;Node34 -->
<g id="edge46" class="edge">
<title>Node1&#45;&gt;Node34</title>
<path fill="none" stroke="midnightblue" d="M2291.47,-138.87C2445.39,-139.02 2848.3,-135.1 3181.49,-94 3184.67,-93.61 3187.92,-93.15 3191.2,-92.64"/>
<polygon fill="midnightblue" stroke="midnightblue" points="2291.26,-135.37 2281.26,-138.85 2291.25,-142.37 2291.26,-135.37"/>
</g>
<!-- Node35 -->
<g id="node35" class="node">
<title>Node35</title>
<g id="a_node35"><a xlink:href="io__info_8h.html" target="_top" xlink:title=" ">
<polygon fill="white" stroke="black" points="3323.3,-70.5 3323.3,-88.5 3417.67,-88.5 3417.67,-70.5 3323.3,-70.5"/>
<text text-anchor="middle" x="3370.49" y="-76.5" font-family="Helvetica,sans-Serif" font-size="10.00">src/main/io_info.h</text>
</a>
</g>
</g>
<!-- Node1&#45;&gt;Node35 -->
<g id="edge47" class="edge">
<title>Node1&#45;&gt;Node35</title>
<path fill="none" stroke="midnightblue" d="M2291.5,-137.52C2493.36,-134.18 3115,-121.86 3314.49,-94 3323.5,-92.74 3333.18,-90.67 3341.92,-88.53"/>
<polygon fill="midnightblue" stroke="midnightblue" points="2291.3,-134.03 2281.35,-137.69 2291.41,-141.03 2291.3,-134.03"/>
</g>
<!-- Node38 -->
<g id="node38" class="node">
<title>Node38</title>
<g id="a_node38"><a xlink:href="io__modify_8C.html" target="_top" xlink:title=" ">
<polygon fill="white" stroke="black" points="3435.18,-70.5 3435.18,-88.5 3543.8,-88.5 3543.8,-70.5 3435.18,-70.5"/>
<text text-anchor="middle" x="3489.49" y="-76.5" font-family="Helvetica,sans-Serif" font-size="10.00">src/main/io_modify.C</text>
</a>
</g>
</g>
<!-- Node1&#45;&gt;Node38 -->
<g id="edge50" class="edge">
<title>Node1&#45;&gt;Node38</title>
<path fill="none" stroke="midnightblue" d="M2291.75,-137.59C2507.36,-134.31 3203.92,-121.76 3426.49,-94 3436.59,-92.74 3447.47,-90.67 3457.3,-88.53"/>
<polygon fill="midnightblue" stroke="midnightblue" points="2291.5,-134.09 2281.55,-137.74 2291.6,-141.09 2291.5,-134.09"/>
</g>
<!-- Node39 -->
<g id="node39" class="node">
<title>Node39</title>
<g id="a_node39"><a xlink:href="shell__to__hex_8C.html" target="_top" xlink:title=" ">
<polygon fill="white" stroke="black" points="3562.13,-70.5 3562.13,-88.5 3684.85,-88.5 3684.85,-70.5 3562.13,-70.5"/>
<text text-anchor="middle" x="3623.49" y="-76.5" font-family="Helvetica,sans-Serif" font-size="10.00">src/main/shell_to_hex.C</text>
</a>
</g>
</g>
<!-- Node1&#45;&gt;Node39 -->
<g id="edge51" class="edge">
<title>Node1&#45;&gt;Node39</title>
<path fill="none" stroke="midnightblue" d="M2291.79,-137.66C2521.89,-134.43 3303.82,-121.65 3552.49,-94 3563.84,-92.74 3576.09,-90.67 3587.17,-88.52"/>
<polygon fill="midnightblue" stroke="midnightblue" points="2291.52,-134.16 2281.57,-137.8 2291.62,-141.16 2291.52,-134.16"/>
</g>
<!-- Node40 -->
<g id="node40" class="node">
<title>Node40</title>
<g id="a_node40"><a xlink:href="skinner_8C.html" target="_top" xlink:title=" ">
<polygon fill="white" stroke="black" points="3702.36,-70.5 3702.36,-88.5 3800.61,-88.5 3800.61,-70.5 3702.36,-70.5"/>
<text text-anchor="middle" x="3751.49" y="-76.5" font-family="Helvetica,sans-Serif" font-size="10.00">src/main/skinner.C</text>
</a>
</g>
</g>
<!-- Node1&#45;&gt;Node40 -->
<g id="edge52" class="edge">
<title>Node1&#45;&gt;Node40</title>
<path fill="none" stroke="midnightblue" d="M2291.59,-138.24C2536.92,-137.01 3416.41,-130.09 3693.49,-94 3702.92,-92.77 3713.06,-90.68 3722.19,-88.51"/>
<polygon fill="midnightblue" stroke="midnightblue" points="2291.39,-134.75 2281.41,-138.29 2291.43,-141.75 2291.39,-134.75"/>
</g>
<!-- Node41 -->
<g id="node41" class="node">
<title>Node41</title>
<g id="a_node41"><a xlink:href="sphgen_8C.html" target="_top" xlink:title=" ">
<polygon fill="white" stroke="black" points="3818.8,-70.5 3818.8,-88.5 3918.17,-88.5 3918.17,-70.5 3818.8,-70.5"/>
<text text-anchor="middle" x="3868.49" y="-76.5" font-family="Helvetica,sans-Serif" font-size="10.00">src/main/sphgen.C</text>
</a>
</g>
</g>
<!-- Node1&#45;&gt;Node41 -->
<g id="edge53" class="edge">
<title>Node1&#45;&gt;Node41</title>
<path fill="none" stroke="midnightblue" d="M2291.88,-138.38C2549.75,-137.63 3508.56,-132.28 3809.49,-94 3819.08,-92.78 3829.4,-90.69 3838.68,-88.52"/>
<polygon fill="midnightblue" stroke="midnightblue" points="2291.55,-134.88 2281.56,-138.41 2291.57,-141.88 2291.55,-134.88"/>
</g>
<!-- Node42 -->
<g id="node42" class="node">
<title>Node42</title>
<g id="a_node42"><a xlink:href="Iopg__DatabaseIO_8h.html" target="_top" xlink:title=" ">
<polygon fill="white" stroke="black" points="1176.61,-70.5 1176.61,-88.5 1334.36,-88.5 1334.36,-70.5 1176.61,-70.5"/>
<text text-anchor="middle" x="1255.49" y="-76.5" font-family="Helvetica,sans-Serif" font-size="10.00">src/pamgen/Iopg_DatabaseIO.h</text>
</a>
</g>
</g>
<!-- Node1&#45;&gt;Node42 -->
<g id="edge54" class="edge">
<title>Node1&#45;&gt;Node42</title>
<path fill="none" stroke="midnightblue" d="M2163.53,-137.31C2018.32,-134.17 1652.75,-123.72 1348.49,-94 1334.2,-92.6 1318.74,-90.57 1304.61,-88.51"/>
<polygon fill="midnightblue" stroke="midnightblue" points="2163.53,-140.81 2173.6,-137.53 2163.67,-133.81 2163.53,-140.81"/>
</g>
<!-- Node43 -->
<g id="node43" class="node">
<title>Node43</title>
<g id="a_node43"><a xlink:href="Iovs__IOFactory_8C.html" target="_top" xlink:title=" ">
<polygon fill="white" stroke="black" points="2681.64,-0.5 2681.64,-28.5 2789.34,-28.5 2789.34,-0.5 2681.64,-0.5"/>
<text text-anchor="start" x="2689.64" y="-16.5" font-family="Helvetica,sans-Serif" font-size="10.00">src/visualization/Iovs</text>
<text text-anchor="middle" x="2735.49" y="-6.5" font-family="Helvetica,sans-Serif" font-size="10.00">_IOFactory.C</text>
</a>
</g>
</g>
<!-- Node1&#45;&gt;Node43 -->
<g id="edge56" class="edge">
<title>Node1&#45;&gt;Node43</title>
<path fill="none" stroke="midnightblue" d="M2291.69,-135.99C2413.05,-130.73 2666.96,-117.09 2699.49,-94 2721.25,-78.55 2730.15,-46.63 2733.56,-28.62"/>
<polygon fill="midnightblue" stroke="midnightblue" points="2291.26,-132.5 2281.42,-136.43 2291.56,-139.5 2291.26,-132.5"/>
</g>
<!-- Node44 -->
<g id="node44" class="node">
<title>Node44</title>
<g id="a_node44"><a xlink:href="Iovs__IOFactory_8h.html" target="_top" xlink:title=" ">
<polygon fill="white" stroke="black" points="2564.64,-65.5 2564.64,-93.5 2672.34,-93.5 2672.34,-65.5 2564.64,-65.5"/>
<text text-anchor="start" x="2572.64" y="-81.5" font-family="Helvetica,sans-Serif" font-size="10.00">src/visualization/Iovs</text>
<text text-anchor="middle" x="2618.49" y="-71.5" font-family="Helvetica,sans-Serif" font-size="10.00">_IOFactory.h</text>
</a>
</g>
</g>
<!-- Node1&#45;&gt;Node44 -->
<g id="edge57" class="edge">
<title>Node1&#45;&gt;Node44</title>
<path fill="none" stroke="midnightblue" d="M2291.66,-131.26C2357.94,-123.44 2464.27,-109.94 2555.49,-94 2558.46,-93.48 2561.51,-92.92 2564.58,-92.33"/>
<polygon fill="midnightblue" stroke="midnightblue" points="2290.9,-127.83 2281.37,-132.47 2291.71,-134.78 2290.9,-127.83"/>
</g>
<!-- Node3&#45;&gt;Node2 -->
<g id="edge4" class="edge">
<title>Node3&#45;&gt;Node2</title>
<path fill="none" stroke="midnightblue" d="M192.51,-66.57C161.93,-53.97 114.57,-34.48 88.1,-23.58"/>
<polygon fill="midnightblue" stroke="midnightblue" points="191.22,-69.82 201.8,-70.39 193.89,-63.35 191.22,-69.82"/>
</g>
<!-- Node4 -->
<g id="node4" class="node">
<title>Node4</title>
<g id="a_node4"><a xlink:href="Ioad__Initializer_8C.html" target="_top" xlink:title=" ">
<polygon fill="white" stroke="black" points="155.12,-5.5 155.12,-23.5 287.85,-23.5 287.85,-5.5 155.12,-5.5"/>
<text text-anchor="middle" x="221.49" y="-11.5" font-family="Helvetica,sans-Serif" font-size="10.00">src/adios/Ioad_Initializer.C</text>
</a>
</g>
</g>
<!-- Node3&#45;&gt;Node4 -->
<g id="edge3" class="edge">
<title>Node3&#45;&gt;Node4</title>
<path fill="none" stroke="midnightblue" d="M221.49,-59.91C221.49,-47.81 221.49,-32.65 221.49,-23.54"/>
<polygon fill="midnightblue" stroke="midnightblue" points="217.99,-60.26 221.49,-70.26 224.99,-60.26 217.99,-60.26"/>
</g>
<!-- Node7&#45;&gt;Node6 -->
<g id="edge8" class="edge">
<title>Node7&#45;&gt;Node6</title>
<path fill="none" stroke="midnightblue" d="M1458.16,-61.02C1452.33,-48.76 1444.79,-32.93 1440.32,-23.54"/>
<polygon fill="midnightblue" stroke="midnightblue" points="1455.11,-62.74 1462.57,-70.26 1461.43,-59.73 1455.11,-62.74"/>
</g>
<!-- Node7&#45;&gt;Node8 -->
<g id="edge9" class="edge">
<title>Node7&#45;&gt;Node8</title>
<path fill="none" stroke="midnightblue" d="M1493.51,-66.07C1520.92,-53.47 1562.53,-34.33 1585.93,-23.58"/>
<polygon fill="midnightblue" stroke="midnightblue" points="1491.74,-63.03 1484.12,-70.39 1494.67,-69.39 1491.74,-63.03"/>
</g>
<!-- Node9&#45;&gt;Node8 -->
<g id="edge13" class="edge">
<title>Node9&#45;&gt;Node8</title>
<path fill="none" stroke="midnightblue" d="M1653.45,-63.19C1640.34,-50.68 1622.34,-33.5 1611.91,-23.54"/>
<polygon fill="midnightblue" stroke="midnightblue" points="1651.21,-65.89 1660.86,-70.26 1656.04,-60.83 1651.21,-65.89"/>
</g>
<!-- Node10 -->
<g id="node10" class="node">
<title>Node10</title>
<g id="a_node10"><a xlink:href="Iocgns__Initializer_8C.html" target="_top" xlink:title=" ">
<polygon fill="white" stroke="black" points="1693.52,-5.5 1693.52,-23.5 1833.46,-23.5 1833.46,-5.5 1693.52,-5.5"/>
<text text-anchor="middle" x="1763.49" y="-11.5" font-family="Helvetica,sans-Serif" font-size="10.00">src/cgns/Iocgns_Initializer.C</text>
</a>
</g>
</g>
<!-- Node9&#45;&gt;Node10 -->
<g id="edge12" class="edge">
<title>Node9&#45;&gt;Node10</title>
<path fill="none" stroke="midnightblue" d="M1690.25,-64.58C1709.05,-51.99 1736.07,-33.87 1751.49,-23.54"/>
<polygon fill="midnightblue" stroke="midnightblue" points="1688.14,-61.79 1681.78,-70.26 1692.03,-67.6 1688.14,-61.79"/>
</g>
<!-- Node12&#45;&gt;Node11 -->
<g id="edge16" class="edge">
<title>Node12&#45;&gt;Node11</title>
<path fill="none" stroke="midnightblue" d="M1848.09,-59.8C1862.95,-49.74 1880.91,-37.57 1894.24,-28.54"/>
<polygon fill="midnightblue" stroke="midnightblue" points="1846.07,-56.94 1839.76,-65.45 1850,-62.74 1846.07,-56.94"/>
</g>
<!-- Node14 -->
<g id="node14" class="node">
<title>Node14</title>
<g id="a_node14"><a xlink:href="Iodw__DatabaseIO_8C.html" target="_top" xlink:title=" ">
<polygon fill="white" stroke="black" points="417.07,-0.5 417.07,-28.5 525.9,-28.5 525.9,-0.5 417.07,-0.5"/>
<text text-anchor="start" x="425.07" y="-16.5" font-family="Helvetica,sans-Serif" font-size="10.00">src/data_warehouse</text>
<text text-anchor="middle" x="471.49" y="-6.5" font-family="Helvetica,sans-Serif" font-size="10.00">/Iodw_DatabaseIO.C</text>
</a>
</g>
</g>
<!-- Node13&#45;&gt;Node14 -->
<g id="edge18" class="edge">
<title>Node13&#45;&gt;Node14</title>
<path fill="none" stroke="midnightblue" d="M566.95,-61.06C545.38,-50.77 518.53,-37.95 498.8,-28.54"/>
<polygon fill="midnightblue" stroke="midnightblue" points="565.61,-64.3 576.14,-65.45 568.62,-57.98 565.61,-64.3"/>
</g>
<!-- Node16&#45;&gt;Node15 -->
<g id="edge21" class="edge">
<title>Node16&#45;&gt;Node15</title>
<path fill="none" stroke="midnightblue" d="M2027.77,-63.19C2041.07,-50.68 2059.35,-33.5 2069.94,-23.54"/>
<polygon fill="midnightblue" stroke="midnightblue" points="2025.13,-60.86 2020.25,-70.26 2029.93,-65.96 2025.13,-60.86"/>
</g>
<!-- Node18&#45;&gt;Node17 -->
<g id="edge24" class="edge">
<title>Node18&#45;&gt;Node17</title>
<path fill="none" stroke="midnightblue" d="M2226.38,-55.16C2225.95,-46.17 2225.47,-36.22 2225.11,-28.54"/>
<polygon fill="midnightblue" stroke="midnightblue" points="2222.89,-55.62 2226.87,-65.45 2229.89,-55.29 2222.89,-55.62"/>
</g>
<!-- Node19 -->
<g id="node19" class="node">
<title>Node19</title>
<g id="a_node19"><a xlink:href="Ionit__Initializer_8C.html" target="_top" xlink:title=" ">
<polygon fill="white" stroke="black" points="2420.97,-5.5 2420.97,-23.5 2542.01,-23.5 2542.01,-5.5 2420.97,-5.5"/>
<text text-anchor="middle" x="2481.49" y="-11.5" font-family="Helvetica,sans-Serif" font-size="10.00">src/init/Ionit_Initializer.C</text>
</a>
</g>
</g>
<!-- Node18&#45;&gt;Node19 -->
<g id="edge25" class="edge">
<title>Node18&#45;&gt;Node19</title>
<path fill="none" stroke="midnightblue" d="M2286.31,-63.91C2336.99,-51.34 2408.25,-33.66 2449.17,-23.51"/>
<polygon fill="midnightblue" stroke="midnightblue" points="2285.33,-60.55 2276.46,-66.35 2287.01,-67.34 2285.33,-60.55"/>
</g>
<!-- Node21&#45;&gt;Node19 -->
<g id="edge29" class="edge">
<title>Node21&#45;&gt;Node19</title>
<path fill="none" stroke="midnightblue" d="M2411.61,-59.97C2430.62,-47.87 2454.49,-32.68 2468.84,-23.55"/>
<polygon fill="midnightblue" stroke="midnightblue" points="2409.56,-57.12 2403,-65.45 2413.32,-63.03 2409.56,-57.12"/>
</g>
<!-- Node21&#45;&gt;Node20 -->
<g id="edge28" class="edge">
<title>Node21&#45;&gt;Node20</title>
<path fill="none" stroke="midnightblue" d="M2369.3,-56.64C2363.65,-47.27 2357.24,-36.64 2352.35,-28.54"/>
<polygon fill="midnightblue" stroke="midnightblue" points="2366.45,-58.69 2374.61,-65.45 2372.45,-55.08 2366.45,-58.69"/>
</g>
<!-- Node23&#45;&gt;Node19 -->
<g id="edge33" class="edge">
<title>Node23&#45;&gt;Node19</title>
<path fill="none" stroke="midnightblue" d="M2492.27,-55.47C2489.28,-44.38 2485.88,-31.77 2483.71,-23.73"/>
<polygon fill="midnightblue" stroke="midnightblue" points="2488.98,-56.7 2494.97,-65.45 2495.74,-54.88 2488.98,-56.7"/>
</g>
<!-- Node23&#45;&gt;Node22 -->
<g id="edge32" class="edge">
<title>Node23&#45;&gt;Node22</title>
<path fill="none" stroke="midnightblue" d="M2531.34,-60.5C2549.95,-50.31 2572.81,-37.78 2589.69,-28.54"/>
<polygon fill="midnightblue" stroke="midnightblue" points="2529.4,-57.57 2522.32,-65.45 2532.77,-63.71 2529.4,-57.57"/>
</g>
<!-- Node26&#45;&gt;Node5 -->
<g id="edge37" class="edge">
<title>Node26&#45;&gt;Node5</title>
<path fill="none" stroke="midnightblue" d="M796.56,-73.86C707.12,-67.14 545.22,-52.8 408.49,-29 405.43,-28.47 402.3,-27.87 399.15,-27.22"/>
<polygon fill="midnightblue" stroke="midnightblue" points="796.34,-77.36 806.57,-74.61 796.86,-70.38 796.34,-77.36"/>
</g>
<!-- Node26&#45;&gt;Node14 -->
<g id="edge38" class="edge">
<title>Node26&#45;&gt;Node14</title>
<path fill="none" stroke="midnightblue" d="M796.71,-69.48C730.06,-60.34 625.51,-45.25 535.49,-29 532.36,-28.44 529.15,-27.83 525.91,-27.21"/>
<polygon fill="midnightblue" stroke="midnightblue" points="796.29,-72.96 806.67,-70.84 797.24,-66.02 796.29,-72.96"/>
</g>
<!-- Node27 -->
<g id="node27" class="node">
<title>Node27</title>
<g id="a_node27"><a xlink:href="Ioss__Utils_8C.html" target="_top" xlink:title=" ">
<polygon fill="white" stroke="black" points="1078.76,-5.5 1078.76,-23.5 1164.21,-23.5 1164.21,-5.5 1078.76,-5.5"/>
<text text-anchor="middle" x="1121.49" y="-11.5" font-family="Helvetica,sans-Serif" font-size="10.00">src/Ioss_Utils.C</text>
</a>
</g>
</g>
<!-- Node26&#45;&gt;Node27 -->
<g id="edge39" class="edge">
<title>Node26&#45;&gt;Node27</title>
<path fill="none" stroke="midnightblue" d="M908.43,-68.12C949.98,-58.25 1014.04,-42.89 1069.49,-29 1076.45,-27.25 1083.93,-25.34 1090.99,-23.51"/>
<polygon fill="midnightblue" stroke="midnightblue" points="907.55,-64.73 898.63,-70.44 909.17,-71.54 907.55,-64.73"/>
</g>
<!-- Node28 -->
<g id="node28" class="node">
<title>Node28</title>
<g id="a_node28"><a xlink:href="io__shell_8C.html" target="_top" xlink:title=" ">
<polygon fill="white" stroke="black" points="544.25,-5.5 544.25,-23.5 644.72,-23.5 644.72,-5.5 544.25,-5.5"/>
<text text-anchor="middle" x="594.49" y="-11.5" font-family="Helvetica,sans-Serif" font-size="10.00">src/main/io_shell.C</text>
</a>
</g>
</g>
<!-- Node26&#45;&gt;Node28 -->
<g id="edge40" class="edge">
<title>Node26&#45;&gt;Node28</title>
<path fill="none" stroke="midnightblue" d="M820.14,-68.15C766.66,-55.67 677.92,-34.97 629.18,-23.59"/>
<polygon fill="midnightblue" stroke="midnightblue" points="819.48,-71.59 830.02,-70.46 821.08,-64.78 819.48,-71.59"/>
</g>
<!-- Node29 -->
<g id="node29" class="node">
<title>Node29</title>
<g id="a_node29"><a xlink:href="io__shell__ts_8C.html" target="_top" xlink:title=" ">
<polygon fill="white" stroke="black" points="662.58,-5.5 662.58,-23.5 776.39,-23.5 776.39,-5.5 662.58,-5.5"/>
<text text-anchor="middle" x="719.49" y="-11.5" font-family="Helvetica,sans-Serif" font-size="10.00">src/main/io_shell_ts.C</text>
</a>
</g>
</g>
<!-- Node26&#45;&gt;Node29 -->
<g id="edge41" class="edge">
<title>Node26&#45;&gt;Node29</title>
<path fill="none" stroke="midnightblue" d="M836.65,-66.4C807.65,-53.81 763.05,-34.43 738.08,-23.58"/>
<polygon fill="midnightblue" stroke="midnightblue" points="835.26,-69.62 845.83,-70.39 838.05,-63.2 835.26,-69.62"/>
</g>
<!-- Node30 -->
<g id="node30" class="node">
<title>Node30</title>
<g id="a_node30"><a xlink:href="struc__to__unstruc_8C.html" target="_top" xlink:title=" ">
<polygon fill="white" stroke="black" points="794.24,-5.5 794.24,-23.5 934.73,-23.5 934.73,-5.5 794.24,-5.5"/>
<text text-anchor="middle" x="864.49" y="-11.5" font-family="Helvetica,sans-Serif" font-size="10.00">src/main/struc_to_unstruc.C</text>
</a>
</g>
</g>
<!-- Node26&#45;&gt;Node30 -->
<g id="edge42" class="edge">
<title>Node26&#45;&gt;Node30</title>
<path fill="none" stroke="midnightblue" d="M864.49,-59.91C864.49,-47.81 864.49,-32.65 864.49,-23.54"/>
<polygon fill="midnightblue" stroke="midnightblue" points="860.99,-60.26 864.49,-70.26 867.99,-60.26 860.99,-60.26"/>
</g>
<!-- Node31 -->
<g id="node31" class="node">
<title>Node31</title>
<g id="a_node31"><a xlink:href="Iopg__DatabaseIO_8C.html" target="_top" xlink:title=" ">
<polygon fill="white" stroke="black" points="1181.78,-5.5 1181.78,-23.5 1341.19,-23.5 1341.19,-5.5 1181.78,-5.5"/>
<text text-anchor="middle" x="1261.49" y="-11.5" font-family="Helvetica,sans-Serif" font-size="10.00">src/pamgen/Iopg_DatabaseIO.C</text>
</a>
</g>
</g>
<!-- Node26&#45;&gt;Node31 -->
<g id="edge43" class="edge">
<title>Node26&#45;&gt;Node31</title>
<path fill="none" stroke="midnightblue" d="M925.35,-68.84C1003.55,-56.43 1137.87,-35.12 1210.79,-23.54"/>
<polygon fill="midnightblue" stroke="midnightblue" points="924.5,-65.43 915.17,-70.46 925.6,-72.35 924.5,-65.43"/>
</g>
<!-- Node32 -->
<g id="node32" class="node">
<title>Node32</title>
<g id="a_node32"><a xlink:href="Iovs__DatabaseIO_8C.html" target="_top" xlink:title=" ">
<polygon fill="white" stroke="black" points="952.64,-0.5 952.64,-28.5 1060.34,-28.5 1060.34,-0.5 952.64,-0.5"/>
<text text-anchor="start" x="960.64" y="-16.5" font-family="Helvetica,sans-Serif" font-size="10.00">src/visualization/Iovs</text>
<text text-anchor="middle" x="1006.49" y="-6.5" font-family="Helvetica,sans-Serif" font-size="10.00">_DatabaseIO.C</text>
</a>
</g>
</g>
<!-- Node26&#45;&gt;Node32 -->
<g id="edge44" class="edge">
<title>Node26&#45;&gt;Node32</title>
<path fill="none" stroke="midnightblue" d="M892.19,-66.21C916.66,-55.35 952.24,-39.57 977.19,-28.5"/>
<polygon fill="midnightblue" stroke="midnightblue" points="890.48,-63.14 882.76,-70.39 893.32,-69.54 890.48,-63.14"/>
</g>
<!-- Node36 -->
<g id="node36" class="node">
<title>Node36</title>
<g id="a_node36"><a xlink:href="io__info_8C.html" target="_top" xlink:title=" ">
<polygon fill="white" stroke="black" points="3258.47,-5.5 3258.47,-23.5 3354.5,-23.5 3354.5,-5.5 3258.47,-5.5"/>
<text text-anchor="middle" x="3306.49" y="-11.5" font-family="Helvetica,sans-Serif" font-size="10.00">src/main/io_info.C</text>
</a>
</g>
</g>
<!-- Node35&#45;&gt;Node36 -->
<g id="edge48" class="edge">
<title>Node35&#45;&gt;Node36</title>
<path fill="none" stroke="midnightblue" d="M3354.93,-63.19C3342.23,-50.68 3324.77,-33.5 3314.65,-23.54"/>
<polygon fill="midnightblue" stroke="midnightblue" points="3352.54,-65.74 3362.12,-70.26 3357.45,-60.75 3352.54,-65.74"/>
</g>
<!-- Node37 -->
<g id="node37" class="node">
<title>Node37</title>
<g id="a_node37"><a xlink:href="io__info__main_8C.html" target="_top" xlink:title=" ">
<polygon fill="white" stroke="black" points="3372.86,-5.5 3372.86,-23.5 3496.12,-23.5 3496.12,-5.5 3372.86,-5.5"/>
<text text-anchor="middle" x="3434.49" y="-11.5" font-family="Helvetica,sans-Serif" font-size="10.00">src/main/io_info_main.C</text>
</a>
</g>
</g>
<!-- Node35&#45;&gt;Node37 -->
<g id="edge49" class="edge">
<title>Node35&#45;&gt;Node37</title>
<path fill="none" stroke="midnightblue" d="M3386.04,-63.19C3398.75,-50.68 3416.2,-33.5 3426.32,-23.54"/>
<polygon fill="midnightblue" stroke="midnightblue" points="3383.53,-60.75 3378.86,-70.26 3388.44,-65.74 3383.53,-60.75"/>
</g>
<!-- Node42&#45;&gt;Node31 -->
<g id="edge55" class="edge">
<title>Node42&#45;&gt;Node31</title>
<path fill="none" stroke="midnightblue" d="M1257.22,-60.28C1258.38,-48.13 1259.85,-32.75 1260.72,-23.54"/>
<polygon fill="midnightblue" stroke="midnightblue" points="1253.74,-59.98 1256.27,-70.26 1260.71,-60.64 1253.74,-59.98"/>
</g>
<!-- Node44&#45;&gt;Node19 -->
<g id="edge58" class="edge">
<title>Node44&#45;&gt;Node19</title>
<path fill="none" stroke="midnightblue" d="M2580.67,-61.11C2553.98,-48.84 2519.47,-32.97 2498.99,-23.55"/>
<polygon fill="midnightblue" stroke="midnightblue" points="2579.55,-64.45 2590.1,-65.45 2582.48,-58.09 2579.55,-64.45"/>
</g>
<!-- Node44&#45;&gt;Node43 -->
<g id="edge59" class="edge">
<title>Node44&#45;&gt;Node43</title>
<path fill="none" stroke="midnightblue" d="M2651.65,-60.64C2670.63,-50.42 2694.03,-37.82 2711.28,-28.54"/>
<polygon fill="midnightblue" stroke="midnightblue" points="2649.88,-57.62 2642.73,-65.45 2653.19,-63.79 2649.88,-57.62"/>
</g>
</g>
</svg>
        <g id="navigator" transform="translate(0 0)" fill="#404254">
                <rect fill="#f2f5e9" fill-opacity="0.5" stroke="#606060" stroke-width=".5" x="0" y="0" width="60" height="60"/>
                <use id="zoomplus" xlink:href="#zoomPlus" x="17" y="9" onmousedown="handleZoom(evt,'in')"/>
                <use id="zoomminus" xlink:href="#zoomMin" x="42" y="9" onmousedown="handleZoom(evt,'out')"/>
                <use id="reset" xlink:href="#resetDef" x="30" y="36" onmousedown="handleReset()"/>
                <g id="arrowUp" xlink:href="#dirArrow" transform="translate(30 24)" onmousedown="handlePan(0,-1)">
                  <use xlink:href="#rim" fill="#404040">
                        <set attributeName="fill" to="#808080" begin="arrowUp.mouseover" end="arrowUp.mouseout"/>
                  </use>
                  <path fill="none" stroke="white" stroke-width="1.5" d="M0,-3.0v7 M-2.5,-0.5L0,-3.0L2.5,-0.5"/>
                </g>
                <g id="arrowRight" xlink:href="#dirArrow" transform="rotate(90) translate(36 -43)" onmousedown="handlePan(1,0)">
                  <use xlink:href="#rim" fill="#404040">
                        <set attributeName="fill" to="#808080" begin="arrowRight.mouseover" end="arrowRight.mouseout"/>
                  </use>
                  <path fill="none" stroke="white" stroke-width="1.5" d="M0,-3.0v7 M-2.5,-0.5L0,-3.0L2.5,-0.5"/>
                </g>
                <g id="arrowDown" xlink:href="#dirArrow" transform="rotate(180) translate(-30 -48)" onmousedown="handlePan(0,1)">
                  <use xlink:href="#rim" fill="#404040">
                        <set attributeName="fill" to="#808080" begin="arrowDown.mouseover" end="arrowDown.mouseout"/>
                  </use>
                  <path fill="none" stroke="white" stroke-width="1.5" d="M0,-3.0v7 M-2.5,-0.5L0,-3.0L2.5,-0.5"/>
                </g>
                <g id="arrowLeft" xlink:href="#dirArrow" transform="rotate(270) translate(-36 17)" onmousedown="handlePan(-1,0)">
                  <use xlink:href="#rim" fill="#404040">
                        <set attributeName="fill" to="#808080" begin="arrowLeft.mouseover" end="arrowLeft.mouseout"/>
                  </use>
                  <path fill="none" stroke="white" stroke-width="1.5" d="M0,-3.0v7 M-2.5,-0.5L0,-3.0L2.5,-0.5"/>
                </g>
        </g>
        <svg viewBox="0 0 15 15" width="100%" height="30px" preserveAspectRatio="xMaxYMin meet">
         <g id="arrow_out" transform="scale(0.3 0.3)">
          <a xlink:href="Ioss__IOFactory_8h__dep__incl_org.svg" target="_base">
           <rect id="button" ry="5" rx="5" y="6" x="6" height="38" width="38"
                fill="#f2f5e9" fill-opacity="0.5" stroke="#606060" stroke-width="1.0"/>
           <path id="arrow"
             d="M 11.500037,31.436501 C 11.940474,20.09759 22.043105,11.32322 32.158766,21.979434 L 37.068811,17.246167 C 37.068811,17.246167 37.088388,32 37.088388,32 L 22.160133,31.978069 C 22.160133,31.978069 26.997745,27.140456 26.997745,27.140456 C 18.528582,18.264221 13.291696,25.230495 11.500037,31.436501 z"
             style="fill:#404040;"/>
          </a>
         </g>
        </svg>
</svg>
