<?xml version="1.0" encoding="UTF-8" standalone="no"?>
<!DOCTYPE svg PUBLIC "-//W3C//DTD SVG 1.1//EN"
 "http://www.w3.org/Graphics/SVG/1.1/DTD/svg11.dtd">
<!-- Generated by graphviz version 2.42.3 (20191010.1750)
 -->
<!-- Title: src/Ioss_EntitySet.h Pages: 1 -->
<svg width="2970pt" height="212pt"
 viewBox="0.00 0.00 2970.19 212.00" xmlns="http://www.w3.org/2000/svg" xmlns:xlink="http://www.w3.org/1999/xlink">
<g id="graph0" class="graph" transform="scale(1 1) rotate(0) translate(4 208)">
<title>src/Ioss_EntitySet.h</title>
<polygon fill="white" stroke="transparent" points="-4,4 -4,-208 2966.19,-208 2966.19,4 -4,4"/>
<!-- Node1 -->
<g id="node1" class="node">
<title>Node1</title>
<g id="a_node1"><a xlink:title=" ">
<polygon fill="#bfbfbf" stroke="black" points="1139.54,-185.5 1139.54,-203.5 1243.91,-203.5 1243.91,-185.5 1139.54,-185.5"/>
<text text-anchor="middle" x="1191.73" y="-191.5" font-family="Helvetica,sans-Serif" font-size="10.00">src/Ioss_EntitySet.h</text>
</a>
</g>
</g>
<!-- Node2 -->
<g id="node2" class="node">
<title>Node2</title>
<g id="a_node2"><a xlink:href="Ioad__DatabaseIO_8h.html" target="_top" xlink:title=" ">
<polygon fill="white" stroke="black" points="660.97,-130.5 660.97,-148.5 806.49,-148.5 806.49,-130.5 660.97,-130.5"/>
<text text-anchor="middle" x="733.73" y="-136.5" font-family="Helvetica,sans-Serif" font-size="10.00">src/adios/Ioad_DatabaseIO.h</text>
</a>
</g>
</g>
<!-- Node1&#45;&gt;Node2 -->
<g id="edge1" class="edge">
<title>Node1&#45;&gt;Node2</title>
<path fill="none" stroke="midnightblue" d="M1129.13,-186.26C1043.89,-176.39 891.79,-158.79 803.14,-148.53"/>
<polygon fill="midnightblue" stroke="midnightblue" points="1128.85,-189.75 1139.19,-187.42 1129.66,-182.79 1128.85,-189.75"/>
</g>
<!-- Node5 -->
<g id="node5" class="node">
<title>Node5</title>
<g id="a_node5"><a xlink:href="Ioex__BaseDatabaseIO_8C.html" target="_top" xlink:title=" ">
<polygon fill="white" stroke="black" points="824.85,-70.5 824.85,-88.5 1002.6,-88.5 1002.6,-70.5 824.85,-70.5"/>
<text text-anchor="middle" x="913.73" y="-76.5" font-family="Helvetica,sans-Serif" font-size="10.00">src/exodus/Ioex_BaseDatabaseIO.C</text>
</a>
</g>
</g>
<!-- Node1&#45;&gt;Node5 -->
<g id="edge4" class="edge">
<title>Node1&#45;&gt;Node5</title>
<path fill="none" stroke="midnightblue" d="M1152.4,-182.6C1124.26,-174.4 1085.68,-162.31 1052.73,-149 1006.08,-130.16 953.41,-102.29 928.41,-88.64"/>
<polygon fill="midnightblue" stroke="midnightblue" points="1151.68,-186.04 1162.26,-185.44 1153.62,-179.31 1151.68,-186.04"/>
</g>
<!-- Node6 -->
<g id="node6" class="node">
<title>Node6</title>
<g id="a_node6"><a xlink:href="Ioex__DatabaseIO_8C.html" target="_top" xlink:title=" ">
<polygon fill="white" stroke="black" points="1020.25,-70.5 1020.25,-88.5 1175.21,-88.5 1175.21,-70.5 1020.25,-70.5"/>
<text text-anchor="middle" x="1097.73" y="-76.5" font-family="Helvetica,sans-Serif" font-size="10.00">src/exodus/Ioex_DatabaseIO.C</text>
</a>
</g>
</g>
<!-- Node1&#45;&gt;Node6 -->
<g id="edge5" class="edge">
<title>Node1&#45;&gt;Node6</title>
<path fill="none" stroke="midnightblue" d="M1129.43,-187.75C1104.14,-182 1077.28,-170.76 1061.73,-149 1047.2,-128.67 1072.79,-101.72 1087.86,-88.5"/>
<polygon fill="midnightblue" stroke="midnightblue" points="1128.89,-191.21 1139.38,-189.77 1130.28,-184.35 1128.89,-191.21"/>
</g>
<!-- Node7 -->
<g id="node7" class="node">
<title>Node7</title>
<g id="a_node7"><a xlink:href="Ioex__ParallelDatabaseIO_8C.html" target="_top" xlink:title=" ">
<polygon fill="white" stroke="black" points="1475.25,-65.5 1475.25,-93.5 1600.2,-93.5 1600.2,-65.5 1475.25,-65.5"/>
<text text-anchor="start" x="1483.25" y="-81.5" font-family="Helvetica,sans-Serif" font-size="10.00">src/exodus/Ioex_Parallel</text>
<text text-anchor="middle" x="1537.73" y="-71.5" font-family="Helvetica,sans-Serif" font-size="10.00">DatabaseIO.C</text>
</a>
</g>
</g>
<!-- Node1&#45;&gt;Node7 -->
<g id="edge6" class="edge">
<title>Node1&#45;&gt;Node7</title>
<path fill="none" stroke="midnightblue" d="M1226.56,-182.24C1251.65,-173.83 1286.15,-161.65 1315.73,-149 1333.09,-141.58 1336.08,-136.71 1353.73,-130 1393.93,-114.72 1440.75,-102.2 1477.1,-93.57"/>
<polygon fill="midnightblue" stroke="midnightblue" points="1225.15,-179.02 1216.77,-185.49 1227.36,-185.66 1225.15,-179.02"/>
</g>
<!-- Node8 -->
<g id="node8" class="node">
<title>Node8</title>
<g id="a_node8"><a xlink:href="Ioss__EdgeSet_8C.html" target="_top" xlink:title=" ">
<polygon fill="white" stroke="black" points="327.54,-70.5 327.54,-88.5 431.91,-88.5 431.91,-70.5 327.54,-70.5"/>
<text text-anchor="middle" x="379.73" y="-76.5" font-family="Helvetica,sans-Serif" font-size="10.00">src/Ioss_EdgeSet.C</text>
</a>
</g>
</g>
<!-- Node1&#45;&gt;Node8 -->
<g id="edge7" class="edge">
<title>Node1&#45;&gt;Node8</title>
<path fill="none" stroke="midnightblue" d="M1129.26,-190.06C1061.97,-185.21 952.24,-173.99 860.73,-149 839.78,-143.28 836.77,-135.32 815.73,-130 653.4,-88.96 606.11,-120.14 440.73,-94 431.51,-92.54 421.61,-90.54 412.51,-88.53"/>
<polygon fill="midnightblue" stroke="midnightblue" points="1129.06,-193.55 1139.28,-190.76 1129.54,-186.57 1129.06,-193.55"/>
</g>
<!-- Node9 -->
<g id="node9" class="node">
<title>Node9</title>
<g id="a_node9"><a xlink:href="Ioss__EdgeSet_8h.html" target="_top" xlink:title=" ">
<polygon fill="white" stroke="black" points="1204.37,-130.5 1204.37,-148.5 1307.08,-148.5 1307.08,-130.5 1204.37,-130.5"/>
<text text-anchor="middle" x="1255.73" y="-136.5" font-family="Helvetica,sans-Serif" font-size="10.00">src/Ioss_EdgeSet.h</text>
</a>
</g>
</g>
<!-- Node1&#45;&gt;Node9 -->
<g id="edge8" class="edge">
<title>Node1&#45;&gt;Node9</title>
<path fill="none" stroke="midnightblue" d="M1209.33,-178.93C1221.12,-169.16 1236.2,-156.67 1245.91,-148.63"/>
<polygon fill="midnightblue" stroke="midnightblue" points="1206.92,-176.38 1201.45,-185.45 1211.38,-181.77 1206.92,-176.38"/>
</g>
<!-- Node15 -->
<g id="node15" class="node">
<title>Node15</title>
<g id="a_node15"><a xlink:href="Ioss__SubSystem_8h.html" target="_top" xlink:title=" ">
<polygon fill="white" stroke="black" points="449.99,-70.5 449.99,-88.5 565.47,-88.5 565.47,-70.5 449.99,-70.5"/>
<text text-anchor="middle" x="507.73" y="-76.5" font-family="Helvetica,sans-Serif" font-size="10.00">src/Ioss_SubSystem.h</text>
</a>
</g>
</g>
<!-- Node1&#45;&gt;Node15 -->
<g id="edge82" class="edge">
<title>Node1&#45;&gt;Node15</title>
<path fill="none" stroke="midnightblue" d="M1143.24,-183.41C1078.87,-170.19 961.55,-146.73 860.73,-130 832.3,-125.28 658.39,-101.23 565.73,-88.47"/>
<polygon fill="midnightblue" stroke="midnightblue" points="1142.61,-186.85 1153.11,-185.44 1144.02,-179.99 1142.61,-186.85"/>
</g>
<!-- Node27 -->
<g id="node27" class="node">
<title>Node27</title>
<g id="a_node27"><a xlink:href="Ioss__ElementSet_8C.html" target="_top" xlink:title=" ">
<polygon fill="white" stroke="black" points="36.87,-70.5 36.87,-88.5 154.58,-88.5 154.58,-70.5 36.87,-70.5"/>
<text text-anchor="middle" x="95.73" y="-76.5" font-family="Helvetica,sans-Serif" font-size="10.00">src/Ioss_ElementSet.C</text>
</a>
</g>
</g>
<!-- Node1&#45;&gt;Node27 -->
<g id="edge32" class="edge">
<title>Node1&#45;&gt;Node27</title>
<path fill="none" stroke="midnightblue" d="M1129.12,-189.96C968.18,-180.32 527.16,-150.46 163.73,-94 153.86,-92.47 143.24,-90.51 133.39,-88.56"/>
<polygon fill="midnightblue" stroke="midnightblue" points="1129.12,-193.47 1139.31,-190.57 1129.53,-186.48 1129.12,-193.47"/>
</g>
<!-- Node28 -->
<g id="node28" class="node">
<title>Node28</title>
<g id="a_node28"><a xlink:href="Ioss__ElementSet_8h.html" target="_top" xlink:title=" ">
<polygon fill="white" stroke="black" points="1070.7,-130.5 1070.7,-148.5 1186.75,-148.5 1186.75,-130.5 1070.7,-130.5"/>
<text text-anchor="middle" x="1128.73" y="-136.5" font-family="Helvetica,sans-Serif" font-size="10.00">src/Ioss_ElementSet.h</text>
</a>
</g>
</g>
<!-- Node1&#45;&gt;Node28 -->
<g id="edge33" class="edge">
<title>Node1&#45;&gt;Node28</title>
<path fill="none" stroke="midnightblue" d="M1174.4,-178.93C1162.8,-169.16 1147.95,-156.67 1138.38,-148.63"/>
<polygon fill="midnightblue" stroke="midnightblue" points="1172.25,-181.69 1182.16,-185.45 1176.76,-176.33 1172.25,-181.69"/>
</g>
<!-- Node29 -->
<g id="node29" class="node">
<title>Node29</title>
<g id="a_node29"><a xlink:href="Ioss__EntitySet_8C.html" target="_top" xlink:title=" ">
<polygon fill="white" stroke="black" points="1362.71,-130.5 1362.71,-148.5 1468.74,-148.5 1468.74,-130.5 1362.71,-130.5"/>
<text text-anchor="middle" x="1415.73" y="-136.5" font-family="Helvetica,sans-Serif" font-size="10.00">src/Ioss_EntitySet.C</text>
</a>
</g>
</g>
<!-- Node1&#45;&gt;Node29 -->
<g id="edge47" class="edge">
<title>Node1&#45;&gt;Node29</title>
<path fill="none" stroke="midnightblue" d="M1235.61,-183.12C1278.43,-172.98 1342.68,-157.78 1381.75,-148.54"/>
<polygon fill="midnightblue" stroke="midnightblue" points="1234.67,-179.74 1225.75,-185.45 1236.28,-186.55 1234.67,-179.74"/>
</g>
<!-- Node30 -->
<g id="node30" class="node">
<title>Node30</title>
<g id="a_node30"><a xlink:href="Ioss__FaceSet_8C.html" target="_top" xlink:title=" ">
<polygon fill="white" stroke="black" points="2221.1,-70.5 2221.1,-88.5 2324.35,-88.5 2324.35,-70.5 2221.1,-70.5"/>
<text text-anchor="middle" x="2272.73" y="-76.5" font-family="Helvetica,sans-Serif" font-size="10.00">src/Ioss_FaceSet.C</text>
</a>
</g>
</g>
<!-- Node1&#45;&gt;Node30 -->
<g id="edge48" class="edge">
<title>Node1&#45;&gt;Node30</title>
<path fill="none" stroke="midnightblue" d="M1254.17,-190.1C1362.8,-183.9 1593.55,-169.48 1787.73,-149 1967.5,-130.04 2011.97,-120.91 2190.73,-94 2202,-92.3 2214.12,-90.37 2225.5,-88.5"/>
<polygon fill="midnightblue" stroke="midnightblue" points="1253.83,-186.61 1244.04,-190.67 1254.22,-193.6 1253.83,-186.61"/>
</g>
<!-- Node31 -->
<g id="node31" class="node">
<title>Node31</title>
<g id="a_node31"><a xlink:href="Ioss__FaceSet_8h.html" target="_top" xlink:title=" ">
<polygon fill="white" stroke="black" points="1486.93,-130.5 1486.93,-148.5 1588.52,-148.5 1588.52,-130.5 1486.93,-130.5"/>
<text text-anchor="middle" x="1537.73" y="-136.5" font-family="Helvetica,sans-Serif" font-size="10.00">src/Ioss_FaceSet.h</text>
</a>
</g>
</g>
<!-- Node1&#45;&gt;Node31 -->
<g id="edge49" class="edge">
<title>Node1&#45;&gt;Node31</title>
<path fill="none" stroke="midnightblue" d="M1254.22,-183.93C1320.77,-173.73 1424.84,-157.79 1486.66,-148.32"/>
<polygon fill="midnightblue" stroke="midnightblue" points="1253.63,-180.48 1244.28,-185.45 1254.69,-187.4 1253.63,-180.48"/>
</g>
<!-- Node32 -->
<g id="node32" class="node">
<title>Node32</title>
<g id="a_node32"><a xlink:href="Ioss__NodeSet_8C.html" target="_top" xlink:title=" ">
<polygon fill="white" stroke="black" points="2857.26,-70.5 2857.26,-88.5 2962.19,-88.5 2962.19,-70.5 2857.26,-70.5"/>
<text text-anchor="middle" x="2909.73" y="-76.5" font-family="Helvetica,sans-Serif" font-size="10.00">src/Ioss_NodeSet.C</text>
</a>
</g>
</g>
<!-- Node1&#45;&gt;Node32 -->
<g id="edge63" class="edge">
<title>Node1&#45;&gt;Node32</title>
<path fill="none" stroke="midnightblue" d="M1253.95,-193.29C1473.35,-191.81 2230.97,-180.35 2848.73,-94 2858.29,-92.66 2868.57,-90.62 2877.92,-88.53"/>
<polygon fill="midnightblue" stroke="midnightblue" points="1253.89,-189.79 1243.91,-193.36 1253.93,-196.79 1253.89,-189.79"/>
</g>
<!-- Node33 -->
<g id="node33" class="node">
<title>Node33</title>
<g id="a_node33"><a xlink:href="Ioss__NodeSet_8h.html" target="_top" xlink:title=" ">
<polygon fill="white" stroke="black" points="1675.09,-130.5 1675.09,-148.5 1778.36,-148.5 1778.36,-130.5 1675.09,-130.5"/>
<text text-anchor="middle" x="1726.73" y="-136.5" font-family="Helvetica,sans-Serif" font-size="10.00">src/Ioss_NodeSet.h</text>
</a>
</g>
</g>
<!-- Node1&#45;&gt;Node33 -->
<g id="edge64" class="edge">
<title>Node1&#45;&gt;Node33</title>
<path fill="none" stroke="midnightblue" d="M1253.97,-187.33C1360.57,-176.77 1576.14,-155.42 1675.03,-145.62"/>
<polygon fill="midnightblue" stroke="midnightblue" points="1253.6,-183.85 1244,-188.32 1254.3,-190.82 1253.6,-183.85"/>
</g>
<!-- Node3 -->
<g id="node3" class="node">
<title>Node3</title>
<g id="a_node3"><a xlink:href="Ioad__DatabaseIO_8C.html" target="_top" xlink:title=" ">
<polygon fill="white" stroke="black" points="660.14,-70.5 660.14,-88.5 807.32,-88.5 807.32,-70.5 660.14,-70.5"/>
<text text-anchor="middle" x="733.73" y="-76.5" font-family="Helvetica,sans-Serif" font-size="10.00">src/adios/Ioad_DatabaseIO.C</text>
</a>
</g>
</g>
<!-- Node2&#45;&gt;Node3 -->
<g id="edge2" class="edge">
<title>Node2&#45;&gt;Node3</title>
<path fill="none" stroke="midnightblue" d="M733.73,-120.21C733.73,-109.71 733.73,-97.03 733.73,-88.87"/>
<polygon fill="midnightblue" stroke="midnightblue" points="730.23,-120.44 733.73,-130.44 737.23,-120.44 730.23,-120.44"/>
</g>
<!-- Node4 -->
<g id="node4" class="node">
<title>Node4</title>
<g id="a_node4"><a xlink:href="Ioad__IOFactory_8C.html" target="_top" xlink:title=" ">
<polygon fill="white" stroke="black" points="172.24,-70.5 172.24,-88.5 309.21,-88.5 309.21,-70.5 172.24,-70.5"/>
<text text-anchor="middle" x="240.73" y="-76.5" font-family="Helvetica,sans-Serif" font-size="10.00">src/adios/Ioad_IOFactory.C</text>
</a>
</g>
</g>
<!-- Node2&#45;&gt;Node4 -->
<g id="edge3" class="edge">
<title>Node2&#45;&gt;Node4</title>
<path fill="none" stroke="midnightblue" d="M650.85,-131.2C566.94,-123.44 433.54,-110.07 318.73,-94 307.57,-92.44 295.55,-90.49 284.38,-88.57"/>
<polygon fill="midnightblue" stroke="midnightblue" points="650.55,-134.69 660.83,-132.12 651.2,-127.72 650.55,-134.69"/>
</g>
<!-- Node9&#45;&gt;Node3 -->
<g id="edge9" class="edge">
<title>Node9&#45;&gt;Node3</title>
<path fill="none" stroke="midnightblue" d="M1194.39,-129.89C1025.56,-110.3 980.76,-115.38 815.73,-94 803.85,-92.46 791.06,-90.5 779.19,-88.56"/>
<polygon fill="midnightblue" stroke="midnightblue" points="1194.02,-133.38 1204.36,-131.06 1194.84,-126.42 1194.02,-133.38"/>
</g>
<!-- Node9&#45;&gt;Node5 -->
<g id="edge13" class="edge">
<title>Node9&#45;&gt;Node5</title>
<path fill="none" stroke="midnightblue" d="M1198.62,-128.81C1131.99,-117.52 1023.07,-99.04 960.99,-88.51"/>
<polygon fill="midnightblue" stroke="midnightblue" points="1198.09,-132.27 1208.53,-130.5 1199.26,-125.37 1198.09,-132.27"/>
</g>
<!-- Node9&#45;&gt;Node6 -->
<g id="edge14" class="edge">
<title>Node9&#45;&gt;Node6</title>
<path fill="none" stroke="midnightblue" d="M1224.31,-126.97C1193.38,-115.61 1146.96,-98.57 1119.76,-88.59"/>
<polygon fill="midnightblue" stroke="midnightblue" points="1223.16,-130.27 1233.76,-130.44 1225.58,-123.7 1223.16,-130.27"/>
</g>
<!-- Node9&#45;&gt;Node7 -->
<g id="edge16" class="edge">
<title>Node9&#45;&gt;Node7</title>
<path fill="none" stroke="midnightblue" d="M1304.63,-128.44C1351.9,-118.72 1423.72,-103.95 1475.14,-93.37"/>
<polygon fill="midnightblue" stroke="midnightblue" points="1303.73,-125.05 1294.64,-130.5 1305.14,-131.91 1303.73,-125.05"/>
</g>
<!-- Node9&#45;&gt;Node8 -->
<g id="edge17" class="edge">
<title>Node9&#45;&gt;Node8</title>
<path fill="none" stroke="midnightblue" d="M1194.08,-129.94C859.55,-99.18 770.46,-138.02 440.73,-94 431.05,-92.71 420.64,-90.66 411.2,-88.54"/>
<polygon fill="midnightblue" stroke="midnightblue" points="1193.77,-133.42 1204.05,-130.87 1194.42,-126.45 1193.77,-133.42"/>
</g>
<!-- Node10 -->
<g id="node10" class="node">
<title>Node10</title>
<g id="a_node10"><a xlink:href="Ut__ioad_8C.html" target="_top" xlink:title=" ">
<polygon fill="white" stroke="black" points="942.1,-0.5 942.1,-28.5 1035.35,-28.5 1035.35,-0.5 942.1,-0.5"/>
<text text-anchor="start" x="950.1" y="-16.5" font-family="Helvetica,sans-Serif" font-size="10.00">src/adios/utest/Ut</text>
<text text-anchor="middle" x="988.73" y="-6.5" font-family="Helvetica,sans-Serif" font-size="10.00">_ioad.C</text>
</a>
</g>
</g>
<!-- Node9&#45;&gt;Node10 -->
<g id="edge10" class="edge">
<title>Node9&#45;&gt;Node10</title>
<path fill="none" stroke="midnightblue" d="M1194.04,-130.16C1100.52,-124.81 690.54,-136.53 650.73,-94 641.92,-84.59 642.21,-74.67 650.73,-65 692.47,-17.58 870.59,-40.42 932.73,-29 935.78,-28.44 938.91,-27.82 942.06,-27.16"/>
<polygon fill="midnightblue" stroke="midnightblue" points="1193.81,-133.66 1204.05,-130.93 1194.34,-126.68 1193.81,-133.66"/>
</g>
<!-- Node11 -->
<g id="node11" class="node">
<title>Node11</title>
<g id="a_node11"><a xlink:href="Iocgns__DatabaseIO_8C.html" target="_top" xlink:title=" ">
<polygon fill="white" stroke="black" points="1860.53,-70.5 1860.53,-88.5 2014.93,-88.5 2014.93,-70.5 1860.53,-70.5"/>
<text text-anchor="middle" x="1937.73" y="-76.5" font-family="Helvetica,sans-Serif" font-size="10.00">src/cgns/Iocgns_DatabaseIO.C</text>
</a>
</g>
</g>
<!-- Node9&#45;&gt;Node11 -->
<g id="edge11" class="edge">
<title>Node9&#45;&gt;Node11</title>
<path fill="none" stroke="midnightblue" d="M1317.12,-133.04C1329.25,-132 1341.89,-130.94 1353.73,-130 1574.5,-112.43 1630.67,-119 1850.73,-94 1863.64,-92.53 1877.56,-90.55 1890.41,-88.56"/>
<polygon fill="midnightblue" stroke="midnightblue" points="1316.75,-129.56 1307.09,-133.91 1317.35,-136.53 1316.75,-129.56"/>
</g>
<!-- Node12 -->
<g id="node12" class="node">
<title>Node12</title>
<g id="a_node12"><a xlink:href="Iodw__Utils_8C.html" target="_top" xlink:title=" ">
<polygon fill="white" stroke="black" points="1193.7,-65.5 1193.7,-93.5 1299.75,-93.5 1299.75,-65.5 1193.7,-65.5"/>
<text text-anchor="start" x="1201.7" y="-81.5" font-family="Helvetica,sans-Serif" font-size="10.00">src/data_warehouse</text>
<text text-anchor="middle" x="1246.73" y="-71.5" font-family="Helvetica,sans-Serif" font-size="10.00">/Iodw_Utils.C</text>
</a>
</g>
</g>
<!-- Node9&#45;&gt;Node12 -->
<g id="edge12" class="edge">
<title>Node9&#45;&gt;Node12</title>
<path fill="none" stroke="midnightblue" d="M1252.91,-120.32C1251.58,-111.75 1250.02,-101.7 1248.8,-93.84"/>
<polygon fill="midnightblue" stroke="midnightblue" points="1249.48,-121.09 1254.48,-130.44 1256.4,-120.02 1249.48,-121.09"/>
</g>
<!-- Node13 -->
<g id="node13" class="node">
<title>Node13</title>
<g id="a_node13"><a xlink:href="Ioex__Internals_8C.html" target="_top" xlink:title=" ">
<polygon fill="white" stroke="black" points="1317.75,-70.5 1317.75,-88.5 1457.7,-88.5 1457.7,-70.5 1317.75,-70.5"/>
<text text-anchor="middle" x="1387.73" y="-76.5" font-family="Helvetica,sans-Serif" font-size="10.00">src/exodus/Ioex_Internals.C</text>
</a>
</g>
</g>
<!-- Node9&#45;&gt;Node13 -->
<g id="edge15" class="edge">
<title>Node9&#45;&gt;Node13</title>
<path fill="none" stroke="midnightblue" d="M1283.3,-126.38C1309.04,-115.07 1346.74,-98.51 1369.1,-88.68"/>
<polygon fill="midnightblue" stroke="midnightblue" points="1281.83,-123.21 1274.08,-130.44 1284.64,-129.62 1281.83,-123.21"/>
</g>
<!-- Node14 -->
<g id="node14" class="node">
<title>Node14</title>
<g id="a_node14"><a xlink:href="Ioss__Region_8C.html" target="_top" xlink:title=" ">
<polygon fill="white" stroke="black" points="1617.88,-70.5 1617.88,-88.5 1715.58,-88.5 1715.58,-70.5 1617.88,-70.5"/>
<text text-anchor="middle" x="1666.73" y="-76.5" font-family="Helvetica,sans-Serif" font-size="10.00">src/Ioss_Region.C</text>
</a>
</g>
</g>
<!-- Node9&#45;&gt;Node14 -->
<g id="edge18" class="edge">
<title>Node9&#45;&gt;Node14</title>
<path fill="none" stroke="midnightblue" d="M1317.19,-132.7C1387.85,-125.58 1507.16,-112.17 1608.73,-94 1617.28,-92.47 1626.46,-90.49 1634.94,-88.52"/>
<polygon fill="midnightblue" stroke="midnightblue" points="1316.73,-129.22 1307.13,-133.7 1317.43,-136.19 1316.73,-129.22"/>
</g>
<!-- Node9&#45;&gt;Node15 -->
<g id="edge19" class="edge">
<title>Node9&#45;&gt;Node15</title>
<path fill="none" stroke="midnightblue" d="M1194.07,-129.91C937.97,-104.27 870.77,-117.39 617.73,-94 600.77,-92.43 582.39,-90.34 565.6,-88.26"/>
<polygon fill="midnightblue" stroke="midnightblue" points="1193.75,-133.39 1204.05,-130.92 1194.45,-126.43 1193.75,-133.39"/>
</g>
<!-- Node23 -->
<g id="node23" class="node">
<title>Node23</title>
<g id="a_node23"><a xlink:href="io__info_8h.html" target="_top" xlink:title=" ">
<polygon fill="white" stroke="black" points="2070.54,-70.5 2070.54,-88.5 2164.91,-88.5 2164.91,-70.5 2070.54,-70.5"/>
<text text-anchor="middle" x="2117.73" y="-76.5" font-family="Helvetica,sans-Serif" font-size="10.00">src/main/io_info.h</text>
</a>
</g>
</g>
<!-- Node9&#45;&gt;Node23 -->
<g id="edge28" class="edge">
<title>Node9&#45;&gt;Node23</title>
<path fill="none" stroke="midnightblue" d="M1317.32,-132.85C1329.38,-131.83 1341.95,-130.83 1353.73,-130 1651.2,-109.11 1726.95,-123.23 2023.73,-94 2038.99,-92.5 2055.56,-90.3 2070.49,-88.12"/>
<polygon fill="midnightblue" stroke="midnightblue" points="1316.99,-129.36 1307.33,-133.7 1317.59,-136.34 1316.99,-129.36"/>
</g>
<!-- Node26 -->
<g id="node26" class="node">
<title>Node26</title>
<g id="a_node26"><a xlink:href="io__modify_8C.html" target="_top" xlink:title=" ">
<polygon fill="white" stroke="black" points="1733.42,-70.5 1733.42,-88.5 1842.04,-88.5 1842.04,-70.5 1733.42,-70.5"/>
<text text-anchor="middle" x="1787.73" y="-76.5" font-family="Helvetica,sans-Serif" font-size="10.00">src/main/io_modify.C</text>
</a>
</g>
</g>
<!-- Node9&#45;&gt;Node26 -->
<g id="edge31" class="edge">
<title>Node9&#45;&gt;Node26</title>
<path fill="none" stroke="midnightblue" d="M1317.42,-133.05C1435.54,-122.56 1685.45,-100.05 1724.73,-94 1734.23,-92.54 1744.46,-90.53 1753.86,-88.52"/>
<polygon fill="midnightblue" stroke="midnightblue" points="1317.08,-129.57 1307.43,-133.94 1317.7,-136.54 1317.08,-129.57"/>
</g>
<!-- Node15&#45;&gt;Node10 -->
<g id="edge20" class="edge">
<title>Node15&#45;&gt;Node10</title>
<path fill="none" stroke="midnightblue" d="M557.31,-68.64C564.8,-67.31 572.46,-66.05 579.73,-65 735.81,-42.45 777.27,-55.54 932.73,-29 935.78,-28.48 938.92,-27.88 942.07,-27.24"/>
<polygon fill="midnightblue" stroke="midnightblue" points="556.45,-65.24 547.24,-70.48 557.7,-72.13 556.45,-65.24"/>
</g>
<!-- Node16 -->
<g id="node16" class="node">
<title>Node16</title>
<g id="a_node16"><a xlink:href="Iodw__DatabaseIO_8C.html" target="_top" xlink:title=" ">
<polygon fill="white" stroke="black" points="815.31,-0.5 815.31,-28.5 924.14,-28.5 924.14,-0.5 815.31,-0.5"/>
<text text-anchor="start" x="823.31" y="-16.5" font-family="Helvetica,sans-Serif" font-size="10.00">src/data_warehouse</text>
<text text-anchor="middle" x="869.73" y="-6.5" font-family="Helvetica,sans-Serif" font-size="10.00">/Iodw_DatabaseIO.C</text>
</a>
</g>
</g>
<!-- Node15&#45;&gt;Node16 -->
<g id="edge21" class="edge">
<title>Node15&#45;&gt;Node16</title>
<path fill="none" stroke="midnightblue" d="M559.45,-68.62C566.26,-67.37 573.16,-66.14 579.73,-65 680.38,-47.59 706.3,-47.71 806.73,-29 809.48,-28.49 812.29,-27.95 815.13,-27.39"/>
<polygon fill="midnightblue" stroke="midnightblue" points="558.77,-65.19 549.57,-70.45 560.04,-72.07 558.77,-65.19"/>
</g>
<!-- Node17 -->
<g id="node17" class="node">
<title>Node17</title>
<g id="a_node17"><a xlink:href="Ioss__Utils_8C.html" target="_top" xlink:title=" ">
<polygon fill="white" stroke="black" points="0,-5.5 0,-23.5 85.45,-23.5 85.45,-5.5 0,-5.5"/>
<text text-anchor="middle" x="42.73" y="-11.5" font-family="Helvetica,sans-Serif" font-size="10.00">src/Ioss_Utils.C</text>
</a>
</g>
</g>
<!-- Node15&#45;&gt;Node17 -->
<g id="edge22" class="edge">
<title>Node15&#45;&gt;Node17</title>
<path fill="none" stroke="midnightblue" d="M461.13,-68.52C454.3,-67.23 447.35,-66.01 440.73,-65 287.88,-41.7 246.87,-56.5 94.73,-29 86.83,-27.57 78.37,-25.58 70.62,-23.57"/>
<polygon fill="midnightblue" stroke="midnightblue" points="460.49,-71.96 470.98,-70.44 461.83,-65.09 460.49,-71.96"/>
</g>
<!-- Node18 -->
<g id="node18" class="node">
<title>Node18</title>
<g id="a_node18"><a xlink:href="io__shell_8C.html" target="_top" xlink:title=" ">
<polygon fill="white" stroke="black" points="103.49,-5.5 103.49,-23.5 203.96,-23.5 203.96,-5.5 103.49,-5.5"/>
<text text-anchor="middle" x="153.73" y="-11.5" font-family="Helvetica,sans-Serif" font-size="10.00">src/main/io_shell.C</text>
</a>
</g>
</g>
<!-- Node15&#45;&gt;Node18 -->
<g id="edge23" class="edge">
<title>Node15&#45;&gt;Node18</title>
<path fill="none" stroke="midnightblue" d="M458.96,-68.42C452.83,-67.23 446.64,-66.06 440.73,-65 339.75,-46.86 313.45,-48.45 212.73,-29 204.37,-27.39 195.39,-25.44 187.03,-23.54"/>
<polygon fill="midnightblue" stroke="midnightblue" points="458.67,-71.93 469.16,-70.44 460.03,-65.07 458.67,-71.93"/>
</g>
<!-- Node19 -->
<g id="node19" class="node">
<title>Node19</title>
<g id="a_node19"><a xlink:href="io__shell__ts_8C.html" target="_top" xlink:title=" ">
<polygon fill="white" stroke="black" points="221.82,-5.5 221.82,-23.5 335.63,-23.5 335.63,-5.5 221.82,-5.5"/>
<text text-anchor="middle" x="278.73" y="-11.5" font-family="Helvetica,sans-Serif" font-size="10.00">src/main/io_shell_ts.C</text>
</a>
</g>
</g>
<!-- Node15&#45;&gt;Node19 -->
<g id="edge24" class="edge">
<title>Node15&#45;&gt;Node19</title>
<path fill="none" stroke="midnightblue" d="M468.44,-67.69C422.9,-55.16 348.9,-34.81 308.08,-23.58"/>
<polygon fill="midnightblue" stroke="midnightblue" points="467.69,-71.11 478.26,-70.39 469.54,-64.37 467.69,-71.11"/>
</g>
<!-- Node20 -->
<g id="node20" class="node">
<title>Node20</title>
<g id="a_node20"><a xlink:href="struc__to__unstruc_8C.html" target="_top" xlink:title=" ">
<polygon fill="white" stroke="black" points="353.48,-5.5 353.48,-23.5 493.97,-23.5 493.97,-5.5 353.48,-5.5"/>
<text text-anchor="middle" x="423.73" y="-11.5" font-family="Helvetica,sans-Serif" font-size="10.00">src/main/struc_to_unstruc.C</text>
</a>
</g>
</g>
<!-- Node15&#45;&gt;Node20 -->
<g id="edge25" class="edge">
<title>Node15&#45;&gt;Node20</title>
<path fill="none" stroke="midnightblue" d="M488.71,-64.24C471.94,-51.66 448.1,-33.78 434.45,-23.54"/>
<polygon fill="midnightblue" stroke="midnightblue" points="486.64,-67.06 496.75,-70.26 490.85,-61.46 486.64,-67.06"/>
</g>
<!-- Node21 -->
<g id="node21" class="node">
<title>Node21</title>
<g id="a_node21"><a xlink:href="Iopg__DatabaseIO_8C.html" target="_top" xlink:title=" ">
<polygon fill="white" stroke="black" points="512.02,-5.5 512.02,-23.5 671.43,-23.5 671.43,-5.5 512.02,-5.5"/>
<text text-anchor="middle" x="591.73" y="-11.5" font-family="Helvetica,sans-Serif" font-size="10.00">src/pamgen/Iopg_DatabaseIO.C</text>
</a>
</g>
</g>
<!-- Node15&#45;&gt;Node21 -->
<g id="edge26" class="edge">
<title>Node15&#45;&gt;Node21</title>
<path fill="none" stroke="midnightblue" d="M526.74,-64.24C543.52,-51.66 567.35,-33.78 581.01,-23.54"/>
<polygon fill="midnightblue" stroke="midnightblue" points="524.61,-61.46 518.71,-70.26 528.81,-67.06 524.61,-61.46"/>
</g>
<!-- Node22 -->
<g id="node22" class="node">
<title>Node22</title>
<g id="a_node22"><a xlink:href="Iovs__DatabaseIO_8C.html" target="_top" xlink:title=" ">
<polygon fill="white" stroke="black" points="689.88,-0.5 689.88,-28.5 797.58,-28.5 797.58,-0.5 689.88,-0.5"/>
<text text-anchor="start" x="697.88" y="-16.5" font-family="Helvetica,sans-Serif" font-size="10.00">src/visualization/Iovs</text>
<text text-anchor="middle" x="743.73" y="-6.5" font-family="Helvetica,sans-Serif" font-size="10.00">_DatabaseIO.C</text>
</a>
</g>
</g>
<!-- Node15&#45;&gt;Node22 -->
<g id="edge27" class="edge">
<title>Node15&#45;&gt;Node22</title>
<path fill="none" stroke="midnightblue" d="M547.93,-67.77C588.61,-56.91 651.54,-40.11 695.03,-28.5"/>
<polygon fill="midnightblue" stroke="midnightblue" points="546.86,-64.43 538.1,-70.39 548.66,-71.2 546.86,-64.43"/>
</g>
<!-- Node24 -->
<g id="node24" class="node">
<title>Node24</title>
<g id="a_node24"><a xlink:href="io__info_8C.html" target="_top" xlink:title=" ">
<polygon fill="white" stroke="black" points="2005.71,-5.5 2005.71,-23.5 2101.74,-23.5 2101.74,-5.5 2005.71,-5.5"/>
<text text-anchor="middle" x="2053.73" y="-11.5" font-family="Helvetica,sans-Serif" font-size="10.00">src/main/io_info.C</text>
</a>
</g>
</g>
<!-- Node23&#45;&gt;Node24 -->
<g id="edge29" class="edge">
<title>Node23&#45;&gt;Node24</title>
<path fill="none" stroke="midnightblue" d="M2102.17,-63.19C2089.47,-50.68 2072.01,-33.5 2061.89,-23.54"/>
<polygon fill="midnightblue" stroke="midnightblue" points="2099.78,-65.74 2109.36,-70.26 2104.69,-60.75 2099.78,-65.74"/>
</g>
<!-- Node25 -->
<g id="node25" class="node">
<title>Node25</title>
<g id="a_node25"><a xlink:href="io__info__main_8C.html" target="_top" xlink:title=" ">
<polygon fill="white" stroke="black" points="2120.09,-5.5 2120.09,-23.5 2243.36,-23.5 2243.36,-5.5 2120.09,-5.5"/>
<text text-anchor="middle" x="2181.73" y="-11.5" font-family="Helvetica,sans-Serif" font-size="10.00">src/main/io_info_main.C</text>
</a>
</g>
</g>
<!-- Node23&#45;&gt;Node25 -->
<g id="edge30" class="edge">
<title>Node23&#45;&gt;Node25</title>
<path fill="none" stroke="midnightblue" d="M2133.28,-63.19C2145.99,-50.68 2163.44,-33.5 2173.56,-23.54"/>
<polygon fill="midnightblue" stroke="midnightblue" points="2130.76,-60.75 2126.09,-70.26 2135.68,-65.74 2130.76,-60.75"/>
</g>
<!-- Node28&#45;&gt;Node3 -->
<g id="edge34" class="edge">
<title>Node28&#45;&gt;Node3</title>
<path fill="none" stroke="midnightblue" d="M1060.42,-129.23C996.97,-120.51 899.88,-106.91 815.73,-94 804.6,-92.29 792.65,-90.37 781.39,-88.53"/>
<polygon fill="midnightblue" stroke="midnightblue" points="1060.31,-132.75 1070.69,-130.64 1061.26,-125.81 1060.31,-132.75"/>
</g>
<!-- Node28&#45;&gt;Node5 -->
<g id="edge38" class="edge">
<title>Node28&#45;&gt;Node5</title>
<path fill="none" stroke="midnightblue" d="M1088.94,-127.77C1046.91,-116.43 981.6,-98.81 943.71,-88.59"/>
<polygon fill="midnightblue" stroke="midnightblue" points="1088.27,-131.21 1098.83,-130.44 1090.09,-124.45 1088.27,-131.21"/>
</g>
<!-- Node28&#45;&gt;Node6 -->
<g id="edge39" class="edge">
<title>Node28&#45;&gt;Node6</title>
<path fill="none" stroke="midnightblue" d="M1119.66,-121.54C1113.92,-110.8 1106.75,-97.38 1102.2,-88.87"/>
<polygon fill="midnightblue" stroke="midnightblue" points="1116.62,-123.27 1124.42,-130.44 1122.79,-119.97 1116.62,-123.27"/>
</g>
<!-- Node28&#45;&gt;Node7 -->
<g id="edge41" class="edge">
<title>Node28&#45;&gt;Node7</title>
<path fill="none" stroke="midnightblue" d="M1196.75,-129.76C1287.76,-118.02 1440.75,-98.18 1466.73,-94 1469.45,-93.56 1472.23,-93.1 1475.04,-92.62"/>
<polygon fill="midnightblue" stroke="midnightblue" points="1196.26,-126.29 1186.79,-131.04 1197.15,-133.23 1196.26,-126.29"/>
</g>
<!-- Node28&#45;&gt;Node10 -->
<g id="edge35" class="edge">
<title>Node28&#45;&gt;Node10</title>
<path fill="none" stroke="midnightblue" d="M1060.4,-134.98C924.59,-127.65 632.48,-110.09 617.73,-94 609.02,-84.5 609.15,-74.62 617.73,-65 664.63,-12.43 863.35,-41.28 932.73,-29 935.78,-28.46 938.91,-27.85 942.07,-27.2"/>
<polygon fill="midnightblue" stroke="midnightblue" points="1060.51,-138.49 1070.68,-135.53 1060.88,-131.5 1060.51,-138.49"/>
</g>
<!-- Node28&#45;&gt;Node11 -->
<g id="edge36" class="edge">
<title>Node28&#45;&gt;Node11</title>
<path fill="none" stroke="midnightblue" d="M1196.8,-129.98C1487.79,-104.1 1564.02,-124.05 1850.73,-94 1863.95,-92.61 1878.24,-90.61 1891.33,-88.57"/>
<polygon fill="midnightblue" stroke="midnightblue" points="1196.45,-126.49 1186.8,-130.87 1197.08,-133.46 1196.45,-126.49"/>
</g>
<!-- Node28&#45;&gt;Node12 -->
<g id="edge37" class="edge">
<title>Node28&#45;&gt;Node12</title>
<path fill="none" stroke="midnightblue" d="M1154.29,-125.93C1173.71,-116.39 1200.34,-103.3 1220.03,-93.62"/>
<polygon fill="midnightblue" stroke="midnightblue" points="1152.56,-122.88 1145.13,-130.44 1155.65,-129.17 1152.56,-122.88"/>
</g>
<!-- Node28&#45;&gt;Node13 -->
<g id="edge40" class="edge">
<title>Node28&#45;&gt;Node13</title>
<path fill="none" stroke="midnightblue" d="M1174.49,-128.25C1225.13,-116.91 1305.69,-98.87 1351.94,-88.51"/>
<polygon fill="midnightblue" stroke="midnightblue" points="1173.46,-124.9 1164.47,-130.5 1174.99,-131.73 1173.46,-124.9"/>
</g>
<!-- Node28&#45;&gt;Node14 -->
<g id="edge43" class="edge">
<title>Node28&#45;&gt;Node14</title>
<path fill="none" stroke="midnightblue" d="M1196.81,-129.93C1380.66,-110.83 1429.96,-122.45 1608.73,-94 1617.61,-92.59 1627.15,-90.57 1635.88,-88.53"/>
<polygon fill="midnightblue" stroke="midnightblue" points="1196.39,-126.46 1186.81,-130.99 1197.13,-133.42 1196.39,-126.46"/>
</g>
<!-- Node28&#45;&gt;Node15 -->
<g id="edge44" class="edge">
<title>Node28&#45;&gt;Node15</title>
<path fill="none" stroke="midnightblue" d="M1060.35,-135.26C956.26,-129.8 751.94,-117.06 579.73,-94 568.89,-92.55 557.2,-90.55 546.47,-88.53"/>
<polygon fill="midnightblue" stroke="midnightblue" points="1060.25,-138.76 1070.41,-135.78 1060.61,-131.77 1060.25,-138.76"/>
</g>
<!-- Node28&#45;&gt;Node23 -->
<g id="edge45" class="edge">
<title>Node28&#45;&gt;Node23</title>
<path fill="none" stroke="midnightblue" d="M1196.92,-129.98C1564.47,-99.32 1660.29,-127.91 2023.73,-94 2038.99,-92.58 2055.57,-90.4 2070.5,-88.22"/>
<polygon fill="midnightblue" stroke="midnightblue" points="1196.47,-126.51 1186.8,-130.83 1197.06,-133.48 1196.47,-126.51"/>
</g>
<!-- Node28&#45;&gt;Node26 -->
<g id="edge46" class="edge">
<title>Node28&#45;&gt;Node26</title>
<path fill="none" stroke="midnightblue" d="M1197.04,-129.94C1432.04,-107.71 1494.67,-126.31 1724.73,-94 1734.47,-92.63 1744.96,-90.61 1754.54,-88.54"/>
<polygon fill="midnightblue" stroke="midnightblue" points="1196.43,-126.48 1186.81,-130.92 1197.1,-133.45 1196.43,-126.48"/>
</g>
<!-- Node28&#45;&gt;Node27 -->
<g id="edge42" class="edge">
<title>Node28&#45;&gt;Node27</title>
<path fill="none" stroke="midnightblue" d="M1060.43,-136.68C870.32,-131.42 337.63,-115.15 163.73,-94 152.97,-92.69 141.38,-90.64 130.86,-88.52"/>
<polygon fill="midnightblue" stroke="midnightblue" points="1060.47,-140.19 1070.57,-136.96 1060.67,-133.19 1060.47,-140.19"/>
</g>
<!-- Node31&#45;&gt;Node3 -->
<g id="edge50" class="edge">
<title>Node31&#45;&gt;Node3</title>
<path fill="none" stroke="midnightblue" d="M1476.6,-129.99C1182.74,-101.86 1105.35,-125.62 815.73,-94 803.11,-92.62 789.47,-90.6 777.01,-88.53"/>
<polygon fill="midnightblue" stroke="midnightblue" points="1476.41,-133.48 1486.7,-130.97 1477.08,-126.52 1476.41,-133.48"/>
</g>
<!-- Node31&#45;&gt;Node5 -->
<g id="edge54" class="edge">
<title>Node31&#45;&gt;Node5</title>
<path fill="none" stroke="midnightblue" d="M1476.71,-129.96C1269.54,-107.69 1215.04,-115.84 1011.73,-94 997.38,-92.46 981.9,-90.48 967.57,-88.51"/>
<polygon fill="midnightblue" stroke="midnightblue" points="1476.37,-133.44 1486.69,-131.04 1477.13,-126.49 1476.37,-133.44"/>
</g>
<!-- Node31&#45;&gt;Node6 -->
<g id="edge55" class="edge">
<title>Node31&#45;&gt;Node6</title>
<path fill="none" stroke="midnightblue" d="M1476.68,-129.89C1345.99,-112.75 1311.51,-111.62 1184.73,-94 1172.77,-92.34 1159.9,-90.42 1147.83,-88.55"/>
<polygon fill="midnightblue" stroke="midnightblue" points="1476.3,-133.37 1486.67,-131.2 1477.22,-126.43 1476.3,-133.37"/>
</g>
<!-- Node31&#45;&gt;Node7 -->
<g id="edge57" class="edge">
<title>Node31&#45;&gt;Node7</title>
<path fill="none" stroke="midnightblue" d="M1537.73,-120.32C1537.73,-111.75 1537.73,-101.7 1537.73,-93.84"/>
<polygon fill="midnightblue" stroke="midnightblue" points="1534.23,-120.44 1537.73,-130.44 1541.23,-120.44 1534.23,-120.44"/>
</g>
<!-- Node31&#45;&gt;Node10 -->
<g id="edge51" class="edge">
<title>Node31&#45;&gt;Node10</title>
<path fill="none" stroke="midnightblue" d="M1598.96,-133.97C1727.99,-124.27 2016.64,-101.77 2023.73,-94 2032.41,-84.48 2032.62,-74.33 2023.73,-65 1989.2,-28.79 1232.85,-18.13 1035.49,-15.96"/>
<polygon fill="midnightblue" stroke="midnightblue" points="1598.55,-130.49 1588.84,-134.73 1599.07,-137.47 1598.55,-130.49"/>
</g>
<!-- Node31&#45;&gt;Node11 -->
<g id="edge52" class="edge">
<title>Node31&#45;&gt;Node11</title>
<path fill="none" stroke="midnightblue" d="M1598.89,-130.04C1662.01,-121.25 1763.3,-107 1850.73,-94 1862.37,-92.27 1874.88,-90.36 1886.68,-88.53"/>
<polygon fill="midnightblue" stroke="midnightblue" points="1598.14,-126.61 1588.72,-131.45 1599.1,-133.54 1598.14,-126.61"/>
</g>
<!-- Node31&#45;&gt;Node12 -->
<g id="edge53" class="edge">
<title>Node31&#45;&gt;Node12</title>
<path fill="none" stroke="midnightblue" d="M1484.77,-128.56C1438.32,-119.76 1368.96,-106.41 1308.73,-94 1305.81,-93.4 1302.83,-92.78 1299.81,-92.14"/>
<polygon fill="midnightblue" stroke="midnightblue" points="1484.14,-132 1494.62,-130.42 1485.44,-125.12 1484.14,-132"/>
</g>
<!-- Node31&#45;&gt;Node13 -->
<g id="edge56" class="edge">
<title>Node31&#45;&gt;Node13</title>
<path fill="none" stroke="midnightblue" d="M1507.54,-126.83C1478.28,-115.51 1434.64,-98.64 1408.89,-88.68"/>
<polygon fill="midnightblue" stroke="midnightblue" points="1506.28,-130.09 1516.87,-130.44 1508.8,-123.56 1506.28,-130.09"/>
</g>
<!-- Node31&#45;&gt;Node14 -->
<g id="edge59" class="edge">
<title>Node31&#45;&gt;Node14</title>
<path fill="none" stroke="midnightblue" d="M1565.01,-126.23C1590.15,-114.93 1626.77,-98.46 1648.53,-88.68"/>
<polygon fill="midnightblue" stroke="midnightblue" points="1563.35,-123.14 1555.66,-130.44 1566.22,-129.53 1563.35,-123.14"/>
</g>
<!-- Node31&#45;&gt;Node15 -->
<g id="edge60" class="edge">
<title>Node31&#45;&gt;Node15</title>
<path fill="none" stroke="midnightblue" d="M1476.6,-130C1109.67,-96.57 1014.44,-119.07 650.73,-94 622.74,-92.07 591.73,-89.23 565.77,-86.65"/>
<polygon fill="midnightblue" stroke="midnightblue" points="1476.42,-133.5 1486.7,-130.93 1477.07,-126.53 1476.42,-133.5"/>
</g>
<!-- Node31&#45;&gt;Node23 -->
<g id="edge61" class="edge">
<title>Node31&#45;&gt;Node23</title>
<path fill="none" stroke="midnightblue" d="M1598.79,-134.28C1716.31,-126 1969.95,-107.26 2056.73,-94 2066.05,-92.57 2076.09,-90.56 2085.27,-88.52"/>
<polygon fill="midnightblue" stroke="midnightblue" points="1598.26,-130.81 1588.53,-135 1598.75,-137.8 1598.26,-130.81"/>
</g>
<!-- Node31&#45;&gt;Node26 -->
<g id="edge62" class="edge">
<title>Node31&#45;&gt;Node26</title>
<path fill="none" stroke="midnightblue" d="M1582.2,-128.18C1631.11,-116.84 1708.64,-98.85 1753.18,-88.51"/>
<polygon fill="midnightblue" stroke="midnightblue" points="1581.18,-124.83 1572.23,-130.5 1582.76,-131.65 1581.18,-124.83"/>
</g>
<!-- Node31&#45;&gt;Node30 -->
<g id="edge58" class="edge">
<title>Node31&#45;&gt;Node30</title>
<path fill="none" stroke="midnightblue" d="M1598.88,-134.45C1747.12,-124.6 2117.58,-99.79 2173.73,-94 2189.08,-92.42 2205.73,-90.3 2220.91,-88.22"/>
<polygon fill="midnightblue" stroke="midnightblue" points="1598.35,-130.98 1588.6,-135.13 1598.81,-137.96 1598.35,-130.98"/>
</g>
<!-- Node33&#45;&gt;Node3 -->
<g id="edge65" class="edge">
<title>Node33&#45;&gt;Node3</title>
<path fill="none" stroke="midnightblue" d="M1664.76,-134.17C1643.51,-132.75 1619.58,-131.22 1597.73,-130 1250.35,-110.56 1161.75,-130.32 815.73,-94 802.96,-92.66 789.15,-90.62 776.58,-88.53"/>
<polygon fill="midnightblue" stroke="midnightblue" points="1664.74,-137.67 1674.96,-134.85 1665.21,-130.69 1664.74,-137.67"/>
</g>
<!-- Node33&#45;&gt;Node5 -->
<g id="edge69" class="edge">
<title>Node33&#45;&gt;Node5</title>
<path fill="none" stroke="midnightblue" d="M1664.75,-134.36C1643.5,-132.96 1619.57,-131.39 1597.73,-130 1337.32,-113.42 1271.38,-119.82 1011.73,-94 997.03,-92.54 981.15,-90.54 966.53,-88.52"/>
<polygon fill="midnightblue" stroke="midnightblue" points="1664.74,-137.87 1674.95,-135.04 1665.2,-130.88 1664.74,-137.87"/>
</g>
<!-- Node33&#45;&gt;Node6 -->
<g id="edge70" class="edge">
<title>Node33&#45;&gt;Node6</title>
<path fill="none" stroke="midnightblue" d="M1664.76,-133.98C1542.94,-124.99 1276.17,-104.83 1184.73,-94 1171.98,-92.49 1158.23,-90.52 1145.51,-88.55"/>
<polygon fill="midnightblue" stroke="midnightblue" points="1664.81,-137.49 1675.04,-134.73 1665.32,-130.51 1664.81,-137.49"/>
</g>
<!-- Node33&#45;&gt;Node7 -->
<g id="edge72" class="edge">
<title>Node33&#45;&gt;Node7</title>
<path fill="none" stroke="midnightblue" d="M1690.75,-127.46C1659.24,-117.79 1613.41,-103.72 1580.12,-93.51"/>
<polygon fill="midnightblue" stroke="midnightblue" points="1689.86,-130.85 1700.45,-130.44 1691.91,-124.16 1689.86,-130.85"/>
</g>
<!-- Node33&#45;&gt;Node10 -->
<g id="edge66" class="edge">
<title>Node33&#45;&gt;Node10</title>
<path fill="none" stroke="midnightblue" d="M1788.84,-136.85C1905.59,-133.1 2148.39,-121.99 2173.73,-94 2182.38,-84.45 2182.65,-74.3 2173.73,-65 2133.68,-23.25 1250.6,-16.65 1035.6,-15.67"/>
<polygon fill="midnightblue" stroke="midnightblue" points="1788.51,-133.36 1778.62,-137.17 1788.73,-140.35 1788.51,-133.36"/>
</g>
<!-- Node33&#45;&gt;Node11 -->
<g id="edge67" class="edge">
<title>Node33&#45;&gt;Node11</title>
<path fill="none" stroke="midnightblue" d="M1765.77,-127.77C1807.02,-116.43 1871.12,-98.81 1908.3,-88.59"/>
<polygon fill="midnightblue" stroke="midnightblue" points="1764.78,-124.41 1756.07,-130.44 1766.64,-131.16 1764.78,-124.41"/>
</g>
<!-- Node33&#45;&gt;Node12 -->
<g id="edge68" class="edge">
<title>Node33&#45;&gt;Node12</title>
<path fill="none" stroke="midnightblue" d="M1664.88,-134.02C1583.05,-127.62 1434.47,-114.32 1308.73,-94 1305.79,-93.53 1302.78,-93 1299.75,-92.44"/>
<polygon fill="midnightblue" stroke="midnightblue" points="1664.77,-137.52 1675.01,-134.81 1665.31,-130.55 1664.77,-137.52"/>
</g>
<!-- Node33&#45;&gt;Node13 -->
<g id="edge71" class="edge">
<title>Node33&#45;&gt;Node13</title>
<path fill="none" stroke="midnightblue" d="M1669.71,-128.75C1603.63,-117.44 1495.98,-99.02 1434.57,-88.51"/>
<polygon fill="midnightblue" stroke="midnightblue" points="1669.5,-132.26 1679.95,-130.5 1670.68,-125.36 1669.5,-132.26"/>
</g>
<!-- Node33&#45;&gt;Node14 -->
<g id="edge75" class="edge">
<title>Node33&#45;&gt;Node14</title>
<path fill="none" stroke="midnightblue" d="M1711.19,-123.48C1699.79,-112.46 1684.73,-97.9 1675.39,-88.87"/>
<polygon fill="midnightblue" stroke="midnightblue" points="1708.76,-126 1718.38,-130.44 1713.63,-120.97 1708.76,-126"/>
</g>
<!-- Node33&#45;&gt;Node15 -->
<g id="edge76" class="edge">
<title>Node33&#45;&gt;Node15</title>
<path fill="none" stroke="midnightblue" d="M1664.77,-134.07C1643.52,-132.64 1619.59,-131.14 1597.73,-130 1177.1,-108.15 1071,-121.8 650.73,-94 622.73,-92.15 591.73,-89.32 565.76,-86.72"/>
<polygon fill="midnightblue" stroke="midnightblue" points="1664.75,-137.57 1674.96,-134.76 1665.22,-130.59 1664.75,-137.57"/>
</g>
<!-- Node33&#45;&gt;Node23 -->
<g id="edge78" class="edge">
<title>Node33&#45;&gt;Node23</title>
<path fill="none" stroke="midnightblue" d="M1788.68,-131.72C1855.18,-124.07 1963.8,-110.52 2056.73,-94 2065.59,-92.42 2075.12,-90.45 2083.95,-88.5"/>
<polygon fill="midnightblue" stroke="midnightblue" points="1787.92,-128.28 1778.38,-132.89 1788.71,-135.23 1787.92,-128.28"/>
</g>
<!-- Node33&#45;&gt;Node26 -->
<g id="edge79" class="edge">
<title>Node33&#45;&gt;Node26</title>
<path fill="none" stroke="midnightblue" d="M1742.52,-123.48C1754.11,-112.46 1769.43,-97.9 1778.92,-88.87"/>
<polygon fill="midnightblue" stroke="midnightblue" points="1740.04,-121.01 1735.21,-130.44 1744.87,-126.08 1740.04,-121.01"/>
</g>
<!-- Node33&#45;&gt;Node32 -->
<g id="edge74" class="edge">
<title>Node33&#45;&gt;Node32</title>
<path fill="none" stroke="midnightblue" d="M1788.87,-137.49C1992.92,-133.96 2641.24,-120.86 2848.73,-94 2858.52,-92.73 2869.05,-90.66 2878.57,-88.52"/>
<polygon fill="midnightblue" stroke="midnightblue" points="1788.57,-134 1778.63,-137.67 1788.69,-141 1788.57,-134"/>
</g>
<!-- Node34 -->
<g id="node34" class="node">
<title>Node34</title>
<g id="a_node34"><a xlink:href="Iogn__DatabaseIO_8C.html" target="_top" xlink:title=" ">
<polygon fill="white" stroke="black" points="2342.03,-65.5 2342.03,-93.5 2441.42,-93.5 2441.42,-65.5 2342.03,-65.5"/>
<text text-anchor="start" x="2350.03" y="-81.5" font-family="Helvetica,sans-Serif" font-size="10.00">src/generated/Iogn</text>
<text text-anchor="middle" x="2391.73" y="-71.5" font-family="Helvetica,sans-Serif" font-size="10.00">_DatabaseIO.C</text>
</a>
</g>
</g>
<!-- Node33&#45;&gt;Node34 -->
<g id="edge73" class="edge">
<title>Node33&#45;&gt;Node34</title>
<path fill="none" stroke="midnightblue" d="M1788.86,-137.13C1899.16,-133.99 2136.14,-124.05 2333.73,-94 2336.38,-93.6 2339.1,-93.13 2341.84,-92.63"/>
<polygon fill="midnightblue" stroke="midnightblue" points="1788.49,-133.64 1778.59,-137.41 1788.68,-140.64 1788.49,-133.64"/>
</g>
<!-- Node35 -->
<g id="node35" class="node">
<title>Node35</title>
<g id="a_node35"><a xlink:href="cth__pressure__map_8C.html" target="_top" xlink:title=" ">
<polygon fill="white" stroke="black" points="2459.54,-65.5 2459.54,-93.5 2573.91,-93.5 2573.91,-65.5 2459.54,-65.5"/>
<text text-anchor="start" x="2467.54" y="-81.5" font-family="Helvetica,sans-Serif" font-size="10.00">src/main/cth_pressure</text>
<text text-anchor="middle" x="2516.73" y="-71.5" font-family="Helvetica,sans-Serif" font-size="10.00">_map.C</text>
</a>
</g>
</g>
<!-- Node33&#45;&gt;Node35 -->
<g id="edge77" class="edge">
<title>Node33&#45;&gt;Node35</title>
<path fill="none" stroke="midnightblue" d="M1788.96,-137.61C1914.58,-135.17 2207.26,-126.22 2450.73,-94 2453.51,-93.63 2456.35,-93.21 2459.21,-92.76"/>
<polygon fill="midnightblue" stroke="midnightblue" points="1788.7,-134.12 1778.76,-137.8 1788.83,-141.12 1788.7,-134.12"/>
</g>
<!-- Node36 -->
<g id="node36" class="node">
<title>Node36</title>
<g id="a_node36"><a xlink:href="sphgen_8C.html" target="_top" xlink:title=" ">
<polygon fill="white" stroke="black" points="2592.04,-70.5 2592.04,-88.5 2691.41,-88.5 2691.41,-70.5 2592.04,-70.5"/>
<text text-anchor="middle" x="2641.73" y="-76.5" font-family="Helvetica,sans-Serif" font-size="10.00">src/main/sphgen.C</text>
</a>
</g>
</g>
<!-- Node33&#45;&gt;Node36 -->
<g id="edge80" class="edge">
<title>Node33&#45;&gt;Node36</title>
<path fill="none" stroke="midnightblue" d="M1788.86,-138.94C1930.45,-139.14 2287.6,-135.12 2582.73,-94 2592.09,-92.69 2602.17,-90.64 2611.29,-88.52"/>
<polygon fill="midnightblue" stroke="midnightblue" points="1788.65,-135.44 1778.64,-138.92 1788.64,-142.44 1788.65,-135.44"/>
</g>
<!-- Node37 -->
<g id="node37" class="node">
<title>Node37</title>
<g id="a_node37"><a xlink:href="UnitTestIofxDatabaseIO_8C.html" target="_top" xlink:title=" ">
<polygon fill="white" stroke="black" points="2709.76,-65.5 2709.76,-93.5 2839.69,-93.5 2839.69,-65.5 2709.76,-65.5"/>
<text text-anchor="start" x="2717.76" y="-81.5" font-family="Helvetica,sans-Serif" font-size="10.00">src/unit_tests/UnitTestIofx</text>
<text text-anchor="middle" x="2774.73" y="-71.5" font-family="Helvetica,sans-Serif" font-size="10.00">DatabaseIO.C</text>
</a>
</g>
</g>
<!-- Node33&#45;&gt;Node37 -->
<g id="edge81" class="edge">
<title>Node33&#45;&gt;Node37</title>
<path fill="none" stroke="midnightblue" d="M1788.63,-138.56C1943.08,-138.08 2357.72,-132.94 2700.73,-94 2703.58,-93.68 2706.49,-93.31 2709.43,-92.91"/>
<polygon fill="midnightblue" stroke="midnightblue" points="1788.39,-135.06 1778.4,-138.59 1788.41,-142.06 1788.39,-135.06"/>
</g>
</g>
</svg>
