<?xml version="1.0" encoding="UTF-8" standalone="no"?>
<!DOCTYPE svg PUBLIC "-//W3C//DTD SVG 1.1//EN"
 "http://www.w3.org/Graphics/SVG/1.1/DTD/svg11.dtd">
<!-- Generated by graphviz version 2.40.1 (20161225.0304)
 -->
<!-- Title: src/Ioss_ElementTopology.C Pages: 1 -->
<svg width="1223pt" height="247pt"
 viewBox="0.00 0.00 1223.31 247.00" xmlns="http://www.w3.org/2000/svg" xmlns:xlink="http://www.w3.org/1999/xlink">
<g id="graph0" class="graph" transform="scale(1 1) rotate(0) translate(4 243)">
<title>src/Ioss_ElementTopology.C</title>
<polygon fill="#ffffff" stroke="transparent" points="-4,4 -4,-243 1219.3147,-243 1219.3147,4 -4,4"/>
<!-- Node0 -->
<g id="node1" class="node">
<title>Node0</title>
<g id="a_node1"><a xlink:title=" ">
<polygon fill="#bfbfbf" stroke="#000000" points="821.9299,-220.5 821.9299,-238.5 963.9162,-238.5 963.9162,-220.5 821.9299,-220.5"/>
<text text-anchor="middle" x="892.9231" y="-226.5" font-family="Helvetica,sans-Serif" font-size="10.00" fill="#000000">src/Ioss_ElementTopology.C</text>
</a>
</g>
</g>
<!-- Node1 -->
<g id="node2" class="node">
<title>Node1</title>
<g id="a_node2"><a xlink:href="Ioss__CodeTypes_8h.html" target="_top" xlink:title=" ">
<polygon fill="#ffffff" stroke="#000000" points="280.5071,-55.5 280.5071,-73.5 379.3391,-73.5 379.3391,-55.5 280.5071,-55.5"/>
<text text-anchor="middle" x="329.9231" y="-61.5" font-family="Helvetica,sans-Serif" font-size="10.00" fill="#000000">Ioss_CodeTypes.h</text>
</a>
</g>
</g>
<!-- Node0&#45;&gt;Node1 -->
<g id="edge1" class="edge">
<title>Node0&#45;&gt;Node1</title>
<path fill="none" stroke="#191970" d="M821.9256,-222.7021C671.823,-207.5965 333.323,-169.3726 300.9231,-129 289.3602,-114.5919 301.4086,-94.8381 313.307,-81.0003"/>
<polygon fill="#191970" stroke="#191970" points="315.9064,-83.3444 320.1156,-73.6216 310.7619,-78.5974 315.9064,-83.3444"/>
</g>
<!-- Node3 -->
<g id="node4" class="node">
<title>Node3</title>
<g id="a_node4"><a xlink:title=" ">
<polygon fill="#ffffff" stroke="#bfbfbf" points="797.8025,-.5 797.8025,-18.5 846.0437,-18.5 846.0437,-.5 797.8025,-.5"/>
<text text-anchor="middle" x="821.9231" y="-6.5" font-family="Helvetica,sans-Serif" font-size="10.00" fill="#000000">cstddef</text>
</a>
</g>
</g>
<!-- Node0&#45;&gt;Node3 -->
<g id="edge37" class="edge">
<title>Node0&#45;&gt;Node3</title>
<path fill="none" stroke="#191970" d="M916.043,-220.4075C931.2432,-213.0689 949.928,-201.1266 958.9231,-184 974.2157,-154.8828 973.787,-139.3384 958.9231,-110 937.2036,-67.1302 887.6432,-38.1222 854.4742,-22.6951"/>
<polygon fill="#191970" stroke="#191970" points="855.7299,-19.4224 845.1733,-18.5233 852.8651,-25.8093 855.7299,-19.4224"/>
</g>
<!-- Node5 -->
<g id="node6" class="node">
<title>Node5</title>
<g id="a_node6"><a xlink:title=" ">
<polygon fill="#ffffff" stroke="#bfbfbf" points="69.6965,-.5 69.6965,-18.5 110.1496,-18.5 110.1496,-.5 69.6965,-.5"/>
<text text-anchor="middle" x="89.9231" y="-6.5" font-family="Helvetica,sans-Serif" font-size="10.00" fill="#000000">string</text>
</a>
</g>
</g>
<!-- Node0&#45;&gt;Node5 -->
<g id="edge40" class="edge">
<title>Node0&#45;&gt;Node5</title>
<path fill="none" stroke="#191970" d="M821.8805,-228.8794C631.6896,-226.7661 120.7497,-217.9596 52.9231,-184 -.1969,-157.4038 -15.7332,-103.9525 17.9231,-55 28.2312,-40.007 45.2639,-28.9152 60.1755,-21.438"/>
<polygon fill="#191970" stroke="#191970" points="62.0005,-24.4485 69.5762,-17.0418 59.0351,-18.1076 62.0005,-24.4485"/>
</g>
<!-- Node6 -->
<g id="node7" class="node">
<title>Node6</title>
<g id="a_node7"><a xlink:title=" ">
<polygon fill="#ffffff" stroke="#bfbfbf" points="454.3073,-.5 454.3073,-18.5 497.5388,-18.5 497.5388,-.5 454.3073,-.5"/>
<text text-anchor="middle" x="475.9231" y="-6.5" font-family="Helvetica,sans-Serif" font-size="10.00" fill="#000000">vector</text>
</a>
</g>
</g>
<!-- Node0&#45;&gt;Node6 -->
<g id="edge42" class="edge">
<title>Node0&#45;&gt;Node6</title>
<path fill="none" stroke="#191970" d="M900.3376,-220.3207C916.8459,-198.7164 953.1096,-143.9279 925.9231,-110 873.0853,-44.0601 601.3631,-18.5297 507.7016,-11.604"/>
<polygon fill="#191970" stroke="#191970" points="507.9138,-8.1103 497.6887,-10.8849 507.4123,-15.0923 507.9138,-8.1103"/>
</g>
<!-- Node9 -->
<g id="node10" class="node">
<title>Node9</title>
<g id="a_node10"><a xlink:href="Ioss__ElementTopology_8h.html" target="_top" xlink:title=" ">
<polygon fill="#ffffff" stroke="#000000" points="24.8142,-110.5 24.8142,-128.5 149.032,-128.5 149.032,-110.5 24.8142,-110.5"/>
<text text-anchor="middle" x="86.9231" y="-116.5" font-family="Helvetica,sans-Serif" font-size="10.00" fill="#000000">Ioss_ElementTopology.h</text>
</a>
</g>
</g>
<!-- Node0&#45;&gt;Node9 -->
<g id="edge9" class="edge">
<title>Node0&#45;&gt;Node9</title>
<path fill="none" stroke="#191970" d="M821.8159,-227.5213C676.0411,-222.9794 347.8713,-210.1293 238.9231,-184 192.3397,-172.8278 141.8042,-148.7573 112.3258,-133.3883"/>
<polygon fill="#191970" stroke="#191970" points="113.6475,-130.1278 103.1722,-128.541 110.3716,-136.314 113.6475,-130.1278"/>
</g>
<!-- Node11 -->
<g id="node12" class="node">
<title>Node11</title>
<g id="a_node12"><a xlink:href="Ioss__Super_8h.html" target="_top" xlink:title=" ">
<polygon fill="#ffffff" stroke="#000000" points="61.7336,-165.5 61.7336,-183.5 136.1125,-183.5 136.1125,-165.5 61.7336,-165.5"/>
<text text-anchor="middle" x="98.9231" y="-171.5" font-family="Helvetica,sans-Serif" font-size="10.00" fill="#000000">Ioss_Super.h</text>
</a>
</g>
</g>
<!-- Node0&#45;&gt;Node11 -->
<g id="edge14" class="edge">
<title>Node0&#45;&gt;Node11</title>
<path fill="none" stroke="#191970" d="M821.7561,-225.8226C694.7498,-219.0527 420.7132,-203.5078 189.9231,-184 175.9227,-182.8166 160.7332,-181.3168 146.8477,-179.8606"/>
<polygon fill="#191970" stroke="#191970" points="146.8393,-176.34 136.5249,-178.7614 146.0981,-183.3006 146.8393,-176.34"/>
</g>
<!-- Node12 -->
<g id="node13" class="node">
<title>Node12</title>
<g id="a_node13"><a xlink:href="Ioss__Utils_8h.html" target="_top" xlink:title=" ">
<polygon fill="#ffffff" stroke="#000000" points="558.0808,-165.5 558.0808,-183.5 625.7654,-183.5 625.7654,-165.5 558.0808,-165.5"/>
<text text-anchor="middle" x="591.9231" y="-171.5" font-family="Helvetica,sans-Serif" font-size="10.00" fill="#000000">Ioss_Utils.h</text>
</a>
</g>
</g>
<!-- Node0&#45;&gt;Node12 -->
<g id="edge19" class="edge">
<title>Node0&#45;&gt;Node12</title>
<path fill="none" stroke="#191970" d="M843.5561,-220.4795C785.7762,-209.9217 690.9816,-192.6004 635.7169,-182.5022"/>
<polygon fill="#191970" stroke="#191970" points="636.3419,-179.0585 625.8756,-180.704 635.0836,-185.9445 636.3419,-179.0585"/>
</g>
<!-- Node15 -->
<g id="node16" class="node">
<title>Node15</title>
<g id="a_node16"><a xlink:title=" ">
<polygon fill="#ffffff" stroke="#bfbfbf" points="868.8073,-110.5 868.8073,-128.5 917.0388,-128.5 917.0388,-110.5 868.8073,-110.5"/>
<text text-anchor="middle" x="892.9231" y="-116.5" font-family="Helvetica,sans-Serif" font-size="10.00" fill="#000000">cassert</text>
</a>
</g>
</g>
<!-- Node0&#45;&gt;Node15 -->
<g id="edge36" class="edge">
<title>Node0&#45;&gt;Node15</title>
<path fill="none" stroke="#191970" d="M892.9231,-220.4982C892.9231,-202.6913 892.9231,-162.6225 892.9231,-138.6515"/>
<polygon fill="#191970" stroke="#191970" points="896.4232,-138.6261 892.9231,-128.6261 889.4232,-138.6262 896.4232,-138.6261"/>
</g>
<!-- Node20 -->
<g id="node21" class="node">
<title>Node20</title>
<g id="a_node21"><a xlink:title=" ">
<polygon fill="#ffffff" stroke="#bfbfbf" points="1011.3591,-165.5 1011.3591,-183.5 1088.487,-183.5 1088.487,-165.5 1011.3591,-165.5"/>
<text text-anchor="middle" x="1049.9231" y="-171.5" font-family="Helvetica,sans-Serif" font-size="10.00" fill="#000000">fmt/ostream.h</text>
</a>
</g>
</g>
<!-- Node0&#45;&gt;Node20 -->
<g id="edge38" class="edge">
<title>Node0&#45;&gt;Node20</title>
<path fill="none" stroke="#191970" d="M918.8484,-220.4179C944.9479,-211.2748 985.3972,-197.1046 1014.4581,-186.924"/>
<polygon fill="#191970" stroke="#191970" points="1015.9397,-190.1136 1024.2201,-183.5042 1013.6253,-183.5073 1015.9397,-190.1136"/>
</g>
<!-- Node21 -->
<g id="node22" class="node">
<title>Node21</title>
<g id="a_node22"><a xlink:title=" ">
<polygon fill="#ffffff" stroke="#bfbfbf" points="1106.8615,-165.5 1106.8615,-183.5 1158.9846,-183.5 1158.9846,-165.5 1106.8615,-165.5"/>
<text text-anchor="middle" x="1132.9231" y="-171.5" font-family="Helvetica,sans-Serif" font-size="10.00" fill="#000000">ostream</text>
</a>
</g>
</g>
<!-- Node0&#45;&gt;Node21 -->
<g id="edge39" class="edge">
<title>Node0&#45;&gt;Node21</title>
<path fill="none" stroke="#191970" d="M936.2523,-220.4963C975.7262,-212.1564 1035.8577,-199.1106 1096.7993,-184.1992"/>
<polygon fill="#191970" stroke="#191970" points="1097.7105,-187.5794 1106.584,-181.7904 1096.0372,-180.7824 1097.7105,-187.5794"/>
</g>
<!-- Node22 -->
<g id="node23" class="node">
<title>Node22</title>
<g id="a_node23"><a xlink:title=" ">
<polygon fill="#ffffff" stroke="#bfbfbf" points="1176.5315,-165.5 1176.5315,-183.5 1215.3147,-183.5 1215.3147,-165.5 1176.5315,-165.5"/>
<text text-anchor="middle" x="1195.9231" y="-171.5" font-family="Helvetica,sans-Serif" font-size="10.00" fill="#000000">utility</text>
</a>
</g>
</g>
<!-- Node0&#45;&gt;Node22 -->
<g id="edge41" class="edge">
<title>Node0&#45;&gt;Node22</title>
<path fill="none" stroke="#191970" d="M963.9376,-220.9912C1017.4522,-213.8367 1092.7057,-202.1985 1166.5293,-184.041"/>
<polygon fill="#191970" stroke="#191970" points="1167.6108,-187.3784 1176.4622,-181.5557 1165.9117,-180.5877 1167.6108,-187.3784"/>
</g>
<!-- Node2 -->
<g id="node3" class="node">
<title>Node2</title>
<g id="a_node3"><a xlink:title=" ">
<polygon fill="#ffffff" stroke="#bfbfbf" points="130.5315,-.5 130.5315,-18.5 169.3147,-18.5 169.3147,-.5 130.5315,-.5"/>
<text text-anchor="middle" x="149.9231" y="-6.5" font-family="Helvetica,sans-Serif" font-size="10.00" fill="#000000">array</text>
</a>
</g>
</g>
<!-- Node1&#45;&gt;Node2 -->
<g id="edge2" class="edge">
<title>Node1&#45;&gt;Node2</title>
<path fill="none" stroke="#191970" d="M298.3805,-55.4199C269.5529,-47.0417 225.5233,-34.0469 179.1,-19.3053"/>
<polygon fill="#191970" stroke="#191970" points="180.0661,-15.9397 169.4754,-16.2345 177.9384,-22.6085 180.0661,-15.9397"/>
</g>
<!-- Node1&#45;&gt;Node3 -->
<g id="edge3" class="edge">
<title>Node1&#45;&gt;Node3</title>
<path fill="none" stroke="#191970" d="M379.3506,-58.9746C479.1191,-47.8216 702.329,-22.8693 787.7624,-13.3188"/>
<polygon fill="#191970" stroke="#191970" points="788.1652,-16.7956 797.7144,-12.2062 787.3875,-9.839 788.1652,-16.7956"/>
</g>
<!-- Node4 -->
<g id="node5" class="node">
<title>Node4</title>
<g id="a_node5"><a xlink:title=" ">
<polygon fill="#ffffff" stroke="#bfbfbf" points="391.4724,-.5 391.4724,-18.5 436.3738,-18.5 436.3738,-.5 391.4724,-.5"/>
<text text-anchor="middle" x="413.9231" y="-6.5" font-family="Helvetica,sans-Serif" font-size="10.00" fill="#000000">cstdint</text>
</a>
</g>
</g>
<!-- Node1&#45;&gt;Node4 -->
<g id="edge4" class="edge">
<title>Node1&#45;&gt;Node4</title>
<path fill="none" stroke="#191970" d="M343.794,-55.4179C356.6828,-46.9788 376.1124,-34.257 391.2544,-24.3426"/>
<polygon fill="#191970" stroke="#191970" points="393.5826,-27.0017 400.0316,-18.5956 389.7481,-21.1454 393.5826,-27.0017"/>
</g>
<!-- Node1&#45;&gt;Node5 -->
<g id="edge5" class="edge">
<title>Node1&#45;&gt;Node5</title>
<path fill="none" stroke="#191970" d="M283.8415,-55.4289C241.5403,-46.8633 177.2306,-33.2386 121.9231,-19 121.3268,-18.8465 120.7248,-18.6894 120.1188,-18.5292"/>
<polygon fill="#191970" stroke="#191970" points="120.7473,-15.0709 110.1746,-15.7556 118.8667,-21.8136 120.7473,-15.0709"/>
</g>
<!-- Node1&#45;&gt;Node6 -->
<g id="edge6" class="edge">
<title>Node1&#45;&gt;Node6</title>
<path fill="none" stroke="#191970" d="M354.032,-55.4179C378.846,-46.0701 417.6086,-31.4678 444.7413,-21.2466"/>
<polygon fill="#191970" stroke="#191970" points="446.0398,-24.4976 454.164,-17.6969 443.5721,-17.947 446.0398,-24.4976"/>
</g>
<!-- Node7 -->
<g id="node8" class="node">
<title>Node7</title>
<g id="a_node8"><a xlink:title=" ">
<polygon fill="#ffffff" stroke="#bfbfbf" points="187.1745,-.5 187.1745,-18.5 302.6716,-18.5 302.6716,-.5 187.1745,-.5"/>
<text text-anchor="middle" x="244.9231" y="-6.5" font-family="Helvetica,sans-Serif" font-size="10.00" fill="#000000">SEACASIoss_config.h</text>
</a>
</g>
</g>
<!-- Node1&#45;&gt;Node7 -->
<g id="edge7" class="edge">
<title>Node1&#45;&gt;Node7</title>
<path fill="none" stroke="#191970" d="M315.887,-55.4179C302.7218,-46.8992 282.8123,-34.0166 267.4291,-24.0627"/>
<polygon fill="#191970" stroke="#191970" points="269.2771,-21.0897 258.9799,-18.5956 265.4743,-26.9667 269.2771,-21.0897"/>
</g>
<!-- Node8 -->
<g id="node9" class="node">
<title>Node8</title>
<g id="a_node9"><a xlink:title=" ">
<polygon fill="#ffffff" stroke="#bfbfbf" points="320.3049,-.5 320.3049,-18.5 373.5412,-18.5 373.5412,-.5 320.3049,-.5"/>
<text text-anchor="middle" x="346.9231" y="-6.5" font-family="Helvetica,sans-Serif" font-size="10.00" fill="#000000">complex</text>
</a>
</g>
</g>
<!-- Node1&#45;&gt;Node8 -->
<g id="edge8" class="edge">
<title>Node1&#45;&gt;Node8</title>
<path fill="none" stroke="#191970" d="M332.7303,-55.4179C334.9807,-48.1372 338.2163,-37.669 341.03,-28.5659"/>
<polygon fill="#191970" stroke="#191970" points="344.4457,-29.3671 344.0549,-18.7795 337.7578,-27.2999 344.4457,-29.3671"/>
</g>
<!-- Node9&#45;&gt;Node1 -->
<g id="edge10" class="edge">
<title>Node9&#45;&gt;Node1</title>
<path fill="none" stroke="#191970" d="M126.7775,-110.4795C168.7121,-100.9881 234.7975,-86.0305 280.1356,-75.7688"/>
<polygon fill="#191970" stroke="#191970" points="281.0663,-79.1467 290.0469,-73.5255 279.5209,-72.3194 281.0663,-79.1467"/>
</g>
<!-- Node9&#45;&gt;Node5 -->
<g id="edge12" class="edge">
<title>Node9&#45;&gt;Node5</title>
<path fill="none" stroke="#191970" d="M87.1686,-110.4982C87.6542,-92.6913 88.747,-52.6225 89.4008,-28.6515"/>
<polygon fill="#191970" stroke="#191970" points="92.9001,-28.7179 89.6742,-18.6261 85.9028,-28.527 92.9001,-28.7179"/>
</g>
<!-- Node9&#45;&gt;Node6 -->
<g id="edge13" class="edge">
<title>Node9&#45;&gt;Node6</title>
<path fill="none" stroke="#191970" d="M109.6914,-110.4804C144.3039,-97.0167 212.4292,-71.4857 271.9231,-55 344.5029,-34.8881 367.0188,-38.2002 443.8183,-19.0788"/>
<polygon fill="#191970" stroke="#191970" points="445.1477,-22.3524 453.9785,-16.4986 443.4247,-15.5677 445.1477,-22.3524"/>
</g>
<!-- Node10 -->
<g id="node11" class="node">
<title>Node10</title>
<g id="a_node11"><a xlink:title=" ">
<polygon fill="#ffffff" stroke="#bfbfbf" points="113.1965,-55.5 113.1965,-73.5 148.6496,-73.5 148.6496,-55.5 113.1965,-55.5"/>
<text text-anchor="middle" x="130.9231" y="-61.5" font-family="Helvetica,sans-Serif" font-size="10.00" fill="#000000">map</text>
</a>
</g>
</g>
<!-- Node9&#45;&gt;Node10 -->
<g id="edge11" class="edge">
<title>Node9&#45;&gt;Node10</title>
<path fill="none" stroke="#191970" d="M94.1888,-110.4179C100.3931,-102.6624 109.4911,-91.29 117.0803,-81.8035"/>
<polygon fill="#191970" stroke="#191970" points="119.9856,-83.7746 123.4995,-73.7795 114.5195,-79.4017 119.9856,-83.7746"/>
</g>
<!-- Node11&#45;&gt;Node1 -->
<g id="edge16" class="edge">
<title>Node11&#45;&gt;Node1</title>
<path fill="none" stroke="#191970" d="M117.8268,-165.4982C158.3516,-146.2007 253.781,-100.7581 301.5888,-77.9925"/>
<polygon fill="#191970" stroke="#191970" points="303.2343,-81.0856 310.7582,-73.6261 300.2248,-74.7655 303.2343,-81.0856"/>
</g>
<!-- Node11&#45;&gt;Node5 -->
<g id="edge18" class="edge">
<title>Node11&#45;&gt;Node5</title>
<path fill="none" stroke="#191970" d="M65.8847,-165.4836C47.716,-158.6508 26.7249,-147.2399 15.9231,-129 -6.485,-91.1619 39.3255,-47.3784 68.4139,-24.7705"/>
<polygon fill="#191970" stroke="#191970" points="70.5696,-27.5287 76.4576,-18.7206 66.3619,-21.9344 70.5696,-27.5287"/>
</g>
<!-- Node11&#45;&gt;Node9 -->
<g id="edge17" class="edge">
<title>Node11&#45;&gt;Node9</title>
<path fill="none" stroke="#191970" d="M96.9415,-165.4179C95.353,-158.1372 93.069,-147.669 91.0829,-138.5659"/>
<polygon fill="#191970" stroke="#191970" points="94.499,-137.8035 88.9477,-128.7795 87.6599,-139.2957 94.499,-137.8035"/>
</g>
<!-- Node11&#45;&gt;Node11 -->
<g id="edge15" class="edge">
<title>Node11&#45;&gt;Node11</title>
<path fill="none" stroke="#191970" d="M121.5993,-183.5349C137.8876,-186.4765 154.1125,-183.4648 154.1125,-174.5 154.1125,-167.4262 144.0106,-164.0589 131.7466,-164.3983"/>
<polygon fill="#191970" stroke="#191970" points="131.1785,-160.9386 121.5993,-165.4651 131.9105,-167.9003 131.1785,-160.9386"/>
</g>
<!-- Node12&#45;&gt;Node1 -->
<g id="edge20" class="edge">
<title>Node12&#45;&gt;Node1</title>
<path fill="none" stroke="#191970" d="M558.0487,-171.4806C486.6377,-164.7728 325.8788,-147.7365 309.9231,-129 298.6995,-115.8203 307.0766,-96.3866 316.1775,-82.2978"/>
<polygon fill="#191970" stroke="#191970" points="319.1725,-84.1234 322.064,-73.9307 313.4474,-80.0956 319.1725,-84.1234"/>
</g>
<!-- Node12&#45;&gt;Node3 -->
<g id="edge29" class="edge">
<title>Node12&#45;&gt;Node3</title>
<path fill="none" stroke="#191970" d="M625.9218,-172.889C683.7782,-169.3576 797.5052,-158.7216 821.9231,-129 845.316,-100.526 836.2467,-54.035 828.5009,-28.2372"/>
<polygon fill="#191970" stroke="#191970" points="831.7766,-26.9921 825.3608,-18.5608 825.1184,-29.1528 831.7766,-26.9921"/>
</g>
<!-- Node12&#45;&gt;Node4 -->
<g id="edge30" class="edge">
<title>Node12&#45;&gt;Node4</title>
<path fill="none" stroke="#191970" d="M557.8101,-168.8343C517.0156,-161.3559 452.1845,-147.006 435.9231,-129 410.9211,-101.3158 409.9624,-54.8596 411.7605,-28.774"/>
<polygon fill="#191970" stroke="#191970" points="415.2603,-28.9321 412.6709,-18.6586 408.2885,-28.3046 415.2603,-28.9321"/>
</g>
<!-- Node12&#45;&gt;Node5 -->
<g id="edge34" class="edge">
<title>Node12&#45;&gt;Node5</title>
<path fill="none" stroke="#191970" d="M557.8167,-173.0828C502.4785,-169.9268 390.3174,-159.9458 300.9231,-129 253.7249,-112.6613 246.3897,-98.6022 202.9231,-74 172.341,-56.6905 137.199,-36.6 114.3323,-23.5004"/>
<polygon fill="#191970" stroke="#191970" points="116.0403,-20.4453 105.6238,-18.5096 112.5596,-26.5186 116.0403,-20.4453"/>
</g>
<!-- Node12&#45;&gt;Node6 -->
<g id="edge35" class="edge">
<title>Node12&#45;&gt;Node6</title>
<path fill="none" stroke="#191970" d="M590.6173,-165.187C588.478,-152.1269 583.3751,-127.959 572.9231,-110 552.679,-75.216 517.9136,-43.2926 495.9646,-25.1408"/>
<polygon fill="#191970" stroke="#191970" points="497.9401,-22.2369 487.9653,-18.6657 493.5359,-27.6778 497.9401,-22.2369"/>
</g>
<!-- Node13 -->
<g id="node14" class="node">
<title>Node13</title>
<g id="a_node14"><a xlink:href="Ioss__Field_8h.html" target="_top" xlink:title=" ">
<polygon fill="#ffffff" stroke="#000000" points="318.9651,-110.5 318.9651,-128.5 388.8811,-128.5 388.8811,-110.5 318.9651,-110.5"/>
<text text-anchor="middle" x="353.9231" y="-116.5" font-family="Helvetica,sans-Serif" font-size="10.00" fill="#000000">Ioss_Field.h</text>
</a>
</g>
</g>
<!-- Node12&#45;&gt;Node13 -->
<g id="edge21" class="edge">
<title>Node12&#45;&gt;Node13</title>
<path fill="none" stroke="#191970" d="M558.0762,-166.6783C516.349,-157.0354 445.288,-140.6137 398.9774,-129.9117"/>
<polygon fill="#191970" stroke="#191970" points="399.7357,-126.4948 389.2044,-127.6532 398.1595,-133.315 399.7357,-126.4948"/>
</g>
<!-- Node14 -->
<g id="node15" class="node">
<title>Node14</title>
<g id="a_node15"><a xlink:title=" ">
<polygon fill="#ffffff" stroke="#bfbfbf" points="445.3591,-110.5 445.3591,-128.5 502.487,-128.5 502.487,-110.5 445.3591,-110.5"/>
<text text-anchor="middle" x="473.9231" y="-116.5" font-family="Helvetica,sans-Serif" font-size="10.00" fill="#000000">algorithm</text>
</a>
</g>
</g>
<!-- Node12&#45;&gt;Node14 -->
<g id="edge26" class="edge">
<title>Node12&#45;&gt;Node14</title>
<path fill="none" stroke="#191970" d="M572.4378,-165.4179C553.3926,-156.5409 524.1809,-142.9253 502.5069,-132.823"/>
<polygon fill="#191970" stroke="#191970" points="503.9798,-129.648 493.4373,-128.5956 501.0225,-135.9927 503.9798,-129.648"/>
</g>
<!-- Node12&#45;&gt;Node15 -->
<g id="edge27" class="edge">
<title>Node12&#45;&gt;Node15</title>
<path fill="none" stroke="#191970" d="M626.1211,-169.4078C676.4451,-161.7283 773.315,-146.2358 854.9231,-129 856.1581,-128.7392 857.4139,-128.4662 858.6808,-128.1842"/>
<polygon fill="#191970" stroke="#191970" points="859.5144,-131.5838 868.4547,-125.8986 857.9204,-124.7677 859.5144,-131.5838"/>
</g>
<!-- Node16 -->
<g id="node17" class="node">
<title>Node16</title>
<g id="a_node17"><a xlink:title=" ">
<polygon fill="#ffffff" stroke="#bfbfbf" points="520.3073,-110.5 520.3073,-128.5 563.5388,-128.5 563.5388,-110.5 520.3073,-110.5"/>
<text text-anchor="middle" x="541.9231" y="-116.5" font-family="Helvetica,sans-Serif" font-size="10.00" fill="#000000">cmath</text>
</a>
</g>
</g>
<!-- Node12&#45;&gt;Node16 -->
<g id="edge28" class="edge">
<title>Node12&#45;&gt;Node16</title>
<path fill="none" stroke="#191970" d="M583.6666,-165.4179C576.4723,-157.5041 565.8543,-145.8243 557.1277,-136.2251"/>
<polygon fill="#191970" stroke="#191970" points="559.6755,-133.8245 550.3589,-128.7795 554.4959,-138.5332 559.6755,-133.8245"/>
</g>
<!-- Node17 -->
<g id="node18" class="node">
<title>Node17</title>
<g id="a_node18"><a xlink:title=" ">
<polygon fill="#ffffff" stroke="#bfbfbf" points="619.7507,-110.5 619.7507,-128.5 664.0954,-128.5 664.0954,-110.5 619.7507,-110.5"/>
<text text-anchor="middle" x="641.9231" y="-116.5" font-family="Helvetica,sans-Serif" font-size="10.00" fill="#000000">cstdlib</text>
</a>
</g>
</g>
<!-- Node12&#45;&gt;Node17 -->
<g id="edge31" class="edge">
<title>Node12&#45;&gt;Node17</title>
<path fill="none" stroke="#191970" d="M600.1796,-165.4179C607.3739,-157.5041 617.9919,-145.8243 626.7184,-136.2251"/>
<polygon fill="#191970" stroke="#191970" points="629.3502,-138.5332 633.4872,-128.7795 624.1706,-133.8245 629.3502,-138.5332"/>
</g>
<!-- Node18 -->
<g id="node19" class="node">
<title>Node18</title>
<g id="a_node19"><a xlink:title=" ">
<polygon fill="#ffffff" stroke="#bfbfbf" points="681.7507,-110.5 681.7507,-128.5 736.0954,-128.5 736.0954,-110.5 681.7507,-110.5"/>
<text text-anchor="middle" x="708.9231" y="-116.5" font-family="Helvetica,sans-Serif" font-size="10.00" fill="#000000">iostream</text>
</a>
</g>
</g>
<!-- Node12&#45;&gt;Node18 -->
<g id="edge32" class="edge">
<title>Node12&#45;&gt;Node18</title>
<path fill="none" stroke="#191970" d="M611.2432,-165.4179C630.0423,-156.5807 658.8316,-143.0473 680.292,-132.9591"/>
<polygon fill="#191970" stroke="#191970" points="682.0133,-136.0174 689.5742,-128.5956 679.0352,-129.6824 682.0133,-136.0174"/>
</g>
<!-- Node19 -->
<g id="node20" class="node">
<title>Node19</title>
<g id="a_node20"><a xlink:title=" ">
<polygon fill="#ffffff" stroke="#bfbfbf" points="754.5217,-110.5 754.5217,-128.5 813.3244,-128.5 813.3244,-110.5 754.5217,-110.5"/>
<text text-anchor="middle" x="783.9231" y="-116.5" font-family="Helvetica,sans-Serif" font-size="10.00" fill="#000000">stdexcept</text>
</a>
</g>
</g>
<!-- Node12&#45;&gt;Node19 -->
<g id="edge33" class="edge">
<title>Node12&#45;&gt;Node19</title>
<path fill="none" stroke="#191970" d="M623.628,-165.4179C656.8268,-155.9078 709.0115,-140.959 744.7617,-130.7181"/>
<polygon fill="#191970" stroke="#191970" points="745.7304,-134.0815 754.3799,-127.9629 743.8027,-127.3521 745.7304,-134.0815"/>
</g>
<!-- Node13&#45;&gt;Node1 -->
<g id="edge22" class="edge">
<title>Node13&#45;&gt;Node1</title>
<path fill="none" stroke="#191970" d="M349.96,-110.4179C346.7139,-102.9789 342.0157,-92.2123 337.9845,-82.9742"/>
<polygon fill="#191970" stroke="#191970" points="341.1797,-81.545 333.9723,-73.7795 334.7639,-84.3447 341.1797,-81.545"/>
</g>
<!-- Node13&#45;&gt;Node3 -->
<g id="edge23" class="edge">
<title>Node13&#45;&gt;Node3</title>
<path fill="none" stroke="#191970" d="M389.0991,-111.2321C476.3233,-90.7307 701.7258,-37.7515 787.8126,-17.5174"/>
<polygon fill="#191970" stroke="#191970" points="788.6678,-20.9119 797.6017,-15.2166 787.0661,-14.0976 788.6678,-20.9119"/>
</g>
<!-- Node13&#45;&gt;Node5 -->
<g id="edge24" class="edge">
<title>Node13&#45;&gt;Node5</title>
<path fill="none" stroke="#191970" d="M332.3188,-110.4982C285.251,-90.8866 173.3759,-44.272 119.681,-21.8992"/>
<polygon fill="#191970" stroke="#191970" points="120.9378,-18.6312 110.3608,-18.0157 118.2454,-25.0927 120.9378,-18.6312"/>
</g>
<!-- Node13&#45;&gt;Node6 -->
<g id="edge25" class="edge">
<title>Node13&#45;&gt;Node6</title>
<path fill="none" stroke="#191970" d="M363.9068,-110.4982C384.55,-91.8856 432.1686,-48.9508 458.1777,-25.4999"/>
<polygon fill="#191970" stroke="#191970" points="460.7182,-27.922 465.8013,-18.6261 456.0307,-22.7231 460.7182,-27.922"/>
</g>
</g>
</svg>
