<?xml version="1.0" encoding="UTF-8" standalone="no"?>
<!DOCTYPE svg PUBLIC "-//W3C//DTD SVG 1.1//EN"
 "http://www.w3.org/Graphics/SVG/1.1/DTD/svg11.dtd">
<!-- Generated by graphviz version 2.40.1 (20161225.0304)
 -->
<!-- Title: src/Ioss_EdgeSet.C Pages: 1 -->
<svg width="2342pt" height="522pt"
 viewBox="0.00 0.00 2342.00 522.00" xmlns="http://www.w3.org/2000/svg" xmlns:xlink="http://www.w3.org/1999/xlink">
<g id="graph0" class="graph" transform="scale(1 1) rotate(0) translate(4 518)">
<title>src/Ioss_EdgeSet.C</title>
<polygon fill="#ffffff" stroke="transparent" points="-4,4 -4,-518 2338,-518 2338,4 -4,4"/>
<!-- Node0 -->
<g id="node1" class="node">
<title>Node0</title>
<g id="a_node1"><a xlink:title=" ">
<polygon fill="#bfbfbf" stroke="#000000" points="1569.813,-495.5 1569.813,-513.5 1674.187,-513.5 1674.187,-495.5 1569.813,-495.5"/>
<text text-anchor="middle" x="1622" y="-501.5" font-family="Helvetica,sans-Serif" font-size="10.00" fill="#000000">src/Ioss_EdgeSet.C</text>
</a>
</g>
</g>
<!-- Node1 -->
<g id="node2" class="node">
<title>Node1</title>
<g id="a_node2"><a xlink:href="Ioss__DatabaseIO_8h.html" target="_top" xlink:title=" ">
<polygon fill="#ffffff" stroke="#000000" points="712.1973,-275.5 712.1973,-293.5 813.8027,-293.5 813.8027,-275.5 712.1973,-275.5"/>
<text text-anchor="middle" x="763" y="-281.5" font-family="Helvetica,sans-Serif" font-size="10.00" fill="#000000">Ioss_DatabaseIO.h</text>
</a>
</g>
</g>
<!-- Node0&#45;&gt;Node1 -->
<g id="edge1" class="edge">
<title>Node0&#45;&gt;Node1</title>
<path fill="none" stroke="#191970" d="M1569.7003,-502.1908C1431.5329,-495.8659 1063.8208,-477.4978 1012,-459 912.6273,-423.5283 816.634,-337.0671 779.3241,-300.8656"/>
<polygon fill="#191970" stroke="#191970" points="781.4749,-298.072 771.8897,-293.5581 776.5679,-303.0642 781.4749,-298.072"/>
</g>
<!-- Node5 -->
<g id="node6" class="node">
<title>Node5</title>
<g id="a_node6"><a xlink:title=" ">
<polygon fill="#ffffff" stroke="#bfbfbf" points="2043.8794,-.5 2043.8794,-18.5 2092.1206,-18.5 2092.1206,-.5 2043.8794,-.5"/>
<text text-anchor="middle" x="2068" y="-6.5" font-family="Helvetica,sans-Serif" font-size="10.00" fill="#000000">cstddef</text>
</a>
</g>
</g>
<!-- Node0&#45;&gt;Node5 -->
<g id="edge102" class="edge">
<title>Node0&#45;&gt;Node5</title>
<path fill="none" stroke="#191970" d="M1674.3551,-501.9314C1838.7827,-493.1748 2334,-461.2602 2334,-394.5 2334,-394.5 2334,-394.5 2334,-119.5 2334,-79.4278 2305.9957,-74.5213 2271,-55 2217.0608,-24.9116 2144.601,-14.7181 2102.433,-11.2661"/>
<polygon fill="#191970" stroke="#191970" points="2102.6251,-7.7708 2092.3947,-10.5257 2102.1102,-14.7519 2102.6251,-7.7708"/>
</g>
<!-- Node7 -->
<g id="node8" class="node">
<title>Node7</title>
<g id="a_node8"><a xlink:title=" ">
<polygon fill="#ffffff" stroke="#bfbfbf" points="1550.7734,-.5 1550.7734,-18.5 1591.2266,-18.5 1591.2266,-.5 1550.7734,-.5"/>
<text text-anchor="middle" x="1571" y="-6.5" font-family="Helvetica,sans-Serif" font-size="10.00" fill="#000000">string</text>
</a>
</g>
</g>
<!-- Node0&#45;&gt;Node7 -->
<g id="edge103" class="edge">
<title>Node0&#45;&gt;Node7</title>
<path fill="none" stroke="#191970" d="M1674.2001,-502.7455C1792.4023,-497.4987 2074.278,-477.3848 2126,-404 2144.9541,-377.1074 2130.5199,-362.8043 2128,-330 2118.1608,-201.9137 2155.1643,-109.8523 2039,-55 1960.9727,-18.1559 1692.6612,-11.135 1601.5522,-9.807"/>
<polygon fill="#191970" stroke="#191970" points="1601.39,-6.3046 1591.3445,-9.6716 1601.2972,-13.304 1601.39,-6.3046"/>
</g>
<!-- Node8 -->
<g id="node9" class="node">
<title>Node8</title>
<g id="a_node9"><a xlink:title=" ">
<polygon fill="#ffffff" stroke="#bfbfbf" points="557.3843,-.5 557.3843,-18.5 600.6157,-18.5 600.6157,-.5 557.3843,-.5"/>
<text text-anchor="middle" x="579" y="-6.5" font-family="Helvetica,sans-Serif" font-size="10.00" fill="#000000">vector</text>
</a>
</g>
</g>
<!-- Node0&#45;&gt;Node8 -->
<g id="edge104" class="edge">
<title>Node0&#45;&gt;Node8</title>
<path fill="none" stroke="#191970" d="M1569.7487,-503.6674C1295.8273,-498.9676 38,-473.1068 38,-394.5 38,-394.5 38,-394.5 38,-284.5 38,-54.6134 430.9895,-16.8273 547.0796,-10.6803"/>
<polygon fill="#191970" stroke="#191970" points="547.3038,-14.1737 557.1221,-10.1922 546.964,-7.1819 547.3038,-14.1737"/>
</g>
<!-- Node18 -->
<g id="node19" class="node">
<title>Node18</title>
<g id="a_node19"><a xlink:href="Ioss__Field_8h.html" target="_top" xlink:title=" ">
<polygon fill="#ffffff" stroke="#000000" points="1548.042,-110.5 1548.042,-128.5 1617.958,-128.5 1617.958,-110.5 1548.042,-110.5"/>
<text text-anchor="middle" x="1583" y="-116.5" font-family="Helvetica,sans-Serif" font-size="10.00" fill="#000000">Ioss_Field.h</text>
</a>
</g>
</g>
<!-- Node0&#45;&gt;Node18 -->
<g id="edge100" class="edge">
<title>Node0&#45;&gt;Node18</title>
<path fill="none" stroke="#191970" d="M1674.6526,-498.2533C1801.5752,-482.4853 2114,-439.138 2114,-394.5 2114,-394.5 2114,-394.5 2114,-339.5 2114,-228.3967 2035.0132,-213.387 1935,-165 1881.8063,-139.2646 1710.7375,-126.5518 1628.2773,-121.794"/>
<polygon fill="#191970" stroke="#191970" points="1628.3802,-118.2943 1618.1993,-121.2267 1627.9868,-125.2832 1628.3802,-118.2943"/>
</g>
<!-- Node25 -->
<g id="node26" class="node">
<title>Node25</title>
<g id="a_node26"><a xlink:href="Ioss__Property_8h.html" target="_top" xlink:title=" ">
<polygon fill="#ffffff" stroke="#000000" points="626.3516,-165.5 626.3516,-183.5 711.6484,-183.5 711.6484,-165.5 626.3516,-165.5"/>
<text text-anchor="middle" x="669" y="-171.5" font-family="Helvetica,sans-Serif" font-size="10.00" fill="#000000">Ioss_Property.h</text>
</a>
</g>
</g>
<!-- Node0&#45;&gt;Node25 -->
<g id="edge101" class="edge">
<title>Node0&#45;&gt;Node25</title>
<path fill="none" stroke="#191970" d="M1569.6313,-500.3415C1424.1963,-488.0962 1026,-449.5431 1026,-394.5 1026,-394.5 1026,-394.5 1026,-284.5 1026,-254.6154 1029.7814,-239.3415 1007,-220 959.7198,-179.8589 796.706,-192.9604 721.8468,-184.4931"/>
<polygon fill="#191970" stroke="#191970" points="722.2688,-181.0184 711.8901,-183.1473 721.3312,-187.9553 722.2688,-181.0184"/>
</g>
<!-- Node31 -->
<g id="node32" class="node">
<title>Node31</title>
<g id="a_node32"><a xlink:href="Ioss__EdgeSet_8h.html" target="_top" xlink:title=" ">
<polygon fill="#ffffff" stroke="#000000" points="1365.6973,-440.5 1365.6973,-458.5 1452.3027,-458.5 1452.3027,-440.5 1365.6973,-440.5"/>
<text text-anchor="middle" x="1409" y="-446.5" font-family="Helvetica,sans-Serif" font-size="10.00" fill="#000000">Ioss_EdgeSet.h</text>
</a>
</g>
</g>
<!-- Node0&#45;&gt;Node31 -->
<g id="edge61" class="edge">
<title>Node0&#45;&gt;Node31</title>
<path fill="none" stroke="#191970" d="M1586.8274,-495.4179C1550.4135,-486.0152 1493.4104,-471.2961 1453.7958,-461.067"/>
<polygon fill="#191970" stroke="#191970" points="1454.4284,-457.6156 1443.8709,-458.5042 1452.6782,-464.3933 1454.4284,-457.6156"/>
</g>
<!-- Node32 -->
<g id="node33" class="node">
<title>Node32</title>
<g id="a_node33"><a xlink:href="Ioss__EntitySet_8h.html" target="_top" xlink:title=" ">
<polygon fill="#ffffff" stroke="#000000" points="1613.8696,-385.5 1613.8696,-403.5 1702.1304,-403.5 1702.1304,-385.5 1613.8696,-385.5"/>
<text text-anchor="middle" x="1658" y="-391.5" font-family="Helvetica,sans-Serif" font-size="10.00" fill="#000000">Ioss_EntitySet.h</text>
</a>
</g>
</g>
<!-- Node0&#45;&gt;Node32 -->
<g id="edge105" class="edge">
<title>Node0&#45;&gt;Node32</title>
<path fill="none" stroke="#191970" d="M1624.946,-495.4982C1630.8001,-477.6108 1644.006,-437.2594 1651.8384,-413.3271"/>
<polygon fill="#191970" stroke="#191970" points="1655.2292,-414.2188 1655.0133,-403.6261 1648.5764,-412.0415 1655.2292,-414.2188"/>
</g>
<!-- Node33 -->
<g id="node34" class="node">
<title>Node33</title>
<g id="a_node34"><a xlink:href="Ioss__GroupingEntity_8h.html" target="_top" xlink:title=" ">
<polygon fill="#ffffff" stroke="#000000" points="1529.1743,-330.5 1529.1743,-348.5 1642.8257,-348.5 1642.8257,-330.5 1529.1743,-330.5"/>
<text text-anchor="middle" x="1586" y="-336.5" font-family="Helvetica,sans-Serif" font-size="10.00" fill="#000000">Ioss_GroupingEntity.h</text>
</a>
</g>
</g>
<!-- Node0&#45;&gt;Node33 -->
<g id="edge107" class="edge">
<title>Node0&#45;&gt;Node33</title>
<path fill="none" stroke="#191970" d="M1619.9613,-495.1561C1614.2437,-468.9504 1597.9685,-394.3557 1590.2114,-358.8021"/>
<polygon fill="#191970" stroke="#191970" points="1593.5676,-357.7654 1588.0163,-348.7414 1586.7285,-359.2577 1593.5676,-357.7654"/>
</g>
<!-- Node34 -->
<g id="node35" class="node">
<title>Node34</title>
<g id="a_node35"><a xlink:href="Ioss__FieldManager_8h.html" target="_top" xlink:title=" ">
<polygon fill="#ffffff" stroke="#000000" points="1663.5815,-220.5 1663.5815,-238.5 1772.4185,-238.5 1772.4185,-220.5 1663.5815,-220.5"/>
<text text-anchor="middle" x="1718" y="-226.5" font-family="Helvetica,sans-Serif" font-size="10.00" fill="#000000">Ioss_FieldManager.h</text>
</a>
</g>
</g>
<!-- Node0&#45;&gt;Node34 -->
<g id="edge106" class="edge">
<title>Node0&#45;&gt;Node34</title>
<path fill="none" stroke="#191970" d="M1641.8089,-495.49C1672.9875,-479.7914 1730,-444.2795 1730,-394.5 1730,-394.5 1730,-394.5 1730,-339.5 1730,-307.4364 1724.8991,-270.4241 1721.3487,-248.5454"/>
<polygon fill="#191970" stroke="#191970" points="1724.7839,-247.8682 1719.6685,-238.5901 1717.8815,-249.0331 1724.7839,-247.8682"/>
</g>
<!-- Node2 -->
<g id="node3" class="node">
<title>Node2</title>
<g id="a_node3"><a xlink:href="Ioss__BoundingBox_8h.html" target="_top" xlink:title=" ">
<polygon fill="#ffffff" stroke="#000000" points="256.1333,-220.5 256.1333,-238.5 363.8667,-238.5 363.8667,-220.5 256.1333,-220.5"/>
<text text-anchor="middle" x="310" y="-226.5" font-family="Helvetica,sans-Serif" font-size="10.00" fill="#000000">Ioss_BoundingBox.h</text>
</a>
</g>
</g>
<!-- Node1&#45;&gt;Node2 -->
<g id="edge2" class="edge">
<title>Node1&#45;&gt;Node2</title>
<path fill="none" stroke="#191970" d="M711.8907,-278.8083C638.1085,-270.5126 497.4877,-254.4055 378,-239 376.7365,-238.8371 375.46,-238.6712 374.1737,-238.503"/>
<polygon fill="#191970" stroke="#191970" points="374.5506,-235.0224 364.1766,-237.1741 373.6282,-241.9613 374.5506,-235.0224"/>
</g>
<!-- Node3 -->
<g id="node4" class="node">
<title>Node3</title>
<g id="a_node4"><a xlink:href="Ioss__CodeTypes_8h.html" target="_top" xlink:title=" ">
<polygon fill="#ffffff" stroke="#000000" points="1090.584,-55.5 1090.584,-73.5 1189.416,-73.5 1189.416,-55.5 1090.584,-55.5"/>
<text text-anchor="middle" x="1140" y="-61.5" font-family="Helvetica,sans-Serif" font-size="10.00" fill="#000000">Ioss_CodeTypes.h</text>
</a>
</g>
</g>
<!-- Node1&#45;&gt;Node3 -->
<g id="edge3" class="edge">
<title>Node1&#45;&gt;Node3</title>
<path fill="none" stroke="#191970" d="M813.8492,-278.8804C875.3259,-271.4252 974.5863,-257.0743 1007,-239 1071.7988,-202.8673 1114.9848,-120.7041 1131.9356,-83.4696"/>
<polygon fill="#191970" stroke="#191970" points="1135.3481,-84.4057 1136.1839,-73.8439 1128.9441,-81.5792 1135.3481,-84.4057"/>
</g>
<!-- Node1&#45;&gt;Node5 -->
<g id="edge55" class="edge">
<title>Node1&#45;&gt;Node5</title>
<path fill="none" stroke="#191970" d="M813.9628,-283.5273C1029.1501,-279.2849 1854.6525,-261.5967 1905,-239 1997.912,-197.2997 2022.9939,-167.2205 2064,-74 2070.2193,-59.8614 2070.9062,-42.2758 2070.2125,-29.0397"/>
<polygon fill="#191970" stroke="#191970" points="2073.6712,-28.3979 2069.3518,-18.7236 2066.6954,-28.98 2073.6712,-28.3979"/>
</g>
<!-- Node6 -->
<g id="node7" class="node">
<title>Node6</title>
<g id="a_node7"><a xlink:title=" ">
<polygon fill="#ffffff" stroke="#bfbfbf" points="167.5493,-.5 167.5493,-18.5 212.4507,-18.5 212.4507,-.5 167.5493,-.5"/>
<text text-anchor="middle" x="190" y="-6.5" font-family="Helvetica,sans-Serif" font-size="10.00" fill="#000000">cstdint</text>
</a>
</g>
</g>
<!-- Node1&#45;&gt;Node6 -->
<g id="edge56" class="edge">
<title>Node1&#45;&gt;Node6</title>
<path fill="none" stroke="#191970" d="M712.0149,-282.8121C586.8764,-278.2926 271.8449,-264.4954 232,-239 160.9089,-193.5113 159.6092,-155.5856 138,-74 135.8379,-65.837 134.5106,-62.6898 138,-55 143.6539,-42.54 154.5926,-32.1506 164.9844,-24.4602"/>
<polygon fill="#191970" stroke="#191970" points="167.19,-27.1916 173.4568,-18.6489 163.2305,-21.4191 167.19,-27.1916"/>
</g>
<!-- Node1&#45;&gt;Node7 -->
<g id="edge58" class="edge">
<title>Node1&#45;&gt;Node7</title>
<path fill="none" stroke="#191970" d="M813.9778,-279.4996C869.0413,-273.2796 958.9636,-260.7333 1034,-239 1215.9581,-186.2984 1253.2116,-149.3911 1427,-74 1466.9634,-56.6635 1512.8429,-35.9766 1541.8678,-22.7915"/>
<polygon fill="#191970" stroke="#191970" points="1543.3784,-25.9495 1551.032,-18.6233 1540.4802,-19.5776 1543.3784,-25.9495"/>
</g>
<!-- Node1&#45;&gt;Node8 -->
<g id="edge60" class="edge">
<title>Node1&#45;&gt;Node8</title>
<path fill="none" stroke="#191970" d="M712.0488,-280.8187C624.3778,-274.0007 452.4713,-258.3272 433,-239 374.4684,-180.9015 358.7859,-120.4212 409,-55 425.7054,-33.2355 502.6446,-19.6145 547.0789,-13.4231"/>
<polygon fill="#191970" stroke="#191970" points="547.6467,-16.8783 557.0911,-12.0769 546.7139,-9.9407 547.6467,-16.8783"/>
</g>
<!-- Node11 -->
<g id="node12" class="node">
<title>Node11</title>
<g id="a_node12"><a xlink:href="Ioss__DBUsage_8h.html" target="_top" xlink:title=" ">
<polygon fill="#ffffff" stroke="#000000" points="458.4805,-220.5 458.4805,-238.5 549.5195,-238.5 549.5195,-220.5 458.4805,-220.5"/>
<text text-anchor="middle" x="504" y="-226.5" font-family="Helvetica,sans-Serif" font-size="10.00" fill="#000000">Ioss_DBUsage.h</text>
</a>
</g>
</g>
<!-- Node1&#45;&gt;Node11 -->
<g id="edge11" class="edge">
<title>Node1&#45;&gt;Node11</title>
<path fill="none" stroke="#191970" d="M720.5214,-275.4795C675.6378,-265.9482 604.7967,-250.9047 556.4578,-240.6397"/>
<polygon fill="#191970" stroke="#191970" points="557.0107,-237.1791 546.5018,-238.5255 555.5566,-244.0264 557.0107,-237.1791"/>
</g>
<!-- Node12 -->
<g id="node13" class="node">
<title>Node12</title>
<g id="a_node13"><a xlink:href="Ioss__DataSize_8h.html" target="_top" xlink:title=" ">
<polygon fill="#ffffff" stroke="#000000" points="605.5913,-220.5 605.5913,-238.5 694.4087,-238.5 694.4087,-220.5 605.5913,-220.5"/>
<text text-anchor="middle" x="650" y="-226.5" font-family="Helvetica,sans-Serif" font-size="10.00" fill="#000000">Ioss_DataSize.h</text>
</a>
</g>
</g>
<!-- Node1&#45;&gt;Node12 -->
<g id="edge12" class="edge">
<title>Node1&#45;&gt;Node12</title>
<path fill="none" stroke="#191970" d="M744.3403,-275.4179C726.2658,-266.6205 698.6292,-253.1691 677.9328,-243.0956"/>
<polygon fill="#191970" stroke="#191970" points="679.2106,-239.825 668.6874,-238.5956 676.1471,-246.1191 679.2106,-239.825"/>
</g>
<!-- Node13 -->
<g id="node14" class="node">
<title>Node13</title>
<g id="a_node14"><a xlink:href="Ioss__EntityType_8h.html" target="_top" xlink:title=" ">
<polygon fill="#ffffff" stroke="#000000" points="1257.5322,-220.5 1257.5322,-238.5 1352.4678,-238.5 1352.4678,-220.5 1257.5322,-220.5"/>
<text text-anchor="middle" x="1305" y="-226.5" font-family="Helvetica,sans-Serif" font-size="10.00" fill="#000000">Ioss_EntityType.h</text>
</a>
</g>
</g>
<!-- Node1&#45;&gt;Node13 -->
<g id="edge13" class="edge">
<title>Node1&#45;&gt;Node13</title>
<path fill="none" stroke="#191970" d="M813.8658,-280.9949C900.6633,-274.7392 1083.1467,-260.3949 1247.1046,-239.1698"/>
<polygon fill="#191970" stroke="#191970" points="1247.9154,-242.5937 1257.3776,-237.8276 1247.0084,-235.6527 1247.9154,-242.5937"/>
</g>
<!-- Node14 -->
<g id="node15" class="node">
<title>Node14</title>
<g id="a_node15"><a xlink:href="Ioss__Map_8h.html" target="_top" xlink:title=" ">
<polygon fill="#ffffff" stroke="#000000" points="464.1528,-110.5 464.1528,-128.5 531.8472,-128.5 531.8472,-110.5 464.1528,-110.5"/>
<text text-anchor="middle" x="498" y="-116.5" font-family="Helvetica,sans-Serif" font-size="10.00" fill="#000000">Ioss_Map.h</text>
</a>
</g>
</g>
<!-- Node1&#45;&gt;Node14 -->
<g id="edge14" class="edge">
<title>Node1&#45;&gt;Node14</title>
<path fill="none" stroke="#191970" d="M711.8917,-280.718C627.3432,-273.9377 465.943,-258.575 449,-239 427.4761,-214.1324 435.8537,-195.1472 449,-165 454.3117,-152.8192 464.6701,-142.4343 474.5001,-134.6748"/>
<polygon fill="#191970" stroke="#191970" points="476.8613,-137.2839 482.8623,-128.5524 472.7261,-131.6358 476.8613,-137.2839"/>
</g>
<!-- Node15 -->
<g id="node16" class="node">
<title>Node15</title>
<g id="a_node16"><a xlink:title=" ">
<polygon fill="#ffffff" stroke="#bfbfbf" points="417.6084,-55.5 417.6084,-73.5 456.3916,-73.5 456.3916,-55.5 417.6084,-55.5"/>
<text text-anchor="middle" x="437" y="-61.5" font-family="Helvetica,sans-Serif" font-size="10.00" fill="#000000">utility</text>
</a>
</g>
</g>
<!-- Node1&#45;&gt;Node15 -->
<g id="edge59" class="edge">
<title>Node1&#45;&gt;Node15</title>
<path fill="none" stroke="#191970" d="M712.0693,-283.8256C588.0068,-281.6562 278.0122,-272.8671 247,-239 185.7209,-172.0797 340.436,-101.7884 407.6481,-75.3754"/>
<polygon fill="#191970" stroke="#191970" points="409.1986,-78.5286 417.2662,-71.6609 406.6767,-71.9986 409.1986,-78.5286"/>
</g>
<!-- Node16 -->
<g id="node17" class="node">
<title>Node16</title>
<g id="a_node17"><a xlink:href="Ioss__ParallelUtils_8h.html" target="_top" xlink:title=" ">
<polygon fill="#ffffff" stroke="#000000" points="896.4829,-220.5 896.4829,-238.5 997.5171,-238.5 997.5171,-220.5 896.4829,-220.5"/>
<text text-anchor="middle" x="947" y="-226.5" font-family="Helvetica,sans-Serif" font-size="10.00" fill="#000000">Ioss_ParallelUtils.h</text>
</a>
</g>
</g>
<!-- Node1&#45;&gt;Node16 -->
<g id="edge21" class="edge">
<title>Node1&#45;&gt;Node16</title>
<path fill="none" stroke="#191970" d="M793.3839,-275.4179C824.506,-266.115 873.0386,-251.608 907.2083,-241.3943"/>
<polygon fill="#191970" stroke="#191970" points="908.2981,-244.7216 916.8768,-238.5042 906.2933,-238.0148 908.2981,-244.7216"/>
</g>
<!-- Node24 -->
<g id="node25" class="node">
<title>Node24</title>
<g id="a_node25"><a xlink:href="Ioss__PropertyManager_8h.html" target="_top" xlink:title=" ">
<polygon fill="#ffffff" stroke="#000000" points="1445.5225,-220.5 1445.5225,-238.5 1570.4775,-238.5 1570.4775,-220.5 1445.5225,-220.5"/>
<text text-anchor="middle" x="1508" y="-226.5" font-family="Helvetica,sans-Serif" font-size="10.00" fill="#000000">Ioss_PropertyManager.h</text>
</a>
</g>
</g>
<!-- Node1&#45;&gt;Node24 -->
<g id="edge43" class="edge">
<title>Node1&#45;&gt;Node24</title>
<path fill="none" stroke="#191970" d="M813.9137,-280.7413C943.2571,-271.1924 1284.8605,-245.9734 1435.2135,-234.8735"/>
<polygon fill="#191970" stroke="#191970" points="1435.5545,-238.3579 1445.2697,-234.1311 1435.0391,-231.3769 1435.5545,-238.3579"/>
</g>
<!-- Node27 -->
<g id="node28" class="node">
<title>Node27</title>
<g id="a_node28"><a xlink:href="Ioss__State_8h.html" target="_top" xlink:title=" ">
<polygon fill="#ffffff" stroke="#000000" points="1168.2046,-220.5 1168.2046,-238.5 1239.7954,-238.5 1239.7954,-220.5 1168.2046,-220.5"/>
<text text-anchor="middle" x="1204" y="-226.5" font-family="Helvetica,sans-Serif" font-size="10.00" fill="#000000">Ioss_State.h</text>
</a>
</g>
</g>
<!-- Node1&#45;&gt;Node27 -->
<g id="edge52" class="edge">
<title>Node1&#45;&gt;Node27</title>
<path fill="none" stroke="#191970" d="M814.0819,-279.7389C888.8968,-272.498 1032.5715,-257.5763 1154,-239 1155.2774,-238.8046 1156.572,-238.6005 1157.8777,-238.3893"/>
<polygon fill="#191970" stroke="#191970" points="1158.7353,-241.7936 1168.0031,-236.6597 1157.5566,-234.8936 1158.7353,-241.7936"/>
</g>
<!-- Node28 -->
<g id="node29" class="node">
<title>Node28</title>
<g id="a_node29"><a xlink:href="Ioss__SurfaceSplit_8h.html" target="_top" xlink:title=" ">
<polygon fill="#ffffff" stroke="#000000" points="711.9214,-220.5 711.9214,-238.5 814.0786,-238.5 814.0786,-220.5 711.9214,-220.5"/>
<text text-anchor="middle" x="763" y="-226.5" font-family="Helvetica,sans-Serif" font-size="10.00" fill="#000000">Ioss_SurfaceSplit.h</text>
</a>
</g>
</g>
<!-- Node1&#45;&gt;Node28 -->
<g id="edge53" class="edge">
<title>Node1&#45;&gt;Node28</title>
<path fill="none" stroke="#191970" d="M763,-275.4179C763,-268.2164 763,-257.8962 763,-248.8632"/>
<polygon fill="#191970" stroke="#191970" points="766.5001,-248.7794 763,-238.7795 759.5001,-248.7795 766.5001,-248.7794"/>
</g>
<!-- Node29 -->
<g id="node30" class="node">
<title>Node29</title>
<g id="a_node30"><a xlink:title=" ">
<polygon fill="#ffffff" stroke="#bfbfbf" points="831.7119,-220.5 831.7119,-238.5 878.2881,-238.5 878.2881,-220.5 831.7119,-220.5"/>
<text text-anchor="middle" x="855" y="-226.5" font-family="Helvetica,sans-Serif" font-size="10.00" fill="#000000">chrono</text>
</a>
</g>
</g>
<!-- Node1&#45;&gt;Node29 -->
<g id="edge54" class="edge">
<title>Node1&#45;&gt;Node29</title>
<path fill="none" stroke="#191970" d="M778.1919,-275.4179C792.5746,-266.8195 814.3939,-253.7754 831.1061,-243.7844"/>
<polygon fill="#191970" stroke="#191970" points="832.9983,-246.731 839.7855,-238.5956 829.4064,-240.7228 832.9983,-246.731"/>
</g>
<!-- Node30 -->
<g id="node31" class="node">
<title>Node30</title>
<g id="a_node31"><a xlink:title=" ">
<polygon fill="#ffffff" stroke="#bfbfbf" points="458.2734,-165.5 458.2734,-183.5 493.7266,-183.5 493.7266,-165.5 458.2734,-165.5"/>
<text text-anchor="middle" x="476" y="-171.5" font-family="Helvetica,sans-Serif" font-size="10.00" fill="#000000">map</text>
</a>
</g>
</g>
<!-- Node1&#45;&gt;Node30 -->
<g id="edge57" class="edge">
<title>Node1&#45;&gt;Node30</title>
<path fill="none" stroke="#191970" d="M719.8463,-275.45C685.83,-267.6586 637.5382,-255.1273 597,-239 587.2864,-235.1356 533.9325,-206.2058 501.4013,-188.4284"/>
<polygon fill="#191970" stroke="#191970" points="502.891,-185.254 492.4383,-183.5248 499.5312,-191.395 502.891,-185.254"/>
</g>
<!-- Node4 -->
<g id="node5" class="node">
<title>Node4</title>
<g id="a_node5"><a xlink:title=" ">
<polygon fill="#ffffff" stroke="#bfbfbf" points="1120.6084,-.5 1120.6084,-18.5 1159.3916,-18.5 1159.3916,-.5 1120.6084,-.5"/>
<text text-anchor="middle" x="1140" y="-6.5" font-family="Helvetica,sans-Serif" font-size="10.00" fill="#000000">array</text>
</a>
</g>
</g>
<!-- Node3&#45;&gt;Node4 -->
<g id="edge4" class="edge">
<title>Node3&#45;&gt;Node4</title>
<path fill="none" stroke="#191970" d="M1140,-55.4179C1140,-48.2164 1140,-37.8962 1140,-28.8632"/>
<polygon fill="#191970" stroke="#191970" points="1143.5001,-28.7794 1140,-18.7795 1136.5001,-28.7795 1143.5001,-28.7794"/>
</g>
<!-- Node3&#45;&gt;Node5 -->
<g id="edge5" class="edge">
<title>Node3&#45;&gt;Node5</title>
<path fill="none" stroke="#191970" d="M1189.5652,-61.5624C1355.9384,-51.7019 1891.9382,-19.9347 2033.4656,-11.5468"/>
<polygon fill="#191970" stroke="#191970" points="2033.9348,-15.0252 2043.7102,-10.9396 2033.5206,-8.0374 2033.9348,-15.0252"/>
</g>
<!-- Node3&#45;&gt;Node6 -->
<g id="edge6" class="edge">
<title>Node3&#45;&gt;Node6</title>
<path fill="none" stroke="#191970" d="M1090.2614,-61.6204C920.0335,-51.7651 363.5309,-19.5465 222.6436,-11.3899"/>
<polygon fill="#191970" stroke="#191970" points="222.6784,-7.8861 212.4928,-10.8022 222.2738,-14.8744 222.6784,-7.8861"/>
</g>
<!-- Node3&#45;&gt;Node7 -->
<g id="edge7" class="edge">
<title>Node3&#45;&gt;Node7</title>
<path fill="none" stroke="#191970" d="M1189.5046,-56.9077C1194.0649,-56.2467 1198.6166,-55.6014 1203,-55 1328.102,-37.8369 1477.543,-20.2625 1540.5784,-12.9834"/>
<polygon fill="#191970" stroke="#191970" points="1541.0957,-16.4471 1550.6294,-11.8255 1540.2945,-9.493 1541.0957,-16.4471"/>
</g>
<!-- Node3&#45;&gt;Node8 -->
<g id="edge8" class="edge">
<title>Node3&#45;&gt;Node8</title>
<path fill="none" stroke="#191970" d="M1090.215,-59.6191C977.2488,-48.544 704.0981,-21.7645 610.8317,-12.6208"/>
<polygon fill="#191970" stroke="#191970" points="611.1632,-9.1366 600.8694,-11.6441 610.4801,-16.1032 611.1632,-9.1366"/>
</g>
<!-- Node9 -->
<g id="node10" class="node">
<title>Node9</title>
<g id="a_node10"><a xlink:title=" ">
<polygon fill="#ffffff" stroke="#bfbfbf" points="1177.2515,-.5 1177.2515,-18.5 1292.7485,-18.5 1292.7485,-.5 1177.2515,-.5"/>
<text text-anchor="middle" x="1235" y="-6.5" font-family="Helvetica,sans-Serif" font-size="10.00" fill="#000000">SEACASIoss_config.h</text>
</a>
</g>
</g>
<!-- Node3&#45;&gt;Node9 -->
<g id="edge9" class="edge">
<title>Node3&#45;&gt;Node9</title>
<path fill="none" stroke="#191970" d="M1155.6873,-55.4179C1170.539,-46.8195 1193.0698,-33.7754 1210.3269,-23.7844"/>
<polygon fill="#191970" stroke="#191970" points="1212.3887,-26.635 1219.2894,-18.5956 1208.8815,-20.577 1212.3887,-26.635"/>
</g>
<!-- Node10 -->
<g id="node11" class="node">
<title>Node10</title>
<g id="a_node11"><a xlink:title=" ">
<polygon fill="#ffffff" stroke="#bfbfbf" points="1049.3818,-.5 1049.3818,-18.5 1102.6182,-18.5 1102.6182,-.5 1049.3818,-.5"/>
<text text-anchor="middle" x="1076" y="-6.5" font-family="Helvetica,sans-Serif" font-size="10.00" fill="#000000">complex</text>
</a>
</g>
</g>
<!-- Node3&#45;&gt;Node10 -->
<g id="edge10" class="edge">
<title>Node3&#45;&gt;Node10</title>
<path fill="none" stroke="#191970" d="M1129.4317,-55.4179C1119.9467,-47.2667 1105.8125,-35.1201 1094.4634,-25.3669"/>
<polygon fill="#191970" stroke="#191970" points="1096.6633,-22.6427 1086.7979,-18.7795 1092.1009,-27.9516 1096.6633,-22.6427"/>
</g>
<!-- Node14&#45;&gt;Node3 -->
<g id="edge15" class="edge">
<title>Node14&#45;&gt;Node3</title>
<path fill="none" stroke="#191970" d="M532.0044,-112.2508C536.6917,-111.4036 541.455,-110.6216 546,-110 740.3748,-83.4165 972.8165,-71.2473 1080.2,-66.7263"/>
<polygon fill="#191970" stroke="#191970" points="1080.6588,-70.2104 1090.5055,-66.2999 1080.3693,-63.2164 1080.6588,-70.2104"/>
</g>
<!-- Node14&#45;&gt;Node5 -->
<g id="edge16" class="edge">
<title>Node14&#45;&gt;Node5</title>
<path fill="none" stroke="#191970" d="M532.0991,-116.616C555.8848,-114.6439 588.3671,-112.0298 617,-110 875.0698,-91.7051 939.8795,-91.5645 1198,-74 1523.3015,-51.864 1916.7273,-21.3453 2033.6574,-12.1965"/>
<polygon fill="#191970" stroke="#191970" points="2034.0934,-15.6731 2043.7896,-11.403 2033.5469,-8.6945 2034.0934,-15.6731"/>
</g>
<!-- Node14&#45;&gt;Node6 -->
<g id="edge17" class="edge">
<title>Node14&#45;&gt;Node6</title>
<path fill="none" stroke="#191970" d="M496.0721,-110.3036C492.5602,-96.0005 483.6885,-68.6527 465,-55 426.8745,-27.1478 287.0885,-15.3196 222.776,-11.2697"/>
<polygon fill="#191970" stroke="#191970" points="222.9606,-7.7745 212.7674,-10.6642 222.5378,-14.7618 222.9606,-7.7745"/>
</g>
<!-- Node14&#45;&gt;Node7 -->
<g id="edge18" class="edge">
<title>Node14&#45;&gt;Node7</title>
<path fill="none" stroke="#191970" d="M532.0201,-112.3602C536.705,-111.4961 541.4634,-110.6802 546,-110 936.4986,-51.452 1416.0259,-19.129 1540.3967,-11.3538"/>
<polygon fill="#191970" stroke="#191970" points="1540.9105,-14.8287 1550.6749,-10.7168 1540.4775,-7.8421 1540.9105,-14.8287"/>
</g>
<!-- Node14&#45;&gt;Node8 -->
<g id="edge20" class="edge">
<title>Node14&#45;&gt;Node8</title>
<path fill="none" stroke="#191970" d="M506.1623,-110.3276C514.0709,-101.3037 526.264,-87.0244 536,-74 547.4119,-58.7337 559.3575,-40.6181 567.7537,-27.4782"/>
<polygon fill="#191970" stroke="#191970" points="570.7913,-29.2233 573.1817,-18.9016 564.8763,-25.4798 570.7913,-29.2233"/>
</g>
<!-- Node14&#45;&gt;Node15 -->
<g id="edge19" class="edge">
<title>Node14&#45;&gt;Node15</title>
<path fill="none" stroke="#191970" d="M487.9271,-110.4179C478.9745,-102.3458 465.6762,-90.3556 454.9137,-80.6517"/>
<polygon fill="#191970" stroke="#191970" points="457.0624,-77.8764 447.2918,-73.7795 452.3749,-83.0753 457.0624,-77.8764"/>
</g>
<!-- Node16&#45;&gt;Node3 -->
<g id="edge22" class="edge">
<title>Node16&#45;&gt;Node3</title>
<path fill="none" stroke="#191970" d="M896.2765,-221.3639C893.1388,-220.8932 890.0274,-220.4349 887,-220 825.1212,-211.111 649.2789,-230.9474 608,-184 595.1716,-169.41 592.735,-132.5007 617,-110 633.7923,-94.4287 946.67,-75.2577 1080.3027,-67.7406"/>
<polygon fill="#191970" stroke="#191970" points="1080.5847,-71.2304 1090.3735,-67.1771 1080.1936,-64.2413 1080.5847,-71.2304"/>
</g>
<!-- Node16&#45;&gt;Node5 -->
<g id="edge40" class="edge">
<title>Node16&#45;&gt;Node5</title>
<path fill="none" stroke="#191970" d="M997.7177,-226.6357C1114.0409,-219.8432 1397.2224,-201.9766 1491,-184 1684.4509,-146.9167 1726.3762,-111.7404 1915,-55 1955.8896,-42.6999 2002.9839,-28.7233 2034.0012,-19.5441"/>
<polygon fill="#191970" stroke="#191970" points="2035.2751,-22.8173 2043.8715,-16.6245 2033.2894,-16.1048 2035.2751,-22.8173"/>
</g>
<!-- Node16&#45;&gt;Node7 -->
<g id="edge41" class="edge">
<title>Node16&#45;&gt;Node7</title>
<path fill="none" stroke="#191970" d="M972.6249,-220.4656C1072.3793,-185.2958 1434.508,-57.6222 1541.2157,-20.0009"/>
<polygon fill="#191970" stroke="#191970" points="1542.4603,-23.2733 1550.7276,-16.6473 1540.1327,-16.6716 1542.4603,-23.2733"/>
</g>
<!-- Node16&#45;&gt;Node8 -->
<g id="edge42" class="edge">
<title>Node16&#45;&gt;Node8</title>
<path fill="none" stroke="#191970" d="M896.2793,-221.3437C893.141,-220.878 890.0286,-220.4263 887,-220 789.851,-206.3245 510.252,-210.0689 455,-129 450.2442,-122.0221 451.3662,-117.6226 455,-110 474.4755,-69.1466 519.5719,-39.5149 549.6708,-23.4147"/>
<polygon fill="#191970" stroke="#191970" points="551.5861,-26.3648 558.8646,-18.6658 548.3736,-20.1454 551.5861,-26.3648"/>
</g>
<!-- Node17 -->
<g id="node18" class="node">
<title>Node17</title>
<g id="a_node18"><a xlink:href="Ioss__Utils_8h.html" target="_top" xlink:title=" ">
<polygon fill="#ffffff" stroke="#000000" points="946.1577,-165.5 946.1577,-183.5 1013.8423,-183.5 1013.8423,-165.5 946.1577,-165.5"/>
<text text-anchor="middle" x="980" y="-171.5" font-family="Helvetica,sans-Serif" font-size="10.00" fill="#000000">Ioss_Utils.h</text>
</a>
</g>
</g>
<!-- Node16&#45;&gt;Node17 -->
<g id="edge23" class="edge">
<title>Node16&#45;&gt;Node17</title>
<path fill="none" stroke="#191970" d="M952.4493,-220.4179C957.0076,-212.8207 963.6484,-201.7527 969.268,-192.3866"/>
<polygon fill="#191970" stroke="#191970" points="972.2886,-194.1552 974.4323,-183.7795 966.2861,-190.5536 972.2886,-194.1552"/>
</g>
<!-- Node20 -->
<g id="node21" class="node">
<title>Node20</title>
<g id="a_node21"><a xlink:title=" ">
<polygon fill="#ffffff" stroke="#bfbfbf" points="625.8843,-110.5 625.8843,-128.5 674.1157,-128.5 674.1157,-110.5 625.8843,-110.5"/>
<text text-anchor="middle" x="650" y="-116.5" font-family="Helvetica,sans-Serif" font-size="10.00" fill="#000000">cassert</text>
</a>
</g>
</g>
<!-- Node16&#45;&gt;Node20 -->
<g id="edge39" class="edge">
<title>Node16&#45;&gt;Node20</title>
<path fill="none" stroke="#191970" d="M896.2743,-221.379C893.1372,-220.9045 890.0265,-220.4413 887,-220 827.1024,-211.2663 656.8732,-229.5426 617,-184 604.4161,-169.6268 618.3779,-149.6064 631.8174,-135.6981"/>
<polygon fill="#191970" stroke="#191970" points="634.317,-138.1495 639.0581,-128.6747 629.4432,-133.1249 634.317,-138.1495"/>
</g>
<!-- Node17&#45;&gt;Node3 -->
<g id="edge24" class="edge">
<title>Node17&#45;&gt;Node3</title>
<path fill="none" stroke="#191970" d="M1009.2999,-165.3774C1030.9418,-157.7669 1060.4364,-145.5036 1083,-129 1101.0079,-115.8285 1117.3981,-96.0828 1127.9327,-81.9107"/>
<polygon fill="#191970" stroke="#191970" points="1130.9657,-83.6881 1133.9681,-73.5276 1125.2848,-79.5982 1130.9657,-83.6881"/>
</g>
<!-- Node17&#45;&gt;Node5 -->
<g id="edge32" class="edge">
<title>Node17&#45;&gt;Node5</title>
<path fill="none" stroke="#191970" d="M1013.873,-168.0988C1115.0677,-149.1125 1424.112,-92.1243 1682,-55 1811.3313,-36.3821 1965.8595,-19.8967 2033.4688,-12.97"/>
<polygon fill="#191970" stroke="#191970" points="2033.9628,-16.4378 2043.5562,-11.9415 2033.2527,-9.4739 2033.9628,-16.4378"/>
</g>
<!-- Node17&#45;&gt;Node6 -->
<g id="edge33" class="edge">
<title>Node17&#45;&gt;Node6</title>
<path fill="none" stroke="#191970" d="M946.0428,-173.0909C845.1474,-168.6626 548.3901,-153.8263 455,-129 450.2676,-127.742 299.4691,-57.0014 295,-55 270.1119,-43.8542 241.7265,-31.58 220.7492,-22.5917"/>
<polygon fill="#191970" stroke="#191970" points="221.9541,-19.3004 211.3834,-18.586 219.2015,-25.7365 221.9541,-19.3004"/>
</g>
<!-- Node17&#45;&gt;Node7 -->
<g id="edge37" class="edge">
<title>Node17&#45;&gt;Node7</title>
<path fill="none" stroke="#191970" d="M1014.1543,-166.1376C1049.3452,-157.3884 1105.7186,-143.002 1154,-129 1257.9463,-98.8546 1281.8363,-84.3854 1386,-55 1440.0342,-39.7565 1503.748,-24.7236 1540.5487,-16.3239"/>
<polygon fill="#191970" stroke="#191970" points="1541.6478,-19.6635 1550.6248,-14.0365 1540.0981,-12.8372 1541.6478,-19.6635"/>
</g>
<!-- Node17&#45;&gt;Node8 -->
<g id="edge38" class="edge">
<title>Node17&#45;&gt;Node8</title>
<path fill="none" stroke="#191970" d="M945.8755,-169.2745C899.6715,-161.6584 820.3,-146.4949 797,-129 766.5818,-106.1604 784.2958,-78.0017 754,-55 731.6055,-37.9973 654.8613,-22.5105 610.7967,-14.7437"/>
<polygon fill="#191970" stroke="#191970" points="611.324,-11.283 600.8738,-13.0278 610.1311,-18.1806 611.324,-11.283"/>
</g>
<!-- Node17&#45;&gt;Node18 -->
<g id="edge25" class="edge">
<title>Node17&#45;&gt;Node18</title>
<path fill="none" stroke="#191970" d="M1014.1368,-171.7371C1096.8506,-164.9888 1314.5463,-146.9051 1496,-129 1509.6155,-127.6565 1524.4168,-126.0827 1537.8849,-124.6069"/>
<polygon fill="#191970" stroke="#191970" points="1538.3272,-128.0795 1547.8826,-123.5029 1537.5588,-121.1217 1538.3272,-128.0795"/>
</g>
<!-- Node19 -->
<g id="node20" class="node">
<title>Node19</title>
<g id="a_node20"><a xlink:title=" ">
<polygon fill="#ffffff" stroke="#bfbfbf" points="882.436,-110.5 882.436,-128.5 939.564,-128.5 939.564,-110.5 882.436,-110.5"/>
<text text-anchor="middle" x="911" y="-116.5" font-family="Helvetica,sans-Serif" font-size="10.00" fill="#000000">algorithm</text>
</a>
</g>
</g>
<!-- Node17&#45;&gt;Node19 -->
<g id="edge30" class="edge">
<title>Node17&#45;&gt;Node19</title>
<path fill="none" stroke="#191970" d="M968.6061,-165.4179C958.2808,-157.1876 942.8453,-144.8839 930.5503,-135.0836"/>
<polygon fill="#191970" stroke="#191970" points="932.6429,-132.2757 922.6415,-128.7795 928.2796,-137.7495 932.6429,-132.2757"/>
</g>
<!-- Node17&#45;&gt;Node20 -->
<g id="edge31" class="edge">
<title>Node17&#45;&gt;Node20</title>
<path fill="none" stroke="#191970" d="M945.9271,-168.8212C882.5942,-158.2657 747.4358,-135.7393 684.0899,-125.1817"/>
<polygon fill="#191970" stroke="#191970" points="684.6423,-121.7255 674.203,-123.5338 683.4915,-128.6303 684.6423,-121.7255"/>
</g>
<!-- Node21 -->
<g id="node22" class="node">
<title>Node21</title>
<g id="a_node22"><a xlink:title=" ">
<polygon fill="#ffffff" stroke="#bfbfbf" points="957.8276,-110.5 957.8276,-128.5 1002.1724,-128.5 1002.1724,-110.5 957.8276,-110.5"/>
<text text-anchor="middle" x="980" y="-116.5" font-family="Helvetica,sans-Serif" font-size="10.00" fill="#000000">cstdlib</text>
</a>
</g>
</g>
<!-- Node17&#45;&gt;Node21 -->
<g id="edge34" class="edge">
<title>Node17&#45;&gt;Node21</title>
<path fill="none" stroke="#191970" d="M980,-165.4179C980,-158.2164 980,-147.8962 980,-138.8632"/>
<polygon fill="#191970" stroke="#191970" points="983.5001,-138.7794 980,-128.7795 976.5001,-138.7795 983.5001,-138.7794"/>
</g>
<!-- Node22 -->
<g id="node23" class="node">
<title>Node22</title>
<g id="a_node23"><a xlink:title=" ">
<polygon fill="#ffffff" stroke="#bfbfbf" points="1019.8276,-110.5 1019.8276,-128.5 1074.1724,-128.5 1074.1724,-110.5 1019.8276,-110.5"/>
<text text-anchor="middle" x="1047" y="-116.5" font-family="Helvetica,sans-Serif" font-size="10.00" fill="#000000">iostream</text>
</a>
</g>
</g>
<!-- Node17&#45;&gt;Node22 -->
<g id="edge35" class="edge">
<title>Node17&#45;&gt;Node22</title>
<path fill="none" stroke="#191970" d="M991.0637,-165.4179C1000.9933,-157.2667 1015.79,-145.1201 1027.6712,-135.3669"/>
<polygon fill="#191970" stroke="#191970" points="1030.1874,-137.8297 1035.6959,-128.7795 1025.7459,-132.4192 1030.1874,-137.8297"/>
</g>
<!-- Node23 -->
<g id="node24" class="node">
<title>Node23</title>
<g id="a_node24"><a xlink:title=" ">
<polygon fill="#ffffff" stroke="#bfbfbf" points="805.5986,-110.5 805.5986,-128.5 864.4014,-128.5 864.4014,-110.5 805.5986,-110.5"/>
<text text-anchor="middle" x="835" y="-116.5" font-family="Helvetica,sans-Serif" font-size="10.00" fill="#000000">stdexcept</text>
</a>
</g>
</g>
<!-- Node17&#45;&gt;Node23 -->
<g id="edge36" class="edge">
<title>Node17&#45;&gt;Node23</title>
<path fill="none" stroke="#191970" d="M956.0562,-165.4179C932.1285,-156.3419 895.1415,-142.3123 868.3469,-132.1488"/>
<polygon fill="#191970" stroke="#191970" points="869.5707,-128.8697 858.9794,-128.5956 867.088,-135.4147 869.5707,-128.8697"/>
</g>
<!-- Node18&#45;&gt;Node3 -->
<g id="edge26" class="edge">
<title>Node18&#45;&gt;Node3</title>
<path fill="none" stroke="#191970" d="M1547.8682,-115.1383C1472.3208,-105.7588 1293.6783,-83.5797 1199.8821,-71.9346"/>
<polygon fill="#191970" stroke="#191970" points="1200.0563,-68.4294 1189.7012,-70.6706 1199.1938,-75.3761 1200.0563,-68.4294"/>
</g>
<!-- Node18&#45;&gt;Node5 -->
<g id="edge27" class="edge">
<title>Node18&#45;&gt;Node5</title>
<path fill="none" stroke="#191970" d="M1600.8497,-110.419C1629.4499,-96.2741 1687.6558,-69.1392 1740,-55 1844.714,-26.7147 1973.2389,-15.4078 2033.6001,-11.4168"/>
<polygon fill="#191970" stroke="#191970" points="2033.9572,-14.9012 2043.7155,-10.7749 2033.5139,-7.9153 2033.9572,-14.9012"/>
</g>
<!-- Node18&#45;&gt;Node7 -->
<g id="edge28" class="edge">
<title>Node18&#45;&gt;Node7</title>
<path fill="none" stroke="#191970" d="M1589.7446,-110.3161C1598.0721,-97.8081 1610.3967,-74.7148 1604,-55 1600.5578,-44.3911 1593.6112,-34.1855 1586.9755,-26.1379"/>
<polygon fill="#191970" stroke="#191970" points="1589.5725,-23.791 1580.333,-18.606 1584.3225,-28.4211 1589.5725,-23.791"/>
</g>
<!-- Node18&#45;&gt;Node8 -->
<g id="edge29" class="edge">
<title>Node18&#45;&gt;Node8</title>
<path fill="none" stroke="#191970" d="M1547.859,-112.4899C1480.3456,-99.2723 1327.6957,-70.5968 1198,-55 973.9139,-28.0521 702.1373,-14.7419 610.7213,-10.7928"/>
<polygon fill="#191970" stroke="#191970" points="610.8649,-7.2959 600.7251,-10.3675 610.5673,-14.2895 610.8649,-7.2959"/>
</g>
<!-- Node24&#45;&gt;Node3 -->
<g id="edge44" class="edge">
<title>Node24&#45;&gt;Node3</title>
<path fill="none" stroke="#191970" d="M1445.2045,-221.5349C1371.4374,-211.7603 1256.9055,-195.1188 1240,-184 1207.2472,-162.4583 1217.6628,-139.6346 1192,-110 1182.552,-99.0898 1170.4992,-88.3849 1160.3768,-80.102"/>
<polygon fill="#191970" stroke="#191970" points="1162.4281,-77.2612 1152.4275,-73.7627 1158.0637,-82.7341 1162.4281,-77.2612"/>
</g>
<!-- Node24&#45;&gt;Node5 -->
<g id="edge48" class="edge">
<title>Node24&#45;&gt;Node5</title>
<path fill="none" stroke="#191970" d="M1535.0282,-220.4698C1561.4198,-211.5513 1602.6556,-197.3478 1638,-184 1788.8581,-127.0285 1966.6777,-52.4717 2037.0781,-22.6551"/>
<polygon fill="#191970" stroke="#191970" points="2038.8295,-25.7142 2046.6696,-18.588 2036.0967,-19.2696 2038.8295,-25.7142"/>
</g>
<!-- Node24&#45;&gt;Node7 -->
<g id="edge49" class="edge">
<title>Node24&#45;&gt;Node7</title>
<path fill="none" stroke="#191970" d="M1450.1029,-220.412C1410.7249,-211.4303 1368.8111,-194.616 1387,-165 1405.5158,-134.8517 1429.6494,-150.1659 1458,-129 1499.1628,-98.2688 1538.2778,-51.7134 1557.8942,-26.7522"/>
<polygon fill="#191970" stroke="#191970" points="1560.8503,-28.6514 1564.2068,-18.6023 1555.3162,-24.3649 1560.8503,-28.6514"/>
</g>
<!-- Node24&#45;&gt;Node8 -->
<g id="edge51" class="edge">
<title>Node24&#45;&gt;Node8</title>
<path fill="none" stroke="#191970" d="M1445.2464,-221.7478C1439.0861,-221.1047 1432.925,-220.5078 1427,-220 1132.9772,-194.8002 1050.979,-252.7566 764,-184 743.6814,-179.1319 740.4443,-172.646 721,-165 675.4798,-147.1002 651.1454,-164.0226 617,-129 590.1261,-101.4357 582.2474,-54.9338 579.9444,-28.8085"/>
<polygon fill="#191970" stroke="#191970" points="583.4255,-28.4114 579.2449,-18.6763 576.4421,-28.8937 583.4255,-28.4114"/>
</g>
<!-- Node24&#45;&gt;Node25 -->
<g id="edge45" class="edge">
<title>Node24&#45;&gt;Node25</title>
<path fill="none" stroke="#191970" d="M1445.4137,-221.3073C1440.8783,-220.8271 1436.3712,-220.3841 1432,-220 1119.0207,-192.4965 1038.3533,-217.8811 726,-184 724.7096,-183.86 723.4041,-183.71 722.0883,-183.5511"/>
<polygon fill="#191970" stroke="#191970" points="722.2541,-180.0422 711.8783,-182.1854 721.326,-186.9804 722.2541,-180.0422"/>
</g>
<!-- Node26 -->
<g id="node27" class="node">
<title>Node26</title>
<g id="a_node27"><a xlink:title=" ">
<polygon fill="#ffffff" stroke="#bfbfbf" points="1395.6973,-165.5 1395.6973,-183.5 1482.3027,-183.5 1482.3027,-165.5 1395.6973,-165.5"/>
<text text-anchor="middle" x="1439" y="-171.5" font-family="Helvetica,sans-Serif" font-size="10.00" fill="#000000">unordered_map</text>
</a>
</g>
</g>
<!-- Node24&#45;&gt;Node26 -->
<g id="edge50" class="edge">
<title>Node24&#45;&gt;Node26</title>
<path fill="none" stroke="#191970" d="M1496.6061,-220.4179C1486.2808,-212.1876 1470.8453,-199.8839 1458.5503,-190.0836"/>
<polygon fill="#191970" stroke="#191970" points="1460.6429,-187.2757 1450.6415,-183.7795 1456.2796,-192.7495 1460.6429,-187.2757"/>
</g>
<!-- Node25&#45;&gt;Node6 -->
<g id="edge46" class="edge">
<title>Node25&#45;&gt;Node6</title>
<path fill="none" stroke="#191970" d="M626.0821,-170.4548C576.0364,-164.8625 491.3271,-152.6615 422,-129 340.8494,-101.3031 252.8873,-49.2458 212.5376,-23.9845"/>
<polygon fill="#191970" stroke="#191970" points="214.3248,-20.9737 204.0009,-18.5932 210.587,-26.8922 214.3248,-20.9737"/>
</g>
<!-- Node25&#45;&gt;Node7 -->
<g id="edge47" class="edge">
<title>Node25&#45;&gt;Node7</title>
<path fill="none" stroke="#191970" d="M711.7375,-172.5108C787.3161,-168.3941 949.2126,-156.8809 1083,-129 1137.2215,-117.7004 1267.2108,-68.2053 1321,-55 1399.3024,-35.7767 1493.2221,-20.8107 1540.5507,-13.821"/>
<polygon fill="#191970" stroke="#191970" points="1541.3436,-17.2424 1550.7331,-12.3345 1540.3324,-10.3158 1541.3436,-17.2424"/>
</g>
<!-- Node31&#45;&gt;Node5 -->
<g id="edge96" class="edge">
<title>Node31&#45;&gt;Node5</title>
<path fill="none" stroke="#191970" d="M1452.3823,-446.0929C1630.4649,-431.538 2296,-371.3344 2296,-284.5 2296,-284.5 2296,-284.5 2296,-119.5 2296,-82.3969 2274.2639,-74.9803 2243,-55 2199.5444,-27.2282 2139.7941,-16.3627 2102.5586,-12.1418"/>
<polygon fill="#191970" stroke="#191970" points="2102.5336,-8.6208 2092.2273,-11.0763 2101.8154,-15.5838 2102.5336,-8.6208"/>
</g>
<!-- Node31&#45;&gt;Node6 -->
<g id="edge97" class="edge">
<title>Node31&#45;&gt;Node6</title>
<path fill="none" stroke="#191970" d="M1365.5073,-448.0408C1221.1345,-443.0367 758.5906,-425.6784 611,-404 507.0115,-388.7259 482.3153,-376.9664 381,-349 209.9305,-301.7791 0,-406.9671 0,-229.5 0,-229.5 0,-229.5 0,-119.5 0,-47.6762 102.9457,-21.9889 157.2838,-13.433"/>
<polygon fill="#191970" stroke="#191970" points="158.0717,-16.855 167.4584,-11.9417 157.0565,-9.929 158.0717,-16.855"/>
</g>
<!-- Node31&#45;&gt;Node7 -->
<g id="edge98" class="edge">
<title>Node31&#45;&gt;Node7</title>
<path fill="none" stroke="#191970" d="M1437.2074,-440.4582C1505.4481,-418.2783 1684.4153,-358.2781 1828,-294 1875.724,-272.6355 1893.8052,-274.7097 1932,-239 1952.9923,-219.3735 1958.1454,-211.6438 1966,-184 1986.437,-112.0734 1927.7548,-81.9328 1858,-55 1811.5092,-37.0496 1665.8372,-19.7056 1601.7624,-12.7235"/>
<polygon fill="#191970" stroke="#191970" points="1601.8136,-9.2089 1591.4962,-11.6177 1601.0638,-16.1686 1601.8136,-9.2089"/>
</g>
<!-- Node31&#45;&gt;Node8 -->
<g id="edge99" class="edge">
<title>Node31&#45;&gt;Node8</title>
<path fill="none" stroke="#191970" d="M1365.5987,-448.8126C1169.5816,-444.7259 369.7436,-417.1999 215,-239 176.198,-194.3164 204.0079,-149.5843 248,-110 285.1283,-76.5918 299.1186,-72.2266 346,-55 415.1232,-29.6006 501.26,-17.4916 546.9886,-12.4938"/>
<polygon fill="#191970" stroke="#191970" points="547.5973,-15.9493 557.1779,-11.4258 546.8675,-8.9875 547.5973,-15.9493"/>
</g>
<!-- Node31&#45;&gt;Node13 -->
<g id="edge62" class="edge">
<title>Node31&#45;&gt;Node13</title>
<path fill="none" stroke="#191970" d="M1404.6637,-440.327C1388.9711,-407.1312 1334.9506,-292.857 1313.6926,-247.8881"/>
<polygon fill="#191970" stroke="#191970" points="1316.793,-246.2571 1309.3549,-238.7122 1310.4645,-249.2488 1316.793,-246.2571"/>
</g>
<!-- Node31&#45;&gt;Node25 -->
<g id="edge63" class="edge">
<title>Node31&#45;&gt;Node25</title>
<path fill="none" stroke="#191970" d="M1365.6548,-444.9132C1272.995,-433.9041 1064,-402.1309 1064,-339.5 1064,-339.5 1064,-339.5 1064,-284.5 1064,-253.9131 1064.111,-238.8206 1040,-220 985.4037,-177.3832 804.1155,-193.532 721.8767,-184.4804"/>
<polygon fill="#191970" stroke="#191970" points="722.2553,-181.0002 711.8859,-183.1741 721.3477,-187.9411 722.2553,-181.0002"/>
</g>
<!-- Node31&#45;&gt;Node32 -->
<g id="edge64" class="edge">
<title>Node31&#45;&gt;Node32</title>
<path fill="none" stroke="#191970" d="M1449.8385,-440.4795C1492.8988,-430.9681 1560.8103,-415.9676 1607.2757,-405.7042"/>
<polygon fill="#191970" stroke="#191970" points="1608.1295,-409.1 1617.1392,-403.5255 1606.6197,-402.2648 1608.1295,-409.1"/>
</g>
<!-- Node32&#45;&gt;Node5 -->
<g id="edge94" class="edge">
<title>Node32&#45;&gt;Node5</title>
<path fill="none" stroke="#191970" d="M1702.6073,-391.8698C1841.6588,-382.4658 2258,-344.6909 2258,-229.5 2258,-229.5 2258,-229.5 2258,-119.5 2258,-48.4218 2157.1804,-22.5272 2102.4239,-13.705"/>
<polygon fill="#191970" stroke="#191970" points="2102.8597,-10.2313 2092.4502,-12.2045 2101.8182,-17.1534 2102.8597,-10.2313"/>
</g>
<!-- Node32&#45;&gt;Node7 -->
<g id="edge95" class="edge">
<title>Node32&#45;&gt;Node7</title>
<path fill="none" stroke="#191970" d="M1702.1942,-392.1756C1774.3022,-386.3303 1918.7558,-365.825 2014,-294 2082.9001,-242.0414 2117.8821,-185.4507 2076,-110 2056.7975,-75.4067 2042.6679,-69.8626 2006,-55 1932.2722,-25.1158 1687.8073,-13.6695 1601.4991,-10.4991"/>
<polygon fill="#191970" stroke="#191970" points="1601.4367,-6.9948 1591.3186,-10.1369 1601.1878,-13.9903 1601.4367,-6.9948"/>
</g>
<!-- Node32&#45;&gt;Node25 -->
<g id="edge93" class="edge">
<title>Node32&#45;&gt;Node25</title>
<path fill="none" stroke="#191970" d="M1618.0696,-385.4497C1589.634,-378.0397 1551.1042,-365.9941 1520,-349 1480.0713,-327.1844 1403.4416,-236.3993 1361,-220 1230.3023,-169.4989 875.6224,-200.4907 722.1262,-184.4726"/>
<polygon fill="#191970" stroke="#191970" points="722.2039,-180.9585 711.8693,-183.2924 721.4037,-187.9126 722.2039,-180.9585"/>
</g>
<!-- Node32&#45;&gt;Node33 -->
<g id="edge65" class="edge">
<title>Node32&#45;&gt;Node33</title>
<path fill="none" stroke="#191970" d="M1646.1107,-385.4179C1635.3365,-377.1876 1619.2298,-364.8839 1606.4003,-355.0836"/>
<polygon fill="#191970" stroke="#191970" points="1608.219,-352.0685 1598.1477,-348.7795 1603.9697,-357.6313 1608.219,-352.0685"/>
</g>
<!-- Node33&#45;&gt;Node1 -->
<g id="edge67" class="edge">
<title>Node33&#45;&gt;Node1</title>
<path fill="none" stroke="#191970" d="M1529.1072,-335.6979C1379.902,-325.7267 978.2507,-298.8849 824.2523,-288.5934"/>
<polygon fill="#191970" stroke="#191970" points="824.2465,-285.0853 814.0353,-287.9106 823.7796,-292.0697 824.2465,-285.0853"/>
</g>
<!-- Node33&#45;&gt;Node3 -->
<g id="edge66" class="edge">
<title>Node33&#45;&gt;Node3</title>
<path fill="none" stroke="#191970" d="M1588.8092,-330.3261C1594.9459,-308.2515 1606.8806,-251.6618 1579,-220 1521.6229,-154.8414 1469.468,-211.1441 1387,-184 1301.1827,-155.7535 1206.9538,-103.7718 1163.8776,-78.7263"/>
<polygon fill="#191970" stroke="#191970" points="1165.4048,-75.5646 1155.0075,-73.5278 1161.8653,-81.6038 1165.4048,-75.5646"/>
</g>
<!-- Node33&#45;&gt;Node5 -->
<g id="edge89" class="edge">
<title>Node33&#45;&gt;Node5</title>
<path fill="none" stroke="#191970" d="M1642.9955,-333.6859C1692.8442,-327.4558 1766.6568,-315.4341 1828,-294 1920.1143,-261.814 1947.786,-251.7568 2018,-184 2058.383,-145.0302 2068.5358,-128.9364 2080,-74 2083.1993,-58.6689 2079.5,-41.1994 2075.3898,-28.3114"/>
<polygon fill="#191970" stroke="#191970" points="2078.6257,-26.9643 2071.9829,-18.7106 2072.0287,-29.3053 2078.6257,-26.9643"/>
</g>
<!-- Node33&#45;&gt;Node6 -->
<g id="edge90" class="edge">
<title>Node33&#45;&gt;Node6</title>
<path fill="none" stroke="#191970" d="M1529.1008,-338.839C1327.3263,-336.2485 646.5934,-325.3394 431,-294 242.05,-266.5336 130.4054,-252.2616 62,-74 46.1045,-32.577 114.4416,-17.5666 157.3893,-12.2708"/>
<polygon fill="#191970" stroke="#191970" points="157.8835,-15.7375 167.4334,-11.1496 157.1069,-8.7807 157.8835,-15.7375"/>
</g>
<!-- Node33&#45;&gt;Node7 -->
<g id="edge91" class="edge">
<title>Node33&#45;&gt;Node7</title>
<path fill="none" stroke="#191970" d="M1642.9304,-331.5282C1710.2118,-319.97 1823.3244,-293.6554 1905,-239 1937.1841,-217.4631 1963.6138,-201.6135 1951,-165 1926.4575,-93.7617 1892.1346,-82.5385 1822,-55 1746.1181,-25.2049 1649.5856,-14.7331 1601.3344,-11.2008"/>
<polygon fill="#191970" stroke="#191970" points="1601.4598,-7.7013 1591.2449,-10.5131 1600.9837,-14.6851 1601.4598,-7.7013"/>
</g>
<!-- Node33&#45;&gt;Node8 -->
<g id="edge92" class="edge">
<title>Node33&#45;&gt;Node8</title>
<path fill="none" stroke="#191970" d="M1529.0365,-337.4617C1277.3868,-328.1815 275.8306,-288.2466 232,-239 159.7564,-157.8294 292.183,-95.543 393,-55 445.1564,-34.0256 509.5661,-20.9076 547.2838,-14.4186"/>
<polygon fill="#191970" stroke="#191970" points="547.8963,-17.8648 557.1819,-12.7631 546.7415,-10.9607 547.8963,-17.8648"/>
</g>
<!-- Node33&#45;&gt;Node13 -->
<g id="edge68" class="edge">
<title>Node33&#45;&gt;Node13</title>
<path fill="none" stroke="#191970" d="M1552.9668,-330.43C1523.4951,-322.0161 1479.3552,-308.6192 1442,-294 1402.5819,-278.5735 1358.552,-257.0364 1331.3054,-243.1781"/>
<polygon fill="#191970" stroke="#191970" points="1332.8992,-240.062 1322.403,-238.6191 1329.7084,-246.2925 1332.8992,-240.062"/>
</g>
<!-- Node33&#45;&gt;Node18 -->
<g id="edge69" class="edge">
<title>Node33&#45;&gt;Node18</title>
<path fill="none" stroke="#191970" d="M1593.1348,-330.3751C1599.4992,-321.6126 1608.3571,-307.7175 1612,-294 1626.8011,-238.2654 1604.2871,-170.41 1591.2353,-138.2004"/>
<polygon fill="#191970" stroke="#191970" points="1594.3466,-136.5702 1587.2394,-128.7127 1587.8954,-139.2872 1594.3466,-136.5702"/>
</g>
<!-- Node33&#45;&gt;Node24 -->
<g id="edge80" class="edge">
<title>Node33&#45;&gt;Node24</title>
<path fill="none" stroke="#191970" d="M1579.6169,-330.4982C1566.7045,-312.2885 1537.2841,-270.798 1520.4443,-247.0496"/>
<polygon fill="#191970" stroke="#191970" points="1523.1107,-244.759 1514.4713,-238.6261 1517.4005,-248.808 1523.1107,-244.759"/>
</g>
<!-- Node33&#45;&gt;Node25 -->
<g id="edge79" class="edge">
<title>Node33&#45;&gt;Node25</title>
<path fill="none" stroke="#191970" d="M1573.1797,-330.3277C1536.8347,-304.5212 1433.2256,-232.3613 1394,-220 1252.2139,-175.3184 873.7696,-200.2449 726,-184 724.7098,-183.8582 723.4045,-183.7064 722.0888,-183.5461"/>
<polygon fill="#191970" stroke="#191970" points="722.2573,-180.0373 711.8798,-182.172 721.3235,-186.9747 722.2573,-180.0373"/>
</g>
<!-- Node33&#45;&gt;Node27 -->
<g id="edge81" class="edge">
<title>Node33&#45;&gt;Node27</title>
<path fill="none" stroke="#191970" d="M1543.2265,-330.4899C1504.3241,-322.0165 1445.4539,-308.4955 1395,-294 1339.4174,-278.031 1276.0151,-255.8055 1238.0433,-242.0527"/>
<polygon fill="#191970" stroke="#191970" points="1239.0907,-238.7093 1228.4966,-238.5792 1236.6972,-245.2874 1239.0907,-238.7093"/>
</g>
<!-- Node33&#45;&gt;Node34 -->
<g id="edge70" class="edge">
<title>Node33&#45;&gt;Node34</title>
<path fill="none" stroke="#191970" d="M1599.8958,-330.4507C1613.1455,-321.6316 1633.4722,-307.5996 1650,-294 1668.6961,-278.6163 1688.6314,-259.3252 1702.0491,-245.8662"/>
<polygon fill="#191970" stroke="#191970" points="1704.6005,-248.2637 1709.1374,-238.6894 1699.6202,-243.3447 1704.6005,-248.2637"/>
</g>
<!-- Node36 -->
<g id="node37" class="node">
<title>Node36</title>
<g id="a_node37"><a xlink:href="Ioss__VariableType_8h.html" target="_top" xlink:title=" ">
<polygon fill="#ffffff" stroke="#000000" points="1790.061,-220.5 1790.061,-238.5 1895.939,-238.5 1895.939,-220.5 1790.061,-220.5"/>
<text text-anchor="middle" x="1843" y="-226.5" font-family="Helvetica,sans-Serif" font-size="10.00" fill="#000000">Ioss_VariableType.h</text>
</a>
</g>
</g>
<!-- Node33&#45;&gt;Node36 -->
<g id="edge82" class="edge">
<title>Node33&#45;&gt;Node36</title>
<path fill="none" stroke="#191970" d="M1607.0314,-330.4982C1652.3998,-311.0798 1759.6201,-265.1879 1812.4697,-242.5674"/>
<polygon fill="#191970" stroke="#191970" points="1813.8619,-245.7787 1821.678,-238.6261 1811.1075,-239.3434 1813.8619,-245.7787"/>
</g>
<!-- Node34&#45;&gt;Node3 -->
<g id="edge71" class="edge">
<title>Node34&#45;&gt;Node3</title>
<path fill="none" stroke="#191970" d="M1686.844,-220.4353C1643.1491,-207.7709 1561.1464,-184.18 1491,-165 1430.2732,-148.3956 1414.5929,-146.0866 1354,-129 1292.456,-111.6452 1221.4718,-89.9071 1178.7022,-76.6199"/>
<polygon fill="#191970" stroke="#191970" points="1179.5676,-73.2237 1168.9792,-73.5938 1177.4873,-79.9075 1179.5676,-73.2237"/>
</g>
<!-- Node34&#45;&gt;Node5 -->
<g id="edge74" class="edge">
<title>Node34&#45;&gt;Node5</title>
<path fill="none" stroke="#191970" d="M1721.2017,-220.1407C1726.4704,-206.1182 1738.2882,-179.7335 1757,-165 1862.1347,-82.2179 1947.0816,-166.2659 2044,-74 2056.4275,-62.1691 2062.4646,-43.3142 2065.3701,-29.039"/>
<polygon fill="#191970" stroke="#191970" points="2068.886,-29.2358 2067.0912,-18.7941 2061.9828,-28.076 2068.886,-29.2358"/>
</g>
<!-- Node34&#45;&gt;Node7 -->
<g id="edge76" class="edge">
<title>Node34&#45;&gt;Node7</title>
<path fill="none" stroke="#191970" d="M1713.8343,-220.2288C1701.4685,-193.2246 1663.015,-112.8821 1618,-55 1609.5878,-44.1832 1598.6647,-33.4554 1589.4663,-25.1355"/>
<polygon fill="#191970" stroke="#191970" points="1591.7513,-22.4841 1581.9332,-18.5022 1587.1253,-27.7377 1591.7513,-22.4841"/>
</g>
<!-- Node34&#45;&gt;Node8 -->
<g id="edge78" class="edge">
<title>Node34&#45;&gt;Node8</title>
<path fill="none" stroke="#191970" d="M1663.5556,-225.5014C1637.9097,-223.689 1606.8916,-221.5991 1579,-220 1406.4315,-210.1063 965.165,-241.0523 802,-184 754.4815,-167.3847 640.2718,-65.6731 596.4893,-25.6537"/>
<polygon fill="#191970" stroke="#191970" points="598.6726,-22.9069 588.9384,-18.7241 593.9396,-28.0643 598.6726,-22.9069"/>
</g>
<!-- Node34&#45;&gt;Node17 -->
<g id="edge73" class="edge">
<title>Node34&#45;&gt;Node17</title>
<path fill="none" stroke="#191970" d="M1663.4334,-225.4334C1523.1541,-214.979 1152.022,-187.3201 1024.0864,-177.7856"/>
<polygon fill="#191970" stroke="#191970" points="1024.1163,-174.2782 1013.8838,-177.0252 1023.596,-181.2588 1024.1163,-174.2782"/>
</g>
<!-- Node34&#45;&gt;Node18 -->
<g id="edge72" class="edge">
<title>Node34&#45;&gt;Node18</title>
<path fill="none" stroke="#191970" d="M1702.0744,-220.4296C1687.4574,-211.8124 1665.484,-198.1085 1648,-184 1629.7628,-169.2837 1610.9769,-150.1298 1598.3207,-136.5278"/>
<polygon fill="#191970" stroke="#191970" points="1600.6313,-133.869 1591.2923,-128.8655 1595.4727,-138.6007 1600.6313,-133.869"/>
</g>
<!-- Node34&#45;&gt;Node26 -->
<g id="edge77" class="edge">
<title>Node34&#45;&gt;Node26</title>
<path fill="none" stroke="#191970" d="M1672.2412,-220.4795C1622.9648,-210.7655 1544.6438,-195.3258 1492.5407,-185.0546"/>
<polygon fill="#191970" stroke="#191970" points="1492.9742,-181.5728 1482.486,-183.0725 1491.6203,-188.4406 1492.9742,-181.5728"/>
</g>
<!-- Node35 -->
<g id="node36" class="node">
<title>Node35</title>
<g id="a_node36"><a xlink:title=" ">
<polygon fill="#ffffff" stroke="#bfbfbf" points="1765.5962,-165.5 1765.5962,-183.5 1824.4038,-183.5 1824.4038,-165.5 1765.5962,-165.5"/>
<text text-anchor="middle" x="1795" y="-171.5" font-family="Helvetica,sans-Serif" font-size="10.00" fill="#000000">functional</text>
</a>
</g>
</g>
<!-- Node34&#45;&gt;Node35 -->
<g id="edge75" class="edge">
<title>Node34&#45;&gt;Node35</title>
<path fill="none" stroke="#191970" d="M1730.715,-220.4179C1742.4183,-212.0584 1760.0047,-199.4966 1773.8265,-189.6239"/>
<polygon fill="#191970" stroke="#191970" points="1776.1631,-192.2561 1782.2661,-183.5956 1772.0944,-186.56 1776.1631,-192.2561"/>
</g>
<!-- Node36&#45;&gt;Node3 -->
<g id="edge83" class="edge">
<title>Node36&#45;&gt;Node3</title>
<path fill="none" stroke="#191970" d="M1844.6899,-220.0441C1846.6189,-205.8954 1847.8144,-179.3482 1833,-165 1785.7193,-119.2072 1604.1776,-138.1827 1539,-129 1388.5521,-107.8038 1348.8234,-100.0102 1199.434,-74.9081"/>
<polygon fill="#191970" stroke="#191970" points="1199.8745,-71.4331 1189.433,-73.2293 1198.7156,-78.3365 1199.8745,-71.4331"/>
</g>
<!-- Node36&#45;&gt;Node7 -->
<g id="edge87" class="edge">
<title>Node36&#45;&gt;Node7</title>
<path fill="none" stroke="#191970" d="M1878.1454,-220.4641C1910.9448,-210.1956 1952.4112,-191.3714 1935,-165 1858.2903,-48.8136 1675.0165,-19.1352 1601.8941,-11.8091"/>
<polygon fill="#191970" stroke="#191970" points="1601.8135,-8.2867 1591.5331,-10.8489 1601.1674,-15.2568 1601.8135,-8.2867"/>
</g>
<!-- Node36&#45;&gt;Node8 -->
<g id="edge88" class="edge">
<title>Node36&#45;&gt;Node8</title>
<path fill="none" stroke="#191970" d="M1789.9482,-220.9806C1786.9249,-220.6169 1783.9263,-220.2857 1781,-220 1407.325,-183.5128 1305.9163,-253.7502 937,-184 863.1138,-170.0305 845.127,-160.8282 777,-129 772.4625,-126.8802 654.6596,-55.4359 602.9529,-24.0466"/>
<polygon fill="#191970" stroke="#191970" points="604.4739,-20.8755 594.1096,-18.6774 600.841,-26.859 604.4739,-20.8755"/>
</g>
<!-- Node36&#45;&gt;Node30 -->
<g id="edge86" class="edge">
<title>Node36&#45;&gt;Node30</title>
<path fill="none" stroke="#191970" d="M1789.9521,-220.9395C1786.9278,-220.5862 1783.9279,-220.2686 1781,-220 1265.5835,-172.7174 1133.957,-209.401 617,-184 577.6703,-182.0675 532.2349,-178.8241 503.8082,-176.6731"/>
<polygon fill="#191970" stroke="#191970" points="504.0323,-173.1801 493.7944,-175.9072 503.4984,-180.1597 504.0323,-173.1801"/>
</g>
<!-- Node36&#45;&gt;Node35 -->
<g id="edge85" class="edge">
<title>Node36&#45;&gt;Node35</title>
<path fill="none" stroke="#191970" d="M1835.0738,-220.4179C1828.2363,-212.5833 1818.1775,-201.0575 1809.8483,-191.5137"/>
<polygon fill="#191970" stroke="#191970" points="1812.3108,-189.0123 1803.0984,-183.7795 1807.0368,-193.6151 1812.3108,-189.0123"/>
</g>
<!-- Node37 -->
<g id="node38" class="node">
<title>Node37</title>
<g id="a_node38"><a xlink:title=" ">
<polygon fill="#ffffff" stroke="#bfbfbf" points="1880.2734,-165.5 1880.2734,-183.5 1925.7266,-183.5 1925.7266,-165.5 1880.2734,-165.5"/>
<text text-anchor="middle" x="1903" y="-171.5" font-family="Helvetica,sans-Serif" font-size="10.00" fill="#000000">cstring</text>
</a>
</g>
</g>
<!-- Node36&#45;&gt;Node37 -->
<g id="edge84" class="edge">
<title>Node36&#45;&gt;Node37</title>
<path fill="none" stroke="#191970" d="M1852.9078,-220.4179C1861.7136,-212.3458 1874.7939,-200.3556 1885.38,-190.6517"/>
<polygon fill="#191970" stroke="#191970" points="1887.8704,-193.1168 1892.877,-183.7795 1883.1403,-187.9567 1887.8704,-193.1168"/>
</g>
</g>
</svg>
