<?xml version="1.0" encoding="UTF-8" standalone="no"?>
<!DOCTYPE svg PUBLIC "-//W3C//DTD SVG 1.1//EN"
 "http://www.w3.org/Graphics/SVG/1.1/DTD/svg11.dtd">
<!-- Generated by graphviz version 2.40.1 (20161225.0304)
 -->
<!-- Title: src/Ioss_ElementSet.C Pages: 1 -->
<!--zoomable 522 -->
<svg id="main" version="1.1" xmlns="http://www.w3.org/2000/svg" xmlns:xlink="http://www.w3.org/1999/xlink" xml:space="preserve" onload="init(evt)">
<style type="text/css"><![CDATA[
.edge:hover path { stroke: red; }
.edge:hover polygon { stroke: red; fill: red; }
]]></style>
<script type="text/javascript"><![CDATA[
var edges = document.getElementsByTagName('g');
if (edges && edges.length) {
  for (var i=0;i<edges.length;i++) {
    if (edges[i].id.substr(0,4)=='edge') {
      edges[i].setAttribute('class','edge');
    }
  }
}
]]></script>
        <defs>
                <circle id="rim" cx="0" cy="0" r="7"/>
                <circle id="rim2" cx="0" cy="0" r="3.5"/>
                <g id="zoomPlus">
                        <use xlink:href="#rim" fill="#404040">
                                <set attributeName="fill" to="#808080" begin="zoomplus.mouseover" end="zoomplus.mouseout"/>
                        </use>
                        <path d="M-4,0h8M0,-4v8" fill="none" stroke="white" stroke-width="1.5" pointer-events="none"/>
                </g>
                <g id="zoomMin">
                        <use xlink:href="#rim" fill="#404040">
                                <set attributeName="fill" to="#808080" begin="zoomminus.mouseover" end="zoomminus.mouseout"/>
                        </use>
                        <path d="M-4,0h8" fill="none" stroke="white" stroke-width="1.5" pointer-events="none"/>
                </g>
                <g id="dirArrow">
                        <path fill="none" stroke="white" stroke-width="1.5" d="M0,-3.0v7 M-2.5,-0.5L0,-3.0L2.5,-0.5"/>
                </g>
               <g id="resetDef">
                       <use xlink:href="#rim2" fill="#404040">
                               <set attributeName="fill" to="#808080" begin="reset.mouseover" end="reset.mouseout"/>
                       </use>
               </g>
        </defs>

<script type="text/javascript">
var viewWidth = 2315;
var viewHeight = 522;
var sectionId = 'dynsection-0';
</script>
<script xlink:href="svgpan.js"/>
<svg id="graph" class="graph">
<g id="viewport">
<title>src/Ioss_ElementSet.C</title>
<polygon fill="#ffffff" stroke="transparent" points="-4,4 -4,-518 2311,-518 2311,4 -4,4"/>
<!-- Node0 -->
<g id="node1" class="node">
<title>Node0</title>
<g id="a_node1"><a xlink:title=" ">
<polygon fill="#bfbfbf" stroke="#000000" points="1014.1479,-495.5 1014.1479,-513.5 1131.8521,-513.5 1131.8521,-495.5 1014.1479,-495.5"/>
<text text-anchor="middle" x="1073" y="-501.5" font-family="Helvetica,sans-Serif" font-size="10.00" fill="#000000">src/Ioss_ElementSet.C</text>
</a>
</g>
</g>
<!-- Node1 -->
<g id="node2" class="node">
<title>Node1</title>
<g id="a_node2"><a xlink:href="Ioss__DatabaseIO_8h.html" target="_top" xlink:title=" ">
<polygon fill="#ffffff" stroke="#000000" points="766.1973,-275.5 766.1973,-293.5 867.8027,-293.5 867.8027,-275.5 766.1973,-275.5"/>
<text text-anchor="middle" x="817" y="-281.5" font-family="Helvetica,sans-Serif" font-size="10.00" fill="#000000">Ioss_DatabaseIO.h</text>
</a>
</g>
</g>
<!-- Node0&#45;&gt;Node1 -->
<g id="edge1" class="edge">
<title>Node0&#45;&gt;Node1</title>
<path fill="none" stroke="#191970" d="M1049.2854,-495.3576C1030.1263,-487.3535 1002.9915,-474.5805 982,-459 917.1229,-410.8462 855.9217,-335.6073 830.005,-301.8792"/>
<polygon fill="#191970" stroke="#191970" points="832.4936,-299.3692 823.6571,-293.524 826.9198,-303.6039 832.4936,-299.3692"/>
</g>
<!-- Node5 -->
<g id="node6" class="node">
<title>Node5</title>
<g id="a_node6"><a xlink:title=" ">
<polygon fill="#ffffff" stroke="#bfbfbf" points="1352.8794,-.5 1352.8794,-18.5 1401.1206,-18.5 1401.1206,-.5 1352.8794,-.5"/>
<text text-anchor="middle" x="1377" y="-6.5" font-family="Helvetica,sans-Serif" font-size="10.00" fill="#000000">cstddef</text>
</a>
</g>
</g>
<!-- Node0&#45;&gt;Node5 -->
<g id="edge103" class="edge">
<title>Node0&#45;&gt;Node5</title>
<path fill="none" stroke="#191970" d="M1060.6286,-495.4378C1038.8625,-478.3421 996,-439.0243 996,-394.5 996,-394.5 996,-394.5 996,-339.5 996,-294.0421 1010.4536,-284.23 1015,-239 1018.2896,-206.273 1014.5842,-197.8614 1016,-165 1017.0549,-140.5137 1008.0679,-131.4083 1020,-110 1040.299,-73.58 1057.4915,-70.9863 1096,-55 1140.1011,-36.692 1277.7369,-20.0977 1342.5688,-13.0618"/>
<polygon fill="#191970" stroke="#191970" points="1343.1207,-16.5228 1352.6908,-11.977 1342.3747,-9.5627 1343.1207,-16.5228"/>
</g>
<!-- Node7 -->
<g id="node8" class="node">
<title>Node7</title>
<g id="a_node8"><a xlink:title=" ">
<polygon fill="#ffffff" stroke="#bfbfbf" points="1973.7734,-.5 1973.7734,-18.5 2014.2266,-18.5 2014.2266,-.5 1973.7734,-.5"/>
<text text-anchor="middle" x="1994" y="-6.5" font-family="Helvetica,sans-Serif" font-size="10.00" fill="#000000">string</text>
</a>
</g>
</g>
<!-- Node0&#45;&gt;Node7 -->
<g id="edge104" class="edge">
<title>Node0&#45;&gt;Node7</title>
<path fill="none" stroke="#191970" d="M1131.9786,-503.0974C1312.3895,-498.5854 1855.1602,-483.3075 2030,-459 2155.2004,-441.5937 2307,-520.9046 2307,-394.5 2307,-394.5 2307,-394.5 2307,-119.5 2307,-71.3659 2263.9837,-74.5531 2220,-55 2154.1162,-25.7111 2069.044,-15.1121 2024.414,-11.4025"/>
<polygon fill="#191970" stroke="#191970" points="2024.4719,-7.8967 2014.2328,-10.6188 2023.9346,-14.876 2024.4719,-7.8967"/>
</g>
<!-- Node8 -->
<g id="node9" class="node">
<title>Node8</title>
<g id="a_node9"><a xlink:title=" ">
<polygon fill="#ffffff" stroke="#bfbfbf" points="326.3843,-.5 326.3843,-18.5 369.6157,-18.5 369.6157,-.5 326.3843,-.5"/>
<text text-anchor="middle" x="348" y="-6.5" font-family="Helvetica,sans-Serif" font-size="10.00" fill="#000000">vector</text>
</a>
</g>
</g>
<!-- Node0&#45;&gt;Node8 -->
<g id="edge105" class="edge">
<title>Node0&#45;&gt;Node8</title>
<path fill="none" stroke="#191970" d="M1013.7825,-501.5627C788.8398,-490.0202 0,-445.8798 0,-394.5 0,-394.5 0,-394.5 0,-119.5 0,-78.4851 29.3757,-73.463 66,-55 109.4157,-33.1133 251.7676,-18.0609 316.0233,-12.2138"/>
<polygon fill="#191970" stroke="#191970" points="316.349,-15.6987 325.9981,-11.3233 315.7264,-8.7265 316.349,-15.6987"/>
</g>
<!-- Node26 -->
<g id="node27" class="node">
<title>Node26</title>
<g id="a_node27"><a xlink:href="Ioss__Property_8h.html" target="_top" xlink:title=" ">
<polygon fill="#ffffff" stroke="#000000" points="1965.3516,-165.5 1965.3516,-183.5 2050.6484,-183.5 2050.6484,-165.5 1965.3516,-165.5"/>
<text text-anchor="middle" x="2008" y="-171.5" font-family="Helvetica,sans-Serif" font-size="10.00" fill="#000000">Ioss_Property.h</text>
</a>
</g>
</g>
<!-- Node0&#45;&gt;Node26 -->
<g id="edge102" class="edge">
<title>Node0&#45;&gt;Node26</title>
<path fill="none" stroke="#191970" d="M1131.8653,-503.6826C1349.5927,-500.0533 2100.3395,-481.9348 2170,-404 2236.7924,-329.274 2091.9527,-226.6275 2032.217,-189.0421"/>
<polygon fill="#191970" stroke="#191970" points="2033.75,-185.8745 2023.406,-183.5827 2030.0631,-191.8249 2033.75,-185.8745"/>
</g>
<!-- Node32 -->
<g id="node33" class="node">
<title>Node32</title>
<g id="a_node33"><a xlink:href="Ioss__ElementSet_8h.html" target="_top" xlink:title=" ">
<polygon fill="#ffffff" stroke="#000000" points="1284.0322,-440.5 1284.0322,-458.5 1383.9678,-458.5 1383.9678,-440.5 1284.0322,-440.5"/>
<text text-anchor="middle" x="1334" y="-446.5" font-family="Helvetica,sans-Serif" font-size="10.00" fill="#000000">Ioss_ElementSet.h</text>
</a>
</g>
</g>
<!-- Node0&#45;&gt;Node32 -->
<g id="edge62" class="edge">
<title>Node0&#45;&gt;Node32</title>
<path fill="none" stroke="#191970" d="M1115.8066,-495.4795C1161.0368,-485.9482 1232.425,-470.9047 1281.1372,-460.6397"/>
<polygon fill="#191970" stroke="#191970" points="1282.1067,-464.0123 1291.17,-458.5255 1280.6632,-457.1628 1282.1067,-464.0123"/>
</g>
<!-- Node33 -->
<g id="node34" class="node">
<title>Node33</title>
<g id="a_node34"><a xlink:href="Ioss__EntitySet_8h.html" target="_top" xlink:title=" ">
<polygon fill="#ffffff" stroke="#000000" points="2072.8696,-385.5 2072.8696,-403.5 2161.1304,-403.5 2161.1304,-385.5 2072.8696,-385.5"/>
<text text-anchor="middle" x="2117" y="-391.5" font-family="Helvetica,sans-Serif" font-size="10.00" fill="#000000">Ioss_EntitySet.h</text>
</a>
</g>
</g>
<!-- Node0&#45;&gt;Node33 -->
<g id="edge106" class="edge">
<title>Node0&#45;&gt;Node33</title>
<path fill="none" stroke="#191970" d="M1132.0484,-499.7421C1285.3461,-487.1168 1708.4758,-450.5269 2059,-404 2060.2517,-403.8339 2061.518,-403.6616 2062.7944,-403.4841"/>
<polygon fill="#191970" stroke="#191970" points="2063.317,-406.945 2072.7076,-402.0392 2062.3073,-400.0182 2063.317,-406.945"/>
</g>
<!-- Node34 -->
<g id="node35" class="node">
<title>Node34</title>
<g id="a_node35"><a xlink:href="Ioss__GroupingEntity_8h.html" target="_top" xlink:title=" ">
<polygon fill="#ffffff" stroke="#000000" points="1366.1743,-330.5 1366.1743,-348.5 1479.8257,-348.5 1479.8257,-330.5 1366.1743,-330.5"/>
<text text-anchor="middle" x="1423" y="-336.5" font-family="Helvetica,sans-Serif" font-size="10.00" fill="#000000">Ioss_GroupingEntity.h</text>
</a>
</g>
</g>
<!-- Node0&#45;&gt;Node34 -->
<g id="edge107" class="edge">
<title>Node0&#45;&gt;Node34</title>
<path fill="none" stroke="#191970" d="M1092.3161,-495.3939C1150.6401,-467.8982 1325.185,-385.6128 1394.3327,-353.0146"/>
<polygon fill="#191970" stroke="#191970" points="1396.1909,-356.0081 1403.7436,-348.578 1393.2059,-349.6764 1396.1909,-356.0081"/>
</g>
<!-- Node2 -->
<g id="node3" class="node">
<title>Node2</title>
<g id="a_node3"><a xlink:href="Ioss__BoundingBox_8h.html" target="_top" xlink:title=" ">
<polygon fill="#ffffff" stroke="#000000" points="256.1333,-220.5 256.1333,-238.5 363.8667,-238.5 363.8667,-220.5 256.1333,-220.5"/>
<text text-anchor="middle" x="310" y="-226.5" font-family="Helvetica,sans-Serif" font-size="10.00" fill="#000000">Ioss_BoundingBox.h</text>
</a>
</g>
</g>
<!-- Node1&#45;&gt;Node2 -->
<g id="edge2" class="edge">
<title>Node1&#45;&gt;Node2</title>
<path fill="none" stroke="#191970" d="M765.9025,-279.7982C683.9631,-272.1248 518.1459,-256.0468 378,-239 376.7353,-238.8462 375.4578,-238.6886 374.1706,-238.528"/>
<polygon fill="#191970" stroke="#191970" points="374.532,-235.0457 364.1678,-237.2443 373.641,-241.9888 374.532,-235.0457"/>
</g>
<!-- Node3 -->
<g id="node4" class="node">
<title>Node3</title>
<g id="a_node4"><a xlink:href="Ioss__CodeTypes_8h.html" target="_top" xlink:title=" ">
<polygon fill="#ffffff" stroke="#000000" points="830.584,-55.5 830.584,-73.5 929.416,-73.5 929.416,-55.5 830.584,-55.5"/>
<text text-anchor="middle" x="880" y="-61.5" font-family="Helvetica,sans-Serif" font-size="10.00" fill="#000000">Ioss_CodeTypes.h</text>
</a>
</g>
</g>
<!-- Node1&#45;&gt;Node3 -->
<g id="edge3" class="edge">
<title>Node1&#45;&gt;Node3</title>
<path fill="none" stroke="#191970" d="M827.7522,-275.193C841.5164,-262.1399 862.107,-237.9804 849,-220 818.2002,-177.7484 767.7998,-226.2516 737,-184 732.0257,-177.1762 734.486,-173.0615 737,-165 745.8456,-136.6359 752.039,-128.8563 775,-110 793.0761,-95.1553 816.7342,-84.3412 837.0166,-76.99"/>
<polygon fill="#191970" stroke="#191970" points="838.3544,-80.2309 846.6631,-73.657 836.0683,-73.6147 838.3544,-80.2309"/>
</g>
<!-- Node1&#45;&gt;Node5 -->
<g id="edge56" class="edge">
<title>Node1&#45;&gt;Node5</title>
<path fill="none" stroke="#191970" d="M827.7522,-275.193C841.5164,-262.1399 862.107,-237.9804 849,-220 818.2002,-177.7484 767.7998,-226.2516 737,-184 697.855,-130.3002 654.0902,-146.1534 822,-55 867.6819,-30.2006 1228.3001,-14.957 1342.4664,-10.7159"/>
<polygon fill="#191970" stroke="#191970" points="1342.8615,-14.2039 1352.7265,-10.3399 1342.605,-7.2086 1342.8615,-14.2039"/>
</g>
<!-- Node6 -->
<g id="node7" class="node">
<title>Node6</title>
<g id="a_node7"><a xlink:title=" ">
<polygon fill="#ffffff" stroke="#bfbfbf" points="666.5493,-.5 666.5493,-18.5 711.4507,-18.5 711.4507,-.5 666.5493,-.5"/>
<text text-anchor="middle" x="689" y="-6.5" font-family="Helvetica,sans-Serif" font-size="10.00" fill="#000000">cstdint</text>
</a>
</g>
</g>
<!-- Node1&#45;&gt;Node6 -->
<g id="edge57" class="edge">
<title>Node1&#45;&gt;Node6</title>
<path fill="none" stroke="#191970" d="M766.1185,-282.3465C628.4495,-276.2753 257.7542,-258.2093 240,-239 109.514,-97.8193 533.2847,-29.9761 656.4339,-13.5373"/>
<polygon fill="#191970" stroke="#191970" points="656.9535,-16.9993 666.4144,-12.2304 656.0446,-10.0585 656.9535,-16.9993"/>
</g>
<!-- Node1&#45;&gt;Node7 -->
<g id="edge59" class="edge">
<title>Node1&#45;&gt;Node7</title>
<path fill="none" stroke="#191970" d="M868.0768,-283.6694C1058.0034,-280.3734 1717.1723,-267.0099 1807,-239 1891.8475,-212.543 1914.207,-194.7561 1974,-129 1997.9895,-102.618 2009.2193,-90.4077 2005,-55 2003.9554,-46.2342 2001.8168,-36.7153 1999.7007,-28.6607"/>
<polygon fill="#191970" stroke="#191970" points="2003.0038,-27.4766 1996.9338,-18.7929 1996.2637,-29.3665 2003.0038,-27.4766"/>
</g>
<!-- Node1&#45;&gt;Node8 -->
<g id="edge61" class="edge">
<title>Node1&#45;&gt;Node8</title>
<path fill="none" stroke="#191970" d="M765.9362,-282.486C631.0527,-276.8993 272.2116,-260.2111 223,-239 183.8493,-222.1253 152,-217.1325 152,-174.5 152,-174.5 152,-174.5 152,-119.5 152,-45.0845 260.7723,-20.496 316.2556,-12.7942"/>
<polygon fill="#191970" stroke="#191970" points="316.8033,-16.2527 326.2757,-11.5067 315.9112,-9.3098 316.8033,-16.2527"/>
</g>
<!-- Node11 -->
<g id="node12" class="node">
<title>Node11</title>
<g id="a_node12"><a xlink:href="Ioss__DBUsage_8h.html" target="_top" xlink:title=" ">
<polygon fill="#ffffff" stroke="#000000" points="420.4805,-220.5 420.4805,-238.5 511.5195,-238.5 511.5195,-220.5 420.4805,-220.5"/>
<text text-anchor="middle" x="466" y="-226.5" font-family="Helvetica,sans-Serif" font-size="10.00" fill="#000000">Ioss_DBUsage.h</text>
</a>
</g>
</g>
<!-- Node1&#45;&gt;Node11 -->
<g id="edge11" class="edge">
<title>Node1&#45;&gt;Node11</title>
<path fill="none" stroke="#191970" d="M766.149,-276.9759C709.2198,-268.4869 613.9443,-254.0851 521.6792,-239.0863"/>
<polygon fill="#191970" stroke="#191970" points="522.0404,-235.599 511.6076,-237.4446 520.9142,-242.5078 522.0404,-235.599"/>
</g>
<!-- Node12 -->
<g id="node13" class="node">
<title>Node12</title>
<g id="a_node13"><a xlink:href="Ioss__DataSize_8h.html" target="_top" xlink:title=" ">
<polygon fill="#ffffff" stroke="#000000" points="529.5913,-220.5 529.5913,-238.5 618.4087,-238.5 618.4087,-220.5 529.5913,-220.5"/>
<text text-anchor="middle" x="574" y="-226.5" font-family="Helvetica,sans-Serif" font-size="10.00" fill="#000000">Ioss_DataSize.h</text>
</a>
</g>
</g>
<!-- Node1&#45;&gt;Node12 -->
<g id="edge12" class="edge">
<title>Node1&#45;&gt;Node12</title>
<path fill="none" stroke="#191970" d="M777.1456,-275.4795C735.2109,-265.9881 669.1256,-251.0305 623.7875,-240.7688"/>
<polygon fill="#191970" stroke="#191970" points="624.4021,-237.3194 613.8762,-238.5255 622.8568,-244.1467 624.4021,-237.3194"/>
</g>
<!-- Node13 -->
<g id="node14" class="node">
<title>Node13</title>
<g id="a_node14"><a xlink:href="Ioss__EntityType_8h.html" target="_top" xlink:title=" ">
<polygon fill="#ffffff" stroke="#000000" points="1257.5322,-220.5 1257.5322,-238.5 1352.4678,-238.5 1352.4678,-220.5 1257.5322,-220.5"/>
<text text-anchor="middle" x="1305" y="-226.5" font-family="Helvetica,sans-Serif" font-size="10.00" fill="#000000">Ioss_EntityType.h</text>
</a>
</g>
</g>
<!-- Node1&#45;&gt;Node13 -->
<g id="edge13" class="edge">
<title>Node1&#45;&gt;Node13</title>
<path fill="none" stroke="#191970" d="M868.0009,-280.1788C947.0456,-273.2508 1104.1291,-258.5648 1247.104,-239.1927"/>
<polygon fill="#191970" stroke="#191970" points="1247.9384,-242.6114 1257.3726,-237.7899 1246.9908,-235.6758 1247.9384,-242.6114"/>
</g>
<!-- Node14 -->
<g id="node15" class="node">
<title>Node14</title>
<g id="a_node15"><a xlink:href="Ioss__Map_8h.html" target="_top" xlink:title=" ">
<polygon fill="#ffffff" stroke="#000000" points="579.1528,-110.5 579.1528,-128.5 646.8472,-128.5 646.8472,-110.5 579.1528,-110.5"/>
<text text-anchor="middle" x="613" y="-116.5" font-family="Helvetica,sans-Serif" font-size="10.00" fill="#000000">Ioss_Map.h</text>
</a>
</g>
</g>
<!-- Node1&#45;&gt;Node14 -->
<g id="edge14" class="edge">
<title>Node1&#45;&gt;Node14</title>
<path fill="none" stroke="#191970" d="M765.9553,-282.513C662.1571,-277.9468 434.2844,-265.0396 411,-239 359.4436,-181.343 495.406,-143.4881 569.1462,-127.7695"/>
<polygon fill="#191970" stroke="#191970" points="570.0335,-131.16 579.1123,-125.6987 568.6094,-124.3064 570.0335,-131.16"/>
</g>
<!-- Node15 -->
<g id="node16" class="node">
<title>Node15</title>
<g id="a_node16"><a xlink:title=" ">
<polygon fill="#ffffff" stroke="#bfbfbf" points="470.6084,-55.5 470.6084,-73.5 509.3916,-73.5 509.3916,-55.5 470.6084,-55.5"/>
<text text-anchor="middle" x="490" y="-61.5" font-family="Helvetica,sans-Serif" font-size="10.00" fill="#000000">utility</text>
</a>
</g>
</g>
<!-- Node1&#45;&gt;Node15 -->
<g id="edge60" class="edge">
<title>Node1&#45;&gt;Node15</title>
<path fill="none" stroke="#191970" d="M765.7514,-282.2788C628.9776,-276.1047 264.4889,-257.9406 247,-239 241.2714,-232.7959 242.9458,-227.4076 247,-220 247.7791,-218.5765 406.7214,-117.4399 467.097,-79.0558"/>
<polygon fill="#191970" stroke="#191970" points="469.0195,-81.9811 475.5811,-73.6626 465.2642,-76.0736 469.0195,-81.9811"/>
</g>
<!-- Node16 -->
<g id="node17" class="node">
<title>Node16</title>
<g id="a_node17"><a xlink:href="Ioss__ParallelUtils_8h.html" target="_top" xlink:title=" ">
<polygon fill="#ffffff" stroke="#000000" points="1138.4829,-220.5 1138.4829,-238.5 1239.5171,-238.5 1239.5171,-220.5 1138.4829,-220.5"/>
<text text-anchor="middle" x="1189" y="-226.5" font-family="Helvetica,sans-Serif" font-size="10.00" fill="#000000">Ioss_ParallelUtils.h</text>
</a>
</g>
</g>
<!-- Node1&#45;&gt;Node16 -->
<g id="edge21" class="edge">
<title>Node1&#45;&gt;Node16</title>
<path fill="none" stroke="#191970" d="M867.945,-276.9678C935.8873,-266.9226 1055.9921,-249.1651 1128.4721,-238.449"/>
<polygon fill="#191970" stroke="#191970" points="1128.9923,-241.9102 1138.3728,-236.9852 1127.9684,-234.9855 1128.9923,-241.9102"/>
</g>
<!-- Node25 -->
<g id="node26" class="node">
<title>Node25</title>
<g id="a_node26"><a xlink:href="Ioss__PropertyManager_8h.html" target="_top" xlink:title=" ">
<polygon fill="#ffffff" stroke="#000000" points="1673.5225,-220.5 1673.5225,-238.5 1798.4775,-238.5 1798.4775,-220.5 1673.5225,-220.5"/>
<text text-anchor="middle" x="1736" y="-226.5" font-family="Helvetica,sans-Serif" font-size="10.00" fill="#000000">Ioss_PropertyManager.h</text>
</a>
</g>
</g>
<!-- Node1&#45;&gt;Node25 -->
<g id="edge44" class="edge">
<title>Node1&#45;&gt;Node25</title>
<path fill="none" stroke="#191970" d="M868.1904,-282.6657C998.5831,-277.7839 1353.796,-263.1716 1649,-239 1653.6755,-238.6172 1658.4887,-238.1885 1663.3383,-237.7306"/>
<polygon fill="#191970" stroke="#191970" points="1663.6999,-241.212 1673.3117,-236.755 1663.0184,-234.2453 1663.6999,-241.212"/>
</g>
<!-- Node28 -->
<g id="node29" class="node">
<title>Node28</title>
<g id="a_node29"><a xlink:href="Ioss__State_8h.html" target="_top" xlink:title=" ">
<polygon fill="#ffffff" stroke="#000000" points="934.2046,-220.5 934.2046,-238.5 1005.7954,-238.5 1005.7954,-220.5 934.2046,-220.5"/>
<text text-anchor="middle" x="970" y="-226.5" font-family="Helvetica,sans-Serif" font-size="10.00" fill="#000000">Ioss_State.h</text>
</a>
</g>
</g>
<!-- Node1&#45;&gt;Node28 -->
<g id="edge53" class="edge">
<title>Node1&#45;&gt;Node28</title>
<path fill="none" stroke="#191970" d="M842.2648,-275.4179C867.6993,-266.2748 907.1181,-252.1046 935.4386,-241.924"/>
<polygon fill="#191970" stroke="#191970" points="936.7255,-245.1808 944.9519,-238.5042 934.3575,-238.5935 936.7255,-245.1808"/>
</g>
<!-- Node29 -->
<g id="node30" class="node">
<title>Node29</title>
<g id="a_node30"><a xlink:href="Ioss__SurfaceSplit_8h.html" target="_top" xlink:title=" ">
<polygon fill="#ffffff" stroke="#000000" points="673.9214,-220.5 673.9214,-238.5 776.0786,-238.5 776.0786,-220.5 673.9214,-220.5"/>
<text text-anchor="middle" x="725" y="-226.5" font-family="Helvetica,sans-Serif" font-size="10.00" fill="#000000">Ioss_SurfaceSplit.h</text>
</a>
</g>
</g>
<!-- Node1&#45;&gt;Node29 -->
<g id="edge54" class="edge">
<title>Node1&#45;&gt;Node29</title>
<path fill="none" stroke="#191970" d="M801.8081,-275.4179C787.4254,-266.8195 765.6061,-253.7754 748.8939,-243.7844"/>
<polygon fill="#191970" stroke="#191970" points="750.5936,-240.7228 740.2145,-238.5956 747.0017,-246.731 750.5936,-240.7228"/>
</g>
<!-- Node30 -->
<g id="node31" class="node">
<title>Node30</title>
<g id="a_node31"><a xlink:title=" ">
<polygon fill="#ffffff" stroke="#bfbfbf" points="793.7119,-220.5 793.7119,-238.5 840.2881,-238.5 840.2881,-220.5 793.7119,-220.5"/>
<text text-anchor="middle" x="817" y="-226.5" font-family="Helvetica,sans-Serif" font-size="10.00" fill="#000000">chrono</text>
</a>
</g>
</g>
<!-- Node1&#45;&gt;Node30 -->
<g id="edge55" class="edge">
<title>Node1&#45;&gt;Node30</title>
<path fill="none" stroke="#191970" d="M817,-275.4179C817,-268.2164 817,-257.8962 817,-248.8632"/>
<polygon fill="#191970" stroke="#191970" points="820.5001,-248.7794 817,-238.7795 813.5001,-248.7795 820.5001,-248.7794"/>
</g>
<!-- Node31 -->
<g id="node32" class="node">
<title>Node31</title>
<g id="a_node32"><a xlink:title=" ">
<polygon fill="#ffffff" stroke="#bfbfbf" points="573.2734,-165.5 573.2734,-183.5 608.7266,-183.5 608.7266,-165.5 573.2734,-165.5"/>
<text text-anchor="middle" x="591" y="-171.5" font-family="Helvetica,sans-Serif" font-size="10.00" fill="#000000">map</text>
</a>
</g>
</g>
<!-- Node1&#45;&gt;Node31 -->
<g id="edge58" class="edge">
<title>Node1&#45;&gt;Node31</title>
<path fill="none" stroke="#191970" d="M768.3632,-275.4911C737.4547,-268.4529 697.3238,-256.8219 665,-239 642.0819,-226.364 620.0318,-205.6788 606.0549,-191.1479"/>
<polygon fill="#191970" stroke="#191970" points="608.5585,-188.701 599.1662,-183.7985 603.4513,-193.4881 608.5585,-188.701"/>
</g>
<!-- Node4 -->
<g id="node5" class="node">
<title>Node4</title>
<g id="a_node5"><a xlink:title=" ">
<polygon fill="#ffffff" stroke="#bfbfbf" points="765.6084,-.5 765.6084,-18.5 804.3916,-18.5 804.3916,-.5 765.6084,-.5"/>
<text text-anchor="middle" x="785" y="-6.5" font-family="Helvetica,sans-Serif" font-size="10.00" fill="#000000">array</text>
</a>
</g>
</g>
<!-- Node3&#45;&gt;Node4 -->
<g id="edge4" class="edge">
<title>Node3&#45;&gt;Node4</title>
<path fill="none" stroke="#191970" d="M864.3127,-55.4179C849.461,-46.8195 826.9302,-33.7754 809.6731,-23.7844"/>
<polygon fill="#191970" stroke="#191970" points="811.1185,-20.577 800.7106,-18.5956 807.6113,-26.635 811.1185,-20.577"/>
</g>
<!-- Node3&#45;&gt;Node5 -->
<g id="edge5" class="edge">
<title>Node3&#45;&gt;Node5</title>
<path fill="none" stroke="#191970" d="M929.4931,-56.8208C934.0558,-56.1781 938.6112,-55.5607 943,-55 1091.2675,-36.0589 1268.7787,-19.2879 1342.3923,-12.5924"/>
<polygon fill="#191970" stroke="#191970" points="1342.8401,-16.0662 1352.4836,-11.6785 1342.2087,-9.0948 1342.8401,-16.0662"/>
</g>
<!-- Node3&#45;&gt;Node6 -->
<g id="edge6" class="edge">
<title>Node3&#45;&gt;Node6</title>
<path fill="none" stroke="#191970" d="M848.4602,-55.4179C813.3574,-45.3097 756.9174,-29.0574 721.4506,-18.8444"/>
<polygon fill="#191970" stroke="#191970" points="722.1793,-15.4121 711.6013,-16.0082 720.2423,-22.1388 722.1793,-15.4121"/>
</g>
<!-- Node3&#45;&gt;Node7 -->
<g id="edge7" class="edge">
<title>Node3&#45;&gt;Node7</title>
<path fill="none" stroke="#191970" d="M929.6669,-62.0479C1121.4004,-52.5817 1810.2583,-18.5716 1963.6025,-11.0008"/>
<polygon fill="#191970" stroke="#191970" points="1963.8884,-14.491 1973.7036,-10.5021 1963.5432,-7.4995 1963.8884,-14.491"/>
</g>
<!-- Node3&#45;&gt;Node8 -->
<g id="edge8" class="edge">
<title>Node3&#45;&gt;Node8</title>
<path fill="none" stroke="#191970" d="M830.4285,-59.3751C722.6044,-48.2279 469.2803,-22.0384 379.9043,-12.7984"/>
<polygon fill="#191970" stroke="#191970" points="380.1453,-9.3047 369.8384,-11.7577 379.4254,-16.2676 380.1453,-9.3047"/>
</g>
<!-- Node9 -->
<g id="node10" class="node">
<title>Node9</title>
<g id="a_node10"><a xlink:title=" ">
<polygon fill="#ffffff" stroke="#bfbfbf" points="822.2515,-.5 822.2515,-18.5 937.7485,-18.5 937.7485,-.5 822.2515,-.5"/>
<text text-anchor="middle" x="880" y="-6.5" font-family="Helvetica,sans-Serif" font-size="10.00" fill="#000000">SEACASIoss_config.h</text>
</a>
</g>
</g>
<!-- Node3&#45;&gt;Node9 -->
<g id="edge9" class="edge">
<title>Node3&#45;&gt;Node9</title>
<path fill="none" stroke="#191970" d="M880,-55.4179C880,-48.2164 880,-37.8962 880,-28.8632"/>
<polygon fill="#191970" stroke="#191970" points="883.5001,-28.7794 880,-18.7795 876.5001,-28.7795 883.5001,-28.7794"/>
</g>
<!-- Node10 -->
<g id="node11" class="node">
<title>Node10</title>
<g id="a_node11"><a xlink:title=" ">
<polygon fill="#ffffff" stroke="#bfbfbf" points="955.3818,-.5 955.3818,-18.5 1008.6182,-18.5 1008.6182,-.5 955.3818,-.5"/>
<text text-anchor="middle" x="982" y="-6.5" font-family="Helvetica,sans-Serif" font-size="10.00" fill="#000000">complex</text>
</a>
</g>
</g>
<!-- Node3&#45;&gt;Node10 -->
<g id="edge10" class="edge">
<title>Node3&#45;&gt;Node10</title>
<path fill="none" stroke="#191970" d="M896.8432,-55.4179C913.0107,-46.7001 937.6538,-33.4122 956.2776,-23.3699"/>
<polygon fill="#191970" stroke="#191970" points="957.991,-26.4225 965.1318,-18.5956 954.6686,-20.2611 957.991,-26.4225"/>
</g>
<!-- Node14&#45;&gt;Node3 -->
<g id="edge15" class="edge">
<title>Node14&#45;&gt;Node3</title>
<path fill="none" stroke="#191970" d="M647.0869,-112.4783C692.2561,-103.1738 772.4541,-86.6537 825.9308,-75.6378"/>
<polygon fill="#191970" stroke="#191970" points="826.8327,-79.0256 835.9209,-73.58 825.4204,-72.1696 826.8327,-79.0256"/>
</g>
<!-- Node14&#45;&gt;Node5 -->
<g id="edge16" class="edge">
<title>Node14&#45;&gt;Node5</title>
<path fill="none" stroke="#191970" d="M627.6343,-110.4517C652.1193,-95.8318 703.3996,-67.4026 751,-55 864.2604,-25.4893 1228.2413,-13.4667 1342.4092,-10.3624"/>
<polygon fill="#191970" stroke="#191970" points="1342.7578,-13.8545 1352.6611,-10.0896 1342.5714,-6.857 1342.7578,-13.8545"/>
</g>
<!-- Node14&#45;&gt;Node6 -->
<g id="edge17" class="edge">
<title>Node14&#45;&gt;Node6</title>
<path fill="none" stroke="#191970" d="M619.2194,-110.4982C631.8007,-92.2885 660.4668,-50.798 676.8748,-27.0496"/>
<polygon fill="#191970" stroke="#191970" points="679.8899,-28.843 682.6947,-18.6261 674.1307,-24.8639 679.8899,-28.843"/>
</g>
<!-- Node14&#45;&gt;Node7 -->
<g id="edge18" class="edge">
<title>Node14&#45;&gt;Node7</title>
<path fill="none" stroke="#191970" d="M635.4124,-110.4545C673.1715,-95.7028 752.1895,-66.9167 822,-55 937.3255,-35.3139 1790.1427,-14.3037 1963.3567,-10.2125"/>
<polygon fill="#191970" stroke="#191970" points="1963.6345,-13.707 1973.5494,-9.9728 1963.4698,-6.709 1963.6345,-13.707"/>
</g>
<!-- Node14&#45;&gt;Node8 -->
<g id="edge20" class="edge">
<title>Node14&#45;&gt;Node8</title>
<path fill="none" stroke="#191970" d="M606.9554,-110.3913C597.0373,-96.2084 575.9031,-69.0223 551,-55 496.1375,-24.1083 421.8613,-14.19 380.0511,-11.0056"/>
<polygon fill="#191970" stroke="#191970" points="380.1187,-7.5023 369.9048,-10.3178 379.6451,-14.4863 380.1187,-7.5023"/>
</g>
<!-- Node14&#45;&gt;Node15 -->
<g id="edge19" class="edge">
<title>Node14&#45;&gt;Node15</title>
<path fill="none" stroke="#191970" d="M592.6891,-110.4179C572.5091,-101.3943 541.3788,-87.4743 518.6822,-77.3254"/>
<polygon fill="#191970" stroke="#191970" points="520.0856,-74.119 509.5279,-73.232 517.2281,-80.5092 520.0856,-74.119"/>
</g>
<!-- Node16&#45;&gt;Node3 -->
<g id="edge22" class="edge">
<title>Node16&#45;&gt;Node3</title>
<path fill="none" stroke="#191970" d="M1138.2032,-221.941C1067.5562,-211.2356 946.1151,-192.0636 927,-184 888.5834,-167.7941 869.9639,-166.1327 851,-129 842.9378,-113.2136 853.1928,-94.7185 863.6688,-81.5909"/>
<polygon fill="#191970" stroke="#191970" points="866.4956,-83.6731 870.3946,-73.8217 861.2032,-79.0915 866.4956,-83.6731"/>
</g>
<!-- Node16&#45;&gt;Node5 -->
<g id="edge41" class="edge">
<title>Node16&#45;&gt;Node5</title>
<path fill="none" stroke="#191970" d="M1138.3978,-222.0526C1096.0883,-214.6683 1040.5421,-201.8696 1027,-184 1015.8182,-169.245 1016.5649,-132.0169 1036,-110 1077.1065,-63.4328 1264.3803,-27.9638 1342.558,-14.929"/>
<polygon fill="#191970" stroke="#191970" points="1343.5384,-18.3149 1352.8386,-13.2398 1342.4034,-11.4075 1343.5384,-18.3149"/>
</g>
<!-- Node16&#45;&gt;Node7 -->
<g id="edge42" class="edge">
<title>Node16&#45;&gt;Node7</title>
<path fill="none" stroke="#191970" d="M1234.4773,-220.4744C1280.1341,-211.3826 1352.4782,-196.8929 1415,-184 1455.0392,-175.7433 1464.9976,-173.4332 1505,-165 1580.9955,-148.9787 1601.7079,-151.6425 1676,-129 1697.5524,-122.4313 1701.8162,-117.6747 1723,-110 1772.1592,-92.19 1786.3902,-93.2591 1835,-74 1853.2976,-66.7505 1856.9055,-62.7426 1875,-55 1904.8924,-42.209 1939.6928,-29.1051 1963.9083,-20.2652"/>
<polygon fill="#191970" stroke="#191970" points="1965.3867,-23.4521 1973.5931,-16.751 1962.999,-16.8719 1965.3867,-23.4521"/>
</g>
<!-- Node16&#45;&gt;Node8 -->
<g id="edge43" class="edge">
<title>Node16&#45;&gt;Node8</title>
<path fill="none" stroke="#191970" d="M1138.2776,-223.7276C954.907,-202.8366 336.9449,-132.2274 333,-129 306.8024,-107.5673 304.5538,-87.1956 315,-55 318.4422,-44.3911 325.3888,-34.1855 332.0245,-26.1379"/>
<polygon fill="#191970" stroke="#191970" points="334.6775,-28.4211 338.667,-18.606 329.4275,-23.791 334.6775,-28.4211"/>
</g>
<!-- Node17 -->
<g id="node18" class="node">
<title>Node17</title>
<g id="a_node18"><a xlink:href="Ioss__Utils_8h.html" target="_top" xlink:title=" ">
<polygon fill="#ffffff" stroke="#000000" points="1338.1577,-165.5 1338.1577,-183.5 1405.8423,-183.5 1405.8423,-165.5 1338.1577,-165.5"/>
<text text-anchor="middle" x="1372" y="-171.5" font-family="Helvetica,sans-Serif" font-size="10.00" fill="#000000">Ioss_Utils.h</text>
</a>
</g>
</g>
<!-- Node16&#45;&gt;Node17 -->
<g id="edge23" class="edge">
<title>Node16&#45;&gt;Node17</title>
<path fill="none" stroke="#191970" d="M1219.2187,-220.4179C1250.1718,-211.115 1298.4405,-196.608 1332.4246,-186.3943"/>
<polygon fill="#191970" stroke="#191970" points="1333.4711,-189.7344 1342.0405,-183.5042 1331.4563,-183.0307 1333.4711,-189.7344"/>
</g>
<!-- Node20 -->
<g id="node21" class="node">
<title>Node20</title>
<g id="a_node21"><a xlink:title=" ">
<polygon fill="#ffffff" stroke="#bfbfbf" points="1044.8843,-110.5 1044.8843,-128.5 1093.1157,-128.5 1093.1157,-110.5 1044.8843,-110.5"/>
<text text-anchor="middle" x="1069" y="-116.5" font-family="Helvetica,sans-Serif" font-size="10.00" fill="#000000">cassert</text>
</a>
</g>
</g>
<!-- Node16&#45;&gt;Node20 -->
<g id="edge40" class="edge">
<title>Node16&#45;&gt;Node20</title>
<path fill="none" stroke="#191970" d="M1138.42,-221.1265C1098.8192,-213.4178 1048.4267,-200.6601 1036,-184 1024.8097,-168.9975 1037.7764,-149.6445 1050.5988,-136.0668"/>
<polygon fill="#191970" stroke="#191970" points="1053.2873,-138.331 1057.948,-128.8164 1048.3712,-133.3479 1053.2873,-138.331"/>
</g>
<!-- Node17&#45;&gt;Node3 -->
<g id="edge24" class="edge">
<title>Node17&#45;&gt;Node3</title>
<path fill="none" stroke="#191970" d="M1337.6873,-167.8314C1273.6941,-155.3864 1142.3491,-129.8011 1140,-129 1122.1283,-122.9053 1119.8457,-116.1705 1102,-110 1048.4189,-91.4733 984.8178,-79.387 939.4544,-72.3608"/>
<polygon fill="#191970" stroke="#191970" points="939.8981,-68.8882 929.487,-70.8529 938.8509,-75.8095 939.8981,-68.8882"/>
</g>
<!-- Node17&#45;&gt;Node5 -->
<g id="edge33" class="edge">
<title>Node17&#45;&gt;Node5</title>
<path fill="none" stroke="#191970" d="M1405.8689,-170.5344C1469.2928,-162.7672 1600.7968,-144.917 1614,-129 1673.6898,-57.0416 1489.9014,-24.0827 1411.0755,-13.5044"/>
<polygon fill="#191970" stroke="#191970" points="1411.4916,-10.0292 1401.1244,-12.2135 1410.591,-16.971 1411.4916,-10.0292"/>
</g>
<!-- Node17&#45;&gt;Node6 -->
<g id="edge34" class="edge">
<title>Node17&#45;&gt;Node6</title>
<path fill="none" stroke="#191970" d="M1349.9096,-165.4582C1328.3518,-156.5311 1294.701,-142.3214 1266,-129 1248.8726,-121.0504 1245.7491,-116.443 1228,-110 1128.3907,-73.8417 1100.0629,-75.0085 996,-55 969.3974,-49.8851 795.1295,-24.7266 721.6207,-14.173"/>
<polygon fill="#191970" stroke="#191970" points="721.9316,-10.6818 711.5358,-12.726 720.9373,-17.6109 721.9316,-10.6818"/>
</g>
<!-- Node17&#45;&gt;Node7 -->
<g id="edge38" class="edge">
<title>Node17&#45;&gt;Node7</title>
<path fill="none" stroke="#191970" d="M1406.1562,-170.325C1456.3694,-163.7878 1552.838,-149.7045 1633,-129 1681.7197,-116.4165 1799.1815,-70.6635 1847,-55 1887.1974,-41.8329 1933.9028,-27.5483 1963.6895,-18.5652"/>
<polygon fill="#191970" stroke="#191970" points="1964.9137,-21.8519 1973.4815,-15.6194 1962.8971,-15.1487 1964.9137,-21.8519"/>
</g>
<!-- Node17&#45;&gt;Node8 -->
<g id="edge39" class="edge">
<title>Node17&#45;&gt;Node8</title>
<path fill="none" stroke="#191970" d="M1337.9723,-172.4975C1304.9978,-170.5616 1253.5728,-167.5545 1209,-165 1138.0039,-160.9312 632.1577,-163.5459 570,-129 534.8648,-109.4726 550.95,-78.0239 518,-55 476.0584,-25.6932 416.2405,-15.2585 379.8834,-11.5462"/>
<polygon fill="#191970" stroke="#191970" points="380.1186,-8.0532 369.8423,-10.6317 379.4836,-15.0244 380.1186,-8.0532"/>
</g>
<!-- Node18 -->
<g id="node19" class="node">
<title>Node18</title>
<g id="a_node19"><a xlink:href="Ioss__Field_8h.html" target="_top" xlink:title=" ">
<polygon fill="#ffffff" stroke="#000000" points="1149.042,-110.5 1149.042,-128.5 1218.958,-128.5 1218.958,-110.5 1149.042,-110.5"/>
<text text-anchor="middle" x="1184" y="-116.5" font-family="Helvetica,sans-Serif" font-size="10.00" fill="#000000">Ioss_Field.h</text>
</a>
</g>
</g>
<!-- Node17&#45;&gt;Node18 -->
<g id="edge25" class="edge">
<title>Node17&#45;&gt;Node18</title>
<path fill="none" stroke="#191970" d="M1340.9556,-165.4179C1309.1569,-156.115 1259.5693,-141.608 1224.6567,-131.3943"/>
<polygon fill="#191970" stroke="#191970" points="1225.3585,-127.9529 1214.778,-128.5042 1223.393,-134.6713 1225.3585,-127.9529"/>
</g>
<!-- Node19 -->
<g id="node20" class="node">
<title>Node19</title>
<g id="a_node20"><a xlink:title=" ">
<polygon fill="#ffffff" stroke="#bfbfbf" points="1275.436,-110.5 1275.436,-128.5 1332.564,-128.5 1332.564,-110.5 1275.436,-110.5"/>
<text text-anchor="middle" x="1304" y="-116.5" font-family="Helvetica,sans-Serif" font-size="10.00" fill="#000000">algorithm</text>
</a>
</g>
</g>
<!-- Node17&#45;&gt;Node19 -->
<g id="edge30" class="edge">
<title>Node17&#45;&gt;Node19</title>
<path fill="none" stroke="#191970" d="M1360.7712,-165.4179C1350.5955,-157.1876 1335.3837,-144.8839 1323.2669,-135.0836"/>
<polygon fill="#191970" stroke="#191970" points="1325.449,-132.3469 1315.4728,-128.7795 1321.0469,-137.7895 1325.449,-132.3469"/>
</g>
<!-- Node17&#45;&gt;Node20 -->
<g id="edge31" class="edge">
<title>Node17&#45;&gt;Node20</title>
<path fill="none" stroke="#191970" d="M1338.0177,-167.7914C1332.9864,-166.8331 1327.8609,-165.8761 1323,-165 1227.2192,-147.7365 1202.2851,-148.8181 1107,-129 1105.7641,-128.743 1104.5077,-128.4732 1103.2402,-128.1941"/>
<polygon fill="#191970" stroke="#191970" points="1103.9965,-124.7766 1093.4636,-125.921 1102.4112,-131.5947 1103.9965,-124.7766"/>
</g>
<!-- Node21 -->
<g id="node22" class="node">
<title>Node21</title>
<g id="a_node22"><a xlink:title=" ">
<polygon fill="#ffffff" stroke="#bfbfbf" points="1350.3843,-110.5 1350.3843,-128.5 1393.6157,-128.5 1393.6157,-110.5 1350.3843,-110.5"/>
<text text-anchor="middle" x="1372" y="-116.5" font-family="Helvetica,sans-Serif" font-size="10.00" fill="#000000">cmath</text>
</a>
</g>
</g>
<!-- Node17&#45;&gt;Node21 -->
<g id="edge32" class="edge">
<title>Node17&#45;&gt;Node21</title>
<path fill="none" stroke="#191970" d="M1372,-165.4179C1372,-158.2164 1372,-147.8962 1372,-138.8632"/>
<polygon fill="#191970" stroke="#191970" points="1375.5001,-138.7794 1372,-128.7795 1368.5001,-138.7795 1375.5001,-138.7794"/>
</g>
<!-- Node22 -->
<g id="node23" class="node">
<title>Node22</title>
<g id="a_node23"><a xlink:title=" ">
<polygon fill="#ffffff" stroke="#bfbfbf" points="1411.8276,-110.5 1411.8276,-128.5 1456.1724,-128.5 1456.1724,-110.5 1411.8276,-110.5"/>
<text text-anchor="middle" x="1434" y="-116.5" font-family="Helvetica,sans-Serif" font-size="10.00" fill="#000000">cstdlib</text>
</a>
</g>
</g>
<!-- Node17&#45;&gt;Node22 -->
<g id="edge35" class="edge">
<title>Node17&#45;&gt;Node22</title>
<path fill="none" stroke="#191970" d="M1382.238,-165.4179C1391.3374,-157.3458 1404.8537,-145.3556 1415.7926,-135.6517"/>
<polygon fill="#191970" stroke="#191970" points="1418.3814,-138.0339 1423.5395,-128.7795 1413.7361,-132.7974 1418.3814,-138.0339"/>
</g>
<!-- Node23 -->
<g id="node24" class="node">
<title>Node23</title>
<g id="a_node24"><a xlink:title=" ">
<polygon fill="#ffffff" stroke="#bfbfbf" points="1473.8276,-110.5 1473.8276,-128.5 1528.1724,-128.5 1528.1724,-110.5 1473.8276,-110.5"/>
<text text-anchor="middle" x="1501" y="-116.5" font-family="Helvetica,sans-Serif" font-size="10.00" fill="#000000">iostream</text>
</a>
</g>
</g>
<!-- Node17&#45;&gt;Node23 -->
<g id="edge36" class="edge">
<title>Node17&#45;&gt;Node23</title>
<path fill="none" stroke="#191970" d="M1393.3017,-165.4179C1414.309,-156.4613 1446.6308,-142.6806 1470.3871,-132.552"/>
<polygon fill="#191970" stroke="#191970" points="1471.8405,-135.7372 1479.6666,-128.5956 1469.0951,-129.2981 1471.8405,-135.7372"/>
</g>
<!-- Node24 -->
<g id="node25" class="node">
<title>Node24</title>
<g id="a_node25"><a xlink:title=" ">
<polygon fill="#ffffff" stroke="#bfbfbf" points="1546.5986,-110.5 1546.5986,-128.5 1605.4014,-128.5 1605.4014,-110.5 1546.5986,-110.5"/>
<text text-anchor="middle" x="1576" y="-116.5" font-family="Helvetica,sans-Serif" font-size="10.00" fill="#000000">stdexcept</text>
</a>
</g>
</g>
<!-- Node17&#45;&gt;Node24 -->
<g id="edge37" class="edge">
<title>Node17&#45;&gt;Node24</title>
<path fill="none" stroke="#191970" d="M1405.6865,-165.4179C1441.7343,-155.6991 1498.8496,-140.3004 1536.8661,-130.0508"/>
<polygon fill="#191970" stroke="#191970" points="1537.8274,-133.4167 1546.5715,-127.4342 1536.0051,-126.658 1537.8274,-133.4167"/>
</g>
<!-- Node18&#45;&gt;Node3 -->
<g id="edge26" class="edge">
<title>Node18&#45;&gt;Node3</title>
<path fill="none" stroke="#191970" d="M1148.9483,-112.6384C1144.2609,-111.7401 1139.5151,-110.8405 1135,-110 1068.2696,-97.5785 991.5825,-83.9874 939.8771,-74.9239"/>
<polygon fill="#191970" stroke="#191970" points="940.3333,-71.4506 929.8794,-73.1733 939.1258,-78.3457 940.3333,-71.4506"/>
</g>
<!-- Node18&#45;&gt;Node5 -->
<g id="edge27" class="edge">
<title>Node18&#45;&gt;Node5</title>
<path fill="none" stroke="#191970" d="M1199.794,-110.4982C1233.299,-91.4021 1311.7239,-46.704 1352.0631,-23.7128"/>
<polygon fill="#191970" stroke="#191970" points="1354.0329,-26.6187 1360.9878,-18.6261 1350.5667,-20.5371 1354.0329,-26.6187"/>
</g>
<!-- Node18&#45;&gt;Node7 -->
<g id="edge28" class="edge">
<title>Node18&#45;&gt;Node7</title>
<path fill="none" stroke="#191970" d="M1219.0647,-114.7381C1353.7572,-96.4466 1836.7064,-30.8609 1963.3918,-13.6567"/>
<polygon fill="#191970" stroke="#191970" points="1964.1054,-17.092 1973.5435,-12.278 1963.1634,-10.1556 1964.1054,-17.092"/>
</g>
<!-- Node18&#45;&gt;Node8 -->
<g id="edge29" class="edge">
<title>Node18&#45;&gt;Node8</title>
<path fill="none" stroke="#191970" d="M1156.3166,-110.4955C1111.1486,-96.2016 1018.5489,-68.5528 938,-55 727.2014,-19.5319 469.3082,-11.6615 380.1312,-9.9577"/>
<polygon fill="#191970" stroke="#191970" points="379.9296,-6.4537 369.8689,-9.7752 379.805,-13.4526 379.9296,-6.4537"/>
</g>
<!-- Node25&#45;&gt;Node3 -->
<g id="edge45" class="edge">
<title>Node25&#45;&gt;Node3</title>
<path fill="none" stroke="#191970" d="M1673.4187,-222.6608C1563.4998,-210.6263 1345.7402,-186.6772 1329,-184 1288.2018,-177.4753 1278.5645,-172.8476 1238,-165 1148.4677,-147.679 1122.9792,-156.3983 1036,-129 1016.8441,-122.9659 1013.4563,-117.9199 995,-110 967.7216,-98.2944 936.3671,-85.962 913.2946,-77.0937"/>
<polygon fill="#191970" stroke="#191970" points="914.5399,-73.8228 903.9495,-73.517 912.0377,-80.3603 914.5399,-73.8228"/>
</g>
<!-- Node25&#45;&gt;Node5 -->
<g id="edge49" class="edge">
<title>Node25&#45;&gt;Node5</title>
<path fill="none" stroke="#191970" d="M1759.2236,-220.3812C1783.7181,-209.2746 1817.0957,-188.9953 1804,-165 1760.7091,-85.6777 1717.1276,-87.995 1633,-55 1557.2789,-25.3021 1461.3284,-14.8691 1411.1369,-11.2942"/>
<polygon fill="#191970" stroke="#191970" points="1411.3547,-7.801 1401.1448,-10.631 1410.891,-14.7857 1411.3547,-7.801"/>
</g>
<!-- Node25&#45;&gt;Node7 -->
<g id="edge50" class="edge">
<title>Node25&#45;&gt;Node7</title>
<path fill="none" stroke="#191970" d="M1768.1968,-220.4768C1813.1008,-206.647 1895.2783,-176.687 1951,-129 1973.5734,-109.6815 1979.0642,-102.0008 1989,-74 1994.1709,-59.4276 1995.2262,-41.8748 1995.097,-28.7616"/>
<polygon fill="#191970" stroke="#191970" points="1998.5884,-28.4433 1994.7523,-18.5673 1991.5924,-28.6799 1998.5884,-28.4433"/>
</g>
<!-- Node25&#45;&gt;Node8 -->
<g id="edge52" class="edge">
<title>Node25&#45;&gt;Node8</title>
<path fill="none" stroke="#191970" d="M1673.2902,-222.4841C1665.1216,-221.6196 1656.8632,-220.7703 1649,-220 1464.7448,-201.9506 1416.7767,-213.4692 1234,-184 1197.9214,-178.183 1190.1549,-170.3224 1154,-165 1020.0954,-145.2878 675.2594,-169.1374 546,-129 473.4902,-106.4844 400.0654,-52.0278 366.6421,-25.1039"/>
<polygon fill="#191970" stroke="#191970" points="368.6272,-22.2061 358.6693,-18.588 364.1975,-27.6263 368.6272,-22.2061"/>
</g>
<!-- Node25&#45;&gt;Node26 -->
<g id="edge46" class="edge">
<title>Node25&#45;&gt;Node26</title>
<path fill="none" stroke="#191970" d="M1780.6107,-220.4795C1828.5095,-210.794 1904.5578,-195.4166 1955.3537,-185.1454"/>
<polygon fill="#191970" stroke="#191970" points="1956.0525,-188.575 1965.1604,-183.1624 1954.6651,-181.7139 1956.0525,-188.575"/>
</g>
<!-- Node27 -->
<g id="node28" class="node">
<title>Node27</title>
<g id="a_node28"><a xlink:title=" ">
<polygon fill="#ffffff" stroke="#bfbfbf" points="1708.6973,-165.5 1708.6973,-183.5 1795.3027,-183.5 1795.3027,-165.5 1708.6973,-165.5"/>
<text text-anchor="middle" x="1752" y="-171.5" font-family="Helvetica,sans-Serif" font-size="10.00" fill="#000000">unordered_map</text>
</a>
</g>
</g>
<!-- Node25&#45;&gt;Node27 -->
<g id="edge51" class="edge">
<title>Node25&#45;&gt;Node27</title>
<path fill="none" stroke="#191970" d="M1738.6421,-220.4179C1740.7601,-213.1372 1743.8054,-202.669 1746.4536,-193.5659"/>
<polygon fill="#191970" stroke="#191970" points="1749.8678,-194.3591 1749.3005,-183.7795 1743.1465,-192.4037 1749.8678,-194.3591"/>
</g>
<!-- Node26&#45;&gt;Node6 -->
<g id="edge47" class="edge">
<title>Node26&#45;&gt;Node6</title>
<path fill="none" stroke="#191970" d="M1965.2665,-166.6913C1893.073,-153.6822 1742.2817,-127.2969 1614,-110 1234.4049,-58.8171 1137.1693,-65.727 757,-19 745.5238,-17.5894 732.9816,-15.8839 721.8289,-14.3094"/>
<polygon fill="#191970" stroke="#191970" points="722.0366,-10.8037 711.6421,-12.854 721.0465,-17.7333 722.0366,-10.8037"/>
</g>
<!-- Node26&#45;&gt;Node7 -->
<g id="edge48" class="edge">
<title>Node26&#45;&gt;Node7</title>
<path fill="none" stroke="#191970" d="M2026.6436,-165.4275C2040.046,-157.7723 2057.0927,-145.4295 2065,-129 2079.263,-99.3648 2080.7805,-83.8557 2065,-55 2056.1578,-38.8314 2038.8454,-27.5625 2023.5303,-20.284"/>
<polygon fill="#191970" stroke="#191970" points="2024.9101,-17.0674 2014.3461,-16.2597 2022.1006,-23.4789 2024.9101,-17.0674"/>
</g>
<!-- Node32&#45;&gt;Node5 -->
<g id="edge98" class="edge">
<title>Node32&#45;&gt;Node5</title>
<path fill="none" stroke="#191970" d="M1383.9705,-447.2259C1499.9998,-441.6379 1784.8559,-426.0652 1878,-404 1941.8454,-388.8755 1971.3605,-397.9957 2015,-349 2065.5562,-292.2387 2049.9107,-259.3391 2060,-184 2061.1209,-175.6303 2064.9936,-171.8097 2060,-165 2035.9567,-132.2126 1750.6751,-63.8872 1711,-55 1602.9867,-30.805 1472.2565,-17.5247 1411.3409,-12.2384"/>
<polygon fill="#191970" stroke="#191970" points="1411.404,-8.7312 1401.1436,-11.372 1410.8114,-15.7061 1411.404,-8.7312"/>
</g>
<!-- Node32&#45;&gt;Node6 -->
<g id="edge99" class="edge">
<title>Node32&#45;&gt;Node6</title>
<path fill="none" stroke="#191970" d="M1283.8741,-447.872C1088.4223,-440.377 381.6282,-402.2004 247,-239 241.6264,-232.4859 242.4918,-227.1404 247,-220 271.1004,-181.8283 559.6173,-62.0363 657.0752,-22.3869"/>
<polygon fill="#191970" stroke="#191970" points="658.4731,-25.5968 666.4218,-18.5919 655.8397,-19.111 658.4731,-25.5968"/>
</g>
<!-- Node32&#45;&gt;Node7 -->
<g id="edge100" class="edge">
<title>Node32&#45;&gt;Node7</title>
<path fill="none" stroke="#191970" d="M1383.9793,-449.0316C1553.4267,-447.1351 2099.4945,-438.3902 2170,-404 2231.9885,-373.764 2269,-353.4695 2269,-284.5 2269,-284.5 2269,-284.5 2269,-119.5 2269,-70.649 2224.332,-75.5206 2180,-55 2128.3788,-31.1053 2062.6683,-18.8256 2024.7649,-13.309"/>
<polygon fill="#191970" stroke="#191970" points="2024.7799,-9.7776 2014.3935,-11.8684 2023.8168,-16.711 2024.7799,-9.7776"/>
</g>
<!-- Node32&#45;&gt;Node8 -->
<g id="edge101" class="edge">
<title>Node32&#45;&gt;Node8</title>
<path fill="none" stroke="#191970" d="M1283.9894,-447.9244C1045.8145,-440.0987 38,-403.2205 38,-339.5 38,-339.5 38,-339.5 38,-119.5 38,-73.8275 76.6181,-74.3264 118,-55 184.0673,-24.1448 270.2949,-14.1924 316.1172,-10.9975"/>
<polygon fill="#191970" stroke="#191970" points="316.5683,-14.4761 326.3275,-10.3522 316.1266,-7.49 316.5683,-14.4761"/>
</g>
<!-- Node32&#45;&gt;Node13 -->
<g id="edge63" class="edge">
<title>Node32&#45;&gt;Node13</title>
<path fill="none" stroke="#191970" d="M1332.7908,-440.327C1328.4427,-407.3409 1313.5415,-294.2972 1307.5373,-248.7484"/>
<polygon fill="#191970" stroke="#191970" points="1310.9913,-248.169 1306.2143,-238.7122 1304.0513,-249.0839 1310.9913,-248.169"/>
</g>
<!-- Node32&#45;&gt;Node26 -->
<g id="edge64" class="edge">
<title>Node32&#45;&gt;Node26</title>
<path fill="none" stroke="#191970" d="M1384.0101,-446.5545C1539.3236,-436.7468 2003,-402.2149 2003,-339.5 2003,-339.5 2003,-339.5 2003,-284.5 2003,-252.5926 2005.1254,-215.5328 2006.6047,-193.6021"/>
<polygon fill="#191970" stroke="#191970" points="2010.0965,-193.8407 2007.3048,-183.6203 2003.1137,-193.3509 2010.0965,-193.8407"/>
</g>
<!-- Node32&#45;&gt;Node33 -->
<g id="edge65" class="edge">
<title>Node32&#45;&gt;Node33</title>
<path fill="none" stroke="#191970" d="M1384.2517,-448.071C1502.316,-444.3376 1806.4837,-432.5321 2059,-404 2060.2547,-403.8582 2061.5237,-403.708 2062.8025,-403.5504"/>
<polygon fill="#191970" stroke="#191970" points="2063.2843,-407.0172 2072.7295,-402.2175 2062.3527,-400.0794 2063.2843,-407.0172"/>
</g>
<!-- Node33&#45;&gt;Node5 -->
<g id="edge96" class="edge">
<title>Node33&#45;&gt;Node5</title>
<path fill="none" stroke="#191970" d="M2118.348,-385.4839C2122.7131,-353.2696 2133.9224,-241.6981 2093,-165 2075.0256,-131.3118 2061.1168,-127.147 2027,-110 1916.8077,-54.6178 1529.7982,-21.1442 1411.567,-12.0371"/>
<polygon fill="#191970" stroke="#191970" points="1411.5332,-8.5245 1401.2965,-11.2554 1411.002,-15.5043 1411.5332,-8.5245"/>
</g>
<!-- Node33&#45;&gt;Node7 -->
<g id="edge97" class="edge">
<title>Node33&#45;&gt;Node7</title>
<path fill="none" stroke="#191970" d="M2138.7109,-385.4258C2171.7869,-369.9802 2231,-335.243 2231,-284.5 2231,-284.5 2231,-284.5 2231,-119.5 2231,-74.4894 2088.577,-33.1601 2024.5447,-16.8533"/>
<polygon fill="#191970" stroke="#191970" points="2025.1684,-13.4014 2014.6176,-14.3662 2023.4672,-20.1916 2025.1684,-13.4014"/>
</g>
<!-- Node33&#45;&gt;Node26 -->
<g id="edge95" class="edge">
<title>Node33&#45;&gt;Node26</title>
<path fill="none" stroke="#191970" d="M2112.4552,-385.327C2096.0082,-352.1312 2039.3905,-237.857 2017.1105,-192.8881"/>
<polygon fill="#191970" stroke="#191970" points="2020.14,-191.1189 2012.5642,-183.7122 2013.8676,-194.2266 2020.14,-191.1189"/>
</g>
<!-- Node33&#45;&gt;Node34 -->
<g id="edge66" class="edge">
<title>Node33&#45;&gt;Node34</title>
<path fill="none" stroke="#191970" d="M2072.7964,-390.9968C1954.6845,-381.6364 1631.1653,-355.9973 1490.1699,-344.8233"/>
<polygon fill="#191970" stroke="#191970" points="1490.179,-341.3131 1479.9337,-344.012 1489.6259,-348.2912 1490.179,-341.3131"/>
</g>
<!-- Node34&#45;&gt;Node1 -->
<g id="edge68" class="edge">
<title>Node34&#45;&gt;Node1</title>
<path fill="none" stroke="#191970" d="M1365.989,-334.3257C1251.7291,-323.9556 995.6116,-300.7106 878.0744,-290.0431"/>
<polygon fill="#191970" stroke="#191970" points="878.0941,-286.5305 867.8186,-289.1123 877.4613,-293.5019 878.0941,-286.5305"/>
</g>
<!-- Node34&#45;&gt;Node3 -->
<g id="edge67" class="edge">
<title>Node34&#45;&gt;Node3</title>
<path fill="none" stroke="#191970" d="M1393.9048,-330.4782C1340.7741,-313.7999 1224.703,-276.4199 1129,-239 1109.541,-231.3915 1105.9963,-226.0572 1086,-220 996.6293,-192.9284 956.6911,-235.8082 879,-184 848.7308,-163.815 832.0497,-144.3634 844,-110 847.7718,-99.1541 855.3232,-88.9451 862.5401,-80.9564"/>
<polygon fill="#191970" stroke="#191970" points="865.0574,-83.3882 869.4931,-73.7666 860.0254,-78.522 865.0574,-83.3882"/>
</g>
<!-- Node34&#45;&gt;Node5 -->
<g id="edge91" class="edge">
<title>Node34&#45;&gt;Node5</title>
<path fill="none" stroke="#191970" d="M1480.2609,-337.0721C1598.986,-330.4737 1861,-307.119 1861,-229.5 1861,-229.5 1861,-229.5 1861,-174.5 1861,-129.8577 1821.3743,-134.4151 1784,-110 1737.9063,-79.8889 1725.4951,-71.6005 1673,-55 1581.2544,-25.9872 1467.4602,-15.1432 1411.4469,-11.3614"/>
<polygon fill="#191970" stroke="#191970" points="1411.5615,-7.8617 1401.3582,-10.7153 1411.114,-14.8474 1411.5615,-7.8617"/>
</g>
<!-- Node34&#45;&gt;Node6 -->
<g id="edge92" class="edge">
<title>Node34&#45;&gt;Node6</title>
<path fill="none" stroke="#191970" d="M1376.127,-330.4688C1335.3395,-322.2232 1274.8061,-309.0514 1223,-294 1128.7755,-266.6247 1109.3279,-247.0167 1015,-220 943.2602,-199.4528 915.7861,-221.0344 851,-184 780.7998,-143.8707 723.2961,-63.1855 700.0724,-27.3513"/>
<polygon fill="#191970" stroke="#191970" points="702.7673,-25.0664 694.4491,-18.5045 696.8597,-28.8215 702.7673,-25.0664"/>
</g>
<!-- Node34&#45;&gt;Node7 -->
<g id="edge93" class="edge">
<title>Node34&#45;&gt;Node7</title>
<path fill="none" stroke="#191970" d="M1480.2455,-337.7969C1590.5649,-333.9105 1828.4729,-322.4261 1905,-294 2005.816,-256.5518 2060.7031,-234.4166 2082,-129 2088.5134,-96.7595 2100.1669,-83.0566 2083,-55 2070.2931,-34.2326 2044.7834,-22.5622 2024.3201,-16.2551"/>
<polygon fill="#191970" stroke="#191970" points="2025.0396,-12.8221 2014.4665,-13.4996 2023.1544,-19.5635 2025.0396,-12.8221"/>
</g>
<!-- Node34&#45;&gt;Node8 -->
<g id="edge94" class="edge">
<title>Node34&#45;&gt;Node8</title>
<path fill="none" stroke="#191970" d="M1365.9815,-337.8787C1109.6002,-330.221 76,-295.2705 76,-229.5 76,-229.5 76,-229.5 76,-119.5 76,-68.1585 244.659,-29.4665 316.3576,-15.3378"/>
<polygon fill="#191970" stroke="#191970" points="317.0481,-18.7692 326.2009,-13.4329 315.718,-11.8967 317.0481,-18.7692"/>
</g>
<!-- Node34&#45;&gt;Node13 -->
<g id="edge69" class="edge">
<title>Node34&#45;&gt;Node13</title>
<path fill="none" stroke="#191970" d="M1413.3436,-330.4982C1393.3773,-311.8856 1347.3199,-268.9508 1322.1635,-245.4999"/>
<polygon fill="#191970" stroke="#191970" points="1324.4911,-242.8848 1314.7899,-238.6261 1319.718,-248.0051 1324.4911,-242.8848"/>
</g>
<!-- Node34&#45;&gt;Node18 -->
<g id="edge70" class="edge">
<title>Node34&#45;&gt;Node18</title>
<path fill="none" stroke="#191970" d="M1434.5491,-330.2959C1459.7911,-309.1009 1515.283,-255.9161 1485,-220 1423.9591,-147.6045 1362.4688,-220.2811 1275,-184 1246.7162,-172.2682 1218.6542,-150.4211 1201.331,-135.4305"/>
<polygon fill="#191970" stroke="#191970" points="1203.5402,-132.7117 1193.7355,-128.6967 1198.8964,-137.9496 1203.5402,-132.7117"/>
</g>
<!-- Node34&#45;&gt;Node25 -->
<g id="edge81" class="edge">
<title>Node34&#45;&gt;Node25</title>
<path fill="none" stroke="#191970" d="M1448.6141,-330.4982C1504.3268,-310.9187 1636.6243,-264.4244 1700.4059,-242.0091"/>
<polygon fill="#191970" stroke="#191970" points="1701.7581,-245.2438 1710.032,-238.6261 1699.4371,-238.6398 1701.7581,-245.2438"/>
</g>
<!-- Node34&#45;&gt;Node26 -->
<g id="edge80" class="edge">
<title>Node34&#45;&gt;Node26</title>
<path fill="none" stroke="#191970" d="M1480.1249,-337.9008C1585.2736,-334.2783 1805.0993,-323.3504 1875,-294 1927.9711,-271.7581 1973.8656,-219.2168 1995.2292,-191.812"/>
<polygon fill="#191970" stroke="#191970" points="1998.237,-193.639 2001.5085,-183.5619 1992.6669,-189.3994 1998.237,-193.639"/>
</g>
<!-- Node34&#45;&gt;Node28 -->
<g id="edge82" class="edge">
<title>Node34&#45;&gt;Node28</title>
<path fill="none" stroke="#191970" d="M1365.9027,-337.323C1299.6263,-333.4875 1187.6929,-322.9367 1096,-294 1057.7639,-281.9333 1017.086,-259.0484 992.6099,-244.0361"/>
<polygon fill="#191970" stroke="#191970" points="994.399,-241.0271 984.0613,-238.707 990.6958,-246.9673 994.399,-241.0271"/>
</g>
<!-- Node35 -->
<g id="node36" class="node">
<title>Node35</title>
<g id="a_node36"><a xlink:href="Ioss__FieldManager_8h.html" target="_top" xlink:title=" ">
<polygon fill="#ffffff" stroke="#000000" points="1531.5815,-220.5 1531.5815,-238.5 1640.4185,-238.5 1640.4185,-220.5 1531.5815,-220.5"/>
<text text-anchor="middle" x="1586" y="-226.5" font-family="Helvetica,sans-Serif" font-size="10.00" fill="#000000">Ioss_FieldManager.h</text>
</a>
</g>
</g>
<!-- Node34&#45;&gt;Node35 -->
<g id="edge71" class="edge">
<title>Node34&#45;&gt;Node35</title>
<path fill="none" stroke="#191970" d="M1447.1521,-330.395C1467.0551,-322.3278 1495.555,-309.4488 1518,-294 1538.1681,-280.1184 1558.1199,-260.2722 1571.1422,-246.2687"/>
<polygon fill="#191970" stroke="#191970" points="1573.8102,-248.5373 1577.958,-238.7881 1568.6359,-243.8228 1573.8102,-248.5373"/>
</g>
<!-- Node37 -->
<g id="node38" class="node">
<title>Node37</title>
<g id="a_node38"><a xlink:href="Ioss__VariableType_8h.html" target="_top" xlink:title=" ">
<polygon fill="#ffffff" stroke="#000000" points="1370.061,-220.5 1370.061,-238.5 1475.939,-238.5 1475.939,-220.5 1370.061,-220.5"/>
<text text-anchor="middle" x="1423" y="-226.5" font-family="Helvetica,sans-Serif" font-size="10.00" fill="#000000">Ioss_VariableType.h</text>
</a>
</g>
</g>
<!-- Node34&#45;&gt;Node37 -->
<g id="edge83" class="edge">
<title>Node34&#45;&gt;Node37</title>
<path fill="none" stroke="#191970" d="M1423,-330.4982C1423,-312.6913 1423,-272.6225 1423,-248.6515"/>
<polygon fill="#191970" stroke="#191970" points="1426.5001,-248.6261 1423,-238.6261 1419.5001,-248.6262 1426.5001,-248.6261"/>
</g>
<!-- Node35&#45;&gt;Node3 -->
<g id="edge72" class="edge">
<title>Node35&#45;&gt;Node3</title>
<path fill="none" stroke="#191970" d="M1531.3626,-222.4195C1469.1416,-214.1445 1364.5087,-199.5854 1275,-184 1244.6232,-178.7107 1032.056,-139.3188 1003,-129 966.2919,-115.9637 926.9296,-93.6938 902.8823,-79.0362"/>
<polygon fill="#191970" stroke="#191970" points="904.5035,-75.9236 894.1575,-73.6409 900.8218,-81.8772 904.5035,-75.9236"/>
</g>
<!-- Node35&#45;&gt;Node5 -->
<g id="edge75" class="edge">
<title>Node35&#45;&gt;Node5</title>
<path fill="none" stroke="#191970" d="M1596.1506,-220.4507C1604.9949,-211.9509 1617.4071,-198.4132 1624,-184 1647.9889,-131.5561 1654.7051,-91.4319 1610,-55 1579.9975,-30.5498 1468.6115,-17.4856 1411.4014,-12.2607"/>
<polygon fill="#191970" stroke="#191970" points="1411.6507,-8.7692 1401.3814,-11.3753 1411.0345,-15.742 1411.6507,-8.7692"/>
</g>
<!-- Node35&#45;&gt;Node7 -->
<g id="edge77" class="edge">
<title>Node35&#45;&gt;Node7</title>
<path fill="none" stroke="#191970" d="M1598.6234,-220.3858C1618.928,-206.1954 1660.57,-178.9993 1700,-165 1790.476,-132.8773 1832.2356,-180.9123 1913,-129 1951.1565,-104.4744 1975.8452,-54.9033 1987.0387,-27.955"/>
<polygon fill="#191970" stroke="#191970" points="1990.3433,-29.1165 1990.7828,-18.5308 1983.8379,-26.5319 1990.3433,-29.1165"/>
</g>
<!-- Node35&#45;&gt;Node8 -->
<g id="edge79" class="edge">
<title>Node35&#45;&gt;Node8</title>
<path fill="none" stroke="#191970" d="M1531.2112,-224.1586C1436.7376,-214.8119 1246.9737,-195.4022 1181,-184 1144.563,-177.7026 1136.5921,-170.3223 1100,-165 829.0498,-125.5906 747.0584,-208.3254 485,-129 438.6723,-114.9765 426.2147,-107.2091 391,-74 376.8182,-60.6259 364.919,-41.7377 357.2594,-27.8566"/>
<polygon fill="#191970" stroke="#191970" points="360.2297,-25.9865 352.4593,-18.7843 354.0424,-29.2602 360.2297,-25.9865"/>
</g>
<!-- Node35&#45;&gt;Node17 -->
<g id="edge74" class="edge">
<title>Node35&#45;&gt;Node17</title>
<path fill="none" stroke="#191970" d="M1550.6623,-220.4179C1513.6714,-210.9109 1455.5331,-195.9688 1415.6875,-185.7281"/>
<polygon fill="#191970" stroke="#191970" points="1416.5319,-182.3314 1405.9754,-183.232 1414.7894,-189.1111 1416.5319,-182.3314"/>
</g>
<!-- Node35&#45;&gt;Node18 -->
<g id="edge73" class="edge">
<title>Node35&#45;&gt;Node18</title>
<path fill="none" stroke="#191970" d="M1531.5081,-221.4457C1467.673,-211.7311 1365.9385,-195.3005 1329,-184 1285.6826,-170.748 1238.1968,-147.9134 1209.7643,-133.2709"/>
<polygon fill="#191970" stroke="#191970" points="1211.3716,-130.1618 1200.8859,-128.645 1208.137,-136.3697 1211.3716,-130.1618"/>
</g>
<!-- Node35&#45;&gt;Node27 -->
<g id="edge78" class="edge">
<title>Node35&#45;&gt;Node27</title>
<path fill="none" stroke="#191970" d="M1613.4115,-220.4179C1641.2481,-211.1949 1684.5234,-196.8567 1715.3043,-186.6582"/>
<polygon fill="#191970" stroke="#191970" points="1716.4319,-189.9718 1724.8237,-183.5042 1714.2303,-183.327 1716.4319,-189.9718"/>
</g>
<!-- Node36 -->
<g id="node37" class="node">
<title>Node36</title>
<g id="a_node37"><a xlink:title=" ">
<polygon fill="#ffffff" stroke="#bfbfbf" points="1556.5962,-165.5 1556.5962,-183.5 1615.4038,-183.5 1615.4038,-165.5 1556.5962,-165.5"/>
<text text-anchor="middle" x="1586" y="-171.5" font-family="Helvetica,sans-Serif" font-size="10.00" fill="#000000">functional</text>
</a>
</g>
</g>
<!-- Node35&#45;&gt;Node36 -->
<g id="edge76" class="edge">
<title>Node35&#45;&gt;Node36</title>
<path fill="none" stroke="#191970" d="M1586,-220.4179C1586,-213.2164 1586,-202.8962 1586,-193.8632"/>
<polygon fill="#191970" stroke="#191970" points="1589.5001,-193.7794 1586,-183.7795 1582.5001,-193.7795 1589.5001,-193.7794"/>
</g>
<!-- Node37&#45;&gt;Node3 -->
<g id="edge84" class="edge">
<title>Node37&#45;&gt;Node3</title>
<path fill="none" stroke="#191970" d="M1369.9209,-221.218C1366.9046,-220.7937 1363.9149,-220.3846 1361,-220 1216.9208,-200.9903 1177.3614,-217.7216 1036,-184 968.1473,-167.8138 932.6291,-183.4286 889,-129 878.8446,-116.3308 877.2508,-97.5781 877.8087,-83.5543"/>
<polygon fill="#191970" stroke="#191970" points="881.3024,-83.7708 878.5951,-73.5277 874.3238,-83.2235 881.3024,-83.7708"/>
</g>
<!-- Node37&#45;&gt;Node7 -->
<g id="edge89" class="edge">
<title>Node37&#45;&gt;Node7</title>
<path fill="none" stroke="#191970" d="M1439.2795,-220.3902C1467.8659,-204.5143 1526.126,-172.7284 1548,-165 1622.8707,-138.5471 1646.578,-150.5652 1723,-129 1792.1419,-109.4891 1809.4587,-103.4215 1875,-74 1909.0669,-58.7074 1946.6923,-37.5478 1970.3324,-23.6972"/>
<polygon fill="#191970" stroke="#191970" points="1972.1353,-26.6973 1978.9663,-18.5986 1968.5758,-20.6698 1972.1353,-26.6973"/>
</g>
<!-- Node37&#45;&gt;Node8 -->
<g id="edge90" class="edge">
<title>Node37&#45;&gt;Node8</title>
<path fill="none" stroke="#191970" d="M1369.9327,-221.1235C1366.9134,-220.7233 1363.9198,-220.3452 1361,-220 1170.107,-197.4298 1121.4324,-201.4114 930,-184 926.1153,-183.6467 374.0421,-131.4415 371,-129 341.4441,-105.28 342.0148,-56.131 345.0044,-28.8339"/>
<polygon fill="#191970" stroke="#191970" points="348.515,-28.9827 346.353,-18.6108 341.5752,-28.0672 348.515,-28.9827"/>
</g>
<!-- Node37&#45;&gt;Node17 -->
<g id="edge85" class="edge">
<title>Node37&#45;&gt;Node17</title>
<path fill="none" stroke="#191970" d="M1414.5784,-220.4179C1407.2402,-212.5041 1396.4098,-200.8243 1387.5087,-191.2251"/>
<polygon fill="#191970" stroke="#191970" points="1389.9705,-188.7324 1380.6046,-183.7795 1384.8376,-193.492 1389.9705,-188.7324"/>
</g>
<!-- Node37&#45;&gt;Node31 -->
<g id="edge88" class="edge">
<title>Node37&#45;&gt;Node31</title>
<path fill="none" stroke="#191970" d="M1369.9423,-221.0382C1366.9205,-220.6598 1363.9238,-220.3097 1361,-220 1072.1968,-189.4081 720.1131,-177.9944 619.2277,-175.2199"/>
<polygon fill="#191970" stroke="#191970" points="619.0481,-171.7139 608.9576,-174.9438 618.8598,-178.7114 619.0481,-171.7139"/>
</g>
<!-- Node37&#45;&gt;Node36 -->
<g id="edge87" class="edge">
<title>Node37&#45;&gt;Node36</title>
<path fill="none" stroke="#191970" d="M1449.9161,-220.4179C1477.1313,-211.2348 1519.3753,-196.9807 1549.5743,-186.7909"/>
<polygon fill="#191970" stroke="#191970" points="1550.9587,-190.0177 1559.3148,-183.5042 1548.7206,-183.3851 1550.9587,-190.0177"/>
</g>
<!-- Node38 -->
<g id="node39" class="node">
<title>Node38</title>
<g id="a_node39"><a xlink:title=" ">
<polygon fill="#ffffff" stroke="#bfbfbf" points="1045.2734,-165.5 1045.2734,-183.5 1090.7266,-183.5 1090.7266,-165.5 1045.2734,-165.5"/>
<text text-anchor="middle" x="1068" y="-171.5" font-family="Helvetica,sans-Serif" font-size="10.00" fill="#000000">cstring</text>
</a>
</g>
</g>
<!-- Node37&#45;&gt;Node38 -->
<g id="edge86" class="edge">
<title>Node37&#45;&gt;Node38</title>
<path fill="none" stroke="#191970" d="M1369.9066,-221.3207C1366.8939,-220.8703 1363.9089,-220.4274 1361,-220 1247.3231,-203.2986 1217.7081,-206.3217 1105,-184 1103.7192,-183.7463 1102.4166,-183.4755 1101.1031,-183.1917"/>
<polygon fill="#191970" stroke="#191970" points="1101.536,-179.6985 1091.0017,-180.8292 1099.9419,-186.5146 1101.536,-179.6985"/>
</g>
</g>
</svg>
        <g id="navigator" transform="translate(0 0)" fill="#404254">
                <rect fill="#f2f5e9" fill-opacity="0.5" stroke="#606060" stroke-width=".5" x="0" y="0" width="60" height="60"/>
                <use id="zoomplus" xlink:href="#zoomPlus" x="17" y="9" onmousedown="handleZoom(evt,'in')"/>
                <use id="zoomminus" xlink:href="#zoomMin" x="42" y="9" onmousedown="handleZoom(evt,'out')"/>
                <use id="reset" xlink:href="#resetDef" x="30" y="36" onmousedown="handleReset()"/>
                <g id="arrowUp" xlink:href="#dirArrow" transform="translate(30 24)" onmousedown="handlePan(0,-1)">
                  <use xlink:href="#rim" fill="#404040">
                        <set attributeName="fill" to="#808080" begin="arrowUp.mouseover" end="arrowUp.mouseout"/>
                  </use>
                  <path fill="none" stroke="white" stroke-width="1.5" d="M0,-3.0v7 M-2.5,-0.5L0,-3.0L2.5,-0.5"/>
                </g>
                <g id="arrowRight" xlink:href="#dirArrow" transform="rotate(90) translate(36 -43)" onmousedown="handlePan(1,0)">
                  <use xlink:href="#rim" fill="#404040">
                        <set attributeName="fill" to="#808080" begin="arrowRight.mouseover" end="arrowRight.mouseout"/>
                  </use>
                  <path fill="none" stroke="white" stroke-width="1.5" d="M0,-3.0v7 M-2.5,-0.5L0,-3.0L2.5,-0.5"/>
                </g>
                <g id="arrowDown" xlink:href="#dirArrow" transform="rotate(180) translate(-30 -48)" onmousedown="handlePan(0,1)">
                  <use xlink:href="#rim" fill="#404040">
                        <set attributeName="fill" to="#808080" begin="arrowDown.mouseover" end="arrowDown.mouseout"/>
                  </use>
                  <path fill="none" stroke="white" stroke-width="1.5" d="M0,-3.0v7 M-2.5,-0.5L0,-3.0L2.5,-0.5"/>
                </g>
                <g id="arrowLeft" xlink:href="#dirArrow" transform="rotate(270) translate(-36 17)" onmousedown="handlePan(-1,0)">
                  <use xlink:href="#rim" fill="#404040">
                        <set attributeName="fill" to="#808080" begin="arrowLeft.mouseover" end="arrowLeft.mouseout"/>
                  </use>
                  <path fill="none" stroke="white" stroke-width="1.5" d="M0,-3.0v7 M-2.5,-0.5L0,-3.0L2.5,-0.5"/>
                </g>
        </g>
        <svg viewBox="0 0 15 15" width="100%" height="30px" preserveAspectRatio="xMaxYMin meet">
         <g id="arrow_out" transform="scale(0.3 0.3)">
          <a xlink:href="Ioss__ElementSet_8C__incl_org.svg" target="_base">
           <rect id="button" ry="5" rx="5" y="6" x="6" height="38" width="38"
                fill="#f2f5e9" fill-opacity="0.5" stroke="#606060" stroke-width="1.0"/>
           <path id="arrow"
             d="M 11.500037,31.436501 C 11.940474,20.09759 22.043105,11.32322 32.158766,21.979434 L 37.068811,17.246167 C 37.068811,17.246167 37.088388,32 37.088388,32 L 22.160133,31.978069 C 22.160133,31.978069 26.997745,27.140456 26.997745,27.140456 C 18.528582,18.264221 13.291696,25.230495 11.500037,31.436501 z"
             style="fill:#404040;"/>
          </a>
         </g>
        </svg>
</svg>
