<?xml version="1.0" encoding="UTF-8" standalone="no"?>
<!DOCTYPE svg PUBLIC "-//W3C//DTD SVG 1.1//EN"
 "http://www.w3.org/Graphics/SVG/1.1/DTD/svg11.dtd">
<!-- Generated by graphviz version 2.40.1 (20161225.0304)
 -->
<!-- Title: src/Ioss_FaceSet.h Pages: 1 -->
<svg width="2185pt" height="157pt"
 viewBox="0.00 0.00 2185.22 157.00" xmlns="http://www.w3.org/2000/svg" xmlns:xlink="http://www.w3.org/1999/xlink">
<g id="graph0" class="graph" transform="scale(1 1) rotate(0) translate(4 153)">
<title>src/Ioss_FaceSet.h</title>
<polygon fill="#ffffff" stroke="transparent" points="-4,4 -4,-153 2181.2236,-153 2181.2236,4 -4,4"/>
<!-- Node38 -->
<g id="node1" class="node">
<title>Node38</title>
<g id="a_node1"><a xlink:title=" ">
<polygon fill="#bfbfbf" stroke="#000000" points="788.7954,-130.5 788.7954,-148.5 890.3862,-148.5 890.3862,-130.5 788.7954,-130.5"/>
<text text-anchor="middle" x="839.5908" y="-136.5" font-family="Helvetica,sans-Serif" font-size="10.00" fill="#000000">src/Ioss_FaceSet.h</text>
</a>
</g>
</g>
<!-- Node39 -->
<g id="node2" class="node">
<title>Node39</title>
<g id="a_node2"><a xlink:href="Ioad__DatabaseIO_8C.html" target="_top" xlink:title=" ">
<polygon fill="#ffffff" stroke="#000000" points="0,-70.5 0,-88.5 147.1816,-88.5 147.1816,-70.5 0,-70.5"/>
<text text-anchor="middle" x="73.5908" y="-76.5" font-family="Helvetica,sans-Serif" font-size="10.00" fill="#000000">src/adios/Ioad_DatabaseIO.C</text>
</a>
</g>
</g>
<!-- Node38&#45;&gt;Node39 -->
<g id="edge1" class="edge">
<title>Node38&#45;&gt;Node39</title>
<path fill="none" stroke="#191970" d="M778.3857,-137.3688C659.293,-132.7851 388.1977,-120.2113 161.5908,-94 149.132,-92.5589 135.7474,-90.5781 123.27,-88.5434"/>
<polygon fill="#191970" stroke="#191970" points="778.2809,-140.8672 788.4066,-137.7494 778.5467,-133.8723 778.2809,-140.8672"/>
</g>
<!-- Node40 -->
<g id="node3" class="node">
<title>Node40</title>
<g id="a_node3"><a xlink:href="Ut__ioad_8C.html" target="_top" xlink:title=" ">
<polygon fill="#ffffff" stroke="#000000" points="543.9653,-.5 543.9653,-28.5 637.2163,-28.5 637.2163,-.5 543.9653,-.5"/>
<text text-anchor="start" x="551.9653" y="-16.5" font-family="Helvetica,sans-Serif" font-size="10.00" fill="#000000">src/adios/utest/Ut</text>
<text text-anchor="middle" x="590.5908" y="-6.5" font-family="Helvetica,sans-Serif" font-size="10.00" fill="#000000">_ioad.C</text>
</a>
</g>
</g>
<!-- Node38&#45;&gt;Node40 -->
<g id="edge2" class="edge">
<title>Node38&#45;&gt;Node40</title>
<path fill="none" stroke="#191970" d="M778.2407,-137.4125C620.9683,-131.7647 214.3233,-115.1735 194.5908,-94 185.8035,-84.571 186.0729,-74.6731 194.5908,-65 217.3777,-39.1227 444.0264,-22.9612 543.8262,-17.0472"/>
<polygon fill="#191970" stroke="#191970" points="778.5606,-140.926 788.6789,-137.7844 778.8099,-133.9304 778.5606,-140.926"/>
</g>
<!-- Node41 -->
<g id="node4" class="node">
<title>Node41</title>
<g id="a_node4"><a xlink:href="Iocgns__DatabaseIO_8C.html" target="_top" xlink:title=" ">
<polygon fill="#ffffff" stroke="#000000" points="203.3916,-70.5 203.3916,-88.5 357.79,-88.5 357.79,-70.5 203.3916,-70.5"/>
<text text-anchor="middle" x="280.5908" y="-76.5" font-family="Helvetica,sans-Serif" font-size="10.00" fill="#000000">src/cgns/Iocgns_DatabaseIO.C</text>
</a>
</g>
</g>
<!-- Node38&#45;&gt;Node41 -->
<g id="edge3" class="edge">
<title>Node38&#45;&gt;Node41</title>
<path fill="none" stroke="#191970" d="M778.6566,-135.0323C688.4254,-128.1012 514.0506,-113.4985 366.5908,-94 354.8825,-92.4518 342.3252,-90.501 330.5232,-88.5365"/>
<polygon fill="#191970" stroke="#191970" points="778.4703,-138.5282 788.7077,-135.7993 779.003,-131.5485 778.4703,-138.5282"/>
</g>
<!-- Node42 -->
<g id="node5" class="node">
<title>Node42</title>
<g id="a_node5"><a xlink:href="Iodw__Utils_8C.html" target="_top" xlink:title=" ">
<polygon fill="#ffffff" stroke="#000000" points="375.564,-65.5 375.564,-93.5 481.6177,-93.5 481.6177,-65.5 375.564,-65.5"/>
<text text-anchor="start" x="383.564" y="-81.5" font-family="Helvetica,sans-Serif" font-size="10.00" fill="#000000">src/data_warehouse</text>
<text text-anchor="middle" x="428.5908" y="-71.5" font-family="Helvetica,sans-Serif" font-size="10.00" fill="#000000">/Iodw_Utils.C</text>
</a>
</g>
</g>
<!-- Node38&#45;&gt;Node42 -->
<g id="edge4" class="edge">
<title>Node38&#45;&gt;Node42</title>
<path fill="none" stroke="#191970" d="M778.8231,-133.4432C708.967,-126.0493 591.011,-112.2414 490.5908,-94 487.6542,-93.4666 484.6474,-92.8844 481.6178,-92.2696"/>
<polygon fill="#191970" stroke="#191970" points="778.4623,-136.9245 788.773,-134.4874 779.1929,-129.9627 778.4623,-136.9245"/>
</g>
<!-- Node43 -->
<g id="node6" class="node">
<title>Node43</title>
<g id="a_node6"><a xlink:href="Iofx__DatabaseIO_8C.html" target="_top" xlink:title=" ">
<polygon fill="#ffffff" stroke="#000000" points="499.8325,-70.5 499.8325,-88.5 655.3491,-88.5 655.3491,-70.5 499.8325,-70.5"/>
<text text-anchor="middle" x="577.5908" y="-76.5" font-family="Helvetica,sans-Serif" font-size="10.00" fill="#000000">src/exo_fpp/Iofx_DatabaseIO.C</text>
</a>
</g>
</g>
<!-- Node38&#45;&gt;Node43 -->
<g id="edge5" class="edge">
<title>Node38&#45;&gt;Node43</title>
<path fill="none" stroke="#191970" d="M790.1047,-128.1673C739.9095,-116.6722 663.2176,-99.1092 616.991,-88.5229"/>
<polygon fill="#191970" stroke="#191970" points="789.5541,-131.6317 800.0831,-130.4524 791.1168,-124.8084 789.5541,-131.6317"/>
</g>
<!-- Node44 -->
<g id="node7" class="node">
<title>Node44</title>
<g id="a_node7"><a xlink:href="Iopx__DatabaseIO_8C.html" target="_top" xlink:title=" ">
<polygon fill="#ffffff" stroke="#000000" points="673.165,-70.5 673.165,-88.5 832.0166,-88.5 832.0166,-70.5 673.165,-70.5"/>
<text text-anchor="middle" x="752.5908" y="-76.5" font-family="Helvetica,sans-Serif" font-size="10.00" fill="#000000">src/exo_par/Iopx_DatabaseIO.C</text>
</a>
</g>
</g>
<!-- Node38&#45;&gt;Node44 -->
<g id="edge6" class="edge">
<title>Node38&#45;&gt;Node44</title>
<path fill="none" stroke="#191970" d="M817.9157,-124.5516C801.4887,-113.2227 779.4574,-98.0287 765.6435,-88.5019"/>
<polygon fill="#191970" stroke="#191970" points="816.1582,-127.5912 826.3774,-130.3873 820.1323,-121.8287 816.1582,-127.5912"/>
</g>
<!-- Node45 -->
<g id="node8" class="node">
<title>Node45</title>
<g id="a_node8"><a xlink:href="Ioex__DatabaseIO_8C.html" target="_top" xlink:title=" ">
<polygon fill="#ffffff" stroke="#000000" points="850.1108,-70.5 850.1108,-88.5 1005.0708,-88.5 1005.0708,-70.5 850.1108,-70.5"/>
<text text-anchor="middle" x="927.5908" y="-76.5" font-family="Helvetica,sans-Serif" font-size="10.00" fill="#000000">src/exodus/Ioex_DatabaseIO.C</text>
</a>
</g>
</g>
<!-- Node38&#45;&gt;Node45 -->
<g id="edge7" class="edge">
<title>Node38&#45;&gt;Node45</title>
<path fill="none" stroke="#191970" d="M861.5151,-124.5516C878.1309,-113.2227 900.4154,-98.0287 914.3881,-88.5019"/>
<polygon fill="#191970" stroke="#191970" points="859.2467,-121.8621 852.9561,-130.3873 863.1901,-127.6457 859.2467,-121.8621"/>
</g>
<!-- Node46 -->
<g id="node9" class="node">
<title>Node46</title>
<g id="a_node9"><a xlink:href="Ioex__Internals_8C.html" target="_top" xlink:title=" ">
<polygon fill="#ffffff" stroke="#000000" points="1022.6157,-70.5 1022.6157,-88.5 1162.5659,-88.5 1162.5659,-70.5 1022.6157,-70.5"/>
<text text-anchor="middle" x="1092.5908" y="-76.5" font-family="Helvetica,sans-Serif" font-size="10.00" fill="#000000">src/exodus/Ioex_Internals.C</text>
</a>
</g>
</g>
<!-- Node38&#45;&gt;Node46 -->
<g id="edge8" class="edge">
<title>Node38&#45;&gt;Node46</title>
<path fill="none" stroke="#191970" d="M887.681,-128.0952C936.157,-116.5989 1009.9986,-99.0871 1054.5441,-88.5229"/>
<polygon fill="#191970" stroke="#191970" points="886.6639,-124.7393 877.7414,-130.4524 888.2792,-131.5504 886.6639,-124.7393"/>
</g>
<!-- Node47 -->
<g id="node10" class="node">
<title>Node47</title>
<g id="a_node10"><a xlink:href="Ioss__FaceSet_8C.html" target="_top" xlink:title=" ">
<polygon fill="#ffffff" stroke="#000000" points="1180.9653,-70.5 1180.9653,-88.5 1284.2163,-88.5 1284.2163,-70.5 1180.9653,-70.5"/>
<text text-anchor="middle" x="1232.5908" y="-76.5" font-family="Helvetica,sans-Serif" font-size="10.00" fill="#000000">src/Ioss_FaceSet.C</text>
</a>
</g>
</g>
<!-- Node38&#45;&gt;Node47 -->
<g id="edge9" class="edge">
<title>Node38&#45;&gt;Node47</title>
<path fill="none" stroke="#191970" d="M900.8057,-132.9167C967.6406,-125.3093 1077.6809,-111.5536 1171.5908,-94 1179.9369,-92.44 1188.8599,-90.4845 1197.2336,-88.5193"/>
<polygon fill="#191970" stroke="#191970" points="900.0035,-129.485 890.4591,-134.0845 900.7886,-136.4408 900.0035,-129.485"/>
</g>
<!-- Node48 -->
<g id="node11" class="node">
<title>Node48</title>
<g id="a_node11"><a xlink:href="Ioss__Region_8C.html" target="_top" xlink:title=" ">
<polygon fill="#ffffff" stroke="#000000" points="1301.7412,-70.5 1301.7412,-88.5 1399.4404,-88.5 1399.4404,-70.5 1301.7412,-70.5"/>
<text text-anchor="middle" x="1350.5908" y="-76.5" font-family="Helvetica,sans-Serif" font-size="10.00" fill="#000000">src/Ioss_Region.C</text>
</a>
</g>
</g>
<!-- Node38&#45;&gt;Node48 -->
<g id="edge10" class="edge">
<title>Node38&#45;&gt;Node48</title>
<path fill="none" stroke="#191970" d="M900.6787,-136.2797C988.2276,-131.0087 1154.2036,-118.5722 1293.5908,-94 1301.7361,-92.5641 1310.4334,-90.5852 1318.518,-88.5507"/>
<polygon fill="#191970" stroke="#191970" points="900.4308,-132.7882 890.6549,-136.8725 900.8441,-139.776 900.4308,-132.7882"/>
</g>
<!-- Node49 -->
<g id="node12" class="node">
<title>Node49</title>
<g id="a_node12"><a xlink:href="Ioss__SubSystem_8h.html" target="_top" xlink:title=" ">
<polygon fill="#ffffff" stroke="#000000" points="1417.8496,-70.5 1417.8496,-88.5 1533.332,-88.5 1533.332,-70.5 1417.8496,-70.5"/>
<text text-anchor="middle" x="1475.5908" y="-76.5" font-family="Helvetica,sans-Serif" font-size="10.00" fill="#000000">src/Ioss_SubSystem.h</text>
</a>
</g>
</g>
<!-- Node38&#45;&gt;Node49 -->
<g id="edge11" class="edge">
<title>Node38&#45;&gt;Node49</title>
<path fill="none" stroke="#191970" d="M900.5125,-137.2954C1004.967,-132.921 1224.7617,-121.1184 1408.5908,-94 1418.2453,-92.5758 1428.5891,-90.5762 1438.1901,-88.5161"/>
<polygon fill="#191970" stroke="#191970" points="900.3147,-133.8004 890.4668,-137.7079 900.6021,-140.7945 900.3147,-133.8004"/>
</g>
<!-- Node57 -->
<g id="node20" class="node">
<title>Node57</title>
<g id="a_node20"><a xlink:href="io__info_8h.html" target="_top" xlink:title=" ">
<polygon fill="#ffffff" stroke="#000000" points="1940.4063,-70.5 1940.4063,-88.5 2034.7754,-88.5 2034.7754,-70.5 1940.4063,-70.5"/>
<text text-anchor="middle" x="1987.5908" y="-76.5" font-family="Helvetica,sans-Serif" font-size="10.00" fill="#000000">src/main/io_info.h</text>
</a>
</g>
</g>
<!-- Node38&#45;&gt;Node57 -->
<g id="edge20" class="edge">
<title>Node38&#45;&gt;Node57</title>
<path fill="none" stroke="#191970" d="M900.6127,-136.3107C1104.3234,-125.6638 1758.3302,-91.4823 1940.244,-81.9746"/>
<polygon fill="#191970" stroke="#191970" points="900.2039,-132.8272 890.4002,-136.8445 900.5693,-139.8177 900.2039,-132.8272"/>
</g>
<!-- Node49&#45;&gt;Node40 -->
<g id="edge12" class="edge">
<title>Node49&#45;&gt;Node40</title>
<path fill="none" stroke="#191970" d="M1428.3381,-68.3406C1421.7341,-67.0543 1415.0122,-65.8879 1408.5908,-65 1257.7814,-44.1483 787.495,-22.8691 637.2416,-16.4481"/>
<polygon fill="#191970" stroke="#191970" points="1428.0589,-71.8562 1438.5584,-70.4378 1429.466,-64.9991 1428.0589,-71.8562"/>
</g>
<!-- Node50 -->
<g id="node13" class="node">
<title>Node50</title>
<g id="a_node13"><a xlink:href="Iodw__DatabaseIO_8C.html" target="_top" xlink:title=" ">
<polygon fill="#ffffff" stroke="#000000" points="997.1772,-.5 997.1772,-28.5 1106.0044,-28.5 1106.0044,-.5 997.1772,-.5"/>
<text text-anchor="start" x="1005.1772" y="-16.5" font-family="Helvetica,sans-Serif" font-size="10.00" fill="#000000">src/data_warehouse</text>
<text text-anchor="middle" x="1051.5908" y="-6.5" font-family="Helvetica,sans-Serif" font-size="10.00" fill="#000000">/Iodw_DatabaseIO.C</text>
</a>
</g>
</g>
<!-- Node49&#45;&gt;Node50 -->
<g id="edge13" class="edge">
<title>Node49&#45;&gt;Node50</title>
<path fill="none" stroke="#191970" d="M1426.6463,-68.3681C1420.5818,-67.1482 1414.4545,-65.9914 1408.5908,-65 1278.7903,-43.0545 1244.2449,-51.7944 1114.5908,-29 1111.8273,-28.5142 1109.0028,-27.9849 1106.1554,-27.4254"/>
<polygon fill="#191970" stroke="#191970" points="1426.233,-71.8568 1436.7357,-70.4625 1427.6559,-65.0029 1426.233,-71.8568"/>
</g>
<!-- Node51 -->
<g id="node14" class="node">
<title>Node51</title>
<g id="a_node14"><a xlink:href="Ioss__Utils_8C.html" target="_top" xlink:title=" ">
<polygon fill="#ffffff" stroke="#000000" points="1123.8643,-5.5 1123.8643,-23.5 1209.3174,-23.5 1209.3174,-5.5 1123.8643,-5.5"/>
<text text-anchor="middle" x="1166.5908" y="-11.5" font-family="Helvetica,sans-Serif" font-size="10.00" fill="#000000">src/Ioss_Utils.C</text>
</a>
</g>
</g>
<!-- Node49&#45;&gt;Node51 -->
<g id="edge14" class="edge">
<title>Node49&#45;&gt;Node51</title>
<path fill="none" stroke="#191970" d="M1424.3611,-68.2706C1419.0395,-67.1467 1413.7082,-66.0384 1408.5908,-65 1324.3605,-47.9088 1302.2823,-48.5602 1218.5908,-29 1211.6549,-27.3789 1204.2541,-25.4424 1197.2759,-23.5207"/>
<polygon fill="#191970" stroke="#191970" points="1424.014,-71.7752 1434.524,-70.4366 1425.4732,-64.9289 1424.014,-71.7752"/>
</g>
<!-- Node52 -->
<g id="node15" class="node">
<title>Node52</title>
<g id="a_node15"><a xlink:href="io__shell_8C.html" target="_top" xlink:title=" ">
<polygon fill="#ffffff" stroke="#000000" points="1227.3545,-5.5 1227.3545,-23.5 1327.8271,-23.5 1327.8271,-5.5 1227.3545,-5.5"/>
<text text-anchor="middle" x="1277.5908" y="-11.5" font-family="Helvetica,sans-Serif" font-size="10.00" fill="#000000">src/main/io_shell.C</text>
</a>
</g>
</g>
<!-- Node49&#45;&gt;Node52 -->
<g id="edge15" class="edge">
<title>Node49&#45;&gt;Node52</title>
<path fill="none" stroke="#191970" d="M1438.2109,-67.2288C1399.4847,-54.5157 1339.8749,-34.9468 1305.2065,-23.5658"/>
<polygon fill="#191970" stroke="#191970" points="1437.4669,-70.6683 1448.0598,-70.462 1439.6503,-64.0175 1437.4669,-70.6683"/>
</g>
<!-- Node53 -->
<g id="node16" class="node">
<title>Node53</title>
<g id="a_node16"><a xlink:href="io__shell__ts_8C.html" target="_top" xlink:title=" ">
<polygon fill="#ffffff" stroke="#000000" points="1345.6846,-5.5 1345.6846,-23.5 1459.4971,-23.5 1459.4971,-5.5 1345.6846,-5.5"/>
<text text-anchor="middle" x="1402.5908" y="-11.5" font-family="Helvetica,sans-Serif" font-size="10.00" fill="#000000">src/main/io_shell_ts.C</text>
</a>
</g>
</g>
<!-- Node49&#45;&gt;Node53 -->
<g id="edge16" class="edge">
<title>Node49&#45;&gt;Node53</title>
<path fill="none" stroke="#191970" d="M1457.8795,-63.7297C1443.8837,-51.2676 1424.8205,-34.2936 1413.1277,-23.8821"/>
<polygon fill="#191970" stroke="#191970" points="1455.6445,-66.426 1465.4405,-70.462 1460.2995,-61.198 1455.6445,-66.426"/>
</g>
<!-- Node54 -->
<g id="node17" class="node">
<title>Node54</title>
<g id="a_node17"><a xlink:href="struc__to__unstruc_8C.html" target="_top" xlink:title=" ">
<polygon fill="#ffffff" stroke="#000000" points="1477.3472,-5.5 1477.3472,-23.5 1617.8345,-23.5 1617.8345,-5.5 1477.3472,-5.5"/>
<text text-anchor="middle" x="1547.5908" y="-11.5" font-family="Helvetica,sans-Serif" font-size="10.00" fill="#000000">src/main/struc_to_unstruc.C</text>
</a>
</g>
</g>
<!-- Node49&#45;&gt;Node54 -->
<g id="edge17" class="edge">
<title>Node49&#45;&gt;Node54</title>
<path fill="none" stroke="#191970" d="M1493.0595,-63.7297C1506.8636,-51.2676 1525.6657,-34.2936 1537.1983,-23.8821"/>
<polygon fill="#191970" stroke="#191970" points="1490.6794,-61.163 1485.6021,-70.462 1495.3702,-66.3589 1490.6794,-61.163"/>
</g>
<!-- Node55 -->
<g id="node18" class="node">
<title>Node55</title>
<g id="a_node18"><a xlink:href="Iopg__DatabaseIO_8C.html" target="_top" xlink:title=" ">
<polygon fill="#ffffff" stroke="#000000" points="1635.8843,-5.5 1635.8843,-23.5 1795.2974,-23.5 1795.2974,-5.5 1635.8843,-5.5"/>
<text text-anchor="middle" x="1715.5908" y="-11.5" font-family="Helvetica,sans-Serif" font-size="10.00" fill="#000000">src/pamgen/Iopg_DatabaseIO.C</text>
</a>
</g>
</g>
<!-- Node49&#45;&gt;Node55 -->
<g id="edge18" class="edge">
<title>Node49&#45;&gt;Node55</title>
<path fill="none" stroke="#191970" d="M1518.8195,-67.7922C1565.6817,-55.1004 1639.469,-35.1163 1682.1173,-23.5658"/>
<polygon fill="#191970" stroke="#191970" points="1517.6991,-64.4695 1508.9618,-70.462 1519.529,-71.2261 1517.6991,-64.4695"/>
</g>
<!-- Node56 -->
<g id="node19" class="node">
<title>Node56</title>
<g id="a_node19"><a xlink:href="Iovs__DatabaseIO_8C.html" target="_top" xlink:title=" ">
<polygon fill="#ffffff" stroke="#000000" points="1813.7412,-.5 1813.7412,-28.5 1921.4404,-28.5 1921.4404,-.5 1813.7412,-.5"/>
<text text-anchor="start" x="1821.7412" y="-16.5" font-family="Helvetica,sans-Serif" font-size="10.00" fill="#000000">src/visualization/Iovs</text>
<text text-anchor="middle" x="1867.5908" y="-6.5" font-family="Helvetica,sans-Serif" font-size="10.00" fill="#000000">_DatabaseIO.C</text>
</a>
</g>
</g>
<!-- Node49&#45;&gt;Node56 -->
<g id="edge19" class="edge">
<title>Node49&#45;&gt;Node56</title>
<path fill="none" stroke="#191970" d="M1543.4259,-70.5803C1610.1233,-61.4592 1714.7077,-46.2176 1804.5908,-29 1807.567,-28.4299 1810.6163,-27.8187 1813.69,-27.1816"/>
<polygon fill="#191970" stroke="#191970" points="1542.8978,-67.1198 1533.4609,-71.936 1543.8415,-74.0559 1542.8978,-67.1198"/>
</g>
<!-- Node58 -->
<g id="node21" class="node">
<title>Node58</title>
<g id="a_node21"><a xlink:href="io__info_8C.html" target="_top" xlink:title=" ">
<polygon fill="#ffffff" stroke="#000000" points="1939.5762,-5.5 1939.5762,-23.5 2035.6055,-23.5 2035.6055,-5.5 1939.5762,-5.5"/>
<text text-anchor="middle" x="1987.5908" y="-11.5" font-family="Helvetica,sans-Serif" font-size="10.00" fill="#000000">src/main/io_info.C</text>
</a>
</g>
</g>
<!-- Node57&#45;&gt;Node58 -->
<g id="edge21" class="edge">
<title>Node57&#45;&gt;Node58</title>
<path fill="none" stroke="#191970" d="M1987.5908,-60.1265C1987.5908,-48.1522 1987.5908,-33.3205 1987.5908,-23.8821"/>
<polygon fill="#191970" stroke="#191970" points="1984.0909,-60.462 1987.5908,-70.462 1991.0909,-60.4621 1984.0909,-60.462"/>
</g>
<!-- Node59 -->
<g id="node22" class="node">
<title>Node59</title>
<g id="a_node22"><a xlink:href="io__info__main_8C.html" target="_top" xlink:title=" ">
<polygon fill="#ffffff" stroke="#000000" points="2053.958,-5.5 2053.958,-23.5 2177.2236,-23.5 2177.2236,-5.5 2053.958,-5.5"/>
<text text-anchor="middle" x="2115.5908" y="-11.5" font-family="Helvetica,sans-Serif" font-size="10.00" fill="#000000">src/main/io_info_main.C</text>
</a>
</g>
</g>
<!-- Node57&#45;&gt;Node59 -->
<g id="edge22" class="edge">
<title>Node57&#45;&gt;Node59</title>
<path fill="none" stroke="#191970" d="M2014.3312,-65.9209C2039.2898,-53.2466 2075.8485,-34.6817 2097.5315,-23.6708"/>
<polygon fill="#191970" stroke="#191970" points="2012.7202,-62.8135 2005.3887,-70.462 2015.8897,-69.0549 2012.7202,-62.8135"/>
</g>
</g>
</svg>
