<?xml version="1.0" encoding="UTF-8" standalone="no"?>
<!DOCTYPE svg PUBLIC "-//W3C//DTD SVG 1.1//EN"
 "http://www.w3.org/Graphics/SVG/1.1/DTD/svg11.dtd">
<!-- Generated by graphviz version 2.40.1 (20161225.0304)
 -->
<!-- Title: src/Ioss_SideBlock.h Pages: 1 -->
<svg width="2337pt" height="522pt"
 viewBox="0.00 0.00 2337.00 522.00" xmlns="http://www.w3.org/2000/svg" xmlns:xlink="http://www.w3.org/1999/xlink">
<g id="graph0" class="graph" transform="scale(1 1) rotate(0) translate(4 518)">
<title>src/Ioss_SideBlock.h</title>
<polygon fill="#ffffff" stroke="transparent" points="-4,4 -4,-518 2333,-518 2333,4 -4,4"/>
<!-- Node0 -->
<g id="node1" class="node">
<title>Node0</title>
<g id="a_node1"><a xlink:title=" ">
<polygon fill="#bfbfbf" stroke="#000000" points="325.5913,-495.5 325.5913,-513.5 434.4087,-513.5 434.4087,-495.5 325.5913,-495.5"/>
<text text-anchor="middle" x="380" y="-501.5" font-family="Helvetica,sans-Serif" font-size="10.00" fill="#000000">src/Ioss_SideBlock.h</text>
</a>
</g>
</g>
<!-- Node1 -->
<g id="node2" class="node">
<title>Node1</title>
<g id="a_node2"><a xlink:href="Ioss__ElementBlock_8h.html" target="_top" xlink:title=" ">
<polygon fill="#ffffff" stroke="#000000" points="249.3105,-440.5 249.3105,-458.5 358.6895,-458.5 358.6895,-440.5 249.3105,-440.5"/>
<text text-anchor="middle" x="304" y="-446.5" font-family="Helvetica,sans-Serif" font-size="10.00" fill="#000000">Ioss_ElementBlock.h</text>
</a>
</g>
</g>
<!-- Node0&#45;&gt;Node1 -->
<g id="edge1" class="edge">
<title>Node0&#45;&gt;Node1</title>
<path fill="none" stroke="#191970" d="M367.4501,-495.4179C355.8989,-487.0584 338.5408,-474.4966 324.8985,-464.6239"/>
<polygon fill="#191970" stroke="#191970" points="326.7216,-461.6229 316.5685,-458.5956 322.6177,-467.2938 326.7216,-461.6229"/>
</g>
<!-- Node5 -->
<g id="node6" class="node">
<title>Node5</title>
<g id="a_node6"><a xlink:title=" ">
<polygon fill="#ffffff" stroke="#bfbfbf" points="879.8794,-.5 879.8794,-18.5 928.1206,-18.5 928.1206,-.5 879.8794,-.5"/>
<text text-anchor="middle" x="904" y="-6.5" font-family="Helvetica,sans-Serif" font-size="10.00" fill="#000000">cstddef</text>
</a>
</g>
</g>
<!-- Node0&#45;&gt;Node5 -->
<g id="edge103" class="edge">
<title>Node0&#45;&gt;Node5</title>
<path fill="none" stroke="#191970" d="M325.4309,-498.395C228.875,-486.063 38,-454.1419 38,-394.5 38,-394.5 38,-394.5 38,-339.5 38,-103.6326 256.9706,-111.3822 486,-55 625.224,-20.726 796.8753,-12.2608 869.2358,-10.177"/>
<polygon fill="#191970" stroke="#191970" points="869.6727,-13.6668 879.5768,-9.9039 869.4879,-6.6692 869.6727,-13.6668"/>
</g>
<!-- Node6 -->
<g id="node7" class="node">
<title>Node6</title>
<g id="a_node7"><a xlink:title=" ">
<polygon fill="#ffffff" stroke="#bfbfbf" points="1316.5493,-.5 1316.5493,-18.5 1361.4507,-18.5 1361.4507,-.5 1316.5493,-.5"/>
<text text-anchor="middle" x="1339" y="-6.5" font-family="Helvetica,sans-Serif" font-size="10.00" fill="#000000">cstdint</text>
</a>
</g>
</g>
<!-- Node0&#45;&gt;Node6 -->
<g id="edge104" class="edge">
<title>Node0&#45;&gt;Node6</title>
<path fill="none" stroke="#191970" d="M434.5371,-504.2214C742.7761,-502.2978 2253,-488.0976 2253,-394.5 2253,-394.5 2253,-394.5 2253,-229.5 2253,-178.4658 2203.8102,-187.4927 2158,-165 2016.9524,-95.7459 1976.0617,-85.9122 1822,-55 1628.0243,-16.0791 1570.5298,-54.5342 1371.4776,-18.6629"/>
<polygon fill="#191970" stroke="#191970" points="1372.0513,-15.2098 1361.5827,-16.8401 1370.7831,-22.094 1372.0513,-15.2098"/>
</g>
<!-- Node7 -->
<g id="node8" class="node">
<title>Node7</title>
<g id="a_node8"><a xlink:title=" ">
<polygon fill="#ffffff" stroke="#bfbfbf" points="504.7734,-.5 504.7734,-18.5 545.2266,-18.5 545.2266,-.5 504.7734,-.5"/>
<text text-anchor="middle" x="525" y="-6.5" font-family="Helvetica,sans-Serif" font-size="10.00" fill="#000000">string</text>
</a>
</g>
</g>
<!-- Node0&#45;&gt;Node7 -->
<g id="edge105" class="edge">
<title>Node0&#45;&gt;Node7</title>
<path fill="none" stroke="#191970" d="M325.4659,-500.6272C231.5672,-493.5076 47.1522,-477.3744 24,-459 .0415,-439.9857 0,-425.0869 0,-394.5 0,-394.5 0,-394.5 0,-119.5 0,-78.4851 28.8283,-72.3345 66,-55 142.5393,-19.307 404.5489,-11.5429 494.4407,-9.9154"/>
<polygon fill="#191970" stroke="#191970" points="494.5862,-13.4135 504.5259,-9.7458 494.4685,-6.4145 494.5862,-13.4135"/>
</g>
<!-- Node8 -->
<g id="node9" class="node">
<title>Node8</title>
<g id="a_node9"><a xlink:title=" ">
<polygon fill="#ffffff" stroke="#bfbfbf" points="2012.3843,-.5 2012.3843,-18.5 2055.6157,-18.5 2055.6157,-.5 2012.3843,-.5"/>
<text text-anchor="middle" x="2034" y="-6.5" font-family="Helvetica,sans-Serif" font-size="10.00" fill="#000000">vector</text>
</a>
</g>
</g>
<!-- Node0&#45;&gt;Node8 -->
<g id="edge106" class="edge">
<title>Node0&#45;&gt;Node8</title>
<path fill="none" stroke="#191970" d="M434.6736,-504.3447C683.4383,-503.4307 1710.0004,-497.3615 2029,-459 2164.4046,-442.7168 2329,-530.8802 2329,-394.5 2329,-394.5 2329,-394.5 2329,-119.5 2329,-63.7717 2141.8389,-27.0319 2065.6719,-14.3877"/>
<polygon fill="#191970" stroke="#191970" points="2066.1244,-10.9154 2055.6921,-12.764 2065.0002,-17.8246 2066.1244,-10.9154"/>
</g>
<!-- Node11 -->
<g id="node12" class="node">
<title>Node11</title>
<g id="a_node12"><a xlink:href="Ioss__EntityBlock_8h.html" target="_top" xlink:title=" ">
<polygon fill="#ffffff" stroke="#000000" points="140.1479,-385.5 140.1479,-403.5 237.8521,-403.5 237.8521,-385.5 140.1479,-385.5"/>
<text text-anchor="middle" x="189" y="-391.5" font-family="Helvetica,sans-Serif" font-size="10.00" fill="#000000">Ioss_EntityBlock.h</text>
</a>
</g>
</g>
<!-- Node0&#45;&gt;Node11 -->
<g id="edge100" class="edge">
<title>Node0&#45;&gt;Node11</title>
<path fill="none" stroke="#191970" d="M328.8072,-495.4471C300.7589,-488.7041 266.4311,-477.3943 240,-459 222.6731,-446.9416 208.3466,-427.2926 199.3356,-412.8457"/>
<polygon fill="#191970" stroke="#191970" points="202.0949,-410.638 193.9749,-403.8323 196.0785,-414.2162 202.0949,-410.638"/>
</g>
<!-- Node16 -->
<g id="node17" class="node">
<title>Node16</title>
<g id="a_node17"><a xlink:href="Ioss__EntityType_8h.html" target="_top" xlink:title=" ">
<polygon fill="#ffffff" stroke="#000000" points="1828.5322,-220.5 1828.5322,-238.5 1923.4678,-238.5 1923.4678,-220.5 1828.5322,-220.5"/>
<text text-anchor="middle" x="1876" y="-226.5" font-family="Helvetica,sans-Serif" font-size="10.00" fill="#000000">Ioss_EntityType.h</text>
</a>
</g>
</g>
<!-- Node0&#45;&gt;Node16 -->
<g id="edge101" class="edge">
<title>Node0&#45;&gt;Node16</title>
<path fill="none" stroke="#191970" d="M434.6081,-503.4034C703.8393,-497.6458 1877,-468.3221 1877,-394.5 1877,-394.5 1877,-394.5 1877,-339.5 1877,-307.7704 1876.5788,-270.8948 1876.2831,-248.9165"/>
<polygon fill="#191970" stroke="#191970" points="1879.7788,-248.5764 1876.139,-238.6264 1872.7795,-248.6745 1879.7788,-248.5764"/>
</g>
<!-- Node29 -->
<g id="node30" class="node">
<title>Node29</title>
<g id="a_node30"><a xlink:href="Ioss__Property_8h.html" target="_top" xlink:title=" ">
<polygon fill="#ffffff" stroke="#000000" points="299.3516,-165.5 299.3516,-183.5 384.6484,-183.5 384.6484,-165.5 299.3516,-165.5"/>
<text text-anchor="middle" x="342" y="-171.5" font-family="Helvetica,sans-Serif" font-size="10.00" fill="#000000">Ioss_Property.h</text>
</a>
</g>
</g>
<!-- Node0&#45;&gt;Node29 -->
<g id="edge102" class="edge">
<title>Node0&#45;&gt;Node29</title>
<path fill="none" stroke="#191970" d="M378.944,-495.3295C373.8095,-450.7408 351.4089,-256.2089 344.2255,-193.8269"/>
<polygon fill="#191970" stroke="#191970" points="347.69,-193.3165 343.0689,-183.7826 340.7359,-194.1174 347.69,-193.3165"/>
</g>
<!-- Node2 -->
<g id="node3" class="node">
<title>Node2</title>
<g id="a_node3"><a xlink:href="Ioss__BoundingBox_8h.html" target="_top" xlink:title=" ">
<polygon fill="#ffffff" stroke="#000000" points="446.1333,-220.5 446.1333,-238.5 553.8667,-238.5 553.8667,-220.5 446.1333,-220.5"/>
<text text-anchor="middle" x="500" y="-226.5" font-family="Helvetica,sans-Serif" font-size="10.00" fill="#000000">Ioss_BoundingBox.h</text>
</a>
</g>
</g>
<!-- Node1&#45;&gt;Node2 -->
<g id="edge2" class="edge">
<title>Node1&#45;&gt;Node2</title>
<path fill="none" stroke="#191970" d="M312.1723,-440.327C342.1203,-406.7119 446.1382,-289.9572 485.1062,-246.2175"/>
<polygon fill="#191970" stroke="#191970" points="487.754,-248.507 491.7928,-238.7122 482.5274,-243.8506 487.754,-248.507"/>
</g>
<!-- Node3 -->
<g id="node4" class="node">
<title>Node3</title>
<g id="a_node4"><a xlink:href="Ioss__CodeTypes_8h.html" target="_top" xlink:title=" ">
<polygon fill="#ffffff" stroke="#000000" points="1256.584,-55.5 1256.584,-73.5 1355.416,-73.5 1355.416,-55.5 1256.584,-55.5"/>
<text text-anchor="middle" x="1306" y="-61.5" font-family="Helvetica,sans-Serif" font-size="10.00" fill="#000000">Ioss_CodeTypes.h</text>
</a>
</g>
</g>
<!-- Node1&#45;&gt;Node3 -->
<g id="edge3" class="edge">
<title>Node1&#45;&gt;Node3</title>
<path fill="none" stroke="#191970" d="M359.0071,-447.213C633.3544,-435.1902 1844.0714,-374.6365 1932,-239 1978.2939,-167.5882 1635.1599,-206.1928 1553,-184 1549.4845,-183.0504 1437.1979,-130.7419 1434,-129 1420.1402,-121.4507 1417.8533,-117.5613 1404,-110 1382.1674,-98.0836 1356.6599,-86.3047 1337.1418,-77.718"/>
<polygon fill="#191970" stroke="#191970" points="1338.3744,-74.4373 1327.8085,-73.6538 1335.5797,-80.8552 1338.3744,-74.4373"/>
</g>
<!-- Node1&#45;&gt;Node7 -->
<g id="edge99" class="edge">
<title>Node1&#45;&gt;Node7</title>
<path fill="none" stroke="#191970" d="M249.0127,-440.5513C205.2537,-432.4479 148.5466,-419.4357 131,-404 48.3668,-331.3075 38,-284.5566 38,-174.5 38,-174.5 38,-174.5 38,-119.5 38,-60.8986 97.308,-73.2353 153,-55 216.4859,-34.2128 417.467,-17.4988 494.5227,-11.698"/>
<polygon fill="#191970" stroke="#191970" points="494.8331,-15.1846 504.546,-10.9526 494.3139,-8.2039 494.8331,-15.1846"/>
</g>
<!-- Node1&#45;&gt;Node11 -->
<g id="edge11" class="edge">
<title>Node1&#45;&gt;Node11</title>
<path fill="none" stroke="#191970" d="M285.0101,-440.4179C266.5324,-431.5807 238.2352,-418.0473 217.1417,-407.9591"/>
<polygon fill="#191970" stroke="#191970" points="218.5496,-404.7528 208.0181,-403.5956 215.5294,-411.0677 218.5496,-404.7528"/>
</g>
<!-- Node23 -->
<g id="node24" class="node">
<title>Node23</title>
<g id="a_node24"><a xlink:title=" ">
<polygon fill="#ffffff" stroke="#bfbfbf" points="713.8843,-110.5 713.8843,-128.5 762.1157,-128.5 762.1157,-110.5 713.8843,-110.5"/>
<text text-anchor="middle" x="738" y="-116.5" font-family="Helvetica,sans-Serif" font-size="10.00" fill="#000000">cassert</text>
</a>
</g>
</g>
<!-- Node1&#45;&gt;Node23 -->
<g id="edge98" class="edge">
<title>Node1&#45;&gt;Node23</title>
<path fill="none" stroke="#191970" d="M306.6329,-440.4968C317.0708,-406.3736 358.8292,-283.7208 437,-220 517.7698,-154.1606 643.4995,-130.7493 703.6613,-123.0117"/>
<polygon fill="#191970" stroke="#191970" points="704.2612,-126.4646 713.7649,-121.7817 703.4152,-119.5159 704.2612,-126.4646"/>
</g>
<!-- Node1&#45;&gt;Node29 -->
<g id="edge97" class="edge">
<title>Node1&#45;&gt;Node29</title>
<path fill="none" stroke="#191970" d="M298.5555,-440.4507C288.0482,-422.0998 266,-378.899 266,-339.5 266,-339.5 266,-339.5 266,-284.5 266,-253.9131 272.6262,-245.1735 290,-220 297.9849,-208.4303 309.5559,-197.9186 319.7566,-189.9206"/>
<polygon fill="#191970" stroke="#191970" points="321.9885,-192.6219 327.8941,-183.8255 317.792,-187.0192 321.9885,-192.6219"/>
</g>
<!-- Node4 -->
<g id="node5" class="node">
<title>Node4</title>
<g id="a_node5"><a xlink:title=" ">
<polygon fill="#ffffff" stroke="#bfbfbf" points="1379.6084,-.5 1379.6084,-18.5 1418.3916,-18.5 1418.3916,-.5 1379.6084,-.5"/>
<text text-anchor="middle" x="1399" y="-6.5" font-family="Helvetica,sans-Serif" font-size="10.00" fill="#000000">array</text>
</a>
</g>
</g>
<!-- Node3&#45;&gt;Node4 -->
<g id="edge4" class="edge">
<title>Node3&#45;&gt;Node4</title>
<path fill="none" stroke="#191970" d="M1321.3571,-55.4179C1335.8961,-46.8195 1357.9525,-33.7754 1374.8463,-23.7844"/>
<polygon fill="#191970" stroke="#191970" points="1376.7944,-26.6987 1383.6201,-18.5956 1373.231,-20.6735 1376.7944,-26.6987"/>
</g>
<!-- Node3&#45;&gt;Node5 -->
<g id="edge5" class="edge">
<title>Node3&#45;&gt;Node5</title>
<path fill="none" stroke="#191970" d="M1256.3037,-57.7008C1173.5816,-46.3831 1009.7054,-23.9622 938.441,-14.2121"/>
<polygon fill="#191970" stroke="#191970" points="938.6039,-10.7018 928.2217,-12.8139 937.655,-17.6372 938.6039,-10.7018"/>
</g>
<!-- Node3&#45;&gt;Node6 -->
<g id="edge6" class="edge">
<title>Node3&#45;&gt;Node6</title>
<path fill="none" stroke="#191970" d="M1311.4493,-55.4179C1316.0076,-47.8207 1322.6484,-36.7527 1328.268,-27.3866"/>
<polygon fill="#191970" stroke="#191970" points="1331.2886,-29.1552 1333.4323,-18.7795 1325.2861,-25.5536 1331.2886,-29.1552"/>
</g>
<!-- Node3&#45;&gt;Node7 -->
<g id="edge7" class="edge">
<title>Node3&#45;&gt;Node7</title>
<path fill="none" stroke="#191970" d="M1256.5525,-61.0178C1109.092,-50.6332 675.2395,-20.0802 555.765,-11.6665"/>
<polygon fill="#191970" stroke="#191970" points="555.7342,-8.1558 545.513,-10.9446 555.2424,-15.1385 555.7342,-8.1558"/>
</g>
<!-- Node3&#45;&gt;Node8 -->
<g id="edge8" class="edge">
<title>Node3&#45;&gt;Node8</title>
<path fill="none" stroke="#191970" d="M1355.4661,-60.7629C1494.6674,-50.2463 1887.0721,-20.6003 2001.9971,-11.9178"/>
<polygon fill="#191970" stroke="#191970" points="2002.5269,-15.3878 2012.2348,-11.1443 2001.9995,-8.4077 2002.5269,-15.3878"/>
</g>
<!-- Node9 -->
<g id="node10" class="node">
<title>Node9</title>
<g id="a_node10"><a xlink:title=" ">
<polygon fill="#ffffff" stroke="#bfbfbf" points="1112.2515,-.5 1112.2515,-18.5 1227.7485,-18.5 1227.7485,-.5 1112.2515,-.5"/>
<text text-anchor="middle" x="1170" y="-6.5" font-family="Helvetica,sans-Serif" font-size="10.00" fill="#000000">SEACASIoss_config.h</text>
</a>
</g>
</g>
<!-- Node3&#45;&gt;Node9 -->
<g id="edge9" class="edge">
<title>Node3&#45;&gt;Node9</title>
<path fill="none" stroke="#191970" d="M1283.5424,-55.4179C1261.2967,-46.4215 1227.0163,-32.5581 1201.9406,-22.4172"/>
<polygon fill="#191970" stroke="#191970" points="1203.0738,-19.1001 1192.491,-18.5956 1200.4494,-25.5895 1203.0738,-19.1001"/>
</g>
<!-- Node10 -->
<g id="node11" class="node">
<title>Node10</title>
<g id="a_node11"><a xlink:title=" ">
<polygon fill="#ffffff" stroke="#bfbfbf" points="1245.3818,-.5 1245.3818,-18.5 1298.6182,-18.5 1298.6182,-.5 1245.3818,-.5"/>
<text text-anchor="middle" x="1272" y="-6.5" font-family="Helvetica,sans-Serif" font-size="10.00" fill="#000000">complex</text>
</a>
</g>
</g>
<!-- Node3&#45;&gt;Node10 -->
<g id="edge10" class="edge">
<title>Node3&#45;&gt;Node10</title>
<path fill="none" stroke="#191970" d="M1300.3856,-55.4179C1295.6891,-47.8207 1288.8471,-36.7527 1283.0572,-27.3866"/>
<polygon fill="#191970" stroke="#191970" points="1285.9717,-25.445 1277.7364,-18.7795 1280.0176,-29.1258 1285.9717,-25.445"/>
</g>
<!-- Node11&#45;&gt;Node5 -->
<g id="edge95" class="edge">
<title>Node11&#45;&gt;Node5</title>
<path fill="none" stroke="#191970" d="M188.7476,-385.2421C188.5592,-372.6503 188.7635,-349.4624 192,-330 205.9916,-245.8626 218.9135,-212.1336 290,-165 398.3376,-93.1672 435.3383,-88.2585 561,-55 671.339,-25.7969 806.8413,-14.8786 869.3691,-11.19"/>
<polygon fill="#191970" stroke="#191970" points="869.6824,-14.678 879.4694,-10.6203 869.2881,-7.6891 869.6824,-14.678"/>
</g>
<!-- Node11&#45;&gt;Node7 -->
<g id="edge96" class="edge">
<title>Node11&#45;&gt;Node7</title>
<path fill="none" stroke="#191970" d="M175.6247,-385.4473C164.2451,-377.1411 148.173,-363.893 138,-349 120.7477,-323.7431 114,-315.0869 114,-284.5 114,-284.5 114,-284.5 114,-119.5 114,-40.7297 399.2747,-16.8597 494.4845,-11.0866"/>
<polygon fill="#191970" stroke="#191970" points="494.8384,-14.5721 504.6184,-10.4977 494.4322,-7.5839 494.8384,-14.5721"/>
</g>
<!-- Node12 -->
<g id="node13" class="node">
<title>Node12</title>
<g id="a_node13"><a xlink:href="Ioss__GroupingEntity_8h.html" target="_top" xlink:title=" ">
<polygon fill="#ffffff" stroke="#000000" points="1251.1743,-330.5 1251.1743,-348.5 1364.8257,-348.5 1364.8257,-330.5 1251.1743,-330.5"/>
<text text-anchor="middle" x="1308" y="-336.5" font-family="Helvetica,sans-Serif" font-size="10.00" fill="#000000">Ioss_GroupingEntity.h</text>
</a>
</g>
</g>
<!-- Node11&#45;&gt;Node12 -->
<g id="edge12" class="edge">
<title>Node11&#45;&gt;Node12</title>
<path fill="none" stroke="#191970" d="M238.1631,-392.0836C417.3615,-383.2758 1035.7361,-352.882 1241.1075,-342.7878"/>
<polygon fill="#191970" stroke="#191970" points="1241.3354,-346.281 1251.1515,-342.2942 1240.9917,-339.2894 1241.3354,-346.281"/>
</g>
<!-- Node11&#45;&gt;Node29 -->
<g id="edge94" class="edge">
<title>Node11&#45;&gt;Node29</title>
<path fill="none" stroke="#191970" d="M189.9324,-385.3384C193.237,-357.2459 206.7399,-271.1285 252,-220 265.2188,-205.0673 284.4923,-194.4151 301.8153,-187.1906"/>
<polygon fill="#191970" stroke="#191970" points="303.1501,-190.4268 311.1878,-183.5242 300.5999,-183.9078 303.1501,-190.4268"/>
</g>
<!-- Node12&#45;&gt;Node3 -->
<g id="edge13" class="edge">
<title>Node12&#45;&gt;Node3</title>
<path fill="none" stroke="#191970" d="M1348.5879,-330.4971C1417.5986,-314.2726 1552.9761,-278.1531 1580,-239 1584.7968,-232.0502 1584.9563,-226.837 1580,-220 1549.8083,-178.3516 1517.1424,-204.5845 1470,-184 1423.8715,-163.8582 1411.2427,-159.2334 1371,-129 1352.0536,-114.766 1333.1333,-95.2398 1320.6324,-81.4105"/>
<polygon fill="#191970" stroke="#191970" points="1322.9895,-78.7932 1313.7356,-73.6341 1317.7524,-83.438 1322.9895,-78.7932"/>
</g>
<!-- Node12&#45;&gt;Node5 -->
<g id="edge90" class="edge">
<title>Node12&#45;&gt;Node5</title>
<path fill="none" stroke="#191970" d="M1250.9649,-337.2985C1065.8164,-329.5662 490.4255,-300.7148 437,-239 307.4591,-89.3599 741.6931,-27.7573 869.5985,-13.1045"/>
<polygon fill="#191970" stroke="#191970" points="870.0922,-16.5712 879.6401,-11.9791 869.3125,-9.6147 870.0922,-16.5712"/>
</g>
<!-- Node12&#45;&gt;Node6 -->
<g id="edge91" class="edge">
<title>Node12&#45;&gt;Node6</title>
<path fill="none" stroke="#191970" d="M1364.8927,-334.125C1445.8702,-326.0621 1590.088,-310.0613 1640,-294 1689.7743,-277.983 1699.3907,-266.2769 1744,-239 1821.0486,-191.8877 1959.206,-179.0515 1901,-110 1825.9362,-20.9495 1504.299,-44.8422 1371.6146,-18.7273"/>
<polygon fill="#191970" stroke="#191970" points="1372.1493,-15.2623 1361.6369,-16.5815 1370.6775,-22.1059 1372.1493,-15.2623"/>
</g>
<!-- Node12&#45;&gt;Node7 -->
<g id="edge92" class="edge">
<title>Node12&#45;&gt;Node7</title>
<path fill="none" stroke="#191970" d="M1251.0793,-338.751C1080.0983,-336.1638 572.873,-325.9333 411,-294 326.3932,-277.3093 228,-315.7374 228,-229.5 228,-229.5 228,-229.5 228,-119.5 228,-63.1614 418.3063,-26.5344 494.2476,-14.1613"/>
<polygon fill="#191970" stroke="#191970" points="495.2621,-17.5438 504.586,-12.5123 494.1595,-10.6312 495.2621,-17.5438"/>
</g>
<!-- Node12&#45;&gt;Node8 -->
<g id="edge93" class="edge">
<title>Node12&#45;&gt;Node8</title>
<path fill="none" stroke="#191970" d="M1364.9756,-337.0722C1465.8037,-332.2768 1682.1027,-319.7464 1863,-294 1984.2426,-276.744 2015.7997,-274.5194 2133,-239 2205.5878,-217.0011 2291,-250.3481 2291,-174.5 2291,-174.5 2291,-174.5 2291,-119.5 2291,-71.0284 2134.5377,-31.2292 2065.775,-16.0786"/>
<polygon fill="#191970" stroke="#191970" points="2066.426,-12.6385 2055.9117,-13.9424 2064.9442,-19.4799 2066.426,-12.6385"/>
</g>
<!-- Node13 -->
<g id="node14" class="node">
<title>Node13</title>
<g id="a_node14"><a xlink:href="Ioss__DatabaseIO_8h.html" target="_top" xlink:title=" ">
<polygon fill="#ffffff" stroke="#000000" points="1136.1973,-275.5 1136.1973,-293.5 1237.8027,-293.5 1237.8027,-275.5 1136.1973,-275.5"/>
<text text-anchor="middle" x="1187" y="-281.5" font-family="Helvetica,sans-Serif" font-size="10.00" fill="#000000">Ioss_DatabaseIO.h</text>
</a>
</g>
</g>
<!-- Node12&#45;&gt;Node13 -->
<g id="edge14" class="edge">
<title>Node12&#45;&gt;Node13</title>
<path fill="none" stroke="#191970" d="M1288.0193,-330.4179C1268.49,-321.5409 1238.5356,-307.9253 1216.3105,-297.823"/>
<polygon fill="#191970" stroke="#191970" points="1217.5624,-294.5474 1207.0104,-293.5956 1214.6657,-300.92 1217.5624,-294.5474"/>
</g>
<!-- Node12&#45;&gt;Node16 -->
<g id="edge68" class="edge">
<title>Node12&#45;&gt;Node16</title>
<path fill="none" stroke="#191970" d="M1364.8578,-337.3689C1472.578,-332.7766 1702.3068,-320.1763 1777,-294 1808.0578,-283.1158 1839.0689,-260.5426 1857.8947,-245.2053"/>
<polygon fill="#191970" stroke="#191970" points="1860.2104,-247.8315 1865.6433,-238.7357 1855.724,-242.4582 1860.2104,-247.8315"/>
</g>
<!-- Node21 -->
<g id="node22" class="node">
<title>Node21</title>
<g id="a_node22"><a xlink:href="Ioss__Field_8h.html" target="_top" xlink:title=" ">
<polygon fill="#ffffff" stroke="#000000" points="1208.042,-110.5 1208.042,-128.5 1277.958,-128.5 1277.958,-110.5 1208.042,-110.5"/>
<text text-anchor="middle" x="1243" y="-116.5" font-family="Helvetica,sans-Serif" font-size="10.00" fill="#000000">Ioss_Field.h</text>
</a>
</g>
</g>
<!-- Node12&#45;&gt;Node21 -->
<g id="edge69" class="edge">
<title>Node12&#45;&gt;Node21</title>
<path fill="none" stroke="#191970" d="M1251.1047,-334.049C1109.331,-319.8907 749.231,-280.1774 715,-239 651.101,-162.1342 1057.9104,-130.5021 1197.3267,-122.0019"/>
<polygon fill="#191970" stroke="#191970" points="1197.892,-125.4744 1207.6654,-121.3842 1197.4745,-118.4869 1197.892,-125.4744"/>
</g>
<!-- Node28 -->
<g id="node29" class="node">
<title>Node28</title>
<g id="a_node29"><a xlink:href="Ioss__PropertyManager_8h.html" target="_top" xlink:title=" ">
<polygon fill="#ffffff" stroke="#000000" points="723.5225,-220.5 723.5225,-238.5 848.4775,-238.5 848.4775,-220.5 723.5225,-220.5"/>
<text text-anchor="middle" x="786" y="-226.5" font-family="Helvetica,sans-Serif" font-size="10.00" fill="#000000">Ioss_PropertyManager.h</text>
</a>
</g>
</g>
<!-- Node12&#45;&gt;Node28 -->
<g id="edge80" class="edge">
<title>Node12&#45;&gt;Node28</title>
<path fill="none" stroke="#191970" d="M1265.2825,-330.4982C1170.4347,-310.5111 942.4914,-262.4771 838.8696,-240.6411"/>
<polygon fill="#191970" stroke="#191970" points="839.4478,-237.1862 828.941,-238.5489 838.0044,-244.0357 839.4478,-237.1862"/>
</g>
<!-- Node12&#45;&gt;Node29 -->
<g id="edge79" class="edge">
<title>Node12&#45;&gt;Node29</title>
<path fill="none" stroke="#191970" d="M1250.9031,-339.1288C1069.4972,-337.5873 513.9734,-329.9507 442,-294 397.5985,-271.8214 365.4776,-220.0546 350.8405,-192.5012"/>
<polygon fill="#191970" stroke="#191970" points="353.9256,-190.8469 346.2486,-183.5452 347.6966,-194.0406 353.9256,-190.8469"/>
</g>
<!-- Node31 -->
<g id="node32" class="node">
<title>Node31</title>
<g id="a_node32"><a xlink:href="Ioss__State_8h.html" target="_top" xlink:title=" ">
<polygon fill="#ffffff" stroke="#000000" points="1499.2046,-220.5 1499.2046,-238.5 1570.7954,-238.5 1570.7954,-220.5 1499.2046,-220.5"/>
<text text-anchor="middle" x="1535" y="-226.5" font-family="Helvetica,sans-Serif" font-size="10.00" fill="#000000">Ioss_State.h</text>
</a>
</g>
</g>
<!-- Node12&#45;&gt;Node31 -->
<g id="edge81" class="edge">
<title>Node12&#45;&gt;Node31</title>
<path fill="none" stroke="#191970" d="M1326.5764,-330.4982C1366.3995,-311.2007 1460.1764,-265.7581 1507.1564,-242.9925"/>
<polygon fill="#191970" stroke="#191970" points="1508.6942,-246.1367 1516.167,-238.6261 1505.6416,-239.8373 1508.6942,-246.1367"/>
</g>
<!-- Node35 -->
<g id="node36" class="node">
<title>Node35</title>
<g id="a_node36"><a xlink:href="Ioss__FieldManager_8h.html" target="_top" xlink:title=" ">
<polygon fill="#ffffff" stroke="#000000" points="1626.5815,-220.5 1626.5815,-238.5 1735.4185,-238.5 1735.4185,-220.5 1626.5815,-220.5"/>
<text text-anchor="middle" x="1681" y="-226.5" font-family="Helvetica,sans-Serif" font-size="10.00" fill="#000000">Ioss_FieldManager.h</text>
</a>
</g>
</g>
<!-- Node12&#45;&gt;Node35 -->
<g id="edge70" class="edge">
<title>Node12&#45;&gt;Node35</title>
<path fill="none" stroke="#191970" d="M1365.0415,-335.1062C1440.9107,-328.5636 1570.4095,-314.7598 1613,-294 1635.4975,-283.0341 1655.5084,-261.9612 1667.8993,-246.8851"/>
<polygon fill="#191970" stroke="#191970" points="1670.8172,-248.8378 1674.2755,-238.8233 1665.3269,-244.4954 1670.8172,-248.8378"/>
</g>
<!-- Node37 -->
<g id="node38" class="node">
<title>Node37</title>
<g id="a_node38"><a xlink:href="Ioss__VariableType_8h.html" target="_top" xlink:title=" ">
<polygon fill="#ffffff" stroke="#000000" points="1979.061,-220.5 1979.061,-238.5 2084.939,-238.5 2084.939,-220.5 1979.061,-220.5"/>
<text text-anchor="middle" x="2032" y="-226.5" font-family="Helvetica,sans-Serif" font-size="10.00" fill="#000000">Ioss_VariableType.h</text>
</a>
</g>
</g>
<!-- Node12&#45;&gt;Node37 -->
<g id="edge82" class="edge">
<title>Node12&#45;&gt;Node37</title>
<path fill="none" stroke="#191970" d="M1364.8357,-337.8673C1458.2534,-334.3973 1649.7859,-323.9703 1809,-294 1876.7934,-281.2386 1953.6237,-256.7073 1997.099,-241.8503"/>
<polygon fill="#191970" stroke="#191970" points="1998.3177,-245.1324 2006.6313,-238.5647 1996.0366,-238.5145 1998.3177,-245.1324"/>
</g>
<!-- Node13&#45;&gt;Node2 -->
<g id="edge15" class="edge">
<title>Node13&#45;&gt;Node2</title>
<path fill="none" stroke="#191970" d="M1135.9456,-281.8807C1029.931,-276.1923 778.2806,-261.3929 568,-239 566.7332,-238.8651 565.4536,-238.7249 564.1646,-238.5801"/>
<polygon fill="#191970" stroke="#191970" points="564.4942,-235.0947 554.1511,-237.3907 563.6685,-242.0459 564.4942,-235.0947"/>
</g>
<!-- Node13&#45;&gt;Node3 -->
<g id="edge16" class="edge">
<title>Node13&#45;&gt;Node3</title>
<path fill="none" stroke="#191970" d="M1237.9692,-283.0724C1305.9611,-279.9703 1420.8381,-270.1379 1447,-239 1452.4321,-232.5347 1452.0169,-226.7926 1447,-220 1414.6774,-176.2365 1366.4939,-224.3509 1330,-184 1304.9003,-156.2476 1303.0246,-109.8174 1304.2649,-83.7545"/>
<polygon fill="#191970" stroke="#191970" points="1307.7655,-83.8638 1304.9551,-73.6485 1300.7818,-83.3868 1307.7655,-83.8638"/>
</g>
<!-- Node13&#45;&gt;Node5 -->
<g id="edge62" class="edge">
<title>Node13&#45;&gt;Node5</title>
<path fill="none" stroke="#191970" d="M1135.9363,-282.954C1016.9424,-278.9057 728.7232,-266.361 695,-239 650.4294,-202.838 654.8697,-156.1449 689,-110 732.9411,-50.5906 820.832,-25.0973 869.5296,-15.1566"/>
<polygon fill="#191970" stroke="#191970" points="870.4298,-18.5475 879.5833,-13.2124 869.1006,-11.6748 870.4298,-18.5475"/>
</g>
<!-- Node13&#45;&gt;Node6 -->
<g id="edge63" class="edge">
<title>Node13&#45;&gt;Node6</title>
<path fill="none" stroke="#191970" d="M1237.9912,-281.5941C1297.9773,-276.9859 1392.1864,-265.6198 1414,-239 1419.3523,-232.4684 1418.8666,-226.9011 1414,-220 1386.5361,-181.0546 1356.968,-202.3801 1313,-184 1261.0974,-162.303 1228.9125,-176.6433 1199,-129 1167.2995,-78.5089 1256.1558,-38.1442 1306.6909,-19.9619"/>
<polygon fill="#191970" stroke="#191970" points="1307.9544,-23.2279 1316.2399,-16.6247 1305.645,-16.6198 1307.9544,-23.2279"/>
</g>
<!-- Node13&#45;&gt;Node7 -->
<g id="edge65" class="edge">
<title>Node13&#45;&gt;Node7</title>
<path fill="none" stroke="#191970" d="M1136.178,-281.8673C1014.5683,-275.3036 713.7876,-257.4128 672,-239 580.7577,-198.7959 545.9671,-170.2665 520,-74 516.0183,-59.2387 517.6847,-41.9386 520.1185,-28.9734"/>
<polygon fill="#191970" stroke="#191970" points="523.6111,-29.3857 522.3321,-18.8683 516.7732,-27.8877 523.6111,-29.3857"/>
</g>
<!-- Node13&#45;&gt;Node8 -->
<g id="edge67" class="edge">
<title>Node13&#45;&gt;Node8</title>
<path fill="none" stroke="#191970" d="M1238.0647,-283.4679C1417.4794,-279.6316 2012.533,-265.056 2094,-239 2137.2139,-225.1787 2155.7386,-222.3386 2180,-184 2197.6656,-156.0843 2197.5826,-141.2948 2187,-110 2177.1475,-80.8641 2169.4136,-73.707 2145,-55 2121.2389,-36.7929 2089.1692,-24.6878 2065.6107,-17.5721"/>
<polygon fill="#191970" stroke="#191970" points="2066.3437,-14.141 2055.7657,-14.7373 2064.4067,-20.8677 2066.3437,-14.141"/>
</g>
<!-- Node14 -->
<g id="node15" class="node">
<title>Node14</title>
<g id="a_node15"><a xlink:href="Ioss__DBUsage_8h.html" target="_top" xlink:title=" ">
<polygon fill="#ffffff" stroke="#000000" points="1087.4805,-220.5 1087.4805,-238.5 1178.5195,-238.5 1178.5195,-220.5 1087.4805,-220.5"/>
<text text-anchor="middle" x="1133" y="-226.5" font-family="Helvetica,sans-Serif" font-size="10.00" fill="#000000">Ioss_DBUsage.h</text>
</a>
</g>
</g>
<!-- Node13&#45;&gt;Node14 -->
<g id="edge17" class="edge">
<title>Node13&#45;&gt;Node14</title>
<path fill="none" stroke="#191970" d="M1178.083,-275.4179C1170.2354,-267.425 1158.616,-255.5903 1149.1389,-245.9377"/>
<polygon fill="#191970" stroke="#191970" points="1151.6142,-243.463 1142.1107,-238.7795 1146.6192,-248.3672 1151.6142,-243.463"/>
</g>
<!-- Node15 -->
<g id="node16" class="node">
<title>Node15</title>
<g id="a_node16"><a xlink:href="Ioss__DataSize_8h.html" target="_top" xlink:title=" ">
<polygon fill="#ffffff" stroke="#000000" points="1196.5913,-220.5 1196.5913,-238.5 1285.4087,-238.5 1285.4087,-220.5 1196.5913,-220.5"/>
<text text-anchor="middle" x="1241" y="-226.5" font-family="Helvetica,sans-Serif" font-size="10.00" fill="#000000">Ioss_DataSize.h</text>
</a>
</g>
</g>
<!-- Node13&#45;&gt;Node15 -->
<g id="edge18" class="edge">
<title>Node13&#45;&gt;Node15</title>
<path fill="none" stroke="#191970" d="M1195.917,-275.4179C1203.7646,-267.425 1215.384,-255.5903 1224.8611,-245.9377"/>
<polygon fill="#191970" stroke="#191970" points="1227.3808,-248.3672 1231.8893,-238.7795 1222.3858,-243.463 1227.3808,-248.3672"/>
</g>
<!-- Node13&#45;&gt;Node16 -->
<g id="edge19" class="edge">
<title>Node13&#45;&gt;Node16</title>
<path fill="none" stroke="#191970" d="M1238.0078,-282.2277C1345.1389,-277.1423 1601.3072,-263.3396 1815,-239 1816.0915,-238.8757 1817.1934,-238.7461 1818.3032,-238.6118"/>
<polygon fill="#191970" stroke="#191970" points="1818.9664,-242.0551 1828.4316,-237.2947 1818.0637,-235.1136 1818.9664,-242.0551"/>
</g>
<!-- Node17 -->
<g id="node18" class="node">
<title>Node17</title>
<g id="a_node18"><a xlink:href="Ioss__Map_8h.html" target="_top" xlink:title=" ">
<polygon fill="#ffffff" stroke="#000000" points="1008.1528,-110.5 1008.1528,-128.5 1075.8472,-128.5 1075.8472,-110.5 1008.1528,-110.5"/>
<text text-anchor="middle" x="1042" y="-116.5" font-family="Helvetica,sans-Serif" font-size="10.00" fill="#000000">Ioss_Map.h</text>
</a>
</g>
</g>
<!-- Node13&#45;&gt;Node17 -->
<g id="edge20" class="edge">
<title>Node13&#45;&gt;Node17</title>
<path fill="none" stroke="#191970" d="M1135.9607,-280.1308C1056.4463,-272.802 910.4542,-257.0488 895,-239 873.6091,-214.0178 875.4828,-191.4718 895,-165 907.3702,-148.2219 959.2839,-134.9916 997.9338,-127.2183"/>
<polygon fill="#191970" stroke="#191970" points="998.7949,-130.6164 1007.9398,-125.2665 997.4547,-123.7459 998.7949,-130.6164"/>
</g>
<!-- Node18 -->
<g id="node19" class="node">
<title>Node18</title>
<g id="a_node19"><a xlink:title=" ">
<polygon fill="#ffffff" stroke="#bfbfbf" points="799.6084,-55.5 799.6084,-73.5 838.3916,-73.5 838.3916,-55.5 799.6084,-55.5"/>
<text text-anchor="middle" x="819" y="-61.5" font-family="Helvetica,sans-Serif" font-size="10.00" fill="#000000">utility</text>
</a>
</g>
</g>
<!-- Node13&#45;&gt;Node18 -->
<g id="edge66" class="edge">
<title>Node13&#45;&gt;Node18</title>
<path fill="none" stroke="#191970" d="M1135.9081,-283.1895C1019.8752,-279.7088 744.2444,-268.404 715,-239 674.4484,-198.2271 672.7428,-157.6061 705,-110 714.8267,-95.4975 759.0533,-80.8556 789.4404,-72.2353"/>
<polygon fill="#191970" stroke="#191970" points="790.44,-75.5903 799.1454,-69.5516 788.5742,-68.8435 790.44,-75.5903"/>
</g>
<!-- Node19 -->
<g id="node20" class="node">
<title>Node19</title>
<g id="a_node20"><a xlink:href="Ioss__ParallelUtils_8h.html" target="_top" xlink:title=" ">
<polygon fill="#ffffff" stroke="#000000" points="968.4829,-220.5 968.4829,-238.5 1069.5171,-238.5 1069.5171,-220.5 968.4829,-220.5"/>
<text text-anchor="middle" x="1019" y="-226.5" font-family="Helvetica,sans-Serif" font-size="10.00" fill="#000000">Ioss_ParallelUtils.h</text>
</a>
</g>
</g>
<!-- Node13&#45;&gt;Node19 -->
<g id="edge27" class="edge">
<title>Node13&#45;&gt;Node19</title>
<path fill="none" stroke="#191970" d="M1159.2582,-275.4179C1131.0862,-266.1949 1087.2895,-251.8567 1056.1378,-241.6582"/>
<polygon fill="#191970" stroke="#191970" points="1057.0964,-238.2893 1046.5038,-238.5042 1054.9185,-244.9419 1057.0964,-238.2893"/>
</g>
<!-- Node13&#45;&gt;Node28 -->
<g id="edge50" class="edge">
<title>Node13&#45;&gt;Node28</title>
<path fill="none" stroke="#191970" d="M1135.8058,-277.4783C1065.5446,-267.8415 938.8499,-250.4645 858.7577,-239.4792"/>
<polygon fill="#191970" stroke="#191970" points="859.1278,-235.9973 848.7449,-238.1059 858.1765,-242.9324 859.1278,-235.9973"/>
</g>
<!-- Node13&#45;&gt;Node31 -->
<g id="edge59" class="edge">
<title>Node13&#45;&gt;Node31</title>
<path fill="none" stroke="#191970" d="M1237.9742,-277.2908C1297.3834,-268.7558 1398.4671,-253.8217 1485,-239 1486.2737,-238.7818 1487.565,-238.5576 1488.8679,-238.3287"/>
<polygon fill="#191970" stroke="#191970" points="1489.758,-241.7247 1498.9782,-236.5056 1488.5158,-234.8358 1489.758,-241.7247"/>
</g>
<!-- Node32 -->
<g id="node33" class="node">
<title>Node32</title>
<g id="a_node33"><a xlink:href="Ioss__SurfaceSplit_8h.html" target="_top" xlink:title=" ">
<polygon fill="#ffffff" stroke="#000000" points="1302.9214,-220.5 1302.9214,-238.5 1405.0786,-238.5 1405.0786,-220.5 1302.9214,-220.5"/>
<text text-anchor="middle" x="1354" y="-226.5" font-family="Helvetica,sans-Serif" font-size="10.00" fill="#000000">Ioss_SurfaceSplit.h</text>
</a>
</g>
</g>
<!-- Node13&#45;&gt;Node32 -->
<g id="edge60" class="edge">
<title>Node13&#45;&gt;Node32</title>
<path fill="none" stroke="#191970" d="M1214.5767,-275.4179C1242.5809,-266.1949 1286.1169,-251.8567 1317.0832,-241.6582"/>
<polygon fill="#191970" stroke="#191970" points="1318.2567,-244.9568 1326.6599,-238.5042 1316.0669,-238.3081 1318.2567,-244.9568"/>
</g>
<!-- Node33 -->
<g id="node34" class="node">
<title>Node33</title>
<g id="a_node34"><a xlink:title=" ">
<polygon fill="#ffffff" stroke="#bfbfbf" points="903.7119,-220.5 903.7119,-238.5 950.2881,-238.5 950.2881,-220.5 903.7119,-220.5"/>
<text text-anchor="middle" x="927" y="-226.5" font-family="Helvetica,sans-Serif" font-size="10.00" fill="#000000">chrono</text>
</a>
</g>
</g>
<!-- Node13&#45;&gt;Node33 -->
<g id="edge61" class="edge">
<title>Node13&#45;&gt;Node33</title>
<path fill="none" stroke="#191970" d="M1135.9928,-275.7033C1091.8552,-267.7802 1026.141,-255.2429 960.4626,-239.1995"/>
<polygon fill="#191970" stroke="#191970" points="960.8986,-235.7021 950.351,-236.7012 959.2195,-242.4977 960.8986,-235.7021"/>
</g>
<!-- Node34 -->
<g id="node35" class="node">
<title>Node34</title>
<g id="a_node35"><a xlink:title=" ">
<polygon fill="#ffffff" stroke="#bfbfbf" points="2011.2734,-165.5 2011.2734,-183.5 2046.7266,-183.5 2046.7266,-165.5 2011.2734,-165.5"/>
<text text-anchor="middle" x="2029" y="-171.5" font-family="Helvetica,sans-Serif" font-size="10.00" fill="#000000">map</text>
</a>
</g>
</g>
<!-- Node13&#45;&gt;Node34 -->
<g id="edge64" class="edge">
<title>Node13&#45;&gt;Node34</title>
<path fill="none" stroke="#191970" d="M1238.0269,-283.1187C1336.4759,-279.8395 1559.2341,-269.4325 1744,-239 1778.3545,-233.3415 1786.0228,-227.6026 1820,-220 1897.3232,-202.6985 1920.6537,-205.4801 2001.0138,-183.9482"/>
<polygon fill="#191970" stroke="#191970" points="2002.3759,-187.2047 2011.104,-181.1988 2000.5356,-180.4509 2002.3759,-187.2047"/>
</g>
<!-- Node17&#45;&gt;Node3 -->
<g id="edge21" class="edge">
<title>Node17&#45;&gt;Node3</title>
<path fill="none" stroke="#191970" d="M1075.9729,-112.4223C1120.7169,-103.1007 1199.8868,-86.6069 1252.6567,-75.6132"/>
<polygon fill="#191970" stroke="#191970" points="1253.4385,-79.0256 1262.5144,-73.5595 1252.0107,-72.1727 1253.4385,-79.0256"/>
</g>
<!-- Node17&#45;&gt;Node5 -->
<g id="edge22" class="edge">
<title>Node17&#45;&gt;Node5</title>
<path fill="none" stroke="#191970" d="M1036.9033,-110.0986C1029.1447,-96.4932 1013.224,-71.1775 994,-55 977.3847,-41.0177 955.7431,-29.9037 937.846,-22.1607"/>
<polygon fill="#191970" stroke="#191970" points="938.9214,-18.8174 928.3441,-18.209 936.2334,-25.2807 938.9214,-18.8174"/>
</g>
<!-- Node17&#45;&gt;Node6 -->
<g id="edge23" class="edge">
<title>Node17&#45;&gt;Node6</title>
<path fill="none" stroke="#191970" d="M1049.8347,-110.3198C1062.5751,-96.0388 1089.2654,-68.721 1118,-55 1192.6802,-19.3397 1222.3443,-38.096 1306.424,-19.111"/>
<polygon fill="#191970" stroke="#191970" points="1307.4732,-22.4592 1316.3934,-16.7425 1305.8551,-15.6488 1307.4732,-22.4592"/>
</g>
<!-- Node17&#45;&gt;Node7 -->
<g id="edge24" class="edge">
<title>Node17&#45;&gt;Node7</title>
<path fill="none" stroke="#191970" d="M1019.2687,-110.4985C983.2768,-96.5858 910.7109,-69.9113 847,-55 741.6459,-30.3423 613.5713,-17.1033 555.8394,-12.0055"/>
<polygon fill="#191970" stroke="#191970" points="555.8424,-8.4929 545.5785,-11.1205 555.2407,-15.467 555.8424,-8.4929"/>
</g>
<!-- Node17&#45;&gt;Node8 -->
<g id="edge26" class="edge">
<title>Node17&#45;&gt;Node8</title>
<path fill="none" stroke="#191970" d="M1064.4028,-110.4786C1101.7541,-95.8974 1179.4287,-67.5226 1248,-55 1396.4567,-27.8887 1873.5947,-13.6953 2001.9502,-10.3059"/>
<polygon fill="#191970" stroke="#191970" points="2002.3622,-13.7964 2012.2676,-10.037 2002.1798,-6.7988 2002.3622,-13.7964"/>
</g>
<!-- Node17&#45;&gt;Node18 -->
<g id="edge25" class="edge">
<title>Node17&#45;&gt;Node18</title>
<path fill="none" stroke="#191970" d="M1008.1311,-111.1467C964.5494,-100.3978 889.5547,-81.9014 848.3079,-71.7284"/>
<polygon fill="#191970" stroke="#191970" points="849.1354,-68.3277 838.5882,-69.3312 847.4591,-75.124 849.1354,-68.3277"/>
</g>
<!-- Node19&#45;&gt;Node3 -->
<g id="edge28" class="edge">
<title>Node19&#45;&gt;Node3</title>
<path fill="none" stroke="#191970" d="M1031.1636,-220.2734C1059.5135,-199.0309 1132.6219,-145.7533 1199,-110 1222.5799,-97.2991 1250.4596,-85.5415 1271.8481,-77.1611"/>
<polygon fill="#191970" stroke="#191970" points="1273.1123,-80.4248 1281.1797,-73.557 1270.5903,-73.8949 1273.1123,-80.4248"/>
</g>
<!-- Node19&#45;&gt;Node5 -->
<g id="edge47" class="edge">
<title>Node19&#45;&gt;Node5</title>
<path fill="none" stroke="#191970" d="M1018.3578,-220.0848C1016.9703,-206.4623 1012.6127,-181.1255 999,-165 976.1776,-137.965 949.4078,-157.1684 928,-129 905.5711,-99.4879 902.5996,-54.4119 902.959,-28.8897"/>
<polygon fill="#191970" stroke="#191970" points="906.4647,-28.7768 903.3007,-18.6655 899.4686,-28.543 906.4647,-28.7768"/>
</g>
<!-- Node19&#45;&gt;Node7 -->
<g id="edge48" class="edge">
<title>Node19&#45;&gt;Node7</title>
<path fill="none" stroke="#191970" d="M978.0345,-220.4573C942.0923,-212.1577 888.5943,-198.9134 843,-184 732.6282,-147.8986 702.5074,-138.5875 606,-74 583.4369,-58.8997 559.3039,-39.1668 543.3067,-25.5234"/>
<polygon fill="#191970" stroke="#191970" points="545.1778,-22.5155 535.318,-18.6382 540.6079,-27.818 545.1778,-22.5155"/>
</g>
<!-- Node19&#45;&gt;Node8 -->
<g id="edge49" class="edge">
<title>Node19&#45;&gt;Node8</title>
<path fill="none" stroke="#191970" d="M1069.8065,-221.0033C1072.5746,-220.6391 1075.3194,-220.3011 1078,-220 1267.0005,-198.7688 1761.7001,-219.4583 1929,-129 1973.3549,-105.0175 2007.8504,-54.46 2023.9888,-27.4325"/>
<polygon fill="#191970" stroke="#191970" points="2027.1027,-29.0395 2029.0883,-18.6324 2021.0461,-25.5298 2027.1027,-29.0395"/>
</g>
<!-- Node20 -->
<g id="node21" class="node">
<title>Node20</title>
<g id="a_node21"><a xlink:href="Ioss__Utils_8h.html" target="_top" xlink:title=" ">
<polygon fill="#ffffff" stroke="#000000" points="1562.1577,-165.5 1562.1577,-183.5 1629.8423,-183.5 1629.8423,-165.5 1562.1577,-165.5"/>
<text text-anchor="middle" x="1596" y="-171.5" font-family="Helvetica,sans-Serif" font-size="10.00" fill="#000000">Ioss_Utils.h</text>
</a>
</g>
</g>
<!-- Node19&#45;&gt;Node20 -->
<g id="edge29" class="edge">
<title>Node19&#45;&gt;Node20</title>
<path fill="none" stroke="#191970" d="M1069.8156,-221.0796C1072.5813,-220.6957 1075.3231,-220.3326 1078,-220 1252.9368,-198.2617 1462.3813,-183.2134 1551.91,-177.2969"/>
<polygon fill="#191970" stroke="#191970" points="1552.2212,-180.7841 1561.9708,-176.6372 1551.7632,-173.7991 1552.2212,-180.7841"/>
</g>
<!-- Node19&#45;&gt;Node23 -->
<g id="edge46" class="edge">
<title>Node19&#45;&gt;Node23</title>
<path fill="none" stroke="#191970" d="M993.2442,-220.3727C968.0891,-211.3822 928.7698,-197.127 895,-184 850.8858,-166.852 800.3249,-145.8316 768.772,-132.5482"/>
<polygon fill="#191970" stroke="#191970" points="769.8019,-129.184 759.2278,-128.522 767.0811,-135.6336 769.8019,-129.184"/>
</g>
<!-- Node20&#45;&gt;Node3 -->
<g id="edge30" class="edge">
<title>Node20&#45;&gt;Node3</title>
<path fill="none" stroke="#191970" d="M1573.3052,-165.4381C1530.3609,-148.2944 1440.8699,-112.5876 1434,-110 1403.2148,-98.4045 1367.9771,-85.9371 1342.2782,-76.9904"/>
<polygon fill="#191970" stroke="#191970" points="1343.1759,-73.5972 1332.5811,-73.6239 1340.8801,-80.21 1343.1759,-73.5972"/>
</g>
<!-- Node20&#45;&gt;Node5 -->
<g id="edge39" class="edge">
<title>Node20&#45;&gt;Node5</title>
<path fill="none" stroke="#191970" d="M1582.653,-165.2887C1548.2662,-142.0943 1453.0882,-81.2648 1364,-55 1284.1255,-31.4515 1031.4459,-16.181 938.6321,-11.2429"/>
<polygon fill="#191970" stroke="#191970" points="938.5497,-7.7339 928.3801,-10.7051 938.1829,-14.7243 938.5497,-7.7339"/>
</g>
<!-- Node20&#45;&gt;Node6 -->
<g id="edge40" class="edge">
<title>Node20&#45;&gt;Node6</title>
<path fill="none" stroke="#191970" d="M1586.0883,-165.313C1576.897,-156.5066 1563.1497,-142.5817 1553,-129 1530.2296,-98.53 1540.3067,-77.9874 1510,-55 1461.6378,-18.3176 1435.1489,-34.3036 1371.7592,-18.9664"/>
<polygon fill="#191970" stroke="#191970" points="1372.2566,-15.4793 1361.6972,-16.3454 1370.492,-22.2532 1372.2566,-15.4793"/>
</g>
<!-- Node20&#45;&gt;Node7 -->
<g id="edge44" class="edge">
<title>Node20&#45;&gt;Node7</title>
<path fill="none" stroke="#191970" d="M1562.1291,-170.4446C1546.3063,-168.6307 1527.2044,-166.5557 1510,-165 1283.2511,-144.497 1223.8148,-164.9688 999,-129 976.4389,-125.3904 656.3336,-43.27 555.3131,-17.2992"/>
<polygon fill="#191970" stroke="#191970" points="555.9906,-13.8596 545.434,-14.7589 554.2473,-20.6391 555.9906,-13.8596"/>
</g>
<!-- Node20&#45;&gt;Node8 -->
<g id="edge45" class="edge">
<title>Node20&#45;&gt;Node8</title>
<path fill="none" stroke="#191970" d="M1630.0722,-171.9319C1699.2229,-166.3145 1853.5037,-151.6032 1901,-129 1945.0298,-108.0464 1945.6495,-87.5011 1982,-55 1993.0385,-45.1304 2005.5217,-34.2001 2015.49,-25.5266"/>
<polygon fill="#191970" stroke="#191970" points="2017.9293,-28.0438 2023.185,-18.8444 2013.3396,-22.7585 2017.9293,-28.0438"/>
</g>
<!-- Node20&#45;&gt;Node21 -->
<g id="edge31" class="edge">
<title>Node20&#45;&gt;Node21</title>
<path fill="none" stroke="#191970" d="M1562.1529,-169.2264C1498.2541,-159.2705 1359.8488,-137.7059 1288.1284,-126.5313"/>
<polygon fill="#191970" stroke="#191970" points="1288.4671,-123.042 1278.0474,-124.9606 1287.3894,-129.9585 1288.4671,-123.042"/>
</g>
<!-- Node22 -->
<g id="node23" class="node">
<title>Node22</title>
<g id="a_node23"><a xlink:title=" ">
<polygon fill="#ffffff" stroke="#bfbfbf" points="1773.436,-110.5 1773.436,-128.5 1830.564,-128.5 1830.564,-110.5 1773.436,-110.5"/>
<text text-anchor="middle" x="1802" y="-116.5" font-family="Helvetica,sans-Serif" font-size="10.00" fill="#000000">algorithm</text>
</a>
</g>
</g>
<!-- Node20&#45;&gt;Node22 -->
<g id="edge36" class="edge">
<title>Node20&#45;&gt;Node22</title>
<path fill="none" stroke="#191970" d="M1630.0167,-165.4179C1666.7326,-155.6151 1725.0921,-140.0337 1763.4737,-129.7861"/>
<polygon fill="#191970" stroke="#191970" points="1764.4963,-133.1358 1773.255,-127.1746 1762.6905,-126.3727 1764.4963,-133.1358"/>
</g>
<!-- Node20&#45;&gt;Node23 -->
<g id="edge37" class="edge">
<title>Node20&#45;&gt;Node23</title>
<path fill="none" stroke="#191970" d="M1562.1011,-172.327C1424.7529,-163.5226 910.4127,-130.5521 772.3118,-121.6995"/>
<polygon fill="#191970" stroke="#191970" points="772.5012,-118.2045 762.2977,-121.0575 772.0533,-125.1902 772.5012,-118.2045"/>
</g>
<!-- Node24 -->
<g id="node25" class="node">
<title>Node24</title>
<g id="a_node25"><a xlink:title=" ">
<polygon fill="#ffffff" stroke="#bfbfbf" points="1848.3843,-110.5 1848.3843,-128.5 1891.6157,-128.5 1891.6157,-110.5 1848.3843,-110.5"/>
<text text-anchor="middle" x="1870" y="-116.5" font-family="Helvetica,sans-Serif" font-size="10.00" fill="#000000">cmath</text>
</a>
</g>
</g>
<!-- Node20&#45;&gt;Node24 -->
<g id="edge38" class="edge">
<title>Node20&#45;&gt;Node24</title>
<path fill="none" stroke="#191970" d="M1630.2308,-169.4716C1675.7486,-162.4912 1758.8393,-148.7281 1838.001,-129.2898"/>
<polygon fill="#191970" stroke="#191970" points="1839.2766,-132.579 1848.1334,-126.7646 1837.5838,-125.7868 1839.2766,-132.579"/>
</g>
<!-- Node25 -->
<g id="node26" class="node">
<title>Node25</title>
<g id="a_node26"><a xlink:title=" ">
<polygon fill="#ffffff" stroke="#bfbfbf" points="1561.8276,-110.5 1561.8276,-128.5 1606.1724,-128.5 1606.1724,-110.5 1561.8276,-110.5"/>
<text text-anchor="middle" x="1584" y="-116.5" font-family="Helvetica,sans-Serif" font-size="10.00" fill="#000000">cstdlib</text>
</a>
</g>
</g>
<!-- Node20&#45;&gt;Node25 -->
<g id="edge41" class="edge">
<title>Node20&#45;&gt;Node25</title>
<path fill="none" stroke="#191970" d="M1594.0184,-165.4179C1592.4299,-158.1372 1590.146,-147.669 1588.1598,-138.5659"/>
<polygon fill="#191970" stroke="#191970" points="1591.5759,-137.8035 1586.0246,-128.7795 1584.7368,-139.2957 1591.5759,-137.8035"/>
</g>
<!-- Node26 -->
<g id="node27" class="node">
<title>Node26</title>
<g id="a_node27"><a xlink:title=" ">
<polygon fill="#ffffff" stroke="#bfbfbf" points="1623.8276,-110.5 1623.8276,-128.5 1678.1724,-128.5 1678.1724,-110.5 1623.8276,-110.5"/>
<text text-anchor="middle" x="1651" y="-116.5" font-family="Helvetica,sans-Serif" font-size="10.00" fill="#000000">iostream</text>
</a>
</g>
</g>
<!-- Node20&#45;&gt;Node26 -->
<g id="edge42" class="edge">
<title>Node20&#45;&gt;Node26</title>
<path fill="none" stroke="#191970" d="M1605.0821,-165.4179C1613.075,-157.425 1624.9097,-145.5903 1634.5623,-135.9377"/>
<polygon fill="#191970" stroke="#191970" points="1637.1243,-138.3254 1641.7205,-128.7795 1632.1746,-133.3757 1637.1243,-138.3254"/>
</g>
<!-- Node27 -->
<g id="node28" class="node">
<title>Node27</title>
<g id="a_node28"><a xlink:title=" ">
<polygon fill="#ffffff" stroke="#bfbfbf" points="1696.5986,-110.5 1696.5986,-128.5 1755.4014,-128.5 1755.4014,-110.5 1696.5986,-110.5"/>
<text text-anchor="middle" x="1726" y="-116.5" font-family="Helvetica,sans-Serif" font-size="10.00" fill="#000000">stdexcept</text>
</a>
</g>
</g>
<!-- Node20&#45;&gt;Node27 -->
<g id="edge43" class="edge">
<title>Node20&#45;&gt;Node27</title>
<path fill="none" stroke="#191970" d="M1617.4669,-165.4179C1638.637,-156.4613 1671.2094,-142.6806 1695.1498,-132.552"/>
<polygon fill="#191970" stroke="#191970" points="1696.6553,-135.7155 1704.5013,-128.5956 1693.9278,-129.2687 1696.6553,-135.7155"/>
</g>
<!-- Node21&#45;&gt;Node3 -->
<g id="edge32" class="edge">
<title>Node21&#45;&gt;Node3</title>
<path fill="none" stroke="#191970" d="M1253.4032,-110.4179C1262.7399,-102.2667 1276.6533,-90.1201 1287.8251,-80.3669"/>
<polygon fill="#191970" stroke="#191970" points="1290.1394,-82.9927 1295.3708,-73.7795 1285.5358,-77.7194 1290.1394,-82.9927"/>
</g>
<!-- Node21&#45;&gt;Node5 -->
<g id="edge33" class="edge">
<title>Node21&#45;&gt;Node5</title>
<path fill="none" stroke="#191970" d="M1215.2582,-110.4982C1153.5902,-90.488 1005.2861,-42.3657 938.1011,-20.5653"/>
<polygon fill="#191970" stroke="#191970" points="939.0104,-17.1807 928.4184,-17.4234 936.8499,-23.839 939.0104,-17.1807"/>
</g>
<!-- Node21&#45;&gt;Node7 -->
<g id="edge34" class="edge">
<title>Node21&#45;&gt;Node7</title>
<path fill="none" stroke="#191970" d="M1207.8447,-112.3078C1144.9044,-99.591 1008.7254,-72.8015 893,-55 768.1941,-35.8017 618.5955,-19.3109 555.4702,-12.6497"/>
<polygon fill="#191970" stroke="#191970" points="555.7149,-9.1563 545.4043,-11.5937 554.9845,-16.1181 555.7149,-9.1563"/>
</g>
<!-- Node21&#45;&gt;Node8 -->
<g id="edge35" class="edge">
<title>Node21&#45;&gt;Node8</title>
<path fill="none" stroke="#191970" d="M1278.0089,-114.6315C1409.9056,-96.2894 1875.7382,-31.5086 2002.1483,-13.9294"/>
<polygon fill="#191970" stroke="#191970" points="2002.8971,-17.3591 2012.3196,-12.515 2001.9328,-10.4258 2002.8971,-17.3591"/>
</g>
<!-- Node28&#45;&gt;Node3 -->
<g id="edge51" class="edge">
<title>Node28&#45;&gt;Node3</title>
<path fill="none" stroke="#191970" d="M798.0333,-220.4531C817.3975,-206.3547 857.1459,-179.2826 895,-165 975.4135,-134.6596 1001.4277,-149.0632 1085,-129 1150.2612,-113.3328 1224.994,-90.4676 1268.6939,-76.5882"/>
<polygon fill="#191970" stroke="#191970" points="1269.8591,-79.8903 1278.3219,-73.516 1267.7311,-73.2216 1269.8591,-79.8903"/>
</g>
<!-- Node28&#45;&gt;Node5 -->
<g id="edge55" class="edge">
<title>Node28&#45;&gt;Node5</title>
<path fill="none" stroke="#191970" d="M790.9201,-220.327C808.7626,-187.0613 870.2759,-72.3755 894.2891,-27.605"/>
<polygon fill="#191970" stroke="#191970" points="897.4166,-29.179 899.0589,-18.7122 891.2479,-25.8703 897.4166,-29.179"/>
</g>
<!-- Node28&#45;&gt;Node7 -->
<g id="edge56" class="edge">
<title>Node28&#45;&gt;Node7</title>
<path fill="none" stroke="#191970" d="M750.7616,-220.4914C692.0944,-203.344 576.2768,-159.8204 530,-74 522.587,-60.2525 521.7522,-42.4079 522.5364,-28.9741"/>
<polygon fill="#191970" stroke="#191970" points="526.031,-29.1938 523.467,-18.9139 519.0607,-28.5489 526.031,-29.1938"/>
</g>
<!-- Node28&#45;&gt;Node8 -->
<g id="edge58" class="edge">
<title>Node28&#45;&gt;Node8</title>
<path fill="none" stroke="#191970" d="M848.5074,-223.6351C863.7125,-222.3236 879.9332,-221.0207 895,-220 1125.1384,-204.409 1715.334,-215.9115 1929,-129 1969.9915,-112.3262 1984.9677,-109.0368 2012,-74 2022.265,-60.6954 2027.9117,-42.2999 2030.9049,-28.5577"/>
<polygon fill="#191970" stroke="#191970" points="2034.3457,-29.1982 2032.774,-18.7206 2027.4688,-27.8915 2034.3457,-29.1982"/>
</g>
<!-- Node28&#45;&gt;Node29 -->
<g id="edge52" class="edge">
<title>Node28&#45;&gt;Node29</title>
<path fill="none" stroke="#191970" d="M723.3273,-221.7365C635.4152,-210.8465 477.0493,-191.2291 394.8026,-181.0409"/>
<polygon fill="#191970" stroke="#191970" points="395.0333,-177.5428 384.6788,-179.7868 394.1727,-184.4897 395.0333,-177.5428"/>
</g>
<!-- Node30 -->
<g id="node31" class="node">
<title>Node30</title>
<g id="a_node31"><a xlink:title=" ">
<polygon fill="#ffffff" stroke="#bfbfbf" points="903.6973,-165.5 903.6973,-183.5 990.3027,-183.5 990.3027,-165.5 903.6973,-165.5"/>
<text text-anchor="middle" x="947" y="-171.5" font-family="Helvetica,sans-Serif" font-size="10.00" fill="#000000">unordered_map</text>
</a>
</g>
</g>
<!-- Node28&#45;&gt;Node30 -->
<g id="edge57" class="edge">
<title>Node28&#45;&gt;Node30</title>
<path fill="none" stroke="#191970" d="M812.5859,-220.4179C839.4671,-211.2348 881.1927,-196.9807 911.0212,-186.7909"/>
<polygon fill="#191970" stroke="#191970" points="912.3106,-190.0491 920.6422,-183.5042 910.0477,-183.4249 912.3106,-190.0491"/>
</g>
<!-- Node29&#45;&gt;Node6 -->
<g id="edge53" class="edge">
<title>Node29&#45;&gt;Node6</title>
<path fill="none" stroke="#191970" d="M368.6853,-165.4757C437.6215,-142.5869 627.6789,-82.1648 791,-55 1014.9953,-17.7434 1079.7045,-59.7922 1306.5836,-18.8721"/>
<polygon fill="#191970" stroke="#191970" points="1307.2586,-22.3068 1316.4613,-17.057 1305.9934,-15.4221 1307.2586,-22.3068"/>
</g>
<!-- Node29&#45;&gt;Node7 -->
<g id="edge54" class="edge">
<title>Node29&#45;&gt;Node7</title>
<path fill="none" stroke="#191970" d="M345.3545,-165.3869C353.8591,-143.4475 378.3011,-87.1351 416,-55 438.8382,-35.5324 471.1853,-23.4534 494.7064,-16.6773"/>
<polygon fill="#191970" stroke="#191970" points="495.7786,-20.0129 504.5093,-14.0107 493.9412,-13.2584 495.7786,-20.0129"/>
</g>
<!-- Node35&#45;&gt;Node3 -->
<g id="edge71" class="edge">
<title>Node35&#45;&gt;Node3</title>
<path fill="none" stroke="#191970" d="M1641.6726,-220.4225C1608.6896,-212.3284 1560.6025,-199.3975 1520,-184 1467.4001,-164.0528 1455.0638,-156.5206 1406,-129 1378.0309,-113.3118 1347.2137,-92.9344 1327.2855,-79.3224"/>
<polygon fill="#191970" stroke="#191970" points="1329.1676,-76.369 1318.9449,-73.5855 1325.2005,-82.1364 1329.1676,-76.369"/>
</g>
<!-- Node35&#45;&gt;Node5 -->
<g id="edge74" class="edge">
<title>Node35&#45;&gt;Node5</title>
<path fill="none" stroke="#191970" d="M1626.5021,-223.7965C1474.4674,-207.5614 1053.248,-160.2563 999,-129 957.2558,-104.9481 926.8954,-54.8017 912.7995,-27.7454"/>
<polygon fill="#191970" stroke="#191970" points="915.8241,-25.9696 908.2036,-18.6089 909.5707,-29.1152 915.8241,-25.9696"/>
</g>
<!-- Node35&#45;&gt;Node7 -->
<g id="edge76" class="edge">
<title>Node35&#45;&gt;Node7</title>
<path fill="none" stroke="#191970" d="M1626.4937,-224.2919C1611.4336,-222.8751 1595.0855,-221.3575 1580,-220 1393.8439,-203.2482 1346.0013,-210.6314 1161,-184 1039.354,-166.4887 1010.1975,-154.6313 890,-129 780.4309,-105.6352 748.9169,-113.2907 644,-74 634.3357,-70.3808 581.9051,-41.3597 549.9485,-23.5009"/>
<polygon fill="#191970" stroke="#191970" points="551.58,-20.4031 541.1443,-18.5737 548.1615,-26.5116 551.58,-20.4031"/>
</g>
<!-- Node35&#45;&gt;Node8 -->
<g id="edge78" class="edge">
<title>Node35&#45;&gt;Node8</title>
<path fill="none" stroke="#191970" d="M1734.0797,-220.4702C1775.271,-212.765 1833.5018,-200.3377 1883,-184 1902.8408,-177.4512 1906.3839,-172.1938 1926,-165 1979.077,-145.535 2014.151,-174.2802 2048,-129 2070.2044,-99.297 2054.8773,-53.3182 2043.3964,-27.9244"/>
<polygon fill="#191970" stroke="#191970" points="2046.4537,-26.2049 2038.9783,-18.697 2040.1401,-29.228 2046.4537,-26.2049"/>
</g>
<!-- Node35&#45;&gt;Node20 -->
<g id="edge73" class="edge">
<title>Node35&#45;&gt;Node20</title>
<path fill="none" stroke="#191970" d="M1666.964,-220.4179C1653.7987,-211.8992 1633.8892,-199.0166 1618.506,-189.0627"/>
<polygon fill="#191970" stroke="#191970" points="1620.354,-186.0897 1610.0569,-183.5956 1616.5512,-191.9667 1620.354,-186.0897"/>
</g>
<!-- Node35&#45;&gt;Node21 -->
<g id="edge72" class="edge">
<title>Node35&#45;&gt;Node21</title>
<path fill="none" stroke="#191970" d="M1626.1893,-221.9596C1577.7068,-214.5872 1505.3465,-201.8593 1444,-184 1421.9707,-177.5868 1417.6836,-172.4995 1396,-165 1359.4107,-152.3452 1317.1905,-139.9517 1286.3823,-131.3032"/>
<polygon fill="#191970" stroke="#191970" points="1286.9691,-127.8334 1276.3965,-128.5189 1285.089,-134.5762 1286.9691,-127.8334"/>
</g>
<!-- Node35&#45;&gt;Node30 -->
<g id="edge77" class="edge">
<title>Node35&#45;&gt;Node30</title>
<path fill="none" stroke="#191970" d="M1626.5098,-224.1033C1611.4498,-222.6857 1595.0976,-221.2149 1580,-220 1341.1264,-200.7773 1280.816,-203.9255 1042,-184 1028.574,-182.8798 1014.0968,-181.5133 1000.5893,-180.1697"/>
<polygon fill="#191970" stroke="#191970" points="1000.7831,-176.6716 990.4826,-179.1513 1000.0812,-183.6363 1000.7831,-176.6716"/>
</g>
<!-- Node36 -->
<g id="node37" class="node">
<title>Node36</title>
<g id="a_node37"><a xlink:title=" ">
<polygon fill="#ffffff" stroke="#bfbfbf" points="1934.5962,-165.5 1934.5962,-183.5 1993.4038,-183.5 1993.4038,-165.5 1934.5962,-165.5"/>
<text text-anchor="middle" x="1964" y="-171.5" font-family="Helvetica,sans-Serif" font-size="10.00" fill="#000000">functional</text>
</a>
</g>
</g>
<!-- Node35&#45;&gt;Node36 -->
<g id="edge75" class="edge">
<title>Node35&#45;&gt;Node36</title>
<path fill="none" stroke="#191970" d="M1731.1902,-220.4388C1779.806,-211.5548 1855.5695,-197.4269 1921,-184 1922.0859,-183.7772 1923.1868,-183.5491 1924.2974,-183.3171"/>
<polygon fill="#191970" stroke="#191970" points="1925.3672,-186.6677 1934.4169,-181.1584 1923.9067,-179.8217 1925.3672,-186.6677"/>
</g>
<!-- Node37&#45;&gt;Node3 -->
<g id="edge83" class="edge">
<title>Node37&#45;&gt;Node3</title>
<path fill="none" stroke="#191970" d="M2040.3702,-220.466C2051.5012,-207.3182 2068.4067,-182.567 2056,-165 2013.8314,-105.2922 1972.5119,-125.1414 1901,-110 1799.9755,-88.6099 1495.4825,-72.9423 1365.6706,-67.0557"/>
<polygon fill="#191970" stroke="#191970" points="1365.6632,-63.5519 1355.516,-66.5991 1365.3487,-70.5449 1365.6632,-63.5519"/>
</g>
<!-- Node37&#45;&gt;Node7 -->
<g id="edge88" class="edge">
<title>Node37&#45;&gt;Node7</title>
<path fill="none" stroke="#191970" d="M1978.8096,-224.3976C1963.6846,-222.9601 1947.1945,-221.4056 1932,-220 1482.7681,-178.4441 1365.3463,-207.0546 921,-129 888.4036,-123.2741 881.0928,-118.0845 849,-110 782.5172,-93.2523 764.5929,-93.9505 699,-74 647.5217,-58.3425 589.1537,-35.6622 554.796,-21.7866"/>
<polygon fill="#191970" stroke="#191970" points="555.935,-18.4716 545.353,-17.9501 553.3002,-24.9568 555.935,-18.4716"/>
</g>
<!-- Node37&#45;&gt;Node8 -->
<g id="edge89" class="edge">
<title>Node37&#45;&gt;Node8</title>
<path fill="none" stroke="#191970" d="M2071.4899,-220.4845C2104.4855,-212.0573 2147.7431,-198.6091 2158,-184 2181.1224,-151.0664 2216.2883,-164.292 2124,-55 2108.8018,-37.0016 2084.7187,-25.3539 2065.2881,-18.3529"/>
<polygon fill="#191970" stroke="#191970" points="2066.217,-14.9728 2055.623,-15.1064 2063.9881,-21.6084 2066.217,-14.9728"/>
</g>
<!-- Node37&#45;&gt;Node20 -->
<g id="edge84" class="edge">
<title>Node37&#45;&gt;Node20</title>
<path fill="none" stroke="#191970" d="M1978.982,-221.8919C1974.2553,-221.2411 1969.5421,-220.602 1965,-220 1847.6852,-204.4514 1709.1465,-187.8369 1639.9535,-179.658"/>
<polygon fill="#191970" stroke="#191970" points="1640.1993,-176.1628 1629.858,-178.4664 1639.3787,-183.1145 1640.1993,-176.1628"/>
</g>
<!-- Node37&#45;&gt;Node34 -->
<g id="edge87" class="edge">
<title>Node37&#45;&gt;Node34</title>
<path fill="none" stroke="#191970" d="M2031.5046,-220.4179C2031.1118,-213.2164 2030.5489,-202.8962 2030.0562,-193.8632"/>
<polygon fill="#191970" stroke="#191970" points="2033.5457,-193.574 2029.5062,-183.7795 2026.5561,-193.9553 2033.5457,-193.574"/>
</g>
<!-- Node37&#45;&gt;Node36 -->
<g id="edge86" class="edge">
<title>Node37&#45;&gt;Node36</title>
<path fill="none" stroke="#191970" d="M2020.7712,-220.4179C2010.5955,-212.1876 1995.3837,-199.8839 1983.2669,-190.0836"/>
<polygon fill="#191970" stroke="#191970" points="1985.449,-187.3469 1975.4728,-183.7795 1981.0469,-192.7895 1985.449,-187.3469"/>
</g>
<!-- Node38 -->
<g id="node39" class="node">
<title>Node38</title>
<g id="a_node39"><a xlink:title=" ">
<polygon fill="#ffffff" stroke="#bfbfbf" points="2103.2734,-165.5 2103.2734,-183.5 2148.7266,-183.5 2148.7266,-165.5 2103.2734,-165.5"/>
<text text-anchor="middle" x="2126" y="-171.5" font-family="Helvetica,sans-Serif" font-size="10.00" fill="#000000">cstring</text>
</a>
</g>
</g>
<!-- Node37&#45;&gt;Node38 -->
<g id="edge85" class="edge">
<title>Node37&#45;&gt;Node38</title>
<path fill="none" stroke="#191970" d="M2047.5222,-220.4179C2062.2175,-211.8195 2084.5112,-198.7754 2101.5866,-188.7844"/>
<polygon fill="#191970" stroke="#191970" points="2103.5912,-191.6667 2110.4548,-183.5956 2100.0561,-185.6249 2103.5912,-191.6667"/>
</g>
</g>
</svg>
