<?xml version="1.0" encoding="UTF-8" standalone="no"?>
<!DOCTYPE svg PUBLIC "-//W3C//DTD SVG 1.1//EN"
 "http://www.w3.org/Graphics/SVG/1.1/DTD/svg11.dtd">
<!-- Generated by graphviz version 2.43.0 (0)
 -->
<!-- Title: src/Ioss_Tracer.C Pages: 1 -->
<svg width="318pt" height="82pt"
 viewBox="0.00 0.00 318.28 82.00" xmlns="http://www.w3.org/2000/svg" xmlns:xlink="http://www.w3.org/1999/xlink">
<g id="graph0" class="graph" transform="scale(1 1) rotate(0) translate(4 78)">
<title>src/Ioss_Tracer.C</title>
<polygon fill="white" stroke="transparent" points="-4,4 -4,-78 314.28,-78 314.28,4 -4,4"/>
<!-- Node1 -->
<g id="node1" class="node">
<title>Node1</title>
<g id="a_node1"><a xlink:title=" ">
<polygon fill="#bfbfbf" stroke="black" points="111.12,-55.5 111.12,-73.5 205.1,-73.5 205.1,-55.5 111.12,-55.5"/>
<text text-anchor="middle" x="158.11" y="-61.5" font-family="Helvetica,sans-Serif" font-size="10.00">src/Ioss_Tracer.C</text>
</a>
</g>
</g>
<!-- Node2 -->
<g id="node2" class="node">
<title>Node2</title>
<g id="a_node2"><a xlink:href="Ioss__Tracer_8h.html" target="_top" xlink:title=" ">
<polygon fill="white" stroke="black" points="0,-0.5 0,-18.5 76.22,-18.5 76.22,-0.5 0,-0.5"/>
<text text-anchor="middle" x="38.11" y="-6.5" font-family="Helvetica,sans-Serif" font-size="10.00">Ioss_Tracer.h</text>
</a>
</g>
</g>
<!-- Node1&#45;&gt;Node2 -->
<g id="edge1" class="edge">
<title>Node1&#45;&gt;Node2</title>
<path fill="none" stroke="midnightblue" d="M139.88,-55.45C120.15,-46.73 88.44,-32.73 65.66,-22.67"/>
<polygon fill="midnightblue" stroke="midnightblue" points="67.07,-19.46 56.51,-18.63 64.24,-25.87 67.07,-19.46"/>
</g>
<!-- Node3 -->
<g id="node3" class="node">
<title>Node3</title>
<g id="a_node3"><a xlink:title=" ">
<polygon fill="white" stroke="#bfbfbf" points="93.99,-0.5 93.99,-18.5 142.23,-18.5 142.23,-0.5 93.99,-0.5"/>
<text text-anchor="middle" x="118.11" y="-6.5" font-family="Helvetica,sans-Serif" font-size="10.00">cassert</text>
</a>
</g>
</g>
<!-- Node1&#45;&gt;Node3 -->
<g id="edge2" class="edge">
<title>Node1&#45;&gt;Node3</title>
<path fill="none" stroke="midnightblue" d="M151.86,-55.22C146.13,-47.63 137.49,-36.18 130.38,-26.76"/>
<polygon fill="midnightblue" stroke="midnightblue" points="133,-24.42 124.19,-18.55 127.42,-28.64 133,-24.42"/>
</g>
<!-- Node4 -->
<g id="node4" class="node">
<title>Node4</title>
<g id="a_node4"><a xlink:title=" ">
<polygon fill="white" stroke="#bfbfbf" points="160.55,-0.5 160.55,-18.5 237.67,-18.5 237.67,-0.5 160.55,-0.5"/>
<text text-anchor="middle" x="199.11" y="-6.5" font-family="Helvetica,sans-Serif" font-size="10.00">fmt/ostream.h</text>
</a>
</g>
</g>
<!-- Node1&#45;&gt;Node4 -->
<g id="edge3" class="edge">
<title>Node1&#45;&gt;Node4</title>
<path fill="none" stroke="midnightblue" d="M164.52,-55.22C170.45,-47.55 179.43,-35.94 186.76,-26.47"/>
<polygon fill="midnightblue" stroke="midnightblue" points="189.53,-28.6 192.88,-18.55 184,-24.32 189.53,-28.6"/>
</g>
<!-- Node5 -->
<g id="node5" class="node">
<title>Node5</title>
<g id="a_node5"><a xlink:title=" ">
<polygon fill="white" stroke="#bfbfbf" points="255.94,-0.5 255.94,-18.5 310.28,-18.5 310.28,-0.5 255.94,-0.5"/>
<text text-anchor="middle" x="283.11" y="-6.5" font-family="Helvetica,sans-Serif" font-size="10.00">iostream</text>
</a>
</g>
</g>
<!-- Node1&#45;&gt;Node5 -->
<g id="edge4" class="edge">
<title>Node1&#45;&gt;Node5</title>
<path fill="none" stroke="midnightblue" d="M177.09,-55.45C197.74,-46.7 230.97,-32.61 254.73,-22.53"/>
<polygon fill="midnightblue" stroke="midnightblue" points="256.11,-25.75 263.95,-18.63 253.37,-19.31 256.11,-25.75"/>
</g>
</g>
</svg>
