<?xml version="1.0" encoding="UTF-8" standalone="no"?>
<!DOCTYPE svg PUBLIC "-//W3C//DTD SVG 1.1//EN"
 "http://www.w3.org/Graphics/SVG/1.1/DTD/svg11.dtd">
<!-- Generated by graphviz version 2.44.0 (20200408.0750)
 -->
<!-- Title: src/Ioss_FaceSet.h Pages: 1 -->
<!--zoomable 162 -->
<svg id="main" version="1.1" xmlns="http://www.w3.org/2000/svg" xmlns:xlink="http://www.w3.org/1999/xlink" xml:space="preserve" onload="init(evt)">
<style type="text/css"><![CDATA[
.edge:hover path { stroke: red; }
.edge:hover polygon { stroke: red; fill: red; }
]]></style>
<script type="text/javascript"><![CDATA[
var edges = document.getElementsByTagName('g');
if (edges && edges.length) {
  for (var i=0;i<edges.length;i++) {
    if (edges[i].id.substr(0,4)=='edge') {
      edges[i].setAttribute('class','edge');
    }
  }
}
]]></script>
        <defs>
                <circle id="rim" cx="0" cy="0" r="7"/>
                <circle id="rim2" cx="0" cy="0" r="3.5"/>
                <g id="zoomPlus">
                        <use xlink:href="#rim" fill="#404040">
                                <set attributeName="fill" to="#808080" begin="zoomplus.mouseover" end="zoomplus.mouseout"/>
                        </use>
                        <path d="M-4,0h8M0,-4v8" fill="none" stroke="white" stroke-width="1.5" pointer-events="none"/>
                </g>
                <g id="zoomMin">
                        <use xlink:href="#rim" fill="#404040">
                                <set attributeName="fill" to="#808080" begin="zoomminus.mouseover" end="zoomminus.mouseout"/>
                        </use>
                        <path d="M-4,0h8" fill="none" stroke="white" stroke-width="1.5" pointer-events="none"/>
                </g>
                <g id="dirArrow">
                        <path fill="none" stroke="white" stroke-width="1.5" d="M0,-3.0v7 M-2.5,-0.5L0,-3.0L2.5,-0.5"/>
                </g>
               <g id="resetDef">
                       <use xlink:href="#rim2" fill="#404040">
                               <set attributeName="fill" to="#808080" begin="reset.mouseover" end="reset.mouseout"/>
                       </use>
               </g>
        </defs>

<script type="text/javascript">
var viewWidth = 1957;
var viewHeight = 162;
var sectionId = 'dynsection-1';
</script>
<script xlink:href="svgpan.js"/>
<svg id="graph" class="graph">
<g id="viewport">
<title>src/Ioss_FaceSet.h</title>
<polygon fill="white" stroke="transparent" points="-4,4 -4,-158 1953,-158 1953,4 -4,4"/>
<!-- Node1 -->
<g id="node1" class="node">
<title>Node1</title>
<g id="a_node1"><a xlink:title=" ">
<polygon fill="#bfbfbf" stroke="black" points="803,-134.5 803,-153.5 905,-153.5 905,-134.5 803,-134.5"/>
<text text-anchor="middle" x="854" y="-141.5" font-family="Helvetica,sans-Serif" font-size="10.00">src/Ioss_FaceSet.h</text>
</a>
</g>
</g>
<!-- Node2 -->
<g id="node2" class="node">
<title>Node2</title>
<g id="a_node2"><a xlink:href="Ioad__DatabaseIO_8C.html" target="_top" xlink:title=" ">
<polygon fill="white" stroke="black" points="0,-73 0,-92 146,-92 146,-73 0,-73"/>
<text text-anchor="middle" x="73" y="-80" font-family="Helvetica,sans-Serif" font-size="10.00">src/adios/Ioad_DatabaseIO.C</text>
</a>
</g>
</g>
<!-- Node1&#45;&gt;Node2 -->
<g id="edge1" class="edge">
<title>Node1&#45;&gt;Node2</title>
<path fill="none" stroke="midnightblue" d="M792.72,-141.09C671.53,-136.87 392.8,-124.88 160,-98 146.61,-96.45 132.15,-94.26 118.93,-92.04"/>
<polygon fill="midnightblue" stroke="midnightblue" points="792.79,-144.6 802.91,-141.44 793.03,-137.6 792.79,-144.6"/>
</g>
<!-- Node3 -->
<g id="node3" class="node">
<title>Node3</title>
<g id="a_node3"><a xlink:href="Ut__ioad_8C.html" target="_top" xlink:title=" ">
<polygon fill="white" stroke="black" points="389.5,-0.5 389.5,-30.5 484.5,-30.5 484.5,-0.5 389.5,-0.5"/>
<text text-anchor="start" x="397.5" y="-18.5" font-family="Helvetica,sans-Serif" font-size="10.00">src/adios/utest/Ut</text>
<text text-anchor="middle" x="437" y="-7.5" font-family="Helvetica,sans-Serif" font-size="10.00">_ioad.C</text>
</a>
</g>
</g>
<!-- Node1&#45;&gt;Node3 -->
<g id="edge2" class="edge">
<title>Node1&#45;&gt;Node3</title>
<path fill="none" stroke="midnightblue" d="M792.59,-143.48C636.39,-144.04 233.42,-141.26 193,-98 134.16,-35.01 302.72,-20.68 389.25,-17.43"/>
<polygon fill="midnightblue" stroke="midnightblue" points="792.98,-146.97 802.96,-143.43 792.95,-139.97 792.98,-146.97"/>
</g>
<!-- Node4 -->
<g id="node4" class="node">
<title>Node4</title>
<g id="a_node4"><a xlink:href="Iocgns__DatabaseIO_8C.html" target="_top" xlink:title=" ">
<polygon fill="white" stroke="black" points="202.5,-73 202.5,-92 357.5,-92 357.5,-73 202.5,-73"/>
<text text-anchor="middle" x="280" y="-80" font-family="Helvetica,sans-Serif" font-size="10.00">src/cgns/Iocgns_DatabaseIO.C</text>
</a>
</g>
</g>
<!-- Node1&#45;&gt;Node4 -->
<g id="edge3" class="edge">
<title>Node1&#45;&gt;Node4</title>
<path fill="none" stroke="midnightblue" d="M792.66,-138.78C700.17,-132.08 519.59,-117.74 367,-98 354.09,-96.33 340.16,-94.17 327.32,-92.03"/>
<polygon fill="midnightblue" stroke="midnightblue" points="792.46,-142.27 802.68,-139.5 792.96,-135.29 792.46,-142.27"/>
</g>
<!-- Node5 -->
<g id="node5" class="node">
<title>Node5</title>
<g id="a_node5"><a xlink:href="Iodw__Utils_8C.html" target="_top" xlink:title=" ">
<polygon fill="white" stroke="black" points="376,-67.5 376,-97.5 480,-97.5 480,-67.5 376,-67.5"/>
<text text-anchor="start" x="384" y="-85.5" font-family="Helvetica,sans-Serif" font-size="10.00">src/data_warehouse</text>
<text text-anchor="middle" x="428" y="-74.5" font-family="Helvetica,sans-Serif" font-size="10.00">/Iodw_Utils.C</text>
</a>
</g>
</g>
<!-- Node1&#45;&gt;Node5 -->
<g id="edge4" class="edge">
<title>Node1&#45;&gt;Node5</title>
<path fill="none" stroke="midnightblue" d="M792.6,-137.52C719.81,-130.55 595.01,-117.07 489,-98 486.11,-97.48 483.15,-96.91 480.16,-96.3"/>
<polygon fill="midnightblue" stroke="midnightblue" points="792.67,-141.05 802.95,-138.51 793.33,-134.08 792.67,-141.05"/>
</g>
<!-- Node6 -->
<g id="node6" class="node">
<title>Node6</title>
<g id="a_node6"><a xlink:href="Ioex__BaseDatabaseIO_8C.html" target="_top" xlink:title=" ">
<polygon fill="white" stroke="black" points="498.5,-73 498.5,-92 675.5,-92 675.5,-73 498.5,-73"/>
<text text-anchor="middle" x="587" y="-80" font-family="Helvetica,sans-Serif" font-size="10.00">src/exodus/Ioex_BaseDatabaseIO.C</text>
</a>
</g>
</g>
<!-- Node1&#45;&gt;Node6 -->
<g id="edge5" class="edge">
<title>Node1&#45;&gt;Node6</title>
<path fill="none" stroke="midnightblue" d="M805.8,-132.26C754,-120.72 672.73,-102.61 625.18,-92.01"/>
<polygon fill="midnightblue" stroke="midnightblue" points="805.22,-135.72 815.75,-134.48 806.75,-128.88 805.22,-135.72"/>
</g>
<!-- Node7 -->
<g id="node7" class="node">
<title>Node7</title>
<g id="a_node7"><a xlink:href="Ioex__DatabaseIO_8C.html" target="_top" xlink:title=" ">
<polygon fill="white" stroke="black" points="693.5,-73 693.5,-92 848.5,-92 848.5,-73 693.5,-73"/>
<text text-anchor="middle" x="771" y="-80" font-family="Helvetica,sans-Serif" font-size="10.00">src/exodus/Ioex_DatabaseIO.C</text>
</a>
</g>
</g>
<!-- Node1&#45;&gt;Node7 -->
<g id="edge6" class="edge">
<title>Node1&#45;&gt;Node7</title>
<path fill="none" stroke="midnightblue" d="M833.93,-128.61C817.97,-117.17 796.17,-101.55 782.87,-92.01"/>
<polygon fill="midnightblue" stroke="midnightblue" points="831.94,-131.49 842.11,-134.48 836.02,-125.8 831.94,-131.49"/>
</g>
<!-- Node8 -->
<g id="node8" class="node">
<title>Node8</title>
<g id="a_node8"><a xlink:href="Ioex__Internals_8C.html" target="_top" xlink:title=" ">
<polygon fill="white" stroke="black" points="867,-73 867,-92 1007,-92 1007,-73 867,-73"/>
<text text-anchor="middle" x="937" y="-80" font-family="Helvetica,sans-Serif" font-size="10.00">src/exodus/Ioex_Internals.C</text>
</a>
</g>
</g>
<!-- Node1&#45;&gt;Node8 -->
<g id="edge7" class="edge">
<title>Node1&#45;&gt;Node8</title>
<path fill="none" stroke="midnightblue" d="M874.07,-128.61C890.03,-117.17 911.83,-101.55 925.13,-92.01"/>
<polygon fill="midnightblue" stroke="midnightblue" points="871.98,-125.8 865.89,-134.48 876.06,-131.49 871.98,-125.8"/>
</g>
<!-- Node9 -->
<g id="node9" class="node">
<title>Node9</title>
<g id="a_node9"><a xlink:href="Ioss__FaceSet_8C.html" target="_top" xlink:title=" ">
<polygon fill="white" stroke="black" points="1025,-73 1025,-92 1129,-92 1129,-73 1025,-73"/>
<text text-anchor="middle" x="1077" y="-80" font-family="Helvetica,sans-Serif" font-size="10.00">src/Ioss_FaceSet.C</text>
</a>
</g>
</g>
<!-- Node1&#45;&gt;Node9 -->
<g id="edge8" class="edge">
<title>Node1&#45;&gt;Node9</title>
<path fill="none" stroke="midnightblue" d="M895.62,-131.9C938.93,-120.34 1005.81,-102.5 1045.11,-92.01"/>
<polygon fill="midnightblue" stroke="midnightblue" points="894.71,-128.52 885.95,-134.48 896.51,-135.28 894.71,-128.52"/>
</g>
<!-- Node10 -->
<g id="node10" class="node">
<title>Node10</title>
<g id="a_node10"><a xlink:href="Ioss__Region_8C.html" target="_top" xlink:title=" ">
<polygon fill="white" stroke="black" points="1147,-73 1147,-92 1245,-92 1245,-73 1147,-73"/>
<text text-anchor="middle" x="1196" y="-80" font-family="Helvetica,sans-Serif" font-size="10.00">src/Ioss_Region.C</text>
</a>
</g>
</g>
<!-- Node1&#45;&gt;Node10 -->
<g id="edge9" class="edge">
<title>Node1&#45;&gt;Node10</title>
<path fill="none" stroke="midnightblue" d="M915.08,-134.9C972.78,-126.88 1061.63,-113.57 1138,-98 1146.44,-96.28 1155.51,-94.15 1163.9,-92.06"/>
<polygon fill="midnightblue" stroke="midnightblue" points="914.46,-131.46 905.03,-136.29 915.42,-138.39 914.46,-131.46"/>
</g>
<!-- Node11 -->
<g id="node11" class="node">
<title>Node11</title>
<g id="a_node11"><a xlink:href="Ioss__SubSystem_8h.html" target="_top" xlink:title=" ">
<polygon fill="white" stroke="black" points="1263,-73 1263,-92 1379,-92 1379,-73 1263,-73"/>
<text text-anchor="middle" x="1321" y="-80" font-family="Helvetica,sans-Serif" font-size="10.00">src/Ioss_SubSystem.h</text>
</a>
</g>
</g>
<!-- Node1&#45;&gt;Node11 -->
<g id="edge10" class="edge">
<title>Node1&#45;&gt;Node11</title>
<path fill="none" stroke="midnightblue" d="M915.28,-138.05C993.99,-131.24 1134.71,-117.57 1254,-98 1263.98,-96.36 1274.72,-94.21 1284.62,-92.07"/>
<polygon fill="midnightblue" stroke="midnightblue" points="914.72,-134.58 905.06,-138.92 915.32,-141.55 914.72,-134.58"/>
</g>
<!-- Node19 -->
<g id="node19" class="node">
<title>Node19</title>
<g id="a_node19"><a xlink:href="io__info_8h.html" target="_top" xlink:title=" ">
<polygon fill="white" stroke="black" points="1556,-73 1556,-92 1650,-92 1650,-73 1556,-73"/>
<text text-anchor="middle" x="1603" y="-80" font-family="Helvetica,sans-Serif" font-size="10.00">src/main/io_info.h</text>
</a>
</g>
</g>
<!-- Node1&#45;&gt;Node19 -->
<g id="edge19" class="edge">
<title>Node1&#45;&gt;Node19</title>
<path fill="none" stroke="midnightblue" d="M915.3,-138.13C1061.05,-126.55 1425.86,-97.57 1555.98,-87.24"/>
<polygon fill="midnightblue" stroke="midnightblue" points="914.88,-134.65 905.19,-138.93 915.43,-141.63 914.88,-134.65"/>
</g>
<!-- Node22 -->
<g id="node22" class="node">
<title>Node22</title>
<g id="a_node22"><a xlink:href="io__modify_8C.html" target="_top" xlink:title=" ">
<polygon fill="white" stroke="black" points="1668,-73 1668,-92 1776,-92 1776,-73 1668,-73"/>
<text text-anchor="middle" x="1722" y="-80" font-family="Helvetica,sans-Serif" font-size="10.00">src/main/io_modify.C</text>
</a>
</g>
</g>
<!-- Node1&#45;&gt;Node22 -->
<g id="edge22" class="edge">
<title>Node1&#45;&gt;Node22</title>
<path fill="none" stroke="midnightblue" d="M915.3,-143.12C1050.36,-142.62 1383.46,-137.12 1659,-98 1669.11,-96.56 1680,-94.32 1689.82,-92.02"/>
<polygon fill="midnightblue" stroke="midnightblue" points="915.14,-139.62 905.15,-143.15 915.17,-146.62 915.14,-139.62"/>
</g>
<!-- Node11&#45;&gt;Node3 -->
<g id="edge11" class="edge">
<title>Node11&#45;&gt;Node3</title>
<path fill="none" stroke="midnightblue" d="M1276.43,-70.87C1268.98,-69.38 1261.29,-68.01 1254,-67 1103.73,-46.22 635.86,-24.98 484.65,-18.49"/>
<polygon fill="midnightblue" stroke="midnightblue" points="1275.9,-74.34 1286.4,-72.97 1277.34,-67.49 1275.9,-74.34"/>
</g>
<!-- Node12 -->
<g id="node12" class="node">
<title>Node12</title>
<g id="a_node12"><a xlink:href="Iodw__DatabaseIO_8C.html" target="_top" xlink:title=" ">
<polygon fill="white" stroke="black" points="765.5,-0.5 765.5,-30.5 874.5,-30.5 874.5,-0.5 765.5,-0.5"/>
<text text-anchor="start" x="773.5" y="-18.5" font-family="Helvetica,sans-Serif" font-size="10.00">src/data_warehouse</text>
<text text-anchor="middle" x="820" y="-7.5" font-family="Helvetica,sans-Serif" font-size="10.00">/Iodw_DatabaseIO.C</text>
</a>
</g>
</g>
<!-- Node11&#45;&gt;Node12 -->
<g id="edge12" class="edge">
<title>Node11&#45;&gt;Node12</title>
<path fill="none" stroke="midnightblue" d="M1275.16,-70.84C1268.1,-69.41 1260.87,-68.07 1254,-67 1090.76,-41.48 1047.11,-57.31 884,-31 880.96,-30.51 877.86,-29.96 874.72,-29.37"/>
<polygon fill="midnightblue" stroke="midnightblue" points="1274.82,-74.35 1285.33,-72.98 1276.26,-67.5 1274.82,-74.35"/>
</g>
<!-- Node13 -->
<g id="node13" class="node">
<title>Node13</title>
<g id="a_node13"><a xlink:href="Ioss__Utils_8C.html" target="_top" xlink:title=" ">
<polygon fill="white" stroke="black" points="893,-6 893,-25 981,-25 981,-6 893,-6"/>
<text text-anchor="middle" x="937" y="-13" font-family="Helvetica,sans-Serif" font-size="10.00">src/Ioss_Utils.C</text>
</a>
</g>
</g>
<!-- Node11&#45;&gt;Node13 -->
<g id="edge13" class="edge">
<title>Node11&#45;&gt;Node13</title>
<path fill="none" stroke="midnightblue" d="M1273.68,-70.78C1267.08,-69.43 1260.38,-68.12 1254,-67 1137.38,-46.46 1106.03,-54.68 990,-31 981.96,-29.36 973.34,-27.19 965.44,-25.02"/>
<polygon fill="midnightblue" stroke="midnightblue" points="1273.38,-74.29 1283.89,-72.93 1274.83,-67.45 1273.38,-74.29"/>
</g>
<!-- Node14 -->
<g id="node14" class="node">
<title>Node14</title>
<g id="a_node14"><a xlink:href="io__shell_8C.html" target="_top" xlink:title=" ">
<polygon fill="white" stroke="black" points="999.5,-6 999.5,-25 1100.5,-25 1100.5,-6 999.5,-6"/>
<text text-anchor="middle" x="1050" y="-13" font-family="Helvetica,sans-Serif" font-size="10.00">src/main/io_shell.C</text>
</a>
</g>
</g>
<!-- Node11&#45;&gt;Node14 -->
<g id="edge14" class="edge">
<title>Node11&#45;&gt;Node14</title>
<path fill="none" stroke="midnightblue" d="M1275.33,-70.6C1232.59,-60.39 1166.96,-44.7 1110,-31 1101.98,-29.07 1093.35,-26.99 1085.21,-25.02"/>
<polygon fill="midnightblue" stroke="midnightblue" points="1274.61,-74.03 1285.15,-72.95 1276.24,-67.22 1274.61,-74.03"/>
</g>
<!-- Node15 -->
<g id="node15" class="node">
<title>Node15</title>
<g id="a_node15"><a xlink:href="io__shell__ts_8C.html" target="_top" xlink:title=" ">
<polygon fill="white" stroke="black" points="1119,-6 1119,-25 1233,-25 1233,-6 1119,-6"/>
<text text-anchor="middle" x="1176" y="-13" font-family="Helvetica,sans-Serif" font-size="10.00">src/main/io_shell_ts.C</text>
</a>
</g>
</g>
<!-- Node11&#45;&gt;Node15 -->
<g id="edge15" class="edge">
<title>Node11&#45;&gt;Node15</title>
<path fill="none" stroke="midnightblue" d="M1292.25,-68.61C1263.53,-55.74 1220.18,-36.31 1195.33,-25.17"/>
<polygon fill="midnightblue" stroke="midnightblue" points="1291.19,-71.97 1301.75,-72.87 1294.05,-65.58 1291.19,-71.97"/>
</g>
<!-- Node16 -->
<g id="node16" class="node">
<title>Node16</title>
<g id="a_node16"><a xlink:href="struc__to__unstruc_8C.html" target="_top" xlink:title=" ">
<polygon fill="white" stroke="black" points="1251,-6 1251,-25 1391,-25 1391,-6 1251,-6"/>
<text text-anchor="middle" x="1321" y="-13" font-family="Helvetica,sans-Serif" font-size="10.00">src/main/struc_to_unstruc.C</text>
</a>
</g>
</g>
<!-- Node11&#45;&gt;Node16 -->
<g id="edge16" class="edge">
<title>Node11&#45;&gt;Node16</title>
<path fill="none" stroke="midnightblue" d="M1321,-62.54C1321,-50.17 1321,-34.62 1321,-25.13"/>
<polygon fill="midnightblue" stroke="midnightblue" points="1317.5,-62.73 1321,-72.73 1324.5,-62.73 1317.5,-62.73"/>
</g>
<!-- Node17 -->
<g id="node17" class="node">
<title>Node17</title>
<g id="a_node17"><a xlink:href="Iopg__DatabaseIO_8C.html" target="_top" xlink:title=" ">
<polygon fill="white" stroke="black" points="1409,-6 1409,-25 1567,-25 1567,-6 1409,-6"/>
<text text-anchor="middle" x="1488" y="-13" font-family="Helvetica,sans-Serif" font-size="10.00">src/pamgen/Iopg_DatabaseIO.C</text>
</a>
</g>
</g>
<!-- Node11&#45;&gt;Node17 -->
<g id="edge17" class="edge">
<title>Node11&#45;&gt;Node17</title>
<path fill="none" stroke="midnightblue" d="M1352.85,-69.1C1386.01,-56.2 1437.06,-36.33 1466,-25.06"/>
<polygon fill="midnightblue" stroke="midnightblue" points="1351.23,-65.98 1343.18,-72.87 1353.76,-72.5 1351.23,-65.98"/>
</g>
<!-- Node18 -->
<g id="node18" class="node">
<title>Node18</title>
<g id="a_node18"><a xlink:href="Iovs__DatabaseIO_8C.html" target="_top" xlink:title=" ">
<polygon fill="white" stroke="black" points="1585.5,-0.5 1585.5,-30.5 1694.5,-30.5 1694.5,-0.5 1585.5,-0.5"/>
<text text-anchor="start" x="1593.5" y="-18.5" font-family="Helvetica,sans-Serif" font-size="10.00">src/visualization/Iovs</text>
<text text-anchor="middle" x="1640" y="-7.5" font-family="Helvetica,sans-Serif" font-size="10.00">_DatabaseIO.C</text>
</a>
</g>
</g>
<!-- Node11&#45;&gt;Node18 -->
<g id="edge18" class="edge">
<title>Node11&#45;&gt;Node18</title>
<path fill="none" stroke="midnightblue" d="M1376.18,-71.02C1427.89,-61.1 1507.3,-45.58 1576,-31 1579.01,-30.36 1582.1,-29.7 1585.21,-29.02"/>
<polygon fill="midnightblue" stroke="midnightblue" points="1375.38,-67.61 1366.22,-72.93 1376.7,-74.49 1375.38,-67.61"/>
</g>
<!-- Node20 -->
<g id="node20" class="node">
<title>Node20</title>
<g id="a_node20"><a xlink:href="io__info_8C.html" target="_top" xlink:title=" ">
<polygon fill="white" stroke="black" points="1713,-6 1713,-25 1809,-25 1809,-6 1713,-6"/>
<text text-anchor="middle" x="1761" y="-13" font-family="Helvetica,sans-Serif" font-size="10.00">src/main/io_info.C</text>
</a>
</g>
</g>
<!-- Node19&#45;&gt;Node20 -->
<g id="edge20" class="edge">
<title>Node19&#45;&gt;Node20</title>
<path fill="none" stroke="midnightblue" d="M1633.51,-68.95C1664.79,-56.08 1712.62,-36.4 1739.93,-25.17"/>
<polygon fill="midnightblue" stroke="midnightblue" points="1631.9,-65.83 1623.98,-72.87 1634.56,-72.3 1631.9,-65.83"/>
</g>
<!-- Node21 -->
<g id="node21" class="node">
<title>Node21</title>
<g id="a_node21"><a xlink:href="io__info__main_8C.html" target="_top" xlink:title=" ">
<polygon fill="white" stroke="black" points="1827,-6 1827,-25 1949,-25 1949,-6 1827,-6"/>
<text text-anchor="middle" x="1888" y="-13" font-family="Helvetica,sans-Serif" font-size="10.00">src/main/io_info_main.C</text>
</a>
</g>
</g>
<!-- Node19&#45;&gt;Node21 -->
<g id="edge21" class="edge">
<title>Node19&#45;&gt;Node21</title>
<path fill="none" stroke="midnightblue" d="M1645.26,-70.38C1649.89,-69.22 1654.54,-68.07 1659,-67 1724.52,-51.3 1801.04,-34.79 1846.94,-25.08"/>
<polygon fill="midnightblue" stroke="midnightblue" points="1644.05,-67.08 1635.23,-72.94 1645.78,-73.86 1644.05,-67.08"/>
</g>
</g>
</svg>
        <g id="navigator" transform="translate(0 0)" fill="#404254">
                <rect fill="#f2f5e9" fill-opacity="0.5" stroke="#606060" stroke-width=".5" x="0" y="0" width="60" height="60"/>
                <use id="zoomplus" xlink:href="#zoomPlus" x="17" y="9" onmousedown="handleZoom(evt,'in')"/>
                <use id="zoomminus" xlink:href="#zoomMin" x="42" y="9" onmousedown="handleZoom(evt,'out')"/>
                <use id="reset" xlink:href="#resetDef" x="30" y="36" onmousedown="handleReset()"/>
                <g id="arrowUp" xlink:href="#dirArrow" transform="translate(30 24)" onmousedown="handlePan(0,-1)">
                  <use xlink:href="#rim" fill="#404040">
                        <set attributeName="fill" to="#808080" begin="arrowUp.mouseover" end="arrowUp.mouseout"/>
                  </use>
                  <path fill="none" stroke="white" stroke-width="1.5" d="M0,-3.0v7 M-2.5,-0.5L0,-3.0L2.5,-0.5"/>
                </g>
                <g id="arrowRight" xlink:href="#dirArrow" transform="rotate(90) translate(36 -43)" onmousedown="handlePan(1,0)">
                  <use xlink:href="#rim" fill="#404040">
                        <set attributeName="fill" to="#808080" begin="arrowRight.mouseover" end="arrowRight.mouseout"/>
                  </use>
                  <path fill="none" stroke="white" stroke-width="1.5" d="M0,-3.0v7 M-2.5,-0.5L0,-3.0L2.5,-0.5"/>
                </g>
                <g id="arrowDown" xlink:href="#dirArrow" transform="rotate(180) translate(-30 -48)" onmousedown="handlePan(0,1)">
                  <use xlink:href="#rim" fill="#404040">
                        <set attributeName="fill" to="#808080" begin="arrowDown.mouseover" end="arrowDown.mouseout"/>
                  </use>
                  <path fill="none" stroke="white" stroke-width="1.5" d="M0,-3.0v7 M-2.5,-0.5L0,-3.0L2.5,-0.5"/>
                </g>
                <g id="arrowLeft" xlink:href="#dirArrow" transform="rotate(270) translate(-36 17)" onmousedown="handlePan(-1,0)">
                  <use xlink:href="#rim" fill="#404040">
                        <set attributeName="fill" to="#808080" begin="arrowLeft.mouseover" end="arrowLeft.mouseout"/>
                  </use>
                  <path fill="none" stroke="white" stroke-width="1.5" d="M0,-3.0v7 M-2.5,-0.5L0,-3.0L2.5,-0.5"/>
                </g>
        </g>
        <svg viewBox="0 0 15 15" width="100%" height="30px" preserveAspectRatio="xMaxYMin meet">
         <g id="arrow_out" transform="scale(0.3 0.3)">
          <a xlink:href="Ioss__FaceSet_8h__dep__incl_org.svg" target="_base">
           <rect id="button" ry="5" rx="5" y="6" x="6" height="38" width="38"
                fill="#f2f5e9" fill-opacity="0.5" stroke="#606060" stroke-width="1.0"/>
           <path id="arrow"
             d="M 11.500037,31.436501 C 11.940474,20.09759 22.043105,11.32322 32.158766,21.979434 L 37.068811,17.246167 C 37.068811,17.246167 37.088388,32 37.088388,32 L 22.160133,31.978069 C 22.160133,31.978069 26.997745,27.140456 26.997745,27.140456 C 18.528582,18.264221 13.291696,25.230495 11.500037,31.436501 z"
             style="fill:#404040;"/>
          </a>
         </g>
        </svg>
</svg>
