<?xml version="1.0" encoding="UTF-8" standalone="no"?>
<!DOCTYPE svg PUBLIC "-//W3C//DTD SVG 1.1//EN"
 "http://www.w3.org/Graphics/SVG/1.1/DTD/svg11.dtd">
<!-- Generated by graphviz version 2.44.1 (20200629.0846)
 -->
<!-- Title: src/Ioss_Hex8.h Pages: 1 -->
<svg width="1884pt" height="162pt"
 viewBox="0.00 0.00 1883.50 162.00" xmlns="http://www.w3.org/2000/svg" xmlns:xlink="http://www.w3.org/1999/xlink">
<g id="graph0" class="graph" transform="scale(1 1) rotate(0) translate(4 158)">
<title>src/Ioss_Hex8.h</title>
<polygon fill="white" stroke="transparent" points="-4,4 -4,-158 1879.5,-158 1879.5,4 -4,4"/>
<!-- Node1 -->
<g id="node1" class="node">
<title>Node1</title>
<g id="a_node1"><a xlink:title=" ">
<polygon fill="#bfbfbf" stroke="black" points="864,-134.5 864,-153.5 953,-153.5 953,-134.5 864,-134.5"/>
<text text-anchor="middle" x="908.5" y="-141.5" font-family="Helvetica,sans-Serif" font-size="10.00">src/Ioss_Hex8.h</text>
</a>
</g>
</g>
<!-- Node2 -->
<g id="node2" class="node">
<title>Node2</title>
<g id="a_node2"><a xlink:href="Iocgns__DatabaseIO_8C.html" target="_top" xlink:title=" ">
<polygon fill="white" stroke="black" points="0,-73 0,-92 155,-92 155,-73 0,-73"/>
<text text-anchor="middle" x="77.5" y="-80" font-family="Helvetica,sans-Serif" font-size="10.00">src/cgns/Iocgns_DatabaseIO.C</text>
</a>
</g>
</g>
<!-- Node1&#45;&gt;Node2 -->
<g id="edge1" class="edge">
<title>Node1&#45;&gt;Node2</title>
<path fill="none" stroke="midnightblue" d="M853.6,-141.65C730.12,-138.17 421.25,-127.08 164.5,-98 150.96,-96.47 136.32,-94.25 122.98,-92"/>
<polygon fill="midnightblue" stroke="midnightblue" points="853.82,-145.15 863.91,-141.93 854.01,-138.16 853.82,-145.15"/>
</g>
<!-- Node3 -->
<g id="node3" class="node">
<title>Node3</title>
<g id="a_node3"><a xlink:href="Iocgns__Utils_8C.html" target="_top" xlink:title=" ">
<polygon fill="white" stroke="black" points="173.5,-73 173.5,-92 295.5,-92 295.5,-73 173.5,-73"/>
<text text-anchor="middle" x="234.5" y="-80" font-family="Helvetica,sans-Serif" font-size="10.00">src/cgns/Iocgns_Utils.C</text>
</a>
</g>
</g>
<!-- Node1&#45;&gt;Node3 -->
<g id="edge2" class="edge">
<title>Node1&#45;&gt;Node3</title>
<path fill="none" stroke="midnightblue" d="M853.8,-141.3C747.5,-137.48 505.8,-126.23 304.5,-98 293.56,-96.47 281.77,-94.25 271.04,-92"/>
<polygon fill="midnightblue" stroke="midnightblue" points="853.84,-144.81 863.96,-141.66 854.09,-137.81 853.84,-144.81"/>
</g>
<!-- Node4 -->
<g id="node4" class="node">
<title>Node4</title>
<g id="a_node4"><a xlink:href="Iogs__GeneratedMesh_8C.html" target="_top" xlink:title=" ">
<polygon fill="white" stroke="black" points="314,-67.5 314,-97.5 415,-97.5 415,-67.5 314,-67.5"/>
<text text-anchor="start" x="322" y="-85.5" font-family="Helvetica,sans-Serif" font-size="10.00">src/gen_struc/Iogs</text>
<text text-anchor="middle" x="364.5" y="-74.5" font-family="Helvetica,sans-Serif" font-size="10.00">_GeneratedMesh.C</text>
</a>
</g>
</g>
<!-- Node1&#45;&gt;Node4 -->
<g id="edge3" class="edge">
<title>Node1&#45;&gt;Node4</title>
<path fill="none" stroke="midnightblue" d="M853.75,-140.57C763.55,-135.98 578.27,-124.05 423.5,-98 420.8,-97.54 418.03,-97.03 415.25,-96.48"/>
<polygon fill="midnightblue" stroke="midnightblue" points="853.58,-144.07 863.75,-141.07 853.93,-137.08 853.58,-144.07"/>
</g>
<!-- Node5 -->
<g id="node5" class="node">
<title>Node5</title>
<g id="a_node5"><a xlink:href="Iogn__DashSurfaceMesh_8h.html" target="_top" xlink:title=" ">
<polygon fill="white" stroke="black" points="433,-67.5 433,-97.5 544,-97.5 544,-67.5 433,-67.5"/>
<text text-anchor="start" x="441" y="-85.5" font-family="Helvetica,sans-Serif" font-size="10.00">src/generated/Iogn</text>
<text text-anchor="middle" x="488.5" y="-74.5" font-family="Helvetica,sans-Serif" font-size="10.00">_DashSurfaceMesh.h</text>
</a>
</g>
</g>
<!-- Node1&#45;&gt;Node5 -->
<g id="edge4" class="edge">
<title>Node1&#45;&gt;Node5</title>
<path fill="none" stroke="midnightblue" d="M853.41,-137.63C783.41,-130.43 659.01,-116.41 553.5,-98 550.42,-97.46 547.28,-96.88 544.1,-96.26"/>
<polygon fill="midnightblue" stroke="midnightblue" points="853.44,-141.15 863.75,-138.68 854.15,-134.19 853.44,-141.15"/>
</g>
<!-- Node7 -->
<g id="node7" class="node">
<title>Node7</title>
<g id="a_node7"><a xlink:href="Iogn__DatabaseIO_8C.html" target="_top" xlink:title=" ">
<polygon fill="white" stroke="black" points="562.5,-67.5 562.5,-97.5 660.5,-97.5 660.5,-67.5 562.5,-67.5"/>
<text text-anchor="start" x="570.5" y="-85.5" font-family="Helvetica,sans-Serif" font-size="10.00">src/generated/Iogn</text>
<text text-anchor="middle" x="611.5" y="-74.5" font-family="Helvetica,sans-Serif" font-size="10.00">_DatabaseIO.C</text>
</a>
</g>
</g>
<!-- Node1&#45;&gt;Node7 -->
<g id="edge6" class="edge">
<title>Node1&#45;&gt;Node7</title>
<path fill="none" stroke="midnightblue" d="M853.87,-133.66C805.31,-125.13 732.46,-111.78 669.5,-98 666.66,-97.38 663.75,-96.72 660.81,-96.04"/>
<polygon fill="midnightblue" stroke="midnightblue" points="853.4,-137.13 863.85,-135.4 854.6,-130.23 853.4,-137.13"/>
</g>
<!-- Node8 -->
<g id="node8" class="node">
<title>Node8</title>
<g id="a_node8"><a xlink:href="Iogn__GeneratedMesh_8C.html" target="_top" xlink:title=" ">
<polygon fill="white" stroke="black" points="679,-67.5 679,-97.5 780,-97.5 780,-67.5 679,-67.5"/>
<text text-anchor="start" x="687" y="-85.5" font-family="Helvetica,sans-Serif" font-size="10.00">src/generated/Iogn</text>
<text text-anchor="middle" x="729.5" y="-74.5" font-family="Helvetica,sans-Serif" font-size="10.00">_GeneratedMesh.C</text>
</a>
</g>
</g>
<!-- Node1&#45;&gt;Node8 -->
<g id="edge7" class="edge">
<title>Node1&#45;&gt;Node8</title>
<path fill="none" stroke="midnightblue" d="M873.09,-131.23C843.94,-121.54 802.55,-107.78 771.69,-97.52"/>
<polygon fill="midnightblue" stroke="midnightblue" points="872.26,-134.64 882.85,-134.48 874.47,-128 872.26,-134.64"/>
</g>
<!-- Node9 -->
<g id="node9" class="node">
<title>Node9</title>
<g id="a_node9"><a xlink:href="Ioss__Hex8_8C.html" target="_top" xlink:title=" ">
<polygon fill="white" stroke="black" points="798,-73 798,-92 889,-92 889,-73 798,-73"/>
<text text-anchor="middle" x="843.5" y="-80" font-family="Helvetica,sans-Serif" font-size="10.00">src/Ioss_Hex8.C</text>
</a>
</g>
</g>
<!-- Node1&#45;&gt;Node9 -->
<g id="edge8" class="edge">
<title>Node1&#45;&gt;Node9</title>
<path fill="none" stroke="midnightblue" d="M891.73,-127.65C879.34,-116.31 862.92,-101.28 852.8,-92.01"/>
<polygon fill="midnightblue" stroke="midnightblue" points="889.45,-130.3 899.19,-134.48 894.17,-125.14 889.45,-130.3"/>
</g>
<!-- Node10 -->
<g id="node10" class="node">
<title>Node10</title>
<g id="a_node10"><a xlink:href="Ioss__StandardElementTypes_8h.html" target="_top" xlink:title=" ">
<polygon fill="white" stroke="black" points="907.5,-67.5 907.5,-97.5 1039.5,-97.5 1039.5,-67.5 907.5,-67.5"/>
<text text-anchor="start" x="915.5" y="-85.5" font-family="Helvetica,sans-Serif" font-size="10.00">src/Ioss_StandardElement</text>
<text text-anchor="middle" x="973.5" y="-74.5" font-family="Helvetica,sans-Serif" font-size="10.00">Types.h</text>
</a>
</g>
</g>
<!-- Node1&#45;&gt;Node10 -->
<g id="edge9" class="edge">
<title>Node1&#45;&gt;Node10</title>
<path fill="none" stroke="midnightblue" d="M925.27,-127.65C935.43,-118.35 948.3,-106.57 958.18,-97.52"/>
<polygon fill="midnightblue" stroke="midnightblue" points="922.83,-125.14 917.81,-134.48 927.55,-130.3 922.83,-125.14"/>
</g>
<!-- Node12 -->
<g id="node12" class="node">
<title>Node12</title>
<g id="a_node12"><a xlink:href="Ioss__StructuredBlock_8C.html" target="_top" xlink:title=" ">
<polygon fill="white" stroke="black" points="1058,-73 1058,-92 1195,-92 1195,-73 1058,-73"/>
<text text-anchor="middle" x="1126.5" y="-80" font-family="Helvetica,sans-Serif" font-size="10.00">src/Ioss_StructuredBlock.C</text>
</a>
</g>
</g>
<!-- Node1&#45;&gt;Node12 -->
<g id="edge11" class="edge">
<title>Node1&#45;&gt;Node12</title>
<path fill="none" stroke="midnightblue" d="M949.45,-131.82C991.8,-120.26 1056.98,-102.47 1095.32,-92.01"/>
<polygon fill="midnightblue" stroke="midnightblue" points="948.46,-128.47 939.73,-134.48 950.3,-135.22 948.46,-128.47"/>
</g>
<!-- Node13 -->
<g id="node13" class="node">
<title>Node13</title>
<g id="a_node13"><a xlink:href="io__info_8C.html" target="_top" xlink:title=" ">
<polygon fill="white" stroke="black" points="1213.5,-73 1213.5,-92 1309.5,-92 1309.5,-73 1213.5,-73"/>
<text text-anchor="middle" x="1261.5" y="-80" font-family="Helvetica,sans-Serif" font-size="10.00">src/main/io_info.C</text>
</a>
</g>
</g>
<!-- Node1&#45;&gt;Node13 -->
<g id="edge12" class="edge">
<title>Node1&#45;&gt;Node13</title>
<path fill="none" stroke="midnightblue" d="M963.07,-136.34C1022.68,-128.68 1120.83,-114.96 1204.5,-98 1212.91,-96.3 1221.93,-94.15 1230.27,-92.03"/>
<polygon fill="midnightblue" stroke="midnightblue" points="962.6,-132.87 953.12,-137.61 963.48,-139.81 962.6,-132.87"/>
</g>
<!-- Node14 -->
<g id="node14" class="node">
<title>Node14</title>
<g id="a_node14"><a xlink:href="shell__to__hex_8C.html" target="_top" xlink:title=" ">
<polygon fill="white" stroke="black" points="1327.5,-73 1327.5,-92 1449.5,-92 1449.5,-73 1327.5,-73"/>
<text text-anchor="middle" x="1388.5" y="-80" font-family="Helvetica,sans-Serif" font-size="10.00">src/main/shell_to_hex.C</text>
</a>
</g>
</g>
<!-- Node1&#45;&gt;Node14 -->
<g id="edge13" class="edge">
<title>Node1&#45;&gt;Node14</title>
<path fill="none" stroke="midnightblue" d="M963.46,-138.64C1042.35,-132 1192.09,-117.98 1318.5,-98 1328.92,-96.35 1340.14,-94.2 1350.47,-92.06"/>
<polygon fill="midnightblue" stroke="midnightblue" points="962.95,-135.17 953.28,-139.49 963.53,-142.14 962.95,-135.17"/>
</g>
<!-- Node15 -->
<g id="node15" class="node">
<title>Node15</title>
<g id="a_node15"><a xlink:href="sphgen_8C.html" target="_top" xlink:title=" ">
<polygon fill="white" stroke="black" points="1468,-73 1468,-92 1567,-92 1567,-73 1468,-73"/>
<text text-anchor="middle" x="1517.5" y="-80" font-family="Helvetica,sans-Serif" font-size="10.00">src/main/sphgen.C</text>
</a>
</g>
</g>
<!-- Node1&#45;&gt;Node15 -->
<g id="edge14" class="edge">
<title>Node1&#45;&gt;Node15</title>
<path fill="none" stroke="midnightblue" d="M963.46,-141.4C1062.84,-137.87 1278.81,-127.24 1458.5,-98 1467.77,-96.49 1477.72,-94.28 1486.76,-92.04"/>
<polygon fill="midnightblue" stroke="midnightblue" points="963.22,-137.91 953.35,-141.75 963.46,-144.9 963.22,-137.91"/>
</g>
<!-- Node16 -->
<g id="node16" class="node">
<title>Node16</title>
<g id="a_node16"><a xlink:href="struc__to__unstruc_8C.html" target="_top" xlink:title=" ">
<polygon fill="white" stroke="black" points="1585.5,-73 1585.5,-92 1725.5,-92 1725.5,-73 1585.5,-73"/>
<text text-anchor="middle" x="1655.5" y="-80" font-family="Helvetica,sans-Serif" font-size="10.00">src/main/struc_to_unstruc.C</text>
</a>
</g>
</g>
<!-- Node1&#45;&gt;Node16 -->
<g id="edge15" class="edge">
<title>Node1&#45;&gt;Node16</title>
<path fill="none" stroke="midnightblue" d="M963.48,-141.42C1077.94,-137.67 1350.01,-126.32 1576.5,-98 1588.68,-96.48 1601.82,-94.29 1613.82,-92.07"/>
<polygon fill="midnightblue" stroke="midnightblue" points="963.11,-137.93 953.23,-141.75 963.34,-144.93 963.11,-137.93"/>
</g>
<!-- Node17 -->
<g id="node17" class="node">
<title>Node17</title>
<g id="a_node17"><a xlink:href="UnitTestIofxDatabaseIO_8C.html" target="_top" xlink:title=" ">
<polygon fill="white" stroke="black" points="1743.5,-67.5 1743.5,-97.5 1875.5,-97.5 1875.5,-67.5 1743.5,-67.5"/>
<text text-anchor="start" x="1751.5" y="-85.5" font-family="Helvetica,sans-Serif" font-size="10.00">src/unit_tests/UnitTestIofx</text>
<text text-anchor="middle" x="1809.5" y="-74.5" font-family="Helvetica,sans-Serif" font-size="10.00">DatabaseIO.C</text>
</a>
</g>
</g>
<!-- Node1&#45;&gt;Node17 -->
<g id="edge16" class="edge">
<title>Node1&#45;&gt;Node17</title>
<path fill="none" stroke="midnightblue" d="M963.32,-142.6C1096.13,-141.05 1445.5,-133.64 1734.5,-98 1737.4,-97.64 1740.35,-97.24 1743.32,-96.8"/>
<polygon fill="midnightblue" stroke="midnightblue" points="962.97,-139.1 953.01,-142.71 963.05,-146.1 962.97,-139.1"/>
</g>
<!-- Node6 -->
<g id="node6" class="node">
<title>Node6</title>
<g id="a_node6"><a xlink:href="Iogn__DashSurfaceMesh_8C.html" target="_top" xlink:title=" ">
<polygon fill="white" stroke="black" points="432,-0.5 432,-30.5 545,-30.5 545,-0.5 432,-0.5"/>
<text text-anchor="start" x="440" y="-18.5" font-family="Helvetica,sans-Serif" font-size="10.00">src/generated/Iogn</text>
<text text-anchor="middle" x="488.5" y="-7.5" font-family="Helvetica,sans-Serif" font-size="10.00">_DashSurfaceMesh.C</text>
</a>
</g>
</g>
<!-- Node5&#45;&gt;Node6 -->
<g id="edge5" class="edge">
<title>Node5&#45;&gt;Node6</title>
<path fill="none" stroke="midnightblue" d="M488.5,-57.11C488.5,-48.15 488.5,-38.32 488.5,-30.58"/>
<polygon fill="midnightblue" stroke="midnightblue" points="485,-57.4 488.5,-67.4 492,-57.4 485,-57.4"/>
</g>
<!-- Node11 -->
<g id="node11" class="node">
<title>Node11</title>
<g id="a_node11"><a xlink:href="Ioss__Initializer_8C.html" target="_top" xlink:title=" ">
<polygon fill="white" stroke="black" points="920.5,-6 920.5,-25 1026.5,-25 1026.5,-6 920.5,-6"/>
<text text-anchor="middle" x="973.5" y="-13" font-family="Helvetica,sans-Serif" font-size="10.00">src/Ioss_Initializer.C</text>
</a>
</g>
</g>
<!-- Node10&#45;&gt;Node11 -->
<g id="edge10" class="edge">
<title>Node10&#45;&gt;Node11</title>
<path fill="none" stroke="midnightblue" d="M973.5,-57.25C973.5,-46.02 973.5,-33.38 973.5,-25.19"/>
<polygon fill="midnightblue" stroke="midnightblue" points="970,-57.4 973.5,-67.4 977,-57.4 970,-57.4"/>
</g>
</g>
</svg>
