<?xml version="1.0" encoding="UTF-8" standalone="no"?>
<!DOCTYPE svg PUBLIC "-//W3C//DTD SVG 1.1//EN"
 "http://www.w3.org/Graphics/SVG/1.1/DTD/svg11.dtd">
<!-- Generated by graphviz version 2.44.1 (20200629.0846)
 -->
<!-- Title: src/Ioss_Tri3.C Pages: 1 -->
<!--zoomable 364 -->
<svg id="main" version="1.1" xmlns="http://www.w3.org/2000/svg" xmlns:xlink="http://www.w3.org/1999/xlink" xml:space="preserve" onload="init(evt)">
<style type="text/css"><![CDATA[
.edge:hover path { stroke: red; }
.edge:hover polygon { stroke: red; fill: red; }
]]></style>
<script type="text/javascript"><![CDATA[
var edges = document.getElementsByTagName('g');
if (edges && edges.length) {
  for (var i=0;i<edges.length;i++) {
    if (edges[i].id.substr(0,4)=='edge') {
      edges[i].setAttribute('class','edge');
    }
  }
}
]]></script>
        <defs>
                <circle id="rim" cx="0" cy="0" r="7"/>
                <circle id="rim2" cx="0" cy="0" r="3.5"/>
                <g id="zoomPlus">
                        <use xlink:href="#rim" fill="#404040">
                                <set attributeName="fill" to="#808080" begin="zoomplus.mouseover" end="zoomplus.mouseout"/>
                        </use>
                        <path d="M-4,0h8M0,-4v8" fill="none" stroke="white" stroke-width="1.5" pointer-events="none"/>
                </g>
                <g id="zoomMin">
                        <use xlink:href="#rim" fill="#404040">
                                <set attributeName="fill" to="#808080" begin="zoomminus.mouseover" end="zoomminus.mouseout"/>
                        </use>
                        <path d="M-4,0h8" fill="none" stroke="white" stroke-width="1.5" pointer-events="none"/>
                </g>
                <g id="dirArrow">
                        <path fill="none" stroke="white" stroke-width="1.5" d="M0,-3.0v7 M-2.5,-0.5L0,-3.0L2.5,-0.5"/>
                </g>
               <g id="resetDef">
                       <use xlink:href="#rim2" fill="#404040">
                               <set attributeName="fill" to="#808080" begin="reset.mouseover" end="reset.mouseout"/>
                       </use>
               </g>
        </defs>

<script type="text/javascript">
var viewWidth = 1152;
var viewHeight = 364;
var sectionId = 'dynsection-0';
</script>
<script xlink:href="svgpan.js"/>
<svg id="graph" class="graph">
<g id="viewport">
<title>src/Ioss_Tri3.C</title>
<polygon fill="white" stroke="transparent" points="-4,4 -4,-360 1147.74,-360 1147.74,4 -4,4"/>
<!-- Node1 -->
<g id="node1" class="node">
<title>Node1</title>
<g id="a_node1"><a xlink:title=" ">
<polygon fill="#bfbfbf" stroke="black" points="234,-336.5 234,-355.5 318,-355.5 318,-336.5 234,-336.5"/>
<text text-anchor="middle" x="276" y="-343.5" font-family="Helvetica,sans-Serif" font-size="10.00">src/Ioss_Tri3.C</text>
</a>
</g>
</g>
<!-- Node2 -->
<g id="node2" class="node">
<title>Node2</title>
<g id="a_node2"><a xlink:href="Ioss__CodeTypes_8h.html" target="_top" xlink:title=" ">
<polygon fill="white" stroke="black" points="183,-56.5 183,-75.5 281,-75.5 281,-56.5 183,-56.5"/>
<text text-anchor="middle" x="232" y="-63.5" font-family="Helvetica,sans-Serif" font-size="10.00">Ioss_CodeTypes.h</text>
</a>
</g>
</g>
<!-- Node1&#45;&gt;Node2 -->
<g id="edge1" class="edge">
<title>Node1&#45;&gt;Node2</title>
<path fill="none" stroke="midnightblue" d="M234,-343.92C165.67,-339.68 38,-320.35 38,-235 38,-235 38,-235 38,-177 38,-114.27 115.71,-86.88 172.76,-75.23"/>
<polygon fill="midnightblue" stroke="midnightblue" points="173.64,-78.62 182.79,-73.29 172.31,-71.75 173.64,-78.62"/>
</g>
<!-- Node4 -->
<g id="node4" class="node">
<title>Node4</title>
<g id="a_node4"><a xlink:title=" ">
<polygon fill="white" stroke="#bfbfbf" points="344.5,-0.5 344.5,-19.5 393.5,-19.5 393.5,-0.5 344.5,-0.5"/>
<text text-anchor="middle" x="369" y="-7.5" font-family="Helvetica,sans-Serif" font-size="10.00">cstddef</text>
</a>
</g>
</g>
<!-- Node1&#45;&gt;Node4 -->
<g id="edge49" class="edge">
<title>Node1&#45;&gt;Node4</title>
<path fill="none" stroke="midnightblue" d="M233.87,-345.1C186.15,-343.38 107.66,-334.85 51,-300 19.72,-280.76 0,-271.72 0,-235 0,-235 0,-235 0,-121 0,-38.45 94.95,-79.78 174,-56 203.68,-47.07 286.7,-28.73 334.3,-18.44"/>
<polygon fill="midnightblue" stroke="midnightblue" points="335.13,-21.84 344.17,-16.31 333.66,-14.99 335.13,-21.84"/>
</g>
<!-- Node10 -->
<g id="node10" class="node">
<title>Node10</title>
<g id="a_node10"><a xlink:href="Ioss__ElementTopology_8h.html" target="_top" xlink:title=" ">
<polygon fill="white" stroke="black" points="256,-112.5 256,-131.5 378,-131.5 378,-112.5 256,-112.5"/>
<text text-anchor="middle" x="317" y="-119.5" font-family="Helvetica,sans-Serif" font-size="10.00">Ioss_ElementTopology.h</text>
</a>
</g>
</g>
<!-- Node1&#45;&gt;Node10 -->
<g id="edge9" class="edge">
<title>Node1&#45;&gt;Node10</title>
<path fill="none" stroke="midnightblue" d="M304.1,-336.48C325.13,-329.14 353.81,-317.03 375,-300 420.57,-263.38 430.98,-245 444,-188 445.98,-179.33 449.13,-175.26 444,-168 430.95,-149.53 409.64,-138.59 388.17,-132.13"/>
<polygon fill="midnightblue" stroke="midnightblue" points="388.89,-128.7 378.32,-129.47 387.06,-135.46 388.89,-128.7"/>
</g>
<!-- Node12 -->
<g id="node12" class="node">
<title>Node12</title>
<g id="a_node12"><a xlink:href="Ioss__ElementVariableType_8h.html" target="_top" xlink:title=" ">
<polygon fill="white" stroke="black" points="226,-280.5 226,-299.5 366,-299.5 366,-280.5 226,-280.5"/>
<text text-anchor="middle" x="296" y="-287.5" font-family="Helvetica,sans-Serif" font-size="10.00">Ioss_ElementVariableType.h</text>
</a>
</g>
</g>
<!-- Node1&#45;&gt;Node12 -->
<g id="edge14" class="edge">
<title>Node1&#45;&gt;Node12</title>
<path fill="none" stroke="midnightblue" d="M279.3,-336.08C281.98,-328.85 285.85,-318.41 289.19,-309.4"/>
<polygon fill="midnightblue" stroke="midnightblue" points="292.57,-310.34 292.76,-299.75 286,-307.91 292.57,-310.34"/>
</g>
<!-- Node18 -->
<g id="node18" class="node">
<title>Node18</title>
<g id="a_node18"><a xlink:title=" ">
<polygon fill="white" stroke="#bfbfbf" points="1062.5,-112.5 1062.5,-131.5 1111.5,-131.5 1111.5,-112.5 1062.5,-112.5"/>
<text text-anchor="middle" x="1087" y="-119.5" font-family="Helvetica,sans-Serif" font-size="10.00">cassert</text>
</a>
</g>
</g>
<!-- Node1&#45;&gt;Node18 -->
<g id="edge48" class="edge">
<title>Node1&#45;&gt;Node18</title>
<path fill="none" stroke="midnightblue" d="M307.3,-336.43C435.39,-301.37 919.23,-168.92 1052.71,-132.39"/>
<polygon fill="midnightblue" stroke="midnightblue" points="1053.7,-135.75 1062.42,-129.73 1051.85,-128.99 1053.7,-135.75"/>
</g>
<!-- Node25 -->
<g id="node25" class="node">
<title>Node25</title>
<g id="a_node25"><a xlink:href="Ioss__Tri3_8h.html" target="_top" xlink:title=" ">
<polygon fill="white" stroke="black" points="104.5,-168.5 104.5,-187.5 169.5,-187.5 169.5,-168.5 104.5,-168.5"/>
<text text-anchor="middle" x="137" y="-175.5" font-family="Helvetica,sans-Serif" font-size="10.00">Ioss_Tri3.h</text>
</a>
</g>
</g>
<!-- Node1&#45;&gt;Node25 -->
<g id="edge45" class="edge">
<title>Node1&#45;&gt;Node25</title>
<path fill="none" stroke="midnightblue" d="M262.31,-336.49C249.63,-328.18 230.72,-314.68 217,-300 186.32,-267.18 159.54,-221.33 146.13,-196.56"/>
<polygon fill="midnightblue" stroke="midnightblue" points="149.16,-194.8 141.38,-187.61 142.98,-198.08 149.16,-194.8"/>
</g>
<!-- Node3 -->
<g id="node3" class="node">
<title>Node3</title>
<g id="a_node3"><a xlink:title=" ">
<polygon fill="white" stroke="#bfbfbf" points="277,-0.5 277,-19.5 315,-19.5 315,-0.5 277,-0.5"/>
<text text-anchor="middle" x="296" y="-7.5" font-family="Helvetica,sans-Serif" font-size="10.00">array</text>
</a>
</g>
</g>
<!-- Node2&#45;&gt;Node3 -->
<g id="edge2" class="edge">
<title>Node2&#45;&gt;Node3</title>
<path fill="none" stroke="midnightblue" d="M242.28,-56.32C251.84,-48.26 266.28,-36.08 277.78,-26.37"/>
<polygon fill="midnightblue" stroke="midnightblue" points="280.14,-28.96 285.53,-19.83 275.63,-23.61 280.14,-28.96"/>
</g>
<!-- Node2&#45;&gt;Node4 -->
<g id="edge3" class="edge">
<title>Node2&#45;&gt;Node4</title>
<path fill="none" stroke="midnightblue" d="M253.71,-56.44C276.35,-47.52 312.07,-33.44 337.75,-23.32"/>
<polygon fill="midnightblue" stroke="midnightblue" points="339.37,-26.44 347.39,-19.52 336.81,-19.93 339.37,-26.44"/>
</g>
<!-- Node5 -->
<g id="node5" class="node">
<title>Node5</title>
<g id="a_node5"><a xlink:title=" ">
<polygon fill="white" stroke="#bfbfbf" points="691,-0.5 691,-19.5 737,-19.5 737,-0.5 691,-0.5"/>
<text text-anchor="middle" x="714" y="-7.5" font-family="Helvetica,sans-Serif" font-size="10.00">cstdint</text>
</a>
</g>
</g>
<!-- Node2&#45;&gt;Node5 -->
<g id="edge4" class="edge">
<title>Node2&#45;&gt;Node5</title>
<path fill="none" stroke="midnightblue" d="M281.02,-57.22C284.06,-56.79 287.07,-56.38 290,-56 435.22,-37.04 609.22,-20.51 680.78,-13.98"/>
<polygon fill="midnightblue" stroke="midnightblue" points="681.33,-17.44 690.97,-13.05 680.7,-10.47 681.33,-17.44"/>
</g>
<!-- Node6 -->
<g id="node6" class="node">
<title>Node6</title>
<g id="a_node6"><a xlink:title=" ">
<polygon fill="white" stroke="#bfbfbf" points="801.5,-0.5 801.5,-19.5 842.5,-19.5 842.5,-0.5 801.5,-0.5"/>
<text text-anchor="middle" x="822" y="-7.5" font-family="Helvetica,sans-Serif" font-size="10.00">string</text>
</a>
</g>
</g>
<!-- Node2&#45;&gt;Node6 -->
<g id="edge5" class="edge">
<title>Node2&#45;&gt;Node6</title>
<path fill="none" stroke="midnightblue" d="M281.01,-57.13C284.05,-56.72 287.06,-56.34 290,-56 491.92,-32.4 543.68,-39.96 746,-20 760.96,-18.52 777.55,-16.59 791.39,-14.9"/>
<polygon fill="midnightblue" stroke="midnightblue" points="791.89,-18.37 801.38,-13.66 791.02,-11.42 791.89,-18.37"/>
</g>
<!-- Node7 -->
<g id="node7" class="node">
<title>Node7</title>
<g id="a_node7"><a xlink:title=" ">
<polygon fill="white" stroke="#bfbfbf" points="491,-0.5 491,-19.5 535,-19.5 535,-0.5 491,-0.5"/>
<text text-anchor="middle" x="513" y="-7.5" font-family="Helvetica,sans-Serif" font-size="10.00">vector</text>
</a>
</g>
</g>
<!-- Node2&#45;&gt;Node7 -->
<g id="edge6" class="edge">
<title>Node2&#45;&gt;Node7</title>
<path fill="none" stroke="midnightblue" d="M276.53,-56.44C333.45,-45.5 430.64,-26.83 480.85,-17.18"/>
<polygon fill="midnightblue" stroke="midnightblue" points="481.66,-20.59 490.82,-15.26 480.34,-13.71 481.66,-20.59"/>
</g>
<!-- Node8 -->
<g id="node8" class="node">
<title>Node8</title>
<g id="a_node8"><a xlink:title=" ">
<polygon fill="white" stroke="#bfbfbf" points="71,-0.5 71,-19.5 187,-19.5 187,-0.5 71,-0.5"/>
<text text-anchor="middle" x="129" y="-7.5" font-family="Helvetica,sans-Serif" font-size="10.00">SEACASIoss_config.h</text>
</a>
</g>
</g>
<!-- Node2&#45;&gt;Node8 -->
<g id="edge7" class="edge">
<title>Node2&#45;&gt;Node8</title>
<path fill="none" stroke="midnightblue" d="M215.45,-56.32C199.01,-47.7 173.57,-34.36 154.53,-24.39"/>
<polygon fill="midnightblue" stroke="midnightblue" points="155.99,-21.2 145.51,-19.65 152.74,-27.4 155.99,-21.2"/>
</g>
<!-- Node9 -->
<g id="node9" class="node">
<title>Node9</title>
<g id="a_node9"><a xlink:title=" ">
<polygon fill="white" stroke="#bfbfbf" points="205.5,-0.5 205.5,-19.5 258.5,-19.5 258.5,-0.5 205.5,-0.5"/>
<text text-anchor="middle" x="232" y="-7.5" font-family="Helvetica,sans-Serif" font-size="10.00">complex</text>
</a>
</g>
</g>
<!-- Node2&#45;&gt;Node9 -->
<g id="edge8" class="edge">
<title>Node2&#45;&gt;Node9</title>
<path fill="none" stroke="midnightblue" d="M232,-56.08C232,-49.01 232,-38.86 232,-29.99"/>
<polygon fill="midnightblue" stroke="midnightblue" points="235.5,-29.75 232,-19.75 228.5,-29.75 235.5,-29.75"/>
</g>
<!-- Node10&#45;&gt;Node2 -->
<g id="edge10" class="edge">
<title>Node10&#45;&gt;Node2</title>
<path fill="none" stroke="midnightblue" d="M303.34,-112.32C290.08,-103.9 269.73,-90.97 254.15,-81.07"/>
<polygon fill="midnightblue" stroke="midnightblue" points="255.94,-78.06 245.62,-75.65 252.19,-83.97 255.94,-78.06"/>
</g>
<!-- Node10&#45;&gt;Node6 -->
<g id="edge12" class="edge">
<title>Node10&#45;&gt;Node6</title>
<path fill="none" stroke="midnightblue" d="M378.35,-115.42C499.06,-104.37 756.5,-80.38 765,-76 785.78,-65.3 802.36,-43.58 812.17,-28.19"/>
<polygon fill="midnightblue" stroke="midnightblue" points="815.2,-29.96 817.38,-19.59 809.21,-26.33 815.2,-29.96"/>
</g>
<!-- Node10&#45;&gt;Node7 -->
<g id="edge13" class="edge">
<title>Node10&#45;&gt;Node7</title>
<path fill="none" stroke="midnightblue" d="M332.38,-112.37C366.37,-93.29 448.1,-47.42 488.94,-24.51"/>
<polygon fill="midnightblue" stroke="midnightblue" points="490.68,-27.54 497.69,-19.59 487.26,-21.43 490.68,-27.54"/>
</g>
<!-- Node11 -->
<g id="node11" class="node">
<title>Node11</title>
<g id="a_node11"><a xlink:title=" ">
<polygon fill="white" stroke="#bfbfbf" points="299.5,-56.5 299.5,-75.5 334.5,-75.5 334.5,-56.5 299.5,-56.5"/>
<text text-anchor="middle" x="317" y="-63.5" font-family="Helvetica,sans-Serif" font-size="10.00">map</text>
</a>
</g>
</g>
<!-- Node10&#45;&gt;Node11 -->
<g id="edge11" class="edge">
<title>Node10&#45;&gt;Node11</title>
<path fill="none" stroke="midnightblue" d="M317,-112.08C317,-105.01 317,-94.86 317,-85.99"/>
<polygon fill="midnightblue" stroke="midnightblue" points="320.5,-85.75 317,-75.75 313.5,-85.75 320.5,-85.75"/>
</g>
<!-- Node12&#45;&gt;Node2 -->
<g id="edge15" class="edge">
<title>Node12&#45;&gt;Node2</title>
<path fill="none" stroke="midnightblue" d="M250.25,-280.47C202.1,-268.79 128.72,-242.68 95,-188 77.67,-159.9 120.19,-118.9 128,-112 145.36,-96.67 168.75,-85.92 188.95,-78.78"/>
<polygon fill="midnightblue" stroke="midnightblue" points="190.2,-82.06 198.57,-75.57 187.98,-75.42 190.2,-82.06"/>
</g>
<!-- Node12&#45;&gt;Node6 -->
<g id="edge44" class="edge">
<title>Node12&#45;&gt;Node6</title>
<path fill="none" stroke="midnightblue" d="M366.3,-288.99C555.83,-287.12 1068.02,-269.28 1140,-132 1151.18,-110.67 1132.79,-63.71 1124,-56 1084.1,-20.99 921.78,-13.22 853.02,-11.49"/>
<polygon fill="midnightblue" stroke="midnightblue" points="852.89,-7.99 842.82,-11.26 852.74,-14.99 852.89,-7.99"/>
</g>
<!-- Node13 -->
<g id="node13" class="node">
<title>Node13</title>
<g id="a_node13"><a xlink:href="Ioss__VariableType_8h.html" target="_top" xlink:title=" ">
<polygon fill="white" stroke="black" points="304,-224.5 304,-243.5 408,-243.5 408,-224.5 304,-224.5"/>
<text text-anchor="middle" x="356" y="-231.5" font-family="Helvetica,sans-Serif" font-size="10.00">Ioss_VariableType.h</text>
</a>
</g>
</g>
<!-- Node12&#45;&gt;Node13 -->
<g id="edge16" class="edge">
<title>Node12&#45;&gt;Node13</title>
<path fill="none" stroke="midnightblue" d="M305.64,-280.32C314.51,-272.34 327.87,-260.31 338.61,-250.65"/>
<polygon fill="midnightblue" stroke="midnightblue" points="341.09,-253.13 346.18,-243.83 336.41,-247.92 341.09,-253.13"/>
</g>
<!-- Node13&#45;&gt;Node2 -->
<g id="edge17" class="edge">
<title>Node13&#45;&gt;Node2</title>
<path fill="none" stroke="midnightblue" d="M327.31,-224.39C307.88,-217.3 282.79,-205.54 266,-188 239.06,-159.85 233.16,-112.1 232.06,-85.78"/>
<polygon fill="midnightblue" stroke="midnightblue" points="235.55,-85.56 231.83,-75.65 228.55,-85.72 235.55,-85.56"/>
</g>
<!-- Node13&#45;&gt;Node6 -->
<g id="edge42" class="edge">
<title>Node13&#45;&gt;Node6</title>
<path fill="none" stroke="midnightblue" d="M408.3,-227.5C419.42,-226.34 431.1,-225.12 442,-224 593.47,-208.42 1022.96,-248.5 1121,-132 1197.31,-41.32 943.08,-17.87 852.69,-12.47"/>
<polygon fill="midnightblue" stroke="midnightblue" points="852.69,-8.97 842.51,-11.9 852.3,-15.96 852.69,-8.97"/>
</g>
<!-- Node13&#45;&gt;Node7 -->
<g id="edge43" class="edge">
<title>Node13&#45;&gt;Node7</title>
<path fill="none" stroke="midnightblue" d="M385.88,-224.44C424.2,-211.6 488.61,-183.21 513,-132 528.82,-98.78 522.99,-54.37 517.73,-29.63"/>
<polygon fill="midnightblue" stroke="midnightblue" points="521.11,-28.71 515.44,-19.77 514.29,-30.3 521.11,-28.71"/>
</g>
<!-- Node13&#45;&gt;Node11 -->
<g id="edge41" class="edge">
<title>Node13&#45;&gt;Node11</title>
<path fill="none" stroke="midnightblue" d="M340.13,-224.42C314.58,-209.56 265.36,-176.33 247,-132 243.6,-123.79 242.74,-119.8 247,-112 256.12,-95.3 274.37,-83.88 289.96,-76.72"/>
<polygon fill="midnightblue" stroke="midnightblue" points="291.36,-79.92 299.21,-72.8 288.63,-73.48 291.36,-79.92"/>
</g>
<!-- Node14 -->
<g id="node14" class="node">
<title>Node14</title>
<g id="a_node14"><a xlink:href="Ioss__Utils_8h.html" target="_top" xlink:title=" ">
<polygon fill="white" stroke="black" points="720.5,-168.5 720.5,-187.5 789.5,-187.5 789.5,-168.5 720.5,-168.5"/>
<text text-anchor="middle" x="755" y="-175.5" font-family="Helvetica,sans-Serif" font-size="10.00">Ioss_Utils.h</text>
</a>
</g>
</g>
<!-- Node13&#45;&gt;Node14 -->
<g id="edge18" class="edge">
<title>Node13&#45;&gt;Node14</title>
<path fill="none" stroke="midnightblue" d="M408.16,-225.94C487.25,-215.24 636.13,-195.09 710.44,-185.03"/>
<polygon fill="midnightblue" stroke="midnightblue" points="710.98,-188.49 720.42,-183.68 710.04,-181.55 710.98,-188.49"/>
</g>
<!-- Node23 -->
<g id="node23" class="node">
<title>Node23</title>
<g id="a_node23"><a xlink:title=" ">
<polygon fill="white" stroke="#bfbfbf" points="312,-168.5 312,-187.5 358,-187.5 358,-168.5 312,-168.5"/>
<text text-anchor="middle" x="335" y="-175.5" font-family="Helvetica,sans-Serif" font-size="10.00">cstring</text>
</a>
</g>
</g>
<!-- Node13&#45;&gt;Node23 -->
<g id="edge39" class="edge">
<title>Node13&#45;&gt;Node23</title>
<path fill="none" stroke="midnightblue" d="M352.53,-224.08C349.69,-216.77 345.57,-206.18 342.04,-197.1"/>
<polygon fill="midnightblue" stroke="midnightblue" points="345.29,-195.8 338.4,-187.75 338.77,-198.34 345.29,-195.8"/>
</g>
<!-- Node24 -->
<g id="node24" class="node">
<title>Node24</title>
<g id="a_node24"><a xlink:title=" ">
<polygon fill="white" stroke="#bfbfbf" points="376.5,-168.5 376.5,-187.5 435.5,-187.5 435.5,-168.5 376.5,-168.5"/>
<text text-anchor="middle" x="406" y="-175.5" font-family="Helvetica,sans-Serif" font-size="10.00">functional</text>
</a>
</g>
</g>
<!-- Node13&#45;&gt;Node24 -->
<g id="edge40" class="edge">
<title>Node13&#45;&gt;Node24</title>
<path fill="none" stroke="midnightblue" d="M364.26,-224.08C371.46,-216.3 382.11,-204.8 390.85,-195.37"/>
<polygon fill="midnightblue" stroke="midnightblue" points="393.67,-197.47 397.9,-187.75 388.53,-192.71 393.67,-197.47"/>
</g>
<!-- Node14&#45;&gt;Node2 -->
<g id="edge19" class="edge">
<title>Node14&#45;&gt;Node2</title>
<path fill="none" stroke="midnightblue" d="M720.21,-176.25C611.39,-173.58 282.61,-162.99 247,-132 234.05,-120.73 231.07,-100.72 230.85,-85.87"/>
<polygon fill="midnightblue" stroke="midnightblue" points="234.35,-85.83 231.11,-75.75 227.36,-85.66 234.35,-85.83"/>
</g>
<!-- Node14&#45;&gt;Node4 -->
<g id="edge32" class="edge">
<title>Node14&#45;&gt;Node4</title>
<path fill="none" stroke="midnightblue" d="M720.37,-176.39C645.45,-174.44 471.33,-166.24 425,-132 391.45,-107.2 377.38,-57.34 371.99,-30"/>
<polygon fill="midnightblue" stroke="midnightblue" points="375.38,-29.04 370.19,-19.8 368.49,-30.26 375.38,-29.04"/>
</g>
<!-- Node14&#45;&gt;Node5 -->
<g id="edge33" class="edge">
<title>Node14&#45;&gt;Node5</title>
<path fill="none" stroke="midnightblue" d="M773.98,-168.4C787.89,-160.95 805.71,-148.74 814,-132 817.94,-124.03 817.13,-120.32 814,-112 799.55,-73.53 761.57,-42.37 736.8,-25.29"/>
<polygon fill="midnightblue" stroke="midnightblue" points="738.6,-22.28 728.34,-19.64 734.72,-28.1 738.6,-22.28"/>
</g>
<!-- Node14&#45;&gt;Node6 -->
<g id="edge37" class="edge">
<title>Node14&#45;&gt;Node6</title>
<path fill="none" stroke="midnightblue" d="M789.81,-176.29C853.9,-174.18 986.6,-165.73 1015,-132 1066.01,-71.4 919.07,-31.56 852.69,-17.09"/>
<polygon fill="midnightblue" stroke="midnightblue" points="853.28,-13.64 842.78,-14.98 851.83,-20.48 853.28,-13.64"/>
</g>
<!-- Node14&#45;&gt;Node7 -->
<g id="edge38" class="edge">
<title>Node14&#45;&gt;Node7</title>
<path fill="none" stroke="midnightblue" d="M759.82,-168.09C766.36,-154.65 775.95,-128.94 764,-112 736.54,-73.05 707.33,-93.48 663,-76 620.07,-59.07 571.15,-37.42 541.18,-23.88"/>
<polygon fill="midnightblue" stroke="midnightblue" points="542.33,-20.56 531.77,-19.62 539.44,-26.93 542.33,-20.56"/>
</g>
<!-- Node15 -->
<g id="node15" class="node">
<title>Node15</title>
<g id="a_node15"><a xlink:href="Ioss__Field_8h.html" target="_top" xlink:title=" ">
<polygon fill="white" stroke="black" points="434,-112.5 434,-131.5 504,-131.5 504,-112.5 434,-112.5"/>
<text text-anchor="middle" x="469" y="-119.5" font-family="Helvetica,sans-Serif" font-size="10.00">Ioss_Field.h</text>
</a>
</g>
</g>
<!-- Node14&#45;&gt;Node15 -->
<g id="edge20" class="edge">
<title>Node14&#45;&gt;Node15</title>
<path fill="none" stroke="midnightblue" d="M720.22,-170.43C668.54,-160.67 571.45,-142.34 514.28,-131.55"/>
<polygon fill="midnightblue" stroke="midnightblue" points="514.91,-128.11 504.44,-129.69 513.61,-134.99 514.91,-128.11"/>
</g>
<!-- Node16 -->
<g id="node16" class="node">
<title>Node16</title>
<g id="a_node16"><a xlink:href="Ioss__Property_8h.html" target="_top" xlink:title=" ">
<polygon fill="white" stroke="black" points="672,-56.5 672,-75.5 756,-75.5 756,-56.5 672,-56.5"/>
<text text-anchor="middle" x="714" y="-63.5" font-family="Helvetica,sans-Serif" font-size="10.00">Ioss_Property.h</text>
</a>
</g>
</g>
<!-- Node14&#45;&gt;Node16 -->
<g id="edge25" class="edge">
<title>Node14&#45;&gt;Node16</title>
<path fill="none" stroke="midnightblue" d="M767.99,-168.33C784.75,-156.02 810.37,-132.66 798,-112 788.85,-96.72 772.54,-86.33 756.71,-79.43"/>
<polygon fill="midnightblue" stroke="midnightblue" points="757.57,-76 746.99,-75.56 754.99,-82.51 757.57,-76"/>
</g>
<!-- Node17 -->
<g id="node17" class="node">
<title>Node17</title>
<g id="a_node17"><a xlink:title=" ">
<polygon fill="white" stroke="#bfbfbf" points="888,-112.5 888,-131.5 944,-131.5 944,-112.5 888,-112.5"/>
<text text-anchor="middle" x="916" y="-119.5" font-family="Helvetica,sans-Serif" font-size="10.00">algorithm</text>
</a>
</g>
</g>
<!-- Node14&#45;&gt;Node17 -->
<g id="edge29" class="edge">
<title>Node14&#45;&gt;Node17</title>
<path fill="none" stroke="midnightblue" d="M780.51,-168.44C807.6,-159.36 850.59,-144.94 880.87,-134.78"/>
<polygon fill="midnightblue" stroke="midnightblue" points="882.24,-138.01 890.61,-131.52 880.01,-131.38 882.24,-138.01"/>
</g>
<!-- Node14&#45;&gt;Node18 -->
<g id="edge30" class="edge">
<title>Node14&#45;&gt;Node18</title>
<path fill="none" stroke="midnightblue" d="M789.87,-172.5C844.93,-165.2 955.25,-149.8 1048,-132 1049.45,-131.72 1050.93,-131.43 1052.42,-131.12"/>
<polygon fill="midnightblue" stroke="midnightblue" points="1053.26,-134.52 1062.3,-128.99 1051.79,-127.68 1053.26,-134.52"/>
</g>
<!-- Node19 -->
<g id="node19" class="node">
<title>Node19</title>
<g id="a_node19"><a xlink:title=" ">
<polygon fill="white" stroke="#bfbfbf" points="962,-112.5 962,-131.5 1006,-131.5 1006,-112.5 962,-112.5"/>
<text text-anchor="middle" x="984" y="-119.5" font-family="Helvetica,sans-Serif" font-size="10.00">cmath</text>
</a>
</g>
</g>
<!-- Node14&#45;&gt;Node19 -->
<g id="edge31" class="edge">
<title>Node14&#45;&gt;Node19</title>
<path fill="none" stroke="midnightblue" d="M789.84,-169.73C827.5,-161.74 889.47,-148.16 951.71,-132.22"/>
<polygon fill="midnightblue" stroke="midnightblue" points="952.88,-135.54 961.69,-129.65 951.13,-128.76 952.88,-135.54"/>
</g>
<!-- Node20 -->
<g id="node20" class="node">
<title>Node20</title>
<g id="a_node20"><a xlink:title=" ">
<polygon fill="white" stroke="#bfbfbf" points="560.5,-112.5 560.5,-131.5 605.5,-131.5 605.5,-112.5 560.5,-112.5"/>
<text text-anchor="middle" x="583" y="-119.5" font-family="Helvetica,sans-Serif" font-size="10.00">cstdlib</text>
</a>
</g>
</g>
<!-- Node14&#45;&gt;Node20 -->
<g id="edge34" class="edge">
<title>Node14&#45;&gt;Node20</title>
<path fill="none" stroke="midnightblue" d="M727.75,-168.44C697.32,-158.89 648.09,-143.44 615.64,-133.25"/>
<polygon fill="midnightblue" stroke="midnightblue" points="616.32,-129.79 605.73,-130.14 614.22,-136.47 616.32,-129.79"/>
</g>
<!-- Node21 -->
<g id="node21" class="node">
<title>Node21</title>
<g id="a_node21"><a xlink:title=" ">
<polygon fill="white" stroke="#bfbfbf" points="624,-112.5 624,-131.5 678,-131.5 678,-112.5 624,-112.5"/>
<text text-anchor="middle" x="651" y="-119.5" font-family="Helvetica,sans-Serif" font-size="10.00">iostream</text>
</a>
</g>
</g>
<!-- Node14&#45;&gt;Node21 -->
<g id="edge35" class="edge">
<title>Node14&#45;&gt;Node21</title>
<path fill="none" stroke="midnightblue" d="M738.29,-168.32C721.69,-159.7 696,-146.36 676.78,-136.39"/>
<polygon fill="midnightblue" stroke="midnightblue" points="678.16,-133.16 667.67,-131.65 674.93,-139.37 678.16,-133.16"/>
</g>
<!-- Node22 -->
<g id="node22" class="node">
<title>Node22</title>
<g id="a_node22"><a xlink:title=" ">
<polygon fill="white" stroke="#bfbfbf" points="696.5,-112.5 696.5,-131.5 755.5,-131.5 755.5,-112.5 696.5,-112.5"/>
<text text-anchor="middle" x="726" y="-119.5" font-family="Helvetica,sans-Serif" font-size="10.00">stdexcept</text>
</a>
</g>
</g>
<!-- Node14&#45;&gt;Node22 -->
<g id="edge36" class="edge">
<title>Node14&#45;&gt;Node22</title>
<path fill="none" stroke="midnightblue" d="M750.21,-168.08C746.24,-160.69 740.47,-149.95 735.57,-140.81"/>
<polygon fill="midnightblue" stroke="midnightblue" points="738.51,-138.91 730.7,-131.75 732.35,-142.22 738.51,-138.91"/>
</g>
<!-- Node15&#45;&gt;Node2 -->
<g id="edge21" class="edge">
<title>Node15&#45;&gt;Node2</title>
<path fill="none" stroke="midnightblue" d="M433.77,-112.97C392.78,-103.63 324.88,-88.16 279.31,-77.78"/>
<polygon fill="midnightblue" stroke="midnightblue" points="279.9,-74.33 269.38,-75.52 278.35,-81.15 279.9,-74.33"/>
</g>
<!-- Node15&#45;&gt;Node4 -->
<g id="edge22" class="edge">
<title>Node15&#45;&gt;Node4</title>
<path fill="none" stroke="midnightblue" d="M461.15,-112.37C444.43,-93.97 405.06,-50.67 383.59,-27.05"/>
<polygon fill="midnightblue" stroke="midnightblue" points="386.13,-24.64 376.81,-19.59 380.95,-29.35 386.13,-24.64"/>
</g>
<!-- Node15&#45;&gt;Node6 -->
<g id="edge23" class="edge">
<title>Node15&#45;&gt;Node6</title>
<path fill="none" stroke="midnightblue" d="M504.3,-117.16C586.89,-108.03 786.61,-85.15 798,-76 811.9,-64.84 817.75,-44.81 820.21,-29.93"/>
<polygon fill="midnightblue" stroke="midnightblue" points="823.71,-30.14 821.51,-19.78 816.77,-29.25 823.71,-30.14"/>
</g>
<!-- Node15&#45;&gt;Node7 -->
<g id="edge24" class="edge">
<title>Node15&#45;&gt;Node7</title>
<path fill="none" stroke="midnightblue" d="M472.45,-112.37C479.62,-94.46 496.23,-52.92 505.82,-28.95"/>
<polygon fill="midnightblue" stroke="midnightblue" points="509.1,-30.18 509.56,-19.59 502.6,-27.58 509.1,-30.18"/>
</g>
<!-- Node16&#45;&gt;Node5 -->
<g id="edge26" class="edge">
<title>Node16&#45;&gt;Node5</title>
<path fill="none" stroke="midnightblue" d="M714,-56.08C714,-49.01 714,-38.86 714,-29.99"/>
<polygon fill="midnightblue" stroke="midnightblue" points="717.5,-29.75 714,-19.75 710.5,-29.75 717.5,-29.75"/>
</g>
<!-- Node16&#45;&gt;Node6 -->
<g id="edge27" class="edge">
<title>Node16&#45;&gt;Node6</title>
<path fill="none" stroke="midnightblue" d="M731.35,-56.32C748.67,-47.66 775.52,-34.24 795.5,-24.25"/>
<polygon fill="midnightblue" stroke="midnightblue" points="797.31,-27.26 804.69,-19.65 794.18,-21 797.31,-27.26"/>
</g>
<!-- Node16&#45;&gt;Node7 -->
<g id="edge28" class="edge">
<title>Node16&#45;&gt;Node7</title>
<path fill="none" stroke="midnightblue" d="M682.15,-56.44C644.61,-46.36 582.59,-29.7 544.99,-19.6"/>
<polygon fill="midnightblue" stroke="midnightblue" points="545.64,-16.15 535.08,-16.93 543.83,-22.91 545.64,-16.15"/>
</g>
<!-- Node25&#45;&gt;Node2 -->
<g id="edge46" class="edge">
<title>Node25&#45;&gt;Node2</title>
<path fill="none" stroke="midnightblue" d="M134.42,-168.18C131.09,-154.85 126.92,-129.29 138,-112 148.04,-96.34 165.17,-86 182.09,-79.23"/>
<polygon fill="midnightblue" stroke="midnightblue" points="183.76,-82.35 191.97,-75.64 181.38,-75.77 183.76,-82.35"/>
</g>
<!-- Node25&#45;&gt;Node10 -->
<g id="edge47" class="edge">
<title>Node25&#45;&gt;Node10</title>
<path fill="none" stroke="midnightblue" d="M165.52,-168.44C196.07,-159.28 244.71,-144.69 278.6,-134.52"/>
<polygon fill="midnightblue" stroke="midnightblue" points="280.04,-137.74 288.61,-131.52 278.03,-131.04 280.04,-137.74"/>
</g>
</g>
</svg>
        <g id="navigator" transform="translate(0 0)" fill="#404254">
                <rect fill="#f2f5e9" fill-opacity="0.5" stroke="#606060" stroke-width=".5" x="0" y="0" width="60" height="60"/>
                <use id="zoomplus" xlink:href="#zoomPlus" x="17" y="9" onmousedown="handleZoom(evt,'in')"/>
                <use id="zoomminus" xlink:href="#zoomMin" x="42" y="9" onmousedown="handleZoom(evt,'out')"/>
                <use id="reset" xlink:href="#resetDef" x="30" y="36" onmousedown="handleReset()"/>
                <g id="arrowUp" xlink:href="#dirArrow" transform="translate(30 24)" onmousedown="handlePan(0,-1)">
                  <use xlink:href="#rim" fill="#404040">
                        <set attributeName="fill" to="#808080" begin="arrowUp.mouseover" end="arrowUp.mouseout"/>
                  </use>
                  <path fill="none" stroke="white" stroke-width="1.5" d="M0,-3.0v7 M-2.5,-0.5L0,-3.0L2.5,-0.5"/>
                </g>
                <g id="arrowRight" xlink:href="#dirArrow" transform="rotate(90) translate(36 -43)" onmousedown="handlePan(1,0)">
                  <use xlink:href="#rim" fill="#404040">
                        <set attributeName="fill" to="#808080" begin="arrowRight.mouseover" end="arrowRight.mouseout"/>
                  </use>
                  <path fill="none" stroke="white" stroke-width="1.5" d="M0,-3.0v7 M-2.5,-0.5L0,-3.0L2.5,-0.5"/>
                </g>
                <g id="arrowDown" xlink:href="#dirArrow" transform="rotate(180) translate(-30 -48)" onmousedown="handlePan(0,1)">
                  <use xlink:href="#rim" fill="#404040">
                        <set attributeName="fill" to="#808080" begin="arrowDown.mouseover" end="arrowDown.mouseout"/>
                  </use>
                  <path fill="none" stroke="white" stroke-width="1.5" d="M0,-3.0v7 M-2.5,-0.5L0,-3.0L2.5,-0.5"/>
                </g>
                <g id="arrowLeft" xlink:href="#dirArrow" transform="rotate(270) translate(-36 17)" onmousedown="handlePan(-1,0)">
                  <use xlink:href="#rim" fill="#404040">
                        <set attributeName="fill" to="#808080" begin="arrowLeft.mouseover" end="arrowLeft.mouseout"/>
                  </use>
                  <path fill="none" stroke="white" stroke-width="1.5" d="M0,-3.0v7 M-2.5,-0.5L0,-3.0L2.5,-0.5"/>
                </g>
        </g>
        <svg viewBox="0 0 15 15" width="100%" height="30px" preserveAspectRatio="xMaxYMin meet">
         <g id="arrow_out" transform="scale(0.3 0.3)">
          <a xlink:href="Ioss__Tri3_8C__incl_org.svg" target="_base">
           <rect id="button" ry="5" rx="5" y="6" x="6" height="38" width="38"
                fill="#f2f5e9" fill-opacity="0.5" stroke="#606060" stroke-width="1.0"/>
           <path id="arrow"
             d="M 11.500037,31.436501 C 11.940474,20.09759 22.043105,11.32322 32.158766,21.979434 L 37.068811,17.246167 C 37.068811,17.246167 37.088388,32 37.088388,32 L 22.160133,31.978069 C 22.160133,31.978069 26.997745,27.140456 26.997745,27.140456 C 18.528582,18.264221 13.291696,25.230495 11.500037,31.436501 z"
             style="fill:#404040;"/>
          </a>
         </g>
        </svg>
</svg>
