<?xml version="1.0" encoding="UTF-8" standalone="no"?>
<!DOCTYPE svg PUBLIC "-//W3C//DTD SVG 1.1//EN"
 "http://www.w3.org/Graphics/SVG/1.1/DTD/svg11.dtd">
<!-- Generated by graphviz version 2.42.3 (20191010.1750)
 -->
<!-- Title: src/Ioss_Node.h Pages: 1 -->
<svg width="388pt" height="147pt"
 viewBox="0.00 0.00 387.88 147.00" xmlns="http://www.w3.org/2000/svg" xmlns:xlink="http://www.w3.org/1999/xlink">
<g id="graph0" class="graph" transform="scale(1 1) rotate(0) translate(4 143)">
<title>src/Ioss_Node.h</title>
<polygon fill="white" stroke="transparent" points="-4,4 -4,-143 383.88,-143 383.88,4 -4,4"/>
<!-- Node1 -->
<g id="node1" class="node">
<title>Node1</title>
<g id="a_node1"><a xlink:title=" ">
<polygon fill="#bfbfbf" stroke="black" points="139.11,-120.5 139.11,-138.5 227.37,-138.5 227.37,-120.5 139.11,-120.5"/>
<text text-anchor="middle" x="183.24" y="-126.5" font-family="Helvetica,sans-Serif" font-size="10.00">src/Ioss_Node.h</text>
</a>
</g>
</g>
<!-- Node2 -->
<g id="node2" class="node">
<title>Node2</title>
<g id="a_node2"><a xlink:href="Iocgns__Utils_8C.html" target="_top" xlink:title=" ">
<polygon fill="white" stroke="black" points="0,-60.5 0,-78.5 120.48,-78.5 120.48,-60.5 0,-60.5"/>
<text text-anchor="middle" x="60.24" y="-66.5" font-family="Helvetica,sans-Serif" font-size="10.00">src/cgns/Iocgns_Utils.C</text>
</a>
</g>
</g>
<!-- Node1&#45;&gt;Node2 -->
<g id="edge1" class="edge">
<title>Node1&#45;&gt;Node2</title>
<path fill="none" stroke="midnightblue" d="M156.91,-116.08C132.94,-104.78 98.25,-88.42 77.59,-78.68"/>
<polygon fill="midnightblue" stroke="midnightblue" points="155.6,-119.34 166.14,-120.44 158.58,-113 155.6,-119.34"/>
</g>
<!-- Node3 -->
<g id="node3" class="node">
<title>Node3</title>
<g id="a_node3"><a xlink:href="Ioss__Node_8C.html" target="_top" xlink:title=" ">
<polygon fill="white" stroke="black" points="138.28,-60.5 138.28,-78.5 228.2,-78.5 228.2,-60.5 138.28,-60.5"/>
<text text-anchor="middle" x="183.24" y="-66.5" font-family="Helvetica,sans-Serif" font-size="10.00">src/Ioss_Node.C</text>
</a>
</g>
</g>
<!-- Node1&#45;&gt;Node3 -->
<g id="edge2" class="edge">
<title>Node1&#45;&gt;Node3</title>
<path fill="none" stroke="midnightblue" d="M183.24,-110.21C183.24,-99.71 183.24,-87.03 183.24,-78.87"/>
<polygon fill="midnightblue" stroke="midnightblue" points="179.74,-110.44 183.24,-120.44 186.74,-110.44 179.74,-110.44"/>
</g>
<!-- Node4 -->
<g id="node4" class="node">
<title>Node4</title>
<g id="a_node4"><a xlink:href="Ioss__StandardElementTypes_8h.html" target="_top" xlink:title=" ">
<polygon fill="white" stroke="black" points="246.6,-55.5 246.6,-83.5 379.88,-83.5 379.88,-55.5 246.6,-55.5"/>
<text text-anchor="start" x="254.6" y="-71.5" font-family="Helvetica,sans-Serif" font-size="10.00">src/Ioss_StandardElement</text>
<text text-anchor="middle" x="313.24" y="-61.5" font-family="Helvetica,sans-Serif" font-size="10.00">Types.h</text>
</a>
</g>
</g>
<!-- Node1&#45;&gt;Node4 -->
<g id="edge3" class="edge">
<title>Node1&#45;&gt;Node4</title>
<path fill="none" stroke="midnightblue" d="M210.53,-116.32C231.99,-106.75 261.84,-93.43 283.83,-83.62"/>
<polygon fill="midnightblue" stroke="midnightblue" points="209.02,-113.16 201.31,-120.44 211.87,-119.56 209.02,-113.16"/>
</g>
<!-- Node5 -->
<g id="node5" class="node">
<title>Node5</title>
<g id="a_node5"><a xlink:href="Ioss__Initializer_8C.html" target="_top" xlink:title=" ">
<polygon fill="white" stroke="black" points="260.78,-0.5 260.78,-18.5 365.7,-18.5 365.7,-0.5 260.78,-0.5"/>
<text text-anchor="middle" x="313.24" y="-6.5" font-family="Helvetica,sans-Serif" font-size="10.00">src/Ioss_Initializer.C</text>
</a>
</g>
</g>
<!-- Node4&#45;&gt;Node5 -->
<g id="edge4" class="edge">
<title>Node4&#45;&gt;Node5</title>
<path fill="none" stroke="midnightblue" d="M313.24,-45.32C313.24,-35.94 313.24,-25.7 313.24,-18.77"/>
<polygon fill="midnightblue" stroke="midnightblue" points="309.74,-45.34 313.24,-55.34 316.74,-45.34 309.74,-45.34"/>
</g>
</g>
</svg>
