<?xml version="1.0" encoding="UTF-8" standalone="no"?>
<!DOCTYPE svg PUBLIC "-//W3C//DTD SVG 1.1//EN"
 "http://www.w3.org/Graphics/SVG/1.1/DTD/svg11.dtd">
<!-- Generated by graphviz version 2.40.1 (20161225.0304)
 -->
<!-- Title: src/Ioss_IOFactory.h Pages: 1 -->
<svg width="3191pt" height="157pt"
 viewBox="0.00 0.00 3190.88 157.00" xmlns="http://www.w3.org/2000/svg" xmlns:xlink="http://www.w3.org/1999/xlink">
<g id="graph0" class="graph" transform="scale(1 1) rotate(0) translate(4 153)">
<title>src/Ioss_IOFactory.h</title>
<polygon fill="#ffffff" stroke="transparent" points="-4,4 -4,-153 3186.8838,-153 3186.8838,4 -4,4"/>
<!-- Node14 -->
<g id="node1" class="node">
<title>Node14</title>
<g id="a_node1"><a xlink:title=" ">
<polygon fill="#bfbfbf" stroke="#000000" points="1749.4448,-130.5 1749.4448,-148.5 1856.9536,-148.5 1856.9536,-130.5 1749.4448,-130.5"/>
<text text-anchor="middle" x="1803.1992" y="-136.5" font-family="Helvetica,sans-Serif" font-size="10.00" fill="#000000">src/Ioss_IOFactory.h</text>
</a>
</g>
</g>
<!-- Node15 -->
<g id="node2" class="node">
<title>Node15</title>
<g id="a_node2"><a xlink:href="Iocgns__DatabaseIO_8C.html" target="_top" xlink:title=" ">
<polygon fill="#ffffff" stroke="#000000" points="0,-5.5 0,-23.5 154.3984,-23.5 154.3984,-5.5 0,-5.5"/>
<text text-anchor="middle" x="77.1992" y="-11.5" font-family="Helvetica,sans-Serif" font-size="10.00" fill="#000000">src/cgns/Iocgns_DatabaseIO.C</text>
</a>
</g>
</g>
<!-- Node14&#45;&gt;Node15 -->
<g id="edge1" class="edge">
<title>Node14&#45;&gt;Node15</title>
<path fill="none" stroke="#191970" d="M1738.8404,-139.2991C1441.199,-138.1725 209.5249,-131.2677 137.1992,-94 107.3792,-78.6345 88.2984,-40.9021 80.8052,-23.5267"/>
<polygon fill="#191970" stroke="#191970" points="1739.018,-142.7997 1749.031,-139.3368 1739.044,-135.7997 1739.018,-142.7997"/>
</g>
<!-- Node16 -->
<g id="node3" class="node">
<title>Node16</title>
<g id="a_node3"><a xlink:href="Iocgns__DatabaseIO_8h.html" target="_top" xlink:title=" ">
<polygon fill="#ffffff" stroke="#000000" points="145.8301,-70.5 145.8301,-88.5 298.5684,-88.5 298.5684,-70.5 145.8301,-70.5"/>
<text text-anchor="middle" x="222.1992" y="-76.5" font-family="Helvetica,sans-Serif" font-size="10.00" fill="#000000">src/cgns/Iocgns_DatabaseIO.h</text>
</a>
</g>
</g>
<!-- Node14&#45;&gt;Node16 -->
<g id="edge2" class="edge">
<title>Node14&#45;&gt;Node16</title>
<path fill="none" stroke="#191970" d="M1738.912,-138.6457C1490.8079,-135.1765 595.4214,-121.0224 312.1992,-94 298.8075,-92.7223 284.3867,-90.6945 271.0966,-88.5556"/>
<polygon fill="#191970" stroke="#191970" points="1739.1509,-142.1492 1749.1986,-138.7885 1739.2482,-135.1499 1739.1509,-142.1492"/>
</g>
<!-- Node17 -->
<g id="node4" class="node">
<title>Node17</title>
<g id="a_node4"><a xlink:href="Iocgns__IOFactory_8C.html" target="_top" xlink:title=" ">
<polygon fill="#ffffff" stroke="#000000" points="172.1025,-5.5 172.1025,-23.5 316.2959,-23.5 316.2959,-5.5 172.1025,-5.5"/>
<text text-anchor="middle" x="244.1992" y="-11.5" font-family="Helvetica,sans-Serif" font-size="10.00" fill="#000000">src/cgns/Iocgns_IOFactory.C</text>
</a>
</g>
</g>
<!-- Node14&#45;&gt;Node17 -->
<g id="edge5" class="edge">
<title>Node14&#45;&gt;Node17</title>
<path fill="none" stroke="#191970" d="M1739.1934,-138.6176C1466.37,-134.7138 411.4648,-118.1153 345.1992,-94 342.5649,-93.0413 281.8038,-44.5787 255.8171,-23.7991"/>
<polygon fill="#191970" stroke="#191970" points="1739.2772,-142.1191 1749.3261,-138.7619 1739.377,-135.1198 1739.2772,-142.1191"/>
</g>
<!-- Node18 -->
<g id="node5" class="node">
<title>Node18</title>
<g id="a_node5"><a xlink:href="Iocgns__IOFactory_8h.html" target="_top" xlink:title=" ">
<polygon fill="#ffffff" stroke="#000000" points="353.9326,-70.5 353.9326,-88.5 496.4658,-88.5 496.4658,-70.5 353.9326,-70.5"/>
<text text-anchor="middle" x="425.1992" y="-76.5" font-family="Helvetica,sans-Serif" font-size="10.00" fill="#000000">src/cgns/Iocgns_IOFactory.h</text>
</a>
</g>
</g>
<!-- Node14&#45;&gt;Node18 -->
<g id="edge6" class="edge">
<title>Node14&#45;&gt;Node18</title>
<path fill="none" stroke="#191970" d="M1739.1757,-138.6475C1555.9795,-135.8849 1014.0132,-125.4548 565.1992,-94 542.8954,-92.4369 518.6502,-90.1387 496.7009,-87.8307"/>
<polygon fill="#191970" stroke="#191970" points="1739.3848,-142.1509 1749.4357,-138.7998 1739.4888,-135.1517 1739.3848,-142.1509"/>
</g>
<!-- Node20 -->
<g id="node7" class="node">
<title>Node20</title>
<g id="a_node7"><a xlink:href="Iocgns__ParallelDatabaseIO_8C.html" target="_top" xlink:title=" ">
<polygon fill="#ffffff" stroke="#000000" points="492.0073,-.5 492.0073,-28.5 616.3911,-28.5 616.3911,-.5 492.0073,-.5"/>
<text text-anchor="start" x="500.0073" y="-16.5" font-family="Helvetica,sans-Serif" font-size="10.00" fill="#000000">src/cgns/Iocgns_Parallel</text>
<text text-anchor="middle" x="554.1992" y="-6.5" font-family="Helvetica,sans-Serif" font-size="10.00" fill="#000000">DatabaseIO.C</text>
</a>
</g>
</g>
<!-- Node14&#45;&gt;Node20 -->
<g id="edge9" class="edge">
<title>Node14&#45;&gt;Node20</title>
<path fill="none" stroke="#191970" d="M1739.0192,-138.8325C1515.7611,-136.2445 781.1276,-125.4068 680.1992,-94 636.4852,-80.3971 592.9861,-47.6001 570.3019,-28.6536"/>
<polygon fill="#191970" stroke="#191970" points="1739.2201,-142.3349 1749.2595,-138.9495 1739.3001,-135.3353 1739.2201,-142.3349"/>
</g>
<!-- Node21 -->
<g id="node8" class="node">
<title>Node21</title>
<g id="a_node8"><a xlink:href="Iocgns__ParallelDatabaseIO_8h.html" target="_top" xlink:title=" ">
<polygon fill="#ffffff" stroke="#000000" points="689.0073,-65.5 689.0073,-93.5 813.3911,-93.5 813.3911,-65.5 689.0073,-65.5"/>
<text text-anchor="start" x="697.0073" y="-81.5" font-family="Helvetica,sans-Serif" font-size="10.00" fill="#000000">src/cgns/Iocgns_Parallel</text>
<text text-anchor="middle" x="751.1992" y="-71.5" font-family="Helvetica,sans-Serif" font-size="10.00" fill="#000000">DatabaseIO.h</text>
</a>
</g>
</g>
<!-- Node14&#45;&gt;Node21 -->
<g id="edge10" class="edge">
<title>Node14&#45;&gt;Node21</title>
<path fill="none" stroke="#191970" d="M1739.128,-136.9324C1593.6471,-130.9409 1227.2532,-114.9406 921.1992,-94 885.5891,-91.5635 845.8371,-88.2081 813.7323,-85.3387"/>
<polygon fill="#191970" stroke="#191970" points="1739.0818,-140.4334 1749.217,-137.3464 1739.3689,-133.4393 1739.0818,-140.4334"/>
</g>
<!-- Node22 -->
<g id="node9" class="node">
<title>Node22</title>
<g id="a_node9"><a xlink:href="Iodw__DatabaseIO_8h.html" target="_top" xlink:title=" ">
<polygon fill="#ffffff" stroke="#000000" points="930.6157,-65.5 930.6157,-93.5 1037.7827,-93.5 1037.7827,-65.5 930.6157,-65.5"/>
<text text-anchor="start" x="938.6157" y="-81.5" font-family="Helvetica,sans-Serif" font-size="10.00" fill="#000000">src/data_warehouse</text>
<text text-anchor="middle" x="984.1992" y="-71.5" font-family="Helvetica,sans-Serif" font-size="10.00" fill="#000000">/Iodw_DatabaseIO.h</text>
</a>
</g>
</g>
<!-- Node14&#45;&gt;Node22 -->
<g id="edge12" class="edge">
<title>Node14&#45;&gt;Node22</title>
<path fill="none" stroke="#191970" d="M1739.2659,-136.8012C1614.9829,-131.243 1332.1861,-117.0688 1095.1992,-94 1076.5331,-92.183 1056.1671,-89.6755 1038.0351,-87.2562"/>
<polygon fill="#191970" stroke="#191970" points="1739.2219,-140.3026 1749.3673,-137.2496 1739.5323,-133.3095 1739.2219,-140.3026"/>
</g>
<!-- Node24 -->
<g id="node11" class="node">
<title>Node24</title>
<g id="a_node11"><a xlink:href="Ioex__IOFactory_8C.html" target="_top" xlink:title=" ">
<polygon fill="#ffffff" stroke="#000000" points="1576.4326,-5.5 1576.4326,-23.5 1723.9658,-23.5 1723.9658,-5.5 1576.4326,-5.5"/>
<text text-anchor="middle" x="1650.1992" y="-11.5" font-family="Helvetica,sans-Serif" font-size="10.00" fill="#000000">src/exo_fac/Ioex_IOFactory.C</text>
</a>
</g>
</g>
<!-- Node14&#45;&gt;Node24 -->
<g id="edge14" class="edge">
<title>Node14&#45;&gt;Node24</title>
<path fill="none" stroke="#191970" d="M1739.034,-134.1159C1656.0325,-126.4906 1520.2367,-111.5077 1505.1992,-94 1474.0542,-57.7387 1544.7582,-35.0163 1598.0025,-23.5605"/>
<polygon fill="#191970" stroke="#191970" points="1738.8564,-137.614 1749.1316,-135.0312 1739.4885,-130.6426 1738.8564,-137.614"/>
</g>
<!-- Node25 -->
<g id="node12" class="node">
<title>Node25</title>
<g id="a_node12"><a xlink:href="Ioex__IOFactory_8h.html" target="_top" xlink:title=" ">
<polygon fill="#ffffff" stroke="#000000" points="1514.2627,-70.5 1514.2627,-88.5 1660.1357,-88.5 1660.1357,-70.5 1514.2627,-70.5"/>
<text text-anchor="middle" x="1587.1992" y="-76.5" font-family="Helvetica,sans-Serif" font-size="10.00" fill="#000000">src/exo_fac/Ioex_IOFactory.h</text>
</a>
</g>
</g>
<!-- Node14&#45;&gt;Node25 -->
<g id="edge15" class="edge">
<title>Node14&#45;&gt;Node25</title>
<path fill="none" stroke="#191970" d="M1760.5919,-127.6646C1719.1672,-116.1578 1657.1576,-98.9329 1619.606,-88.5019"/>
<polygon fill="#191970" stroke="#191970" points="1759.8215,-131.0831 1770.3935,-130.3873 1761.6951,-124.3385 1759.8215,-131.0831"/>
</g>
<!-- Node26 -->
<g id="node13" class="node">
<title>Node26</title>
<g id="a_node13"><a xlink:href="Iogs__DatabaseIO_8C.html" target="_top" xlink:title=" ">
<polygon fill="#ffffff" stroke="#000000" points="1742.3472,-.5 1742.3472,-28.5 1840.0513,-28.5 1840.0513,-.5 1742.3472,-.5"/>
<text text-anchor="start" x="1750.3472" y="-16.5" font-family="Helvetica,sans-Serif" font-size="10.00" fill="#000000">src/gen_struc/Iogs</text>
<text text-anchor="middle" x="1791.1992" y="-6.5" font-family="Helvetica,sans-Serif" font-size="10.00" fill="#000000">_DatabaseIO.C</text>
</a>
</g>
</g>
<!-- Node14&#45;&gt;Node26 -->
<g id="edge17" class="edge">
<title>Node14&#45;&gt;Node26</title>
<path fill="none" stroke="#191970" d="M1751.3166,-127.0221C1734.2871,-120.1966 1717.1836,-109.7812 1707.1992,-94 1700.3081,-83.108 1700.8538,-76.2187 1707.1992,-65 1716.6655,-48.2637 1734.1413,-36.463 1750.7114,-28.5016"/>
<polygon fill="#191970" stroke="#191970" points="1750.1302,-130.3149 1760.7241,-130.456 1752.5305,-123.7392 1750.1302,-130.3149"/>
</g>
<!-- Node27 -->
<g id="node14" class="node">
<title>Node27</title>
<g id="a_node14"><a xlink:href="Iogs__DatabaseIO_8h.html" target="_top" xlink:title=" ">
<polygon fill="#ffffff" stroke="#000000" points="1716.3472,-65.5 1716.3472,-93.5 1814.0513,-93.5 1814.0513,-65.5 1716.3472,-65.5"/>
<text text-anchor="start" x="1724.3472" y="-81.5" font-family="Helvetica,sans-Serif" font-size="10.00" fill="#000000">src/gen_struc/Iogs</text>
<text text-anchor="middle" x="1765.1992" y="-71.5" font-family="Helvetica,sans-Serif" font-size="10.00" fill="#000000">_DatabaseIO.h</text>
</a>
</g>
</g>
<!-- Node14&#45;&gt;Node27 -->
<g id="edge18" class="edge">
<title>Node14&#45;&gt;Node27</title>
<path fill="none" stroke="#191970" d="M1792.0514,-121.8982C1786.3977,-112.9713 1779.6184,-102.2671 1774.2861,-93.8477"/>
<polygon fill="#191970" stroke="#191970" points="1789.1204,-123.8118 1797.4278,-130.3873 1795.0341,-120.0664 1789.1204,-123.8118"/>
</g>
<!-- Node29 -->
<g id="node16" class="node">
<title>Node29</title>
<g id="a_node16"><a xlink:href="Iogn__DatabaseIO_8C.html" target="_top" xlink:title=" ">
<polygon fill="#ffffff" stroke="#000000" points="1858.5049,-.5 1858.5049,-28.5 1957.8936,-28.5 1957.8936,-.5 1858.5049,-.5"/>
<text text-anchor="start" x="1866.5049" y="-16.5" font-family="Helvetica,sans-Serif" font-size="10.00" fill="#000000">src/generated/Iogn</text>
<text text-anchor="middle" x="1908.1992" y="-6.5" font-family="Helvetica,sans-Serif" font-size="10.00" fill="#000000">_DatabaseIO.C</text>
</a>
</g>
</g>
<!-- Node14&#45;&gt;Node29 -->
<g id="edge21" class="edge">
<title>Node14&#45;&gt;Node29</title>
<path fill="none" stroke="#191970" d="M1816.1078,-122.0374C1827.5933,-106.7172 1845.0287,-83.9849 1861.1992,-65 1871.9165,-52.4174 1884.7369,-38.7257 1894.2786,-28.777"/>
<polygon fill="#191970" stroke="#191970" points="1813.256,-120.0069 1810.0874,-130.1168 1818.869,-124.1895 1813.256,-120.0069"/>
</g>
<!-- Node30 -->
<g id="node17" class="node">
<title>Node30</title>
<g id="a_node17"><a xlink:href="Iogn__DatabaseIO_8h.html" target="_top" xlink:title=" ">
<polygon fill="#ffffff" stroke="#000000" points="1870.5049,-65.5 1870.5049,-93.5 1969.8936,-93.5 1969.8936,-65.5 1870.5049,-65.5"/>
<text text-anchor="start" x="1878.5049" y="-81.5" font-family="Helvetica,sans-Serif" font-size="10.00" fill="#000000">src/generated/Iogn</text>
<text text-anchor="middle" x="1920.1992" y="-71.5" font-family="Helvetica,sans-Serif" font-size="10.00" fill="#000000">_DatabaseIO.h</text>
</a>
</g>
</g>
<!-- Node14&#45;&gt;Node30 -->
<g id="edge22" class="edge">
<title>Node14&#45;&gt;Node30</title>
<path fill="none" stroke="#191970" d="M1829.8862,-125.8144C1848.6586,-116.1875 1873.7117,-103.3397 1892.6686,-93.6183"/>
<polygon fill="#191970" stroke="#191970" points="1828.2701,-122.7097 1820.969,-130.3873 1831.4643,-128.9384 1828.2701,-122.7097"/>
</g>
<!-- Node31 -->
<g id="node18" class="node">
<title>Node31</title>
<g id="a_node18"><a xlink:href="Iohb__DatabaseIO_8C.html" target="_top" xlink:title=" ">
<polygon fill="#ffffff" stroke="#000000" points="2114.8965,-.5 2114.8965,-28.5 2211.502,-28.5 2211.502,-.5 2114.8965,-.5"/>
<text text-anchor="start" x="2122.8965" y="-16.5" font-family="Helvetica,sans-Serif" font-size="10.00" fill="#000000">src/heartbeat/Iohb</text>
<text text-anchor="middle" x="2163.1992" y="-6.5" font-family="Helvetica,sans-Serif" font-size="10.00" fill="#000000">_DatabaseIO.C</text>
</a>
</g>
</g>
<!-- Node14&#45;&gt;Node31 -->
<g id="edge25" class="edge">
<title>Node14&#45;&gt;Node31</title>
<path fill="none" stroke="#191970" d="M1867.1832,-137.1152C1978.0177,-132.321 2196.1536,-119.7037 2219.1992,-94 2238.133,-72.8825 2208.099,-45.2439 2185.2133,-28.7377"/>
<polygon fill="#191970" stroke="#191970" points="1866.9686,-133.6211 1857.1259,-137.5415 1867.2651,-140.6148 1866.9686,-133.6211"/>
</g>
<!-- Node32 -->
<g id="node19" class="node">
<title>Node32</title>
<g id="a_node19"><a xlink:href="Iohb__DatabaseIO_8h.html" target="_top" xlink:title=" ">
<polygon fill="#ffffff" stroke="#000000" points="1987.8965,-65.5 1987.8965,-93.5 2084.502,-93.5 2084.502,-65.5 1987.8965,-65.5"/>
<text text-anchor="start" x="1995.8965" y="-81.5" font-family="Helvetica,sans-Serif" font-size="10.00" fill="#000000">src/heartbeat/Iohb</text>
<text text-anchor="middle" x="2036.1992" y="-71.5" font-family="Helvetica,sans-Serif" font-size="10.00" fill="#000000">_DatabaseIO.h</text>
</a>
</g>
</g>
<!-- Node14&#45;&gt;Node32 -->
<g id="edge26" class="edge">
<title>Node14&#45;&gt;Node32</title>
<path fill="none" stroke="#191970" d="M1848.1015,-127.9372C1888.1704,-117.619 1946.6955,-102.5482 1987.796,-91.9643"/>
<polygon fill="#191970" stroke="#191970" points="1847.1452,-124.5692 1838.3339,-130.4524 1848.8909,-131.348 1847.1452,-124.5692"/>
</g>
<!-- Node33 -->
<g id="node20" class="node">
<title>Node33</title>
<g id="a_node20"><a xlink:href="Ioss__FaceGenerator_8C.html" target="_top" xlink:title=" ">
<polygon fill="#ffffff" stroke="#000000" points="2303.8398,-70.5 2303.8398,-88.5 2436.5586,-88.5 2436.5586,-70.5 2303.8398,-70.5"/>
<text text-anchor="middle" x="2370.1992" y="-76.5" font-family="Helvetica,sans-Serif" font-size="10.00" fill="#000000">src/Ioss_FaceGenerator.C</text>
</a>
</g>
</g>
<!-- Node14&#45;&gt;Node33 -->
<g id="edge29" class="edge">
<title>Node14&#45;&gt;Node33</title>
<path fill="none" stroke="#191970" d="M1867.1856,-135.287C1960.4751,-128.7449 2139.1687,-114.7033 2290.1992,-94 2301.2469,-92.4856 2313.0945,-90.525 2324.1962,-88.5379"/>
<polygon fill="#191970" stroke="#191970" points="1866.7932,-131.8057 1857.0601,-135.9911 1867.2789,-138.7889 1866.7932,-131.8057"/>
</g>
<!-- Node34 -->
<g id="node21" class="node">
<title>Node34</title>
<g id="a_node21"><a xlink:href="Ioss__IOFactory_8C.html" target="_top" xlink:title=" ">
<polygon fill="#ffffff" stroke="#000000" points="2454.6147,-70.5 2454.6147,-88.5 2563.7837,-88.5 2563.7837,-70.5 2454.6147,-70.5"/>
<text text-anchor="middle" x="2509.1992" y="-76.5" font-family="Helvetica,sans-Serif" font-size="10.00" fill="#000000">src/Ioss_IOFactory.C</text>
</a>
</g>
</g>
<!-- Node14&#45;&gt;Node34 -->
<g id="edge30" class="edge">
<title>Node14&#45;&gt;Node34</title>
<path fill="none" stroke="#191970" d="M1867.3065,-138.1787C1983.2272,-135.0748 2235.1632,-125.0519 2445.1992,-94 2454.5535,-92.6171 2464.5696,-90.6067 2473.8352,-88.521"/>
<polygon fill="#191970" stroke="#191970" points="1867.0931,-134.6829 1857.1873,-138.4412 1867.2747,-141.6806 1867.0931,-134.6829"/>
</g>
<!-- Node35 -->
<g id="node22" class="node">
<title>Node35</title>
<g id="a_node22"><a xlink:href="Ioss__SubSystem_8h.html" target="_top" xlink:title=" ">
<polygon fill="#ffffff" stroke="#000000" points="1104.458,-70.5 1104.458,-88.5 1219.9404,-88.5 1219.9404,-70.5 1104.458,-70.5"/>
<text text-anchor="middle" x="1162.1992" y="-76.5" font-family="Helvetica,sans-Serif" font-size="10.00" fill="#000000">src/Ioss_SubSystem.h</text>
</a>
</g>
</g>
<!-- Node14&#45;&gt;Node35 -->
<g id="edge31" class="edge">
<title>Node14&#45;&gt;Node35</title>
<path fill="none" stroke="#191970" d="M1739.1223,-134.2881C1642.129,-126.2896 1452.2575,-110.2059 1291.1992,-94 1267.8786,-91.6535 1242.216,-88.8204 1219.963,-86.2834"/>
<polygon fill="#191970" stroke="#191970" points="1739.0956,-137.7976 1749.349,-135.1298 1739.6698,-130.8212 1739.0956,-137.7976"/>
</g>
<!-- Node42 -->
<g id="node29" class="node">
<title>Node42</title>
<g id="a_node29"><a xlink:href="cth__pressure__map_8C.html" target="_top" xlink:title=" ">
<polygon fill="#ffffff" stroke="#000000" points="2582.0146,-65.5 2582.0146,-93.5 2696.3838,-93.5 2696.3838,-65.5 2582.0146,-65.5"/>
<text text-anchor="start" x="2590.0146" y="-81.5" font-family="Helvetica,sans-Serif" font-size="10.00" fill="#000000">src/main/cth_pressure</text>
<text text-anchor="middle" x="2639.1992" y="-71.5" font-family="Helvetica,sans-Serif" font-size="10.00" fill="#000000">_map.C</text>
</a>
</g>
</g>
<!-- Node14&#45;&gt;Node42 -->
<g id="edge39" class="edge">
<title>Node14&#45;&gt;Node42</title>
<path fill="none" stroke="#191970" d="M1867.0858,-137.0215C2026.2501,-130.638 2437.3987,-112.8108 2573.1992,-94 2575.9882,-93.6137 2578.8343,-93.1724 2581.7023,-92.6897"/>
<polygon fill="#191970" stroke="#191970" points="1866.8244,-133.5291 1856.972,-137.4253 1867.1037,-140.5235 1866.8244,-133.5291"/>
</g>
<!-- Node43 -->
<g id="node30" class="node">
<title>Node43</title>
<g id="a_node30"><a xlink:href="io__info_8h.html" target="_top" xlink:title=" ">
<polygon fill="#ffffff" stroke="#000000" points="2714.0146,-70.5 2714.0146,-88.5 2808.3838,-88.5 2808.3838,-70.5 2714.0146,-70.5"/>
<text text-anchor="middle" x="2761.1992" y="-76.5" font-family="Helvetica,sans-Serif" font-size="10.00" fill="#000000">src/main/io_info.h</text>
</a>
</g>
</g>
<!-- Node14&#45;&gt;Node43 -->
<g id="edge40" class="edge">
<title>Node14&#45;&gt;Node43</title>
<path fill="none" stroke="#191970" d="M1867.2767,-137.9586C2045.2912,-133.407 2543.3574,-118.7717 2705.1992,-94 2713.6374,-92.7084 2722.6458,-90.676 2730.9155,-88.5371"/>
<polygon fill="#191970" stroke="#191970" points="1866.9326,-134.4661 1857.0246,-138.2186 1867.1101,-141.4638 1866.9326,-134.4661"/>
</g>
<!-- Node46 -->
<g id="node33" class="node">
<title>Node46</title>
<g id="a_node33"><a xlink:href="shell__to__hex_8C.html" target="_top" xlink:title=" ">
<polygon fill="#ffffff" stroke="#000000" points="2826.8423,-70.5 2826.8423,-88.5 2949.5562,-88.5 2949.5562,-70.5 2826.8423,-70.5"/>
<text text-anchor="middle" x="2888.1992" y="-76.5" font-family="Helvetica,sans-Serif" font-size="10.00" fill="#000000">src/main/shell_to_hex.C</text>
</a>
</g>
</g>
<!-- Node14&#45;&gt;Node46 -->
<g id="edge43" class="edge">
<title>Node14&#45;&gt;Node46</title>
<path fill="none" stroke="#191970" d="M1867.4085,-137.9359C2060.2112,-133.0309 2632.1658,-116.9025 2817.1992,-94 2827.8119,-92.6864 2839.2045,-90.6466 2849.6891,-88.5076"/>
<polygon fill="#191970" stroke="#191970" points="1867.0646,-134.4434 1857.1563,-138.1952 1867.2417,-141.4412 1867.0646,-134.4434"/>
</g>
<!-- Node47 -->
<g id="node34" class="node">
<title>Node47</title>
<g id="a_node34"><a xlink:href="skinner_8C.html" target="_top" xlink:title=" ">
<polygon fill="#ffffff" stroke="#000000" points="2967.0737,-70.5 2967.0737,-88.5 3065.3247,-88.5 3065.3247,-70.5 2967.0737,-70.5"/>
<text text-anchor="middle" x="3016.1992" y="-76.5" font-family="Helvetica,sans-Serif" font-size="10.00" fill="#000000">src/main/skinner.C</text>
</a>
</g>
</g>
<!-- Node14&#45;&gt;Node47 -->
<g id="edge44" class="edge">
<title>Node14&#45;&gt;Node47</title>
<path fill="none" stroke="#191970" d="M1867.247,-138.7099C2077.455,-135.8448 2745.0196,-124.5149 2958.1992,-94 2967.0354,-92.7352 2976.4803,-90.6838 2985.1277,-88.517"/>
<polygon fill="#191970" stroke="#191970" points="1866.9483,-135.2135 1856.9963,-138.8479 1867.0425,-142.2129 1866.9483,-135.2135"/>
</g>
<!-- Node48 -->
<g id="node35" class="node">
<title>Node48</title>
<g id="a_node35"><a xlink:href="sphgen_8C.html" target="_top" xlink:title=" ">
<polygon fill="#ffffff" stroke="#000000" points="3083.5146,-70.5 3083.5146,-88.5 3182.8838,-88.5 3182.8838,-70.5 3083.5146,-70.5"/>
<text text-anchor="middle" x="3133.1992" y="-76.5" font-family="Helvetica,sans-Serif" font-size="10.00" fill="#000000">src/main/sphgen.C</text>
</a>
</g>
</g>
<!-- Node14&#45;&gt;Node48 -->
<g id="edge45" class="edge">
<title>Node14&#45;&gt;Node48</title>
<path fill="none" stroke="#191970" d="M1867.5372,-138.9413C2091.6781,-136.7225 2837.3987,-126.9804 3074.1992,-94 3083.1837,-92.7487 3092.7901,-90.7017 3101.5866,-88.5349"/>
<polygon fill="#191970" stroke="#191970" points="1867.2277,-135.4441 1857.2622,-139.0414 1867.2959,-142.4438 1867.2277,-135.4441"/>
</g>
<!-- Node49 -->
<g id="node36" class="node">
<title>Node49</title>
<g id="a_node36"><a xlink:href="Iopg__DatabaseIO_8h.html" target="_top" xlink:title=" ">
<polygon fill="#ffffff" stroke="#000000" points="1300.3228,-70.5 1300.3228,-88.5 1458.0757,-88.5 1458.0757,-70.5 1300.3228,-70.5"/>
<text text-anchor="middle" x="1379.1992" y="-76.5" font-family="Helvetica,sans-Serif" font-size="10.00" fill="#000000">src/pamgen/Iopg_DatabaseIO.h</text>
</a>
</g>
</g>
<!-- Node14&#45;&gt;Node49 -->
<g id="edge46" class="edge">
<title>Node14&#45;&gt;Node49</title>
<path fill="none" stroke="#191970" d="M1739.3243,-131.0677C1672.6263,-122.1811 1565.001,-107.6118 1472.1992,-94 1460.5583,-92.2926 1448.109,-90.3986 1436.2268,-88.5581"/>
<polygon fill="#191970" stroke="#191970" points="1738.8906,-134.5407 1749.2649,-132.3904 1739.814,-127.6019 1738.8906,-134.5407"/>
</g>
<!-- Node50 -->
<g id="node37" class="node">
<title>Node50</title>
<g id="a_node37"><a xlink:href="Iovs__IOFactory_8C.html" target="_top" xlink:title=" ">
<polygon fill="#ffffff" stroke="#000000" points="2229.3496,-.5 2229.3496,-28.5 2337.0488,-28.5 2337.0488,-.5 2229.3496,-.5"/>
<text text-anchor="start" x="2237.3496" y="-16.5" font-family="Helvetica,sans-Serif" font-size="10.00" fill="#000000">src/visualization/Iovs</text>
<text text-anchor="middle" x="2283.1992" y="-6.5" font-family="Helvetica,sans-Serif" font-size="10.00" fill="#000000">_IOFactory.C</text>
</a>
</g>
</g>
<!-- Node14&#45;&gt;Node50 -->
<g id="edge48" class="edge">
<title>Node14&#45;&gt;Node50</title>
<path fill="none" stroke="#191970" d="M1867.2602,-135.9394C1980.2324,-129.1966 2205.8606,-113.4798 2236.1992,-94 2259.8101,-78.8399 2273.1036,-47.2561 2279.1521,-28.7872"/>
<polygon fill="#191970" stroke="#191970" points="1866.7946,-132.4607 1857.0185,-136.5445 1867.2076,-139.4485 1866.7946,-132.4607"/>
</g>
<!-- Node51 -->
<g id="node38" class="node">
<title>Node51</title>
<g id="a_node38"><a xlink:href="Iovs__IOFactory_8h.html" target="_top" xlink:title=" ">
<polygon fill="#ffffff" stroke="#000000" points="2102.3496,-65.5 2102.3496,-93.5 2210.0488,-93.5 2210.0488,-65.5 2102.3496,-65.5"/>
<text text-anchor="start" x="2110.3496" y="-81.5" font-family="Helvetica,sans-Serif" font-size="10.00" fill="#000000">src/visualization/Iovs</text>
<text text-anchor="middle" x="2156.1992" y="-71.5" font-family="Helvetica,sans-Serif" font-size="10.00" fill="#000000">_IOFactory.h</text>
</a>
</g>
</g>
<!-- Node14&#45;&gt;Node51 -->
<g id="edge49" class="edge">
<title>Node14&#45;&gt;Node51</title>
<path fill="none" stroke="#191970" d="M1867.0181,-130.8082C1925.9277,-122.4723 2015.7443,-108.9703 2093.1992,-94 2096.1745,-93.4249 2099.223,-92.8099 2102.2961,-92.1697"/>
<polygon fill="#191970" stroke="#191970" points="1866.5274,-127.3427 1857.1128,-132.2024 1867.5031,-134.2744 1866.5274,-127.3427"/>
</g>
<!-- Node16&#45;&gt;Node15 -->
<g id="edge3" class="edge">
<title>Node16&#45;&gt;Node15</title>
<path fill="none" stroke="#191970" d="M192.6517,-66.2545C164.365,-53.5743 122.4363,-34.7787 97.6571,-23.6708"/>
<polygon fill="#191970" stroke="#191970" points="191.4808,-69.5652 202.0376,-70.462 194.3442,-63.1776 191.4808,-69.5652"/>
</g>
<!-- Node16&#45;&gt;Node17 -->
<g id="edge4" class="edge">
<title>Node16&#45;&gt;Node17</title>
<path fill="none" stroke="#191970" d="M228.507,-60.8634C232.6015,-48.7661 237.7633,-33.5151 241.0237,-23.8821"/>
<polygon fill="#191970" stroke="#191970" points="225.149,-59.8678 225.2582,-70.462 231.7795,-62.112 225.149,-59.8678"/>
</g>
<!-- Node18&#45;&gt;Node17 -->
<g id="edge8" class="edge">
<title>Node18&#45;&gt;Node17</title>
<path fill="none" stroke="#191970" d="M390.5757,-67.0661C355.1641,-54.3493 301.0009,-34.8984 269.4439,-23.5658"/>
<polygon fill="#191970" stroke="#191970" points="389.4375,-70.3762 400.0319,-70.462 391.8034,-63.7881 389.4375,-70.3762"/>
</g>
<!-- Node19 -->
<g id="node6" class="node">
<title>Node19</title>
<g id="a_node6"><a xlink:href="Iocgns__Initializer_8C.html" target="_top" xlink:title=" ">
<polygon fill="#ffffff" stroke="#000000" points="334.2266,-5.5 334.2266,-23.5 474.1719,-23.5 474.1719,-5.5 334.2266,-5.5"/>
<text text-anchor="middle" x="404.1992" y="-11.5" font-family="Helvetica,sans-Serif" font-size="10.00" fill="#000000">src/cgns/Iocgns_Initializer.C</text>
</a>
</g>
</g>
<!-- Node18&#45;&gt;Node19 -->
<g id="edge7" class="edge">
<title>Node18&#45;&gt;Node19</title>
<path fill="none" stroke="#191970" d="M419.1782,-60.8634C415.2698,-48.7661 410.3426,-33.5151 407.2304,-23.8821"/>
<polygon fill="#191970" stroke="#191970" points="415.8744,-62.0223 422.2793,-70.462 422.5354,-59.8703 415.8744,-62.0223"/>
</g>
<!-- Node21&#45;&gt;Node20 -->
<g id="edge11" class="edge">
<title>Node21&#45;&gt;Node20</title>
<path fill="none" stroke="#191970" d="M698.8511,-62.2278C666.9835,-51.7131 626.7885,-38.4508 596.8619,-28.5765"/>
<polygon fill="#191970" stroke="#191970" points="697.86,-65.5863 708.4532,-65.396 700.0534,-58.9388 697.86,-65.5863"/>
</g>
<!-- Node23 -->
<g id="node10" class="node">
<title>Node23</title>
<g id="a_node10"><a xlink:href="Iodw__DatabaseIO_8C.html" target="_top" xlink:title=" ">
<polygon fill="#ffffff" stroke="#000000" points="634.7856,-.5 634.7856,-28.5 743.6128,-28.5 743.6128,-.5 634.7856,-.5"/>
<text text-anchor="start" x="642.7856" y="-16.5" font-family="Helvetica,sans-Serif" font-size="10.00" fill="#000000">src/data_warehouse</text>
<text text-anchor="middle" x="689.1992" y="-6.5" font-family="Helvetica,sans-Serif" font-size="10.00" fill="#000000">/Iodw_DatabaseIO.C</text>
</a>
</g>
</g>
<!-- Node22&#45;&gt;Node23 -->
<g id="edge13" class="edge">
<title>Node22&#45;&gt;Node23</title>
<path fill="none" stroke="#191970" d="M920.2888,-65.8022C873.6672,-55.7579 808.9741,-41.7123 752.1992,-29 749.4612,-28.3869 746.657,-27.7553 743.8259,-27.1146"/>
<polygon fill="#191970" stroke="#191970" points="919.7366,-69.2635 930.2493,-67.9465 921.2099,-62.4202 919.7366,-69.2635"/>
</g>
<!-- Node25&#45;&gt;Node24 -->
<g id="edge16" class="edge">
<title>Node25&#45;&gt;Node24</title>
<path fill="none" stroke="#191970" d="M1603.1661,-63.0262C1615.1757,-50.6354 1631.2033,-34.0989 1641.1058,-23.8821"/>
<polygon fill="#191970" stroke="#191970" points="1600.4056,-60.8454 1595.9591,-70.462 1605.4321,-65.7172 1600.4056,-60.8454"/>
</g>
<!-- Node27&#45;&gt;Node26 -->
<g id="edge19" class="edge">
<title>Node27&#45;&gt;Node26</title>
<path fill="none" stroke="#191970" d="M1774.603,-55.9907C1778.2774,-46.8044 1782.368,-36.5781 1785.5686,-28.5765"/>
<polygon fill="#191970" stroke="#191970" points="1771.3051,-54.8113 1770.8408,-65.396 1777.8045,-57.4111 1771.3051,-54.8113"/>
</g>
<!-- Node28 -->
<g id="node15" class="node">
<title>Node28</title>
<g id="a_node15"><a xlink:href="Ionit__Initializer_8C.html" target="_top" xlink:title=" ">
<polygon fill="#ffffff" stroke="#000000" points="1975.6772,-5.5 1975.6772,-23.5 2096.7212,-23.5 2096.7212,-5.5 1975.6772,-5.5"/>
<text text-anchor="middle" x="2036.1992" y="-11.5" font-family="Helvetica,sans-Serif" font-size="10.00" fill="#000000">src/init/Ionit_Initializer.C</text>
</a>
</g>
</g>
<!-- Node27&#45;&gt;Node28 -->
<g id="edge20" class="edge">
<title>Node27&#45;&gt;Node28</title>
<path fill="none" stroke="#191970" d="M1824.2066,-65.3469C1877.1397,-52.6508 1953.2346,-34.3993 1998.4009,-23.566"/>
<polygon fill="#191970" stroke="#191970" points="1823.1831,-61.9931 1814.2753,-67.729 1824.8158,-68.8 1823.1831,-61.9931"/>
</g>
<!-- Node30&#45;&gt;Node28 -->
<g id="edge24" class="edge">
<title>Node30&#45;&gt;Node28</title>
<path fill="none" stroke="#191970" d="M1954.287,-60.3991C1975.9728,-48.2475 2003.0652,-33.0665 2020.0051,-23.5743"/>
<polygon fill="#191970" stroke="#191970" points="1952.3824,-57.4543 1945.3695,-65.396 1955.8042,-63.5609 1952.3824,-57.4543"/>
</g>
<!-- Node30&#45;&gt;Node29 -->
<g id="edge23" class="edge">
<title>Node30&#45;&gt;Node29</title>
<path fill="none" stroke="#191970" d="M1915.7505,-55.4029C1914.083,-46.3703 1912.2437,-36.4078 1910.798,-28.5765"/>
<polygon fill="#191970" stroke="#191970" points="1912.338,-56.1976 1917.5954,-65.396 1919.2217,-54.9267 1912.338,-56.1976"/>
</g>
<!-- Node32&#45;&gt;Node28 -->
<g id="edge28" class="edge">
<title>Node32&#45;&gt;Node28</title>
<path fill="none" stroke="#191970" d="M2036.1992,-55.3747C2036.1992,-44.2832 2036.1992,-31.7952 2036.1992,-23.5743"/>
<polygon fill="#191970" stroke="#191970" points="2032.6993,-55.3959 2036.1992,-65.396 2039.6993,-55.396 2032.6993,-55.3959"/>
</g>
<!-- Node32&#45;&gt;Node31 -->
<g id="edge27" class="edge">
<title>Node32&#45;&gt;Node31</title>
<path fill="none" stroke="#191970" d="M2072.9036,-60.7143C2092.9329,-50.4631 2117.3178,-37.9826 2135.6959,-28.5765"/>
<polygon fill="#191970" stroke="#191970" points="2071.0635,-57.7242 2063.7563,-65.396 2074.2528,-63.9555 2071.0635,-57.7242"/>
</g>
<!-- Node35&#45;&gt;Node23 -->
<g id="edge32" class="edge">
<title>Node35&#45;&gt;Node23</title>
<path fill="none" stroke="#191970" d="M1094.2741,-70.8899C1078.802,-68.9413 1062.4343,-66.8901 1047.1992,-65 916.1203,-48.7384 882.2925,-51.8442 752.1992,-29 749.4356,-28.5147 746.611,-27.9859 743.7636,-27.4268"/>
<polygon fill="#191970" stroke="#191970" points="1093.932,-74.3744 1104.2913,-72.1528 1094.8077,-67.4293 1093.932,-74.3744"/>
</g>
<!-- Node36 -->
<g id="node23" class="node">
<title>Node36</title>
<g id="a_node23"><a xlink:href="Ioss__Utils_8C.html" target="_top" xlink:title=" ">
<polygon fill="#ffffff" stroke="#000000" points="1177.4727,-5.5 1177.4727,-23.5 1262.9258,-23.5 1262.9258,-5.5 1177.4727,-5.5"/>
<text text-anchor="middle" x="1220.1992" y="-11.5" font-family="Helvetica,sans-Serif" font-size="10.00" fill="#000000">src/Ioss_Utils.C</text>
</a>
</g>
</g>
<!-- Node35&#45;&gt;Node36 -->
<g id="edge33" class="edge">
<title>Node35&#45;&gt;Node36</title>
<path fill="none" stroke="#191970" d="M1177.2158,-62.6711C1188.2359,-50.321 1202.7978,-34.0016 1211.8275,-23.8821"/>
<polygon fill="#191970" stroke="#191970" points="1174.3103,-60.6703 1170.2639,-70.462 1179.5333,-65.3309 1174.3103,-60.6703"/>
</g>
<!-- Node37 -->
<g id="node24" class="node">
<title>Node37</title>
<g id="a_node24"><a xlink:href="io__shell_8C.html" target="_top" xlink:title=" ">
<polygon fill="#ffffff" stroke="#000000" points="1280.9629,-5.5 1280.9629,-23.5 1381.4355,-23.5 1381.4355,-5.5 1280.9629,-5.5"/>
<text text-anchor="middle" x="1331.1992" y="-11.5" font-family="Helvetica,sans-Serif" font-size="10.00" fill="#000000">src/main/io_shell.C</text>
</a>
</g>
</g>
<!-- Node35&#45;&gt;Node37 -->
<g id="edge34" class="edge">
<title>Node35&#45;&gt;Node37</title>
<path fill="none" stroke="#191970" d="M1195.3789,-66.7386C1228.454,-54.0174 1278.4153,-34.8015 1307.6283,-23.5658"/>
<polygon fill="#191970" stroke="#191970" points="1193.775,-63.6055 1185.6979,-70.462 1196.2879,-70.1389 1193.775,-63.6055"/>
</g>
<!-- Node38 -->
<g id="node25" class="node">
<title>Node38</title>
<g id="a_node25"><a xlink:href="io__shell__ts_8C.html" target="_top" xlink:title=" ">
<polygon fill="#ffffff" stroke="#000000" points="761.293,-5.5 761.293,-23.5 875.1055,-23.5 875.1055,-5.5 761.293,-5.5"/>
<text text-anchor="middle" x="818.1992" y="-11.5" font-family="Helvetica,sans-Serif" font-size="10.00" fill="#000000">src/main/io_shell_ts.C</text>
</a>
</g>
</g>
<!-- Node35&#45;&gt;Node38 -->
<g id="edge35" class="edge">
<title>Node35&#45;&gt;Node38</title>
<path fill="none" stroke="#191970" d="M1099.1168,-68.7182C1042.6889,-58.9127 957.7751,-43.7598 884.1992,-29 875.8024,-27.3156 866.8277,-25.4127 858.2874,-23.553"/>
<polygon fill="#191970" stroke="#191970" points="1098.8616,-72.2261 1109.3125,-70.4856 1100.0572,-65.329 1098.8616,-72.2261"/>
</g>
<!-- Node39 -->
<g id="node26" class="node">
<title>Node39</title>
<g id="a_node26"><a xlink:href="struc__to__unstruc_8C.html" target="_top" xlink:title=" ">
<polygon fill="#ffffff" stroke="#000000" points="892.9556,-5.5 892.9556,-23.5 1033.4429,-23.5 1033.4429,-5.5 892.9556,-5.5"/>
<text text-anchor="middle" x="963.1992" y="-11.5" font-family="Helvetica,sans-Serif" font-size="10.00" fill="#000000">src/main/struc_to_unstruc.C</text>
</a>
</g>
</g>
<!-- Node35&#45;&gt;Node39 -->
<g id="edge36" class="edge">
<title>Node35&#45;&gt;Node39</title>
<path fill="none" stroke="#191970" d="M1124.6305,-67.2288C1085.7088,-54.5157 1025.7979,-34.9468 990.9544,-23.5658"/>
<polygon fill="#191970" stroke="#191970" points="1123.9366,-70.6841 1134.5291,-70.462 1126.1101,-64.03 1123.9366,-70.6841"/>
</g>
<!-- Node40 -->
<g id="node27" class="node">
<title>Node40</title>
<g id="a_node27"><a xlink:href="Iopg__DatabaseIO_8C.html" target="_top" xlink:title=" ">
<polygon fill="#ffffff" stroke="#000000" points="1399.4927,-5.5 1399.4927,-23.5 1558.9058,-23.5 1558.9058,-5.5 1399.4927,-5.5"/>
<text text-anchor="middle" x="1479.1992" y="-11.5" font-family="Helvetica,sans-Serif" font-size="10.00" fill="#000000">src/pamgen/Iopg_DatabaseIO.C</text>
</a>
</g>
</g>
<!-- Node35&#45;&gt;Node40 -->
<g id="edge37" class="edge">
<title>Node35&#45;&gt;Node40</title>
<path fill="none" stroke="#191970" d="M1216.2277,-68.4216C1278.0209,-55.7511 1378.0116,-35.2482 1435.2414,-23.5134"/>
<polygon fill="#191970" stroke="#191970" points="1215.3698,-65.0246 1206.2767,-70.462 1216.776,-71.8819 1215.3698,-65.0246"/>
</g>
<!-- Node41 -->
<g id="node28" class="node">
<title>Node41</title>
<g id="a_node28"><a xlink:href="Iovs__DatabaseIO_8C.html" target="_top" xlink:title=" ">
<polygon fill="#ffffff" stroke="#000000" points="1051.3496,-.5 1051.3496,-28.5 1159.0488,-28.5 1159.0488,-.5 1051.3496,-.5"/>
<text text-anchor="start" x="1059.3496" y="-16.5" font-family="Helvetica,sans-Serif" font-size="10.00" fill="#000000">src/visualization/Iovs</text>
<text text-anchor="middle" x="1105.1992" y="-6.5" font-family="Helvetica,sans-Serif" font-size="10.00" fill="#000000">_DatabaseIO.C</text>
</a>
</g>
</g>
<!-- Node35&#45;&gt;Node41 -->
<g id="edge38" class="edge">
<title>Node35&#45;&gt;Node41</title>
<path fill="none" stroke="#191970" d="M1147.5586,-62.8045C1138.377,-52.3343 1126.6589,-38.9715 1117.8759,-28.9559"/>
<polygon fill="#191970" stroke="#191970" points="1145.0488,-65.251 1154.2736,-70.462 1150.3119,-60.6358 1145.0488,-65.251"/>
</g>
<!-- Node44 -->
<g id="node31" class="node">
<title>Node44</title>
<g id="a_node31"><a xlink:href="io__info_8C.html" target="_top" xlink:title=" ">
<polygon fill="#ffffff" stroke="#000000" points="2777.1846,-5.5 2777.1846,-23.5 2873.2139,-23.5 2873.2139,-5.5 2777.1846,-5.5"/>
<text text-anchor="middle" x="2825.1992" y="-11.5" font-family="Helvetica,sans-Serif" font-size="10.00" fill="#000000">src/main/io_info.C</text>
</a>
</g>
</g>
<!-- Node43&#45;&gt;Node44 -->
<g id="edge41" class="edge">
<title>Node43&#45;&gt;Node44</title>
<path fill="none" stroke="#191970" d="M2777.4196,-63.0262C2789.6198,-50.6354 2805.9018,-34.0989 2815.9614,-23.8821"/>
<polygon fill="#191970" stroke="#191970" points="2774.6202,-60.8807 2770.0981,-70.462 2779.6082,-65.792 2774.6202,-60.8807"/>
</g>
<!-- Node45 -->
<g id="node32" class="node">
<title>Node45</title>
<g id="a_node32"><a xlink:href="io__info__main_8C.html" target="_top" xlink:title=" ">
<polygon fill="#ffffff" stroke="#000000" points="2635.5664,-5.5 2635.5664,-23.5 2758.832,-23.5 2758.832,-5.5 2635.5664,-5.5"/>
<text text-anchor="middle" x="2697.1992" y="-11.5" font-family="Helvetica,sans-Serif" font-size="10.00" fill="#000000">src/main/io_info_main.C</text>
</a>
</g>
</g>
<!-- Node43&#45;&gt;Node45 -->
<g id="edge42" class="edge">
<title>Node43&#45;&gt;Node45</title>
<path fill="none" stroke="#191970" d="M2744.9789,-63.0262C2732.7787,-50.6354 2716.4966,-34.0989 2706.437,-23.8821"/>
<polygon fill="#191970" stroke="#191970" points="2742.7902,-65.792 2752.3003,-70.462 2747.7782,-60.8807 2742.7902,-65.792"/>
</g>
<!-- Node49&#45;&gt;Node40 -->
<g id="edge47" class="edge">
<title>Node49&#45;&gt;Node40</title>
<path fill="none" stroke="#191970" d="M1401.6549,-64.9038C1421.0908,-52.2705 1448.5982,-34.3906 1465.0904,-23.6708"/>
<polygon fill="#191970" stroke="#191970" points="1399.5808,-62.0775 1393.1038,-70.462 1403.3957,-67.9467 1399.5808,-62.0775"/>
</g>
<!-- Node51&#45;&gt;Node28 -->
<g id="edge50" class="edge">
<title>Node51&#45;&gt;Node28</title>
<path fill="none" stroke="#191970" d="M2121.2361,-60.5616C2098.7528,-48.3832 2070.5541,-33.1089 2052.9518,-23.5743"/>
<polygon fill="#191970" stroke="#191970" points="2119.7011,-63.7106 2130.161,-65.396 2123.0351,-57.5556 2119.7011,-63.7106"/>
</g>
<!-- Node51&#45;&gt;Node50 -->
<g id="edge51" class="edge">
<title>Node51&#45;&gt;Node50</title>
<path fill="none" stroke="#191970" d="M2192.9036,-60.7143C2212.9329,-50.4631 2237.3178,-37.9826 2255.6959,-28.5765"/>
<polygon fill="#191970" stroke="#191970" points="2191.0635,-57.7242 2183.7563,-65.396 2194.2528,-63.9555 2191.0635,-57.7242"/>
</g>
</g>
</svg>
