<?xml version="1.0" encoding="UTF-8" standalone="no"?>
<!DOCTYPE svg PUBLIC "-//W3C//DTD SVG 1.1//EN"
 "http://www.w3.org/Graphics/SVG/1.1/DTD/svg11.dtd">
<!-- Generated by graphviz version 2.42.3 (20191010.1750)
 -->
<!-- Title: src/Ioss_VariableType.h Pages: 1 -->
<svg width="959pt" height="247pt"
 viewBox="0.00 0.00 958.95 247.00" xmlns="http://www.w3.org/2000/svg" xmlns:xlink="http://www.w3.org/1999/xlink">
<g id="graph0" class="graph" transform="scale(1 1) rotate(0) translate(4 243)">
<title>src/Ioss_VariableType.h</title>
<polygon fill="white" stroke="transparent" points="-4,4 -4,-243 954.95,-243 954.95,4 -4,4"/>
<!-- Node1 -->
<g id="node1" class="node">
<title>Node1</title>
<g id="a_node1"><a xlink:title=" ">
<polygon fill="#bfbfbf" stroke="black" points="686.23,-220.5 686.23,-238.5 808.22,-238.5 808.22,-220.5 686.23,-220.5"/>
<text text-anchor="middle" x="747.23" y="-226.5" font-family="Helvetica,sans-Serif" font-size="10.00">src/Ioss_VariableType.h</text>
</a>
</g>
</g>
<!-- Node2 -->
<g id="node2" class="node">
<title>Node2</title>
<g id="a_node2"><a xlink:href="Ioss__CodeTypes_8h.html" target="_top" xlink:title=" ">
<polygon fill="white" stroke="black" points="214.81,-55.5 214.81,-73.5 313.64,-73.5 313.64,-55.5 214.81,-55.5"/>
<text text-anchor="middle" x="264.23" y="-61.5" font-family="Helvetica,sans-Serif" font-size="10.00">Ioss_CodeTypes.h</text>
</a>
</g>
</g>
<!-- Node1&#45;&gt;Node2 -->
<g id="edge1" class="edge">
<title>Node1&#45;&gt;Node2</title>
<path fill="none" stroke="midnightblue" d="M743.52,-220.36C732.94,-198.17 700.24,-136.52 652.23,-110 597.24,-79.63 418.56,-69.91 324.07,-66.86"/>
<polygon fill="midnightblue" stroke="midnightblue" points="323.91,-63.35 313.81,-66.54 323.7,-70.35 323.91,-63.35"/>
</g>
<!-- Node6 -->
<g id="node6" class="node">
<title>Node6</title>
<g id="a_node6"><a xlink:title=" ">
<polygon fill="white" stroke="#bfbfbf" points="0,-0.5 0,-18.5 40.45,-18.5 40.45,-0.5 0,-0.5"/>
<text text-anchor="middle" x="20.23" y="-6.5" font-family="Helvetica,sans-Serif" font-size="10.00">string</text>
</a>
</g>
</g>
<!-- Node1&#45;&gt;Node6 -->
<g id="edge29" class="edge">
<title>Node1&#45;&gt;Node6</title>
<path fill="none" stroke="midnightblue" d="M686.22,-227.71C556.29,-225.42 256.26,-216.65 160.23,-184 89.53,-159.97 64.54,-141.79 33.23,-74 26.58,-59.62 23.32,-41.85 21.72,-28.77"/>
<polygon fill="midnightblue" stroke="midnightblue" points="25.19,-28.29 20.7,-18.69 18.22,-28.99 25.19,-28.29"/>
</g>
<!-- Node7 -->
<g id="node7" class="node">
<title>Node7</title>
<g id="a_node7"><a xlink:title=" ">
<polygon fill="white" stroke="#bfbfbf" points="62.61,-0.5 62.61,-18.5 105.84,-18.5 105.84,-0.5 62.61,-0.5"/>
<text text-anchor="middle" x="84.23" y="-6.5" font-family="Helvetica,sans-Serif" font-size="10.00">vector</text>
</a>
</g>
</g>
<!-- Node1&#45;&gt;Node7 -->
<g id="edge30" class="edge">
<title>Node1&#45;&gt;Node7</title>
<path fill="none" stroke="midnightblue" d="M686.23,-227.72C540.63,-224.55 178.52,-208.67 93.23,-129 65.92,-103.49 72.75,-54.76 79.08,-28.43"/>
<polygon fill="midnightblue" stroke="midnightblue" points="82.49,-29.22 81.66,-18.66 75.72,-27.43 82.49,-29.22"/>
</g>
<!-- Node10 -->
<g id="node10" class="node">
<title>Node10</title>
<g id="a_node10"><a xlink:href="Ioss__Utils_8h.html" target="_top" xlink:title=" ">
<polygon fill="white" stroke="black" points="376.38,-165.5 376.38,-183.5 444.07,-183.5 444.07,-165.5 376.38,-165.5"/>
<text text-anchor="middle" x="410.23" y="-171.5" font-family="Helvetica,sans-Serif" font-size="10.00">Ioss_Utils.h</text>
</a>
</g>
</g>
<!-- Node1&#45;&gt;Node10 -->
<g id="edge9" class="edge">
<title>Node1&#45;&gt;Node10</title>
<path fill="none" stroke="midnightblue" d="M696.04,-220.45C630.11,-210.08 516.61,-192.23 454.32,-182.43"/>
<polygon fill="midnightblue" stroke="midnightblue" points="454.83,-178.97 444.41,-180.88 453.74,-185.89 454.83,-178.97"/>
</g>
<!-- Node18 -->
<g id="node18" class="node">
<title>Node18</title>
<g id="a_node18"><a xlink:title=" ">
<polygon fill="white" stroke="#bfbfbf" points="775.5,-165.5 775.5,-183.5 820.95,-183.5 820.95,-165.5 775.5,-165.5"/>
<text text-anchor="middle" x="798.23" y="-171.5" font-family="Helvetica,sans-Serif" font-size="10.00">cstring</text>
</a>
</g>
</g>
<!-- Node1&#45;&gt;Node18 -->
<g id="edge26" class="edge">
<title>Node1&#45;&gt;Node18</title>
<path fill="none" stroke="midnightblue" d="M755.2,-220.22C762.72,-212.39 774.21,-200.46 783.42,-190.89"/>
<polygon fill="midnightblue" stroke="midnightblue" points="786.07,-193.18 790.48,-183.55 781.02,-188.33 786.07,-193.18"/>
</g>
<!-- Node19 -->
<g id="node19" class="node">
<title>Node19</title>
<g id="a_node19"><a xlink:title=" ">
<polygon fill="white" stroke="#bfbfbf" points="838.82,-165.5 838.82,-183.5 897.63,-183.5 897.63,-165.5 838.82,-165.5"/>
<text text-anchor="middle" x="868.23" y="-171.5" font-family="Helvetica,sans-Serif" font-size="10.00">functional</text>
</a>
</g>
</g>
<!-- Node1&#45;&gt;Node19 -->
<g id="edge27" class="edge">
<title>Node1&#45;&gt;Node19</title>
<path fill="none" stroke="midnightblue" d="M765.6,-220.45C785.5,-211.73 817.47,-197.73 840.44,-187.67"/>
<polygon fill="midnightblue" stroke="midnightblue" points="841.92,-190.84 849.68,-183.63 839.11,-184.43 841.92,-190.84"/>
</g>
<!-- Node20 -->
<g id="node20" class="node">
<title>Node20</title>
<g id="a_node20"><a xlink:title=" ">
<polygon fill="white" stroke="#bfbfbf" points="915.5,-165.5 915.5,-183.5 950.95,-183.5 950.95,-165.5 915.5,-165.5"/>
<text text-anchor="middle" x="933.23" y="-171.5" font-family="Helvetica,sans-Serif" font-size="10.00">map</text>
</a>
</g>
</g>
<!-- Node1&#45;&gt;Node20 -->
<g id="edge28" class="edge">
<title>Node1&#45;&gt;Node20</title>
<path fill="none" stroke="midnightblue" d="M776.91,-220.5C806.97,-212.33 855.03,-199.08 905.47,-184.16"/>
<polygon fill="midnightblue" stroke="midnightblue" points="906.65,-187.45 915.24,-181.25 904.66,-180.74 906.65,-187.45"/>
</g>
<!-- Node3 -->
<g id="node3" class="node">
<title>Node3</title>
<g id="a_node3"><a xlink:title=" ">
<polygon fill="white" stroke="#bfbfbf" points="327.83,-0.5 327.83,-18.5 366.62,-18.5 366.62,-0.5 327.83,-0.5"/>
<text text-anchor="middle" x="347.23" y="-6.5" font-family="Helvetica,sans-Serif" font-size="10.00">array</text>
</a>
</g>
</g>
<!-- Node2&#45;&gt;Node3 -->
<g id="edge2" class="edge">
<title>Node2&#45;&gt;Node3</title>
<path fill="none" stroke="midnightblue" d="M276.83,-55.45C289.87,-47.12 310.47,-33.97 326.02,-24.04"/>
<polygon fill="midnightblue" stroke="midnightblue" points="327.96,-26.96 334.5,-18.63 324.19,-21.06 327.96,-26.96"/>
</g>
<!-- Node4 -->
<g id="node4" class="node">
<title>Node4</title>
<g id="a_node4"><a xlink:title=" ">
<polygon fill="white" stroke="#bfbfbf" points="385.11,-0.5 385.11,-18.5 433.35,-18.5 433.35,-0.5 385.11,-0.5"/>
<text text-anchor="middle" x="409.23" y="-6.5" font-family="Helvetica,sans-Serif" font-size="10.00">cstddef</text>
</a>
</g>
</g>
<!-- Node2&#45;&gt;Node4 -->
<g id="edge3" class="edge">
<title>Node2&#45;&gt;Node4</title>
<path fill="none" stroke="midnightblue" d="M286.25,-55.45C310.52,-46.58 349.78,-32.23 377.4,-22.13"/>
<polygon fill="midnightblue" stroke="midnightblue" points="378.81,-25.35 387,-18.63 376.4,-18.77 378.81,-25.35"/>
</g>
<!-- Node5 -->
<g id="node5" class="node">
<title>Node5</title>
<g id="a_node5"><a xlink:title=" ">
<polygon fill="white" stroke="#bfbfbf" points="569.78,-0.5 569.78,-18.5 614.68,-18.5 614.68,-0.5 569.78,-0.5"/>
<text text-anchor="middle" x="592.23" y="-6.5" font-family="Helvetica,sans-Serif" font-size="10.00">cstdint</text>
</a>
</g>
</g>
<!-- Node2&#45;&gt;Node5 -->
<g id="edge4" class="edge">
<title>Node2&#45;&gt;Node5</title>
<path fill="none" stroke="midnightblue" d="M313.69,-55.51C381.58,-44.54 501.8,-25.11 559.51,-15.79"/>
<polygon fill="midnightblue" stroke="midnightblue" points="560.22,-19.22 569.54,-14.17 559.11,-12.31 560.22,-19.22"/>
</g>
<!-- Node2&#45;&gt;Node6 -->
<g id="edge5" class="edge">
<title>Node2&#45;&gt;Node6</title>
<path fill="none" stroke="midnightblue" d="M223.66,-55.5C181.09,-46.97 112.28,-32.83 53.23,-19 52.34,-18.79 51.45,-18.58 50.55,-18.36"/>
<polygon fill="midnightblue" stroke="midnightblue" points="51.34,-14.95 40.79,-15.95 49.65,-21.75 51.34,-14.95"/>
</g>
<!-- Node2&#45;&gt;Node7 -->
<g id="edge6" class="edge">
<title>Node2&#45;&gt;Node7</title>
<path fill="none" stroke="midnightblue" d="M236.89,-55.45C204.36,-45.87 150.14,-29.91 115.84,-19.81"/>
<polygon fill="midnightblue" stroke="midnightblue" points="116.46,-16.34 105.88,-16.87 114.48,-23.06 116.46,-16.34"/>
</g>
<!-- Node8 -->
<g id="node8" class="node">
<title>Node8</title>
<g id="a_node8"><a xlink:title=" ">
<polygon fill="white" stroke="#bfbfbf" points="123.48,-0.5 123.48,-18.5 238.98,-18.5 238.98,-0.5 123.48,-0.5"/>
<text text-anchor="middle" x="181.23" y="-6.5" font-family="Helvetica,sans-Serif" font-size="10.00">SEACASIoss_config.h</text>
</a>
</g>
</g>
<!-- Node2&#45;&gt;Node8 -->
<g id="edge7" class="edge">
<title>Node2&#45;&gt;Node8</title>
<path fill="none" stroke="midnightblue" d="M251.62,-55.45C238.58,-47.12 217.98,-33.97 202.43,-24.04"/>
<polygon fill="midnightblue" stroke="midnightblue" points="204.26,-21.06 193.95,-18.63 200.5,-26.96 204.26,-21.06"/>
</g>
<!-- Node9 -->
<g id="node9" class="node">
<title>Node9</title>
<g id="a_node9"><a xlink:title=" ">
<polygon fill="white" stroke="#bfbfbf" points="256.61,-0.5 256.61,-18.5 309.84,-18.5 309.84,-0.5 256.61,-0.5"/>
<text text-anchor="middle" x="283.23" y="-6.5" font-family="Helvetica,sans-Serif" font-size="10.00">complex</text>
</a>
</g>
</g>
<!-- Node2&#45;&gt;Node9 -->
<g id="edge8" class="edge">
<title>Node2&#45;&gt;Node9</title>
<path fill="none" stroke="midnightblue" d="M267.2,-55.22C269.78,-48.02 273.6,-37.35 276.87,-28.23"/>
<polygon fill="midnightblue" stroke="midnightblue" points="280.26,-29.14 280.34,-18.55 273.67,-26.78 280.26,-29.14"/>
</g>
<!-- Node10&#45;&gt;Node2 -->
<g id="edge10" class="edge">
<title>Node10&#45;&gt;Node2</title>
<path fill="none" stroke="midnightblue" d="M376.16,-169.65C330.74,-163.73 254.09,-150.75 237.23,-129 226.04,-114.57 237.74,-94.82 249.04,-81.2"/>
<polygon fill="midnightblue" stroke="midnightblue" points="251.77,-83.4 255.82,-73.61 246.54,-78.74 251.77,-83.4"/>
</g>
<!-- Node10&#45;&gt;Node4 -->
<g id="edge19" class="edge">
<title>Node10&#45;&gt;Node4</title>
<path fill="none" stroke="midnightblue" d="M444.53,-172.39C504.89,-169.64 626.19,-160.27 652.23,-129 713.32,-55.65 523.99,-24.06 443.56,-14.17"/>
<polygon fill="midnightblue" stroke="midnightblue" points="443.76,-10.67 433.42,-12.96 442.94,-17.62 443.76,-10.67"/>
</g>
<!-- Node10&#45;&gt;Node5 -->
<g id="edge20" class="edge">
<title>Node10&#45;&gt;Node5</title>
<path fill="none" stroke="midnightblue" d="M444.17,-172.92C508.11,-171.02 642.54,-162.99 671.23,-129 700.82,-93.94 646.01,-47.45 613.6,-24.52"/>
<polygon fill="midnightblue" stroke="midnightblue" points="615.37,-21.48 605.15,-18.7 611.4,-27.25 615.37,-21.48"/>
</g>
<!-- Node10&#45;&gt;Node6 -->
<g id="edge24" class="edge">
<title>Node10&#45;&gt;Node6</title>
<path fill="none" stroke="midnightblue" d="M376.15,-172.33C304.14,-169.29 139.33,-159.15 93.23,-129 56.25,-104.83 34.86,-54.75 25.65,-28.09"/>
<polygon fill="midnightblue" stroke="midnightblue" points="28.96,-26.95 22.53,-18.53 22.31,-29.13 28.96,-26.95"/>
</g>
<!-- Node10&#45;&gt;Node7 -->
<g id="edge25" class="edge">
<title>Node10&#45;&gt;Node7</title>
<path fill="none" stroke="midnightblue" d="M376.21,-173.1C306.16,-171.56 149.2,-164.18 111.23,-129 83.32,-103.14 81.33,-54.92 82.59,-28.67"/>
<polygon fill="midnightblue" stroke="midnightblue" points="86.09,-28.82 83.29,-18.6 79.11,-28.33 86.09,-28.82"/>
</g>
<!-- Node11 -->
<g id="node11" class="node">
<title>Node11</title>
<g id="a_node11"><a xlink:href="Ioss__Field_8h.html" target="_top" xlink:title=" ">
<polygon fill="white" stroke="black" points="120.27,-110.5 120.27,-128.5 190.18,-128.5 190.18,-110.5 120.27,-110.5"/>
<text text-anchor="middle" x="155.23" y="-116.5" font-family="Helvetica,sans-Serif" font-size="10.00">Ioss_Field.h</text>
</a>
</g>
</g>
<!-- Node10&#45;&gt;Node11 -->
<g id="edge11" class="edge">
<title>Node10&#45;&gt;Node11</title>
<path fill="none" stroke="midnightblue" d="M376.36,-166.46C331.12,-157.06 250.8,-140.36 200.42,-129.89"/>
<polygon fill="midnightblue" stroke="midnightblue" points="200.96,-126.43 190.46,-127.82 199.54,-133.28 200.96,-126.43"/>
</g>
<!-- Node12 -->
<g id="node12" class="node">
<title>Node12</title>
<g id="a_node12"><a xlink:title=" ">
<polygon fill="white" stroke="#bfbfbf" points="246.66,-110.5 246.66,-128.5 303.79,-128.5 303.79,-110.5 246.66,-110.5"/>
<text text-anchor="middle" x="275.23" y="-116.5" font-family="Helvetica,sans-Serif" font-size="10.00">algorithm</text>
</a>
</g>
</g>
<!-- Node10&#45;&gt;Node12 -->
<g id="edge16" class="edge">
<title>Node10&#45;&gt;Node12</title>
<path fill="none" stroke="midnightblue" d="M389.72,-165.45C367.32,-156.66 331.21,-142.48 305.54,-132.4"/>
<polygon fill="midnightblue" stroke="midnightblue" points="306.51,-129.02 295.92,-128.63 303.95,-135.54 306.51,-129.02"/>
</g>
<!-- Node13 -->
<g id="node13" class="node">
<title>Node13</title>
<g id="a_node13"><a xlink:title=" ">
<polygon fill="white" stroke="#bfbfbf" points="322.11,-110.5 322.11,-128.5 370.34,-128.5 370.34,-110.5 322.11,-110.5"/>
<text text-anchor="middle" x="346.23" y="-116.5" font-family="Helvetica,sans-Serif" font-size="10.00">cassert</text>
</a>
</g>
</g>
<!-- Node10&#45;&gt;Node13 -->
<g id="edge17" class="edge">
<title>Node10&#45;&gt;Node13</title>
<path fill="none" stroke="midnightblue" d="M400.51,-165.45C390.83,-157.43 375.75,-144.95 363.94,-135.17"/>
<polygon fill="midnightblue" stroke="midnightblue" points="365.97,-132.31 356.04,-128.63 361.51,-137.7 365.97,-132.31"/>
</g>
<!-- Node14 -->
<g id="node14" class="node">
<title>Node14</title>
<g id="a_node14"><a xlink:title=" ">
<polygon fill="white" stroke="#bfbfbf" points="388.61,-110.5 388.61,-128.5 431.84,-128.5 431.84,-110.5 388.61,-110.5"/>
<text text-anchor="middle" x="410.23" y="-116.5" font-family="Helvetica,sans-Serif" font-size="10.00">cmath</text>
</a>
</g>
</g>
<!-- Node10&#45;&gt;Node14 -->
<g id="edge18" class="edge">
<title>Node10&#45;&gt;Node14</title>
<path fill="none" stroke="midnightblue" d="M410.23,-165.22C410.23,-158.18 410.23,-147.81 410.23,-138.83"/>
<polygon fill="midnightblue" stroke="midnightblue" points="413.73,-138.55 410.23,-128.55 406.73,-138.55 413.73,-138.55"/>
</g>
<!-- Node15 -->
<g id="node15" class="node">
<title>Node15</title>
<g id="a_node15"><a xlink:title=" ">
<polygon fill="white" stroke="#bfbfbf" points="450.05,-110.5 450.05,-128.5 494.4,-128.5 494.4,-110.5 450.05,-110.5"/>
<text text-anchor="middle" x="472.23" y="-116.5" font-family="Helvetica,sans-Serif" font-size="10.00">cstdlib</text>
</a>
</g>
</g>
<!-- Node10&#45;&gt;Node15 -->
<g id="edge21" class="edge">
<title>Node10&#45;&gt;Node15</title>
<path fill="none" stroke="midnightblue" d="M419.64,-165.45C429.02,-157.43 443.63,-144.95 455.07,-135.17"/>
<polygon fill="midnightblue" stroke="midnightblue" points="457.39,-137.78 462.72,-128.63 452.85,-132.46 457.39,-137.78"/>
</g>
<!-- Node16 -->
<g id="node16" class="node">
<title>Node16</title>
<g id="a_node16"><a xlink:title=" ">
<polygon fill="white" stroke="#bfbfbf" points="512.05,-110.5 512.05,-128.5 566.4,-128.5 566.4,-110.5 512.05,-110.5"/>
<text text-anchor="middle" x="539.23" y="-116.5" font-family="Helvetica,sans-Serif" font-size="10.00">iostream</text>
</a>
</g>
</g>
<!-- Node10&#45;&gt;Node16 -->
<g id="edge22" class="edge">
<title>Node10&#45;&gt;Node16</title>
<path fill="none" stroke="midnightblue" d="M429.82,-165.45C451.13,-156.7 485.42,-142.61 509.93,-132.53"/>
<polygon fill="midnightblue" stroke="midnightblue" points="511.53,-135.66 519.45,-128.63 508.87,-129.19 511.53,-135.66"/>
</g>
<!-- Node17 -->
<g id="node17" class="node">
<title>Node17</title>
<g id="a_node17"><a xlink:title=" ">
<polygon fill="white" stroke="#bfbfbf" points="584.83,-110.5 584.83,-128.5 643.63,-128.5 643.63,-110.5 584.83,-110.5"/>
<text text-anchor="middle" x="614.23" y="-116.5" font-family="Helvetica,sans-Serif" font-size="10.00">stdexcept</text>
</a>
</g>
</g>
<!-- Node10&#45;&gt;Node17 -->
<g id="edge23" class="edge">
<title>Node10&#45;&gt;Node17</title>
<path fill="none" stroke="midnightblue" d="M441.21,-165.45C476.92,-156.17 535.68,-140.91 574.67,-130.78"/>
<polygon fill="midnightblue" stroke="midnightblue" points="575.81,-134.1 584.61,-128.19 574.05,-127.32 575.81,-134.1"/>
</g>
<!-- Node11&#45;&gt;Node2 -->
<g id="edge12" class="edge">
<title>Node11&#45;&gt;Node2</title>
<path fill="none" stroke="midnightblue" d="M171.78,-110.45C189.47,-101.85 217.74,-88.1 238.36,-78.08"/>
<polygon fill="midnightblue" stroke="midnightblue" points="240.05,-81.15 247.52,-73.63 236.99,-74.85 240.05,-81.15"/>
</g>
<!-- Node11&#45;&gt;Node4 -->
<g id="edge13" class="edge">
<title>Node11&#45;&gt;Node4</title>
<path fill="none" stroke="midnightblue" d="M190.44,-113.03C225.18,-106.74 279.17,-94.56 322.23,-74 348.95,-61.24 375.91,-39.96 392.58,-25.59"/>
<polygon fill="midnightblue" stroke="midnightblue" points="395.12,-28.02 400.31,-18.79 390.49,-22.77 395.12,-28.02"/>
</g>
<!-- Node11&#45;&gt;Node6 -->
<g id="edge14" class="edge">
<title>Node11&#45;&gt;Node6</title>
<path fill="none" stroke="midnightblue" d="M145.08,-110.38C122.41,-92.24 67.37,-48.21 38.53,-25.15"/>
<polygon fill="midnightblue" stroke="midnightblue" points="40.49,-22.23 30.49,-18.71 36.11,-27.69 40.49,-22.23"/>
</g>
<!-- Node11&#45;&gt;Node7 -->
<g id="edge15" class="edge">
<title>Node11&#45;&gt;Node7</title>
<path fill="none" stroke="midnightblue" d="M155.67,-110.42C155.98,-97.66 155.02,-72.53 144.23,-55 136.1,-41.8 122.48,-31.23 110.27,-23.7"/>
<polygon fill="midnightblue" stroke="midnightblue" points="111.73,-20.51 101.32,-18.55 108.24,-26.57 111.73,-20.51"/>
</g>
</g>
</svg>
