<?xml version="1.0" encoding="UTF-8" standalone="no"?>
<!DOCTYPE svg PUBLIC "-//W3C//DTD SVG 1.1//EN"
 "http://www.w3.org/Graphics/SVG/1.1/DTD/svg11.dtd">
<!-- Generated by graphviz version 2.40.1 (20161225.0304)
 -->
<!-- Title: IOSS_SYM_TENSOR Pages: 1 -->
<svg width="752pt" height="663pt"
 viewBox="0.00 0.00 752.28 663.48" xmlns="http://www.w3.org/2000/svg" xmlns:xlink="http://www.w3.org/1999/xlink">
<g id="graph0" class="graph" transform="scale(1 1) rotate(0) translate(4 659.4796)">
<title>IOSS_SYM_TENSOR</title>
<polygon fill="#ffffff" stroke="transparent" points="-4,4 -4,-659.4796 748.2783,-659.4796 748.2783,4 -4,4"/>
<!-- Node41 -->
<g id="node1" class="node">
<title>Node41</title>
<polygon fill="#bfbfbf" stroke="#000000" points="0,-263.9796 0,-281.9796 114.3594,-281.9796 114.3594,-263.9796 0,-263.9796"/>
<text text-anchor="middle" x="57.1797" y="-269.9796" font-family="Helvetica,sans-Serif" font-size="10.00" fill="#000000">IOSS_SYM_TENSOR</text>
</g>
<!-- Node42 -->
<g id="node2" class="node">
<title>Node42</title>
<g id="a_node2"><a xlink:href="$classIoex_1_1DatabaseIO.html#a842ea33b8ef486bc3df95240fe706418" xlink:title="Ioex::DatabaseIO::add\l_attribute_fields">
<polygon fill="#ffffff" stroke="#000000" points="150.3594,-258.9796 150.3594,-286.9796 266.4229,-286.9796 266.4229,-258.9796 150.3594,-258.9796"/>
<text text-anchor="start" x="158.3594" y="-274.9796" font-family="Helvetica,sans-Serif" font-size="10.00" fill="#000000">Ioex::DatabaseIO::add</text>
<text text-anchor="middle" x="208.3911" y="-264.9796" font-family="Helvetica,sans-Serif" font-size="10.00" fill="#000000">_attribute_fields</text>
</a>
</g>
</g>
<!-- Node41&#45;&gt;Node42 -->
<g id="edge1" class="edge">
<title>Node41&#45;&gt;Node42</title>
<path fill="none" stroke="#191970" d="M124.96,-272.9796C133.3844,-272.9796 141.9398,-272.9796 150.2017,-272.9796"/>
<polygon fill="#191970" stroke="#191970" points="124.7776,-269.4797 114.7776,-272.9796 124.7776,-276.4797 124.7776,-269.4797"/>
</g>
<!-- Node43 -->
<g id="node3" class="node">
<title>Node43</title>
<g id="a_node3"><a xlink:href="$classIofx_1_1DatabaseIO.html#a78baca50e8ed293624236a1b497f69b3" xlink:title="Iofx::DatabaseIO::get\l_blocks">
<polygon fill="#ffffff" stroke="#000000" points="315.7651,-555.9796 315.7651,-583.9796 426.2622,-583.9796 426.2622,-555.9796 315.7651,-555.9796"/>
<text text-anchor="start" x="323.7651" y="-571.9796" font-family="Helvetica,sans-Serif" font-size="10.00" fill="#000000">Iofx::DatabaseIO::get</text>
<text text-anchor="middle" x="371.0137" y="-561.9796" font-family="Helvetica,sans-Serif" font-size="10.00" fill="#000000">_blocks</text>
</a>
</g>
</g>
<!-- Node42&#45;&gt;Node43 -->
<g id="edge2" class="edge">
<title>Node42&#45;&gt;Node43</title>
<path fill="none" stroke="#191970" d="M214.7144,-296.7336C226.9705,-340.0854 256.8292,-433.8363 302.4229,-501.9796 316.5964,-523.163 338.1198,-543.1638 353.2684,-555.9183"/>
<polygon fill="#191970" stroke="#191970" points="218.0835,-295.7848 212.0429,-287.0807 211.3371,-297.652 218.0835,-295.7848"/>
</g>
<!-- Node48 -->
<g id="node8" class="node">
<title>Node48</title>
<g id="a_node8"><a xlink:href="$classIofx_1_1DatabaseIO.html#a27da0e50c4bfa4895ac1693a8368ed60" xlink:title="Iofx::DatabaseIO::get\l_sidesets">
<polygon fill="#ffffff" stroke="#000000" points="315.7651,-463.9796 315.7651,-491.9796 426.2622,-491.9796 426.2622,-463.9796 315.7651,-463.9796"/>
<text text-anchor="start" x="323.7651" y="-479.9796" font-family="Helvetica,sans-Serif" font-size="10.00" fill="#000000">Iofx::DatabaseIO::get</text>
<text text-anchor="middle" x="371.0137" y="-469.9796" font-family="Helvetica,sans-Serif" font-size="10.00" fill="#000000">_sidesets</text>
</a>
</g>
</g>
<!-- Node42&#45;&gt;Node48 -->
<g id="edge9" class="edge">
<title>Node42&#45;&gt;Node48</title>
<path fill="none" stroke="#191970" d="M225.9213,-295.0779C259.4665,-337.3646 331.8805,-428.6488 359.7577,-463.7905"/>
<polygon fill="#191970" stroke="#191970" points="228.5257,-292.7292 219.5688,-287.0701 223.0416,-297.0796 228.5257,-292.7292"/>
</g>
<!-- Node49 -->
<g id="node9" class="node">
<title>Node49</title>
<g id="a_node9"><a xlink:href="$classIofx_1_1DatabaseIO.html#a55086ffce615e225095187fcf880c8bb" xlink:title="Iofx::DatabaseIO::get_sets">
<polygon fill="#ffffff" stroke="#000000" points="303.8145,-357.9796 303.8145,-375.9796 438.2129,-375.9796 438.2129,-357.9796 303.8145,-357.9796"/>
<text text-anchor="middle" x="371.0137" y="-363.9796" font-family="Helvetica,sans-Serif" font-size="10.00" fill="#000000">Iofx::DatabaseIO::get_sets</text>
</a>
</g>
</g>
<!-- Node42&#45;&gt;Node49 -->
<g id="edge11" class="edge">
<title>Node42&#45;&gt;Node49</title>
<path fill="none" stroke="#191970" d="M241.5691,-292.1573C276.2655,-312.2127 329.2313,-342.8283 355.3435,-357.9218"/>
<polygon fill="#191970" stroke="#191970" points="243.1466,-289.0266 232.7374,-287.0524 239.6435,-295.087 243.1466,-289.0266"/>
</g>
<!-- Node54 -->
<g id="node14" class="node">
<title>Node54</title>
<g id="a_node14"><a xlink:href="$classIopx_1_1DatabaseIO.html#a745e72869a9065d9f74f548a61262823" xlink:title="Iopx::DatabaseIO::get\l_blocks">
<polygon fill="#ffffff" stroke="#000000" points="314.3735,-213.9796 314.3735,-241.9796 427.6538,-241.9796 427.6538,-213.9796 314.3735,-213.9796"/>
<text text-anchor="start" x="322.3735" y="-229.9796" font-family="Helvetica,sans-Serif" font-size="10.00" fill="#000000">Iopx::DatabaseIO::get</text>
<text text-anchor="middle" x="371.0137" y="-219.9796" font-family="Helvetica,sans-Serif" font-size="10.00" fill="#000000">_blocks</text>
</a>
</g>
</g>
<!-- Node42&#45;&gt;Node54 -->
<g id="edge20" class="edge">
<title>Node42&#45;&gt;Node54</title>
<path fill="none" stroke="#191970" d="M269.1283,-256.1728C285.9383,-251.5212 304.0039,-246.5222 320.1861,-242.0444"/>
<polygon fill="#191970" stroke="#191970" points="268.1041,-252.8246 259.3997,-258.8648 269.971,-259.571 268.1041,-252.8246"/>
</g>
<!-- Node57 -->
<g id="node17" class="node">
<title>Node57</title>
<g id="a_node17"><a xlink:href="$classIopx_1_1DatabaseIO.html#a8817ac53c20c2bc6d7e3285beb718268" xlink:title="Iopx::DatabaseIO::get\l_sidesets">
<polygon fill="#ffffff" stroke="#000000" points="314.3735,-28.9796 314.3735,-56.9796 427.6538,-56.9796 427.6538,-28.9796 314.3735,-28.9796"/>
<text text-anchor="start" x="322.3735" y="-44.9796" font-family="Helvetica,sans-Serif" font-size="10.00" fill="#000000">Iopx::DatabaseIO::get</text>
<text text-anchor="middle" x="371.0137" y="-34.9796" font-family="Helvetica,sans-Serif" font-size="10.00" fill="#000000">_sidesets</text>
</a>
</g>
</g>
<!-- Node42&#45;&gt;Node57 -->
<g id="edge23" class="edge">
<title>Node42&#45;&gt;Node57</title>
<path fill="none" stroke="#191970" d="M219.9034,-249.4574C236.1796,-217.2287 267.8162,-158.194 302.4229,-112.9796 318.5553,-91.9022 340.4967,-70.5193 355.1768,-57.03"/>
<polygon fill="#191970" stroke="#191970" points="216.6972,-248.0438 215.3591,-258.5538 222.9593,-251.1722 216.6972,-248.0438"/>
</g>
<!-- Node58 -->
<g id="node18" class="node">
<title>Node58</title>
<g id="a_node18"><a xlink:href="$classIopx_1_1DatabaseIO.html#a6edefcd1db4d70995c9c6de9be5e968d" xlink:title="Iopx::DatabaseIO::get_sets">
<polygon fill="#ffffff" stroke="#000000" points="302.4229,-122.9796 302.4229,-140.9796 439.6045,-140.9796 439.6045,-122.9796 302.4229,-122.9796"/>
<text text-anchor="middle" x="371.0137" y="-128.9796" font-family="Helvetica,sans-Serif" font-size="10.00" fill="#000000">Iopx::DatabaseIO::get_sets</text>
</a>
</g>
</g>
<!-- Node42&#45;&gt;Node58 -->
<g id="edge25" class="edge">
<title>Node42&#45;&gt;Node58</title>
<path fill="none" stroke="#191970" d="M232.1855,-252.349C268.1804,-221.14 334.9926,-163.2113 360.6285,-140.984"/>
<polygon fill="#191970" stroke="#191970" points="229.8412,-249.7491 224.5785,-258.9445 234.4269,-255.038 229.8412,-249.7491"/>
</g>
<!-- Node63 -->
<g id="node23" class="node">
<title>Node63</title>
<g id="a_node23"><a xlink:href="$classIoex_1_1DatabaseIO.html#abbf608900e50b190d274d618dfdca0dc" xlink:title="Ioex::DatabaseIO::get\l_nodeblocks">
<polygon fill="#ffffff" stroke="#000000" points="475.6045,-258.9796 475.6045,-286.9796 588.8848,-286.9796 588.8848,-258.9796 475.6045,-258.9796"/>
<text text-anchor="start" x="483.6045" y="-274.9796" font-family="Helvetica,sans-Serif" font-size="10.00" fill="#000000">Ioex::DatabaseIO::get</text>
<text text-anchor="middle" x="532.2446" y="-264.9796" font-family="Helvetica,sans-Serif" font-size="10.00" fill="#000000">_nodeblocks</text>
</a>
</g>
</g>
<!-- Node42&#45;&gt;Node63 -->
<g id="edge34" class="edge">
<title>Node42&#45;&gt;Node63</title>
<path fill="none" stroke="#191970" d="M277.0156,-272.9796C336.0599,-272.9796 420.2267,-272.9796 475.5261,-272.9796"/>
<polygon fill="#191970" stroke="#191970" points="276.6637,-269.4797 266.6637,-272.9796 276.6636,-276.4797 276.6637,-269.4797"/>
</g>
<!-- Node44 -->
<g id="node4" class="node">
<title>Node44</title>
<g id="a_node4"><a xlink:href="$classIofx_1_1DatabaseIO.html#a5352613bb7149d93d7948d02518a4b23" xlink:title="Iofx::DatabaseIO::get\l_elemblocks">
<polygon fill="#ffffff" stroke="#000000" points="476.9961,-532.9796 476.9961,-560.9796 587.4932,-560.9796 587.4932,-532.9796 476.9961,-532.9796"/>
<text text-anchor="start" x="484.9961" y="-548.9796" font-family="Helvetica,sans-Serif" font-size="10.00" fill="#000000">Iofx::DatabaseIO::get</text>
<text text-anchor="middle" x="532.2446" y="-538.9796" font-family="Helvetica,sans-Serif" font-size="10.00" fill="#000000">_elemblocks</text>
</a>
</g>
</g>
<!-- Node43&#45;&gt;Node44 -->
<g id="edge3" class="edge">
<title>Node43&#45;&gt;Node44</title>
<path fill="none" stroke="#191970" d="M436.5992,-560.6237C449.9852,-558.7141 463.9443,-556.7228 476.929,-554.8705"/>
<polygon fill="#191970" stroke="#191970" points="435.9057,-557.1871 426.5002,-562.0643 436.8943,-564.1169 435.9057,-557.1871"/>
</g>
<!-- Node46 -->
<g id="node6" class="node">
<title>Node46</title>
<g id="a_node6"><a xlink:href="$classIofx_1_1DatabaseIO.html#aee5d0d60d0f0ab20a3965c38d76deb30" xlink:title="Iofx::DatabaseIO::get\l_faceblocks">
<polygon fill="#ffffff" stroke="#000000" points="476.9961,-626.9796 476.9961,-654.9796 587.4932,-654.9796 587.4932,-626.9796 476.9961,-626.9796"/>
<text text-anchor="start" x="484.9961" y="-642.9796" font-family="Helvetica,sans-Serif" font-size="10.00" fill="#000000">Iofx::DatabaseIO::get</text>
<text text-anchor="middle" x="532.2446" y="-632.9796" font-family="Helvetica,sans-Serif" font-size="10.00" fill="#000000">_faceblocks</text>
</a>
</g>
</g>
<!-- Node43&#45;&gt;Node46 -->
<g id="edge5" class="edge">
<title>Node43&#45;&gt;Node46</title>
<path fill="none" stroke="#191970" d="M409.8417,-588.298C429.4627,-597.4273 453.6978,-608.5105 475.6045,-617.9796 482.4239,-620.9273 489.7488,-623.9826 496.7929,-626.8664"/>
<polygon fill="#191970" stroke="#191970" points="411.1526,-585.0473 400.6107,-583.9889 408.1916,-591.3903 411.1526,-585.0473"/>
</g>
<!-- Node47 -->
<g id="node7" class="node">
<title>Node47</title>
<g id="a_node7"><a xlink:href="$classIofx_1_1DatabaseIO.html#a01fc0509353b79eb6285efdf2269b40b" xlink:title="Iofx::DatabaseIO::get\l_edgeblocks">
<polygon fill="#ffffff" stroke="#000000" points="476.9961,-579.9796 476.9961,-607.9796 587.4932,-607.9796 587.4932,-579.9796 476.9961,-579.9796"/>
<text text-anchor="start" x="484.9961" y="-595.9796" font-family="Helvetica,sans-Serif" font-size="10.00" fill="#000000">Iofx::DatabaseIO::get</text>
<text text-anchor="middle" x="532.2446" y="-585.9796" font-family="Helvetica,sans-Serif" font-size="10.00" fill="#000000">_edgeblocks</text>
</a>
</g>
</g>
<!-- Node43&#45;&gt;Node47 -->
<g id="edge7" class="edge">
<title>Node43&#45;&gt;Node47</title>
<path fill="none" stroke="#191970" d="M436.5992,-579.7423C449.9852,-581.7349 463.9443,-583.8128 476.929,-585.7456"/>
<polygon fill="#191970" stroke="#191970" points="436.9066,-576.2496 426.5002,-578.2391 435.8759,-583.1733 436.9066,-576.2496"/>
</g>
<!-- Node45 -->
<g id="node5" class="node">
<title>Node45</title>
<g id="a_node5"><a xlink:href="$classIofx_1_1DatabaseIO.html#a79b188c0f0320a9656ad80866af72fb6" xlink:title="Iofx::DatabaseIO::read\l_meta_data__">
<polygon fill="#ffffff" stroke="#000000" points="626.2764,-446.9796 626.2764,-474.9796 742.8867,-474.9796 742.8867,-446.9796 626.2764,-446.9796"/>
<text text-anchor="start" x="634.2764" y="-462.9796" font-family="Helvetica,sans-Serif" font-size="10.00" fill="#000000">Iofx::DatabaseIO::read</text>
<text text-anchor="middle" x="684.5815" y="-452.9796" font-family="Helvetica,sans-Serif" font-size="10.00" fill="#000000">_meta_data__</text>
</a>
</g>
</g>
<!-- Node44&#45;&gt;Node45 -->
<g id="edge4" class="edge">
<title>Node44&#45;&gt;Node45</title>
<path fill="none" stroke="#191970" d="M569.8501,-528.1524C576.239,-524.8321 582.7793,-521.3564 588.8848,-517.9796 614.2679,-503.9408 642.7601,-486.7843 662.0033,-474.9835"/>
<polygon fill="#191970" stroke="#191970" points="567.9579,-525.1897 560.6661,-532.8761 571.1597,-531.4146 567.9579,-525.1897"/>
</g>
<!-- Node46&#45;&gt;Node45 -->
<g id="edge6" class="edge">
<title>Node46&#45;&gt;Node45</title>
<path fill="none" stroke="#191970" d="M584.1112,-621.6527C585.7707,-620.492 587.3686,-619.2685 588.8848,-617.9796 637.0396,-577.0423 667.9513,-505.5116 679.4863,-475.2006"/>
<polygon fill="#191970" stroke="#191970" points="582.1245,-618.7643 575.3929,-626.9458 585.7573,-624.7479 582.1245,-618.7643"/>
</g>
<!-- Node47&#45;&gt;Node45 -->
<g id="edge8" class="edge">
<title>Node47&#45;&gt;Node45</title>
<path fill="none" stroke="#191970" d="M582.957,-574.8513C585.0044,-573.6232 586.9902,-572.3329 588.8848,-570.9796 627.1958,-543.613 660.3538,-497.9453 675.6226,-475.0169"/>
<polygon fill="#191970" stroke="#191970" points="580.8273,-572.0225 573.6766,-579.8403 584.1419,-578.188 580.8273,-572.0225"/>
</g>
<!-- Node48&#45;&gt;Node45 -->
<g id="edge10" class="edge">
<title>Node48&#45;&gt;Node45</title>
<path fill="none" stroke="#191970" d="M436.4364,-485.3394C479.8277,-488.9304 537.9445,-491.2699 588.8848,-484.9796 605.2042,-482.9644 622.7414,-479.0856 638.2882,-475.0243"/>
<polygon fill="#191970" stroke="#191970" points="436.5619,-481.8372 426.2957,-484.4555 435.954,-488.8107 436.5619,-481.8372"/>
</g>
<!-- Node50 -->
<g id="node10" class="node">
<title>Node50</title>
<g id="a_node10"><a xlink:href="$classIofx_1_1DatabaseIO.html#a8298d2d8f141676749d6e5d0abb6bcbd" xlink:title="Iofx::DatabaseIO::get\l_nodesets">
<polygon fill="#ffffff" stroke="#000000" points="476.9961,-305.9796 476.9961,-333.9796 587.4932,-333.9796 587.4932,-305.9796 476.9961,-305.9796"/>
<text text-anchor="start" x="484.9961" y="-321.9796" font-family="Helvetica,sans-Serif" font-size="10.00" fill="#000000">Iofx::DatabaseIO::get</text>
<text text-anchor="middle" x="532.2446" y="-311.9796" font-family="Helvetica,sans-Serif" font-size="10.00" fill="#000000">_nodesets</text>
</a>
</g>
</g>
<!-- Node49&#45;&gt;Node50 -->
<g id="edge12" class="edge">
<title>Node49&#45;&gt;Node50</title>
<path fill="none" stroke="#191970" d="M411.8018,-355.0896C433.8,-348.677 461.0824,-340.7239 484.1157,-334.0096"/>
<polygon fill="#191970" stroke="#191970" points="410.7215,-351.7587 402.1006,-357.9175 412.6806,-358.479 410.7215,-351.7587"/>
</g>
<!-- Node51 -->
<g id="node11" class="node">
<title>Node51</title>
<g id="a_node11"><a xlink:href="$classIofx_1_1DatabaseIO.html#a56ddda62eb3637cd13191ff67bbc0029" xlink:title="Iofx::DatabaseIO::get\l_edgesets">
<polygon fill="#ffffff" stroke="#000000" points="476.9961,-446.9796 476.9961,-474.9796 587.4932,-474.9796 587.4932,-446.9796 476.9961,-446.9796"/>
<text text-anchor="start" x="484.9961" y="-462.9796" font-family="Helvetica,sans-Serif" font-size="10.00" fill="#000000">Iofx::DatabaseIO::get</text>
<text text-anchor="middle" x="532.2446" y="-452.9796" font-family="Helvetica,sans-Serif" font-size="10.00" fill="#000000">_edgesets</text>
</a>
</g>
</g>
<!-- Node49&#45;&gt;Node51 -->
<g id="edge14" class="edge">
<title>Node49&#45;&gt;Node51</title>
<path fill="none" stroke="#191970" d="M390.9354,-382.3779C411.4082,-397.7433 444.5847,-421.3919 475.6045,-437.9796 481.5943,-441.1826 488.1292,-444.2216 494.5623,-446.9785"/>
<polygon fill="#191970" stroke="#191970" points="392.8111,-379.4075 382.7294,-376.1503 388.5794,-384.9836 392.8111,-379.4075"/>
</g>
<!-- Node52 -->
<g id="node12" class="node">
<title>Node52</title>
<g id="a_node12"><a xlink:href="$classIofx_1_1DatabaseIO.html#a52bfbfd10d033b4f5e50afe18607c415" xlink:title="Iofx::DatabaseIO::get\l_facesets">
<polygon fill="#ffffff" stroke="#000000" points="476.9961,-399.9796 476.9961,-427.9796 587.4932,-427.9796 587.4932,-399.9796 476.9961,-399.9796"/>
<text text-anchor="start" x="484.9961" y="-415.9796" font-family="Helvetica,sans-Serif" font-size="10.00" fill="#000000">Iofx::DatabaseIO::get</text>
<text text-anchor="middle" x="532.2446" y="-405.9796" font-family="Helvetica,sans-Serif" font-size="10.00" fill="#000000">_facesets</text>
</a>
</g>
</g>
<!-- Node49&#45;&gt;Node52 -->
<g id="edge16" class="edge">
<title>Node49&#45;&gt;Node52</title>
<path fill="none" stroke="#191970" d="M411.8018,-378.8697C433.8,-385.2823 461.0824,-393.2353 484.1157,-399.9497"/>
<polygon fill="#191970" stroke="#191970" points="412.6806,-375.4802 402.1006,-376.0417 410.7215,-382.2005 412.6806,-375.4802"/>
</g>
<!-- Node53 -->
<g id="node13" class="node">
<title>Node53</title>
<g id="a_node13"><a xlink:href="$classIofx_1_1DatabaseIO.html#a1d9816bc858a047528865240b4730071" xlink:title="Iofx::DatabaseIO::get\l_elemsets">
<polygon fill="#ffffff" stroke="#000000" points="476.9961,-352.9796 476.9961,-380.9796 587.4932,-380.9796 587.4932,-352.9796 476.9961,-352.9796"/>
<text text-anchor="start" x="484.9961" y="-368.9796" font-family="Helvetica,sans-Serif" font-size="10.00" fill="#000000">Iofx::DatabaseIO::get</text>
<text text-anchor="middle" x="532.2446" y="-358.9796" font-family="Helvetica,sans-Serif" font-size="10.00" fill="#000000">_elemsets</text>
</a>
</g>
</g>
<!-- Node49&#45;&gt;Node53 -->
<g id="edge18" class="edge">
<title>Node49&#45;&gt;Node53</title>
<path fill="none" stroke="#191970" d="M448.704,-366.9796C458.1909,-366.9796 467.7318,-366.9796 476.8004,-366.9796"/>
<polygon fill="#191970" stroke="#191970" points="448.4559,-363.4797 438.4559,-366.9796 448.4559,-370.4797 448.4559,-363.4797"/>
</g>
<!-- Node50&#45;&gt;Node45 -->
<g id="edge13" class="edge">
<title>Node50&#45;&gt;Node45</title>
<path fill="none" stroke="#191970" d="M581.1419,-338.8164C583.8392,-340.4291 586.4422,-342.1496 588.8848,-343.9796 628.3668,-373.5607 661.4695,-422.7935 676.2696,-446.8612"/>
<polygon fill="#191970" stroke="#191970" points="582.749,-335.7065 572.2875,-334.0309 579.4207,-341.8647 582.749,-335.7065"/>
</g>
<!-- Node51&#45;&gt;Node45 -->
<g id="edge15" class="edge">
<title>Node51&#45;&gt;Node45</title>
<path fill="none" stroke="#191970" d="M597.781,-460.9796C607.2023,-460.9796 616.8451,-460.9796 626.1172,-460.9796"/>
<polygon fill="#191970" stroke="#191970" points="597.6727,-457.4797 587.6727,-460.9796 597.6727,-464.4797 597.6727,-457.4797"/>
</g>
<!-- Node52&#45;&gt;Node45 -->
<g id="edge17" class="edge">
<title>Node52&#45;&gt;Node45</title>
<path fill="none" stroke="#191970" d="M587.7098,-431.0921C604.6213,-436.3098 623.0064,-441.982 639.1704,-446.9691"/>
<polygon fill="#191970" stroke="#191970" points="588.5382,-427.6849 577.9507,-428.0812 586.4744,-434.3738 588.5382,-427.6849"/>
</g>
<!-- Node53&#45;&gt;Node45 -->
<g id="edge19" class="edge">
<title>Node53&#45;&gt;Node45</title>
<path fill="none" stroke="#191970" d="M578.076,-385.3114C581.7849,-387.1224 585.4307,-389.0195 588.8848,-390.9796 618.245,-407.641 649.2614,-431.683 667.7626,-446.8114"/>
<polygon fill="#191970" stroke="#191970" points="579.3435,-382.041 568.7999,-381.0001 576.3932,-388.3888 579.3435,-382.041"/>
</g>
<!-- Node55 -->
<g id="node15" class="node">
<title>Node55</title>
<g id="a_node15"><a xlink:href="$classIopx_1_1DatabaseIO.html#aa10c1946bf4abe12e8229d86153a934b" xlink:title="Iopx::DatabaseIO::get\l_elemblocks">
<polygon fill="#ffffff" stroke="#000000" points="475.6045,-211.9796 475.6045,-239.9796 588.8848,-239.9796 588.8848,-211.9796 475.6045,-211.9796"/>
<text text-anchor="start" x="483.6045" y="-227.9796" font-family="Helvetica,sans-Serif" font-size="10.00" fill="#000000">Iopx::DatabaseIO::get</text>
<text text-anchor="middle" x="532.2446" y="-217.9796" font-family="Helvetica,sans-Serif" font-size="10.00" fill="#000000">_elemblocks</text>
</a>
</g>
</g>
<!-- Node54&#45;&gt;Node55 -->
<g id="edge21" class="edge">
<title>Node54&#45;&gt;Node55</title>
<path fill="none" stroke="#191970" d="M438.1284,-227.1471C450.5096,-226.9935 463.3281,-226.8345 475.3705,-226.6851"/>
<polygon fill="#191970" stroke="#191970" points="437.8135,-223.6506 427.8577,-227.2745 437.9004,-230.6501 437.8135,-223.6506"/>
</g>
<!-- Node56 -->
<g id="node16" class="node">
<title>Node56</title>
<g id="a_node16"><a xlink:href="$classIopx_1_1DatabaseIO.html#aa5fbe815a5233885cb3491ee0de291a4" xlink:title="Iopx::DatabaseIO::read\l_meta_data__">
<polygon fill="#ffffff" stroke="#000000" points="624.8848,-117.9796 624.8848,-145.9796 744.2783,-145.9796 744.2783,-117.9796 624.8848,-117.9796"/>
<text text-anchor="start" x="632.8848" y="-133.9796" font-family="Helvetica,sans-Serif" font-size="10.00" fill="#000000">Iopx::DatabaseIO::read</text>
<text text-anchor="middle" x="684.5815" y="-123.9796" font-family="Helvetica,sans-Serif" font-size="10.00" fill="#000000">_meta_data__</text>
</a>
</g>
</g>
<!-- Node55&#45;&gt;Node56 -->
<g id="edge22" class="edge">
<title>Node55&#45;&gt;Node56</title>
<path fill="none" stroke="#191970" d="M579.9475,-207.6453C583.0125,-206.1504 586.0166,-204.5916 588.8848,-202.9796 618.6414,-186.2559 649.7942,-161.5953 668.182,-146.1762"/>
<polygon fill="#191970" stroke="#191970" points="578.2649,-204.5668 570.6446,-211.9276 581.1919,-210.9254 578.2649,-204.5668"/>
</g>
<!-- Node57&#45;&gt;Node56 -->
<g id="edge24" class="edge">
<title>Node57&#45;&gt;Node56</title>
<path fill="none" stroke="#191970" d="M410.6573,-25.0346C455.9634,-7.3168 531.2788,13.4713 588.8848,-13.9796 634.6018,-35.7651 665.5727,-91.2474 678.2009,-117.6269"/>
<polygon fill="#191970" stroke="#191970" points="409.1458,-21.8704 401.1878,-28.8648 411.7706,-28.3597 409.1458,-21.8704"/>
</g>
<!-- Node59 -->
<g id="node19" class="node">
<title>Node59</title>
<g id="a_node19"><a xlink:href="$classIopx_1_1DatabaseIO.html#abf732bb3541f75a9b0c0c9f2af6399be" xlink:title="Iopx::DatabaseIO::get\l_nodesets">
<polygon fill="#ffffff" stroke="#000000" points="475.6045,-117.9796 475.6045,-145.9796 588.8848,-145.9796 588.8848,-117.9796 475.6045,-117.9796"/>
<text text-anchor="start" x="483.6045" y="-133.9796" font-family="Helvetica,sans-Serif" font-size="10.00" fill="#000000">Iopx::DatabaseIO::get</text>
<text text-anchor="middle" x="532.2446" y="-123.9796" font-family="Helvetica,sans-Serif" font-size="10.00" fill="#000000">_nodesets</text>
</a>
</g>
</g>
<!-- Node58&#45;&gt;Node59 -->
<g id="edge26" class="edge">
<title>Node58&#45;&gt;Node59</title>
<path fill="none" stroke="#191970" d="M449.8822,-131.9796C458.4516,-131.9796 467.0474,-131.9796 475.2819,-131.9796"/>
<polygon fill="#191970" stroke="#191970" points="449.8578,-128.4797 439.8578,-131.9796 449.8577,-135.4797 449.8578,-128.4797"/>
</g>
<!-- Node60 -->
<g id="node20" class="node">
<title>Node60</title>
<g id="a_node20"><a xlink:href="$classIopx_1_1DatabaseIO.html#a84d2d1d0a4214b47d53e3a11533598bb" xlink:title="Iopx::DatabaseIO::get\l_edgesets">
<polygon fill="#ffffff" stroke="#000000" points="475.6045,-70.9796 475.6045,-98.9796 588.8848,-98.9796 588.8848,-70.9796 475.6045,-70.9796"/>
<text text-anchor="start" x="483.6045" y="-86.9796" font-family="Helvetica,sans-Serif" font-size="10.00" fill="#000000">Iopx::DatabaseIO::get</text>
<text text-anchor="middle" x="532.2446" y="-76.9796" font-family="Helvetica,sans-Serif" font-size="10.00" fill="#000000">_edgesets</text>
</a>
</g>
</g>
<!-- Node58&#45;&gt;Node60 -->
<g id="edge28" class="edge">
<title>Node58&#45;&gt;Node60</title>
<path fill="none" stroke="#191970" d="M411.8018,-120.0896C433.8,-113.677 461.0824,-105.7239 484.1157,-99.0096"/>
<polygon fill="#191970" stroke="#191970" points="410.7215,-116.7587 402.1006,-122.9175 412.6806,-123.479 410.7215,-116.7587"/>
</g>
<!-- Node61 -->
<g id="node21" class="node">
<title>Node61</title>
<g id="a_node21"><a xlink:href="$classIopx_1_1DatabaseIO.html#a7d07698ca15aca274f7b70450a9b06cd" xlink:title="Iopx::DatabaseIO::get\l_facesets">
<polygon fill="#ffffff" stroke="#000000" points="475.6045,-23.9796 475.6045,-51.9796 588.8848,-51.9796 588.8848,-23.9796 475.6045,-23.9796"/>
<text text-anchor="start" x="483.6045" y="-39.9796" font-family="Helvetica,sans-Serif" font-size="10.00" fill="#000000">Iopx::DatabaseIO::get</text>
<text text-anchor="middle" x="532.2446" y="-29.9796" font-family="Helvetica,sans-Serif" font-size="10.00" fill="#000000">_facesets</text>
</a>
</g>
</g>
<!-- Node58&#45;&gt;Node61 -->
<g id="edge30" class="edge">
<title>Node58&#45;&gt;Node61</title>
<path fill="none" stroke="#191970" d="M390.9354,-116.5814C411.4082,-101.2159 444.5847,-77.5673 475.6045,-60.9796 481.5943,-57.7766 488.1292,-54.7376 494.5623,-51.9808"/>
<polygon fill="#191970" stroke="#191970" points="388.5794,-113.9756 382.7294,-122.8089 392.8111,-119.5517 388.5794,-113.9756"/>
</g>
<!-- Node62 -->
<g id="node22" class="node">
<title>Node62</title>
<g id="a_node22"><a xlink:href="$classIopx_1_1DatabaseIO.html#ac0b8713a8e4b212a855d2feb0cc1c82c" xlink:title="Iopx::DatabaseIO::get\l_elemsets">
<polygon fill="#ffffff" stroke="#000000" points="475.6045,-164.9796 475.6045,-192.9796 588.8848,-192.9796 588.8848,-164.9796 475.6045,-164.9796"/>
<text text-anchor="start" x="483.6045" y="-180.9796" font-family="Helvetica,sans-Serif" font-size="10.00" fill="#000000">Iopx::DatabaseIO::get</text>
<text text-anchor="middle" x="532.2446" y="-170.9796" font-family="Helvetica,sans-Serif" font-size="10.00" fill="#000000">_elemsets</text>
</a>
</g>
</g>
<!-- Node58&#45;&gt;Node62 -->
<g id="edge32" class="edge">
<title>Node58&#45;&gt;Node62</title>
<path fill="none" stroke="#191970" d="M411.8018,-143.8697C433.8,-150.2823 461.0824,-158.2353 484.1157,-164.9497"/>
<polygon fill="#191970" stroke="#191970" points="412.6806,-140.4802 402.1006,-141.0417 410.7215,-147.2005 412.6806,-140.4802"/>
</g>
<!-- Node59&#45;&gt;Node56 -->
<g id="edge27" class="edge">
<title>Node59&#45;&gt;Node56</title>
<path fill="none" stroke="#191970" d="M599.2274,-131.9796C607.7238,-131.9796 616.375,-131.9796 624.7497,-131.9796"/>
<polygon fill="#191970" stroke="#191970" points="598.9693,-128.4797 588.9693,-131.9796 598.9692,-135.4797 598.9693,-128.4797"/>
</g>
<!-- Node60&#45;&gt;Node56 -->
<g id="edge29" class="edge">
<title>Node60&#45;&gt;Node56</title>
<path fill="none" stroke="#191970" d="M587.7098,-102.0921C604.6213,-107.3098 623.0064,-112.982 639.1704,-117.9691"/>
<polygon fill="#191970" stroke="#191970" points="588.5382,-98.6849 577.9507,-99.0812 586.4744,-105.3738 588.5382,-98.6849"/>
</g>
<!-- Node61&#45;&gt;Node56 -->
<g id="edge31" class="edge">
<title>Node61&#45;&gt;Node56</title>
<path fill="none" stroke="#191970" d="M579.9475,-56.3139C583.0125,-57.8089 586.0166,-59.3677 588.8848,-60.9796 618.6414,-77.7033 649.7942,-102.364 668.182,-117.783"/>
<polygon fill="#191970" stroke="#191970" points="581.1919,-53.0338 570.6446,-52.0316 578.2649,-59.3925 581.1919,-53.0338"/>
</g>
<!-- Node62&#45;&gt;Node56 -->
<g id="edge33" class="edge">
<title>Node62&#45;&gt;Node56</title>
<path fill="none" stroke="#191970" d="M587.7098,-161.8671C604.6213,-156.6495 623.0064,-150.9772 639.1704,-145.9902"/>
<polygon fill="#191970" stroke="#191970" points="586.4744,-158.5854 577.9507,-164.8781 588.5382,-165.2743 586.4744,-158.5854"/>
</g>
<!-- Node63&#45;&gt;Node45 -->
<g id="edge35" class="edge">
<title>Node63&#45;&gt;Node45</title>
<path fill="none" stroke="#191970" d="M583.2975,-292.5994C585.2527,-293.973 587.126,-295.4318 588.8848,-296.9796 638.1304,-340.3187 668.6405,-415.3783 679.7857,-446.6546"/>
<polygon fill="#191970" stroke="#191970" points="584.6604,-289.3309 574.301,-287.1099 581.0143,-295.3064 584.6604,-289.3309"/>
</g>
<!-- Node63&#45;&gt;Node56 -->
<g id="edge36" class="edge">
<title>Node63&#45;&gt;Node56</title>
<path fill="none" stroke="#191970" d="M583.1291,-253.8634C585.1205,-252.6339 587.0485,-251.3398 588.8848,-249.9796 628.7307,-220.4634 661.6628,-170.6609 676.3466,-146.286"/>
<polygon fill="#191970" stroke="#191970" points="581.1527,-250.9561 574.0804,-258.8449 584.5286,-257.0883 581.1527,-250.9561"/>
</g>
</g>
</svg>
