<?xml version="1.0" encoding="UTF-8" standalone="no"?>
<!DOCTYPE svg PUBLIC "-//W3C//DTD SVG 1.1//EN"
 "http://www.w3.org/Graphics/SVG/1.1/DTD/svg11.dtd">
<!-- Generated by graphviz version 2.42.3 (20191010.1750)
 -->
<!-- Title: src/Ioss_SerializeIO.h Pages: 1 -->
<svg width="1343pt" height="147pt"
 viewBox="0.00 0.00 1343.44 147.00" xmlns="http://www.w3.org/2000/svg" xmlns:xlink="http://www.w3.org/1999/xlink">
<g id="graph0" class="graph" transform="scale(1 1) rotate(0) translate(4 143)">
<title>src/Ioss_SerializeIO.h</title>
<polygon fill="white" stroke="transparent" points="-4,4 -4,-143 1339.44,-143 1339.44,4 -4,4"/>
<!-- Node1 -->
<g id="node1" class="node">
<title>Node1</title>
<g id="a_node1"><a xlink:title=" ">
<polygon fill="#bfbfbf" stroke="black" points="648.96,-120.5 648.96,-138.5 762.22,-138.5 762.22,-120.5 648.96,-120.5"/>
<text text-anchor="middle" x="705.59" y="-126.5" font-family="Helvetica,sans-Serif" font-size="10.00">src/Ioss_SerializeIO.h</text>
</a>
</g>
</g>
<!-- Node2 -->
<g id="node2" class="node">
<title>Node2</title>
<g id="a_node2"><a xlink:href="Ioad__DatabaseIO_8C.html" target="_top" xlink:title=" ">
<polygon fill="white" stroke="black" points="0,-65.5 0,-83.5 147.18,-83.5 147.18,-65.5 0,-65.5"/>
<text text-anchor="middle" x="73.59" y="-71.5" font-family="Helvetica,sans-Serif" font-size="10.00">src/adios/Ioad_DatabaseIO.C</text>
</a>
</g>
</g>
<!-- Node1&#45;&gt;Node2 -->
<g id="edge1" class="edge">
<title>Node1&#45;&gt;Node2</title>
<path fill="none" stroke="midnightblue" d="M638.95,-123.6C535.45,-115.87 329.84,-100.08 155.59,-84 152.88,-83.75 150.13,-83.49 147.34,-83.22"/>
<polygon fill="midnightblue" stroke="midnightblue" points="638.71,-127.09 648.94,-124.34 639.23,-120.11 638.71,-127.09"/>
</g>
<!-- Node3 -->
<g id="node3" class="node">
<title>Node3</title>
<g id="a_node3"><a xlink:href="Iofx__DatabaseIO_8C.html" target="_top" xlink:title=" ">
<polygon fill="white" stroke="black" points="164.83,-65.5 164.83,-83.5 320.35,-83.5 320.35,-65.5 164.83,-65.5"/>
<text text-anchor="middle" x="242.59" y="-71.5" font-family="Helvetica,sans-Serif" font-size="10.00">src/exo_fpp/Iofx_DatabaseIO.C</text>
</a>
</g>
</g>
<!-- Node1&#45;&gt;Node3 -->
<g id="edge2" class="edge">
<title>Node1&#45;&gt;Node3</title>
<path fill="none" stroke="midnightblue" d="M638.82,-120.86C552.01,-110.92 401.1,-93.64 312.69,-83.52"/>
<polygon fill="midnightblue" stroke="midnightblue" points="638.48,-124.34 648.82,-122 639.28,-117.39 638.48,-124.34"/>
</g>
<!-- Node4 -->
<g id="node4" class="node">
<title>Node4</title>
<g id="a_node4"><a xlink:href="Ioex__DatabaseIO_8C.html" target="_top" xlink:title=" ">
<polygon fill="white" stroke="black" points="338.11,-65.5 338.11,-83.5 493.07,-83.5 493.07,-65.5 338.11,-65.5"/>
<text text-anchor="middle" x="415.59" y="-71.5" font-family="Helvetica,sans-Serif" font-size="10.00">src/exodus/Ioex_DatabaseIO.C</text>
</a>
</g>
</g>
<!-- Node1&#45;&gt;Node4 -->
<g id="edge3" class="edge">
<title>Node1&#45;&gt;Node4</title>
<path fill="none" stroke="midnightblue" d="M651.56,-118.63C596.15,-108.5 511.01,-92.94 459.57,-83.54"/>
<polygon fill="midnightblue" stroke="midnightblue" points="651.08,-122.1 661.55,-120.45 652.34,-115.21 651.08,-122.1"/>
</g>
<!-- Node5 -->
<g id="node5" class="node">
<title>Node5</title>
<g id="a_node5"><a xlink:href="Ioss__DatabaseIO_8C.html" target="_top" xlink:title=" ">
<polygon fill="white" stroke="black" points="510.9,-65.5 510.9,-83.5 630.28,-83.5 630.28,-65.5 510.9,-65.5"/>
<text text-anchor="middle" x="570.59" y="-71.5" font-family="Helvetica,sans-Serif" font-size="10.00">src/Ioss_DatabaseIO.C</text>
</a>
</g>
</g>
<!-- Node1&#45;&gt;Node5 -->
<g id="edge4" class="edge">
<title>Node1&#45;&gt;Node5</title>
<path fill="none" stroke="midnightblue" d="M675.5,-116.69C649.88,-106.63 613.77,-92.45 591.29,-83.63"/>
<polygon fill="midnightblue" stroke="midnightblue" points="674.5,-120.05 685.09,-120.45 677.06,-113.54 674.5,-120.05"/>
</g>
<!-- Node6 -->
<g id="node6" class="node">
<title>Node6</title>
<g id="a_node6"><a xlink:href="Ioss__SerializeIO_8C.html" target="_top" xlink:title=" ">
<polygon fill="white" stroke="black" points="648.13,-65.5 648.13,-83.5 763.05,-83.5 763.05,-65.5 648.13,-65.5"/>
<text text-anchor="middle" x="705.59" y="-71.5" font-family="Helvetica,sans-Serif" font-size="10.00">src/Ioss_SerializeIO.C</text>
</a>
</g>
</g>
<!-- Node1&#45;&gt;Node6 -->
<g id="edge5" class="edge">
<title>Node1&#45;&gt;Node6</title>
<path fill="none" stroke="midnightblue" d="M705.59,-110.17C705.59,-101.09 705.59,-90.59 705.59,-83.55"/>
<polygon fill="midnightblue" stroke="midnightblue" points="702.09,-110.22 705.59,-120.22 709.09,-110.22 702.09,-110.22"/>
</g>
<!-- Node7 -->
<g id="node7" class="node">
<title>Node7</title>
<g id="a_node7"><a xlink:href="Ioss__SubSystem_8h.html" target="_top" xlink:title=" ">
<polygon fill="white" stroke="black" points="818.85,-65.5 818.85,-83.5 934.33,-83.5 934.33,-65.5 818.85,-65.5"/>
<text text-anchor="middle" x="876.59" y="-71.5" font-family="Helvetica,sans-Serif" font-size="10.00">src/Ioss_SubSystem.h</text>
</a>
</g>
</g>
<!-- Node1&#45;&gt;Node7 -->
<g id="edge6" class="edge">
<title>Node1&#45;&gt;Node7</title>
<path fill="none" stroke="midnightblue" d="M741.18,-117.47C773.84,-107.35 821.46,-92.59 850.66,-83.54"/>
<polygon fill="midnightblue" stroke="midnightblue" points="740.08,-114.15 731.56,-120.45 742.15,-120.83 740.08,-114.15"/>
</g>
<!-- Node11 -->
<g id="node11" class="node">
<title>Node11</title>
<g id="a_node11"><a xlink:href="io__shell_8C.html" target="_top" xlink:title=" ">
<polygon fill="white" stroke="black" points="300.35,-5.5 300.35,-23.5 400.83,-23.5 400.83,-5.5 300.35,-5.5"/>
<text text-anchor="middle" x="350.59" y="-11.5" font-family="Helvetica,sans-Serif" font-size="10.00">src/main/io_shell.C</text>
</a>
</g>
</g>
<!-- Node1&#45;&gt;Node11 -->
<g id="edge15" class="edge">
<title>Node1&#45;&gt;Node11</title>
<path fill="none" stroke="midnightblue" d="M734.28,-116.07C759.09,-103.63 788.53,-83.71 771.59,-65 717.33,-5.07 489.37,-42.04 409.59,-29 400.67,-27.54 391.09,-25.54 382.29,-23.52"/>
<polygon fill="midnightblue" stroke="midnightblue" points="732.61,-112.98 725.1,-120.45 735.63,-119.3 732.61,-112.98"/>
</g>
<!-- Node12 -->
<g id="node12" class="node">
<title>Node12</title>
<g id="a_node12"><a xlink:href="io__shell__ts_8C.html" target="_top" xlink:title=" ">
<polygon fill="white" stroke="black" points="1095.68,-5.5 1095.68,-23.5 1209.5,-23.5 1209.5,-5.5 1095.68,-5.5"/>
<text text-anchor="middle" x="1152.59" y="-11.5" font-family="Helvetica,sans-Serif" font-size="10.00">src/main/io_shell_ts.C</text>
</a>
</g>
</g>
<!-- Node1&#45;&gt;Node12 -->
<g id="edge16" class="edge">
<title>Node1&#45;&gt;Node12</title>
<path fill="none" stroke="midnightblue" d="M769.89,-118.84C818.07,-111.03 885.43,-98.9 943.59,-84 1013.32,-66.14 1093.68,-37.44 1131.2,-23.55"/>
<polygon fill="midnightblue" stroke="midnightblue" points="769.23,-115.4 759.91,-120.44 770.34,-122.31 769.23,-115.4"/>
</g>
<!-- Node15 -->
<g id="node15" class="node">
<title>Node15</title>
<g id="a_node15"><a xlink:href="Iovs__DatabaseIO_8C.html" target="_top" xlink:title=" ">
<polygon fill="white" stroke="black" points="1227.74,-0.5 1227.74,-28.5 1335.44,-28.5 1335.44,-0.5 1227.74,-0.5"/>
<text text-anchor="start" x="1235.74" y="-16.5" font-family="Helvetica,sans-Serif" font-size="10.00">src/visualization/Iovs</text>
<text text-anchor="middle" x="1281.59" y="-6.5" font-family="Helvetica,sans-Serif" font-size="10.00">_DatabaseIO.C</text>
</a>
</g>
</g>
<!-- Node1&#45;&gt;Node15 -->
<g id="edge17" class="edge">
<title>Node1&#45;&gt;Node15</title>
<path fill="none" stroke="midnightblue" d="M772.47,-119.46C830.18,-111.32 915.66,-98.44 989.59,-84 1074.94,-67.33 1173.19,-43.26 1231.2,-28.54"/>
<polygon fill="midnightblue" stroke="midnightblue" points="771.8,-116.02 762.39,-120.88 772.78,-122.96 771.8,-116.02"/>
</g>
<!-- Node8 -->
<g id="node8" class="node">
<title>Node8</title>
<g id="a_node8"><a xlink:href="Ut__ioad_8C.html" target="_top" xlink:title=" ">
<polygon fill="white" stroke="black" points="595.97,-0.5 595.97,-28.5 689.22,-28.5 689.22,-0.5 595.97,-0.5"/>
<text text-anchor="start" x="603.97" y="-16.5" font-family="Helvetica,sans-Serif" font-size="10.00">src/adios/utest/Ut</text>
<text text-anchor="middle" x="642.59" y="-6.5" font-family="Helvetica,sans-Serif" font-size="10.00">_ioad.C</text>
</a>
</g>
</g>
<!-- Node7&#45;&gt;Node8 -->
<g id="edge7" class="edge">
<title>Node7&#45;&gt;Node8</title>
<path fill="none" stroke="midnightblue" d="M834.14,-62.98C793.28,-52.85 731.64,-37.57 689.38,-27.1"/>
<polygon fill="midnightblue" stroke="midnightblue" points="833.51,-66.43 844.05,-65.44 835.19,-59.63 833.51,-66.43"/>
</g>
<!-- Node9 -->
<g id="node9" class="node">
<title>Node9</title>
<g id="a_node9"><a xlink:href="Iodw__DatabaseIO_8C.html" target="_top" xlink:title=" ">
<polygon fill="white" stroke="black" points="707.18,-0.5 707.18,-28.5 816,-28.5 816,-0.5 707.18,-0.5"/>
<text text-anchor="start" x="715.18" y="-16.5" font-family="Helvetica,sans-Serif" font-size="10.00">src/data_warehouse</text>
<text text-anchor="middle" x="761.59" y="-6.5" font-family="Helvetica,sans-Serif" font-size="10.00">/Iodw_DatabaseIO.C</text>
</a>
</g>
</g>
<!-- Node7&#45;&gt;Node9 -->
<g id="edge8" class="edge">
<title>Node7&#45;&gt;Node9</title>
<path fill="none" stroke="midnightblue" d="M851.42,-60.8C832.51,-51.27 806.71,-38.25 787.61,-28.62"/>
<polygon fill="midnightblue" stroke="midnightblue" points="850.1,-64.06 860.6,-65.44 853.25,-57.81 850.1,-64.06"/>
</g>
<!-- Node10 -->
<g id="node10" class="node">
<title>Node10</title>
<g id="a_node10"><a xlink:href="Ioss__Utils_8C.html" target="_top" xlink:title=" ">
<polygon fill="white" stroke="black" points="833.86,-5.5 833.86,-23.5 919.32,-23.5 919.32,-5.5 833.86,-5.5"/>
<text text-anchor="middle" x="876.59" y="-11.5" font-family="Helvetica,sans-Serif" font-size="10.00">src/Ioss_Utils.C</text>
</a>
</g>
</g>
<!-- Node7&#45;&gt;Node10 -->
<g id="edge9" class="edge">
<title>Node7&#45;&gt;Node10</title>
<path fill="none" stroke="midnightblue" d="M876.59,-55.21C876.59,-44.71 876.59,-32.03 876.59,-23.87"/>
<polygon fill="midnightblue" stroke="midnightblue" points="873.09,-55.44 876.59,-65.44 880.09,-55.44 873.09,-55.44"/>
</g>
<!-- Node7&#45;&gt;Node11 -->
<g id="edge10" class="edge">
<title>Node7&#45;&gt;Node11</title>
<path fill="none" stroke="midnightblue" d="M808.53,-65.42C807.21,-65.28 805.89,-65.14 804.59,-65 629.26,-46.66 583.68,-56.72 409.59,-29 400.56,-27.56 390.86,-25.54 381.98,-23.5"/>
<polygon fill="midnightblue" stroke="midnightblue" points="808.52,-68.94 818.84,-66.54 809.28,-61.98 808.52,-68.94"/>
</g>
<!-- Node7&#45;&gt;Node12 -->
<g id="edge11" class="edge">
<title>Node7&#45;&gt;Node12</title>
<path fill="none" stroke="midnightblue" d="M924.68,-63.39C978.61,-52.06 1064.97,-33.91 1114.45,-23.51"/>
<polygon fill="midnightblue" stroke="midnightblue" points="923.74,-60.01 914.68,-65.5 925.18,-66.86 923.74,-60.01"/>
</g>
<!-- Node13 -->
<g id="node13" class="node">
<title>Node13</title>
<g id="a_node13"><a xlink:href="struc__to__unstruc_8C.html" target="_top" xlink:title=" ">
<polygon fill="white" stroke="black" points="937.35,-5.5 937.35,-23.5 1077.83,-23.5 1077.83,-5.5 937.35,-5.5"/>
<text text-anchor="middle" x="1007.59" y="-11.5" font-family="Helvetica,sans-Serif" font-size="10.00">src/main/struc_to_unstruc.C</text>
</a>
</g>
</g>
<!-- Node7&#45;&gt;Node13 -->
<g id="edge12" class="edge">
<title>Node7&#45;&gt;Node13</title>
<path fill="none" stroke="midnightblue" d="M903.96,-61.38C929.5,-50.07 966.92,-33.51 989.11,-23.68"/>
<polygon fill="midnightblue" stroke="midnightblue" points="902.53,-58.19 894.81,-65.44 905.37,-64.59 902.53,-58.19"/>
</g>
<!-- Node14 -->
<g id="node14" class="node">
<title>Node14</title>
<g id="a_node14"><a xlink:href="Iopg__DatabaseIO_8C.html" target="_top" xlink:title=" ">
<polygon fill="white" stroke="black" points="418.88,-5.5 418.88,-23.5 578.3,-23.5 578.3,-5.5 418.88,-5.5"/>
<text text-anchor="middle" x="498.59" y="-11.5" font-family="Helvetica,sans-Serif" font-size="10.00">src/pamgen/Iopg_DatabaseIO.C</text>
</a>
</g>
</g>
<!-- Node7&#45;&gt;Node14 -->
<g id="edge13" class="edge">
<title>Node7&#45;&gt;Node14</title>
<path fill="none" stroke="midnightblue" d="M814.38,-63.95C740.82,-52.67 619.72,-34.09 550.82,-23.51"/>
<polygon fill="midnightblue" stroke="midnightblue" points="814.01,-67.44 824.43,-65.5 815.07,-60.52 814.01,-67.44"/>
</g>
<!-- Node7&#45;&gt;Node15 -->
<g id="edge14" class="edge">
<title>Node7&#45;&gt;Node15</title>
<path fill="none" stroke="midnightblue" d="M944.93,-66.27C1014.14,-58.56 1124.15,-45.23 1218.59,-29 1221.57,-28.49 1224.62,-27.93 1227.69,-27.35"/>
<polygon fill="midnightblue" stroke="midnightblue" points="944.15,-62.84 934.6,-67.41 944.92,-69.79 944.15,-62.84"/>
</g>
</g>
</svg>
