<?xml version="1.0" encoding="UTF-8" standalone="no"?>
<!DOCTYPE svg PUBLIC "-//W3C//DTD SVG 1.1//EN"
 "http://www.w3.org/Graphics/SVG/1.1/DTD/svg11.dtd">
<!-- Generated by graphviz version 2.42.3 (20191010.1750)
 -->
<!-- Title: src/Ioss_NodeSet.h Pages: 1 -->
<!--zoomable 157 -->
<svg id="main" version="1.1" xmlns="http://www.w3.org/2000/svg" xmlns:xlink="http://www.w3.org/1999/xlink" xml:space="preserve" onload="init(evt)">
<style type="text/css"><![CDATA[
.edge:hover path { stroke: red; }
.edge:hover polygon { stroke: red; fill: red; }
]]></style>
<script type="text/javascript"><![CDATA[
var edges = document.getElementsByTagName('g');
if (edges && edges.length) {
  for (var i=0;i<edges.length;i++) {
    if (edges[i].id.substr(0,4)=='edge') {
      edges[i].setAttribute('class','edge');
    }
  }
}
]]></script>
        <defs>
                <circle id="rim" cx="0" cy="0" r="7"/>
                <circle id="rim2" cx="0" cy="0" r="3.5"/>
                <g id="zoomPlus">
                        <use xlink:href="#rim" fill="#404040">
                                <set attributeName="fill" to="#808080" begin="zoomplus.mouseover" end="zoomplus.mouseout"/>
                        </use>
                        <path d="M-4,0h8M0,-4v8" fill="none" stroke="white" stroke-width="1.5" pointer-events="none"/>
                </g>
                <g id="zoomMin">
                        <use xlink:href="#rim" fill="#404040">
                                <set attributeName="fill" to="#808080" begin="zoomminus.mouseover" end="zoomminus.mouseout"/>
                        </use>
                        <path d="M-4,0h8" fill="none" stroke="white" stroke-width="1.5" pointer-events="none"/>
                </g>
                <g id="dirArrow">
                        <path fill="none" stroke="white" stroke-width="1.5" d="M0,-3.0v7 M-2.5,-0.5L0,-3.0L2.5,-0.5"/>
                </g>
               <g id="resetDef">
                       <use xlink:href="#rim2" fill="#404040">
                               <set attributeName="fill" to="#808080" begin="reset.mouseover" end="reset.mouseout"/>
                       </use>
               </g>
        </defs>

<script type="text/javascript">
var viewWidth = 2284;
var viewHeight = 157;
var sectionId = 'dynsection-1';
</script>
<script xlink:href="svgpan.js"/>
<svg id="graph" class="graph">
<g id="viewport">
<title>src/Ioss_NodeSet.h</title>
<polygon fill="white" stroke="transparent" points="-4,4 -4,-153 2279.56,-153 2279.56,4 -4,4"/>
<!-- Node1 -->
<g id="node1" class="node">
<title>Node1</title>
<g id="a_node1"><a xlink:title=" ">
<polygon fill="#bfbfbf" stroke="black" points="1165.96,-130.5 1165.96,-148.5 1269.22,-148.5 1269.22,-130.5 1165.96,-130.5"/>
<text text-anchor="middle" x="1217.59" y="-136.5" font-family="Helvetica,sans-Serif" font-size="10.00">src/Ioss_NodeSet.h</text>
</a>
</g>
</g>
<!-- Node2 -->
<g id="node2" class="node">
<title>Node2</title>
<g id="a_node2"><a xlink:href="Ioad__DatabaseIO_8C.html" target="_top" xlink:title=" ">
<polygon fill="white" stroke="black" points="0,-70.5 0,-88.5 147.18,-88.5 147.18,-70.5 0,-70.5"/>
<text text-anchor="middle" x="73.59" y="-76.5" font-family="Helvetica,sans-Serif" font-size="10.00">src/adios/Ioad_DatabaseIO.C</text>
</a>
</g>
</g>
<!-- Node1&#45;&gt;Node2 -->
<g id="edge1" class="edge">
<title>Node1&#45;&gt;Node2</title>
<path fill="none" stroke="midnightblue" d="M1155.48,-138.27C992.24,-137.14 537.77,-130.67 161.59,-94 147.9,-92.67 133.09,-90.63 119.6,-88.54"/>
<polygon fill="midnightblue" stroke="midnightblue" points="1155.78,-141.77 1165.81,-138.33 1155.83,-134.77 1155.78,-141.77"/>
</g>
<!-- Node3 -->
<g id="node3" class="node">
<title>Node3</title>
<g id="a_node3"><a xlink:href="Ut__ioad_8C.html" target="_top" xlink:title=" ">
<polygon fill="white" stroke="black" points="524.97,-0.5 524.97,-28.5 618.22,-28.5 618.22,-0.5 524.97,-0.5"/>
<text text-anchor="start" x="532.97" y="-16.5" font-family="Helvetica,sans-Serif" font-size="10.00">src/adios/utest/Ut</text>
<text text-anchor="middle" x="571.59" y="-6.5" font-family="Helvetica,sans-Serif" font-size="10.00">_ioad.C</text>
</a>
</g>
</g>
<!-- Node1&#45;&gt;Node3 -->
<g id="edge2" class="edge">
<title>Node1&#45;&gt;Node3</title>
<path fill="none" stroke="midnightblue" d="M1155.39,-138.14C938.64,-136.57 227.91,-128.8 194.59,-94 185.68,-84.69 186.09,-74.69 194.59,-65 216.09,-40.5 428.8,-24.34 524.9,-18.23"/>
<polygon fill="midnightblue" stroke="midnightblue" points="1155.61,-141.64 1165.64,-138.21 1155.66,-134.64 1155.61,-141.64"/>
</g>
<!-- Node4 -->
<g id="node4" class="node">
<title>Node4</title>
<g id="a_node4"><a xlink:href="Iocgns__DatabaseIO_8C.html" target="_top" xlink:title=" ">
<polygon fill="white" stroke="black" points="203.39,-70.5 203.39,-88.5 357.79,-88.5 357.79,-70.5 203.39,-70.5"/>
<text text-anchor="middle" x="280.59" y="-76.5" font-family="Helvetica,sans-Serif" font-size="10.00">src/cgns/Iocgns_DatabaseIO.C</text>
</a>
</g>
</g>
<!-- Node1&#45;&gt;Node4 -->
<g id="edge3" class="edge">
<title>Node1&#45;&gt;Node4</title>
<path fill="none" stroke="midnightblue" d="M1155.48,-137.45C1014.74,-134.6 660.88,-124.71 366.59,-94 353.36,-92.62 339.07,-90.59 326,-88.53"/>
<polygon fill="midnightblue" stroke="midnightblue" points="1155.57,-140.95 1165.64,-137.65 1155.71,-133.96 1155.57,-140.95"/>
</g>
<!-- Node5 -->
<g id="node5" class="node">
<title>Node5</title>
<g id="a_node5"><a xlink:href="Iodw__Utils_8C.html" target="_top" xlink:title=" ">
<polygon fill="white" stroke="black" points="375.56,-65.5 375.56,-93.5 481.62,-93.5 481.62,-65.5 375.56,-65.5"/>
<text text-anchor="start" x="383.56" y="-81.5" font-family="Helvetica,sans-Serif" font-size="10.00">src/data_warehouse</text>
<text text-anchor="middle" x="428.59" y="-71.5" font-family="Helvetica,sans-Serif" font-size="10.00">/Iodw_Utils.C</text>
</a>
</g>
</g>
<!-- Node1&#45;&gt;Node5 -->
<g id="edge4" class="edge">
<title>Node1&#45;&gt;Node5</title>
<path fill="none" stroke="midnightblue" d="M1155.54,-137.9C1029.59,-135.98 735.16,-127.91 490.59,-94 487.75,-93.61 484.85,-93.15 481.93,-92.66"/>
<polygon fill="midnightblue" stroke="midnightblue" points="1155.71,-141.4 1165.76,-138.05 1155.81,-134.4 1155.71,-141.4"/>
</g>
<!-- Node6 -->
<g id="node6" class="node">
<title>Node6</title>
<g id="a_node6"><a xlink:href="Ioex__BaseDatabaseIO_8C.html" target="_top" xlink:title=" ">
<polygon fill="white" stroke="black" points="499.71,-70.5 499.71,-88.5 677.47,-88.5 677.47,-70.5 499.71,-70.5"/>
<text text-anchor="middle" x="588.59" y="-76.5" font-family="Helvetica,sans-Serif" font-size="10.00">src/exodus/Ioex_BaseDatabaseIO.C</text>
</a>
</g>
</g>
<!-- Node1&#45;&gt;Node6 -->
<g id="edge5" class="edge">
<title>Node1&#45;&gt;Node6</title>
<path fill="none" stroke="midnightblue" d="M1155.73,-134.39C1056.57,-127.56 855.99,-112.75 686.59,-94 672.42,-92.43 657.14,-90.46 642.95,-88.51"/>
<polygon fill="midnightblue" stroke="midnightblue" points="1155.65,-137.89 1165.87,-135.08 1156.13,-130.91 1155.65,-137.89"/>
</g>
<!-- Node7 -->
<g id="node7" class="node">
<title>Node7</title>
<g id="a_node7"><a xlink:href="Ioex__DatabaseIO_8C.html" target="_top" xlink:title=" ">
<polygon fill="white" stroke="black" points="695.11,-70.5 695.11,-88.5 850.07,-88.5 850.07,-70.5 695.11,-70.5"/>
<text text-anchor="middle" x="772.59" y="-76.5" font-family="Helvetica,sans-Serif" font-size="10.00">src/exodus/Ioex_DatabaseIO.C</text>
</a>
</g>
</g>
<!-- Node1&#45;&gt;Node7 -->
<g id="edge6" class="edge">
<title>Node1&#45;&gt;Node7</title>
<path fill="none" stroke="midnightblue" d="M1155.6,-131.43C1083.98,-123.13 962.62,-108.61 858.59,-94 846.77,-92.34 834.05,-90.42 822.12,-88.56"/>
<polygon fill="midnightblue" stroke="midnightblue" points="1155.46,-134.94 1165.8,-132.61 1156.27,-127.99 1155.46,-134.94"/>
</g>
<!-- Node8 -->
<g id="node8" class="node">
<title>Node8</title>
<g id="a_node8"><a xlink:href="Ioex__Internals_8C.html" target="_top" xlink:title=" ">
<polygon fill="white" stroke="black" points="867.62,-70.5 867.62,-88.5 1007.57,-88.5 1007.57,-70.5 867.62,-70.5"/>
<text text-anchor="middle" x="937.59" y="-76.5" font-family="Helvetica,sans-Serif" font-size="10.00">src/exodus/Ioex_Internals.C</text>
</a>
</g>
</g>
<!-- Node1&#45;&gt;Node8 -->
<g id="edge7" class="edge">
<title>Node1&#45;&gt;Node8</title>
<path fill="none" stroke="midnightblue" d="M1169.14,-128.46C1114.46,-117.14 1026.59,-98.93 976.28,-88.51"/>
<polygon fill="midnightblue" stroke="midnightblue" points="1168.45,-131.9 1178.95,-130.5 1169.87,-125.04 1168.45,-131.9"/>
</g>
<!-- Node9 -->
<g id="node9" class="node">
<title>Node9</title>
<g id="a_node9"><a xlink:href="Ioex__ParallelDatabaseIO_8C.html" target="_top" xlink:title=" ">
<polygon fill="white" stroke="black" points="1025.12,-65.5 1025.12,-93.5 1150.06,-93.5 1150.06,-65.5 1025.12,-65.5"/>
<text text-anchor="start" x="1033.12" y="-81.5" font-family="Helvetica,sans-Serif" font-size="10.00">src/exodus/Ioex_Parallel</text>
<text text-anchor="middle" x="1087.59" y="-71.5" font-family="Helvetica,sans-Serif" font-size="10.00">DatabaseIO.C</text>
</a>
</g>
</g>
<!-- Node1&#45;&gt;Node9 -->
<g id="edge8" class="edge">
<title>Node1&#45;&gt;Node9</title>
<path fill="none" stroke="midnightblue" d="M1190.3,-126.32C1168.84,-116.75 1138.99,-103.43 1117,-93.62"/>
<polygon fill="midnightblue" stroke="midnightblue" points="1188.96,-129.56 1199.51,-130.44 1191.81,-123.16 1188.96,-129.56"/>
</g>
<!-- Node10 -->
<g id="node10" class="node">
<title>Node10</title>
<g id="a_node10"><a xlink:href="Iogn__DatabaseIO_8C.html" target="_top" xlink:title=" ">
<polygon fill="white" stroke="black" points="1167.9,-65.5 1167.9,-93.5 1267.29,-93.5 1267.29,-65.5 1167.9,-65.5"/>
<text text-anchor="start" x="1175.9" y="-81.5" font-family="Helvetica,sans-Serif" font-size="10.00">src/generated/Iogn</text>
<text text-anchor="middle" x="1217.59" y="-71.5" font-family="Helvetica,sans-Serif" font-size="10.00">_DatabaseIO.C</text>
</a>
</g>
</g>
<!-- Node1&#45;&gt;Node10 -->
<g id="edge9" class="edge">
<title>Node1&#45;&gt;Node10</title>
<path fill="none" stroke="midnightblue" d="M1217.59,-120.32C1217.59,-111.75 1217.59,-101.7 1217.59,-93.84"/>
<polygon fill="midnightblue" stroke="midnightblue" points="1214.09,-120.44 1217.59,-130.44 1221.09,-120.44 1214.09,-120.44"/>
</g>
<!-- Node11 -->
<g id="node11" class="node">
<title>Node11</title>
<g id="a_node11"><a xlink:href="Ioss__NodeSet_8C.html" target="_top" xlink:title=" ">
<polygon fill="white" stroke="black" points="1285.13,-70.5 1285.13,-88.5 1390.05,-88.5 1390.05,-70.5 1285.13,-70.5"/>
<text text-anchor="middle" x="1337.59" y="-76.5" font-family="Helvetica,sans-Serif" font-size="10.00">src/Ioss_NodeSet.C</text>
</a>
</g>
</g>
<!-- Node1&#45;&gt;Node11 -->
<g id="edge10" class="edge">
<title>Node1&#45;&gt;Node11</title>
<path fill="none" stroke="midnightblue" d="M1243.28,-126.08C1266.66,-114.78 1300.51,-98.42 1320.66,-88.68"/>
<polygon fill="midnightblue" stroke="midnightblue" points="1241.76,-122.93 1234.28,-130.44 1244.8,-129.23 1241.76,-122.93"/>
</g>
<!-- Node12 -->
<g id="node12" class="node">
<title>Node12</title>
<g id="a_node12"><a xlink:href="Ioss__Region_8C.html" target="_top" xlink:title=" ">
<polygon fill="white" stroke="black" points="1407.74,-70.5 1407.74,-88.5 1505.44,-88.5 1505.44,-70.5 1407.74,-70.5"/>
<text text-anchor="middle" x="1456.59" y="-76.5" font-family="Helvetica,sans-Serif" font-size="10.00">src/Ioss_Region.C</text>
</a>
</g>
</g>
<!-- Node1&#45;&gt;Node12 -->
<g id="edge11" class="edge">
<title>Node1&#45;&gt;Node12</title>
<path fill="none" stroke="midnightblue" d="M1260.64,-128.05C1307.31,-116.73 1380.79,-98.9 1423.26,-88.59"/>
<polygon fill="midnightblue" stroke="midnightblue" points="1259.72,-124.68 1250.82,-130.44 1261.37,-131.48 1259.72,-124.68"/>
</g>
<!-- Node13 -->
<g id="node13" class="node">
<title>Node13</title>
<g id="a_node13"><a xlink:href="Ioss__SubSystem_8h.html" target="_top" xlink:title=" ">
<polygon fill="white" stroke="black" points="1523.85,-70.5 1523.85,-88.5 1639.33,-88.5 1639.33,-70.5 1523.85,-70.5"/>
<text text-anchor="middle" x="1581.59" y="-76.5" font-family="Helvetica,sans-Serif" font-size="10.00">src/Ioss_SubSystem.h</text>
</a>
</g>
</g>
<!-- Node1&#45;&gt;Node13 -->
<g id="edge12" class="edge">
<title>Node1&#45;&gt;Node13</title>
<path fill="none" stroke="midnightblue" d="M1279.32,-130.17C1339.49,-121.83 1433.52,-108.23 1514.59,-94 1523.94,-92.36 1533.99,-90.42 1543.39,-88.54"/>
<polygon fill="midnightblue" stroke="midnightblue" points="1278.65,-126.73 1269.23,-131.56 1279.61,-133.66 1278.65,-126.73"/>
</g>
<!-- Node21 -->
<g id="node21" class="node">
<title>Node21</title>
<g id="a_node21"><a xlink:href="cth__pressure__map_8C.html" target="_top" xlink:title=" ">
<polygon fill="white" stroke="black" points="1657.41,-65.5 1657.41,-93.5 1771.78,-93.5 1771.78,-65.5 1657.41,-65.5"/>
<text text-anchor="start" x="1665.41" y="-81.5" font-family="Helvetica,sans-Serif" font-size="10.00">src/main/cth_pressure</text>
<text text-anchor="middle" x="1714.59" y="-71.5" font-family="Helvetica,sans-Serif" font-size="10.00">_map.C</text>
</a>
</g>
</g>
<!-- Node1&#45;&gt;Node21 -->
<g id="edge21" class="edge">
<title>Node1&#45;&gt;Node21</title>
<path fill="none" stroke="midnightblue" d="M1279.68,-134.03C1363.66,-127.54 1517.97,-114.05 1648.59,-94 1651.37,-93.57 1654.2,-93.11 1657.06,-92.62"/>
<polygon fill="midnightblue" stroke="midnightblue" points="1279.25,-130.55 1269.55,-134.8 1279.79,-137.53 1279.25,-130.55"/>
</g>
<!-- Node22 -->
<g id="node22" class="node">
<title>Node22</title>
<g id="a_node22"><a xlink:href="io__info_8h.html" target="_top" xlink:title=" ">
<polygon fill="white" stroke="black" points="1789.41,-70.5 1789.41,-88.5 1883.78,-88.5 1883.78,-70.5 1789.41,-70.5"/>
<text text-anchor="middle" x="1836.59" y="-76.5" font-family="Helvetica,sans-Serif" font-size="10.00">src/main/io_info.h</text>
</a>
</g>
</g>
<!-- Node1&#45;&gt;Node22 -->
<g id="edge22" class="edge">
<title>Node1&#45;&gt;Node22</title>
<path fill="none" stroke="midnightblue" d="M1279.55,-136.79C1383.64,-133.22 1599.96,-122.73 1780.59,-94 1789.28,-92.62 1798.62,-90.59 1807.12,-88.53"/>
<polygon fill="midnightblue" stroke="midnightblue" points="1279.41,-133.3 1269.53,-137.13 1279.64,-140.29 1279.41,-133.3"/>
</g>
<!-- Node25 -->
<g id="node25" class="node">
<title>Node25</title>
<g id="a_node25"><a xlink:href="io__modify_8C.html" target="_top" xlink:title=" ">
<polygon fill="white" stroke="black" points="1901.28,-70.5 1901.28,-88.5 2009.9,-88.5 2009.9,-70.5 1901.28,-70.5"/>
<text text-anchor="middle" x="1955.59" y="-76.5" font-family="Helvetica,sans-Serif" font-size="10.00">src/main/io_modify.C</text>
</a>
</g>
</g>
<!-- Node1&#45;&gt;Node25 -->
<g id="edge25" class="edge">
<title>Node1&#45;&gt;Node25</title>
<path fill="none" stroke="midnightblue" d="M1279.55,-137.42C1398.78,-134.68 1668.24,-125.26 1892.59,-94 1902.34,-92.64 1912.83,-90.62 1922.4,-88.56"/>
<polygon fill="midnightblue" stroke="midnightblue" points="1279.43,-133.92 1269.51,-137.64 1279.58,-140.92 1279.43,-133.92"/>
</g>
<!-- Node26 -->
<g id="node26" class="node">
<title>Node26</title>
<g id="a_node26"><a xlink:href="sphgen_8C.html" target="_top" xlink:title=" ">
<polygon fill="white" stroke="black" points="2027.91,-70.5 2027.91,-88.5 2127.28,-88.5 2127.28,-70.5 2027.91,-70.5"/>
<text text-anchor="middle" x="2077.59" y="-76.5" font-family="Helvetica,sans-Serif" font-size="10.00">src/main/sphgen.C</text>
</a>
</g>
</g>
<!-- Node1&#45;&gt;Node26 -->
<g id="edge26" class="edge">
<title>Node1&#45;&gt;Node26</title>
<path fill="none" stroke="midnightblue" d="M1279.58,-138.62C1414.59,-138.1 1745.07,-132.61 2018.59,-94 2027.96,-92.68 2038.03,-90.62 2047.15,-88.5"/>
<polygon fill="midnightblue" stroke="midnightblue" points="1279.42,-135.12 1269.43,-138.65 1279.44,-142.12 1279.42,-135.12"/>
</g>
<!-- Node27 -->
<g id="node27" class="node">
<title>Node27</title>
<g id="a_node27"><a xlink:href="UnitTestIofxDatabaseIO_8C.html" target="_top" xlink:title=" ">
<polygon fill="white" stroke="black" points="2145.63,-65.5 2145.63,-93.5 2275.56,-93.5 2275.56,-65.5 2145.63,-65.5"/>
<text text-anchor="start" x="2153.63" y="-81.5" font-family="Helvetica,sans-Serif" font-size="10.00">src/unit_tests/UnitTestIofx</text>
<text text-anchor="middle" x="2210.59" y="-71.5" font-family="Helvetica,sans-Serif" font-size="10.00">DatabaseIO.C</text>
</a>
</g>
</g>
<!-- Node1&#45;&gt;Node27 -->
<g id="edge27" class="edge">
<title>Node1&#45;&gt;Node27</title>
<path fill="none" stroke="midnightblue" d="M1279.63,-138.32C1428.13,-137.26 1815.61,-130.89 2136.59,-94 2139.45,-93.67 2142.36,-93.3 2145.29,-92.9"/>
<polygon fill="midnightblue" stroke="midnightblue" points="1279.33,-134.82 1269.35,-138.38 1279.37,-141.82 1279.33,-134.82"/>
</g>
<!-- Node13&#45;&gt;Node3 -->
<g id="edge13" class="edge">
<title>Node13&#45;&gt;Node3</title>
<path fill="none" stroke="midnightblue" d="M1536.76,-68.53C1529.38,-67.16 1521.79,-65.91 1514.59,-65 1338.12,-42.71 783.26,-22.64 618.29,-17.04"/>
<polygon fill="midnightblue" stroke="midnightblue" points="1536.14,-71.97 1546.63,-70.45 1537.48,-65.1 1536.14,-71.97"/>
</g>
<!-- Node14 -->
<g id="node14" class="node">
<title>Node14</title>
<g id="a_node14"><a xlink:href="Iodw__DatabaseIO_8C.html" target="_top" xlink:title=" ">
<polygon fill="white" stroke="black" points="1031.18,-0.5 1031.18,-28.5 1140,-28.5 1140,-0.5 1031.18,-0.5"/>
<text text-anchor="start" x="1039.18" y="-16.5" font-family="Helvetica,sans-Serif" font-size="10.00">src/data_warehouse</text>
<text text-anchor="middle" x="1085.59" y="-6.5" font-family="Helvetica,sans-Serif" font-size="10.00">/Iodw_DatabaseIO.C</text>
</a>
</g>
</g>
<!-- Node13&#45;&gt;Node14 -->
<g id="edge14" class="edge">
<title>Node13&#45;&gt;Node14</title>
<path fill="none" stroke="midnightblue" d="M1535.24,-68.53C1528.34,-67.23 1521.29,-66 1514.59,-65 1352.94,-40.83 1310.09,-54.16 1148.59,-29 1145.83,-28.57 1143,-28.09 1140.16,-27.59"/>
<polygon fill="midnightblue" stroke="midnightblue" points="1534.71,-71.99 1545.2,-70.47 1536.05,-65.12 1534.71,-71.99"/>
</g>
<!-- Node15 -->
<g id="node15" class="node">
<title>Node15</title>
<g id="a_node15"><a xlink:href="Ioss__Utils_8C.html" target="_top" xlink:title=" ">
<polygon fill="white" stroke="black" points="1157.86,-5.5 1157.86,-23.5 1243.32,-23.5 1243.32,-5.5 1157.86,-5.5"/>
<text text-anchor="middle" x="1200.59" y="-11.5" font-family="Helvetica,sans-Serif" font-size="10.00">src/Ioss_Utils.C</text>
</a>
</g>
</g>
<!-- Node13&#45;&gt;Node15 -->
<g id="edge15" class="edge">
<title>Node13&#45;&gt;Node15</title>
<path fill="none" stroke="midnightblue" d="M1533.77,-68.49C1527.33,-67.25 1520.81,-66.05 1514.59,-65 1398.7,-45.38 1367.9,-51.81 1252.59,-29 1244.91,-27.48 1236.66,-25.5 1229.06,-23.53"/>
<polygon fill="midnightblue" stroke="midnightblue" points="1533.27,-71.96 1543.75,-70.45 1534.62,-65.09 1533.27,-71.96"/>
</g>
<!-- Node16 -->
<g id="node16" class="node">
<title>Node16</title>
<g id="a_node16"><a xlink:href="io__shell_8C.html" target="_top" xlink:title=" ">
<polygon fill="white" stroke="black" points="1261.35,-5.5 1261.35,-23.5 1361.83,-23.5 1361.83,-5.5 1261.35,-5.5"/>
<text text-anchor="middle" x="1311.59" y="-11.5" font-family="Helvetica,sans-Serif" font-size="10.00">src/main/io_shell.C</text>
</a>
</g>
</g>
<!-- Node13&#45;&gt;Node16 -->
<g id="edge16" class="edge">
<title>Node13&#45;&gt;Node16</title>
<path fill="none" stroke="midnightblue" d="M1537.24,-68.15C1483.77,-55.67 1395.02,-34.97 1346.28,-23.59"/>
<polygon fill="midnightblue" stroke="midnightblue" points="1536.59,-71.59 1547.12,-70.46 1538.18,-64.78 1536.59,-71.59"/>
</g>
<!-- Node17 -->
<g id="node17" class="node">
<title>Node17</title>
<g id="a_node17"><a xlink:href="io__shell__ts_8C.html" target="_top" xlink:title=" ">
<polygon fill="white" stroke="black" points="1379.68,-5.5 1379.68,-23.5 1493.5,-23.5 1493.5,-5.5 1379.68,-5.5"/>
<text text-anchor="middle" x="1436.59" y="-11.5" font-family="Helvetica,sans-Serif" font-size="10.00">src/main/io_shell_ts.C</text>
</a>
</g>
</g>
<!-- Node13&#45;&gt;Node17 -->
<g id="edge17" class="edge">
<title>Node13&#45;&gt;Node17</title>
<path fill="none" stroke="midnightblue" d="M1553.75,-66.4C1524.76,-53.81 1480.16,-34.43 1455.18,-23.58"/>
<polygon fill="midnightblue" stroke="midnightblue" points="1552.36,-69.62 1562.93,-70.39 1555.15,-63.2 1552.36,-69.62"/>
</g>
<!-- Node18 -->
<g id="node18" class="node">
<title>Node18</title>
<g id="a_node18"><a xlink:href="struc__to__unstruc_8C.html" target="_top" xlink:title=" ">
<polygon fill="white" stroke="black" points="1511.35,-5.5 1511.35,-23.5 1651.83,-23.5 1651.83,-5.5 1511.35,-5.5"/>
<text text-anchor="middle" x="1581.59" y="-11.5" font-family="Helvetica,sans-Serif" font-size="10.00">src/main/struc_to_unstruc.C</text>
</a>
</g>
</g>
<!-- Node13&#45;&gt;Node18 -->
<g id="edge18" class="edge">
<title>Node13&#45;&gt;Node18</title>
<path fill="none" stroke="midnightblue" d="M1581.59,-59.91C1581.59,-47.81 1581.59,-32.65 1581.59,-23.54"/>
<polygon fill="midnightblue" stroke="midnightblue" points="1578.09,-60.26 1581.59,-70.26 1585.09,-60.26 1578.09,-60.26"/>
</g>
<!-- Node19 -->
<g id="node19" class="node">
<title>Node19</title>
<g id="a_node19"><a xlink:href="Iopg__DatabaseIO_8C.html" target="_top" xlink:title=" ">
<polygon fill="white" stroke="black" points="1669.88,-5.5 1669.88,-23.5 1829.3,-23.5 1829.3,-5.5 1669.88,-5.5"/>
<text text-anchor="middle" x="1749.59" y="-11.5" font-family="Helvetica,sans-Serif" font-size="10.00">src/pamgen/Iopg_DatabaseIO.C</text>
</a>
</g>
</g>
<!-- Node13&#45;&gt;Node19 -->
<g id="edge19" class="edge">
<title>Node13&#45;&gt;Node19</title>
<path fill="none" stroke="midnightblue" d="M1612.98,-66.73C1646.54,-54.14 1698.86,-34.52 1728.05,-23.58"/>
<polygon fill="midnightblue" stroke="midnightblue" points="1611.34,-63.6 1603.21,-70.39 1613.8,-70.16 1611.34,-63.6"/>
</g>
<!-- Node20 -->
<g id="node20" class="node">
<title>Node20</title>
<g id="a_node20"><a xlink:href="Iovs__DatabaseIO_8C.html" target="_top" xlink:title=" ">
<polygon fill="white" stroke="black" points="1847.74,-0.5 1847.74,-28.5 1955.44,-28.5 1955.44,-0.5 1847.74,-0.5"/>
<text text-anchor="start" x="1855.74" y="-16.5" font-family="Helvetica,sans-Serif" font-size="10.00">src/visualization/Iovs</text>
<text text-anchor="middle" x="1901.59" y="-6.5" font-family="Helvetica,sans-Serif" font-size="10.00">_DatabaseIO.C</text>
</a>
</g>
</g>
<!-- Node13&#45;&gt;Node20 -->
<g id="edge20" class="edge">
<title>Node13&#45;&gt;Node20</title>
<path fill="none" stroke="midnightblue" d="M1631.09,-68.46C1636.98,-67.28 1642.92,-66.11 1648.59,-65 1732.94,-48.51 1754.34,-46.01 1838.59,-29 1841.55,-28.4 1844.59,-27.78 1847.65,-27.15"/>
<polygon fill="midnightblue" stroke="midnightblue" points="1630.37,-65.03 1621.26,-70.43 1631.75,-71.9 1630.37,-65.03"/>
</g>
<!-- Node23 -->
<g id="node23" class="node">
<title>Node23</title>
<g id="a_node23"><a xlink:href="io__info_8C.html" target="_top" xlink:title=" ">
<polygon fill="white" stroke="black" points="1973.58,-5.5 1973.58,-23.5 2069.61,-23.5 2069.61,-5.5 1973.58,-5.5"/>
<text text-anchor="middle" x="2021.59" y="-11.5" font-family="Helvetica,sans-Serif" font-size="10.00">src/main/io_info.C</text>
</a>
</g>
</g>
<!-- Node22&#45;&gt;Node23 -->
<g id="edge23" class="edge">
<title>Node22&#45;&gt;Node23</title>
<path fill="none" stroke="midnightblue" d="M1870.2,-67.05C1907.12,-54.48 1965.45,-34.62 1997.88,-23.58"/>
<polygon fill="midnightblue" stroke="midnightblue" points="1868.74,-63.86 1860.4,-70.39 1870.99,-70.48 1868.74,-63.86"/>
</g>
<!-- Node24 -->
<g id="node24" class="node">
<title>Node24</title>
<g id="a_node24"><a xlink:href="io__info__main_8C.html" target="_top" xlink:title=" ">
<polygon fill="white" stroke="black" points="2087.96,-5.5 2087.96,-23.5 2211.22,-23.5 2211.22,-5.5 2087.96,-5.5"/>
<text text-anchor="middle" x="2149.59" y="-11.5" font-family="Helvetica,sans-Serif" font-size="10.00">src/main/io_info_main.C</text>
</a>
</g>
</g>
<!-- Node22&#45;&gt;Node24 -->
<g id="edge24" class="edge">
<title>Node22&#45;&gt;Node24</title>
<path fill="none" stroke="midnightblue" d="M1878.84,-68.09C1883.47,-67.02 1888.13,-65.97 1892.59,-65 1913.27,-60.52 2039.89,-36.36 2107.36,-23.52"/>
<polygon fill="midnightblue" stroke="midnightblue" points="1877.74,-64.76 1868.81,-70.46 1879.35,-71.57 1877.74,-64.76"/>
</g>
</g>
</svg>
        <g id="navigator" transform="translate(0 0)" fill="#404254">
                <rect fill="#f2f5e9" fill-opacity="0.5" stroke="#606060" stroke-width=".5" x="0" y="0" width="60" height="60"/>
                <use id="zoomplus" xlink:href="#zoomPlus" x="17" y="9" onmousedown="handleZoom(evt,'in')"/>
                <use id="zoomminus" xlink:href="#zoomMin" x="42" y="9" onmousedown="handleZoom(evt,'out')"/>
                <use id="reset" xlink:href="#resetDef" x="30" y="36" onmousedown="handleReset()"/>
                <g id="arrowUp" xlink:href="#dirArrow" transform="translate(30 24)" onmousedown="handlePan(0,-1)">
                  <use xlink:href="#rim" fill="#404040">
                        <set attributeName="fill" to="#808080" begin="arrowUp.mouseover" end="arrowUp.mouseout"/>
                  </use>
                  <path fill="none" stroke="white" stroke-width="1.5" d="M0,-3.0v7 M-2.5,-0.5L0,-3.0L2.5,-0.5"/>
                </g>
                <g id="arrowRight" xlink:href="#dirArrow" transform="rotate(90) translate(36 -43)" onmousedown="handlePan(1,0)">
                  <use xlink:href="#rim" fill="#404040">
                        <set attributeName="fill" to="#808080" begin="arrowRight.mouseover" end="arrowRight.mouseout"/>
                  </use>
                  <path fill="none" stroke="white" stroke-width="1.5" d="M0,-3.0v7 M-2.5,-0.5L0,-3.0L2.5,-0.5"/>
                </g>
                <g id="arrowDown" xlink:href="#dirArrow" transform="rotate(180) translate(-30 -48)" onmousedown="handlePan(0,1)">
                  <use xlink:href="#rim" fill="#404040">
                        <set attributeName="fill" to="#808080" begin="arrowDown.mouseover" end="arrowDown.mouseout"/>
                  </use>
                  <path fill="none" stroke="white" stroke-width="1.5" d="M0,-3.0v7 M-2.5,-0.5L0,-3.0L2.5,-0.5"/>
                </g>
                <g id="arrowLeft" xlink:href="#dirArrow" transform="rotate(270) translate(-36 17)" onmousedown="handlePan(-1,0)">
                  <use xlink:href="#rim" fill="#404040">
                        <set attributeName="fill" to="#808080" begin="arrowLeft.mouseover" end="arrowLeft.mouseout"/>
                  </use>
                  <path fill="none" stroke="white" stroke-width="1.5" d="M0,-3.0v7 M-2.5,-0.5L0,-3.0L2.5,-0.5"/>
                </g>
        </g>
        <svg viewBox="0 0 15 15" width="100%" height="30px" preserveAspectRatio="xMaxYMin meet">
         <g id="arrow_out" transform="scale(0.3 0.3)">
          <a xlink:href="Ioss__NodeSet_8h__dep__incl_org.svg" target="_base">
           <rect id="button" ry="5" rx="5" y="6" x="6" height="38" width="38"
                fill="#f2f5e9" fill-opacity="0.5" stroke="#606060" stroke-width="1.0"/>
           <path id="arrow"
             d="M 11.500037,31.436501 C 11.940474,20.09759 22.043105,11.32322 32.158766,21.979434 L 37.068811,17.246167 C 37.068811,17.246167 37.088388,32 37.088388,32 L 22.160133,31.978069 C 22.160133,31.978069 26.997745,27.140456 26.997745,27.140456 C 18.528582,18.264221 13.291696,25.230495 11.500037,31.436501 z"
             style="fill:#404040;"/>
          </a>
         </g>
        </svg>
</svg>
