<?xml version="1.0" encoding="UTF-8" standalone="no"?>
<!DOCTYPE svg PUBLIC "-//W3C//DTD SVG 1.1//EN"
 "http://www.w3.org/Graphics/SVG/1.1/DTD/svg11.dtd">
<!-- Generated by graphviz version 2.42.3 (20191010.1750)
 -->
<!-- Title: src/Ioss_Tri7.h Pages: 1 -->
<svg width="242pt" height="147pt"
 viewBox="0.00 0.00 242.07 147.00" xmlns="http://www.w3.org/2000/svg" xmlns:xlink="http://www.w3.org/1999/xlink">
<g id="graph0" class="graph" transform="scale(1 1) rotate(0) translate(4 143)">
<title>src/Ioss_Tri7.h</title>
<polygon fill="white" stroke="transparent" points="-4,4 -4,-143 238.07,-143 238.07,4 -4,4"/>
<!-- Node1 -->
<g id="node1" class="node">
<title>Node1</title>
<g id="a_node1"><a xlink:title=" ">
<polygon fill="#bfbfbf" stroke="black" points="89.04,-120.5 89.04,-138.5 170.24,-138.5 170.24,-120.5 89.04,-120.5"/>
<text text-anchor="middle" x="129.64" y="-126.5" font-family="Helvetica,sans-Serif" font-size="10.00">src/Ioss_Tri7.h</text>
</a>
</g>
</g>
<!-- Node2 -->
<g id="node2" class="node">
<title>Node2</title>
<g id="a_node2"><a xlink:href="Ioss__StandardElementTypes_8h.html" target="_top" xlink:title=" ">
<polygon fill="white" stroke="black" points="0,-55.5 0,-83.5 133.28,-83.5 133.28,-55.5 0,-55.5"/>
<text text-anchor="start" x="8" y="-71.5" font-family="Helvetica,sans-Serif" font-size="10.00">src/Ioss_StandardElement</text>
<text text-anchor="middle" x="66.64" y="-61.5" font-family="Helvetica,sans-Serif" font-size="10.00">Types.h</text>
</a>
</g>
</g>
<!-- Node1&#45;&gt;Node2 -->
<g id="edge1" class="edge">
<title>Node1&#45;&gt;Node2</title>
<path fill="none" stroke="midnightblue" d="M113.27,-113.43C103.31,-104.26 90.72,-92.67 81.13,-83.84"/>
<polygon fill="midnightblue" stroke="midnightblue" points="111.15,-116.24 120.88,-120.44 115.89,-111.09 111.15,-116.24"/>
</g>
<!-- Node4 -->
<g id="node4" class="node">
<title>Node4</title>
<g id="a_node4"><a xlink:href="Ioss__Tri7_8C.html" target="_top" xlink:title=" ">
<polygon fill="white" stroke="black" points="151.21,-60.5 151.21,-78.5 234.07,-78.5 234.07,-60.5 151.21,-60.5"/>
<text text-anchor="middle" x="192.64" y="-66.5" font-family="Helvetica,sans-Serif" font-size="10.00">src/Ioss_Tri7.C</text>
</a>
</g>
</g>
<!-- Node1&#45;&gt;Node4 -->
<g id="edge3" class="edge">
<title>Node1&#45;&gt;Node4</title>
<path fill="none" stroke="midnightblue" d="M145.95,-113.48C157.92,-102.46 173.74,-87.9 183.55,-78.87"/>
<polygon fill="midnightblue" stroke="midnightblue" points="143.39,-111.09 138.4,-120.44 148.13,-116.24 143.39,-111.09"/>
</g>
<!-- Node3 -->
<g id="node3" class="node">
<title>Node3</title>
<g id="a_node3"><a xlink:href="Ioss__Initializer_8C.html" target="_top" xlink:title=" ">
<polygon fill="white" stroke="black" points="14.18,-0.5 14.18,-18.5 119.1,-18.5 119.1,-0.5 14.18,-0.5"/>
<text text-anchor="middle" x="66.64" y="-6.5" font-family="Helvetica,sans-Serif" font-size="10.00">src/Ioss_Initializer.C</text>
</a>
</g>
</g>
<!-- Node2&#45;&gt;Node3 -->
<g id="edge2" class="edge">
<title>Node2&#45;&gt;Node3</title>
<path fill="none" stroke="midnightblue" d="M66.64,-45.32C66.64,-35.94 66.64,-25.7 66.64,-18.77"/>
<polygon fill="midnightblue" stroke="midnightblue" points="63.14,-45.34 66.64,-55.34 70.14,-45.34 63.14,-45.34"/>
</g>
</g>
</svg>
