<?xml version="1.0" encoding="UTF-8" standalone="no"?>
<!DOCTYPE svg PUBLIC "-//W3C//DTD SVG 1.1//EN"
 "http://www.w3.org/Graphics/SVG/1.1/DTD/svg11.dtd">
<!-- Generated by graphviz version 2.40.1 (20161225.0304)
 -->
<!-- Title: src/Ioss_TriShell6.h Pages: 1 -->
<svg width="264pt" height="147pt"
 viewBox="0.00 0.00 264.19 147.00" xmlns="http://www.w3.org/2000/svg" xmlns:xlink="http://www.w3.org/1999/xlink">
<g id="graph0" class="graph" transform="scale(1 1) rotate(0) translate(4 143)">
<title>src/Ioss_TriShell6.h</title>
<polygon fill="#ffffff" stroke="transparent" points="-4,4 -4,-143 260.1909,-143 260.1909,4 -4,4"/>
<!-- Node11 -->
<g id="node1" class="node">
<title>Node11</title>
<g id="a_node1"><a xlink:title=" ">
<polygon fill="#bfbfbf" stroke="#000000" points="82.9194,-120.5 82.9194,-138.5 186.3608,-138.5 186.3608,-120.5 82.9194,-120.5"/>
<text text-anchor="middle" x="134.6401" y="-126.5" font-family="Helvetica,sans-Serif" font-size="10.00" fill="#000000">src/Ioss_TriShell6.h</text>
</a>
</g>
</g>
<!-- Node12 -->
<g id="node2" class="node">
<title>Node12</title>
<g id="a_node2"><a xlink:href="Ioss__StandardElementTypes_8h.html" target="_top" xlink:title=" ">
<polygon fill="#ffffff" stroke="#000000" points="0,-55.5 0,-83.5 133.2803,-83.5 133.2803,-55.5 0,-55.5"/>
<text text-anchor="start" x="8" y="-71.5" font-family="Helvetica,sans-Serif" font-size="10.00" fill="#000000">src/Ioss_StandardElement</text>
<text text-anchor="middle" x="66.6401" y="-61.5" font-family="Helvetica,sans-Serif" font-size="10.00" fill="#000000">Types.h</text>
</a>
</g>
</g>
<!-- Node11&#45;&gt;Node12 -->
<g id="edge1" class="edge">
<title>Node11&#45;&gt;Node12</title>
<path fill="none" stroke="#191970" d="M116.5263,-113.5172C105.9801,-104.2117 92.8033,-92.5851 82.6409,-83.6183"/>
<polygon fill="#191970" stroke="#191970" points="114.4983,-116.3955 124.3124,-120.3873 119.1297,-111.1466 114.4983,-116.3955"/>
</g>
<!-- Node14 -->
<g id="node4" class="node">
<title>Node14</title>
<g id="a_node4"><a xlink:href="Ioss__TriShell6_8C.html" target="_top" xlink:title=" ">
<polygon fill="#ffffff" stroke="#000000" points="151.0894,-60.5 151.0894,-78.5 256.1909,-78.5 256.1909,-60.5 151.0894,-60.5"/>
<text text-anchor="middle" x="203.6401" y="-66.5" font-family="Helvetica,sans-Serif" font-size="10.00" fill="#000000">src/Ioss_TriShell6.C</text>
</a>
</g>
</g>
<!-- Node11&#45;&gt;Node14 -->
<g id="edge3" class="edge">
<title>Node11&#45;&gt;Node14</title>
<path fill="none" stroke="#191970" d="M152.8775,-113.6414C165.6913,-102.4989 182.3861,-87.9817 193.0619,-78.6985"/>
<polygon fill="#191970" stroke="#191970" points="150.3692,-111.1843 145.1198,-120.3873 154.9625,-116.4666 150.3692,-111.1843"/>
</g>
<!-- Node13 -->
<g id="node3" class="node">
<title>Node13</title>
<g id="a_node3"><a xlink:href="Ioss__Initializer_8C.html" target="_top" xlink:title=" ">
<polygon fill="#ffffff" stroke="#000000" points="14.1797,-.5 14.1797,-18.5 119.1006,-18.5 119.1006,-.5 14.1797,-.5"/>
<text text-anchor="middle" x="66.6401" y="-6.5" font-family="Helvetica,sans-Serif" font-size="10.00" fill="#000000">src/Ioss_Initializer.C</text>
</a>
</g>
</g>
<!-- Node12&#45;&gt;Node13 -->
<g id="edge2" class="edge">
<title>Node12&#45;&gt;Node13</title>
<path fill="none" stroke="#191970" d="M66.6401,-45.2151C66.6401,-35.8253 66.6401,-25.6598 66.6401,-18.5842"/>
<polygon fill="#191970" stroke="#191970" points="63.1402,-45.2808 66.6401,-55.2808 70.1402,-45.2809 63.1402,-45.2808"/>
</g>
</g>
</svg>
