<?xml version="1.0" encoding="UTF-8" standalone="no"?>
<!DOCTYPE svg PUBLIC "-//W3C//DTD SVG 1.1//EN"
 "http://www.w3.org/Graphics/SVG/1.1/DTD/svg11.dtd">
<!-- Generated by graphviz version 2.40.1 (20161225.0304)
 -->
<!-- Title: src/Ioss_Tri7.h Pages: 1 -->
<svg width="242pt" height="147pt"
 viewBox="0.00 0.00 242.07 147.00" xmlns="http://www.w3.org/2000/svg" xmlns:xlink="http://www.w3.org/1999/xlink">
<g id="graph0" class="graph" transform="scale(1 1) rotate(0) translate(4 143)">
<title>src/Ioss_Tri7.h</title>
<polygon fill="#ffffff" stroke="transparent" points="-4,4 -4,-143 238.0728,-143 238.0728,4 -4,4"/>
<!-- Node11 -->
<g id="node1" class="node">
<title>Node11</title>
<g id="a_node1"><a xlink:title=" ">
<polygon fill="#bfbfbf" stroke="#000000" points="89.0376,-120.5 89.0376,-138.5 170.2427,-138.5 170.2427,-120.5 89.0376,-120.5"/>
<text text-anchor="middle" x="129.6401" y="-126.5" font-family="Helvetica,sans-Serif" font-size="10.00" fill="#000000">src/Ioss_Tri7.h</text>
</a>
</g>
</g>
<!-- Node12 -->
<g id="node2" class="node">
<title>Node12</title>
<g id="a_node2"><a xlink:href="Ioss__StandardElementTypes_8h.html" target="_top" xlink:title=" ">
<polygon fill="#ffffff" stroke="#000000" points="0,-55.5 0,-83.5 133.2803,-83.5 133.2803,-55.5 0,-55.5"/>
<text text-anchor="start" x="8" y="-71.5" font-family="Helvetica,sans-Serif" font-size="10.00" fill="#000000">src/Ioss_StandardElement</text>
<text text-anchor="middle" x="66.6401" y="-61.5" font-family="Helvetica,sans-Serif" font-size="10.00" fill="#000000">Types.h</text>
</a>
</g>
</g>
<!-- Node11&#45;&gt;Node12 -->
<g id="edge1" class="edge">
<title>Node11&#45;&gt;Node12</title>
<path fill="none" stroke="#191970" d="M112.6221,-113.2923C102.9747,-104.1044 91.0109,-92.7103 81.7052,-83.8477"/>
<polygon fill="#191970" stroke="#191970" points="110.4166,-116.0252 120.0718,-120.3873 115.2442,-110.9562 110.4166,-116.0252"/>
</g>
<!-- Node14 -->
<g id="node4" class="node">
<title>Node14</title>
<g id="a_node4"><a xlink:href="Ioss__Tri7_8C.html" target="_top" xlink:title=" ">
<polygon fill="#ffffff" stroke="#000000" points="151.2075,-60.5 151.2075,-78.5 234.0728,-78.5 234.0728,-60.5 151.2075,-60.5"/>
<text text-anchor="middle" x="192.6401" y="-66.5" font-family="Helvetica,sans-Serif" font-size="10.00" fill="#000000">src/Ioss_Tri7.C</text>
</a>
</g>
</g>
<!-- Node11&#45;&gt;Node14 -->
<g id="edge3" class="edge">
<title>Node11&#45;&gt;Node14</title>
<path fill="none" stroke="#191970" d="M146.6269,-113.3221C158.2811,-102.2229 173.3271,-87.8933 182.9817,-78.6985"/>
<polygon fill="#191970" stroke="#191970" points="144.0361,-110.9562 139.2085,-120.3873 148.8637,-116.0252 144.0361,-110.9562"/>
</g>
<!-- Node13 -->
<g id="node3" class="node">
<title>Node13</title>
<g id="a_node3"><a xlink:href="Ioss__Initializer_8C.html" target="_top" xlink:title=" ">
<polygon fill="#ffffff" stroke="#000000" points="14.1797,-.5 14.1797,-18.5 119.1006,-18.5 119.1006,-.5 14.1797,-.5"/>
<text text-anchor="middle" x="66.6401" y="-6.5" font-family="Helvetica,sans-Serif" font-size="10.00" fill="#000000">src/Ioss_Initializer.C</text>
</a>
</g>
</g>
<!-- Node12&#45;&gt;Node13 -->
<g id="edge2" class="edge">
<title>Node12&#45;&gt;Node13</title>
<path fill="none" stroke="#191970" d="M66.6401,-45.2151C66.6401,-35.8253 66.6401,-25.6598 66.6401,-18.5842"/>
<polygon fill="#191970" stroke="#191970" points="63.1402,-45.2808 66.6401,-55.2808 70.1402,-45.2809 63.1402,-45.2808"/>
</g>
</g>
</svg>
