<?xml version="1.0" encoding="UTF-8" standalone="no"?>
<!DOCTYPE svg PUBLIC "-//W3C//DTD SVG 1.1//EN"
 "http://www.w3.org/Graphics/SVG/1.1/DTD/svg11.dtd">
<!-- Generated by graphviz version 2.42.3 (20191010.1750)
 -->
<!-- Title: src/Ioss_ElementTopology.C Pages: 1 -->
<svg width="1223pt" height="247pt"
 viewBox="0.00 0.00 1223.43 247.00" xmlns="http://www.w3.org/2000/svg" xmlns:xlink="http://www.w3.org/1999/xlink">
<g id="graph0" class="graph" transform="scale(1 1) rotate(0) translate(4 243)">
<title>src/Ioss_ElementTopology.C</title>
<polygon fill="white" stroke="transparent" points="-4,4 -4,-243 1219.43,-243 1219.43,4 -4,4"/>
<!-- Node1 -->
<g id="node1" class="node">
<title>Node1</title>
<g id="a_node1"><a xlink:title=" ">
<polygon fill="#bfbfbf" stroke="black" points="822.04,-220.5 822.04,-238.5 964.03,-238.5 964.03,-220.5 822.04,-220.5"/>
<text text-anchor="middle" x="893.04" y="-226.5" font-family="Helvetica,sans-Serif" font-size="10.00">src/Ioss_ElementTopology.C</text>
</a>
</g>
</g>
<!-- Node2 -->
<g id="node2" class="node">
<title>Node2</title>
<g id="a_node2"><a xlink:href="Ioss__CodeTypes_8h.html" target="_top" xlink:title=" ">
<polygon fill="white" stroke="black" points="280.62,-55.5 280.62,-73.5 379.45,-73.5 379.45,-55.5 280.62,-55.5"/>
<text text-anchor="middle" x="330.04" y="-61.5" font-family="Helvetica,sans-Serif" font-size="10.00">Ioss_CodeTypes.h</text>
</a>
</g>
</g>
<!-- Node1&#45;&gt;Node2 -->
<g id="edge1" class="edge">
<title>Node1&#45;&gt;Node2</title>
<path fill="none" stroke="midnightblue" d="M821.8,-227.8C678.82,-224.7 365.04,-208.76 301.04,-129 289.48,-114.6 301.95,-94.84 313.95,-81.21"/>
<polygon fill="midnightblue" stroke="midnightblue" points="316.8,-83.29 321.13,-73.62 311.72,-78.47 316.8,-83.29"/>
</g>
<!-- Node4 -->
<g id="node4" class="node">
<title>Node4</title>
<g id="a_node4"><a xlink:title=" ">
<polygon fill="white" stroke="#bfbfbf" points="797.92,-0.5 797.92,-18.5 846.16,-18.5 846.16,-0.5 797.92,-0.5"/>
<text text-anchor="middle" x="822.04" y="-6.5" font-family="Helvetica,sans-Serif" font-size="10.00">cstddef</text>
</a>
</g>
</g>
<!-- Node1&#45;&gt;Node4 -->
<g id="edge37" class="edge">
<title>Node1&#45;&gt;Node4</title>
<path fill="none" stroke="midnightblue" d="M914.52,-220.49C929.98,-213.45 949.69,-201.57 959.04,-184 974.48,-154.96 973.97,-139.3 959.04,-110 936.87,-66.5 885.79,-37.56 852.65,-22.6"/>
<polygon fill="midnightblue" stroke="midnightblue" points="853.97,-19.36 843.41,-18.58 851.18,-25.78 853.97,-19.36"/>
</g>
<!-- Node6 -->
<g id="node6" class="node">
<title>Node6</title>
<g id="a_node6"><a xlink:title=" ">
<polygon fill="white" stroke="#bfbfbf" points="69.81,-0.5 69.81,-18.5 110.26,-18.5 110.26,-0.5 69.81,-0.5"/>
<text text-anchor="middle" x="90.04" y="-6.5" font-family="Helvetica,sans-Serif" font-size="10.00">string</text>
</a>
</g>
</g>
<!-- Node1&#45;&gt;Node6 -->
<g id="edge40" class="edge">
<title>Node1&#45;&gt;Node6</title>
<path fill="none" stroke="midnightblue" d="M822,-227.97C631.81,-226.09 120.88,-217.92 53.04,-184 -0.1,-157.44 -15.86,-103.78 18.04,-55 28.35,-40.15 45.39,-29.3 60.3,-22.03"/>
<polygon fill="midnightblue" stroke="midnightblue" points="62.04,-25.08 69.7,-17.76 59.14,-18.71 62.04,-25.08"/>
</g>
<!-- Node7 -->
<g id="node7" class="node">
<title>Node7</title>
<g id="a_node7"><a xlink:title=" ">
<polygon fill="white" stroke="#bfbfbf" points="454.42,-0.5 454.42,-18.5 497.65,-18.5 497.65,-0.5 454.42,-0.5"/>
<text text-anchor="middle" x="476.04" y="-6.5" font-family="Helvetica,sans-Serif" font-size="10.00">vector</text>
</a>
</g>
</g>
<!-- Node1&#45;&gt;Node7 -->
<g id="edge42" class="edge">
<title>Node1&#45;&gt;Node7</title>
<path fill="none" stroke="midnightblue" d="M899.71,-220.33C915.8,-199.59 953.45,-144.14 926.04,-110 873.15,-44.15 601.46,-19.24 507.81,-12.53"/>
<polygon fill="midnightblue" stroke="midnightblue" points="508.02,-9.04 497.8,-11.83 507.53,-16.02 508.02,-9.04"/>
</g>
<!-- Node10 -->
<g id="node10" class="node">
<title>Node10</title>
<g id="a_node10"><a xlink:href="Ioss__ElementTopology_8h.html" target="_top" xlink:title=" ">
<polygon fill="white" stroke="black" points="24.93,-110.5 24.93,-128.5 149.15,-128.5 149.15,-110.5 24.93,-110.5"/>
<text text-anchor="middle" x="87.04" y="-116.5" font-family="Helvetica,sans-Serif" font-size="10.00">Ioss_ElementTopology.h</text>
</a>
</g>
</g>
<!-- Node1&#45;&gt;Node10 -->
<g id="edge9" class="edge">
<title>Node1&#45;&gt;Node10</title>
<path fill="none" stroke="midnightblue" d="M821.94,-226.59C676.19,-222.21 348.07,-209.74 239.04,-184 191.77,-172.84 140.33,-148.55 111.05,-133.45"/>
<polygon fill="midnightblue" stroke="midnightblue" points="112.49,-130.26 102.01,-128.72 109.25,-136.46 112.49,-130.26"/>
</g>
<!-- Node12 -->
<g id="node12" class="node">
<title>Node12</title>
<g id="a_node12"><a xlink:href="Ioss__Super_8h.html" target="_top" xlink:title=" ">
<polygon fill="white" stroke="black" points="61.85,-165.5 61.85,-183.5 136.23,-183.5 136.23,-165.5 61.85,-165.5"/>
<text text-anchor="middle" x="99.04" y="-171.5" font-family="Helvetica,sans-Serif" font-size="10.00">Ioss_Super.h</text>
</a>
</g>
</g>
<!-- Node1&#45;&gt;Node12 -->
<g id="edge14" class="edge">
<title>Node1&#45;&gt;Node12</title>
<path fill="none" stroke="midnightblue" d="M821.89,-224.7C694.91,-217.77 420.92,-202.09 190.04,-184 176.04,-182.9 160.86,-181.55 146.97,-180.25"/>
<polygon fill="midnightblue" stroke="midnightblue" points="146.93,-176.73 136.65,-179.27 146.27,-183.7 146.93,-176.73"/>
</g>
<!-- Node13 -->
<g id="node13" class="node">
<title>Node13</title>
<g id="a_node13"><a xlink:href="Ioss__Utils_8h.html" target="_top" xlink:title=" ">
<polygon fill="white" stroke="black" points="558.19,-165.5 558.19,-183.5 625.88,-183.5 625.88,-165.5 558.19,-165.5"/>
<text text-anchor="middle" x="592.04" y="-171.5" font-family="Helvetica,sans-Serif" font-size="10.00">Ioss_Utils.h</text>
</a>
</g>
</g>
<!-- Node1&#45;&gt;Node13 -->
<g id="edge19" class="edge">
<title>Node1&#45;&gt;Node13</title>
<path fill="none" stroke="midnightblue" d="M847.32,-220.45C790.04,-210.36 692.54,-193.2 636.06,-183.25"/>
<polygon fill="midnightblue" stroke="midnightblue" points="636.47,-179.77 626.01,-181.48 635.25,-186.66 636.47,-179.77"/>
</g>
<!-- Node16 -->
<g id="node16" class="node">
<title>Node16</title>
<g id="a_node16"><a xlink:title=" ">
<polygon fill="white" stroke="#bfbfbf" points="868.92,-110.5 868.92,-128.5 917.15,-128.5 917.15,-110.5 868.92,-110.5"/>
<text text-anchor="middle" x="893.04" y="-116.5" font-family="Helvetica,sans-Serif" font-size="10.00">cassert</text>
</a>
</g>
</g>
<!-- Node1&#45;&gt;Node16 -->
<g id="edge36" class="edge">
<title>Node1&#45;&gt;Node16</title>
<path fill="none" stroke="midnightblue" d="M893.04,-220.38C893.04,-203.18 893.04,-162.7 893.04,-138.89"/>
<polygon fill="midnightblue" stroke="midnightblue" points="896.54,-138.71 893.04,-128.71 889.54,-138.71 896.54,-138.71"/>
</g>
<!-- Node21 -->
<g id="node21" class="node">
<title>Node21</title>
<g id="a_node21"><a xlink:title=" ">
<polygon fill="white" stroke="#bfbfbf" points="1011.47,-165.5 1011.47,-183.5 1088.6,-183.5 1088.6,-165.5 1011.47,-165.5"/>
<text text-anchor="middle" x="1050.04" y="-171.5" font-family="Helvetica,sans-Serif" font-size="10.00">fmt/ostream.h</text>
</a>
</g>
</g>
<!-- Node1&#45;&gt;Node21 -->
<g id="edge38" class="edge">
<title>Node1&#45;&gt;Node21</title>
<path fill="none" stroke="midnightblue" d="M916.88,-220.45C943.47,-211.47 986.67,-196.89 1016.62,-186.78"/>
<polygon fill="midnightblue" stroke="midnightblue" points="1017.87,-190.05 1026.22,-183.54 1015.63,-183.42 1017.87,-190.05"/>
</g>
<!-- Node22 -->
<g id="node22" class="node">
<title>Node22</title>
<g id="a_node22"><a xlink:title=" ">
<polygon fill="white" stroke="#bfbfbf" points="1106.97,-165.5 1106.97,-183.5 1159.1,-183.5 1159.1,-165.5 1106.97,-165.5"/>
<text text-anchor="middle" x="1133.04" y="-171.5" font-family="Helvetica,sans-Serif" font-size="10.00">ostream</text>
</a>
</g>
</g>
<!-- Node1&#45;&gt;Node22 -->
<g id="edge39" class="edge">
<title>Node1&#45;&gt;Node22</title>
<path fill="none" stroke="midnightblue" d="M931.26,-220.5C970.47,-212.22 1033.47,-198.74 1096.91,-184.22"/>
<polygon fill="midnightblue" stroke="midnightblue" points="1097.72,-187.62 1106.68,-181.97 1096.15,-180.8 1097.72,-187.62"/>
</g>
<!-- Node23 -->
<g id="node23" class="node">
<title>Node23</title>
<g id="a_node23"><a xlink:title=" ">
<polygon fill="white" stroke="#bfbfbf" points="1176.64,-165.5 1176.64,-183.5 1215.43,-183.5 1215.43,-165.5 1176.64,-165.5"/>
<text text-anchor="middle" x="1196.04" y="-171.5" font-family="Helvetica,sans-Serif" font-size="10.00">utility</text>
</a>
</g>
</g>
<!-- Node1&#45;&gt;Node23 -->
<g id="edge41" class="edge">
<title>Node1&#45;&gt;Node23</title>
<path fill="none" stroke="midnightblue" d="M957.97,-220.5C1011.7,-213.31 1090.13,-201.5 1166.73,-184.05"/>
<polygon fill="midnightblue" stroke="midnightblue" points="1167.59,-187.45 1176.54,-181.78 1166.01,-180.62 1167.59,-187.45"/>
</g>
<!-- Node3 -->
<g id="node3" class="node">
<title>Node3</title>
<g id="a_node3"><a xlink:title=" ">
<polygon fill="white" stroke="#bfbfbf" points="130.64,-0.5 130.64,-18.5 169.43,-18.5 169.43,-0.5 130.64,-0.5"/>
<text text-anchor="middle" x="150.04" y="-6.5" font-family="Helvetica,sans-Serif" font-size="10.00">array</text>
</a>
</g>
</g>
<!-- Node2&#45;&gt;Node3 -->
<g id="edge2" class="edge">
<title>Node2&#45;&gt;Node3</title>
<path fill="none" stroke="midnightblue" d="M302.28,-55.46C273.69,-47.17 227.6,-33.74 179.3,-19.36"/>
<polygon fill="midnightblue" stroke="midnightblue" points="180.19,-15.97 169.61,-16.47 178.19,-22.68 180.19,-15.97"/>
</g>
<!-- Node2&#45;&gt;Node4 -->
<g id="edge3" class="edge">
<title>Node2&#45;&gt;Node4</title>
<path fill="none" stroke="midnightblue" d="M379.46,-58.18C479.23,-47.43 702.44,-23.38 787.88,-14.18"/>
<polygon fill="midnightblue" stroke="midnightblue" points="788.26,-17.66 797.83,-13.11 787.51,-10.7 788.26,-17.66"/>
</g>
<!-- Node5 -->
<g id="node5" class="node">
<title>Node5</title>
<g id="a_node5"><a xlink:title=" ">
<polygon fill="white" stroke="#bfbfbf" points="391.59,-0.5 391.59,-18.5 436.49,-18.5 436.49,-0.5 391.59,-0.5"/>
<text text-anchor="middle" x="414.04" y="-6.5" font-family="Helvetica,sans-Serif" font-size="10.00">cstdint</text>
</a>
</g>
</g>
<!-- Node2&#45;&gt;Node5 -->
<g id="edge4" class="edge">
<title>Node2&#45;&gt;Node5</title>
<path fill="none" stroke="midnightblue" d="M342.79,-55.45C355.99,-47.12 376.84,-33.97 392.58,-24.04"/>
<polygon fill="midnightblue" stroke="midnightblue" points="394.57,-26.92 401.16,-18.63 390.83,-21 394.57,-26.92"/>
</g>
<!-- Node2&#45;&gt;Node6 -->
<g id="edge5" class="edge">
<title>Node2&#45;&gt;Node6</title>
<path fill="none" stroke="midnightblue" d="M289.64,-55.47C247.64,-46.97 180.03,-32.9 122.04,-19 121.44,-18.86 120.84,-18.71 120.24,-18.57"/>
<polygon fill="midnightblue" stroke="midnightblue" points="120.87,-15.11 110.31,-16.05 119.14,-21.9 120.87,-15.11"/>
</g>
<!-- Node2&#45;&gt;Node7 -->
<g id="edge6" class="edge">
<title>Node2&#45;&gt;Node7</title>
<path fill="none" stroke="midnightblue" d="M352.21,-55.45C376.79,-46.53 416.64,-32.06 444.47,-21.96"/>
<polygon fill="midnightblue" stroke="midnightblue" points="445.93,-25.15 454.13,-18.45 443.54,-18.57 445.93,-25.15"/>
</g>
<!-- Node8 -->
<g id="node8" class="node">
<title>Node8</title>
<g id="a_node8"><a xlink:title=" ">
<polygon fill="white" stroke="#bfbfbf" points="187.29,-0.5 187.29,-18.5 302.78,-18.5 302.78,-0.5 187.29,-0.5"/>
<text text-anchor="middle" x="245.04" y="-6.5" font-family="Helvetica,sans-Serif" font-size="10.00">SEACASIoss_config.h</text>
</a>
</g>
</g>
<!-- Node2&#45;&gt;Node8 -->
<g id="edge7" class="edge">
<title>Node2&#45;&gt;Node8</title>
<path fill="none" stroke="midnightblue" d="M317.13,-55.45C303.77,-47.12 282.68,-33.97 266.75,-24.04"/>
<polygon fill="midnightblue" stroke="midnightblue" points="268.4,-20.95 258.07,-18.63 264.7,-26.89 268.4,-20.95"/>
</g>
<!-- Node9 -->
<g id="node9" class="node">
<title>Node9</title>
<g id="a_node9"><a xlink:title=" ">
<polygon fill="white" stroke="#bfbfbf" points="320.42,-0.5 320.42,-18.5 373.65,-18.5 373.65,-0.5 320.42,-0.5"/>
<text text-anchor="middle" x="347.04" y="-6.5" font-family="Helvetica,sans-Serif" font-size="10.00">complex</text>
</a>
</g>
</g>
<!-- Node2&#45;&gt;Node9 -->
<g id="edge8" class="edge">
<title>Node2&#45;&gt;Node9</title>
<path fill="none" stroke="midnightblue" d="M332.69,-55.22C335,-48.02 338.43,-37.35 341.35,-28.23"/>
<polygon fill="midnightblue" stroke="midnightblue" points="344.73,-29.14 344.45,-18.55 338.07,-27 344.73,-29.14"/>
</g>
<!-- Node10&#45;&gt;Node2 -->
<g id="edge10" class="edge">
<title>Node10&#45;&gt;Node2</title>
<path fill="none" stroke="midnightblue" d="M123.94,-110.45C166.62,-101.14 236.93,-85.81 283.37,-75.68"/>
<polygon fill="midnightblue" stroke="midnightblue" points="284.16,-79.09 293.18,-73.54 282.67,-72.25 284.16,-79.09"/>
</g>
<!-- Node10&#45;&gt;Node6 -->
<g id="edge12" class="edge">
<title>Node10&#45;&gt;Node6</title>
<path fill="none" stroke="midnightblue" d="M87.26,-110.38C87.74,-93.18 88.86,-52.7 89.53,-28.89"/>
<polygon fill="midnightblue" stroke="midnightblue" points="93.03,-28.81 89.81,-18.71 86.03,-28.61 93.03,-28.81"/>
</g>
<!-- Node10&#45;&gt;Node7 -->
<g id="edge13" class="edge">
<title>Node10&#45;&gt;Node7</title>
<path fill="none" stroke="midnightblue" d="M107.58,-110.5C141.44,-97.53 211.29,-71.67 272.04,-55 344.81,-35.02 366.97,-37.18 444.65,-18.95"/>
<polygon fill="midnightblue" stroke="midnightblue" points="445.49,-22.34 454.4,-16.62 443.86,-15.53 445.49,-22.34"/>
</g>
<!-- Node11 -->
<g id="node11" class="node">
<title>Node11</title>
<g id="a_node11"><a xlink:title=" ">
<polygon fill="white" stroke="#bfbfbf" points="113.31,-55.5 113.31,-73.5 148.76,-73.5 148.76,-55.5 113.31,-55.5"/>
<text text-anchor="middle" x="131.04" y="-61.5" font-family="Helvetica,sans-Serif" font-size="10.00">map</text>
</a>
</g>
</g>
<!-- Node10&#45;&gt;Node11 -->
<g id="edge11" class="edge">
<title>Node10&#45;&gt;Node11</title>
<path fill="none" stroke="midnightblue" d="M93.91,-110.22C100.28,-102.55 109.92,-90.94 117.78,-81.47"/>
<polygon fill="midnightblue" stroke="midnightblue" points="120.66,-83.48 124.35,-73.55 115.27,-79.01 120.66,-83.48"/>
</g>
<!-- Node12&#45;&gt;Node2 -->
<g id="edge16" class="edge">
<title>Node12&#45;&gt;Node2</title>
<path fill="none" stroke="midnightblue" d="M116.4,-165.38C156.55,-146.61 256.01,-100.11 303.7,-77.81"/>
<polygon fill="midnightblue" stroke="midnightblue" points="305.21,-80.97 312.79,-73.56 302.25,-74.63 305.21,-80.97"/>
</g>
<!-- Node12&#45;&gt;Node6 -->
<g id="edge18" class="edge">
<title>Node12&#45;&gt;Node6</title>
<path fill="none" stroke="midnightblue" d="M67.7,-165.48C49.17,-158.94 27.2,-147.66 16.04,-129 -6.65,-91.09 40.41,-47.13 69.45,-24.93"/>
<polygon fill="midnightblue" stroke="midnightblue" points="71.83,-27.52 77.79,-18.77 67.67,-21.9 71.83,-27.52"/>
</g>
<!-- Node12&#45;&gt;Node10 -->
<g id="edge17" class="edge">
<title>Node12&#45;&gt;Node10</title>
<path fill="none" stroke="midnightblue" d="M97.16,-165.22C95.55,-158.1 93.17,-147.58 91.12,-138.53"/>
<polygon fill="midnightblue" stroke="midnightblue" points="94.48,-137.53 88.86,-128.55 87.65,-139.08 94.48,-137.53"/>
</g>
<!-- Node12&#45;&gt;Node12 -->
<g id="edge15" class="edge">
<title>Node12&#45;&gt;Node12</title>
<path fill="none" stroke="midnightblue" d="M121.71,-183.53C138,-186.48 154.23,-183.46 154.23,-174.5 154.23,-167.43 144.12,-164.06 131.86,-164.4"/>
<polygon fill="midnightblue" stroke="midnightblue" points="131.29,-160.94 121.71,-165.47 132.02,-167.9 131.29,-160.94"/>
</g>
<!-- Node13&#45;&gt;Node2 -->
<g id="edge20" class="edge">
<title>Node13&#45;&gt;Node2</title>
<path fill="none" stroke="midnightblue" d="M558.03,-173.4C490.13,-172.39 341.59,-165.93 310.04,-129 298.7,-115.74 307.69,-96.04 316.97,-82.11"/>
<polygon fill="midnightblue" stroke="midnightblue" points="319.87,-84.06 322.9,-73.91 314.2,-79.96 319.87,-84.06"/>
</g>
<!-- Node13&#45;&gt;Node4 -->
<g id="edge29" class="edge">
<title>Node13&#45;&gt;Node4</title>
<path fill="none" stroke="midnightblue" d="M626.03,-172.04C683.87,-168.77 797.58,-158.65 822.04,-129 845.53,-100.52 836.09,-53.74 828.34,-28.31"/>
<polygon fill="midnightblue" stroke="midnightblue" points="831.58,-26.96 825.12,-18.55 824.93,-29.15 831.58,-26.96"/>
</g>
<!-- Node13&#45;&gt;Node5 -->
<g id="edge30" class="edge">
<title>Node13&#45;&gt;Node5</title>
<path fill="none" stroke="midnightblue" d="M558.12,-173.63C522.4,-171.82 467.12,-163.16 436.04,-129 410.88,-101.35 410.12,-54.59 411.96,-28.85"/>
<polygon fill="midnightblue" stroke="midnightblue" points="415.47,-28.93 412.91,-18.65 408.5,-28.28 415.47,-28.93"/>
</g>
<!-- Node13&#45;&gt;Node6 -->
<g id="edge34" class="edge">
<title>Node13&#45;&gt;Node6</title>
<path fill="none" stroke="midnightblue" d="M557.93,-172.23C502.59,-169.31 390.44,-159.78 301.04,-129 253.81,-112.74 246.59,-98.46 203.04,-74 171.96,-56.55 136.09,-36.39 113.24,-23.55"/>
<polygon fill="midnightblue" stroke="midnightblue" points="114.74,-20.37 104.31,-18.52 111.31,-26.47 114.74,-20.37"/>
</g>
<!-- Node13&#45;&gt;Node7 -->
<g id="edge35" class="edge">
<title>Node13&#45;&gt;Node7</title>
<path fill="none" stroke="midnightblue" d="M590.85,-165.17C588.78,-152.53 583.65,-128.05 573.04,-110 552.3,-74.75 516.5,-42.56 494.67,-24.83"/>
<polygon fill="midnightblue" stroke="midnightblue" points="496.79,-22.04 486.79,-18.56 492.44,-27.52 496.79,-22.04"/>
</g>
<!-- Node14 -->
<g id="node14" class="node">
<title>Node14</title>
<g id="a_node14"><a xlink:href="Ioss__Field_8h.html" target="_top" xlink:title=" ">
<polygon fill="white" stroke="black" points="319.08,-110.5 319.08,-128.5 388.99,-128.5 388.99,-110.5 319.08,-110.5"/>
<text text-anchor="middle" x="354.04" y="-116.5" font-family="Helvetica,sans-Serif" font-size="10.00">Ioss_Field.h</text>
</a>
</g>
</g>
<!-- Node13&#45;&gt;Node14 -->
<g id="edge21" class="edge">
<title>Node13&#45;&gt;Node14</title>
<path fill="none" stroke="midnightblue" d="M558.19,-165.96C516.46,-156.67 445.4,-140.85 399.09,-130.53"/>
<polygon fill="midnightblue" stroke="midnightblue" points="399.84,-127.11 389.32,-128.36 398.32,-133.95 399.84,-127.11"/>
</g>
<!-- Node15 -->
<g id="node15" class="node">
<title>Node15</title>
<g id="a_node15"><a xlink:title=" ">
<polygon fill="white" stroke="#bfbfbf" points="445.47,-110.5 445.47,-128.5 502.6,-128.5 502.6,-110.5 445.47,-110.5"/>
<text text-anchor="middle" x="474.04" y="-116.5" font-family="Helvetica,sans-Serif" font-size="10.00">algorithm</text>
</a>
</g>
</g>
<!-- Node13&#45;&gt;Node15 -->
<g id="edge26" class="edge">
<title>Node13&#45;&gt;Node15</title>
<path fill="none" stroke="midnightblue" d="M574.11,-165.45C554.79,-156.77 523.81,-142.86 501.43,-132.8"/>
<polygon fill="midnightblue" stroke="midnightblue" points="502.68,-129.53 492.13,-128.63 499.81,-135.92 502.68,-129.53"/>
</g>
<!-- Node13&#45;&gt;Node16 -->
<g id="edge27" class="edge">
<title>Node13&#45;&gt;Node16</title>
<path fill="none" stroke="midnightblue" d="M626.18,-168.31C676.45,-160.53 773.24,-145.06 855.04,-129 856.13,-128.79 857.24,-128.56 858.36,-128.33"/>
<polygon fill="midnightblue" stroke="midnightblue" points="859.49,-131.67 868.55,-126.18 858.04,-124.83 859.49,-131.67"/>
</g>
<!-- Node17 -->
<g id="node17" class="node">
<title>Node17</title>
<g id="a_node17"><a xlink:title=" ">
<polygon fill="white" stroke="#bfbfbf" points="520.42,-110.5 520.42,-128.5 563.65,-128.5 563.65,-110.5 520.42,-110.5"/>
<text text-anchor="middle" x="542.04" y="-116.5" font-family="Helvetica,sans-Serif" font-size="10.00">cmath</text>
</a>
</g>
</g>
<!-- Node13&#45;&gt;Node17 -->
<g id="edge28" class="edge">
<title>Node13&#45;&gt;Node17</title>
<path fill="none" stroke="midnightblue" d="M584.22,-165.22C576.84,-157.39 565.59,-145.46 556.56,-135.89"/>
<polygon fill="midnightblue" stroke="midnightblue" points="559.04,-133.42 549.63,-128.55 553.95,-138.23 559.04,-133.42"/>
</g>
<!-- Node18 -->
<g id="node18" class="node">
<title>Node18</title>
<g id="a_node18"><a xlink:title=" ">
<polygon fill="white" stroke="#bfbfbf" points="619.86,-110.5 619.86,-128.5 664.21,-128.5 664.21,-110.5 619.86,-110.5"/>
<text text-anchor="middle" x="642.04" y="-116.5" font-family="Helvetica,sans-Serif" font-size="10.00">cstdlib</text>
</a>
</g>
</g>
<!-- Node13&#45;&gt;Node18 -->
<g id="edge31" class="edge">
<title>Node13&#45;&gt;Node18</title>
<path fill="none" stroke="midnightblue" d="M599.85,-165.22C607.23,-157.39 618.49,-145.46 627.52,-135.89"/>
<polygon fill="midnightblue" stroke="midnightblue" points="630.13,-138.23 634.44,-128.55 625.03,-133.42 630.13,-138.23"/>
</g>
<!-- Node19 -->
<g id="node19" class="node">
<title>Node19</title>
<g id="a_node19"><a xlink:title=" ">
<polygon fill="white" stroke="#bfbfbf" points="681.86,-110.5 681.86,-128.5 736.21,-128.5 736.21,-110.5 681.86,-110.5"/>
<text text-anchor="middle" x="709.04" y="-116.5" font-family="Helvetica,sans-Serif" font-size="10.00">iostream</text>
</a>
</g>
</g>
<!-- Node13&#45;&gt;Node19 -->
<g id="edge32" class="edge">
<title>Node13&#45;&gt;Node19</title>
<path fill="none" stroke="midnightblue" d="M609.81,-165.45C628.96,-156.77 659.69,-142.86 681.87,-132.8"/>
<polygon fill="midnightblue" stroke="midnightblue" points="683.43,-135.94 691.1,-128.63 680.55,-129.56 683.43,-135.94"/>
</g>
<!-- Node20 -->
<g id="node20" class="node">
<title>Node20</title>
<g id="a_node20"><a xlink:title=" ">
<polygon fill="white" stroke="#bfbfbf" points="754.63,-110.5 754.63,-128.5 813.44,-128.5 813.44,-110.5 754.63,-110.5"/>
<text text-anchor="middle" x="784.04" y="-116.5" font-family="Helvetica,sans-Serif" font-size="10.00">stdexcept</text>
</a>
</g>
</g>
<!-- Node13&#45;&gt;Node20 -->
<g id="edge33" class="edge">
<title>Node13&#45;&gt;Node20</title>
<path fill="none" stroke="midnightblue" d="M621.2,-165.45C654.28,-156.32 708.38,-141.38 745.06,-131.26"/>
<polygon fill="midnightblue" stroke="midnightblue" points="746.21,-134.57 754.92,-128.54 744.35,-127.83 746.21,-134.57"/>
</g>
<!-- Node14&#45;&gt;Node2 -->
<g id="edge22" class="edge">
<title>Node14&#45;&gt;Node2</title>
<path fill="none" stroke="midnightblue" d="M350.29,-110.22C346.99,-102.94 342.09,-92.11 337.93,-82.93"/>
<polygon fill="midnightblue" stroke="midnightblue" points="340.99,-81.22 333.68,-73.55 334.62,-84.1 340.99,-81.22"/>
</g>
<!-- Node14&#45;&gt;Node4 -->
<g id="edge23" class="edge">
<title>Node14&#45;&gt;Node4</title>
<path fill="none" stroke="midnightblue" d="M388.83,-110.47C475.75,-90.41 701.58,-38.3 787.85,-18.39"/>
<polygon fill="midnightblue" stroke="midnightblue" points="788.7,-21.78 797.66,-16.13 787.13,-14.96 788.7,-21.78"/>
</g>
<!-- Node14&#45;&gt;Node6 -->
<g id="edge24" class="edge">
<title>Node14&#45;&gt;Node6</title>
<path fill="none" stroke="midnightblue" d="M334.19,-110.38C288.02,-91.49 173.21,-44.53 119.11,-22.4"/>
<polygon fill="midnightblue" stroke="midnightblue" points="120.33,-19.11 109.75,-18.56 117.68,-25.59 120.33,-19.11"/>
</g>
<!-- Node14&#45;&gt;Node7 -->
<g id="edge25" class="edge">
<title>Node14&#45;&gt;Node7</title>
<path fill="none" stroke="midnightblue" d="M363.21,-110.38C383.61,-92.32 433.01,-48.59 459.15,-25.44"/>
<polygon fill="midnightblue" stroke="midnightblue" points="461.59,-27.96 466.76,-18.71 456.95,-22.72 461.59,-27.96"/>
</g>
</g>
</svg>
