<?xml version="1.0" encoding="UTF-8" standalone="no"?>
<!DOCTYPE svg PUBLIC "-//W3C//DTD SVG 1.1//EN"
 "http://www.w3.org/Graphics/SVG/1.1/DTD/svg11.dtd">
<!-- Generated by graphviz version 2.44.0 (20200408.0750)
 -->
<!-- Title: src/Ioss_SideBlock.h Pages: 1 -->
<svg width="3323pt" height="162pt"
 viewBox="0.00 0.00 3322.50 162.00" xmlns="http://www.w3.org/2000/svg" xmlns:xlink="http://www.w3.org/1999/xlink">
<g id="graph0" class="graph" transform="scale(1 1) rotate(0) translate(4 158)">
<title>src/Ioss_SideBlock.h</title>
<polygon fill="white" stroke="transparent" points="-4,4 -4,-158 3318.5,-158 3318.5,4 -4,4"/>
<!-- Node1 -->
<g id="node1" class="node">
<title>Node1</title>
<g id="a_node1"><a xlink:title=" ">
<polygon fill="#bfbfbf" stroke="black" points="1941.5,-134.5 1941.5,-153.5 2051.5,-153.5 2051.5,-134.5 1941.5,-134.5"/>
<text text-anchor="middle" x="1996.5" y="-141.5" font-family="Helvetica,sans-Serif" font-size="10.00">src/Ioss_SideBlock.h</text>
</a>
</g>
</g>
<!-- Node2 -->
<g id="node2" class="node">
<title>Node2</title>
<g id="a_node2"><a xlink:href="Ioad__DatabaseIO_8C.html" target="_top" xlink:title=" ">
<polygon fill="white" stroke="black" points="386.5,-73 386.5,-92 532.5,-92 532.5,-73 386.5,-73"/>
<text text-anchor="middle" x="459.5" y="-80" font-family="Helvetica,sans-Serif" font-size="10.00">src/adios/Ioad_DatabaseIO.C</text>
</a>
</g>
</g>
<!-- Node1&#45;&gt;Node2 -->
<g id="edge1" class="edge">
<title>Node1&#45;&gt;Node2</title>
<path fill="none" stroke="midnightblue" d="M1931.29,-142.23C1685.72,-139.15 816.74,-126.44 541.5,-98 528.27,-96.63 513.96,-94.38 501.05,-92.04"/>
<polygon fill="midnightblue" stroke="midnightblue" points="1931.44,-145.74 1941.48,-142.36 1931.52,-138.74 1931.44,-145.74"/>
</g>
<!-- Node3 -->
<g id="node3" class="node">
<title>Node3</title>
<g id="a_node3"><a xlink:href="Ioad__Helper_8C.html" target="_top" xlink:title=" ">
<polygon fill="white" stroke="black" points="550.5,-73 550.5,-92 672.5,-92 672.5,-73 550.5,-73"/>
<text text-anchor="middle" x="611.5" y="-80" font-family="Helvetica,sans-Serif" font-size="10.00">src/adios/Ioad_Helper.C</text>
</a>
</g>
</g>
<!-- Node1&#45;&gt;Node3 -->
<g id="edge2" class="edge">
<title>Node1&#45;&gt;Node3</title>
<path fill="none" stroke="midnightblue" d="M1930.98,-142.11C1701.05,-138.77 931.61,-125.73 686.5,-98 674.38,-96.63 661.28,-94.37 649.48,-92.04"/>
<polygon fill="midnightblue" stroke="midnightblue" points="1931.14,-145.61 1941.19,-142.26 1931.25,-138.61 1931.14,-145.61"/>
</g>
<!-- Node4 -->
<g id="node4" class="node">
<title>Node4</title>
<g id="a_node4"><a xlink:href="Ut__ioad_8C.html" target="_top" xlink:title=" ">
<polygon fill="white" stroke="black" points="1241,-0.5 1241,-30.5 1336,-30.5 1336,-0.5 1241,-0.5"/>
<text text-anchor="start" x="1249" y="-18.5" font-family="Helvetica,sans-Serif" font-size="10.00">src/adios/utest/Ut</text>
<text text-anchor="middle" x="1288.5" y="-7.5" font-family="Helvetica,sans-Serif" font-size="10.00">_ioad.C</text>
</a>
</g>
</g>
<!-- Node1&#45;&gt;Node4 -->
<g id="edge3" class="edge">
<title>Node1&#45;&gt;Node4</title>
<path fill="none" stroke="midnightblue" d="M1931.29,-141.39C1756.16,-136.75 1287.18,-122.11 1264.5,-98 1247.02,-79.41 1264.12,-48.73 1277.05,-30.78"/>
<polygon fill="midnightblue" stroke="midnightblue" points="1931.32,-144.89 1941.4,-141.65 1931.5,-137.89 1931.32,-144.89"/>
</g>
<!-- Node5 -->
<g id="node5" class="node">
<title>Node5</title>
<g id="a_node5"><a xlink:href="Iocgns__DatabaseIO_8C.html" target="_top" xlink:title=" ">
<polygon fill="white" stroke="black" points="0,-6 0,-25 155,-25 155,-6 0,-6"/>
<text text-anchor="middle" x="77.5" y="-13" font-family="Helvetica,sans-Serif" font-size="10.00">src/cgns/Iocgns_DatabaseIO.C</text>
</a>
</g>
</g>
<!-- Node1&#45;&gt;Node5 -->
<g id="edge4" class="edge">
<title>Node1&#45;&gt;Node5</title>
<path fill="none" stroke="midnightblue" d="M1931.3,-143.39C1686.05,-144.48 827.11,-144.9 714.5,-98 695.92,-90.26 699.94,-75.06 681.5,-67 575.96,-20.9 278.88,-44.48 164.5,-31 151.27,-29.44 136.98,-27.27 123.89,-25.08"/>
<polygon fill="midnightblue" stroke="midnightblue" points="1931.5,-146.89 1941.49,-143.34 1931.47,-139.89 1931.5,-146.89"/>
</g>
<!-- Node6 -->
<g id="node6" class="node">
<title>Node6</title>
<g id="a_node6"><a xlink:href="Iocgns__ParallelDatabaseIO_8C.html" target="_top" xlink:title=" ">
<polygon fill="white" stroke="black" points="173.5,-0.5 173.5,-30.5 297.5,-30.5 297.5,-0.5 173.5,-0.5"/>
<text text-anchor="start" x="181.5" y="-18.5" font-family="Helvetica,sans-Serif" font-size="10.00">src/cgns/Iocgns_Parallel</text>
<text text-anchor="middle" x="235.5" y="-7.5" font-family="Helvetica,sans-Serif" font-size="10.00">DatabaseIO.C</text>
</a>
</g>
</g>
<!-- Node1&#45;&gt;Node6 -->
<g id="edge5" class="edge">
<title>Node1&#45;&gt;Node6</title>
<path fill="none" stroke="midnightblue" d="M1930.89,-142.84C1690.84,-141.95 868.59,-136.11 757.5,-98 735.22,-90.36 736.58,-75.22 714.5,-67 543.9,-3.5 486.63,-57.25 306.5,-31 303.64,-30.58 300.71,-30.12 297.77,-29.63"/>
<polygon fill="midnightblue" stroke="midnightblue" points="1931.19,-146.34 1941.2,-142.88 1931.21,-139.34 1931.19,-146.34"/>
</g>
<!-- Node7 -->
<g id="node7" class="node">
<title>Node7</title>
<g id="a_node7"><a xlink:href="Iocgns__Utils_8h.html" target="_top" xlink:title=" ">
<polygon fill="white" stroke="black" points="766.5,-73 766.5,-92 886.5,-92 886.5,-73 766.5,-73"/>
<text text-anchor="middle" x="826.5" y="-80" font-family="Helvetica,sans-Serif" font-size="10.00">src/cgns/Iocgns_Utils.h</text>
</a>
</g>
</g>
<!-- Node1&#45;&gt;Node7 -->
<g id="edge6" class="edge">
<title>Node1&#45;&gt;Node7</title>
<path fill="none" stroke="midnightblue" d="M1931.15,-139.68C1724.35,-129.16 1086.17,-96.71 886.71,-86.56"/>
<polygon fill="midnightblue" stroke="midnightblue" points="1931.08,-143.18 1941.25,-140.19 1931.44,-136.19 1931.08,-143.18"/>
</g>
<!-- Node14 -->
<g id="node14" class="node">
<title>Node14</title>
<g id="a_node14"><a xlink:href="Ioex__BaseDatabaseIO_8C.html" target="_top" xlink:title=" ">
<polygon fill="white" stroke="black" points="1408,-73 1408,-92 1585,-92 1585,-73 1408,-73"/>
<text text-anchor="middle" x="1496.5" y="-80" font-family="Helvetica,sans-Serif" font-size="10.00">src/exodus/Ioex_BaseDatabaseIO.C</text>
</a>
</g>
</g>
<!-- Node1&#45;&gt;Node14 -->
<g id="edge15" class="edge">
<title>Node1&#45;&gt;Node14</title>
<path fill="none" stroke="midnightblue" d="M1930.95,-136.44C1851.13,-128.27 1712.25,-113.5 1593.5,-98 1579.74,-96.2 1564.91,-94.08 1551.09,-92.02"/>
<polygon fill="midnightblue" stroke="midnightblue" points="1931.04,-139.96 1941.34,-137.5 1931.75,-133 1931.04,-139.96"/>
</g>
<!-- Node15 -->
<g id="node15" class="node">
<title>Node15</title>
<g id="a_node15"><a xlink:href="Ioex__DatabaseIO_8C.html" target="_top" xlink:title=" ">
<polygon fill="white" stroke="black" points="1603,-73 1603,-92 1758,-92 1758,-73 1603,-73"/>
<text text-anchor="middle" x="1680.5" y="-80" font-family="Helvetica,sans-Serif" font-size="10.00">src/exodus/Ioex_DatabaseIO.C</text>
</a>
</g>
</g>
<!-- Node1&#45;&gt;Node15 -->
<g id="edge16" class="edge">
<title>Node1&#45;&gt;Node15</title>
<path fill="none" stroke="midnightblue" d="M1941.36,-132.62C1880.16,-121.09 1782.55,-102.72 1725.69,-92.01"/>
<polygon fill="midnightblue" stroke="midnightblue" points="1940.75,-136.06 1951.22,-134.48 1942.05,-129.19 1940.75,-136.06"/>
</g>
<!-- Node16 -->
<g id="node16" class="node">
<title>Node16</title>
<g id="a_node16"><a xlink:href="Ioex__Internals_8C.html" target="_top" xlink:title=" ">
<polygon fill="white" stroke="black" points="1776.5,-73 1776.5,-92 1916.5,-92 1916.5,-73 1776.5,-73"/>
<text text-anchor="middle" x="1846.5" y="-80" font-family="Helvetica,sans-Serif" font-size="10.00">src/exodus/Ioex_Internals.C</text>
</a>
</g>
</g>
<!-- Node1&#45;&gt;Node16 -->
<g id="edge17" class="edge">
<title>Node1&#45;&gt;Node16</title>
<path fill="none" stroke="midnightblue" d="M1965.7,-130.78C1936.55,-119.22 1893.55,-102.16 1867.95,-92.01"/>
<polygon fill="midnightblue" stroke="midnightblue" points="1964.42,-134.04 1975.01,-134.48 1967,-127.53 1964.42,-134.04"/>
</g>
<!-- Node17 -->
<g id="node17" class="node">
<title>Node17</title>
<g id="a_node17"><a xlink:href="Ioex__ParallelDatabaseIO_8C.html" target="_top" xlink:title=" ">
<polygon fill="white" stroke="black" points="1934.5,-67.5 1934.5,-97.5 2058.5,-97.5 2058.5,-67.5 1934.5,-67.5"/>
<text text-anchor="start" x="1942.5" y="-85.5" font-family="Helvetica,sans-Serif" font-size="10.00">src/exodus/Ioex_Parallel</text>
<text text-anchor="middle" x="1996.5" y="-74.5" font-family="Helvetica,sans-Serif" font-size="10.00">DatabaseIO.C</text>
</a>
</g>
</g>
<!-- Node1&#45;&gt;Node17 -->
<g id="edge18" class="edge">
<title>Node1&#45;&gt;Node17</title>
<path fill="none" stroke="midnightblue" d="M1996.5,-124.23C1996.5,-115.59 1996.5,-105.5 1996.5,-97.52"/>
<polygon fill="midnightblue" stroke="midnightblue" points="1993,-124.48 1996.5,-134.48 2000,-124.48 1993,-124.48"/>
</g>
<!-- Node18 -->
<g id="node18" class="node">
<title>Node18</title>
<g id="a_node18"><a xlink:href="Iogs__DatabaseIO_8C.html" target="_top" xlink:title=" ">
<polygon fill="white" stroke="black" points="2076.5,-67.5 2076.5,-97.5 2174.5,-97.5 2174.5,-67.5 2076.5,-67.5"/>
<text text-anchor="start" x="2084.5" y="-85.5" font-family="Helvetica,sans-Serif" font-size="10.00">src/gen_struc/Iogs</text>
<text text-anchor="middle" x="2125.5" y="-74.5" font-family="Helvetica,sans-Serif" font-size="10.00">_DatabaseIO.C</text>
</a>
</g>
</g>
<!-- Node1&#45;&gt;Node18 -->
<g id="edge19" class="edge">
<title>Node1&#45;&gt;Node18</title>
<path fill="none" stroke="midnightblue" d="M2024.25,-130.2C2045.1,-120.58 2073.63,-107.42 2095.1,-97.52"/>
<polygon fill="midnightblue" stroke="midnightblue" points="2022.6,-127.11 2014.98,-134.48 2025.53,-133.46 2022.6,-127.11"/>
</g>
<!-- Node19 -->
<g id="node19" class="node">
<title>Node19</title>
<g id="a_node19"><a xlink:href="Iogn__DatabaseIO_8C.html" target="_top" xlink:title=" ">
<polygon fill="white" stroke="black" points="2192.5,-67.5 2192.5,-97.5 2290.5,-97.5 2290.5,-67.5 2192.5,-67.5"/>
<text text-anchor="start" x="2200.5" y="-85.5" font-family="Helvetica,sans-Serif" font-size="10.00">src/generated/Iogn</text>
<text text-anchor="middle" x="2241.5" y="-74.5" font-family="Helvetica,sans-Serif" font-size="10.00">_DatabaseIO.C</text>
</a>
</g>
</g>
<!-- Node1&#45;&gt;Node19 -->
<g id="edge20" class="edge">
<title>Node1&#45;&gt;Node19</title>
<path fill="none" stroke="midnightblue" d="M2042.58,-132.03C2080.44,-122.99 2135.48,-109.78 2183.5,-98 2186.42,-97.28 2189.43,-96.54 2192.46,-95.79"/>
<polygon fill="midnightblue" stroke="midnightblue" points="2041.29,-128.74 2032.37,-134.47 2042.91,-135.55 2041.29,-128.74"/>
</g>
<!-- Node20 -->
<g id="node20" class="node">
<title>Node20</title>
<g id="a_node20"><a xlink:href="Ioss__DatabaseIO_8C.html" target="_top" xlink:title=" ">
<polygon fill="white" stroke="black" points="2308.5,-73 2308.5,-92 2428.5,-92 2428.5,-73 2308.5,-73"/>
<text text-anchor="middle" x="2368.5" y="-80" font-family="Helvetica,sans-Serif" font-size="10.00">src/Ioss_DatabaseIO.C</text>
</a>
</g>
</g>
<!-- Node1&#45;&gt;Node20 -->
<g id="edge21" class="edge">
<title>Node1&#45;&gt;Node20</title>
<path fill="none" stroke="midnightblue" d="M2061.63,-134.47C2123.11,-126.15 2217.81,-112.64 2299.5,-98 2309.38,-96.23 2320.01,-94.11 2329.9,-92.04"/>
<polygon fill="midnightblue" stroke="midnightblue" points="2061.12,-131.01 2051.67,-135.81 2062.05,-137.95 2061.12,-131.01"/>
</g>
<!-- Node21 -->
<g id="node21" class="node">
<title>Node21</title>
<g id="a_node21"><a xlink:href="Ioss__Region_8C.html" target="_top" xlink:title=" ">
<polygon fill="white" stroke="black" points="2446.5,-73 2446.5,-92 2544.5,-92 2544.5,-73 2446.5,-73"/>
<text text-anchor="middle" x="2495.5" y="-80" font-family="Helvetica,sans-Serif" font-size="10.00">src/Ioss_Region.C</text>
</a>
</g>
</g>
<!-- Node1&#45;&gt;Node21 -->
<g id="edge22" class="edge">
<title>Node1&#45;&gt;Node21</title>
<path fill="none" stroke="midnightblue" d="M2061.69,-139.28C2148.1,-133.68 2305.1,-121.18 2437.5,-98 2446.5,-96.42 2456.16,-94.22 2464.97,-92"/>
<polygon fill="midnightblue" stroke="midnightblue" points="2061.26,-135.8 2051.5,-139.93 2061.71,-142.78 2061.26,-135.8"/>
</g>
<!-- Node22 -->
<g id="node22" class="node">
<title>Node22</title>
<g id="a_node22"><a xlink:href="Ioss__SideBlock_8C.html" target="_top" xlink:title=" ">
<polygon fill="white" stroke="black" points="2562.5,-73 2562.5,-92 2674.5,-92 2674.5,-73 2562.5,-73"/>
<text text-anchor="middle" x="2618.5" y="-80" font-family="Helvetica,sans-Serif" font-size="10.00">src/Ioss_SideBlock.C</text>
</a>
</g>
</g>
<!-- Node1&#45;&gt;Node22 -->
<g id="edge23" class="edge">
<title>Node1&#45;&gt;Node22</title>
<path fill="none" stroke="midnightblue" d="M2061.81,-140.66C2166.2,-136.27 2376.88,-124.7 2553.5,-98 2563.56,-96.48 2574.38,-94.29 2584.26,-92.07"/>
<polygon fill="midnightblue" stroke="midnightblue" points="2061.59,-137.17 2051.74,-141.08 2061.87,-144.16 2061.59,-137.17"/>
</g>
<!-- Node23 -->
<g id="node23" class="node">
<title>Node23</title>
<g id="a_node23"><a xlink:href="Ioss__SideSet_8C.html" target="_top" xlink:title=" ">
<polygon fill="white" stroke="black" points="2692.5,-73 2692.5,-92 2794.5,-92 2794.5,-73 2692.5,-73"/>
<text text-anchor="middle" x="2743.5" y="-80" font-family="Helvetica,sans-Serif" font-size="10.00">src/Ioss_SideSet.C</text>
</a>
</g>
</g>
<!-- Node1&#45;&gt;Node23 -->
<g id="edge24" class="edge">
<title>Node1&#45;&gt;Node23</title>
<path fill="none" stroke="midnightblue" d="M2061.95,-142.44C2184.58,-140.58 2457.03,-132.52 2683.5,-98 2693.03,-96.55 2703.28,-94.32 2712.56,-92.05"/>
<polygon fill="midnightblue" stroke="midnightblue" points="2061.56,-138.95 2051.61,-142.59 2061.66,-145.95 2061.56,-138.95"/>
</g>
<!-- Node24 -->
<g id="node24" class="node">
<title>Node24</title>
<g id="a_node24"><a xlink:href="Ioss__SubSystem_8h.html" target="_top" xlink:title=" ">
<polygon fill="white" stroke="black" points="1273.5,-73 1273.5,-92 1389.5,-92 1389.5,-73 1273.5,-73"/>
<text text-anchor="middle" x="1331.5" y="-80" font-family="Helvetica,sans-Serif" font-size="10.00">src/Ioss_SubSystem.h</text>
</a>
</g>
</g>
<!-- Node1&#45;&gt;Node24 -->
<g id="edge25" class="edge">
<title>Node1&#45;&gt;Node24</title>
<path fill="none" stroke="midnightblue" d="M1931.1,-141.03C1820.77,-137.05 1590.89,-125.92 1398.5,-98 1388.02,-96.48 1376.73,-94.26 1366.45,-92.02"/>
<polygon fill="midnightblue" stroke="midnightblue" points="1931.28,-144.54 1941.4,-141.39 1931.52,-137.54 1931.28,-144.54"/>
</g>
<!-- Node31 -->
<g id="node31" class="node">
<title>Node31</title>
<g id="a_node31"><a xlink:href="cth__pressure__map_8C.html" target="_top" xlink:title=" ">
<polygon fill="white" stroke="black" points="2813,-67.5 2813,-97.5 2926,-97.5 2926,-67.5 2813,-67.5"/>
<text text-anchor="start" x="2821" y="-85.5" font-family="Helvetica,sans-Serif" font-size="10.00">src/main/cth_pressure</text>
<text text-anchor="middle" x="2869.5" y="-74.5" font-family="Helvetica,sans-Serif" font-size="10.00">_map.C</text>
</a>
</g>
</g>
<!-- Node1&#45;&gt;Node31 -->
<g id="edge34" class="edge">
<title>Node1&#45;&gt;Node31</title>
<path fill="none" stroke="midnightblue" d="M2061.96,-142.9C2199.8,-141.91 2529.8,-135.45 2803.5,-98 2806.52,-97.59 2809.61,-97.11 2812.72,-96.58"/>
<polygon fill="midnightblue" stroke="midnightblue" points="2061.56,-139.4 2051.59,-142.97 2061.61,-146.4 2061.56,-139.4"/>
</g>
<!-- Node32 -->
<g id="node32" class="node">
<title>Node32</title>
<g id="a_node32"><a xlink:href="io__info_8h.html" target="_top" xlink:title=" ">
<polygon fill="white" stroke="black" points="2944.5,-73 2944.5,-92 3038.5,-92 3038.5,-73 2944.5,-73"/>
<text text-anchor="middle" x="2991.5" y="-80" font-family="Helvetica,sans-Serif" font-size="10.00">src/main/io_info.h</text>
</a>
</g>
</g>
<!-- Node1&#45;&gt;Node32 -->
<g id="edge35" class="edge">
<title>Node1&#45;&gt;Node32</title>
<path fill="none" stroke="midnightblue" d="M2061.68,-141.62C2245.66,-137.45 2766.54,-123.64 2935.5,-98 2944.63,-96.61 2954.44,-94.35 2963.25,-92.02"/>
<polygon fill="midnightblue" stroke="midnightblue" points="2061.53,-138.12 2051.61,-141.85 2061.69,-145.12 2061.53,-138.12"/>
</g>
<!-- Node35 -->
<g id="node35" class="node">
<title>Node35</title>
<g id="a_node35"><a xlink:href="io__modify_8C.html" target="_top" xlink:title=" ">
<polygon fill="white" stroke="black" points="3056.5,-73 3056.5,-92 3164.5,-92 3164.5,-73 3056.5,-73"/>
<text text-anchor="middle" x="3110.5" y="-80" font-family="Helvetica,sans-Serif" font-size="10.00">src/main/io_modify.C</text>
</a>
</g>
</g>
<!-- Node1&#45;&gt;Node35 -->
<g id="edge38" class="edge">
<title>Node1&#45;&gt;Node35</title>
<path fill="none" stroke="midnightblue" d="M2062.09,-141.77C2261.03,-137.78 2855.7,-123.96 3047.5,-98 3057.73,-96.62 3068.75,-94.35 3078.66,-92.02"/>
<polygon fill="midnightblue" stroke="midnightblue" points="2061.72,-138.27 2051.79,-141.97 2061.86,-145.27 2061.72,-138.27"/>
</g>
<!-- Node36 -->
<g id="node36" class="node">
<title>Node36</title>
<g id="a_node36"><a xlink:href="UnitTestIofxDatabaseIO_8C.html" target="_top" xlink:title=" ">
<polygon fill="white" stroke="black" points="3182.5,-67.5 3182.5,-97.5 3314.5,-97.5 3314.5,-67.5 3182.5,-67.5"/>
<text text-anchor="start" x="3190.5" y="-85.5" font-family="Helvetica,sans-Serif" font-size="10.00">src/unit_tests/UnitTestIofx</text>
<text text-anchor="middle" x="3248.5" y="-74.5" font-family="Helvetica,sans-Serif" font-size="10.00">DatabaseIO.C</text>
</a>
</g>
</g>
<!-- Node1&#45;&gt;Node36 -->
<g id="edge39" class="edge">
<title>Node1&#45;&gt;Node36</title>
<path fill="none" stroke="midnightblue" d="M2061.76,-141.82C2275.84,-137.74 2955.51,-123.09 3173.5,-98 3176.4,-97.67 3179.35,-97.28 3182.33,-96.86"/>
<polygon fill="midnightblue" stroke="midnightblue" points="2061.55,-138.32 2051.62,-142.01 2061.68,-145.32 2061.55,-138.32"/>
</g>
<!-- Node7&#45;&gt;Node5 -->
<g id="edge7" class="edge">
<title>Node7&#45;&gt;Node5</title>
<path fill="none" stroke="midnightblue" d="M756.44,-71.74C742.56,-70 728.08,-68.32 714.5,-67 470.69,-43.26 407.84,-59.17 164.5,-31 151.11,-29.45 136.65,-27.25 123.43,-25.04"/>
<polygon fill="midnightblue" stroke="midnightblue" points="756.06,-75.22 766.42,-73.01 756.94,-68.27 756.06,-75.22"/>
</g>
<!-- Node7&#45;&gt;Node6 -->
<g id="edge10" class="edge">
<title>Node7&#45;&gt;Node6</title>
<path fill="none" stroke="midnightblue" d="M777.5,-71.09C769.18,-69.56 760.61,-68.12 752.5,-67 555.5,-39.84 503.39,-58.95 306.5,-31 303.64,-30.59 300.71,-30.14 297.76,-29.66"/>
<polygon fill="midnightblue" stroke="midnightblue" points="776.99,-74.56 787.47,-73 778.3,-67.68 776.99,-74.56"/>
</g>
<!-- Node8 -->
<g id="node8" class="node">
<title>Node8</title>
<g id="a_node8"><a xlink:href="Iocgns__DecompositionData_8C.html" target="_top" xlink:title=" ">
<polygon fill="white" stroke="black" points="907,-0.5 907,-30.5 1064,-30.5 1064,-0.5 907,-0.5"/>
<text text-anchor="start" x="915" y="-18.5" font-family="Helvetica,sans-Serif" font-size="10.00">src/cgns/Iocgns_Decomposition</text>
<text text-anchor="middle" x="985.5" y="-7.5" font-family="Helvetica,sans-Serif" font-size="10.00">Data.C</text>
</a>
</g>
</g>
<!-- Node7&#45;&gt;Node8 -->
<g id="edge8" class="edge">
<title>Node7&#45;&gt;Node8</title>
<path fill="none" stroke="midnightblue" d="M856.94,-69.06C883.87,-58.05 923.14,-41.99 951.19,-30.53"/>
<polygon fill="midnightblue" stroke="midnightblue" points="855.55,-65.84 847.61,-72.87 858.19,-72.32 855.55,-65.84"/>
</g>
<!-- Node9 -->
<g id="node9" class="node">
<title>Node9</title>
<g id="a_node9"><a xlink:href="Iocgns__IOFactory_8C.html" target="_top" xlink:title=" ">
<polygon fill="white" stroke="black" points="315.5,-6 315.5,-25 459.5,-25 459.5,-6 315.5,-6"/>
<text text-anchor="middle" x="387.5" y="-13" font-family="Helvetica,sans-Serif" font-size="10.00">src/cgns/Iocgns_IOFactory.C</text>
</a>
</g>
</g>
<!-- Node7&#45;&gt;Node9 -->
<g id="edge9" class="edge">
<title>Node7&#45;&gt;Node9</title>
<path fill="none" stroke="midnightblue" d="M775.51,-71.04C767.82,-69.6 759.96,-68.2 752.5,-67 626.89,-46.76 594.27,-50.22 468.5,-31 456.92,-29.23 444.45,-27.11 432.84,-25.04"/>
<polygon fill="midnightblue" stroke="midnightblue" points="775.01,-74.51 785.49,-72.95 776.33,-67.63 775.01,-74.51"/>
</g>
<!-- Node10 -->
<g id="node10" class="node">
<title>Node10</title>
<g id="a_node10"><a xlink:href="Iocgns__Utils_8C.html" target="_top" xlink:title=" ">
<polygon fill="white" stroke="black" points="477.5,-6 477.5,-25 599.5,-25 599.5,-6 477.5,-6"/>
<text text-anchor="middle" x="538.5" y="-13" font-family="Helvetica,sans-Serif" font-size="10.00">src/cgns/Iocgns_Utils.C</text>
</a>
</g>
</g>
<!-- Node7&#45;&gt;Node10 -->
<g id="edge11" class="edge">
<title>Node7&#45;&gt;Node10</title>
<path fill="none" stroke="midnightblue" d="M778.75,-70.72C722.04,-57.92 628.59,-36.83 576.53,-25.08"/>
<polygon fill="midnightblue" stroke="midnightblue" points="778.03,-74.15 788.55,-72.94 779.57,-67.32 778.03,-74.15"/>
</g>
<!-- Node11 -->
<g id="node11" class="node">
<title>Node11</title>
<g id="a_node11"><a xlink:href="cgns__decomp_8C.html" target="_top" xlink:title=" ">
<polygon fill="white" stroke="black" points="617.5,-6 617.5,-25 745.5,-25 745.5,-6 617.5,-6"/>
<text text-anchor="middle" x="681.5" y="-13" font-family="Helvetica,sans-Serif" font-size="10.00">src/main/cgns_decomp.C</text>
</a>
</g>
</g>
<!-- Node7&#45;&gt;Node11 -->
<g id="edge12" class="edge">
<title>Node7&#45;&gt;Node11</title>
<path fill="none" stroke="midnightblue" d="M797.75,-68.61C769.03,-55.74 725.68,-36.31 700.83,-25.17"/>
<polygon fill="midnightblue" stroke="midnightblue" points="796.69,-71.97 807.25,-72.87 799.55,-65.58 796.69,-71.97"/>
</g>
<!-- Node12 -->
<g id="node12" class="node">
<title>Node12</title>
<g id="a_node12"><a xlink:href="struc__to__unstruc_8C.html" target="_top" xlink:title=" ">
<polygon fill="white" stroke="black" points="1082.5,-6 1082.5,-25 1222.5,-25 1222.5,-6 1082.5,-6"/>
<text text-anchor="middle" x="1152.5" y="-13" font-family="Helvetica,sans-Serif" font-size="10.00">src/main/struc_to_unstruc.C</text>
</a>
</g>
</g>
<!-- Node7&#45;&gt;Node12 -->
<g id="edge13" class="edge">
<title>Node7&#45;&gt;Node12</title>
<path fill="none" stroke="midnightblue" d="M879.37,-70.96C943.53,-58.16 1050.47,-36.84 1109.71,-25.03"/>
<polygon fill="midnightblue" stroke="midnightblue" points="878.58,-67.55 869.45,-72.94 879.95,-74.41 878.58,-67.55"/>
</g>
<!-- Node13 -->
<g id="node13" class="node">
<title>Node13</title>
<g id="a_node13"><a xlink:href="Utst__structured__decomp_8C.html" target="_top" xlink:title=" ">
<polygon fill="white" stroke="black" points="764,-0.5 764,-30.5 889,-30.5 889,-0.5 764,-0.5"/>
<text text-anchor="start" x="772" y="-18.5" font-family="Helvetica,sans-Serif" font-size="10.00">src/utest/Utst_structured</text>
<text text-anchor="middle" x="826.5" y="-7.5" font-family="Helvetica,sans-Serif" font-size="10.00">_decomp.C</text>
</a>
</g>
</g>
<!-- Node7&#45;&gt;Node13 -->
<g id="edge14" class="edge">
<title>Node7&#45;&gt;Node13</title>
<path fill="none" stroke="midnightblue" d="M826.5,-62.41C826.5,-52.22 826.5,-39.9 826.5,-30.59"/>
<polygon fill="midnightblue" stroke="midnightblue" points="823,-62.73 826.5,-72.73 830,-62.73 823,-62.73"/>
</g>
<!-- Node24&#45;&gt;Node4 -->
<g id="edge26" class="edge">
<title>Node24&#45;&gt;Node4</title>
<path fill="none" stroke="midnightblue" d="M1320.16,-64.35C1313.19,-53.82 1304.38,-40.5 1297.82,-30.59"/>
<polygon fill="midnightblue" stroke="midnightblue" points="1317.26,-66.32 1325.7,-72.73 1323.1,-62.46 1317.26,-66.32"/>
</g>
<!-- Node24&#45;&gt;Node12 -->
<g id="edge31" class="edge">
<title>Node24&#45;&gt;Node12</title>
<path fill="none" stroke="midnightblue" d="M1298.28,-69.44C1262.77,-56.54 1207.37,-36.42 1176.08,-25.06"/>
<polygon fill="midnightblue" stroke="midnightblue" points="1297.14,-72.75 1307.73,-72.87 1299.53,-66.17 1297.14,-72.75"/>
</g>
<!-- Node25 -->
<g id="node25" class="node">
<title>Node25</title>
<g id="a_node25"><a xlink:href="Iodw__DatabaseIO_8C.html" target="_top" xlink:title=" ">
<polygon fill="white" stroke="black" points="1790,-0.5 1790,-30.5 1899,-30.5 1899,-0.5 1790,-0.5"/>
<text text-anchor="start" x="1798" y="-18.5" font-family="Helvetica,sans-Serif" font-size="10.00">src/data_warehouse</text>
<text text-anchor="middle" x="1844.5" y="-7.5" font-family="Helvetica,sans-Serif" font-size="10.00">/Iodw_DatabaseIO.C</text>
</a>
</g>
</g>
<!-- Node24&#45;&gt;Node25 -->
<g id="edge27" class="edge">
<title>Node24&#45;&gt;Node25</title>
<path fill="none" stroke="midnightblue" d="M1377.33,-70.82C1384.4,-69.4 1391.63,-68.06 1398.5,-67 1567.02,-40.92 1612.1,-57.9 1780.5,-31 1783.54,-30.51 1786.65,-29.97 1789.78,-29.39"/>
<polygon fill="midnightblue" stroke="midnightblue" points="1376.24,-67.48 1367.17,-72.96 1377.67,-74.33 1376.24,-67.48"/>
</g>
<!-- Node26 -->
<g id="node26" class="node">
<title>Node26</title>
<g id="a_node26"><a xlink:href="Ioss__Utils_8C.html" target="_top" xlink:title=" ">
<polygon fill="white" stroke="black" points="1917.5,-6 1917.5,-25 2005.5,-25 2005.5,-6 1917.5,-6"/>
<text text-anchor="middle" x="1961.5" y="-13" font-family="Helvetica,sans-Serif" font-size="10.00">src/Ioss_Utils.C</text>
</a>
</g>
</g>
<!-- Node24&#45;&gt;Node26 -->
<g id="edge28" class="edge">
<title>Node24&#45;&gt;Node26</title>
<path fill="none" stroke="midnightblue" d="M1376.32,-70.88C1383.7,-69.4 1391.29,-68.03 1398.5,-67 1623.01,-34.93 1683.85,-68.58 1907.5,-31 1916.12,-29.55 1925.35,-27.33 1933.7,-25.06"/>
<polygon fill="midnightblue" stroke="midnightblue" points="1375.52,-67.47 1366.45,-72.95 1376.96,-74.32 1375.52,-67.47"/>
</g>
<!-- Node27 -->
<g id="node27" class="node">
<title>Node27</title>
<g id="a_node27"><a xlink:href="io__shell_8C.html" target="_top" xlink:title=" ">
<polygon fill="white" stroke="black" points="2024,-6 2024,-25 2125,-25 2125,-6 2024,-6"/>
<text text-anchor="middle" x="2074.5" y="-13" font-family="Helvetica,sans-Serif" font-size="10.00">src/main/io_shell.C</text>
</a>
</g>
</g>
<!-- Node24&#45;&gt;Node27 -->
<g id="edge29" class="edge">
<title>Node24&#45;&gt;Node27</title>
<path fill="none" stroke="midnightblue" d="M1376.06,-70.85C1383.52,-69.36 1391.2,-68 1398.5,-67 1670.22,-29.88 1743.24,-71.37 2014.5,-31 2024.15,-29.56 2034.52,-27.32 2043.88,-25.02"/>
<polygon fill="midnightblue" stroke="midnightblue" points="1375.16,-67.46 1366.09,-72.94 1376.6,-74.31 1375.16,-67.46"/>
</g>
<!-- Node28 -->
<g id="node28" class="node">
<title>Node28</title>
<g id="a_node28"><a xlink:href="io__shell__ts_8C.html" target="_top" xlink:title=" ">
<polygon fill="white" stroke="black" points="1354.5,-6 1354.5,-25 1468.5,-25 1468.5,-6 1354.5,-6"/>
<text text-anchor="middle" x="1411.5" y="-13" font-family="Helvetica,sans-Serif" font-size="10.00">src/main/io_shell_ts.C</text>
</a>
</g>
</g>
<!-- Node24&#45;&gt;Node28 -->
<g id="edge30" class="edge">
<title>Node24&#45;&gt;Node28</title>
<path fill="none" stroke="midnightblue" d="M1350.31,-66.21C1366.08,-53.41 1388.01,-35.59 1400.88,-25.13"/>
<polygon fill="midnightblue" stroke="midnightblue" points="1347.84,-63.71 1342.29,-72.73 1352.26,-69.14 1347.84,-63.71"/>
</g>
<!-- Node29 -->
<g id="node29" class="node">
<title>Node29</title>
<g id="a_node29"><a xlink:href="Iopg__DatabaseIO_8C.html" target="_top" xlink:title=" ">
<polygon fill="white" stroke="black" points="1486.5,-6 1486.5,-25 1644.5,-25 1644.5,-6 1486.5,-6"/>
<text text-anchor="middle" x="1565.5" y="-13" font-family="Helvetica,sans-Serif" font-size="10.00">src/pamgen/Iopg_DatabaseIO.C</text>
</a>
</g>
</g>
<!-- Node24&#45;&gt;Node29 -->
<g id="edge32" class="edge">
<title>Node24&#45;&gt;Node29</title>
<path fill="none" stroke="midnightblue" d="M1372.28,-70.17C1418.55,-57.32 1492.99,-36.64 1534.67,-25.06"/>
<polygon fill="midnightblue" stroke="midnightblue" points="1371.27,-66.82 1362.57,-72.87 1373.15,-73.56 1371.27,-66.82"/>
</g>
<!-- Node30 -->
<g id="node30" class="node">
<title>Node30</title>
<g id="a_node30"><a xlink:href="Iovs__DatabaseIO_8C.html" target="_top" xlink:title=" ">
<polygon fill="white" stroke="black" points="1663,-0.5 1663,-30.5 1772,-30.5 1772,-0.5 1663,-0.5"/>
<text text-anchor="start" x="1671" y="-18.5" font-family="Helvetica,sans-Serif" font-size="10.00">src/visualization/Iovs</text>
<text text-anchor="middle" x="1717.5" y="-7.5" font-family="Helvetica,sans-Serif" font-size="10.00">_DatabaseIO.C</text>
</a>
</g>
</g>
<!-- Node24&#45;&gt;Node30 -->
<g id="edge33" class="edge">
<title>Node24&#45;&gt;Node30</title>
<path fill="none" stroke="midnightblue" d="M1378.83,-70.81C1385.42,-69.45 1392.12,-68.14 1398.5,-67 1511.18,-46.88 1540.92,-51.66 1653.5,-31 1656.53,-30.44 1659.62,-29.85 1662.75,-29.22"/>
<polygon fill="midnightblue" stroke="midnightblue" points="1377.68,-67.47 1368.62,-72.96 1379.12,-74.32 1377.68,-67.47"/>
</g>
<!-- Node33 -->
<g id="node33" class="node">
<title>Node33</title>
<g id="a_node33"><a xlink:href="io__info_8C.html" target="_top" xlink:title=" ">
<polygon fill="white" stroke="black" points="3007.5,-6 3007.5,-25 3103.5,-25 3103.5,-6 3007.5,-6"/>
<text text-anchor="middle" x="3055.5" y="-13" font-family="Helvetica,sans-Serif" font-size="10.00">src/main/io_info.C</text>
</a>
</g>
</g>
<!-- Node32&#45;&gt;Node33 -->
<g id="edge36" class="edge">
<title>Node32&#45;&gt;Node33</title>
<path fill="none" stroke="midnightblue" d="M3007.26,-65.5C3019.81,-52.75 3036.9,-35.39 3047.01,-25.13"/>
<polygon fill="midnightblue" stroke="midnightblue" points="3004.65,-63.15 3000.13,-72.73 3009.64,-68.06 3004.65,-63.15"/>
</g>
<!-- Node34 -->
<g id="node34" class="node">
<title>Node34</title>
<g id="a_node34"><a xlink:href="io__info__main_8C.html" target="_top" xlink:title=" ">
<polygon fill="white" stroke="black" points="2867.5,-6 2867.5,-25 2989.5,-25 2989.5,-6 2867.5,-6"/>
<text text-anchor="middle" x="2928.5" y="-13" font-family="Helvetica,sans-Serif" font-size="10.00">src/main/io_info_main.C</text>
</a>
</g>
</g>
<!-- Node32&#45;&gt;Node34 -->
<g id="edge37" class="edge">
<title>Node32&#45;&gt;Node34</title>
<path fill="none" stroke="midnightblue" d="M2975.99,-65.5C2963.63,-52.75 2946.81,-35.39 2936.86,-25.13"/>
<polygon fill="midnightblue" stroke="midnightblue" points="2973.53,-67.99 2983,-72.73 2978.56,-63.12 2973.53,-67.99"/>
</g>
</g>
</svg>
