<?xml version="1.0" encoding="UTF-8" standalone="no"?>
<!DOCTYPE svg PUBLIC "-//W3C//DTD SVG 1.1//EN"
 "http://www.w3.org/Graphics/SVG/1.1/DTD/svg11.dtd">
<!-- Generated by graphviz version 2.42.3 (20191010.1750)
 -->
<!-- Title: src/Ioss_PropertyManager.h Pages: 1 -->
<svg width="604pt" height="137pt"
 viewBox="0.00 0.00 604.42 137.00" xmlns="http://www.w3.org/2000/svg" xmlns:xlink="http://www.w3.org/1999/xlink">
<g id="graph0" class="graph" transform="scale(1 1) rotate(0) translate(4 133)">
<title>src/Ioss_PropertyManager.h</title>
<polygon fill="white" stroke="transparent" points="-4,4 -4,-133 600.42,-133 600.42,4 -4,4"/>
<!-- Node1 -->
<g id="node1" class="node">
<title>Node1</title>
<g id="a_node1"><a xlink:title=" ">
<polygon fill="#bfbfbf" stroke="black" points="304.59,-110.5 304.59,-128.5 445.65,-128.5 445.65,-110.5 304.59,-110.5"/>
<text text-anchor="middle" x="375.12" y="-116.5" font-family="Helvetica,sans-Serif" font-size="10.00">src/Ioss_PropertyManager.h</text>
</a>
</g>
</g>
<!-- Node2 -->
<g id="node2" class="node">
<title>Node2</title>
<g id="a_node2"><a xlink:href="Ioss__CodeTypes_8h.html" target="_top" xlink:title=" ">
<polygon fill="white" stroke="black" points="213.7,-55.5 213.7,-73.5 312.54,-73.5 312.54,-55.5 213.7,-55.5"/>
<text text-anchor="middle" x="263.12" y="-61.5" font-family="Helvetica,sans-Serif" font-size="10.00">Ioss_CodeTypes.h</text>
</a>
</g>
</g>
<!-- Node1&#45;&gt;Node2 -->
<g id="edge1" class="edge">
<title>Node1&#45;&gt;Node2</title>
<path fill="none" stroke="midnightblue" d="M358.11,-110.45C339.86,-101.81 310.63,-87.98 289.41,-77.94"/>
<polygon fill="midnightblue" stroke="midnightblue" points="290.83,-74.74 280.29,-73.63 287.83,-81.07 290.83,-74.74"/>
</g>
<!-- Node4 -->
<g id="node4" class="node">
<title>Node4</title>
<g id="a_node4"><a xlink:title=" ">
<polygon fill="white" stroke="#bfbfbf" points="0,-0.5 0,-18.5 48.24,-18.5 48.24,-0.5 0,-0.5"/>
<text text-anchor="middle" x="24.12" y="-6.5" font-family="Helvetica,sans-Serif" font-size="10.00">cstddef</text>
</a>
</g>
</g>
<!-- Node1&#45;&gt;Node4 -->
<g id="edge13" class="edge">
<title>Node1&#45;&gt;Node4</title>
<path fill="none" stroke="midnightblue" d="M341.02,-110.44C306.54,-102.09 251.8,-88.27 205.12,-74 151.7,-57.67 90.58,-35.48 54.79,-22.12"/>
<polygon fill="midnightblue" stroke="midnightblue" points="55.98,-18.83 45.39,-18.6 53.52,-25.38 55.98,-18.83"/>
</g>
<!-- Node6 -->
<g id="node6" class="node">
<title>Node6</title>
<g id="a_node6"><a xlink:title=" ">
<polygon fill="white" stroke="#bfbfbf" points="390.89,-0.5 390.89,-18.5 431.35,-18.5 431.35,-0.5 390.89,-0.5"/>
<text text-anchor="middle" x="411.12" y="-6.5" font-family="Helvetica,sans-Serif" font-size="10.00">string</text>
</a>
</g>
</g>
<!-- Node1&#45;&gt;Node6 -->
<g id="edge14" class="edge">
<title>Node1&#45;&gt;Node6</title>
<path fill="none" stroke="midnightblue" d="M369.71,-110.36C362.2,-97.96 350.47,-73.79 359.12,-55 364.94,-42.35 376.33,-31.96 386.97,-24.41"/>
<polygon fill="midnightblue" stroke="midnightblue" points="389.16,-27.16 395.59,-18.74 385.31,-21.31 389.16,-27.16"/>
</g>
<!-- Node7 -->
<g id="node7" class="node">
<title>Node7</title>
<g id="a_node7"><a xlink:title=" ">
<polygon fill="white" stroke="#bfbfbf" points="449.5,-0.5 449.5,-18.5 492.74,-18.5 492.74,-0.5 449.5,-0.5"/>
<text text-anchor="middle" x="471.12" y="-6.5" font-family="Helvetica,sans-Serif" font-size="10.00">vector</text>
</a>
</g>
</g>
<!-- Node1&#45;&gt;Node7 -->
<g id="edge16" class="edge">
<title>Node1&#45;&gt;Node7</title>
<path fill="none" stroke="midnightblue" d="M407.46,-110.44C426.76,-103.9 450,-92.61 463.12,-74 472.32,-60.94 473.71,-42.53 473.16,-28.89"/>
<polygon fill="midnightblue" stroke="midnightblue" points="476.64,-28.47 472.37,-18.78 469.66,-29.02 476.64,-28.47"/>
</g>
<!-- Node10 -->
<g id="node10" class="node">
<title>Node10</title>
<g id="a_node10"><a xlink:href="Ioss__Property_8h.html" target="_top" xlink:title=" ">
<polygon fill="white" stroke="black" points="368.47,-55.5 368.47,-73.5 453.77,-73.5 453.77,-55.5 368.47,-55.5"/>
<text text-anchor="middle" x="411.12" y="-61.5" font-family="Helvetica,sans-Serif" font-size="10.00">Ioss_Property.h</text>
</a>
</g>
</g>
<!-- Node1&#45;&gt;Node10 -->
<g id="edge9" class="edge">
<title>Node1&#45;&gt;Node10</title>
<path fill="none" stroke="midnightblue" d="M380.75,-110.22C385.85,-102.71 393.52,-91.41 399.88,-82.05"/>
<polygon fill="midnightblue" stroke="midnightblue" points="402.93,-83.79 405.65,-73.55 397.14,-79.86 402.93,-83.79"/>
</g>
<!-- Node11 -->
<g id="node11" class="node">
<title>Node11</title>
<g id="a_node11"><a xlink:title=" ">
<polygon fill="white" stroke="#bfbfbf" points="509.82,-55.5 509.82,-73.5 596.42,-73.5 596.42,-55.5 509.82,-55.5"/>
<text text-anchor="middle" x="553.12" y="-61.5" font-family="Helvetica,sans-Serif" font-size="10.00">unordered_map</text>
</a>
</g>
</g>
<!-- Node1&#45;&gt;Node11 -->
<g id="edge15" class="edge">
<title>Node1&#45;&gt;Node11</title>
<path fill="none" stroke="midnightblue" d="M402.15,-110.45C432.56,-101.4 482.13,-86.64 516.12,-76.52"/>
<polygon fill="midnightblue" stroke="midnightblue" points="517.54,-79.75 526.12,-73.54 515.54,-73.04 517.54,-79.75"/>
</g>
<!-- Node3 -->
<g id="node3" class="node">
<title>Node3</title>
<g id="a_node3"><a xlink:title=" ">
<polygon fill="white" stroke="#bfbfbf" points="66.73,-0.5 66.73,-18.5 105.51,-18.5 105.51,-0.5 66.73,-0.5"/>
<text text-anchor="middle" x="86.12" y="-6.5" font-family="Helvetica,sans-Serif" font-size="10.00">array</text>
</a>
</g>
</g>
<!-- Node2&#45;&gt;Node3 -->
<g id="edge2" class="edge">
<title>Node2&#45;&gt;Node3</title>
<path fill="none" stroke="midnightblue" d="M236.19,-55.5C208.27,-47.19 163.08,-33.72 115.55,-19.42"/>
<polygon fill="midnightblue" stroke="midnightblue" points="116.28,-15.99 105.7,-16.46 114.27,-22.69 116.28,-15.99"/>
</g>
<!-- Node2&#45;&gt;Node4 -->
<g id="edge3" class="edge">
<title>Node2&#45;&gt;Node4</title>
<path fill="none" stroke="midnightblue" d="M224.5,-55.49C183.23,-46.85 115.93,-32.5 58.12,-19 58.02,-18.98 57.92,-18.95 57.82,-18.93"/>
<polygon fill="midnightblue" stroke="midnightblue" points="58.78,-15.56 48.24,-16.63 57.15,-22.37 58.78,-15.56"/>
</g>
<!-- Node5 -->
<g id="node5" class="node">
<title>Node5</title>
<g id="a_node5"><a xlink:title=" ">
<polygon fill="white" stroke="#bfbfbf" points="327.67,-0.5 327.67,-18.5 372.57,-18.5 372.57,-0.5 327.67,-0.5"/>
<text text-anchor="middle" x="350.12" y="-6.5" font-family="Helvetica,sans-Serif" font-size="10.00">cstdint</text>
</a>
</g>
</g>
<!-- Node2&#45;&gt;Node5 -->
<g id="edge4" class="edge">
<title>Node2&#45;&gt;Node5</title>
<path fill="none" stroke="midnightblue" d="M276.33,-55.45C290,-47.12 311.59,-33.97 327.9,-24.04"/>
<polygon fill="midnightblue" stroke="midnightblue" points="330.06,-26.82 336.78,-18.63 326.42,-20.84 330.06,-26.82"/>
</g>
<!-- Node2&#45;&gt;Node6 -->
<g id="edge5" class="edge">
<title>Node2&#45;&gt;Node6</title>
<path fill="none" stroke="midnightblue" d="M285.6,-55.45C311.09,-46.32 352.79,-31.39 381.06,-21.26"/>
<polygon fill="midnightblue" stroke="midnightblue" points="382.58,-24.44 390.82,-17.77 380.22,-17.85 382.58,-24.44"/>
</g>
<!-- Node2&#45;&gt;Node7 -->
<g id="edge6" class="edge">
<title>Node2&#45;&gt;Node7</title>
<path fill="none" stroke="midnightblue" d="M296.12,-55.43C329.77,-47.15 383.71,-33.73 439.72,-19.06"/>
<polygon fill="midnightblue" stroke="midnightblue" points="440.67,-22.43 449.46,-16.5 438.9,-15.66 440.67,-22.43"/>
</g>
<!-- Node8 -->
<g id="node8" class="node">
<title>Node8</title>
<g id="a_node8"><a xlink:title=" ">
<polygon fill="white" stroke="#bfbfbf" points="123.37,-0.5 123.37,-18.5 238.87,-18.5 238.87,-0.5 123.37,-0.5"/>
<text text-anchor="middle" x="181.12" y="-6.5" font-family="Helvetica,sans-Serif" font-size="10.00">SEACASIoss_config.h</text>
</a>
</g>
</g>
<!-- Node2&#45;&gt;Node8 -->
<g id="edge7" class="edge">
<title>Node2&#45;&gt;Node8</title>
<path fill="none" stroke="midnightblue" d="M250.67,-55.45C237.9,-47.2 217.81,-34.22 202.5,-24.32"/>
<polygon fill="midnightblue" stroke="midnightblue" points="203.99,-21.11 193.69,-18.63 200.19,-26.99 203.99,-21.11"/>
</g>
<!-- Node9 -->
<g id="node9" class="node">
<title>Node9</title>
<g id="a_node9"><a xlink:title=" ">
<polygon fill="white" stroke="#bfbfbf" points="256.5,-0.5 256.5,-18.5 309.74,-18.5 309.74,-0.5 256.5,-0.5"/>
<text text-anchor="middle" x="283.12" y="-6.5" font-family="Helvetica,sans-Serif" font-size="10.00">complex</text>
</a>
</g>
</g>
<!-- Node2&#45;&gt;Node9 -->
<g id="edge8" class="edge">
<title>Node2&#45;&gt;Node9</title>
<path fill="none" stroke="midnightblue" d="M266.25,-55.22C268.99,-47.94 273.08,-37.11 276.54,-27.93"/>
<polygon fill="midnightblue" stroke="midnightblue" points="279.83,-29.14 280.08,-18.55 273.28,-26.67 279.83,-29.14"/>
</g>
<!-- Node10&#45;&gt;Node5 -->
<g id="edge10" class="edge">
<title>Node10&#45;&gt;Node5</title>
<path fill="none" stroke="midnightblue" d="M401.86,-55.45C392.72,-47.51 378.54,-35.19 367.33,-25.45"/>
<polygon fill="midnightblue" stroke="midnightblue" points="369.32,-22.54 359.47,-18.63 364.73,-27.83 369.32,-22.54"/>
</g>
<!-- Node10&#45;&gt;Node6 -->
<g id="edge11" class="edge">
<title>Node10&#45;&gt;Node6</title>
<path fill="none" stroke="midnightblue" d="M411.12,-55.22C411.12,-48.18 411.12,-37.81 411.12,-28.83"/>
<polygon fill="midnightblue" stroke="midnightblue" points="414.62,-28.55 411.12,-18.55 407.62,-28.55 414.62,-28.55"/>
</g>
<!-- Node10&#45;&gt;Node7 -->
<g id="edge12" class="edge">
<title>Node10&#45;&gt;Node7</title>
<path fill="none" stroke="midnightblue" d="M420.23,-55.45C429.22,-47.51 443.17,-35.19 454.19,-25.45"/>
<polygon fill="midnightblue" stroke="midnightblue" points="456.74,-27.87 461.92,-18.63 452.11,-22.62 456.74,-27.87"/>
</g>
</g>
</svg>
