<?xml version="1.0" encoding="UTF-8" standalone="no"?>
<!DOCTYPE svg PUBLIC "-//W3C//DTD SVG 1.1//EN"
 "http://www.w3.org/Graphics/SVG/1.1/DTD/svg11.dtd">
<!-- Generated by graphviz version 2.42.3 (20191010.1750)
 -->
<!-- Title: src/Ioss_NullEntity.h Pages: 1 -->
<svg width="1967pt" height="412pt"
 viewBox="0.00 0.00 1967.00 412.00" xmlns="http://www.w3.org/2000/svg" xmlns:xlink="http://www.w3.org/1999/xlink">
<g id="graph0" class="graph" transform="scale(1 1) rotate(0) translate(4 408)">
<title>src/Ioss_NullEntity.h</title>
<polygon fill="white" stroke="transparent" points="-4,4 -4,-408 1963,-408 1963,4 -4,4"/>
<!-- Node1 -->
<g id="node1" class="node">
<title>Node1</title>
<g id="a_node1"><a xlink:title=" ">
<polygon fill="#bfbfbf" stroke="black" points="679.08,-385.5 679.08,-403.5 784.92,-403.5 784.92,-385.5 679.08,-385.5"/>
<text text-anchor="middle" x="732" y="-391.5" font-family="Helvetica,sans-Serif" font-size="10.00">src/Ioss_NullEntity.h</text>
</a>
</g>
</g>
<!-- Node2 -->
<g id="node2" class="node">
<title>Node2</title>
<g id="a_node2"><a xlink:href="Ioss__CodeTypes_8h.html" target="_top" xlink:title=" ">
<polygon fill="white" stroke="black" points="1270.58,-55.5 1270.58,-73.5 1369.42,-73.5 1369.42,-55.5 1270.58,-55.5"/>
<text text-anchor="middle" x="1320" y="-61.5" font-family="Helvetica,sans-Serif" font-size="10.00">Ioss_CodeTypes.h</text>
</a>
</g>
</g>
<!-- Node1&#45;&gt;Node2 -->
<g id="edge1" class="edge">
<title>Node1&#45;&gt;Node2</title>
<path fill="none" stroke="midnightblue" d="M785.09,-390.55C997.79,-378.13 1779.9,-326.74 1842,-239 1934.24,-108.67 1650.94,-181.07 1500,-129 1480.25,-122.19 1476.52,-117.46 1457,-110 1423.71,-97.28 1385.03,-84.93 1357.28,-76.48"/>
<polygon fill="midnightblue" stroke="midnightblue" points="1358.16,-73.09 1347.58,-73.55 1356.14,-79.8 1358.16,-73.09"/>
</g>
<!-- Node6 -->
<g id="node6" class="node">
<title>Node6</title>
<g id="a_node6"><a xlink:title=" ">
<polygon fill="white" stroke="#bfbfbf" points="264.77,-0.5 264.77,-18.5 305.23,-18.5 305.23,-0.5 264.77,-0.5"/>
<text text-anchor="middle" x="285" y="-6.5" font-family="Helvetica,sans-Serif" font-size="10.00">string</text>
</a>
</g>
</g>
<!-- Node1&#45;&gt;Node6 -->
<g id="edge92" class="edge">
<title>Node1&#45;&gt;Node6</title>
<path fill="none" stroke="midnightblue" d="M679.06,-391.27C510.92,-383.49 0,-354.19 0,-285.5 0,-285.5 0,-285.5 0,-118.5 0,-82.3 19.97,-73.64 51,-55 115.78,-16.08 207.33,-10.05 254.41,-9.79"/>
<polygon fill="midnightblue" stroke="midnightblue" points="254.56,-13.29 264.57,-9.82 254.58,-6.29 254.56,-13.29"/>
</g>
<!-- Node10 -->
<g id="node10" class="node">
<title>Node10</title>
<g id="a_node10"><a xlink:href="Ioss__GroupingEntity_8h.html" target="_top" xlink:title=" ">
<polygon fill="white" stroke="black" points="675.17,-330.5 675.17,-348.5 788.83,-348.5 788.83,-330.5 675.17,-330.5"/>
<text text-anchor="middle" x="732" y="-336.5" font-family="Helvetica,sans-Serif" font-size="10.00">Ioss_GroupingEntity.h</text>
</a>
</g>
</g>
<!-- Node1&#45;&gt;Node10 -->
<g id="edge9" class="edge">
<title>Node1&#45;&gt;Node10</title>
<path fill="none" stroke="midnightblue" d="M732,-385.22C732,-378.18 732,-367.81 732,-358.83"/>
<polygon fill="midnightblue" stroke="midnightblue" points="735.5,-358.55 732,-348.55 728.5,-358.55 735.5,-358.55"/>
</g>
<!-- Node3 -->
<g id="node3" class="node">
<title>Node3</title>
<g id="a_node3"><a xlink:title=" ">
<polygon fill="white" stroke="#bfbfbf" points="1300.61,-0.5 1300.61,-18.5 1339.39,-18.5 1339.39,-0.5 1300.61,-0.5"/>
<text text-anchor="middle" x="1320" y="-6.5" font-family="Helvetica,sans-Serif" font-size="10.00">array</text>
</a>
</g>
</g>
<!-- Node2&#45;&gt;Node3 -->
<g id="edge2" class="edge">
<title>Node2&#45;&gt;Node3</title>
<path fill="none" stroke="midnightblue" d="M1320,-55.22C1320,-48.18 1320,-37.81 1320,-28.83"/>
<polygon fill="midnightblue" stroke="midnightblue" points="1323.5,-28.55 1320,-18.55 1316.5,-28.55 1323.5,-28.55"/>
</g>
<!-- Node4 -->
<g id="node4" class="node">
<title>Node4</title>
<g id="a_node4"><a xlink:title=" ">
<polygon fill="white" stroke="#bfbfbf" points="1656.88,-0.5 1656.88,-18.5 1705.12,-18.5 1705.12,-0.5 1656.88,-0.5"/>
<text text-anchor="middle" x="1681" y="-6.5" font-family="Helvetica,sans-Serif" font-size="10.00">cstddef</text>
</a>
</g>
</g>
<!-- Node2&#45;&gt;Node4 -->
<g id="edge3" class="edge">
<title>Node2&#45;&gt;Node4</title>
<path fill="none" stroke="midnightblue" d="M1369.44,-56.24C1443.7,-45.34 1582.19,-25.01 1646.52,-15.56"/>
<polygon fill="midnightblue" stroke="midnightblue" points="1647.16,-19.01 1656.55,-14.09 1646.15,-12.08 1647.16,-19.01"/>
</g>
<!-- Node5 -->
<g id="node5" class="node">
<title>Node5</title>
<g id="a_node5"><a xlink:title=" ">
<polygon fill="white" stroke="#bfbfbf" points="1542.55,-0.5 1542.55,-18.5 1587.45,-18.5 1587.45,-0.5 1542.55,-0.5"/>
<text text-anchor="middle" x="1565" y="-6.5" font-family="Helvetica,sans-Serif" font-size="10.00">cstdint</text>
</a>
</g>
</g>
<!-- Node2&#45;&gt;Node5 -->
<g id="edge4" class="edge">
<title>Node2&#45;&gt;Node5</title>
<path fill="none" stroke="midnightblue" d="M1357.21,-55.45C1405.02,-45.11 1487.25,-27.32 1532.61,-17.51"/>
<polygon fill="midnightblue" stroke="midnightblue" points="1533.47,-20.9 1542.5,-15.37 1531.99,-14.06 1533.47,-20.9"/>
</g>
<!-- Node2&#45;&gt;Node6 -->
<g id="edge5" class="edge">
<title>Node2&#45;&gt;Node6</title>
<path fill="none" stroke="midnightblue" d="M1270.43,-60.96C1088.7,-51.66 461.96,-19.56 315.69,-12.07"/>
<polygon fill="midnightblue" stroke="midnightblue" points="315.79,-8.57 305.63,-11.56 315.44,-15.56 315.79,-8.57"/>
</g>
<!-- Node7 -->
<g id="node7" class="node">
<title>Node7</title>
<g id="a_node7"><a xlink:title=" ">
<polygon fill="white" stroke="#bfbfbf" points="718.38,-0.5 718.38,-18.5 761.62,-18.5 761.62,-0.5 718.38,-0.5"/>
<text text-anchor="middle" x="740" y="-6.5" font-family="Helvetica,sans-Serif" font-size="10.00">vector</text>
</a>
</g>
</g>
<!-- Node2&#45;&gt;Node7 -->
<g id="edge6" class="edge">
<title>Node2&#45;&gt;Node7</title>
<path fill="none" stroke="midnightblue" d="M1270.51,-56.59C1265.94,-56.03 1261.39,-55.48 1257,-55 1073.61,-34.75 852.76,-18.42 771.76,-12.7"/>
<polygon fill="midnightblue" stroke="midnightblue" points="771.93,-9.2 761.71,-11.99 771.44,-16.18 771.93,-9.2"/>
</g>
<!-- Node8 -->
<g id="node8" class="node">
<title>Node8</title>
<g id="a_node8"><a xlink:title=" ">
<polygon fill="white" stroke="#bfbfbf" points="1357.25,-0.5 1357.25,-18.5 1472.75,-18.5 1472.75,-0.5 1357.25,-0.5"/>
<text text-anchor="middle" x="1415" y="-6.5" font-family="Helvetica,sans-Serif" font-size="10.00">SEACASIoss_config.h</text>
</a>
</g>
</g>
<!-- Node2&#45;&gt;Node8 -->
<g id="edge7" class="edge">
<title>Node2&#45;&gt;Node8</title>
<path fill="none" stroke="midnightblue" d="M1334.43,-55.45C1349.49,-47.05 1373.37,-33.72 1391.23,-23.76"/>
<polygon fill="midnightblue" stroke="midnightblue" points="1393.41,-26.55 1400.44,-18.63 1390,-20.44 1393.41,-26.55"/>
</g>
<!-- Node9 -->
<g id="node9" class="node">
<title>Node9</title>
<g id="a_node9"><a xlink:title=" ">
<polygon fill="white" stroke="#bfbfbf" points="1229.38,-0.5 1229.38,-18.5 1282.62,-18.5 1282.62,-0.5 1229.38,-0.5"/>
<text text-anchor="middle" x="1256" y="-6.5" font-family="Helvetica,sans-Serif" font-size="10.00">complex</text>
</a>
</g>
</g>
<!-- Node2&#45;&gt;Node9 -->
<g id="edge8" class="edge">
<title>Node2&#45;&gt;Node9</title>
<path fill="none" stroke="midnightblue" d="M1310.28,-55.45C1300.6,-47.43 1285.52,-34.95 1273.71,-25.17"/>
<polygon fill="midnightblue" stroke="midnightblue" points="1275.75,-22.31 1265.81,-18.63 1271.28,-27.7 1275.75,-22.31"/>
</g>
<!-- Node10&#45;&gt;Node2 -->
<g id="edge10" class="edge">
<title>Node10&#45;&gt;Node2</title>
<path fill="none" stroke="midnightblue" d="M788.89,-337.79C1003.73,-334.52 1756.95,-317.49 1826,-239 1831.58,-232.66 1831.27,-226.6 1826,-220 1780.78,-163.39 1737.28,-201.61 1667,-184 1577.58,-161.59 1553.97,-159.58 1467,-129 1423.6,-113.74 1374.88,-91.67 1345.86,-77.98"/>
<polygon fill="midnightblue" stroke="midnightblue" points="1346.99,-74.64 1336.45,-73.51 1343.98,-80.96 1346.99,-74.64"/>
</g>
<!-- Node10&#45;&gt;Node4 -->
<g id="edge88" class="edge">
<title>Node10&#45;&gt;Node4</title>
<path fill="none" stroke="midnightblue" d="M788.97,-337.99C975.94,-336.03 1569.58,-327.25 1758,-294 1850.26,-277.72 1959,-324.19 1959,-230.5 1959,-230.5 1959,-230.5 1959,-118.5 1959,-66.8 1789.87,-30.05 1715.45,-16.38"/>
<polygon fill="midnightblue" stroke="midnightblue" points="1715.65,-12.86 1705.18,-14.53 1714.41,-19.74 1715.65,-12.86"/>
</g>
<!-- Node10&#45;&gt;Node5 -->
<g id="edge89" class="edge">
<title>Node10&#45;&gt;Node5</title>
<path fill="none" stroke="midnightblue" d="M789.04,-338.02C967.35,-336.17 1512.69,-327.83 1686,-294 1758.15,-279.91 1799.53,-299.01 1842,-239 1917.26,-132.66 1685.07,-47.67 1597.22,-20.03"/>
<polygon fill="midnightblue" stroke="midnightblue" points="1598.08,-16.64 1587.5,-17.02 1596.01,-23.32 1598.08,-16.64"/>
</g>
<!-- Node10&#45;&gt;Node6 -->
<g id="edge90" class="edge">
<title>Node10&#45;&gt;Node6</title>
<path fill="none" stroke="midnightblue" d="M675.02,-338.24C579.45,-336.77 381.28,-329.27 218,-294 135.08,-276.09 38,-315.33 38,-230.5 38,-230.5 38,-230.5 38,-118.5 38,-25.18 187.85,-11.71 254.12,-10.32"/>
<polygon fill="midnightblue" stroke="midnightblue" points="254.41,-13.81 264.37,-10.19 254.32,-6.82 254.41,-13.81"/>
</g>
<!-- Node10&#45;&gt;Node7 -->
<g id="edge91" class="edge">
<title>Node10&#45;&gt;Node7</title>
<path fill="none" stroke="midnightblue" d="M674.91,-336.64C567.38,-332.54 338.96,-320.88 265,-294 196.82,-269.22 126.86,-226.71 165,-165 222.47,-72.01 280.38,-86.7 385,-55 500.48,-20.01 645.12,-12.5 708.17,-10.91"/>
<polygon fill="midnightblue" stroke="midnightblue" points="708.35,-14.41 718.27,-10.69 708.19,-7.41 708.35,-14.41"/>
</g>
<!-- Node11 -->
<g id="node11" class="node">
<title>Node11</title>
<g id="a_node11"><a xlink:href="Ioss__DatabaseIO_8h.html" target="_top" xlink:title=" ">
<polygon fill="white" stroke="black" points="1095.2,-275.5 1095.2,-293.5 1196.8,-293.5 1196.8,-275.5 1095.2,-275.5"/>
<text text-anchor="middle" x="1146" y="-281.5" font-family="Helvetica,sans-Serif" font-size="10.00">Ioss_DatabaseIO.h</text>
</a>
</g>
</g>
<!-- Node10&#45;&gt;Node11 -->
<g id="edge11" class="edge">
<title>Node10&#45;&gt;Node11</title>
<path fill="none" stroke="midnightblue" d="M789.13,-331.19C866.72,-321.25 1004.86,-303.57 1084.6,-293.36"/>
<polygon fill="midnightblue" stroke="midnightblue" points="1085.51,-296.77 1094.98,-292.03 1084.62,-289.83 1085.51,-296.77"/>
</g>
<!-- Node15 -->
<g id="node15" class="node">
<title>Node15</title>
<g id="a_node15"><a xlink:href="Ioss__EntityType_8h.html" target="_top" xlink:title=" ">
<polygon fill="white" stroke="black" points="1632.53,-220.5 1632.53,-238.5 1727.47,-238.5 1727.47,-220.5 1632.53,-220.5"/>
<text text-anchor="middle" x="1680" y="-226.5" font-family="Helvetica,sans-Serif" font-size="10.00">Ioss_EntityType.h</text>
</a>
</g>
</g>
<!-- Node10&#45;&gt;Node15 -->
<g id="edge66" class="edge">
<title>Node10&#45;&gt;Node15</title>
<path fill="none" stroke="midnightblue" d="M788.98,-333.87C878.07,-326.47 1055.71,-311.06 1206,-294 1390,-273.12 1435.52,-264 1619,-239 1620.09,-238.85 1621.18,-238.7 1622.29,-238.55"/>
<polygon fill="midnightblue" stroke="midnightblue" points="1622.95,-241.99 1632.38,-237.16 1622,-235.06 1622.95,-241.99"/>
</g>
<!-- Node20 -->
<g id="node20" class="node">
<title>Node20</title>
<g id="a_node20"><a xlink:href="Ioss__Field_8h.html" target="_top" xlink:title=" ">
<polygon fill="white" stroke="black" points="1089.04,-110.5 1089.04,-128.5 1158.96,-128.5 1158.96,-110.5 1089.04,-110.5"/>
<text text-anchor="middle" x="1124" y="-116.5" font-family="Helvetica,sans-Serif" font-size="10.00">Ioss_Field.h</text>
</a>
</g>
</g>
<!-- Node10&#45;&gt;Node20 -->
<g id="edge67" class="edge">
<title>Node10&#45;&gt;Node20</title>
<path fill="none" stroke="midnightblue" d="M733.4,-330.37C737.58,-308.75 752.03,-249.44 789,-220 845.68,-174.86 878.46,-204.33 948,-184 1000.5,-168.65 1060.08,-146.02 1094.71,-132.33"/>
<polygon fill="midnightblue" stroke="midnightblue" points="1096.21,-135.5 1104.21,-128.55 1093.62,-129 1096.21,-135.5"/>
</g>
<!-- Node27 -->
<g id="node27" class="node">
<title>Node27</title>
<g id="a_node27"><a xlink:href="Ioss__PropertyManager_8h.html" target="_top" xlink:title=" ">
<polygon fill="white" stroke="black" points="407.52,-110.5 407.52,-128.5 532.48,-128.5 532.48,-110.5 407.52,-110.5"/>
<text text-anchor="middle" x="470" y="-116.5" font-family="Helvetica,sans-Serif" font-size="10.00">Ioss_PropertyManager.h</text>
</a>
</g>
</g>
<!-- Node10&#45;&gt;Node27 -->
<g id="edge78" class="edge">
<title>Node10&#45;&gt;Node27</title>
<path fill="none" stroke="midnightblue" d="M675.11,-330.5C598,-316.26 463.05,-278.55 403,-184 389.8,-163.22 416.56,-144.51 440.09,-132.88"/>
<polygon fill="midnightblue" stroke="midnightblue" points="441.6,-136.03 449.18,-128.63 438.64,-129.69 441.6,-136.03"/>
</g>
<!-- Node28 -->
<g id="node28" class="node">
<title>Node28</title>
<g id="a_node28"><a xlink:href="Ioss__Property_8h.html" target="_top" xlink:title=" ">
<polygon fill="white" stroke="black" points="408.35,-55.5 408.35,-73.5 493.65,-73.5 493.65,-55.5 408.35,-55.5"/>
<text text-anchor="middle" x="451" y="-61.5" font-family="Helvetica,sans-Serif" font-size="10.00">Ioss_Property.h</text>
</a>
</g>
</g>
<!-- Node10&#45;&gt;Node28 -->
<g id="edge77" class="edge">
<title>Node10&#45;&gt;Node28</title>
<path fill="none" stroke="midnightblue" d="M674.98,-337.61C597.56,-335.16 455.48,-326.2 339,-294 252.98,-270.22 201.9,-267.73 171,-184 168.08,-176.08 166.13,-171.9 171,-165 222.47,-92.09 332.24,-72.28 398.01,-67.1"/>
<polygon fill="midnightblue" stroke="midnightblue" points="398.44,-70.58 408.17,-66.39 397.95,-63.6 398.44,-70.58"/>
</g>
<!-- Node30 -->
<g id="node30" class="node">
<title>Node30</title>
<g id="a_node30"><a xlink:href="Ioss__State_8h.html" target="_top" xlink:title=" ">
<polygon fill="white" stroke="black" points="1745.2,-220.5 1745.2,-238.5 1816.8,-238.5 1816.8,-220.5 1745.2,-220.5"/>
<text text-anchor="middle" x="1781" y="-226.5" font-family="Helvetica,sans-Serif" font-size="10.00">Ioss_State.h</text>
</a>
</g>
</g>
<!-- Node10&#45;&gt;Node30 -->
<g id="edge79" class="edge">
<title>Node10&#45;&gt;Node30</title>
<path fill="none" stroke="midnightblue" d="M788.92,-334.87C890.76,-328.19 1110.83,-312.87 1296,-294 1488.81,-274.35 1539.63,-269.68 1735.15,-239.05"/>
<polygon fill="midnightblue" stroke="midnightblue" points="1735.84,-242.48 1745.17,-237.48 1734.75,-235.57 1735.84,-242.48"/>
</g>
<!-- Node34 -->
<g id="node34" class="node">
<title>Node34</title>
<g id="a_node34"><a xlink:href="Ioss__FieldManager_8h.html" target="_top" xlink:title=" ">
<polygon fill="white" stroke="black" points="595.58,-220.5 595.58,-238.5 704.42,-238.5 704.42,-220.5 595.58,-220.5"/>
<text text-anchor="middle" x="650" y="-226.5" font-family="Helvetica,sans-Serif" font-size="10.00">Ioss_FieldManager.h</text>
</a>
</g>
</g>
<!-- Node10&#45;&gt;Node34 -->
<g id="edge68" class="edge">
<title>Node10&#45;&gt;Node34</title>
<path fill="none" stroke="midnightblue" d="M725.84,-330.38C712.42,-312.71 680.35,-270.47 662.51,-246.98"/>
<polygon fill="midnightblue" stroke="midnightblue" points="665.07,-244.56 656.23,-238.71 659.49,-248.79 665.07,-244.56"/>
</g>
<!-- Node36 -->
<g id="node36" class="node">
<title>Node36</title>
<g id="a_node36"><a xlink:href="Ioss__VariableType_8h.html" target="_top" xlink:title=" ">
<polygon fill="white" stroke="black" points="250.06,-220.5 250.06,-238.5 355.94,-238.5 355.94,-220.5 250.06,-220.5"/>
<text text-anchor="middle" x="303" y="-226.5" font-family="Helvetica,sans-Serif" font-size="10.00">Ioss_VariableType.h</text>
</a>
</g>
</g>
<!-- Node10&#45;&gt;Node36 -->
<g id="edge80" class="edge">
<title>Node10&#45;&gt;Node36</title>
<path fill="none" stroke="midnightblue" d="M675.07,-335.83C587.1,-330.99 422.77,-318.87 370,-294 347.22,-283.26 327.16,-261.78 315.06,-246.79"/>
<polygon fill="midnightblue" stroke="midnightblue" points="317.8,-244.6 308.9,-238.84 312.26,-248.89 317.8,-244.6"/>
</g>
<!-- Node11&#45;&gt;Node2 -->
<g id="edge13" class="edge">
<title>Node11&#45;&gt;Node2</title>
<path fill="none" stroke="midnightblue" d="M1095.14,-282.86C1022.45,-280.28 902.26,-268.77 947,-220 1009.72,-151.62 1300.28,-252.38 1363,-184 1385.23,-159.76 1375.33,-140.49 1363,-110 1358.25,-98.26 1348.76,-87.89 1339.89,-80.12"/>
<polygon fill="midnightblue" stroke="midnightblue" points="1342.05,-77.37 1332.09,-73.76 1337.63,-82.79 1342.05,-77.37"/>
</g>
<!-- Node11&#45;&gt;Node4 -->
<g id="edge60" class="edge">
<title>Node11&#45;&gt;Node4</title>
<path fill="none" stroke="midnightblue" d="M1196.96,-275.66C1198.66,-275.43 1200.34,-275.21 1202,-275 1359.33,-255.09 1404.2,-281.46 1557,-239 1612.17,-223.67 1759.35,-177.36 1790,-129 1797.33,-117.44 1808.72,-83.89 1789,-55 1772.52,-30.86 1740.36,-19.8 1715.4,-14.74"/>
<polygon fill="midnightblue" stroke="midnightblue" points="1716.01,-11.29 1705.55,-12.97 1714.78,-18.18 1716.01,-11.29"/>
</g>
<!-- Node11&#45;&gt;Node5 -->
<g id="edge61" class="edge">
<title>Node11&#45;&gt;Node5</title>
<path fill="none" stroke="midnightblue" d="M1196.96,-275.68C1198.66,-275.44 1200.34,-275.22 1202,-275 1345.65,-256.12 1396,-302.97 1526,-239 1605.98,-199.65 1619.84,-160.82 1640,-74 1641.91,-65.77 1644.18,-62.34 1640,-55 1630.76,-38.77 1613,-27.84 1597.08,-20.88"/>
<polygon fill="midnightblue" stroke="midnightblue" points="1598.09,-17.52 1587.5,-17.05 1595.49,-24.01 1598.09,-17.52"/>
</g>
<!-- Node11&#45;&gt;Node6 -->
<g id="edge63" class="edge">
<title>Node11&#45;&gt;Node6</title>
<path fill="none" stroke="midnightblue" d="M1095.03,-282.53C913.08,-278.87 301.84,-264.75 218,-239 166.23,-223.1 114,-229.66 114,-175.5 114,-175.5 114,-175.5 114,-118.5 114,-52.75 205.5,-25.4 254.63,-15.46"/>
<polygon fill="midnightblue" stroke="midnightblue" points="255.54,-18.85 264.71,-13.54 254.23,-11.97 255.54,-18.85"/>
</g>
<!-- Node11&#45;&gt;Node7 -->
<g id="edge65" class="edge">
<title>Node11&#45;&gt;Node7</title>
<path fill="none" stroke="midnightblue" d="M1094.89,-280.63C1009.75,-275.27 842.87,-262.14 789,-239 718.2,-208.59 687.94,-198.66 655,-129 651.39,-121.37 652.08,-117.92 655,-110 668.2,-74.22 700.64,-42.58 721.41,-25.04"/>
<polygon fill="midnightblue" stroke="midnightblue" points="723.73,-27.66 729.25,-18.61 719.3,-22.24 723.73,-27.66"/>
</g>
<!-- Node12 -->
<g id="node12" class="node">
<title>Node12</title>
<g id="a_node12"><a xlink:href="Ioss__BoundingBox_8h.html" target="_top" xlink:title=" ">
<polygon fill="white" stroke="black" points="1140.13,-220.5 1140.13,-238.5 1247.87,-238.5 1247.87,-220.5 1140.13,-220.5"/>
<text text-anchor="middle" x="1194" y="-226.5" font-family="Helvetica,sans-Serif" font-size="10.00">Ioss_BoundingBox.h</text>
</a>
</g>
</g>
<!-- Node11&#45;&gt;Node12 -->
<g id="edge12" class="edge">
<title>Node11&#45;&gt;Node12</title>
<path fill="none" stroke="midnightblue" d="M1153.5,-275.22C1160.52,-267.47 1171.18,-255.7 1179.8,-246.18"/>
<polygon fill="midnightblue" stroke="midnightblue" points="1182.59,-248.31 1186.71,-238.55 1177.4,-243.61 1182.59,-248.31"/>
</g>
<!-- Node13 -->
<g id="node13" class="node">
<title>Node13</title>
<g id="a_node13"><a xlink:href="Ioss__DBUsage_8h.html" target="_top" xlink:title=" ">
<polygon fill="white" stroke="black" points="1265.48,-220.5 1265.48,-238.5 1356.52,-238.5 1356.52,-220.5 1265.48,-220.5"/>
<text text-anchor="middle" x="1311" y="-226.5" font-family="Helvetica,sans-Serif" font-size="10.00">Ioss_DBUsage.h</text>
</a>
</g>
</g>
<!-- Node11&#45;&gt;Node13 -->
<g id="edge14" class="edge">
<title>Node11&#45;&gt;Node13</title>
<path fill="none" stroke="midnightblue" d="M1171.06,-275.45C1199.13,-266.44 1244.8,-251.77 1276.29,-241.65"/>
<polygon fill="midnightblue" stroke="midnightblue" points="1277.52,-244.93 1285.98,-238.54 1275.38,-238.26 1277.52,-244.93"/>
</g>
<!-- Node14 -->
<g id="node14" class="node">
<title>Node14</title>
<g id="a_node14"><a xlink:href="Ioss__DataSize_8h.html" target="_top" xlink:title=" ">
<polygon fill="white" stroke="black" points="1374.59,-220.5 1374.59,-238.5 1463.41,-238.5 1463.41,-220.5 1374.59,-220.5"/>
<text text-anchor="middle" x="1419" y="-226.5" font-family="Helvetica,sans-Serif" font-size="10.00">Ioss_DataSize.h</text>
</a>
</g>
</g>
<!-- Node11&#45;&gt;Node14 -->
<g id="edge15" class="edge">
<title>Node11&#45;&gt;Node14</title>
<path fill="none" stroke="midnightblue" d="M1187.46,-275.45C1235.71,-266.08 1315.4,-250.61 1367.55,-240.49"/>
<polygon fill="midnightblue" stroke="midnightblue" points="1368.45,-243.88 1377.6,-238.54 1367.11,-237.01 1368.45,-243.88"/>
</g>
<!-- Node11&#45;&gt;Node15 -->
<g id="edge16" class="edge">
<title>Node11&#45;&gt;Node15</title>
<path fill="none" stroke="midnightblue" d="M1196.83,-279.47C1283.54,-272.42 1465.6,-256.9 1619,-239 1620.09,-238.87 1621.19,-238.74 1622.3,-238.61"/>
<polygon fill="midnightblue" stroke="midnightblue" points="1622.92,-242.06 1632.41,-237.34 1622.05,-235.11 1622.92,-242.06"/>
</g>
<!-- Node16 -->
<g id="node16" class="node">
<title>Node16</title>
<g id="a_node16"><a xlink:href="Ioss__Map_8h.html" target="_top" xlink:title=" ">
<polygon fill="white" stroke="black" points="1509.15,-110.5 1509.15,-128.5 1576.85,-128.5 1576.85,-110.5 1509.15,-110.5"/>
<text text-anchor="middle" x="1543" y="-116.5" font-family="Helvetica,sans-Serif" font-size="10.00">Ioss_Map.h</text>
</a>
</g>
</g>
<!-- Node11&#45;&gt;Node16 -->
<g id="edge17" class="edge">
<title>Node11&#45;&gt;Node16</title>
<path fill="none" stroke="midnightblue" d="M1196.96,-275.72C1198.66,-275.48 1200.35,-275.24 1202,-275 1261.93,-266.46 1421.43,-272.26 1472,-239 1508.63,-214.91 1529.15,-164.79 1537.89,-138.11"/>
<polygon fill="midnightblue" stroke="midnightblue" points="1541.24,-139.13 1540.84,-128.54 1534.55,-137.07 1541.24,-139.13"/>
</g>
<!-- Node17 -->
<g id="node17" class="node">
<title>Node17</title>
<g id="a_node17"><a xlink:title=" ">
<polygon fill="white" stroke="#bfbfbf" points="1576.61,-55.5 1576.61,-73.5 1615.39,-73.5 1615.39,-55.5 1576.61,-55.5"/>
<text text-anchor="middle" x="1596" y="-61.5" font-family="Helvetica,sans-Serif" font-size="10.00">utility</text>
</a>
</g>
</g>
<!-- Node11&#45;&gt;Node17 -->
<g id="edge64" class="edge">
<title>Node11&#45;&gt;Node17</title>
<path fill="none" stroke="midnightblue" d="M1196.96,-275.7C1198.66,-275.46 1200.34,-275.23 1202,-275 1332.86,-257.09 1381.47,-303.02 1497,-239 1552.01,-208.52 1560.46,-186.47 1586,-129 1592.38,-114.64 1594.77,-96.88 1595.62,-83.79"/>
<polygon fill="midnightblue" stroke="midnightblue" points="1599.12,-83.83 1596.04,-73.7 1592.13,-83.54 1599.12,-83.83"/>
</g>
<!-- Node18 -->
<g id="node18" class="node">
<title>Node18</title>
<g id="a_node18"><a xlink:href="Ioss__ParallelUtils_8h.html" target="_top" xlink:title=" ">
<polygon fill="white" stroke="black" points="798.48,-220.5 798.48,-238.5 899.52,-238.5 899.52,-220.5 798.48,-220.5"/>
<text text-anchor="middle" x="849" y="-226.5" font-family="Helvetica,sans-Serif" font-size="10.00">Ioss_ParallelUtils.h</text>
</a>
</g>
</g>
<!-- Node11&#45;&gt;Node18 -->
<g id="edge24" class="edge">
<title>Node11&#45;&gt;Node18</title>
<path fill="none" stroke="midnightblue" d="M1100.89,-275.45C1048.08,-266.03 960.63,-250.42 903.91,-240.3"/>
<polygon fill="midnightblue" stroke="midnightblue" points="904.5,-236.85 894.04,-238.54 903.27,-243.74 904.5,-236.85"/>
</g>
<!-- Node11&#45;&gt;Node27 -->
<g id="edge47" class="edge">
<title>Node11&#45;&gt;Node27</title>
<path fill="none" stroke="midnightblue" d="M1095.12,-283.93C974.86,-284.24 676.48,-280.64 587,-239 538.44,-216.4 498.89,-164.46 480.74,-137.47"/>
<polygon fill="midnightblue" stroke="midnightblue" points="483.45,-135.21 475.05,-128.76 477.59,-139.04 483.45,-135.21"/>
</g>
<!-- Node11&#45;&gt;Node30 -->
<g id="edge57" class="edge">
<title>Node11&#45;&gt;Node30</title>
<path fill="none" stroke="midnightblue" d="M1197.1,-281.56C1297.99,-277.33 1530.03,-265.52 1735.14,-238.95"/>
<polygon fill="midnightblue" stroke="midnightblue" points="1735.74,-242.4 1745.2,-237.64 1734.83,-235.46 1735.74,-242.4"/>
</g>
<!-- Node31 -->
<g id="node31" class="node">
<title>Node31</title>
<g id="a_node31"><a xlink:href="Ioss__SurfaceSplit_8h.html" target="_top" xlink:title=" ">
<polygon fill="white" stroke="black" points="955.92,-220.5 955.92,-238.5 1058.08,-238.5 1058.08,-220.5 955.92,-220.5"/>
<text text-anchor="middle" x="1007" y="-226.5" font-family="Helvetica,sans-Serif" font-size="10.00">Ioss_SurfaceSplit.h</text>
</a>
</g>
</g>
<!-- Node11&#45;&gt;Node31 -->
<g id="edge58" class="edge">
<title>Node11&#45;&gt;Node31</title>
<path fill="none" stroke="midnightblue" d="M1124.89,-275.45C1101.72,-266.62 1064.32,-252.35 1037.86,-242.27"/>
<polygon fill="midnightblue" stroke="midnightblue" points="1038.9,-238.92 1028.31,-238.63 1036.41,-245.46 1038.9,-238.92"/>
</g>
<!-- Node32 -->
<g id="node32" class="node">
<title>Node32</title>
<g id="a_node32"><a xlink:title=" ">
<polygon fill="white" stroke="#bfbfbf" points="1075.71,-220.5 1075.71,-238.5 1122.29,-238.5 1122.29,-220.5 1075.71,-220.5"/>
<text text-anchor="middle" x="1099" y="-226.5" font-family="Helvetica,sans-Serif" font-size="10.00">chrono</text>
</a>
</g>
</g>
<!-- Node11&#45;&gt;Node32 -->
<g id="edge59" class="edge">
<title>Node11&#45;&gt;Node32</title>
<path fill="none" stroke="midnightblue" d="M1138.66,-275.22C1131.79,-267.47 1121.35,-255.7 1112.9,-246.18"/>
<polygon fill="midnightblue" stroke="midnightblue" points="1115.39,-243.71 1106.14,-238.55 1110.15,-248.35 1115.39,-243.71"/>
</g>
<!-- Node33 -->
<g id="node33" class="node">
<title>Node33</title>
<g id="a_node33"><a xlink:title=" ">
<polygon fill="white" stroke="#bfbfbf" points="180.27,-165.5 180.27,-183.5 215.73,-183.5 215.73,-165.5 180.27,-165.5"/>
<text text-anchor="middle" x="198" y="-171.5" font-family="Helvetica,sans-Serif" font-size="10.00">map</text>
</a>
</g>
</g>
<!-- Node11&#45;&gt;Node33 -->
<g id="edge62" class="edge">
<title>Node11&#45;&gt;Node33</title>
<path fill="none" stroke="midnightblue" d="M1095.19,-283.63C915.3,-283.73 315.47,-280.88 241,-239 223.09,-228.92 211.14,-207.91 204.48,-192.81"/>
<polygon fill="midnightblue" stroke="midnightblue" points="207.71,-191.46 200.7,-183.51 201.22,-194.1 207.71,-191.46"/>
</g>
<!-- Node16&#45;&gt;Node2 -->
<g id="edge18" class="edge">
<title>Node16&#45;&gt;Node2</title>
<path fill="none" stroke="midnightblue" d="M1509.13,-110.45C1470.22,-101.2 1406.25,-86 1363.64,-75.87"/>
<polygon fill="midnightblue" stroke="midnightblue" points="1364.36,-72.45 1353.82,-73.54 1362.74,-79.26 1364.36,-72.45"/>
</g>
<!-- Node16&#45;&gt;Node4 -->
<g id="edge19" class="edge">
<title>Node16&#45;&gt;Node4</title>
<path fill="none" stroke="midnightblue" d="M1544.09,-110.35C1546.28,-97.04 1552.42,-70.58 1568,-55 1589.26,-33.74 1621.91,-22.35 1646.65,-16.44"/>
<polygon fill="midnightblue" stroke="midnightblue" points="1647.7,-19.79 1656.72,-14.23 1646.2,-12.96 1647.7,-19.79"/>
</g>
<!-- Node16&#45;&gt;Node5 -->
<g id="edge20" class="edge">
<title>Node16&#45;&gt;Node5</title>
<path fill="none" stroke="midnightblue" d="M1539.9,-110.5C1535.63,-98.28 1529.09,-74.34 1535,-55 1538.2,-44.53 1544.78,-34.3 1550.97,-26.29"/>
<polygon fill="midnightblue" stroke="midnightblue" points="1553.68,-28.5 1557.35,-18.57 1548.28,-24.05 1553.68,-28.5"/>
</g>
<!-- Node16&#45;&gt;Node6 -->
<g id="edge21" class="edge">
<title>Node16&#45;&gt;Node6</title>
<path fill="none" stroke="midnightblue" d="M1513.79,-110.46C1486.62,-102.56 1445.28,-89.46 1411,-74 1395.57,-67.04 1394.26,-59.7 1378,-55 1325.59,-39.84 486.39,-16.04 315.31,-11.33"/>
<polygon fill="midnightblue" stroke="midnightblue" points="315.33,-7.82 305.24,-11.05 315.14,-14.82 315.33,-7.82"/>
</g>
<!-- Node16&#45;&gt;Node7 -->
<g id="edge23" class="edge">
<title>Node16&#45;&gt;Node7</title>
<path fill="none" stroke="midnightblue" d="M1530.52,-110.47C1507.8,-96.32 1457.73,-67.3 1411,-55 1287.96,-22.62 888.08,-13.12 771.92,-11.01"/>
<polygon fill="midnightblue" stroke="midnightblue" points="771.94,-7.51 761.88,-10.83 771.82,-14.51 771.94,-7.51"/>
</g>
<!-- Node16&#45;&gt;Node17 -->
<g id="edge22" class="edge">
<title>Node16&#45;&gt;Node17</title>
<path fill="none" stroke="midnightblue" d="M1551.28,-110.22C1559.11,-102.39 1571.04,-90.46 1580.61,-80.89"/>
<polygon fill="midnightblue" stroke="midnightblue" points="1583.35,-83.1 1587.95,-73.55 1578.4,-78.15 1583.35,-83.1"/>
</g>
<!-- Node18&#45;&gt;Node2 -->
<g id="edge25" class="edge">
<title>Node18&#45;&gt;Node2</title>
<path fill="none" stroke="midnightblue" d="M899.72,-221.64C904.54,-221.05 909.36,-220.5 914,-220 961.56,-214.9 1310.62,-219.21 1343,-184 1368.91,-155.82 1346.14,-107.52 1330.96,-82.17"/>
<polygon fill="midnightblue" stroke="midnightblue" points="1333.91,-80.28 1325.63,-73.66 1327.97,-83.99 1333.91,-80.28"/>
</g>
<!-- Node18&#45;&gt;Node4 -->
<g id="edge44" class="edge">
<title>Node18&#45;&gt;Node4</title>
<path fill="none" stroke="midnightblue" d="M899.61,-224.11C914.84,-222.79 931.6,-221.33 947,-220 1038.77,-212.05 1710.37,-198.35 1771,-129 1792.65,-104.24 1788.35,-82.94 1771,-55 1758.81,-35.37 1735.1,-24.13 1715.08,-17.87"/>
<polygon fill="midnightblue" stroke="midnightblue" points="1715.89,-14.46 1705.32,-15.1 1713.98,-21.19 1715.89,-14.46"/>
</g>
<!-- Node18&#45;&gt;Node6 -->
<g id="edge45" class="edge">
<title>Node18&#45;&gt;Node6</title>
<path fill="none" stroke="midnightblue" d="M806.49,-220.44C692.19,-198.68 385.55,-139.65 366,-129 335.92,-112.61 331.03,-102.48 312,-74 302.54,-59.84 295.26,-41.82 290.65,-28.6"/>
<polygon fill="midnightblue" stroke="midnightblue" points="293.88,-27.21 287.43,-18.81 287.23,-29.4 293.88,-27.21"/>
</g>
<!-- Node18&#45;&gt;Node7 -->
<g id="edge46" class="edge">
<title>Node18&#45;&gt;Node7</title>
<path fill="none" stroke="midnightblue" d="M899.65,-221.04C964.83,-211.25 1074.4,-194.14 1114,-184 1189.12,-164.76 1321.53,-169.66 1272,-110 1207.58,-32.41 877.16,-14.98 772.11,-11.38"/>
<polygon fill="midnightblue" stroke="midnightblue" points="771.93,-7.87 761.82,-11.04 771.71,-14.87 771.93,-7.87"/>
</g>
<!-- Node19 -->
<g id="node19" class="node">
<title>Node19</title>
<g id="a_node19"><a xlink:href="Ioss__Utils_8h.html" target="_top" xlink:title=" ">
<polygon fill="white" stroke="black" points="819.16,-165.5 819.16,-183.5 886.84,-183.5 886.84,-165.5 819.16,-165.5"/>
<text text-anchor="middle" x="853" y="-171.5" font-family="Helvetica,sans-Serif" font-size="10.00">Ioss_Utils.h</text>
</a>
</g>
</g>
<!-- Node18&#45;&gt;Node19 -->
<g id="edge26" class="edge">
<title>Node18&#45;&gt;Node19</title>
<path fill="none" stroke="midnightblue" d="M849.62,-220.22C850.16,-213.1 850.96,-202.58 851.64,-193.53"/>
<polygon fill="midnightblue" stroke="midnightblue" points="855.13,-193.78 852.39,-183.55 848.15,-193.26 855.13,-193.78"/>
</g>
<!-- Node22 -->
<g id="node22" class="node">
<title>Node22</title>
<g id="a_node22"><a xlink:title=" ">
<polygon fill="white" stroke="#bfbfbf" points="1214.88,-110.5 1214.88,-128.5 1263.12,-128.5 1263.12,-110.5 1214.88,-110.5"/>
<text text-anchor="middle" x="1239" y="-116.5" font-family="Helvetica,sans-Serif" font-size="10.00">cassert</text>
</a>
</g>
</g>
<!-- Node18&#45;&gt;Node22 -->
<g id="edge43" class="edge">
<title>Node18&#45;&gt;Node22</title>
<path fill="none" stroke="midnightblue" d="M899.61,-220.87C945.19,-213.42 1013.76,-200.76 1072,-184 1122.25,-169.54 1178.73,-146.59 1211.45,-132.6"/>
<polygon fill="midnightblue" stroke="midnightblue" points="1213.01,-135.74 1220.81,-128.57 1210.24,-129.31 1213.01,-135.74"/>
</g>
<!-- Node19&#45;&gt;Node2 -->
<g id="edge27" class="edge">
<title>Node19&#45;&gt;Node2</title>
<path fill="none" stroke="midnightblue" d="M887.15,-167.93C925.54,-161.11 989.39,-148.05 1042,-129 1059.75,-122.57 1062.1,-116 1080,-110 1139.64,-90 1210.81,-78.24 1260.09,-71.88"/>
<polygon fill="midnightblue" stroke="midnightblue" points="1260.77,-75.32 1270.26,-70.6 1259.9,-68.37 1260.77,-75.32"/>
</g>
<!-- Node19&#45;&gt;Node4 -->
<g id="edge36" class="edge">
<title>Node19&#45;&gt;Node4</title>
<path fill="none" stroke="midnightblue" d="M887.03,-172.41C1030.71,-167.68 1581.74,-148.34 1613,-129 1649.87,-106.18 1668.76,-55.52 1676.55,-28.42"/>
<polygon fill="midnightblue" stroke="midnightblue" points="1679.94,-29.26 1679.15,-18.7 1673.18,-27.45 1679.94,-29.26"/>
</g>
<!-- Node19&#45;&gt;Node5 -->
<g id="edge37" class="edge">
<title>Node19&#45;&gt;Node5</title>
<path fill="none" stroke="midnightblue" d="M886.92,-173.17C1022.95,-171.62 1524.64,-163.6 1586,-129 1618.21,-110.84 1640.49,-88.09 1624,-55 1617.25,-41.46 1604.2,-30.95 1592.08,-23.55"/>
<polygon fill="midnightblue" stroke="midnightblue" points="1593.55,-20.36 1583.12,-18.5 1590.12,-26.46 1593.55,-20.36"/>
</g>
<!-- Node19&#45;&gt;Node6 -->
<g id="edge41" class="edge">
<title>Node19&#45;&gt;Node6</title>
<path fill="none" stroke="midnightblue" d="M818.92,-173.18C726.51,-171.85 473.12,-164.92 399,-129 351.41,-105.94 313,-54.2 295.4,-27.37"/>
<polygon fill="midnightblue" stroke="midnightblue" points="298.21,-25.26 289.88,-18.7 292.31,-29.02 298.21,-25.26"/>
</g>
<!-- Node19&#45;&gt;Node7 -->
<g id="edge42" class="edge">
<title>Node19&#45;&gt;Node7</title>
<path fill="none" stroke="midnightblue" d="M818.72,-167.61C796.49,-161.83 769.11,-150.58 755,-129 737,-101.47 759.21,-87.48 754,-55 752.54,-45.88 749.6,-36.06 746.79,-27.96"/>
<polygon fill="midnightblue" stroke="midnightblue" points="750.05,-26.7 743.31,-18.53 743.49,-29.12 750.05,-26.7"/>
</g>
<!-- Node19&#45;&gt;Node20 -->
<g id="edge28" class="edge">
<title>Node19&#45;&gt;Node20</title>
<path fill="none" stroke="midnightblue" d="M887.05,-166.84C935.66,-157.33 1025.04,-139.85 1079.04,-129.29"/>
<polygon fill="midnightblue" stroke="midnightblue" points="1079.88,-132.7 1089.02,-127.34 1078.53,-125.83 1079.88,-132.7"/>
</g>
<!-- Node21 -->
<g id="node21" class="node">
<title>Node21</title>
<g id="a_node21"><a xlink:title=" ">
<polygon fill="white" stroke="#bfbfbf" points="975.44,-110.5 975.44,-128.5 1032.56,-128.5 1032.56,-110.5 975.44,-110.5"/>
<text text-anchor="middle" x="1004" y="-116.5" font-family="Helvetica,sans-Serif" font-size="10.00">algorithm</text>
</a>
</g>
</g>
<!-- Node19&#45;&gt;Node21 -->
<g id="edge33" class="edge">
<title>Node19&#45;&gt;Node21</title>
<path fill="none" stroke="midnightblue" d="M875.93,-165.45C901.32,-156.54 942.45,-142.1 971.23,-132"/>
<polygon fill="midnightblue" stroke="midnightblue" points="972.57,-135.24 980.85,-128.63 970.26,-128.63 972.57,-135.24"/>
</g>
<!-- Node19&#45;&gt;Node22 -->
<g id="edge34" class="edge">
<title>Node19&#45;&gt;Node22</title>
<path fill="none" stroke="midnightblue" d="M886.92,-168.84C959.86,-158.83 1130.98,-135.33 1204.47,-125.24"/>
<polygon fill="midnightblue" stroke="midnightblue" points="1205.15,-128.68 1214.58,-123.85 1204.2,-121.75 1205.15,-128.68"/>
</g>
<!-- Node23 -->
<g id="node23" class="node">
<title>Node23</title>
<g id="a_node23"><a xlink:title=" ">
<polygon fill="white" stroke="#bfbfbf" points="664.38,-110.5 664.38,-128.5 707.62,-128.5 707.62,-110.5 664.38,-110.5"/>
<text text-anchor="middle" x="686" y="-116.5" font-family="Helvetica,sans-Serif" font-size="10.00">cmath</text>
</a>
</g>
</g>
<!-- Node19&#45;&gt;Node23 -->
<g id="edge35" class="edge">
<title>Node19&#45;&gt;Node23</title>
<path fill="none" stroke="midnightblue" d="M827.64,-165.45C798.16,-156.1 749.5,-140.65 717.59,-130.53"/>
<polygon fill="midnightblue" stroke="midnightblue" points="718.46,-127.13 707.87,-127.44 716.34,-133.8 718.46,-127.13"/>
</g>
<!-- Node24 -->
<g id="node24" class="node">
<title>Node24</title>
<g id="a_node24"><a xlink:title=" ">
<polygon fill="white" stroke="#bfbfbf" points="763.83,-110.5 763.83,-128.5 808.17,-128.5 808.17,-110.5 763.83,-110.5"/>
<text text-anchor="middle" x="786" y="-116.5" font-family="Helvetica,sans-Serif" font-size="10.00">cstdlib</text>
</a>
</g>
</g>
<!-- Node19&#45;&gt;Node24 -->
<g id="edge38" class="edge">
<title>Node19&#45;&gt;Node24</title>
<path fill="none" stroke="midnightblue" d="M842.82,-165.45C832.59,-157.36 816.6,-144.7 804.18,-134.88"/>
<polygon fill="midnightblue" stroke="midnightblue" points="806.29,-132.08 796.27,-128.63 801.94,-137.57 806.29,-132.08"/>
</g>
<!-- Node25 -->
<g id="node25" class="node">
<title>Node25</title>
<g id="a_node25"><a xlink:title=" ">
<polygon fill="white" stroke="#bfbfbf" points="825.83,-110.5 825.83,-128.5 880.17,-128.5 880.17,-110.5 825.83,-110.5"/>
<text text-anchor="middle" x="853" y="-116.5" font-family="Helvetica,sans-Serif" font-size="10.00">iostream</text>
</a>
</g>
</g>
<!-- Node19&#45;&gt;Node25 -->
<g id="edge39" class="edge">
<title>Node19&#45;&gt;Node25</title>
<path fill="none" stroke="midnightblue" d="M853,-165.22C853,-158.18 853,-147.81 853,-138.83"/>
<polygon fill="midnightblue" stroke="midnightblue" points="856.5,-138.55 853,-128.55 849.5,-138.55 856.5,-138.55"/>
</g>
<!-- Node26 -->
<g id="node26" class="node">
<title>Node26</title>
<g id="a_node26"><a xlink:title=" ">
<polygon fill="white" stroke="#bfbfbf" points="898.6,-110.5 898.6,-128.5 957.4,-128.5 957.4,-110.5 898.6,-110.5"/>
<text text-anchor="middle" x="928" y="-116.5" font-family="Helvetica,sans-Serif" font-size="10.00">stdexcept</text>
</a>
</g>
</g>
<!-- Node19&#45;&gt;Node26 -->
<g id="edge40" class="edge">
<title>Node19&#45;&gt;Node26</title>
<path fill="none" stroke="midnightblue" d="M864.39,-165.45C875.95,-157.28 894.09,-144.46 908.05,-134.6"/>
<polygon fill="midnightblue" stroke="midnightblue" points="910.36,-137.25 916.5,-128.63 906.32,-131.54 910.36,-137.25"/>
</g>
<!-- Node20&#45;&gt;Node2 -->
<g id="edge29" class="edge">
<title>Node20&#45;&gt;Node2</title>
<path fill="none" stroke="midnightblue" d="M1153.77,-110.45C1187.54,-101.32 1242.77,-86.38 1280.22,-76.26"/>
<polygon fill="midnightblue" stroke="midnightblue" points="1281.53,-79.53 1290.27,-73.54 1279.71,-72.77 1281.53,-79.53"/>
</g>
<!-- Node20&#45;&gt;Node4 -->
<g id="edge30" class="edge">
<title>Node20&#45;&gt;Node4</title>
<path fill="none" stroke="midnightblue" d="M1158.99,-112.75C1208.03,-104.6 1299.97,-89.01 1378,-74 1475.68,-55.21 1590.49,-30.4 1646.61,-18.1"/>
<polygon fill="midnightblue" stroke="midnightblue" points="1647.69,-21.44 1656.7,-15.88 1646.19,-14.6 1647.69,-21.44"/>
</g>
<!-- Node20&#45;&gt;Node6 -->
<g id="edge31" class="edge">
<title>Node20&#45;&gt;Node6</title>
<path fill="none" stroke="midnightblue" d="M1088.86,-113.73C1009.67,-103.02 811.21,-76.29 645,-55 523.02,-39.38 377.66,-21.7 315.57,-14.19"/>
<polygon fill="midnightblue" stroke="midnightblue" points="315.65,-10.67 305.31,-12.95 314.81,-17.62 315.65,-10.67"/>
</g>
<!-- Node20&#45;&gt;Node7 -->
<g id="edge32" class="edge">
<title>Node20&#45;&gt;Node7</title>
<path fill="none" stroke="midnightblue" d="M1095.45,-110.47C1025.37,-90.76 845.26,-40.1 771.85,-19.46"/>
<polygon fill="midnightblue" stroke="midnightblue" points="772.4,-15.98 761.82,-16.64 770.5,-22.71 772.4,-15.98"/>
</g>
<!-- Node27&#45;&gt;Node2 -->
<g id="edge48" class="edge">
<title>Node27&#45;&gt;Node2</title>
<path fill="none" stroke="midnightblue" d="M532.5,-114.6C690.66,-104.74 1105.17,-78.9 1260.28,-69.22"/>
<polygon fill="midnightblue" stroke="midnightblue" points="1260.79,-72.7 1270.55,-68.58 1260.35,-65.71 1260.79,-72.7"/>
</g>
<!-- Node27&#45;&gt;Node4 -->
<g id="edge53" class="edge">
<title>Node27&#45;&gt;Node4</title>
<path fill="none" stroke="midnightblue" d="M532.58,-113.22C703.21,-98.79 1190.82,-57.16 1596,-19 1612.68,-17.43 1631.18,-15.59 1646.66,-14.03"/>
<polygon fill="midnightblue" stroke="midnightblue" points="1647.23,-17.49 1656.83,-12.99 1646.52,-10.52 1647.23,-17.49"/>
</g>
<!-- Node27&#45;&gt;Node6 -->
<g id="edge54" class="edge">
<title>Node27&#45;&gt;Node6</title>
<path fill="none" stroke="midnightblue" d="M456.09,-110.38C424.49,-91.93 346.99,-46.69 308.08,-23.97"/>
<polygon fill="midnightblue" stroke="midnightblue" points="309.47,-20.73 299.07,-18.71 305.94,-26.78 309.47,-20.73"/>
</g>
<!-- Node27&#45;&gt;Node7 -->
<g id="edge56" class="edge">
<title>Node27&#45;&gt;Node7</title>
<path fill="none" stroke="midnightblue" d="M476.51,-110.45C488.02,-96.8 513.35,-69.21 541,-55 595.48,-26.99 667.23,-16.52 708.01,-12.67"/>
<polygon fill="midnightblue" stroke="midnightblue" points="708.51,-16.14 718.17,-11.79 707.9,-9.16 708.51,-16.14"/>
</g>
<!-- Node27&#45;&gt;Node28 -->
<g id="edge49" class="edge">
<title>Node27&#45;&gt;Node28</title>
<path fill="none" stroke="midnightblue" d="M467.03,-110.22C464.45,-103.02 460.62,-92.35 457.36,-83.23"/>
<polygon fill="midnightblue" stroke="midnightblue" points="460.56,-81.78 453.89,-73.55 453.97,-84.14 460.56,-81.78"/>
</g>
<!-- Node29 -->
<g id="node29" class="node">
<title>Node29</title>
<g id="a_node29"><a xlink:title=" ">
<polygon fill="white" stroke="#bfbfbf" points="549.7,-55.5 549.7,-73.5 636.3,-73.5 636.3,-55.5 549.7,-55.5"/>
<text text-anchor="middle" x="593" y="-61.5" font-family="Helvetica,sans-Serif" font-size="10.00">unordered_map</text>
</a>
</g>
</g>
<!-- Node27&#45;&gt;Node29 -->
<g id="edge55" class="edge">
<title>Node27&#45;&gt;Node29</title>
<path fill="none" stroke="midnightblue" d="M488.68,-110.45C508.91,-101.73 541.41,-87.73 564.76,-77.67"/>
<polygon fill="midnightblue" stroke="midnightblue" points="566.34,-80.8 574.14,-73.63 563.57,-74.37 566.34,-80.8"/>
</g>
<!-- Node28&#45;&gt;Node5 -->
<g id="edge50" class="edge">
<title>Node28&#45;&gt;Node5</title>
<path fill="none" stroke="midnightblue" d="M493.99,-58.95C508.87,-57.5 525.65,-56.02 541,-55 958.61,-27.31 1064.5,-48.33 1482,-19 1498.67,-17.83 1517.17,-15.99 1532.47,-14.32"/>
<polygon fill="midnightblue" stroke="midnightblue" points="1532.94,-17.79 1542.49,-13.2 1532.16,-10.83 1532.94,-17.79"/>
</g>
<!-- Node28&#45;&gt;Node6 -->
<g id="edge51" class="edge">
<title>Node28&#45;&gt;Node6</title>
<path fill="none" stroke="midnightblue" d="M425.79,-55.45C396.08,-45.97 346.76,-30.22 315.08,-20.1"/>
<polygon fill="midnightblue" stroke="midnightblue" points="316.06,-16.74 305.47,-17.03 313.93,-23.41 316.06,-16.74"/>
</g>
<!-- Node28&#45;&gt;Node7 -->
<g id="edge52" class="edge">
<title>Node28&#45;&gt;Node7</title>
<path fill="none" stroke="midnightblue" d="M493.95,-55.62C552.5,-44.89 656.02,-25.9 708.14,-16.34"/>
<polygon fill="midnightblue" stroke="midnightblue" points="708.94,-19.75 718.15,-14.51 707.68,-12.87 708.94,-19.75"/>
</g>
<!-- Node34&#45;&gt;Node2 -->
<g id="edge69" class="edge">
<title>Node34&#45;&gt;Node2</title>
<path fill="none" stroke="midnightblue" d="M704.76,-225.02C838.29,-215.71 1176.66,-186.91 1272,-129 1290.04,-118.04 1303.64,-97.55 1311.68,-82.81"/>
<polygon fill="midnightblue" stroke="midnightblue" points="1314.9,-84.2 1316.34,-73.71 1308.67,-81.01 1314.9,-84.2"/>
</g>
<!-- Node34&#45;&gt;Node4 -->
<g id="edge72" class="edge">
<title>Node34&#45;&gt;Node4</title>
<path fill="none" stroke="midnightblue" d="M704.71,-224.24C906.06,-208.4 1596.32,-152.61 1637,-129 1663.14,-113.83 1666.75,-102.44 1677,-74 1682.27,-59.37 1682.95,-41.63 1682.5,-28.62"/>
<polygon fill="midnightblue" stroke="midnightblue" points="1685.99,-28.38 1681.9,-18.61 1679.01,-28.8 1685.99,-28.38"/>
</g>
<!-- Node34&#45;&gt;Node6 -->
<g id="edge74" class="edge">
<title>Node34&#45;&gt;Node6</title>
<path fill="none" stroke="midnightblue" d="M631.36,-220.4C600.3,-207.17 535.74,-180.82 479,-165 396.63,-142.04 361.66,-175.66 290,-129 259.02,-108.82 240.4,-90.11 252,-55 255.5,-44.4 262.61,-34.27 269.33,-26.36"/>
<polygon fill="midnightblue" stroke="midnightblue" points="272.14,-28.47 276.29,-18.73 266.97,-23.76 272.14,-28.47"/>
</g>
<!-- Node34&#45;&gt;Node7 -->
<g id="edge76" class="edge">
<title>Node34&#45;&gt;Node7</title>
<path fill="none" stroke="midnightblue" d="M646.71,-220.35C637.48,-196.97 612.64,-130.13 622,-110 640.88,-69.39 685.39,-39.4 714.03,-23.47"/>
<polygon fill="midnightblue" stroke="midnightblue" points="715.92,-26.43 723.07,-18.61 712.6,-20.26 715.92,-26.43"/>
</g>
<!-- Node34&#45;&gt;Node19 -->
<g id="edge71" class="edge">
<title>Node34&#45;&gt;Node19</title>
<path fill="none" stroke="midnightblue" d="M680.83,-220.45C715.96,-211.28 773.5,-196.26 812.29,-186.13"/>
<polygon fill="midnightblue" stroke="midnightblue" points="813.42,-189.45 822.21,-183.54 811.65,-182.68 813.42,-189.45"/>
</g>
<!-- Node34&#45;&gt;Node20 -->
<g id="edge70" class="edge">
<title>Node34&#45;&gt;Node20</title>
<path fill="none" stroke="midnightblue" d="M702.59,-220.43C752.6,-212.43 829.79,-199.17 896,-184 964.74,-168.25 1043.79,-145.07 1088.43,-131.51"/>
<polygon fill="midnightblue" stroke="midnightblue" points="1089.67,-134.79 1098.21,-128.53 1087.63,-128.1 1089.67,-134.79"/>
</g>
<!-- Node34&#45;&gt;Node29 -->
<g id="edge75" class="edge">
<title>Node34&#45;&gt;Node29</title>
<path fill="none" stroke="midnightblue" d="M641.84,-220.1C626.87,-204.02 595.49,-167.11 584,-129 579.48,-114.01 582.64,-96.33 586.41,-83.43"/>
<polygon fill="midnightblue" stroke="midnightblue" points="589.75,-84.49 589.56,-73.89 583.1,-82.29 589.75,-84.49"/>
</g>
<!-- Node35 -->
<g id="node35" class="node">
<title>Node35</title>
<g id="a_node35"><a xlink:title=" ">
<polygon fill="white" stroke="#bfbfbf" points="411.6,-165.5 411.6,-183.5 470.4,-183.5 470.4,-165.5 411.6,-165.5"/>
<text text-anchor="middle" x="441" y="-171.5" font-family="Helvetica,sans-Serif" font-size="10.00">functional</text>
</a>
</g>
</g>
<!-- Node34&#45;&gt;Node35 -->
<g id="edge73" class="edge">
<title>Node34&#45;&gt;Node35</title>
<path fill="none" stroke="midnightblue" d="M618.26,-220.45C581.39,-211.1 520.52,-195.67 480.59,-185.54"/>
<polygon fill="midnightblue" stroke="midnightblue" points="481.22,-182.09 470.67,-183.02 479.5,-188.87 481.22,-182.09"/>
</g>
<!-- Node36&#45;&gt;Node2 -->
<g id="edge81" class="edge">
<title>Node36&#45;&gt;Node2</title>
<path fill="none" stroke="midnightblue" d="M355.99,-226.74C459.96,-222.8 697.85,-211.36 896,-184 1018.18,-167.13 1051.38,-169.15 1168,-129 1185.85,-122.85 1188.74,-117.66 1206,-110 1233.23,-97.91 1264.84,-85.71 1287.86,-77.15"/>
<polygon fill="midnightblue" stroke="midnightblue" points="1289.3,-80.35 1297.47,-73.6 1286.88,-73.78 1289.3,-80.35"/>
</g>
<!-- Node36&#45;&gt;Node6 -->
<g id="edge86" class="edge">
<title>Node36&#45;&gt;Node6</title>
<path fill="none" stroke="midnightblue" d="M292.02,-220.34C265.21,-199.58 197.09,-141.62 176,-74 173.49,-65.94 171.29,-62.01 176,-55 193.43,-29.05 228.94,-18.23 254.7,-13.71"/>
<polygon fill="midnightblue" stroke="midnightblue" points="255.36,-17.15 264.72,-12.19 254.31,-10.23 255.36,-17.15"/>
</g>
<!-- Node36&#45;&gt;Node7 -->
<g id="edge87" class="edge">
<title>Node36&#45;&gt;Node7</title>
<path fill="none" stroke="midnightblue" d="M307.42,-220.27C325.76,-186.19 395.05,-57.69 399,-55 448.98,-20.98 633.32,-12.94 708.14,-11.06"/>
<polygon fill="midnightblue" stroke="midnightblue" points="708.43,-14.55 718.35,-10.83 708.27,-7.56 708.43,-14.55"/>
</g>
<!-- Node36&#45;&gt;Node19 -->
<g id="edge82" class="edge">
<title>Node36&#45;&gt;Node19</title>
<path fill="none" stroke="midnightblue" d="M355.99,-223.39C464.16,-212.97 708.62,-189.41 808.86,-179.75"/>
<polygon fill="midnightblue" stroke="midnightblue" points="809.33,-183.22 818.95,-178.78 808.66,-176.26 809.33,-183.22"/>
</g>
<!-- Node36&#45;&gt;Node33 -->
<g id="edge85" class="edge">
<title>Node36&#45;&gt;Node33</title>
<path fill="none" stroke="midnightblue" d="M287.05,-220.45C270.09,-211.89 243.03,-198.23 223.18,-188.21"/>
<polygon fill="midnightblue" stroke="midnightblue" points="224.6,-185.01 214.1,-183.63 221.45,-191.26 224.6,-185.01"/>
</g>
<!-- Node36&#45;&gt;Node35 -->
<g id="edge84" class="edge">
<title>Node36&#45;&gt;Node35</title>
<path fill="none" stroke="midnightblue" d="M323.96,-220.45C346.96,-211.62 384.1,-197.35 410.36,-187.27"/>
<polygon fill="midnightblue" stroke="midnightblue" points="411.76,-190.48 419.84,-183.63 409.25,-183.94 411.76,-190.48"/>
</g>
<!-- Node37 -->
<g id="node37" class="node">
<title>Node37</title>
<g id="a_node37"><a xlink:title=" ">
<polygon fill="white" stroke="#bfbfbf" points="272.27,-165.5 272.27,-183.5 317.73,-183.5 317.73,-165.5 272.27,-165.5"/>
<text text-anchor="middle" x="295" y="-171.5" font-family="Helvetica,sans-Serif" font-size="10.00">cstring</text>
</a>
</g>
</g>
<!-- Node36&#45;&gt;Node37 -->
<g id="edge83" class="edge">
<title>Node36&#45;&gt;Node37</title>
<path fill="none" stroke="midnightblue" d="M301.75,-220.22C300.68,-213.1 299.09,-202.58 297.72,-193.53"/>
<polygon fill="midnightblue" stroke="midnightblue" points="301.17,-192.92 296.22,-183.55 294.25,-193.96 301.17,-192.92"/>
</g>
</g>
</svg>
