<?xml version="1.0" encoding="UTF-8" standalone="no"?>
<!DOCTYPE svg PUBLIC "-//W3C//DTD SVG 1.1//EN"
 "http://www.w3.org/Graphics/SVG/1.1/DTD/svg11.dtd">
<!-- Generated by graphviz version 2.42.3 (20191010.1750)
 -->
<!-- Title: src/Ioss_Blob.h Pages: 1 -->
<svg width="1220pt" height="147pt"
 viewBox="0.00 0.00 1220.19 147.00" xmlns="http://www.w3.org/2000/svg" xmlns:xlink="http://www.w3.org/1999/xlink">
<g id="graph0" class="graph" transform="scale(1 1) rotate(0) translate(4 143)">
<title>src/Ioss_Blob.h</title>
<polygon fill="white" stroke="transparent" points="-4,4 -4,-143 1216.19,-143 1216.19,4 -4,4"/>
<!-- Node1 -->
<g id="node1" class="node">
<title>Node1</title>
<g id="a_node1"><a xlink:title=" ">
<polygon fill="#bfbfbf" stroke="black" points="668.69,-120.5 668.69,-138.5 753.06,-138.5 753.06,-120.5 668.69,-120.5"/>
<text text-anchor="middle" x="710.88" y="-126.5" font-family="Helvetica,sans-Serif" font-size="10.00">src/Ioss_Blob.h</text>
</a>
</g>
</g>
<!-- Node2 -->
<g id="node2" class="node">
<title>Node2</title>
<g id="a_node2"><a xlink:href="Ioex__BaseDatabaseIO_8C.html" target="_top" xlink:title=" ">
<polygon fill="white" stroke="black" points="0,-60.5 0,-78.5 177.75,-78.5 177.75,-60.5 0,-60.5"/>
<text text-anchor="middle" x="88.88" y="-66.5" font-family="Helvetica,sans-Serif" font-size="10.00">src/exodus/Ioex_BaseDatabaseIO.C</text>
</a>
</g>
</g>
<!-- Node1&#45;&gt;Node2 -->
<g id="edge1" class="edge">
<title>Node1&#45;&gt;Node2</title>
<path fill="none" stroke="midnightblue" d="M658.55,-124.96C564.16,-118.38 359.17,-103.17 186.88,-84 172.71,-82.42 157.43,-80.45 143.24,-78.5"/>
<polygon fill="midnightblue" stroke="midnightblue" points="658.47,-128.47 668.69,-125.67 658.96,-121.48 658.47,-128.47"/>
</g>
<!-- Node3 -->
<g id="node3" class="node">
<title>Node3</title>
<g id="a_node3"><a xlink:href="Ioex__DatabaseIO_8C.html" target="_top" xlink:title=" ">
<polygon fill="white" stroke="black" points="195.4,-60.5 195.4,-78.5 350.36,-78.5 350.36,-60.5 195.4,-60.5"/>
<text text-anchor="middle" x="272.88" y="-66.5" font-family="Helvetica,sans-Serif" font-size="10.00">src/exodus/Ioex_DatabaseIO.C</text>
</a>
</g>
</g>
<!-- Node1&#45;&gt;Node3 -->
<g id="edge2" class="edge">
<title>Node1&#45;&gt;Node3</title>
<path fill="none" stroke="midnightblue" d="M658.41,-122.36C589.57,-114.2 465.04,-99.04 358.88,-84 347.05,-82.33 334.34,-80.4 322.41,-78.53"/>
<polygon fill="midnightblue" stroke="midnightblue" points="658.22,-125.87 668.56,-123.57 659.04,-118.91 658.22,-125.87"/>
</g>
<!-- Node4 -->
<g id="node4" class="node">
<title>Node4</title>
<g id="a_node4"><a xlink:href="Ioex__Internals_8C.html" target="_top" xlink:title=" ">
<polygon fill="white" stroke="black" points="367.9,-60.5 367.9,-78.5 507.85,-78.5 507.85,-60.5 367.9,-60.5"/>
<text text-anchor="middle" x="437.88" y="-66.5" font-family="Helvetica,sans-Serif" font-size="10.00">src/exodus/Ioex_Internals.C</text>
</a>
</g>
</g>
<!-- Node1&#45;&gt;Node4 -->
<g id="edge3" class="edge">
<title>Node1&#45;&gt;Node4</title>
<path fill="none" stroke="midnightblue" d="M663.31,-118.39C609.97,-107.06 524.55,-88.91 475.6,-78.51"/>
<polygon fill="midnightblue" stroke="midnightblue" points="662.69,-121.84 673.2,-120.5 664.15,-114.99 662.69,-121.84"/>
</g>
<!-- Node5 -->
<g id="node5" class="node">
<title>Node5</title>
<g id="a_node5"><a xlink:href="Ioex__ParallelDatabaseIO_8C.html" target="_top" xlink:title=" ">
<polygon fill="white" stroke="black" points="525.4,-55.5 525.4,-83.5 650.35,-83.5 650.35,-55.5 525.4,-55.5"/>
<text text-anchor="start" x="533.4" y="-71.5" font-family="Helvetica,sans-Serif" font-size="10.00">src/exodus/Ioex_Parallel</text>
<text text-anchor="middle" x="587.88" y="-61.5" font-family="Helvetica,sans-Serif" font-size="10.00">DatabaseIO.C</text>
</a>
</g>
</g>
<!-- Node1&#45;&gt;Node5 -->
<g id="edge4" class="edge">
<title>Node1&#45;&gt;Node5</title>
<path fill="none" stroke="midnightblue" d="M684.51,-116.07C664.24,-106.51 636.32,-93.34 615.7,-83.62"/>
<polygon fill="midnightblue" stroke="midnightblue" points="683.24,-119.34 693.77,-120.44 686.22,-113 683.24,-119.34"/>
</g>
<!-- Node6 -->
<g id="node6" class="node">
<title>Node6</title>
<g id="a_node6"><a xlink:href="Ioss__Blob_8C.html" target="_top" xlink:title=" ">
<polygon fill="white" stroke="black" points="667.86,-60.5 667.86,-78.5 753.89,-78.5 753.89,-60.5 667.86,-60.5"/>
<text text-anchor="middle" x="710.88" y="-66.5" font-family="Helvetica,sans-Serif" font-size="10.00">src/Ioss_Blob.C</text>
</a>
</g>
</g>
<!-- Node1&#45;&gt;Node6 -->
<g id="edge5" class="edge">
<title>Node1&#45;&gt;Node6</title>
<path fill="none" stroke="midnightblue" d="M710.88,-110.21C710.88,-99.71 710.88,-87.03 710.88,-78.87"/>
<polygon fill="midnightblue" stroke="midnightblue" points="707.38,-110.44 710.88,-120.44 714.38,-110.44 707.38,-110.44"/>
</g>
<!-- Node7 -->
<g id="node7" class="node">
<title>Node7</title>
<g id="a_node7"><a xlink:href="Ioss__Region_8C.html" target="_top" xlink:title=" ">
<polygon fill="white" stroke="black" points="772.03,-60.5 772.03,-78.5 869.73,-78.5 869.73,-60.5 772.03,-60.5"/>
<text text-anchor="middle" x="820.88" y="-66.5" font-family="Helvetica,sans-Serif" font-size="10.00">src/Ioss_Region.C</text>
</a>
</g>
</g>
<!-- Node1&#45;&gt;Node7 -->
<g id="edge6" class="edge">
<title>Node1&#45;&gt;Node7</title>
<path fill="none" stroke="midnightblue" d="M735.29,-115.63C756.68,-104.35 787.13,-88.29 805.36,-78.68"/>
<polygon fill="midnightblue" stroke="midnightblue" points="733.38,-112.68 726.17,-120.44 736.65,-118.87 733.38,-112.68"/>
</g>
<!-- Node8 -->
<g id="node8" class="node">
<title>Node8</title>
<g id="a_node8"><a xlink:href="Ioss__Utils_8C.html" target="_top" xlink:title=" ">
<polygon fill="white" stroke="black" points="888.15,-60.5 888.15,-78.5 973.6,-78.5 973.6,-60.5 888.15,-60.5"/>
<text text-anchor="middle" x="930.88" y="-66.5" font-family="Helvetica,sans-Serif" font-size="10.00">src/Ioss_Utils.C</text>
</a>
</g>
</g>
<!-- Node1&#45;&gt;Node8 -->
<g id="edge7" class="edge">
<title>Node1&#45;&gt;Node8</title>
<path fill="none" stroke="midnightblue" d="M751.32,-117.84C794.31,-106.5 861.34,-88.83 900.19,-78.59"/>
<polygon fill="midnightblue" stroke="midnightblue" points="750.24,-114.5 741.47,-120.44 752.03,-121.27 750.24,-114.5"/>
</g>
<!-- Node9 -->
<g id="node9" class="node">
<title>Node9</title>
<g id="a_node9"><a xlink:href="io__info_8h.html" target="_top" xlink:title=" ">
<polygon fill="white" stroke="black" points="991.69,-60.5 991.69,-78.5 1086.06,-78.5 1086.06,-60.5 991.69,-60.5"/>
<text text-anchor="middle" x="1038.88" y="-66.5" font-family="Helvetica,sans-Serif" font-size="10.00">src/main/io_info.h</text>
</a>
</g>
</g>
<!-- Node1&#45;&gt;Node9 -->
<g id="edge8" class="edge">
<title>Node1&#45;&gt;Node9</title>
<path fill="none" stroke="midnightblue" d="M763.65,-121.05C818.61,-113.02 907.09,-99.31 982.88,-84 990.82,-82.4 999.34,-80.46 1007.28,-78.55"/>
<polygon fill="midnightblue" stroke="midnightblue" points="762.85,-117.63 753.46,-122.54 763.86,-124.56 762.85,-117.63"/>
</g>
<!-- Node12 -->
<g id="node12" class="node">
<title>Node12</title>
<g id="a_node12"><a xlink:href="io__modify_8C.html" target="_top" xlink:title=" ">
<polygon fill="white" stroke="black" points="1103.57,-60.5 1103.57,-78.5 1212.19,-78.5 1212.19,-60.5 1103.57,-60.5"/>
<text text-anchor="middle" x="1157.88" y="-66.5" font-family="Helvetica,sans-Serif" font-size="10.00">src/main/io_modify.C</text>
</a>
</g>
</g>
<!-- Node1&#45;&gt;Node12 -->
<g id="edge11" class="edge">
<title>Node1&#45;&gt;Node12</title>
<path fill="none" stroke="midnightblue" d="M763.12,-124.04C837.21,-117.36 976.92,-103.43 1094.88,-84 1104.15,-82.47 1114.12,-80.49 1123.33,-78.53"/>
<polygon fill="midnightblue" stroke="midnightblue" points="762.76,-120.56 753.11,-124.94 763.38,-127.53 762.76,-120.56"/>
</g>
<!-- Node10 -->
<g id="node10" class="node">
<title>Node10</title>
<g id="a_node10"><a xlink:href="io__info_8C.html" target="_top" xlink:title=" ">
<polygon fill="white" stroke="black" points="926.86,-0.5 926.86,-18.5 1022.89,-18.5 1022.89,-0.5 926.86,-0.5"/>
<text text-anchor="middle" x="974.88" y="-6.5" font-family="Helvetica,sans-Serif" font-size="10.00">src/main/io_info.C</text>
</a>
</g>
</g>
<!-- Node9&#45;&gt;Node10 -->
<g id="edge9" class="edge">
<title>Node9&#45;&gt;Node10</title>
<path fill="none" stroke="midnightblue" d="M1022.31,-53.48C1010.15,-42.46 994.08,-27.9 984.11,-18.87"/>
<polygon fill="midnightblue" stroke="midnightblue" points="1020.22,-56.31 1029.98,-60.44 1024.92,-51.13 1020.22,-56.31"/>
</g>
<!-- Node11 -->
<g id="node11" class="node">
<title>Node11</title>
<g id="a_node11"><a xlink:href="io__info__main_8C.html" target="_top" xlink:title=" ">
<polygon fill="white" stroke="black" points="1041.24,-0.5 1041.24,-18.5 1164.51,-18.5 1164.51,-0.5 1041.24,-0.5"/>
<text text-anchor="middle" x="1102.88" y="-6.5" font-family="Helvetica,sans-Serif" font-size="10.00">src/main/io_info_main.C</text>
</a>
</g>
</g>
<!-- Node9&#45;&gt;Node11 -->
<g id="edge10" class="edge">
<title>Node9&#45;&gt;Node11</title>
<path fill="none" stroke="midnightblue" d="M1055.45,-53.48C1067.61,-42.46 1083.67,-27.9 1093.64,-18.87"/>
<polygon fill="midnightblue" stroke="midnightblue" points="1052.83,-51.13 1047.78,-60.44 1057.54,-56.31 1052.83,-51.13"/>
</g>
</g>
</svg>
