<?xml version="1.0" encoding="UTF-8" standalone="no"?>
<!DOCTYPE svg PUBLIC "-//W3C//DTD SVG 1.1//EN"
 "http://www.w3.org/Graphics/SVG/1.1/DTD/svg11.dtd">
<!-- Generated by graphviz version 2.40.1 (20161225.0304)
 -->
<!-- Title: src/Ioss_Pyramid18.h Pages: 1 -->
<svg width="274pt" height="147pt"
 viewBox="0.00 0.00 273.54 147.00" xmlns="http://www.w3.org/2000/svg" xmlns:xlink="http://www.w3.org/1999/xlink">
<g id="graph0" class="graph" transform="scale(1 1) rotate(0) translate(4 143)">
<title>src/Ioss_Pyramid18.h</title>
<polygon fill="#ffffff" stroke="transparent" points="-4,4 -4,-143 269.5439,-143 269.5439,4 -4,4"/>
<!-- Node11 -->
<g id="node1" class="node">
<title>Node11</title>
<polygon fill="#bfbfbf" stroke="#000000" points="71.8301,-120.5 71.8301,-138.5 183.9775,-138.5 183.9775,-120.5 71.8301,-120.5"/>
<text text-anchor="middle" x="127.9038" y="-126.5" font-family="Helvetica,sans-Serif" font-size="10.00" fill="#000000">src/Ioss_Pyramid18.h</text>
</g>
<!-- Node12 -->
<g id="node2" class="node">
<title>Node12</title>
<g id="a_node2"><a xlink:href="$Ioss__Pyramid18_8C.html" xlink:title="src/Ioss_Pyramid18.C">
<polygon fill="#ffffff" stroke="#000000" points="0,-60.5 0,-78.5 113.8076,-78.5 113.8076,-60.5 0,-60.5"/>
<text text-anchor="middle" x="56.9038" y="-66.5" font-family="Helvetica,sans-Serif" font-size="10.00" fill="#000000">src/Ioss_Pyramid18.C</text>
</a>
</g>
</g>
<!-- Node11&#45;&gt;Node12 -->
<g id="edge1" class="edge">
<title>Node11&#45;&gt;Node12</title>
<path fill="none" stroke="#191970" d="M109.1378,-113.6414C95.9526,-102.4989 78.7739,-87.9817 67.7887,-78.6985"/>
<polygon fill="#191970" stroke="#191970" points="107.2234,-116.6059 117.1204,-120.3873 111.7416,-111.2594 107.2234,-116.6059"/>
</g>
<!-- Node13 -->
<g id="node3" class="node">
<title>Node13</title>
<g id="a_node3"><a xlink:href="$Ioss__StandardElementTypes_8h.html" xlink:title="src/Ioss_StandardElement\lTypes.h">
<polygon fill="#ffffff" stroke="#000000" points="132.2637,-55.5 132.2637,-83.5 265.5439,-83.5 265.5439,-55.5 132.2637,-55.5"/>
<text text-anchor="start" x="140.2637" y="-71.5" font-family="Helvetica,sans-Serif" font-size="10.00" fill="#000000">src/Ioss_StandardElement</text>
<text text-anchor="middle" x="198.9038" y="-61.5" font-family="Helvetica,sans-Serif" font-size="10.00" fill="#000000">Types.h</text>
</a>
</g>
</g>
<!-- Node11&#45;&gt;Node13 -->
<g id="edge2" class="edge">
<title>Node11&#45;&gt;Node13</title>
<path fill="none" stroke="#191970" d="M146.4905,-113.7929C157.5555,-104.4422 171.4814,-92.6739 182.1972,-83.6183"/>
<polygon fill="#191970" stroke="#191970" points="144.066,-111.2594 138.6872,-120.3873 148.5843,-116.6059 144.066,-111.2594"/>
</g>
<!-- Node14 -->
<g id="node4" class="node">
<title>Node14</title>
<g id="a_node4"><a xlink:href="$Ioss__Initializer_8C.html" xlink:title="src/Ioss_Initializer.C">
<polygon fill="#ffffff" stroke="#000000" points="146.4434,-.5 146.4434,-18.5 251.3643,-18.5 251.3643,-.5 146.4434,-.5"/>
<text text-anchor="middle" x="198.9038" y="-6.5" font-family="Helvetica,sans-Serif" font-size="10.00" fill="#000000">src/Ioss_Initializer.C</text>
</a>
</g>
</g>
<!-- Node13&#45;&gt;Node14 -->
<g id="edge3" class="edge">
<title>Node13&#45;&gt;Node14</title>
<path fill="none" stroke="#191970" d="M198.9038,-45.2151C198.9038,-35.8253 198.9038,-25.6598 198.9038,-18.5842"/>
<polygon fill="#191970" stroke="#191970" points="195.4039,-45.2808 198.9038,-55.2808 202.4039,-45.2809 195.4039,-45.2808"/>
</g>
</g>
</svg>
