<?xml version="1.0" encoding="UTF-8" standalone="no"?>
<!DOCTYPE svg PUBLIC "-//W3C//DTD SVG 1.1//EN"
 "http://www.w3.org/Graphics/SVG/1.1/DTD/svg11.dtd">
<!-- Generated by graphviz version 2.40.1 (20161225.0304)
 -->
<!-- Title: src/Ioss_Super.C Pages: 1 -->
<svg width="703pt" height="247pt"
 viewBox="0.00 0.00 703.29 247.00" xmlns="http://www.w3.org/2000/svg" xmlns:xlink="http://www.w3.org/1999/xlink">
<g id="graph0" class="graph" transform="scale(1 1) rotate(0) translate(4 243)">
<title>src/Ioss_Super.C</title>
<polygon fill="#ffffff" stroke="transparent" points="-4,4 -4,-243 699.293,-243 699.293,4 -4,4"/>
<!-- Node0 -->
<g id="node1" class="node">
<title>Node0</title>
<g id="a_node1"><a xlink:title=" ">
<polygon fill="#bfbfbf" stroke="#000000" points="336.0469,-220.5 336.0469,-238.5 428.1943,-238.5 428.1943,-220.5 336.0469,-220.5"/>
<text text-anchor="middle" x="382.1206" y="-226.5" font-family="Helvetica,sans-Serif" font-size="10.00" fill="#000000">src/Ioss_Super.C</text>
</a>
</g>
</g>
<!-- Node1 -->
<g id="node2" class="node">
<title>Node1</title>
<g id="a_node2"><a xlink:href="Ioss__CodeTypes_8h.html" target="_top" xlink:title=" ">
<polygon fill="#ffffff" stroke="#000000" points="139.7046,-55.5 139.7046,-73.5 238.5366,-73.5 238.5366,-55.5 139.7046,-55.5"/>
<text text-anchor="middle" x="189.1206" y="-61.5" font-family="Helvetica,sans-Serif" font-size="10.00" fill="#000000">Ioss_CodeTypes.h</text>
</a>
</g>
</g>
<!-- Node0&#45;&gt;Node1 -->
<g id="edge1" class="edge">
<title>Node0&#45;&gt;Node1</title>
<path fill="none" stroke="#191970" d="M336.19,-220.441C297.5751,-211.9849 246.3124,-198.5186 231.1206,-184 203.0079,-157.133 193.6932,-110.3651 190.6207,-84.0085"/>
<polygon fill="#191970" stroke="#191970" points="194.0774,-83.3935 189.626,-73.7792 187.1103,-84.0711 194.0774,-83.3935"/>
</g>
<!-- Node3 -->
<g id="node4" class="node">
<title>Node3</title>
<g id="a_node4"><a xlink:title=" ">
<polygon fill="#ffffff" stroke="#bfbfbf" points="0,-.5 0,-18.5 48.2412,-18.5 48.2412,-.5 0,-.5"/>
<text text-anchor="middle" x="24.1206" y="-6.5" font-family="Helvetica,sans-Serif" font-size="10.00" fill="#000000">cstddef</text>
</a>
</g>
</g>
<!-- Node0&#45;&gt;Node3 -->
<g id="edge29" class="edge">
<title>Node0&#45;&gt;Node3</title>
<path fill="none" stroke="#191970" d="M335.824,-223.3409C300.2844,-217.1787 250.8954,-205.4274 212.1206,-184 135.5865,-141.7064 65.8535,-61.6295 37.5159,-26.6138"/>
<polygon fill="#191970" stroke="#191970" points="40.1986,-24.3642 31.2243,-18.7327 34.728,-28.7315 40.1986,-24.3642"/>
</g>
<!-- Node5 -->
<g id="node6" class="node">
<title>Node5</title>
<g id="a_node6"><a xlink:title=" ">
<polygon fill="#ffffff" stroke="#bfbfbf" points="451.894,-.5 451.894,-18.5 492.3472,-18.5 492.3472,-.5 451.894,-.5"/>
<text text-anchor="middle" x="472.1206" y="-6.5" font-family="Helvetica,sans-Serif" font-size="10.00" fill="#000000">string</text>
</a>
</g>
</g>
<!-- Node0&#45;&gt;Node5 -->
<g id="edge31" class="edge">
<title>Node0&#45;&gt;Node5</title>
<path fill="none" stroke="#191970" d="M390.795,-220.4014C406.1243,-203.7458 437.8256,-166.5973 453.1206,-129 466.788,-95.4035 470.6623,-52.7679 471.7362,-28.5678"/>
<polygon fill="#191970" stroke="#191970" points="475.2345,-28.6755 472.0636,-18.5663 468.2382,-28.4464 475.2345,-28.6755"/>
</g>
<!-- Node9 -->
<g id="node10" class="node">
<title>Node9</title>
<g id="a_node10"><a xlink:href="Ioss__ElementTopology_8h.html" target="_top" xlink:title=" ">
<polygon fill="#ffffff" stroke="#000000" points="320.0117,-110.5 320.0117,-128.5 444.2295,-128.5 444.2295,-110.5 320.0117,-110.5"/>
<text text-anchor="middle" x="382.1206" y="-116.5" font-family="Helvetica,sans-Serif" font-size="10.00" fill="#000000">Ioss_ElementTopology.h</text>
</a>
</g>
</g>
<!-- Node0&#45;&gt;Node9 -->
<g id="edge9" class="edge">
<title>Node0&#45;&gt;Node9</title>
<path fill="none" stroke="#191970" d="M382.1206,-220.4982C382.1206,-202.6913 382.1206,-162.6225 382.1206,-138.6515"/>
<polygon fill="#191970" stroke="#191970" points="385.6207,-138.6261 382.1206,-128.6261 378.6207,-138.6262 385.6207,-138.6261"/>
</g>
<!-- Node11 -->
<g id="node12" class="node">
<title>Node11</title>
<g id="a_node12"><a xlink:href="Ioss__ElementVariableType_8h.html" target="_top" xlink:title=" ">
<polygon fill="#ffffff" stroke="#000000" points="490.8394,-165.5 490.8394,-183.5 633.4019,-183.5 633.4019,-165.5 490.8394,-165.5"/>
<text text-anchor="middle" x="562.1206" y="-171.5" font-family="Helvetica,sans-Serif" font-size="10.00" fill="#000000">Ioss_ElementVariableType.h</text>
</a>
</g>
</g>
<!-- Node0&#45;&gt;Node11 -->
<g id="edge14" class="edge">
<title>Node0&#45;&gt;Node11</title>
<path fill="none" stroke="#191970" d="M411.8439,-220.4179C442.1589,-211.155 489.3598,-196.7325 522.7628,-186.526"/>
<polygon fill="#191970" stroke="#191970" points="524.1116,-189.7737 532.6523,-183.5042 522.066,-183.0792 524.1116,-189.7737"/>
</g>
<!-- Node15 -->
<g id="node16" class="node">
<title>Node15</title>
<g id="a_node16"><a xlink:href="Ioss__Super_8h.html" target="_top" xlink:title=" ">
<polygon fill="#ffffff" stroke="#000000" points="239.9312,-165.5 239.9312,-183.5 314.3101,-183.5 314.3101,-165.5 239.9312,-165.5"/>
<text text-anchor="middle" x="277.1206" y="-171.5" font-family="Helvetica,sans-Serif" font-size="10.00" fill="#000000">Ioss_Super.h</text>
</a>
</g>
</g>
<!-- Node0&#45;&gt;Node15 -->
<g id="edge24" class="edge">
<title>Node0&#45;&gt;Node15</title>
<path fill="none" stroke="#191970" d="M364.782,-220.4179C348.139,-211.7001 322.7711,-198.4122 303.5995,-188.3699"/>
<polygon fill="#191970" stroke="#191970" points="304.9673,-185.1353 294.485,-183.5956 301.7193,-191.3362 304.9673,-185.1353"/>
</g>
<!-- Node16 -->
<g id="node17" class="node">
<title>Node16</title>
<g id="a_node17"><a xlink:title=" ">
<polygon fill="#ffffff" stroke="#bfbfbf" points="650.9482,-165.5 650.9482,-183.5 695.293,-183.5 695.293,-165.5 650.9482,-165.5"/>
<text text-anchor="middle" x="673.1206" y="-171.5" font-family="Helvetica,sans-Serif" font-size="10.00" fill="#000000">cstdlib</text>
</a>
</g>
</g>
<!-- Node0&#45;&gt;Node16 -->
<g id="edge30" class="edge">
<title>Node0&#45;&gt;Node16</title>
<path fill="none" stroke="#191970" d="M428.5023,-223.1591C478.6414,-215.9112 561.0402,-202.8617 640.6623,-184.1194"/>
<polygon fill="#191970" stroke="#191970" points="641.9475,-187.4109 650.8607,-181.6833 640.3211,-180.6025 641.9475,-187.4109"/>
</g>
<!-- Node2 -->
<g id="node3" class="node">
<title>Node2</title>
<g id="a_node3"><a xlink:title=" ">
<polygon fill="#ffffff" stroke="#bfbfbf" points="137.729,-.5 137.729,-18.5 176.5122,-18.5 176.5122,-.5 137.729,-.5"/>
<text text-anchor="middle" x="157.1206" y="-6.5" font-family="Helvetica,sans-Serif" font-size="10.00" fill="#000000">array</text>
</a>
</g>
</g>
<!-- Node1&#45;&gt;Node2 -->
<g id="edge2" class="edge">
<title>Node1&#45;&gt;Node2</title>
<path fill="none" stroke="#191970" d="M183.8365,-55.4179C179.4623,-47.8998 173.1106,-36.9829 167.698,-27.6799"/>
<polygon fill="#191970" stroke="#191970" points="170.5738,-25.6628 162.5196,-18.7795 164.5233,-29.1831 170.5738,-25.6628"/>
</g>
<!-- Node1&#45;&gt;Node3 -->
<g id="edge3" class="edge">
<title>Node1&#45;&gt;Node3</title>
<path fill="none" stroke="#191970" d="M161.8742,-55.4179C133.5027,-45.9607 88.9963,-31.1252 58.289,-20.8895"/>
<polygon fill="#191970" stroke="#191970" points="59.0412,-17.4509 48.4475,-17.609 56.8275,-24.0917 59.0412,-17.4509"/>
</g>
<!-- Node4 -->
<g id="node5" class="node">
<title>Node4</title>
<g id="a_node5"><a xlink:title=" ">
<polygon fill="#ffffff" stroke="#bfbfbf" points="194.6699,-.5 194.6699,-18.5 239.5713,-18.5 239.5713,-.5 194.6699,-.5"/>
<text text-anchor="middle" x="217.1206" y="-6.5" font-family="Helvetica,sans-Serif" font-size="10.00" fill="#000000">cstdint</text>
</a>
</g>
</g>
<!-- Node1&#45;&gt;Node4 -->
<g id="edge4" class="edge">
<title>Node1&#45;&gt;Node4</title>
<path fill="none" stroke="#191970" d="M193.7442,-55.4179C197.5313,-47.9789 203.0125,-37.2123 207.7156,-27.9742"/>
<polygon fill="#191970" stroke="#191970" points="210.9787,-29.279 212.3965,-18.7795 204.7406,-26.1032 210.9787,-29.279"/>
</g>
<!-- Node1&#45;&gt;Node5 -->
<g id="edge5" class="edge">
<title>Node1&#45;&gt;Node5</title>
<path fill="none" stroke="#191970" d="M238.722,-57.706C288.0241,-50.4876 365.9125,-37.8307 441.4689,-19.156"/>
<polygon fill="#191970" stroke="#191970" points="442.7828,-22.4348 451.629,-16.6042 441.0776,-15.6456 442.7828,-22.4348"/>
</g>
<!-- Node6 -->
<g id="node7" class="node">
<title>Node6</title>
<g id="a_node7"><a xlink:title=" ">
<polygon fill="#ffffff" stroke="#bfbfbf" points="390.5049,-.5 390.5049,-18.5 433.7363,-18.5 433.7363,-.5 390.5049,-.5"/>
<text text-anchor="middle" x="412.1206" y="-6.5" font-family="Helvetica,sans-Serif" font-size="10.00" fill="#000000">vector</text>
</a>
</g>
</g>
<!-- Node1&#45;&gt;Node6 -->
<g id="edge6" class="edge">
<title>Node1&#45;&gt;Node6</title>
<path fill="none" stroke="#191970" d="M231.52,-55.466C268.6326,-47.3438 324.1914,-34.6682 380.454,-19.3317"/>
<polygon fill="#191970" stroke="#191970" points="381.5092,-22.6715 390.2222,-16.6436 379.6519,-15.9223 381.5092,-22.6715"/>
</g>
<!-- Node7 -->
<g id="node8" class="node">
<title>Node7</title>
<g id="a_node8"><a xlink:title=" ">
<polygon fill="#ffffff" stroke="#bfbfbf" points="257.3721,-.5 257.3721,-18.5 372.8691,-18.5 372.8691,-.5 257.3721,-.5"/>
<text text-anchor="middle" x="315.1206" y="-6.5" font-family="Helvetica,sans-Serif" font-size="10.00" fill="#000000">SEACASIoss_config.h</text>
</a>
</g>
</g>
<!-- Node1&#45;&gt;Node7 -->
<g id="edge7" class="edge">
<title>Node1&#45;&gt;Node7</title>
<path fill="none" stroke="#191970" d="M209.9269,-55.4179C230.3545,-46.5011 261.7354,-32.803 284.9098,-22.6873"/>
<polygon fill="#191970" stroke="#191970" points="286.5187,-25.804 294.2834,-18.5956 283.7182,-19.3885 286.5187,-25.804"/>
</g>
<!-- Node8 -->
<g id="node9" class="node">
<title>Node8</title>
<g id="a_node9"><a xlink:title=" ">
<polygon fill="#ffffff" stroke="#bfbfbf" points="66.5024,-.5 66.5024,-18.5 119.7388,-18.5 119.7388,-.5 66.5024,-.5"/>
<text text-anchor="middle" x="93.1206" y="-6.5" font-family="Helvetica,sans-Serif" font-size="10.00" fill="#000000">complex</text>
</a>
</g>
</g>
<!-- Node1&#45;&gt;Node8 -->
<g id="edge8" class="edge">
<title>Node1&#45;&gt;Node8</title>
<path fill="none" stroke="#191970" d="M173.2682,-55.4179C158.2602,-46.8195 135.4922,-33.7754 118.0534,-23.7844"/>
<polygon fill="#191970" stroke="#191970" points="119.4134,-20.5299 108.9966,-18.5956 115.9336,-26.6037 119.4134,-20.5299"/>
</g>
<!-- Node9&#45;&gt;Node1 -->
<g id="edge10" class="edge">
<title>Node9&#45;&gt;Node1</title>
<path fill="none" stroke="#191970" d="M350.2506,-110.4179C317.466,-101.0751 266.2624,-86.4834 230.398,-76.263"/>
<polygon fill="#191970" stroke="#191970" points="231.2936,-72.8789 220.7172,-73.5042 229.3751,-79.6109 231.2936,-72.8789"/>
</g>
<!-- Node9&#45;&gt;Node5 -->
<g id="edge12" class="edge">
<title>Node9&#45;&gt;Node5</title>
<path fill="none" stroke="#191970" d="M374.5446,-110.4757C364.491,-97.3399 349.3114,-72.6035 361.1206,-55 365.9235,-47.8404 410.9499,-30.9077 442.1576,-19.8394"/>
<polygon fill="#191970" stroke="#191970" points="443.463,-23.0906 451.7359,-16.4718 441.1411,-16.4869 443.463,-23.0906"/>
</g>
<!-- Node9&#45;&gt;Node6 -->
<g id="edge13" class="edge">
<title>Node9&#45;&gt;Node6</title>
<path fill="none" stroke="#191970" d="M364.6951,-110.4015C344.3978,-98.5314 315.1918,-76.7068 328.1206,-55 334.1925,-44.8056 359.7186,-31.7928 381.0551,-22.2969"/>
<polygon fill="#191970" stroke="#191970" points="382.7005,-25.3982 390.4785,-18.2042 379.912,-18.9776 382.7005,-25.3982"/>
</g>
<!-- Node10 -->
<g id="node11" class="node">
<title>Node10</title>
<g id="a_node11"><a xlink:title=" ">
<polygon fill="#ffffff" stroke="#bfbfbf" points="370.394,-55.5 370.394,-73.5 405.8472,-73.5 405.8472,-55.5 370.394,-55.5"/>
<text text-anchor="middle" x="388.1206" y="-61.5" font-family="Helvetica,sans-Serif" font-size="10.00" fill="#000000">map</text>
</a>
</g>
</g>
<!-- Node9&#45;&gt;Node10 -->
<g id="edge11" class="edge">
<title>Node9&#45;&gt;Node10</title>
<path fill="none" stroke="#191970" d="M383.1114,-110.4179C383.897,-103.2164 385.0228,-92.8962 386.0083,-83.8632"/>
<polygon fill="#191970" stroke="#191970" points="389.5031,-84.1001 387.1083,-73.7795 382.5444,-83.3409 389.5031,-84.1001"/>
</g>
<!-- Node11&#45;&gt;Node1 -->
<g id="edge15" class="edge">
<title>Node11&#45;&gt;Node1</title>
<path fill="none" stroke="#191970" d="M490.5853,-167.452C439.5413,-161.0075 369.8239,-149.2932 311.1206,-129 274.3388,-116.2849 235.1153,-93.7369 211.3578,-78.9538"/>
<polygon fill="#191970" stroke="#191970" points="213.0796,-75.9016 202.7563,-73.5184 209.3402,-81.8191 213.0796,-75.9016"/>
</g>
<!-- Node11&#45;&gt;Node5 -->
<g id="edge23" class="edge">
<title>Node11&#45;&gt;Node5</title>
<path fill="none" stroke="#191970" d="M581.6927,-165.3746C621.0824,-145.7977 703.3566,-98.0446 669.1206,-55 648.6624,-29.2781 552.7255,-16.8409 502.6792,-12.0163"/>
<polygon fill="#191970" stroke="#191970" points="502.7306,-8.5063 492.4519,-11.075 502.089,-15.4768 502.7306,-8.5063"/>
</g>
<!-- Node12 -->
<g id="node13" class="node">
<title>Node12</title>
<g id="a_node13"><a xlink:href="Ioss__VariableType_8h.html" target="_top" xlink:title=" ">
<polygon fill="#ffffff" stroke="#000000" points="500.1816,-110.5 500.1816,-128.5 606.0596,-128.5 606.0596,-110.5 500.1816,-110.5"/>
<text text-anchor="middle" x="553.1206" y="-116.5" font-family="Helvetica,sans-Serif" font-size="10.00" fill="#000000">Ioss_VariableType.h</text>
</a>
</g>
</g>
<!-- Node11&#45;&gt;Node12 -->
<g id="edge16" class="edge">
<title>Node11&#45;&gt;Node12</title>
<path fill="none" stroke="#191970" d="M560.6344,-165.4179C559.456,-158.2164 557.7673,-147.8962 556.2891,-138.8632"/>
<polygon fill="#191970" stroke="#191970" points="559.7081,-138.083 554.6391,-128.7795 552.8,-139.2134 559.7081,-138.083"/>
</g>
<!-- Node12&#45;&gt;Node1 -->
<g id="edge17" class="edge">
<title>Node12&#45;&gt;Node1</title>
<path fill="none" stroke="#191970" d="M499.8021,-111.4436C432.8922,-101.3336 318.4753,-84.0453 248.7347,-73.5076"/>
<polygon fill="#191970" stroke="#191970" points="249.191,-70.0369 238.7803,-72.0035 248.1451,-76.9584 249.191,-70.0369"/>
</g>
<!-- Node12&#45;&gt;Node5 -->
<g id="edge21" class="edge">
<title>Node12&#45;&gt;Node5</title>
<path fill="none" stroke="#191970" d="M546.492,-110.4982C533.0237,-92.2079 502.2603,-50.4304 484.8122,-26.7354"/>
<polygon fill="#191970" stroke="#191970" points="487.5886,-24.6032 478.8408,-18.6261 481.952,-28.7539 487.5886,-24.6032"/>
</g>
<!-- Node12&#45;&gt;Node6 -->
<g id="edge22" class="edge">
<title>Node12&#45;&gt;Node6</title>
<path fill="none" stroke="#191970" d="M541.582,-110.4982C517.5174,-91.7244 461.734,-48.2055 431.8545,-24.8952"/>
<polygon fill="#191970" stroke="#191970" points="433.856,-22.0176 423.8187,-18.6261 429.5503,-27.5368 433.856,-22.0176"/>
</g>
<!-- Node12&#45;&gt;Node10 -->
<g id="edge20" class="edge">
<title>Node12&#45;&gt;Node10</title>
<path fill="none" stroke="#191970" d="M525.8742,-110.4179C495.4468,-100.2754 446.4614,-83.9469 415.8423,-73.7406"/>
<polygon fill="#191970" stroke="#191970" points="416.8096,-70.3737 406.2159,-70.5318 414.5959,-77.0145 416.8096,-70.3737"/>
</g>
<!-- Node13 -->
<g id="node14" class="node">
<title>Node13</title>
<g id="a_node14"><a xlink:title=" ">
<polygon fill="#ffffff" stroke="#bfbfbf" points="538.394,-55.5 538.394,-73.5 583.8472,-73.5 583.8472,-55.5 538.394,-55.5"/>
<text text-anchor="middle" x="561.1206" y="-61.5" font-family="Helvetica,sans-Serif" font-size="10.00" fill="#000000">cstring</text>
</a>
</g>
</g>
<!-- Node12&#45;&gt;Node13 -->
<g id="edge18" class="edge">
<title>Node12&#45;&gt;Node13</title>
<path fill="none" stroke="#191970" d="M554.4416,-110.4179C555.4891,-103.2164 556.9903,-92.8962 558.3041,-83.8632"/>
<polygon fill="#191970" stroke="#191970" points="561.7949,-84.1791 559.7709,-73.7795 554.8678,-83.1715 561.7949,-84.1791"/>
</g>
<!-- Node14 -->
<g id="node15" class="node">
<title>Node14</title>
<g id="a_node15"><a xlink:title=" ">
<polygon fill="#ffffff" stroke="#bfbfbf" points="601.7168,-55.5 601.7168,-73.5 660.5244,-73.5 660.5244,-55.5 601.7168,-55.5"/>
<text text-anchor="middle" x="631.1206" y="-61.5" font-family="Helvetica,sans-Serif" font-size="10.00" fill="#000000">functional</text>
</a>
</g>
</g>
<!-- Node12&#45;&gt;Node14 -->
<g id="edge19" class="edge">
<title>Node12&#45;&gt;Node14</title>
<path fill="none" stroke="#191970" d="M566.0007,-110.4179C577.856,-102.0584 595.6708,-89.4966 609.6722,-79.6239"/>
<polygon fill="#191970" stroke="#191970" points="612.0657,-82.2188 618.2214,-73.5956 608.0318,-76.498 612.0657,-82.2188"/>
</g>
<!-- Node15&#45;&gt;Node1 -->
<g id="edge26" class="edge">
<title>Node15&#45;&gt;Node1</title>
<path fill="none" stroke="#191970" d="M269.7129,-165.4651C262.217,-156.3051 250.3116,-141.7089 240.1206,-129 227.3499,-113.074 212.9331,-94.8146 202.694,-81.798"/>
<polygon fill="#191970" stroke="#191970" points="205.2749,-79.4177 196.3444,-73.7172 199.7708,-83.7427 205.2749,-79.4177"/>
</g>
<!-- Node15&#45;&gt;Node5 -->
<g id="edge28" class="edge">
<title>Node15&#45;&gt;Node5</title>
<path fill="none" stroke="#191970" d="M280.2094,-165.4363C288.2896,-143.109 312.2308,-85.0931 352.1206,-55 359.5959,-49.3606 409.0005,-31.507 442.0428,-19.9126"/>
<polygon fill="#191970" stroke="#191970" points="443.4216,-23.1384 451.7075,-16.5358 441.1127,-16.5302 443.4216,-23.1384"/>
</g>
<!-- Node15&#45;&gt;Node9 -->
<g id="edge27" class="edge">
<title>Node15&#45;&gt;Node9</title>
<path fill="none" stroke="#191970" d="M294.4592,-165.4179C311.1022,-156.7001 336.4701,-143.4122 355.6417,-133.3699"/>
<polygon fill="#191970" stroke="#191970" points="357.5219,-136.3362 364.7562,-128.5956 354.2739,-130.1353 357.5219,-136.3362"/>
</g>
<!-- Node15&#45;&gt;Node15 -->
<g id="edge25" class="edge">
<title>Node15&#45;&gt;Node15</title>
<path fill="none" stroke="#191970" d="M299.7968,-183.5349C316.0851,-186.4765 332.3101,-183.4648 332.3101,-174.5 332.3101,-167.4262 322.2081,-164.0589 309.9441,-164.3983"/>
<polygon fill="#191970" stroke="#191970" points="309.376,-160.9386 299.7968,-165.4651 310.108,-167.9003 309.376,-160.9386"/>
</g>
</g>
</svg>
