<?xml version="1.0" encoding="UTF-8" standalone="no"?>
<!DOCTYPE svg PUBLIC "-//W3C//DTD SVG 1.1//EN"
 "http://www.w3.org/Graphics/SVG/1.1/DTD/svg11.dtd">
<!-- Generated by graphviz version 2.40.1 (20161225.0304)
 -->
<!-- Title: src/Ioss_SerializeIO.C Pages: 1 -->
<svg width="1874pt" height="357pt"
 viewBox="0.00 0.00 1873.53 357.00" xmlns="http://www.w3.org/2000/svg" xmlns:xlink="http://www.w3.org/1999/xlink">
<g id="graph0" class="graph" transform="scale(1 1) rotate(0) translate(4 353)">
<title>src/Ioss_SerializeIO.C</title>
<polygon fill="#ffffff" stroke="transparent" points="-4,4 -4,-353 1869.5293,-353 1869.5293,4 -4,4"/>
<!-- Node0 -->
<g id="node1" class="node">
<title>Node0</title>
<g id="a_node1"><a xlink:title=" ">
<polygon fill="#bfbfbf" stroke="#000000" points="1474.0098,-330.5 1474.0098,-348.5 1588.9258,-348.5 1588.9258,-330.5 1474.0098,-330.5"/>
<text text-anchor="middle" x="1531.4678" y="-336.5" font-family="Helvetica,sans-Serif" font-size="10.00" fill="#000000">src/Ioss_SerializeIO.C</text>
</a>
</g>
</g>
<!-- Node1 -->
<g id="node2" class="node">
<title>Node1</title>
<g id="a_node2"><a xlink:href="Ioss__CodeTypes_8h.html" target="_top" xlink:title=" ">
<polygon fill="#ffffff" stroke="#000000" points="843.0518,-55.5 843.0518,-73.5 941.8838,-73.5 941.8838,-55.5 843.0518,-55.5"/>
<text text-anchor="middle" x="892.4678" y="-61.5" font-family="Helvetica,sans-Serif" font-size="10.00" fill="#000000">Ioss_CodeTypes.h</text>
</a>
</g>
</g>
<!-- Node0&#45;&gt;Node1 -->
<g id="edge1" class="edge">
<title>Node0&#45;&gt;Node1</title>
<path fill="none" stroke="#191970" d="M1473.8425,-335.5966C1409.2804,-330.2335 1301.9415,-318.3373 1212.4678,-294 1150.3478,-277.1031 1137.3075,-265.1206 1078.4678,-239 1026.6852,-216.0122 1005.291,-222.219 963.4678,-184 931.8405,-155.0982 909.9329,-108.8093 899.475,-83.1502"/>
<polygon fill="#191970" stroke="#191970" points="902.7233,-81.8464 895.809,-73.8187 896.208,-84.406 902.7233,-81.8464"/>
</g>
<!-- Node5 -->
<g id="node6" class="node">
<title>Node5</title>
<g id="a_node6"><a xlink:title=" ">
<polygon fill="#ffffff" stroke="#bfbfbf" points="1167.2412,-.5 1167.2412,-18.5 1207.6943,-18.5 1207.6943,-.5 1167.2412,-.5"/>
<text text-anchor="middle" x="1187.4678" y="-6.5" font-family="Helvetica,sans-Serif" font-size="10.00" fill="#000000">string</text>
</a>
</g>
</g>
<!-- Node0&#45;&gt;Node5 -->
<g id="edge68" class="edge">
<title>Node0&#45;&gt;Node5</title>
<path fill="none" stroke="#191970" d="M1570.9303,-330.4278C1617.7288,-317.0563 1689.4678,-287.1558 1689.4678,-229.5 1689.4678,-229.5 1689.4678,-229.5 1689.4678,-119.5 1689.4678,-55.7966 1622.4394,-73.455 1561.4678,-55 1497.1913,-35.5447 1295.4011,-18.026 1218.0561,-11.8544"/>
<polygon fill="#191970" stroke="#191970" points="1218.2401,-8.3582 1207.9956,-11.0599 1217.689,-15.3364 1218.2401,-8.3582"/>
</g>
<!-- Node9 -->
<g id="node10" class="node">
<title>Node9</title>
<g id="a_node10"><a xlink:href="Ioss__DatabaseIO_8h.html" target="_top" xlink:title=" ">
<polygon fill="#ffffff" stroke="#000000" points="532.665,-275.5 532.665,-293.5 634.2705,-293.5 634.2705,-275.5 532.665,-275.5"/>
<text text-anchor="middle" x="583.4678" y="-281.5" font-family="Helvetica,sans-Serif" font-size="10.00" fill="#000000">Ioss_DatabaseIO.h</text>
</a>
</g>
</g>
<!-- Node0&#45;&gt;Node9 -->
<g id="edge9" class="edge">
<title>Node0&#45;&gt;Node9</title>
<path fill="none" stroke="#191970" d="M1473.9476,-336.1629C1305.9845,-326.4182 817.2288,-298.0621 644.6718,-288.0509"/>
<polygon fill="#191970" stroke="#191970" points="644.6838,-284.5458 634.4978,-287.4606 644.2783,-291.534 644.6838,-284.5458"/>
</g>
<!-- Node16 -->
<g id="node17" class="node">
<title>Node16</title>
<g id="a_node17"><a xlink:href="Ioss__ParallelUtils_8h.html" target="_top" xlink:title=" ">
<polygon fill="#ffffff" stroke="#000000" points="1123.9507,-220.5 1123.9507,-238.5 1224.9849,-238.5 1224.9849,-220.5 1123.9507,-220.5"/>
<text text-anchor="middle" x="1174.4678" y="-226.5" font-family="Helvetica,sans-Serif" font-size="10.00" fill="#000000">Ioss_ParallelUtils.h</text>
</a>
</g>
</g>
<!-- Node0&#45;&gt;Node16 -->
<g id="edge62" class="edge">
<title>Node0&#45;&gt;Node16</title>
<path fill="none" stroke="#191970" d="M1502.253,-330.4982C1438.2367,-310.7733 1285.5679,-263.7325 1213.4582,-241.5139"/>
<polygon fill="#191970" stroke="#191970" points="1214.4227,-238.1487 1203.8355,-238.5489 1212.3615,-244.8384 1214.4227,-238.1487"/>
</g>
<!-- Node17 -->
<g id="node18" class="node">
<title>Node17</title>
<g id="a_node18"><a xlink:href="Ioss__Utils_8h.html" target="_top" xlink:title=" ">
<polygon fill="#ffffff" stroke="#000000" points="1216.6255,-165.5 1216.6255,-183.5 1284.3101,-183.5 1284.3101,-165.5 1216.6255,-165.5"/>
<text text-anchor="middle" x="1250.4678" y="-171.5" font-family="Helvetica,sans-Serif" font-size="10.00" fill="#000000">Ioss_Utils.h</text>
</a>
</g>
</g>
<!-- Node0&#45;&gt;Node17 -->
<g id="edge65" class="edge">
<title>Node0&#45;&gt;Node17</title>
<path fill="none" stroke="#191970" d="M1515.9597,-330.3939C1469.5177,-303.1236 1331.2903,-221.958 1274.8657,-188.8262"/>
<polygon fill="#191970" stroke="#191970" points="1276.3234,-185.6234 1265.9279,-183.578 1272.7789,-191.6597 1276.3234,-185.6234"/>
</g>
<!-- Node31 -->
<g id="node32" class="node">
<title>Node31</title>
<g id="a_node32"><a xlink:href="Ioss__SerializeIO_8h.html" target="_top" xlink:title=" ">
<polygon fill="#ffffff" stroke="#000000" points="972.894,-165.5 972.894,-183.5 1070.0415,-183.5 1070.0415,-165.5 972.894,-165.5"/>
<text text-anchor="middle" x="1021.4678" y="-171.5" font-family="Helvetica,sans-Serif" font-size="10.00" fill="#000000">Ioss_SerializeIO.h</text>
</a>
</g>
</g>
<!-- Node0&#45;&gt;Node31 -->
<g id="edge63" class="edge">
<title>Node0&#45;&gt;Node31</title>
<path fill="none" stroke="#191970" d="M1473.8854,-332.741C1391.264,-321.4882 1235.6889,-294.4441 1114.4678,-239 1086.3666,-226.1471 1057.6945,-204.7442 1039.758,-190.1468"/>
<polygon fill="#191970" stroke="#191970" points="1041.7948,-187.2887 1031.8648,-183.5947 1037.3238,-192.6749 1041.7948,-187.2887"/>
</g>
<!-- Node32 -->
<g id="node33" class="node">
<title>Node32</title>
<g id="a_node33"><a xlink:title=" ">
<polygon fill="#ffffff" stroke="#bfbfbf" points="1717.9038,-275.5 1717.9038,-293.5 1795.0317,-293.5 1795.0317,-275.5 1717.9038,-275.5"/>
<text text-anchor="middle" x="1756.4678" y="-281.5" font-family="Helvetica,sans-Serif" font-size="10.00" fill="#000000">fmt/ostream.h</text>
</a>
</g>
</g>
<!-- Node0&#45;&gt;Node32 -->
<g id="edge66" class="edge">
<title>Node0&#45;&gt;Node32</title>
<path fill="none" stroke="#191970" d="M1568.37,-330.4795C1606.9537,-321.0479 1667.6181,-306.2188 1709.5722,-295.9634"/>
<polygon fill="#191970" stroke="#191970" points="1710.6625,-299.3 1719.5454,-293.5255 1709.0003,-292.5002 1710.6625,-299.3"/>
</g>
<!-- Node33 -->
<g id="node34" class="node">
<title>Node33</title>
<g id="a_node34"><a xlink:title=" ">
<polygon fill="#ffffff" stroke="#bfbfbf" points="1813.4063,-275.5 1813.4063,-293.5 1865.5293,-293.5 1865.5293,-275.5 1813.4063,-275.5"/>
<text text-anchor="middle" x="1839.4678" y="-281.5" font-family="Helvetica,sans-Serif" font-size="10.00" fill="#000000">ostream</text>
</a>
</g>
</g>
<!-- Node0&#45;&gt;Node33 -->
<g id="edge67" class="edge">
<title>Node0&#45;&gt;Node33</title>
<path fill="none" stroke="#191970" d="M1589.0424,-331.6114C1642.2377,-323.9378 1723.6365,-311.2239 1802.995,-294.1559"/>
<polygon fill="#191970" stroke="#191970" points="1804.1374,-297.4893 1813.1639,-291.9421 1802.6483,-290.6495 1804.1374,-297.4893"/>
</g>
<!-- Node2 -->
<g id="node3" class="node">
<title>Node2</title>
<g id="a_node3"><a xlink:title=" ">
<polygon fill="#ffffff" stroke="#bfbfbf" points="812.0762,-.5 812.0762,-18.5 850.8594,-18.5 850.8594,-.5 812.0762,-.5"/>
<text text-anchor="middle" x="831.4678" y="-6.5" font-family="Helvetica,sans-Serif" font-size="10.00" fill="#000000">array</text>
</a>
</g>
</g>
<!-- Node1&#45;&gt;Node2 -->
<g id="edge2" class="edge">
<title>Node1&#45;&gt;Node2</title>
<path fill="none" stroke="#191970" d="M882.3949,-55.4179C873.4423,-47.3458 860.144,-35.3556 849.3815,-25.6517"/>
<polygon fill="#191970" stroke="#191970" points="851.5302,-22.8764 841.7595,-18.7795 846.8427,-28.0753 851.5302,-22.8764"/>
</g>
<!-- Node3 -->
<g id="node4" class="node">
<title>Node3</title>
<g id="a_node4"><a xlink:title=" ">
<polygon fill="#ffffff" stroke="#bfbfbf" points="1002.3472,-.5 1002.3472,-18.5 1050.5884,-18.5 1050.5884,-.5 1002.3472,-.5"/>
<text text-anchor="middle" x="1026.4678" y="-6.5" font-family="Helvetica,sans-Serif" font-size="10.00" fill="#000000">cstddef</text>
</a>
</g>
</g>
<!-- Node1&#45;&gt;Node3 -->
<g id="edge3" class="edge">
<title>Node1&#45;&gt;Node3</title>
<path fill="none" stroke="#191970" d="M914.5951,-55.4179C936.5137,-46.4215 970.29,-32.5581 994.9969,-22.4172"/>
<polygon fill="#191970" stroke="#191970" points="996.3855,-25.6306 1004.3075,-18.5956 993.7275,-19.1549 996.3855,-25.6306"/>
</g>
<!-- Node4 -->
<g id="node5" class="node">
<title>Node4</title>
<g id="a_node5"><a xlink:title=" ">
<polygon fill="#ffffff" stroke="#bfbfbf" points="319.0171,-.5 319.0171,-18.5 363.9185,-18.5 363.9185,-.5 319.0171,-.5"/>
<text text-anchor="middle" x="341.4678" y="-6.5" font-family="Helvetica,sans-Serif" font-size="10.00" fill="#000000">cstdint</text>
</a>
</g>
</g>
<!-- Node1&#45;&gt;Node4 -->
<g id="edge4" class="edge">
<title>Node1&#45;&gt;Node4</title>
<path fill="none" stroke="#191970" d="M842.8273,-56.1336C840.002,-55.7309 837.2005,-55.3495 834.4678,-55 744.7782,-43.5303 469.5256,-20.1814 374.2956,-12.2258"/>
<polygon fill="#191970" stroke="#191970" points="374.3647,-8.7195 364.1084,-11.3761 373.7828,-15.6953 374.3647,-8.7195"/>
</g>
<!-- Node1&#45;&gt;Node5 -->
<g id="edge5" class="edge">
<title>Node1&#45;&gt;Node5</title>
<path fill="none" stroke="#191970" d="M940.8507,-55.4795C1002.0448,-44.0704 1105.6018,-24.7632 1156.8536,-15.2077"/>
<polygon fill="#191970" stroke="#191970" points="1157.7732,-18.5967 1166.9623,-13.3231 1156.4901,-11.7153 1157.7732,-18.5967"/>
</g>
<!-- Node6 -->
<g id="node7" class="node">
<title>Node6</title>
<g id="a_node7"><a xlink:title=" ">
<polygon fill="#ffffff" stroke="#bfbfbf" points="471.8521,-.5 471.8521,-18.5 515.0835,-18.5 515.0835,-.5 471.8521,-.5"/>
<text text-anchor="middle" x="493.4678" y="-6.5" font-family="Helvetica,sans-Serif" font-size="10.00" fill="#000000">vector</text>
</a>
</g>
</g>
<!-- Node1&#45;&gt;Node6 -->
<g id="edge6" class="edge">
<title>Node1&#45;&gt;Node6</title>
<path fill="none" stroke="#191970" d="M842.8089,-56.2667C839.9883,-55.83 837.1928,-55.4049 834.4678,-55 721.0545,-38.1492 585.9779,-20.9844 525.506,-13.4525"/>
<polygon fill="#191970" stroke="#191970" points="525.7965,-9.9618 515.4412,-12.2022 524.9334,-16.9084 525.7965,-9.9618"/>
</g>
<!-- Node7 -->
<g id="node8" class="node">
<title>Node7</title>
<g id="a_node8"><a xlink:title=" ">
<polygon fill="#ffffff" stroke="#bfbfbf" points="868.7192,-.5 868.7192,-18.5 984.2163,-18.5 984.2163,-.5 868.7192,-.5"/>
<text text-anchor="middle" x="926.4678" y="-6.5" font-family="Helvetica,sans-Serif" font-size="10.00" fill="#000000">SEACASIoss_config.h</text>
</a>
</g>
</g>
<!-- Node1&#45;&gt;Node7 -->
<g id="edge7" class="edge">
<title>Node1&#45;&gt;Node7</title>
<path fill="none" stroke="#191970" d="M898.0822,-55.4179C902.7786,-47.8207 909.6207,-36.7527 915.4106,-27.3866"/>
<polygon fill="#191970" stroke="#191970" points="918.4502,-29.1258 920.7314,-18.7795 912.496,-25.445 918.4502,-29.1258"/>
</g>
<!-- Node8 -->
<g id="node9" class="node">
<title>Node8</title>
<g id="a_node9"><a xlink:title=" ">
<polygon fill="#ffffff" stroke="#bfbfbf" points="740.8496,-.5 740.8496,-18.5 794.0859,-18.5 794.0859,-.5 740.8496,-.5"/>
<text text-anchor="middle" x="767.4678" y="-6.5" font-family="Helvetica,sans-Serif" font-size="10.00" fill="#000000">complex</text>
</a>
</g>
</g>
<!-- Node1&#45;&gt;Node8 -->
<g id="edge8" class="edge">
<title>Node1&#45;&gt;Node8</title>
<path fill="none" stroke="#191970" d="M871.8266,-55.4179C851.5611,-46.5011 820.4292,-32.803 797.4388,-22.6873"/>
<polygon fill="#191970" stroke="#191970" points="798.7024,-19.4195 788.1396,-18.5956 795.8832,-25.8267 798.7024,-19.4195"/>
</g>
<!-- Node9&#45;&gt;Node1 -->
<g id="edge11" class="edge">
<title>Node9&#45;&gt;Node1</title>
<path fill="none" stroke="#191970" d="M593.4849,-275.3507C607.7373,-262.4851 634.8728,-238.5468 659.4678,-220 733.4463,-164.2135 826.3626,-105.336 869.0547,-78.8665"/>
<polygon fill="#191970" stroke="#191970" points="870.947,-81.8116 877.6139,-73.5773 867.2671,-75.8568 870.947,-81.8116"/>
</g>
<!-- Node9&#45;&gt;Node3 -->
<g id="edge56" class="edge">
<title>Node9&#45;&gt;Node3</title>
<path fill="none" stroke="#191970" d="M634.277,-282.6844C740.1102,-278.3789 976.3997,-265.8371 1000.4678,-239 1006.1058,-232.7134 1003.7527,-227.7793 1000.4678,-220 991.5426,-198.8633 972.393,-205.1367 963.4678,-184 960.1829,-176.2207 961.8525,-173.2885 963.4678,-165 973.6403,-112.8006 1001.3477,-55.9632 1016.4041,-27.6545"/>
<polygon fill="#191970" stroke="#191970" points="1019.6358,-29.0369 1021.3229,-18.5772 1013.4813,-25.7018 1019.6358,-29.0369"/>
</g>
<!-- Node9&#45;&gt;Node4 -->
<g id="edge57" class="edge">
<title>Node9&#45;&gt;Node4</title>
<path fill="none" stroke="#191970" d="M532.3331,-283.6118C436.6874,-281.1755 234.9213,-272.1467 174.4678,-239 142.1801,-221.2966 122.4678,-211.3226 122.4678,-174.5 122.4678,-174.5 122.4678,-174.5 122.4678,-119.5 122.4678,-37.218 247.4437,-16.4784 308.5757,-11.2555"/>
<polygon fill="#191970" stroke="#191970" points="309.1505,-14.7219 318.8558,-10.4726 308.6188,-7.7421 309.1505,-14.7219"/>
</g>
<!-- Node9&#45;&gt;Node5 -->
<g id="edge59" class="edge">
<title>Node9&#45;&gt;Node5</title>
<path fill="none" stroke="#191970" d="M634.3584,-283.3026C744.3536,-280.198 1012.2722,-269.8516 1234.4678,-239 1352.7505,-222.5766 1386.0358,-226.9354 1497.4678,-184 1542.6346,-166.5969 1567.3876,-170.9888 1591.4678,-129 1616.2612,-85.7677 1545.8466,-63.2399 1527.4678,-55 1472.4192,-30.3195 1291.5527,-16.2059 1218.4922,-11.3917"/>
<polygon fill="#191970" stroke="#191970" points="1218.3289,-7.874 1208.1245,-10.7237 1217.8787,-14.8596 1218.3289,-7.874"/>
</g>
<!-- Node9&#45;&gt;Node6 -->
<g id="edge61" class="edge">
<title>Node9&#45;&gt;Node6</title>
<path fill="none" stroke="#191970" d="M532.5147,-283.6049C441.9671,-281.1735 257.4601,-272.1759 203.4678,-239 174.1134,-220.963 160.4678,-208.953 160.4678,-174.5 160.4678,-174.5 160.4678,-174.5 160.4678,-119.5 160.4678,-73.1322 200.1852,-74.0304 242.4678,-55 281.2466,-37.5466 403.0994,-20.6734 461.5611,-13.3323"/>
<polygon fill="#191970" stroke="#191970" points="462.2119,-16.7785 471.7051,-12.0745 461.3504,-9.8317 462.2119,-16.7785"/>
</g>
<!-- Node10 -->
<g id="node11" class="node">
<title>Node10</title>
<g id="a_node11"><a xlink:href="Ioss__BoundingBox_8h.html" target="_top" xlink:title=" ">
<polygon fill="#ffffff" stroke="#000000" points="668.6011,-220.5 668.6011,-238.5 776.3345,-238.5 776.3345,-220.5 668.6011,-220.5"/>
<text text-anchor="middle" x="722.4678" y="-226.5" font-family="Helvetica,sans-Serif" font-size="10.00" fill="#000000">Ioss_BoundingBox.h</text>
</a>
</g>
</g>
<!-- Node9&#45;&gt;Node10 -->
<g id="edge10" class="edge">
<title>Node9&#45;&gt;Node10</title>
<path fill="none" stroke="#191970" d="M606.4208,-275.4179C629.2578,-266.3817 664.5041,-252.4353 690.1622,-242.2828"/>
<polygon fill="#191970" stroke="#191970" points="691.4699,-245.5295 699.4807,-238.5956 688.8943,-239.0205 691.4699,-245.5295"/>
</g>
<!-- Node11 -->
<g id="node12" class="node">
<title>Node11</title>
<g id="a_node12"><a xlink:href="Ioss__DBUsage_8h.html" target="_top" xlink:title=" ">
<polygon fill="#ffffff" stroke="#000000" points="793.9482,-220.5 793.9482,-238.5 884.9873,-238.5 884.9873,-220.5 793.9482,-220.5"/>
<text text-anchor="middle" x="839.4678" y="-226.5" font-family="Helvetica,sans-Serif" font-size="10.00" fill="#000000">Ioss_DBUsage.h</text>
</a>
</g>
</g>
<!-- Node9&#45;&gt;Node11 -->
<g id="edge12" class="edge">
<title>Node9&#45;&gt;Node11</title>
<path fill="none" stroke="#191970" d="M625.4543,-275.4795C669.818,-265.9482 739.8386,-250.9047 787.6176,-240.6397"/>
<polygon fill="#191970" stroke="#191970" points="788.4166,-244.048 797.4583,-238.5255 786.9462,-237.2041 788.4166,-244.048"/>
</g>
<!-- Node12 -->
<g id="node13" class="node">
<title>Node12</title>
<g id="a_node13"><a xlink:href="Ioss__DataSize_8h.html" target="_top" xlink:title=" ">
<polygon fill="#ffffff" stroke="#000000" points="903.0591,-220.5 903.0591,-238.5 991.8765,-238.5 991.8765,-220.5 903.0591,-220.5"/>
<text text-anchor="middle" x="947.4678" y="-226.5" font-family="Helvetica,sans-Serif" font-size="10.00" fill="#000000">Ioss_DataSize.h</text>
</a>
</g>
</g>
<!-- Node9&#45;&gt;Node12 -->
<g id="edge13" class="edge">
<title>Node9&#45;&gt;Node12</title>
<path fill="none" stroke="#191970" d="M634.4525,-277.5523C694.0732,-269.3136 795.9912,-254.8768 892.9792,-239.2049"/>
<polygon fill="#191970" stroke="#191970" points="893.6425,-242.6431 902.9525,-237.586 892.5209,-235.7335 893.6425,-242.6431"/>
</g>
<!-- Node13 -->
<g id="node14" class="node">
<title>Node13</title>
<g id="a_node14"><a xlink:href="Ioss__EntityType_8h.html" target="_top" xlink:title=" ">
<polygon fill="#ffffff" stroke="#000000" points="0,-220.5 0,-238.5 94.9355,-238.5 94.9355,-220.5 0,-220.5"/>
<text text-anchor="middle" x="47.4678" y="-226.5" font-family="Helvetica,sans-Serif" font-size="10.00" fill="#000000">Ioss_EntityType.h</text>
</a>
</g>
</g>
<!-- Node9&#45;&gt;Node13 -->
<g id="edge14" class="edge">
<title>Node9&#45;&gt;Node13</title>
<path fill="none" stroke="#191970" d="M532.396,-280.6023C445.2666,-273.7305 262.3806,-258.3395 108.4678,-239 107.3778,-238.863 106.2772,-238.7218 105.1688,-238.5769"/>
<polygon fill="#191970" stroke="#191970" points="105.4321,-235.0803 95.049,-237.1878 104.4801,-242.0153 105.4321,-235.0803"/>
</g>
<!-- Node14 -->
<g id="node15" class="node">
<title>Node14</title>
<g id="a_node15"><a xlink:href="Ioss__Map_8h.html" target="_top" xlink:title=" ">
<polygon fill="#ffffff" stroke="#000000" points="359.6206,-110.5 359.6206,-128.5 427.3149,-128.5 427.3149,-110.5 359.6206,-110.5"/>
<text text-anchor="middle" x="393.4678" y="-116.5" font-family="Helvetica,sans-Serif" font-size="10.00" fill="#000000">Ioss_Map.h</text>
</a>
</g>
</g>
<!-- Node9&#45;&gt;Node14 -->
<g id="edge15" class="edge">
<title>Node9&#45;&gt;Node14</title>
<path fill="none" stroke="#191970" d="M579.6681,-275.3068C573.8187,-261.9608 561.5761,-236.965 545.4678,-220 508.79,-181.3715 454.6038,-150.08 421.808,-133.1851"/>
<polygon fill="#191970" stroke="#191970" points="423.262,-129.9984 412.7586,-128.6095 420.1034,-136.2453 423.262,-129.9984"/>
</g>
<!-- Node15 -->
<g id="node16" class="node">
<title>Node15</title>
<g id="a_node16"><a xlink:title=" ">
<polygon fill="#ffffff" stroke="#bfbfbf" points="251.0762,-55.5 251.0762,-73.5 289.8594,-73.5 289.8594,-55.5 251.0762,-55.5"/>
<text text-anchor="middle" x="270.4678" y="-61.5" font-family="Helvetica,sans-Serif" font-size="10.00" fill="#000000">utility</text>
</a>
</g>
</g>
<!-- Node9&#45;&gt;Node15 -->
<g id="edge60" class="edge">
<title>Node9&#45;&gt;Node15</title>
<path fill="none" stroke="#191970" d="M532.3408,-281.8392C436.5854,-276.3303 237.9748,-262.2143 217.4678,-239 176.6742,-192.8211 228.531,-116.0096 255.7481,-81.8253"/>
<polygon fill="#191970" stroke="#191970" points="258.745,-83.6897 262.3706,-73.7345 253.3282,-79.2559 258.745,-83.6897"/>
</g>
<!-- Node9&#45;&gt;Node16 -->
<g id="edge22" class="edge">
<title>Node9&#45;&gt;Node16</title>
<path fill="none" stroke="#191970" d="M634.3676,-279.7631C742.9468,-269.6585 996.8896,-246.0259 1113.7059,-235.1547"/>
<polygon fill="#191970" stroke="#191970" points="1114.2677,-238.6176 1123.9004,-234.2059 1113.619,-231.6477 1114.2677,-238.6176"/>
</g>
<!-- Node24 -->
<g id="node25" class="node">
<title>Node24</title>
<g id="a_node25"><a xlink:href="Ioss__PropertyManager_8h.html" target="_top" xlink:title=" ">
<polygon fill="#ffffff" stroke="#000000" points="539.9902,-110.5 539.9902,-128.5 664.9453,-128.5 664.9453,-110.5 539.9902,-110.5"/>
<text text-anchor="middle" x="602.4678" y="-116.5" font-family="Helvetica,sans-Serif" font-size="10.00" fill="#000000">Ioss_PropertyManager.h</text>
</a>
</g>
</g>
<!-- Node9&#45;&gt;Node24 -->
<g id="edge44" class="edge">
<title>Node9&#45;&gt;Node24</title>
<path fill="none" stroke="#191970" d="M584.5437,-275.1561C587.5614,-248.9504 596.1511,-174.3557 600.2451,-138.8021"/>
<polygon fill="#191970" stroke="#191970" points="603.7366,-139.0762 601.4036,-128.7414 596.7825,-138.2753 603.7366,-139.0762"/>
</g>
<!-- Node27 -->
<g id="node28" class="node">
<title>Node27</title>
<g id="a_node28"><a xlink:href="Ioss__State_8h.html" target="_top" xlink:title=" ">
<polygon fill="#ffffff" stroke="#000000" points="226.6724,-220.5 226.6724,-238.5 298.2632,-238.5 298.2632,-220.5 226.6724,-220.5"/>
<text text-anchor="middle" x="262.4678" y="-226.5" font-family="Helvetica,sans-Serif" font-size="10.00" fill="#000000">Ioss_State.h</text>
</a>
</g>
</g>
<!-- Node9&#45;&gt;Node27 -->
<g id="edge53" class="edge">
<title>Node9&#45;&gt;Node27</title>
<path fill="none" stroke="#191970" d="M532.479,-276.7927C479.1111,-268.5692 392.6414,-254.8053 308.3056,-239.0909"/>
<polygon fill="#191970" stroke="#191970" points="308.774,-235.6178 298.3003,-237.2153 307.4842,-242.4979 308.774,-235.6178"/>
</g>
<!-- Node28 -->
<g id="node29" class="node">
<title>Node28</title>
<g id="a_node29"><a xlink:href="Ioss__SurfaceSplit_8h.html" target="_top" xlink:title=" ">
<polygon fill="#ffffff" stroke="#000000" points="316.3892,-220.5 316.3892,-238.5 418.5464,-238.5 418.5464,-220.5 316.3892,-220.5"/>
<text text-anchor="middle" x="367.4678" y="-226.5" font-family="Helvetica,sans-Serif" font-size="10.00" fill="#000000">Ioss_SurfaceSplit.h</text>
</a>
</g>
</g>
<!-- Node9&#45;&gt;Node28 -->
<g id="edge54" class="edge">
<title>Node9&#45;&gt;Node28</title>
<path fill="none" stroke="#191970" d="M547.7998,-275.4179C510.7946,-265.9953 452.8215,-251.2336 412.6388,-241.0019"/>
<polygon fill="#191970" stroke="#191970" points="413.3842,-237.5801 402.8298,-238.5042 411.6569,-244.3636 413.3842,-237.5801"/>
</g>
<!-- Node29 -->
<g id="node30" class="node">
<title>Node29</title>
<g id="a_node30"><a xlink:title=" ">
<polygon fill="#ffffff" stroke="#bfbfbf" points="436.1797,-220.5 436.1797,-238.5 482.7559,-238.5 482.7559,-220.5 436.1797,-220.5"/>
<text text-anchor="middle" x="459.4678" y="-226.5" font-family="Helvetica,sans-Serif" font-size="10.00" fill="#000000">chrono</text>
</a>
</g>
</g>
<!-- Node9&#45;&gt;Node29 -->
<g id="edge55" class="edge">
<title>Node9&#45;&gt;Node29</title>
<path fill="none" stroke="#191970" d="M562.9917,-275.4179C542.8884,-266.5011 512.0056,-252.803 489.199,-242.6873"/>
<polygon fill="#191970" stroke="#191970" points="490.5345,-239.4508 479.9743,-238.5956 487.6963,-245.8496 490.5345,-239.4508"/>
</g>
<!-- Node30 -->
<g id="node31" class="node">
<title>Node30</title>
<g id="a_node31"><a xlink:title=" ">
<polygon fill="#ffffff" stroke="#bfbfbf" points="500.7412,-220.5 500.7412,-238.5 536.1943,-238.5 536.1943,-220.5 500.7412,-220.5"/>
<text text-anchor="middle" x="518.4678" y="-226.5" font-family="Helvetica,sans-Serif" font-size="10.00" fill="#000000">map</text>
</a>
</g>
</g>
<!-- Node9&#45;&gt;Node30 -->
<g id="edge58" class="edge">
<title>Node9&#45;&gt;Node30</title>
<path fill="none" stroke="#191970" d="M572.7343,-275.4179C563.1012,-267.2667 548.7461,-255.1201 537.2196,-245.3669"/>
<polygon fill="#191970" stroke="#191970" points="539.3291,-242.5671 529.4344,-238.7795 534.8075,-247.9108 539.3291,-242.5671"/>
</g>
<!-- Node14&#45;&gt;Node1 -->
<g id="edge16" class="edge">
<title>Node14&#45;&gt;Node1</title>
<path fill="none" stroke="#191970" d="M427.5776,-116.6778C500.1584,-110.5231 675.4683,-94.8637 832.5065,-74.1993"/>
<polygon fill="#191970" stroke="#191970" points="833.3697,-77.6156 842.8226,-72.831 832.4492,-70.6763 833.3697,-77.6156"/>
</g>
<!-- Node14&#45;&gt;Node3 -->
<g id="edge17" class="edge">
<title>Node14&#45;&gt;Node3</title>
<path fill="none" stroke="#191970" d="M410.7656,-110.3026C439.0729,-95.738 497.4569,-67.7171 550.4678,-55 739.3668,-9.684 797.2296,-53.0116 992.1006,-18.8994"/>
<polygon fill="#191970" stroke="#191970" points="992.865,-22.3182 1002.0884,-17.1048 991.627,-15.4285 992.865,-22.3182"/>
</g>
<!-- Node14&#45;&gt;Node4 -->
<g id="edge18" class="edge">
<title>Node14&#45;&gt;Node4</title>
<path fill="none" stroke="#191970" d="M387.1247,-110.3919C381.0536,-101.4157 371.894,-87.1707 365.4678,-74 358.2638,-59.2353 351.8748,-41.7237 347.5035,-28.6754"/>
<polygon fill="#191970" stroke="#191970" points="350.7532,-27.3507 344.3327,-18.9229 344.0962,-29.5151 350.7532,-27.3507"/>
</g>
<!-- Node14&#45;&gt;Node5 -->
<g id="edge19" class="edge">
<title>Node14&#45;&gt;Node5</title>
<path fill="none" stroke="#191970" d="M427.4038,-114.388C477.3428,-106.6837 573.4732,-91.1607 654.4678,-74 688.529,-66.7833 696.1648,-60.9628 730.4678,-55 813.041,-40.6466 1068.1925,-19.1826 1156.7869,-11.9666"/>
<polygon fill="#191970" stroke="#191970" points="1157.2945,-15.437 1166.9786,-11.1396 1156.7282,-8.46 1157.2945,-15.437"/>
</g>
<!-- Node14&#45;&gt;Node6 -->
<g id="edge21" class="edge">
<title>Node14&#45;&gt;Node6</title>
<path fill="none" stroke="#191970" d="M392.4188,-110.1845C391.4059,-96.686 391.4796,-71.5022 403.4678,-55 417.4646,-35.7328 441.9954,-24.0949 461.9147,-17.4183"/>
<polygon fill="#191970" stroke="#191970" points="463.0201,-20.7402 471.5429,-14.4463 460.9554,-14.0516 463.0201,-20.7402"/>
</g>
<!-- Node14&#45;&gt;Node15 -->
<g id="edge20" class="edge">
<title>Node14&#45;&gt;Node15</title>
<path fill="none" stroke="#191970" d="M373.1568,-110.4179C352.9768,-101.3943 321.8466,-87.4743 299.15,-77.3254"/>
<polygon fill="#191970" stroke="#191970" points="300.5534,-74.119 289.9957,-73.232 297.6959,-80.5092 300.5534,-74.119"/>
</g>
<!-- Node16&#45;&gt;Node1 -->
<g id="edge23" class="edge">
<title>Node16&#45;&gt;Node1</title>
<path fill="none" stroke="#191970" d="M1162.2236,-220.378C1144.4643,-207.3364 1110.3048,-182.9565 1079.4678,-165 1048.2064,-146.7964 1038.4454,-145.9138 1006.4678,-129 975.0202,-112.3666 939.4342,-91.9748 916.5124,-78.6301"/>
<polygon fill="#191970" stroke="#191970" points="918.2035,-75.5646 907.8031,-73.5439 914.6733,-81.6094 918.2035,-75.5646"/>
</g>
<!-- Node16&#45;&gt;Node3 -->
<g id="edge41" class="edge">
<title>Node16&#45;&gt;Node3</title>
<path fill="none" stroke="#191970" d="M1166.6438,-220.2974C1154.9592,-206.9396 1131.8143,-181.9294 1108.4678,-165 1080.4654,-144.6945 1058.9739,-157.565 1039.4678,-129 1018.8525,-98.8108 1020.363,-53.9843 1023.372,-28.6872"/>
<polygon fill="#191970" stroke="#191970" points="1026.8693,-28.9492 1024.7858,-18.5612 1019.9365,-27.9811 1026.8693,-28.9492"/>
</g>
<!-- Node16&#45;&gt;Node5 -->
<g id="edge42" class="edge">
<title>Node16&#45;&gt;Node5</title>
<path fill="none" stroke="#191970" d="M1225.2165,-224.2902C1322.4284,-213.1518 1529.0519,-183.4914 1571.4678,-129 1610.0956,-79.3752 1571.8745,-87.407 1486.4678,-55 1437.6394,-36.4724 1284.1556,-19.2652 1218.1454,-12.5136"/>
<polygon fill="#191970" stroke="#191970" points="1218.2687,-9.0083 1207.9674,-11.4848 1217.5647,-15.9728 1218.2687,-9.0083"/>
</g>
<!-- Node16&#45;&gt;Node6 -->
<g id="edge43" class="edge">
<title>Node16&#45;&gt;Node6</title>
<path fill="none" stroke="#191970" d="M1123.9106,-224.8032C977.3771,-210.7818 559.8191,-167.7905 512.4678,-129 483.3185,-105.1207 485.6899,-56.0357 489.721,-28.7911"/>
<polygon fill="#191970" stroke="#191970" points="493.2298,-29.0357 491.4631,-18.5892 486.3297,-27.8573 493.2298,-29.0357"/>
</g>
<!-- Node16&#45;&gt;Node17 -->
<g id="edge24" class="edge">
<title>Node16&#45;&gt;Node17</title>
<path fill="none" stroke="#191970" d="M1187.0176,-220.4179C1198.5689,-212.0584 1215.927,-199.4966 1229.5693,-189.6239"/>
<polygon fill="#191970" stroke="#191970" points="1231.85,-192.2938 1237.8993,-183.5956 1227.7461,-186.6229 1231.85,-192.2938"/>
</g>
<!-- Node20 -->
<g id="node21" class="node">
<title>Node20</title>
<g id="a_node21"><a xlink:title=" ">
<polygon fill="#ffffff" stroke="#bfbfbf" points="1048.3521,-110.5 1048.3521,-128.5 1096.5835,-128.5 1096.5835,-110.5 1048.3521,-110.5"/>
<text text-anchor="middle" x="1072.4678" y="-116.5" font-family="Helvetica,sans-Serif" font-size="10.00" fill="#000000">cassert</text>
</a>
</g>
</g>
<!-- Node16&#45;&gt;Node20 -->
<g id="edge40" class="edge">
<title>Node16&#45;&gt;Node20</title>
<path fill="none" stroke="#191970" d="M1173.039,-220.1723C1170.5541,-206.6588 1164.3139,-181.4563 1150.4678,-165 1138.6824,-150.9928 1121.4207,-140.2976 1106.1303,-132.807"/>
<polygon fill="#191970" stroke="#191970" points="1107.4771,-129.5738 1096.9312,-128.5563 1104.5408,-135.9282 1107.4771,-129.5738"/>
</g>
<!-- Node17&#45;&gt;Node1 -->
<g id="edge25" class="edge">
<title>Node17&#45;&gt;Node1</title>
<path fill="none" stroke="#191970" d="M1228.1606,-165.4833C1206.3931,-156.5748 1172.4203,-142.3785 1143.4678,-129 1126.3269,-121.0795 1123.2877,-116.2445 1105.4678,-110 1077.6419,-100.2492 1004.6743,-85.4935 951.8896,-75.449"/>
<polygon fill="#191970" stroke="#191970" points="952.4293,-71.9891 941.9528,-73.5683 951.1274,-78.867 952.4293,-71.9891"/>
</g>
<!-- Node17&#45;&gt;Node3 -->
<g id="edge33" class="edge">
<title>Node17&#45;&gt;Node3</title>
<path fill="none" stroke="#191970" d="M1250.0039,-165.0819C1248.868,-151.4557 1244.9531,-126.1144 1231.4678,-110 1186.5338,-56.3058 1106.0078,-28.8615 1060.4001,-17.0061"/>
<polygon fill="#191970" stroke="#191970" points="1061.2319,-13.6064 1050.6818,-14.5791 1059.5358,-20.3978 1061.2319,-13.6064"/>
</g>
<!-- Node17&#45;&gt;Node4 -->
<g id="edge34" class="edge">
<title>Node17&#45;&gt;Node4</title>
<path fill="none" stroke="#191970" d="M1216.4047,-172.5457C1181.8956,-170.5804 1126.9757,-167.4927 1079.4678,-165 917.4932,-156.5014 507.206,-170.7268 350.4678,-129 298.4149,-115.1425 270.6175,-119.9252 242.4678,-74 224.3198,-44.3922 273.4663,-25.7371 308.8417,-16.4964"/>
<polygon fill="#191970" stroke="#191970" points="309.9649,-19.8244 318.8372,-14.0336 308.2902,-13.0276 309.9649,-19.8244"/>
</g>
<!-- Node17&#45;&gt;Node5 -->
<g id="edge38" class="edge">
<title>Node17&#45;&gt;Node5</title>
<path fill="none" stroke="#191970" d="M1284.3311,-171.9322C1360.2547,-165.8319 1538.843,-149.4392 1556.4678,-129 1561.9823,-122.6048 1561.5947,-116.71 1556.4678,-110 1514.7061,-55.343 1298.8242,-23.3262 1218.0323,-13.1055"/>
<polygon fill="#191970" stroke="#191970" points="1218.3499,-9.6182 1207.9951,-11.8606 1217.4882,-16.565 1218.3499,-9.6182"/>
</g>
<!-- Node17&#45;&gt;Node6 -->
<g id="edge39" class="edge">
<title>Node17&#45;&gt;Node6</title>
<path fill="none" stroke="#191970" d="M1216.1508,-172.5881C1073.9825,-164.6354 538.3064,-134.341 531.4678,-129 500.6917,-104.9634 494.3878,-55.9415 493.3713,-28.7488"/>
<polygon fill="#191970" stroke="#191970" points="496.868,-28.5087 493.2035,-18.5678 489.8689,-28.6241 496.868,-28.5087"/>
</g>
<!-- Node18 -->
<g id="node19" class="node">
<title>Node18</title>
<g id="a_node19"><a xlink:href="Ioss__Field_8h.html" target="_top" xlink:title=" ">
<polygon fill="#ffffff" stroke="#000000" points="1152.5098,-110.5 1152.5098,-128.5 1222.4258,-128.5 1222.4258,-110.5 1152.5098,-110.5"/>
<text text-anchor="middle" x="1187.4678" y="-116.5" font-family="Helvetica,sans-Serif" font-size="10.00" fill="#000000">Ioss_Field.h</text>
</a>
</g>
</g>
<!-- Node17&#45;&gt;Node18 -->
<g id="edge26" class="edge">
<title>Node17&#45;&gt;Node18</title>
<path fill="none" stroke="#191970" d="M1240.0646,-165.4179C1230.7278,-157.2667 1216.8145,-145.1201 1205.6426,-135.3669"/>
<polygon fill="#191970" stroke="#191970" points="1207.932,-132.7194 1198.097,-128.7795 1203.3283,-137.9927 1207.932,-132.7194"/>
</g>
<!-- Node19 -->
<g id="node20" class="node">
<title>Node19</title>
<g id="a_node20"><a xlink:title=" ">
<polygon fill="#ffffff" stroke="#bfbfbf" points="1278.9038,-110.5 1278.9038,-128.5 1336.0317,-128.5 1336.0317,-110.5 1278.9038,-110.5"/>
<text text-anchor="middle" x="1307.4678" y="-116.5" font-family="Helvetica,sans-Serif" font-size="10.00" fill="#000000">algorithm</text>
</a>
</g>
</g>
<!-- Node17&#45;&gt;Node19 -->
<g id="edge31" class="edge">
<title>Node17&#45;&gt;Node19</title>
<path fill="none" stroke="#191970" d="M1259.8802,-165.4179C1268.1637,-157.425 1280.4287,-145.5903 1290.4323,-135.9377"/>
<polygon fill="#191970" stroke="#191970" points="1293.085,-138.2419 1297.8509,-128.7795 1288.2244,-133.2045 1293.085,-138.2419"/>
</g>
<!-- Node17&#45;&gt;Node20 -->
<g id="edge32" class="edge">
<title>Node17&#45;&gt;Node20</title>
<path fill="none" stroke="#191970" d="M1221.0747,-165.4179C1189.5753,-155.6849 1139.6398,-140.2554 1106.4689,-130.006"/>
<polygon fill="#191970" stroke="#191970" points="1107.3393,-126.6117 1096.7517,-127.0035 1105.2727,-133.2997 1107.3393,-126.6117"/>
</g>
<!-- Node21 -->
<g id="node22" class="node">
<title>Node21</title>
<g id="a_node22"><a xlink:title=" ">
<polygon fill="#ffffff" stroke="#bfbfbf" points="1354.2954,-110.5 1354.2954,-128.5 1398.6401,-128.5 1398.6401,-110.5 1354.2954,-110.5"/>
<text text-anchor="middle" x="1376.4678" y="-116.5" font-family="Helvetica,sans-Serif" font-size="10.00" fill="#000000">cstdlib</text>
</a>
</g>
</g>
<!-- Node17&#45;&gt;Node21 -->
<g id="edge35" class="edge">
<title>Node17&#45;&gt;Node21</title>
<path fill="none" stroke="#191970" d="M1271.2741,-165.4179C1291.7017,-156.5011 1323.0826,-142.803 1346.257,-132.6873"/>
<polygon fill="#191970" stroke="#191970" points="1347.8658,-135.804 1355.6305,-128.5956 1345.0654,-129.3885 1347.8658,-135.804"/>
</g>
<!-- Node22 -->
<g id="node23" class="node">
<title>Node22</title>
<g id="a_node23"><a xlink:title=" ">
<polygon fill="#ffffff" stroke="#bfbfbf" points="1416.2954,-110.5 1416.2954,-128.5 1470.6401,-128.5 1470.6401,-110.5 1416.2954,-110.5"/>
<text text-anchor="middle" x="1443.4678" y="-116.5" font-family="Helvetica,sans-Serif" font-size="10.00" fill="#000000">iostream</text>
</a>
</g>
</g>
<!-- Node17&#45;&gt;Node22 -->
<g id="edge36" class="edge">
<title>Node17&#45;&gt;Node22</title>
<path fill="none" stroke="#191970" d="M1282.3378,-165.4179C1316.4925,-155.6847 1370.6379,-140.2546 1406.604,-130.0052"/>
<polygon fill="#191970" stroke="#191970" points="1407.5766,-133.3675 1416.2345,-127.2608 1405.6581,-126.6355 1407.5766,-133.3675"/>
</g>
<!-- Node23 -->
<g id="node24" class="node">
<title>Node23</title>
<g id="a_node24"><a xlink:title=" ">
<polygon fill="#ffffff" stroke="#bfbfbf" points="1489.0664,-110.5 1489.0664,-128.5 1547.8691,-128.5 1547.8691,-110.5 1489.0664,-110.5"/>
<text text-anchor="middle" x="1518.4678" y="-116.5" font-family="Helvetica,sans-Serif" font-size="10.00" fill="#000000">stdexcept</text>
</a>
</g>
</g>
<!-- Node17&#45;&gt;Node23 -->
<g id="edge37" class="edge">
<title>Node17&#45;&gt;Node23</title>
<path fill="none" stroke="#191970" d="M1284.3192,-168.2433C1327.1678,-160.221 1403.4825,-145.5926 1478.5828,-129.1222"/>
<polygon fill="#191970" stroke="#191970" points="1479.6766,-132.4651 1488.6878,-126.893 1478.1686,-125.6295 1479.6766,-132.4651"/>
</g>
<!-- Node18&#45;&gt;Node1 -->
<g id="edge27" class="edge">
<title>Node18&#45;&gt;Node1</title>
<path fill="none" stroke="#191970" d="M1152.411,-112.6653C1147.7244,-111.7627 1142.9802,-110.8547 1138.4678,-110 1074.7898,-97.9385 1001.7653,-84.4789 951.9255,-75.3492"/>
<polygon fill="#191970" stroke="#191970" points="952.4321,-71.8838 941.9653,-73.5258 951.1715,-78.7694 952.4321,-71.8838"/>
</g>
<!-- Node18&#45;&gt;Node3 -->
<g id="edge28" class="edge">
<title>Node18&#45;&gt;Node3</title>
<path fill="none" stroke="#191970" d="M1174.2925,-110.4982C1146.5786,-91.5633 1082.0224,-47.4566 1048.1288,-24.2994"/>
<polygon fill="#191970" stroke="#191970" points="1050.0565,-21.3776 1039.8251,-18.6261 1046.1075,-27.1574 1050.0565,-21.3776"/>
</g>
<!-- Node18&#45;&gt;Node5 -->
<g id="edge29" class="edge">
<title>Node18&#45;&gt;Node5</title>
<path fill="none" stroke="#191970" d="M1187.4678,-110.4982C1187.4678,-92.6913 1187.4678,-52.6225 1187.4678,-28.6515"/>
<polygon fill="#191970" stroke="#191970" points="1190.9679,-28.6261 1187.4678,-18.6261 1183.9679,-28.6262 1190.9679,-28.6261"/>
</g>
<!-- Node18&#45;&gt;Node6 -->
<g id="edge30" class="edge">
<title>Node18&#45;&gt;Node6</title>
<path fill="none" stroke="#191970" d="M1160.0821,-110.4425C1116.3045,-96.3297 1027.6271,-69.2381 950.4678,-55 792.7804,-25.9022 600.8126,-14.442 525.74,-10.8652"/>
<polygon fill="#191970" stroke="#191970" points="525.6808,-7.3588 515.53,-10.3935 525.3577,-14.3514 525.6808,-7.3588"/>
</g>
<!-- Node24&#45;&gt;Node1 -->
<g id="edge45" class="edge">
<title>Node24&#45;&gt;Node1</title>
<path fill="none" stroke="#191970" d="M650.0306,-110.4795C700.6018,-100.8884 780.6035,-85.7156 834.7474,-75.447"/>
<polygon fill="#191970" stroke="#191970" points="835.7063,-78.8276 844.8789,-73.5255 834.4019,-71.9502 835.7063,-78.8276"/>
</g>
<!-- Node24&#45;&gt;Node3 -->
<g id="edge49" class="edge">
<title>Node24&#45;&gt;Node3</title>
<path fill="none" stroke="#191970" d="M616.7718,-110.2893C639.7487,-95.9664 686.745,-68.5923 730.4678,-55 840.0477,-20.9345 876.0688,-42.1461 992.0811,-19.0106"/>
<polygon fill="#191970" stroke="#191970" points="992.9719,-22.4006 1002.0583,-16.952 991.5573,-15.545 992.9719,-22.4006"/>
</g>
<!-- Node24&#45;&gt;Node5 -->
<g id="edge50" class="edge">
<title>Node24&#45;&gt;Node5</title>
<path fill="none" stroke="#191970" d="M665.1211,-113.8934C735.1176,-107.0316 851.5947,-93.8227 950.4678,-74 1025.9122,-58.8744 1112.7494,-33.0263 1157.4358,-19.0862"/>
<polygon fill="#191970" stroke="#191970" points="1158.5936,-22.3912 1167.0857,-16.0561 1156.4964,-15.7127 1158.5936,-22.3912"/>
</g>
<!-- Node24&#45;&gt;Node6 -->
<g id="edge52" class="edge">
<title>Node24&#45;&gt;Node6</title>
<path fill="none" stroke="#191970" d="M591.3475,-110.4791C580.5618,-101.5676 563.9028,-87.3691 550.4678,-74 535.0005,-58.6086 518.6339,-39.7914 507.4258,-26.4635"/>
<polygon fill="#191970" stroke="#191970" points="509.9561,-24.0327 500.8666,-18.5891 504.5776,-28.5128 509.9561,-24.0327"/>
</g>
<!-- Node25 -->
<g id="node26" class="node">
<title>Node25</title>
<g id="a_node26"><a xlink:href="Ioss__Property_8h.html" target="_top" xlink:title=" ">
<polygon fill="#ffffff" stroke="#000000" points="739.8193,-55.5 739.8193,-73.5 825.1162,-73.5 825.1162,-55.5 739.8193,-55.5"/>
<text text-anchor="middle" x="782.4678" y="-61.5" font-family="Helvetica,sans-Serif" font-size="10.00" fill="#000000">Ioss_Property.h</text>
</a>
</g>
</g>
<!-- Node24&#45;&gt;Node25 -->
<g id="edge46" class="edge">
<title>Node24&#45;&gt;Node25</title>
<path fill="none" stroke="#191970" d="M632.1911,-110.4179C662.506,-101.155 709.707,-86.7325 743.11,-76.526"/>
<polygon fill="#191970" stroke="#191970" points="744.4587,-79.7737 752.9994,-73.5042 742.4131,-73.0792 744.4587,-79.7737"/>
</g>
<!-- Node26 -->
<g id="node27" class="node">
<title>Node26</title>
<g id="a_node27"><a xlink:title=" ">
<polygon fill="#ffffff" stroke="#bfbfbf" points="559.165,-55.5 559.165,-73.5 645.7705,-73.5 645.7705,-55.5 559.165,-55.5"/>
<text text-anchor="middle" x="602.4678" y="-61.5" font-family="Helvetica,sans-Serif" font-size="10.00" fill="#000000">unordered_map</text>
</a>
</g>
</g>
<!-- Node24&#45;&gt;Node26 -->
<g id="edge51" class="edge">
<title>Node24&#45;&gt;Node26</title>
<path fill="none" stroke="#191970" d="M602.4678,-110.4179C602.4678,-103.2164 602.4678,-92.8962 602.4678,-83.8632"/>
<polygon fill="#191970" stroke="#191970" points="605.9679,-83.7794 602.4678,-73.7795 598.9679,-83.7795 605.9679,-83.7794"/>
</g>
<!-- Node25&#45;&gt;Node4 -->
<g id="edge47" class="edge">
<title>Node25&#45;&gt;Node4</title>
<path fill="none" stroke="#191970" d="M739.7821,-59.1764C652.0409,-48.2336 453.0737,-23.4191 374.3848,-13.6053"/>
<polygon fill="#191970" stroke="#191970" points="374.4601,-10.0877 364.1038,-12.3231 373.5937,-17.0338 374.4601,-10.0877"/>
</g>
<!-- Node25&#45;&gt;Node5 -->
<g id="edge48" class="edge">
<title>Node25&#45;&gt;Node5</title>
<path fill="none" stroke="#191970" d="M825.2863,-56.4934C828.3903,-55.9695 831.4753,-55.4659 834.4678,-55 953.4076,-36.483 1095.7363,-19.8004 1156.9865,-12.8827"/>
<polygon fill="#191970" stroke="#191970" points="1157.5731,-16.3389 1167.1196,-11.7439 1156.7913,-9.3827 1157.5731,-16.3389"/>
</g>
<!-- Node31&#45;&gt;Node1 -->
<g id="edge64" class="edge">
<title>Node31&#45;&gt;Node1</title>
<path fill="none" stroke="#191970" d="M1010.9112,-165.4982C988.9891,-146.805 938.2963,-103.5786 910.8754,-80.1964"/>
<polygon fill="#191970" stroke="#191970" points="913.0504,-77.4514 903.1703,-73.6261 908.5085,-82.7779 913.0504,-77.4514"/>
</g>
</g>
</svg>
