<?xml version="1.0" encoding="UTF-8" standalone="no"?>
<!DOCTYPE svg PUBLIC "-//W3C//DTD SVG 1.1//EN"
 "http://www.w3.org/Graphics/SVG/1.1/DTD/svg11.dtd">
<!-- Generated by graphviz version 2.43.0 (0)
 -->
<!-- Title: src/Ioss_Tri13.h Pages: 1 -->
<svg width="248pt" height="147pt"
 viewBox="0.00 0.00 247.85 147.00" xmlns="http://www.w3.org/2000/svg" xmlns:xlink="http://www.w3.org/1999/xlink">
<g id="graph0" class="graph" transform="scale(1 1) rotate(0) translate(4 143)">
<title>src/Ioss_Tri13.h</title>
<polygon fill="white" stroke="transparent" points="-4,4 -4,-143 243.85,-143 243.85,4 -4,4"/>
<!-- Node1 -->
<g id="node1" class="node">
<title>Node1</title>
<g id="a_node1"><a xlink:title=" ">
<polygon fill="#bfbfbf" stroke="black" points="87.26,-120.5 87.26,-138.5 174.02,-138.5 174.02,-120.5 87.26,-120.5"/>
<text text-anchor="middle" x="130.64" y="-126.5" font-family="Helvetica,sans-Serif" font-size="10.00">src/Ioss_Tri13.h</text>
</a>
</g>
</g>
<!-- Node2 -->
<g id="node2" class="node">
<title>Node2</title>
<g id="a_node2"><a xlink:href="Ioss__StandardElementTypes_8h.html" target="_top" xlink:title=" ">
<polygon fill="white" stroke="black" points="0,-55.5 0,-83.5 133.28,-83.5 133.28,-55.5 0,-55.5"/>
<text text-anchor="start" x="8" y="-71.5" font-family="Helvetica,sans-Serif" font-size="10.00">src/Ioss_StandardElement</text>
<text text-anchor="middle" x="66.64" y="-61.5" font-family="Helvetica,sans-Serif" font-size="10.00">Types.h</text>
</a>
</g>
</g>
<!-- Node1&#45;&gt;Node2 -->
<g id="edge1" class="edge">
<title>Node1&#45;&gt;Node2</title>
<path fill="none" stroke="midnightblue" d="M114.31,-113.7C104.15,-104.5 91.2,-92.76 81.36,-83.84"/>
<polygon fill="midnightblue" stroke="midnightblue" points="111.98,-116.31 121.74,-120.44 116.68,-111.13 111.98,-116.31"/>
</g>
<!-- Node4 -->
<g id="node4" class="node">
<title>Node4</title>
<g id="a_node4"><a xlink:href="Ioss__Tri13_8C.html" target="_top" xlink:title=" ">
<polygon fill="white" stroke="black" points="151.43,-60.5 151.43,-78.5 239.85,-78.5 239.85,-60.5 151.43,-60.5"/>
<text text-anchor="middle" x="195.64" y="-66.5" font-family="Helvetica,sans-Serif" font-size="10.00">src/Ioss_Tri13.C</text>
</a>
</g>
</g>
<!-- Node1&#45;&gt;Node4 -->
<g id="edge3" class="edge">
<title>Node1&#45;&gt;Node4</title>
<path fill="none" stroke="midnightblue" d="M147.47,-113.48C159.82,-102.46 176.14,-87.9 186.26,-78.87"/>
<polygon fill="midnightblue" stroke="midnightblue" points="144.81,-111.17 139.68,-120.44 149.47,-116.39 144.81,-111.17"/>
</g>
<!-- Node3 -->
<g id="node3" class="node">
<title>Node3</title>
<g id="a_node3"><a xlink:href="Ioss__Initializer_8C.html" target="_top" xlink:title=" ">
<polygon fill="white" stroke="black" points="14.18,-0.5 14.18,-18.5 119.1,-18.5 119.1,-0.5 14.18,-0.5"/>
<text text-anchor="middle" x="66.64" y="-6.5" font-family="Helvetica,sans-Serif" font-size="10.00">src/Ioss_Initializer.C</text>
</a>
</g>
</g>
<!-- Node2&#45;&gt;Node3 -->
<g id="edge2" class="edge">
<title>Node2&#45;&gt;Node3</title>
<path fill="none" stroke="midnightblue" d="M66.64,-45.32C66.64,-35.94 66.64,-25.7 66.64,-18.77"/>
<polygon fill="midnightblue" stroke="midnightblue" points="63.14,-45.34 66.64,-55.34 70.14,-45.34 63.14,-45.34"/>
</g>
</g>
</svg>
