<?xml version="1.0" encoding="UTF-8" standalone="no"?>
<!DOCTYPE svg PUBLIC "-//W3C//DTD SVG 1.1//EN"
 "http://www.w3.org/Graphics/SVG/1.1/DTD/svg11.dtd">
<!-- Generated by graphviz version 2.42.3 (20191010.1750)
 -->
<!-- Title: src/Ioss_FileInfo.h Pages: 1 -->
<svg width="2752pt" height="92pt"
 viewBox="0.00 0.00 2752.44 92.00" xmlns="http://www.w3.org/2000/svg" xmlns:xlink="http://www.w3.org/1999/xlink">
<g id="graph0" class="graph" transform="scale(1 1) rotate(0) translate(4 88)">
<title>src/Ioss_FileInfo.h</title>
<polygon fill="white" stroke="transparent" points="-4,4 -4,-88 2748.44,-88 2748.44,4 -4,4"/>
<!-- Node1 -->
<g id="node1" class="node">
<title>Node1</title>
<g id="a_node1"><a xlink:title=" ">
<polygon fill="#bfbfbf" stroke="black" points="1387.02,-65.5 1387.02,-83.5 1484.16,-83.5 1484.16,-65.5 1387.02,-65.5"/>
<text text-anchor="middle" x="1435.59" y="-71.5" font-family="Helvetica,sans-Serif" font-size="10.00">src/Ioss_FileInfo.h</text>
</a>
</g>
</g>
<!-- Node2 -->
<g id="node2" class="node">
<title>Node2</title>
<g id="a_node2"><a xlink:href="Ioad__DatabaseIO_8C.html" target="_top" xlink:title=" ">
<polygon fill="white" stroke="black" points="0,-5.5 0,-23.5 147.18,-23.5 147.18,-5.5 0,-5.5"/>
<text text-anchor="middle" x="73.59" y="-11.5" font-family="Helvetica,sans-Serif" font-size="10.00">src/adios/Ioad_DatabaseIO.C</text>
</a>
</g>
</g>
<!-- Node1&#45;&gt;Node2 -->
<g id="edge1" class="edge">
<title>Node1&#45;&gt;Node2</title>
<path fill="none" stroke="midnightblue" d="M1376.8,-74.09C1194.91,-75.36 625.38,-75.09 156.59,-29 143.51,-27.71 129.37,-25.66 116.53,-23.55"/>
<polygon fill="midnightblue" stroke="midnightblue" points="1376.97,-77.59 1386.95,-74.02 1376.92,-70.59 1376.97,-77.59"/>
</g>
<!-- Node3 -->
<g id="node3" class="node">
<title>Node3</title>
<g id="a_node3"><a xlink:href="Iocgns__DatabaseIO_8C.html" target="_top" xlink:title=" ">
<polygon fill="white" stroke="black" points="165.39,-5.5 165.39,-23.5 319.79,-23.5 319.79,-5.5 165.39,-5.5"/>
<text text-anchor="middle" x="242.59" y="-11.5" font-family="Helvetica,sans-Serif" font-size="10.00">src/cgns/Iocgns_DatabaseIO.C</text>
</a>
</g>
</g>
<!-- Node1&#45;&gt;Node3 -->
<g id="edge2" class="edge">
<title>Node1&#45;&gt;Node3</title>
<path fill="none" stroke="midnightblue" d="M1376.44,-73.52C1210.66,-73.07 727.56,-68.2 328.59,-29 315.2,-27.68 300.73,-25.65 287.55,-23.56"/>
<polygon fill="midnightblue" stroke="midnightblue" points="1376.89,-77.02 1386.9,-73.55 1376.9,-70.02 1376.89,-77.02"/>
</g>
<!-- Node4 -->
<g id="node4" class="node">
<title>Node4</title>
<g id="a_node4"><a xlink:href="Iocgns__ParallelDatabaseIO_8C.html" target="_top" xlink:title=" ">
<polygon fill="white" stroke="black" points="337.4,-0.5 337.4,-28.5 461.78,-28.5 461.78,-0.5 337.4,-0.5"/>
<text text-anchor="start" x="345.4" y="-16.5" font-family="Helvetica,sans-Serif" font-size="10.00">src/cgns/Iocgns_Parallel</text>
<text text-anchor="middle" x="399.59" y="-6.5" font-family="Helvetica,sans-Serif" font-size="10.00">DatabaseIO.C</text>
</a>
</g>
</g>
<!-- Node1&#45;&gt;Node4 -->
<g id="edge3" class="edge">
<title>Node1&#45;&gt;Node4</title>
<path fill="none" stroke="midnightblue" d="M1376.51,-73.68C1225.27,-73.52 811.98,-69.12 470.59,-29 467.72,-28.66 464.8,-28.28 461.85,-27.86"/>
<polygon fill="midnightblue" stroke="midnightblue" points="1376.94,-77.18 1386.94,-73.69 1376.95,-70.18 1376.94,-77.18"/>
</g>
<!-- Node5 -->
<g id="node5" class="node">
<title>Node5</title>
<g id="a_node5"><a xlink:href="Iofx__DatabaseIO_8C.html" target="_top" xlink:title=" ">
<polygon fill="white" stroke="black" points="479.83,-5.5 479.83,-23.5 635.35,-23.5 635.35,-5.5 479.83,-5.5"/>
<text text-anchor="middle" x="557.59" y="-11.5" font-family="Helvetica,sans-Serif" font-size="10.00">src/exo_fpp/Iofx_DatabaseIO.C</text>
</a>
</g>
</g>
<!-- Node1&#45;&gt;Node5 -->
<g id="edge4" class="edge">
<title>Node1&#45;&gt;Node5</title>
<path fill="none" stroke="midnightblue" d="M1376.59,-72.15C1244.93,-68.71 917.27,-57.76 644.59,-29 631.37,-27.61 617.08,-25.6 603.99,-23.56"/>
<polygon fill="midnightblue" stroke="midnightblue" points="1376.77,-75.66 1386.85,-72.41 1376.95,-68.66 1376.77,-75.66"/>
</g>
<!-- Node6 -->
<g id="node6" class="node">
<title>Node6</title>
<g id="a_node6"><a xlink:href="Iopx__DatabaseIO_8C.html" target="_top" xlink:title=" ">
<polygon fill="white" stroke="black" points="653.17,-5.5 653.17,-23.5 812.02,-23.5 812.02,-5.5 653.17,-5.5"/>
<text text-anchor="middle" x="732.59" y="-11.5" font-family="Helvetica,sans-Serif" font-size="10.00">src/exo_par/Iopx_DatabaseIO.C</text>
</a>
</g>
</g>
<!-- Node1&#45;&gt;Node6 -->
<g id="edge5" class="edge">
<title>Node1&#45;&gt;Node6</title>
<path fill="none" stroke="midnightblue" d="M1376.74,-70.77C1267.23,-65.35 1024.81,-51.74 821.59,-29 808.39,-27.52 794.14,-25.54 781,-23.55"/>
<polygon fill="midnightblue" stroke="midnightblue" points="1376.76,-74.27 1386.92,-71.27 1377.1,-67.28 1376.76,-74.27"/>
</g>
<!-- Node7 -->
<g id="node7" class="node">
<title>Node7</title>
<g id="a_node7"><a xlink:href="Ioex__DatabaseIO_8C.html" target="_top" xlink:title=" ">
<polygon fill="white" stroke="black" points="830.11,-5.5 830.11,-23.5 985.07,-23.5 985.07,-5.5 830.11,-5.5"/>
<text text-anchor="middle" x="907.59" y="-11.5" font-family="Helvetica,sans-Serif" font-size="10.00">src/exodus/Ioex_DatabaseIO.C</text>
</a>
</g>
</g>
<!-- Node1&#45;&gt;Node7 -->
<g id="edge6" class="edge">
<title>Node1&#45;&gt;Node7</title>
<path fill="none" stroke="midnightblue" d="M1376.69,-68.56C1292.02,-61.24 1131.06,-46.46 994.59,-29 982.16,-27.41 968.76,-25.45 956.3,-23.53"/>
<polygon fill="midnightblue" stroke="midnightblue" points="1376.61,-72.07 1386.88,-69.44 1377.21,-65.1 1376.61,-72.07"/>
</g>
<!-- Node8 -->
<g id="node8" class="node">
<title>Node8</title>
<g id="a_node8"><a xlink:href="Iohb__DatabaseIO_8C.html" target="_top" xlink:title=" ">
<polygon fill="white" stroke="black" points="1003.29,-0.5 1003.29,-28.5 1099.89,-28.5 1099.89,-0.5 1003.29,-0.5"/>
<text text-anchor="start" x="1011.29" y="-16.5" font-family="Helvetica,sans-Serif" font-size="10.00">src/heartbeat/Iohb</text>
<text text-anchor="middle" x="1051.59" y="-6.5" font-family="Helvetica,sans-Serif" font-size="10.00">_DatabaseIO.C</text>
</a>
</g>
</g>
<!-- Node1&#45;&gt;Node8 -->
<g id="edge7" class="edge">
<title>Node1&#45;&gt;Node8</title>
<path fill="none" stroke="midnightblue" d="M1376.72,-67.24C1311.04,-59.84 1201.76,-46.33 1108.59,-29 1105.79,-28.48 1102.92,-27.91 1100.03,-27.31"/>
<polygon fill="midnightblue" stroke="midnightblue" points="1376.55,-70.74 1386.88,-68.37 1377.33,-63.78 1376.55,-70.74"/>
</g>
<!-- Node9 -->
<g id="node9" class="node">
<title>Node9</title>
<g id="a_node9"><a xlink:href="Ioss__DatabaseIO_8C.html" target="_top" xlink:title=" ">
<polygon fill="white" stroke="black" points="1117.9,-5.5 1117.9,-23.5 1237.28,-23.5 1237.28,-5.5 1117.9,-5.5"/>
<text text-anchor="middle" x="1177.59" y="-11.5" font-family="Helvetica,sans-Serif" font-size="10.00">src/Ioss_DatabaseIO.C</text>
</a>
</g>
</g>
<!-- Node1&#45;&gt;Node9 -->
<g id="edge8" class="edge">
<title>Node1&#45;&gt;Node9</title>
<path fill="none" stroke="midnightblue" d="M1390.01,-63.25C1339.56,-51.91 1259.31,-33.87 1213.24,-23.51"/>
<polygon fill="midnightblue" stroke="midnightblue" points="1389.46,-66.72 1399.99,-65.5 1391,-59.89 1389.46,-66.72"/>
</g>
<!-- Node10 -->
<g id="node10" class="node">
<title>Node10</title>
<g id="a_node10"><a xlink:href="Ioss__FileInfo_8C.html" target="_top" xlink:title=" ">
<polygon fill="white" stroke="black" points="1255.19,-5.5 1255.19,-23.5 1353.99,-23.5 1353.99,-5.5 1255.19,-5.5"/>
<text text-anchor="middle" x="1304.59" y="-11.5" font-family="Helvetica,sans-Serif" font-size="10.00">src/Ioss_FileInfo.C</text>
</a>
</g>
</g>
<!-- Node1&#45;&gt;Node10 -->
<g id="edge9" class="edge">
<title>Node1&#45;&gt;Node10</title>
<path fill="none" stroke="midnightblue" d="M1408.22,-61.38C1382.68,-50.07 1345.26,-33.51 1323.07,-23.68"/>
<polygon fill="midnightblue" stroke="midnightblue" points="1406.81,-64.59 1417.38,-65.44 1409.65,-58.19 1406.81,-64.59"/>
</g>
<!-- Node11 -->
<g id="node11" class="node">
<title>Node11</title>
<g id="a_node11"><a xlink:href="info__interface_8C.html" target="_top" xlink:title=" ">
<polygon fill="white" stroke="black" points="1372.29,-5.5 1372.29,-23.5 1498.89,-23.5 1498.89,-5.5 1372.29,-5.5"/>
<text text-anchor="middle" x="1435.59" y="-11.5" font-family="Helvetica,sans-Serif" font-size="10.00">src/main/info_interface.C</text>
</a>
</g>
</g>
<!-- Node1&#45;&gt;Node11 -->
<g id="edge10" class="edge">
<title>Node1&#45;&gt;Node11</title>
<path fill="none" stroke="midnightblue" d="M1435.59,-55.21C1435.59,-44.71 1435.59,-32.03 1435.59,-23.87"/>
<polygon fill="midnightblue" stroke="midnightblue" points="1432.09,-55.44 1435.59,-65.44 1439.09,-55.44 1432.09,-55.44"/>
</g>
<!-- Node12 -->
<g id="node12" class="node">
<title>Node12</title>
<g id="a_node12"><a xlink:href="io__modify_8C.html" target="_top" xlink:title=" ">
<polygon fill="white" stroke="black" points="1517.28,-5.5 1517.28,-23.5 1625.9,-23.5 1625.9,-5.5 1517.28,-5.5"/>
<text text-anchor="middle" x="1571.59" y="-11.5" font-family="Helvetica,sans-Serif" font-size="10.00">src/main/io_modify.C</text>
</a>
</g>
</g>
<!-- Node1&#45;&gt;Node12 -->
<g id="edge11" class="edge">
<title>Node1&#45;&gt;Node12</title>
<path fill="none" stroke="midnightblue" d="M1464,-61.38C1490.52,-50.07 1529.36,-33.51 1552.4,-23.68"/>
<polygon fill="midnightblue" stroke="midnightblue" points="1462.33,-58.29 1454.5,-65.44 1465.07,-64.73 1462.33,-58.29"/>
</g>
<!-- Node13 -->
<g id="node13" class="node">
<title>Node13</title>
<g id="a_node13"><a xlink:href="io__shell_8C.html" target="_top" xlink:title=" ">
<polygon fill="white" stroke="black" points="1644.35,-5.5 1644.35,-23.5 1744.83,-23.5 1744.83,-5.5 1644.35,-5.5"/>
<text text-anchor="middle" x="1694.59" y="-11.5" font-family="Helvetica,sans-Serif" font-size="10.00">src/main/io_shell.C</text>
</a>
</g>
</g>
<!-- Node1&#45;&gt;Node13 -->
<g id="edge12" class="edge">
<title>Node1&#45;&gt;Node13</title>
<path fill="none" stroke="midnightblue" d="M1481.35,-63.29C1521.69,-54.28 1582.05,-40.79 1634.59,-29 1642.51,-27.22 1651.01,-25.31 1659.06,-23.5"/>
<polygon fill="midnightblue" stroke="midnightblue" points="1480.54,-59.88 1471.54,-65.48 1482.07,-66.71 1480.54,-59.88"/>
</g>
<!-- Node14 -->
<g id="node14" class="node">
<title>Node14</title>
<g id="a_node14"><a xlink:href="io__shell__ts_8C.html" target="_top" xlink:title=" ">
<polygon fill="white" stroke="black" points="1762.68,-5.5 1762.68,-23.5 1876.5,-23.5 1876.5,-5.5 1762.68,-5.5"/>
<text text-anchor="middle" x="1819.59" y="-11.5" font-family="Helvetica,sans-Serif" font-size="10.00">src/main/io_shell_ts.C</text>
</a>
</g>
</g>
<!-- Node1&#45;&gt;Node14 -->
<g id="edge13" class="edge">
<title>Node1&#45;&gt;Node14</title>
<path fill="none" stroke="midnightblue" d="M1494.52,-66.38C1558.48,-58.38 1663.56,-44.49 1753.59,-29 1762.93,-27.39 1772.96,-25.45 1782.32,-23.55"/>
<polygon fill="midnightblue" stroke="midnightblue" points="1493.72,-62.95 1484.23,-67.66 1494.58,-69.9 1493.72,-62.95"/>
</g>
<!-- Node15 -->
<g id="node15" class="node">
<title>Node15</title>
<g id="a_node15"><a xlink:href="modify__interface_8C.html" target="_top" xlink:title=" ">
<polygon fill="white" stroke="black" points="1894.63,-5.5 1894.63,-23.5 2034.56,-23.5 2034.56,-5.5 1894.63,-5.5"/>
<text text-anchor="middle" x="1964.59" y="-11.5" font-family="Helvetica,sans-Serif" font-size="10.00">src/main/modify_interface.C</text>
</a>
</g>
</g>
<!-- Node1&#45;&gt;Node15 -->
<g id="edge14" class="edge">
<title>Node1&#45;&gt;Node15</title>
<path fill="none" stroke="midnightblue" d="M1494.43,-69.02C1580.53,-62.15 1745.78,-47.83 1885.59,-29 1897.04,-27.46 1909.36,-25.5 1920.8,-23.55"/>
<polygon fill="midnightblue" stroke="midnightblue" points="1494.03,-65.54 1484.33,-69.82 1494.58,-72.52 1494.03,-65.54"/>
</g>
<!-- Node16 -->
<g id="node16" class="node">
<title>Node16</title>
<g id="a_node16"><a xlink:href="shell__interface_8C.html" target="_top" xlink:title=" ">
<polygon fill="white" stroke="black" points="2052.07,-5.5 2052.07,-23.5 2183.11,-23.5 2183.11,-5.5 2052.07,-5.5"/>
<text text-anchor="middle" x="2117.59" y="-11.5" font-family="Helvetica,sans-Serif" font-size="10.00">src/main/shell_interface.C</text>
</a>
</g>
</g>
<!-- Node1&#45;&gt;Node16 -->
<g id="edge15" class="edge">
<title>Node1&#45;&gt;Node16</title>
<path fill="none" stroke="midnightblue" d="M1494.35,-71.3C1603.1,-66.76 1842.97,-54.57 2043.59,-29 2054.86,-27.56 2067.02,-25.54 2078.16,-23.5"/>
<polygon fill="midnightblue" stroke="midnightblue" points="1494.08,-67.81 1484.24,-71.71 1494.37,-74.8 1494.08,-67.81"/>
</g>
<!-- Node17 -->
<g id="node17" class="node">
<title>Node17</title>
<g id="a_node17"><a xlink:href="skinner_8C.html" target="_top" xlink:title=" ">
<polygon fill="white" stroke="black" points="2201.47,-5.5 2201.47,-23.5 2299.72,-23.5 2299.72,-5.5 2201.47,-5.5"/>
<text text-anchor="middle" x="2250.59" y="-11.5" font-family="Helvetica,sans-Serif" font-size="10.00">src/main/skinner.C</text>
</a>
</g>
</g>
<!-- Node1&#45;&gt;Node17 -->
<g id="edge16" class="edge">
<title>Node1&#45;&gt;Node17</title>
<path fill="none" stroke="midnightblue" d="M1494.95,-73.43C1623.05,-72.53 1934.69,-66.32 2192.59,-29 2201.7,-27.68 2211.48,-25.65 2220.37,-23.56"/>
<polygon fill="midnightblue" stroke="midnightblue" points="1494.57,-69.93 1484.59,-73.49 1494.61,-76.93 1494.57,-69.93"/>
</g>
<!-- Node18 -->
<g id="node18" class="node">
<title>Node18</title>
<g id="a_node18"><a xlink:href="skinner__interface_8C.html" target="_top" xlink:title=" ">
<polygon fill="white" stroke="black" points="2317.23,-5.5 2317.23,-23.5 2459.95,-23.5 2459.95,-5.5 2317.23,-5.5"/>
<text text-anchor="middle" x="2388.59" y="-11.5" font-family="Helvetica,sans-Serif" font-size="10.00">src/main/skinner_interface.C</text>
</a>
</g>
</g>
<!-- Node1&#45;&gt;Node18 -->
<g id="edge17" class="edge">
<title>Node1&#45;&gt;Node18</title>
<path fill="none" stroke="midnightblue" d="M1494.66,-72.85C1635.79,-70.8 2003.57,-62.4 2308.59,-29 2320.91,-27.65 2334.22,-25.63 2346.37,-23.57"/>
<polygon fill="midnightblue" stroke="midnightblue" points="1494.44,-69.36 1484.49,-73 1494.54,-76.36 1494.44,-69.36"/>
</g>
<!-- Node19 -->
<g id="node19" class="node">
<title>Node19</title>
<g id="a_node19"><a xlink:href="struc__to__unstruc_8C.html" target="_top" xlink:title=" ">
<polygon fill="white" stroke="black" points="2478.35,-5.5 2478.35,-23.5 2618.83,-23.5 2618.83,-5.5 2478.35,-5.5"/>
<text text-anchor="middle" x="2548.59" y="-11.5" font-family="Helvetica,sans-Serif" font-size="10.00">src/main/struc_to_unstruc.C</text>
</a>
</g>
</g>
<!-- Node1&#45;&gt;Node19 -->
<g id="edge18" class="edge">
<title>Node1&#45;&gt;Node19</title>
<path fill="none" stroke="midnightblue" d="M1494.88,-73.52C1653.34,-73 2099.73,-67.92 2468.59,-29 2481.06,-27.68 2494.53,-25.65 2506.79,-23.56"/>
<polygon fill="midnightblue" stroke="midnightblue" points="1494.41,-70.02 1484.42,-73.54 1494.43,-77.02 1494.41,-70.02"/>
</g>
<!-- Node20 -->
<g id="node20" class="node">
<title>Node20</title>
<g id="a_node20"><a xlink:href="Iovs__DatabaseIO_8C.html" target="_top" xlink:title=" ">
<polygon fill="white" stroke="black" points="2636.74,-0.5 2636.74,-28.5 2744.44,-28.5 2744.44,-0.5 2636.74,-0.5"/>
<text text-anchor="start" x="2644.74" y="-16.5" font-family="Helvetica,sans-Serif" font-size="10.00">src/visualization/Iovs</text>
<text text-anchor="middle" x="2690.59" y="-6.5" font-family="Helvetica,sans-Serif" font-size="10.00">_DatabaseIO.C</text>
</a>
</g>
</g>
<!-- Node1&#45;&gt;Node20 -->
<g id="edge19" class="edge">
<title>Node1&#45;&gt;Node20</title>
<path fill="none" stroke="midnightblue" d="M1494.39,-72.66C1702.63,-69.47 2404.54,-56.85 2627.59,-29 2630.59,-28.63 2633.65,-28.18 2636.74,-27.68"/>
<polygon fill="midnightblue" stroke="midnightblue" points="1494.21,-69.16 1484.27,-72.81 1494.32,-76.16 1494.21,-69.16"/>
</g>
</g>
</svg>
