<?xml version="1.0" encoding="UTF-8" standalone="no"?>
<!DOCTYPE svg PUBLIC "-//W3C//DTD SVG 1.1//EN"
 "http://www.w3.org/Graphics/SVG/1.1/DTD/svg11.dtd">
<!-- Generated by graphviz version 2.42.3 (20191010.1750)
 -->
<!-- Title: src/transform/Iotr_Tensor.C Pages: 1 -->
<svg width="1005pt" height="367pt"
 viewBox="0.00 0.00 1005.00 367.00" xmlns="http://www.w3.org/2000/svg" xmlns:xlink="http://www.w3.org/1999/xlink">
<g id="graph0" class="graph" transform="scale(1 1) rotate(0) translate(4 363)">
<title>src/transform/Iotr_Tensor.C</title>
<polygon fill="white" stroke="transparent" points="-4,4 -4,-363 1001,-363 1001,4 -4,4"/>
<!-- Node1 -->
<g id="node1" class="node">
<title>Node1</title>
<g id="a_node1"><a xlink:title=" ">
<polygon fill="#bfbfbf" stroke="black" points="667.22,-330.5 667.22,-358.5 758.78,-358.5 758.78,-330.5 667.22,-330.5"/>
<text text-anchor="start" x="675.22" y="-346.5" font-family="Helvetica,sans-Serif" font-size="10.00">src/transform/Iotr</text>
<text text-anchor="middle" x="713" y="-336.5" font-family="Helvetica,sans-Serif" font-size="10.00">_Tensor.C</text>
</a>
</g>
</g>
<!-- Node2 -->
<g id="node2" class="node">
<title>Node2</title>
<g id="a_node2"><a xlink:href="Ioss__Field_8h.html" target="_top" xlink:title=" ">
<polygon fill="white" stroke="black" points="104.04,-110.5 104.04,-128.5 173.96,-128.5 173.96,-110.5 104.04,-110.5"/>
<text text-anchor="middle" x="139" y="-116.5" font-family="Helvetica,sans-Serif" font-size="10.00">Ioss_Field.h</text>
</a>
</g>
</g>
<!-- Node1&#45;&gt;Node2 -->
<g id="edge1" class="edge">
<title>Node1&#45;&gt;Node2</title>
<path fill="none" stroke="midnightblue" d="M679.24,-330.38C576.3,-290.39 267.48,-170.42 169.31,-132.28"/>
<polygon fill="midnightblue" stroke="midnightblue" points="170.29,-128.9 159.7,-128.54 167.75,-135.43 170.29,-128.9"/>
</g>
<!-- Node5 -->
<g id="node5" class="node">
<title>Node5</title>
<g id="a_node5"><a xlink:title=" ">
<polygon fill="white" stroke="#bfbfbf" points="72.88,-0.5 72.88,-18.5 121.12,-18.5 121.12,-0.5 72.88,-0.5"/>
<text text-anchor="middle" x="97" y="-6.5" font-family="Helvetica,sans-Serif" font-size="10.00">cstddef</text>
</a>
</g>
</g>
<!-- Node1&#45;&gt;Node5 -->
<g id="edge34" class="edge">
<title>Node1&#45;&gt;Node5</title>
<path fill="none" stroke="midnightblue" d="M667.04,-341.09C509.36,-332.21 0,-298.3 0,-230.5 0,-230.5 0,-230.5 0,-118.5 0,-75.06 43.96,-41.16 72.7,-23.65"/>
<polygon fill="midnightblue" stroke="midnightblue" points="74.55,-26.61 81.42,-18.54 71.02,-20.57 74.55,-26.61"/>
</g>
<!-- Node7 -->
<g id="node7" class="node">
<title>Node7</title>
<g id="a_node7"><a xlink:title=" ">
<polygon fill="white" stroke="#bfbfbf" points="812.77,-0.5 812.77,-18.5 853.23,-18.5 853.23,-0.5 812.77,-0.5"/>
<text text-anchor="middle" x="833" y="-6.5" font-family="Helvetica,sans-Serif" font-size="10.00">string</text>
</a>
</g>
</g>
<!-- Node1&#45;&gt;Node7 -->
<g id="edge35" class="edge">
<title>Node1&#45;&gt;Node7</title>
<path fill="none" stroke="midnightblue" d="M758.95,-335.08C839.32,-319.04 997,-281.11 997,-230.5 997,-230.5 997,-230.5 997,-118.5 997,-55.27 910.92,-26.97 863.48,-16.18"/>
<polygon fill="midnightblue" stroke="midnightblue" points="863.95,-12.7 853.44,-14.02 862.48,-19.54 863.95,-12.7"/>
</g>
<!-- Node11 -->
<g id="node11" class="node">
<title>Node11</title>
<g id="a_node11"><a xlink:href="Ioss__VariableType_8h.html" target="_top" xlink:title=" ">
<polygon fill="white" stroke="black" points="573.06,-220.5 573.06,-238.5 678.94,-238.5 678.94,-220.5 573.06,-220.5"/>
<text text-anchor="middle" x="626" y="-226.5" font-family="Helvetica,sans-Serif" font-size="10.00">Ioss_VariableType.h</text>
</a>
</g>
</g>
<!-- Node1&#45;&gt;Node11 -->
<g id="edge13" class="edge">
<title>Node1&#45;&gt;Node11</title>
<path fill="none" stroke="midnightblue" d="M687.44,-330.39C673.07,-321.82 655.89,-309.37 645,-294 635.44,-280.5 630.63,-262.14 628.24,-248.63"/>
<polygon fill="midnightblue" stroke="midnightblue" points="631.69,-248.02 626.76,-238.64 624.77,-249.05 631.69,-248.02"/>
</g>
<!-- Node14 -->
<g id="node14" class="node">
<title>Node14</title>
<g id="a_node14"><a xlink:title=" ">
<polygon fill="white" stroke="#bfbfbf" points="844.88,-110.5 844.88,-128.5 893.12,-128.5 893.12,-110.5 844.88,-110.5"/>
<text text-anchor="middle" x="869" y="-116.5" font-family="Helvetica,sans-Serif" font-size="10.00">cassert</text>
</a>
</g>
</g>
<!-- Node1&#45;&gt;Node14 -->
<g id="edge33" class="edge">
<title>Node1&#45;&gt;Node14</title>
<path fill="none" stroke="midnightblue" d="M744.92,-330.5C779.03,-314.62 831.14,-284.19 853,-239 868.77,-206.4 870.48,-163.2 869.96,-138.99"/>
<polygon fill="midnightblue" stroke="midnightblue" points="873.45,-138.62 869.59,-128.76 866.46,-138.88 873.45,-138.62"/>
</g>
<!-- Node22 -->
<g id="node22" class="node">
<title>Node22</title>
<g id="a_node22"><a xlink:href="Iotr__Tensor_8h.html" target="_top" xlink:title=" ">
<polygon fill="white" stroke="black" points="653.59,-275.5 653.59,-293.5 772.41,-293.5 772.41,-275.5 653.59,-275.5"/>
<text text-anchor="middle" x="713" y="-281.5" font-family="Helvetica,sans-Serif" font-size="10.00">transform/Iotr_Tensor.h</text>
</a>
</g>
</g>
<!-- Node1&#45;&gt;Node22 -->
<g id="edge36" class="edge">
<title>Node1&#45;&gt;Node22</title>
<path fill="none" stroke="midnightblue" d="M713,-330.34C713,-322.53 713,-312.51 713,-303.93"/>
<polygon fill="midnightblue" stroke="midnightblue" points="716.5,-303.77 713,-293.77 709.5,-303.77 716.5,-303.77"/>
</g>
<!-- Node23 -->
<g id="node23" class="node">
<title>Node23</title>
<g id="a_node23"><a xlink:href="Ioss__Transform_8h.html" target="_top" xlink:title=" ">
<polygon fill="white" stroke="black" points="750.28,-220.5 750.28,-238.5 843.72,-238.5 843.72,-220.5 750.28,-220.5"/>
<text text-anchor="middle" x="797" y="-226.5" font-family="Helvetica,sans-Serif" font-size="10.00">Ioss_Transform.h</text>
</a>
</g>
</g>
<!-- Node1&#45;&gt;Node23 -->
<g id="edge45" class="edge">
<title>Node1&#45;&gt;Node23</title>
<path fill="none" stroke="midnightblue" d="M739.15,-330.37C753.54,-321.86 770.54,-309.49 781,-294 790.15,-280.46 794.07,-262.1 795.75,-248.61"/>
<polygon fill="midnightblue" stroke="midnightblue" points="799.23,-248.92 796.69,-238.63 792.26,-248.25 799.23,-248.92"/>
</g>
<!-- Node3 -->
<g id="node3" class="node">
<title>Node3</title>
<g id="a_node3"><a xlink:href="Ioss__CodeTypes_8h.html" target="_top" xlink:title=" ">
<polygon fill="white" stroke="black" points="577.58,-55.5 577.58,-73.5 676.42,-73.5 676.42,-55.5 577.58,-55.5"/>
<text text-anchor="middle" x="627" y="-61.5" font-family="Helvetica,sans-Serif" font-size="10.00">Ioss_CodeTypes.h</text>
</a>
</g>
</g>
<!-- Node2&#45;&gt;Node3 -->
<g id="edge2" class="edge">
<title>Node2&#45;&gt;Node3</title>
<path fill="none" stroke="midnightblue" d="M174.1,-114.69C256.71,-105.72 464.22,-83.18 567.16,-72"/>
<polygon fill="midnightblue" stroke="midnightblue" points="567.82,-75.45 577.39,-70.89 567.07,-68.49 567.82,-75.45"/>
</g>
<!-- Node2&#45;&gt;Node5 -->
<g id="edge10" class="edge">
<title>Node2&#45;&gt;Node5</title>
<path fill="none" stroke="midnightblue" d="M135.84,-110.38C129.09,-93.03 113.12,-51.96 103.9,-28.24"/>
<polygon fill="midnightblue" stroke="midnightblue" points="107.08,-26.76 100.19,-18.71 100.56,-29.3 107.08,-26.76"/>
</g>
<!-- Node2&#45;&gt;Node7 -->
<g id="edge11" class="edge">
<title>Node2&#45;&gt;Node7</title>
<path fill="none" stroke="midnightblue" d="M174.1,-114.66C188.61,-113.13 205.61,-111.39 221,-110 427,-91.34 484.42,-124.52 685,-74 705.26,-68.9 708.83,-63.3 728,-55 753.72,-43.87 783.11,-31.44 804.24,-22.55"/>
<polygon fill="midnightblue" stroke="midnightblue" points="805.75,-25.71 813.61,-18.61 803.03,-19.26 805.75,-25.71"/>
</g>
<!-- Node8 -->
<g id="node8" class="node">
<title>Node8</title>
<g id="a_node8"><a xlink:title=" ">
<polygon fill="white" stroke="#bfbfbf" points="180.38,-0.5 180.38,-18.5 223.62,-18.5 223.62,-0.5 180.38,-0.5"/>
<text text-anchor="middle" x="202" y="-6.5" font-family="Helvetica,sans-Serif" font-size="10.00">vector</text>
</a>
</g>
</g>
<!-- Node2&#45;&gt;Node8 -->
<g id="edge12" class="edge">
<title>Node2&#45;&gt;Node8</title>
<path fill="none" stroke="midnightblue" d="M143.74,-110.38C153.95,-92.87 178.25,-51.22 192.02,-27.6"/>
<polygon fill="midnightblue" stroke="midnightblue" points="195.19,-29.11 197.21,-18.71 189.15,-25.59 195.19,-29.11"/>
</g>
<!-- Node4 -->
<g id="node4" class="node">
<title>Node4</title>
<g id="a_node4"><a xlink:title=" ">
<polygon fill="white" stroke="#bfbfbf" points="551.61,-0.5 551.61,-18.5 590.39,-18.5 590.39,-0.5 551.61,-0.5"/>
<text text-anchor="middle" x="571" y="-6.5" font-family="Helvetica,sans-Serif" font-size="10.00">array</text>
</a>
</g>
</g>
<!-- Node3&#45;&gt;Node4 -->
<g id="edge3" class="edge">
<title>Node3&#45;&gt;Node4</title>
<path fill="none" stroke="midnightblue" d="M618.25,-55.22C609.9,-47.32 597.12,-35.22 586.96,-25.61"/>
<polygon fill="midnightblue" stroke="midnightblue" points="589.17,-22.88 579.51,-18.55 584.36,-27.97 589.17,-22.88"/>
</g>
<!-- Node3&#45;&gt;Node5 -->
<g id="edge4" class="edge">
<title>Node3&#45;&gt;Node5</title>
<path fill="none" stroke="midnightblue" d="M577.38,-58.94C493.58,-51.17 318.72,-34.69 171,-19 158.04,-17.62 143.82,-16.01 131.33,-14.57"/>
<polygon fill="midnightblue" stroke="midnightblue" points="131.66,-11.08 121.32,-13.4 130.85,-18.03 131.66,-11.08"/>
</g>
<!-- Node6 -->
<g id="node6" class="node">
<title>Node6</title>
<g id="a_node6"><a xlink:title=" ">
<polygon fill="white" stroke="#bfbfbf" points="488.55,-0.5 488.55,-18.5 533.45,-18.5 533.45,-0.5 488.55,-0.5"/>
<text text-anchor="middle" x="511" y="-6.5" font-family="Helvetica,sans-Serif" font-size="10.00">cstdint</text>
</a>
</g>
</g>
<!-- Node3&#45;&gt;Node6 -->
<g id="edge5" class="edge">
<title>Node3&#45;&gt;Node6</title>
<path fill="none" stroke="midnightblue" d="M609.38,-55.45C590.39,-46.77 559.93,-32.86 537.93,-22.8"/>
<polygon fill="midnightblue" stroke="midnightblue" points="539.33,-19.6 528.78,-18.63 536.42,-25.96 539.33,-19.6"/>
</g>
<!-- Node3&#45;&gt;Node7 -->
<g id="edge6" class="edge">
<title>Node3&#45;&gt;Node7</title>
<path fill="none" stroke="midnightblue" d="M660.7,-55.44C694.37,-47.3 747.83,-34.12 802.83,-19.24"/>
<polygon fill="midnightblue" stroke="midnightblue" points="804.02,-22.55 812.75,-16.55 802.18,-15.79 804.02,-22.55"/>
</g>
<!-- Node3&#45;&gt;Node8 -->
<g id="edge7" class="edge">
<title>Node3&#45;&gt;Node8</title>
<path fill="none" stroke="midnightblue" d="M577.42,-57.32C489.13,-46.31 307.1,-23.61 233.71,-14.45"/>
<polygon fill="midnightblue" stroke="midnightblue" points="234.05,-10.97 223.69,-13.21 233.18,-17.92 234.05,-10.97"/>
</g>
<!-- Node9 -->
<g id="node9" class="node">
<title>Node9</title>
<g id="a_node9"><a xlink:title=" ">
<polygon fill="white" stroke="#bfbfbf" points="608.25,-0.5 608.25,-18.5 723.75,-18.5 723.75,-0.5 608.25,-0.5"/>
<text text-anchor="middle" x="666" y="-6.5" font-family="Helvetica,sans-Serif" font-size="10.00">SEACASIoss_config.h</text>
</a>
</g>
</g>
<!-- Node3&#45;&gt;Node9 -->
<g id="edge8" class="edge">
<title>Node3&#45;&gt;Node9</title>
<path fill="none" stroke="midnightblue" d="M633.09,-55.22C638.68,-47.63 647.11,-36.18 654.04,-26.76"/>
<polygon fill="midnightblue" stroke="midnightblue" points="656.97,-28.68 660.08,-18.55 651.33,-24.53 656.97,-28.68"/>
</g>
<!-- Node10 -->
<g id="node10" class="node">
<title>Node10</title>
<g id="a_node10"><a xlink:title=" ">
<polygon fill="white" stroke="#bfbfbf" points="741.38,-0.5 741.38,-18.5 794.62,-18.5 794.62,-0.5 741.38,-0.5"/>
<text text-anchor="middle" x="768" y="-6.5" font-family="Helvetica,sans-Serif" font-size="10.00">complex</text>
</a>
</g>
</g>
<!-- Node3&#45;&gt;Node10 -->
<g id="edge9" class="edge">
<title>Node3&#45;&gt;Node10</title>
<path fill="none" stroke="midnightblue" d="M648.41,-55.45C671.91,-46.62 709.86,-32.35 736.7,-22.27"/>
<polygon fill="midnightblue" stroke="midnightblue" points="738.25,-25.42 746.38,-18.63 735.79,-18.87 738.25,-25.42"/>
</g>
<!-- Node11&#45;&gt;Node3 -->
<g id="edge14" class="edge">
<title>Node11&#45;&gt;Node3</title>
<path fill="none" stroke="midnightblue" d="M623.37,-220.41C620.65,-211.57 616.58,-196.96 615,-184 613.98,-175.62 613.97,-173.38 615,-165 617.02,-148.63 621.6,-145.32 624,-129 626.21,-113.95 626.91,-96.7 627.09,-83.98"/>
<polygon fill="midnightblue" stroke="midnightblue" points="630.59,-83.78 627.13,-73.77 623.59,-83.76 630.59,-83.78"/>
</g>
<!-- Node11&#45;&gt;Node7 -->
<g id="edge31" class="edge">
<title>Node11&#45;&gt;Node7</title>
<path fill="none" stroke="midnightblue" d="M627.28,-220.4C629.62,-207.64 635.53,-182.48 648,-165 686.05,-111.65 714.08,-116.44 764,-74 782.87,-57.96 803.68,-38.56 817.46,-25.45"/>
<polygon fill="midnightblue" stroke="midnightblue" points="819.88,-27.98 824.7,-18.54 815.05,-22.92 819.88,-27.98"/>
</g>
<!-- Node11&#45;&gt;Node8 -->
<g id="edge32" class="edge">
<title>Node11&#45;&gt;Node8</title>
<path fill="none" stroke="midnightblue" d="M572.71,-226.8C450.4,-221.65 155.43,-201.8 95,-129 61.99,-89.23 133.84,-44.52 175.31,-23.17"/>
<polygon fill="midnightblue" stroke="midnightblue" points="177.01,-26.23 184.38,-18.62 173.87,-19.98 177.01,-26.23"/>
</g>
<!-- Node12 -->
<g id="node12" class="node">
<title>Node12</title>
<g id="a_node12"><a xlink:href="Ioss__Utils_8h.html" target="_top" xlink:title=" ">
<polygon fill="white" stroke="black" points="422.16,-165.5 422.16,-183.5 489.84,-183.5 489.84,-165.5 422.16,-165.5"/>
<text text-anchor="middle" x="456" y="-171.5" font-family="Helvetica,sans-Serif" font-size="10.00">Ioss_Utils.h</text>
</a>
</g>
</g>
<!-- Node11&#45;&gt;Node12 -->
<g id="edge15" class="edge">
<title>Node11&#45;&gt;Node12</title>
<path fill="none" stroke="midnightblue" d="M600.18,-220.45C571.14,-211.4 523.8,-196.64 491.34,-186.52"/>
<polygon fill="midnightblue" stroke="midnightblue" points="492.37,-183.17 481.78,-183.54 490.29,-189.86 492.37,-183.17"/>
</g>
<!-- Node19 -->
<g id="node19" class="node">
<title>Node19</title>
<g id="a_node19"><a xlink:title=" ">
<polygon fill="white" stroke="#bfbfbf" points="517.27,-165.5 517.27,-183.5 562.73,-183.5 562.73,-165.5 517.27,-165.5"/>
<text text-anchor="middle" x="540" y="-171.5" font-family="Helvetica,sans-Serif" font-size="10.00">cstring</text>
</a>
</g>
</g>
<!-- Node11&#45;&gt;Node19 -->
<g id="edge28" class="edge">
<title>Node11&#45;&gt;Node19</title>
<path fill="none" stroke="midnightblue" d="M612.94,-220.45C599.43,-212.12 578.08,-198.97 561.97,-189.04"/>
<polygon fill="midnightblue" stroke="midnightblue" points="563.53,-185.89 553.18,-183.63 559.86,-191.85 563.53,-185.89"/>
</g>
<!-- Node20 -->
<g id="node20" class="node">
<title>Node20</title>
<g id="a_node20"><a xlink:title=" ">
<polygon fill="white" stroke="#bfbfbf" points="656.6,-165.5 656.6,-183.5 715.4,-183.5 715.4,-165.5 656.6,-165.5"/>
<text text-anchor="middle" x="686" y="-171.5" font-family="Helvetica,sans-Serif" font-size="10.00">functional</text>
</a>
</g>
</g>
<!-- Node11&#45;&gt;Node20 -->
<g id="edge29" class="edge">
<title>Node11&#45;&gt;Node20</title>
<path fill="none" stroke="midnightblue" d="M635.11,-220.45C644.1,-212.51 658.05,-200.19 669.07,-190.45"/>
<polygon fill="midnightblue" stroke="midnightblue" points="671.62,-192.87 676.8,-183.63 666.99,-187.62 671.62,-192.87"/>
</g>
<!-- Node21 -->
<g id="node21" class="node">
<title>Node21</title>
<g id="a_node21"><a xlink:title=" ">
<polygon fill="white" stroke="#bfbfbf" points="733.27,-165.5 733.27,-183.5 768.73,-183.5 768.73,-165.5 733.27,-165.5"/>
<text text-anchor="middle" x="751" y="-171.5" font-family="Helvetica,sans-Serif" font-size="10.00">map</text>
</a>
</g>
</g>
<!-- Node11&#45;&gt;Node21 -->
<g id="edge30" class="edge">
<title>Node11&#45;&gt;Node21</title>
<path fill="none" stroke="midnightblue" d="M644.98,-220.45C665.9,-211.58 699.73,-197.24 723.53,-187.15"/>
<polygon fill="midnightblue" stroke="midnightblue" points="725.21,-190.23 733.06,-183.11 722.48,-183.79 725.21,-190.23"/>
</g>
<!-- Node12&#45;&gt;Node2 -->
<g id="edge17" class="edge">
<title>Node12&#45;&gt;Node2</title>
<path fill="none" stroke="midnightblue" d="M422.14,-167.96C371.29,-159.62 272.16,-143.29 188,-129 186.73,-128.78 185.44,-128.57 184.14,-128.34"/>
<polygon fill="midnightblue" stroke="midnightblue" points="184.51,-124.85 174.06,-126.61 183.32,-131.75 184.51,-124.85"/>
</g>
<!-- Node12&#45;&gt;Node3 -->
<g id="edge16" class="edge">
<title>Node12&#45;&gt;Node3</title>
<path fill="none" stroke="midnightblue" d="M490.03,-166.83C528.1,-158.77 586.59,-144.34 603,-129 615.64,-117.19 621.67,-98.05 624.52,-83.87"/>
<polygon fill="midnightblue" stroke="midnightblue" points="628.01,-84.23 626.19,-73.79 621.1,-83.08 628.01,-84.23"/>
</g>
<!-- Node12&#45;&gt;Node5 -->
<g id="edge21" class="edge">
<title>Node12&#45;&gt;Node5</title>
<path fill="none" stroke="midnightblue" d="M421.91,-171.83C336.1,-167.26 116.49,-153.3 95,-129 70.43,-101.22 81.45,-53.81 90.12,-28.19"/>
<polygon fill="midnightblue" stroke="midnightblue" points="93.46,-29.26 93.59,-18.66 86.88,-26.86 93.46,-29.26"/>
</g>
<!-- Node12&#45;&gt;Node6 -->
<g id="edge22" class="edge">
<title>Node12&#45;&gt;Node6</title>
<path fill="none" stroke="midnightblue" d="M487.46,-165.5C517.75,-157.08 560.35,-143.12 570,-129 593.75,-94.24 553.3,-48.55 528.37,-25.37"/>
<polygon fill="midnightblue" stroke="midnightblue" points="530.7,-22.76 520.92,-18.68 526.02,-27.97 530.7,-22.76"/>
</g>
<!-- Node12&#45;&gt;Node7 -->
<g id="edge26" class="edge">
<title>Node12&#45;&gt;Node7</title>
<path fill="none" stroke="midnightblue" d="M489.98,-167.18C524.51,-160.14 579.16,-147.29 624,-129 697.03,-99.2 776.21,-48.77 812.6,-24.44"/>
<polygon fill="midnightblue" stroke="midnightblue" points="814.97,-27.07 821.3,-18.58 811.05,-21.27 814.97,-27.07"/>
</g>
<!-- Node12&#45;&gt;Node8 -->
<g id="edge27" class="edge">
<title>Node12&#45;&gt;Node8</title>
<path fill="none" stroke="midnightblue" d="M421.76,-171.73C363.41,-167.98 248.35,-157.13 221,-129 194.94,-102.19 196.08,-54.74 199.09,-28.76"/>
<polygon fill="midnightblue" stroke="midnightblue" points="202.57,-29.16 200.47,-18.77 195.63,-28.2 202.57,-29.16"/>
</g>
<!-- Node13 -->
<g id="node13" class="node">
<title>Node13</title>
<g id="a_node13"><a xlink:title=" ">
<polygon fill="white" stroke="#bfbfbf" points="503.44,-110.5 503.44,-128.5 560.56,-128.5 560.56,-110.5 503.44,-110.5"/>
<text text-anchor="middle" x="532" y="-116.5" font-family="Helvetica,sans-Serif" font-size="10.00">algorithm</text>
</a>
</g>
</g>
<!-- Node12&#45;&gt;Node13 -->
<g id="edge18" class="edge">
<title>Node12&#45;&gt;Node13</title>
<path fill="none" stroke="midnightblue" d="M467.54,-165.45C479.26,-157.28 497.64,-144.46 511.78,-134.6"/>
<polygon fill="midnightblue" stroke="midnightblue" points="514.15,-137.22 520.35,-128.63 510.14,-131.47 514.15,-137.22"/>
</g>
<!-- Node12&#45;&gt;Node14 -->
<g id="edge19" class="edge">
<title>Node12&#45;&gt;Node14</title>
<path fill="none" stroke="midnightblue" d="M490.1,-167.73C496.06,-166.78 502.2,-165.83 508,-165 627.91,-147.82 770.81,-131.4 834.92,-124.25"/>
<polygon fill="midnightblue" stroke="midnightblue" points="835.32,-127.72 844.88,-123.14 834.55,-120.77 835.32,-127.72"/>
</g>
<!-- Node15 -->
<g id="node15" class="node">
<title>Node15</title>
<g id="a_node15"><a xlink:title=" ">
<polygon fill="white" stroke="#bfbfbf" points="230.38,-110.5 230.38,-128.5 273.62,-128.5 273.62,-110.5 230.38,-110.5"/>
<text text-anchor="middle" x="252" y="-116.5" font-family="Helvetica,sans-Serif" font-size="10.00">cmath</text>
</a>
</g>
</g>
<!-- Node12&#45;&gt;Node15 -->
<g id="edge20" class="edge">
<title>Node12&#45;&gt;Node15</title>
<path fill="none" stroke="midnightblue" d="M424.08,-165.45C391.3,-157.15 338.56,-143.69 283.59,-129.12"/>
<polygon fill="midnightblue" stroke="midnightblue" points="284.23,-125.67 273.67,-126.49 282.43,-132.44 284.23,-125.67"/>
</g>
<!-- Node16 -->
<g id="node16" class="node">
<title>Node16</title>
<g id="a_node16"><a xlink:title=" ">
<polygon fill="white" stroke="#bfbfbf" points="291.83,-110.5 291.83,-128.5 336.17,-128.5 336.17,-110.5 291.83,-110.5"/>
<text text-anchor="middle" x="314" y="-116.5" font-family="Helvetica,sans-Serif" font-size="10.00">cstdlib</text>
</a>
</g>
</g>
<!-- Node12&#45;&gt;Node16 -->
<g id="edge23" class="edge">
<title>Node12&#45;&gt;Node16</title>
<path fill="none" stroke="midnightblue" d="M434.43,-165.45C410.66,-156.58 372.22,-142.23 345.17,-132.13"/>
<polygon fill="midnightblue" stroke="midnightblue" points="346.36,-128.84 335.77,-128.63 343.91,-135.4 346.36,-128.84"/>
</g>
<!-- Node17 -->
<g id="node17" class="node">
<title>Node17</title>
<g id="a_node17"><a xlink:title=" ">
<polygon fill="white" stroke="#bfbfbf" points="353.83,-110.5 353.83,-128.5 408.17,-128.5 408.17,-110.5 353.83,-110.5"/>
<text text-anchor="middle" x="381" y="-116.5" font-family="Helvetica,sans-Serif" font-size="10.00">iostream</text>
</a>
</g>
</g>
<!-- Node12&#45;&gt;Node17 -->
<g id="edge24" class="edge">
<title>Node12&#45;&gt;Node17</title>
<path fill="none" stroke="midnightblue" d="M444.61,-165.45C433.05,-157.28 414.91,-144.46 400.95,-134.6"/>
<polygon fill="midnightblue" stroke="midnightblue" points="402.68,-131.54 392.5,-128.63 398.64,-137.25 402.68,-131.54"/>
</g>
<!-- Node18 -->
<g id="node18" class="node">
<title>Node18</title>
<g id="a_node18"><a xlink:title=" ">
<polygon fill="white" stroke="#bfbfbf" points="426.6,-110.5 426.6,-128.5 485.4,-128.5 485.4,-110.5 426.6,-110.5"/>
<text text-anchor="middle" x="456" y="-116.5" font-family="Helvetica,sans-Serif" font-size="10.00">stdexcept</text>
</a>
</g>
</g>
<!-- Node12&#45;&gt;Node18 -->
<g id="edge25" class="edge">
<title>Node12&#45;&gt;Node18</title>
<path fill="none" stroke="midnightblue" d="M456,-165.22C456,-158.18 456,-147.81 456,-138.83"/>
<polygon fill="midnightblue" stroke="midnightblue" points="459.5,-138.55 456,-128.55 452.5,-138.55 459.5,-138.55"/>
</g>
<!-- Node22&#45;&gt;Node7 -->
<g id="edge44" class="edge">
<title>Node22&#45;&gt;Node7</title>
<path fill="none" stroke="midnightblue" d="M772.55,-282.34C845.35,-277.39 959,-256.66 959,-175.5 959,-175.5 959,-175.5 959,-118.5 959,-67.98 899.9,-36 862.65,-20.87"/>
<polygon fill="midnightblue" stroke="midnightblue" points="863.83,-17.57 853.24,-17.21 861.3,-24.09 863.83,-17.57"/>
</g>
<!-- Node22&#45;&gt;Node11 -->
<g id="edge37" class="edge">
<title>Node22&#45;&gt;Node11</title>
<path fill="none" stroke="midnightblue" d="M699.79,-275.45C686.12,-267.12 664.53,-253.97 648.23,-244.04"/>
<polygon fill="midnightblue" stroke="midnightblue" points="649.7,-240.84 639.34,-238.63 646.06,-246.82 649.7,-240.84"/>
</g>
<!-- Node22&#45;&gt;Node23 -->
<g id="edge38" class="edge">
<title>Node22&#45;&gt;Node23</title>
<path fill="none" stroke="midnightblue" d="M725.76,-275.45C738.96,-267.12 759.8,-253.97 775.54,-244.04"/>
<polygon fill="midnightblue" stroke="midnightblue" points="777.53,-246.92 784.12,-238.63 773.8,-241 777.53,-246.92"/>
</g>
<!-- Node23&#45;&gt;Node3 -->
<g id="edge39" class="edge">
<title>Node23&#45;&gt;Node3</title>
<path fill="none" stroke="midnightblue" d="M802.4,-220.12C809.83,-207.4 821.22,-182.82 811,-165 782.45,-115.21 719.02,-88.97 674.66,-76.19"/>
<polygon fill="midnightblue" stroke="midnightblue" points="675.52,-72.79 664.95,-73.51 673.66,-79.54 675.52,-72.79"/>
</g>
<!-- Node23&#45;&gt;Node7 -->
<g id="edge42" class="edge">
<title>Node23&#45;&gt;Node7</title>
<path fill="none" stroke="midnightblue" d="M811.34,-220.35C835.46,-205.7 883.35,-172.37 902,-129 918.9,-89.7 878.08,-47.19 852.24,-25.34"/>
<polygon fill="midnightblue" stroke="midnightblue" points="854.12,-22.35 844.16,-18.75 849.7,-27.78 854.12,-22.35"/>
</g>
<!-- Node23&#45;&gt;Node8 -->
<g id="edge43" class="edge">
<title>Node23&#45;&gt;Node8</title>
<path fill="none" stroke="midnightblue" d="M796.96,-220.2C796.42,-206.68 793.35,-179.92 778,-165 697.79,-87.05 342.7,-30.63 233.84,-14.92"/>
<polygon fill="midnightblue" stroke="midnightblue" points="234.19,-11.43 223.8,-13.48 233.2,-18.36 234.19,-11.43"/>
</g>
<!-- Node23&#45;&gt;Node20 -->
<g id="edge40" class="edge">
<title>Node23&#45;&gt;Node20</title>
<path fill="none" stroke="midnightblue" d="M780.14,-220.45C762.05,-211.81 733.08,-197.98 712.05,-187.94"/>
<polygon fill="midnightblue" stroke="midnightblue" points="713.55,-184.78 703.02,-183.63 710.53,-191.09 713.55,-184.78"/>
</g>
<!-- Node23&#45;&gt;Node21 -->
<g id="edge41" class="edge">
<title>Node23&#45;&gt;Node21</title>
<path fill="none" stroke="midnightblue" d="M789.81,-220.22C783.09,-212.47 772.87,-200.7 764.61,-191.18"/>
<polygon fill="midnightblue" stroke="midnightblue" points="767.18,-188.81 757.99,-183.55 761.9,-193.4 767.18,-188.81"/>
</g>
</g>
</svg>
