<?xml version="1.0" encoding="UTF-8" standalone="no"?>
<!DOCTYPE svg PUBLIC "-//W3C//DTD SVG 1.1//EN"
 "http://www.w3.org/Graphics/SVG/1.1/DTD/svg11.dtd">
<!-- Generated by graphviz version 2.40.1 (20161225.0304)
 -->
<!-- Title: src/transform/Iotr_Initializer.C Pages: 1 -->
<svg width="1740pt" height="367pt"
 viewBox="0.00 0.00 1740.14 367.00" xmlns="http://www.w3.org/2000/svg" xmlns:xlink="http://www.w3.org/1999/xlink">
<g id="graph0" class="graph" transform="scale(1 1) rotate(0) translate(4 363)">
<title>src/transform/Iotr_Initializer.C</title>
<polygon fill="#ffffff" stroke="transparent" points="-4,4 -4,-363 1736.1353,-363 1736.1353,4 -4,4"/>
<!-- Node0 -->
<g id="node1" class="node">
<title>Node0</title>
<g id="a_node1"><a xlink:title=" ">
<polygon fill="#bfbfbf" stroke="#000000" points="516.3521,-330.5 516.3521,-358.5 607.9185,-358.5 607.9185,-330.5 516.3521,-330.5"/>
<text text-anchor="start" x="524.3521" y="-346.5" font-family="Helvetica,sans-Serif" font-size="10.00" fill="#000000">src/transform/Iotr</text>
<text text-anchor="middle" x="562.1353" y="-336.5" font-family="Helvetica,sans-Serif" font-size="10.00" fill="#000000">_Initializer.C</text>
</a>
</g>
</g>
<!-- Node1 -->
<g id="node2" class="node">
<title>Node1</title>
<g id="a_node2"><a xlink:href="Iotr__Initializer_8h.html" target="_top" xlink:title=" ">
<polygon fill="#ffffff" stroke="#000000" points="0,-275.5 0,-293.5 128.2705,-293.5 128.2705,-275.5 0,-275.5"/>
<text text-anchor="middle" x="64.1353" y="-281.5" font-family="Helvetica,sans-Serif" font-size="10.00" fill="#000000">transform/Iotr_Initializer.h</text>
</a>
</g>
</g>
<!-- Node0&#45;&gt;Node1 -->
<g id="edge1" class="edge">
<title>Node0&#45;&gt;Node1</title>
<path fill="none" stroke="#191970" d="M516.2044,-339.2122C440.0641,-330.4094 282.6232,-312.05 138.9372,-294.2142"/>
<polygon fill="#191970" stroke="#191970" points="138.9724,-290.6917 128.6169,-292.931 138.1086,-297.6382 138.9724,-290.6917"/>
</g>
<!-- Node2 -->
<g id="node3" class="node">
<title>Node2</title>
<g id="a_node3"><a xlink:href="Iotr__MinMax_8h.html" target="_top" xlink:title=" ">
<polygon fill="#ffffff" stroke="#000000" points="429.9531,-275.5 429.9531,-293.5 554.3174,-293.5 554.3174,-275.5 429.9531,-275.5"/>
<text text-anchor="middle" x="492.1353" y="-281.5" font-family="Helvetica,sans-Serif" font-size="10.00" fill="#000000">transform/Iotr_MinMax.h</text>
</a>
</g>
</g>
<!-- Node0&#45;&gt;Node2 -->
<g id="edge2" class="edge">
<title>Node0&#45;&gt;Node2</title>
<path fill="none" stroke="#191970" d="M545.5462,-330.2808C534.9789,-321.2232 521.2815,-309.4825 510.4037,-300.1586"/>
<polygon fill="#191970" stroke="#191970" points="512.6038,-297.4347 502.7335,-293.5842 508.0483,-302.7495 512.6038,-297.4347"/>
</g>
<!-- Node24 -->
<g id="node25" class="node">
<title>Node24</title>
<g id="a_node25"><a xlink:href="Iotr__Offset_8h.html" target="_top" xlink:title=" ">
<polygon fill="#ffffff" stroke="#000000" points="146.2061,-275.5 146.2061,-293.5 262.0645,-293.5 262.0645,-275.5 146.2061,-275.5"/>
<text text-anchor="middle" x="204.1353" y="-281.5" font-family="Helvetica,sans-Serif" font-size="10.00" fill="#000000">transform/Iotr_Offset.h</text>
</a>
</g>
</g>
<!-- Node0&#45;&gt;Node24 -->
<g id="edge41" class="edge">
<title>Node0&#45;&gt;Node24</title>
<path fill="none" stroke="#191970" d="M516.0659,-336.7789C452.9775,-326.2054 339.4183,-307.1731 268.1096,-295.222"/>
<polygon fill="#191970" stroke="#191970" points="268.3472,-291.713 257.9062,-293.5119 267.1901,-298.6168 268.3472,-291.713"/>
</g>
<!-- Node25 -->
<g id="node26" class="node">
<title>Node25</title>
<g id="a_node26"><a xlink:href="Iotr__Offset3D_8h.html" target="_top" xlink:title=" ">
<polygon fill="#ffffff" stroke="#000000" points="892.8145,-275.5 892.8145,-293.5 1021.4561,-293.5 1021.4561,-275.5 892.8145,-275.5"/>
<text text-anchor="middle" x="957.1353" y="-281.5" font-family="Helvetica,sans-Serif" font-size="10.00" fill="#000000">transform/Iotr_Offset3D.h</text>
</a>
</g>
</g>
<!-- Node0&#45;&gt;Node25 -->
<g id="edge45" class="edge">
<title>Node0&#45;&gt;Node25</title>
<path fill="none" stroke="#191970" d="M608.2198,-337.4998C677.112,-327.0352 807.4338,-307.2395 887.8373,-295.0263"/>
<polygon fill="#191970" stroke="#191970" points="888.5103,-298.4643 897.8712,-293.5021 887.459,-291.5437 888.5103,-298.4643"/>
</g>
<!-- Node26 -->
<g id="node27" class="node">
<title>Node26</title>
<g id="a_node27"><a xlink:href="Iotr__Scale_8h.html" target="_top" xlink:title=" ">
<polygon fill="#ffffff" stroke="#000000" points="297.9482,-275.5 297.9482,-293.5 412.3223,-293.5 412.3223,-275.5 297.9482,-275.5"/>
<text text-anchor="middle" x="355.1353" y="-281.5" font-family="Helvetica,sans-Serif" font-size="10.00" fill="#000000">transform/Iotr_Scale.h</text>
</a>
</g>
</g>
<!-- Node0&#45;&gt;Node26 -->
<g id="edge50" class="edge">
<title>Node0&#45;&gt;Node26</title>
<path fill="none" stroke="#191970" d="M516.1952,-331.1841C480.2038,-320.7518 430.5961,-306.3727 395.9804,-296.3392"/>
<polygon fill="#191970" stroke="#191970" points="396.7743,-292.9253 386.1952,-293.5029 394.8255,-299.6486 396.7743,-292.9253"/>
</g>
<!-- Node27 -->
<g id="node28" class="node">
<title>Node27</title>
<g id="a_node28"><a xlink:href="Iotr__Scale3D_8h.html" target="_top" xlink:title=" ">
<polygon fill="#ffffff" stroke="#000000" points="1039.5566,-275.5 1039.5566,-293.5 1166.7139,-293.5 1166.7139,-275.5 1039.5566,-275.5"/>
<text text-anchor="middle" x="1103.1353" y="-281.5" font-family="Helvetica,sans-Serif" font-size="10.00" fill="#000000">transform/Iotr_Scale3D.h</text>
</a>
</g>
</g>
<!-- Node0&#45;&gt;Node27 -->
<g id="edge54" class="edge">
<title>Node0&#45;&gt;Node27</title>
<path fill="none" stroke="#191970" d="M608.0091,-339.887C690.1565,-331.5528 868.055,-313.1713 1029.3368,-294.0726"/>
<polygon fill="#191970" stroke="#191970" points="1029.9269,-297.5272 1039.4443,-292.8721 1029.1012,-290.576 1029.9269,-297.5272"/>
</g>
<!-- Node28 -->
<g id="node29" class="node">
<title>Node28</title>
<g id="a_node29"><a xlink:href="Iotr__Tensor_8h.html" target="_top" xlink:title=" ">
<polygon fill="#ffffff" stroke="#000000" points="572.7217,-275.5 572.7217,-293.5 691.5488,-293.5 691.5488,-275.5 572.7217,-275.5"/>
<text text-anchor="middle" x="632.1353" y="-281.5" font-family="Helvetica,sans-Serif" font-size="10.00" fill="#000000">transform/Iotr_Tensor.h</text>
</a>
</g>
</g>
<!-- Node0&#45;&gt;Node28 -->
<g id="edge59" class="edge">
<title>Node0&#45;&gt;Node28</title>
<path fill="none" stroke="#191970" d="M578.7243,-330.2808C589.2916,-321.2232 602.989,-309.4825 613.8669,-300.1586"/>
<polygon fill="#191970" stroke="#191970" points="616.2222,-302.7495 621.537,-293.5842 611.6667,-297.4347 616.2222,-302.7495"/>
</g>
<!-- Node29 -->
<g id="node30" class="node">
<title>Node29</title>
<g id="a_node30"><a xlink:href="Iotr__VectorMagnitude_8h.html" target="_top" xlink:title=" ">
<polygon fill="#ffffff" stroke="#000000" points="709.9287,-275.5 709.9287,-293.5 874.3418,-293.5 874.3418,-275.5 709.9287,-275.5"/>
<text text-anchor="middle" x="792.1353" y="-281.5" font-family="Helvetica,sans-Serif" font-size="10.00" fill="#000000">transform/Iotr_VectorMagnitude.h</text>
</a>
</g>
</g>
<!-- Node0&#45;&gt;Node29 -->
<g id="edge63" class="edge">
<title>Node0&#45;&gt;Node29</title>
<path fill="none" stroke="#191970" d="M608.1264,-332.5023C648.7326,-321.9094 707.5544,-306.5646 747.6897,-296.0945"/>
<polygon fill="#191970" stroke="#191970" points="748.6758,-299.4545 757.4685,-293.5435 746.9088,-292.6811 748.6758,-299.4545"/>
</g>
<!-- Node3 -->
<g id="node4" class="node">
<title>Node3</title>
<g id="a_node4"><a xlink:href="Ioss__VariableType_8h.html" target="_top" xlink:title=" ">
<polygon fill="#ffffff" stroke="#000000" points="707.1963,-220.5 707.1963,-238.5 813.0742,-238.5 813.0742,-220.5 707.1963,-220.5"/>
<text text-anchor="middle" x="760.1353" y="-226.5" font-family="Helvetica,sans-Serif" font-size="10.00" fill="#000000">Ioss_VariableType.h</text>
</a>
</g>
</g>
<!-- Node2&#45;&gt;Node3 -->
<g id="edge3" class="edge">
<title>Node2&#45;&gt;Node3</title>
<path fill="none" stroke="#191970" d="M536.0899,-275.4795C582.6303,-265.9282 656.1428,-250.8417 706.1683,-240.5753"/>
<polygon fill="#191970" stroke="#191970" points="707.0644,-243.9644 716.1566,-238.5255 705.6571,-237.1073 707.0644,-243.9644"/>
</g>
<!-- Node8 -->
<g id="node9" class="node">
<title>Node8</title>
<g id="a_node9"><a xlink:title=" ">
<polygon fill="#ffffff" stroke="#bfbfbf" points="720.9087,-.5 720.9087,-18.5 761.3618,-18.5 761.3618,-.5 720.9087,-.5"/>
<text text-anchor="middle" x="741.1353" y="-6.5" font-family="Helvetica,sans-Serif" font-size="10.00" fill="#000000">string</text>
</a>
</g>
</g>
<!-- Node2&#45;&gt;Node8 -->
<g id="edge40" class="edge">
<title>Node2&#45;&gt;Node8</title>
<path fill="none" stroke="#191970" d="M481.979,-275.2981C463.6978,-257.6699 427.1353,-217.0898 427.1353,-174.5 427.1353,-174.5 427.1353,-174.5 427.1353,-119.5 427.1353,-73.4807 466.3565,-74.2955 508.1353,-55 576.0305,-23.6425 664.7363,-13.8783 710.641,-10.8507"/>
<polygon fill="#191970" stroke="#191970" points="711.049,-14.3327 720.8234,-10.2448 710.6331,-7.3451 711.049,-14.3327"/>
</g>
<!-- Node23 -->
<g id="node24" class="node">
<title>Node23</title>
<g id="a_node24"><a xlink:href="Ioss__Transform_8h.html" target="_top" xlink:title=" ">
<polygon fill="#ffffff" stroke="#000000" points="573.417,-220.5 573.417,-238.5 666.8535,-238.5 666.8535,-220.5 573.417,-220.5"/>
<text text-anchor="middle" x="620.1353" y="-226.5" font-family="Helvetica,sans-Serif" font-size="10.00" fill="#000000">Ioss_Transform.h</text>
</a>
</g>
</g>
<!-- Node2&#45;&gt;Node23 -->
<g id="edge34" class="edge">
<title>Node2&#45;&gt;Node23</title>
<path fill="none" stroke="#191970" d="M513.2719,-275.4179C534.1163,-266.4613 566.1876,-252.6806 589.7597,-242.552"/>
<polygon fill="#191970" stroke="#191970" points="591.1613,-245.7592 598.9673,-238.5956 588.3977,-239.3278 591.1613,-245.7592"/>
</g>
<!-- Node4 -->
<g id="node5" class="node">
<title>Node4</title>
<g id="a_node5"><a xlink:href="Ioss__CodeTypes_8h.html" target="_top" xlink:title=" ">
<polygon fill="#ffffff" stroke="#000000" points="1301.7192,-55.5 1301.7192,-73.5 1400.5513,-73.5 1400.5513,-55.5 1301.7192,-55.5"/>
<text text-anchor="middle" x="1351.1353" y="-61.5" font-family="Helvetica,sans-Serif" font-size="10.00" fill="#000000">Ioss_CodeTypes.h</text>
</a>
</g>
</g>
<!-- Node3&#45;&gt;Node4 -->
<g id="edge4" class="edge">
<title>Node3&#45;&gt;Node4</title>
<path fill="none" stroke="#191970" d="M770.38,-220.294C796.8524,-197.1122 870.6161,-136.3098 944.1353,-110 1006.5444,-87.6661 1193.9503,-73.7287 1291.1645,-67.8045"/>
<polygon fill="#191970" stroke="#191970" points="1291.6493,-71.2817 1301.4215,-67.1888 1291.2298,-64.2943 1291.6493,-71.2817"/>
</g>
<!-- Node3&#45;&gt;Node8 -->
<g id="edge32" class="edge">
<title>Node3&#45;&gt;Node8</title>
<path fill="none" stroke="#191970" d="M751.0801,-220.3393C743.2908,-211.7645 732.6221,-198.1793 728.1353,-184 710.9255,-129.6141 725.9562,-61.1289 735.1903,-28.4878"/>
<polygon fill="#191970" stroke="#191970" points="738.5564,-29.447 738.0446,-18.8645 731.8454,-27.4564 738.5564,-29.447"/>
</g>
<!-- Node9 -->
<g id="node10" class="node">
<title>Node9</title>
<g id="a_node10"><a xlink:title=" ">
<polygon fill="#ffffff" stroke="#bfbfbf" points="1596.5195,-.5 1596.5195,-18.5 1639.751,-18.5 1639.751,-.5 1596.5195,-.5"/>
<text text-anchor="middle" x="1618.1353" y="-6.5" font-family="Helvetica,sans-Serif" font-size="10.00" fill="#000000">vector</text>
</a>
</g>
</g>
<!-- Node3&#45;&gt;Node9 -->
<g id="edge33" class="edge">
<title>Node3&#45;&gt;Node9</title>
<path fill="none" stroke="#191970" d="M813.2128,-227.2153C1001.2782,-219.0596 1625.0459,-191.4689 1632.1353,-184 1672.6979,-141.2657 1643.7975,-63.1843 1627.3783,-27.7979"/>
<polygon fill="#191970" stroke="#191970" points="1630.4581,-26.1267 1622.9597,-18.6418 1624.1539,-29.1691 1630.4581,-26.1267"/>
</g>
<!-- Node12 -->
<g id="node13" class="node">
<title>Node12</title>
<g id="a_node13"><a xlink:href="Ioss__Utils_8h.html" target="_top" xlink:title=" ">
<polygon fill="#ffffff" stroke="#000000" points="1212.293,-165.5 1212.293,-183.5 1279.9775,-183.5 1279.9775,-165.5 1212.293,-165.5"/>
<text text-anchor="middle" x="1246.1353" y="-171.5" font-family="Helvetica,sans-Serif" font-size="10.00" fill="#000000">Ioss_Utils.h</text>
</a>
</g>
</g>
<!-- Node3&#45;&gt;Node12 -->
<g id="edge12" class="edge">
<title>Node3&#45;&gt;Node12</title>
<path fill="none" stroke="#191970" d="M813.536,-223.4567C910.3095,-212.505 1112.9028,-189.5778 1202.2284,-179.4689"/>
<polygon fill="#191970" stroke="#191970" points="1202.7494,-182.9324 1212.2924,-178.33 1201.9622,-175.9768 1202.7494,-182.9324"/>
</g>
<!-- Node20 -->
<g id="node21" class="node">
<title>Node20</title>
<g id="a_node21"><a xlink:title=" ">
<polygon fill="#ffffff" stroke="#bfbfbf" points="737.4087,-165.5 737.4087,-183.5 782.8618,-183.5 782.8618,-165.5 737.4087,-165.5"/>
<text text-anchor="middle" x="760.1353" y="-171.5" font-family="Helvetica,sans-Serif" font-size="10.00" fill="#000000">cstring</text>
</a>
</g>
</g>
<!-- Node3&#45;&gt;Node20 -->
<g id="edge29" class="edge">
<title>Node3&#45;&gt;Node20</title>
<path fill="none" stroke="#191970" d="M760.1353,-220.4179C760.1353,-213.2164 760.1353,-202.8962 760.1353,-193.8632"/>
<polygon fill="#191970" stroke="#191970" points="763.6354,-193.7794 760.1353,-183.7795 756.6354,-193.7795 763.6354,-193.7794"/>
</g>
<!-- Node21 -->
<g id="node22" class="node">
<title>Node21</title>
<g id="a_node22"><a xlink:title=" ">
<polygon fill="#ffffff" stroke="#bfbfbf" points="568.7314,-165.5 568.7314,-183.5 627.5391,-183.5 627.5391,-165.5 568.7314,-165.5"/>
<text text-anchor="middle" x="598.1353" y="-171.5" font-family="Helvetica,sans-Serif" font-size="10.00" fill="#000000">functional</text>
</a>
</g>
</g>
<!-- Node3&#45;&gt;Node21 -->
<g id="edge30" class="edge">
<title>Node3&#45;&gt;Node21</title>
<path fill="none" stroke="#191970" d="M733.3842,-220.4179C706.336,-211.2348 664.3513,-196.9807 634.3375,-186.7909"/>
<polygon fill="#191970" stroke="#191970" points="635.2511,-183.4049 624.6567,-183.5042 633.0007,-190.0333 635.2511,-183.4049"/>
</g>
<!-- Node22 -->
<g id="node23" class="node">
<title>Node22</title>
<g id="a_node23"><a xlink:title=" ">
<polygon fill="#ffffff" stroke="#bfbfbf" points="645.4087,-165.5 645.4087,-183.5 680.8618,-183.5 680.8618,-165.5 645.4087,-165.5"/>
<text text-anchor="middle" x="663.1353" y="-171.5" font-family="Helvetica,sans-Serif" font-size="10.00" fill="#000000">map</text>
</a>
</g>
</g>
<!-- Node3&#45;&gt;Node22 -->
<g id="edge31" class="edge">
<title>Node3&#45;&gt;Node22</title>
<path fill="none" stroke="#191970" d="M744.1177,-220.4179C728.9533,-211.8195 705.9482,-198.7754 688.3278,-188.7844"/>
<polygon fill="#191970" stroke="#191970" points="689.6019,-185.4834 679.1766,-183.5956 686.1492,-191.5727 689.6019,-185.4834"/>
</g>
<!-- Node5 -->
<g id="node6" class="node">
<title>Node5</title>
<g id="a_node6"><a xlink:title=" ">
<polygon fill="#ffffff" stroke="#bfbfbf" points="1358.7437,-.5 1358.7437,-18.5 1397.5269,-18.5 1397.5269,-.5 1358.7437,-.5"/>
<text text-anchor="middle" x="1378.1353" y="-6.5" font-family="Helvetica,sans-Serif" font-size="10.00" fill="#000000">array</text>
</a>
</g>
</g>
<!-- Node4&#45;&gt;Node5 -->
<g id="edge5" class="edge">
<title>Node4&#45;&gt;Node5</title>
<path fill="none" stroke="#191970" d="M1355.5938,-55.4179C1359.2456,-47.9789 1364.531,-37.2123 1369.0661,-27.9742"/>
<polygon fill="#191970" stroke="#191970" points="1372.3149,-29.2985 1373.5799,-18.7795 1366.0313,-26.2138 1372.3149,-29.2985"/>
</g>
<!-- Node6 -->
<g id="node7" class="node">
<title>Node6</title>
<g id="a_node7"><a xlink:title=" ">
<polygon fill="#ffffff" stroke="#bfbfbf" points="1479.0146,-.5 1479.0146,-18.5 1527.2559,-18.5 1527.2559,-.5 1479.0146,-.5"/>
<text text-anchor="middle" x="1503.1353" y="-6.5" font-family="Helvetica,sans-Serif" font-size="10.00" fill="#000000">cstddef</text>
</a>
</g>
</g>
<!-- Node4&#45;&gt;Node6 -->
<g id="edge6" class="edge">
<title>Node4&#45;&gt;Node6</title>
<path fill="none" stroke="#191970" d="M1376.235,-55.4179C1401.7295,-46.1929 1441.3669,-31.8504 1469.5529,-21.6515"/>
<polygon fill="#191970" stroke="#191970" points="1470.7907,-24.9258 1479.0032,-18.232 1468.4089,-18.3434 1470.7907,-24.9258"/>
</g>
<!-- Node7 -->
<g id="node8" class="node">
<title>Node7</title>
<g id="a_node8"><a xlink:title=" ">
<polygon fill="#ffffff" stroke="#bfbfbf" points="1415.6846,-.5 1415.6846,-18.5 1460.5859,-18.5 1460.5859,-.5 1415.6846,-.5"/>
<text text-anchor="middle" x="1438.1353" y="-6.5" font-family="Helvetica,sans-Serif" font-size="10.00" fill="#000000">cstdint</text>
</a>
</g>
</g>
<!-- Node4&#45;&gt;Node7 -->
<g id="edge7" class="edge">
<title>Node4&#45;&gt;Node7</title>
<path fill="none" stroke="#191970" d="M1365.5015,-55.4179C1378.9766,-46.8992 1399.3545,-34.0166 1415.0997,-24.0627"/>
<polygon fill="#191970" stroke="#191970" points="1417.1653,-26.8977 1423.7476,-18.5956 1413.4248,-20.9808 1417.1653,-26.8977"/>
</g>
<!-- Node4&#45;&gt;Node8 -->
<g id="edge8" class="edge">
<title>Node4&#45;&gt;Node8</title>
<path fill="none" stroke="#191970" d="M1301.475,-60.0224C1179.8973,-49.0605 870.0799,-21.1262 771.6448,-12.2509"/>
<polygon fill="#191970" stroke="#191970" points="771.7608,-8.7472 761.4868,-11.335 771.1321,-15.7189 771.7608,-8.7472"/>
</g>
<!-- Node4&#45;&gt;Node9 -->
<g id="edge9" class="edge">
<title>Node4&#45;&gt;Node9</title>
<path fill="none" stroke="#191970" d="M1394.9259,-55.4795C1448.7046,-44.4014 1538.6324,-25.877 1586.2713,-16.0637"/>
<polygon fill="#191970" stroke="#191970" points="1587.2323,-19.4393 1596.3205,-13.9937 1585.82,-12.5833 1587.2323,-19.4393"/>
</g>
<!-- Node10 -->
<g id="node11" class="node">
<title>Node10</title>
<g id="a_node11"><a xlink:title=" ">
<polygon fill="#ffffff" stroke="#bfbfbf" points="1154.3867,-.5 1154.3867,-18.5 1269.8838,-18.5 1269.8838,-.5 1154.3867,-.5"/>
<text text-anchor="middle" x="1212.1353" y="-6.5" font-family="Helvetica,sans-Serif" font-size="10.00" fill="#000000">SEACASIoss_config.h</text>
</a>
</g>
</g>
<!-- Node4&#45;&gt;Node10 -->
<g id="edge10" class="edge">
<title>Node4&#45;&gt;Node10</title>
<path fill="none" stroke="#191970" d="M1328.1822,-55.4179C1305.3453,-46.3817 1270.099,-32.4353 1244.4408,-22.2828"/>
<polygon fill="#191970" stroke="#191970" points="1245.7087,-19.0205 1235.1224,-18.5956 1243.1332,-25.5295 1245.7087,-19.0205"/>
</g>
<!-- Node11 -->
<g id="node12" class="node">
<title>Node11</title>
<g id="a_node12"><a xlink:title=" ">
<polygon fill="#ffffff" stroke="#bfbfbf" points="1287.5171,-.5 1287.5171,-18.5 1340.7534,-18.5 1340.7534,-.5 1287.5171,-.5"/>
<text text-anchor="middle" x="1314.1353" y="-6.5" font-family="Helvetica,sans-Serif" font-size="10.00" fill="#000000">complex</text>
</a>
</g>
</g>
<!-- Node4&#45;&gt;Node11 -->
<g id="edge11" class="edge">
<title>Node4&#45;&gt;Node11</title>
<path fill="none" stroke="#191970" d="M1345.0255,-55.4179C1339.8614,-47.7415 1332.3135,-36.5217 1325.9715,-27.0945"/>
<polygon fill="#191970" stroke="#191970" points="1328.8636,-25.1231 1320.3778,-18.7795 1323.0556,-29.0303 1328.8636,-25.1231"/>
</g>
<!-- Node12&#45;&gt;Node4 -->
<g id="edge13" class="edge">
<title>Node12&#45;&gt;Node4</title>
<path fill="none" stroke="#191970" d="M1280.1473,-170.8882C1306.5866,-166.0931 1341.6172,-154.9386 1359.1353,-129 1368.1938,-115.5873 1364.5897,-96.9559 1359.6691,-83.1646"/>
<polygon fill="#191970" stroke="#191970" points="1362.8426,-81.6769 1355.8375,-73.7284 1356.3569,-84.3105 1362.8426,-81.6769"/>
</g>
<!-- Node12&#45;&gt;Node6 -->
<g id="edge22" class="edge">
<title>Node12&#45;&gt;Node6</title>
<path fill="none" stroke="#191970" d="M1280.0636,-173.6771C1343.235,-171.3522 1475.0403,-162.5058 1503.1353,-129 1526.8128,-100.7623 1517.6331,-54.1797 1509.7931,-28.3036"/>
<polygon fill="#191970" stroke="#191970" points="1513.0525,-27.0102 1506.6148,-18.5955 1506.3999,-29.1882 1513.0525,-27.0102"/>
</g>
<!-- Node12&#45;&gt;Node7 -->
<g id="edge23" class="edge">
<title>Node12&#45;&gt;Node7</title>
<path fill="none" stroke="#191970" d="M1280.0291,-173.1755C1339.6643,-170.0559 1459.4847,-159.9945 1485.1353,-129 1510.9307,-97.8304 1476.5313,-50.7971 1454.32,-26.0574"/>
<polygon fill="#191970" stroke="#191970" points="1456.7338,-23.5136 1447.3593,-18.5772 1451.6093,-28.2822 1456.7338,-23.5136"/>
</g>
<!-- Node12&#45;&gt;Node8 -->
<g id="edge27" class="edge">
<title>Node12&#45;&gt;Node8</title>
<path fill="none" stroke="#191970" d="M1212.289,-173.0419C1142.8828,-169.4767 987.3291,-158.3588 944.1353,-129 912.676,-107.6171 931.1681,-78.3439 901.1353,-55 862.9074,-25.2863 806.1264,-14.9769 771.4895,-11.4001"/>
<polygon fill="#191970" stroke="#191970" points="771.7718,-7.9114 761.4961,-10.4922 771.1383,-14.8827 771.7718,-7.9114"/>
</g>
<!-- Node12&#45;&gt;Node9 -->
<g id="edge28" class="edge">
<title>Node12&#45;&gt;Node9</title>
<path fill="none" stroke="#191970" d="M1280.0672,-171.8949C1344.2559,-166.4823 1480.6556,-152.5256 1521.1353,-129 1563.1308,-104.5933 1594.394,-54.596 1608.9923,-27.6559"/>
<polygon fill="#191970" stroke="#191970" points="1612.2167,-29.0433 1613.7589,-18.5613 1606.0166,-25.7938 1612.2167,-29.0433"/>
</g>
<!-- Node13 -->
<g id="node14" class="node">
<title>Node13</title>
<g id="a_node14"><a xlink:href="Ioss__Field_8h.html" target="_top" xlink:title=" ">
<polygon fill="#ffffff" stroke="#000000" points="1406.1772,-110.5 1406.1772,-128.5 1476.0933,-128.5 1476.0933,-110.5 1406.1772,-110.5"/>
<text text-anchor="middle" x="1441.1353" y="-116.5" font-family="Helvetica,sans-Serif" font-size="10.00" fill="#000000">Ioss_Field.h</text>
</a>
</g>
</g>
<!-- Node12&#45;&gt;Node13 -->
<g id="edge14" class="edge">
<title>Node12&#45;&gt;Node13</title>
<path fill="none" stroke="#191970" d="M1278.3355,-165.4179C1311.4598,-156.0751 1363.1941,-141.4834 1399.4301,-131.263"/>
<polygon fill="#191970" stroke="#191970" points="1400.5369,-134.5875 1409.2112,-128.5042 1398.6366,-127.8503 1400.5369,-134.5875"/>
</g>
<!-- Node14 -->
<g id="node15" class="node">
<title>Node14</title>
<g id="a_node15"><a xlink:title=" ">
<polygon fill="#ffffff" stroke="#bfbfbf" points="953.5713,-110.5 953.5713,-128.5 1010.6992,-128.5 1010.6992,-110.5 953.5713,-110.5"/>
<text text-anchor="middle" x="982.1353" y="-116.5" font-family="Helvetica,sans-Serif" font-size="10.00" fill="#000000">algorithm</text>
</a>
</g>
</g>
<!-- Node12&#45;&gt;Node14 -->
<g id="edge19" class="edge">
<title>Node12&#45;&gt;Node14</title>
<path fill="none" stroke="#191970" d="M1211.9546,-168.1294C1169.5082,-160.1064 1094.6607,-145.5939 1020.6903,-129.0421"/>
<polygon fill="#191970" stroke="#191970" points="1021.2599,-125.5828 1010.7353,-126.8007 1019.7223,-132.4118 1021.2599,-125.5828"/>
</g>
<!-- Node15 -->
<g id="node16" class="node">
<title>Node15</title>
<g id="a_node16"><a xlink:title=" ">
<polygon fill="#ffffff" stroke="#bfbfbf" points="1029.0195,-110.5 1029.0195,-128.5 1077.251,-128.5 1077.251,-110.5 1029.0195,-110.5"/>
<text text-anchor="middle" x="1053.1353" y="-116.5" font-family="Helvetica,sans-Serif" font-size="10.00" fill="#000000">cassert</text>
</a>
</g>
</g>
<!-- Node12&#45;&gt;Node15 -->
<g id="edge20" class="edge">
<title>Node12&#45;&gt;Node15</title>
<path fill="none" stroke="#191970" d="M1214.2516,-165.4659C1183.9088,-156.8611 1136.7127,-143.4584 1086.9358,-129.2231"/>
<polygon fill="#191970" stroke="#191970" points="1087.8602,-125.8472 1077.2832,-126.4614 1085.9347,-132.5772 1087.8602,-125.8472"/>
</g>
<!-- Node16 -->
<g id="node17" class="node">
<title>Node16</title>
<g id="a_node17"><a xlink:title=" ">
<polygon fill="#ffffff" stroke="#bfbfbf" points="1095.5195,-110.5 1095.5195,-128.5 1138.751,-128.5 1138.751,-110.5 1095.5195,-110.5"/>
<text text-anchor="middle" x="1117.1353" y="-116.5" font-family="Helvetica,sans-Serif" font-size="10.00" fill="#000000">cmath</text>
</a>
</g>
</g>
<!-- Node12&#45;&gt;Node16 -->
<g id="edge21" class="edge">
<title>Node12&#45;&gt;Node16</title>
<path fill="none" stroke="#191970" d="M1224.8335,-165.4179C1203.8262,-156.4613 1171.5044,-142.6806 1147.7481,-132.552"/>
<polygon fill="#191970" stroke="#191970" points="1149.0402,-129.2981 1138.4686,-128.5956 1146.2947,-135.7372 1149.0402,-129.2981"/>
</g>
<!-- Node17 -->
<g id="node18" class="node">
<title>Node17</title>
<g id="a_node18"><a xlink:title=" ">
<polygon fill="#ffffff" stroke="#bfbfbf" points="1156.9629,-110.5 1156.9629,-128.5 1201.3076,-128.5 1201.3076,-110.5 1156.9629,-110.5"/>
<text text-anchor="middle" x="1179.1353" y="-116.5" font-family="Helvetica,sans-Serif" font-size="10.00" fill="#000000">cstdlib</text>
</a>
</g>
</g>
<!-- Node12&#45;&gt;Node17 -->
<g id="edge24" class="edge">
<title>Node12&#45;&gt;Node17</title>
<path fill="none" stroke="#191970" d="M1235.0716,-165.4179C1225.142,-157.2667 1210.3452,-145.1201 1198.4641,-135.3669"/>
<polygon fill="#191970" stroke="#191970" points="1200.3894,-132.4192 1190.4393,-128.7795 1195.9479,-137.8297 1200.3894,-132.4192"/>
</g>
<!-- Node18 -->
<g id="node19" class="node">
<title>Node18</title>
<g id="a_node19"><a xlink:title=" ">
<polygon fill="#ffffff" stroke="#bfbfbf" points="1218.9629,-110.5 1218.9629,-128.5 1273.3076,-128.5 1273.3076,-110.5 1218.9629,-110.5"/>
<text text-anchor="middle" x="1246.1353" y="-116.5" font-family="Helvetica,sans-Serif" font-size="10.00" fill="#000000">iostream</text>
</a>
</g>
</g>
<!-- Node12&#45;&gt;Node18 -->
<g id="edge25" class="edge">
<title>Node12&#45;&gt;Node18</title>
<path fill="none" stroke="#191970" d="M1246.1353,-165.4179C1246.1353,-158.2164 1246.1353,-147.8962 1246.1353,-138.8632"/>
<polygon fill="#191970" stroke="#191970" points="1249.6354,-138.7794 1246.1353,-128.7795 1242.6354,-138.7795 1249.6354,-138.7794"/>
</g>
<!-- Node19 -->
<g id="node20" class="node">
<title>Node19</title>
<g id="a_node20"><a xlink:title=" ">
<polygon fill="#ffffff" stroke="#bfbfbf" points="1291.7339,-110.5 1291.7339,-128.5 1350.5366,-128.5 1350.5366,-110.5 1291.7339,-110.5"/>
<text text-anchor="middle" x="1321.1353" y="-116.5" font-family="Helvetica,sans-Serif" font-size="10.00" fill="#000000">stdexcept</text>
</a>
</g>
</g>
<!-- Node12&#45;&gt;Node19 -->
<g id="edge26" class="edge">
<title>Node12&#45;&gt;Node19</title>
<path fill="none" stroke="#191970" d="M1258.52,-165.4179C1269.9193,-157.0584 1287.0489,-144.4966 1300.5117,-134.6239"/>
<polygon fill="#191970" stroke="#191970" points="1302.7378,-137.3317 1308.7321,-128.5956 1298.5983,-131.6869 1302.7378,-137.3317"/>
</g>
<!-- Node13&#45;&gt;Node4 -->
<g id="edge15" class="edge">
<title>Node13&#45;&gt;Node4</title>
<path fill="none" stroke="#191970" d="M1426.2736,-110.4179C1412.3339,-101.8992 1391.2533,-89.0166 1374.9652,-79.0627"/>
<polygon fill="#191970" stroke="#191970" points="1376.3769,-75.8237 1366.019,-73.5956 1372.7267,-81.7967 1376.3769,-75.8237"/>
</g>
<!-- Node13&#45;&gt;Node6 -->
<g id="edge16" class="edge">
<title>Node13&#45;&gt;Node6</title>
<path fill="none" stroke="#191970" d="M1446.209,-110.4982C1456.4273,-92.369 1479.6515,-51.1647 1493.0654,-27.3659"/>
<polygon fill="#191970" stroke="#191970" points="1496.1303,-29.0562 1497.9914,-18.6261 1490.0322,-25.6191 1496.1303,-29.0562"/>
</g>
<!-- Node13&#45;&gt;Node8 -->
<g id="edge17" class="edge">
<title>Node13&#45;&gt;Node8</title>
<path fill="none" stroke="#191970" d="M1405.9424,-113.9697C1284.6792,-94.9141 885.4303,-32.1749 771.647,-14.2947"/>
<polygon fill="#191970" stroke="#191970" points="771.9679,-10.8023 761.5458,-12.7074 770.8812,-17.7174 771.9679,-10.8023"/>
</g>
<!-- Node13&#45;&gt;Node9 -->
<g id="edge18" class="edge">
<title>Node13&#45;&gt;Node9</title>
<path fill="none" stroke="#191970" d="M1455.6199,-110.4982C1486.2176,-91.4827 1557.6644,-47.0807 1594.7955,-24.005"/>
<polygon fill="#191970" stroke="#191970" points="1596.8045,-26.8773 1603.4505,-18.6261 1593.1096,-20.9319 1596.8045,-26.8773"/>
</g>
<!-- Node23&#45;&gt;Node4 -->
<g id="edge35" class="edge">
<title>Node23&#45;&gt;Node4</title>
<path fill="none" stroke="#191970" d="M600.7086,-220.3378C577.201,-208.0429 542.7964,-185.3883 560.1353,-165 607.507,-109.2968 1115.5202,-77.0817 1291.5187,-67.5283"/>
<polygon fill="#191970" stroke="#191970" points="1291.8374,-71.0163 1301.635,-66.9844 1291.4615,-64.0264 1291.8374,-71.0163"/>
</g>
<!-- Node23&#45;&gt;Node8 -->
<g id="edge38" class="edge">
<title>Node23&#45;&gt;Node8</title>
<path fill="none" stroke="#191970" d="M596.9863,-220.4427C573.0051,-209.5332 540.5323,-189.5718 552.1353,-165 585.3499,-94.6609 667.711,-45.4025 711.9433,-23.0447"/>
<polygon fill="#191970" stroke="#191970" points="713.6115,-26.1245 721.0296,-18.56 710.5133,-19.8475 713.6115,-26.1245"/>
</g>
<!-- Node23&#45;&gt;Node9 -->
<g id="edge39" class="edge">
<title>Node23&#45;&gt;Node9</title>
<path fill="none" stroke="#191970" d="M667.1073,-223.3137C677.3235,-222.0984 688.0822,-220.9176 698.1353,-220 886.8771,-202.7735 1380.0561,-220.3125 1546.1353,-129 1576.154,-112.4953 1582.9894,-103.6572 1600.1353,-74 1608.227,-60.0036 1612.8391,-42.1806 1615.3642,-28.8183"/>
<polygon fill="#191970" stroke="#191970" points="1618.8382,-29.2637 1617.0251,-18.8251 1611.9329,-28.116 1618.8382,-29.2637"/>
</g>
<!-- Node23&#45;&gt;Node21 -->
<g id="edge36" class="edge">
<title>Node23&#45;&gt;Node21</title>
<path fill="none" stroke="#191970" d="M616.5024,-220.4179C613.5585,-213.0581 609.3117,-202.441 605.6431,-193.2695"/>
<polygon fill="#191970" stroke="#191970" points="608.8107,-191.7643 601.847,-183.7795 602.3113,-194.3641 608.8107,-191.7643"/>
</g>
<!-- Node23&#45;&gt;Node22 -->
<g id="edge37" class="edge">
<title>Node23&#45;&gt;Node22</title>
<path fill="none" stroke="#191970" d="M627.2358,-220.4179C633.2992,-212.6624 642.1903,-201.29 649.6071,-191.8035"/>
<polygon fill="#191970" stroke="#191970" points="652.4785,-193.8133 655.8804,-183.7795 646.9638,-189.5018 652.4785,-193.8133"/>
</g>
<!-- Node24&#45;&gt;Node8 -->
<g id="edge43" class="edge">
<title>Node24&#45;&gt;Node8</title>
<path fill="none" stroke="#191970" d="M214.7603,-275.3951C233.8853,-257.9286 272.1353,-217.6071 272.1353,-174.5 272.1353,-174.5 272.1353,-174.5 272.1353,-119.5 272.1353,-29.1334 606.3393,-12.9479 710.5109,-10.0978"/>
<polygon fill="#191970" stroke="#191970" points="710.7723,-13.5925 720.6813,-9.8427 710.5967,-6.5947 710.7723,-13.5925"/>
</g>
<!-- Node24&#45;&gt;Node23 -->
<g id="edge42" class="edge">
<title>Node24&#45;&gt;Node23</title>
<path fill="none" stroke="#191970" d="M262.4163,-276.7946C342.0255,-266.2693 483.8811,-247.5144 562.9267,-237.0636"/>
<polygon fill="#191970" stroke="#191970" points="563.7275,-240.4883 573.1825,-235.7077 562.81,-233.5487 563.7275,-240.4883"/>
</g>
<!-- Node24&#45;&gt;Node24 -->
<g id="edge44" class="edge">
<title>Node24&#45;&gt;Node24</title>
<path fill="none" stroke="#191970" d="M235.333,-293.5349C257.7423,-296.4765 280.0645,-293.4648 280.0645,-284.5 280.0645,-276.9009 264.0255,-273.5793 245.4901,-274.5352"/>
<polygon fill="#191970" stroke="#191970" points="244.9722,-271.0679 235.333,-275.4651 245.6105,-278.0387 244.9722,-271.0679"/>
</g>
<!-- Node25&#45;&gt;Node3 -->
<g id="edge46" class="edge">
<title>Node25&#45;&gt;Node3</title>
<path fill="none" stroke="#191970" d="M924.6047,-275.4179C891.1407,-266.0751 838.8758,-251.4834 802.2681,-241.263"/>
<polygon fill="#191970" stroke="#191970" points="802.9596,-237.8222 792.3867,-238.5042 801.0772,-244.5644 802.9596,-237.8222"/>
</g>
<!-- Node25&#45;&gt;Node8 -->
<g id="edge48" class="edge">
<title>Node25&#45;&gt;Node8</title>
<path fill="none" stroke="#191970" d="M950.4861,-275.0681C927.9696,-243.2766 852.1479,-137.4246 783.1353,-55 774.872,-45.1309 765.1507,-34.5402 757.1429,-26.0619"/>
<polygon fill="#191970" stroke="#191970" points="759.529,-23.4925 750.0938,-18.6729 754.4641,-28.3244 759.529,-23.4925"/>
</g>
<!-- Node25&#45;&gt;Node9 -->
<g id="edge49" class="edge">
<title>Node25&#45;&gt;Node9</title>
<path fill="none" stroke="#191970" d="M1021.5768,-275.6571C1192.757,-252.106 1646.2544,-189.2902 1652.1353,-184 1694.7715,-145.6458 1679.5656,-106.8849 1655.1353,-55 1650.1257,-44.3608 1642.1049,-34.06 1634.8098,-25.958"/>
<polygon fill="#191970" stroke="#191970" points="1637.3129,-23.511 1627.895,-18.6577 1632.2308,-28.3248 1637.3129,-23.511"/>
</g>
<!-- Node25&#45;&gt;Node23 -->
<g id="edge47" class="edge">
<title>Node25&#45;&gt;Node23</title>
<path fill="none" stroke="#191970" d="M901.8639,-275.4795C839.8663,-265.3612 739.8052,-249.0307 677.1175,-238.7998"/>
<polygon fill="#191970" stroke="#191970" points="677.4418,-235.3065 667.0085,-237.1499 676.3142,-242.2151 677.4418,-235.3065"/>
</g>
<!-- Node26&#45;&gt;Node3 -->
<g id="edge51" class="edge">
<title>Node26&#45;&gt;Node3</title>
<path fill="none" stroke="#191970" d="M412.368,-276.2279C415.3327,-275.8101 418.2687,-275.3987 421.1353,-275 517.219,-261.6371 628.7214,-246.8004 696.8365,-237.8125"/>
<polygon fill="#191970" stroke="#191970" points="697.5189,-241.2529 706.9755,-236.4756 696.6038,-234.313 697.5189,-241.2529"/>
</g>
<!-- Node26&#45;&gt;Node8 -->
<g id="edge53" class="edge">
<title>Node26&#45;&gt;Node8</title>
<path fill="none" stroke="#191970" d="M356.6648,-275.4041C359.6873,-256.6131 366.1353,-212.1172 366.1353,-174.5 366.1353,-174.5 366.1353,-174.5 366.1353,-119.5 366.1353,-47.8648 621.2875,-19.564 710.6585,-11.8484"/>
<polygon fill="#191970" stroke="#191970" points="711.0338,-15.3293 720.7073,-11.008 710.4504,-8.3536 711.0338,-15.3293"/>
</g>
<!-- Node26&#45;&gt;Node23 -->
<g id="edge52" class="edge">
<title>Node26&#45;&gt;Node23</title>
<path fill="none" stroke="#191970" d="M398.5979,-275.4795C444.6173,-265.9282 517.3069,-250.8417 566.7724,-240.5753"/>
<polygon fill="#191970" stroke="#191970" points="567.5688,-243.9847 576.6489,-238.5255 566.1463,-237.1307 567.5688,-243.9847"/>
</g>
<!-- Node27&#45;&gt;Node3 -->
<g id="edge55" class="edge">
<title>Node27&#45;&gt;Node3</title>
<path fill="none" stroke="#191970" d="M1046.8799,-275.4795C985.4524,-265.6296 887.3119,-249.8928 823.2886,-239.6266"/>
<polygon fill="#191970" stroke="#191970" points="823.7451,-236.1552 813.3171,-238.0277 822.6368,-243.0669 823.7451,-236.1552"/>
</g>
<!-- Node27&#45;&gt;Node8 -->
<g id="edge57" class="edge">
<title>Node27&#45;&gt;Node8</title>
<path fill="none" stroke="#191970" d="M1091.5452,-275.4094C1051.8005,-244.2775 917.2406,-139.2233 804.1353,-55 790.3771,-44.7551 774.7456,-33.4635 762.4949,-24.6919"/>
<polygon fill="#191970" stroke="#191970" points="764.419,-21.7651 754.2472,-18.8012 760.3505,-27.4614 764.419,-21.7651"/>
</g>
<!-- Node27&#45;&gt;Node9 -->
<g id="edge58" class="edge">
<title>Node27&#45;&gt;Node9</title>
<path fill="none" stroke="#191970" d="M1166.9086,-279.9961C1326.8187,-267.8521 1732.1353,-231.4536 1732.1353,-174.5 1732.1353,-174.5 1732.1353,-174.5 1732.1353,-119.5 1732.1353,-88.9131 1728.5205,-77.8034 1708.1353,-55 1692.5346,-37.5488 1668.682,-25.9155 1649.4514,-18.7831"/>
<polygon fill="#191970" stroke="#191970" points="1650.4794,-15.435 1639.8846,-15.4565 1648.1804,-22.0467 1650.4794,-15.435"/>
</g>
<!-- Node27&#45;&gt;Node23 -->
<g id="edge56" class="edge">
<title>Node27&#45;&gt;Node23</title>
<path fill="none" stroke="#191970" d="M1039.444,-276.1299C1036.2972,-275.7419 1033.181,-275.3633 1030.1353,-275 882.7593,-257.4222 845.5821,-255.9725 698.1353,-239 691.3972,-238.2244 684.3344,-237.3917 677.327,-236.5534"/>
<polygon fill="#191970" stroke="#191970" points="677.4911,-233.048 667.1444,-235.3271 676.6541,-239.9978 677.4911,-233.048"/>
</g>
<!-- Node28&#45;&gt;Node3 -->
<g id="edge60" class="edge">
<title>Node28&#45;&gt;Node3</title>
<path fill="none" stroke="#191970" d="M653.2719,-275.4179C674.1163,-266.4613 706.1876,-252.6806 729.7597,-242.552"/>
<polygon fill="#191970" stroke="#191970" points="731.1613,-245.7592 738.9673,-238.5956 728.3977,-239.3278 731.1613,-245.7592"/>
</g>
<!-- Node28&#45;&gt;Node8 -->
<g id="edge62" class="edge">
<title>Node28&#45;&gt;Node8</title>
<path fill="none" stroke="#191970" d="M587.8208,-275.4662C538.3462,-262.4898 465.1353,-233.3461 465.1353,-174.5 465.1353,-174.5 465.1353,-174.5 465.1353,-119.5 465.1353,-67.1248 638.8125,-28.625 710.6237,-14.9448"/>
<polygon fill="#191970" stroke="#191970" points="711.6534,-18.313 720.8403,-13.0357 710.3675,-11.4321 711.6534,-18.313"/>
</g>
<!-- Node28&#45;&gt;Node23 -->
<g id="edge61" class="edge">
<title>Node28&#45;&gt;Node23</title>
<path fill="none" stroke="#191970" d="M630.1537,-275.4179C628.5652,-268.1372 626.2812,-257.669 624.2951,-248.5659"/>
<polygon fill="#191970" stroke="#191970" points="627.7112,-247.8035 622.1599,-238.7795 620.8721,-249.2957 627.7112,-247.8035"/>
</g>
<!-- Node29&#45;&gt;Node3 -->
<g id="edge64" class="edge">
<title>Node29&#45;&gt;Node3</title>
<path fill="none" stroke="#191970" d="M786.8511,-275.4179C782.477,-267.8998 776.1253,-256.9829 770.7126,-247.6799"/>
<polygon fill="#191970" stroke="#191970" points="773.5884,-245.6628 765.5342,-238.7795 767.538,-249.1831 773.5884,-245.6628"/>
</g>
<!-- Node29&#45;&gt;Node8 -->
<g id="edge66" class="edge">
<title>Node29&#45;&gt;Node8</title>
<path fill="none" stroke="#191970" d="M800.6337,-275.2333C807.9424,-266.5871 817.9483,-252.9567 822.1353,-239 824.5617,-230.9117 823.6775,-228.3024 822.1353,-220 808.3361,-145.7154 769.3225,-63.8261 750.9431,-27.9967"/>
<polygon fill="#191970" stroke="#191970" points="753.8696,-26.0385 746.1476,-18.7844 747.6604,-29.2707 753.8696,-26.0385"/>
</g>
<!-- Node29&#45;&gt;Node23 -->
<g id="edge65" class="edge">
<title>Node29&#45;&gt;Node23</title>
<path fill="none" stroke="#191970" d="M763.733,-275.4179C734.8902,-266.1949 690.0507,-251.8567 658.1573,-241.6582"/>
<polygon fill="#191970" stroke="#191970" points="658.8848,-238.2163 648.2939,-238.5042 656.7527,-244.8837 658.8848,-238.2163"/>
</g>
</g>
</svg>
