<?xml version="1.0" encoding="UTF-8" standalone="no"?>
<!DOCTYPE svg PUBLIC "-//W3C//DTD SVG 1.1//EN"
 "http://www.w3.org/Graphics/SVG/1.1/DTD/svg11.dtd">
<!-- Generated by graphviz version 2.44.1 (20200629.0846)
 -->
<!-- Title: src/transform/Iotr_VectorMagnitude.h Pages: 1 -->
<!--zoomable 319 -->
<svg id="main" version="1.1" xmlns="http://www.w3.org/2000/svg" xmlns:xlink="http://www.w3.org/1999/xlink" xml:space="preserve" onload="init(evt)">
<style type="text/css"><![CDATA[
.edge:hover path { stroke: red; }
.edge:hover polygon { stroke: red; fill: red; }
]]></style>
<script type="text/javascript"><![CDATA[
var edges = document.getElementsByTagName('g');
if (edges && edges.length) {
  for (var i=0;i<edges.length;i++) {
    if (edges[i].id.substr(0,4)=='edge') {
      edges[i].setAttribute('class','edge');
    }
  }
}
]]></script>
        <defs>
                <circle id="rim" cx="0" cy="0" r="7"/>
                <circle id="rim2" cx="0" cy="0" r="3.5"/>
                <g id="zoomPlus">
                        <use xlink:href="#rim" fill="#404040">
                                <set attributeName="fill" to="#808080" begin="zoomplus.mouseover" end="zoomplus.mouseout"/>
                        </use>
                        <path d="M-4,0h8M0,-4v8" fill="none" stroke="white" stroke-width="1.5" pointer-events="none"/>
                </g>
                <g id="zoomMin">
                        <use xlink:href="#rim" fill="#404040">
                                <set attributeName="fill" to="#808080" begin="zoomminus.mouseover" end="zoomminus.mouseout"/>
                        </use>
                        <path d="M-4,0h8" fill="none" stroke="white" stroke-width="1.5" pointer-events="none"/>
                </g>
                <g id="dirArrow">
                        <path fill="none" stroke="white" stroke-width="1.5" d="M0,-3.0v7 M-2.5,-0.5L0,-3.0L2.5,-0.5"/>
                </g>
               <g id="resetDef">
                       <use xlink:href="#rim2" fill="#404040">
                               <set attributeName="fill" to="#808080" begin="reset.mouseover" end="reset.mouseout"/>
                       </use>
               </g>
        </defs>

<script type="text/javascript">
var viewWidth = 1046;
var viewHeight = 319;
var sectionId = 'dynsection-0';
</script>
<script xlink:href="svgpan.js"/>
<svg id="graph" class="graph">
<g id="viewport">
<title>src/transform/Iotr_VectorMagnitude.h</title>
<polygon fill="white" stroke="transparent" points="-4,4 -4,-315 1042.24,-315 1042.24,4 -4,4"/>
<!-- Node1 -->
<g id="node1" class="node">
<title>Node1</title>
<g id="a_node1"><a xlink:title=" ">
<polygon fill="#bfbfbf" stroke="black" points="746,-280.5 746,-310.5 850,-310.5 850,-280.5 746,-280.5"/>
<text text-anchor="start" x="754" y="-298.5" font-family="Helvetica,sans-Serif" font-size="10.00">src/transform/Iotr</text>
<text text-anchor="middle" x="798" y="-287.5" font-family="Helvetica,sans-Serif" font-size="10.00">_VectorMagnitude.h</text>
</a>
</g>
</g>
<!-- Node2 -->
<g id="node2" class="node">
<title>Node2</title>
<g id="a_node2"><a xlink:href="Ioss__VariableType_8h.html" target="_top" xlink:title=" ">
<polygon fill="white" stroke="black" points="746,-224.5 746,-243.5 850,-243.5 850,-224.5 746,-224.5"/>
<text text-anchor="middle" x="798" y="-231.5" font-family="Helvetica,sans-Serif" font-size="10.00">Ioss_VariableType.h</text>
</a>
</g>
</g>
<!-- Node1&#45;&gt;Node2 -->
<g id="edge1" class="edge">
<title>Node1&#45;&gt;Node2</title>
<path fill="none" stroke="midnightblue" d="M798,-280.4C798,-272.47 798,-262.46 798,-253.86"/>
<polygon fill="midnightblue" stroke="midnightblue" points="801.5,-253.66 798,-243.66 794.5,-253.66 801.5,-253.66"/>
</g>
<!-- Node7 -->
<g id="node7" class="node">
<title>Node7</title>
<g id="a_node7"><a xlink:title=" ">
<polygon fill="white" stroke="#bfbfbf" points="157.5,-0.5 157.5,-19.5 198.5,-19.5 198.5,-0.5 157.5,-0.5"/>
<text text-anchor="middle" x="178" y="-7.5" font-family="Helvetica,sans-Serif" font-size="10.00">string</text>
</a>
</g>
</g>
<!-- Node1&#45;&gt;Node7 -->
<g id="edge42" class="edge">
<title>Node1&#45;&gt;Node7</title>
<path fill="none" stroke="midnightblue" d="M745.95,-292.47C568.77,-284.88 0,-254.64 0,-179 0,-179 0,-179 0,-121 0,-52.66 96.12,-25.36 147.09,-15.69"/>
<polygon fill="midnightblue" stroke="midnightblue" points="148,-19.08 157.23,-13.88 146.77,-12.19 148,-19.08"/>
</g>
<!-- Node23 -->
<g id="node23" class="node">
<title>Node23</title>
<g id="a_node23"><a xlink:href="Ioss__Transform_8h.html" target="_top" xlink:title=" ">
<polygon fill="white" stroke="black" points="890.5,-224.5 890.5,-243.5 983.5,-243.5 983.5,-224.5 890.5,-224.5"/>
<text text-anchor="middle" x="937" y="-231.5" font-family="Helvetica,sans-Serif" font-size="10.00">Ioss_Transform.h</text>
</a>
</g>
</g>
<!-- Node1&#45;&gt;Node23 -->
<g id="edge36" class="edge">
<title>Node1&#45;&gt;Node23</title>
<path fill="none" stroke="midnightblue" d="M830.94,-280.4C854.16,-270.46 884.99,-257.26 907.42,-247.66"/>
<polygon fill="midnightblue" stroke="midnightblue" points="908.96,-250.81 916.77,-243.66 906.2,-244.38 908.96,-250.81"/>
</g>
<!-- Node3 -->
<g id="node3" class="node">
<title>Node3</title>
<g id="a_node3"><a xlink:href="Ioss__CodeTypes_8h.html" target="_top" xlink:title=" ">
<polygon fill="white" stroke="black" points="646,-56.5 646,-75.5 744,-75.5 744,-56.5 646,-56.5"/>
<text text-anchor="middle" x="695" y="-63.5" font-family="Helvetica,sans-Serif" font-size="10.00">Ioss_CodeTypes.h</text>
</a>
</g>
</g>
<!-- Node2&#45;&gt;Node3 -->
<g id="edge2" class="edge">
<title>Node2&#45;&gt;Node3</title>
<path fill="none" stroke="midnightblue" d="M796.79,-224.26C793.49,-203.14 782.76,-148.35 756,-112 746.67,-99.33 732.76,-88.68 720.57,-80.93"/>
<polygon fill="midnightblue" stroke="midnightblue" points="722.07,-77.74 711.69,-75.58 718.45,-83.74 722.07,-77.74"/>
</g>
<!-- Node2&#45;&gt;Node7 -->
<g id="edge34" class="edge">
<title>Node2&#45;&gt;Node7</title>
<path fill="none" stroke="midnightblue" d="M745.84,-233.5C595.29,-234.4 168.03,-232.94 126,-188 85.93,-145.15 101.61,-109.36 126,-56 131.78,-43.36 143.05,-32.91 153.63,-25.27"/>
<polygon fill="midnightblue" stroke="midnightblue" points="155.85,-28 162.22,-19.53 151.96,-22.18 155.85,-28"/>
</g>
<!-- Node8 -->
<g id="node8" class="node">
<title>Node8</title>
<g id="a_node8"><a xlink:title=" ">
<polygon fill="white" stroke="#bfbfbf" points="928,-0.5 928,-19.5 972,-19.5 972,-0.5 928,-0.5"/>
<text text-anchor="middle" x="950" y="-7.5" font-family="Helvetica,sans-Serif" font-size="10.00">vector</text>
</a>
</g>
</g>
<!-- Node2&#45;&gt;Node8 -->
<g id="edge35" class="edge">
<title>Node2&#45;&gt;Node8</title>
<path fill="none" stroke="midnightblue" d="M805.06,-224.47C824.03,-201.37 877.19,-135.35 915,-76 924.88,-60.49 934.67,-41.96 941.38,-28.66"/>
<polygon fill="midnightblue" stroke="midnightblue" points="944.54,-30.15 945.85,-19.64 938.27,-27.04 944.54,-30.15"/>
</g>
<!-- Node11 -->
<g id="node11" class="node">
<title>Node11</title>
<g id="a_node11"><a xlink:href="Ioss__Utils_8h.html" target="_top" xlink:title=" ">
<polygon fill="white" stroke="black" points="570.5,-168.5 570.5,-187.5 639.5,-187.5 639.5,-168.5 570.5,-168.5"/>
<text text-anchor="middle" x="605" y="-175.5" font-family="Helvetica,sans-Serif" font-size="10.00">Ioss_Utils.h</text>
</a>
</g>
</g>
<!-- Node2&#45;&gt;Node11 -->
<g id="edge10" class="edge">
<title>Node2&#45;&gt;Node11</title>
<path fill="none" stroke="midnightblue" d="M767.42,-224.44C734.39,-215.2 681.61,-200.44 645.23,-190.26"/>
<polygon fill="midnightblue" stroke="midnightblue" points="646.01,-186.84 635.44,-187.52 644.13,-193.58 646.01,-186.84"/>
</g>
<!-- Node20 -->
<g id="node20" class="node">
<title>Node20</title>
<g id="a_node20"><a xlink:title=" ">
<polygon fill="white" stroke="#bfbfbf" points="28,-168.5 28,-187.5 74,-187.5 74,-168.5 28,-168.5"/>
<text text-anchor="middle" x="51" y="-175.5" font-family="Helvetica,sans-Serif" font-size="10.00">cstring</text>
</a>
</g>
</g>
<!-- Node2&#45;&gt;Node20 -->
<g id="edge31" class="edge">
<title>Node2&#45;&gt;Node20</title>
<path fill="none" stroke="midnightblue" d="M746,-232.81C628.19,-231.72 332.21,-225.15 88,-188 86.75,-187.81 85.48,-187.6 84.2,-187.37"/>
<polygon fill="midnightblue" stroke="midnightblue" points="84.87,-183.93 74.36,-185.34 83.45,-190.79 84.87,-183.93"/>
</g>
<!-- Node21 -->
<g id="node21" class="node">
<title>Node21</title>
<g id="a_node21"><a xlink:title=" ">
<polygon fill="white" stroke="#bfbfbf" points="874.5,-168.5 874.5,-187.5 933.5,-187.5 933.5,-168.5 874.5,-168.5"/>
<text text-anchor="middle" x="904" y="-175.5" font-family="Helvetica,sans-Serif" font-size="10.00">functional</text>
</a>
</g>
</g>
<!-- Node2&#45;&gt;Node21 -->
<g id="edge32" class="edge">
<title>Node2&#45;&gt;Node21</title>
<path fill="none" stroke="midnightblue" d="M815.03,-224.32C832.03,-215.66 858.38,-202.24 877.99,-192.25"/>
<polygon fill="midnightblue" stroke="midnightblue" points="879.69,-195.31 887.01,-187.65 876.51,-189.08 879.69,-195.31"/>
</g>
<!-- Node22 -->
<g id="node22" class="node">
<title>Node22</title>
<g id="a_node22"><a xlink:title=" ">
<polygon fill="white" stroke="#bfbfbf" points="951.5,-168.5 951.5,-187.5 986.5,-187.5 986.5,-168.5 951.5,-168.5"/>
<text text-anchor="middle" x="969" y="-175.5" font-family="Helvetica,sans-Serif" font-size="10.00">map</text>
</a>
</g>
</g>
<!-- Node2&#45;&gt;Node22 -->
<g id="edge33" class="edge">
<title>Node2&#45;&gt;Node22</title>
<path fill="none" stroke="midnightblue" d="M826.43,-224.47C853.78,-216.21 896.52,-203.12 941.73,-188.35"/>
<polygon fill="midnightblue" stroke="midnightblue" points="942.99,-191.62 951.4,-185.18 940.81,-184.97 942.99,-191.62"/>
</g>
<!-- Node4 -->
<g id="node4" class="node">
<title>Node4</title>
<g id="a_node4"><a xlink:title=" ">
<polygon fill="white" stroke="#bfbfbf" points="674,-0.5 674,-19.5 712,-19.5 712,-0.5 674,-0.5"/>
<text text-anchor="middle" x="693" y="-7.5" font-family="Helvetica,sans-Serif" font-size="10.00">array</text>
</a>
</g>
</g>
<!-- Node3&#45;&gt;Node4 -->
<g id="edge3" class="edge">
<title>Node3&#45;&gt;Node4</title>
<path fill="none" stroke="midnightblue" d="M694.67,-56.08C694.41,-49.01 694.03,-38.86 693.7,-29.99"/>
<polygon fill="midnightblue" stroke="midnightblue" points="697.19,-29.61 693.32,-19.75 690.2,-29.87 697.19,-29.61"/>
</g>
<!-- Node5 -->
<g id="node5" class="node">
<title>Node5</title>
<g id="a_node5"><a xlink:title=" ">
<polygon fill="white" stroke="#bfbfbf" points="535.5,-0.5 535.5,-19.5 584.5,-19.5 584.5,-0.5 535.5,-0.5"/>
<text text-anchor="middle" x="560" y="-7.5" font-family="Helvetica,sans-Serif" font-size="10.00">cstddef</text>
</a>
</g>
</g>
<!-- Node3&#45;&gt;Node5 -->
<g id="edge4" class="edge">
<title>Node3&#45;&gt;Node5</title>
<path fill="none" stroke="midnightblue" d="M673.61,-56.44C651.29,-47.52 616.1,-33.44 590.79,-23.32"/>
<polygon fill="midnightblue" stroke="midnightblue" points="591.88,-19.98 581.29,-19.52 589.28,-26.48 591.88,-19.98"/>
</g>
<!-- Node6 -->
<g id="node6" class="node">
<title>Node6</title>
<g id="a_node6"><a xlink:title=" ">
<polygon fill="white" stroke="#bfbfbf" points="864,-0.5 864,-19.5 910,-19.5 910,-0.5 864,-0.5"/>
<text text-anchor="middle" x="887" y="-7.5" font-family="Helvetica,sans-Serif" font-size="10.00">cstdint</text>
</a>
</g>
</g>
<!-- Node3&#45;&gt;Node6 -->
<g id="edge5" class="edge">
<title>Node3&#45;&gt;Node6</title>
<path fill="none" stroke="midnightblue" d="M725.42,-56.44C760.45,-46.59 817.8,-30.46 853.92,-20.3"/>
<polygon fill="midnightblue" stroke="midnightblue" points="855.27,-23.56 863.95,-17.48 853.38,-16.82 855.27,-23.56"/>
</g>
<!-- Node3&#45;&gt;Node7 -->
<g id="edge6" class="edge">
<title>Node3&#45;&gt;Node7</title>
<path fill="none" stroke="midnightblue" d="M645.9,-59.87C540.51,-48.86 295.21,-23.24 208.8,-14.22"/>
<polygon fill="midnightblue" stroke="midnightblue" points="208.91,-10.71 198.6,-13.15 208.19,-17.67 208.91,-10.71"/>
</g>
<!-- Node3&#45;&gt;Node8 -->
<g id="edge7" class="edge">
<title>Node3&#45;&gt;Node8</title>
<path fill="none" stroke="midnightblue" d="M743.76,-56.43C787.09,-48.54 852.34,-35.99 917.65,-20.18"/>
<polygon fill="midnightblue" stroke="midnightblue" points="918.83,-23.49 927.71,-17.72 917.16,-16.69 918.83,-23.49"/>
</g>
<!-- Node9 -->
<g id="node9" class="node">
<title>Node9</title>
<g id="a_node9"><a xlink:title=" ">
<polygon fill="white" stroke="#bfbfbf" points="730,-0.5 730,-19.5 846,-19.5 846,-0.5 730,-0.5"/>
<text text-anchor="middle" x="788" y="-7.5" font-family="Helvetica,sans-Serif" font-size="10.00">SEACASIoss_config.h</text>
</a>
</g>
</g>
<!-- Node3&#45;&gt;Node9 -->
<g id="edge8" class="edge">
<title>Node3&#45;&gt;Node9</title>
<path fill="none" stroke="midnightblue" d="M709.94,-56.32C724.59,-47.82 747.13,-34.73 764.24,-24.8"/>
<polygon fill="midnightblue" stroke="midnightblue" points="766.2,-27.7 773.1,-19.65 762.69,-21.65 766.2,-27.7"/>
</g>
<!-- Node10 -->
<g id="node10" class="node">
<title>Node10</title>
<g id="a_node10"><a xlink:title=" ">
<polygon fill="white" stroke="#bfbfbf" points="602.5,-0.5 602.5,-19.5 655.5,-19.5 655.5,-0.5 602.5,-0.5"/>
<text text-anchor="middle" x="629" y="-7.5" font-family="Helvetica,sans-Serif" font-size="10.00">complex</text>
</a>
</g>
</g>
<!-- Node3&#45;&gt;Node10 -->
<g id="edge9" class="edge">
<title>Node3&#45;&gt;Node10</title>
<path fill="none" stroke="midnightblue" d="M684.4,-56.32C674.54,-48.26 659.65,-36.08 647.78,-26.37"/>
<polygon fill="midnightblue" stroke="midnightblue" points="649.75,-23.46 639.8,-19.83 645.32,-28.88 649.75,-23.46"/>
</g>
<!-- Node11&#45;&gt;Node3 -->
<g id="edge11" class="edge">
<title>Node11&#45;&gt;Node3</title>
<path fill="none" stroke="midnightblue" d="M639.72,-176.24C671.87,-173.47 718.06,-163.75 741,-132 753.45,-114.76 734.33,-94.77 717.08,-81.56"/>
<polygon fill="midnightblue" stroke="midnightblue" points="719.07,-78.68 708.91,-75.66 714.97,-84.35 719.07,-78.68"/>
</g>
<!-- Node11&#45;&gt;Node5 -->
<g id="edge24" class="edge">
<title>Node11&#45;&gt;Node5</title>
<path fill="none" stroke="midnightblue" d="M608.46,-168.48C613.07,-155.96 620.07,-131.92 615,-112 606.83,-79.91 586.16,-47 572.62,-27.81"/>
<polygon fill="midnightblue" stroke="midnightblue" points="575.33,-25.59 566.63,-19.56 569.66,-29.7 575.33,-25.59"/>
</g>
<!-- Node11&#45;&gt;Node6 -->
<g id="edge25" class="edge">
<title>Node11&#45;&gt;Node6</title>
<path fill="none" stroke="midnightblue" d="M639.58,-172.19C675.9,-166.21 734.02,-154.01 780,-132 817.52,-114.04 828.41,-107.99 855,-76 866.66,-61.97 875.38,-42.98 880.75,-29.14"/>
<polygon fill="midnightblue" stroke="midnightblue" points="884.04,-30.33 884.19,-19.74 877.47,-27.93 884.04,-30.33"/>
</g>
<!-- Node11&#45;&gt;Node7 -->
<g id="edge29" class="edge">
<title>Node11&#45;&gt;Node7</title>
<path fill="none" stroke="midnightblue" d="M570.17,-175.55C476.39,-171.31 223.8,-157.59 197,-132 169.28,-105.53 171.18,-56.35 174.73,-29.56"/>
<polygon fill="midnightblue" stroke="midnightblue" points="178.2,-30 176.27,-19.58 171.28,-28.93 178.2,-30"/>
</g>
<!-- Node11&#45;&gt;Node8 -->
<g id="edge30" class="edge">
<title>Node11&#45;&gt;Node8</title>
<path fill="none" stroke="midnightblue" d="M639.81,-174.12C682.18,-169.58 755.11,-158.38 812,-132 865.76,-107.07 914.24,-54.5 936.74,-27.61"/>
<polygon fill="midnightblue" stroke="midnightblue" points="939.71,-29.51 943.34,-19.55 934.3,-25.07 939.71,-29.51"/>
</g>
<!-- Node12 -->
<g id="node12" class="node">
<title>Node12</title>
<g id="a_node12"><a xlink:href="Ioss__Field_8h.html" target="_top" xlink:title=" ">
<polygon fill="white" stroke="black" points="662,-112.5 662,-131.5 732,-131.5 732,-112.5 662,-112.5"/>
<text text-anchor="middle" x="697" y="-119.5" font-family="Helvetica,sans-Serif" font-size="10.00">Ioss_Field.h</text>
</a>
</g>
</g>
<!-- Node11&#45;&gt;Node12 -->
<g id="edge12" class="edge">
<title>Node11&#45;&gt;Node12</title>
<path fill="none" stroke="midnightblue" d="M619.78,-168.32C634.27,-159.82 656.57,-146.73 673.49,-136.8"/>
<polygon fill="midnightblue" stroke="midnightblue" points="675.4,-139.74 682.26,-131.65 671.86,-133.7 675.4,-139.74"/>
</g>
<!-- Node13 -->
<g id="node13" class="node">
<title>Node13</title>
<g id="a_node13"><a xlink:href="Ioss__Property_8h.html" target="_top" xlink:title=" ">
<polygon fill="white" stroke="black" points="762,-56.5 762,-75.5 846,-75.5 846,-56.5 762,-56.5"/>
<text text-anchor="middle" x="804" y="-63.5" font-family="Helvetica,sans-Serif" font-size="10.00">Ioss_Property.h</text>
</a>
</g>
</g>
<!-- Node11&#45;&gt;Node13 -->
<g id="edge17" class="edge">
<title>Node11&#45;&gt;Node13</title>
<path fill="none" stroke="midnightblue" d="M639.51,-173.09C672.02,-168.01 720.85,-156.68 756,-132 773.35,-119.82 786.94,-99.37 795.17,-84.65"/>
<polygon fill="midnightblue" stroke="midnightblue" points="798.4,-86.03 799.99,-75.56 792.21,-82.76 798.4,-86.03"/>
</g>
<!-- Node14 -->
<g id="node14" class="node">
<title>Node14</title>
<g id="a_node14"><a xlink:title=" ">
<polygon fill="white" stroke="#bfbfbf" points="206,-112.5 206,-131.5 262,-131.5 262,-112.5 206,-112.5"/>
<text text-anchor="middle" x="234" y="-119.5" font-family="Helvetica,sans-Serif" font-size="10.00">algorithm</text>
</a>
</g>
</g>
<!-- Node11&#45;&gt;Node14 -->
<g id="edge21" class="edge">
<title>Node11&#45;&gt;Node14</title>
<path fill="none" stroke="midnightblue" d="M570.19,-173.52C510.97,-167.35 386.68,-153.25 272.2,-132.06"/>
<polygon fill="midnightblue" stroke="midnightblue" points="272.69,-128.59 262.22,-130.19 271.4,-135.47 272.69,-128.59"/>
</g>
<!-- Node15 -->
<g id="node15" class="node">
<title>Node15</title>
<g id="a_node15"><a xlink:title=" ">
<polygon fill="white" stroke="#bfbfbf" points="280.5,-112.5 280.5,-131.5 329.5,-131.5 329.5,-112.5 280.5,-112.5"/>
<text text-anchor="middle" x="305" y="-119.5" font-family="Helvetica,sans-Serif" font-size="10.00">cassert</text>
</a>
</g>
</g>
<!-- Node11&#45;&gt;Node15 -->
<g id="edge22" class="edge">
<title>Node11&#45;&gt;Node15</title>
<path fill="none" stroke="midnightblue" d="M570.37,-172.17C521.27,-165.1 428.42,-150.91 339.77,-132"/>
<polygon fill="midnightblue" stroke="midnightblue" points="340.33,-128.54 329.82,-129.85 338.86,-135.38 340.33,-128.54"/>
</g>
<!-- Node16 -->
<g id="node16" class="node">
<title>Node16</title>
<g id="a_node16"><a xlink:title=" ">
<polygon fill="white" stroke="#bfbfbf" points="348,-112.5 348,-131.5 392,-131.5 392,-112.5 348,-112.5"/>
<text text-anchor="middle" x="370" y="-119.5" font-family="Helvetica,sans-Serif" font-size="10.00">cmath</text>
</a>
</g>
</g>
<!-- Node11&#45;&gt;Node16 -->
<g id="edge23" class="edge">
<title>Node11&#45;&gt;Node16</title>
<path fill="none" stroke="midnightblue" d="M570.38,-169.94C531.84,-161.95 467.49,-148.2 402.37,-131.97"/>
<polygon fill="midnightblue" stroke="midnightblue" points="402.89,-128.5 392.34,-129.45 401.18,-135.28 402.89,-128.5"/>
</g>
<!-- Node17 -->
<g id="node17" class="node">
<title>Node17</title>
<g id="a_node17"><a xlink:title=" ">
<polygon fill="white" stroke="#bfbfbf" points="410.5,-112.5 410.5,-131.5 455.5,-131.5 455.5,-112.5 410.5,-112.5"/>
<text text-anchor="middle" x="433" y="-119.5" font-family="Helvetica,sans-Serif" font-size="10.00">cstdlib</text>
</a>
</g>
</g>
<!-- Node11&#45;&gt;Node17 -->
<g id="edge26" class="edge">
<title>Node11&#45;&gt;Node17</title>
<path fill="none" stroke="midnightblue" d="M577.75,-168.44C547.32,-158.89 498.09,-143.44 465.64,-133.25"/>
<polygon fill="midnightblue" stroke="midnightblue" points="466.32,-129.79 455.73,-130.14 464.22,-136.47 466.32,-129.79"/>
</g>
<!-- Node18 -->
<g id="node18" class="node">
<title>Node18</title>
<g id="a_node18"><a xlink:title=" ">
<polygon fill="white" stroke="#bfbfbf" points="474,-112.5 474,-131.5 528,-131.5 528,-112.5 474,-112.5"/>
<text text-anchor="middle" x="501" y="-119.5" font-family="Helvetica,sans-Serif" font-size="10.00">iostream</text>
</a>
</g>
</g>
<!-- Node11&#45;&gt;Node18 -->
<g id="edge27" class="edge">
<title>Node11&#45;&gt;Node18</title>
<path fill="none" stroke="midnightblue" d="M588.29,-168.32C571.69,-159.7 546,-146.36 526.78,-136.39"/>
<polygon fill="midnightblue" stroke="midnightblue" points="528.16,-133.16 517.67,-131.65 524.93,-139.37 528.16,-133.16"/>
</g>
<!-- Node19 -->
<g id="node19" class="node">
<title>Node19</title>
<g id="a_node19"><a xlink:title=" ">
<polygon fill="white" stroke="#bfbfbf" points="546.5,-112.5 546.5,-131.5 605.5,-131.5 605.5,-112.5 546.5,-112.5"/>
<text text-anchor="middle" x="576" y="-119.5" font-family="Helvetica,sans-Serif" font-size="10.00">stdexcept</text>
</a>
</g>
</g>
<!-- Node11&#45;&gt;Node19 -->
<g id="edge28" class="edge">
<title>Node11&#45;&gt;Node19</title>
<path fill="none" stroke="midnightblue" d="M600.21,-168.08C596.24,-160.69 590.47,-149.95 585.57,-140.81"/>
<polygon fill="midnightblue" stroke="midnightblue" points="588.51,-138.91 580.7,-131.75 582.35,-142.22 588.51,-138.91"/>
</g>
<!-- Node12&#45;&gt;Node3 -->
<g id="edge13" class="edge">
<title>Node12&#45;&gt;Node3</title>
<path fill="none" stroke="midnightblue" d="M696.67,-112.08C696.41,-105.01 696.03,-94.86 695.7,-85.99"/>
<polygon fill="midnightblue" stroke="midnightblue" points="699.19,-85.61 695.32,-75.75 692.2,-85.87 699.19,-85.61"/>
</g>
<!-- Node12&#45;&gt;Node5 -->
<g id="edge14" class="edge">
<title>Node12&#45;&gt;Node5</title>
<path fill="none" stroke="midnightblue" d="M684.89,-112.24C672.66,-103.31 653.3,-88.97 637,-76 616.21,-59.45 592.99,-39.66 577.54,-26.3"/>
<polygon fill="midnightblue" stroke="midnightblue" points="579.66,-23.51 569.82,-19.6 575.07,-28.8 579.66,-23.51"/>
</g>
<!-- Node12&#45;&gt;Node7 -->
<g id="edge15" class="edge">
<title>Node12&#45;&gt;Node7</title>
<path fill="none" stroke="midnightblue" d="M661.74,-113.53C565.39,-93.11 298.91,-36.63 208.48,-17.46"/>
<polygon fill="midnightblue" stroke="midnightblue" points="209.1,-14.01 198.59,-15.36 207.65,-20.86 209.1,-14.01"/>
</g>
<!-- Node12&#45;&gt;Node8 -->
<g id="edge16" class="edge">
<title>Node12&#45;&gt;Node8</title>
<path fill="none" stroke="midnightblue" d="M732.05,-114.42C764.86,-107.48 814.72,-94.9 855,-76 883.76,-62.5 913.44,-40.7 931.8,-26.11"/>
<polygon fill="midnightblue" stroke="midnightblue" points="934.28,-28.61 939.85,-19.6 929.88,-23.17 934.28,-28.61"/>
</g>
<!-- Node13&#45;&gt;Node6 -->
<g id="edge18" class="edge">
<title>Node13&#45;&gt;Node6</title>
<path fill="none" stroke="midnightblue" d="M817.34,-56.32C830.16,-47.98 849.78,-35.21 864.94,-25.35"/>
<polygon fill="midnightblue" stroke="midnightblue" points="867.22,-28.04 873.7,-19.65 863.41,-22.17 867.22,-28.04"/>
</g>
<!-- Node13&#45;&gt;Node7 -->
<g id="edge19" class="edge">
<title>Node13&#45;&gt;Node7</title>
<path fill="none" stroke="midnightblue" d="M761.75,-57.22C758.79,-56.78 755.85,-56.36 753,-56 546.05,-29.7 295.11,-16.4 208.85,-12.36"/>
<polygon fill="midnightblue" stroke="midnightblue" points="208.85,-8.86 198.7,-11.9 208.53,-15.85 208.85,-8.86"/>
</g>
<!-- Node13&#45;&gt;Node8 -->
<g id="edge20" class="edge">
<title>Node13&#45;&gt;Node8</title>
<path fill="none" stroke="midnightblue" d="M827.13,-56.44C851.77,-47.33 890.92,-32.85 918.39,-22.69"/>
<polygon fill="midnightblue" stroke="midnightblue" points="919.76,-25.91 927.93,-19.16 917.34,-19.35 919.76,-25.91"/>
</g>
<!-- Node23&#45;&gt;Node3 -->
<g id="edge37" class="edge">
<title>Node23&#45;&gt;Node3</title>
<path fill="none" stroke="midnightblue" d="M955.27,-224.3C977.9,-212.33 1011.66,-189.78 996,-168 966.93,-127.58 829.02,-93.92 750.34,-77.6"/>
<polygon fill="midnightblue" stroke="midnightblue" points="750.61,-74.08 740.11,-75.5 749.21,-80.94 750.61,-74.08"/>
</g>
<!-- Node23&#45;&gt;Node7 -->
<g id="edge40" class="edge">
<title>Node23&#45;&gt;Node7</title>
<path fill="none" stroke="midnightblue" d="M890.44,-227.57C804.6,-217.53 624.48,-196.33 562,-188 391.91,-165.33 304.23,-250.36 180,-132 152.46,-105.76 162.87,-56.11 171.33,-29.29"/>
<polygon fill="midnightblue" stroke="midnightblue" points="174.71,-30.22 174.61,-19.63 168.08,-27.97 174.71,-30.22"/>
</g>
<!-- Node23&#45;&gt;Node8 -->
<g id="edge41" class="edge">
<title>Node23&#45;&gt;Node8</title>
<path fill="none" stroke="midnightblue" d="M963.93,-224.36C980.72,-217.41 1000.98,-205.82 1011,-188 1025.1,-162.92 1068.5,-187.3 1002,-56 995.68,-43.52 984.25,-33.03 973.71,-25.33"/>
<polygon fill="midnightblue" stroke="midnightblue" points="975.44,-22.28 965.2,-19.54 971.5,-28.06 975.44,-22.28"/>
</g>
<!-- Node23&#45;&gt;Node21 -->
<g id="edge38" class="edge">
<title>Node23&#45;&gt;Node21</title>
<path fill="none" stroke="midnightblue" d="M931.55,-224.08C926.99,-216.61 920.33,-205.72 914.71,-196.52"/>
<polygon fill="midnightblue" stroke="midnightblue" points="917.55,-194.46 909.35,-187.75 911.58,-198.11 917.55,-194.46"/>
</g>
<!-- Node23&#45;&gt;Node22 -->
<g id="edge39" class="edge">
<title>Node23&#45;&gt;Node22</title>
<path fill="none" stroke="midnightblue" d="M942.28,-224.08C946.71,-216.61 953.16,-205.72 958.62,-196.52"/>
<polygon fill="midnightblue" stroke="midnightblue" points="961.73,-198.14 963.81,-187.75 955.71,-194.57 961.73,-198.14"/>
</g>
</g>
</svg>
        <g id="navigator" transform="translate(0 0)" fill="#404254">
                <rect fill="#f2f5e9" fill-opacity="0.5" stroke="#606060" stroke-width=".5" x="0" y="0" width="60" height="60"/>
                <use id="zoomplus" xlink:href="#zoomPlus" x="17" y="9" onmousedown="handleZoom(evt,'in')"/>
                <use id="zoomminus" xlink:href="#zoomMin" x="42" y="9" onmousedown="handleZoom(evt,'out')"/>
                <use id="reset" xlink:href="#resetDef" x="30" y="36" onmousedown="handleReset()"/>
                <g id="arrowUp" xlink:href="#dirArrow" transform="translate(30 24)" onmousedown="handlePan(0,-1)">
                  <use xlink:href="#rim" fill="#404040">
                        <set attributeName="fill" to="#808080" begin="arrowUp.mouseover" end="arrowUp.mouseout"/>
                  </use>
                  <path fill="none" stroke="white" stroke-width="1.5" d="M0,-3.0v7 M-2.5,-0.5L0,-3.0L2.5,-0.5"/>
                </g>
                <g id="arrowRight" xlink:href="#dirArrow" transform="rotate(90) translate(36 -43)" onmousedown="handlePan(1,0)">
                  <use xlink:href="#rim" fill="#404040">
                        <set attributeName="fill" to="#808080" begin="arrowRight.mouseover" end="arrowRight.mouseout"/>
                  </use>
                  <path fill="none" stroke="white" stroke-width="1.5" d="M0,-3.0v7 M-2.5,-0.5L0,-3.0L2.5,-0.5"/>
                </g>
                <g id="arrowDown" xlink:href="#dirArrow" transform="rotate(180) translate(-30 -48)" onmousedown="handlePan(0,1)">
                  <use xlink:href="#rim" fill="#404040">
                        <set attributeName="fill" to="#808080" begin="arrowDown.mouseover" end="arrowDown.mouseout"/>
                  </use>
                  <path fill="none" stroke="white" stroke-width="1.5" d="M0,-3.0v7 M-2.5,-0.5L0,-3.0L2.5,-0.5"/>
                </g>
                <g id="arrowLeft" xlink:href="#dirArrow" transform="rotate(270) translate(-36 17)" onmousedown="handlePan(-1,0)">
                  <use xlink:href="#rim" fill="#404040">
                        <set attributeName="fill" to="#808080" begin="arrowLeft.mouseover" end="arrowLeft.mouseout"/>
                  </use>
                  <path fill="none" stroke="white" stroke-width="1.5" d="M0,-3.0v7 M-2.5,-0.5L0,-3.0L2.5,-0.5"/>
                </g>
        </g>
        <svg viewBox="0 0 15 15" width="100%" height="30px" preserveAspectRatio="xMaxYMin meet">
         <g id="arrow_out" transform="scale(0.3 0.3)">
          <a xlink:href="Iotr__VectorMagnitude_8h__incl_org.svg" target="_base">
           <rect id="button" ry="5" rx="5" y="6" x="6" height="38" width="38"
                fill="#f2f5e9" fill-opacity="0.5" stroke="#606060" stroke-width="1.0"/>
           <path id="arrow"
             d="M 11.500037,31.436501 C 11.940474,20.09759 22.043105,11.32322 32.158766,21.979434 L 37.068811,17.246167 C 37.068811,17.246167 37.088388,32 37.088388,32 L 22.160133,31.978069 C 22.160133,31.978069 26.997745,27.140456 26.997745,27.140456 C 18.528582,18.264221 13.291696,25.230495 11.500037,31.436501 z"
             style="fill:#404040;"/>
          </a>
         </g>
        </svg>
</svg>
