<?xml version="1.0" encoding="UTF-8" standalone="no"?>
<!DOCTYPE svg PUBLIC "-//W3C//DTD SVG 1.1//EN"
 "http://www.w3.org/Graphics/SVG/1.1/DTD/svg11.dtd">
<!-- Generated by graphviz version 2.40.1 (20161225.0304)
 -->
<!-- Title: src/transform/Iotr_Initializer.C Pages: 1 -->
<!--zoomable 257 -->
<svg id="main" version="1.1" xmlns="http://www.w3.org/2000/svg" xmlns:xlink="http://www.w3.org/1999/xlink" xml:space="preserve" onload="init(evt)">
<style type="text/css"><![CDATA[
.edge:hover path { stroke: red; }
.edge:hover polygon { stroke: red; fill: red; }
]]></style>
<script type="text/javascript"><![CDATA[
var edges = document.getElementsByTagName('g');
if (edges && edges.length) {
  for (var i=0;i<edges.length;i++) {
    if (edges[i].id.substr(0,4)=='edge') {
      edges[i].setAttribute('class','edge');
    }
  }
}
]]></script>
        <defs>
                <circle id="rim" cx="0" cy="0" r="7"/>
                <circle id="rim2" cx="0" cy="0" r="3.5"/>
                <g id="zoomPlus">
                        <use xlink:href="#rim" fill="#404040">
                                <set attributeName="fill" to="#808080" begin="zoomplus.mouseover" end="zoomplus.mouseout"/>
                        </use>
                        <path d="M-4,0h8M0,-4v8" fill="none" stroke="white" stroke-width="1.5" pointer-events="none"/>
                </g>
                <g id="zoomMin">
                        <use xlink:href="#rim" fill="#404040">
                                <set attributeName="fill" to="#808080" begin="zoomminus.mouseover" end="zoomminus.mouseout"/>
                        </use>
                        <path d="M-4,0h8" fill="none" stroke="white" stroke-width="1.5" pointer-events="none"/>
                </g>
                <g id="dirArrow">
                        <path fill="none" stroke="white" stroke-width="1.5" d="M0,-3.0v7 M-2.5,-0.5L0,-3.0L2.5,-0.5"/>
                </g>
               <g id="resetDef">
                       <use xlink:href="#rim2" fill="#404040">
                               <set attributeName="fill" to="#808080" begin="reset.mouseover" end="reset.mouseout"/>
                       </use>
               </g>
        </defs>

<script type="text/javascript">
var viewWidth = 1183;
var viewHeight = 257;
var sectionId = 'dynsection-0';
</script>
<script xlink:href="svgpan.js"/>
<svg id="graph" class="graph">
<g id="viewport">
<title>src/transform/Iotr_Initializer.C</title>
<polygon fill="#ffffff" stroke="transparent" points="-4,4 -4,-253 1178.8512,-253 1178.8512,4 -4,4"/>
<!-- Node0 -->
<g id="node1" class="node">
<title>Node0</title>
<g id="a_node1"><a xlink:title=" ">
<polygon fill="#bfbfbf" stroke="#000000" points="559.3521,-220.5 559.3521,-248.5 650.9185,-248.5 650.9185,-220.5 559.3521,-220.5"/>
<text text-anchor="start" x="567.3521" y="-236.5" font-family="Helvetica,sans-Serif" font-size="10.00" fill="#000000">src/transform/Iotr</text>
<text text-anchor="middle" x="605.1353" y="-226.5" font-family="Helvetica,sans-Serif" font-size="10.00" fill="#000000">_Initializer.C</text>
</a>
</g>
</g>
<!-- Node1 -->
<g id="node2" class="node">
<title>Node1</title>
<g id="a_node2"><a xlink:href="Iotr__Initializer_8h.html" target="_top" xlink:title=" ">
<polygon fill="#ffffff" stroke="#000000" points="0,-165.5 0,-183.5 128.2705,-183.5 128.2705,-165.5 0,-165.5"/>
<text text-anchor="middle" x="64.1353" y="-171.5" font-family="Helvetica,sans-Serif" font-size="10.00" fill="#000000">transform/Iotr_Initializer.h</text>
</a>
</g>
</g>
<!-- Node0&#45;&gt;Node1 -->
<g id="edge1" class="edge">
<title>Node0&#45;&gt;Node1</title>
<path fill="none" stroke="#191970" d="M559.2614,-229.887C477.114,-221.5528 299.2155,-203.1713 138.6724,-184.1634"/>
<polygon fill="#191970" stroke="#191970" points="138.9553,-180.6725 128.6123,-182.9687 138.1298,-187.6236 138.9553,-180.6725"/>
</g>
<!-- Node2 -->
<g id="node3" class="node">
<title>Node2</title>
<g id="a_node3"><a xlink:href="Iotr__MinMax_8h.html" target="_top" xlink:title=" ">
<polygon fill="#ffffff" stroke="#000000" points="611.9531,-165.5 611.9531,-183.5 736.3174,-183.5 736.3174,-165.5 611.9531,-165.5"/>
<text text-anchor="middle" x="674.1353" y="-171.5" font-family="Helvetica,sans-Serif" font-size="10.00" fill="#000000">transform/Iotr_MinMax.h</text>
</a>
</g>
</g>
<!-- Node0&#45;&gt;Node2 -->
<g id="edge2" class="edge">
<title>Node0&#45;&gt;Node2</title>
<path fill="none" stroke="#191970" d="M621.4873,-220.2808C631.9036,-211.2232 645.4054,-199.4825 656.1278,-190.1586"/>
<polygon fill="#191970" stroke="#191970" points="658.439,-192.7871 663.6884,-183.5842 653.8457,-187.5049 658.439,-192.7871"/>
</g>
<!-- Node16 -->
<g id="node17" class="node">
<title>Node16</title>
<g id="a_node17"><a xlink:href="Iotr__Offset_8h.html" target="_top" xlink:title=" ">
<polygon fill="#ffffff" stroke="#000000" points="146.2061,-165.5 146.2061,-183.5 262.0645,-183.5 262.0645,-165.5 146.2061,-165.5"/>
<text text-anchor="middle" x="204.1353" y="-171.5" font-family="Helvetica,sans-Serif" font-size="10.00" fill="#000000">transform/Iotr_Offset.h</text>
</a>
</g>
</g>
<!-- Node0&#45;&gt;Node16 -->
<g id="edge24" class="edge">
<title>Node0&#45;&gt;Node16</title>
<path fill="none" stroke="#191970" d="M559.1355,-227.6172C488.732,-217.0831 353.8411,-196.8999 272.1252,-184.6731"/>
<polygon fill="#191970" stroke="#191970" points="272.5942,-181.2044 262.1863,-183.1859 271.5583,-188.1273 272.5942,-181.2044"/>
</g>
<!-- Node17 -->
<g id="node18" class="node">
<title>Node17</title>
<g id="a_node18"><a xlink:href="Iotr__Offset3D_8h.html" target="_top" xlink:title=" ">
<polygon fill="#ffffff" stroke="#000000" points="891.8145,-165.5 891.8145,-183.5 1020.4561,-183.5 1020.4561,-165.5 891.8145,-165.5"/>
<text text-anchor="middle" x="956.1353" y="-171.5" font-family="Helvetica,sans-Serif" font-size="10.00" fill="#000000">transform/Iotr_Offset3D.h</text>
</a>
</g>
</g>
<!-- Node0&#45;&gt;Node17 -->
<g id="edge28" class="edge">
<title>Node0&#45;&gt;Node17</title>
<path fill="none" stroke="#191970" d="M651.0224,-226.656C713.0126,-216.0594 823.7492,-197.1301 893.3948,-185.2249"/>
<polygon fill="#191970" stroke="#191970" points="894.0942,-188.6562 903.3615,-183.5212 892.9147,-181.7562 894.0942,-188.6562"/>
</g>
<!-- Node18 -->
<g id="node19" class="node">
<title>Node18</title>
<g id="a_node19"><a xlink:href="Iotr__Scale_8h.html" target="_top" xlink:title=" ">
<polygon fill="#ffffff" stroke="#000000" points="479.9482,-165.5 479.9482,-183.5 594.3223,-183.5 594.3223,-165.5 479.9482,-165.5"/>
<text text-anchor="middle" x="537.1353" y="-171.5" font-family="Helvetica,sans-Serif" font-size="10.00" fill="#000000">transform/Iotr_Scale.h</text>
</a>
</g>
</g>
<!-- Node0&#45;&gt;Node18 -->
<g id="edge33" class="edge">
<title>Node0&#45;&gt;Node18</title>
<path fill="none" stroke="#191970" d="M589.0202,-220.2808C578.8555,-211.312 565.7093,-199.7124 555.1933,-190.4335"/>
<polygon fill="#191970" stroke="#191970" points="557.2448,-187.576 547.4307,-183.5842 552.6134,-192.8249 557.2448,-187.576"/>
</g>
<!-- Node19 -->
<g id="node20" class="node">
<title>Node19</title>
<g id="a_node20"><a xlink:href="Iotr__Scale3D_8h.html" target="_top" xlink:title=" ">
<polygon fill="#ffffff" stroke="#000000" points="1038.5566,-165.5 1038.5566,-183.5 1165.7139,-183.5 1165.7139,-165.5 1038.5566,-165.5"/>
<text text-anchor="middle" x="1102.1353" y="-171.5" font-family="Helvetica,sans-Serif" font-size="10.00" fill="#000000">transform/Iotr_Scale3D.h</text>
</a>
</g>
</g>
<!-- Node0&#45;&gt;Node19 -->
<g id="edge37" class="edge">
<title>Node0&#45;&gt;Node19</title>
<path fill="none" stroke="#191970" d="M650.9576,-229.2077C726.918,-220.3983 883.9875,-202.0297 1028.0877,-184.1192"/>
<polygon fill="#191970" stroke="#191970" points="1028.9482,-187.5392 1038.4392,-182.8306 1028.0834,-180.5928 1028.9482,-187.5392"/>
</g>
<!-- Node20 -->
<g id="node21" class="node">
<title>Node20</title>
<g id="a_node21"><a xlink:href="Iotr__Tensor_8h.html" target="_top" xlink:title=" ">
<polygon fill="#ffffff" stroke="#000000" points="754.7217,-165.5 754.7217,-183.5 873.5488,-183.5 873.5488,-165.5 754.7217,-165.5"/>
<text text-anchor="middle" x="814.1353" y="-171.5" font-family="Helvetica,sans-Serif" font-size="10.00" fill="#000000">transform/Iotr_Tensor.h</text>
</a>
</g>
</g>
<!-- Node0&#45;&gt;Node20 -->
<g id="edge42" class="edge">
<title>Node0&#45;&gt;Node20</title>
<path fill="none" stroke="#191970" d="M651.0012,-221.3327C687.3106,-210.909 737.5834,-196.4766 772.6907,-186.3979"/>
<polygon fill="#191970" stroke="#191970" points="773.97,-189.6721 782.616,-183.5486 772.0384,-182.9439 773.97,-189.6721"/>
</g>
<!-- Node21 -->
<g id="node22" class="node">
<title>Node21</title>
<g id="a_node22"><a xlink:href="Iotr__VectorMagnitude_8h.html" target="_top" xlink:title=" ">
<polygon fill="#ffffff" stroke="#000000" points="297.9287,-165.5 297.9287,-183.5 462.3418,-183.5 462.3418,-165.5 297.9287,-165.5"/>
<text text-anchor="middle" x="380.1353" y="-171.5" font-family="Helvetica,sans-Serif" font-size="10.00" fill="#000000">transform/Iotr_VectorMagnitude.h</text>
</a>
</g>
</g>
<!-- Node0&#45;&gt;Node21 -->
<g id="edge46" class="edge">
<title>Node0&#45;&gt;Node21</title>
<path fill="none" stroke="#191970" d="M559.3319,-222.2858C519.8189,-211.749 463.1257,-196.6308 424.1444,-186.2358"/>
<polygon fill="#191970" stroke="#191970" points="424.7074,-182.7637 414.1432,-183.5688 422.9038,-189.5273 424.7074,-182.7637"/>
</g>
<!-- Node3 -->
<g id="node4" class="node">
<title>Node3</title>
<g id="a_node4"><a xlink:href="Ioss__VariableType_8h.html" target="_top" xlink:title=" ">
<polygon fill="#ffffff" stroke="#000000" points="753.1963,-110.5 753.1963,-128.5 859.0742,-128.5 859.0742,-110.5 753.1963,-110.5"/>
<text text-anchor="middle" x="806.1353" y="-116.5" font-family="Helvetica,sans-Serif" font-size="10.00" fill="#000000">Ioss_VariableType.h</text>
</a>
</g>
</g>
<!-- Node2&#45;&gt;Node3 -->
<g id="edge3" class="edge">
<title>Node2&#45;&gt;Node3</title>
<path fill="none" stroke="#191970" d="M695.9324,-165.4179C717.4282,-156.4613 750.5017,-142.6806 774.8105,-132.552"/>
<polygon fill="#191970" stroke="#191970" points="776.4212,-135.6726 784.3058,-128.5956 773.7288,-129.2111 776.4212,-135.6726"/>
</g>
<!-- Node8 -->
<g id="node9" class="node">
<title>Node8</title>
<g id="a_node9"><a xlink:title=" ">
<polygon fill="#ffffff" stroke="#bfbfbf" points="581.9087,-.5 581.9087,-18.5 622.3618,-18.5 622.3618,-.5 581.9087,-.5"/>
<text text-anchor="middle" x="602.1353" y="-6.5" font-family="Helvetica,sans-Serif" font-size="10.00" fill="#000000">string</text>
</a>
</g>
</g>
<!-- Node2&#45;&gt;Node8 -->
<g id="edge23" class="edge">
<title>Node2&#45;&gt;Node8</title>
<path fill="none" stroke="#191970" d="M624.2559,-165.4226C603.552,-158.929 581.5105,-147.8498 569.1353,-129 551.0854,-101.5067 558.985,-86.2834 569.1353,-55 572.5774,-44.3911 579.524,-34.1855 586.1597,-26.1379"/>
<polygon fill="#191970" stroke="#191970" points="588.8128,-28.4211 592.8023,-18.606 583.5628,-23.791 588.8128,-28.4211"/>
</g>
<!-- Node15 -->
<g id="node16" class="node">
<title>Node15</title>
<g id="a_node16"><a xlink:href="Ioss__Transform_8h.html" target="_top" xlink:title=" ">
<polygon fill="#ffffff" stroke="#000000" points="634.417,-110.5 634.417,-128.5 727.8535,-128.5 727.8535,-110.5 634.417,-110.5"/>
<text text-anchor="middle" x="681.1353" y="-116.5" font-family="Helvetica,sans-Serif" font-size="10.00" fill="#000000">Ioss_Transform.h</text>
</a>
</g>
</g>
<!-- Node2&#45;&gt;Node15 -->
<g id="edge17" class="edge">
<title>Node2&#45;&gt;Node15</title>
<path fill="none" stroke="#191970" d="M675.2912,-165.4179C676.2077,-158.2164 677.5212,-147.8962 678.6708,-138.8632"/>
<polygon fill="#191970" stroke="#191970" points="682.1636,-139.1414 679.9542,-128.7795 675.2196,-138.2575 682.1636,-139.1414"/>
</g>
<!-- Node4 -->
<g id="node5" class="node">
<title>Node4</title>
<g id="a_node5"><a xlink:href="Ioss__CodeTypes_8h.html" target="_top" xlink:title=" ">
<polygon fill="#ffffff" stroke="#000000" points="956.7192,-55.5 956.7192,-73.5 1055.5513,-73.5 1055.5513,-55.5 956.7192,-55.5"/>
<text text-anchor="middle" x="1006.1353" y="-61.5" font-family="Helvetica,sans-Serif" font-size="10.00" fill="#000000">Ioss_CodeTypes.h</text>
</a>
</g>
</g>
<!-- Node3&#45;&gt;Node4 -->
<g id="edge4" class="edge">
<title>Node3&#45;&gt;Node4</title>
<path fill="none" stroke="#191970" d="M839.1612,-110.4179C873.1348,-101.0751 926.1956,-86.4834 963.3608,-76.263"/>
<polygon fill="#191970" stroke="#191970" points="964.6787,-79.5306 973.3927,-73.5042 962.8225,-72.7811 964.6787,-79.5306"/>
</g>
<!-- Node3&#45;&gt;Node8 -->
<g id="edge15" class="edge">
<title>Node3&#45;&gt;Node8</title>
<path fill="none" stroke="#191970" d="M803.4609,-110.0489C798.9646,-95.9064 788.5289,-69.3672 770.1353,-55 748.7856,-38.3239 674.9267,-22.6869 632.588,-14.8143"/>
<polygon fill="#191970" stroke="#191970" points="633.02,-11.3354 622.5542,-12.9841 631.7638,-18.2218 633.02,-11.3354"/>
</g>
<!-- Node9 -->
<g id="node10" class="node">
<title>Node9</title>
<g id="a_node10"><a xlink:title=" ">
<polygon fill="#ffffff" stroke="#bfbfbf" points="1124.5195,-.5 1124.5195,-18.5 1167.751,-18.5 1167.751,-.5 1124.5195,-.5"/>
<text text-anchor="middle" x="1146.1353" y="-6.5" font-family="Helvetica,sans-Serif" font-size="10.00" fill="#000000">vector</text>
</a>
</g>
</g>
<!-- Node3&#45;&gt;Node9 -->
<g id="edge16" class="edge">
<title>Node3&#45;&gt;Node9</title>
<path fill="none" stroke="#191970" d="M859.2219,-115.9458C931.9299,-110.2831 1057.9472,-97.39 1097.1353,-74 1115.3615,-63.1213 1129.1292,-42.6488 1137.3598,-27.6772"/>
<polygon fill="#191970" stroke="#191970" points="1140.4717,-29.279 1141.9602,-18.7892 1134.2551,-26.0613 1140.4717,-29.279"/>
</g>
<!-- Node12 -->
<g id="node13" class="node">
<title>Node12</title>
<g id="a_node13"><a xlink:title=" ">
<polygon fill="#ffffff" stroke="#bfbfbf" points="817.4087,-55.5 817.4087,-73.5 862.8618,-73.5 862.8618,-55.5 817.4087,-55.5"/>
<text text-anchor="middle" x="840.1353" y="-61.5" font-family="Helvetica,sans-Serif" font-size="10.00" fill="#000000">cstring</text>
</a>
</g>
</g>
<!-- Node3&#45;&gt;Node12 -->
<g id="edge12" class="edge">
<title>Node3&#45;&gt;Node12</title>
<path fill="none" stroke="#191970" d="M811.7497,-110.4179C816.4461,-102.8207 823.2881,-91.7527 829.0781,-82.3866"/>
<polygon fill="#191970" stroke="#191970" points="832.1177,-84.1258 834.3989,-73.7795 826.1635,-80.445 832.1177,-84.1258"/>
</g>
<!-- Node13 -->
<g id="node14" class="node">
<title>Node13</title>
<g id="a_node14"><a xlink:title=" ">
<polygon fill="#ffffff" stroke="#bfbfbf" points="648.7314,-55.5 648.7314,-73.5 707.5391,-73.5 707.5391,-55.5 648.7314,-55.5"/>
<text text-anchor="middle" x="678.1353" y="-61.5" font-family="Helvetica,sans-Serif" font-size="10.00" fill="#000000">functional</text>
</a>
</g>
</g>
<!-- Node3&#45;&gt;Node13 -->
<g id="edge13" class="edge">
<title>Node3&#45;&gt;Node13</title>
<path fill="none" stroke="#191970" d="M784.9987,-110.4179C764.1542,-101.4613 732.0829,-87.6806 708.5108,-77.552"/>
<polygon fill="#191970" stroke="#191970" points="709.8728,-74.3278 699.3033,-73.5956 707.1092,-80.7592 709.8728,-74.3278"/>
</g>
<!-- Node14 -->
<g id="node15" class="node">
<title>Node14</title>
<g id="a_node15"><a xlink:title=" ">
<polygon fill="#ffffff" stroke="#bfbfbf" points="725.4087,-55.5 725.4087,-73.5 760.8618,-73.5 760.8618,-55.5 725.4087,-55.5"/>
<text text-anchor="middle" x="743.1353" y="-61.5" font-family="Helvetica,sans-Serif" font-size="10.00" fill="#000000">map</text>
</a>
</g>
</g>
<!-- Node3&#45;&gt;Node14 -->
<g id="edge14" class="edge">
<title>Node3&#45;&gt;Node14</title>
<path fill="none" stroke="#191970" d="M795.7321,-110.4179C786.3953,-102.2667 772.482,-90.1201 761.3101,-80.3669"/>
<polygon fill="#191970" stroke="#191970" points="763.5995,-77.7194 753.7644,-73.7795 758.9958,-82.9927 763.5995,-77.7194"/>
</g>
<!-- Node5 -->
<g id="node6" class="node">
<title>Node5</title>
<g id="a_node6"><a xlink:title=" ">
<polygon fill="#ffffff" stroke="#bfbfbf" points="937.7437,-.5 937.7437,-18.5 976.5269,-18.5 976.5269,-.5 937.7437,-.5"/>
<text text-anchor="middle" x="957.1353" y="-6.5" font-family="Helvetica,sans-Serif" font-size="10.00" fill="#000000">array</text>
</a>
</g>
</g>
<!-- Node4&#45;&gt;Node5 -->
<g id="edge5" class="edge">
<title>Node4&#45;&gt;Node5</title>
<path fill="none" stroke="#191970" d="M998.0439,-55.4179C991.064,-47.5833 980.7956,-36.0575 972.2929,-26.5137"/>
<polygon fill="#191970" stroke="#191970" points="974.6678,-23.9178 965.4024,-18.7795 969.4412,-28.5743 974.6678,-23.9178"/>
</g>
<!-- Node6 -->
<g id="node7" class="node">
<title>Node6</title>
<g id="a_node7"><a xlink:title=" ">
<polygon fill="#ffffff" stroke="#bfbfbf" points="995.0146,-.5 995.0146,-18.5 1043.2559,-18.5 1043.2559,-.5 995.0146,-.5"/>
<text text-anchor="middle" x="1019.1353" y="-6.5" font-family="Helvetica,sans-Serif" font-size="10.00" fill="#000000">cstddef</text>
</a>
</g>
</g>
<!-- Node4&#45;&gt;Node6 -->
<g id="edge6" class="edge">
<title>Node4&#45;&gt;Node6</title>
<path fill="none" stroke="#191970" d="M1008.2819,-55.4179C1010.0028,-48.1372 1012.4771,-37.669 1014.6288,-28.5659"/>
<polygon fill="#191970" stroke="#191970" points="1018.0477,-29.3164 1016.9419,-18.7795 1011.2354,-27.7062 1018.0477,-29.3164"/>
</g>
<!-- Node7 -->
<g id="node8" class="node">
<title>Node7</title>
<g id="a_node8"><a xlink:title=" ">
<polygon fill="#ffffff" stroke="#bfbfbf" points="1061.6846,-.5 1061.6846,-18.5 1106.5859,-18.5 1106.5859,-.5 1061.6846,-.5"/>
<text text-anchor="middle" x="1084.1353" y="-6.5" font-family="Helvetica,sans-Serif" font-size="10.00" fill="#000000">cstdint</text>
</a>
</g>
</g>
<!-- Node4&#45;&gt;Node7 -->
<g id="edge7" class="edge">
<title>Node4&#45;&gt;Node7</title>
<path fill="none" stroke="#191970" d="M1019.0154,-55.4179C1030.8706,-47.0584 1048.6855,-34.4966 1062.6868,-24.6239"/>
<polygon fill="#191970" stroke="#191970" points="1065.0804,-27.2188 1071.236,-18.5956 1061.0464,-21.498 1065.0804,-27.2188"/>
</g>
<!-- Node4&#45;&gt;Node8 -->
<g id="edge8" class="edge">
<title>Node4&#45;&gt;Node8</title>
<path fill="none" stroke="#191970" d="M956.6244,-56.9528C952.0654,-56.2824 947.5157,-55.6225 943.1353,-55 828.739,-38.7441 692.5024,-21.0731 632.7644,-13.4093"/>
<polygon fill="#191970" stroke="#191970" points="632.8865,-9.8964 622.5228,-12.0973 631.997,-16.8397 632.8865,-9.8964"/>
</g>
<!-- Node4&#45;&gt;Node9 -->
<g id="edge9" class="edge">
<title>Node4&#45;&gt;Node9</title>
<path fill="none" stroke="#191970" d="M1029.2534,-55.4179C1052.6679,-46.2193 1089.034,-31.9326 1114.9805,-21.7394"/>
<polygon fill="#191970" stroke="#191970" points="1116.3382,-24.9665 1124.3659,-18.0522 1113.7786,-18.4512 1116.3382,-24.9665"/>
</g>
<!-- Node10 -->
<g id="node11" class="node">
<title>Node10</title>
<g id="a_node11"><a xlink:title=" ">
<polygon fill="#ffffff" stroke="#bfbfbf" points="733.3867,-.5 733.3867,-18.5 848.8838,-18.5 848.8838,-.5 733.3867,-.5"/>
<text text-anchor="middle" x="791.1353" y="-6.5" font-family="Helvetica,sans-Serif" font-size="10.00" fill="#000000">SEACASIoss_config.h</text>
</a>
</g>
</g>
<!-- Node4&#45;&gt;Node10 -->
<g id="edge10" class="edge">
<title>Node4&#45;&gt;Node10</title>
<path fill="none" stroke="#191970" d="M970.6324,-55.4179C933.7986,-45.9953 876.0939,-31.2336 836.0972,-21.0019"/>
<polygon fill="#191970" stroke="#191970" points="836.889,-17.5918 826.3335,-18.5042 835.1541,-24.3734 836.889,-17.5918"/>
</g>
<!-- Node11 -->
<g id="node12" class="node">
<title>Node11</title>
<g id="a_node12"><a xlink:title=" ">
<polygon fill="#ffffff" stroke="#bfbfbf" points="866.5171,-.5 866.5171,-18.5 919.7534,-18.5 919.7534,-.5 866.5171,-.5"/>
<text text-anchor="middle" x="893.1353" y="-6.5" font-family="Helvetica,sans-Serif" font-size="10.00" fill="#000000">complex</text>
</a>
</g>
</g>
<!-- Node4&#45;&gt;Node11 -->
<g id="edge11" class="edge">
<title>Node4&#45;&gt;Node11</title>
<path fill="none" stroke="#191970" d="M987.4756,-55.4179C969.401,-46.6205 941.7645,-33.1691 921.068,-23.0956"/>
<polygon fill="#191970" stroke="#191970" points="922.3459,-19.825 911.8226,-18.5956 919.2824,-26.1191 922.3459,-19.825"/>
</g>
<!-- Node15&#45;&gt;Node4 -->
<g id="edge18" class="edge">
<title>Node15&#45;&gt;Node4</title>
<path fill="none" stroke="#191970" d="M728.046,-111.5613C785.6605,-101.8111 883.4686,-85.259 946.4013,-74.6088"/>
<polygon fill="#191970" stroke="#191970" points="947.2987,-78.0068 956.5745,-72.8872 946.1306,-71.1049 947.2987,-78.0068"/>
</g>
<!-- Node15&#45;&gt;Node8 -->
<g id="edge21" class="edge">
<title>Node15&#45;&gt;Node8</title>
<path fill="none" stroke="#191970" d="M671.7459,-110.2183C663.0254,-101.345 649.9469,-87.3749 640.1353,-74 629.231,-59.1356 618.7443,-40.9416 611.56,-27.6712"/>
<polygon fill="#191970" stroke="#191970" points="614.5363,-25.813 606.7577,-18.6196 608.3527,-29.0937 614.5363,-25.813"/>
</g>
<!-- Node15&#45;&gt;Node9 -->
<g id="edge22" class="edge">
<title>Node15&#45;&gt;Node9</title>
<path fill="none" stroke="#191970" d="M727.8962,-112.2486C733.3665,-111.4597 738.8713,-110.6927 744.1353,-110 886.0312,-91.3266 931.7231,-128.3155 1064.1353,-74 1090.392,-63.2295 1115.226,-41.4805 1130.5426,-26.2269"/>
<polygon fill="#191970" stroke="#191970" points="1133.1739,-28.5415 1137.6418,-18.9348 1128.1583,-23.6586 1133.1739,-28.5415"/>
</g>
<!-- Node15&#45;&gt;Node13 -->
<g id="edge19" class="edge">
<title>Node15&#45;&gt;Node13</title>
<path fill="none" stroke="#191970" d="M680.6399,-110.4179C680.2471,-103.2164 679.6841,-92.8962 679.1914,-83.8632"/>
<polygon fill="#191970" stroke="#191970" points="682.6809,-83.574 678.6414,-73.7795 675.6913,-83.9553 682.6809,-83.574"/>
</g>
<!-- Node15&#45;&gt;Node14 -->
<g id="edge20" class="edge">
<title>Node15&#45;&gt;Node14</title>
<path fill="none" stroke="#191970" d="M691.3733,-110.4179C700.4727,-102.3458 713.9889,-90.3556 724.9279,-80.6517"/>
<polygon fill="#191970" stroke="#191970" points="727.5167,-83.0339 732.6748,-73.7795 722.8713,-77.7974 727.5167,-83.0339"/>
</g>
<!-- Node16&#45;&gt;Node8 -->
<g id="edge26" class="edge">
<title>Node16&#45;&gt;Node8</title>
<path fill="none" stroke="#191970" d="M225.8089,-165.4974C273.7887,-145.57 392.6125,-96.2306 492.1353,-55 519.2889,-43.7507 550.2215,-30.9578 572.354,-21.8082"/>
<polygon fill="#191970" stroke="#191970" points="573.9541,-24.9341 581.8586,-17.8793 571.2799,-18.465 573.9541,-24.9341"/>
</g>
<!-- Node16&#45;&gt;Node15 -->
<g id="edge25" class="edge">
<title>Node16&#45;&gt;Node15</title>
<path fill="none" stroke="#191970" d="M262.1479,-167.8109C354.19,-157.1981 532.5988,-136.6268 624.0542,-126.0817"/>
<polygon fill="#191970" stroke="#191970" points="624.6975,-129.5308 634.2307,-124.9083 623.8956,-122.5769 624.6975,-129.5308"/>
</g>
<!-- Node16&#45;&gt;Node16 -->
<g id="edge27" class="edge">
<title>Node16&#45;&gt;Node16</title>
<path fill="none" stroke="#191970" d="M235.333,-183.5349C257.7423,-186.4765 280.0645,-183.4648 280.0645,-174.5 280.0645,-166.9009 264.0255,-163.5793 245.4901,-164.5352"/>
<polygon fill="#191970" stroke="#191970" points="244.9722,-161.0679 235.333,-165.4651 245.6105,-168.0387 244.9722,-161.0679"/>
</g>
<!-- Node17&#45;&gt;Node3 -->
<g id="edge29" class="edge">
<title>Node17&#45;&gt;Node3</title>
<path fill="none" stroke="#191970" d="M931.3658,-165.4179C906.5389,-156.3147 868.1214,-142.2283 840.3833,-132.0576"/>
<polygon fill="#191970" stroke="#191970" points="841.2859,-128.6608 830.6922,-128.5042 838.876,-135.2329 841.2859,-128.6608"/>
</g>
<!-- Node17&#45;&gt;Node8 -->
<g id="edge31" class="edge">
<title>Node17&#45;&gt;Node8</title>
<path fill="none" stroke="#191970" d="M952.6981,-165.4626C943.5219,-142.6764 916.1111,-82.7258 872.1353,-55 832.6844,-30.1271 695.0876,-16.6525 632.9755,-11.7157"/>
<polygon fill="#191970" stroke="#191970" points="632.8813,-8.1981 622.6416,-10.9182 632.3426,-15.1773 632.8813,-8.1981"/>
</g>
<!-- Node17&#45;&gt;Node9 -->
<g id="edge32" class="edge">
<title>Node17&#45;&gt;Node9</title>
<path fill="none" stroke="#191970" d="M980.8835,-165.4293C1016.5578,-151.1782 1082.3917,-120.3031 1121.1353,-74 1132.0814,-60.918 1138.5768,-42.4981 1142.1908,-28.6901"/>
<polygon fill="#191970" stroke="#191970" points="1145.6357,-29.3291 1144.5013,-18.7952 1138.819,-27.7374 1145.6357,-29.3291"/>
</g>
<!-- Node17&#45;&gt;Node15 -->
<g id="edge30" class="edge">
<title>Node17&#45;&gt;Node15</title>
<path fill="none" stroke="#191970" d="M911.0325,-165.4795C863.1768,-155.9083 787.5288,-140.7787 736.1907,-130.5111"/>
<polygon fill="#191970" stroke="#191970" points="736.7548,-127.0547 726.2626,-128.5255 735.382,-133.9187 736.7548,-127.0547"/>
</g>
<!-- Node18&#45;&gt;Node3 -->
<g id="edge34" class="edge">
<title>Node18&#45;&gt;Node3</title>
<path fill="none" stroke="#191970" d="M581.2539,-165.4795C627.968,-155.9282 701.7548,-140.8417 751.9669,-130.5753"/>
<polygon fill="#191970" stroke="#191970" points="752.8963,-133.9578 761.9925,-128.5255 751.4941,-127.0997 752.8963,-133.9578"/>
</g>
<!-- Node18&#45;&gt;Node8 -->
<g id="edge36" class="edge">
<title>Node18&#45;&gt;Node8</title>
<path fill="none" stroke="#191970" d="M533.6493,-165.3952C526.2259,-144.4089 511.1016,-91.6329 531.1353,-55 539.9775,-38.8314 557.2898,-27.5625 572.605,-20.284"/>
<polygon fill="#191970" stroke="#191970" points="574.0346,-23.4789 581.7892,-16.2597 571.2252,-17.0674 574.0346,-23.4789"/>
</g>
<!-- Node18&#45;&gt;Node15 -->
<g id="edge35" class="edge">
<title>Node18&#45;&gt;Node15</title>
<path fill="none" stroke="#191970" d="M560.9139,-165.4179C584.5724,-156.3817 621.0865,-142.4353 647.6676,-132.2828"/>
<polygon fill="#191970" stroke="#191970" points="649.2283,-135.4334 657.3213,-128.5956 646.7306,-128.8941 649.2283,-135.4334"/>
</g>
<!-- Node19&#45;&gt;Node3 -->
<g id="edge38" class="edge">
<title>Node19&#45;&gt;Node3</title>
<path fill="none" stroke="#191970" d="M1053.5883,-165.4795C1001.8635,-155.8684 919.9744,-140.6525 864.7055,-130.383"/>
<polygon fill="#191970" stroke="#191970" points="865.1798,-126.9113 854.7087,-128.5255 863.901,-133.7935 865.1798,-126.9113"/>
</g>
<!-- Node19&#45;&gt;Node8 -->
<g id="edge40" class="edge">
<title>Node19&#45;&gt;Node8</title>
<path fill="none" stroke="#191970" d="M1089.9336,-165.1891C1059.2556,-142.2978 975.6635,-83.0963 896.1353,-55 847.8126,-37.9282 697.7332,-19.9819 632.7005,-12.776"/>
<polygon fill="#191970" stroke="#191970" points="632.9844,-9.2862 622.6623,-11.6744 632.2208,-16.2445 632.9844,-9.2862"/>
</g>
<!-- Node19&#45;&gt;Node9 -->
<g id="edge41" class="edge">
<title>Node19&#45;&gt;Node9</title>
<path fill="none" stroke="#191970" d="M1111.668,-165.3591C1128.0387,-148.9211 1160.9134,-112.4815 1173.1353,-74 1178.2803,-57.8003 1169.7206,-40.0265 1160.9083,-27.2465"/>
<polygon fill="#191970" stroke="#191970" points="1163.4492,-24.8023 1154.6392,-18.9171 1157.8563,-29.0117 1163.4492,-24.8023"/>
</g>
<!-- Node19&#45;&gt;Node15 -->
<g id="edge39" class="edge">
<title>Node19&#45;&gt;Node15</title>
<path fill="none" stroke="#191970" d="M1038.4358,-166.196C1035.2912,-165.7906 1032.1777,-165.3901 1029.1353,-165 902.4989,-148.7619 870.6007,-146.5198 744.1353,-129 742.0809,-128.7154 739.9895,-128.4215 737.8776,-128.1213"/>
<polygon fill="#191970" stroke="#191970" points="738.3035,-124.6466 727.9058,-126.6804 737.3024,-131.5746 738.3035,-124.6466"/>
</g>
<!-- Node20&#45;&gt;Node3 -->
<g id="edge43" class="edge">
<title>Node20&#45;&gt;Node3</title>
<path fill="none" stroke="#191970" d="M812.8142,-165.4179C811.7667,-158.2164 810.2656,-147.8962 808.9517,-138.8632"/>
<polygon fill="#191970" stroke="#191970" points="812.388,-138.1715 807.485,-128.7795 805.4609,-139.1791 812.388,-138.1715"/>
</g>
<!-- Node20&#45;&gt;Node8 -->
<g id="edge45" class="edge">
<title>Node20&#45;&gt;Node8</title>
<path fill="none" stroke="#191970" d="M764.5428,-165.4301C711.8677,-155.351 634.8374,-139.1601 625.1353,-129 599.3338,-101.9807 598.2029,-55.2709 599.971,-28.9648"/>
<polygon fill="#191970" stroke="#191970" points="603.4792,-29.0268 600.8759,-18.7567 596.5065,-28.4086 603.4792,-29.0268"/>
</g>
<!-- Node20&#45;&gt;Node15 -->
<g id="edge44" class="edge">
<title>Node20&#45;&gt;Node15</title>
<path fill="none" stroke="#191970" d="M792.173,-165.4179C770.4181,-156.4215 736.8938,-142.5581 712.3713,-132.4172"/>
<polygon fill="#191970" stroke="#191970" points="713.7087,-129.1828 703.1301,-128.5956 711.0336,-135.6515 713.7087,-129.1828"/>
</g>
<!-- Node21&#45;&gt;Node3 -->
<g id="edge47" class="edge">
<title>Node21&#45;&gt;Node3</title>
<path fill="none" stroke="#191970" d="M452.64,-165.476C524.7886,-156.4453 638.6528,-142.0551 737.1353,-129 739.0682,-128.7438 741.0314,-128.4821 743.0134,-128.2168"/>
<polygon fill="#191970" stroke="#191970" points="743.5839,-131.6716 753.0266,-126.8669 742.6486,-124.7344 743.5839,-131.6716"/>
</g>
<!-- Node21&#45;&gt;Node8 -->
<g id="edge49" class="edge">
<title>Node21&#45;&gt;Node8</title>
<path fill="none" stroke="#191970" d="M389.4372,-165.3928C411.1536,-144.4014 467.3624,-91.6154 520.1353,-55 537.3553,-43.0522 557.9925,-31.6149 574.2554,-23.1959"/>
<polygon fill="#191970" stroke="#191970" points="575.9439,-26.2638 583.2664,-18.6067 572.7671,-20.0261 575.9439,-26.2638"/>
</g>
<!-- Node21&#45;&gt;Node15 -->
<g id="edge48" class="edge">
<title>Node21&#45;&gt;Node15</title>
<path fill="none" stroke="#191970" d="M429.5022,-165.4795C482.8858,-155.725 567.8658,-140.1971 624.0739,-129.9265"/>
<polygon fill="#191970" stroke="#191970" points="625.0122,-133.3131 634.2202,-128.0725 623.7539,-126.4271 625.0122,-133.3131"/>
</g>
</g>
</svg>
        <g id="navigator" transform="translate(0 0)" fill="#404254">
                <rect fill="#f2f5e9" fill-opacity="0.5" stroke="#606060" stroke-width=".5" x="0" y="0" width="60" height="60"/>
                <use id="zoomplus" xlink:href="#zoomPlus" x="17" y="9" onmousedown="handleZoom(evt,'in')"/>
                <use id="zoomminus" xlink:href="#zoomMin" x="42" y="9" onmousedown="handleZoom(evt,'out')"/>
                <use id="reset" xlink:href="#resetDef" x="30" y="36" onmousedown="handleReset()"/>
                <g id="arrowUp" xlink:href="#dirArrow" transform="translate(30 24)" onmousedown="handlePan(0,-1)">
                  <use xlink:href="#rim" fill="#404040">
                        <set attributeName="fill" to="#808080" begin="arrowUp.mouseover" end="arrowUp.mouseout"/>
                  </use>
                  <path fill="none" stroke="white" stroke-width="1.5" d="M0,-3.0v7 M-2.5,-0.5L0,-3.0L2.5,-0.5"/>
                </g>
                <g id="arrowRight" xlink:href="#dirArrow" transform="rotate(90) translate(36 -43)" onmousedown="handlePan(1,0)">
                  <use xlink:href="#rim" fill="#404040">
                        <set attributeName="fill" to="#808080" begin="arrowRight.mouseover" end="arrowRight.mouseout"/>
                  </use>
                  <path fill="none" stroke="white" stroke-width="1.5" d="M0,-3.0v7 M-2.5,-0.5L0,-3.0L2.5,-0.5"/>
                </g>
                <g id="arrowDown" xlink:href="#dirArrow" transform="rotate(180) translate(-30 -48)" onmousedown="handlePan(0,1)">
                  <use xlink:href="#rim" fill="#404040">
                        <set attributeName="fill" to="#808080" begin="arrowDown.mouseover" end="arrowDown.mouseout"/>
                  </use>
                  <path fill="none" stroke="white" stroke-width="1.5" d="M0,-3.0v7 M-2.5,-0.5L0,-3.0L2.5,-0.5"/>
                </g>
                <g id="arrowLeft" xlink:href="#dirArrow" transform="rotate(270) translate(-36 17)" onmousedown="handlePan(-1,0)">
                  <use xlink:href="#rim" fill="#404040">
                        <set attributeName="fill" to="#808080" begin="arrowLeft.mouseover" end="arrowLeft.mouseout"/>
                  </use>
                  <path fill="none" stroke="white" stroke-width="1.5" d="M0,-3.0v7 M-2.5,-0.5L0,-3.0L2.5,-0.5"/>
                </g>
        </g>
        <svg viewBox="0 0 15 15" width="100%" height="30px" preserveAspectRatio="xMaxYMin meet">
         <g id="arrow_out" transform="scale(0.3 0.3)">
          <a xlink:href="Iotr__Initializer_8C__incl_org.svg" target="_base">
           <rect id="button" ry="5" rx="5" y="6" x="6" height="38" width="38"
                fill="#f2f5e9" fill-opacity="0.5" stroke="#606060" stroke-width="1.0"/>
           <path id="arrow"
             d="M 11.500037,31.436501 C 11.940474,20.09759 22.043105,11.32322 32.158766,21.979434 L 37.068811,17.246167 C 37.068811,17.246167 37.088388,32 37.088388,32 L 22.160133,31.978069 C 22.160133,31.978069 26.997745,27.140456 26.997745,27.140456 C 18.528582,18.264221 13.291696,25.230495 11.500037,31.436501 z"
             style="fill:#404040;"/>
          </a>
         </g>
        </svg>
</svg>
