<?xml version="1.0" encoding="UTF-8" standalone="no"?>
<!DOCTYPE svg PUBLIC "-//W3C//DTD SVG 1.1//EN"
 "http://www.w3.org/Graphics/SVG/1.1/DTD/svg11.dtd">
<!-- Generated by graphviz version 2.40.1 (20161225.0304)
 -->
<!-- Title: src/transform/Iotr_Offset.h Pages: 1 -->
<svg width="501pt" height="202pt"
 viewBox="0.00 0.00 500.84 202.00" xmlns="http://www.w3.org/2000/svg" xmlns:xlink="http://www.w3.org/1999/xlink">
<g id="graph0" class="graph" transform="scale(1 1) rotate(0) translate(4 198)">
<title>src/transform/Iotr_Offset.h</title>
<polygon fill="#ffffff" stroke="transparent" points="-4,4 -4,-198 496.8423,-198 496.8423,4 -4,4"/>
<!-- Node0 -->
<g id="node1" class="node">
<title>Node0</title>
<g id="a_node1"><a xlink:title=" ">
<polygon fill="#bfbfbf" stroke="#000000" points="363.8325,-165.5 363.8325,-193.5 455.3989,-193.5 455.3989,-165.5 363.8325,-165.5"/>
<text text-anchor="start" x="371.8325" y="-181.5" font-family="Helvetica,sans-Serif" font-size="10.00" fill="#000000">src/transform/Iotr</text>
<text text-anchor="middle" x="409.6157" y="-171.5" font-family="Helvetica,sans-Serif" font-size="10.00" fill="#000000">_Offset.h</text>
</a>
</g>
</g>
<!-- Node0&#45;&gt;Node0 -->
<g id="edge15" class="edge">
<title>Node0&#45;&gt;Node0</title>
<path fill="none" stroke="#191970" d="M455.484,-190.4753C465.8309,-189.4866 473.3989,-185.8281 473.3989,-179.5 473.3989,-175.446 470.293,-172.4877 465.3403,-170.625"/>
<polygon fill="#191970" stroke="#191970" points="465.9939,-167.1858 455.484,-168.5247 464.5349,-174.0321 465.9939,-167.1858"/>
</g>
<!-- Node1 -->
<g id="node2" class="node">
<title>Node1</title>
<g id="a_node2"><a xlink:href="Ioss__Transform_8h.html" target="_top" xlink:title=" ">
<polygon fill="#ffffff" stroke="#000000" points="320.8975,-110.5 320.8975,-128.5 414.334,-128.5 414.334,-110.5 320.8975,-110.5"/>
<text text-anchor="middle" x="367.6157" y="-116.5" font-family="Helvetica,sans-Serif" font-size="10.00" fill="#000000">Ioss_Transform.h</text>
</a>
</g>
</g>
<!-- Node0&#45;&gt;Node1 -->
<g id="edge1" class="edge">
<title>Node0&#45;&gt;Node1</title>
<path fill="none" stroke="#191970" d="M399.6623,-165.2808C393.6949,-156.756 386.0638,-145.8545 379.7454,-136.8281"/>
<polygon fill="#191970" stroke="#191970" points="382.5766,-134.7694 373.9747,-128.5842 376.842,-138.7837 382.5766,-134.7694"/>
</g>
<!-- Node6 -->
<g id="node7" class="node">
<title>Node6</title>
<g id="a_node7"><a xlink:title=" ">
<polygon fill="#ffffff" stroke="#bfbfbf" points="452.3892,-.5 452.3892,-18.5 492.8423,-18.5 492.8423,-.5 452.3892,-.5"/>
<text text-anchor="middle" x="472.6157" y="-6.5" font-family="Helvetica,sans-Serif" font-size="10.00" fill="#000000">string</text>
</a>
</g>
</g>
<!-- Node0&#45;&gt;Node6 -->
<g id="edge14" class="edge">
<title>Node0&#45;&gt;Node6</title>
<path fill="none" stroke="#191970" d="M414.8787,-165.2983C426.1932,-134.7672 452.8377,-62.8692 465.5836,-28.4756"/>
<polygon fill="#191970" stroke="#191970" points="469.0033,-29.3197 469.1964,-18.7266 462.4395,-26.8872 469.0033,-29.3197"/>
</g>
<!-- Node2 -->
<g id="node3" class="node">
<title>Node2</title>
<g id="a_node3"><a xlink:href="Ioss__CodeTypes_8h.html" target="_top" xlink:title=" ">
<polygon fill="#ffffff" stroke="#000000" points="188.1997,-55.5 188.1997,-73.5 287.0317,-73.5 287.0317,-55.5 188.1997,-55.5"/>
<text text-anchor="middle" x="237.6157" y="-61.5" font-family="Helvetica,sans-Serif" font-size="10.00" fill="#000000">Ioss_CodeTypes.h</text>
</a>
</g>
</g>
<!-- Node1&#45;&gt;Node2 -->
<g id="edge2" class="edge">
<title>Node1&#45;&gt;Node2</title>
<path fill="none" stroke="#191970" d="M346.1489,-110.4179C324.9787,-101.4613 292.4063,-87.6806 268.4659,-77.552"/>
<polygon fill="#191970" stroke="#191970" points="269.6879,-74.2687 259.1145,-73.5956 266.9604,-80.7155 269.6879,-74.2687"/>
</g>
<!-- Node1&#45;&gt;Node6 -->
<g id="edge12" class="edge">
<title>Node1&#45;&gt;Node6</title>
<path fill="none" stroke="#191970" d="M381.6693,-110.419C394.2523,-101.8979 412.7959,-88.3467 426.6157,-74 440.283,-59.8116 453.0567,-41.3085 461.6582,-27.7607"/>
<polygon fill="#191970" stroke="#191970" points="464.8526,-29.2496 467.1371,-18.904 458.8996,-25.5669 464.8526,-29.2496"/>
</g>
<!-- Node7 -->
<g id="node8" class="node">
<title>Node7</title>
<g id="a_node8"><a xlink:title=" ">
<polygon fill="#ffffff" stroke="#bfbfbf" points="0,-.5 0,-18.5 43.2314,-18.5 43.2314,-.5 0,-.5"/>
<text text-anchor="middle" x="21.6157" y="-6.5" font-family="Helvetica,sans-Serif" font-size="10.00" fill="#000000">vector</text>
</a>
</g>
</g>
<!-- Node1&#45;&gt;Node7 -->
<g id="edge13" class="edge">
<title>Node1&#45;&gt;Node7</title>
<path fill="none" stroke="#191970" d="M321.8802,-110.4422C283.4787,-102.36 227.3879,-89.4354 179.6157,-74 133.5696,-59.1223 81.967,-36.975 50.6398,-22.8894"/>
<polygon fill="#191970" stroke="#191970" points="51.7669,-19.5577 41.2137,-18.6189 48.8781,-25.9339 51.7669,-19.5577"/>
</g>
<!-- Node10 -->
<g id="node11" class="node">
<title>Node10</title>
<g id="a_node11"><a xlink:title=" ">
<polygon fill="#ffffff" stroke="#bfbfbf" points="305.2119,-55.5 305.2119,-73.5 364.0195,-73.5 364.0195,-55.5 305.2119,-55.5"/>
<text text-anchor="middle" x="334.6157" y="-61.5" font-family="Helvetica,sans-Serif" font-size="10.00" fill="#000000">functional</text>
</a>
</g>
</g>
<!-- Node1&#45;&gt;Node10 -->
<g id="edge10" class="edge">
<title>Node1&#45;&gt;Node10</title>
<path fill="none" stroke="#191970" d="M362.1664,-110.4179C357.6081,-102.8207 350.9673,-91.7527 345.3477,-82.3866"/>
<polygon fill="#191970" stroke="#191970" points="348.3296,-80.5536 340.1834,-73.7795 342.3272,-84.1552 348.3296,-80.5536"/>
</g>
<!-- Node11 -->
<g id="node12" class="node">
<title>Node11</title>
<g id="a_node12"><a xlink:title=" ">
<polygon fill="#ffffff" stroke="#bfbfbf" points="381.8892,-55.5 381.8892,-73.5 417.3423,-73.5 417.3423,-55.5 381.8892,-55.5"/>
<text text-anchor="middle" x="399.6157" y="-61.5" font-family="Helvetica,sans-Serif" font-size="10.00" fill="#000000">map</text>
</a>
</g>
</g>
<!-- Node1&#45;&gt;Node11 -->
<g id="edge11" class="edge">
<title>Node1&#45;&gt;Node11</title>
<path fill="none" stroke="#191970" d="M372.8999,-110.4179C377.274,-102.8998 383.6257,-91.9829 389.0384,-82.6799"/>
<polygon fill="#191970" stroke="#191970" points="392.213,-84.1831 394.2168,-73.7795 386.1626,-80.6628 392.213,-84.1831"/>
</g>
<!-- Node3 -->
<g id="node4" class="node">
<title>Node3</title>
<g id="a_node4"><a xlink:title=" ">
<polygon fill="#ffffff" stroke="#bfbfbf" points="395.2241,-.5 395.2241,-18.5 434.0073,-18.5 434.0073,-.5 395.2241,-.5"/>
<text text-anchor="middle" x="414.6157" y="-6.5" font-family="Helvetica,sans-Serif" font-size="10.00" fill="#000000">array</text>
</a>
</g>
</g>
<!-- Node2&#45;&gt;Node3 -->
<g id="edge3" class="edge">
<title>Node2&#45;&gt;Node3</title>
<path fill="none" stroke="#191970" d="M268.2355,-55.4493C296.4135,-47.0545 339.5934,-34.0257 385.2771,-19.3714"/>
<polygon fill="#191970" stroke="#191970" points="386.6136,-22.618 395.059,-16.2207 384.4675,-15.9551 386.6136,-22.618"/>
</g>
<!-- Node4 -->
<g id="node5" class="node">
<title>Node4</title>
<g id="a_node5"><a xlink:title=" ">
<polygon fill="#ffffff" stroke="#bfbfbf" points="61.4951,-.5 61.4951,-18.5 109.7363,-18.5 109.7363,-.5 61.4951,-.5"/>
<text text-anchor="middle" x="85.6157" y="-6.5" font-family="Helvetica,sans-Serif" font-size="10.00" fill="#000000">cstddef</text>
</a>
</g>
</g>
<!-- Node2&#45;&gt;Node4 -->
<g id="edge4" class="edge">
<title>Node2&#45;&gt;Node4</title>
<path fill="none" stroke="#191970" d="M212.516,-55.4179C187.0215,-46.1929 147.3841,-31.8504 119.198,-21.6515"/>
<polygon fill="#191970" stroke="#191970" points="120.3421,-18.3434 109.7478,-18.232 117.9602,-24.9258 120.3421,-18.3434"/>
</g>
<!-- Node5 -->
<g id="node6" class="node">
<title>Node5</title>
<g id="a_node6"><a xlink:title=" ">
<polygon fill="#ffffff" stroke="#bfbfbf" points="128.165,-.5 128.165,-18.5 173.0664,-18.5 173.0664,-.5 128.165,-.5"/>
<text text-anchor="middle" x="150.6157" y="-6.5" font-family="Helvetica,sans-Serif" font-size="10.00" fill="#000000">cstdint</text>
</a>
</g>
</g>
<!-- Node2&#45;&gt;Node5 -->
<g id="edge5" class="edge">
<title>Node2&#45;&gt;Node5</title>
<path fill="none" stroke="#191970" d="M223.2494,-55.4179C209.7744,-46.8992 189.3965,-34.0166 173.6513,-24.0627"/>
<polygon fill="#191970" stroke="#191970" points="175.3262,-20.9808 165.0033,-18.5956 171.5857,-26.8977 175.3262,-20.9808"/>
</g>
<!-- Node2&#45;&gt;Node6 -->
<g id="edge6" class="edge">
<title>Node2&#45;&gt;Node6</title>
<path fill="none" stroke="#191970" d="M283.8998,-55.4435C325.6352,-46.9891 388.5728,-33.5239 442.6157,-19 442.7146,-18.9734 442.8137,-18.9467 442.913,-18.9199"/>
<polygon fill="#191970" stroke="#191970" points="443.7239,-22.329 452.354,-16.183 441.7749,-15.6058 443.7239,-22.329"/>
</g>
<!-- Node2&#45;&gt;Node7 -->
<g id="edge7" class="edge">
<title>Node2&#45;&gt;Node7</title>
<path fill="none" stroke="#191970" d="M198.1122,-55.4631C162.5965,-47.1871 108.799,-34.2789 52.9591,-18.9787"/>
<polygon fill="#191970" stroke="#191970" points="53.8213,-15.5858 43.2506,-16.2997 51.9593,-22.3337 53.8213,-15.5858"/>
</g>
<!-- Node8 -->
<g id="node9" class="node">
<title>Node8</title>
<g id="a_node9"><a xlink:title=" ">
<polygon fill="#ffffff" stroke="#bfbfbf" points="190.8672,-.5 190.8672,-18.5 306.3643,-18.5 306.3643,-.5 190.8672,-.5"/>
<text text-anchor="middle" x="248.6157" y="-6.5" font-family="Helvetica,sans-Serif" font-size="10.00" fill="#000000">SEACASIoss_config.h</text>
</a>
</g>
</g>
<!-- Node2&#45;&gt;Node8 -->
<g id="edge8" class="edge">
<title>Node2&#45;&gt;Node8</title>
<path fill="none" stroke="#191970" d="M239.4321,-55.4179C240.8725,-48.2164 242.9365,-37.8962 244.7431,-28.8632"/>
<polygon fill="#191970" stroke="#191970" points="248.2306,-29.2717 246.7598,-18.7795 241.3666,-27.8988 248.2306,-29.2717"/>
</g>
<!-- Node9 -->
<g id="node10" class="node">
<title>Node9</title>
<g id="a_node10"><a xlink:title=" ">
<polygon fill="#ffffff" stroke="#bfbfbf" points="323.9976,-.5 323.9976,-18.5 377.2339,-18.5 377.2339,-.5 323.9976,-.5"/>
<text text-anchor="middle" x="350.6157" y="-6.5" font-family="Helvetica,sans-Serif" font-size="10.00" fill="#000000">complex</text>
</a>
</g>
</g>
<!-- Node2&#45;&gt;Node9 -->
<g id="edge9" class="edge">
<title>Node2&#45;&gt;Node9</title>
<path fill="none" stroke="#191970" d="M256.2754,-55.4179C274.35,-46.6205 301.9865,-33.1691 322.6829,-23.0956"/>
<polygon fill="#191970" stroke="#191970" points="324.4686,-26.1191 331.9283,-18.5956 321.4051,-19.825 324.4686,-26.1191"/>
</g>
</g>
</svg>
