<?xml version="1.0" encoding="UTF-8" standalone="no"?>
<!DOCTYPE svg PUBLIC "-//W3C//DTD SVG 1.1//EN"
 "http://www.w3.org/Graphics/SVG/1.1/DTD/svg11.dtd">
<!-- Generated by graphviz version 2.40.1 (20161225.0304)
 -->
<!-- Title: src/transform/Iotr_VectorMagnitude.C Pages: 1 -->
<!--zoomable 367 -->
<svg id="main" version="1.1" xmlns="http://www.w3.org/2000/svg" xmlns:xlink="http://www.w3.org/1999/xlink" xml:space="preserve" onload="init(evt)">
<style type="text/css"><![CDATA[
.edge:hover path { stroke: red; }
.edge:hover polygon { stroke: red; fill: red; }
]]></style>
<script type="text/javascript"><![CDATA[
var edges = document.getElementsByTagName('g');
if (edges && edges.length) {
  for (var i=0;i<edges.length;i++) {
    if (edges[i].id.substr(0,4)=='edge') {
      edges[i].setAttribute('class','edge');
    }
  }
}
]]></script>
        <defs>
                <circle id="rim" cx="0" cy="0" r="7"/>
                <circle id="rim2" cx="0" cy="0" r="3.5"/>
                <g id="zoomPlus">
                        <use xlink:href="#rim" fill="#404040">
                                <set attributeName="fill" to="#808080" begin="zoomplus.mouseover" end="zoomplus.mouseout"/>
                        </use>
                        <path d="M-4,0h8M0,-4v8" fill="none" stroke="white" stroke-width="1.5" pointer-events="none"/>
                </g>
                <g id="zoomMin">
                        <use xlink:href="#rim" fill="#404040">
                                <set attributeName="fill" to="#808080" begin="zoomminus.mouseover" end="zoomminus.mouseout"/>
                        </use>
                        <path d="M-4,0h8" fill="none" stroke="white" stroke-width="1.5" pointer-events="none"/>
                </g>
                <g id="dirArrow">
                        <path fill="none" stroke="white" stroke-width="1.5" d="M0,-3.0v7 M-2.5,-0.5L0,-3.0L2.5,-0.5"/>
                </g>
               <g id="resetDef">
                       <use xlink:href="#rim2" fill="#404040">
                               <set attributeName="fill" to="#808080" begin="reset.mouseover" end="reset.mouseout"/>
                       </use>
               </g>
        </defs>

<script type="text/javascript">
var viewWidth = 1005;
var viewHeight = 367;
var sectionId = 'dynsection-0';
</script>
<script xlink:href="svgpan.js"/>
<svg id="graph" class="graph">
<g id="viewport">
<title>src/transform/Iotr_VectorMagnitude.C</title>
<polygon fill="#ffffff" stroke="transparent" points="-4,4 -4,-363 1001,-363 1001,4 -4,4"/>
<!-- Node0 -->
<g id="node1" class="node">
<title>Node0</title>
<g id="a_node1"><a xlink:title=" ">
<polygon fill="#bfbfbf" stroke="#000000" points="668.6924,-330.5 668.6924,-358.5 775.3076,-358.5 775.3076,-330.5 668.6924,-330.5"/>
<text text-anchor="start" x="676.6924" y="-346.5" font-family="Helvetica,sans-Serif" font-size="10.00" fill="#000000">src/transform/Iotr</text>
<text text-anchor="middle" x="722" y="-336.5" font-family="Helvetica,sans-Serif" font-size="10.00" fill="#000000">_VectorMagnitude.C</text>
</a>
</g>
</g>
<!-- Node1 -->
<g id="node2" class="node">
<title>Node1</title>
<g id="a_node2"><a xlink:href="Ioss__Field_8h.html" target="_top" xlink:title=" ">
<polygon fill="#ffffff" stroke="#000000" points="104.042,-110.5 104.042,-128.5 173.958,-128.5 173.958,-110.5 104.042,-110.5"/>
<text text-anchor="middle" x="139" y="-116.5" font-family="Helvetica,sans-Serif" font-size="10.00" fill="#000000">Ioss_Field.h</text>
</a>
</g>
</g>
<!-- Node0&#45;&gt;Node1 -->
<g id="edge1" class="edge">
<title>Node0&#45;&gt;Node1</title>
<path fill="none" stroke="#191970" d="M685.5307,-330.4252C579.6222,-289.5514 273.1627,-171.2781 171.9062,-132.1997"/>
<polygon fill="#191970" stroke="#191970" points="173.0779,-128.9003 162.4884,-128.565 170.5575,-135.4308 173.0779,-128.9003"/>
</g>
<!-- Node4 -->
<g id="node5" class="node">
<title>Node4</title>
<g id="a_node5"><a xlink:title=" ">
<polygon fill="#ffffff" stroke="#bfbfbf" points="76.8794,-.5 76.8794,-18.5 125.1206,-18.5 125.1206,-.5 76.8794,-.5"/>
<text text-anchor="middle" x="101" y="-6.5" font-family="Helvetica,sans-Serif" font-size="10.00" fill="#000000">cstddef</text>
</a>
</g>
</g>
<!-- Node0&#45;&gt;Node4 -->
<g id="edge34" class="edge">
<title>Node0&#45;&gt;Node4</title>
<path fill="none" stroke="#191970" d="M668.6164,-341.6284C501.5848,-331.9395 0,-297.2078 0,-229.5 0,-229.5 0,-229.5 0,-119.5 0,-75.5631 44.2609,-41.5926 74.1825,-23.6475"/>
<polygon fill="#191970" stroke="#191970" points="76.026,-26.6247 82.9432,-18.5995 72.5312,-20.5595 76.026,-26.6247"/>
</g>
<!-- Node6 -->
<g id="node7" class="node">
<title>Node6</title>
<g id="a_node7"><a xlink:title=" ">
<polygon fill="#ffffff" stroke="#bfbfbf" points="816.7734,-.5 816.7734,-18.5 857.2266,-18.5 857.2266,-.5 816.7734,-.5"/>
<text text-anchor="middle" x="837" y="-6.5" font-family="Helvetica,sans-Serif" font-size="10.00" fill="#000000">string</text>
</a>
</g>
</g>
<!-- Node0&#45;&gt;Node6 -->
<g id="edge35" class="edge">
<title>Node0&#45;&gt;Node6</title>
<path fill="none" stroke="#191970" d="M775.3488,-333.5516C855.3204,-315.5847 997,-277.0449 997,-229.5 997,-229.5 997,-229.5 997,-119.5 997,-57.1354 913.4358,-27.4606 867.0889,-15.7981"/>
<polygon fill="#191970" stroke="#191970" points="867.8033,-12.3704 857.2641,-13.4548 866.1792,-19.1794 867.8033,-12.3704"/>
</g>
<!-- Node10 -->
<g id="node11" class="node">
<title>Node10</title>
<g id="a_node11"><a xlink:href="Ioss__VariableType_8h.html" target="_top" xlink:title=" ">
<polygon fill="#ffffff" stroke="#000000" points="559.061,-220.5 559.061,-238.5 664.939,-238.5 664.939,-220.5 559.061,-220.5"/>
<text text-anchor="middle" x="612" y="-226.5" font-family="Helvetica,sans-Serif" font-size="10.00" fill="#000000">Ioss_VariableType.h</text>
</a>
</g>
</g>
<!-- Node0&#45;&gt;Node10 -->
<g id="edge13" class="edge">
<title>Node0&#45;&gt;Node10</title>
<path fill="none" stroke="#191970" d="M681.8761,-330.387C664.0152,-322.2612 644.1025,-310.3588 631,-294 620.6349,-281.059 615.9227,-262.6236 613.7813,-248.7739"/>
<polygon fill="#191970" stroke="#191970" points="617.2542,-248.3387 612.5562,-238.8424 610.3069,-249.1957 617.2542,-248.3387"/>
</g>
<!-- Node14 -->
<g id="node15" class="node">
<title>Node14</title>
<g id="a_node15"><a xlink:title=" ">
<polygon fill="#ffffff" stroke="#bfbfbf" points="849.3843,-110.5 849.3843,-128.5 892.6157,-128.5 892.6157,-110.5 849.3843,-110.5"/>
<text text-anchor="middle" x="871" y="-116.5" font-family="Helvetica,sans-Serif" font-size="10.00" fill="#000000">cmath</text>
</a>
</g>
</g>
<!-- Node0&#45;&gt;Node14 -->
<g id="edge33" class="edge">
<title>Node0&#45;&gt;Node14</title>
<path fill="none" stroke="#191970" d="M770.0506,-330.3965C790.5801,-322.4154 813.5505,-310.6275 830,-294 872.0658,-251.4792 874.0778,-174.4457 872.4679,-138.6899"/>
<polygon fill="#191970" stroke="#191970" points="875.9569,-138.3998 871.8641,-128.6274 868.9695,-138.8191 875.9569,-138.3998"/>
</g>
<!-- Node21 -->
<g id="node22" class="node">
<title>Node21</title>
<g id="a_node22"><a xlink:href="Iotr__VectorMagnitude_8h.html" target="_top" xlink:title=" ">
<polygon fill="#ffffff" stroke="#000000" points="639.7935,-275.5 639.7935,-293.5 804.2065,-293.5 804.2065,-275.5 639.7935,-275.5"/>
<text text-anchor="middle" x="722" y="-281.5" font-family="Helvetica,sans-Serif" font-size="10.00" fill="#000000">transform/Iotr_VectorMagnitude.h</text>
</a>
</g>
</g>
<!-- Node0&#45;&gt;Node21 -->
<g id="edge36" class="edge">
<title>Node0&#45;&gt;Node21</title>
<path fill="none" stroke="#191970" d="M722,-330.2808C722,-322.3776 722,-312.4316 722,-303.8308"/>
<polygon fill="#191970" stroke="#191970" points="725.5001,-303.5842 722,-293.5842 718.5001,-303.5842 725.5001,-303.5842"/>
</g>
<!-- Node22 -->
<g id="node23" class="node">
<title>Node22</title>
<g id="a_node23"><a xlink:href="Ioss__Transform_8h.html" target="_top" xlink:title=" ">
<polygon fill="#ffffff" stroke="#000000" points="752.2817,-220.5 752.2817,-238.5 845.7183,-238.5 845.7183,-220.5 752.2817,-220.5"/>
<text text-anchor="middle" x="799" y="-226.5" font-family="Helvetica,sans-Serif" font-size="10.00" fill="#000000">Ioss_Transform.h</text>
</a>
</g>
</g>
<!-- Node0&#45;&gt;Node22 -->
<g id="edge45" class="edge">
<title>Node0&#45;&gt;Node22</title>
<path fill="none" stroke="#191970" d="M767.673,-330.4573C785.028,-322.6461 803.0085,-310.9717 813,-294 821.2458,-279.9936 816.056,-261.7069 809.7878,-248.183"/>
<polygon fill="#191970" stroke="#191970" points="812.6965,-246.1888 804.9889,-238.9195 806.481,-249.4087 812.6965,-246.1888"/>
</g>
<!-- Node2 -->
<g id="node3" class="node">
<title>Node2</title>
<g id="a_node3"><a xlink:href="Ioss__CodeTypes_8h.html" target="_top" xlink:title=" ">
<polygon fill="#ffffff" stroke="#000000" points="581.584,-55.5 581.584,-73.5 680.416,-73.5 680.416,-55.5 581.584,-55.5"/>
<text text-anchor="middle" x="631" y="-61.5" font-family="Helvetica,sans-Serif" font-size="10.00" fill="#000000">Ioss_CodeTypes.h</text>
</a>
</g>
</g>
<!-- Node1&#45;&gt;Node2 -->
<g id="edge2" class="edge">
<title>Node1&#45;&gt;Node2</title>
<path fill="none" stroke="#191970" d="M174.1106,-115.3947C188.6235,-113.7076 205.6208,-111.7442 221,-110 345.4594,-95.8846 491.2279,-79.819 571.0972,-71.0564"/>
<polygon fill="#191970" stroke="#191970" points="571.8899,-74.4905 581.4487,-69.9211 571.1267,-67.5322 571.8899,-74.4905"/>
</g>
<!-- Node1&#45;&gt;Node4 -->
<g id="edge10" class="edge">
<title>Node1&#45;&gt;Node4</title>
<path fill="none" stroke="#191970" d="M135.8903,-110.4982C129.711,-92.6108 115.7714,-52.2594 107.5039,-28.3271"/>
<polygon fill="#191970" stroke="#191970" points="110.7261,-26.9352 104.1527,-18.6261 104.1098,-29.2209 110.7261,-26.9352"/>
</g>
<!-- Node1&#45;&gt;Node6 -->
<g id="edge11" class="edge">
<title>Node1&#45;&gt;Node6</title>
<path fill="none" stroke="#191970" d="M174.0833,-115.1342C188.592,-113.4072 205.5935,-111.4844 221,-110 428.6528,-89.9922 486.6873,-124.8877 689,-74 709.2625,-68.9034 712.8588,-63.376 732,-55 757.297,-43.9303 786.0757,-31.4688 807.0988,-22.3897"/>
<polygon fill="#191970" stroke="#191970" points="808.6648,-25.526 816.459,-18.3496 805.8907,-19.0991 808.6648,-25.526"/>
</g>
<!-- Node7 -->
<g id="node8" class="node">
<title>Node7</title>
<g id="a_node8"><a xlink:title=" ">
<polygon fill="#ffffff" stroke="#bfbfbf" points="180.3843,-.5 180.3843,-18.5 223.6157,-18.5 223.6157,-.5 180.3843,-.5"/>
<text text-anchor="middle" x="202" y="-6.5" font-family="Helvetica,sans-Serif" font-size="10.00" fill="#000000">vector</text>
</a>
</g>
</g>
<!-- Node1&#45;&gt;Node7 -->
<g id="edge12" class="edge">
<title>Node1&#45;&gt;Node7</title>
<path fill="none" stroke="#191970" d="M144.1556,-110.4982C154.5386,-92.369 178.1375,-51.1647 191.7677,-27.3659"/>
<polygon fill="#191970" stroke="#191970" points="194.8404,-29.0432 196.7732,-18.6261 188.7661,-25.5643 194.8404,-29.0432"/>
</g>
<!-- Node3 -->
<g id="node4" class="node">
<title>Node3</title>
<g id="a_node4"><a xlink:title=" ">
<polygon fill="#ffffff" stroke="#bfbfbf" points="555.6084,-.5 555.6084,-18.5 594.3916,-18.5 594.3916,-.5 555.6084,-.5"/>
<text text-anchor="middle" x="575" y="-6.5" font-family="Helvetica,sans-Serif" font-size="10.00" fill="#000000">array</text>
</a>
</g>
</g>
<!-- Node2&#45;&gt;Node3 -->
<g id="edge3" class="edge">
<title>Node2&#45;&gt;Node3</title>
<path fill="none" stroke="#191970" d="M621.7527,-55.4179C613.6145,-47.425 601.5647,-35.5903 591.7366,-25.9377"/>
<polygon fill="#191970" stroke="#191970" points="594.0352,-23.2895 584.4482,-18.7795 589.1302,-28.2836 594.0352,-23.2895"/>
</g>
<!-- Node2&#45;&gt;Node4 -->
<g id="edge4" class="edge">
<title>Node2&#45;&gt;Node4</title>
<path fill="none" stroke="#191970" d="M581.5831,-60.2049C497.2675,-52.744 320.2469,-36.5029 171,-19 159.3427,-17.6329 146.6184,-15.9603 135.254,-14.4016"/>
<polygon fill="#191970" stroke="#191970" points="135.6558,-10.9239 125.2693,-13.0142 134.6924,-17.8573 135.6558,-10.9239"/>
</g>
<!-- Node5 -->
<g id="node6" class="node">
<title>Node5</title>
<g id="a_node6"><a xlink:title=" ">
<polygon fill="#ffffff" stroke="#bfbfbf" points="492.5493,-.5 492.5493,-18.5 537.4507,-18.5 537.4507,-.5 492.5493,-.5"/>
<text text-anchor="middle" x="515" y="-6.5" font-family="Helvetica,sans-Serif" font-size="10.00" fill="#000000">cstdint</text>
</a>
</g>
</g>
<!-- Node2&#45;&gt;Node5 -->
<g id="edge5" class="edge">
<title>Node2&#45;&gt;Node5</title>
<path fill="none" stroke="#191970" d="M611.845,-55.4179C593.2066,-46.5807 564.6633,-33.0473 543.3864,-22.9591"/>
<polygon fill="#191970" stroke="#191970" points="544.7188,-19.7174 534.1835,-18.5956 541.7198,-26.0424 544.7188,-19.7174"/>
</g>
<!-- Node2&#45;&gt;Node6 -->
<g id="edge6" class="edge">
<title>Node2&#45;&gt;Node6</title>
<path fill="none" stroke="#191970" d="M669.1748,-55.4463C703.0462,-47.2447 754.07,-34.4797 806.8907,-19.1952"/>
<polygon fill="#191970" stroke="#191970" points="808.1514,-22.4734 816.7707,-16.3125 806.1906,-15.7536 808.1514,-22.4734"/>
</g>
<!-- Node2&#45;&gt;Node7 -->
<g id="edge7" class="edge">
<title>Node2&#45;&gt;Node7</title>
<path fill="none" stroke="#191970" d="M581.3692,-58.1371C492.4461,-46.7367 308.3317,-23.1323 234.0804,-13.6129"/>
<polygon fill="#191970" stroke="#191970" points="234.3108,-10.1138 223.9469,-12.3137 233.4206,-17.057 234.3108,-10.1138"/>
</g>
<!-- Node8 -->
<g id="node9" class="node">
<title>Node8</title>
<g id="a_node9"><a xlink:title=" ">
<polygon fill="#ffffff" stroke="#bfbfbf" points="612.2515,-.5 612.2515,-18.5 727.7485,-18.5 727.7485,-.5 612.2515,-.5"/>
<text text-anchor="middle" x="670" y="-6.5" font-family="Helvetica,sans-Serif" font-size="10.00" fill="#000000">SEACASIoss_config.h</text>
</a>
</g>
</g>
<!-- Node2&#45;&gt;Node8 -->
<g id="edge8" class="edge">
<title>Node2&#45;&gt;Node8</title>
<path fill="none" stroke="#191970" d="M637.4401,-55.4179C642.8833,-47.7415 650.8392,-36.5217 657.5239,-27.0945"/>
<polygon fill="#191970" stroke="#191970" points="660.4908,-28.9613 663.42,-18.7795 654.7806,-24.9123 660.4908,-28.9613"/>
</g>
<!-- Node9 -->
<g id="node10" class="node">
<title>Node9</title>
<g id="a_node10"><a xlink:title=" ">
<polygon fill="#ffffff" stroke="#bfbfbf" points="745.3818,-.5 745.3818,-18.5 798.6182,-18.5 798.6182,-.5 745.3818,-.5"/>
<text text-anchor="middle" x="772" y="-6.5" font-family="Helvetica,sans-Serif" font-size="10.00" fill="#000000">complex</text>
</a>
</g>
</g>
<!-- Node2&#45;&gt;Node9 -->
<g id="edge9" class="edge">
<title>Node2&#45;&gt;Node9</title>
<path fill="none" stroke="#191970" d="M654.2833,-55.4179C677.4488,-46.3817 713.2023,-32.4353 739.2296,-22.2828"/>
<polygon fill="#191970" stroke="#191970" points="740.6377,-25.4904 748.6821,-18.5956 738.0939,-18.969 740.6377,-25.4904"/>
</g>
<!-- Node10&#45;&gt;Node2 -->
<g id="edge14" class="edge">
<title>Node10&#45;&gt;Node2</title>
<path fill="none" stroke="#191970" d="M612.0833,-220.2306C612.3404,-207.6257 613.3259,-184.423 617,-165 620.1096,-148.5613 625.1446,-145.4848 628,-129 630.6044,-113.9642 631.2873,-96.6816 631.3558,-83.7928"/>
<polygon fill="#191970" stroke="#191970" points="634.8557,-83.7414 631.2907,-73.7644 627.8558,-83.7869 634.8557,-83.7414"/>
</g>
<!-- Node10&#45;&gt;Node6 -->
<g id="edge31" class="edge">
<title>Node10&#45;&gt;Node6</title>
<path fill="none" stroke="#191970" d="M616.2594,-220.0934C622.4955,-206.9222 635.0125,-182.623 650,-165 663.8448,-148.7206 772.7436,-60.9384 817.6948,-24.9276"/>
<polygon fill="#191970" stroke="#191970" points="819.9264,-27.6245 825.5466,-18.6431 815.5522,-22.1594 819.9264,-27.6245"/>
</g>
<!-- Node10&#45;&gt;Node7 -->
<g id="edge32" class="edge">
<title>Node10&#45;&gt;Node7</title>
<path fill="none" stroke="#191970" d="M558.7571,-227.3956C438.8311,-221.4236 153.4516,-199.9082 95,-129 62.3937,-89.445 132.0022,-44.9881 173.6881,-23.1304"/>
<polygon fill="#191970" stroke="#191970" points="175.2987,-26.2379 182.6108,-18.5707 172.1134,-20.0046 175.2987,-26.2379"/>
</g>
<!-- Node11 -->
<g id="node12" class="node">
<title>Node11</title>
<g id="a_node12"><a xlink:href="Ioss__Utils_8h.html" target="_top" xlink:title=" ">
<polygon fill="#ffffff" stroke="#000000" points="426.1577,-165.5 426.1577,-183.5 493.8423,-183.5 493.8423,-165.5 426.1577,-165.5"/>
<text text-anchor="middle" x="460" y="-171.5" font-family="Helvetica,sans-Serif" font-size="10.00" fill="#000000">Ioss_Utils.h</text>
</a>
</g>
</g>
<!-- Node10&#45;&gt;Node11 -->
<g id="edge15" class="edge">
<title>Node10&#45;&gt;Node11</title>
<path fill="none" stroke="#191970" d="M586.9003,-220.4179C561.632,-211.2748 522.4709,-197.1046 494.3355,-186.924"/>
<polygon fill="#191970" stroke="#191970" points="495.4786,-183.6156 484.8844,-183.5042 493.0968,-190.198 495.4786,-183.6156"/>
</g>
<!-- Node18 -->
<g id="node19" class="node">
<title>Node18</title>
<g id="a_node19"><a xlink:title=" ">
<polygon fill="#ffffff" stroke="#bfbfbf" points="519.2734,-165.5 519.2734,-183.5 564.7266,-183.5 564.7266,-165.5 519.2734,-165.5"/>
<text text-anchor="middle" x="542" y="-171.5" font-family="Helvetica,sans-Serif" font-size="10.00" fill="#000000">cstring</text>
</a>
</g>
</g>
<!-- Node10&#45;&gt;Node18 -->
<g id="edge28" class="edge">
<title>Node10&#45;&gt;Node18</title>
<path fill="none" stroke="#191970" d="M600.4409,-220.4179C589.966,-212.1876 574.3068,-199.8839 561.8336,-190.0836"/>
<polygon fill="#191970" stroke="#191970" points="563.8358,-187.2056 553.8102,-183.7795 559.511,-192.7098 563.8358,-187.2056"/>
</g>
<!-- Node19 -->
<g id="node20" class="node">
<title>Node19</title>
<g id="a_node20"><a xlink:title=" ">
<polygon fill="#ffffff" stroke="#bfbfbf" points="658.5962,-165.5 658.5962,-183.5 717.4038,-183.5 717.4038,-165.5 658.5962,-165.5"/>
<text text-anchor="middle" x="688" y="-171.5" font-family="Helvetica,sans-Serif" font-size="10.00" fill="#000000">functional</text>
</a>
</g>
</g>
<!-- Node10&#45;&gt;Node19 -->
<g id="edge29" class="edge">
<title>Node10&#45;&gt;Node19</title>
<path fill="none" stroke="#191970" d="M624.5499,-220.4179C636.1011,-212.0584 653.4592,-199.4966 667.1015,-189.6239"/>
<polygon fill="#191970" stroke="#191970" points="669.3823,-192.2938 675.4315,-183.5956 665.2784,-186.6229 669.3823,-192.2938"/>
</g>
<!-- Node20 -->
<g id="node21" class="node">
<title>Node20</title>
<g id="a_node21"><a xlink:title=" ">
<polygon fill="#ffffff" stroke="#bfbfbf" points="735.2734,-165.5 735.2734,-183.5 770.7266,-183.5 770.7266,-165.5 735.2734,-165.5"/>
<text text-anchor="middle" x="753" y="-171.5" font-family="Helvetica,sans-Serif" font-size="10.00" fill="#000000">map</text>
</a>
</g>
</g>
<!-- Node10&#45;&gt;Node20 -->
<g id="edge30" class="edge">
<title>Node10&#45;&gt;Node20</title>
<path fill="none" stroke="#191970" d="M635.2833,-220.4179C660.1134,-210.7323 699.4055,-195.4057 725.6814,-185.1562"/>
<polygon fill="#191970" stroke="#191970" points="727.0129,-188.3937 735.0573,-181.4989 724.469,-181.8723 727.0129,-188.3937"/>
</g>
<!-- Node11&#45;&gt;Node1 -->
<g id="edge17" class="edge">
<title>Node11&#45;&gt;Node1</title>
<path fill="none" stroke="#191970" d="M426.0276,-169.1054C374.4965,-160.8574 273.5166,-144.4398 188,-129 186.7289,-128.7705 185.4396,-128.5355 184.1387,-128.2965"/>
<polygon fill="#191970" stroke="#191970" points="184.5163,-124.8065 174.0432,-126.4077 183.229,-131.6871 184.5163,-124.8065"/>
</g>
<!-- Node11&#45;&gt;Node2 -->
<g id="edge16" class="edge">
<title>Node11&#45;&gt;Node2</title>
<path fill="none" stroke="#191970" d="M494.0483,-167.6065C532.1348,-159.2825 590.6449,-144.4632 607,-129 619.468,-117.2119 625.5002,-98.3518 628.3936,-84.0637"/>
<polygon fill="#191970" stroke="#191970" points="631.9113,-84.2472 630.1041,-73.8077 625.0066,-83.0956 631.9113,-84.2472"/>
</g>
<!-- Node11&#45;&gt;Node4 -->
<g id="edge21" class="edge">
<title>Node11&#45;&gt;Node4</title>
<path fill="none" stroke="#191970" d="M425.8444,-172.7749C339.3079,-168.0565 116.7425,-153.6212 95,-129 70.4675,-101.2194 83.045,-54.1169 92.9215,-28.119"/>
<polygon fill="#191970" stroke="#191970" points="96.2342,-29.2633 96.7458,-18.6808 89.7465,-26.6345 96.2342,-29.2633"/>
</g>
<!-- Node11&#45;&gt;Node5 -->
<g id="edge22" class="edge">
<title>Node11&#45;&gt;Node5</title>
<path fill="none" stroke="#191970" d="M494.0384,-165.4787C524.1247,-156.7351 564.6463,-142.8044 574,-129 597.4226,-94.4323 558.5005,-49.2149 533.4942,-25.5419"/>
<polygon fill="#191970" stroke="#191970" points="535.7027,-22.8187 525.9609,-18.6536 530.9791,-27.9847 535.7027,-22.8187"/>
</g>
<!-- Node11&#45;&gt;Node6 -->
<g id="edge26" class="edge">
<title>Node11&#45;&gt;Node6</title>
<path fill="none" stroke="#191970" d="M493.969,-167.9292C528.4986,-160.6467 583.1456,-147.4454 628,-129 673.8348,-110.1514 681.971,-98.5886 725,-74 755.1725,-56.7581 789.8296,-36.7712 812.5019,-23.6711"/>
<polygon fill="#191970" stroke="#191970" points="814.5307,-26.5411 821.4369,-18.5065 811.0276,-20.4807 814.5307,-26.5411"/>
</g>
<!-- Node11&#45;&gt;Node7 -->
<g id="edge27" class="edge">
<title>Node11&#45;&gt;Node7</title>
<path fill="none" stroke="#191970" d="M426.105,-172.7298C367.057,-168.9145 248.9384,-157.8023 221,-129 195.1358,-102.336 195.9374,-55.4906 198.9068,-29.0668"/>
<polygon fill="#191970" stroke="#191970" points="202.4221,-29.1869 200.288,-18.8092 195.4847,-28.2526 202.4221,-29.1869"/>
</g>
<!-- Node12 -->
<g id="node13" class="node">
<title>Node12</title>
<g id="a_node13"><a xlink:title=" ">
<polygon fill="#ffffff" stroke="#bfbfbf" points="507.436,-110.5 507.436,-128.5 564.564,-128.5 564.564,-110.5 507.436,-110.5"/>
<text text-anchor="middle" x="536" y="-116.5" font-family="Helvetica,sans-Serif" font-size="10.00" fill="#000000">algorithm</text>
</a>
</g>
</g>
<!-- Node11&#45;&gt;Node12 -->
<g id="edge18" class="edge">
<title>Node11&#45;&gt;Node12</title>
<path fill="none" stroke="#191970" d="M472.5499,-165.4179C484.1011,-157.0584 501.4592,-144.4966 515.1015,-134.6239"/>
<polygon fill="#191970" stroke="#191970" points="517.3823,-137.2938 523.4315,-128.5956 513.2784,-131.6229 517.3823,-137.2938"/>
</g>
<!-- Node13 -->
<g id="node14" class="node">
<title>Node13</title>
<g id="a_node14"><a xlink:title=" ">
<polygon fill="#ffffff" stroke="#bfbfbf" points="229.8843,-110.5 229.8843,-128.5 278.1157,-128.5 278.1157,-110.5 229.8843,-110.5"/>
<text text-anchor="middle" x="254" y="-116.5" font-family="Helvetica,sans-Serif" font-size="10.00" fill="#000000">cassert</text>
</a>
</g>
</g>
<!-- Node11&#45;&gt;Node13 -->
<g id="edge19" class="edge">
<title>Node11&#45;&gt;Node13</title>
<path fill="none" stroke="#191970" d="M426.1253,-165.8377C393.1812,-157.3587 341.4815,-143.909 287.8164,-129.1825"/>
<polygon fill="#191970" stroke="#191970" points="288.7027,-125.7963 278.1324,-126.5169 286.8449,-132.5453 288.7027,-125.7963"/>
</g>
<!-- Node11&#45;&gt;Node14 -->
<g id="edge20" class="edge">
<title>Node11&#45;&gt;Node14</title>
<path fill="none" stroke="#191970" d="M494.1087,-167.7253C499.419,-166.7557 504.8506,-165.8129 510,-165 631.213,-145.8651 776.3395,-129.5704 839.2885,-122.8238"/>
<polygon fill="#191970" stroke="#191970" points="839.795,-126.2898 849.3679,-121.7501 839.0534,-119.3292 839.795,-126.2898"/>
</g>
<!-- Node15 -->
<g id="node16" class="node">
<title>Node15</title>
<g id="a_node16"><a xlink:title=" ">
<polygon fill="#ffffff" stroke="#bfbfbf" points="295.8276,-110.5 295.8276,-128.5 340.1724,-128.5 340.1724,-110.5 295.8276,-110.5"/>
<text text-anchor="middle" x="318" y="-116.5" font-family="Helvetica,sans-Serif" font-size="10.00" fill="#000000">cstdlib</text>
</a>
</g>
</g>
<!-- Node11&#45;&gt;Node15 -->
<g id="edge23" class="edge">
<title>Node11&#45;&gt;Node15</title>
<path fill="none" stroke="#191970" d="M436.5516,-165.4179C412.9423,-156.2734 376.3505,-142.1005 350.0653,-131.9197"/>
<polygon fill="#191970" stroke="#191970" points="351.1336,-128.5801 340.5444,-128.232 348.6053,-135.1076 351.1336,-128.5801"/>
</g>
<!-- Node16 -->
<g id="node17" class="node">
<title>Node16</title>
<g id="a_node17"><a xlink:title=" ">
<polygon fill="#ffffff" stroke="#bfbfbf" points="357.8276,-110.5 357.8276,-128.5 412.1724,-128.5 412.1724,-110.5 357.8276,-110.5"/>
<text text-anchor="middle" x="385" y="-116.5" font-family="Helvetica,sans-Serif" font-size="10.00" fill="#000000">iostream</text>
</a>
</g>
</g>
<!-- Node11&#45;&gt;Node16 -->
<g id="edge24" class="edge">
<title>Node11&#45;&gt;Node16</title>
<path fill="none" stroke="#191970" d="M447.6153,-165.4179C436.216,-157.0584 419.0863,-144.4966 405.6235,-134.6239"/>
<polygon fill="#191970" stroke="#191970" points="407.537,-131.6869 397.4031,-128.5956 403.3974,-137.3317 407.537,-131.6869"/>
</g>
<!-- Node17 -->
<g id="node18" class="node">
<title>Node17</title>
<g id="a_node18"><a xlink:title=" ">
<polygon fill="#ffffff" stroke="#bfbfbf" points="430.5986,-110.5 430.5986,-128.5 489.4014,-128.5 489.4014,-110.5 430.5986,-110.5"/>
<text text-anchor="middle" x="460" y="-116.5" font-family="Helvetica,sans-Serif" font-size="10.00" fill="#000000">stdexcept</text>
</a>
</g>
</g>
<!-- Node11&#45;&gt;Node17 -->
<g id="edge25" class="edge">
<title>Node11&#45;&gt;Node17</title>
<path fill="none" stroke="#191970" d="M460,-165.4179C460,-158.2164 460,-147.8962 460,-138.8632"/>
<polygon fill="#191970" stroke="#191970" points="463.5001,-138.7794 460,-128.7795 456.5001,-138.7795 463.5001,-138.7794"/>
</g>
<!-- Node21&#45;&gt;Node6 -->
<g id="edge44" class="edge">
<title>Node21&#45;&gt;Node6</title>
<path fill="none" stroke="#191970" d="M759.0313,-275.4776C825.6875,-258.1486 959,-218.0472 959,-174.5 959,-174.5 959,-174.5 959,-119.5 959,-70.1013 903.1465,-37.1912 867.0228,-21.0722"/>
<polygon fill="#191970" stroke="#191970" points="867.9912,-17.68 857.4201,-16.9713 865.242,-24.1176 867.9912,-17.68"/>
</g>
<!-- Node21&#45;&gt;Node10 -->
<g id="edge37" class="edge">
<title>Node21&#45;&gt;Node10</title>
<path fill="none" stroke="#191970" d="M703.8357,-275.4179C686.241,-266.6205 659.3382,-253.1691 639.1912,-243.0956"/>
<polygon fill="#191970" stroke="#191970" points="640.7008,-239.9373 630.1912,-238.5956 637.5703,-246.1983 640.7008,-239.9373"/>
</g>
<!-- Node21&#45;&gt;Node22 -->
<g id="edge38" class="edge">
<title>Node21&#45;&gt;Node22</title>
<path fill="none" stroke="#191970" d="M734.715,-275.4179C746.4183,-267.0584 764.0047,-254.4966 777.8265,-244.6239"/>
<polygon fill="#191970" stroke="#191970" points="780.1631,-247.2561 786.2661,-238.5956 776.0944,-241.56 780.1631,-247.2561"/>
</g>
<!-- Node22&#45;&gt;Node2 -->
<g id="edge39" class="edge">
<title>Node22&#45;&gt;Node2</title>
<path fill="none" stroke="#191970" d="M804.9098,-220.1263C812.364,-206.994 823.0635,-182.7409 813,-165 785.4332,-116.4024 724.6617,-89.8307 680.9195,-76.4164"/>
<polygon fill="#191970" stroke="#191970" points="681.8898,-73.0536 671.3088,-73.5948 679.9178,-79.7702 681.8898,-73.0536"/>
</g>
<!-- Node22&#45;&gt;Node6 -->
<g id="edge42" class="edge">
<title>Node22&#45;&gt;Node6</title>
<path fill="none" stroke="#191970" d="M814.2315,-220.4253C838.2537,-205.1098 884.0504,-171.5924 902,-129 918.2332,-90.4806 880.9499,-48.1029 856.3906,-25.6143"/>
<polygon fill="#191970" stroke="#191970" points="858.4607,-22.7732 848.6453,-18.7845 853.8309,-28.0235 858.4607,-22.7732"/>
</g>
<!-- Node22&#45;&gt;Node7 -->
<g id="edge43" class="edge">
<title>Node22&#45;&gt;Node7</title>
<path fill="none" stroke="#191970" d="M798.9652,-220.1685C798.3907,-206.1823 795.1999,-179.8444 780,-165 699.6886,-86.5668 343.2399,-29.7641 233.9594,-13.9475"/>
<polygon fill="#191970" stroke="#191970" points="234.2791,-10.4576 223.8839,-12.5045 233.2867,-17.3869 234.2791,-10.4576"/>
</g>
<!-- Node22&#45;&gt;Node19 -->
<g id="edge40" class="edge">
<title>Node22&#45;&gt;Node19</title>
<path fill="none" stroke="#191970" d="M780.6706,-220.4179C762.9159,-211.6205 735.7686,-198.1691 715.4384,-188.0956"/>
<polygon fill="#191970" stroke="#191970" points="716.8709,-184.8994 706.3566,-183.5956 713.763,-191.1716 716.8709,-184.8994"/>
</g>
<!-- Node22&#45;&gt;Node20 -->
<g id="edge41" class="edge">
<title>Node22&#45;&gt;Node20</title>
<path fill="none" stroke="#191970" d="M791.404,-220.4179C784.8515,-212.5833 775.2118,-201.0575 767.2296,-191.5137"/>
<polygon fill="#191970" stroke="#191970" points="769.8614,-189.2048 760.761,-183.7795 764.4918,-193.6957 769.8614,-189.2048"/>
</g>
</g>
</svg>
        <g id="navigator" transform="translate(0 0)" fill="#404254">
                <rect fill="#f2f5e9" fill-opacity="0.5" stroke="#606060" stroke-width=".5" x="0" y="0" width="60" height="60"/>
                <use id="zoomplus" xlink:href="#zoomPlus" x="17" y="9" onmousedown="handleZoom(evt,'in')"/>
                <use id="zoomminus" xlink:href="#zoomMin" x="42" y="9" onmousedown="handleZoom(evt,'out')"/>
                <use id="reset" xlink:href="#resetDef" x="30" y="36" onmousedown="handleReset()"/>
                <g id="arrowUp" xlink:href="#dirArrow" transform="translate(30 24)" onmousedown="handlePan(0,-1)">
                  <use xlink:href="#rim" fill="#404040">
                        <set attributeName="fill" to="#808080" begin="arrowUp.mouseover" end="arrowUp.mouseout"/>
                  </use>
                  <path fill="none" stroke="white" stroke-width="1.5" d="M0,-3.0v7 M-2.5,-0.5L0,-3.0L2.5,-0.5"/>
                </g>
                <g id="arrowRight" xlink:href="#dirArrow" transform="rotate(90) translate(36 -43)" onmousedown="handlePan(1,0)">
                  <use xlink:href="#rim" fill="#404040">
                        <set attributeName="fill" to="#808080" begin="arrowRight.mouseover" end="arrowRight.mouseout"/>
                  </use>
                  <path fill="none" stroke="white" stroke-width="1.5" d="M0,-3.0v7 M-2.5,-0.5L0,-3.0L2.5,-0.5"/>
                </g>
                <g id="arrowDown" xlink:href="#dirArrow" transform="rotate(180) translate(-30 -48)" onmousedown="handlePan(0,1)">
                  <use xlink:href="#rim" fill="#404040">
                        <set attributeName="fill" to="#808080" begin="arrowDown.mouseover" end="arrowDown.mouseout"/>
                  </use>
                  <path fill="none" stroke="white" stroke-width="1.5" d="M0,-3.0v7 M-2.5,-0.5L0,-3.0L2.5,-0.5"/>
                </g>
                <g id="arrowLeft" xlink:href="#dirArrow" transform="rotate(270) translate(-36 17)" onmousedown="handlePan(-1,0)">
                  <use xlink:href="#rim" fill="#404040">
                        <set attributeName="fill" to="#808080" begin="arrowLeft.mouseover" end="arrowLeft.mouseout"/>
                  </use>
                  <path fill="none" stroke="white" stroke-width="1.5" d="M0,-3.0v7 M-2.5,-0.5L0,-3.0L2.5,-0.5"/>
                </g>
        </g>
        <svg viewBox="0 0 15 15" width="100%" height="30px" preserveAspectRatio="xMaxYMin meet">
         <g id="arrow_out" transform="scale(0.3 0.3)">
          <a xlink:href="Iotr__VectorMagnitude_8C__incl_org.svg" target="_base">
           <rect id="button" ry="5" rx="5" y="6" x="6" height="38" width="38"
                fill="#f2f5e9" fill-opacity="0.5" stroke="#606060" stroke-width="1.0"/>
           <path id="arrow"
             d="M 11.500037,31.436501 C 11.940474,20.09759 22.043105,11.32322 32.158766,21.979434 L 37.068811,17.246167 C 37.068811,17.246167 37.088388,32 37.088388,32 L 22.160133,31.978069 C 22.160133,31.978069 26.997745,27.140456 26.997745,27.140456 C 18.528582,18.264221 13.291696,25.230495 11.500037,31.436501 z"
             style="fill:#404040;"/>
          </a>
         </g>
        </svg>
</svg>
