<?xml version="1.0" encoding="UTF-8" standalone="no"?>
<!DOCTYPE svg PUBLIC "-//W3C//DTD SVG 1.1//EN"
 "http://www.w3.org/Graphics/SVG/1.1/DTD/svg11.dtd">
<!-- Generated by graphviz version 2.42.3 (20191010.1750)
 -->
<!-- Title: src/main/modify_interface.C Pages: 1 -->
<svg width="841pt" height="192pt"
 viewBox="0.00 0.00 841.29 192.00" xmlns="http://www.w3.org/2000/svg" xmlns:xlink="http://www.w3.org/1999/xlink">
<g id="graph0" class="graph" transform="scale(1 1) rotate(0) translate(4 188)">
<title>src/main/modify_interface.C</title>
<polygon fill="white" stroke="transparent" points="-4,4 -4,-188 837.29,-188 837.29,4 -4,4"/>
<!-- Node1 -->
<g id="node1" class="node">
<title>Node1</title>
<g id="a_node1"><a xlink:title=" ">
<polygon fill="#bfbfbf" stroke="black" points="480.16,-165.5 480.16,-183.5 620.09,-183.5 620.09,-165.5 480.16,-165.5"/>
<text text-anchor="middle" x="550.12" y="-171.5" font-family="Helvetica,sans-Serif" font-size="10.00">src/main/modify_interface.C</text>
</a>
</g>
</g>
<!-- Node2 -->
<g id="node2" class="node">
<title>Node2</title>
<g id="a_node2"><a xlink:href="Ioss__CodeTypes_8h.html" target="_top" xlink:title=" ">
<polygon fill="white" stroke="black" points="176.7,-55.5 176.7,-73.5 275.54,-73.5 275.54,-55.5 176.7,-55.5"/>
<text text-anchor="middle" x="226.12" y="-61.5" font-family="Helvetica,sans-Serif" font-size="10.00">Ioss_CodeTypes.h</text>
</a>
</g>
</g>
<!-- Node1&#45;&gt;Node2 -->
<g id="edge1" class="edge">
<title>Node1&#45;&gt;Node2</title>
<path fill="none" stroke="midnightblue" d="M480.08,-170.72C428.48,-166.41 357.75,-155.64 301.12,-129 276.63,-117.48 253.7,-95.86 239.79,-81.07"/>
<polygon fill="midnightblue" stroke="midnightblue" points="242.37,-78.7 233.04,-73.67 237.19,-83.42 242.37,-78.7"/>
</g>
<!-- Node4 -->
<g id="node4" class="node">
<title>Node4</title>
<g id="a_node4"><a xlink:title=" ">
<polygon fill="white" stroke="#bfbfbf" points="0,-0.5 0,-18.5 48.24,-18.5 48.24,-0.5 0,-0.5"/>
<text text-anchor="middle" x="24.12" y="-6.5" font-family="Helvetica,sans-Serif" font-size="10.00">cstddef</text>
</a>
</g>
</g>
<!-- Node1&#45;&gt;Node4 -->
<g id="edge20" class="edge">
<title>Node1&#45;&gt;Node4</title>
<path fill="none" stroke="midnightblue" d="M480.14,-168.24C422.27,-162.53 338.46,-151.09 268.12,-129 181.84,-101.9 87.7,-48.77 46.04,-23.92"/>
<polygon fill="midnightblue" stroke="midnightblue" points="47.67,-20.81 37.29,-18.65 44.06,-26.81 47.67,-20.81"/>
</g>
<!-- Node6 -->
<g id="node6" class="node">
<title>Node6</title>
<g id="a_node6"><a xlink:title=" ">
<polygon fill="white" stroke="#bfbfbf" points="457.89,-0.5 457.89,-18.5 498.35,-18.5 498.35,-0.5 457.89,-0.5"/>
<text text-anchor="middle" x="478.12" y="-6.5" font-family="Helvetica,sans-Serif" font-size="10.00">string</text>
</a>
</g>
</g>
<!-- Node1&#45;&gt;Node6 -->
<g id="edge23" class="edge">
<title>Node1&#45;&gt;Node6</title>
<path fill="none" stroke="midnightblue" d="M533.36,-165.44C519.83,-157.98 501.53,-145.55 492.12,-129 474.09,-97.28 474.24,-53.13 476.09,-28.65"/>
<polygon fill="midnightblue" stroke="midnightblue" points="479.58,-28.92 477.03,-18.63 472.61,-28.26 479.58,-28.92"/>
</g>
<!-- Node10 -->
<g id="node10" class="node">
<title>Node10</title>
<g id="a_node10"><a xlink:href="Ioss__FileInfo_8h.html" target="_top" xlink:title=" ">
<polygon fill="white" stroke="black" points="310.6,-110.5 310.6,-128.5 391.64,-128.5 391.64,-110.5 310.6,-110.5"/>
<text text-anchor="middle" x="351.12" y="-116.5" font-family="Helvetica,sans-Serif" font-size="10.00">Ioss_FileInfo.h</text>
</a>
</g>
</g>
<!-- Node1&#45;&gt;Node10 -->
<g id="edge9" class="edge">
<title>Node1&#45;&gt;Node10</title>
<path fill="none" stroke="midnightblue" d="M519.9,-165.45C485.46,-156.28 429.05,-141.26 391.03,-131.13"/>
<polygon fill="midnightblue" stroke="midnightblue" points="391.87,-127.73 381.3,-128.54 390.06,-134.49 391.87,-127.73"/>
</g>
<!-- Node13 -->
<g id="node13" class="node">
<title>Node13</title>
<g id="a_node13"><a xlink:href="Ioss__GetLongOpt_8h.html" target="_top" xlink:title=" ">
<polygon fill="white" stroke="black" points="575.76,-55.5 575.76,-73.5 678.48,-73.5 678.48,-55.5 575.76,-55.5"/>
<text text-anchor="middle" x="627.12" y="-61.5" font-family="Helvetica,sans-Serif" font-size="10.00">Ioss_GetLongOpt.h</text>
</a>
</g>
</g>
<!-- Node1&#45;&gt;Node13 -->
<g id="edge14" class="edge">
<title>Node1&#45;&gt;Node13</title>
<path fill="none" stroke="midnightblue" d="M565.38,-165.45C578.53,-157.76 597.1,-144.99 608.12,-129 617.51,-115.38 622.34,-97.03 624.78,-83.56"/>
<polygon fill="midnightblue" stroke="midnightblue" points="628.25,-84.02 626.31,-73.61 621.33,-82.96 628.25,-84.02"/>
</g>
<!-- Node14 -->
<g id="node14" class="node">
<title>Node14</title>
<g id="a_node14"><a xlink:title=" ">
<polygon fill="white" stroke="#bfbfbf" points="666.95,-0.5 666.95,-18.5 721.29,-18.5 721.29,-0.5 666.95,-0.5"/>
<text text-anchor="middle" x="694.12" y="-6.5" font-family="Helvetica,sans-Serif" font-size="10.00">iostream</text>
</a>
</g>
</g>
<!-- Node1&#45;&gt;Node14 -->
<g id="edge22" class="edge">
<title>Node1&#45;&gt;Node14</title>
<path fill="none" stroke="midnightblue" d="M620.17,-166.37C668.57,-159.83 726.87,-148.19 742.12,-129 767.43,-97.15 731.9,-50.17 709.67,-26.04"/>
<polygon fill="midnightblue" stroke="midnightblue" points="712.18,-23.61 702.74,-18.79 707.12,-28.44 712.18,-23.61"/>
</g>
<!-- Node15 -->
<g id="node15" class="node">
<title>Node15</title>
<g id="a_node15"><a xlink:title=" ">
<polygon fill="white" stroke="#bfbfbf" points="655.56,-110.5 655.56,-128.5 732.68,-128.5 732.68,-110.5 655.56,-110.5"/>
<text text-anchor="middle" x="694.12" y="-116.5" font-family="Helvetica,sans-Serif" font-size="10.00">fmt/ostream.h</text>
</a>
</g>
</g>
<!-- Node1&#45;&gt;Node15 -->
<g id="edge16" class="edge">
<title>Node1&#45;&gt;Node15</title>
<path fill="none" stroke="midnightblue" d="M571.99,-165.45C596.1,-156.58 635.08,-142.23 662.51,-132.13"/>
<polygon fill="midnightblue" stroke="midnightblue" points="663.87,-135.36 672.04,-128.63 661.45,-128.79 663.87,-135.36"/>
</g>
<!-- Node16 -->
<g id="node16" class="node">
<title>Node16</title>
<g id="a_node16"><a xlink:href="modify__interface_8h.html" target="_top" xlink:title=" ">
<polygon fill="white" stroke="black" points="501.27,-110.5 501.27,-128.5 598.98,-128.5 598.98,-110.5 501.27,-110.5"/>
<text text-anchor="middle" x="550.12" y="-116.5" font-family="Helvetica,sans-Serif" font-size="10.00">modify_interface.h</text>
</a>
</g>
</g>
<!-- Node1&#45;&gt;Node16 -->
<g id="edge17" class="edge">
<title>Node1&#45;&gt;Node16</title>
<path fill="none" stroke="midnightblue" d="M550.12,-165.22C550.12,-158.18 550.12,-147.81 550.12,-138.83"/>
<polygon fill="midnightblue" stroke="midnightblue" points="553.62,-138.55 550.12,-128.55 546.62,-138.55 553.62,-138.55"/>
</g>
<!-- Node17 -->
<g id="node17" class="node">
<title>Node17</title>
<g id="a_node17"><a xlink:title=" ">
<polygon fill="white" stroke="#bfbfbf" points="788.95,-110.5 788.95,-128.5 833.29,-128.5 833.29,-110.5 788.95,-110.5"/>
<text text-anchor="middle" x="811.12" y="-116.5" font-family="Helvetica,sans-Serif" font-size="10.00">cstdlib</text>
</a>
</g>
</g>
<!-- Node1&#45;&gt;Node17 -->
<g id="edge21" class="edge">
<title>Node1&#45;&gt;Node17</title>
<path fill="none" stroke="midnightblue" d="M593.35,-165.44C638.72,-156.86 712.08,-142.67 775.12,-129 776.36,-128.73 777.61,-128.46 778.89,-128.17"/>
<polygon fill="midnightblue" stroke="midnightblue" points="779.71,-131.57 788.68,-125.93 778.15,-124.75 779.71,-131.57"/>
</g>
<!-- Node3 -->
<g id="node3" class="node">
<title>Node3</title>
<g id="a_node3"><a xlink:title=" ">
<polygon fill="white" stroke="#bfbfbf" points="270.73,-0.5 270.73,-18.5 309.51,-18.5 309.51,-0.5 270.73,-0.5"/>
<text text-anchor="middle" x="290.12" y="-6.5" font-family="Helvetica,sans-Serif" font-size="10.00">array</text>
</a>
</g>
</g>
<!-- Node2&#45;&gt;Node3 -->
<g id="edge2" class="edge">
<title>Node2&#45;&gt;Node3</title>
<path fill="none" stroke="midnightblue" d="M235.84,-55.45C245.52,-47.43 260.6,-34.95 272.41,-25.17"/>
<polygon fill="midnightblue" stroke="midnightblue" points="274.84,-27.7 280.31,-18.63 270.37,-22.31 274.84,-27.7"/>
</g>
<!-- Node2&#45;&gt;Node4 -->
<g id="edge3" class="edge">
<title>Node2&#45;&gt;Node4</title>
<path fill="none" stroke="midnightblue" d="M195.44,-55.45C158.46,-45.75 96.51,-29.49 58.11,-19.42"/>
<polygon fill="midnightblue" stroke="midnightblue" points="58.98,-16.03 48.42,-16.87 57.2,-22.8 58.98,-16.03"/>
</g>
<!-- Node5 -->
<g id="node5" class="node">
<title>Node5</title>
<g id="a_node5"><a xlink:title=" ">
<polygon fill="white" stroke="#bfbfbf" points="327.67,-0.5 327.67,-18.5 372.57,-18.5 372.57,-0.5 327.67,-0.5"/>
<text text-anchor="middle" x="350.12" y="-6.5" font-family="Helvetica,sans-Serif" font-size="10.00">cstdint</text>
</a>
</g>
</g>
<!-- Node2&#45;&gt;Node5 -->
<g id="edge4" class="edge">
<title>Node2&#45;&gt;Node5</title>
<path fill="none" stroke="midnightblue" d="M244.95,-55.45C265.35,-46.73 298.11,-32.73 321.65,-22.67"/>
<polygon fill="midnightblue" stroke="midnightblue" points="323.29,-25.77 331.11,-18.63 320.54,-19.34 323.29,-25.77"/>
</g>
<!-- Node2&#45;&gt;Node6 -->
<g id="edge5" class="edge">
<title>Node2&#45;&gt;Node6</title>
<path fill="none" stroke="midnightblue" d="M267.41,-55.49C311.14,-46.9 382.14,-32.65 443.12,-19 444.61,-18.67 446.13,-18.32 447.66,-17.97"/>
<polygon fill="midnightblue" stroke="midnightblue" points="448.87,-21.28 457.79,-15.57 447.25,-14.47 448.87,-21.28"/>
</g>
<!-- Node7 -->
<g id="node7" class="node">
<title>Node7</title>
<g id="a_node7"><a xlink:title=" ">
<polygon fill="white" stroke="#bfbfbf" points="390.5,-0.5 390.5,-18.5 433.74,-18.5 433.74,-0.5 390.5,-0.5"/>
<text text-anchor="middle" x="412.12" y="-6.5" font-family="Helvetica,sans-Serif" font-size="10.00">vector</text>
</a>
</g>
</g>
<!-- Node2&#45;&gt;Node7 -->
<g id="edge6" class="edge">
<title>Node2&#45;&gt;Node7</title>
<path fill="none" stroke="midnightblue" d="M254.37,-55.45C288.32,-45.78 345.11,-29.59 380.49,-19.51"/>
<polygon fill="midnightblue" stroke="midnightblue" points="381.65,-22.82 390.3,-16.72 379.73,-16.09 381.65,-22.82"/>
</g>
<!-- Node8 -->
<g id="node8" class="node">
<title>Node8</title>
<g id="a_node8"><a xlink:title=" ">
<polygon fill="white" stroke="#bfbfbf" points="66.37,-0.5 66.37,-18.5 181.87,-18.5 181.87,-0.5 66.37,-0.5"/>
<text text-anchor="middle" x="124.12" y="-6.5" font-family="Helvetica,sans-Serif" font-size="10.00">SEACASIoss_config.h</text>
</a>
</g>
</g>
<!-- Node2&#45;&gt;Node8 -->
<g id="edge7" class="edge">
<title>Node2&#45;&gt;Node8</title>
<path fill="none" stroke="midnightblue" d="M210.63,-55.45C194.23,-46.93 168.1,-33.35 148.85,-23.35"/>
<polygon fill="midnightblue" stroke="midnightblue" points="150.25,-20.13 139.76,-18.63 147.02,-26.34 150.25,-20.13"/>
</g>
<!-- Node9 -->
<g id="node9" class="node">
<title>Node9</title>
<g id="a_node9"><a xlink:title=" ">
<polygon fill="white" stroke="#bfbfbf" points="199.5,-0.5 199.5,-18.5 252.74,-18.5 252.74,-0.5 199.5,-0.5"/>
<text text-anchor="middle" x="226.12" y="-6.5" font-family="Helvetica,sans-Serif" font-size="10.00">complex</text>
</a>
</g>
</g>
<!-- Node2&#45;&gt;Node9 -->
<g id="edge8" class="edge">
<title>Node2&#45;&gt;Node9</title>
<path fill="none" stroke="midnightblue" d="M226.12,-55.22C226.12,-48.18 226.12,-37.81 226.12,-28.83"/>
<polygon fill="midnightblue" stroke="midnightblue" points="229.62,-28.55 226.12,-18.55 222.62,-28.55 229.62,-28.55"/>
</g>
<!-- Node10&#45;&gt;Node2 -->
<g id="edge10" class="edge">
<title>Node10&#45;&gt;Node2</title>
<path fill="none" stroke="midnightblue" d="M332.14,-110.45C311.49,-101.7 278.26,-87.61 254.5,-77.53"/>
<polygon fill="midnightblue" stroke="midnightblue" points="255.86,-74.31 245.28,-73.63 253.12,-80.75 255.86,-74.31"/>
</g>
<!-- Node10&#45;&gt;Node6 -->
<g id="edge12" class="edge">
<title>Node10&#45;&gt;Node6</title>
<path fill="none" stroke="midnightblue" d="M342.34,-110.48C329.55,-97.82 308.69,-72.8 322.12,-55 325.99,-49.87 403.52,-29.47 447.8,-18.15"/>
<polygon fill="midnightblue" stroke="midnightblue" points="448.92,-21.48 457.75,-15.62 447.19,-14.69 448.92,-21.48"/>
</g>
<!-- Node11 -->
<g id="node11" class="node">
<title>Node11</title>
<g id="a_node11"><a xlink:title=" ">
<polygon fill="white" stroke="#bfbfbf" points="331.17,-55.5 331.17,-73.5 371.07,-73.5 371.07,-55.5 331.17,-55.5"/>
<text text-anchor="middle" x="351.12" y="-61.5" font-family="Helvetica,sans-Serif" font-size="10.00">ctime</text>
</a>
</g>
</g>
<!-- Node10&#45;&gt;Node11 -->
<g id="edge11" class="edge">
<title>Node10&#45;&gt;Node11</title>
<path fill="none" stroke="midnightblue" d="M351.12,-110.22C351.12,-103.18 351.12,-92.81 351.12,-83.83"/>
<polygon fill="midnightblue" stroke="midnightblue" points="354.62,-83.55 351.12,-73.55 347.62,-83.55 354.62,-83.55"/>
</g>
<!-- Node12 -->
<g id="node12" class="node">
<title>Node12</title>
<g id="a_node12"><a xlink:title=" ">
<polygon fill="white" stroke="#bfbfbf" points="389.11,-55.5 389.11,-73.5 455.13,-73.5 455.13,-55.5 389.11,-55.5"/>
<text text-anchor="middle" x="422.12" y="-61.5" font-family="Helvetica,sans-Serif" font-size="10.00">sys/types.h</text>
</a>
</g>
</g>
<!-- Node10&#45;&gt;Node12 -->
<g id="edge13" class="edge">
<title>Node10&#45;&gt;Node12</title>
<path fill="none" stroke="midnightblue" d="M361.9,-110.45C372.75,-102.36 389.7,-89.7 402.85,-79.88"/>
<polygon fill="midnightblue" stroke="midnightblue" points="405.32,-82.41 411.24,-73.63 401.13,-76.8 405.32,-82.41"/>
</g>
<!-- Node13&#45;&gt;Node14 -->
<g id="edge15" class="edge">
<title>Node13&#45;&gt;Node14</title>
<path fill="none" stroke="midnightblue" d="M637.3,-55.45C647.53,-47.36 663.52,-34.7 675.94,-24.88"/>
<polygon fill="midnightblue" stroke="midnightblue" points="678.18,-27.57 683.85,-18.63 673.83,-22.08 678.18,-27.57"/>
</g>
<!-- Node16&#45;&gt;Node6 -->
<g id="edge19" class="edge">
<title>Node16&#45;&gt;Node6</title>
<path fill="none" stroke="midnightblue" d="M544.71,-110.38C532.98,-92.79 505.02,-50.85 489.31,-27.29"/>
<polygon fill="midnightblue" stroke="midnightblue" points="492.05,-25.09 483.6,-18.71 486.23,-28.97 492.05,-25.09"/>
</g>
<!-- Node16&#45;&gt;Node13 -->
<g id="edge18" class="edge">
<title>Node16&#45;&gt;Node13</title>
<path fill="none" stroke="midnightblue" d="M561.82,-110.45C573.8,-102.2 592.67,-89.22 607.04,-79.32"/>
<polygon fill="midnightblue" stroke="midnightblue" points="609.06,-82.18 615.32,-73.63 605.09,-76.41 609.06,-82.18"/>
</g>
</g>
</svg>
