<?xml version="1.0" encoding="UTF-8" standalone="no"?>
<!DOCTYPE svg PUBLIC "-//W3C//DTD SVG 1.1//EN"
 "http://www.w3.org/Graphics/SVG/1.1/DTD/svg11.dtd">
<!-- Generated by graphviz version 2.40.1 (20161225.0304)
 -->
<!-- Title: anonymous_namespace{struc_to_unstruc::C}::transfer_nodal Pages: 1 -->
<svg width="310pt" height="235pt"
 viewBox="0.00 0.00 310.03 235.00" xmlns="http://www.w3.org/2000/svg" xmlns:xlink="http://www.w3.org/1999/xlink">
<g id="graph0" class="graph" transform="scale(1 1) rotate(0) translate(4 231)">
<title>anonymous_namespace{struc_to_unstruc::C}::transfer_nodal</title>
<polygon fill="#ffffff" stroke="transparent" points="-4,4 -4,-231 306.0283,-231 306.0283,4 -4,4"/>
<!-- Node225 -->
<g id="node1" class="node">
<title>Node225</title>
<polygon fill="#bfbfbf" stroke="#000000" points="0,-99.5 0,-137.5 124.96,-137.5 124.96,-99.5 0,-99.5"/>
<text text-anchor="start" x="8" y="-125.5" font-family="Helvetica,sans-Serif" font-size="10.00" fill="#000000">anonymous_namespace</text>
<text text-anchor="start" x="8" y="-115.5" font-family="Helvetica,sans-Serif" font-size="10.00" fill="#000000">{struc_to_unstruc::C}</text>
<text text-anchor="middle" x="62.48" y="-105.5" font-family="Helvetica,sans-Serif" font-size="10.00" fill="#000000">::transfer_nodal</text>
</g>
<!-- Node226 -->
<g id="node2" class="node">
<title>Node226</title>
<g id="a_node2"><a xlink:href="$classIoss_1_1Region.html#a98e8859e52343b66d189a85948cb9080" xlink:title="Get all the region&#39;s NodeBlock objects. ">
<polygon fill="#ffffff" stroke="#000000" points="172.0684,-198.5 172.0684,-226.5 290.9199,-226.5 290.9199,-198.5 172.0684,-198.5"/>
<text text-anchor="start" x="180.0684" y="-214.5" font-family="Helvetica,sans-Serif" font-size="10.00" fill="#000000">Ioss::Region::get_node</text>
<text text-anchor="middle" x="231.4941" y="-204.5" font-family="Helvetica,sans-Serif" font-size="10.00" fill="#000000">_blocks</text>
</a>
</g>
</g>
<!-- Node225&#45;&gt;Node226 -->
<g id="edge1" class="edge">
<title>Node225&#45;&gt;Node226</title>
<path fill="none" stroke="#191970" d="M84.6516,-137.5741C103.8057,-153.2682 132.7711,-175.1834 160.96,-189.5 164.5397,-191.3181 168.2935,-193.0344 172.1258,-194.6468"/>
<polygon fill="#191970" stroke="#191970" points="171.1723,-198.0329 181.7594,-198.4396 173.7367,-191.5195 171.1723,-198.0329"/>
</g>
<!-- Node227 -->
<g id="node3" class="node">
<title>Node227</title>
<g id="a_node3"><a xlink:href="$classIoss_1_1GroupingEntity.html#a318cd5cde65370bb9c83f8ca223f8481" xlink:title="Ioss::GroupingEntity\l::get_database">
<polygon fill="#ffffff" stroke="#000000" points="178.4722,-151.5 178.4722,-179.5 284.5161,-179.5 284.5161,-151.5 178.4722,-151.5"/>
<text text-anchor="start" x="186.4722" y="-167.5" font-family="Helvetica,sans-Serif" font-size="10.00" fill="#000000">Ioss::GroupingEntity</text>
<text text-anchor="middle" x="231.4941" y="-157.5" font-family="Helvetica,sans-Serif" font-size="10.00" fill="#000000">::get_database</text>
</a>
</g>
</g>
<!-- Node225&#45;&gt;Node227 -->
<g id="edge2" class="edge">
<title>Node225&#45;&gt;Node227</title>
<path fill="none" stroke="#191970" d="M125.4146,-136.0011C140.2846,-140.1361 156.1095,-144.5368 170.8746,-148.6427"/>
<polygon fill="#191970" stroke="#191970" points="170.3302,-152.1241 180.9024,-151.4313 172.2057,-145.38 170.3302,-152.1241"/>
</g>
<!-- Node228 -->
<g id="node4" class="node">
<title>Node228</title>
<g id="a_node4"><a xlink:href="$classIoss_1_1DatabaseIO.html#a31dbf4c27fae8fd9160e99a2c318f4a9" xlink:title="Determine whether the database needs information about process ownership of nodes. ">
<polygon fill="#ffffff" stroke="#000000" points="164.0068,-104.5 164.0068,-132.5 298.9814,-132.5 298.9814,-104.5 164.0068,-104.5"/>
<text text-anchor="start" x="172.0068" y="-120.5" font-family="Helvetica,sans-Serif" font-size="10.00" fill="#000000">Ioss::DatabaseIO::needs</text>
<text text-anchor="middle" x="231.4941" y="-110.5" font-family="Helvetica,sans-Serif" font-size="10.00" fill="#000000">_shared_node_information</text>
</a>
</g>
</g>
<!-- Node225&#45;&gt;Node228 -->
<g id="edge3" class="edge">
<title>Node225&#45;&gt;Node228</title>
<path fill="none" stroke="#191970" d="M125.4146,-118.5C134.6504,-118.5 144.2546,-118.5 153.7445,-118.5"/>
<polygon fill="#191970" stroke="#191970" points="153.9742,-122.0001 163.9742,-118.5 153.9742,-115.0001 153.9742,-122.0001"/>
</g>
<!-- Node229 -->
<g id="node5" class="node">
<title>Node229</title>
<g id="a_node5"><a xlink:href="$classIoss_1_1Region.html#a5a26433379cf3beaf59906c4b2f5e406" xlink:title="Get all the region&#39;s StructuredBlock objects. ">
<polygon fill="#ffffff" stroke="#000000" points="160.96,-57.5 160.96,-85.5 302.0283,-85.5 302.0283,-57.5 160.96,-57.5"/>
<text text-anchor="start" x="168.96" y="-73.5" font-family="Helvetica,sans-Serif" font-size="10.00" fill="#000000">Ioss::Region::get_structured</text>
<text text-anchor="middle" x="231.4941" y="-63.5" font-family="Helvetica,sans-Serif" font-size="10.00" fill="#000000">_blocks</text>
</a>
</g>
</g>
<!-- Node225&#45;&gt;Node229 -->
<g id="edge4" class="edge">
<title>Node225&#45;&gt;Node229</title>
<path fill="none" stroke="#191970" d="M125.4146,-100.9989C140.2846,-96.8639 156.1095,-92.4632 170.8746,-88.3573"/>
<polygon fill="#191970" stroke="#191970" points="172.2057,-91.62 180.9024,-85.5687 170.3302,-84.8759 172.2057,-91.62"/>
</g>
<!-- Node230 -->
<g id="node6" class="node">
<title>Node230</title>
<g id="a_node6"><a xlink:href="$namespaceanonymous__namespace_02struc__to__unstruc_8C_03.html#ad6193b63f679c1e453ecccc738eb663c" xlink:title="anonymous_namespace\l\{struc_to_unstruc::C\}\l::transfer_coord">
<polygon fill="#ffffff" stroke="#000000" points="169.0142,-.5 169.0142,-38.5 293.9741,-38.5 293.9741,-.5 169.0142,-.5"/>
<text text-anchor="start" x="177.0142" y="-26.5" font-family="Helvetica,sans-Serif" font-size="10.00" fill="#000000">anonymous_namespace</text>
<text text-anchor="start" x="177.0142" y="-16.5" font-family="Helvetica,sans-Serif" font-size="10.00" fill="#000000">{struc_to_unstruc::C}</text>
<text text-anchor="middle" x="231.4941" y="-6.5" font-family="Helvetica,sans-Serif" font-size="10.00" fill="#000000">::transfer_coord</text>
</a>
</g>
</g>
<!-- Node225&#45;&gt;Node230 -->
<g id="edge5" class="edge">
<title>Node225&#45;&gt;Node230</title>
<path fill="none" stroke="#191970" d="M86.152,-99.3348C105.4955,-84.262 133.9591,-63.3916 160.96,-48.5 164.4471,-46.5767 168.0886,-44.7051 171.7999,-42.8995"/>
<polygon fill="#191970" stroke="#191970" points="173.5355,-45.9521 181.121,-38.5554 170.5785,-39.6073 173.5355,-45.9521"/>
</g>
</g>
</svg>
