<?xml version="1.0" encoding="UTF-8" standalone="no"?>
<!DOCTYPE svg PUBLIC "-//W3C//DTD SVG 1.1//EN"
 "http://www.w3.org/Graphics/SVG/1.1/DTD/svg11.dtd">
<!-- Generated by graphviz version 2.40.1 (20161225.0304)
 -->
<!-- Title: anonymous_namespace{io_info::C}::element_volume Pages: 1 -->
<svg width="944pt" height="373pt"
 viewBox="0.00 0.00 943.84 373.00" xmlns="http://www.w3.org/2000/svg" xmlns:xlink="http://www.w3.org/1999/xlink">
<g id="graph0" class="graph" transform="scale(1 1) rotate(0) translate(4 369)">
<title>anonymous_namespace{io_info::C}::element_volume</title>
<polygon fill="#ffffff" stroke="transparent" points="-4,4 -4,-369 939.8438,-369 939.8438,4 -4,4"/>
<!-- Node0 -->
<g id="node1" class="node">
<title>Node0</title>
<polygon fill="#bfbfbf" stroke="#000000" points="0,-245.5 0,-283.5 124.96,-283.5 124.96,-245.5 0,-245.5"/>
<text text-anchor="start" x="8" y="-271.5" font-family="Helvetica,sans-Serif" font-size="10.00" fill="#000000">anonymous_namespace</text>
<text text-anchor="start" x="8" y="-261.5" font-family="Helvetica,sans-Serif" font-size="10.00" fill="#000000">{io_info::C}::element</text>
<text text-anchor="middle" x="62.48" y="-251.5" font-family="Helvetica,sans-Serif" font-size="10.00" fill="#000000">_volume</text>
</g>
<!-- Node1 -->
<g id="node2" class="node">
<title>Node1</title>
<g id="a_node2"><a xlink:href="$classIoss_1_1Region.html#a98e8859e52343b66d189a85948cb9080" xlink:title="Get all the region&#39;s NodeBlock objects. ">
<polygon fill="#ffffff" stroke="#000000" points="167.625,-336.5 167.625,-364.5 286.4766,-364.5 286.4766,-336.5 167.625,-336.5"/>
<text text-anchor="start" x="175.625" y="-352.5" font-family="Helvetica,sans-Serif" font-size="10.00" fill="#000000">Ioss::Region::get_node</text>
<text text-anchor="middle" x="227.0508" y="-342.5" font-family="Helvetica,sans-Serif" font-size="10.00" fill="#000000">_blocks</text>
</a>
</g>
</g>
<!-- Node0&#45;&gt;Node1 -->
<g id="edge1" class="edge">
<title>Node0&#45;&gt;Node1</title>
<path fill="none" stroke="#191970" d="M93.4789,-283.6305C112.6303,-295.1494 137.8769,-309.801 160.96,-321.5 168.2702,-325.205 176.1591,-328.9098 183.854,-332.3726"/>
<polygon fill="#191970" stroke="#191970" points="182.5307,-335.6144 193.0917,-336.4603 185.3633,-329.2131 182.5307,-335.6144"/>
</g>
<!-- Node2 -->
<g id="node3" class="node">
<title>Node2</title>
<g id="a_node3"><a xlink:href="$classIoss_1_1GroupingEntity.html#a4969f0b3bc6d6a1c63d20d3938608728" xlink:title="Read field data from the database file into memory using a pointer. ">
<polygon fill="#ffffff" stroke="#000000" points="330.8091,-281.5 330.8091,-309.5 436.853,-309.5 436.853,-281.5 330.8091,-281.5"/>
<text text-anchor="start" x="338.8091" y="-297.5" font-family="Helvetica,sans-Serif" font-size="10.00" fill="#000000">Ioss::GroupingEntity</text>
<text text-anchor="middle" x="383.8311" y="-287.5" font-family="Helvetica,sans-Serif" font-size="10.00" fill="#000000">::get_field_data</text>
</a>
</g>
</g>
<!-- Node0&#45;&gt;Node2 -->
<g id="edge2" class="edge">
<title>Node0&#45;&gt;Node2</title>
<path fill="none" stroke="#191970" d="M125.1508,-281.8297C136.9641,-284.5091 149.2772,-286.9105 160.96,-288.5 214.3398,-295.7624 275.543,-297.1977 320.2905,-296.995"/>
<polygon fill="#191970" stroke="#191970" points="320.4626,-300.4939 330.4363,-296.9198 320.4106,-293.4941 320.4626,-300.4939"/>
</g>
<!-- Node4 -->
<g id="node5" class="node">
<title>Node4</title>
<g id="a_node5"><a xlink:href="$classIoss_1_1Region.html#a8c28d389019952e48ea8e953947421f7" xlink:title="Get all the region&#39;s ElementBlock objects. ">
<polygon fill="#ffffff" stroke="#000000" points="160.96,-250.5 160.96,-278.5 293.1416,-278.5 293.1416,-250.5 160.96,-250.5"/>
<text text-anchor="start" x="168.96" y="-266.5" font-family="Helvetica,sans-Serif" font-size="10.00" fill="#000000">Ioss::Region::get_element</text>
<text text-anchor="middle" x="227.0508" y="-256.5" font-family="Helvetica,sans-Serif" font-size="10.00" fill="#000000">_blocks</text>
</a>
</g>
</g>
<!-- Node0&#45;&gt;Node4 -->
<g id="edge4" class="edge">
<title>Node0&#45;&gt;Node4</title>
<path fill="none" stroke="#191970" d="M125.1666,-264.5C133.4326,-264.5 141.9788,-264.5 150.4444,-264.5"/>
<polygon fill="#191970" stroke="#191970" points="150.7065,-268.0001 160.7064,-264.5 150.7064,-261.0001 150.7065,-268.0001"/>
</g>
<!-- Node5 -->
<g id="node6" class="node">
<title>Node5</title>
<g id="a_node6"><a xlink:href="$classIoss_1_1ElementTopology.html#a65981470136fcfc0e884c7332a3ed2f5" xlink:title="Ioss::ElementTopology\l::name">
<polygon fill="#ffffff" stroke="#000000" points="168.7456,-203.5 168.7456,-231.5 285.356,-231.5 285.356,-203.5 168.7456,-203.5"/>
<text text-anchor="start" x="176.7456" y="-219.5" font-family="Helvetica,sans-Serif" font-size="10.00" fill="#000000">Ioss::ElementTopology</text>
<text text-anchor="middle" x="227.0508" y="-209.5" font-family="Helvetica,sans-Serif" font-size="10.00" fill="#000000">::name</text>
</a>
</g>
</g>
<!-- Node0&#45;&gt;Node5 -->
<g id="edge5" class="edge">
<title>Node0&#45;&gt;Node5</title>
<path fill="none" stroke="#191970" d="M125.1666,-246.5972C139.2007,-242.5892 154.0423,-238.3506 167.9262,-234.3855"/>
<polygon fill="#191970" stroke="#191970" points="169.1869,-237.6654 177.8413,-231.5538 167.2646,-230.9345 169.1869,-237.6654"/>
</g>
<!-- Node6 -->
<g id="node7" class="node">
<title>Node6</title>
<g id="a_node7"><a xlink:href="$io__info_8C.html#ad4110d98fb11ba76e97b6444896c3967" xlink:title="hex_volume">
<polygon fill="#ffffff" stroke="#000000" points="192.0903,-166.5 192.0903,-184.5 262.0112,-184.5 262.0112,-166.5 192.0903,-166.5"/>
<text text-anchor="middle" x="227.0508" y="-172.5" font-family="Helvetica,sans-Serif" font-size="10.00" fill="#000000">hex_volume</text>
</a>
</g>
</g>
<!-- Node0&#45;&gt;Node6 -->
<g id="edge6" class="edge">
<title>Node0&#45;&gt;Node6</title>
<path fill="none" stroke="#191970" d="M84.5704,-245.4584C103.675,-229.8413 132.6134,-208.1558 160.96,-194.5 167.6151,-191.2939 174.9141,-188.5277 182.1569,-186.176"/>
<polygon fill="#191970" stroke="#191970" points="183.3718,-189.4653 191.9329,-183.2237 181.3481,-182.7642 183.3718,-189.4653"/>
</g>
<!-- Node3 -->
<g id="node4" class="node">
<title>Node3</title>
<g id="a_node4"><a xlink:href="$classIoss_1_1Field.html#acd40e32af496e75b0c416737ed0a97ec" xlink:title="Ioss::Field::transform">
<polygon fill="#ffffff" stroke="#000000" points="489.5425,-286.5 489.5425,-304.5 598.9019,-304.5 598.9019,-286.5 489.5425,-286.5"/>
<text text-anchor="middle" x="544.2222" y="-292.5" font-family="Helvetica,sans-Serif" font-size="10.00" fill="#000000">Ioss::Field::transform</text>
</a>
</g>
</g>
<!-- Node2&#45;&gt;Node3 -->
<g id="edge3" class="edge">
<title>Node2&#45;&gt;Node3</title>
<path fill="none" stroke="#191970" d="M437.239,-295.5C450.7317,-295.5 465.3674,-295.5 479.3567,-295.5"/>
<polygon fill="#191970" stroke="#191970" points="479.4032,-299.0001 489.4032,-295.5 479.4032,-292.0001 479.4032,-299.0001"/>
</g>
<!-- Node6&#45;&gt;Node2 -->
<g id="edge15" class="edge">
<title>Node6&#45;&gt;Node2</title>
<path fill="none" stroke="#191970" d="M262.0644,-180.2092C272.8801,-182.9969 284.269,-187.4349 293.1416,-194.5 318.9756,-215.0711 306.6988,-235.2743 329.1416,-259.5 334.7362,-265.5391 341.5423,-271.0424 348.4267,-275.8298"/>
<polygon fill="#191970" stroke="#191970" points="346.8171,-278.9589 357.1034,-281.4973 350.6452,-273.0984 346.8171,-278.9589"/>
</g>
<!-- Node7 -->
<g id="node8" class="node">
<title>Node7</title>
<g id="a_node8"><a xlink:href="$classIoss_1_1GroupingEntity.html#a40669aca09db99457475f6852eae0c96" xlink:title="Ioss::GroupingEntity\l::entity_count">
<polygon fill="#ffffff" stroke="#000000" points="330.8091,-221.5 330.8091,-249.5 436.853,-249.5 436.853,-221.5 330.8091,-221.5"/>
<text text-anchor="start" x="338.8091" y="-237.5" font-family="Helvetica,sans-Serif" font-size="10.00" fill="#000000">Ioss::GroupingEntity</text>
<text text-anchor="middle" x="383.8311" y="-227.5" font-family="Helvetica,sans-Serif" font-size="10.00" fill="#000000">::entity_count</text>
</a>
</g>
</g>
<!-- Node6&#45;&gt;Node7 -->
<g id="edge7" class="edge">
<title>Node6&#45;&gt;Node7</title>
<path fill="none" stroke="#191970" d="M262.0932,-184.2794C272.2376,-187.1673 283.242,-190.6399 293.1416,-194.5 309.808,-200.9986 312.8881,-205.0286 329.1416,-212.5 332.7243,-214.1469 336.4583,-215.8155 340.2185,-217.4626"/>
<polygon fill="#191970" stroke="#191970" points="338.979,-220.7396 349.5474,-221.4877 341.7522,-214.3124 338.979,-220.7396"/>
</g>
<!-- Node13 -->
<g id="node14" class="node">
<title>Node13</title>
<g id="a_node14"><a xlink:href="$classIoss_1_1GroupingEntity.html#a318cd5cde65370bb9c83f8ca223f8481" xlink:title="Ioss::GroupingEntity\l::get_database">
<polygon fill="#ffffff" stroke="#000000" points="330.8091,-174.5 330.8091,-202.5 436.853,-202.5 436.853,-174.5 330.8091,-174.5"/>
<text text-anchor="start" x="338.8091" y="-190.5" font-family="Helvetica,sans-Serif" font-size="10.00" fill="#000000">Ioss::GroupingEntity</text>
<text text-anchor="middle" x="383.8311" y="-180.5" font-family="Helvetica,sans-Serif" font-size="10.00" fill="#000000">::get_database</text>
</a>
</g>
</g>
<!-- Node6&#45;&gt;Node13 -->
<g id="edge13" class="edge">
<title>Node6&#45;&gt;Node13</title>
<path fill="none" stroke="#191970" d="M262.2353,-178.4175C279.3796,-179.839 300.5335,-181.5931 320.3644,-183.2374"/>
<polygon fill="#191970" stroke="#191970" points="320.3307,-186.7466 330.5858,-184.085 320.9092,-179.7705 320.3307,-186.7466"/>
</g>
<!-- Node14 -->
<g id="node15" class="node">
<title>Node14</title>
<g id="a_node15"><a xlink:href="$classIoss_1_1DatabaseIO.html#aae00a220b8c3cbd720bcda80803513a1" xlink:title="Returns 4 or 8. ">
<polygon fill="#ffffff" stroke="#000000" points="329.1416,-127.5 329.1416,-155.5 438.5205,-155.5 438.5205,-127.5 329.1416,-127.5"/>
<text text-anchor="start" x="337.1416" y="-143.5" font-family="Helvetica,sans-Serif" font-size="10.00" fill="#000000">Ioss::DatabaseIO::int</text>
<text text-anchor="middle" x="383.8311" y="-133.5" font-family="Helvetica,sans-Serif" font-size="10.00" fill="#000000">_byte_size_api</text>
</a>
</g>
</g>
<!-- Node6&#45;&gt;Node14 -->
<g id="edge14" class="edge">
<title>Node6&#45;&gt;Node14</title>
<path fill="none" stroke="#191970" d="M262.2353,-167.8697C278.9952,-164.2351 299.587,-159.7695 319.0285,-155.5533"/>
<polygon fill="#191970" stroke="#191970" points="320.033,-158.9169 329.064,-153.377 318.5494,-152.076 320.033,-158.9169"/>
</g>
<!-- Node15 -->
<g id="node16" class="node">
<title>Node15</title>
<g id="a_node16"><a xlink:href="$volume_8C.html#ab6032f7ee3f2f8dfdef0aaa062bde64b" xlink:title="hex_volume_internal">
<polygon fill="#ffffff" stroke="#000000" points="329.6909,-90.5 329.6909,-108.5 437.9712,-108.5 437.9712,-90.5 329.6909,-90.5"/>
<text text-anchor="middle" x="383.8311" y="-96.5" font-family="Helvetica,sans-Serif" font-size="10.00" fill="#000000">hex_volume_internal</text>
</a>
</g>
</g>
<!-- Node6&#45;&gt;Node15 -->
<g id="edge16" class="edge">
<title>Node6&#45;&gt;Node15</title>
<path fill="none" stroke="#191970" d="M241.1202,-166.3079C260.3888,-154.0022 296.3433,-132.041 329.1416,-117.5 333.5906,-115.5275 338.3255,-113.6543 343.0766,-111.9138"/>
<polygon fill="#191970" stroke="#191970" points="344.4734,-115.1336 352.7653,-108.5386 342.1705,-108.5233 344.4734,-115.1336"/>
</g>
<!-- Node8 -->
<g id="node9" class="node">
<title>Node8</title>
<g id="a_node9"><a xlink:href="$classIoss_1_1GroupingEntity.html#a3e8284b8cafbbe1646625124f68a2652" xlink:title="Get the Property from the property manager associated with the entity. ">
<polygon fill="#ffffff" stroke="#000000" points="491.2002,-231.5 491.2002,-259.5 597.2441,-259.5 597.2441,-231.5 491.2002,-231.5"/>
<text text-anchor="start" x="499.2002" y="-247.5" font-family="Helvetica,sans-Serif" font-size="10.00" fill="#000000">Ioss::GroupingEntity</text>
<text text-anchor="middle" x="544.2222" y="-237.5" font-family="Helvetica,sans-Serif" font-size="10.00" fill="#000000">::get_property</text>
</a>
</g>
</g>
<!-- Node7&#45;&gt;Node8 -->
<g id="edge8" class="edge">
<title>Node7&#45;&gt;Node8</title>
<path fill="none" stroke="#191970" d="M437.239,-238.8299C451.1717,-239.6985 466.3231,-240.6432 480.7231,-241.541"/>
<polygon fill="#191970" stroke="#191970" points="480.849,-245.0555 491.0475,-242.1847 481.2847,-238.0691 480.849,-245.0555"/>
</g>
<!-- Node9 -->
<g id="node10" class="node">
<title>Node9</title>
<g id="a_node10"><a xlink:href="$classIoss_1_1Property.html#a45bcbc7137a296f3eda52c92c04da39f" xlink:title="Get the property value if it is of type INTEGER. ">
<polygon fill="#ffffff" stroke="#000000" points="487.5869,-194.5 487.5869,-212.5 600.8574,-212.5 600.8574,-194.5 487.5869,-194.5"/>
<text text-anchor="middle" x="544.2222" y="-200.5" font-family="Helvetica,sans-Serif" font-size="10.00" fill="#000000">Ioss::Property::get_int</text>
</a>
</g>
</g>
<!-- Node7&#45;&gt;Node9 -->
<g id="edge9" class="edge">
<title>Node7&#45;&gt;Node9</title>
<path fill="none" stroke="#191970" d="M437.239,-224.8445C453.8415,-221.5321 472.1745,-217.8744 488.9044,-214.5366"/>
<polygon fill="#191970" stroke="#191970" points="489.9622,-217.8946 499.0841,-212.5056 488.5925,-211.0299 489.9622,-217.8946"/>
</g>
<!-- Node10 -->
<g id="node11" class="node">
<title>Node10</title>
<g id="a_node11"><a xlink:href="$namespaceanonymous__namespace_02Ioss__Property_8C_03.html#a7e9f404cf974920b115b502313608c02" xlink:title="anonymous_namespace\l\{Ioss_Property::C\}::\lerror_message">
<polygon fill="#ffffff" stroke="#000000" points="649.9238,-184.5 649.9238,-222.5 774.8838,-222.5 774.8838,-184.5 649.9238,-184.5"/>
<text text-anchor="start" x="657.9238" y="-210.5" font-family="Helvetica,sans-Serif" font-size="10.00" fill="#000000">anonymous_namespace</text>
<text text-anchor="start" x="657.9238" y="-200.5" font-family="Helvetica,sans-Serif" font-size="10.00" fill="#000000">{Ioss_Property::C}::</text>
<text text-anchor="middle" x="712.4038" y="-190.5" font-family="Helvetica,sans-Serif" font-size="10.00" fill="#000000">error_message</text>
</a>
</g>
</g>
<!-- Node9&#45;&gt;Node10 -->
<g id="edge10" class="edge">
<title>Node9&#45;&gt;Node10</title>
<path fill="none" stroke="#191970" d="M601.1608,-203.5C613.4925,-203.5 626.6969,-203.5 639.5451,-203.5"/>
<polygon fill="#191970" stroke="#191970" points="639.7493,-207.0001 649.7493,-203.5 639.7493,-200.0001 639.7493,-207.0001"/>
</g>
<!-- Node11 -->
<g id="node12" class="node">
<title>Node11</title>
<g id="a_node12"><a xlink:href="$namespaceanonymous__namespace_02Ioss__Property_8C_03.html#a33c896c06915d8a83ca1d8886b26d8ed" xlink:title="anonymous_namespace\l\{Ioss_Property::C\}::\ltype_string">
<polygon fill="#ffffff" stroke="#000000" points="810.8838,-208.5 810.8838,-246.5 935.8438,-246.5 935.8438,-208.5 810.8838,-208.5"/>
<text text-anchor="start" x="818.8838" y="-234.5" font-family="Helvetica,sans-Serif" font-size="10.00" fill="#000000">anonymous_namespace</text>
<text text-anchor="start" x="818.8838" y="-224.5" font-family="Helvetica,sans-Serif" font-size="10.00" fill="#000000">{Ioss_Property::C}::</text>
<text text-anchor="middle" x="873.3638" y="-214.5" font-family="Helvetica,sans-Serif" font-size="10.00" fill="#000000">type_string</text>
</a>
</g>
</g>
<!-- Node10&#45;&gt;Node11 -->
<g id="edge11" class="edge">
<title>Node10&#45;&gt;Node11</title>
<path fill="none" stroke="#191970" d="M775.096,-212.8477C783.5342,-214.1059 792.247,-215.4051 800.8377,-216.686"/>
<polygon fill="#191970" stroke="#191970" points="800.4358,-220.1647 810.8427,-218.1778 801.4682,-213.2412 800.4358,-220.1647"/>
</g>
<!-- Node12 -->
<g id="node13" class="node">
<title>Node12</title>
<g id="a_node13"><a xlink:href="$classIoss_1_1Property.html#a90c992cd11af736282e63e1c34b1c076" xlink:title="Get the property type. ">
<polygon fill="#ffffff" stroke="#000000" points="812.5586,-171.5 812.5586,-189.5 934.1689,-189.5 934.1689,-171.5 812.5586,-171.5"/>
<text text-anchor="middle" x="873.3638" y="-177.5" font-family="Helvetica,sans-Serif" font-size="10.00" fill="#000000">Ioss::Property::get_type</text>
</a>
</g>
</g>
<!-- Node10&#45;&gt;Node12 -->
<g id="edge12" class="edge">
<title>Node10&#45;&gt;Node12</title>
<path fill="none" stroke="#191970" d="M775.096,-194.5417C784.0107,-193.2679 793.232,-191.9503 802.2919,-190.6556"/>
<polygon fill="#191970" stroke="#191970" points="803.0231,-194.0868 812.4275,-189.2074 802.0329,-187.1572 803.0231,-194.0868"/>
</g>
<!-- Node16 -->
<g id="node17" class="node">
<title>Node16</title>
<g id="a_node17"><a xlink:href="$classIoss_1_1Utils.html#a244105b001ec84b21566cf42a170269d" xlink:title="Ioss::Utils::timer">
<polygon fill="#ffffff" stroke="#000000" points="500.6631,-141.5 500.6631,-159.5 587.7813,-159.5 587.7813,-141.5 500.6631,-141.5"/>
<text text-anchor="middle" x="544.2222" y="-147.5" font-family="Helvetica,sans-Serif" font-size="10.00" fill="#000000">Ioss::Utils::timer</text>
</a>
</g>
</g>
<!-- Node15&#45;&gt;Node16 -->
<g id="edge17" class="edge">
<title>Node15&#45;&gt;Node16</title>
<path fill="none" stroke="#191970" d="M412.3136,-108.5584C420.7794,-111.3358 430.0527,-114.4624 438.5205,-117.5 454.6795,-123.2967 458.2167,-126.1241 474.5205,-131.5 482.2268,-134.041 490.4896,-136.5112 498.5355,-138.784"/>
<polygon fill="#191970" stroke="#191970" points="497.6192,-142.1619 508.1901,-141.45 499.4825,-135.4144 497.6192,-142.1619"/>
</g>
<!-- Node17 -->
<g id="node18" class="node">
<title>Node17</title>
<g id="a_node18"><a xlink:href="$namespaceanonymous__namespace_02volume_8C_03.html#aa2b0c68eb6b5594cb01e2e73bf8d39d8" xlink:title="anonymous_namespace\l\{volume::C\}::comp_grad12x">
<polygon fill="#ffffff" stroke="#000000" points="474.5205,-94.5 474.5205,-122.5 613.9238,-122.5 613.9238,-94.5 474.5205,-94.5"/>
<text text-anchor="start" x="482.5205" y="-110.5" font-family="Helvetica,sans-Serif" font-size="10.00" fill="#000000">anonymous_namespace</text>
<text text-anchor="middle" x="544.2222" y="-100.5" font-family="Helvetica,sans-Serif" font-size="10.00" fill="#000000">{volume::C}::comp_grad12x</text>
</a>
</g>
</g>
<!-- Node15&#45;&gt;Node17 -->
<g id="edge18" class="edge">
<title>Node15&#45;&gt;Node17</title>
<path fill="none" stroke="#191970" d="M438.1322,-102.547C446.584,-103.0212 455.4658,-103.5196 464.3423,-104.0177"/>
<polygon fill="#191970" stroke="#191970" points="464.1585,-107.5128 474.3389,-104.5787 464.5507,-100.5238 464.1585,-107.5128"/>
</g>
<!-- Node18 -->
<g id="node19" class="node">
<title>Node18</title>
<g id="a_node19"><a xlink:href="$namespaceanonymous__namespace_02volume_8C_03.html#af719cf311d0d67e67fdf3884b50d0795" xlink:title="anonymous_namespace\l\{volume::C\}::dot8">
<polygon fill="#ffffff" stroke="#000000" points="481.7422,-47.5 481.7422,-75.5 606.7021,-75.5 606.7021,-47.5 481.7422,-47.5"/>
<text text-anchor="start" x="489.7422" y="-63.5" font-family="Helvetica,sans-Serif" font-size="10.00" fill="#000000">anonymous_namespace</text>
<text text-anchor="middle" x="544.2222" y="-53.5" font-family="Helvetica,sans-Serif" font-size="10.00" fill="#000000">{volume::C}::dot8</text>
</a>
</g>
</g>
<!-- Node15&#45;&gt;Node18 -->
<g id="edge19" class="edge">
<title>Node15&#45;&gt;Node18</title>
<path fill="none" stroke="#191970" d="M421.8415,-90.4945C437.7818,-86.7179 456.8307,-82.2049 475.0982,-77.8769"/>
<polygon fill="#191970" stroke="#191970" points="475.9254,-81.2779 484.8492,-75.5667 474.3116,-74.4664 475.9254,-81.2779"/>
</g>
<!-- Node19 -->
<g id="node20" class="node">
<title>Node19</title>
<g id="a_node20"><a xlink:href="$classIoss_1_1GroupingEntity.html#a50d4053f49c8c3205e05d939fdc9fbc5" xlink:title="Get name of entity. ">
<polygon fill="#ffffff" stroke="#000000" points="491.2002,-.5 491.2002,-28.5 597.2441,-28.5 597.2441,-.5 491.2002,-.5"/>
<text text-anchor="start" x="499.2002" y="-16.5" font-family="Helvetica,sans-Serif" font-size="10.00" fill="#000000">Ioss::GroupingEntity</text>
<text text-anchor="middle" x="544.2222" y="-6.5" font-family="Helvetica,sans-Serif" font-size="10.00" fill="#000000">::name</text>
</a>
</g>
</g>
<!-- Node15&#45;&gt;Node19 -->
<g id="edge20" class="edge">
<title>Node15&#45;&gt;Node19</title>
<path fill="none" stroke="#191970" d="M394.9272,-90.3746C411.413,-77.1865 443.7465,-52.7162 474.5205,-37.5 478.2472,-35.6573 482.156,-33.9108 486.1401,-32.2658"/>
<polygon fill="#191970" stroke="#191970" points="487.4728,-35.5029 495.5224,-28.6143 484.9339,-28.9796 487.4728,-35.5029"/>
</g>
</g>
</svg>
