<?xml version="1.0" encoding="UTF-8" standalone="no"?>
<!DOCTYPE svg PUBLIC "-//W3C//DTD SVG 1.1//EN"
 "http://www.w3.org/Graphics/SVG/1.1/DTD/svg11.dtd">
<!-- Generated by graphviz version 2.40.1 (20161225.0304)
 -->
<!-- Title: SmartAssert::dump_context_summary Pages: 1 -->
<!--zoomable 131 -->
<svg id="main" version="1.1" xmlns="http://www.w3.org/2000/svg" xmlns:xlink="http://www.w3.org/1999/xlink" xml:space="preserve" onload="init(evt)">
<style type="text/css"><![CDATA[
.edge:hover path { stroke: red; }
.edge:hover polygon { stroke: red; fill: red; }
]]></style>
<script type="text/javascript"><![CDATA[
var edges = document.getElementsByTagName('g');
if (edges && edges.length) {
  for (var i=0;i<edges.length;i++) {
    if (edges[i].id.substr(0,4)=='edge') {
      edges[i].setAttribute('class','edge');
    }
  }
}
]]></script>
        <defs>
                <circle id="rim" cx="0" cy="0" r="7"/>
                <circle id="rim2" cx="0" cy="0" r="3.5"/>
                <g id="zoomPlus">
                        <use xlink:href="#rim" fill="#404040">
                                <set attributeName="fill" to="#808080" begin="zoomplus.mouseover" end="zoomplus.mouseout"/>
                        </use>
                        <path d="M-4,0h8M0,-4v8" fill="none" stroke="white" stroke-width="1.5" pointer-events="none"/>
                </g>
                <g id="zoomMin">
                        <use xlink:href="#rim" fill="#404040">
                                <set attributeName="fill" to="#808080" begin="zoomminus.mouseover" end="zoomminus.mouseout"/>
                        </use>
                        <path d="M-4,0h8" fill="none" stroke="white" stroke-width="1.5" pointer-events="none"/>
                </g>
                <g id="dirArrow">
                        <path fill="none" stroke="white" stroke-width="1.5" d="M0,-3.0v7 M-2.5,-0.5L0,-3.0L2.5,-0.5"/>
                </g>
               <g id="resetDef">
                       <use xlink:href="#rim2" fill="#404040">
                               <set attributeName="fill" to="#808080" begin="reset.mouseover" end="reset.mouseout"/>
                       </use>
               </g>
        </defs>

<script type="text/javascript">
var viewWidth = 576;
var viewHeight = 131;
var sectionId = 'dynsection-13';
</script>
<script xlink:href="svgpan.js"/>
<svg id="graph" class="graph">
<g id="viewport">
<title>SmartAssert::dump_context_summary</title>
<polygon fill="#ffffff" stroke="transparent" points="-4,4 -4,-127 572.2939,-127 572.2939,4 -4,4"/>
<!-- Node88 -->
<g id="node1" class="node">
<title>Node88</title>
<polygon fill="#bfbfbf" stroke="#000000" points="0,-47.5 0,-75.5 139.3838,-75.5 139.3838,-47.5 0,-47.5"/>
<text text-anchor="start" x="8" y="-63.5" font-family="Helvetica,sans-Serif" font-size="10.00" fill="#000000">SmartAssert::dump_context</text>
<text text-anchor="middle" x="69.6919" y="-53.5" font-family="Helvetica,sans-Serif" font-size="10.00" fill="#000000">_summary</text>
</g>
<!-- Node89 -->
<g id="node2" class="node">
<title>Node89</title>
<g id="a_node2"><a xlink:href="namespaceSmartAssert.html#a1bd30ac77bb6fd95588b90f112bd79e1" target="_top" xlink:title="SmartAssert::default\l_warn_handler">
<polygon fill="#ffffff" stroke="#000000" points="175.3838,-94.5 175.3838,-122.5 281.9746,-122.5 281.9746,-94.5 175.3838,-94.5"/>
<text text-anchor="start" x="183.3838" y="-110.5" font-family="Helvetica,sans-Serif" font-size="10.00" fill="#000000">SmartAssert::default</text>
<text text-anchor="middle" x="228.6792" y="-100.5" font-family="Helvetica,sans-Serif" font-size="10.00" fill="#000000">_warn_handler</text>
</a>
</g>
</g>
<!-- Node88&#45;&gt;Node89 -->
<g id="edge1" class="edge">
<title>Node88&#45;&gt;Node89</title>
<path fill="none" stroke="#191970" d="M127.084,-78.4663C144.8694,-83.7241 164.2583,-89.4558 181.2856,-94.4894"/>
<polygon fill="#191970" stroke="#191970" points="127.9753,-75.0801 117.3933,-75.6015 125.9908,-81.793 127.9753,-75.0801"/>
</g>
<!-- Node93 -->
<g id="node6" class="node">
<title>Node93</title>
<g id="a_node6"><a xlink:href="namespaceSmartAssert.html#aad03eef491fe8c133f72b64b31ef8525" target="_top" xlink:title="SmartAssert::default\l_debug_handler">
<polygon fill="#ffffff" stroke="#000000" points="175.3838,-47.5 175.3838,-75.5 281.9746,-75.5 281.9746,-47.5 175.3838,-47.5"/>
<text text-anchor="start" x="183.3838" y="-63.5" font-family="Helvetica,sans-Serif" font-size="10.00" fill="#000000">SmartAssert::default</text>
<text text-anchor="middle" x="228.6792" y="-53.5" font-family="Helvetica,sans-Serif" font-size="10.00" fill="#000000">_debug_handler</text>
</a>
</g>
</g>
<!-- Node88&#45;&gt;Node93 -->
<g id="edge5" class="edge">
<title>Node88&#45;&gt;Node93</title>
<path fill="none" stroke="#191970" d="M149.6099,-61.5C158.3037,-61.5 166.9907,-61.5 175.2549,-61.5"/>
<polygon fill="#191970" stroke="#191970" points="149.4261,-58.0001 139.426,-61.5 149.426,-65.0001 149.4261,-58.0001"/>
</g>
<!-- Node94 -->
<g id="node7" class="node">
<title>Node94</title>
<g id="a_node7"><a xlink:href="namespaceSmartAssert.html#aff6d59c74bb9b8f3cddb9061696da6d3" target="_top" xlink:title="SmartAssert::default\l_error_handler">
<polygon fill="#ffffff" stroke="#000000" points="175.3838,-.5 175.3838,-28.5 281.9746,-28.5 281.9746,-.5 175.3838,-.5"/>
<text text-anchor="start" x="183.3838" y="-16.5" font-family="Helvetica,sans-Serif" font-size="10.00" fill="#000000">SmartAssert::default</text>
<text text-anchor="middle" x="228.6792" y="-6.5" font-family="Helvetica,sans-Serif" font-size="10.00" fill="#000000">_error_handler</text>
</a>
</g>
</g>
<!-- Node88&#45;&gt;Node94 -->
<g id="edge7" class="edge">
<title>Node88&#45;&gt;Node94</title>
<path fill="none" stroke="#191970" d="M127.084,-44.5337C144.8694,-39.2759 164.2583,-33.5442 181.2856,-28.5106"/>
<polygon fill="#191970" stroke="#191970" points="125.9908,-41.207 117.3933,-47.3985 127.9753,-47.9199 125.9908,-41.207"/>
</g>
<!-- Node90 -->
<g id="node3" class="node">
<title>Node90</title>
<g id="a_node3"><a xlink:href="namespaceIoss_1_1Private.html#a5481d73517f1f874d17bf37a0983295c" target="_top" xlink:title="Ioss::Private::init\l_assert">
<polygon fill="#ffffff" stroke="#000000" points="317.9746,-47.5 317.9746,-75.5 407.334,-75.5 407.334,-47.5 317.9746,-47.5"/>
<text text-anchor="start" x="325.9746" y="-63.5" font-family="Helvetica,sans-Serif" font-size="10.00" fill="#000000">Ioss::Private::init</text>
<text text-anchor="middle" x="362.6543" y="-53.5" font-family="Helvetica,sans-Serif" font-size="10.00" fill="#000000">_assert</text>
</a>
</g>
</g>
<!-- Node89&#45;&gt;Node90 -->
<g id="edge2" class="edge">
<title>Node89&#45;&gt;Node90</title>
<path fill="none" stroke="#191970" d="M278.6674,-90.9636C293.1236,-85.8922 308.7108,-80.424 322.4857,-75.5916"/>
<polygon fill="#191970" stroke="#191970" points="277.1537,-87.7854 268.8761,-94.3985 279.471,-94.3907 277.1537,-87.7854"/>
</g>
<!-- Node91 -->
<g id="node4" class="node">
<title>Node91</title>
<g id="a_node4"><a xlink:href="structanonymous__namespace_02Ioss__SmartAssert_8C_03_1_1assert__initializer.html#aca30d7f444721ba24768fa856174c1ac" target="_top" xlink:title="anonymous_namespace\l\{Ioss_SmartAssert::C\}\l::assert_initializer::\lassert_initializer">
<polygon fill="#ffffff" stroke="#000000" points="443.334,-63.5 443.334,-111.5 568.2939,-111.5 568.2939,-63.5 443.334,-63.5"/>
<text text-anchor="start" x="451.334" y="-99.5" font-family="Helvetica,sans-Serif" font-size="10.00" fill="#000000">anonymous_namespace</text>
<text text-anchor="start" x="451.334" y="-89.5" font-family="Helvetica,sans-Serif" font-size="10.00" fill="#000000">{Ioss_SmartAssert::C}</text>
<text text-anchor="start" x="451.334" y="-79.5" font-family="Helvetica,sans-Serif" font-size="10.00" fill="#000000">::assert_initializer::</text>
<text text-anchor="middle" x="505.814" y="-69.5" font-family="Helvetica,sans-Serif" font-size="10.00" fill="#000000">assert_initializer</text>
</a>
</g>
</g>
<!-- Node90&#45;&gt;Node91 -->
<g id="edge3" class="edge">
<title>Node90&#45;&gt;Node91</title>
<path fill="none" stroke="#191970" d="M417.598,-71.4786C425.9876,-73.0023 434.6998,-74.5846 443.2384,-76.1353"/>
<polygon fill="#191970" stroke="#191970" points="418.0226,-67.9986 407.5581,-69.6552 416.7717,-74.8859 418.0226,-67.9986"/>
</g>
<!-- Node92 -->
<g id="node5" class="node">
<title>Node92</title>
<g id="a_node5"><a xlink:href="structAssert.html#a1546fa240ed153e2c32c5d25c7e48520" target="_top" xlink:title="Assert::Assert">
<polygon fill="#ffffff" stroke="#000000" points="466.6958,-26.5 466.6958,-44.5 544.9321,-44.5 544.9321,-26.5 466.6958,-26.5"/>
<text text-anchor="middle" x="505.814" y="-32.5" font-family="Helvetica,sans-Serif" font-size="10.00" fill="#000000">Assert::Assert</text>
</a>
</g>
</g>
<!-- Node90&#45;&gt;Node92 -->
<g id="edge4" class="edge">
<title>Node90&#45;&gt;Node92</title>
<path fill="none" stroke="#191970" d="M417.5059,-51.5381C433.7886,-48.5809 451.2947,-45.4015 466.3916,-42.6597"/>
<polygon fill="#191970" stroke="#191970" points="416.7717,-48.1141 407.5581,-53.3448 418.0226,-55.0014 416.7717,-48.1141"/>
</g>
<!-- Node93&#45;&gt;Node90 -->
<g id="edge6" class="edge">
<title>Node93&#45;&gt;Node90</title>
<path fill="none" stroke="#191970" d="M292.0948,-61.5C300.7423,-61.5 309.4694,-61.5 317.6975,-61.5"/>
<polygon fill="#191970" stroke="#191970" points="292.0147,-58.0001 282.0147,-61.5 292.0146,-65.0001 292.0147,-58.0001"/>
</g>
<!-- Node94&#45;&gt;Node90 -->
<g id="edge8" class="edge">
<title>Node94&#45;&gt;Node90</title>
<path fill="none" stroke="#191970" d="M278.6674,-32.0364C293.1236,-37.1078 308.7108,-42.576 322.4857,-47.4084"/>
<polygon fill="#191970" stroke="#191970" points="279.471,-28.6093 268.8761,-28.6015 277.1537,-35.2146 279.471,-28.6093"/>
</g>
</g>
</svg>
        <g id="navigator" transform="translate(0 0)" fill="#404254">
                <rect fill="#f2f5e9" fill-opacity="0.5" stroke="#606060" stroke-width=".5" x="0" y="0" width="60" height="60"/>
                <use id="zoomplus" xlink:href="#zoomPlus" x="17" y="9" onmousedown="handleZoom(evt,'in')"/>
                <use id="zoomminus" xlink:href="#zoomMin" x="42" y="9" onmousedown="handleZoom(evt,'out')"/>
                <use id="reset" xlink:href="#resetDef" x="30" y="36" onmousedown="handleReset()"/>
                <g id="arrowUp" xlink:href="#dirArrow" transform="translate(30 24)" onmousedown="handlePan(0,-1)">
                  <use xlink:href="#rim" fill="#404040">
                        <set attributeName="fill" to="#808080" begin="arrowUp.mouseover" end="arrowUp.mouseout"/>
                  </use>
                  <path fill="none" stroke="white" stroke-width="1.5" d="M0,-3.0v7 M-2.5,-0.5L0,-3.0L2.5,-0.5"/>
                </g>
                <g id="arrowRight" xlink:href="#dirArrow" transform="rotate(90) translate(36 -43)" onmousedown="handlePan(1,0)">
                  <use xlink:href="#rim" fill="#404040">
                        <set attributeName="fill" to="#808080" begin="arrowRight.mouseover" end="arrowRight.mouseout"/>
                  </use>
                  <path fill="none" stroke="white" stroke-width="1.5" d="M0,-3.0v7 M-2.5,-0.5L0,-3.0L2.5,-0.5"/>
                </g>
                <g id="arrowDown" xlink:href="#dirArrow" transform="rotate(180) translate(-30 -48)" onmousedown="handlePan(0,1)">
                  <use xlink:href="#rim" fill="#404040">
                        <set attributeName="fill" to="#808080" begin="arrowDown.mouseover" end="arrowDown.mouseout"/>
                  </use>
                  <path fill="none" stroke="white" stroke-width="1.5" d="M0,-3.0v7 M-2.5,-0.5L0,-3.0L2.5,-0.5"/>
                </g>
                <g id="arrowLeft" xlink:href="#dirArrow" transform="rotate(270) translate(-36 17)" onmousedown="handlePan(-1,0)">
                  <use xlink:href="#rim" fill="#404040">
                        <set attributeName="fill" to="#808080" begin="arrowLeft.mouseover" end="arrowLeft.mouseout"/>
                  </use>
                  <path fill="none" stroke="white" stroke-width="1.5" d="M0,-3.0v7 M-2.5,-0.5L0,-3.0L2.5,-0.5"/>
                </g>
        </g>
        <svg viewBox="0 0 15 15" width="100%" height="30px" preserveAspectRatio="xMaxYMin meet">
         <g id="arrow_out" transform="scale(0.3 0.3)">
          <a xlink:href="namespaceSmartAssert_a004206ca8808981af35593be4498173a_icgraph_org.svg" target="_base">
           <rect id="button" ry="5" rx="5" y="6" x="6" height="38" width="38"
                fill="#f2f5e9" fill-opacity="0.5" stroke="#606060" stroke-width="1.0"/>
           <path id="arrow"
             d="M 11.500037,31.436501 C 11.940474,20.09759 22.043105,11.32322 32.158766,21.979434 L 37.068811,17.246167 C 37.068811,17.246167 37.088388,32 37.088388,32 L 22.160133,31.978069 C 22.160133,31.978069 26.997745,27.140456 26.997745,27.140456 C 18.528582,18.264221 13.291696,25.230495 11.500037,31.436501 z"
             style="fill:#404040;"/>
          </a>
         </g>
        </svg>
</svg>
