<?xml version="1.0" encoding="UTF-8" standalone="no"?>
<!DOCTYPE svg PUBLIC "-//W3C//DTD SVG 1.1//EN"
 "http://www.w3.org/Graphics/SVG/1.1/DTD/svg11.dtd">
<!-- Generated by graphviz version 2.40.1 (20161225.0304)
 -->
<!-- Title: anonymous_namespace{Ioss_ConcreteVariableType::C}::invalid Pages: 1 -->
<svg width="1266pt" height="744pt"
 viewBox="0.00 0.00 1266.11 744.35" xmlns="http://www.w3.org/2000/svg" xmlns:xlink="http://www.w3.org/1999/xlink">
<g id="graph0" class="graph" transform="scale(1 1) rotate(0) translate(4 740.3461)">
<title>anonymous_namespace{Ioss_ConcreteVariableType::C}::invalid</title>
<polygon fill="#ffffff" stroke="transparent" points="-4,4 -4,-740.3461 1262.1104,-740.3461 1262.1104,4 -4,4"/>
<!-- Node17 -->
<g id="node1" class="node">
<title>Node17</title>
<polygon fill="#bfbfbf" stroke="#000000" points="0,-310.8461 0,-348.8461 141.4541,-348.8461 141.4541,-310.8461 0,-310.8461"/>
<text text-anchor="start" x="8" y="-336.8461" font-family="Helvetica,sans-Serif" font-size="10.00" fill="#000000">anonymous_namespace</text>
<text text-anchor="start" x="8" y="-326.8461" font-family="Helvetica,sans-Serif" font-size="10.00" fill="#000000">{Ioss_ConcreteVariableType</text>
<text text-anchor="middle" x="70.7271" y="-316.8461" font-family="Helvetica,sans-Serif" font-size="10.00" fill="#000000">::C}::invalid</text>
</g>
<!-- Node18 -->
<g id="node2" class="node">
<title>Node18</title>
<g id="a_node2"><a xlink:href="$namespaceanonymous__namespace_02Ioss__Utils_8C_03.html#adbfb40a9ca2bba6eaeaf028b447e5a3c" xlink:title="anonymous_namespace\l\{Ioss_Utils::C\}::get\l_next_field">
<polygon fill="#ffffff" stroke="#000000" points="177.4541,-334.8461 177.4541,-372.8461 302.4141,-372.8461 302.4141,-334.8461 177.4541,-334.8461"/>
<text text-anchor="start" x="185.4541" y="-360.8461" font-family="Helvetica,sans-Serif" font-size="10.00" fill="#000000">anonymous_namespace</text>
<text text-anchor="start" x="185.4541" y="-350.8461" font-family="Helvetica,sans-Serif" font-size="10.00" fill="#000000">{Ioss_Utils::C}::get</text>
<text text-anchor="middle" x="239.9341" y="-340.8461" font-family="Helvetica,sans-Serif" font-size="10.00" fill="#000000">_next_field</text>
</a>
</g>
</g>
<!-- Node17&#45;&gt;Node18 -->
<g id="edge1" class="edge">
<title>Node17&#45;&gt;Node18</title>
<path fill="none" stroke="#191970" d="M151.5824,-341.3145C160.205,-342.5375 168.8795,-343.7679 177.2469,-344.9547"/>
<polygon fill="#191970" stroke="#191970" points="151.8981,-337.8243 141.5057,-339.8852 150.915,-344.7549 151.8981,-337.8243"/>
</g>
<!-- Node48 -->
<g id="node32" class="node">
<title>Node48</title>
<g id="a_node32"><a xlink:href="$Utst__ioel_8C.html#a3f327219a37bce2c701e432032296dd2" xlink:title="test_all_elements">
<polygon fill="#ffffff" stroke="#000000" points="193.0229,-297.8461 193.0229,-315.8461 286.8452,-315.8461 286.8452,-297.8461 193.0229,-297.8461"/>
<text text-anchor="middle" x="239.9341" y="-303.8461" font-family="Helvetica,sans-Serif" font-size="10.00" fill="#000000">test_all_elements</text>
</a>
</g>
</g>
<!-- Node17&#45;&gt;Node48 -->
<g id="edge54" class="edge">
<title>Node17&#45;&gt;Node48</title>
<path fill="none" stroke="#191970" d="M151.709,-318.8384C165.7848,-316.9251 179.9946,-314.9936 192.7759,-313.2562"/>
<polygon fill="#191970" stroke="#191970" points="150.9431,-315.4102 141.5057,-320.2253 151.886,-322.3464 150.9431,-315.4102"/>
</g>
<!-- Node19 -->
<g id="node3" class="node">
<title>Node19</title>
<g id="a_node3"><a xlink:href="$classIoss_1_1Utils.html#a5ceff6a2feab85fa57da7cebcc443deb" xlink:title="Ioss::Utils::get_fields">
<polygon fill="#ffffff" stroke="#000000" points="338.4141,-344.8461 338.4141,-362.8461 446.1182,-362.8461 446.1182,-344.8461 338.4141,-344.8461"/>
<text text-anchor="middle" x="392.2661" y="-350.8461" font-family="Helvetica,sans-Serif" font-size="10.00" fill="#000000">Ioss::Utils::get_fields</text>
</a>
</g>
</g>
<!-- Node18&#45;&gt;Node19 -->
<g id="edge2" class="edge">
<title>Node18&#45;&gt;Node19</title>
<path fill="none" stroke="#191970" d="M312.8088,-353.8461C321.4022,-353.8461 330.0516,-353.8461 338.3184,-353.8461"/>
<polygon fill="#191970" stroke="#191970" points="312.7729,-350.3462 302.7728,-353.8461 312.7728,-357.3462 312.7729,-350.3462"/>
</g>
<!-- Node20 -->
<g id="node4" class="node">
<title>Node20</title>
<g id="a_node4"><a xlink:href="$classIocgns_1_1Utils.html#ad21b98f36426a1b2a2f45742035b4c23" xlink:title="Iocgns::Utils::add\l_transient_variables">
<polygon fill="#ffffff" stroke="#000000" points="495.458,-386.8461 495.458,-414.8461 600.9551,-414.8461 600.9551,-386.8461 495.458,-386.8461"/>
<text text-anchor="start" x="503.458" y="-402.8461" font-family="Helvetica,sans-Serif" font-size="10.00" fill="#000000">Iocgns::Utils::add</text>
<text text-anchor="middle" x="548.2065" y="-392.8461" font-family="Helvetica,sans-Serif" font-size="10.00" fill="#000000">_transient_variables</text>
</a>
</g>
</g>
<!-- Node19&#45;&gt;Node20 -->
<g id="edge3" class="edge">
<title>Node19&#45;&gt;Node20</title>
<path fill="none" stroke="#191970" d="M432.0037,-365.8229C453.2298,-372.2204 479.4797,-380.132 501.6569,-386.8162"/>
<polygon fill="#191970" stroke="#191970" points="432.9176,-362.4429 422.333,-362.9082 430.8975,-369.1451 432.9176,-362.4429"/>
</g>
<!-- Node23 -->
<g id="node7" class="node">
<title>Node23</title>
<g id="a_node7"><a xlink:href="$classIoex_1_1DatabaseIO.html#af8302d2f60ebd0acdaa212ca6ae21d75" xlink:title="Ioex::DatabaseIO::internal\l_add_results_fields">
<polygon fill="#ffffff" stroke="#000000" points="482.1182,-339.8461 482.1182,-367.8461 614.2949,-367.8461 614.2949,-339.8461 482.1182,-339.8461"/>
<text text-anchor="start" x="490.1182" y="-355.8461" font-family="Helvetica,sans-Serif" font-size="10.00" fill="#000000">Ioex::DatabaseIO::internal</text>
<text text-anchor="middle" x="548.2065" y="-345.8461" font-family="Helvetica,sans-Serif" font-size="10.00" fill="#000000">_add_results_fields</text>
</a>
</g>
</g>
<!-- Node19&#45;&gt;Node23 -->
<g id="edge6" class="edge">
<title>Node19&#45;&gt;Node23</title>
<path fill="none" stroke="#191970" d="M456.5273,-353.8461C464.9682,-353.8461 473.6303,-353.8461 482.1011,-353.8461"/>
<polygon fill="#191970" stroke="#191970" points="456.3689,-350.3462 446.3689,-353.8461 456.3688,-357.3462 456.3689,-350.3462"/>
</g>
<!-- Node47 -->
<g id="node31" class="node">
<title>Node47</title>
<g id="a_node31"><a xlink:href="$classIoex_1_1DatabaseIO.html#a842ea33b8ef486bc3df95240fe706418" xlink:title="Ioex::DatabaseIO::add\l_attribute_fields">
<polygon fill="#ffffff" stroke="#000000" points="655.8516,-292.8461 655.8516,-320.8461 771.915,-320.8461 771.915,-292.8461 655.8516,-292.8461"/>
<text text-anchor="start" x="663.8516" y="-308.8461" font-family="Helvetica,sans-Serif" font-size="10.00" fill="#000000">Ioex::DatabaseIO::add</text>
<text text-anchor="middle" x="713.8833" y="-298.8461" font-family="Helvetica,sans-Serif" font-size="10.00" fill="#000000">_attribute_fields</text>
</a>
</g>
</g>
<!-- Node19&#45;&gt;Node47 -->
<g id="edge46" class="edge">
<title>Node19&#45;&gt;Node47</title>
<path fill="none" stroke="#191970" d="M432.5308,-342.19C447.9338,-338.0879 465.7347,-333.7748 482.1182,-330.8461 540.6549,-320.3822 608.3851,-314.0219 655.4495,-310.5028"/>
<polygon fill="#191970" stroke="#191970" points="431.5247,-338.8364 422.7941,-344.8386 433.3621,-345.591 431.5247,-338.8364"/>
</g>
<!-- Node21 -->
<g id="node5" class="node">
<title>Node21</title>
<g id="a_node5"><a xlink:href="$classIocgns_1_1DatabaseIO.html#aefeff18c6c405f13bd79260ee41678de" xlink:title="Iocgns::DatabaseIO\l::read_meta_data__">
<polygon fill="#ffffff" stroke="#000000" points="661.1274,-433.8461 661.1274,-461.8461 766.6392,-461.8461 766.6392,-433.8461 661.1274,-433.8461"/>
<text text-anchor="start" x="669.1274" y="-449.8461" font-family="Helvetica,sans-Serif" font-size="10.00" fill="#000000">Iocgns::DatabaseIO</text>
<text text-anchor="middle" x="713.8833" y="-439.8461" font-family="Helvetica,sans-Serif" font-size="10.00" fill="#000000">::read_meta_data__</text>
</a>
</g>
</g>
<!-- Node20&#45;&gt;Node21 -->
<g id="edge4" class="edge">
<title>Node20&#45;&gt;Node21</title>
<path fill="none" stroke="#191970" d="M607.7561,-417.7394C626.3601,-423.0171 646.6697,-428.7786 664.4956,-433.8356"/>
<polygon fill="#191970" stroke="#191970" points="608.4906,-414.3098 597.915,-414.9477 606.5802,-421.044 608.4906,-414.3098"/>
</g>
<!-- Node22 -->
<g id="node6" class="node">
<title>Node22</title>
<g id="a_node6"><a xlink:href="$classIocgns_1_1ParallelDatabaseIO.html#ac4401b921f83ec0976dd53675e80d2c8" xlink:title="Iocgns::ParallelDatabase\lIO::read_meta_data__">
<polygon fill="#ffffff" stroke="#000000" points="650.2949,-386.8461 650.2949,-414.8461 777.4717,-414.8461 777.4717,-386.8461 650.2949,-386.8461"/>
<text text-anchor="start" x="658.2949" y="-402.8461" font-family="Helvetica,sans-Serif" font-size="10.00" fill="#000000">Iocgns::ParallelDatabase</text>
<text text-anchor="middle" x="713.8833" y="-392.8461" font-family="Helvetica,sans-Serif" font-size="10.00" fill="#000000">IO::read_meta_data__</text>
</a>
</g>
</g>
<!-- Node20&#45;&gt;Node22 -->
<g id="edge5" class="edge">
<title>Node20&#45;&gt;Node22</title>
<path fill="none" stroke="#191970" d="M611.1655,-400.8461C623.948,-400.8461 637.4017,-400.8461 650.2087,-400.8461"/>
<polygon fill="#191970" stroke="#191970" points="611.0833,-397.3462 601.0832,-400.8461 611.0832,-404.3462 611.0833,-397.3462"/>
</g>
<!-- Node24 -->
<g id="node8" class="node">
<title>Node24</title>
<g id="a_node8"><a xlink:href="$classIoex_1_1DatabaseIO.html#ac57e5ba46ec8c43b217ab820c430803b" xlink:title="Ioex::DatabaseIO::add\l_results_fields">
<polygon fill="#ffffff" stroke="#000000" points="655.8516,-339.8461 655.8516,-367.8461 771.915,-367.8461 771.915,-339.8461 655.8516,-339.8461"/>
<text text-anchor="start" x="663.8516" y="-355.8461" font-family="Helvetica,sans-Serif" font-size="10.00" fill="#000000">Ioex::DatabaseIO::add</text>
<text text-anchor="middle" x="713.8833" y="-345.8461" font-family="Helvetica,sans-Serif" font-size="10.00" fill="#000000">_results_fields</text>
</a>
</g>
</g>
<!-- Node23&#45;&gt;Node24 -->
<g id="edge7" class="edge">
<title>Node23&#45;&gt;Node24</title>
<path fill="none" stroke="#191970" d="M624.9253,-353.8461C635.2784,-353.8461 645.7597,-353.8461 655.7176,-353.8461"/>
<polygon fill="#191970" stroke="#191970" points="624.639,-350.3462 614.639,-353.8461 624.639,-357.3462 624.639,-350.3462"/>
</g>
<!-- Node25 -->
<g id="node9" class="node">
<title>Node25</title>
<g id="a_node9"><a xlink:href="$classIofx_1_1DatabaseIO.html#a78baca50e8ed293624236a1b497f69b3" xlink:title="Iofx::DatabaseIO::get\l_blocks">
<polygon fill="#ffffff" stroke="#000000" points="826.814,-613.8461 826.814,-641.8461 937.311,-641.8461 937.311,-613.8461 826.814,-613.8461"/>
<text text-anchor="start" x="834.814" y="-629.8461" font-family="Helvetica,sans-Serif" font-size="10.00" fill="#000000">Iofx::DatabaseIO::get</text>
<text text-anchor="middle" x="882.0625" y="-619.8461" font-family="Helvetica,sans-Serif" font-size="10.00" fill="#000000">_blocks</text>
</a>
</g>
</g>
<!-- Node24&#45;&gt;Node25 -->
<g id="edge8" class="edge">
<title>Node24&#45;&gt;Node25</title>
<path fill="none" stroke="#191970" d="M772.3224,-373.4208C774.1349,-374.7988 775.86,-376.2718 777.4717,-377.8461 807.9953,-407.6614 797.1091,-427.4392 813.4717,-466.8461 836.0745,-521.2817 863.8102,-585.6724 875.919,-613.6687"/>
<polygon fill="#191970" stroke="#191970" points="774.1927,-370.4622 763.8958,-367.9675 770.3896,-376.339 774.1927,-370.4622"/>
</g>
<!-- Node30 -->
<g id="node14" class="node">
<title>Node30</title>
<g id="a_node14"><a xlink:href="$classIofx_1_1DatabaseIO.html#a27da0e50c4bfa4895ac1693a8368ed60" xlink:title="Iofx::DatabaseIO::get\l_sidesets">
<polygon fill="#ffffff" stroke="#000000" points="826.814,-428.8461 826.814,-456.8461 937.311,-456.8461 937.311,-428.8461 826.814,-428.8461"/>
<text text-anchor="start" x="834.814" y="-444.8461" font-family="Helvetica,sans-Serif" font-size="10.00" fill="#000000">Iofx::DatabaseIO::get</text>
<text text-anchor="middle" x="882.0625" y="-434.8461" font-family="Helvetica,sans-Serif" font-size="10.00" fill="#000000">_sidesets</text>
</a>
</g>
</g>
<!-- Node24&#45;&gt;Node30 -->
<g id="edge15" class="edge">
<title>Node24&#45;&gt;Node30</title>
<path fill="none" stroke="#191970" d="M768.9187,-372.5337C771.8924,-374.1802 774.7665,-375.9492 777.4717,-377.8461 797.6015,-391.9612 793.0818,-406.1095 813.4717,-419.8461 818.5757,-423.2847 824.2388,-426.2496 830.0599,-428.7962"/>
<polygon fill="#191970" stroke="#191970" points="770.2773,-369.2999 759.7679,-367.9567 767.1458,-375.5604 770.2773,-369.2999"/>
</g>
<!-- Node31 -->
<g id="node15" class="node">
<title>Node31</title>
<g id="a_node15"><a xlink:href="$classIofx_1_1DatabaseIO.html#a55086ffce615e225095187fcf880c8bb" xlink:title="Iofx::DatabaseIO::get_sets">
<polygon fill="#ffffff" stroke="#000000" points="814.8633,-391.8461 814.8633,-409.8461 949.2617,-409.8461 949.2617,-391.8461 814.8633,-391.8461"/>
<text text-anchor="middle" x="882.0625" y="-397.8461" font-family="Helvetica,sans-Serif" font-size="10.00" fill="#000000">Iofx::DatabaseIO::get_sets</text>
</a>
</g>
</g>
<!-- Node24&#45;&gt;Node31 -->
<g id="edge17" class="edge">
<title>Node24&#45;&gt;Node31</title>
<path fill="none" stroke="#191970" d="M774.2863,-370.7266C799.7354,-377.8387 828.3361,-385.8315 849.6763,-391.7953"/>
<polygon fill="#191970" stroke="#191970" points="774.9156,-367.2684 764.3426,-367.9477 773.0315,-374.0101 774.9156,-367.2684"/>
</g>
<!-- Node36 -->
<g id="node20" class="node">
<title>Node36</title>
<g id="a_node20"><a xlink:href="$classIopx_1_1DatabaseIO.html#a745e72869a9065d9f74f548a61262823" xlink:title="Iopx::DatabaseIO::get\l_blocks">
<polygon fill="#ffffff" stroke="#000000" points="825.4224,-191.8461 825.4224,-219.8461 938.7026,-219.8461 938.7026,-191.8461 825.4224,-191.8461"/>
<text text-anchor="start" x="833.4224" y="-207.8461" font-family="Helvetica,sans-Serif" font-size="10.00" fill="#000000">Iopx::DatabaseIO::get</text>
<text text-anchor="middle" x="882.0625" y="-197.8461" font-family="Helvetica,sans-Serif" font-size="10.00" fill="#000000">_blocks</text>
</a>
</g>
</g>
<!-- Node24&#45;&gt;Node36 -->
<g id="edge26" class="edge">
<title>Node24&#45;&gt;Node36</title>
<path fill="none" stroke="#191970" d="M774.0568,-333.9747C775.2452,-332.9819 776.3864,-331.9399 777.4717,-330.8461 811.3329,-296.7209 779.2115,-262.5708 813.4717,-228.8461 816.9625,-225.4099 820.9816,-222.4868 825.287,-220.0003"/>
<polygon fill="#191970" stroke="#191970" points="771.8336,-331.2575 765.618,-339.8375 775.8276,-337.0062 771.8336,-331.2575"/>
</g>
<!-- Node39 -->
<g id="node23" class="node">
<title>Node39</title>
<g id="a_node23"><a xlink:href="$classIopx_1_1DatabaseIO.html#a8817ac53c20c2bc6d7e3285beb718268" xlink:title="Iopx::DatabaseIO::get\l_sidesets">
<polygon fill="#ffffff" stroke="#000000" points="825.4224,-144.8461 825.4224,-172.8461 938.7026,-172.8461 938.7026,-144.8461 825.4224,-144.8461"/>
<text text-anchor="start" x="833.4224" y="-160.8461" font-family="Helvetica,sans-Serif" font-size="10.00" fill="#000000">Iopx::DatabaseIO::get</text>
<text text-anchor="middle" x="882.0625" y="-150.8461" font-family="Helvetica,sans-Serif" font-size="10.00" fill="#000000">_sidesets</text>
</a>
</g>
</g>
<!-- Node24&#45;&gt;Node39 -->
<g id="edge29" class="edge">
<title>Node24&#45;&gt;Node39</title>
<path fill="none" stroke="#191970" d="M774.6979,-333.6732C775.6641,-332.7717 776.5905,-331.8299 777.4717,-330.8461 822.9243,-280.0973 767.4253,-232.0568 813.4717,-181.8461 816.8673,-178.1434 820.8763,-175.0363 825.2242,-172.4291"/>
<polygon fill="#191970" stroke="#191970" points="772.4489,-330.9863 766.6084,-339.826 776.6866,-336.5579 772.4489,-330.9863"/>
</g>
<!-- Node40 -->
<g id="node24" class="node">
<title>Node40</title>
<g id="a_node24"><a xlink:href="$classIopx_1_1DatabaseIO.html#a6edefcd1db4d70995c9c6de9be5e968d" xlink:title="Iopx::DatabaseIO::get_sets">
<polygon fill="#ffffff" stroke="#000000" points="813.4717,-238.8461 813.4717,-256.8461 950.6533,-256.8461 950.6533,-238.8461 813.4717,-238.8461"/>
<text text-anchor="middle" x="882.0625" y="-244.8461" font-family="Helvetica,sans-Serif" font-size="10.00" fill="#000000">Iopx::DatabaseIO::get_sets</text>
</a>
</g>
</g>
<!-- Node24&#45;&gt;Node40 -->
<g id="edge31" class="edge">
<title>Node24&#45;&gt;Node40</title>
<path fill="none" stroke="#191970" d="M770.9397,-335.1014C773.2034,-333.7696 775.392,-332.3526 777.4717,-330.8461 798.4961,-315.6163 793.6277,-301.585 813.4717,-284.8461 827.4336,-273.0689 845.7446,-263.4236 859.935,-256.9368"/>
<polygon fill="#191970" stroke="#191970" points="769.1473,-332.089 761.9078,-339.8247 772.3912,-338.292 769.1473,-332.089"/>
</g>
<!-- Node45 -->
<g id="node29" class="node">
<title>Node45</title>
<g id="a_node29"><a xlink:href="$classIoex_1_1DatabaseIO.html#abbf608900e50b190d274d618dfdca0dc" xlink:title="Ioex::DatabaseIO::get\l_nodeblocks">
<polygon fill="#ffffff" stroke="#000000" points="825.4224,-294.8461 825.4224,-322.8461 938.7026,-322.8461 938.7026,-294.8461 825.4224,-294.8461"/>
<text text-anchor="start" x="833.4224" y="-310.8461" font-family="Helvetica,sans-Serif" font-size="10.00" fill="#000000">Ioex::DatabaseIO::get</text>
<text text-anchor="middle" x="882.0625" y="-300.8461" font-family="Helvetica,sans-Serif" font-size="10.00" fill="#000000">_nodeblocks</text>
</a>
</g>
</g>
<!-- Node24&#45;&gt;Node45 -->
<g id="edge40" class="edge">
<title>Node24&#45;&gt;Node45</title>
<path fill="none" stroke="#191970" d="M776.6958,-337.0393C794.0802,-332.3877 812.7631,-327.3887 829.4982,-322.9108"/>
<polygon fill="#191970" stroke="#191970" points="775.3903,-333.7654 766.6348,-339.7313 777.1997,-340.5275 775.3903,-333.7654"/>
</g>
<!-- Node46 -->
<g id="node30" class="node">
<title>Node46</title>
<g id="a_node30"><a xlink:href="$classIoex_1_1DatabaseIO.html#a3033bd63238c8330fff6cc76142b09e7" xlink:title="Ioex::DatabaseIO::add\l_region_fields">
<polygon fill="#ffffff" stroke="#000000" points="986.6533,-339.8461 986.6533,-367.8461 1102.7168,-367.8461 1102.7168,-339.8461 986.6533,-339.8461"/>
<text text-anchor="start" x="994.6533" y="-355.8461" font-family="Helvetica,sans-Serif" font-size="10.00" fill="#000000">Ioex::DatabaseIO::add</text>
<text text-anchor="middle" x="1044.6851" y="-345.8461" font-family="Helvetica,sans-Serif" font-size="10.00" fill="#000000">_region_fields</text>
</a>
</g>
</g>
<!-- Node24&#45;&gt;Node46 -->
<g id="edge43" class="edge">
<title>Node24&#45;&gt;Node46</title>
<path fill="none" stroke="#191970" d="M782.4559,-353.8461C842.7867,-353.8461 929.6462,-353.8461 986.612,-353.8461"/>
<polygon fill="#191970" stroke="#191970" points="782.2626,-350.3462 772.2625,-353.8461 782.2625,-357.3462 782.2626,-350.3462"/>
</g>
<!-- Node26 -->
<g id="node10" class="node">
<title>Node26</title>
<g id="a_node10"><a xlink:href="$classIofx_1_1DatabaseIO.html#a5352613bb7149d93d7948d02518a4b23" xlink:title="Iofx::DatabaseIO::get\l_elemblocks">
<polygon fill="#ffffff" stroke="#000000" points="989.4365,-707.8461 989.4365,-735.8461 1099.9336,-735.8461 1099.9336,-707.8461 989.4365,-707.8461"/>
<text text-anchor="start" x="997.4365" y="-723.8461" font-family="Helvetica,sans-Serif" font-size="10.00" fill="#000000">Iofx::DatabaseIO::get</text>
<text text-anchor="middle" x="1044.6851" y="-713.8461" font-family="Helvetica,sans-Serif" font-size="10.00" fill="#000000">_elemblocks</text>
</a>
</g>
</g>
<!-- Node25&#45;&gt;Node26 -->
<g id="edge9" class="edge">
<title>Node25&#45;&gt;Node26</title>
<path fill="none" stroke="#191970" d="M908.4046,-648.1156C928.9662,-663.3364 958.6495,-684.0219 986.6533,-698.8461 992.6876,-702.0404 999.2663,-705.0555 1005.7562,-707.786"/>
<polygon fill="#191970" stroke="#191970" points="910.2852,-645.1514 900.1825,-641.96 906.09,-650.755 910.2852,-645.1514"/>
</g>
<!-- Node28 -->
<g id="node12" class="node">
<title>Node28</title>
<g id="a_node12"><a xlink:href="$classIofx_1_1DatabaseIO.html#aee5d0d60d0f0ab20a3965c38d76deb30" xlink:title="Iofx::DatabaseIO::get\l_faceblocks">
<polygon fill="#ffffff" stroke="#000000" points="989.4365,-660.8461 989.4365,-688.8461 1099.9336,-688.8461 1099.9336,-660.8461 989.4365,-660.8461"/>
<text text-anchor="start" x="997.4365" y="-676.8461" font-family="Helvetica,sans-Serif" font-size="10.00" fill="#000000">Iofx::DatabaseIO::get</text>
<text text-anchor="middle" x="1044.6851" y="-666.8461" font-family="Helvetica,sans-Serif" font-size="10.00" fill="#000000">_faceblocks</text>
</a>
</g>
</g>
<!-- Node25&#45;&gt;Node28 -->
<g id="edge11" class="edge">
<title>Node25&#45;&gt;Node28</title>
<path fill="none" stroke="#191970" d="M940.5143,-644.7394C958.7753,-650.0171 978.7105,-655.7786 996.2078,-660.8356"/>
<polygon fill="#191970" stroke="#191970" points="941.4333,-641.3618 930.8546,-641.9477 939.4897,-648.0866 941.4333,-641.3618"/>
</g>
<!-- Node29 -->
<g id="node13" class="node">
<title>Node29</title>
<g id="a_node13"><a xlink:href="$classIofx_1_1DatabaseIO.html#a01fc0509353b79eb6285efdf2269b40b" xlink:title="Iofx::DatabaseIO::get\l_edgeblocks">
<polygon fill="#ffffff" stroke="#000000" points="989.4365,-613.8461 989.4365,-641.8461 1099.9336,-641.8461 1099.9336,-613.8461 989.4365,-613.8461"/>
<text text-anchor="start" x="997.4365" y="-629.8461" font-family="Helvetica,sans-Serif" font-size="10.00" fill="#000000">Iofx::DatabaseIO::get</text>
<text text-anchor="middle" x="1044.6851" y="-619.8461" font-family="Helvetica,sans-Serif" font-size="10.00" fill="#000000">_edgeblocks</text>
</a>
</g>
</g>
<!-- Node25&#45;&gt;Node29 -->
<g id="edge13" class="edge">
<title>Node25&#45;&gt;Node29</title>
<path fill="none" stroke="#191970" d="M947.9521,-627.8461C961.7165,-627.8461 976.0929,-627.8461 989.4246,-627.8461"/>
<polygon fill="#191970" stroke="#191970" points="947.5732,-624.3462 937.5731,-627.8461 947.5731,-631.3462 947.5732,-624.3462"/>
</g>
<!-- Node27 -->
<g id="node11" class="node">
<title>Node27</title>
<g id="a_node11"><a xlink:href="$classIofx_1_1DatabaseIO.html#a79b188c0f0320a9656ad80866af72fb6" xlink:title="Iofx::DatabaseIO::read\l_meta_data__">
<polygon fill="#ffffff" stroke="#000000" points="1140.1084,-503.8461 1140.1084,-531.8461 1256.7188,-531.8461 1256.7188,-503.8461 1140.1084,-503.8461"/>
<text text-anchor="start" x="1148.1084" y="-519.8461" font-family="Helvetica,sans-Serif" font-size="10.00" fill="#000000">Iofx::DatabaseIO::read</text>
<text text-anchor="middle" x="1198.4136" y="-509.8461" font-family="Helvetica,sans-Serif" font-size="10.00" fill="#000000">_meta_data__</text>
</a>
</g>
</g>
<!-- Node26&#45;&gt;Node27 -->
<g id="edge10" class="edge">
<title>Node26&#45;&gt;Node27</title>
<path fill="none" stroke="#191970" d="M1098.5286,-702.2547C1099.9845,-701.1751 1101.3854,-700.0398 1102.7168,-698.8461 1156.1787,-650.9161 1184.8537,-565.9315 1194.5722,-532.2112"/>
<polygon fill="#191970" stroke="#191970" points="1096.2703,-699.5418 1089.6905,-707.8458 1100.0126,-705.4575 1096.2703,-699.5418"/>
</g>
<!-- Node28&#45;&gt;Node27 -->
<g id="edge12" class="edge">
<title>Node28&#45;&gt;Node27</title>
<path fill="none" stroke="#191970" d="M1097.157,-655.7802C1099.0863,-654.5403 1100.9485,-653.2299 1102.7168,-651.8461 1146.1682,-617.8448 1178.4946,-558.9489 1191.7738,-532.0202"/>
<polygon fill="#191970" stroke="#191970" points="1095.3236,-652.7962 1088.3513,-660.7734 1098.7765,-658.8853 1095.3236,-652.7962"/>
</g>
<!-- Node29&#45;&gt;Node27 -->
<g id="edge14" class="edge">
<title>Node29&#45;&gt;Node27</title>
<path fill="none" stroke="#191970" d="M1085.4199,-609.0493C1091.3532,-605.8673 1097.2866,-602.4265 1102.7168,-598.8461 1133.7908,-578.3574 1166.0501,-549.0996 1184.0465,-531.9293"/>
<polygon fill="#191970" stroke="#191970" points="1083.4527,-606.1257 1076.1687,-613.8194 1086.6608,-612.3474 1083.4527,-606.1257"/>
</g>
<!-- Node30&#45;&gt;Node27 -->
<g id="edge16" class="edge">
<title>Node30&#45;&gt;Node27</title>
<path fill="none" stroke="#191970" d="M893.6715,-466.1698C909.8633,-495.7423 942.3068,-545.3437 986.6533,-565.8461 1033.4753,-587.493 1052.5205,-577.7294 1102.7168,-565.8461 1130.2089,-559.3377 1158.791,-543.6362 1177.4767,-531.9528"/>
<polygon fill="#191970" stroke="#191970" points="896.5797,-464.1823 888.8097,-456.9797 890.3922,-467.4557 896.5797,-464.1823"/>
</g>
<!-- Node32 -->
<g id="node16" class="node">
<title>Node32</title>
<g id="a_node16"><a xlink:href="$classIofx_1_1DatabaseIO.html#a8298d2d8f141676749d6e5d0abb6bcbd" xlink:title="Iofx::DatabaseIO::get\l_nodesets">
<polygon fill="#ffffff" stroke="#000000" points="989.4365,-527.8461 989.4365,-555.8461 1099.9336,-555.8461 1099.9336,-527.8461 989.4365,-527.8461"/>
<text text-anchor="start" x="997.4365" y="-543.8461" font-family="Helvetica,sans-Serif" font-size="10.00" fill="#000000">Iofx::DatabaseIO::get</text>
<text text-anchor="middle" x="1044.6851" y="-533.8461" font-family="Helvetica,sans-Serif" font-size="10.00" fill="#000000">_nodesets</text>
</a>
</g>
</g>
<!-- Node31&#45;&gt;Node32 -->
<g id="edge18" class="edge">
<title>Node31&#45;&gt;Node32</title>
<path fill="none" stroke="#191970" d="M944.3918,-414.94C946.6078,-416.4178 948.7081,-418.048 950.6533,-419.8461 985.0334,-451.6267 954.0237,-485.2707 986.6533,-518.8461 989.9766,-522.2657 993.8718,-525.1893 998.0442,-527.6863"/>
<polygon fill="#191970" stroke="#191970" points="945.8034,-411.7218 935.3556,-409.9628 942.4261,-417.8532 945.8034,-411.7218"/>
</g>
<!-- Node33 -->
<g id="node17" class="node">
<title>Node33</title>
<g id="a_node17"><a xlink:href="$classIofx_1_1DatabaseIO.html#a56ddda62eb3637cd13191ff67bbc0029" xlink:title="Iofx::DatabaseIO::get\l_edgesets">
<polygon fill="#ffffff" stroke="#000000" points="989.4365,-480.8461 989.4365,-508.8461 1099.9336,-508.8461 1099.9336,-480.8461 989.4365,-480.8461"/>
<text text-anchor="start" x="997.4365" y="-496.8461" font-family="Helvetica,sans-Serif" font-size="10.00" fill="#000000">Iofx::DatabaseIO::get</text>
<text text-anchor="middle" x="1044.6851" y="-486.8461" font-family="Helvetica,sans-Serif" font-size="10.00" fill="#000000">_edgesets</text>
</a>
</g>
</g>
<!-- Node31&#45;&gt;Node33 -->
<g id="edge20" class="edge">
<title>Node31&#45;&gt;Node33</title>
<path fill="none" stroke="#191970" d="M940.7069,-413.9677C944.1993,-415.6913 947.5496,-417.6409 950.6533,-419.8461 973.5676,-436.1268 964.6434,-454.3622 986.6533,-471.8461 990.9811,-475.284 995.8877,-478.2649 1000.9707,-480.8345"/>
<polygon fill="#191970" stroke="#191970" points="941.773,-410.6174 931.2016,-409.9128 939.0263,-417.056 941.773,-410.6174"/>
</g>
<!-- Node34 -->
<g id="node18" class="node">
<title>Node34</title>
<g id="a_node18"><a xlink:href="$classIofx_1_1DatabaseIO.html#a52bfbfd10d033b4f5e50afe18607c415" xlink:title="Iofx::DatabaseIO::get\l_facesets">
<polygon fill="#ffffff" stroke="#000000" points="989.4365,-433.8461 989.4365,-461.8461 1099.9336,-461.8461 1099.9336,-433.8461 989.4365,-433.8461"/>
<text text-anchor="start" x="997.4365" y="-449.8461" font-family="Helvetica,sans-Serif" font-size="10.00" fill="#000000">Iofx::DatabaseIO::get</text>
<text text-anchor="middle" x="1044.6851" y="-439.8461" font-family="Helvetica,sans-Serif" font-size="10.00" fill="#000000">_facesets</text>
</a>
</g>
</g>
<!-- Node31&#45;&gt;Node34 -->
<g id="edge22" class="edge">
<title>Node31&#45;&gt;Node34</title>
<path fill="none" stroke="#191970" d="M925.0103,-412.6067C933.5163,-414.9743 942.3736,-417.4668 950.6533,-419.8461 966.0419,-424.2682 982.8075,-429.2179 997.864,-433.7116"/>
<polygon fill="#191970" stroke="#191970" points="925.8134,-409.1974 915.2418,-409.8989 923.9435,-415.943 925.8134,-409.1974"/>
</g>
<!-- Node35 -->
<g id="node19" class="node">
<title>Node35</title>
<g id="a_node19"><a xlink:href="$classIofx_1_1DatabaseIO.html#a1d9816bc858a047528865240b4730071" xlink:title="Iofx::DatabaseIO::get\l_elemsets">
<polygon fill="#ffffff" stroke="#000000" points="989.4365,-386.8461 989.4365,-414.8461 1099.9336,-414.8461 1099.9336,-386.8461 989.4365,-386.8461"/>
<text text-anchor="start" x="997.4365" y="-402.8461" font-family="Helvetica,sans-Serif" font-size="10.00" fill="#000000">Iofx::DatabaseIO::get</text>
<text text-anchor="middle" x="1044.6851" y="-392.8461" font-family="Helvetica,sans-Serif" font-size="10.00" fill="#000000">_elemsets</text>
</a>
</g>
</g>
<!-- Node31&#45;&gt;Node35 -->
<g id="edge24" class="edge">
<title>Node31&#45;&gt;Node35</title>
<path fill="none" stroke="#191970" d="M959.8824,-400.8461C969.7814,-400.8461 979.7495,-400.8461 989.1984,-400.8461"/>
<polygon fill="#191970" stroke="#191970" points="959.6163,-397.3462 949.6163,-400.8461 959.6163,-404.3462 959.6163,-397.3462"/>
</g>
<!-- Node32&#45;&gt;Node27 -->
<g id="edge19" class="edge">
<title>Node32&#45;&gt;Node27</title>
<path fill="none" stroke="#191970" d="M1110.3085,-531.601C1120.137,-530.0666 1130.2162,-528.4931 1139.8843,-526.9837"/>
<polygon fill="#191970" stroke="#191970" points="1109.525,-528.1809 1100.1846,-533.1816 1110.6048,-535.0971 1109.525,-528.1809"/>
</g>
<!-- Node33&#45;&gt;Node27 -->
<g id="edge21" class="edge">
<title>Node33&#45;&gt;Node27</title>
<path fill="none" stroke="#191970" d="M1110.3085,-504.6643C1120.137,-506.1348 1130.2162,-507.6428 1139.8843,-509.0893"/>
<polygon fill="#191970" stroke="#191970" points="1110.5924,-501.1679 1100.1846,-503.1496 1109.5566,-508.0909 1110.5924,-501.1679"/>
</g>
<!-- Node34&#45;&gt;Node27 -->
<g id="edge23" class="edge">
<title>Node34&#45;&gt;Node27</title>
<path fill="none" stroke="#191970" d="M1088.9854,-465.8665C1093.6373,-467.8484 1098.2839,-469.8659 1102.7168,-471.8461 1125.6067,-482.0712 1151.1843,-494.4146 1170.1337,-503.7397"/>
<polygon fill="#191970" stroke="#191970" points="1090.0708,-462.526 1079.4962,-461.8718 1087.3547,-468.9776 1090.0708,-462.526"/>
</g>
<!-- Node35&#45;&gt;Node27 -->
<g id="edge25" class="edge">
<title>Node35&#45;&gt;Node27</title>
<path fill="none" stroke="#191970" d="M1093.5368,-419.4174C1096.7146,-421.1204 1099.8045,-422.9313 1102.7168,-424.8461 1137.1735,-447.5013 1169.9794,-483.6134 1186.7717,-503.5159"/>
<polygon fill="#191970" stroke="#191970" points="1094.9382,-416.2058 1084.4232,-414.9069 1091.8331,-422.4795 1094.9382,-416.2058"/>
</g>
<!-- Node37 -->
<g id="node21" class="node">
<title>Node37</title>
<g id="a_node21"><a xlink:href="$classIopx_1_1DatabaseIO.html#aa10c1946bf4abe12e8229d86153a934b" xlink:title="Iopx::DatabaseIO::get\l_elemblocks">
<polygon fill="#ffffff" stroke="#000000" points="988.0449,-27.8461 988.0449,-55.8461 1101.3252,-55.8461 1101.3252,-27.8461 988.0449,-27.8461"/>
<text text-anchor="start" x="996.0449" y="-43.8461" font-family="Helvetica,sans-Serif" font-size="10.00" fill="#000000">Iopx::DatabaseIO::get</text>
<text text-anchor="middle" x="1044.6851" y="-33.8461" font-family="Helvetica,sans-Serif" font-size="10.00" fill="#000000">_elemblocks</text>
</a>
</g>
</g>
<!-- Node36&#45;&gt;Node37 -->
<g id="edge27" class="edge">
<title>Node36&#45;&gt;Node37</title>
<path fill="none" stroke="#191970" d="M946.1551,-185.9802C947.7372,-184.688 949.2425,-183.3117 950.6533,-181.8461 988.3845,-142.6497 949.7286,-104.8032 986.6533,-64.8461 989.8161,-61.4236 993.5536,-58.502 997.5836,-56.0095"/>
<polygon fill="#191970" stroke="#191970" points="943.9672,-183.2361 937.6843,-191.767 947.9158,-189.0161 943.9672,-183.2361"/>
</g>
<!-- Node38 -->
<g id="node22" class="node">
<title>Node38</title>
<g id="a_node22"><a xlink:href="$classIopx_1_1DatabaseIO.html#aa5fbe815a5233885cb3491ee0de291a4" xlink:title="Iopx::DatabaseIO::read\l_meta_data__">
<polygon fill="#ffffff" stroke="#000000" points="1138.7168,-145.8461 1138.7168,-173.8461 1258.1104,-173.8461 1258.1104,-145.8461 1138.7168,-145.8461"/>
<text text-anchor="start" x="1146.7168" y="-161.8461" font-family="Helvetica,sans-Serif" font-size="10.00" fill="#000000">Iopx::DatabaseIO::read</text>
<text text-anchor="middle" x="1198.4136" y="-151.8461" font-family="Helvetica,sans-Serif" font-size="10.00" fill="#000000">_meta_data__</text>
</a>
</g>
</g>
<!-- Node37&#45;&gt;Node38 -->
<g id="edge28" class="edge">
<title>Node37&#45;&gt;Node38</title>
<path fill="none" stroke="#191970" d="M1095.2599,-60.4058C1097.8342,-61.8079 1100.3365,-63.2882 1102.7168,-64.8461 1137.9748,-87.923 1170.9623,-125.5146 1187.4411,-145.8007"/>
<polygon fill="#191970" stroke="#191970" points="1096.814,-57.2697 1086.3029,-55.9402 1093.6907,-63.5343 1096.814,-57.2697"/>
</g>
<!-- Node39&#45;&gt;Node38 -->
<g id="edge30" class="edge">
<title>Node39&#45;&gt;Node38</title>
<path fill="none" stroke="#191970" d="M891.4235,-135.1524C906.0476,-101.8261 937.8018,-42.4334 986.6533,-17.8461 1032.7302,5.3446 1057.1759,6.3802 1102.7168,-17.8461 1154.6837,-45.4909 1183.5106,-115.3178 1193.9054,-145.5392"/>
<polygon fill="#191970" stroke="#191970" points="888.1036,-134.017 887.435,-144.5907 894.5516,-136.7419 888.1036,-134.017"/>
</g>
<!-- Node41 -->
<g id="node25" class="node">
<title>Node41</title>
<g id="a_node25"><a xlink:href="$classIopx_1_1DatabaseIO.html#abf732bb3541f75a9b0c0c9f2af6399be" xlink:title="Iopx::DatabaseIO::get\l_nodesets">
<polygon fill="#ffffff" stroke="#000000" points="988.0449,-74.8461 988.0449,-102.8461 1101.3252,-102.8461 1101.3252,-74.8461 988.0449,-74.8461"/>
<text text-anchor="start" x="996.0449" y="-90.8461" font-family="Helvetica,sans-Serif" font-size="10.00" fill="#000000">Iopx::DatabaseIO::get</text>
<text text-anchor="middle" x="1044.6851" y="-80.8461" font-family="Helvetica,sans-Serif" font-size="10.00" fill="#000000">_nodesets</text>
</a>
</g>
</g>
<!-- Node40&#45;&gt;Node41 -->
<g id="edge32" class="edge">
<title>Node40&#45;&gt;Node41</title>
<path fill="none" stroke="#191970" d="M944.6408,-233.7812C946.7758,-232.2947 948.7927,-230.6549 950.6533,-228.8461 989.664,-190.923 949.7286,-151.8032 986.6533,-111.8461 989.8161,-108.4236 993.5536,-105.502 997.5836,-103.0095"/>
<polygon fill="#191970" stroke="#191970" points="942.8386,-230.7799 935.9008,-238.7873 946.3178,-236.8541 942.8386,-230.7799"/>
</g>
<!-- Node42 -->
<g id="node26" class="node">
<title>Node42</title>
<g id="a_node26"><a xlink:href="$classIopx_1_1DatabaseIO.html#a84d2d1d0a4214b47d53e3a11533598bb" xlink:title="Iopx::DatabaseIO::get\l_edgesets">
<polygon fill="#ffffff" stroke="#000000" points="988.0449,-215.8461 988.0449,-243.8461 1101.3252,-243.8461 1101.3252,-215.8461 988.0449,-215.8461"/>
<text text-anchor="start" x="996.0449" y="-231.8461" font-family="Helvetica,sans-Serif" font-size="10.00" fill="#000000">Iopx::DatabaseIO::get</text>
<text text-anchor="middle" x="1044.6851" y="-221.8461" font-family="Helvetica,sans-Serif" font-size="10.00" fill="#000000">_edgesets</text>
</a>
</g>
</g>
<!-- Node40&#45;&gt;Node42 -->
<g id="edge34" class="edge">
<title>Node40&#45;&gt;Node42</title>
<path fill="none" stroke="#191970" d="M961.1757,-239.0894C970.1972,-238.0909 979.2548,-237.0883 987.9039,-236.131"/>
<polygon fill="#191970" stroke="#191970" points="960.5833,-235.6335 951.0291,-240.2125 961.3535,-242.591 960.5833,-235.6335"/>
</g>
<!-- Node43 -->
<g id="node27" class="node">
<title>Node43</title>
<g id="a_node27"><a xlink:href="$classIopx_1_1DatabaseIO.html#a7d07698ca15aca274f7b70450a9b06cd" xlink:title="Iopx::DatabaseIO::get\l_facesets">
<polygon fill="#ffffff" stroke="#000000" points="988.0449,-168.8461 988.0449,-196.8461 1101.3252,-196.8461 1101.3252,-168.8461 988.0449,-168.8461"/>
<text text-anchor="start" x="996.0449" y="-184.8461" font-family="Helvetica,sans-Serif" font-size="10.00" fill="#000000">Iopx::DatabaseIO::get</text>
<text text-anchor="middle" x="1044.6851" y="-174.8461" font-family="Helvetica,sans-Serif" font-size="10.00" fill="#000000">_facesets</text>
</a>
</g>
</g>
<!-- Node40&#45;&gt;Node43 -->
<g id="edge36" class="edge">
<title>Node40&#45;&gt;Node43</title>
<path fill="none" stroke="#191970" d="M932.4301,-235.7668C938.6674,-233.7268 944.8764,-231.4216 950.6533,-228.8461 967.9947,-221.1149 969.7507,-214.4945 986.6533,-205.8461 992.8279,-202.6868 999.5422,-199.6696 1006.1404,-196.921"/>
<polygon fill="#191970" stroke="#191970" points="931.2017,-232.4824 922.6633,-238.7549 933.2497,-239.1761 931.2017,-232.4824"/>
</g>
<!-- Node44 -->
<g id="node28" class="node">
<title>Node44</title>
<g id="a_node28"><a xlink:href="$classIopx_1_1DatabaseIO.html#ac0b8713a8e4b212a855d2feb0cc1c82c" xlink:title="Iopx::DatabaseIO::get\l_elemsets">
<polygon fill="#ffffff" stroke="#000000" points="988.0449,-121.8461 988.0449,-149.8461 1101.3252,-149.8461 1101.3252,-121.8461 988.0449,-121.8461"/>
<text text-anchor="start" x="996.0449" y="-137.8461" font-family="Helvetica,sans-Serif" font-size="10.00" fill="#000000">Iopx::DatabaseIO::get</text>
<text text-anchor="middle" x="1044.6851" y="-127.8461" font-family="Helvetica,sans-Serif" font-size="10.00" fill="#000000">_elemsets</text>
</a>
</g>
</g>
<!-- Node40&#45;&gt;Node44 -->
<g id="edge38" class="edge">
<title>Node40&#45;&gt;Node44</title>
<path fill="none" stroke="#191970" d="M942.4766,-234.3975C945.3643,-232.7551 948.1134,-230.9127 950.6533,-228.8461 977.7899,-206.7665 960.7376,-182.3467 986.6533,-158.8461 990.4265,-155.4245 994.7703,-152.484 999.348,-149.9633"/>
<polygon fill="#191970" stroke="#191970" points="940.9503,-231.2478 933.4681,-238.749 943.995,-237.5509 940.9503,-231.2478"/>
</g>
<!-- Node41&#45;&gt;Node38 -->
<g id="edge33" class="edge">
<title>Node41&#45;&gt;Node38</title>
<path fill="none" stroke="#191970" d="M1091.0061,-106.7811C1094.9855,-108.4499 1098.9337,-110.1516 1102.7168,-111.8461 1126.4648,-122.4835 1152.8587,-135.8417 1171.9021,-145.7635"/>
<polygon fill="#191970" stroke="#191970" points="1092.3068,-103.5317 1081.727,-102.9658 1089.6447,-110.0057 1092.3068,-103.5317"/>
</g>
<!-- Node42&#45;&gt;Node38 -->
<g id="edge35" class="edge">
<title>Node42&#45;&gt;Node38</title>
<path fill="none" stroke="#191970" d="M1088.9854,-211.8257C1093.6373,-209.8438 1098.2839,-207.8263 1102.7168,-205.8461 1125.6067,-195.621 1151.1843,-183.2777 1170.1337,-173.9525"/>
<polygon fill="#191970" stroke="#191970" points="1087.3547,-208.7146 1079.4962,-215.8205 1090.0708,-215.1662 1087.3547,-208.7146"/>
</g>
<!-- Node43&#45;&gt;Node38 -->
<g id="edge37" class="edge">
<title>Node43&#45;&gt;Node38</title>
<path fill="none" stroke="#191970" d="M1111.5161,-172.8472C1120.4888,-171.5048 1129.6471,-170.1346 1138.4906,-168.8115"/>
<polygon fill="#191970" stroke="#191970" points="1110.8631,-169.4059 1101.4911,-174.3471 1111.899,-176.3288 1110.8631,-169.4059"/>
</g>
<!-- Node44&#45;&gt;Node38 -->
<g id="edge39" class="edge">
<title>Node44&#45;&gt;Node38</title>
<path fill="none" stroke="#191970" d="M1111.5161,-146.2797C1120.4888,-147.6806 1129.6471,-149.1103 1138.4906,-150.491"/>
<polygon fill="#191970" stroke="#191970" points="1111.9113,-142.7991 1101.4911,-144.7146 1110.8315,-149.7153 1111.9113,-142.7991"/>
</g>
<!-- Node45&#45;&gt;Node27 -->
<g id="edge41" class="edge">
<title>Node45&#45;&gt;Node27</title>
<path fill="none" stroke="#191970" d="M948.8139,-299.639C995.7744,-296.7085 1057.975,-300.3294 1102.7168,-330.8461 1164.6311,-373.0755 1188.8093,-468.0065 1195.939,-503.8164"/>
<polygon fill="#191970" stroke="#191970" points="948.4514,-296.1561 938.7357,-300.3818 948.966,-303.1372 948.4514,-296.1561"/>
</g>
<!-- Node45&#45;&gt;Node38 -->
<g id="edge42" class="edge">
<title>Node45&#45;&gt;Node38</title>
<path fill="none" stroke="#191970" d="M949.086,-301.0958C994.66,-293.669 1055.0915,-279.4748 1102.7168,-252.8461 1139.3167,-232.3821 1172.0002,-194.3654 1188.0093,-173.8464"/>
<polygon fill="#191970" stroke="#191970" points="948.3536,-297.6676 939.0126,-302.6672 949.4325,-304.584 948.3536,-297.6676"/>
</g>
<!-- Node46&#45;&gt;Node27 -->
<g id="edge44" class="edge">
<title>Node46&#45;&gt;Node27</title>
<path fill="none" stroke="#191970" d="M1095.6416,-372.7836C1098.1177,-374.357 1100.4945,-376.0428 1102.7168,-377.8461 1147.0685,-413.8345 1179.1564,-475.6771 1192.0975,-503.5213"/>
<polygon fill="#191970" stroke="#191970" points="1097.3487,-369.7281 1086.9199,-367.8592 1093.907,-375.8236 1097.3487,-369.7281"/>
</g>
<!-- Node46&#45;&gt;Node38 -->
<g id="edge45" class="edge">
<title>Node46&#45;&gt;Node38</title>
<path fill="none" stroke="#191970" d="M1064.0976,-332.1939C1075.5575,-319.226 1090.2199,-302.3072 1102.7168,-286.8461 1134.996,-246.9106 1170.8871,-197.964 1188.1017,-174.1822"/>
<polygon fill="#191970" stroke="#191970" points="1061.4468,-329.9079 1057.424,-339.7094 1066.681,-334.5558 1061.4468,-329.9079"/>
</g>
<!-- Node47&#45;&gt;Node25 -->
<g id="edge47" class="edge">
<title>Node47&#45;&gt;Node25</title>
<path fill="none" stroke="#191970" d="M773.1866,-326.6782C774.7027,-327.9806 776.1374,-329.3681 777.4717,-330.8461 819.3701,-377.2579 793.1657,-407.709 813.4717,-466.8461 832.5148,-522.3056 861.8298,-585.6509 875.1049,-613.4699"/>
<polygon fill="#191970" stroke="#191970" points="775.1899,-323.808 765.0165,-320.8495 771.1244,-329.5065 775.1899,-323.808"/>
</g>
<!-- Node47&#45;&gt;Node30 -->
<g id="edge48" class="edge">
<title>Node47&#45;&gt;Node30</title>
<path fill="none" stroke="#191970" d="M772.3224,-326.4208C774.1349,-327.7988 775.86,-329.2718 777.4717,-330.8461 807.9953,-360.6614 782.3965,-390.6062 813.4717,-419.8461 817.4049,-423.5471 821.952,-426.6537 826.7958,-429.2611"/>
<polygon fill="#191970" stroke="#191970" points="774.1927,-323.4622 763.8958,-320.9675 770.3896,-329.339 774.1927,-323.4622"/>
</g>
<!-- Node47&#45;&gt;Node31 -->
<g id="edge49" class="edge">
<title>Node47&#45;&gt;Node31</title>
<path fill="none" stroke="#191970" d="M764.7636,-324.8442C769.118,-326.7462 773.4078,-328.7544 777.4717,-330.8461 813.2178,-349.2452 851.6106,-377.3577 870.3791,-391.7156"/>
<polygon fill="#191970" stroke="#191970" points="765.7677,-321.471 755.1905,-320.8586 763.0772,-327.9333 765.7677,-321.471"/>
</g>
<!-- Node47&#45;&gt;Node36 -->
<g id="edge50" class="edge">
<title>Node47&#45;&gt;Node36</title>
<path fill="none" stroke="#191970" d="M736.1926,-285.7057C755.4077,-268.4395 784.5401,-244.4262 813.4717,-228.8461 819.6643,-225.5113 826.4298,-222.5349 833.2213,-219.9196"/>
<polygon fill="#191970" stroke="#191970" points="733.6159,-283.319 728.5942,-292.6482 738.3376,-288.4868 733.6159,-283.319"/>
</g>
<!-- Node47&#45;&gt;Node39 -->
<g id="edge51" class="edge">
<title>Node47&#45;&gt;Node39</title>
<path fill="none" stroke="#191970" d="M726.5007,-283.9499C743.0057,-256.0177 774.467,-209.1539 813.4717,-181.8461 818.4103,-178.3885 823.9084,-175.4189 829.5824,-172.8759"/>
<polygon fill="#191970" stroke="#191970" points="723.4522,-282.2301 721.4874,-292.6412 729.5158,-285.7277 723.4522,-282.2301"/>
</g>
<!-- Node47&#45;&gt;Node40 -->
<g id="edge52" class="edge">
<title>Node47&#45;&gt;Node40</title>
<path fill="none" stroke="#191970" d="M763.7512,-289.3517C794.1286,-278.6948 831.6901,-265.5176 856.232,-256.9079"/>
<polygon fill="#191970" stroke="#191970" points="762.4439,-286.1011 754.1664,-292.7141 764.7612,-292.7064 762.4439,-286.1011"/>
</g>
<!-- Node47&#45;&gt;Node45 -->
<g id="edge53" class="edge">
<title>Node47&#45;&gt;Node45</title>
<path fill="none" stroke="#191970" d="M782.4508,-307.6615C796.6666,-307.8306 811.4955,-308.0069 825.2355,-308.1703"/>
<polygon fill="#191970" stroke="#191970" points="782.2732,-304.1593 772.2322,-307.54 782.1899,-311.1588 782.2732,-304.1593"/>
</g>
<!-- Node49 -->
<g id="node33" class="node">
<title>Node49</title>
<g id="a_node33"><a xlink:href="$Utst__ioel_8C.html#a0ddf1224851353fc92bfbff6f499fa97" xlink:title="main">
<polygon fill="#ffffff" stroke="#000000" points="373.4287,-297.8461 373.4287,-315.8461 411.1035,-315.8461 411.1035,-297.8461 373.4287,-297.8461"/>
<text text-anchor="middle" x="392.2661" y="-303.8461" font-family="Helvetica,sans-Serif" font-size="10.00" fill="#000000">main</text>
</a>
</g>
</g>
<!-- Node48&#45;&gt;Node49 -->
<g id="edge55" class="edge">
<title>Node48&#45;&gt;Node49</title>
<path fill="none" stroke="#191970" d="M296.9716,-306.8461C323.8101,-306.8461 354.0366,-306.8461 373.1106,-306.8461"/>
<polygon fill="#191970" stroke="#191970" points="296.8817,-303.3462 286.8817,-306.8461 296.8817,-310.3462 296.8817,-303.3462"/>
</g>
</g>
</svg>
