<?xml version="1.0" encoding="UTF-8" standalone="no"?>
<!DOCTYPE svg PUBLIC "-//W3C//DTD SVG 1.1//EN"
 "http://www.w3.org/Graphics/SVG/1.1/DTD/svg11.dtd">
<!-- Generated by graphviz version 2.40.1 (20161225.0304)
 -->
<!-- Title: anonymous_namespace{Ioss_Utils::C}::define_field Pages: 1 -->
<svg width="785pt" height="312pt"
 viewBox="0.00 0.00 784.70 312.00" xmlns="http://www.w3.org/2000/svg" xmlns:xlink="http://www.w3.org/1999/xlink">
<g id="graph0" class="graph" transform="scale(1 1) rotate(0) translate(4 308)">
<title>anonymous_namespace{Ioss_Utils::C}::define_field</title>
<polygon fill="#ffffff" stroke="transparent" points="-4,4 -4,-308 780.6953,-308 780.6953,4 -4,4"/>
<!-- Node0 -->
<g id="node1" class="node">
<title>Node0</title>
<polygon fill="#bfbfbf" stroke="#000000" points="0,-213.5 0,-241.5 135.5117,-241.5 135.5117,-213.5 0,-213.5"/>
<text text-anchor="start" x="8" y="-229.5" font-family="Helvetica,sans-Serif" font-size="10.00" fill="#000000">anonymous_namespace</text>
<text text-anchor="middle" x="67.7559" y="-219.5" font-family="Helvetica,sans-Serif" font-size="10.00" fill="#000000">{Ioss_Utils::C}::define_field</text>
</g>
<!-- Node1 -->
<g id="node2" class="node">
<title>Node1</title>
<g id="a_node2"><a xlink:href="$classIoss_1_1VariableType.html#a307c17b7a8f1fcac73ed711171c59ad4" xlink:title="Ioss::VariableType\l::factory">
<polygon fill="#ffffff" stroke="#000000" points="172.9839,-234.5 172.9839,-262.5 270.5171,-262.5 270.5171,-234.5 172.9839,-234.5"/>
<text text-anchor="start" x="180.9839" y="-250.5" font-family="Helvetica,sans-Serif" font-size="10.00" fill="#000000">Ioss::VariableType</text>
<text text-anchor="middle" x="221.7505" y="-240.5" font-family="Helvetica,sans-Serif" font-size="10.00" fill="#000000">::factory</text>
</a>
</g>
</g>
<!-- Node0&#45;&gt;Node1 -->
<g id="edge1" class="edge">
<title>Node0&#45;&gt;Node1</title>
<path fill="none" stroke="#191970" d="M135.7484,-236.772C144.6668,-237.9882 153.7485,-239.2267 162.5062,-240.4209"/>
<polygon fill="#191970" stroke="#191970" points="162.2276,-243.9153 172.6089,-241.7986 163.1735,-236.9795 162.2276,-243.9153"/>
</g>
<!-- Node2 -->
<g id="node3" class="node">
<title>Node2</title>
<g id="a_node3"><a xlink:href="$namespaceanonymous__namespace_02io__info_8C_03.html#ac76aa36231a3291b803cc8e620fce319" xlink:title="anonymous_namespace\l\{io_info::C\}::name">
<polygon fill="#ffffff" stroke="#000000" points="499.5059,-264.5 499.5059,-292.5 624.4658,-292.5 624.4658,-264.5 499.5059,-264.5"/>
<text text-anchor="start" x="507.5059" y="-280.5" font-family="Helvetica,sans-Serif" font-size="10.00" fill="#000000">anonymous_namespace</text>
<text text-anchor="middle" x="561.9858" y="-270.5" font-family="Helvetica,sans-Serif" font-size="10.00" fill="#000000">{io_info::C}::name</text>
</a>
</g>
</g>
<!-- Node0&#45;&gt;Node2 -->
<g id="edge15" class="edge">
<title>Node0&#45;&gt;Node2</title>
<path fill="none" stroke="#191970" d="M92.8461,-241.6127C113.3108,-252.3163 143.3402,-266.2221 171.5117,-272.5 279.9677,-296.6689 409.5952,-292.351 488.8347,-286.1151"/>
<polygon fill="#191970" stroke="#191970" points="489.5159,-289.5711 499.1966,-285.266 488.9441,-282.5945 489.5159,-289.5711"/>
</g>
<!-- Node13 -->
<g id="node14" class="node">
<title>Node13</title>
<g id="a_node14"><a xlink:href="$classIoss_1_1Field.html#a3e948e240fb41b70a41dadad43fca52c" xlink:title="Ioss::Field::is_valid">
<polygon fill="#ffffff" stroke="#000000" points="171.5117,-197.5 171.5117,-215.5 271.9893,-215.5 271.9893,-197.5 171.5117,-197.5"/>
<text text-anchor="middle" x="221.7505" y="-203.5" font-family="Helvetica,sans-Serif" font-size="10.00" fill="#000000">Ioss::Field::is_valid</text>
</a>
</g>
</g>
<!-- Node0&#45;&gt;Node13 -->
<g id="edge16" class="edge">
<title>Node0&#45;&gt;Node13</title>
<path fill="none" stroke="#191970" d="M135.7484,-218.228C144.2261,-217.0719 152.8515,-215.8956 161.2058,-214.7564"/>
<polygon fill="#191970" stroke="#191970" points="161.7982,-218.2081 171.2336,-213.3889 160.8524,-211.2723 161.7982,-218.2081"/>
</g>
<!-- Node14 -->
<g id="node15" class="node">
<title>Node14</title>
<g id="a_node15"><a xlink:href="$Ioss__CodeTypes_8h.html#a899db82e09944496877b7f260429c5c3" xlink:title="IOSS_SCALAR">
<polygon fill="#ffffff" stroke="#000000" points="179.0142,-160.5 179.0142,-178.5 264.4868,-178.5 264.4868,-160.5 179.0142,-160.5"/>
<text text-anchor="middle" x="221.7505" y="-166.5" font-family="Helvetica,sans-Serif" font-size="10.00" fill="#000000">IOSS_SCALAR</text>
</a>
</g>
</g>
<!-- Node0&#45;&gt;Node14 -->
<g id="edge17" class="edge">
<title>Node0&#45;&gt;Node14</title>
<path fill="none" stroke="#191970" d="M105.0337,-213.4598C130.3818,-203.9128 163.6386,-191.387 188.1656,-182.1493"/>
<polygon fill="#191970" stroke="#191970" points="189.6382,-185.3347 197.7628,-178.5346 187.1709,-178.784 189.6382,-185.3347"/>
</g>
<!-- Node1&#45;&gt;Node2 -->
<g id="edge2" class="edge">
<title>Node1&#45;&gt;Node2</title>
<path fill="none" stroke="#191970" d="M270.8603,-252.8302C328.0685,-257.8745 423.1306,-266.2565 488.9895,-272.0636"/>
<polygon fill="#191970" stroke="#191970" points="489.0297,-275.5806 499.2985,-272.9726 489.6446,-268.6077 489.0297,-275.5806"/>
</g>
<!-- Node5 -->
<g id="node6" class="node">
<title>Node5</title>
<g id="a_node6"><a xlink:href="$classIoss_1_1Utils.html#a48106bb99507951b4655783fe6ceb0f8" xlink:title="Convert a string to lower case. ">
<polygon fill="#ffffff" stroke="#000000" points="325.6968,-222.5 325.6968,-240.5 435.6128,-240.5 435.6128,-222.5 325.6968,-222.5"/>
<text text-anchor="middle" x="380.6548" y="-228.5" font-family="Helvetica,sans-Serif" font-size="10.00" fill="#000000">Ioss::Utils::lowercase</text>
</a>
</g>
</g>
<!-- Node1&#45;&gt;Node5 -->
<g id="edge5" class="edge">
<title>Node1&#45;&gt;Node5</title>
<path fill="none" stroke="#191970" d="M270.7236,-243.2607C284.8013,-241.7547 300.3836,-240.0876 315.2834,-238.4936"/>
<polygon fill="#191970" stroke="#191970" points="315.8919,-241.9486 325.4628,-237.4046 315.1472,-234.9883 315.8919,-241.9486"/>
</g>
<!-- Node7 -->
<g id="node8" class="node">
<title>Node7</title>
<g id="a_node8"><a xlink:href="$classIoss_1_1CompositeVariableType.html#ad59ad4c62ba30e9df0c024c3c2beb0a2" xlink:title="Ioss::CompositeVariableType\l::composite_variable_type">
<polygon fill="#ffffff" stroke="#000000" points="307.9893,-108.5 307.9893,-136.5 453.3203,-136.5 453.3203,-108.5 307.9893,-108.5"/>
<text text-anchor="start" x="315.9893" y="-124.5" font-family="Helvetica,sans-Serif" font-size="10.00" fill="#000000">Ioss::CompositeVariableType</text>
<text text-anchor="middle" x="380.6548" y="-114.5" font-family="Helvetica,sans-Serif" font-size="10.00" fill="#000000">::composite_variable_type</text>
</a>
</g>
</g>
<!-- Node1&#45;&gt;Node7 -->
<g id="edge8" class="edge">
<title>Node1&#45;&gt;Node7</title>
<path fill="none" stroke="#191970" d="M256.3505,-234.4958C261.7493,-231.795 267.14,-228.7749 271.9893,-225.5 306.9065,-201.9188 341.1717,-166.9056 361.6117,-144.3914"/>
<polygon fill="#191970" stroke="#191970" points="364.4294,-146.4914 368.4924,-136.7065 359.2143,-141.822 364.4294,-146.4914"/>
</g>
<!-- Node3 -->
<g id="node4" class="node">
<title>Node3</title>
<g id="a_node4"><a xlink:href="$classIoss_1_1GroupingEntity.html#adf92c4256dc89b729f4492642bc4d745" xlink:title="Get the name of the particular type of entity. ">
<polygon fill="#ffffff" stroke="#000000" points="670.6514,-275.5 670.6514,-303.5 776.6953,-303.5 776.6953,-275.5 670.6514,-275.5"/>
<text text-anchor="start" x="678.6514" y="-291.5" font-family="Helvetica,sans-Serif" font-size="10.00" fill="#000000">Ioss::GroupingEntity</text>
<text text-anchor="middle" x="723.6733" y="-281.5" font-family="Helvetica,sans-Serif" font-size="10.00" fill="#000000">::type_string</text>
</a>
</g>
</g>
<!-- Node2&#45;&gt;Node3 -->
<g id="edge3" class="edge">
<title>Node2&#45;&gt;Node3</title>
<path fill="none" stroke="#191970" d="M624.4984,-282.7529C636.2515,-283.5525 648.5503,-284.3892 660.3285,-285.1905"/>
<polygon fill="#191970" stroke="#191970" points="660.3037,-288.6968 670.5182,-285.8837 660.7789,-281.713 660.3037,-288.6968"/>
</g>
<!-- Node4 -->
<g id="node5" class="node">
<title>Node4</title>
<g id="a_node5"><a xlink:href="$classIoss_1_1GroupingEntity.html#a50d4053f49c8c3205e05d939fdc9fbc5" xlink:title="Get name of entity. ">
<polygon fill="#ffffff" stroke="#000000" points="670.6514,-228.5 670.6514,-256.5 776.6953,-256.5 776.6953,-228.5 670.6514,-228.5"/>
<text text-anchor="start" x="678.6514" y="-244.5" font-family="Helvetica,sans-Serif" font-size="10.00" fill="#000000">Ioss::GroupingEntity</text>
<text text-anchor="middle" x="723.6733" y="-234.5" font-family="Helvetica,sans-Serif" font-size="10.00" fill="#000000">::name</text>
</a>
</g>
</g>
<!-- Node2&#45;&gt;Node4 -->
<g id="edge4" class="edge">
<title>Node2&#45;&gt;Node4</title>
<path fill="none" stroke="#191970" d="M624.4984,-264.5815C636.3702,-261.9382 648.7988,-259.171 660.6852,-256.5244"/>
<polygon fill="#191970" stroke="#191970" points="661.5179,-259.9248 670.5182,-254.3351 659.9966,-253.0921 661.5179,-259.9248"/>
</g>
<!-- Node5&#45;&gt;Node2 -->
<g id="edge6" class="edge">
<title>Node5&#45;&gt;Node2</title>
<path fill="none" stroke="#191970" d="M415.6172,-240.5621C438.8986,-246.5965 470.1806,-254.7046 497.8485,-261.876"/>
<polygon fill="#191970" stroke="#191970" points="497.2985,-265.349 507.8568,-264.4701 499.0549,-258.5729 497.2985,-265.349"/>
</g>
<!-- Node6 -->
<g id="node7" class="node">
<title>Node6</title>
<g id="a_node7"><a xlink:href="$namespaceanonymous__namespace_02Ioss__Utils_8C_03.html#a0a31af75815b9ec3b66f27bbb6846ac8" xlink:title="anonymous_namespace\l\{Ioss_Utils::C\}::to_lower">
<polygon fill="#ffffff" stroke="#000000" points="499.5059,-217.5 499.5059,-245.5 624.4658,-245.5 624.4658,-217.5 499.5059,-217.5"/>
<text text-anchor="start" x="507.5059" y="-233.5" font-family="Helvetica,sans-Serif" font-size="10.00" fill="#000000">anonymous_namespace</text>
<text text-anchor="middle" x="561.9858" y="-223.5" font-family="Helvetica,sans-Serif" font-size="10.00" fill="#000000">{Ioss_Utils::C}::to_lower</text>
</a>
</g>
</g>
<!-- Node5&#45;&gt;Node6 -->
<g id="edge7" class="edge">
<title>Node5&#45;&gt;Node6</title>
<path fill="none" stroke="#191970" d="M436.0454,-231.5C452.7619,-231.5 471.3738,-231.5 489.0501,-231.5"/>
<polygon fill="#191970" stroke="#191970" points="489.3281,-235.0001 499.3281,-231.5 489.328,-228.0001 489.3281,-235.0001"/>
</g>
<!-- Node8 -->
<g id="node9" class="node">
<title>Node8</title>
<g id="a_node9"><a xlink:href="$classIoss_1_1CompositeVariableType.html#aa0239bce2d6a359dcd629d878af3801f" xlink:title="Ioss::CompositeVariableType\l::composite_name">
<polygon fill="#ffffff" stroke="#000000" points="489.3203,-131.5 489.3203,-159.5 634.6514,-159.5 634.6514,-131.5 489.3203,-131.5"/>
<text text-anchor="start" x="497.3203" y="-147.5" font-family="Helvetica,sans-Serif" font-size="10.00" fill="#000000">Ioss::CompositeVariableType</text>
<text text-anchor="middle" x="561.9858" y="-137.5" font-family="Helvetica,sans-Serif" font-size="10.00" fill="#000000">::composite_name</text>
</a>
</g>
</g>
<!-- Node7&#45;&gt;Node8 -->
<g id="edge9" class="edge">
<title>Node7&#45;&gt;Node8</title>
<path fill="none" stroke="#191970" d="M453.3642,-131.7225C461.8625,-132.8004 470.58,-133.9061 479.2018,-134.9997"/>
<polygon fill="#191970" stroke="#191970" points="478.8991,-138.4893 489.2601,-136.2755 479.78,-131.5449 478.8991,-138.4893"/>
</g>
<!-- Node9 -->
<g id="node10" class="node">
<title>Node9</title>
<g id="a_node10"><a xlink:href="$classIoss_1_1VariableType.html#a737316d0f49ca1a913f9c99d3132e742" xlink:title="Ioss::VariableType\l::name">
<polygon fill="#ffffff" stroke="#000000" points="674.9067,-162.5 674.9067,-190.5 772.4399,-190.5 772.4399,-162.5 674.9067,-162.5"/>
<text text-anchor="start" x="682.9067" y="-178.5" font-family="Helvetica,sans-Serif" font-size="10.00" fill="#000000">Ioss::VariableType</text>
<text text-anchor="middle" x="723.6733" y="-168.5" font-family="Helvetica,sans-Serif" font-size="10.00" fill="#000000">::name</text>
</a>
</g>
</g>
<!-- Node7&#45;&gt;Node9 -->
<g id="edge11" class="edge">
<title>Node7&#45;&gt;Node9</title>
<path fill="none" stroke="#191970" d="M405.6386,-136.5552C427.0904,-147.8157 459.2252,-162.8004 489.3203,-169.5 547.8053,-182.5195 616.515,-182.881 664.3548,-180.8366"/>
<polygon fill="#191970" stroke="#191970" points="664.714,-184.3236 674.5361,-180.3518 664.3809,-177.3315 664.714,-184.3236"/>
</g>
<!-- Node10 -->
<g id="node11" class="node">
<title>Node10</title>
<g id="a_node11"><a xlink:href="$classIoss_1_1VariableType.html#a6321e64e0273514304ccb501dafc4c60" xlink:title="Ioss::VariableType\l::registry">
<polygon fill="#ffffff" stroke="#000000" points="513.2192,-84.5 513.2192,-112.5 610.7524,-112.5 610.7524,-84.5 513.2192,-84.5"/>
<text text-anchor="start" x="521.2192" y="-100.5" font-family="Helvetica,sans-Serif" font-size="10.00" fill="#000000">Ioss::VariableType</text>
<text text-anchor="middle" x="561.9858" y="-90.5" font-family="Helvetica,sans-Serif" font-size="10.00" fill="#000000">::registry</text>
</a>
</g>
</g>
<!-- Node7&#45;&gt;Node10 -->
<g id="edge12" class="edge">
<title>Node7&#45;&gt;Node10</title>
<path fill="none" stroke="#191970" d="M453.3642,-112.8766C469.8527,-110.6942 487.1666,-108.4027 503.0049,-106.3064"/>
<polygon fill="#191970" stroke="#191970" points="503.722,-109.7421 513.1763,-104.9602 502.8035,-102.8026 503.722,-109.7421"/>
</g>
<!-- Node11 -->
<g id="node12" class="node">
<title>Node11</title>
<g id="a_node12"><a xlink:href="$classIoss_1_1Registry.html#ae913ba0a64b603060c0b401655f56d1a" xlink:title="Ioss::Registry::find">
<polygon fill="#ffffff" stroke="#000000" points="512.8604,-47.5 512.8604,-65.5 611.1113,-65.5 611.1113,-47.5 512.8604,-47.5"/>
<text text-anchor="middle" x="561.9858" y="-53.5" font-family="Helvetica,sans-Serif" font-size="10.00" fill="#000000">Ioss::Registry::find</text>
</a>
</g>
</g>
<!-- Node7&#45;&gt;Node11 -->
<g id="edge13" class="edge">
<title>Node7&#45;&gt;Node11</title>
<path fill="none" stroke="#191970" d="M409.6933,-108.4993C431.3106,-98.4332 461.7266,-85.0128 489.3203,-75.5 496.9452,-72.8714 505.1274,-70.4038 513.1525,-68.173"/>
<polygon fill="#191970" stroke="#191970" points="514.0676,-71.5513 522.8155,-65.5743 512.2496,-64.7915 514.0676,-71.5513"/>
</g>
<!-- Node12 -->
<g id="node13" class="node">
<title>Node12</title>
<g id="a_node13"><a xlink:href="$classIoss_1_1CompositeVariableType.html#a1ecd2151d382735ac2aa66066a052793" xlink:title="Ioss::CompositeVariableType\l::CompositeVariableType">
<polygon fill="#ffffff" stroke="#000000" points="489.3203,-.5 489.3203,-28.5 634.6514,-28.5 634.6514,-.5 489.3203,-.5"/>
<text text-anchor="start" x="497.3203" y="-16.5" font-family="Helvetica,sans-Serif" font-size="10.00" fill="#000000">Ioss::CompositeVariableType</text>
<text text-anchor="middle" x="561.9858" y="-6.5" font-family="Helvetica,sans-Serif" font-size="10.00" fill="#000000">::CompositeVariableType</text>
</a>
</g>
</g>
<!-- Node7&#45;&gt;Node12 -->
<g id="edge14" class="edge">
<title>Node7&#45;&gt;Node12</title>
<path fill="none" stroke="#191970" d="M395.2711,-108.2271C415.0775,-89.5905 452.2424,-57.0476 489.3203,-37.5 492.777,-35.6776 496.4032,-33.9696 500.1138,-32.3738"/>
<polygon fill="#191970" stroke="#191970" points="501.4758,-35.5987 509.4625,-28.6372 498.8777,-29.0987 501.4758,-35.5987"/>
</g>
<!-- Node8&#45;&gt;Node9 -->
<g id="edge10" class="edge">
<title>Node8&#45;&gt;Node9</title>
<path fill="none" stroke="#191970" d="M634.7886,-159.4583C644.8667,-161.3906 655.1132,-163.3551 664.8931,-165.2302"/>
<polygon fill="#191970" stroke="#191970" points="664.4092,-168.7011 674.8894,-167.1468 665.7273,-161.8263 664.4092,-168.7011"/>
</g>
</g>
</svg>
