<?xml version="1.0" encoding="UTF-8" standalone="no"?>
<!DOCTYPE svg PUBLIC "-//W3C//DTD SVG 1.1//EN"
 "http://www.w3.org/Graphics/SVG/1.1/DTD/svg11.dtd">
<!-- Generated by graphviz version 2.40.1 (20161225.0304)
 -->
<!-- Title: anonymous_namespace{io_info::C}::set_properties Pages: 1 -->
<svg width="522pt" height="37pt"
 viewBox="0.00 0.00 521.88 37.00" xmlns="http://www.w3.org/2000/svg" xmlns:xlink="http://www.w3.org/1999/xlink">
<g id="graph0" class="graph" transform="scale(1 1) rotate(0) translate(4 33)">
<title>anonymous_namespace{io_info::C}::set_properties</title>
<polygon fill="#ffffff" stroke="transparent" points="-4,4 -4,-33 517.8799,-33 517.8799,4 -4,4"/>
<!-- Node995 -->
<g id="node1" class="node">
<title>Node995</title>
<polygon fill="#bfbfbf" stroke="#000000" points="0,-.5 0,-28.5 133.8516,-28.5 133.8516,-.5 0,-.5"/>
<text text-anchor="start" x="8" y="-16.5" font-family="Helvetica,sans-Serif" font-size="10.00" fill="#000000">anonymous_namespace</text>
<text text-anchor="middle" x="66.9258" y="-6.5" font-family="Helvetica,sans-Serif" font-size="10.00" fill="#000000">{io_info::C}::set_properties</text>
</g>
<!-- Node996 -->
<g id="node2" class="node">
<title>Node996</title>
<g id="a_node2"><a xlink:href="namespaceanonymous__namespace_02io__info_8C_03.html#a2490e4c9376ac4ca365a2eb8ae055587" target="_top" xlink:title="anonymous_namespace\l\{io_info::C\}::file_info">
<polygon fill="#ffffff" stroke="#000000" points="169.8516,-.5 169.8516,-28.5 294.8115,-28.5 294.8115,-.5 169.8516,-.5"/>
<text text-anchor="start" x="177.8516" y="-16.5" font-family="Helvetica,sans-Serif" font-size="10.00" fill="#000000">anonymous_namespace</text>
<text text-anchor="middle" x="232.3315" y="-6.5" font-family="Helvetica,sans-Serif" font-size="10.00" fill="#000000">{io_info::C}::file_info</text>
</a>
</g>
</g>
<!-- Node995&#45;&gt;Node996 -->
<g id="edge1" class="edge">
<title>Node995&#45;&gt;Node996</title>
<path fill="none" stroke="#191970" d="M144.4467,-14.5C152.894,-14.5 161.4137,-14.5 169.6513,-14.5"/>
<polygon fill="#191970" stroke="#191970" points="144.2027,-11.0001 134.2026,-14.5 144.2026,-18.0001 144.2027,-11.0001"/>
</g>
<!-- Node997 -->
<g id="node3" class="node">
<title>Node997</title>
<g id="a_node3"><a xlink:href="namespaceIoss.html#a1680b366be275d13b029af28aa2ded0b" target="_top" xlink:title="Ioss::io_info_file_info">
<polygon fill="#ffffff" stroke="#000000" points="330.8115,-5.5 330.8115,-23.5 440.2051,-23.5 440.2051,-5.5 330.8115,-5.5"/>
<text text-anchor="middle" x="385.5083" y="-11.5" font-family="Helvetica,sans-Serif" font-size="10.00" fill="#000000">Ioss::io_info_file_info</text>
</a>
</g>
</g>
<!-- Node996&#45;&gt;Node997 -->
<g id="edge2" class="edge">
<title>Node996&#45;&gt;Node997</title>
<path fill="none" stroke="#191970" d="M305.3349,-7.7566C313.7916,-7.7255 322.3067,-7.8044 330.4666,-7.9933"/>
<polygon fill="#191970" stroke="#191970" points="305.0444,-4.259 295.0764,-7.849 305.1075,-11.2587 305.0444,-4.259"/>
</g>
<!-- Node997&#45;&gt;Node996 -->
<g id="edge3" class="edge">
<title>Node997&#45;&gt;Node996</title>
<path fill="none" stroke="#191970" d="M320.365,-21.1826C311.9846,-21.282 303.4172,-21.2715 295.0764,-21.151"/>
<polygon fill="#191970" stroke="#191970" points="320.5291,-24.6803 330.4666,-21.0067 320.4072,-17.6814 320.5291,-24.6803"/>
</g>
<!-- Node998 -->
<g id="node4" class="node">
<title>Node998</title>
<g id="a_node4"><a xlink:href="io__info__main_8C.html#a0ddf1224851353fc92bfbff6f499fa97" target="_top" xlink:title="main">
<polygon fill="#ffffff" stroke="#000000" points="476.2051,-5.5 476.2051,-23.5 513.8799,-23.5 513.8799,-5.5 476.2051,-5.5"/>
<text text-anchor="middle" x="495.0425" y="-11.5" font-family="Helvetica,sans-Serif" font-size="10.00" fill="#000000">main</text>
</a>
</g>
</g>
<!-- Node997&#45;&gt;Node998 -->
<g id="edge4" class="edge">
<title>Node997&#45;&gt;Node998</title>
<path fill="none" stroke="#191970" d="M450.4512,-14.5C459.7316,-14.5 468.6079,-14.5 475.9631,-14.5"/>
<polygon fill="#191970" stroke="#191970" points="450.2754,-11.0001 440.2754,-14.5 450.2754,-18.0001 450.2754,-11.0001"/>
</g>
</g>
</svg>
