<?xml version="1.0" encoding="UTF-8" standalone="no"?>
<!DOCTYPE svg PUBLIC "-//W3C//DTD SVG 1.1//EN"
 "http://www.w3.org/Graphics/SVG/1.1/DTD/svg11.dtd">
<!-- Generated by graphviz version 2.40.1 (20161225.0304)
 -->
<!-- Title: anonymous_namespace{Ioss_Utils::C}::transfer_field_data_internal Pages: 1 -->
<svg width="573pt" height="252pt"
 viewBox="0.00 0.00 573.02 252.00" xmlns="http://www.w3.org/2000/svg" xmlns:xlink="http://www.w3.org/1999/xlink">
<g id="graph0" class="graph" transform="scale(1 1) rotate(0) translate(4 248)">
<title>anonymous_namespace{Ioss_Utils::C}::transfer_field_data_internal</title>
<polygon fill="#ffffff" stroke="transparent" points="-4,4 -4,-248 569.0225,-248 569.0225,4 -4,4"/>
<!-- Node1173 -->
<g id="node1" class="node">
<title>Node1173</title>
<polygon fill="#bfbfbf" stroke="#000000" points="0,-110.5 0,-148.5 124.96,-148.5 124.96,-110.5 0,-110.5"/>
<text text-anchor="start" x="8" y="-136.5" font-family="Helvetica,sans-Serif" font-size="10.00" fill="#000000">anonymous_namespace</text>
<text text-anchor="start" x="8" y="-126.5" font-family="Helvetica,sans-Serif" font-size="10.00" fill="#000000">{Ioss_Utils::C}::transfer</text>
<text text-anchor="middle" x="62.48" y="-116.5" font-family="Helvetica,sans-Serif" font-size="10.00" fill="#000000">_field_data_internal</text>
</g>
<!-- Node1174 -->
<g id="node2" class="node">
<title>Node1174</title>
<g id="a_node2"><a xlink:href="$classIoss_1_1GroupingEntity.html#a508cc132f3c03c54d0dfd84f567fa1b6" xlink:title="Get a field from the entity&#39;s field manager. ">
<polygon fill="#ffffff" stroke="#000000" points="160.96,-215.5 160.96,-243.5 267.0039,-243.5 267.0039,-215.5 160.96,-215.5"/>
<text text-anchor="start" x="168.96" y="-231.5" font-family="Helvetica,sans-Serif" font-size="10.00" fill="#000000">Ioss::GroupingEntity</text>
<text text-anchor="middle" x="213.9819" y="-221.5" font-family="Helvetica,sans-Serif" font-size="10.00" fill="#000000">::get_field</text>
</a>
</g>
</g>
<!-- Node1173&#45;&gt;Node1174 -->
<g id="edge1" class="edge">
<title>Node1173&#45;&gt;Node1174</title>
<path fill="none" stroke="#191970" d="M83.6168,-148.6224C102.8168,-165.34 132.4187,-189.5293 160.96,-206.5 163.4665,-207.9904 166.0872,-209.4388 168.764,-210.8355"/>
<polygon fill="#191970" stroke="#191970" points="167.4773,-214.103 177.9959,-215.3714 170.5641,-207.8203 167.4773,-214.103"/>
</g>
<!-- Node1175 -->
<g id="node3" class="node">
<title>Node1175</title>
<g id="a_node3"><a xlink:href="$classIoss_1_1Field.html#a5fefc8709124002432cf8ba943d3780b" xlink:title="Ioss::Field::get_size">
<polygon fill="#ffffff" stroke="#000000" points="161.7949,-178.5 161.7949,-196.5 266.1689,-196.5 266.1689,-178.5 161.7949,-178.5"/>
<text text-anchor="middle" x="213.9819" y="-184.5" font-family="Helvetica,sans-Serif" font-size="10.00" fill="#000000">Ioss::Field::get_size</text>
</a>
</g>
</g>
<!-- Node1173&#45;&gt;Node1175 -->
<g id="edge2" class="edge">
<title>Node1173&#45;&gt;Node1175</title>
<path fill="none" stroke="#191970" d="M107.8599,-148.5797C124.4807,-155.3961 143.4939,-162.9945 160.96,-169.5 166.0842,-171.4086 171.5165,-173.3475 176.874,-175.2112"/>
<polygon fill="#191970" stroke="#191970" points="175.7596,-178.5291 186.3542,-178.462 178.0302,-171.9075 175.7596,-178.5291"/>
</g>
<!-- Node1178 -->
<g id="node6" class="node">
<title>Node1178</title>
<g id="a_node6"><a xlink:href="$classIoss_1_1Field.html#a8abb33dcfa0630f6422e7541b36694b4" xlink:title="Get the basic data type of the data held in the field. ">
<polygon fill="#ffffff" stroke="#000000" points="161.2358,-141.5 161.2358,-159.5 266.728,-159.5 266.728,-141.5 161.2358,-141.5"/>
<text text-anchor="middle" x="213.9819" y="-147.5" font-family="Helvetica,sans-Serif" font-size="10.00" fill="#000000">Ioss::Field::get_type</text>
</a>
</g>
</g>
<!-- Node1173&#45;&gt;Node1178 -->
<g id="edge5" class="edge">
<title>Node1173&#45;&gt;Node1178</title>
<path fill="none" stroke="#191970" d="M124.9763,-138.1627C133.5297,-139.3484 142.3159,-140.5662 150.88,-141.7533"/>
<polygon fill="#191970" stroke="#191970" points="150.4185,-145.2227 160.8043,-143.1289 151.3796,-138.289 150.4185,-145.2227"/>
</g>
<!-- Node1179 -->
<g id="node7" class="node">
<title>Node1179</title>
<g id="a_node7"><a xlink:href="$classIoss_1_1GroupingEntity.html#a878ad30d29d9565bfcb108d60797ebdc" xlink:title="Get the EntityType, which indicates the particular type of GroupingEntity this is. ">
<polygon fill="#ffffff" stroke="#000000" points="160.96,-94.5 160.96,-122.5 267.0039,-122.5 267.0039,-94.5 160.96,-94.5"/>
<text text-anchor="start" x="168.96" y="-110.5" font-family="Helvetica,sans-Serif" font-size="10.00" fill="#000000">Ioss::GroupingEntity</text>
<text text-anchor="middle" x="213.9819" y="-100.5" font-family="Helvetica,sans-Serif" font-size="10.00" fill="#000000">::type</text>
</a>
</g>
</g>
<!-- Node1173&#45;&gt;Node1179 -->
<g id="edge6" class="edge">
<title>Node1173&#45;&gt;Node1179</title>
<path fill="none" stroke="#191970" d="M124.9763,-120.8373C133.5297,-119.6516 142.3159,-118.4338 150.88,-117.2467"/>
<polygon fill="#191970" stroke="#191970" points="151.3796,-120.711 160.8043,-115.8711 150.4185,-113.7773 151.3796,-120.711"/>
</g>
<!-- Node1180 -->
<g id="node8" class="node">
<title>Node1180</title>
<g id="a_node8"><a xlink:href="$classIoss_1_1GroupingEntity.html#a4969f0b3bc6d6a1c63d20d3938608728" xlink:title="Read field data from the database file into memory using a pointer. ">
<polygon fill="#ffffff" stroke="#000000" points="160.96,-47.5 160.96,-75.5 267.0039,-75.5 267.0039,-47.5 160.96,-47.5"/>
<text text-anchor="start" x="168.96" y="-63.5" font-family="Helvetica,sans-Serif" font-size="10.00" fill="#000000">Ioss::GroupingEntity</text>
<text text-anchor="middle" x="213.9819" y="-53.5" font-family="Helvetica,sans-Serif" font-size="10.00" fill="#000000">::get_field_data</text>
</a>
</g>
</g>
<!-- Node1173&#45;&gt;Node1180 -->
<g id="edge7" class="edge">
<title>Node1173&#45;&gt;Node1180</title>
<path fill="none" stroke="#191970" d="M105.0849,-110.3772C126.4878,-100.7708 152.2881,-89.1906 173.4025,-79.7136"/>
<polygon fill="#191970" stroke="#191970" points="175.0514,-82.81 182.7413,-75.522 172.185,-76.4238 175.0514,-82.81"/>
</g>
<!-- Node1182 -->
<g id="node10" class="node">
<title>Node1182</title>
<g id="a_node10"><a xlink:href="$classIoss_1_1GroupingEntity.html#a2e4800373483590f73d92721de5bb59d" xlink:title="Write field data from memory into the database file using a pointer. ">
<polygon fill="#ffffff" stroke="#000000" points="160.96,-.5 160.96,-28.5 267.0039,-28.5 267.0039,-.5 160.96,-.5"/>
<text text-anchor="start" x="168.96" y="-16.5" font-family="Helvetica,sans-Serif" font-size="10.00" fill="#000000">Ioss::GroupingEntity</text>
<text text-anchor="middle" x="213.9819" y="-6.5" font-family="Helvetica,sans-Serif" font-size="10.00" fill="#000000">::put_field_data</text>
</a>
</g>
</g>
<!-- Node1173&#45;&gt;Node1182 -->
<g id="edge9" class="edge">
<title>Node1173&#45;&gt;Node1182</title>
<path fill="none" stroke="#191970" d="M79.4,-110.176C97.8626,-89.9909 129.0666,-58.411 160.96,-37.5 163.1259,-36.0799 165.3942,-34.7123 167.722,-33.4011"/>
<polygon fill="#191970" stroke="#191970" points="169.6446,-36.3466 176.906,-28.6315 166.4183,-30.1344 169.6446,-36.3466"/>
</g>
<!-- Node1176 -->
<g id="node4" class="node">
<title>Node1176</title>
<g id="a_node4"><a xlink:href="$namespaceanonymous__namespace_02Ioss__Field_8C_03.html#a6f17c234b0f7c17fe27d6910811e43de" xlink:title="anonymous_namespace\l\{Ioss_Field::C\}::internal\l_get_size">
<polygon fill="#ffffff" stroke="#000000" points="303.0039,-168.5 303.0039,-206.5 427.9639,-206.5 427.9639,-168.5 303.0039,-168.5"/>
<text text-anchor="start" x="311.0039" y="-194.5" font-family="Helvetica,sans-Serif" font-size="10.00" fill="#000000">anonymous_namespace</text>
<text text-anchor="start" x="311.0039" y="-184.5" font-family="Helvetica,sans-Serif" font-size="10.00" fill="#000000">{Ioss_Field::C}::internal</text>
<text text-anchor="middle" x="365.4839" y="-174.5" font-family="Helvetica,sans-Serif" font-size="10.00" fill="#000000">_get_size</text>
</a>
</g>
</g>
<!-- Node1175&#45;&gt;Node1176 -->
<g id="edge3" class="edge">
<title>Node1175&#45;&gt;Node1176</title>
<path fill="none" stroke="#191970" d="M266.5448,-187.5C274.9603,-187.5 283.7983,-187.5 292.5851,-187.5"/>
<polygon fill="#191970" stroke="#191970" points="292.8482,-191.0001 302.8482,-187.5 292.8481,-184.0001 292.8482,-191.0001"/>
</g>
<!-- Node1177 -->
<g id="node5" class="node">
<title>Node1177</title>
<g id="a_node5"><a xlink:href="$classIoss_1_1VariableType.html#ad1e37f24dd5bbe9ed6bee80a93665d6c" xlink:title="Ioss::VariableType\l::component_count">
<polygon fill="#ffffff" stroke="#000000" points="463.9639,-173.5 463.9639,-201.5 565.0225,-201.5 565.0225,-173.5 463.9639,-173.5"/>
<text text-anchor="start" x="471.9639" y="-189.5" font-family="Helvetica,sans-Serif" font-size="10.00" fill="#000000">Ioss::VariableType</text>
<text text-anchor="middle" x="514.4932" y="-179.5" font-family="Helvetica,sans-Serif" font-size="10.00" fill="#000000">::component_count</text>
</a>
</g>
</g>
<!-- Node1176&#45;&gt;Node1177 -->
<g id="edge4" class="edge">
<title>Node1176&#45;&gt;Node1177</title>
<path fill="none" stroke="#191970" d="M428.2454,-187.5C436.6142,-187.5 445.1858,-187.5 453.5234,-187.5"/>
<polygon fill="#191970" stroke="#191970" points="453.5481,-191.0001 463.548,-187.5 453.548,-184.0001 453.5481,-191.0001"/>
</g>
<!-- Node1181 -->
<g id="node9" class="node">
<title>Node1181</title>
<g id="a_node9"><a xlink:href="$classIoss_1_1Field.html#acd40e32af496e75b0c416737ed0a97ec" xlink:title="Ioss::Field::transform">
<polygon fill="#ffffff" stroke="#000000" points="310.8042,-29.5 310.8042,-47.5 420.1636,-47.5 420.1636,-29.5 310.8042,-29.5"/>
<text text-anchor="middle" x="365.4839" y="-35.5" font-family="Helvetica,sans-Serif" font-size="10.00" fill="#000000">Ioss::Field::transform</text>
</a>
</g>
</g>
<!-- Node1180&#45;&gt;Node1181 -->
<g id="edge8" class="edge">
<title>Node1180&#45;&gt;Node1181</title>
<path fill="none" stroke="#191970" d="M267.3959,-53.3911C278.158,-51.7572 289.5808,-50.0231 300.683,-48.3376"/>
<polygon fill="#191970" stroke="#191970" points="301.3992,-51.7691 310.7606,-46.8077 300.3485,-44.8484 301.3992,-51.7691"/>
</g>
<!-- Node1182&#45;&gt;Node1181 -->
<g id="edge10" class="edge">
<title>Node1182&#45;&gt;Node1181</title>
<path fill="none" stroke="#191970" d="M267.3959,-22.9615C278.158,-24.6664 289.5808,-26.4759 300.683,-28.2346"/>
<polygon fill="#191970" stroke="#191970" points="300.3361,-31.7233 310.7606,-29.8311 301.4314,-24.8095 300.3361,-31.7233"/>
</g>
</g>
</svg>
