<?xml version="1.0" encoding="UTF-8" standalone="no"?>
<!DOCTYPE svg PUBLIC "-//W3C//DTD SVG 1.1//EN"
 "http://www.w3.org/Graphics/SVG/1.1/DTD/svg11.dtd">
<!-- Generated by graphviz version 2.40.1 (20161225.0304)
 -->
<!-- Title: anonymous_namespace{Ioss_SideSet::C}::id_str Pages: 1 -->
<svg width="840pt" height="453pt"
 viewBox="0.00 0.00 840.44 453.00" xmlns="http://www.w3.org/2000/svg" xmlns:xlink="http://www.w3.org/1999/xlink">
<g id="graph0" class="graph" transform="scale(1 1) rotate(0) translate(4 449)">
<title>anonymous_namespace{Ioss_SideSet::C}::id_str</title>
<polygon fill="#ffffff" stroke="transparent" points="-4,4 -4,-449 836.4404,-449 836.4404,4 -4,4"/>
<!-- Node35 -->
<g id="node1" class="node">
<title>Node35</title>
<polygon fill="#bfbfbf" stroke="#000000" points="0,-184.5 0,-212.5 124.96,-212.5 124.96,-184.5 0,-184.5"/>
<text text-anchor="start" x="8" y="-200.5" font-family="Helvetica,sans-Serif" font-size="10.00" fill="#000000">anonymous_namespace</text>
<text text-anchor="middle" x="62.48" y="-190.5" font-family="Helvetica,sans-Serif" font-size="10.00" fill="#000000">{Ioss_SideSet::C}::id_str</text>
</g>
<!-- Node36 -->
<g id="node2" class="node">
<title>Node36</title>
<g id="a_node2"><a xlink:href="$namespaceanonymous__namespace_02Ioss__SideSet_8C_03.html#a4c5797089424fffb49d3ff031d7a90e5" xlink:title="anonymous_namespace\l\{Ioss_SideSet::C\}::check\l_for_duplicate_names">
<polygon fill="#ffffff" stroke="#000000" points="160.96,-179.5 160.96,-217.5 287.0234,-217.5 287.0234,-179.5 160.96,-179.5"/>
<text text-anchor="start" x="168.96" y="-205.5" font-family="Helvetica,sans-Serif" font-size="10.00" fill="#000000">anonymous_namespace</text>
<text text-anchor="start" x="168.96" y="-195.5" font-family="Helvetica,sans-Serif" font-size="10.00" fill="#000000">{Ioss_SideSet::C}::check</text>
<text text-anchor="middle" x="223.9917" y="-185.5" font-family="Helvetica,sans-Serif" font-size="10.00" fill="#000000">_for_duplicate_names</text>
</a>
</g>
</g>
<!-- Node35&#45;&gt;Node36 -->
<g id="edge1" class="edge">
<title>Node35&#45;&gt;Node36</title>
<path fill="none" stroke="#191970" d="M135.5542,-198.5C143.9552,-198.5 152.468,-198.5 160.7247,-198.5"/>
<polygon fill="#191970" stroke="#191970" points="135.3871,-195.0001 125.3871,-198.5 135.3871,-202.0001 135.3871,-195.0001"/>
</g>
<!-- Node37 -->
<g id="node3" class="node">
<title>Node37</title>
<g id="a_node3"><a xlink:href="$classIoss_1_1SideSet.html#abeaee6e47909229b7ee51f5567255ed8" xlink:title="Ioss::SideSet::add">
<polygon fill="#ffffff" stroke="#000000" points="323.0234,-189.5 323.0234,-207.5 420.1855,-207.5 420.1855,-189.5 323.0234,-189.5"/>
<text text-anchor="middle" x="371.6045" y="-195.5" font-family="Helvetica,sans-Serif" font-size="10.00" fill="#000000">Ioss::SideSet::add</text>
</a>
</g>
</g>
<!-- Node36&#45;&gt;Node37 -->
<g id="edge2" class="edge">
<title>Node36&#45;&gt;Node37</title>
<path fill="none" stroke="#191970" d="M297.5295,-198.5C306.142,-198.5 314.7594,-198.5 322.9126,-198.5"/>
<polygon fill="#191970" stroke="#191970" points="297.4495,-195.0001 287.4495,-198.5 297.4494,-202.0001 297.4495,-195.0001"/>
</g>
<!-- Node38 -->
<g id="node4" class="node">
<title>Node38</title>
<g id="a_node4"><a xlink:href="$classIocgns_1_1DatabaseIO.html#a53d6e1283b2da2fa8f863c0eb9859141" xlink:title="Iocgns::DatabaseIO\l::create_unstructured_block">
<polygon fill="#ffffff" stroke="#000000" points="456.1855,-404.5 456.1855,-432.5 595.5889,-432.5 595.5889,-404.5 456.1855,-404.5"/>
<text text-anchor="start" x="464.1855" y="-420.5" font-family="Helvetica,sans-Serif" font-size="10.00" fill="#000000">Iocgns::DatabaseIO</text>
<text text-anchor="middle" x="525.8872" y="-410.5" font-family="Helvetica,sans-Serif" font-size="10.00" fill="#000000">::create_unstructured_block</text>
</a>
</g>
</g>
<!-- Node37&#45;&gt;Node38 -->
<g id="edge3" class="edge">
<title>Node37&#45;&gt;Node38</title>
<path fill="none" stroke="#191970" d="M377.1143,-217.4524C387.7893,-251.612 414.0197,-324.4202 456.1855,-372.5 467.6573,-385.5807 483.6896,-396.5057 497.4862,-404.4217"/>
<polygon fill="#191970" stroke="#191970" points="380.44,-216.3582 374.1945,-207.7999 373.7398,-218.385 380.44,-216.3582"/>
</g>
<!-- Node40 -->
<g id="node6" class="node">
<title>Node40</title>
<g id="a_node6"><a xlink:href="$classIocgns_1_1ParallelDatabaseIO.html#a9f182523c0d50ee8820a6d7b2ff268ff" xlink:title="Iocgns::ParallelDatabase\lIO::handle_unstructured\l_blocks">
<polygon fill="#ffffff" stroke="#000000" points="462.2988,-324.5 462.2988,-362.5 589.4756,-362.5 589.4756,-324.5 462.2988,-324.5"/>
<text text-anchor="start" x="470.2988" y="-350.5" font-family="Helvetica,sans-Serif" font-size="10.00" fill="#000000">Iocgns::ParallelDatabase</text>
<text text-anchor="start" x="470.2988" y="-340.5" font-family="Helvetica,sans-Serif" font-size="10.00" fill="#000000">IO::handle_unstructured</text>
<text text-anchor="middle" x="525.8872" y="-330.5" font-family="Helvetica,sans-Serif" font-size="10.00" fill="#000000">_blocks</text>
</a>
</g>
</g>
<!-- Node37&#45;&gt;Node40 -->
<g id="edge5" class="edge">
<title>Node37&#45;&gt;Node40</title>
<path fill="none" stroke="#191970" d="M382.7373,-216.0648C397.511,-238.3833 425.3474,-277.1628 456.1855,-303.5 465.3096,-311.2924 476.1696,-318.3634 486.5694,-324.3184"/>
<polygon fill="#191970" stroke="#191970" points="385.6166,-214.0722 377.2348,-207.5918 379.7459,-217.8848 385.6166,-214.0722"/>
</g>
<!-- Node42 -->
<g id="node8" class="node">
<title>Node42</title>
<g id="a_node8"><a xlink:href="$namespaceanonymous__namespace_02Iocgns__Utils_8C_03.html#a7cc9a7da58d1b8d94b1fb5b78e6222e6" xlink:title="anonymous_namespace\l\{Iocgns_Utils::C\}::add\l_bc_to_block">
<polygon fill="#ffffff" stroke="#000000" points="463.4072,-255.5 463.4072,-293.5 588.3672,-293.5 588.3672,-255.5 463.4072,-255.5"/>
<text text-anchor="start" x="471.4072" y="-281.5" font-family="Helvetica,sans-Serif" font-size="10.00" fill="#000000">anonymous_namespace</text>
<text text-anchor="start" x="471.4072" y="-271.5" font-family="Helvetica,sans-Serif" font-size="10.00" fill="#000000">{Iocgns_Utils::C}::add</text>
<text text-anchor="middle" x="525.8872" y="-261.5" font-family="Helvetica,sans-Serif" font-size="10.00" fill="#000000">_bc_to_block</text>
</a>
</g>
</g>
<!-- Node37&#45;&gt;Node42 -->
<g id="edge7" class="edge">
<title>Node37&#45;&gt;Node42</title>
<path fill="none" stroke="#191970" d="M394.8266,-212.8004C411.5713,-222.8326 434.8822,-236.2334 456.1855,-246.5 462.5294,-249.5572 469.2982,-252.5705 476.0306,-255.4224"/>
<polygon fill="#191970" stroke="#191970" points="396.6219,-209.7959 386.2539,-207.6148 392.9988,-215.7853 396.6219,-209.7959"/>
</g>
<!-- Node45 -->
<g id="node11" class="node">
<title>Node45</title>
<g id="a_node11"><a xlink:href="$classIofx_1_1DatabaseIO.html#a27da0e50c4bfa4895ac1693a8368ed60" xlink:title="Iofx::DatabaseIO::get\l_sidesets">
<polygon fill="#ffffff" stroke="#000000" points="470.6387,-208.5 470.6387,-236.5 581.1357,-236.5 581.1357,-208.5 470.6387,-208.5"/>
<text text-anchor="start" x="478.6387" y="-224.5" font-family="Helvetica,sans-Serif" font-size="10.00" fill="#000000">Iofx::DatabaseIO::get</text>
<text text-anchor="middle" x="525.8872" y="-214.5" font-family="Helvetica,sans-Serif" font-size="10.00" fill="#000000">_sidesets</text>
</a>
</g>
</g>
<!-- Node37&#45;&gt;Node45 -->
<g id="edge10" class="edge">
<title>Node37&#45;&gt;Node45</title>
<path fill="none" stroke="#191970" d="M430.3069,-207.6317C443.465,-209.6785 457.3833,-211.8436 470.4056,-213.8694"/>
<polygon fill="#191970" stroke="#191970" points="430.8397,-204.1725 420.4205,-206.0938 429.7637,-211.0893 430.8397,-204.1725"/>
</g>
<!-- Node47 -->
<g id="node13" class="node">
<title>Node47</title>
<g id="a_node13"><a xlink:href="$classIopx_1_1DatabaseIO.html#a8817ac53c20c2bc6d7e3285beb718268" xlink:title="Iopx::DatabaseIO::get\l_sidesets">
<polygon fill="#ffffff" stroke="#000000" points="469.2471,-161.5 469.2471,-189.5 582.5273,-189.5 582.5273,-161.5 469.2471,-161.5"/>
<text text-anchor="start" x="477.2471" y="-177.5" font-family="Helvetica,sans-Serif" font-size="10.00" fill="#000000">Iopx::DatabaseIO::get</text>
<text text-anchor="middle" x="525.8872" y="-167.5" font-family="Helvetica,sans-Serif" font-size="10.00" fill="#000000">_sidesets</text>
</a>
</g>
</g>
<!-- Node37&#45;&gt;Node47 -->
<g id="edge12" class="edge">
<title>Node37&#45;&gt;Node47</title>
<path fill="none" stroke="#191970" d="M430.4037,-189.7344C443.0744,-187.8455 456.446,-185.8521 469.0406,-183.9745"/>
<polygon fill="#191970" stroke="#191970" points="429.7951,-186.2864 420.4205,-191.2227 430.8273,-193.2098 429.7951,-186.2864"/>
</g>
<!-- Node49 -->
<g id="node15" class="node">
<title>Node49</title>
<g id="a_node15"><a xlink:href="$namespaceanonymous__namespace_02cth__pressure__map_8C_03.html#a481ab4a1fc6452c4750f7673cde285cd" xlink:title="anonymous_namespace\l\{cth_pressure_map::C\}\l::add_sideset">
<polygon fill="#ffffff" stroke="#000000" points="463.4072,-104.5 463.4072,-142.5 588.3672,-142.5 588.3672,-104.5 463.4072,-104.5"/>
<text text-anchor="start" x="471.4072" y="-130.5" font-family="Helvetica,sans-Serif" font-size="10.00" fill="#000000">anonymous_namespace</text>
<text text-anchor="start" x="471.4072" y="-120.5" font-family="Helvetica,sans-Serif" font-size="10.00" fill="#000000">{cth_pressure_map::C}</text>
<text text-anchor="middle" x="525.8872" y="-110.5" font-family="Helvetica,sans-Serif" font-size="10.00" fill="#000000">::add_sideset</text>
</a>
</g>
</g>
<!-- Node37&#45;&gt;Node49 -->
<g id="edge14" class="edge">
<title>Node37&#45;&gt;Node49</title>
<path fill="none" stroke="#191970" d="M396.3227,-184.1737C413.0033,-174.7263 435.6394,-162.3287 456.1855,-152.5 463.1613,-149.163 470.624,-145.8238 477.9786,-142.6606"/>
<polygon fill="#191970" stroke="#191970" points="394.1992,-181.3557 387.2505,-189.3536 397.6701,-187.4347 394.1992,-181.3557"/>
</g>
<!-- Node52 -->
<g id="node18" class="node">
<title>Node52</title>
<g id="a_node18"><a xlink:href="$classIopg_1_1DatabaseIO.html#a3e5db0b0f27c271faa50c1f3250dc30c" xlink:title="Iopg::DatabaseIO::get\l_sidesets">
<polygon fill="#ffffff" stroke="#000000" points="468.9663,-57.5 468.9663,-85.5 582.8081,-85.5 582.8081,-57.5 468.9663,-57.5"/>
<text text-anchor="start" x="476.9663" y="-73.5" font-family="Helvetica,sans-Serif" font-size="10.00" fill="#000000">Iopg::DatabaseIO::get</text>
<text text-anchor="middle" x="525.8872" y="-63.5" font-family="Helvetica,sans-Serif" font-size="10.00" fill="#000000">_sidesets</text>
</a>
</g>
</g>
<!-- Node37&#45;&gt;Node52 -->
<g id="edge17" class="edge">
<title>Node37&#45;&gt;Node52</title>
<path fill="none" stroke="#191970" d="M381.7857,-180.4468C395.7109,-157.3226 422.8169,-117.4941 456.1855,-94.5 461.2221,-91.0294 466.8204,-88.0516 472.5927,-85.5039"/>
<polygon fill="#191970" stroke="#191970" points="378.6722,-178.8377 376.6449,-189.2367 384.7147,-182.3716 378.6722,-178.8377"/>
</g>
<!-- Node54 -->
<g id="node20" class="node">
<title>Node54</title>
<g id="a_node20"><a xlink:href="$namespaceanonymous__namespace_02UnitTestIofxDatabaseIO_8C_03.html#a26b35e919927c75719022b90ca4b11c4" xlink:title="anonymous_namespace\l\{UnitTestIofxDatabaseIO\l::C\}::TEST">
<polygon fill="#ffffff" stroke="#000000" points="463.4072,-.5 463.4072,-38.5 588.3672,-38.5 588.3672,-.5 463.4072,-.5"/>
<text text-anchor="start" x="471.4072" y="-26.5" font-family="Helvetica,sans-Serif" font-size="10.00" fill="#000000">anonymous_namespace</text>
<text text-anchor="start" x="471.4072" y="-16.5" font-family="Helvetica,sans-Serif" font-size="10.00" fill="#000000">{UnitTestIofxDatabaseIO</text>
<text text-anchor="middle" x="525.8872" y="-6.5" font-family="Helvetica,sans-Serif" font-size="10.00" fill="#000000">::C}::TEST</text>
</a>
</g>
</g>
<!-- Node37&#45;&gt;Node54 -->
<g id="edge19" class="edge">
<title>Node37&#45;&gt;Node54</title>
<path fill="none" stroke="#191970" d="M377.5356,-179.5673C388.3162,-148.0394 413.9923,-84.5879 456.1855,-47.5 460.0055,-44.1422 464.2793,-41.1577 468.7799,-38.5106"/>
<polygon fill="#191970" stroke="#191970" points="374.1367,-178.6994 374.3409,-189.2923 380.7871,-180.8841 374.1367,-178.6994"/>
</g>
<!-- Node39 -->
<g id="node5" class="node">
<title>Node39</title>
<g id="a_node5"><a xlink:href="$classIocgns_1_1DatabaseIO.html#aefeff18c6c405f13bd79260ee41678de" xlink:title="Iocgns::DatabaseIO\l::read_meta_data__">
<polygon fill="#ffffff" stroke="#000000" points="642.4214,-416.5 642.4214,-444.5 747.9331,-444.5 747.9331,-416.5 642.4214,-416.5"/>
<text text-anchor="start" x="650.4214" y="-432.5" font-family="Helvetica,sans-Serif" font-size="10.00" fill="#000000">Iocgns::DatabaseIO</text>
<text text-anchor="middle" x="695.1772" y="-422.5" font-family="Helvetica,sans-Serif" font-size="10.00" fill="#000000">::read_meta_data__</text>
</a>
</g>
</g>
<!-- Node38&#45;&gt;Node39 -->
<g id="edge4" class="edge">
<title>Node38&#45;&gt;Node39</title>
<path fill="none" stroke="#191970" d="M606.0183,-424.18C618.3398,-425.0534 630.7892,-425.9359 642.3182,-426.7531"/>
<polygon fill="#191970" stroke="#191970" points="605.9438,-420.6661 595.7213,-423.4501 605.4488,-427.6485 605.9438,-420.6661"/>
</g>
<!-- Node41 -->
<g id="node7" class="node">
<title>Node41</title>
<g id="a_node7"><a xlink:href="$classIocgns_1_1ParallelDatabaseIO.html#ac4401b921f83ec0976dd53675e80d2c8" xlink:title="Iocgns::ParallelDatabase\lIO::read_meta_data__">
<polygon fill="#ffffff" stroke="#000000" points="631.5889,-369.5 631.5889,-397.5 758.7656,-397.5 758.7656,-369.5 631.5889,-369.5"/>
<text text-anchor="start" x="639.5889" y="-385.5" font-family="Helvetica,sans-Serif" font-size="10.00" fill="#000000">Iocgns::ParallelDatabase</text>
<text text-anchor="middle" x="695.1772" y="-375.5" font-family="Helvetica,sans-Serif" font-size="10.00" fill="#000000">IO::read_meta_data__</text>
</a>
</g>
</g>
<!-- Node40&#45;&gt;Node41 -->
<g id="edge6" class="edge">
<title>Node40&#45;&gt;Node41</title>
<path fill="none" stroke="#191970" d="M599.8932,-360.9862C611.9109,-363.8257 624.2192,-366.734 635.8285,-369.477"/>
<polygon fill="#191970" stroke="#191970" points="600.4254,-357.5156 589.8885,-358.6223 598.8157,-364.3281 600.4254,-357.5156"/>
</g>
<!-- Node43 -->
<g id="node9" class="node">
<title>Node43</title>
<g id="a_node9"><a xlink:href="$classIocgns_1_1Utils.html#aa3fc4288397f83a59236f35a8498aa75" xlink:title="Iocgns::Utils::add\l_structured_boundary\l_conditions_pio">
<polygon fill="#ffffff" stroke="#000000" points="638.5347,-312.5 638.5347,-350.5 751.8198,-350.5 751.8198,-312.5 638.5347,-312.5"/>
<text text-anchor="start" x="646.5347" y="-338.5" font-family="Helvetica,sans-Serif" font-size="10.00" fill="#000000">Iocgns::Utils::add</text>
<text text-anchor="start" x="646.5347" y="-328.5" font-family="Helvetica,sans-Serif" font-size="10.00" fill="#000000">_structured_boundary</text>
<text text-anchor="middle" x="695.1772" y="-318.5" font-family="Helvetica,sans-Serif" font-size="10.00" fill="#000000">_conditions_pio</text>
</a>
</g>
</g>
<!-- Node42&#45;&gt;Node43 -->
<g id="edge8" class="edge">
<title>Node42&#45;&gt;Node43</title>
<path fill="none" stroke="#191970" d="M592.5723,-296.9529C607.7613,-302.067 623.759,-307.4535 638.4852,-312.4118"/>
<polygon fill="#191970" stroke="#191970" points="593.3234,-293.5128 582.7293,-293.6387 591.0896,-300.1468 593.3234,-293.5128"/>
</g>
<!-- Node44 -->
<g id="node10" class="node">
<title>Node44</title>
<g id="a_node10"><a xlink:href="$classIocgns_1_1Utils.html#a3e34e5bfefa22e20d710e1dd5b33ba72" xlink:title="Iocgns::Utils::add\l_structured_boundary\l_conditions_fpp">
<polygon fill="#ffffff" stroke="#000000" points="638.5347,-255.5 638.5347,-293.5 751.8198,-293.5 751.8198,-255.5 638.5347,-255.5"/>
<text text-anchor="start" x="646.5347" y="-281.5" font-family="Helvetica,sans-Serif" font-size="10.00" fill="#000000">Iocgns::Utils::add</text>
<text text-anchor="start" x="646.5347" y="-271.5" font-family="Helvetica,sans-Serif" font-size="10.00" fill="#000000">_structured_boundary</text>
<text text-anchor="middle" x="695.1772" y="-261.5" font-family="Helvetica,sans-Serif" font-size="10.00" fill="#000000">_conditions_fpp</text>
</a>
</g>
</g>
<!-- Node42&#45;&gt;Node44 -->
<g id="edge9" class="edge">
<title>Node42&#45;&gt;Node44</title>
<path fill="none" stroke="#191970" d="M598.5549,-274.5C611.9105,-274.5 625.672,-274.5 638.4732,-274.5"/>
<polygon fill="#191970" stroke="#191970" points="598.4436,-271.0001 588.4436,-274.5 598.4436,-278.0001 598.4436,-271.0001"/>
</g>
<!-- Node46 -->
<g id="node12" class="node">
<title>Node46</title>
<g id="a_node12"><a xlink:href="$classIofx_1_1DatabaseIO.html#a79b188c0f0320a9656ad80866af72fb6" xlink:title="Iofx::DatabaseIO::read\l_meta_data__">
<polygon fill="#ffffff" stroke="#000000" points="636.8721,-208.5 636.8721,-236.5 753.4824,-236.5 753.4824,-208.5 636.8721,-208.5"/>
<text text-anchor="start" x="644.8721" y="-224.5" font-family="Helvetica,sans-Serif" font-size="10.00" fill="#000000">Iofx::DatabaseIO::read</text>
<text text-anchor="middle" x="695.1772" y="-214.5" font-family="Helvetica,sans-Serif" font-size="10.00" fill="#000000">_meta_data__</text>
</a>
</g>
</g>
<!-- Node45&#45;&gt;Node46 -->
<g id="edge11" class="edge">
<title>Node45&#45;&gt;Node46</title>
<path fill="none" stroke="#191970" d="M591.4811,-222.5C606.3866,-222.5 622.1234,-222.5 636.7098,-222.5"/>
<polygon fill="#191970" stroke="#191970" points="591.3191,-219.0001 581.3191,-222.5 591.3191,-226.0001 591.3191,-219.0001"/>
</g>
<!-- Node48 -->
<g id="node14" class="node">
<title>Node48</title>
<g id="a_node14"><a xlink:href="$classIopx_1_1DatabaseIO.html#aa5fbe815a5233885cb3491ee0de291a4" xlink:title="Iopx::DatabaseIO::read\l_meta_data__">
<polygon fill="#ffffff" stroke="#000000" points="635.4805,-161.5 635.4805,-189.5 754.874,-189.5 754.874,-161.5 635.4805,-161.5"/>
<text text-anchor="start" x="643.4805" y="-177.5" font-family="Helvetica,sans-Serif" font-size="10.00" fill="#000000">Iopx::DatabaseIO::read</text>
<text text-anchor="middle" x="695.1772" y="-167.5" font-family="Helvetica,sans-Serif" font-size="10.00" fill="#000000">_meta_data__</text>
</a>
</g>
</g>
<!-- Node47&#45;&gt;Node48 -->
<g id="edge13" class="edge">
<title>Node47&#45;&gt;Node48</title>
<path fill="none" stroke="#191970" d="M592.8021,-175.5C606.8328,-175.5 621.5439,-175.5 635.2984,-175.5"/>
<polygon fill="#191970" stroke="#191970" points="592.7293,-172.0001 582.7293,-175.5 592.7292,-179.0001 592.7293,-172.0001"/>
</g>
<!-- Node50 -->
<g id="node16" class="node">
<title>Node50</title>
<g id="a_node16"><a xlink:href="$namespaceanonymous__namespace_02cth__pressure__map_8C_03.html#ab6e9f3bfe09634b75a519699fffef694" xlink:title="anonymous_namespace\l\{cth_pressure_map::C\}\l::file_copy">
<polygon fill="#ffffff" stroke="#000000" points="632.6973,-104.5 632.6973,-142.5 757.6572,-142.5 757.6572,-104.5 632.6973,-104.5"/>
<text text-anchor="start" x="640.6973" y="-130.5" font-family="Helvetica,sans-Serif" font-size="10.00" fill="#000000">anonymous_namespace</text>
<text text-anchor="start" x="640.6973" y="-120.5" font-family="Helvetica,sans-Serif" font-size="10.00" fill="#000000">{cth_pressure_map::C}</text>
<text text-anchor="middle" x="695.1772" y="-110.5" font-family="Helvetica,sans-Serif" font-size="10.00" fill="#000000">::file_copy</text>
</a>
</g>
</g>
<!-- Node49&#45;&gt;Node50 -->
<g id="edge15" class="edge">
<title>Node49&#45;&gt;Node50</title>
<path fill="none" stroke="#191970" d="M598.7039,-123.5C609.9896,-123.5 621.5614,-123.5 632.5955,-123.5"/>
<polygon fill="#191970" stroke="#191970" points="598.4436,-120.0001 588.4436,-123.5 598.4436,-127.0001 598.4436,-120.0001"/>
</g>
<!-- Node51 -->
<g id="node17" class="node">
<title>Node51</title>
<g id="a_node17"><a xlink:href="$cth__pressure__map_8C.html#a0ddf1224851353fc92bfbff6f499fa97" xlink:title="main">
<polygon fill="#ffffff" stroke="#000000" points="794.7656,-114.5 794.7656,-132.5 832.4404,-132.5 832.4404,-114.5 794.7656,-114.5"/>
<text text-anchor="middle" x="813.603" y="-120.5" font-family="Helvetica,sans-Serif" font-size="10.00" fill="#000000">main</text>
</a>
</g>
</g>
<!-- Node50&#45;&gt;Node51 -->
<g id="edge16" class="edge">
<title>Node50&#45;&gt;Node51</title>
<path fill="none" stroke="#191970" d="M768.0635,-123.5C777.7228,-123.5 786.8687,-123.5 794.3948,-123.5"/>
<polygon fill="#191970" stroke="#191970" points="767.8579,-120.0001 757.8579,-123.5 767.8578,-127.0001 767.8579,-120.0001"/>
</g>
<!-- Node53 -->
<g id="node19" class="node">
<title>Node53</title>
<g id="a_node19"><a xlink:href="$classIopg_1_1DatabaseIO.html#a375a536391f7a2c94d0dfd5beccbc284" xlink:title="Iopg::DatabaseIO::read\l_meta_data__">
<polygon fill="#ffffff" stroke="#000000" points="635.1997,-57.5 635.1997,-85.5 755.1548,-85.5 755.1548,-57.5 635.1997,-57.5"/>
<text text-anchor="start" x="643.1997" y="-73.5" font-family="Helvetica,sans-Serif" font-size="10.00" fill="#000000">Iopg::DatabaseIO::read</text>
<text text-anchor="middle" x="695.1772" y="-63.5" font-family="Helvetica,sans-Serif" font-size="10.00" fill="#000000">_meta_data__</text>
</a>
</g>
</g>
<!-- Node52&#45;&gt;Node53 -->
<g id="edge18" class="edge">
<title>Node52&#45;&gt;Node53</title>
<path fill="none" stroke="#191970" d="M593.5433,-71.5C607.2588,-71.5 621.595,-71.5 635.0302,-71.5"/>
<polygon fill="#191970" stroke="#191970" points="593.2011,-68.0001 583.2011,-71.5 593.2011,-75.0001 593.2011,-68.0001"/>
</g>
</g>
</svg>
