<?xml version="1.0" encoding="UTF-8" standalone="no"?>
<!DOCTYPE svg PUBLIC "-//W3C//DTD SVG 1.1//EN"
 "http://www.w3.org/Graphics/SVG/1.1/DTD/svg11.dtd">
<!-- Generated by graphviz version 2.40.1 (20161225.0304)
 -->
<!-- Title: anonymous_namespace{Iocgns_StructuredZoneData::C}::zgc_subset_ranges Pages: 1 -->
<svg width="827pt" height="409pt"
 viewBox="0.00 0.00 827.36 409.23" xmlns="http://www.w3.org/2000/svg" xmlns:xlink="http://www.w3.org/1999/xlink">
<g id="graph0" class="graph" transform="scale(1 1) rotate(0) translate(4 405.2261)">
<title>anonymous_namespace{Iocgns_StructuredZoneData::C}::zgc_subset_ranges</title>
<polygon fill="#ffffff" stroke="transparent" points="-4,4 -4,-405.2261 823.3564,-405.2261 823.3564,4 -4,4"/>
<!-- Node58 -->
<g id="node1" class="node">
<title>Node58</title>
<polygon fill="#bfbfbf" stroke="#000000" points="0,-191.7261 0,-229.7261 144.4131,-229.7261 144.4131,-191.7261 0,-191.7261"/>
<text text-anchor="start" x="8" y="-217.7261" font-family="Helvetica,sans-Serif" font-size="10.00" fill="#000000">anonymous_namespace</text>
<text text-anchor="start" x="8" y="-207.7261" font-family="Helvetica,sans-Serif" font-size="10.00" fill="#000000">{Iocgns_StructuredZoneData</text>
<text text-anchor="middle" x="72.2065" y="-197.7261" font-family="Helvetica,sans-Serif" font-size="10.00" fill="#000000">::C}::zgc_subset_ranges</text>
</g>
<!-- Node59 -->
<g id="node2" class="node">
<title>Node59</title>
<g id="a_node2"><a xlink:href="$namespaceanonymous__namespace_02Iocgns__StructuredZoneData_8C_03.html#a2d2330e7c48ba954736288978efdecfc" xlink:title="anonymous_namespace\l\{Iocgns_StructuredZoneData\l::C\}::zgc_overlaps">
<polygon fill="#ffffff" stroke="#000000" points="180.4131,-362.7261 180.4131,-400.7261 324.8262,-400.7261 324.8262,-362.7261 180.4131,-362.7261"/>
<text text-anchor="start" x="188.4131" y="-388.7261" font-family="Helvetica,sans-Serif" font-size="10.00" fill="#000000">anonymous_namespace</text>
<text text-anchor="start" x="188.4131" y="-378.7261" font-family="Helvetica,sans-Serif" font-size="10.00" fill="#000000">{Iocgns_StructuredZoneData</text>
<text text-anchor="middle" x="252.6196" y="-368.7261" font-family="Helvetica,sans-Serif" font-size="10.00" fill="#000000">::C}::zgc_overlaps</text>
</a>
</g>
</g>
<!-- Node58&#45;&gt;Node59 -->
<g id="edge1" class="edge">
<title>Node58&#45;&gt;Node59</title>
<path fill="none" stroke="#191970" d="M82.2191,-230.1093C98.793,-260.4419 134.6879,-319.2191 180.4131,-353.7261 182.2007,-355.0751 184.0613,-356.3671 185.9779,-357.6038"/>
<polygon fill="#191970" stroke="#191970" points="184.2845,-360.6678 194.6871,-362.6772 187.808,-354.6193 184.2845,-360.6678"/>
</g>
<!-- Node61 -->
<g id="node4" class="node">
<title>Node61</title>
<g id="a_node4"><a xlink:href="$namespaceanonymous__namespace_02Iocgns__StructuredZoneData_8C_03.html#a7a974986e2d63392401e72e1726d8c4c" xlink:title="anonymous_namespace\l\{Iocgns_StructuredZoneData\l::C\}::subset_range">
<polygon fill="#ffffff" stroke="#000000" points="180.4131,-305.7261 180.4131,-343.7261 324.8262,-343.7261 324.8262,-305.7261 180.4131,-305.7261"/>
<text text-anchor="start" x="188.4131" y="-331.7261" font-family="Helvetica,sans-Serif" font-size="10.00" fill="#000000">anonymous_namespace</text>
<text text-anchor="start" x="188.4131" y="-321.7261" font-family="Helvetica,sans-Serif" font-size="10.00" fill="#000000">{Iocgns_StructuredZoneData</text>
<text text-anchor="middle" x="252.6196" y="-311.7261" font-family="Helvetica,sans-Serif" font-size="10.00" fill="#000000">::C}::subset_range</text>
</a>
</g>
</g>
<!-- Node58&#45;&gt;Node61 -->
<g id="edge3" class="edge">
<title>Node58&#45;&gt;Node61</title>
<path fill="none" stroke="#191970" d="M92.3931,-229.8784C113.1659,-248.8059 147.1078,-277.6242 180.4131,-296.7261 183.2123,-298.3315 186.1212,-299.882 189.0948,-301.3738"/>
<polygon fill="#191970" stroke="#191970" points="187.6283,-304.5519 198.164,-305.6691 190.6245,-298.2255 187.6283,-304.5519"/>
</g>
<!-- Node62 -->
<g id="node5" class="node">
<title>Node62</title>
<g id="a_node5"><a xlink:href="$structanonymous__namespace_02Iocgns__StructuredZoneData_8C_03_1_1Range.html#ae125793617d8a11803bb8c366351213f" xlink:title="anonymous_namespace\l\{Iocgns_StructuredZoneData\l::C\}::Range::begin">
<polygon fill="#ffffff" stroke="#000000" points="180.4131,-248.7261 180.4131,-286.7261 324.8262,-286.7261 324.8262,-248.7261 180.4131,-248.7261"/>
<text text-anchor="start" x="188.4131" y="-274.7261" font-family="Helvetica,sans-Serif" font-size="10.00" fill="#000000">anonymous_namespace</text>
<text text-anchor="start" x="188.4131" y="-264.7261" font-family="Helvetica,sans-Serif" font-size="10.00" fill="#000000">{Iocgns_StructuredZoneData</text>
<text text-anchor="middle" x="252.6196" y="-254.7261" font-family="Helvetica,sans-Serif" font-size="10.00" fill="#000000">::C}::Range::begin</text>
</a>
</g>
</g>
<!-- Node58&#45;&gt;Node62 -->
<g id="edge4" class="edge">
<title>Node58&#45;&gt;Node62</title>
<path fill="none" stroke="#191970" d="M132.5323,-229.7855C148.6308,-234.8717 166.1607,-240.4101 182.7265,-245.6439"/>
<polygon fill="#191970" stroke="#191970" points="181.7608,-249.0093 192.3507,-248.6846 183.8697,-242.3345 181.7608,-249.0093"/>
</g>
<!-- Node63 -->
<g id="node6" class="node">
<title>Node63</title>
<g id="a_node6"><a xlink:href="$structanonymous__namespace_02Iocgns__StructuredZoneData_8C_03_1_1Range.html#a12d597d67c2911cfa66b51d7733505c2" xlink:title="anonymous_namespace\l\{Iocgns_StructuredZoneData\l::C\}::Range::end">
<polygon fill="#ffffff" stroke="#000000" points="180.4131,-191.7261 180.4131,-229.7261 324.8262,-229.7261 324.8262,-191.7261 180.4131,-191.7261"/>
<text text-anchor="start" x="188.4131" y="-217.7261" font-family="Helvetica,sans-Serif" font-size="10.00" fill="#000000">anonymous_namespace</text>
<text text-anchor="start" x="188.4131" y="-207.7261" font-family="Helvetica,sans-Serif" font-size="10.00" fill="#000000">{Iocgns_StructuredZoneData</text>
<text text-anchor="middle" x="252.6196" y="-197.7261" font-family="Helvetica,sans-Serif" font-size="10.00" fill="#000000">::C}::Range::end</text>
</a>
</g>
</g>
<!-- Node58&#45;&gt;Node63 -->
<g id="edge5" class="edge">
<title>Node58&#45;&gt;Node63</title>
<path fill="none" stroke="#191970" d="M144.5479,-210.7261C153.0032,-210.7261 161.6766,-210.7261 170.2546,-210.7261"/>
<polygon fill="#191970" stroke="#191970" points="170.2621,-214.2262 180.262,-210.7261 170.262,-207.2262 170.2621,-214.2262"/>
</g>
<!-- Node64 -->
<g id="node7" class="node">
<title>Node64</title>
<g id="a_node7"><a xlink:href="$structIoss_1_1ZoneConnectivity.html#a9df1e293d1477cffb01844dfe59d0565" xlink:title="Ioss::ZoneConnectivity\l::transform">
<polygon fill="#ffffff" stroke="#000000" points="374.4541,-157.7261 374.4541,-185.7261 491.6113,-185.7261 491.6113,-157.7261 374.4541,-157.7261"/>
<text text-anchor="start" x="382.4541" y="-173.7261" font-family="Helvetica,sans-Serif" font-size="10.00" fill="#000000">Ioss::ZoneConnectivity</text>
<text text-anchor="middle" x="433.0327" y="-163.7261" font-family="Helvetica,sans-Serif" font-size="10.00" fill="#000000">::transform</text>
</a>
</g>
</g>
<!-- Node58&#45;&gt;Node64 -->
<g id="edge6" class="edge">
<title>Node58&#45;&gt;Node64</title>
<path fill="none" stroke="#191970" d="M136.6943,-191.6823C150.9755,-188.1275 166.1155,-184.863 180.4131,-182.7261 242.0517,-173.5135 313.0167,-171.1359 364.0072,-170.8457"/>
<polygon fill="#191970" stroke="#191970" points="364.2629,-174.345 374.2519,-170.8138 364.2411,-167.345 364.2629,-174.345"/>
</g>
<!-- Node68 -->
<g id="node11" class="node">
<title>Node68</title>
<g id="a_node11"><a xlink:href="$structIoss_1_1ZoneConnectivity.html#ab35a8f3c0aa1cb7d0dac884ac844b190" xlink:title="Ioss::ZoneConnectivity\l::is_valid">
<polygon fill="#ffffff" stroke="#000000" points="194.041,-105.7261 194.041,-133.7261 311.1982,-133.7261 311.1982,-105.7261 194.041,-105.7261"/>
<text text-anchor="start" x="202.041" y="-121.7261" font-family="Helvetica,sans-Serif" font-size="10.00" fill="#000000">Ioss::ZoneConnectivity</text>
<text text-anchor="middle" x="252.6196" y="-111.7261" font-family="Helvetica,sans-Serif" font-size="10.00" fill="#000000">::is_valid</text>
</a>
</g>
</g>
<!-- Node58&#45;&gt;Node68 -->
<g id="edge10" class="edge">
<title>Node58&#45;&gt;Node68</title>
<path fill="none" stroke="#191970" d="M102.8433,-191.6541C124.1807,-178.7509 153.5235,-161.7521 180.4131,-148.7261 188.3631,-144.8749 196.9629,-141.099 205.3618,-137.6113"/>
<polygon fill="#191970" stroke="#191970" points="206.7695,-140.8172 214.7138,-133.8072 204.132,-134.3331 206.7695,-140.8172"/>
</g>
<!-- Node71 -->
<g id="node14" class="node">
<title>Node71</title>
<g id="a_node14"><a xlink:href="$structIoss_1_1ZoneConnectivity.html#a40c5f8aa682e677f9f735978cfafb965" xlink:title="Ioss::ZoneConnectivity\l::has_faces">
<polygon fill="#ffffff" stroke="#000000" points="194.041,-58.7261 194.041,-86.7261 311.1982,-86.7261 311.1982,-58.7261 194.041,-58.7261"/>
<text text-anchor="start" x="202.041" y="-74.7261" font-family="Helvetica,sans-Serif" font-size="10.00" fill="#000000">Ioss::ZoneConnectivity</text>
<text text-anchor="middle" x="252.6196" y="-64.7261" font-family="Helvetica,sans-Serif" font-size="10.00" fill="#000000">::has_faces</text>
</a>
</g>
</g>
<!-- Node58&#45;&gt;Node71 -->
<g id="edge16" class="edge">
<title>Node58&#45;&gt;Node71</title>
<path fill="none" stroke="#191970" d="M85.7458,-191.403C104.3446,-166.2081 140.1112,-122.3415 180.4131,-96.7261 183.7055,-94.6335 187.1991,-92.7043 190.8038,-90.9287"/>
<polygon fill="#191970" stroke="#191970" points="192.2525,-94.1149 199.9413,-86.8256 189.385,-87.7291 192.2525,-94.1149"/>
</g>
<!-- Node60 -->
<g id="node3" class="node">
<title>Node60</title>
<g id="a_node3"><a xlink:href="$namespaceanonymous__namespace_02Iocgns__StructuredZoneData_8C_03.html#a283239da311b91306f5c9eb73cc3c9e2" xlink:title="anonymous_namespace\l\{Iocgns_StructuredZoneData\l::C\}::overlaps">
<polygon fill="#ffffff" stroke="#000000" points="360.8262,-362.7261 360.8262,-400.7261 505.2393,-400.7261 505.2393,-362.7261 360.8262,-362.7261"/>
<text text-anchor="start" x="368.8262" y="-388.7261" font-family="Helvetica,sans-Serif" font-size="10.00" fill="#000000">anonymous_namespace</text>
<text text-anchor="start" x="368.8262" y="-378.7261" font-family="Helvetica,sans-Serif" font-size="10.00" fill="#000000">{Iocgns_StructuredZoneData</text>
<text text-anchor="middle" x="433.0327" y="-368.7261" font-family="Helvetica,sans-Serif" font-size="10.00" fill="#000000">::C}::overlaps</text>
</a>
</g>
</g>
<!-- Node59&#45;&gt;Node60 -->
<g id="edge2" class="edge">
<title>Node59&#45;&gt;Node60</title>
<path fill="none" stroke="#191970" d="M324.961,-381.7261C333.4162,-381.7261 342.0896,-381.7261 350.6677,-381.7261"/>
<polygon fill="#191970" stroke="#191970" points="350.6752,-385.2262 360.6751,-381.7261 350.6751,-378.2262 350.6752,-385.2262"/>
</g>
<!-- Node65 -->
<g id="node8" class="node">
<title>Node65</title>
<g id="a_node8"><a xlink:href="$structIoss_1_1ZoneConnectivity.html#aaac247ab4518817bfd64deb1e5e4873e" xlink:title="Ioss::ZoneConnectivity\l::transform_matrix">
<polygon fill="#ffffff" stroke="#000000" points="541.2393,-60.7261 541.2393,-88.7261 658.3965,-88.7261 658.3965,-60.7261 541.2393,-60.7261"/>
<text text-anchor="start" x="549.2393" y="-76.7261" font-family="Helvetica,sans-Serif" font-size="10.00" fill="#000000">Ioss::ZoneConnectivity</text>
<text text-anchor="middle" x="599.8179" y="-66.7261" font-family="Helvetica,sans-Serif" font-size="10.00" fill="#000000">::transform_matrix</text>
</a>
</g>
</g>
<!-- Node64&#45;&gt;Node65 -->
<g id="edge7" class="edge">
<title>Node64&#45;&gt;Node65</title>
<path fill="none" stroke="#191970" d="M484.8407,-157.7074C491.86,-155.0967 498.8416,-152.1069 505.2393,-148.7261 532.2538,-134.4502 559.3343,-112.2674 577.5517,-95.9095"/>
<polygon fill="#191970" stroke="#191970" points="580.2497,-98.1849 585.2661,-88.8529 575.5251,-93.0198 580.2497,-98.1849"/>
</g>
<!-- Node66 -->
<g id="node9" class="node">
<title>Node66</title>
<g id="a_node9"><a xlink:href="$namespaceanonymous__namespace_02Ioss__ZoneConnectivity_8C_03.html#ac9f1a485619214c244f6f4d4b0f22db9" xlink:title="anonymous_namespace\l\{Ioss_ZoneConnectivity\l::C\}::sign">
<polygon fill="#ffffff" stroke="#000000" points="694.3965,-5.7261 694.3965,-43.7261 819.3564,-43.7261 819.3564,-5.7261 694.3965,-5.7261"/>
<text text-anchor="start" x="702.3965" y="-31.7261" font-family="Helvetica,sans-Serif" font-size="10.00" fill="#000000">anonymous_namespace</text>
<text text-anchor="start" x="702.3965" y="-21.7261" font-family="Helvetica,sans-Serif" font-size="10.00" fill="#000000">{Ioss_ZoneConnectivity</text>
<text text-anchor="middle" x="756.8765" y="-11.7261" font-family="Helvetica,sans-Serif" font-size="10.00" fill="#000000">::C}::sign</text>
</a>
</g>
</g>
<!-- Node65&#45;&gt;Node66 -->
<g id="edge8" class="edge">
<title>Node65&#45;&gt;Node66</title>
<path fill="none" stroke="#191970" d="M643.9854,-60.6652C657.4568,-56.3766 672.6086,-51.553 687.3334,-46.8653"/>
<polygon fill="#191970" stroke="#191970" points="688.459,-50.1801 696.9261,-43.8114 686.3355,-43.5099 688.459,-50.1801"/>
</g>
<!-- Node67 -->
<g id="node10" class="node">
<title>Node67</title>
<g id="a_node10"><a xlink:href="$namespaceanonymous__namespace_02Ioss__ZoneConnectivity_8C_03.html#a5b8cd6b3fee1a6469af9b8e91c886ea6" xlink:title="anonymous_namespace\l\{Ioss_ZoneConnectivity\l::C\}::del">
<polygon fill="#ffffff" stroke="#000000" points="694.3965,-62.7261 694.3965,-100.7261 819.3564,-100.7261 819.3564,-62.7261 694.3965,-62.7261"/>
<text text-anchor="start" x="702.3965" y="-88.7261" font-family="Helvetica,sans-Serif" font-size="10.00" fill="#000000">anonymous_namespace</text>
<text text-anchor="start" x="702.3965" y="-78.7261" font-family="Helvetica,sans-Serif" font-size="10.00" fill="#000000">{Ioss_ZoneConnectivity</text>
<text text-anchor="middle" x="756.8765" y="-68.7261" font-family="Helvetica,sans-Serif" font-size="10.00" fill="#000000">::C}::del</text>
</a>
</g>
</g>
<!-- Node65&#45;&gt;Node67 -->
<g id="edge9" class="edge">
<title>Node65&#45;&gt;Node67</title>
<path fill="none" stroke="#191970" d="M658.7475,-77.3525C666.9779,-77.7193 675.515,-78.0998 683.965,-78.4765"/>
<polygon fill="#191970" stroke="#191970" points="684.0564,-81.9839 694.2024,-78.9327 684.3682,-74.9909 684.0564,-81.9839"/>
</g>
<!-- Node68&#45;&gt;Node64 -->
<g id="edge13" class="edge">
<title>Node68&#45;&gt;Node64</title>
<path fill="none" stroke="#191970" d="M301.442,-133.798C323.9046,-140.2723 350.7381,-148.0065 374.2973,-154.7969"/>
<polygon fill="#191970" stroke="#191970" points="373.5931,-158.2364 384.1713,-157.6429 375.5318,-151.5102 373.5931,-158.2364"/>
</g>
<!-- Node68&#45;&gt;Node66 -->
<g id="edge11" class="edge">
<title>Node68&#45;&gt;Node66</title>
<path fill="none" stroke="#191970" d="M309.5848,-105.6128C314.9846,-103.1067 320.172,-100.1683 324.8262,-96.7261 347.4258,-80.0114 336.2647,-58.3956 360.8262,-44.7261 461.8446,11.4951 600.7464,2.5649 684.3667,-10.2347"/>
<polygon fill="#191970" stroke="#191970" points="683.8586,-13.6978 694.284,-11.8107 684.9572,-6.7846 683.8586,-13.6978"/>
</g>
<!-- Node69 -->
<g id="node12" class="node">
<title>Node69</title>
<g id="a_node12"><a xlink:href="$namespaceanonymous__namespace_02Ioss__ZoneConnectivity_8C_03.html#a14cceeba0c349c1043fca16ef139525b" xlink:title="anonymous_namespace\l\{Ioss_ZoneConnectivity\l::C\}::valid_range">
<polygon fill="#ffffff" stroke="#000000" points="370.5527,-100.7261 370.5527,-138.7261 495.5127,-138.7261 495.5127,-100.7261 370.5527,-100.7261"/>
<text text-anchor="start" x="378.5527" y="-126.7261" font-family="Helvetica,sans-Serif" font-size="10.00" fill="#000000">anonymous_namespace</text>
<text text-anchor="start" x="378.5527" y="-116.7261" font-family="Helvetica,sans-Serif" font-size="10.00" fill="#000000">{Ioss_ZoneConnectivity</text>
<text text-anchor="middle" x="433.0327" y="-106.7261" font-family="Helvetica,sans-Serif" font-size="10.00" fill="#000000">::C}::valid_range</text>
</a>
</g>
</g>
<!-- Node68&#45;&gt;Node69 -->
<g id="edge12" class="edge">
<title>Node68&#45;&gt;Node69</title>
<path fill="none" stroke="#191970" d="M311.6936,-119.7261C327.1205,-119.7261 343.9321,-119.7261 359.9901,-119.7261"/>
<polygon fill="#191970" stroke="#191970" points="360.4117,-123.2262 370.4116,-119.7261 360.4116,-116.2262 360.4117,-123.2262"/>
</g>
<!-- Node70 -->
<g id="node13" class="node">
<title>Node70</title>
<g id="a_node13"><a xlink:href="$structIoss_1_1ZoneConnectivity.html#add4d3bbf265f6801644e9ee6a5fb2eb4" xlink:title="Ioss::ZoneConnectivity\l::inverse_transform">
<polygon fill="#ffffff" stroke="#000000" points="374.4541,-53.7261 374.4541,-81.7261 491.6113,-81.7261 491.6113,-53.7261 374.4541,-53.7261"/>
<text text-anchor="start" x="382.4541" y="-69.7261" font-family="Helvetica,sans-Serif" font-size="10.00" fill="#000000">Ioss::ZoneConnectivity</text>
<text text-anchor="middle" x="433.0327" y="-59.7261" font-family="Helvetica,sans-Serif" font-size="10.00" fill="#000000">::inverse_transform</text>
</a>
</g>
</g>
<!-- Node68&#45;&gt;Node70 -->
<g id="edge14" class="edge">
<title>Node68&#45;&gt;Node70</title>
<path fill="none" stroke="#191970" d="M301.442,-105.6541C323.9046,-99.1798 350.7381,-91.4456 374.2973,-84.6552"/>
<polygon fill="#191970" stroke="#191970" points="375.5318,-87.942 384.1713,-81.8093 373.5931,-81.2158 375.5318,-87.942"/>
</g>
<!-- Node70&#45;&gt;Node65 -->
<g id="edge15" class="edge">
<title>Node70&#45;&gt;Node65</title>
<path fill="none" stroke="#191970" d="M491.8349,-70.194C504.4154,-70.722 517.8159,-71.2844 530.7432,-71.827"/>
<polygon fill="#191970" stroke="#191970" points="530.8465,-75.3343 540.9845,-72.2568 531.1401,-68.3405 530.8465,-75.3343"/>
</g>
</g>
</svg>
