<?xml version="1.0" encoding="UTF-8" standalone="no"?>
<!DOCTYPE svg PUBLIC "-//W3C//DTD SVG 1.1//EN"
 "http://www.w3.org/Graphics/SVG/1.1/DTD/svg11.dtd">
<!-- Generated by graphviz version 2.40.1 (20161225.0304)
 -->
<!-- Title: anonymous_namespace{Ioss_FaceGenerator::C}::resolve_parallel_faces Pages: 1 -->
<svg width="804pt" height="356pt"
 viewBox="0.00 0.00 803.99 356.00" xmlns="http://www.w3.org/2000/svg" xmlns:xlink="http://www.w3.org/1999/xlink">
<g id="graph0" class="graph" transform="scale(1 1) rotate(0) translate(4 352)">
<title>anonymous_namespace{Ioss_FaceGenerator::C}::resolve_parallel_faces</title>
<polygon fill="#ffffff" stroke="transparent" points="-4,4 -4,-352 799.9873,-352 799.9873,4 -4,4"/>
<!-- Node31 -->
<g id="node1" class="node">
<title>Node31</title>
<polygon fill="#bfbfbf" stroke="#000000" points="0,-167.5 0,-205.5 137.1768,-205.5 137.1768,-167.5 0,-167.5"/>
<text text-anchor="start" x="8" y="-193.5" font-family="Helvetica,sans-Serif" font-size="10.00" fill="#000000">anonymous_namespace</text>
<text text-anchor="start" x="8" y="-183.5" font-family="Helvetica,sans-Serif" font-size="10.00" fill="#000000">{Ioss_FaceGenerator</text>
<text text-anchor="middle" x="68.5884" y="-173.5" font-family="Helvetica,sans-Serif" font-size="10.00" fill="#000000">::C}::resolve_parallel_faces</text>
</g>
<!-- Node32 -->
<g id="node2" class="node">
<title>Node32</title>
<g id="a_node2"><a xlink:href="$classIoss_1_1GroupingEntity.html#a318cd5cde65370bb9c83f8ca223f8481" xlink:title="Ioss::GroupingEntity\l::get_database">
<polygon fill="#ffffff" stroke="#000000" points="188.7383,-319.5 188.7383,-347.5 294.7822,-347.5 294.7822,-319.5 188.7383,-319.5"/>
<text text-anchor="start" x="196.7383" y="-335.5" font-family="Helvetica,sans-Serif" font-size="10.00" fill="#000000">Ioss::GroupingEntity</text>
<text text-anchor="middle" x="241.7603" y="-325.5" font-family="Helvetica,sans-Serif" font-size="10.00" fill="#000000">::get_database</text>
</a>
</g>
</g>
<!-- Node31&#45;&gt;Node32 -->
<g id="edge1" class="edge">
<title>Node31&#45;&gt;Node32</title>
<path fill="none" stroke="#191970" d="M79.9658,-205.7163C96.96,-232.8315 131.4807,-282.167 173.1768,-310.5 175.5626,-312.1212 178.0724,-313.6367 180.6648,-315.0523"/>
<polygon fill="#191970" stroke="#191970" points="179.2155,-318.2396 189.7364,-319.4893 182.2911,-311.9514 179.2155,-318.2396"/>
</g>
<!-- Node33 -->
<g id="node3" class="node">
<title>Node33</title>
<g id="a_node3"><a xlink:href="$classIoss_1_1DatabaseIO.html#acd988f56b93ac669b2e504a8e471b321" xlink:title="Ioss::DatabaseIO::util">
<polygon fill="#ffffff" stroke="#000000" points="185.96,-282.5 185.96,-300.5 297.5605,-300.5 297.5605,-282.5 185.96,-282.5"/>
<text text-anchor="middle" x="241.7603" y="-288.5" font-family="Helvetica,sans-Serif" font-size="10.00" fill="#000000">Ioss::DatabaseIO::util</text>
</a>
</g>
</g>
<!-- Node31&#45;&gt;Node33 -->
<g id="edge2" class="edge">
<title>Node31&#45;&gt;Node33</title>
<path fill="none" stroke="#191970" d="M86.4153,-205.6285C105.904,-225.4304 138.945,-255.8844 173.1768,-273.5 177.2267,-275.5841 181.5386,-277.4418 185.9522,-279.0949"/>
<polygon fill="#191970" stroke="#191970" points="185.1202,-282.5082 195.7144,-282.3958 187.3624,-275.877 185.1202,-282.5082"/>
</g>
<!-- Node34 -->
<g id="node4" class="node">
<title>Node34</title>
<g id="a_node4"><a xlink:href="$classIoss_1_1ParallelUtils.html#a795617c394bd2bc1b68a15a006981971" xlink:title="Ioss::ParallelUtils\l::parallel_size">
<polygon fill="#ffffff" stroke="#000000" points="195.4155,-235.5 195.4155,-263.5 288.105,-263.5 288.105,-235.5 195.4155,-235.5"/>
<text text-anchor="start" x="203.4155" y="-251.5" font-family="Helvetica,sans-Serif" font-size="10.00" fill="#000000">Ioss::ParallelUtils</text>
<text text-anchor="middle" x="241.7603" y="-241.5" font-family="Helvetica,sans-Serif" font-size="10.00" fill="#000000">::parallel_size</text>
</a>
</g>
</g>
<!-- Node31&#45;&gt;Node34 -->
<g id="edge3" class="edge">
<title>Node31&#45;&gt;Node34</title>
<path fill="none" stroke="#191970" d="M117.1202,-205.544C134.7168,-212.3209 154.7867,-219.903 173.1768,-226.5 178.3484,-228.3552 183.7555,-230.2481 189.1665,-232.1115"/>
<polygon fill="#191970" stroke="#191970" points="188.266,-235.5024 198.8605,-235.4195 190.5267,-228.8774 188.266,-235.5024"/>
</g>
<!-- Node35 -->
<g id="node5" class="node">
<title>Node35</title>
<g id="a_node5"><a xlink:href="$classIoss_1_1Region.html#a4f0d17a0e1e1d7361b65194910a42a56" xlink:title="Get the comm set with the given name. ">
<polygon fill="#ffffff" stroke="#000000" points="173.1768,-198.5 173.1768,-216.5 310.3438,-216.5 310.3438,-198.5 173.1768,-198.5"/>
<text text-anchor="middle" x="241.7603" y="-204.5" font-family="Helvetica,sans-Serif" font-size="10.00" fill="#000000">Ioss::Region::get_commset</text>
</a>
</g>
</g>
<!-- Node31&#45;&gt;Node35 -->
<g id="edge4" class="edge">
<title>Node31&#45;&gt;Node35</title>
<path fill="none" stroke="#191970" d="M137.5281,-194.8601C145.9344,-195.8795 154.5724,-196.927 163.1068,-197.962"/>
<polygon fill="#191970" stroke="#191970" points="162.7091,-201.4393 173.0578,-199.1687 163.5519,-194.4902 162.7091,-201.4393"/>
</g>
<!-- Node42 -->
<g id="node12" class="node">
<title>Node42</title>
<g id="a_node12"><a xlink:href="$classIoss_1_1GroupingEntity.html#a4969f0b3bc6d6a1c63d20d3938608728" xlink:title="Read field data from the database file into memory using a pointer. ">
<polygon fill="#ffffff" stroke="#000000" points="188.7383,-151.5 188.7383,-179.5 294.7822,-179.5 294.7822,-151.5 188.7383,-151.5"/>
<text text-anchor="start" x="196.7383" y="-167.5" font-family="Helvetica,sans-Serif" font-size="10.00" fill="#000000">Ioss::GroupingEntity</text>
<text text-anchor="middle" x="241.7603" y="-157.5" font-family="Helvetica,sans-Serif" font-size="10.00" fill="#000000">::get_field_data</text>
</a>
</g>
</g>
<!-- Node31&#45;&gt;Node42 -->
<g id="edge11" class="edge">
<title>Node31&#45;&gt;Node42</title>
<path fill="none" stroke="#191970" d="M137.5281,-178.1399C151.0572,-176.4993 165.1865,-174.7859 178.5179,-173.1692"/>
<polygon fill="#191970" stroke="#191970" points="179.028,-176.6331 188.5339,-171.9546 178.1852,-169.684 179.028,-176.6331"/>
</g>
<!-- Node44 -->
<g id="node14" class="node">
<title>Node44</title>
<g id="a_node14"><a xlink:href="$namespaceanonymous__namespace_02Ioss__FaceGenerator_8C_03.html#acbb089bfbe0a592c696905037be60b1a" xlink:title="anonymous_namespace\l\{Ioss_FaceGenerator\l::C\}::generate_index">
<polygon fill="#ffffff" stroke="#000000" points="179.2803,-94.5 179.2803,-132.5 304.2402,-132.5 304.2402,-94.5 179.2803,-94.5"/>
<text text-anchor="start" x="187.2803" y="-120.5" font-family="Helvetica,sans-Serif" font-size="10.00" fill="#000000">anonymous_namespace</text>
<text text-anchor="start" x="187.2803" y="-110.5" font-family="Helvetica,sans-Serif" font-size="10.00" fill="#000000">{Ioss_FaceGenerator</text>
<text text-anchor="middle" x="241.7603" y="-100.5" font-family="Helvetica,sans-Serif" font-size="10.00" fill="#000000">::C}::generate_index</text>
</a>
</g>
</g>
<!-- Node31&#45;&gt;Node44 -->
<g id="edge13" class="edge">
<title>Node31&#45;&gt;Node44</title>
<path fill="none" stroke="#191970" d="M114.0873,-167.3201C136.4585,-157.8896 163.5935,-146.4509 187.0849,-136.5482"/>
<polygon fill="#191970" stroke="#191970" points="188.7101,-139.6614 196.5653,-132.5518 185.991,-133.2111 188.7101,-139.6614"/>
</g>
<!-- Node45 -->
<g id="node15" class="node">
<title>Node45</title>
<g id="a_node15"><a xlink:href="$classIoss_1_1DatabaseIO.html#a508cb4e8ba172b238fd6af316538f89d" xlink:title="Get the local (process&#45;specific) node number corresponding to a global node number. ">
<polygon fill="#ffffff" stroke="#000000" points="181.2285,-47.5 181.2285,-75.5 302.292,-75.5 302.292,-47.5 181.2285,-47.5"/>
<text text-anchor="start" x="189.2285" y="-63.5" font-family="Helvetica,sans-Serif" font-size="10.00" fill="#000000">Ioss::DatabaseIO::node</text>
<text text-anchor="middle" x="241.7603" y="-53.5" font-family="Helvetica,sans-Serif" font-size="10.00" fill="#000000">_global_to_local</text>
</a>
</g>
</g>
<!-- Node31&#45;&gt;Node45 -->
<g id="edge14" class="edge">
<title>Node31&#45;&gt;Node45</title>
<path fill="none" stroke="#191970" d="M84.0329,-167.1883C102.9122,-144.7281 136.8596,-107.8804 173.1768,-85.5 176.5244,-83.437 180.0737,-81.5206 183.7259,-79.7456"/>
<polygon fill="#191970" stroke="#191970" points="185.2561,-82.8954 192.9598,-75.6219 182.4017,-76.5038 185.2561,-82.8954"/>
</g>
<!-- Node48 -->
<g id="node18" class="node">
<title>Node48</title>
<g id="a_node18"><a xlink:href="$classIoss_1_1ParallelUtils.html#a77906941da759887bff81406d9cdc26f" xlink:title="Ioss::ParallelUtils\l::communicator">
<polygon fill="#ffffff" stroke="#000000" points="195.4155,-.5 195.4155,-28.5 288.105,-28.5 288.105,-.5 195.4155,-.5"/>
<text text-anchor="start" x="203.4155" y="-16.5" font-family="Helvetica,sans-Serif" font-size="10.00" fill="#000000">Ioss::ParallelUtils</text>
<text text-anchor="middle" x="241.7603" y="-6.5" font-family="Helvetica,sans-Serif" font-size="10.00" fill="#000000">::communicator</text>
</a>
</g>
</g>
<!-- Node31&#45;&gt;Node48 -->
<g id="edge17" class="edge">
<title>Node31&#45;&gt;Node48</title>
<path fill="none" stroke="#191970" d="M77.2909,-167.2578C92.4126,-135.8971 126.4519,-73.7345 173.1768,-38.5 177.064,-35.5687 181.3378,-32.9758 185.7935,-30.6858"/>
<polygon fill="#191970" stroke="#191970" points="187.5015,-33.753 195.1289,-26.3995 184.5806,-27.3915 187.5015,-33.753"/>
</g>
<!-- Node36 -->
<g id="node6" class="node">
<title>Node36</title>
<g id="a_node6"><a xlink:href="$classIoss_1_1Region.html#a83e8885c1191dcd9200e1b0954ba0e10" xlink:title="Ioss::Region::get_alias__">
<polygon fill="#ffffff" stroke="#000000" points="346.3438,-237.5 346.3438,-255.5 474.6387,-255.5 474.6387,-237.5 346.3438,-237.5"/>
<text text-anchor="middle" x="410.4912" y="-243.5" font-family="Helvetica,sans-Serif" font-size="10.00" fill="#000000">Ioss::Region::get_alias__</text>
</a>
</g>
</g>
<!-- Node35&#45;&gt;Node36 -->
<g id="edge5" class="edge">
<title>Node35&#45;&gt;Node36</title>
<path fill="none" stroke="#191970" d="M280.8946,-216.5454C304.8732,-222.0877 335.7729,-229.2298 361.3855,-235.1498"/>
<polygon fill="#191970" stroke="#191970" points="360.7458,-238.5942 371.2772,-237.4362 362.3223,-231.774 360.7458,-238.5942"/>
</g>
<!-- Node38 -->
<g id="node8" class="node">
<title>Node38</title>
<g id="a_node8"><a xlink:href="$classIoss_1_1Utils.html#a1ec73edea0e845665ac385f605f4aa99" xlink:title="Ioss::Utils::hash">
<polygon fill="#ffffff" stroke="#000000" points="367.2007,-195.5 367.2007,-213.5 453.7817,-213.5 453.7817,-195.5 367.2007,-195.5"/>
<text text-anchor="middle" x="410.4912" y="-201.5" font-family="Helvetica,sans-Serif" font-size="10.00" fill="#000000">Ioss::Utils::hash</text>
</a>
</g>
</g>
<!-- Node35&#45;&gt;Node38 -->
<g id="edge7" class="edge">
<title>Node35&#45;&gt;Node38</title>
<path fill="none" stroke="#191970" d="M310.3896,-206.2798C325.9572,-206.003 342.2658,-205.713 357.0928,-205.4494"/>
<polygon fill="#191970" stroke="#191970" points="357.1574,-208.9489 367.0936,-205.2716 357.0329,-201.95 357.1574,-208.9489"/>
</g>
<!-- Node37 -->
<g id="node7" class="node">
<title>Node37</title>
<g id="a_node7"><a xlink:href="$namespaceanonymous__namespace_02Ioss__Region_8C_03.html#acd06ef87eff981abc4c9d7cfb0a4f11d" xlink:title="anonymous_namespace\l\{Ioss_Region::C\}::uppercase">
<polygon fill="#ffffff" stroke="#000000" points="510.6387,-234.5 510.6387,-262.5 653.9434,-262.5 653.9434,-234.5 510.6387,-234.5"/>
<text text-anchor="start" x="518.6387" y="-250.5" font-family="Helvetica,sans-Serif" font-size="10.00" fill="#000000">anonymous_namespace</text>
<text text-anchor="middle" x="582.291" y="-240.5" font-family="Helvetica,sans-Serif" font-size="10.00" fill="#000000">{Ioss_Region::C}::uppercase</text>
</a>
</g>
</g>
<!-- Node36&#45;&gt;Node37 -->
<g id="edge6" class="edge">
<title>Node36&#45;&gt;Node37</title>
<path fill="none" stroke="#191970" d="M474.9519,-247.2504C483.3009,-247.3476 491.9385,-247.4482 500.521,-247.5481"/>
<polygon fill="#191970" stroke="#191970" points="500.5101,-251.0481 510.5502,-247.6648 500.5917,-244.0486 500.5101,-251.0481"/>
</g>
<!-- Node39 -->
<g id="node9" class="node">
<title>Node39</title>
<g id="a_node9"><a xlink:href="$namespaceanonymous__namespace_02io__info_8C_03.html#ac76aa36231a3291b803cc8e620fce319" xlink:title="anonymous_namespace\l\{io_info::C\}::name">
<polygon fill="#ffffff" stroke="#000000" points="519.811,-187.5 519.811,-215.5 644.771,-215.5 644.771,-187.5 519.811,-187.5"/>
<text text-anchor="start" x="527.811" y="-203.5" font-family="Helvetica,sans-Serif" font-size="10.00" fill="#000000">anonymous_namespace</text>
<text text-anchor="middle" x="582.291" y="-193.5" font-family="Helvetica,sans-Serif" font-size="10.00" fill="#000000">{io_info::C}::name</text>
</a>
</g>
</g>
<!-- Node38&#45;&gt;Node39 -->
<g id="edge8" class="edge">
<title>Node38&#45;&gt;Node39</title>
<path fill="none" stroke="#191970" d="M453.8436,-203.743C470.7797,-203.4472 490.668,-203.0999 509.6682,-202.7682"/>
<polygon fill="#191970" stroke="#191970" points="509.8668,-206.2653 519.8041,-202.5912 509.7445,-199.2664 509.8668,-206.2653"/>
</g>
<!-- Node40 -->
<g id="node10" class="node">
<title>Node40</title>
<g id="a_node10"><a xlink:href="$classIoss_1_1GroupingEntity.html#adf92c4256dc89b729f4492642bc4d745" xlink:title="Get the name of the particular type of entity. ">
<polygon fill="#ffffff" stroke="#000000" points="689.9434,-210.5 689.9434,-238.5 795.9873,-238.5 795.9873,-210.5 689.9434,-210.5"/>
<text text-anchor="start" x="697.9434" y="-226.5" font-family="Helvetica,sans-Serif" font-size="10.00" fill="#000000">Ioss::GroupingEntity</text>
<text text-anchor="middle" x="742.9653" y="-216.5" font-family="Helvetica,sans-Serif" font-size="10.00" fill="#000000">::type_string</text>
</a>
</g>
</g>
<!-- Node39&#45;&gt;Node40 -->
<g id="edge9" class="edge">
<title>Node39&#45;&gt;Node40</title>
<path fill="none" stroke="#191970" d="M644.872,-210.4583C656.3895,-212.107 668.4196,-213.829 679.9499,-215.4795"/>
<polygon fill="#191970" stroke="#191970" points="679.5333,-218.9555 689.9284,-216.9079 680.5253,-212.0261 679.5333,-218.9555"/>
</g>
<!-- Node41 -->
<g id="node11" class="node">
<title>Node41</title>
<g id="a_node11"><a xlink:href="$classIoss_1_1GroupingEntity.html#a50d4053f49c8c3205e05d939fdc9fbc5" xlink:title="Get name of entity. ">
<polygon fill="#ffffff" stroke="#000000" points="689.9434,-163.5 689.9434,-191.5 795.9873,-191.5 795.9873,-163.5 689.9434,-163.5"/>
<text text-anchor="start" x="697.9434" y="-179.5" font-family="Helvetica,sans-Serif" font-size="10.00" fill="#000000">Ioss::GroupingEntity</text>
<text text-anchor="middle" x="742.9653" y="-169.5" font-family="Helvetica,sans-Serif" font-size="10.00" fill="#000000">::name</text>
</a>
</g>
</g>
<!-- Node39&#45;&gt;Node41 -->
<g id="edge10" class="edge">
<title>Node39&#45;&gt;Node41</title>
<path fill="none" stroke="#191970" d="M644.872,-192.1523C656.3895,-190.4319 668.4196,-188.6349 679.9499,-186.9127"/>
<polygon fill="#191970" stroke="#191970" points="680.5552,-190.3611 689.9284,-185.4222 679.521,-183.438 680.5552,-190.3611"/>
</g>
<!-- Node43 -->
<g id="node13" class="node">
<title>Node43</title>
<g id="a_node13"><a xlink:href="$classIoss_1_1Field.html#acd40e32af496e75b0c416737ed0a97ec" xlink:title="Ioss::Field::transform">
<polygon fill="#ffffff" stroke="#000000" points="355.8115,-156.5 355.8115,-174.5 465.1709,-174.5 465.1709,-156.5 355.8115,-156.5"/>
<text text-anchor="middle" x="410.4912" y="-162.5" font-family="Helvetica,sans-Serif" font-size="10.00" fill="#000000">Ioss::Field::transform</text>
</a>
</g>
</g>
<!-- Node42&#45;&gt;Node43 -->
<g id="edge12" class="edge">
<title>Node42&#45;&gt;Node43</title>
<path fill="none" stroke="#191970" d="M295.1478,-165.5C311.1386,-165.5 328.8538,-165.5 345.5043,-165.5"/>
<polygon fill="#191970" stroke="#191970" points="345.7091,-169.0001 355.7091,-165.5 345.7091,-162.0001 345.7091,-169.0001"/>
</g>
<!-- Node46 -->
<g id="node16" class="node">
<title>Node46</title>
<g id="a_node16"><a xlink:href="$classIoss_1_1DatabaseIO.html#a9aee6ca9b63ac01505ea97b4c966b8a2" xlink:title="Ioss::DatabaseIO::node\l_global_to_local__">
<polygon fill="#ffffff" stroke="#000000" points="349.9595,-47.5 349.9595,-75.5 471.0229,-75.5 471.0229,-47.5 349.9595,-47.5"/>
<text text-anchor="start" x="357.9595" y="-63.5" font-family="Helvetica,sans-Serif" font-size="10.00" fill="#000000">Ioss::DatabaseIO::node</text>
<text text-anchor="middle" x="410.4912" y="-53.5" font-family="Helvetica,sans-Serif" font-size="10.00" fill="#000000">_global_to_local__</text>
</a>
</g>
</g>
<!-- Node45&#45;&gt;Node46 -->
<g id="edge15" class="edge">
<title>Node45&#45;&gt;Node46</title>
<path fill="none" stroke="#191970" d="M302.676,-61.5C314.6968,-61.5 327.4075,-61.5 339.7214,-61.5"/>
<polygon fill="#191970" stroke="#191970" points="339.9479,-65.0001 349.9479,-61.5 339.9478,-58.0001 339.9479,-65.0001"/>
</g>
<!-- Node47 -->
<g id="node17" class="node">
<title>Node47</title>
<g id="a_node17"><a xlink:href="$classIoss_1_1Map.html#ab5b9f9efc6c50d676989ae6660bff073" xlink:title="Ioss::Map::global_to\l_local">
<polygon fill="#ffffff" stroke="#000000" points="529.5425,-47.5 529.5425,-75.5 635.0396,-75.5 635.0396,-47.5 529.5425,-47.5"/>
<text text-anchor="start" x="537.5425" y="-63.5" font-family="Helvetica,sans-Serif" font-size="10.00" fill="#000000">Ioss::Map::global_to</text>
<text text-anchor="middle" x="582.291" y="-53.5" font-family="Helvetica,sans-Serif" font-size="10.00" fill="#000000">_local</text>
</a>
</g>
</g>
<!-- Node46&#45;&gt;Node47 -->
<g id="edge16" class="edge">
<title>Node46&#45;&gt;Node47</title>
<path fill="none" stroke="#191970" d="M471.0614,-61.5C486.6731,-61.5 503.5106,-61.5 519.2449,-61.5"/>
<polygon fill="#191970" stroke="#191970" points="519.4013,-65.0001 529.4013,-61.5 519.4012,-58.0001 519.4013,-65.0001"/>
</g>
</g>
</svg>
