<?xml version="1.0" encoding="UTF-8" standalone="no"?>
<!DOCTYPE svg PUBLIC "-//W3C//DTD SVG 1.1//EN"
 "http://www.w3.org/Graphics/SVG/1.1/DTD/svg11.dtd">
<!-- Generated by graphviz version 2.40.1 (20161225.0304)
 -->
<!-- Title: anonymous_namespace{Ioss_Sort::h}::isort_int Pages: 1 -->
<svg width="392pt" height="121pt"
 viewBox="0.00 0.00 392.03 121.00" xmlns="http://www.w3.org/2000/svg" xmlns:xlink="http://www.w3.org/1999/xlink">
<g id="graph0" class="graph" transform="scale(1 1) rotate(0) translate(4 117)">
<title>anonymous_namespace{Ioss_Sort::h}::isort_int</title>
<polygon fill="#ffffff" stroke="transparent" points="-4,4 -4,-117 388.0283,-117 388.0283,4 -4,4"/>
<!-- Node2 -->
<g id="node1" class="node">
<title>Node2</title>
<polygon fill="#bfbfbf" stroke="#000000" points="0,-37.5 0,-65.5 124.96,-65.5 124.96,-37.5 0,-37.5"/>
<text text-anchor="start" x="8" y="-53.5" font-family="Helvetica,sans-Serif" font-size="10.00" fill="#000000">anonymous_namespace</text>
<text text-anchor="middle" x="62.48" y="-43.5" font-family="Helvetica,sans-Serif" font-size="10.00" fill="#000000">{Ioss_Sort::h}::isort_int</text>
</g>
<!-- Node3 -->
<g id="node2" class="node">
<title>Node3</title>
<g id="a_node2"><a xlink:href="$namespaceIoss.html#a4451dd64cac4d40bde7b92f15633f7c6" xlink:title="Ioss::qsort">
<polygon fill="#ffffff" stroke="#000000" points="160.96,-42.5 160.96,-60.5 223.0879,-60.5 223.0879,-42.5 160.96,-42.5"/>
<text text-anchor="middle" x="192.0239" y="-48.5" font-family="Helvetica,sans-Serif" font-size="10.00" fill="#000000">Ioss::qsort</text>
</a>
</g>
</g>
<!-- Node2&#45;&gt;Node3 -->
<g id="edge1" class="edge">
<title>Node2&#45;&gt;Node3</title>
<path fill="none" stroke="#191970" d="M135.1533,-51.5C144.124,-51.5 152.8895,-51.5 160.7475,-51.5"/>
<polygon fill="#191970" stroke="#191970" points="134.9753,-48.0001 124.9752,-51.5 134.9752,-55.0001 134.9753,-48.0001"/>
</g>
<!-- Node4 -->
<g id="node3" class="node">
<title>Node4</title>
<g id="a_node3"><a xlink:href="$classIoss_1_1Decomposition.html#a7f5d07326e25987b083d27bfff129c6b" xlink:title="Ioss::Decomposition\l::decompose_model">
<polygon fill="#ffffff" stroke="#000000" points="268.5313,-84.5 268.5313,-112.5 374.585,-112.5 374.585,-84.5 268.5313,-84.5"/>
<text text-anchor="start" x="276.5313" y="-100.5" font-family="Helvetica,sans-Serif" font-size="10.00" fill="#000000">Ioss::Decomposition</text>
<text text-anchor="middle" x="321.5581" y="-90.5" font-family="Helvetica,sans-Serif" font-size="10.00" fill="#000000">::decompose_model</text>
</a>
</g>
</g>
<!-- Node3&#45;&gt;Node4 -->
<g id="edge2" class="edge">
<title>Node3&#45;&gt;Node4</title>
<path fill="none" stroke="#191970" d="M226.7202,-64.0892C244.0422,-70.3742 265.0526,-77.9976 282.891,-84.4701"/>
<polygon fill="#191970" stroke="#191970" points="227.5936,-60.6828 216.9994,-60.5621 225.206,-67.2631 227.5936,-60.6828"/>
</g>
<!-- Node5 -->
<g id="node4" class="node">
<title>Node5</title>
<g id="a_node4"><a xlink:href="$classIoss_1_1Map.html#adc60962a0f5d1b2b5873486829c06a84" xlink:title="Ioss::Map::build_reverse\l_map__">
<polygon fill="#ffffff" stroke="#000000" points="259.0879,-37.5 259.0879,-65.5 384.0283,-65.5 384.0283,-37.5 259.0879,-37.5"/>
<text text-anchor="start" x="267.0879" y="-53.5" font-family="Helvetica,sans-Serif" font-size="10.00" fill="#000000">Ioss::Map::build_reverse</text>
<text text-anchor="middle" x="321.5581" y="-43.5" font-family="Helvetica,sans-Serif" font-size="10.00" fill="#000000">_map__</text>
</a>
</g>
</g>
<!-- Node3&#45;&gt;Node5 -->
<g id="edge3" class="edge">
<title>Node3&#45;&gt;Node5</title>
<path fill="none" stroke="#191970" d="M233.3857,-51.5C241.5648,-51.5 250.3193,-51.5 259.0202,-51.5"/>
<polygon fill="#191970" stroke="#191970" points="233.3806,-48.0001 223.3805,-51.5 233.3805,-55.0001 233.3806,-48.0001"/>
</g>
<!-- Node6 -->
<g id="node5" class="node">
<title>Node6</title>
<g id="a_node5"><a xlink:href="$Utst__sort_8C.html#ae66f6b31b5ad750f1fe042a706a4e3d4" xlink:title="main">
<polygon fill="#ffffff" stroke="#000000" points="302.7207,-.5 302.7207,-18.5 340.3955,-18.5 340.3955,-.5 302.7207,-.5"/>
<text text-anchor="middle" x="321.5581" y="-6.5" font-family="Helvetica,sans-Serif" font-size="10.00" fill="#000000">main</text>
</a>
</g>
</g>
<!-- Node3&#45;&gt;Node6 -->
<g id="edge4" class="edge">
<title>Node3&#45;&gt;Node6</title>
<path fill="none" stroke="#191970" d="M227.2166,-39.1707C237.4684,-35.6496 248.7041,-31.8585 259.0879,-28.5 273.6489,-23.7904 290.225,-18.7642 302.6416,-15.065"/>
<polygon fill="#191970" stroke="#191970" points="226.0581,-35.8679 217.7488,-42.441 228.3435,-42.4843 226.0581,-35.8679"/>
</g>
</g>
</svg>
