<?xml version="1.0" encoding="UTF-8" standalone="no"?>
<!DOCTYPE svg PUBLIC "-//W3C//DTD SVG 1.1//EN"
 "http://www.w3.org/Graphics/SVG/1.1/DTD/svg11.dtd">
<!-- Generated by graphviz version 2.40.1 (20161225.0304)
 -->
<!-- Title: anonymous_namespace{io_shell_ts::C}::transfer_blocks Pages: 1 -->
<svg width="531pt" height="161pt"
 viewBox="0.00 0.00 531.33 161.00" xmlns="http://www.w3.org/2000/svg" xmlns:xlink="http://www.w3.org/1999/xlink">
<g id="graph0" class="graph" transform="scale(1 1) rotate(0) translate(4 157)">
<title>anonymous_namespace{io_shell_ts::C}::transfer_blocks</title>
<polygon fill="#ffffff" stroke="transparent" points="-4,4 -4,-157 527.3281,-157 527.3281,4 -4,4"/>
<!-- Node234 -->
<g id="node1" class="node">
<title>Node234</title>
<polygon fill="#bfbfbf" stroke="#000000" points="0,-57.5 0,-95.5 124.96,-95.5 124.96,-57.5 0,-57.5"/>
<text text-anchor="start" x="8" y="-83.5" font-family="Helvetica,sans-Serif" font-size="10.00" fill="#000000">anonymous_namespace</text>
<text text-anchor="start" x="8" y="-73.5" font-family="Helvetica,sans-Serif" font-size="10.00" fill="#000000">{io_shell_ts::C}::transfer</text>
<text text-anchor="middle" x="62.48" y="-63.5" font-family="Helvetica,sans-Serif" font-size="10.00" fill="#000000">_blocks</text>
</g>
<!-- Node235 -->
<g id="node2" class="node">
<title>Node235</title>
<g id="a_node2"><a xlink:href="$namespaceanonymous__namespace_02io__shell__ts_8C_03.html#a87d3883b1a2f8cb21d23648e5190edb1" xlink:title="anonymous_namespace\l\{io_shell_ts::C\}::transfer\l_elementblocks">
<polygon fill="#ffffff" stroke="#000000" points="160.96,-114.5 160.96,-152.5 285.9199,-152.5 285.9199,-114.5 160.96,-114.5"/>
<text text-anchor="start" x="168.96" y="-140.5" font-family="Helvetica,sans-Serif" font-size="10.00" fill="#000000">anonymous_namespace</text>
<text text-anchor="start" x="168.96" y="-130.5" font-family="Helvetica,sans-Serif" font-size="10.00" fill="#000000">{io_shell_ts::C}::transfer</text>
<text text-anchor="middle" x="223.4399" y="-120.5" font-family="Helvetica,sans-Serif" font-size="10.00" fill="#000000">_elementblocks</text>
</a>
</g>
</g>
<!-- Node234&#45;&gt;Node235 -->
<g id="edge1" class="edge">
<title>Node234&#45;&gt;Node235</title>
<path fill="none" stroke="#191970" d="M126.2966,-99.0991C140.615,-104.1696 155.6692,-109.5007 169.5375,-114.4118"/>
<polygon fill="#191970" stroke="#191970" points="127.1199,-95.6777 116.5251,-95.6387 124.7831,-102.2762 127.1199,-95.6777"/>
</g>
<!-- Node238 -->
<g id="node5" class="node">
<title>Node238</title>
<g id="a_node5"><a xlink:href="$namespaceanonymous__namespace_02io__shell__ts_8C_03.html#add2e39d97a0cbb40ab19531f139b38e0" xlink:title="anonymous_namespace\l\{io_shell_ts::C\}::transfer\l_edgeblocks">
<polygon fill="#ffffff" stroke="#000000" points="160.96,-57.5 160.96,-95.5 285.9199,-95.5 285.9199,-57.5 160.96,-57.5"/>
<text text-anchor="start" x="168.96" y="-83.5" font-family="Helvetica,sans-Serif" font-size="10.00" fill="#000000">anonymous_namespace</text>
<text text-anchor="start" x="168.96" y="-73.5" font-family="Helvetica,sans-Serif" font-size="10.00" fill="#000000">{io_shell_ts::C}::transfer</text>
<text text-anchor="middle" x="223.4399" y="-63.5" font-family="Helvetica,sans-Serif" font-size="10.00" fill="#000000">_edgeblocks</text>
</a>
</g>
</g>
<!-- Node234&#45;&gt;Node238 -->
<g id="edge4" class="edge">
<title>Node234&#45;&gt;Node238</title>
<path fill="none" stroke="#191970" d="M135.1803,-76.5C143.7726,-76.5 152.4844,-76.5 160.9188,-76.5"/>
<polygon fill="#191970" stroke="#191970" points="135.1722,-73.0001 125.1722,-76.5 135.1722,-80.0001 135.1722,-73.0001"/>
</g>
<!-- Node239 -->
<g id="node6" class="node">
<title>Node239</title>
<g id="a_node6"><a xlink:href="$namespaceanonymous__namespace_02io__shell__ts_8C_03.html#a8d46b3e9d171e31681a052925a8627b0" xlink:title="anonymous_namespace\l\{io_shell_ts::C\}::transfer\l_faceblocks">
<polygon fill="#ffffff" stroke="#000000" points="160.96,-.5 160.96,-38.5 285.9199,-38.5 285.9199,-.5 160.96,-.5"/>
<text text-anchor="start" x="168.96" y="-26.5" font-family="Helvetica,sans-Serif" font-size="10.00" fill="#000000">anonymous_namespace</text>
<text text-anchor="start" x="168.96" y="-16.5" font-family="Helvetica,sans-Serif" font-size="10.00" fill="#000000">{io_shell_ts::C}::transfer</text>
<text text-anchor="middle" x="223.4399" y="-6.5" font-family="Helvetica,sans-Serif" font-size="10.00" fill="#000000">_faceblocks</text>
</a>
</g>
</g>
<!-- Node234&#45;&gt;Node239 -->
<g id="edge6" class="edge">
<title>Node234&#45;&gt;Node239</title>
<path fill="none" stroke="#191970" d="M126.2966,-53.9009C140.615,-48.8304 155.6692,-43.4993 169.5375,-38.5882"/>
<polygon fill="#191970" stroke="#191970" points="124.7831,-50.7238 116.5251,-57.3613 127.1199,-57.3223 124.7831,-50.7238"/>
</g>
<!-- Node236 -->
<g id="node3" class="node">
<title>Node236</title>
<g id="a_node3"><a xlink:href="$namespaceanonymous__namespace_02io__shell__ts_8C_03.html#a095c7ac686af64729318e491a9d5622d" xlink:title="anonymous_namespace\l\{io_shell_ts::C\}::file_copy">
<polygon fill="#ffffff" stroke="#000000" points="321.9199,-62.5 321.9199,-90.5 449.6533,-90.5 449.6533,-62.5 321.9199,-62.5"/>
<text text-anchor="start" x="329.9199" y="-78.5" font-family="Helvetica,sans-Serif" font-size="10.00" fill="#000000">anonymous_namespace</text>
<text text-anchor="middle" x="385.7866" y="-68.5" font-family="Helvetica,sans-Serif" font-size="10.00" fill="#000000">{io_shell_ts::C}::file_copy</text>
</a>
</g>
</g>
<!-- Node235&#45;&gt;Node236 -->
<g id="edge2" class="edge">
<title>Node235&#45;&gt;Node236</title>
<path fill="none" stroke="#191970" d="M287.4723,-111.0182C307.1424,-104.112 328.2195,-96.7119 345.7935,-90.5416"/>
<polygon fill="#191970" stroke="#191970" points="286.2265,-107.7461 277.9507,-114.3613 288.5455,-114.3508 286.2265,-107.7461"/>
</g>
<!-- Node237 -->
<g id="node4" class="node">
<title>Node237</title>
<g id="a_node4"><a xlink:href="$io__shell__ts_8C.html#a0ddf1224851353fc92bfbff6f499fa97" xlink:title="main">
<polygon fill="#ffffff" stroke="#000000" points="485.6533,-67.5 485.6533,-85.5 523.3281,-85.5 523.3281,-67.5 485.6533,-67.5"/>
<text text-anchor="middle" x="504.4907" y="-73.5" font-family="Helvetica,sans-Serif" font-size="10.00" fill="#000000">main</text>
</a>
</g>
</g>
<!-- Node236&#45;&gt;Node237 -->
<g id="edge3" class="edge">
<title>Node236&#45;&gt;Node237</title>
<path fill="none" stroke="#191970" d="M459.9534,-76.5C469.2981,-76.5 478.1194,-76.5 485.4075,-76.5"/>
<polygon fill="#191970" stroke="#191970" points="459.6558,-73.0001 449.6557,-76.5 459.6557,-80.0001 459.6558,-73.0001"/>
</g>
<!-- Node238&#45;&gt;Node236 -->
<g id="edge5" class="edge">
<title>Node238&#45;&gt;Node236</title>
<path fill="none" stroke="#191970" d="M296.4534,-76.5C304.9225,-76.5 313.5113,-76.5 321.8459,-76.5"/>
<polygon fill="#191970" stroke="#191970" points="296.2074,-73.0001 286.2074,-76.5 296.2074,-80.0001 296.2074,-73.0001"/>
</g>
<!-- Node239&#45;&gt;Node236 -->
<g id="edge7" class="edge">
<title>Node239&#45;&gt;Node236</title>
<path fill="none" stroke="#191970" d="M287.4723,-41.9818C307.1424,-48.888 328.2195,-56.2881 345.7935,-62.4584"/>
<polygon fill="#191970" stroke="#191970" points="288.5455,-38.6492 277.9507,-38.6387 286.2265,-45.2539 288.5455,-38.6492"/>
</g>
</g>
</svg>
