<?xml version="1.0" encoding="UTF-8" standalone="no"?>
<!DOCTYPE svg PUBLIC "-//W3C//DTD SVG 1.1//EN"
 "http://www.w3.org/Graphics/SVG/1.1/DTD/svg11.dtd">
<!-- Generated by graphviz version 2.40.1 (20161225.0304)
 -->
<!-- Title: anonymous_namespace{Ioex_Internals::C}::output_names Pages: 1 -->
<svg width="289pt" height="84pt"
 viewBox="0.00 0.00 288.90 84.00" xmlns="http://www.w3.org/2000/svg" xmlns:xlink="http://www.w3.org/1999/xlink">
<g id="graph0" class="graph" transform="scale(1 1) rotate(0) translate(4 80)">
<title>anonymous_namespace{Ioex_Internals::C}::output_names</title>
<polygon fill="#ffffff" stroke="transparent" points="-4,4 -4,-80 284.9004,-80 284.9004,4 -4,4"/>
<!-- Node49 -->
<g id="node1" class="node">
<title>Node49</title>
<polygon fill="#bfbfbf" stroke="#000000" points="0,-18.5 0,-56.5 124.96,-56.5 124.96,-18.5 0,-18.5"/>
<text text-anchor="start" x="8" y="-44.5" font-family="Helvetica,sans-Serif" font-size="10.00" fill="#000000">anonymous_namespace</text>
<text text-anchor="start" x="8" y="-34.5" font-family="Helvetica,sans-Serif" font-size="10.00" fill="#000000">{Ioex_Internals::C}</text>
<text text-anchor="middle" x="62.48" y="-24.5" font-family="Helvetica,sans-Serif" font-size="10.00" fill="#000000">::output_names</text>
</g>
<!-- Node50 -->
<g id="node2" class="node">
<title>Node50</title>
<g id="a_node2"><a xlink:href="$classIoex_1_1Internals.html#a8d35871182f3f1cc642670c8b1ba7656" xlink:title="Ioex::Internals::initialize\l_state_file">
<polygon fill="#ffffff" stroke="#000000" points="160.96,-47.5 160.96,-75.5 280.9004,-75.5 280.9004,-47.5 160.96,-47.5"/>
<text text-anchor="start" x="168.96" y="-63.5" font-family="Helvetica,sans-Serif" font-size="10.00" fill="#000000">Ioex::Internals::initialize</text>
<text text-anchor="middle" x="220.9302" y="-53.5" font-family="Helvetica,sans-Serif" font-size="10.00" fill="#000000">_state_file</text>
</a>
</g>
</g>
<!-- Node49&#45;&gt;Node50 -->
<g id="edge1" class="edge">
<title>Node49&#45;&gt;Node50</title>
<path fill="none" stroke="#191970" d="M135.1268,-48.5036C143.7265,-49.8062 152.4304,-51.1245 160.8293,-52.3967"/>
<polygon fill="#191970" stroke="#191970" points="135.5151,-45.0226 125.1037,-46.9854 134.4667,-51.9436 135.5151,-45.0226"/>
</g>
<!-- Node51 -->
<g id="node3" class="node">
<title>Node51</title>
<g id="a_node3"><a xlink:href="$classIoex_1_1Internals.html#a8878ed6cd2c8043a80d8e6395fba3392" xlink:title="Ioex::Internals::write\l_meta_data">
<polygon fill="#ffffff" stroke="#000000" points="168.189,-.5 168.189,-28.5 273.6714,-28.5 273.6714,-.5 168.189,-.5"/>
<text text-anchor="start" x="176.189" y="-16.5" font-family="Helvetica,sans-Serif" font-size="10.00" fill="#000000">Ioex::Internals::write</text>
<text text-anchor="middle" x="220.9302" y="-6.5" font-family="Helvetica,sans-Serif" font-size="10.00" fill="#000000">_meta_data</text>
</a>
</g>
</g>
<!-- Node49&#45;&gt;Node51 -->
<g id="edge2" class="edge">
<title>Node49&#45;&gt;Node51</title>
<path fill="none" stroke="#191970" d="M135.1762,-26.9477C146.2234,-25.3441 157.441,-23.7158 167.962,-22.1886"/>
<polygon fill="#191970" stroke="#191970" points="134.4972,-23.5095 125.1037,-28.4098 135.5028,-30.4369 134.4972,-23.5095"/>
</g>
</g>
</svg>
