<?xml version="1.0" encoding="UTF-8" standalone="no"?>
<!DOCTYPE svg PUBLIC "-//W3C//DTD SVG 1.1//EN"
 "http://www.w3.org/Graphics/SVG/1.1/DTD/svg11.dtd">
<!-- Generated by graphviz version 2.40.1 (20161225.0304)
 -->
<!-- Title: anonymous_namespace{io_info::C}::print_groups Pages: 1 -->
<svg width="526pt" height="47pt"
 viewBox="0.00 0.00 525.78 47.00" xmlns="http://www.w3.org/2000/svg" xmlns:xlink="http://www.w3.org/1999/xlink">
<g id="graph0" class="graph" transform="scale(1 1) rotate(0) translate(4 43)">
<title>anonymous_namespace{io_info::C}::print_groups</title>
<polygon fill="#ffffff" stroke="transparent" points="-4,4 -4,-43 521.7813,-43 521.7813,4 -4,4"/>
<!-- Node987 -->
<g id="node1" class="node">
<title>Node987</title>
<polygon fill="#bfbfbf" stroke="#000000" points="0,-.5 0,-38.5 124.96,-38.5 124.96,-.5 0,-.5"/>
<text text-anchor="start" x="8" y="-26.5" font-family="Helvetica,sans-Serif" font-size="10.00" fill="#000000">anonymous_namespace</text>
<text text-anchor="start" x="8" y="-16.5" font-family="Helvetica,sans-Serif" font-size="10.00" fill="#000000">{io_info::C}::print</text>
<text text-anchor="middle" x="62.48" y="-6.5" font-family="Helvetica,sans-Serif" font-size="10.00" fill="#000000">_groups</text>
</g>
<!-- Node988 -->
<g id="node2" class="node">
<title>Node988</title>
<g id="a_node2"><a xlink:href="namespaceanonymous__namespace_02io__info_8C_03.html#a171e4e43a1ff528e9f9b62bb08816863" target="_top" xlink:title="anonymous_namespace\l\{io_info::C\}::group_info">
<polygon fill="#ffffff" stroke="#000000" points="160.96,-5.5 160.96,-33.5 285.9199,-33.5 285.9199,-5.5 160.96,-5.5"/>
<text text-anchor="start" x="168.96" y="-21.5" font-family="Helvetica,sans-Serif" font-size="10.00" fill="#000000">anonymous_namespace</text>
<text text-anchor="middle" x="223.4399" y="-11.5" font-family="Helvetica,sans-Serif" font-size="10.00" fill="#000000">{io_info::C}::group_info</text>
</a>
</g>
</g>
<!-- Node987&#45;&gt;Node988 -->
<g id="edge1" class="edge">
<title>Node987&#45;&gt;Node988</title>
<path fill="none" stroke="#191970" d="M135.1803,-19.5C143.7726,-19.5 152.4844,-19.5 160.9188,-19.5"/>
<polygon fill="#191970" stroke="#191970" points="135.1722,-16.0001 125.1722,-19.5 135.1722,-23.0001 135.1722,-16.0001"/>
</g>
<!-- Node989 -->
<g id="node3" class="node">
<title>Node989</title>
<g id="a_node3"><a xlink:href="namespaceIoss.html#a4a3a6e7687c0d96439bc0aa1b4df6a4e" target="_top" xlink:title="Ioss::io_info_group_info">
<polygon fill="#ffffff" stroke="#000000" points="321.9199,-10.5 321.9199,-28.5 444.1064,-28.5 444.1064,-10.5 321.9199,-10.5"/>
<text text-anchor="middle" x="383.0132" y="-16.5" font-family="Helvetica,sans-Serif" font-size="10.00" fill="#000000">Ioss::io_info_group_info</text>
</a>
</g>
</g>
<!-- Node988&#45;&gt;Node989 -->
<g id="edge2" class="edge">
<title>Node988&#45;&gt;Node989</title>
<path fill="none" stroke="#191970" d="M296.0955,-19.5C304.7177,-19.5 313.452,-19.5 321.891,-19.5"/>
<polygon fill="#191970" stroke="#191970" points="296.0496,-16.0001 286.0495,-19.5 296.0495,-23.0001 296.0496,-16.0001"/>
</g>
<!-- Node990 -->
<g id="node4" class="node">
<title>Node990</title>
<g id="a_node4"><a xlink:href="io__info__main_8C.html#a0ddf1224851353fc92bfbff6f499fa97" target="_top" xlink:title="main">
<polygon fill="#ffffff" stroke="#000000" points="480.1064,-10.5 480.1064,-28.5 517.7813,-28.5 517.7813,-10.5 480.1064,-10.5"/>
<text text-anchor="middle" x="498.9438" y="-16.5" font-family="Helvetica,sans-Serif" font-size="10.00" fill="#000000">main</text>
</a>
</g>
</g>
<!-- Node989&#45;&gt;Node990 -->
<g id="edge3" class="edge">
<title>Node989&#45;&gt;Node990</title>
<path fill="none" stroke="#191970" d="M454.5777,-19.5C463.8485,-19.5 472.6275,-19.5 479.8916,-19.5"/>
<polygon fill="#191970" stroke="#191970" points="454.3732,-16.0001 444.3732,-19.5 454.3732,-23.0001 454.3732,-16.0001"/>
</g>
</g>
</svg>
