<?xml version="1.0" encoding="UTF-8" standalone="no"?>
<!DOCTYPE svg PUBLIC "-//W3C//DTD SVG 1.1//EN"
 "http://www.w3.org/Graphics/SVG/1.1/DTD/svg11.dtd">
<!-- Generated by graphviz version 2.40.1 (20161225.0304)
 -->
<!-- Title: anonymous_namespace{Iocgns_Utils::C}::bc_subset_range Pages: 1 -->
<svg width="816pt" height="175pt"
 viewBox="0.00 0.00 816.24 175.00" xmlns="http://www.w3.org/2000/svg" xmlns:xlink="http://www.w3.org/1999/xlink">
<g id="graph0" class="graph" transform="scale(1 1) rotate(0) translate(4 171)">
<title>anonymous_namespace{Iocgns_Utils::C}::bc_subset_range</title>
<polygon fill="#ffffff" stroke="transparent" points="-4,4 -4,-171 812.2432,-171 812.2432,4 -4,4"/>
<!-- Node51 -->
<g id="node1" class="node">
<title>Node51</title>
<polygon fill="#bfbfbf" stroke="#000000" points="0,-62.5 0,-100.5 124.96,-100.5 124.96,-62.5 0,-62.5"/>
<text text-anchor="start" x="8" y="-88.5" font-family="Helvetica,sans-Serif" font-size="10.00" fill="#000000">anonymous_namespace</text>
<text text-anchor="start" x="8" y="-78.5" font-family="Helvetica,sans-Serif" font-size="10.00" fill="#000000">{Iocgns_Utils::C}::bc</text>
<text text-anchor="middle" x="62.48" y="-68.5" font-family="Helvetica,sans-Serif" font-size="10.00" fill="#000000">_subset_range</text>
</g>
<!-- Node52 -->
<g id="node2" class="node">
<title>Node52</title>
<g id="a_node2"><a xlink:href="$namespaceanonymous__namespace_02Iocgns__Utils_8C_03.html#a438fbeb34b60bbaebe9d53b540e8fdd3" xlink:title="anonymous_namespace\l\{Iocgns_Utils::C\}::bc\l_overlaps">
<polygon fill="#ffffff" stroke="#000000" points="176.5215,-86.5 176.5215,-124.5 301.4814,-124.5 301.4814,-86.5 176.5215,-86.5"/>
<text text-anchor="start" x="184.5215" y="-112.5" font-family="Helvetica,sans-Serif" font-size="10.00" fill="#000000">anonymous_namespace</text>
<text text-anchor="start" x="184.5215" y="-102.5" font-family="Helvetica,sans-Serif" font-size="10.00" fill="#000000">{Iocgns_Utils::C}::bc</text>
<text text-anchor="middle" x="239.0015" y="-92.5" font-family="Helvetica,sans-Serif" font-size="10.00" fill="#000000">_overlaps</text>
</a>
</g>
</g>
<!-- Node51&#45;&gt;Node52 -->
<g id="edge1" class="edge">
<title>Node51&#45;&gt;Node52</title>
<path fill="none" stroke="#191970" d="M125.2119,-90.0291C138.4784,-91.8328 152.5869,-93.751 166.19,-95.6005"/>
<polygon fill="#191970" stroke="#191970" points="166.0912,-99.1192 176.4716,-96.9984 167.0343,-92.183 166.0912,-99.1192"/>
</g>
<!-- Node53 -->
<g id="node3" class="node">
<title>Node53</title>
<g id="a_node3"><a xlink:href="$classIoss_1_1GroupingEntity.html#a3e8284b8cafbbe1646625124f68a2652" xlink:title="Get the Property from the property manager associated with the entity. ">
<polygon fill="#ffffff" stroke="#000000" points="366.6611,-138.5 366.6611,-166.5 472.7051,-166.5 472.7051,-138.5 366.6611,-138.5"/>
<text text-anchor="start" x="374.6611" y="-154.5" font-family="Helvetica,sans-Serif" font-size="10.00" fill="#000000">Ioss::GroupingEntity</text>
<text text-anchor="middle" x="419.6831" y="-144.5" font-family="Helvetica,sans-Serif" font-size="10.00" fill="#000000">::get_property</text>
</a>
</g>
</g>
<!-- Node51&#45;&gt;Node53 -->
<g id="edge8" class="edge">
<title>Node51&#45;&gt;Node53</title>
<path fill="none" stroke="#191970" d="M90.8705,-100.5423C109.8575,-112.2309 135.872,-126.2978 160.96,-133.5 225.6915,-152.0831 303.0741,-155.4396 356.2434,-155.0172"/>
<polygon fill="#191970" stroke="#191970" points="356.5891,-158.5132 366.5436,-154.8858 356.4997,-151.5138 356.5891,-158.5132"/>
</g>
<!-- Node54 -->
<g id="node4" class="node">
<title>Node54</title>
<g id="a_node4"><a xlink:href="$classIoss_1_1Property.html#a45bcbc7137a296f3eda52c92c04da39f" xlink:title="Get the property value if it is of type INTEGER. ">
<polygon fill="#ffffff" stroke="#000000" points="363.0479,-51.5 363.0479,-69.5 476.3184,-69.5 476.3184,-51.5 363.0479,-51.5"/>
<text text-anchor="middle" x="419.6831" y="-57.5" font-family="Helvetica,sans-Serif" font-size="10.00" fill="#000000">Ioss::Property::get_int</text>
</a>
</g>
</g>
<!-- Node51&#45;&gt;Node54 -->
<g id="edge9" class="edge">
<title>Node51&#45;&gt;Node54</title>
<path fill="none" stroke="#191970" d="M125.1088,-77.818C188.9239,-74.0664 287.5402,-68.2687 352.8381,-64.4298"/>
<polygon fill="#191970" stroke="#191970" points="353.2442,-67.9121 363.0216,-63.8311 352.8334,-60.9241 353.2442,-67.9121"/>
</g>
<!-- Node59 -->
<g id="node9" class="node">
<title>Node59</title>
<g id="a_node9"><a xlink:href="$namespaceanonymous__namespace_02Iocgns__Utils_8C_03.html#a765f362be82c7cf09c6f3cae4981c882" xlink:title="anonymous_namespace\l\{Iocgns_Utils::C\}::subset_range">
<polygon fill="#ffffff" stroke="#000000" points="160.96,-.5 160.96,-28.5 317.043,-28.5 317.043,-.5 160.96,-.5"/>
<text text-anchor="start" x="168.96" y="-16.5" font-family="Helvetica,sans-Serif" font-size="10.00" fill="#000000">anonymous_namespace</text>
<text text-anchor="middle" x="239.0015" y="-6.5" font-family="Helvetica,sans-Serif" font-size="10.00" fill="#000000">{Iocgns_Utils::C}::subset_range</text>
</a>
</g>
</g>
<!-- Node51&#45;&gt;Node59 -->
<g id="edge10" class="edge">
<title>Node51&#45;&gt;Node59</title>
<path fill="none" stroke="#191970" d="M111.5241,-62.4372C127.2933,-56.345 144.8502,-49.601 160.96,-43.5 170.7937,-39.7758 181.3409,-35.8263 191.4018,-32.0803"/>
<polygon fill="#191970" stroke="#191970" points="192.7054,-35.3298 200.8596,-28.5652 190.2667,-28.7683 192.7054,-35.3298"/>
</g>
<!-- Node52&#45;&gt;Node53 -->
<g id="edge2" class="edge">
<title>Node52&#45;&gt;Node53</title>
<path fill="none" stroke="#191970" d="M301.6881,-121.8064C319.4898,-126.4371 338.8769,-131.4802 356.6963,-136.1155"/>
<polygon fill="#191970" stroke="#191970" points="355.8556,-139.5132 366.4147,-138.6435 357.6179,-132.7387 355.8556,-139.5132"/>
</g>
<!-- Node52&#45;&gt;Node54 -->
<g id="edge3" class="edge">
<title>Node52&#45;&gt;Node54</title>
<path fill="none" stroke="#191970" d="M301.6881,-89.8875C325.2692,-84.0144 351.6323,-77.4485 373.4482,-72.0151"/>
<polygon fill="#191970" stroke="#191970" points="374.5843,-75.3392 383.4419,-69.5261 372.8925,-68.5467 374.5843,-75.3392"/>
</g>
<!-- Node58 -->
<g id="node8" class="node">
<title>Node58</title>
<g id="a_node8"><a xlink:href="$namespaceanonymous__namespace_02Iocgns__Utils_8C_03.html#a94857b49d46525263574fa357a76a037" xlink:title="anonymous_namespace\l\{Iocgns_Utils::C\}::overlaps">
<polygon fill="#ffffff" stroke="#000000" points="353.043,-91.5 353.043,-119.5 486.3232,-119.5 486.3232,-91.5 353.043,-91.5"/>
<text text-anchor="start" x="361.043" y="-107.5" font-family="Helvetica,sans-Serif" font-size="10.00" fill="#000000">anonymous_namespace</text>
<text text-anchor="middle" x="419.6831" y="-97.5" font-family="Helvetica,sans-Serif" font-size="10.00" fill="#000000">{Iocgns_Utils::C}::overlaps</text>
</a>
</g>
</g>
<!-- Node52&#45;&gt;Node58 -->
<g id="edge7" class="edge">
<title>Node52&#45;&gt;Node58</title>
<path fill="none" stroke="#191970" d="M301.6881,-105.5C314.8458,-105.5 328.8698,-105.5 342.4866,-105.5"/>
<polygon fill="#191970" stroke="#191970" points="342.7991,-109.0001 352.799,-105.5 342.799,-102.0001 342.7991,-109.0001"/>
</g>
<!-- Node55 -->
<g id="node5" class="node">
<title>Node55</title>
<g id="a_node5"><a xlink:href="$namespaceanonymous__namespace_02Ioss__Property_8C_03.html#a7e9f404cf974920b115b502313608c02" xlink:title="anonymous_namespace\l\{Ioss_Property::C\}::\lerror_message">
<polygon fill="#ffffff" stroke="#000000" points="522.3232,-41.5 522.3232,-79.5 647.2832,-79.5 647.2832,-41.5 522.3232,-41.5"/>
<text text-anchor="start" x="530.3232" y="-67.5" font-family="Helvetica,sans-Serif" font-size="10.00" fill="#000000">anonymous_namespace</text>
<text text-anchor="start" x="530.3232" y="-57.5" font-family="Helvetica,sans-Serif" font-size="10.00" fill="#000000">{Ioss_Property::C}::</text>
<text text-anchor="middle" x="584.8032" y="-47.5" font-family="Helvetica,sans-Serif" font-size="10.00" fill="#000000">error_message</text>
</a>
</g>
</g>
<!-- Node54&#45;&gt;Node55 -->
<g id="edge4" class="edge">
<title>Node54&#45;&gt;Node55</title>
<path fill="none" stroke="#191970" d="M476.5081,-60.5C487.9081,-60.5 500.0356,-60.5 511.8938,-60.5"/>
<polygon fill="#191970" stroke="#191970" points="512.2202,-64.0001 522.2202,-60.5 512.2202,-57.0001 512.2202,-64.0001"/>
</g>
<!-- Node56 -->
<g id="node6" class="node">
<title>Node56</title>
<g id="a_node6"><a xlink:href="$namespaceanonymous__namespace_02Ioss__Property_8C_03.html#a33c896c06915d8a83ca1d8886b26d8ed" xlink:title="anonymous_namespace\l\{Ioss_Property::C\}::\ltype_string">
<polygon fill="#ffffff" stroke="#000000" points="683.2832,-65.5 683.2832,-103.5 808.2432,-103.5 808.2432,-65.5 683.2832,-65.5"/>
<text text-anchor="start" x="691.2832" y="-91.5" font-family="Helvetica,sans-Serif" font-size="10.00" fill="#000000">anonymous_namespace</text>
<text text-anchor="start" x="691.2832" y="-81.5" font-family="Helvetica,sans-Serif" font-size="10.00" fill="#000000">{Ioss_Property::C}::</text>
<text text-anchor="middle" x="745.7632" y="-71.5" font-family="Helvetica,sans-Serif" font-size="10.00" fill="#000000">type_string</text>
</a>
</g>
</g>
<!-- Node55&#45;&gt;Node56 -->
<g id="edge5" class="edge">
<title>Node55&#45;&gt;Node56</title>
<path fill="none" stroke="#191970" d="M647.4954,-69.8477C655.9336,-71.1059 664.6464,-72.4051 673.2371,-73.686"/>
<polygon fill="#191970" stroke="#191970" points="672.8352,-77.1647 683.2421,-75.1778 673.8676,-70.2412 672.8352,-77.1647"/>
</g>
<!-- Node57 -->
<g id="node7" class="node">
<title>Node57</title>
<g id="a_node7"><a xlink:href="$classIoss_1_1Property.html#a90c992cd11af736282e63e1c34b1c076" xlink:title="Get the property type. ">
<polygon fill="#ffffff" stroke="#000000" points="684.958,-28.5 684.958,-46.5 806.5684,-46.5 806.5684,-28.5 684.958,-28.5"/>
<text text-anchor="middle" x="745.7632" y="-34.5" font-family="Helvetica,sans-Serif" font-size="10.00" fill="#000000">Ioss::Property::get_type</text>
</a>
</g>
</g>
<!-- Node55&#45;&gt;Node57 -->
<g id="edge6" class="edge">
<title>Node55&#45;&gt;Node57</title>
<path fill="none" stroke="#191970" d="M647.4954,-51.5417C656.4101,-50.2679 665.6314,-48.9503 674.6913,-47.6556"/>
<polygon fill="#191970" stroke="#191970" points="675.4225,-51.0868 684.8269,-46.2074 674.4323,-44.1572 675.4225,-51.0868"/>
</g>
</g>
</svg>
