<?xml version="1.0" encoding="UTF-8" standalone="no"?>
<!DOCTYPE svg PUBLIC "-//W3C//DTD SVG 1.1//EN"
 "http://www.w3.org/Graphics/SVG/1.1/DTD/svg11.dtd">
<!-- Generated by graphviz version 2.40.1 (20161225.0304)
 -->
<!-- Title: anonymous_namespace{Iopg_DatabaseIO::C}::Version Pages: 1 -->
<svg width="622pt" height="452pt"
 viewBox="0.00 0.00 621.94 452.00" xmlns="http://www.w3.org/2000/svg" xmlns:xlink="http://www.w3.org/1999/xlink">
<g id="graph0" class="graph" transform="scale(1 1) rotate(0) translate(4 448)">
<title>anonymous_namespace{Iopg_DatabaseIO::C}::Version</title>
<polygon fill="#ffffff" stroke="transparent" points="-4,4 -4,-448 617.9434,-448 617.9434,4 -4,4"/>
<!-- Node55 -->
<g id="node1" class="node">
<title>Node55</title>
<polygon fill="#bfbfbf" stroke="#000000" points="0,-198.5 0,-236.5 124.96,-236.5 124.96,-198.5 0,-198.5"/>
<text text-anchor="start" x="8" y="-224.5" font-family="Helvetica,sans-Serif" font-size="10.00" fill="#000000">anonymous_namespace</text>
<text text-anchor="start" x="8" y="-214.5" font-family="Helvetica,sans-Serif" font-size="10.00" fill="#000000">{Iopg_DatabaseIO::C}</text>
<text text-anchor="middle" x="62.48" y="-204.5" font-family="Helvetica,sans-Serif" font-size="10.00" fill="#000000">::Version</text>
</g>
<!-- Node56 -->
<g id="node2" class="node">
<title>Node56</title>
<g id="a_node2"><a xlink:href="$namespaceanonymous__namespace_02Iopg__DatabaseIO_8C_03.html#a59ba7fc965d83ed44d626f1f8ff9b4cf" xlink:title="anonymous_namespace\l\{Iopg_DatabaseIO::C\}\l::pamgen_error">
<polygon fill="#ffffff" stroke="#000000" points="160.96,-198.5 160.96,-236.5 285.9199,-236.5 285.9199,-198.5 160.96,-198.5"/>
<text text-anchor="start" x="168.96" y="-224.5" font-family="Helvetica,sans-Serif" font-size="10.00" fill="#000000">anonymous_namespace</text>
<text text-anchor="start" x="168.96" y="-214.5" font-family="Helvetica,sans-Serif" font-size="10.00" fill="#000000">{Iopg_DatabaseIO::C}</text>
<text text-anchor="middle" x="223.4399" y="-204.5" font-family="Helvetica,sans-Serif" font-size="10.00" fill="#000000">::pamgen_error</text>
</a>
</g>
</g>
<!-- Node55&#45;&gt;Node56 -->
<g id="edge1" class="edge">
<title>Node55&#45;&gt;Node56</title>
<path fill="none" stroke="#191970" d="M135.1803,-217.5C143.7726,-217.5 152.4844,-217.5 160.9188,-217.5"/>
<polygon fill="#191970" stroke="#191970" points="135.1722,-214.0001 125.1722,-217.5 135.1722,-221.0001 135.1722,-214.0001"/>
</g>
<!-- Node57 -->
<g id="node3" class="node">
<title>Node57</title>
<g id="a_node3"><a xlink:href="$classIopg_1_1DatabaseIO.html#ac6b7f26f68f746292c1fd44f2b065f66" xlink:title="Iopg::DatabaseIO::read\l_region">
<polygon fill="#ffffff" stroke="#000000" points="329.9766,-415.5 329.9766,-443.5 449.9316,-443.5 449.9316,-415.5 329.9766,-415.5"/>
<text text-anchor="start" x="337.9766" y="-431.5" font-family="Helvetica,sans-Serif" font-size="10.00" fill="#000000">Iopg::DatabaseIO::read</text>
<text text-anchor="middle" x="389.9541" y="-421.5" font-family="Helvetica,sans-Serif" font-size="10.00" fill="#000000">_region</text>
</a>
</g>
</g>
<!-- Node56&#45;&gt;Node57 -->
<g id="edge2" class="edge">
<title>Node56&#45;&gt;Node57</title>
<path fill="none" stroke="#191970" d="M230.9985,-246.2887C243.2723,-287.5363 271.4023,-363.2344 321.9199,-406.5 325.9919,-409.9875 330.6155,-412.9523 335.4904,-415.4716"/>
<polygon fill="#191970" stroke="#191970" points="234.3368,-245.2326 228.2156,-236.585 227.608,-247.1624 234.3368,-245.2326"/>
</g>
<!-- Node59 -->
<g id="node5" class="node">
<title>Node59</title>
<g id="a_node5"><a xlink:href="$classIopg_1_1DatabaseIO.html#a02aec9baa888a253fa6e35ce7f7b3e7a" xlink:title="Iopg::DatabaseIO::read\l_communication_metadata">
<polygon fill="#ffffff" stroke="#000000" points="321.9199,-368.5 321.9199,-396.5 457.9883,-396.5 457.9883,-368.5 321.9199,-368.5"/>
<text text-anchor="start" x="329.9199" y="-384.5" font-family="Helvetica,sans-Serif" font-size="10.00" fill="#000000">Iopg::DatabaseIO::read</text>
<text text-anchor="middle" x="389.9541" y="-374.5" font-family="Helvetica,sans-Serif" font-size="10.00" fill="#000000">_communication_metadata</text>
</a>
</g>
</g>
<!-- Node56&#45;&gt;Node59 -->
<g id="edge4" class="edge">
<title>Node56&#45;&gt;Node59</title>
<path fill="none" stroke="#191970" d="M236.1716,-245.7537C251.9448,-277.7187 281.7326,-329.2516 321.9199,-359.5 326.5023,-362.9491 331.6346,-365.9013 336.9711,-368.4238"/>
<polygon fill="#191970" stroke="#191970" points="239.2149,-244.0058 231.7304,-236.507 232.905,-247.0365 239.2149,-244.0058"/>
</g>
<!-- Node60 -->
<g id="node6" class="node">
<title>Node60</title>
<g id="a_node6"><a xlink:href="$classIopg_1_1DatabaseIO.html#a36f29abdd07a99a8a308dfd3c54470a9" xlink:title="Iopg::DatabaseIO::get\l_elemblocks">
<polygon fill="#ffffff" stroke="#000000" points="333.0332,-321.5 333.0332,-349.5 446.875,-349.5 446.875,-321.5 333.0332,-321.5"/>
<text text-anchor="start" x="341.0332" y="-337.5" font-family="Helvetica,sans-Serif" font-size="10.00" fill="#000000">Iopg::DatabaseIO::get</text>
<text text-anchor="middle" x="389.9541" y="-327.5" font-family="Helvetica,sans-Serif" font-size="10.00" fill="#000000">_elemblocks</text>
</a>
</g>
</g>
<!-- Node56&#45;&gt;Node60 -->
<g id="edge6" class="edge">
<title>Node56&#45;&gt;Node60</title>
<path fill="none" stroke="#191970" d="M245.4992,-244.5437C263.971,-265.64 292.0494,-294.3212 321.9199,-312.5 327.4584,-315.8706 333.5539,-318.8209 339.7516,-321.3825"/>
<polygon fill="#191970" stroke="#191970" points="248.0769,-242.1732 238.9063,-236.8675 242.7666,-246.734 248.0769,-242.1732"/>
</g>
<!-- Node61 -->
<g id="node7" class="node">
<title>Node61</title>
<g id="a_node7"><a xlink:href="$classIopg_1_1DatabaseIO.html#ae38a9dc9b70ff4ff895a564304f85e53" xlink:title="Iopg::DatabaseIO::get\l_nodesets">
<polygon fill="#ffffff" stroke="#000000" points="333.0332,-274.5 333.0332,-302.5 446.875,-302.5 446.875,-274.5 333.0332,-274.5"/>
<text text-anchor="start" x="341.0332" y="-290.5" font-family="Helvetica,sans-Serif" font-size="10.00" fill="#000000">Iopg::DatabaseIO::get</text>
<text text-anchor="middle" x="389.9541" y="-280.5" font-family="Helvetica,sans-Serif" font-size="10.00" fill="#000000">_nodesets</text>
</a>
</g>
</g>
<!-- Node56&#45;&gt;Node61 -->
<g id="edge8" class="edge">
<title>Node56&#45;&gt;Node61</title>
<path fill="none" stroke="#191970" d="M269.2386,-241.3267C285.6486,-249.461 304.4186,-258.3108 321.9199,-265.5 329.5317,-268.6268 337.7408,-271.6701 345.7331,-274.4651"/>
<polygon fill="#191970" stroke="#191970" points="270.3854,-237.9867 259.8768,-236.638 267.2507,-244.2456 270.3854,-237.9867"/>
</g>
<!-- Node62 -->
<g id="node8" class="node">
<title>Node62</title>
<g id="a_node8"><a xlink:href="$classIopg_1_1DatabaseIO.html#aaf02f16f04c392b30c2013ca50af68c2" xlink:title="Iopg::DatabaseIO::get\l_commsets">
<polygon fill="#ffffff" stroke="#000000" points="333.0332,-227.5 333.0332,-255.5 446.875,-255.5 446.875,-227.5 333.0332,-227.5"/>
<text text-anchor="start" x="341.0332" y="-243.5" font-family="Helvetica,sans-Serif" font-size="10.00" fill="#000000">Iopg::DatabaseIO::get</text>
<text text-anchor="middle" x="389.9541" y="-233.5" font-family="Helvetica,sans-Serif" font-size="10.00" fill="#000000">_commsets</text>
</a>
</g>
</g>
<!-- Node56&#45;&gt;Node62 -->
<g id="edge10" class="edge">
<title>Node56&#45;&gt;Node62</title>
<path fill="none" stroke="#191970" d="M296.5409,-228.0362C308.7336,-229.7935 321.2213,-231.5934 332.9369,-233.282"/>
<polygon fill="#191970" stroke="#191970" points="296.7889,-224.5358 286.3918,-226.5734 295.7902,-231.4642 296.7889,-224.5358"/>
</g>
<!-- Node63 -->
<g id="node9" class="node">
<title>Node63</title>
<g id="a_node9"><a xlink:href="$classIopg_1_1DatabaseIO.html#a3e5db0b0f27c271faa50c1f3250dc30c" xlink:title="Iopg::DatabaseIO::get\l_sidesets">
<polygon fill="#ffffff" stroke="#000000" points="333.0332,-180.5 333.0332,-208.5 446.875,-208.5 446.875,-180.5 333.0332,-180.5"/>
<text text-anchor="start" x="341.0332" y="-196.5" font-family="Helvetica,sans-Serif" font-size="10.00" fill="#000000">Iopg::DatabaseIO::get</text>
<text text-anchor="middle" x="389.9541" y="-186.5" font-family="Helvetica,sans-Serif" font-size="10.00" fill="#000000">_sidesets</text>
</a>
</g>
</g>
<!-- Node56&#45;&gt;Node63 -->
<g id="edge12" class="edge">
<title>Node56&#45;&gt;Node63</title>
<path fill="none" stroke="#191970" d="M296.5409,-207.4028C308.7336,-205.7187 321.2213,-203.9938 332.9369,-202.3756"/>
<polygon fill="#191970" stroke="#191970" points="295.8188,-203.9692 286.3918,-208.8047 296.7767,-210.9034 295.8188,-203.9692"/>
</g>
<!-- Node64 -->
<g id="node10" class="node">
<title>Node64</title>
<g id="a_node10"><a xlink:href="$classIopg_1_1DatabaseIO.html#a62ba6c2ce8a4e0eb9d45e5d1d5f56f85" xlink:title="Iopg::DatabaseIO::get\l_field_internal">
<polygon fill="#ffffff" stroke="#000000" points="497.0449,-116.5 497.0449,-144.5 610.8867,-144.5 610.8867,-116.5 497.0449,-116.5"/>
<text text-anchor="start" x="505.0449" y="-132.5" font-family="Helvetica,sans-Serif" font-size="10.00" fill="#000000">Iopg::DatabaseIO::get</text>
<text text-anchor="middle" x="553.9658" y="-122.5" font-family="Helvetica,sans-Serif" font-size="10.00" fill="#000000">_field_internal</text>
</a>
</g>
</g>
<!-- Node56&#45;&gt;Node64 -->
<g id="edge14" class="edge">
<title>Node56&#45;&gt;Node64</title>
<path fill="none" stroke="#191970" d="M267.9683,-193.679C284.527,-185.6359 303.7191,-177.2487 321.9199,-171.5 380.0451,-153.1412 449.1169,-142.264 496.7022,-136.3786"/>
<polygon fill="#191970" stroke="#191970" points="265.9524,-190.7721 258.5505,-198.3525 269.064,-197.0425 265.9524,-190.7721"/>
</g>
<!-- Node65 -->
<g id="node11" class="node">
<title>Node65</title>
<g id="a_node11"><a xlink:href="$classIopg_1_1DatabaseIO.html#ab4852be1ceadbe30a3444f821ca77ec4" xlink:title="Iopg::DatabaseIO::get\l_node_map">
<polygon fill="#ffffff" stroke="#000000" points="333.0332,-94.5 333.0332,-122.5 446.875,-122.5 446.875,-94.5 333.0332,-94.5"/>
<text text-anchor="start" x="341.0332" y="-110.5" font-family="Helvetica,sans-Serif" font-size="10.00" fill="#000000">Iopg::DatabaseIO::get</text>
<text text-anchor="middle" x="389.9541" y="-100.5" font-family="Helvetica,sans-Serif" font-size="10.00" fill="#000000">_node_map</text>
</a>
</g>
</g>
<!-- Node56&#45;&gt;Node65 -->
<g id="edge15" class="edge">
<title>Node56&#45;&gt;Node65</title>
<path fill="none" stroke="#191970" d="M251.315,-191.302C270.2191,-174.4607 296.3356,-152.9258 321.9199,-137.5 331.1563,-131.931 341.6563,-126.8943 351.5962,-122.6403"/>
<polygon fill="#191970" stroke="#191970" points="248.7522,-188.9005 243.6775,-198.2009 253.4444,-194.0951 248.7522,-188.9005"/>
</g>
<!-- Node66 -->
<g id="node12" class="node">
<title>Node66</title>
<g id="a_node12"><a xlink:href="$classIopg_1_1DatabaseIO.html#afed5ce9c44b3a1b3b1e8b46901eb37c7" xlink:title="Iopg::DatabaseIO::get\l_element_map">
<polygon fill="#ffffff" stroke="#000000" points="333.0332,-47.5 333.0332,-75.5 446.875,-75.5 446.875,-47.5 333.0332,-47.5"/>
<text text-anchor="start" x="341.0332" y="-63.5" font-family="Helvetica,sans-Serif" font-size="10.00" fill="#000000">Iopg::DatabaseIO::get</text>
<text text-anchor="middle" x="389.9541" y="-53.5" font-family="Helvetica,sans-Serif" font-size="10.00" fill="#000000">_element_map</text>
</a>
</g>
</g>
<!-- Node56&#45;&gt;Node66 -->
<g id="edge17" class="edge">
<title>Node56&#45;&gt;Node66</title>
<path fill="none" stroke="#191970" d="M238.0277,-189.0103C254.606,-159.2686 284.3108,-113.1801 321.9199,-85.5 327.1653,-81.6394 333.0868,-78.357 339.1934,-75.577"/>
<polygon fill="#191970" stroke="#191970" points="234.8154,-187.5911 233.113,-198.0483 240.965,-190.9352 234.8154,-187.5911"/>
</g>
<!-- Node68 -->
<g id="node14" class="node">
<title>Node68</title>
<g id="a_node14"><a xlink:href="$classIopg_1_1DatabaseIO.html#aefa6449ee83e88ef7cc98ac7f4c8ac4d" xlink:title="Iopg::DatabaseIO::get\l_side_connectivity">
<polygon fill="#ffffff" stroke="#000000" points="333.0332,-.5 333.0332,-28.5 446.875,-28.5 446.875,-.5 333.0332,-.5"/>
<text text-anchor="start" x="341.0332" y="-16.5" font-family="Helvetica,sans-Serif" font-size="10.00" fill="#000000">Iopg::DatabaseIO::get</text>
<text text-anchor="middle" x="389.9541" y="-6.5" font-family="Helvetica,sans-Serif" font-size="10.00" fill="#000000">_side_connectivity</text>
</a>
</g>
</g>
<!-- Node56&#45;&gt;Node68 -->
<g id="edge19" class="edge">
<title>Node56&#45;&gt;Node68</title>
<path fill="none" stroke="#191970" d="M231.7669,-188.9057C244.7078,-149.3613 273.3451,-78.2556 321.9199,-37.5 326.0271,-34.054 330.674,-31.1167 335.5634,-28.6145"/>
<polygon fill="#191970" stroke="#191970" points="228.4191,-187.8843 228.7414,-198.4742 235.0934,-189.9947 228.4191,-187.8843"/>
</g>
<!-- Node58 -->
<g id="node4" class="node">
<title>Node58</title>
<g id="a_node4"><a xlink:href="$classIopg_1_1DatabaseIO.html#a375a536391f7a2c94d0dfd5beccbc284" xlink:title="Iopg::DatabaseIO::read\l_meta_data__">
<polygon fill="#ffffff" stroke="#000000" points="493.9883,-297.5 493.9883,-325.5 613.9434,-325.5 613.9434,-297.5 493.9883,-297.5"/>
<text text-anchor="start" x="501.9883" y="-313.5" font-family="Helvetica,sans-Serif" font-size="10.00" fill="#000000">Iopg::DatabaseIO::read</text>
<text text-anchor="middle" x="553.9658" y="-303.5" font-family="Helvetica,sans-Serif" font-size="10.00" fill="#000000">_meta_data__</text>
</a>
</g>
</g>
<!-- Node57&#45;&gt;Node58 -->
<g id="edge3" class="edge">
<title>Node57&#45;&gt;Node58</title>
<path fill="none" stroke="#191970" d="M449.3461,-411.2877C452.3302,-409.7975 455.23,-408.2031 457.9883,-406.5 493.8962,-384.3292 526.7585,-346.3695 543.1057,-325.785"/>
<polygon fill="#191970" stroke="#191970" points="447.8505,-408.1228 440.1981,-415.4503 450.7497,-414.4942 447.8505,-408.1228"/>
</g>
<!-- Node59&#45;&gt;Node58 -->
<g id="edge5" class="edge">
<title>Node59&#45;&gt;Node58</title>
<path fill="none" stroke="#191970" d="M444.2056,-364.9157C448.898,-363.1668 453.5466,-361.3511 457.9883,-359.5 482.4076,-349.3229 509.267,-335.6675 528.3461,-325.5238"/>
<polygon fill="#191970" stroke="#191970" points="442.7789,-361.7098 434.565,-368.4017 445.1592,-368.2926 442.7789,-361.7098"/>
</g>
<!-- Node60&#45;&gt;Node58 -->
<g id="edge7" class="edge">
<title>Node60&#45;&gt;Node58</title>
<path fill="none" stroke="#191970" d="M457.35,-325.6379C469.445,-323.868 481.9781,-322.034 493.8506,-320.2967"/>
<polygon fill="#191970" stroke="#191970" points="456.7053,-322.1949 447.3174,-327.106 457.7189,-329.1211 456.7053,-322.1949"/>
</g>
<!-- Node61&#45;&gt;Node58 -->
<g id="edge9" class="edge">
<title>Node61&#45;&gt;Node58</title>
<path fill="none" stroke="#191970" d="M457.35,-297.9512C469.445,-299.6473 481.9781,-301.4049 493.8506,-303.0698"/>
<polygon fill="#191970" stroke="#191970" points="457.7066,-294.467 447.3174,-296.5443 456.7344,-301.3992 457.7066,-294.467"/>
</g>
<!-- Node62&#45;&gt;Node58 -->
<g id="edge11" class="edge">
<title>Node62&#45;&gt;Node58</title>
<path fill="none" stroke="#191970" d="M441.3979,-258.9821C447.0295,-261.093 452.6517,-263.2874 457.9883,-265.5 481.5432,-275.266 507.593,-287.8701 526.603,-297.4146"/>
<polygon fill="#191970" stroke="#191970" points="442.5539,-255.6781 431.9603,-255.5198 440.143,-262.2499 442.5539,-255.6781"/>
</g>
<!-- Node63&#45;&gt;Node58 -->
<g id="edge13" class="edge">
<title>Node63&#45;&gt;Node58</title>
<path fill="none" stroke="#191970" d="M447.5269,-212.7634C451.149,-214.5341 454.6688,-216.4447 457.9883,-218.5 493.2994,-240.3633 526.1542,-277.1205 542.7239,-297.2543"/>
<polygon fill="#191970" stroke="#191970" points="448.9242,-209.5543 438.3683,-208.6475 446.0548,-215.9391 448.9242,-209.5543"/>
</g>
<!-- Node65&#45;&gt;Node64 -->
<g id="edge16" class="edge">
<title>Node65&#45;&gt;Node64</title>
<path fill="none" stroke="#191970" d="M457.261,-117.5283C470.428,-119.2945 484.1177,-121.1308 496.9118,-122.847"/>
<polygon fill="#191970" stroke="#191970" points="457.694,-114.0551 447.3174,-116.1945 456.7633,-120.993 457.694,-114.0551"/>
</g>
<!-- Node67 -->
<g id="node13" class="node">
<title>Node67</title>
<g id="a_node13"><a xlink:href="$classIopg_1_1DatabaseIO.html#af23f5b788a46f1e7f6b611c92d5bc06b" xlink:title="Iopg::DatabaseIO::get\l_field_internal">
<polygon fill="#ffffff" stroke="#000000" points="497.0449,-47.5 497.0449,-75.5 610.8867,-75.5 610.8867,-47.5 497.0449,-47.5"/>
<text text-anchor="start" x="505.0449" y="-63.5" font-family="Helvetica,sans-Serif" font-size="10.00" fill="#000000">Iopg::DatabaseIO::get</text>
<text text-anchor="middle" x="553.9658" y="-53.5" font-family="Helvetica,sans-Serif" font-size="10.00" fill="#000000">_field_internal</text>
</a>
</g>
</g>
<!-- Node66&#45;&gt;Node67 -->
<g id="edge18" class="edge">
<title>Node66&#45;&gt;Node67</title>
<path fill="none" stroke="#191970" d="M457.6484,-61.5C470.6964,-61.5 484.2432,-61.5 496.9118,-61.5"/>
<polygon fill="#191970" stroke="#191970" points="457.3175,-58.0001 447.3174,-61.5 457.3174,-65.0001 457.3175,-58.0001"/>
</g>
<!-- Node69 -->
<g id="node15" class="node">
<title>Node69</title>
<g id="a_node15"><a xlink:href="$classIopg_1_1DatabaseIO.html#abfda3501ed8bcf75ec5f0040c935cb8d" xlink:title="Iopg::DatabaseIO::get\l_field_internal">
<polygon fill="#ffffff" stroke="#000000" points="497.0449,-.5 497.0449,-28.5 610.8867,-28.5 610.8867,-.5 497.0449,-.5"/>
<text text-anchor="start" x="505.0449" y="-16.5" font-family="Helvetica,sans-Serif" font-size="10.00" fill="#000000">Iopg::DatabaseIO::get</text>
<text text-anchor="middle" x="553.9658" y="-6.5" font-family="Helvetica,sans-Serif" font-size="10.00" fill="#000000">_field_internal</text>
</a>
</g>
</g>
<!-- Node68&#45;&gt;Node69 -->
<g id="edge20" class="edge">
<title>Node68&#45;&gt;Node69</title>
<path fill="none" stroke="#191970" d="M457.6484,-14.5C470.6964,-14.5 484.2432,-14.5 496.9118,-14.5"/>
<polygon fill="#191970" stroke="#191970" points="457.3175,-11.0001 447.3174,-14.5 457.3174,-18.0001 457.3175,-11.0001"/>
</g>
</g>
</svg>
