<?xml version="1.0" encoding="UTF-8" standalone="no"?>
<!DOCTYPE svg PUBLIC "-//W3C//DTD SVG 1.1//EN"
 "http://www.w3.org/Graphics/SVG/1.1/DTD/svg11.dtd">
<!-- Generated by graphviz version 2.40.1 (20161225.0304)
 -->
<!-- Title: anonymous_namespace{Iocgns_DecompositionData::C}::zoltan_obj_list Pages: 1 -->
<svg width="324pt" height="84pt"
 viewBox="0.00 0.00 323.92 84.00" xmlns="http://www.w3.org/2000/svg" xmlns:xlink="http://www.w3.org/1999/xlink">
<g id="graph0" class="graph" transform="scale(1 1) rotate(0) translate(4 80)">
<title>anonymous_namespace{Iocgns_DecompositionData::C}::zoltan_obj_list</title>
<polygon fill="#ffffff" stroke="transparent" points="-4,4 -4,-80 319.915,-80 319.915,4 -4,4"/>
<!-- Node28 -->
<g id="node1" class="node">
<title>Node28</title>
<polygon fill="#bfbfbf" stroke="#000000" points="0,-18.5 0,-56.5 141.6299,-56.5 141.6299,-18.5 0,-18.5"/>
<text text-anchor="start" x="8" y="-44.5" font-family="Helvetica,sans-Serif" font-size="10.00" fill="#000000">anonymous_namespace</text>
<text text-anchor="start" x="8" y="-34.5" font-family="Helvetica,sans-Serif" font-size="10.00" fill="#000000">{Iocgns_DecompositionData</text>
<text text-anchor="middle" x="70.8149" y="-24.5" font-family="Helvetica,sans-Serif" font-size="10.00" fill="#000000">::C}::zoltan_obj_list</text>
</g>
<!-- Node29 -->
<g id="node2" class="node">
<title>Node29</title>
<g id="a_node2"><a xlink:href="$classIocgns_1_1DecompositionDataBase.html#a3dc1cf7984fab0e70bb2c72a0e531a57" xlink:title="Iocgns::DecompositionData\lBase::decomp_elem_count">
<polygon fill="#ffffff" stroke="#000000" points="177.6299,-47.5 177.6299,-75.5 315.915,-75.5 315.915,-47.5 177.6299,-47.5"/>
<text text-anchor="start" x="185.6299" y="-63.5" font-family="Helvetica,sans-Serif" font-size="10.00" fill="#000000">Iocgns::DecompositionData</text>
<text text-anchor="middle" x="246.7725" y="-53.5" font-family="Helvetica,sans-Serif" font-size="10.00" fill="#000000">Base::decomp_elem_count</text>
</a>
</g>
</g>
<!-- Node28&#45;&gt;Node29 -->
<g id="edge1" class="edge">
<title>Node28&#45;&gt;Node29</title>
<path fill="none" stroke="#191970" d="M141.8764,-47.1925C150.3086,-48.3427 158.9563,-49.5222 167.4936,-50.6866"/>
<polygon fill="#191970" stroke="#191970" points="167.0642,-54.1604 177.4455,-52.044 168.0103,-47.2246 167.0642,-54.1604"/>
</g>
<!-- Node30 -->
<g id="node3" class="node">
<title>Node30</title>
<g id="a_node3"><a xlink:href="$classIocgns_1_1DecompositionDataBase.html#ae02b0442c57571d2a8b946f0fc55a94a" xlink:title="Iocgns::DecompositionData\lBase::decomp_elem_offset">
<polygon fill="#ffffff" stroke="#000000" points="177.6299,-.5 177.6299,-28.5 315.915,-28.5 315.915,-.5 177.6299,-.5"/>
<text text-anchor="start" x="185.6299" y="-16.5" font-family="Helvetica,sans-Serif" font-size="10.00" fill="#000000">Iocgns::DecompositionData</text>
<text text-anchor="middle" x="246.7725" y="-6.5" font-family="Helvetica,sans-Serif" font-size="10.00" fill="#000000">Base::decomp_elem_offset</text>
</a>
</g>
</g>
<!-- Node28&#45;&gt;Node30 -->
<g id="edge2" class="edge">
<title>Node28&#45;&gt;Node30</title>
<path fill="none" stroke="#191970" d="M141.8764,-28.2113C150.3086,-27.1091 158.9563,-25.9787 167.4936,-24.8628"/>
<polygon fill="#191970" stroke="#191970" points="167.9835,-28.3286 177.4455,-23.562 167.0762,-21.3877 167.9835,-28.3286"/>
</g>
</g>
</svg>
