<?xml version="1.0" encoding="UTF-8" standalone="no"?>
<!DOCTYPE svg PUBLIC "-//W3C//DTD SVG 1.1//EN"
 "http://www.w3.org/Graphics/SVG/1.1/DTD/svg11.dtd">
<!-- Generated by graphviz version 2.40.1 (20161225.0304)
 -->
<!-- Title: anonymous_namespace{Iopg_DatabaseIO::C}::get_file_pointer Pages: 1 -->
<svg width="461pt" height="452pt"
 viewBox="0.00 0.00 460.98 452.00" xmlns="http://www.w3.org/2000/svg" xmlns:xlink="http://www.w3.org/1999/xlink">
<g id="graph0" class="graph" transform="scale(1 1) rotate(0) translate(4 448)">
<title>anonymous_namespace{Iopg_DatabaseIO::C}::get_file_pointer</title>
<polygon fill="#ffffff" stroke="transparent" points="-4,4 -4,-448 456.9834,-448 456.9834,4 -4,4"/>
<!-- Node1 -->
<g id="node1" class="node">
<title>Node1</title>
<polygon fill="#bfbfbf" stroke="#000000" points="0,-198.5 0,-236.5 124.96,-236.5 124.96,-198.5 0,-198.5"/>
<text text-anchor="start" x="8" y="-224.5" font-family="Helvetica,sans-Serif" font-size="10.00" fill="#000000">anonymous_namespace</text>
<text text-anchor="start" x="8" y="-214.5" font-family="Helvetica,sans-Serif" font-size="10.00" fill="#000000">{Iopg_DatabaseIO::C}</text>
<text text-anchor="middle" x="62.48" y="-204.5" font-family="Helvetica,sans-Serif" font-size="10.00" fill="#000000">::get_file_pointer</text>
</g>
<!-- Node2 -->
<g id="node2" class="node">
<title>Node2</title>
<g id="a_node2"><a xlink:href="$classIopg_1_1DatabaseIO.html#ac6b7f26f68f746292c1fd44f2b065f66" xlink:title="Iopg::DatabaseIO::read\l_region">
<polygon fill="#ffffff" stroke="#000000" points="169.0166,-415.5 169.0166,-443.5 288.9717,-443.5 288.9717,-415.5 169.0166,-415.5"/>
<text text-anchor="start" x="177.0166" y="-431.5" font-family="Helvetica,sans-Serif" font-size="10.00" fill="#000000">Iopg::DatabaseIO::read</text>
<text text-anchor="middle" x="228.9941" y="-421.5" font-family="Helvetica,sans-Serif" font-size="10.00" fill="#000000">_region</text>
</a>
</g>
</g>
<!-- Node1&#45;&gt;Node2 -->
<g id="edge1" class="edge">
<title>Node1&#45;&gt;Node2</title>
<path fill="none" stroke="#191970" d="M70.0385,-246.2887C82.3123,-287.5363 110.4424,-363.2344 160.96,-406.5 165.032,-409.9875 169.6555,-412.9523 174.5305,-415.4716"/>
<polygon fill="#191970" stroke="#191970" points="73.3768,-245.2326 67.2557,-236.585 66.648,-247.1624 73.3768,-245.2326"/>
</g>
<!-- Node4 -->
<g id="node4" class="node">
<title>Node4</title>
<g id="a_node4"><a xlink:href="$classIopg_1_1DatabaseIO.html#a02aec9baa888a253fa6e35ce7f7b3e7a" xlink:title="Iopg::DatabaseIO::read\l_communication_metadata">
<polygon fill="#ffffff" stroke="#000000" points="160.96,-368.5 160.96,-396.5 297.0283,-396.5 297.0283,-368.5 160.96,-368.5"/>
<text text-anchor="start" x="168.96" y="-384.5" font-family="Helvetica,sans-Serif" font-size="10.00" fill="#000000">Iopg::DatabaseIO::read</text>
<text text-anchor="middle" x="228.9941" y="-374.5" font-family="Helvetica,sans-Serif" font-size="10.00" fill="#000000">_communication_metadata</text>
</a>
</g>
</g>
<!-- Node1&#45;&gt;Node4 -->
<g id="edge3" class="edge">
<title>Node1&#45;&gt;Node4</title>
<path fill="none" stroke="#191970" d="M75.2116,-245.7537C90.9849,-277.7187 120.7727,-329.2516 160.96,-359.5 165.5423,-362.9491 170.6746,-365.9013 176.0111,-368.4238"/>
<polygon fill="#191970" stroke="#191970" points="78.2549,-244.0058 70.7704,-236.507 71.945,-247.0365 78.2549,-244.0058"/>
</g>
<!-- Node5 -->
<g id="node5" class="node">
<title>Node5</title>
<g id="a_node5"><a xlink:href="$classIopg_1_1DatabaseIO.html#a36f29abdd07a99a8a308dfd3c54470a9" xlink:title="Iopg::DatabaseIO::get\l_elemblocks">
<polygon fill="#ffffff" stroke="#000000" points="172.0732,-321.5 172.0732,-349.5 285.915,-349.5 285.915,-321.5 172.0732,-321.5"/>
<text text-anchor="start" x="180.0732" y="-337.5" font-family="Helvetica,sans-Serif" font-size="10.00" fill="#000000">Iopg::DatabaseIO::get</text>
<text text-anchor="middle" x="228.9941" y="-327.5" font-family="Helvetica,sans-Serif" font-size="10.00" fill="#000000">_elemblocks</text>
</a>
</g>
</g>
<!-- Node1&#45;&gt;Node5 -->
<g id="edge5" class="edge">
<title>Node1&#45;&gt;Node5</title>
<path fill="none" stroke="#191970" d="M84.5392,-244.5437C103.0111,-265.64 131.0894,-294.3212 160.96,-312.5 166.4984,-315.8706 172.5939,-318.8209 178.7917,-321.3825"/>
<polygon fill="#191970" stroke="#191970" points="87.117,-242.1732 77.9464,-236.8675 81.8067,-246.734 87.117,-242.1732"/>
</g>
<!-- Node6 -->
<g id="node6" class="node">
<title>Node6</title>
<g id="a_node6"><a xlink:href="$classIopg_1_1DatabaseIO.html#ae38a9dc9b70ff4ff895a564304f85e53" xlink:title="Iopg::DatabaseIO::get\l_nodesets">
<polygon fill="#ffffff" stroke="#000000" points="172.0732,-274.5 172.0732,-302.5 285.915,-302.5 285.915,-274.5 172.0732,-274.5"/>
<text text-anchor="start" x="180.0732" y="-290.5" font-family="Helvetica,sans-Serif" font-size="10.00" fill="#000000">Iopg::DatabaseIO::get</text>
<text text-anchor="middle" x="228.9941" y="-280.5" font-family="Helvetica,sans-Serif" font-size="10.00" fill="#000000">_nodesets</text>
</a>
</g>
</g>
<!-- Node1&#45;&gt;Node6 -->
<g id="edge7" class="edge">
<title>Node1&#45;&gt;Node6</title>
<path fill="none" stroke="#191970" d="M108.2786,-241.3267C124.6887,-249.461 143.4586,-258.3108 160.96,-265.5 168.5718,-268.6268 176.7808,-271.6701 184.7732,-274.4651"/>
<polygon fill="#191970" stroke="#191970" points="109.4254,-237.9867 98.9168,-236.638 106.2907,-244.2456 109.4254,-237.9867"/>
</g>
<!-- Node7 -->
<g id="node7" class="node">
<title>Node7</title>
<g id="a_node7"><a xlink:href="$classIopg_1_1DatabaseIO.html#aaf02f16f04c392b30c2013ca50af68c2" xlink:title="Iopg::DatabaseIO::get\l_commsets">
<polygon fill="#ffffff" stroke="#000000" points="172.0732,-227.5 172.0732,-255.5 285.915,-255.5 285.915,-227.5 172.0732,-227.5"/>
<text text-anchor="start" x="180.0732" y="-243.5" font-family="Helvetica,sans-Serif" font-size="10.00" fill="#000000">Iopg::DatabaseIO::get</text>
<text text-anchor="middle" x="228.9941" y="-233.5" font-family="Helvetica,sans-Serif" font-size="10.00" fill="#000000">_commsets</text>
</a>
</g>
</g>
<!-- Node1&#45;&gt;Node7 -->
<g id="edge9" class="edge">
<title>Node1&#45;&gt;Node7</title>
<path fill="none" stroke="#191970" d="M135.5809,-228.0362C147.7737,-229.7935 160.2614,-231.5934 171.9769,-233.282"/>
<polygon fill="#191970" stroke="#191970" points="135.8289,-224.5358 125.4318,-226.5734 134.8302,-231.4642 135.8289,-224.5358"/>
</g>
<!-- Node8 -->
<g id="node8" class="node">
<title>Node8</title>
<g id="a_node8"><a xlink:href="$classIopg_1_1DatabaseIO.html#a3e5db0b0f27c271faa50c1f3250dc30c" xlink:title="Iopg::DatabaseIO::get\l_sidesets">
<polygon fill="#ffffff" stroke="#000000" points="172.0732,-180.5 172.0732,-208.5 285.915,-208.5 285.915,-180.5 172.0732,-180.5"/>
<text text-anchor="start" x="180.0732" y="-196.5" font-family="Helvetica,sans-Serif" font-size="10.00" fill="#000000">Iopg::DatabaseIO::get</text>
<text text-anchor="middle" x="228.9941" y="-186.5" font-family="Helvetica,sans-Serif" font-size="10.00" fill="#000000">_sidesets</text>
</a>
</g>
</g>
<!-- Node1&#45;&gt;Node8 -->
<g id="edge11" class="edge">
<title>Node1&#45;&gt;Node8</title>
<path fill="none" stroke="#191970" d="M135.5809,-207.4028C147.7737,-205.7187 160.2614,-203.9938 171.9769,-202.3756"/>
<polygon fill="#191970" stroke="#191970" points="134.8589,-203.9692 125.4318,-208.8047 135.8167,-210.9034 134.8589,-203.9692"/>
</g>
<!-- Node9 -->
<g id="node9" class="node">
<title>Node9</title>
<g id="a_node9"><a xlink:href="$classIopg_1_1DatabaseIO.html#a62ba6c2ce8a4e0eb9d45e5d1d5f56f85" xlink:title="Iopg::DatabaseIO::get\l_field_internal">
<polygon fill="#ffffff" stroke="#000000" points="336.085,-116.5 336.085,-144.5 449.9268,-144.5 449.9268,-116.5 336.085,-116.5"/>
<text text-anchor="start" x="344.085" y="-132.5" font-family="Helvetica,sans-Serif" font-size="10.00" fill="#000000">Iopg::DatabaseIO::get</text>
<text text-anchor="middle" x="393.0059" y="-122.5" font-family="Helvetica,sans-Serif" font-size="10.00" fill="#000000">_field_internal</text>
</a>
</g>
</g>
<!-- Node1&#45;&gt;Node9 -->
<g id="edge13" class="edge">
<title>Node1&#45;&gt;Node9</title>
<path fill="none" stroke="#191970" d="M107.0083,-193.679C123.567,-185.6359 142.7591,-177.2487 160.96,-171.5 219.0851,-153.1412 288.1569,-142.264 335.7423,-136.3786"/>
<polygon fill="#191970" stroke="#191970" points="104.9925,-190.7721 97.5905,-198.3525 108.1041,-197.0425 104.9925,-190.7721"/>
</g>
<!-- Node10 -->
<g id="node10" class="node">
<title>Node10</title>
<g id="a_node10"><a xlink:href="$classIopg_1_1DatabaseIO.html#ab4852be1ceadbe30a3444f821ca77ec4" xlink:title="Iopg::DatabaseIO::get\l_node_map">
<polygon fill="#ffffff" stroke="#000000" points="172.0732,-94.5 172.0732,-122.5 285.915,-122.5 285.915,-94.5 172.0732,-94.5"/>
<text text-anchor="start" x="180.0732" y="-110.5" font-family="Helvetica,sans-Serif" font-size="10.00" fill="#000000">Iopg::DatabaseIO::get</text>
<text text-anchor="middle" x="228.9941" y="-100.5" font-family="Helvetica,sans-Serif" font-size="10.00" fill="#000000">_node_map</text>
</a>
</g>
</g>
<!-- Node1&#45;&gt;Node10 -->
<g id="edge14" class="edge">
<title>Node1&#45;&gt;Node10</title>
<path fill="none" stroke="#191970" d="M90.3551,-191.302C109.2591,-174.4607 135.3757,-152.9258 160.96,-137.5 170.1964,-131.931 180.6963,-126.8943 190.6362,-122.6403"/>
<polygon fill="#191970" stroke="#191970" points="87.7923,-188.9005 82.7175,-198.2009 92.4845,-194.0951 87.7923,-188.9005"/>
</g>
<!-- Node11 -->
<g id="node11" class="node">
<title>Node11</title>
<g id="a_node11"><a xlink:href="$classIopg_1_1DatabaseIO.html#afed5ce9c44b3a1b3b1e8b46901eb37c7" xlink:title="Iopg::DatabaseIO::get\l_element_map">
<polygon fill="#ffffff" stroke="#000000" points="172.0732,-47.5 172.0732,-75.5 285.915,-75.5 285.915,-47.5 172.0732,-47.5"/>
<text text-anchor="start" x="180.0732" y="-63.5" font-family="Helvetica,sans-Serif" font-size="10.00" fill="#000000">Iopg::DatabaseIO::get</text>
<text text-anchor="middle" x="228.9941" y="-53.5" font-family="Helvetica,sans-Serif" font-size="10.00" fill="#000000">_element_map</text>
</a>
</g>
</g>
<!-- Node1&#45;&gt;Node11 -->
<g id="edge16" class="edge">
<title>Node1&#45;&gt;Node11</title>
<path fill="none" stroke="#191970" d="M77.0677,-189.0103C93.646,-159.2686 123.3509,-113.1801 160.96,-85.5 166.2054,-81.6394 172.1269,-78.357 178.2334,-75.577"/>
<polygon fill="#191970" stroke="#191970" points="73.8555,-187.5911 72.153,-198.0483 80.0051,-190.9352 73.8555,-187.5911"/>
</g>
<!-- Node13 -->
<g id="node13" class="node">
<title>Node13</title>
<g id="a_node13"><a xlink:href="$classIopg_1_1DatabaseIO.html#aefa6449ee83e88ef7cc98ac7f4c8ac4d" xlink:title="Iopg::DatabaseIO::get\l_side_connectivity">
<polygon fill="#ffffff" stroke="#000000" points="172.0732,-.5 172.0732,-28.5 285.915,-28.5 285.915,-.5 172.0732,-.5"/>
<text text-anchor="start" x="180.0732" y="-16.5" font-family="Helvetica,sans-Serif" font-size="10.00" fill="#000000">Iopg::DatabaseIO::get</text>
<text text-anchor="middle" x="228.9941" y="-6.5" font-family="Helvetica,sans-Serif" font-size="10.00" fill="#000000">_side_connectivity</text>
</a>
</g>
</g>
<!-- Node1&#45;&gt;Node13 -->
<g id="edge18" class="edge">
<title>Node1&#45;&gt;Node13</title>
<path fill="none" stroke="#191970" d="M70.8069,-188.9057C83.7478,-149.3613 112.3851,-78.2556 160.96,-37.5 165.0671,-34.054 169.714,-31.1167 174.6034,-28.6145"/>
<polygon fill="#191970" stroke="#191970" points="67.4591,-187.8843 67.7815,-198.4742 74.1335,-189.9947 67.4591,-187.8843"/>
</g>
<!-- Node3 -->
<g id="node3" class="node">
<title>Node3</title>
<g id="a_node3"><a xlink:href="$classIopg_1_1DatabaseIO.html#a375a536391f7a2c94d0dfd5beccbc284" xlink:title="Iopg::DatabaseIO::read\l_meta_data__">
<polygon fill="#ffffff" stroke="#000000" points="333.0283,-297.5 333.0283,-325.5 452.9834,-325.5 452.9834,-297.5 333.0283,-297.5"/>
<text text-anchor="start" x="341.0283" y="-313.5" font-family="Helvetica,sans-Serif" font-size="10.00" fill="#000000">Iopg::DatabaseIO::read</text>
<text text-anchor="middle" x="393.0059" y="-303.5" font-family="Helvetica,sans-Serif" font-size="10.00" fill="#000000">_meta_data__</text>
</a>
</g>
</g>
<!-- Node2&#45;&gt;Node3 -->
<g id="edge2" class="edge">
<title>Node2&#45;&gt;Node3</title>
<path fill="none" stroke="#191970" d="M288.3861,-411.2877C291.3702,-409.7975 294.27,-408.2031 297.0283,-406.5 332.9363,-384.3292 365.7985,-346.3695 382.1457,-325.785"/>
<polygon fill="#191970" stroke="#191970" points="286.8905,-408.1228 279.2381,-415.4503 289.7897,-414.4942 286.8905,-408.1228"/>
</g>
<!-- Node4&#45;&gt;Node3 -->
<g id="edge4" class="edge">
<title>Node4&#45;&gt;Node3</title>
<path fill="none" stroke="#191970" d="M283.2456,-364.9157C287.938,-363.1668 292.5867,-361.3511 297.0283,-359.5 321.4477,-349.3229 348.307,-335.6675 367.3862,-325.5238"/>
<polygon fill="#191970" stroke="#191970" points="281.8189,-361.7098 273.605,-368.4017 284.1993,-368.2926 281.8189,-361.7098"/>
</g>
<!-- Node5&#45;&gt;Node3 -->
<g id="edge6" class="edge">
<title>Node5&#45;&gt;Node3</title>
<path fill="none" stroke="#191970" d="M296.3901,-325.6379C308.485,-323.868 321.0181,-322.034 332.8907,-320.2967"/>
<polygon fill="#191970" stroke="#191970" points="295.7453,-322.1949 286.3575,-327.106 296.7589,-329.1211 295.7453,-322.1949"/>
</g>
<!-- Node6&#45;&gt;Node3 -->
<g id="edge8" class="edge">
<title>Node6&#45;&gt;Node3</title>
<path fill="none" stroke="#191970" d="M296.3901,-297.9512C308.485,-299.6473 321.0181,-301.4049 332.8907,-303.0698"/>
<polygon fill="#191970" stroke="#191970" points="296.7467,-294.467 286.3575,-296.5443 295.7745,-301.3992 296.7467,-294.467"/>
</g>
<!-- Node7&#45;&gt;Node3 -->
<g id="edge10" class="edge">
<title>Node7&#45;&gt;Node3</title>
<path fill="none" stroke="#191970" d="M280.438,-258.9821C286.0696,-261.093 291.6917,-263.2874 297.0283,-265.5 320.5833,-275.266 346.633,-287.8701 365.643,-297.4146"/>
<polygon fill="#191970" stroke="#191970" points="281.594,-255.6781 271.0003,-255.5198 279.1831,-262.2499 281.594,-255.6781"/>
</g>
<!-- Node8&#45;&gt;Node3 -->
<g id="edge12" class="edge">
<title>Node8&#45;&gt;Node3</title>
<path fill="none" stroke="#191970" d="M286.5669,-212.7634C290.189,-214.5341 293.7089,-216.4447 297.0283,-218.5 332.3395,-240.3633 365.1943,-277.1205 381.7639,-297.2543"/>
<polygon fill="#191970" stroke="#191970" points="287.9643,-209.5543 277.4083,-208.6475 285.0948,-215.9391 287.9643,-209.5543"/>
</g>
<!-- Node10&#45;&gt;Node9 -->
<g id="edge15" class="edge">
<title>Node10&#45;&gt;Node9</title>
<path fill="none" stroke="#191970" d="M296.301,-117.5283C309.4681,-119.2945 323.1578,-121.1308 335.9519,-122.847"/>
<polygon fill="#191970" stroke="#191970" points="296.7341,-114.0551 286.3575,-116.1945 295.8034,-120.993 296.7341,-114.0551"/>
</g>
<!-- Node12 -->
<g id="node12" class="node">
<title>Node12</title>
<g id="a_node12"><a xlink:href="$classIopg_1_1DatabaseIO.html#af23f5b788a46f1e7f6b611c92d5bc06b" xlink:title="Iopg::DatabaseIO::get\l_field_internal">
<polygon fill="#ffffff" stroke="#000000" points="336.085,-47.5 336.085,-75.5 449.9268,-75.5 449.9268,-47.5 336.085,-47.5"/>
<text text-anchor="start" x="344.085" y="-63.5" font-family="Helvetica,sans-Serif" font-size="10.00" fill="#000000">Iopg::DatabaseIO::get</text>
<text text-anchor="middle" x="393.0059" y="-53.5" font-family="Helvetica,sans-Serif" font-size="10.00" fill="#000000">_field_internal</text>
</a>
</g>
</g>
<!-- Node11&#45;&gt;Node12 -->
<g id="edge17" class="edge">
<title>Node11&#45;&gt;Node12</title>
<path fill="none" stroke="#191970" d="M296.6884,-61.5C309.7364,-61.5 323.2832,-61.5 335.9519,-61.5"/>
<polygon fill="#191970" stroke="#191970" points="296.3575,-58.0001 286.3575,-61.5 296.3574,-65.0001 296.3575,-58.0001"/>
</g>
<!-- Node14 -->
<g id="node14" class="node">
<title>Node14</title>
<g id="a_node14"><a xlink:href="$classIopg_1_1DatabaseIO.html#abfda3501ed8bcf75ec5f0040c935cb8d" xlink:title="Iopg::DatabaseIO::get\l_field_internal">
<polygon fill="#ffffff" stroke="#000000" points="336.085,-.5 336.085,-28.5 449.9268,-28.5 449.9268,-.5 336.085,-.5"/>
<text text-anchor="start" x="344.085" y="-16.5" font-family="Helvetica,sans-Serif" font-size="10.00" fill="#000000">Iopg::DatabaseIO::get</text>
<text text-anchor="middle" x="393.0059" y="-6.5" font-family="Helvetica,sans-Serif" font-size="10.00" fill="#000000">_field_internal</text>
</a>
</g>
</g>
<!-- Node13&#45;&gt;Node14 -->
<g id="edge19" class="edge">
<title>Node13&#45;&gt;Node14</title>
<path fill="none" stroke="#191970" d="M296.6884,-14.5C309.7364,-14.5 323.2832,-14.5 335.9519,-14.5"/>
<polygon fill="#191970" stroke="#191970" points="296.3575,-11.0001 286.3575,-14.5 296.3574,-18.0001 296.3575,-11.0001"/>
</g>
</g>
</svg>
