<?xml version="1.0" encoding="UTF-8" standalone="no"?>
<!DOCTYPE svg PUBLIC "-//W3C//DTD SVG 1.1//EN"
 "http://www.w3.org/Graphics/SVG/1.1/DTD/svg11.dtd">
<!-- Generated by graphviz version 2.40.1 (20161225.0304)
 -->
<!-- Title: anonymous_namespace{Iopg_DatabaseIO::C}::unsupported Pages: 1 -->
<svg width="433pt" height="178pt"
 viewBox="0.00 0.00 432.64 178.00" xmlns="http://www.w3.org/2000/svg" xmlns:xlink="http://www.w3.org/1999/xlink">
<g id="graph0" class="graph" transform="scale(1 1) rotate(0) translate(4 174)">
<title>anonymous_namespace{Iopg_DatabaseIO::C}::unsupported</title>
<polygon fill="#ffffff" stroke="transparent" points="-4,4 -4,-174 428.6436,-174 428.6436,4 -4,4"/>
<!-- Node47 -->
<g id="node1" class="node">
<title>Node47</title>
<polygon fill="#bfbfbf" stroke="#000000" points="0,-65.5 0,-103.5 124.96,-103.5 124.96,-65.5 0,-65.5"/>
<text text-anchor="start" x="8" y="-91.5" font-family="Helvetica,sans-Serif" font-size="10.00" fill="#000000">anonymous_namespace</text>
<text text-anchor="start" x="8" y="-81.5" font-family="Helvetica,sans-Serif" font-size="10.00" fill="#000000">{Iopg_DatabaseIO::C}</text>
<text text-anchor="middle" x="62.48" y="-71.5" font-family="Helvetica,sans-Serif" font-size="10.00" fill="#000000">::unsupported</text>
</g>
<!-- Node48 -->
<g id="node2" class="node">
<title>Node48</title>
<g id="a_node2"><a xlink:href="$classIopg_1_1DatabaseIO.html#abfda3501ed8bcf75ec5f0040c935cb8d" xlink:title="Iopg::DatabaseIO::get\l_field_internal">
<polygon fill="#ffffff" stroke="#000000" points="160.96,-141.5 160.96,-169.5 274.8018,-169.5 274.8018,-141.5 160.96,-141.5"/>
<text text-anchor="start" x="168.96" y="-157.5" font-family="Helvetica,sans-Serif" font-size="10.00" fill="#000000">Iopg::DatabaseIO::get</text>
<text text-anchor="middle" x="217.8809" y="-147.5" font-family="Helvetica,sans-Serif" font-size="10.00" fill="#000000">_field_internal</text>
</a>
</g>
</g>
<!-- Node47&#45;&gt;Node48 -->
<g id="edge1" class="edge">
<title>Node47&#45;&gt;Node48</title>
<path fill="none" stroke="#191970" d="M109.3511,-108.1692C125.5815,-116.145 143.965,-124.9356 160.96,-132.5 167.6787,-135.4905 174.9108,-138.5398 181.8914,-141.399"/>
<polygon fill="#191970" stroke="#191970" points="110.5862,-104.8756 100.0705,-103.5828 107.4848,-111.1511 110.5862,-104.8756"/>
</g>
<!-- Node49 -->
<g id="node3" class="node">
<title>Node49</title>
<g id="a_node3"><a xlink:href="$classIopg_1_1DatabaseIO.html#a4be3b73e94203431da8392c8394b56c8" xlink:title="Iopg::DatabaseIO::put\l_field_internal">
<polygon fill="#ffffff" stroke="#000000" points="160.96,-94.5 160.96,-122.5 274.8018,-122.5 274.8018,-94.5 160.96,-94.5"/>
<text text-anchor="start" x="168.96" y="-110.5" font-family="Helvetica,sans-Serif" font-size="10.00" fill="#000000">Iopg::DatabaseIO::put</text>
<text text-anchor="middle" x="217.8809" y="-100.5" font-family="Helvetica,sans-Serif" font-size="10.00" fill="#000000">_field_internal</text>
</a>
</g>
</g>
<!-- Node47&#45;&gt;Node49 -->
<g id="edge2" class="edge">
<title>Node47&#45;&gt;Node49</title>
<path fill="none" stroke="#191970" d="M135.2779,-95.7429C143.8822,-97.0717 152.567,-98.413 160.908,-99.7012"/>
<polygon fill="#191970" stroke="#191970" points="135.6566,-92.2599 125.2395,-94.1925 134.5881,-99.1779 135.6566,-92.2599"/>
</g>
<!-- Node50 -->
<g id="node4" class="node">
<title>Node50</title>
<g id="a_node4"><a xlink:href="$classIopg_1_1DatabaseIO.html#ab4852be1ceadbe30a3444f821ca77ec4" xlink:title="Iopg::DatabaseIO::get\l_node_map">
<polygon fill="#ffffff" stroke="#000000" points="160.96,-47.5 160.96,-75.5 274.8018,-75.5 274.8018,-47.5 160.96,-47.5"/>
<text text-anchor="start" x="168.96" y="-63.5" font-family="Helvetica,sans-Serif" font-size="10.00" fill="#000000">Iopg::DatabaseIO::get</text>
<text text-anchor="middle" x="217.8809" y="-53.5" font-family="Helvetica,sans-Serif" font-size="10.00" fill="#000000">_node_map</text>
</a>
</g>
</g>
<!-- Node47&#45;&gt;Node50 -->
<g id="edge3" class="edge">
<title>Node47&#45;&gt;Node50</title>
<path fill="none" stroke="#191970" d="M135.2779,-73.7256C143.8822,-72.4521 152.567,-71.1667 160.908,-69.9322"/>
<polygon fill="#191970" stroke="#191970" points="134.6193,-70.2849 125.2395,-75.2113 135.6442,-77.2094 134.6193,-70.2849"/>
</g>
<!-- Node52 -->
<g id="node6" class="node">
<title>Node52</title>
<g id="a_node6"><a xlink:href="$classIopg_1_1DatabaseIO.html#afed5ce9c44b3a1b3b1e8b46901eb37c7" xlink:title="Iopg::DatabaseIO::get\l_element_map">
<polygon fill="#ffffff" stroke="#000000" points="160.96,-.5 160.96,-28.5 274.8018,-28.5 274.8018,-.5 160.96,-.5"/>
<text text-anchor="start" x="168.96" y="-16.5" font-family="Helvetica,sans-Serif" font-size="10.00" fill="#000000">Iopg::DatabaseIO::get</text>
<text text-anchor="middle" x="217.8809" y="-6.5" font-family="Helvetica,sans-Serif" font-size="10.00" fill="#000000">_element_map</text>
</a>
</g>
</g>
<!-- Node47&#45;&gt;Node52 -->
<g id="edge5" class="edge">
<title>Node47&#45;&gt;Node52</title>
<path fill="none" stroke="#191970" d="M112.0323,-60.9068C127.6326,-53.5996 144.9646,-45.6048 160.96,-38.5 168.4089,-35.1914 176.4517,-31.732 184.0793,-28.503"/>
<polygon fill="#191970" stroke="#191970" points="110.1317,-57.9327 102.57,-65.3537 113.1091,-64.268 110.1317,-57.9327"/>
</g>
<!-- Node51 -->
<g id="node5" class="node">
<title>Node51</title>
<g id="a_node5"><a xlink:href="$classIopg_1_1DatabaseIO.html#a62ba6c2ce8a4e0eb9d45e5d1d5f56f85" xlink:title="Iopg::DatabaseIO::get\l_field_internal">
<polygon fill="#ffffff" stroke="#000000" points="310.8018,-47.5 310.8018,-75.5 424.6436,-75.5 424.6436,-47.5 310.8018,-47.5"/>
<text text-anchor="start" x="318.8018" y="-63.5" font-family="Helvetica,sans-Serif" font-size="10.00" fill="#000000">Iopg::DatabaseIO::get</text>
<text text-anchor="middle" x="367.7227" y="-53.5" font-family="Helvetica,sans-Serif" font-size="10.00" fill="#000000">_field_internal</text>
</a>
</g>
</g>
<!-- Node50&#45;&gt;Node51 -->
<g id="edge4" class="edge">
<title>Node50&#45;&gt;Node51</title>
<path fill="none" stroke="#191970" d="M285.1205,-61.5C293.5294,-61.5 302.0687,-61.5 310.3088,-61.5"/>
<polygon fill="#191970" stroke="#191970" points="284.9571,-58.0001 274.9571,-61.5 284.957,-65.0001 284.9571,-58.0001"/>
</g>
<!-- Node53 -->
<g id="node7" class="node">
<title>Node53</title>
<g id="a_node7"><a xlink:href="$classIopg_1_1DatabaseIO.html#af23f5b788a46f1e7f6b611c92d5bc06b" xlink:title="Iopg::DatabaseIO::get\l_field_internal">
<polygon fill="#ffffff" stroke="#000000" points="310.8018,-.5 310.8018,-28.5 424.6436,-28.5 424.6436,-.5 310.8018,-.5"/>
<text text-anchor="start" x="318.8018" y="-16.5" font-family="Helvetica,sans-Serif" font-size="10.00" fill="#000000">Iopg::DatabaseIO::get</text>
<text text-anchor="middle" x="367.7227" y="-6.5" font-family="Helvetica,sans-Serif" font-size="10.00" fill="#000000">_field_internal</text>
</a>
</g>
</g>
<!-- Node52&#45;&gt;Node53 -->
<g id="edge6" class="edge">
<title>Node52&#45;&gt;Node53</title>
<path fill="none" stroke="#191970" d="M285.1205,-14.5C293.5294,-14.5 302.0687,-14.5 310.3088,-14.5"/>
<polygon fill="#191970" stroke="#191970" points="284.9571,-11.0001 274.9571,-14.5 284.957,-18.0001 284.9571,-11.0001"/>
</g>
</g>
</svg>
