<?xml version="1.0" encoding="UTF-8" standalone="no"?>
<!DOCTYPE svg PUBLIC "-//W3C//DTD SVG 1.1//EN"
 "http://www.w3.org/Graphics/SVG/1.1/DTD/svg11.dtd">
<!-- Generated by graphviz version 2.40.1 (20161225.0304)
 -->
<!-- Title: Ioex::set_id Pages: 1 -->
<svg width="546pt" height="168pt"
 viewBox="0.00 0.00 546.33 168.00" xmlns="http://www.w3.org/2000/svg" xmlns:xlink="http://www.w3.org/1999/xlink">
<g id="graph0" class="graph" transform="scale(1 1) rotate(0) translate(4 164)">
<title>Ioex::set_id</title>
<polygon fill="#ffffff" stroke="transparent" points="-4,4 -4,-164 542.333,-164 542.333,4 -4,4"/>
<!-- Node411 -->
<g id="node1" class="node">
<title>Node411</title>
<polygon fill="#bfbfbf" stroke="#000000" points="0,-68.5 0,-86.5 67.1426,-86.5 67.1426,-68.5 0,-68.5"/>
<text text-anchor="middle" x="33.5713" y="-74.5" font-family="Helvetica,sans-Serif" font-size="10.00" fill="#000000">Ioex::set_id</text>
</g>
<!-- Node412 -->
<g id="node2" class="node">
<title>Node412</title>
<g id="a_node2"><a xlink:href="$classIoss_1_1GroupingEntity.html#aef4ddf9b47f28f0fb54a2aa1d352e234" xlink:title="Checks if a property exists in the entity&#39;s property manager. ">
<polygon fill="#ffffff" stroke="#000000" points="106.7559,-131.5 106.7559,-159.5 212.7998,-159.5 212.7998,-131.5 106.7559,-131.5"/>
<text text-anchor="start" x="114.7559" y="-147.5" font-family="Helvetica,sans-Serif" font-size="10.00" fill="#000000">Ioss::GroupingEntity</text>
<text text-anchor="middle" x="159.7778" y="-137.5" font-family="Helvetica,sans-Serif" font-size="10.00" fill="#000000">::property_exists</text>
</a>
</g>
</g>
<!-- Node411&#45;&gt;Node412 -->
<g id="edge1" class="edge">
<title>Node411&#45;&gt;Node412</title>
<path fill="none" stroke="#191970" d="M45.961,-86.5377C59.5502,-96.2028 82.2169,-111.6072 103.1426,-122.5 106.249,-124.117 109.4956,-125.6994 112.7947,-127.2291"/>
<polygon fill="#191970" stroke="#191970" points="111.5983,-130.5273 122.1583,-131.3858 114.4386,-124.1294 111.5983,-130.5273"/>
</g>
<!-- Node413 -->
<g id="node3" class="node">
<title>Node413</title>
<g id="a_node3"><a xlink:href="$classIoss_1_1GroupingEntity.html#a3e8284b8cafbbe1646625124f68a2652" xlink:title="Get the Property from the property manager associated with the entity. ">
<polygon fill="#ffffff" stroke="#000000" points="106.7559,-84.5 106.7559,-112.5 212.7998,-112.5 212.7998,-84.5 106.7559,-84.5"/>
<text text-anchor="start" x="114.7559" y="-100.5" font-family="Helvetica,sans-Serif" font-size="10.00" fill="#000000">Ioss::GroupingEntity</text>
<text text-anchor="middle" x="159.7778" y="-90.5" font-family="Helvetica,sans-Serif" font-size="10.00" fill="#000000">::get_property</text>
</a>
</g>
</g>
<!-- Node411&#45;&gt;Node413 -->
<g id="edge2" class="edge">
<title>Node411&#45;&gt;Node413</title>
<path fill="none" stroke="#191970" d="M67.3923,-83.1276C76.3732,-84.622 86.3709,-86.2855 96.3785,-87.9507"/>
<polygon fill="#191970" stroke="#191970" points="95.9132,-91.4214 106.3521,-89.6103 97.0622,-84.5163 95.9132,-91.4214"/>
</g>
<!-- Node414 -->
<g id="node4" class="node">
<title>Node414</title>
<g id="a_node4"><a xlink:href="$classIoss_1_1Property.html#a45bcbc7137a296f3eda52c92c04da39f" xlink:title="Get the property value if it is of type INTEGER. ">
<polygon fill="#ffffff" stroke="#000000" points="103.1426,-47.5 103.1426,-65.5 216.4131,-65.5 216.4131,-47.5 103.1426,-47.5"/>
<text text-anchor="middle" x="159.7778" y="-53.5" font-family="Helvetica,sans-Serif" font-size="10.00" fill="#000000">Ioss::Property::get_int</text>
</a>
</g>
</g>
<!-- Node411&#45;&gt;Node414 -->
<g id="edge3" class="edge">
<title>Node411&#45;&gt;Node414</title>
<path fill="none" stroke="#191970" d="M67.3923,-71.8724C76.0629,-70.4297 85.6812,-68.8292 95.3412,-67.2219"/>
<polygon fill="#191970" stroke="#191970" points="96.0951,-70.6446 105.385,-65.5506 94.9461,-63.7396 96.0951,-70.6446"/>
</g>
<!-- Node418 -->
<g id="node8" class="node">
<title>Node418</title>
<g id="a_node8"><a xlink:href="$classIoss_1_1GroupingEntity.html#ac351d627076892cb7788b7515b640128" xlink:title="Remove a property from the entity&#39;s property manager. ">
<polygon fill="#ffffff" stroke="#000000" points="106.7559,-.5 106.7559,-28.5 212.7998,-28.5 212.7998,-.5 106.7559,-.5"/>
<text text-anchor="start" x="114.7559" y="-16.5" font-family="Helvetica,sans-Serif" font-size="10.00" fill="#000000">Ioss::GroupingEntity</text>
<text text-anchor="middle" x="159.7778" y="-6.5" font-family="Helvetica,sans-Serif" font-size="10.00" fill="#000000">::property_erase</text>
</a>
</g>
</g>
<!-- Node411&#45;&gt;Node418 -->
<g id="edge7" class="edge">
<title>Node411&#45;&gt;Node418</title>
<path fill="none" stroke="#191970" d="M48.5151,-68.4907C62.4326,-60.2528 83.872,-47.9488 103.1426,-38.5 107.1337,-36.5431 111.3243,-34.588 115.5439,-32.6859"/>
<polygon fill="#191970" stroke="#191970" points="117.0205,-35.8601 124.7617,-28.6265 114.1992,-29.4538 117.0205,-35.8601"/>
</g>
<!-- Node415 -->
<g id="node5" class="node">
<title>Node415</title>
<g id="a_node5"><a xlink:href="$namespaceanonymous__namespace_02Ioss__Property_8C_03.html#a7e9f404cf974920b115b502313608c02" xlink:title="anonymous_namespace\l\{Ioss_Property::C\}::\lerror_message">
<polygon fill="#ffffff" stroke="#000000" points="252.4131,-37.5 252.4131,-75.5 377.373,-75.5 377.373,-37.5 252.4131,-37.5"/>
<text text-anchor="start" x="260.4131" y="-63.5" font-family="Helvetica,sans-Serif" font-size="10.00" fill="#000000">anonymous_namespace</text>
<text text-anchor="start" x="260.4131" y="-53.5" font-family="Helvetica,sans-Serif" font-size="10.00" fill="#000000">{Ioss_Property::C}::</text>
<text text-anchor="middle" x="314.8931" y="-43.5" font-family="Helvetica,sans-Serif" font-size="10.00" fill="#000000">error_message</text>
</a>
</g>
</g>
<!-- Node414&#45;&gt;Node415 -->
<g id="edge4" class="edge">
<title>Node414&#45;&gt;Node415</title>
<path fill="none" stroke="#191970" d="M216.6562,-56.5C224.9838,-56.5 233.6546,-56.5 242.2447,-56.5"/>
<polygon fill="#191970" stroke="#191970" points="242.2664,-60.0001 252.2663,-56.5 242.2663,-53.0001 242.2664,-60.0001"/>
</g>
<!-- Node416 -->
<g id="node6" class="node">
<title>Node416</title>
<g id="a_node6"><a xlink:href="$namespaceanonymous__namespace_02Ioss__Property_8C_03.html#a33c896c06915d8a83ca1d8886b26d8ed" xlink:title="anonymous_namespace\l\{Ioss_Property::C\}::\ltype_string">
<polygon fill="#ffffff" stroke="#000000" points="413.373,-61.5 413.373,-99.5 538.333,-99.5 538.333,-61.5 413.373,-61.5"/>
<text text-anchor="start" x="421.373" y="-87.5" font-family="Helvetica,sans-Serif" font-size="10.00" fill="#000000">anonymous_namespace</text>
<text text-anchor="start" x="421.373" y="-77.5" font-family="Helvetica,sans-Serif" font-size="10.00" fill="#000000">{Ioss_Property::C}::</text>
<text text-anchor="middle" x="475.853" y="-67.5" font-family="Helvetica,sans-Serif" font-size="10.00" fill="#000000">type_string</text>
</a>
</g>
</g>
<!-- Node415&#45;&gt;Node416 -->
<g id="edge5" class="edge">
<title>Node415&#45;&gt;Node416</title>
<path fill="none" stroke="#191970" d="M377.5853,-65.8477C386.0235,-67.1059 394.7363,-68.4051 403.327,-69.686"/>
<polygon fill="#191970" stroke="#191970" points="402.9251,-73.1647 413.3319,-71.1778 403.9574,-66.2412 402.9251,-73.1647"/>
</g>
<!-- Node417 -->
<g id="node7" class="node">
<title>Node417</title>
<g id="a_node7"><a xlink:href="$classIoss_1_1Property.html#a90c992cd11af736282e63e1c34b1c076" xlink:title="Get the property type. ">
<polygon fill="#ffffff" stroke="#000000" points="415.0479,-24.5 415.0479,-42.5 536.6582,-42.5 536.6582,-24.5 415.0479,-24.5"/>
<text text-anchor="middle" x="475.853" y="-30.5" font-family="Helvetica,sans-Serif" font-size="10.00" fill="#000000">Ioss::Property::get_type</text>
</a>
</g>
</g>
<!-- Node415&#45;&gt;Node417 -->
<g id="edge6" class="edge">
<title>Node415&#45;&gt;Node417</title>
<path fill="none" stroke="#191970" d="M377.5853,-47.5417C386.5,-46.2679 395.7212,-44.9503 404.7812,-43.6556"/>
<polygon fill="#191970" stroke="#191970" points="405.5124,-47.0868 414.9167,-42.2074 404.5221,-40.1572 405.5124,-47.0868"/>
</g>
</g>
</svg>
