<?xml version="1.0" encoding="UTF-8" standalone="no"?>
<!DOCTYPE svg PUBLIC "-//W3C//DTD SVG 1.1//EN"
 "http://www.w3.org/Graphics/SVG/1.1/DTD/svg11.dtd">
<!-- Generated by graphviz version 2.40.1 (20161225.0304)
 -->
<!-- Title: anonymous_namespace{Ioss_Utils::C}::transfer_fields Pages: 1 -->
<svg width="875pt" height="588pt"
 viewBox="0.00 0.00 875.45 588.42" xmlns="http://www.w3.org/2000/svg" xmlns:xlink="http://www.w3.org/1999/xlink">
<g id="graph0" class="graph" transform="scale(1 1) rotate(0) translate(4 584.4223)">
<title>anonymous_namespace{Ioss_Utils::C}::transfer_fields</title>
<polygon fill="#ffffff" stroke="transparent" points="-4,4 -4,-584.4223 871.4453,-584.4223 871.4453,4 -4,4"/>
<!-- Node1239 -->
<g id="node1" class="node">
<title>Node1239</title>
<polygon fill="#bfbfbf" stroke="#000000" points="0,-333.4857 0,-371.4857 124.96,-371.4857 124.96,-333.4857 0,-333.4857"/>
<text text-anchor="start" x="8" y="-359.4857" font-family="Helvetica,sans-Serif" font-size="10.00" fill="#000000">anonymous_namespace</text>
<text text-anchor="start" x="8" y="-349.4857" font-family="Helvetica,sans-Serif" font-size="10.00" fill="#000000">{Ioss_Utils::C}::transfer</text>
<text text-anchor="middle" x="62.48" y="-339.4857" font-family="Helvetica,sans-Serif" font-size="10.00" fill="#000000">_fields</text>
</g>
<!-- Node1240 -->
<g id="node2" class="node">
<title>Node1240</title>
<g id="a_node2"><a xlink:href="classIoss_1_1Utils.html#a24de37b7a335e4d98eb046f9ee0adb8d" target="_top" xlink:title="Ioss::Utils::copy_database">
<polygon fill="#ffffff" stroke="#000000" points="500.082,-277.4857 500.082,-295.4857 632.8105,-295.4857 632.8105,-277.4857 500.082,-277.4857"/>
<text text-anchor="middle" x="566.4463" y="-283.4857" font-family="Helvetica,sans-Serif" font-size="10.00" fill="#000000">Ioss::Utils::copy_database</text>
</a>
</g>
</g>
<!-- Node1239&#45;&gt;Node1240 -->
<g id="edge1" class="edge">
<title>Node1239&#45;&gt;Node1240</title>
<path fill="none" stroke="#191970" d="M68.8968,-381.3839C79.8086,-422.743 106.3269,-497.3627 160.96,-529.4857 277.1246,-597.7879 353.0531,-598.8531 464.082,-522.4857 545.0346,-466.8053 562.4486,-332.5336 565.7454,-295.8708"/>
<polygon fill="#191970" stroke="#191970" points="72.2785,-380.48 66.4512,-371.6317 65.4888,-382.1827 72.2785,-380.48"/>
</g>
<!-- Node1243 -->
<g id="node5" class="node">
<title>Node1243</title>
<g id="a_node5"><a xlink:href="namespaceanonymous__namespace_02Ioss__Utils_8C_03.html#af46caf2c983b2f70978a4d84ab260e1b" target="_top" xlink:title="anonymous_namespace\l\{Ioss_Utils::C\}::transfer\l_nodeblock">
<polygon fill="#ffffff" stroke="#000000" points="169.561,-481.4857 169.561,-519.4857 294.521,-519.4857 294.521,-481.4857 169.561,-481.4857"/>
<text text-anchor="start" x="177.561" y="-507.4857" font-family="Helvetica,sans-Serif" font-size="10.00" fill="#000000">anonymous_namespace</text>
<text text-anchor="start" x="177.561" y="-497.4857" font-family="Helvetica,sans-Serif" font-size="10.00" fill="#000000">{Ioss_Utils::C}::transfer</text>
<text text-anchor="middle" x="232.041" y="-487.4857" font-family="Helvetica,sans-Serif" font-size="10.00" fill="#000000">_nodeblock</text>
</a>
</g>
</g>
<!-- Node1239&#45;&gt;Node1243 -->
<g id="edge4" class="edge">
<title>Node1239&#45;&gt;Node1243</title>
<path fill="none" stroke="#191970" d="M80.9841,-380.2516C98.994,-405.5972 128.3561,-442.7701 160.96,-467.4857 167.7906,-472.6638 175.5642,-477.2918 183.4028,-481.3269"/>
<polygon fill="#191970" stroke="#191970" points="83.6932,-378.0177 75.1005,-371.8196 77.9526,-382.0234 83.6932,-378.0177"/>
</g>
<!-- Node1244 -->
<g id="node6" class="node">
<title>Node1244</title>
<g id="a_node6"><a xlink:href="namespaceanonymous__namespace_02Ioss__Utils_8C_03.html#aa7f2b0352e98f5a2e013d4be71012db2" target="_top" xlink:title="anonymous_namespace\l\{Ioss_Utils::C\}::transfer\l_fields">
<polygon fill="#ffffff" stroke="#000000" points="169.561,-419.4857 169.561,-457.4857 294.521,-457.4857 294.521,-419.4857 169.561,-419.4857"/>
<text text-anchor="start" x="177.561" y="-445.4857" font-family="Helvetica,sans-Serif" font-size="10.00" fill="#000000">anonymous_namespace</text>
<text text-anchor="start" x="177.561" y="-435.4857" font-family="Helvetica,sans-Serif" font-size="10.00" fill="#000000">{Ioss_Utils::C}::transfer</text>
<text text-anchor="middle" x="232.041" y="-425.4857" font-family="Helvetica,sans-Serif" font-size="10.00" fill="#000000">_fields</text>
</a>
</g>
</g>
<!-- Node1239&#45;&gt;Node1244 -->
<g id="edge6" class="edge">
<title>Node1239&#45;&gt;Node1244</title>
<path fill="none" stroke="#191970" d="M100.9485,-377.041C118.8346,-387.9602 140.6094,-400.5609 160.96,-410.4857 167.2782,-413.5671 174.027,-416.5727 180.7572,-419.4019"/>
<polygon fill="#191970" stroke="#191970" points="102.3264,-373.7786 91.9779,-371.5073 98.6513,-379.7363 102.3264,-373.7786"/>
</g>
<!-- Node1245 -->
<g id="node7" class="node">
<title>Node1245</title>
<g id="a_node7"><a xlink:href="namespaceanonymous__namespace_02Ioss__Utils_8C_03.html#ab68ed68d0e01f58f5366078a3168a0bc" target="_top" xlink:title="anonymous_namespace\l\{Ioss_Utils::C\}::transfer\l_blocks">
<polygon fill="#ffffff" stroke="#000000" points="169.561,-362.4857 169.561,-400.4857 294.521,-400.4857 294.521,-362.4857 169.561,-362.4857"/>
<text text-anchor="start" x="177.561" y="-388.4857" font-family="Helvetica,sans-Serif" font-size="10.00" fill="#000000">anonymous_namespace</text>
<text text-anchor="start" x="177.561" y="-378.4857" font-family="Helvetica,sans-Serif" font-size="10.00" fill="#000000">{Ioss_Utils::C}::transfer</text>
<text text-anchor="middle" x="232.041" y="-368.4857" font-family="Helvetica,sans-Serif" font-size="10.00" fill="#000000">_blocks</text>
</a>
</g>
</g>
<!-- Node1239&#45;&gt;Node1245 -->
<g id="edge7" class="edge">
<title>Node1239&#45;&gt;Node1245</title>
<path fill="none" stroke="#191970" d="M135.0673,-364.9003C146.4804,-366.8523 158.1946,-368.8558 169.3591,-370.7652"/>
<polygon fill="#191970" stroke="#191970" points="135.5834,-361.4379 125.1365,-363.2019 134.4033,-368.3377 135.5834,-361.4379"/>
</g>
<!-- Node1249 -->
<g id="node11" class="node">
<title>Node1249</title>
<g id="a_node11"><a xlink:href="namespaceanonymous__namespace_02Ioss__Utils_8C_03.html#ab0e8a449226a3db31ec0ede099c99b90" target="_top" xlink:title="anonymous_namespace\l\{Ioss_Utils::C\}::transfer\l_structuredblocks">
<polygon fill="#ffffff" stroke="#000000" points="169.561,-305.4857 169.561,-343.4857 294.521,-343.4857 294.521,-305.4857 169.561,-305.4857"/>
<text text-anchor="start" x="177.561" y="-331.4857" font-family="Helvetica,sans-Serif" font-size="10.00" fill="#000000">anonymous_namespace</text>
<text text-anchor="start" x="177.561" y="-321.4857" font-family="Helvetica,sans-Serif" font-size="10.00" fill="#000000">{Ioss_Utils::C}::transfer</text>
<text text-anchor="middle" x="232.041" y="-311.4857" font-family="Helvetica,sans-Serif" font-size="10.00" fill="#000000">_structuredblocks</text>
</a>
</g>
</g>
<!-- Node1239&#45;&gt;Node1249 -->
<g id="edge14" class="edge">
<title>Node1239&#45;&gt;Node1249</title>
<path fill="none" stroke="#191970" d="M135.0673,-340.4992C146.4804,-338.6145 158.1946,-336.6802 169.3591,-334.8365"/>
<polygon fill="#191970" stroke="#191970" points="134.4326,-337.0565 125.1365,-342.1391 135.5732,-343.963 134.4326,-337.0565"/>
</g>
<!-- Node1250 -->
<g id="node12" class="node">
<title>Node1250</title>
<g id="a_node12"><a xlink:href="namespaceanonymous__namespace_02Ioss__Utils_8C_03.html#a063a389cccfe5ca32f74f20ea02b0b46" target="_top" xlink:title="anonymous_namespace\l\{Ioss_Utils::C\}::transfer\l_sidesets">
<polygon fill="#ffffff" stroke="#000000" points="169.561,-248.4857 169.561,-286.4857 294.521,-286.4857 294.521,-248.4857 169.561,-248.4857"/>
<text text-anchor="start" x="177.561" y="-274.4857" font-family="Helvetica,sans-Serif" font-size="10.00" fill="#000000">anonymous_namespace</text>
<text text-anchor="start" x="177.561" y="-264.4857" font-family="Helvetica,sans-Serif" font-size="10.00" fill="#000000">{Ioss_Utils::C}::transfer</text>
<text text-anchor="middle" x="232.041" y="-254.4857" font-family="Helvetica,sans-Serif" font-size="10.00" fill="#000000">_sidesets</text>
</a>
</g>
</g>
<!-- Node1239&#45;&gt;Node1250 -->
<g id="edge16" class="edge">
<title>Node1239&#45;&gt;Node1250</title>
<path fill="none" stroke="#191970" d="M102.7135,-328.0389C120.313,-317.7572 141.3752,-305.9996 160.96,-296.4857 167.9132,-293.108 175.3644,-289.7722 182.7309,-286.6327"/>
<polygon fill="#191970" stroke="#191970" points="100.6901,-325.1687 93.8519,-333.2613 104.2442,-331.1994 100.6901,-325.1687"/>
</g>
<!-- Node1251 -->
<g id="node13" class="node">
<title>Node1251</title>
<g id="a_node13"><a xlink:href="namespaceanonymous__namespace_02Ioss__Utils_8C_03.html#a78a0feaae2c51ba6d468564d94375a4d" target="_top" xlink:title="anonymous_namespace\l\{Ioss_Utils::C\}::transfer_sets">
<polygon fill="#ffffff" stroke="#000000" points="160.96,-148.4857 160.96,-176.4857 303.1221,-176.4857 303.1221,-148.4857 160.96,-148.4857"/>
<text text-anchor="start" x="168.96" y="-164.4857" font-family="Helvetica,sans-Serif" font-size="10.00" fill="#000000">anonymous_namespace</text>
<text text-anchor="middle" x="232.041" y="-154.4857" font-family="Helvetica,sans-Serif" font-size="10.00" fill="#000000">{Ioss_Utils::C}::transfer_sets</text>
</a>
</g>
</g>
<!-- Node1239&#45;&gt;Node1251 -->
<g id="edge18" class="edge">
<title>Node1239&#45;&gt;Node1251</title>
<path fill="none" stroke="#191970" d="M85.633,-325.4834C105.4553,-302.4711 134.8471,-268.5975 160.96,-239.4857 180.8827,-217.2749 204.4511,-191.9209 218.8179,-176.5662"/>
<polygon fill="#191970" stroke="#191970" points="82.9105,-323.2814 79.0418,-333.1446 88.2169,-327.8467 82.9105,-323.2814"/>
</g>
<!-- Node1256 -->
<g id="node18" class="node">
<title>Node1256</title>
<g id="a_node18"><a xlink:href="namespaceanonymous__namespace_02Ioss__Utils_8C_03.html#a151509c28f661d1c8e35f397ee56bcdf" target="_top" xlink:title="anonymous_namespace\l\{Ioss_Utils::C\}::transfer\l_commsets">
<polygon fill="#ffffff" stroke="#000000" points="169.561,-36.4857 169.561,-74.4857 294.521,-74.4857 294.521,-36.4857 169.561,-36.4857"/>
<text text-anchor="start" x="177.561" y="-62.4857" font-family="Helvetica,sans-Serif" font-size="10.00" fill="#000000">anonymous_namespace</text>
<text text-anchor="start" x="177.561" y="-52.4857" font-family="Helvetica,sans-Serif" font-size="10.00" fill="#000000">{Ioss_Utils::C}::transfer</text>
<text text-anchor="middle" x="232.041" y="-42.4857" font-family="Helvetica,sans-Serif" font-size="10.00" fill="#000000">_commsets</text>
</a>
</g>
</g>
<!-- Node1239&#45;&gt;Node1256 -->
<g id="edge27" class="edge">
<title>Node1239&#45;&gt;Node1256</title>
<path fill="none" stroke="#191970" d="M72.9009,-323.765C88.8087,-281.632 121.4986,-201.3664 160.96,-139.4857 176.2649,-115.4855 197.8334,-90.9672 213.1895,-74.6642"/>
<polygon fill="#191970" stroke="#191970" points="69.531,-322.7849 69.3139,-333.3775 76.0893,-325.2322 69.531,-322.7849"/>
</g>
<!-- Node1241 -->
<g id="node3" class="node">
<title>Node1241</title>
<g id="a_node3"><a xlink:href="namespaceanonymous__namespace_02io__shell_8C_03.html#a3614c6356ba84d7eb73b876e616107bd" target="_top" xlink:title="anonymous_namespace\l\{io_shell::C\}::file_copy">
<polygon fill="#ffffff" stroke="#000000" points="668.8105,-272.4857 668.8105,-300.4857 793.7705,-300.4857 793.7705,-272.4857 668.8105,-272.4857"/>
<text text-anchor="start" x="676.8105" y="-288.4857" font-family="Helvetica,sans-Serif" font-size="10.00" fill="#000000">anonymous_namespace</text>
<text text-anchor="middle" x="731.2905" y="-278.4857" font-family="Helvetica,sans-Serif" font-size="10.00" fill="#000000">{io_shell::C}::file_copy</text>
</a>
</g>
</g>
<!-- Node1240&#45;&gt;Node1241 -->
<g id="edge2" class="edge">
<title>Node1240&#45;&gt;Node1241</title>
<path fill="none" stroke="#191970" d="M643.0558,-286.4857C651.6577,-286.4857 660.3443,-286.4857 668.7386,-286.4857"/>
<polygon fill="#191970" stroke="#191970" points="643.0196,-282.9858 633.0196,-286.4857 643.0196,-289.9858 643.0196,-282.9858"/>
</g>
<!-- Node1242 -->
<g id="node4" class="node">
<title>Node1242</title>
<g id="a_node4"><a xlink:href="io__shell_8C.html#a0ddf1224851353fc92bfbff6f499fa97" target="_top" xlink:title="main">
<polygon fill="#ffffff" stroke="#000000" points="829.7705,-277.4857 829.7705,-295.4857 867.4453,-295.4857 867.4453,-277.4857 829.7705,-277.4857"/>
<text text-anchor="middle" x="848.6079" y="-283.4857" font-family="Helvetica,sans-Serif" font-size="10.00" fill="#000000">main</text>
</a>
</g>
</g>
<!-- Node1241&#45;&gt;Node1242 -->
<g id="edge3" class="edge">
<title>Node1241&#45;&gt;Node1242</title>
<path fill="none" stroke="#191970" d="M804.2979,-286.4857C813.5823,-286.4857 822.3558,-286.4857 829.6081,-286.4857"/>
<polygon fill="#191970" stroke="#191970" points="804.0707,-282.9858 794.0706,-286.4857 804.0706,-289.9858 804.0707,-282.9858"/>
</g>
<!-- Node1243&#45;&gt;Node1240 -->
<g id="edge5" class="edge">
<title>Node1243&#45;&gt;Node1240</title>
<path fill="none" stroke="#191970" d="M304.9167,-517.8091C353.6961,-525.1939 417.2887,-526.2968 464.082,-496.4857 538.6534,-448.9779 560.4507,-330.0985 565.2787,-295.853"/>
<polygon fill="#191970" stroke="#191970" points="305.1776,-514.3054 294.744,-516.1468 304.0486,-521.2138 305.1776,-514.3054"/>
</g>
<!-- Node1246 -->
<g id="node8" class="node">
<title>Node1246</title>
<g id="a_node8"><a xlink:href="namespaceanonymous__namespace_02Ioss__Utils_8C_03.html#a6d3fdbc3eae857b352c42cdb6eb0feb9" target="_top" xlink:title="anonymous_namespace\l\{Ioss_Utils::C\}::transfer\l_elementblocks">
<polygon fill="#ffffff" stroke="#000000" points="339.1221,-448.4857 339.1221,-486.4857 464.082,-486.4857 464.082,-448.4857 339.1221,-448.4857"/>
<text text-anchor="start" x="347.1221" y="-474.4857" font-family="Helvetica,sans-Serif" font-size="10.00" fill="#000000">anonymous_namespace</text>
<text text-anchor="start" x="347.1221" y="-464.4857" font-family="Helvetica,sans-Serif" font-size="10.00" fill="#000000">{Ioss_Utils::C}::transfer</text>
<text text-anchor="middle" x="401.6021" y="-454.4857" font-family="Helvetica,sans-Serif" font-size="10.00" fill="#000000">_elementblocks</text>
</a>
</g>
</g>
<!-- Node1245&#45;&gt;Node1246 -->
<g id="edge8" class="edge">
<title>Node1245&#45;&gt;Node1246</title>
<path fill="none" stroke="#191970" d="M293.0498,-404.9811C296.5081,-406.7422 299.8895,-408.5797 303.1221,-410.4857 320.8204,-420.9209 321.6033,-428.7518 339.1221,-439.4857 344.2911,-442.6529 349.8804,-445.6694 355.5172,-448.4696"/>
<polygon fill="#191970" stroke="#191970" points="294.2927,-401.6948 283.765,-400.5035 291.252,-408 294.2927,-401.6948"/>
</g>
<!-- Node1247 -->
<g id="node9" class="node">
<title>Node1247</title>
<g id="a_node9"><a xlink:href="namespaceanonymous__namespace_02Ioss__Utils_8C_03.html#a5879e34f5d89467d155ac029c9a3c241" target="_top" xlink:title="anonymous_namespace\l\{Ioss_Utils::C\}::transfer\l_edgeblocks">
<polygon fill="#ffffff" stroke="#000000" points="339.1221,-391.4857 339.1221,-429.4857 464.082,-429.4857 464.082,-391.4857 339.1221,-391.4857"/>
<text text-anchor="start" x="347.1221" y="-417.4857" font-family="Helvetica,sans-Serif" font-size="10.00" fill="#000000">anonymous_namespace</text>
<text text-anchor="start" x="347.1221" y="-407.4857" font-family="Helvetica,sans-Serif" font-size="10.00" fill="#000000">{Ioss_Utils::C}::transfer</text>
<text text-anchor="middle" x="401.6021" y="-397.4857" font-family="Helvetica,sans-Serif" font-size="10.00" fill="#000000">_edgeblocks</text>
</a>
</g>
</g>
<!-- Node1245&#45;&gt;Node1247 -->
<g id="edge10" class="edge">
<title>Node1245&#45;&gt;Node1247</title>
<path fill="none" stroke="#191970" d="M304.6283,-393.9003C316.0414,-395.8523 327.7556,-397.8558 338.9201,-399.7652"/>
<polygon fill="#191970" stroke="#191970" points="305.1445,-390.4379 294.6975,-392.2019 303.9643,-397.3377 305.1445,-390.4379"/>
</g>
<!-- Node1248 -->
<g id="node10" class="node">
<title>Node1248</title>
<g id="a_node10"><a xlink:href="namespaceanonymous__namespace_02Ioss__Utils_8C_03.html#ab978091073327f109717facebe2bb5d9" target="_top" xlink:title="anonymous_namespace\l\{Ioss_Utils::C\}::transfer\l_faceblocks">
<polygon fill="#ffffff" stroke="#000000" points="339.1221,-334.4857 339.1221,-372.4857 464.082,-372.4857 464.082,-334.4857 339.1221,-334.4857"/>
<text text-anchor="start" x="347.1221" y="-360.4857" font-family="Helvetica,sans-Serif" font-size="10.00" fill="#000000">anonymous_namespace</text>
<text text-anchor="start" x="347.1221" y="-350.4857" font-family="Helvetica,sans-Serif" font-size="10.00" fill="#000000">{Ioss_Utils::C}::transfer</text>
<text text-anchor="middle" x="401.6021" y="-340.4857" font-family="Helvetica,sans-Serif" font-size="10.00" fill="#000000">_faceblocks</text>
</a>
</g>
</g>
<!-- Node1245&#45;&gt;Node1248 -->
<g id="edge12" class="edge">
<title>Node1245&#45;&gt;Node1248</title>
<path fill="none" stroke="#191970" d="M304.6283,-369.4992C316.0414,-367.6145 327.7556,-365.6802 338.9201,-363.8365"/>
<polygon fill="#191970" stroke="#191970" points="303.9937,-366.0565 294.6975,-371.1391 305.1342,-372.963 303.9937,-366.0565"/>
</g>
<!-- Node1246&#45;&gt;Node1240 -->
<g id="edge9" class="edge">
<title>Node1246&#45;&gt;Node1240</title>
<path fill="none" stroke="#191970" d="M459.9055,-442.7742C461.3439,-441.7152 462.7396,-440.6193 464.082,-439.4857 515.1167,-396.3926 551.0491,-321.685 562.5228,-295.7059"/>
<polygon fill="#191970" stroke="#191970" points="457.7149,-440.0255 451.2753,-448.4387 461.5559,-445.8775 457.7149,-440.0255"/>
</g>
<!-- Node1247&#45;&gt;Node1240 -->
<g id="edge11" class="edge">
<title>Node1247&#45;&gt;Node1240</title>
<path fill="none" stroke="#191970" d="M458.1095,-386.2369C460.1545,-385.0213 462.1525,-383.7701 464.082,-382.4857 503.6307,-356.1591 542.3228,-314.2387 558.5165,-295.7559"/>
<polygon fill="#191970" stroke="#191970" points="455.9626,-383.425 448.9098,-391.3312 459.3536,-389.5488 455.9626,-383.425"/>
</g>
<!-- Node1248&#45;&gt;Node1240 -->
<g id="edge13" class="edge">
<title>Node1248&#45;&gt;Node1240</title>
<path fill="none" stroke="#191970" d="M457.8235,-330.6348C487.4668,-318.5865 522.1564,-304.4871 544.2093,-295.5238"/>
<polygon fill="#191970" stroke="#191970" points="456.345,-327.4576 448.3989,-334.4654 458.9808,-333.9425 456.345,-327.4576"/>
</g>
<!-- Node1249&#45;&gt;Node1240 -->
<g id="edge15" class="edge">
<title>Node1249&#45;&gt;Node1240</title>
<path fill="none" stroke="#191970" d="M304.7549,-316.2229C362.8381,-309.6226 443.5686,-300.4489 499.9502,-294.042"/>
<polygon fill="#191970" stroke="#191970" points="304.0887,-312.776 294.5478,-317.3828 304.8791,-319.7312 304.0887,-312.776"/>
</g>
<!-- Node1250&#45;&gt;Node1240 -->
<g id="edge17" class="edge">
<title>Node1250&#45;&gt;Node1240</title>
<path fill="none" stroke="#191970" d="M304.7549,-271.6171C362.8381,-274.9173 443.5686,-279.5041 499.9502,-282.7076"/>
<polygon fill="#191970" stroke="#191970" points="304.7303,-268.1102 294.5478,-271.0372 304.3331,-275.0989 304.7303,-268.1102"/>
</g>
<!-- Node1252 -->
<g id="node14" class="node">
<title>Node1252</title>
<g id="a_node14"><a xlink:href="namespaceanonymous__namespace_02Ioss__Utils_8C_03.html#a6d6e331184867eca63c254efc01384f7" target="_top" xlink:title="anonymous_namespace\l\{Ioss_Utils::C\}::transfer\l_nodesets">
<polygon fill="#ffffff" stroke="#000000" points="339.1221,-200.4857 339.1221,-238.4857 464.082,-238.4857 464.082,-200.4857 339.1221,-200.4857"/>
<text text-anchor="start" x="347.1221" y="-226.4857" font-family="Helvetica,sans-Serif" font-size="10.00" fill="#000000">anonymous_namespace</text>
<text text-anchor="start" x="347.1221" y="-216.4857" font-family="Helvetica,sans-Serif" font-size="10.00" fill="#000000">{Ioss_Utils::C}::transfer</text>
<text text-anchor="middle" x="401.6021" y="-206.4857" font-family="Helvetica,sans-Serif" font-size="10.00" fill="#000000">_nodesets</text>
</a>
</g>
</g>
<!-- Node1251&#45;&gt;Node1252 -->
<g id="edge19" class="edge">
<title>Node1251&#45;&gt;Node1252</title>
<path fill="none" stroke="#191970" d="M283.5098,-179.7876C302.8752,-186.2975 324.9978,-193.7343 344.8202,-200.3978"/>
<polygon fill="#191970" stroke="#191970" points="284.549,-176.4445 273.955,-176.5756 282.3185,-183.0796 284.549,-176.4445"/>
</g>
<!-- Node1253 -->
<g id="node15" class="node">
<title>Node1253</title>
<g id="a_node15"><a xlink:href="namespaceanonymous__namespace_02Ioss__Utils_8C_03.html#a18093a23b32fd4afc3478f8bf9dc4d45" target="_top" xlink:title="anonymous_namespace\l\{Ioss_Utils::C\}::transfer\l_edgesets">
<polygon fill="#ffffff" stroke="#000000" points="339.1221,-143.4857 339.1221,-181.4857 464.082,-181.4857 464.082,-143.4857 339.1221,-143.4857"/>
<text text-anchor="start" x="347.1221" y="-169.4857" font-family="Helvetica,sans-Serif" font-size="10.00" fill="#000000">anonymous_namespace</text>
<text text-anchor="start" x="347.1221" y="-159.4857" font-family="Helvetica,sans-Serif" font-size="10.00" fill="#000000">{Ioss_Utils::C}::transfer</text>
<text text-anchor="middle" x="401.6021" y="-149.4857" font-family="Helvetica,sans-Serif" font-size="10.00" fill="#000000">_edgesets</text>
</a>
</g>
</g>
<!-- Node1251&#45;&gt;Node1253 -->
<g id="edge21" class="edge">
<title>Node1251&#45;&gt;Node1253</title>
<path fill="none" stroke="#191970" d="M313.7277,-162.4857C322.1816,-162.4857 330.6767,-162.4857 338.8759,-162.4857"/>
<polygon fill="#191970" stroke="#191970" points="313.4588,-158.9858 303.4587,-162.4857 313.4587,-165.9858 313.4588,-158.9858"/>
</g>
<!-- Node1254 -->
<g id="node16" class="node">
<title>Node1254</title>
<g id="a_node16"><a xlink:href="namespaceanonymous__namespace_02Ioss__Utils_8C_03.html#ab87fd3c12b47e09d515c0f8880e2518b" target="_top" xlink:title="anonymous_namespace\l\{Ioss_Utils::C\}::transfer\l_facesets">
<polygon fill="#ffffff" stroke="#000000" points="339.1221,-86.4857 339.1221,-124.4857 464.082,-124.4857 464.082,-86.4857 339.1221,-86.4857"/>
<text text-anchor="start" x="347.1221" y="-112.4857" font-family="Helvetica,sans-Serif" font-size="10.00" fill="#000000">anonymous_namespace</text>
<text text-anchor="start" x="347.1221" y="-102.4857" font-family="Helvetica,sans-Serif" font-size="10.00" fill="#000000">{Ioss_Utils::C}::transfer</text>
<text text-anchor="middle" x="401.6021" y="-92.4857" font-family="Helvetica,sans-Serif" font-size="10.00" fill="#000000">_facesets</text>
</a>
</g>
</g>
<!-- Node1251&#45;&gt;Node1254 -->
<g id="edge23" class="edge">
<title>Node1251&#45;&gt;Node1254</title>
<path fill="none" stroke="#191970" d="M283.5098,-145.1839C302.8752,-138.674 324.9978,-131.2372 344.8202,-124.5736"/>
<polygon fill="#191970" stroke="#191970" points="282.3185,-141.8918 273.955,-148.3958 284.549,-148.5269 282.3185,-141.8918"/>
</g>
<!-- Node1255 -->
<g id="node17" class="node">
<title>Node1255</title>
<g id="a_node17"><a xlink:href="namespaceanonymous__namespace_02Ioss__Utils_8C_03.html#a6b6faefe681252109c28e496c863726e" target="_top" xlink:title="anonymous_namespace\l\{Ioss_Utils::C\}::transfer\l_elemsets">
<polygon fill="#ffffff" stroke="#000000" points="339.1221,-29.4857 339.1221,-67.4857 464.082,-67.4857 464.082,-29.4857 339.1221,-29.4857"/>
<text text-anchor="start" x="347.1221" y="-55.4857" font-family="Helvetica,sans-Serif" font-size="10.00" fill="#000000">anonymous_namespace</text>
<text text-anchor="start" x="347.1221" y="-45.4857" font-family="Helvetica,sans-Serif" font-size="10.00" fill="#000000">{Ioss_Utils::C}::transfer</text>
<text text-anchor="middle" x="401.6021" y="-35.4857" font-family="Helvetica,sans-Serif" font-size="10.00" fill="#000000">_elemsets</text>
</a>
</g>
</g>
<!-- Node1251&#45;&gt;Node1255 -->
<g id="edge25" class="edge">
<title>Node1251&#45;&gt;Node1255</title>
<path fill="none" stroke="#191970" d="M255.1977,-141.4397C276.1179,-123.0946 308.27,-96.5183 339.1221,-77.4857 344.8217,-73.9697 351.0175,-70.6042 357.2196,-67.4917"/>
<polygon fill="#191970" stroke="#191970" points="252.6506,-139.0203 247.4897,-148.2732 257.2943,-144.2583 252.6506,-139.0203"/>
</g>
<!-- Node1252&#45;&gt;Node1240 -->
<g id="edge20" class="edge">
<title>Node1252&#45;&gt;Node1240</title>
<path fill="none" stroke="#191970" d="M457.8235,-242.3366C487.4668,-254.3849 522.1564,-268.4843 544.2093,-277.4476"/>
<polygon fill="#191970" stroke="#191970" points="458.9808,-239.029 448.3989,-238.506 456.345,-245.5138 458.9808,-239.029"/>
</g>
<!-- Node1253&#45;&gt;Node1240 -->
<g id="edge22" class="edge">
<title>Node1253&#45;&gt;Node1240</title>
<path fill="none" stroke="#191970" d="M456.1335,-186.5131C458.8674,-188.1145 461.5333,-189.7743 464.082,-191.4857 503.333,-217.8421 542.1809,-259.1667 558.4658,-277.3639"/>
<polygon fill="#191970" stroke="#191970" points="457.6781,-183.3681 447.2308,-181.6062 454.2992,-189.4986 457.6781,-183.3681"/>
</g>
<!-- Node1254&#45;&gt;Node1240 -->
<g id="edge24" class="edge">
<title>Node1254&#45;&gt;Node1240</title>
<path fill="none" stroke="#191970" d="M458.6283,-130.2182C460.5195,-131.5814 462.345,-133.0037 464.082,-134.4857 514.6668,-177.6434 550.8838,-251.6436 562.4773,-277.3608"/>
<polygon fill="#191970" stroke="#191970" points="460.2827,-127.1197 449.9876,-124.6177 456.4754,-132.9938 460.2827,-127.1197"/>
</g>
<!-- Node1255&#45;&gt;Node1240 -->
<g id="edge26" class="edge">
<title>Node1255&#45;&gt;Node1240</title>
<path fill="none" stroke="#191970" d="M459.6352,-73.5147C461.1847,-74.782 462.6723,-76.1051 464.082,-77.4857 526.4326,-138.5478 556.4412,-245.3576 564.2966,-277.245"/>
<polygon fill="#191970" stroke="#191970" points="461.6098,-70.6237 451.445,-67.6357 457.5278,-76.3104 461.6098,-70.6237"/>
</g>
<!-- Node1256&#45;&gt;Node1240 -->
<g id="edge28" class="edge">
<title>Node1256&#45;&gt;Node1240</title>
<path fill="none" stroke="#191970" d="M275.2971,-31.9611C325.1924,-8.3653 407.5926,19.3557 464.082,-19.4857 510.2049,-51.1992 554.498,-234.2113 564.3976,-277.3695"/>
<polygon fill="#191970" stroke="#191970" points="273.5297,-28.9288 266.0707,-36.453 276.5938,-35.2225 273.5297,-28.9288"/>
</g>
</g>
</svg>
