<?xml version="1.0" encoding="UTF-8" standalone="no"?>
<!DOCTYPE svg PUBLIC "-//W3C//DTD SVG 1.1//EN"
 "http://www.w3.org/Graphics/SVG/1.1/DTD/svg11.dtd">
<!-- Generated by graphviz version 2.40.1 (20161225.0304)
 -->
<!-- Title: anonymous_namespace{io_shell_ts::C}::transfer_fields_ts Pages: 1 -->
<svg width="967pt" height="898pt"
 viewBox="0.00 0.00 966.62 898.00" xmlns="http://www.w3.org/2000/svg" xmlns:xlink="http://www.w3.org/1999/xlink">
<g id="graph0" class="graph" transform="scale(1 1) rotate(0) translate(4 894)">
<title>anonymous_namespace{io_shell_ts::C}::transfer_fields_ts</title>
<polygon fill="#ffffff" stroke="transparent" points="-4,4 -4,-894 962.6221,-894 962.6221,4 -4,4"/>
<!-- Node812 -->
<g id="node1" class="node">
<title>Node812</title>
<polygon fill="#bfbfbf" stroke="#000000" points="0,-321.5 0,-359.5 124.96,-359.5 124.96,-321.5 0,-321.5"/>
<text text-anchor="start" x="8" y="-347.5" font-family="Helvetica,sans-Serif" font-size="10.00" fill="#000000">anonymous_namespace</text>
<text text-anchor="start" x="8" y="-337.5" font-family="Helvetica,sans-Serif" font-size="10.00" fill="#000000">{io_shell_ts::C}::transfer</text>
<text text-anchor="middle" x="62.48" y="-327.5" font-family="Helvetica,sans-Serif" font-size="10.00" fill="#000000">_fields_ts</text>
</g>
<!-- Node813 -->
<g id="node2" class="node">
<title>Node813</title>
<g id="a_node2"><a xlink:href="$namespaceanonymous__namespace_02io__info_8C_03.html#ac76aa36231a3291b803cc8e620fce319" xlink:title="anonymous_namespace\l\{io_info::C\}::name">
<polygon fill="#ffffff" stroke="#000000" points="682.4458,-371.5 682.4458,-399.5 807.4058,-399.5 807.4058,-371.5 682.4458,-371.5"/>
<text text-anchor="start" x="690.4458" y="-387.5" font-family="Helvetica,sans-Serif" font-size="10.00" fill="#000000">anonymous_namespace</text>
<text text-anchor="middle" x="744.9258" y="-377.5" font-family="Helvetica,sans-Serif" font-size="10.00" fill="#000000">{io_info::C}::name</text>
</a>
</g>
</g>
<!-- Node812&#45;&gt;Node813 -->
<g id="edge1" class="edge">
<title>Node812&#45;&gt;Node813</title>
<path fill="none" stroke="#191970" d="M125.0412,-347.5703C178.6856,-353.4095 258.0686,-361.5202 327.457,-366.5 448.1588,-375.1625 588.7926,-380.6026 672.1478,-383.3421"/>
<polygon fill="#191970" stroke="#191970" points="672.1649,-386.8444 682.2732,-383.6709 672.3921,-379.8481 672.1649,-386.8444"/>
</g>
<!-- Node816 -->
<g id="node5" class="node">
<title>Node816</title>
<g id="a_node5"><a xlink:href="$classIoss_1_1Region.html#ade4b35eb74526f47d2b1c8157cc93859" xlink:title="Get an entity of a known EntityType. ">
<polygon fill="#ffffff" stroke="#000000" points="165.9551,-619.5 165.9551,-637.5 286.4619,-637.5 286.4619,-619.5 165.9551,-619.5"/>
<text text-anchor="middle" x="226.2085" y="-625.5" font-family="Helvetica,sans-Serif" font-size="10.00" fill="#000000">Ioss::Region::get_entity</text>
</a>
</g>
</g>
<!-- Node812&#45;&gt;Node816 -->
<g id="edge4" class="edge">
<title>Node812&#45;&gt;Node816</title>
<path fill="none" stroke="#191970" d="M73.4769,-359.8437C103.5233,-412.6956 186.7016,-559.007 215.9084,-610.382"/>
<polygon fill="#191970" stroke="#191970" points="213.0134,-612.3718 220.9984,-619.3353 219.0988,-608.9122 213.0134,-612.3718"/>
</g>
<!-- Node832 -->
<g id="node21" class="node">
<title>Node832</title>
<g id="a_node21"><a xlink:href="$namespaceanonymous__namespace_02io__shell__ts_8C_03.html#a1fcbc7414c6484a78303259a73690cb8" xlink:title="anonymous_namespace\l\{io_shell_ts::C\}::transfer\l_fields">
<polygon fill="#ffffff" stroke="#000000" points="163.7285,-276.5 163.7285,-314.5 288.6885,-314.5 288.6885,-276.5 163.7285,-276.5"/>
<text text-anchor="start" x="171.7285" y="-302.5" font-family="Helvetica,sans-Serif" font-size="10.00" fill="#000000">anonymous_namespace</text>
<text text-anchor="start" x="171.7285" y="-292.5" font-family="Helvetica,sans-Serif" font-size="10.00" fill="#000000">{io_shell_ts::C}::transfer</text>
<text text-anchor="middle" x="226.2085" y="-282.5" font-family="Helvetica,sans-Serif" font-size="10.00" fill="#000000">_fields</text>
</a>
</g>
</g>
<!-- Node812&#45;&gt;Node832 -->
<g id="edge41" class="edge">
<title>Node812&#45;&gt;Node832</title>
<path fill="none" stroke="#191970" d="M125.3134,-323.2305C134.6168,-320.6735 144.2673,-318.0211 153.7474,-315.4156"/>
<polygon fill="#191970" stroke="#191970" points="154.8283,-318.7484 163.5432,-312.7233 152.9731,-311.9987 154.8283,-318.7484"/>
</g>
<!-- Node840 -->
<g id="node29" class="node">
<title>Node840</title>
<g id="a_node29"><a xlink:href="$namespaceanonymous__namespace_02io__shell__ts_8C_03.html#a9121f4bc562f5f656e8dc54eaa44b850" xlink:title="anonymous_namespace\l\{io_shell_ts::C\}::transform\l_fields">
<polygon fill="#ffffff" stroke="#000000" points="160.96,-161.5 160.96,-199.5 291.457,-199.5 291.457,-161.5 160.96,-161.5"/>
<text text-anchor="start" x="168.96" y="-187.5" font-family="Helvetica,sans-Serif" font-size="10.00" fill="#000000">anonymous_namespace</text>
<text text-anchor="start" x="168.96" y="-177.5" font-family="Helvetica,sans-Serif" font-size="10.00" fill="#000000">{io_shell_ts::C}::transform</text>
<text text-anchor="middle" x="226.2085" y="-167.5" font-family="Helvetica,sans-Serif" font-size="10.00" fill="#000000">_fields</text>
</a>
</g>
</g>
<!-- Node812&#45;&gt;Node840 -->
<g id="edge50" class="edge">
<title>Node812&#45;&gt;Node840</title>
<path fill="none" stroke="#191970" d="M82.2295,-321.2003C111.4419,-292.653 166.2536,-239.0896 199.1731,-206.9198"/>
<polygon fill="#191970" stroke="#191970" points="201.938,-209.1115 206.6438,-199.6191 197.0456,-204.1051 201.938,-209.1115"/>
</g>
<!-- Node814 -->
<g id="node3" class="node">
<title>Node814</title>
<g id="a_node3"><a xlink:href="$classIoss_1_1GroupingEntity.html#adf92c4256dc89b729f4492642bc4d745" xlink:title="Get the name of the particular type of entity. ">
<polygon fill="#ffffff" stroke="#000000" points="852.5781,-395.5 852.5781,-423.5 958.6221,-423.5 958.6221,-395.5 852.5781,-395.5"/>
<text text-anchor="start" x="860.5781" y="-411.5" font-family="Helvetica,sans-Serif" font-size="10.00" fill="#000000">Ioss::GroupingEntity</text>
<text text-anchor="middle" x="905.6001" y="-401.5" font-family="Helvetica,sans-Serif" font-size="10.00" fill="#000000">::type_string</text>
</a>
</g>
</g>
<!-- Node813&#45;&gt;Node814 -->
<g id="edge2" class="edge">
<title>Node813&#45;&gt;Node814</title>
<path fill="none" stroke="#191970" d="M807.5067,-394.8477C819.0243,-396.5681 831.0544,-398.3651 842.5846,-400.0873"/>
<polygon fill="#191970" stroke="#191970" points="842.1558,-403.562 852.5632,-401.5778 843.19,-396.6389 842.1558,-403.562"/>
</g>
<!-- Node815 -->
<g id="node4" class="node">
<title>Node815</title>
<g id="a_node4"><a xlink:href="$classIoss_1_1GroupingEntity.html#a50d4053f49c8c3205e05d939fdc9fbc5" xlink:title="Get name of entity. ">
<polygon fill="#ffffff" stroke="#000000" points="852.5781,-348.5 852.5781,-376.5 958.6221,-376.5 958.6221,-348.5 852.5781,-348.5"/>
<text text-anchor="start" x="860.5781" y="-364.5" font-family="Helvetica,sans-Serif" font-size="10.00" fill="#000000">Ioss::GroupingEntity</text>
<text text-anchor="middle" x="905.6001" y="-354.5" font-family="Helvetica,sans-Serif" font-size="10.00" fill="#000000">::name</text>
</a>
</g>
</g>
<!-- Node813&#45;&gt;Node815 -->
<g id="edge3" class="edge">
<title>Node813&#45;&gt;Node815</title>
<path fill="none" stroke="#191970" d="M807.5067,-376.5417C819.0243,-374.893 831.0544,-373.171 842.5846,-371.5205"/>
<polygon fill="#191970" stroke="#191970" points="843.1601,-374.9739 852.5632,-370.0921 842.1681,-368.0445 843.1601,-374.9739"/>
</g>
<!-- Node817 -->
<g id="node6" class="node">
<title>Node817</title>
<g id="a_node6"><a xlink:href="$classIoss_1_1Region.html#aebdd3aae32cc17d9d43ac13612c060b9" xlink:title="Get the node block with the given name. ">
<polygon fill="#ffffff" stroke="#000000" points="340.792,-461.5 340.792,-489.5 459.6436,-489.5 459.6436,-461.5 340.792,-461.5"/>
<text text-anchor="start" x="348.792" y="-477.5" font-family="Helvetica,sans-Serif" font-size="10.00" fill="#000000">Ioss::Region::get_node</text>
<text text-anchor="middle" x="400.2178" y="-467.5" font-family="Helvetica,sans-Serif" font-size="10.00" fill="#000000">_block</text>
</a>
</g>
</g>
<!-- Node816&#45;&gt;Node817 -->
<g id="edge5" class="edge">
<title>Node816&#45;&gt;Node817</title>
<path fill="none" stroke="#191970" d="M230.9746,-619.1728C243.4973,-595.5807 279.6854,-533.0295 327.457,-499.5 330.3201,-497.4905 333.3627,-495.6406 336.5178,-493.9387"/>
<polygon fill="#191970" stroke="#191970" points="338.1707,-497.0273 345.6515,-489.5247 335.1248,-490.7247 338.1707,-497.0273"/>
</g>
<!-- Node821 -->
<g id="node10" class="node">
<title>Node821</title>
<g id="a_node10"><a xlink:href="$classIoss_1_1Region.html#a0b646180161f131be5c4e74aea12ae8a" xlink:title="Get the element block with the given name. ">
<polygon fill="#ffffff" stroke="#000000" points="334.127,-414.5 334.127,-442.5 466.3086,-442.5 466.3086,-414.5 334.127,-414.5"/>
<text text-anchor="start" x="342.127" y="-430.5" font-family="Helvetica,sans-Serif" font-size="10.00" fill="#000000">Ioss::Region::get_element</text>
<text text-anchor="middle" x="400.2178" y="-420.5" font-family="Helvetica,sans-Serif" font-size="10.00" fill="#000000">_block</text>
</a>
</g>
</g>
<!-- Node816&#45;&gt;Node821 -->
<g id="edge10" class="edge">
<title>Node816&#45;&gt;Node821</title>
<path fill="none" stroke="#191970" d="M228.8917,-619.2857C237.8104,-590.2732 269.2478,-499.9272 327.457,-452.5 329.5323,-450.8091 331.731,-449.2358 334.0208,-447.7719"/>
<polygon fill="#191970" stroke="#191970" points="336.195,-450.5679 343.2365,-442.6516 332.7952,-444.4489 336.195,-450.5679"/>
</g>
<!-- Node822 -->
<g id="node11" class="node">
<title>Node822</title>
<g id="a_node11"><a xlink:href="$classIoss_1_1Region.html#af7088a51cf1b79bab79e7646c53caa5b" xlink:title="Get the structured block with the given name. ">
<polygon fill="#ffffff" stroke="#000000" points="329.6836,-787.5 329.6836,-815.5 470.752,-815.5 470.752,-787.5 329.6836,-787.5"/>
<text text-anchor="start" x="337.6836" y="-803.5" font-family="Helvetica,sans-Serif" font-size="10.00" fill="#000000">Ioss::Region::get_structured</text>
<text text-anchor="middle" x="400.2178" y="-793.5" font-family="Helvetica,sans-Serif" font-size="10.00" fill="#000000">_block</text>
</a>
</g>
</g>
<!-- Node816&#45;&gt;Node822 -->
<g id="edge13" class="edge">
<title>Node816&#45;&gt;Node822</title>
<path fill="none" stroke="#191970" d="M229.874,-637.8375C240.6563,-664.0917 274.8501,-739.2001 327.457,-778.5 329.5001,-780.0263 331.6474,-781.4531 333.8716,-782.7868"/>
<polygon fill="#191970" stroke="#191970" points="332.2963,-785.9129 342.7743,-787.4823 335.562,-779.7213 332.2963,-785.9129"/>
</g>
<!-- Node823 -->
<g id="node12" class="node">
<title>Node823</title>
<g id="a_node12"><a xlink:href="$classIoss_1_1Region.html#a72a1f9c3f650554a4bdd4ef23c885fe7" xlink:title="Get the face block with the given name. ">
<polygon fill="#ffffff" stroke="#000000" points="342.4644,-740.5 342.4644,-768.5 457.9712,-768.5 457.9712,-740.5 342.4644,-740.5"/>
<text text-anchor="start" x="350.4644" y="-756.5" font-family="Helvetica,sans-Serif" font-size="10.00" fill="#000000">Ioss::Region::get_face</text>
<text text-anchor="middle" x="400.2178" y="-746.5" font-family="Helvetica,sans-Serif" font-size="10.00" fill="#000000">_block</text>
</a>
</g>
</g>
<!-- Node816&#45;&gt;Node823 -->
<g id="edge16" class="edge">
<title>Node816&#45;&gt;Node823</title>
<path fill="none" stroke="#191970" d="M232.7051,-637.6656C247.3335,-657.6452 284.9188,-705.4156 327.457,-731.5 330.224,-733.1967 333.1278,-734.7794 336.1169,-736.2542"/>
<polygon fill="#191970" stroke="#191970" points="334.7313,-739.4685 345.2884,-740.3615 337.5924,-733.0799 334.7313,-739.4685"/>
</g>
<!-- Node824 -->
<g id="node13" class="node">
<title>Node824</title>
<g id="a_node13"><a xlink:href="$classIoss_1_1Region.html#ae41288c041c96f64f7d320aefb1e1eec" xlink:title="Get the edge block with the given name. ">
<polygon fill="#ffffff" stroke="#000000" points="340.792,-693.5 340.792,-721.5 459.6436,-721.5 459.6436,-693.5 340.792,-693.5"/>
<text text-anchor="start" x="348.792" y="-709.5" font-family="Helvetica,sans-Serif" font-size="10.00" fill="#000000">Ioss::Region::get_edge</text>
<text text-anchor="middle" x="400.2178" y="-699.5" font-family="Helvetica,sans-Serif" font-size="10.00" fill="#000000">_block</text>
</a>
</g>
</g>
<!-- Node816&#45;&gt;Node824 -->
<g id="edge19" class="edge">
<title>Node816&#45;&gt;Node824</title>
<path fill="none" stroke="#191970" d="M240.5022,-637.6046C259.704,-649.552 295.1575,-670.6268 327.457,-684.5 331.9381,-686.4247 336.6351,-688.2715 341.393,-690.0229"/>
<polygon fill="#191970" stroke="#191970" points="340.6008,-693.4547 351.1956,-693.4785 342.9281,-686.8529 340.6008,-693.4547"/>
</g>
<!-- Node825 -->
<g id="node14" class="node">
<title>Node825</title>
<g id="a_node14"><a xlink:href="$classIoss_1_1Region.html#a8501e315487d7e89766f087b732710a5" xlink:title="Get the side set with the given name. ">
<polygon fill="#ffffff" stroke="#000000" points="336.0728,-656.5 336.0728,-674.5 464.3628,-674.5 464.3628,-656.5 336.0728,-656.5"/>
<text text-anchor="middle" x="400.2178" y="-662.5" font-family="Helvetica,sans-Serif" font-size="10.00" fill="#000000">Ioss::Region::get_sideset</text>
</a>
</g>
</g>
<!-- Node816&#45;&gt;Node825 -->
<g id="edge22" class="edge">
<title>Node816&#45;&gt;Node825</title>
<path fill="none" stroke="#191970" d="M268.776,-637.5512C292.6698,-642.6318 322.6758,-649.0121 347.9838,-654.3934"/>
<polygon fill="#191970" stroke="#191970" points="347.2793,-657.8217 357.7886,-656.4782 348.7352,-650.9748 347.2793,-657.8217"/>
</g>
<!-- Node826 -->
<g id="node15" class="node">
<title>Node826</title>
<g id="a_node15"><a xlink:href="$classIoss_1_1Region.html#a8040ae8eb0d2bc19ecaf24078b67f548" xlink:title="Get the node set with the given name. ">
<polygon fill="#ffffff" stroke="#000000" points="334.1221,-871.5 334.1221,-889.5 466.3135,-889.5 466.3135,-871.5 334.1221,-871.5"/>
<text text-anchor="middle" x="400.2178" y="-877.5" font-family="Helvetica,sans-Serif" font-size="10.00" fill="#000000">Ioss::Region::get_nodeset</text>
</a>
</g>
</g>
<!-- Node816&#45;&gt;Node826 -->
<g id="edge25" class="edge">
<title>Node816&#45;&gt;Node826</title>
<path fill="none" stroke="#191970" d="M227.3054,-637.8262C231.9732,-673.1475 253.4681,-799.8663 327.457,-862.5 329.192,-863.9687 331.029,-865.3208 332.9461,-866.5654"/>
<polygon fill="#191970" stroke="#191970" points="331.336,-869.6737 341.7956,-871.3613 334.6713,-863.5194 331.336,-869.6737"/>
</g>
<!-- Node827 -->
<g id="node16" class="node">
<title>Node827</title>
<g id="a_node16"><a xlink:href="$classIoss_1_1Region.html#a3a4690764046d1563e34d84b82f4c2bd" xlink:title="Get the edge set with the given name. ">
<polygon fill="#ffffff" stroke="#000000" points="334.1221,-834.5 334.1221,-852.5 466.3135,-852.5 466.3135,-834.5 334.1221,-834.5"/>
<text text-anchor="middle" x="400.2178" y="-840.5" font-family="Helvetica,sans-Serif" font-size="10.00" fill="#000000">Ioss::Region::get_edgeset</text>
</a>
</g>
</g>
<!-- Node816&#45;&gt;Node827 -->
<g id="edge28" class="edge">
<title>Node816&#45;&gt;Node827</title>
<path fill="none" stroke="#191970" d="M228.0806,-637.6513C235.02,-669.1489 262.3152,-773.9671 327.457,-825.5 329.4663,-827.0895 331.5968,-828.5409 333.818,-829.8662"/>
<polygon fill="#191970" stroke="#191970" points="332.2656,-833.0031 342.7709,-834.3773 335.4154,-826.7518 332.2656,-833.0031"/>
</g>
<!-- Node828 -->
<g id="node17" class="node">
<title>Node828</title>
<g id="a_node17"><a xlink:href="$classIoss_1_1Region.html#af9a871366a0715daa5219e9ce5c29327" xlink:title="Get the face set with the given name. ">
<polygon fill="#ffffff" stroke="#000000" points="335.7944,-582.5 335.7944,-600.5 464.6411,-600.5 464.6411,-582.5 335.7944,-582.5"/>
<text text-anchor="middle" x="400.2178" y="-588.5" font-family="Helvetica,sans-Serif" font-size="10.00" fill="#000000">Ioss::Region::get_faceset</text>
</a>
</g>
</g>
<!-- Node816&#45;&gt;Node828 -->
<g id="edge31" class="edge">
<title>Node816&#45;&gt;Node828</title>
<path fill="none" stroke="#191970" d="M268.776,-619.4488C292.6698,-614.3682 322.6758,-607.9879 347.9838,-602.6066"/>
<polygon fill="#191970" stroke="#191970" points="348.7352,-606.0252 357.7886,-600.5218 347.2793,-599.1783 348.7352,-606.0252"/>
</g>
<!-- Node829 -->
<g id="node18" class="node">
<title>Node829</title>
<g id="a_node18"><a xlink:href="$classIoss_1_1Region.html#a2019ddb77e5dc6d9da134b5da4637df2" xlink:title="Get the element set with the given name. ">
<polygon fill="#ffffff" stroke="#000000" points="327.457,-545.5 327.457,-563.5 472.9785,-563.5 472.9785,-545.5 327.457,-545.5"/>
<text text-anchor="middle" x="400.2178" y="-551.5" font-family="Helvetica,sans-Serif" font-size="10.00" fill="#000000">Ioss::Region::get_elementset</text>
</a>
</g>
</g>
<!-- Node816&#45;&gt;Node829 -->
<g id="edge34" class="edge">
<title>Node816&#45;&gt;Node829</title>
<path fill="none" stroke="#191970" d="M240.4256,-619.3316C259.5426,-607.3469 294.9024,-586.3717 327.457,-573.5 334.2181,-570.8268 341.4807,-568.4175 348.7066,-566.2838"/>
<polygon fill="#191970" stroke="#191970" points="349.8006,-569.6122 358.487,-563.5462 347.9137,-562.8713 349.8006,-569.6122"/>
</g>
<!-- Node830 -->
<g id="node19" class="node">
<title>Node830</title>
<g id="a_node19"><a xlink:href="$classIoss_1_1Region.html#a4f0d17a0e1e1d7361b65194910a42a56" xlink:title="Get the comm set with the given name. ">
<polygon fill="#ffffff" stroke="#000000" points="331.6343,-508.5 331.6343,-526.5 468.8013,-526.5 468.8013,-508.5 331.6343,-508.5"/>
<text text-anchor="middle" x="400.2178" y="-514.5" font-family="Helvetica,sans-Serif" font-size="10.00" fill="#000000">Ioss::Region::get_commset</text>
</a>
</g>
</g>
<!-- Node816&#45;&gt;Node830 -->
<g id="edge37" class="edge">
<title>Node816&#45;&gt;Node830</title>
<path fill="none" stroke="#191970" d="M233.5415,-619.3621C248.9209,-600.8231 286.5266,-558.6748 327.457,-536.5 332.1922,-533.9346 337.2906,-531.7027 342.5121,-529.7633"/>
<polygon fill="#191970" stroke="#191970" points="343.6266,-533.0812 351.992,-526.5796 341.398,-526.4454 343.6266,-533.0812"/>
</g>
<!-- Node831 -->
<g id="node20" class="node">
<title>Node831</title>
<g id="a_node20"><a xlink:href="$classIoss_1_1Region.html#a89e07659d86dda973104999206eda291" xlink:title="Get the side block with the given name. ">
<polygon fill="#ffffff" stroke="#000000" points="331.0703,-619.5 331.0703,-637.5 469.3652,-637.5 469.3652,-619.5 331.0703,-619.5"/>
<text text-anchor="middle" x="400.2178" y="-625.5" font-family="Helvetica,sans-Serif" font-size="10.00" fill="#000000">Ioss::Region::get_sideblock</text>
</a>
</g>
</g>
<!-- Node816&#45;&gt;Node831 -->
<g id="edge40" class="edge">
<title>Node816&#45;&gt;Node831</title>
<path fill="none" stroke="#191970" d="M286.5801,-628.5C297.6646,-628.5 309.3873,-628.5 320.9275,-628.5"/>
<polygon fill="#191970" stroke="#191970" points="321.0014,-632.0001 331.0014,-628.5 321.0013,-625.0001 321.0014,-632.0001"/>
</g>
<!-- Node818 -->
<g id="node7" class="node">
<title>Node818</title>
<g id="a_node7"><a xlink:href="$classIoss_1_1Region.html#a83e8885c1191dcd9200e1b0954ba0e10" xlink:title="Ioss::Region::get_alias__">
<polygon fill="#ffffff" stroke="#000000" points="508.9785,-656.5 508.9785,-674.5 637.2734,-674.5 637.2734,-656.5 508.9785,-656.5"/>
<text text-anchor="middle" x="573.126" y="-662.5" font-family="Helvetica,sans-Serif" font-size="10.00" fill="#000000">Ioss::Region::get_alias__</text>
</a>
</g>
</g>
<!-- Node817&#45;&gt;Node818 -->
<g id="edge6" class="edge">
<title>Node817&#45;&gt;Node818</title>
<path fill="none" stroke="#191970" d="M459.6589,-489.3024C464.5708,-492.0979 469.121,-495.4589 472.9785,-499.5 514.0792,-542.5563 472.489,-581.4721 508.9785,-628.5 516.7367,-638.4988 528.0131,-646.2787 538.955,-652.0679"/>
<polygon fill="#191970" stroke="#191970" points="537.4603,-655.2329 547.983,-656.4676 540.5269,-648.9404 537.4603,-655.2329"/>
</g>
<!-- Node820 -->
<g id="node9" class="node">
<title>Node820</title>
<g id="a_node9"><a xlink:href="$classIoss_1_1Utils.html#a1ec73edea0e845665ac385f605f4aa99" xlink:title="Ioss::Utils::hash">
<polygon fill="#ffffff" stroke="#000000" points="529.8354,-600.5 529.8354,-618.5 616.4165,-618.5 616.4165,-600.5 529.8354,-600.5"/>
<text text-anchor="middle" x="573.126" y="-606.5" font-family="Helvetica,sans-Serif" font-size="10.00" fill="#000000">Ioss::Utils::hash</text>
</a>
</g>
</g>
<!-- Node817&#45;&gt;Node820 -->
<g id="edge8" class="edge">
<title>Node817&#45;&gt;Node820</title>
<path fill="none" stroke="#191970" d="M453.7567,-489.6028C460.4798,-492.3869 467.064,-495.6635 472.9785,-499.5 511.4261,-524.4392 544.6901,-567.655 561.4842,-591.8287"/>
<polygon fill="#191970" stroke="#191970" points="558.7635,-594.0525 567.2752,-600.3614 564.5556,-590.1216 558.7635,-594.0525"/>
</g>
<!-- Node819 -->
<g id="node8" class="node">
<title>Node819</title>
<g id="a_node8"><a xlink:href="$namespaceanonymous__namespace_02Ioss__Region_8C_03.html#acd06ef87eff981abc4c9d7cfb0a4f11d" xlink:title="anonymous_namespace\l\{Ioss_Region::C\}::uppercase">
<polygon fill="#ffffff" stroke="#000000" points="673.2734,-651.5 673.2734,-679.5 816.5781,-679.5 816.5781,-651.5 673.2734,-651.5"/>
<text text-anchor="start" x="681.2734" y="-667.5" font-family="Helvetica,sans-Serif" font-size="10.00" fill="#000000">anonymous_namespace</text>
<text text-anchor="middle" x="744.9258" y="-657.5" font-family="Helvetica,sans-Serif" font-size="10.00" fill="#000000">{Ioss_Region::C}::uppercase</text>
</a>
</g>
</g>
<!-- Node818&#45;&gt;Node819 -->
<g id="edge7" class="edge">
<title>Node818&#45;&gt;Node819</title>
<path fill="none" stroke="#191970" d="M637.5867,-665.5C645.9356,-665.5 654.5733,-665.5 663.1558,-665.5"/>
<polygon fill="#191970" stroke="#191970" points="663.185,-669.0001 673.185,-665.5 663.185,-662.0001 663.185,-669.0001"/>
</g>
<!-- Node820&#45;&gt;Node813 -->
<g id="edge9" class="edge">
<title>Node820&#45;&gt;Node813</title>
<path fill="none" stroke="#191970" d="M580.0735,-600.4415C605.0716,-567.8479 690.9063,-455.933 727.8228,-407.7996"/>
<polygon fill="#191970" stroke="#191970" points="730.8124,-409.6528 734.121,-399.5878 725.2579,-405.3927 730.8124,-409.6528"/>
</g>
<!-- Node821&#45;&gt;Node818 -->
<g id="edge11" class="edge">
<title>Node821&#45;&gt;Node818</title>
<path fill="none" stroke="#191970" d="M460.9952,-442.6435C465.4449,-445.3718 469.5308,-448.6239 472.9785,-452.5 526.0423,-512.1569 462.2835,-563.7367 508.9785,-628.5 516.1897,-638.5016 527.001,-646.2022 537.7027,-651.9223"/>
<polygon fill="#191970" stroke="#191970" points="536.4633,-655.2118 546.9859,-656.4472 539.5304,-648.9195 536.4633,-655.2118"/>
</g>
<!-- Node821&#45;&gt;Node820 -->
<g id="edge12" class="edge">
<title>Node821&#45;&gt;Node820</title>
<path fill="none" stroke="#191970" d="M456.2807,-442.5245C462.2293,-445.2885 467.9378,-448.5814 472.9785,-452.5 521.3459,-490.1001 552.9808,-558.0573 566.1535,-590.8295"/>
<polygon fill="#191970" stroke="#191970" points="562.8921,-592.0997 569.7795,-600.1505 569.4159,-589.5619 562.8921,-592.0997"/>
</g>
<!-- Node822&#45;&gt;Node818 -->
<g id="edge14" class="edge">
<title>Node822&#45;&gt;Node818</title>
<path fill="none" stroke="#191970" d="M455.7011,-787.4811C461.7537,-784.9361 467.6451,-781.9631 472.9785,-778.5 512.3587,-752.9298 545.659,-707.8225 562.1089,-683.0352"/>
<polygon fill="#191970" stroke="#191970" points="565.0654,-684.9088 567.566,-674.6133 559.1908,-681.1023 565.0654,-684.9088"/>
</g>
<!-- Node822&#45;&gt;Node820 -->
<g id="edge15" class="edge">
<title>Node822&#45;&gt;Node820</title>
<path fill="none" stroke="#191970" d="M461.7379,-787.349C465.8544,-784.8602 469.6707,-781.9359 472.9785,-778.5 514.8557,-735.0014 472.3365,-695.4915 508.9785,-647.5 516.8336,-637.2118 528.3401,-629.1629 539.4466,-623.1738"/>
<polygon fill="#191970" stroke="#191970" points="541.199,-626.2113 548.5932,-618.6233 538.081,-619.944 541.199,-626.2113"/>
</g>
<!-- Node823&#45;&gt;Node818 -->
<g id="edge17" class="edge">
<title>Node823&#45;&gt;Node818</title>
<path fill="none" stroke="#191970" d="M451.0162,-740.4357C458.5122,-737.791 466.041,-734.8037 472.9785,-731.5 502.8133,-717.2926 534.1434,-695.3371 553.65,-680.6993"/>
<polygon fill="#191970" stroke="#191970" points="555.8983,-683.3866 561.7327,-674.5429 551.6567,-677.8179 555.8983,-683.3866"/>
</g>
<!-- Node823&#45;&gt;Node820 -->
<g id="edge18" class="edge">
<title>Node823&#45;&gt;Node820</title>
<path fill="none" stroke="#191970" d="M458.0194,-741.5391C463.4468,-738.8084 468.5601,-735.5024 472.9785,-731.5 503.0816,-704.2313 482.1825,-678.0246 508.9785,-647.5 517.7848,-637.4683 529.9057,-629.3524 541.2416,-623.2367"/>
<polygon fill="#191970" stroke="#191970" points="543.1372,-626.2006 550.4891,-618.5718 539.9844,-619.9508 543.1372,-626.2006"/>
</g>
<!-- Node824&#45;&gt;Node818 -->
<g id="edge20" class="edge">
<title>Node824&#45;&gt;Node818</title>
<path fill="none" stroke="#191970" d="M458.2747,-693.3978C480.2802,-688.0526 505.0469,-682.0366 525.9324,-676.9635"/>
<polygon fill="#191970" stroke="#191970" points="526.9532,-680.3174 535.8444,-674.5558 525.3008,-673.5152 526.9532,-680.3174"/>
</g>
<!-- Node824&#45;&gt;Node820 -->
<g id="edge21" class="edge">
<title>Node824&#45;&gt;Node820</title>
<path fill="none" stroke="#191970" d="M455.1642,-693.3893C461.3774,-690.8534 467.4532,-687.9076 472.9785,-684.5 492.5071,-672.4561 490.9512,-661.6929 508.9785,-647.5 520.3741,-638.5283 534.0828,-630.1306 545.8969,-623.5231"/>
<polygon fill="#191970" stroke="#191970" points="547.7749,-626.4858 554.885,-618.6311 544.4285,-620.3375 547.7749,-626.4858"/>
</g>
<!-- Node825&#45;&gt;Node818 -->
<g id="edge23" class="edge">
<title>Node825&#45;&gt;Node818</title>
<path fill="none" stroke="#191970" d="M464.6024,-665.5C475.7028,-665.5 487.3233,-665.5 498.6632,-665.5"/>
<polygon fill="#191970" stroke="#191970" points="498.9756,-669.0001 508.9755,-665.5 498.9755,-662.0001 498.9756,-669.0001"/>
</g>
<!-- Node825&#45;&gt;Node820 -->
<g id="edge24" class="edge">
<title>Node825&#45;&gt;Node820</title>
<path fill="none" stroke="#191970" d="M440.4874,-656.4533C451.1237,-653.815 462.5443,-650.7573 472.9785,-647.5 496.5165,-640.1521 522.5388,-630.2213 542.157,-622.3546"/>
<polygon fill="#191970" stroke="#191970" points="543.5547,-625.5647 551.5093,-618.5665 540.9267,-619.0768 543.5547,-625.5647"/>
</g>
<!-- Node826&#45;&gt;Node818 -->
<g id="edge26" class="edge">
<title>Node826&#45;&gt;Node818</title>
<path fill="none" stroke="#191970" d="M457.6811,-871.398C463.1731,-869.0618 468.3941,-866.1432 472.9785,-862.5 532.1565,-815.4714 559.5632,-724.1509 569.051,-684.5656"/>
<polygon fill="#191970" stroke="#191970" points="572.5014,-685.1766 571.307,-674.6493 565.6758,-683.6237 572.5014,-685.1766"/>
</g>
<!-- Node826&#45;&gt;Node820 -->
<g id="edge27" class="edge">
<title>Node826&#45;&gt;Node820</title>
<path fill="none" stroke="#191970" d="M461.3351,-871.4645C465.6527,-869.0754 469.6184,-866.1279 472.9785,-862.5 538.8132,-791.4179 454.1968,-727.4114 508.9785,-647.5 516.1831,-636.9905 527.3317,-628.9447 538.3259,-623.0218"/>
<polygon fill="#191970" stroke="#191970" points="540.0083,-626.0948 547.4348,-618.5384 536.917,-619.8143 540.0083,-626.0948"/>
</g>
<!-- Node827&#45;&gt;Node818 -->
<g id="edge29" class="edge">
<title>Node827&#45;&gt;Node818</title>
<path fill="none" stroke="#191970" d="M456.2466,-834.4193C462.2013,-832.0882 467.9205,-829.1649 472.9785,-825.5 523.503,-788.8915 554.2693,-718.2354 566.7201,-684.4254"/>
<polygon fill="#191970" stroke="#191970" points="570.0782,-685.4275 570.1208,-674.8327 563.4806,-683.0885 570.0782,-685.4275"/>
</g>
<!-- Node827&#45;&gt;Node820 -->
<g id="edge30" class="edge">
<title>Node827&#45;&gt;Node820</title>
<path fill="none" stroke="#191970" d="M461.2033,-834.3404C465.5495,-831.9782 469.5579,-829.0709 472.9785,-825.5 528.8121,-767.2147 462.2278,-713.2946 508.9785,-647.5 516.4175,-637.0308 527.7259,-628.9687 538.787,-623.0204"/>
<polygon fill="#191970" stroke="#191970" points="540.5072,-626.0747 547.9298,-618.5146 537.4127,-619.7958 540.5072,-626.0747"/>
</g>
<!-- Node828&#45;&gt;Node818 -->
<g id="edge32" class="edge">
<title>Node828&#45;&gt;Node818</title>
<path fill="none" stroke="#191970" d="M441.9611,-600.5145C452.2612,-603.2508 463.1532,-606.589 472.9785,-610.5 488.0132,-616.4845 524.5625,-637.1812 549.0958,-651.4062"/>
<polygon fill="#191970" stroke="#191970" points="547.437,-654.4904 557.8401,-656.497 550.959,-648.4409 547.437,-654.4904"/>
</g>
<!-- Node828&#45;&gt;Node820 -->
<g id="edge33" class="edge">
<title>Node828&#45;&gt;Node820</title>
<path fill="none" stroke="#191970" d="M465.0943,-598.2537C482.9496,-600.1125 502.1167,-602.1078 519.276,-603.8941"/>
<polygon fill="#191970" stroke="#191970" points="519.3623,-607.4219 529.6709,-604.9763 520.0871,-600.4596 519.3623,-607.4219"/>
</g>
<!-- Node829&#45;&gt;Node818 -->
<g id="edge35" class="edge">
<title>Node829&#45;&gt;Node818</title>
<path fill="none" stroke="#191970" d="M453.9399,-563.6335C460.7075,-566.16 467.2543,-569.3846 472.9785,-573.5 496.6995,-590.5542 487.7461,-608.4322 508.9785,-628.5 518.76,-637.745 531.2688,-645.6162 542.6385,-651.6912"/>
<polygon fill="#191970" stroke="#191970" points="541.3354,-654.9549 551.8363,-656.3625 544.5052,-648.7137 541.3354,-654.9549"/>
</g>
<!-- Node829&#45;&gt;Node820 -->
<g id="edge36" class="edge">
<title>Node829&#45;&gt;Node820</title>
<path fill="none" stroke="#191970" d="M437.4148,-563.5283C448.8806,-566.4945 461.5047,-569.9475 472.9785,-573.5 495.6731,-580.5266 520.8358,-589.577 540.2615,-596.8454"/>
<polygon fill="#191970" stroke="#191970" points="539.2617,-600.209 549.8535,-600.4637 541.7324,-593.6595 539.2617,-600.209"/>
</g>
<!-- Node830&#45;&gt;Node818 -->
<g id="edge38" class="edge">
<title>Node830&#45;&gt;Node818</title>
<path fill="none" stroke="#191970" d="M456.9875,-526.5014C462.8092,-529.0667 468.2946,-532.3367 472.9785,-536.5 505.7964,-565.67 480.3479,-595.2105 508.9785,-628.5 517.3617,-638.2473 528.9837,-646.0253 540.0349,-651.8852"/>
<polygon fill="#191970" stroke="#191970" points="538.5836,-655.0719 549.1001,-656.3575 541.6806,-648.7943 538.5836,-655.0719"/>
</g>
<!-- Node830&#45;&gt;Node820 -->
<g id="edge39" class="edge">
<title>Node830&#45;&gt;Node820</title>
<path fill="none" stroke="#191970" d="M445.7853,-526.5965C455.0128,-529.2091 464.4844,-532.4736 472.9785,-536.5 504.8176,-551.5925 536.9043,-577.249 555.8924,-593.7775"/>
<polygon fill="#191970" stroke="#191970" points="553.6143,-596.4352 563.4183,-600.4517 558.2589,-591.198 553.6143,-596.4352"/>
</g>
<!-- Node833 -->
<g id="node22" class="node">
<title>Node833</title>
<g id="a_node22"><a xlink:href="$classIoss_1_1GroupingEntity.html#a92f4d388db4e0d10b1be6ac7fa69af4a" xlink:title="Get the names of all fields in the entity&#39;s field manager. ">
<polygon fill="#ffffff" stroke="#000000" points="347.1958,-281.5 347.1958,-309.5 453.2397,-309.5 453.2397,-281.5 347.1958,-281.5"/>
<text text-anchor="start" x="355.1958" y="-297.5" font-family="Helvetica,sans-Serif" font-size="10.00" fill="#000000">Ioss::GroupingEntity</text>
<text text-anchor="middle" x="400.2178" y="-287.5" font-family="Helvetica,sans-Serif" font-size="10.00" fill="#000000">::field_describe</text>
</a>
</g>
</g>
<!-- Node832&#45;&gt;Node833 -->
<g id="edge42" class="edge">
<title>Node832&#45;&gt;Node833</title>
<path fill="none" stroke="#191970" d="M289.0298,-295.5C304.6019,-295.5 321.2967,-295.5 336.8928,-295.5"/>
<polygon fill="#191970" stroke="#191970" points="336.9601,-299.0001 346.9601,-295.5 336.96,-292.0001 336.9601,-299.0001"/>
</g>
<!-- Node834 -->
<g id="node23" class="node">
<title>Node834</title>
<g id="a_node23"><a xlink:href="$classIoss_1_1GroupingEntity.html#a508cc132f3c03c54d0dfd84f567fa1b6" xlink:title="Get a field from the entity&#39;s field manager. ">
<polygon fill="#ffffff" stroke="#000000" points="347.1958,-234.5 347.1958,-262.5 453.2397,-262.5 453.2397,-234.5 347.1958,-234.5"/>
<text text-anchor="start" x="355.1958" y="-250.5" font-family="Helvetica,sans-Serif" font-size="10.00" fill="#000000">Ioss::GroupingEntity</text>
<text text-anchor="middle" x="400.2178" y="-240.5" font-family="Helvetica,sans-Serif" font-size="10.00" fill="#000000">::get_field</text>
</a>
</g>
</g>
<!-- Node832&#45;&gt;Node834 -->
<g id="edge43" class="edge">
<title>Node832&#45;&gt;Node834</title>
<path fill="none" stroke="#191970" d="M289.0298,-278.5319C305.1533,-274.177 322.4804,-269.4969 338.5453,-265.1578"/>
<polygon fill="#191970" stroke="#191970" points="339.6213,-268.4926 348.3627,-262.5061 337.796,-261.7348 339.6213,-268.4926"/>
</g>
<!-- Node835 -->
<g id="node24" class="node">
<title>Node835</title>
<g id="a_node24"><a xlink:href="$classIoss_1_1GroupingEntity.html#a54edce5713d3439e095c37064a66ea50" xlink:title="Checks if a field with a given name exists in the entity&#39;s field manager. ">
<polygon fill="#ffffff" stroke="#000000" points="347.1958,-187.5 347.1958,-215.5 453.2397,-215.5 453.2397,-187.5 347.1958,-187.5"/>
<text text-anchor="start" x="355.1958" y="-203.5" font-family="Helvetica,sans-Serif" font-size="10.00" fill="#000000">Ioss::GroupingEntity</text>
<text text-anchor="middle" x="400.2178" y="-193.5" font-family="Helvetica,sans-Serif" font-size="10.00" fill="#000000">::field_exists</text>
</a>
</g>
</g>
<!-- Node832&#45;&gt;Node835 -->
<g id="edge44" class="edge">
<title>Node832&#45;&gt;Node835</title>
<path fill="none" stroke="#191970" d="M249.5462,-276.4708C269.3285,-261.0718 298.9506,-239.686 327.457,-225.5 331.9562,-223.261 336.7121,-221.1602 341.5511,-219.2055"/>
<polygon fill="#191970" stroke="#191970" points="342.8209,-222.4671 350.9133,-215.6286 340.3227,-215.9281 342.8209,-222.4671"/>
</g>
<!-- Node836 -->
<g id="node25" class="node">
<title>Node836</title>
<g id="a_node25"><a xlink:href="$classIoss_1_1GroupingEntity.html#a5a856638e3a522a70b0ee62103a43657" xlink:title="Add a field to the entity&#39;s field manager. ">
<polygon fill="#ffffff" stroke="#000000" points="347.1958,-328.5 347.1958,-356.5 453.2397,-356.5 453.2397,-328.5 347.1958,-328.5"/>
<text text-anchor="start" x="355.1958" y="-344.5" font-family="Helvetica,sans-Serif" font-size="10.00" fill="#000000">Ioss::GroupingEntity</text>
<text text-anchor="middle" x="400.2178" y="-334.5" font-family="Helvetica,sans-Serif" font-size="10.00" fill="#000000">::field_add</text>
</a>
</g>
</g>
<!-- Node832&#45;&gt;Node836 -->
<g id="edge45" class="edge">
<title>Node832&#45;&gt;Node836</title>
<path fill="none" stroke="#191970" d="M289.0298,-312.4681C305.1533,-316.823 322.4804,-321.5031 338.5453,-325.8422"/>
<polygon fill="#191970" stroke="#191970" points="337.796,-329.2652 348.3627,-328.4939 339.6213,-322.5074 337.796,-329.2652"/>
</g>
<!-- Node836&#45;&gt;Node813 -->
<g id="edge48" class="edge">
<title>Node836&#45;&gt;Node813</title>
<path fill="none" stroke="#191970" d="M453.4264,-348.8922C501.48,-354.6929 574.1295,-363.5319 637.2734,-371.5 648.554,-372.9235 660.4963,-374.4535 672.1619,-375.9609"/>
<polygon fill="#191970" stroke="#191970" points="671.952,-379.4629 682.3188,-377.2764 672.8512,-372.5208 671.952,-379.4629"/>
</g>
<!-- Node837 -->
<g id="node26" class="node">
<title>Node837</title>
<g id="a_node26"><a xlink:href="$classIoss_1_1Field.html#ac24230b1f5a5bda5d68b842c20efa9bb" xlink:title="Ioss::Field::raw_count">
<polygon fill="#ffffff" stroke="#000000" points="516.4932,-177.5 516.4932,-195.5 629.7588,-195.5 629.7588,-177.5 516.4932,-177.5"/>
<text text-anchor="middle" x="573.126" y="-183.5" font-family="Helvetica,sans-Serif" font-size="10.00" fill="#000000">Ioss::Field::raw_count</text>
</a>
</g>
</g>
<!-- Node836&#45;&gt;Node837 -->
<g id="edge46" class="edge">
<title>Node836&#45;&gt;Node837</title>
<path fill="none" stroke="#191970" d="M453.266,-331.7864C460.4515,-328.6792 467.2947,-324.6708 472.9785,-319.5 503.3258,-291.892 483.6786,-266.7967 508.9785,-234.5 519.5718,-220.9771 534.8733,-209.3306 547.875,-200.8973"/>
<polygon fill="#191970" stroke="#191970" points="549.7742,-203.8379 556.4226,-195.5886 546.081,-197.8914 549.7742,-203.8379"/>
</g>
<!-- Node838 -->
<g id="node27" class="node">
<title>Node838</title>
<g id="a_node27"><a xlink:href="$namespaceanonymous__namespace_02Ioss__Field_8C_03.html#a54a9e06fd87ef280d7cd5a33d986222e" xlink:title="anonymous_namespace\l\{Ioss_Field::C\}::type\l_string">
<polygon fill="#ffffff" stroke="#000000" points="510.646,-280.5 510.646,-318.5 635.606,-318.5 635.606,-280.5 510.646,-280.5"/>
<text text-anchor="start" x="518.646" y="-306.5" font-family="Helvetica,sans-Serif" font-size="10.00" fill="#000000">anonymous_namespace</text>
<text text-anchor="start" x="518.646" y="-296.5" font-family="Helvetica,sans-Serif" font-size="10.00" fill="#000000">{Ioss_Field::C}::type</text>
<text text-anchor="middle" x="573.126" y="-286.5" font-family="Helvetica,sans-Serif" font-size="10.00" fill="#000000">_string</text>
</a>
</g>
</g>
<!-- Node836&#45;&gt;Node838 -->
<g id="edge47" class="edge">
<title>Node836&#45;&gt;Node838</title>
<path fill="none" stroke="#191970" d="M453.5068,-329.2477C468.4623,-325.5285 484.9784,-321.4211 500.8404,-317.4765"/>
<polygon fill="#191970" stroke="#191970" points="501.7527,-320.8563 510.6124,-315.0463 500.0633,-314.0632 501.7527,-320.8563"/>
</g>
<!-- Node839 -->
<g id="node28" class="node">
<title>Node839</title>
<g id="a_node28"><a xlink:href="$classIoss_1_1Field.html#aca1c35eb7fb1dcd0bf8c80b2b6926131" xlink:title="Ioss::Field::get_name">
<polygon fill="#ffffff" stroke="#000000" points="517.3232,-243.5 517.3232,-261.5 628.9287,-261.5 628.9287,-243.5 517.3232,-243.5"/>
<text text-anchor="middle" x="573.126" y="-249.5" font-family="Helvetica,sans-Serif" font-size="10.00" fill="#000000">Ioss::Field::get_name</text>
</a>
</g>
</g>
<!-- Node836&#45;&gt;Node839 -->
<g id="edge49" class="edge">
<title>Node836&#45;&gt;Node839</title>
<path fill="none" stroke="#191970" d="M453.353,-330.0227C460.2859,-327.1794 467.0344,-323.7143 472.9785,-319.5 494.7325,-304.0768 487.0851,-286.7246 508.9785,-271.5 512.2118,-269.2516 515.7139,-267.2655 519.3568,-265.5116"/>
<polygon fill="#191970" stroke="#191970" points="520.7676,-268.7153 528.6296,-261.6133 518.0547,-262.2624 520.7676,-268.7153"/>
</g>
<!-- Node840&#45;&gt;Node833 -->
<g id="edge51" class="edge">
<title>Node840&#45;&gt;Node833</title>
<path fill="none" stroke="#191970" d="M242.6158,-199.7048C261.2443,-220.3927 293.4849,-252.9644 327.457,-272.5 330.6907,-274.3595 334.0932,-276.0882 337.5883,-277.6924"/>
<polygon fill="#191970" stroke="#191970" points="336.4291,-281.0017 347.004,-281.6521 339.1428,-274.5491 336.4291,-281.0017"/>
</g>
<!-- Node840&#45;&gt;Node834 -->
<g id="edge53" class="edge">
<title>Node840&#45;&gt;Node834</title>
<path fill="none" stroke="#191970" d="M266.1773,-199.5047C284.6302,-207.9565 306.9509,-217.73 327.457,-225.5 332.5673,-227.4364 337.9199,-229.3459 343.304,-231.1869"/>
<polygon fill="#191970" stroke="#191970" points="342.3901,-234.5716 352.9839,-234.4178 344.6064,-227.9317 342.3901,-234.5716"/>
</g>
<!-- Node840&#45;&gt;Node835 -->
<g id="edge52" class="edge">
<title>Node840&#45;&gt;Node835</title>
<path fill="none" stroke="#191970" d="M291.4982,-188.3794C306.3857,-190.176 322.1794,-192.0821 336.9793,-193.8682"/>
<polygon fill="#191970" stroke="#191970" points="336.696,-197.3593 347.0434,-195.0827 337.5348,-190.4097 336.696,-197.3593"/>
</g>
<!-- Node840&#45;&gt;Node836 -->
<g id="edge61" class="edge">
<title>Node840&#45;&gt;Node836</title>
<path fill="none" stroke="#191970" d="M240.9327,-199.6948C254.2978,-217.2206 274.4565,-243.9128 291.457,-267.5 307.8926,-290.3034 304.839,-302.8103 327.457,-319.5 330.6634,-321.866 334.1208,-323.9935 337.7258,-325.9059"/>
<polygon fill="#191970" stroke="#191970" points="336.3933,-329.1468 346.9326,-330.2299 339.3691,-322.8108 336.3933,-329.1468"/>
</g>
<!-- Node840&#45;&gt;Node837 -->
<g id="edge57" class="edge">
<title>Node840&#45;&gt;Node837</title>
<path fill="none" stroke="#191970" d="M291.7005,-178.2615C341.4477,-176.9753 411.547,-176.0503 472.9785,-178.5 483.72,-178.9283 495.0942,-179.6141 506.1738,-180.4086"/>
<polygon fill="#191970" stroke="#191970" points="506.0055,-183.9057 516.2395,-181.1645 506.5297,-176.9254 506.0055,-183.9057"/>
</g>
<!-- Node841 -->
<g id="node30" class="node">
<title>Node841</title>
<g id="a_node30"><a xlink:href="$classIoss_1_1Field.html#a8abb33dcfa0630f6422e7541b36694b4" xlink:title="Get the basic data type of the data held in the field. ">
<polygon fill="#ffffff" stroke="#000000" points="347.4717,-74.5 347.4717,-92.5 452.9639,-92.5 452.9639,-74.5 347.4717,-74.5"/>
<text text-anchor="middle" x="400.2178" y="-80.5" font-family="Helvetica,sans-Serif" font-size="10.00" fill="#000000">Ioss::Field::get_type</text>
</a>
</g>
</g>
<!-- Node840&#45;&gt;Node841 -->
<g id="edge54" class="edge">
<title>Node840&#45;&gt;Node841</title>
<path fill="none" stroke="#191970" d="M245.8895,-161.4088C265.184,-143.7002 296.1785,-117.8384 327.457,-102.5 332.7888,-99.8854 338.5228,-97.6002 344.3478,-95.6097"/>
<polygon fill="#191970" stroke="#191970" points="345.6837,-98.8591 354.1819,-92.5321 343.593,-92.1786 345.6837,-98.8591"/>
</g>
<!-- Node842 -->
<g id="node31" class="node">
<title>Node842</title>
<g id="a_node31"><a xlink:href="$classIoss_1_1Field.html#aa50e28cbc6eff5e4056eda686d79f4e1" xlink:title="Ioss::Field::raw_storage">
<polygon fill="#ffffff" stroke="#000000" points="339.1392,-37.5 339.1392,-55.5 461.2964,-55.5 461.2964,-37.5 339.1392,-37.5"/>
<text text-anchor="middle" x="400.2178" y="-43.5" font-family="Helvetica,sans-Serif" font-size="10.00" fill="#000000">Ioss::Field::raw_storage</text>
</a>
</g>
</g>
<!-- Node840&#45;&gt;Node842 -->
<g id="edge55" class="edge">
<title>Node840&#45;&gt;Node842</title>
<path fill="none" stroke="#191970" d="M237.6445,-161.2184C254.1281,-135.1629 287.0676,-89.144 327.457,-64.5 330.6437,-62.5556 334.0299,-60.8209 337.5309,-59.2734"/>
<polygon fill="#191970" stroke="#191970" points="338.9497,-62.4773 347.008,-55.5987 336.419,-55.9507 338.9497,-62.4773"/>
</g>
<!-- Node843 -->
<g id="node32" class="node">
<title>Node843</title>
<g id="a_node32"><a xlink:href="$classIoss_1_1Field.html#aade689a336549e6d96d931e7ba73503d" xlink:title="Get the role (MESH, ATTRIBUTE, TRANSIENT, REDUCTION, etc.) of the data in the field. ">
<polygon fill="#ffffff" stroke="#000000" points="348.585,-.5 348.585,-18.5 451.8506,-18.5 451.8506,-.5 348.585,-.5"/>
<text text-anchor="middle" x="400.2178" y="-6.5" font-family="Helvetica,sans-Serif" font-size="10.00" fill="#000000">Ioss::Field::get_role</text>
</a>
</g>
</g>
<!-- Node840&#45;&gt;Node843 -->
<g id="edge56" class="edge">
<title>Node840&#45;&gt;Node843</title>
<path fill="none" stroke="#191970" d="M233.3809,-161.4169C246.6896,-128.7046 278.395,-62.1097 327.457,-27.5 330.986,-25.0106 334.8228,-22.8641 338.8283,-21.0135"/>
<polygon fill="#191970" stroke="#191970" points="340.4107,-24.1511 348.4153,-17.2101 337.8294,-17.6445 340.4107,-24.1511"/>
</g>
<!-- Node844 -->
<g id="node33" class="node">
<title>Node844</title>
<g id="a_node33"><a xlink:href="$classIotr_1_1Factory.html#a9eba1b6558c8760b82ec44eccb73c30b" xlink:title="Iotr::Factory::create">
<polygon fill="#ffffff" stroke="#000000" points="348.8706,-111.5 348.8706,-129.5 451.5649,-129.5 451.5649,-111.5 348.8706,-111.5"/>
<text text-anchor="middle" x="400.2178" y="-117.5" font-family="Helvetica,sans-Serif" font-size="10.00" fill="#000000">Iotr::Factory::create</text>
</a>
</g>
</g>
<!-- Node840&#45;&gt;Node844 -->
<g id="edge58" class="edge">
<title>Node840&#45;&gt;Node844</title>
<path fill="none" stroke="#191970" d="M278.9394,-161.4923C294.5353,-155.9405 311.6615,-149.9124 327.457,-144.5 338.8439,-140.5982 351.2722,-136.4561 362.5828,-132.731"/>
<polygon fill="#191970" stroke="#191970" points="363.7704,-136.025 372.1805,-129.5813 361.5877,-129.374 363.7704,-136.025"/>
</g>
<!-- Node845 -->
<g id="node34" class="node">
<title>Node845</title>
<g id="a_node34"><a xlink:href="$classIotr_1_1Factory.html#a6039f97d64a3af6b859aab8d7134ef9e" xlink:title="Iotr::Factory::registry">
<polygon fill="#ffffff" stroke="#000000" points="519.2837,-74.5 519.2837,-92.5 626.9683,-92.5 626.9683,-74.5 519.2837,-74.5"/>
<text text-anchor="middle" x="573.126" y="-80.5" font-family="Helvetica,sans-Serif" font-size="10.00" fill="#000000">Iotr::Factory::registry</text>
</a>
</g>
</g>
<!-- Node844&#45;&gt;Node845 -->
<g id="edge59" class="edge">
<title>Node844&#45;&gt;Node845</title>
<path fill="none" stroke="#191970" d="M442.5159,-111.4488C466.1535,-106.3907 495.8109,-100.0444 520.8884,-94.6781"/>
<polygon fill="#191970" stroke="#191970" points="521.919,-98.0369 530.9652,-92.5218 520.4542,-91.1919 521.919,-98.0369"/>
</g>
<!-- Node846 -->
<g id="node35" class="node">
<title>Node846</title>
<g id="a_node35"><a xlink:href="$classIotr_1_1Factory.html#a33e848dfe2b61f8bc9ad7bd13165bd08" xlink:title="Iotr::Factory::make">
<polygon fill="#ffffff" stroke="#000000" points="523.4487,-111.5 523.4487,-129.5 622.8032,-129.5 622.8032,-111.5 523.4487,-111.5"/>
<text text-anchor="middle" x="573.126" y="-117.5" font-family="Helvetica,sans-Serif" font-size="10.00" fill="#000000">Iotr::Factory::make</text>
</a>
</g>
</g>
<!-- Node844&#45;&gt;Node846 -->
<g id="edge60" class="edge">
<title>Node844&#45;&gt;Node846</title>
<path fill="none" stroke="#191970" d="M451.6278,-120.5C470.9557,-120.5 493.0964,-120.5 513.1374,-120.5"/>
<polygon fill="#191970" stroke="#191970" points="513.4001,-124.0001 523.4001,-120.5 513.4,-117.0001 513.4001,-124.0001"/>
</g>
</g>
</svg>
