<?xml version="1.0" encoding="UTF-8" standalone="no"?>
<!DOCTYPE svg PUBLIC "-//W3C//DTD SVG 1.1//EN"
 "http://www.w3.org/Graphics/SVG/1.1/DTD/svg11.dtd">
<!-- Generated by graphviz version 2.40.1 (20161225.0304)
 -->
<!-- Title: anonymous_namespace{Ioss_FaceGenerator::C}::create_face Pages: 1 -->
<svg width="272pt" height="47pt"
 viewBox="0.00 0.00 271.66 47.00" xmlns="http://www.w3.org/2000/svg" xmlns:xlink="http://www.w3.org/1999/xlink">
<g id="graph0" class="graph" transform="scale(1 1) rotate(0) translate(4 43)">
<title>anonymous_namespace{Ioss_FaceGenerator::C}::create_face</title>
<polygon fill="#ffffff" stroke="transparent" points="-4,4 -4,-43 267.6641,-43 267.6641,4 -4,4"/>
<!-- Node0 -->
<g id="node1" class="node">
<title>Node0</title>
<polygon fill="#bfbfbf" stroke="#000000" points="0,-.5 0,-38.5 124.96,-38.5 124.96,-.5 0,-.5"/>
<text text-anchor="start" x="8" y="-26.5" font-family="Helvetica,sans-Serif" font-size="10.00" fill="#000000">anonymous_namespace</text>
<text text-anchor="start" x="8" y="-16.5" font-family="Helvetica,sans-Serif" font-size="10.00" fill="#000000">{Ioss_FaceGenerator</text>
<text text-anchor="middle" x="62.48" y="-6.5" font-family="Helvetica,sans-Serif" font-size="10.00" fill="#000000">::C}::create_face</text>
</g>
<!-- Node1 -->
<g id="node2" class="node">
<title>Node1</title>
<g id="a_node2"><a xlink:href="$classtsl_1_1robin__set.html#aec5148db14516e0025f7a791e98f770e" xlink:title="tsl::robin_set::insert">
<polygon fill="#ffffff" stroke="#000000" points="160.96,-10.5 160.96,-28.5 263.6641,-28.5 263.6641,-10.5 160.96,-10.5"/>
<text text-anchor="middle" x="212.312" y="-16.5" font-family="Helvetica,sans-Serif" font-size="10.00" fill="#000000">tsl::robin_set::insert</text>
</a>
</g>
</g>
<!-- Node0&#45;&gt;Node1 -->
<g id="edge1" class="edge">
<title>Node0&#45;&gt;Node1</title>
<path fill="none" stroke="#191970" d="M125.1541,-19.5C133.5917,-19.5 142.2423,-19.5 150.6619,-19.5"/>
<polygon fill="#191970" stroke="#191970" points="150.7877,-23.0001 160.7876,-19.5 150.7876,-16.0001 150.7877,-23.0001"/>
</g>
</g>
</svg>
