<?xml version="1.0" encoding="UTF-8" standalone="no"?>
<!DOCTYPE svg PUBLIC "-//W3C//DTD SVG 1.1//EN"
 "http://www.w3.org/Graphics/SVG/1.1/DTD/svg11.dtd">
<!-- Generated by graphviz version 2.40.1 (20161225.0304)
 -->
<!-- Title: anonymous_namespace{Utst_structured_decomp::C}::update_zgc_data Pages: 1 -->
<svg width="459pt" height="47pt"
 viewBox="0.00 0.00 458.72 47.00" xmlns="http://www.w3.org/2000/svg" xmlns:xlink="http://www.w3.org/1999/xlink">
<g id="graph0" class="graph" transform="scale(1 1) rotate(0) translate(4 43)">
<title>anonymous_namespace{Utst_structured_decomp::C}::update_zgc_data</title>
<polygon fill="#ffffff" stroke="transparent" points="-4,4 -4,-43 454.7227,-43 454.7227,4 -4,4"/>
<!-- Node67 -->
<g id="node1" class="node">
<title>Node67</title>
<polygon fill="#bfbfbf" stroke="#000000" points="0,-.5 0,-38.5 128.2803,-38.5 128.2803,-.5 0,-.5"/>
<text text-anchor="start" x="8" y="-26.5" font-family="Helvetica,sans-Serif" font-size="10.00" fill="#000000">anonymous_namespace</text>
<text text-anchor="start" x="8" y="-16.5" font-family="Helvetica,sans-Serif" font-size="10.00" fill="#000000">{Utst_structured_decomp</text>
<text text-anchor="middle" x="64.1401" y="-6.5" font-family="Helvetica,sans-Serif" font-size="10.00" fill="#000000">::C}::update_zgc_data</text>
</g>
<!-- Node68 -->
<g id="node2" class="node">
<title>Node68</title>
<g id="a_node2"><a xlink:href="$namespaceanonymous__namespace_02Utst__structured__decomp_8C_03.html#a3b567f5a3bae047251df70710f33084f" xlink:title="anonymous_namespace\l\{Utst_structured_decomp\l::C\}::generate_guid">
<polygon fill="#ffffff" stroke="#000000" points="164.2803,-.5 164.2803,-38.5 292.5605,-38.5 292.5605,-.5 164.2803,-.5"/>
<text text-anchor="start" x="172.2803" y="-26.5" font-family="Helvetica,sans-Serif" font-size="10.00" fill="#000000">anonymous_namespace</text>
<text text-anchor="start" x="172.2803" y="-16.5" font-family="Helvetica,sans-Serif" font-size="10.00" fill="#000000">{Utst_structured_decomp</text>
<text text-anchor="middle" x="228.4204" y="-6.5" font-family="Helvetica,sans-Serif" font-size="10.00" fill="#000000">::C}::generate_guid</text>
</a>
</g>
</g>
<!-- Node67&#45;&gt;Node68 -->
<g id="edge1" class="edge">
<title>Node67&#45;&gt;Node68</title>
<path fill="none" stroke="#191970" d="M128.5965,-19.5C136.9044,-19.5 145.4657,-19.5 153.9181,-19.5"/>
<polygon fill="#191970" stroke="#191970" points="154.1499,-23.0001 164.1499,-19.5 154.1498,-16.0001 154.1499,-23.0001"/>
</g>
<!-- Node69 -->
<g id="node3" class="node">
<title>Node69</title>
<g id="a_node3"><a xlink:href="$classIoss_1_1Utils.html#a78ab83fa66bd69d336118e0e72a84241" xlink:title="Ioss::Utils::log_power_2">
<polygon fill="#ffffff" stroke="#000000" points="328.5605,-10.5 328.5605,-28.5 450.7227,-28.5 450.7227,-10.5 328.5605,-10.5"/>
<text text-anchor="middle" x="389.6416" y="-16.5" font-family="Helvetica,sans-Serif" font-size="10.00" fill="#000000">Ioss::Utils::log_power_2</text>
</a>
</g>
</g>
<!-- Node68&#45;&gt;Node69 -->
<g id="edge2" class="edge">
<title>Node68&#45;&gt;Node69</title>
<path fill="none" stroke="#191970" d="M292.6025,-19.5C300.9679,-19.5 309.5798,-19.5 318.0569,-19.5"/>
<polygon fill="#191970" stroke="#191970" points="318.3046,-23.0001 328.3046,-19.5 318.3045,-16.0001 318.3046,-23.0001"/>
</g>
</g>
</svg>
