<?xml version="1.0" encoding="UTF-8" standalone="no"?>
<!DOCTYPE svg PUBLIC "-//W3C//DTD SVG 1.1//EN"
 "http://www.w3.org/Graphics/SVG/1.1/DTD/svg11.dtd">
<!-- Generated by graphviz version 2.40.1 (20161225.0304)
 -->
<!-- Title: Ioex::add_map_fields Pages: 1 -->
<svg width="575pt" height="270pt"
 viewBox="0.00 0.00 574.66 270.00" xmlns="http://www.w3.org/2000/svg" xmlns:xlink="http://www.w3.org/1999/xlink">
<g id="graph0" class="graph" transform="scale(1 1) rotate(0) translate(4 266)">
<title>Ioex::add_map_fields</title>
<polygon fill="#ffffff" stroke="transparent" points="-4,4 -4,-266 570.6631,-266 570.6631,4 -4,4"/>
<!-- Node41 -->
<g id="node1" class="node">
<title>Node41</title>
<polygon fill="#bfbfbf" stroke="#000000" points="0,-138.5 0,-156.5 111.0635,-156.5 111.0635,-138.5 0,-138.5"/>
<text text-anchor="middle" x="55.5317" y="-144.5" font-family="Helvetica,sans-Serif" font-size="10.00" fill="#000000">Ioex::add_map_fields</text>
</g>
<!-- Node42 -->
<g id="node2" class="node">
<title>Node42</title>
<g id="a_node2"><a xlink:href="$classIoss_1_1Utils.html#af25be5c9b86bb94f9c0dcb39bf255250" xlink:title="Ioss::Utils::get_name\l_array">
<polygon fill="#ffffff" stroke="#000000" points="150.6743,-233.5 150.6743,-261.5 260.0483,-261.5 260.0483,-233.5 150.6743,-233.5"/>
<text text-anchor="start" x="158.6743" y="-249.5" font-family="Helvetica,sans-Serif" font-size="10.00" fill="#000000">Ioss::Utils::get_name</text>
<text text-anchor="middle" x="205.3613" y="-239.5" font-family="Helvetica,sans-Serif" font-size="10.00" fill="#000000">_array</text>
</a>
</g>
</g>
<!-- Node41&#45;&gt;Node42 -->
<g id="edge1" class="edge">
<title>Node41&#45;&gt;Node42</title>
<path fill="none" stroke="#191970" d="M64.3773,-156.6809C79.8852,-172.3532 113.53,-204.5091 147.0635,-224.5 149.7343,-226.0922 152.5353,-227.6155 155.4042,-229.0656"/>
<polygon fill="#191970" stroke="#191970" points="154.1822,-232.3584 164.7215,-233.4416 157.158,-226.0224 154.1822,-232.3584"/>
</g>
<!-- Node43 -->
<g id="node3" class="node">
<title>Node43</title>
<g id="a_node3"><a xlink:href="$namespaceIoex.html#a7697aeff911a70745bd170f5259fd686" xlink:title="Ioex::exodus_error">
<polygon fill="#ffffff" stroke="#000000" points="155.6719,-196.5 155.6719,-214.5 255.0508,-214.5 255.0508,-196.5 155.6719,-196.5"/>
<text text-anchor="middle" x="205.3613" y="-202.5" font-family="Helvetica,sans-Serif" font-size="10.00" fill="#000000">Ioex::exodus_error</text>
</a>
</g>
</g>
<!-- Node41&#45;&gt;Node43 -->
<g id="edge2" class="edge">
<title>Node41&#45;&gt;Node43</title>
<path fill="none" stroke="#191970" d="M74.5598,-156.565C92.8972,-165.1212 121.5411,-178.0174 147.0635,-187.5 152.534,-189.5325 158.3499,-191.5239 164.1093,-193.3976"/>
<polygon fill="#191970" stroke="#191970" points="163.0875,-196.7453 173.6775,-196.4266 165.2001,-190.0717 163.0875,-196.7453"/>
</g>
<!-- Node44 -->
<g id="node4" class="node">
<title>Node44</title>
<g id="a_node4"><a xlink:href="$classIoss_1_1Utils.html#a13e9c9d36876c699b9b67ded571fab40" xlink:title="Convert a string to lower case, and convert spaces to &#39;_&#39;. ">
<polygon fill="#ffffff" stroke="#000000" points="147.0635,-159.5 147.0635,-177.5 263.6592,-177.5 263.6592,-159.5 147.0635,-159.5"/>
<text text-anchor="middle" x="205.3613" y="-165.5" font-family="Helvetica,sans-Serif" font-size="10.00" fill="#000000">Ioss::Utils::fixup_name</text>
</a>
</g>
</g>
<!-- Node41&#45;&gt;Node44 -->
<g id="edge3" class="edge">
<title>Node41&#45;&gt;Node44</title>
<path fill="none" stroke="#191970" d="M111.3227,-155.3196C119.6948,-156.493 128.4084,-157.7143 137.0058,-158.9193"/>
<polygon fill="#191970" stroke="#191970" points="136.6286,-162.4006 147.0177,-160.3226 137.6003,-155.4684 136.6286,-162.4006"/>
</g>
<!-- Node48 -->
<g id="node8" class="node">
<title>Node48</title>
<g id="a_node8"><a xlink:href="$classIoss_1_1GroupingEntity.html#a5a856638e3a522a70b0ee62103a43657" xlink:title="Add a field to the entity&#39;s field manager. ">
<polygon fill="#ffffff" stroke="#000000" points="152.3394,-112.5 152.3394,-140.5 258.3833,-140.5 258.3833,-112.5 152.3394,-112.5"/>
<text text-anchor="start" x="160.3394" y="-128.5" font-family="Helvetica,sans-Serif" font-size="10.00" fill="#000000">Ioss::GroupingEntity</text>
<text text-anchor="middle" x="205.3613" y="-118.5" font-family="Helvetica,sans-Serif" font-size="10.00" fill="#000000">::field_add</text>
</a>
</g>
</g>
<!-- Node41&#45;&gt;Node48 -->
<g id="edge7" class="edge">
<title>Node41&#45;&gt;Node48</title>
<path fill="none" stroke="#191970" d="M111.3227,-139.6804C121.3068,-138.281 131.7765,-136.8136 141.9558,-135.3869"/>
<polygon fill="#191970" stroke="#191970" points="142.5922,-138.832 152.0096,-133.9777 141.6205,-131.8997 142.5922,-138.832"/>
</g>
<!-- Node52 -->
<g id="node12" class="node">
<title>Node52</title>
<g id="a_node12"><a xlink:href="$classIoss_1_1GroupingEntity.html#a0178b36d697ce63d54fcab3204c15201" xlink:title="Ioss::GroupingEntity\l::field_int_type">
<polygon fill="#ffffff" stroke="#000000" points="152.3394,-65.5 152.3394,-93.5 258.3833,-93.5 258.3833,-65.5 152.3394,-65.5"/>
<text text-anchor="start" x="160.3394" y="-81.5" font-family="Helvetica,sans-Serif" font-size="10.00" fill="#000000">Ioss::GroupingEntity</text>
<text text-anchor="middle" x="205.3613" y="-71.5" font-family="Helvetica,sans-Serif" font-size="10.00" fill="#000000">::field_int_type</text>
</a>
</g>
</g>
<!-- Node41&#45;&gt;Node52 -->
<g id="edge12" class="edge">
<title>Node41&#45;&gt;Node52</title>
<path fill="none" stroke="#191970" d="M73.6226,-138.4236C91.9839,-129.3016 121.2968,-114.9855 147.0635,-103.5 151.5153,-101.5156 156.1823,-99.4954 160.855,-97.5118"/>
<polygon fill="#191970" stroke="#191970" points="162.5184,-100.6097 170.3871,-93.515 159.8116,-94.1542 162.5184,-100.6097"/>
</g>
<!-- Node54 -->
<g id="node14" class="node">
<title>Node54</title>
<g id="a_node14"><a xlink:href="$classIoss_1_1Utils.html#a553a066e32b8f268758e92a0fa27db69" xlink:title="Ioss::Utils::delete\l_name_array">
<polygon fill="#ffffff" stroke="#000000" points="159.29,-18.5 159.29,-46.5 251.4326,-46.5 251.4326,-18.5 159.29,-18.5"/>
<text text-anchor="start" x="167.29" y="-34.5" font-family="Helvetica,sans-Serif" font-size="10.00" fill="#000000">Ioss::Utils::delete</text>
<text text-anchor="middle" x="205.3613" y="-24.5" font-family="Helvetica,sans-Serif" font-size="10.00" fill="#000000">_name_array</text>
</a>
</g>
</g>
<!-- Node41&#45;&gt;Node54 -->
<g id="edge14" class="edge">
<title>Node41&#45;&gt;Node54</title>
<path fill="none" stroke="#191970" d="M62.6665,-138.3063C76.9612,-120.4133 110.857,-80.5596 147.0635,-56.5 149.9308,-54.5947 152.9735,-52.7952 156.1053,-51.1044"/>
<polygon fill="#191970" stroke="#191970" points="157.703,-54.2188 165.0955,-46.6293 154.5836,-47.9523 157.703,-54.2188"/>
</g>
<!-- Node45 -->
<g id="node5" class="node">
<title>Node45</title>
<g id="a_node5"><a xlink:href="$namespaceanonymous__namespace_02io__info_8C_03.html#ac76aa36231a3291b803cc8e620fce319" xlink:title="anonymous_namespace\l\{io_info::C\}::name">
<polygon fill="#ffffff" stroke="#000000" points="299.6592,-178.5 299.6592,-206.5 424.6191,-206.5 424.6191,-178.5 299.6592,-178.5"/>
<text text-anchor="start" x="307.6592" y="-194.5" font-family="Helvetica,sans-Serif" font-size="10.00" fill="#000000">anonymous_namespace</text>
<text text-anchor="middle" x="362.1392" y="-184.5" font-family="Helvetica,sans-Serif" font-size="10.00" fill="#000000">{io_info::C}::name</text>
</a>
</g>
</g>
<!-- Node44&#45;&gt;Node45 -->
<g id="edge4" class="edge">
<title>Node44&#45;&gt;Node45</title>
<path fill="none" stroke="#191970" d="M263.7396,-177.4367C272.1245,-178.7203 280.8367,-180.054 289.4564,-181.3735"/>
<polygon fill="#191970" stroke="#191970" points="289.0931,-184.8586 299.5076,-182.9122 290.1524,-177.9392 289.0931,-184.8586"/>
</g>
<!-- Node46 -->
<g id="node6" class="node">
<title>Node46</title>
<g id="a_node6"><a xlink:href="$classIoss_1_1GroupingEntity.html#adf92c4256dc89b729f4492642bc4d745" xlink:title="Get the name of the particular type of entity. ">
<polygon fill="#ffffff" stroke="#000000" points="460.6191,-201.5 460.6191,-229.5 566.6631,-229.5 566.6631,-201.5 460.6191,-201.5"/>
<text text-anchor="start" x="468.6191" y="-217.5" font-family="Helvetica,sans-Serif" font-size="10.00" fill="#000000">Ioss::GroupingEntity</text>
<text text-anchor="middle" x="513.6411" y="-207.5" font-family="Helvetica,sans-Serif" font-size="10.00" fill="#000000">::type_string</text>
</a>
</g>
</g>
<!-- Node45&#45;&gt;Node46 -->
<g id="edge5" class="edge">
<title>Node45&#45;&gt;Node46</title>
<path fill="none" stroke="#191970" d="M424.6355,-201.9878C433.1889,-203.2863 441.975,-204.6201 450.5392,-205.9203"/>
<polygon fill="#191970" stroke="#191970" points="450.0514,-209.3863 460.4635,-207.4269 451.1022,-202.4656 450.0514,-209.3863"/>
</g>
<!-- Node47 -->
<g id="node7" class="node">
<title>Node47</title>
<g id="a_node7"><a xlink:href="$classIoss_1_1GroupingEntity.html#a50d4053f49c8c3205e05d939fdc9fbc5" xlink:title="Get name of entity. ">
<polygon fill="#ffffff" stroke="#000000" points="460.6191,-154.5 460.6191,-182.5 566.6631,-182.5 566.6631,-154.5 460.6191,-154.5"/>
<text text-anchor="start" x="468.6191" y="-170.5" font-family="Helvetica,sans-Serif" font-size="10.00" fill="#000000">Ioss::GroupingEntity</text>
<text text-anchor="middle" x="513.6411" y="-160.5" font-family="Helvetica,sans-Serif" font-size="10.00" fill="#000000">::name</text>
</a>
</g>
</g>
<!-- Node45&#45;&gt;Node47 -->
<g id="edge6" class="edge">
<title>Node45&#45;&gt;Node47</title>
<path fill="none" stroke="#191970" d="M424.6355,-182.5997C433.1889,-181.2447 441.975,-179.8529 450.5392,-178.4962"/>
<polygon fill="#191970" stroke="#191970" points="451.1343,-181.9457 460.4635,-176.9241 450.039,-175.0319 451.1343,-181.9457"/>
</g>
<!-- Node48&#45;&gt;Node45 -->
<g id="edge10" class="edge">
<title>Node48&#45;&gt;Node45</title>
<path fill="none" stroke="#191970" d="M241.0493,-140.5624C248.5742,-143.7027 256.4236,-147.1106 263.6592,-150.5 280.0424,-158.1745 283.1338,-162.1366 299.6592,-169.5 303.6878,-171.2951 307.9035,-173.066 312.161,-174.7801"/>
<polygon fill="#191970" stroke="#191970" points="310.904,-178.0465 321.4919,-178.429 313.4534,-171.5273 310.904,-178.0465"/>
</g>
<!-- Node49 -->
<g id="node9" class="node">
<title>Node49</title>
<g id="a_node9"><a xlink:href="$classIoss_1_1Field.html#ac24230b1f5a5bda5d68b842c20efa9bb" xlink:title="Ioss::Field::raw_count">
<polygon fill="#ffffff" stroke="#000000" points="305.5063,-141.5 305.5063,-159.5 418.772,-159.5 418.772,-141.5 305.5063,-141.5"/>
<text text-anchor="middle" x="362.1392" y="-147.5" font-family="Helvetica,sans-Serif" font-size="10.00" fill="#000000">Ioss::Field::raw_count</text>
</a>
</g>
</g>
<!-- Node48&#45;&gt;Node49 -->
<g id="edge8" class="edge">
<title>Node48&#45;&gt;Node49</title>
<path fill="none" stroke="#191970" d="M258.4392,-134.6253C270.2373,-136.4314 282.8923,-138.3687 295.1658,-140.2475"/>
<polygon fill="#191970" stroke="#191970" points="294.9442,-143.7543 305.3587,-141.8079 296.0035,-136.8349 294.9442,-143.7543"/>
</g>
<!-- Node50 -->
<g id="node10" class="node">
<title>Node50</title>
<g id="a_node10"><a xlink:href="$namespaceanonymous__namespace_02Ioss__Field_8C_03.html#a54a9e06fd87ef280d7cd5a33d986222e" xlink:title="anonymous_namespace\l\{Ioss_Field::C\}::type\l_string">
<polygon fill="#ffffff" stroke="#000000" points="299.6592,-84.5 299.6592,-122.5 424.6191,-122.5 424.6191,-84.5 299.6592,-84.5"/>
<text text-anchor="start" x="307.6592" y="-110.5" font-family="Helvetica,sans-Serif" font-size="10.00" fill="#000000">anonymous_namespace</text>
<text text-anchor="start" x="307.6592" y="-100.5" font-family="Helvetica,sans-Serif" font-size="10.00" fill="#000000">{Ioss_Field::C}::type</text>
<text text-anchor="middle" x="362.1392" y="-90.5" font-family="Helvetica,sans-Serif" font-size="10.00" fill="#000000">_string</text>
</a>
</g>
</g>
<!-- Node48&#45;&gt;Node50 -->
<g id="edge9" class="edge">
<title>Node48&#45;&gt;Node50</title>
<path fill="none" stroke="#191970" d="M258.4392,-118.7132C268.4696,-117.2417 279.1195,-115.6793 289.6277,-114.1377"/>
<polygon fill="#191970" stroke="#191970" points="290.2483,-117.5843 299.6344,-112.6697 289.2322,-110.6584 290.2483,-117.5843"/>
</g>
<!-- Node51 -->
<g id="node11" class="node">
<title>Node51</title>
<g id="a_node11"><a xlink:href="$classIoss_1_1Field.html#aca1c35eb7fb1dcd0bf8c80b2b6926131" xlink:title="Ioss::Field::get_name">
<polygon fill="#ffffff" stroke="#000000" points="306.3364,-47.5 306.3364,-65.5 417.9419,-65.5 417.9419,-47.5 306.3364,-47.5"/>
<text text-anchor="middle" x="362.1392" y="-53.5" font-family="Helvetica,sans-Serif" font-size="10.00" fill="#000000">Ioss::Field::get_name</text>
</a>
</g>
</g>
<!-- Node48&#45;&gt;Node51 -->
<g id="edge11" class="edge">
<title>Node48&#45;&gt;Node51</title>
<path fill="none" stroke="#191970" d="M245.5814,-112.3865C251.7739,-109.7166 257.9887,-106.7347 263.6592,-103.5 281.2657,-93.4563 281.6625,-84.8265 299.6592,-75.5 304.3211,-73.084 309.3411,-70.9204 314.437,-68.9968"/>
<polygon fill="#191970" stroke="#191970" points="315.9557,-72.1746 324.2562,-65.5904 313.6614,-65.5613 315.9557,-72.1746"/>
</g>
<!-- Node53 -->
<g id="node13" class="node">
<title>Node53</title>
<g id="a_node13"><a xlink:href="$classIoss_1_1GroupingEntity.html#a318cd5cde65370bb9c83f8ca223f8481" xlink:title="Ioss::GroupingEntity\l::get_database">
<polygon fill="#ffffff" stroke="#000000" points="309.1172,-.5 309.1172,-28.5 415.1611,-28.5 415.1611,-.5 309.1172,-.5"/>
<text text-anchor="start" x="317.1172" y="-16.5" font-family="Helvetica,sans-Serif" font-size="10.00" fill="#000000">Ioss::GroupingEntity</text>
<text text-anchor="middle" x="362.1392" y="-6.5" font-family="Helvetica,sans-Serif" font-size="10.00" fill="#000000">::get_database</text>
</a>
</g>
</g>
<!-- Node52&#45;&gt;Node53 -->
<g id="edge13" class="edge">
<title>Node52&#45;&gt;Node53</title>
<path fill="none" stroke="#191970" d="M242.573,-65.3842C249.6223,-62.551 256.9027,-59.5149 263.6592,-56.5 279.9951,-49.2104 283.2905,-45.7157 299.6592,-38.5 304.3891,-36.415 309.3617,-34.3299 314.35,-32.3077"/>
<polygon fill="#191970" stroke="#191970" points="315.9008,-35.4577 323.9022,-28.513 313.3165,-28.9523 315.9008,-35.4577"/>
</g>
</g>
</svg>
