<?xml version="1.0" encoding="UTF-8" standalone="no"?>
<!DOCTYPE svg PUBLIC "-//W3C//DTD SVG 1.1//EN"
 "http://www.w3.org/Graphics/SVG/1.1/DTD/svg11.dtd">
<!-- Generated by graphviz version 2.40.1 (20161225.0304)
 -->
<!-- Title: Ioex::separate_surface_element_sides Pages: 1 -->
<svg width="798pt" height="311pt"
 viewBox="0.00 0.00 798.47 311.00" xmlns="http://www.w3.org/2000/svg" xmlns:xlink="http://www.w3.org/1999/xlink">
<g id="graph0" class="graph" transform="scale(1 1) rotate(0) translate(4 307)">
<title>Ioex::separate_surface_element_sides</title>
<polygon fill="#ffffff" stroke="transparent" points="-4,4 -4,-307 794.4697,-307 794.4697,4 -4,4"/>
<!-- Node387 -->
<g id="node1" class="node">
<title>Node387</title>
<polygon fill="#bfbfbf" stroke="#000000" points="0,-141.5 0,-169.5 117.7285,-169.5 117.7285,-141.5 0,-141.5"/>
<text text-anchor="start" x="8" y="-157.5" font-family="Helvetica,sans-Serif" font-size="10.00" fill="#000000">Ioex::separate_surface</text>
<text text-anchor="middle" x="58.8643" y="-147.5" font-family="Helvetica,sans-Serif" font-size="10.00" fill="#000000">_element_sides</text>
</g>
<!-- Node388 -->
<g id="node2" class="node">
<title>Node388</title>
<g id="a_node2"><a xlink:href="$classIoss_1_1EntityBlock.html#ade2a59d921b0eb0aa5e361b665f97d77" xlink:title="Determine whether the block contains the entity with a given id. ">
<polygon fill="#ffffff" stroke="#000000" points="172.3613,-274.5 172.3613,-302.5 267.2773,-302.5 267.2773,-274.5 172.3613,-274.5"/>
<text text-anchor="start" x="180.3613" y="-290.5" font-family="Helvetica,sans-Serif" font-size="10.00" fill="#000000">Ioss::EntityBlock::</text>
<text text-anchor="middle" x="219.8193" y="-280.5" font-family="Helvetica,sans-Serif" font-size="10.00" fill="#000000">contains</text>
</a>
</g>
</g>
<!-- Node387&#45;&gt;Node388 -->
<g id="edge1" class="edge">
<title>Node387&#45;&gt;Node388</title>
<path fill="none" stroke="#191970" d="M67.5627,-169.7609C82.4362,-193.011 114.937,-239.1306 153.7285,-265.5 156.6297,-267.4722 159.7173,-269.292 162.9122,-270.9689"/>
<polygon fill="#191970" stroke="#191970" points="161.598,-274.2189 172.1351,-275.3236 164.5868,-267.889 161.598,-274.2189"/>
</g>
<!-- Node389 -->
<g id="node3" class="node">
<title>Node389</title>
<g id="a_node3"><a xlink:href="$classIoss_1_1Region.html#a0b646180161f131be5c4e74aea12ae8a" xlink:title="Get the element block with the given name. ">
<polygon fill="#ffffff" stroke="#000000" points="153.7285,-227.5 153.7285,-255.5 285.9102,-255.5 285.9102,-227.5 153.7285,-227.5"/>
<text text-anchor="start" x="161.7285" y="-243.5" font-family="Helvetica,sans-Serif" font-size="10.00" fill="#000000">Ioss::Region::get_element</text>
<text text-anchor="middle" x="219.8193" y="-233.5" font-family="Helvetica,sans-Serif" font-size="10.00" fill="#000000">_block</text>
</a>
</g>
</g>
<!-- Node387&#45;&gt;Node389 -->
<g id="edge2" class="edge">
<title>Node387&#45;&gt;Node389</title>
<path fill="none" stroke="#191970" d="M80.6434,-169.675C99.5837,-181.7363 127.9578,-199.1727 153.7285,-212.5 160.929,-216.2237 168.7111,-219.9175 176.3209,-223.3585"/>
<polygon fill="#191970" stroke="#191970" points="174.9068,-226.5601 185.4671,-227.4156 177.7453,-220.1614 174.9068,-226.5601"/>
</g>
<!-- Node395 -->
<g id="node9" class="node">
<title>Node395</title>
<g id="a_node9"><a xlink:href="$classIoss_1_1GroupingEntity.html#a50d4053f49c8c3205e05d939fdc9fbc5" xlink:title="Get name of entity. ">
<polygon fill="#ffffff" stroke="#000000" points="674.9678,-184.5 674.9678,-212.5 781.0117,-212.5 781.0117,-184.5 674.9678,-184.5"/>
<text text-anchor="start" x="682.9678" y="-200.5" font-family="Helvetica,sans-Serif" font-size="10.00" fill="#000000">Ioss::GroupingEntity</text>
<text text-anchor="middle" x="727.9897" y="-190.5" font-family="Helvetica,sans-Serif" font-size="10.00" fill="#000000">::name</text>
</a>
</g>
</g>
<!-- Node387&#45;&gt;Node395 -->
<g id="edge19" class="edge">
<title>Node387&#45;&gt;Node395</title>
<path fill="none" stroke="#191970" d="M106.2398,-169.6096C121.2877,-173.5165 138.0849,-177.2885 153.7285,-179.5 337.7347,-205.5119 558.0462,-203.727 664.3774,-200.8266"/>
<polygon fill="#191970" stroke="#191970" points="664.7192,-204.3183 674.6151,-200.5341 664.5192,-197.3212 664.7192,-204.3183"/>
</g>
<!-- Node396 -->
<g id="node10" class="node">
<title>Node396</title>
<g id="a_node10"><a xlink:href="$classIoss_1_1Utils.html#a933214d50c601b1e2f089f9c981f59da" xlink:title="Determine whether an entity has the property &quot;omitted.&quot;. ">
<polygon fill="#ffffff" stroke="#000000" points="175.6987,-141.5 175.6987,-169.5 263.9399,-169.5 263.9399,-141.5 175.6987,-141.5"/>
<text text-anchor="start" x="183.6987" y="-157.5" font-family="Helvetica,sans-Serif" font-size="10.00" fill="#000000">Ioss::Utils::block</text>
<text text-anchor="middle" x="219.8193" y="-147.5" font-family="Helvetica,sans-Serif" font-size="10.00" fill="#000000">_is_omitted</text>
</a>
</g>
</g>
<!-- Node387&#45;&gt;Node396 -->
<g id="edge9" class="edge">
<title>Node387&#45;&gt;Node396</title>
<path fill="none" stroke="#191970" d="M117.884,-155.5C133.4112,-155.5 150.0879,-155.5 165.3631,-155.5"/>
<polygon fill="#191970" stroke="#191970" points="165.683,-159.0001 175.683,-155.5 165.683,-152.0001 165.683,-159.0001"/>
</g>
<!-- Node403 -->
<g id="node17" class="node">
<title>Node403</title>
<g id="a_node17"><a xlink:href="$classIoss_1_1EntityBlock.html#abc83ec3b85f7ffd6fd80789061472e17" xlink:title="Get the topology of the entities in the block. ">
<polygon fill="#ffffff" stroke="#000000" points="172.3613,-94.5 172.3613,-122.5 267.2773,-122.5 267.2773,-94.5 172.3613,-94.5"/>
<text text-anchor="start" x="180.3613" y="-110.5" font-family="Helvetica,sans-Serif" font-size="10.00" fill="#000000">Ioss::EntityBlock::</text>
<text text-anchor="middle" x="219.8193" y="-100.5" font-family="Helvetica,sans-Serif" font-size="10.00" fill="#000000">topology</text>
</a>
</g>
</g>
<!-- Node387&#45;&gt;Node403 -->
<g id="edge16" class="edge">
<title>Node387&#45;&gt;Node403</title>
<path fill="none" stroke="#191970" d="M107.1561,-141.3985C124.5009,-136.3336 144.2338,-130.5715 162.286,-125.3001"/>
<polygon fill="#191970" stroke="#191970" points="163.4982,-128.5924 172.1163,-122.4296 161.5361,-121.873 163.4982,-128.5924"/>
</g>
<!-- Node404 -->
<g id="node18" class="node">
<title>Node404</title>
<g id="a_node18"><a xlink:href="$classIoss_1_1ElementTopology.html#a264efcfd8390e25c8fbcafa44c9273da" xlink:title="Ioss::ElementTopology\l::boundary_type">
<polygon fill="#ffffff" stroke="#000000" points="161.5142,-47.5 161.5142,-75.5 278.1245,-75.5 278.1245,-47.5 161.5142,-47.5"/>
<text text-anchor="start" x="169.5142" y="-63.5" font-family="Helvetica,sans-Serif" font-size="10.00" fill="#000000">Ioss::ElementTopology</text>
<text text-anchor="middle" x="219.8193" y="-53.5" font-family="Helvetica,sans-Serif" font-size="10.00" fill="#000000">::boundary_type</text>
</a>
</g>
</g>
<!-- Node387&#45;&gt;Node404 -->
<g id="edge17" class="edge">
<title>Node387&#45;&gt;Node404</title>
<path fill="none" stroke="#191970" d="M75.0194,-141.3009C93.1582,-125.9218 123.9625,-101.4541 153.7285,-85.5 157.7094,-83.3663 161.9202,-81.348 166.2112,-79.4564"/>
<polygon fill="#191970" stroke="#191970" points="167.7849,-82.5926 175.6751,-75.5219 165.0977,-76.1289 167.7849,-82.5926"/>
</g>
<!-- Node405 -->
<g id="node19" class="node">
<title>Node405</title>
<g id="a_node19"><a xlink:href="$classIoss_1_1ElementTopology.html#a65981470136fcfc0e884c7332a3ed2f5" xlink:title="Ioss::ElementTopology\l::name">
<polygon fill="#ffffff" stroke="#000000" points="161.5142,-.5 161.5142,-28.5 278.1245,-28.5 278.1245,-.5 161.5142,-.5"/>
<text text-anchor="start" x="169.5142" y="-16.5" font-family="Helvetica,sans-Serif" font-size="10.00" fill="#000000">Ioss::ElementTopology</text>
<text text-anchor="middle" x="219.8193" y="-6.5" font-family="Helvetica,sans-Serif" font-size="10.00" fill="#000000">::name</text>
</a>
</g>
</g>
<!-- Node387&#45;&gt;Node405 -->
<g id="edge18" class="edge">
<title>Node387&#45;&gt;Node405</title>
<path fill="none" stroke="#191970" d="M66.6143,-141.3669C80.7716,-116.805 113.131,-66.1338 153.7285,-37.5 155.8568,-35.9989 158.0922,-34.5879 160.4017,-33.2624"/>
<polygon fill="#191970" stroke="#191970" points="162.2913,-36.2276 169.6077,-28.5646 159.1095,-29.9925 162.2913,-36.2276"/>
</g>
<!-- Node390 -->
<g id="node4" class="node">
<title>Node390</title>
<g id="a_node4"><a xlink:href="$classIoss_1_1Region.html#a83e8885c1191dcd9200e1b0954ba0e10" xlink:title="Ioss::Region::get_alias__">
<polygon fill="#ffffff" stroke="#000000" points="321.9102,-274.5 321.9102,-292.5 450.2051,-292.5 450.2051,-274.5 321.9102,-274.5"/>
<text text-anchor="middle" x="386.0576" y="-280.5" font-family="Helvetica,sans-Serif" font-size="10.00" fill="#000000">Ioss::Region::get_alias__</text>
</a>
</g>
</g>
<!-- Node389&#45;&gt;Node390 -->
<g id="edge3" class="edge">
<title>Node389&#45;&gt;Node390</title>
<path fill="none" stroke="#191970" d="M275.6367,-255.6022C296.6165,-260.9028 320.2068,-266.8628 340.1802,-271.9091"/>
<polygon fill="#191970" stroke="#191970" points="339.4113,-275.3247 349.964,-274.381 341.126,-268.538 339.4113,-275.3247"/>
</g>
<!-- Node392 -->
<g id="node6" class="node">
<title>Node392</title>
<g id="a_node6"><a xlink:href="$classIoss_1_1Utils.html#a1ec73edea0e845665ac385f605f4aa99" xlink:title="Ioss::Utils::hash">
<polygon fill="#ffffff" stroke="#000000" points="342.7671,-232.5 342.7671,-250.5 429.3481,-250.5 429.3481,-232.5 342.7671,-232.5"/>
<text text-anchor="middle" x="386.0576" y="-238.5" font-family="Helvetica,sans-Serif" font-size="10.00" fill="#000000">Ioss::Utils::hash</text>
</a>
</g>
</g>
<!-- Node389&#45;&gt;Node392 -->
<g id="edge5" class="edge">
<title>Node389&#45;&gt;Node392</title>
<path fill="none" stroke="#191970" d="M285.9988,-241.5C301.4478,-241.5 317.7123,-241.5 332.5329,-241.5"/>
<polygon fill="#191970" stroke="#191970" points="332.5349,-245.0001 342.5349,-241.5 332.5348,-238.0001 332.5349,-245.0001"/>
</g>
<!-- Node391 -->
<g id="node5" class="node">
<title>Node391</title>
<g id="a_node5"><a xlink:href="$namespaceanonymous__namespace_02Ioss__Region_8C_03.html#acd06ef87eff981abc4c9d7cfb0a4f11d" xlink:title="anonymous_namespace\l\{Ioss_Region::C\}::uppercase">
<polygon fill="#ffffff" stroke="#000000" points="486.2051,-274.5 486.2051,-302.5 629.5098,-302.5 629.5098,-274.5 486.2051,-274.5"/>
<text text-anchor="start" x="494.2051" y="-290.5" font-family="Helvetica,sans-Serif" font-size="10.00" fill="#000000">anonymous_namespace</text>
<text text-anchor="middle" x="557.8574" y="-280.5" font-family="Helvetica,sans-Serif" font-size="10.00" fill="#000000">{Ioss_Region::C}::uppercase</text>
</a>
</g>
</g>
<!-- Node390&#45;&gt;Node391 -->
<g id="edge4" class="edge">
<title>Node390&#45;&gt;Node391</title>
<path fill="none" stroke="#191970" d="M450.5183,-285.376C458.8673,-285.619 467.5049,-285.8704 476.0874,-286.1202"/>
<polygon fill="#191970" stroke="#191970" points="476.019,-289.6196 486.1166,-286.4121 476.2227,-282.6226 476.019,-289.6196"/>
</g>
<!-- Node393 -->
<g id="node7" class="node">
<title>Node393</title>
<g id="a_node7"><a xlink:href="$namespaceanonymous__namespace_02io__info_8C_03.html#ac76aa36231a3291b803cc8e620fce319" xlink:title="anonymous_namespace\l\{io_info::C\}::name">
<polygon fill="#ffffff" stroke="#000000" points="495.3774,-227.5 495.3774,-255.5 620.3374,-255.5 620.3374,-227.5 495.3774,-227.5"/>
<text text-anchor="start" x="503.3774" y="-243.5" font-family="Helvetica,sans-Serif" font-size="10.00" fill="#000000">anonymous_namespace</text>
<text text-anchor="middle" x="557.8574" y="-233.5" font-family="Helvetica,sans-Serif" font-size="10.00" fill="#000000">{io_info::C}::name</text>
</a>
</g>
</g>
<!-- Node392&#45;&gt;Node393 -->
<g id="edge6" class="edge">
<title>Node392&#45;&gt;Node393</title>
<path fill="none" stroke="#191970" d="M429.41,-241.5C446.3461,-241.5 466.2344,-241.5 485.2346,-241.5"/>
<polygon fill="#191970" stroke="#191970" points="485.3706,-245.0001 495.3706,-241.5 485.3705,-238.0001 485.3706,-245.0001"/>
</g>
<!-- Node394 -->
<g id="node8" class="node">
<title>Node394</title>
<g id="a_node8"><a xlink:href="$classIoss_1_1GroupingEntity.html#adf92c4256dc89b729f4492642bc4d745" xlink:title="Get the name of the particular type of entity. ">
<polygon fill="#ffffff" stroke="#000000" points="674.9678,-231.5 674.9678,-259.5 781.0117,-259.5 781.0117,-231.5 674.9678,-231.5"/>
<text text-anchor="start" x="682.9678" y="-247.5" font-family="Helvetica,sans-Serif" font-size="10.00" fill="#000000">Ioss::GroupingEntity</text>
<text text-anchor="middle" x="727.9897" y="-237.5" font-family="Helvetica,sans-Serif" font-size="10.00" fill="#000000">::type_string</text>
</a>
</g>
</g>
<!-- Node393&#45;&gt;Node394 -->
<g id="edge7" class="edge">
<title>Node393&#45;&gt;Node394</title>
<path fill="none" stroke="#191970" d="M620.725,-242.9781C635.0449,-243.3148 650.2671,-243.6727 664.6082,-244.0098"/>
<polygon fill="#191970" stroke="#191970" points="664.79,-247.515 674.8696,-244.2511 664.9546,-240.5169 664.79,-247.515"/>
</g>
<!-- Node393&#45;&gt;Node395 -->
<g id="edge8" class="edge">
<title>Node393&#45;&gt;Node395</title>
<path fill="none" stroke="#191970" d="M613.5651,-227.4202C630.0102,-223.2638 648.1239,-218.6857 664.9935,-214.4219"/>
<polygon fill="#191970" stroke="#191970" points="665.9229,-217.7972 674.7604,-211.9534 664.2076,-211.0106 665.9229,-217.7972"/>
</g>
<!-- Node397 -->
<g id="node11" class="node">
<title>Node397</title>
<g id="a_node11"><a xlink:href="$classIoss_1_1GroupingEntity.html#aef4ddf9b47f28f0fb54a2aa1d352e234" xlink:title="Checks if a property exists in the entity&#39;s property manager. ">
<polygon fill="#ffffff" stroke="#000000" points="333.0356,-141.5 333.0356,-169.5 439.0796,-169.5 439.0796,-141.5 333.0356,-141.5"/>
<text text-anchor="start" x="341.0356" y="-157.5" font-family="Helvetica,sans-Serif" font-size="10.00" fill="#000000">Ioss::GroupingEntity</text>
<text text-anchor="middle" x="386.0576" y="-147.5" font-family="Helvetica,sans-Serif" font-size="10.00" fill="#000000">::property_exists</text>
</a>
</g>
</g>
<!-- Node396&#45;&gt;Node397 -->
<g id="edge10" class="edge">
<title>Node396&#45;&gt;Node397</title>
<path fill="none" stroke="#191970" d="M264.3681,-155.5C282.3041,-155.5 303.3188,-155.5 322.7899,-155.5"/>
<polygon fill="#191970" stroke="#191970" points="322.8069,-159.0001 332.8068,-155.5 322.8068,-152.0001 322.8069,-159.0001"/>
</g>
<!-- Node398 -->
<g id="node12" class="node">
<title>Node398</title>
<g id="a_node12"><a xlink:href="$classIoss_1_1GroupingEntity.html#a3e8284b8cafbbe1646625124f68a2652" xlink:title="Get the Property from the property manager associated with the entity. ">
<polygon fill="#ffffff" stroke="#000000" points="333.0356,-94.5 333.0356,-122.5 439.0796,-122.5 439.0796,-94.5 333.0356,-94.5"/>
<text text-anchor="start" x="341.0356" y="-110.5" font-family="Helvetica,sans-Serif" font-size="10.00" fill="#000000">Ioss::GroupingEntity</text>
<text text-anchor="middle" x="386.0576" y="-100.5" font-family="Helvetica,sans-Serif" font-size="10.00" fill="#000000">::get_property</text>
</a>
</g>
</g>
<!-- Node396&#45;&gt;Node398 -->
<g id="edge11" class="edge">
<title>Node396&#45;&gt;Node398</title>
<path fill="none" stroke="#191970" d="M264.3681,-142.9049C283.4605,-137.507 306.0413,-131.1227 326.5354,-125.3285"/>
<polygon fill="#191970" stroke="#191970" points="327.7335,-128.6271 336.4041,-122.5384 325.829,-121.8911 327.7335,-128.6271"/>
</g>
<!-- Node399 -->
<g id="node13" class="node">
<title>Node399</title>
<g id="a_node13"><a xlink:href="$classIoss_1_1Property.html#a45bcbc7137a296f3eda52c92c04da39f" xlink:title="Get the property value if it is of type INTEGER. ">
<polygon fill="#ffffff" stroke="#000000" points="329.4224,-57.5 329.4224,-75.5 442.6929,-75.5 442.6929,-57.5 329.4224,-57.5"/>
<text text-anchor="middle" x="386.0576" y="-63.5" font-family="Helvetica,sans-Serif" font-size="10.00" fill="#000000">Ioss::Property::get_int</text>
</a>
</g>
</g>
<!-- Node396&#45;&gt;Node399 -->
<g id="edge12" class="edge">
<title>Node396&#45;&gt;Node399</title>
<path fill="none" stroke="#191970" d="M264.2589,-144.0619C271.8721,-141.0027 279.4124,-137.1982 285.9102,-132.5 307.2327,-117.0827 300.2317,-100.4127 321.9102,-85.5 325.2071,-83.232 328.7785,-81.2304 332.4908,-79.4644"/>
<polygon fill="#191970" stroke="#191970" points="334.0399,-82.6109 341.9325,-75.5429 331.3549,-76.1464 334.0399,-82.6109"/>
</g>
<!-- Node400 -->
<g id="node14" class="node">
<title>Node400</title>
<g id="a_node14"><a xlink:href="$namespaceanonymous__namespace_02Ioss__Property_8C_03.html#a7e9f404cf974920b115b502313608c02" xlink:title="anonymous_namespace\l\{Ioss_Property::C\}::\lerror_message">
<polygon fill="#ffffff" stroke="#000000" points="495.3774,-47.5 495.3774,-85.5 620.3374,-85.5 620.3374,-47.5 495.3774,-47.5"/>
<text text-anchor="start" x="503.3774" y="-73.5" font-family="Helvetica,sans-Serif" font-size="10.00" fill="#000000">anonymous_namespace</text>
<text text-anchor="start" x="503.3774" y="-63.5" font-family="Helvetica,sans-Serif" font-size="10.00" fill="#000000">{Ioss_Property::C}::</text>
<text text-anchor="middle" x="557.8574" y="-53.5" font-family="Helvetica,sans-Serif" font-size="10.00" fill="#000000">error_message</text>
</a>
</g>
</g>
<!-- Node399&#45;&gt;Node400 -->
<g id="edge13" class="edge">
<title>Node399&#45;&gt;Node400</title>
<path fill="none" stroke="#191970" d="M442.7874,-66.5C456.3149,-66.5 470.9375,-66.5 485.0747,-66.5"/>
<polygon fill="#191970" stroke="#191970" points="485.2604,-70.0001 495.2604,-66.5 485.2603,-63.0001 485.2604,-70.0001"/>
</g>
<!-- Node401 -->
<g id="node15" class="node">
<title>Node401</title>
<g id="a_node15"><a xlink:href="$namespaceanonymous__namespace_02Ioss__Property_8C_03.html#a33c896c06915d8a83ca1d8886b26d8ed" xlink:title="anonymous_namespace\l\{Ioss_Property::C\}::\ltype_string">
<polygon fill="#ffffff" stroke="#000000" points="665.5098,-71.5 665.5098,-109.5 790.4697,-109.5 790.4697,-71.5 665.5098,-71.5"/>
<text text-anchor="start" x="673.5098" y="-97.5" font-family="Helvetica,sans-Serif" font-size="10.00" fill="#000000">anonymous_namespace</text>
<text text-anchor="start" x="673.5098" y="-87.5" font-family="Helvetica,sans-Serif" font-size="10.00" fill="#000000">{Ioss_Property::C}::</text>
<text text-anchor="middle" x="727.9897" y="-77.5" font-family="Helvetica,sans-Serif" font-size="10.00" fill="#000000">type_string</text>
</a>
</g>
</g>
<!-- Node400&#45;&gt;Node401 -->
<g id="edge14" class="edge">
<title>Node400&#45;&gt;Node401</title>
<path fill="none" stroke="#191970" d="M620.725,-75.3685C631.9996,-76.959 643.8335,-78.6284 655.3563,-80.2538"/>
<polygon fill="#191970" stroke="#191970" points="654.9896,-83.7367 665.3805,-81.6679 655.9675,-76.8053 654.9896,-83.7367"/>
</g>
<!-- Node402 -->
<g id="node16" class="node">
<title>Node402</title>
<g id="a_node16"><a xlink:href="$classIoss_1_1Property.html#a90c992cd11af736282e63e1c34b1c076" xlink:title="Get the property type. ">
<polygon fill="#ffffff" stroke="#000000" points="667.1846,-34.5 667.1846,-52.5 788.7949,-52.5 788.7949,-34.5 667.1846,-34.5"/>
<text text-anchor="middle" x="727.9897" y="-40.5" font-family="Helvetica,sans-Serif" font-size="10.00" fill="#000000">Ioss::Property::get_type</text>
</a>
</g>
</g>
<!-- Node400&#45;&gt;Node402 -->
<g id="edge15" class="edge">
<title>Node400&#45;&gt;Node402</title>
<path fill="none" stroke="#191970" d="M620.725,-58.001C632.5572,-56.4014 645.0054,-54.7186 657.0636,-53.0884"/>
<polygon fill="#191970" stroke="#191970" points="657.6377,-56.5427 667.0786,-51.7345 656.6998,-49.6058 657.6377,-56.5427"/>
</g>
</g>
</svg>
