<?xml version="1.0" encoding="UTF-8" standalone="no"?>
<!DOCTYPE svg PUBLIC "-//W3C//DTD SVG 1.1//EN"
 "http://www.w3.org/Graphics/SVG/1.1/DTD/svg11.dtd">
<!-- Generated by graphviz version 2.42.3 (20191010.1750)
 -->
<!-- Title: anonymous_namespace{io_shell_ts.C}::param Pages: 1 -->
<svg width="715pt" height="282pt"
 viewBox="0.00 0.00 715.11 282.00" xmlns="http://www.w3.org/2000/svg" xmlns:xlink="http://www.w3.org/1999/xlink">
<g id="graph0" class="graph" transform="scale(1 1) rotate(0) translate(4 278)">
<title>anonymous_namespace{io_shell_ts.C}::param</title>
<polygon fill="white" stroke="transparent" points="-4,4 -4,-278 711.11,-278 711.11,4 -4,4"/>
<!-- Node1 -->
<g id="node1" class="node">
<title>Node1</title>
<g id="a_node1"><a xlink:title=" ">
<polygon fill="#bfbfbf" stroke="black" points="74.38,-0.5 74.38,-28.5 199.34,-28.5 199.34,-0.5 74.38,-0.5"/>
<text text-anchor="start" x="82.38" y="-16.5" font-family="Helvetica,sans-Serif" font-size="10.00">anonymous_namespace</text>
<text text-anchor="middle" x="136.86" y="-6.5" font-family="Helvetica,sans-Serif" font-size="10.00">{io_shell_ts.C}::param</text>
</a>
</g>
</g>
<!-- Node2 -->
<g id="node2" class="node">
<title>Node2</title>
<g id="a_node2"><a xlink:href="classIoss_1_1GroupingEntity.html" target="_top" xlink:title="Base class for all &#39;grouping&#39; entities. The following derived classes are typical:">
<polygon fill="white" stroke="black" points="292.84,-170.5 292.84,-188.5 398.88,-188.5 398.88,-170.5 292.84,-170.5"/>
<text text-anchor="middle" x="345.86" y="-176.5" font-family="Helvetica,sans-Serif" font-size="10.00">Ioss::GroupingEntity</text>
</a>
</g>
</g>
<!-- Node2&#45;&gt;Node1 -->
<g id="edge1" class="edge">
<title>Node2&#45;&gt;Node1</title>
<path fill="none" stroke="#9a32cd" stroke-dasharray="5,2" d="M282.42,-169.35C230.44,-160.46 162.71,-145.19 145.18,-124 122.54,-96.63 128.67,-50.95 133.52,-28.61"/>
<polygon fill="#9a32cd" stroke="#9a32cd" points="282.15,-172.86 292.59,-171.05 283.3,-165.95 282.15,-172.86"/>
<text text-anchor="middle" x="158.2" y="-111.5" font-family="Helvetica,sans-Serif" font-size="10.00"> entity</text>
</g>
<!-- Node4 -->
<g id="node4" class="node">
<title>Node4</title>
<g id="a_node4"><a xlink:href="classIoss_1_1Region.html" target="_top" xlink:title="A grouping entity that contains other grouping entities.">
<polygon fill="white" stroke="black" points="181.07,-105.5 181.07,-123.5 252.65,-123.5 252.65,-105.5 181.07,-105.5"/>
<text text-anchor="middle" x="216.86" y="-111.5" font-family="Helvetica,sans-Serif" font-size="10.00">Ioss::Region</text>
</a>
</g>
</g>
<!-- Node2&#45;&gt;Node4 -->
<g id="edge4" class="edge">
<title>Node2&#45;&gt;Node4</title>
<path fill="none" stroke="midnightblue" d="M320.08,-165.91C294.27,-153.3 255.33,-134.29 233.4,-123.58"/>
<polygon fill="midnightblue" stroke="midnightblue" points="318.74,-169.15 329.26,-170.39 321.81,-162.86 318.74,-169.15"/>
</g>
<!-- Node3 -->
<g id="node3" class="node">
<title>Node3</title>
<g id="a_node3"><a xlink:href="classIoss_1_1DatabaseIO.html" target="_top" xlink:title="An input or output Database.">
<polygon fill="white" stroke="black" points="397.23,-5.5 397.23,-23.5 490.49,-23.5 490.49,-5.5 397.23,-5.5"/>
<text text-anchor="middle" x="443.86" y="-11.5" font-family="Helvetica,sans-Serif" font-size="10.00">Ioss::DatabaseIO</text>
</a>
</g>
</g>
<!-- Node3&#45;&gt;Node2 -->
<g id="edge2" class="edge">
<title>Node3&#45;&gt;Node2</title>
<path fill="none" stroke="#9a32cd" stroke-dasharray="5,2" d="M500.76,-19.81C539.06,-24.04 584.71,-32.09 596.86,-47 618.79,-73.9 609.75,-100.88 583.86,-124 556.95,-148.04 460.57,-164.21 399.02,-172.34"/>
<polygon fill="#9a32cd" stroke="#9a32cd" points="501.01,-16.32 490.7,-18.77 500.29,-23.28 501.01,-16.32"/>
<text text-anchor="middle" x="624.61" y="-111.5" font-family="Helvetica,sans-Serif" font-size="10.00"> database_</text>
</g>
<!-- Node4&#45;&gt;Node1 -->
<g id="edge11" class="edge">
<title>Node4&#45;&gt;Node1</title>
<path fill="none" stroke="#9a32cd" stroke-dasharray="5,2" d="M188.17,-100.52C181.96,-96.79 175.79,-92.27 170.92,-87 162.57,-77.96 149.24,-46.61 141.99,-28.56"/>
<polygon fill="#9a32cd" stroke="#9a32cd" points="186.72,-103.72 197.18,-105.43 190.07,-97.57 186.72,-103.72"/>
<text text-anchor="middle" x="202.83" y="-64" font-family="Helvetica,sans-Serif" font-size="10.00"> output_region</text>
</g>
<!-- Node4&#45;&gt;Node3 -->
<g id="edge3" class="edge">
<title>Node4&#45;&gt;Node3</title>
<path fill="none" stroke="#9a32cd" stroke-dasharray="5,2" d="M229.7,-97.25C243.91,-79.69 266.32,-53.36 277.72,-47 314.52,-26.49 362.27,-19.08 397.13,-16.52"/>
<polygon fill="#9a32cd" stroke="#9a32cd" points="226.63,-95.49 223.12,-105.48 232.1,-99.86 226.63,-95.49"/>
<text text-anchor="middle" x="294.93" y="-64" font-family="Helvetica,sans-Serif" font-size="10.00"> region_</text>
</g>
<!-- Node5 -->
<g id="node5" class="node">
<title>Node5</title>
<g id="a_node5"><a xlink:href="classIoss_1_1Map.html" target="_top" xlink:title=" ">
<polygon fill="white" stroke="black" points="270.19,-105.5 270.19,-123.5 329.54,-123.5 329.54,-105.5 270.19,-105.5"/>
<text text-anchor="middle" x="299.86" y="-111.5" font-family="Helvetica,sans-Serif" font-size="10.00">Ioss::Map</text>
</a>
</g>
</g>
<!-- Node5&#45;&gt;Node3 -->
<g id="edge5" class="edge">
<title>Node5&#45;&gt;Node3</title>
<path fill="none" stroke="#9a32cd" stroke-dasharray="5,2" d="M310.94,-97.13C321.75,-82.25 339.46,-60.6 359.38,-47 375.16,-36.24 395.08,-28.58 411.62,-23.51"/>
<polygon fill="#9a32cd" stroke="#9a32cd" points="308.02,-95.2 305.14,-105.39 313.75,-99.22 308.02,-95.2"/>
<text text-anchor="middle" x="381.1" y="-79" font-family="Helvetica,sans-Serif" font-size="10.00"> nodeMap</text>
<text text-anchor="middle" x="381.1" y="-69" font-family="Helvetica,sans-Serif" font-size="10.00">elemMap</text>
<text text-anchor="middle" x="381.1" y="-59" font-family="Helvetica,sans-Serif" font-size="10.00">faceMap</text>
<text text-anchor="middle" x="381.1" y="-49" font-family="Helvetica,sans-Serif" font-size="10.00">edgeMap</text>
</g>
<!-- Node6 -->
<g id="node6" class="node">
<title>Node6</title>
<g id="a_node6"><a xlink:href="classIoss_1_1ParallelUtils.html" target="_top" xlink:title=" ">
<polygon fill="white" stroke="black" points="347.52,-105.5 347.52,-123.5 440.21,-123.5 440.21,-105.5 347.52,-105.5"/>
<text text-anchor="middle" x="393.86" y="-111.5" font-family="Helvetica,sans-Serif" font-size="10.00">Ioss::ParallelUtils</text>
</a>
</g>
</g>
<!-- Node6&#45;&gt;Node3 -->
<g id="edge6" class="edge">
<title>Node6&#45;&gt;Node3</title>
<path fill="none" stroke="#9a32cd" stroke-dasharray="5,2" d="M402.64,-96.3C413.52,-74.97 431.61,-39.51 439.71,-23.63"/>
<polygon fill="#9a32cd" stroke="#9a32cd" points="399.38,-94.98 397.95,-105.48 405.62,-98.16 399.38,-94.98"/>
<text text-anchor="middle" x="437.42" y="-64" font-family="Helvetica,sans-Serif" font-size="10.00"> util_</text>
</g>
<!-- Node7 -->
<g id="node7" class="node">
<title>Node7</title>
<g id="a_node7"><a xlink:href="classIoss_1_1PropertyManager.html" target="_top" xlink:title="A collection of Ioss::Property objects.">
<polygon fill="white" stroke="black" points="586.28,-250.5 586.28,-268.5 703.44,-268.5 703.44,-250.5 586.28,-250.5"/>
<text text-anchor="middle" x="644.86" y="-256.5" font-family="Helvetica,sans-Serif" font-size="10.00">Ioss::PropertyManager</text>
</a>
</g>
</g>
<!-- Node7&#45;&gt;Node2 -->
<g id="edge10" class="edge">
<title>Node7&#45;&gt;Node2</title>
<path fill="none" stroke="#9a32cd" stroke-dasharray="5,2" d="M604,-247.84C543.32,-232.01 430.75,-202.64 376.57,-188.51"/>
<polygon fill="#9a32cd" stroke="#9a32cd" points="603.43,-251.31 613.99,-250.45 605.2,-244.54 603.43,-251.31"/>
<text text-anchor="middle" x="545.48" y="-214" font-family="Helvetica,sans-Serif" font-size="10.00"> properties</text>
</g>
<!-- Node7&#45;&gt;Node3 -->
<g id="edge7" class="edge">
<title>Node7&#45;&gt;Node3</title>
<path fill="none" stroke="#9a32cd" stroke-dasharray="5,2" d="M649.77,-240.42C660.23,-197.37 678.98,-89.29 616.86,-47 596.74,-33.3 534.53,-24.44 490.5,-19.71"/>
<polygon fill="#9a32cd" stroke="#9a32cd" points="646.33,-239.75 647.23,-250.3 653.11,-241.49 646.33,-239.75"/>
<text text-anchor="middle" x="683.48" y="-144" font-family="Helvetica,sans-Serif" font-size="10.00"> properties</text>
</g>
<!-- Node8 -->
<g id="node8" class="node">
<title>Node8</title>
<g id="a_node8"><a xlink:href="classIoss_1_1ElementTopology.html" target="_top" xlink:title="Represents an element topology.">
<polygon fill="white" stroke="black" points="458.56,-105.5 458.56,-123.5 575.17,-123.5 575.17,-105.5 458.56,-105.5"/>
<text text-anchor="middle" x="516.86" y="-111.5" font-family="Helvetica,sans-Serif" font-size="10.00">Ioss::ElementTopology</text>
</a>
</g>
</g>
<!-- Node8&#45;&gt;Node3 -->
<g id="edge8" class="edge">
<title>Node8&#45;&gt;Node3</title>
<path fill="none" stroke="#9a32cd" stroke-dasharray="5,2" d="M503.78,-97.36C501.07,-93.96 498.27,-90.38 495.69,-87 478.42,-64.31 458.89,-36.85 449.49,-23.52"/>
<polygon fill="#9a32cd" stroke="#9a32cd" points="501.1,-99.62 510.09,-105.22 506.56,-95.24 501.1,-99.62"/>
<text text-anchor="middle" x="545.45" y="-64" font-family="Helvetica,sans-Serif" font-size="10.00"> commonSideTopology</text>
</g>
<!-- Node9 -->
<g id="node9" class="node">
<title>Node9</title>
<g id="a_node9"><a xlink:href="classIoss_1_1FieldManager.html" target="_top" xlink:title="A collection of Ioss::Field objects.">
<polygon fill="white" stroke="black" points="295.34,-250.5 295.34,-268.5 396.38,-268.5 396.38,-250.5 295.34,-250.5"/>
<text text-anchor="middle" x="345.86" y="-256.5" font-family="Helvetica,sans-Serif" font-size="10.00">Ioss::FieldManager</text>
</a>
</g>
</g>
<!-- Node9&#45;&gt;Node2 -->
<g id="edge9" class="edge">
<title>Node9&#45;&gt;Node2</title>
<path fill="none" stroke="#9a32cd" stroke-dasharray="5,2" d="M345.86,-240C345.86,-223.69 345.86,-200.7 345.86,-188.63"/>
<polygon fill="#9a32cd" stroke="#9a32cd" points="342.36,-240.45 345.86,-250.45 349.36,-240.45 342.36,-240.45"/>
<text text-anchor="middle" x="358.92" y="-214" font-family="Helvetica,sans-Serif" font-size="10.00"> fields</text>
</g>
<!-- Node10 -->
<g id="node10" class="node">
<title>Node10</title>
<g id="a_node10"><a xlink:href="classIOShell_1_1Interface.html" target="_top" xlink:title=" ">
<polygon fill="white" stroke="black" points="7.23,-105.5 7.23,-123.5 100.49,-123.5 100.49,-105.5 7.23,-105.5"/>
<text text-anchor="middle" x="53.86" y="-111.5" font-family="Helvetica,sans-Serif" font-size="10.00">IOShell::Interface</text>
</a>
</g>
</g>
<!-- Node10&#45;&gt;Node1 -->
<g id="edge12" class="edge">
<title>Node10&#45;&gt;Node1</title>
<path fill="none" stroke="#9a32cd" stroke-dasharray="5,2" d="M56.98,-94.96C60.23,-80.49 66.56,-60.64 78.4,-47 84.98,-39.43 93.83,-33.36 102.66,-28.66"/>
<polygon fill="#9a32cd" stroke="#9a32cd" points="53.47,-94.7 55,-105.18 60.34,-96.03 53.47,-94.7"/>
<text text-anchor="middle" x="101.09" y="-64" font-family="Helvetica,sans-Serif" font-size="10.00"> interFace</text>
</g>
<!-- Node11 -->
<g id="node11" class="node">
<title>Node11</title>
<g id="a_node11"><a xlink:href="classIoss_1_1GetLongOption.html" target="_top" xlink:title="A database of program command line and environment variable options and methods for manipulating them...">
<polygon fill="white" stroke="black" points="0,-170.5 0,-188.5 107.72,-188.5 107.72,-170.5 0,-170.5"/>
<text text-anchor="middle" x="53.86" y="-176.5" font-family="Helvetica,sans-Serif" font-size="10.00">Ioss::GetLongOption</text>
</a>
</g>
</g>
<!-- Node11&#45;&gt;Node10 -->
<g id="edge13" class="edge">
<title>Node11&#45;&gt;Node10</title>
<path fill="none" stroke="#9a32cd" stroke-dasharray="5,2" d="M53.86,-159.91C53.86,-147.81 53.86,-132.65 53.86,-123.54"/>
<polygon fill="#9a32cd" stroke="#9a32cd" points="50.36,-160.26 53.86,-170.26 57.36,-160.26 50.36,-160.26"/>
<text text-anchor="middle" x="74.15" y="-144" font-family="Helvetica,sans-Serif" font-size="10.00"> options_</text>
</g>
<!-- Node12 -->
<g id="node12" class="node">
<title>Node12</title>
<g id="a_node12"><a xlink:href="structIoss_1_1GetLongOption_1_1Cell.html" target="_top" xlink:title=" ">
<polygon fill="white" stroke="black" points="0,-245.5 0,-273.5 107.72,-273.5 107.72,-245.5 0,-245.5"/>
<text text-anchor="start" x="8" y="-261.5" font-family="Helvetica,sans-Serif" font-size="10.00">Ioss::GetLongOption</text>
<text text-anchor="middle" x="53.86" y="-251.5" font-family="Helvetica,sans-Serif" font-size="10.00">::Cell</text>
</a>
</g>
</g>
<!-- Node12&#45;&gt;Node11 -->
<g id="edge14" class="edge">
<title>Node12&#45;&gt;Node11</title>
<path fill="none" stroke="#9a32cd" stroke-dasharray="5,2" d="M53.86,-235.2C53.86,-219.5 53.86,-199.71 53.86,-188.75"/>
<polygon fill="#9a32cd" stroke="#9a32cd" points="50.36,-235.27 53.86,-245.27 57.36,-235.27 50.36,-235.27"/>
<text text-anchor="middle" x="64.7" y="-219" font-family="Helvetica,sans-Serif" font-size="10.00"> last</text>
<text text-anchor="middle" x="64.7" y="-209" font-family="Helvetica,sans-Serif" font-size="10.00">table</text>
</g>
<!-- Node12&#45;&gt;Node12 -->
<g id="edge15" class="edge">
<title>Node12&#45;&gt;Node12</title>
<path fill="none" stroke="#9a32cd" stroke-dasharray="5,2" d="M117.7,-265.45C122.66,-264.14 125.72,-262.15 125.72,-259.5 125.72,-255.36 118.27,-252.85 107.77,-251.98"/>
<polygon fill="#9a32cd" stroke="#9a32cd" points="117.09,-262 107.77,-267.02 118.19,-268.92 117.09,-262"/>
<text text-anchor="middle" x="136.56" y="-256.5" font-family="Helvetica,sans-Serif" font-size="10.00"> next</text>
</g>
</g>
</svg>
