<?xml version="1.0" encoding="UTF-8" standalone="no"?>
<!DOCTYPE svg PUBLIC "-//W3C//DTD SVG 1.1//EN"
 "http://www.w3.org/Graphics/SVG/1.1/DTD/svg11.dtd">
<!-- Generated by graphviz version 2.40.1 (20161225.0304)
 -->
<!-- Title: Assert::print_current_val Pages: 1 -->
<svg width="290pt" height="74pt"
 viewBox="0.00 0.00 290.00 74.00" xmlns="http://www.w3.org/2000/svg" xmlns:xlink="http://www.w3.org/1999/xlink">
<g id="graph0" class="graph" transform="scale(1 1) rotate(0) translate(4 70)">
<title>Assert::print_current_val</title>
<polygon fill="#ffffff" stroke="transparent" points="-4,4 -4,-70 285.999,-70 285.999,4 -4,4"/>
<!-- Node90 -->
<g id="node1" class="node">
<title>Node90</title>
<polygon fill="#bfbfbf" stroke="#000000" points="0,-21.5 0,-39.5 124.3789,-39.5 124.3789,-21.5 0,-21.5"/>
<text text-anchor="middle" x="62.1895" y="-27.5" font-family="Helvetica,sans-Serif" font-size="10.00" fill="#000000">Assert::print_current_val</text>
</g>
<!-- Node91 -->
<g id="node2" class="node">
<title>Node91</title>
<g id="a_node2"><a xlink:href="$structIoss_1_1Private_1_1is__null__finder.html#a7e969f393c2eebbdbbfb8756a509f167" xlink:title="Ioss::Private::is_null\l_finder::is">
<polygon fill="#ffffff" stroke="#000000" points="168.7261,-37.5 168.7261,-65.5 273.6519,-65.5 273.6519,-37.5 168.7261,-37.5"/>
<text text-anchor="start" x="176.7261" y="-53.5" font-family="Helvetica,sans-Serif" font-size="10.00" fill="#000000">Ioss::Private::is_null</text>
<text text-anchor="middle" x="221.189" y="-43.5" font-family="Helvetica,sans-Serif" font-size="10.00" fill="#000000">_finder::is</text>
</a>
</g>
</g>
<!-- Node90&#45;&gt;Node91 -->
<g id="edge1" class="edge">
<title>Node90&#45;&gt;Node91</title>
<path fill="none" stroke="#191970" d="M124.5739,-38.7395C135.6978,-40.2087 147.2911,-41.7399 158.4255,-43.2105"/>
<polygon fill="#191970" stroke="#191970" points="158.1232,-46.7009 168.4955,-44.5405 159.0399,-39.7611 158.1232,-46.7009"/>
</g>
<!-- Node92 -->
<g id="node3" class="node">
<title>Node92</title>
<g id="a_node3"><a xlink:href="$classassert__context.html#a9765135c616a252cb4747e141265e31d" xlink:title="assert_context::add_val">
<polygon fill="#ffffff" stroke="#000000" points="160.3789,-.5 160.3789,-18.5 281.999,-18.5 281.999,-.5 160.3789,-.5"/>
<text text-anchor="middle" x="221.189" y="-6.5" font-family="Helvetica,sans-Serif" font-size="10.00" fill="#000000">assert_context::add_val</text>
</a>
</g>
</g>
<!-- Node90&#45;&gt;Node92 -->
<g id="edge2" class="edge">
<title>Node90&#45;&gt;Node92</title>
<path fill="none" stroke="#191970" d="M124.5739,-22.2605C133.0158,-21.1456 141.7279,-19.9949 150.3047,-18.8621"/>
<polygon fill="#191970" stroke="#191970" points="150.831,-22.3231 160.2866,-17.5437 149.9144,-15.3833 150.831,-22.3231"/>
</g>
</g>
</svg>
