<?xml version="1.0" encoding="UTF-8" standalone="no"?>
<!DOCTYPE svg PUBLIC "-//W3C//DTD SVG 1.1//EN"
 "http://www.w3.org/Graphics/SVG/1.1/DTD/svg11.dtd">
<!-- Generated by graphviz version 2.43.0 (0)
 -->
<!-- Title: formatter&lt; std::chrono::duration&lt; Rep, Period &gt;, Char &gt;::parse_range Pages: 1 -->
<svg width="130pt" height="188pt"
 viewBox="0.00 0.00 130.18 188.00" xmlns="http://www.w3.org/2000/svg" xmlns:xlink="http://www.w3.org/1999/xlink">
<g id="graph0" class="graph" transform="scale(1 1) rotate(0) translate(4 184)">
<title>formatter&lt; std::chrono::duration&lt; Rep, Period &gt;, Char &gt;::parse_range</title>
<polygon fill="white" stroke="transparent" points="-4,4 -4,-184 126.18,-184 126.18,4 -4,4"/>
<!-- Node1 -->
<g id="node1" class="node">
<title>Node1</title>
<g id="a_node1"><a xlink:title=" ">
<polygon fill="#bfbfbf" stroke="black" points="0,-0.5 0,-38.5 122.18,-38.5 122.18,-0.5 0,-0.5"/>
<text text-anchor="start" x="8" y="-26.5" font-family="Helvetica,sans-Serif" font-size="10.00">formatter&lt; std::chrono</text>
<text text-anchor="start" x="8" y="-16.5" font-family="Helvetica,sans-Serif" font-size="10.00">::duration&lt; Rep, Period</text>
<text text-anchor="middle" x="61.09" y="-6.5" font-family="Helvetica,sans-Serif" font-size="10.00"> &gt;, Char &gt;::parse_range</text>
</a>
</g>
</g>
<!-- Node2 -->
<g id="node2" class="node">
<title>Node2</title>
<g id="a_node2"><a xlink:href="classbasic__parse__context.html" target="_top" xlink:title=" ">
<polygon fill="white" stroke="black" points="7.23,-95.5 7.23,-123.5 114.95,-123.5 114.95,-95.5 7.23,-95.5"/>
<text text-anchor="start" x="15.23" y="-111.5" font-family="Helvetica,sans-Serif" font-size="10.00">basic_parse_context</text>
<text text-anchor="middle" x="61.09" y="-101.5" font-family="Helvetica,sans-Serif" font-size="10.00">&lt; Char &gt;</text>
</a>
</g>
</g>
<!-- Node2&#45;&gt;Node1 -->
<g id="edge1" class="edge">
<title>Node2&#45;&gt;Node1</title>
<path fill="none" stroke="#9a32cd" stroke-dasharray="5,2" d="M61.09,-84.9C61.09,-70.35 61.09,-51.97 61.09,-38.58"/>
<polygon fill="#9a32cd" stroke="#9a32cd" points="57.59,-85.13 61.09,-95.13 64.59,-85.13 57.59,-85.13"/>
<text text-anchor="middle" x="74.71" y="-69" font-family="Helvetica,sans-Serif" font-size="10.00"> begin</text>
<text text-anchor="middle" x="74.71" y="-59" font-family="Helvetica,sans-Serif" font-size="10.00">end</text>
</g>
<!-- Node3 -->
<g id="node3" class="node">
<title>Node3</title>
<g id="a_node3"><a xlink:href="structinternal_1_1error__handler.html" target="_top" xlink:title=" ">
<polygon fill="white" stroke="black" points="3.89,-161.5 3.89,-179.5 118.28,-179.5 118.28,-161.5 3.89,-161.5"/>
<text text-anchor="middle" x="61.09" y="-167.5" font-family="Helvetica,sans-Serif" font-size="10.00">internal::error_handler</text>
</a>
</g>
</g>
<!-- Node3&#45;&gt;Node2 -->
<g id="edge2" class="edge">
<title>Node3&#45;&gt;Node2</title>
<path fill="none" stroke="#8b1a1a" d="M61.09,-151.15C61.09,-142.24 61.09,-131.72 61.09,-123.62"/>
<polygon fill="#8b1a1a" stroke="#8b1a1a" points="57.59,-151.3 61.09,-161.3 64.59,-151.3 57.59,-151.3"/>
</g>
</g>
</svg>
