<?xml version="1.0" encoding="UTF-8" standalone="no"?>
<!DOCTYPE svg PUBLIC "-//W3C//DTD SVG 1.1//EN"
 "http://www.w3.org/Graphics/SVG/1.1/DTD/svg11.dtd">
<!-- Generated by graphviz version 2.40.1 (20161225.0304)
 -->
<!-- Title: tsl::detail_hopscotch_hash::has_is_transparent&lt; T, typename make_void&lt; typename T::is_transparent &gt;::type &gt; Pages: 1 -->
<svg width="153pt" height="122pt"
 viewBox="0.00 0.00 153.06 122.00" xmlns="http://www.w3.org/2000/svg" xmlns:xlink="http://www.w3.org/1999/xlink">
<g id="graph0" class="graph" transform="scale(1 1) rotate(0) translate(4 118)">
<title>tsl::detail_hopscotch_hash::has_is_transparent&lt; T, typename make_void&lt; typename T::is_transparent &gt;::type &gt;</title>
<polygon fill="#ffffff" stroke="transparent" points="-4,4 -4,-118 149.0625,-118 149.0625,4 -4,4"/>
<!-- Node0 -->
<g id="node1" class="node">
<title>Node0</title>
<g id="a_node1"><a xlink:title=" ">
<polygon fill="#bfbfbf" stroke="#000000" points="0,-.5 0,-58.5 145.0625,-58.5 145.0625,-.5 0,-.5"/>
<text text-anchor="start" x="8" y="-46.5" font-family="Helvetica,sans-Serif" font-size="10.00" fill="#000000">tsl::detail_hopscotch</text>
<text text-anchor="start" x="8" y="-36.5" font-family="Helvetica,sans-Serif" font-size="10.00" fill="#000000">_hash::has_is_transparent</text>
<text text-anchor="start" x="8" y="-26.5" font-family="Helvetica,sans-Serif" font-size="10.00" fill="#000000">&lt; T, typename make_void</text>
<text text-anchor="start" x="8" y="-16.5" font-family="Helvetica,sans-Serif" font-size="10.00" fill="#000000">&lt; typename T::is_transparent</text>
<text text-anchor="middle" x="72.5313" y="-6.5" font-family="Helvetica,sans-Serif" font-size="10.00" fill="#000000"> &gt;::type &gt;</text>
</a>
</g>
</g>
<!-- Node1 -->
<g id="node2" class="node">
<title>Node1</title>
<g id="a_node2"><a xlink:title=" ">
<polygon fill="#ffffff" stroke="#bfbfbf" points="43.6841,-95.5 43.6841,-113.5 101.3784,-113.5 101.3784,-95.5 43.6841,-95.5"/>
<text text-anchor="middle" x="72.5313" y="-101.5" font-family="Helvetica,sans-Serif" font-size="10.00" fill="#000000">true_type</text>
</a>
</g>
</g>
<!-- Node1&#45;&gt;Node0 -->
<g id="edge1" class="edge">
<title>Node1&#45;&gt;Node0</title>
<path fill="none" stroke="#191970" d="M72.5313,-85.0769C72.5313,-76.99 72.5313,-67.4288 72.5313,-58.5372"/>
<polygon fill="#191970" stroke="#191970" points="69.0313,-85.3035 72.5313,-95.3035 76.0313,-85.3036 69.0313,-85.3035"/>
</g>
</g>
</svg>
