<?xml version="1.0" encoding="UTF-8" standalone="no"?>
<!DOCTYPE svg PUBLIC "-//W3C//DTD SVG 1.1//EN"
 "http://www.w3.org/Graphics/SVG/1.1/DTD/svg11.dtd">
<!-- Generated by graphviz version 2.40.1 (20161225.0304)
 -->
<!-- Title: Ioex::FaceSet::FaceSet Pages: 1 -->
<svg width="742pt" height="228pt"
 viewBox="0.00 0.00 741.73 228.43" xmlns="http://www.w3.org/2000/svg" xmlns:xlink="http://www.w3.org/1999/xlink">
<g id="graph0" class="graph" transform="scale(1 1) rotate(0) translate(4 224.4255)">
<title>Ioex::FaceSet::FaceSet</title>
<polygon fill="#ffffff" stroke="transparent" points="-4,4 -4,-224.4255 737.7314,-224.4255 737.7314,4 -4,4"/>
<!-- Node4 -->
<g id="node1" class="node">
<title>Node4</title>
<polygon fill="#bfbfbf" stroke="#000000" points="0,-93.9255 0,-111.9255 120.4971,-111.9255 120.4971,-93.9255 0,-93.9255"/>
<text text-anchor="middle" x="60.2485" y="-99.9255" font-family="Helvetica,sans-Serif" font-size="10.00" fill="#000000">Ioex::FaceSet::FaceSet</text>
</g>
<!-- Node5 -->
<g id="node2" class="node">
<title>Node5</title>
<g id="a_node2"><a xlink:href="$classIoss_1_1GroupingEntity.html#aef4ddf9b47f28f0fb54a2aa1d352e234" xlink:title="Checks if a property exists in the entity&#39;s property manager. ">
<polygon fill="#ffffff" stroke="#000000" points="156.4971,-191.9255 156.4971,-219.9255 262.541,-219.9255 262.541,-191.9255 156.4971,-191.9255"/>
<text text-anchor="start" x="164.4971" y="-207.9255" font-family="Helvetica,sans-Serif" font-size="10.00" fill="#000000">Ioss::GroupingEntity</text>
<text text-anchor="middle" x="209.519" y="-197.9255" font-family="Helvetica,sans-Serif" font-size="10.00" fill="#000000">::property_exists</text>
</a>
</g>
</g>
<!-- Node4&#45;&gt;Node5 -->
<g id="edge1" class="edge">
<title>Node4&#45;&gt;Node5</title>
<path fill="none" stroke="#191970" d="M70.8156,-111.9285C88.1169,-126.4637 123.837,-155.6222 156.4971,-176.9255 161.6201,-180.2672 167.1595,-183.5908 172.6599,-186.7312"/>
<polygon fill="#191970" stroke="#191970" points="171.359,-190.0126 181.7996,-191.8143 174.7614,-183.895 171.359,-190.0126"/>
</g>
<!-- Node6 -->
<g id="node3" class="node">
<title>Node6</title>
<g id="a_node3"><a xlink:href="$classIoss_1_1GroupingEntity.html#a3e8284b8cafbbe1646625124f68a2652" xlink:title="Get the Property from the property manager associated with the entity. ">
<polygon fill="#ffffff" stroke="#000000" points="302.1543,-81.9255 302.1543,-109.9255 408.1982,-109.9255 408.1982,-81.9255 302.1543,-81.9255"/>
<text text-anchor="start" x="310.1543" y="-97.9255" font-family="Helvetica,sans-Serif" font-size="10.00" fill="#000000">Ioss::GroupingEntity</text>
<text text-anchor="middle" x="355.1763" y="-87.9255" font-family="Helvetica,sans-Serif" font-size="10.00" fill="#000000">::get_property</text>
</a>
</g>
</g>
<!-- Node4&#45;&gt;Node6 -->
<g id="edge2" class="edge">
<title>Node4&#45;&gt;Node6</title>
<path fill="none" stroke="#191970" d="M120.9264,-105.9939C161.128,-107.4929 215.0167,-108.4832 262.541,-105.9255 272.0117,-105.4158 282.0035,-104.615 291.781,-103.6832"/>
<polygon fill="#191970" stroke="#191970" points="292.2612,-107.1527 301.8616,-102.6715 291.5621,-100.1877 292.2612,-107.1527"/>
</g>
<!-- Node7 -->
<g id="node4" class="node">
<title>Node7</title>
<g id="a_node4"><a xlink:href="$classIoss_1_1Property.html#a3c4f1409008f9dcdd35170b702cd29e3" xlink:title="Get the property value if it is of type STRING. ">
<polygon fill="#ffffff" stroke="#000000" points="306.6025,-138.9255 306.6025,-166.9255 403.75,-166.9255 403.75,-138.9255 306.6025,-138.9255"/>
<text text-anchor="start" x="314.6025" y="-154.9255" font-family="Helvetica,sans-Serif" font-size="10.00" fill="#000000">Ioss::Property::get</text>
<text text-anchor="middle" x="355.1763" y="-144.9255" font-family="Helvetica,sans-Serif" font-size="10.00" fill="#000000">_string</text>
</a>
</g>
</g>
<!-- Node4&#45;&gt;Node7 -->
<g id="edge3" class="edge">
<title>Node4&#45;&gt;Node7</title>
<path fill="none" stroke="#191970" d="M110.6835,-111.9338C125.4438,-114.543 141.6121,-117.3749 156.4971,-119.9255 203.5766,-127.993 256.9858,-136.8474 296.5629,-143.3516"/>
<polygon fill="#191970" stroke="#191970" points="296.1357,-146.8283 306.5706,-144.9947 297.2698,-139.9207 296.1357,-146.8283"/>
</g>
<!-- Node11 -->
<g id="node8" class="node">
<title>Node11</title>
<g id="a_node8"><a xlink:href="$classIoss_1_1GroupingEntity.html#a50d4053f49c8c3205e05d939fdc9fbc5" xlink:title="Get name of entity. ">
<polygon fill="#ffffff" stroke="#000000" points="156.4971,-67.9255 156.4971,-95.9255 262.541,-95.9255 262.541,-67.9255 156.4971,-67.9255"/>
<text text-anchor="start" x="164.4971" y="-83.9255" font-family="Helvetica,sans-Serif" font-size="10.00" fill="#000000">Ioss::GroupingEntity</text>
<text text-anchor="middle" x="209.519" y="-73.9255" font-family="Helvetica,sans-Serif" font-size="10.00" fill="#000000">::name</text>
</a>
</g>
</g>
<!-- Node4&#45;&gt;Node11 -->
<g id="edge7" class="edge">
<title>Node4&#45;&gt;Node11</title>
<path fill="none" stroke="#191970" d="M120.5323,-94.4446C129.0232,-93.25 137.7717,-92.0193 146.3154,-90.8173"/>
<polygon fill="#191970" stroke="#191970" points="146.8085,-94.2825 156.2233,-89.4234 145.8332,-87.3507 146.8085,-94.2825"/>
</g>
<!-- Node12 -->
<g id="node9" class="node">
<title>Node12</title>
<g id="a_node9"><a xlink:href="$classIoss_1_1Property.html#a45bcbc7137a296f3eda52c92c04da39f" xlink:title="Get the property value if it is of type INTEGER. ">
<polygon fill="#ffffff" stroke="#000000" points="298.541,-25.9255 298.541,-43.9255 411.8115,-43.9255 411.8115,-25.9255 298.541,-25.9255"/>
<text text-anchor="middle" x="355.1763" y="-31.9255" font-family="Helvetica,sans-Serif" font-size="10.00" fill="#000000">Ioss::Property::get_int</text>
</a>
</g>
</g>
<!-- Node4&#45;&gt;Node12 -->
<g id="edge8" class="edge">
<title>Node4&#45;&gt;Node12</title>
<path fill="none" stroke="#191970" d="M66.0887,-93.8203C79.3253,-74.1428 113.8027,-28.0484 156.4971,-10.9255 212.6823,11.6079 284.4201,-7.6486 324.5141,-22.2483"/>
<polygon fill="#191970" stroke="#191970" points="323.4054,-25.5708 333.997,-25.8315 325.8797,-19.0227 323.4054,-25.5708"/>
</g>
<!-- Node13 -->
<g id="node10" class="node">
<title>Node13</title>
<g id="a_node10"><a xlink:href="$classIoss_1_1GroupingEntity.html#a40669aca09db99457475f6852eae0c96" xlink:title="Ioss::GroupingEntity\l::entity_count">
<polygon fill="#ffffff" stroke="#000000" points="156.4971,-20.9255 156.4971,-48.9255 262.541,-48.9255 262.541,-20.9255 156.4971,-20.9255"/>
<text text-anchor="start" x="164.4971" y="-36.9255" font-family="Helvetica,sans-Serif" font-size="10.00" fill="#000000">Ioss::GroupingEntity</text>
<text text-anchor="middle" x="209.519" y="-26.9255" font-family="Helvetica,sans-Serif" font-size="10.00" fill="#000000">::entity_count</text>
</a>
</g>
</g>
<!-- Node4&#45;&gt;Node13 -->
<g id="edge10" class="edge">
<title>Node4&#45;&gt;Node13</title>
<path fill="none" stroke="#191970" d="M79.3502,-93.802C98.7187,-84.5964 129.5886,-70.0493 156.4971,-57.9255 160.0492,-56.3251 163.7435,-54.6811 167.4552,-53.0435"/>
<polygon fill="#191970" stroke="#191970" points="168.8927,-56.2349 176.6462,-49.0145 166.0823,-49.8238 168.8927,-56.2349"/>
</g>
<!-- Node8 -->
<g id="node5" class="node">
<title>Node8</title>
<g id="a_node5"><a xlink:href="$namespaceanonymous__namespace_02Ioss__Property_8C_03.html#a7e9f404cf974920b115b502313608c02" xlink:title="anonymous_namespace\l\{Ioss_Property::C\}::\lerror_message">
<polygon fill="#ffffff" stroke="#000000" points="447.8115,-59.9255 447.8115,-97.9255 572.7715,-97.9255 572.7715,-59.9255 447.8115,-59.9255"/>
<text text-anchor="start" x="455.8115" y="-85.9255" font-family="Helvetica,sans-Serif" font-size="10.00" fill="#000000">anonymous_namespace</text>
<text text-anchor="start" x="455.8115" y="-75.9255" font-family="Helvetica,sans-Serif" font-size="10.00" fill="#000000">{Ioss_Property::C}::</text>
<text text-anchor="middle" x="510.2915" y="-65.9255" font-family="Helvetica,sans-Serif" font-size="10.00" fill="#000000">error_message</text>
</a>
</g>
</g>
<!-- Node7&#45;&gt;Node8 -->
<g id="edge4" class="edge">
<title>Node7&#45;&gt;Node8</title>
<path fill="none" stroke="#191970" d="M384.7174,-138.8325C406.3245,-128.5245 436.129,-114.3058 461.2793,-102.3075"/>
<polygon fill="#191970" stroke="#191970" points="462.7923,-105.4637 470.3108,-97.9989 459.7782,-99.1458 462.7923,-105.4637"/>
</g>
<!-- Node9 -->
<g id="node6" class="node">
<title>Node9</title>
<g id="a_node6"><a xlink:href="$namespaceanonymous__namespace_02Ioss__Property_8C_03.html#a33c896c06915d8a83ca1d8886b26d8ed" xlink:title="anonymous_namespace\l\{Ioss_Property::C\}::\ltype_string">
<polygon fill="#ffffff" stroke="#000000" points="608.7715,-83.9255 608.7715,-121.9255 733.7314,-121.9255 733.7314,-83.9255 608.7715,-83.9255"/>
<text text-anchor="start" x="616.7715" y="-109.9255" font-family="Helvetica,sans-Serif" font-size="10.00" fill="#000000">anonymous_namespace</text>
<text text-anchor="start" x="616.7715" y="-99.9255" font-family="Helvetica,sans-Serif" font-size="10.00" fill="#000000">{Ioss_Property::C}::</text>
<text text-anchor="middle" x="671.2515" y="-89.9255" font-family="Helvetica,sans-Serif" font-size="10.00" fill="#000000">type_string</text>
</a>
</g>
</g>
<!-- Node8&#45;&gt;Node9 -->
<g id="edge5" class="edge">
<title>Node8&#45;&gt;Node9</title>
<path fill="none" stroke="#191970" d="M572.9837,-88.2733C581.4219,-89.5315 590.1347,-90.8306 598.7254,-92.1115"/>
<polygon fill="#191970" stroke="#191970" points="598.3235,-95.5902 608.7303,-93.6033 599.3559,-88.6667 598.3235,-95.5902"/>
</g>
<!-- Node10 -->
<g id="node7" class="node">
<title>Node10</title>
<g id="a_node7"><a xlink:href="$classIoss_1_1Property.html#a90c992cd11af736282e63e1c34b1c076" xlink:title="Get the property type. ">
<polygon fill="#ffffff" stroke="#000000" points="610.4463,-46.9255 610.4463,-64.9255 732.0566,-64.9255 732.0566,-46.9255 610.4463,-46.9255"/>
<text text-anchor="middle" x="671.2515" y="-52.9255" font-family="Helvetica,sans-Serif" font-size="10.00" fill="#000000">Ioss::Property::get_type</text>
</a>
</g>
</g>
<!-- Node8&#45;&gt;Node10 -->
<g id="edge6" class="edge">
<title>Node8&#45;&gt;Node10</title>
<path fill="none" stroke="#191970" d="M572.9837,-69.9673C581.8984,-68.6934 591.1196,-67.3758 600.1796,-66.0812"/>
<polygon fill="#191970" stroke="#191970" points="600.9108,-69.5123 610.3151,-64.6329 599.9206,-62.5827 600.9108,-69.5123"/>
</g>
<!-- Node12&#45;&gt;Node8 -->
<g id="edge9" class="edge">
<title>Node12&#45;&gt;Node8</title>
<path fill="none" stroke="#191970" d="M386.9405,-43.9358C401.6732,-48.1149 419.8407,-53.2683 437.66,-58.3229"/>
<polygon fill="#191970" stroke="#191970" points="436.9242,-61.7522 447.4998,-61.114 438.8345,-55.0179 436.9242,-61.7522"/>
</g>
<!-- Node13&#45;&gt;Node6 -->
<g id="edge11" class="edge">
<title>Node13&#45;&gt;Node6</title>
<path fill="none" stroke="#191970" d="M243.3018,-49.0735C263.7998,-57.6579 290.1566,-68.6959 312.1385,-77.9017"/>
<polygon fill="#191970" stroke="#191970" points="311.0008,-81.2197 321.5767,-81.8543 313.7049,-74.7631 311.0008,-81.2197"/>
</g>
<!-- Node13&#45;&gt;Node12 -->
<g id="edge12" class="edge">
<title>Node13&#45;&gt;Node12</title>
<path fill="none" stroke="#191970" d="M262.9293,-34.9255C271.126,-34.9255 279.6766,-34.9255 288.123,-34.9255"/>
<polygon fill="#191970" stroke="#191970" points="288.3433,-38.4256 298.3432,-34.9255 288.3432,-31.4256 288.3433,-38.4256"/>
</g>
</g>
</svg>
