<?xml version="1.0" encoding="UTF-8" standalone="no"?>
<!DOCTYPE svg PUBLIC "-//W3C//DTD SVG 1.1//EN"
 "http://www.w3.org/Graphics/SVG/1.1/DTD/svg11.dtd">
<!-- Generated by graphviz version 2.40.1 (20161225.0304)
 -->
<!-- Title: Assert::set_log Pages: 1 -->
<svg width="570pt" height="309pt"
 viewBox="0.00 0.00 569.65 309.00" xmlns="http://www.w3.org/2000/svg" xmlns:xlink="http://www.w3.org/1999/xlink">
<g id="graph0" class="graph" transform="scale(1 1) rotate(0) translate(4 305)">
<title>Assert::set_log</title>
<polygon fill="#ffffff" stroke="transparent" points="-4,4 -4,-305 565.6484,-305 565.6484,4 -4,4"/>
<!-- Node116 -->
<g id="node1" class="node">
<title>Node116</title>
<polygon fill="#bfbfbf" stroke="#000000" points="0,-178.5 0,-196.5 82.1426,-196.5 82.1426,-178.5 0,-178.5"/>
<text text-anchor="middle" x="41.0713" y="-184.5" font-family="Helvetica,sans-Serif" font-size="10.00" fill="#000000">Assert::set_log</text>
</g>
<!-- Node117 -->
<g id="node2" class="node">
<title>Node117</title>
<g id="a_node2"><a xlink:href="$namespaceIoss_1_1Private.html#a9fdc4110be9d98c49455b4410d54c52e" xlink:title="Ioss::Private::set\l_default_log_stream">
<polygon fill="#ffffff" stroke="#000000" points="118.1426,-215.5 118.1426,-243.5 224.7578,-243.5 224.7578,-215.5 118.1426,-215.5"/>
<text text-anchor="start" x="126.1426" y="-231.5" font-family="Helvetica,sans-Serif" font-size="10.00" fill="#000000">Ioss::Private::set</text>
<text text-anchor="middle" x="171.4502" y="-221.5" font-family="Helvetica,sans-Serif" font-size="10.00" fill="#000000">_default_log_stream</text>
</a>
</g>
</g>
<!-- Node116&#45;&gt;Node117 -->
<g id="edge1" class="edge">
<title>Node116&#45;&gt;Node117</title>
<path fill="none" stroke="#191970" d="M69.0408,-196.5101C83.3643,-201.1242 101.2929,-206.8997 118.1286,-212.3231"/>
<polygon fill="#191970" stroke="#191970" points="117.2879,-215.7293 127.8794,-215.4642 119.4343,-209.0665 117.2879,-215.7293"/>
</g>
<!-- Node118 -->
<g id="node3" class="node">
<title>Node118</title>
<g id="a_node3"><a xlink:href="$structAssert.html#a6707f5538bb0bd13eed019ada6c375e9" xlink:title="Assert::logger">
<polygon fill="#ffffff" stroke="#000000" points="132.603,-178.5 132.603,-196.5 210.2974,-196.5 210.2974,-178.5 132.603,-178.5"/>
<text text-anchor="middle" x="171.4502" y="-184.5" font-family="Helvetica,sans-Serif" font-size="10.00" fill="#000000">Assert::logger</text>
</a>
</g>
</g>
<!-- Node116&#45;&gt;Node118 -->
<g id="edge2" class="edge">
<title>Node116&#45;&gt;Node118</title>
<path fill="none" stroke="#191970" d="M82.324,-187.5C94.9215,-187.5 108.9039,-187.5 121.9874,-187.5"/>
<polygon fill="#191970" stroke="#191970" points="122.2439,-191.0001 132.2438,-187.5 122.2438,-184.0001 122.2439,-191.0001"/>
</g>
<!-- Node119 -->
<g id="node4" class="node">
<title>Node119</title>
<g id="a_node4"><a xlink:href="$namespaceSmartAssert.html#a82cc5880793133f1f1cad1b6f4d8bec6" xlink:title="SmartAssert::default\l_logger">
<polygon fill="#ffffff" stroke="#000000" points="118.1548,-131.5 118.1548,-159.5 224.7456,-159.5 224.7456,-131.5 118.1548,-131.5"/>
<text text-anchor="start" x="126.1548" y="-147.5" font-family="Helvetica,sans-Serif" font-size="10.00" fill="#000000">SmartAssert::default</text>
<text text-anchor="middle" x="171.4502" y="-137.5" font-family="Helvetica,sans-Serif" font-size="10.00" fill="#000000">_logger</text>
</a>
</g>
</g>
<!-- Node116&#45;&gt;Node119 -->
<g id="edge3" class="edge">
<title>Node116&#45;&gt;Node119</title>
<path fill="none" stroke="#191970" d="M69.0408,-178.4899C83.3643,-173.8758 101.2929,-168.1003 118.1286,-162.6769"/>
<polygon fill="#191970" stroke="#191970" points="119.4343,-165.9335 127.8794,-159.5358 117.2879,-159.2707 119.4343,-165.9335"/>
</g>
<!-- Node120 -->
<g id="node5" class="node">
<title>Node120</title>
<g id="a_node5"><a xlink:href="$namespaceSmartAssert.html#a94c68d356d17814ca336b63a482e14d2" xlink:title="SmartAssert::dump_context\l_detail">
<polygon fill="#ffffff" stroke="#000000" points="260.7578,-131.5 260.7578,-159.5 400.1416,-159.5 400.1416,-131.5 260.7578,-131.5"/>
<text text-anchor="start" x="268.7578" y="-147.5" font-family="Helvetica,sans-Serif" font-size="10.00" fill="#000000">SmartAssert::dump_context</text>
<text text-anchor="middle" x="330.4497" y="-137.5" font-family="Helvetica,sans-Serif" font-size="10.00" fill="#000000">_detail</text>
</a>
</g>
</g>
<!-- Node119&#45;&gt;Node120 -->
<g id="edge4" class="edge">
<title>Node119&#45;&gt;Node120</title>
<path fill="none" stroke="#191970" d="M224.837,-145.5C233.0722,-145.5 241.7278,-145.5 250.3923,-145.5"/>
<polygon fill="#191970" stroke="#191970" points="250.543,-149.0001 260.543,-145.5 250.543,-142.0001 250.543,-149.0001"/>
</g>
<!-- Node121 -->
<g id="node6" class="node">
<title>Node121</title>
<g id="a_node6"><a xlink:href="$namespaceSmartAssert.html#ab9c77e2bf430b103a8ac59d852297f6a" xlink:title="SmartAssert::get_typeof\l_level">
<polygon fill="#ffffff" stroke="#000000" points="437.2598,-272.5 437.2598,-300.5 560.5303,-300.5 560.5303,-272.5 437.2598,-272.5"/>
<text text-anchor="start" x="445.2598" y="-288.5" font-family="Helvetica,sans-Serif" font-size="10.00" fill="#000000">SmartAssert::get_typeof</text>
<text text-anchor="middle" x="498.895" y="-278.5" font-family="Helvetica,sans-Serif" font-size="10.00" fill="#000000">_level</text>
</a>
</g>
</g>
<!-- Node120&#45;&gt;Node121 -->
<g id="edge5" class="edge">
<title>Node120&#45;&gt;Node121</title>
<path fill="none" stroke="#191970" d="M339.5383,-159.5228C356.0138,-183.9138 393.1194,-234.3291 436.1416,-263.5 438.4045,-265.0344 440.7825,-266.4811 443.2352,-267.8434"/>
<polygon fill="#191970" stroke="#191970" points="441.8616,-271.0697 452.3711,-272.4121 444.9926,-264.8089 441.8616,-271.0697"/>
</g>
<!-- Node122 -->
<g id="node7" class="node">
<title>Node122</title>
<g id="a_node7"><a xlink:href="$classassert__context.html#a679b95be3bfaa20e57e5c6ffe382e508" xlink:title="assert_context::get\l_level">
<polygon fill="#ffffff" stroke="#000000" points="448.6489,-225.5 448.6489,-253.5 549.1411,-253.5 549.1411,-225.5 448.6489,-225.5"/>
<text text-anchor="start" x="456.6489" y="-241.5" font-family="Helvetica,sans-Serif" font-size="10.00" fill="#000000">assert_context::get</text>
<text text-anchor="middle" x="498.895" y="-231.5" font-family="Helvetica,sans-Serif" font-size="10.00" fill="#000000">_level</text>
</a>
</g>
</g>
<!-- Node120&#45;&gt;Node122 -->
<g id="edge6" class="edge">
<title>Node120&#45;&gt;Node122</title>
<path fill="none" stroke="#191970" d="M348.7021,-159.757C369.133,-175.2289 403.6465,-199.9356 436.1416,-216.5 439.4917,-218.2077 442.9992,-219.8516 446.5706,-221.4205"/>
<polygon fill="#191970" stroke="#191970" points="445.532,-224.7793 456.1092,-225.3906 448.2219,-218.3167 445.532,-224.7793"/>
</g>
<!-- Node123 -->
<g id="node8" class="node">
<title>Node123</title>
<g id="a_node8"><a xlink:href="$classassert__context.html#aba6db2d68836a4bb4e651c37a6d5df4b" xlink:title="assert_context::get\l_context_file">
<polygon fill="#ffffff" stroke="#000000" points="448.6489,-178.5 448.6489,-206.5 549.1411,-206.5 549.1411,-178.5 448.6489,-178.5"/>
<text text-anchor="start" x="456.6489" y="-194.5" font-family="Helvetica,sans-Serif" font-size="10.00" fill="#000000">assert_context::get</text>
<text text-anchor="middle" x="498.895" y="-184.5" font-family="Helvetica,sans-Serif" font-size="10.00" fill="#000000">_context_file</text>
</a>
</g>
</g>
<!-- Node120&#45;&gt;Node123 -->
<g id="edge7" class="edge">
<title>Node120&#45;&gt;Node123</title>
<path fill="none" stroke="#191970" d="M380.9889,-159.6015C399.2264,-164.6902 419.9868,-170.4828 438.9513,-175.7744"/>
<polygon fill="#191970" stroke="#191970" points="438.1092,-179.173 448.682,-178.4894 439.9906,-172.4306 438.1092,-179.173"/>
</g>
<!-- Node124 -->
<g id="node9" class="node">
<title>Node124</title>
<g id="a_node9"><a xlink:href="$classassert__context.html#a9112747e6d8202e017b4df025e5f17c4" xlink:title="assert_context::get\l_context_line">
<polygon fill="#ffffff" stroke="#000000" points="448.6489,-131.5 448.6489,-159.5 549.1411,-159.5 549.1411,-131.5 448.6489,-131.5"/>
<text text-anchor="start" x="456.6489" y="-147.5" font-family="Helvetica,sans-Serif" font-size="10.00" fill="#000000">assert_context::get</text>
<text text-anchor="middle" x="498.895" y="-137.5" font-family="Helvetica,sans-Serif" font-size="10.00" fill="#000000">_context_line</text>
</a>
</g>
</g>
<!-- Node120&#45;&gt;Node124 -->
<g id="edge8" class="edge">
<title>Node120&#45;&gt;Node124</title>
<path fill="none" stroke="#191970" d="M400.4223,-145.5C413.0629,-145.5 426.1446,-145.5 438.4834,-145.5"/>
<polygon fill="#191970" stroke="#191970" points="438.6473,-149.0001 448.6473,-145.5 438.6472,-142.0001 438.6473,-149.0001"/>
</g>
<!-- Node125 -->
<g id="node10" class="node">
<title>Node125</title>
<g id="a_node10"><a xlink:href="$classassert__context.html#a401e0b14e2d3525d65843fec3096a934" xlink:title="assert_context::get\l_level_msg">
<polygon fill="#ffffff" stroke="#000000" points="448.6489,-84.5 448.6489,-112.5 549.1411,-112.5 549.1411,-84.5 448.6489,-84.5"/>
<text text-anchor="start" x="456.6489" y="-100.5" font-family="Helvetica,sans-Serif" font-size="10.00" fill="#000000">assert_context::get</text>
<text text-anchor="middle" x="498.895" y="-90.5" font-family="Helvetica,sans-Serif" font-size="10.00" fill="#000000">_level_msg</text>
</a>
</g>
</g>
<!-- Node120&#45;&gt;Node125 -->
<g id="edge9" class="edge">
<title>Node120&#45;&gt;Node125</title>
<path fill="none" stroke="#191970" d="M380.9889,-131.3985C399.2264,-126.3098 419.9868,-120.5172 438.9513,-115.2256"/>
<polygon fill="#191970" stroke="#191970" points="439.9906,-118.5694 448.682,-112.5106 438.1092,-111.827 439.9906,-118.5694"/>
</g>
<!-- Node126 -->
<g id="node11" class="node">
<title>Node126</title>
<g id="a_node11"><a xlink:href="$classassert__context.html#aa6807bfff935e4484ce79b4a043068fc" xlink:title="assert_context::get_expr">
<polygon fill="#ffffff" stroke="#000000" points="436.1416,-47.5 436.1416,-65.5 561.6484,-65.5 561.6484,-47.5 436.1416,-47.5"/>
<text text-anchor="middle" x="498.895" y="-53.5" font-family="Helvetica,sans-Serif" font-size="10.00" fill="#000000">assert_context::get_expr</text>
</a>
</g>
</g>
<!-- Node120&#45;&gt;Node126 -->
<g id="edge10" class="edge">
<title>Node120&#45;&gt;Node126</title>
<path fill="none" stroke="#191970" d="M348.1948,-131.3918C368.454,-115.8627 403.0789,-91.0445 436.1416,-75.5 441.4211,-73.0178 447.1017,-70.768 452.8113,-68.757"/>
<polygon fill="#191970" stroke="#191970" points="453.9821,-72.0564 462.3818,-65.5992 451.7887,-65.4089 453.9821,-72.0564"/>
</g>
<!-- Node127 -->
<g id="node12" class="node">
<title>Node127</title>
<g id="a_node12"><a xlink:href="$classassert__context.html#a102abde7b2385ff349be72c7e50dcc21" xlink:title="assert_context::get\l_vals_array">
<polygon fill="#ffffff" stroke="#000000" points="448.6489,-.5 448.6489,-28.5 549.1411,-28.5 549.1411,-.5 448.6489,-.5"/>
<text text-anchor="start" x="456.6489" y="-16.5" font-family="Helvetica,sans-Serif" font-size="10.00" fill="#000000">assert_context::get</text>
<text text-anchor="middle" x="498.895" y="-6.5" font-family="Helvetica,sans-Serif" font-size="10.00" fill="#000000">_vals_array</text>
</a>
</g>
</g>
<!-- Node120&#45;&gt;Node127 -->
<g id="edge11" class="edge">
<title>Node120&#45;&gt;Node127</title>
<path fill="none" stroke="#191970" d="M340.996,-131.4681C358.5103,-109.0272 395.6943,-64.9084 436.1416,-38.5 439.2029,-36.5013 442.4553,-34.6322 445.8061,-32.891"/>
<polygon fill="#191970" stroke="#191970" points="447.3241,-36.0447 454.842,-28.5793 444.3095,-29.7271 447.3241,-36.0447"/>
</g>
</g>
</svg>
