<?xml version="1.0" encoding="UTF-8" standalone="no"?>
<!DOCTYPE svg PUBLIC "-//W3C//DTD SVG 1.1//EN"
 "http://www.w3.org/Graphics/SVG/1.1/DTD/svg11.dtd">
<!-- Generated by graphviz version 2.43.0 (0)
 -->
<!-- Title: internal::make_integer_sequence&lt; T, 0, Ns... &gt; Pages: 1 -->
<svg width="142pt" height="102pt"
 viewBox="0.00 0.00 141.86 102.00" xmlns="http://www.w3.org/2000/svg" xmlns:xlink="http://www.w3.org/1999/xlink">
<g id="graph0" class="graph" transform="scale(1 1) rotate(0) translate(4 98)">
<title>internal::make_integer_sequence&lt; T, 0, Ns... &gt;</title>
<polygon fill="white" stroke="transparent" points="-4,4 -4,-98 137.86,-98 137.86,4 -4,4"/>
<!-- Node1 -->
<g id="node1" class="node">
<title>Node1</title>
<g id="a_node1"><a xlink:title=" ">
<polygon fill="#bfbfbf" stroke="black" points="4.82,-0.5 4.82,-28.5 129.04,-28.5 129.04,-0.5 4.82,-0.5"/>
<text text-anchor="start" x="12.82" y="-16.5" font-family="Helvetica,sans-Serif" font-size="10.00">internal::make_integer</text>
<text text-anchor="middle" x="66.93" y="-6.5" font-family="Helvetica,sans-Serif" font-size="10.00">_sequence&lt; T, 0, Ns... &gt;</text>
</a>
</g>
</g>
<!-- Node2 -->
<g id="node2" class="node">
<title>Node2</title>
<g id="a_node2"><a xlink:href="structinternal_1_1integer__sequence.html" target="_top" xlink:title=" ">
<polygon fill="white" stroke="black" points="0,-65.5 0,-93.5 133.86,-93.5 133.86,-65.5 0,-65.5"/>
<text text-anchor="start" x="8" y="-81.5" font-family="Helvetica,sans-Serif" font-size="10.00">internal::integer_sequence</text>
<text text-anchor="middle" x="66.93" y="-71.5" font-family="Helvetica,sans-Serif" font-size="10.00">&lt; T, Ns... &gt;</text>
</a>
</g>
</g>
<!-- Node2&#45;&gt;Node1 -->
<g id="edge1" class="edge">
<title>Node2&#45;&gt;Node1</title>
<path fill="none" stroke="midnightblue" d="M66.93,-55.16C66.93,-46.17 66.93,-36.22 66.93,-28.54"/>
<polygon fill="midnightblue" stroke="midnightblue" points="63.43,-55.45 66.93,-65.45 70.43,-55.45 63.43,-55.45"/>
</g>
</g>
</svg>
