<?xml version="1.0" encoding="UTF-8" standalone="no"?>
<!DOCTYPE svg PUBLIC "-//W3C//DTD SVG 1.1//EN"
 "http://www.w3.org/Graphics/SVG/1.1/DTD/svg11.dtd">
<!-- Generated by graphviz version 2.44.1 (20200629.0846)
 -->
<!-- Title: Iodw::meta::EntityBlock Pages: 1 -->
<svg width="470pt" height="180pt"
 viewBox="0.00 0.00 470.00 180.00" xmlns="http://www.w3.org/2000/svg" xmlns:xlink="http://www.w3.org/1999/xlink">
<g id="graph0" class="graph" transform="scale(1 1) rotate(0) translate(4 176)">
<title>Iodw::meta::EntityBlock</title>
<polygon fill="white" stroke="transparent" points="-4,4 -4,-176 466,-176 466,4 -4,4"/>
<!-- Node1 -->
<g id="node1" class="node">
<title>Node1</title>
<g id="a_node1"><a xlink:title=" ">
<polygon fill="#bfbfbf" stroke="black" points="172,-76.5 172,-95.5 294,-95.5 294,-76.5 172,-76.5"/>
<text text-anchor="middle" x="233" y="-83.5" font-family="Helvetica,sans-Serif" font-size="10.00">Iodw::meta::EntityBlock</text>
</a>
</g>
</g>
<!-- Node3 -->
<g id="node3" class="node">
<title>Node3</title>
<g id="a_node3"><a xlink:href="structIodw_1_1meta_1_1EdgeBlock.html" target="_top" xlink:title=" ">
<polygon fill="white" stroke="black" points="336.5,-152.5 336.5,-171.5 455.5,-171.5 455.5,-152.5 336.5,-152.5"/>
<text text-anchor="middle" x="396" y="-159.5" font-family="Helvetica,sans-Serif" font-size="10.00">Iodw::meta::EdgeBlock</text>
</a>
</g>
</g>
<!-- Node1&#45;&gt;Node3 -->
<g id="edge2" class="edge">
<title>Node1&#45;&gt;Node3</title>
<path fill="none" stroke="midnightblue" d="M256.21,-101.38C275.14,-113.94 303.42,-131.44 330,-143 338.3,-146.61 347.49,-149.77 356.28,-152.42"/>
<polygon fill="midnightblue" stroke="midnightblue" points="257.97,-98.34 247.72,-95.66 254.06,-104.15 257.97,-98.34"/>
</g>
<!-- Node4 -->
<g id="node4" class="node">
<title>Node4</title>
<g id="a_node4"><a xlink:href="structIodw_1_1meta_1_1ElementBlock.html" target="_top" xlink:title=" ">
<polygon fill="white" stroke="black" points="330,-114.5 330,-133.5 462,-133.5 462,-114.5 330,-114.5"/>
<text text-anchor="middle" x="396" y="-121.5" font-family="Helvetica,sans-Serif" font-size="10.00">Iodw::meta::ElementBlock</text>
</a>
</g>
</g>
<!-- Node1&#45;&gt;Node4 -->
<g id="edge3" class="edge">
<title>Node1&#45;&gt;Node4</title>
<path fill="none" stroke="midnightblue" d="M284.4,-97.9C307.03,-103.24 333.37,-109.45 354.67,-114.48"/>
<polygon fill="midnightblue" stroke="midnightblue" points="285.16,-94.48 274.63,-95.59 283.56,-101.29 285.16,-94.48"/>
</g>
<!-- Node5 -->
<g id="node5" class="node">
<title>Node5</title>
<g id="a_node5"><a xlink:href="structIodw_1_1meta_1_1FaceBlock.html" target="_top" xlink:title=" ">
<polygon fill="white" stroke="black" points="337,-76.5 337,-95.5 455,-95.5 455,-76.5 337,-76.5"/>
<text text-anchor="middle" x="396" y="-83.5" font-family="Helvetica,sans-Serif" font-size="10.00">Iodw::meta::FaceBlock</text>
</a>
</g>
</g>
<!-- Node1&#45;&gt;Node5 -->
<g id="edge4" class="edge">
<title>Node1&#45;&gt;Node5</title>
<path fill="none" stroke="midnightblue" d="M304.65,-86C315.43,-86 326.45,-86 336.92,-86"/>
<polygon fill="midnightblue" stroke="midnightblue" points="304.41,-82.5 294.41,-86 304.41,-89.5 304.41,-82.5"/>
</g>
<!-- Node6 -->
<g id="node6" class="node">
<title>Node6</title>
<g id="a_node6"><a xlink:href="structIodw_1_1meta_1_1NodeBlock.html" target="_top" xlink:title=" ">
<polygon fill="white" stroke="black" points="336.5,-38.5 336.5,-57.5 455.5,-57.5 455.5,-38.5 336.5,-38.5"/>
<text text-anchor="middle" x="396" y="-45.5" font-family="Helvetica,sans-Serif" font-size="10.00">Iodw::meta::NodeBlock</text>
</a>
</g>
</g>
<!-- Node1&#45;&gt;Node6 -->
<g id="edge5" class="edge">
<title>Node1&#45;&gt;Node6</title>
<path fill="none" stroke="midnightblue" d="M284.4,-74.1C307.03,-68.76 333.37,-62.55 354.67,-57.52"/>
<polygon fill="midnightblue" stroke="midnightblue" points="283.56,-70.71 274.63,-76.41 285.16,-77.52 283.56,-70.71"/>
</g>
<!-- Node7 -->
<g id="node7" class="node">
<title>Node7</title>
<g id="a_node7"><a xlink:href="structIodw_1_1meta_1_1SideBlock.html" target="_top" xlink:title=" ">
<polygon fill="white" stroke="black" points="338,-0.5 338,-19.5 454,-19.5 454,-0.5 338,-0.5"/>
<text text-anchor="middle" x="396" y="-7.5" font-family="Helvetica,sans-Serif" font-size="10.00">Iodw::meta::SideBlock</text>
</a>
</g>
</g>
<!-- Node1&#45;&gt;Node7 -->
<g id="edge6" class="edge">
<title>Node1&#45;&gt;Node7</title>
<path fill="none" stroke="midnightblue" d="M256.21,-70.62C275.14,-58.06 303.42,-40.56 330,-29 338.3,-25.39 347.49,-22.23 356.28,-19.58"/>
<polygon fill="midnightblue" stroke="midnightblue" points="254.06,-67.85 247.72,-76.34 257.97,-73.66 254.06,-67.85"/>
</g>
<!-- Node2 -->
<g id="node2" class="node">
<title>Node2</title>
<g id="a_node2"><a xlink:href="structIodw_1_1meta_1_1GroupingEntity.html" target="_top" xlink:title=" ">
<polygon fill="white" stroke="black" points="0,-76.5 0,-95.5 136,-95.5 136,-76.5 0,-76.5"/>
<text text-anchor="middle" x="68" y="-83.5" font-family="Helvetica,sans-Serif" font-size="10.00">Iodw::meta::GroupingEntity</text>
</a>
</g>
</g>
<!-- Node2&#45;&gt;Node1 -->
<g id="edge1" class="edge">
<title>Node2&#45;&gt;Node1</title>
<path fill="none" stroke="midnightblue" d="M146.3,-86C154.92,-86 163.6,-86 171.96,-86"/>
<polygon fill="midnightblue" stroke="midnightblue" points="146.24,-82.5 136.24,-86 146.24,-89.5 146.24,-82.5"/>
</g>
</g>
</svg>
