<?xml version="1.0" encoding="UTF-8" standalone="no"?>
<!DOCTYPE svg PUBLIC "-//W3C//DTD SVG 1.1//EN"
 "http://www.w3.org/Graphics/SVG/1.1/DTD/svg11.dtd">
<!-- Generated by graphviz version 2.40.1 (20161225.0304)
 -->
<!-- Title: Assert::Assert Pages: 1 -->
<svg width="869pt" height="383pt"
 viewBox="0.00 0.00 869.25 382.65" xmlns="http://www.w3.org/2000/svg" xmlns:xlink="http://www.w3.org/1999/xlink">
<g id="graph0" class="graph" transform="scale(1 1) rotate(0) translate(4 378.6549)">
<title>Assert::Assert</title>
<polygon fill="#ffffff" stroke="transparent" points="-4,4 -4,-378.6549 865.2539,-378.6549 865.2539,4 -4,4"/>
<!-- Node0 -->
<g id="node1" class="node">
<title>Node0</title>
<polygon fill="#bfbfbf" stroke="#000000" points="0,-258.1549 0,-276.1549 78.2363,-276.1549 78.2363,-258.1549 0,-258.1549"/>
<text text-anchor="middle" x="39.1182" y="-264.1549" font-family="Helvetica,sans-Serif" font-size="10.00" fill="#000000">Assert::Assert</text>
</g>
<!-- Node1 -->
<g id="node2" class="node">
<title>Node1</title>
<g id="a_node2"><a xlink:href="$classassert__context.html#af623d2a3dfc2f4f88be1f58b5663632c" xlink:title="assert_context::set_expr">
<polygon fill="#ffffff" stroke="#000000" points="114.2363,-356.1549 114.2363,-374.1549 239.1816,-374.1549 239.1816,-356.1549 114.2363,-356.1549"/>
<text text-anchor="middle" x="176.709" y="-362.1549" font-family="Helvetica,sans-Serif" font-size="10.00" fill="#000000">assert_context::set_expr</text>
</a>
</g>
</g>
<!-- Node0&#45;&gt;Node1 -->
<g id="edge1" class="edge">
<title>Node0&#45;&gt;Node1</title>
<path fill="none" stroke="#191970" d="M46.4756,-276.5912C58.9284,-292.0056 85.6126,-322.7133 114.2363,-341.1549 120.9665,-345.491 128.5997,-349.2317 136.1623,-352.3833"/>
<polygon fill="#191970" stroke="#191970" points="135.0417,-355.7027 145.6305,-356.0607 137.5761,-349.1776 135.0417,-355.7027"/>
</g>
<!-- Node2 -->
<g id="node3" class="node">
<title>Node2</title>
<g id="a_node3"><a xlink:href="$structAssert.html#a6707f5538bb0bd13eed019ada6c375e9" xlink:title="Assert::logger">
<polygon fill="#ffffff" stroke="#000000" points="432.2207,-322.1549 432.2207,-340.1549 509.915,-340.1549 509.915,-322.1549 432.2207,-322.1549"/>
<text text-anchor="middle" x="471.0679" y="-328.1549" font-family="Helvetica,sans-Serif" font-size="10.00" fill="#000000">Assert::logger</text>
</a>
</g>
</g>
<!-- Node0&#45;&gt;Node2 -->
<g id="edge2" class="edge">
<title>Node0&#45;&gt;Node2</title>
<path fill="none" stroke="#191970" d="M78.2753,-274.6367C125.0201,-283.4102 205.6149,-298.0375 275.1816,-308.1549 325.0564,-315.4085 382.3339,-321.9243 422.0147,-326.1528"/>
<polygon fill="#191970" stroke="#191970" points="421.6482,-329.6335 431.9607,-327.2041 422.384,-322.6723 421.6482,-329.6335"/>
</g>
<!-- Node3 -->
<g id="node4" class="node">
<title>Node3</title>
<g id="a_node4"><a xlink:href="$structAssert.html#a5d25d98d37ad3f261275039e17bce90a" xlink:title="Assert::handlers">
<polygon fill="#ffffff" stroke="#000000" points="426.9399,-5.1549 426.9399,-23.1549 515.1958,-23.1549 515.1958,-5.1549 426.9399,-5.1549"/>
<text text-anchor="middle" x="471.0679" y="-11.1549" font-family="Helvetica,sans-Serif" font-size="10.00" fill="#000000">Assert::handlers</text>
</a>
</g>
</g>
<!-- Node0&#45;&gt;Node3 -->
<g id="edge3" class="edge">
<title>Node0&#45;&gt;Node3</title>
<path fill="none" stroke="#191970" d="M43.6445,-258.0315C63.8347,-218.5695 150.2033,-62.3957 275.1816,-14.1549 320.5159,3.3438 376.2704,1.3081 416.6887,-3.9068"/>
<polygon fill="#191970" stroke="#191970" points="416.231,-7.3768 426.6185,-5.2912 417.1976,-.4438 416.231,-7.3768"/>
</g>
<!-- Node4 -->
<g id="node5" class="node">
<title>Node4</title>
<g id="a_node5"><a xlink:href="$namespaceIoss_1_1Private.html#a5481d73517f1f874d17bf37a0983295c" xlink:title="Ioss::Private::init\l_assert">
<polygon fill="#ffffff" stroke="#000000" points="132.0293,-170.1549 132.0293,-198.1549 221.3887,-198.1549 221.3887,-170.1549 132.0293,-170.1549"/>
<text text-anchor="start" x="140.0293" y="-186.1549" font-family="Helvetica,sans-Serif" font-size="10.00" fill="#000000">Ioss::Private::init</text>
<text text-anchor="middle" x="176.709" y="-176.1549" font-family="Helvetica,sans-Serif" font-size="10.00" fill="#000000">_assert</text>
</a>
</g>
</g>
<!-- Node0&#45;&gt;Node4 -->
<g id="edge4" class="edge">
<title>Node0&#45;&gt;Node4</title>
<path fill="none" stroke="#191970" d="M54.1047,-258.1145C75.5986,-245.1485 115.7234,-220.9438 144.2114,-203.7587"/>
<polygon fill="#191970" stroke="#191970" points="146.2587,-206.6113 153.0135,-198.449 142.6429,-200.6174 146.2587,-206.6113"/>
</g>
<!-- Node5 -->
<g id="node6" class="node">
<title>Node5</title>
<g id="a_node6"><a xlink:href="$structAssert.html#a0213abfa1b618a1107fd653b91dfe241" xlink:title="Assert::set_log">
<polygon fill="#ffffff" stroke="#000000" points="287.4058,-280.1549 287.4058,-298.1549 369.5483,-298.1549 369.5483,-280.1549 287.4058,-280.1549"/>
<text text-anchor="middle" x="328.4771" y="-286.1549" font-family="Helvetica,sans-Serif" font-size="10.00" fill="#000000">Assert::set_log</text>
</a>
</g>
</g>
<!-- Node4&#45;&gt;Node5 -->
<g id="edge5" class="edge">
<title>Node4&#45;&gt;Node5</title>
<path fill="none" stroke="#191970" d="M191.4327,-198.4096C209.8906,-215.7527 243.0246,-245.1847 275.1816,-265.1549 281.5231,-269.0931 288.6208,-272.7497 295.5165,-275.9614"/>
<polygon fill="#191970" stroke="#191970" points="294.1452,-279.1821 304.7045,-280.0499 296.9911,-272.7866 294.1452,-279.1821"/>
</g>
<!-- Node7 -->
<g id="node8" class="node">
<title>Node7</title>
<g id="a_node8"><a xlink:href="$namespaceSmartAssert.html#a82cc5880793133f1f1cad1b6f4d8bec6" xlink:title="SmartAssert::default\l_logger">
<polygon fill="#ffffff" stroke="#000000" points="417.7725,-228.1549 417.7725,-256.1549 524.3633,-256.1549 524.3633,-228.1549 417.7725,-228.1549"/>
<text text-anchor="start" x="425.7725" y="-244.1549" font-family="Helvetica,sans-Serif" font-size="10.00" fill="#000000">SmartAssert::default</text>
<text text-anchor="middle" x="471.0679" y="-234.1549" font-family="Helvetica,sans-Serif" font-size="10.00" fill="#000000">_logger</text>
</a>
</g>
</g>
<!-- Node4&#45;&gt;Node7 -->
<g id="edge17" class="edge">
<title>Node4&#45;&gt;Node7</title>
<path fill="none" stroke="#191970" d="M199.1677,-198.3657C218.4966,-209.7784 247.5564,-225.034 275.1816,-232.1549 318.3157,-243.2737 368.5143,-245.6405 407.2955,-245.2965"/>
<polygon fill="#191970" stroke="#191970" points="407.4596,-248.7945 417.4055,-245.1436 407.3537,-241.7953 407.4596,-248.7945"/>
</g>
<!-- Node16 -->
<g id="node17" class="node">
<title>Node16</title>
<g id="a_node17"><a xlink:href="$structAssert.html#a5bb9522f9714c08777fd4d511da2052e" xlink:title="Assert::set_handler">
<polygon fill="#ffffff" stroke="#000000" points="277.3984,-24.1549 277.3984,-42.1549 379.5557,-42.1549 379.5557,-24.1549 277.3984,-24.1549"/>
<text text-anchor="middle" x="328.4771" y="-30.1549" font-family="Helvetica,sans-Serif" font-size="10.00" fill="#000000">Assert::set_handler</text>
</a>
</g>
</g>
<!-- Node4&#45;&gt;Node16 -->
<g id="edge18" class="edge">
<title>Node4&#45;&gt;Node16</title>
<path fill="none" stroke="#191970" d="M184.434,-170.1276C199.1082,-144.5949 233.3195,-90.1291 275.1816,-57.1549 280.3084,-53.1167 286.2228,-49.5928 292.2056,-46.5796"/>
<polygon fill="#191970" stroke="#191970" points="293.9456,-49.6314 301.56,-42.2645 291.0134,-43.2751 293.9456,-49.6314"/>
</g>
<!-- Node17 -->
<g id="node18" class="node">
<title>Node17</title>
<g id="a_node18"><a xlink:href="$namespaceSmartAssert.html#a1bd30ac77bb6fd95588b90f112bd79e1" xlink:title="SmartAssert::default\l_warn_handler">
<polygon fill="#ffffff" stroke="#000000" points="275.1816,-100.1549 275.1816,-128.1549 381.7725,-128.1549 381.7725,-100.1549 275.1816,-100.1549"/>
<text text-anchor="start" x="283.1816" y="-116.1549" font-family="Helvetica,sans-Serif" font-size="10.00" fill="#000000">SmartAssert::default</text>
<text text-anchor="middle" x="328.4771" y="-106.1549" font-family="Helvetica,sans-Serif" font-size="10.00" fill="#000000">_warn_handler</text>
</a>
</g>
</g>
<!-- Node4&#45;&gt;Node17 -->
<g id="edge20" class="edge">
<title>Node4&#45;&gt;Node17</title>
<path fill="none" stroke="#191970" d="M205.4437,-170.0869C225.0122,-160.5937 251.5526,-147.8879 275.1816,-137.1549 278.7443,-135.5367 282.4522,-133.8803 286.1794,-132.2344"/>
<polygon fill="#191970" stroke="#191970" points="287.655,-135.4092 295.4123,-128.1929 284.848,-128.9966 287.655,-135.4092"/>
</g>
<!-- Node19 -->
<g id="node20" class="node">
<title>Node19</title>
<g id="a_node20"><a xlink:href="$namespaceSmartAssert.html#aad03eef491fe8c133f72b64b31ef8525" xlink:title="SmartAssert::default\l_debug_handler">
<polygon fill="#ffffff" stroke="#000000" points="417.7725,-66.1549 417.7725,-94.1549 524.3633,-94.1549 524.3633,-66.1549 417.7725,-66.1549"/>
<text text-anchor="start" x="425.7725" y="-82.1549" font-family="Helvetica,sans-Serif" font-size="10.00" fill="#000000">SmartAssert::default</text>
<text text-anchor="middle" x="471.0679" y="-72.1549" font-family="Helvetica,sans-Serif" font-size="10.00" fill="#000000">_debug_handler</text>
</a>
</g>
</g>
<!-- Node4&#45;&gt;Node19 -->
<g id="edge28" class="edge">
<title>Node4&#45;&gt;Node19</title>
<path fill="none" stroke="#191970" d="M186.217,-170.112C201.8429,-148.3895 235.2392,-107.3533 275.1816,-90.1549 316.7568,-72.2536 367.9714,-70.2467 407.6053,-72.4544"/>
<polygon fill="#191970" stroke="#191970" points="407.4695,-75.9529 417.6782,-73.119 407.9304,-68.9681 407.4695,-75.9529"/>
</g>
<!-- Node20 -->
<g id="node21" class="node">
<title>Node20</title>
<g id="a_node21"><a xlink:href="$namespaceSmartAssert.html#aff6d59c74bb9b8f3cddb9061696da6d3" xlink:title="SmartAssert::default\l_error_handler">
<polygon fill="#ffffff" stroke="#000000" points="275.1816,-147.1549 275.1816,-175.1549 381.7725,-175.1549 381.7725,-147.1549 275.1816,-147.1549"/>
<text text-anchor="start" x="283.1816" y="-163.1549" font-family="Helvetica,sans-Serif" font-size="10.00" fill="#000000">SmartAssert::default</text>
<text text-anchor="middle" x="328.4771" y="-153.1549" font-family="Helvetica,sans-Serif" font-size="10.00" fill="#000000">_error_handler</text>
</a>
</g>
</g>
<!-- Node4&#45;&gt;Node20 -->
<g id="edge33" class="edge">
<title>Node4&#45;&gt;Node20</title>
<path fill="none" stroke="#191970" d="M221.4235,-177.3786C235.0637,-175.3115 250.3302,-172.9979 264.9656,-170.7799"/>
<polygon fill="#191970" stroke="#191970" points="265.6067,-174.2228 274.9693,-169.2639 264.5577,-167.3018 265.6067,-174.2228"/>
</g>
<!-- Node21 -->
<g id="node22" class="node">
<title>Node21</title>
<g id="a_node22"><a xlink:href="$namespaceSmartAssert.html#a3bdc4f869ce64dd3832ac53b9397292f" xlink:title="SmartAssert::default\l_fatal_handler">
<polygon fill="#ffffff" stroke="#000000" points="275.1816,-194.1549 275.1816,-222.1549 381.7725,-222.1549 381.7725,-194.1549 275.1816,-194.1549"/>
<text text-anchor="start" x="283.1816" y="-210.1549" font-family="Helvetica,sans-Serif" font-size="10.00" fill="#000000">SmartAssert::default</text>
<text text-anchor="middle" x="328.4771" y="-200.1549" font-family="Helvetica,sans-Serif" font-size="10.00" fill="#000000">_fatal_handler</text>
</a>
</g>
</g>
<!-- Node4&#45;&gt;Node21 -->
<g id="edge35" class="edge">
<title>Node4&#45;&gt;Node21</title>
<path fill="none" stroke="#191970" d="M221.4235,-191.2259C235.0637,-193.3829 250.3302,-195.7971 264.9656,-198.1115"/>
<polygon fill="#191970" stroke="#191970" points="264.5453,-201.5885 274.9693,-199.6934 265.6388,-194.6744 264.5453,-201.5885"/>
</g>
<!-- Node5&#45;&gt;Node2 -->
<g id="edge7" class="edge">
<title>Node5&#45;&gt;Node2</title>
<path fill="none" stroke="#191970" d="M359.0664,-298.165C379.881,-304.2959 407.6571,-312.4774 430.3405,-319.1587"/>
<polygon fill="#191970" stroke="#191970" points="429.4557,-322.5467 440.0371,-322.0149 431.4335,-315.8319 429.4557,-322.5467"/>
</g>
<!-- Node6 -->
<g id="node7" class="node">
<title>Node6</title>
<g id="a_node7"><a xlink:href="$namespaceIoss_1_1Private.html#a6d59cb9b7209b1b22c0d721b0b86d8ac" xlink:title="Ioss::Private::set\l_default_log_name">
<polygon fill="#ffffff" stroke="#000000" points="420.5337,-275.1549 420.5337,-303.1549 521.6021,-303.1549 521.6021,-275.1549 420.5337,-275.1549"/>
<text text-anchor="start" x="428.5337" y="-291.1549" font-family="Helvetica,sans-Serif" font-size="10.00" fill="#000000">Ioss::Private::set</text>
<text text-anchor="middle" x="471.0679" y="-281.1549" font-family="Helvetica,sans-Serif" font-size="10.00" fill="#000000">_default_log_name</text>
</a>
</g>
</g>
<!-- Node5&#45;&gt;Node6 -->
<g id="edge6" class="edge">
<title>Node5&#45;&gt;Node6</title>
<path fill="none" stroke="#191970" d="M369.7202,-289.1549C382.3046,-289.1549 396.418,-289.1549 410.0229,-289.1549"/>
<polygon fill="#191970" stroke="#191970" points="410.2938,-292.655 420.2937,-289.1549 410.2937,-285.655 410.2938,-292.655"/>
</g>
<!-- Node5&#45;&gt;Node7 -->
<g id="edge8" class="edge">
<title>Node5&#45;&gt;Node7</title>
<path fill="none" stroke="#191970" d="M355.97,-280.0929C373.7957,-274.2173 397.586,-266.3756 418.9097,-259.347"/>
<polygon fill="#191970" stroke="#191970" points="420.1015,-262.6395 428.5032,-256.1849 417.9101,-255.9913 420.1015,-262.6395"/>
</g>
<!-- Node8 -->
<g id="node9" class="node">
<title>Node8</title>
<g id="a_node9"><a xlink:href="$namespaceSmartAssert.html#a94c68d356d17814ca336b63a482e14d2" xlink:title="SmartAssert::dump_context\l_detail">
<polygon fill="#ffffff" stroke="#000000" points="560.3633,-180.1549 560.3633,-208.1549 699.7471,-208.1549 699.7471,-180.1549 560.3633,-180.1549"/>
<text text-anchor="start" x="568.3633" y="-196.1549" font-family="Helvetica,sans-Serif" font-size="10.00" fill="#000000">SmartAssert::dump_context</text>
<text text-anchor="middle" x="630.0552" y="-186.1549" font-family="Helvetica,sans-Serif" font-size="10.00" fill="#000000">_detail</text>
</a>
</g>
</g>
<!-- Node7&#45;&gt;Node8 -->
<g id="edge9" class="edge">
<title>Node7&#45;&gt;Node8</title>
<path fill="none" stroke="#191970" d="M517.481,-228.1423C535.117,-222.8178 555.397,-216.6951 573.8427,-211.1261"/>
<polygon fill="#191970" stroke="#191970" points="575.0228,-214.4259 583.5844,-208.185 572.9996,-207.7247 575.0228,-214.4259"/>
</g>
<!-- Node9 -->
<g id="node10" class="node">
<title>Node9</title>
<g id="a_node10"><a xlink:href="$namespaceSmartAssert.html#ab9c77e2bf430b103a8ac59d852297f6a" xlink:title="SmartAssert::get_typeof\l_level">
<polygon fill="#ffffff" stroke="#000000" points="736.8652,-170.1549 736.8652,-198.1549 860.1357,-198.1549 860.1357,-170.1549 736.8652,-170.1549"/>
<text text-anchor="start" x="744.8652" y="-186.1549" font-family="Helvetica,sans-Serif" font-size="10.00" fill="#000000">SmartAssert::get_typeof</text>
<text text-anchor="middle" x="798.5005" y="-176.1549" font-family="Helvetica,sans-Serif" font-size="10.00" fill="#000000">_level</text>
</a>
</g>
</g>
<!-- Node8&#45;&gt;Node9 -->
<g id="edge10" class="edge">
<title>Node8&#45;&gt;Node9</title>
<path fill="none" stroke="#191970" d="M700.0278,-190.0009C708.7985,-189.4802 717.7816,-188.9469 726.5816,-188.4245"/>
<polygon fill="#191970" stroke="#191970" points="727.0291,-191.9042 736.8041,-187.8176 726.6142,-184.9165 727.0291,-191.9042"/>
</g>
<!-- Node10 -->
<g id="node11" class="node">
<title>Node10</title>
<g id="a_node11"><a xlink:href="$classassert__context.html#a679b95be3bfaa20e57e5c6ffe382e508" xlink:title="assert_context::get\l_level">
<polygon fill="#ffffff" stroke="#000000" points="748.2544,-123.1549 748.2544,-151.1549 848.7466,-151.1549 848.7466,-123.1549 748.2544,-123.1549"/>
<text text-anchor="start" x="756.2544" y="-139.1549" font-family="Helvetica,sans-Serif" font-size="10.00" fill="#000000">assert_context::get</text>
<text text-anchor="middle" x="798.5005" y="-129.1549" font-family="Helvetica,sans-Serif" font-size="10.00" fill="#000000">_level</text>
</a>
</g>
</g>
<!-- Node8&#45;&gt;Node10 -->
<g id="edge11" class="edge">
<title>Node8&#45;&gt;Node10</title>
<path fill="none" stroke="#191970" d="M671.6934,-180.0651C694.5558,-172.3287 723.0995,-162.6698 747.3139,-154.4759"/>
<polygon fill="#191970" stroke="#191970" points="748.6992,-157.7022 757.0497,-151.1814 746.4554,-151.0715 748.6992,-157.7022"/>
</g>
<!-- Node11 -->
<g id="node12" class="node">
<title>Node11</title>
<g id="a_node12"><a xlink:href="$classassert__context.html#aba6db2d68836a4bb4e651c37a6d5df4b" xlink:title="assert_context::get\l_context_file">
<polygon fill="#ffffff" stroke="#000000" points="748.2544,-29.1549 748.2544,-57.1549 848.7466,-57.1549 848.7466,-29.1549 748.2544,-29.1549"/>
<text text-anchor="start" x="756.2544" y="-45.1549" font-family="Helvetica,sans-Serif" font-size="10.00" fill="#000000">assert_context::get</text>
<text text-anchor="middle" x="798.5005" y="-35.1549" font-family="Helvetica,sans-Serif" font-size="10.00" fill="#000000">_context_file</text>
</a>
</g>
</g>
<!-- Node8&#45;&gt;Node11 -->
<g id="edge12" class="edge">
<title>Node8&#45;&gt;Node11</title>
<path fill="none" stroke="#191970" d="M671.8196,-180.0301C681.9825,-175.0235 692.1109,-168.4957 699.7471,-160.1549 729.9564,-127.1583 703.8858,-97.5595 735.7471,-66.1549 736.997,-64.923 738.3182,-63.7563 739.6981,-62.6514"/>
<polygon fill="#191970" stroke="#191970" points="741.7999,-65.456 748.152,-56.9766 737.8985,-59.644 741.7999,-65.456"/>
</g>
<!-- Node12 -->
<g id="node13" class="node">
<title>Node12</title>
<g id="a_node13"><a xlink:href="$classassert__context.html#a9112747e6d8202e017b4df025e5f17c4" xlink:title="assert_context::get\l_context_line">
<polygon fill="#ffffff" stroke="#000000" points="748.2544,-76.1549 748.2544,-104.1549 848.7466,-104.1549 848.7466,-76.1549 748.2544,-76.1549"/>
<text text-anchor="start" x="756.2544" y="-92.1549" font-family="Helvetica,sans-Serif" font-size="10.00" fill="#000000">assert_context::get</text>
<text text-anchor="middle" x="798.5005" y="-82.1549" font-family="Helvetica,sans-Serif" font-size="10.00" fill="#000000">_context_line</text>
</a>
</g>
</g>
<!-- Node8&#45;&gt;Node12 -->
<g id="edge13" class="edge">
<title>Node8&#45;&gt;Node12</title>
<path fill="none" stroke="#191970" d="M667.05,-179.9961C678.208,-174.7355 690.0555,-168.0811 699.7471,-160.1549 720.1152,-143.4971 714.5517,-128.7467 735.7471,-113.1549 737.7917,-111.6509 739.9451,-110.2359 742.1737,-108.9058"/>
<polygon fill="#191970" stroke="#191970" points="743.877,-111.9643 751.0719,-104.1873 740.5975,-105.78 743.877,-111.9643"/>
</g>
<!-- Node13 -->
<g id="node14" class="node">
<title>Node13</title>
<g id="a_node14"><a xlink:href="$classassert__context.html#a401e0b14e2d3525d65843fec3096a934" xlink:title="assert_context::get\l_level_msg">
<polygon fill="#ffffff" stroke="#000000" points="748.2544,-254.1549 748.2544,-282.1549 848.7466,-282.1549 848.7466,-254.1549 748.2544,-254.1549"/>
<text text-anchor="start" x="756.2544" y="-270.1549" font-family="Helvetica,sans-Serif" font-size="10.00" fill="#000000">assert_context::get</text>
<text text-anchor="middle" x="798.5005" y="-260.1549" font-family="Helvetica,sans-Serif" font-size="10.00" fill="#000000">_level_msg</text>
</a>
</g>
</g>
<!-- Node8&#45;&gt;Node13 -->
<g id="edge14" class="edge">
<title>Node8&#45;&gt;Node13</title>
<path fill="none" stroke="#191970" d="M657.5303,-208.3313C678.6654,-219.011 708.7298,-233.7181 735.7471,-245.1549 739.9478,-246.9332 744.3382,-248.7076 748.761,-250.4376"/>
<polygon fill="#191970" stroke="#191970" points="747.8434,-253.8339 758.4338,-254.1377 750.3444,-247.2959 747.8434,-253.8339"/>
</g>
<!-- Node14 -->
<g id="node15" class="node">
<title>Node14</title>
<g id="a_node15"><a xlink:href="$classassert__context.html#aa6807bfff935e4484ce79b4a043068fc" xlink:title="assert_context::get_expr">
<polygon fill="#ffffff" stroke="#000000" points="735.7471,-217.1549 735.7471,-235.1549 861.2539,-235.1549 861.2539,-217.1549 735.7471,-217.1549"/>
<text text-anchor="middle" x="798.5005" y="-223.1549" font-family="Helvetica,sans-Serif" font-size="10.00" fill="#000000">assert_context::get_expr</text>
</a>
</g>
</g>
<!-- Node8&#45;&gt;Node14 -->
<g id="edge15" class="edge">
<title>Node8&#45;&gt;Node14</title>
<path fill="none" stroke="#191970" d="M700.0278,-207.4478C713.7135,-210.0477 727.9163,-212.7459 741.1335,-215.2568"/>
<polygon fill="#191970" stroke="#191970" points="740.5463,-218.7078 751.0238,-217.1357 741.8528,-211.8307 740.5463,-218.7078"/>
</g>
<!-- Node15 -->
<g id="node16" class="node">
<title>Node15</title>
<g id="a_node16"><a xlink:href="$classassert__context.html#a102abde7b2385ff349be72c7e50dcc21" xlink:title="assert_context::get\l_vals_array">
<polygon fill="#ffffff" stroke="#000000" points="748.2544,-301.1549 748.2544,-329.1549 848.7466,-329.1549 848.7466,-301.1549 748.2544,-301.1549"/>
<text text-anchor="start" x="756.2544" y="-317.1549" font-family="Helvetica,sans-Serif" font-size="10.00" fill="#000000">assert_context::get</text>
<text text-anchor="middle" x="798.5005" y="-307.1549" font-family="Helvetica,sans-Serif" font-size="10.00" fill="#000000">_vals_array</text>
</a>
</g>
</g>
<!-- Node8&#45;&gt;Node15 -->
<g id="edge16" class="edge">
<title>Node8&#45;&gt;Node15</title>
<path fill="none" stroke="#191970" d="M642.009,-208.37C660.2805,-229.3058 697.122,-268.5013 735.7471,-292.1549 738.3832,-293.7693 741.1503,-295.2968 743.9926,-296.7379"/>
<polygon fill="#191970" stroke="#191970" points="742.7142,-300.0033 753.2574,-301.0476 745.6666,-293.6564 742.7142,-300.0033"/>
</g>
<!-- Node16&#45;&gt;Node3 -->
<g id="edge19" class="edge">
<title>Node16&#45;&gt;Node3</title>
<path fill="none" stroke="#191970" d="M379.9556,-26.2955C391.9215,-24.7011 404.6963,-22.9989 416.7791,-21.3888"/>
<polygon fill="#191970" stroke="#191970" points="417.2828,-24.8527 426.7329,-20.0625 416.3582,-17.9141 417.2828,-24.8527"/>
</g>
<!-- Node18 -->
<g id="node19" class="node">
<title>Node18</title>
<g id="a_node19"><a xlink:href="$namespaceSmartAssert.html#a004206ca8808981af35593be4498173a" xlink:title="SmartAssert::dump_context\l_summary">
<polygon fill="#ffffff" stroke="#000000" points="560.3633,-123.1549 560.3633,-151.1549 699.7471,-151.1549 699.7471,-123.1549 560.3633,-123.1549"/>
<text text-anchor="start" x="568.3633" y="-139.1549" font-family="Helvetica,sans-Serif" font-size="10.00" fill="#000000">SmartAssert::dump_context</text>
<text text-anchor="middle" x="630.0552" y="-129.1549" font-family="Helvetica,sans-Serif" font-size="10.00" fill="#000000">_summary</text>
</a>
</g>
</g>
<!-- Node17&#45;&gt;Node18 -->
<g id="edge21" class="edge">
<title>Node17&#45;&gt;Node18</title>
<path fill="none" stroke="#191970" d="M382.0457,-118.2404C428.7159,-121.7997 497.0465,-127.011 550.1726,-131.0627"/>
<polygon fill="#191970" stroke="#191970" points="550.0079,-134.5602 560.2451,-131.8308 550.5402,-127.5804 550.0079,-134.5602"/>
</g>
<!-- Node18&#45;&gt;Node9 -->
<g id="edge22" class="edge">
<title>Node18&#45;&gt;Node9</title>
<path fill="none" stroke="#191970" d="M680.5943,-151.2565C698.8319,-156.3452 719.5922,-162.1378 738.5568,-167.4293"/>
<polygon fill="#191970" stroke="#191970" points="737.7147,-170.828 748.2875,-170.1444 739.5961,-164.0855 737.7147,-170.828"/>
</g>
<!-- Node18&#45;&gt;Node10 -->
<g id="edge23" class="edge">
<title>Node18&#45;&gt;Node10</title>
<path fill="none" stroke="#191970" d="M700.0278,-137.1549C712.6684,-137.1549 725.7501,-137.1549 738.0889,-137.1549"/>
<polygon fill="#191970" stroke="#191970" points="738.2528,-140.655 748.2527,-137.1549 738.2527,-133.655 738.2528,-140.655"/>
</g>
<!-- Node18&#45;&gt;Node11 -->
<g id="edge24" class="edge">
<title>Node18&#45;&gt;Node11</title>
<path fill="none" stroke="#191970" d="M648.3076,-122.8979C668.7385,-107.426 703.2519,-82.7193 735.7471,-66.1549 739.0972,-64.4472 742.6047,-62.8033 746.176,-61.2344"/>
<polygon fill="#191970" stroke="#191970" points="747.8274,-64.3382 755.7147,-57.2643 745.1375,-57.8757 747.8274,-64.3382"/>
</g>
<!-- Node18&#45;&gt;Node12 -->
<g id="edge25" class="edge">
<title>Node18&#45;&gt;Node12</title>
<path fill="none" stroke="#191970" d="M680.5943,-123.0534C698.8319,-117.9647 719.5922,-112.1721 738.5568,-106.8806"/>
<polygon fill="#191970" stroke="#191970" points="739.5961,-110.2244 748.2875,-104.1655 737.7147,-103.4819 739.5961,-110.2244"/>
</g>
<!-- Node18&#45;&gt;Node13 -->
<g id="edge26" class="edge">
<title>Node18&#45;&gt;Node13</title>
<path fill="none" stroke="#191970" d="M671.7272,-151.2618C681.7741,-156.0951 691.8694,-162.3188 699.7471,-170.1549 725.961,-196.2307 708.3752,-220.2975 735.7471,-245.1549 737.0463,-246.3348 738.411,-247.4556 739.829,-248.52"/>
<polygon fill="#191970" stroke="#191970" points="738.1349,-251.5909 748.4472,-254.0214 741.9013,-245.6905 738.1349,-251.5909"/>
</g>
<!-- Node18&#45;&gt;Node14 -->
<g id="edge27" class="edge">
<title>Node18&#45;&gt;Node14</title>
<path fill="none" stroke="#191970" d="M666.2192,-151.2007C677.4566,-156.3571 689.5591,-162.7684 699.7471,-170.1549 718.582,-183.8108 715.8636,-196.0768 735.7471,-208.1549 738.9377,-210.0931 742.3461,-211.8304 745.8634,-213.3866"/>
<polygon fill="#191970" stroke="#191970" points="744.7657,-216.7154 755.3537,-217.0962 747.3142,-210.1958 744.7657,-216.7154"/>
</g>
<!-- Node19&#45;&gt;Node8 -->
<g id="edge29" class="edge">
<title>Node19&#45;&gt;Node8</title>
<path fill="none" stroke="#191970" d="M484.2967,-94.186C500.9107,-111.2669 530.8321,-140.2872 560.3633,-160.1549 568.7406,-165.791 578.1911,-171.0429 587.3668,-175.652"/>
<polygon fill="#191970" stroke="#191970" points="585.8765,-178.8191 596.4011,-180.0373 588.9333,-172.5218 585.8765,-178.8191"/>
</g>
<!-- Node19&#45;&gt;Node11 -->
<g id="edge30" class="edge">
<title>Node19&#45;&gt;Node11</title>
<path fill="none" stroke="#191970" d="M524.4043,-74.1279C582.9048,-67.5173 676.6014,-56.9296 737.8537,-50.0081"/>
<polygon fill="#191970" stroke="#191970" points="738.6017,-53.4459 748.1455,-48.8451 737.8157,-46.4902 738.6017,-53.4459"/>
</g>
<!-- Node19&#45;&gt;Node12 -->
<g id="edge31" class="edge">
<title>Node19&#45;&gt;Node12</title>
<path fill="none" stroke="#191970" d="M524.4043,-81.7839C582.9048,-83.5705 676.6014,-86.4321 737.8537,-88.3028"/>
<polygon fill="#191970" stroke="#191970" points="738.0432,-91.8101 748.1455,-88.6171 738.257,-84.8133 738.0432,-91.8101"/>
</g>
<!-- Node19&#45;&gt;Node18 -->
<g id="edge32" class="edge">
<title>Node19&#45;&gt;Node18</title>
<path fill="none" stroke="#191970" d="M510.3681,-94.2448C531.851,-101.9469 558.6485,-111.5543 581.4376,-119.7246"/>
<polygon fill="#191970" stroke="#191970" points="580.3373,-123.0482 590.9318,-123.1285 582.6997,-116.4589 580.3373,-123.0482"/>
</g>
<!-- Node20&#45;&gt;Node18 -->
<g id="edge34" class="edge">
<title>Node20&#45;&gt;Node18</title>
<path fill="none" stroke="#191970" d="M382.0457,-156.8919C428.7159,-153.1778 497.0465,-147.74 550.1726,-143.5121"/>
<polygon fill="#191970" stroke="#191970" points="550.5543,-146.9929 560.2451,-142.7105 549.9989,-140.015 550.5543,-146.9929"/>
</g>
<!-- Node21&#45;&gt;Node8 -->
<g id="edge36" class="edge">
<title>Node21&#45;&gt;Node8</title>
<path fill="none" stroke="#191970" d="M382.0457,-205.6682C428.7159,-203.5016 497.0465,-200.3295 550.1726,-197.8633"/>
<polygon fill="#191970" stroke="#191970" points="550.4182,-201.3558 560.2451,-197.3957 550.0935,-194.3633 550.4182,-201.3558"/>
</g>
</g>
</svg>
