<?xml version="1.0" encoding="UTF-8" standalone="no"?>
<!DOCTYPE svg PUBLIC "-//W3C//DTD SVG 1.1//EN"
 "http://www.w3.org/Graphics/SVG/1.1/DTD/svg11.dtd">
<!-- Generated by graphviz version 2.43.0 (0)
 -->
<!-- Title: formatting_range&lt; Char, Enable &gt; Pages: 1 -->
<svg width="192pt" height="122pt"
 viewBox="0.00 0.00 192.10 122.00" xmlns="http://www.w3.org/2000/svg" xmlns:xlink="http://www.w3.org/1999/xlink">
<g id="graph0" class="graph" transform="scale(1 1) rotate(0) translate(4 118)">
<title>formatting_range&lt; Char, Enable &gt;</title>
<polygon fill="white" stroke="transparent" points="-4,4 -4,-118 188.1,-118 188.1,4 -4,4"/>
<!-- Node1 -->
<g id="node1" class="node">
<title>Node1</title>
<g id="a_node1"><a xlink:title=" ">
<polygon fill="#bfbfbf" stroke="black" points="51.25,-0.5 51.25,-28.5 175.37,-28.5 175.37,-0.5 51.25,-0.5"/>
<text text-anchor="start" x="59.25" y="-16.5" font-family="Helvetica,sans-Serif" font-size="10.00">formatting_range&lt; Char,</text>
<text text-anchor="middle" x="113.31" y="-6.5" font-family="Helvetica,sans-Serif" font-size="10.00"> Enable &gt;</text>
</a>
</g>
</g>
<!-- Node2 -->
<g id="node2" class="node">
<title>Node2</title>
<g id="a_node2"><a xlink:href="structformatting__base.html" target="_top" xlink:title=" ">
<polygon fill="white" stroke="black" points="0,-95.5 0,-113.5 126.62,-113.5 126.62,-95.5 0,-95.5"/>
<text text-anchor="middle" x="63.31" y="-101.5" font-family="Helvetica,sans-Serif" font-size="10.00">formatting_base&lt; Char &gt;</text>
</a>
</g>
</g>
<!-- Node2&#45;&gt;Node1 -->
<g id="edge1" class="edge">
<title>Node2&#45;&gt;Node1</title>
<path fill="none" stroke="midnightblue" d="M72.92,-86.59C82.51,-69.71 97.04,-44.13 105.81,-28.7"/>
<polygon fill="midnightblue" stroke="midnightblue" points="69.82,-84.96 67.92,-95.38 75.91,-88.41 69.82,-84.96"/>
</g>
<!-- Node3 -->
<g id="node3" class="node">
<title>Node3</title>
<g id="a_node3"><a xlink:title=" ">
<polygon fill="white" stroke="#bfbfbf" points="144.47,-95.5 144.47,-113.5 182.15,-113.5 182.15,-95.5 144.47,-95.5"/>
<text text-anchor="middle" x="163.31" y="-101.5" font-family="Helvetica,sans-Serif" font-size="10.00">Char</text>
</a>
</g>
</g>
<!-- Node3&#45;&gt;Node1 -->
<g id="edge2" class="edge">
<title>Node3&#45;&gt;Node1</title>
<path fill="none" stroke="#9a32cd" stroke-dasharray="5,2" d="M153.7,-86.59C144.11,-69.71 129.58,-44.13 120.81,-28.7"/>
<polygon fill="#9a32cd" stroke="#9a32cd" points="150.71,-88.41 158.7,-95.38 156.8,-84.96 150.71,-88.41"/>
<text text-anchor="middle" x="165.2" y="-69" font-family="Helvetica,sans-Serif" font-size="10.00"> prefix</text>
<text text-anchor="middle" x="165.2" y="-59" font-family="Helvetica,sans-Serif" font-size="10.00">delimiter</text>
<text text-anchor="middle" x="165.2" y="-49" font-family="Helvetica,sans-Serif" font-size="10.00">postfix</text>
</g>
</g>
</svg>
