<?xml version="1.0" encoding="UTF-8" standalone="no"?>
<!DOCTYPE svg PUBLIC "-//W3C//DTD SVG 1.1//EN"
 "http://www.w3.org/Graphics/SVG/1.1/DTD/svg11.dtd">
<!-- Generated by graphviz version 2.40.1 (20161225.0304)
 -->
<!-- Title: Ioss::ZoneConnectivity::has_faces Pages: 1 -->
<svg width="663pt" height="141pt"
 viewBox="0.00 0.00 663.05 141.00" xmlns="http://www.w3.org/2000/svg" xmlns:xlink="http://www.w3.org/1999/xlink">
<g id="graph0" class="graph" transform="scale(1 1) rotate(0) translate(4 137)">
<title>Ioss::ZoneConnectivity::has_faces</title>
<polygon fill="#ffffff" stroke="transparent" points="-4,4 -4,-137 659.0518,-137 659.0518,4 -4,4"/>
<!-- Node29 -->
<g id="node1" class="node">
<title>Node29</title>
<polygon fill="#bfbfbf" stroke="#000000" points="0,-47.5 0,-75.5 117.1572,-75.5 117.1572,-47.5 0,-47.5"/>
<text text-anchor="start" x="8" y="-63.5" font-family="Helvetica,sans-Serif" font-size="10.00" fill="#000000">Ioss::ZoneConnectivity</text>
<text text-anchor="middle" x="58.5786" y="-53.5" font-family="Helvetica,sans-Serif" font-size="10.00" fill="#000000">::has_faces</text>
</g>
<!-- Node30 -->
<g id="node2" class="node">
<title>Node30</title>
<g id="a_node2"><a xlink:href="namespaceanonymous__namespace_02Iocgns__StructuredZoneData_8C_03.html#aec3180f915f0d9da1f8e9804e6d2270c" target="_top" xlink:title="anonymous_namespace\l\{Iocgns_StructuredZoneData\l::C\}::zgc_subset_ranges">
<polygon fill="#ffffff" stroke="#000000" points="153.1572,-94.5 153.1572,-132.5 297.5703,-132.5 297.5703,-94.5 153.1572,-94.5"/>
<text text-anchor="start" x="161.1572" y="-120.5" font-family="Helvetica,sans-Serif" font-size="10.00" fill="#000000">anonymous_namespace</text>
<text text-anchor="start" x="161.1572" y="-110.5" font-family="Helvetica,sans-Serif" font-size="10.00" fill="#000000">{Iocgns_StructuredZoneData</text>
<text text-anchor="middle" x="225.3638" y="-100.5" font-family="Helvetica,sans-Serif" font-size="10.00" fill="#000000">::C}::zgc_subset_ranges</text>
</a>
</g>
</g>
<!-- Node29&#45;&gt;Node30 -->
<g id="edge1" class="edge">
<title>Node29&#45;&gt;Node30</title>
<path fill="none" stroke="#191970" d="M113.5757,-78.6469C129.7949,-83.7037 147.6415,-89.2679 164.2219,-94.4373"/>
<polygon fill="#191970" stroke="#191970" points="114.3016,-75.2071 103.7131,-75.5719 112.2181,-81.8899 114.3016,-75.2071"/>
</g>
<!-- Node33 -->
<g id="node5" class="node">
<title>Node33</title>
<g id="a_node5"><a xlink:href="structIoss_1_1ZoneConnectivity.html#acbc4ff26a62d30995e349b033ef9a0e3" target="_top" xlink:title="Ioss::ZoneConnectivity\l::ZoneConnectivity">
<polygon fill="#ffffff" stroke="#000000" points="166.7852,-47.5 166.7852,-75.5 283.9424,-75.5 283.9424,-47.5 166.7852,-47.5"/>
<text text-anchor="start" x="174.7852" y="-63.5" font-family="Helvetica,sans-Serif" font-size="10.00" fill="#000000">Ioss::ZoneConnectivity</text>
<text text-anchor="middle" x="225.3638" y="-53.5" font-family="Helvetica,sans-Serif" font-size="10.00" fill="#000000">::ZoneConnectivity</text>
</a>
</g>
</g>
<!-- Node29&#45;&gt;Node33 -->
<g id="edge4" class="edge">
<title>Node29&#45;&gt;Node33</title>
<path fill="none" stroke="#191970" d="M127.6212,-61.5C140.5477,-61.5 153.9485,-61.5 166.5304,-61.5"/>
<polygon fill="#191970" stroke="#191970" points="127.3809,-58.0001 117.3808,-61.5 127.3808,-65.0001 127.3809,-58.0001"/>
</g>
<!-- Node34 -->
<g id="node6" class="node">
<title>Node34</title>
<g id="a_node6"><a xlink:href="structIoss_1_1ZoneConnectivity.html#ac2558d8a65d4dcd2871bb00632a2d0ed" target="_top" xlink:title="Ioss::ZoneConnectivity\l::is_active">
<polygon fill="#ffffff" stroke="#000000" points="166.7852,-.5 166.7852,-28.5 283.9424,-28.5 283.9424,-.5 166.7852,-.5"/>
<text text-anchor="start" x="174.7852" y="-16.5" font-family="Helvetica,sans-Serif" font-size="10.00" fill="#000000">Ioss::ZoneConnectivity</text>
<text text-anchor="middle" x="225.3638" y="-6.5" font-family="Helvetica,sans-Serif" font-size="10.00" fill="#000000">::is_active</text>
</a>
</g>
</g>
<!-- Node29&#45;&gt;Node34 -->
<g id="edge5" class="edge">
<title>Node29&#45;&gt;Node34</title>
<path fill="none" stroke="#191970" d="M118.2678,-44.6796C137.0665,-39.3821 157.6178,-33.5908 175.6456,-28.5106"/>
<polygon fill="#191970" stroke="#191970" points="117.2954,-41.3172 108.6197,-47.3985 119.1941,-48.0548 117.2954,-41.3172"/>
</g>
<!-- Node31 -->
<g id="node3" class="node">
<title>Node31</title>
<g id="a_node3"><a xlink:href="namespaceanonymous__namespace_02Iocgns__StructuredZoneData_8C_03.html#afcb596d3353bdbc509915a0d271f7c3c" target="_top" xlink:title="anonymous_namespace\l\{Iocgns_StructuredZoneData\l::C\}::propogate_zgc">
<polygon fill="#ffffff" stroke="#000000" points="333.5703,-94.5 333.5703,-132.5 477.9834,-132.5 477.9834,-94.5 333.5703,-94.5"/>
<text text-anchor="start" x="341.5703" y="-120.5" font-family="Helvetica,sans-Serif" font-size="10.00" fill="#000000">anonymous_namespace</text>
<text text-anchor="start" x="341.5703" y="-110.5" font-family="Helvetica,sans-Serif" font-size="10.00" fill="#000000">{Iocgns_StructuredZoneData</text>
<text text-anchor="middle" x="405.7769" y="-100.5" font-family="Helvetica,sans-Serif" font-size="10.00" fill="#000000">::C}::propogate_zgc</text>
</a>
</g>
</g>
<!-- Node30&#45;&gt;Node31 -->
<g id="edge2" class="edge">
<title>Node30&#45;&gt;Node31</title>
<path fill="none" stroke="#191970" d="M307.7123,-113.5C316.2903,-113.5 324.9637,-113.5 333.4193,-113.5"/>
<polygon fill="#191970" stroke="#191970" points="307.7052,-110.0001 297.7051,-113.5 307.7051,-117.0001 307.7052,-110.0001"/>
</g>
<!-- Node32 -->
<g id="node4" class="node">
<title>Node32</title>
<g id="a_node4"><a xlink:href="classIocgns_1_1StructuredZoneData.html#ae7b4b9bc6a4cfb29b1a14f442badfca5" target="_top" xlink:title="Iocgns::StructuredZoneData\l::split">
<polygon fill="#ffffff" stroke="#000000" points="513.9834,-99.5 513.9834,-127.5 655.0518,-127.5 655.0518,-99.5 513.9834,-99.5"/>
<text text-anchor="start" x="521.9834" y="-115.5" font-family="Helvetica,sans-Serif" font-size="10.00" fill="#000000">Iocgns::StructuredZoneData</text>
<text text-anchor="middle" x="584.5176" y="-105.5" font-family="Helvetica,sans-Serif" font-size="10.00" fill="#000000">::split</text>
</a>
</g>
</g>
<!-- Node31&#45;&gt;Node32 -->
<g id="edge3" class="edge">
<title>Node31&#45;&gt;Node32</title>
<path fill="none" stroke="#191970" d="M488.4545,-113.5C496.8942,-113.5 505.414,-113.5 513.7106,-113.5"/>
<polygon fill="#191970" stroke="#191970" points="488.2199,-110.0001 478.2199,-113.5 488.2198,-117.0001 488.2199,-110.0001"/>
</g>
</g>
</svg>
