<?xml version="1.0" encoding="UTF-8" standalone="no"?>
<!DOCTYPE svg PUBLIC "-//W3C//DTD SVG 1.1//EN"
 "http://www.w3.org/Graphics/SVG/1.1/DTD/svg11.dtd">
<!-- Generated by graphviz version 2.44.1 (20200629.0846)
 -->
<!-- Title: src/tokenize.h Pages: 1 -->
<svg width="2528pt" height="95pt"
 viewBox="0.00 0.00 2527.50 95.00" xmlns="http://www.w3.org/2000/svg" xmlns:xlink="http://www.w3.org/1999/xlink">
<g id="graph0" class="graph" transform="scale(1 1) rotate(0) translate(4 91)">
<title>src/tokenize.h</title>
<polygon fill="white" stroke="transparent" points="-4,4 -4,-91 2523.5,-91 2523.5,4 -4,4"/>
<!-- Node1 -->
<g id="node1" class="node">
<title>Node1</title>
<g id="a_node1"><a xlink:title=" ">
<polygon fill="#bfbfbf" stroke="black" points="1394,-67.5 1394,-86.5 1472,-86.5 1472,-67.5 1394,-67.5"/>
<text text-anchor="middle" x="1433" y="-74.5" font-family="Helvetica,sans-Serif" font-size="10.00">src/tokenize.h</text>
</a>
</g>
</g>
<!-- Node2 -->
<g id="node2" class="node">
<title>Node2</title>
<g id="a_node2"><a xlink:href="Ioad__DatabaseIO_8C.html" target="_top" xlink:title=" ">
<polygon fill="white" stroke="black" points="0,-6 0,-25 146,-25 146,-6 0,-6"/>
<text text-anchor="middle" x="73" y="-13" font-family="Helvetica,sans-Serif" font-size="10.00">src/adios/Ioad_DatabaseIO.C</text>
</a>
</g>
</g>
<!-- Node1&#45;&gt;Node2 -->
<g id="edge1" class="edge">
<title>Node1&#45;&gt;Node2</title>
<path fill="none" stroke="midnightblue" d="M1383.69,-75.19C1179.55,-71.68 399.82,-56.83 155,-31 141.77,-29.6 127.46,-27.34 114.56,-25.01"/>
<polygon fill="midnightblue" stroke="midnightblue" points="1383.75,-78.69 1393.81,-75.36 1383.87,-71.69 1383.75,-78.69"/>
</g>
<!-- Node3 -->
<g id="node3" class="node">
<title>Node3</title>
<g id="a_node3"><a xlink:href="Iocgns__DatabaseIO_8C.html" target="_top" xlink:title=" ">
<polygon fill="white" stroke="black" points="164.5,-6 164.5,-25 319.5,-25 319.5,-6 164.5,-6"/>
<text text-anchor="middle" x="242" y="-13" font-family="Helvetica,sans-Serif" font-size="10.00">src/cgns/Iocgns_DatabaseIO.C</text>
</a>
</g>
</g>
<!-- Node1&#45;&gt;Node3 -->
<g id="edge2" class="edge">
<title>Node1&#45;&gt;Node3</title>
<path fill="none" stroke="midnightblue" d="M1383.53,-76.21C1227.82,-76.39 734.02,-73.32 328,-31 314.3,-29.57 299.47,-27.33 286.05,-25.03"/>
<polygon fill="midnightblue" stroke="midnightblue" points="1383.73,-79.71 1393.72,-76.19 1383.72,-72.71 1383.73,-79.71"/>
</g>
<!-- Node4 -->
<g id="node4" class="node">
<title>Node4</title>
<g id="a_node4"><a xlink:href="Iocgns__DecompositionData_8C.html" target="_top" xlink:title=" ">
<polygon fill="white" stroke="black" points="337.5,-0.5 337.5,-30.5 494.5,-30.5 494.5,-0.5 337.5,-0.5"/>
<text text-anchor="start" x="345.5" y="-18.5" font-family="Helvetica,sans-Serif" font-size="10.00">src/cgns/Iocgns_Decomposition</text>
<text text-anchor="middle" x="416" y="-7.5" font-family="Helvetica,sans-Serif" font-size="10.00">Data.C</text>
</a>
</g>
</g>
<!-- Node1&#45;&gt;Node4 -->
<g id="edge3" class="edge">
<title>Node1&#45;&gt;Node4</title>
<path fill="none" stroke="midnightblue" d="M1383.63,-75.6C1244.73,-74.06 838.9,-66.58 504,-31 500.92,-30.67 497.79,-30.31 494.62,-29.91"/>
<polygon fill="midnightblue" stroke="midnightblue" points="1383.9,-79.11 1393.94,-75.71 1383.97,-72.11 1383.9,-79.11"/>
</g>
<!-- Node5 -->
<g id="node5" class="node">
<title>Node5</title>
<g id="a_node5"><a xlink:href="Iocgns__IOFactory_8C.html" target="_top" xlink:title=" ">
<polygon fill="white" stroke="black" points="513,-6 513,-25 657,-25 657,-6 513,-6"/>
<text text-anchor="middle" x="585" y="-13" font-family="Helvetica,sans-Serif" font-size="10.00">src/cgns/Iocgns_IOFactory.C</text>
</a>
</g>
</g>
<!-- Node1&#45;&gt;Node5 -->
<g id="edge4" class="edge">
<title>Node1&#45;&gt;Node5</title>
<path fill="none" stroke="midnightblue" d="M1383.59,-75.13C1261.44,-72.53 935.65,-62.93 666,-31 653.37,-29.5 639.74,-27.3 627.32,-25.05"/>
<polygon fill="midnightblue" stroke="midnightblue" points="1383.67,-78.63 1393.74,-75.34 1383.82,-71.63 1383.67,-78.63"/>
</g>
<!-- Node6 -->
<g id="node6" class="node">
<title>Node6</title>
<g id="a_node6"><a xlink:href="Iocgns__StructuredZoneData_8C.html" target="_top" xlink:title=" ">
<polygon fill="white" stroke="black" points="675.5,-0.5 675.5,-30.5 812.5,-30.5 812.5,-0.5 675.5,-0.5"/>
<text text-anchor="start" x="683.5" y="-18.5" font-family="Helvetica,sans-Serif" font-size="10.00">src/cgns/Iocgns_Structured</text>
<text text-anchor="middle" x="744" y="-7.5" font-family="Helvetica,sans-Serif" font-size="10.00">ZoneData.C</text>
</a>
</g>
</g>
<!-- Node1&#45;&gt;Node6 -->
<g id="edge5" class="edge">
<title>Node1&#45;&gt;Node6</title>
<path fill="none" stroke="midnightblue" d="M1383.69,-74.21C1279.57,-70.04 1029.79,-57.88 822,-31 818.99,-30.61 815.93,-30.18 812.84,-29.72"/>
<polygon fill="midnightblue" stroke="midnightblue" points="1383.76,-77.72 1393.89,-74.62 1384.04,-70.73 1383.76,-77.72"/>
</g>
<!-- Node7 -->
<g id="node7" class="node">
<title>Node7</title>
<g id="a_node7"><a xlink:href="Iocgns__Utils_8C.html" target="_top" xlink:title=" ">
<polygon fill="white" stroke="black" points="831,-6 831,-25 953,-25 953,-6 831,-6"/>
<text text-anchor="middle" x="892" y="-13" font-family="Helvetica,sans-Serif" font-size="10.00">src/cgns/Iocgns_Utils.C</text>
</a>
</g>
</g>
<!-- Node1&#45;&gt;Node7 -->
<g id="edge6" class="edge">
<title>Node1&#45;&gt;Node7</title>
<path fill="none" stroke="midnightblue" d="M1383.75,-73.07C1297.8,-67.56 1114.98,-54.08 962,-31 951.32,-29.39 939.82,-27.2 929.28,-25.01"/>
<polygon fill="midnightblue" stroke="midnightblue" points="1383.54,-76.56 1393.74,-73.7 1383.99,-69.58 1383.54,-76.56"/>
</g>
<!-- Node8 -->
<g id="node8" class="node">
<title>Node8</title>
<g id="a_node8"><a xlink:href="Ioex__DatabaseIO_8C.html" target="_top" xlink:title=" ">
<polygon fill="white" stroke="black" points="971.5,-6 971.5,-25 1126.5,-25 1126.5,-6 971.5,-6"/>
<text text-anchor="middle" x="1049" y="-13" font-family="Helvetica,sans-Serif" font-size="10.00">src/exodus/Ioex_DatabaseIO.C</text>
</a>
</g>
</g>
<!-- Node1&#45;&gt;Node8 -->
<g id="edge7" class="edge">
<title>Node1&#45;&gt;Node8</title>
<path fill="none" stroke="midnightblue" d="M1383.42,-68.72C1324.43,-60 1222.97,-44.84 1136,-31 1124.2,-29.12 1111.52,-27.04 1099.58,-25.06"/>
<polygon fill="midnightblue" stroke="midnightblue" points="1383.17,-72.22 1393.58,-70.22 1384.2,-65.29 1383.17,-72.22"/>
</g>
<!-- Node9 -->
<g id="node9" class="node">
<title>Node9</title>
<g id="a_node9"><a xlink:href="Ioex__IOFactory_8C.html" target="_top" xlink:title=" ">
<polygon fill="white" stroke="black" points="1145,-6 1145,-25 1289,-25 1289,-6 1145,-6"/>
<text text-anchor="middle" x="1217" y="-13" font-family="Helvetica,sans-Serif" font-size="10.00">src/exodus/Ioex_IOFactory.C</text>
</a>
</g>
</g>
<!-- Node1&#45;&gt;Node9 -->
<g id="edge8" class="edge">
<title>Node1&#45;&gt;Node9</title>
<path fill="none" stroke="midnightblue" d="M1392.16,-64.75C1350.19,-53.19 1285.8,-35.45 1247.89,-25.01"/>
<polygon fill="midnightblue" stroke="midnightblue" points="1391.48,-68.19 1402.05,-67.48 1393.34,-61.44 1391.48,-68.19"/>
</g>
<!-- Node10 -->
<g id="node10" class="node">
<title>Node10</title>
<g id="a_node10"><a xlink:href="Ioex__Utils_8C.html" target="_top" xlink:title=" ">
<polygon fill="white" stroke="black" points="1307,-6 1307,-25 1429,-25 1429,-6 1307,-6"/>
<text text-anchor="middle" x="1368" y="-13" font-family="Helvetica,sans-Serif" font-size="10.00">src/exodus/Ioex_Utils.C</text>
</a>
</g>
</g>
<!-- Node1&#45;&gt;Node10 -->
<g id="edge9" class="edge">
<title>Node1&#45;&gt;Node10</title>
<path fill="none" stroke="midnightblue" d="M1416.23,-60.65C1403.84,-49.31 1387.42,-34.28 1377.3,-25.01"/>
<polygon fill="midnightblue" stroke="midnightblue" points="1413.95,-63.3 1423.69,-67.48 1418.67,-58.14 1413.95,-63.3"/>
</g>
<!-- Node11 -->
<g id="node11" class="node">
<title>Node11</title>
<g id="a_node11"><a xlink:href="Iogs__GeneratedMesh_8C.html" target="_top" xlink:title=" ">
<polygon fill="white" stroke="black" points="1447.5,-0.5 1447.5,-30.5 1548.5,-30.5 1548.5,-0.5 1447.5,-0.5"/>
<text text-anchor="start" x="1455.5" y="-18.5" font-family="Helvetica,sans-Serif" font-size="10.00">src/gen_struc/Iogs</text>
<text text-anchor="middle" x="1498" y="-7.5" font-family="Helvetica,sans-Serif" font-size="10.00">_GeneratedMesh.C</text>
</a>
</g>
</g>
<!-- Node1&#45;&gt;Node11 -->
<g id="edge10" class="edge">
<title>Node1&#45;&gt;Node11</title>
<path fill="none" stroke="midnightblue" d="M1449.77,-60.65C1459.93,-51.35 1472.8,-39.57 1482.68,-30.52"/>
<polygon fill="midnightblue" stroke="midnightblue" points="1447.33,-58.14 1442.31,-67.48 1452.05,-63.3 1447.33,-58.14"/>
</g>
<!-- Node12 -->
<g id="node12" class="node">
<title>Node12</title>
<g id="a_node12"><a xlink:href="Iogn__GeneratedMesh_8C.html" target="_top" xlink:title=" ">
<polygon fill="white" stroke="black" points="1566.5,-0.5 1566.5,-30.5 1667.5,-30.5 1667.5,-0.5 1566.5,-0.5"/>
<text text-anchor="start" x="1574.5" y="-18.5" font-family="Helvetica,sans-Serif" font-size="10.00">src/generated/Iogn</text>
<text text-anchor="middle" x="1617" y="-7.5" font-family="Helvetica,sans-Serif" font-size="10.00">_GeneratedMesh.C</text>
</a>
</g>
</g>
<!-- Node1&#45;&gt;Node12 -->
<g id="edge11" class="edge">
<title>Node1&#45;&gt;Node12</title>
<path fill="none" stroke="midnightblue" d="M1469.01,-64.36C1498.99,-54.66 1541.77,-40.83 1573.63,-30.52"/>
<polygon fill="midnightblue" stroke="midnightblue" points="1467.8,-61.07 1459.36,-67.48 1469.95,-67.73 1467.8,-61.07"/>
</g>
<!-- Node13 -->
<g id="node13" class="node">
<title>Node13</title>
<g id="a_node13"><a xlink:href="Ioss__DatabaseIO_8C.html" target="_top" xlink:title=" ">
<polygon fill="white" stroke="black" points="1686,-6 1686,-25 1806,-25 1806,-6 1686,-6"/>
<text text-anchor="middle" x="1746" y="-13" font-family="Helvetica,sans-Serif" font-size="10.00">src/Ioss_DatabaseIO.C</text>
</a>
</g>
</g>
<!-- Node1&#45;&gt;Node13 -->
<g id="edge12" class="edge">
<title>Node1&#45;&gt;Node13</title>
<path fill="none" stroke="midnightblue" d="M1482.44,-67.25C1531.78,-58.44 1609.73,-44.27 1677,-31 1686.49,-29.13 1696.69,-27.03 1706.26,-25.03"/>
<polygon fill="midnightblue" stroke="midnightblue" points="1481.59,-63.85 1472.36,-69.05 1482.82,-70.74 1481.59,-63.85"/>
</g>
<!-- Node14 -->
<g id="node14" class="node">
<title>Node14</title>
<g id="a_node14"><a xlink:href="Ioss__FileInfo_8C.html" target="_top" xlink:title=" ">
<polygon fill="white" stroke="black" points="1824,-6 1824,-25 1924,-25 1924,-6 1824,-6"/>
<text text-anchor="middle" x="1874" y="-13" font-family="Helvetica,sans-Serif" font-size="10.00">src/Ioss_FileInfo.C</text>
</a>
</g>
</g>
<!-- Node1&#45;&gt;Node14 -->
<g id="edge13" class="edge">
<title>Node1&#45;&gt;Node14</title>
<path fill="none" stroke="midnightblue" d="M1482.28,-72.16C1555.33,-66.02 1696.47,-52.46 1815,-31 1823.93,-29.38 1833.51,-27.22 1842.31,-25.05"/>
<polygon fill="midnightblue" stroke="midnightblue" points="1481.68,-68.7 1472.01,-73.01 1482.26,-75.67 1481.68,-68.7"/>
</g>
<!-- Node15 -->
<g id="node15" class="node">
<title>Node15</title>
<g id="a_node15"><a xlink:href="Ioss__ParallelUtils_8C.html" target="_top" xlink:title=" ">
<polygon fill="white" stroke="black" points="1942,-6 1942,-25 2062,-25 2062,-6 1942,-6"/>
<text text-anchor="middle" x="2002" y="-13" font-family="Helvetica,sans-Serif" font-size="10.00">src/Ioss_ParallelUtils.C</text>
</a>
</g>
</g>
<!-- Node1&#45;&gt;Node15 -->
<g id="edge14" class="edge">
<title>Node1&#45;&gt;Node15</title>
<path fill="none" stroke="midnightblue" d="M1482.26,-73.49C1572.18,-68.48 1768.83,-55.55 1933,-31 1943.53,-29.42 1954.88,-27.25 1965.26,-25.05"/>
<polygon fill="midnightblue" stroke="midnightblue" points="1481.88,-70 1472.08,-74.05 1482.26,-76.99 1481.88,-70"/>
</g>
<!-- Node16 -->
<g id="node16" class="node">
<title>Node16</title>
<g id="a_node16"><a xlink:href="Ioss__Utils_8C.html" target="_top" xlink:title=" ">
<polygon fill="white" stroke="black" points="2080,-6 2080,-25 2168,-25 2168,-6 2080,-6"/>
<text text-anchor="middle" x="2124" y="-13" font-family="Helvetica,sans-Serif" font-size="10.00">src/Ioss_Utils.C</text>
</a>
</g>
</g>
<!-- Node1&#45;&gt;Node16 -->
<g id="edge15" class="edge">
<title>Node1&#45;&gt;Node16</title>
<path fill="none" stroke="midnightblue" d="M1482.39,-75.81C1590.09,-74.68 1853.83,-67.99 2071,-31 2079.46,-29.56 2088.53,-27.34 2096.72,-25.06"/>
<polygon fill="midnightblue" stroke="midnightblue" points="1482.12,-72.31 1472.16,-75.91 1482.19,-79.31 1482.12,-72.31"/>
</g>
<!-- Node17 -->
<g id="node17" class="node">
<title>Node17</title>
<g id="a_node17"><a xlink:href="io__modify_8C.html" target="_top" xlink:title=" ">
<polygon fill="white" stroke="black" points="2186,-6 2186,-25 2294,-25 2294,-6 2186,-6"/>
<text text-anchor="middle" x="2240" y="-13" font-family="Helvetica,sans-Serif" font-size="10.00">src/main/io_modify.C</text>
</a>
</g>
</g>
<!-- Node1&#45;&gt;Node17 -->
<g id="edge16" class="edge">
<title>Node1&#45;&gt;Node17</title>
<path fill="none" stroke="midnightblue" d="M1482.68,-75.83C1602.66,-74.81 1917.47,-68.45 2177,-31 2187,-29.56 2197.75,-27.34 2207.5,-25.06"/>
<polygon fill="midnightblue" stroke="midnightblue" points="1482.33,-72.33 1472.36,-75.91 1482.38,-79.33 1482.33,-72.33"/>
</g>
<!-- Node18 -->
<g id="node18" class="node">
<title>Node18</title>
<g id="a_node18"><a xlink:href="tokenize_8C.html" target="_top" xlink:title=" ">
<polygon fill="white" stroke="black" points="2312,-6 2312,-25 2392,-25 2392,-6 2312,-6"/>
<text text-anchor="middle" x="2352" y="-13" font-family="Helvetica,sans-Serif" font-size="10.00">src/tokenize.C</text>
</a>
</g>
</g>
<!-- Node1&#45;&gt;Node18 -->
<g id="edge17" class="edge">
<title>Node1&#45;&gt;Node18</title>
<path fill="none" stroke="midnightblue" d="M1482.51,-74.97C1642.33,-71.42 2143.43,-58.34 2303,-31 2311.04,-29.62 2319.64,-27.36 2327.34,-25.03"/>
<polygon fill="midnightblue" stroke="midnightblue" points="1481.96,-71.49 1472.04,-75.2 1482.11,-78.48 1481.96,-71.49"/>
</g>
<!-- Node19 -->
<g id="node19" class="node">
<title>Node19</title>
<g id="a_node19"><a xlink:href="Iovs__DatabaseIO_8C.html" target="_top" xlink:title=" ">
<polygon fill="white" stroke="black" points="2410.5,-0.5 2410.5,-30.5 2519.5,-30.5 2519.5,-0.5 2410.5,-0.5"/>
<text text-anchor="start" x="2418.5" y="-18.5" font-family="Helvetica,sans-Serif" font-size="10.00">src/visualization/Iovs</text>
<text text-anchor="middle" x="2465" y="-7.5" font-family="Helvetica,sans-Serif" font-size="10.00">_DatabaseIO.C</text>
</a>
</g>
</g>
<!-- Node1&#45;&gt;Node19 -->
<g id="edge18" class="edge">
<title>Node1&#45;&gt;Node19</title>
<path fill="none" stroke="midnightblue" d="M1482.21,-74.86C1653.15,-70.72 2220.56,-55.44 2401,-31 2404.05,-30.59 2407.17,-30.1 2410.3,-29.56"/>
<polygon fill="midnightblue" stroke="midnightblue" points="1481.92,-71.37 1472,-75.11 1482.08,-78.36 1481.92,-71.37"/>
</g>
</g>
</svg>
