<?xml version="1.0" encoding="UTF-8" standalone="no"?>
<!DOCTYPE svg PUBLIC "-//W3C//DTD SVG 1.1//EN"
 "http://www.w3.org/Graphics/SVG/1.1/DTD/svg11.dtd">
<!-- Generated by graphviz version 2.42.3 (20191010.1750)
 -->
<!-- Title: src/utest/Utst_sort.C Pages: 1 -->
<svg width="379pt" height="137pt"
 viewBox="0.00 0.00 379.07 137.00" xmlns="http://www.w3.org/2000/svg" xmlns:xlink="http://www.w3.org/1999/xlink">
<g id="graph0" class="graph" transform="scale(1 1) rotate(0) translate(4 133)">
<title>src/utest/Utst_sort.C</title>
<polygon fill="white" stroke="transparent" points="-4,4 -4,-133 375.07,-133 375.07,4 -4,4"/>
<!-- Node1 -->
<g id="node1" class="node">
<title>Node1</title>
<g id="a_node1"><a xlink:title=" ">
<polygon fill="#bfbfbf" stroke="black" points="153.83,-110.5 153.83,-128.5 260.41,-128.5 260.41,-110.5 153.83,-110.5"/>
<text text-anchor="middle" x="207.12" y="-116.5" font-family="Helvetica,sans-Serif" font-size="10.00">src/utest/Utst_sort.C</text>
</a>
</g>
</g>
<!-- Node2 -->
<g id="node2" class="node">
<title>Node2</title>
<g id="a_node2"><a xlink:href="Ioss__Sort_8h.html" target="_top" xlink:title=" ">
<polygon fill="white" stroke="black" points="22.83,-55.5 22.83,-73.5 89.41,-73.5 89.41,-55.5 22.83,-55.5"/>
<text text-anchor="middle" x="56.12" y="-61.5" font-family="Helvetica,sans-Serif" font-size="10.00">Ioss_Sort.h</text>
</a>
</g>
</g>
<!-- Node1&#45;&gt;Node2 -->
<g id="edge1" class="edge">
<title>Node1&#45;&gt;Node2</title>
<path fill="none" stroke="midnightblue" d="M184.19,-110.45C158.8,-101.54 117.67,-87.1 88.89,-77"/>
<polygon fill="midnightblue" stroke="midnightblue" points="89.86,-73.63 79.27,-73.63 87.55,-80.24 89.86,-73.63"/>
</g>
<!-- Node5 -->
<g id="node5" class="node">
<title>Node5</title>
<g id="a_node5"><a xlink:title=" ">
<polygon fill="white" stroke="#bfbfbf" points="107.56,-55.5 107.56,-73.5 164.68,-73.5 164.68,-55.5 107.56,-55.5"/>
<text text-anchor="middle" x="136.12" y="-61.5" font-family="Helvetica,sans-Serif" font-size="10.00">algorithm</text>
</a>
</g>
</g>
<!-- Node1&#45;&gt;Node5 -->
<g id="edge4" class="edge">
<title>Node1&#45;&gt;Node5</title>
<path fill="none" stroke="midnightblue" d="M196.34,-110.45C185.49,-102.36 168.55,-89.7 155.39,-79.88"/>
<polygon fill="midnightblue" stroke="midnightblue" points="157.11,-76.8 147.01,-73.63 152.93,-82.41 157.11,-76.8"/>
</g>
<!-- Node6 -->
<g id="node6" class="node">
<title>Node6</title>
<g id="a_node6"><a xlink:title=" ">
<polygon fill="white" stroke="#bfbfbf" points="183,-55.5 183,-73.5 231.24,-73.5 231.24,-55.5 183,-55.5"/>
<text text-anchor="middle" x="207.12" y="-61.5" font-family="Helvetica,sans-Serif" font-size="10.00">cassert</text>
</a>
</g>
</g>
<!-- Node1&#45;&gt;Node6 -->
<g id="edge5" class="edge">
<title>Node1&#45;&gt;Node6</title>
<path fill="none" stroke="midnightblue" d="M207.12,-110.22C207.12,-103.18 207.12,-92.81 207.12,-83.83"/>
<polygon fill="midnightblue" stroke="midnightblue" points="210.62,-83.55 207.12,-73.55 203.62,-83.55 210.62,-83.55"/>
</g>
<!-- Node7 -->
<g id="node7" class="node">
<title>Node7</title>
<g id="a_node7"><a xlink:title=" ">
<polygon fill="white" stroke="#bfbfbf" points="248.95,-55.5 248.95,-73.5 303.29,-73.5 303.29,-55.5 248.95,-55.5"/>
<text text-anchor="middle" x="276.12" y="-61.5" font-family="Helvetica,sans-Serif" font-size="10.00">iostream</text>
</a>
</g>
</g>
<!-- Node1&#45;&gt;Node7 -->
<g id="edge6" class="edge">
<title>Node1&#45;&gt;Node7</title>
<path fill="none" stroke="midnightblue" d="M217.6,-110.45C228.14,-102.36 244.61,-89.7 257.4,-79.88"/>
<polygon fill="midnightblue" stroke="midnightblue" points="259.74,-82.49 265.54,-73.63 255.48,-76.94 259.74,-82.49"/>
</g>
<!-- Node8 -->
<g id="node8" class="node">
<title>Node8</title>
<g id="a_node8"><a xlink:title=" ">
<polygon fill="white" stroke="#bfbfbf" points="321.17,-55.5 321.17,-73.5 371.07,-73.5 371.07,-55.5 321.17,-55.5"/>
<text text-anchor="middle" x="346.12" y="-61.5" font-family="Helvetica,sans-Serif" font-size="10.00">random</text>
</a>
</g>
</g>
<!-- Node1&#45;&gt;Node8 -->
<g id="edge7" class="edge">
<title>Node1&#45;&gt;Node8</title>
<path fill="none" stroke="midnightblue" d="M228.23,-110.45C251.4,-101.62 288.8,-87.35 315.26,-77.27"/>
<polygon fill="midnightblue" stroke="midnightblue" points="316.71,-80.46 324.81,-73.63 314.22,-73.92 316.71,-80.46"/>
</g>
<!-- Node3 -->
<g id="node3" class="node">
<title>Node3</title>
<g id="a_node3"><a xlink:title=" ">
<polygon fill="white" stroke="#bfbfbf" points="0,-0.5 0,-18.5 48.24,-18.5 48.24,-0.5 0,-0.5"/>
<text text-anchor="middle" x="24.12" y="-6.5" font-family="Helvetica,sans-Serif" font-size="10.00">cstddef</text>
</a>
</g>
</g>
<!-- Node2&#45;&gt;Node3 -->
<g id="edge2" class="edge">
<title>Node2&#45;&gt;Node3</title>
<path fill="none" stroke="midnightblue" d="M51.12,-55.22C46.63,-47.79 39.91,-36.65 34.29,-27.34"/>
<polygon fill="midnightblue" stroke="midnightblue" points="37.15,-25.3 28.98,-18.55 31.15,-28.92 37.15,-25.3"/>
</g>
<!-- Node4 -->
<g id="node4" class="node">
<title>Node4</title>
<g id="a_node4"><a xlink:title=" ">
<polygon fill="white" stroke="#bfbfbf" points="66.5,-0.5 66.5,-18.5 109.74,-18.5 109.74,-0.5 66.5,-0.5"/>
<text text-anchor="middle" x="88.12" y="-6.5" font-family="Helvetica,sans-Serif" font-size="10.00">vector</text>
</a>
</g>
</g>
<!-- Node2&#45;&gt;Node4 -->
<g id="edge3" class="edge">
<title>Node2&#45;&gt;Node4</title>
<path fill="none" stroke="midnightblue" d="M61.12,-55.22C65.61,-47.79 72.33,-36.65 77.95,-27.34"/>
<polygon fill="midnightblue" stroke="midnightblue" points="81.09,-28.92 83.26,-18.55 75.1,-25.3 81.09,-28.92"/>
</g>
</g>
</svg>
