<?xml version="1.0" encoding="UTF-8" standalone="no"?>
<!DOCTYPE svg PUBLIC "-//W3C//DTD SVG 1.1//EN"
 "http://www.w3.org/Graphics/SVG/1.1/DTD/svg11.dtd">
<!-- Generated by graphviz version 2.44.1 (20200629.0846)
 -->
<!-- Title: src/utest/Utst_utils.C Pages: 1 -->
<svg width="986pt" height="252pt"
 viewBox="0.00 0.00 986.00 252.00" xmlns="http://www.w3.org/2000/svg" xmlns:xlink="http://www.w3.org/1999/xlink">
<g id="graph0" class="graph" transform="scale(1 1) rotate(0) translate(4 248)">
<title>src/utest/Utst_utils.C</title>
<polygon fill="white" stroke="transparent" points="-4,4 -4,-248 982,-248 982,4 -4,4"/>
<!-- Node1 -->
<g id="node1" class="node">
<title>Node1</title>
<g id="a_node1"><a xlink:title=" ">
<polygon fill="#bfbfbf" stroke="black" points="520.5,-224.5 520.5,-243.5 630.5,-243.5 630.5,-224.5 520.5,-224.5"/>
<text text-anchor="middle" x="575.5" y="-231.5" font-family="Helvetica,sans-Serif" font-size="10.00">src/utest/Utst_utils.C</text>
</a>
</g>
</g>
<!-- Node2 -->
<g id="node2" class="node">
<title>Node2</title>
<g id="a_node2"><a xlink:title=" ">
<polygon fill="white" stroke="#bfbfbf" points="425,-168.5 425,-187.5 484,-187.5 484,-168.5 425,-168.5"/>
<text text-anchor="middle" x="454.5" y="-175.5" font-family="Helvetica,sans-Serif" font-size="10.00">catch.hpp</text>
</a>
</g>
</g>
<!-- Node1&#45;&gt;Node2 -->
<g id="edge1" class="edge">
<title>Node1&#45;&gt;Node2</title>
<path fill="none" stroke="midnightblue" d="M556.33,-224.44C536.59,-215.64 505.61,-201.81 483.01,-191.72"/>
<polygon fill="midnightblue" stroke="midnightblue" points="484.14,-188.4 473.58,-187.52 481.29,-194.79 484.14,-188.4"/>
</g>
<!-- Node3 -->
<g id="node3" class="node">
<title>Node3</title>
<g id="a_node3"><a xlink:href="Ioss__Utils_8h.html" target="_top" xlink:title=" ">
<polygon fill="white" stroke="black" points="541,-168.5 541,-187.5 610,-187.5 610,-168.5 541,-168.5"/>
<text text-anchor="middle" x="575.5" y="-175.5" font-family="Helvetica,sans-Serif" font-size="10.00">Ioss_Utils.h</text>
</a>
</g>
</g>
<!-- Node1&#45;&gt;Node3 -->
<g id="edge2" class="edge">
<title>Node1&#45;&gt;Node3</title>
<path fill="none" stroke="midnightblue" d="M575.5,-224.08C575.5,-217.01 575.5,-206.86 575.5,-197.99"/>
<polygon fill="midnightblue" stroke="midnightblue" points="579,-197.75 575.5,-187.75 572,-197.75 579,-197.75"/>
</g>
<!-- Node9 -->
<g id="node9" class="node">
<title>Node9</title>
<g id="a_node9"><a xlink:title=" ">
<polygon fill="white" stroke="#bfbfbf" points="452.5,-0.5 452.5,-19.5 496.5,-19.5 496.5,-0.5 452.5,-0.5"/>
<text text-anchor="middle" x="474.5" y="-7.5" font-family="Helvetica,sans-Serif" font-size="10.00">vector</text>
</a>
</g>
</g>
<!-- Node1&#45;&gt;Node9 -->
<g id="edge32" class="edge">
<title>Node1&#45;&gt;Node9</title>
<path fill="none" stroke="midnightblue" d="M564.63,-224.45C554.72,-216.11 540.31,-202.59 531.5,-188 499.87,-135.58 483.82,-63.69 477.63,-29.95"/>
<polygon fill="midnightblue" stroke="midnightblue" points="481.01,-28.94 475.84,-19.7 474.11,-30.15 481.01,-28.94"/>
</g>
<!-- Node20 -->
<g id="node20" class="node">
<title>Node20</title>
<g id="a_node20"><a xlink:title=" ">
<polygon fill="white" stroke="#bfbfbf" points="628,-168.5 628,-187.5 687,-187.5 687,-168.5 628,-168.5"/>
<text text-anchor="middle" x="657.5" y="-175.5" font-family="Helvetica,sans-Serif" font-size="10.00">exception</text>
</a>
</g>
</g>
<!-- Node1&#45;&gt;Node20 -->
<g id="edge30" class="edge">
<title>Node1&#45;&gt;Node20</title>
<path fill="none" stroke="midnightblue" d="M588.67,-224.32C601.35,-215.98 620.73,-203.21 635.71,-193.35"/>
<polygon fill="midnightblue" stroke="midnightblue" points="637.93,-196.08 644.36,-187.65 634.08,-190.23 637.93,-196.08"/>
</g>
<!-- Node21 -->
<g id="node21" class="node">
<title>Node21</title>
<g id="a_node21"><a xlink:title=" ">
<polygon fill="white" stroke="#bfbfbf" points="705,-168.5 705,-187.5 756,-187.5 756,-168.5 705,-168.5"/>
<text text-anchor="middle" x="730.5" y="-175.5" font-family="Helvetica,sans-Serif" font-size="10.00">numeric</text>
</a>
</g>
</g>
<!-- Node1&#45;&gt;Node21 -->
<g id="edge31" class="edge">
<title>Node1&#45;&gt;Node21</title>
<path fill="none" stroke="midnightblue" d="M600.06,-224.44C626.02,-215.4 667.17,-201.06 696.3,-190.92"/>
<polygon fill="midnightblue" stroke="midnightblue" points="697.76,-194.11 706.05,-187.52 695.46,-187.5 697.76,-194.11"/>
</g>
<!-- Node4 -->
<g id="node4" class="node">
<title>Node4</title>
<g id="a_node4"><a xlink:href="Ioss__CodeTypes_8h.html" target="_top" xlink:title=" ">
<polygon fill="white" stroke="black" points="132.5,-56.5 132.5,-75.5 230.5,-75.5 230.5,-56.5 132.5,-56.5"/>
<text text-anchor="middle" x="181.5" y="-63.5" font-family="Helvetica,sans-Serif" font-size="10.00">Ioss_CodeTypes.h</text>
</a>
</g>
</g>
<!-- Node3&#45;&gt;Node4 -->
<g id="edge3" class="edge">
<title>Node3&#45;&gt;Node4</title>
<path fill="none" stroke="midnightblue" d="M540.67,-173.16C447.21,-162.81 197.68,-134.94 194.5,-132 181.97,-120.43 179.59,-100.47 179.81,-85.71"/>
<polygon fill="midnightblue" stroke="midnightblue" points="183.31,-85.84 180.36,-75.67 176.32,-85.46 183.31,-85.84"/>
</g>
<!-- Node6 -->
<g id="node6" class="node">
<title>Node6</title>
<g id="a_node6"><a xlink:title=" ">
<polygon fill="white" stroke="#bfbfbf" points="0,-0.5 0,-19.5 49,-19.5 49,-0.5 0,-0.5"/>
<text text-anchor="middle" x="24.5" y="-7.5" font-family="Helvetica,sans-Serif" font-size="10.00">cstddef</text>
</a>
</g>
</g>
<!-- Node3&#45;&gt;Node6 -->
<g id="edge23" class="edge">
<title>Node3&#45;&gt;Node6</title>
<path fill="none" stroke="midnightblue" d="M540.79,-173.15C445.01,-162.53 183.78,-133.45 179.5,-132 133.82,-116.48 124.15,-106.17 86.5,-76 68.16,-61.3 49.92,-41.38 38.03,-27.48"/>
<polygon fill="midnightblue" stroke="midnightblue" points="40.61,-25.11 31.49,-19.7 35.25,-29.61 40.61,-25.11"/>
</g>
<!-- Node7 -->
<g id="node7" class="node">
<title>Node7</title>
<g id="a_node7"><a xlink:title=" ">
<polygon fill="white" stroke="#bfbfbf" points="388.5,-0.5 388.5,-19.5 434.5,-19.5 434.5,-0.5 388.5,-0.5"/>
<text text-anchor="middle" x="411.5" y="-7.5" font-family="Helvetica,sans-Serif" font-size="10.00">cstdint</text>
</a>
</g>
</g>
<!-- Node3&#45;&gt;Node7 -->
<g id="edge24" class="edge">
<title>Node3&#45;&gt;Node7</title>
<path fill="none" stroke="midnightblue" d="M566.68,-168.08C540.2,-141.27 461.09,-61.19 427.19,-26.89"/>
<polygon fill="midnightblue" stroke="midnightblue" points="429.48,-24.22 419.96,-19.57 424.5,-29.14 429.48,-24.22"/>
</g>
<!-- Node8 -->
<g id="node8" class="node">
<title>Node8</title>
<g id="a_node8"><a xlink:title=" ">
<polygon fill="white" stroke="#bfbfbf" points="329,-0.5 329,-19.5 370,-19.5 370,-0.5 329,-0.5"/>
<text text-anchor="middle" x="349.5" y="-7.5" font-family="Helvetica,sans-Serif" font-size="10.00">string</text>
</a>
</g>
</g>
<!-- Node3&#45;&gt;Node8 -->
<g id="edge28" class="edge">
<title>Node3&#45;&gt;Node8</title>
<path fill="none" stroke="midnightblue" d="M540.75,-172.18C503.55,-166.15 443.42,-153.85 395.5,-132 356.01,-113.99 335.54,-114.5 315.5,-76 306.83,-59.35 319.42,-40.32 331.66,-27.18"/>
<polygon fill="midnightblue" stroke="midnightblue" points="334.42,-29.36 339.04,-19.83 329.48,-24.4 334.42,-29.36"/>
</g>
<!-- Node3&#45;&gt;Node9 -->
<g id="edge29" class="edge">
<title>Node3&#45;&gt;Node9</title>
<path fill="none" stroke="midnightblue" d="M573.51,-168.4C568.4,-147.58 553.27,-93.42 526.5,-56 518.14,-44.32 506.15,-33.68 495.79,-25.68"/>
<polygon fill="midnightblue" stroke="midnightblue" points="497.71,-22.75 487.59,-19.62 493.55,-28.38 497.71,-22.75"/>
</g>
<!-- Node12 -->
<g id="node12" class="node">
<title>Node12</title>
<g id="a_node12"><a xlink:href="Ioss__Field_8h.html" target="_top" xlink:title=" ">
<polygon fill="white" stroke="black" points="203.5,-112.5 203.5,-131.5 273.5,-131.5 273.5,-112.5 203.5,-112.5"/>
<text text-anchor="middle" x="238.5" y="-119.5" font-family="Helvetica,sans-Serif" font-size="10.00">Ioss_Field.h</text>
</a>
</g>
</g>
<!-- Node3&#45;&gt;Node12 -->
<g id="edge11" class="edge">
<title>Node3&#45;&gt;Node12</title>
<path fill="none" stroke="midnightblue" d="M540.87,-171.89C486.74,-163.84 378.8,-147.51 287.5,-132 286.23,-131.78 284.94,-131.56 283.64,-131.34"/>
<polygon fill="midnightblue" stroke="midnightblue" points="284,-127.85 273.54,-129.55 282.78,-134.74 284,-127.85"/>
</g>
<!-- Node13 -->
<g id="node13" class="node">
<title>Node13</title>
<g id="a_node13"><a xlink:href="Ioss__Property_8h.html" target="_top" xlink:title=" ">
<polygon fill="white" stroke="black" points="324.5,-56.5 324.5,-75.5 408.5,-75.5 408.5,-56.5 324.5,-56.5"/>
<text text-anchor="middle" x="366.5" y="-63.5" font-family="Helvetica,sans-Serif" font-size="10.00">Ioss_Property.h</text>
</a>
</g>
</g>
<!-- Node3&#45;&gt;Node13 -->
<g id="edge16" class="edge">
<title>Node3&#45;&gt;Node13</title>
<path fill="none" stroke="midnightblue" d="M540.94,-172.59C508.3,-167.15 459.03,-155.56 422.5,-132 403.4,-119.68 387.18,-98.96 377.18,-84.22"/>
<polygon fill="midnightblue" stroke="midnightblue" points="379.93,-82.03 371.55,-75.55 374.06,-85.85 379.93,-82.03"/>
</g>
<!-- Node14 -->
<g id="node14" class="node">
<title>Node14</title>
<g id="a_node14"><a xlink:title=" ">
<polygon fill="white" stroke="#bfbfbf" points="578.5,-112.5 578.5,-131.5 634.5,-131.5 634.5,-112.5 578.5,-112.5"/>
<text text-anchor="middle" x="606.5" y="-119.5" font-family="Helvetica,sans-Serif" font-size="10.00">algorithm</text>
</a>
</g>
</g>
<!-- Node3&#45;&gt;Node14 -->
<g id="edge20" class="edge">
<title>Node3&#45;&gt;Node14</title>
<path fill="none" stroke="midnightblue" d="M580.62,-168.08C584.91,-160.61 591.16,-149.72 596.44,-140.52"/>
<polygon fill="midnightblue" stroke="midnightblue" points="599.53,-142.17 601.48,-131.75 593.46,-138.68 599.53,-142.17"/>
</g>
<!-- Node15 -->
<g id="node15" class="node">
<title>Node15</title>
<g id="a_node15"><a xlink:title=" ">
<polygon fill="white" stroke="#bfbfbf" points="653,-112.5 653,-131.5 702,-131.5 702,-112.5 653,-112.5"/>
<text text-anchor="middle" x="677.5" y="-119.5" font-family="Helvetica,sans-Serif" font-size="10.00">cassert</text>
</a>
</g>
</g>
<!-- Node3&#45;&gt;Node15 -->
<g id="edge21" class="edge">
<title>Node3&#45;&gt;Node15</title>
<path fill="none" stroke="midnightblue" d="M591.89,-168.32C608.17,-159.7 633.37,-146.36 652.22,-136.39"/>
<polygon fill="midnightblue" stroke="midnightblue" points="653.95,-139.43 661.15,-131.65 650.68,-133.24 653.95,-139.43"/>
</g>
<!-- Node16 -->
<g id="node16" class="node">
<title>Node16</title>
<g id="a_node16"><a xlink:title=" ">
<polygon fill="white" stroke="#bfbfbf" points="720.5,-112.5 720.5,-131.5 764.5,-131.5 764.5,-112.5 720.5,-112.5"/>
<text text-anchor="middle" x="742.5" y="-119.5" font-family="Helvetica,sans-Serif" font-size="10.00">cmath</text>
</a>
</g>
</g>
<!-- Node3&#45;&gt;Node16 -->
<g id="edge22" class="edge">
<title>Node3&#45;&gt;Node16</title>
<path fill="none" stroke="midnightblue" d="M601.96,-168.44C631.51,-158.89 679.3,-143.44 710.81,-133.25"/>
<polygon fill="midnightblue" stroke="midnightblue" points="711.99,-136.54 720.43,-130.14 709.84,-129.88 711.99,-136.54"/>
</g>
<!-- Node17 -->
<g id="node17" class="node">
<title>Node17</title>
<g id="a_node17"><a xlink:title=" ">
<polygon fill="white" stroke="#bfbfbf" points="783,-112.5 783,-131.5 828,-131.5 828,-112.5 783,-112.5"/>
<text text-anchor="middle" x="805.5" y="-119.5" font-family="Helvetica,sans-Serif" font-size="10.00">cstdlib</text>
</a>
</g>
</g>
<!-- Node3&#45;&gt;Node17 -->
<g id="edge25" class="edge">
<title>Node3&#45;&gt;Node17</title>
<path fill="none" stroke="midnightblue" d="M610.32,-169.65C648.03,-161.56 710.17,-147.87 773.12,-132"/>
<polygon fill="midnightblue" stroke="midnightblue" points="773.98,-135.39 782.81,-129.53 772.26,-128.6 773.98,-135.39"/>
</g>
<!-- Node18 -->
<g id="node18" class="node">
<title>Node18</title>
<g id="a_node18"><a xlink:title=" ">
<polygon fill="white" stroke="#bfbfbf" points="846.5,-112.5 846.5,-131.5 900.5,-131.5 900.5,-112.5 846.5,-112.5"/>
<text text-anchor="middle" x="873.5" y="-119.5" font-family="Helvetica,sans-Serif" font-size="10.00">iostream</text>
</a>
</g>
</g>
<!-- Node3&#45;&gt;Node18 -->
<g id="edge26" class="edge">
<title>Node3&#45;&gt;Node18</title>
<path fill="none" stroke="midnightblue" d="M610.06,-169.8C613.25,-169.18 616.43,-168.57 619.5,-168 712.95,-150.73 739.64,-151.83 836.51,-132.06"/>
<polygon fill="midnightblue" stroke="midnightblue" points="837.34,-135.47 846.43,-130.02 835.93,-128.61 837.34,-135.47"/>
</g>
<!-- Node19 -->
<g id="node19" class="node">
<title>Node19</title>
<g id="a_node19"><a xlink:title=" ">
<polygon fill="white" stroke="#bfbfbf" points="919,-112.5 919,-131.5 978,-131.5 978,-112.5 919,-112.5"/>
<text text-anchor="middle" x="948.5" y="-119.5" font-family="Helvetica,sans-Serif" font-size="10.00">stdexcept</text>
</a>
</g>
</g>
<!-- Node3&#45;&gt;Node19 -->
<g id="edge27" class="edge">
<title>Node3&#45;&gt;Node19</title>
<path fill="none" stroke="midnightblue" d="M610.04,-169.67C613.23,-169.07 616.42,-168.5 619.5,-168 744.54,-147.48 779.9,-154.28 908.89,-131.93"/>
<polygon fill="midnightblue" stroke="midnightblue" points="909.51,-135.38 918.75,-130.2 908.3,-128.48 909.51,-135.38"/>
</g>
<!-- Node5 -->
<g id="node5" class="node">
<title>Node5</title>
<g id="a_node5"><a xlink:title=" ">
<polygon fill="white" stroke="#bfbfbf" points="67.5,-0.5 67.5,-19.5 105.5,-19.5 105.5,-0.5 67.5,-0.5"/>
<text text-anchor="middle" x="86.5" y="-7.5" font-family="Helvetica,sans-Serif" font-size="10.00">array</text>
</a>
</g>
</g>
<!-- Node4&#45;&gt;Node5 -->
<g id="edge4" class="edge">
<title>Node4&#45;&gt;Node5</title>
<path fill="none" stroke="midnightblue" d="M166.24,-56.32C151.28,-47.82 128.25,-34.73 110.77,-24.8"/>
<polygon fill="midnightblue" stroke="midnightblue" points="112.15,-21.55 101.73,-19.65 108.69,-27.64 112.15,-21.55"/>
</g>
<!-- Node4&#45;&gt;Node6 -->
<g id="edge5" class="edge">
<title>Node4&#45;&gt;Node6</title>
<path fill="none" stroke="midnightblue" d="M156.62,-56.44C130.13,-47.33 88.04,-32.85 58.5,-22.69"/>
<polygon fill="midnightblue" stroke="midnightblue" points="59.6,-19.37 49,-19.43 57.32,-25.99 59.6,-19.37"/>
</g>
<!-- Node4&#45;&gt;Node7 -->
<g id="edge6" class="edge">
<title>Node4&#45;&gt;Node7</title>
<path fill="none" stroke="midnightblue" d="M221.24,-56.43C261.11,-47.72 324.22,-33.59 378.5,-20 378.6,-19.97 378.7,-19.95 378.8,-19.92"/>
<polygon fill="midnightblue" stroke="midnightblue" points="379.65,-23.32 388.45,-17.42 377.89,-16.54 379.65,-23.32"/>
</g>
<!-- Node4&#45;&gt;Node8 -->
<g id="edge7" class="edge">
<title>Node4&#45;&gt;Node8</title>
<path fill="none" stroke="midnightblue" d="M208.12,-56.44C238.34,-46.73 287.55,-30.91 319.21,-20.74"/>
<polygon fill="midnightblue" stroke="midnightblue" points="320.38,-24.04 328.83,-17.64 318.24,-17.37 320.38,-24.04"/>
</g>
<!-- Node4&#45;&gt;Node9 -->
<g id="edge8" class="edge">
<title>Node4&#45;&gt;Node9</title>
<path fill="none" stroke="midnightblue" d="M230.6,-58.25C281.32,-50.91 362.93,-38.04 442.09,-20.12"/>
<polygon fill="midnightblue" stroke="midnightblue" points="443.26,-23.44 452.23,-17.79 441.7,-16.62 443.26,-23.44"/>
</g>
<!-- Node10 -->
<g id="node10" class="node">
<title>Node10</title>
<g id="a_node10"><a xlink:title=" ">
<polygon fill="white" stroke="#bfbfbf" points="123.5,-0.5 123.5,-19.5 239.5,-19.5 239.5,-0.5 123.5,-0.5"/>
<text text-anchor="middle" x="181.5" y="-7.5" font-family="Helvetica,sans-Serif" font-size="10.00">SEACASIoss_config.h</text>
</a>
</g>
</g>
<!-- Node4&#45;&gt;Node10 -->
<g id="edge9" class="edge">
<title>Node4&#45;&gt;Node10</title>
<path fill="none" stroke="midnightblue" d="M181.5,-56.08C181.5,-49.01 181.5,-38.86 181.5,-29.99"/>
<polygon fill="midnightblue" stroke="midnightblue" points="185,-29.75 181.5,-19.75 178,-29.75 185,-29.75"/>
</g>
<!-- Node11 -->
<g id="node11" class="node">
<title>Node11</title>
<g id="a_node11"><a xlink:title=" ">
<polygon fill="white" stroke="#bfbfbf" points="258,-0.5 258,-19.5 311,-19.5 311,-0.5 258,-0.5"/>
<text text-anchor="middle" x="284.5" y="-7.5" font-family="Helvetica,sans-Serif" font-size="10.00">complex</text>
</a>
</g>
</g>
<!-- Node4&#45;&gt;Node11 -->
<g id="edge10" class="edge">
<title>Node4&#45;&gt;Node11</title>
<path fill="none" stroke="midnightblue" d="M198.05,-56.32C214.49,-47.7 239.93,-34.36 258.97,-24.39"/>
<polygon fill="midnightblue" stroke="midnightblue" points="260.76,-27.4 267.99,-19.65 257.51,-21.2 260.76,-27.4"/>
</g>
<!-- Node12&#45;&gt;Node4 -->
<g id="edge12" class="edge">
<title>Node12&#45;&gt;Node4</title>
<path fill="none" stroke="midnightblue" d="M229.34,-112.32C221,-104.42 208.47,-92.55 198.32,-82.94"/>
<polygon fill="midnightblue" stroke="midnightblue" points="200.49,-80.17 190.82,-75.83 195.68,-85.25 200.49,-80.17"/>
</g>
<!-- Node12&#45;&gt;Node6 -->
<g id="edge13" class="edge">
<title>Node12&#45;&gt;Node6</title>
<path fill="none" stroke="midnightblue" d="M212.25,-112.48C188.49,-104.36 152.83,-91.16 123.5,-76 94.51,-61.02 63.42,-39.63 43.97,-25.54"/>
<polygon fill="midnightblue" stroke="midnightblue" points="46.04,-22.72 35.9,-19.63 41.9,-28.36 46.04,-22.72"/>
</g>
<!-- Node12&#45;&gt;Node8 -->
<g id="edge14" class="edge">
<title>Node12&#45;&gt;Node8</title>
<path fill="none" stroke="midnightblue" d="M243,-112.23C250.1,-98.97 264.93,-73.51 282.5,-56 294.84,-43.71 310.99,-32.74 324.35,-24.71"/>
<polygon fill="midnightblue" stroke="midnightblue" points="326.18,-27.7 333.06,-19.64 322.66,-21.64 326.18,-27.7"/>
</g>
<!-- Node12&#45;&gt;Node9 -->
<g id="edge15" class="edge">
<title>Node12&#45;&gt;Node9</title>
<path fill="none" stroke="midnightblue" d="M273.52,-118.4C311.44,-114.23 372.52,-103.49 417.5,-76 437.04,-64.06 453.54,-43.26 463.68,-28.41"/>
<polygon fill="midnightblue" stroke="midnightblue" points="466.85,-29.94 469.39,-19.66 460.99,-26.12 466.85,-29.94"/>
</g>
<!-- Node13&#45;&gt;Node7 -->
<g id="edge17" class="edge">
<title>Node13&#45;&gt;Node7</title>
<path fill="none" stroke="midnightblue" d="M373.93,-56.08C380.35,-48.38 389.81,-37.03 397.62,-27.65"/>
<polygon fill="midnightblue" stroke="midnightblue" points="400.49,-29.67 404.21,-19.75 395.12,-25.19 400.49,-29.67"/>
</g>
<!-- Node13&#45;&gt;Node8 -->
<g id="edge18" class="edge">
<title>Node13&#45;&gt;Node8</title>
<path fill="none" stroke="midnightblue" d="M363.69,-56.08C361.42,-48.85 358.13,-38.41 355.29,-29.4"/>
<polygon fill="midnightblue" stroke="midnightblue" points="358.6,-28.24 352.25,-19.75 351.92,-30.34 358.6,-28.24"/>
</g>
<!-- Node13&#45;&gt;Node9 -->
<g id="edge19" class="edge">
<title>Node13&#45;&gt;Node9</title>
<path fill="none" stroke="midnightblue" d="M383.85,-56.32C401.17,-47.66 428.02,-34.24 448,-24.25"/>
<polygon fill="midnightblue" stroke="midnightblue" points="449.81,-27.26 457.19,-19.65 446.68,-21 449.81,-27.26"/>
</g>
</g>
</svg>
