<?xml version="1.0" encoding="UTF-8" standalone="no"?>
<!DOCTYPE svg PUBLIC "-//W3C//DTD SVG 1.1//EN"
 "http://www.w3.org/Graphics/SVG/1.1/DTD/svg11.dtd">
<!-- Generated by graphviz version 2.44.1 (20200629.0846)
 -->
<!-- Title: src/utest/Utst_sort.C Pages: 1 -->
<svg width="380pt" height="140pt"
 viewBox="0.00 0.00 380.00 140.00" xmlns="http://www.w3.org/2000/svg" xmlns:xlink="http://www.w3.org/1999/xlink">
<g id="graph0" class="graph" transform="scale(1 1) rotate(0) translate(4 136)">
<title>src/utest/Utst_sort.C</title>
<polygon fill="white" stroke="transparent" points="-4,4 -4,-136 376,-136 376,4 -4,4"/>
<!-- Node1 -->
<g id="node1" class="node">
<title>Node1</title>
<g id="a_node1"><a xlink:title=" ">
<polygon fill="#bfbfbf" stroke="black" points="153,-112.5 153,-131.5 262,-131.5 262,-112.5 153,-112.5"/>
<text text-anchor="middle" x="207.5" y="-119.5" font-family="Helvetica,sans-Serif" font-size="10.00">src/utest/Utst_sort.C</text>
</a>
</g>
</g>
<!-- Node2 -->
<g id="node2" class="node">
<title>Node2</title>
<g id="a_node2"><a xlink:href="$Ioss__Sort_8h.html" xlink:title=" ">
<polygon fill="white" stroke="black" points="23,-56.5 23,-75.5 90,-75.5 90,-56.5 23,-56.5"/>
<text text-anchor="middle" x="56.5" y="-63.5" font-family="Helvetica,sans-Serif" font-size="10.00">Ioss_Sort.h</text>
</a>
</g>
</g>
<!-- Node1&#45;&gt;Node2 -->
<g id="edge1" class="edge">
<title>Node1&#45;&gt;Node2</title>
<path fill="none" stroke="midnightblue" d="M183.57,-112.44C158.28,-103.4 118.2,-89.06 89.82,-78.92"/>
<polygon fill="midnightblue" stroke="midnightblue" points="90.91,-75.59 80.31,-75.52 88.55,-82.18 90.91,-75.59"/>
</g>
<!-- Node5 -->
<g id="node5" class="node">
<title>Node5</title>
<g id="a_node5"><a xlink:title=" ">
<polygon fill="white" stroke="#bfbfbf" points="108.5,-56.5 108.5,-75.5 164.5,-75.5 164.5,-56.5 108.5,-56.5"/>
<text text-anchor="middle" x="136.5" y="-63.5" font-family="Helvetica,sans-Serif" font-size="10.00">algorithm</text>
</a>
</g>
</g>
<!-- Node1&#45;&gt;Node5 -->
<g id="edge4" class="edge">
<title>Node1&#45;&gt;Node5</title>
<path fill="none" stroke="midnightblue" d="M196.09,-112.32C185.39,-104.18 169.16,-91.84 156.34,-82.09"/>
<polygon fill="midnightblue" stroke="midnightblue" points="158.19,-79.1 148.11,-75.83 153.96,-84.67 158.19,-79.1"/>
</g>
<!-- Node6 -->
<g id="node6" class="node">
<title>Node6</title>
<g id="a_node6"><a xlink:title=" ">
<polygon fill="white" stroke="#bfbfbf" points="183,-56.5 183,-75.5 232,-75.5 232,-56.5 183,-56.5"/>
<text text-anchor="middle" x="207.5" y="-63.5" font-family="Helvetica,sans-Serif" font-size="10.00">cassert</text>
</a>
</g>
</g>
<!-- Node1&#45;&gt;Node6 -->
<g id="edge5" class="edge">
<title>Node1&#45;&gt;Node6</title>
<path fill="none" stroke="midnightblue" d="M207.5,-112.08C207.5,-105.01 207.5,-94.86 207.5,-85.99"/>
<polygon fill="midnightblue" stroke="midnightblue" points="211,-85.75 207.5,-75.75 204,-85.75 211,-85.75"/>
</g>
<!-- Node7 -->
<g id="node7" class="node">
<title>Node7</title>
<g id="a_node7"><a xlink:title=" ">
<polygon fill="white" stroke="#bfbfbf" points="250.5,-56.5 250.5,-75.5 304.5,-75.5 304.5,-56.5 250.5,-56.5"/>
<text text-anchor="middle" x="277.5" y="-63.5" font-family="Helvetica,sans-Serif" font-size="10.00">iostream</text>
</a>
</g>
</g>
<!-- Node1&#45;&gt;Node7 -->
<g id="edge6" class="edge">
<title>Node1&#45;&gt;Node7</title>
<path fill="none" stroke="midnightblue" d="M218.75,-112.32C229.3,-104.18 245.3,-91.84 257.94,-82.09"/>
<polygon fill="midnightblue" stroke="midnightblue" points="260.27,-84.71 266.05,-75.83 255.99,-79.17 260.27,-84.71"/>
</g>
<!-- Node8 -->
<g id="node8" class="node">
<title>Node8</title>
<g id="a_node8"><a xlink:title=" ">
<polygon fill="white" stroke="#bfbfbf" points="323,-56.5 323,-75.5 372,-75.5 372,-56.5 323,-56.5"/>
<text text-anchor="middle" x="347.5" y="-63.5" font-family="Helvetica,sans-Serif" font-size="10.00">random</text>
</a>
</g>
</g>
<!-- Node1&#45;&gt;Node8 -->
<g id="edge7" class="edge">
<title>Node1&#45;&gt;Node8</title>
<path fill="none" stroke="midnightblue" d="M229.68,-112.44C252.93,-103.48 289.65,-89.31 315.92,-79.18"/>
<polygon fill="midnightblue" stroke="midnightblue" points="317.35,-82.38 325.42,-75.52 314.83,-75.85 317.35,-82.38"/>
</g>
<!-- Node3 -->
<g id="node3" class="node">
<title>Node3</title>
<g id="a_node3"><a xlink:title=" ">
<polygon fill="white" stroke="#bfbfbf" points="0,-0.5 0,-19.5 49,-19.5 49,-0.5 0,-0.5"/>
<text text-anchor="middle" x="24.5" y="-7.5" font-family="Helvetica,sans-Serif" font-size="10.00">cstddef</text>
</a>
</g>
</g>
<!-- Node2&#45;&gt;Node3 -->
<g id="edge2" class="edge">
<title>Node2&#45;&gt;Node3</title>
<path fill="none" stroke="midnightblue" d="M51.22,-56.08C46.79,-48.61 40.34,-37.72 34.88,-28.52"/>
<polygon fill="midnightblue" stroke="midnightblue" points="37.79,-26.57 29.69,-19.75 31.77,-30.14 37.79,-26.57"/>
</g>
<!-- Node4 -->
<g id="node4" class="node">
<title>Node4</title>
<g id="a_node4"><a xlink:title=" ">
<polygon fill="white" stroke="#bfbfbf" points="67.5,-0.5 67.5,-19.5 111.5,-19.5 111.5,-0.5 67.5,-0.5"/>
<text text-anchor="middle" x="89.5" y="-7.5" font-family="Helvetica,sans-Serif" font-size="10.00">vector</text>
</a>
</g>
</g>
<!-- Node2&#45;&gt;Node4 -->
<g id="edge3" class="edge">
<title>Node2&#45;&gt;Node4</title>
<path fill="none" stroke="midnightblue" d="M61.95,-56.08C66.51,-48.61 73.17,-37.72 78.79,-28.52"/>
<polygon fill="midnightblue" stroke="midnightblue" points="81.92,-30.11 84.15,-19.75 75.95,-26.46 81.92,-30.11"/>
</g>
</g>
</svg>
