<?xml version="1.0" encoding="UTF-8" standalone="no"?>
<!DOCTYPE svg PUBLIC "-//W3C//DTD SVG 1.1//EN"
 "http://www.w3.org/Graphics/SVG/1.1/DTD/svg11.dtd">
<!-- Generated by graphviz version 2.40.1 (20161225.0304)
 -->
<!-- Title: test_aliases Pages: 1 -->
<svg width="703pt" height="178pt"
 viewBox="0.00 0.00 702.81 178.00" xmlns="http://www.w3.org/2000/svg" xmlns:xlink="http://www.w3.org/1999/xlink">
<g id="graph0" class="graph" transform="scale(1 1) rotate(0) translate(4 174)">
<title>test_aliases</title>
<polygon fill="#ffffff" stroke="transparent" points="-4,4 -4,-174 698.8105,-174 698.8105,4 -4,4"/>
<!-- Node43 -->
<g id="node1" class="node">
<title>Node43</title>
<polygon fill="#bfbfbf" stroke="#000000" points="0,-75.5 0,-93.5 68.8076,-93.5 68.8076,-75.5 0,-75.5"/>
<text text-anchor="middle" x="34.4038" y="-81.5" font-family="Helvetica,sans-Serif" font-size="10.00" fill="#000000">test_aliases</text>
</g>
<!-- Node44 -->
<g id="node2" class="node">
<title>Node44</title>
<g id="a_node2"><a xlink:href="$classIoss_1_1ElementTopology.html#a30988fc57eeb0274470f1f8622dd0322" xlink:title="Ioss::ElementTopology\l::factory">
<polygon fill="#ffffff" stroke="#000000" points="108.4185,-141.5 108.4185,-169.5 225.0288,-169.5 225.0288,-141.5 108.4185,-141.5"/>
<text text-anchor="start" x="116.4185" y="-157.5" font-family="Helvetica,sans-Serif" font-size="10.00" fill="#000000">Ioss::ElementTopology</text>
<text text-anchor="middle" x="166.7236" y="-147.5" font-family="Helvetica,sans-Serif" font-size="10.00" fill="#000000">::factory</text>
</a>
</g>
</g>
<!-- Node43&#45;&gt;Node44 -->
<g id="edge1" class="edge">
<title>Node43&#45;&gt;Node44</title>
<path fill="none" stroke="#191970" d="M45.8154,-93.5711C59.3084,-103.983 82.7293,-121.0889 104.8076,-132.5 108.1088,-134.2062 111.5663,-135.849 115.0878,-137.4171"/>
<polygon fill="#191970" stroke="#191970" points="113.9209,-140.7235 124.495,-141.3857 116.6418,-134.2739 113.9209,-140.7235"/>
</g>
<!-- Node51 -->
<g id="node9" class="node">
<title>Node51</title>
<g id="a_node9"><a xlink:href="$classIoss_1_1ElementTopology.html#a65981470136fcfc0e884c7332a3ed2f5" xlink:title="Ioss::ElementTopology\l::name">
<polygon fill="#ffffff" stroke="#000000" points="108.4185,-94.5 108.4185,-122.5 225.0288,-122.5 225.0288,-94.5 108.4185,-94.5"/>
<text text-anchor="start" x="116.4185" y="-110.5" font-family="Helvetica,sans-Serif" font-size="10.00" fill="#000000">Ioss::ElementTopology</text>
<text text-anchor="middle" x="166.7236" y="-100.5" font-family="Helvetica,sans-Serif" font-size="10.00" fill="#000000">::name</text>
</a>
</g>
</g>
<!-- Node43&#45;&gt;Node51 -->
<g id="edge8" class="edge">
<title>Node43&#45;&gt;Node51</title>
<path fill="none" stroke="#191970" d="M68.8239,-90.7431C77.9924,-92.406 88.2267,-94.2623 98.5269,-96.1306"/>
<polygon fill="#191970" stroke="#191970" points="97.9257,-99.5786 108.3899,-97.9195 99.1751,-92.6909 97.9257,-99.5786"/>
</g>
<!-- Node52 -->
<g id="node10" class="node">
<title>Node52</title>
<g id="a_node10"><a xlink:href="$classIoss_1_1ElementTopology.html#a60ef4781a92ce294c657964e0b3adcfb" xlink:title="Ioss::ElementTopology\l::master_element_name">
<polygon fill="#ffffff" stroke="#000000" points="104.8076,-47.5 104.8076,-75.5 228.6396,-75.5 228.6396,-47.5 104.8076,-47.5"/>
<text text-anchor="start" x="112.8076" y="-63.5" font-family="Helvetica,sans-Serif" font-size="10.00" fill="#000000">Ioss::ElementTopology</text>
<text text-anchor="middle" x="166.7236" y="-53.5" font-family="Helvetica,sans-Serif" font-size="10.00" fill="#000000">::master_element_name</text>
</a>
</g>
</g>
<!-- Node43&#45;&gt;Node52 -->
<g id="edge9" class="edge">
<title>Node43&#45;&gt;Node52</title>
<path fill="none" stroke="#191970" d="M68.8239,-78.5171C76.9215,-77.1095 85.8506,-75.5575 94.9221,-73.9806"/>
<polygon fill="#191970" stroke="#191970" points="95.5362,-77.4265 104.789,-72.2656 94.3373,-70.5299 95.5362,-77.4265"/>
</g>
<!-- Node53 -->
<g id="node11" class="node">
<title>Node53</title>
<g id="a_node11"><a xlink:href="$classIoss_1_1ElementTopology.html#ab2e5e3bfc95bc38d16098a0f5f382782" xlink:title="Ioss::ElementTopology\l::is_alias">
<polygon fill="#ffffff" stroke="#000000" points="108.4185,-.5 108.4185,-28.5 225.0288,-28.5 225.0288,-.5 108.4185,-.5"/>
<text text-anchor="start" x="116.4185" y="-16.5" font-family="Helvetica,sans-Serif" font-size="10.00" fill="#000000">Ioss::ElementTopology</text>
<text text-anchor="middle" x="166.7236" y="-6.5" font-family="Helvetica,sans-Serif" font-size="10.00" fill="#000000">::is_alias</text>
</a>
</g>
</g>
<!-- Node43&#45;&gt;Node53 -->
<g id="edge10" class="edge">
<title>Node43&#45;&gt;Node53</title>
<path fill="none" stroke="#191970" d="M46.893,-75.1842C60.603,-65.2382 83.5055,-49.4353 104.8076,-38.5 108.8396,-36.4302 113.0933,-34.4302 117.4056,-32.5272"/>
<polygon fill="#191970" stroke="#191970" points="119.0261,-35.6422 126.8763,-28.5271 116.3024,-29.1938 119.0261,-35.6422"/>
</g>
<!-- Node45 -->
<g id="node3" class="node">
<title>Node45</title>
<g id="a_node3"><a xlink:href="$classIoss_1_1Utils.html#a48106bb99507951b4655783fe6ceb0f8" xlink:title="Convert a string to lower case. ">
<polygon fill="#ffffff" stroke="#000000" points="273.2651,-57.5 273.2651,-75.5 383.1812,-75.5 383.1812,-57.5 273.2651,-57.5"/>
<text text-anchor="middle" x="328.2231" y="-63.5" font-family="Helvetica,sans-Serif" font-size="10.00" fill="#000000">Ioss::Utils::lowercase</text>
</a>
</g>
</g>
<!-- Node44&#45;&gt;Node45 -->
<g id="edge2" class="edge">
<title>Node44&#45;&gt;Node45</title>
<path fill="none" stroke="#191970" d="M208.5859,-141.4462C215.4033,-138.7337 222.3026,-135.7229 228.6396,-132.5 257.8183,-117.6605 288.8697,-96.0325 308.394,-81.6268"/>
<polygon fill="#191970" stroke="#191970" points="310.5892,-84.3557 316.5054,-75.5665 306.3995,-78.748 310.5892,-84.3557"/>
</g>
<!-- Node50 -->
<g id="node8" class="node">
<title>Node50</title>
<g id="a_node8"><a xlink:href="$classIoss_1_1Super.html#a9b09de0d9163a986a914a3ad47b7a116" xlink:title="Ioss::Super::make_super">
<polygon fill="#ffffff" stroke="#000000" points="264.6396,-146.5 264.6396,-164.5 391.8066,-164.5 391.8066,-146.5 264.6396,-146.5"/>
<text text-anchor="middle" x="328.2231" y="-152.5" font-family="Helvetica,sans-Serif" font-size="10.00" fill="#000000">Ioss::Super::make_super</text>
</a>
</g>
</g>
<!-- Node44&#45;&gt;Node50 -->
<g id="edge7" class="edge">
<title>Node44&#45;&gt;Node50</title>
<path fill="none" stroke="#191970" d="M225.4855,-155.5C234.9236,-155.5 244.7956,-155.5 254.5297,-155.5"/>
<polygon fill="#191970" stroke="#191970" points="254.5999,-159.0001 264.5998,-155.5 254.5998,-152.0001 254.5999,-159.0001"/>
</g>
<!-- Node46 -->
<g id="node4" class="node">
<title>Node46</title>
<g id="a_node4"><a xlink:href="$namespaceanonymous__namespace_02io__info_8C_03.html#ac76aa36231a3291b803cc8e620fce319" xlink:title="anonymous_namespace\l\{io_info::C\}::name">
<polygon fill="#ffffff" stroke="#000000" points="427.8066,-76.5 427.8066,-104.5 552.7666,-104.5 552.7666,-76.5 427.8066,-76.5"/>
<text text-anchor="start" x="435.8066" y="-92.5" font-family="Helvetica,sans-Serif" font-size="10.00" fill="#000000">anonymous_namespace</text>
<text text-anchor="middle" x="490.2866" y="-82.5" font-family="Helvetica,sans-Serif" font-size="10.00" fill="#000000">{io_info::C}::name</text>
</a>
</g>
</g>
<!-- Node45&#45;&gt;Node46 -->
<g id="edge3" class="edge">
<title>Node45&#45;&gt;Node46</title>
<path fill="none" stroke="#191970" d="M383.5429,-74.6923C394.5357,-76.3202 406.2329,-78.0525 417.7018,-79.7509"/>
<polygon fill="#191970" stroke="#191970" points="417.2935,-83.2285 427.6984,-81.2313 418.319,-76.3041 417.2935,-83.2285"/>
</g>
<!-- Node49 -->
<g id="node7" class="node">
<title>Node49</title>
<g id="a_node7"><a xlink:href="$namespaceanonymous__namespace_02Ioss__Utils_8C_03.html#a0a31af75815b9ec3b66f27bbb6846ac8" xlink:title="anonymous_namespace\l\{Ioss_Utils::C\}::to_lower">
<polygon fill="#ffffff" stroke="#000000" points="427.8066,-29.5 427.8066,-57.5 552.7666,-57.5 552.7666,-29.5 427.8066,-29.5"/>
<text text-anchor="start" x="435.8066" y="-45.5" font-family="Helvetica,sans-Serif" font-size="10.00" fill="#000000">anonymous_namespace</text>
<text text-anchor="middle" x="490.2866" y="-35.5" font-family="Helvetica,sans-Serif" font-size="10.00" fill="#000000">{Ioss_Utils::C}::to_lower</text>
</a>
</g>
</g>
<!-- Node45&#45;&gt;Node49 -->
<g id="edge6" class="edge">
<title>Node45&#45;&gt;Node49</title>
<path fill="none" stroke="#191970" d="M383.5429,-58.649C394.5357,-57.0889 406.2329,-55.4289 417.7018,-53.8012"/>
<polygon fill="#191970" stroke="#191970" points="418.2894,-57.253 427.6984,-52.3825 417.3058,-50.3224 418.2894,-57.253"/>
</g>
<!-- Node47 -->
<g id="node5" class="node">
<title>Node47</title>
<g id="a_node5"><a xlink:href="$classIoss_1_1GroupingEntity.html#adf92c4256dc89b729f4492642bc4d745" xlink:title="Get the name of the particular type of entity. ">
<polygon fill="#ffffff" stroke="#000000" points="588.7666,-99.5 588.7666,-127.5 694.8105,-127.5 694.8105,-99.5 588.7666,-99.5"/>
<text text-anchor="start" x="596.7666" y="-115.5" font-family="Helvetica,sans-Serif" font-size="10.00" fill="#000000">Ioss::GroupingEntity</text>
<text text-anchor="middle" x="641.7886" y="-105.5" font-family="Helvetica,sans-Serif" font-size="10.00" fill="#000000">::type_string</text>
</a>
</g>
</g>
<!-- Node46&#45;&gt;Node47 -->
<g id="edge4" class="edge">
<title>Node46&#45;&gt;Node47</title>
<path fill="none" stroke="#191970" d="M552.783,-99.9878C561.3364,-101.2863 570.1225,-102.6201 578.6866,-103.9203"/>
<polygon fill="#191970" stroke="#191970" points="578.1989,-107.3863 588.611,-105.4269 579.2496,-100.4656 578.1989,-107.3863"/>
</g>
<!-- Node48 -->
<g id="node6" class="node">
<title>Node48</title>
<g id="a_node6"><a xlink:href="$classIoss_1_1GroupingEntity.html#a50d4053f49c8c3205e05d939fdc9fbc5" xlink:title="Get name of entity. ">
<polygon fill="#ffffff" stroke="#000000" points="588.7666,-52.5 588.7666,-80.5 694.8105,-80.5 694.8105,-52.5 588.7666,-52.5"/>
<text text-anchor="start" x="596.7666" y="-68.5" font-family="Helvetica,sans-Serif" font-size="10.00" fill="#000000">Ioss::GroupingEntity</text>
<text text-anchor="middle" x="641.7886" y="-58.5" font-family="Helvetica,sans-Serif" font-size="10.00" fill="#000000">::name</text>
</a>
</g>
</g>
<!-- Node46&#45;&gt;Node48 -->
<g id="edge5" class="edge">
<title>Node46&#45;&gt;Node48</title>
<path fill="none" stroke="#191970" d="M552.783,-80.5997C561.3364,-79.2447 570.1225,-77.8529 578.6866,-76.4962"/>
<polygon fill="#191970" stroke="#191970" points="579.2818,-79.9457 588.611,-74.9241 578.1865,-73.0319 579.2818,-79.9457"/>
</g>
<!-- Node53&#45;&gt;Node45 -->
<g id="edge11" class="edge">
<title>Node53&#45;&gt;Node45</title>
<path fill="none" stroke="#191970" d="M210.4277,-28.5719C235.4397,-36.6254 266.5059,-46.6281 290.4541,-54.339"/>
<polygon fill="#191970" stroke="#191970" points="289.6519,-57.7576 300.2434,-57.491 291.7973,-51.0945 289.6519,-57.7576"/>
</g>
</g>
</svg>
