<?xml version="1.0" encoding="UTF-8" standalone="no"?>
<!DOCTYPE svg PUBLIC "-//W3C//DTD SVG 1.1//EN"
 "http://www.w3.org/Graphics/SVG/1.1/DTD/svg11.dtd">
<!-- Generated by graphviz version 2.40.1 (20161225.0304)
 -->
<!-- Title: src/utest/Utst_map.C Pages: 1 -->
<svg width="1131pt" height="357pt"
 viewBox="0.00 0.00 1130.95 357.00" xmlns="http://www.w3.org/2000/svg" xmlns:xlink="http://www.w3.org/1999/xlink">
<g id="graph0" class="graph" transform="scale(1 1) rotate(0) translate(4 353)">
<title>src/utest/Utst_map.C</title>
<polygon fill="#ffffff" stroke="transparent" points="-4,4 -4,-353 1126.9531,-353 1126.9531,4 -4,4"/>
<!-- Node0 -->
<g id="node1" class="node">
<title>Node0</title>
<g id="a_node1"><a xlink:title=" ">
<polygon fill="#bfbfbf" stroke="#000000" points="766.3203,-330.5 766.3203,-348.5 875.6797,-348.5 875.6797,-330.5 766.3203,-330.5"/>
<text text-anchor="middle" x="821" y="-336.5" font-family="Helvetica,sans-Serif" font-size="10.00" fill="#000000">src/utest/Utst_map.C</text>
</a>
</g>
</g>
<!-- Node1 -->
<g id="node2" class="node">
<title>Node1</title>
<g id="a_node2"><a xlink:href="Ioss__ConcreteVariableType_8h.html" target="_top" xlink:title=" ">
<polygon fill="#ffffff" stroke="#000000" points="316.7729,-275.5 316.7729,-293.5 463.2271,-293.5 463.2271,-275.5 316.7729,-275.5"/>
<text text-anchor="middle" x="390" y="-281.5" font-family="Helvetica,sans-Serif" font-size="10.00" fill="#000000">Ioss_ConcreteVariableType.h</text>
</a>
</g>
</g>
<!-- Node0&#45;&gt;Node1 -->
<g id="edge1" class="edge">
<title>Node0&#45;&gt;Node1</title>
<path fill="none" stroke="#191970" d="M765.9758,-332.4783C691.2098,-322.9374 556.9897,-305.8096 470.7861,-294.8091"/>
<polygon fill="#191970" stroke="#191970" points="471.1418,-291.3262 460.7791,-293.5321 470.2556,-298.2699 471.1418,-291.3262"/>
</g>
<!-- Node8 -->
<g id="node9" class="node">
<title>Node8</title>
<g id="a_node9"><a xlink:title=" ">
<polygon fill="#ffffff" stroke="#bfbfbf" points="722.3843,-.5 722.3843,-18.5 765.6157,-18.5 765.6157,-.5 722.3843,-.5"/>
<text text-anchor="middle" x="744" y="-6.5" font-family="Helvetica,sans-Serif" font-size="10.00" fill="#000000">vector</text>
</a>
</g>
</g>
<!-- Node0&#45;&gt;Node8 -->
<g id="edge46" class="edge">
<title>Node0&#45;&gt;Node8</title>
<path fill="none" stroke="#191970" d="M824.2144,-330.245C836.8711,-291.9944 879.5473,-144.0769 816,-55 805.7855,-40.6819 789.5195,-29.8464 775.0305,-22.3484"/>
<polygon fill="#191970" stroke="#191970" points="776.3728,-19.1096 765.8472,-17.8999 773.3211,-25.4094 776.3728,-19.1096"/>
</g>
<!-- Node12 -->
<g id="node13" class="node">
<title>Node12</title>
<g id="a_node13"><a xlink:href="Ioss__Field_8h.html" target="_top" xlink:title=" ">
<polygon fill="#ffffff" stroke="#000000" points="180.042,-110.5 180.042,-128.5 249.958,-128.5 249.958,-110.5 180.042,-110.5"/>
<text text-anchor="middle" x="215" y="-116.5" font-family="Helvetica,sans-Serif" font-size="10.00" fill="#000000">Ioss_Field.h</text>
</a>
</g>
</g>
<!-- Node0&#45;&gt;Node12 -->
<g id="edge33" class="edge">
<title>Node0&#45;&gt;Node12</title>
<path fill="none" stroke="#191970" d="M766.2548,-337.5723C641.8155,-332.7759 345.5565,-318.8643 308,-294 252.4867,-257.2474 227.71,-176.0328 218.9594,-138.8148"/>
<polygon fill="#191970" stroke="#191970" points="222.3163,-137.7847 216.7419,-128.7748 215.481,-139.2944 222.3163,-137.7847"/>
</g>
<!-- Node13 -->
<g id="node14" class="node">
<title>Node13</title>
<g id="a_node14"><a xlink:title=" ">
<polygon fill="#ffffff" stroke="#bfbfbf" points="745.436,-110.5 745.436,-128.5 802.564,-128.5 802.564,-110.5 745.436,-110.5"/>
<text text-anchor="middle" x="774" y="-116.5" font-family="Helvetica,sans-Serif" font-size="10.00" fill="#000000">algorithm</text>
</a>
</g>
</g>
<!-- Node0&#45;&gt;Node13 -->
<g id="edge41" class="edge">
<title>Node0&#45;&gt;Node13</title>
<path fill="none" stroke="#191970" d="M817.7956,-330.1743C814.7356,-321.0367 810.1383,-306.6756 807,-294 793.2074,-238.2909 782.0255,-171.3386 776.9498,-138.9462"/>
<polygon fill="#191970" stroke="#191970" points="780.3468,-138.0098 775.3625,-128.6606 773.4287,-139.0774 780.3468,-138.0098"/>
</g>
<!-- Node21 -->
<g id="node22" class="node">
<title>Node21</title>
<g id="a_node22"><a xlink:href="Ioss__Map_8h.html" target="_top" xlink:title=" ">
<polygon fill="#ffffff" stroke="#000000" points="621.1528,-110.5 621.1528,-128.5 688.8472,-128.5 688.8472,-110.5 621.1528,-110.5"/>
<text text-anchor="middle" x="655" y="-116.5" font-family="Helvetica,sans-Serif" font-size="10.00" fill="#000000">Ioss_Map.h</text>
</a>
</g>
</g>
<!-- Node0&#45;&gt;Node21 -->
<g id="edge34" class="edge">
<title>Node0&#45;&gt;Node21</title>
<path fill="none" stroke="#191970" d="M814.0785,-330.327C788.8199,-296.8517 701.3492,-180.9266 668.0286,-136.7669"/>
<polygon fill="#191970" stroke="#191970" points="670.7682,-134.5866 661.951,-128.7122 665.1804,-138.8029 670.7682,-134.5866"/>
</g>
<!-- Node23 -->
<g id="node24" class="node">
<title>Node23</title>
<g id="a_node24"><a xlink:title=" ">
<polygon fill="#ffffff" stroke="#bfbfbf" points="849.3179,-275.5 849.3179,-293.5 908.6821,-293.5 908.6821,-275.5 849.3179,-275.5"/>
<text text-anchor="middle" x="879" y="-281.5" font-family="Helvetica,sans-Serif" font-size="10.00" fill="#000000">catch.hpp</text>
</a>
</g>
</g>
<!-- Node0&#45;&gt;Node23 -->
<g id="edge42" class="edge">
<title>Node0&#45;&gt;Node23</title>
<path fill="none" stroke="#191970" d="M830.5775,-330.4179C839.0064,-322.425 851.4866,-310.5903 861.6656,-300.9377"/>
<polygon fill="#191970" stroke="#191970" points="864.3665,-303.2001 869.2144,-293.7795 859.5498,-298.1207 864.3665,-303.2001"/>
</g>
<!-- Node24 -->
<g id="node25" class="node">
<title>Node24</title>
<g id="a_node25"><a xlink:title=" ">
<polygon fill="#ffffff" stroke="#bfbfbf" points="926.5962,-275.5 926.5962,-293.5 985.4038,-293.5 985.4038,-275.5 926.5962,-275.5"/>
<text text-anchor="middle" x="956" y="-281.5" font-family="Helvetica,sans-Serif" font-size="10.00" fill="#000000">exception</text>
</a>
</g>
</g>
<!-- Node0&#45;&gt;Node24 -->
<g id="edge43" class="edge">
<title>Node0&#45;&gt;Node24</title>
<path fill="none" stroke="#191970" d="M843.2925,-330.4179C865.3746,-321.4215 899.4029,-307.5581 924.2942,-297.4172"/>
<polygon fill="#191970" stroke="#191970" points="925.734,-300.61 933.6744,-293.5956 923.0929,-294.1273 925.734,-300.61"/>
</g>
<!-- Node25 -->
<g id="node26" class="node">
<title>Node25</title>
<g id="a_node26"><a xlink:title=" ">
<polygon fill="#ffffff" stroke="#bfbfbf" points="1003.2168,-275.5 1003.2168,-293.5 1054.7832,-293.5 1054.7832,-275.5 1003.2168,-275.5"/>
<text text-anchor="middle" x="1029" y="-281.5" font-family="Helvetica,sans-Serif" font-size="10.00" fill="#000000">numeric</text>
</a>
</g>
</g>
<!-- Node0&#45;&gt;Node25 -->
<g id="edge44" class="edge">
<title>Node0&#45;&gt;Node25</title>
<path fill="none" stroke="#191970" d="M855.814,-330.4295C888.7171,-321.8379 939.7249,-308.4701 993.0353,-294.2436"/>
<polygon fill="#191970" stroke="#191970" points="994.2547,-297.5406 1003.0125,-291.5781 992.4479,-290.7778 994.2547,-297.5406"/>
</g>
<!-- Node26 -->
<g id="node27" class="node">
<title>Node26</title>
<g id="a_node27"><a xlink:title=" ">
<polygon fill="#ffffff" stroke="#bfbfbf" points="1073.0469,-275.5 1073.0469,-293.5 1122.9531,-293.5 1122.9531,-275.5 1073.0469,-275.5"/>
<text text-anchor="middle" x="1098" y="-281.5" font-family="Helvetica,sans-Serif" font-size="10.00" fill="#000000">random</text>
</a>
</g>
</g>
<!-- Node0&#45;&gt;Node26 -->
<g id="edge45" class="edge">
<title>Node0&#45;&gt;Node26</title>
<path fill="none" stroke="#191970" d="M875.8126,-330.6444C923.0297,-322.6975 993.1834,-310.1338 1062.9698,-294.0889"/>
<polygon fill="#191970" stroke="#191970" points="1063.8638,-297.4745 1072.8121,-291.802 1062.2794,-290.6562 1063.8638,-297.4745"/>
</g>
<!-- Node2 -->
<g id="node3" class="node">
<title>Node2</title>
<g id="a_node3"><a xlink:href="Ioss__VariableType_8h.html" target="_top" xlink:title=" ">
<polygon fill="#ffffff" stroke="#000000" points="337.061,-220.5 337.061,-238.5 442.939,-238.5 442.939,-220.5 337.061,-220.5"/>
<text text-anchor="middle" x="390" y="-226.5" font-family="Helvetica,sans-Serif" font-size="10.00" fill="#000000">Ioss_VariableType.h</text>
</a>
</g>
</g>
<!-- Node1&#45;&gt;Node2 -->
<g id="edge2" class="edge">
<title>Node1&#45;&gt;Node2</title>
<path fill="none" stroke="#191970" d="M390,-275.4179C390,-268.2164 390,-257.8962 390,-248.8632"/>
<polygon fill="#191970" stroke="#191970" points="393.5001,-248.7794 390,-238.7795 386.5001,-248.7795 393.5001,-248.7794"/>
</g>
<!-- Node7 -->
<g id="node8" class="node">
<title>Node7</title>
<g id="a_node8"><a xlink:title=" ">
<polygon fill="#ffffff" stroke="#bfbfbf" points="77.7734,-.5 77.7734,-18.5 118.2266,-18.5 118.2266,-.5 77.7734,-.5"/>
<text text-anchor="middle" x="98" y="-6.5" font-family="Helvetica,sans-Serif" font-size="10.00" fill="#000000">string</text>
</a>
</g>
</g>
<!-- Node1&#45;&gt;Node7 -->
<g id="edge32" class="edge">
<title>Node1&#45;&gt;Node7</title>
<path fill="none" stroke="#191970" d="M316.644,-278.8262C203.6705,-268.0411 0,-239.5737 0,-174.5 0,-174.5 0,-174.5 0,-119.5 0,-76.342 42.5768,-42.2875 71.6028,-24.0859"/>
<polygon fill="#191970" stroke="#191970" points="73.7175,-26.8982 80.4796,-18.7419 70.1071,-20.9011 73.7175,-26.8982"/>
</g>
<!-- Node3 -->
<g id="node4" class="node">
<title>Node3</title>
<g id="a_node4"><a xlink:href="Ioss__CodeTypes_8h.html" target="_top" xlink:title=" ">
<polygon fill="#ffffff" stroke="#000000" points="257.584,-55.5 257.584,-73.5 356.416,-73.5 356.416,-55.5 257.584,-55.5"/>
<text text-anchor="middle" x="307" y="-61.5" font-family="Helvetica,sans-Serif" font-size="10.00" fill="#000000">Ioss_CodeTypes.h</text>
</a>
</g>
</g>
<!-- Node2&#45;&gt;Node3 -->
<g id="edge3" class="edge">
<title>Node2&#45;&gt;Node3</title>
<path fill="none" stroke="#191970" d="M337.0011,-222.9722C282.2488,-213.0822 199.5236,-188.6245 161,-129 137.505,-92.6358 197.0676,-76.6337 247.0591,-69.6841"/>
<polygon fill="#191970" stroke="#191970" points="247.7547,-73.1235 257.2248,-68.373 246.8592,-66.181 247.7547,-73.1235"/>
</g>
<!-- Node2&#45;&gt;Node7 -->
<g id="edge30" class="edge">
<title>Node2&#45;&gt;Node7</title>
<path fill="none" stroke="#191970" d="M336.9036,-225.394C295.496,-220.3292 237.7074,-209.0532 193,-184 139.1017,-153.7964 128.2271,-132.3793 108,-74 102.8926,-59.2592 100.3865,-41.7191 99.1609,-28.6537"/>
<polygon fill="#191970" stroke="#191970" points="102.6371,-28.2087 98.3802,-18.5067 95.6577,-28.7457 102.6371,-28.2087"/>
</g>
<!-- Node2&#45;&gt;Node8 -->
<g id="edge31" class="edge">
<title>Node2&#45;&gt;Node8</title>
<path fill="none" stroke="#191970" d="M443.1057,-224.8771C546.0259,-214.7011 766.5457,-186.5505 812,-129 838.9316,-94.9015 793.182,-48.8752 764.4958,-25.1243"/>
<polygon fill="#191970" stroke="#191970" points="766.5752,-22.3053 756.5859,-18.7748 762.1933,-27.7642 766.5752,-22.3053"/>
</g>
<!-- Node11 -->
<g id="node12" class="node">
<title>Node11</title>
<g id="a_node12"><a xlink:href="Ioss__Utils_8h.html" target="_top" xlink:title=" ">
<polygon fill="#ffffff" stroke="#000000" points="356.1577,-165.5 356.1577,-183.5 423.8423,-183.5 423.8423,-165.5 356.1577,-165.5"/>
<text text-anchor="middle" x="390" y="-171.5" font-family="Helvetica,sans-Serif" font-size="10.00" fill="#000000">Ioss_Utils.h</text>
</a>
</g>
</g>
<!-- Node2&#45;&gt;Node11 -->
<g id="edge11" class="edge">
<title>Node2&#45;&gt;Node11</title>
<path fill="none" stroke="#191970" d="M390,-220.4179C390,-213.2164 390,-202.8962 390,-193.8632"/>
<polygon fill="#191970" stroke="#191970" points="393.5001,-193.7794 390,-183.7795 386.5001,-193.7795 393.5001,-193.7794"/>
</g>
<!-- Node18 -->
<g id="node19" class="node">
<title>Node18</title>
<g id="a_node19"><a xlink:title=" ">
<polygon fill="#ffffff" stroke="#bfbfbf" points="292.2734,-165.5 292.2734,-183.5 337.7266,-183.5 337.7266,-165.5 292.2734,-165.5"/>
<text text-anchor="middle" x="315" y="-171.5" font-family="Helvetica,sans-Serif" font-size="10.00" fill="#000000">cstring</text>
</a>
</g>
</g>
<!-- Node2&#45;&gt;Node18 -->
<g id="edge27" class="edge">
<title>Node2&#45;&gt;Node18</title>
<path fill="none" stroke="#191970" d="M377.6153,-220.4179C366.216,-212.0584 349.0863,-199.4966 335.6235,-189.6239"/>
<polygon fill="#191970" stroke="#191970" points="337.537,-186.6869 327.4031,-183.5956 333.3974,-192.3317 337.537,-186.6869"/>
</g>
<!-- Node19 -->
<g id="node20" class="node">
<title>Node19</title>
<g id="a_node20"><a xlink:title=" ">
<polygon fill="#ffffff" stroke="#bfbfbf" points="441.5962,-165.5 441.5962,-183.5 500.4038,-183.5 500.4038,-165.5 441.5962,-165.5"/>
<text text-anchor="middle" x="471" y="-171.5" font-family="Helvetica,sans-Serif" font-size="10.00" fill="#000000">functional</text>
</a>
</g>
</g>
<!-- Node2&#45;&gt;Node19 -->
<g id="edge28" class="edge">
<title>Node2&#45;&gt;Node19</title>
<path fill="none" stroke="#191970" d="M403.3755,-220.4179C415.804,-211.9788 434.5397,-199.257 449.1409,-189.3426"/>
<polygon fill="#191970" stroke="#191970" points="451.2977,-192.1088 457.6046,-183.5956 447.3654,-186.3176 451.2977,-192.1088"/>
</g>
<!-- Node20 -->
<g id="node21" class="node">
<title>Node20</title>
<g id="a_node21"><a xlink:title=" ">
<polygon fill="#ffffff" stroke="#bfbfbf" points="518.2734,-165.5 518.2734,-183.5 553.7266,-183.5 553.7266,-165.5 518.2734,-165.5"/>
<text text-anchor="middle" x="536" y="-171.5" font-family="Helvetica,sans-Serif" font-size="10.00" fill="#000000">map</text>
</a>
</g>
</g>
<!-- Node2&#45;&gt;Node20 -->
<g id="edge29" class="edge">
<title>Node2&#45;&gt;Node20</title>
<path fill="none" stroke="#191970" d="M414.1089,-220.4179C439.9632,-210.6782 480.96,-195.2342 508.1674,-184.9849"/>
<polygon fill="#191970" stroke="#191970" points="509.7352,-188.1345 517.8593,-181.3338 507.2675,-181.5838 509.7352,-188.1345"/>
</g>
<!-- Node4 -->
<g id="node5" class="node">
<title>Node4</title>
<g id="a_node5"><a xlink:title=" ">
<polygon fill="#ffffff" stroke="#bfbfbf" points="351.6084,-.5 351.6084,-18.5 390.3916,-18.5 390.3916,-.5 351.6084,-.5"/>
<text text-anchor="middle" x="371" y="-6.5" font-family="Helvetica,sans-Serif" font-size="10.00" fill="#000000">array</text>
</a>
</g>
</g>
<!-- Node3&#45;&gt;Node4 -->
<g id="edge4" class="edge">
<title>Node3&#45;&gt;Node4</title>
<path fill="none" stroke="#191970" d="M317.5683,-55.4179C327.0533,-47.2667 341.1875,-35.1201 352.5366,-25.3669"/>
<polygon fill="#191970" stroke="#191970" points="354.8991,-27.9516 360.2021,-18.7795 350.3367,-22.6427 354.8991,-27.9516"/>
</g>
<!-- Node5 -->
<g id="node6" class="node">
<title>Node5</title>
<g id="a_node6"><a xlink:title=" ">
<polygon fill="#ffffff" stroke="#bfbfbf" points="435.8794,-.5 435.8794,-18.5 484.1206,-18.5 484.1206,-.5 435.8794,-.5"/>
<text text-anchor="middle" x="460" y="-6.5" font-family="Helvetica,sans-Serif" font-size="10.00" fill="#000000">cstddef</text>
</a>
</g>
</g>
<!-- Node3&#45;&gt;Node5 -->
<g id="edge5" class="edge">
<title>Node3&#45;&gt;Node5</title>
<path fill="none" stroke="#191970" d="M332.2648,-55.4179C357.9271,-46.1929 397.8253,-31.8504 426.1968,-21.6515"/>
<polygon fill="#191970" stroke="#191970" points="427.4827,-24.9086 435.7092,-18.232 425.1147,-18.3212 427.4827,-24.9086"/>
</g>
<!-- Node6 -->
<g id="node7" class="node">
<title>Node6</title>
<g id="a_node7"><a xlink:title=" ">
<polygon fill="#ffffff" stroke="#bfbfbf" points="570.5493,-.5 570.5493,-18.5 615.4507,-18.5 615.4507,-.5 570.5493,-.5"/>
<text text-anchor="middle" x="593" y="-6.5" font-family="Helvetica,sans-Serif" font-size="10.00" fill="#000000">cstdint</text>
</a>
</g>
</g>
<!-- Node3&#45;&gt;Node6 -->
<g id="edge6" class="edge">
<title>Node3&#45;&gt;Node6</title>
<path fill="none" stroke="#191970" d="M353.9068,-55.4795C412.0504,-44.298 509.6421,-25.5304 560.2862,-15.7911"/>
<polygon fill="#191970" stroke="#191970" points="561.1903,-19.1815 570.3494,-13.8559 559.8684,-12.3074 561.1903,-19.1815"/>
</g>
<!-- Node3&#45;&gt;Node7 -->
<g id="edge7" class="edge">
<title>Node3&#45;&gt;Node7</title>
<path fill="none" stroke="#191970" d="M272.4879,-55.4179C232.3224,-44.848 166.6273,-27.5598 128.3387,-17.4839"/>
<polygon fill="#191970" stroke="#191970" points="128.8715,-14.005 118.31,-14.8447 127.09,-20.7745 128.8715,-14.005"/>
</g>
<!-- Node3&#45;&gt;Node8 -->
<g id="edge8" class="edge">
<title>Node3&#45;&gt;Node8</title>
<path fill="none" stroke="#191970" d="M356.704,-58.2443C447.1091,-46.8661 636.0868,-23.0817 711.7063,-13.5644"/>
<polygon fill="#191970" stroke="#191970" points="712.5309,-16.9883 722.0155,-12.2669 711.6567,-10.0431 712.5309,-16.9883"/>
</g>
<!-- Node9 -->
<g id="node10" class="node">
<title>Node9</title>
<g id="a_node10"><a xlink:title=" ">
<polygon fill="#ffffff" stroke="#bfbfbf" points="147.2515,-.5 147.2515,-18.5 262.7485,-18.5 262.7485,-.5 147.2515,-.5"/>
<text text-anchor="middle" x="205" y="-6.5" font-family="Helvetica,sans-Serif" font-size="10.00" fill="#000000">SEACASIoss_config.h</text>
</a>
</g>
</g>
<!-- Node3&#45;&gt;Node9 -->
<g id="edge9" class="edge">
<title>Node3&#45;&gt;Node9</title>
<path fill="none" stroke="#191970" d="M290.1568,-55.4179C273.9893,-46.7001 249.3462,-33.4122 230.7224,-23.3699"/>
<polygon fill="#191970" stroke="#191970" points="232.3314,-20.2611 221.8682,-18.5956 229.009,-26.4225 232.3314,-20.2611"/>
</g>
<!-- Node10 -->
<g id="node11" class="node">
<title>Node10</title>
<g id="a_node11"><a xlink:title=" ">
<polygon fill="#ffffff" stroke="#bfbfbf" points="280.3818,-.5 280.3818,-18.5 333.6182,-18.5 333.6182,-.5 280.3818,-.5"/>
<text text-anchor="middle" x="307" y="-6.5" font-family="Helvetica,sans-Serif" font-size="10.00" fill="#000000">complex</text>
</a>
</g>
</g>
<!-- Node3&#45;&gt;Node10 -->
<g id="edge10" class="edge">
<title>Node3&#45;&gt;Node10</title>
<path fill="none" stroke="#191970" d="M307,-55.4179C307,-48.2164 307,-37.8962 307,-28.8632"/>
<polygon fill="#191970" stroke="#191970" points="310.5001,-28.7794 307,-18.7795 303.5001,-28.7795 310.5001,-28.7794"/>
</g>
<!-- Node11&#45;&gt;Node3 -->
<g id="edge12" class="edge">
<title>Node11&#45;&gt;Node3</title>
<path fill="none" stroke="#191970" d="M355.743,-166.8809C352.7871,-166.2388 349.8416,-165.6045 347,-165 268.9056,-148.3874 221.4839,-190.8554 171,-129 145.5472,-97.8139 199.9686,-80.8049 247.3547,-72.2033"/>
<polygon fill="#191970" stroke="#191970" points="248.0636,-75.6329 257.3284,-70.4934 246.8807,-68.7336 248.0636,-75.6329"/>
</g>
<!-- Node11&#45;&gt;Node5 -->
<g id="edge20" class="edge">
<title>Node11&#45;&gt;Node5</title>
<path fill="none" stroke="#191970" d="M423.9438,-166.1695C464.9119,-155.7763 529.1948,-138.2488 536,-129 562.5051,-92.9774 512.9743,-47.8141 482.0793,-24.6864"/>
<polygon fill="#191970" stroke="#191970" points="484.086,-21.8182 473.9381,-18.7735 479.9724,-27.482 484.086,-21.8182"/>
</g>
<!-- Node11&#45;&gt;Node6 -->
<g id="edge21" class="edge">
<title>Node11&#45;&gt;Node6</title>
<path fill="none" stroke="#191970" d="M424.1315,-166.845C469.3454,-156.4311 544.5231,-138.0613 554,-129 581.8926,-102.3306 589.8598,-55.4873 592.1201,-29.0652"/>
<polygon fill="#191970" stroke="#191970" points="595.6308,-29.0166 592.7946,-18.8084 588.6458,-28.5571 595.6308,-29.0166"/>
</g>
<!-- Node11&#45;&gt;Node7 -->
<g id="edge25" class="edge">
<title>Node11&#45;&gt;Node7</title>
<path fill="none" stroke="#191970" d="M355.7498,-166.8481C352.7925,-166.2132 349.8448,-165.5894 347,-165 264.5505,-147.9163 228.6172,-179.1767 161,-129 127.2314,-103.9413 109.861,-55.3654 102.4834,-28.5063"/>
<polygon fill="#191970" stroke="#191970" points="105.8587,-27.578 99.9864,-18.7595 99.0777,-29.3153 105.8587,-27.578"/>
</g>
<!-- Node11&#45;&gt;Node8 -->
<g id="edge26" class="edge">
<title>Node11&#45;&gt;Node8</title>
<path fill="none" stroke="#191970" d="M424.2166,-166.6739C427.1812,-166.0768 430.1398,-165.5093 433,-165 491.5093,-154.5808 649.2986,-163.0598 698,-129 730.6775,-106.1467 740.1459,-56.6498 742.8864,-29.0668"/>
<polygon fill="#191970" stroke="#191970" points="746.4045,-28.9718 743.697,-18.7288 739.4259,-28.4245 746.4045,-28.9718"/>
</g>
<!-- Node11&#45;&gt;Node12 -->
<g id="edge13" class="edge">
<title>Node11&#45;&gt;Node12</title>
<path fill="none" stroke="#191970" d="M361.1023,-165.4179C331.6295,-156.155 285.7396,-141.7325 253.2645,-131.526"/>
<polygon fill="#191970" stroke="#191970" points="254.2391,-128.1636 243.6498,-128.5042 252.1403,-134.8415 254.2391,-128.1636"/>
</g>
<!-- Node11&#45;&gt;Node13 -->
<g id="edge18" class="edge">
<title>Node11&#45;&gt;Node13</title>
<path fill="none" stroke="#191970" d="M424.2086,-166.6278C427.175,-166.0407 430.1361,-165.4882 433,-165 564.5106,-142.5837 599.4894,-151.4163 731,-129 732.4602,-128.7511 733.9457,-128.4855 735.4443,-128.207"/>
<polygon fill="#191970" stroke="#191970" points="736.2709,-131.6112 745.3951,-126.226 734.9042,-124.746 736.2709,-131.6112"/>
</g>
<!-- Node14 -->
<g id="node15" class="node">
<title>Node14</title>
<g id="a_node15"><a xlink:title=" ">
<polygon fill="#ffffff" stroke="#bfbfbf" points="267.8843,-110.5 267.8843,-128.5 316.1157,-128.5 316.1157,-110.5 267.8843,-110.5"/>
<text text-anchor="middle" x="292" y="-116.5" font-family="Helvetica,sans-Serif" font-size="10.00" fill="#000000">cassert</text>
</a>
</g>
</g>
<!-- Node11&#45;&gt;Node14 -->
<g id="edge19" class="edge">
<title>Node11&#45;&gt;Node14</title>
<path fill="none" stroke="#191970" d="M373.8173,-165.4179C358.3548,-156.7399 334.8232,-143.5334 316.9591,-133.5077"/>
<polygon fill="#191970" stroke="#191970" points="318.6402,-130.4377 308.2067,-128.5956 315.2143,-136.542 318.6402,-130.4377"/>
</g>
<!-- Node15 -->
<g id="node16" class="node">
<title>Node15</title>
<g id="a_node16"><a xlink:title=" ">
<polygon fill="#ffffff" stroke="#bfbfbf" points="333.8276,-110.5 333.8276,-128.5 378.1724,-128.5 378.1724,-110.5 333.8276,-110.5"/>
<text text-anchor="middle" x="356" y="-116.5" font-family="Helvetica,sans-Serif" font-size="10.00" fill="#000000">cstdlib</text>
</a>
</g>
</g>
<!-- Node11&#45;&gt;Node15 -->
<g id="edge22" class="edge">
<title>Node11&#45;&gt;Node15</title>
<path fill="none" stroke="#191970" d="M384.3856,-165.4179C379.6891,-157.8207 372.8471,-146.7527 367.0572,-137.3866"/>
<polygon fill="#191970" stroke="#191970" points="369.9717,-135.445 361.7364,-128.7795 364.0176,-139.1258 369.9717,-135.445"/>
</g>
<!-- Node16 -->
<g id="node17" class="node">
<title>Node16</title>
<g id="a_node17"><a xlink:title=" ">
<polygon fill="#ffffff" stroke="#bfbfbf" points="395.8276,-110.5 395.8276,-128.5 450.1724,-128.5 450.1724,-110.5 395.8276,-110.5"/>
<text text-anchor="middle" x="423" y="-116.5" font-family="Helvetica,sans-Serif" font-size="10.00" fill="#000000">iostream</text>
</a>
</g>
</g>
<!-- Node11&#45;&gt;Node16 -->
<g id="edge23" class="edge">
<title>Node11&#45;&gt;Node16</title>
<path fill="none" stroke="#191970" d="M395.4493,-165.4179C400.0076,-157.8207 406.6484,-146.7527 412.268,-137.3866"/>
<polygon fill="#191970" stroke="#191970" points="415.2886,-139.1552 417.4323,-128.7795 409.2861,-135.5536 415.2886,-139.1552"/>
</g>
<!-- Node17 -->
<g id="node18" class="node">
<title>Node17</title>
<g id="a_node18"><a xlink:title=" ">
<polygon fill="#ffffff" stroke="#bfbfbf" points="468.5986,-110.5 468.5986,-128.5 527.4014,-128.5 527.4014,-110.5 468.5986,-110.5"/>
<text text-anchor="middle" x="498" y="-116.5" font-family="Helvetica,sans-Serif" font-size="10.00" fill="#000000">stdexcept</text>
</a>
</g>
</g>
<!-- Node11&#45;&gt;Node17 -->
<g id="edge24" class="edge">
<title>Node11&#45;&gt;Node17</title>
<path fill="none" stroke="#191970" d="M407.834,-165.4179C425.0307,-156.6603 451.2836,-143.2907 471.0343,-133.2326"/>
<polygon fill="#191970" stroke="#191970" points="472.8168,-136.2526 480.1395,-128.5956 469.6401,-130.0148 472.8168,-136.2526"/>
</g>
<!-- Node12&#45;&gt;Node3 -->
<g id="edge14" class="edge">
<title>Node12&#45;&gt;Node3</title>
<path fill="none" stroke="#191970" d="M230.1919,-110.4179C244.5746,-101.8195 266.3939,-88.7754 283.1061,-78.7844"/>
<polygon fill="#191970" stroke="#191970" points="284.9983,-81.731 291.7855,-73.5956 281.4064,-75.7228 284.9983,-81.731"/>
</g>
<!-- Node12&#45;&gt;Node5 -->
<g id="edge15" class="edge">
<title>Node12&#45;&gt;Node5</title>
<path fill="none" stroke="#191970" d="M250.0598,-112.0432C281.1867,-104.6891 327.4272,-91.9409 365,-74 393.2648,-60.5036 422.6193,-39.2782 441.0793,-24.8947"/>
<polygon fill="#191970" stroke="#191970" points="443.3176,-27.5867 448.9826,-18.6336 438.9708,-22.0999 443.3176,-27.5867"/>
</g>
<!-- Node12&#45;&gt;Node7 -->
<g id="edge16" class="edge">
<title>Node12&#45;&gt;Node7</title>
<path fill="none" stroke="#191970" d="M205.4254,-110.4982C185.6283,-91.8856 139.9613,-48.9508 115.0181,-25.4999"/>
<polygon fill="#191970" stroke="#191970" points="117.39,-22.9259 107.7069,-18.6261 112.5952,-28.0259 117.39,-22.9259"/>
</g>
<!-- Node12&#45;&gt;Node8 -->
<g id="edge17" class="edge">
<title>Node12&#45;&gt;Node8</title>
<path fill="none" stroke="#191970" d="M250.0588,-111.903C253.0823,-111.2562 256.0946,-110.6147 259,-110 429.7414,-73.8781 634.5887,-31.8646 712.1507,-16.0042"/>
<polygon fill="#191970" stroke="#191970" points="713.1371,-19.375 722.2335,-13.9431 711.7351,-12.5168 713.1371,-19.375"/>
</g>
<!-- Node21&#45;&gt;Node3 -->
<g id="edge35" class="edge">
<title>Node21&#45;&gt;Node3</title>
<path fill="none" stroke="#191970" d="M620.9987,-114.1262C561.9498,-104.7938 439.7537,-85.4812 366.4269,-73.8922"/>
<polygon fill="#191970" stroke="#191970" points="366.8399,-70.4141 356.4161,-72.31 365.7471,-77.3283 366.8399,-70.4141"/>
</g>
<!-- Node21&#45;&gt;Node5 -->
<g id="edge36" class="edge">
<title>Node21&#45;&gt;Node5</title>
<path fill="none" stroke="#191970" d="M639.0423,-110.4982C605.1187,-91.3619 525.618,-46.5153 484.9379,-23.5675"/>
<polygon fill="#191970" stroke="#191970" points="486.6076,-20.491 476.1782,-18.6261 483.1683,-26.5878 486.6076,-20.491"/>
</g>
<!-- Node21&#45;&gt;Node6 -->
<g id="edge37" class="edge">
<title>Node21&#45;&gt;Node6</title>
<path fill="none" stroke="#191970" d="M649.9263,-110.4982C639.708,-92.369 616.4838,-51.1647 603.0699,-27.3659"/>
<polygon fill="#191970" stroke="#191970" points="606.103,-25.6191 598.1438,-18.6261 600.005,-29.0562 606.103,-25.6191"/>
</g>
<!-- Node21&#45;&gt;Node7 -->
<g id="edge38" class="edge">
<title>Node21&#45;&gt;Node7</title>
<path fill="none" stroke="#191970" d="M620.9653,-116.2607C529.8073,-107.5032 284.622,-83.3865 249,-74 203.1826,-61.9269 153.2076,-38.3417 123.7875,-23.2823"/>
<polygon fill="#191970" stroke="#191970" points="125.1221,-20.0317 114.634,-18.5311 121.8971,-26.2446 125.1221,-20.0317"/>
</g>
<!-- Node21&#45;&gt;Node8 -->
<g id="edge40" class="edge">
<title>Node21&#45;&gt;Node8</title>
<path fill="none" stroke="#191970" d="M667.3154,-110.3128C678.3049,-101.7203 694.4056,-88.1237 706,-74 717.6972,-59.7511 728.0981,-41.4906 735.0482,-28.0384"/>
<polygon fill="#191970" stroke="#191970" points="738.3088,-29.3437 739.6547,-18.8347 732.049,-26.2107 738.3088,-29.3437"/>
</g>
<!-- Node22 -->
<g id="node23" class="node">
<title>Node22</title>
<g id="a_node23"><a xlink:title=" ">
<polygon fill="#ffffff" stroke="#bfbfbf" points="658.6084,-55.5 658.6084,-73.5 697.3916,-73.5 697.3916,-55.5 658.6084,-55.5"/>
<text text-anchor="middle" x="678" y="-61.5" font-family="Helvetica,sans-Serif" font-size="10.00" fill="#000000">utility</text>
</a>
</g>
</g>
<!-- Node21&#45;&gt;Node22 -->
<g id="edge39" class="edge">
<title>Node21&#45;&gt;Node22</title>
<path fill="none" stroke="#191970" d="M658.798,-110.4179C661.8757,-103.0581 666.3156,-92.441 670.1509,-83.2695"/>
<polygon fill="#191970" stroke="#191970" points="673.4904,-84.3556 674.1195,-73.7795 667.0323,-81.6549 673.4904,-84.3556"/>
</g>
</g>
</svg>
